<svg id="Layer_1" enable-background="new 0 0 497 497" height="512" viewBox="0 0 497 497" width="512" xmlns="http://www.w3.org/2000/svg"><path d="m272.363 9.19 32.407 29.308 42.719-9.178c17.861-3.837 35.725 6.477 41.332 23.863l13.411 41.585 41.585 13.411c17.387 5.607 27.701 23.471 23.863 41.332l-9.178 42.719 29.308 32.407c12.254 13.549 12.254 34.177 0 47.726l-29.308 32.407 9.178 42.719c3.837 17.861-6.477 35.725-23.863 41.332l-41.585 13.411-13.411 41.585c-5.607 17.387-23.471 27.701-41.332 23.863l-42.719-9.178-32.407 29.308c-13.549 12.254-34.177 12.254-47.726 0l-32.407-29.308-42.719 9.178c-17.861 3.837-35.725-6.477-41.332-23.863l-13.411-41.585-41.585-13.411c-17.387-5.607-27.701-23.471-23.863-41.332l9.178-42.719-29.308-32.407c-12.254-13.549-12.254-34.177 0-47.726l29.308-32.407-9.178-42.719c-3.837-17.861 6.477-35.725 23.863-41.332l41.585-13.411 13.411-41.585c5.607-17.387 23.471-27.701 41.332-23.863l42.719 9.178 32.407-29.308c13.549-12.253 34.177-12.253 47.726 0z" fill="#ffb357"/><path d="m248.5 436.485c-103.655 0-187.985-84.33-187.985-187.985s84.33-187.985 187.985-187.985 187.985 84.33 187.985 187.985-84.33 187.985-187.985 187.985z" fill="#fce3a0"/><path d="m162.515 248.5c0-85.986 58.032-158.669 136.985-180.952-16.224-4.579-33.331-7.034-51-7.034-103.655 0-187.985 84.33-187.985 187.985s84.33 187.985 187.985 187.985c17.669 0 34.776-2.455 51-7.034-78.953-22.281-136.985-94.964-136.985-180.95z" fill="#ffce71"/><ellipse cx="169.331" cy="240.763" fill="#ff8e9e" rx="29.212" ry="23.263" transform="matrix(1 .003 -.003 1 .755 -.529)"/><ellipse cx="327.669" cy="241.259" fill="#ff8e9e" rx="29.212" ry="23.263" transform="matrix(-1 -.003 .003 -1 654.581 483.543)"/><g fill="#313d40"><path d="m184 198.5c-4.142 0-7.5 3.358-7.5 7.5v10c0 4.142 3.358 7.5 7.5 7.5s7.5-3.358 7.5-7.5v-10c0-4.142-3.358-7.5-7.5-7.5z"/><path d="m312 198.5c-4.142 0-7.5 3.358-7.5 7.5v10c0 4.142 3.358 7.5 7.5 7.5s7.5-3.358 7.5-7.5v-10c0-4.142-3.358-7.5-7.5-7.5z"/><path d="m267.735 227.234c-3.737-1.789-8.215-.206-10.001 3.531-1.666 3.484-5.291 5.735-9.234 5.735s-7.568-2.251-9.234-5.735c-1.787-3.737-6.266-5.317-10.001-3.531-3.737 1.787-5.318 6.265-3.531 10.001 4.144 8.666 13.08 14.265 22.766 14.265s18.623-5.599 22.766-14.265c1.787-3.736.206-8.214-3.531-10.001z"/></g></svg>