<svg id="Layer_1" enable-background="new 0 0 497 497" height="512" viewBox="0 0 497 497" width="512" xmlns="http://www.w3.org/2000/svg"><path d="m199.477 6.731 23.734 21.465 31.287-6.722c13.081-2.811 26.165 4.743 30.271 17.477l9.822 30.457 30.457 9.822c12.734 4.107 20.288 17.19 17.477 30.271l-6.722 31.287 21.465 23.734c8.975 9.923 8.975 25.031 0 34.954l-21.465 23.734 6.722 31.287c2.811 13.081-4.743 26.165-17.477 30.271l-30.457 9.822-9.822 30.457c-4.107 12.734-17.19 20.288-30.271 17.477l-31.287-6.722-23.734 21.465c-9.923 8.975-25.031 8.975-34.954 0l-23.734-21.465-31.287 6.722c-13.081 2.811-26.165-4.743-30.271-17.477l-9.822-30.457-30.457-9.822c-12.734-4.107-20.288-17.19-17.477-30.271l6.722-31.287-21.466-23.733c-8.975-9.923-8.975-25.031 0-34.954l21.465-23.734-6.722-31.287c-2.811-13.082 4.743-26.166 17.477-30.272l30.457-9.822 9.822-30.457c4.107-12.734 17.19-20.288 30.271-17.477l31.287 6.722 23.734-21.465c9.924-8.975 25.032-8.975 34.955 0z" fill="#ffb357"/><path d="m182 319.679c-75.917 0-137.679-61.763-137.679-137.679s61.762-137.679 137.679-137.679 137.679 61.762 137.679 137.679-61.762 137.679-137.679 137.679z" fill="#fce3a0"/><path d="m119.025 182c0-62.976 42.502-116.208 100.327-132.528-11.883-3.354-24.411-5.152-37.352-5.152-75.917 0-137.679 61.763-137.679 137.679s61.762 137.68 137.679 137.68c12.941 0 25.469-1.798 37.352-5.152-57.825-16.319-100.327-69.552-100.327-132.527z" fill="#ffce71"/><path d="m318.946 217.571c-11.192-2.839-22.909-4.351-34.972-4.351-61.774 0-114.317 39.481-133.8 94.583v.006c-50.772.673-93.174 42.15-93.174 94.598 0 52.242 42.351 94.593 94.593 94.593h201.281z" fill="#d4d4d5"/><path d="m425.844 355.107c-.004-66.44-45.554-121.977-106.898-137.535-61.429 15.597-106.874 71.26-106.874 137.541 0 78.002 62.939 141.295 140.802 141.888h73.181c39.182-.001 70.945-31.764 70.945-70.946 0-39.696-32.442-71.156-71.156-70.948z" fill="#efedee"/><ellipse cx="99.331" cy="180.763" fill="#ff8e9e" rx="29.212" ry="23.263" transform="matrix(1 .003 -.003 1 .567 -.31)"/><ellipse cx="257.669" cy="181.259" fill="#ff8e9e" rx="29.212" ry="23.263" transform="matrix(-1 -.003 .003 -1 514.769 363.325)"/><g fill="#313d40"><path d="m114 138.5c-4.142 0-7.5 3.358-7.5 7.5v10c0 4.142 3.358 7.5 7.5 7.5s7.5-3.358 7.5-7.5v-10c0-4.142-3.358-7.5-7.5-7.5z"/><path d="m242 138.5c-4.142 0-7.5 3.358-7.5 7.5v10c0 4.142 3.358 7.5 7.5 7.5s7.5-3.358 7.5-7.5v-10c0-4.142-3.358-7.5-7.5-7.5z"/><path d="m197.735 157.234c-3.737-1.789-8.215-.206-10.001 3.531-1.666 3.484-5.291 5.735-9.234 5.735s-7.568-2.251-9.234-5.735c-1.787-3.737-6.266-5.317-10.001-3.531-3.737 1.787-5.318 6.265-3.531 10.001 4.144 8.666 13.08 14.265 22.766 14.265s18.623-5.599 22.766-14.265c1.787-3.737.206-8.215-3.531-10.001z"/></g><ellipse cx="217.971" cy="387.843" fill="#ff8e9e" rx="25.471" ry="20.283" transform="matrix(1 .003 -.003 1 1.216 -.681)"/><ellipse cx="356.029" cy="388.275" fill="#ff8e9e" rx="25.471" ry="20.283" transform="matrix(-1 -.003 .003 -1 710.841 777.663)"/><path d="m223 348.5c-4.142 0-7.5 3.358-7.5 7.5v10c0 4.142 3.358 7.5 7.5 7.5s7.5-3.358 7.5-7.5v-10c0-4.142-3.358-7.5-7.5-7.5z" fill="#313d40"/><path d="m351 348.5c-4.142 0-7.5 3.358-7.5 7.5v10c0 4.142 3.358 7.5 7.5 7.5s7.5-3.358 7.5-7.5v-10c0-4.142-3.358-7.5-7.5-7.5z" fill="#313d40"/><path d="m306.735 362.234c-3.737-1.789-8.215-.206-10.001 3.531-1.666 3.484-5.291 5.735-9.234 5.735s-7.568-2.251-9.234-5.735c-1.787-3.737-6.266-5.317-10.001-3.531-3.737 1.787-5.318 6.265-3.531 10.001 4.144 8.666 13.08 14.265 22.766 14.265s18.623-5.599 22.766-14.265c1.787-3.736.206-8.214-3.531-10.001z" fill="#313d40"/></svg>