<svg id="Layer_1" enable-background="new 0 0 497 497" height="512" viewBox="0 0 497 497" width="512" xmlns="http://www.w3.org/2000/svg"><path d="m175.365 5.917 20.865 18.871 27.505-5.91c11.5-2.471 23.002 4.17 26.612 15.365l8.635 26.775 26.775 8.635c11.195 3.61 17.835 15.112 15.365 26.612l-5.91 27.505 18.871 20.865c7.89 8.724 7.89 22.005 0 30.729l-18.871 20.865 5.91 27.505c2.471 11.5-4.17 23.002-15.365 26.612l-26.775 8.635-8.635 26.775c-3.61 11.195-15.112 17.835-26.612 15.365l-27.505-5.91-20.865 18.871c-8.724 7.89-22.005 7.89-30.729 0l-20.865-18.871-27.505 5.91c-11.5 2.471-23.002-4.17-26.612-15.365l-8.635-26.775-26.775-8.635c-11.195-3.61-17.835-15.112-15.365-26.612l5.91-27.505-18.872-20.864c-7.89-8.724-7.89-22.005 0-30.729l18.871-20.865-5.91-27.505c-2.471-11.5 4.17-23.002 15.365-26.612l26.775-8.635 8.635-26.775c3.61-11.195 15.112-17.835 26.612-15.365l27.505 5.91 20.865-18.871c8.724-7.89 22.006-7.89 30.73-.001z" fill="#ffb357"/><path d="m160 281.037c-66.74 0-121.037-54.297-121.037-121.037s54.297-121.037 121.037-121.037 121.037 54.297 121.037 121.037-54.297 121.037-121.037 121.037z" fill="#fce3a0"/><path d="m104.637 160c0-55.363 37.365-102.161 88.2-116.508-10.446-2.948-21.46-4.529-32.837-4.529-66.74 0-121.037 54.297-121.037 121.037s54.297 121.037 121.037 121.037c11.377 0 22.391-1.581 32.837-4.529-50.835-14.347-88.2-61.145-88.2-116.508z" fill="#ffce71"/><ellipse cx="99.093" cy="152.222" fill="#ff8e9e" rx="22.474" ry="17.897" transform="matrix(1 .003 -.003 1 .477 -.31)"/><ellipse cx="220.907" cy="152.603" fill="#ff8e9e" rx="22.474" ry="17.897" transform="matrix(-1 -.003 .003 -1 441.336 305.897)"/><g fill="#313d40"><path d="m106 115.037c-4.142 0-7.5 3.358-7.5 7.5v10c0 4.142 3.358 7.5 7.5 7.5s7.5-3.358 7.5-7.5v-10c0-4.142-3.358-7.5-7.5-7.5z"/><path d="m214 115.037c-4.142 0-7.5 3.358-7.5 7.5v10c0 4.142 3.358 7.5 7.5 7.5s7.5-3.358 7.5-7.5v-10c0-4.142-3.358-7.5-7.5-7.5z"/><path d="m179.735 133.771c-3.737-1.789-8.215-.206-10.001 3.531-1.666 3.484-5.291 5.735-9.234 5.735s-7.568-2.251-9.234-5.735c-1.787-3.737-6.266-5.317-10.001-3.531-3.737 1.787-5.318 6.265-3.531 10.001 4.144 8.666 13.08 14.265 22.766 14.265s18.623-5.599 22.766-14.265c1.787-3.737.206-8.215-3.531-10.001z"/></g><path d="m366.697 115.509c-8.191-2.077-16.765-3.184-25.593-3.184-45.207 0-83.659 28.893-97.917 69.217v.005c-37.156.492-68.187 30.845-68.187 69.228 0 38.232 30.993 69.225 69.225 69.225h147.301z" fill="#b9bbbc"/><path d="m444.927 216.16c-.003-48.622-33.337-89.265-78.23-100.651-44.955 11.414-78.212 52.149-78.212 100.655 0 57.084 46.06 103.403 103.041 103.836h53.555c28.674 0 51.919-23.245 51.919-51.919 0-29.05-23.741-52.073-52.073-51.921z" fill="#d4d4d5"/><ellipse cx="279.093" cy="242.222" fill="#ff8e9e" rx="22.474" ry="17.897" transform="matrix(1 .003 -.003 1 .76 -.873)"/><ellipse cx="400.908" cy="242.603" fill="#ff8e9e" rx="22.474" ry="17.897" transform="matrix(-1 -.003 .003 -1 801.053 486.461)"/><path d="m286 205.037c-4.142 0-7.5 3.358-7.5 7.5v10c0 4.142 3.358 7.5 7.5 7.5s7.5-3.358 7.5-7.5v-10c0-4.142-3.358-7.5-7.5-7.5z" fill="#313d40"/><path d="m394 205.037c-4.142 0-7.5 3.358-7.5 7.5v10c0 4.142 3.358 7.5 7.5 7.5s7.5-3.358 7.5-7.5v-10c0-4.142-3.358-7.5-7.5-7.5z" fill="#313d40"/><path d="m359.735 223.771c-3.737-1.789-8.215-.206-10.001 3.531-1.666 3.484-5.291 5.735-9.234 5.735s-7.568-2.251-9.234-5.735c-1.787-3.737-6.266-5.317-10.001-3.531-3.737 1.787-5.318 6.265-3.531 10.001 4.144 8.666 13.08 14.265 22.766 14.265s18.623-5.599 22.766-14.265c1.787-3.737.206-8.215-3.531-10.001z" fill="#313d40"/><path d="m286.8 405.972.014.014c12.177-12.176 15.084-38.354 15.037-55.565v-.028c-.024-2.738-2.262-4.965-5.001-4.972-16.944-.047-43.639 3.109-55.565 15.036l-.001.001.014.014c-12.852 12.852-12.38 32.857.132 45.369 12.569 12.57 32.879 12.621 45.37.131z" fill="#7ce3ff"/><path d="m169.308 399.219.008.008c6.958-6.958 8.619-21.917 8.592-31.752v-.016c-.014-1.565-1.292-2.837-2.857-2.841-9.682-.027-24.936 1.777-31.752 8.592h-.001l.008.008c-7.344 7.344-7.074 18.776.075 25.925 7.183 7.184 18.789 7.213 25.927.076z" fill="#b9f0ff"/><path d="m377.997 397.384.011.011c9.352-9.352 11.585-29.458 11.549-42.677v-.022c-.018-2.103-1.737-3.813-3.841-3.819-13.014-.036-33.517 2.388-42.677 11.548l-.001.001.011.011c-9.871 9.871-9.508 25.236.101 34.846 9.654 9.655 25.254 9.694 34.847.101z" fill="#7ce3ff"/><path d="m209.569 432.573c-13.014-.036-33.517 2.388-42.677 11.548l-.001.001.011.011c-9.871 9.871-9.508 25.236.101 34.846 9.654 9.655 25.253 9.695 34.847.101l.011.011c9.352-9.352 11.585-29.458 11.549-42.677v-.022c-.018-2.103-1.737-3.813-3.841-3.819z" fill="#7ce3ff"/><path d="m120.703 427.116c-16.944-.046-43.639 3.109-55.565 15.036l-.001.001.014.014c-12.852 12.852-12.38 32.857.132 45.369 12.569 12.571 32.88 12.623 45.37.132l.014.014c12.177-12.177 15.084-38.355 15.037-55.565v-.028c-.024-2.739-2.262-4.966-5.001-4.973z" fill="#7ce3ff"/><path d="m313.512 443.326c-13.014-.036-33.517 2.388-42.677 11.548l-.001.001.011.011c-9.871 9.871-9.508 25.236.101 34.846 9.654 9.655 25.253 9.695 34.847.101l.011.011c9.352-9.352 11.585-29.458 11.549-42.677v-.022c-.019-2.103-1.738-3.814-3.841-3.819z" fill="#b9f0ff"/><path d="m404.675 446.314c-9.682-.027-24.936 1.777-31.752 8.592h-.001l.008.008c-7.344 7.344-7.074 18.776.075 25.925 7.183 7.184 18.789 7.213 25.926.075l.008.008c6.958-6.958 8.619-21.917 8.592-31.752v-.016c-.013-1.564-1.291-2.836-2.856-2.84z" fill="#7ce3ff"/></svg>