<svg id="Layer_1" enable-background="new 0 0 497 497" height="512" viewBox="0 0 497 497" width="512" xmlns="http://www.w3.org/2000/svg"><path d="m295.88 4.914c-12.642-3.206-25.876-4.914-39.502-4.914-69.776 0-129.126 44.596-151.133 106.835v.007c-57.35.76-105.245 47.61-105.245 106.853 0 59.01 47.837 106.847 106.847 106.847h227.356z" fill="#d4d4d5"/><path d="m416.626 160.267c-.004-75.047-51.455-137.779-120.746-155.353-69.387 17.617-120.719 80.491-120.719 155.359 0 88.107 71.092 159.6 159.042 160.269h82.662c44.258 0 80.135-35.878 80.135-80.136 0-44.837-36.644-80.373-80.374-80.139z" fill="#efedee"/><ellipse cx="189.831" cy="194.305" fill="#ff8e9e" rx="29.212" ry="23.263" transform="matrix(1 .003 -.003 1 .61 -.594)"/><ellipse cx="348.169" cy="194.801" fill="#ff8e9e" rx="29.212" ry="23.263" transform="matrix(-1 -.003 .003 -1 695.727 390.692)"/><g fill="#313d40"><path d="m204.5 152.042c-4.142 0-7.5 3.358-7.5 7.5v10c0 4.142 3.358 7.5 7.5 7.5s7.5-3.358 7.5-7.5v-10c0-4.142-3.358-7.5-7.5-7.5z"/><path d="m332.5 152.042c-4.142 0-7.5 3.358-7.5 7.5v10c0 4.142 3.358 7.5 7.5 7.5s7.5-3.358 7.5-7.5v-10c0-4.142-3.358-7.5-7.5-7.5z"/><path d="m288.235 165.776c-3.737-1.789-8.215-.206-10.001 3.531-1.666 3.484-5.291 5.735-9.234 5.735s-7.568-2.251-9.234-5.735c-1.787-3.737-6.266-5.317-10.001-3.531-3.737 1.787-5.318 6.265-3.531 10.001 4.144 8.666 13.08 14.265 22.766 14.265s18.623-5.599 22.766-14.265c1.787-3.736.206-8.214-3.531-10.001z"/></g><path d="m246.516 353.096-.035-.035c-3.431-3.372-8.978-3.358-12.389.035-21.107 20.991-50.348 58.073-50.348 87.705v.002h.035c0 31.93 25.438 56.197 56.523 56.197 31.231.002 56.526-25.165 56.526-56.198h.035c-.001-30.253-28.909-66.384-50.347-87.706z" fill="#b9f0ff"/><path d="m112.318 380.341-.021-.021c-2.109-2.072-5.517-2.064-7.613.021-12.97 12.899-30.939 35.687-30.939 53.896v.001h.021c0 19.621 15.632 34.533 34.734 34.533 19.192.001 34.736-15.464 34.736-34.534h.021c-.001-18.591-17.765-40.794-30.939-53.896z" fill="#7ce3ff"/><path d="m385.443 352.46-.026-.026c-2.577-2.533-6.743-2.522-9.305.026-15.852 15.766-37.815 43.617-37.815 65.872v.002h.026c0 23.982 19.106 42.208 42.453 42.208 23.457.002 42.455-18.901 42.455-42.208h.026c-.001-22.723-21.713-49.86-37.814-65.874z" fill="#7ce3ff"/></svg>