<svg id="Layer_1" enable-background="new 0 0 497 497" height="512" viewBox="0 0 497 497" width="512" xmlns="http://www.w3.org/2000/svg"><path d="m276.755 361.632h-15.827c9.055-8.439 35.533-33.114 44.511-41.481l-43.151-43.151-86.144 92.437c-4.369 4.71-7.008 11.04-6.924 17.971.175 14.337 11.94 25.818 26.277 25.643h25.307l-54.707 67.325c-3.295 4.055-2.991 9.944.703 13.638 3.689 3.689 9.567 3.998 13.622.716l111.222-90.003c5.336-4.363 8.862-11.039 8.952-18.47.164-13.33-10.511-24.462-23.841-24.625z" fill="#ffce71"/><path d="m295.88 4.914c-12.642-3.206-25.876-4.914-39.502-4.914-69.776 0-129.126 44.596-151.133 106.835v.007c-57.35.76-105.245 47.61-105.245 106.853 0 59.01 47.837 106.847 106.847 106.847h227.356z" fill="#b9bbbc"/><path d="m416.626 160.267c-.004-75.047-51.455-137.779-120.746-155.353-69.387 17.617-120.719 80.491-120.719 155.359 0 88.107 71.092 159.6 159.042 160.269h82.662c44.258 0 80.135-35.878 80.135-80.136 0-44.837-36.644-80.373-80.374-80.139z" fill="#d4d4d5"/><ellipse cx="199.471" cy="191.385" fill="#ff8e9e" rx="25.471" ry="20.283" transform="matrix(1 .003 -.003 1 .601 -.624)"/><ellipse cx="337.529" cy="191.817" fill="#ff8e9e" rx="25.471" ry="20.283" transform="matrix(-1 -.003 .003 -1 674.457 384.69)"/><g fill="#313d40"><path d="m204.5 152.042c-4.142 0-7.5 3.358-7.5 7.5v10c0 4.142 3.358 7.5 7.5 7.5s7.5-3.358 7.5-7.5v-10c0-4.142-3.358-7.5-7.5-7.5z"/><path d="m332.5 152.042c-4.142 0-7.5 3.358-7.5 7.5v10c0 4.142 3.358 7.5 7.5 7.5s7.5-3.358 7.5-7.5v-10c0-4.142-3.358-7.5-7.5-7.5z"/><path d="m218.745 134.425-12.99-7.5c-3.587-2.072-8.174-.843-10.245 2.745-2.071 3.587-.842 8.174 2.745 10.245l12.99 7.5c1.181.682 2.471 1.006 3.743 1.006 2.592 0 5.113-1.345 6.502-3.751 2.072-3.587.843-8.174-2.745-10.245z"/><path d="m341.49 129.67c-2.071-3.588-6.658-4.817-10.245-2.745l-12.99 7.5c-3.587 2.071-4.816 6.658-2.745 10.245 1.389 2.406 3.91 3.751 6.502 3.751 1.272 0 2.562-.324 3.743-1.006l12.99-7.5c3.588-2.071 4.817-6.658 2.745-10.245z"/><path d="m254 174.636c0 8.077 6.207 15.027 14.275 15.407 8.614.406 15.725-6.458 15.725-14.983v-.424c0-3.908-3.168-7.076-7.076-7.076h-15.847c-3.909-.001-7.077 3.167-7.077 7.076z"/></g><path d="m129.308 399.219.008.008c6.958-6.958 8.619-21.917 8.592-31.752v-.016c-.014-1.565-1.292-2.837-2.857-2.841-9.682-.027-24.936 1.777-31.752 8.592h-.001l.008.008c-7.344 7.344-7.074 18.776.075 25.925 7.183 7.184 18.789 7.213 25.927.076z" fill="#b9f0ff"/><path d="m377.997 397.384.011.011c9.352-9.352 11.585-29.458 11.549-42.677v-.022c-.018-2.103-1.737-3.813-3.841-3.819-13.014-.036-33.517 2.388-42.677 11.548l-.001.001.011.011c-9.871 9.871-9.508 25.236.101 34.846 9.654 9.655 25.254 9.694 34.847.101z" fill="#7ce3ff"/><path d="m90.703 427.116c-16.944-.046-43.639 3.109-55.565 15.036l-.001.001.014.014c-12.852 12.852-12.38 32.857.132 45.369 12.569 12.571 32.88 12.623 45.37.132l.014.014c12.177-12.177 15.084-38.355 15.037-55.565v-.028c-.024-2.739-2.262-4.966-5.001-4.973z" fill="#7ce3ff"/><path d="m323.512 443.326c-13.014-.036-33.517 2.388-42.677 11.548l-.001.001.011.011c-9.871 9.871-9.508 25.236.101 34.846 9.654 9.655 25.253 9.695 34.847.101l.011.011c9.352-9.352 11.585-29.458 11.549-42.677v-.022c-.019-2.103-1.738-3.814-3.841-3.819z" fill="#b9f0ff"/><path d="m414.675 446.314c-9.682-.027-24.936 1.777-31.752 8.592h-.001l.008.008c-7.344 7.344-7.074 18.776.075 25.925 7.183 7.184 18.789 7.213 25.926.075l.008.008c6.958-6.958 8.619-21.917 8.592-31.752v-.016c-.013-1.564-1.291-2.836-2.856-2.84z" fill="#7ce3ff"/></svg>