<svg id="Layer_1" enable-background="new 0 0 497 497" height="512" viewBox="0 0 497 497" width="512" xmlns="http://www.w3.org/2000/svg"><path d="m276.755 361.632h-15.827c9.055-8.439 35.533-33.114 44.511-41.481l-43.151-43.151-86.144 92.437c-4.369 4.71-7.008 11.04-6.924 17.971.175 14.337 11.94 25.818 26.277 25.643h25.307l-54.707 67.325c-3.295 4.055-2.991 9.944.703 13.638 3.689 3.689 9.567 3.998 13.622.716l111.222-90.003c5.336-4.363 8.862-11.039 8.952-18.47.164-13.33-10.511-24.462-23.841-24.625z" fill="#ffb357"/><path d="m130.819 344.704h-10.791c6.174-5.754 24.227-22.578 30.348-28.283l-29.42-29.421-58.735 63.025c-2.979 3.211-4.778 7.527-4.721 12.253.119 9.776 8.141 17.603 17.916 17.484h17.255l-37.3 45.903c-2.246 2.765-2.039 6.78.479 9.299 2.515 2.515 6.523 2.726 9.288.488l75.833-61.366c3.638-2.975 6.042-7.526 6.104-12.593.111-9.088-7.167-16.678-16.256-16.789z" fill="#fce3a0"/><path d="m397.612 341.807h-8.94c5.115-4.767 20.071-18.705 25.143-23.432l-24.375-24.375-48.661 52.215c-2.468 2.66-3.959 6.236-3.911 10.151.099 8.099 6.745 14.584 14.843 14.485h14.296l-30.903 38.03c-1.861 2.29-1.69 5.617.397 7.704 2.084 2.084 5.404 2.258 7.695.405l62.826-50.84c3.014-2.465 5.006-6.235 5.057-10.433.093-7.53-5.937-13.819-13.467-13.91z" fill="#fce3a0"/><path d="m295.88 4.914c-12.642-3.206-25.876-4.914-39.502-4.914-69.776 0-129.126 44.596-151.133 106.835v.007c-57.35.76-105.245 47.61-105.245 106.853 0 59.01 47.837 106.847 106.847 106.847h227.356z" fill="#b9bbbc"/><path d="m416.626 160.267c-.004-75.047-51.455-137.779-120.746-155.353-69.387 17.617-120.719 80.491-120.719 155.359 0 88.107 71.092 159.6 159.042 160.269h82.662c44.258 0 80.135-35.878 80.135-80.136 0-44.837-36.644-80.373-80.374-80.139z" fill="#d4d4d5"/><ellipse cx="199.471" cy="191.385" fill="#ff8e9e" rx="25.471" ry="20.283" transform="matrix(1 .003 -.003 1 .601 -.624)"/><ellipse cx="337.529" cy="191.817" fill="#ff8e9e" rx="25.471" ry="20.283" transform="matrix(-1 -.003 .003 -1 674.457 384.69)"/><g fill="#313d40"><path d="m204.5 152.042c-4.142 0-7.5 3.358-7.5 7.5v10c0 4.142 3.358 7.5 7.5 7.5s7.5-3.358 7.5-7.5v-10c0-4.142-3.358-7.5-7.5-7.5z"/><path d="m332.5 152.042c-4.142 0-7.5 3.358-7.5 7.5v10c0 4.142 3.358 7.5 7.5 7.5s7.5-3.358 7.5-7.5v-10c0-4.142-3.358-7.5-7.5-7.5z"/><path d="m218.745 134.425-12.99-7.5c-3.587-2.072-8.174-.843-10.245 2.745-2.071 3.587-.842 8.174 2.745 10.245l12.99 7.5c1.181.682 2.471 1.006 3.743 1.006 2.592 0 5.113-1.345 6.502-3.751 2.072-3.587.843-8.174-2.745-10.245z"/><path d="m341.49 129.67c-2.071-3.588-6.658-4.817-10.245-2.745l-12.99 7.5c-3.587 2.071-4.816 6.658-2.745 10.245 1.389 2.406 3.91 3.751 6.502 3.751 1.272 0 2.562-.324 3.743-1.006l12.99-7.5c3.588-2.071 4.817-6.658 2.745-10.245z"/><path d="m249.765 189.306c3.737 1.789 8.215.206 10.001-3.531 1.666-3.484 5.291-5.735 9.234-5.735s7.568 2.251 9.234 5.735c1.787 3.737 6.266 5.317 10.001 3.531 3.737-1.787 5.318-6.265 3.531-10.001-4.144-8.666-13.08-14.265-22.766-14.265s-18.623 5.599-22.766 14.265c-1.787 3.736-.206 8.214 3.531 10.001z"/></g></svg>