<svg id="Layer_1" enable-background="new 0 0 497 497" height="512" viewBox="0 0 497 497" width="512" xmlns="http://www.w3.org/2000/svg"><path d="m295.88 4.914c-12.642-3.206-25.876-4.914-39.502-4.914-69.776 0-129.126 44.596-151.133 106.835v.007c-57.35.76-105.245 47.61-105.245 106.853 0 59.01 47.837 106.847 106.847 106.847h227.356z" fill="#d4d4d5"/><path d="m416.626 160.267c-.004-75.047-51.455-137.779-120.746-155.353-69.387 17.617-120.719 80.491-120.719 155.359 0 88.107 71.092 159.6 159.042 160.269h82.662c44.258 0 80.135-35.878 80.135-80.136 0-44.837-36.644-80.373-80.374-80.139z" fill="#efedee"/><ellipse cx="199.471" cy="191.385" fill="#ff8e9e" rx="25.471" ry="20.283" transform="matrix(1 .003 -.003 1 .601 -.624)"/><ellipse cx="337.529" cy="191.817" fill="#ff8e9e" rx="25.471" ry="20.283" transform="matrix(-1 -.003 .003 -1 674.457 384.69)"/><g fill="#313d40"><path d="m204.5 152.042c-4.142 0-7.5 3.358-7.5 7.5v10c0 4.142 3.358 7.5 7.5 7.5s7.5-3.358 7.5-7.5v-10c0-4.142-3.358-7.5-7.5-7.5z"/><path d="m332.5 152.042c-4.142 0-7.5 3.358-7.5 7.5v10c0 4.142 3.358 7.5 7.5 7.5s7.5-3.358 7.5-7.5v-10c0-4.142-3.358-7.5-7.5-7.5z"/><path d="m288.235 165.776c-3.737-1.789-8.215-.206-10.001 3.531-1.666 3.484-5.291 5.735-9.234 5.735s-7.568-2.251-9.234-5.735c-1.787-3.737-6.266-5.317-10.001-3.531-3.737 1.787-5.318 6.265-3.531 10.001 4.144 8.666 13.08 14.265 22.766 14.265s18.623-5.599 22.766-14.265c1.787-3.736.206-8.214-3.531-10.001z"/></g><path d="m209.274 320.542 4.393-4.394c5.858-5.857 5.858-15.355 0-21.213-5.857-5.857-15.355-5.857-21.213 0l-10.606 10.606h-8.787v-8.787l10.606-10.606c5.858-5.857 5.858-15.355 0-21.213-5.857-5.857-15.355-5.857-21.213 0l-4.394 4.394-4.394-4.394c-5.857-5.857-15.355-5.857-21.213 0s-5.858 15.355 0 21.213l10.606 10.606v8.787h-8.787l-10.606-10.606c-5.857-5.857-15.355-5.857-21.213 0s-5.858 15.355 0 21.213l4.393 4.394-4.393 4.394c-5.858 5.857-5.858 15.355 0 21.213 2.929 2.929 6.768 4.394 10.606 4.394s7.678-1.465 10.606-4.394l10.606-10.606h8.787v8.787l-10.606 10.606c-5.858 5.857-5.858 15.355 0 21.213 5.857 5.857 15.355 5.857 21.213 0l4.394-4.394 4.394 4.394c2.929 2.929 6.768 4.394 10.606 4.394s7.678-1.465 10.606-4.394c5.858-5.857 5.858-15.355 0-21.213l-10.606-10.606v-8.787h8.787l10.606 10.606c2.929 2.929 6.768 4.394 10.606 4.394s7.678-1.465 10.606-4.394c5.858-5.857 5.858-15.355 0-21.213z" fill="#b9f0ff"/><path d="m488.214 414.331 4.393-4.394c5.858-5.857 5.858-15.355 0-21.213-5.857-5.857-15.355-5.857-21.213 0l-10.606 10.606h-8.788v-8.787l10.606-10.606c5.858-5.857 5.858-15.355 0-21.213-5.857-5.857-15.355-5.857-21.213 0l-4.393 4.394-4.394-4.394c-5.857-5.857-15.355-5.857-21.213 0s-5.858 15.355 0 21.213l10.607 10.607v8.787h-8.787l-10.606-10.606c-5.857-5.857-15.355-5.857-21.213 0s-5.858 15.355 0 21.213l4.393 4.394-4.393 4.394c-5.858 5.857-5.858 15.355 0 21.213 2.929 2.929 6.768 4.394 10.606 4.394s7.678-1.465 10.606-4.394l10.606-10.606h8.788v8.787l-10.606 10.606c-5.858 5.857-5.858 15.355 0 21.213 5.857 5.857 15.355 5.857 21.213 0l4.394-4.394 4.394 4.394c2.929 2.929 6.768 4.394 10.606 4.394s7.678-1.465 10.606-4.394c5.858-5.857 5.858-15.355 0-21.213l-10.607-10.608v-8.787h8.787l10.606 10.606c2.929 2.929 6.768 4.394 10.606 4.394s7.678-1.465 10.606-4.394c5.858-5.857 5.858-15.355 0-21.213z" fill="#7ce3ff"/><path d="m296.8 405.972.014.014c12.177-12.176 15.084-38.354 15.037-55.565v-.028c-.024-2.738-2.262-4.965-5.001-4.972-16.944-.047-43.639 3.109-55.565 15.036l-.001.001.014.014c-12.852 12.852-12.38 32.857.132 45.369 12.569 12.57 32.879 12.621 45.37.131z" fill="#7ce3ff"/><path d="m69.308 399.219.008.008c6.958-6.958 8.619-21.917 8.592-31.752v-.016c-.014-1.565-1.292-2.837-2.857-2.841-9.682-.027-24.936 1.777-31.752 8.592h-.001l.008.008c-7.344 7.344-7.074 18.776.075 25.925 7.183 7.184 18.789 7.213 25.927.076z" fill="#b9f0ff"/><path d="m219.569 432.573c-13.014-.036-33.517 2.388-42.677 11.548l-.001.001.011.011c-9.871 9.871-9.508 25.236.101 34.846 9.654 9.655 25.253 9.695 34.847.101l.011.011c9.352-9.352 11.585-29.458 11.549-42.677v-.022c-.018-2.103-1.737-3.813-3.841-3.819z" fill="#7ce3ff"/><path d="m130.703 427.116c-16.944-.046-43.639 3.109-55.565 15.036l-.001.001.014.014c-12.852 12.852-12.38 32.857.132 45.369 12.569 12.571 32.88 12.623 45.37.132l.014.014c12.177-12.177 15.084-38.355 15.037-55.565v-.028c-.024-2.739-2.262-4.966-5.001-4.973z" fill="#7ce3ff"/><path d="m323.512 443.326c-13.014-.036-33.517 2.388-42.677 11.548l-.001.001.011.011c-9.871 9.871-9.508 25.236.101 34.846 9.654 9.655 25.253 9.695 34.847.101l.011.011c9.352-9.352 11.585-29.458 11.549-42.677v-.022c-.019-2.103-1.738-3.814-3.841-3.819z" fill="#b9f0ff"/></svg>