<svg id="Layer_1" enable-background="new 0 0 497 497" height="512" viewBox="0 0 497 497" width="512" xmlns="http://www.w3.org/2000/svg"><path d="m219.786 42.99c-22.126 7.231-41.936 19.644-57.977 35.82h-146.809c-8.284 0-15 6.716-15 15s6.716 15 15 15h80c8.284 0 15 6.716 15 15s-6.716 15-15 15h-50c-8.284 0-15 6.716-15 15s6.716 15 15 15h20c8.284 0 15 6.716 15 15s-6.716 15-15 15h-40c-8.284 0-15 6.716-15 15s6.716 15 15 15h26.315c-2.782 7.688-4.315 15.995-4.315 24.692 0 40.073 32.485 72.558 72.557 72.558h173.531z" fill="#d4d4d5"/><path d="m497 229.317c0-53.64-43.366-96.059-95.292-96.747v-.007c-19.926-56.354-73.663-96.733-136.841-96.733-15.724 0-30.877 2.517-45.082 7.159-22.513 31.241-35.784 69.586-35.784 111.035 0 76.018 44.616 141.606 109.086 172.035h107.169c53.431 0 96.744-43.313 96.744-96.742z" fill="#efedee"/><g fill="#b9f0ff"><path d="m246.93 296.56c-5.327-6.557-13.904-11.036-21.362-10.498-16.272.994-19.731 9.949-25.618 22.16-6.597 13.058-18.053 23.714-32.133 28.903-9.154 3.425-19.219 4.369-28.643 2.697-13.216-2.271-24.739-8.996-34.76-21.815-6.526-9.133-17.752-11.569-16.752-11.255-4.431-1.392-6.895-6.112-5.503-10.543.952-3.032 3.475-5.144 6.385-5.729 11.247-2.234 23.848.129 34.975 8.281 6.388 4.784 13.411 6.499 19.164 5.97 17.296-1.691 19.291-18.346 21.902-23.869 4.015-9.625 10.232-16.976 16.979-23.214 19.258-16.652 42.683-18.074 54.519-15.499 30.489 5.281 52.056 31.459 54.506 58.326 1.767 33.423-18.694 55.379-40.642 61.946-7.987 2.428-16.373 2.886-24.063 1.292-4.562-.946-7.493-5.41-6.547-9.972.653-3.15 2.984-5.522 5.866-6.378 27.648-8.205 34.444-35.255 21.727-50.803z"/><path d="m48.993 407.821c45.363-3.145 60.748-18.096 83.646-17.342 28.203 1.169 41.33 19.313 45.627 23.999 27.347 29.747 70.193 36.444 104.46 19.314 17.756-8.878 23.068-17.616 29.472-21.889 14.267-9.983 39.497-.313 43.442 24.147.599 5.607.017 9.662-.587 12.836-.828 4.358-.328 9.193 3.668 11.387 4.068 2.234 8.319.143 12.013-4.596 2.078-2.666 3.963-5.816 5.548-8.746 18.94-39.519-16.675-80.491-56.186-80.943-26.359-.302-40.342 16.265-47.895 22.706-17.898 15.302-48.442 18.586-71.105 1.586-7.975-5.623-31.6-27.655-73.014-22.25-26.035 4.002-39.415 17.574-70.433 23.066-3.306.585-6.632 1.03-9.971 1.351-3.956.38-6.975 3.701-6.975 7.675-.001 4.487 3.813 8.009 8.29 7.699z"/><path d="m322.697 322.084c11.585-17.465 34.903-22.155 56.625-6.703 10.459 7.37 27.081 11.78 38.893 6.53 13.444-6.562 14.126-17.088 8.425-23.016-8.148-8.471-21.025-2.082-20.023-2.452-4.621 1.703-9.748-.663-11.451-5.285-4.771-12.95 26.438-34.986 53.516-16.898 30.456 19.813 24.844 68.247-15.389 84.477-31.697 12.399-63.283-4.979-74.803-18.54-3.738-4.536-8.743-8.548-14.563-8.307-4.704.115-10.856 3.591-9.856 3.096-8.137 4.032-16.363-5.341-11.374-12.902z"/></g><ellipse cx="229.831" cy="199.823" fill="#ff8e9e" rx="29.212" ry="23.263" transform="matrix(1 .003 -.003 1 .627 -.719)"/><ellipse cx="388.169" cy="200.319" fill="#ff8e9e" rx="29.212" ry="23.263" transform="matrix(-1 -.003 .003 -1 775.709 401.852)"/><path d="m244.5 157.56c-4.142 0-7.5 3.358-7.5 7.5v10c0 4.142 3.358 7.5 7.5 7.5s7.5-3.358 7.5-7.5v-10c0-4.142-3.358-7.5-7.5-7.5z" fill="#313d40"/><path d="m372.5 157.56c-4.142 0-7.5 3.358-7.5 7.5v10c0 4.142 3.358 7.5 7.5 7.5s7.5-3.358 7.5-7.5v-10c0-4.142-3.358-7.5-7.5-7.5z" fill="#313d40"/><path d="m328.235 171.293c-3.737-1.789-8.215-.206-10.001 3.531-1.666 3.484-5.291 5.735-9.234 5.735s-7.568-2.251-9.234-5.735c-1.787-3.737-6.266-5.317-10.001-3.531-3.737 1.787-5.318 6.265-3.531 10.001 4.144 8.666 13.08 14.265 22.766 14.265s18.623-5.599 22.766-14.265c1.787-3.736.206-8.214-3.531-10.001z" fill="#313d40"/></svg>