<svg id="Layer_1" enable-background="new 0 0 504.5 504.5" height="512" viewBox="0 0 504.5 504.5" width="512" xmlns="http://www.w3.org/2000/svg"><path d="m241.823 199.163c-6.194-7.626-16.169-12.833-24.842-12.208-18.923 1.156-22.945 11.569-29.792 25.77-7.672 15.185-20.994 27.577-37.367 33.611-10.645 3.983-22.35 5.081-33.309 3.136-15.369-2.641-28.77-10.462-40.422-25.369-7.589-10.621-20.644-13.454-19.481-13.088-5.153-1.619-8.018-7.108-6.399-12.26 1.107-3.526 4.041-5.981 7.425-6.662 13.079-2.598 27.733.15 40.672 9.63 7.428 5.564 15.596 7.558 22.287 6.942 20.113-1.966 22.433-21.335 25.47-27.757 4.669-11.193 11.899-19.742 19.745-26.996 22.395-19.364 49.637-21.018 63.401-18.024 35.456 6.141 60.536 36.584 63.385 67.827 2.054 38.868-21.739 64.401-47.262 72.038-9.288 2.824-19.04 3.356-27.983 1.502-5.305-1.1-8.713-6.292-7.614-11.596.759-3.663 3.47-6.422 6.822-7.417 32.15-9.541 40.054-40.999 25.264-59.079z" fill="#b9f0ff"/><path d="m9.641 326.549c52.753-3.657 70.645-21.044 97.272-20.167 32.798 1.359 48.063 22.459 53.06 27.908 31.802 34.593 81.628 42.381 121.478 22.46 20.648-10.325 26.826-20.485 34.273-25.454 16.591-11.61 45.931-.363 50.519 28.081.696 6.521.019 11.236-.683 14.927-.963 5.068-.381 10.691 4.265 13.242 4.731 2.598 9.674.166 13.97-5.345 2.417-3.1 4.609-6.763 6.451-10.17 22.025-45.956-19.391-93.603-65.339-94.129-30.654-.351-46.914 18.914-55.698 26.404-20.813 17.795-56.333 21.614-82.689 1.845-9.274-6.539-36.748-32.161-84.908-25.875-30.277 4.654-45.836 20.437-81.908 26.824-3.844.681-7.713 1.198-11.596 1.571-4.598.441-8.108 4.303-8.108 8.925 0 5.217 4.436 9.313 9.641 8.953z" fill="#7ce3ff"/><path d="m323.577 230.051c13.82-20.834 41.635-26.429 67.546-7.995 12.476 8.791 32.304 14.052 46.395 7.789 16.037-7.828 16.851-20.384 10.05-27.455-9.719-10.105-25.081-2.484-23.885-2.924-5.513 2.031-11.628-.791-13.659-6.304-5.692-15.448 31.537-41.733 63.837-20.157 36.33 23.634 29.635 81.41-18.357 100.77-37.81 14.79-75.488-5.939-89.23-22.116-4.459-5.41-10.43-10.196-17.372-9.909-5.611.137-12.95 4.284-11.757 3.693-9.706 4.808-19.518-6.373-13.568-15.392z" fill="#55dafe"/><g fill="#b9f0ff"><path d="m372.535 166.843h-64.966c-4.142 0-7.5-3.357-7.5-7.5s3.358-7.5 7.5-7.5h64.966c5.771 0 10.466-4.695 10.466-10.466s-4.695-10.466-10.466-10.466c-4.142 0-7.5-3.357-7.5-7.5s3.358-7.5 7.5-7.5c14.042 0 25.466 11.424 25.466 25.466s-11.424 25.466-25.466 25.466z"/><path d="m479.034 351.708c-4.142 0-7.5-3.357-7.5-7.5s3.358-7.5 7.5-7.5c5.771 0 10.466-4.695 10.466-10.466s-4.695-10.466-10.466-10.466h-37.535c-4.142 0-7.5-3.357-7.5-7.5s3.358-7.5 7.5-7.5h37.535c14.042 0 25.466 11.424 25.466 25.466s-11.424 25.466-25.466 25.466zm-67.535-35.931h-.431c-4.142 0-7.5-3.357-7.5-7.5s3.358-7.5 7.5-7.5h.431c4.142 0 7.5 3.357 7.5 7.5s-3.358 7.5-7.5 7.5z"/><path d="m125.66 166.842h-77.77c-4.14 0-7.5-3.37-7.5-7.5 0-4.14 3.36-7.5 7.5-7.5h77.77c4.13 0 7.49 3.36 7.49 7.5 0 4.13-3.36 7.5-7.49 7.5zm-107.78 0c-4.13 0-7.49-3.37-7.49-7.5 0-4.14 3.36-7.5 7.49-7.5 4.14 0 7.51 3.36 7.51 7.5 0 4.13-3.37 7.5-7.51 7.5z"/></g></svg>