<svg id="Layer_1" enable-background="new 0 0 497 497" height="512" viewBox="0 0 497 497" width="512" xmlns="http://www.w3.org/2000/svg"><path d="m300.068 15.067c-36.287-13.208-73.632-17.44-109.617-13.839-5.182.519-9.629 3.91-11.41 8.804-2.309 6.345.409 13.475 6.424 16.541 88.697 45.217 131.744 150.387 96.805 246.382-35.067 96.345-135.855 148.777-232.527 126.511-6.579-1.516-13.244 2.197-15.553 8.542l-.002.006c-1.781 4.894-.555 10.35 3.081 14.078 25.251 25.888 56.579 46.651 92.867 59.858 128.448 46.751 271.253-18.919 318.407-148.476 46.97-129.046-19.474-271.455-148.475-318.407z" fill="#fce3a0"/><path d="m244.187 36.117c-20.654-7.517-41.712-11.574-62.551-12.493 1.058 1.183 2.343 2.191 3.83 2.949 88.696 45.217 131.743 150.387 96.804 246.382-35.067 96.345-135.855 148.777-232.527 126.511-1.629-.375-3.263-.428-4.835-.202 16.555 12.692 35.296 23.122 55.952 30.64 108.339 39.432 228.785-15.957 268.557-125.23 39.616-108.842-16.426-228.956-125.23-268.557z" fill="#ffce71"/><ellipse cx="310.593" cy="295.951" fill="#ff8e9e" rx="22.474" ry="17.897" transform="matrix(1 .003 -.003 1 .929 -.972)"/><ellipse cx="432.407" cy="296.332" fill="#ff8e9e" rx="22.474" ry="17.897" transform="matrix(-1 -.003 .003 -1 863.885 594.018)"/><g fill="#313d40"><path d="m317.5 258.766c-4.142 0-7.5 3.358-7.5 7.5v10c0 4.142 3.358 7.5 7.5 7.5s7.5-3.358 7.5-7.5v-10c0-4.142-3.358-7.5-7.5-7.5z"/><path d="m425.5 258.766c-4.142 0-7.5 3.358-7.5 7.5v10c0 4.142 3.358 7.5 7.5 7.5s7.5-3.358 7.5-7.5v-10c0-4.142-3.358-7.5-7.5-7.5z"/><path d="m390.735 287.234c-3.737-1.789-8.215-.206-10.001 3.531-1.666 3.484-5.291 5.735-9.234 5.735s-7.568-2.251-9.234-5.735c-1.787-3.737-6.266-5.317-10.001-3.531-3.737 1.787-5.318 6.265-3.531 10.001 4.144 8.666 13.08 14.265 22.766 14.265s18.623-5.599 22.766-14.265c1.787-3.736.206-8.214-3.531-10.001z"/></g></svg>