<svg id="Layer_1" enable-background="new 0 0 497 497" height="512" viewBox="0 0 497 497" width="512" xmlns="http://www.w3.org/2000/svg"><path d="m40.183 384.102c9.351 14.302 20.236 27.75 32.601 40.115 46.935 46.934 109.339 72.783 175.716 72.783 17.487 0 34.693-1.812 51.418-5.313v-100.524c-37.336 21.599-79.846 33.122-124.134 33.122-48.889-.001-95.615-14.04-135.601-40.183z" fill="#ffce71"/><path d="m248.5 0c-66.377 0-128.781 25.849-175.716 72.784-46.935 46.936-72.784 109.34-72.784 175.716 0 48.89 14.039 95.616 40.183 135.602 39.986 26.144 86.712 40.183 135.601 40.183 44.287 0 86.798-11.523 124.134-33.122v-385.85c-16.725-3.501-33.931-5.313-51.418-5.313z" fill="#676f72"/><path d="m351.5 351.5c46.935-46.935 72.784-109.339 72.784-175.716 0-48.65-14.897-96.145-40.804-136.01-25.522-16.571-53.77-28.225-83.563-34.461-46.761 9.788-89.728 32.901-124.298 67.471-46.935 46.936-72.784 109.34-72.784 175.716s25.849 128.78 72.784 175.716c.023.023.046.044.069.067.032 0 .064.001.096.001 66.377 0 128.781-25.848 175.716-72.784z" fill="#82888b"/><path d="m424.216 72.784c-12.545-12.544-26.199-23.572-40.735-33.01 25.907 39.865 40.803 87.36 40.804 136.01-.001 66.377-25.849 128.781-72.784 175.716-46.935 46.936-109.339 72.784-175.716 72.785-.032 0-.064-.001-.096-.001 34.559 34.532 77.5 57.622 124.23 67.404 46.761-9.788 89.728-32.901 124.298-67.471 46.934-46.937 72.783-109.341 72.783-175.717s-25.849-128.78-72.784-175.716z" fill="#fce3a0"/><path d="m266 224c0-4.142-3.358-7.5-7.5-7.5h-20c-4.142 0-7.5 3.358-7.5 7.5s3.358 7.5 7.5 7.5h20c4.142 0 7.5-3.358 7.5-7.5z" fill="#313d40"/><ellipse cx="169.331" cy="220.763" fill="#ff8e9e" rx="29.212" ry="23.263" transform="matrix(1 .003 -.003 1 .693 -.529)"/><ellipse cx="327.669" cy="221.259" fill="#ff8e9e" rx="29.212" ry="23.263" transform="matrix(-1 -.003 .003 -1 654.644 443.544)"/><path d="m184 178.5c-4.142 0-7.5 3.358-7.5 7.5v10c0 4.142 3.358 7.5 7.5 7.5s7.5-3.358 7.5-7.5v-10c0-4.142-3.358-7.5-7.5-7.5z" fill="#313d40"/><path d="m312 178.5c-4.142 0-7.5 3.358-7.5 7.5v10c0 4.142 3.358 7.5 7.5 7.5s7.5-3.358 7.5-7.5v-10c0-4.142-3.358-7.5-7.5-7.5z" fill="#313d40"/><circle cx="176.335" cy="116.5" fill="#676f72" r="30"/><circle cx="366.336" cy="101.5" fill="#676f72" r="15"/><path d="m80.001 350.956c0 33.137 26.863 60 60 60 7.138 0 13.786-1.445 20.04-3.828-25.948-31.18-43.605-67.764-51.855-107.034-16.922 10.608-28.185 29.412-28.185 50.862z" fill="#4c5659"/><path d="m200.001 350.956c0-33.137-26.863-60-60-60-11.688 0-22.59 3.355-31.815 9.138 8.25 39.271 25.907 75.854 51.855 107.034 2.013-.767 3.987-1.63 5.921-2.575.057.057.114.114 0 0 19.951-9.748 34.039-29.896 34.039-53.597z" fill="#676f72"/><g fill="#ffce71"><path d="m40.416 40.416c4.627-1.191 8.983-3.058 12.956-5.49 4.837-2.96 4.837-9.892 0-12.852-3.973-2.431-8.329-4.298-12.956-5.489-1.191-4.627-3.058-8.983-5.49-12.956-2.96-4.837-9.892-4.837-12.852 0-2.432 3.973-4.298 8.329-5.49 12.957-4.627 1.191-8.983 3.058-12.956 5.489-4.837 2.96-4.837 9.892 0 12.852 3.973 2.432 8.329 4.299 12.956 5.49 1.191 4.627 3.058 8.983 5.49 12.956 2.96 4.837 9.892 4.837 12.852 0 2.432-3.974 4.299-8.33 5.49-12.957z"/><path d="m440.465 440.615c6.494-1.672 12.608-4.292 18.184-7.705 6.789-4.155 6.789-13.883 0-18.038-5.576-3.413-11.69-6.033-18.184-7.704-1.672-6.494-4.292-12.608-7.705-18.185-4.155-6.789-13.883-6.789-18.038 0-3.413 5.576-6.033 11.69-7.705 18.185-6.494 1.672-12.608 4.292-18.184 7.704-6.789 4.155-6.789 13.883 0 18.038 5.576 3.413 11.69 6.033 18.184 7.705 1.672 6.494 4.292 12.607 7.705 18.184 4.155 6.789 13.883 6.789 18.038 0 3.413-5.577 6.033-11.691 7.705-18.184z"/></g></svg>