<svg id="Layer_1" enable-background="new 0 0 497 497" height="512" viewBox="0 0 497 497" width="512" xmlns="http://www.w3.org/2000/svg"><path d="m267.041 214.496c30.211-83.004-12.527-174.604-95.502-204.805-23.341-8.496-47.362-11.218-70.508-8.901-3.333.333-6.193 2.515-7.339 5.663-1.485 4.08.263 8.667 4.132 10.64 57.051 29.084 84.74 96.731 62.266 158.477-4.415 12.13-10.455 23.171-17.772 32.988l75.351 75.351c21.697-17.596 39.079-41.135 49.372-69.413z" fill="#fce3a0"/><path d="m221.783 198.023c12.871-35.362 11.21-73.597-4.676-107.659-15.885-34.059-44.104-59.903-79.46-72.771v-.001c-13.565-4.937-27.703-7.76-42.022-8.391l-2.443-.107c-.127 3.271 1.597 6.445 4.643 7.999 57.051 29.084 84.74 96.731 62.266 158.477-22.556 61.972-87.385 95.696-149.565 81.374-3.089-.711-6.549.374-8.699 3.144 0 .001-.001.001-.002.002-.541.698-.989 1.482-1.304 2.349l-.001.004c-1.146 3.147-.357 6.657 1.982 9.056 16.242 16.651 36.392 30.006 59.734 38.502 54.584 19.867 113.193 8.164 155.434-26.091l-31.536-31.536c15.789-14.87 28.004-33.347 35.649-54.351z" fill="#ffce71"/><path d="m318.946 217.571c-11.192-2.839-22.909-4.351-34.972-4.351-61.774 0-114.317 39.481-133.8 94.583v.006c-50.772.673-93.174 42.15-93.174 94.598 0 52.242 42.351 94.593 94.593 94.593h201.281z" fill="#d4d4d5"/><path d="m425.844 355.107c-.004-66.44-45.554-121.977-106.898-137.535-61.429 15.597-106.874 71.26-106.874 137.541 0 78.002 62.939 141.295 140.802 141.888h73.181c39.182-.001 70.945-31.764 70.945-70.946 0-39.696-32.442-71.156-71.156-70.948z" fill="#efedee"/><ellipse cx="208.331" cy="390.763" fill="#ff8e9e" rx="29.212" ry="23.263" transform="matrix(1 .003 -.003 1 1.225 -.651)"/><ellipse cx="366.669" cy="391.259" fill="#ff8e9e" rx="29.212" ry="23.263" transform="matrix(-1 -.003 .003 -1 732.111 783.665)"/><g fill="#313d40"><path d="m223 348.5c-4.142 0-7.5 3.358-7.5 7.5v10c0 4.142 3.358 7.5 7.5 7.5s7.5-3.358 7.5-7.5v-10c0-4.142-3.358-7.5-7.5-7.5z"/><path d="m351 348.5c-4.142 0-7.5 3.358-7.5 7.5v10c0 4.142 3.358 7.5 7.5 7.5s7.5-3.358 7.5-7.5v-10c0-4.142-3.358-7.5-7.5-7.5z"/><path d="m306.735 362.234c-3.737-1.789-8.215-.206-10.001 3.531-1.666 3.484-5.291 5.735-9.234 5.735s-7.568-2.251-9.234-5.735c-1.787-3.737-6.266-5.317-10.001-3.531-3.737 1.787-5.318 6.265-3.531 10.001 4.144 8.666 13.08 14.265 22.766 14.265s18.623-5.599 22.766-14.265c1.787-3.736.206-8.214-3.531-10.001z"/><path d="m182.501 191.892c2.071-.001 3.946-.84 5.303-2.197s2.196-3.232 2.197-5.304v-10c0-4.143-3.358-7.5-7.5-7.5-4.143.001-7.499 3.358-7.5 7.501v10c0 4.141 3.357 7.499 7.5 7.5z"/><path d="m255.803 189.694c1.357-1.357 2.196-3.232 2.197-5.303v-10c0-4.143-3.358-7.501-7.5-7.501-4.143.001-7.5 3.358-7.5 7.5v10c0 4.143 3.358 7.5 7.5 7.501 2.071 0 3.946-.839 5.303-2.197z"/><path d="m216.999 197.109h.004c7.994 0 15.359-4.6 18.764-11.718 1.788-3.736.208-8.215-3.529-10.002-3.736-1.791-8.215-.207-10.002 3.529-.913 1.908-3.016 3.19-5.234 3.19 0 0 0 0-.001 0-2.218 0-4.321-1.281-5.233-3.188-1.788-3.737-6.266-5.317-10.001-3.531-3.737 1.787-5.318 6.265-3.532 10.002 3.402 7.119 10.768 11.718 18.764 11.718z"/></g></svg>