<svg id="Layer_1" enable-background="new 0 0 497.001 497.001" height="512" viewBox="0 0 497.001 497.001" width="512" xmlns="http://www.w3.org/2000/svg"><path d="m286.801 405.973.014.014c12.177-12.177 15.084-38.354 15.037-55.565v-.028c-.024-2.738-2.262-4.965-5.001-4.972-16.944-.046-43.639 3.109-55.565 15.036l-.001.001.014.014c-12.852 12.852-12.38 32.857.132 45.369 12.569 12.571 32.879 12.622 45.37.131z" fill="#7ce3ff"/><path d="m169.308 399.22.008.008c6.958-6.958 8.619-21.917 8.592-31.752v-.016c-.014-1.565-1.292-2.837-2.857-2.841-9.682-.027-24.936 1.777-31.752 8.592h-.001l.008.008c-7.344 7.344-7.074 18.776.075 25.925 7.184 7.184 18.79 7.214 25.927.076z" fill="#b9f0ff"/><g fill="#7ce3ff"><path d="m377.998 397.385.011.011c9.352-9.352 11.585-29.458 11.549-42.677v-.022c-.018-2.103-1.737-3.813-3.841-3.819-13.014-.036-33.517 2.388-42.677 11.548l-.001.001.011.011c-9.871 9.871-9.508 25.236.101 34.846 9.654 9.655 25.254 9.695 34.847.101z"/><path d="m209.57 432.574c-13.014-.036-33.517 2.388-42.677 11.548l-.001.001.011.011c-9.871 9.871-9.508 25.236.101 34.846 9.654 9.655 25.253 9.695 34.847.101l.011.011c9.352-9.352 11.585-29.458 11.549-42.677v-.022c-.019-2.103-1.738-3.813-3.841-3.819z"/><path d="m120.704 427.117c-16.944-.046-43.639 3.109-55.565 15.036l-.001.001.014.014c-12.852 12.852-12.38 32.857.132 45.369 12.569 12.571 32.88 12.623 45.37.132l.014.014c12.177-12.177 15.084-38.355 15.037-55.565v-.028c-.024-2.738-2.262-4.965-5.001-4.973z"/></g><path d="m313.513 443.327c-13.014-.036-33.517 2.388-42.677 11.548l-.001.001.011.011c-9.871 9.871-9.508 25.236.101 34.846 9.654 9.655 25.253 9.695 34.847.101l.011.011c9.352-9.352 11.585-29.458 11.549-42.677v-.022c-.019-2.103-1.738-3.813-3.841-3.819z" fill="#b9f0ff"/><path d="m404.675 446.315c-9.682-.027-24.936 1.777-31.752 8.592h-.001l.008.008c-7.344 7.344-7.074 18.776.075 25.925 7.183 7.184 18.789 7.213 25.926.075l.008.008c6.958-6.958 8.619-21.917 8.592-31.752v-.016c-.012-1.563-1.291-2.836-2.856-2.84z" fill="#7ce3ff"/><path d="m267.041 214.82c30.211-83.004-12.527-174.604-95.502-204.805-17.744-6.459-35.917-9.906-53.764-10.014-5.629-.034-11.194.557-16.744 1.112-3.333.333-6.193 2.515-7.339 5.663-1.485 4.08.263 8.667 4.132 10.64 57.051 29.084 84.74 96.731 62.266 158.477-4.415 12.13-10.455 23.171-17.772 32.988l75.351 75.351c21.697-17.595 39.08-41.134 49.372-69.412z" fill="#fce3a0"/><path d="m221.783 198.347c12.871-35.362 11.21-73.597-4.676-107.659-15.885-34.059-44.104-59.903-79.46-72.771v-.001c-13.565-4.937-27.703-7.76-42.022-8.391l-2.443-.107c-.127 3.271 1.597 6.445 4.643 7.999 57.051 29.084 84.74 96.731 62.266 158.477-22.556 61.972-87.385 95.696-149.565 81.374-3.089-.711-6.549.374-8.699 3.144 0 .001-.001.001-.002.002-.541.698-.989 1.482-1.304 2.349l-.001.004c-1.146 3.147-.357 6.657 1.982 9.056 16.242 16.651 36.392 30.006 59.734 38.502 54.584 19.867 113.193 8.164 155.434-26.091l-31.536-31.536c15.79-14.87 28.005-33.347 35.649-54.351z" fill="#ffce71"/><path d="m366.698 115.51c-8.191-2.077-16.765-3.184-25.593-3.184-45.207 0-83.659 28.893-97.917 69.217v.005c-37.156.492-68.187 30.846-68.187 69.228 0 38.232 30.993 69.225 69.225 69.225h147.301z" fill="#b9bbbc"/><path d="m444.927 216.161c-.003-48.622-33.337-89.265-78.23-100.651-44.955 11.414-78.212 52.149-78.212 100.655 0 57.084 46.06 103.403 103.041 103.836h53.555c28.674 0 51.919-23.245 51.919-51.919.001-29.049-23.741-52.072-52.073-51.921z" fill="#d4d4d5"/><ellipse cx="279.093" cy="242.222" fill="#ff8e9e" rx="22.474" ry="17.897" transform="matrix(1 .003 -.003 1 .76 -.873)"/><ellipse cx="400.908" cy="242.604" fill="#ff8e9e" rx="22.474" ry="17.897" transform="matrix(-1 -.003 .003 -1 801.055 486.462)"/><path d="m286.001 205.038c-4.142 0-7.5 3.358-7.5 7.5v10c0 4.142 3.358 7.5 7.5 7.5s7.5-3.358 7.5-7.5v-10c0-4.142-3.358-7.5-7.5-7.5z" fill="#313d40"/><path d="m394.001 205.038c-4.142 0-7.5 3.358-7.5 7.5v10c0 4.142 3.358 7.5 7.5 7.5s7.5-3.358 7.5-7.5v-10c0-4.142-3.358-7.5-7.5-7.5z" fill="#313d40"/><path d="m359.736 223.772c-3.737-1.789-8.215-.206-10.001 3.531-1.666 3.484-5.291 5.735-9.234 5.735s-7.568-2.251-9.234-5.735c-1.787-3.737-6.266-5.317-10.001-3.531-3.737 1.787-5.318 6.265-3.531 10.001 4.144 8.666 13.08 14.265 22.766 14.265s18.623-5.599 22.766-14.265c1.787-3.736.206-8.214-3.531-10.001z" fill="#313d40"/></svg>