<svg id="Layer_1" enable-background="new 0 0 497 497" height="512" viewBox="0 0 497 497" width="512" xmlns="http://www.w3.org/2000/svg"><path d="m329.713 81.269c11.716-11.716 11.716-30.711 0-42.427-11.715-11.716-30.711-11.716-42.426 0l-8.787 8.787v-17.005c0-16.346-12.816-30.164-29.156-30.613-16.954-.465-30.844 13.14-30.844 29.989v17.629l-8.787-8.787c-11.715-11.716-30.711-11.716-42.426 0-11.716 11.716-11.716 30.711 0 42.427l51.213 51.213v38.858c0 6.402-3.065 12.417-8.244 16.18l-22.446 16.308c-5.179 3.763-11.847 4.819-17.936 2.841l-29.777-9.675-32.881-64.532c-7.521-14.762-25.585-20.633-40.351-13.11-14.763 7.522-20.632 25.587-13.11 40.35l5.642 11.072-20.118-6.537c-15.758-5.123-32.684 3.504-37.802 19.261-5.12 15.758 3.503 32.682 19.261 37.802l20.119 6.537-10.507 5.354c-14.896 7.59-21.276 26.194-13.493 40.99 5.356 10.183 15.771 16.035 26.572 16.034 4.581 0 9.233-1.054 13.596-3.276l64.532-32.881 29.56 9.605c6.089 1.978 10.862 6.752 12.841 12.841l10.642 32.751c1.979 6.089.922 12.757-2.841 17.936l-20.568 28.31-71.535 11.33c-16.364 2.592-27.529 17.959-24.937 34.324 2.593 16.365 17.953 27.533 34.324 24.938l12.273-1.944-12.074 16.619c-9.677 13.319-7.301 32.175 5.848 42.082 5.421 4.085 11.758 6.049 18.039 6.049 9.276 0 18.425-4.29 24.295-12.368l12.434-17.114 1.944 12.273c2.338 14.774 15.091 25.31 29.591 25.31 1.56 0 3.142-.122 4.73-.374 16.364-2.592 27.529-17.959 24.938-34.324l-11.33-71.534 30.915-42.55 10.373-60c-6.222 0-11.465-3.995-13.292-9.619l-4.657-14.334c-1.864-5.736.178-12.019 5.057-15.563l12.193-8.859c4.879-3.545 11.485-3.545 16.364 0l.417.303 29.72-52.571-.075-.054c-5.179-3.763-8.244-9.778-8.244-16.18v-38.858z" fill="#7ce3ff"/><path d="m495.523 183.498c-5.119-15.757-22.042-24.38-37.802-19.261l-20.118 6.537 5.358-10.515c7.422-14.566 2.274-32.698-12.084-40.515-14.895-8.109-33.444-2.292-41.093 12.719l-32.881 64.532-29.777 9.675c-6.089 1.978-12.757.922-17.936-2.841l-22.371-16.254c-19.69 9.834-31.447 30.629-29.72 52.571l11.776 8.556c4.879 3.545 6.92 9.828 5.057 15.563l-4.657 14.334c-1.864 5.735-7.208 9.619-13.239 9.619h-15.018c-11.26 17.84-14.99 39.415-10.373 60h35.71l30.915 42.55-11.33 71.534c-2.592 16.365 8.573 31.732 24.938 34.324 1.59.252 3.17.374 4.73.374 14.499 0 27.253-10.537 29.594-25.311l1.944-12.273 12.434 17.114c5.87 8.08 15.018 12.368 24.295 12.368 6.285 0 12.63-1.969 18.054-6.061 13.137-9.911 15.505-28.757 5.832-42.07l-12.074-16.618 12.273 1.944c16.372 2.594 31.732-8.573 34.324-24.938s-8.573-31.731-24.938-34.324l-71.535-11.33-20.568-28.31c-3.763-5.179-4.819-11.847-2.841-17.936l10.642-32.751c1.978-6.089 6.752-10.862 12.841-12.841l29.56-9.605 64.532 32.881c4.363 2.223 9.014 3.276 13.596 3.276 10.801 0 21.219-5.853 26.574-16.037 7.78-14.796 1.398-33.399-13.497-40.988l-10.505-5.353 20.119-6.537c15.757-5.12 24.38-22.045 19.259-37.802z" fill="#b9f0ff"/></svg>