<svg id="Layer_1" enable-background="new 0 0 497 497" height="512" viewBox="0 0 497 497" width="512" xmlns="http://www.w3.org/2000/svg"><path d="m336.381 436h-87.881v61h87.881c16.844 0 30.5-13.655 30.5-30.5s-13.655-30.5-30.5-30.5z" fill="#efedee"/><path d="m160.619 436c-16.844 0-30.5 13.655-30.5 30.5s13.656 30.5 30.5 30.5h87.881v-61z" fill="#d4d4d5"/><circle cx="248.5" cy="45" fill="#d4d4d5" r="45"/><path d="m248.5 45c-66.74 0-121.037 54.297-121.037 121.037h242.074c0-66.74-54.297-121.037-121.037-121.037z" fill="#ff8e9e"/><path d="m248.5 45c-66.74 0-121.037 54.297-121.037 121.037h77.168v-51.408c14.812-31.433 42.742-55.515 76.706-65.1-10.446-2.948-21.46-4.529-32.837-4.529z" fill="#ea5b70"/><path d="m248.5 108.314c-46.987 0-91.463 21.211-121.037 57.723 0 66.74 54.297 121.037 121.037 121.037s121.037-54.297 121.037-121.037c-29.574-36.512-74.05-57.723-121.037-57.723z" fill="#efedee"/><path d="m127.463 166.037c0 66.74 54.297 121.037 121.037 121.037 11.377 0 22.391-1.581 32.837-4.529-50.835-14.347-88.2-61.145-88.2-116.508 0-18.374 4.136-35.794 11.494-51.408-30.018 8.814-57.045 26.564-77.168 51.408z" fill="#d4d4d5"/><ellipse cx="187.593" cy="180.488" fill="#ff8e9e" rx="22.474" ry="17.897" transform="matrix(1 .003 -.003 1 .566 -.587)"/><ellipse cx="309.407" cy="180.869" fill="#ff8e9e" rx="22.474" ry="17.897" transform="matrix(-1 -.003 .003 -1 618.247 362.707)"/><g fill="#313d40"><path d="m194.5 143.037c-4.142 0-7.5 3.358-7.5 7.5v10c0 4.142 3.358 7.5 7.5 7.5s7.5-3.358 7.5-7.5v-10c0-4.142-3.358-7.5-7.5-7.5z"/><path d="m302.5 143.037c-4.142 0-7.5 3.358-7.5 7.5v10c0 4.142 3.358 7.5 7.5 7.5s7.5-3.358 7.5-7.5v-10c0-4.142-3.358-7.5-7.5-7.5z"/><path d="m268.235 171.771c-3.737-1.789-8.215-.206-10.001 3.531-1.666 3.484-5.291 5.735-9.234 5.735s-7.568-2.251-9.234-5.735c-1.787-3.737-6.266-5.317-10.001-3.531-3.737 1.787-5.318 6.265-3.531 10.001 4.144 8.666 13.08 14.265 22.766 14.265s18.623-5.599 22.766-14.265c1.787-3.737.206-8.215-3.531-10.001z"/></g><circle cx="248.5" cy="150.032" fill="#ff6f4d" r="15"/><path d="m222.666 245.175c-57.878 11.938-101.392 63.186-101.392 124.599 0 70.265 56.961 127.226 127.226 127.226 4.671 0 9.281-.259 13.822-.75z" fill="#d4d4d5"/><path d="m375.726 369.774c0-70.265-56.961-127.226-127.226-127.226-8.852 0-17.492.906-25.834 2.627-31.241 38.056-45.914 86.113-37.823 134.68 8.015 48.108 36.233 90.453 77.479 116.395 63.762-6.89 113.404-60.882 113.404-126.476z" fill="#efedee"/><circle cx="248.5" cy="302.074" fill="#4c5659" r="15"/><circle cx="248.5" cy="362.074" fill="#4c5659" r="15"/><circle cx="248.5" cy="422.074" fill="#4c5659" r="15"/><path d="m421.908 271.906 5.357-5.357c5.858-5.858 5.858-15.355 0-21.213-5.857-5.858-15.355-5.858-21.213 0l-5.357 5.357c-2.13-5.691-7.603-9.75-14.037-9.75-8.284 0-15 6.716-15 15v23.787l-25.606 25.606c-5.858 5.858-5.858 15.355 0 21.213 2.929 2.929 6.768 4.394 10.606 4.394s7.678-1.464 10.606-4.394l25.606-25.606h23.787c8.284 0 15-6.716 15-15 .001-6.435-4.059-11.907-9.749-14.037z" fill="#ce857a"/><path d="m75.092 271.906-5.357-5.357c-5.858-5.858-5.858-15.355 0-21.213 5.857-5.858 15.355-5.858 21.213 0l5.357 5.357c2.13-5.691 7.603-9.75 14.037-9.75 8.284 0 15 6.716 15 15v23.787l25.606 25.606c5.858 5.858 5.858 15.355 0 21.213-2.929 2.929-6.768 4.394-10.606 4.394s-7.678-1.464-10.606-4.394l-25.606-25.606h-23.788c-8.284 0-15-6.716-15-15 0-6.435 4.06-11.907 9.75-14.037z" fill="#c77464"/></svg>