<svg id="Layer_1" enable-background="new 0 0 497 497" height="512" viewBox="0 0 497 497" width="512" xmlns="http://www.w3.org/2000/svg"><path d="m144.391 223.491-4.569-3.668 4.569-3.67c6.46-5.187 7.492-14.628 2.306-21.087-5.185-6.46-14.628-7.494-21.087-2.306l-17.666 14.184-17.944 8.143v-4.021l21.664-17.392c6.46-5.187 7.492-14.628 2.307-21.088-5.188-6.459-14.625-7.492-21.088-2.307l-2.883 2.314v-4.593c0-8.284-6.716-15-15-15s-15 6.716-15 15v4.592l-2.882-2.313c-6.46-5.185-15.901-4.152-21.088 2.307-5.186 6.46-4.153 15.901 2.307 21.088l21.663 17.391v4.021l-17.943-8.142-17.666-14.184c-6.461-5.186-15.901-4.152-21.087 2.307-5.187 6.46-4.154 15.901 2.306 21.087l4.57 3.67-4.57 3.668c-6.46 5.187-7.492 14.628-2.307 21.088 2.963 3.69 7.315 5.61 11.707 5.61 3.294 0 6.611-1.081 9.381-3.304l11.949-9.593 13.752 6.241-7.001 7.736h-20.411c-8.284 0-15 6.716-15 15s6.716 15 15 15h12.067v6.73c0 8.284 6.716 15 15 15s15-6.716 15-15v-15.951l10.253-11.33 10.254 11.331v15.95c0 8.284 6.716 15 15 15s15-6.716 15-15v-6.73h12.067c8.284 0 15-6.716 15-15s-6.716-15-15-15h-20.411l-7.001-7.736 13.752-6.24 11.948 9.592c2.77 2.223 6.086 3.304 9.381 3.304 4.392 0 8.744-1.92 11.707-5.61 5.186-6.461 4.154-15.902-2.306-21.089z" fill="#7ce3ff"/><path d="m464.029 397.491-4.569-3.668 4.569-3.67c6.46-5.187 7.492-14.628 2.306-21.087-5.185-6.46-14.628-7.494-21.087-2.306l-17.666 14.184-17.944 8.142v-4.021l21.664-17.392c6.46-5.187 7.492-14.628 2.307-21.088-5.188-6.459-14.625-7.492-21.088-2.307l-2.883 2.314v-4.592c0-8.284-6.716-15-15-15s-15 6.716-15 15v4.592l-2.882-2.313c-6.46-5.185-15.901-4.152-21.088 2.307-5.186 6.46-4.153 15.901 2.307 21.088l21.663 17.392v4.021l-17.943-8.142-17.667-14.185c-6.461-5.186-15.901-4.152-21.087 2.307-5.187 6.46-4.154 15.901 2.306 21.087l4.57 3.67-4.57 3.668c-6.46 5.187-7.492 14.628-2.307 21.088 2.963 3.69 7.315 5.61 11.707 5.61 3.294 0 6.611-1.081 9.381-3.304l11.949-9.593 13.752 6.241-7.001 7.736h-20.412c-8.284 0-15 6.716-15 15s6.716 15 15 15h12.067v6.73c0 8.284 6.716 15 15 15s15-6.716 15-15v-15.951l10.253-11.33 10.254 11.331v15.95c0 8.284 6.716 15 15 15s15-6.716 15-15v-6.73h12.067c8.284 0 15-6.716 15-15s-6.716-15-15-15h-20.411l-7.001-7.736 13.752-6.24 11.948 9.592c2.77 2.223 6.086 3.304 9.381 3.304 4.392 0 8.744-1.92 11.707-5.61 5.189-6.461 4.156-15.902-2.304-21.089z" fill="#b9f0ff"/><path d="m325.939 70.491-4.569-3.668 4.569-3.67c6.46-5.187 7.492-14.628 2.306-21.087-5.185-6.46-14.628-7.494-21.087-2.306l-17.666 14.184-17.944 8.142v-4.021l21.664-17.392c6.46-5.187 7.492-14.628 2.307-21.088-5.188-6.459-14.625-7.492-21.088-2.307l-2.883 2.314v-4.592c0-8.284-6.716-15-15-15s-15 6.716-15 15v4.592l-2.882-2.313c-6.46-5.185-15.901-4.152-21.088 2.307-5.186 6.46-4.153 15.901 2.307 21.088l21.663 17.392v4.021l-17.943-8.142-17.666-14.185c-6.461-5.186-15.901-4.152-21.087 2.307-5.187 6.46-4.154 15.901 2.306 21.087l4.57 3.67-4.57 3.668c-6.46 5.187-7.492 14.628-2.307 21.088 2.963 3.69 7.315 5.61 11.707 5.61 3.294 0 6.611-1.081 9.381-3.304l11.949-9.593 13.752 6.241-7.001 7.736h-20.412c-8.284 0-15 6.716-15 15s6.716 15 15 15h12.067v6.73c0 8.284 6.716 15 15 15s15-6.716 15-15v-15.951l10.253-11.33 10.254 11.331v15.95c0 8.284 6.716 15 15 15s15-6.716 15-15v-6.73h12.067c8.284 0 15-6.716 15-15s-6.716-15-15-15h-20.411l-7.001-7.736 13.752-6.24 11.948 9.592c2.77 2.223 6.086 3.304 9.381 3.304 4.392 0 8.744-1.92 11.707-5.61 5.187-6.461 4.155-15.902-2.305-21.089z" fill="#b9f0ff"/><g fill="#7ce3ff"><path d="m186.214 434.713h6.213c8.284 0 15-6.716 15-15s-6.716-15-15-15h-15l-6.213-6.213 6.213-6.213h15c8.284 0 15-6.716 15-15s-6.716-15-15-15h-6.213v-6.213c0-8.284-6.716-15-15-15s-15 6.716-15 15v15l-6.213 6.213-6.213-6.213v-15c0-8.284-6.716-15-15-15s-15 6.716-15 15v6.213h-6.213c-8.284 0-15 6.716-15 15 0 4.142 1.679 7.892 4.393 10.607 2.714 2.714 6.465 4.393 10.607 4.393h15l6.213 6.213-6.213 6.213h-15c-8.284 0-15 6.716-15 15s6.716 15 15 15h6.213v6.213c0 4.142 1.679 7.892 4.393 10.607 2.714 2.714 6.465 4.393 10.607 4.393 8.284 0 15-6.716 15-15v-15l6.213-6.213 6.213 6.213v15c0 4.142 1.679 7.892 4.393 10.607 2.714 2.714 6.465 4.393 10.607 4.393 8.284 0 15-6.716 15-15z"/><path d="m488.214 218.5 4.393-4.394c5.858-5.857 5.858-15.355 0-21.213-5.857-5.857-15.355-5.857-21.213 0l-10.607 10.607h-8.787v-8.787l10.606-10.606c5.858-5.857 5.858-15.355 0-21.213-5.857-5.857-15.355-5.857-21.213 0l-4.393 4.393-4.394-4.394c-5.857-5.857-15.355-5.857-21.213 0s-5.858 15.355 0 21.213l10.607 10.606v8.787h-8.787l-10.606-10.606c-5.857-5.857-15.355-5.857-21.213 0s-5.858 15.355 0 21.213l4.393 4.394-4.393 4.394c-5.858 5.857-5.858 15.355 0 21.213 2.929 2.929 6.768 4.394 10.606 4.394s7.678-1.465 10.606-4.394l10.606-10.606h8.788v8.787l-10.606 10.606c-5.858 5.857-5.858 15.355 0 21.213 5.857 5.857 15.355 5.857 21.213 0l4.394-4.394 4.394 4.394c2.929 2.929 6.768 4.394 10.606 4.394s7.678-1.465 10.606-4.394c5.858-5.857 5.858-15.355 0-21.213l-10.607-10.607v-8.787h8.787l10.606 10.606c2.929 2.929 6.768 4.394 10.606 4.394s7.678-1.465 10.606-4.394c5.858-5.857 5.858-15.355 0-21.213z"/><circle cx="308.499" cy="215.087" r="30"/></g><circle cx="108.499" cy="85.086" fill="#b9f0ff" r="30"/><circle cx="213.499" cy="275.087" fill="#b9f0ff" r="15"/><circle cx="273.499" cy="345.087" fill="#7ce3ff" r="15"/><circle cx="233.499" cy="482" fill="#b9f0ff" r="15"/></svg>