<svg id="Layer_1" enable-background="new 0 0 497 497" height="512" viewBox="0 0 497 497" width="512" xmlns="http://www.w3.org/2000/svg"><path d="m272.983 13.749c-5.219-8.609-14.363-13.749-24.46-13.749 0 0 0 0-.001 0-10.095 0-19.241 5.139-24.462 13.749-19.797 32.647-32.297 69.317-36.695 107.242-15.778-8.978-32.601-15.921-50.246-20.725-10.008-2.722-20.384.044-27.747 7.409-7.401 7.406-10.177 17.842-7.428 27.919 5.974 21.889 12.508 34.629 20.78 50.757 4.499 8.773 9.505 18.533 15.279 31.522-30.642-24.348-66.287-41.682-104.544-50.672-9.263-2.178-18.785.53-25.491 7.236-6.699 6.699-9.403 16.216-7.232 25.46 10.759 45.81 33.237 87.475 65.438 121.608-3.07 1.616-6.088 3.301-9.042 5.045-8.328 4.917-13.299 13.647-13.296 23.353.003 9.759 5.012 18.538 13.399 23.483 33.475 19.743 71.796 30.179 110.822 30.179 27.453 0 57.61-5.756 80.465-15.204l34.707-356.066c-3.163-6.308-6.577-12.497-10.246-18.546z" fill="#ff6f4d"/><path d="m488.966 174.451c-6.694-6.701-16.187-9.41-25.38-7.249-38.312 9.003-73.983 26.446-104.526 50.694 6.23-14.171 11.42-24.238 16.06-33.24 7.817-15.163 13.991-27.14 19.961-48.997 2.72-9.956-.127-20.68-7.43-27.99-7.354-7.359-17.714-10.125-27.729-7.403-17.644 4.804-34.466 11.747-50.244 20.725-3.583-30.897-12.547-60.961-26.451-88.697-52.267 42.001-85.442 104.264-92.027 171.002-6.6 66.891 14.067 133.615 57.32 185.064 22.854 9.448 53.01 15.204 80.464 15.204 39.026 0 77.348-10.436 110.823-30.178 8.385-4.946 13.395-13.725 13.397-23.484.003-9.705-4.968-18.435-13.293-23.352-2.955-1.745-5.973-3.429-9.043-5.045 32.147-34.078 54.606-75.667 65.385-121.386 2.198-9.307-.528-18.904-7.287-25.668z" fill="#ff8f71"/><path d="m421.592 239.189c-4.679-6.835-14.012-8.586-20.851-3.906l-137.22 93.92v-77.583l55.585-55.585c5.858-5.858 5.858-15.355 0-21.213-5.857-5.858-15.355-5.858-21.213 0l-34.372 34.372v-32.348c0-8.077-6.207-15.027-14.275-15.407-8.614-.406-15.725 6.458-15.725 14.983v32.814l-34.415-34.415c-5.857-5.858-15.355-5.858-21.213 0s-5.858 15.355 0 21.213l55.628 55.628v77.569l-137.262-93.948c-6.838-4.679-16.173-2.93-20.851 3.906-4.68 6.836-2.931 16.171 3.905 20.851l78.918 54.015-31.415 18.626c-7.126 4.225-9.478 13.426-5.252 20.552 2.802 4.727 7.793 7.353 12.917 7.353 2.601 0 5.236-.677 7.636-2.1l43.418-25.743 39.283 26.887c5.575 3.816 9.209 10.407 8.568 18.137l-7.817 94.314c-1.106 13.339 9.36 24.804 22.743 24.918 13.536.115 24.248-11.42 23.134-24.91l-7.791-94.356c-.637-7.712 2.99-14.314 8.569-18.133 0 0 39.24-26.857 39.24-26.857l43.418 25.743c2.4 1.423 5.035 2.1 7.636 2.1 5.123 0 10.115-2.626 12.917-7.353 4.226-7.126 1.874-16.328-5.252-20.552l-31.415-18.626 78.918-54.015c6.836-4.679 8.586-14.014 3.906-20.851z" fill="#ec5334"/><g fill="#313d40"><path d="m214.501 150.892c2.071-.001 3.946-.84 5.303-2.197s2.196-3.232 2.197-5.304v-10c0-4.143-3.358-7.5-7.5-7.5-4.143.001-7.499 3.358-7.5 7.501v10c0 4.141 3.357 7.499 7.5 7.5z"/><path d="m287.803 148.694c1.357-1.357 2.196-3.232 2.197-5.303v-10c0-4.143-3.358-7.501-7.5-7.501-4.143.001-7.5 3.358-7.5 7.5v10c0 4.143 3.358 7.5 7.5 7.501 2.071 0 3.946-.839 5.303-2.197z"/><path d="m248.999 156.109h.004c7.994 0 15.359-4.6 18.764-11.718 1.788-3.736.208-8.215-3.529-10.002-3.736-1.791-8.215-.207-10.002 3.529-.913 1.908-3.016 3.19-5.234 3.19 0 0 0 0-.001 0-2.218 0-4.321-1.281-5.233-3.188-1.788-3.737-6.266-5.317-10.001-3.531-3.737 1.787-5.318 6.265-3.532 10.002 3.402 7.119 10.768 11.718 18.764 11.718z"/></g></svg>