<svg id="Layer_1" enable-background="new 0 0 504.5 504.5" height="512" viewBox="0 0 504.5 504.5" width="512" xmlns="http://www.w3.org/2000/svg"><path d="m40.635 19.545c-4.889-1.198-9.939.217-13.509 3.787 0 0 0 0-.001.001-3.569 3.569-4.986 8.62-3.788 13.509 4.543 18.542 13.089 35.926 24.942 50.89-8.752 2.404-17.155 5.897-25.092 10.438-4.501 2.576-7.191 7.223-7.19 12.43.002 5.235 2.71 9.906 7.245 12.497 9.851 5.627 16.665 7.821 25.292 10.599 4.692 1.511 9.913 3.192 16.547 5.743-19.442 2.225-38.173 8.699-54.877 19.047-4.045 2.505-6.454 6.829-6.454 11.571 0 4.737 2.409 9.058 6.445 11.558 20 12.392 42.678 19.176 66.131 19.859-.514 1.657-.986 3.319-1.413 4.98-1.206 4.683.123 9.527 3.556 12.957 3.451 3.449 8.326 4.782 13.04 3.565 18.815-4.855 36.053-14.714 49.851-28.512 9.706-9.706 18.333-22.403 23.073-33.824l-113.619-138.161c-3.348-1.112-6.743-2.093-10.179-2.934z" fill="#ff6f4d"/><path d="m173.813 0c-4.736-.002-9.05 2.396-11.536 6.411-10.362 16.728-16.807 35.507-19.033 54.878-2.808-7.213-4.532-12.607-6.074-17.43-2.597-8.125-4.649-14.542-10.266-24.381-2.558-4.482-7.357-7.267-12.523-7.269-5.202-.002-9.843 2.683-12.421 7.186-4.54 7.937-8.032 16.339-10.437 25.091-12.189-9.656-25.987-17.116-40.709-22.007-3.63 33.329 6.655 67.071 27.922 92.995 21.316 25.983 52.213 42.266 85.696 45.164 11.421-4.739 24.117-13.366 33.824-23.073 13.798-13.798 23.657-31.036 28.512-49.851 1.216-4.713-.117-9.588-3.566-13.039-3.43-3.432-8.274-4.761-12.956-3.556-1.662.428-3.324.9-4.981 1.414-.683-23.414-7.446-46.059-19.799-66.034-2.515-4.068-6.871-6.497-11.653-6.499z" fill="#ff8f71"/><path d="m174.101 51.819c-4.071-.763-7.989 1.918-8.753 5.991l-15.309 81.72-27.43-27.43v-39.304c0-4.142-3.358-7.5-7.5-7.5s-7.5 3.358-7.5 7.5v24.305l-11.436-11.437c-2.856-2.856-7.507-3.118-10.494-.4-3.189 2.902-3.276 7.843-.262 10.857l11.602 11.602h-24.335c-4.142 0-7.5 3.358-7.5 7.5s3.358 7.5 7.5 7.5h39.335l27.425 27.425-81.746 15.314c-4.072.763-6.754 4.682-5.991 8.753.763 4.072 4.681 6.754 8.753 5.991l46.999-8.804-4.522 17.692c-1.026 4.013 1.396 8.098 5.409 9.123 4.015 1.027 8.099-1.399 9.124-5.409l6.249-24.452 23.395-4.383c3.32-.622 6.935.424 9.442 3.383l39.721 39.721c2.856 2.856 7.507 3.118 10.494.4 3.189-2.902 3.276-7.843.263-10.857l-39.883-39.883.095-.095c-2.952-2.501-4.004-6.118-3.381-9.441l4.378-23.369 24.452-6.249c4.015-1.027 6.435-5.112 5.409-9.124-1.025-4.013-5.11-6.435-9.123-5.409l-17.692 4.521 8.804-46.999c.762-4.072-1.92-7.991-5.992-8.753z" fill="#ec5334"/><path d="m481.205 116.864c1.198-4.889-.217-9.939-3.787-13.509 0 0 0 0 0-.001-3.569-3.569-8.62-4.986-13.509-3.788-18.542 4.543-35.926 13.089-50.89 24.942-2.404-8.752-5.897-17.155-10.438-25.092-2.576-4.501-7.223-7.191-12.43-7.19-5.235.002-9.906 2.71-12.497 7.245-5.627 9.851-7.821 16.665-10.599 25.292-1.511 4.692-3.192 9.913-5.743 16.547-2.225-19.442-8.699-38.173-19.047-54.877-2.505-4.045-6.829-6.454-11.571-6.454-4.737 0-9.058 2.409-11.558 6.445-12.392 20-19.176 42.678-19.859 66.131-1.657-.514-3.319-.986-4.98-1.413-4.683-1.206-9.527.123-12.957 3.556-3.449 3.451-4.782 8.326-3.565 13.04 4.855 18.815 14.714 36.053 28.512 49.851 9.706 9.706 22.403 18.333 33.824 23.073l138.159-113.618c1.113-3.35 2.094-6.745 2.935-10.18z" fill="#ffb357"/><path d="m500.75 250.042c.002-4.736-2.396-9.05-6.411-11.536-16.728-10.362-35.507-16.807-54.878-19.033 7.213-2.808 12.607-4.532 17.43-6.074 8.125-2.597 14.542-4.649 24.381-10.266 4.482-2.558 7.267-7.357 7.269-12.523.002-5.202-2.683-9.843-7.186-12.421-7.937-4.54-16.339-8.032-25.091-10.437 9.657-12.191 17.117-25.989 22.007-40.711-33.329-3.63-67.071 6.655-92.995 27.922-25.983 21.316-42.266 52.213-45.164 85.696 4.739 11.421 13.366 24.117 23.073 33.824 13.798 13.798 31.036 23.657 49.851 28.512 4.713 1.216 9.588-.117 13.039-3.566 3.432-3.43 4.761-8.274 3.556-12.956-.428-1.662-.9-3.324-1.414-4.981 23.414-.683 46.059-7.446 66.034-19.799 4.068-2.513 6.497-6.87 6.499-11.651z" fill="#ffce71"/><path d="m448.931 250.33c.763-4.071-1.918-7.989-5.991-8.753l-81.72-15.309 27.43-27.43h39.305c4.142 0 7.5-3.358 7.5-7.5s-3.358-7.5-7.5-7.5h-24.305l11.437-11.437c2.856-2.856 3.118-7.507.4-10.494-2.902-3.189-7.843-3.276-10.857-.262l-11.602 11.602v-24.335c0-4.142-3.358-7.5-7.5-7.5s-7.5 3.358-7.5 7.5v39.335l-27.425 27.425-15.314-81.746c-.763-4.072-4.682-6.754-8.753-5.991-4.072.763-6.754 4.681-5.991 8.753l8.804 46.999-17.692-4.522c-4.013-1.026-8.098 1.396-9.123 5.409-1.027 4.015 1.399 8.099 5.409 9.124l24.452 6.249 4.383 23.395c.622 3.32-.424 6.935-3.383 9.442l-29.721 29.721c-2.856 2.856-3.118 7.507-.4 10.494 2.902 3.189 7.843 3.276 10.857.263l29.883-29.883.095.095c2.501-2.952 6.118-4.004 9.441-3.381l23.369 4.378 6.249 24.452c1.027 4.015 5.112 6.435 9.124 5.409 4.013-1.025 6.435-5.11 5.409-9.123l-4.521-17.692 46.999 8.804c4.071.762 7.99-1.92 8.752-5.991z" fill="#fc8a3d"/><path d="m217.726 254.129c-2.61-4.304-7.182-6.874-12.23-6.874 0 0 0 0-.001 0-5.048 0-9.62 2.57-12.231 6.874-9.898 16.323-16.149 34.659-18.348 53.621-7.889-4.489-16.3-7.96-25.123-10.362-5.004-1.361-10.192.022-13.873 3.705-3.7 3.703-5.089 8.921-3.714 13.96 2.987 10.945 6.254 17.314 10.39 25.379 2.249 4.387 4.753 9.266 7.64 15.761-15.321-12.174-33.143-20.841-52.272-25.336-4.631-1.089-9.392.265-12.745 3.618-3.349 3.349-4.702 8.108-3.616 12.73 5.379 22.905 16.619 43.738 32.719 60.804-1.535.808-3.044 1.65-4.521 2.522-4.164 2.459-6.649 6.823-6.648 11.676.001 4.879 2.506 9.269 6.699 11.741 16.738 9.871 35.898 15.089 55.411 15.089 13.726 0 28.805-2.878 40.233-7.602l17.353-178.033c-1.582-3.154-3.289-6.248-5.123-9.273z" fill="#00ce8e"/><path d="m325.717 334.48c-3.347-3.35-8.093-4.705-12.69-3.624-19.156 4.501-36.991 13.223-52.263 25.347 3.115-7.086 5.71-12.119 8.03-16.62 3.908-7.582 6.995-13.57 9.981-24.499 1.36-4.978-.064-10.34-3.715-13.995-3.677-3.68-8.857-5.063-13.865-3.702-8.822 2.402-17.233 5.874-25.122 10.362-1.792-15.449-6.274-30.481-13.225-44.348-26.134 21.001-42.721 52.132-46.014 85.501-3.3 33.445 7.034 66.807 28.66 92.532 11.427 4.724 26.505 7.602 40.232 7.602 19.513 0 38.674-5.218 55.412-15.089 4.193-2.473 6.697-6.863 6.699-11.742.001-4.852-2.484-9.217-6.646-11.676-1.478-.872-2.987-1.714-4.522-2.523 16.073-17.039 27.303-37.833 32.693-60.693 1.098-4.652-.265-9.451-3.645-12.833z" fill="#5fd9b3"/><path d="m292.03 371.325c-2.339-3.418-7.006-4.293-10.425-1.953l-68.61 46.96v-38.792l27.792-27.792c2.929-2.929 2.929-7.677 0-10.606s-7.678-2.929-10.606 0l-17.186 17.186v-16.174c0-4.038-3.104-7.513-7.137-7.703-4.307-.203-7.863 3.229-7.863 7.491v16.407l-17.208-17.207c-2.929-2.929-7.678-2.929-10.606 0-2.929 2.929-2.929 7.677 0 10.606l27.814 27.814v38.785l-68.632-46.975c-3.419-2.339-8.086-1.465-10.425 1.953-2.34 3.418-1.465 8.086 1.953 10.425l39.459 27.008-15.708 9.313c-3.563 2.113-4.739 6.713-2.626 10.276 2.113 3.565 6.716 4.738 10.277 2.626l21.709-12.872 19.642 13.443c2.787 1.908 4.604 5.204 4.284 9.069v56.174c0 4.038 3.103 7.513 7.137 7.703 4.307.203 7.863-3.229 7.863-7.491v-56.403h.135c-.318-3.856 1.495-7.157 4.285-9.066l19.62-13.429 21.709 12.872c3.565 2.113 8.165.935 10.276-2.626 2.113-3.563.937-8.164-2.626-10.276l-15.707-9.313 39.459-27.008c3.417-2.339 4.291-7.007 1.951-10.425z" fill="#00c084"/></svg>