<svg id="Layer_1" enable-background="new 0 0 497 497" height="512" viewBox="0 0 497 497" width="512" xmlns="http://www.w3.org/2000/svg"><path d="m241.823 187.01c-6.194-7.626-16.169-12.833-24.842-12.208-18.923 1.156-22.945 11.569-29.792 25.77-7.672 15.185-20.994 27.577-37.367 33.611-10.645 3.983-22.35 5.081-33.309 3.136-15.369-2.641-28.77-10.462-40.422-25.369-7.589-10.621-20.644-13.454-19.481-13.088-5.153-1.619-8.018-7.108-6.399-12.26 1.107-3.526 4.041-5.981 7.425-6.662 13.079-2.598 27.733.15 40.672 9.63 7.428 5.564 15.596 7.558 22.287 6.942 20.113-1.966 22.433-21.335 25.47-27.757 4.669-11.193 11.899-19.742 19.745-26.996 22.395-19.364 49.637-21.018 63.401-18.024 35.456 6.141 60.536 36.584 63.385 67.827 2.054 38.868-21.739 64.401-47.262 72.038-9.288 2.824-19.04 3.356-27.983 1.502-5.305-1.1-8.713-6.292-7.614-11.596.759-3.663 3.47-6.422 6.822-7.417 32.15-9.541 40.054-40.998 25.264-59.079z" fill="#b9f0ff"/><path d="m9.641 314.396c52.753-3.657 70.645-21.044 97.272-20.167 32.798 1.359 48.063 22.459 53.06 27.908 31.802 34.593 81.628 42.381 121.478 22.46 20.648-10.325 26.826-20.485 34.273-25.454 16.591-11.61 45.931-.363 50.519 28.081.696 6.521.019 11.236-.683 14.927-.963 5.068-.381 10.691 4.265 13.242 4.731 2.598 9.674.166 13.97-5.345 2.417-3.1 4.609-6.763 6.451-10.17 22.025-45.956-19.391-93.603-65.339-94.129-30.654-.351-46.914 18.914-55.698 26.404-20.813 17.795-56.333 21.614-82.689 1.845-9.274-6.539-36.748-32.161-84.908-25.875-30.277 4.654-45.836 20.437-81.908 26.824-3.844.681-7.713 1.198-11.596 1.571-4.598.441-8.108 4.303-8.108 8.925 0 5.218 4.436 9.313 9.641 8.953z" fill="#7ce3ff"/><path d="m323.577 217.898c13.82-20.834 41.635-26.429 67.546-7.995 12.476 8.791 32.304 14.052 46.395 7.789 16.037-7.828 16.851-20.384 10.05-27.455-9.719-10.105-25.081-2.484-23.885-2.924-5.513 2.031-11.628-.791-13.659-6.304-5.692-15.448 31.537-41.733 63.837-20.157 36.33 23.634 29.635 81.41-18.357 100.77-37.81 14.79-75.488-5.939-89.23-22.116-4.459-5.41-10.43-10.196-17.372-9.909-5.611.137-12.95 4.284-11.757 3.693-9.706 4.808-19.518-6.373-13.568-15.392z" fill="#55dafe"/><path d="m350.89 322.19c-4.056 4.054-2.519 8.556-1.439 12.04-15.717.458-30.917 4.998-44.326 13.291-2.73 1.688-4.361 4.612-4.362 7.822-.002 3.179 1.608 6.075 4.303 7.744 11.229 6.956 23.834 11.282 36.838 12.776-4.842 1.885-8.463 3.042-11.7 4.077-5.454 1.743-9.762 3.12-16.366 6.891-3.008 1.717-4.878 4.938-4.879 8.406-.001 3.492 1.801 6.607 4.824 8.338 5.327 3.047 10.968 5.392 16.843 7.006-7.766 9.804-13.624 21.432-16.743 34.16-.804 3.282.146 6.672 2.542 9.068 2.396 2.396 5.786 3.347 9.068 2.543 12.446-3.05 24.116-8.786 34.161-16.743 1.614 5.875 3.959 11.516 7.006 16.843 1.729 3.021 4.848 4.827 8.343 4.827 3.514-.001 6.65-1.819 8.389-4.863 5.858-10.255 6.169-15.602 10.969-28.085 1.494 13.051 5.839 25.624 12.785 36.837 1.681 2.715 4.584 4.332 7.767 4.332 3.18 0 6.08-1.617 7.759-4.326 8.319-13.425 12.872-28.648 13.331-44.391 3.267 1.013 7.908 2.697 12.041-1.438 2.315-2.317 3.21-5.589 2.393-8.753-5.993-23.224-23.092-41.169-41.844-48.952-7.78-18.747-25.691-35.841-48.951-41.844-3.163-.816-6.435.079-8.752 2.394z" fill="#ffb357"/><path d="m359.643 319.796c-2.966-.765-6.017-.01-8.297 1.993 7.311 5.515 13.07 14.105 14.898 25.434.696 6.521.019 11.235-.683 14.927-.963 5.068-.381 10.691 4.265 13.242 4.731 2.598 9.674.166 13.97-5.345 2.417-3.1 4.609-6.763 6.451-10.17 2.908-6.067 4.7-12.163 5.531-18.176-9.186-10.092-21.618-18.159-36.135-21.905z" fill="#ffce71"/><path d="m388.594 389.14c-1.919 0-3.839-.732-5.304-2.196-2.929-2.93-2.929-7.678 0-10.607l40-40c2.93-2.928 7.678-2.928 10.607 0 2.929 2.93 2.929 7.678 0 10.607l-40 40c-1.464 1.463-3.384 2.196-5.303 2.196z" fill="#fc8a3d"/><path d="m147.31 50.126c-4.053-4.056-8.556-2.519-12.041-1.438-.458-15.717-4.998-30.917-13.291-44.326-1.688-2.73-4.612-4.361-7.822-4.362-3.179-.002-6.075 1.608-7.744 4.303-6.956 11.229-11.282 23.834-12.776 36.838-1.885-4.842-3.042-8.463-4.077-11.7-1.743-5.454-3.121-9.762-6.891-16.366-1.717-3.008-4.938-4.878-8.406-4.879-3.492-.001-6.607 1.801-8.338 4.824-3.047 5.327-5.392 10.968-7.006 16.843-9.804-7.767-21.432-13.624-34.16-16.743-3.282-.804-6.672.146-9.068 2.542-2.396 2.396-3.347 5.786-2.542 9.069 3.05 12.446 8.786 24.116 16.743 34.16-5.875 1.614-11.516 3.958-16.844 7.006-3.021 1.729-4.827 4.848-4.827 8.344.001 3.514 1.819 6.649 4.863 8.389 10.255 5.858 15.602 6.169 28.085 10.969-13.051 1.494-25.624 5.839-36.837 12.785-2.714 1.681-4.331 4.584-4.331 7.767 0 3.18 1.617 6.08 4.326 7.759 13.425 8.319 28.648 12.872 44.391 13.331-1.014 3.267-2.697 7.908 1.438 12.041 2.317 2.315 5.589 3.21 8.753 2.393 6.666-1.72 12.895-4.359 18.576-7.686 14.11-8.263 24.827-20.789 30.375-34.157 18.748-7.78 35.842-25.69 41.844-48.951.817-3.166-.078-6.438-2.393-8.755z" fill="#ff8f71"/><path d="m125.201 132.672c-1.919 0-3.839-.732-5.304-2.196l-40-40c-2.929-2.93-2.929-7.678 0-10.607 2.93-2.928 7.678-2.928 10.607 0l40 40c2.929 2.93 2.929 7.678 0 10.607-1.464 1.463-3.384 2.196-5.303 2.196z" fill="#ff6f4d"/><path d="m293.2 48.795c-.002 5.734 4.269 7.831 7.497 9.531-10.789 11.437-18.328 25.396-21.945 40.741-.737 3.124.178 6.345 2.447 8.615 2.247 2.249 5.433 3.158 8.518 2.433 12.859-3.022 24.831-8.876 35.082-17.014-2.091 4.756-3.833 8.135-5.39 11.156-2.624 5.089-4.696 9.109-6.7 16.445-.913 3.341.043 6.941 2.494 9.394 2.468 2.47 5.945 3.399 9.307 2.485 5.922-1.612 11.568-3.943 16.863-6.956 1.441 12.424 5.521 24.789 12.316 35.994 1.752 2.889 4.821 4.614 8.21 4.614 3.388 0 6.458-1.725 8.21-4.614 6.644-10.957 10.84-23.265 12.316-35.994 5.296 3.013 10.942 5.344 16.864 6.956 3.359.914 6.842-.015 9.313-2.487 2.484-2.486 3.416-5.988 2.493-9.371-3.109-11.394-6.67-15.395-12.103-27.615 10.284 8.172 22.248 13.99 35.088 17.007 3.109.731 6.305-.178 8.555-2.429 2.248-2.248 3.156-5.443 2.427-8.545-3.611-15.375-11.155-29.359-21.963-40.816 3.027-1.594 7.499-3.685 7.497-9.531-.001-3.275-1.682-6.222-4.497-7.882-20.659-12.184-45.44-12.782-64.202-5.026-18.758-7.755-43.51-7.178-64.202 5.026-2.813 1.661-4.494 4.607-4.495 7.883z" fill="#5fd9b3"/><path d="m361.898 79.274c-4.143 0-7.5-3.357-7.5-7.5v-60c0-4.143 3.357-7.5 7.5-7.5s7.5 3.357 7.5 7.5v60c0 4.143-3.357 7.5-7.5 7.5z" fill="#00c084"/><path d="m116.873 494.31c4.056-4.054 2.519-8.556 1.439-12.04 15.717-.458 30.917-4.998 44.326-13.291 2.73-1.688 4.361-4.612 4.362-7.822.002-3.179-1.608-6.075-4.303-7.744-11.229-6.956-23.834-11.282-36.838-12.776 4.842-1.885 8.463-3.042 11.7-4.077 5.454-1.743 9.762-3.12 16.366-6.891 3.008-1.717 4.878-4.938 4.879-8.406.001-3.492-1.801-6.607-4.824-8.338-5.327-3.047-10.968-5.392-16.843-7.006 7.766-9.804 13.624-21.432 16.743-34.16.804-3.282-.146-6.672-2.542-9.068-2.396-2.396-5.786-3.347-9.068-2.543-12.446 3.05-24.116 8.786-34.161 16.743-1.614-5.875-3.959-11.516-7.006-16.843-1.729-3.021-4.848-4.827-8.343-4.827-3.514.001-6.65 1.819-8.389 4.863-5.858 10.255-6.169 15.602-10.969 28.085-1.494-13.051-5.839-25.624-12.785-36.837-1.681-2.715-4.584-4.332-7.767-4.332-3.18 0-6.08 1.617-7.759 4.326-8.319 13.425-12.872 28.648-13.331 44.391-3.267-1.013-7.908-2.697-12.041 1.438-2.315 2.317-3.21 5.589-2.393 8.753 5.993 23.224 23.092 41.169 41.844 48.952 7.78 18.747 25.691 35.841 48.951 41.844 3.163.816 6.436-.079 8.752-2.394z" fill="#ffce71"/><path d="m41.31 480.22c-1.919 0-3.839-.732-5.304-2.196-2.929-2.93-2.929-7.678 0-10.607l60-60c2.93-2.928 7.678-2.928 10.607 0 2.929 2.93 2.929 7.678 0 10.607l-60 60c-1.465 1.463-3.384 2.196-5.303 2.196z" fill="#ffb357"/></svg>