<svg id="Layer_1" enable-background="new 0 0 497 497" height="512" viewBox="0 0 497 497" width="512" xmlns="http://www.w3.org/2000/svg"><path d="m185.038 23.143c-20.485-22.344-55.707-11.033-61.753 19.212-25.555-17.976-59.006 3.596-56.423 35.921-32.625-9.858-58.938 29.292-40.227 59.312-35.467 10.38-35.56 64.415 0 74.822-18.711 30.02 7.602 69.17 40.227 59.312-2.583 32.325 30.868 53.898 56.423 35.921 6.046 30.245 41.267 41.557 61.753 19.212 11.657 27.904 47.379 31.355 63.462 6.088z" fill="#ff6f4d"/><path d="m470.365 137.589c18.711-30.02-7.602-69.171-40.227-59.312 2.583-32.325-30.868-53.898-56.423-35.921-6.046-30.245-41.267-41.557-61.753-19.212-11.657-27.905-47.379-31.355-63.462-6.089-16.083-25.267-51.805-21.817-63.462 6.088-51.723 105.539-25.903 231.581 63.462 309.801 16.083 25.267 51.805 21.816 63.462-6.088 20.485 22.345 55.707 11.033 61.753-19.212 25.555 17.977 59.007-3.596 56.423-35.921 32.625 9.858 58.938-29.292 40.227-59.312 35.467-10.38 35.56-64.415 0-74.822z" fill="#ff8f71"/><path d="m354.611 381.481 30.406-99.51c4.842-15.845-4.078-32.615-19.924-37.457-15.844-4.841-32.614 4.078-37.457 19.924l-21.32 69.772c-7.768 25.424-31.232 42.79-57.816 42.79-4.488 0-8.884-.506-13.134-1.451h-29.868v121.451h164.216c5.159 0 8.804-5.099 7.091-9.965-2.373-6.741-7.086-12.378-13.164-15.939-9.233-5.409-15.142-15.071-15.142-25.772v-22.93c.001-13.866 2.061-27.653 6.112-40.913z" fill="#ce857a"/><path d="m225.498 473.045v-73.673c0-8.935 3.55-17.505 9.868-23.823-20.77-4.621-38.181-20.06-44.683-41.338l-21.32-69.772c-4.842-15.846-21.613-24.768-37.457-19.924-15.846 4.842-24.766 21.612-19.924 37.457l30.407 99.51c4.052 13.26 6.111 27.047 6.111 40.912v22.93c0 10.701-5.908 20.363-15.141 25.772-6.078 3.561-10.791 9.198-13.164 15.939-1.713 4.867 1.931 9.965 7.091 9.965h108.213l-.132-.132c-6.319-6.319-9.869-14.888-9.869-23.823z" fill="#c77464"/><ellipse cx="180.093" cy="440.852" fill="#ff8e9e" rx="22.474" ry="17.897" transform="matrix(1 .003 -.003 1 1.382 -.562)"/><ellipse cx="316.907" cy="441.233" fill="#ff8e9e" rx="22.474" ry="17.897" transform="matrix(-1 -.003 .003 -1 632.432 883.456)"/><path d="m184.5 403.042c-4.142 0-7.5 3.358-7.5 7.5v10c0 4.142 3.358 7.5 7.5 7.5s7.5-3.358 7.5-7.5v-10c0-4.142-3.358-7.5-7.5-7.5z" fill="#313d40"/><path d="m312.5 403.042c-4.142 0-7.5 3.358-7.5 7.5v10c0 4.142 3.358 7.5 7.5 7.5s7.5-3.358 7.5-7.5v-10c0-4.142-3.358-7.5-7.5-7.5z" fill="#313d40"/><path d="m268.235 416.776c-3.737-1.789-8.215-.206-10.001 3.531-1.666 3.484-5.291 5.735-9.234 5.735s-7.568-2.251-9.234-5.735c-1.787-3.737-6.266-5.317-10.001-3.531-3.737 1.787-5.318 6.265-3.531 10.001 4.144 8.666 13.08 14.265 22.766 14.265 9.687 0 18.623-5.599 22.766-14.265 1.787-3.736.206-8.214-3.531-10.001z" fill="#313d40"/><g fill="#ff6f4d"><path d="m444.86 183.135c2.932-4.352 2.932-10.062 0-14.414-9.262-13.747-24.971-22.793-42.801-22.793s-33.539 9.046-42.801 22.793c-2.932 4.352-2.932 10.062 0 14.414 9.262 13.747 24.971 22.793 42.801 22.793s33.539-9.046 42.801-22.793z"/><path d="m324.142 148.019c4.352 2.932 10.062 2.932 14.414 0 13.747-9.262 22.793-24.971 22.793-42.801s-9.046-33.539-22.793-42.801c-4.352-2.932-10.062-2.932-14.414 0-13.747 9.262-22.793 24.971-22.793 42.801s9.046 33.539 22.793 42.801z"/><path d="m230.632 286.453c1.004 5.15 5.042 9.188 10.192 10.192 16.27 3.171 33.774-1.54 46.382-14.148s17.319-30.112 14.148-46.382c-1.004-5.15-5.042-9.188-10.192-10.192-16.27-3.171-33.774 1.54-46.382 14.148s-17.319 30.112-14.148 46.382z"/><path d="m203.192 164.077c-2.932 4.352-2.932 10.062 0 14.414 9.262 13.747 24.971 22.793 42.801 22.793s33.539-9.046 42.801-22.793c2.932-4.352 2.932-10.062 0-14.414-9.262-13.747-24.971-22.793-42.801-22.793s-33.539 9.046-42.801 22.793z"/><path d="m409.199 360.757c-2.932 4.352-2.932 10.062 0 14.414 9.262 13.747 24.971 22.793 42.801 22.793s33.539-9.046 42.801-22.793c2.932-4.352 2.932-10.062 0-14.414-9.262-13.747-24.971-22.793-42.801-22.793s-33.539 9.047-42.801 22.793z"/><path d="m396.331 425.321c-5.15 1.004-9.188 5.042-10.192 10.192-3.171 16.27 1.54 33.774 14.148 46.382s30.112 17.319 46.382 14.148c5.15-1.004 9.188-5.042 10.192-10.192 3.171-16.27-1.54-33.774-14.148-46.382s-30.112-17.319-46.382-14.148z"/><path d="m30.632 426.453c1.004 5.15 5.042 9.188 10.192 10.192 16.27 3.171 33.774-1.54 46.382-14.148s17.319-30.112 14.148-46.382c-1.004-5.15-5.042-9.188-10.192-10.192-16.27-3.171-33.774 1.54-46.382 14.148s-17.319 30.112-14.148 46.382z"/><path d="m200.824 45.923c-5.15 1.004-9.188 5.042-10.192 10.192-3.171 16.27 1.54 33.774 14.148 46.382s30.112 17.319 46.382 14.148c5.15-1.004 9.188-5.042 10.192-10.192 3.171-16.27-1.54-33.774-14.148-46.382s-30.112-17.319-46.382-14.148z"/></g><path d="m74.632 222.453c1.004 5.15 5.042 9.188 10.192 10.192 16.27 3.171 33.774-1.54 46.382-14.148s17.319-30.112 14.148-46.382c-1.004-5.15-5.042-9.188-10.192-10.192-16.27-3.171-33.774 1.54-46.382 14.148s-17.319 30.112-14.148 46.382z" fill="#ec5334"/><path d="m104.824 71.923c-5.15 1.004-9.188 5.042-10.192 10.192-3.171 16.27 1.54 33.774 14.148 46.382s30.112 17.319 46.382 14.148c5.15-1.004 9.188-5.042 10.192-10.192 3.171-16.27-1.54-33.774-14.148-46.382s-30.112-17.319-46.382-14.148z" fill="#ec5334"/></svg>