<svg id="Layer_1" enable-background="new 0 0 497 497" height="512" viewBox="0 0 497 497" width="512" xmlns="http://www.w3.org/2000/svg"><path d="m469.358 196.609c2.238-29.521-26.502-51.54-54.425-41.634-9.388-15.706-27.296-22.652-43.852-19.026 29.43-16.61 26.968-62.586-7.258-74.335 2.239-29.521-26.502-51.541-54.425-41.634-12.86-21.515-41.712-26.616-61.168-10.579-61.51 24.193-101.953 83.559-101.953 149.655v170.119c18.893 12.631 45.559 7.518 57.874-13.153 16.728 5.901 33.864.263 44.351-11.608 10.463 11.931 27.61 17.619 44.428 11.667 12.938 21.727 42.085 26.401 61.145 10.676 18.955 15.611 48.101 11.159 61.145-10.735 27.818 9.813 56.793-12.258 54.376-41.903 36.647-12.816 36.509-64.894-.238-77.51z" fill="#ffdbe0"/><path d="m248.231 9.401c-19.303-15.906-48.301-10.937-61.154 10.749-27.938-9.817-56.73 12.327-54.281 41.943-33.916 11.867-36.194 57.596-6.773 74.046-16.695-3.894-34.989 2.991-44.48 19.006-27.938-9.817-56.73 12.326-54.281 41.943-36.405 12.738-36.365 64.497.21 77.176-2.327 29.574 26.501 51.687 54.39 41.816 12.938 21.727 42.085 26.401 61.145 10.676 1.059.872 2.153 1.671 3.271 2.418l39.303-75.029c7.5-14.318 11.418-30.24 11.418-46.403v-93.182c.001-41.065 18.895-79.847 51.232-105.159z" fill="#ffb5c0"/><path d="m435.64 239.346c-7.77-14.633-25.93-20.196-40.565-12.429l-32.29 17.145-17.145-32.291c-7.77-14.634-25.933-20.196-40.565-12.429-14.634 7.771-20.198 25.932-12.429 40.565l27.076 50.995-13.404 43.749c-7.769 25.354-31.233 42.673-57.817 42.673-4.488 0-8.884-.505-13.134-1.447h-29.868v121.123h164.216c5.159 0 8.804-5.085 7.091-9.938-2.373-6.723-7.086-12.345-13.164-15.896-9.233-5.395-15.142-15.031-15.142-25.703v-22.868c0-13.827 2.06-27.577 6.111-40.801l23.953-78.179 44.647-23.704c14.634-7.769 20.198-25.931 12.429-40.565z" fill="#ce857a"/><path d="m235.366 496.868c-6.318-6.301-9.868-14.847-9.868-23.758v-73.474c0-8.911 3.55-17.458 9.868-23.758-20.77-4.609-38.181-20.006-44.683-41.226l-13.404-43.749 27.076-50.995c7.77-14.634 2.205-32.795-12.429-40.565-14.633-7.767-32.795-2.206-40.565 12.429l-17.145 32.291-32.29-17.145c-14.635-7.771-32.797-2.204-40.565 12.429-7.77 14.634-2.205 32.796 12.429 40.565l44.647 23.704 23.953 78.179c4.052 13.224 6.111 26.974 6.111 40.801v22.868c0 10.672-5.908 20.308-15.142 25.703-6.078 3.551-10.791 9.173-13.164 15.896-1.713 4.854 1.931 9.938 7.091 9.938h108.213z" fill="#c77464"/><ellipse cx="180.093" cy="440.852" fill="#ff8e9e" rx="22.474" ry="17.897" transform="matrix(1 .003 -.003 1 1.382 -.562)"/><ellipse cx="316.907" cy="441.233" fill="#ff8e9e" rx="22.474" ry="17.897" transform="matrix(-1 -.003 .003 -1 632.432 883.456)"/><g fill="#313d40"><path d="m184.5 403.296c-4.142 0-7.5 3.349-7.5 7.48v9.973c0 4.131 3.358 7.48 7.5 7.48s7.5-3.349 7.5-7.48v-9.973c0-4.131-3.358-7.48-7.5-7.48z"/><path d="m312.5 403.296c-4.142 0-7.5 3.349-7.5 7.48v9.973c0 4.131 3.358 7.48 7.5 7.48s7.5-3.349 7.5-7.48v-9.973c0-4.131-3.358-7.48-7.5-7.48z"/><path d="m268.235 416.993c-3.737-1.784-8.215-.205-10.001 3.521-1.666 3.474-5.291 5.72-9.234 5.72s-7.568-2.245-9.234-5.72c-1.787-3.727-6.266-5.303-10.001-3.521-3.737 1.782-5.318 6.248-3.531 9.974 4.144 8.642 13.08 14.226 22.766 14.226 9.687 0 18.623-5.584 22.766-14.226 1.787-3.726.206-8.192-3.531-9.974z"/></g><path d="m338.53 196.567c0-16.568-13.431-30-30-30s-30 13.432-30 30c-16.569 0-30 13.432-30 30s13.431 30 30 30c0 16.568 13.431 30 30 30s30-13.432 30-30c16.569 0 30-13.432 30-30s-13.431-30-30-30z" fill="#ffb5c0"/><circle cx="308.53" cy="226.567" fill="#fce3a0" r="11.47"/><path d="m221.481 84.518c0-11.046-8.954-20-20-20s-20 8.954-20 20c-11.046 0-20 8.954-20 20s8.954 20 20 20c0 11.046 8.954 20 20 20s20-8.954 20-20c11.046 0 20-8.954 20-20s-8.955-20-20-20z" fill="#ff8e9e"/><circle cx="201.481" cy="104.518" fill="#fce3a0" r="11.47"/><path d="m321.481 64.518c0-11.046-8.954-20-20-20s-20 8.954-20 20c-11.046 0-20 8.954-20 20s8.954 20 20 20c0 11.046 8.954 20 20 20s20-8.954 20-20c11.046 0 20-8.954 20-20s-8.954-20-20-20z" fill="#ffb5c0"/><circle cx="301.481" cy="84.518" fill="#fce3a0" r="11.47"/><path d="m204.644 182.369c-2.485-10.762-13.224-17.473-23.986-14.988-10.763 2.485-17.473 13.224-14.988 23.986-10.763 2.485-17.473 13.224-14.988 23.986s13.224 17.473 23.986 14.988c2.485 10.762 13.224 17.473 23.986 14.988s17.473-13.224 14.988-23.986c10.763-2.485 17.473-13.224 14.988-23.986s-13.224-17.473-23.986-14.988z" fill="#ffdbe0"/><circle cx="189.655" cy="206.356" fill="#ffce71" r="11.47"/><path d="m81.74 383.296c0-11.046-8.954-20-20-20s-20 8.954-20 20c-11.046 0-20 8.954-20 20s8.954 20 20 20c0 11.046 8.954 20 20 20s20-8.954 20-20c11.046 0 20-8.954 20-20s-8.954-20-20-20z" fill="#ffb5c0"/><circle cx="61.74" cy="403.296" fill="#ffce71" r="11.47"/><path d="m459.149 437c0-11.046-8.954-20-20-20s-20 8.954-20 20c-11.046 0-20 8.954-20 20s8.954 20 20 20c0 11.046 8.954 20 20 20s20-8.954 20-20c11.046 0 20-8.954 20-20s-8.955-20-20-20z" fill="#ff8e9e"/><circle cx="439.149" cy="457" fill="#fce3a0" r="11.47"/></svg>