<svg id="Layer_1" enable-background="new 0 0 497 497" height="512" viewBox="0 0 497 497" width="512" xmlns="http://www.w3.org/2000/svg"><path d="m0 153.444c.053 18.429 10.485 34.775 26.477 44.825-2.797 5.045-4.396 10.848-4.396 17.026 0 11.467 5.491 21.65 13.985 28.07-5.558 4.394-9.13 11.188-9.13 18.823 0 13.252 10.743 23.995 23.994 23.995 13.184 0 23.88-10.634 23.989-23.792 11.594 4.446 24.919 5.939 38.637 3.396 11.698 21.12 36.403 32.67 61.249 31.252l50.687-296.178c-117.589 7.634-225.492 65.624-225.492 152.583z" fill="#d4d4d5"/><path d="m447.712 61.691c-58.029-47.974-142.355-66.013-222.214-60.83-.002 0-.004 0-.006 0-.249.085-86.099 29.529-86.099 97.637v68.206l35.412 130.334c9.834-.563 19.528-3.157 28.299-7.741 25.494 22.96 66.969 22.02 91.102-.016 31.288 16.281 72.963 6.323 89.483-23.601 13.649 2.521 26.875 1.054 38.391-3.332.087 13.177 10.792 23.834 23.99 23.834 13.252 0 23.994-10.743 23.994-23.995 0-7.635-3.571-14.431-9.129-18.824 8.493-6.42 13.983-16.603 13.983-28.069 0-6.227-1.625-12.071-4.464-17.145 15.913-9.995 26.349-26.273 26.534-44.707h.012c0-35.782-19.787-67.362-49.288-91.751z" fill="#efedee"/><path d="m435.64 239.344c-7.77-14.633-25.93-20.196-40.565-12.429l-32.29 17.145-17.145-32.291c-7.77-14.634-25.933-20.196-40.565-12.429-14.634 7.771-20.198 25.932-12.429 40.565l27.076 50.995-13.404 43.749c-7.769 25.354-31.233 42.673-57.817 42.673-4.488 0-8.884-.505-13.134-1.447h-29.868v121.123h164.216c5.159 0 8.804-5.085 7.091-9.938-2.373-6.723-7.086-12.345-13.164-15.896-9.233-5.395-15.142-15.031-15.142-25.703v-22.868c0-13.827 2.06-27.577 6.111-40.801l23.953-78.179 44.647-23.704c14.634-7.77 20.198-25.932 12.429-40.565z" fill="#ce857a"/><path d="m235.366 496.866c-6.318-6.301-9.868-14.847-9.868-23.758v-73.474c0-8.911 3.55-17.458 9.868-23.758-20.77-4.609-38.181-20.006-44.683-41.226l-13.404-43.75 27.076-50.995c7.77-14.634 2.205-32.795-12.429-40.565-14.633-7.767-32.795-2.206-40.565 12.429l-17.145 32.291-32.29-17.145c-14.635-7.771-32.797-2.204-40.565 12.429-7.77 14.634-2.205 32.796 12.429 40.565l44.647 23.704 23.953 78.179c4.052 13.224 6.111 26.974 6.111 40.801v22.868c0 10.672-5.908 20.308-15.142 25.703-6.078 3.551-10.791 9.173-13.164 15.896-1.713 4.854 1.931 9.938 7.091 9.938h108.213z" fill="#c77464"/><path d="m248.5 392.322c-10.78 0-21.243-2.257-31.099-6.709-7.55-3.41-10.905-12.295-7.495-19.845 3.409-7.55 12.293-10.906 19.845-7.495 5.948 2.687 12.256 4.049 18.749 4.049 6.511 0 12.817-1.358 18.746-4.038 7.549-3.41 16.436-.059 19.847 7.491 3.412 7.549.058 16.435-7.491 19.847-9.838 4.446-20.302 6.7-31.102 6.7z" fill="#d4d4d5"/><ellipse cx="180.093" cy="445.849" fill="#ff8e9e" rx="22.474" ry="17.897" transform="matrix(1 .003 -.003 1 1.398 -.562)"/><ellipse cx="316.907" cy="446.231" fill="#ff8e9e" rx="22.474" ry="17.897" transform="matrix(-1 -.003 .003 -1 632.416 893.452)"/><path d="m266.5 448.998c0-4.142-3.358-7.5-7.5-7.5h-20c-4.142 0-7.5 3.358-7.5 7.5s3.358 7.5 7.5 7.5h20c4.142 0 7.5-3.358 7.5-7.5z" fill="#313d40"/><path d="m213.735 414.232c-3.737-1.789-8.215-.206-10.001 3.531-1.666 3.484-5.291 5.735-9.234 5.735s-7.568-2.251-9.234-5.735c-1.787-3.737-6.266-5.317-10.001-3.531-3.737 1.787-5.318 6.265-3.531 10.001 4.144 8.666 13.08 14.265 22.766 14.265s18.623-5.599 22.766-14.265c1.787-3.737.206-8.215-3.531-10.001z" fill="#313d40"/><path d="m321.735 414.232c-3.737-1.789-8.215-.206-10.001 3.531-1.666 3.484-5.291 5.735-9.234 5.735s-7.568-2.251-9.234-5.735c-1.787-3.737-6.266-5.317-10.001-3.531-3.737 1.787-5.318 6.265-3.531 10.001 4.144 8.666 13.08 14.265 22.766 14.265s18.623-5.599 22.766-14.265c1.787-3.737.206-8.215-3.531-10.001z" fill="#313d40"/><circle cx="406.649" cy="110.126" fill="#d4d4d5" r="7.5"/><circle cx="366.649" cy="70.126" fill="#d4d4d5" r="7.5"/><circle cx="346.649" cy="130.126" fill="#d4d4d5" r="7.5"/><circle cx="226.649" cy="150.126" fill="#d4d4d5" r="7.5"/><circle cx="246.649" cy="70.126" fill="#d4d4d5" r="7.5"/><circle cx="196.649" cy="100.126" fill="#d4d4d5" r="7.5"/><circle cx="106.648" cy="140.126" fill="#b9bbbc" r="7.5"/><circle cx="56.648" cy="110.126" fill="#b9bbbc" r="7.5"/><circle cx="136.648" cy="60.126" fill="#b9bbbc" r="7.5"/><g fill="#d4d4d5"><circle cx="276.649" cy="180.126" r="7.5"/><circle cx="256.649" cy="270.126" r="7.5"/><circle cx="456.649" cy="150.126" r="7.5"/><circle cx="34.24" cy="359.631" r="15"/><circle cx="105.24" cy="409.631" r="15"/><circle cx="34.24" cy="449.631" r="15"/><circle cx="414.241" cy="429.631" r="15"/><circle cx="464.241" cy="349.631" r="15"/></g></svg>