<svg id="Layer_1" enable-background="new 0 0 497 497" height="512" viewBox="0 0 497 497" width="512" xmlns="http://www.w3.org/2000/svg"><path d="m449.271 251.23c-8.284 0-15 6.716-15 15 0-135.673-61.937-247.476-167.292-265.925-12.261-2.148-23.479 7.343-23.479 19.79v20.812c0 7.946-6.179 14.493-14.108 15.018-109.827 7.257-196.662 98.639-196.662 210.304-.001 116.749 94.021 210.771 210.77 210.771 116.406 0 220.771-94.365 220.771-210.771 0-8.284-6.716-14.999-15-14.999z" fill="#ffb357"/><path d="m415.577 299.249c3.827-16.911-8.968-33.019-26.307-33.019 0-59.071-13.356-113.612-37.607-153.575-10.084-16.616-25.303-35.923-46.949-50.039-7.931-5.173-18.604-2.487-22.984 5.908-9.425 18.066-27.795 30.876-49.37 32.303-41.878 2.767-80.833 21.204-109.691 51.913-28.98 30.838-44.939 71.143-44.939 113.489 0 9.994.87 19.848 2.573 29.474 6.398 36.161 37.918 62.464 74.64 62.464h186.723c35.121 0 65.869-24.069 73.768-58.29.048-.21.096-.419.143-.628z" fill="#fce3a0"/><path d="m243.094 145.379c-28.618.103-53.194 15.914-63.828 38.387-3.439.598-6.857 1.438-10.221 2.517-17.543 5.623-31.633 17.104-39.699 32.376-7.927 15.072-8.674 31.607-3.483 46.396-11.25 11.571-17.383 26.274-17.362 41.794 0 15.545 6.139 30.232 17.381 41.783-5.392 15.392-4.141 31.806 3.578 46.418 2.011 3.813 4.401 7.391 7.13 10.7 11.537 13.993 28.318 21.664 45.703 21.628l55.757-.114 5.322-281.886c-.093.001-.186.001-.278.001z" fill="#d34459"/><path d="m378.5 306.481c-.021-15.994-6.62-30.615-17.461-41.751 5.176-14.821 4.392-31.384-3.599-46.46-9.991-18.863-29.015-31.186-50.11-34.768-10.74-22.422-35.384-38.123-63.96-38.123-75.699 78.367-77.401 201.493-5.322 281.886l67.034-.137c17.353-.035 34.078-7.745 45.563-21.74 2.72-3.314 5.101-6.896 7.102-10.711 7.911-15.093 8.632-31.635 3.42-46.422 10.805-11.16 17.354-25.788 17.333-41.774z" fill="#ea5b70"/><path d="m301.071 484.083c-4.617-2.697-7.571-7.516-7.571-12.852v-71.434c0-6.913 1.03-13.788 3.055-20.398l7.196-23.487c2.573-8.397-2.588-17.197-11.172-19.051-7.616-1.645-15.223 2.815-17.505 10.265l-2.665 8.7c-3.884 12.677-15.616 21.336-28.908 21.337-2.244 0-4.442-.253-6.567-.724h-14.934v120.561h82.108c2.529 0 4.405-2.476 3.581-4.867-1.175-3.406-3.548-6.257-6.618-8.05z" fill="#ffb5c0"/><path d="m236.933 496.934c-3.159-3.151-4.934-7.424-4.934-11.879v-96.737c0-4.456 1.775-8.729 4.934-11.879-10.385-2.304-19.091-10.003-22.342-20.613l-6.702-21.874 13.538-25.498c3.885-7.317 1.103-16.397-6.214-20.283-7.316-3.883-16.397-1.103-20.283 6.214l-8.572 16.145-16.145-8.572c-7.317-3.885-16.398-1.102-20.283 6.214-3.885 7.317-1.103 16.398 6.214 20.283l22.323 11.852 11.977 39.089c2.026 6.612 3.056 13.487 3.056 20.4v71.434c0 5.336-2.954 10.154-7.571 12.851-3.039 1.776-5.395 4.587-6.582 7.948-.857 2.427.966 4.969 3.545 4.969h54.106z" fill="#ff8e9e"/><g fill="#313d40"><path d="m214.501 428.892c2.071-.001 3.946-.84 5.303-2.197s2.196-3.232 2.197-5.304v-10c0-4.143-3.358-7.5-7.5-7.5-4.143.001-7.499 3.358-7.5 7.501v10c0 4.141 3.357 7.499 7.5 7.5z"/><path d="m278.803 426.694c1.357-1.357 2.196-3.232 2.197-5.303v-10c0-4.143-3.358-7.501-7.5-7.501-4.143.001-7.5 3.358-7.5 7.5v10c0 4.143 3.358 7.5 7.5 7.501 2.071 0 3.946-.839 5.303-2.197z"/><path d="m244.002 418.652c-.001 0-.002 0-.004 0-7.994 0-15.359 4.6-18.764 11.718-1.788 3.736-.208 8.215 3.529 10.002 3.736 1.791 8.215.207 10.002-3.529.913-1.908 3.016-3.19 5.234-3.19h.001c2.218 0 4.321 1.281 5.233 3.188 1.788 3.737 6.266 5.317 10.001 3.531 3.737-1.787 5.318-6.265 3.532-10.002-3.402-7.118-10.769-11.718-18.764-11.718z"/></g></svg>