<svg id="Layer_1" enable-background="new 0 0 497 497" height="512" viewBox="0 0 497 497" width="512" xmlns="http://www.w3.org/2000/svg"><path d="m218.5 388.742h60v108.258h-60z" fill="#5fd9b3"/><path d="m312.96 416.4c-13.088 23.848-38.101 38.66-65.281 38.66-27.182 0-52.197-14.815-65.28-38.661v-27.656h130.561z" fill="#00ce8e"/><path d="m253.181.502c-1.543-.328-3.111-.502-4.681-.502-3.627 0-7.253.875-10.555 2.626-44.221 23.465-71.693 69.104-71.693 119.108 0 28.641 9.028 55.837 25.041 78.265h68.45z" fill="#ff8e9e"/><path d="m259.055 2.627c-1.873-.993-3.851-1.695-5.874-2.125-17.299 27.961-26.928 60.623-26.928 94.824 0 38.305 12.074 74.679 33.49 104.674h45.972c16.008-22.429 25.033-49.627 25.033-78.265-.001-50.004-27.472-95.643-71.693-119.108z" fill="#ffb5c0"/><path d="m37.939 127.746c-.007.002-.014.003-.021.005-7.988 2.449-15.732 5.664-23.111 9.573-17.473 9.256-20.024 33.232-4.753 45.792l7.484 6.156c1.84 32.031 15.242 62.832 38.732 86.321 34.886 34.886 85.892 47.561 133.113 33.08 3.525-1.081 6.666-3 9.196-5.53s4.45-5.671 5.531-9.196c14.481-47.222 1.806-98.228-33.08-133.113-34.879-34.882-85.876-47.559-133.091-33.088z" fill="#ff8e9e"/><path d="m482.193 137.324c-7.379-3.909-15.123-7.124-23.111-9.573-.007-.001-.013-.003-.021-.005-47.216-14.471-98.212-1.794-133.093 33.087-34.886 34.886-47.56 85.892-33.08 133.113 1.081 3.525 3.001 6.666 5.531 9.196s5.671 4.449 9.196 5.53c47.222 14.481 98.227 1.807 133.113-33.08 23.49-23.489 36.891-54.291 38.732-86.321l7.484-6.156c15.272-12.559 12.721-36.535-4.751-45.791z" fill="#ffb5c0"/><path d="m248.5 333.5c-46.869 0-85-38.131-85-85s38.131-85 85-85 85 38.131 85 85-38.131 85-85 85z" fill="#fce3a0"/><path d="m209.621 248.5c0-38.88 26.24-71.744 61.94-81.82-7.336-2.07-15.071-3.18-23.06-3.18-46.869 0-85 38.131-85 85s38.131 85 85 85c7.989 0 15.724-1.11 23.06-3.18-35.7-10.076-61.94-42.94-61.94-81.82z" fill="#ffce71"/><ellipse cx="197.621" cy="240.722" fill="#ff8e9e" rx="22.474" ry="17.897" transform="matrix(1 .003 -.003 1 .755 -.618)"/><ellipse cx="299.379" cy="241.103" fill="#ff8e9e" rx="22.474" ry="17.897" transform="matrix(-1 -.003 .003 -1 598.001 483.143)"/><g fill="#313d40"><path d="m204.5 203.537c-4.142 0-7.5 3.358-7.5 7.5v10c0 4.142 3.358 7.5 7.5 7.5s7.5-3.358 7.5-7.5v-10c0-4.142-3.358-7.5-7.5-7.5z"/><path d="m292.5 203.537c-4.142 0-7.5 3.358-7.5 7.5v10c0 4.142 3.358 7.5 7.5 7.5s7.5-3.358 7.5-7.5v-10c0-4.142-3.358-7.5-7.5-7.5z"/><path d="m268.235 222.271c-3.737-1.789-8.215-.206-10.001 3.531-1.666 3.484-5.291 5.735-9.234 5.735s-7.568-2.251-9.234-5.735c-1.787-3.737-6.266-5.317-10.001-3.531-3.737 1.787-5.318 6.265-3.531 10.001 4.144 8.666 13.08 14.265 22.766 14.265 9.687 0 18.623-5.599 22.766-14.265 1.787-3.737.206-8.215-3.531-10.001z"/></g><path d="m137.47 253.249c-10.391.284-20.923 1.955-31.362 5.154-.006.001-.012.003-.018.004-18.208 5.582-34.974 15.675-48.483 29.184-7.654 7.654-7.654 20.063 0 27.717s20.063 7.654 27.717 0c.908-.908 1.846-1.77 2.787-2.626 1.624 28.258 13.447 55.431 34.17 76.154 30.776 30.776 75.774 41.958 117.434 29.183 3.279-1.005 6.327-2.875 8.786-5.594z" fill="#ffb5c0"/><path d="m439.393 287.591c-13.509-13.509-30.275-23.602-48.483-29.184-.006-.001-.012-.003-.018-.004-58.047-17.791-119.059 11.452-142.392 66.124-19.126-44.814-63.599-72.572-111.03-71.278-6.634 35.852 1.369 72.868 22.224 102.778 20.864 29.924 52.851 50.237 88.806 56.398 2.454 2.713 5.499 4.586 8.786 5.594 41.659 12.775 86.657 1.593 117.434-29.183 20.723-20.723 32.546-47.896 34.17-76.154.941.857 1.879 1.719 2.787 2.626 7.654 7.654 20.063 7.654 27.717 0 7.653-7.654 7.653-20.063-.001-27.717z" fill="#ffdbe0"/></svg>