<svg id="Layer_1" enable-background="new 0 0 497 497" height="512" viewBox="0 0 497 497" width="512" xmlns="http://www.w3.org/2000/svg"><g fill="#ffb5c0"><path d=""/><rect height="0" width="0" x="209.641" y="37.286"/><path d="m209.641 37.286-11.3-11.3c-7.793-7.793-20.435-8.166-28.466-.618-11.267 10.59-18.304 25.627-18.304 42.31 0 9.252 2.167 20.335 6.017 31.421-6.363-6.584-13.089-12.068-19.494-15.766-14.448-8.342-30.988-9.766-45.793-5.303-10.552 3.181-16.551 14.316-13.698 24.96l4.136 15.437-15.437 4.136c-10.645 2.852-17.288 13.615-14.767 24.343 3.538 15.051 13.041 28.665 27.489 37.006 12.03 6.946 30.071 11.727 47.962 12.663-11.368 5.275-21.505 11.955-28.454 18.903-11.796 11.797-17.453 27.405-16.974 42.86.341 11.016 9.544 19.692 20.564 19.692h15.981v15.981c0 11.021 8.676 20.223 19.692 20.565 15.455.478 31.063-5.178 42.86-16.974 12.442-12.442 24.029-35.098 28.211-56.76z"/></g><path d="m353.698 122.564-15.436-4.136 4.136-15.437c2.852-10.644-3.147-21.779-13.698-24.96-14.804-4.463-31.345-3.039-45.793 5.303-7.352 4.245-15.127 10.838-22.289 18.753 4.521-12.068 7.092-24.325 7.092-34.409 0-16.683-7.037-31.72-18.304-42.31-8.03-7.548-20.673-7.175-28.465.618l-11.3 11.3c-49.949 58.692-49.853 144.976.226 203.557 4.182 21.662 15.769 44.318 28.211 56.76 11.797 11.797 27.405 17.453 42.86 16.974 11.015-.341 19.691-9.544 19.691-20.565v-15.981h15.981c11.021 0 20.223-8.676 20.564-19.692.479-15.455-5.177-31.063-16.974-42.86-6.925-6.925-17.016-13.582-28.337-18.849 18.266-.787 36.825-5.623 49.112-12.718 14.448-8.341 23.951-21.954 27.489-37.006 2.523-10.727-4.121-21.49-14.766-24.342z" fill="#ffdbe0"/><circle cx="209" cy="161.371" fill="#ff8e9e" r="44.457"/><path d="m192.501 171.153c2.071-.001 3.946-.84 5.303-2.197s2.196-3.232 2.197-5.304v-10c0-4.143-3.358-7.5-7.5-7.5-4.143.001-7.499 3.358-7.5 7.501v10c0 4.142 3.357 7.499 7.5 7.5z" fill="#313d40"/><path d="m229.803 168.956c1.357-1.357 2.196-3.232 2.197-5.303v-10c0-4.143-3.358-7.501-7.5-7.501-4.143.001-7.5 3.358-7.5 7.5v10c0 4.143 3.358 7.5 7.5 7.501 2.071-.001 3.946-.839 5.303-2.197z" fill="#313d40"/><path d="m383.749 302.386c-4.387.105-8.622 2.458-10.963 6.515l-5.042 8.732-8.732-5.042c-6.021-3.476-13.787-1.639-17.448 4.272-5.137 8.293-6.97 18.606-4.245 28.772 2.268 8.465 8.184 18.647 15.748 27.046-7.425-2.718-14.927-4.26-21.127-4.261-10.526.001-20.012 4.44-26.693 11.549-4.762 5.066-4.527 13.042.389 17.959l7.13 7.13-7.13 7.129c-4.917 4.917-5.151 12.893-.389 17.959 6.681 7.108 16.168 11.548 26.693 11.548 11.101 0 26.378-4.938 37.908-12.737-7.798 11.53-12.737 26.807-12.737 37.908 0 10.526 4.44 20.012 11.548 26.694 5.066 4.762 13.042 4.527 17.959-.39l7.13-7.129 7.129 7.129c4.917 4.917 12.893 5.151 17.959.389 4.779-4.491 8.343-10.254 10.172-16.745z" fill="#ffb5c0"/><path d="m495.495 409.34c-4.614-8.596-12.628-15.339-22.795-18.064-5.173-1.386-11.583-1.913-18.31-1.577 7.4-3.367 14.016-7.688 18.515-12.187 7.443-7.443 11.011-17.291 10.709-27.042-.215-6.95-6.021-12.423-12.975-12.423h-10.083v-10.083c0-6.953-5.474-12.76-12.424-12.975-9.751-.302-19.598 3.267-27.041 10.71-4.128 4.127-8.105 10.039-11.334 16.702.099-5.776-.456-11.223-1.664-15.73-2.724-10.167-9.468-18.181-18.063-22.795-1.999-1.073-4.158-1.542-6.283-1.491-16.258 62.058.878 128.106 45.259 174.43.891-3.164 1.376-6.499 1.377-9.948 0-6.178-1.532-13.65-4.233-21.05 8.5 7.798 18.937 13.92 27.584 16.236 10.167 2.725 20.479.891 28.772-4.246 5.911-3.662 7.749-11.427 4.272-17.448l-5.041-8.732 8.732-5.042c6.023-3.475 8.315-11.118 5.026-17.245z" fill="#ffdbe0"/><path d="m374.551 377.739c1.465 1.464 3.384 2.196 5.304 2.196 1.919 0 3.839-.733 5.304-2.197l7.071-7.071c2.929-2.929 2.929-7.678 0-10.607-2.93-2.929-7.677-2.928-10.607.001l-7.071 7.071c-2.93 2.929-2.929 7.677-.001 10.607z" fill="#313d40"/><path d="m427.937 428.018c1.919 0 3.839-.733 5.303-2.196l7.071-7.071c2.929-2.93 2.93-7.678.001-10.607-2.93-2.929-7.678-2.929-10.607 0l-7.071 7.071c-2.929 2.93-2.929 7.678-.001 10.607 1.466 1.463 3.385 2.196 5.304 2.196z" fill="#313d40"/><path d="m395.255 405.822.003.003c5.652 5.652 14.113 7.608 21.554 4.982 3.906-1.378 5.956-5.662 4.577-9.568-1.375-3.908-5.663-5.956-9.568-4.577-1.995.704-4.388.124-5.957-1.445 0 0 0 0-.001-.001-1.569-1.569-2.15-3.962-1.446-5.955 1.379-3.907-.671-8.19-4.575-9.569-3.906-1.379-8.19.669-9.57 4.575-2.627 7.441-.67 15.902 4.983 21.555z" fill="#313d40"/><path d="m490.725 42.095-6.33-1.696 1.696-6.331c1.17-4.365-1.29-8.931-5.618-10.236-6.071-1.83-12.854-1.246-18.779 2.175-3.015 1.741-6.203 4.444-9.14 7.69 1.854-4.949 2.908-9.975 2.908-14.111 0-6.841-2.886-13.008-7.506-17.351-3.293-3.095-8.478-2.942-11.674.253l-4.634 4.634-4.634-4.634c-3.196-3.196-8.38-3.349-11.674-.253-4.62 4.343-7.506 10.51-7.506 17.351 0 3.794.889 8.339 2.467 12.886-2.609-2.7-5.368-4.949-7.995-6.465-5.925-3.421-12.708-4.005-18.779-2.175-4.327 1.304-6.787 5.871-5.618 10.236l1.696 6.331-6.331 1.696c-4.365 1.17-7.09 5.584-6.056 9.983 1.451 6.172 5.348 11.755 11.273 15.176 4.933 2.848 12.332 4.809 19.669 5.193-4.662 2.163-8.819 4.903-11.669 7.752-4.838 4.838-7.157 11.239-6.961 17.577.14 4.517 3.914 8.075 8.433 8.075h6.554v6.554c0 4.519 3.558 8.294 8.076 8.434 6.338.196 12.739-2.123 17.577-6.961 5.102-5.102 9.854-14.394 11.569-23.277 1.715 8.884 6.467 18.175 11.569 23.277 4.838 4.838 11.239 7.157 17.577 6.961 4.517-.14 8.075-3.914 8.075-8.434v-6.554h6.554c4.52 0 8.293-3.558 8.433-8.075.196-6.338-2.123-12.739-6.961-17.577-2.84-2.84-6.978-5.57-11.621-7.729 7.491-.323 15.102-2.306 20.141-5.216 5.925-3.42 9.822-9.003 11.273-15.176 1.036-4.4-1.689-8.813-6.054-9.983z" fill="#ffdbe0"/><circle cx="432" cy="58.425" fill="#ff8e9e" r="15"/><path d="m123.725 350.569-6.33-1.696 1.696-6.331c1.17-4.365-1.29-8.931-5.618-10.236-6.071-1.83-12.854-1.246-18.779 2.175-3.015 1.741-6.203 4.444-9.14 7.69 1.854-4.949 2.909-9.975 2.909-14.111 0-6.841-2.886-13.008-7.506-17.351-3.293-3.095-8.478-2.942-11.674.253l-4.634 4.634-4.634-4.634c-3.196-3.196-8.38-3.349-11.674-.253-4.62 4.343-7.506 10.51-7.506 17.351 0 3.794.889 8.339 2.467 12.886-2.609-2.7-5.368-4.949-7.995-6.465-5.925-3.421-12.708-4.005-18.779-2.175-4.327 1.304-6.787 5.871-5.618 10.236l1.696 6.331-6.331 1.696c-4.365 1.17-7.09 5.584-6.056 9.983 1.451 6.172 5.348 11.755 11.273 15.176 4.933 2.848 12.332 4.809 19.669 5.193-4.662 2.163-8.819 4.903-11.669 7.752-4.838 4.838-7.157 11.239-6.961 17.577.14 4.517 3.914 8.075 8.433 8.075h6.554v6.554c0 4.519 3.558 8.294 8.076 8.434 6.338.196 12.739-2.123 17.577-6.961 5.102-5.102 9.854-14.393 11.569-23.277 1.715 8.884 6.467 18.175 11.569 23.277 4.838 4.838 11.239 7.157 17.577 6.961 4.517-.14 8.075-3.914 8.075-8.434v-6.554h6.554c4.52 0 8.293-3.558 8.433-8.075.196-6.338-2.123-12.739-6.961-17.577-2.84-2.84-6.978-5.57-11.621-7.729 7.491-.323 15.102-2.306 20.141-5.216 5.925-3.42 9.822-9.003 11.273-15.176 1.035-4.399-1.69-8.813-6.055-9.983z" fill="#ffb5c0"/><circle cx="65" cy="366.899" fill="#ffdbe0" r="15"/></svg>