<svg id="Layer_1" enable-background="new 0 0 497 497" height="512" viewBox="0 0 497 497" width="512" xmlns="http://www.w3.org/2000/svg"><path d="m272.27 11.355c-.899-.901-1.797-1.801-2.688-2.688l-.118-.119c-11.644-11.441-30.465-11.394-42.042.12-71.625 71.232-170.854 197.07-170.854 297.623v.008h.118c0 108.353 86.324 190.701 191.81 190.701 29.498.002 57.431-6.62 82.391-18.438z" fill="#7ce3ff"/><path d="m440.314 306.295h.118c0-101.406-95.708-222.266-168.162-294.939-46.163 66.306-95.702 156.099-95.702 237.248h.154c0 106.371 63.877 193.489 154.166 229.958 64.717-30.645 109.426-96.269 109.426-172.267z" fill="#b9f0ff"/><ellipse cx="169.331" cy="384.305" fill="#ff8e9e" rx="29.212" ry="23.263" transform="matrix(1 .003 -.003 1 1.205 -.529)"/><ellipse cx="327.669" cy="384.802" fill="#ff8e9e" rx="29.212" ry="23.263" transform="matrix(-1 -.003 .003 -1 654.132 770.627)"/><g fill="#313d40"><path d="m184.5 342.042c-4.142 0-7.5 3.358-7.5 7.5v10c0 4.142 3.358 7.5 7.5 7.5s7.5-3.358 7.5-7.5v-10c0-4.142-3.358-7.5-7.5-7.5z"/><path d="m312.5 342.042c-4.142 0-7.5 3.358-7.5 7.5v10c0 4.142 3.358 7.5 7.5 7.5s7.5-3.358 7.5-7.5v-10c0-4.142-3.358-7.5-7.5-7.5z"/><path d="m268.235 355.776c-3.737-1.789-8.215-.206-10.001 3.531-1.666 3.484-5.291 5.735-9.234 5.735s-7.568-2.251-9.234-5.735c-1.787-3.737-6.266-5.317-10.001-3.531-3.737 1.787-5.318 6.265-3.531 10.001 4.144 8.666 13.08 14.265 22.766 14.265s18.623-5.599 22.766-14.265c1.787-3.736.206-8.214-3.531-10.001z"/></g></svg>