<svg id="Layer_1" enable-background="new 0 0 497 497" height="512" viewBox="0 0 497 497" width="512" xmlns="http://www.w3.org/2000/svg"><path d="m309.919 133.207c-.468-.47-.936-.938-1.401-1.4l-.062-.062c-6.067-5.962-15.873-5.937-21.904.062-37.318 37.113-89.018 102.677-89.018 155.067v.004h.062c0 56.454 44.976 99.359 99.936 99.359 15.369.001 29.922-3.449 42.927-9.607z" fill="#7ce3ff"/><path d="m397.472 286.876h.062c0-52.834-49.865-115.804-87.615-153.668-24.052 34.546-49.863 81.33-49.863 123.61h.08c0 55.421 33.281 100.811 80.323 119.812 33.72-15.967 57.013-50.158 57.013-89.754z" fill="#b9f0ff"/><g fill="#7ce3ff"><path d="m121.642 348.958c-.187-.188-.374-.375-.56-.56l-.025-.025c-2.427-2.385-6.349-2.375-8.762.025-14.927 14.845-35.607 41.07-35.607 62.026v.002h.025c0 22.581 17.99 39.743 39.974 39.743 6.148 0 11.969-1.379 17.171-3.843 13.488-6.386 22.805-20.063 22.805-35.901h.025c.001-21.133-19.946-46.321-35.046-61.467z"/><path d="m372.01 395.789c-.187-.188-.374-.375-.56-.56l-.025-.025c-2.427-2.385-6.349-2.375-8.762.025-14.927 14.845-35.607 41.07-35.607 62.026v.002h.024c0 22.581 17.991 39.743 39.975 39.743 6.147 0 11.969-1.38 17.171-3.843 13.488-6.387 22.805-20.063 22.805-35.901h.025c0-21.134-19.946-46.322-35.046-61.467z"/><path d="m127.747 74.905c-.328-.329-.655-.657-.98-.98l-.043-.043c-4.247-4.173-11.111-4.156-15.333.043-26.122 25.979-62.313 71.874-62.313 108.547v.003h.043c0 39.518 31.483 69.551 69.955 69.551 10.758.001 20.946-2.414 30.049-6.725z"/></g><path d="m127.747 74.905c-31.742 52.998-22.893 127.309 21.378 170.396 23.604-11.177 39.909-35.11 39.909-62.828h.043c.001-36.984-34.905-81.063-61.33-107.568z" fill="#b9f0ff"/><path d="m404.115 2.958c-.234-.235-.468-.469-.7-.7l-.031-.031c-3.033-2.981-7.936-2.968-10.952.031-18.659 18.557-44.509 51.338-44.509 77.533v.002h.031c0 28.227 22.488 49.679 49.968 49.679 7.684.001 14.961-1.724 21.464-4.803z" fill="#7ce3ff"/><path d="" fill="#b9f0ff"/><path d="m404.115 2.958c-.178.255-.356.517-.534.774-.005.007-.009.013-.014.02-.921 1.335-1.64 2.803-2.111 4.355-11.987 39.452-5.484 82.353 17.93 116.562 16.86-7.983 28.507-25.079 28.507-44.877h.031c-.001-26.417-24.934-57.902-43.809-76.834z" fill="#b9f0ff"/><path d="m74.5 173.537c-4.142 0-7.5 3.358-7.5 7.5v10c0 4.142 3.358 7.5 7.5 7.5s7.5-3.358 7.5-7.5v-10c0-4.142-3.358-7.5-7.5-7.5z" fill="#313d40"/><path d="m162.5 173.537c-4.142 0-7.5 3.358-7.5 7.5v10c0 4.142 3.358 7.5 7.5 7.5s7.5-3.358 7.5-7.5v-10c0-4.142-3.358-7.5-7.5-7.5z" fill="#313d40"/><path d="m138.235 184.271c-3.737-1.789-8.215-.206-10.001 3.531-1.666 3.484-5.291 5.735-9.234 5.735s-7.568-2.251-9.234-5.735c-1.787-3.737-6.266-5.317-10.001-3.531-3.737 1.787-5.318 6.265-3.531 10.001 4.144 8.666 13.08 14.265 22.766 14.265s18.623-5.599 22.766-14.265c1.787-3.737.206-8.215-3.531-10.001z" fill="#313d40"/><path d="m227.975 40.025c-.094-.094-.187-.188-.28-.28l-.012-.012c-1.213-1.192-3.175-1.188-4.381.012-7.464 7.423-17.804 20.535-17.804 31.013v.001h.012c0 11.291 8.995 19.872 19.987 19.872 3.074 0 5.984-.69 8.585-1.921 6.744-3.193 11.403-10.031 11.403-17.951h.012c.001-10.567-9.972-23.161-17.522-30.734z" fill="#7ce3ff"/><path d="m22.477 277.775c-.094-.094-.187-.188-.28-.28l-.012-.012c-1.213-1.192-3.175-1.188-4.381.012-7.464 7.423-17.804 20.535-17.804 31.013v.001h.012c0 11.291 8.995 19.872 19.987 19.872 3.074 0 5.984-.69 8.585-1.921 6.744-3.193 11.403-10.031 11.403-17.951h.013c0-10.567-9.973-23.161-17.523-30.734z" fill="#7ce3ff"/><path d="m234.5 282.042c-4.142 0-7.5 3.358-7.5 7.5v10c0 4.142 3.358 7.5 7.5 7.5s7.5-3.358 7.5-7.5v-10c0-4.142-3.358-7.5-7.5-7.5z" fill="#313d40"/><path d="m362.5 282.042c-4.142 0-7.5 3.358-7.5 7.5v10c0 4.142 3.358 7.5 7.5 7.5s7.5-3.358 7.5-7.5v-10c0-4.142-3.358-7.5-7.5-7.5z" fill="#313d40"/><path d="m318.235 295.776c-3.737-1.789-8.215-.206-10.001 3.531-1.666 3.484-5.291 5.735-9.234 5.735s-7.568-2.251-9.234-5.735c-1.787-3.737-6.266-5.317-10.001-3.531-3.737 1.787-5.318 6.265-3.531 10.001 4.144 8.666 13.08 14.265 22.766 14.265s18.623-5.599 22.766-14.265c1.787-3.736.206-8.214-3.531-10.001z" fill="#313d40"/><path d="m479.477 165.358c-.094-.094-.187-.188-.28-.28l-.012-.012c-1.213-1.192-3.175-1.188-4.381.012-7.464 7.422-17.804 20.535-17.804 31.013v.001h.012c0 11.291 8.995 19.872 19.987 19.872 3.074 0 5.984-.69 8.585-1.921 6.744-3.193 11.403-10.031 11.403-17.951h.013c0-10.568-9.973-23.162-17.523-30.734z" fill="#7ce3ff"/></svg>