<svg id="Layer_1" enable-background="new 0 0 497 497" height="512" viewBox="0 0 497 497" width="512" xmlns="http://www.w3.org/2000/svg"><path d="m0 203.725v209.551c0 33.137 26.863 60 60 60h377c33.137 0 60-26.863 60-60v-209.551l-248.5-60z" fill="#efedee"/><path d="m120 413.275v-209.55h-120v209.551c0 33.137 26.863 60 60 60h120c-33.137-.001-60-26.864-60-60.001z" fill="#d4d4d5"/><path d="m437 83.725h-377c-33.137 0-60 26.863-60 60v60h497v-60c0-33.137-26.863-60-60-60z" fill="#ff8e9e"/><path d="m60 83.725c-33.137 0-60 26.863-60 60v60h120c0-66.274 53.726-120 120-120-7.011 0-175.409 0-180 0z" fill="#ea5b70"/><path d="m257.561 237.6 13.664 12.357 18.012-3.87c7.531-1.618 15.063 2.731 17.427 10.061l5.654 17.534 17.534 5.654c7.331 2.364 11.679 9.896 10.061 17.427l-3.87 18.012 12.357 13.664c5.167 5.713 5.167 14.41 0 20.123l-12.357 13.664 3.87 18.012c1.618 7.531-2.731 15.063-10.061 17.427l-17.534 5.654-5.654 17.534c-2.364 7.331-9.896 11.679-17.427 10.061l-18.012-3.87-13.664 12.357c-5.713 5.167-14.41 5.167-20.123 0l-13.664-12.357-18.012 3.87c-7.531 1.618-15.063-2.731-17.427-10.061l-5.654-17.534-17.534-5.654c-7.331-2.364-11.679-9.896-10.061-17.427l3.87-18.012-12.356-13.665c-5.167-5.713-5.167-14.41 0-20.123l12.357-13.664-3.87-18.012c-1.618-7.531 2.731-15.063 10.061-17.427l17.534-5.654 5.654-17.534c2.364-7.331 9.896-11.679 17.427-10.061l18.012 3.87 13.664-12.357c5.712-5.166 14.41-5.166 20.122.001z" fill="#ffb357"/><circle cx="247.5" cy="338.5" fill="#ffce71" r="69"/><g fill="#313d40"><path d="m213.5 323.391c-4.143.001-7.499 3.358-7.5 7.501v10c0 4.142 3.358 7.499 7.501 7.5 2.071-.001 3.946-.84 5.303-2.197s2.197-3.232 2.197-5.304v-10c-.001-4.143-3.359-7.5-7.501-7.5z"/><path d="m281.5 323.391c-4.143.001-7.5 3.358-7.501 7.5v10c0 4.143 3.358 7.5 7.5 7.501 2.071-.001 3.946-.84 5.304-2.197s2.197-3.232 2.197-5.303v-10c0-4.143-3.357-7.501-7.5-7.501z"/><path d="m263.237 331.89c-3.736-1.791-8.215-.207-10.002 3.529-.913 1.908-3.016 3.19-5.234 3.19 0 0 0 0-.001 0-2.218 0-4.321-1.281-5.233-3.188-1.788-3.737-6.266-5.317-10.001-3.531-3.737 1.787-5.318 6.265-3.532 10.002 3.403 7.118 10.77 11.718 18.765 11.718h.004c7.994 0 15.359-4.6 18.764-11.718 1.787-3.737.207-8.215-3.53-10.002z"/></g><path d="m150 23.725c-16.568 0-30 13.432-30 30v90c0 7.37 2.659 14.113 7.068 19.335l52.932-63.278v-46.057c0-16.569-13.432-30-30-30z" fill="#d4d4d5"/><path d="m127.068 163.06c5.503 6.519 13.734 10.665 22.932 10.665 16.568 0 30-13.432 30-30v-43.943c-24.34 14.081-43.275 36.463-52.932 63.278z" fill="#efedee"/><path d="m347 173.725c-16.568 0-30-13.432-30-30v-90c0-16.568 13.432-30 30-30s30 13.432 30 30v90c0 16.568-13.432 30-30 30z" fill="#d4d4d5"/></svg>