<svg id="Layer_1" enable-background="new 0 0 497 497" height="512" viewBox="0 0 497 497" width="512" xmlns="http://www.w3.org/2000/svg"><path d="m247.657.012c-16.341.448-29.157 14.266-29.157 30.612v451.376c0 8.284 6.716 15 15 15h30c8.284 0 15-6.716 15-15v-452c0-16.849-13.89-30.454-30.843-29.988z" fill="#d4d4d5"/><path d="m.022 272.553c-.48 7.353 6.959 12.657 13.78 9.867 41.366-16.919 87.463-17.925 129.397-3.035 13.988 4.967 29.824 5.255 44.57.023.196-.07.393-.139.589-.208 35.908-12.601 60.142-46.234 60.142-84.289v-154.911c-131.995 0-240.004 102.7-248.478 232.553z" fill="#ea5b70"/><path d="m248.5 40v154.911c0 38.054 24.235 71.688 60.142 84.289.196.069.393.138.589.208 13.761 4.882 29.611 5.288 44.57-.023 41.934-14.89 88.031-13.884 129.397 3.035 6.821 2.79 14.26-2.515 13.78-9.867-8.474-129.853-116.483-232.553-248.478-232.553z" fill="#ff8e9e"/><path d="m165.52 283.215c7.447.003 14.98-1.228 22.249-3.807 39.248-13.925 82.214-13.925 121.462 0 7.006 2.485 14.553 3.803 22.249 3.805-1.028-134.847-37.784-243.213-82.98-243.213s-81.953 108.368-82.98 243.215z" fill="#efedee"/><ellipse cx="148.043" cy="143.409" fill="#d34459" rx="25" ry="19.909" transform="matrix(1 .003 -.003 1 .45 -.463)"/><ellipse cx="348.957" cy="143.905" fill="#ea5b70" rx="25" ry="19.909" transform="matrix(-1 -.003 .003 -1 697.462 288.902)"/><g fill="#313d40"><path d="m164.5 105.5c-4.142 0-7.5 3.358-7.5 7.5v10c0 4.142 3.358 7.5 7.5 7.5s7.5-3.358 7.5-7.5v-10c0-4.142-3.358-7.5-7.5-7.5z"/><path d="m332.5 105.5c-4.142 0-7.5 3.358-7.5 7.5v10c0 4.142 3.358 7.5 7.5 7.5s7.5-3.358 7.5-7.5v-10c0-4.142-3.358-7.5-7.5-7.5z"/><path d="m268.235 119.234c-3.737-1.789-8.215-.206-10.001 3.531-1.666 3.484-5.291 5.735-9.234 5.735s-7.568-2.251-9.234-5.735c-1.787-3.737-6.266-5.317-10.001-3.531-3.737 1.787-5.318 6.265-3.531 10.001 4.144 8.666 13.08 14.265 22.766 14.265 9.687 0 18.623-5.599 22.766-14.265 1.787-3.736.206-8.215-3.531-10.001z"/></g></svg>