<svg id="Layer_1" enable-background="new 0 0 497 497" height="512" viewBox="0 0 497 497" width="512" xmlns="http://www.w3.org/2000/svg"><path d="m467 40.702c-7.957 0-15.587 3.161-21.213 8.787l-283.279 283.279 42.426 42.426 283.279-283.279c5.626-5.626 8.787-13.257 8.787-21.213 0-16.568-13.431-30-30-30z" fill="#d4d4d5"/><path d="m84.777 102.248c-5.527 4.85-4.021 13.842 2.761 16.686 41.129 17.251 74.366 49.07 93.45 89.167 6.365 13.375 17.337 24.754 31.434 31.467l211.793-126.083c-93.141-93.141-241.828-96.887-339.438-11.237z" fill="#676f72"/><path d="m424.216 113.486-126.083 211.793c6.265 13.155 17.164 24.627 31.467 31.434 40.097 19.084 71.916 52.322 89.167 93.45 2.844 6.782 11.836 8.288 16.687 2.761 85.65-97.609 81.904-246.296-11.238-339.438z" fill="#9ea2a3"/><path d="m194.037 226.556c5.253 5.257 11.437 9.704 18.386 13.014 37.522 17.869 67.841 48.188 85.71 85.71 3.19 6.697 7.586 12.953 13.015 18.385 94.43-95.88 144.961-198.286 113.069-230.178-31.893-31.893-134.3 18.639-230.18 113.069z" fill="#82888b"/><ellipse cx="277.631" cy="118.003" fill="#ff8e9e" rx="25" ry="19.909" transform="matrix(.705 .709 -.709 .705 165.634 -162.105)"/><ellipse cx="419.348" cy="260.421" fill="#ff8e9e" rx="25" ry="19.909" transform="matrix(-.705 -.709 .709 -.705 530.221 741.44)"/><g fill="#313d40"><path d="m316.074 102.834c-2.929-2.929-7.678-2.929-10.607 0l-7.071 7.071c-2.929 2.929-2.929 7.678 0 10.607s7.678 2.929 10.607 0l7.071-7.071c2.929-2.929 2.929-7.678 0-10.607z"/><path d="m434.868 221.628c-2.929-2.929-7.678-2.929-10.607 0l-7.071 7.071c-2.929 2.929-2.929 7.678 0 10.607s7.678 2.929 10.607 0l7.071-7.071c2.929-2.929 2.929-7.678 0-10.607z"/><path d="m379.714 185.897c-1.378-3.907-5.663-5.954-9.569-4.575-3.642 1.285-7.796.315-10.585-2.474-2.788-2.788-3.759-6.943-2.474-10.585 1.379-3.906-.671-8.19-4.576-9.569-3.906-1.379-8.19.669-9.569 4.575-3.198 9.057-.838 19.335 6.011 26.185 6.849 6.849 17.127 9.209 26.185 6.011 3.908-1.378 5.956-5.662 4.577-9.568z"/></g><path d="m167.508 327.767c-5.858-5.858-15.355-5.858-21.213 0l-30.812 30.812c-4.855 4.855-10.735 5.531-16.267 3.237-6.612-2.739-9.261-8.308-9.241-13.634h-.007v94.149l27.082 10.081c23.299-2.644 45.005-13.127 62.071-30.193l30.813-30.813c5.858-5.858 5.858-15.355 0-21.213z" fill="#676f72"/><path d="m89.968 348.183h.007c.005-1.337.17-2.659.493-3.916 4.015-15.67-.44-32.354-11.627-43.542-8.519-8.519-19.797-13.21-31.758-13.21-20.393 0-38.291 13.683-43.525 33.272-2.361 8.832-3.558 17.996-3.558 27.238 0 21.361 6.22 41.787 17.987 59.069 11.474 16.851 27.652 29.946 46.786 37.872 13.004 5.386 26.645 8.117 40.543 8.117 3.946 0 7.861-.23 11.733-.67-17.34-17.34-27.082-40.858-27.082-65.38v-38.85z" fill="#4c5659"/></svg>