<svg id="Layer_1" enable-background="new 0 0 497 497" height="512" viewBox="0 0 497 497" width="512" xmlns="http://www.w3.org/2000/svg"><path d="m243.5 249.492c-3.978 0-7.794 1.58-10.607 4.393l-151.639 151.64 21.213 21.213 151.64-151.639c2.813-2.813 4.393-6.628 4.393-10.607 0-8.284-6.716-15-15-15z" fill="#d4d4d5"/><path d="m83.754 403.025c-2.929-2.929-7.678-2.929-10.607 0l-15.406 15.406c-2.428 2.428-5.367 2.765-8.133 1.619-3.306-1.37-4.63-4.154-4.62-6.817h-.003v47.075l13.541 5.041c11.65-1.322 22.503-6.564 31.036-15.097l15.406-15.406c2.929-2.929 2.929-7.678 0-10.607z" fill="#676f72"/><path d="m44.984 413.233h.003c.003-.668.085-1.329.246-1.958 2.007-7.835-.22-16.177-5.813-21.771-4.259-4.26-9.898-6.605-15.879-6.605-10.196 0-19.146 6.841-21.763 16.636-1.179 4.416-1.778 8.998-1.778 13.619 0 10.681 3.11 20.894 8.994 29.534 5.737 8.425 13.826 14.973 23.393 18.936 6.502 2.693 13.322 4.059 20.271 4.059 1.973 0 3.931-.115 5.867-.335-8.67-8.67-13.541-20.429-13.541-32.69z" fill="#4c5659"/><path d="m488.653 294.062c11.799-8.371 10.941-26.34-1.635-33.491-25.516-14.511-46.075-36.555-58.759-63.206-5.054-10.62-13.767-19.655-24.96-24.986l-168.172 100.114c69.033 69.033 176.49 76.222 253.526 21.569z" fill="#676f72"/><path d="m235.127 272.493 100.115-168.172c-4.975-10.446-13.629-19.555-24.986-24.96-26.651-12.684-48.696-33.242-63.206-58.759-7.152-12.576-25.12-13.434-33.491-1.635-54.654 77.037-47.465 184.494 21.568 253.526z" fill="#9ea2a3"/><path d="m417.899 182.711c-4.171-4.174-9.082-7.705-14.599-10.333-29.794-14.189-53.868-38.263-68.057-68.057-2.533-5.318-6.024-10.285-10.334-14.598-74.981 76.133-115.105 157.447-89.781 182.771 25.323 25.323 106.638-14.802 182.771-89.783z" fill="#82888b"/><g fill="#b9f0ff"><path d="m156.913 242.271-45.938 45.938c-2.929 2.929-7.677 2.929-10.607 0-2.929-2.929-2.929-7.678 0-10.607l45.938-45.938c4.081-4.081 4.08-10.721 0-14.801s-10.72-4.081-14.801 0c-2.929 2.929-7.677 2.929-10.607 0s-2.929-7.678 0-10.607c9.929-9.929 26.085-9.929 36.014 0 9.93 9.93 9.93 26.086.001 36.015z"/><path d="m292.938 387.685c-2.929 2.929-7.677 2.929-10.607 0-2.929-2.929-2.929-7.678 0-10.607 4.081-4.081 4.081-10.721 0-14.801-4.08-4.08-10.721-4.08-14.801 0l-26.541 26.541c-2.929 2.929-7.677 2.929-10.607 0-2.929-2.929-2.929-7.678 0-10.607l26.541-26.541c9.929-9.929 26.085-9.93 36.014 0 9.93 9.93 9.93 26.086.001 36.015zm-73.162 22.347-.305.305c-2.929 2.929-7.677 2.929-10.607 0-2.929-2.929-2.929-7.678 0-10.607l.305-.305c2.929-2.929 7.677-2.929 10.607 0 2.929 2.93 2.929 7.678 0 10.607z"/><path d="m88.345 310.838-30.992 30.992c-2.927 2.927-7.686 2.92-10.607 0-2.927-2.927-2.927-7.679 0-10.607l30.992-30.992c2.921-2.921 7.673-2.92 10.6.007 2.92 2.92 2.927 7.679.007 10.6zm-52.212 52.212c-2.92 2.92-7.679 2.913-10.6-.007-2.927-2.927-2.927-7.679-.007-10.6 2.928-2.928 7.686-2.934 10.614-.007 2.92 2.92 2.92 7.686-.007 10.614z"/><path d="m52.29 95.41c-2.011 0-3.891-.78-5.311-2.2-1.41-1.42-2.189-3.3-2.189-5.3 0-2.01.779-3.89 2.189-5.31 1.42-1.41 3.3-2.19 5.311-2.19 2 0 3.88.78 5.3 2.19 1.42 1.42 2.2 3.3 2.2 5.31 0 2-.78 3.88-2.2 5.3s-3.3 2.2-5.3 2.2zm21.21-21.22c-2 0-3.891-.78-5.3-2.19-2.931-2.93-2.931-7.69 0-10.61l28.779-28.79c1.42-1.41 3.3-2.19 5.311-2.19 2 0 3.88.78 5.3 2.19 1.42 1.42 2.2 3.3 2.2 5.31 0 2-.78 3.88-2.2 5.3l-28.79 28.79c-1.41 1.41-3.3 2.19-5.3 2.19z"/><path d="m89.83 182.71c-2 0-3.88-.78-5.301-2.19-2.92-2.93-2.92-7.69 0-10.61 1.421-1.42 3.301-2.2 5.301-2.2 2.01 0 3.89.78 5.31 2.2 2.92 2.92 2.92 7.68 0 10.61-1.42 1.41-3.3 2.19-5.31 2.19zm21.22-21.21c-2.01 0-3.89-.78-5.31-2.2-2.921-2.92-2.921-7.68 0-10.6l18.789-18.79c1.421-1.42 3.301-2.2 5.301-2.2 2.01 0 3.89.78 5.31 2.2 2.92 2.92 2.92 7.68 0 10.61l-18.79 18.78c-1.42 1.42-3.3 2.2-5.3 2.2z"/><path d="m33.74 196.38c-2 0-3.881-.78-5.301-2.2s-2.199-3.3-2.199-5.3c0-2.01.779-3.89 2.199-5.31 1.42-1.41 3.301-2.19 5.301-2.19s3.89.78 5.3 2.19c1.42 1.42 2.2 3.3 2.2 5.31 0 2-.78 3.88-2.2 5.3-1.41 1.42-3.3 2.2-5.3 2.2zm21.22-21.22c-2.01 0-3.891-.78-5.311-2.19-1.42-1.42-2.199-3.3-2.199-5.31 0-2 .779-3.88 2.199-5.3l88.551-88.54c1.409-1.42 3.3-2.2 5.3-2.2s3.89.78 5.3 2.2c1.42 1.41 2.2 3.3 2.2 5.3s-.78 3.89-2.2 5.3l-88.54 88.55c-1.42 1.41-3.3 2.19-5.3 2.19z"/><path d="m263.74 486.38c-2 0-3.881-.78-5.301-2.2-2.92-2.92-2.92-7.68 0-10.61 1.42-1.41 3.301-2.19 5.301-2.19s3.89.78 5.31 2.19c2.92 2.93 2.92 7.69 0 10.61-1.42 1.42-3.31 2.2-5.31 2.2zm21.21-21.22c-2 0-3.881-.78-5.301-2.19-1.42-1.42-2.199-3.3-2.199-5.3 0-2.01.779-3.89 2.199-5.31l88.551-88.54c1.409-1.42 3.3-2.2 5.3-2.2s3.89.78 5.3 2.2c1.42 1.41 2.2 3.3 2.2 5.3s-.78 3.89-2.2 5.3l-88.54 88.55c-1.42 1.41-3.3 2.19-5.31 2.19z"/><path d="m393.5 436.62c-2 0-3.891-.78-5.3-2.2-1.421-1.41-2.2-3.3-2.2-5.3s.779-3.89 2.2-5.3c1.409-1.42 3.3-2.2 5.3-2.2s3.89.78 5.3 2.2c1.42 1.41 2.2 3.3 2.2 5.3s-.78 3.89-2.2 5.3c-1.41 1.42-3.3 2.2-5.3 2.2zm21.21-21.21c-2 0-3.88-.78-5.3-2.2s-2.2-3.3-2.2-5.3c0-2.01.78-3.89 2.2-5.31l38.79-38.78c1.409-1.42 3.3-2.2 5.3-2.2s3.89.78 5.3 2.2c1.42 1.41 2.2 3.3 2.2 5.3s-.78 3.89-2.2 5.3l-38.78 38.79c-1.42 1.42-3.3 2.2-5.31 2.2z"/></g></svg>