<svg id="Layer_1" enable-background="new 0 0 497 497" height="512" viewBox="0 0 497 497" width="512" xmlns="http://www.w3.org/2000/svg"><path d="m364.21 30.378-20.146-20.146c-13.983-13.983-36.775-13.582-50.258.885l-175.95 188.803c-10.175 10.969-16.322 25.71-16.125 41.852.408 33.39 27.807 60.128 61.197 59.721h58.938l-126.92 156.192c-7.292 8.974-7.684 22.059-.209 30.882 8.443 9.965 23.126 11.206 33.086 3.146l141.402-114.426 65.886-323.145c2.82-13.83 14.985-23.764 29.099-23.764z" fill="#ffce71"/><path d="m352.168 181.743h-36.859c14.977-13.958 50.423-46.991 77.198-71.944 14.467-13.482 14.859-36.265.875-50.249l-29.172-29.172h-15.539c-15.849 0-31.049 6.296-42.256 17.503l-16.028 16.028c-26.111 26.111-40.78 61.526-40.78 98.453v143.669c0 25.298 6.887 49.884 19.619 71.257l117.62-95.181c12.426-10.162 20.638-25.708 20.849-43.015.379-31.045-24.481-56.97-55.527-57.349z" fill="#fce3a0"/><ellipse cx="179.471" cy="267.385" fill="#ff8e9e" rx="25.471" ry="20.283" transform="matrix(1 .003 -.003 1 .839 -.561)"/><ellipse cx="317.529" cy="267.817" fill="#ff8e9e" rx="25.471" ry="20.283" transform="matrix(-1 -.003 .003 -1 634.218 536.627)"/><g fill="#313d40"><path d="m184.5 228.042c-4.142 0-7.5 3.358-7.5 7.5v10c0 4.142 3.358 7.5 7.5 7.5s7.5-3.358 7.5-7.5v-10c0-4.142-3.358-7.5-7.5-7.5z"/><path d="m312.5 228.042c-4.142 0-7.5 3.358-7.5 7.5v10c0 4.142 3.358 7.5 7.5 7.5s7.5-3.358 7.5-7.5v-10c0-4.142-3.358-7.5-7.5-7.5z"/><path d="m268.235 241.776c-3.737-1.789-8.215-.206-10.001 3.531-1.666 3.484-5.291 5.735-9.234 5.735s-7.568-2.251-9.234-5.735c-1.787-3.737-6.266-5.317-10.001-3.531-3.737 1.787-5.318 6.265-3.531 10.001 4.144 8.666 13.08 14.265 22.766 14.265s18.623-5.599 22.766-14.265c1.787-3.736.206-8.214-3.531-10.001z"/><path d="m198.745 210.425-12.99-7.5c-3.587-2.072-8.174-.843-10.245 2.745-2.071 3.587-.842 8.174 2.745 10.245l12.99 7.5c1.181.682 2.471 1.006 3.743 1.006 2.592 0 5.113-1.345 6.502-3.751 2.071-3.587.842-8.174-2.745-10.245z"/><path d="m321.49 205.67c-2.071-3.588-6.658-4.817-10.245-2.745l-12.99 7.5c-3.587 2.071-4.816 6.658-2.745 10.245 1.389 2.406 3.91 3.751 6.502 3.751 1.272 0 2.562-.324 3.743-1.006l12.99-7.5c3.587-2.071 4.816-6.658 2.745-10.245z"/></g></svg>