<svg id="Layer_1" enable-background="new 0 0 497 497" height="512" viewBox="0 0 497 497" width="512" xmlns="http://www.w3.org/2000/svg"><path d="m239.951 344.451c-46.619-4.101-83.705-41.401-87.466-88.116-.208-2.585-.318-5.197-.318-7.835 0-.139.005-.277.005-.415-29.354-41.085-37.637-94.041-21.541-142.565 17.78-53.599 62.638-93.757 117.869-105.52-2.123 0-4.24.027-6.35.081-134.101 3.38-242.15 113.519-242.15 248.419 0 137.023 111.477 248.5 248.5 248.5 41.664 0 80.956-10.322 115.48-28.519 1.307-.689 2.605-1.39 3.898-2.102l-121.596-121.596c-2.126-.051-4.24-.148-6.331-.332z" fill="#ea5b70"/><path d="m497 248.5c0-137.023-111.477-248.5-248.5-248.5-55.231 11.763-100.089 51.921-117.869 105.52-16.096 48.524-7.813 101.48 21.541 142.565.224-53.012 43.264-95.918 96.328-95.918 53.203 0 96.333 43.13 96.333 96.333s-43.13 96.333-96.333 96.333c-.743 0-1.479-.033-2.218-.051l121.596 121.596c76.891-42.296 129.122-124.095 129.122-217.878z" fill="#ff8e9e"/><path d="m152.167 248.5c0-.139.005-.277.005-.415-29.354-41.085-37.637-94.041-21.541-142.565 6.862-20.686 17.771-39.356 31.738-55.178-76.408 33.339-129.956 109.607-129.956 198.158 0 119.151 96.936 216.087 216.087 216.087 34.212 0 66.586-8.005 95.366-22.22l-97.561-97.561c-52.189-1.168-94.138-43.837-94.138-96.306z" fill="#976bcf"/><path d="m464.587 248.5c0-119.151-96.936-216.087-216.087-216.087-30.6 0-59.727 6.407-86.13 17.928-13.968 15.822-24.876 34.493-31.738 55.178-16.096 48.524-7.813 101.48 21.541 142.565.224-53.012 43.264-95.918 96.328-95.918 53.203 0 96.333 43.13 96.333 96.333s-43.13 96.333-96.333 96.333c-.734 0-1.465-.011-2.195-.028l97.561 97.561c71.452-35.29 120.72-108.927 120.72-193.865z" fill="#b28ae4"/><path d="m152.167 248.5c0-.139.005-.277.005-.415-28.742-40.229-37.262-91.837-22.493-139.526-39.65 33.717-64.853 83.938-64.853 139.941 0 101.278 82.396 183.674 183.674 183.674 25.127 0 49.09-5.077 70.922-14.251l-73.117-73.117c-52.189-1.168-94.138-43.837-94.138-96.306z" fill="#2ed0fc"/><path d="m432.174 248.5c0-101.278-82.396-183.674-183.674-183.674-45.275 0-86.768 16.475-118.821 43.733-14.769 47.688-6.249 99.296 22.493 139.526.224-53.012 43.264-95.918 96.328-95.918 53.203 0 96.333 43.13 96.333 96.333s-43.13 96.333-96.333 96.333c-.734 0-1.465-.011-2.195-.028l73.117 73.117c66.167-27.801 112.752-93.271 112.752-169.422z" fill="#7ce3ff"/><path d="m248.5 152.167c53.203 0 96.333 43.13 96.333 96.333s-43.13 96.333-96.333 96.333c-.734 0-1.465-.011-2.195-.028l47.894 47.894c61.138-19.419 105.562-76.716 105.562-144.199 0-83.406-67.855-151.261-151.261-151.261-52.326 0-98.526 26.71-125.696 67.208 1.662 29.811 11.68 58.88 29.368 83.637.224-53.011 43.264-95.917 96.328-95.917z" fill="#5fd9b3"/><path d="m246.305 344.805c-52.189-1.167-94.138-43.836-94.138-96.305 0-.139.005-.277.005-.415-17.688-24.757-27.706-53.826-29.368-83.637-16.138 24.055-25.565 52.972-25.565 84.052 0 83.406 67.855 151.261 151.261 151.261 15.922 0 31.274-2.48 45.699-7.062z" fill="#00c084"/><path d="m235.453 333.954c-37.29-5.646-66.76-35.116-72.407-72.407l-.981-.981c-11.885-13.541-21.183-28.773-27.775-44.974-3.017 10.455-4.638 21.495-4.638 32.908 0 65.533 53.315 118.848 118.848 118.848 6.413 0 12.707-.518 18.847-1.5z" fill="#ffb357"/><path d="m163.046 261.547c-.644-4.255-.981-8.612-.981-13.047 0-47.737 38.698-86.435 86.435-86.435s86.435 38.698 86.435 86.435-38.698 86.435-86.435 86.435c-4.435 0-8.792-.337-13.047-.981l31.894 31.894c56.608-9.059 100.001-58.228 100.001-117.348 0-65.533-53.315-118.848-118.848-118.848-54.12 0-99.903 36.364-114.21 85.94 6.592 16.2 15.89 31.432 27.775 44.974z" fill="#ffce71"/><path d="m59.564 378.223c.004-65.838 53.398-118.771 118.758-118.771 42.548 0 79.849 22.386 100.822 56.01 16.36-11.634 36.354-18.462 57.891-18.462 43.536 0 80.567 27.825 94.298 66.659v.004c35.783.474 65.667 29.706 65.667 66.67 0 36.819-29.848 66.667-66.667 66.667-6.393 0-360.844 0-370.946 0-32.798 0-59.387-26.589-59.387-59.387 0-33.229 27.157-59.564 59.564-59.39z" fill="#efedee"/><path d="m178.322 259.451c-65.359 0-118.754 52.934-118.758 118.771-32.352-.172-59.471 26.072-59.564 59.22-.091 32.759 27.532 59.558 60.291 59.558h79.096c-32.785-32.785-32.746-85.951.087-118.687l.09-.09c.003-51.711 32.946-95.455 78.75-111.849-12.497-4.473-25.956-6.923-39.992-6.923z" fill="#d4d4d5"/><ellipse cx="179.471" cy="404.265" fill="#ff8e9e" rx="25.471" ry="20.283" transform="matrix(1 .003 -.003 1 1.268 -.56)"/><ellipse cx="317.529" cy="404.698" fill="#ff8e9e" rx="25.471" ry="20.283" transform="matrix(-1 -.003 .003 -1 633.79 810.388)"/><g fill="#313d40"><path d="m184.5 364.923c-4.142 0-7.5 3.358-7.5 7.5v10c0 4.142 3.358 7.5 7.5 7.5s7.5-3.358 7.5-7.5v-10c0-4.142-3.358-7.5-7.5-7.5z"/><path d="m312.5 364.923c-4.142 0-7.5 3.358-7.5 7.5v10c0 4.142 3.358 7.5 7.5 7.5s7.5-3.358 7.5-7.5v-10c0-4.142-3.358-7.5-7.5-7.5z"/><path d="m268.235 378.657c-3.737-1.789-8.215-.206-10.001 3.531-1.666 3.484-5.291 5.735-9.234 5.735s-7.568-2.251-9.234-5.735c-1.787-3.737-6.266-5.317-10.001-3.531-3.737 1.787-5.318 6.265-3.531 10.001 4.144 8.666 13.08 14.265 22.766 14.265s18.623-5.599 22.766-14.265c1.787-3.737.206-8.215-3.531-10.001z"/></g></svg>