<svg id="Layer_1" enable-background="new 0 0 497 497" height="512" viewBox="0 0 497 497" width="512" xmlns="http://www.w3.org/2000/svg"><path d="m175.365 5.917 20.865 18.871 27.505-5.91c11.5-2.471 23.002 4.17 26.612 15.365l8.635 26.775 26.775 8.635c11.195 3.61 17.835 15.112 15.365 26.612l-5.91 27.505 18.871 20.865c7.89 8.724 7.89 22.005 0 30.729l-18.871 20.865 5.91 27.505c2.471 11.5-4.17 23.002-15.365 26.612l-26.775 8.635-8.635 26.775c-3.61 11.195-15.112 17.835-26.612 15.365l-27.505-5.91-20.865 18.871c-8.724 7.89-22.005 7.89-30.729 0l-20.865-18.871-27.505 5.91c-11.5 2.471-23.002-4.17-26.612-15.365l-8.635-26.775-26.775-8.635c-11.195-3.61-17.835-15.112-15.365-26.612l5.91-27.505-18.872-20.864c-7.89-8.724-7.89-22.005 0-30.729l18.871-20.865-5.91-27.505c-2.471-11.5 4.17-23.002 15.365-26.612l26.775-8.635 8.635-26.775c3.61-11.195 15.112-17.835 26.612-15.365l27.505 5.91 20.865-18.871c8.724-7.89 22.006-7.89 30.73-.001z" fill="#ffb357"/><path d="m160 281.037c-66.74 0-121.037-54.297-121.037-121.037s54.297-121.037 121.037-121.037 121.037 54.297 121.037 121.037-54.297 121.037-121.037 121.037z" fill="#fce3a0"/><path d="m104.637 160c0-55.363 37.365-102.161 88.2-116.508-10.446-2.948-21.46-4.529-32.837-4.529-66.74 0-121.037 54.297-121.037 121.037s54.297 121.037 121.037 121.037c11.377 0 22.391-1.581 32.837-4.529-50.835-14.347-88.2-61.145-88.2-116.508z" fill="#ffce71"/><ellipse cx="99.093" cy="152.221" fill="#ff8e9e" rx="22.474" ry="17.897" transform="matrix(1 .003 -.003 1 .477 -.31)"/><ellipse cx="220.907" cy="152.603" fill="#ff8e9e" rx="22.474" ry="17.897" transform="matrix(-1 -.003 .003 -1 441.336 305.897)"/><g fill="#313d40"><path d="m106 115.037c-4.142 0-7.5 3.358-7.5 7.5v10c0 4.142 3.358 7.5 7.5 7.5s7.5-3.358 7.5-7.5v-10c0-4.142-3.358-7.5-7.5-7.5z"/><path d="m214 115.037c-4.142 0-7.5 3.358-7.5 7.5v10c0 4.142 3.358 7.5 7.5 7.5s7.5-3.358 7.5-7.5v-10c0-4.142-3.358-7.5-7.5-7.5z"/><path d="m179.735 133.771c-3.737-1.789-8.215-.206-10.001 3.531-1.666 3.484-5.291 5.735-9.234 5.735s-7.568-2.251-9.234-5.735c-1.787-3.737-6.266-5.317-10.001-3.531-3.737 1.787-5.318 6.265-3.531 10.001 4.144 8.666 13.08 14.265 22.766 14.265s18.623-5.599 22.766-14.265c1.787-3.737.206-8.215-3.531-10.001z"/></g><path d="m332.604 407.074c.053-.035.104-.073.158-.107-.076.048-.124.082-.158.107z" fill="#00ce8e"/><path d="m345.269 374.206c.033 0 .064.006.098.006-.008-.004-.032-.006-.098-.006z" fill="#00ce8e"/><path d="m264.192 326.043c-.114 1.677-.201 3.361-.263 5.051.384-1.628.494-3.334.263-5.051z" fill="#00ce8e"/><path d="m337 497c-88.224 0-160-71.776-160-160s71.776-160 160-160 160 71.776 160 160-71.776 160-160 160z" fill="#b9f0ff"/><path d="m263.815 337c0-73.185 49.393-135.048 116.592-154.013-13.808-3.898-28.368-5.987-43.407-5.987-88.224 0-160 71.776-160 160s71.776 160 160 160c15.039 0 29.599-2.089 43.408-5.987-67.2-18.965-116.593-80.828-116.593-154.013z" fill="#7ce3ff"/><path d="m331.679 467.733c-3.701 2.823-5.958 7.182-6.075 11.884-.154 6.166-.731 11.677.771 17.022 3.514.231 7.055.361 10.625.361 15.035 0 29.587-2.095 43.393-5.991z" fill="#00ce8e"/><path d="m254.551 357.72c-2.208-6.281.793-13.382 7.012-15.76.769-.294 1.543-.48 2.317-.613l116.5-158.352c-13.8-3.897-28.348-5.995-43.38-5.995-70.544 0-130.565 45.894-151.792 109.39h12.959c12.886 0 23.332 10.446 23.332 23.332v31.763c0 7.67 1.442 15.271 4.252 22.408l11.475 29.143c2.688 6.828 10.184 10.431 17.195 8.266 4.945-1.527 8.406-5.532 9.507-10.208.062-1.69.149-3.374.263-5.051-.125-.936-.346-1.873-.672-2.8z" fill="#00ce8e"/><path d="m380.38 182.995c-67.186 18.974-116.565 80.83-116.565 154.005 0 1.454.026 2.902.065 4.347 3.304-.57 6.582.248 9.162 2.098 2.463 1.766 4.291 4.447 4.886 7.709l5.779 31.699c3.14 17.219 13.348 32.337 28.146 41.684 16.792 10.605 33.666 9.759 33.513 9.675-.033 0-.064-.006-.098-.006.066 0 .091.003.098.006 4.893.066 8.237 4.998 6.454 9.576-6.448 16.554-20.105 23.96-19.216 23.286-.319.208-.625.43-.925.659 14.626 10.338 31.053 18.29 48.713 23.276 24.387-6.882 46.432-19.406 64.621-36.079 2.266-11.198-1.063-23.302-10-31.826-6.557-6.254-15.415-9.515-24.476-9.515h-73.537v-23.895c0-9.389-7.611-17-17-17l18.682-18.682c6.65-6.65 1.94-18.02-7.464-18.02 0-12.582 10.2-22.781 22.781-22.781h20.776c3.606 0 7.064 1.432 9.614 3.982l13.52 13.519c.221.221.448.433.681.636 7.215 6.301 18.547.774 18.547-8.805v-20.741c0-8.646 7.009-15.656 15.656-15.656.074-.007.148-.013.222-.02 11.646-1.091 20.456-11.049 20.456-22.746v-35.93c-19.631-20.86-44.781-36.462-73.091-44.455z" fill="#5fd9b3"/><ellipse cx="276.093" cy="282.222" fill="#ff8e9e" rx="22.474" ry="17.897" transform="matrix(1 .003 -.003 1 .886 -.864)"/><ellipse cx="397.907" cy="282.603" fill="#ff8e9e" rx="22.474" ry="17.897" transform="matrix(-1 -.003 .003 -1 794.928 566.451)"/><path d="m283 245.037c-4.142 0-7.5 3.358-7.5 7.5v10c0 4.142 3.358 7.5 7.5 7.5s7.5-3.358 7.5-7.5v-10c0-4.142-3.358-7.5-7.5-7.5z" fill="#313d40"/><path d="m391 245.037c-4.142 0-7.5 3.358-7.5 7.5v10c0 4.142 3.358 7.5 7.5 7.5s7.5-3.358 7.5-7.5v-10c0-4.142-3.358-7.5-7.5-7.5z" fill="#313d40"/><path d="m356.735 263.771c-3.737-1.789-8.215-.206-10.001 3.531-1.666 3.484-5.291 5.735-9.234 5.735s-7.568-2.251-9.234-5.735c-1.787-3.737-6.266-5.317-10.001-3.531-3.737 1.787-5.318 6.265-3.531 10.001 4.144 8.666 13.08 14.265 22.766 14.265s18.623-5.599 22.766-14.265c1.787-3.737.206-8.215-3.531-10.001z" fill="#313d40"/></svg>