<svg id="Layer_1" enable-background="new 0 0 497 497" height="512" viewBox="0 0 497 497" width="512" xmlns="http://www.w3.org/2000/svg"><path d="m120 437v-16.15-54.227c0-27.467 10.911-53.809 30.333-73.231-9.79-2.548-19.046-7.678-26.67-15.417l-.061-.062c-1.161-1.179-2.369-2.281-3.602-3.34-22.905-19.659-57.514-18.556-79.087 3.34l-.061.062c-11.242 11.41-26.028 17.168-40.852 17.293v61.197 64.384 16.151c0 33.137 26.863 60 60 60h120c-33.137 0-60-26.863-60-60z" fill="#55dafe"/><path d="m322.318 55.49c-13.612-4.374-23.152 13.32-12.066 22.35 3.263 2.658 6.42 5.424 9.481 8.28-8.875-4.055-18.024-7.612-27.415-10.63-13.612-4.374-23.152 13.32-12.066 22.35 3.263 2.658 6.42 5.424 9.481 8.28-8.874-4.055-18.023-7.612-27.415-10.63-13.612-4.374-23.152 13.32-12.066 22.35 49.407 40.244 76.114 103.925 68.172 168.938v6.233c-10.96-1.567-21.012-6.641-29.342-15.121-22.8-23.209-60.027-22.892-82.895.25-22.591 22.863-59.733 23.082-82.585-.229-1.161-1.179-2.369-2.281-3.602-3.34v222.428h317c33.137 0 60-26.863 60-60 0-6.092 0-137.404 0-141.744 0-112.163-73.34-207.198-174.682-239.765z" fill="#7ce3ff"/><path d="m495.001 357.912-.061.062c-22.734 23.075-59.956 23.075-82.689 0l-.061-.062c-22.734-23.075-59.956-23.075-82.689 0l-.061.062c-22.734 23.075-59.955 23.075-82.689 0l-.061-.062c-22.734-23.075-59.955-23.075-82.689 0l-.061.062c-12.023 12.203-28.098 17.948-43.939 17.244l-27 28.92 27 32.726c22.817-22.004 59.224-21.666 81.603 1.048l.061.062c22.734 23.075 59.955 23.075 82.689 0l.061-.062c22.734-23.075 59.956-23.075 82.689 0l.061.062c22.734 23.075 59.956 23.075 82.689 0l.061-.062c12.82-13.013 30.248-18.684 47.086-17.02v-64.908c-.678.625-1.346 1.265-2 1.928z" fill="#b9f0ff"/><path d="m81.25 357.974-.061-.062c-22.243-22.577-58.347-23.049-81.189-1.447v64.384c13.196 1.189 26.062 6.872 36.102 17.063l.061.062c22.734 23.075 59.956 23.075 82.689 0l.061-.062c.355-.361.725-.699 1.087-1.048v-61.646c-14.112-.628-28.039-6.372-38.75-17.244z" fill="#7ce3ff"/><path d="m379.76 228.284c-.667-3.309-1.891-6.529-3.596-9.553-4.254-7.548-11.192-12.982-19.514-15.294-8.333-2.328-17.079-1.267-24.62 2.985-1.419.8-2.762 1.694-4.024 2.675-1.274-.982-2.628-1.877-4.057-2.676-7.557-4.224-16.305-5.252-24.616-2.892-8.331 2.351-15.245 7.809-19.469 15.368-1.707 3.056-2.892 6.307-3.542 9.646-6.965.98-13.389 4.187-18.429 9.271-6.089 6.145-9.426 14.294-9.392 22.943.033 8.655 3.438 16.779 9.588 22.875 5.057 5.014 11.471 8.161 18.42 9.098 2.322 11.584 10.915 21.504 23.061 24.91 2.853.795 5.788 1.197 8.722 1.197 7.38 0 14.336-2.536 19.899-6.879 5.56 4.332 12.511 6.866 19.885 6.866 2.977 0 5.943-.414 8.78-1.218 12.138-3.409 20.721-13.344 23.016-24.968 15.757-2.183 27.928-15.737 27.928-32.08v-.434c-.149-16.298-12.335-29.725-28.04-31.84z" fill="#b9f0ff"/><g fill="#7ce3ff"><path d="m192.624 68.905c.129-.129.258-.257.385-.385l.017-.017c1.64-1.668 1.633-4.365-.017-6.024-10.206-10.262-28.236-24.479-42.643-24.479h-.001v.017c-15.524 0-27.323 12.368-27.323 27.482 0 4.227.948 8.229 2.642 11.805 4.391 9.273 13.793 15.679 24.682 15.679v.017c14.528 0 31.845-13.714 42.258-24.095z"/><path d="m224.658 43.486h.396.018c1.701-.015 3.084-1.405 3.089-3.107.029-10.526-1.932-27.11-9.341-34.519l-.001-.001-.009.009c-7.984-7.984-20.412-7.691-28.184.082-2.174 2.173-3.744 4.719-4.712 7.429-2.511 7.027-.969 15.156 4.63 20.756l-.009.009c7.472 7.472 23.429 9.326 34.123 9.342z"/><path d="m214.674 95.416c0-.091 0-.183 0-.273v-.012c-.01-1.174-.969-2.128-2.143-2.131-7.262-.02-18.702 1.333-23.814 6.444l.006.006c-5.508 5.508-5.306 14.082.056 19.444 1.499 1.5 3.256 2.583 5.125 3.251 4.847 1.732 10.456.669 14.319-3.194l.006.006c5.156-5.155 6.434-16.164 6.445-23.541z"/></g><path d="m328.959 170.871c3.589-2.074 4.815-6.659 2.745-10.246l-5-8.66c-2.071-3.588-6.658-4.816-10.246-2.745-3.587 2.072-4.815 6.658-2.745 10.246l5 8.66c2.072 3.586 6.659 4.815 10.246 2.745z" fill="#313d40"/><path d="m390.594 126.626-5-8.66c-2.072-3.587-6.659-4.817-10.246-2.746-3.587 2.072-4.816 6.658-2.746 10.245l5 8.661c2.072 3.587 6.658 4.816 10.246 2.746 3.593-2.077 4.813-6.663 2.746-10.246z" fill="#313d40"/><path d="m361.444 158.141c.001-.001.002-.001.003-.002 6.923-3.997 11.001-11.663 10.391-19.53-.32-4.13-3.928-7.218-8.057-6.897-4.131.317-7.218 3.928-6.897 8.057.163 2.109-1.016 4.271-2.937 5.38 0 0 0 0-.001 0-1.921 1.109-4.383 1.051-6.126-.145-3.417-2.343-8.085-1.472-10.427 1.943-2.343 3.416-1.474 8.085 1.942 10.428 6.506 4.463 15.185 4.763 22.109.766z" fill="#313d40"/></svg>