<svg id="Layer_1" enable-background="new 0 0 504.5 504.5" height="512" viewBox="0 0 504.5 504.5" width="512" xmlns="http://www.w3.org/2000/svg"><path d="m109.893 7.06c-11.063 3.615-20.968 9.822-28.988 17.91h-73.405c-4.142 0-7.5 3.358-7.5 7.5s3.358 7.5 7.5 7.5h40c4.142 0 7.5 3.358 7.5 7.5s-3.358 7.5-7.5 7.5h-25c-4.142 0-7.5 3.358-7.5 7.5s3.358 7.5 7.5 7.5h10c4.142 0 7.5 3.358 7.5 7.5s-3.358 7.5-7.5 7.5h-20c-4.142 0-7.5 3.358-7.5 7.5s3.358 7.5 7.5 7.5h13.158c-1.391 3.844-2.158 7.998-2.158 12.346 0 20.036 16.242 36.279 36.279 36.279h86.765z" fill="#d4d4d5"/><path d="m248.5 100.223c0-26.82-21.683-48.03-47.646-48.374v-.003c-9.963-28.177-36.831-48.366-68.42-48.366-7.862 0-15.439 1.259-22.541 3.58-11.256 15.621-17.892 34.793-17.892 55.517 0 38.009 22.308 70.803 54.543 86.017h53.584c26.715.001 48.372-21.656 48.372-48.371z" fill="#efedee"/><path d="m195.261 309.067-113.575 58.601v37.748l-59.04 59.04c-9.698 9.697-15.146 22.85-15.146 36.564h306.415z" fill="#676f72"/><path d="m475.212 404.066-16.426-16.427c-6.716-6.715-10.489-15.824-10.489-25.321s-3.773-18.606-10.489-25.321l-28.826-28.827h-211.982l-1.739.897c-7.953 15.859-12.16 33.471-12.16 51.729v6.871c0 4.833 2.285 9.132 5.834 11.875 5.621 4.345 9.166 10.836 9.166 17.94v7.933l-59.04 59.04c-9.698 9.697-15.146 22.85-15.146 36.564h380.585v-26.246c0-26.519-10.535-51.954-29.288-70.707z" fill="#82888b"/><path d="m238.423 137.403-10.573-10.573c-13.987-13.989-34.032-17.975-52.31-10.405-18.277 7.57-29.632 24.563-29.632 44.347v72.931l-45.372 45.373c-21.829 21.829-33.851 50.852-33.851 81.722v6.871c0 8.284 6.716 15 15 15h87.373c7.049 0 13.959-.889 20.613-2.594l72.652-106.372v-90.304c-2.977-17.338-11.207-33.305-23.9-45.996z" fill="#7ce3ff"/><path d="m264.456 343.153h96.284c22.23 0 43.13-8.657 58.85-24.377 2.813-2.813 4.394-6.628 4.394-10.606s-1.581-7.794-4.394-10.607l-11.353-11.351c-9.596-9.598-22.355-14.883-35.928-14.883h-14.816c-9.349 0-18.138-3.641-24.747-10.25-.439-.439-.691-1.046-.691-1.666 0-39.857-30.724-72.675-69.731-76.015v50.304l-45.372 45.373c-21.829 21.829-33.851 50.852-33.851 81.722v6.871c0 5.159 2.605 9.707 6.571 12.406 14.137-3.623 27.104-10.967 37.693-21.557 9.907-9.908 23.08-15.364 37.091-15.364z" fill="#b9f0ff"/><path d="m328.461 203.607c.002-31.71 21.742-58.216 51.019-65.642 5.342-1.355 10.934-2.076 16.691-2.076 29.483 0 54.56 18.843 63.859 45.142v.003c24.232.321 44.47 20.117 44.47 45.149 0 24.934-20.213 45.146-45.147 45.146h-96.066-34.927c-18.7 0-33.86-15.159-33.86-33.86 0-18.946 15.484-33.961 33.961-33.862z" fill="#efedee"/><path d="m419.26 39.143c-4.739-23.506-32.635-34.051-51.754-19.187-19.213-14.818-47.088-4.175-51.685 19.446-6.965.98-13.389 4.187-18.429 9.271-19.711 19.89-6.662 54.939 22.966 54.912l94.6-.084c18.888-.017 32.342-14.947 32.342-32.084v-.434c-.149-16.298-12.335-29.725-28.04-31.84z" fill="#efedee"/><ellipse cx="205.093" cy="446.241" fill="#ff8e9e" rx="22.474" ry="17.897" transform="matrix(1 .003 -.003 1 1.399 -.64)"/><ellipse cx="326.907" cy="446.623" fill="#ff8e9e" rx="22.474" ry="17.897" transform="matrix(-1 -.003 .003 -1 652.415 894.267)"/><g fill="#313d40"><path d="m212 409.057c-4.142 0-7.5 3.358-7.5 7.5v10c0 4.142 3.358 7.5 7.5 7.5s7.5-3.358 7.5-7.5v-10c0-4.142-3.358-7.5-7.5-7.5z"/><path d="m320 409.057c-4.142 0-7.5 3.358-7.5 7.5v10c0 4.142 3.358 7.5 7.5 7.5s7.5-3.358 7.5-7.5v-10c0-4.142-3.358-7.5-7.5-7.5z"/><path d="m285.735 427.791c-3.737-1.789-8.215-.206-10.001 3.531-1.666 3.484-5.291 5.735-9.234 5.735s-7.568-2.251-9.234-5.735c-1.787-3.737-6.266-5.317-10.001-3.531-3.737 1.787-5.318 6.265-3.531 10.001 4.144 8.666 13.08 14.265 22.766 14.265s18.623-5.599 22.766-14.265c1.787-3.737.206-8.215-3.531-10.001z"/></g></svg>