<svg id="Layer_1" enable-background="new 0 0 497 497" height="512" viewBox="0 0 497 497" width="512" xmlns="http://www.w3.org/2000/svg"><path d="m128.5 0c-33.137 0-60 26.863-60 60v377c0 33.137 26.863 60 60 60h160v-497z" fill="#4c5659"/><path d="m428.5 437v-377c0-33.137-26.863-60-60-60h-80c-66.274 0-120 53.726-120 120v257c0 66.274 53.726 120 120 120h80c33.137 0 60-26.863 60-60z" fill="#676f72"/><path d="m293.5 75c0 8.284-6.716 15-15 15h-60c-8.284 0-15-6.716-15-15 0-8.284-6.716-15-15-15h-30c-16.569 0-30 13.431-30 30v317c0 16.569 13.431 30 30 30h180c16.569 0 30-13.431 30-30v-317c0-16.569-13.431-30-30-30h-30c-8.284 0-15 6.716-15 15z" fill="#53a3ec"/><path d="m168.5 120c0-21.858 5.847-42.349 16.058-60h-26.058c-16.569 0-30 13.432-30 30v317c0 16.568 13.431 30 30 30h26.058c-10.211-17.651-16.058-38.142-16.058-60z" fill="#4293dd"/><path d="m272.297 316.848h-8.94c5.115-4.767 20.071-18.705 25.143-23.432l-24.375-24.375-48.661 52.215c-2.468 2.66-3.959 6.236-3.911 10.151.099 8.099 6.745 14.584 14.843 14.485h14.296l-30.903 38.03c-1.861 2.29-1.69 5.617.397 7.704 2.084 2.084 5.404 2.258 7.695.405l62.826-50.84c3.014-2.465 5.006-6.235 5.057-10.433.093-7.53-5.937-13.818-13.467-13.91z" fill="#ffce71"/><path d="m300.337 229.415c-4.759-23.376-32.778-33.863-51.981-19.081-19.297-14.736-47.294-4.152-51.912 19.338-6.995.974-13.448 4.164-18.51 9.219-19.798 19.78-6.691 54.635 23.067 54.608l95.015-.084c18.97-.017 32.484-14.864 32.484-31.906v-.431c-.15-16.207-12.389-29.56-28.163-31.663z" fill="#efedee"/><circle cx="248.5" cy="45" fill="#313d40" r="15"/><path d="m288.5 173.5h-80c-8.284 0-15-6.716-15-15s6.716-15 15-15h80c8.284 0 15 6.716 15 15s-6.716 15-15 15z" fill="#efedee"/><g fill="#313d40"><path d="m214.5 245.822c-4.143.001-7.499 3.358-7.5 7.501v10c0 4.142 3.358 7.499 7.5 7.5 4.145-.002 7.499-3.359 7.5-7.501v-10c0-4.142-3.358-7.5-7.5-7.5z"/><path d="m282.5 245.822c-4.143.001-7.5 3.358-7.5 7.5v10c0 4.143 3.358 7.5 7.5 7.501 4.149-.002 7.5-3.364 7.5-7.5v-10c0-4.142-3.357-7.501-7.5-7.501z"/><path d="m264.237 254.321c-3.736-1.791-8.215-.207-10.002 3.529-.913 1.908-3.016 3.19-5.234 3.19 0 0 0 0-.001 0-2.218 0-4.321-1.281-5.233-3.188-1.788-3.737-6.266-5.317-10.001-3.531-10.435 4.99.047 21.72 15.233 21.72h.004c7.994 0 15.359-4.6 18.764-11.718 1.787-3.736.207-8.214-3.53-10.002z"/></g></svg>