<svg id="Layer_1" enable-background="new 0 0 497 497" height="512" viewBox="0 0 497 497" width="512" xmlns="http://www.w3.org/2000/svg"><path d="m244.749 283.931v-223.931c0-33.137-26.863-60-60-60s-60 26.863-60 60v223.931c-32.965 20.243-55 56.63-55 98.069 0 63.411 51.589 115 115 115s115-51.589 115-115c0-41.439-22.034-77.826-55-98.069z" fill="#b9f0ff"/><path d="m214.749 60c0-16.542-13.458-30-30-30s-30 13.458-30 30v163.931h60z" fill="#7ce3ff"/><path d="m154.749 223.931h60v106.782h-60z" fill="#64b3fb"/><path d="m184.749 467c-46.869 0-85-38.131-85-85s38.131-85 85-85 85 38.131 85 85-38.13 85-85 85z" fill="#88c5fd"/><path d="m145.87 382c0-1.199.026-2.392.075-3.579 0-.026.003-.052.003-.078.707-16.611 6.21-31.997 15.148-44.82 12.418-16.822 31.501-28.518 53.633-31.048-2.271-.859-4.575-1.634-6.933-2.3-27.181-7.679-57.487-1.473-79.849 18.655l-.024.009-.008.019c-17.28 15.569-28.165 38.105-28.165 63.141 0 46.869 38.131 85 85 85 7.99 0 15.724-1.11 23.06-3.181-35.7-10.074-61.94-42.939-61.94-81.818z" fill="#64b3fb"/><g fill="#313d40"><path d="m140.749 360.5c-4.142 0-7.5 3.358-7.5 7.5v10c0 4.142 3.358 7.5 7.5 7.5s7.5-3.358 7.5-7.5v-10c0-4.142-3.357-7.5-7.5-7.5z"/><path d="m228.749 360.5c-4.142 0-7.5 3.358-7.5 7.5v10c0 4.142 3.358 7.5 7.5 7.5s7.5-3.358 7.5-7.5v-10c0-4.142-3.357-7.5-7.5-7.5z"/><path d="m204.485 379.234c-3.737-1.789-8.215-.206-10.001 3.531-1.666 3.484-5.291 5.735-9.234 5.735s-7.568-2.251-9.234-5.735c-1.787-3.737-6.266-5.317-10.001-3.531-3.737 1.787-5.318 6.265-3.531 10.001 4.144 8.666 13.08 14.265 22.766 14.265s18.623-5.599 22.766-14.265c1.787-3.736.206-8.214-3.531-10.001z"/><path d="m174.749 216.431h-20c-4.143 0-7.5 3.357-7.5 7.5s3.357 7.5 7.5 7.5h20c4.143 0 7.5-3.357 7.5-7.5s-3.357-7.5-7.5-7.5z"/><path d="m174.749 246.431h-20c-4.143 0-7.5 3.357-7.5 7.5s3.357 7.5 7.5 7.5h20c4.143 0 7.5-3.357 7.5-7.5s-3.357-7.5-7.5-7.5z"/><path d="m174.749 186.431h-20c-4.143 0-7.5 3.357-7.5 7.5s3.357 7.5 7.5 7.5h20c4.143 0 7.5-3.357 7.5-7.5s-3.357-7.5-7.5-7.5z"/><path d="m174.749 156.431h-20c-4.143 0-7.5 3.357-7.5 7.5s3.357 7.5 7.5 7.5h20c4.143 0 7.5-3.357 7.5-7.5s-3.357-7.5-7.5-7.5z"/><path d="m174.749 126.431h-20c-4.143 0-7.5 3.357-7.5 7.5s3.357 7.5 7.5 7.5h20c4.143 0 7.5-3.357 7.5-7.5s-3.357-7.5-7.5-7.5z"/><path d="m174.749 96.431h-20c-4.143 0-7.5 3.357-7.5 7.5s3.357 7.5 7.5 7.5h20c4.143 0 7.5-3.357 7.5-7.5s-3.357-7.5-7.5-7.5z"/><path d="m154.749 81.431h20c4.143 0 7.5-3.357 7.5-7.5s-3.357-7.5-7.5-7.5h-20c-4.143 0-7.5 3.357-7.5 7.5s3.357 7.5 7.5 7.5z"/></g><path d="m421.641 223.491-4.569-3.668 4.569-3.67c6.46-5.187 7.492-14.628 2.306-21.087-5.185-6.46-14.628-7.494-21.087-2.306l-17.666 14.184-17.944 8.142v-4.021l21.664-17.392c6.46-5.187 7.492-14.628 2.307-21.088-5.188-6.459-14.625-7.492-21.088-2.307l-2.883 2.314v-4.592c0-8.284-6.716-15-15-15s-15 6.716-15 15v4.592l-2.882-2.313c-6.46-5.185-15.901-4.152-21.088 2.307-5.186 6.46-4.153 15.901 2.307 21.088l21.663 17.392v4.021l-17.943-8.142-17.667-14.185c-6.461-5.186-15.901-4.152-21.087 2.307-5.187 6.46-4.154 15.901 2.306 21.087l4.57 3.67-4.57 3.668c-6.46 5.187-7.492 14.628-2.307 21.088 2.963 3.69 7.315 5.61 11.707 5.61 3.294 0 6.611-1.081 9.381-3.304l11.949-9.593 13.752 6.241-7.001 7.736h-20.41c-8.284 0-15 6.716-15 15s6.716 15 15 15h12.067v6.73c0 8.284 6.716 15 15 15s15-6.716 15-15v-15.951l10.253-11.33 10.254 11.331v15.95c0 8.284 6.716 15 15 15s15-6.716 15-15v-6.73h12.067c8.284 0 15-6.716 15-15s-6.716-15-15-15h-20.411l-7.001-7.736 13.752-6.24 11.948 9.592c2.77 2.223 6.086 3.304 9.381 3.304 4.392 0 8.744-1.92 11.707-5.61 5.186-6.461 4.154-15.902-2.306-21.089z" fill="#64b3fb"/></svg>