<svg id="Layer_1" enable-background="new 0 0 497 497" height="512" viewBox="0 0 497 497" width="512" xmlns="http://www.w3.org/2000/svg"><path d="m249.467 283.931v-223.931c0-33.137-26.863-60-60-60s-60 26.863-60 60v223.931c-32.965 20.243-55 56.63-55 98.069 0 63.411 51.589 115 115 115s115-51.589 115-115c0-41.439-22.035-77.826-55-98.069z" fill="#b9f0ff"/><path d="m219.467 60c0-16.542-13.458-30-30-30s-30 13.458-30 30v43.931h60z" fill="#7ce3ff"/><path d="m159.467 103.931h60v226.782h-60z" fill="#ea5b70"/><path d="m189.467 467c-46.869 0-85-38.131-85-85s38.131-85 85-85 85 38.131 85 85-38.131 85-85 85z" fill="#ff8e9e"/><path d="m150.588 382c0-1.199.026-2.392.075-3.579 0-.026.003-.052.003-.078.707-16.611 6.21-31.997 15.148-44.82 12.418-16.822 31.501-28.518 53.633-31.048-2.271-.859-4.575-1.634-6.933-2.3-27.181-7.679-57.487-1.473-79.849 18.655l-.024.009-.008.019c-17.28 15.569-28.165 38.105-28.165 63.141 0 46.869 38.131 85 85 85 7.99 0 15.724-1.11 23.06-3.181-35.701-10.074-61.94-42.939-61.94-81.818z" fill="#ea5b70"/><g fill="#313d40"><path d="m145.467 360.5c-4.142 0-7.5 3.358-7.5 7.5v10c0 4.142 3.358 7.5 7.5 7.5s7.5-3.358 7.5-7.5v-10c0-4.142-3.358-7.5-7.5-7.5z"/><path d="m233.467 360.5c-4.142 0-7.5 3.358-7.5 7.5v10c0 4.142 3.358 7.5 7.5 7.5s7.5-3.358 7.5-7.5v-10c0-4.142-3.358-7.5-7.5-7.5z"/><path d="m209.202 379.234c-3.737-1.789-8.215-.206-10.001 3.531-1.666 3.484-5.291 5.735-9.234 5.735s-7.568-2.251-9.234-5.735c-1.787-3.737-6.266-5.317-10.001-3.531-3.737 1.787-5.318 6.265-3.531 10.001 4.144 8.666 13.08 14.265 22.766 14.265s18.623-5.599 22.766-14.265c1.787-3.736.206-8.214-3.531-10.001z"/><path d="m179.467 216.431h-20c-4.143 0-7.5 3.357-7.5 7.5s3.357 7.5 7.5 7.5h20c4.143 0 7.5-3.357 7.5-7.5s-3.358-7.5-7.5-7.5z"/><path d="m179.467 246.431h-20c-4.143 0-7.5 3.357-7.5 7.5s3.357 7.5 7.5 7.5h20c4.143 0 7.5-3.357 7.5-7.5s-3.358-7.5-7.5-7.5z"/><path d="m179.467 186.431h-20c-4.143 0-7.5 3.357-7.5 7.5s3.357 7.5 7.5 7.5h20c4.143 0 7.5-3.357 7.5-7.5s-3.358-7.5-7.5-7.5z"/><path d="m179.467 156.431h-20c-4.143 0-7.5 3.357-7.5 7.5s3.357 7.5 7.5 7.5h20c4.143 0 7.5-3.357 7.5-7.5s-3.358-7.5-7.5-7.5z"/><path d="m179.467 126.431h-20c-4.143 0-7.5 3.357-7.5 7.5s3.357 7.5 7.5 7.5h20c4.143 0 7.5-3.357 7.5-7.5s-3.358-7.5-7.5-7.5z"/><path d="m179.467 96.431h-20c-4.143 0-7.5 3.357-7.5 7.5s3.357 7.5 7.5 7.5h20c4.143 0 7.5-3.357 7.5-7.5s-3.358-7.5-7.5-7.5z"/><path d="m159.467 81.431h20c4.143 0 7.5-3.357 7.5-7.5s-3.357-7.5-7.5-7.5h-20c-4.143 0-7.5 3.357-7.5 7.5s3.357 7.5 7.5 7.5z"/></g><path d="m422.533 227.725c0-15.891-14.998-34.83-26.352-46.219-.141-.141-.281-.282-.421-.421l-.019-.019c-1.811-1.811-4.741-1.817-6.558-.011-1.604 1.594-3.299 3.37-5.023 5.278-7.113-11.741-16.615-22.757-24.732-30.898-.189-.19-.378-.379-.566-.566l-.025-.025c-2.406-2.432-6.334-2.469-8.761-.058-11.401 11.323-26.159 29.258-32.678 46.497-.993-1.073-1.973-2.093-2.919-3.042-.11-.111-.219-.221-.328-.329l-.014-.014c-1.423-1.399-3.724-1.393-5.14.014l-9.969 17.37c-12.147 21.166-10.062 48.747 8.263 67.478 12.641 12.921 29.947 20.215 48.023 20.239 37.69-.051 67.979-31.065 67.204-68.695l-.004-6.58h.019z" fill="#ffb357"/><path d="m358.721 203.417c-.129-.129-.257-.258-.385-.385l-.017-.017c-1.668-1.64-4.365-1.633-6.024.017-10.262 10.206-24.48 28.236-24.48 42.643v.001h.017c0 15.524 12.368 27.323 27.482 27.323 4.227 0 8.229-.948 11.805-2.642 9.273-4.391 15.679-13.793 15.679-24.682h.017c0-14.528-13.713-31.845-24.094-42.258z" fill="#fce3a0"/></svg>