<svg id="Layer_1" enable-background="new 0 0 497 497" height="512" viewBox="0 0 497 497" width="512" xmlns="http://www.w3.org/2000/svg"><path d="m175 283.931v-223.931c0-33.137-26.863-60-60-60s-60 26.863-60 60v223.931c-32.965 20.243-55 56.63-55 98.069 0 63.411 51.589 115 115 115s115-51.589 115-115c0-41.439-22.035-77.826-55-98.069z" fill="#b9f0ff"/><path d="m145 60c0-16.542-13.458-30-30-30s-30 13.458-30 30v163.931h60z" fill="#7ce3ff"/><path d="m85 223.931h60v106.782h-60z" fill="#64b3fb"/><path d="m115 467c-46.869 0-85-38.131-85-85s38.131-85 85-85 85 38.131 85 85-38.131 85-85 85z" fill="#88c5fd"/><path d="m76.121 382c0-1.199.026-2.392.075-3.579 0-.026.003-.052.003-.078.707-16.611 6.21-31.997 15.148-44.82 12.418-16.822 31.501-28.518 53.633-31.048-2.271-.859-4.575-1.634-6.933-2.3-27.181-7.679-57.487-1.473-79.849 18.655l-.024.009-.008.019c-17.281 15.571-28.166 38.107-28.166 63.142 0 46.869 38.131 85 85 85 7.99 0 15.724-1.11 23.06-3.181-35.7-10.075-61.939-42.94-61.939-81.819z" fill="#64b3fb"/><g fill="#313d40"><path d="m71 360.5c-4.142 0-7.5 3.358-7.5 7.5v10c0 4.142 3.358 7.5 7.5 7.5s7.5-3.358 7.5-7.5v-10c0-4.142-3.358-7.5-7.5-7.5z"/><path d="m159 360.5c-4.142 0-7.5 3.358-7.5 7.5v10c0 4.142 3.358 7.5 7.5 7.5s7.5-3.358 7.5-7.5v-10c0-4.142-3.358-7.5-7.5-7.5z"/><path d="m134.735 379.234c-3.737-1.789-8.215-.206-10.001 3.531-1.666 3.484-5.291 5.735-9.234 5.735s-7.568-2.251-9.234-5.735c-1.787-3.737-6.266-5.317-10.001-3.531-3.737 1.787-5.318 6.265-3.531 10.001 4.144 8.666 13.08 14.265 22.766 14.265s18.623-5.599 22.766-14.265c1.787-3.736.206-8.214-3.531-10.001z"/><path d="m105 216.431h-20c-4.143 0-7.5 3.357-7.5 7.5s3.357 7.5 7.5 7.5h20c4.143 0 7.5-3.357 7.5-7.5s-3.358-7.5-7.5-7.5z"/><path d="m105 246.431h-20c-4.143 0-7.5 3.357-7.5 7.5s3.357 7.5 7.5 7.5h20c4.143 0 7.5-3.357 7.5-7.5s-3.358-7.5-7.5-7.5z"/><path d="m105 186.431h-20c-4.143 0-7.5 3.357-7.5 7.5s3.357 7.5 7.5 7.5h20c4.143 0 7.5-3.357 7.5-7.5s-3.358-7.5-7.5-7.5z"/><path d="m105 156.431h-20c-4.143 0-7.5 3.357-7.5 7.5s3.357 7.5 7.5 7.5h20c4.143 0 7.5-3.357 7.5-7.5s-3.358-7.5-7.5-7.5z"/><path d="m105 126.431h-20c-4.143 0-7.5 3.357-7.5 7.5s3.357 7.5 7.5 7.5h20c4.143 0 7.5-3.357 7.5-7.5s-3.358-7.5-7.5-7.5z"/><path d="m105 96.431h-20c-4.143 0-7.5 3.357-7.5 7.5s3.357 7.5 7.5 7.5h20c4.143 0 7.5-3.357 7.5-7.5s-3.358-7.5-7.5-7.5z"/><path d="m85 81.431h20c4.143 0 7.5-3.357 7.5-7.5s-3.357-7.5-7.5-7.5h-20c-4.143 0-7.5 3.357-7.5 7.5s3.357 7.5 7.5 7.5z"/></g><path d="m442 283.931v-223.931c0-33.137-26.863-60-60-60s-60 26.863-60 60v223.931c-32.965 20.243-55 56.63-55 98.069 0 63.411 51.589 115 115 115s115-51.589 115-115c0-41.439-22.035-77.826-55-98.069z" fill="#b9f0ff"/><path d="m412 60c0-16.542-13.458-30-30-30s-30 13.458-30 30v43.931h60z" fill="#7ce3ff"/><path d="m352 103.931h60v226.782h-60z" fill="#ea5b70"/><path d="m382 467c-46.869 0-85-38.131-85-85s38.131-85 85-85 85 38.131 85 85-38.131 85-85 85z" fill="#ff8e9e"/><path d="m343.121 382c0-1.199.026-2.392.075-3.579 0-.026.003-.052.003-.078.707-16.611 6.21-31.997 15.148-44.82 12.418-16.822 31.501-28.518 53.633-31.048-2.271-.859-4.575-1.634-6.933-2.3-27.181-7.679-57.487-1.473-79.849 18.655l-.024.009-.008.019c-17.281 15.571-28.166 38.107-28.166 63.142 0 46.869 38.131 85 85 85 7.99 0 15.724-1.11 23.06-3.181-35.7-10.075-61.939-42.94-61.939-81.819z" fill="#ea5b70"/><path d="m338 360.5c-4.142 0-7.5 3.358-7.5 7.5v10c0 4.142 3.358 7.5 7.5 7.5s7.5-3.358 7.5-7.5v-10c0-4.142-3.358-7.5-7.5-7.5z" fill="#313d40"/><path d="m426 360.5c-4.142 0-7.5 3.358-7.5 7.5v10c0 4.142 3.358 7.5 7.5 7.5s7.5-3.358 7.5-7.5v-10c0-4.142-3.358-7.5-7.5-7.5z" fill="#313d40"/><path d="m401.735 379.234c-3.737-1.789-8.215-.206-10.001 3.531-1.666 3.484-5.291 5.735-9.234 5.735s-7.568-2.251-9.234-5.735c-1.787-3.737-6.266-5.317-10.001-3.531-3.737 1.787-5.318 6.265-3.531 10.001 4.144 8.666 13.08 14.265 22.766 14.265s18.623-5.599 22.766-14.265c1.787-3.736.206-8.214-3.531-10.001z" fill="#313d40"/><path d="m372 216.431h-20c-4.143 0-7.5 3.357-7.5 7.5s3.357 7.5 7.5 7.5h20c4.143 0 7.5-3.357 7.5-7.5s-3.358-7.5-7.5-7.5z" fill="#313d40"/><path d="m372 246.431h-20c-4.143 0-7.5 3.357-7.5 7.5s3.357 7.5 7.5 7.5h20c4.143 0 7.5-3.357 7.5-7.5s-3.358-7.5-7.5-7.5z" fill="#313d40"/><path d="m372 186.431h-20c-4.143 0-7.5 3.357-7.5 7.5s3.357 7.5 7.5 7.5h20c4.143 0 7.5-3.357 7.5-7.5s-3.358-7.5-7.5-7.5z" fill="#313d40"/><path d="m372 156.431h-20c-4.143 0-7.5 3.357-7.5 7.5s3.357 7.5 7.5 7.5h20c4.143 0 7.5-3.357 7.5-7.5s-3.358-7.5-7.5-7.5z" fill="#313d40"/><path d="m372 126.431h-20c-4.143 0-7.5 3.357-7.5 7.5s3.357 7.5 7.5 7.5h20c4.143 0 7.5-3.357 7.5-7.5s-3.358-7.5-7.5-7.5z" fill="#313d40"/><path d="m372 96.431h-20c-4.143 0-7.5 3.357-7.5 7.5s3.357 7.5 7.5 7.5h20c4.143 0 7.5-3.357 7.5-7.5s-3.358-7.5-7.5-7.5z" fill="#313d40"/><path d="m352 81.431h20c4.143 0 7.5-3.357 7.5-7.5s-3.357-7.5-7.5-7.5h-20c-4.143 0-7.5 3.357-7.5 7.5s3.357 7.5 7.5 7.5z" fill="#313d40"/><path d="m238.012 215.293c2.931 2.932 7.687 2.933 10.618-.001 2.932-2.933 2.932-7.686 0-10.617-11.709-11.71-30.764-11.711-42.473.001-11.711 11.711-11.711 30.765 0 42.474 5.854 5.854 13.546 8.781 21.235 8.781 7.691 0 15.383-2.927 21.237-8.782 2.932-2.932 2.932-7.686 0-10.618-2.931-2.933-7.687-2.933-10.618-.001-5.854 5.856-15.381 5.854-21.235.001-5.854-5.856-5.854-15.382 0-21.237 5.854-5.856 15.381-5.856 21.236-.001z" fill="#64b3fb"/><circle cx="254.164" cy="189.931" fill="#64b3fb" r="7.5"/><path d="m254.172 136.464c4.146 0 7.509-3.36 7.509-7.509v-15.017h9.51c4.147 0 7.508-3.36 7.508-7.508s-3.36-7.508-7.508-7.508h-9.51v-7.509h15.517c4.146 0 7.508-3.36 7.508-7.509 0-4.146-3.361-7.508-7.508-7.508h-23.025c-4.146 0-7.508 3.361-7.508 7.508v45.05c-.001 4.15 3.36 7.51 7.507 7.51z" fill="#ea5b70"/><circle cx="294.164" cy="68.931" fill="#ea5b70" r="7.5"/></svg>