<svg id="Layer_1" enable-background="new 0 0 497 497" height="512" viewBox="0 0 497 497" width="512" xmlns="http://www.w3.org/2000/svg"><path d="m248.499 357.24c-77.062 0-139.757 62.696-139.757 139.76h279.517c0-77.064-62.696-139.76-139.76-139.76z" fill="#db9e82"/><path d="m276.266 360.015c-8.977-1.817-18.262-2.775-27.767-2.775-77.062 0-139.757 62.696-139.757 139.76h55.533c0-67.559 48.184-124.072 111.991-136.985z" fill="#c8866a"/><path d="m295.463 365.362v.005c0 43.946-21.026 79.571-46.964 79.571-25.937 0-46.964-35.625-46.964-79.57-13.494 4.831-26.037 11.676-37.261 20.178v111.454h82.814 1.404 82.814v-112.513c-10.859-8.014-22.914-14.496-35.843-19.125z" fill="#efedee"/><path d="m164.278 385.544c-.001.001-.002.001-.003.002v111.454c0-38.72 15.832-73.807 41.357-99.141-2.623-9.919-4.094-20.902-4.096-32.474-13.113 4.69-25.695 11.4-37.258 20.159z" fill="#d4d4d5"/><circle cx="80.975" cy="204.527" fill="#c8866a" r="41.65"/><circle cx="416.025" cy="204.527" fill="#c8866a" r="41.65"/><path d="m295.463 365.367c69.66-20.306 120.562-84.625 120.562-160.841 0-92.522-75.004-167.526-167.526-167.526-92.519 0-167.524 75.004-167.524 167.527 0 76.215 50.902 140.535 120.561 160.841 14.902 4.344 30.659 6.683 46.963 6.683 16.305-.001 32.062-2.34 46.964-6.684z" fill="#db9e82"/><path d="m136.508 204.527c0-83.062 60.454-151.992 139.758-165.223-9.033-1.507-18.307-2.304-27.767-2.304-92.519 0-167.524 75.004-167.524 167.527 0 92.52 75.005 167.524 167.524 167.524 9.461 0 18.734-.797 27.767-2.304-79.304-13.231-139.758-82.161-139.758-165.22z" fill="#c8866a"/><ellipse cx="163.543" cy="257.409" fill="#ff8e9e" rx="25" ry="19.909" transform="matrix(1 .003 -.003 1 .807 -.511)"/><ellipse cx="333.457" cy="257.905" fill="#ff8e9e" rx="25" ry="19.909" transform="matrix(-1 -.003 .003 -1 666.105 516.853)"/><g fill="#313d40"><path d="m267.735 247.233c-3.737-1.787-8.215-.206-10.001 3.531-1.666 3.484-5.291 5.735-9.234 5.735s-7.568-2.251-9.234-5.735c-1.787-3.737-6.264-5.318-10.001-3.531s-5.318 6.265-3.531 10.002c4.143 8.665 13.08 14.265 22.766 14.265s18.623-5.6 22.766-14.265c1.787-3.737.206-8.214-3.531-10.002z"/><path d="m184 218.5c-9.649 0-17.5 7.851-17.5 17.5 0 4.143 3.358 7.5 7.5 7.5s7.5-3.357 7.5-7.5c0-1.379 1.122-2.5 2.5-2.5s2.5 1.121 2.5 2.5c0 4.143 3.358 7.5 7.5 7.5s7.5-3.357 7.5-7.5c0-9.649-7.851-17.5-17.5-17.5z"/><path d="m312 218.5c-9.649 0-17.5 7.851-17.5 17.5 0 4.143 3.358 7.5 7.5 7.5s7.5-3.357 7.5-7.5c0-1.379 1.122-2.5 2.5-2.5s2.5 1.121 2.5 2.5c0 4.143 3.358 7.5 7.5 7.5s7.5-3.357 7.5-7.5c0-9.649-7.851-17.5-17.5-17.5z"/></g><path d="m293.646 6.514-147.916 65.713-4.128 91.16c16.855-3.213 32.911-9.444 47.403-18.288 18.264 18.269 40.66 32.447 65.805 41.045 52.693 18.02 110.854 9.345 155.994-23.267.001-74.081-49.461-136.602-117.158-156.363z" fill="#676f72"/><path d="m247.928 0h-29.971c-39.89 0-72.227 32.337-72.227 72.227-32.924 0-59.614 26.69-59.614 59.614v31.036c18.793 3.927 37.59 3.92 55.486.51 10.768-42.641 39.436-76.445 74.294-101.341 77.75-55.531 77.75-55.531 77.75-55.531-14.506-4.235-29.845-6.515-45.718-6.515z" fill="#4c5659"/><path d="m375.771 101.409c-.187-.188-.374-.375-.56-.56l-.025-.025c-2.427-2.385-6.349-2.375-8.762.025-14.886 14.804-35.607 41.046-35.607 62.028h.024c0 22.581 17.991 39.743 39.975 39.743 22.064 0 39.989-17.778 39.989-39.744 0-21.133-19.934-46.321-35.034-61.467z" fill="#7ce3ff"/></svg>