<svg id="Layer_1" enable-background="new 0 0 497 497" height="512" viewBox="0 0 497 497" width="512" xmlns="http://www.w3.org/2000/svg"><path d="m73.089 178.216c-52.636 86.21-34.823 197.89 42.02 263.449 38.422 32.779 85.906 49.169 133.39 49.169v-312.616z" fill="#ff6f4d"/><path d="m423.912 178.219-175.413-.001v312.616c47.483 0 94.967-16.389 133.389-49.167 76.844-65.557 94.659-177.237 42.024-263.448z" fill="#ff8f71"/><path d="m248.499 387c-52.383 0-94.999 42.99-94.999 95.833v14.167h190v-14.167c0-52.843-42.617-95.833-95.001-95.833z" fill="#82888b"/><path d="m248.499 387c-35.176 0-65.948 19.387-82.368 48.125-8.032 14.057-12.631 30.351-12.631 47.708v14.167h37.748v-14.167c0-10.839 1.794-21.264 5.097-30.988l.019.01c10.812-31.833 37.781-56.166 71.002-62.951-6.1-1.245-12.408-1.904-18.867-1.904z" fill="#676f72"/><circle cx="419.5" cy="223.002" fill="#ffbd86" r="45"/><circle cx="77.5" cy="223.002" fill="#ffbd86" r="45"/><path d="m299.24 396.779c75.264-21.939 130.26-91.432 130.26-173.778 0-99.964-81.037-181.001-181.002-181.001-99.96 0-180.998 81.037-180.998 181.002 0 82.346 54.996 151.838 130.258 173.778 16.101 4.694 33.125 7.221 50.741 7.221 17.616-.001 34.64-2.528 50.741-7.222z" fill="#fed2a4"/><path d="m127.5 223.002c0-89.743 65.317-164.217 150.999-178.512-9.759-1.629-19.779-2.49-30.001-2.49-99.96 0-180.998 81.037-180.998 181.002 0 99.961 81.038 180.998 180.998 180.998 10.222 0 20.241-.861 30.001-2.489-85.682-14.295-150.999-88.769-150.999-178.509z" fill="#ffbd86"/><path d="m241.374 450.18c-5.858 5.858-5.858 15.355 0 21.213l21.213 21.213c5.858 5.858 15.355 5.858 21.213 0l24.699-24.699v-42.427h-42.426z" fill="#d6948c"/><path d="m375.626 450.18-45.913-45.913h-42.426l-21.213 21.213 67.126 67.126c5.858 5.858 15.355 5.858 21.213 0l21.213-21.213c5.857-5.857 5.858-15.355 0-21.213z" fill="#e8b5b1"/><path d="m174.047 375.861c-12-3.227-24.344 3.885-27.571 15.885l-3.896 14.485c-3.227 12 3.885 24.344 15.885 27.571-.744-.2 16.722 5.536 41.815 8.49l26.702-58.312c-25.28-.201-42.566-5.331-52.935-8.119z" fill="#e8b5b1"/><path d="m354.417 406.231-3.896-14.485c-3.227-12-15.571-19.112-27.571-15.885 1-.269-24.315 8.139-54.452 8.139h-40c-.516 0-1.007-.015-1.517-.019-18.658 12.421-28.972 35.967-26.702 58.312 8.646 1.018 18.192 1.708 28.219 1.708h40c29.58 0 49.807-4.758 70.034-10.198 12.001-3.228 19.113-15.572 15.885-27.572z" fill="#f2d4d3"/><path d="m248.498 42c-84.503 0-155.478 57.914-175.409 136.216 17.317 11.323 36.083 19.591 55.53 24.754l150.427-158.4c-9.93-1.689-20.136-2.57-30.548-2.57z" fill="#ff6f4d"/><path d="m423.912 178.219c-17.395-68.343-73.804-121.494-144.866-133.649-79.003 13.387-141.439 77.949-150.427 158.4 61.891 16.431 129.374.959 178.218-43.856 34.052 22.691 76.675 30.041 117.075 19.105z" fill="#ff8f71"/><ellipse cx="170.543" cy="281.409" fill="#ff8e9e" rx="25" ry="19.909" transform="matrix(1 .003 -.003 1 .883 -.533)"/><ellipse cx="326.457" cy="281.905" fill="#ff8e9e" rx="25" ry="19.909" transform="matrix(-1 -.003 .003 -1 652.03 564.831)"/><g fill="#313d40"><path d="m184.5 243.5c-4.142 0-7.5 3.358-7.5 7.5v10c0 4.142 3.358 7.5 7.5 7.5s7.5-3.358 7.5-7.5v-10c0-4.142-3.358-7.5-7.5-7.5z"/><path d="m312.5 243.5c-4.142 0-7.5 3.358-7.5 7.5v10c0 4.142 3.358 7.5 7.5 7.5s7.5-3.358 7.5-7.5v-10c0-4.142-3.358-7.5-7.5-7.5z"/><path d="m268.235 272.234c-3.737-1.788-8.215-.206-10.001 3.531-1.666 3.484-5.291 5.735-9.234 5.735s-7.568-2.251-9.234-5.735c-1.787-3.737-6.266-5.318-10.001-3.531-3.737 1.787-5.318 6.265-3.531 10.001 4.144 8.666 13.08 14.265 22.766 14.265s18.623-5.599 22.766-14.265c1.787-3.736.206-8.215-3.531-10.001z"/></g><path d="m101.575 98.5h124.932l21.156-98.492c-60.156.357-113.376 39.109-146.088 98.492z" fill="#ce857a"/><path d="m248.498 0c-.279 0-.557.007-.835.008-13.641 16.183-21.156 37.593-21.156 58.756v39.736h168.918c-32.864-59.658-86.425-98.5-146.927-98.5z" fill="#d6948c"/><path d="m91.501 95.736c-30.655 15.634-39.52 55.303-18.413 82.48 23.865-18.531 49.935-32.768 77.186-42.73l76.232-76.722c-46.462 2.955-92.457 15.273-135.005 36.972z" fill="#e8b5b1"/><path d="m405.497 95.735c-55.96-28.538-117.881-40.856-178.99-36.97-37.18 8.941-66.668 39.391-76.232 76.722 90.604-33.119 194.291-18.88 273.637 42.733 21.107-27.18 12.241-66.851-18.415-82.485z" fill="#f2d4d3"/></svg>