<svg id="Layer_1" enable-background="new 0 0 497 497" height="512" viewBox="0 0 497 497" width="512" xmlns="http://www.w3.org/2000/svg"><path d="m248.499 369.632c-60.654 0-109.999 49.779-109.999 110.965v16.403h53.65l83.174-124.025c-8.589-2.18-17.574-3.343-26.825-3.343z" fill="#9ea2a3"/><path d="m275.324 372.975c-47.73 12.112-83.174 55.767-83.174 107.621v16.404h166.35v-16.404c0-51.854-35.444-95.509-83.176-107.621z" fill="#b9bbbc"/><path d="m362.71 458.327c8.319-2.652 12.558-11.796 9.353-19.918-19.433-49.246-67.495-84.18-123.564-84.18-56.067 0-104.128 34.935-123.561 84.18-3.205 8.122 1.034 17.266 9.353 19.918l66.803 21.299c15.42 4.917 31.413 7.375 47.407 7.375 15.993 0 31.987-2.458 47.407-7.375z" fill="#ffce71"/><path d="m248.499 368.298v-14.07c-56.067 0-104.128 34.935-123.561 84.181-3.205 8.122 1.034 17.266 9.353 19.918l43.87 13.987.449-6.771c2.813-42.41 32.637-78.617 69.889-97.245z" fill="#ffb357"/><path d="m271.183 2.724-119.605 47.817-101.794 168.609 198.716 106.391-.001 52.757c15.49 0 30.459-2.222 44.616-6.349 66.177-19.291 154.101-80.394 154.101-152.798 0-80.474-92.888-197.268-176.033-216.427z" fill="#ffce71"/><path d="m248.5 325.541-106.392-106.391c6.696-86.436 56.757-168.585 129.076-216.426-7.671-1.767-15.26-2.724-22.684-2.724-87.893 0-198.716 131.253-198.716 219.15 0 72.404 87.924 133.508 154.1 152.798 14.157 4.127 29.126 6.349 44.615 6.349 8.39-15.625 9.284-35.063.001-52.756z" fill="#ffb357"/><path d="m112.159 168.5c-11.9 15.061-18.659 32.313-18.659 50.65 0 58.854 69.564 106.391 154.999 106.391h.001v-157.041z" fill="#ffbd86"/><path d="m384.841 168.5c-1.819 0-178.787 0-233.801 0-4.569 16.56-7.606 33.52-8.933 50.65 0 58.854 47.749 106.391 106.391 106.391h.001c85.452 0 155-47.548 155-106.391.001-18.337-6.758-35.589-18.658-50.65z" fill="#ffddcf"/><path d="m384.841 168.5c-1.408 0-99.095 0-166.674 0 57.183 29.579 120.687 44.85 185.066 44.5-1.333-16.043-7.832-31.136-18.392-44.5z" fill="#c77464"/><ellipse cx="170.543" cy="251.409" fill="#ff8e9e" rx="25" ry="19.909" transform="matrix(1 .003 -.003 1 .789 -.533)"/><ellipse cx="326.457" cy="251.905" fill="#ff8e9e" rx="25" ry="19.909" transform="matrix(-1 -.003 .003 -1 652.124 504.831)"/><path d="m184.5 213c-4.142 0-7.5 3.358-7.5 7.5v10c0 4.142 3.358 7.5 7.5 7.5s7.5-3.358 7.5-7.5v-10c0-4.142-3.358-7.5-7.5-7.5z" fill="#313d40"/><path d="m312.5 213c-4.142 0-7.5 3.358-7.5 7.5v10c0 4.142 3.358 7.5 7.5 7.5s7.5-3.358 7.5-7.5v-10c0-4.142-3.358-7.5-7.5-7.5z" fill="#313d40"/><path d="m268.235 241.734c-3.737-1.789-8.215-.206-10.001 3.531-1.666 3.484-5.291 5.735-9.234 5.735s-7.568-2.251-9.234-5.735c-1.787-3.737-6.266-5.317-10.001-3.531-3.737 1.787-5.318 6.265-3.531 10.001 4.143 8.666 13.079 14.265 22.766 14.265s18.623-5.599 22.766-14.265c1.787-3.736.206-8.214-3.531-10.001z" fill="#313d40"/><g fill="#b9f0ff"><path d="m67.5 58.961c12.781 0 23.164-10.297 23.164-23.022 0-11.841-10.389-25.079-18.836-34.066-1.133-1.205-2.713-1.878-4.367-1.873-1.623.005-3.174.66-4.295 1.833-8.4 8.79-18.83 22.772-18.83 34.106 0 13.08 10.429 23.022 23.164 23.022z"/><path d="m289.198 58.961c-1.623.005-3.174.66-4.295 1.833-8.4 8.79-18.83 22.772-18.83 34.106 0 13.08 10.429 23.022 23.163 23.022 12.781 0 23.164-10.297 23.164-23.022 0-11.841-10.389-25.079-18.836-34.066-1.132-1.205-2.712-1.878-4.366-1.873z"/><path d="m439.237 77.922c12.781 0 23.164-10.297 23.164-23.022 0-11.841-10.389-25.079-18.836-34.066-1.133-1.205-2.713-1.878-4.367-1.873-1.623.005-3.174.66-4.295 1.833-8.4 8.79-18.83 22.772-18.83 34.106.001 13.08 10.429 23.022 23.164 23.022z"/><path d="m484.401 314.9c0-11.841-10.389-25.079-18.836-34.066-1.133-1.205-2.713-1.878-4.367-1.873-1.623.005-3.174.66-4.295 1.833-8.4 8.79-18.83 22.772-18.83 34.106 0 13.08 10.429 23.022 23.163 23.022 12.782 0 23.165-10.297 23.165-23.022z"/><path d="m411.107 361.053c-1.623.005-3.174.66-4.295 1.833-8.4 8.79-18.83 22.772-18.83 34.106 0 13.08 10.429 23.022 23.163 23.022 12.781 0 23.164-10.297 23.164-23.022 0-11.841-10.389-25.079-18.836-34.066-1.132-1.205-2.713-1.878-4.366-1.873z"/><path d="m96.619 351.053c-1.623.005-3.174.66-4.295 1.833-8.4 8.79-18.83 22.772-18.83 34.106 0 13.08 10.429 23.021 23.163 23.021 12.781 0 23.164-10.297 23.164-23.021 0-11.842-10.389-25.079-18.836-34.066-1.132-1.205-2.712-1.878-4.366-1.873z"/><path d="m46.619 411.053c-1.623.005-3.174.66-4.295 1.833-8.4 8.79-18.83 22.772-18.83 34.106 0 13.08 10.429 23.022 23.163 23.022 12.781 0 23.164-10.297 23.164-23.022 0-11.841-10.389-25.079-18.836-34.066-1.132-1.205-2.712-1.878-4.366-1.873z"/><path d="m46.328 113.861c0-11.841-10.389-25.079-18.836-34.066-1.133-1.205-2.713-1.878-4.367-1.873-1.623.005-3.174.66-4.295 1.833-8.4 8.789-18.83 22.772-18.83 34.106 0 13.08 10.429 23.022 23.163 23.022 12.781 0 23.165-10.298 23.165-23.022z"/><path d="m478.164 439.912c-1.133-1.205-2.713-1.878-4.366-1.873-1.623.005-3.174.66-4.295 1.833-8.4 8.79-18.83 22.772-18.83 34.106 0 13.08 10.429 23.022 23.163 23.022 12.781 0 23.164-10.297 23.164-23.022 0-11.841-10.389-25.079-18.836-34.066z"/></g></svg>