<svg height="511pt" viewBox="-62 0 511 511.99989" width="511pt" xmlns="http://www.w3.org/2000/svg"><path d="m227.210938 316.402344c-21.917969 0-39.683594-17.765625-39.683594-39.683594v-84.394531h79.367187v84.394531c0 21.917969-17.765625 39.683594-39.683593 39.683594zm0 0" fill="#516980"/><path d="m206.328125 37.039062 14.640625 72.285157-44.414062 8.992187-14.636719-72.28125zm0 0" fill="#889cb0"/><path d="m148.835938 252.273438-24.964844-123.273438s-52.675782 9.929688-100.210938 27.878906c-16.464844 6.21875-25.933594 23.53125-22.4375 40.78125l7.910156 39.078125c3.496094 17.25 18.949219 29.519531 36.539063 28.839844 50.773437-1.957031 103.164063-13.304687 103.164063-13.304687zm0 0" fill="#a7b6c5"/><path d="m148.835938 252.273438-24.964844-123.273438s-23.121094 4.359375-52.546875 12.519531c-1.777344 18.675781-2.539063 44.945313 3.34375 67.128907 5 18.867187 5.195312 38.839843 4.050781 54.507812 38.171875-3.960938 70.117188-10.882812 70.117188-10.882812zm0 0" fill="#889cb0"/><path d="m116.078125 242.828125-18.707031-92.382813c-3.984375-19.675781 8.734375-38.855468 28.414062-42.839843l200.546875-40.609375c19.671875-3.984375 38.855469 8.738281 42.839844 28.414062l18.707031 92.382813c3.980469 19.675781-8.738281 38.855469-28.414062 42.839843l-200.546875 40.609376c-19.675781 3.980468-38.855469-8.738282-42.839844-28.414063zm0 0" fill="#a7b6c5"/><path d="m387.875 187.789062-18.707031-92.378906c-3.980469-19.675781-23.164063-32.398437-42.839844-28.414062l-22.691406 4.597656 33.132812 163.632812 22.695313-4.59375c19.675781-3.988281 32.394531-23.167968 28.410156-42.84375zm0 0" fill="#4f96d9"/><path d="m1.222656 197.660156 7.910156 39.078125c3.496094 17.25 18.949219 29.519531 36.539063 28.839844 5.121094-.199219 10.261719-.488281 15.363281-.859375l-22.886718-113.027344c-4.84375 1.644532-9.691407 3.375-14.488282 5.1875-16.464844 6.214844-25.929687 23.53125-22.4375 40.78125zm0 0" fill="#3e4f61"/><path d="m128.640625 46.855469c-2.714844-13.40625 5.953125-26.472657 19.359375-29.1875l84.792969-17.171875c13.40625-2.714844 26.472656 5.953125 29.1875 19.359375 2.714843 13.40625-5.953125 26.472656-19.359375 29.1875l-84.792969 17.167969c-13.40625 2.714843-26.472656-5.949219-29.1875-19.355469zm0 0" fill="#007dd0"/><path d="m250.125 365.585938h-45.828125v-71.144532c0-12.65625 10.257813-22.914062 22.914063-22.914062s22.914062 10.257812 22.914062 22.914062zm0 0" fill="#6a829a"/><path d="m162.011719 503.988281c-11.742188-3.554687-18.382813-15.957031-14.824219-27.703125l37.351562-123.371094 42.527344 12.875-37.347656 123.371094c-3.558594 11.746094-15.960938 18.382813-27.707031 14.828125zm0 0" fill="#6a829a"/><path d="m210.019531 422.097656 17.046875-56.308594-42.527344-12.875-22.648437 74.804688c12.082031-2.472656 29.539063-5.257812 48.128906-5.621094zm0 0" fill="#516980"/><path d="m293.800781 503.988281c11.746094-3.554687 18.382813-15.957031 14.828125-27.703125l-37.351562-123.371094-42.53125 12.875 37.351562 123.371094c3.554688 11.746094 15.960938 18.382813 27.703125 14.828125zm0 0" fill="#6a829a"/><path d="m287.429688 406.261719-16.152344-53.347657-42.53125 12.875 16.949218 55.984376c15.824219-2.460938 30.542969-9.113282 41.734376-15.511719zm0 0" fill="#516980"/><path d="m227.90625 512c-12.269531 0-22.21875-9.949219-22.21875-22.21875v-128.902344h44.4375v128.902344c0 12.269531-9.945312 22.21875-22.21875 22.21875zm0 0" fill="#889cb0"/><path d="m205.6875 422.226562c7.265625-.289062 14.757812-.230468 22.21875.339844 7.53125.578125 15.015625-.101562 22.21875-1.585937v-60.101563h-44.433594v61.347656zm0 0" fill="#6a829a"/><path d="m273.328125 386.824219h-92.234375c-11.730469 0-21.242188-9.507813-21.242188-21.238281 0-11.730469 9.511719-21.238282 21.242188-21.238282h92.234375c11.730469 0 21.242187 9.507813 21.242187 21.238282-.003906 11.730468-9.511718 21.238281-21.242187 21.238281zm0 0" fill="#a7b6c5"/><path d="m203.003906 365.585938c0-11.730469 9.507813-21.238282 21.238282-21.238282h-43.148438c-11.730469 0-21.242188 9.507813-21.242188 21.238282 0 11.730468 9.511719 21.238281 21.242188 21.238281h43.148438c-11.730469 0-21.238282-9.507813-21.238282-21.238281zm0 0" fill="#889cb0"/><g fill="#454545"><path d="m281.988281 180.226562c-4.191406.808594-8.242187-1.929687-9.054687-6.117187l-2.433594-12.59375c-.808594-4.191406 1.929688-8.246094 6.121094-9.054687 4.191406-.808594 8.242187 1.929687 9.050781 6.121093l2.433594 12.59375c.8125 4.1875-1.925781 8.242188-6.117188 9.050781zm0 0"/><path d="m156.957031 204.390625c-4.1875.8125-8.242187-1.929687-9.050781-6.117187l-2.433594-12.59375c-.8125-4.191407 1.929688-8.242188 6.121094-9.054688 4.1875-.808594 8.242188 1.933594 9.050781 6.121094l2.433594 12.59375c.808594 4.191406-1.929687 8.242187-6.121094 9.050781zm0 0"/><path d="m221.722656 176.144531c-1.214844 2.824219-3.632812 3.601563-4.640625 3.796875-1.003906.195313-3.578125.40625-5.722656-1.796875-2.976563-3.054687-7.867187-3.121093-10.925781-.144531-3.054688 2.976562-3.121094 7.871094-.144532 10.925781 5.132813 5.269531 12.503907 7.582031 19.726563 6.1875 7.21875-1.398437 13.199219-6.289062 15.996094-13.089843 1.625-3.949219-.257813-8.464844-4.203125-10.085938-1.445313-.59375-7.546875-1.679688-10.085938 4.207031zm0 0"/></g><path d="m234.9375 295.28125c0 4.265625-3.460938 7.726562-7.726562 7.726562-4.269532 0-7.726563-3.460937-7.726563-7.726562 0-4.269531 3.457031-7.726562 7.726563-7.726562 4.265624 0 7.726562 3.457031 7.726562 7.726562zm0 0" fill="#585860"/></svg>