<svg height="512pt" viewBox="-71 0 512 512.00093" width="512pt" xmlns="http://www.w3.org/2000/svg"><path d="m308.523438 1.625c-9.023438 4.117188-12.996094 14.769531-8.878907 23.789062l29.144531 63.859376c13.167969 28.851562.40625 63.035156-28.441406 76.199218-28.851562 13.167969-63.035156.410156-76.199218-28.441406l-35.570313-77.929688c-21.386719-46.867187-76.914063-67.589843-123.773437-46.203124-46.867188 21.390624-67.589844 76.914062-46.203126 123.777343l101.386719 222.148438 32.667969-14.910157-101.386719-222.148437c-13.164062-28.847656-.40625-63.03125 28.441407-76.199219 28.851562-13.164062 63.035156-.40625 76.199218 28.441406l35.570313 77.933594c21.386719 46.863282 76.914062 67.589844 123.777343 46.199219 46.863282-21.386719 67.589844-76.914063 46.199219-123.777344l-29.144531-63.859375c-4.117188-9.019531-14.769531-12.996094-23.789062-8.878906zm0 0" fill="#767678"/><path d="m32.050781 166.152344 87.9375 192.671875 32.667969-14.910157-86.347656-189.191406c-13.042969 2.773438-24.519532 6.925782-34.257813 11.429688zm0 0" fill="#575757"/><path d="m252.242188 298.445312c-38.09375-83.464843-121.214844-127.285156-185.65625-97.875-64.441407 29.410157-85.796876 120.917969-47.699219 204.382813 38.09375 83.46875 121.214843 127.289063 185.65625 97.878906 64.4375-29.414062 85.796875-120.917969 47.699219-204.386719zm0 0" fill="#919191"/><path d="m112.484375 427.820312c-5.445313-18.199218-2.65625-38.035156 8.03125-53.738281 15.816406-23.230469 15.164063-55.996093 15.5625-56.609375-78.027344 3.050782-104.582031-50.832031-113.125-79.125-28.105469 42.253906-31.496094 106.523438-4.070313 166.621094 33.910157 74.296875 103.488282 117.179688 163.820313 104.96875-42.671875-17.410156-61.730469-53.757812-70.21875-82.117188zm0 0" fill="#767678"/><path d="m66.589844 200.574219c-55.09375 25.144531-78.699219 95.6875-60.578125 167.78125l227.015625-103.609375c-42.589844-60.925782-111.339844-89.316406-166.4375-64.171875zm0 0" fill="#c6c6c6"/><path d="m66.589844 200.574219c-55.09375 25.144531-78.699219 95.6875-60.578125 167.78125l114.261719-52.148438zm0 0" fill="#a8a8a8"/><path d="m22.953125 238.347656c-22.4375 33.742188-29.125 81.523438-16.941406 130.011719l112.226562-51.21875c-64.339843-5.128906-87.429687-52.777344-95.285156-78.792969zm0 0" fill="#919191"/><path d="m125.230469 327.0625c-12.472657 5.695312-27.199219.195312-32.890625-12.277344l-18.417969-40.351562c-5.695313-12.472656-.195313-27.199219 12.277344-32.890625 12.472656-5.695313 27.195312-.195313 32.890625 12.277343l18.414062 40.351563c5.695313 12.472656.199219 27.199219-12.273437 32.890625zm0 0" fill="#ffde55"/><path d="m72.398438 401.09375c-10.460938 5.335938-15.492188 16.417969-11.242188 24.746094 4.253906 8.332031 16.179688 10.753906 26.636719 5.417968 10.460937-5.339843 15.496093-16.421874 11.242187-24.75-4.25-8.328124-16.175781-10.753906-26.636718-5.414062zm0 0" fill="#ffabcd"/><path d="m212.710938 329.480469c-10.460938 5.339843-15.492188 16.421875-11.242188 24.75s16.175781 10.753906 26.636719 5.414062c10.460937-5.335937 15.496093-16.417969 11.242187-24.746093-4.25-8.332032-16.175781-10.753907-26.636718-5.417969zm0 0" fill="#ffabcd"/><g fill="#454545"><path d="m202.921875 343.503906c-3.800781 1.941406-8.453125.429688-10.394531-3.371094l-5.828125-11.421874c-1.941407-3.800782-.433594-8.453126 3.367187-10.394532 3.800782-1.941406 8.457032-.433594 10.394532 3.367188l5.832031 11.425781c1.941406 3.800781.433593 8.457031-3.371094 10.394531zm0 0"/><path d="m89.5 401.394531c-3.804688 1.9375-8.457031.429688-10.394531-3.371093l-5.832031-11.425782c-1.941407-3.800781-.433594-8.453125 3.371093-10.394531 3.800781-1.9375 8.453125-.429687 10.394531 3.371094l5.828126 11.425781c1.941406 3.800781.433593 8.453125-3.367188 10.394531zm0 0"/><path d="m143.890625 356.292969c-.386719 3.050781-2.492187 4.46875-3.40625 4.9375-.910156.464843-3.324219 1.382812-5.992187-.140625-3.710938-2.109375-8.429688-.816406-10.539063 2.890625-2.113281 3.710937-.816406 8.425781 2.890625 10.539062 6.390625 3.640625 14.117188 3.816407 20.667969.472657 6.546875-3.34375 10.9375-9.703126 11.738281-17.011719.46875-4.242188-2.59375-8.058594-6.835938-8.523438-1.554687-.171875-7.714843.476563-8.523437 6.835938zm0 0"/></g></svg>