<svg height="512pt" viewBox="0 -15 512 512" width="512pt" xmlns="http://www.w3.org/2000/svg"><path d="m330.300781 277.433594h-148.601562l-32.652344 131.027344c-9.300781 37.320312 18.929687 73.453124 57.394531 73.453124h99.121094c38.460938 0 66.691406-36.132812 57.390625-73.453124zm0 0" fill="#f9ee80"/><path d="m330.300781 277.433594h-148.601562l-32.652344 131.027344c-9.300781 37.320312 18.929687 73.453124 57.390625 73.453124h12.859375c-4.148437-13.445312-5.46875-26.949218-5.199219-39.53125.699219-32.234374 23.21875-59.796874 54.546875-67.421874 58.175781-14.152344 72.171875-55.328126 72.171875-55.328126zm0 0" fill="#eedb00"/><path d="m140.289062 261.984375c0 24.207031-19.625 43.828125-43.832031 43.828125-24.203125 0-43.828125-19.621094-43.828125-43.828125s19.625-43.832031 43.828125-43.832031c24.207031 0 43.832031 19.625 43.832031 43.832031zm0 0" fill="#ff8a98"/><path d="m96.457031 218.152344c-24.203125 0-43.828125 19.625-43.828125 43.832031 0 5.167969.894532 10.125 2.535156 14.730469 0 0 41.296876-7.21875 69.054688 19.191406 9.808594-8.039062 16.070312-20.25 16.070312-33.921875 0-24.207031-19.621093-43.832031-43.832031-43.832031zm0 0" fill="#fd5c6f"/><path d="m459.371094 261.984375c0 24.207031-19.625 43.828125-43.828125 43.828125-24.207031 0-43.832031-19.621094-43.832031-43.828125s19.625-43.832031 43.832031-43.832031c24.203125 0 43.828125 19.625 43.828125 43.832031zm0 0" fill="#ff8a98"/><path d="m415.542969 218.152344c24.203125 0 43.828125 19.625 43.828125 43.832031 0 5.167969-.894532 10.125-2.535156 14.730469 0 0-41.296876-7.21875-69.054688 19.191406-9.808594-8.039062-16.070312-20.25-16.070312-33.921875 0-24.207031 19.621093-43.832031 43.832031-43.832031zm0 0" fill="#fd5c6f"/><path d="m330.820312 269.496094c0-37.234375-33.496093-67.414063-74.820312-67.414063s-74.820312 30.179688-74.820312 67.414063c0 37.230468 33.496093 67.410156 74.820312 67.410156s74.820312-30.179688 74.820312-67.410156zm0 0" fill="#73da8c"/><path d="m306.011719 319.636719c15.230469-12.34375 24.808593-30.234375 24.808593-50.140625 0-37.234375-33.5-67.414063-74.820312-67.414063-41.324219 0-74.820312 30.179688-74.820312 67.414063 0 12.96875 4.0625 25.082031 11.109374 35.363281 20.058594-2.636719 64.8125-5.074219 113.722657 14.777344zm0 0" fill="#29ce69"/><path d="m416.660156 193.433594c1.808594-9.730469 2.761719-19.757813 2.761719-30.011719 0-90.253906-73.167969-163.421875-163.421875-163.421875s-163.421875 73.167969-163.421875 163.421875c0 10.253906.953125 20.285156 2.761719 30.015625h321.320312zm0 0" fill="#b5e9f1"/><path d="m213.128906 5.679688c-69.445312 18.84375-120.550781 82.332031-120.550781 157.742187 0 10.253906.953125 20.285156 2.761719 30.015625h321.320312c1.808594-9.730469 2.761719-19.761719 2.761719-30.015625 0-5.566406-.277344-11.070313-.820313-16.496094-80-29.394531-159.941406-34.019531-203.609374-34.089843-21.351563-.03125-38.152344-18.53125-35.910157-39.761719 4.824219-45.777344 34.046875-67.394531 34.046875-67.394531zm0 0" fill="#81d9e7"/><path d="m304.335938 48.375c-15.269532-6.597656-31.585938-9.742188-48.335938-9.742188-4.265625 0-7.726562-3.460937-7.726562-7.726562 0-4.269531 3.460937-7.726562 7.726562-7.726562 18.824219 0 37.105469 3.683593 54.339844 10.957031 3.933594 1.65625 5.773437 6.1875 4.117187 10.121093-1.246093 2.953126-4.726562 6.445313-10.121093 4.117188zm0 0" fill="#81d9e7"/><path d="m512 212.605469c0-37.410157-114.613281-67.730469-256-67.730469s-256 30.320312-256 67.730469c0 37.40625 114.613281 67.726562 256 67.726562s256-30.320312 256-67.726562zm0 0" fill="#a8a8a8"/><path d="m420.28125 160.65625c-44.460938-9.851562-101.746094-15.78125-164.28125-15.78125s-119.820312 5.929688-164.28125 15.78125c-5.527344 13.039062-8.53125 26.964844-8.53125 41.425781 0 23.71875 8.058594 45.992188 22.152344 65.285157 42.273437 8.15625 94.335937 12.96875 150.660156 12.96875 56.328125 0 108.386719-4.808594 150.660156-12.96875 14.097656-19.289063 22.152344-41.566407 22.152344-65.285157 0-14.460937-3.003906-28.386719-8.53125-41.425781zm0 0" fill="#c6c6c6"/><g fill="#919191"><path d="m124.292969 191.929688c0 4.265624-3.457031 7.722656-7.726563 7.722656-4.265625 0-7.726562-3.457032-7.726562-7.722656 0-4.269532 3.460937-7.726563 7.726562-7.726563 4.269532 0 7.726563 3.457031 7.726563 7.726563zm0 0"/><path d="m132.019531 233.28125c0 4.265625-3.457031 7.722656-7.726562 7.722656-4.265625 0-7.726563-3.457031-7.726563-7.722656 0-4.269531 3.460938-7.726562 7.726563-7.726562 4.269531 0 7.726562 3.457031 7.726562 7.726562zm0 0"/><path d="m403.160156 191.929688c0 4.265624-3.460937 7.722656-7.726562 7.722656-4.269532 0-7.726563-3.457032-7.726563-7.722656 0-4.269532 3.457031-7.726563 7.726563-7.726563 4.265625 0 7.726562 3.457031 7.726562 7.726563zm0 0"/><path d="m395.433594 233.28125c0 4.265625-3.460938 7.722656-7.726563 7.722656-4.269531 0-7.726562-3.457031-7.726562-7.722656 0-4.269531 3.457031-7.726562 7.726562-7.726562 4.265625 0 7.726563 3.457031 7.726563 7.726562zm0 0"/></g><path d="m198.5 113.652344c0-9.351563-9.523438-16.933594-21.265625-16.933594s-21.265625 7.582031-21.265625 16.933594c0 9.351562 9.523438 16.933594 21.265625 16.933594s21.265625-7.582032 21.265625-16.933594zm0 0" fill="#ffabcd"/><path d="m356.03125 113.652344c0-9.351563-9.523438-16.933594-21.265625-16.933594s-21.265625 7.582031-21.265625 16.933594c0 9.351562 9.523438 16.933594 21.265625 16.933594s21.265625-7.582032 21.265625-16.933594zm0 0" fill="#ffabcd"/><path d="m261.277344 98.207031c-1.730469 2.539063-4.253906 2.847657-5.277344 2.847657s-3.589844-.277344-5.277344-2.847657c-2.34375-3.566406-7.132812-4.558593-10.699218-2.21875-3.566407 2.34375-4.558594 7.136719-2.214844 10.703125 4.035156 6.144532 10.835937 9.816406 18.191406 9.816406s14.15625-3.671874 18.191406-9.816406c2.34375-3.566406 1.351563-8.359375-2.214844-10.703125-1.308593-.855469-7.089843-3.082031-10.699218 2.21875zm0 0" fill="#454545"/><path d="m194.785156 101.824219c-.960937-.804688-1.917968-1.019531-2.457031-1.019531s-1.574219.132812-2.460937 1.019531c-3.015626 3.019531-7.910157 3.019531-10.925782.003906-3.019531-3.019531-3.019531-7.910156 0-10.929687 3.574219-3.574219 8.328125-5.542969 13.386719-5.542969 5.054687 0 9.808594 1.96875 13.382813 5.542969 3.019531 3.019531 3.019531 7.910156 0 10.929687-1.503907 1.503906-6.046876 4.078125-10.925782-.003906zm0 0" fill="#454545"/><path d="m322.128906 101.824219c-.960937-.804688-1.917968-1.019531-2.457031-1.019531s-1.574219.132812-2.460937 1.019531c-3.015626 3.019531-7.910157 3.019531-10.925782.003906-3.019531-3.019531-3.019531-7.910156 0-10.929687 3.574219-3.574219 8.328125-5.542969 13.386719-5.542969 5.054687 0 9.808594 1.96875 13.382813 5.542969 3.019531 3.019531 3.019531 7.910156 0 10.929687-1.503907 1.503906-6.046876 4.078125-10.925782-.003906zm0 0" fill="#454545"/><path d="m342.492188 55.738281c0 4.265625-3.460938 7.726563-7.726563 7.726563s-7.726563-3.460938-7.726563-7.726563c0-4.269531 3.460938-7.726562 7.726563-7.726562s7.726563 3.457031 7.726563 7.726562zm0 0" fill="#81d9e7"/></svg>