<svg height="511pt" viewBox="-69 1 511 511.99897" width="511pt" xmlns="http://www.w3.org/2000/svg"><path d="m.5 456.773438v-401.546876c0-30.5 24.726562-55.226562 55.226562-55.226562h262.117188c30.5 0 55.226562 24.726562 55.226562 55.226562v401.546876c0 30.5-24.726562 55.226562-55.226562 55.226562h-262.117188c-30.5 0-55.226562-24.726562-55.226562-55.226562zm0 0" fill="#919191"/><path d="m258.179688 0h-202.453126c-30.5 0-55.226562 24.726562-55.226562 55.226562v401.546876c0 30.5 24.726562 55.226562 55.226562 55.226562h91.117188c-7.0625-10.179688-12.214844-23.320312-12.214844-39.996094 0-56.753906-.386718-136.1875-.292968-187.265625.046874-25.464843 14.746093-48.554687 37.699218-59.574219 42.921875-20.605468 63.550782-68.207031 63.550782-68.207031s-54.339844-72.917969-55.605469-74.472656c68.5625-22.746094 78.199219-82.484375 78.199219-82.484375zm0 0" fill="#767678"/><path d="m289.035156 156.8125h-204.5c-19.398437 0-35.121094-15.726562-35.121094-35.125v-37.652344c0-19.394531 15.722657-35.121094 35.121094-35.121094h204.5c19.394532 0 35.121094 15.726563 35.121094 35.121094v37.652344c0 19.398438-15.726562 35.125-35.121094 35.125zm0 0" fill="#f4e74d"/><path d="m132.503906 121.6875v-37.652344c0-19.394531 15.722656-35.121094 35.121094-35.121094h-83.089844c-19.398437 0-35.121094 15.726563-35.121094 35.121094v37.652344c0 19.398438 15.722657 35.125 35.121094 35.125h83.089844c-19.398438 0-35.121094-15.726562-35.121094-35.125zm0 0" fill="#dfca00"/><path d="m301.242188 259.003906h-20.144532c-12.65625 0-22.917968-10.257812-22.917968-22.914062v-20.144532c0-12.65625 10.257812-22.917968 22.917968-22.917968h20.144532c12.652343 0 22.914062 10.261718 22.914062 22.917968v20.144532c0 12.65625-10.261719 22.914062-22.914062 22.914062zm0 0" fill="#ffa93f"/><path d="m196.855469 259.003906h-20.144531c-12.65625 0-22.914063-10.257812-22.914063-22.914062v-20.144532c0-12.65625 10.257813-22.917968 22.914063-22.917968h20.144531c12.65625 0 22.917969 10.261718 22.917969 22.917968v20.144532c0 12.65625-10.261719 22.914062-22.917969 22.914062zm0 0" fill="#73da8c"/><path d="m196.855469 359.578125h-20.140625c-12.65625 0-22.917969-10.261719-22.917969-22.917969v-20.144531c0-12.65625 10.257813-22.917969 22.917969-22.917969h20.140625c12.65625 0 22.917969 10.261719 22.917969 22.917969v20.144531c0 12.65625-10.261719 22.917969-22.917969 22.917969zm0 0" fill="#a4e7ff"/><path d="m196.855469 460.148438h-20.144531c-12.65625 0-22.914063-10.257813-22.914063-22.914063v-20.144531c0-12.65625 10.257813-22.917969 22.914063-22.917969h20.144531c12.65625 0 22.917969 10.257813 22.917969 22.917969v20.144531c0 12.65625-10.261719 22.914063-22.917969 22.914063zm0 0" fill="#73da8c"/><path d="m92.472656 359.578125h-20.144531c-12.65625 0-22.914063-10.261719-22.914063-22.917969v-20.144531c0-12.65625 10.257813-22.917969 22.914063-22.917969h20.144531c12.65625 0 22.917969 10.261719 22.917969 22.917969v20.144531c0 12.65625-10.261719 22.917969-22.917969 22.917969zm0 0" fill="#5ad6ff"/><path d="m92.472656 259.003906h-20.144531c-12.65625 0-22.914063-10.257812-22.914063-22.914062v-20.144532c0-12.65625 10.257813-22.917968 22.914063-22.917968h20.144531c12.65625 0 22.917969 10.261718 22.917969 22.917968v20.144532c0 12.65625-10.261719 22.914062-22.917969 22.914062zm0 0" fill="#29ce69"/><path d="m92.472656 460.148438h-20.144531c-12.65625 0-22.914063-10.257813-22.914063-22.914063v-20.144531c0-12.65625 10.257813-22.917969 22.914063-22.917969h20.144531c12.65625 0 22.917969 10.257813 22.917969 22.917969v20.144531c0 12.65625-10.261719 22.914063-22.917969 22.914063zm0 0" fill="#29ce69"/><path d="m301.242188 460.148438h-20.144532c-12.65625 0-22.917968-10.257813-22.917968-22.914063v-120.71875c0-12.65625 10.257812-22.917969 22.917968-22.917969h20.144532c12.652343 0 22.914062 10.261719 22.914062 22.917969v120.71875c0 12.65625-10.261719 22.914063-22.914062 22.914063zm0 0" fill="#ffa93f"/><g fill="#57565c"><path d="m269.875 112.957031c-4.269531 0-7.726562-3.460937-7.726562-7.726562v-12.828125c0-4.265625 3.457031-7.722656 7.726562-7.722656s7.726562 3.457031 7.726562 7.722656v12.828125c0 4.265625-3.457031 7.726562-7.726562 7.726562zm0 0"/><path d="m103.695312 112.957031c-4.269531 0-7.726562-3.460937-7.726562-7.726562v-12.828125c0-4.265625 3.457031-7.722656 7.726562-7.722656 4.265626 0 7.726563 3.457031 7.726563 7.722656v12.828125c0 4.265625-3.460937 7.726562-7.726563 7.726562zm0 0"/><path d="m186.785156 121.046875c-10 0-20-3.238281-28.34375-9.710937-3.375-2.613282-3.988281-7.46875-1.371094-10.839844 2.613282-3.371094 7.46875-3.984375 10.839844-1.367188 11.113282 8.617188 26.632813 8.617188 37.746094 0 3.371094-2.617187 8.226562-2.003906 10.839844 1.367188 2.617187 3.371094 2.003906 8.226562-1.367188 10.839844-8.34375 6.472656-18.34375 9.710937-28.34375 9.710937zm0 0"/></g></svg>