<svg height="512pt" viewBox="0 0 512.00001 512" width="512pt" xmlns="http://www.w3.org/2000/svg"><g fill="#767678"><path d="m317.453125 209.527344c-28.828125 0-55.933594 11.226562-76.316406 31.609375-20.382813 20.382812-31.609375 47.484375-31.609375 76.3125l-54.890625.003906c0-43.492187 16.933593-84.378906 47.6875-115.132813 30.75-30.75 71.636719-47.6875 115.128906-47.6875zm0 0"/><path d="m89.859375 437.09375-42.070313 42.066406c-10.933593 10.933594-28.65625 10.933594-39.589843 0-10.933594-10.929687-10.933594-28.65625 0-39.585937l42.070312-42.070313zm0 0"/><path d="m437.09375 89.859375 42.070312-42.070313c10.929688-10.933593 10.929688-28.65625 0-39.589843-10.933593-10.933594-28.65625-10.933594-39.589843 0l-42.070313 42.070312zm0 0"/></g><path d="m271.511719 386.996094c0 69.039062-55.964844 125.003906-125.003907 125.003906-69.035156 0-125-55.964844-125-125.003906 0-69.035156 55.964844-125 125-125 69.039063 0 125.003907 55.964844 125.003907 125zm0 0" fill="#a8a8a8"/><path d="m58.121094 298.609375c-48.816406 48.816406-48.816406 127.960937 0 176.777344 48.816406 48.816406 127.960937 48.816406 176.777344 0 6.671874-6.671875 12.429687-13.90625 17.277343-21.554688-64.910156-51.652343-119.960937-23.992187-162.933593-55.710937-47.390626-34.976563-31.121094-99.511719-31.121094-99.511719zm0 0" fill="#919191"/><path d="m205.828125 446.316406c-32.707031 32.710938-85.929687 32.710938-118.640625 0-32.707031-32.707031-32.707031-85.929687 0-118.640625 32.710938-32.707031 85.933594-32.707031 118.640625 0 32.710937 32.710938 32.710937 85.933594 0 118.640625zm0 0" fill="#a4e7ff"/><path d="m217.074219 432.382812c-49.8125-21.972656-92.835938-8.433593-127.832031-34.261718-11.597657-8.558594-19.390626-18.910156-24.535157-29.628906-6.085937 27.136718 1.40625 56.75 22.480469 77.828124 32.710938 32.707032 85.933594 32.707032 118.644531 0 4.316407-4.320312 8.066407-9 11.242188-13.9375zm0 0" fill="#5ad6ff"/><path d="m512 146.507812c0 69.035157-55.964844 125-125 125-69.039062 0-125.003906-55.964843-125.003906-125 0-69.035156 55.964844-125 125.003906-125 69.035156 0 125 55.964844 125 125zm0 0" fill="#a8a8a8"/><path d="m385.828125 157.824219c-51.859375 12.960937-98.347656-17.585938-121.238281-36.707031-8.222656 39.820312 3.117187 82.878906 34.019531 113.78125 48.816406 48.816406 127.964844 48.816406 176.78125 0 15.691406-15.695313 26.339844-34.519532 31.941406-54.464844-25.933593-14.816406-72.707031-34.804688-121.503906-22.609375zm0 0" fill="#919191"/><path d="m446.320312 205.828125c-32.710937 32.710937-85.933593 32.710937-118.640624.003906-32.710938-32.710937-32.710938-85.933593 0-118.644531 32.707031-32.707031 85.929687-32.707031 118.640624 0 32.707032 32.710938 32.707032 85.929688 0 118.640625zm0 0" fill="#a4e7ff"/><path d="m385.828125 157.824219c-30.707031 7.675781-59.527344.097656-82.683594-11.332031-.003906 21.488281 8.175781 42.976562 24.535157 59.339843 32.707031 32.707031 85.929687 32.707031 118.640624-.003906 12.105469-12.105469 19.734376-27.023437 22.875-42.671875-24.101562-8.152344-53.355468-12.832031-83.367187-5.332031zm0 0" fill="#5ad6ff"/></svg>