<svg height="512pt" viewBox="0 0 512 512" width="512pt" xmlns="http://www.w3.org/2000/svg"><path d="m243.308594 270.222656v-187.355468c0-45.695313 37.113281-82.867188 82.730468-82.867188 45.621094 0 82.734376 37.171875 82.734376 82.867188 0 10.257812-8.304688 18.574218-18.550782 18.574218-10.242187 0-18.542968-8.316406-18.542968-18.574218 0-25.207032-20.476563-45.714844-45.640626-45.714844-25.164062 0-45.636718 20.507812-45.636718 45.714844v187.355468zm0 0" fill="#3d4751"/><path d="m326.039062 191.71875c0-37.351562-28.722656-67.628906-64.15625-67.628906-35.429687 0-64.152343 30.277344-64.152343 67.628906 0 37.347656 28.722656 67.628906 64.152343 67.628906 35.433594 0 64.15625-30.28125 64.15625-67.628906zm0 0" fill="#f4e74d"/><path d="m399.183594 192.425781h-286.363282c-62.308593 0-112.820312 50.59375-112.820312 113.003907 0 62.40625 50.511719 206.570312 112.820312 206.570312 26.976563 0 51.742188-27.027344 71.15625-62.742188 14.207032-26.140624 41.222657-42.570312 72.953126-42.570312 31.730468 0 56.886718 16.429688 71.09375 42.570312 19.414062 35.714844 44.179687 62.742188 71.160156 62.742188 62.304687 0 112.816406-144.164062 112.816406-206.570312 0-62.410157-50.511719-113.003907-112.816406-113.003907zm0 0" fill="#8697a6"/><path d="m112.816406 192.425781c-62.304687 0-112.816406 50.59375-112.816406 113.003907 0 62.40625 50.511719 206.570312 112.816406 206.570312 8.789063 0 17.351563-2.871094 25.5625-7.976562-8.910156-11.921876-13.871094-23.902344-16.609375-34.160157-3.390625-12.6875-3.550781-26.050781-.613281-38.855469 10.660156-46.507812-1.179688-96.019531-5.839844-151.046874-4.546875-53.671876 42.230469-82.75 50.65625-87.53125h-53.15625zm0 0" fill="#6b7d8e"/><path d="m420.347656 273.5625c0-11.925781-9.652344-21.589844-21.554687-21.589844-11.90625 0-21.554688 9.664063-21.554688 21.589844s9.648438 21.589844 21.554688 21.589844c11.902343 0 21.554687-9.664063 21.554687-21.589844zm0 0" fill="#ff8a98"/><path d="m420.347656 364.757812c0-11.921874-9.652344-21.589843-21.554687-21.589843-11.90625 0-21.554688 9.667969-21.554688 21.589843 0 11.925782 9.648438 21.59375 21.554688 21.59375 11.902343 0 21.554687-9.667968 21.554687-21.59375zm0 0" fill="#ff8a98"/><path d="m374.820312 319.160156c0-11.925781-9.648437-21.589844-21.554687-21.589844-11.902344 0-21.554687 9.664063-21.554687 21.589844 0 11.925782 9.652343 21.589844 21.554687 21.589844 11.90625 0 21.554687-9.664062 21.554687-21.589844zm0 0" fill="#73da8c"/><path d="m465.871094 319.160156c0-11.925781-9.648438-21.589844-21.554688-21.589844-11.902344 0-21.554687 9.664063-21.554687 21.589844 0 11.925782 9.652343 21.589844 21.554687 21.589844 11.90625 0 21.554688-9.664062 21.554688-21.589844zm0 0" fill="#73da8c"/><path d="m174.90625 299.558594h-24.84375c-5.621094 0-10.179688-4.558594-10.179688-10.179688v-24.949218c0-10.808594-8.761718-19.570313-19.574218-19.570313-10.808594 0-19.570313 8.761719-19.570313 19.570313v24.949218c0 5.621094-4.558593 10.179688-10.179687 10.179688h-24.84375c-10.820313 0-19.589844 8.769531-19.589844 19.585937v.03125c0 10.820313 8.769531 19.589844 19.589844 19.589844h24.84375c5.621094 0 10.179687 4.558594 10.179687 10.179687v24.945313c0 10.808594 8.761719 19.574219 19.570313 19.574219 10.8125 0 19.574218-8.765625 19.574218-19.574219v-24.945313c0-5.621093 4.558594-10.179687 10.179688-10.179687h24.84375c10.816406 0 19.585938-8.769531 19.585938-19.589844v-.03125c0-10.816406-8.769532-19.585937-19.585938-19.585937zm0 0" fill="#a4e7ff"/><path d="m260.441406 302.800781h-8.882812c-9.714844 0-17.585938-7.871093-17.585938-17.585937v-.027344c0-9.710938 7.871094-17.585938 17.585938-17.585938h8.882812c9.714844 0 17.589844 7.875 17.589844 17.585938v.027344c-.003906 9.714844-7.875 17.585937-17.589844 17.585937zm0 0" fill="#fff"/><path d="m260.441406 364.816406h-8.882812c-9.714844 0-17.585938-7.875-17.585938-17.585937v-.03125c0-9.710938 7.871094-17.585938 17.585938-17.585938h8.882812c9.714844 0 17.589844 7.875 17.589844 17.585938v.03125c-.003906 9.710937-7.875 17.585937-17.589844 17.585937zm0 0" fill="#fff"/><path d="m89.734375 437.859375c-56.136719-11.410156-74.449219-51.507813-74.449219-51.507813 19.550782 61.316407 55.910156 125.648438 97.53125 125.648438 26.980469 0 51.746094-27.027344 71.160156-62.742188 7.375-13.574218 18.1875-24.519531 31.339844-31.917968 0 0-60.128906 33.828125-125.582031 20.519531zm0 0" fill="#6b7d8e"/><path d="m422.265625 437.859375c56.136719-11.410156 74.449219-51.507813 74.449219-51.507813-19.550782 61.316407-55.910156 125.648438-97.53125 125.648438-26.980469 0-51.746094-27.027344-71.160156-62.742188-7.375-13.574218-17.167969-24.011718-30.363282-31.917968 0 0 59.152344 33.828125 124.605469 20.519531zm0 0" fill="#6b7d8e"/><path d="m112.816406 512c8.789063 0 17.351563-2.871094 25.5625-7.976562-8.910156-11.921876-13.871094-23.902344-16.609375-34.160157-2.519531-9.433593-3.253906-19.242187-2.261719-28.910156-9.660156-.109375-19.648437-1.035156-29.773437-3.09375-56.136719-11.410156-74.449219-51.507813-74.449219-51.507813 19.550782 61.316407 55.910156 125.648438 97.53125 125.648438zm0 0" fill="#546370"/></svg>