<svg height="512pt" viewBox="-72 0 512 512.00026" width="512pt" xmlns="http://www.w3.org/2000/svg"><path d="m122.066406 487.367188h-59.601562v-61.03125c0-10.882813 8.824218-19.703126 19.707031-19.703126h20.1875c10.882813 0 19.707031 8.820313 19.707031 19.703126zm0 0" fill="#575757"/><path d="m42.355469 377.378906h186.777343v-54.707031h-186.777343c-15.109375 0-27.355469 12.246094-27.355469 27.355469 0 15.105468 12.246094 27.351562 27.355469 27.351562zm0 0" fill="#a4e7ff"/><path d="m108.992188 377.378906h120.140624v-54.707031h-86.367187c-13.296875 10.347656-27.960937 27.484375-33.773437 54.707031zm0 0" fill="#5ad6ff"/><path d="m193.949219 179.234375-51.253907-51.25 117.367188-117.367187c14.15625-14.15625 37.101562-14.15625 51.253906 0 14.152344 14.152343 14.152344 37.097656 0 51.25zm0 0" fill="#a8a8a8"/><path d="m219.707031 50.96875-77.011719 77.015625 51.253907 51.25 80.921875-80.921875c-16.3125-25.394531-37.390625-39.511719-55.164063-47.34375zm0 0" fill="#919191"/><g fill="#575757"><path d="m59.832031 262.101562c-9.433593-9.4375-9.433593-24.734374 0-34.171874l59.453125-59.453126 34.167969 34.167969-59.453125 59.457031c-9.433594 9.433594-24.734375 9.433594-34.167969 0zm0 0"/><path d="m20.195312 174.925781c-3.785156-12.792969 3.515626-26.238281 16.3125-30.023437l80.625-23.855469 13.710938 46.335937-80.625 23.855469c-12.796875 3.789063-26.238281-3.515625-30.023438-16.3125zm0 0"/><path d="m147.003906 301.738281c12.796875 3.785157 26.238282-3.519531 30.023438-16.3125l23.859375-80.625-46.335938-13.710937-23.859375 80.625c-3.785156 12.792968 3.519532 26.234375 16.3125 30.023437zm0 0"/></g><path d="m182.265625 217.195312s74.777344 64.832032 35.472656 166.363282h111.316407s28.75-179.796875-99.082032-247.097656c-1.839844 1.203124-47.707031 80.734374-47.707031 80.734374zm0 0" fill="#919191"/><path d="m282.792969 179.457031c-13.636719-16.652343-30.933594-31.472656-52.820313-42.996093-1.839844 1.203124-47.707031 80.734374-47.707031 80.734374s21.992187 19.070313 35.855469 52.71875c6.949218-6.945312 16.421875-15.5625 29.355468-26.082031 23.847657-19.394531 32.464844-44.851562 35.316407-64.375zm0 0" fill="#767678"/><path d="m255.429688 153.609375c0 48.109375-39 87.105469-87.105469 87.105469-48.109375 0-87.109375-38.996094-87.109375-87.105469s39-87.105469 87.109375-87.105469c48.105469 0 87.105469 38.996094 87.105469 87.105469zm0 0" fill="#c6c6c6"/><path d="m311.316406 10.617188c-14.152344-14.15625-37.097656-14.15625-51.253906 0l-15.253906 15.25 51.253906 51.253906 15.253906-15.253906c14.152344-14.152344 14.152344-37.097657 0-51.25zm0 0" fill="#358cd9"/><path d="m162.363281 471.910156h169.460938v-112.898437c0-20.070313-16.273438-36.339844-36.34375-36.339844h-75.054688c-32.066406 0-58.0625 25.996094-58.0625 58.0625zm0 0" fill="#a8a8a8"/><path d="m31.042969 512h305.519531c17.144531 0 31.042969-13.898438 31.042969-31.042969 0-17.148437-13.898438-31.046875-31.042969-31.046875h-305.519531c-17.144531 0-31.042969 13.898438-31.042969 31.046875 0 17.144531 13.898438 31.042969 31.042969 31.042969zm0 0" fill="#c6c6c6"/><path d="m81.214844 480.957031c0-17.148437 13.898437-31.046875 31.046875-31.046875h-81.21875c-17.144531 0-31.042969 13.898438-31.042969 31.046875 0 17.144531 13.898438 31.042969 31.042969 31.042969h81.21875c-17.148438 0-31.046875-13.898438-31.046875-31.042969zm0 0" fill="#a8a8a8"/><path d="m241.992188 377.378906c0 13.773438-11.164063 24.9375-24.933594 24.9375-13.773438 0-24.9375-11.164062-24.9375-24.9375 0-13.769531 11.164062-24.933594 24.9375-24.933594 13.769531 0 24.933594 11.164063 24.933594 24.933594zm0 0" fill="#575757"/></svg>