<svg height="512pt" viewBox="-27 0 512 512" width="512pt" xmlns="http://www.w3.org/2000/svg"><path d="m0 90.195312v331.605469c0 49.816407 40.382812 90.199219 90.195312 90.199219h330.207032c21.199218 0 38.386718-17.1875 38.386718-38.386719v-383.417969zm0 0" fill="#ffa93f"/><path d="m0 421.804688c0 49.8125 40.382812 90.195312 90.195312 90.195312h125.382813c-10.4375-31.410156-18.46875-76.113281-19.152344-139.589844-2.058593-191.613281-30.902343-192.015625-60.777343-275.058594-.882813-2.445312-1.667969-4.828124-2.375-7.15625h-133.273438zm0 0" fill="#ff9000"/><path d="m0 90.195312v331.605469c0 49.816407 40.382812 90.199219 90.195312 90.199219v-421.804688zm0 0" fill="#eedb00"/><path d="m420.402344 180.394531h-330.207032c-49.8125 0-90.195312-40.382812-90.195312-90.195312 0-49.816407 40.382812-90.199219 90.195312-90.199219h330.207032c21.199218 0 38.386718 17.183594 38.386718 38.386719v103.621093c0 21.199219-17.1875 38.386719-38.386718 38.386719zm0 0" fill="#ffbe73"/><path d="m177.660156 0h-87.464844c-49.8125 0-90.195312 40.382812-90.195312 90.195312 0 49.816407 40.382812 90.199219 90.195312 90.199219h81.367188c-10.417969-26.914062-23.070312-47.339843-35.914062-83.042969-29.875-83.042968 42.011718-97.351562 42.011718-97.351562zm0 0" fill="#ffa93f"/><path d="m90.195312 128.859375c-21.320312 0-38.664062-17.34375-38.664062-38.660156 0-21.320313 17.34375-38.664063 38.664062-38.664063h368.59375v77.324219zm0 0" fill="#a4e7ff"/><path d="m375.738281 230.890625-22.4375-21.488281-22.4375 21.488281c-7.847656 7.511719-20.871093 1.953125-20.871093-8.910156v-85.796875c0-14.972656 12.140624-27.113282 27.113281-27.113282h32.386719c14.976562 0 27.113281 12.140626 27.113281 27.113282v85.796875c.003906 10.863281-13.023438 16.425781-20.867188 8.910156zm0 0" fill="#fd5c6f"/><path d="m208.539062 325.425781c0-13.582031-13.824218-24.589843-30.878906-24.589843-17.054687 0-30.878906 11.007812-30.878906 24.589843 0 13.578125 13.824219 24.585938 30.878906 24.585938 17.054688 0 30.878906-11.007813 30.878906-24.585938zm0 0" fill="#fff"/><path d="m402.203125 325.425781c0-13.582031-13.824219-24.589843-30.878906-24.589843-17.050781 0-30.875 11.007812-30.875 24.589843 0 13.578125 13.824219 24.585938 30.875 24.585938 17.054687 0 30.878906-11.007813 30.878906-24.585938zm0 0" fill="#fff"/><g fill="#454545"><path d="m274.492188 321.429688c-10 0-20-3.234376-28.34375-9.707032-3.371094-2.613281-3.984376-7.46875-1.371094-10.839844 2.617187-3.375 7.472656-3.988281 10.839844-1.371093 11.113281 8.621093 26.636718 8.621093 37.75 0 3.367187-2.617188 8.222656-2.003907 10.839843 1.371093 2.613281 3.371094 2 8.222657-1.371093 10.839844-8.34375 6.472656-18.34375 9.707032-28.34375 9.707032zm0 0"/><path d="m196.679688 306.609375c-1.730469-2.542969-4.253907-2.847656-5.277344-2.847656-1.023438 0-3.589844.277343-5.277344 2.847656-2.34375 3.566406-7.132812 4.558594-10.699219 2.214844-3.566406-2.34375-4.558593-7.132813-2.214843-10.699219 4.035156-6.148438 10.835937-9.816406 18.191406-9.816406 7.355468 0 14.15625 3.667968 18.191406 9.816406 2.34375 3.566406 1.351562 8.355469-2.214844 10.699219-1.308594.859375-7.089844 3.082031-10.699218-2.214844zm0 0"/><path d="m362.859375 306.609375c-1.730469-2.542969-4.25-2.847656-5.277344-2.847656-1.023437 0-3.589843.277343-5.277343 2.847656-2.34375 3.566406-7.132813 4.558594-10.699219 2.214844-3.566407-2.34375-4.558594-7.132813-2.214844-10.699219 4.039063-6.148438 10.839844-9.816406 18.195313-9.816406 7.351562 0 14.152343 3.667968 18.191406 9.816406 2.34375 3.566406 1.351562 8.355469-2.214844 10.699219-1.308594.859375-7.089844 3.082031-10.703125-2.214844zm0 0"/></g><path d="m90.195312 51.53125c-21.320312 0-38.664062 17.34375-38.664062 38.664062 0 21.320313 17.34375 38.664063 38.664062 38.664063h58.199219c-4.175781-9.335937-8.449219-19.566406-12.746093-31.507813-6.648438-18.480468-8.257813-33.546874-6.742188-45.820312zm0 0" fill="#5ad6ff"/></svg>