<svg height="512pt" viewBox="-102 0 512 512" width="512pt" xmlns="http://www.w3.org/2000/svg"><path d="m183.292969 27.5h-13.496094v-11.371094c.003906-8.910156-7.21875-16.128906-16.125-16.128906s-16.128906 7.21875-16.128906 16.128906v11.371094h-13.492188c-8.90625 0-16.125 7.21875-16.125 16.128906 0 8.90625 7.21875 16.125 16.125 16.125h13.492188v38.023438c0 8.910156 7.222656 16.128906 16.128906 16.128906s16.128906-7.21875 16.128906-16.128906v-38.023438h13.492188c8.90625 0 16.128906-7.21875 16.128906-16.125 0-8.910156-7.222656-16.128906-16.128906-16.128906zm0 0" fill="#efb899"/><path d="m214.742188 215.394531h-122.140626s4.585938 66.464844-22.933593 122.640625h168.007812c-27.519531-56.175781-22.933593-122.640625-22.933593-122.640625zm0 0" fill="#d97c41"/><path d="m92.601562 215.394531s4.585938 66.464844-22.933593 122.640625h67.332031c2.675781-12.332031 4.550781-24.375 5.882812-34.75 2.261719-17.648437 15.859376-31.707031 33.429688-34.496094 14.863281-2.363281 29.023438-5.9375 39.996094-9.113281-2.84375-25.753906-1.566406-44.28125-1.566406-44.28125zm0 0" fill="#af602d"/><path d="m153.671875 80.867188c-39.882813 0-66.324219 13.671874-82.261719 26.34375-11.136718 8.851562-12.65625 25.210937-3.550781 36.140624 22.226563 26.667969 25.160156 61.074219 25.160156 61.074219h121.304688s2.933593-34.40625 25.160156-61.074219c9.109375-10.929687 7.589844-27.289062-3.550781-36.140624-15.9375-12.671876-42.378906-26.34375-82.261719-26.34375zm0 0" fill="#d97c41"/><path d="m229.320312 338.035156h-151.296874s-56.90625 52.359375-47.125 144.144532h245.546874c9.78125-91.785157-47.125-144.144532-47.125-144.144532zm0 0" fill="#d97c41"/><path d="m229.320312 338.035156h-151.296874s-56.90625 52.359375-47.125 144.144532h67.429687c.191406-15.640626 2.160156-28.769532 4.78125-39.464844 5.167969-21.066406 23.898437-35.960938 45.582031-36.488282 79.363282-1.929687 114.460938-16.671874 114.460938-16.671874-14.21875-33.472657-33.832032-51.519532-33.832032-51.519532zm0 0" fill="#af602d"/><path d="m217.992188 239.976562h-128.636719c-13.578125 0-24.582031-11.007812-24.582031-24.582031s11.003906-24.578125 24.582031-24.578125h128.636719c13.574218 0 24.578124 11.003906 24.578124 24.578125 0 13.578125-11.003906 24.582031-24.578124 24.582031zm0 0" fill="#f6d6c5"/><path d="m110.523438 215.394531c0-13.574219 11.003906-24.578125 24.578124-24.578125h-45.746093c-13.578125 0-24.582031 11.003906-24.582031 24.578125 0 13.578125 11.003906 24.582031 24.582031 24.582031h45.746093c-13.574218 0-24.578124-11.003906-24.578124-24.582031zm0 0" fill="#efb899"/><path d="m246.34375 366.046875h-185.34375c-13.574219 0-24.578125-11.003906-24.578125-24.578125 0-13.578125 11.003906-24.582031 24.578125-24.582031h185.34375c13.574219 0 24.582031 11.003906 24.582031 24.582031 0 13.574219-11.007812 24.578125-24.582031 24.578125zm0 0" fill="#f6d6c5"/><path d="m82.167969 341.46875c0-13.578125 11.003906-24.582031 24.582031-24.582031h-45.75c-13.574219 0-24.578125 11.003906-24.578125 24.582031 0 13.574219 11.003906 24.578125 24.578125 24.578125h45.75c-13.578125 0-24.582031-11.003906-24.582031-24.578125zm0 0" fill="#efb899"/><path d="m282.761719 512h-258.179688c-13.578125 0-24.582031-11.003906-24.582031-24.582031 0-13.574219 11.007812-24.578125 24.582031-24.578125h258.183594c13.574219 0 24.578125 11.003906 24.578125 24.578125 0 13.578125-11.003906 24.582031-24.582031 24.582031zm0 0" fill="#f6d6c5"/><path d="m45.75 487.417969c0-13.574219 11.003906-24.578125 24.578125-24.578125h-45.746094c-13.578125 0-24.582031 11.003906-24.582031 24.578125 0 13.578125 11.003906 24.582031 24.582031 24.582031h45.746094c-13.574219 0-24.578125-11.003906-24.578125-24.582031zm0 0" fill="#efb899"/><g fill="#454545"><path d="m202.511719 147.285156c-4.269531 0-7.726563-3.457031-7.726563-7.722656v-12.828125c0-4.265625 3.457032-7.726563 7.726563-7.726563 4.265625 0 7.722656 3.460938 7.722656 7.726563v12.828125c0 4.265625-3.457031 7.722656-7.722656 7.722656zm0 0"/><path d="m104.835938 147.285156c-4.269532 0-7.726563-3.457031-7.726563-7.722656v-12.828125c0-4.265625 3.457031-7.726563 7.726563-7.726563 4.265624 0 7.726562 3.460938 7.726562 7.726563v12.828125c0 4.265625-3.460938 7.722656-7.726562 7.722656zm0 0"/><path d="m158.949219 131.84375c-1.730469 2.539062-4.253907 2.847656-5.277344 2.847656s-3.589844-.28125-5.277344-2.847656c-2.34375-3.566406-7.132812-4.558594-10.699219-2.21875-3.566406 2.34375-4.558593 7.132812-2.214843 10.699219 4.035156 6.148437 10.835937 9.820312 18.191406 9.820312s14.15625-3.671875 18.191406-9.820312c2.34375-3.566407 1.351563-8.355469-2.214843-10.699219-1.304688-.859375-7.089844-3.082031-10.699219 2.21875zm0 0"/></g></svg>