<svg height="512pt" viewBox="-62 0 512 512.00103" width="512pt" xmlns="http://www.w3.org/2000/svg"><path d="m49.035156 190.816406h-33.695312c-8.472656 0-15.339844-6.871094-15.339844-15.339844v-31.78125c0-8.46875 6.867188-15.339843 15.339844-15.339843h33.695312zm0 0" fill="#575757"/><path d="m49.035156 259.59375h-33.695312c-8.472656 0-15.339844-6.867188-15.339844-15.339844v-13.519531c0-8.472656 6.867188-15.339844 15.339844-15.339844h33.695312zm0 0" fill="#575757"/><path d="m310.789062 512h-206.511718c-43.144532 0-78.121094-34.976562-78.121094-78.121094v-355.757812c0-43.144532 34.976562-78.121094 78.121094-78.121094h206.507812c43.144532 0 78.121094 34.976562 78.121094 78.121094v355.761718c0 43.140626-34.976562 78.117188-78.117188 78.117188zm0 0" fill="#b18cd9"/><path d="m145.257812 433.878906v-355.757812c0-43.144532 34.976563-78.121094 78.121094-78.121094h-119.101562c-43.144532 0-78.121094 34.976562-78.121094 78.121094v355.761718c0 43.140626 34.976562 78.117188 78.121094 78.117188h119.101562c-43.144531 0-78.121094-34.976562-78.121094-78.121094zm0 0" fill="#996acc"/><path d="m288.363281 243.90625h-161.664062c-21.136719 0-38.269531-17.132812-38.269531-38.269531v-103.027344c0-21.136719 17.132812-38.269531 38.269531-38.269531h161.664062c21.136719 0 38.269531 17.132812 38.269531 38.269531v103.027344c0 21.136719-17.132812 38.269531-38.269531 38.269531zm0 0" fill="#73da8c"/><path d="m288.363281 64.339844h-161.664062c-21.136719 0-38.269531 17.132812-38.269531 38.269531v49.078125c0-21.136719 17.132812-38.269531 38.269531-38.269531h161.664062c21.136719 0 38.273438 17.132812 38.273438 38.269531v-49.078125c-.003907-21.136719-17.136719-38.269531-38.273438-38.269531zm0 0" fill="#29ce69"/><path d="m161.277344 313.085938h-16.015625v-16.015626c0-10.535156-8.542969-19.078124-19.078125-19.078124s-19.078125 8.542968-19.078125 19.078124v16.015626h-16.019531c-10.535157 0-19.078126 8.542968-19.078126 19.082031 0 10.535156 8.542969 19.078125 19.078126 19.078125h16.019531v16.015625c0 10.535156 8.542969 19.078125 19.078125 19.078125s19.078125-8.542969 19.078125-19.078125v-16.015625h16.015625c10.539062 0 19.078125-8.542969 19.078125-19.078125 0-10.539063-8.539063-19.082031-19.078125-19.082031zm0 0" fill="#575757"/><path d="m271.441406 341.011719c0 12.046875-9.769531 21.8125-21.816406 21.8125s-21.8125-9.765625-21.8125-21.8125 9.765625-21.8125 21.8125-21.8125 21.816406 9.765625 21.816406 21.8125zm0 0" fill="#5ad6ff"/><path d="m343.773438 341.011719c0 12.046875-9.765626 21.8125-21.816407 21.8125-12.046875 0-21.8125-9.765625-21.8125-21.8125s9.765625-21.8125 21.8125-21.8125c12.050781 0 21.816407 9.765625 21.816407 21.8125zm0 0" fill="#5ad6ff"/><path d="m215.390625 426.570312h-23.695313c-9.09375 0-16.464843-7.371093-16.464843-16.464843s7.371093-16.464844 16.464843-16.464844h23.695313c9.09375 0 16.464844 7.371094 16.464844 16.464844s-7.371094 16.464843-16.464844 16.464843zm0 0" fill="#f9ee80"/><path d="m215.390625 482.601562h-23.695313c-9.09375 0-16.464843-7.371093-16.464843-16.464843s7.371093-16.464844 16.464843-16.464844h23.695313c9.09375 0 16.464844 7.371094 16.464844 16.464844s-7.371094 16.464843-16.464844 16.464843zm0 0" fill="#f9ee80"/><path d="m150.03125 180.886719c0-9.351563-9.523438-16.933594-21.265625-16.933594s-21.261719 7.582031-21.261719 16.933594c0 9.351562 9.519532 16.933593 21.261719 16.933593s21.265625-7.582031 21.265625-16.933593zm0 0" fill="#ff83b4"/><path d="m307.5625 180.886719c0-9.351563-9.523438-16.933594-21.265625-16.933594s-21.265625 7.582031-21.265625 16.933594c0 9.351562 9.523438 16.933593 21.265625 16.933593s21.265625-7.582031 21.265625-16.933593zm0 0" fill="#ff83b4"/><g fill="#454545"><path d="m271.203125 171.988281c-4.269531 0-7.726563-3.457031-7.726563-7.726562v-12.824219c0-4.269531 3.457032-7.726562 7.726563-7.726562s7.726563 3.457031 7.726563 7.726562v12.824219c0 4.269531-3.457032 7.726562-7.726563 7.726562zm0 0"/><path d="m143.859375 171.988281c-4.265625 0-7.726563-3.457031-7.726563-7.726562v-12.824219c0-4.269531 3.460938-7.726562 7.726563-7.726562 4.269531 0 7.726563 3.457031 7.726563 7.726562v12.824219c0 4.269531-3.457032 7.726562-7.726563 7.726562zm0 0"/><path d="m212.808594 156.542969c-1.730469 2.542969-4.253906 2.847656-5.277344 2.847656s-3.589844-.277344-5.277344-2.847656c-2.34375-3.566407-7.132812-4.558594-10.699218-2.214844-3.566407 2.34375-4.558594 7.132813-2.214844 10.699219 4.035156 6.148437 10.835937 9.816406 18.191406 9.816406s14.15625-3.667969 18.191406-9.816406c2.34375-3.566406 1.351563-8.355469-2.214844-10.699219-1.304687-.859375-7.089843-3.082031-10.699218 2.214844zm0 0"/></g></svg>