<svg height="512pt" viewBox="0 -96 512.0009 512" width="512pt" xmlns="http://www.w3.org/2000/svg"><path d="m11.273438 43.226562c-17.175782 30.097657-14.089844 66.214844 4.9375 92.601563 10.414062 14.433594 10.414062 33.765625 0 48.203125-19.027344 26.382812-22.113282 62.5-4.9375 92.601562 23.441406 41.089844 75.757812 55.394532 116.847656 31.953126 37.335937-21.304688 116.746094-103.070313 113.347656-148.65625 3.398438-45.589844-76.011719-127.355469-113.347656-148.65625-41.089844-23.445313-93.40625-9.136719-116.847656 31.953124zm0 0" fill="#fd5c6f"/><path d="m241.472656 159.929688c2.582032-34.652344-42.675781-90.203126-80.9375-124.21875-11.195312 14.378906-27.328125 40.625-34.671875 79.144531-2.339843 12.257812-5.085937 25.769531-5.074219 40.519531.015626 20.703125 2.125 36.550781 5.074219 49.625 7.878907 34.953125 22.796875 50.089844 27.648438 85.21875 39.484375-33.117188 90.703125-93.492188 87.960937-130.289062zm0 0" fill="#f6334c"/><path d="m125.863281 114.855469c24.890625 0 73.691407 20.179687 73.691407 45.074219 0 24.890624-48.800782 45.070312-73.691407 45.070312-24.894531 0-45.074219-20.179688-45.074219-45.070312 0-24.894532 20.179688-45.074219 45.074219-45.074219zm0 0" fill="#f6334c"/><path d="m199.554688 159.929688c0-24.894532-48.800782-45.074219-73.691407-45.074219-2.339843 12.257812-5.085937 25.769531-5.074219 40.519531.015626 20.703125 2.125 36.550781 5.074219 49.625 24.890625 0 73.691407-20.179688 73.691407-45.070312zm0 0" fill="#d22239"/><path d="m500.730469 43.226562c17.171875 30.097657 14.085937 66.214844-4.941407 92.601563-10.410156 14.433594-10.410156 33.765625 0 48.203125 19.027344 26.382812 22.113282 62.5 4.941407 92.601562-23.445313 41.089844-75.761719 55.394532-116.851563 31.953126-37.335937-21.304688-116.746094-103.070313-113.347656-148.65625-3.398438-45.589844 76.011719-127.355469 113.347656-148.65625 41.089844-23.445313 93.40625-9.136719 116.851563 31.953124zm0 0" fill="#fd5c6f"/><path d="m270.53125 159.929688c-2.582031-34.652344 42.675781-90.203126 80.933594-124.21875 11.195312 14.378906 27.328125 40.625 34.675781 79.144531 2.335937 12.257812 5.085937 25.769531 5.070313 40.519531-.015626 20.703125-2.125 36.550781-5.070313 49.625-7.882813 34.953125-22.796875 50.089844-27.652344 85.21875-39.484375-33.117188-90.699219-93.492188-87.957031-130.289062zm0 0" fill="#f6334c"/><path d="m386.140625 114.855469c-24.894531 0-73.695313 20.179687-73.695313 45.074219 0 24.890624 48.800782 45.070312 73.695313 45.070312 24.890625 0 45.070313-20.179688 45.070313-45.070312 0-24.894532-20.179688-45.074219-45.070313-45.074219zm0 0" fill="#f6334c"/><path d="m312.445312 159.929688c0-24.894532 48.800782-45.074219 73.695313-45.074219 2.335937 12.257812 5.085937 25.769531 5.070313 40.519531-.015626 20.703125-2.125 36.550781-5.070313 49.625-24.894531 0-73.695313-20.179688-73.695313-45.070312zm0 0" fill="#d22239"/><path d="m290.367188 243.015625h-68.734376c-26.90625 0-48.71875-21.8125-48.71875-48.71875v-68.734375c0-26.910156 21.8125-48.722656 48.71875-48.722656h68.734376c26.910156 0 48.722656 21.8125 48.722656 48.722656v68.734375c0 26.90625-21.8125 48.71875-48.722656 48.71875zm0 0" fill="#ff8a98"/><path d="m172.914062 125.5625v68.734375c0 26.90625 21.8125 48.71875 48.71875 48.71875h48.574219c-8.03125-38.757813-43.566406-49.117187-46.277343-95.179687-3.359376-57.082032 38.078124-69.0625 38.078124-69.0625l-.730468-1.933594h-39.644532c-26.90625 0-48.71875 21.8125-48.71875 48.722656zm0 0" fill="#fd5c6f"/></svg>