<svg height="512pt" viewBox="-44 0 512 512.00013" width="512pt" xmlns="http://www.w3.org/2000/svg"><path d="m355.113281 512h-285.527343c-16.832032 0-30.476563-13.644531-30.476563-30.476562v-14.675782c0-50.714844 41.113281-91.828125 91.828125-91.828125h162.824219c50.714843 0 91.828125 41.113281 91.828125 91.828125v14.675782c0 16.832031-13.644532 30.476562-30.476563 30.476562zm0 0" fill="#73da8c"/><path d="m179.054688 458.472656c73.679687-8.222656 96.425781-50.207031 96.425781-50.207031v-33.246094h-144.542969c-50.714844 0-91.828125 41.113281-91.828125 91.828125v14.675782c0 16.832031 13.644531 30.476562 30.476563 30.476562h21.421874c13.347657-19.648438 40.554688-48.230469 88.046876-53.527344zm0 0" fill="#29ce69"/><path d="m275.480469 404.832031c0 34.863281-28.265625 63.128907-63.128907 63.128907-34.867187 0-63.128906-28.265626-63.128906-63.128907 0-34.867187 28.261719-63.128906 63.128906-63.128906 34.863282 0 63.128907 28.261719 63.128907 63.128906zm0 0" fill="#ffbd86"/><path d="m212.351562 341.703125c-34.867187 0-63.128906 28.265625-63.128906 63.128906 0 22.648438 11.917969 42.5 29.832032 53.640625 70.78125-7.902344 94.566406-46.976562 96.320312-50.027344.070312-1.203124.105469-2.394531.105469-3.613281 0-34.863281-28.265625-63.128906-63.128907-63.128906zm0 0" fill="#ff9a5c"/><path d="m88.097656 276.96875c0 24.328125-19.71875 44.050781-44.046875 44.050781s-44.050781-19.722656-44.050781-44.050781 19.722656-44.046875 44.050781-44.046875 44.046875 19.71875 44.046875 44.046875zm0 0" fill="#ff9a5c"/><path d="m424.699219 276.96875c0 24.328125-19.71875 44.050781-44.046875 44.050781s-44.050782-19.722656-44.050782-44.050781 19.722657-44.046875 44.050782-44.046875 44.046875 19.71875 44.046875 44.046875zm0 0" fill="#ffbd86"/><path d="m228.335938 415.78125h-31.96875c-83.773438 0-152.316407-68.542969-152.316407-152.3125v-69.980469c0-92.5625 75.734375-168.300781 168.300781-168.300781 92.566407 0 168.300782 75.734375 168.300782 168.300781v69.980469c0 83.769531-68.542969 152.3125-152.316406 152.3125zm0 0" fill="#fed2a4"/><path d="m124.632812 300.777344c-7.851562-41.566406 4.984376-84.101563 33.089844-115.714844 41.796875-47.015625 54.628906-159.875 54.628906-159.875-92.566406 0-168.300781 75.734375-168.300781 168.300781v69.980469c0 83.203125 67.632813 151.382812 150.628907 152.304688-44.289063-36.683594-63.171876-78.589844-70.046876-114.996094zm0 0" fill="#ffbd86"/><path d="m117.949219 59.613281s-62.125 4.410157-76.238281 59.539063c-14.109376 55.128906 16.761718 86.441406 16.761718 86.441406h116.871094v-109.523438zm0 0" fill="#d97c41"/><path d="m59.972656 86.183594c2.152344 30.675781 11.160156 77.46875 42.769532 119.410156h72.601562v-109.523438l-57.394531-36.457031s-34.554688 2.449219-57.976563 26.570313zm0 0" fill="#af602d"/><path d="m95.84375 71.304688c3.855469 42.707031 24.109375 104.839843 103.253906 139.808593-3.105468.265625 181.105469-29.65625 181.105469-29.65625s15.050781-109.699219-74.8125-159.386719c-58.738281-32.472656-126.042969-22.695312-167.773437-11.03125-26.597657 7.433594-44.257813 32.761719-41.773438 60.265626zm0 0" fill="#e4996d"/><path d="m199.097656 211.113281c-.003906 0-.011718-.003906-.015625-.007812-.03125.007812-.027343.011719.015625.007812zm0 0" fill="#c68d6d"/><path d="m175.34375 96.074219c-30.539062-53.535157 10.917969-89.4375 18.304688-95.238281-21.078126 1.707031-40.359376 5.824218-56.03125 10.203124-26.597657 7.4375-44.257813 32.761719-41.773438 60.269532 3.855469 42.703125 24.105469 104.828125 103.238281 139.796875 1.332031-.367188 79.902344-13.179688 133.109375-21.839844-57.914062-61.347656-132.167968-49.925781-156.847656-93.191406zm0 0" fill="#d97c41"/><path d="m92.789062 186.699219-29.972656-9.382813c-9-2.816406-18.734375 1.390625-22.769531 9.917969-5.121094 10.804687-10.601563 27.628906-10.601563 50.128906s5.480469 39.324219 10.601563 50.128907c4.035156 8.527343 13.769531 12.734374 22.769531 9.917968l29.972656-9.386718zm0 0" fill="#575757"/><path d="m331.910156 186.699219 29.972656-9.382813c9.003907-2.816406 18.734376 1.390625 22.773438 9.917969 5.117188 10.804687 10.597656 27.628906 10.597656 50.128906s-5.480468 39.324219-10.597656 50.128907c-4.039062 8.527343-13.769531 12.734374-22.773438 9.917968l-29.972656-9.386718zm0 0" fill="#575757"/><path d="m297.371094 301.816406h-170.042969c-28.277344 0-51.199219-22.921875-51.199219-51.199218v-26.503907c0-28.277343 22.921875-51.199219 51.199219-51.199219h170.042969c28.277344 0 51.199218 22.921876 51.199218 51.199219v26.503907c0 28.277343-22.921874 51.199218-51.199218 51.199218zm0 0" fill="#7293df"/><path d="m230.972656 341.703125c0-14.050781-9.617187-25.445313-21.484375-25.445313-11.871093 0-21.488281 11.394532-21.488281 25.445313s9.617188 25.441406 21.488281 25.441406c11.867188 0 21.484375-11.390625 21.484375-25.441406zm0 0" fill="#575757"/><g fill="#fff"><path d="m297.371094 172.910156h-20.894532l-40.671874 40.671875c-6.441407 6.441407-6.441407 16.886719 0 23.328125 6.441406 6.441406 16.886718 6.441406 23.328124 0l59.425782-59.421875c-6.457032-2.9375-13.632813-4.578125-21.1875-4.578125zm0 0"/><path d="m147.179688 256.722656c-6.441407-6.441406-6.441407-16.882812 0-23.324218l15.394531-15.394532c6.441406-6.441406 16.886719-6.441406 23.328125 0s6.441406 16.882813 0 23.328125l-15.394532 15.390625c-6.441406 6.445313-16.886718 6.445313-23.328124 0zm0 0"/></g></svg>