<svg height="512pt" viewBox="-28 0 512 512.00027" width="512pt" xmlns="http://www.w3.org/2000/svg"><path d="m68.566406 284.449219s-34.734375 29.710937-37.207031 85.183593c-1.375 30.9375-14.363281 47.90625-26.617187 57.082032-8.1875 6.132812-5.246094 19.140625 4.765624 21.234375 23.699219 4.960937 60.699219 2.601562 101.972657-37.183594 1.683593-1.125 35.421875-71.128906 35.421875-71.128906zm0 0" fill="#ff6e42"/><path d="m388.074219 284.449219s34.730469 29.710937 37.203125 85.183593c1.378906 30.9375 14.363281 47.90625 26.617187 57.082032 8.1875 6.132812 5.246094 19.140625-4.765625 21.234375-23.695312 4.960937-60.695312 2.601562-101.96875-37.183594-1.683594-1.125-35.425781-71.128906-35.425781-71.128906zm0 0" fill="#ff6e42"/><path d="m375.019531 512h-285.523437c-16.832032 0-30.476563-13.644531-30.476563-30.476562v-14.675782c0-50.714844 41.113281-91.828125 91.828125-91.828125h162.824219c50.714844 0 91.828125 41.113281 91.828125 91.828125v14.675782c0 16.832031-13.648438 30.476562-30.480469 30.476562zm0 0" fill="#5ad6ff"/><path d="m236.339844 475.703125c28.636718-5.601563 49.621094-21.535156 49.621094-21.535156v-79.148438h-135.117188c-50.714844 0-91.824219 41.113281-91.824219 91.828125v14.675782c0 16.832031 13.644531 30.476562 30.476563 30.476562h122.023437c-3.117187-15.925781 7.332031-32.871094 24.820313-36.296875zm0 0" fill="#00c5fd"/><path d="m150.84375 375.019531c-16.5 0-31.980469 4.351563-45.363281 11.972657v125.007812h57.476562v-136.980469zm0 0" fill="#00a62c"/><path d="m313.671875 375.019531h-12.113281v136.980469h57.476562v-125.007812c-13.378906-7.621094-28.863281-11.972657-45.363281-11.972657zm0 0" fill="#29ce69"/><path d="m150.84375 375.019531-18.125 33.695313c-6.863281 12.757812-.785156 28.636718 12.84375 33.554687l32.996094 11.898438c12.765625 4.605469 26.960937-1.046875 33.070312-13.164063l20.628906-40.917968zm0 0" fill="#a4e7ff"/><path d="m313.671875 375.019531 18.125 33.695313c6.863281 12.757812.785156 28.636718-12.84375 33.554687l-32.992187 11.898438c-12.769532 4.605469-26.960938-1.046875-33.070313-13.164063l-20.632813-40.917968zm0 0" fill="#a4e7ff"/><path d="m108.007812 276.96875c0 24.328125-19.722656 44.050781-44.050781 44.050781s-44.046875-19.722656-44.046875-44.050781 19.71875-44.046875 44.046875-44.046875 44.050781 19.71875 44.050781 44.046875zm0 0" fill="#ffb2a6"/><path d="m444.609375 276.96875c0 24.328125-19.722656 44.050781-44.050781 44.050781s-44.050782-19.722656-44.050782-44.050781 19.722657-44.046875 44.050782-44.046875 44.050781 19.71875 44.050781 44.046875zm0 0" fill="#ffcbbe"/><path d="m248.242188 415.78125h-31.96875c-83.773438 0-152.316407-68.539062-152.316407-152.3125v-69.980469c0-92.5625 75.734375-168.300781 168.300781-168.300781 92.566407 0 168.300782 75.734375 168.300782 168.300781v69.980469c0 83.773438-68.542969 152.3125-152.316406 152.3125zm0 0" fill="#ffddcf"/><path d="m144.539062 300.777344c-7.851562-41.566406 4.984376-84.101563 33.089844-115.714844 41.796875-47.015625 54.628906-159.875 54.628906-159.875-92.566406 0-168.300781 75.734375-168.300781 168.300781v69.976563c0 83.207031 67.632813 151.386718 150.628907 152.308594-44.289063-36.683594-63.167969-78.589844-70.046876-114.996094zm0 0" fill="#ffcbbe"/><path d="m279.570312 273.621094c-11.566406-14.441406-28.8125-22.722656-47.3125-22.722656s-35.746093 8.28125-47.3125 22.722656l-12.0625-9.664063c14.519532-18.117187 36.160157-28.511719 59.375-28.511719 23.21875 0 44.859376 10.394532 59.375 28.511719zm0 0" fill="#767678"/><path d="m189.375 279.585938c0 22.207031-18 40.207031-40.207031 40.207031s-40.207031-18-40.207031-40.207031c0-22.207032 18-40.207032 40.207031-40.207032s40.207031 18 40.207031 40.207032zm0 0" fill="#81d9e7"/><path d="m355.554688 279.585938c0 22.207031-18 40.207031-40.207032 40.207031-22.203125 0-40.207031-18-40.207031-40.207031 0-22.207032 18.003906-40.207032 40.207031-40.207032 22.207032 0 40.207032 18 40.207032 40.207032zm0 0" fill="#81d9e7"/><g fill="#57565c"><path d="m232.257812 301.816406c-10 0-20-3.234375-28.34375-9.707031-3.371093-2.617187-3.984374-7.46875-1.367187-10.84375 2.613281-3.371094 7.46875-3.984375 10.839844-1.367187 11.109375 8.617187 26.632812 8.617187 37.746093 0 3.371094-2.617188 8.222657-2.003907 10.839844 1.367187 2.613282 3.375 2 8.226563-1.371094 10.84375-8.34375 6.472656-18.34375 9.707031-28.34375 9.707031zm0 0"/><path d="m315.347656 293.726562c-4.265625 0-7.726562-3.460937-7.726562-7.726562v-12.828125c0-4.265625 3.460937-7.726563 7.726562-7.726563 4.269532 0 7.726563 3.460938 7.726563 7.726563v12.828125c0 4.265625-3.457031 7.726562-7.726563 7.726562zm0 0"/><path d="m149.167969 293.726562c-4.269531 0-7.726563-3.460937-7.726563-7.726562v-12.828125c0-4.265625 3.457032-7.726563 7.726563-7.726563 4.265625 0 7.726562 3.460938 7.726562 7.726563v12.828125c0 4.265625-3.460937 7.726562-7.726562 7.726562zm0 0"/></g><path d="m232.257812 83.695312s16.636719 159.050782 186.855469 155.351563c10.328125-.222656 17.234375-10.902344 13.03125-20.335937-4.347656-9.761719-8.429687-24.316407-9.546875-45.796876-2.691406-51.554687-55.28125-160.949218-159.003906-135.84375 1.1875.894532-31.335938 46.625-31.335938 46.625zm0 0" fill="#ff6e42"/><path d="m280.632812 186.847656c50.714844-28.753906 67.15625-93.644531 72.449219-135.410156-23.71875-15.613281-53.527343-23.074219-89.488281-14.371094 1.1875.898438-31.335938 46.628906-31.335938 46.628906s6.066407 58.015626 48.375 103.152344zm0 0" fill="#ff4a0d"/><path d="m300.210938 63.425781c-34.296876 58.597657-110.882813 154.183594-254.207032 178.054688-13.785156 2.296875-24.585937-11.476563-19.371094-24.445313 5.042969-12.535156 9.234376-29.738281 9.613282-52.714844 1.003906-61.269531 27.570312-132 105.195312-153.761718 49.789063-13.957032 96.851563-11.789063 130.59375-6.480469 27.648438 4.351563 42.3125 35.191406 28.175782 59.347656zm0 0" fill="#ff8f71"/></svg>