<svg height="512pt" viewBox="0 0 512 512.00077" width="512pt" xmlns="http://www.w3.org/2000/svg"><path d="m497.9375 497.9375c-18.75 18.75-49.152344 18.75-67.902344 0l-130.148437-130.148438 67.902343-67.902343 130.148438 130.148437c18.75 18.75 18.75 49.152344 0 67.902344zm0 0" fill="#b18cd9"/><path d="m367.789062 299.886719-67.902343 67.902343 92.285156 92.285157c3.035156-12.945313 9.6875-28.746094 23.714844-44.1875 12.199219-13.425781 19.710937-29.164063 24.34375-43.558594zm0 0" fill="#996acc"/><path d="m402.714844 359.851562-47.597656 47.597657c-22.675782 22.675781-59.441407 22.675781-82.117188 0l-53.832031-53.832031 129.710937-129.710938 53.832032 53.832031c22.679687 22.675781 22.679687 59.4375.003906 82.113281zm0 0" fill="#f4e74d"/><path d="m342.792969 362.6875c31.878906-29.503906 46.21875-69.464844 52.214843-92.65625l-46.128906-46.125-129.710937 129.710938 53.832031 53.832031c20.792969 20.796875 53.453125 22.507812 76.210938 5.164062-16.988282-9.097656-23.347657-34.261719-6.417969-49.925781zm0 0" fill="#dfca00"/><path d="m390.390625 195.195312c0 107.800782-87.390625 195.195313-195.195313 195.195313-107.804687 0-195.195312-87.394531-195.195312-195.195313 0-107.804687 87.390625-195.195312 195.195312-195.195312 107.804688 0 195.195313 87.390625 195.195313 195.195312zm0 0" fill="#c7aee4"/><path d="m333.21875 57.171875c-76.230469-76.230469-199.820312-76.230469-276.046875 0-76.230469 76.226563-76.230469 199.816406 0 276.046875 40.558594 40.558594 94.527344 59.535156 147.636719 56.933594-15.402344-45.925782-69.570313-63.425782-60.449219-197.296875 11.773437-172.84375 188.859375-135.683594 188.859375-135.683594zm0 0" fill="#b18cd9"/><path d="m289.476562 289.476562c-51.984374 51.988282-136.578124 51.988282-188.5625 0-51.988281-51.988281-51.988281-136.578124 0-188.566406 51.984376-51.984375 136.574219-51.984375 188.5625 0 51.988282 51.988282 51.988282 136.578125 0 188.566406zm0 0" fill="#a4e7ff"/><path d="m161.71875 161.71875c41.351562-41.355469 103.34375-49.804688 153.136719-25.367188-6.285157-12.800781-14.746094-24.804687-25.378907-35.441406-51.988281-51.984375-136.578124-51.984375-188.5625 0-51.988281 51.988282-51.988281 136.578125 0 188.566406 10.632813 10.632813 22.632813 19.09375 35.4375 25.375-24.4375-49.789062-15.988281-111.777343 25.367188-153.132812zm0 0" fill="#5ad6ff"/><g fill="#575757"><path d="m141.703125 150.539062 28.730469-7.980468c4.113281-1.140625 8.371094 1.261718 9.515625 5.375 1.140625 4.113281-1.265625 8.371094-5.378907 9.511718l-28.730468 7.984376zm0 0"/><path d="m100.097656 167.378906c-1.253906-4.078125 1.03125-8.402344 5.109375-9.65625l28.503907-8.769531 4.542968 14.769531-28.5 8.769532c-5.40625 1.503906-8.632812-1.789063-9.65625-5.113282zm0 0"/><path d="m133.09375 205.582031-29.003906-6.925781c-4.152344-.992188-6.710938-5.160156-5.722656-9.308594.992187-4.152344 5.160156-6.710937 9.3125-5.722656l29.003906 6.925781zm0 0"/><path d="m146.195312 172.488281 29.820313-.203125c4.25.003906 7.746094 3.410156 7.777344 7.675782.027343 4.265624-3.40625 7.75-7.671875 7.777343l-29.820313.203125zm0 0"/><path d="m167.742188 216.960938-28.28125-9.449219 4.898437-14.65625 28.28125 9.449219c4.046875 1.355468 6.230469 5.730468 4.878906 9.777343-1.082031 3.238281-3.804687 6.574219-9.777343 4.878907zm0 0"/></g><path d="m125.109375 219.277344c-9.507813-6.246094-12.15625-19.023438-5.90625-28.53125 5.046875-7.683594 5.046875-17.613282 0-25.296875-6.25-9.511719-3.605469-22.285157 5.90625-28.53125 9.511719-6.246094 22.285156-3.601563 28.535156 5.90625 14.074219 21.425781 13.574219 48.796875 0 70.542969-9.316406 14.921874-25.046875 8.199218-28.535156 5.910156zm0 0" fill="#29ce69"/><path d="m289.871094 169.675781c0 13.761719-11.15625 24.917969-24.921875 24.917969-13.761719 0-24.917969-11.15625-24.917969-24.917969s11.15625-24.917969 24.917969-24.917969c13.765625 0 24.921875 11.15625 24.921875 24.917969zm0 0" fill="#ff8a98"/><path d="m252.714844 268.960938c0 13.761718-11.15625 24.917968-24.917969 24.917968s-24.917969-11.15625-24.917969-24.917968c0-13.761719 11.15625-24.921876 24.917969-24.921876s24.917969 11.160157 24.917969 24.921876zm0 0" fill="#eedb00"/><path d="m191.519531 109.597656c0 4.269532-3.460937 7.726563-7.726562 7.726563s-7.726563-3.457031-7.726563-7.726563c0-4.265625 3.460938-7.726562 7.726563-7.726562s7.726562 3.460937 7.726562 7.726562zm0 0" fill="#fff"/><path d="m161.648438 268.960938c0 4.265624-3.460938 7.726562-7.726563 7.726562s-7.726563-3.460938-7.726563-7.726562c0-4.269532 3.460938-7.726563 7.726563-7.726563s7.726563 3.457031 7.726563 7.726563zm0 0" fill="#fff"/><path d="m221.339844 202.222656c0 4.269532-3.460938 7.726563-7.726563 7.726563-4.269531 0-7.726562-3.457031-7.726562-7.726563 0-4.265625 3.457031-7.726562 7.726562-7.726562 4.265625 0 7.726563 3.460937 7.726563 7.726562zm0 0" fill="#fff"/><path d="m292.804688 230.507812c0 4.265626-3.457032 7.726563-7.726563 7.726563-4.265625 0-7.726563-3.460937-7.726563-7.726563 0-4.265624 3.460938-7.726562 7.726563-7.726562 4.269531 0 7.726563 3.460938 7.726563 7.726562zm0 0" fill="#fff"/><path d="m468.414062 44.800781 5.09375 9.316407c5.085938 9.296874 12.726563 16.9375 22.023438 22.023437l9.316406 5.09375c9.535156 5.21875 9.535156 18.914063 0 24.128906l-9.316406 5.097657c-9.296875 5.082031-16.9375 12.726562-22.023438 22.019531l-5.09375 9.320312c-5.21875 9.535157-18.914062 9.535157-24.128906 0l-5.097656-9.320312c-5.082031-9.292969-12.726562-16.9375-22.019531-22.019531l-9.320313-5.097657c-9.535156-5.214843-9.535156-18.910156 0-24.128906l9.320313-5.09375c9.292969-5.085937 16.9375-12.726563 22.019531-22.023437l5.097656-9.316407c5.214844-9.539062 18.910156-9.539062 24.128906 0zm0 0" fill="#f4e74d"/><path d="m126.65625 410.207031 3.902344 7.136719c3.890625 7.117188 9.742187 12.96875 16.859375 16.859375l7.136719 3.902344c7.300781 3.992187 7.300781 14.480469 0 18.476562l-7.136719 3.902344c-7.117188 3.890625-12.96875 9.742187-16.859375 16.859375l-3.902344 7.136719c-3.992188 7.300781-14.480469 7.300781-18.472656 0l-3.902344-7.136719c-3.894531-7.117188-9.746094-12.96875-16.863281-16.859375l-7.132813-3.902344c-7.304687-3.996093-7.304687-14.480469 0-18.476562l7.132813-3.902344c7.117187-3.890625 12.96875-9.742187 16.863281-16.859375l3.902344-7.136719c3.992187-7.300781 14.480468-7.300781 18.472656 0zm0 0" fill="#f4e74d"/></svg>