<svg height="512pt" viewBox="0 -54 512 512" width="512pt" xmlns="http://www.w3.org/2000/svg"><path d="m446.566406 403.292969h-381.132812c-36.136719 0-65.433594-29.296875-65.433594-65.433594v-272.425781c0-36.136719 29.296875-65.433594 65.433594-65.433594h381.128906c36.140625 0 65.4375 29.296875 65.4375 65.433594v272.425781c0 36.136719-29.296875 65.433594-65.433594 65.433594zm0 0" fill="#767678"/><path d="m0 65.433594v272.425781c0 36.136719 29.296875 65.433594 65.433594 65.433594h85.65625c-22.34375-26.171875-23.800782-67.257813-23.800782-67.257813s-.179687-42.121094-.277343-85.660156c-.109375-50 21.085937-97.769531 58.496093-130.941406 57.25-50.757813 70.492188-119.433594 70.492188-119.433594h-190.566406c-36.136719 0-65.433594 29.296875-65.433594 65.433594zm0 0" fill="#575757"/><path d="m446.566406 0h-381.132812c-36.136719 0-65.433594 29.296875-65.433594 65.433594v22.488281h512v-22.488281c0-36.136719-29.296875-65.433594-65.433594-65.433594zm0 0" fill="#a4e7ff"/><path d="m0 65.433594v22.488281h214.523438c32.949218-43.703125 41.476562-87.921875 41.476562-87.921875h-190.566406c-36.136719 0-65.433594 29.296875-65.433594 65.433594zm0 0" fill="#5ad6ff"/><path d="m86.003906 43.960938c0 8.515624-6.90625 15.417968-15.421875 15.417968-8.511719 0-15.417969-6.902344-15.417969-15.417968 0-8.515626 6.90625-15.417969 15.417969-15.417969 8.515625 0 15.421875 6.902343 15.421875 15.417969zm0 0" fill="#ff8a98"/><path d="m142.707031 43.960938c0 8.515624-6.902343 15.417968-15.417969 15.417968-8.515624 0-15.417968-6.902344-15.417968-15.417968 0-8.515626 6.902344-15.417969 15.417968-15.417969 8.515626 0 15.417969 6.902343 15.417969 15.417969zm0 0" fill="#eedb00"/><path d="m199.414062 43.960938c0 8.515624-6.90625 15.417968-15.421874 15.417968-8.515626 0-15.417969-6.902344-15.417969-15.417968 0-8.515626 6.902343-15.417969 15.417969-15.417969 8.515624 0 15.421874 6.902343 15.421874 15.417969zm0 0" fill="#00c140"/><path d="m174.722656 305.234375-61.246094-47.46875c-3.777343-2.925781-5.988281-7.4375-5.988281-12.214844 0-4.777343 2.210938-9.285156 5.988281-12.210937l61.246094-47.46875c6.746094-5.230469 16.453125-4 21.679688 2.746094 5.230468 6.746093 4 16.453124-2.746094 21.679687l-45.488281 35.253906 45.488281 35.253907c6.746094 5.230468 7.976562 14.9375 2.746094 21.679687-3.042969 3.929687-11.179688 9.921875-21.679688 2.75zm0 0" fill="#73da8c"/><path d="m337.277344 305.234375 61.246094-47.46875c3.777343-2.925781 5.988281-7.4375 5.988281-12.214844 0-4.777343-2.210938-9.285156-5.988281-12.210937l-61.246094-47.46875c-6.746094-5.230469-16.453125-4-21.679688 2.746094-5.230468 6.746093-4 16.453124 2.746094 21.679687l45.488281 35.253906-45.488281 35.253907c-6.742188 5.230468-7.976562 14.9375-2.746094 21.679687 3.042969 3.929687 11.179688 9.921875 21.679688 2.75zm0 0" fill="#73da8c"/><path d="m237.191406 332.316406c-8.34375-1.804687-13.636718-10.035156-11.828125-18.375l31.070313-143.347656c1.808594-8.34375 10.035156-13.636719 18.375-11.832031 8.339844 1.808593 13.636718 10.035156 11.828125 18.375l-31.070313 143.351562c-3.683594 15.511719-17.273437 12.066407-18.375 11.828125zm0 0" fill="#00c140"/></svg>