<svg height="512pt" viewBox="-27 0 512 512" width="512pt" xmlns="http://www.w3.org/2000/svg"><path d="m354.386719 341.785156h-250.496094c-31.695313 0-57.386719-25.691406-57.386719-57.382812v-227.019532c0-31.691406 25.691406-57.382812 57.386719-57.382812h250.496094c31.695312 0 57.386719 25.691406 57.386719 57.382812v227.019532c0 31.691406-25.691407 57.382812-57.386719 57.382812zm0 0" fill="#a8a8a8"/><path d="m46.503906 57.382812v227.019532c0 31.691406 25.691406 57.382812 57.386719 57.382812h63.460937c-21.9375-22.042968-21.304687-53.390625-21.304687-53.390625v-157.121093c0-24.492188 9.867187-47.957032 27.378906-65.082032 30.820313-30.132812 35.046875-66.191406 35.046875-66.191406h-104.582031c-31.695313 0-57.386719 25.691406-57.386719 57.382812zm0 0" fill="#919191"/><path d="m335.789062 256h-213.300781c-21.476562 0-38.882812-17.410156-38.882812-38.882812v-140.027344c0-21.472656 17.40625-38.882813 38.882812-38.882813h213.300781c21.476563 0 38.882813 17.410157 38.882813 38.882813v140.027344c0 21.472656-17.40625 38.882812-38.882813 38.882812zm0 0" fill="#f4e74d"/><path d="m122.488281 38.207031c-21.476562 0-38.882812 17.410157-38.882812 38.882813v140.027344c0 21.476562 17.40625 38.882812 38.882812 38.882812h23.558594v-124.726562c0-24.492188 9.867187-47.957032 27.378906-65.082032 9.386719-9.175781 16.300781-18.894531 21.386719-27.984375zm0 0" fill="#eedb00"/><path d="m411.167969 512h-364.058594c-26.015625 0-47.109375-21.09375-47.109375-47.109375v-79.710937c0-26.015626 21.09375-47.109376 47.109375-47.109376h364.058594c26.019531 0 47.109375 21.09375 47.109375 47.109376v79.710937c0 26.015625-21.089844 47.109375-47.109375 47.109375zm0 0" fill="#c6c6c6"/><path d="m111.210938 485.839844v-121.609375c0-14.449219 11.710937-26.160157 26.15625-26.160157h-90.257813c-26.015625 0-47.109375 21.09375-47.109375 47.109376v79.710937c0 26.015625 21.09375 47.109375 47.109375 47.109375h90.257813c-14.445313 0-26.15625-11.710938-26.15625-26.160156zm0 0" fill="#a8a8a8"/><path d="m404.046875 400.621094h-137.515625c-4.269531 0-7.726562-3.460938-7.726562-7.726563s3.457031-7.726562 7.726562-7.726562h137.515625c4.265625 0 7.726563 3.460937 7.726563 7.726562s-3.460938 7.726563-7.726563 7.726563zm0 0" fill="#575757"/><path d="m395.226562 473.277344h-119.878906c-9.136718 0-16.542968-7.410156-16.542968-16.546875v-15.148438c0-9.140625 7.40625-16.546875 16.542968-16.546875h119.878906c9.136719 0 16.546876 7.40625 16.546876 16.546875v15.148438c0 9.136719-7.410157 16.546875-16.546876 16.546875zm0 0" fill="#767678"/><path d="m307.773438 456.730469v-15.152344c0-9.136719 7.40625-16.542969 16.546874-16.542969h-48.972656c-9.136718 0-16.542968 7.40625-16.542968 16.542969v15.152344c0 9.136719 7.40625 16.546875 16.542968 16.546875h48.972656c-9.140624 0-16.546874-7.410156-16.546874-16.546875zm0 0" fill="#575757"/><path d="m221.945312 512h-80.226562v-98.875c0-15.441406 12.515625-27.957031 27.957031-27.957031h24.3125c15.4375 0 27.957031 12.515625 27.957031 27.957031zm0 0" fill="#a8a8a8"/><path d="m92.988281 395.375c0 10.03125-8.132812 18.164062-18.164062 18.164062s-18.160157-8.132812-18.160157-18.164062 8.128907-18.160156 18.160157-18.160156 18.164062 8.128906 18.164062 18.160156zm0 0" fill="#ff8a98"/><path d="m92.988281 449.15625c0 10.03125-8.132812 18.160156-18.164062 18.160156s-18.160157-8.128906-18.160157-18.160156 8.128907-18.164062 18.160157-18.164062 18.164062 8.132812 18.164062 18.164062zm0 0" fill="#73da8c"/><path d="m229.140625 184.078125c-15.988281 0-28.949219-12.960937-28.949219-28.949219v-21.046875c0-4.363281 3.539063-7.902343 7.902344-7.902343h42.09375c4.363281 0 7.902344 3.539062 7.902344 7.902343v21.046875c-.003906 15.988282-12.960938 28.949219-28.949219 28.949219zm0 0" fill="#575757"/><path d="m163.183594 155.128906c0-13.582031-13.824219-24.589844-30.878906-24.589844-17.050782 0-30.875 11.007813-30.875 24.589844 0 13.582032 13.824218 24.589844 30.875 24.589844 17.054687 0 30.878906-11.007812 30.878906-24.589844zm0 0" fill="#ffabcd"/><path d="m356.847656 155.128906c0-13.582031-13.824218-24.589844-30.875-24.589844-17.054687 0-30.878906 11.007813-30.878906 24.589844 0 13.582032 13.824219 24.589844 30.878906 24.589844 17.050782 0 30.875-11.007812 30.875-24.589844zm0 0" fill="#ffabcd"/><path d="m312.230469 141.628906c-4.269531 0-7.726563-3.457031-7.726563-7.726562v-12.824219c0-4.269531 3.457032-7.726563 7.726563-7.726563s7.726562 3.457032 7.726562 7.726563v12.824219c0 4.269531-3.460937 7.726562-7.726562 7.726562zm0 0" fill="#575757"/><path d="m146.046875 141.628906c-4.265625 0-7.726563-3.457031-7.726563-7.726562v-12.824219c0-4.269531 3.460938-7.726563 7.726563-7.726563 4.269531 0 7.726563 3.457032 7.726563 7.726563v12.824219c0 4.269531-3.457032 7.726562-7.726563 7.726562zm0 0" fill="#575757"/><path d="m160.273438 312.488281h-47.960938c-8.535156 0-15.453125-6.917969-15.453125-15.453125s6.917969-15.453125 15.453125-15.453125h47.960938c8.53125 0 15.453124 6.917969 15.453124 15.453125s-6.917968 15.453125-15.453124 15.453125zm0 0" fill="#919191"/><path d="m112.3125 312.488281h37.746094c-4.226563-13.339843-4.011719-24.097656-4.011719-24.097656v-6.808594h-33.734375c-8.535156 0-15.453125 6.917969-15.453125 15.453125s6.917969 15.453125 15.453125 15.453125zm0 0" fill="#767678"/><path d="m223.925781 297.035156c0 8.535156-6.917969 15.453125-15.453125 15.453125s-15.453125-6.917969-15.453125-15.453125 6.917969-15.453125 15.453125-15.453125 15.453125 6.917969 15.453125 15.453125zm0 0" fill="#919191"/></svg>