<svg height="511pt" viewBox="-14 0 511 511.99995" width="511pt" xmlns="http://www.w3.org/2000/svg"><path d="m225.574219 11.792969s-40.515625 35.929687-17.140625 155.050781c-.902344-2.242188 36.859375 6.746094 36.859375 6.746094s-4.710938-59.691406 36.300781-113c-.953125 1.121094-56.019531-48.796875-56.019531-48.796875zm0 0" fill="#d97c41"/><path d="m289.898438 37.175781c0 20.53125-16.644532 37.175781-37.175782 37.175781s-37.175781-16.644531-37.175781-37.175781 16.644531-37.175781 37.175781-37.175781 37.175782 16.644531 37.175782 37.175781zm0 0" fill="#ffa93f"/><path d="m325.269531 106.800781c-23.640625-1.878906-46.589843 4.117188-67.445312 16.34375-18.148438 10.640625-40.710938 10.640625-58.863281 0-20.855469-12.226562-43.804688-18.222656-67.445313-16.34375-80.746094 6.414063-139 102.246094-130.121094 214.046875 8.882813 111.796875 81.542969 197.226563 162.285157 190.8125 15.566406-1.234375 30.296874-5.796875 43.871093-13.152344 13.050781-7.074218 28.632813-7.074218 41.6875 0 13.570313 7.359376 28.300781 11.917969 43.867188 13.152344 80.746093 6.414063 153.402343-79.015625 162.285156-190.8125 8.882813-111.800781-49.375-207.632812-130.121094-214.046875zm0 0" fill="#ff8a98"/><path d="m198.960938 123.144531c-20.855469-12.226562-43.804688-18.222656-67.445313-16.34375-80.746094 6.414063-139.003906 102.246094-130.121094 214.046875 8.882813 111.796875 81.539063 197.226563 162.285157 190.8125 13.765624-1.09375 26.875-4.785156 39.113281-10.714844-36.382813-59.199218-49.242188-113.203124-52.046875-155.339843-3.074219-46.261719 18.214844-90.640625 55.824218-117.753907 83.71875-60.347656 83.328126-118.015624 83.328126-118.015624-11.085938 2.804687-21.832032 7.304687-32.074219 13.308593-18.152344 10.640625-40.710938 10.640625-58.863281 0zm0 0" fill="#ff6e80"/><path d="m397.960938 357.976562c0-34.136718-26.425782-61.8125-59.019532-61.8125-32.597656 0-59.023437 27.675782-59.023437 61.8125 0 34.136719 26.425781 61.8125 59.023437 61.8125 32.59375 0 59.019532-27.675781 59.019532-61.8125zm0 0" fill="#767678"/><path d="m374.167969 392.335938c-32.597657 0-59.019531-27.675782-59.019531-61.8125 0-11.84375 3.191406-22.917969 8.707031-32.320313-25.285157 6.984375-43.933594 31.097656-43.933594 59.773437 0 34.136719 26.421875 61.8125 59.019531 61.8125 21.285156 0 39.941406-11.808593 50.324219-29.503906-4.816406 1.328125-9.882813 2.050782-15.097656 2.050782zm0 0" fill="#575757"/><path d="m483.875 224.449219c-2.875-16.867188-18.898438-28.210938-35.753906-25.328125-23.453125 4.007812-81.25 21.765625-111.242188 100.007812-8.007812 20.890625-19.164062 35.082032-33.15625 42.183594-9.285156 4.710938-18.0625 5.332031-22.796875 5.238281-.660156 3.703125-1.007812 7.519531-1.007812 11.425781 0 19.707032 8.796875 37.25 22.515625 48.570313 8.972656-1.707031 19.019531-4.746094 29.328125-9.976563 28.113281-14.265624 49.300781-39.585937 62.976562-75.261718 18.589844-48.492188 50.816407-58.886719 63.8125-61.101563 16.867188-2.882812 28.203125-18.890625 25.324219-35.757812zm0 0" fill="#73da8c"/><path d="m315.207031 333.324219c-3.585937 3.261719-7.40625 5.917969-11.484375 7.988281-9.285156 4.710938-18.0625 5.332031-22.796875 5.238281-.660156 3.703125-1.007812 7.519531-1.007812 11.425781 0 19.707032 8.796875 37.25 22.515625 48.570313 8.972656-1.707031 19.019531-4.746094 29.328125-9.976563 5.875-2.980468 11.449219-6.445312 16.710937-10.386718-18.972656-9.625-32.285156-29.550782-33.265625-52.859375zm0 0" fill="#29ce69"/><path d="m162.4375 221.191406c0-13.578125-13.824219-24.589844-30.878906-24.589844-17.050782 0-30.875 11.011719-30.875 24.589844 0 13.582032 13.824218 24.589844 30.875 24.589844 17.054687 0 30.878906-11.007812 30.878906-24.589844zm0 0" fill="#fff"/><path d="m356.101562 221.191406c0-13.578125-13.824218-24.589844-30.875-24.589844-17.054687 0-30.878906 11.011719-30.878906 24.589844 0 13.582032 13.824219 24.589844 30.878906 24.589844 17.050782 0 30.875-11.007812 30.875-24.589844zm0 0" fill="#fff"/><g fill="#57565c"><path d="m228.390625 217.199219c-10 0-20-3.234375-28.34375-9.707031-3.371094-2.617188-3.984375-7.46875-1.367187-10.84375 2.613281-3.371094 7.46875-3.984376 10.839843-1.367188 11.109375 8.617188 26.632813 8.617188 37.746094 0 3.367187-2.617188 8.222656-2.003906 10.839844 1.367188 2.613281 3.375 2 8.226562-1.371094 10.84375-8.34375 6.472656-18.34375 9.707031-28.34375 9.707031zm0 0"/><path d="m150.578125 202.378906c-1.730469-2.542968-4.253906-2.847656-5.277344-2.847656-1.023437 0-3.589843.277344-5.277343 2.847656-2.34375 3.566406-7.132813 4.558594-10.699219 2.214844-3.566407-2.34375-4.558594-7.132812-2.214844-10.699219 4.035156-6.148437 10.835937-9.816406 18.191406-9.816406s14.15625 3.667969 18.195313 9.816406c2.339844 3.566407 1.347656 8.355469-2.21875 10.699219-1.308594.859375-7.089844 3.082031-10.699219-2.214844zm0 0"/><path d="m316.761719 202.378906c-1.734375-2.542968-4.253907-2.847656-5.277344-2.847656s-3.589844.277344-5.277344 2.847656c-2.34375 3.566406-7.136719 4.558594-10.699219 2.214844-3.566406-2.34375-4.558593-7.132812-2.21875-10.699219 4.039063-6.148437 10.839844-9.816406 18.195313-9.816406 7.351563 0 14.152344 3.667969 18.191406 9.816406 2.34375 3.566407 1.351563 8.355469-2.214843 10.699219-1.308594.859375-7.089844 3.082031-10.699219-2.214844zm0 0"/></g><path d="m456.285156 224.925781c0 4.265625-3.460937 7.726563-7.726562 7.726563-4.269532 0-7.726563-3.460938-7.726563-7.726563s3.457031-7.726562 7.726563-7.726562c4.265625 0 7.726562 3.460937 7.726562 7.726562zm0 0" fill="#898890"/></svg>