<svg height="512pt" viewBox="0 -19 512 511" width="512pt" xmlns="http://www.w3.org/2000/svg"><path d="m260.789062 237.644531-27.84375-35.808593c-7.953124-10.230469-7.953124-24.519532 0-34.75l20.46875-26.320313-20.464843-26.316406c-7.957031-10.230469-7.957031-24.519531 0-34.753907l27.839843-35.796874c5.238282-6.738282 14.949219-7.953126 21.683594-2.710938 6.738282 5.238281 7.953125 14.949219 2.714844 21.683594l-26.601562 34.203125 20.464843 26.316406c7.957031 10.226563 7.957031 24.515625.003907 34.746094l-20.46875 26.324219 26.601562 34.210937zm0 0" fill="#767678"/><path d="m322.09375 40.328125c0 21.996094-17.832031 39.824219-39.828125 39.824219s-39.824219-17.828125-39.824219-39.824219 17.828125-39.828125 39.824219-39.828125 39.828125 17.832031 39.828125 39.828125zm0 0" fill="#fd5c6f"/><path d="m86.773438 390.679688h-49.945313c-20.339844 0-36.828125-16.488282-36.828125-36.828126v-60.09375c0-20.339843 16.488281-36.828124 36.828125-36.828124h49.945313zm0 0" fill="#fd5c6f"/><path d="m425.226562 390.679688h49.945313c20.339844 0 36.828125-16.488282 36.828125-36.828126v-60.09375c0-20.339843-16.488281-36.828124-36.828125-36.828124h-49.945313zm0 0" fill="#ff8a98"/><path d="m330.820312 474.105469h-149.640624c-70.167969 0-127.046876-56.878907-127.046876-127.046875v-46.511719c0-70.164063 56.878907-127.042969 127.046876-127.042969h149.640624c70.167969 0 127.046876 56.878906 127.046876 127.042969v46.511719c0 70.167968-56.878907 127.046875-127.046876 127.046875zm0 0" fill="#b5e9f1"/><path d="m300.109375 173.503906h-118.929687c-70.167969 0-127.046876 56.878906-127.046876 127.046875v46.507813c0 70.167968 56.878907 127.046875 127.046876 127.046875h98.113281c-25.679688-65.269531-85.351563-70.917969-86.964844-170.546875-1.859375-115.054688 107.78125-130.054688 107.78125-130.054688zm0 0" fill="#81d9e7"/><path d="m336.015625 358.144531h-160.03125c-33.074219 0-59.890625-26.8125-59.890625-59.890625s26.816406-59.890625 59.890625-59.890625h160.03125c33.074219 0 59.890625 26.8125 59.890625 59.890625s-26.816406 59.890625-59.890625 59.890625zm0 0" fill="#f9ee80"/><path d="m175.984375 238.363281c-33.074219 0-59.890625 26.8125-59.890625 59.890625s26.816406 59.890625 59.890625 59.890625h25.152344c-5.167969-14.625-8.445313-32.230469-8.808594-54.585937-.433594-26.804688 5.183594-48.175782 14.058594-65.195313zm0 0" fill="#eedb00"/><path d="m312.195312 409.679688h-112.390624c-13.273438 0-24.035157 10.761718-24.035157 24.035156v40.277344c1.792969.074218 3.597657.113281 5.410157.113281h149.640624c1.8125 0 3.617188-.039063 5.410157-.113281v-40.277344c0-13.273438-10.761719-24.035156-24.035157-24.035156zm0 0" fill="#81d9e7"/><path d="m198.5 312.457031c0-9.355469-9.523438-16.933593-21.265625-16.933593s-21.265625 7.578124-21.265625 16.933593c0 9.351563 9.523438 16.929688 21.265625 16.929688s21.265625-7.578125 21.265625-16.929688zm0 0" fill="#fff"/><path d="m356.03125 312.457031c0-9.355469-9.523438-16.933593-21.265625-16.933593s-21.265625 7.578124-21.265625 16.933593c0 9.351563 9.523438 16.929688 21.265625 16.929688s21.265625-7.578125 21.265625-16.929688zm0 0" fill="#fff"/><g fill="#575757"><path d="m319.671875 303.558594c-4.269531 0-7.726563-3.457032-7.726563-7.726563v-12.824219c0-4.269531 3.457032-7.726562 7.726563-7.726562 4.265625 0 7.726563 3.457031 7.726563 7.726562v12.824219c0 4.269531-3.460938 7.726563-7.726563 7.726563zm0 0"/><path d="m192.328125 303.558594c-4.265625 0-7.726563-3.457032-7.726563-7.726563v-12.824219c0-4.269531 3.460938-7.726562 7.726563-7.726562 4.269531 0 7.726563 3.457031 7.726563 7.726562v12.824219c0 4.269531-3.460938 7.726563-7.726563 7.726563zm0 0"/><path d="m261.277344 288.113281c-1.730469 2.542969-4.253906 2.847657-5.277344 2.847657s-3.589844-.277344-5.277344-2.847657c-2.34375-3.566406-7.132812-4.558593-10.699218-2.214843-3.566407 2.34375-4.558594 7.132812-2.214844 10.699218 4.035156 6.148438 10.835937 9.816406 18.191406 9.816406s14.15625-3.667968 18.191406-9.816406c2.34375-3.566406 1.351563-8.355468-2.214844-10.699218-1.308593-.859376-7.089843-3.082032-10.699218 2.214843zm0 0"/></g><path d="m233.660156 409.679688h-33.855468c-13.273438 0-24.035157 10.761718-24.035157 24.035156v40.277344c1.792969.074218 3.597657.113281 5.410157.113281h98.113281c-11.261719-28.617188-29.0625-45.785157-45.632813-64.425781zm0 0" fill="#3ccbde"/></svg>