<svg height="512pt" viewBox="0 0 512.00103 512" width="512pt" xmlns="http://www.w3.org/2000/svg"><path d="m128 185.824219-128 70.074219v202.464843c0 29.625 24.011719 53.636719 53.636719 53.636719h28.449219c10.75 0 19.464843-8.714844 19.464843-19.464844v-12.464844c0-14.605468 11.84375-26.445312 26.449219-26.445312s26.449219 11.839844 26.449219 26.445312v12.464844c0 10.75 8.714843 19.464844 19.464843 19.464844h82.085938v-256zm0 0" fill="#c7aee4"/><path d="m128 453.625c14.605469 0 26.449219 11.839844 26.449219 26.445312v12.464844c0 10.75 8.714843 19.464844 19.464843 19.464844h82.085938v-145.546875c-34.265625-19.402344-72.230469-36.667969-114.296875-52.175781-43.882813-16.179688-76.523437-46.210938-100.757813-80.792969l-40.945312 22.414063v202.464843c0 29.625 24.011719 53.636719 53.636719 53.636719h28.449219c10.75 0 19.464843-8.714844 19.464843-19.464844v-12.464844c0-14.605468 11.84375-26.445312 26.449219-26.445312zm0 0" fill="#b18cd9"/><path d="m480.667969 357.5h11.867187c10.75 0 19.464844-8.714844 19.464844-19.464844v-82.136718l-256 .101562v83.378906c0 10.007813-8.113281 18.121094-18.121094 18.121094h-13.210937c-14.4375 0-26.664063 11.320312-27.035157 25.75-.386718 14.929688 11.597657 27.148438 26.4375 27.148438h13.808594c10.007813 0 18.121094 8.113281 18.121094 18.121093v83.480469h202.363281c29.625 0 53.636719-24.011719 53.636719-53.636719v-28.5c0-10.75-8.714844-19.464843-19.464844-19.464843h-12.464844c-14.839843 0-26.824218-12.222657-26.4375-27.148438.371094-14.429688 12.597657-25.75 27.035157-25.75zm0 0" fill="#81d9e7"/><path d="m480.070312 101.601562h12.464844c10.75 0 19.464844-8.710937 19.464844-19.464843v-28.5c0-29.621094-24.011719-53.636719-53.636719-53.636719h-28.449219c-10.75 0-19.464843 8.714844-19.464843 19.464844v12.464844c0 14.605468-11.84375 26.449218-26.449219 26.449218s-26.449219-11.84375-26.449219-26.449218v-12.464844c0-10.75-8.714843-19.464844-19.464843-19.464844h-82.085938v256l83.4375.035156c10.007812.003906 18.113281 8.113282 18.113281 18.121094v13.671875c0 14.605469 11.84375 26.445313 26.449219 26.445313s26.449219-11.839844 26.449219-26.445313v-13.636719c0-10.011718 8.117187-18.125 18.125-18.121094l83.425781.03125v-82.136718c0-10.75-8.714844-19.464844-19.464844-19.464844h-12.464844c-14.605468 0-26.449218-11.84375-26.449218-26.449219s11.84375-26.449219 26.449218-26.449219zm0 0" fill="#f9ee80"/><path d="m287.929688 101.601562h-13.808594c-10.007813 0-18.121094-8.109374-18.121094-18.121093v-83.480469h-82.085938c-10.75 0-19.464843 8.714844-19.464843 19.464844v12.464844c0 14.605468-11.84375 26.449218-26.449219 26.449218s-26.449219-11.84375-26.449219-26.449218v-12.464844c0-10.75-8.714843-19.464844-19.464843-19.464844h-28.449219c-29.625 0-53.636719 24.015625-53.636719 53.636719v202.261719l83.425781.03125c10.007813.003906 18.125-8.109376 18.125-18.121094v-13.636719c0-14.605469 11.84375-26.445313 26.449219-26.445313s26.449219 11.839844 26.449219 26.445313v13.671875c0 10.007812 8.105469 18.117188 18.113281 18.121094l83.4375.035156v-83.378906c0-10.007813 8.113281-18.121094 18.121094-18.121094h13.808594c14.605468 0 26.445312-11.839844 26.445312-26.449219.003906-14.605469-11.839844-26.449219-26.445312-26.449219zm0 0" fill="#fd5c6f"/><g fill="#575757"><path d="m211.089844 125.785156c-4.265625 0-7.726563-3.460937-7.726563-7.726562v-12.828125c0-4.265625 3.460938-7.726563 7.726563-7.726563 4.269531 0 7.726562 3.460938 7.726562 7.726563v12.828125c0 4.265625-3.457031 7.726562-7.726562 7.726562zm0 0"/><path d="m44.910156 125.785156c-4.269531 0-7.726562-3.460937-7.726562-7.726562v-12.828125c0-4.265625 3.457031-7.726563 7.726562-7.726563 4.265625 0 7.726563 3.460938 7.726563 7.726563v12.828125c0 4.265625-3.460938 7.726562-7.726563 7.726562zm0 0"/><path d="m149.488281 133.050781c0-14.050781-9.621093-25.441406-21.488281-25.441406s-21.488281 11.390625-21.488281 25.441406c0 14.054688 9.621093 25.445313 21.488281 25.445313s21.488281-11.390625 21.488281-25.445313zm0 0"/></g><path d="m420.441406 512c-45.269531-63.839844-104.277344-114.054688-180.933594-154.570312-.53125.046874-14.839843.070312-14.839843.070312-14.4375 0-26.664063 11.320312-27.035157 25.75-.386718 14.929688 11.597657 27.148438 26.4375 27.148438h13.808594c10.007813 0 18.121094 8.113281 18.121094 18.121093v83.480469zm0 0" fill="#3ccbde"/><path d="m0 153.636719v102.339843l58.523438.023438c-26.984376-30.753906-45.660157-67.601562-58.523438-102.363281zm0 0" fill="#f6334c"/></svg>