<svg height="511pt" viewBox="0 -11 511.99929 511" width="511pt" xmlns="http://www.w3.org/2000/svg"><path d="m258.445312 22.542969-110.738281 29.875 20.007813 34.273437c6.003906 10.28125 18.089844 15.34375 29.625 12.398438 16.75-4.277344 41.371094-9.539063 61.105468-9.539063 19.734376 0 44.351563 5.261719 61.101563 9.539063 11.539063 2.945312 23.625-2.117188 29.625-12.398438l20.011719-34.273437zm0 0" fill="#767678"/><path d="m147.707031 52.417969 20.007813 34.273437c6.003906 10.28125 18.089844 15.34375 29.625 12.398438 11.96875-3.054688 27.945312-6.605469 43.292968-8.386719-12.164062-31.335937 17.8125-45.203125 17.8125-45.203125v-22.957031zm0 0" fill="#575757"/><path d="m435.914062 346.898438-40.078124-20.453126c19.042968-37.320312 29.964843-78.722656 29.964843-113.59375 0-92.277343-75.074219-167.351562-167.355469-167.351562s-167.355468 75.074219-167.355468 167.351562c0 34.871094 10.925781 76.273438 29.96875 113.59375l-40.082032 20.453126c-22.496093-44.082032-34.882812-91.6875-34.882812-134.046876 0-117.089843 95.261719-212.351562 212.351562-212.351562 117.09375 0 212.355469 95.261719 212.355469 212.351562-.003906 42.359376-12.390625 89.964844-34.886719 134.046876zm0 0" fill="#f4e74d"/><path d="m80.976562 346.898438 40.078126-20.453126c-17.816407-34.921874-28.523438-73.414062-29.828126-106.785156-16.664062 3.332032-31.539062 7.757813-44.320312 12.417969 3.09375 37.21875 14.917969 77.292969 34.070312 114.820313zm0 0" fill="#dfca00"/><path d="m435.914062 346.898438c19.152344-37.527344 30.976563-77.601563 34.070313-114.820313-12.78125-4.660156-27.660156-9.089844-44.320313-12.417969-1.304687 33.371094-12.011718 71.867188-29.832031 106.785156zm0 0" fill="#dfca00"/><path d="m196.878906 330.351562c1.546875-6.535156 1.515625-13.550781-.425781-20.515624-5.652344-20.277344-26.203125-33.210938-46.921875-29.480469-23.597656 4.25-38.398438 27.398437-32.800781 50.339843l22.128906 90.667969c5.324219 21.8125 26.925781 36.078125 48.875 31.351563 22.777344-4.898438 36.878906-27.578125 31.394531-50.0625-1.5625-6.402344-4.550781-12.085938-8.535156-16.800782-2.378906-2.808593-3.28125-6.515624-2.46875-10.105468 1.367188-6.019532 1.398438-12.4375-.164062-18.84375-1.5625-6.402344-4.546876-12.085938-8.535157-16.800782-2.292969-2.710937-3.363281-6.292968-2.546875-9.75zm0 0" fill="#767678"/><path d="m90.300781 459.007812-40.679687 9.929688c-12.335938 3.011719-24.78125-4.550781-27.792969-16.890625l-21.167969-86.738281c-3.011718-12.335938 4.550782-24.78125 16.890625-27.792969l40.679688-9.925781zm0 0" fill="#eedb00"/><path d="m146.21875 479.941406-35.382812 8.636719c-23.558594 5.75-47.3125-8.6875-53.0625-32.246094l-28.917969-118.488281c-5.75-23.558594 8.6875-47.3125 32.246093-53.0625l35.382813-8.636719c23.554687-5.75 47.3125 8.6875 53.0625 32.246094l28.917969 118.488281c5.75 23.554688-8.6875 47.3125-32.246094 53.0625zm0 0" fill="#73da8c"/><path d="m315.117188 330.351562c-1.542969-6.535156-1.511719-13.550781.429687-20.515624 5.648437-20.277344 26.203125-33.210938 46.921875-29.480469 23.597656 4.25 38.398438 27.398437 32.800781 50.339843l-22.128906 90.667969c-5.324219 21.8125-26.925781 36.078125-48.878906 31.351563-22.773438-4.898438-36.875-27.578125-31.390625-50.0625 1.5625-6.402344 4.550781-12.085938 8.535156-16.800782 2.378906-2.808593 3.28125-6.515624 2.46875-10.105468-1.367188-6.019532-1.402344-12.4375.160156-18.84375 1.566406-6.402344 4.550782-12.085938 8.535156-16.800782 2.296876-2.710937 3.367188-6.292968 2.546876-9.75zm0 0" fill="#767678"/><path d="m421.699219 459.007812 40.675781 9.929688c12.339844 3.011719 24.785156-4.550781 27.796875-16.890625l21.167969-86.738281c3.007812-12.335938-4.550782-24.78125-16.890625-27.792969l-40.679688-9.925781zm0 0" fill="#f4e74d"/><path d="m365.78125 479.941406 35.382812 8.636719c23.554688 5.75 47.3125-8.6875 53.0625-32.246094l28.917969-118.488281c5.75-23.558594-8.6875-47.316406-32.246093-53.066406l-35.382813-8.632813c-23.558594-5.75-47.3125 8.6875-53.0625 32.246094l-28.917969 118.488281c-5.75 23.554688 8.6875 47.3125 32.246094 53.0625zm0 0" fill="#73da8c"/><g fill="#29ce69"><path d="m61.101562 284.78125c-23.558593 5.75-37.996093 29.503906-32.246093 53.0625l28.917969 118.488281c5.75 23.558594 29.503906 37.996094 53.0625 32.246094l31.558593-7.703125c-13.046875-45.132812-43.0625-66.75-56.660156-114.207031-16.132813-56.300781 10.75-90.523438 10.75-90.523438zm0 0"/><path d="m362.453125 308.390625-28.917969 118.488281c-5.75 23.554688 8.6875 47.3125 32.246094 53.0625l35.382812 8.636719c2.773438.675781 5.546876 1.070313 8.296876 1.207031-1.914063-42.410156-26.65625-50.609375-26.800782-107.425781-.183594-70.1875 47.488282-102.644531 47.488282-102.644531l-14.632813-3.570313c-23.558594-5.75-47.3125 8.6875-53.0625 32.246094zm0 0"/></g></svg>