<svg height="511pt" viewBox="0 -65 511.9995 511" width="511pt" xmlns="http://www.w3.org/2000/svg"><path d="m294.507812 315.0625c-65.316406 23.292969-130.523437 35.242188-183.617187 33.644531-58.195313-1.75-96.421875-20.035156-107.640625-51.492187-11.21875-31.453125 6.8125-69.804688 50.773438-107.980469 40.101562-34.828125 98.15625-66.835937 163.472656-90.128906 65.3125-23.289063 130.523437-35.238281 183.613281-33.644531 58.195313 1.75 96.421875 20.035156 107.640625 51.492187 11.214844 31.457031-6.816406 69.804687-50.773438 107.980469-40.101562 34.828125-98.15625 66.835937-163.46875 90.128906zm-66.25-185.769531c-61.644531 21.980469-116.058593 51.863281-153.222656 84.136719-32.335937 28.085937-47.886718 55.386718-41.597656 73.023437s35.601562 28.9375 78.417969 30.222656c49.195312 1.476563 110.238281-9.816406 171.886719-31.796875 61.644531-21.984375 116.058593-51.867187 153.222656-84.140625 32.335937-28.085937 47.890625-55.382812 41.597656-73.019531-6.289062-17.640625-35.605469-28.9375-78.417969-30.226562-49.195312-1.476563-110.238281 9.816406-171.886719 31.800781zm0 0" fill="#81d9e7"/><path d="m33.4375 286.453125c-6.289062-17.640625 9.261719-44.9375 41.601562-73.023437 37.160157-32.273438 91.574219-62.152344 153.21875-84.136719 61.648438-21.984375 122.691407-33.277344 171.886719-31.800781 42.816407 1.289062 72.128907 12.585937 78.421875 30.226562 0 0-13.230468-42.4375-54.792968-60.617188-7.175782-.84375-14.726563-1.402343-22.664063-1.640624-53.089844-1.597657-118.300781 10.351562-183.613281 33.644531-65.316406 23.292969-123.371094 55.300781-163.472656 90.128906-5.496094 4.773437-10.585938 9.546875-15.261719 14.308594-19.523438 46.191406-5.324219 82.910156-5.324219 82.910156zm0 0" fill="#00bfd7"/><path d="m438.546875 190.878906c0 105.144532-85.234375 190.378906-190.378906 190.378906s-190.378907-85.234374-190.378907-190.378906c0-105.144531 85.234376-190.378906 190.378907-190.378906s190.378906 85.234375 190.378906 190.378906zm0 0" fill="#ff8a98"/><path d="m235.332031 207.085938c-107.664062-21.457032-146.125-70.941407-159.320312-97.484376-20.753907 43.957032-24.78125 95.820313-7.164063 145.222657 35.316406 99.035156 144.230469 150.691406 243.265625 115.375 25.957031-9.257813 48.65625-23.566407 67.390625-41.433594-19.769531-47.734375-60.585937-105.023437-144.171875-121.679687zm0 0" fill="#fd5c6f"/><path d="m456.996094 181.082031c-5.699219 6.429688-12.390625 13.019531-20.03125 19.65625-37.164063 32.273438-91.578125 62.15625-153.222656 84.136719-61.648438 21.984375-122.691407 33.277344-171.886719 31.796875-14.917969-.445313-28.1875-2.113281-39.425781-4.835937l12.417968 34.816406c8.164063 1.089844 16.855469 1.78125 26.042969 2.054687 53.09375 1.597657 118.300781-10.351562 183.617187-33.644531 65.3125-23.292969 123.367188-55.300781 163.46875-90.128906 3.890626-3.375 7.566407-6.753906 11.042969-10.128906zm0 0" fill="#81d9e7"/><path d="m174.265625 219.1875-104.789063 37.367188c4.734376 12.886718 10.71875 24.957031 17.765626 36.125l100.457031-35.824219c10.402343-3.707031 15.824219-15.148438 12.117187-25.550781-3.710937-10.398438-15.148437-15.824219-25.550781-12.117188zm0 0" fill="#eedb00"/><path d="m427.488281 126.933594c-7.429687-20.832032-18.113281-39.5625-31.273437-55.832032l-131 46.71875c-10.402344 3.707032-15.828125 15.148438-12.117188 25.550782 3.707032 10.398437 15.148438 15.824218 25.550782 12.117187l70.496093-25.140625c9.691407-3.457031 20.351563 1.597656 23.808594 11.292969 3.457031 9.691406-1.597656 20.351563-11.292969 23.808594l-30.566406 10.902343c-10.402344 3.707032-15.828125 15.148438-12.121094 25.550782 3.710938 10.402344 15.148438 15.824218 25.550782 12.117187l93.796874-33.449219c-.976562-17.878906-4.511718-35.914062-10.832031-53.636718zm0 0" fill="#f4e74d"/><g fill="#575757"><path d="m298.492188 73.980469c-4.070313 1.289062-8.410157-.964844-9.699219-5.035157l-3.871094-12.226562c-1.289063-4.066406.964844-8.410156 5.035156-9.699219 4.066407-1.285156 8.410157.96875 9.695313 5.035157l3.875 12.230468c1.285156 4.066406-.96875 8.410156-5.035156 9.695313zm0 0"/><path d="m140.058594 124.140625c-4.066406 1.285156-8.410156-.96875-9.699219-5.035156l-3.871094-12.230469c-1.285156-4.066406.964844-8.410156 5.035157-9.695312 4.070312-1.289063 8.410156.964843 9.699218 5.03125l3.871094 12.230468c1.285156 4.066406-.96875 8.410156-5.035156 9.699219zm0 0"/><path d="m221.714844 106.773438c-9.53125 3.019531-20.042969 2.953124-29.953125-.699219-4.003907-1.476563-6.050781-5.917969-4.574219-9.921875 1.472656-4.003906 5.917969-6.054688 9.917969-4.578125 13.199219 4.863281 27.996093.179687 35.988281-11.394531 2.421875-3.507813 7.238281-4.390626 10.746094-1.964844 3.511718 2.425781 4.394531 7.238281 1.96875 10.75-6 8.6875-14.558594 14.789062-24.09375 17.808594zm0 0"/></g></svg>