<svg height="512pt" viewBox="0 -24 512.00037 512" width="512pt" xmlns="http://www.w3.org/2000/svg"><path d="m256.84375 55.148438c0-18.179688-32.867188-32.914063-73.410156-32.914063-40.542969 0-73.414063 14.734375-73.414063 32.914063 0 18.175781 32.871094 32.910156 73.414063 32.910156 40.542968 0 73.410156-14.734375 73.410156-32.910156zm0 0" fill="#f4e74d"/><path d="m256.84375 55.148438c0-16.832032-28.175781-30.710938-64.53125-32.675782-2.914062 8.898438-4.75 20.03125-2.917969 32.675782 1.9375 13.390624 1.269531 24.445312-.183593 32.808593 37.839843-1.320312 67.632812-15.507812 67.632812-32.808593zm0 0" fill="#eedb00"/><path d="m401.980469 55.148438c0-18.179688-32.871094-32.914063-73.414063-32.914063-40.542968 0-73.410156 14.734375-73.410156 32.914063 0 18.175781 32.867188 32.910156 73.410156 32.910156 40.542969 0 73.414063-14.734375 73.414063-32.910156zm0 0" fill="#f4e74d"/><path d="m255.152344 55.148438c0-16.832032 28.179687-30.710938 64.535156-32.675782 2.914062 8.898438 4.75 20.03125 2.917969 32.675782-1.9375 13.390624-1.269531 24.445312.183593 32.808593-37.839843-1.320312-67.636718-15.507812-67.636718-32.808593zm0 0" fill="#eedb00"/><path d="m453.039062 440.207031c44.496094-9.8125 70.332032-56.929687 54.0625-99.492187-36.503906-95.503906-135.144531-163.9375-251.101562-163.9375s-214.597656 68.433594-251.101562 163.9375c-16.269532 42.5625 9.566406 89.675781 54.0625 99.492187 51.042968 11.261719 124.042968 23.730469 197.039062 23.730469 73 0 145.996094-12.46875 197.039062-23.730469zm0 0" fill="#abebf4"/><path d="m256 176.777344c-.28125 0-.5625.007812-.847656.007812v287.148438c.285156 0 .566406.003906.847656.003906 73 0 145.996094-12.46875 197.039062-23.730469 44.496094-9.8125 70.332032-56.929687 54.0625-99.492187-36.503906-95.503906-135.144531-163.9375-251.101562-163.9375zm0 0" fill="#73da8c"/><path d="m277.097656 279.515625c46.378906-34.855469 36.40625-96.988281 36.40625-96.988281-18.519531-3.765625-37.757812-5.75-57.503906-5.75-115.957031 0-214.597656 68.433594-251.101562 163.9375-16.269532 42.5625 9.566406 89.675781 54.0625 99.492187 45.632812 10.066407 108.8125 21.097657 173.855468 23.324219-7.933594-31.910156-7.507812-67.21875-4.363281-97.132812 3.617187-34.394532 20.996094-66.105469 48.644531-86.882813zm0 0" fill="#5ad6ff"/><path d="m277.097656 279.515625c46.378906-34.855469 36.40625-96.988281 36.40625-96.988281-18.519531-3.765625-37.757812-5.75-57.503906-5.75-.28125 0-.5625.007812-.847656.007812v124.070313c6.339844-7.949219 13.679687-15.128907 21.945312-21.339844zm0 0" fill="#29ce69"/><path d="m256 176.777344s-120.46875 66.960937-117.382812 278.035156c36.652343 5.3125 77.015624 9.125 117.382812 9.125s80.730469-3.8125 117.386719-9.125c3.082031-211.074219-117.386719-278.035156-117.386719-278.035156zm0 0" fill="#ff8a98"/><path d="m256 176.777344s-120.46875 66.960937-117.382812 278.035156c29.628906 4.292969 61.679687 7.605469 94.199218 8.71875-7.933594-31.910156-7.507812-67.21875-4.363281-97.132812 3.617187-34.394532 20.996094-66.105469 48.644531-86.882813 19.0625-14.324219 28.601563-33.25 33.230469-50.582031-27.824219-37.421875-54.328125-52.15625-54.328125-52.15625zm0 0" fill="#fd5c6f"/><path d="m256 227.605469c-10.972656 0-19.863281-8.894531-19.863281-19.863281v-187.878907c0-10.96875 8.890625-19.863281 19.863281-19.863281s19.863281 8.894531 19.863281 19.863281v187.878907c0 10.96875-8.890625 19.863281-19.863281 19.863281zm0 0" fill="#f9ee80"/></svg>