<svg height="511pt" viewBox="-98 0 511 511.99983" width="511pt" xmlns="http://www.w3.org/2000/svg"><path d="m269.308594 227.589844-57.90625-10.597656 35.285156-192.851563c2.925781-15.988281 18.261719-26.582031 34.253906-23.65625 15.992188 2.925781 26.582032 18.265625 23.65625 34.253906zm0 0" fill="#59c2e8"/><path d="m233.589844 95.714844-22.191406 121.277344 57.910156 10.597656 16.164062-88.339844c-18.746094-21.0625-38.4375-35.246094-51.882812-43.535156zm0 0" fill="#00aede"/><path d="m280.941406.484375c-15.992187-2.925781-31.328125 7.667969-34.253906 23.65625l-6.183594 33.792969 57.910156 10.597656 6.183594-33.792969c2.925782-15.992187-7.664062-31.328125-23.65625-34.253906zm0 0" fill="#ffabcd"/><path d="m291.984375 88.246094-52.445313-9.597656c-11.164062-2.042969-18.558593-12.75-16.515624-23.914063 2.042968-11.164063 12.75-18.558594 23.914062-16.515625l52.445312 9.597656c11.164063 2.042969 18.558594 12.75 16.515626 23.914063-2.042969 11.164062-12.75 18.558593-23.914063 16.515625zm0 0" fill="#c6c6c6"/><path d="m142.234375 269.1875-71.789063 11.871094-31.757812-192.066406c-2.660156-16.078126-.164062-32.589844 7.136719-47.164063l7.027343-14.027344c4.671876-9.328125 17.082032-11.378906 24.507813-4.054687l11.167969 11.019531c11.605468 11.449219 19.285156 26.277344 21.945312 42.359375zm0 0" fill="#ffbe73"/><path d="m38.6875 88.992188 31.757812 192.066406 71.789063-11.871094-31.761719-192.066406-22.332031 12.222656c-7.433594 4.066406-16.03125 5.488281-24.378906 4.03125zm0 0" fill="#f4e74d"/><path d="m48.886719 150.675781 21.558593 130.382813 71.789063-11.871094-22.832031-138.058594c-13.714844 7.230469-37.226563 16.613282-70.515625 19.546875zm0 0" fill="#dfca00"/><path d="m96.011719 43.34375c-2.273438-3.023438-4.765625-5.898438-7.480469-8.578125l-11.171875-11.019531c-7.425781-7.324219-19.835937-5.273438-24.507813 4.054687l-7.027343 14.027344c-1.707031 3.414063-3.140625 6.933594-4.320313 10.527344 7.683594 4.699219 18.007813 6.738281 28.816406 4.953125 10.808594-1.789063 19.925782-7.046875 25.691407-13.964844zm0 0" fill="#767678"/><path d="m191.230469 294.226562-48.996094-5.953124 22.253906-183.234376c1.644531-13.527343 13.945313-23.164062 27.472657-21.519531 13.53125 1.640625 23.167968 13.941407 21.523437 27.472657zm0 0" fill="#a8a8a8"/><path d="m212.304688 512h-118.089844c-51.757813 0-93.714844-41.957031-93.714844-93.714844v-188.875c0-26.371094 21.378906-47.753906 47.75-47.753906h210.015625c26.371094 0 47.753906 21.382812 47.753906 47.753906v188.875c0 51.757813-41.957031 93.714844-93.714843 93.714844zm0 0" fill="#e4996d"/><path d="m.5 229.410156v188.875c0 51.757813 41.957031 93.714844 93.714844 93.714844h46.148437c-34.484375-29.578125-35.125-79.363281-35.125-79.363281s-.011719-60.917969-.015625-108.878907c0-29.453124 10.085938-57.996093 28.484375-80.996093 23.34375-29.1875 19.550781-61.105469 19.550781-61.105469h-105.007812c-26.371094 0-47.75 21.382812-47.75 47.753906zm0 0" fill="#d97c41"/><path d="m200.179688 220.558594c-13.480469-1.636719-23.078126-13.890625-21.441407-27.367188l6.933594-57.089844c1.636719-13.476562 13.890625-23.078124 27.367187-21.441406 13.476563 1.640625 23.074219 13.890625 21.4375 27.367188l-6.933593 57.09375c-1.636719 13.476562-13.886719 23.074218-27.363281 21.4375zm0 0" fill="#73da8c"/><path d="m95.757812 319.378906c0-9.351562-9.519531-16.929687-21.265624-16.929687-11.742188 0-21.261719 7.578125-21.261719 16.929687 0 9.355469 9.519531 16.933594 21.261719 16.933594 11.746093 0 21.265624-7.578125 21.265624-16.933594zm0 0" fill="#fff"/><path d="m253.289062 319.378906c0-9.351562-9.519531-16.929687-21.265624-16.929687-11.742188 0-21.261719 7.578125-21.261719 16.929687 0 9.355469 9.519531 16.933594 21.261719 16.933594 11.746093 0 21.265624-7.578125 21.265624-16.933594zm0 0" fill="#fff"/><g fill="#575757"><path d="m158.535156 303.9375c-1.730468 2.539062-4.25 2.847656-5.277344 2.847656-1.023437 0-3.585937-.28125-5.277343-2.847656-2.34375-3.566406-7.132813-4.558594-10.699219-2.21875-3.566406 2.34375-4.558594 7.132812-2.214844 10.699219 4.039063 6.148437 10.839844 9.820312 18.191406 9.820312 7.355469 0 14.15625-3.671875 18.195313-9.820312 2.339844-3.566407 1.351563-8.355469-2.214844-10.699219-1.308593-.855469-7.089843-3.082031-10.703125 2.21875zm0 0"/><path d="m92.046875 307.554688c-.960937-.804688-1.921875-1.019532-2.460937-1.019532-.535157 0-1.570313.132813-2.457032 1.019532-3.019531 3.019531-7.910156 3.019531-10.929687 0-3.015625-3.015626-3.015625-7.910157 0-10.925782 3.578125-3.578125 8.332031-5.546875 13.386719-5.546875 5.054687 0 9.808593 1.972657 13.386718 5.546875 3.015625 3.015625 3.015625 7.910156 0 10.925782-1.507812 1.507812-6.046875 4.082031-10.925781 0zm0 0"/><path d="m219.390625 307.554688c-.960937-.804688-1.921875-1.019532-2.460937-1.019532-.535157 0-1.570313.132813-2.457032 1.019532-3.019531 3.019531-7.910156 3.019531-10.925781 0-3.019531-3.015626-3.019531-7.910157-.003906-10.925782 3.578125-3.578125 8.332031-5.546875 13.386719-5.546875 5.058593 0 9.8125 1.972657 13.386718 5.546875 3.019532 3.015625 3.019532 7.910156 0 10.925782-1.507812 1.507812-6.046875 4.082031-10.925781 0zm0 0"/></g></svg>