<svg height="512pt" viewBox="0 -33 512.00103 512" width="512pt" xmlns="http://www.w3.org/2000/svg"><path d="m47.777344 204.320312h123.5625v-204.320312h-131.191406c-22.175782 0-40.148438 17.976562-40.148438 40.148438v116.394531c0 26.386719 21.390625 47.777343 47.777344 47.777343zm0 0" fill="#6b7d8e"/><path d="m0 40.148438v67.082031h171.339844v-107.230469h-131.191406c-22.175782 0-40.148438 17.976562-40.148438 40.148438zm0 0" fill="#546370"/><path d="m40.148438 0c22.171874 0 40.148437 17.976562 40.148437 40.148438v366.660156c0 22.167968 17.972656 40.144531 40.144531 40.144531h306.824219v-399.175781c0-26.386719-21.390625-47.777344-47.777344-47.777344zm0 0" fill="#ffa93f"/><path d="m40.148438 0c22.171874 0 40.148437 17.976562 40.148437 40.148438v366.660156c0 22.171875 17.972656 40.144531 40.144531 40.144531h44.71875v-446.953125zm0 0" fill="#8697a6"/><path d="m80.296875 342.785156v64.019532c0 22.171874 17.972656 40.148437 40.144531 40.148437h44.714844v-104.167969zm0 0" fill="#6b7d8e"/><path d="m427.265625 47.777344c0-26.386719-21.390625-47.777344-47.777344-47.777344h-36.960937v446.953125h84.738281zm0 0" fill="#8697a6"/><path d="m391.625 83.238281h-13.453125c-5.328125 0-9.644531-4.316406-9.644531-9.640625v-13.457031c0-5.324219 4.316406-9.640625 9.644531-9.640625h13.453125c5.324219 0 9.640625 4.316406 9.640625 9.640625v13.457031c0 5.324219-4.316406 9.640625-9.640625 9.640625zm0 0" fill="#6b7d8e"/><path d="m391.625 161.796875h-13.453125c-5.328125 0-9.644531-4.316406-9.644531-9.644531v-13.453125c0-5.324219 4.316406-9.640625 9.644531-9.640625h13.453125c5.324219 0 9.640625 4.316406 9.640625 9.640625v13.453125c0 5.328125-4.316406 9.644531-9.640625 9.644531zm0 0" fill="#6b7d8e"/><path d="m391.625 240.351562h-13.453125c-5.328125 0-9.644531-4.316406-9.644531-9.640624v-13.453126c0-5.324218 4.316406-9.640624 9.644531-9.640624h13.453125c5.324219 0 9.640625 4.316406 9.640625 9.640624v13.453126c0 5.324218-4.316406 9.640624-9.640625 9.640624zm0 0" fill="#6b7d8e"/><path d="m160.59375 279.683594v127.125c0 22.167968-17.976562 40.144531-40.148438 40.144531h343.777344c26.386719 0 47.777344-21.390625 47.777344-47.777344v-119.492187c0-26.386719-21.390625-47.777344-47.777344-47.777344h-255.855468c-26.386719 0-47.773438 21.390625-47.773438 47.777344zm0 0" fill="#ffbe73"/><path d="m160.59375 342.785156v64.019532c0 22.171874-17.976562 40.148437-40.148438 40.148437h343.78125c26.386719 0 47.773438-21.390625 47.773438-47.777344v-56.390625zm0 0" fill="#ffa93f"/><path d="m208.367188 231.90625c-26.386719 0-47.777344 21.390625-47.777344 47.777344v127.125c0 22.171875-17.972656 40.144531-40.144532 40.144531h84.734376c22.171874 0 40.148437-17.976563 40.148437-40.144531v-174.902344zm0 0" fill="#a5b1bd"/><path d="m120.445312 446.953125h84.734376c22.175781 0 40.148437-17.976563 40.148437-40.144531v-64.023438h-84.734375v64.023438c0 22.167968-17.976562 40.144531-40.148438 40.144531zm0 0" fill="#8697a6"/><path d="m464.222656 231.90625h-36.957031v215.046875h36.957031c26.386719 0 47.777344-21.390625 47.777344-47.777344v-119.492187c0-26.386719-21.390625-47.777344-47.777344-47.777344zm0 0" fill="#a5b1bd"/><path d="m464.222656 446.953125c26.386719 0 47.777344-21.390625 47.777344-47.777344v-56.390625h-84.734375v104.167969zm0 0" fill="#8697a6"/><path d="m209.6875 318.910156h-13.457031c-5.324219 0-9.640625-4.316406-9.640625-9.640625v-13.453125c0-5.328125 4.316406-9.644531 9.640625-9.644531h13.457031c5.324219 0 9.640625 4.316406 9.640625 9.644531v13.453125c0 5.324219-4.316406 9.640625-9.640625 9.640625zm0 0" fill="#8697a6"/><g fill="#6b7d8e"><path d="m209.6875 397.46875h-13.457031c-5.324219 0-9.640625-4.316406-9.640625-9.640625v-13.457031c0-5.324219 4.316406-9.640625 9.640625-9.640625h13.457031c5.324219 0 9.640625 4.316406 9.640625 9.640625v13.457031c0 5.324219-4.316406 9.640625-9.640625 9.640625zm0 0"/><path d="m127.171875 83.238281h-13.453125c-5.324219 0-9.640625-4.316406-9.640625-9.640625v-13.457031c0-5.324219 4.316406-9.640625 9.640625-9.640625h13.453125c5.324219 0 9.640625 4.316406 9.640625 9.640625v13.457031c0 5.324219-4.316406 9.640625-9.640625 9.640625zm0 0"/><path d="m127.171875 161.796875h-13.453125c-5.324219 0-9.640625-4.316406-9.640625-9.644531v-13.453125c0-5.324219 4.316406-9.640625 9.640625-9.640625h13.453125c5.324219 0 9.640625 4.316406 9.640625 9.640625v13.453125c0 5.328125-4.316406 9.644531-9.640625 9.644531zm0 0"/><path d="m127.171875 240.351562h-13.453125c-5.324219 0-9.640625-4.316406-9.640625-9.640624v-13.453126c0-5.324218 4.316406-9.640624 9.640625-9.640624h13.453125c5.324219 0 9.640625 4.316406 9.640625 9.640624v13.453126c0 5.324218-4.316406 9.640624-9.640625 9.640624zm0 0"/><path d="m127.171875 318.910156h-13.453125c-5.324219 0-9.640625-4.316406-9.640625-9.640625v-13.453125c0-5.328125 4.316406-9.644531 9.640625-9.644531h13.453125c5.324219 0 9.640625 4.316406 9.640625 9.644531v13.453125c0 5.324219-4.316406 9.640625-9.640625 9.640625zm0 0"/></g><path d="m127.171875 397.46875h-13.453125c-5.324219 0-9.640625-4.316406-9.640625-9.640625v-13.457031c0-5.324219 4.316406-9.640625 9.640625-9.640625h13.453125c5.324219 0 9.640625 4.316406 9.640625 9.640625v13.457031c0 5.324219-4.316406 9.640625-9.640625 9.640625zm0 0" fill="#546370"/><path d="m46.875 83.238281h-13.453125c-5.324219 0-9.640625-4.316406-9.640625-9.640625v-13.457031c0-5.324219 4.316406-9.640625 9.640625-9.640625h13.453125c5.324219 0 9.640625 4.316406 9.640625 9.640625v13.457031c0 5.324219-4.316406 9.640625-9.640625 9.640625zm0 0" fill="#3d4751"/><path d="m46.875 161.796875h-13.453125c-5.324219 0-9.640625-4.316406-9.640625-9.644531v-13.453125c0-5.324219 4.316406-9.640625 9.640625-9.640625h13.453125c5.324219 0 9.640625 4.316406 9.640625 9.640625v13.453125c0 5.328125-4.316406 9.644531-9.640625 9.644531zm0 0" fill="#546370"/><path d="m476.359375 318.910156h-13.453125c-5.324219 0-9.640625-4.316406-9.640625-9.640625v-13.453125c0-5.328125 4.316406-9.644531 9.640625-9.644531h13.453125c5.324219 0 9.640625 4.316406 9.640625 9.644531v13.453125c0 5.324219-4.316406 9.640625-9.640625 9.640625zm0 0" fill="#8697a6"/><path d="m476.359375 397.46875h-13.453125c-5.324219 0-9.640625-4.316406-9.640625-9.640625v-13.457031c0-5.324219 4.316406-9.640625 9.640625-9.640625h13.453125c5.324219 0 9.640625 4.316406 9.640625 9.640625v13.457031c0 5.324219-4.316406 9.640625-9.640625 9.640625zm0 0" fill="#6b7d8e"/><path d="m302.679688 141.769531c-4.265626 0-7.722657-3.457031-7.722657-7.726562v-12.824219c0-4.269531 3.457031-7.726562 7.722657-7.726562 4.269531 0 7.726562 3.457031 7.726562 7.726562v12.824219c0 4.269531-3.457031 7.726562-7.726562 7.726562zm0 0" fill="#575757"/><path d="m205.007812 141.769531c-4.269531 0-7.726562-3.457031-7.726562-7.726562v-12.824219c0-4.269531 3.457031-7.726562 7.726562-7.726562 4.265626 0 7.722657 3.457031 7.722657 7.726562v12.824219c0 4.269531-3.457031 7.726562-7.722657 7.726562zm0 0" fill="#575757"/><path d="m259.121094 126.324219c-1.730469 2.542969-4.253906 2.847656-5.277344 2.847656s-3.589844-.277344-5.277344-2.847656c-2.34375-3.566407-7.132812-4.558594-10.699218-2.214844-3.566407 2.34375-4.558594 7.132813-2.214844 10.699219 4.035156 6.148437 10.835937 9.816406 18.191406 9.816406s14.15625-3.667969 18.191406-9.816406c2.34375-3.566406 1.351563-8.355469-2.214844-10.699219-1.308593-.859375-7.089843-3.082031-10.699218 2.214844zm0 0" fill="#575757"/></svg>