<svg height="512pt" viewBox="-28 0 512 512" width="512pt" xmlns="http://www.w3.org/2000/svg"><path d="m362.921875 430.21875h-270.453125c-38.035156 0-68.863281-30.832031-68.863281-68.863281 0-38.035157 30.828125-68.867188 68.863281-68.867188h270.453125c38.03125 0 68.863281 30.832031 68.863281 68.867188 0 38.03125-30.832031 68.863281-68.863281 68.863281zm0 0" fill="#e4996d"/><path d="m113.882812 343.8125c8.792969-4.28125 14.71875-8.746094 14.71875-8.746094l.785157-42.574218h-36.917969c-38.035156 0-68.863281 30.832031-68.863281 68.863281s30.828125 68.863281 68.863281 68.863281h26.1875c-10.234375-7.992188-17.679688-16.957031-23.070312-25.894531-13.011719-21.574219-4.355469-49.488281 18.296874-60.511719zm0 0" fill="#d97c41"/><path d="m185.898438 302.996094v57.859375c0 12.953125 10.5 23.453125 23.453124 23.453125 12.789063 0 23.175782-10.230469 23.441407-22.953125 0 0-.023438-18.628907 17.824219-18.628907 9.832031 0 17.804687 7.972657 17.804687 17.804688v18.679688c0 12.953124 10.503906 23.453124 23.457031 23.453124s23.453125-10.5 23.453125-23.453124v-76.214844zm0 0" fill="#f4e74d"/><path d="m400.738281 198.949219h-346.085937c-42.167969 34.898437-53.3125 73.914062-54.621094 102.492187-1.097656 23.9375 27.851562 36.621094 45.003906 19.882813 8.398438-8.199219 17.578125-15.625 34.199219-15.625 37.113281 0 37.113281 37.027343 74.226563 37.027343 37.117187 0 37.117187-37.027343 74.230468-37.027343 37.117188 0 37.117188 37.027343 74.234375 37.027343 37.113281 0 37.113281-37.027343 74.226563-37.027343 16.621094 0 25.800781 7.425781 34.199218 15.625 17.148438 16.738281 46.101563 4.054687 45.003907-19.886719-1.304688-28.574219-12.449219-67.589844-54.617188-102.488281zm0 0" fill="#73da8c"/><path d="m310.785156 198.949219h-256.132812c-42.167969 34.898437-53.3125 73.914062-54.621094 102.492187-1.097656 23.9375 27.851562 36.621094 45.003906 19.882813 8.398438-8.199219 17.578125-15.625 34.199219-15.625 36.699219 0 37.128906 36.207031 73.027344 37.011719.84375-32.980469 25.601562-61.835938 59.582031-66.921876 61.199219-9.160156 98.941406-35.035156 98.941406-35.035156zm0 0" fill="#29ce69"/><path d="m227.695312 0c-116.894531 0-180.558593 66.820312-202.347656 160.140625-9.621094 41.210937 21.785156 80.613281 64.105469 80.613281h276.480469c42.320312 0 73.726562-39.402344 64.105468-80.613281-21.789062-93.320313-85.449218-160.140625-202.34375-160.140625zm0 0" fill="#ffbe73"/><path d="m144.601562 160.152344c-21.808593-80.226563 7.460938-148.457032 7.730469-149.085938-69.761719 22.664063-110.445312 78.238282-126.984375 149.074219-9.621094 41.210937 21.785156 80.613281 64.105469 80.613281h172.089844c-47.207031-27.996094-101.6875-24.492187-116.941407-80.601562zm0 0" fill="#ffa93f"/><path d="m389.890625 512h-324.394531c-29.652344 0-53.691406-24.039062-53.691406-53.691406 0 0 0-31.792969 31.789062-31.792969h368.199219c31.792969 0 31.792969 31.792969 31.792969 31.792969 0 29.652344-24.039063 53.691406-53.695313 53.691406zm0 0" fill="#ffbe73"/><path d="m108.636719 458.308594s0-31.792969 31.789062-31.792969h-96.832031c-31.792969 0-31.792969 31.792969-31.792969 31.792969 0 29.652344 24.039063 53.691406 53.695313 53.691406h96.832031c-29.652344 0-53.691406-24.039062-53.691406-53.691406zm0 0" fill="#ffa93f"/><path d="m227.695312 190.726562c-15.988281 0-28.949218-12.960937-28.949218-28.949218v-21.046875c0-4.363281 3.539062-7.902344 7.902344-7.902344h42.09375c4.363281 0 7.902343 3.539063 7.902343 7.902344v21.046875c-.003906 15.988281-12.960937 28.949218-28.949219 28.949218zm0 0" fill="#57565c"/><path d="m161.738281 161.777344c0-13.582032-13.824219-24.589844-30.878906-24.589844-17.050781 0-30.875 11.007812-30.875 24.589844 0 13.582031 13.824219 24.589844 30.875 24.589844 17.054687 0 30.878906-11.007813 30.878906-24.589844zm0 0" fill="#ff83b4"/><path d="m355.40625 161.777344c0-13.582032-13.824219-24.589844-30.878906-24.589844-17.054688 0-30.878906 11.007812-30.878906 24.589844 0 13.582031 13.824218 24.589844 30.878906 24.589844 17.054687 0 30.878906-11.007813 30.878906-24.589844zm0 0" fill="#ff83b4"/><path d="m310.785156 148.28125c-4.269531 0-7.726562-3.460938-7.726562-7.726562v-12.828126c0-4.265624 3.457031-7.726562 7.726562-7.726562 4.269532 0 7.726563 3.460938 7.726563 7.726562v12.828126c0 4.265624-3.460938 7.726562-7.726563 7.726562zm0 0" fill="#57565c"/><path d="m144.601562 148.28125c-4.265624 0-7.726562-3.460938-7.726562-7.726562v-12.828126c0-4.265624 3.460938-7.726562 7.726562-7.726562 4.269532 0 7.726563 3.460938 7.726563 7.726562v12.828126c0 4.265624-3.457031 7.726562-7.726563 7.726562zm0 0" fill="#57565c"/><g fill="#fff"><path d="m184.699219 64.042969c0 4.265625-3.460938 7.726562-7.726563 7.726562-4.269531 0-7.726562-3.460937-7.726562-7.726562s3.457031-7.726563 7.726562-7.726563c4.265625 0 7.726563 3.460938 7.726563 7.726563zm0 0"/><path d="m286.140625 64.042969c0 4.265625-3.457031 7.726562-7.722656 7.726562-4.269531 0-7.726563-3.460937-7.726563-7.726562s3.457032-7.726563 7.726563-7.726563c4.265625 0 7.722656 3.460938 7.722656 7.726563zm0 0"/><path d="m235.421875 86.15625c0 4.269531-3.460937 7.726562-7.726563 7.726562-4.269531 0-7.726562-3.457031-7.726562-7.726562 0-4.265625 3.457031-7.722656 7.726562-7.722656 4.265626 0 7.726563 3.457031 7.726563 7.722656zm0 0"/><path d="m235.421875 35.660156c0 4.265625-3.460937 7.726563-7.726563 7.726563-4.269531 0-7.726562-3.460938-7.726562-7.726563 0-4.269531 3.457031-7.726562 7.726562-7.726562 4.265626 0 7.726563 3.457031 7.726563 7.726562zm0 0"/></g></svg>