<svg height="512pt" viewBox="-46 0 512 512.00052" width="512pt" xmlns="http://www.w3.org/2000/svg"><path d="m0 151.179688v209.675781c0 8.140625 3.726562 16.285156 11.183594 21.523437l172.871094 121.429688c15.546874 10.921875 36.273437 10.921875 51.820312 0l172.871094-121.429688c7.453125-5.238281 11.308594-13.289062 11.308594-21.429687l-.125-209.800781zm0 0" fill="#29ce69"/><path d="m420 270.109375-184 128.832031c-7.792969 5.472656-16.882812 8.203125-25.972656 8.1875v-255.949218l209.902344-.035157zm0 0" fill="#5ad6ff"/><path d="m236 398.941406 88.78125-62.160156v104.667969l-88.78125 62.359375c-7.789062 5.472656-16.882812 8.203125-25.972656 8.1875v-104.867188c9.089844.015625 18.179687-2.714844 25.972656-8.1875zm0 0" fill="#fd5c6f"/><path d="m324.777344 336.78125-88.777344 62.160156c-7.792969 5.472656-16.882812 8.203125-25.972656 8.1875v-255.949218l114.75-.027344zm0 0" fill="#f4e74d"/><path d="m210.027344 151.179688h-210.027344v209.675781c0 8.140625 3.726562 16.285156 11.183594 21.523437l172.871094 121.429688c7.792968 5.472656 16.882812 8.203125 25.972656 8.1875zm0 0" fill="#5ad6ff"/><path d="m0 270.070312 184.054688 128.871094c7.792968 5.472656 16.882812 8.203125 25.972656 8.1875v-255.949218h-210.027344zm0 0" fill="#29ce69"/><path d="m95.277344 151.171875v290.273437l88.777344 62.363282c7.792968 5.472656 16.882812 8.199218 25.972656 8.1875v-360.816406zm0 0" fill="#ffcd00"/><path d="m184.054688 8.191406-172.871094 121.429688c-14.910156 10.476562-14.910156 32.574218 0 43.050781l172.871094 121.429687c15.546874 10.921876 36.273437 10.921876 51.820312 0l172.871094-121.429687c14.910156-10.476563 14.910156-32.574219 0-43.050781l-172.871094-121.429688c-15.546875-10.921875-36.273438-10.921875-51.820312 0zm0 0" fill="#ff8a98"/><path d="m184.054688 398.941406-88.777344-62.160156v104.667969l88.777344 62.359375c7.792968 5.472656 16.882812 8.203125 25.972656 8.1875v-104.867188c-9.089844.015625-18.179688-2.714844-25.972656-8.1875zm0 0" fill="#f6334c"/><path d="m95.277344 336.78125 88.777344 62.160156c7.792968 5.472656 16.882812 8.203125 25.972656 8.1875v-255.949218l-114.75-.007813zm0 0" fill="#eedb00"/><path d="m408.746094 172.671875c14.910156-10.476563 14.910156-32.574219 0-43.050781l-17.496094-12.289063-66.550781-46.75-229.421875 161.15625 88.777344 62.363281c15.546874 10.921876 36.269531 10.921876 51.816406 0l155.996094-109.574218zm0 0" fill="#a4e7ff"/><path d="m324.652344 231.738281-229.421875-161.152343-84.046875 59.035156c-14.910156 10.476562-14.910156 32.574218 0 43.050781l25.589844 17.972656 147.28125 103.457031c15.546874 10.921876 36.273437 10.921876 51.820312 0l3.511719-2.46875zm0 0" fill="#73da8c"/><path d="m209.964844 151.179688-114.6875 80.558593 8.78125 6.171875 79.996094 56.191406c15.546874 10.921876 36.269531 10.921876 51.816406 0l88.78125-62.363281zm0 0" fill="#f9ee80"/></svg>