<svg height="512pt" viewBox="-90 0 512 512" width="512pt" xmlns="http://www.w3.org/2000/svg"><path d="m276.257812 512h-192.605468c-30.578125 0-55.367188-24.789062-55.367188-55.363281v-344.382813c0-30.578125 24.789063-55.363281 55.367188-55.363281h192.605468c30.578126 0 55.363282 24.789063 55.363282 55.363281v344.382813c0 30.574219-24.789063 55.363281-55.363282 55.363281zm0 0" fill="#a8a8a8"/><path d="m122.871094 141.109375c15.503906-23.910156 24.074218-56.425781 28.808594-84.222656h-68.027344c-30.578125 0-55.367188 24.789062-55.367188 55.367187v344.378906c0 30.578126 24.789063 55.367188 55.367188 55.367188h110.226562c-9.246094-20.144531-26.242187-47.976562-52.238281-56.890625-42.304687-14.507813-44.339844-64.46875-44.339844-64.46875s.386719-99.964844.382813-166.21875c-.003906-29.648437 9.058594-58.433594 25.1875-83.3125zm0 0" fill="#919191"/><path d="m56.574219 196.730469h-38.382813c-10.046875 0-18.191406-8.144531-18.191406-18.191407v-35.703124c0-10.042969 8.144531-18.1875 18.191406-18.1875h38.382813zm0 0" fill="#575757"/><path d="m54.746094 276.117188h-36.554688c-10.046875 0-18.191406-8.144532-18.191406-18.191407v-12.179687c0-10.046875 8.144531-18.191406 18.191406-18.191406h36.554688zm0 0" fill="#575757"/><path d="m276.257812 455.109375h-192.605468c-30.578125 0-55.367188-24.789063-55.367188-55.363281v-344.382813c0-30.574219 24.789063-55.363281 55.367188-55.363281h192.605468c30.578126 0 55.363282 24.789062 55.363282 55.363281v344.382813c0 30.578125-24.789063 55.363281-55.363282 55.363281zm0 0" fill="#8697a6"/><path d="m122.871094 141.109375c33.054687-50.988281 34.605468-141.109375 34.605468-141.109375h-73.824218c-30.578125 0-55.367188 24.789062-55.367188 55.363281v344.382813c0 30.578125 24.789063 55.363281 55.367188 55.363281h57.988281c-42.308594-14.503906-44.34375-64.46875-44.34375-64.46875s.390625-99.964844.382813-166.214844c0-29.652343 9.0625-58.4375 25.191406-83.316406zm0 0" fill="#6b7d8e"/><path d="m276.257812 0h-192.605468c-30.578125 0-55.367188 24.789062-55.367188 55.363281v28.621094h303.335938v-28.621094c0-30.574219-24.789063-55.363281-55.363282-55.363281zm0 0" fill="#c6c6c6"/><path d="m28.285156 55.363281v28.621094h117.722656c10.757813-42.566406 11.46875-83.984375 11.46875-83.984375h-73.824218c-30.578125 0-55.367188 24.789062-55.367188 55.363281zm0 0" fill="#a8a8a8"/><path d="m276.257812 455.109375h-192.605468c-30.578125 0-55.367188-24.789063-55.367188-55.363281v-28.617188h303.335938v28.617188c0 30.578125-24.789063 55.363281-55.363282 55.363281zm0 0" fill="#c6c6c6"/><path d="m28.285156 371.128906v28.617188c0 30.578125 24.789063 55.363281 55.367188 55.363281h57.988281c-42.304687-14.503906-44.339844-64.46875-44.339844-64.46875s.027344-7.410156.070313-19.515625h-69.085938zm0 0" fill="#a8a8a8"/><path d="m133.429688 41.992188c0 8.535156-6.917969 15.453124-15.453126 15.453124-8.535156 0-15.453124-6.917968-15.453124-15.453124 0-8.535157 6.917968-15.453126 15.453124-15.453126 8.535157 0 15.453126 6.917969 15.453126 15.453126zm0 0" fill="#919191"/><path d="m241.929688 57.445312h-59.003907c-8.535156 0-15.453125-6.921874-15.453125-15.453124 0-8.535157 6.917969-15.453126 15.453125-15.453126h59.003907c8.535156 0 15.453124 6.917969 15.453124 15.453126 0 8.53125-6.917968 15.453124-15.453124 15.453124zm0 0" fill="#a8a8a8"/><path d="m202.433594 413.117188c0 12.417968-10.066406 22.480468-22.480469 22.480468s-22.476563-10.0625-22.476563-22.480468c0-12.414063 10.0625-22.476563 22.476563-22.476563s22.480469 10.0625 22.480469 22.476563zm0 0" fill="#a8a8a8"/><path d="m221.28125 252.382812v-31.21875c0-5.582031-4.527344-10.109374-10.109375-10.109374h-21.109375c-5.582031 0-10.109375 4.527343-10.109375 10.109374v72.542969h41.328125v41.328125h31.214844c5.585937 0 10.113281-4.527344 10.113281-10.109375v-62.433593c0-5.582032-4.527344-10.109376-10.113281-10.109376zm0 0" fill="#73da8c"/><path d="m179.953125 293.707031v-31.214843c0-5.585938-4.527344-10.109376-10.109375-10.109376h-21.105469c-5.585937 0-10.113281 4.523438-10.113281 10.109376v31.214843h-31.214844c-5.582031 0-10.109375 4.527344-10.109375 10.109375v21.109375c0 5.582031 4.527344 10.109375 10.109375 10.109375h113.871094v-41.328125zm0 0" fill="#f4e74d"/><path d="m114 171.03125c0-13.578125-13.824219-24.589844-30.878906-24.589844-17.054688 0-30.878906 11.011719-30.878906 24.589844 0 13.582031 13.824218 24.589844 30.878906 24.589844 17.054687 0 30.878906-11.007813 30.878906-24.589844zm0 0" fill="#ffabcd"/><path d="m307.664062 171.03125c0-13.578125-13.824218-24.589844-30.878906-24.589844-17.050781 0-30.875 11.011719-30.875 24.589844 0 13.582031 13.824219 24.589844 30.875 24.589844 17.054688 0 30.878906-11.007813 30.878906-24.589844zm0 0" fill="#ffabcd"/><g fill="#575757"><path d="m179.953125 167.039062c-10 0-20-3.234374-28.34375-9.707031-3.371094-2.617187-3.984375-7.46875-1.367187-10.839843 2.613281-3.375 7.46875-3.988282 10.839843-1.371094 11.109375 8.617187 26.632813 8.617187 37.746094 0 3.371094-2.613282 8.222656-2.003906 10.839844 1.371094 2.613281 3.371093 2 8.222656-1.371094 10.839843-8.34375 6.472657-18.34375 9.707031-28.34375 9.707031zm0 0"/><path d="m102.140625 152.21875c-1.730469-2.542969-4.253906-2.847656-5.277344-2.847656-1.023437 0-3.589843.277344-5.277343 2.847656-2.34375 3.566406-7.132813 4.558594-10.699219 2.214844-3.566407-2.339844-4.558594-7.132813-2.214844-10.699219 4.035156-6.144531 10.835937-9.816406 18.191406-9.816406s14.15625 3.671875 18.195313 9.816406c2.339844 3.566406 1.347656 8.359375-2.21875 10.699219-1.308594.859375-7.089844 3.085937-10.699219-2.214844zm0 0"/><path d="m268.320312 152.21875c-1.730468-2.542969-4.25-2.847656-5.277343-2.847656-1.023438 0-3.585938.277344-5.273438 2.847656-2.34375 3.566406-7.136719 4.558594-10.703125 2.214844-3.566406-2.339844-4.554687-7.132813-2.214844-10.699219 4.039063-6.144531 10.839844-9.816406 18.195313-9.816406 7.351563 0 14.152344 3.671875 18.191406 9.816406 2.34375 3.566406 1.351563 8.359375-2.214843 10.699219-1.308594.859375-7.089844 3.085937-10.703126-2.214844zm0 0"/></g></svg>