<svg height="511pt" viewBox="-90 0 511 511.99274" width="511pt" xmlns="http://www.w3.org/2000/svg"><path d="m227.367188 511.992188h-122.25c-34.054688 0-61.660157-27.605469-61.660157-61.660157v-183.914062h245.574219v183.910156c-.003906 34.058594-27.609375 61.664063-61.664062 61.664063zm0 0" fill="#5ad6ff"/><path d="m43.457031 266.417969v183.910156c0 34.058594 27.605469 61.664063 61.660157 61.664063h36.242187c-29.65625-24.910157-29.679687-62.3125-29.699219-64.390626-.484375-54.589843 39.71875-101.015624 93.816406-108.355468 48.582032-6.59375 83.550782-19.238282 83.550782-19.238282v-53.589843zm0 0" fill="#00c5fd"/><path d="m105.117188 511.992188h122.25c34.054687 0 61.660156-27.605469 61.660156-61.660157v-88.921875s-61.859375 26.992188-122.785156 5.449219c-60.925782-21.542969-122.785157-4.488281-122.785157-4.488281v87.957031c0 34.058594 27.605469 61.664063 61.660157 61.664063zm0 0" fill="#f4e74d"/><path d="m111.660156 447.605469c-.304687-34.078125 15.25-64.96875 40.136719-85.164063-55.878906-14.535156-108.339844-.070312-108.339844-.070312v87.960937c0 34.054688 27.605469 61.660157 61.660157 61.660157h36.242187c-29.65625-24.910157-29.679687-62.3125-29.699219-64.386719zm0 0" fill="#eedb00"/><path d="m288.6875 297.652344h-244.890625c-23.914063 0-43.300781-19.386719-43.300781-43.300782 0-23.914062 19.386718-43.300781 43.300781-43.300781h244.890625c23.914062 0 43.300781 19.386719 43.300781 43.300781 0 23.914063-19.386719 43.300782-43.300781 43.300782zm0 0" fill="#a4e7ff"/><path d="m78.894531 254.351562c0-23.914062 19.386719-43.300781 43.300781-43.300781h-78.398437c-23.914063 0-43.300781 19.386719-43.300781 43.300781 0 23.914063 19.386718 43.300782 43.300781 43.300782h78.398437c-23.914062 0-43.300781-19.386719-43.300781-43.300782zm0 0" fill="#5ad6ff"/><path d="m166.242188 221.332031c-8.535157 0-15.453126-6.917969-15.453126-15.453125 0-26.46875-10.308593-51.355468-29.023437-70.074218-6.035156-6.03125-6.035156-15.816407 0-21.851563s15.816406-6.035156 21.851563 0c24.554687 24.554687 38.078124 57.199219 38.078124 91.925781 0 8.535156-6.917968 15.453125-15.453124 15.453125zm0 0" fill="#00a62c"/><path d="m166.242188 421.8125c-8.535157 0-15.453126-6.921875-15.453126-15.453125v-200.480469c0-34.726562 13.523438-67.371094 38.078126-91.925781 6.035156-6.035156 15.816406-6.035156 21.851562 0s6.035156 15.816406 0 21.855469c-18.71875 18.714844-29.023438 43.601562-29.023438 70.070312v200.480469c0 8.53125-6.917968 15.453125-15.453124 15.453125zm0 0" fill="#29ce69"/><path d="m291.410156 108.898438c33.238282-33.238282 43.25-77.113282 22.363282-98-20.890626-20.890626-64.765626-10.8750005-98.003907 22.363281-33.238281 33.238281-43.25 77.113281-22.363281 98s64.765625 10.875 98.003906-22.363281zm0 0" fill="#73da8c"/><path d="m41.078125 108.902344c33.238281 33.238281 77.113281 43.25 98 22.363281 20.890625-20.886719 10.875-64.765625-22.363281-98.003906-33.238282-33.2382815-77.113282-43.25-98-22.363281-20.890625 20.886718-10.875 64.765624 22.363281 98.003906zm0 0" fill="#29ce69"/><path d="m150.789062 211.050781h30.90625v86.601563h-30.90625zm0 0" fill="#73da8c"/><path d="m150.789062 297.652344v65.617187c9.121094-7.585937 19.53125-13.714843 30.90625-18.007812v-47.609375zm0 0" fill="#00a62c"/></svg>