<svg height="512pt" viewBox="0 -24 512 512" width="512pt" xmlns="http://www.w3.org/2000/svg"><path d="m464.351562 235.074219h-225.996093v229.746093h216.167969c31.742187 0 57.476562-25.730468 57.476562-57.476562v-124.617188c0-26.316406-21.335938-47.652343-47.648438-47.652343zm0 0" fill="#efb899"/><path d="m238.355469 352.9375v111.882812h216.167969c31.742187 0 57.476562-25.730468 57.476562-57.476562v-54.40625zm0 0" fill="#e4996d"/><path d="m397.042969 407.34375v-358.054688c0-27.222656-22.066407-49.289062-49.289063-49.289062h-247.535156c-27.222656 0-49.292969 22.070312-49.292969 49.289062v366.242188c0 27.222656 22.070313 49.289062 49.292969 49.289062h354.304688c-31.746094 0-57.480469-25.730468-57.480469-57.476562zm0 0" fill="#f6d6c5"/><path d="m218.058594 389.875c-73.109375-19.941406-87.183594-58.488281-87.183594-58.488281h-79.949219v84.144531c0 27.222656 22.070313 49.289062 49.292969 49.289062h203.65625c-13.214844-25.476562-39.648438-62.355468-85.816406-74.945312zm0 0" fill="#efb899"/><path d="m337.660156 215.132812h-227.351562c-4.265625 0-7.726563-3.457031-7.726563-7.726562 0-4.265625 3.460938-7.726562 7.726563-7.726562h227.351562c4.265625 0 7.726563 3.460937 7.726563 7.726562 0 4.269531-3.460938 7.726562-7.726563 7.726562zm0 0" fill="#767678"/><path d="m302.03125 266.226562h-156.089844c-4.265625 0-7.726562-3.457031-7.726562-7.726562 0-4.265625 3.460937-7.726562 7.726562-7.726562h156.089844c4.265625 0 7.726562 3.460937 7.726562 7.726562 0 4.269531-3.460937 7.726562-7.726562 7.726562zm0 0" fill="#767678"/><path d="m99.640625 292.898438s6.492187 87.679687-35.117187 131.121093c-7.457032 7.789063-20.476563 5.308594-24.605469-4.652343-3.054688-7.367188-5.886719-14.175782-5.886719-14.175782l-21.710938-1.039062c-9.148437-.441406-13.773437-11.21875-7.78125-18.140625 16.121094-18.625 36.820313-53.488281 35.222657-108.730469.804687-.675781 59.878906 15.617188 59.878906 15.617188zm0 0" fill="#f4e74d"/><path d="m39.761719 277.28125c.535156 18.503906-1.429688 34.71875-4.890625 48.804688 4.523437 5.144531 8.945312 12.195312 10.058594 20.871093 1.59375 12.421875 8.308593 47.152344 30.375 63.320313 29.632812-45.855469 24.335937-117.378906 24.335937-117.378906s-59.074219-16.292969-59.878906-15.617188zm0 0" fill="#dfca00"/><path d="m64.707031 292.898438s-6.492187 87.679687 35.117188 131.121093c7.457031 7.789063 20.476562 5.308594 24.605469-4.652343 3.054687-7.367188 5.886718-14.175782 5.886718-14.175782l21.710938-1.039062c9.148437-.441406 13.773437-11.21875 7.78125-18.140625-16.121094-18.625-36.820313-53.488281-35.222656-108.730469-.804688-.675781-59.878907 15.617188-59.878907 15.617188zm0 0" fill="#fcf5af"/><path d="m124.582031 277.28125c-.800781-.675781-59.875 15.617188-59.875 15.617188s-2.269531 30.648437 4.472657 64.679687c2.722656-9.425781 9.621093-20.519531 27.09375-20.234375 16.84375.28125 27.417968-5.199219 33.488281-10.109375-3.636719-14.351563-5.726563-30.945313-5.179688-49.953125zm0 0" fill="#f4e74d"/><path d="m158.945312 240.300781c0 9.976563-13.316406 17.230469-16.914062 25.910157-3.730469 8.992187.414062 23.507812-6.363281 30.285156-6.777344 6.777344-21.292969 2.632812-30.285157 6.359375-8.675781 3.597656-15.933593 16.917969-25.910156 16.917969-9.976562 0-17.230468-13.320313-25.910156-16.917969-8.992188-3.726563-23.507812.417969-30.285156-6.359375s-2.632813-21.292969-6.359375-30.285156c-3.597657-8.679688-16.917969-15.933594-16.917969-25.910157 0-9.976562 13.320312-17.234375 16.917969-25.910156 3.726562-8.992187-.417969-23.507813 6.359375-30.285156 6.777344-6.78125 21.292968-2.632813 30.285156-6.363281 8.679688-3.597657 15.933594-16.914063 25.910156-16.914063 9.976563 0 17.234375 13.316406 25.910156 16.914063 8.992188 3.730468 23.507813-.417969 30.285157 6.363281 6.777343 6.777343 2.632812 21.292969 6.363281 30.285156 3.597656 8.675781 16.914062 15.933594 16.914062 25.910156zm0 0" fill="#73da8c"/><path d="m124.585938 240.300781c0 24.914063-20.199219 45.109375-45.113282 45.109375-24.914062 0-45.109375-20.195312-45.109375-45.109375 0-24.914062 20.195313-45.113281 45.109375-45.113281 24.914063 0 45.113282 20.199219 45.113282 45.113281zm0 0" fill="#f4e74d"/><path d="m158.03125 112.964844c0-13.582032-13.824219-24.589844-30.878906-24.589844-17.054688 0-30.878906 11.007812-30.878906 24.589844 0 13.578125 13.824218 24.589844 30.878906 24.589844 17.054687 0 30.878906-11.011719 30.878906-24.589844zm0 0" fill="#ffabcd"/><path d="m351.695312 112.964844c0-13.582032-13.824218-24.589844-30.878906-24.589844-17.050781 0-30.875 11.007812-30.875 24.589844 0 13.578125 13.824219 24.589844 30.875 24.589844 17.054688 0 30.878906-11.011719 30.878906-24.589844zm0 0" fill="#ffabcd"/><g fill="#575757"><path d="m307.078125 99.464844c-4.269531 0-7.726563-3.460938-7.726563-7.726563v-12.824219c0-4.269531 3.457032-7.726562 7.726563-7.726562 4.265625 0 7.726563 3.457031 7.726563 7.726562v12.824219c0 4.265625-3.460938 7.726563-7.726563 7.726563zm0 0"/><path d="m140.894531 99.464844c-4.269531 0-7.726562-3.460938-7.726562-7.726563v-12.824219c0-4.269531 3.457031-7.726562 7.726562-7.726562 4.265625 0 7.726563 3.457031 7.726563 7.726562v12.824219c0 4.265625-3.460938 7.726563-7.726563 7.726563zm0 0"/><path d="m245.472656 106.734375c0-14.050781-9.621094-25.445313-21.488281-25.445313s-21.488281 11.394532-21.488281 25.445313 9.621094 25.441406 21.488281 25.441406 21.488281-11.390625 21.488281-25.441406zm0 0"/></g></svg>