<svg height="512pt" viewBox="-1 -112 512.0015 512" width="512pt" xmlns="http://www.w3.org/2000/svg"><path d="m256 287.890625c-66.222656 0-131.90625-16.863281-189.9375-48.769531-61.671875-33.90625-84.179688-111.386719-50.277344-173.054688 33.90625-61.671875 111.390625-84.183594 173.058594-50.277344 42.050781 23.117188 92.261719 23.117188 134.320312 0 61.667969-33.90625 139.148438-11.394531 173.050782 50.277344 33.90625 61.671875 11.394531 139.152344-50.277344 173.054688-58.035156 31.90625-123.714844 48.769531-189.9375 48.769531zm0 0" fill="#767678"/><path d="m187.050781 234.753906c-28.917969-23.335937-21.917969-69.386718 12.730469-82.824218 17.808594-6.90625 25.582031-15.359376 25.582031-15.359376v-106.882812c-12.570312-2.855469-24.859375-7.488281-36.523437-13.902344-61.667969-33.902344-139.148438-11.394531-173.054688 50.277344-33.902344 61.671875-11.394531 139.152344 50.277344 173.054688 58.03125 31.90625 123.710938 48.769531 189.9375 48.769531 10.316406 0 20.617188-.40625 30.878906-1.21875-43.808594-13.835938-76.179687-32.828125-99.828125-51.914063zm0 0" fill="#575757"/><path d="m99.835938 115.097656c26.398437 0 47.796874-21.402344 47.796874-47.800781v-65.695313c-33.726562-5.40625-68.265624 3.074219-95.597656 23.109376v42.585937c0 26.398437 21.402344 47.800781 47.800782 47.800781zm0 0" fill="#a8e1f6"/><path d="m412.164062 115.097656c26.398438 0 47.800782-21.402344 47.800782-47.800781v-42.589844c-27.332032-20.03125-61.867188-28.511719-95.597656-23.105469v65.695313c0 26.398437 21.398437 47.800781 47.796874 47.800781zm0 0" fill="#91d4f2"/><path d="m201.816406 141.945312c29.925782 0 54.183594-24.261718 54.183594-54.183593v-54.632813c-23.066406 0-46.132812-5.78125-67.15625-17.339844-13.207031-7.261718-27.136719-11.925781-41.210938-14.179687v86.152344c0 29.921875 24.261719 54.183593 54.183594 54.183593zm0 0" fill="#c2eafb"/><path d="m256 33.128906v54.632813c0 29.921875 24.257812 54.183593 54.183594 54.183593 29.925781 0 54.183594-24.261718 54.183594-54.183593v-86.15625c-14.070313 2.257812-28 6.921875-41.203126 14.179687-21.03125 11.5625-44.097656 17.34375-67.164062 17.34375zm0 0" fill="#a8e1f6"/><path d="m256 185.605469c-62.328125 0-113.148438 37.675781-115.714844 84.886719 37.394532 11.46875 76.457032 17.398437 115.714844 17.398437s78.320312-5.925781 115.714844-17.398437c-2.566406-47.210938-53.386719-84.886719-115.714844-84.886719zm0 0" fill="#ff8a98"/><path d="m412.167969 48.851562c-50.789063 14.089844-103.46875 21.375-156.167969 21.375s-105.378906-7.289062-156.164062-21.375v16.027344c50.851562 13.71875 103.5 20.796875 156.164062 20.796875s105.3125-7.078125 156.167969-20.796875zm0 0" fill="#919191"/><path d="m225.363281 75.460938c0 13.003906-10.542969 23.542968-23.546875 23.542968s-23.542968-10.539062-23.542968-23.542968c0-13.003907 10.539062-23.546876 23.542968-23.546876s23.546875 10.542969 23.546875 23.546876zm0 0" fill="#f4e74d"/><path d="m119.160156 56.136719c0 10.671875-8.652344 19.324219-19.324218 19.324219-10.671876 0-19.324219-8.652344-19.324219-19.324219 0-10.675781 8.652343-19.324219 19.324219-19.324219 10.671874 0 19.324218 8.648438 19.324218 19.324219zm0 0" fill="#ffa93f"/><path d="m431.488281 56.136719c0 10.671875-8.648437 19.324219-19.324219 19.324219-10.671874 0-19.324218-8.652344-19.324218-19.324219 0-10.675781 8.652344-19.324219 19.324218-19.324219 10.675782 0 19.324219 8.648438 19.324219 19.324219zm0 0" fill="#ffa93f"/><path d="m333.730469 75.460938c0 13.003906-10.542969 23.542968-23.546875 23.542968s-23.546875-10.539062-23.546875-23.542968c0-13.003907 10.542969-23.546876 23.546875-23.546876s23.546875 10.542969 23.546875 23.546876zm0 0" fill="#f4e74d"/><path d="m140.285156 270.492188c37.394532 11.46875 76.460938 17.398437 115.714844 17.398437 10.308594 0 20.625-.410156 30.878906-1.222656-43.796875-13.832031-76.183594-32.832031-99.828125-51.914063-7.378906-5.953125-12.414062-13.378906-15.253906-21.371094-18.558594 15.03125-30.308594 35.023438-31.511719 57.109376zm0 0" fill="#fd5c6f"/></svg>