<svg height="511pt" viewBox="-60 0 511 511.99872" width="511pt" xmlns="http://www.w3.org/2000/svg"><path d="m153.136719 279.214844-74.417969 9.230468-23.972656-193.257812c-2.546875-20.546875 12.042968-39.273438 32.59375-41.824219 20.546875-2.546875 39.273437 12.046875 41.824218 32.59375zm0 0" fill="#ffb2a6"/><path d="m227.550781 269.980469-74.414062 9.234375-29.414063-237.101563c-2.546875-20.550781 12.042969-39.277343 32.59375-41.824219 20.550782-2.546874 39.273438 12.042969 41.824219 32.59375zm0 0" fill="#ff9e8f"/><path d="m294.441406 273.375-74.226562-10.65625 27.675781-192.757812c2.945313-20.5 21.945313-34.730469 42.441406-31.785157 20.496094 2.941407 34.726563 21.945313 31.785157 42.441407zm0 0" fill="#ffb2a6"/><path d="m368.664062 284.035156-74.222656-10.65625 21.757813-151.546875c2.941406-20.496093 21.945312-34.726562 42.441406-31.78125 20.496094 2.941407 34.726563 21.941407 31.78125 42.441407zm0 0" fill="#ff9e8f"/><path d="m223.792969 511.808594c-83.621094 0-151.410157-67.785156-151.410157-151.40625v-123.039063h302.816407v123.039063c0 83.621094-67.785157 151.40625-151.40625 151.40625zm0 0" fill="#ffcbbe"/><path d="m227.679688 511.785156s-133.390626 11.398438-184.621094-132.746094l-40.273438-92.570312c-8.894531-20.445312 9.570313-42.328125 31.164063-36.789062 24.488281 6.277343 54 26.238281 76.222656 80.097656 5.46875 13.25 17.507813 22.609375 31.695313 24.679687 23.070312 3.371094 57.296874 12.820313 74.519531 39.269531 27.417969 42.109376 11.292969 118.058594 11.292969 118.058594zm0 0" fill="#ffddcf"/></svg>