<svg height="512.00046pt" viewBox="0 0 512.00046 512.00046" width="512.00046pt" xmlns="http://www.w3.org/2000/svg"><path d="m205.097656 446.542969c-21.695312 21.699219-80.179687 35.964843-127.175781 44.289062-33.5 5.9375-62.6875-23.25-56.753906-56.75 8.328125-46.996093 22.589843-105.480469 44.292969-127.179687 38.558593-38.5625 101.078124-38.5625 139.640624 0 38.558594 38.5625 38.558594 101.078125-.003906 139.640625zm0 0" fill="#ffa93f"/><path d="m205.097656 306.902344c-38.558594-38.5625-101.078125-38.5625-139.640625 0-3.277343 3.277344-6.386719 7.394531-9.328125 12.183594 9.085938 29.0625 26.84375 58.65625 52.488282 84.296874 25.640624 25.644532 55.238281 43.402344 84.296874 52.488282 4.789063-2.941406 8.90625-6.050782 12.183594-9.328125 38.5625-38.5625 38.5625-101.078125 0-139.640625zm0 0" fill="#ff9000"/><path d="m185.042969 415.003906c-15.902344 15.902344-64.9375 27.273438-96.964844 33.238282-14.390625 2.679687-27-9.929688-24.320313-24.320313 5.964844-32.027344 17.335938-81.0625 33.238282-96.964844 24.3125-24.3125 63.730468-24.3125 88.042968 0 24.316407 24.316407 24.316407 63.734375.003907 88.046875zm0 0" fill="#f4e74d"/><path d="m185.042969 326.957031c-24.316407-24.3125-63.734375-24.3125-88.046875 0-7.351563 7.355469-13.738282 21.800781-19.070313 38.367188 8.457031 13.242187 18.714844 26.082031 30.691407 38.058593 11.976562 11.976563 24.816406 22.234376 38.058593 30.691407 16.566407-5.328125 31.011719-11.714844 38.367188-19.070313 24.3125-24.3125 24.3125-63.730468 0-88.046875zm0 0" fill="#eedb00"/><path d="m186.179688 145.035156s-55.558594-85.183594-128.707032-36.109375c-43.921875 29.464844-55.339844 88.769531-57.4492185 131.449219-.7539065 15.214844 17.9648435 22.792969 28.1406245 11.460938 26.460938-29.472657 70.476563-59.007813 122.828126-17.914063-.925782-2.777344 35.1875-88.886719 35.1875-88.886719zm0 0" fill="#fd5c6f"/><path d="m366.964844 325.824219s85.1875 55.554687 36.113281 128.703125c-29.46875 43.921875-88.773437 55.339844-131.453125 57.449218-15.214844.753907-22.792969-17.960937-11.460938-28.140624 29.472657-26.460938 59.003907-70.476563 17.910157-122.828126 2.78125.925782 88.890625-35.183593 88.890625-35.183593zm0 0" fill="#fd5c6f"/><path d="m424.726562 339.589844c59.980469-80.847656 80.320313-218.539063 87.089844-292.378906 2.46875-26.941407-20.082031-49.496094-47.027344-47.027344-73.839843 6.773437-211.53125 27.109375-292.378906 87.089844-78.855468 58.507812-85.832031 132.789062-82.550781 173.3125 1.410156 17.4375 9.117187 33.757812 21.484375 46.128906l93.941406 93.9375c12.371094 12.371094 28.691406 20.078125 46.128906 21.488281 40.523438 3.28125 114.804688-3.695313 173.3125-82.550781zm0 0" fill="#b5e9f1"/><path d="m508.722656 76.527344c1.257813-10.558594 2.277344-20.402344 3.09375-29.316406 2.46875-26.941407-20.082031-49.496094-47.027344-47.027344-73.839843 6.773437-211.53125 27.109375-292.378906 87.089844-78.855468 58.507812-85.832031 132.789062-82.550781 173.3125.757813 9.386718 3.347656 18.460937 7.5 26.757812 7.5625-13.722656 17.164063-25.851562 27.226563-36.253906 26.371093-27.25 68.265624-31.601563 100.382812-11.441406 43.214844 27.125 84.996094 26.117187 84.335938 25.351562-.871094-1 59.429687-145.847656 59.011718-146.269531 74.746094 5.082031 140.40625-42.203125 140.40625-42.203125zm0 0" fill="#81d9e7"/><path d="m499.183594 139.902344c6.457031-35.113282 10.328125-67.59375 12.632812-92.691406 2.46875-26.941407-20.082031-49.496094-47.027344-47.027344-25.097656 2.304687-57.578124 6.175781-92.691406 12.636718 11.296875 25.832032 28.847656 51.753907 52.089844 74.992188 23.242188 23.242188 49.164062 40.796875 74.996094 52.089844zm0 0" fill="#00a8c3"/><path d="m511.816406 47.210938c2.46875-26.941407-20.082031-49.496094-47.027344-47.027344-25.097656 2.304687-57.578124 6.175781-92.691406 12.636718 11.296875 25.832032 28.847656 51.753907 52.089844 74.992188 7.078125 7.078125 14.398438 13.625 21.894531 19.632812 37.160157-12.589843 62.574219-30.867187 62.640625-30.917968 1.257813-10.554688 2.277344-20.40625 3.09375-29.316406zm0 0" fill="#0093af"/><path d="m238.597656 340.941406c-18.652344 18.652344-121.625 91.386719-140.273437 72.734375-18.652344-18.648437 54.085937-121.621093 72.734375-140.273437 18.652344-18.648438 48.886718-18.648438 67.539062 0 18.648438 18.652344 18.648438 48.890625 0 67.539062zm0 0" fill="#ff8a98"/><path d="m414.398438 182.867188c0 47.089843-38.175782 85.261718-85.265626 85.261718-47.089843 0-85.261718-38.171875-85.261718-85.261718 0-47.089844 38.171875-85.265626 85.261718-85.265626 47.089844 0 85.265626 38.175782 85.265626 85.265626zm0 0" fill="#0093af"/><path d="m373.191406 182.867188c0 24.332031-19.726562 44.058593-44.058594 44.058593-24.332031 0-44.054687-19.726562-44.054687-44.058593 0-24.332032 19.722656-44.058594 44.054687-44.058594 24.332032 0 44.058594 19.726562 44.058594 44.058594zm0 0" fill="#fff"/></svg>