<svg height="512pt" viewBox="0 0 512 512" width="512pt" xmlns="http://www.w3.org/2000/svg"><path d="m512 256c0 141.386719-114.613281 256-256 256s-256-114.613281-256-256 114.613281-256 256-256 256 114.613281 256 256zm0 0" fill="#8697a6"/><path d="m264.59375 422.773438c58.21875-46.398438 52.195312-141.695313 52.195312-141.695313s-67.515624-5.96875-67.515624-3.097656c-105.097657-65.355469-83.476563-212.367188-71.480469-265.8125-103.128907 33.054687-177.792969 129.726562-177.792969 243.832031 0 130.339844 97.40625 237.925781 223.394531 253.941406.75-26.125 8.777344-61.328125 41.199219-87.167968zm0 0" fill="#6b7d8e"/><path d="m256 452.828125c-108.53125 0-196.828125-88.296875-196.828125-196.828125s88.296875-196.828125 196.828125-196.828125 196.828125 88.296875 196.828125 196.828125-88.296875 196.828125-196.828125 196.828125zm0 0" fill="#e4996d"/><path d="m264.59375 422.773438c58.21875-46.398438 52.195312-141.695313 52.195312-141.695313s-67.515624-5.972656-67.515624-3.097656c-73.90625-45.957031-85.148438-132.308594-81.140626-198.085938-64.542968 32.335938-108.960937 99.132813-108.960937 176.105469 0 102.824219 79.246094 187.484375 179.871094 196.105469 6.082031-10.382813 14.371093-20.421875 25.550781-29.332031zm0 0" fill="#d97c41"/><path d="m59.171875 256c0 108.53125 88.296875 196.828125 196.828125 196.828125s196.828125-88.296875 196.828125-196.828125zm0 0" fill="#d97c41"/><path d="m239.042969 452.105469c6.082031-10.382813 14.371093-20.421875 25.550781-29.332031 58.21875-46.398438 52.195312-141.695313 52.195312-141.695313s-67.515624-5.972656-67.515624-3.097656c-10.550782-6.5625-19.820313-13.949219-27.953126-21.980469h-162.148437c0 102.824219 79.242187 187.484375 179.871094 196.105469zm0 0" fill="#af602d"/><path d="m452.828125 256c0-37.585938-10.59375-72.742188-28.949219-102.644531h-335.757812c-18.355469 29.902343-28.949219 65.058593-28.949219 102.644531zm0 0" fill="#d97c41"/><path d="m171.464844 153.355469h-83.34375c-18.355469 29.902343-28.949219 65.058593-28.949219 102.644531h162.148437c-29.050781-28.675781-43.578124-65.578125-49.855468-102.644531zm0 0" fill="#af602d"/><path d="m59.171875 256c0 37.585938 10.59375 72.742188 28.949219 102.644531h335.761718c18.351563-29.902343 28.945313-65.058593 28.945313-102.644531zm0 0" fill="#e4996d"/><path d="m88.121094 358.644531h218.222656c12.839844-39.644531 10.445312-77.566406 10.445312-77.566406s-67.515624-5.972656-67.515624-3.097656c-10.550782-6.5625-19.820313-13.949219-27.953126-21.980469h-162.148437c0 37.585938 10.59375 72.742188 28.949219 102.644531zm0 0" fill="#d97c41"/><path d="m444.445312 37.289062c-44.269531 1.636719-87.007812 18.535157-113.175781 31.199219-16.113281 7.796875-29.8125 19.796875-39.667969 34.738281l-124.195312 188.265626 53.097656 53.101562 188.265625-124.195312c14.941407-9.859376 26.945313-23.554688 34.742188-39.667969 12.660156-26.171875 29.5625-68.90625 31.199219-113.175781.625-16.949219-13.316407-30.890626-30.265626-30.265626zm0 0" fill="#c6c6c6"/><path d="m466.167969 45.832031c-5.527344-5.527343-13.246094-8.855469-21.722657-8.542969-44.269531 1.636719-87.007812 18.535157-113.175781 31.199219-16.113281 7.796875-29.8125 19.796875-39.667969 34.738281l-124.195312 188.265626 26.550781 26.550781zm0 0" fill="#a8a8a8"/><path d="m141.644531 456.824219c-23.878906 23.875-62.589843 23.875-86.46875 0-23.875-23.878907-23.875-62.59375 0-86.46875 23.878907-23.878907 115.96875-77.257813 139.847657-53.378907 23.878906 23.878907-29.5 115.96875-53.378907 139.847657zm0 0" fill="#fd5c6f"/><path d="m195.023438 316.976562c-18.152344-18.152343-75.722657 8.34375-112.78125 32.585938 12.710937 4.917969 33.585937 14.277344 49.835937 27.898438 17.5625 14.722656 39.445313 16.375 51.019531 16.039062 15.253906-31.089844 24.773438-63.679688 11.925782-76.523438zm0 0" fill="#f6334c"/><path d="m206.359375 394.4375-88.796875-88.796875c-14.183594-14.183594-14.183594-37.179687 0-51.363281s37.183594-14.183594 51.367188 0l88.792968 88.792968c14.183594 14.183594 14.183594 37.183594 0 51.367188s-37.179687 14.183594-51.363281 0zm0 0" fill="#ffb000"/><path d="m243.207031 324.355469c0 30.6875-24.875 55.566406-55.5625 55.566406s-55.566406-24.878906-55.566406-55.566406 24.878906-55.5625 55.566406-55.5625 55.5625 24.875 55.5625 55.5625zm0 0" fill="#f4e74d"/><path d="m208.808594 324.355469c0 11.691406-9.476563 21.167969-21.164063 21.167969-11.691406 0-21.167969-9.476563-21.167969-21.167969 0-11.6875 9.476563-21.164063 21.167969-21.164063 11.6875 0 21.164063 9.476563 21.164063 21.164063zm0 0" fill="#73da8c"/></svg>