<svg height="512pt" viewBox="-104 0 512 512" width="512pt" xmlns="http://www.w3.org/2000/svg"><path d="m224.558594 85.769531h-145.6875v-53.90625c0-17.597656 14.265625-31.863281 31.863281-31.863281h81.964844c17.597656 0 31.859375 14.265625 31.859375 31.863281zm0 0" fill="#c6c6c6"/><path d="m144.40625 0h-33.671875c-17.597656 0-31.863281 14.265625-31.863281 31.863281v53.90625h121.207031c-26.972656-35.363281-65.199219-24.035156-71.304687-48.5-5.269532-21.101562 15.632812-37.269531 15.632812-37.269531zm0 0" fill="#a8a8a8"/><path d="m224.558594 426.230469h-145.6875v53.90625c0 17.597656 14.265625 31.863281 31.863281 31.863281h81.964844c17.597656 0 31.859375-14.265625 31.859375-31.863281zm0 0" fill="#c6c6c6"/><path d="m78.871094 480.136719c0 17.597656 14.265625 31.863281 31.863281 31.863281h31.921875c-1.261719-16.296875 11-31.300781 28.148438-32.550781 23.398437-1.707031 42.445312-6.875 53.753906-10.648438v-42.570312h-145.6875zm0 0" fill="#a8a8a8"/><path d="m248.386719 453.382812h-193.644531c-30.234376 0-54.742188-24.507812-54.742188-54.738281v-285.289062c0-30.230469 24.507812-54.738281 54.742188-54.738281h193.644531c30.230469 0 54.738281 24.507812 54.738281 54.738281v285.289062c0 30.230469-24.507812 54.738281-54.738281 54.738281zm0 0" fill="#73da8c"/><path d="m60.746094 398.644531v-285.289062c0-30.230469 24.507812-54.738281 54.742187-54.738281h-60.746093c-30.234376 0-54.742188 24.507812-54.742188 54.738281v285.289062c0 30.230469 24.507812 54.738281 54.742188 54.738281h60.746093c-30.234375 0-54.742187-24.507812-54.742187-54.738281zm0 0" fill="#29ce69"/><path d="m138.015625 219.523438h62.164063c14.703124 0 23.882812 15.929687 16.511718 28.648437l-29.839844 51.492187h18.195313c9.496094 0 13.761719 11.902344 6.425781 17.933594l-84.175781 69.183594c-14.347656 11.789062-35.035156-3.054688-28.460937-20.421875l22.601562-59.679687h-21.648438c-11.734374 0-19.445312-12.257813-14.359374-22.832032l21.515624-44.78125c5.738282-11.945312 17.820313-19.542968 31.070313-19.542968zm0 0" fill="#f4e74d"/><g fill="#575757"><path d="m234.65625 153.757812c-4.269531 0-7.726562-3.460937-7.726562-7.726562v-12.828125c0-4.265625 3.457031-7.726563 7.726562-7.726563 4.265625 0 7.726562 3.460938 7.726562 7.726563v12.828125c0 4.265625-3.460937 7.726562-7.726562 7.726562zm0 0"/><path d="m68.472656 153.757812c-4.269531 0-7.726562-3.460937-7.726562-7.726562v-12.828125c0-4.265625 3.457031-7.726563 7.726562-7.726563 4.265625 0 7.726563 3.460938 7.726563 7.726563v12.828125c0 4.265625-3.460938 7.726562-7.726563 7.726562zm0 0"/><path d="m151.5625 161.847656c-10 0-20-3.234375-28.34375-9.707031-3.371094-2.617187-3.984375-7.46875-1.367188-10.84375 2.613282-3.371094 7.46875-3.984375 10.835938-1.367187 11.113281 8.617187 26.636719 8.617187 37.75 0 3.371094-2.617188 8.222656-2.003907 10.839844 1.367187 2.613281 3.375 2 8.226563-1.371094 10.84375-8.34375 6.472656-18.34375 9.707031-28.34375 9.707031zm0 0"/></g></svg>