<svg height="512pt" viewBox="-16 0 512 512" width="512pt" xmlns="http://www.w3.org/2000/svg"><path d="m143.6875 104.878906c24.175781 0 50.191406 4.007813 77.335938 11.914063 28.628906 8.335937 57.125 20.636719 84.695312 36.550781 27.769531 16.035156 52.824219 34.710938 74.460938 55.511719 20.503906 19.710937 37.003906 40.390625 49.035156 61.464843 11.195312 19.609376 18.0625 39.125 19.859375 56.4375 1.664062 16.015626-.921875 30.074219-7.683594 41.789063-6.816406 11.804687-17.8125 21.121094-32.683594 27.699219-16.082031 7.113281-36.652343 10.875-59.488281 10.875-24.175781 0-50.195312-4.007813-77.335938-11.910156-28.632812-8.339844-57.128906-20.636719-84.699218-36.554688-27.769532-16.035156-52.820313-34.710938-74.460938-55.511719-20.503906-19.710937-37.003906-40.390625-49.035156-61.464843-11.195312-19.609376-18.0625-39.125-19.859375-56.4375-1.664063-16.015626.921875-30.074219 7.683594-41.789063 6.816406-11.800781 17.8125-21.121094 32.683593-27.699219 16.082032-7.113281 36.652344-10.875 59.488282-10.875zm-.003906-30.90625c-54.175782.003906-98.152344 18.03125-118.933594 54.027344-41.265625 71.476562 24.539062 186.726562 146.980469 257.417969 60.78125 35.09375 124.089843 52.609375 177.488281 52.609375 54.175781 0 98.152344-18.03125 118.9375-54.027344 41.265625-71.476562-24.539062-186.726562-146.984375-257.417969-60.78125-35.09375-124.089844-52.609375-177.488281-52.609375zm0 0" fill="#3ccbde"/><path d="m349.238281 104.878906c22.832031 0 43.398438 3.761719 59.476563 10.875 14.867187 6.574219 25.859375 15.894532 32.675781 27.699219 6.761719 11.714844 9.347656 25.773437 7.6875 41.789063-1.796875 17.3125-8.667969 36.828124-19.863281 56.4375-12.03125 21.074218-28.527344 41.753906-49.035156 61.464843-21.636719 20.800781-46.691407 39.476563-74.460938 55.511719-27.566406 15.914062-56.0625 28.210938-84.695312 36.550781-27.144532 7.90625-53.164063 11.914063-77.339844 11.914063-22.835938 0-43.410156-3.761719-59.488282-10.871094-14.871093-6.578125-25.863281-15.898438-32.679687-27.703125-6.761719-11.714844-9.347656-25.773437-7.6875-41.789063 1.796875-17.3125 8.664063-36.828124 19.859375-56.4375 12.035156-21.074218 28.53125-41.753906 49.039062-61.464843 21.636719-20.800781 46.6875-39.476563 74.457032-55.511719 27.566406-15.914062 56.0625-28.210938 84.699218-36.550781 27.144532-7.902344 53.164063-11.914063 77.347657-11.914063zm-.019531-30.90625c-53.394531.003906-116.714844 17.519532-177.488281 52.609375-122.441407 70.691407-188.246094 185.941407-146.980469 257.417969 20.785156 36 64.75 54.027344 118.933594 54.027344 53.398437 0 116.714844-17.519532 177.488281-52.609375 122.445313-70.691407 188.25-185.941407 146.984375-257.417969-20.785156-36-64.75-54.027344-118.9375-54.027344zm0 0" fill="#81d9e7"/><path d="m246.453125 30.90625c13.527344 0 26.996094 4.789062 40.035156 14.238281 14.09375 10.210938 27.5625 25.917969 38.945313 45.417969 12.234375 20.957031 21.894531 45.585938 28.710937 73.199219 7.195313 29.140625 10.84375 60.175781 10.84375 92.238281 0 32.066406-3.648437 63.101562-10.84375 92.238281-6.816406 27.613281-16.480469 52.242188-28.710937 73.203125-11.386719 19.496094-24.851563 35.203125-38.945313 45.414063-13.039062 9.449219-26.511719 14.238281-40.035156 14.238281-13.527344 0-26.996094-4.789062-40.035156-14.238281-14.097657-10.210938-27.5625-25.917969-38.945313-45.417969-12.234375-20.957031-21.894531-45.585938-28.710937-73.199219-7.195313-29.140625-10.84375-60.171875-10.84375-92.238281s3.648437-63.097656 10.84375-92.238281c6.816406-27.613281 16.476562-52.242188 28.710937-73.199219 11.382813-19.5 24.851563-35.207031 38.945313-45.417969 13.039062-9.449219 26.507812-14.238281 40.035156-14.238281m0-30.90625c-82.535156 0-149.441406 114.613281-149.441406 256s66.90625 256 149.441406 256c82.53125 0 149.4375-114.613281 149.4375-256s-66.90625-256-149.4375-256zm0 0" fill="#b5e9f1"/><path d="m343.460938 256c0 53.574219-43.433594 97.007812-97.007813 97.007812-53.578125 0-97.007813-43.433593-97.007813-97.007812s43.429688-97.007812 97.007813-97.007812c53.574219 0 97.007813 43.433593 97.007813 97.007812zm0 0" fill="#00ddc4"/><path d="m203.628906 256c0-70.960938 42.824219-97.007812 42.824219-97.007812-53.578125 0-97.007813 43.433593-97.007813 97.007812s43.429688 97.007812 97.007813 97.007812c0 0-42.824219-26.046874-42.824219-97.007812zm0 0" fill="#00c5a3"/><g fill="#575757"><path d="m295.289062 268.597656c-4.265624 0-7.726562-3.460937-7.726562-7.726562v-12.828125c0-4.265625 3.460938-7.726563 7.726562-7.726563 4.269532 0 7.726563 3.460938 7.726563 7.726563v12.828125c0 4.265625-3.457031 7.726562-7.726563 7.726562zm0 0"/><path d="m197.613281 268.597656c-4.265625 0-7.726562-3.460937-7.726562-7.726562v-12.828125c0-4.265625 3.460937-7.726563 7.726562-7.726563 4.269531 0 7.726563 3.460938 7.726563 7.726563v12.828125c0 4.265625-3.457032 7.726562-7.726563 7.726562zm0 0"/><path d="m251.730469 253.152344c-1.730469 2.542968-4.253907 2.847656-5.277344 2.847656-1.027344 0-3.589844-.277344-5.277344-2.847656-2.34375-3.566406-7.136719-4.558594-10.699219-2.214844-3.566406 2.339844-4.558593 7.132812-2.21875 10.699219 4.039063 6.148437 10.839844 9.816406 18.195313 9.816406s14.152344-3.667969 18.191406-9.816406c2.34375-3.566407 1.351563-8.359375-2.214843-10.699219-1.308594-.859375-7.089844-3.085938-10.699219 2.214844zm0 0"/></g><path d="m322.652344 32.65625c0 16.492188-13.371094 29.863281-29.863282 29.863281-16.496093 0-29.863281-13.371093-29.863281-29.863281s13.367188-29.863281 29.863281-29.863281c16.492188 0 29.863282 13.371093 29.863282 29.863281zm0 0" fill="#fd5c6f"/><path d="m446.570312 407.800781c0 16.492188-13.371093 29.863281-29.863281 29.863281-16.496093 0-29.867187-13.371093-29.867187-29.863281 0-16.496093 13.371094-29.867187 29.867187-29.867187 16.492188 0 29.863281 13.371094 29.863281 29.867187zm0 0" fill="#29ce69"/><path d="m59.726562 327.542969c0 16.496093-13.371093 29.863281-29.863281 29.863281-16.492187 0-29.863281-13.367188-29.863281-29.863281 0-16.492188 13.371094-29.863281 29.863281-29.863281 16.492188 0 29.863281 13.371093 29.863281 29.863281zm0 0" fill="#f4e74d"/></svg>