<svg height="511pt" viewBox="1 -31 511.99897 511" width="511pt" xmlns="http://www.w3.org/2000/svg"><path d="m160.460938 145.074219h75.800781v237.976562h-75.800781zm0 0" fill="#a5b1bd"/><path d="m160.460938 256.683594c9.390624-2.976563 21.765624-5.730469 37.898437-7.414063 15.300781-1.601562 27.832031-5.882812 37.902344-11.082031v-93.113281h-75.804688v111.609375zm0 0" fill="#8697a6"/><path d="m418.222656 344.480469h-106.957031v-52.914063c0-18.335937 14.867187-33.203125 33.203125-33.203125h40.550781c18.335938 0 33.203125 14.867188 33.203125 33.203125zm0 0" fill="#00a8c3"/><path d="m385.019531 258.363281h-40.550781c-18.335938 0-33.203125 14.867188-33.203125 33.203125v52.914063h60.25c-13.019531-27.132813-13.878906-59.605469 13.503906-86.117188zm0 0" fill="#0093af"/><path d="m445.988281 449.0625h-379.976562c-36.457031 0-66.011719-29.554688-66.011719-66.011719 0-36.460937 29.554688-66.015625 66.011719-66.015625h379.972656c36.460937 0 66.015625 29.554688 66.015625 66.015625 0 36.457031-29.554688 66.011719-66.011719 66.011719zm0 0" fill="#00ddc4"/><path d="m87.078125 383.050781c0-36.460937 29.554687-66.015625 66.011719-66.015625h-87.078125c-36.457031 0-66.011719 29.554688-66.011719 66.015625 0 36.457031 29.554688 66.011719 66.011719 66.011719h87.078125c-36.457032 0-66.011719-29.554688-66.011719-66.011719zm0 0" fill="#00c5a3"/><path d="m302.332031 104.472656c0 57.421875-46.550781 103.972656-103.972656 103.972656s-103.972656-46.550781-103.972656-103.972656 46.550781-103.972656 103.972656-103.972656 103.972656 46.550781 103.972656 103.972656zm0 0" fill="#ff8a98"/><path d="m150.953125 98.253906c0-38.261718 15.796875-72.835937 41.203125-97.570312-54.527344 3.210937-97.769531 48.453125-97.769531 103.789062 0 57.421875 46.550781 103.972656 103.972656 103.972656 0 0-47.40625-38.054687-47.40625-110.191406zm0 0" fill="#fd5c6f"/><g fill="#575757"><path d="m247.199219 117.183594c-4.269531 0-7.726563-3.457032-7.726563-7.726563v-12.828125c0-4.265625 3.457032-7.722656 7.726563-7.722656s7.726562 3.457031 7.726562 7.722656v12.828125c0 4.269531-3.460937 7.726563-7.726562 7.726563zm0 0"/><path d="m149.523438 117.183594c-4.269532 0-7.726563-3.457032-7.726563-7.726563v-12.828125c0-4.265625 3.457031-7.722656 7.726563-7.722656 4.265624 0 7.726562 3.457031 7.726562 7.722656v12.828125c0 4.269531-3.460938 7.726563-7.726562 7.726563zm0 0"/><path d="m215.007812 117.640625c0-10.707031-7.453124-19.386719-16.648437-19.386719s-16.648437 8.679688-16.648437 19.386719c0 10.710937 7.453124 19.390625 16.648437 19.390625s16.648437-8.679688 16.648437-19.390625zm0 0"/></g></svg>