<svg height="512pt" viewBox="0 -53 512 511" width="512pt" xmlns="http://www.w3.org/2000/svg"><path d="m157.449219 344.109375-8.914063-32.886719c21.984375 1.632813 37.746094-2.488281 46.84375-12.242187 12.519532-13.417969 9.890625-34.441407 9.859375-34.648438l32.210938-4.648437c.210937 1.480468 4.96875 36.582031-18.273438 61.496094-14.21875 15.238281-34.949219 22.929687-61.726562 22.929687zm0 0" fill="#ff8a98"/><path d="m488.167969 125.324219c-21.1875 27.871093-98.296875 27.773437-98.296875 27.773437h-116.71875v50.652344h116.71875s77.109375-.097656 98.296875 27.773438c.042969 0 .042969-106.199219 0-106.199219zm0 0" fill="#fd5c6f"/><path d="m78.160156 254.128906-21.425781 106.308594c-4.691406 23.28125 13.109375 45.027344 36.859375 45.027344h33.558594c15.808594 0 29.378906-11.257813 32.300781-26.792969l24.289063-129.234375zm0 0" fill="#68a2df"/><path d="m183.742188 249.4375-105.582032 4.691406-13.578125 67.378906c13.105469-1.507812 28.894531-2.261718 44.835938-.492187 38.988281 4.332031 62.785156-10.183594 62.785156-10.183594zm0 0" fill="#358cd9"/><path d="m120.300781 34.527344h51.902344v67.074218h-51.902344zm0 0" fill="#0070c8"/><path d="m240.59375 275.714844h-199.230469c-22.84375 0-41.363281-18.519532-41.363281-41.363282v-111.851562c0-22.84375 18.519531-41.363281 41.363281-41.363281h199.230469c53.730469 0 97.289062 43.558593 97.289062 97.289062s-43.558593 97.289063-97.289062 97.289063zm0 0" fill="#a4e7ff"/><path d="m0 122.5v111.851562c0 22.84375 18.519531 41.363282 41.363281 41.363282h71.609375c-13.71875-14.441406-21.125-32.066406-24.949218-48.722656-6.296876-27.402344 6.160156-55.734376 30.417968-69.957032 48.65625-28.53125 53.902344-75.898437 53.902344-75.898437h-130.980469c-22.84375 0-41.363281 18.519531-41.363281 41.363281zm0 0" fill="#5ad6ff"/><path d="m401.109375 238c-13.160156 0-23.828125-10.667969-23.828125-23.832031v-71.488281c0-13.160157 10.667969-23.832032 23.828125-23.832032 13.164063 0 23.832031 10.671875 23.832031 23.832032v71.488281c0 13.164062-10.667968 23.832031-23.832031 23.832031zm0 0" fill="#ff8a98"/><path d="m488.167969 272.324219c-13.160157 0-23.828125-10.667969-23.828125-23.828125v-140.144532c0-13.160156 10.667968-23.828124 23.828125-23.828124 13.164062 0 23.832031 10.667968 23.832031 23.828124v140.144532c0 13.160156-10.667969 23.828125-23.832031 23.828125zm0 0" fill="#ff8a98"/><path d="m217.730469 233.847656h-217.730469v-110.847656h217.730469c30.609375 0 55.421875 24.8125 55.421875 55.425781 0 30.609375-24.8125 55.421875-55.421875 55.421875zm0 0" fill="#00d2ce"/><path d="m229.394531 45.558594h-70.835937v-30.90625h70.835937c8.535157 0 15.453125 6.921875 15.453125 15.453125 0 8.535156-6.917968 15.453125-15.453125 15.453125zm0 0" fill="#ffde55"/><path d="m180.582031 56.609375h-66.5c-15.492187 0-28.054687-12.558594-28.054687-28.054687 0-15.492188 12.5625-28.054688 28.054687-28.054688h66.5c15.496094 0 28.054688 12.5625 28.054688 28.054688 0 15.496093-12.558594 28.054687-28.054688 28.054687zm0 0" fill="#68a2df"/><path d="m122.4375 28.554688c0-15.496094 12.5625-28.054688 28.054688-28.054688h-36.410157c-15.492187 0-28.054687 12.558594-28.054687 28.054688 0 15.496093 12.5625 28.054687 28.054687 28.054687h36.410157c-15.492188 0-28.054688-12.558594-28.054688-28.054687zm0 0" fill="#358cd9"/><path d="m0 123v110.847656h89.792969c-.660157-2.292968-1.25-4.582031-1.769531-6.855468-6.296876-27.402344 6.160156-55.734376 30.417968-69.957032 17.027344-9.984375 28.738282-22.273437 36.769532-34.035156zm0 0" fill="#00bdba"/></svg>