<svg height="511pt" viewBox="1 -42 511.99897 511" width="511pt" xmlns="http://www.w3.org/2000/svg"><path d="m241.863281 428.421875h-164.527343v-427.921875h130.773437c18.640625 0 33.753906 15.113281 33.753906 33.753906zm0 0" fill="#fd5c6f"/><path d="m154.667969 428.421875h-109.070313c-25.183594 0-45.597656-20.414063-45.597656-45.597656v-336.726563c0-25.183594 20.414062-45.597656 45.597656-45.597656h109.070313zm0 0" fill="#ff8a98"/><path d="m154.667969 102.328125h126.214843v326.09375h-126.214843zm0 0" fill="#a4e7ff"/><path d="m485.628906 428.421875h-158.925781v-374.121094h158.925781c14.5625 0 26.371094 11.808594 26.371094 26.371094v321.375c0 14.566406-11.808594 26.375-26.371094 26.375zm0 0" fill="#29ce69"/><path d="m419.351562 428.421875h-138.46875v-333.78125c0-22.277344 18.0625-40.339844 40.339844-40.339844h98.128906zm0 0" fill="#73da8c"/><path d="m77.335938 346.863281c-15.632813 0-28.300782-12.671875-28.300782-28.300781v-208.203125c0-15.628906 12.671875-28.300781 28.300782-28.300781 15.628906 0 28.296874 12.671875 28.296874 28.300781v208.203125c0 15.628906-12.667968 28.300781-28.296874 28.300781zm0 0" fill="#f4e74d"/><path d="m154.667969 193.734375h126.214843v143.28125h-126.214843zm0 0" fill="#59c2e8"/><path d="m383.304688 130.394531c0-22.257812-14.859376-40.300781-33.1875-40.300781-18.328126 0-33.1875 18.042969-33.1875 40.300781 0 22.257813 14.859374 40.300781 33.1875 40.300781 18.328124 0 33.1875-18.042968 33.1875-40.300781zm0 0" fill="#e4996d"/></svg>