<svg height="512pt" viewBox="0 -72 512 512" width="512pt" xmlns="http://www.w3.org/2000/svg"><path d="m460.734375 368.8125h-409.46875c-28.3125 0-51.265625-22.953125-51.265625-51.269531v-266.277344c0-28.3125 22.953125-51.265625 51.265625-51.265625h409.46875c28.3125 0 51.265625 22.953125 51.265625 51.265625v266.277344c0 28.316406-22.953125 51.269531-51.265625 51.269531zm0 0" fill="#e4996d"/><path d="m0 51.265625v266.277344c0 28.316406 22.953125 51.269531 51.265625 51.269531h86.585937c-22.175781-28.582031-18.492187-71.207031-18.492187-71.207031v-141.261719c0-29.183594 13.234375-57 36.414063-74.734375 41.300781-31.597656 58.402343-81.609375 58.402343-81.609375h-162.910156c-28.3125 0-51.265625 22.953125-51.265625 51.265625zm0 0" fill="#d97c41"/><path d="m68.4375 325.875c-14.085938 0-25.503906-11.417969-25.503906-25.503906v-231.933594c0-14.085938 11.417968-25.503906 25.503906-25.503906h375.125c14.085938 0 25.503906 11.417968 25.503906 25.503906v231.933594c0 14.085937-11.417968 25.503906-25.503906 25.503906zm0 0" fill="#00c140"/><path d="m68.4375 42.9375c-14.085938 0-25.503906 11.414062-25.503906 25.5v231.9375c0 14.082031 11.417968 25.503906 25.503906 25.503906h52.335938c-2.480469-15.890625-1.414063-28.273437-1.414063-28.273437v-141.261719c0-29.183594 13.234375-57 36.414063-74.734375 15.089843-11.546875 26.949218-25.550781 35.925781-38.671875zm0 0" fill="#00a62c"/><g fill="#fff"><path d="m129.453125 165.519531c4.445313 0 8.046875-3.601562 8.046875-8.050781 0-4.445312-3.601562-8.050781-8.046875-8.050781h-35.988281c-4.449219 0-8.050782 3.605469-8.050782 8.050781v64.632812c0 4.445313 3.601563 8.050782 8.050782 8.050782h35.988281c4.445313 0 8.046875-3.605469 8.046875-8.050782 0-4.449218-3.601562-8.050781-8.046875-8.050781h-27.9375v-16.214843h27.9375c4.445313 0 8.046875-3.601563 8.046875-8.050782 0-4.445312-3.601562-8.050781-8.046875-8.050781h-27.9375v-16.214844zm0 0"/><path d="m184.097656 169.25h-23.503906c-4.445312 0-8.050781 3.601562-8.050781 8.046875 0 4.449219 3.605469 8.050781 8.050781 8.050781h23.503906c4.445313 0 8.050782-3.601562 8.050782-8.050781 0-4.445313-3.605469-8.046875-8.050782-8.046875zm0 0"/><path d="m184.097656 196.425781h-23.503906c-4.445312 0-8.050781 3.601563-8.050781 8.046875 0 4.449219 3.605469 8.050782 8.050781 8.050782h23.503906c4.445313 0 8.050782-3.601563 8.050782-8.050782 0-4.445312-3.605469-8.046875-8.050782-8.046875zm0 0"/><path d="m275.871094 172.921875c-8.066406 0-15.355469 3.359375-20.5625 8.746094-5.207032-5.386719-12.5-8.746094-20.566406-8.746094-5.027344 0-9.75 1.308594-13.863282 3.59375-1.441406-2.164063-3.902344-3.59375-6.699218-3.59375-4.449219 0-8.050782 3.601563-8.050782 8.050781v41.128906c0 4.445313 3.601563 8.046876 8.050782 8.046876 4.445312 0 8.050781-3.601563 8.050781-8.046876v-20.566406c0-6.898437 5.613281-12.511718 12.511719-12.511718 6.902343 0 12.515624 5.613281 12.515624 12.511718v20.566406c0 4.445313 3.601563 8.046876 8.050782 8.046876 4.445312 0 8.050781-3.601563 8.050781-8.046876v-20.566406c0-6.898437 5.613281-12.511718 12.511719-12.511718 6.902344 0 12.515625 5.613281 12.515625 12.511718v20.566406c0 4.445313 3.601562 8.046876 8.050781 8.046876 4.445312 0 8.050781-3.601563 8.050781-8.046876v-20.566406c0-15.777344-12.835937-28.613281-28.617187-28.613281zm0 0"/><path d="m355.046875 210.09375c-2.394531 2.550781-5.636719 3.957031-9.132813 3.957031-6.898437 0-12.511718-5.613281-12.511718-12.511719 0-6.902343 5.613281-12.515624 12.511718-12.515624 3.34375 0 6.484376 1.300781 8.847657 3.664062 3.144531 3.144531 8.242187 3.144531 11.386719 0 3.144531-3.144531 3.144531-8.242188 0-11.382812-5.40625-5.40625-12.589844-8.382813-20.234376-8.382813-15.777343 0-28.613281 12.835937-28.613281 28.617187 0 15.777344 12.835938 28.613282 28.613281 28.613282 7.878907 0 15.492188-3.296875 20.878907-9.050782 3.039062-3.242187 2.875-8.335937-.371094-11.378906-3.242187-3.039062-8.335937-2.875-11.375.371094zm0 0"/><path d="m418.535156 184.789062h-10.199218l11.132812-16.0625c4.074219-5.878906 4.542969-13.460937 1.226562-19.796874-3.316406-6.332032-9.820312-10.269532-16.96875-10.269532-5.941406 0-11.636718 2.824219-15.234374 7.546875 0 0-8.265626 9.453125-1.371094 15.082031 6.894531 5.628907 14.179687-5.324218 14.179687-5.324218.570313-.753906 1.480469-1.203125 2.425781-1.203125 1.609376 0 2.386719 1.027343 2.707032 1.636719.320312.613281.71875 1.835937-.195313 3.15625l-19.890625 28.699218c-1.707031 2.460938-1.90625 5.664063-.515625 8.320313 1.390625 2.652343 4.136719 4.316406 7.132813 4.316406h25.574218c4.445313 0 8.050782-3.605469 8.050782-8.050781-.003906-4.445313-3.605469-8.050782-8.054688-8.050782zm0 0"/></g></svg>