<svg height="512pt" viewBox="0 -89 512.0004 512" width="512pt" xmlns="http://www.w3.org/2000/svg"><path d="m444.292969 128.308594c-4.613281-44.035156-38.78125-77.796875-80.730469-83.695313-9.429688-1.324219-18.226562-5.5625-24.78125-12.46875-17.210938-18.136719-41.539062-29.449219-68.515625-29.449219-28.6875 0-54.382813 12.792969-71.707031 32.976563-7.191406 8.382813-18.992188 10.832031-29.160156 6.511719-30.792969-13.09375-67.746094-5.179688-90.242188 21.871094-26.679688 32.074218-23.210938 79.242187 7.234375 107.117187-25.039063 29.460937-24.839844 73.632813 1.953125 102.886719 23.375 25.523437 59.839844 31.878906 89.707031 18.234375 9.578125-4.378907 20.746094-2.417969 28.523438 4.679687 27.394531 24.992188 68.183593 32.480469 103.839843 15.738282 25.8125-12.117188 43.570313-34.414063 50.757813-59.855469 3.417969-12.109375 12.054687-22.179688 23.761719-26.78125 38.546875-15.140625 63.882812-54.574219 59.359375-97.765625zm0 0" fill="#59c2e8"/><path d="m328.425781 286.292969s53.648438 73.085937 126.734375 36.542969c73.085938-36.542969 30.28125-165.628907 30.28125-165.628907zm0 0" fill="#0097d1"/><path d="m485.441406 157.210938-157.015625 129.082031s37.304688 50.832031 92.082031 46.515625c23.320313-29.113282 23.847657-71.617188 44.171876-79.433594 13.707031-5.269531 25.066406-11.796875 33.214843-17.195312.222657-40.738282-12.453125-78.96875-12.453125-78.96875zm0 0" fill="#0081b9"/><path d="m511.480469 125.609375c-4.613281-44.03125-38.78125-77.796875-80.730469-83.691406-9.425781-1.324219-18.226562-5.566407-24.78125-12.46875-17.210938-18.136719-41.539062-29.449219-68.515625-29.449219-28.6875 0-54.382813 12.789062-71.707031 32.976562-7.195313 8.382813-18.996094 10.832032-29.160156 6.511719-30.792969-13.09375-67.746094-5.179687-90.246094 21.871094-26.675782 32.074219-23.207032 79.242187 7.238281 107.117187-25.042969 29.460938-24.839844 73.632813 1.953125 102.886719 23.375 25.523438 59.839844 31.878907 89.707031 18.230469 9.578125-4.375 20.746094-2.414062 28.523438 4.683594 27.394531 24.992187 68.183593 32.480468 103.839843 15.738281 25.808594-12.117187 43.570313-34.417969 50.757813-59.855469 3.417969-12.109375 12.054687-22.179687 23.761719-26.78125 38.546875-15.144531 63.882812-54.574218 59.359375-97.769531zm0 0" fill="#c2eafb"/><path d="m153.578125 168.492188c-25.042969 29.457031-24.839844 73.632812 1.953125 102.882812 23.375 25.523438 59.839844 31.878906 89.707031 18.234375 9.578125-4.375 20.742188-2.417969 28.523438 4.679687 22.542969 20.570313 54.164062 29.269532 84.523437 22.378907-16.3125-24.261719-31.691406-54.097657-78.203125-71.515625-31.617187-11.839844-49.105469-34.085938-58.742187-56.652344-13.777344-32.265625-4.742188-69.886719 22.050781-92.535156 40.191406-33.96875 42.800781-67.957032 42.183594-80.453125-7.398438 4.875-14.078125 10.777343-19.828125 17.480469-7.195313 8.382812-18.996094 10.832031-29.160156 6.507812-30.796876-13.089844-67.75-5.179688-90.246094 21.871094-26.675782 32.074218-23.207032 79.242187 7.238281 107.121094zm0 0" fill="#91d4f2"/><path d="m174.722656 198.71875c-10.386718-10.386719-24.199218-16.105469-38.886718-16.105469-14.691407 0-28.5 5.71875-38.886719 16.105469l-21.851563-21.851562c16.222656-16.226563 37.792969-25.160157 60.738282-25.160157 22.945312 0 44.515624 8.933594 60.738281 25.160157zm0 0" fill="#73727c"/><path d="m106.992188 188.097656c0 29.542969-23.953126 53.496094-53.496094 53.496094-29.546875 0-53.496094-23.953125-53.496094-53.496094 0-29.542968 23.949219-53.496094 53.496094-53.496094 29.542968 0 53.496094 23.953126 53.496094 53.496094zm0 0" fill="#00ae8e"/><path d="m69.585938 137.070312-67.117188 67.121094c2.613281 8.300782 7.191406 15.726563 13.199219 21.734375l75.652343-75.652343c-6.003906-6.007813-13.433593-10.589844-21.734374-13.203126zm0 0" fill="#00ddc4"/><path d="m271.671875 188.097656c0 29.542969-23.953125 53.496094-53.496094 53.496094-29.546875 0-53.496093-23.953125-53.496093-53.496094 0-29.542968 23.949218-53.496094 53.496093-53.496094 29.542969 0 53.496094 23.953126 53.496094 53.496094zm0 0" fill="#00ae8e"/><path d="m227.378906 135.410156-61.894531 61.894532c1.394531 8.023437 4.570313 15.425781 9.109375 21.796874l74.585938-74.582031c-6.371094-4.542969-13.777344-7.71875-21.800782-9.109375zm0 0" fill="#00ddc4"/></svg>