<svg height="512.00026pt" viewBox="0 0 512.00026 512.00026" width="512.00026pt" xmlns="http://www.w3.org/2000/svg"><path d="m106.871094 502.570312-31.863282-31.863281 37.84375-37.84375 31.859376 31.863281c6.679687 6.679688 6.679687 17.511719 0 24.191407l-13.652344 13.652343c-6.679688 6.679688-17.507813 6.679688-24.1875 0zm0 0" fill="#ff8a98"/><path d="m499.621094 12.378906c-16.507813-16.503906-43.273438-16.503906-59.78125 0l-365.121094 365.121094 59.78125 59.78125 365.121094-365.121094c16.507812-16.507812 16.507812-43.273437 0-59.78125zm0 0" fill="#a4e7ff"/><path d="m274.316406 297.464844c-2.453125-6.519532-5.136718-12.617188-7.828125-18.152344-9.707031-19.976562-5.777343-43.890625 9.929688-59.597656l177.4375-177.4375c32.847656-32.847656 56.125-12.953125 56.125-12.953125-1.988281-6.1875-5.445313-12.03125-10.359375-16.945313-16.507813-16.503906-43.273438-16.503906-59.78125 0l-365.121094 365.121094 59.78125 59.78125zm0 0" fill="#5ad6ff"/><path d="m69.839844 347.808594c-7.53125-7.53125-7.53125-19.746094 0-27.277344l58.097656-58.097656c7.53125-7.53125 19.746094-7.53125 27.277344 0s7.53125 19.742187 0 27.273437l-58.097656 58.101563c-7.535157 7.53125-19.746094 7.53125-27.277344 0zm0 0" fill="#575757"/><path d="m164.191406 442.160156c-7.53125-7.53125-7.53125-19.742187 0-27.273437l58.101563-58.101563c7.53125-7.53125 19.742187-7.53125 27.273437 0s7.53125 19.742188 0 27.277344l-58.097656 58.097656c-7.53125 7.53125-19.742188 7.53125-27.277344 0zm0 0" fill="#575757"/><path d="m30.175781 500.203125-18.375-18.378906c-15.734375-15.730469-15.734375-41.238281 0-56.96875l138.070313-138.074219c15.730468-15.730469 41.238281-15.730469 56.96875 0l18.378906 18.378906c15.730469 15.730469 15.730469 41.238282 0 56.96875l-138.074219 138.074219c-15.730469 15.730469-41.234375 15.730469-56.96875 0zm0 0" fill="#c6c6c6"/><path d="m225.21875 305.160156-18.378906-18.375c-15.730469-15.734375-41.238282-15.734375-56.96875 0l-138.070313 138.070313c-15.734375 15.730469-15.734375 41.238281 0 56.96875l9.476563 9.476562c2.152344-19.757812 21.753906-39.476562 21.753906-39.476562s10.957031-11.433594 20.582031-21.195313c7.386719-7.488281 17.941407-10.707031 28.335938-9.109375 31.503906 4.851563 52.339843-26.535156 52.339843-26.535156s40.097657-75.816406 40.820313-76.542969c26.097656-26.097656 40.109375-13.28125 40.109375-13.28125zm0 0" fill="#a8a8a8"/><path d="m117.015625 394.984375c-7.53125-7.53125-7.53125-19.742187 0-27.277344l58.101563-58.097656c7.53125-7.53125 19.742187-7.53125 27.273437 0s7.53125 19.742187 0 27.273437l-58.097656 58.101563c-7.53125 7.53125-19.746094 7.53125-27.277344 0zm0 0" fill="#767678"/></svg>