<svg height="512pt" viewBox="0 -29 512 512" width="512pt" xmlns="http://www.w3.org/2000/svg"><path d="m372.132812 193.058594c77.246094 0 139.867188 58.238281 139.867188 130.078125 0 32.1875-12.578125 61.640625-33.40625 84.351562-5.601562 6.109375-4.558594 15.789063 2.382812 20.320313 5.019532 3.277344 9.890626 5.902344 14.398438 8 6.730469 3.132812 5.324219 13.070312-1.996094 14.300781-16.847656 2.835937-39.816406 4.785156-63.554687.984375-11.410157-1.828125-23.050781-1.851562-34.488281-.214844-102.445313 14.648438-163.074219-59.789062-163.074219-127.742187 0-71.839844 62.621093-130.078125 139.871093-130.078125zm0 0" fill="#81d9e7"/><path d="m334.710938 308.996094c39.953124-33.398438 37.421874-115.9375 37.421874-115.9375-77.25 0-139.871093 58.238281-139.871093 130.078125 0 52.6875 36.476562 109.28125 100.605469 125.21875-12.246094-14.800781-20.066407-30.746094-24.957032-45.992188-10.78125-33.632812-.296875-70.71875 26.800782-93.367187zm0 0" fill="#3ccbde"/><path d="m173.808594 0c-95.992188 0-173.808594 72.367188-173.808594 161.636719 0 40 15.628906 76.601562 41.511719 104.824219 6.964843 7.59375 5.667969 19.621093-2.960938 25.253906-6.234375 4.070312-12.289062 7.335937-17.890625 9.941406-8.363281 3.890625-6.617187 16.242188 2.480469 17.769531 20.9375 3.523438 49.480469 5.945313 78.976563 1.222657 14.175781-2.269532 28.644531-2.296876 42.855468-.265626 127.304688 18.203126 202.648438-74.296874 202.648438-158.742187 0-89.273437-77.820313-161.640625-173.8125-161.640625zm0 0" fill="#b5e9f1"/><g fill="#767678"><path d="m111.648438 130.210938c-4.269532 0-7.726563 3.460937-7.726563 7.726562v29.394531h-19.945313v-29.394531c0-4.265625-3.457031-7.726562-7.726562-7.726562-4.265625 0-7.726562 3.460937-7.726562 7.726562v37.121094c0 4.269531 3.460937 7.726562 7.726562 7.726562h27.667969v29.398438c0 4.265625 3.460937 7.726562 7.726562 7.726562 4.269531 0 7.726563-3.460937 7.726563-7.726562v-74.246094c.003906-4.265625-3.457032-7.726562-7.722656-7.726562zm0 0"/><path d="m271.367188 130.210938c-4.265626 0-7.726563 3.460937-7.726563 7.726562v29.394531h-19.941406v-29.394531c0-4.265625-3.457031-7.726562-7.726563-7.726562-4.265625 0-7.726562 3.460937-7.726562 7.726562v37.121094c0 4.269531 3.460937 7.726562 7.726562 7.726562h27.667969v29.398438c0 4.265625 3.460937 7.726562 7.726563 7.726562 4.269531 0 7.726562-3.460937 7.726562-7.726562v-74.246094c0-4.265625-3.457031-7.726562-7.726562-7.726562zm0 0"/><path d="m194.09375 167.335938h-13.425781v-13.425782c0-4.269531-3.460938-7.726562-7.726563-7.726562-4.269531 0-7.726562 3.457031-7.726562 7.726562v13.425782h-13.425782c-4.265624 0-7.726562 3.457031-7.726562 7.726562 0 4.265625 3.460938 7.722656 7.726562 7.722656h13.425782v13.425782c0 4.269531 3.457031 7.726562 7.726562 7.726562 4.265625 0 7.726563-3.457031 7.726563-7.726562v-13.425782h13.425781c4.265625 0 7.726562-3.457031 7.726562-7.722656 0-4.269531-3.460937-7.726562-7.726562-7.726562zm0 0"/></g><path d="m314.628906 351.902344c0-9.351563-9.519531-16.933594-21.261718-16.933594-11.746094 0-21.265626 7.582031-21.265626 16.933594 0 9.351562 9.519532 16.933594 21.265626 16.933594 11.742187 0 21.261718-7.582032 21.261718-16.933594zm0 0" fill="#ffabcd"/><path d="m472.160156 351.902344c0-9.351563-9.519531-16.933594-21.261718-16.933594-11.746094 0-21.265626 7.582031-21.265626 16.933594 0 9.351562 9.519532 16.933594 21.265626 16.933594 11.742187 0 21.261718-7.582032 21.261718-16.933594zm0 0" fill="#ffabcd"/><path d="m435.800781 343.007812c-4.265625 0-7.722656-3.460937-7.722656-7.726562v-12.828125c0-4.265625 3.457031-7.726563 7.722656-7.726563 4.269531 0 7.726563 3.460938 7.726563 7.726563v12.828125c0 4.265625-3.457032 7.726562-7.726563 7.726562zm0 0" fill="#575757"/><path d="m308.457031 343.007812c-4.265625 0-7.722656-3.460937-7.722656-7.726562v-12.828125c0-4.265625 3.457031-7.726563 7.722656-7.726563 4.269531 0 7.726563 3.460938 7.726563 7.726563v12.828125c0 4.265625-3.457032 7.726562-7.726563 7.726562zm0 0" fill="#575757"/><path d="m377.40625 327.5625c-1.730469 2.542969-4.25 2.847656-5.277344 2.847656-1.023437 0-3.585937-.277344-5.277344-2.847656-2.34375-3.566406-7.132812-4.558594-10.699218-2.214844-3.566406 2.339844-4.558594 7.132813-2.214844 10.699219 4.035156 6.144531 10.839844 9.816406 18.191406 9.816406 7.355469 0 14.15625-3.671875 18.195313-9.816406 2.339843-3.566406 1.347656-8.359375-2.21875-10.699219-1.304688-.859375-7.085938-3.085937-10.699219 2.214844zm0 0" fill="#575757"/></svg>