<svg height="511pt" viewBox="0 -96 511.9995 511" width="511pt" xmlns="http://www.w3.org/2000/svg"><path d="m471.582031 278.882812h-431.164062v-229.886718c0-26.785156 21.710937-48.496094 48.496093-48.496094h334.171876c26.78125 0 48.496093 21.710938 48.496093 48.496094zm0 0" fill="#a8a8a8"/><path d="m184.273438.5h-95.359376c-26.785156 0-48.496093 21.710938-48.496093 48.496094v229.886718h95.359375v-229.886718c0-26.785156 21.714844-48.496094 48.496094-48.496094zm0 0" fill="#919191"/><path d="m71.324219 247.976562v-198.980468c0-9.699219 7.890625-17.589844 17.589843-17.589844h334.171876c9.699218 0 17.589843 7.890625 17.589843 17.589844v198.980468zm0 0" fill="#76e7e7"/><path d="m139.082031 31.40625h-50.167969c-9.699218 0-17.589843 7.890625-17.589843 17.589844v198.980468h64.453125v-198.980468c0-6.207032 1.179687-12.136719 3.304687-17.589844zm0 0" fill="#2eddda"/><path d="m1.960938 277.632812 9.640624 21.507813c5.667969 12.652344 18.238282 20.792969 32.097657 20.792969h424.597656c13.863281 0 26.433594-8.140625 32.101563-20.792969l9.636718-21.507813c6.570313-14.660156-4.15625-31.226562-20.222656-31.226562h-467.625c-16.066406 0-26.792969 16.566406-20.226562 31.226562zm0 0" fill="#c6c6c6"/><path d="m104.355469 299.140625-9.636719-21.507813c-6.570312-14.664062 4.160156-31.226562 20.226562-31.226562h-92.757812c-16.066406 0-26.792969 16.566406-20.226562 31.226562l9.640624 21.507813c5.667969 12.648437 18.238282 20.792969 32.097657 20.792969h92.757812c-13.859375 0-26.429687-8.144532-32.101562-20.792969zm0 0" fill="#a8a8a8"/><path d="m197.167969 246.40625 12.859375 19.324219c5.625 8.453125 15.101562 13.527343 25.253906 13.527343h41.441406c10.148438 0 19.628906-5.074218 25.25-13.527343l12.859375-19.324219zm0 0" fill="#a8a8a8"/><path d="m247.128906 265.730469-12.859375-19.320313h-37.101562l12.859375 19.320313c5.625 8.453125 15.101562 13.527343 25.253906 13.527343h37.101562c-10.152343 0-19.628906-5.074218-25.253906-13.527343zm0 0" fill="#919191"/><path d="m198.683594 163.585938v-47.789063c0-7.886719 3.40625-15.394531 9.34375-20.585937l35.5625-31.121094c7.105468-6.21875 17.714844-6.21875 24.820312 0l35.5625 31.121094c5.9375 5.195312 9.34375 12.699218 9.34375 20.585937v47.789063c0 7.890624-3.40625 15.394531-9.34375 20.585937l-35.5625 31.121094c-7.105468 6.214843-17.714844 6.214843-24.820312 0l-35.5625-31.121094c-5.9375-5.191406-9.34375-12.699219-9.34375-20.585937zm0 0" fill="#ff8a98"/><path d="m256 94.296875-26.410156 23.109375v44.570312l26.410156 23.109376 26.410156-23.109376v-44.570312zm0 0" fill="#ffbfc7"/><g fill="#fd5c6f"><path d="m239.414062 67.742188-31.386718 27.464843c-2.96875 2.597657-5.304688 5.773438-6.898438 9.285157l28.460938 12.914062 26.410156-23.109375v-34.871094c-4.429688 0-8.855469 1.554688-12.410156 4.664063zm0 0"/><path d="m229.589844 161.976562-28.460938 12.914063c1.59375 3.511719 3.929688 6.6875 6.898438 9.28125l35.5625 31.121094c3.554687 3.109375 7.984375 4.664062 12.410156 4.664062v-34.871093zm0 0"/><path d="m282.410156 117.40625v44.566406l28.460938 12.917969c1.59375-3.515625 2.445312-7.363281 2.445312-11.304687v-47.789063c0-3.945313-.851562-7.792969-2.445312-11.304687zm0 0"/></g><path d="m141.578125 151.308594 2.449219 4.480468c2.445312 4.46875 6.121094 8.140626 10.589844 10.585938l4.480468 2.449219c4.582032 2.507812 4.582032 9.09375 0 11.601562l-4.480468 2.449219c-4.46875 2.441406-8.144532 6.117188-10.589844 10.585938l-2.449219 4.480468c-2.507813 4.585938-9.089844 4.585938-11.597656 0l-2.453125-4.480468c-2.441406-4.46875-6.117188-8.140626-10.585938-10.585938l-4.480468-2.449219c-4.585938-2.507812-4.585938-9.09375 0-11.601562l4.480468-2.449219c4.46875-2.441406 8.144532-6.117188 10.585938-10.585938l2.453125-4.480468c2.507812-4.585938 9.089843-4.585938 11.597656 0zm0 0" fill="#fff"/><path d="m383.1875 74.960938 1.964844 3.597656c1.964844 3.589844 4.914062 6.539062 8.503906 8.503906l3.597656 1.964844c3.679688 2.015625 3.679688 7.304687 0 9.316406l-3.597656 1.96875c-3.589844 1.960938-6.539062 4.910156-8.503906 8.5l-1.964844 3.597656c-2.015625 3.683594-7.304688 3.683594-9.316406 0l-1.96875-3.597656c-1.960938-3.589844-4.910156-6.539062-8.5-8.5l-3.597656-1.96875c-3.683594-2.015625-3.683594-7.300781 0-9.316406l3.597656-1.964844c3.589844-1.964844 6.539062-4.914062 8.5-8.503906l1.96875-3.597656c2.011718-3.679688 7.300781-3.679688 9.316406 0zm0 0" fill="#fff"/></svg>