<svg height="512pt" viewBox="0 -20 512.00103 512" width="512pt" xmlns="http://www.w3.org/2000/svg"><path d="m407.015625 44.496094-151.015625 9.503906-151.015625-9.503906-46.445313 24.300781c-35.984374 18.832031-58.539062 56.085937-58.539062 96.703125v249.890625c0 31.605469 25.625 57.230469 57.234375 57.230469h397.535156c31.609375 0 57.230469-25.625 57.230469-57.230469v-249.890625c0-40.617188-22.550781-77.871094-58.539062-96.703125zm0 0" fill="#59c2e8"/><path d="m210.78125 153.839844c164.253906 9.734375 227.332031-93.070313 227.332031-93.070313l-31.097656-16.273437-151.015625 9.503906-151.015625-9.503906-46.445313 24.300781c-35.984374 18.832031-58.539062 56.085937-58.539062 96.703125v30.398438c35.273438-20.414063 104.199219-48.375 210.78125-42.058594zm0 0" fill="#00aede"/><path d="m256 54-151.015625-9.503906-46.441406 24.300781c-35.988281 18.832031-58.542969 56.085937-58.542969 96.703125v249.890625c0 31.605469 25.625 57.230469 57.234375 57.230469h198.765625zm0 0" fill="#91d4f2"/><path d="m58.539062 68.796875c-35.984374 18.832031-58.539062 56.089844-58.539062 96.703125v30.398438c35.273438-20.414063 104.199219-48.375 210.78125-42.058594 16.027344.949218 31.082031.828125 45.21875-.164063v-99.675781l-151.015625-9.503906zm0 0" fill="#59c2e8"/><path d="m104.984375 44.496094-31.097656 16.273437v411.851563h80.34375v-425.023438zm0 0" fill="#29ce69"/><path d="m73.886719 60.769531v105.304688c22.777343-6.039063 49.507812-10.691407 80.34375-12.417969v-106.0625l-49.246094-3.097656zm0 0" fill="#00c140"/><path d="m407.015625 44.496094-49.246094 3.101562v425.023438h80.34375v-411.851563zm0 0" fill="#f4e74d"/><path d="m357.769531 47.597656v79.6875c56.5-27.675781 80.34375-66.515625 80.34375-66.515625l-31.097656-16.273437zm0 0" fill="#dfca00"/><path d="m256 54-94.644531-49.765625c-13.425781-7.0625-29.8125-5.167969-41.277344 4.765625l-18.90625 16.386719c-10.742187 9.308593-9.003906 26.445312 3.382813 33.414062l62.613281 35.210938c15.535156 8.734375 34.882812 6.773437 48.347656-4.902344zm0 0" fill="#c2eafb"/><path d="m256 54 94.644531-49.765625c13.425781-7.0625 29.8125-5.167969 41.277344 4.765625l18.90625 16.386719c10.742187 9.308593 9.003906 26.445312-3.382813 33.414062l-62.613281 35.210938c-15.535156 8.734375-34.882812 6.773437-48.347656-4.902344zm0 0" fill="#c2eafb"/><g fill="#767678"><path d="m326.03125 189.269531c0 11.085938-8.988281 20.070313-20.070312 20.070313-11.085938 0-20.070313-8.984375-20.070313-20.070313 0-11.082031 8.984375-20.070312 20.070313-20.070312 11.082031 0 20.070312 8.988281 20.070312 20.070312zm0 0"/><path d="m326.03125 286.003906c0 11.082032-8.988281 20.070313-20.070312 20.070313-11.085938 0-20.070313-8.988281-20.070313-20.070313 0-11.085937 8.984375-20.070312 20.070313-20.070312 11.082031 0 20.070312 8.984375 20.070312 20.070312zm0 0"/><path d="m326.03125 382.734375c0 11.085937-8.988281 20.070313-20.070312 20.070313-11.085938 0-20.070313-8.984376-20.070313-20.070313 0-11.082031 8.984375-20.070313 20.070313-20.070313 11.082031 0 20.070312 8.988282 20.070312 20.070313zm0 0"/></g></svg>