<?xml version="1.0" encoding="iso-8859-1"?>
<!-- Generator: Adobe Illustrator 19.0.0, SVG Export Plug-In . SVG Version: 6.00 Build 0)  -->
<svg xmlns="http://www.w3.org/2000/svg" xmlns:xlink="http://www.w3.org/1999/xlink" version="1.1" id="Layer_1" x="0px" y="0px" viewBox="0 0 512.001 512.001" style="enable-background:new 0 0 512.001 512.001;" xml:space="preserve">
<g>
	<path style="fill:#394049;" d="M263.785,512.001c-7.475,0-13.534-6.06-13.534-13.534V246.364c0-7.475,6.06-13.534,13.534-13.534   c7.475,0,13.534,6.06,13.534,13.534v252.103C277.321,505.941,271.26,512.001,263.785,512.001z"/>
	
		<rect x="68.199" y="406.58" transform="matrix(-0.9848 -0.1736 0.1736 -0.9848 445.5325 868.4521)" style="fill:#394049;" width="385.095" height="16.323"/>
	
		<rect x="243.18" y="213.995" transform="matrix(-0.1737 -0.9848 0.9848 -0.1737 -116.3088 737.7229)" style="fill:#394049;" width="16.322" height="407.323"/>
</g>
<rect x="250.249" y="311.505" style="opacity:0.15;enable-background:new    ;" width="27.07" height="18.855"/>
<path style="opacity:0.15;enable-background:new    ;" d="M263.785,232.829c-7.475,0-13.534,6.06-13.534,13.534v33.447  c3.574,0.429,7.195,0.702,10.865,0.797c5.493,0.141,10.902-0.104,16.205-0.698v-33.545  C277.321,238.889,271.26,232.829,263.785,232.829z"/>
<path style="fill:#5F666F;" d="M420.146,94.468l-39.135-17.093c0,0-4.482-19.255-11.878-27.842  c3.733-4.059,6.638-9.453,8.089-15.687C380.859,18.223,374,3.277,361.901,0.46c-6.946-1.617-14.104,1.123-19.634,6.7  c-3.449-3.948-7.983-6.349-12.955-6.349c-7.143,0-13.388,4.953-16.798,12.34c-5.322-3.193-11.324-4.019-16.564-1.699  c-9.869,4.369-13.295,18.242-7.653,30.985c1.42,3.208,3.28,6.037,5.425,8.408c-6.74,8.398-10.782,19.056-10.782,30.663v31.24  c0,12.345-10.101,22.318-22.446,22.249c-30.134-0.17-54.51-24.65-54.51-54.826l0,0c0-34.874-28.497-63.092-63.476-62.638  c-34.425,0.446-61.812,29.144-61.812,63.572v39.413c0,12.194,14.384,18.686,23.529,10.621l0,0  c16.775-14.794,43.16-2.884,43.16,19.482l0,0c0,63.528,50.223,116.405,113.73,118.041c65.924,1.698,119.896-51.235,119.896-116.774  v-21.581c0-2.848,1.687-5.425,4.296-6.564l34.838-15.217C426.282,105.852,426.282,97.148,420.146,94.468z"/>
<g>
	<path style="opacity:0.1;fill:#FFFFFF;enable-background:new    ;" d="M420.146,94.468l-39.135-17.093   c0,0-4.482-19.255-11.878-27.842c3.733-4.059,6.638-9.453,8.089-15.687C380.859,18.223,374,3.277,361.901,0.46   c-6.946-1.617-14.104,1.123-19.634,6.7c-2.832-3.242-6.397-5.437-10.333-6.12c-2.403,7.498-3.713,15.484-3.713,23.78   c0,42.991,34.852,77.843,77.842,77.843c6.538,0,12.883-0.816,18.95-2.334C424.615,97.952,422.998,95.714,420.146,94.468z"/>
	<path style="opacity:0.1;fill:#FFFFFF;enable-background:new    ;" d="M205.984,80.174L205.984,80.174   c0-34.874-28.497-63.092-63.475-62.638c-1.562,0.021-3.104,0.119-4.634,0.252c-2.172,5.704-3.371,11.888-3.371,18.355   c0,28.507,23.11,51.617,51.617,51.617c7.09,0,13.843-1.431,19.993-4.018C206.037,82.561,205.984,81.373,205.984,80.174z"/>
</g>
<path style="opacity:0.15;enable-background:new    ;" d="M273.099,258.851C207.571,258.624,154.954,204.529,154.954,139l0,0  c0-22.701-26.78-34.791-43.807-19.774l0,0c-9.281,8.186-23.881,1.595-23.881-10.78V68.442c0-7.988,1.467-15.664,4.124-22.77  c-6.757,10.174-10.694,22.391-10.694,35.436v39.413c0,12.194,14.384,18.686,23.529,10.621l0,0  c16.775-14.794,43.16-2.884,43.16,19.482l0,0c0,64.561,51.841,117.858,116.401,118.08c22.633,0.078,43.771-6.287,61.696-17.356  C306.836,256.269,288.673,258.905,273.099,258.851z"/>
<g>
	<path style="fill:#FFFFFF;" d="M350.394,90.422c-4.509,0-8.162-3.653-8.162-8.162c0-1.612-1.312-2.924-2.925-2.924   c-1.612,0-2.923,1.311-2.923,2.924c0,4.509-3.653,8.162-8.162,8.162s-8.162-3.653-8.162-8.162c0-10.612,8.635-19.247,19.246-19.247   c10.613,0,19.249,8.635,19.249,19.247C358.556,86.769,354.901,90.422,350.394,90.422z"/>
	<path style="fill:#FFFFFF;" d="M263.786,227.886c-31.88,0-57.816-25.937-57.816-57.817c0-4.509,3.653-8.162,8.162-8.162   c4.509,0,8.162,3.653,8.162,8.162c0,22.879,18.613,41.494,41.493,41.494s41.493-18.614,41.493-41.494   c0-4.509,3.653-8.162,8.162-8.162c4.509,0,8.162,3.653,8.162,8.162C321.603,201.951,295.666,227.886,263.786,227.886z"/>
	<circle style="opacity:0.1;fill:#FFFFFF;enable-background:new    ;" cx="350.398" cy="127.672" r="18.476"/>
</g>
<path style="fill:#5F666F;" d="M431.186,294.383l-38.998-24.131c-3.583-2.218-8.085-2.318-11.764-0.27  c-3.68,2.05-5.961,5.933-5.961,10.146v12.518H177.442l-5.614-17.948c-1.501-4.798-5.945-8.065-10.973-8.065H130.54  c-7.757,0-13.288,7.525-10.973,14.928l7.1,22.698l-7.1,22.698c-2.316,7.403,3.215,14.928,10.973,14.928h30.316  c5.028,0,9.472-3.267,10.973-8.065l5.614-17.949h197.021v12.519c0,4.213,2.281,8.095,5.961,10.146  c1.76,0.979,3.708,1.468,5.652,1.468c2.122,0,4.242-0.581,6.11-1.738l38.998-24.132c3.421-2.117,5.503-5.854,5.503-9.877  S434.607,296.5,431.186,294.383z"/>
<g>
	<path style="opacity:0.1;fill:#FFFFFF;enable-background:new    ;" d="M157.752,274.697c-1.501-4.798-5.945-8.065-10.973-8.065   h-20.756c0,13.545,10.98,24.526,24.526,24.526c4.141,0,8.04-1.031,11.461-2.842L157.752,274.697z"/>
	<path style="opacity:0.1;fill:#FFFFFF;enable-background:new    ;" d="M431.186,294.383l-38.998-24.131   c-0.366-0.226-0.747-0.416-1.13-0.599c-1.281,3.395-1.987,7.073-1.987,10.917c0,17.086,13.851,30.937,30.937,30.937   c6.017,0,11.628-1.723,16.378-4.695c0.187-0.83,0.303-1.683,0.303-2.554C436.689,300.237,434.607,296.5,431.186,294.383z"/>
</g>
<g>
	<path style="fill:#5F666F;" d="M451.085,398.791c-5.98,0-10.828-4.848-10.828-10.828V339.84c0-4.793,3.15-9.014,7.745-10.379   c4.599-1.367,9.538,0.453,12.154,4.468l9.971,15.302v-11.674c0-5.98,4.848-10.828,10.828-10.828s10.828,4.848,10.828,10.828v48.125   c0,4.793-3.149,9.014-7.744,10.379c-4.593,1.368-9.537-0.452-12.154-4.468l-9.971-15.302v11.673   C461.913,393.943,457.065,398.791,451.085,398.791z"/>
	<path style="fill:#5F666F;" d="M491.147,476.854l-29.233-2.602v-9.757l17.051,1.517c0.326,0.028,0.652,0.044,0.973,0.044   c5.546,0,10.272-4.239,10.772-9.868c0.53-5.956-3.869-11.215-9.826-11.745l-18.972-1.688v-9.757l27.313,2.431   c0.326,0.028,0.652,0.044,0.973,0.044c5.546,0,10.272-4.239,10.772-9.869c0.53-5.956-3.869-11.214-9.826-11.745l-39.101-3.48   c-0.143-0.012-0.282-0.009-0.423-0.015c-0.178-0.009-0.356-0.027-0.536-0.027c-0.03,0-0.06,0.004-0.09,0.004   c-0.139,0.001-0.275,0.014-0.412,0.021c-0.235,0.011-0.47,0.02-0.701,0.045c-0.082,0.01-0.162,0.026-0.244,0.037   c-0.283,0.038-0.564,0.079-0.839,0.139c-0.02,0.004-0.038,0.011-0.058,0.015c-1.725,0.381-3.294,1.169-4.602,2.265   c-0.021,0.016-0.038,0.036-0.059,0.053c-0.239,0.204-0.473,0.415-0.694,0.639c-0.073,0.074-0.138,0.155-0.209,0.23   c-0.162,0.174-0.326,0.347-0.478,0.532c-0.102,0.124-0.193,0.257-0.288,0.386c-0.11,0.147-0.224,0.291-0.328,0.444   c-0.103,0.153-0.194,0.317-0.289,0.476c-0.084,0.139-0.173,0.275-0.25,0.419c-0.086,0.16-0.16,0.329-0.238,0.494   c-0.073,0.153-0.151,0.304-0.217,0.46c-0.063,0.151-0.113,0.309-0.17,0.465c-0.066,0.181-0.136,0.359-0.193,0.545   c-0.042,0.139-0.073,0.285-0.11,0.428c-0.054,0.207-0.111,0.412-0.153,0.624c-0.028,0.145-0.045,0.295-0.067,0.442   c-0.033,0.212-0.07,0.423-0.089,0.639c-0.002,0.024-0.008,0.046-0.01,0.069c-0.015,0.171-0.012,0.338-0.02,0.508   c-0.007,0.151-0.023,0.299-0.023,0.453v62.996c0,0.021,0.003,0.041,0.003,0.062c0.001,0.236,0.018,0.468,0.035,0.7   c0.009,0.131,0.011,0.263,0.025,0.392c0.024,0.23,0.065,0.454,0.103,0.678c0.023,0.131,0.038,0.264,0.065,0.394   c0.042,0.2,0.099,0.395,0.152,0.591c0.04,0.149,0.074,0.301,0.121,0.448c0.052,0.165,0.119,0.325,0.178,0.488   c0.063,0.17,0.12,0.342,0.19,0.507c0.06,0.138,0.131,0.271,0.196,0.406c0.086,0.181,0.169,0.362,0.264,0.538   c0.069,0.125,0.148,0.243,0.221,0.365c0.106,0.176,0.208,0.354,0.323,0.523c0.086,0.126,0.183,0.244,0.274,0.367   c0.115,0.155,0.225,0.311,0.348,0.459c0.114,0.137,0.239,0.264,0.36,0.396c0.112,0.122,0.22,0.249,0.337,0.366   c0.144,0.143,0.298,0.274,0.449,0.409c0.107,0.095,0.208,0.195,0.318,0.285c0.167,0.137,0.344,0.26,0.518,0.387   c0.107,0.077,0.208,0.16,0.317,0.233c0.175,0.118,0.36,0.222,0.543,0.33c0.12,0.071,0.234,0.147,0.356,0.212   c0.169,0.09,0.344,0.168,0.518,0.249c0.147,0.07,0.291,0.145,0.441,0.208c0.152,0.063,0.31,0.114,0.466,0.171   c0.181,0.066,0.359,0.136,0.543,0.193c0.14,0.042,0.285,0.073,0.428,0.11c0.207,0.053,0.412,0.111,0.624,0.152   c0.145,0.028,0.294,0.045,0.441,0.067c0.212,0.033,0.423,0.07,0.64,0.089c0.023,0.002,0.046,0.008,0.069,0.01l39.101,3.48   c0.326,0.028,0.652,0.044,0.973,0.044c5.546,0,10.272-4.239,10.772-9.869C501.502,482.643,497.103,477.385,491.147,476.854z"/>
</g>
<path style="opacity:0.1;fill:#FFFFFF;enable-background:new    ;" d="M480.885,444.442l-11.29-1.004  c4.713,6.934,12.339,11.729,21.12,12.619C491.169,450.154,486.796,444.969,480.885,444.442z M491.147,413.856l-22.273-1.983  c-2.723,4.429-4.296,9.642-4.296,15.222c0,2.127,0.234,4.198,0.667,6.196l23.982,2.134c0.326,0.028,0.652,0.044,0.973,0.044  c5.546,0,10.272-4.239,10.772-9.869C501.502,419.646,497.103,414.387,491.147,413.856z"/>
<path style="fill:#5F666F;" d="M73.877,397.409c-0.023,0-0.047,0-0.07,0c-4.868-0.03-9.118-3.307-10.386-8.008l-3.174-11.773  l-2.699,9.524c-1.325,4.685-5.598,7.866-10.486,7.878c-4.868-0.03-9.118-3.307-10.386-8.008l-13.372-49.593  c-1.556-5.774,1.862-11.717,7.635-13.273c5.777-1.561,11.717,1.862,13.273,7.635l3.174,11.772l2.698-9.523  c1.32-4.663,5.577-7.878,10.416-7.878c0.023,0,0.047,0,0.07,0c4.869,0.03,9.118,3.307,10.386,8.008l3.174,11.774l2.699-9.525  c1.628-5.753,7.615-9.1,13.369-7.466c5.753,1.629,9.096,7.614,7.466,13.369l-13.372,47.212  C82.975,394.194,78.718,397.409,73.877,397.409z"/>
<path id="SVGCleanerId_0" style="fill:#5F666F;" d="M21.802,489.823c-5.605,0.001-10.351-4.32-10.784-10.003  c-0.456-5.962,4.009-11.165,9.971-11.62l15.318-1.171c2.83-0.217,5.315-2.877,5.315-5.692c0-1.324-0.544-2.108-1.001-2.531  c-0.466-0.431-1.311-0.923-2.664-0.819c-7.146,0.553-13.902-1.774-19.033-6.527c-5.12-4.744-7.939-11.285-7.939-18.416  c0-14.214,11.122-26.199,25.32-27.285l15.319-1.171c5.954-0.472,11.166,4.009,11.621,9.971c0.456,5.962-4.009,11.165-9.971,11.621  l-15.318,1.171c-2.83,0.217-5.316,2.877-5.316,5.693c0,1.324,0.544,2.107,1.001,2.531c0.466,0.432,1.322,0.925,2.665,0.821  c7.143-0.551,13.898,1.772,19.031,6.526c5.12,4.744,7.94,11.283,7.94,18.416c0,14.214-11.122,26.199-25.32,27.285l-15.319,1.171  C22.358,489.814,22.08,489.823,21.802,489.823z"/>
<g>
	<path id="SVGCleanerId_0_1_" style="fill:#5F666F;" d="M21.802,489.823c-5.605,0.001-10.351-4.32-10.784-10.003   c-0.456-5.962,4.009-11.165,9.971-11.62l15.318-1.171c2.83-0.217,5.315-2.877,5.315-5.692c0-1.324-0.544-2.108-1.001-2.531   c-0.466-0.431-1.311-0.923-2.664-0.819c-7.146,0.553-13.902-1.774-19.033-6.527c-5.12-4.744-7.939-11.285-7.939-18.416   c0-14.214,11.122-26.199,25.32-27.285l15.319-1.171c5.954-0.472,11.166,4.009,11.621,9.971c0.456,5.962-4.009,11.165-9.971,11.621   l-15.318,1.171c-2.83,0.217-5.316,2.877-5.316,5.693c0,1.324,0.544,2.107,1.001,2.531c0.466,0.432,1.322,0.925,2.665,0.821   c7.143-0.551,13.898,1.772,19.031,6.526c5.12,4.744,7.94,11.283,7.94,18.416c0,14.214-11.122,26.199-25.32,27.285l-15.319,1.171   C22.358,489.814,22.08,489.823,21.802,489.823z"/>
</g>
<g>
	<path style="opacity:0.1;fill:#FFFFFF;enable-background:new    ;" d="M480.956,326.729c-5.98,0-10.828,4.848-10.828,10.828v11.674   l-9.971-15.302c-0.995-1.527-2.327-2.735-3.847-3.572c-0.644,2.262-0.996,4.649-0.996,7.118c0,14.342,11.626,25.967,25.967,25.967   c3.739,0,7.29-0.797,10.501-2.219v-23.668C491.784,331.577,486.936,326.729,480.956,326.729z"/>
	<path style="opacity:0.1;fill:#FFFFFF;enable-background:new    ;" d="M63.246,414.558c-0.455-5.962-5.666-10.444-11.621-9.971   l-15.319,1.171c-4.92,0.377-9.47,2.063-13.316,4.696c-0.021,0.399-0.061,0.796-0.061,1.2c0,7.957,4.13,14.937,10.353,18.953   c0.912-1.754,2.698-3.106,4.674-3.257l15.318-1.171C59.238,425.722,63.702,420.521,63.246,414.558z"/>
	<path style="opacity:0.1;fill:#FFFFFF;enable-background:new    ;" d="M90.199,328.953c-5.753-1.633-11.74,1.713-13.369,7.466   l-2.699,9.525l-3.174-11.773c-1.268-4.701-5.517-7.978-10.386-8.008h-0.07c-1.144,0-2.253,0.185-3.301,0.521   c-1.66,3.433-2.59,7.285-2.59,11.353c0,14.427,11.695,26.122,26.122,26.122c4.129,0,8.032-0.962,11.504-2.667l5.429-19.169   C99.296,336.567,95.953,330.582,90.199,328.953z"/>
</g>
<circle style="fill:#5F666F;" cx="263.786" cy="415.387" r="26.909"/>
<path style="opacity:0.1;fill:#FFFFFF;enable-background:new    ;" d="M263.786,388.475c-1.165,0-2.311,0.083-3.437,0.226  c-3.005,3.593-4.818,8.216-4.818,13.267c0,11.433,9.268,20.7,20.7,20.7c5.613,0,10.696-2.243,14.424-5.87  c0.024-0.469,0.037-0.94,0.037-1.415C290.694,400.522,278.647,388.475,263.786,388.475z"/>
<g>
</g>
<g>
</g>
<g>
</g>
<g>
</g>
<g>
</g>
<g>
</g>
<g>
</g>
<g>
</g>
<g>
</g>
<g>
</g>
<g>
</g>
<g>
</g>
<g>
</g>
<g>
</g>
<g>
</g>
</svg>
