<?xml version="1.0" encoding="iso-8859-1"?>
<!-- Generator: Adobe Illustrator 19.0.0, SVG Export Plug-In . SVG Version: 6.00 Build 0)  -->
<svg xmlns="http://www.w3.org/2000/svg" xmlns:xlink="http://www.w3.org/1999/xlink" version="1.1" id="Layer_1" x="0px" y="0px" viewBox="0 0 512.001 512.001" style="enable-background:new 0 0 512.001 512.001;" xml:space="preserve">
<path style="fill:#394049;" d="M497.213,49.016H14.787C6.62,49.016,0,55.636,0,63.802v306.137c0,8.166,6.62,14.787,14.787,14.787  h482.427c8.166,0,14.787-6.62,14.787-14.787V63.802C512,55.636,505.38,49.016,497.213,49.016z"/>
<circle style="fill:#F7D64C;" cx="432.17" cy="365.411" r="8.239"/>
<circle style="fill:#E66A8C;" cx="465.13" cy="365.411" r="8.239"/>
<rect x="38.634" y="87.655" style="fill:#83D8DD;" width="434.731" height="258.439"/>
<g>
	<path style="opacity:0.2;fill:#FFFFFF;enable-background:new    ;" d="M497.213,49.016H368.558   c-7.896,13.889-12.427,29.94-12.427,47.059c0,52.686,42.71,95.397,95.396,95.397c22.955,0,44.012-8.112,60.472-21.62V63.802   C512,55.636,505.38,49.016,497.213,49.016z"/>
	<path style="opacity:0.2;fill:#FFFFFF;enable-background:new    ;" d="M493.641,204.672c-27.75,0-50.246,22.496-50.246,50.246   s22.496,50.246,50.246,50.246c6.482,0,12.67-1.241,18.359-3.476v-93.542C506.311,205.913,500.123,204.672,493.641,204.672z"/>
</g>
<path style="fill:#7DBF63;" d="M38.634,87.65v149.924c22.351,20.094,62.014,36.102,100.364,22.156  c60.71-22.077,121.421-47.406,142.394-14.32c14.463,22.817,29.409,40.36,44.005,48.884c6.569,3.836,22.224,3.335,24.432-8.072  c3.89-20.1-24.375-37.993-5.012-65.909c19.362-27.916,72.346-34.539,81.176-80.899c3.624-19.022,6.686-36.552,8.05-51.763  L38.634,87.65L38.634,87.65z"/>
<g>
	<path style="fill:#394049;" d="M204.1,185.275c-6.903,0-13.19-2.689-17.869-7.074c-4.678,4.387-10.965,7.074-17.869,7.074   c-14.418,0-26.147-11.73-26.147-26.149c0-4.573,3.706-8.279,8.279-8.279c4.573,0,8.279,3.706,8.279,8.279   c0,5.288,4.302,9.591,9.59,9.591s9.59-4.303,9.59-9.591c0-4.573,3.706-8.279,8.279-8.279c4.573,0,8.279,3.706,8.279,8.279   c0,5.288,4.302,9.591,9.59,9.591c5.288,0,9.59-4.303,9.59-9.591c0-4.573,3.706-8.279,8.279-8.279c4.573,0,8.279,3.706,8.279,8.279   C230.247,173.544,218.518,185.275,204.1,185.275z"/>
	<path style="fill:#394049;" d="M103.698,140.706c-4.573,0-8.279-3.706-8.279-8.279v-7.59c0-4.573,3.706-8.279,8.279-8.279   s8.279,3.706,8.279,8.279v7.59C111.977,137.001,108.271,140.706,103.698,140.706z"/>
	<path style="fill:#394049;" d="M268.764,140.706c-4.573,0-8.279-3.706-8.279-8.279v-7.59c0-4.573,3.706-8.279,8.279-8.279   c4.573,0,8.279,3.706,8.279,8.279v7.59C277.043,137.001,273.337,140.706,268.764,140.706z"/>
</g>
<rect x="205.025" y="384.728" style="fill:#5F666F;" width="101.949" height="51.401"/>
<rect x="205.025" y="384.728" style="opacity:0.15;enable-background:new    ;" width="101.949" height="22.364"/>
<path style="fill:#394049;" d="M336.79,462.985H175.217c-4.433,0-8.026-3.593-8.026-8.026v-10.805c0-4.433,3.593-8.026,8.026-8.026  H336.79c4.433,0,8.026,3.593,8.026,8.026v10.805C344.816,459.392,341.223,462.985,336.79,462.985z"/>
<path style="opacity:0.2;fill:#FFFFFF;enable-background:new    ;" d="M336.79,436.128h-25.994  c4.583,8.889,13.846,14.972,24.537,14.972c3.332,0,6.527-0.591,9.484-1.673v-5.272C344.816,439.721,341.223,436.128,336.79,436.128z  "/>
<path style="fill:#DBE7F2;" d="M164.746,237.131c0.104-0.681,0.158-1.378,0.158-2.086c0-7.612-6.17-13.782-13.782-13.782  c-1.605,0-3.144,0.277-4.575,0.782c-4.157-7.232-11.961-12.102-20.901-12.102c-10.716,0-19.796,6.997-22.925,16.672  c-13.208,0.114-23.881,10.854-23.881,24.089c0,13.306,10.787,24.092,24.092,24.092h51.011c11.256,0,20.38-9.124,20.38-20.38  C174.32,247.126,170.496,240.734,164.746,237.131z"/>
<path style="opacity:0.1;enable-background:new    ;" d="M158.58,270.152h-51.011c-13.306,0-24.092-10.787-24.092-24.092  c0-3.561,0.36-7.361,1.141-11.016c-3.604,4.211-5.782,9.679-5.782,15.657c0,13.306,10.787,24.092,24.092,24.092h51.011  c6.812,0,12.843-3.343,16.543-8.477C167.135,268.729,163.024,270.152,158.58,270.152z"/>
<circle style="fill:#F7D64C;" cx="373.06" cy="178.28" r="33.666"/>
<path style="opacity:0.3;fill:#FFFFFF;enable-background:new    ;" d="M381.854,145.778c-3.531,3.343-5.745,8.063-5.745,13.31  c0,10.131,8.212,18.344,18.344,18.344c4.529,0,8.667-1.649,11.867-4.369C404.268,159.863,394.546,149.206,381.854,145.778z"/>
<path style="fill:#E18C36;" d="M373.057,130.373c-4.573,0-8.279-3.706-8.279-8.279v-14.157c0-4.573,3.706-8.279,8.279-8.279  s8.279,3.706,8.279,8.279v14.157C381.336,126.668,377.63,130.373,373.057,130.373z"/>
<path style="fill:#EC8560;" d="M333.332,146.828c-2.119,0-4.238-0.808-5.855-2.425l-10.009-10.011  c-3.233-3.233-3.233-8.475,0.001-11.708c3.233-3.233,8.475-3.232,11.707,0.001l10.009,10.011c3.233,3.233,3.233,8.475-0.001,11.708  C337.57,146.02,335.451,146.828,333.332,146.828z"/>
<path style="fill:#E18C36;" d="M316.878,186.553h-14.157c-4.573,0-8.279-3.706-8.279-8.279s3.706-8.279,8.279-8.279h14.157  c4.572,0,8.279,3.706,8.279,8.279C325.156,182.847,321.45,186.553,316.878,186.553z"/>
<path style="fill:#EC8560;" d="M323.323,236.289c-2.118,0-4.238-0.808-5.855-2.424c-3.233-3.234-3.233-8.475,0-11.708l10.009-10.009  c3.234-3.232,8.475-3.232,11.708,0c3.233,3.234,3.233,8.475,0,11.708l-10.009,10.009  C327.561,235.481,325.441,236.289,323.323,236.289z"/>
<path style="fill:#E18C36;" d="M373.057,256.89c-4.573,0-8.279-3.706-8.279-8.279v-14.157c0-4.573,3.706-8.279,8.279-8.279  s8.279,3.706,8.279,8.279v14.157C381.336,253.184,377.63,256.89,373.057,256.89z"/>
<path style="fill:#EC8560;" d="M422.793,236.289c-2.118,0-4.238-0.808-5.855-2.424l-10.009-10.009  c-3.233-3.234-3.233-8.475,0-11.708c3.234-3.232,8.475-3.232,11.708,0l10.009,10.009c3.233,3.234,3.233,8.475,0,11.708  C427.031,235.481,424.911,236.289,422.793,236.289z"/>
<path style="fill:#E18C36;" d="M443.395,186.553h-14.157c-4.573,0-8.279-3.706-8.279-8.279s3.706-8.279,8.279-8.279h14.157  c4.573,0,8.279,3.706,8.279,8.279C451.674,182.847,447.968,186.553,443.395,186.553z"/>
<path style="fill:#EC8560;" d="M412.784,146.828c-2.118,0-4.238-0.808-5.854-2.424c-3.234-3.233-3.234-8.475-0.001-11.708  l10.009-10.011c3.234-3.234,8.476-3.233,11.707-0.001c3.234,3.233,3.234,8.475,0.001,11.708l-10.009,10.011  C417.021,146.02,414.902,146.828,412.784,146.828z"/>
<g>
</g>
<g>
</g>
<g>
</g>
<g>
</g>
<g>
</g>
<g>
</g>
<g>
</g>
<g>
</g>
<g>
</g>
<g>
</g>
<g>
</g>
<g>
</g>
<g>
</g>
<g>
</g>
<g>
</g>
</svg>
