<?xml version="1.0" encoding="iso-8859-1"?>
<!-- Generator: Adobe Illustrator 19.0.0, SVG Export Plug-In . SVG Version: 6.00 Build 0)  -->
<svg xmlns="http://www.w3.org/2000/svg" xmlns:xlink="http://www.w3.org/1999/xlink" version="1.1" id="Layer_1" x="0px" y="0px" viewBox="0 0 512 512" style="enable-background:new 0 0 512 512;" xml:space="preserve">
<path style="fill:#F2E7BF;" d="M512,146.286c0-63.504-51.48-114.985-114.985-114.985c-44.777,0-83.573,25.596-102.562,62.954  c-17.456-23.427-45.37-38.6-76.831-38.6c-52.883,0-95.753,42.87-95.753,95.753c0,20.661,6.544,39.794,17.672,55.438  c40.794,57.619-29.811,119.234-84.401,119.234c-17.411,0-31.525,14.115-31.525,31.526c0,17.411,14.115,31.526,31.525,31.526  c101.643,0,151.634,33.528,280.894,33.528c69.825,0,126.431-56.605,126.431-126.431c0-17.462-3.54-34.096-9.941-49.226  C487.982,227.417,512,189.659,512,146.286z"/>
<g>
	<circle style="fill:#9B7E73;" cx="179.187" cy="124.272" r="8.117"/>
	<circle style="fill:#9B7E73;" cx="350.948" cy="364.584" r="8.117"/>
	<circle style="fill:#9B7E73;" cx="232.82" cy="329.634" r="8.117"/>
	<circle style="fill:#9B7E73;" cx="478.732" cy="124.272" r="8.117"/>
	<circle style="fill:#9B7E73;" cx="419.935" cy="332.396" r="8.117"/>
	<circle style="fill:#9B7E73;" cx="325.871" cy="293.248" r="8.117"/>
	<circle style="fill:#9B7E73;" cx="376.981" cy="72.543" r="8.117"/>
	<circle style="fill:#9B7E73;" cx="350.948" cy="118.987" r="8.117"/>
	<circle style="fill:#9B7E73;" cx="259.69" cy="272.098" r="8.117"/>
</g>
<path style="opacity:0.1;enable-background:new    ;" d="M129.172,292.394c32.095-22.898,52.022-61.653,25.753-98.755  c-11.128-15.645-17.672-34.777-17.672-55.438c0-25.414,9.904-48.513,26.06-65.655c-25.034,17.273-41.444,46.15-41.444,78.864  c0,20.661,6.544,39.794,17.672,55.439C161.267,237.533,151.394,269.351,129.172,292.394z M351.417,409.45  c-129.26,0-179.252-33.528-280.894-33.528c-17.411,0-31.526-14.114-31.526-31.526c0-5.86,1.604-11.343,4.39-16.044  c-11.589,4.66-19.774,15.997-19.774,29.253c0,17.411,14.115,31.526,31.525,31.526c101.642,0,151.634,33.528,280.894,33.528  c35.1,0,66.857-14.307,89.764-37.403C404.925,400.467,379.222,409.45,351.417,409.45z"/>
<g>
	<path style="fill:#9B7E73;" d="M378.404,206.198c-10.68,0-19.337-8.657-19.337-19.337c0,10.68-8.657,19.337-19.337,19.337   c-4.241,0-8.151-1.382-11.339-3.697v10.077c0,16.941,13.734,30.675,30.675,30.675c16.941,0,30.675-13.734,30.675-30.675v-10.077   C386.555,204.816,382.645,206.198,378.404,206.198z"/>
	<path style="fill:#9B7E73;" d="M181.312,288.375H82.906c-4.504,0-8.156-3.651-8.156-8.156s3.652-8.156,8.156-8.156h98.406   c25.286,0,45.858-20.572,45.858-45.858c0-25.287-20.572-45.859-45.858-45.859s-45.858,20.572-45.858,45.859   c0,4.505-3.652,8.156-8.156,8.156s-8.156-3.651-8.156-8.156c0-34.28,27.889-62.171,62.17-62.171s62.17,27.891,62.17,62.171   S215.593,288.375,181.312,288.375z"/>
	<path style="fill:#9B7E73;" d="M227.46,480.699c-36.499,0-66.192-29.695-66.192-66.192c0-4.505,3.652-8.156,8.156-8.156   s8.156,3.651,8.156,8.156c0,27.504,22.376,49.881,49.881,49.881c27.503,0,49.881-22.376,49.881-49.881   s-22.376-49.881-49.881-49.881H72.868c-4.504,0-8.156-3.651-8.156-8.156s3.652-8.156,8.156-8.156H227.46   c36.499,0,66.192,29.695,66.192,66.192S263.958,480.699,227.46,480.699z"/>
	<path style="fill:#9B7E73;" d="M227.46,450.437c-4.504,0-8.156-3.651-8.156-8.156s3.652-8.156,8.156-8.156   c10.818,0,19.618-8.801,19.618-19.618c0-10.818-8.801-19.619-19.618-19.619s-19.619,8.802-19.619,19.619   c0,4.505-3.652,8.156-8.156,8.156s-8.156-3.651-8.156-8.156c0-19.813,16.118-35.931,35.931-35.931s35.93,16.118,35.93,35.931   C263.39,434.319,247.272,450.437,227.46,450.437z"/>
	<path style="fill:#9B7E73;" d="M181.312,260.107c-18.693,0-33.902-15.208-33.902-33.902s15.209-33.903,33.902-33.903   s33.902,15.208,33.902,33.903c0,4.505-3.652,8.156-8.156,8.156s-8.156-3.651-8.156-8.156c0-9.7-7.892-17.591-17.59-17.591   c-9.7,0-17.59,7.892-17.59,17.591c0,9.699,7.892,17.59,17.59,17.59c4.504,0,8.156,3.651,8.156,8.156   C189.468,256.455,185.816,260.107,181.312,260.107z"/>
	<path style="fill:#9B7E73;" d="M165.174,329.671H8.156c-4.504,0-8.156-3.651-8.156-8.156c0-4.504,3.652-8.156,8.156-8.156h157.018   c4.504,0,8.156,3.652,8.156,8.156C173.329,326.02,169.678,329.671,165.174,329.671z"/>
</g>
<g>
	<path style="fill:#394049;" d="M269.755,166.125c-4.505,0-8.156-3.651-8.156-8.156v-8.213c0-4.505,3.651-8.156,8.156-8.156   s8.156,3.651,8.156,8.156v8.213C277.911,162.475,274.261,166.125,269.755,166.125z"/>
	<path style="fill:#394049;" d="M448.38,166.125c-4.504,0-8.156-3.651-8.156-8.156v-8.213c0-4.505,3.652-8.156,8.156-8.156   c4.505,0,8.156,3.651,8.156,8.156v8.213C456.535,162.475,452.884,166.125,448.38,166.125z"/>
	<path style="fill:#394049;" d="M405.896,186.861c0-4.505-3.651-8.156-8.156-8.156s-8.156,3.651-8.156,8.156   c0,6.165-5.015,11.18-11.181,11.18c-6.165,0-11.18-5.015-11.18-11.18c0-4.505-3.651-8.156-8.156-8.156s-8.156,3.651-8.156,8.156   c0,6.165-5.015,11.18-11.181,11.18c-6.165,0-11.18-5.015-11.18-11.18c0-4.505-3.651-8.156-8.156-8.156s-8.156,3.651-8.156,8.156   c0,7.547,3.058,14.391,7.997,19.364v6.352c0,21.412,17.42,38.831,38.831,38.831s38.831-17.419,38.831-38.831v-6.353   C402.838,201.253,405.896,194.408,405.896,186.861z M359.068,235.098c-11.879,0-21.614-9.251-22.439-20.923   c1.019,0.115,2.053,0.179,3.101,0.179c7.532,0,14.366-3.045,19.337-7.968c4.97,4.923,11.804,7.968,19.336,7.968   c1.049,0,2.083-0.065,3.104-0.179C380.681,225.846,370.946,235.098,359.068,235.098z"/>
</g>
<g>
</g>
<g>
</g>
<g>
</g>
<g>
</g>
<g>
</g>
<g>
</g>
<g>
</g>
<g>
</g>
<g>
</g>
<g>
</g>
<g>
</g>
<g>
</g>
<g>
</g>
<g>
</g>
<g>
</g>
</svg>
