<?xml version="1.0" encoding="iso-8859-1"?>
<!-- Generator: Adobe Illustrator 19.0.0, SVG Export Plug-In . SVG Version: 6.00 Build 0)  -->
<svg xmlns="http://www.w3.org/2000/svg" xmlns:xlink="http://www.w3.org/1999/xlink" version="1.1" id="Layer_1" x="0px" y="0px" viewBox="0 0 512 512" style="enable-background:new 0 0 512 512;" xml:space="preserve">
<path style="fill:#F2E7BF;" d="M234.047,16.583v478.833c0,9.657,8.213,17.205,17.847,16.543  c133.373-9.164,238.723-120.259,238.723-255.96S385.268,9.204,251.895,0.041C242.26-0.622,234.047,6.926,234.047,16.583z"/>
<circle style="opacity:0.08;enable-background:new    ;" cx="336.857" cy="364.658" r="56.286"/>
<path style="opacity:0.08;enable-background:new    ;" d="M271.662,477.537c-12.779,0-25.336-0.948-37.614-2.753v20.631  c0,9.657,8.213,17.205,17.847,16.543c69.597-4.782,131.55-37.33,174.899-86.635C383.71,458.083,329.961,477.537,271.662,477.537z"/>
<g>
	<path style="fill:#394049;" d="M333.485,242.462c-8.414,0-16.021-3.521-21.425-9.167c-5.404,5.646-13.011,9.167-21.425,9.167   c-16.358,0-29.666-13.308-29.666-29.667c0-4.553,3.69-8.242,8.242-8.242s8.242,3.689,8.242,8.242   c0,7.269,5.913,13.183,13.182,13.183c7.269,0,13.184-5.914,13.184-13.183c0-4.553,3.69-8.242,8.242-8.242s8.242,3.689,8.242,8.242   c0,7.269,5.914,13.183,13.184,13.183c7.269,0,13.182-5.914,13.182-13.183c0-4.553,3.69-8.242,8.242-8.242s8.242,3.689,8.242,8.242   C363.151,229.154,349.843,242.462,333.485,242.462z"/>
	<path style="fill:#394049;" d="M411.018,189.025c-4.552,0-8.242-3.689-8.242-8.242v-9.1c0-4.553,3.69-8.242,8.242-8.242   s8.242,3.689,8.242,8.242v9.1C419.259,185.336,415.57,189.025,411.018,189.025z"/>
</g>
<path style="fill:#D5EBEF;" d="M290.92,341.31c0.324-2.135,0.493-4.321,0.493-6.547c0-23.881-19.36-43.242-43.242-43.242  c-5.034,0-9.863,0.869-14.356,2.451c-13.044-22.691-37.526-37.972-65.578-37.972c-33.622,0-62.111,21.954-71.928,52.308  c-41.441,0.356-74.926,34.054-74.926,75.579c0,41.745,33.842,75.587,75.587,75.587h160.046c35.314,0,63.943-28.629,63.943-63.943  C320.96,372.669,308.961,352.615,290.92,341.31z"/>
<path style="opacity:0.1;enable-background:new    ;" d="M271.576,444.913H111.53c-41.745,0-75.587-33.842-75.587-75.587  c0-11.174,1.129-23.096,3.582-34.563c-11.309,13.211-18.141,30.368-18.141,49.122c0,41.745,33.842,75.587,75.587,75.587h160.046  c21.374,0,40.294-10.489,51.905-26.597C298.415,440.448,285.517,444.913,271.576,444.913z"/>
<g>
</g>
<g>
</g>
<g>
</g>
<g>
</g>
<g>
</g>
<g>
</g>
<g>
</g>
<g>
</g>
<g>
</g>
<g>
</g>
<g>
</g>
<g>
</g>
<g>
</g>
<g>
</g>
<g>
</g>
</svg>
