<?xml version="1.0" encoding="iso-8859-1"?>
<!-- Generator: Adobe Illustrator 19.0.0, SVG Export Plug-In . SVG Version: 6.00 Build 0)  -->
<svg xmlns="http://www.w3.org/2000/svg" xmlns:xlink="http://www.w3.org/1999/xlink" version="1.1" id="Layer_1" x="0px" y="0px" viewBox="0 0 512.003 512.003" style="enable-background:new 0 0 512.003 512.003;" xml:space="preserve">
<path style="fill:#F7D64C;" d="M342.787,154.307H169.214c-12.744,0-24.967,5.063-33.979,14.074L7.741,295.877  c-6.507,6.508-6.507,17.058,0,23.564l43.694,43.694c6.507,6.507,17.058,6.507,23.564,0l74.311-74.311v212.374  c0,5.966,4.836,10.801,10.801,10.801h191.779c5.966,0,10.801-4.836,10.801-10.801V288.825l74.311,74.311  c6.508,6.507,17.058,6.507,23.564,0l43.694-43.694c6.508-6.508,6.508-17.058,0-23.564L376.766,168.382  C367.754,159.37,355.532,154.307,342.787,154.307z"/>
<g>
	<path style="opacity:0.3;fill:#FFFFFF;enable-background:new    ;" d="M169.214,154.307c-12.744,0-24.967,5.063-33.979,14.074   l-17.862,17.862c6.666,2.605,13.913,4.05,21.503,4.05c24.441,0,45.417-14.834,54.42-35.987h-24.082V154.307z"/>
	<path style="opacity:0.3;fill:#FFFFFF;enable-background:new    ;" d="M376.766,168.382c-9.012-9.012-21.234-14.074-33.979-14.074   h-12.855c-2.694,7.816-4.177,16.197-4.177,24.928c0,42.243,34.245,76.488,76.488,76.488c17.393,0,33.421-5.815,46.27-15.593   L376.766,168.382z"/>
</g>
<path style="opacity:0.1;enable-background:new    ;" d="M7.741,295.877c-6.507,6.508-6.507,17.058,0,23.564l43.694,43.694  c6.508,6.507,17.058,6.507,23.564,0l12.27-12.27c-6.508,6.508-17.058,6.508-23.564,0l-43.694-43.694  c-6.507-6.508-6.507-17.058,0-23.564L7.741,295.877z M161.581,488.929V290.164c0-5.023-6.073-7.537-9.624-3.987l-2.646,2.647  v212.374c0,5.966,4.836,10.801,10.801,10.801h191.779c5.966,0,10.801-4.836,10.801-10.801v-1.469h-190.31  C166.416,499.73,161.581,494.894,161.581,488.929z M449.273,350.865L372.313,274c-3.553-3.548-9.621-1.032-9.621,3.989v10.746  l0.006,0.095l74.305,74.305c6.507,6.507,17.058,6.507,23.564,0l12.27-12.27C466.33,357.373,455.78,357.373,449.273,350.865z"/>
<rect x="149.307" y="341.893" style="fill:#E18C36;" width="213.379" height="23.983"/>
<path style="fill:#F7D64C;" d="M176.499,154.307V79.499C176.499,35.593,212.092,0,255.998,0s79.499,35.593,79.499,79.499v74.809  H176.499V154.307z"/>
<path style="opacity:0.3;fill:#FFFFFF;enable-background:new    ;" d="M287.105,6.321c-6.241,8.965-9.91,19.854-9.91,31.605  c0,30.597,24.805,55.402,55.402,55.402c0.973,0,1.939-0.027,2.899-0.076V79.499C335.496,46.632,315.55,18.429,287.105,6.321z"/>
<g>
	<path style="fill:#E18C36;" d="M307.609,154.307V79.499c0-28.459-23.153-51.612-51.612-51.612s-51.612,23.153-51.612,51.612v74.809   h103.224V154.307z"/>
	<path style="fill:#E18C36;" d="M38.248,313.906L8.093,283.751c-2.89-2.89-2.89-7.576,0-10.466l9.719-9.719   c2.89-2.89,7.576-2.89,10.467,0l30.155,30.155c2.89,2.89,2.89,7.576,0,10.467l-9.719,9.719   C45.824,316.796,41.138,316.796,38.248,313.906z"/>
</g>
<path style="opacity:0.2;fill:#FFFFFF;enable-background:new    ;" d="M58.434,293.72l-21.831-21.832  c-2.104,3.44-3.339,7.469-3.339,11.797c0,12.519,10.149,22.669,22.669,22.669c0.119,0,0.233-0.016,0.352-0.018l2.15-2.15  C61.324,301.297,61.324,296.611,58.434,293.72z"/>
<path style="fill:#E18C36;" d="M473.747,313.906l30.155-30.155c2.89-2.89,2.89-7.576,0-10.466l-9.719-9.719  c-2.89-2.89-7.576-2.89-10.466,0l-30.155,30.155c-2.89,2.89-2.89,7.576,0,10.467l9.719,9.719  C466.171,316.796,470.856,316.796,473.747,313.906z"/>
<path style="opacity:0.2;fill:#FFFFFF;enable-background:new    ;" d="M503.902,273.285l-9.719-9.719  c-2.89-2.89-7.576-2.89-10.466,0l-11.105,11.105c4.061,6.105,10.999,10.132,18.881,10.132c5.514,0,10.566-1.972,14.496-5.246  C506.302,277.332,505.612,274.995,503.902,273.285z"/>
<path style="opacity:0.1;enable-background:new    ;" d="M190.279,389.066c-3.854-2.549-9.044-1.49-11.593,2.364l-29.375,44.427  v30.337l43.332-65.534C195.191,396.805,194.133,391.613,190.279,389.066z M333.316,391.429c-2.548-3.853-7.738-4.914-11.593-2.364  c-3.854,2.548-4.913,7.739-2.364,11.593l43.332,65.534v-30.336L333.316,391.429z"/>
<path style="opacity:0.1;enable-background:new    ;" d="M362.692,483.559H149.31v17.64c0,5.966,4.836,10.801,10.801,10.801h191.779  c5.966,0,10.801-4.836,10.801-10.801V483.559z"/>
<rect x="176.502" y="124.364" style="fill:#F7C600;" width="159" height="29.946"/>
<rect x="176.502" y="124.364" style="opacity:0.1;enable-background:new    ;" width="159" height="29.946"/>
<g>
	<path style="fill:#394049;" d="M273.212,265.582c-6.623,0-12.665-2.53-17.212-6.673c-4.547,4.143-10.589,6.673-17.212,6.673   c-14.103,0-25.577-11.474-25.577-25.577c0-4.62,3.745-8.366,8.366-8.366c4.621,0,8.366,3.746,8.366,8.366   c0,4.877,3.968,8.845,8.845,8.845s8.846-3.968,8.846-8.845c0-4.62,3.745-8.366,8.366-8.366c4.621,0,8.366,3.746,8.366,8.366   c0,4.877,3.969,8.845,8.846,8.845c4.877,0,8.845-3.968,8.845-8.845c0-4.62,3.745-8.366,8.366-8.366   c4.621,0,8.366,3.746,8.366,8.366C298.789,254.109,287.315,265.582,273.212,265.582z"/>
	<path style="fill:#394049;" d="M176.506,222.657c-4.621,0-8.366-3.746-8.366-8.366v-7.311c0-4.62,3.745-8.366,8.366-8.366   c4.621,0,8.366,3.746,8.366,8.366v7.311C184.872,218.911,181.127,222.657,176.506,222.657z"/>
	<path style="fill:#394049;" d="M335.496,222.657c-4.621,0-8.366-3.746-8.366-8.366v-7.311c0-4.62,3.745-8.366,8.366-8.366   c4.621,0,8.366,3.746,8.366,8.366v7.311C343.862,218.911,340.117,222.657,335.496,222.657z"/>
</g>
<rect x="247.636" y="291.139" style="opacity:0.2;enable-background:new    ;" width="16.732" height="220.864"/>
<g>
</g>
<g>
</g>
<g>
</g>
<g>
</g>
<g>
</g>
<g>
</g>
<g>
</g>
<g>
</g>
<g>
</g>
<g>
</g>
<g>
</g>
<g>
</g>
<g>
</g>
<g>
</g>
<g>
</g>
</svg>
