<?xml version="1.0" encoding="iso-8859-1"?>
<!-- Generator: Adobe Illustrator 19.0.0, SVG Export Plug-In . SVG Version: 6.00 Build 0)  -->
<svg xmlns="http://www.w3.org/2000/svg" xmlns:xlink="http://www.w3.org/1999/xlink" version="1.1" id="Layer_1" x="0px" y="0px" viewBox="0 0 512.001 512.001" style="enable-background:new 0 0 512.001 512.001;" xml:space="preserve">
<path style="fill:#F7D64C;" d="M322.976,238.992h-57.037V64.43c0-7.13-5.78-12.911-12.91-12.911H36.139  c-7.13,0-12.91,5.78-12.91,12.911v340.359h465.545l0,0C488.773,313.222,414.543,238.992,322.976,238.992z"/>
<g>
	<path style="opacity:0.3;fill:#FFFFFF;enable-background:new    ;" d="M164.474,343.066c-27.741,0-50.229,22.488-50.229,50.229   c0,3.957,0.471,7.801,1.337,11.494h97.786c0.864-3.693,1.337-7.537,1.337-11.494C214.703,365.555,192.214,343.066,164.474,343.066z   "/>
	<path style="opacity:0.3;fill:#FFFFFF;enable-background:new    ;" d="M332.027,239.241c-3.541,9.11-5.504,19.006-5.504,29.367   c0,44.804,36.321,81.125,81.125,81.125c23.673,0,44.972-10.145,59.803-26.318C440.398,275.49,390.202,242.372,332.027,239.241z"/>
</g>
<path style="fill:#E18C36;" d="M144.584,209.073L144.584,209.073c-34.215,0-61.952-27.737-61.952-61.952V51.52h123.904v95.602  C206.535,181.336,178.799,209.073,144.584,209.073z"/>
<path style="opacity:0.1;enable-background:new    ;" d="M111.523,199.504c5.005,3.166,10.492,5.631,16.331,7.265V51.52h-16.331  V199.504z M161.313,51.52v155.249c5.838-1.634,11.326-4.099,16.331-7.265V51.52H161.313z"/>
<path id="SVGCleanerId_0" style="fill:#394049;" d="M494.56,404.789H17.44c-9.632,0-17.44,7.809-17.44,17.44v20.806  c0,9.631,7.807,17.44,17.44,17.44h477.122c9.631,0,17.44-7.807,17.44-17.44v-20.806C512,412.597,504.193,404.789,494.56,404.789z"/>
<g>
	<path id="SVGCleanerId_0_1_" style="fill:#394049;" d="M494.56,404.789H17.44c-9.632,0-17.44,7.809-17.44,17.44v20.806   c0,9.631,7.807,17.44,17.44,17.44h477.122c9.631,0,17.44-7.807,17.44-17.44v-20.806C512,412.597,504.193,404.789,494.56,404.789z"/>
</g>
<g style="opacity:0.2;">
	<rect x="75.548" y="404.793" width="16.331" height="55.689"/>
	<rect x="138.674" y="404.793" width="16.331" height="55.689"/>
</g>
<path style="opacity:0.2;enable-background:new    ;" d="M506.3,451.184H29.178c-9.632,0-17.44-7.807-17.44-17.44v-20.806  c0-2.768,0.662-5.374,1.808-7.699C5.793,407.01,0,413.937,0,422.228v20.806c0,9.631,7.807,17.44,17.44,17.44H494.56  c6.865,0,12.785-3.976,15.63-9.741C508.938,451.018,507.64,451.184,506.3,451.184z"/>
<path style="opacity:0.05;fill:#FFFFFF;enable-background:new    ;" d="M494.56,404.789H382.737  c17.052,21.866,43.624,35.945,73.501,35.945c20.91,0,40.213-6.888,55.76-18.52C511.991,412.59,504.187,404.789,494.56,404.789z"/>
<g>
	<path style="fill:#394049;" d="M330.518,365.899c-6.131,0-11.736-2.295-16.001-6.071c-4.266,3.776-9.871,6.071-16.001,6.071   c-13.325,0-24.166-10.841-24.166-24.167c0-4.51,3.655-8.166,8.166-8.166c4.511,0,8.166,3.656,8.166,8.166   c0,4.321,3.516,7.836,7.835,7.836c4.321,0,7.836-3.514,7.836-7.836c0-4.51,3.655-8.166,8.166-8.166s8.166,3.656,8.166,8.166   c0,4.321,3.516,7.836,7.836,7.836c4.321,0,7.836-3.514,7.836-7.836c0-4.51,3.656-8.166,8.166-8.166   c4.511,0,8.166,3.656,8.166,8.166C354.686,355.058,343.844,365.899,330.518,365.899z"/>
	<path style="fill:#394049;" d="M240.608,325.989c-4.511,0-8.166-3.656-8.166-8.166v-6.796c0-4.51,3.655-8.166,8.166-8.166   c4.511,0,8.166,3.656,8.166,8.166v6.796C248.773,322.333,245.119,325.989,240.608,325.989z"/>
	<path style="fill:#394049;" d="M388.425,325.989c-4.511,0-8.166-3.656-8.166-8.166v-6.796c0-4.51,3.655-8.166,8.166-8.166   s8.166,3.656,8.166,8.166v6.796C396.591,322.333,392.935,325.989,388.425,325.989z"/>
</g>
<path style="opacity:0.15;enable-background:new    ;" d="M134.325,96.132v-4.385c0-3.894-3.157-7.052-7.052-7.052h-22.945  c-3.894,0-7.052,3.157-7.052,7.052v4.385H68.307c-10.687,0-19.35,8.663-19.35,19.35l0,0c0,10.687,8.663,19.35,19.35,19.35h28.97  v4.384c0,3.894,3.157,7.052,7.052,7.052h22.945c3.894,0,7.052-3.157,7.052-7.052v-4.384h72.209V96.132H134.325z"/>
<path style="fill:#394049;" d="M72.844,130.297h133.692V91.595H72.844c-10.687,0-19.35,8.663-19.35,19.35l0,0  C53.492,121.633,62.157,130.297,72.844,130.297z"/>
<path style="fill:#DBE7F2;" d="M131.16,80.159h-22.945c-3.894,0-7.052,3.157-7.052,7.052v47.47c0,3.894,3.157,7.052,7.052,7.052  h22.945c3.894,0,7.052-3.157,7.052-7.052v-47.47C138.212,83.316,135.055,80.159,131.16,80.159z"/>
<path style="opacity:0.15;enable-background:new    ;" d="M136.777,136.116h-22.945c-3.894,0-7.052-3.157-7.052-7.052V81.594  c0-0.447,0.046-0.884,0.126-1.309c-3.268,0.614-5.743,3.479-5.743,6.926v47.47c0,3.894,3.157,7.052,7.052,7.052h22.945  c3.447,0,6.311-2.475,6.926-5.743C137.661,136.071,137.225,136.116,136.777,136.116z"/>
<g>
</g>
<g>
</g>
<g>
</g>
<g>
</g>
<g>
</g>
<g>
</g>
<g>
</g>
<g>
</g>
<g>
</g>
<g>
</g>
<g>
</g>
<g>
</g>
<g>
</g>
<g>
</g>
<g>
</g>
</svg>
