<?xml version="1.0" encoding="iso-8859-1"?>
<!-- Generator: Adobe Illustrator 19.0.0, SVG Export Plug-In . SVG Version: 6.00 Build 0)  -->
<svg xmlns="http://www.w3.org/2000/svg" xmlns:xlink="http://www.w3.org/1999/xlink" version="1.1" id="Layer_1" x="0px" y="0px" viewBox="0 0 511.999 511.999" style="enable-background:new 0 0 511.999 511.999;" xml:space="preserve">
<path style="fill:#F2E7BF;" d="M253.181,8.162c-15.088-4.11-30.225-6.786-45.266-8.108c-12.161-1.069-18.724,13.97-9.647,22.133  c69.447,62.461,102.153,160.748,76.322,257.151c-25.832,96.406-103.301,165.171-194.676,184.54  c-11.956,2.535-13.765,18.842-2.686,24.001c13.36,6.221,27.442,11.373,42.169,15.318c136.617,36.606,277.038-44.328,313.892-180.813  C470.022,186.342,389.141,45.205,253.181,8.162z"/>
<path style="opacity:0.05;enable-background:new    ;" d="M279.49,334.836c-8.999-2.412-18.069-2.483-26.582-0.612  c-11.87,22.168-26.783,42.119-44.048,59.466c1.859,23.043,17.906,43.484,41.514,49.81c30.006,8.041,60.849-9.767,68.89-39.773  C327.304,373.719,309.497,342.876,279.49,334.836z M305.752,28.959c-12.042,9.312-19.805,23.893-19.805,40.294  c0,28.122,22.798,50.92,50.92,50.92c20.106,0,37.485-11.657,45.762-28.578C361.632,66.28,335.683,44.835,305.752,28.959z"/>
<g>
	<path style="fill:#394049;" d="M334.091,341.078c-2.576,0-5.167-0.339-7.721-1.023c-4.394-1.177-7.001-5.694-5.824-10.088   c1.176-4.394,5.693-7,10.088-5.824c3.399,0.911,6.948,0.444,9.995-1.316s5.227-4.6,6.139-8c0.91-3.399,0.443-6.949-1.317-9.997   c-1.759-3.047-4.599-5.227-7.999-6.138c-3.682-0.986-6.109-4.317-6.107-7.956c0-0.704,0.092-1.42,0.283-2.132   c1.176-4.393,5.694-7.003,10.088-5.825c7.012,1.882,14.254-2.301,16.134-9.316c0.91-3.399,0.443-6.949-1.316-9.997   c-1.759-3.047-4.6-5.227-8-6.138c-4.394-1.177-7.001-5.694-5.824-10.088c1.176-4.394,5.692-6.997,10.088-5.824   c7.65,2.05,14.042,6.956,18.001,13.814c3.959,6.858,5.012,14.847,2.961,22.497c-2.174,8.115-7.537,14.545-14.377,18.303   c0.113,0.186,0.224,0.373,0.334,0.562c3.959,6.858,5.012,14.848,2.961,22.497c-2.049,7.649-6.955,14.042-13.813,18.001   C344.299,339.73,339.227,341.078,334.091,341.078z"/>
	<path style="fill:#394049;" d="M334.284,195.175c-0.706,0-1.423-0.091-2.137-0.282l-8.783-2.353   c-4.395-1.177-7.002-5.694-5.825-10.088c1.177-4.394,5.691-7.002,10.088-5.825l8.784,2.353c4.394,1.177,7.001,5.694,5.824,10.088   C341.248,192.748,337.921,195.175,334.284,195.175z"/>
	<path style="fill:#394049;" d="M279.934,397.406c-0.706,0-1.423-0.091-2.137-0.283c-10.576-2.834-16.877-13.746-14.042-24.323   c1.373-5.125,4.658-9.407,9.253-12.06c4.595-2.651,9.945-3.357,15.07-1.984c4.394,1.177,7.002,5.694,5.825,10.088   c-1.177,4.393-5.691,7.003-10.087,5.825c-1.178-0.316-2.117,0.078-2.572,0.338c-0.454,0.262-1.263,0.877-1.579,2.057   c-0.482,1.805,0.592,3.667,2.396,4.15c4.394,1.177,7.001,5.694,5.824,10.088C286.899,394.98,283.571,397.406,279.934,397.406z"/>
</g>
<g>
</g>
<g>
</g>
<g>
</g>
<g>
</g>
<g>
</g>
<g>
</g>
<g>
</g>
<g>
</g>
<g>
</g>
<g>
</g>
<g>
</g>
<g>
</g>
<g>
</g>
<g>
</g>
<g>
</g>
</svg>
