<?xml version="1.0" encoding="iso-8859-1"?>
<!-- Generator: Adobe Illustrator 19.0.0, SVG Export Plug-In . SVG Version: 6.00 Build 0)  -->
<svg xmlns="http://www.w3.org/2000/svg" xmlns:xlink="http://www.w3.org/1999/xlink" version="1.1" id="Layer_1" x="0px" y="0px" viewBox="0 0 512 512" style="enable-background:new 0 0 512 512;" xml:space="preserve">
<circle style="fill:#5F666F;" cx="256" cy="256" r="256"/>
<circle style="fill:#DBE7F2;" cx="256" cy="197.537" r="26.68"/>
<path style="opacity:0.08;enable-background:new    ;" d="M182.538,10.717C118.85,29.764,65.581,72.925,33.334,129.616  c13.079,5.602,27.479,8.708,42.607,8.708c59.818,0,108.311-48.493,108.311-108.311C184.254,23.427,183.664,16.979,182.538,10.717z"/>
<circle style="opacity:0.08;enable-background:new    ;" cx="358.584" cy="364.417" r="56.16"/>
<circle style="opacity:0.08;enable-background:new    ;" cx="158.459" cy="344.528" r="100.83"/>
<path style="opacity:0.08;enable-background:new    ;" d="M280.692,487.308c-141.384,0-256-114.614-256-256  c0-64.408,23.793-123.255,63.06-168.248C33.98,109.99,0,179.023,0,256c0,141.384,114.616,256,256,256  c76.977,0,146.01-33.98,192.939-87.752C403.947,463.515,345.1,487.308,280.692,487.308z"/>
<g>
	<path style="fill:#394049;" d="M163.148,169.284h-11.765c-4.542,0-8.223-3.682-8.223-8.223s3.682-8.223,8.223-8.223h11.765   c4.542,0,8.223,3.682,8.223,8.223S167.689,169.284,163.148,169.284z"/>
	<path style="fill:#394049;" d="M360.622,169.284h-11.764c-4.542,0-8.223-3.682-8.223-8.223s3.682-8.223,8.223-8.223h11.764   c4.542,0,8.223,3.682,8.223,8.223C368.846,165.602,365.164,169.284,360.622,169.284z"/>
	<path style="fill:#394049;" d="M256.003,232.445c-19.246,0-34.905-15.657-34.905-34.905c0-19.246,15.657-34.903,34.905-34.903   s34.903,15.657,34.903,34.903C290.907,216.788,275.249,232.445,256.003,232.445z M256.003,179.085   c-10.177,0-18.458,8.279-18.458,18.457s8.279,18.458,18.458,18.458c10.177,0,18.457-8.279,18.457-18.458   C274.46,187.364,266.181,179.085,256.003,179.085z"/>
</g>
<g>
</g>
<g>
</g>
<g>
</g>
<g>
</g>
<g>
</g>
<g>
</g>
<g>
</g>
<g>
</g>
<g>
</g>
<g>
</g>
<g>
</g>
<g>
</g>
<g>
</g>
<g>
</g>
<g>
</g>
</svg>
