<?xml version="1.0" encoding="iso-8859-1"?>
<!-- Generator: Adobe Illustrator 19.0.0, SVG Export Plug-In . SVG Version: 6.00 Build 0)  -->
<svg xmlns="http://www.w3.org/2000/svg" xmlns:xlink="http://www.w3.org/1999/xlink" version="1.1" id="Layer_1" x="0px" y="0px" viewBox="0 0 512 512" style="enable-background:new 0 0 512 512;" xml:space="preserve">
<path style="fill:#E18C36;" d="M244.983,6.36l-59.672,103.356h141.377L267.016,6.36C262.12-2.12,249.88-2.12,244.983,6.36z"/>
<path style="fill:#EC8560;" d="M71.689,87.268l30.888,115.278l99.969-99.969L87.268,71.689  C77.809,69.154,69.154,77.809,71.689,87.268z"/>
<path style="fill:#E18C36;" d="M6.36,267.016l103.356,59.672V185.311L6.36,244.983C-2.12,249.88-2.12,262.12,6.36,267.016z"/>
<path style="fill:#EC8560;" d="M87.268,440.311l115.278-30.888l-99.969-99.969L71.689,424.732  C69.154,434.191,77.809,442.846,87.268,440.311z"/>
<path style="fill:#E18C36;" d="M267.016,505.639l59.672-103.356H185.311l59.672,103.356  C249.88,514.12,262.12,514.12,267.016,505.639z"/>
<path style="fill:#EC8560;" d="M440.311,424.732l-30.888-115.278l-99.969,99.969l115.278,30.888  C434.191,442.846,442.846,434.191,440.311,424.732z"/>
<path style="fill:#E18C36;" d="M505.639,244.983l-103.356-59.672v141.377l103.356-59.672  C514.12,262.12,514.12,249.88,505.639,244.983z"/>
<path style="fill:#EC8560;" d="M424.732,71.689l-115.278,30.888l99.969,99.969l30.888-115.278  C442.846,77.809,434.191,69.154,424.732,71.689z"/>
<path style="opacity:0.1;enable-background:new    ;" d="M96.734,180.74l5.843,21.806l92.581-92.581  C154.252,120.695,119.394,146.34,96.734,180.74z"/>
<path style="opacity:0.1;enable-background:new    ;" d="M86.379,198.785c-11.181,22.602-17.475,48.053-17.475,74.977  c0,10.591,0.982,20.952,2.842,31.005l37.97,21.922V185.311L86.379,198.785z"/>
<path style="opacity:0.1;enable-background:new    ;" d="M102.577,309.454l-12.443,46.439  c15.382,27.679,38.294,50.591,65.973,65.973l46.439-12.443L102.577,309.454z"/>
<path style="opacity:0.1;enable-background:new    ;" d="M185.311,402.283l21.922,37.97c10.052,1.86,20.414,2.842,31.005,2.842  c26.924,0,52.375-6.294,74.977-17.475l13.473-23.336H185.311V402.283z"/>
<path style="opacity:0.1;enable-background:new    ;" d="M309.454,409.423l21.805,5.843c34.399-22.659,60.046-57.517,70.775-98.423  L309.454,409.423z"/>
<circle style="fill:#F7D64C;" cx="255.999" cy="255.999" r="169.332"/>
<path style="opacity:0.1;enable-background:new    ;" d="M269.82,87.23c-87.02,7.071-155.438,79.925-155.438,168.766  c0,88.857,68.442,161.72,155.482,168.77c87.035-7.054,155.469-79.914,155.469-168.766C425.334,167.133,356.875,94.263,269.82,87.23z  "/>
<circle style="fill:#83D8DD;" cx="302.205" cy="255.999" r="169.332"/>
<path style="fill:#7DBF63;" d="M268.152,333.005c-19.582-19.907-54.392-4.026-63.096-13.817c-8.703-9.79,2.175-19.582,17.405-19.953  c15.23-0.372,5.44-30.089-9.967-42.769c-15.406-12.68-21.581,7.241-38.987-0.463c-9.658-4.275-13.209-37.962-10.792-54.582  c2.154-14.802,14.505-32.039,26.11-28.984c11.605,3.054,4.134,13.457,13.188,14.057c9.054,0.601,6.152-12.461,19.208-15.601  c12.218-2.938,38.833-7.824,16.826-71.645c-61.706,25.286-105.176,85.934-105.176,156.745c0,15.046,1.972,29.629,5.655,43.516  c14.609,11.122,35.099,8.239,39.663,22.97c1.839,5.937-9.302,13.751-19.004,24.2c24.904,39.194,65.469,67.459,112.893,75.975  C286.444,387.907,281.397,346.47,268.152,333.005z"/>
<path style="opacity:0.1;enable-background:new    ;" d="M318.542,409c-93.522,0-169.336-75.814-169.336-169.337  c0-42.604,15.739-81.53,41.713-111.291c-35.569,31.043-58.046,76.706-58.046,127.623c0,93.522,75.814,169.337,169.337,169.337  c50.917,0,96.582-22.477,127.624-58.046C400.072,393.261,361.147,409,318.542,409z"/>
<g>
	<path style="fill:#7DBF63;" d="M407.736,123.566c2.038,17.101,6.545,37.226-29.371,32.235c-17.98-2.498-40.027,2.992-39.89,22.366   c0.089,12.513,3.626,46.411,15.956,47.135c12.33,0.726,40.616,5.723,43.516-16.358c2.901-22.081,25.331-32.205,31.886-23.517   c5.052,6.698,24.742,29.691,39.147,41.073C461.697,185.035,439.325,148.771,407.736,123.566z"/>
	<path style="fill:#7DBF63;" d="M399.398,260.679c-13.769,6.949-41.341,21.458-29.736,50.338   c11.605,28.879,23.934,52.816,15.956,76.748c-2.029,6.085,0.214,10.167,4.68,12.877c46.241-28.221,77.889-77.991,80.991-135.353   C451.707,256.916,427.84,246.324,399.398,260.679z"/>
</g>
<path style="opacity:0.2;fill:#FFFFFF;enable-background:new    ;" d="M366.6,99.344c-5.379,8.037-8.519,17.698-8.519,28.094  c0,27.937,22.648,50.585,50.585,50.585c13.796,0,26.296-5.529,35.422-14.485C425.463,135.018,398.475,112.461,366.6,99.344z"/>
<g>
	<path style="fill:#394049;" d="M316.351,294.571c-5.362,0-10.29-1.902-14.14-5.07c-3.852,3.166-8.778,5.07-14.14,5.07   c-12.295,0-22.298-10.002-22.298-22.298c0-4.505,3.652-8.158,8.158-8.158c4.505,0,8.158,3.652,8.158,8.158   c0,3.299,2.683,5.982,5.982,5.982c3.299,0,5.982-2.683,5.982-5.982c0-4.505,3.652-8.158,8.158-8.158s8.158,3.652,8.158,8.158   c0,3.299,2.683,5.982,5.982,5.982s5.982-2.683,5.982-5.982c0-4.505,3.652-8.158,8.158-8.158s8.158,3.652,8.158,8.158   C338.65,284.569,328.646,294.571,316.351,294.571z"/>
	<path style="fill:#394049;" d="M236.898,259.303c-4.505,0-8.158-3.652-8.158-8.158v-6.006c0-4.505,3.652-8.158,8.158-8.158   c4.505,0,8.158,3.652,8.158,8.158v6.006C245.056,255.651,241.404,259.303,236.898,259.303z"/>
	<path style="fill:#394049;" d="M367.524,259.303c-4.505,0-8.158-3.652-8.158-8.158v-6.006c0-4.505,3.652-8.158,8.158-8.158   s8.158,3.652,8.158,8.158v6.006C375.682,255.651,372.029,259.303,367.524,259.303z"/>
</g>
<g>
</g>
<g>
</g>
<g>
</g>
<g>
</g>
<g>
</g>
<g>
</g>
<g>
</g>
<g>
</g>
<g>
</g>
<g>
</g>
<g>
</g>
<g>
</g>
<g>
</g>
<g>
</g>
<g>
</g>
</svg>
