<?xml version="1.0" encoding="iso-8859-1"?>
<!-- Generator: Adobe Illustrator 19.0.0, SVG Export Plug-In . SVG Version: 6.00 Build 0)  -->
<svg xmlns="http://www.w3.org/2000/svg" xmlns:xlink="http://www.w3.org/1999/xlink" version="1.1" id="Layer_1" x="0px" y="0px" viewBox="0 0 512 512" style="enable-background:new 0 0 512 512;" xml:space="preserve">
<circle style="fill:#83D8DD;" cx="256" cy="256" r="256"/>
<path style="fill:#7DBF63;" d="M204.513,372.421c-29.603-30.095-82.23-6.086-95.387-20.887  c-13.156-14.801,3.289-29.603,26.314-30.165s8.223-45.486-15.067-64.657c-23.291-19.169-32.626,10.947-58.94-0.7  c-14.6-6.462-19.97-57.389-16.314-82.515c3.255-22.378,21.929-48.436,39.472-43.818c17.543,4.617,6.251,20.344,19.938,21.253  c13.687,0.909,9.301-18.838,29.037-23.585c18.471-4.442,58.706-11.829,25.437-108.312C65.717,57.261,0,148.949,0,256  c0,22.746,2.982,44.792,8.549,65.787c22.086,16.813,53.062,12.456,59.961,34.725c2.781,8.976-14.062,20.788-28.73,36.585  c37.649,59.252,98.975,101.982,170.67,114.858C232.166,455.421,224.536,392.777,204.513,372.421z"/>
<path style="opacity:0.1;enable-background:new    ;" d="M280.692,487.308c-141.384,0-256-114.614-256-256  c0-64.408,23.793-123.255,63.06-168.248C33.98,109.99,0,179.023,0,256c0,141.384,114.616,256,256,256  c76.977,0,146.01-33.98,192.94-87.752C403.947,463.515,345.1,487.308,280.692,487.308z"/>
<g>
	<path style="fill:#7DBF63;" d="M415.533,55.795c3.082,25.853,9.893,56.278-44.403,48.733c-27.18-3.777-60.513,4.524-60.305,33.814   c0.135,18.916,5.482,70.162,24.122,71.259c18.64,1.096,61.401,8.652,65.787-24.729s38.296-48.687,48.204-35.553   c7.639,10.126,37.403,44.887,59.182,62.093C497.11,148.722,463.289,93.899,415.533,55.795z"/>
	<path style="fill:#7DBF63;" d="M402.928,263.079c-20.815,10.505-62.498,32.44-44.955,76.1   c17.543,43.66,36.183,79.847,24.122,116.026c-3.067,9.198,0.323,15.37,7.075,19.468c69.907-42.664,117.749-117.904,122.441-204.623   C482.008,257.391,445.927,241.379,402.928,263.079z"/>
</g>
<path style="opacity:0.2;fill:#FFFFFF;enable-background:new    ;" d="M353.344,19.177c-8.13,12.15-12.878,26.756-12.878,42.472  c0,42.235,34.239,76.474,76.474,76.474c20.857,0,39.753-8.359,53.55-21.897C442.334,73.107,401.532,39.006,353.344,19.177z"/>
<g>
	<path style="fill:#394049;" d="M277.38,310.209c-8.394,0-15.984-3.513-21.376-9.146c-5.392,5.634-12.982,9.146-21.376,9.146   c-16.323,0-29.601-13.279-29.601-29.601c0-4.542,3.682-8.223,8.223-8.223c4.543,0,8.223,3.682,8.223,8.223   c0,7.253,5.901,13.154,13.154,13.154c7.252,0,13.153-5.901,13.153-13.154c0-4.542,3.681-8.223,8.223-8.223   c4.543,0,8.223,3.682,8.223,8.223c0,7.253,5.901,13.154,13.153,13.154c7.253,0,13.154-5.901,13.154-13.154   c0-4.542,3.681-8.223,8.223-8.223c4.542,0,8.223,3.682,8.223,8.223C306.981,296.93,293.703,310.209,277.38,310.209z"/>
	<path style="fill:#394049;" d="M157.265,256.89c-4.543,0-8.223-3.682-8.223-8.223v-9.08c0-4.542,3.681-8.223,8.223-8.223   c4.543,0,8.223,3.682,8.223,8.223v9.08C165.489,253.208,161.808,256.89,157.265,256.89z"/>
	<path style="fill:#394049;" d="M354.741,256.89c-4.543,0-8.223-3.682-8.223-8.223v-9.08c0-4.542,3.681-8.223,8.223-8.223   c4.542,0,8.223,3.682,8.223,8.223v9.08C362.965,253.208,359.283,256.89,354.741,256.89z"/>
</g>
<g>
</g>
<g>
</g>
<g>
</g>
<g>
</g>
<g>
</g>
<g>
</g>
<g>
</g>
<g>
</g>
<g>
</g>
<g>
</g>
<g>
</g>
<g>
</g>
<g>
</g>
<g>
</g>
<g>
</g>
</svg>
