<?xml version="1.0" encoding="iso-8859-1"?>
<!-- Generator: Adobe Illustrator 19.0.0, SVG Export Plug-In . SVG Version: 6.00 Build 0)  -->
<svg xmlns="http://www.w3.org/2000/svg" xmlns:xlink="http://www.w3.org/1999/xlink" version="1.1" id="Layer_1" x="0px" y="0px" viewBox="0 0 512 512" style="enable-background:new 0 0 512 512;" xml:space="preserve">
<path style="fill:#E18C36;" d="M244.983,6.36l-59.672,103.356h141.377L267.016,6.36C262.12-2.12,249.88-2.12,244.983,6.36z"/>
<path style="fill:#EC8560;" d="M71.689,87.268l30.888,115.278l99.969-99.969L87.268,71.689  C77.809,69.154,69.154,77.809,71.689,87.268z"/>
<path style="fill:#E18C36;" d="M6.36,267.016l103.356,59.672V185.311L6.36,244.983C-2.12,249.88-2.12,262.12,6.36,267.016z"/>
<path style="fill:#EC8560;" d="M87.268,440.311l115.278-30.888l-99.969-99.969L71.689,424.732  C69.154,434.191,77.809,442.846,87.268,440.311z"/>
<path style="fill:#E18C36;" d="M267.016,505.639l59.672-103.356H185.311l59.672,103.356  C249.88,514.12,262.12,514.12,267.016,505.639z"/>
<path style="fill:#EC8560;" d="M440.311,424.732l-30.888-115.278l-99.969,99.969l115.278,30.888  C434.191,442.846,442.846,434.191,440.311,424.732z"/>
<path style="fill:#E18C36;" d="M505.639,244.983l-103.356-59.672v141.377l103.356-59.672  C514.12,262.12,514.12,249.88,505.639,244.983z"/>
<path style="fill:#EC8560;" d="M424.732,71.689l-115.278,30.888l99.969,99.969l30.888-115.278  C442.846,77.809,434.191,69.154,424.732,71.689z"/>
<path style="opacity:0.1;enable-background:new    ;" d="M96.734,180.74l5.843,21.806l92.581-92.581  C154.252,120.695,119.394,146.34,96.734,180.74z"/>
<path style="opacity:0.1;enable-background:new    ;" d="M86.379,198.785c-11.18,22.602-17.475,48.053-17.475,74.977  c0,10.591,0.982,20.952,2.842,31.005l37.97,21.922V185.311L86.379,198.785z"/>
<path style="opacity:0.1;enable-background:new    ;" d="M102.577,309.454l-12.443,46.439  c15.382,27.679,38.294,50.591,65.973,65.973l46.439-12.443L102.577,309.454z"/>
<path style="opacity:0.1;enable-background:new    ;" d="M185.311,402.283l21.922,37.97c10.052,1.86,20.414,2.842,31.005,2.842  c26.924,0,52.375-6.294,74.977-17.475l13.473-23.336H185.311V402.283z"/>
<path style="opacity:0.1;enable-background:new    ;" d="M309.454,409.423l21.805,5.843c34.399-22.659,60.046-57.517,70.775-98.423  L309.454,409.423z"/>
<circle style="fill:#F7D64C;" cx="255.999" cy="255.999" r="169.332"/>
<path style="opacity:0.1;enable-background:new    ;" d="M269.82,87.23c-87.02,7.07-155.438,79.925-155.438,168.766  c0,88.857,68.442,161.72,155.482,168.77c87.035-7.054,155.469-79.914,155.469-168.766C425.334,167.133,356.875,94.263,269.82,87.23z  "/>
<circle style="fill:#F2E7BF;" cx="302.205" cy="255.999" r="169.343"/>
<path style="opacity:0.05;enable-background:new    ;" d="M253.616,93.747c-42.127,12.6-77.363,41.15-98.694,78.649  c8.65,3.706,18.176,5.759,28.183,5.759c39.568,0,71.645-32.076,71.645-71.645C254.751,102.155,254.36,97.889,253.616,93.747z"/>
<circle style="opacity:0.05;enable-background:new    ;" cx="370.066" cy="327.711" r="37.145"/>
<circle style="opacity:0.05;enable-background:new    ;" cx="237.694" cy="314.55" r="66.697"/>
<path style="opacity:0.05;enable-background:new    ;" d="M318.542,409c-93.522,0-169.337-75.814-169.337-169.337  c0-42.605,15.739-81.53,41.713-111.291c-35.569,31.043-58.046,76.706-58.046,127.624c0,93.522,75.814,169.337,169.337,169.337  c50.918,0,96.582-22.477,127.624-58.046C400.072,393.261,361.147,409,318.542,409z"/>
<g>
	<path style="opacity:0.2;fill:#FFFFFF;enable-background:new    ;" d="M315.966,87.218c8.067,49.307,50.861,86.935,102.45,86.935   c10.287,0,20.221-1.503,29.604-4.29C420.738,123.777,372.239,91.743,315.966,87.218z"/>
	<path style="opacity:0.2;fill:#FFFFFF;enable-background:new    ;" d="M468.455,223.692c-20.693,6.547-35.695,25.896-35.695,48.755   c0,19.595,11.027,36.607,27.211,45.191c7.469-19.103,11.575-39.892,11.575-61.642C471.546,244.947,470.475,234.15,468.455,223.692z   "/>
</g>
<g>
	<path style="fill:#394049;" d="M316.351,239.625c-5.363,0-10.29-1.902-14.14-5.069c-3.85,3.166-8.777,5.069-14.14,5.069   c-12.295,0-22.298-10.002-22.298-22.298c0-4.505,3.651-8.158,8.158-8.158s8.158,3.652,8.158,8.158c0,3.299,2.684,5.982,5.982,5.982   c3.298,0,5.982-2.683,5.982-5.982c0-4.505,3.651-8.158,8.158-8.158s8.158,3.652,8.158,8.158c0,3.299,2.684,5.982,5.982,5.982   c3.299,0,5.983-2.683,5.983-5.982c0-4.505,3.651-8.158,8.158-8.158s8.158,3.652,8.158,8.158   C338.65,229.622,328.646,239.625,316.351,239.625z"/>
	<path style="fill:#394049;" d="M236.9,204.357c-4.506,0-8.158-3.652-8.158-8.158v-6.005c0-4.505,3.651-8.158,8.158-8.158   c4.505,0,8.158,3.652,8.158,8.158v6.005C245.057,200.704,241.405,204.357,236.9,204.357z"/>
	<path style="fill:#394049;" d="M367.524,204.357c-4.506,0-8.158-3.652-8.158-8.158v-6.005c0-4.505,3.651-8.158,8.158-8.158   s8.158,3.652,8.158,8.158v6.005C375.682,200.704,372.029,204.357,367.524,204.357z"/>
</g>
<g>
</g>
<g>
</g>
<g>
</g>
<g>
</g>
<g>
</g>
<g>
</g>
<g>
</g>
<g>
</g>
<g>
</g>
<g>
</g>
<g>
</g>
<g>
</g>
<g>
</g>
<g>
</g>
<g>
</g>
</svg>
