<?xml version="1.0" encoding="iso-8859-1"?>
<!-- Generator: Adobe Illustrator 19.0.0, SVG Export Plug-In . SVG Version: 6.00 Build 0)  -->
<svg xmlns="http://www.w3.org/2000/svg" xmlns:xlink="http://www.w3.org/1999/xlink" version="1.1" id="Layer_1" x="0px" y="0px" viewBox="0 0 511.999 511.999" style="enable-background:new 0 0 511.999 511.999;" xml:space="preserve">
<g>
	<path style="fill:#9B7E73;" d="M271.32,62.473c-2.06,0-4.12-0.786-5.693-2.358c-3.144-3.144-3.144-8.241,0-11.384l46.374-46.374   c3.145-3.144,8.241-3.144,11.385,0c3.144,3.144,3.144,8.241,0,11.384l-46.373,46.374C275.44,61.688,273.379,62.473,271.32,62.473z"/>
	<path style="fill:#9B7E73;" d="M299.212,90.367c-2.06,0-4.12-0.786-5.693-2.358c-3.144-3.144-3.144-8.241,0-11.384l46.374-46.374   c3.145-3.144,8.241-3.144,11.385,0c3.144,3.144,3.144,8.241,0,11.384l-46.374,46.374C303.332,89.58,301.272,90.367,299.212,90.367z   "/>
	<path style="fill:#9B7E73;" d="M327.105,118.259c-2.061,0-4.12-0.786-5.693-2.358c-3.144-3.144-3.144-8.241,0-11.384l46.374-46.374   c3.146-3.145,8.242-3.144,11.385,0c3.144,3.144,3.144,8.241,0,11.384l-46.374,46.374   C331.226,117.473,329.165,118.259,327.105,118.259z"/>
	<path style="fill:#9B7E73;" d="M457.576,248.73c-2.06,0-4.12-0.787-5.693-2.358c-3.144-3.144-3.144-8.241,0-11.385l46.374-46.374   c3.145-3.144,8.241-3.144,11.385,0c3.144,3.144,3.144,8.241,0,11.384l-46.374,46.374   C461.696,247.943,459.635,248.73,457.576,248.73z"/>
	<path style="fill:#9B7E73;" d="M429.683,220.837c-2.06,0-4.12-0.786-5.693-2.358c-3.144-3.144-3.144-8.241,0-11.385l46.374-46.374   c3.145-3.144,8.241-3.144,11.385,0c3.144,3.144,3.144,8.241,0,11.384l-46.374,46.374   C433.804,220.05,431.743,220.837,429.683,220.837z"/>
	<path style="fill:#9B7E73;" d="M401.79,192.943c-2.06,0-4.12-0.787-5.693-2.358c-3.144-3.144-3.144-8.241,0-11.384l46.374-46.374   c3.145-3.144,8.241-3.144,11.385,0c3.144,3.144,3.144,8.241,0,11.384l-46.374,46.374C405.91,192.158,403.85,192.943,401.79,192.943   z"/>
</g>
<path style="fill:#E66A8C;" d="M44.939,467.06L44.939,467.06c59.918,59.918,157.064,59.918,216.982,0l200.453-200.453  c5.836-5.836,5.836-15.296,0-21.131l-65.38-65.38c-5.836-5.836-15.296-5.836-21.131,0L183.515,372.443  c-11.976,11.976-31.49,12.71-43.79,1.067c-12.762-12.08-12.97-32.224-0.626-44.568l192.804-192.804  c5.836-5.836,5.836-15.296,0-21.131l-65.38-65.38c-5.836-5.836-15.296-5.836-21.131,0L44.939,250.078  C-14.979,309.996-14.979,407.142,44.939,467.06L44.939,467.06z"/>
<path style="fill:#F7D64C;" d="M129.995,350.921H0.193c-2.073,41.775,12.841,84.235,44.746,116.139l0,0  c31.904,31.904,74.365,46.818,116.139,44.745v-129.8c-7.955,0-15.91-3.034-21.979-9.104  C133.029,366.83,129.995,358.876,129.995,350.921z"/>
<path style="opacity:0.1;enable-background:new    ;" d="M58.6,453.4L58.6,453.4c-59.918-59.918-59.918-157.064,0-216.982  l-13.661,13.661c-59.918,59.918-59.918,157.064,0,216.982l0,0l0,0c59.918,59.918,157.064,59.918,216.982,0l13.661-13.661  C215.664,513.318,118.518,513.318,58.6,453.4z"/>
<g>
	<path style="fill:#F7D64C;" d="M331.903,136.138l-93.235,93.235l-86.511-86.511l93.235-93.235c5.836-5.836,15.296-5.836,21.131,0   l65.38,65.38C337.738,120.841,337.738,130.303,331.903,136.138z"/>
	<path style="fill:#F7D64C;" d="M462.373,266.608l-93.235,93.235l-86.511-86.511l93.235-93.235c5.836-5.836,15.296-5.836,21.131,0   l65.38,65.38C468.208,251.313,468.208,260.773,462.373,266.608z"/>
</g>
<g>
	<path style="fill:#394049;" d="M113.318,306.51c-6.534,0-12.679-2.545-17.3-7.167c-3.144-3.144-3.144-8.241,0-11.384   c3.144-3.144,8.241-3.144,11.384,0c1.58,1.58,3.681,2.45,5.916,2.45s4.336-0.87,5.915-2.45c1.581-1.58,2.451-3.681,2.451-5.916   s-0.87-4.335-2.45-5.916c-1.571-1.571-2.358-3.632-2.358-5.692s0.786-4.12,2.358-5.692c3.144-3.144,8.241-3.144,11.384,0   c1.58,1.58,3.681,2.45,5.916,2.45c2.235,0,4.336-0.87,5.915-2.45c3.263-3.262,3.263-8.569,0.001-11.831   c-3.144-3.144-3.144-8.241,0-11.384c3.144-3.144,8.241-3.144,11.384,0c9.54,9.54,9.54,25.061,0,34.599   c-4.332,4.332-10.002,6.84-16.079,7.136c-0.296,6.077-2.805,11.747-7.136,16.08C125.998,303.965,119.853,306.51,113.318,306.51z"/>
	<path style="fill:#394049;" d="M53.967,314.756c-2.06,0-4.119-0.786-5.692-2.357l-4.931-4.93c-3.144-3.144-3.144-8.241,0-11.385   c3.144-3.144,8.24-3.144,11.385-0.001l4.931,4.93c3.144,3.144,3.144,8.241,0.001,11.385   C58.087,313.971,56.026,314.756,53.967,314.756z"/>
	<path style="fill:#394049;" d="M161.197,207.527c-2.06,0-4.12-0.786-5.693-2.358l-4.93-4.931   c-3.144-3.144-3.143-8.241,0.001-11.385c3.144-3.143,8.241-3.143,11.385,0.001l4.93,4.931c3.144,3.144,3.143,8.241-0.001,11.385   C165.317,206.74,163.256,207.527,161.197,207.527z"/>
</g>
<g style="opacity:0.2;">
	<path d="M114.444,465.932c-0.094,0-0.188-0.001-0.282-0.004l-24.098-0.831c-4.444-0.154-7.921-3.879-7.768-8.323   c0.153-4.445,3.917-7.91,8.323-7.768l24.098,0.831c4.444,0.154,7.921,3.879,7.768,8.323   C122.334,462.508,118.762,465.932,114.444,465.932z"/>
	<path d="M276.198,151.281c-4.318,0-7.891-3.424-8.039-7.773l-0.83-24.098c-0.154-4.444,3.325-8.169,7.768-8.323   c4.421-0.138,8.169,3.324,8.321,7.768l0.83,24.098c0.152,4.444-3.325,8.169-7.768,8.322   C276.386,151.278,276.292,151.281,276.198,151.281z"/>
	<path d="M385.9,307.504c-0.094,0-0.188-0.001-0.283-0.004l-24.098-0.831c-4.444-0.153-7.921-3.879-7.767-8.322   c0.153-4.444,3.855-7.913,8.322-7.768l24.098,0.831c4.444,0.153,7.921,3.879,7.767,8.322   C393.789,304.081,390.216,307.504,385.9,307.504z"/>
	<path d="M224.963,443.499c-0.624,0-1.255-0.073-1.887-0.225c-4.323-1.039-6.985-5.385-5.946-9.707l5.671-23.605   c1.039-4.323,5.387-6.987,9.707-5.946c4.323,1.039,6.985,5.385,5.946,9.707l-5.671,23.605   C231.897,441.018,228.599,443.499,224.963,443.499z"/>
	<path d="M377.666,260.495c-0.622,0-1.255-0.073-1.888-0.225c-4.322-1.039-6.984-5.386-5.945-9.708l5.672-23.605   c1.039-4.323,5.376-6.988,9.708-5.946c4.322,1.039,6.984,5.386,5.945,9.708l-5.672,23.605   C384.6,258.014,381.303,260.495,377.666,260.495z"/>
	<path d="M77.92,416.113c-0.624,0-1.255-0.073-1.888-0.225c-4.322-1.039-6.985-5.385-5.946-9.708l5.672-23.605   c1.039-4.323,5.389-6.986,9.708-5.946c4.322,1.039,6.985,5.385,5.946,9.708l-5.672,23.605   C84.853,413.632,81.555,416.113,77.92,416.113z"/>
	<path d="M202.723,152.098c-3.635,0-6.934-2.48-7.82-6.172c-1.039-4.322,1.624-8.669,5.946-9.707l23.605-5.671   c4.317-1.039,8.669,1.624,9.707,5.947c1.039,4.322-1.624,8.669-5.946,9.707l-23.605,5.671   C203.979,152.025,203.346,152.098,202.723,152.098z"/>
	<path d="M256.54,363.676c-3.636,0-6.934-2.48-7.821-6.172c-1.039-4.323,1.624-8.669,5.946-9.708l23.604-5.671   c4.322-1.042,8.668,1.623,9.707,5.946c1.039,4.323-1.624,8.669-5.946,9.708l-23.604,5.671   C257.795,363.603,257.163,363.676,256.54,363.676z"/>
</g>
<g>
</g>
<g>
</g>
<g>
</g>
<g>
</g>
<g>
</g>
<g>
</g>
<g>
</g>
<g>
</g>
<g>
</g>
<g>
</g>
<g>
</g>
<g>
</g>
<g>
</g>
<g>
</g>
<g>
</g>
</svg>
