<?xml version="1.0" encoding="iso-8859-1"?>
<!-- Generator: Adobe Illustrator 19.0.0, SVG Export Plug-In . SVG Version: 6.00 Build 0)  -->
<svg xmlns="http://www.w3.org/2000/svg" xmlns:xlink="http://www.w3.org/1999/xlink" version="1.1" id="Layer_1" x="0px" y="0px" viewBox="0 0 512 512" style="enable-background:new 0 0 512 512;" xml:space="preserve">
<path style="fill:#F7C600;" d="M204.401,384.145h36.342c4.176,0,6.439,4.89,3.735,8.072l-100.61,118.467  c-2.448,2.882-7.131,0.653-6.438-3.064l14.241-76.337h-36.344c-4.176,0-6.439-4.89-3.735-8.072l100.611-118.468  c2.448-2.882,7.131-0.653,6.438,3.064L204.401,384.145z"/>
<path style="fill:#F7D64C;" d="M204.401,384.145h36.342c4.176,0,6.439,4.89,3.735,8.072l-100.61,118.467  c-2.448,2.882-7.131,0.653-6.438-3.064l14.241-76.337h-36.344c-4.176,0-6.439-4.89-3.735-8.072l100.611-118.468  c2.448-2.882,7.131-0.653,6.438,3.064L204.401,384.145z"/>
<path style="opacity:0.1;enable-background:new    ;" d="M212.203,304.742l-44.059,51.878h41.391l9.106-48.814  C219.334,304.089,214.651,301.86,212.203,304.742z"/>
<path style="opacity:0.1;enable-background:new    ;" d="M142.689,503.558l14.176-75.985c0.175-0.94-0.546-1.807-1.501-1.807h-35.2  c-4.047,0-6.327-4.504-4.173-7.736l-4.4,5.18c-2.704,3.184-0.441,8.072,3.735,8.072h36.344L137.43,507.62  c-0.694,3.718,3.99,5.946,6.438,3.064l2.272-2.675C144.094,507.85,142.228,506.027,142.689,503.558z"/>
<path style="opacity:0.3;fill:#FFFFFF;enable-background:new    ;" d="M240.743,384.145h-20.011  c2.254,7.376,9.113,12.74,17.227,12.74c0.929,0,1.84-0.07,2.73-0.206l3.79-4.462C247.182,389.035,244.919,384.145,240.743,384.145z"/>
<path style="fill:#F7C600;" d="M354.131,368.488h24.019c2.761,0,4.256,3.232,2.469,5.336l-66.497,78.298  c-1.618,1.905-4.713,0.432-4.255-2.025l9.413-50.453H295.26c-2.761,0-4.255-3.232-2.469-5.336l66.497-78.299  c1.618-1.905,4.713-0.432,4.255,2.025L354.131,368.488z"/>
<path style="fill:#F7D64C;" d="M354.131,368.488h24.019c2.761,0,4.256,3.232,2.469,5.336l-66.497,78.298  c-1.618,1.905-4.713,0.432-4.255-2.025l9.413-50.453H295.26c-2.761,0-4.255-3.232-2.469-5.336l66.497-78.299  c1.618-1.905,4.713-0.432,4.255,2.025L354.131,368.488z"/>
<path style="opacity:0.1;enable-background:new    ;" d="M359.287,316.009l-34.491,40.611h31.547l7.197-38.586  C364,315.578,360.906,314.105,359.287,316.009z"/>
<path style="opacity:0.1;enable-background:new    ;" d="M313.344,447.412l9.369-50.221c0.116-0.621-0.361-1.194-0.992-1.194  h-23.264c-2.675,0-4.181-2.977-2.757-5.113l-2.907,3.424c-1.787,2.104-0.292,5.336,2.469,5.336h24.022l-9.413,50.453  c-0.458,2.457,2.637,3.93,4.255,2.025l1.502-1.768C314.272,450.249,313.04,449.044,313.344,447.412z"/>
<path style="opacity:0.3;fill:#FFFFFF;enable-background:new    ;" d="M378.151,368.488h-13.226  c1.49,4.874,6.023,8.421,11.385,8.421c0.614,0,1.216-0.046,1.805-0.136l2.505-2.949C382.406,371.72,380.911,368.488,378.151,368.488  z"/>
<path style="fill:#D5EBEF;" d="M456.803,143.055c0.544-3.581,0.828-7.246,0.828-10.979c0-40.047-32.465-72.511-72.511-72.511  c-8.442,0-16.538,1.458-24.073,4.109C339.173,25.623,298.119,0,251.081,0c-56.38,0-104.152,36.815-120.614,87.713  C60.975,88.308,4.824,144.816,4.824,214.449c0,70.002,56.747,126.75,126.75,126.75h268.377c59.218,0,107.224-48.006,107.224-107.224  C507.174,195.64,487.055,162.011,456.803,143.055z"/>
<path style="fill:#E66A8C;" d="M277.374,235.391c-11.805,0-21.374-9.57-21.374-21.375c0,11.805-9.57,21.375-21.375,21.375  c-4.688,0-9.01-1.527-12.534-4.086v13.331c0,18.728,15.181,33.908,33.908,33.908s33.908-15.181,33.908-33.908v-13.331  C286.384,233.863,282.062,235.391,277.374,235.391z"/>
<g>
	<path style="fill:#394049;" d="M277.374,243.613c-8.395,0-15.983-3.513-21.375-9.144c-5.392,5.633-12.981,9.144-21.375,9.144   c-16.32,0-29.597-13.278-29.597-29.598c0-4.541,3.681-8.222,8.222-8.222c4.541,0,8.222,3.681,8.222,8.222   c0,7.252,5.899,13.153,13.152,13.153c7.252,0,13.153-5.9,13.153-13.153c0-4.541,3.681-8.222,8.222-8.222s8.222,3.681,8.222,8.222   c0,7.252,5.9,13.153,13.153,13.153c7.252,0,13.152-5.9,13.152-13.153c0-4.541,3.681-8.222,8.222-8.222   c4.541,0,8.222,3.681,8.222,8.222C306.971,230.335,293.694,243.613,277.374,243.613z"/>
	<path style="fill:#394049;" d="M157.273,190.301c-4.541,0-8.222-3.681-8.222-8.222V173c0-4.541,3.681-8.222,8.222-8.222   s8.222,3.681,8.222,8.222v9.079C165.496,186.619,161.814,190.301,157.273,190.301z"/>
	<path style="fill:#394049;" d="M354.726,190.301c-4.541,0-8.222-3.681-8.222-8.222V173c0-4.541,3.681-8.222,8.222-8.222   s8.222,3.681,8.222,8.222v9.079C362.948,186.619,359.267,190.301,354.726,190.301z"/>
	<path style="fill:#394049;" d="M168.834,181.223c-1.38,0-2.78-0.349-4.065-1.081l-22.475-12.816   c-3.945-2.25-5.319-7.271-3.07-11.215c2.25-3.943,7.271-5.318,11.215-3.07l22.475,12.816c3.945,2.25,5.319,7.271,3.07,11.215   C174.467,179.732,171.691,181.223,168.834,181.223z"/>
	<path style="fill:#394049;" d="M343.165,181.223c-2.857,0-5.634-1.491-7.15-4.151c-2.25-3.945-0.875-8.967,3.07-11.215   l22.475-12.816c3.946-2.25,8.967-0.875,11.215,3.07c2.25,3.945,0.875,8.967-3.07,11.215l-22.475,12.816   C345.945,180.876,344.546,181.223,343.165,181.223z"/>
	<path style="fill:#394049;" d="M256,286.766c-23.231,0-42.131-18.9-42.131-42.131v-13.331h16.445v13.331   c0,14.163,11.522,25.686,25.686,25.686s25.686-11.522,25.686-25.686v-13.331h16.445v13.331   C298.131,267.866,279.23,286.766,256,286.766z"/>
</g>
<path style="opacity:0.1;enable-background:new    ;" d="M424.364,316.783H155.987c-70.002,0-126.75-56.748-126.75-126.75  c0-18.737,1.892-38.729,6.007-57.957c-18.963,22.154-30.42,50.923-30.42,82.373c0,70.002,56.747,126.75,126.75,126.75h268.377  c35.84,0,67.569-17.588,87.039-44.6C469.37,309.297,447.742,316.783,424.364,316.783z"/>
<g>
</g>
<g>
</g>
<g>
</g>
<g>
</g>
<g>
</g>
<g>
</g>
<g>
</g>
<g>
</g>
<g>
</g>
<g>
</g>
<g>
</g>
<g>
</g>
<g>
</g>
<g>
</g>
<g>
</g>
</svg>
