<?xml version="1.0" encoding="iso-8859-1"?>
<!-- Generator: Adobe Illustrator 19.0.0, SVG Export Plug-In . SVG Version: 6.00 Build 0)  -->
<svg xmlns="http://www.w3.org/2000/svg" xmlns:xlink="http://www.w3.org/1999/xlink" version="1.1" id="Layer_1" x="0px" y="0px" viewBox="0 0 511.999 511.999" style="enable-background:new 0 0 511.999 511.999;" xml:space="preserve">
<path style="fill:#D5EBEF;" d="M490.724,248.873c0.23-1.512,0.349-3.06,0.349-4.637c0-16.916-13.713-30.628-30.628-30.628  c-3.565,0-6.986,0.616-10.168,1.736c-9.239-16.072-26.58-26.895-46.448-26.895c-23.814,0-43.993,15.55-50.946,37.049  c-29.352,0.251-53.069,24.12-53.069,53.532c0,29.567,23.97,53.537,53.537,53.537h113.358c25.013,0,45.289-20.277,45.289-45.289  C512,271.084,503.501,256.88,490.724,248.873z"/>
<path style="opacity:0.1;enable-background:new    ;" d="M477.022,322.253H363.664c-29.567,0-53.537-23.97-53.537-53.537  c0-7.915,0.799-16.359,2.536-24.48c-8.01,9.357-12.849,21.509-12.849,34.792c0,29.567,23.97,53.537,53.537,53.537h113.358  c15.138,0,28.54-7.429,36.763-18.838C496.032,319.091,486.897,322.253,477.022,322.253z"/>
<circle style="fill:#F2E7BF;" cx="257.517" cy="222.246" r="169.167"/>
<path style="opacity:0.05;enable-background:new    ;" d="M208.971,60.161c-42.085,12.587-77.286,41.108-98.595,78.569  c8.642,3.702,18.159,5.754,28.155,5.754c39.529,0,71.573-32.045,71.573-71.573C210.104,68.558,209.715,64.298,208.971,60.161z"/>
<circle style="opacity:0.05;enable-background:new    ;" cx="325.3" cy="293.884" r="37.111"/>
<circle style="opacity:0.05;enable-background:new    ;" cx="193.061" cy="280.751" r="66.632"/>
<path style="opacity:0.05;enable-background:new    ;" d="M273.831,375.096c-93.428,0-169.167-75.739-169.167-169.167  c0-42.562,15.723-81.447,41.67-111.18c-35.533,31.011-57.987,76.629-57.987,127.496c0,93.428,75.739,169.167,169.167,169.167  c50.867,0,96.484-22.454,127.496-57.987C355.279,359.373,316.393,375.096,273.831,375.096z"/>
<g>
	<path style="fill:#394049;" d="M271.644,205.977c-5.353,0-10.272-1.891-14.127-5.039c-3.854,3.148-8.773,5.039-14.127,5.039   c-12.33,0-22.361-10.032-22.361-22.362c0-4.548,3.687-8.235,8.235-8.235s8.235,3.687,8.235,8.235c0,3.248,2.642,5.891,5.89,5.891   c3.248,0,5.891-2.643,5.891-5.891c0-4.548,3.687-8.235,8.235-8.235s8.235,3.687,8.235,8.235c0,3.248,2.643,5.891,5.891,5.891   c3.248,0,5.89-2.643,5.89-5.891c0-4.548,3.687-8.235,8.235-8.235s8.235,3.687,8.235,8.235   C294.004,195.945,283.974,205.977,271.644,205.977z"/>
	<path style="fill:#394049;" d="M337.817,172.111c-4.548,0-8.235-3.687-8.235-8.235c0-0.732-0.596-1.328-1.328-1.328   s-1.328,0.595-1.328,1.328c0,4.548-3.687,8.235-8.235,8.235s-8.235-3.687-8.235-8.235c0-9.814,7.984-17.798,17.798-17.798   c9.814,0,17.798,7.984,17.798,17.798C346.052,168.424,342.365,172.111,337.817,172.111z"/>
	<path style="fill:#394049;" d="M196.343,172.111c-4.548,0-8.235-3.687-8.235-8.235c0-0.732-0.595-1.328-1.328-1.328   c-0.732,0-1.326,0.595-1.326,1.328c0,4.548-3.687,8.235-8.235,8.235s-8.235-3.687-8.235-8.235c0-9.814,7.984-17.798,17.797-17.798   c9.813,0,17.798,7.984,17.798,17.798C204.578,168.424,200.891,172.111,196.343,172.111z"/>
</g>
<path style="fill:#D5EBEF;" d="M334.058,312.472c0.402-2.646,0.612-5.355,0.612-8.114c0-29.599-23.995-53.593-53.593-53.593  c-6.239,0-12.224,1.077-17.793,3.037c-16.166-28.124-46.509-47.062-81.275-47.062c-41.67,0-76.979,27.21-89.146,64.828  C41.501,272.009,0,313.774,0,365.239c0,51.738,41.943,93.681,93.681,93.681h198.358c43.769,0,79.249-35.482,79.249-79.249  C371.288,351.337,356.417,326.482,334.058,312.472z"/>
<path style="opacity:0.1;enable-background:new    ;" d="M310.083,440.875H111.725c-51.738,0-93.681-41.943-93.681-93.681  c0-13.849,1.399-28.625,4.439-42.836C8.467,320.73,0,341.994,0,365.239c0,51.738,41.943,93.681,93.681,93.681h198.358  c26.49,0,49.94-13,64.33-32.964C343.346,435.341,327.362,440.875,310.083,440.875z"/>
<g>
	<path style="fill:#394049;" d="M201.442,396.65c-6.043,0-11.571-2.241-15.798-5.936c-4.228,3.695-9.756,5.936-15.798,5.936   c-13.252,0-24.033-10.781-24.033-24.033c0-4.548,3.687-8.235,8.235-8.235s8.235,3.687,8.235,8.235c0,4.17,3.392,7.562,7.562,7.562   c4.17,0,7.562-3.392,7.562-7.562c0-4.548,3.687-8.235,8.235-8.235c4.548,0,8.235,3.687,8.235,8.235c0,4.17,3.392,7.562,7.562,7.562   c4.169,0,7.562-3.392,7.562-7.562c0-4.548,3.687-8.235,8.235-8.235s8.235,3.687,8.235,8.235   C225.476,385.869,214.694,396.65,201.442,396.65z"/>
	<path style="fill:#394049;" d="M112.675,358.591c-4.548,0-8.235-3.687-8.235-8.235v-9.039c0-4.548,3.687-8.235,8.235-8.235   c4.548,0,8.235,3.687,8.235,8.235v9.039C120.911,354.904,117.223,358.591,112.675,358.591z"/>
	<path style="fill:#394049;" d="M258.613,358.591c-4.548,0-8.235-3.687-8.235-8.235v-9.039c0-4.548,3.687-8.235,8.235-8.235   c4.548,0,8.235,3.687,8.235,8.235v9.039C266.848,354.904,263.161,358.591,258.613,358.591z"/>
</g>
<g>
</g>
<g>
</g>
<g>
</g>
<g>
</g>
<g>
</g>
<g>
</g>
<g>
</g>
<g>
</g>
<g>
</g>
<g>
</g>
<g>
</g>
<g>
</g>
<g>
</g>
<g>
</g>
<g>
</g>
</svg>
