<?xml version="1.0" encoding="iso-8859-1"?>
<!-- Generator: Adobe Illustrator 19.0.0, SVG Export Plug-In . SVG Version: 6.00 Build 0)  -->
<svg xmlns="http://www.w3.org/2000/svg" xmlns:xlink="http://www.w3.org/1999/xlink" version="1.1" id="Layer_1" x="0px" y="0px" viewBox="0 0 512 512" style="enable-background:new 0 0 512 512;" xml:space="preserve">
<g>
	<path style="fill:#394049;" d="M29.023,111.181c-4.07,0-7.6-3.026-8.129-7.169c-0.573-4.495,2.606-8.603,7.101-9.177l103.075-13.14   c4.483-0.573,8.603,2.606,9.177,7.102c0.573,4.495-2.606,8.603-7.101,9.177l-103.075,13.14   C29.72,111.159,29.37,111.181,29.023,111.181z"/>
	<path style="fill:#394049;" d="M132.12,221.873c-0.346,0-0.696-0.022-1.048-0.067l-103.075-13.14   c-4.495-0.573-7.676-4.681-7.101-9.177c0.572-4.495,4.683-7.678,9.177-7.102l103.075,13.14c4.495,0.573,7.676,4.681,7.101,9.177   C139.72,218.848,136.188,221.873,132.12,221.873z"/>
</g>
<path style="fill:#5F666F;" d="M20.904,12.322L20.904,12.322C9.359,12.322,0,21.682,0,33.227v460.768  c0,3.138,2.544,5.681,5.681,5.681h30.445c3.138,0,5.681-2.544,5.681-5.681V33.227C41.809,21.682,32.45,12.322,20.904,12.322z"/>
<path style="fill:#EC8560;" d="M493.639,207.061l-352.62,24.149c-11.006,0.754-20.348-7.97-20.348-19.002V91.293  c0-11.031,9.342-19.756,20.348-19.002l352.62,24.149c10.337,0.709,18.361,9.3,18.361,19.662v71.297  C512,197.762,503.977,206.353,493.639,207.061z"/>
<g>
	<polygon style="fill:#DBE7F2;" points="251.114,79.831 251.114,223.67 381.557,214.738 381.557,88.765  "/>
	<rect y="66.975" style="fill:#DBE7F2;" width="41.813" height="169.551"/>
</g>
<path style="opacity:0.3;enable-background:new    ;" d="M11.697,493.662c-3.138,0-5.682-2.544-5.682-5.681V27.212  c0-4.234,1.268-8.167,3.431-11.459C3.76,19.489,0,25.915,0,33.227v460.768c0,3.138,2.544,5.682,5.681,5.682h30.445  c3.138,0,5.681-2.544,5.681-5.682v-0.334H11.697z"/>
<g>
	<path style="fill:#394049;" d="M337.665,192.727c-8.376,0-15.949-3.505-21.329-9.125c-5.38,5.621-12.953,9.125-21.329,9.125   c-16.287,0-29.535-13.25-29.535-29.534c0-4.531,3.673-8.205,8.205-8.205c4.533,0,8.205,3.674,8.205,8.205   c0,7.237,5.888,13.124,13.125,13.124c7.236,0,13.124-5.888,13.124-13.124c0-4.531,3.673-8.205,8.205-8.205   c4.533,0,8.205,3.674,8.205,8.205c0,7.237,5.888,13.124,13.124,13.124c7.237,0,13.125-5.888,13.125-13.124   c0-4.531,3.673-8.205,8.205-8.205s8.205,3.674,8.205,8.205C367.2,179.477,353.951,192.727,337.665,192.727z"/>
	<path style="fill:#394049;" d="M217.818,139.528c-4.533,0-8.205-3.674-8.205-8.205v-9.06c0-4.531,3.673-8.205,8.205-8.205   s8.205,3.674,8.205,8.205v9.06C226.023,135.855,222.349,139.528,217.818,139.528z"/>
	<path style="fill:#394049;" d="M414.853,139.528c-4.531,0-8.205-3.674-8.205-8.205v-9.06c0-4.531,3.674-8.205,8.205-8.205   c4.533,0,8.205,3.674,8.205,8.205v9.06C423.059,135.855,419.386,139.528,414.853,139.528z"/>
</g>
<path style="opacity:0.1;enable-background:new    ;" d="M507.859,191.748l-352.62,24.149c-11.006,0.754-20.348-7.971-20.348-19.002  V75.979c0-1.09,0.116-2.148,0.291-3.185c-8.278,2.026-14.51,9.491-14.51,18.499v120.915c0,11.031,9.342,19.756,20.348,19.002  l352.62-24.149c9.072-0.621,16.358-7.315,18.008-15.946C510.428,191.443,509.162,191.658,507.859,191.748z"/>
<path style="opacity:0.2;fill:#FFFFFF;enable-background:new    ;" d="M23.028,12.43c-5.339,7.862-8.46,17.35-8.46,27.568  c0,19.267,11.097,35.934,27.241,43.985V33.227C41.809,22.398,33.575,13.494,23.028,12.43z"/>
<g>
</g>
<g>
</g>
<g>
</g>
<g>
</g>
<g>
</g>
<g>
</g>
<g>
</g>
<g>
</g>
<g>
</g>
<g>
</g>
<g>
</g>
<g>
</g>
<g>
</g>
<g>
</g>
<g>
</g>
</svg>
