<?xml version="1.0" encoding="iso-8859-1"?>
<!-- Generator: Adobe Illustrator 19.0.0, SVG Export Plug-In . SVG Version: 6.00 Build 0)  -->
<svg xmlns="http://www.w3.org/2000/svg" xmlns:xlink="http://www.w3.org/1999/xlink" version="1.1" id="Layer_1" x="0px" y="0px" viewBox="0 0 512 512" style="enable-background:new 0 0 512 512;" xml:space="preserve">
<path style="fill:#D5EBEF;" d="M472.887,83.808c0.227-1.493,0.345-3.022,0.345-4.578c0-16.7-13.537-30.237-30.237-30.237  c-3.52,0-6.897,0.607-10.038,1.714c-9.121-15.867-26.24-26.553-45.855-26.553c-23.51,0-43.431,15.352-50.296,36.576  c-28.978,0.249-52.393,23.813-52.393,52.849c0,29.191,23.663,52.854,52.854,52.854H449.18c24.694,0,44.713-20.019,44.713-44.713  C493.891,105.736,485.502,91.713,472.887,83.808z"/>
<path style="opacity:0.1;enable-background:new    ;" d="M459.361,156.254H347.447c-29.191,0-52.854-23.663-52.854-52.854  c0-7.814,0.789-16.15,2.504-24.168c-7.908,9.238-12.685,21.235-12.685,34.349c0,29.191,23.663,52.854,52.854,52.854H449.18  c14.945,0,28.177-7.334,36.295-18.599C478.127,153.131,469.108,156.254,459.361,156.254z"/>
<circle style="fill:#F2DFA6;" cx="255.999" cy="271.383" r="176.667"/>
<path style="opacity:0.05;enable-background:new    ;" d="M205.302,102.107c-43.952,13.145-80.714,42.932-102.969,82.055  c9.025,3.866,18.964,6.009,29.405,6.009c41.282,0,74.748-33.466,74.748-74.748C206.486,110.879,206.08,106.429,205.302,102.107z"/>
<circle style="opacity:0.05;enable-background:new    ;" cx="326.8" cy="346.208" r="38.761"/>
<circle style="opacity:0.05;enable-background:new    ;" cx="188.685" cy="332.48" r="69.584"/>
<path style="opacity:0.05;enable-background:new    ;" d="M273.041,431.014c-97.573,0-176.672-79.098-176.672-176.672  c0-44.45,16.42-85.061,43.519-116.111c-37.109,32.387-60.559,80.029-60.559,133.152c0,97.573,79.098,176.672,176.672,176.672  c53.123,0,100.765-23.451,133.152-60.559C358.101,414.594,317.49,431.014,273.041,431.014z"/>
<g>
	<path style="opacity:0.2;fill:#FFFFFF;enable-background:new    ;" d="M270.353,95.294c8.417,51.442,53.064,90.701,106.888,90.701   c10.733,0,21.098-1.569,30.886-4.476C379.663,133.438,329.063,100.016,270.353,95.294z"/>
	<path style="opacity:0.2;fill:#FFFFFF;enable-background:new    ;" d="M429.447,237.679c-21.589,6.83-37.24,27.018-37.24,50.866   c0,20.444,11.506,38.193,28.389,47.149c7.793-19.93,12.076-41.62,12.076-64.312C432.672,259.855,431.555,248.591,429.447,237.679z"/>
</g>
<g>
	<path style="fill:#394049;" d="M242.395,266.242c-11.188,0.001-21.018-8.206-22.713-19.597c-0.669-4.492,2.431-8.677,6.923-9.344   c4.491-0.668,8.675,2.431,9.343,6.923c0.53,3.561,3.861,6.026,7.42,5.498c3.56-0.53,6.026-3.857,5.498-7.42   c-0.061-0.408-0.091-0.814-0.091-1.214c-0.003-4.01,2.931-7.523,7.015-8.131c4.478-0.672,8.675,2.432,9.342,6.925   c0.257,1.725,1.169,3.246,2.571,4.284c1.4,1.038,3.124,1.468,4.848,1.213c1.725-0.257,3.247-1.17,4.285-2.57   c1.037-1.401,1.468-3.123,1.212-4.848c-0.669-4.492,2.431-8.677,6.923-9.344c4.489-0.671,8.675,2.431,9.344,6.923   c0.904,6.071-0.612,12.131-4.265,17.061c-3.654,4.931-9.01,8.144-15.08,9.047c-5.404,0.804-10.795-0.307-15.39-3.136   c-3.456,3.9-8.247,6.652-13.793,7.478C244.649,266.16,243.514,266.242,242.395,266.242z"/>
	<path style="fill:#394049;" d="M186.346,237.543c-4.007,0-7.516-2.932-8.123-7.015l-0.922-6.198   c-0.668-4.492,2.432-8.677,6.923-9.344c4.49-0.67,8.675,2.432,9.343,6.924l0.922,6.198c0.668,4.492-2.432,8.677-6.923,9.344   C187.157,237.513,186.749,237.543,186.346,237.543z"/>
	<path style="fill:#394049;" d="M321.144,217.488c-4.007,0-7.515-2.932-8.123-7.015l-0.922-6.197   c-0.669-4.492,2.432-8.677,6.923-9.344c4.493-0.67,8.675,2.432,9.343,6.924l0.922,6.197c0.669,4.492-2.432,8.677-6.923,9.344   C321.954,217.458,321.546,217.488,321.144,217.488z"/>
</g>
<path style="fill:#83D8DD;" d="M408.127,307.445c-40.497,24.928-72.767,34.639-100.927,9.643l0,0  c-28.211-32.077-73.143-32.349-102.4,0s-72.96,11.531-102.401-15.753c-23.912-22.162-62.201-24.547-90.188-8.709  C4.673,296.892,0,304.874,0,313.535v146.246c0,15.499,12.565,28.064,28.064,28.064h455.873c15.499,0,28.064-12.565,28.064-28.064  V329.29c0-8.662-4.673-16.645-12.212-20.91C471.801,292.542,446.547,283.796,408.127,307.445z"/>
<path style="opacity:0.1;fill:#FFFFFF;enable-background:new    ;" d="M429.705,296.965c-6.753,2.341-13.899,5.754-21.577,10.48  c-40.497,24.928-72.767,34.639-100.927,9.643l0,0c-28.211-32.077-73.143-32.349-102.4,0s-72.96,11.531-102.401-15.753  c-3.907-3.621-8.202-6.703-12.769-9.275c-24.389,15.224-38.773,33.926-38.773,54.144c0,51.11,91.844,92.542,205.138,92.542  s205.138-41.432,205.138-92.542C461.136,328.107,449.609,311.226,429.705,296.965z"/>
<g style="opacity:0.2;">
	<path d="M455.165,447.598c-1.942,0-3.89-0.683-5.456-2.073c-21.802-19.351-69.681-19.351-91.483,0   c-3.397,3.015-8.595,2.705-11.61-0.691c-3.014-3.397-2.705-8.594,0.692-11.61c28.064-24.912,85.255-24.912,113.318,0   c3.397,3.015,3.706,8.213,0.692,11.61C459.694,446.664,457.434,447.598,455.165,447.598z"/>
	<path d="M113.249,452.104c-21.315,0-42.625-6.227-56.658-18.684c-3.398-3.015-3.706-8.213-0.692-11.61   c3.015-3.397,8.213-3.706,11.61-0.691c21.803,19.353,69.679,19.353,91.482,0c3.396-3.015,8.594-2.706,11.61,0.691   c3.014,3.397,2.705,8.594-0.692,11.61C155.878,445.875,134.56,452.104,113.249,452.104z"/>
	<path d="M285.441,406.332c-21.314,0-42.627-6.228-56.659-18.684c-21.804-19.352-69.679-19.352-91.483,0   c-3.397,3.015-8.595,2.705-11.61-0.691c-3.014-3.397-2.705-8.594,0.692-11.61c28.064-24.912,85.255-24.912,113.318,0   c21.804,19.353,69.679,19.353,91.483,0c3.396-3.015,8.593-2.705,11.61,0.691c3.014,3.397,2.705,8.594-0.692,11.61   C328.068,400.104,306.754,406.332,285.441,406.332z"/>
</g>
<g>
</g>
<g>
</g>
<g>
</g>
<g>
</g>
<g>
</g>
<g>
</g>
<g>
</g>
<g>
</g>
<g>
</g>
<g>
</g>
<g>
</g>
<g>
</g>
<g>
</g>
<g>
</g>
<g>
</g>
</svg>
