<?xml version="1.0" encoding="iso-8859-1"?>
<!-- Generator: Adobe Illustrator 19.0.0, SVG Export Plug-In . SVG Version: 6.00 Build 0)  -->
<svg xmlns="http://www.w3.org/2000/svg" xmlns:xlink="http://www.w3.org/1999/xlink" version="1.1" id="Layer_1" x="0px" y="0px" viewBox="0 0 512 512" style="enable-background:new 0 0 512 512;" xml:space="preserve">
<path style="fill:#E66A8C;" d="M374.658,48.927L374.658,48.927c-28.684,0-54.747,11.214-74.05,29.495  c4.4-8.842,10.209-17.012,17.323-24.128l0,0c12.42-12.42,12.42-32.559,0-44.979s-32.559-12.42-44.979,0  c-11.472,11.472-20.264,25.122-25.977,39.978c-4.76-10.347-11.331-19.881-19.539-28.09c-15.851-15.851-41.552-15.851-57.403,0  s-15.851,41.552,0,57.403l0,0c3.485,3.485,6.626,7.25,9.442,11.218c-8.805-3.423-18.332-5.387-28.294-5.607  c-0.567-0.028-1.14-0.041-1.714-0.044c-0.054,0-0.107-0.004-0.161-0.004l0,0c-20.123,0-36.437,16.313-36.437,36.437  s16.313,36.437,36.437,36.437c21.527,0,38.979,17.452,38.979,38.979v4.178h135.986v-6.684c0-27.828,22.559-50.387,50.387-50.387l0,0  c26.013,0,47.101-21.088,47.101-47.101S400.671,48.927,374.658,48.927z"/>
<path style="opacity:0.2;fill:#FFFFFF;enable-background:new    ;" d="M290.19,0.444c-7.662,5.568-12.648,14.595-12.648,24.791  c0,16.916,13.714,30.63,30.631,30.63c3.429,0,6.721-0.572,9.798-1.61c12.381-12.424,12.369-32.531-0.038-44.938  C310.38,1.764,299.979-1.187,290.19,0.444z M188.686,10.581c-0.538,2.39-0.831,4.872-0.831,7.423  c0,18.591,15.071,33.662,33.662,33.662c8.58,0,16.407-3.215,22.351-8.5c-4.379-7.989-9.872-15.404-16.431-21.962  C216.934,10.701,202.107,7.165,188.686,10.581z M374.658,48.927L374.658,48.927c-6.217,0-12.31,0.529-18.239,1.54  c-7.282,7.496-11.774,17.718-11.774,28.995c0,22.989,18.636,41.624,41.624,41.624c14.773,0,27.74-7.704,35.128-19.306  c0.23-1.886,0.363-3.803,0.363-5.752C421.759,70.016,400.671,48.927,374.658,48.927z"/>
<path style="opacity:0.1;enable-background:new    ;" d="M198.494,183.315c-0.001-0.014-0.002-0.027-0.004-0.041  c-1.996-19.655-18.596-34.994-38.777-34.994c-20.123,0-36.437-16.313-36.437-36.437c0-8.722,3.068-16.725,8.18-22.999  c-11.091,6.247-18.586,18.125-18.586,31.762c0,20.123,16.313,36.437,36.437,36.437c21.527,0,38.979,17.452,38.979,38.979v4.178  h135.986v-6.684c0-0.698,0.024-1.389,0.053-2.079H207.307C202.704,191.437,198.919,187.897,198.494,183.315z"/>
<path style="fill:#9B7E73;" d="M335.918,200.2H176.082c-10.86,0-20.83,6.004-25.909,15.603L5.96,488.309  C0.272,499.059,8.064,512,20.226,512h471.548c12.162,0,19.956-12.941,14.266-23.691L361.827,215.803  C356.748,206.205,346.778,200.2,335.918,200.2z"/>
<path style="opacity:0.1;enable-background:new    ;" d="M47.246,495.358c-12.162,0-19.956-12.941-14.266-23.691l143.662-271.466  h-0.56c-10.86,0-20.83,6.004-25.909,15.603L5.96,488.309C0.272,499.059,8.064,512,20.226,512h471.548  c9.562,0,16.418-7.998,16.151-16.642L47.246,495.358L47.246,495.358z"/>
<circle style="fill:#E66A8C;" cx="256" cy="406.681" r="27.125"/>
<g>
	<path style="fill:#394049;" d="M157.36,371.159c-4.537,0-8.215-3.678-8.215-8.215v-9.071c0-4.537,3.678-8.215,8.215-8.215   s8.215,3.678,8.215,8.215v9.071C165.575,367.481,161.897,371.159,157.36,371.159z"/>
	<path style="fill:#394049;" d="M354.64,371.159c-4.538,0-8.215-3.678-8.215-8.215v-9.071c0-4.537,3.677-8.215,8.215-8.215   s8.215,3.678,8.215,8.215v9.071C362.856,367.481,359.178,371.159,354.64,371.159z"/>
	<path style="fill:#394049;" d="M255.999,442.023c-19.487,0-35.34-15.853-35.34-35.34s15.853-35.34,35.34-35.34   s35.34,15.853,35.34,35.34S275.486,442.023,255.999,442.023z M255.999,387.772c-10.427,0-18.91,8.483-18.91,18.909   s8.483,18.909,18.91,18.909c10.427,0,18.909-8.483,18.909-18.909C274.909,396.255,266.426,387.772,255.999,387.772z"/>
	<path style="fill:#394049;" d="M136.317,343.065c-1.397,0-2.812-0.357-4.108-1.106c-3.927-2.273-5.268-7.298-2.995-11.225   c5.797-10.017,16.582-16.24,28.146-16.24c11.561,0,22.343,6.221,28.141,16.233c2.273,3.927,0.933,8.953-2.994,11.227   c-3.925,2.272-8.953,0.934-11.227-2.994c-2.87-4.955-8.204-8.035-13.921-8.035c-5.719,0-11.055,3.08-13.924,8.039   C141.913,341.594,139.152,343.064,136.317,343.065z"/>
	<path style="fill:#394049;" d="M375.682,343.065c-2.836,0-5.594-1.47-7.118-4.102c-2.87-4.959-8.205-8.039-13.924-8.039   c-5.718,0-11.053,3.079-13.923,8.036c-2.273,3.927-7.298,5.268-11.227,2.993c-3.926-2.274-5.267-7.3-2.991-11.227   c5.798-10.013,16.582-16.232,28.141-16.232c11.564,0,22.348,6.223,28.145,16.24c2.273,3.927,0.932,8.953-2.995,11.225   C378.495,342.708,377.08,343.064,375.682,343.065z"/>
</g>
<g style="opacity:0.2;">
	<path d="M165.821,303.285c-0.575,0-1.159-0.06-1.743-0.186c-4.435-0.958-7.254-5.33-6.295-9.765   c2.936-13.585,10.867-22.141,17.24-29.015c3.771-4.068,7.029-7.583,8.158-10.937c1.448-4.302,6.111-6.612,10.407-5.166   c4.3,1.447,6.614,6.107,5.166,10.407c-2.254,6.698-7.047,11.868-11.681,16.868c-5.783,6.238-11.245,12.13-13.23,21.316   C173.011,300.654,169.607,303.285,165.821,303.285z"/>
	<path d="M424.399,430.778c-3.965,0-7.455-2.876-8.101-6.916c-0.981-6.122-5.594-10.923-10.478-16.006   c-3.946-4.107-8.025-8.352-10.432-13.656c-1.875-4.132-0.047-9.001,4.085-10.877c4.135-1.875,9.002-0.046,10.877,4.085   c1.245,2.742,4.195,5.813,7.32,9.064c5.819,6.055,13.059,13.59,14.854,24.789c0.719,4.48-2.331,8.694-6.811,9.411   C425.269,430.744,424.831,430.778,424.399,430.778z"/>
	<path d="M59.204,491.254c-0.63,0-1.27-0.072-1.909-0.225c-4.414-1.05-7.141-5.481-6.089-9.895   c2.491-10.466,10.799-18.683,18.834-26.628c5.683-5.619,11.56-11.431,13.651-16.709c1.669-4.219,6.445-6.285,10.663-4.612   c4.218,1.67,6.283,6.445,4.613,10.663c-3.361,8.485-10.484,15.528-17.373,22.34c-6.392,6.32-13,12.855-14.403,18.748   C66.29,488.715,62.921,491.254,59.204,491.254z"/>
	<path d="M312.966,269.146c-3.013,0-5.915-1.664-7.354-4.544c-1.291-2.582-4.987-6.87-8.246-10.654   c-5.285-6.133-10.278-11.924-11.975-17.442c-1.335-4.337,1.099-8.934,5.435-10.268c4.342-1.335,8.934,1.1,10.268,5.436   c0.686,2.228,5.519,7.836,8.717,11.547c4.263,4.948,8.29,9.62,10.496,14.032c2.029,4.058,0.384,8.993-3.674,11.022   C315.454,268.867,314.2,269.146,312.966,269.146z"/>
	<path d="M279.004,329.508c-4.538,0-8.215-3.678-8.215-8.215c0-4.77-2.385-7.535-6.599-12.011c-2.792-2.965-5.956-6.325-8-10.803   c-1.884-4.127-0.066-9.001,4.062-10.885c4.13-1.886,9.001-0.066,10.886,4.062c0.917,2.01,2.815,4.027,5.015,6.362   c4.671,4.96,11.067,11.753,11.067,23.275C287.22,325.83,283.543,329.508,279.004,329.508z"/>
	<path d="M145.11,450.961c-0.532,0-1.072-0.051-1.615-0.16c-4.451-0.887-7.338-5.214-6.451-9.663   c0.803-4.026,3.874-7.361,8.522-12.408c3.037-3.298,8.122-8.819,8.83-11.388c1.205-4.375,5.731-6.944,10.103-5.738   c4.375,1.205,6.944,5.728,5.738,10.103c-1.765,6.406-7.512,12.647-12.584,18.154c-1.706,1.851-3.997,4.341-4.752,5.468   C151.788,448.703,148.62,450.961,145.11,450.961z M153.159,444.351c-0.001,0.002-0.001,0.005-0.002,0.008   C153.158,444.356,153.159,444.354,153.159,444.351z"/>
	<path d="M375.682,481.102c-2.94,0-5.781-1.581-7.259-4.356c-3.079-5.782-5.716-7.502-9.053-9.679   c-3.572-2.331-8.017-5.23-11.877-12.039c-2.237-3.948-0.85-8.961,3.098-11.198c3.946-2.237,8.961-0.85,11.198,3.097   c1.888,3.332,3.645,4.479,6.558,6.378c4.238,2.765,9.514,6.205,14.579,15.719c2.132,4.005,0.613,8.98-3.391,11.113   C378.307,480.791,376.985,481.102,375.682,481.102z"/>
</g>
<g style="opacity:0.1;">
	<path d="M279.733,178.411c-4.538,0-8.215-3.678-8.215-8.215c0-14.002,7.063-40.359,26.521-55.579   c3.574-2.794,8.737-2.166,11.532,1.409c2.795,3.574,2.166,8.738-1.409,11.532c-13.943,10.907-20.214,31.499-20.214,42.639   C287.948,174.733,284.271,178.411,279.733,178.411z"/>
	<path d="M227.52,140.437c-4.537,0-8.215-3.678-8.215-8.215c0-6.625-10.462-31.151-13.816-35.079   c-3.014-3.391-2.704-8.579,0.686-11.593c3.391-3.013,8.587-2.704,11.602,0.687c5.637,6.341,17.959,34.915,17.959,45.987   C235.735,136.76,232.057,140.437,227.52,140.437z"/>
</g>
<g>
	<path style="fill:#E66A8C;" d="M131.386,63.434c-1.561,0-3.138-0.444-4.536-1.371c-16.384-10.875-36.81-14.77-56.046-10.693   c-4.44,0.944-8.799-1.894-9.741-6.332c-0.941-4.438,1.894-8.799,6.332-9.741c23.523-4.989,48.504-0.222,68.54,13.076   c3.78,2.508,4.811,7.607,2.302,11.388C136.657,62.142,134.046,63.432,131.386,63.434z"/>
	<path style="fill:#E66A8C;" d="M354.968,38.156c-2.898,0-5.709-1.537-7.204-4.257c-2.187-3.975-0.739-8.971,3.236-11.159   c19.673-10.826,40.991-17.299,63.363-19.241c4.518-0.4,8.503,2.953,8.894,7.474c0.392,4.521-2.953,8.503-7.474,8.896   c-20.076,1.744-39.208,7.554-56.861,17.269C357.665,37.828,356.307,38.156,354.968,38.156z"/>
	<path style="fill:#E66A8C;" d="M383.881,189.146c-1.882,0-3.772-0.643-5.318-1.959c-3.456-2.94-3.874-8.124-0.934-11.58   c12.39-14.562,31.167-22.299,50.212-20.703c4.522,0.38,7.879,4.353,7.5,8.874c-0.379,4.522-4.374,7.876-8.874,7.499   c-13.792-1.158-27.361,4.442-36.323,14.977C388.518,188.164,386.207,189.146,383.881,189.146z"/>
	<path style="fill:#E66A8C;" d="M64.776,110.64c-3.054,0-5.986-1.71-7.404-4.643c-1.974-4.086-0.262-8.997,3.824-10.971   c8.66-4.183,18.31-6.019,27.897-5.314c4.525,0.333,7.923,4.272,7.589,8.797c-0.334,4.525-4.275,7.925-8.797,7.589   c-6.718-0.494-13.475,0.792-19.542,3.723C67.193,110.377,65.974,110.64,64.776,110.64z"/>
</g>
<g>
</g>
<g>
</g>
<g>
</g>
<g>
</g>
<g>
</g>
<g>
</g>
<g>
</g>
<g>
</g>
<g>
</g>
<g>
</g>
<g>
</g>
<g>
</g>
<g>
</g>
<g>
</g>
<g>
</g>
</svg>
