<?xml version="1.0" encoding="iso-8859-1"?>
<!-- Generator: Adobe Illustrator 19.0.0, SVG Export Plug-In . SVG Version: 6.00 Build 0)  -->
<svg xmlns="http://www.w3.org/2000/svg" xmlns:xlink="http://www.w3.org/1999/xlink" version="1.1" id="Layer_1" x="0px" y="0px" viewBox="0 0 512.001 512.001" style="enable-background:new 0 0 512.001 512.001;" xml:space="preserve">
<path style="fill:#E18C36;" d="M193.635,39.479l-47.165,81.692h111.744l-47.165-81.692  C207.179,32.776,197.504,32.776,193.635,39.479z"/>
<path style="fill:#EC8560;" d="M56.662,103.428l24.414,91.115l79.015-79.015L68.976,91.114  C61.5,89.111,54.659,95.952,56.662,103.428z"/>
<path style="fill:#E18C36;" d="M5.027,245.5l81.692,47.165V180.921L5.027,228.086C-1.676,231.956-1.676,241.63,5.027,245.5z"/>
<path style="fill:#EC8560;" d="M68.976,382.472l91.115-24.414l-79.015-79.015l-24.414,91.117  C54.659,377.635,61.5,384.475,68.976,382.472z"/>
<path style="fill:#E18C36;" d="M211.048,434.108l47.165-81.692H146.469l47.165,81.692  C197.504,440.81,207.179,440.81,211.048,434.108z"/>
<path style="fill:#EC7E45;" d="M348.021,370.159l-24.415-91.115l-79.015,79.015l91.115,24.414  C343.183,384.475,350.024,377.635,348.021,370.159z"/>
<path style="fill:#E18C36;" d="M399.656,228.086l-81.692-47.165v111.744l81.692-47.165  C406.359,241.63,406.359,231.956,399.656,228.086z"/>
<path style="fill:#EC8560;" d="M335.707,91.114l-91.115,24.414l79.015,79.015l24.415-91.115  C350.024,95.952,343.183,89.111,335.707,91.114z"/>
<path style="opacity:0.1;enable-background:new    ;" d="M76.458,177.308l4.618,17.236l73.176-73.176  C121.921,129.848,94.369,150.119,76.458,177.308z"/>
<path style="opacity:0.1;enable-background:new    ;" d="M68.274,191.571c-8.837,17.865-13.812,37.981-13.812,59.261  c0,8.371,0.776,16.561,2.247,24.506l30.012,17.327V180.921L68.274,191.571z"/>
<path style="opacity:0.1;enable-background:new    ;" d="M81.076,279.043l-9.835,36.706c12.158,21.877,30.267,39.986,52.144,52.144  l36.706-9.835L81.076,279.043z"/>
<path style="opacity:0.1;enable-background:new    ;" d="M146.469,352.416l17.327,30.012c7.945,1.47,16.135,2.247,24.506,2.247  c21.28,0,41.397-4.975,59.261-13.812l10.649-18.445H146.469V352.416z"/>
<path style="opacity:0.1;enable-background:new    ;" d="M244.591,358.058l17.236,4.618c27.19-17.91,47.46-45.461,55.94-77.794  L244.591,358.058z"/>
<circle style="fill:#F7D64C;" cx="202.344" cy="236.798" r="133.841"/>
<path style="opacity:0.3;fill:#FFFFFF;enable-background:new    ;" d="M228.05,105.429c-4.072,8.056-6.38,17.155-6.38,26.798  c0,32.865,26.643,59.509,59.509,59.509c15.593,0,29.778-6.004,40.388-15.819C303.155,139.929,268.925,113.382,228.05,105.429z"/>
<g>
	<path style="fill:#394049;" d="M183.846,251.772c-11.573,0-21.98-8.115-24.422-19.882c-0.919-4.428,1.925-8.762,6.353-9.681   c4.426-0.916,8.762,1.926,9.68,6.354c0.962,4.629,5.512,7.616,10.137,6.652c2.242-0.465,4.169-1.775,5.426-3.69   c1.257-1.915,1.692-4.204,1.227-6.446c-0.117-0.562-0.172-1.122-0.172-1.675c0.001-3.798,2.659-7.204,6.525-8.005   c4.427-0.915,8.761,1.926,9.681,6.354c0.465,2.242,1.775,4.169,3.69,5.426c1.914,1.257,4.204,1.693,6.446,1.227   c2.242-0.465,4.169-1.775,5.426-3.69c1.257-1.915,1.692-4.204,1.227-6.446c-0.918-4.428,1.926-8.762,6.354-9.681   c4.424-0.918,8.762,1.926,9.681,6.354c2.795,13.469-5.889,26.703-19.359,29.498c-6.312,1.308-12.572,0.098-17.729-2.943   c-3.522,4.844-8.782,8.445-15.094,9.755C187.219,251.602,185.52,251.772,183.846,251.772z"/>
	<path style="fill:#394049;" d="M119.363,222.814c-3.799,0-7.206-2.659-8.009-6.526l-1.446-6.97   c-0.918-4.428,1.926-8.762,6.354-9.681c4.427-0.915,8.761,1.926,9.681,6.354l1.446,6.97c0.918,4.428-1.926,8.762-6.354,9.681   C120.474,222.758,119.914,222.814,119.363,222.814z"/>
	<path style="fill:#394049;" d="M270.969,191.349c-3.799,0-7.206-2.659-8.008-6.525l-1.446-6.97   c-0.919-4.428,1.925-8.762,6.353-9.681c4.432-0.921,8.762,1.925,9.681,6.353l1.446,6.97c0.919,4.428-1.925,8.762-6.353,9.681   C272.08,191.292,271.52,191.349,270.969,191.349z"/>
</g>
<path style="fill:#D5EBEF;" d="M473.934,327.813c0.41-2.705,0.626-5.476,0.626-8.296c0-30.263-24.533-54.796-54.796-54.796  c-6.379,0-12.498,1.102-18.192,3.106c-16.529-28.755-47.553-48.118-83.099-48.118c-42.605,0-78.707,27.821-91.147,66.284  c-52.513,0.451-94.946,43.153-94.946,95.773c0,52.9,42.884,95.784,95.783,95.784h202.81c44.75,0,81.028-36.278,81.028-81.028  C512,367.552,496.795,342.138,473.934,327.813z"/>
<path style="opacity:0.1;enable-background:new    ;" d="M449.421,459.1h-202.81c-52.9,0-95.784-42.884-95.784-95.783  c0-14.159,1.43-29.267,4.539-43.798c-14.331,16.741-22.989,38.482-22.989,62.248c0,52.9,42.884,95.783,95.783,95.783h202.81  c27.084,0,51.061-13.291,65.774-33.704C483.431,453.441,467.087,459.1,449.421,459.1z"/>
<g>
	<path style="fill:#394049;" d="M338.341,413.649c-6.192,0-11.852-2.324-16.153-6.146c-4.3,3.822-9.961,6.146-16.153,6.146   c-13.421,0-24.34-10.919-24.34-24.34c0-4.522,3.666-8.188,8.188-8.188s8.188,3.666,8.188,8.188c0,4.392,3.573,7.965,7.965,7.965   c4.392,0,7.965-3.573,7.965-7.965c0-4.522,3.666-8.188,8.188-8.188s8.188,3.666,8.188,8.188c0,4.392,3.573,7.965,7.965,7.965   s7.965-3.573,7.965-7.965c0-4.522,3.666-8.188,8.188-8.188c4.522,0,8.188,3.666,8.188,8.188   C362.681,402.73,351.762,413.649,338.341,413.649z"/>
	<path style="fill:#394049;" d="M406.573,374.778c-4.522,0-8.188-3.666-8.188-8.188c0-0.877-0.713-1.589-1.589-1.589   c-0.877,0-1.59,0.713-1.59,1.589c0,4.522-3.666,8.188-8.188,8.188c-4.522,0-8.188-3.666-8.188-8.188   c0-9.906,8.059-17.965,17.965-17.965s17.965,8.059,17.965,17.965C414.76,371.112,411.094,374.778,406.573,374.778z"/>
	<path style="fill:#394049;" d="M247.581,374.736c-4.522,0-8.188-3.666-8.188-8.188v-9.242c0-4.522,3.666-8.188,8.188-8.188   c4.522,0,8.188,3.666,8.188,8.188v9.242C255.769,371.07,252.104,374.736,247.581,374.736z"/>
</g>
<g>
</g>
<g>
</g>
<g>
</g>
<g>
</g>
<g>
</g>
<g>
</g>
<g>
</g>
<g>
</g>
<g>
</g>
<g>
</g>
<g>
</g>
<g>
</g>
<g>
</g>
<g>
</g>
<g>
</g>
</svg>
