<?xml version="1.0" encoding="iso-8859-1"?>
<!-- Generator: Adobe Illustrator 19.0.0, SVG Export Plug-In . SVG Version: 6.00 Build 0)  -->
<svg xmlns="http://www.w3.org/2000/svg" xmlns:xlink="http://www.w3.org/1999/xlink" version="1.1" id="Layer_1" x="0px" y="0px" viewBox="0 0 512 512" style="enable-background:new 0 0 512 512;" xml:space="preserve">
<g>
	<path style="fill:#394049;" d="M78.532,304.201c-4.169,0-7.74-3.165-8.158-7.4c-1.545-15.646,18.352-29.597,60.825-42.654   c37.074-11.398,86.844-20.572,140.142-25.836c53.298-5.262,103.901-6.001,142.488-2.076c44.208,4.496,66.449,14.288,67.994,29.932   c0.445,4.51-2.849,8.529-7.361,8.974c-4.517,0.443-8.529-2.85-8.974-7.361c-0.194-1.963-10.29-10.84-53.321-15.216   c-37.532-3.817-86.972-3.078-139.214,2.081c-52.242,5.159-100.872,14.106-136.932,25.191   c-41.342,12.709-49.508,23.388-49.313,25.352c0.445,4.511-2.849,8.529-7.361,8.974C79.074,304.188,78.801,304.201,78.532,304.201z"/>
	<path style="fill:#394049;" d="M486.404,146.891c-0.163,0-0.327-0.004-0.493-0.014c-4.525-0.268-7.975-4.154-7.707-8.678   c0.23-3.878-9.995-16.954-59.409-30.702c-42.416-11.803-99.36-20.293-160.338-23.906c-60.976-3.611-118.526-1.907-162.04,4.802   c-50.692,7.817-62.39,19.594-62.619,23.473c-0.268,4.524-4.147,7.988-8.678,7.707c-4.525-0.268-7.975-4.153-7.707-8.677   C18.495,92.607,43.52,79.94,93.914,72.17c44.629-6.883,103.409-8.646,165.513-4.965c62.103,3.68,120.264,12.374,163.767,24.477   c49.125,13.668,72.479,29.201,71.394,47.487C494.331,143.528,490.714,146.891,486.404,146.891z"/>
	<path style="fill:#394049;" d="M403.78,409.881c-0.039,0-0.078,0-0.117,0c-4.486-0.063-8.08-3.714-8.092-8.184   c-0.74-2.016-8.626-8.843-35.358-15.014c-23.909-5.521-55.253-8.816-88.255-9.28c-32.999-0.465-64.426,1.949-88.482,6.793   c-26.897,5.418-34.971,12.019-35.767,14.014c-0.136,4.427-3.769,7.953-8.201,7.953c-0.039,0-0.078,0-0.118-0.001   c-4.532-0.063-8.154-3.789-8.09-8.322c0.182-12.922,15.056-22.412,45.473-29.011c25.629-5.56,59.513-8.351,95.416-7.839   c35.9,0.504,69.695,4.241,95.158,10.52c30.219,7.452,44.82,17.356,44.639,30.278C411.921,406.282,408.259,409.881,403.78,409.881z"/>
</g>
<path style="fill:#DBE7F2;" d="M101.366,59.939c41.798-72.89,274.63-75.445,366.838-28.445c20.032,10.21,25.851,36.14,12.436,54.183  c-49.452,66.517-151.499,214.759-150.738,405.707c0.068,17.109-19.636,26.761-33.134,16.248  C117.253,367.814,59.759,132.495,101.366,59.939z"/>
<path style="fill:#D5EBEF;" d="M101.366,59.939c41.798-72.89,274.63-75.445,366.838-28.445c20.032,10.21,25.851,36.14,12.436,54.183  c-49.452,66.517-151.499,214.759-150.738,405.707c0.068,17.109-19.636,26.761-33.134,16.248  C117.253,367.814,59.759,132.495,101.366,59.939z"/>
<path style="opacity:0.07;enable-background:new    ;" d="M214.388,427.758c39.452,5.496,82.13,8.001,118.967,0.723  c4.432-39.188,12.862-76.166,23.722-110.532c-55.057,37.289-120.445,55.055-178.776,61.659  C189.281,395.968,201.3,412.092,214.388,427.758z M89.884,98.529c-5.89,47.786,6.659,118.506,39.425,192.394  c66.354,5.07,154.849,1.151,249.024-30.574c10.32-24.45,21.557-47.154,32.955-67.917C281.895,198.316,153.389,139.311,89.884,98.529  z"/>
<path style="opacity:0.1;enable-background:new    ;" d="M313.054,491.346C133.539,351.528,76.045,116.209,117.652,43.653  c0.846-1.475,1.778-2.918,2.778-4.337c-8.196,6.118-14.683,12.982-19.064,20.622c-41.607,72.556,15.887,307.876,195.401,447.693  c12.421,9.674,30.085,2.266,32.774-12.308C324.089,496.4,318.132,495.301,313.054,491.346z"/>
<g>
	<path style="fill:#394049;" d="M247.83,437.834c-0.153,0-0.307-0.004-0.462-0.013c-30.716-1.705-58.854-5.889-79.232-11.784   c-24.953-7.218-37.002-16.44-36.837-28.197c0.063-4.532,3.765-8.149,8.321-8.09c4.486,0.063,8.08,3.713,8.092,8.182   c0.63,1.691,6.92,7.478,27.889,13.15c18.948,5.125,44.759,8.801,72.676,10.351c4.526,0.252,7.991,4.123,7.74,8.649   C255.773,434.452,252.153,437.834,247.83,437.834z"/>
	<path style="fill:#394049;" d="M171.222,328.853c-0.093,0-0.186-0.001-0.28-0.004c-27.848-0.936-51.377-3.707-68.046-8.018   c-20.818-5.384-31.456-13.244-32.521-24.032c-0.445-4.511,2.849-8.529,7.361-8.974c4.519-0.433,8.529,2.851,8.974,7.361   c0.091,0.917,3.986,5.537,20.295,9.754c15.523,4.014,37.822,6.608,64.488,7.504c4.53,0.152,8.079,3.947,7.927,8.478   C179.27,325.358,175.627,328.853,171.222,328.853z"/>
	<path style="fill:#394049;" d="M294.327,323.181c-4.119,0-7.67-3.093-8.144-7.282c-0.511-4.504,2.726-8.569,7.23-9.079   c49.112-5.57,94.289-14.479,127.206-25.087c37.632-12.126,45.049-22.128,44.869-23.953c-0.445-4.51,2.849-8.529,7.36-8.974   c4.521-0.434,8.53,2.851,8.974,7.361c1.487,15.057-16.886,28.53-56.169,41.19c-33.923,10.932-80.23,20.085-130.392,25.773   C294.948,323.164,294.635,323.181,294.327,323.181z"/>
	<path style="fill:#394049;" d="M136.005,168.985c-0.504,0-1.017-0.047-1.53-0.143c-34.121-6.436-62.662-14.453-82.54-23.183   c-23.992-10.538-35.285-21.909-34.524-34.765c0.268-4.524,4.153-7.971,8.678-7.707c4.525,0.268,7.975,4.153,7.707,8.678   c-0.17,2.86,4.851,10.031,24.739,18.766c18.755,8.236,46.067,15.872,78.982,22.081c4.454,0.84,7.384,5.132,6.544,9.586   C143.317,166.237,139.874,168.985,136.005,168.985z"/>
	<path style="fill:#394049;" d="M314.325,184.734c-19.996,0-40.648-0.627-61.752-1.877c-4.525-0.268-7.975-4.153-7.707-8.678   c0.268-4.524,4.155-7.967,8.677-7.707c34.164,2.024,67.103,2.388,97.9,1.08c4.532-0.207,8.356,3.323,8.547,7.851   c0.193,4.528-3.323,8.355-7.851,8.547C339.848,184.473,327.222,184.734,314.325,184.734z"/>
	<path style="fill:#394049;" d="M395.454,180.765c-4.137,0-7.695-3.119-8.149-7.326c-0.487-4.506,2.772-8.554,7.278-9.041   c67.759-7.323,83.337-21.396,83.621-26.2c0.268-4.525,4.167-7.966,8.677-7.707c4.525,0.268,7.976,4.153,7.707,8.677   c-1.223,20.657-34.277,34.635-98.243,41.549C396.047,180.75,395.748,180.765,395.454,180.765z"/>
</g>
<ellipse style="opacity:0.1;enable-background:new    ;" cx="295.25" cy="56.168" rx="137.208" ry="31.81"/>
<g>
	<path style="fill:#394049;" d="M266.858,297.632c-8.379,0-15.953-3.506-21.335-9.127c-5.38,5.622-12.956,9.127-21.333,9.127   c-16.289,0-29.541-13.252-29.541-29.541c0-4.532,3.674-8.207,8.207-8.207s8.207,3.674,8.207,8.207   c0,7.238,5.889,13.128,13.128,13.128c7.238,0,13.127-5.889,13.127-13.128c0-4.532,3.674-8.207,8.207-8.207s8.207,3.674,8.207,8.207   c0,7.238,5.889,13.128,13.128,13.128c7.238,0,13.128-5.889,13.128-13.128c0-4.532,3.674-8.207,8.207-8.207s8.207,3.674,8.207,8.207   C296.398,284.38,283.146,297.632,266.858,297.632z"/>
	<path style="fill:#394049;" d="M146.985,244.421c-4.532,0-8.207-3.674-8.207-8.207v-9.061c0-4.532,3.674-8.207,8.207-8.207   c4.532,0,8.207,3.674,8.207,8.207v9.061C155.192,240.747,151.518,244.421,146.985,244.421z"/>
	<path style="fill:#394049;" d="M344.063,244.421c-4.532,0-8.207-3.674-8.207-8.207v-9.061c0-4.532,3.674-8.207,8.207-8.207   s8.207,3.674,8.207,8.207v9.061C352.27,240.747,348.595,244.421,344.063,244.421z"/>
	<path style="fill:#394049;" d="M158.512,233.023c-1.189,0-2.396-0.259-3.54-0.808l-26.262-12.584   c-4.088-1.959-5.814-6.86-3.855-10.947c1.96-4.087,6.862-5.814,10.947-3.855l26.262,12.584c4.088,1.959,5.814,6.86,3.855,10.947   C164.508,231.303,161.572,233.023,158.512,233.023z"/>
	<path style="fill:#394049;" d="M332.536,233.023c-3.06,0-5.996-1.719-7.407-4.663c-1.959-4.087-0.233-8.988,3.855-10.947   l26.262-12.584c4.088-1.959,8.988-0.233,10.947,3.855c1.959,4.087,0.233,8.988-3.855,10.947l-26.262,12.584   C334.932,232.763,333.724,233.023,332.536,233.023z"/>
</g>
<g>
</g>
<g>
</g>
<g>
</g>
<g>
</g>
<g>
</g>
<g>
</g>
<g>
</g>
<g>
</g>
<g>
</g>
<g>
</g>
<g>
</g>
<g>
</g>
<g>
</g>
<g>
</g>
<g>
</g>
</svg>
