<?xml version="1.0" encoding="iso-8859-1"?>
<!-- Generator: Adobe Illustrator 19.0.0, SVG Export Plug-In . SVG Version: 6.00 Build 0)  -->
<svg xmlns="http://www.w3.org/2000/svg" xmlns:xlink="http://www.w3.org/1999/xlink" version="1.1" id="Layer_1" x="0px" y="0px" viewBox="0 0 512.001 512.001" style="enable-background:new 0 0 512.001 512.001;" xml:space="preserve">
<path style="fill:#83D8DD;" d="M82.269,494.97c60.722,35.059,138.369,14.253,173.427-46.47  c43.287-74.976,18.581-207.835,9.041-250.425c-1.666-7.433-9.314-11.849-16.584-9.575  c-41.654,13.032-169.066,58.066-212.354,133.043C0.741,382.266,21.547,459.912,82.269,494.97z"/>
<path style="opacity:0.1;enable-background:new    ;" d="M96.958,491.034C36.236,455.975,15.43,378.33,50.488,317.606  c40.142-69.528,152.616-113.302,201.968-129.69c-1.417-0.045-2.867,0.134-4.304,0.583  c-41.654,13.032-169.066,58.066-212.354,133.043c-35.058,60.724-14.252,138.37,46.47,173.428  c32.731,18.897,70.376,21.556,103.621,10.487C156.536,511.476,124.949,507.195,96.958,491.034z"/>
<g>
	<path style="opacity:0.2;fill:#FFFFFF;enable-background:new    ;" d="M264.737,198.076c-1.666-7.433-9.314-11.849-16.584-9.575   c-3.32,1.039-7.187,2.282-11.509,3.726c-0.576,0.934-1.144,1.874-1.695,2.831c-30.635,53.061-12.454,120.909,40.606,151.544   c1.479,0.853,2.97,1.664,4.47,2.441C282.776,287.59,270.749,224.912,264.737,198.076z"/>
	<circle style="opacity:0.2;fill:#FFFFFF;enable-background:new    ;" cx="230.368" cy="358.44" r="24.581"/>
</g>
<g>
	<path style="fill:#394049;" d="M104.261,337.604c-1.389,0-2.798-0.354-4.088-1.099c-3.918-2.262-5.261-7.273-2.998-11.191   c0.671-1.161,0.521-2.269,0.371-2.824c-0.149-0.556-0.571-1.589-1.733-2.26c-1.777-1.026-4.058-0.415-5.085,1.363   c-2.263,3.918-7.274,5.259-11.192,2.997c-3.918-2.262-5.259-7.273-2.997-11.191c5.545-9.601,17.864-12.903,27.467-7.359   c4.651,2.685,7.978,7.021,9.368,12.209c1.389,5.187,0.676,10.605-2.009,15.257C109.846,336.134,107.092,337.604,104.261,337.604z"/>
	<path style="fill:#394049;" d="M235.277,413.246c-1.389,0-2.797-0.354-4.089-1.099c-3.918-2.262-5.261-7.273-2.998-11.191   c0.671-1.161,0.521-2.269,0.371-2.824c-0.149-0.556-0.571-1.589-1.733-2.26c-1.161-0.671-2.265-0.522-2.825-0.371   c-0.556,0.149-1.588,0.572-2.259,1.733c-2.261,3.918-7.273,5.259-11.191,2.998c-3.918-2.262-5.261-7.273-2.998-11.191   c2.685-4.651,7.021-7.978,12.209-9.368c5.19-1.391,10.607-0.676,15.257,2.009c4.651,2.685,7.978,7.021,9.368,12.209   c1.389,5.187,0.676,10.605-2.009,15.257C240.863,411.776,238.108,413.245,235.277,413.246z"/>
	<path style="fill:#394049;" d="M161.585,414.854c-4.259,0-8.459-1.116-12.245-3.302c-5.29-3.054-9.176-7.855-11.06-13.616   c-5.716,1.196-11.867,0.378-17.306-2.761c-5.683-3.281-9.749-8.579-11.446-14.919c-1.7-6.34-0.827-12.96,2.454-18.643   c2.262-3.918,7.274-5.262,11.191-2.998c3.919,2.262,5.261,7.273,2.998,11.192c-1.093,1.893-1.384,4.098-0.818,6.21   c0.567,2.111,1.92,3.877,3.813,4.97c3.907,2.258,8.924,0.913,11.181-2.996c2.261-3.919,7.274-5.262,11.191-2.998   c2.629,1.518,4.098,4.273,4.097,7.104c0,1.389-0.354,2.797-1.099,4.086c-1.093,1.893-1.384,4.099-0.818,6.211   c0.567,2.111,1.92,3.877,3.813,4.97c1.892,1.092,4.096,1.384,6.211,0.818c2.113-0.566,3.877-1.92,4.97-3.813   c2.261-3.919,7.269-5.262,11.191-2.999c3.918,2.262,5.261,7.273,2.998,11.191c-3.281,5.684-8.579,9.749-14.918,11.447   C165.868,414.573,163.72,414.854,161.585,414.854z"/>
</g>
<path style="fill:#83D8DD;" d="M351.604,259.482c43.398,25.056,98.893,10.187,123.948-33.211  c30.937-53.585,13.28-148.54,6.462-178.979c-1.191-5.313-6.656-8.469-11.853-6.843c-29.771,9.314-120.832,41.5-151.77,95.086  C293.336,178.932,308.205,234.425,351.604,259.482z"/>
<path style="opacity:0.1;enable-background:new    ;" d="M362.102,256.669c-43.398-25.056-58.268-80.55-33.211-123.948  c28.689-49.692,109.075-80.977,144.348-92.69c-1.013-0.032-2.049,0.096-3.076,0.417c-29.771,9.314-120.832,41.5-151.77,95.086  c-25.056,43.398-10.187,98.893,33.212,123.949c23.393,13.506,50.298,15.406,74.058,7.495  C404.682,271.278,382.107,268.219,362.102,256.669z"/>
<g>
	<path style="opacity:0.2;fill:#FFFFFF;enable-background:new    ;" d="M482.014,47.291c-1.191-5.313-6.656-8.469-11.853-6.843   c-2.372,0.743-5.137,1.631-8.225,2.663c-0.412,0.667-0.817,1.34-1.211,2.023c-21.894,37.923-8.901,86.414,29.021,108.31   c1.056,0.611,2.122,1.188,3.195,1.744C494.906,111.267,486.31,66.47,482.014,47.291z"/>
	<circle style="opacity:0.2;fill:#FFFFFF;enable-background:new    ;" cx="457.447" cy="161.902" r="17.564"/>
</g>
<path style="fill:#83D8DD;" d="M81.233,162.571c32.149,18.56,73.256,7.546,91.817-24.602c22.918-39.694,9.837-110.034,4.786-132.583  c-0.882-3.936-4.931-6.273-8.78-5.069C147.004,7.217,79.549,31.06,56.63,70.754C38.07,102.903,49.085,144.011,81.233,162.571z"/>
<path style="opacity:0.1;enable-background:new    ;" d="M89.009,160.488c-32.149-18.56-43.163-59.669-24.602-91.817  C85.66,31.861,145.207,8.686,171.335,0.01c-0.75-0.024-1.518,0.071-2.279,0.309C147.004,7.217,79.549,31.06,56.63,70.754  c-18.56,32.149-7.546,73.256,24.602,91.817c17.328,10.004,37.26,11.412,54.86,5.552C120.552,171.311,103.83,169.044,89.009,160.488z  "/>
<g>
	<path style="opacity:0.2;fill:#FFFFFF;enable-background:new    ;" d="M177.837,5.387c-0.882-3.936-4.931-6.273-8.78-5.069   c-1.758,0.549-3.804,1.208-6.093,1.973c-0.305,0.494-0.605,0.993-0.898,1.499c-16.219,28.092-6.594,64.013,21.498,80.232   c0.782,0.452,1.572,0.88,2.366,1.292C187.388,52.778,181.02,19.595,177.837,5.387z"/>
	<circle style="opacity:0.2;fill:#FFFFFF;enable-background:new    ;" cx="159.641" cy="90.29" r="13.014"/>
</g>
<g>
</g>
<g>
</g>
<g>
</g>
<g>
</g>
<g>
</g>
<g>
</g>
<g>
</g>
<g>
</g>
<g>
</g>
<g>
</g>
<g>
</g>
<g>
</g>
<g>
</g>
<g>
</g>
<g>
</g>
</svg>
