<?xml version="1.0" encoding="iso-8859-1"?>
<!-- Generator: Adobe Illustrator 19.0.0, SVG Export Plug-In . SVG Version: 6.00 Build 0)  -->
<svg xmlns="http://www.w3.org/2000/svg" xmlns:xlink="http://www.w3.org/1999/xlink" version="1.1" id="Layer_1" x="0px" y="0px" viewBox="0 0 512.001 512.001" style="enable-background:new 0 0 512.001 512.001;" xml:space="preserve">
<g>
	<path style="fill:#7DBF63;" d="M280.395,292.574c-0.367,0-0.734-0.017-1.106-0.052c-6.426-0.603-11.145-6.302-10.543-12.727   c3.064-32.609,25.733-56.194,26.697-57.182c4.505-4.621,11.905-4.715,16.525-0.208c4.613,4.498,4.713,11.879,0.232,16.501   c-0.297,0.311-17.916,18.942-20.183,43.075C291.448,288.033,286.356,292.574,280.395,292.574z"/>
	<path style="fill:#7DBF63;" d="M449.883,192.569c-46.013,46.013-117.385,53.255-147.813,54.149   c-8.148,0.24-14.812-6.424-14.572-14.572c0.896-30.428,8.137-101.799,54.149-147.812S459.032,31.079,489.46,30.184   c8.148-0.24,14.812,6.424,14.572,14.572C503.138,75.185,495.896,146.556,449.883,192.569z"/>
</g>
<circle style="opacity:0.3;enable-background:new    ;" cx="422.468" cy="165.155" r="13.821"/>
<path style="opacity:0.1;enable-background:new    ;" d="M311.775,237.015c-8.148,0.24-14.812-6.424-14.572-14.572  c0.864-29.352,7.645-96.796,49.425-142.832c-1.687,1.532-3.353,3.098-4.98,4.724c-46.013,46.013-53.254,117.385-54.149,147.812  c-0.24,8.148,6.424,14.812,14.572,14.572c30.428-0.896,101.799-8.137,147.813-54.149c1.626-1.626,3.192-3.293,4.724-4.98  C408.572,229.369,341.127,236.151,311.775,237.015z"/>
<path style="opacity:0.2;fill:#FFFFFF;enable-background:new    ;" d="M489.461,30.184c-4.444,0.131-9.78,0.404-15.764,0.906  c-4.04,6.747-6.367,14.638-6.367,23.074c0,19.77,12.758,36.549,30.484,42.587c4.475-21.056,5.86-39.812,6.218-51.995  C504.272,36.608,497.609,29.944,489.461,30.184z"/>
<g>
	<path style="fill:#394049;" d="M422.468,186.93c-5.578,0-11.157-2.124-15.404-6.37c-8.495-8.495-8.495-22.316-0.001-30.81   c8.494-8.492,22.315-8.496,30.81-0.001c0,0.001,0.001,0.001,0.001,0.001c8.494,8.495,8.494,22.316,0,30.809   C433.627,184.806,428.047,186.93,422.468,186.93z M422.469,159.306c-1.499,0-2.997,0.57-4.139,1.711   c-2.28,2.281-2.28,5.993,0.001,8.274c2.281,2.281,5.994,2.28,8.275-0.001c2.281-2.28,2.281-5.993-0.001-8.274   C425.465,159.877,423.967,159.306,422.469,159.306z"/>
	<path style="fill:#394049;" d="M324.848,194.92c-2.039,0-4.078-0.778-5.634-2.333l-5.491-5.49   c-3.113-3.112-3.113-8.157-0.001-11.268c3.113-3.112,8.158-3.112,11.267-0.001l5.491,5.491c3.113,3.112,3.113,8.157,0.001,11.268   C328.926,194.141,326.886,194.92,324.848,194.92z"/>
	<path style="fill:#394049;" d="M444.266,75.501c-2.04,0-4.078-0.778-5.635-2.334l-5.49-5.49c-3.112-3.112-3.112-8.157,0.001-11.268   c3.112-3.111,8.157-3.111,11.268,0l5.49,5.49c3.112,3.112,3.112,8.157-0.001,11.268C448.344,74.724,446.305,75.501,444.266,75.501z   "/>
</g>
<path style="opacity:0.2;enable-background:new    ;" d="M359.668,182.519c-2.039,0-4.078-0.778-5.635-2.334  c-3.112-3.112-3.112-8.157,0-11.267l72.198-72.198c3.113-3.112,8.157-3.112,11.268,0c3.112,3.112,3.112,8.157,0,11.267  l-72.198,72.198C363.746,181.74,361.706,182.519,359.668,182.519z"/>
<g>
	<path style="fill:#DBE7F2;" d="M183.138,286.175H7.968c-4.4,0-7.968-3.567-7.968-7.968c0-4.4,3.567-7.968,7.968-7.968h175.17   c34.138,0,61.91-27.773,61.91-61.91c0-34.138-27.773-61.91-61.91-61.91s-61.91,27.773-61.91,61.91c0,4.4-3.566,7.968-7.968,7.968   s-7.968-3.567-7.968-7.968c0-42.925,34.922-77.845,77.845-77.845s77.845,34.922,77.845,77.845S226.061,286.175,183.138,286.175z"/>
	<path style="fill:#DBE7F2;" d="M428.91,481.823c-45.816,0-83.09-37.274-83.09-83.09c0-4.4,3.566-7.968,7.968-7.968   c4.401,0,7.968,3.567,7.968,7.968c0,37.03,30.125,67.155,67.155,67.155s67.155-30.125,67.155-67.155s-30.125-67.155-67.155-67.155   H39.14c-4.401,0-7.968-3.567-7.968-7.968c0-4.4,3.566-7.968,7.968-7.968h389.77c45.816,0,83.09,37.274,83.09,83.09   C512,444.549,474.726,481.823,428.91,481.823z"/>
	<path style="fill:#DBE7F2;" d="M443.977,286.175H326.316c-4.401,0-7.968-3.567-7.968-7.968c0-4.4,3.566-7.968,7.968-7.968h117.661   c4.401,0,7.968,3.567,7.968,7.968C451.945,282.608,448.379,286.175,443.977,286.175z"/>
	<path style="fill:#DBE7F2;" d="M216.835,371.964H67.754c-4.401,0-7.968-3.567-7.968-7.968c0-4.4,3.566-7.968,7.968-7.968h149.081   c4.401,0,7.968,3.567,7.968,7.968C224.802,368.397,221.236,371.964,216.835,371.964z"/>
	<path style="fill:#DBE7F2;" d="M326.316,371.964h-67.478c-4.4,0-7.968-3.567-7.968-7.968c0-4.4,3.567-7.968,7.968-7.968h67.478   c4.401,0,7.968,3.567,7.968,7.968C334.284,368.397,330.717,371.964,326.316,371.964z"/>
	<path style="fill:#DBE7F2;" d="M183.138,253.56c-24.94,0-45.23-20.291-45.23-45.231s20.291-45.231,45.23-45.231   c24.941,0,45.231,20.291,45.231,45.231c0,4.4-3.566,7.968-7.968,7.968s-7.968-3.567-7.968-7.968   c0-16.153-13.142-29.296-29.296-29.296s-29.295,13.142-29.295,29.296s13.141,29.296,29.295,29.296c4.401,0,7.968,3.567,7.968,7.968   S187.538,253.56,183.138,253.56z"/>
	<path style="fill:#DBE7F2;" d="M428.91,441.438c-23.547,0-42.704-19.157-42.704-42.705c0-23.547,19.156-42.705,42.704-42.705   c4.401,0,7.968,3.567,7.968,7.968c0,4.4-3.566,7.968-7.968,7.968c-14.759,0-26.768,12.009-26.768,26.769   s12.009,26.769,26.768,26.769c14.761,0,26.769-12.009,26.769-26.769c0-4.4,3.566-7.968,7.968-7.968c4.4,0,7.968,3.567,7.968,7.968   C471.616,422.28,452.458,441.438,428.91,441.438z"/>
</g>
<g>
</g>
<g>
</g>
<g>
</g>
<g>
</g>
<g>
</g>
<g>
</g>
<g>
</g>
<g>
</g>
<g>
</g>
<g>
</g>
<g>
</g>
<g>
</g>
<g>
</g>
<g>
</g>
<g>
</g>
</svg>
