<?xml version="1.0" encoding="iso-8859-1"?>
<!-- Generator: Adobe Illustrator 19.0.0, SVG Export Plug-In . SVG Version: 6.00 Build 0)  -->
<svg xmlns="http://www.w3.org/2000/svg" xmlns:xlink="http://www.w3.org/1999/xlink" version="1.1" id="Layer_1" x="0px" y="0px" viewBox="0 0 512 512" style="enable-background:new 0 0 512 512;" xml:space="preserve">
<path style="fill:#DBE7F2;" d="M338.263,264.384l69.983-192.277c10.148-27.879-4.228-58.706-32.106-68.852l0,0  c-27.879-10.148-58.706,4.228-68.852,32.106l-69.982,192.275c-56.023,2.162-107.833,37.551-128.192,93.489  c-26.861,73.8,11.191,155.401,84.989,182.261c73.8,26.861,155.401-11.191,182.261-84.99  C396.723,362.461,379.785,302.052,338.263,264.384z"/>
<path style="opacity:0.05;enable-background:new    ;" d="M212.423,494.843c-73.8-26.861-111.85-108.462-84.989-182.261  c12.193-33.499,35.671-59.615,64.573-75.652c-37.175,14.214-68.211,43.858-82.893,84.194  c-26.861,73.8,11.191,155.401,84.989,182.261c40.318,14.674,82.964,9.974,117.742-9.344  C280.991,505.854,245.905,507.029,212.423,494.843z"/>
<path style="fill:#E66A8C;" d="M297.851,284.224l38.756-106.482c1.054-2.897-0.44-6.1-3.337-7.155l-31.863-11.598  c-2.897-1.054-6.101,0.44-7.155,3.337L255.495,268.81c-45.623-5.807-90.818,20.076-107.818,64.711  c-19.915,52.287,6.601,111.466,58.906,131.334c53.152,20.189,112.374-7.046,131.756-60.299  C354.908,359.034,336.952,309.367,297.851,284.224z"/>
<path style="opacity:0.1;enable-background:new    ;" d="M215.687,455.75c-52.306-19.867-78.821-79.047-58.906-131.334  c4.435-11.644,10.791-22.008,18.569-30.869c-11.963,10.558-21.615,24.067-27.674,39.973  c-19.915,52.287,6.601,111.466,58.906,131.333c40.89,15.531,85.368,2.993,112.539-27.863  C291.757,461.069,252.283,469.651,215.687,455.75z"/>
<path style="opacity:0.2;enable-background:new    ;" d="M302.434,201.827c-1.55,4.256,0.646,8.963,4.902,10.513l44.037,16.028  l5.61-15.415l-44.036-16.028C308.684,195.374,303.982,197.57,302.434,201.827z M316.081,164.33  c-1.55,4.256,0.646,8.963,4.902,10.513l44.037,16.028l5.61-15.415l-44.037-16.028C322.332,157.879,317.629,160.074,316.081,164.33z   M353.889,84.435c-4.26-1.551-8.964,0.645-10.513,4.903c-1.55,4.256,0.646,8.963,4.902,10.513l44.037,16.028l5.61-15.415  L353.889,84.435z M329.729,126.834c-1.55,4.256,0.646,8.963,4.902,10.513l44.037,16.028l5.61-15.415l-44.036-16.028  C335.983,120.382,331.277,122.577,329.729,126.834z"/>
<g>
	<path style="opacity:0.3;fill:#FFFFFF;enable-background:new    ;" d="M349.234,275.504c-17.475,3.69-32.709,16.033-39.267,34.052   c-10.105,27.762,4.21,58.461,31.973,68.565c14.64,5.329,30.094,3.86,42.916-2.783C386.309,338.497,373.264,302.699,349.234,275.504   z"/>
	<circle style="opacity:0.3;fill:#FFFFFF;enable-background:new    ;" cx="320.885" cy="435.965" r="28.049"/>
	<path style="opacity:0.4;fill:#FFFFFF;enable-background:new    ;" d="M395.46,15.461c-16.734,6.074-30.765,19.23-37.33,37.267   c-10.773,29.598,2.292,62.049,29.376,76.363l20.74-56.984C415.667,51.717,409.961,29.761,395.46,15.461z"/>
</g>
<g>
	<path style="fill:#394049;" d="M253.811,415.514c-2.895,0-5.837-0.495-8.709-1.542c-6.101-2.221-11.032-6.576-13.98-12.321   c-5.725,2.403-12.331,2.744-18.611,0.458c-13.235-4.817-20.083-19.504-15.267-32.739c1.549-4.257,6.257-6.452,10.513-4.903   c4.257,1.55,6.451,6.257,4.903,10.513c-1.724,4.735,0.727,9.99,5.461,11.714c4.737,1.724,9.99-0.727,11.714-5.463   c1.55-4.256,6.259-6.453,10.513-4.902c3.33,1.212,5.398,4.356,5.399,7.704c0,0.933-0.16,1.881-0.498,2.807   c-0.834,2.293-0.726,4.775,0.305,6.987c1.032,2.212,2.864,3.891,5.157,4.725c4.733,1.724,9.988-0.727,11.713-5.463   c1.551-4.256,6.255-6.453,10.513-4.9c4.257,1.55,6.451,6.257,4.902,10.513C274.068,409.067,264.247,415.514,253.811,415.514z"/>
	<path style="fill:#394049;" d="M179.94,346.584c-0.932,0-1.879-0.16-2.804-0.496c-4.257-1.55-6.451-6.257-4.903-10.513l3.238-8.896   c1.55-4.256,6.257-6.452,10.513-4.903c4.257,1.55,6.451,6.257,4.903,10.513l-3.238,8.896   C186.435,344.516,183.29,346.584,179.94,346.584z"/>
	<path style="fill:#394049;" d="M311.015,394.291c-0.932,0-1.879-0.16-2.804-0.497c-4.256-1.55-6.451-6.257-4.902-10.513   l3.238-8.896c1.549-4.256,6.254-6.451,10.513-4.903c4.256,1.55,6.451,6.257,4.902,10.513l-3.238,8.896   C317.512,392.223,314.367,394.291,311.015,394.291z"/>
</g>
<g>
</g>
<g>
</g>
<g>
</g>
<g>
</g>
<g>
</g>
<g>
</g>
<g>
</g>
<g>
</g>
<g>
</g>
<g>
</g>
<g>
</g>
<g>
</g>
<g>
</g>
<g>
</g>
<g>
</g>
</svg>
