<?xml version="1.0" encoding="iso-8859-1"?>
<!-- Generator: Adobe Illustrator 19.0.0, SVG Export Plug-In . SVG Version: 6.00 Build 0)  -->
<svg xmlns="http://www.w3.org/2000/svg" xmlns:xlink="http://www.w3.org/1999/xlink" version="1.1" id="Layer_1" x="0px" y="0px" viewBox="0 0 512.002 512.002" style="enable-background:new 0 0 512.002 512.002;" xml:space="preserve">
<path style="fill:#E66A8C;" d="M502.608,0.002C227.25,4.956,4.955,227.251,0.002,502.608c-0.093,5.157,4.066,9.393,9.223,9.393  h365.947c0-75.568,61.261-136.828,136.828-136.828V9.226C512,4.068,507.765-0.09,502.608,0.002z"/>
<path style="fill:#F7D64C;" d="M512,93.732c-231.004,0-418.269,187.266-418.269,418.269h281.441  c0-75.568,61.261-136.828,136.828-136.828L512,93.732L512,93.732z"/>
<path style="fill:#7DBF63;" d="M512,187.546c-179.192,0-324.455,145.263-324.455,324.455h187.627  c0-75.568,61.261-136.828,136.828-136.828V187.546z"/>
<path style="fill:#83D8DD;" d="M281.358,512.001h93.813c0-75.568,61.261-136.829,136.828-136.829v-93.813  C384.621,281.359,281.358,384.621,281.358,512.001z"/>
<g>
	<path style="fill:#FFFFFF;" d="M418.208,240.473c1.602,1.603,3.703,2.404,5.803,2.404c2.1,0,4.201-0.801,5.803-2.404   c3.205-3.205,3.205-8.401,0-11.605l-13.393-13.393c-3.205-3.206-8.401-3.205-11.605,0c-3.205,3.205-3.205,8.401,0,11.606   L418.208,240.473z M468.252,242.863c2.1,0,4.201-0.801,5.803-2.404l13.393-13.393c3.205-3.205,3.205-8.401,0-11.605   c-3.205-3.205-8.401-3.205-11.605,0l-13.393,13.393c-3.205,3.205-3.205,8.401,0,11.605   C464.052,242.062,466.151,242.863,468.252,242.863z M489.858,256.784c0-4.532-3.674-8.206-8.206-8.206h-27.307v-27.307   c0-4.532-3.674-8.206-8.206-8.206c-4.532,0-8.206,3.674-8.206,8.206v27.307h-27.308c-4.532,0-8.206,3.674-8.206,8.206   c0,4.532,3.674,8.206,8.206,8.206h27.308v27.307c0,4.532,3.674,8.206,8.206,8.206c4.532,0,8.206-3.674,8.206-8.206v-27.307h27.307   C486.184,264.991,489.858,261.317,489.858,256.784z M418.221,273.11l-13.393,13.393c-3.205,3.205-3.205,8.4,0,11.606   c1.602,1.603,3.703,2.404,5.803,2.404s4.201-0.801,5.803-2.404l13.393-13.393c3.205-3.205,3.205-8.4,0-11.605   C426.624,269.905,421.427,269.905,418.221,273.11z M487.461,286.489l-13.393-13.393c-3.205-3.205-8.401-3.205-11.605,0   c-3.205,3.205-3.205,8.401,0,11.605l13.393,13.393c1.602,1.602,3.703,2.404,5.803,2.404s4.201-0.801,5.803-2.404   C490.666,294.89,490.666,289.693,487.461,286.489z"/>
	<path style="fill:#FFFFFF;" d="M54.247,378.863c1.602,1.602,3.703,2.404,5.803,2.404c2.1,0,4.201-0.801,5.803-2.404   c3.205-3.205,3.205-8.401,0-11.605l-14.304-14.306c-3.205-3.205-8.401-3.205-11.605,0c-3.205,3.205-3.205,8.401,0,11.606   L54.247,378.863z M107.306,381.251c2.1,0,4.201-0.801,5.803-2.404l14.306-14.306c3.205-3.205,3.205-8.401,0-11.606   c-3.205-3.205-8.401-3.205-11.605,0l-14.306,14.306c-3.205,3.205-3.205,8.401,0,11.605   C103.105,380.45,105.206,381.251,107.306,381.251z M54.263,414.513l-14.306,14.306c-3.205,3.205-3.205,8.401,0,11.605   c1.602,1.602,3.703,2.404,5.803,2.404c2.101,0,4.201-0.801,5.803-2.404l14.306-14.306c3.205-3.205,3.205-8.401,0-11.606   C62.663,411.309,57.466,411.309,54.263,414.513z M129.826,396.681c0-4.532-3.674-8.206-8.206-8.206H91.892v-29.727   c0-4.532-3.674-8.206-8.206-8.206c-4.532,0-8.206,3.674-8.206,8.206v29.727H45.753c-4.532,0-8.206,3.674-8.206,8.206   c0,4.532,3.674,8.206,8.206,8.206h29.726v29.727c0,4.532,3.674,8.206,8.206,8.206c4.532,0,8.206-3.674,8.206-8.206v-29.727h29.726   C126.151,404.887,129.826,401.213,129.826,396.681z M127.429,428.803l-14.306-14.306c-3.205-3.205-8.401-3.205-11.605,0   c-3.205,3.205-3.205,8.401,0,11.605l14.306,14.306c1.602,1.602,3.703,2.404,5.803,2.404c2.1,0,4.201-0.801,5.803-2.404   C130.634,437.204,130.634,432.008,127.429,428.803z"/>
	<path style="opacity:0.2;fill:#FFFFFF;enable-background:new    ;" d="M343.207,28.396c-0.079,1.787-0.126,3.581-0.126,5.387   c0,66.286,53.736,120.021,120.021,120.021c17.416,0,33.963-3.715,48.9-10.386V9.225c0-5.155-4.231-9.316-9.385-9.223   C446.848,1.005,393.257,10.929,343.207,28.396z"/>
	<circle style="opacity:0.2;fill:#FFFFFF;enable-background:new    ;" cx="255.768" cy="142.586" r="47.094"/>
</g>
<g>
	<path style="fill:#394049;" d="M293.7,355.718c-7.564,0-15.129-2.879-20.887-8.639c-3.205-3.205-3.205-8.401,0-11.605   c3.205-3.205,8.401-3.205,11.605,0c5.119,5.118,13.445,5.118,18.563,0c5.118-5.119,5.118-13.445,0-18.564   c-1.602-1.602-2.404-3.703-2.404-5.803c0-2.1,0.801-4.201,2.404-5.803c3.205-3.205,8.401-3.205,11.605,0   c2.479,2.479,5.775,3.845,9.282,3.845s6.803-1.366,9.282-3.845c5.118-5.119,5.118-13.445,0-18.564   c-3.205-3.205-3.205-8.401,0-11.605c3.205-3.205,8.401-3.205,11.605,0c11.517,11.517,11.517,30.258,0,41.775   c-5.924,5.925-13.755,8.808-21.538,8.631c0.17,7.78-2.707,15.614-8.631,21.538C308.828,352.839,301.264,355.718,293.7,355.718z"/>
	<path style="fill:#394049;" d="M190.559,340.438c-2.1,0-4.201-0.801-5.804-2.404l-6.407-6.408c-3.205-3.205-3.204-8.401,0-11.606   c3.205-3.204,8.4-3.204,11.606,0.001l6.406,6.408c3.205,3.205,3.204,8.401,0,11.606   C194.759,339.636,192.659,340.438,190.559,340.438z"/>
	<path style="fill:#394049;" d="M329.907,201.089c-2.1,0-4.201-0.801-5.803-2.404l-6.407-6.407c-3.205-3.205-3.205-8.401,0-11.605   c3.205-3.205,8.401-3.205,11.605,0l6.407,6.406c3.205,3.205,3.205,8.401,0,11.605C334.107,200.288,332.006,201.089,329.907,201.089   z"/>
</g>
<g>
</g>
<g>
</g>
<g>
</g>
<g>
</g>
<g>
</g>
<g>
</g>
<g>
</g>
<g>
</g>
<g>
</g>
<g>
</g>
<g>
</g>
<g>
</g>
<g>
</g>
<g>
</g>
<g>
</g>
</svg>
