<?xml version="1.0" encoding="iso-8859-1"?>
<!-- Generator: Adobe Illustrator 19.0.0, SVG Export Plug-In . SVG Version: 6.00 Build 0)  -->
<svg xmlns="http://www.w3.org/2000/svg" xmlns:xlink="http://www.w3.org/1999/xlink" version="1.1" id="Layer_1" x="0px" y="0px" viewBox="0 0 512 512" style="enable-background:new 0 0 512 512;" xml:space="preserve">
<g>
	<path style="fill:#83D8DD;" d="M462.503,157.635h-94.48c-7.542,0-13.658-6.115-13.658-13.658v-94.48   c0-7.544,6.115-13.658,13.658-13.658s13.658,6.114,13.658,13.658v80.822h80.822c7.542,0,13.658,6.114,13.658,13.658   C476.161,151.519,470.046,157.635,462.503,157.635z"/>
	<path style="fill:#83D8DD;" d="M143.977,157.635h-94.48c-7.542,0-13.658-6.114-13.658-13.658c0-7.542,6.115-13.658,13.658-13.658   h80.822V49.496c0-7.544,6.115-13.658,13.658-13.658c7.542,0,13.658,6.114,13.658,13.658v94.481   C157.635,151.521,151.519,157.635,143.977,157.635z"/>
</g>
<path style="opacity:0.15;enable-background:new    ;" d="M130.319,119.894v10.425h-58.66l27.316,27.316h45.002  c6.542,0,12.003-4.602,13.339-10.744L130.319,119.894z"/>
<g>
	<path style="fill:#83D8DD;" d="M143.977,476.162c-7.542,0-13.658-6.114-13.658-13.658v-80.823H49.497   c-7.542,0-13.658-6.115-13.658-13.658c0-7.544,6.115-13.658,13.658-13.658h94.48c7.542,0,13.658,6.114,13.658,13.658v94.481   C157.635,470.047,151.519,476.162,143.977,476.162z"/>
	<path style="fill:#83D8DD;" d="M368.023,476.162c-7.542,0-13.658-6.114-13.658-13.658v-94.481c0-7.544,6.115-13.658,13.658-13.658   h94.48c7.542,0,13.658,6.114,13.658,13.658c0,7.542-6.115,13.658-13.658,13.658h-80.822v80.823   C381.681,470.047,375.567,476.162,368.023,476.162z"/>
</g>
<path style="opacity:0.15;enable-background:new    ;" d="M365.109,354.684c-6.142,1.336-10.744,6.796-10.744,13.339v45.003  l27.316,27.316v-58.661h10.424L365.109,354.684z"/>
<path style="fill:#D5EBEF;" d="M475.048,219.048H327.494l109.525-109.525c9.539-9.539,9.539-25.004,0-34.542l0,0  c-9.539-9.539-25.004-9.539-34.542,0L292.952,184.506V36.952C292.952,16.545,276.408,0,256,0s-36.952,16.545-36.952,36.952v147.553  L109.523,74.98c-9.539-9.539-25.004-9.539-34.542,0l0,0c-9.539,9.539-9.539,25.004,0,34.542l109.525,109.525H36.952  C16.545,219.048,0,235.592,0,256s16.545,36.953,36.952,36.953h147.553L74.98,402.478c-9.539,9.539-9.539,25.004,0,34.542l0,0  c9.539,9.539,25.004,9.539,34.542,0l109.525-109.525v147.553c0,20.408,16.544,36.952,36.952,36.952s36.952-16.545,36.952-36.952  V327.494l109.525,109.525c9.539,9.539,25.004,9.539,34.542,0c9.539-9.539,9.539-25.004,0-34.542L327.493,292.952h147.553  c20.408,0,36.953-16.545,36.953-36.953S495.457,219.048,475.048,219.048z"/>
<g>
	<path style="fill:#394049;" d="M277.305,276.615c-8.365,0-15.928-3.501-21.302-9.114c-5.374,5.614-12.937,9.114-21.302,9.114   c-16.266,0-29.498-13.233-29.498-29.498c0-4.526,3.668-8.195,8.195-8.195c4.527,0,8.195,3.669,8.195,8.195   c0,7.228,5.881,13.108,13.108,13.108c7.227,0,13.107-5.881,13.107-13.108c0-4.526,3.668-8.195,8.195-8.195   c4.527,0,8.195,3.669,8.195,8.195c0,7.228,5.881,13.108,13.107,13.108c7.228,0,13.108-5.881,13.108-13.108   c0-4.526,3.668-8.195,8.195-8.195c4.527,0,8.195,3.669,8.195,8.195C306.803,263.382,293.571,276.615,277.305,276.615z"/>
	<path style="fill:#394049;" d="M157.61,268.716c-4.527,0-8.195-3.669-8.195-8.195v-9.048c0-4.526,3.668-8.195,8.195-8.195   c4.527,0,8.195,3.669,8.195,8.195v9.048C165.804,265.047,162.137,268.716,157.61,268.716z"/>
	<path style="fill:#394049;" d="M354.397,268.716c-4.527,0-8.195-3.669-8.195-8.195v-9.048c0-4.526,3.668-8.195,8.195-8.195   c4.527,0,8.195,3.669,8.195,8.195v9.048C362.592,265.047,358.923,268.716,354.397,268.716z"/>
</g>
<path style="opacity:0.05;enable-background:new    ;" d="M80.068,71.108c-1.815,1.047-3.535,2.32-5.087,3.872l0,0  c-9.539,9.539-9.539,25.004,0,34.542l109.525,109.525h17.955L83.94,100.564C75.953,92.577,74.681,80.447,80.068,71.108z   M228.007,27.993c0-7.916,2.498-15.244,6.736-21.257c-9.49,6.688-15.695,17.725-15.695,30.217v147.553l8.96,8.944V27.993H228.007z   M83.94,428.061L83.94,428.061c-9.539-9.539-9.539-25.004,0-34.542l-8.96,8.96c-9.539,9.539-9.539,25.004,0,34.542  c9.539,9.539,25.004,9.539,34.542,0l8.96-8.96C108.944,437.598,93.479,437.598,83.94,428.061z M8.96,247.04  c0-7.916,2.498-15.244,6.735-21.257C6.205,232.472,0,243.508,0,256c0,20.408,16.545,36.953,36.953,36.953h147.553l8.958-8.96H45.911  C25.503,283.993,8.96,267.449,8.96,247.04z M484.007,283.993H318.553l8.96,8.96h147.536c12.492,0,23.529-6.205,30.217-15.695  C499.251,281.495,491.923,283.993,484.007,283.993z M411.437,428.061l-118.485-118.34v17.774L402.477,437.02  c9.539,9.539,25.004,9.539,34.542,0c1.552-1.552,2.824-3.272,3.871-5.087C431.553,437.32,419.423,436.047,411.437,428.061z   M228.007,466.089V318.536l-8.96,8.96v147.553c0,20.408,16.544,36.952,36.952,36.952c12.492,0,23.528-6.205,30.217-15.695  c-6.013,4.238-13.342,6.735-21.257,6.735C244.551,503.042,228.007,486.497,228.007,466.089z"/>
<g>
	<path style="opacity:0.4;fill:#FFFFFF;enable-background:new    ;" d="M260.16,0.239c-6.121,8.892-9.712,19.66-9.712,31.27   c0,26.119,18.14,47.988,42.506,53.734V36.952C292.952,17.951,278.608,2.307,260.16,0.239z"/>
	<path style="opacity:0.4;fill:#FFFFFF;enable-background:new    ;" d="M475.048,219.048h-43.224   c0.002,30.496,24.725,55.218,55.223,55.218c7.973,0,15.544-1.703,22.389-4.744C511.084,265.333,512,260.775,512,256   C512,235.592,495.457,219.048,475.048,219.048z"/>
	<path style="opacity:0.4;fill:#FFFFFF;enable-background:new    ;" d="M437.019,74.981L437.019,74.981   c-9.539-9.539-25.004-9.539-34.542,0l-9.881,9.881c-0.283,1.883-0.432,3.809-0.432,5.77c0,17.256,11.358,31.858,27.005,36.741   l17.849-17.849C446.558,99.984,446.558,84.519,437.019,74.981z"/>
</g>
<g>
</g>
<g>
</g>
<g>
</g>
<g>
</g>
<g>
</g>
<g>
</g>
<g>
</g>
<g>
</g>
<g>
</g>
<g>
</g>
<g>
</g>
<g>
</g>
<g>
</g>
<g>
</g>
<g>
</g>
</svg>
