<?xml version="1.0" encoding="iso-8859-1"?>
<!-- Generator: Adobe Illustrator 19.0.0, SVG Export Plug-In . SVG Version: 6.00 Build 0)  -->
<svg xmlns="http://www.w3.org/2000/svg" xmlns:xlink="http://www.w3.org/1999/xlink" version="1.1" id="Layer_1" x="0px" y="0px" viewBox="0 0 512 512" style="enable-background:new 0 0 512 512;" xml:space="preserve">
<circle style="fill:#F2E7BF;" cx="256" cy="256" r="256"/>
<path style="opacity:0.05;enable-background:new    ;" d="M182.538,10.717C118.85,29.764,65.581,72.925,33.334,129.616  c13.079,5.602,27.479,8.708,42.607,8.708c59.818,0,108.311-48.493,108.311-108.311C184.254,23.427,183.665,16.979,182.538,10.717z"/>
<circle style="opacity:0.05;enable-background:new    ;" cx="358.584" cy="364.417" r="56.16"/>
<circle style="opacity:0.05;enable-background:new    ;" cx="158.459" cy="344.528" r="100.83"/>
<path style="opacity:0.05;enable-background:new    ;" d="M280.692,487.308c-141.384,0-256-114.614-256-256  c0-64.408,23.793-123.255,63.06-168.248C33.98,109.99,0,179.023,0,256c0,141.384,114.616,256,256,256  c76.977,0,146.01-33.98,192.94-87.752C403.947,463.515,345.1,487.308,280.692,487.308z"/>
<g>
	<path style="fill:#394049;" d="M277.38,227.141c-8.394,0-15.984-3.513-21.376-9.146c-5.392,5.634-12.982,9.146-21.376,9.146   c-16.323,0-29.601-13.279-29.601-29.601c0-4.542,3.682-8.223,8.223-8.223c4.543,0,8.223,3.682,8.223,8.223   c0,7.253,5.901,13.154,13.154,13.154c7.252,0,13.153-5.901,13.153-13.154c0-4.542,3.681-8.223,8.223-8.223   c4.543,0,8.223,3.682,8.223,8.223c0,7.253,5.901,13.154,13.153,13.154c7.253,0,13.154-5.901,13.154-13.154   c0-4.542,3.681-8.223,8.223-8.223c4.542,0,8.223,3.682,8.223,8.223C306.981,213.862,293.703,227.141,277.38,227.141z"/>
	<path style="fill:#394049;" d="M157.265,173.824c-4.543,0-8.223-3.682-8.223-8.223v-9.08c0-4.542,3.681-8.223,8.223-8.223   c4.543,0,8.223,3.682,8.223,8.223v9.08C165.489,170.142,161.808,173.824,157.265,173.824z"/>
	<path style="fill:#394049;" d="M354.741,173.824c-4.543,0-8.223-3.682-8.223-8.223v-9.08c0-4.542,3.681-8.223,8.223-8.223   c4.542,0,8.223,3.682,8.223,8.223v9.08C362.965,170.142,359.283,173.824,354.741,173.824z"/>
</g>
<g>
</g>
<g>
</g>
<g>
</g>
<g>
</g>
<g>
</g>
<g>
</g>
<g>
</g>
<g>
</g>
<g>
</g>
<g>
</g>
<g>
</g>
<g>
</g>
<g>
</g>
<g>
</g>
<g>
</g>
</svg>
