<?xml version="1.0" encoding="iso-8859-1"?>
<!-- Generator: Adobe Illustrator 19.0.0, SVG Export Plug-In . SVG Version: 6.00 Build 0)  -->
<svg xmlns="http://www.w3.org/2000/svg" xmlns:xlink="http://www.w3.org/1999/xlink" version="1.1" id="Layer_1" x="0px" y="0px" viewBox="0 0 512.002 512.002" style="enable-background:new 0 0 512.002 512.002;" xml:space="preserve">
<g>
	<path style="fill:#394049;" d="M255.998,101.919c-7.51,0-13.597-6.087-13.597-13.597V35.444c0-7.51,6.087-13.597,13.597-13.597   c7.509,0,13.597,6.087,13.597,13.597v52.878C269.595,95.83,263.506,101.919,255.998,101.919z"/>
	<path style="fill:#394049;" d="M192,490.155c-42.787,0-77.598-34.81-77.598-77.598v-11.499h27.195v11.499   c0,27.792,22.611,50.403,50.403,50.403s50.403-22.611,50.403-50.403V240.556h27.195v172.001   C269.598,455.345,234.788,490.155,192,490.155z"/>
</g>
<path style="opacity:0.3;enable-background:new    ;" d="M141.598,412.558v-11.499h-27.195v11.499  c0,6.269,0.767,12.359,2.176,18.201h28.433C142.816,425.109,141.598,418.975,141.598,412.558z"/>
<path style="opacity:0.3;enable-background:new    ;" d="M242.403,240.556v39.355c4.481-0.395,9.013-0.618,13.597-0.618  c4.584,0,9.116,0.223,13.597,0.618v-39.355L242.403,240.556L242.403,240.556z"/>
<path style="fill:#F7C600;" d="M256.001,63.56c-121.492,0-223.919,81.564-255.546,192.92c-2.548,8.97,6.051,17.14,14.809,13.937  c16.366-5.986,34.043-9.252,52.482-9.252c32.635,0,62.879,10.232,87.703,27.662c3.852,2.704,8.998,2.704,12.85,0  c24.824-17.428,55.067-27.662,87.703-27.662c32.635,0,62.879,10.232,87.703,27.662c3.852,2.704,8.998,2.704,12.85,0  c24.823-17.429,55.067-27.662,87.703-27.662c18.439,0,36.115,3.267,52.482,9.252c8.757,3.202,17.356-4.967,14.809-13.937  C479.919,145.124,377.492,63.56,256.001,63.56z"/>
<path style="fill:#7DBF63;" d="M256.001,63.56c-121.492,0-223.919,81.564-255.546,192.92c-2.548,8.97,6.051,17.14,14.809,13.937  c16.366-5.986,34.043-9.252,52.482-9.252c32.635,0,62.879,10.232,87.703,27.662c3.852,2.704,8.998,2.704,12.85,0  c24.824-17.428,55.067-27.662,87.703-27.662c32.635,0,62.879,10.232,87.703,27.662c3.852,2.704,8.998,2.704,12.85,0  c24.823-17.429,55.067-27.662,87.703-27.662c18.439,0,36.115,3.267,52.482,9.252c8.757,3.202,17.356-4.967,14.809-13.937  C479.919,145.124,377.492,63.56,256.001,63.56z"/>
<path style="fill:#83D8DD;" d="M256.001,63.56c-121.492,0-223.919,81.566-255.545,192.92c-2.548,8.97,6.05,17.14,14.809,13.937  c16.366-5.986,34.043-9.252,52.482-9.252c32.635,0,62.879,10.232,87.703,27.662c1.716,1.205,3.69,1.842,5.692,1.973  C142.835,217.977,192.235,90.989,256.001,63.56z"/>
<g>
	<path style="fill:#F7D64C;" d="M256.001,63.56c-63.766,27.43-113.165,154.419-94.861,227.239c2.491,0.164,5.023-0.474,7.159-1.973   c24.824-17.428,55.067-27.662,87.703-27.662c32.635,0,62.879,10.232,87.703,27.662c2.136,1.5,4.668,2.137,7.159,1.973   C369.166,217.978,319.767,90.989,256.001,63.56z"/>
	<path style="fill:#F7D64C;" d="M143.021,358.557H112.98c-2.779,0-5.032,2.253-5.032,5.032v49.44c0,2.779,2.253,5.032,5.032,5.032   h30.041c2.779,0,5.032-2.253,5.032-5.032v-49.44C148.052,360.81,145.799,358.557,143.021,358.557z"/>
</g>
<path style="opacity:0.1;enable-background:new    ;" d="M118.788,412.254c-2.779,0-5.032-2.253-5.032-5.032v-48.664h-0.776  c-2.779,0-5.032,2.253-5.032,5.032v49.44c0,2.779,2.253,5.032,5.032,5.032h30.041c2.779,0,5.032-2.253,5.032-5.032v-0.776  L118.788,412.254L118.788,412.254z"/>
<path style="opacity:0.15;fill:#FFFFFF;enable-background:new    ;" d="M143.021,358.557h-9.779  c-1.328,3.02-2.071,6.356-2.071,9.866c0,10.876,7.081,20.092,16.882,23.306v-28.14C148.052,360.81,145.799,358.557,143.021,358.557z  "/>
<path style="opacity:0.1;enable-background:new    ;" d="M511.546,256.478c-0.232-0.817-0.481-1.628-0.721-2.442  c-2.142,0.662-4.535,0.66-6.939-0.239c-15.992-5.986-33.264-9.252-51.282-9.252c-31.888,0-64.841,10.232-89.096,27.662  c-3.764,2.705-8.792,2.705-12.556,0c-24.256-17.429-50.409-27.662-82.298-27.662s-75.038,10.232-99.294,27.662  c-3.764,2.705-8.792,2.705-12.556,0c-24.256-17.428-39.797-25.25-72.099-27.662c-17.968-1.342-35.289,3.267-51.282,9.252  c-8.557,3.203-16.959-4.967-14.47-13.937c11.487-41.393,32.541-78.664,60.551-109.165C42.29,163.811,14.444,207.227,0.455,256.478  c-2.548,8.97,6.05,17.14,14.809,13.937c16.366-5.986,34.043-9.252,52.482-9.252c32.635,0,62.879,10.232,87.703,27.662  c3.852,2.705,8.998,2.705,12.85,0c24.824-17.428,55.067-27.662,87.703-27.662c32.635,0,62.879,10.232,87.703,27.662  c3.852,2.704,8.999,2.704,12.85,0c24.823-17.429,55.067-27.662,87.703-27.662c18.44,0,36.115,3.267,52.482,9.252  C505.496,273.618,514.093,265.449,511.546,256.478z"/>
<g>
	<path style="opacity:0.2;fill:#FFFFFF;enable-background:new    ;" d="M338.917,76.769c13.61,56.312,64.325,98.144,124.818,98.144   c2.793,0,5.564-0.099,8.314-0.275C439.527,129.252,393.062,94.546,338.917,76.769z"/>
	<circle style="opacity:0.2;fill:#FFFFFF;enable-background:new    ;" cx="364.67" cy="215.077" r="32.371"/>
</g>
<g>
	<path style="fill:#394049;" d="M278.092,218.249c-8.705,0-16.562-3.69-22.092-9.59c-5.53,5.899-13.387,9.59-22.092,9.59   c-16.7,0-30.285-13.586-30.285-30.286c0-4.525,3.669-8.194,8.194-8.194c4.525,0,8.194,3.669,8.194,8.194   c0,7.664,6.235,13.899,13.897,13.899c7.664,0,13.899-6.235,13.899-13.899c0-4.525,3.669-8.194,8.194-8.194   c4.526,0,8.194,3.669,8.194,8.194c0,7.664,6.235,13.899,13.899,13.899s13.898-6.235,13.898-13.899c0-4.525,3.667-8.194,8.194-8.194   c4.525,0,8.194,3.669,8.194,8.194C308.378,204.663,294.791,218.249,278.092,218.249z"/>
	<path style="fill:#394049;" d="M127.96,163.149c-4.525,0-8.194-3.669-8.194-8.194v-9.383c0-4.525,3.669-8.194,8.194-8.194   s8.194,3.669,8.194,8.194v9.383C136.154,159.48,132.485,163.149,127.96,163.149z"/>
	<path style="fill:#394049;" d="M384.042,163.149c-4.525,0-8.194-3.669-8.194-8.194v-9.383c0-4.525,3.669-8.194,8.194-8.194   c4.526,0,8.194,3.669,8.194,8.194v9.383C392.235,159.48,388.567,163.149,384.042,163.149z"/>
</g>
<g>
</g>
<g>
</g>
<g>
</g>
<g>
</g>
<g>
</g>
<g>
</g>
<g>
</g>
<g>
</g>
<g>
</g>
<g>
</g>
<g>
</g>
<g>
</g>
<g>
</g>
<g>
</g>
<g>
</g>
</svg>
