<?xml version="1.0" encoding="iso-8859-1"?>
<!-- Generator: Adobe Illustrator 19.0.0, SVG Export Plug-In . SVG Version: 6.00 Build 0)  -->
<svg xmlns="http://www.w3.org/2000/svg" xmlns:xlink="http://www.w3.org/1999/xlink" version="1.1" id="Layer_1" x="0px" y="0px" viewBox="0 0 512.001 512.001" style="enable-background:new 0 0 512.001 512.001;" xml:space="preserve">
<path style="fill:#D5EBEF;" d="M460.66,227.927c0.554-3.649,0.844-7.385,0.844-11.19c0-40.816-33.088-73.904-73.904-73.904  c-8.604,0-16.856,1.485-24.536,4.188c-22.293-38.781-64.135-64.898-112.077-64.898c-57.463,0-106.153,37.522-122.932,89.398  C57.229,172.13,0,229.724,0,300.693c0,71.346,57.837,129.185,129.185,129.185h273.532c60.356,0,109.284-48.928,109.284-109.284  C512,281.523,491.494,247.248,460.66,227.927z"/>
<path style="opacity:0.1;enable-background:new    ;" d="M427.599,404.994H154.067c-71.346,0-129.184-57.838-129.184-129.185  c0-19.097,1.929-39.473,6.121-59.071C11.677,239.317,0,268.639,0,300.693c0,71.346,57.837,129.185,129.185,129.185h273.532  c36.529,0,68.867-17.926,88.711-45.457C473.469,397.364,451.426,404.994,427.599,404.994z"/>
<g>
	<path style="fill:#394049;" d="M277.785,341.033c-8.556,0-16.29-3.58-21.786-9.32c-5.495,5.741-13.23,9.32-21.786,9.32   c-16.633,0-30.165-13.533-30.165-30.165c0-4.628,3.752-8.38,8.38-8.38c4.628,0,8.38,3.752,8.38,8.38   c0,7.392,6.013,13.404,13.404,13.404c7.392,0,13.405-6.014,13.405-13.404c0-4.628,3.752-8.38,8.38-8.38s8.38,3.752,8.38,8.38   c0,7.392,6.014,13.404,13.405,13.404c7.392,0,13.404-6.014,13.404-13.404c0-4.628,3.752-8.38,8.38-8.38   c4.628,0,8.38,3.752,8.38,8.38C307.95,327.5,294.419,341.033,277.785,341.033z"/>
	<path style="fill:#394049;" d="M168.565,288.606c-4.628,0-8.38-3.752-8.38-8.38c0-2.65-2.157-4.806-4.807-4.806   c-2.65,0-4.807,2.157-4.807,4.806c0,4.628-3.752,8.38-8.38,8.38c-4.628,0-8.38-3.752-8.38-8.38   c0-11.892,9.675-21.567,21.568-21.567s21.568,9.675,21.568,21.567C176.945,284.854,173.193,288.606,168.565,288.606z"/>
	<path style="fill:#394049;" d="M369.81,288.606c-4.628,0-8.38-3.752-8.38-8.38c0-2.65-2.157-4.806-4.807-4.806   c-2.65,0-4.807,2.157-4.807,4.806c0,4.628-3.752,8.38-8.38,8.38c-4.628,0-8.38-3.752-8.38-8.38   c0-11.892,9.675-21.567,21.568-21.567c11.892,0,21.568,9.675,21.568,21.567C378.19,284.854,374.438,288.606,369.81,288.606z"/>
</g>
<g>
</g>
<g>
</g>
<g>
</g>
<g>
</g>
<g>
</g>
<g>
</g>
<g>
</g>
<g>
</g>
<g>
</g>
<g>
</g>
<g>
</g>
<g>
</g>
<g>
</g>
<g>
</g>
<g>
</g>
</svg>
