<?xml version="1.0" encoding="iso-8859-1"?>
<!-- Generator: Adobe Illustrator 19.0.0, SVG Export Plug-In . SVG Version: 6.00 Build 0)  -->
<svg xmlns="http://www.w3.org/2000/svg" xmlns:xlink="http://www.w3.org/1999/xlink" version="1.1" id="Layer_1" x="0px" y="0px" viewBox="0 0 512 512" style="enable-background:new 0 0 512 512;" xml:space="preserve">
<path style="fill:#E18C36;" d="M244.983,6.36l-59.672,103.356h141.377L267.016,6.36C262.12-2.12,249.88-2.12,244.983,6.36z"/>
<path style="fill:#EC8560;" d="M71.689,87.268l30.888,115.278l99.969-99.969L87.268,71.689  C77.809,69.154,69.154,77.809,71.689,87.268z"/>
<path style="fill:#E18C36;" d="M6.36,267.016l103.356,59.672V185.311L6.36,244.983C-2.12,249.88-2.12,262.12,6.36,267.016z"/>
<path style="fill:#EC8560;" d="M87.268,440.311l115.278-30.888l-99.969-99.969L71.689,424.732  C69.154,434.191,77.809,442.846,87.268,440.311z"/>
<path style="fill:#E18C36;" d="M267.016,505.639l59.672-103.356H185.311l59.672,103.356  C249.88,514.12,262.12,514.12,267.016,505.639z"/>
<path style="fill:#EC8560;" d="M440.311,424.732l-30.888-115.278l-99.969,99.969l115.278,30.888  C434.191,442.846,442.846,434.191,440.311,424.732z"/>
<path style="fill:#E18C36;" d="M505.639,244.983l-103.356-59.672v141.377l103.356-59.672  C514.12,262.12,514.12,249.88,505.639,244.983z"/>
<path style="fill:#EC8560;" d="M424.732,71.689l-115.278,30.888l99.969,99.969l30.888-115.278  C442.846,77.809,434.191,69.154,424.732,71.689z"/>
<path style="opacity:0.1;enable-background:new    ;" d="M96.734,180.74l5.843,21.806l92.581-92.581  C154.252,120.695,119.394,146.34,96.734,180.74z"/>
<path style="opacity:0.1;enable-background:new    ;" d="M86.379,198.785c-11.181,22.602-17.475,48.053-17.475,74.977  c0,10.591,0.982,20.952,2.842,31.005l37.97,21.922V185.311L86.379,198.785z"/>
<path style="opacity:0.1;enable-background:new    ;" d="M102.577,309.454l-12.443,46.439  c15.382,27.679,38.294,50.591,65.973,65.973l46.439-12.443L102.577,309.454z"/>
<path style="opacity:0.1;enable-background:new    ;" d="M185.311,402.283l21.922,37.97c10.052,1.86,20.414,2.842,31.005,2.842  c26.924,0,52.375-6.294,74.977-17.475l13.473-23.336H185.311V402.283z"/>
<path style="opacity:0.1;enable-background:new    ;" d="M309.454,409.423l21.805,5.843c34.399-22.659,60.046-57.517,70.775-98.423  L309.454,409.423z"/>
<circle style="fill:#F7D64C;" cx="255.999" cy="255.999" r="169.332"/>
<g>
	<path style="fill:#394049;" d="M277.206,299.615c-8.328,0-15.857-3.485-21.207-9.072c-5.349,5.589-12.878,9.072-21.207,9.072   c-16.191,0-29.363-13.173-29.363-29.364c0-4.505,3.652-8.158,8.158-8.158s8.158,3.652,8.158,8.158   c0,7.195,5.853,13.049,13.048,13.049c7.195,0,13.049-5.854,13.049-13.049c0-4.505,3.652-8.158,8.158-8.158s8.158,3.652,8.158,8.158   c0,7.195,5.854,13.049,13.049,13.049c7.195,0,13.048-5.854,13.048-13.049c0-4.505,3.652-8.158,8.158-8.158s8.158,3.652,8.158,8.158   C306.57,286.442,293.398,299.615,277.206,299.615z"/>
	<path style="fill:#394049;" d="M158.052,246.723c-4.505,0-8.158-3.652-8.158-8.158v-9.007c0-4.505,3.652-8.158,8.158-8.158   s8.158,3.652,8.158,8.158v9.007C166.209,243.07,162.557,246.723,158.052,246.723z"/>
	<path style="fill:#394049;" d="M353.948,246.723c-4.505,0-8.158-3.652-8.158-8.158v-9.007c0-4.505,3.652-8.158,8.158-8.158   s8.158,3.652,8.158,8.158v9.007C362.106,243.07,358.454,246.723,353.948,246.723z"/>
</g>
<path style="opacity:0.3;fill:#FFFFFF;enable-background:new    ;" d="M288.526,89.8c-5.151,10.192-8.071,21.704-8.071,33.903  c0,41.581,33.709,75.289,75.289,75.289c19.728,0,37.674-7.596,51.099-20.012C383.549,133.448,340.24,99.862,288.526,89.8z"/>
<g>
</g>
<g>
</g>
<g>
</g>
<g>
</g>
<g>
</g>
<g>
</g>
<g>
</g>
<g>
</g>
<g>
</g>
<g>
</g>
<g>
</g>
<g>
</g>
<g>
</g>
<g>
</g>
<g>
</g>
</svg>
