<svg height="478pt" viewBox="-57 0 478 478.57561" width="478pt" xmlns="http://www.w3.org/2000/svg"><path d="m254.1875 332.640625c-19.386719-.007813-35.109375 15.707031-35.109375 35.097656-.003906 19.386719 15.714844 35.105469 35.101563 35.101563 19.390624 0 35.105468-15.722656 35.097656-35.109375 0-19.378907-15.710938-35.089844-35.089844-35.089844zm53.449219-62.628906c45.523437 24.90625 67.742187 78.007812 53.519531 127.914062-14.21875 49.902344-61.09375 83.316407-112.910156 80.484375-57.769532-3.238281-104.738282-51.832031-105.277344-109.601562-.710938-41.136719 21.570312-79.242188 57.769531-98.796875v-216.5625c0-29.519531 23.929688-53.449219 53.449219-53.449219s53.449219 23.929688 53.449219 53.449219zm0 0" fill="#00efd1"/><path d="m254.1875 332.640625c19.386719-.007813 35.109375 15.707031 35.109375 35.097656.003906 19.386719-15.714844 35.105469-35.101563 35.101563-19.386718 0-35.101562-15.722656-35.097656-35.109375 0-19.378907 15.710938-35.089844 35.089844-35.089844zm0 0" fill="#00acea"/><path d="m17.996094 0c9.777344.00390625 17.703125 7.929688 17.703125 17.707031-.003907 9.777344-7.929688 17.703125-17.703125 17.703125-9.777344 0-17.707032-7.921875-17.707032-17.699218 0-9.78125 7.925782-17.710938 17.707032-17.710938zm0 0" fill="#fedb41"/><path d="m254.1875 410.828125c-23.804688.007813-43.105469-19.285156-43.109375-43.089844-.003906-23.804687 19.292969-43.105469 43.097656-43.109375 23.804688 0 43.101563 19.296875 43.101563 43.101563-.023438 23.789062-19.300782 43.070312-43.089844 43.097656zm0-70.1875c-14.96875-.007813-27.109375 12.125-27.109375 27.097656-.003906 14.96875 12.132813 27.105469 27.101563 27.101563 14.972656 0 27.105468-12.140625 27.097656-27.109375-.015625-14.953125-12.136719-27.074219-27.089844-27.089844zm0 0" fill="#00acea"/><g fill="#fedb41"><path d="m254.1875 340.640625c-4.417969 0-8-3.582031-8-8v-291.402344c0-4.417969 3.582031-8 8-8s8 3.582031 8 8v291.402344c0 4.417969-3.582031 8-8 8zm0 0"/><path d="m217.847656 239.28125h-17v16h17c4.417969 0 8-3.582031 8-8s-3.582031-8-8-8zm0 0"/><path d="m227.847656 209.28125h-27v16h27c4.417969 0 8-3.582031 8-8s-3.582031-8-8-8zm0 0"/><path d="m225.847656 187.28125c0-4.417969-3.582031-8-8-8h-17v16h17c4.417969 0 8-3.582031 8-8zm0 0"/><path d="m227.847656 149.28125h-27v16h27c4.417969 0 8-3.582031 8-8s-3.582031-8-8-8zm0 0"/><path d="m225.847656 127.28125c0-4.417969-3.582031-8-8-8h-17v16h17c4.417969 0 8-3.582031 8-8zm0 0"/><path d="m235.847656 97.28125c0-4.417969-3.582031-8-8-8h-27v16h27c4.417969 0 8-3.582031 8-8zm0 0"/><path d="m225.847656 67.28125c0-4.417969-3.582031-8-8-8h-17v16h17c4.417969 0 8-3.582031 8-8zm0 0"/></g><path d="m45.660156 51.308594c-21.644531 21.609375-28.117187 54.136718-16.398437 82.386718 11.722656 28.25 39.320312 46.644532 69.90625 46.585938h18.679687v-16h-18.679687c-32.933594-.023438-59.632813-26.707031-59.671875-59.640625.015625-15.792969 6.3125-30.933594 17.511718-42.070313 11.195313-11.140624 26.367188-17.359374 42.160157-17.289062h18.679687v-16h-18.679687c-20.0625-.105469-39.332031 7.828125-53.507813 22.027344zm0 0" fill="#f4b844"/></svg>