<svg height="486pt" viewBox="0 -17 486.06009 486" width="486pt" xmlns="http://www.w3.org/2000/svg"><path d="m419.621094 113.828125c0 .121094 0-.207031-.011719.53125h.011719c0 27.34375-22.167969 49.511719-49.511719 49.511719h-33.558594l-.140625.070312c-10.585937-18.515625-30.285156-29.929687-51.609375-29.902344-3.828125-.089843-7.652343.199219-11.421875.859376.011719-.429688.011719-.847657.011719-1.269532.023437-33.863281-17.09375-65.4375-45.480469-83.898437 9.597656-30.019531 37.726563-50.210938 69.242188-49.6914065 31.511718.5195315 58.964844 21.6210935 67.566406 51.9414065 31.320312 3.742187 54.902344 30.304687 54.902344 61.847656zm0 0" fill="#00efd1"/><path d="m227.910156 49.730469c28.386719 18.460937 45.503906 50.035156 45.480469 83.898437 0 .421875 0 .839844-.011719 1.269532 3.769532-.660157 7.59375-.949219 11.421875-.859376 15.820313 0 30.988281 6.300782 42.148438 17.507813 11.164062 11.210937 17.40625 26.402344 17.339843 42.222656h.171876c.003906 38.324219-31.066407 69.394531-69.390626 69.390625h-205.679687c-38.324219.003906-69.39453125-31.066406-69.390625-69.390625h.0117188c-.0117188-.628906-.0117188-.710937-.0117188-.710937v-.027344c-.00390625-44.207031 33.035156-81.441406 76.929688-86.691406 8.691406-30.605469 31.402343-55.261719 61.195312-66.433594 29.789062-11.171875 63.113281-7.523438 89.785156 9.824219zm0 0" fill="#00acea"/><g fill="#f4b844"><path d="m451.261719 295.289062c-4.421875 0-8 3.582032-8 8 0 4.417969 3.578125 8 8 8 5.007812-.011718 9.8125 1.976563 13.351562 5.519532 3.542969 3.542968 5.523438 8.351562 5.507813 13.363281-.050782 10.460937-8.558594 18.90625-19.019532 18.878906h-376.050781c-4.417969 0-8 3.582031-8 8s3.582031 8 8 8h376.050781c19.261719.042969 34.914063-15.535156 34.957032-34.800781.046875-19.265625-15.535156-34.914062-34.796875-34.960938zm0 0"/><path d="m75.050781 333.050781h246.597657c9.5.058594 18.300781-4.980469 23.054687-13.203125 4.753906-8.21875 4.734375-18.359375-.054687-26.5625-4.789063-8.203125-13.609376-13.207031-23.109376-13.105468-4.417968 0-8 3.582031-8 8 0 4.417968 3.582032 8 8 8 5.832032-.0625 10.613282 4.601562 10.691407 10.429687.011719 2.796875-1.105469 5.480469-3.09375 7.445313-1.992188 1.964843-4.691407 3.042968-7.488281 2.996093h-246.597657c-4.417969 0-8 3.582031-8 8s3.582031 8 8 8zm0 0"/><path d="m381.199219 436.050781c-4.417969 0-8 3.582031-8 8s3.582031 8 8 8c19.332031-.0625 34.953125-15.78125 34.890625-35.109375-.0625-19.332031-15.78125-34.953125-35.109375-34.890625h-305.929688c-4.417969 0-8 3.582031-8 8s3.582031 8 8 8h305.929688c10.492187-.0625 19.046875 8.394531 19.109375 18.890625.0625 10.492188-8.394532 19.046875-18.890625 19.109375zm0 0"/></g></svg>