<svg height="476pt" viewBox="-34 0 476 476.64" width="476pt" xmlns="http://www.w3.org/2000/svg"><path d="m204.25 0c112.429688 0 203.929688 87.308594 203.929688 194.960938 0 151.308593-203.929688 281.679687-203.929688 281.679687s-203.929688-130.371094-203.929688-281.679687c0-107.652344 91.5-194.960938 203.929688-194.960938zm148.890625 200.328125c-.007813-82.226563-66.667969-148.882813-148.898437-148.878906-82.226563.003906-148.882813 66.664062-148.882813 148.894531.003906 82.226562 66.664063 148.886719 148.890625 148.886719 82.234375 0 148.894531-66.667969 148.890625-148.902344zm0 0" fill="#00efd1"/><path d="m204.25 51.441406c82.238281-.007812 148.90625 66.65625 148.910156 148.894532 0 82.238281-66.664062 148.90625-148.902344 148.902343-82.238281 0-148.902343-66.671875-148.898437-148.910156 0-82.226563 66.660156-148.886719 148.890625-148.886719zm0 0" fill="#fedb41"/><path d="m306.078125 216.988281h.113281c0 22.683594-18.386718 41.074219-41.070312 41.070313h-121.742188c-22.683594.003906-41.070312-18.386719-41.070312-41.070313h.011718c-.011718-.367187-.011718-.417969-.011718-.417969v-.011718c-.003906-26.167969 19.558594-48.207032 45.542968-51.308594 8.066407-28.449219 35.867188-46.59375 65.15625-42.527344 29.289063 4.0625 51.097657 29.097656 51.113282 58.667969v.757813c2.230468-.390626 4.496094-.5625 6.757812-.507813 9.363282 0 18.339844 3.726563 24.945313 10.363281 6.605469 6.632813 10.296875 15.625 10.253906 24.984375zm0 0" fill="#00acea"/></svg>