<svg height="469pt" viewBox="0 -87 469.14 469" width="469pt" xmlns="http://www.w3.org/2000/svg"><path d="m469.140625 127.332031v.570313c0 30.570312-24.78125 55.355468-55.351563 55.359375h-37.519531l-.160156.078125c-11.824219-20.703125-33.847656-33.46875-57.6875-33.4375-4.28125-.101563-8.558594.222656-12.773437.957031.011718-.480469.011718-.949219.011718-1.417969.03125-37.859375-19.109375-73.160156-50.851562-93.789062 10.726562-33.570313 42.175781-56.148438 77.410156-55.5703128 35.234375.5742188 65.929688 24.1679688 75.550781 58.0703128 35.019531 4.1875 61.375 33.890625 61.371094 69.15625zm0 0" fill="#00efd1"/><path d="m254.808594 55.652344c31.742187 20.628906 50.882812 55.929687 50.851562 93.789062 0 .46875 0 .9375-.011718 1.417969 4.214843-.734375 8.492187-1.058594 12.773437-.957031 17.679687.003906 34.636719 7.050781 47.113281 19.582031 12.476563 12.53125 19.453125 29.511719 19.386719 47.195313h.199219c0 42.847656-34.734375 77.585937-77.582032 77.589843h-229.960937c-42.847656 0-77.58203125-34.738281-77.578125-77.589843h.0117188c-.0117188-.699219-.0117188-.789063-.0117188-.789063v-.03125c-.00390625-49.421875 36.9375-91.050781 86.011719-96.917969 9.710937-34.222656 35.101562-61.792968 68.410156-74.285156 33.308594-12.488281 70.570313-8.40625 100.386719 10.996094zm0 0" fill="#00acea"/></svg>