<svg height="495pt" viewBox="0 -4 495.92 495" width="495pt" xmlns="http://www.w3.org/2000/svg"><path d="m184.808594 127.730469c0 31.667969-25.671875 57.339843-57.339844 57.339843s-57.339844-25.671874-57.339844-57.339843 25.671875-57.339844 57.339844-57.339844 57.339844 25.671875 57.339844 57.339844zm0 0" fill="#fedb41"/><path d="m463.421875 172.460938h-273.933594c-4.417969 0-8 3.582031-8 8 0 4.417968 3.582031 8 8 8h273.933594c4.324219-.019532 8.476563 1.683593 11.542969 4.734374 3.066406 3.046876 4.796875 7.191407 4.804687 11.515626.011719 4.394531-1.707031 8.617187-4.78125 11.757812-3.042969 3.128906-7.203125 4.925781-11.566406 4.992188h-251.761719c-8.550781-.046876-16.769531 3.3125-22.839844 9.332031-6.070312 6.023437-9.492187 14.214843-9.511718 22.765625-.019532 8.523437 3.398437 16.691406 9.480468 22.65625 6.078126 6.015625 14.316407 9.347656 22.871094 9.246094h210.03125c9.109375 0 16.5 7.386718 16.5 16.5 0 9.113281-7.390625 16.5-16.5 16.5h-175.261718c-17.949219 0-32.5 14.550781-32.5 32.5 0 17.949218 14.550781 32.5 32.5 32.5h147.441406c4.308594-.046876 8.460937 1.628906 11.53125 4.65625 3.066406 3.027343 4.800781 7.152343 4.816406 11.460937.011719 4.269531-1.714844 8.359375-4.785156 11.324219-3.085938 3.011718-7.253906 4.65625-11.5625 4.558594h-77.199219c-17.96875.109374-32.519531 14.621093-32.671875 32.589843v32.277344c0 4.421875 3.582031 8 8 8s8-3.578125 8-8v-32.277344c.144531-9.132812 7.535156-16.492187 16.671875-16.589843h77.199219c8.566406.070312 16.804687-3.296876 22.867187-9.347657 6.085938-5.941406 9.507813-14.089843 9.480469-22.59375-.019531-8.546875-3.445312-16.730469-9.515625-22.746093-6.070313-6.015626-14.285156-9.367188-22.832031-9.3125h-147.441406c-9.113282 0-16.5-7.386719-16.5-16.5 0-9.113282 7.386718-16.5 16.5-16.5h175.261718c17.949219 0 32.5-14.550782 32.5-32.5 0-17.949219-14.550781-32.5-32.5-32.5h-210.03125c-4.328125.042968-8.492187-1.644532-11.5625-4.691407-3.066406-2.945312-4.796875-7.011719-4.789062-11.261719.019531-4.304687 1.757812-8.421874 4.828125-11.433593 3.070312-3.015625 7.21875-4.675781 11.523437-4.613281h251.761719c17.949219 0 32.5-14.550782 32.5-32.5 0-17.949219-14.550781-32.5-32.5-32.5zm0 0" fill="#f4b844"/><path d="m427 211.460938c4.417969 0 8-3.582032 8-8 0-4.417969-3.582031-8-8-8h-203c-4.417969 0-8 3.582031-8 8 0 4.417968 3.582031 8 8 8zm0 0" fill="#f4b844"/><path d="m245 243.460938c-4.417969 0-8 3.582031-8 8 0 4.417968 3.582031 8 8 8h163c4.417969 0 8-3.582032 8-8 0-4.417969-3.582031-8-8-8zm0 0" fill="#f4b844"/><path d="m386 309.460938c4.417969 0 8-3.582032 8-8 0-4.417969-3.582031-8-8-8h-135c-4.417969 0-8 3.582031-8 8 0 4.417968 3.582031 8 8 8zm0 0" fill="#f4b844"/><path d="m282 343.460938c-4.417969 0-8 3.582031-8 8 0 4.417968 3.582031 8 8 8h104c4.417969 0 8-3.582032 8-8 0-4.417969-3.582031-8-8-8zm0 0" fill="#f4b844"/><path d="m356 407.460938c4.417969 0 8-3.582032 8-8 0-4.417969-3.582031-8-8-8h-52c-4.417969 0-8 3.582031-8 8 0 4.417968 3.582031 8 8 8zm0 0" fill="#f4b844"/><g fill="#fedb41"><path d="m127 49.460938c-4.417969 0-8-3.582032-8-8v-33c0-4.417969 3.582031-8 8-8s8 3.582031 8 8v33c0 4.417968-3.582031 8-8 8zm0 0"/><path d="m127 254.460938c-4.417969 0-8-3.582032-8-8v-33c0-4.417969 3.582031-8 8-8s8 3.582031 8 8v33c0 4.417968-3.582031 8-8 8zm0 0"/><path d="m246 135.460938h-33c-4.417969 0-8-3.582032-8-8 0-4.417969 3.582031-8 8-8h33c4.417969 0 8 3.582031 8 8 0 4.417968-3.582031 8-8 8zm0 0"/><path d="m41 135.460938h-33c-4.417969 0-8-3.582032-8-8 0-4.417969 3.582031-8 8-8h33c4.417969 0 8 3.582031 8 8 0 4.417968-3.582031 8-8 8zm0 0"/><path d="m188.410156 74.789062c-3.234375 0-6.152344-1.949218-7.390625-4.9375-1.238281-2.988281-.554687-6.429687 1.734375-8.71875l23.167969-23.167968c3.125-3.125 8.191406-3.125 11.316406 0 3.121094 3.121094 3.121094 8.1875 0 11.3125l-23.171875 23.167968c-1.5 1.503907-3.535156 2.347657-5.65625 2.34375zm0 0"/><path d="m43.359375 219.839844c-3.234375 0-6.152344-1.949219-7.390625-4.9375-1.242188-2.988282-.554688-6.429688 1.730469-8.71875l23.160156-23.167969c3.125-3.125 8.1875-3.128906 11.3125-.003906s3.128906 8.1875.003906 11.3125l-23.160156 23.171875c-1.496094 1.503906-3.535156 2.34375-5.65625 2.34375zm0 0"/><path d="m66.519531 74.789062c-2.121093.003907-4.160156-.839843-5.660156-2.34375l-23.160156-23.167968c-3.125-3.128906-3.125-8.195313.003906-11.320313 3.125-3.125 8.191406-3.121093 11.316406.003907l23.160157 23.167968c2.289062 2.289063 2.972656 5.730469 1.734374 8.722656-1.238281 2.992188-4.15625 4.941407-7.394531 4.9375zm0 0"/></g></svg>