<svg height="470pt" viewBox="-8 0 470 470.44" width="470pt" xmlns="http://www.w3.org/2000/svg"><path d="m307.75 112.558594-58.070312 32.269531c-.988282-10.78125-3.808594-21.320313-8.328126-31.15625zm0 0" fill="#00efd1"/><path d="m307.75 194.96875-66.398438-1.097656c4.519532-9.839844 7.339844-20.378906 8.328126-31.160156zm0 0" fill="#00efd1"/><path d="m266.558594 41.199219-34.167969 56.972656c-6.269531-8.832031-13.980469-16.539063-22.8125-22.800781zm0 0" fill="#00efd1"/><path d="m232.390625 209.359375 34.167969 56.980469-56.980469-34.167969c8.835937-6.265625 16.546875-13.976563 22.8125-22.8125zm0 0" fill="#00efd1"/><path d="m249.679688 144.828125c.269531 2.941406.40625 5.921875.410156 8.941406 0 3.019531-.140625 5.992188-.410156 8.941407-4.269532 46.027343-40.722657 82.480468-86.75 86.75-2.949219.277343-5.917969.410156-8.941407.410156-3.019531 0-6-.132813-8.9375-.410156-10.785156-.992188-21.320312-3.808594-31.160156-8.332032-15.332031-7.046875-28.539063-18.003906-38.300781-31.769531-9.777344-13.75-15.742188-29.847656-17.289063-46.648437-.28125-2.949219-.421875-5.921876-.421875-8.941407s.140625-6 .421875-8.941406c.980469-10.785156 3.796875-21.320313 8.328125-31.15625 9.609375-20.890625 26.371094-37.65625 47.261719-47.261719 9.835937-4.53125 20.375-7.347656 31.160156-8.332031 2.9375-.277344 5.917969-.417969 8.9375-.417969 3.023438 0 5.992188.140625 8.941407.417969 16.804687 1.546875 32.898437 7.511719 46.648437 17.292969 22.871094 16.1875 37.519531 41.5625 40.101563 69.457031zm0 0" fill="#fedb41"/><g fill="#00efd1"><path d="m195.191406 0-1.101562 66.410156c-9.835938-4.53125-20.375-7.347656-31.160156-8.332031zm0 0"/><path d="m194.089844 241.128906 1.101562 66.402344-32.261718-58.070312c10.785156-.992188 21.320312-3.808594 31.160156-8.332032zm0 0"/><path d="m112.78125 0 32.269531 58.078125c-10.785156.984375-21.324219 3.800781-31.160156 8.332031zm0 0"/><path d="m145.050781 249.460938-32.269531 58.070312 1.109375-66.402344c9.839844 4.523438 20.375 7.339844 31.160156 8.332032zm0 0"/><path d="m41.421875 41.199219 56.96875 34.171875c-8.828125 6.265625-16.535156 13.972656-22.800781 22.800781zm0 0"/><path d="m98.390625 232.171875-56.96875 34.167969 34.167969-56.980469c6.261718 8.832031 13.972656 16.542969 22.800781 22.8125zm0 0"/><path d="m.21875 112.558594 66.410156 1.113281c-4.53125 9.835937-7.347656 20.371094-8.328125 31.15625zm0 0"/><path d="m66.628906 193.871094-66.410156 1.097656 58.082031-32.257812c.980469 10.785156 3.796875 21.324218 8.328125 31.160156zm0 0"/></g><path d="m420.960938 319.988281c-4.417969 0-8 3.582031-8 8 0 4.421875 3.582031 8 8 8 9.757812.042969 17.636718 7.988281 17.59375 17.746094-.042969 9.757813-7.984376 17.636719-17.746094 17.59375h-358.457032c-4.417968 0-8 3.582031-8 8 0 4.421875 3.582032 8 8 8h358.457032c18.597656.042969 33.703125-14.996094 33.746094-33.59375.042968-18.59375-15-33.703125-33.59375-33.746094zm0 0" fill="#f4b844"/><path d="m62.351562 357.328125h235.070313c14.214844-.027344 25.71875-11.578125 25.6875-25.796875s-11.582031-25.722656-25.800781-25.691406c-4.417969 0-8 3.582031-8 8 0 4.417968 3.582031 8 8 8 5.382812-.03125 9.769531 4.308594 9.800781 9.691406.03125 5.378906-4.308594 9.769531-9.6875 9.796875h-235.070313c-4.417968 0-8 3.582031-8 8 0 4.421875 3.582032 8 8 8zm0 0" fill="#f4b844"/><path d="m353.960938 403.328125h-291.609376c-4.417968 0-8 3.582031-8 8 0 4.421875 3.582032 8 8 8h291.609376c6.308593-.09375 12.179687 3.207031 15.382812 8.640625s3.246094 12.167969.113281 17.640625c-3.136719 5.476563-8.96875 8.84375-15.277343 8.832031-4.417969 0-8 3.582032-8 8 0 4.417969 3.582031 8 8 8 18.53125-.0625 33.507812-15.132812 33.445312-33.667968-.0625-18.53125-15.132812-33.503907-33.664062-33.445313zm0 0" fill="#f4b844"/></svg>