<svg height="470pt" viewBox="0 -54 470.33684 470" width="470pt" xmlns="http://www.w3.org/2000/svg"><path d="m458.71875 192.46875c35.261719 60.480469-14.558594 136.488281-84.738281 136.488281-13.828125.015625-27.492188-2.984375-40.039063-8.789062l-.011718-.007813c37.898437-39.3125 51.890624-99.421875 21.570312-151.433594l-24.75-34.667968.128906-.101563 43.101563-60.199219zm0 0" fill="#00efd1"/><path d="m136.421875 320.148438c-37.910156-39.351563-51.902344-99.578126-21.582031-151.878907l24.53125-34.269531 95.800781-133.832031 95.578125 133.890625 24.75 34.667968c30.320312 52.011719 16.328125 112.121094-21.570312 151.433594-24.660157 25.597656-59.460938 42.386719-98.757813 42.386719-38.53125 0-72.742187-16.128906-97.3125-40.917969-.480469-.492187-.96875-.980468-1.4375-1.480468zm0 0" fill="#00acea"/><path d="m96.359375 73.757812 43.011719 60.242188-24.53125 34.269531c-30.320313 52.300781-16.328125 112.527344 21.582031 151.878907-12.554687 5.816406-26.226563 8.824218-40.0625 8.808593-54.257813 0-96.359375-45.4375-96.359375-94.167969.015625-14.996093 4.027344-29.71875 11.621094-42.652343zm0 0" fill="#00efd1"/></svg>