<svg height="478pt" viewBox="-57 0 478 478.57561" width="478pt" xmlns="http://www.w3.org/2000/svg"><path d="m254.1875 332.640625c-19.386719-.007813-35.109375 15.707031-35.109375 35.097656-.003906 19.386719 15.714844 35.105469 35.101563 35.101563 19.390624 0 35.105468-15.722656 35.097656-35.109375 0-19.378907-15.710938-35.089844-35.089844-35.089844zm53.449219-62.628906c45.523437 24.90625 67.742187 78.007812 53.519531 127.914062-14.21875 49.902344-61.09375 83.316407-112.910156 80.484375-57.769532-3.238281-104.738282-51.832031-105.277344-109.601562-.710938-41.136719 21.570312-79.242188 57.769531-98.796875v-216.5625c0-29.519531 23.929688-53.449219 53.449219-53.449219s53.449219 23.929688 53.449219 53.449219zm0 0" fill="#00efd1"/><path d="m254.1875 332.640625c19.386719-.007813 35.109375 15.707031 35.109375 35.097656.003906 19.386719-15.714844 35.105469-35.101563 35.101563-19.386718 0-35.101562-15.722656-35.097656-35.109375 0-19.378907 15.710938-35.089844 35.089844-35.089844zm0 0" fill="#00acea"/><path d="m42.167969 20.941406c0 11.5625-9.375 20.9375-20.941407 20.9375-11.5625 0-20.9375-9.375-20.9375-20.9375 0-11.566406 9.375-20.941406 20.9375-20.941406 11.566407 0 20.941407 9.375 20.941407 20.941406zm0 0" fill="#fedb41"/><path d="m254.1875 410.828125c-23.804688.007813-43.105469-19.285156-43.109375-43.089844-.003906-23.804687 19.292969-43.105469 43.097656-43.109375 23.804688 0 43.101563 19.296875 43.101563 43.101563-.023438 23.789062-19.300782 43.070312-43.089844 43.097656zm0-70.1875c-14.96875-.007813-27.109375 12.125-27.109375 27.097656-.003906 14.96875 12.132813 27.105469 27.101563 27.101563 14.972656 0 27.105468-12.140625 27.097656-27.109375-.015625-14.953125-12.136719-27.074219-27.089844-27.089844zm0 0" fill="#00acea"/><g fill="#fedb41"><path d="m254.1875 340.640625c-4.417969 0-8-3.582031-8-8v-291.402344c0-4.417969 3.582031-8 8-8s8 3.582031 8 8v291.402344c0 4.417969-3.582031 8-8 8zm0 0"/><path d="m217.847656 239.28125h-17v16h17c4.417969 0 8-3.582031 8-8s-3.582031-8-8-8zm0 0"/><path d="m227.847656 209.28125h-27v16h27c4.417969 0 8-3.582031 8-8s-3.582031-8-8-8zm0 0"/><path d="m225.847656 187.28125c0-4.417969-3.582031-8-8-8h-17v16h17c4.417969 0 8-3.582031 8-8zm0 0"/><path d="m227.847656 149.28125h-27v16h27c4.417969 0 8-3.582031 8-8s-3.582031-8-8-8zm0 0"/><path d="m225.847656 127.28125c0-4.417969-3.582031-8-8-8h-17v16h17c4.417969 0 8-3.582031 8-8zm0 0"/><path d="m235.847656 97.28125c0-4.417969-3.582031-8-8-8h-27v16h27c4.417969 0 8-3.582031 8-8zm0 0"/><path d="m225.847656 67.28125c0-4.417969-3.582031-8-8-8h-17v16h17c4.417969 0 8-3.582031 8-8zm0 0"/></g><path d="m37.847656 60.738281v142.542969h16v-71h78v-16h-78v-48h78v-16h-86.339844c-4.417968 0-7.660156 4.039062-7.660156 8.457031zm0 0" fill="#f4b844"/></svg>