<svg height="453pt" viewBox="-15 0 453 453.95817" width="453pt" xmlns="http://www.w3.org/2000/svg"><path d="m246.839844 281.527344h-161.28125c-46.984375.003906-85.078125-38.082032-85.078125-85.070313h.007812c-.007812-.777343-.007812-.867187-.007812-.867187v-.042969c-.007813-54.195313 40.503906-99.84375 94.320312-106.277344 16.710938-58.933593 74.316407-96.527343 134.992188-88.101562s105.851562 60.292969 105.875 121.550781c0 .519531 0 1.03125-.019531 1.558594 4.625-.8125 9.316406-1.167969 14.011718-1.058594 19.394532 0 37.992188 7.722656 51.675782 21.46875 13.683593 13.746094 21.328124 32.375 21.242187 51.769531h.222656c-.003906 46.988281-38.097656 85.074219-85.082031 85.070313zm0 0" fill="#00acea"/><path d="m269.539062 318.15625-82.96875 135.800781 4.910157-84.078125h-37.742188l10.101563-88.351562h83l-23.289063 36.628906zm0 0" fill="#00efd1"/></svg>