<svg height="418pt" viewBox="-17 0 418 418.34" width="418pt" xmlns="http://www.w3.org/2000/svg"><path d="m383.570312 301.421875c-30.449218 68.71875-101.230468 116.917969-183.710937 116.917969-110.269531 0-199.6875-86.140625-199.6875-192.378906 0-79.460938 50.027344-147.652344 121.367187-176.980469-10.578124 23.75-16.023437 49.460937-15.980468 75.460937 0 106.230469 89.421875 192.378906 199.691406 192.378906 26.863281.0625 53.476562-5.171874 78.320312-15.398437zm0 0" fill="#00acea"/><path d="m278.328125 0-35.007813 52.488281 30.628907 52.5-48.109375-35.019531-52.5 35.019531 35.019531-52.5-35.019531-52.488281 52.5 35.019531zm0 0" fill="#00efd1"/></svg>