<svg height="466pt" viewBox="0 0 466.36 466" width="466pt" xmlns="http://www.w3.org/2000/svg"><path d="m466.359375 105.378906c-11.570313 26.109375-37.121094 45.121094-67.597656 48.261719-2.976563.304687-5.960938.457031-8.953125.460937-45.949219 0-83.207032-35.902343-83.207032-80.171874-.015624-11.109376 2.371094-22.09375 6.988282-32.199219 8.738281-18.871094 24.3125-33.722657 43.582031-41.550781-4.40625 9.898437-6.671875 20.617187-6.652344 31.449218 0 44.261719 37.261719 80.160156 83.210938 80.160156 11.191406.03125 22.28125-2.148437 32.628906-6.410156zm0 0" fill="#d4e1f4"/><path d="m398.761719 153.640625.007812.078125c-4.980469 21.375-24.03125 36.5-45.980469 36.5h-31.988281l-.128906.070312c-10.085937-17.652343-28.863281-28.535156-49.191406-28.507812-3.648438-.085938-7.296875.191406-10.890625.820312.011718-.410156.011718-.8125.011718-1.210937.023438-32.277344-16.292968-62.375-43.351562-79.96875 6.117188-19.136719 20.367188-34.59375 38.941406-42.246094 18.574219-7.652343 39.578125-6.714843 57.398438 2.554688-4.617188 10.105469-7.003906 21.089843-6.988282 32.199219 0 44.269531 37.257813 80.171874 83.207032 80.171874 2.992187-.003906 5.976562-.15625 8.953125-.460937zm0 0" fill="#00efd1"/><path d="m217.25 81.421875c27.058594 17.59375 43.375 47.691406 43.351562 79.96875 0 .398437 0 .800781-.011718 1.210937 3.59375-.628906 7.242187-.90625 10.890625-.820312 15.078125.003906 29.535156 6.011719 40.171875 16.695312 10.640625 10.683594 16.585937 25.164063 16.527344 40.242188h.171874c0 36.535156-29.617187 66.152344-66.152343 66.152344h-196.058594c-36.53125-.003906-66.14453125-29.621094-66.140625-66.152344h.0117188c-.0117188-.597656-.0117188-.667969-.0117188-.667969v-.03125c-.0078125-42.140625 31.488281-77.632812 73.328125-82.640625 8.289063-29.171875 29.9375-52.675781 58.335937-63.320312 28.398438-10.648438 60.164063-7.171875 85.585938 9.363281zm0 0" fill="#00acea"/><g fill="#f4b844"><path d="m429.96875 315.488281c-4.417969 0-8 3.582031-8 8 0 4.421875 3.582031 8 8 8 9.820312-.007812 17.789062 7.945313 17.796875 17.765625.007813 9.820313-7.945313 17.789063-17.765625 17.796875h-358.820312c-4.417969 0-8 3.582031-8 8s3.582031 8 8 8h358.820312c18.65625-.007812 33.773438-15.140625 33.765625-33.796875s-15.140625-33.773437-33.796875-33.765625zm0 0"/><path d="m71.179688 353.050781h235.429687c14.210937-.175781 25.617187-11.789062 25.535156-26-.078125-14.210937-11.613281-25.695312-25.824219-25.710937-4.417968 0-8 3.582031-8 8 0 4.417968 3.582032 8 8 8 5.425782.054687 9.820313 4.421875 9.910157 9.851562.058593 5.375-4.242188 9.785156-9.621094 9.859375h-235.429687c-4.417969 0-8 3.582031-8 8s3.582031 8 8 8zm0 0"/><path d="m363.160156 399.050781h-291.980468c-4.417969 0-8 3.582031-8 8s3.582031 8 8 8h291.980468c9.699219-.0625 17.617188 7.742188 17.699219 17.4375.023437 4.675781-1.839844 9.160157-5.164063 12.441407-3.324218 3.285156-7.832031 5.089843-12.503906 5.011718-4.417968 0-8 3.582032-8 8 0 4.417969 3.582032 8 8 8 12.007813.085938 23.144532-6.273437 29.171875-16.660156 6.027344-10.390625 6.019531-23.214844-.015625-33.597656-6.035156-10.382813-17.175781-16.730469-29.1875-16.632813zm0 0"/></g></svg>