<svg height="469pt" viewBox="0 -32 469.14 469" width="469pt" xmlns="http://www.w3.org/2000/svg"><path d="m469.140625 238.328125v.570313c0 30.574218-24.78125 55.359374-55.351563 55.363281h-37.519531l-.160156.078125c-11.824219-20.703125-33.847656-33.46875-57.6875-33.441406-4.28125-.097657-8.558594.226562-12.773437.960937.011718-.480469.011718-.9375.011718-1.417969.03125-37.859375-19.109375-73.160156-50.851562-93.792968 6.816406-21.300782 22.234375-38.773438 42.519531-48.1875 14.933594 25.699218 43.460937 43.078124 76.210937 43.078124 10.039063.015626 20.011719-1.652343 29.5-4.929687 1.929688 4.042969 3.511719 8.242187 4.730469 12.550781 35.015625 4.183594 61.375 33.882813 61.371094 69.148438zm0 0" fill="#00efd1"/><path d="m297.328125 118.460938c-7.265625-12.449219-11.089844-26.605469-11.078125-41.019532 0-34.742187 21.871094-64.550781 53.050781-77.3710935-4.621093 10.3828125-7 21.6249995-6.980469 32.9882815 0 46.441406 39.089844 84.101562 87.289063 84.101562 11.746094.023438 23.378906-2.261718 34.242187-6.730468-9.820312 21.761718-28.214843 38.480468-50.8125 46.179687-9.488281 3.277344-19.460937 4.945313-29.5 4.929687-32.75 0-61.277343-17.378906-76.210937-43.078124zm0 0" fill="#d4e1f4"/><path d="m254.808594 166.648438c31.742187 20.632812 50.882812 55.933593 50.851562 93.792968 0 .480469 0 .9375-.011718 1.417969 4.214843-.734375 8.492187-1.058594 12.773437-.960937 17.679687.007812 34.636719 7.054687 47.113281 19.585937 12.476563 12.53125 19.453125 29.511719 19.386719 47.195313h.199219c0 42.847656-34.734375 77.585937-77.582032 77.589843h-229.960937c-42.847656 0-77.58203125-34.742187-77.578125-77.589843h.0117188c-.0117188-.699219-.0117188-.789063-.0117188-.789063v-.03125c-.00390625-49.421875 36.9375-91.050781 86.011719-96.917969 9.714843-34.21875 35.109375-61.785156 68.417969-74.269531 33.304687-12.488281 70.5625-8.414063 100.378906 10.976563zm0 0" fill="#00acea"/></svg>