<svg height="466pt" viewBox="-15 0 466 466.08" width="466pt" xmlns="http://www.w3.org/2000/svg"><path d="m246.390625 293.660156h-161.269531c-46.988282 0-85.0820315-38.089844-85.0820315-85.082031h.0117187c-.0117187-.769531-.0117187-.867187-.0117187-.867187v-.03125c-.0078125-54.203126 40.5039065-99.851563 94.3203125-106.289063 10.734375-37.796875 38.902344-68.171875 75.785156-81.726563 36.878907-13.550781 78.015625-8.636718 110.664063 13.214844l.191406.121094c-8.566406 13.214844-13.121094 28.625-13.121094 44.371094 0 46.4375 39.082032 84.097656 87.292969 84.097656 14.019531.03125 27.855469-3.230469 40.386719-9.519531 16.898437 13.941406 26.65625 34.726562 26.582031 56.628906h.21875c0 46.988281-38.089844 85.082031-85.078125 85.082031zm0 0" fill="#00acea"/><path d="m395.558594 151.949219c-12.53125 6.289062-26.367188 9.550781-40.386719 9.519531-48.210937 0-87.292969-37.660156-87.292969-84.097656 0-15.746094 4.554688-31.15625 13.121094-44.371094 9.644531-14.804688 23.574219-26.316406 39.929688-33-4.621094 10.382812-7 21.625-6.980469 32.988281 0 46.441407 39.089843 84.101563 87.289062 84.101563 11.746094.023437 23.378907-2.261719 34.242188-6.730469-8.113281 18.054687-22.214844 32.746094-39.921875 41.589844zm0 0" fill="#d4e1f4"/><path d="m269.101562 330.28125-82.972656 135.796875 4.910156-84.078125h-37.738281l10.097657-88.339844h82.992187l-23.28125 36.621094zm0 0" fill="#fedb41"/></svg>