<svg height="480pt" viewBox="-20 0 480 480.61717" width="480pt" xmlns="http://www.w3.org/2000/svg"><path d="m414.820312 191.21875c.054688-14.277344-4.277343-28.222656-12.410156-39.957031-12.886718 6.746093-27.222656 10.253906-41.769531 10.21875-48.210937 0-87.292969-37.664063-87.292969-84.101563 0-17.027344 5.324219-33.632812 15.230469-47.480468l-.207031-.152344c-30.644532-24.695313-71.625-32.386719-109.140625-20.484375-37.511719 11.902343-66.5625 41.8125-77.359375 79.660156-50.671875 5.917969-90.242188 49.136719-90.242188 101.386719v.042968s.511719-.132812.519532.867188h-.019532c-.023437 21.519531 8.527344 42.160156 23.757813 57.363281 15.234375 15.199219 35.894531 23.707031 57.414062 23.636719h240.558594c21.507813.039062 42.148437-8.476562 57.375-23.671875 15.222656-15.195313 23.78125-35.816406 23.785156-57.328125zm0 0" fill="#00acea"/><path d="m440.949219 110.359375c-7.890625 17.570313-21.464844 31.972656-38.539063 40.878906-12.886718 6.753907-27.222656 10.261719-41.769531 10.230469-48.210937 0-87.292969-37.660156-87.292969-84.097656 0-17.03125 5.324219-33.632813 15.230469-47.480469 9.546875-13.324219 22.652344-23.683594 37.820313-29.890625-4.621094 10.382812-7 21.625-6.980469 32.988281 0 46.441407 39.089843 84.101563 87.292969 84.101563 11.742187.023437 23.375-2.261719 34.238281-6.730469zm0 0" fill="#d4e1f4"/><g fill="#f4b844"><path d="m22.394531 367.621094c-4.140625-1.535156-8.742187.582031-10.277343 4.726562l-11.3125 30.546875c-1.53125 4.144531.582031 8.746094 4.726562 10.28125 4.144531 1.535157 8.746094-.582031 10.28125-4.726562l11.308594-30.550781c1.535156-4.140626-.582032-8.746094-4.726563-10.277344zm0 0"/><path d="m92.546875 367.621094c-4.144531-1.535156-8.746094.582031-10.28125 4.726562l-11.308594 30.546875c-1.070312 2.699219-.597656 5.765625 1.238281 8.015625 1.835938 2.25 4.746094 3.324219 7.601563 2.816406 2.859375-.511718 5.214844-2.53125 6.160156-5.277343l11.308594-30.550781c1.535156-4.140626-.578125-8.742188-4.71875-10.277344zm0 0"/><path d="m163.839844 367.621094c-4.144532-1.535156-8.746094.578125-10.28125 4.722656l-11.320313 30.546875c-1.054687 2.695313-.574219 5.75 1.257813 7.988281 1.832031 2.238282 4.730468 3.3125 7.582031 2.808594 2.847656-.503906 5.203125-2.503906 6.160156-5.234375l11.320313-30.550781c1.535156-4.144532-.578125-8.746094-4.71875-10.28125zm0 0"/><path d="m233.988281 367.621094c-4.140625-1.535156-8.746093.578125-10.28125 4.722656l-11.320312 30.546875c-1.054688 2.695313-.574219 5.75 1.257812 7.988281 1.835938 2.238282 4.734375 3.3125 7.582031 2.808594 2.851563-.503906 5.207032-2.503906 6.160157-5.234375l11.320312-30.550781c1.539063-4.144532-.574219-8.746094-4.71875-10.28125zm0 0"/><path d="m305.269531 367.621094c-4.144531-1.535156-8.746093.578125-10.28125 4.722656l-11.320312 30.546875c-1.054688 2.695313-.574219 5.75 1.257812 7.988281 1.835938 2.238282 4.734375 3.3125 7.582031 2.808594 2.847657-.503906 5.203126-2.503906 6.160157-5.234375l11.320312-30.550781c1.535157-4.140625-.578125-8.746094-4.71875-10.28125zm0 0"/><path d="m375.417969 367.621094c-4.140625-1.535156-8.746094.578125-10.28125 4.722656l-11.320313 30.546875c-1.054687 2.695313-.574218 5.75 1.261719 7.988281 1.832031 2.238282 4.730469 3.3125 7.578125 2.808594 2.851562-.503906 5.207031-2.503906 6.160156-5.234375l11.320313-30.550781c1.535156-4.140625-.574219-8.746094-4.71875-10.28125zm0 0"/><path d="m38.566406 434.386719c-4.140625-1.535157-8.742187.582031-10.277344 4.722656l-11.320312 30.550781c-1.058594 2.695313-.574219 5.746094 1.257812 7.984375 1.832032 2.238281 4.730469 3.316407 7.582032 2.8125 2.847656-.503906 5.203125-2.507812 6.160156-5.238281l11.320312-30.546875c1.535157-4.144531-.578124-8.746094-4.722656-10.285156zm0 0"/><path d="m108.71875 434.386719c-4.140625-1.535157-8.746094.582031-10.28125 4.722656l-11.320312 30.550781c-1.054688 2.695313-.574219 5.746094 1.261718 7.984375 1.832032 2.238281 4.730469 3.316407 7.578125 2.8125 2.851563-.503906 5.207031-2.507812 6.160157-5.238281l11.320312-30.546875c1.535156-4.144531-.574219-8.746094-4.71875-10.285156zm0 0"/><path d="m180 434.386719c-4.144531-1.535157-8.746094.578125-10.28125 4.722656l-11.320312 30.550781c-1.054688 2.695313-.574219 5.746094 1.257812 7.984375 1.835938 2.238281 4.734375 3.316407 7.582031 2.8125 2.847657-.503906 5.203125-2.507812 6.160157-5.238281l11.320312-30.546875c1.535156-4.144531-.578125-8.746094-4.71875-10.285156zm0 0"/><path d="m250.148438 434.386719c-4.140626-1.535157-8.746094.582031-10.28125 4.722656l-11.320313 30.550781c-1.054687 2.695313-.574219 5.746094 1.257813 7.984375 1.835937 2.238281 4.734374 3.316407 7.582031 2.8125 2.847656-.503906 5.203125-2.507812 6.160156-5.238281l11.320313-30.546875c1.535156-4.144531-.574219-8.746094-4.71875-10.285156zm0 0"/><path d="m321.429688 434.386719c-4.144532-1.53125-8.746094.582031-10.28125 4.726562l-11.308594 30.550781c-1.070313 2.695313-.597656 5.765626 1.238281 8.011719 1.835937 2.25 4.746094 3.328125 7.601563 2.816407 2.859374-.511719 5.214843-2.527344 6.160156-5.273438l11.308594-30.550781c1.535156-4.144531-.578126-8.746094-4.71875-10.28125zm0 0"/><path d="m391.578125 434.386719c-4.144531-1.535157-8.75.582031-10.28125 4.726562l-11.3125 30.550781c-1.070313 2.695313-.597656 5.765626 1.238281 8.011719 1.835938 2.25 4.746094 3.328125 7.605469 2.816407 2.855469-.511719 5.214844-2.527344 6.15625-5.273438l11.3125-30.550781c1.535156-4.144531-.578125-8.746094-4.71875-10.28125zm0 0"/></g><path d="m268.808594 263.390625-5.378906 8.808594-73.769532 120.742187 4.6875-80.210937h-36l3.761719-40.390625 5.898437-63.28125h79.339844l-22.410156 54.332031zm0 0" fill="#fedb41"/></svg>