<svg height="456pt" viewBox="-13 0 456 456.94346" width="456pt" xmlns="http://www.w3.org/2000/svg"><path d="m422.570312 223.898438h.222657c-.007813 46.984374-38.097657 85.070312-85.082031 85.070312h-252.160157c-46.984375.003906-85.074219-38.082031-85.078125-85.070312h.007813c-.007813-.777344-.007813-.878907-.007813-.878907v-.03125c-.007812-54.199219 40.503906-99.847656 94.320313-106.277343 10.164062-35.800782 36.015625-65.0625 70.289062-79.5625 34.273438-14.503907 73.277344-12.679688 106.050781 4.953124l.167969.078126c-5.269531 10.984374-8 23.007812-7.988281 35.191406 0 46.4375 39.078125 84.097656 87.289062 84.097656 9.703126.015625 19.34375-1.539062 28.550782-4.597656 26.488281 11.75 43.527344 38.050781 43.417968 67.027344zm0 0" fill="#00acea"/><path d="m430.910156 110.359375c-9.96875 22.074219-28.746094 38.949219-51.757812 46.511719-9.207032 3.058594-18.847656 4.613281-28.550782 4.597656-48.210937 0-87.289062-37.660156-87.289062-84.097656-.011719-12.183594 2.71875-24.207032 7.988281-35.191406 9.300781-19.140626 25.351563-34.164063 45.0625-42.179688-4.625 10.382812-7 21.625-6.980469 32.988281 0 46.441407 39.089844 84.101563 87.289063 84.101563 11.742187.023437 23.378906-2.261719 34.238281-6.730469zm0 0" fill="#d4e1f4"/><g fill="#f4b844"><path d="m35.480469 343.9375c-4.140625-1.535156-8.746094.578125-10.28125 4.722656l-11.320313 30.550782c-1.054687 2.691406-.574218 5.746093 1.261719 7.984374 1.832031 2.238282 4.730469 3.3125 7.578125 2.8125 2.851562-.503906 5.207031-2.507812 6.160156-5.238281l11.320313-30.550781c1.535156-4.140625-.574219-8.742188-4.71875-10.28125zm0 0"/><path d="m105.628906 343.9375c-4.140625-1.535156-8.742187.578125-10.277344 4.722656l-11.320312 30.550782c-1.054688 2.691406-.574219 5.746093 1.257812 7.984374 1.832032 2.238282 4.734376 3.3125 7.582032 2.8125 2.847656-.503906 5.203125-2.507812 6.160156-5.238281l11.320312-30.550781c1.535157-4.140625-.578124-8.742188-4.722656-10.28125zm0 0"/><path d="m176.910156 343.9375c-4.144531-1.535156-8.746094.582031-10.28125 4.726562l-11.308594 30.550782c-1.078124 2.695312-.605468 5.765625 1.230469 8.015625 1.839844 2.25 4.75 3.328125 7.609375 2.816406s5.21875-2.53125 6.160156-5.28125l11.308594-30.546875c1.535156-4.144531-.578125-8.746094-4.71875-10.28125zm0 0"/><path d="m247.058594 343.9375c-4.140625-1.535156-8.746094.582031-10.277344 4.726562l-11.3125 30.550782c-1.074219 2.695312-.601562 5.765625 1.234375 8.015625s4.75 3.328125 7.609375 2.816406 5.214844-2.53125 6.15625-5.28125l11.3125-30.546875c1.535156-4.144531-.578125-8.746094-4.722656-10.28125zm0 0"/><path d="m318.339844 343.9375c-4.144532-1.535156-8.746094.582031-10.28125 4.726562l-11.308594 30.550782c-1.074219 2.695312-.601562 5.765625 1.234375 8.015625s4.746094 3.328125 7.605469 2.816406 5.21875-2.53125 6.160156-5.28125l11.3125-30.546875c1.53125-4.144531-.582031-8.746094-4.722656-10.28125zm0 0"/><path d="m388.492188 343.9375c-4.144532-1.535156-8.746094.582031-10.28125 4.726562l-11.308594 30.550782c-1.074219 2.695312-.601563 5.765625 1.234375 8.015625 1.835937 2.25 4.746093 3.328125 7.605469 2.816406 2.859374-.511719 5.21875-2.53125 6.160156-5.28125l11.308594-30.546875c1.535156-4.144531-.578126-8.746094-4.71875-10.28125zm0 0"/><path d="m51.640625 410.707031c-4.144531-1.53125-8.746094.582031-10.28125 4.726563l-11.308594 30.546875c-1.074219 2.699219-.605469 5.765625 1.234375 8.019531 1.835938 2.25 4.746094 3.328125 7.605469 2.816406 2.859375-.511718 5.21875-2.535156 6.160156-5.28125l11.308594-30.550781c1.53125-4.140625-.582031-8.742187-4.71875-10.277344zm0 0"/><path d="m121.792969 410.707031c-4.144531-1.53125-8.746094.582031-10.28125 4.726563l-11.308594 30.550781c-1.078125 2.695313-.605469 5.765625 1.234375 8.015625 1.835938 2.25 4.746094 3.332031 7.605469 2.816406 2.859375-.511718 5.21875-2.53125 6.160156-5.28125l11.308594-30.546875c1.535156-4.144531-.578125-8.746093-4.71875-10.28125zm0 0"/><path d="m193.070312 410.707031c-4.144531-1.53125-8.746093.582031-10.28125 4.726563l-11.308593 30.550781c-1.074219 2.695313-.601563 5.765625 1.234375 8.015625 1.835937 2.25 4.746094 3.332031 7.605468 2.816406 2.859376-.511718 5.21875-2.53125 6.160157-5.28125l11.308593-30.546875c1.535157-4.144531-.578124-8.746093-4.71875-10.28125zm0 0"/><path d="m263.21875 410.707031c-4.140625-1.53125-8.746094.582031-10.277344 4.726563l-11.3125 30.550781c-1.074218 2.695313-.601562 5.765625 1.234375 8.015625 1.835938 2.25 4.75 3.332031 7.609375 2.816406 2.859375-.511718 5.214844-2.53125 6.15625-5.28125l11.3125-30.546875c1.53125-4.144531-.582031-8.746093-4.722656-10.28125zm0 0"/><path d="m334.511719 410.710938c-4.144531-1.535157-8.746094.578124-10.28125 4.71875l-11.320313 30.550781c-1.054687 2.695312-.574218 5.746093 1.257813 7.984375 1.835937 2.238281 4.734375 3.3125 7.582031 2.8125 2.851562-.503906 5.207031-2.507813 6.160156-5.238282l11.320313-30.550781c1.535156-4.140625-.578125-8.742187-4.71875-10.277343zm0 0"/><path d="m404.660156 410.710938c-4.140625-1.535157-8.746094.578124-10.28125 4.71875l-11.316406 30.550781c-1.058594 2.695312-.574219 5.746093 1.257812 7.984375 1.832032 2.238281 4.730469 3.3125 7.582032 2.8125 2.847656-.503906 5.203125-2.507813 6.160156-5.238282l11.316406-30.550781c1.535156-4.140625-.578125-8.742187-4.71875-10.277343zm0 0"/></g></svg>