<svg height="483pt" viewBox="-21 0 483 483.3202" width="483pt" xmlns="http://www.w3.org/2000/svg"><path d="m422.261719 209.320312h.21875c0 46.988282-38.09375 85.078126-85.082031 85.078126h-252.160157c-46.988281.003906-85.078125-38.089844-85.078125-85.078126h.011719c-.011719-.769531-.011719-.871093-.011719-.871093v-.027344c-.007812-54.203125 40.503906-99.855469 94.320313-106.292969 10.929687-38.492187 39.929687-69.242187 77.714843-82.414062 37.78125-13.171875 79.613282-7.109375 112.105469 16.246094-7.40625 12.539062-11.308593 26.835937-11.300781 41.398437 0 46.449219 39.082031 84.101563 87.289062 84.101563 12.632813.023437 25.125-2.621094 36.660157-7.761719l.039062.089843c16.117188 13.941407 25.347657 34.222657 25.273438 55.53125zm0 0" fill="#00acea"/><path d="m440.601562 110.351562c-8.703124 19.339844-24.25 34.777344-43.652343 43.347657-11.535157 5.140625-24.027344 7.785156-36.660157 7.761719-48.207031 0-87.289062-37.652344-87.289062-84.101563-.007812-14.5625 3.894531-28.859375 11.300781-41.398437 9.628907-16.214844 24.289063-28.839844 41.75-35.960938-4.621093 10.378906-7 21.617188-6.980469 32.980469 0 46.441406 39.089844 84.097656 87.289063 84.097656 11.746094.03125 23.378906-2.257813 34.242187-6.726563zm0 0" fill="#d4e1f4"/><path d="m308.710938 409.230469c15.359374 26.347656-6.339844 59.460937-36.921876 59.460937-6.023437.003906-11.972656-1.304687-17.4375-3.832031 16.507813-17.128906 22.597657-43.308594 9.386719-65.980469l-10.777343-15.097656.058593-.042969 18.769531-26.226562zm0 0" fill="#00efd1"/><path d="m168.300781 464.851562c-10.332031-10.722656-16.589843-25.011718-16.589843-39.78125.007812-9.28125 2.488281-18.390624 7.1875-26.390624l10.683593-14.929688 41.738281-58.300781 41.640626 58.332031 10.777343 15.097656c13.210938 22.671875 7.121094 48.851563-9.386719 65.980469-11.207031 11.789063-26.761718 18.460937-43.027343 18.460937-16.265625-.003906-31.820313-6.679687-43.023438-18.46875zm0 0" fill="#00acea"/><path d="m169.582031 383.75-10.683593 14.929688c-4.699219 8-7.179688 17.109374-7.1875 26.390624 0 14.769532 6.257812 29.058594 16.589843 39.78125-5.46875 2.535157-11.421875 3.847657-17.449219 3.839844-23.640624 0-41.980468-19.800781-41.980468-41.019531.007812-6.539063 1.753906-12.953125 5.058594-18.59375l36.921874-51.566406zm0 0" fill="#00efd1"/></svg>