<svg height="448pt" viewBox="-9 0 448 448.98127" width="448pt" xmlns="http://www.w3.org/2000/svg"><path d="m422.589844 231.671875h.222656c-.003906 46.984375-38.09375 85.078125-85.082031 85.078125h-252.160157c-46.988281 0-85.082031-38.089844-85.078124-85.078125h.007812c-.007812-.773437-.007812-.871094-.007812-.871094v-.03125c-.011719-54.199219 40.5-99.851562 94.320312-106.289062 10.035156-35.300781 35.332031-64.269531 68.957031-78.972657 33.628907-14.699218 72.070313-13.601562 104.800781 3.003907l.03125.007812c-3.496093 9.21875-5.28125 18.992188-5.269531 28.851563 0 46.4375 39.078125 84.097656 87.289063 84.097656 5.078125.007812 10.152344-.417969 15.160156-1.269531.199219.050781.269531.082031.5.128906 33.09375 7.765625 56.445312 37.351563 56.308594 71.34375zm0 0" fill="#00acea"/><path d="m365.78125 160.199219c-5.007812.851562-10.082031 1.277343-15.160156 1.269531-48.210938 0-87.289063-37.660156-87.289063-84.097656-.011719-9.859375 1.773438-19.632813 5.269531-28.851563 8.554688-22.070312 25.84375-39.625 47.777344-48.519531-4.617187 10.378906-6.996094 21.617188-6.976562 32.980469 0 46.449219 39.089844 84.097656 87.289062 84.097656 11.742188.03125 23.378906-2.257813 34.238282-6.726563-11.398438 25.738282-35.738282 44.886719-65.148438 49.847657zm0 0" fill="#d4e1f4"/><g fill="#f4b844"><path d="m227.917969 354.8125c-3.125-3.125-8.191407-3.125-11.3125 0l-4.953125 4.953125-4.953125-4.953125c-3.125-3.125-8.191407-3.125-11.316407 0s-3.125 8.191406 0 11.316406l4.953126 4.949219-4.242188 4.246094c-3.125 3.125-3.125 8.191406 0 11.3125 3.125 3.125 8.191406 3.125 11.316406 0l4.242188-4.242188 4.246094 4.242188c3.121093 3.125 8.1875 3.125 11.3125 0s3.125-8.1875 0-11.3125l-4.246094-4.246094 4.957031-4.949219c3.121094-3.128906 3.121094-8.191406-.003906-11.316406zm0 0"/><path d="m307.917969 354.8125c-3.125-3.125-8.191407-3.125-11.3125 0l-4.953125 4.953125-4.953125-4.953125c-3.125-3.125-8.191407-3.125-11.316407 0s-3.125 8.191406 0 11.316406l4.953126 4.949219-4.242188 4.246094c-3.125 3.125-3.125 8.191406 0 11.3125 3.125 3.125 8.191406 3.125 11.316406 0l4.242188-4.242188 4.246094 4.242188c3.121093 3.125 8.1875 3.125 11.3125 0s3.125-8.1875 0-11.3125l-4.246094-4.246094 4.957031-4.949219c3.121094-3.128906 3.121094-8.191406-.003906-11.316406zm0 0"/><path d="m387.917969 354.8125c-3.125-3.125-8.191407-3.125-11.3125 0l-4.953125 4.953125-4.953125-4.953125c-3.125-3.125-8.191407-3.125-11.316407 0s-3.125 8.191406 0 11.316406l4.953126 4.949219-4.242188 4.246094c-3.125 3.125-3.125 8.191406 0 11.3125 3.125 3.125 8.191406 3.125 11.316406 0l4.242188-4.242188 4.246094 4.242188c3.121093 3.125 8.1875 3.125 11.3125 0s3.125-8.1875 0-11.3125l-4.246094-4.246094 4.957031-4.949219c3.121094-3.128906 3.121094-8.191406-.003906-11.316406zm0 0"/><path d="m147.917969 354.8125c-3.125-3.125-8.191407-3.125-11.3125 0l-4.953125 4.953125-4.953125-4.953125c-3.125-3.125-8.191407-3.125-11.316407 0s-3.125 8.191406 0 11.316406l4.953126 4.949219-4.242188 4.246094c-3.125 3.125-3.125 8.191406 0 11.3125 3.125 3.125 8.191406 3.125 11.316406 0l4.242188-4.242188 4.246094 4.242188c3.121093 3.125 8.1875 3.125 11.3125 0s3.125-8.1875 0-11.3125l-4.246094-4.246094 4.957031-4.949219c3.121094-3.128906 3.121094-8.191406-.003906-11.316406zm0 0"/><path d="m67.917969 354.8125c-3.125-3.125-8.191407-3.125-11.3125 0l-4.953125 4.953125-4.953125-4.953125c-3.125-3.125-8.191407-3.125-11.316407 0s-3.125 8.191406 0 11.316406l4.953126 4.949219-4.242188 4.246094c-3.125 3.125-3.125 8.191406 0 11.3125 3.125 3.125 8.191406 3.125 11.316406 0l4.242188-4.246094 4.242187 4.242187c2.015625 2.042969 4.972657 2.847657 7.746094 2.113282 2.773437-.738282 4.9375-2.902344 5.675781-5.675782.738282-2.773437-.066406-5.730468-2.105468-7.746093l-4.246094-4.246094 4.957031-4.949219c3.121094-3.128906 3.121094-8.191406-.003906-11.316406zm0 0"/><path d="m267.917969 414.8125c-3.125-3.125-8.191407-3.125-11.3125 0l-4.953125 4.953125-4.953125-4.953125c-3.125-3.125-8.191407-3.125-11.316407 0s-3.125 8.191406 0 11.316406l4.953126 4.949219-4.242188 4.246094c-3.125 3.125-3.125 8.191406 0 11.3125 3.125 3.125 8.191406 3.125 11.316406 0l4.242188-4.242188 4.246094 4.242188c3.121093 3.125 8.1875 3.125 11.3125 0s3.125-8.1875 0-11.3125l-4.246094-4.246094 4.957031-4.949219c3.121094-3.128906 3.121094-8.191406-.003906-11.316406zm0 0"/><path d="m347.917969 414.8125c-3.125-3.125-8.191407-3.125-11.3125 0l-4.953125 4.953125-4.953125-4.953125c-3.125-3.125-8.191407-3.125-11.316407 0s-3.125 8.191406 0 11.316406l4.953126 4.949219-4.242188 4.246094c-3.125 3.125-3.125 8.191406 0 11.3125 3.125 3.125 8.191406 3.125 11.316406 0l4.242188-4.242188 4.246094 4.242188c3.121093 3.125 8.1875 3.125 11.3125 0s3.125-8.1875 0-11.3125l-4.246094-4.246094 4.957031-4.949219c3.121094-3.128906 3.121094-8.191406-.003906-11.316406zm0 0"/><path d="m187.917969 414.8125c-3.125-3.125-8.191407-3.125-11.3125 0l-4.953125 4.953125-4.953125-4.953125c-3.125-3.125-8.191407-3.125-11.316407 0s-3.125 8.191406 0 11.316406l4.953126 4.949219-4.242188 4.246094c-3.125 3.125-3.125 8.191406 0 11.3125 3.125 3.125 8.191406 3.125 11.316406 0l4.242188-4.242188 4.246094 4.242188c3.121093 3.125 8.1875 3.125 11.3125 0s3.125-8.1875 0-11.3125l-4.246094-4.246094 4.957031-4.949219c3.121094-3.128906 3.121094-8.191406-.003906-11.316406zm0 0"/><path d="m107.917969 414.8125c-3.125-3.125-8.191407-3.125-11.3125 0l-4.953125 4.953125-4.953125-4.953125c-3.125-3.125-8.191407-3.125-11.316407 0s-3.125 8.191406 0 11.316406l4.953126 4.949219-4.242188 4.246094c-3.125 3.125-3.125 8.191406 0 11.3125 3.125 3.125 8.191406 3.125 11.316406 0l4.242188-4.242188 4.246094 4.242188c3.121093 3.125 8.1875 3.125 11.3125 0s3.125-8.1875 0-11.3125l-4.246094-4.246094 4.957031-4.949219c3.121094-3.128906 3.121094-8.191406-.003906-11.316406zm0 0"/></g></svg>