<svg height="430pt" viewBox="0 -6 430.44 430" width="430pt" xmlns="http://www.w3.org/2000/svg"><path d="m210.21875 305.820312v1.351563h-63.890625l-.476563.488281h-60.773437c-46.988281 0-85.078125-38.089844-85.078125-85.082031h.0117188c-.0117188-.769531-.0117188-.867187-.0117188-.867187v-.03125c-.0078125-54.203126 40.503906-99.851563 94.320312-106.289063 10.210938-35.941406 36.226563-65.277344 70.6875-79.71875 34.460938-14.4375 73.621094-12.40625 106.402344 5.519531-5.644531 11.300782-8.582031 23.765625-8.570312 36.398438 0 46.441406 39.082031 84.101562 87.289062 84.101562 10.382813.011719 20.6875-1.769531 30.460938-5.269531v.007813c25.453125 12.179687 41.613281 37.933593 41.511718 66.148437h.21875c0 46.988281-38.09375 85.082031-85.082031 85.082031h-60.769531l-.480469-.488281h-64.417969zm0 0" fill="#00acea"/><path d="m430.441406 110.578125c-9.667968 21.441406-27.675781 38-49.851562 45.84375-9.773438 3.5-20.078125 5.28125-30.460938 5.269531-48.207031 0-87.289062-37.660156-87.289062-84.101562-.011719-12.632813 2.925781-25.097656 8.570312-36.398438 9.40625-18.574218 25.199219-33.121094 44.480469-40.972656-4.621094 10.382812-7 21.625-6.980469 32.992188 0 46.4375 39.089844 84.097656 87.289063 84.097656 11.746093.027344 23.378906-2.261719 34.242187-6.730469zm0 0" fill="#d4e1f4"/><path d="m294.253906 299.171875 14.769532-15.023437-11.40625-11.21875-25.804688 26.242187h-41.757812l29.941406-29.945313 36.21875.300782.132812-15.996094-20.484375-.171875 3.121094-3.121094 16.300781-16.289062-11.308594-11.316407-16.300781 16.289063 5.652344 5.65625-5.65625-5.65625-3.121094 3.125-.171875-20.472656-15.996094.132812.300782 36.207031-30.464844 30.464844v-41.769531l26.761719-26.316406-11.21875-11.40625-15.542969 15.28125v-29.996094h-16v28.148437l-13.660156-13.433593-11.21875 11.40625 24.878906 24.46875v41.746093l-28.582031-28.582031.304687-36.21875-16-.132812-.171875 20.480469-19.421875-19.421876-11.316406 11.3125 19.414062 19.414063-20.460937.171875.132813 15.996094 36.195312-.300782 29.945312 29.945313h-41.75l-25.804687-26.242187-11.40625 11.21875 14.769531 15.023437h-28.847656v16h28.023438l-13.945313 14.179687 11.40625 11.21875 24.980469-25.398437h41.742187l-29.101562 29.101563-36.207031-.304688-.132813 16 20.472656.171875-19.425781 19.421875 11.316406 11.316406 19.421875-19.425781.171875 20.484375 16-.132812-.304687-36.21875 28.582031-28.582032v41.738282l-24.878906 24.464843 11.21875 11.40625 13.660156-13.433593v26.992187h16v-28.839844l15.542969 15.28125 11.21875-11.40625-26.761719-26.316406v-41.757813l30.464844 30.464844-.300782 36.207032 15.996094.132812.171875-20.472656 3.121094 3.121094 5.65625-5.65625-5.652344 5.660156 16.300781 16.289062 11.308594-11.316406-16.300781-16.292969-3.128906-3.128906 20.492187-.171875-.132812-16-36.230469.304688-29.101563-29.101563h41.757813l24.976563 25.398437 11.40625-11.21875-13.945313-14.179687h28.140625v-16zm0 0" fill="#f4b844"/></svg>