<svg height="464pt" viewBox="0 -21 464.08 464" width="464pt" xmlns="http://www.w3.org/2000/svg"><path d="m464.078125 110.398438c-13.316406 30.042968-44.257813 51.113281-80.308594 51.113281-48.210937 0-87.300781-37.660157-87.300781-84.101563 0-34.738281 21.871094-64.550781 53.0625-77.3710935-4.621094 10.3867185-7.003906 21.6249995-6.992188 32.9921875 0 46.4375 39.089844 84.097656 87.300782 84.097656 11.746094.023438 23.378906-2.261718 34.238281-6.730468zm0 0" fill="#d4e1f4"/><g fill="#f4b844"><path d="m328.871094 134.839844h-264.679688c-18.898437.035156-34.203125 15.355468-34.222656 34.25.019531 9.027344 3.644531 17.671875 10.070312 24.011718 6.429688 6.339844 15.125 9.847657 24.152344 9.738282h226.230469c7.410156.113281 14.039063 4.640625 16.84375 11.503906 2.804687 6.859375 1.242187 14.734375-3.96875 20.007812-3.390625 3.472657-8.023437 5.445313-12.875 5.488282h-188.78125c-18.882813.003906-34.195313 15.300781-34.21875 34.183594.015625 9.035156 3.636719 17.6875 10.0625 24.039062 6.425781 6.347656 15.121094 9.867188 24.15625 9.777344h158.820313c10.214843 0 18.5 8.28125 18.5 18.5s-8.285157 18.5-18.5 18.5h-83.152344c-18.863282-.070313-34.207032 15.167968-34.269532 34.03125v34.769531c0 4.417969 3.582032 8 8 8 4.417969 0 8-3.582031 8-8v-34.769531c.023438-4.816406 1.964844-9.425782 5.394532-12.808594 3.425781-3.382812 8.058594-5.261719 12.875-5.222656h83.152344c9.09375-.007813 17.808593-3.652344 24.199218-10.125 9.777344-9.859375 12.703125-24.617188 7.421875-37.460938-5.277343-12.84375-17.734375-21.28125-31.621093-21.414062h-158.820313c-4.804687.082031-9.4375-1.765625-12.867187-5.132813-3.425782-3.367187-5.355469-7.972656-5.351563-12.773437.007813-4.820313 1.9375-9.433594 5.355469-12.828125 3.417968-3.394531 8.046875-5.289063 12.863281-5.265625h188.78125c9.085937.015625 17.800781-3.609375 24.199219-10.0625 9.777344-9.871094 12.699218-24.632813 7.421875-37.484375-5.277344-12.855469-17.730469-21.300781-31.621094-21.453125h-226.230469c-4.808594.117187-9.457031-1.71875-12.886718-5.085938-3.433594-3.367187-5.359376-7.980468-5.335938-12.785156.011719-4.824219 1.9375-9.441406 5.355469-12.84375 3.414062-3.398438 8.046875-5.300781 12.867187-5.285156h264.679688c4.417968 0 8-3.582032 8-8 0-4.417969-3.582032-8-8-8zm0 0"/><path d="m305.371094 90.839844c0-4.417969-3.582032-8-8-8h-289.371094c-4.417969 0-8 3.582031-8 8 0 4.417968 3.582031 8 8 8h289.371094c4.417968 0 8-3.582032 8-8zm0 0"/><path d="m66.039062 116.839844c0 4.417968 3.582032 8 8 8h232c4.417969 0 8-3.582032 8-8 0-4.417969-3.582031-8-8-8h-232c-4.417968 0-8 3.582031-8 8zm0 0"/><path d="m102.039062 160.839844c-4.417968 0-8 3.582031-8 8 0 4.417968 3.582032 8 8 8h167c4.417969 0 8-3.582032 8-8 0-4.417969-3.582031-8-8-8zm0 0"/><path d="m253.039062 230.839844c4.417969 0 8-3.582032 8-8 0-4.417969-3.582031-8-8-8h-177c-4.417968 0-8 3.582031-8 8 0 4.417968 3.582032 8 8 8zm0 0"/><path d="m140.039062 267.839844c-4.417968 0-8 3.582031-8 8 0 4.417968 3.582032 8 8 8h105c4.417969 0 8-3.582032 8-8 0-4.417969-3.582031-8-8-8zm0 0"/><path d="m221.039062 336.839844c4.417969 0 8-3.582032 8-8 0-4.417969-3.582031-8-8-8h-53c-4.417968 0-8 3.582031-8 8 0 4.417968 3.582032 8 8 8zm0 0"/></g></svg>