<svg height="444pt" viewBox="-8 0 444 444.98008" width="444pt" xmlns="http://www.w3.org/2000/svg"><path d="m266.128906 174.898438c-21.097656 47.621093-70.128906 81.011718-127.277344 81.011718-76.410156 0-138.363281-59.679687-138.363281-133.289062 0-55.0625 34.671875-102.300782 84.089844-122.621094-7.324219 16.453125-11.09375 34.269531-11.066406 52.28125 0 73.597656 61.949219 133.289062 138.359375 133.289062 18.609375.042969 37.050781-3.582031 54.257812-10.671874zm0 0" fill="#d4e1f4"/><g fill="#f4b844"><path d="m393.601562 288.21875c-4.417968 0-8 3.582031-8 8s3.582032 8 8 8c10.511719.152344 18.9375 8.75 18.875 19.265625s-8.589843 19.011719-19.105468 19.035156h-375.910156c-4.417969 0-8 3.582031-8 8s3.582031 8 8 8h375.910156c19.320312-.066406 34.960937-15.714843 35.027344-35.035156.0625-19.320313-15.480469-35.070313-34.796876-35.265625zm0 0"/><path d="m17.460938 326.519531h246.460937c14.746094-.011719 26.695313-11.976562 26.683594-26.722656-.011719-14.75-11.976563-26.699219-26.726563-26.6875-4.417968 0-8 3.582031-8 8s3.582032 8 8 8c5.914063-.011719 10.714844 4.773437 10.726563 10.6875.011719 5.910156-4.773438 10.710937-10.683594 10.722656h-246.460937c-4.417969 0-8 3.582031-8 8s3.582031 8 8 8zm0 0"/><path d="m323.25 375.519531h-305.789062c-4.417969 0-8 3.582031-8 8s3.582031 8 8 8h305.789062c10.4375-.085937 18.976562 8.292969 19.089844 18.730469.046875 4.992188-1.921875 9.792969-5.460938 13.320312-3.539062 3.523438-8.347656 5.472657-13.339844 5.410157-4.417968 0-8 3.582031-8 8s3.582032 8 8 8c12.460938.027343 23.980469-6.625 30.191407-17.429688 6.207031-10.800781 6.152343-24.105469-.148438-34.855469-6.296875-10.753906-17.871093-17.304687-30.332031-17.175781zm0 0"/></g></svg>