<svg height="476pt" viewBox="-31 0 476 476.8587" width="476pt" xmlns="http://www.w3.org/2000/svg"><path d="m414.9375 187.34375c.109375-18.507812-7.175781-36.292969-20.242188-49.40625-13.0625-13.109375-30.816406-20.464844-49.328124-20.425781-4.472657-.097657-8.949219.246093-13.359376 1.019531.011719-.488281.011719-.96875.011719-1.46875-.089843-58.460938-43.234375-107.921875-101.140625-115.949219-57.902344-8.03125-112.878906 27.820313-128.875 84.050781-50.660156 5.914063-90.214844 49.136719-90.214844 101.386719v.042969s.46875-.25.480469.75h-.011719c-.023437 21.515625 8.523438 42.15625 23.753907 57.359375 15.230469 15.199219 35.890625 23.707031 57.40625 23.640625h240.570312c21.507813.035156 42.148438-8.480469 57.375-23.675781 15.222657-15.191407 23.78125-35.816407 23.785157-57.324219zm0 0" fill="#00acea"/><g fill="#f4b844"><path d="m22.515625 363.859375c-4.140625-1.53125-8.746094.582031-10.277344 4.726563l-11.3125 30.546874c-1.53125 4.144532.582031 8.746094 4.726563 10.28125 4.144531 1.535157 8.746094-.582031 10.28125-4.722656l11.308594-30.550781c1.53125-4.144531-.582032-8.746094-4.726563-10.28125zm0 0"/><path d="m92.664062 363.859375c-4.140624-1.53125-8.742187.582031-10.277343 4.726563l-11.308594 30.546874c-1.074219 2.699219-.597656 5.765626 1.238281 8.015626 1.835938 2.25 4.746094 3.324218 7.601563 2.816406 2.859375-.511719 5.214843-2.53125 6.160156-5.273438l11.3125-30.550781c1.535156-4.140625-.582031-8.746094-4.726563-10.28125zm0 0"/><path d="m147.078125 409.414062c1.988281.738282 4.191406.65625 6.121094-.230468 1.929687-.882813 3.425781-2.5 4.160156-4.492188l11.320313-30.550781c1.441406-4.113281-.679688-8.625-4.769532-10.140625s-8.636718.523438-10.230468 4.582031l-11.320313 30.550781c-1.535156 4.140626.578125 8.746094 4.71875 10.28125zm0 0"/><path d="m217.230469 409.414062c1.988281.738282 4.191406.65625 6.117187-.226562 1.929688-.886719 3.425782-2.503906 4.164063-4.496094l11.320312-30.550781c1.4375-4.113281-.683593-8.625-4.773437-10.140625-4.085938-1.515625-8.636719.523438-10.226563 4.582031l-11.320312 30.550781c-1.535157 4.140626.574219 8.742188 4.71875 10.28125zm0 0"/><path d="m288.507812 409.414062c1.992188.738282 4.191407.65625 6.121094-.230468 1.925782-.882813 3.425782-2.5 4.160156-4.492188l11.320313-30.550781c1.441406-4.113281-.683594-8.625-4.769531-10.140625-4.089844-1.515625-8.640625.523438-10.230469 4.582031l-11.320313 30.550781c-1.535156 4.140626.578126 8.746094 4.71875 10.28125zm0 0"/><path d="m375.539062 363.863281c-4.144531-1.535156-8.746093.578125-10.28125 4.71875l-11.320312 30.550781c-1.054688 2.695313-.574219 5.746094 1.257812 7.984376 1.832032 2.238281 4.734376 3.3125 7.582032 2.8125 2.847656-.503907 5.203125-2.507813 6.160156-5.238282l11.320312-30.550781c1.535157-4.140625-.578124-8.742187-4.71875-10.277344zm0 0"/><path d="m38.6875 430.632812c-4.140625-1.535156-8.742188.578126-10.28125 4.71875l-11.316406 30.550782c-1.054688 2.695312-.574219 5.746094 1.257812 7.984375 1.832032 2.242187 4.730469 3.316406 7.582032 2.8125 2.847656-.503907 5.203124-2.507813 6.160156-5.238281l11.320312-30.546876c1.535156-4.144531-.578125-8.746093-4.722656-10.28125zm0 0"/><path d="m102.242188 471.460938 11.316406-30.546876c1.054687-2.695312.574218-5.75-1.257813-7.988281s-4.730469-3.3125-7.582031-2.808593c-2.847656.503906-5.203125 2.503906-6.160156 5.234374l-11.320313 30.550782c-1.054687 2.695312-.570312 5.746094 1.261719 7.984375 1.832031 2.242187 4.730469 3.316406 7.578125 2.8125 2.851563-.503907 5.207031-2.507813 6.160156-5.238281zm0 0"/><path d="m163.238281 476.183594c1.988281.738281 4.191407.65625 6.121094-.226563 1.929687-.886719 3.425781-2.503906 4.160156-4.496093l11.320313-30.546876c1.441406-4.117187-.679688-8.628906-4.769532-10.144531-4.089843-1.515625-8.640624.523438-10.230468 4.582031l-11.320313 30.550782c-1.535156 4.140625.578125 8.746094 4.71875 10.28125zm0 0"/><path d="m233.390625 476.183594c1.988281.738281 4.1875.65625 6.117187-.226563 1.929688-.886719 3.425782-2.503906 4.164063-4.496093l11.316406-30.546876c1.441407-4.117187-.679687-8.628906-4.769531-10.144531s-8.640625.523438-10.230469 4.582031l-11.320312 30.550782c-1.535157 4.144531.578125 8.746094 4.722656 10.28125zm0 0"/><path d="m321.546875 430.628906c-4.144531-1.53125-8.746094.582032-10.28125 4.726563l-11.308594 30.550781c-1.535156 4.140625.582031 8.746094 4.722657 10.277344 4.144531 1.535156 8.746093-.582032 10.28125-4.722656l11.308593-30.550782c1.535157-4.144531-.582031-8.746094-4.722656-10.28125zm0 0"/><path d="m391.695312 430.628906c-4.144531-1.53125-8.746093.582032-10.28125 4.726563l-11.308593 30.550781c-1.070313 2.695312-.597657 5.761719 1.238281 8.011719s4.746094 3.328125 7.605469 2.816406c2.855469-.511719 5.214843-2.53125 6.15625-5.273437l11.308593-30.550782c1.535157-4.140625-.578124-8.742187-4.71875-10.28125zm0 0"/></g><path d="m268.9375 259.632812-5.378906 8.808594-73.78125 120.742188 4.691406-80.210938h-36l3.769531-40.390625 5.902344-63.28125h79.328125l-22.410156 54.332031zm0 0" fill="#fedb41"/></svg>