<svg height="476pt" viewBox="-34 0 476 476.64" width="476pt" xmlns="http://www.w3.org/2000/svg"><path d="m204.25 0c112.429688 0 203.929688 87.308594 203.929688 194.960938 0 151.308593-203.929688 281.679687-203.929688 281.679687s-203.929688-130.371094-203.929688-281.679687c0-107.652344 91.5-194.960938 203.929688-194.960938zm148.890625 200.328125c-.007813-82.226563-66.667969-148.882813-148.898437-148.878906-82.226563.003906-148.882813 66.664062-148.882813 148.894531.003906 82.226562 66.664063 148.886719 148.890625 148.886719 82.234375 0 148.894531-66.667969 148.890625-148.902344zm0 0" fill="#00efd1"/><path d="m204.25 51.441406c82.238281-.007812 148.90625 66.65625 148.910156 148.894532 0 82.238281-66.664062 148.90625-148.902344 148.902343-82.238281 0-148.902343-66.671875-148.898437-148.910156 0-82.226563 66.660156-148.886719 148.890625-148.886719zm0 0" fill="#fedb41"/><path d="m301.429688 198.148438c15.332031 26.292968-6.328126 59.332031-36.839844 59.332031-6.007813.007812-11.949219-1.292969-17.398438-3.820313 16.46875-17.089844 22.546875-43.21875 9.367188-65.832031l-10.757813-15.078125.058594-.039062 18.730469-26.171876zm0 0" fill="#00efd1"/><path d="m161.328125 253.648438c-10.316406-10.699219-16.558594-24.957032-16.558594-39.699219.011719-9.253907 2.488281-18.335938 7.171875-26.320313l10.667969-14.898437 41.640625-58.171875 41.550781 58.191406 10.757813 15.078125c13.179687 22.613281 7.101562 48.742187-9.367188 65.832031-11.183594 11.761719-26.703125 18.421875-42.933594 18.417969-16.230468 0-31.75-6.664063-42.929687-18.429687zm0 0" fill="#00acea"/><path d="m143.910156 146.539062 18.699219 26.191407-10.667969 14.898437c-4.683594 7.984375-7.160156 17.066406-7.171875 26.320313 0 14.742187 6.242188 29 16.558594 39.699219-5.457031 2.53125-11.402344 3.839843-17.417969 3.832031-23.589844 0-41.890625-19.75-41.890625-40.929688.003907-6.519531 1.75-12.917969 5.050781-18.539062zm0 0" fill="#00efd1"/></svg>