<svg height="429pt" viewBox="-3 0 429 429.45598" width="429pt" xmlns="http://www.w3.org/2000/svg"><path d="m422.328125 196.457031h.21875c-.003906 46.988281-38.09375 85.074219-85.078125 85.070313h-252.160156c-46.984375.003906-85.078125-38.082032-85.082032-85.070313h.011719c-.011719-.777343-.011719-.878906-.011719-.878906v-.03125c-.007812-54.199219 40.503907-99.847656 94.320313-106.277344 16.714844-58.933593 74.316406-96.527343 134.992187-88.101562 60.675782 8.425781 105.855469 60.292969 105.878907 121.550781 0 .519531 0 1.03125-.019531 1.550781 4.625-.808593 9.316406-1.160156 14.007812-1.050781 19.398438 0 37.992188 7.722656 51.679688 21.46875 13.683593 13.746094 21.328124 32.375 21.242187 51.769531zm0 0" fill="#00acea"/><g fill="#f4b844"><path d="m18.359375 362.050781c1.988281.738281 4.191406.65625 6.117187-.230469 1.929688-.886718 3.425782-2.5 4.164063-4.492187l11.320313-30.550781c1.054687-2.691406.570312-5.746094-1.261719-7.984375s-4.730469-3.3125-7.582031-2.8125c-2.847657.503906-5.203126 2.507812-6.15625 5.238281l-11.324219 30.550781c-1.535157 4.140625.578125 8.746094 4.722656 10.28125zm0 0"/><path d="m88.507812 362.050781c1.988282.738281 4.191407.65625 6.117188-.230469 1.929688-.886718 3.425781-2.5 4.164062-4.492187l11.320313-30.550781c1.054687-2.691406.574219-5.746094-1.257813-7.984375-1.835937-2.238281-4.734374-3.3125-7.582031-2.8125-2.847656.503906-5.203125 2.507812-6.160156 5.238281l-11.320313 30.550781c-1.535156 4.140625.578126 8.746094 4.71875 10.28125zm0 0"/><path d="m159.800781 362.050781c1.988281.738281 4.191407.65625 6.121094-.230469 1.925781-.886718 3.421875-2.503906 4.15625-4.496093l11.308594-30.550781c1.074219-2.695313.601562-5.761719-1.234375-8.011719-1.835938-2.25-4.746094-3.328125-7.605469-2.816407-2.859375.511719-5.214844 2.53125-6.160156 5.273438l-11.308594 30.550781c-1.535156 4.144531.582031 8.746094 4.722656 10.28125zm0 0"/><path d="m229.949219 362.050781c1.992187.738281 4.191406.65625 6.121093-.230469 1.925782-.886718 3.425782-2.503906 4.160157-4.496093l11.308593-30.550781c1.074219-2.695313.597657-5.761719-1.238281-8.011719-1.835937-2.25-4.746093-3.328125-7.601562-2.816407-2.859375.511719-5.214844 2.53125-6.160157 5.273438l-11.308593 30.550781c-1.535157 4.144531.578125 8.746094 4.71875 10.28125zm0 0"/><path d="m301.230469 362.050781c1.992187.738281 4.191406.65625 6.121093-.230469 1.925782-.886718 3.425782-2.503906 4.160157-4.496093l11.308593-30.550781c1.414063-4.105469-.710937-8.59375-4.785156-10.101563-4.074218-1.507813-8.609375.511719-10.214844 4.546875l-11.308593 30.550781c-1.535157 4.144531.578125 8.746094 4.71875 10.28125zm0 0"/><path d="m388.246094 316.496094c-4.144532-1.535156-8.746094.582031-10.28125 4.722656l-11.308594 30.550781c-1.074219 2.699219-.601562 5.769531 1.234375 8.019531s4.746094 3.328126 7.605469 2.816407 5.21875-2.53125 6.160156-5.28125l11.3125-30.550781c1.53125-4.140626-.582031-8.742188-4.722656-10.277344zm0 0"/><path d="m34.53125 428.820312c1.988281.738282 4.191406.65625 6.117188-.230468 1.929687-.886719 3.425781-2.503906 4.160156-4.492188l11.3125-30.550781c1.074218-2.699219.601562-5.769531-1.234375-8.019531-1.835938-2.25-4.75-3.328125-7.609375-2.816406-2.859375.511718-5.214844 2.53125-6.15625 5.28125l-11.3125 30.550781c-1.535156 4.140625.578125 8.742187 4.722656 10.277343zm0 0"/><path d="m104.679688 428.820312c4.144531 1.535157 8.746093-.582031 10.28125-4.722656l11.308593-30.550781c1.074219-2.699219.601563-5.769531-1.234375-8.019531-1.835937-2.25-4.746094-3.328125-7.605468-2.816406-2.859376.511718-5.21875 2.53125-6.160157 5.28125l-11.308593 30.550781c-1.535157 4.140625.578124 8.742187 4.71875 10.277343zm0 0"/><path d="m175.960938 428.820312c4.144531 1.535157 8.746093-.582031 10.28125-4.722656l11.308593-30.550781c1.003907-2.683594.496094-5.699219-1.332031-7.90625-1.824219-2.207031-4.691406-3.269531-7.515625-2.78125-2.824219.484375-5.171875 2.441406-6.15625 5.132813l-11.3125 30.550781c-1.53125 4.140625.582031 8.746093 4.726563 10.277343zm0 0"/><path d="m246.109375 428.820312c1.992187.738282 4.191406.65625 6.121094-.230468 1.925781-.886719 3.421875-2.503906 4.15625-4.492188l11.3125-30.550781c1.074219-2.699219.601562-5.769531-1.234375-8.019531-1.835938-2.25-4.75-3.328125-7.609375-2.816406-2.859375.511718-5.214844 2.53125-6.15625 5.28125l-11.3125 30.550781c-1.53125 4.140625.582031 8.742187 4.722656 10.277343zm0 0"/><path d="m334.269531 383.265625c-4.144531-1.535156-8.746093.582031-10.28125 4.722656l-11.320312 30.550781c-1.054688 2.691407-.574219 5.746094 1.257812 7.984376 1.832031 2.238281 4.730469 3.3125 7.582031 2.8125 2.847657-.503907 5.203126-2.507813 6.160157-5.238282l11.320312-30.550781c1.535157-4.140625-.578125-8.746094-4.71875-10.28125zm0 0"/><path d="m404.417969 383.265625c-4.144531-1.535156-8.746094.578125-10.28125 4.722656l-11.320313 30.550781c-1.054687 2.691407-.574218 5.746094 1.257813 7.984376 1.835937 2.238281 4.734375 3.3125 7.582031 2.8125 2.851562-.503907 5.207031-2.507813 6.160156-5.238282l11.320313-30.550781c1.535156-4.140625-.578125-8.742187-4.71875-10.28125zm0 0"/></g></svg>