<svg height="476pt" viewBox="-78 0 476 476.58117" width="476pt" xmlns="http://www.w3.org/2000/svg"><path d="m137.78125 476.578125c16.921875 0 30.179688-12.769531 30.179688-29.078125v-149.601562c0-4.417969-3.582032-8-8-8-4.417969 0-8 3.582031-8 8v149.601562c0 7.335938-6.230469 13.078125-14.179688 13.078125-3.78125.0625-7.445312-1.332031-10.222656-3.898437-2.527344-2.382813-3.957032-5.703126-3.949219-9.175782 0-4.417968-3.582031-8-8-8s-8 3.582032-8 8c-.023437 7.859375 3.203125 15.375 8.921875 20.769532 5.75 5.398437 13.359375 8.375 21.25 8.304687zm0 0" fill="#f4b844"/><path d="m159.960938 327.289062c0-10.539062-4.429688-19.808593-11.53125-26.980468-7.726563-7.128906-17.875-11.046875-28.390626-10.957032-10.492187-.007812-20.613281 3.902344-28.378906 10.957032-7.097656 7.171875-11.53125 16.441406-11.53125 26.980468 0-10.539062-4.4375-19.808593-11.539062-26.980468-7.71875-7.128906-17.871094-11.046875-28.378906-10.957032-10.496094-.007812-20.621094 3.902344-28.390626 10.957032-7.089843 7.171875-11.53125 23.191406-11.53125 23.191406 0-41.949219 17.851563-79.890625 46.742188-107.339844 28.890625-27.449218 68.800781-44.421875 112.929688-44.421875 88.257812 0 159.667968 67.871094 159.667968 151.761719-.875-3.023438-1.910156-5.996094-3.097656-8.910156-2-4.898438-4.878906-10.699219-8.429688-14.28125-7.726562-7.128906-17.878906-11.046875-28.390624-10.957032-10.496094-.007812-20.621094 3.902344-28.390626 10.957032-7.089843 7.171875-11.53125 16.441406-11.53125 26.980468 0-10.539062-4.429687-19.808593-11.527343-26.980468-7.722657-7.128906-17.871094-11.046875-28.382813-10.957032-10.496094-.007812-20.617187 3.902344-28.386718 10.957032-7.101563 7.171875-11.53125 16.441406-11.53125 26.980468zm0 0" fill="#00acea"/><path d="m245.261719 73.371094c13.449219 23.078125-5.550781 52.089844-32.339844 52.089844-5.273437.003906-10.488281-1.144532-15.269531-3.359376 14.457031-15 19.796875-37.929687 8.226562-57.78125l-9.449218-13.242187.050781-.027344 16.441406-22.972656zm0 0" fill="#00efd1"/><path d="m122.28125 122.089844c-9.148438-9.308594-14.351562-21.789063-14.53125-34.839844.007812-8.125 2.179688-16.101562 6.289062-23.109375l9.371094-13.082031 36.550782-51.058594 36.46875 51.078125 9.449218 13.242187c11.570313 19.851563 6.230469 42.78125-8.226562 57.78125-9.816406 10.324219-23.441406 16.171876-37.6875 16.167969-14.25 0-27.871094-5.851562-37.683594-16.179687zm0 0" fill="#00acea"/><path d="m107 28.078125 16.410156 22.980469-9.371094 13.082031c-4.109374 7.007813-6.28125 14.984375-6.289062 23.109375.179688 13.050781 5.382812 25.53125 14.53125 34.839844-4.785156 2.226562-10.003906 3.375-15.28125 3.371094-20.710938 0-36.769531-17.339844-36.769531-35.941407.003906-5.71875 1.535156-11.335937 4.429687-16.269531zm0 0" fill="#00efd1"/></svg>