<svg height="468pt" viewBox="0 -89 468.099 468" width="468pt" xmlns="http://www.w3.org/2000/svg"><path d="m421.011719 173.941406c-14.910157 3.609375-25.203125 8.75-41.691407 11.839844-.933593-79.566406-65.699218-143.578125-145.269531-143.578125-79.570312 0-144.335937 64.011719-145.269531 143.578125-16.5-3.089844-26.78125-8.230469-41.691406-11.839844 7.105468-98.011718 88.695312-173.894531 186.960937-173.8906248 98.96875 0 180.019531 76.6992188 186.960938 173.8906248zm0 0" fill="#ec6a46"/><path d="m379.320312 185.78125c-10.644531 1.886719-21.441406 2.773438-32.25 2.648438-7.019531 0-13.171874-.289063-18.660156-.789063l.011719-.140625c0-52.121094-42.253906-94.371094-94.371094-94.371094-52.121093 0-94.371093 42.25-94.371093 94.371094l.011718.140625c-5.492187.5-11.652344.789063-18.671875.789063-10.804687.125-21.597656-.761719-32.238281-2.648438.933594-79.566406 65.699219-143.578125 145.269531-143.578125 79.570313 0 144.335938 64.011719 145.269531 143.578125zm0 0" fill="#00efd1"/><path d="m328.421875 187.5-.011719.140625c-18.28125-1.671875-29.300781-5.742187-41.050781-9.5625-4.566406-25.863281-27.042969-44.71875-53.308594-44.71875s-48.742187 18.855469-53.3125 44.71875c-11.75 3.820313-22.769531 7.882813-41.046875 9.5625l-.011718-.140625c0-52.121094 42.25-94.371094 94.371093-94.371094 52.117188 0 94.371094 42.25 94.371094 94.371094zm0 0" fill="#00acea"/><path d="m234.050781 133.359375c26.265625 0 48.742188 18.855469 53.308594 44.71875-13.140625-4.277344-27.179687-8.257813-53.308594-8.257813-26.128906 0-40.171875 3.96875-53.3125 8.257813 4.566407-25.867187 27.042969-44.722656 53.3125-44.71875zm0 0" fill="#fedb41"/><g fill="#f4b844"><path d="m460.101562 161.820312c-15.703124 0-28.722656 1.378907-40.972656 4.34375-6.683594 1.617188-12.460937 3.519532-18.046875 5.363282-7.582031 2.675781-15.34375 4.8125-23.230469 6.386718-10.160156 1.785157-20.464843 2.628907-30.78125 2.515626-6.476562 0-12.339843-.246094-17.933593-.757813-15.671875-1.429687-25.554688-4.679687-36.015625-8.121094-1.09375-.359375-2.1875-.71875-3.285156-1.078125-14-4.558594-28.800782-8.652344-55.785157-8.652344-27.042969 0-41.824219 4.09375-55.785156 8.652344-1.082031.351563-2.160156.707032-3.238281 1.058594-10.472656 3.445312-20.367188 6.703125-36.0625 8.140625-5.515625.5-11.554688.757813-17.945313.757813-10.3125.113281-20.609375-.726563-30.765625-2.511719-7.890625-1.578125-15.660156-3.714844-23.246094-6.394531-5.582031-1.839844-11.351562-3.742188-18.035156-5.359376-12.253906-2.964843-25.273437-4.34375-40.972656-4.34375-4.417969 0-8 3.582032-8 8 0 4.417969 3.582031 8 8 8 14.398438 0 26.222656 1.238282 37.207031 3.894532 6.054688 1.464844 11.269531 3.183594 16.792969 5.003906 8.261719 2.90625 16.71875 5.21875 25.308594 6.925781 11.128906 1.96875 22.414062 2.898438 33.710937 2.785157 6.875 0 13.402344-.277344 19.402344-.824219 17.507813-1.609375 28.738281-5.300781 39.597656-8.875 1.0625-.347657 2.121094-.699219 3.199219-1.046875 13.179688-4.300782 26.101562-7.863282 50.828125-7.863282 24.675781 0 37.617187 3.5625 50.835937 7.867188 1.082032.351562 2.160157.707031 3.234376 1.0625 10.851562 3.566406 22.074218 7.257812 39.566406 8.855469 6.078125.554687 12.417968.824219 19.382812.824219 11.304688.113281 22.59375-.820313 33.722656-2.789063 8.585938-1.703125 17.042969-4.015625 25.300782-6.917969 5.523437-1.820312 10.746094-3.542968 16.800781-5.007812 10.984375-2.65625 22.808594-3.898438 37.207031-3.898438 4.417969 0 8-3.582031 8-8 0-4.417968-3.582031-8-8-8zm0 0"/><path d="m432.191406 208.328125c-26.21875 0-39.5 4.992187-52.34375 9.816406-12.039062 4.523438-23.410156 8.796875-46.726562 8.796875-23.320313 0-34.6875-4.273437-46.726563-8.796875-12.847656-4.824219-26.132812-9.816406-52.355469-9.816406-26.222656 0-39.5 4.992187-52.34375 9.816406-12.035156 4.523438-23.40625 8.796875-46.726562 8.796875-23.316406 0-34.679688-4.273437-46.714844-8.796875-12.84375-4.824219-26.125-9.816406-52.34375-9.816406-4.417968 0-8 3.582031-8 8s3.582032 8 8 8c23.3125 0 34.679688 4.273437 46.714844 8.796875 12.84375 4.824219 26.128906 9.816406 52.34375 9.816406 26.21875 0 39.507812-4.992187 52.355469-9.820312 12.035156-4.519532 23.40625-8.792969 46.714843-8.792969 23.3125 0 34.691407 4.273437 46.726563 8.796875 12.847656 4.824219 26.132813 9.816406 52.355469 9.816406s39.507812-4.992187 52.355468-9.820312c12.035157-4.519532 23.398438-8.792969 46.714844-8.792969 4.417969 0 8-3.582031 8-8s-3.582031-8-8-8zm0 0"/><path d="m404.289062 254.847656c-22.949218 0-34.546874 5.070313-45.761718 9.972656-10.15625 4.4375-19.75 8.628907-39.355469 8.628907-19.609375 0-29.203125-4.191407-39.359375-8.628907-11.214844-4.902343-22.816406-9.972656-45.773438-9.972656-22.957031 0-34.539062 5.070313-45.753906 9.972656-10.152344 4.4375-19.746094 8.628907-39.355468 8.628907-19.609376 0-29.199219-4.191407-39.355469-8.628907-11.214844-4.902343-22.8125-9.972656-45.765625-9.972656-4.417969 0-8 3.582032-8 8 0 4.421875 3.582031 8 8 8 19.609375 0 29.203125 4.195313 39.355468 8.632813 11.21875 4.898437 22.8125 9.96875 45.765626 9.96875 22.953124 0 34.550781-5.070313 45.765624-9.96875 10.152344-4.4375 19.742188-8.632813 39.34375-8.632813 19.601563 0 29.210938 4.195313 39.367188 8.632813 11.214844 4.898437 22.8125 9.96875 45.765625 9.96875 22.949219 0 34.546875-5.066407 45.761719-9.96875 10.15625-4.4375 19.75-8.632813 39.355468-8.632813 4.417969 0 8-3.578125 8-8 0-4.417968-3.582031-8-8-8zm0 0"/></g></svg>