<svg height="470pt" viewBox="-24 0 470 470.46219" width="470pt" xmlns="http://www.w3.org/2000/svg"><path d="m422.332031 196.453125h.21875c0 46.988281-38.089843 85.078125-85.078125 85.078125h-252.160156c-46.992188 0-85.082031-38.089844-85.082031-85.078125h.011719c-.011719-.769531-.011719-.871094-.011719-.871094v-.03125c-.003907-54.199219 40.503906-99.847656 94.320312-106.289062 16.71875-58.929688 74.316407-96.519531 134.992188-88.09375 60.671875 8.425781 105.851562 60.289062 105.878906 121.542969 0 .53125 0 1.042968-.019531 1.5625 4.625-.808594 9.316406-1.160157 14.007812-1.050782 19.394532-.003906 37.992188 7.722656 51.675782 21.464844 13.683593 13.742188 21.328124 32.371094 21.246093 51.765625zm0 0" fill="#00acea"/><path d="m308.78125 396.363281c15.359375 26.347657-6.339844 59.46875-36.921875 59.46875-6.019531.003907-11.972656-1.300781-17.4375-3.828125 16.507813-17.132812 22.597656-43.3125 9.390625-65.980468l-10.78125-15.101563.058594-.050781 18.769531-26.230469zm0 0" fill="#00efd1"/><path d="m168.371094 451.992188c-10.328125-10.71875-16.589844-25.011719-16.589844-39.78125.007812-9.277344 2.492188-18.386719 7.191406-26.390626l10.679688-14.929687 41.738281-58.296875 41.640625 58.328125 10.78125 15.101563c13.207031 22.667968 7.117188 48.847656-9.390625 65.980468-11.207031 11.785156-26.761719 18.460938-43.027344 18.457032-16.265625 0-31.820312-6.675782-43.023437-18.46875zm0 0" fill="#00acea"/><path d="m169.652344 370.890625-10.679688 14.929687c-4.699218 8.003907-7.183594 17.113282-7.191406 26.390626 0 14.769531 6.261719 29.0625 16.589844 39.78125-5.46875 2.539062-11.421875 3.847656-17.449219 3.839843-23.640625 0-41.980469-19.800781-41.980469-41.03125.007813-6.53125 1.753906-12.945312 5.058594-18.578125l36.921875-51.582031zm0 0" fill="#00efd1"/></svg>