<svg height="422pt" viewBox="0 -4 422.32 422" width="422pt" xmlns="http://www.w3.org/2000/svg"><path d="m422.101562 196.613281h.21875c0 46.988281-38.089843 85.078125-85.082031 85.078125h-252.160156c-46.988281 0-85.078125-38.089844-85.078125-85.078125h.0117188c-.0117188-.769531-.0117188-.871093-.0117188-.871093v-.03125c-.0078125-54.199219 40.503906-99.851563 94.320312-106.289063 16.714844-58.929687 74.316407-96.519531 134.992188-88.09375 60.671875 8.425781 105.851562 60.289063 105.878906 121.542969 0 .519531 0 1.039062-.019531 1.5625 4.621094-.808594 9.316406-1.160156 14.007813-1.050782 19.394531-.003906 37.988281 7.722657 51.675781 21.464844 13.683593 13.742188 21.328125 32.371094 21.246093 51.765625zm0 0" fill="#00acea"/><g fill="#f4b844"><path d="m227.429688 319.769531c-3.121094-3.128906-8.1875-3.128906-11.3125-.007812l-4.957032 4.953125-4.957031-4.953125c-3.125-3.121094-8.191406-3.121094-11.3125.003906-3.125 3.128906-3.121094 8.195313.003906 11.316406l4.949219 4.945313-4.242188 4.238281c-2.039062 2.015625-2.84375 4.972656-2.109374 7.746094.738281 2.773437 2.90625 4.9375 5.675781 5.675781 2.773437.738281 5.730469-.066406 7.746093-2.109375l4.246094-4.234375 4.242188 4.242188c2.019531 2.039062 4.972656 2.84375 7.746094 2.105468 2.773437-.734375 4.941406-2.902344 5.679687-5.675781.734375-2.773437-.070313-5.730469-2.109375-7.746094l-4.242188-4.238281 4.949219-4.945312c3.128907-3.121094 3.128907-8.191407.003907-11.316407zm0 0"/><path d="m307.429688 319.769531c-3.121094-3.128906-8.1875-3.128906-11.3125-.007812l-4.957032 4.953125-4.957031-4.953125c-3.125-3.121094-8.191406-3.121094-11.3125.003906-3.125 3.128906-3.121094 8.195313.003906 11.316406l4.949219 4.945313-4.242188 4.238281c-2.039062 2.015625-2.84375 4.972656-2.109374 7.746094.738281 2.773437 2.90625 4.9375 5.675781 5.675781 2.773437.738281 5.730469-.066406 7.746093-2.109375l4.246094-4.234375 4.242188 4.242188c2.019531 2.039062 4.972656 2.84375 7.746094 2.105468 2.773437-.734375 4.941406-2.902344 5.679687-5.675781.734375-2.773437-.070313-5.730469-2.109375-7.746094l-4.242188-4.238281 4.949219-4.945312c3.128907-3.121094 3.128907-8.191407.003907-11.316407zm0 0"/><path d="m387.429688 319.769531c-3.121094-3.128906-8.1875-3.128906-11.3125-.007812l-4.957032 4.953125-4.957031-4.953125c-3.125-3.121094-8.191406-3.121094-11.3125.003906-3.125 3.128906-3.121094 8.195313.003906 11.316406l4.949219 4.945313-4.242188 4.238281c-2.039062 2.015625-2.84375 4.972656-2.109374 7.746094.738281 2.773437 2.90625 4.9375 5.675781 5.675781 2.773437.738281 5.730469-.066406 7.746093-2.109375l4.246094-4.234375 4.242188 4.242188c2.019531 2.039062 4.972656 2.84375 7.746094 2.105468 2.773437-.734375 4.941406-2.902344 5.679687-5.675781.734375-2.773437-.070313-5.730469-2.109375-7.746094l-4.242188-4.238281 4.949219-4.945312c3.128907-3.121094 3.128907-8.191407.003907-11.316407zm0 0"/><path d="m147.429688 319.769531c-3.121094-3.128906-8.1875-3.128906-11.3125-.007812l-4.957032 4.953125-4.957031-4.953125c-3.125-3.121094-8.191406-3.121094-11.3125.003906-3.125 3.128906-3.121094 8.195313.003906 11.316406l4.949219 4.945313-4.242188 4.238281c-2.039062 2.015625-2.84375 4.972656-2.109374 7.746094.738281 2.773437 2.90625 4.9375 5.675781 5.675781 2.773437.738281 5.730469-.066406 7.746093-2.109375l4.246094-4.234375 4.242188 4.242188c2.019531 2.039062 4.972656 2.84375 7.746094 2.105468 2.773437-.734375 4.941406-2.902344 5.679687-5.675781.734375-2.773437-.070313-5.730469-2.109375-7.746094l-4.242188-4.238281 4.949219-4.945312c3.128907-3.121094 3.128907-8.191407.003907-11.316407zm0 0"/><path d="m67.429688 319.769531c-3.121094-3.128906-8.1875-3.128906-11.3125-.007812l-4.957032 4.953125-4.957031-4.953125c-3.125-3.121094-8.191406-3.121094-11.3125.003906-3.125 3.128906-3.121094 8.195313.003906 11.316406l4.949219 4.945313-4.242188 4.238281c-2.039062 2.015625-2.84375 4.972656-2.109374 7.746094.738281 2.773437 2.90625 4.9375 5.675781 5.675781 2.773437.738281 5.730469-.066406 7.746093-2.109375l4.246094-4.234375 4.242188 4.242188c2.019531 2.039062 4.972656 2.84375 7.746094 2.105468 2.773437-.734375 4.941406-2.902344 5.679687-5.675781.734375-2.773437-.070313-5.730469-2.109375-7.746094l-4.242188-4.238281 4.949219-4.945312c3.128907-3.121094 3.128907-8.191407.003907-11.316407zm0 0"/><path d="m267.429688 379.769531c-3.121094-3.128906-8.1875-3.128906-11.3125-.007812l-4.957032 4.953125-4.957031-4.953125c-3.125-3.121094-8.191406-3.121094-11.3125.003906-3.125 3.128906-3.121094 8.195313.003906 11.316406l4.949219 4.945313-4.242188 4.238281c-2.039062 2.015625-2.84375 4.972656-2.109374 7.746094.738281 2.773437 2.90625 4.9375 5.675781 5.675781 2.773437.738281 5.730469-.066406 7.746093-2.109375l4.246094-4.234375 4.242188 4.242188c2.019531 2.039062 4.972656 2.84375 7.746094 2.105468 2.773437-.734375 4.941406-2.902344 5.679687-5.675781.734375-2.773437-.070313-5.730469-2.109375-7.746094l-4.242188-4.238281 4.949219-4.945312c3.128907-3.121094 3.128907-8.191407.003907-11.316407zm0 0"/><path d="m347.429688 379.769531c-3.121094-3.128906-8.1875-3.128906-11.3125-.007812l-4.957032 4.953125-4.957031-4.953125c-3.125-3.121094-8.191406-3.121094-11.3125.003906-3.125 3.128906-3.121094 8.195313.003906 11.316406l4.949219 4.945313-4.242188 4.238281c-2.039062 2.015625-2.84375 4.972656-2.109374 7.746094.738281 2.773437 2.90625 4.9375 5.675781 5.675781 2.773437.738281 5.730469-.066406 7.746093-2.109375l4.246094-4.234375 4.242188 4.242188c2.019531 2.039062 4.972656 2.84375 7.746094 2.105468 2.773437-.734375 4.941406-2.902344 5.679687-5.675781.734375-2.773437-.070313-5.730469-2.109375-7.746094l-4.242188-4.238281 4.949219-4.945312c3.128907-3.121094 3.128907-8.191407.003907-11.316407zm0 0"/><path d="m187.429688 379.769531c-3.121094-3.128906-8.1875-3.128906-11.3125-.007812l-4.957032 4.953125-4.957031-4.953125c-3.125-3.121094-8.191406-3.121094-11.3125.003906-3.125 3.128906-3.121094 8.195313.003906 11.316406l4.949219 4.945313-4.242188 4.238281c-2.039062 2.015625-2.84375 4.972656-2.109374 7.746094.738281 2.773437 2.90625 4.9375 5.675781 5.675781 2.773437.738281 5.730469-.066406 7.746093-2.109375l4.246094-4.234375 4.242188 4.242188c2.019531 2.039062 4.972656 2.84375 7.746094 2.105468 2.773437-.734375 4.941406-2.902344 5.679687-5.675781.734375-2.773437-.070313-5.730469-2.109375-7.746094l-4.242188-4.238281 4.949219-4.945312c3.128907-3.121094 3.128907-8.191407.003907-11.316407zm0 0"/><path d="m107.429688 379.769531c-3.121094-3.128906-8.1875-3.128906-11.3125-.007812l-4.957032 4.953125-4.957031-4.953125c-3.125-3.121094-8.191406-3.121094-11.3125.003906-3.125 3.128906-3.121094 8.195313.003906 11.316406l4.949219 4.945313-4.242188 4.238281c-2.039062 2.015625-2.84375 4.972656-2.109374 7.746094.738281 2.773437 2.90625 4.9375 5.675781 5.675781 2.773437.738281 5.730469-.066406 7.746093-2.109375l4.246094-4.234375 4.242188 4.242188c2.019531 2.039062 4.972656 2.84375 7.746094 2.105468 2.773437-.734375 4.941406-2.902344 5.679687-5.675781.734375-2.773437-.070313-5.730469-2.109375-7.746094l-4.242188-4.238281 4.949219-4.945312c3.128907-3.121094 3.128907-8.191407.003907-11.316407zm0 0"/></g></svg>