<svg height="422pt" viewBox="0 -15 422.32 422" width="422pt" xmlns="http://www.w3.org/2000/svg"><path d="m275.949219 280.257812h-129.578125l.367187.378907-1.027343 1.050781h-60.632813c-46.984375.003906-85.07421875-38.082031-85.078125-85.070312h.0117188c-.0117188-.777344-.0117188-.878907-.0117188-.878907v-.03125c-.00390625-54.195312 40.503906-99.84375 94.320312-106.277343 16.714844-58.9375 74.316407-96.527344 134.992188-88.101563s105.855469 60.292969 105.878906 121.550781c0 .519532 0 1.027344-.019531 1.558594 4.621094-.8125 9.316406-1.167969 14.007813-1.058594 19.394531-.003906 37.992187 7.722656 51.675781 21.46875 13.6875 13.746094 21.332031 32.375 21.246093 51.769532h.21875c-.003906 46.988281-38.09375 85.074218-85.082031 85.070312h-60.628906l-1.03125-1.050781zm0 0" fill="#00acea"/><path d="m295.039062 272.257812 13.984376-14.21875-11.40625-11.21875-25.019532 25.4375h-41.746094l29.144532-29.140624 36.21875.300781.132812-16-20.484375-.167969 3.121094-3.121094 16.300781-16.292968-11.3125-11.316407-16.296875 16.289063 5.652344 5.660156-5.65625-5.65625-3.121094 3.121094-.171875-20.472656-16 .132812.300782 36.207031-29.519532 29.523438v-41.742188l25.820313-25.402343-11.21875-11.40625-14.601563 14.363281v-28.878907h-16v28.878907l-14.601562-14.363281-11.21875 11.40625 25.820312 25.402343v41.753907l-29.519531-29.523438.300781-36.21875-16-.132812-.171875 20.480468-19.421875-19.421875-11.316406 11.316407 19.414062 19.414062-20.472656.167969.132813 16 36.207031-.300781 29.144531 29.140624h-41.738281l-25.015625-25.4375-11.40625 11.21875 13.984375 14.21875h-28.121094v16h28.867188l-14.730469 14.980469 11.40625 11.21875 25.765625-26.199219h41.765625l-29.90625 29.902344-36.222656-.300781-.132813 16 20.484375.167969-19.425781 19.425781 11.316406 11.3125 19.421875-19.421875.171875 20.480469 16-.132813-.300781-36.21875 29.519531-29.519531v41.753906l-25.820312 25.386719 11.21875 11.410156 14.601562-14.359375v28.113281h16v-28.113281l14.601563 14.359375 11.21875-11.410156-25.820313-25.386719v-41.746093l29.519532 29.523437-.300782 36.207031 16 .132813.171875-20.472657 3.121094 3.125 5.65625-5.660156-5.652344 5.660156 16.296875 16.289063 11.3125-11.316406-16.300781-16.289063-3.128906-3.132812 20.492187-.167969-.132812-16-36.230469.300781-29.898437-29.902344h41.765624l25.765626 26.199219 11.40625-11.21875-14.730469-14.980469h28.867187v-16zm0 0" fill="#f4b844"/></svg>