<svg height="484pt" viewBox="-52 0 484 484.44331" width="484pt" xmlns="http://www.w3.org/2000/svg"><path d="m183.171875 283.082031c-4.417969 0-8 3.582031-8 8v161.230469c0 9.042969-7.738281 16.128906-17.484375 16.128906-4.648438.066406-9.144531-1.652344-12.5625-4.800781-3.132812-2.9375-4.90625-7.039063-4.902344-11.328125 0-4.425781-3.585937-8.011719-8.007812-8.011719-4.425782 0-8.011719 3.585938-8.011719 8.011719-.035156 8.675781 3.53125 16.980469 9.847656 22.929688 6.40625 5.980468 14.867188 9.273437 23.632813 9.199218 18.71875 0 33.484375-14.113281 33.484375-32.128906v-161.230469c0-4.417969-3.578125-8-7.996094-8zm0 0" fill="#f4b844"/><path d="m189.980469 145.371094c34.910156 1.140625 68.8125 11.976562 97.910156 31.289062 47.082031 31.402344 77.820313 83.390625 77.820313 142.28125-1.007813-3.460937-2.191407-6.863281-3.550782-10.199218-2.289062-5.601563-5.589844-12.242188-9.648437-16.339844-8.839844-8.164063-20.457031-12.648438-32.488281-12.550782-12.015626-.003906-23.597657 4.472657-32.492188 12.550782-8.121094 8.199218-13.199219 18.808594-13.199219 30.878906 0-12.058594-5.070312-22.679688-13.191406-30.878906-8.839844-8.160156-20.457031-12.648438-32.488281-12.550782-12.015625-.003906-23.597656 4.46875-32.492188 12.550782-8.117187 8.199218-13.199218 18.808594-13.199218 30.878906 0-12.058594-5.070313-22.679688-13.199219-30.878906-8.839844-8.164063-20.457031-12.648438-32.488281-12.550782-12.011719-.003906-23.59375 4.472657-32.480469 12.550782-8.132813 8.199218-13.203125 18.808594-13.203125 30.878906 0-12.058594-5.078125-22.679688-13.199219-30.878906-8.839844-8.164063-20.457031-12.648438-32.488281-12.550782-12.015625-.003906-23.597656 4.472657-32.492188 12.550782-8.117187 8.199218-13.1875 26.539062-13.1875 26.539062 0-48.011718 20.429688-91.441406 53.488282-122.859375 33.0625-31.421875 78.742187-50.839843 129.25-50.839843 2.351562 0 4.691406.042968 7.019531.128906zm0 0" fill="#00acea"/><path d="m305.28125 114.03125c7.015625 22.4375.234375 46.902344-17.328125 62.53125l-.0625.097656c-29.097656-19.3125-63-30.148437-97.910156-31.289062-7.257813-31.3125 11.542969-62.761719 42.558593-71.191406 31.019532-8.429688 63.152344 9.171874 72.742188 39.851562zm0 0" fill="#fedb41"/><g fill="#f4b844"><path d="m218.476562 5.613281c-1.316406-4.21875-5.804687-6.566406-10.023437-5.25-4.214844 1.320313-6.566406 5.808594-5.246094 10.023438l8.199219 26.222656c1.316406 4.21875 5.804688 6.566406 10.023438 5.246094 4.21875-1.316407 6.566406-5.804688 5.246093-10.023438zm0 0"/><path d="m129.972656 78.988281 23.839844 12.480469c2.535156 1.351562 5.597656 1.238281 8.027344-.292969 2.429687-1.53125 3.851562-4.25 3.726562-7.117187-.128906-2.871094-1.78125-5.449219-4.335937-6.765625l-23.839844-12.480469c-2.535156-1.347656-5.597656-1.234375-8.027344.296875-2.429687 1.53125-3.851562 4.246094-3.722656 7.117187.125 2.867188 1.777344 5.449219 4.332031 6.761719zm0 0"/><path d="m366.464844 184.765625-23.832032-12.480469c-3.914062-2.050781-8.75-.539062-10.796874 3.375-2.050782 3.914063-.539063 8.746094 3.375 10.796875l23.828124 12.480469c3.914063 2.050781 8.75.539062 10.800782-3.375 2.050781-3.914062.539062-8.75-3.375-10.796875zm0 0"/><path d="m379.757812 91.890625c-1.320312-4.214844-5.808593-6.5625-10.023437-5.246094l-26.210937 8.203125c-2.742188.839844-4.824219 3.085938-5.457032 5.882813-.628906 2.796875.285156 5.71875 2.398438 7.660156 2.113281 1.9375 5.101562 2.597656 7.835937 1.726563l26.210938-8.199219c4.214843-1.320313 6.5625-5.808594 5.246093-10.027344zm0 0"/><path d="m311.902344 10.253906c-3.914063-2.050781-8.75-.539062-10.800782 3.375l-12.480468 23.832032c-2.050782 3.914062-.539063 8.746093 3.375 10.796874 3.914062 2.050782 8.75.539063 10.800781-3.375l12.476563-23.828124c2.050781-3.914063.542968-8.75-3.371094-10.800782zm0 0"/></g></svg>