<svg height="484pt" viewBox="0 -85 484.04 484" width="484pt" xmlns="http://www.w3.org/2000/svg"><path d="m173.160156 116.898438c21.296875-52.199219 76.558594-82.027344 131.886719-71.1875 55.324219 10.84375 95.242187 59.320312 95.261719 115.699218 0 .5 0 1-.007813 1.5 4.441407-.777344 8.949219-1.117187 13.460938-1.011718 18.632812 0 36.5 7.421874 49.652343 20.625 13.148438 13.203124 20.496094 31.101562 20.414063 49.738281h.210937c0 45.144531-36.601562 81.742187-81.75 81.738281h-242.277343c-45.148438.003906-81.75-36.59375-81.75-81.738281h.019531c-.011719-.742188-.019531-.832031-.019531-.832031v-.039063c0-52.074219 38.921875-95.933594 90.628906-102.121094 1.191406-4.199219 2.617187-8.328125 4.269531-12.371093zm0 0" fill="#00acea"/><path d="m173.160156 116.898438c-1.652344 4.042968-3.078125 8.171874-4.269531 12.371093-27.488281 3.25-52.496094 17.480469-69.332031 39.449219-23.199219-10.496094-35.449219-36.195312-28.996094-60.832031 6.457031-24.632813 29.734375-41.023438 55.101562-38.796875 25.371094 2.230468 45.433594 22.425781 47.496094 47.808594zm0 0" fill="#fedb41"/><g fill="#f4b844"><path d="m120 .0195312c-4.417969 0-8 3.5820308-8 7.9999998v24c0 4.417969 3.582031 8 8 8s8-3.582031 8-8v-24c0-4.417969-3.582031-7.9999998-8-7.9999998zm0 0"/><path d="m195.3125 35.59375-16.621094 16.632812c-2.042968 2.015626-2.84375 4.972657-2.105468 7.746094.734374 2.773438 2.902343 4.9375 5.675781 5.675782 2.773437.734374 5.730469-.070313 7.746093-2.113282l16.621094-16.628906c2.058594-2.015625 2.875-4.980469 2.140625-7.761719-.738281-2.785156-2.914062-4.960937-5.695312-5.695312-2.785157-.730469-5.75.085937-7.761719 2.144531zm0 0"/><path d="m52.183594 178.71875-16.621094 16.621094c-3.125 3.125-3.125 8.191406 0 11.316406 3.125 3.121094 8.191406 3.121094 11.316406-.003906l16.617188-16.617188c3.125-3.125 3.125-8.191406 0-11.316406-3.125-3.121094-8.1875-3.121094-11.3125 0zm0 0"/><path d="m40 122.019531c0-4.417969-3.582031-8-8-8h-24c-4.417969 0-8 3.582031-8 8s3.582031 8 8 8h24c4.417969 0 8-3.582031 8-8zm0 0"/><path d="m52.183594 63.535156c3.121094 3.125 8.1875 3.128906 11.3125.003906s3.128906-8.1875.003906-11.3125l-16.621094-16.632812c-2.011718-2.058594-4.976562-2.875-7.761718-2.144531-2.78125.734375-4.957032 2.910156-5.691407 5.695312-.738281 2.78125.078125 5.746094 2.136719 7.761719zm0 0"/></g></svg>