<svg height="484pt" viewBox="0 -14 484.07 484" width="484pt" xmlns="http://www.w3.org/2000/svg"><path d="m99.371094 168.574219c16.832031-22.136719 41.941406-36.484375 69.558594-39.75 1.171874-4.152344 2.578124-8.234375 4.210937-12.230469 21.238281-52.257812 76.507813-82.164062 131.871094-71.351562s95.320312 59.3125 95.339843 115.722656c0 .5 0 .988281-.011718 1.488281 4.441406-.769531 8.945312-1.109375 13.449218-1.007813 18.636719-.003906 36.507813 7.421876 49.65625 20.625 13.148438 13.207032 20.496094 31.109376 20.414063 49.746094h.210937c-.003906 45.140625-36.597656 81.734375-81.742187 81.738282h-242.289063c-45.140624-.003907-81.734374-36.597657-81.738281-81.738282h.007813c-.007813-.742187-.007813-.839844-.007813-.839844v-.03125c-.03125-22.542968 7.375-44.464843 21.070313-62.371093zm0 0" fill="#00acea"/><path d="m173.140625 116.59375c-1.632813 3.996094-3.039063 8.078125-4.210937 12.230469-27.617188 3.265625-52.726563 17.613281-69.558594 39.75-23.101563-10.570313-35.25-36.226563-28.78125-60.792969s29.671875-40.917969 54.984375-38.742188c25.308593 2.175782 45.386719 22.246094 47.566406 47.554688zm0 0" fill="#fedb41"/><g fill="#f4b844"><path d="m112.261719 347.371094c-4.144531-1.535156-8.746094.582031-10.28125 4.722656l-10.878907 29.359375c-1.058593 2.695313-.574218 5.75 1.257813 7.988281 1.832031 2.238282 4.730469 3.3125 7.582031 2.808594 2.847656-.503906 5.203125-2.503906 6.160156-5.234375l10.878907-29.359375c1.535156-4.144531-.578125-8.746094-4.71875-10.285156zm0 0"/><path d="m179.65625 347.371094c-4.140625-1.53125-8.746094.582031-10.277344 4.726562l-10.871094 29.359375c-1.070312 2.695313-.59375 5.761719 1.242188 8.007813s4.742188 3.324218 7.597656 2.816406c2.859375-.511719 5.214844-2.527344 6.160156-5.269531l10.871094-29.359375c1.535156-4.140625-.578125-8.746094-4.722656-10.28125zm0 0"/><path d="m231.710938 391.734375c4.140624 1.535156 8.746093-.578125 10.28125-4.722656l10.878906-29.359375c1.441406-4.117188-.679688-8.628906-4.769532-10.144532-4.089843-1.515624-8.640624.523438-10.230468 4.585938l-10.878906 29.359375c-1.535157 4.140625.574218 8.746094 4.71875 10.28125zm0 0"/><path d="m299.121094 391.734375c1.992187.738281 4.191406.65625 6.121094-.230469 1.929687-.886718 3.425781-2.503906 4.160156-4.492187l10.867187-29.363281c1.074219-2.699219.601563-5.765626-1.234375-8.011719-1.835937-2.25-4.746094-3.328125-7.605468-2.816407-2.859376.507813-5.214844 2.527344-6.160157 5.273438l-10.871093 29.363281c-1.53125 4.144531.582031 8.742188 4.722656 10.277344zm0 0"/><path d="m367.601562 391.734375c4.140626 1.535156 8.746094-.578125 10.28125-4.722656l10.878907-29.359375c1.054687-2.691406.574219-5.746094-1.257813-7.984375-1.835937-2.238281-4.734375-3.3125-7.582031-2.8125-2.847656.503906-5.203125 2.507812-6.160156 5.238281l-10.878907 29.359375c-1.535156 4.140625.574219 8.746094 4.71875 10.28125zm0 0"/><path d="m435.011719 391.734375c1.992187.738281 4.191406.65625 6.121093-.230469 1.925782-.886718 3.425782-2.503906 4.160157-4.492187l10.867187-29.363281c1.070313-2.695313.597656-5.761719-1.238281-8.007813s-4.746094-3.324219-7.601563-2.8125c-2.855468.507813-5.210937 2.523437-6.160156 5.265625l-10.867187 29.359375c-1.535157 4.144531.578125 8.746094 4.71875 10.28125zm0 0"/><path d="m127.789062 411.535156c-4.140624-1.535156-8.742187.578125-10.28125 4.71875l-10.878906 29.351563c-1.046875 2.691406-.5625 5.738281 1.269532 7.972656 1.832031 2.234375 4.726562 3.304687 7.570312 2.804687 2.84375-.496093 5.199219-2.492187 6.160156-5.214843l10.878906-29.351563c1.539063-4.140625-.574218-8.746094-4.71875-10.28125zm0 0"/><path d="m181.539062 456.386719c3.347657 0 6.339844-2.085938 7.5-5.222657l10.871094-29.351562c1.417969-4.109375-.707031-8.601562-4.785156-10.109375-4.078125-1.511719-8.613281.511719-10.214844 4.554687l-10.871094 29.347657c-.90625 2.457031-.558593 5.199219.9375 7.347656 1.496094 2.148437 3.945313 3.429687 6.5625 3.433594zm0 0"/><path d="m247.238281 455.886719c1.988281.738281 4.191407.65625 6.121094-.230469 1.925781-.882812 3.425781-2.5 4.160156-4.492188l10.882813-29.347656c1.046875-2.691406.558594-5.738281-1.269532-7.972656-1.832031-2.234375-4.726562-3.304688-7.570312-2.808594-2.84375.5-5.199219 2.496094-6.160156 5.21875l-10.882813 29.351563c-1.535156 4.140625.578125 8.742187 4.71875 10.28125zm0 0"/><path d="m314.652344 455.886719c1.988281.738281 4.191406.65625 6.117187-.230469 1.929688-.886719 3.425781-2.503906 4.164063-4.492188l10.867187-29.351562c1.417969-4.109375-.707031-8.601562-4.78125-10.109375-4.078125-1.511719-8.617187.511719-10.21875 4.554687l-10.867187 29.347657c-1.535156 4.144531.578125 8.746093 4.71875 10.28125zm0 0"/><path d="m383.128906 455.886719c1.988282.738281 4.191406.65625 6.121094-.230469 1.929688-.882812 3.425781-2.5 4.160156-4.492188l10.878906-29.347656c1.457032-4.121094-.664062-8.644531-4.761718-10.164062-4.09375-1.519532-8.652344.53125-10.238282 4.601562l-10.878906 29.351563c-1.535156 4.140625.578125 8.746093 4.71875 10.28125zm0 0"/><path d="m450.542969 455.886719c1.988281.738281 4.191406.65625 6.117187-.230469 1.929688-.886719 3.425782-2.503906 4.160156-4.492188l10.871094-29.351562c1.070313-2.695312.59375-5.761719-1.242187-8.007812-1.835938-2.246094-4.742188-3.324219-7.597657-2.816407-2.855468.511719-5.214843 2.527344-6.160156 5.269531l-10.871094 29.347657c-1.53125 4.144531.582032 8.746093 4.722657 10.28125zm0 0"/><path d="m120 40.035156c4.417969 0 8-3.582031 8-8v-24c0-4.417968-3.582031-7.9999998-8-7.9999998s-8 3.5820318-8 7.9999998v24c0 4.417969 3.582031 8 8 8zm0 0"/><path d="m184.351562 65.824219c2.121094.003906 4.15625-.839844 5.65625-2.34375l16.621094-16.617188c3.121094-3.125 3.121094-8.191406-.003906-11.316406s-8.1875-3.125-11.3125 0l-16.621094 16.621094c-2.289062 2.289062-2.972656 5.730469-1.734375 8.71875s4.15625 4.9375 7.394531 4.9375zm0 0"/><path d="m52.183594 178.667969-16.621094 16.621093c-3.125 3.125-3.125 8.1875 0 11.3125s8.191406 3.125 11.316406 0l16.617188-16.621093c3.125-3.121094 3.125-8.1875 0-11.3125s-8.1875-3.125-11.3125 0zm0 0"/><path d="m40 122.035156c0-4.417968-3.582031-8-8-8h-24c-4.417969 0-8 3.582032-8 8 0 4.417969 3.582031 8 8 8h24c4.417969 0 8-3.582031 8-8zm0 0"/><path d="m46.878906 35.546875c-3.125-3.125-8.191406-3.125-11.316406 0s-3.125 8.191406 0 11.316406l16.621094 16.617188c3.125 3.125 8.191406 3.128906 11.316406.003906s3.125-8.191406 0-11.316406zm0 0"/></g></svg>