<svg height="457.26pt" viewBox="0 0 457.26 457.26" width="457.26pt" xmlns="http://www.w3.org/2000/svg"><path d="m457.261719 167.359375-86.351563 47.980469c-1.464844-16.039063-5.65625-31.710938-12.390625-46.339844zm0 0" fill="#00efd1"/><path d="m457.261719 289.898438-98.742188-1.636719c6.734375-14.632813 10.925781-30.304688 12.390625-46.339844zm0 0" fill="#00efd1"/><path d="m396 61.261719-50.800781 84.707031c-9.316407-13.125-20.78125-24.589844-33.910157-33.910156zm0 0" fill="#00efd1"/><path d="m345.199219 311.289062 50.800781 84.710938-84.710938-50.800781c13.128907-9.316407 24.59375-20.78125 33.910157-33.910157zm0 0" fill="#00efd1"/><path d="m370.910156 215.339844c.410156 4.378906.609375 8.800781.609375 13.289062 0 4.492188-.199219 8.910156-.609375 13.292969-2.300781 24.984375-11.171875 48.917969-25.710937 69.367187-14.519531 20.457032-34.152344 36.742188-56.9375 47.230469-14.632813 6.734375-30.304688 10.925781-46.339844 12.390625-4.382813.410156-8.800781.609375-13.292969.609375-4.488281 0-8.910156-.199219-13.289062-.609375-24.984375-2.300781-48.917969-11.171875-69.371094-25.710937-20.453125-14.519531-36.738281-34.152344-47.230469-56.9375-6.734375-14.632813-10.921875-30.304688-12.386719-46.339844-.410156-4.382813-.613281-8.800781-.613281-13.292969 0-4.488281.203125-8.910156.613281-13.289062 2.300782-24.984375 11.167969-48.917969 25.707032-69.371094 14.519531-20.453125 34.15625-36.738281 56.941406-47.230469 14.628906-6.734375 30.300781-10.921875 46.339844-12.386719 4.378906-.410156 8.800781-.613281 13.289062-.613281 4.492188 0 8.910156.203125 13.292969.613281 24.984375 2.300782 48.917969 11.167969 69.367187 25.707032 20.457032 14.519531 36.742188 34.15625 47.230469 56.941406 6.734375 14.628906 10.925781 30.300781 12.390625 46.339844zm0 0" fill="#fedb41"/><g fill="#00efd1"><path d="m289.898438 0-1.636719 98.738281c-14.632813-6.734375-30.304688-10.921875-46.339844-12.386719zm0 0"/><path d="m288.261719 358.519531 1.636719 98.742188-47.976563-86.351563c16.035156-1.464844 31.707031-5.65625 46.339844-12.390625zm0 0"/><path d="m167.359375 0 47.980469 86.351562c-16.039063 1.464844-31.710938 5.652344-46.339844 12.386719zm0 0"/><path d="m215.339844 370.910156-47.980469 86.351563 1.640625-98.742188c14.628906 6.734375 30.300781 10.925781 46.339844 12.390625zm0 0"/><path d="m61.261719 61.261719 84.707031 50.796875c-13.125 9.320312-24.589844 20.785156-33.910156 33.910156zm0 0"/><path d="m145.96875 345.199219-84.707031 50.800781 50.796875-84.710938c9.320312 13.128907 20.785156 24.59375 33.910156 33.910157zm0 0"/><path d="m0 167.359375 98.738281 1.640625c-6.734375 14.628906-10.921875 30.300781-12.386719 46.339844zm0 0"/><path d="m98.738281 288.261719-98.738281 1.636719 86.351562-47.976563c1.464844 16.035156 5.652344 31.707031 12.386719 46.339844zm0 0"/></g></svg>