<svg height="474pt" viewBox="-56 0 474 474.36" width="474pt" xmlns="http://www.w3.org/2000/svg"><path d="m181.179688 300.359375c44.121093 0 79.910156 35.71875 80 79.839844-36.871094-1.898438-39.03125-19.839844-80.007813-19.839844-40.960937 0-43.121094 17.941406-79.992187 19.839844.089843-44.121094 35.878906-79.839844 80-79.839844zm0 0" fill="#00acea"/><path d="m181.179688 0 47.492187 52.238281h-33.492187v93h-28v-93h-33.488282zm0 0" fill="#00efd1"/><path d="m180.179688 252.238281c-4.417969 0-8-3.578125-8-8v-36c0-4.417969 3.582031-8 8-8 4.417968 0 8 3.582031 8 8v36c0 4.421875-3.582032 8-8 8zm0 0" fill="#fedb41"/><path d="m278.050781 291.488281c-3.238281 0-6.152343-1.949219-7.390625-4.9375-1.238281-2.988281-.554687-6.429687 1.734375-8.71875l25.457031-25.460937c3.125-3.121094 8.191407-3.121094 11.316407 0 3.125 3.125 3.125 8.191406 0 11.316406l-25.460938 25.460938c-1.5 1.5-3.535156 2.34375-5.65625 2.339843zm0 0" fill="#fedb41"/><path d="m267.679688 388.359375c-2.265626 0-4.585938-.054687-6.890626-.167969-18.96875-.976562-29.511718-5.851562-39.710937-10.570312-10.300781-4.761719-20.03125-9.261719-39.90625-9.261719s-29.589844 4.5-39.886719 9.261719c-10.199218 4.714844-20.742187 9.59375-39.691406 10.566406-2.328125.117188-4.648438.171875-6.914062.171875-23.382813 0-35.191407-5.457031-46.605469-10.738281-10.300781-4.761719-20.027344-9.261719-39.894531-9.261719-4.417969 0-8-3.582031-8-8s3.582031-8 8-8c23.386718 0 35.191406 5.460937 46.605468 10.738281 10.300782 4.765625 20.03125 9.261719 39.894532 9.261719 2.007812 0 4.0625-.050781 6.109374-.148437 15.84375-.816407 24.554688-4.847657 33.78125-9.113282 11.414063-5.277344 23.214844-10.738281 46.597657-10.738281 23.382812 0 35.199219 5.460937 46.625 10.738281 9.222656 4.265625 17.9375 8.296875 33.800781 9.113282 2.023438.101562 4.078125.148437 6.085938.148437 19.867187 0 29.59375-4.5 39.894531-9.261719 11.414062-5.277344 23.222656-10.738281 46.605469-10.738281 4.417968 0 8 3.582031 8 8s-3.582032 8-8 8c-19.863282 0-29.59375 4.5-39.894532 9.261719-11.414062 5.28125-23.21875 10.738281-46.605468 10.738281zm0 0" fill="#00efd1"/><path d="m84.308594 291.488281c-2.121094.003907-4.15625-.839843-5.65625-2.339843l-25.460938-25.460938c-3.121094-3.125-3.121094-8.191406 0-11.316406 3.125-3.121094 8.191406-3.121094 11.316406 0l25.460938 25.460937c2.285156 2.289063 2.972656 5.730469 1.734375 8.71875s-4.15625 4.9375-7.394531 4.9375zm0 0" fill="#fedb41"/><g fill="#00efd1"><path d="m267.679688 431.359375c-23.382813 0-35.1875-5.457031-46.605469-10.738281-10.300781-4.761719-20.035157-9.261719-39.898438-9.261719-19.867187 0-29.585937 4.5-39.882812 9.261719-11.417969 5.277344-23.222657 10.738281-46.609375 10.738281-23.386719 0-35.191406-5.457031-46.605469-10.738281-10.300781-4.761719-20.027344-9.261719-39.894531-9.261719-4.417969 0-8-3.582031-8-8s3.582031-8 8-8c23.386718 0 35.191406 5.460937 46.605468 10.738281 10.300782 4.765625 20.03125 9.261719 39.894532 9.261719 19.867187 0 29.59375-4.5 39.894531-9.261719 11.414063-5.277344 23.21875-10.738281 46.597656-10.738281 23.382813 0 35.203125 5.460937 46.621094 10.738281 10.296875 4.765625 20.027344 9.261719 39.890625 9.261719s29.59375-4.5 39.890625-9.261719c11.410156-5.277344 23.21875-10.738281 46.601563-10.738281 4.417968 0 8 3.582031 8 8s-3.582032 8-8 8c-19.863282 0-29.59375 4.5-39.894532 9.261719-11.414062 5.28125-23.21875 10.738281-46.605468 10.738281zm0 0"/><path d="m267.679688 474.359375c-23.382813 0-35.1875-5.457031-46.605469-10.738281-10.300781-4.761719-20.035157-9.261719-39.898438-9.261719-19.867187 0-29.585937 4.5-39.882812 9.261719-11.417969 5.277344-23.222657 10.738281-46.609375 10.738281-23.386719 0-35.191406-5.457031-46.605469-10.738281-10.300781-4.761719-20.027344-9.261719-39.894531-9.261719-4.417969 0-8-3.582031-8-8s3.582031-8 8-8c23.386718 0 35.191406 5.460937 46.605468 10.738281 10.300782 4.765625 20.03125 9.261719 39.894532 9.261719 19.867187 0 29.59375-4.5 39.894531-9.261719 11.414063-5.277344 23.21875-10.738281 46.597656-10.738281 23.382813 0 35.203125 5.460937 46.621094 10.738281 10.296875 4.765625 20.027344 9.261719 39.890625 9.261719s29.59375-4.5 39.890625-9.261719c11.410156-5.277344 23.21875-10.738281 46.601563-10.738281 4.417968 0 8 3.582031 8 8s-3.582032 8-8 8c-19.863282 0-29.59375 4.5-39.894532 9.261719-11.414062 5.28125-23.21875 10.738281-46.605468 10.738281zm0 0"/></g></svg>