<svg height="474pt" viewBox="-56 0 474 474" width="474pt" xmlns="http://www.w3.org/2000/svg"><path d="m181 300c44.121094 0 79.910156 35.71875 80 79.839844-36.871094-1.898438-39.03125-19.839844-80.011719-19.839844-40.957031 0-43.117187 17.941406-79.988281 19.839844.089844-44.121094 35.878906-79.839844 80-79.839844zm0 0" fill="#00acea"/><path d="m228.488281 93-47.488281 52.238281-47.488281-52.238281h33.488281v-93h28v93zm0 0" fill="#00efd1"/><path d="m180 252c-4.417969 0-8-3.582031-8-8v-36c0-4.417969 3.582031-8 8-8s8 3.582031 8 8v36c0 4.417969-3.582031 8-8 8zm0 0" fill="#fedb41"/><path d="m277.871094 291.128906c-3.238282 0-6.152344-1.949218-7.390625-4.9375-1.238281-2.988281-.554688-6.429687 1.734375-8.71875l25.457031-25.460937c3.125-3.121094 8.191406-3.121094 11.316406 0 3.121094 3.125 3.121094 8.191406 0 11.316406l-25.460937 25.457031c-1.5 1.503906-3.535156 2.347656-5.65625 2.34375zm0 0" fill="#fedb41"/><path d="m267.5 388c-2.265625 0-4.585938-.058594-6.890625-.171875-18.96875-.976563-29.511719-5.851563-39.710937-10.566406-10.296876-4.761719-20.035157-9.261719-39.910157-9.261719s-29.585937 4.5-39.882812 9.261719c-10.203125 4.714843-20.742188 9.589843-39.695313 10.566406-2.324218.113281-4.644531.171875-6.910156.171875-23.386719 0-35.191406-5.460938-46.605469-10.738281-10.300781-4.761719-20.03125-9.261719-39.894531-9.261719-4.417969 0-8-3.582031-8-8s3.582031-8 8-8c23.386719 0 35.191406 5.460938 46.605469 10.738281 10.300781 4.761719 20.03125 9.261719 39.894531 9.261719 2.007812 0 4.0625-.050781 6.109375-.152344 15.839844-.816406 24.554687-4.84375 33.78125-9.109375 11.410156-5.277343 23.214844-10.738281 46.597656-10.738281 23.382813 0 35.203125 5.460938 46.625 10.738281 9.222657 4.265625 17.9375 8.292969 33.800781 9.113281 2.023438.097657 4.078126.148438 6.085938.148438 19.867188 0 29.59375-4.5 39.894531-9.261719 11.414063-5.277343 23.21875-10.738281 46.605469-10.738281 4.417969 0 8 3.582031 8 8s-3.582031 8-8 8c-19.863281 0-29.59375 4.5-39.894531 9.261719-11.414063 5.277343-23.21875 10.738281-46.605469 10.738281zm0 0" fill="#00efd1"/><path d="m84.128906 291.128906c-2.121094.003906-4.15625-.839844-5.65625-2.34375l-25.460937-25.457031c-3.121094-3.125-3.121094-8.191406 0-11.316406 3.125-3.121094 8.191406-3.121094 11.316406 0l25.457031 25.460937c2.289063 2.289063 2.972656 5.730469 1.734375 8.71875-1.238281 2.988282-4.152343 4.9375-7.390625 4.9375zm0 0" fill="#fedb41"/><g fill="#00efd1"><path d="m267.5 431c-23.382812 0-35.1875-5.460938-46.605469-10.738281-10.300781-4.761719-20.035156-9.261719-39.902343-9.261719-19.863282 0-29.582032 4.5-39.878907 9.261719-11.421875 5.277343-23.226562 10.738281-46.613281 10.738281s-35.191406-5.460938-46.605469-10.738281c-10.300781-4.761719-20.03125-9.261719-39.894531-9.261719-4.417969 0-8-3.582031-8-8s3.582031-8 8-8c23.386719 0 35.191406 5.460938 46.605469 10.738281 10.300781 4.761719 20.03125 9.261719 39.894531 9.261719s29.59375-4.5 39.894531-9.261719c11.414063-5.277343 23.214844-10.738281 46.59375-10.738281 23.378907 0 35.203125 5.460938 46.621094 10.738281 10.296875 4.761719 20.027344 9.261719 39.890625 9.261719s29.59375-4.5 39.894531-9.261719c11.414063-5.277343 23.21875-10.738281 46.605469-10.738281 4.417969 0 8 3.582031 8 8s-3.582031 8-8 8c-19.863281 0-29.59375 4.5-39.894531 9.261719-11.414063 5.277343-23.21875 10.738281-46.605469 10.738281zm0 0"/><path d="m267.5 474c-23.382812 0-35.1875-5.460938-46.605469-10.738281-10.300781-4.761719-20.035156-9.261719-39.902343-9.261719-19.863282 0-29.582032 4.5-39.878907 9.261719-11.421875 5.277343-23.226562 10.738281-46.613281 10.738281s-35.191406-5.460938-46.605469-10.738281c-10.300781-4.761719-20.03125-9.261719-39.894531-9.261719-4.417969 0-8-3.582031-8-8s3.582031-8 8-8c23.386719 0 35.191406 5.460938 46.605469 10.738281 10.300781 4.761719 20.03125 9.261719 39.894531 9.261719s29.59375-4.5 39.894531-9.261719c11.414063-5.277343 23.214844-10.738281 46.59375-10.738281 23.378907 0 35.203125 5.460938 46.621094 10.738281 10.296875 4.761719 20.027344 9.261719 39.890625 9.261719s29.59375-4.5 39.894531-9.261719c11.414063-5.277343 23.21875-10.738281 46.605469-10.738281 4.417969 0 8 3.582031 8 8s-3.582031 8-8 8c-19.863281 0-29.59375 4.5-39.894531 9.261719-11.414063 5.277343-23.21875 10.738281-46.605469 10.738281zm0 0"/></g></svg>