<svg height="478pt" viewBox="-118 0 478 478.57561" width="478pt" xmlns="http://www.w3.org/2000/svg"><path d="m131.128906 332.640625c-19.390625-.007813-35.109375 15.707031-35.109375 35.097656-.003906 19.386719 15.714844 35.105469 35.101563 35.101563 19.386718 0 35.101562-15.722656 35.097656-35.109375 0-19.378907-15.710938-35.089844-35.089844-35.089844zm53.449219-62.628906c45.523437 24.90625 67.742187 78.007812 53.519531 127.914062-14.222656 49.902344-61.09375 83.316407-112.910156 80.484375-57.769531-3.238281-104.738281-51.832031-105.28125-109.601562-.707031-41.136719 21.570312-79.242188 57.773438-98.796875v-216.5625c0-29.519531 23.929687-53.449219 53.449218-53.449219 29.519532 0 53.449219 23.929688 53.449219 53.449219zm0 0" fill="#00efd1"/><path d="m131.128906 332.640625c19.386719-.007813 35.105469 15.707031 35.109375 35.097656 0 19.386719-15.714843 35.105469-35.105469 35.101563-19.386718 0-35.101562-15.722656-35.09375-35.109375 0-19.378907 15.710938-35.089844 35.089844-35.089844zm0 0" fill="#00acea"/><path d="m131.128906 410.828125c-23.804687.007813-43.105468-19.285156-43.109375-43.089844-.003906-23.804687 19.289063-43.105469 43.09375-43.109375 23.804688 0 43.105469 19.296875 43.105469 43.101563-.023438 23.789062-19.300781 43.070312-43.089844 43.097656zm0-70.1875c-14.96875-.007813-27.109375 12.125-27.109375 27.097656-.003906 14.96875 12.132813 27.105469 27.101563 27.101563 14.96875 0 27.101562-12.140625 27.097656-27.109375-.019531-14.953125-12.136719-27.074219-27.089844-27.089844zm0 0" fill="#00acea"/><g fill="#fedb41"><path d="m131.128906 340.640625c-4.417968 0-8-3.582031-8-8v-291.402344c0-4.417969 3.582032-8 8-8 4.417969 0 8 3.582031 8 8v291.402344c0 4.417969-3.582031 8-8 8zm0 0"/><path d="m95.289062 239.28125h-17v16h17c4.417969 0 8-3.582031 8-8s-3.582031-8-8-8zm0 0"/><path d="m105.289062 209.28125h-27v16h27c4.417969 0 8-3.582031 8-8s-3.582031-8-8-8zm0 0"/><path d="m103.289062 187.28125c0-4.417969-3.582031-8-8-8h-17v16h17c4.417969 0 8-3.582031 8-8zm0 0"/><path d="m105.289062 149.28125h-27v16h27c4.417969 0 8-3.582031 8-8s-3.582031-8-8-8zm0 0"/><path d="m103.289062 127.28125c0-4.417969-3.582031-8-8-8h-17v16h17c4.417969 0 8-3.582031 8-8zm0 0"/><path d="m113.289062 97.28125c0-4.417969-3.582031-8-8-8h-27v16h27c4.417969 0 8-3.582031 8-8zm0 0"/><path d="m103.289062 67.28125c0-4.417969-3.582031-8-8-8h-17v16h17c4.417969 0 8-3.582031 8-8zm0 0"/><path d="m35.289062 255.28125h-27c-4.417968 0-8-3.582031-8-8s3.582032-8 8-8h27c4.417969 0 8 3.582031 8 8s-3.582031 8-8 8zm0 0"/><path d="m35.289062 75.28125h-27c-4.417968 0-8-3.582031-8-8s3.582032-8 8-8h27c4.417969 0 8 3.582031 8 8s-3.582031 8-8 8zm0 0"/><path d="m21.289062 89.28125c-4.417968 0-8-3.582031-8-8v-27c0-4.417969 3.582032-8 8-8 4.417969 0 8 3.582031 8 8v27c0 4.417969-3.582031 8-8 8zm0 0"/></g></svg>