<svg height="478pt" viewBox="-48 0 478 478.57295" width="478pt" xmlns="http://www.w3.org/2000/svg"><path d="m381.671875 162.910156-65.359375 36.308594c-1.105469-12.136719-4.273438-23.996094-9.371094-35.070312zm0 0" fill="#00acea"/><path d="m381.671875 255.648438-74.730469-1.238282c5.097656-11.074218 8.265625-22.933594 9.371094-35.070312zm0 0" fill="#00acea"/><path d="m335.304688 82.601562-38.441407 64.117188c-7.054687-9.933594-15.734375-18.613281-25.671875-25.667969zm0 0" fill="#00acea"/><path d="m296.863281 271.839844 38.441407 64.121094-64.113282-38.449219c9.9375-7.058594 18.617188-15.734375 25.671875-25.671875zm0 0" fill="#00acea"/><path d="m316.3125 199.21875c.308594 3.3125.46875 6.664062.46875 10.0625.003906 3.394531-.152344 6.75-.46875 10.058594-1.105469 12.136718-4.273438 23.996094-9.371094 35.070312-7.9375 17.246094-20.265625 32.109375-35.75 43.101563-15.480468 10.996093-33.589844 17.707031-52.5 19.457031-2.578125.242188-5.1875.390625-7.808594.441406l-.019531.011719c-10.164062-20.070313-26.160156-36.597656-45.890625-47.410156v-159.839844h.300782c10.5625-4.628906 21.804687-7.527344 33.289062-8.582031 3.320312-.308594 6.671875-.460938 10.070312-.460938 3.398438 0 6.738282.152344 10.058594.460938 18.910156 1.75 37.019532 8.464844 52.5 19.460937 15.484375 10.988281 27.8125 25.851563 35.75 43.097657 5.097656 11.074218 8.265625 22.933593 9.371094 35.070312zm0 0" fill="#fedb41"/><path d="m255.003906 36.238281-1.25 74.730469c-11.070312-5.089844-22.925781-8.261719-35.0625-9.378906zm0 0" fill="#00acea"/><path d="m253.753906 307.589844 1.25 74.730468-36.3125-65.351562c12.136719-1.113281 23.992188-4.285156 35.0625-9.378906zm0 0" fill="#00acea"/><path d="m111.523438 332.640625c-19.386719-.007813-35.109376 15.707031-35.109376 35.097656-.003906 19.386719 15.714844 35.105469 35.101563 35.101563 19.386719 0 35.101563-15.722656 35.097656-35.109375 0-19.378907-15.710937-35.089844-35.089843-35.089844zm99.339843-15.21875c7.824219 15.421875 11.894531 32.472656 11.878907 49.769531.066406 30.5625-12.457032 59.804688-34.621094 80.84375-22.167969 21.042969-52.019532 32.027344-82.539063 30.375-57.769531-3.238281-104.738281-51.832031-105.277343-109.601562-.710938-41.136719 21.566406-79.242188 57.769531-98.796875v-216.5625c0-29.519531 23.929687-53.449219 53.449219-53.449219 29.519531 0 53.449218 23.929688 53.449218 53.449219v216.5625c19.730469 10.8125 35.726563 27.339843 45.890625 47.410156zm0 0" fill="#00efd1"/><path d="m162.261719 36.238281 36.300781 65.351563c-11.484375 1.054687-22.726562 3.953125-33.289062 8.582031h-.300782v-56.722656c.003906-5.835938-.960937-11.636719-2.851562-17.160157zm0 0" fill="#00acea"/><path d="m111.523438 332.640625c19.386718-.007813 35.109374 15.707031 35.109374 35.097656 0 19.386719-15.714843 35.105469-35.101562 35.101563-19.390625 0-35.105469-15.722656-35.097656-35.109375 0-19.378907 15.710937-35.089844 35.089844-35.089844zm0 0" fill="#00acea"/><path d="m111.523438 410.828125c-23.804688.007813-43.105469-19.285156-43.109376-43.089844-.003906-23.804687 19.289063-43.105469 43.09375-43.109375 23.804688 0 43.105469 19.296875 43.105469 43.101563-.023437 23.789062-19.300781 43.070312-43.089843 43.097656zm0-70.1875c-14.96875-.007813-27.109376 12.125-27.109376 27.097656-.003906 14.96875 12.132813 27.105469 27.101563 27.101563 14.96875 0 27.101563-12.140625 27.097656-27.109375-.015625-14.953125-12.136719-27.074219-27.089843-27.089844zm0 0" fill="#00acea"/><g fill="#fedb41"><path d="m75.984375 240.28125h-17v16h17c4.417969 0 8-3.582031 8-8s-3.582031-8-8-8zm0 0"/><path d="m85.984375 210.28125h-27v16h27c4.417969 0 8-3.582031 8-8s-3.582031-8-8-8zm0 0"/><path d="m83.984375 188.28125c0-4.417969-3.582031-8-8-8h-17v16h17c4.417969 0 8-3.582031 8-8zm0 0"/><path d="m85.984375 150.28125h-27v16h27c4.417969 0 8-3.582031 8-8s-3.582031-8-8-8zm0 0"/><path d="m83.984375 128.28125c0-4.417969-3.582031-8-8-8h-17v16h17c4.417969 0 8-3.582031 8-8zm0 0"/><path d="m93.984375 98.28125c0-4.417969-3.582031-8-8-8h-27v16h27c4.417969 0 8-3.582031 8-8zm0 0"/><path d="m83.984375 68.28125c0-4.417969-3.582031-8-8-8h-17v16h17c4.417969 0 8-3.582031 8-8zm0 0"/><path d="m111.523438 340.640625c-4.417969 0-8-3.582031-8-8v-291.402344c0-4.417969 3.582031-8 8-8 4.417968 0 8 3.582031 8 8v291.402344c0 4.417969-3.582032 8-8 8zm0 0"/></g></svg>