<svg height="459pt" viewBox="0 -19 459.075 459" width="459pt" xmlns="http://www.w3.org/2000/svg"><g fill="#00acea"><path d="m187.300781 421.015625c-4.417969 0-8-3.578125-8-8v-43.566406c.027344-22.550781 18.300781-40.824219 40.847657-40.851563h104.203124c13.726563 0 24.859376-11.128906 24.859376-24.859375s-11.132813-24.859375-24.859376-24.859375h-199.011718c-22.5625 0-40.855469-18.292968-40.855469-40.855468 0-22.566407 18.292969-40.855469 40.855469-40.855469h236.558594c13.730468 0 24.855468-11.128907 24.855468-24.855469s-11.125-24.855469-24.855468-24.855469h-283.5c-22.5625 0-40.851563-18.289062-40.851563-40.855469 0-22.5625 18.289063-40.855468 40.851563-40.855468h339.820312c13.726562 0 24.855469-11.125 24.855469-24.855469 0-13.726563-11.128907-24.851563-24.855469-24.851563h-410.21875c-4.417969 0-8-3.582031-8-8 0-4.417968 3.582031-7.9999995 8-7.9999995h410.21875c22.566406 0 40.855469 18.2890625 40.855469 40.8515625 0 22.566406-18.289063 40.855469-40.855469 40.855469h-339.820312c-13.726563 0-24.851563 11.128906-24.851563 24.855468 0 13.726563 11.125 24.855469 24.851563 24.855469h283.5c22.566406 0 40.855468 18.292969 40.855468 40.855469s-18.289062 40.855469-40.855468 40.855469h-236.558594c-13.726563 0-24.855469 11.128906-24.855469 24.855469 0 13.726562 11.128906 24.855468 24.855469 24.855468h199.011718c22.566407 0 40.859376 18.292969 40.859376 40.859375 0 22.566407-18.292969 40.859375-40.859376 40.859375h-104.203124c-13.714844.015625-24.832032 11.132813-24.847657 24.851563v43.566406c0 4.421875-3.582031 8-8 8zm0 0"/><path d="m370.539062 48.527344h-315c-4.417968 0-8-3.582032-8-8 0-4.417969 3.582032-8 8-8h315c4.417969 0 8 3.582031 8 8 0 4.417968-3.582031 8-8 8zm0 0"/><path d="m345.539062 113.527344h-220c-4.417968 0-8-3.582032-8-8 0-4.417969 3.582032-8 8-8h220c4.417969 0 8 3.582031 8 8 0 4.417968-3.582031 8-8 8zm0 0"/><path d="m314.539062 181.527344h-182c-4.417968 0-8-3.582032-8-8 0-4.417969 3.582032-8 8-8h182c4.417969 0 8 3.582031 8 8 0 4.417968-3.582031 8-8 8zm0 0"/><path d="m314.539062 247.527344h-142c-4.417968 0-8-3.582032-8-8 0-4.417969 3.582032-8 8-8h142c4.417969 0 8 3.582031 8 8 0 4.417968-3.582031 8-8 8zm0 0"/><path d="m274.539062 313.527344h-71c-4.417968 0-8-3.582032-8-8 0-4.417969 3.582032-8 8-8h71c4.417969 0 8 3.582031 8 8 0 4.417968-3.582031 8-8 8zm0 0"/></g></svg>