<svg height="453pt" viewBox="0 -93 453.5 453" width="453pt" xmlns="http://www.w3.org/2000/svg"><path d="m453.5 227.25c0 14.910156-12.089844 27-27 27s-27-12.089844-27-27 12.089844-27 27-27 27 12.089844 27 27zm0 0" fill="#00efd1"/><path d="m335.5 59.371094c0 11.109375-9.007812 20.117187-20.121094 20.117187-11.109375 0-20.117187-9.007812-20.117187-20.117187 0-11.113282 9.007812-20.121094 20.117187-20.121094 11.113282 0 20.121094 9.007812 20.121094 20.121094zm0 0" fill="#00acea"/><path d="m212.5 245.25c0 12.148438-9.851562 22-22 22s-22-9.851562-22-22 9.851562-22 22-22 22 9.851562 22 22zm0 0" fill="#00acea"/><path d="m67.5 21.25c0 11.597656-9.402344 21-21 21s-21-9.402344-21-21 9.402344-21 21-21 21 9.402344 21 21zm0 0" fill="#00efd1"/><g fill="#f4b844"><path d="m380.25 55.191406c-4.417969 0-8 3.582032-8 8 0 4.417969 3.582031 8 8 8 15.066406.054688 27.234375 12.316406 27.175781 27.382813-.058593 15.066406-12.320312 27.234375-27.386719 27.175781h-372.039062c-4.417969 0-8 3.582031-8 8s3.582031 8 8 8h372.039062c23.902344.058594 43.328126-19.273438 43.386719-43.175781.058594-23.902344-19.273437-43.328125-43.175781-43.382813zm0 0"/><path d="m8 99.75h202.609375c17.785156-.042969 32.167969-14.492188 32.125-32.273438-.039063-17.785156-14.492187-32.167968-32.273437-32.125-4.417969 0-8 3.582032-8 8 0 4.417969 3.582031 8 8 8 9.015624-.066406 16.382812 7.179688 16.46875 16.199219.03125 4.324219-1.683594 8.484375-4.753907 11.53125-3.070312 3.046875-7.238281 4.730469-11.566406 4.667969h-202.609375c-4.417969 0-8 3.582031-8 8s3.582031 8 8 8zm0 0"/><path d="m288.261719 169.75h-280.261719c-4.417969 0-8 3.582031-8 8s3.582031 8 8 8h280.261719c15.027343-.085938 27.289062 12.011719 27.410156 27.039062.066406 7.207032-2.773437 14.136719-7.875 19.222657-5.105469 5.089843-12.042969 7.90625-19.246094 7.816406-4.417969 0-8 3.582031-8 8 0 4.421875 3.582031 8 8 8 15.4375.042969 29.714844-8.191406 37.414063-21.570313 7.699218-13.378906 7.644531-29.859374-.144532-43.1875-7.792968-13.328124-22.125-21.464843-37.558593-21.320312zm0 0"/></g></svg>