<svg height="460pt" viewBox="-58 0 460 460.44" width="460pt" xmlns="http://www.w3.org/2000/svg"><path d="m60.417969 165.492188 4.964843-15.207032 63.25 20.660156-4.964843 15.207032zm0 0" fill="#f4b844"/><path d="m60.414062 70.945312 63.25-20.660156 4.96875 15.207032-63.25 20.660156zm0 0" fill="#f4b844"/><path d="m344.980469 71.121094v94.199218l-67.890625 9.417969.789062-112.929687zm0 0" fill="#00acea"/><path d="m277.878906 61.808594-.789062 112.929687-68.679688 9.542969v-132.121094zm0 0" fill="#00efd1"/><path d="m208.410156 184.269531v.011719l-85.261718 11.828125v-155.78125l85.261718 11.832031zm0 0" fill="#00acea"/><path d="m107.21875 436.441406v24h-107v-24zm0 0" fill="#00acea"/><path d="m67.21875 157.890625v278.550781h-27v-436.441406h27zm0 0" fill="#00efd1"/></svg>