<svg height="512" viewBox="0 0 60 60" width="512" xmlns="http://www.w3.org/2000/svg"><g id="Page-1" fill="none" fill-rule="evenodd"><g id="001---Sunny" fill-rule="nonzero" transform="translate(-1)"><path id="Shape" d="m54.742 35.682c-.253791.2511579-.3544125.6185789-.264.964l1.766 7.112c.1318942.5305658-.1762646 1.0711645-.7 1.228l-7.052 2.019c-.3404739.0995905-.6052487.3681478-.7.71l-1.826 6.808c-.1424435.531445-.6837202.8514115-1.218.72l-7.1-1.765c-.3454211-.0904125-.7128421.010209-.964.264l-4.963 4.958c-.3986159.3962403-1.0423841.3962403-1.441 0l-4.962-4.961c-.2509522-.2534351-.6178896-.3540285-.963-.264l-7.1 1.765c-.5339503.1307895-1.0745525-.189041-1.217-.72l-1.827-6.808c-.0947513-.3418522-.3595261-.6104095-.7-.71l-7.034-2.016c-.53069687-.1542437-.84139544-.7037364-.7-1.238l1.823-6.798c.0892834-.343466-.0065571-.7086448-.253-.964l-5.091-5.286c-.37486459-.3913862-.37486459-1.0086138 0-1.4l5.094-5.286c.24537482-.2559537.34005907-.6210562.25-.964l-1.826-6.8c-.14139544-.5342636.16930313-1.0837563.7-1.238l7.034-2.012c.3404739-.0995905.6052487-.3681478.7-.71l1.827-6.808c.1424475-.53095902.6830497-.85078945 1.217-.72l7.1 1.765c.3451104.09002849.7120478-.01056494.963-.264l4.965-4.963c.3986159-.39624026 1.0423841-.39624026 1.441 0l4.961 4.961c.2511579.25379102.6185789.35441255.964.264l7.112-1.765c.5306408-.13243855 1.0715946.17592271 1.228.7l2.019 7.051c.0995905.3404739.3681478.6052487.71.7l6.808 1.827c.5313634.1420087.8517187.6827471.721 1.217l-1.766 7.1c-.0904125.3454211.010209.7128421.264.964l4.958 4.961c.3961243.3982737.3961243 1.0417263 0 1.44z" fill="#a4c2f7"/><path id="Shape" d="m59.7 30.72c.3961243-.3982737.3961243-1.0417263 0-1.44l-4.961-4.962c-.253791-.2511579-.3544125-.6185789-.264-.964l1.766-7.1c.1301507-.5341684-.1899836-1.0745337-.721-1.217l-6.808-1.827c-.3418522-.0947513-.6104095-.3595261-.71-.7l-2.016-7.053c-.1564054-.52407729-.6973592-.83243855-1.228-.7l-1.892.469c.0501453.07129019.0905049.14898244.12.231l2.019 7.051c.0995905.3404739.3681478.6052487.71.7l6.808 1.827c.5310164.1424663.8511507.6828316.721 1.217l-1.766 7.1c-.0904125.3454211.010209.7128421.264.964l4.958 4.964c.3961243.3982737.3961243 1.0417263 0 1.44l-4.961 4.962c-.253791.2511579-.3544125.6185789-.264.964l1.766 7.112c.1313518.5304908-.1766055 1.0707359-.7 1.228l-7.052 2.019c-.3404739.0995905-.6052487.3681478-.7.71l-1.826 6.808c-.0288462.087662-.0699177.170815-.122.247l1.9.473c.5342798.1314115 1.0755565-.188555 1.218-.72l1.826-6.808c.0947513-.3418522.3595261-.6104095.7-.71l7.052-2.019c.5233945-.1572641.8313518-.6975092.7-1.228l-1.766-7.112c-.0904125-.3454211.010209-.7128421.264-.964z" fill="#7facfa"/><circle id="Oval" cx="31" cy="30" fill="#cad9fc" r="21"/><ellipse id="Oval" cx="31" cy="30" fill="#e8edfc" rx="18" ry="21"/><path id="Shape" d="m34 23h-6v1c0 1.6568542 1.3431458 3 3 3s3-1.3431458 3-3z" fill="#7facfa"/><path id="Shape" d="m27.354 6.522c.3454211.09041255.7128421-.01020898.964-.264l4.182-4.182-.779-.776c-.3986159-.39624026-1.0423841-.39624026-1.441 0l-4.767 4.764z" fill="#fff"/><path id="Shape" d="m7.35 35.986c.2464429.2553552.3422834.620534.253.964l-1.826 6.8c-.14139544.5342636.16930313 1.0837563.7 1.238l7.031 2.019c.3404739.0995905.6052487.3681478.7.71l1.827 6.808c.141989.5313069.6829656.8513588 1.217.72l1.905-.473c-.0520823-.076185-.0931538-.159338-.122-.247l-1.827-6.808c-.0947513-.3418522-.3595261-.6104095-.7-.71l-7.031-2.021c-.53069687-.1542437-.84139544-.7037364-.7-1.238l1.823-6.798c.0892834-.343466-.0065571-.7086448-.253-.964l-5.091-5.286c-.37486459-.3913862-.37486459-1.0086138 0-1.4l5.094-5.286c.2453748-.2559537.3400591-.6210562.25-.964l-1.826-6.8c-.14139544-.5342636.16930313-1.0837563.7-1.238l7.034-2.012c.3404739-.0995905.6052487-.3681478.7-.71l1.827-6.808c.0288462-.08766196.0699177-.17081501.122-.247l-1.905-.473c-.5340344-.13135879-1.075011.1886931-1.217.72l-1.827 6.808c-.0947513.3418522-.3595261.6104095-.7.71l-7.031 2.014c-.53069687.1542437-.84139544.7037364-.7 1.238l1.823 6.798c.0892834.343466-.0065571.7086448-.253.964l-5.091 5.286c-.37486459.3913862-.37486459 1.0086138 0 1.4z" fill="#fff"/><path id="Shape" d="m27.354 53.478-1.841.458 4.767 4.764c.3986159.3962403 1.0423841.3962403 1.441 0l.779-.779-4.182-4.182c-.2517778-.2527174-.619115-.3521728-.964-.261z" fill="#fff"/><path id="Shape" d="m3.242 29.719-1.442-1.388 4.836-5.026 1.934-.505c.16947094.6524401.0030025 1.3464336-.444 1.851l-.721.751-1.388 1.436z" fill="#fff"/><g fill="#428dff"><path id="Shape" d="m31 52c12.1502645 0 22-9.8497355 22-22s-9.8497355-22-22-22-22 9.8497355-22 22c.01377716 12.1445532 9.8554468 21.9862228 22 22zm0-42c11.045695 0 20 8.954305 20 20s-8.954305 20-20 20-20-8.954305-20-20c.0126747-11.0404407 8.9595593-19.9873253 20-20z"/><path id="Shape" d="m31 48c.5522847 0 1-.4477153 1-1s-.4477153-1-1-1c-5.9092784-.000714-11.3370539-3.2584558-14.117-8.473-.2701605-.4671455-.8622361-.6356791-1.3379102-.3808344-.475674.2548446-.6633497.8411338-.4240898 1.3248344 3.1266668 5.8654308 9.2322472 9.5293942 15.879 9.529z"/><path id="Shape" d="m5.317 27.145c-.55228475.0027614-1.00223858-.4427153-1.005-.995s.44271525-1.0022386.995-1.005h.01c.55228475 0 1 .4477153 1 1s-.44771525 1-1 1z"/><path id="Shape" d="m55.449 23.6 1.766-7.106c.2530138-1.0610279-.380284-2.1317082-1.432-2.421l-6.817-1.836-2.021-7.063c-.3064052-1.03823356-1.3767758-1.65037791-2.427-1.388l-7.129 1.765-4.961-4.961c-.7996283-.76076242-2.0553717-.76076242-2.855 0l-4.973 4.961-7.11-1.766c-1.0614965-.25405183-2.1330363.38019708-2.421 1.433l-1.837 6.816-7.032 2.019c-1.04989052.3109506-1.66428794 1.3981996-1.389 2.458l1.827 6.8c.08471625.3536999.35479043.6335159.70526773.7307072.3504773.0971914.72608946-.0035684.98086807-.2631225.25477861-.2595542.34854654-.6369725.2448642-.9855847l-1.816-6.818 7.038-2.02c.6732018-.2008255 1.1957065-.7339087 1.383-1.411l1.837-6.817 7.089 1.762c.6895066.18107054 1.4232695-.01856174 1.926-.524l4.988-4.965 4.961 4.961c.4996426.50083415 1.2261507.70145981 1.912.528l7.137-1.761 2.021 7.059c.2011622.6729987.734105 1.1953658 1.411 1.383l6.817 1.837-1.762 7.093c-.1793796.6894981.0200239 1.4224201.524 1.926l4.965 4.987-4.962 4.962c-.5015611.4988051-.7023294 1.2254496-.528 1.911l1.761 7.138-7.061 2.021c-.6735864.2005313-1.1965187.7336654-1.384 1.411l-1.837 6.817-7.089-1.762c-.6898017-.1785028-1.4225817.0207586-1.927.524l-4.986 4.965-4.962-4.961c-.4985827-.5026421-1.2263036-.7032221-1.912-.527l-7.113 1.752-1.827-6.812c-.1891418-.6775014-.7141307-1.2096716-1.389-1.408l-7.041-2.037 1.827-6.8c.17670591-.6815382-.01253811-1.4059643-.5-1.914l-5.097-5.293v-.005l.265-.275c.36598343-.3996602.3470257-1.0181131-.04274954-1.3946067s-1.00851356-.3740072-1.39525046.0056067l-.26.27c-.74565846.779762-.74565846 2.008238 0 2.788l5.1 5.3-1.828 6.8c-.27592721 1.0595779.33816191 2.1470642 1.388 2.458l7.042 2.027 1.826 6.809c.2897331 1.0532373 1.3629499 1.6865459 2.425 1.431l7.117-1.765 4.961 4.961c.7894606.7867337 2.0665394.7867337 2.856 0l4.977-4.961 7.1 1.766c1.0613231.2513349 2.1313573-.3817613 2.422-1.433l1.836-6.816 7.058-2.021c1.0385773-.3059705 1.6509269-1.3767 1.388-2.427l-1.765-7.129 4.962-4.962c.7854059-.7892286.7854059-2.0647714 0-2.854z"/><path id="Shape" d="m22 21c.5522847 0 1-.4477153 1-1s.4477153-1 1-1 1 .4477153 1 1 .4477153 1 1 1 1-.4477153 1-1c0-1.6568542-1.3431458-3-3-3s-3 1.3431458-3 3c0 .5522847.4477153 1 1 1z"/><path id="Shape" d="m36 21c.5522847 0 1-.4477153 1-1s.4477153-1 1-1 1 .4477153 1 1 .4477153 1 1 1 1-.4477153 1-1c0-1.6568542-1.3431458-3-3-3s-3 1.3431458-3 3c0 .5522847.4477153 1 1 1z"/><path id="Shape" d="m27 24c0 2.209139 1.790861 4 4 4s4-1.790861 4-4v-1c0-.5522847-.4477153-1-1-1h-6c-.5522847 0-1 .4477153-1 1zm6 0c0 1.1045695-.8954305 2-2 2s-2-.8954305-2-2z"/><path id="Shape" d="m19 26c.2651948-.0000566.5195073-.1054506.707-.293l1-1c.3789722-.3923789.3735524-1.0160848-.0121814-1.4018186s-1.0094397-.3911536-1.4018186-.0121814l-1 1c-.2859079.2859943-.3714219.7160366-.216678 1.0896546.1547439.3736179.5192821.6172591.923678.6173454z"/><path id="Shape" d="m23.293 23.293-1 1c-.2599566.2510745-.3642126.6228779-.2726972.9725073.0915155.3496295.3645604.6226744.7141899.7141899.3496294.0915154.7214328-.0127406.9725073-.2726972l1-1c.3789722-.3923789.3735524-1.0160848-.0121814-1.4018186s-1.0094397-.3911536-1.4018186-.0121814z"/><path id="Shape" d="m41.293 24.707 1 1c.3923789.3789722 1.0160848.3735524 1.4018186-.0121814s.3911536-1.0094397.0121814-1.4018186l-1-1c-.3923789-.3789722-1.0160848-.3735524-1.4018186.0121814s-.3911536 1.0094397-.0121814 1.4018186z"/><path id="Shape" d="m38.707 23.293c-.3923789-.3789722-1.0160848-.3735524-1.4018186.0121814s-.3911536 1.0094397-.0121814 1.4018186l1 1c.3923789.3789722 1.0160848.3735524 1.4018186-.0121814s.3911536-1.0094397.0121814-1.4018186z"/><circle id="Oval" cx="14" cy="34" r="1"/></g></g></g></svg>