<svg height="49" viewBox="0 0 61 49" width="61" xmlns="http://www.w3.org/2000/svg"><g id="Page-1" fill="none" fill-rule="evenodd"><g id="002---Cloud" fill-rule="nonzero"><path id="Shape" d="m51.44 35.89c1.0229535 2.7602694.6292449 5.8465305-1.0539151 8.261586-1.6831601 2.4150555-4.4423623 3.8526984-7.3860849 3.848414h-29c-7.17970175 0-13-5.8202983-13-13s5.82029825-13 13-13c.16 0 .32 0 .48.01-.3230626-1.3120665-.4842619-2.6587526-.48-4.01.0000002-9.38884061 7.6111594-16.99999964 17-16.99999964s16.9999998 7.61115903 17 16.99999964c.0016609.0734753-.0016802.1469784-.01.22.6602928-.1444646 1.3340907-.2182136 2.01-.22 4.7050005-.0196992 8.6311702 3.5879559 9.0086671 8.2778295.3774968 4.6898736-2.9210902 8.879063-7.5686671 9.6121705z" fill="#e8edfc"/><path id="Shape" d="m45 18c.0016609.0734753-.0016802.1469784-.01.22.6602928-.1444646 1.3340907-.2182136 2.01-.22.3341448.0009792.6679826.0203418 1 .058 0-.019 0-.039 0-.058 0-9.38884075-7.6111593-17-17-17-.506 0-1 .032-1.5.076 8.7712615.77315577 15.4987719 8.11872906 15.5 16.924z" fill="#cad9fc"/><path id="Shape" d="m59 27c0-4.9705627-4.0294373-9-9-9-.5028711.0043722-1.0045427.0498571-1.5.136 4.3358556.7392012 7.502266 4.5040145 7.4874015 8.9024052-.0148644 4.3983907-3.2066487 8.1417163-7.5474015 8.8515948 1.0229535 2.7602694.6292449 5.8465305-1.0539151 8.261586-1.6831601 2.4150555-4.4423623 3.8526984-7.3860849 3.8484235l3-.0000095c2.9437226.0042844 5.7029248-1.4333585 7.3860849-3.848414 1.68316-2.4150555 2.0768686-5.5013166 1.0539151-8.261586 4.360078-.7067161 7.5629184-4.4730192 7.56-8.89z" fill="#cad9fc"/><circle id="Oval" cx="24" cy="14" fill="#a4c2f7" r="2"/><circle id="Oval" cx="38" cy="14" fill="#a4c2f7" r="2"/><path id="Shape" d="m14 48h3c-4.7085809.0104966-9.05477859-2.5259137-11.36174711-6.6306355-2.30696851-4.1047217-2.21404687-9.1360413.24291398-13.1527798 2.45696085-4.0167384 6.89385083-6.390937 11.59883313-6.2065847-1.1646743-4.8051725-.1796533-9.879323 2.6982876-13.89972162 2.877941-4.02039858 7.3636209-6.5886559 12.2877124-7.03527838-.484-.041-.966-.075-1.466-.075-5.2134266.00281621-10.1375424 2.39666701-13.3599745 6.49492961-3.2224321 4.09826259-4.3871298 9.44811469-3.1600255 14.51507039-4.70498231-.1843523-9.14187228 2.1898463-11.59883313 6.2065847-2.45696085 4.0167385-2.54988249 9.0480581-.24291398 13.1527798 2.30696852 4.1047218 6.65316621 6.6411321 11.36174711 6.6306355z" fill="#fff"/><path id="Shape" d="m4.21 41.922-1.632 1.156c-.82701614-1.1765428-1.47412025-2.46974-1.92-3.837-.41711019-1.3758193-.63861364-2.803473-.658-4.241h2c.0192897 1.2318934.20909268 2.4551804.564 3.635.38351368 1.1708653.93818862 2.2785302 1.646 3.287z" fill="#fff"/><g fill="#428dff"><path id="Shape" d="m1.653 39.947c-.55228475.0027614-1.00223858-.4427153-1.005-.995s.44271525-1.0022386.995-1.005h.01c.55228475 0 1 .4477153 1 1s-.44771525 1-1 1z"/><path id="Shape" d="m48.976 17.053c-.3672522-6.6591796-4.3863892-12.56948923-10.4443548-15.35886199s-13.1616962-2.00055542-18.4601528 2.04986498c-5.2984566 4.05042039-7.9230796 10.69847091-6.8204924 17.27599701-7.42644117.4064421-13.24248122 6.5424499-13.251 13.98 0 .5522847.44771525 1 1 1s1-.4477153 1-1c.00269755-4.0112833 2.00816521-7.7563193 5.34535363-9.981982 3.33718847-2.2256626 7.56532987-2.6379918 11.26964637-1.099018.3317921.1494039.7185526.1067881 1.009855-.1112725.2913025-.2180606.4411641-.5771446.3912977-.93759-.0498663-.3604453-.2915891-.665355-.6311527-.7961375-1.295423-.540322-2.6653615-.8808678-4.063-1.01-1.1613607-5.9064023 1.0953304-11.96425727 5.837922-15.67130074 4.7425916-3.70704346 11.1661178-4.43407426 16.6172696-1.88078424 5.4511519 2.55329001 9.0046987 7.95352768 9.1928084 13.97008498-.4852498.1495193-.9583061.3360674-1.415.558-.4813709.2525014-.6728847.8432802-.4312048 1.3301742.24168.486894.828031.6915635 1.3202048.4608258 3.2408073-1.6042701 7.1548491-.8350661 9.5475254 1.8763199 2.3926764 2.7113861 2.6689998 6.690713.674036 9.7067757-1.9949638 3.0160626-5.7651267 4.3188557-9.1965614 3.1779044-.3394023-.1128959-.7132523-.0361471-.9807242.201336-.2674719.237483-.3879304.599621-.316.95.0719305.350379.3253219.6357681.6647242.748664 1.0201498.3383461 2.088207.5098836 3.163.508.244 0 .487-.022.73-.04.6325516 2.3985864.1166462 4.9549118-1.396649 6.9204336-1.5132951 1.9655218-3.8527593 3.1178523-6.333351 3.1195664h-29c-1.9173644-.0138944-3.8049277-.4758543-5.512-1.349-1.70282581-.8842706-3.16958882-2.1628024-4.278-3.729-.31996236-.4211483-.90579003-.5336582-1.359-.261-.2351051.1425601-.39891987.3779352-.45093543.6479207-.05201555.2699855.01262442.5493748.17793543.7690793 1.29298752 1.826236 3.00343399 3.3172626 4.989 4.349 1.99170631 1.0204853 4.1951225 1.5592656 6.433 1.573h29c3.0671045-.0036702 5.9631388-1.4136693 7.8576844-3.8256893s2.5783421-5.5596436 1.8553156-8.5403107c5.0209247-1.3873652 8.1358697-6.3967244 7.1593515-11.5134498-.9765182-5.1167255-5.7173855-8.6268165-10.8963515-8.0675502z"/><path id="Shape" d="m41.5 23.868c.2372065.1191251.5120425.1390544.7639534.0553967s.4602258-.2640376.5790466-.5013967c.2581687-.5155803.5713215-1.0017384.934-1.45.2355715-.2765094.3026729-.6590182.175284-.9991997s-.4292318-.5845305-.7884821-.638295-.7194035.0915118-.9408019.3794947c-.4533615.5598819-.8449631 1.1670655-1.168 1.811-.1191967.2370841-.1392734.5118234-.055809.7637171.0834644.2518936.2636252.4602847.500809.5792829z"/><path id="Shape" d="m22.278 24.927c-.1835481.1914771-.2835059.4480314-.2778796.7132139.0056262.2651824.1163754.5172663.3078796.7007861.3791682.3627982.734256.7499542 1.063 1.159.2214418.2845872.5789485.4279157.9356533.3751141.3567048-.0528015.6573575-.2935548.7868569-.6300904.1294995-.3365356.0677875-.7167274-.1615102-.9950237-.3833803-.4785061-.7975947-.9314696-1.24-1.356-.1918691-.1831621-.4486494-.2825881-.7138357-.2763992s-.5170488.1174857-.7001643.3093992z"/><path id="Shape" d="m24 11c-1.6568542 0-3 1.3431458-3 3s1.3431458 3 3 3 3-1.3431458 3-3-1.3431458-3-3-3zm0 4c-.5522847 0-1-.4477153-1-1s.4477153-1 1-1 1 .4477153 1 1-.4477153 1-1 1z"/><path id="Shape" d="m38 11c-1.6568542 0-3 1.3431458-3 3s1.3431458 3 3 3 3-1.3431458 3-3-1.3431458-3-3-3zm0 4c-.5522847 0-1-.4477153-1-1s.4477153-1 1-1 1 .4477153 1 1-.4477153 1-1 1z"/><path id="Shape" d="m31 23c2.209139 0 4-1.790861 4-4 0-.5522847-.4477153-1-1-1s-1 .4477153-1 1c0 1.1045695-.8954305 2-2 2s-2-.8954305-2-2c0-.5522847-.4477153-1-1-1s-1 .4477153-1 1c0 2.209139 1.790861 4 4 4z"/><path id="Shape" d="m14 45c.5522847 0 1-.4477153 1-1s-.4477153-1-1-1h-2c-.5522847 0-1 .4477153-1 1s.4477153 1 1 1z"/><path id="Shape" d="m17 44c0 .5522847.4477153 1 1 1h26c.5522847 0 1-.4477153 1-1s-.4477153-1-1-1h-26c-.5522847 0-1 .4477153-1 1z"/></g></g></g></svg>