<svg height="60" viewBox="0 0 60 60" width="60" xmlns="http://www.w3.org/2000/svg"><g id="Page-1" fill="none" fill-rule="evenodd"><g id="003---Rainbow" fill-rule="nonzero" transform="translate(-1 -1)"><path id="Shape" d="m60 51c0 4.9705627-4.0294373 9-9 9h-21c-5.6881462.0033693-10.438544-4.3348936-10.95-10-.03-.33-.05-.66-.05-1-.0047505-5.3096368 3.7872443-9.8633975 9.01-10.82 0-.02-.01-.04 0-.06-.0082848-.0394323-.0116438-.0797403-.01-.12 0-6.627417 5.372583-12 12-12s12 5.372583 12 12c.0036885 1.3665164-.2297746 2.7233092-.69 4.01 1.0819738.038419 2.1485298.2686597 3.15.68 3.3569919 1.3950949 5.5433708 4.6746633 5.54 8.31z" fill="#e8edfc"/><path id="Shape" d="m54.46 42.69c-1.0014702-.4113403-2.0680262-.641581-3.15-.68.4602254-1.2866908.6936885-2.6434836.69-4.01.0220089-3.4508352-1.4515814-6.742082-4.0403198-9.0240069-2.5887384-2.281925-6.0388845-3.3308607-9.4596802-2.8759931 3.6047479.4510243 6.8106167 2.5120822 8.7172966 5.6043633s2.308532 6.882277 1.0927034 10.3056367c1.0819738.038419 2.1485298.2686597 3.15.68 3.9629579 1.648129 6.2106946 5.8653084 5.3694295 10.0740656-.8412652 4.2087572-4.5374182 7.2378455-8.8294295 7.2359344h3c4.2920113.0019111 7.9881643-3.0271772 8.8294295-7.2359344.8412651-4.2087572-1.4064716-8.4259366-5.3694295-10.0740656z" fill="#cad9fc"/><path id="Shape" d="m28.01 38.12c-.01.02 0 .04 0 .06-5.2227557.9566025-9.0147505 5.5103632-9.01 10.82 0 .34.02.67.05 1h-11.05c-3.3137085.0165685-6.01343146-2.6562915-6.03-5.97s2.6562915-6.0134315 5.97-6.03c-1.65323572-3.3274895-1.09172494-7.3288923 1.41350502-10.0728306 2.50522998-2.7439384 6.43915248-3.6663117 9.90296078-2.3219134 3.4638082 1.3443982 5.7454106 4.679186 5.7435342 8.394744-.0029212.7480095-.0935399 1.4930966-.27 2.22 1.2480018.3178221 2.3834109.9755286 3.28 1.9z" fill="#a4c2f7"/><path id="Shape" d="m24.73 36.22c.1764601-.7269034.2670788-1.4719905.27-2.22.009767-2.65207-1.1549473-5.1724242-3.181095-6.8836507s-4.7058643-2.4377687-7.318905-1.9843493c4.3269377.7334717 7.4949581 4.4793391 7.5 8.868-.0029212.7480095-.0935399 1.4930966-.27 2.22 1.2480018.3178221 2.3834109.9755286 3.28 1.9-.01.02 0 .04 0 .06-5.2227557.9566025-9.0147505 5.5103632-9.01 10.82 0 .34.02.67.05 1h3c-.03-.33-.05-.66-.05-1-.0047505-5.3096368 3.7872443-9.8633975 9.01-10.82 0-.02-.01-.04 0-.06-.8965891-.9244714-2.0319982-1.5821779-3.28-1.9z" fill="#7facfa"/><path id="Shape" d="m60 27c.010391 5.7110929-1.9459181 11.2516145-5.54 15.69-1.0014702-.4113403-2.0680262-.641581-3.15-.68.2971914-.83103.4984958-1.6932843.6-2.57v-.01c0-.0055228.0044772-.01.01-.01 2.6670795-3.5899785 4.0986219-7.9477621 4.08-12.42-.0165976-11.2355772-8.8738437-20.46764534-20.0990897-20.94964541-11.2252459-.48200006-20.8412622 7.95684601-21.8209103 19.14964541v.01c-1.5139956.3289107-2.9165108 1.0456752-4.07 2.08-.0083255-.0964299-.01166332-.1932256-.01-.29 0-13.8071187 11.1928813-25 25-25s25 11.1928813 25 25z" fill="#e8edfc"/><path id="Shape" d="m35 2c-.5 0-1 .019-1.5.049 9.2007529.54220731 17.3545871 6.10886527 21.2102652 14.48034 3.8556782 8.3714748 2.7860956 18.1861926-2.7822652 25.53066.8698473.0874757 1.7225837.2996494 2.532.63 6.0414858-7.4944453 7.2433087-17.7919122 3.0900505-26.4761915-4.1532581-8.68427934-12.923719-14.21249978-22.5500505-14.2138085z" fill="#cad9fc"/><path id="Shape" d="m51.92 39.42c.0518508-.471578.0785552-.9455823.08-1.42.0047993-1.73042-.3707233-3.4407544-1.1-5.01v-.01c.7352553-1.9076111 1.1082994-3.9356146 1.1-5.98.001615-9.0495003-7.0863697-16.5140422-16.1238434-16.9804409-9.0374737-.46639864-16.8562053 6.2288494-17.7861566 15.2304409-.6844754-.1648761-1.385948-.2487843-2.09-.25-.645815-.001562-1.2897916.0688729-1.92.21v-.01c.9796481-11.1927994 10.5956644-19.63164547 21.8209103-19.14964541 11.225246.48200007 20.0824921 9.71406821 20.0990897 20.94964541.0186219 4.4722379-1.4129205 8.8300215-4.08 12.42z" fill="#e8edfc"/><path id="Shape" d="m52 27c.0082994 2.0443854-.3647447 4.0723889-1.1 5.98-.7112965-1.5523113-1.7480619-2.9335284-3.04-4.05.0920993-.6392293.1388826-1.284171.14-1.93 0-7.1797017-5.8202983-13-13-13s-13 5.8202983-13 13v.3c-1.1111913-.9998475-2.455618-1.704726-3.91-2.05.9299513-9.0015915 8.7486829-15.69683954 17.7861566-15.2304409 9.0374737.4663987 16.1254584 7.9309406 16.1238434 16.9804409z" fill="#e8edfc"/><path id="Shape" d="m17.08 25.21c-.035.007-.068.021-.1.029.136-.032.242-.061.1-.029z" fill="#fff"/><path id="Shape" d="m8 50h3c-3.3137085.0165685-6.01343146-2.6562915-6.03-5.97s2.6562915-6.0134315 5.97-6.03c-1.80645387-3.6280029-.9582687-8.0164393 2.07-10.71-.0083255-.0964299-.0116633-.1932256-.01-.29-.0008949-13.2242168 10.2994292-24.16053112 23.5-24.951-.5-.03-1-.049-1.5-.049-13.8071187 0-25 11.1928813-25 25-.00166332.0967744.0016745.1935701.01.29-3.0282687 2.6935607-3.87645387 7.0819971-2.07 10.71-3.3137085.0165685-5.98656854 2.7162915-5.97 6.03s2.7162915 5.9865685 6.03 5.97z" fill="#fff"/><path id="Shape" d="m13.009 13.14 1.691 1.068c-1.3695697 2.1681514-2.3824393 4.5419801-3 7.031l-1.942-.478c.6693324-2.6977786 1.7669325-5.2707747 3.251-7.621z" fill="#fff"/><g fill="#428dff"><path id="Shape" d="m36.529 31.923c1.05677-.6049517 2.2533262-.9231371 3.471-.923.5522847 0 1-.4477153 1-1s-.4477153-1-1-1c-1.566736.000212-3.1062341.4097336-4.466 1.188-.3099279.1786328-.5010136.5090409-.501277.8667627s.1903355.688411.5.8675.6913491.1793701 1.001277.0007373z"/><path id="Shape" d="m16 28c-1.8872487.0054686-3.6632759.8934822-4.8 2.4-.3313708.4418278-.2418278 1.0686291.2 1.4.4418278.3313708 1.0686291.2418278 1.4-.2.7521713-1.0111054 1.9398129-1.6049262 3.2-1.6.5522847 0 1-.4477153 1-1s-.4477153-1-1-1z"/><path id="Shape" d="m12.019 18.21c-.5522847.0030376-1.0024624-.4422153-1.0055-.9945s.4422153-1.0024624.9945-1.0055h.011c.5522847 0 1 .4477153 1 1s-.4477153 1-1 1z"/><path id="Shape" d="m28.514 1.821c-2.1127632.56532901-4.1525021 1.37478116-6.078 2.412-1.9013645 1.07901411-3.6720455 2.37355405-5.277 3.858-1.577516 1.51353398-2.9705214 3.2083012-4.15 5.049-.1907798.3020681-.2059163.6829703-.0397076.9992245s.4885115.5198138.8455.534c.3569886.0141861.6944278-.1631564.8852076-.4652245 1.0900098-1.6989784 2.3758203-3.2640357 3.831-4.663 1.4819976-1.36866529 3.1156034-2.56342197 4.869-3.561 1.7769937-.95630189 3.6588986-1.70329196 5.608-2.226 9.8927477-2.56337252 20.3230392 1.42505336 25.9814668 9.93502 5.6584277 8.5099667 5.3013501 19.6711054-.8894668 27.80198-.4836743-.1583926-.9787961-.2794149-1.481-.362.1054055-.4386302.1871898-.8826022.245-1.33 2.6986666-3.7225098 4.1467965-8.2052 4.136-12.803.0095076-11.6434084-9.061673-21.27454187-20.6847941-21.96164122s-21.7658438 7.80820662-23.1282059 19.37164122c-.7401274.2167857-1.4525684.5188096-2.123.9.093184-1.3739042.3042944-2.7372558.631-4.075.1281296-.5347426-.1995262-1.0726091-.7334688-1.2040327-.5339426-.1314235-1.0738187.1929104-1.2085312.7260327-.49115716 1.9998297-.74391495 4.0507595-.753 6.11-2.73271531 2.6706508-3.69870025 6.6682049-2.487 10.292-3.49664097.7582501-5.85866229 4.0313002-5.47647086 7.588739.38219143 3.5574389 3.38556112 6.2540612 6.96347086 6.252261h10.181c.9785301 5.7668847 5.9696943 9.9898851 11.819 10h21c4.5320412-.0031483 8.496316-3.0514251 9.6634705-7.4305983s-.7541597-8.9961005-4.6834705-11.2544017c6.4884276-8.8589717 6.7050579-20.841019.5410989-29.9287405-6.1639591-9.08772145-17.3766723-13.31754996-28.0070989-10.5652595zm-2.633 33.718c.4980737-3.1826068-.572902-6.4096895-2.875-8.663.1875393-6.5266415 5.5589303-11.7055821 12.0880695-11.6549687 6.5291393.0506135 11.8195959 5.3122041 11.9059305 11.8409687-3.7195174-2.3920644-8.401248-2.7249648-12.4218123-.8832687s-6.8262484 5.6043496-7.4441877 9.9832687c-.3985226-.2441291-.8178164-.4526047-1.253-.623zm9.119-22.539c-7.1112884.011684-13.0866375 5.3473698-13.9 12.412-.59769-.3569154-1.2311524-.650185-1.89-.875.8843338-5.7810377 4.8549176-10.6177488 10.3529393-12.6112884 5.4980218-1.99353956 11.6458181-.8256737 16.0298249 3.045105s6.3043937 9.8265678 5.0072358 15.5291834c-.5008519-.7033418-1.0703128-1.355207-1.7-1.946.4419208-3.9566488-.8216231-7.9143144-3.4745266-10.8828943-2.6529035-2.96858-6.4442237-4.6672709-10.4254734-4.6711057zm0-6c11.0404407.01267466 19.9873253 8.9595593 20 20 .0068485 3.1424317-.7349584 6.2412924-2.164 9.04-.1562138-1.0634374-.4447856-2.1031692-.859-3.095.6770953-1.9089416 1.0230726-3.9195332 1.023-5.945.0044405-9.3728299-7.1878629-17.1787975-16.529726-17.94008121-9.3418631-.7612837-17.7031192 5.77719891-19.216274 15.02708121-.6657019-.0957961-1.340421-.1122444-2.01-.049 1.506883-9.7607078 9.8798194-16.98170851 19.756-17.038zm-27 42c-2.76142375.0140833-5.01141674-2.2130763-5.0255-4.9745s2.21307625-5.0114167 4.9745-5.0255h.03.021c.90625231-.0005583 1.7956168.2452008 2.573.711.3064713.2129489.7060196.2375262 1.0362797.0637443s.5362736-.5170039.5343223-.8901903c-.0019513-.3731863-.2115427-.7142352-.543602-.884554-.9100254-.5416385-1.93159538-.8685956-2.987-.956-1.2838141-3.1085932-.48435142-6.6882846 2.0000169-8.9553188 2.4843683-2.2670343 6.1220956-2.7363648 9.1005073-1.1741248s4.6602575 4.8217992 4.2074758 8.1544436c-1.8816897-.2170423-3.779772.234646-5.362 1.276-.3067179.1941883-.4841083.5393479-.4634594.9017822.0206488.3624343.2360934.685213.5628819.8433087.3267885.1580958.7135898.1266752 1.0105775-.0820909 1.8546253-1.2246777 4.2330805-1.3280888 6.187-.269-4.722983 1.732301-7.8609543 6.2303529-7.856 11.261zm51 2c-.0049599 4.4162219-3.5837781 7.9950401-8 8h-21c-4.1293486-.0026132-7.8324289-2.5430944-9.3211649-6.3947423s-.4569247-8.2222559 2.5972117-11.0014243c3.0541365-2.7791684 7.5024235-3.3952782 11.1969532-1.5508334.4937426.2485281 1.0954718.0497425 1.344-.444.2485281-.4937426.0497425-1.0954718-.444-1.344-1.9568938-.9727341-4.1416512-1.3944753-6.32-1.22.3534947-4.171433 3.0454093-7.7800854 6.9431465-9.307651s8.3247643-.7089041 11.418452 2.1115407c3.0936876 2.8204447 4.3170626 7.1531263 3.1554015 11.1751103-1.405872.0520976-2.7844959.4032308-4.044 1.03-.3193954.1607695-.5287595.4797221-.5492267.8367114-.0204672.3569894.1510718.6977802.45.894s.6798313.2180581.9992267.0572886c2.4827088-1.2005841 5.4067775-1.0491944 7.7522272.4013611 2.3454497 1.4505554 3.7869872 3.9990974 3.8217728 6.7566389z"/><path id="Shape" d="m27 44c-1.6568542 0-3 1.3431458-3 3 0 .5522847.4477153 1 1 1s1-.4477153 1-1 .4477153-1 1-1 1 .4477153 1 1 .4477153 1 1 1 1-.4477153 1-1c0-1.6568542-1.3431458-3-3-3z"/><path id="Shape" d="m39 44c-1.6568542 0-3 1.3431458-3 3 0 .5522847.4477153 1 1 1s1-.4477153 1-1 .4477153-1 1-1 1 .4477153 1 1 .4477153 1 1 1 1-.4477153 1-1c0-1.6568542-1.3431458-3-3-3z"/><path id="Shape" d="m35 50c-.5522847 0-1 .4477153-1 1s-.4477153 1-1 1-1-.4477153-1-1-.4477153-1-1-1-1 .4477153-1 1c0 1.6568542 1.3431458 3 3 3s3-1.3431458 3-3c0-.5522847-.4477153-1-1-1z"/></g></g></g></svg>