<svg height="60" viewBox="0 0 60 60" width="60" xmlns="http://www.w3.org/2000/svg"><g id="Page-1" fill="none" fill-rule="evenodd"><g id="004---Rain" fill-rule="nonzero"><path id="Shape" d="m8.56 30.89c-1.02295352 2.7602694-.62924494 5.8465305 1.05391512 8.261586 1.68316008 2.4150555 4.44236228 3.8526984 7.38608488 3.848414h29c6.5341907.0020691 12.0545686-4.8463342 12.8959036-11.3261341.841335-6.4798-3.2578432-12.5772031-9.5759036-14.2438659 1.5306136-3.7142409.4142979-7.99312837-2.735746-10.48623614-3.150044-2.49310777-7.5709395-2.5966556-10.834254-.25376386-3.6250275-4.57607937-9.5757596-6.63323921-15.2529862-5.27293623-5.6772267 1.36030299-10.0494811 5.89092219-11.2070138 11.61293623-4.54729743.3513387-8.11292697 4.0486572-8.29918917 8.6057022s3.06573315 8.5330235 7.56918917 9.2542978z" fill="#e8edfc"/><path id="Shape" d="m49.32 17.43c1.2544864-3.0281938.7616487-6.4991324-1.2862039-9.0584279-2.0478526-2.55929555-5.3261965-3.80137614-8.5557961-3.2415721 2.7042512.44710637 5.0567428 2.10361398 6.3891616 4.49892994s1.4991541 5.26767276.4528384 7.80107006c6.3180604 1.6666628 10.4172386 7.7640659 9.5759036 14.2438659-.841335 6.4797999-6.3617129 11.3282032-12.8959036 11.3261341h3c6.5341907.0020691 12.0545686-4.8463342 12.8959036-11.3261341.841335-6.4798-3.2578432-12.5772031-9.5759036-14.2438659z" fill="#cad9fc"/><circle id="Oval" cx="49" cy="29" fill="#a4c2f7" r="2"/><circle id="Oval" cx="35" cy="29" fill="#a4c2f7" r="2"/><path id="Shape" d="m29 55c0 2.209139 1.790861 4 4 4s4-1.790861 4-4c0-1.768-2.562-5.83-3.585-7.382-.0928809-.1382147-.2484762-.2211183-.415-.2211183s-.3221191.0829036-.415.2211183c-1.023 1.552-3.585 5.614-3.585 7.382z" fill="#a4c2f7"/><path id="Shape" d="m33.415 47.618c-.0928809-.1382147-.2484762-.2211183-.415-.2211183s-.3221191.0829036-.415.2211183c-.276.419-.665 1.024-1.085 1.714 1.135 1.868 2.5 4.377 2.5 5.668-.0032957 1.6269922-.9917334 3.08988-2.5 3.7 1.2315812.5040787 2.6334251.3608094 3.7375754-.3819826 1.1041502-.7427919 1.7651788-1.9872732 1.7624246-3.3180174 0-1.768-2.562-5.83-3.585-7.382z" fill="#7facfa"/><path id="Shape" d="m13 55c0 2.209139 1.790861 4 4 4s4-1.790861 4-4c0-1.768-2.562-5.83-3.585-7.382-.0928809-.1382147-.2484762-.2211183-.415-.2211183s-.3221191.0829036-.415.2211183c-1.023 1.552-3.585 5.614-3.585 7.382z" fill="#a4c2f7"/><path id="Shape" d="m17.415 47.618c-.0928809-.1382147-.2484762-.2211183-.415-.2211183s-.3221191.0829036-.415.2211183c-.276.419-.665 1.024-1.085 1.714 1.135 1.868 2.5 4.377 2.5 5.668-.0032957 1.6269922-.9917334 3.08988-2.5 3.7 1.2315812.5040787 2.6334251.3608094 3.7375754-.3819826 1.1041502-.7427919 1.7651788-1.9872732 1.7624246-3.3180174 0-1.768-2.562-5.83-3.585-7.382z" fill="#7facfa"/><path id="Shape" d="m45 55c0 2.209139 1.790861 4 4 4s4-1.790861 4-4c0-1.768-2.562-5.83-3.585-7.382-.0928809-.1382147-.2484762-.2211183-.415-.2211183s-.3221191.0829036-.415.2211183c-1.023 1.552-3.585 5.614-3.585 7.382z" fill="#a4c2f7"/><path id="Shape" d="m49.415 47.618c-.0928809-.1382147-.2484762-.2211183-.415-.2211183s-.3221191.0829036-.415.2211183c-.276.419-.665 1.024-1.085 1.714 1.135 1.868 2.5 4.377 2.5 5.668-.0032957 1.6269922-.9917334 3.08988-2.5 3.7 1.2315812.5040787 2.6334251.3608094 3.7375754-.3819826 1.1041502-.7427919 1.7651788-1.9872732 1.7624246-3.3180174 0-1.768-2.562-5.83-3.585-7.382z" fill="#7facfa"/><path id="Shape" d="m8.56 30.89c-1.01641119 2.7601869-.61990572 5.8428792 1.06191384 8.2560113s4.43670546 3.8521637 7.37808616 3.8539887h3c-2.9413807-.001825-5.6962666-1.4408566-7.3780862-3.8539887-1.6818195-2.4131321-2.078325-5.4958244-1.0619138-8.2560113-4.50345602-.7212743-7.75545137-4.6972528-7.56918917-9.2542978s3.75189174-8.2543635 8.29918917-8.6057022c1.2867277-6.5026242 6.7145134-11.37328541 13.318-11.951-7.7110602-.83421669-14.7864462 4.34766454-16.318 11.951-4.54729743.3513387-8.11292697 4.0486572-8.29918917 8.6057022s3.06573315 8.5330235 7.56918917 9.2542978z" fill="#fff"/><path id="Shape" d="m17.415 47.618c-.0928809-.1382147-.2484762-.2211183-.415-.2211183s-.3221191.0829036-.415.2211183c-.729 1.1-1.014 1.607-1.085 1.714.1 0-2.5 3.807-2.5 5.668.0032957 1.6269922.9917334 3.08988 2.5 3.7.9611303.3943078 2.0388697.3943078 3 0-1.5082666-.61012-2.4967043-2.0730078-2.5-3.7 0-1.861 2.6-5.668 2.5-5.668-.42-.69-.809-1.295-1.085-1.714z" fill="#fff"/><path id="Shape" d="m12.116 5.307 1.484 1.339c-.8318779.92760259-1.5404106 1.95880679-2.108 3.068-.549103 1.1176656-.9601254 2.2980117-1.224 3.515l-1.96-.4c.29940974-1.3921998.76963648-2.7420864 1.4-4.019.6480476-1.26674094 1.4574482-2.44420372 2.408-3.503z" fill="#fff"/><g fill="#428dff"><path id="Shape" d="m10.622 10.254c-.5522847.0030376-1.00246242-.44221526-1.00549999-.9945-.00303756-.55228474.44221529-1.00246243.99449999-1.0055h.011c.5522847 0 1 .44771525 1 1s-.4477153 1-1 1z"/><path id="Shape" d="m50.608 16.777c1.1378142-3.931043-.2344216-8.15864607-3.4640412-10.67206557s-7.6647563-2.8053467-11.1959588-.73693443c-3.0228332-3.40094262-7.3522073-5.35187651-11.9023497-5.36352298s-8.8894468 1.91709921-11.9296503 5.30252298c-.1888126.19831263-.2855316.46688129-.2665094.74004104.0190223.27315975.1520324.52573056.3665094.69595896.41824.32807672 1.017268.28479435 1.384-.1 2.6558946-2.94626347 6.433372-4.6326892 10.4-4.643 4.2776959-.01301672 8.3227473 1.94587272 10.965 5.31.008.009.02.014.028.023.7615051.96323276 1.3932378 2.02228444 1.879 3.15.1261307.3484076.4345731.5985117.8015246.6499257s.7322523-.1042913.949278-.4046188c.2170258-.3003275.2501962-.6960402.0861974-1.0283069-.4096768-.9552042-.9120834-1.86790947-1.5-2.725 1.1622302-.63695622 2.4656757-.97218686 3.791-.975 2.5196754.00335488 4.8907961 1.19255663 6.4003357 3.20999706 1.5095396 2.01744044 1.9813917 4.62776024 1.2736643 7.04600294-2.7085544-.5206295-5.5102979-.2362486-8.059.818-.3395636.1307825-.5812864.4356922-.6311527.7961375-.0498664.3604454.0999952.7195294.3912977.93759.2913024.2180606.6780629.2606764 1.009855.1112725 4.4824149-1.8630185 9.6457388-.8420693 13.0818073 2.586679 3.4360684 3.4287482 4.4680271 8.5898831 2.6145723 13.0762609-1.8534547 4.4863779-6.2272199 7.4142491-11.0813796 7.4180601h-29c-2.4805917-.0017141-4.8200559-1.1540446-6.333351-3.1195664-1.51329519-1.9655218-2.02920063-4.5218472-1.396649-6.9204336.242.018.483.04.73.04 1.0749565.0009161 2.1430178-.171635 3.163-.511.3394023-.1128959.5927937-.398285.6647242-.748664.0719304-.350379-.0485282-.712517-.3160001-.95-.2674719-.2374831-.6413218-.3142319-.9807241-.201336-3.43136622 1.1412288-7.20165421-.161291-9.19684523-3.1772304-1.99519102-3.0159393-1.71913387-6.9953139.67338486-9.7068691 2.39251874-2.7115552 6.30654297-3.480999 9.54746037-1.8769005.3203279.1621467.7029956.1401275 1.0026105-.0576916.299615-.1978191.4701885-.5410743.446912-.8993475s-.2368302-.6765722-.5595225-.8339609c-3.396238-1.6526832-7.43387055-1.2508335-10.43774245 1.0388276s-4.46139988 6.0764239-3.76787669 9.7892153c.69352318 3.7127914 3.41975413 6.7180576 7.04761914 7.7689571-.72343774 2.9807106-.03980088 6.128562 1.8548307 8.5406916 1.8946316 2.4121295 4.7909251 3.8220274 7.8581693 3.8253084h29c6.8336977.004319 12.6719872-4.9256182 13.8124946-11.6634728 1.1405075-6.7378547-2.7500645-13.314583-9.2044946-15.5595272z"/><path id="Shape" d="m52 29c0-1.6568542-1.3431458-3-3-3s-3 1.3431458-3 3 1.3431458 3 3 3 3-1.3431458 3-3zm-4 0c0-.5522847.4477153-1 1-1s1 .4477153 1 1-.4477153 1-1 1-1-.4477153-1-1z"/><path id="Shape" d="m35 26c-1.6568542 0-3 1.3431458-3 3s1.3431458 3 3 3 3-1.3431458 3-3-1.3431458-3-3-3zm0 4c-.5522847 0-1-.4477153-1-1s.4477153-1 1-1 1 .4477153 1 1-.4477153 1-1 1z"/><path id="Shape" d="m42 38c2.209139 0 4-1.790861 4-4 0-.5522847-.4477153-1-1-1s-1 .4477153-1 1c0 1.1045695-.8954305 2-2 2s-2-.8954305-2-2c0-.5522847-.4477153-1-1-1s-1 .4477153-1 1c0 2.209139 1.790861 4 4 4z"/><path id="Shape" d="m17.593 15.492c-.3630639-.4028044-.9810163-.4428339-1.3930134-.090236-.411997.3525978-.4678857.9693182-.1259866 1.390236.4260252.4966927.7900333 1.0433765 1.084 1.628.1607695.3193954.4797221.5287595.8367114.5492267.3569894.0204673.6977802-.1510718.8940001-.45.1962198-.2989282.218058-.6798313.0572885-.9992267-.3673077-.7282398-.8216283-1.4092171-1.353-2.028z"/><path id="Shape" d="m38 55c0-1.853-2.039-5.336-3.75-7.933-.2922296-.3978271-.7563761-.6327947-1.25-.6327947s-.9577704.2349676-1.25.6327947c-1.711 2.597-3.75 6.08-3.75 7.933 0 2.7614237 2.2385763 5 5 5s5-2.2385763 5-5zm-8 0c0-.929 1.164-3.317 3-6.185 1.837 2.869 3 5.256 3 6.185 0 1.6568542-1.3431458 3-3 3s-3-1.3431458-3-3z"/><path id="Shape" d="m17 60c2.7600532-.0033061 4.9966939-2.2399468 5-5 0-1.853-2.039-5.336-3.75-7.933-.2922296-.3978271-.7563761-.6327947-1.25-.6327947s-.9577704.2349676-1.25.6327947c-1.711 2.597-3.75 6.08-3.75 7.933.0033061 2.7600532 2.2399468 4.9966939 5 5zm0-11.185c1.837 2.869 3 5.256 3 6.185 0 1.6568542-1.3431458 3-3 3s-3-1.3431458-3-3c0-.929 1.164-3.317 3-6.185z"/><path id="Shape" d="m54 55c0-1.853-2.039-5.336-3.75-7.933-.2922296-.3978271-.7563761-.6327947-1.25-.6327947s-.9577704.2349676-1.25.6327947c-1.711 2.597-3.75 6.08-3.75 7.933 0 2.7614237 2.2385763 5 5 5s5-2.2385763 5-5zm-8 0c0-.929 1.164-3.317 3-6.185 1.837 2.869 3 5.256 3 6.185 0 1.6568542-1.3431458 3-3 3s-3-1.3431458-3-3z"/><path id="Shape" d="m14 39c0 .5522847.4477153 1 1 1h1c.5522847 0 1-.4477153 1-1s-.4477153-1-1-1h-1c-.5522847 0-1 .4477153-1 1z"/><path id="Shape" d="m20 40h10c.5522847 0 1-.4477153 1-1s-.4477153-1-1-1h-10c-.5522847 0-1 .4477153-1 1s.4477153 1 1 1z"/></g></g></g></svg>