<svg height="61" viewBox="0 0 60 61" width="60" xmlns="http://www.w3.org/2000/svg"><g id="Page-1" fill="none" fill-rule="evenodd"><g id="008---Full-Moon" fill-rule="nonzero" transform="translate(0 -1)"><path id="Shape" d="m59 31c.0058998 15.496045-12.1800136 28.2546875-27.66 28.96-.44.03-.89.04-1.34.04-14.596585.0014336-26.91761487-10.850155-28.76-25.33-.16087569-1.2166991-.24105089-2.4427117-.24-3.67-.00924107-14.0987011 10.1226608-26.16130646 24.0111824-28.58667806 13.8885215-2.42537159 27.5090841 5.48930825 32.2788176 18.75667806 1.0259415 2.8421974 1.5930334 5.8295565 1.68 8.85.02.32.03.65.03.98z" fill="#e8edfc"/><path id="Shape" d="m58.97 30.02c-.0869666-3.0204435-.6540585-6.0078026-1.68-8.85-4.1465535-11.50351605-15.0619672-19.17110424-27.29-19.17-.56 0-1.115.022-1.667.053 11.7233884.53329916 21.9697421 8.0796082 25.957 19.117 1.0259415 2.8421974 1.5930334 5.8295565 1.68 8.85.02.32.03.65.03.98.005248 15.4723422-12.1451849 28.2197311-27.6 28.956.5286667.0293333 1.062.044 1.6.044.45 0 .9-.01 1.34-.04 15.4799864-.7053125 27.6658998-13.463955 27.66-28.96 0-.33-.01-.66-.03-.98z" fill="#cad9fc"/><path id="Shape" d="m26 41h8v1c0 2.209139-1.790861 4-4 4s-4-1.790861-4-4z" fill="#a4c2f7"/><circle id="Oval" cx="42" cy="27" fill="#a4c2f7" r="2"/><circle id="Oval" cx="22" cy="23" fill="#a4c2f7" r="5"/><path id="Shape" d="m22 18c-.5100781.007121-1.0160138.0927928-1.5.254 2.0807519.6438254 3.4994946 2.5679184 3.4994946 4.746s-1.4187427 4.1021746-3.4994946 4.746c1.8757024.5955702 3.9262648.0330725 5.2355561-1.4361857 1.3092914-1.4692582 1.6327423-3.5708265.8258444-5.3657859s-2.5934199-2.9480201-4.5614005-2.9440284z" fill="#7facfa"/><circle id="Oval" cx="46" cy="45" fill="#a4c2f7" r="3"/><path id="Shape" d="m46 42c-.5281059.0027453-1.0459153.1463511-1.5.416.9273539.5298262 1.4996803 1.5159639 1.4996803 2.584s-.5723264 2.0541738-1.4996803 2.584c.4540847.2696489.9718941.4132547 1.5.416 1.6568542 0 3-1.3431458 3-3s-1.3431458-3-3-3z" fill="#7facfa"/><circle id="Oval" cx="13" cy="44" fill="#a4c2f7" r="2"/><circle id="Oval" cx="37" cy="17" fill="#a4c2f7" r="3"/><path id="Shape" d="m37 14c-.5281059.0027453-1.0459153.1463511-1.5.416.9273539.5298262 1.4996803 1.5159639 1.4996803 2.584s-.5723264 2.0541738-1.4996803 2.584c.4540847.2696489.9718941.4132547 1.5.416 1.6568542 0 3-1.3431458 3-3s-1.3431458-3-3-3z" fill="#7facfa"/><path id="Shape" d="m58.97 30.02c-.8579071.6393755-1.900049.9832472-2.97.98-1.9433091.0010523-3.7111984-1.1239772-4.5332808-2.8848383-.8220825-1.760861-.5494257-3.8385478.6991555-5.3276738 1.2485813-1.4891259 3.2468882-2.1199141 5.1241253-1.6174879 1.0259415 2.8421974 1.5930334 5.8295565 1.68 8.85z" fill="#a4c2f7"/><path id="Shape" d="m57.29 21.17c-.9754796-.2664242-2.0100939-.2188397-2.957.136.9972195 2.8013997 1.5495778 5.7416871 1.637 8.714-.4346427.3225161-.9194749.5711826-1.435.736 1.5094073.4990185 3.1676912.2238219 4.435-.736-.0869666-3.0204435-.6540585-6.0078026-1.68-8.85z" fill="#7facfa"/><path id="Shape" d="m32 57c.0046341 1.023663-.2209273 2.0352717-.66 2.96-.44.03-.89.04-1.34.04-4.1331689.0086704-8.2195266-.8747742-11.98-2.59-.016879-.1359769-.0235643-.2730258-.02-.41 0-3.8659932 3.1340068-7 7-7s7 3.1340068 7 7z" fill="#a4c2f7"/><path id="Shape" d="m25 50c-.5044884.0007247-1.0074167.0560468-1.5.165 3.2122165.701991 5.5015214 3.5469727 5.5 6.835.0045769 1.0207573-.2199375 2.0295344-.657 2.952.549.031 1.1.048 1.657.048.45 0 .9-.01 1.34-.04.4390727-.9247283.6646341-1.936337.66-2.96 0-3.8659932-3.1340068-7-7-7z" fill="#7facfa"/><path id="Shape" d="m11 30c0 3.3137085-2.6862915 6-6 6-1.36972104.0065659-2.69905013-.4636489-3.76-1.33-.16087569-1.2166991-.24105089-2.4427117-.24-3.67-.00123358-1.9990034.20317565-3.9928311.61-5.95 1.83670315-1.2577248 4.21877283-1.3952001 6.18797249-.3571236s3.20182511 3.081062 3.20202751 5.3071236z" fill="#a4c2f7"/><path id="Shape" d="m5 24c-.500781.0039802-.99905534.0711784-1.483.2 2.64410853.6824332 4.49216189 3.0665354 4.49380976 5.7972903s-1.84352678 5.1170858-4.48680976 5.8027097c.48172994.1279806.97758307.1951694 1.476.2 3.3137085 0 6-2.6862915 6-6s-2.6862915-6-6-6z" fill="#7facfa"/><path id="Shape" d="m30 60c.486 0 .964-.022 1.442-.045-15.3306551-.8719921-27.32421245-13.5432019-27.35311987-28.8986088-.02890741-15.3554069 11.91685657-28.07168387 27.24411987-29.0013912-.444-.022-.884-.055-1.333-.055-10.3607022-.00000015-19.9343859 5.52736859-25.11473707 14.4999999-5.18035115 8.9726313-5.18035115 20.0273689 0 29.0000002 5.18035117 8.9726313 14.75403487 14.5000001 25.11473707 14.4999999z" fill="#fff"/><path id="Shape" d="m6.132 12.845 1.591 1.212c-1.56487222 2.049307-2.84111145 4.3036711-3.793 6.7l-1.861-.732c1.01895941-2.5681889 2.38608713-4.9841321 4.063-7.18z" fill="#fff"/><g fill="#428dff"><path id="Shape" d="m4.743 17.783c-.55228474.0027614-1.00223854-.4427153-1.00499996-.995-.00276143-.5522847.44271522-1.0022386.99499996-1.005h.01c.55228475 0 1 .4477153 1 1s-.44771525 1-1 1z"/><path id="Shape" d="m.245 34.768c1.79328788 14.2424356 13.4158591 25.2239224 27.7370394 26.2071041 14.3211803.9831816 27.335443-8.3069304 31.0582839-22.1706712 3.7228409-13.8637407-2.8869905-28.4235258-15.7742339-34.74664299-12.8872433-6.32311721-28.4474331-2.64103804-37.1340894 8.78721009-.16511419.2121492-.23705579.4822275-.19935409.7484014.03770169.266174.18181799.5056491.39935409.6635986.44109654.3177321 1.05455045.2293381 1.388-.2 6.0298519-7.94038911 15.8298392-12.0716981 25.7244221-10.84445662 9.894583 1.22724149 18.3883162 7.62755092 22.2955779 16.80045662-2.3527144.0988154-4.4296963 1.5658315-5.3093883 3.7501326-.8796919 2.1843012-.3991588 4.681315 1.2283866 6.3831156 1.6275455 1.7018006 4.1006521 2.2931835 6.3220017 1.5117518-.2994319 14.1391067-11.1245506 25.8207843-25.2 27.194.6847492-2.8616301-.2576817-5.8681049-2.4534413-7.8267902-2.1957595-1.9586853-5.289928-2.5529818-8.0550841-1.5471389s-4.7543436 3.4492421-5.1784746 6.3609291c-7.49124226-3.9179225-12.82440866-10.995888-14.525-19.277 2.84747326 1.0633175 6.05574848.1675361 7.9405276-2.217072 1.8847792-2.384608 2.015291-5.7130342.3230186-8.237903-1.69227241-2.5248687-4.82055558-3.6691146-7.7425462-2.832025.244-.853.517-1.7.841-2.518.2021362-.5141771-.05082292-1.0948638-.56500001-1.297s-1.09486376.0508229-1.29699999.565c-1.83436657 4.6837041-2.46159608 9.7534654-1.824 14.743zm51.755-8.768c.0001664-1.1507147.4958964-2.245619 1.3605203-3.0049411.8646239-.759322 2.0143796-1.1095011 3.1554797-.9610589.8151905 2.4111163 1.2914104 4.9238075 1.415 7.466-.590057.3297059-1.2550787.5019021-1.931.5-2.209139 0-4-1.790861-4-4zm-27 25c3.3123376.0033074 5.9966926 2.6876624 6 6 .0019109.674516-.1124288 1.3443168-.338 1.98-3.9995768.1152967-7.9758342-.6472545-11.649-2.234.1359707-3.2090874 2.7750359-5.74192 5.987-5.746zm-15-21c-.00330612 2.7600532-2.23994685 4.9966939-5 5-1.00609727.0005966-1.98782954-.3095344-2.811-.888-.33124429-2.8107431-.22192973-5.6559584.324-8.433 1.54404544-.8916933 3.44650454-.8919579 4.99079794-.0006941 1.54429341.8912638 2.49582909 2.5386649 2.49620206 4.3216941z"/><path id="Shape" d="m17.521 8.188c-.3225076.16632723-.529605.49431112-.5411317.85699972-.0115266.3626886.1743267.70316087.485622.889631.3112953.18647018.6991774.18967318 1.0135097.00836928 9.359557-5.06821473 20.9340218-3.40833605 28.492 4.086.3923789.3789722 1.0160848.3735524 1.4018186-.0121814s.3911536-1.0094397.0121814-1.4018186c-8.1868855-8.11874172-20.7251103-9.91717101-30.864-4.427z"/><path id="Shape" d="m13.359 11.021c-.6.5-1.188 1.038-1.744 1.594-.2599566.2510745-.3642126.6228779-.2726972.9725073.0915155.3496295.3645604.6226744.7141899.7141899.3496294.0915154.7214328-.0127406.9725073-.2726972.514-.513 1.056-1.009 1.612-1.472.27438-.2290072.4057436-.5869986.3446075-.9391223-.0611361-.3521236-.3054839-.6448836-.641-.768s-.7112275-.057885-.9856075.1711223z"/><path id="Shape" d="m22 36c0 .5522847-.4477153 1-1 1s-1-.4477153-1-1-.4477153-1-1-1-1 .4477153-1 1c0 1.6568542 1.3431458 3 3 3s3-1.3431458 3-3c0-.5522847-.4477153-1-1-1s-1 .4477153-1 1z"/><path id="Shape" d="m39 39c1.6568542 0 3-1.3431458 3-3 0-.5522847-.4477153-1-1-1s-1 .4477153-1 1-.4477153 1-1 1-1-.4477153-1-1-.4477153-1-1-1-1 .4477153-1 1c0 1.6568542 1.3431458 3 3 3z"/><path id="Shape" d="m26 40c-.5522847 0-1 .4477153-1 1v1c0 2.7614237 2.2385763 5 5 5s5-2.2385763 5-5v-1c0-.5522847-.4477153-1-1-1zm4 5c-1.6568542 0-3-1.3431458-3-3h6c0 1.6568542-1.3431458 3-3 3z"/><path id="Shape" d="m42 30c1.6568542 0 3-1.3431458 3-3s-1.3431458-3-3-3-3 1.3431458-3 3 1.3431458 3 3 3zm0-4c.5522847 0 1 .4477153 1 1s-.4477153 1-1 1-1-.4477153-1-1 .4477153-1 1-1z"/><path id="Shape" d="m22 29c3.3137085 0 6-2.6862915 6-6s-2.6862915-6-6-6-6 2.6862915-6 6c.0033074 3.3123376 2.6876624 5.9966926 6 6zm0-10c2.209139 0 4 1.790861 4 4s-1.790861 4-4 4-4-1.790861-4-4 1.790861-4 4-4z"/><path id="Shape" d="m46 49c2.209139 0 4-1.790861 4-4s-1.790861-4-4-4-4 1.790861-4 4 1.790861 4 4 4zm0-6c1.1045695 0 2 .8954305 2 2s-.8954305 2-2 2-2-.8954305-2-2 .8954305-2 2-2z"/><path id="Shape" d="m10 44c0 1.6568542 1.3431458 3 3 3s3-1.3431458 3-3-1.3431458-3-3-3-3 1.3431458-3 3zm4 0c0 .5522847-.4477153 1-1 1s-1-.4477153-1-1 .4477153-1 1-1 1 .4477153 1 1z"/><path id="Shape" d="m41 17c0-2.209139-1.790861-4-4-4s-4 1.790861-4 4 1.790861 4 4 4 4-1.790861 4-4zm-6 0c0-1.1045695.8954305-2 2-2s2 .8954305 2 2-.8954305 2-2 2-2-.8954305-2-2z"/></g></g></g></svg>