<svg height="512" viewBox="0 0 40 60" width="512" xmlns="http://www.w3.org/2000/svg"><g id="Page-1" fill="none" fill-rule="evenodd"><g id="009---Low-Temperature" fill-rule="nonzero" transform="translate(0 -1)"><path id="Shape" d="m29 23.141v-12.141c0-4.97056275-4.0294373-9-9-9s-9 4.02943725-9 9v12.141c.0073189.6628244-.3295457 1.2820498-.89 1.636-7.2630587 4.4275015-10.69840017 13.1428741-8.40976954 21.3353682 2.28863063 8.1924942 9.74349734 13.8656109 18.24963014 13.8878783 8.5061328.0222673 15.9905993-5.6117412 18.3220909-13.7921408s-1.0581728-16.9136387-8.2979515-21.3791057c-.5953871-.3557237-.9639774-.9945126-.974-1.688z" fill="#e8edfc"/><path id="Shape" d="m29.974 24.829c-.5953871-.3557237-.9639774-.9945126-.974-1.688v-12.141c.0240346-2.39423561-.916457-4.69741195-2.6095225-6.39047748-1.6930656-1.69306554-3.9962419-2.63355716-6.3904775-2.60952252-.496787.00322133-.9924639.04737069-1.482.132 4.342881.70069641 7.5223465 4.46914074 7.482 8.868v12.141c.0100226.6934874.3786129 1.3322763.974 1.688 6.9909832 4.3175426 10.4144623 12.6397749 8.4851596 20.6268151-1.9293028 7.9870402-8.7741791 13.8289087-16.9651596 14.4791849 8.7459208.6904253 16.8274015-4.6970153 19.554206-13.0356216s-.6101522-17.4599859-8.074206-22.0703784z" fill="#cad9fc"/><circle id="Oval" cx="20" cy="41" fill="#7facfa" r="15"/><ellipse id="Oval" cx="20" cy="41" fill="#a4c2f7" rx="12" ry="15"/><circle id="Oval" cx="12" cy="39" fill="#e8edfc" r="2"/><circle id="Oval" cx="28" cy="39" fill="#e8edfc" r="2"/><path id="Shape" d="m17.808 59.877c1.2326374.1379022 2.475656.1573244 3.712.058-.237-.018-.473-.031-.712-.058-8.0582398-.9329216-14.63536708-6.8790146-16.37360205-14.8026571-1.73823496-7.9236425 1.74587223-16.0769009 8.67360205-20.2973429.5612191-.3534686.8988882-.972781.892-1.636v-12.141c.0080871-4.39469108 3.1865232-8.14195781 7.521-8.867-.5025219-.08575908-1.0112204-.13024094-1.521-.133-4.967594.00715991-8.9928401 4.03240601-9 9v12.141c.0073189.6628244-.3295457 1.2820498-.89 1.636-6.92772982 4.220442-10.41183701 12.3737004-8.67360205 20.2973429 1.73823497 7.9236425 8.31536226 13.8697355 16.37360205 14.8026571z" fill="#fff"/><path id="Shape" d="m.862 35.215 1.914.579c-.72543995 2.4296875-.94128108 4.9830131-.634 7.5l-1.985.245c-.34116083-2.793602-.10113845-5.6275684.705-8.324z" fill="#fff"/><g fill="#428dff"><path id="Shape" d="m1.548 36.467c.52206545.1291578 1.05597581-.1634495 1.228-.673 1.28911532-4.2339255 4.08363301-7.8494395 7.856-10.164.5954029-.3743239 1.032447-.9544394 1.228-1.63h1.14c.5522847 0 1-.4477153 1-1s-.4477153-1-1-1h-1v-2h3c.5522847 0 1-.4477153 1-1s-.4477153-1-1-1h-3v-2h1c.5522847 0 1-.4477153 1-1s-.4477153-1-1-1h-1v-2h3c.5522847 0 1-.4477153 1-1s-.4477153-1-1-1h-2.931c.507003-3.995865 3.9031042-6.99330651 7.931-7 2.1286952-.02298571 4.176909.81248585 5.6822116 2.31778843 1.5053026 1.50530259 2.3407741 3.55351634 2.3177884 5.68221157v12.141c.0071574 1.041117.5562618 2.0032814 1.449 2.539 7.1305322 4.4016396 10.2804682 13.1415515 7.5974345 21.080081-2.6830338 7.9385295-10.4892371 12.9755274-18.8280385 12.1489009-8.33880141-.8266264-15.00415932-7.298192-16.076396-15.6089819-.04394367-.3545861-.27371872-.6587935-.60277112-.7980302-.32905241-.1392367-.70739127-.0923494-.9925.123-.28510874.2153494-.43367255.5664441-.38972888.9210302 1.19703422 9.1075784 8.42116608 16.2419388 17.543 17.325.77437.0858469 1.552886.1289123 2.332.129 4.9117495.0146749 9.653031-1.7998456 13.3-5.09 4.7049574-4.2072427 7.1478287-10.3885642 6.5902253-16.6755821-.5576034-6.2870178-4.0502433-11.9419115-9.4222253-15.2554179-.300896-.1735375-.4901853-.4907863-.5-.838v-12.141c.0286632-2.66084841-1.0156984-5.22107538-2.8973115-7.10268849-1.8816131-1.88161312-4.4418401-2.92597471-7.1026885-2.89731151-5.5203344.00606237-9.9939376 4.47966557-10 10v12.141c.0076138.3139946-.14740923.6096727-.41.782-4.19179337 2.5699117-7.29652678 6.5868184-8.727 11.291-.08652183.2569968-.06175325.5384533.06832338.7763891.13007663.2379357.35363418.4107167.61667662.4766109z"/><path id="Shape" d="m1.093 40.423c-.55228473.0027614-1.00223852-.4427153-1.00499994-.995-.00276143-.5522847.44271521-1.0022385.99499994-1.005h.01c.55228475 0 1 .4477153 1 1s-.44771525 1-1 1z"/><path id="Shape" d="m4 41c0 8.836556 7.163444 16 16 16s16-7.163444 16-16-7.163444-16-16-16c-8.8322157.0104696-15.98953038 7.1677843-16 16zm16-14c7.7319865 0 14 6.2680135 14 14s-6.2680135 14-14 14-14-6.2680135-14-14c.00826732-7.7285595 6.2714405-13.9917327 14-14z"/><path id="Shape" d="m24 11c0 .5522847.4477153 1 1 1s1-.4477153 1-1c.061006-1.60922649-.5515224-3.17105294-1.6902347-4.30976529-1.1387124-1.13871234-2.7005388-1.75124066-4.3097653-1.69023471-.5522847 0-1 .44771525-1 1s.4477153 1 1 1c.163 0 4 .045 4 4z"/><path id="Shape" d="m12 42c1.6568542 0 3-1.3431458 3-3s-1.3431458-3-3-3-3 1.3431458-3 3 1.3431458 3 3 3zm0-4c.5522847 0 1 .4477153 1 1s-.4477153 1-1 1-1-.4477153-1-1 .4477153-1 1-1z"/><path id="Shape" d="m28 42c1.6568542 0 3-1.3431458 3-3s-1.3431458-3-3-3-3 1.3431458-3 3 1.3431458 3 3 3zm0-4c.5522847 0 1 .4477153 1 1s-.4477153 1-1 1-1-.4477153-1-1 .4477153-1 1-1z"/><path id="Shape" d="m17 47c.5522847 0 1-.4477153 1-1 0-1.1045695.8954305-2 2-2s2 .8954305 2 2c0 .5522847.4477153 1 1 1s1-.4477153 1-1c0-2.209139-1.790861-4-4-4s-4 1.790861-4 4c0 .5522847.4477153 1 1 1z"/><path id="Shape" d="m13.293 43.293-1 1c-.2599566.2510745-.3642126.6228779-.2726972.9725073.0915155.3496295.3645604.6226744.7141899.7141899.3496294.0915154.7214328-.0127406.9725073-.2726972l1-1c.3789722-.3923789.3735524-1.0160848-.0121814-1.4018186s-1.0094397-.3911536-1.4018186-.0121814z"/><path id="Shape" d="m8.293 45.707c.39049985.3903819 1.02350015.3903819 1.414 0l1-1c.3789722-.3923789.3735524-1.0160848-.0121814-1.4018186s-1.00943971-.3911536-1.4018186-.0121814l-1 1c-.39038194.3904999-.39038194 1.0235001 0 1.414z"/><path id="Shape" d="m26.293 45.707c.3923789.3789722 1.0160848.3735524 1.4018186-.0121814s.3911536-1.0094397.0121814-1.4018186l-1-1c-.3923789-.3789722-1.0160848-.3735524-1.4018186.0121814s-.3911536 1.0094397-.0121814 1.4018186z"/><path id="Shape" d="m29.293 43.293c-.3903819.3904999-.3903819 1.0235001 0 1.414l1 1c.3923789.3789722 1.0160848.3735524 1.4018186-.0121814s.3911536-1.0094397.0121814-1.4018186l-1-1c-.3904999-.3903819-1.0235001-.3903819-1.414 0z"/></g></g></g></svg>