<svg height="512" viewBox="0 0 40 60" width="512" xmlns="http://www.w3.org/2000/svg"><g id="Page-1" fill="none" fill-rule="evenodd"><g id="010---High-Temperature" fill-rule="nonzero" transform="translate(0 -1)"><path id="Shape" d="m29 23.141v-12.141c0-4.97056275-4.0294373-9-9-9s-9 4.02943725-9 9v12.141c.0073189.6628244-.3295457 1.2820498-.89 1.636-7.2630587 4.4275015-10.69840017 13.1428741-8.40976954 21.3353682 2.28863063 8.1924942 9.74349734 13.8656109 18.24963014 13.8878783 8.5061328.0222673 15.9905993-5.6117412 18.3220909-13.7921408s-1.0581728-16.9136387-8.2979515-21.3791057c-.5953871-.3557237-.9639774-.9945126-.974-1.688z" fill="#e8edfc"/><path id="Shape" d="m29.974 24.829c-.5953871-.3557237-.9639774-.9945126-.974-1.688v-12.141c.0240346-2.39423561-.916457-4.69741195-2.6095225-6.39047748-1.6930656-1.69306554-3.9962419-2.63355716-6.3904775-2.60952252-.496787.00322133-.9924639.04737069-1.482.132 4.342881.70069641 7.5223465 4.46914074 7.482 8.868v12.141c.0100226.6934874.3786129 1.3322763.974 1.688 6.9909832 4.3175426 10.4144623 12.6397749 8.4851596 20.6268151-1.9293028 7.9870402-8.7741791 13.8289087-16.9651596 14.4791849 8.7459208.6904253 16.8274015-4.6970153 19.554206-13.0356216s-.6101522-17.4599859-8.074206-22.0703784z" fill="#cad9fc"/><path id="Shape" d="m20 56c-.5837348-.000991-1.1669649-.0343756-1.747-.1-6.3572491-.7457269-11.54088134-5.4433391-12.90687627-11.6967208s1.3866443-12.6846009 6.85387627-16.0132792c1.7444808-1.0847705 2.8036913-2.994754 2.8-5.049v-7.141c.0033061-2.7600532 2.2399468-4.9966939 5-5 1.3351664-.030388 2.6246685.4866321 3.5690182 1.4309818s1.4613698 2.2338518 1.4309818 3.5690182v7.141c.0031032 2.081966 1.0916834 4.0116183 2.872 5.091 5.710198 3.5208513 8.3883554 10.4050838 6.5586791 16.8591553-1.8296763 6.4540716-7.7222699 10.9085666-14.4306791 10.9088447z" fill="#7facfa"/><path id="Shape" d="m20 56c-.4684174-.0009247-.9362066-.0343383-1.4-.1-5.421-.758-9.838-6.214-10.506-12.974-.59-5.974 1.579-11.621 5.66-14.738 1.4757068-1.2543743 2.3019435-3.1110156 2.246-5.047v-7.141c0-2.757 1.8-5 4-5 2.28 0 4 2.149 4 5v7.141c-.0535275 1.9596978.7940677 3.8358312 2.3 5.091 3.568 2.759 5.7 7.532 5.7 12.768.0589038 3.831023-1.1799085 7.569311-3.515 10.607-1.9979344 2.6963565-5.1299379 4.3179112-8.485 4.393z" fill="#a4c2f7"/><circle id="Oval" cx="12" cy="38" fill="#e8edfc" r="2"/><circle id="Oval" cx="28" cy="38" fill="#e8edfc" r="2"/><path id="Shape" d="m17 42h6v1c0 1.6568542-1.3431458 3-3 3s-3-1.3431458-3-3z" fill="#cad9fc"/><path id="Shape" d="m17.808 59.877c1.2326374.1379022 2.475656.1573244 3.712.058-.237-.018-.473-.031-.712-.058-8.0582398-.9329216-14.63536708-6.8790146-16.37360205-14.8026571-1.73823496-7.9236425 1.74587223-16.0769009 8.67360205-20.2973429.5612191-.3534686.8988882-.972781.892-1.636v-12.141c.0080871-4.39469108 3.1865232-8.14195781 7.521-8.867-.5025219-.08575908-1.0112204-.13024094-1.521-.133-4.967594.00715991-8.9928401 4.03240601-9 9v12.141c.0073189.6628244-.3295457 1.2820498-.89 1.636-6.92772982 4.220442-10.41183701 12.3737004-8.67360205 20.2973429 1.73823497 7.9236425 8.31536226 13.8697355 16.37360205 14.8026571z" fill="#fff"/><path id="Shape" d="m.862 35.215 1.914.579c-.72543995 2.4296875-.94128108 4.9830131-.634 7.5l-1.985.245c-.34116083-2.793602-.10113845-5.6275684.705-8.324z" fill="#fff"/><g fill="#428dff"><path id="Shape" d="m1.548 36.467c.52206545.1291578 1.05597581-.1634495 1.228-.673 1.28911532-4.2339255 4.08363301-7.8494395 7.856-10.164.5954029-.3743239 1.032447-.9544394 1.228-1.63h.14c.5522847 0 1-.4477153 1-1s-.4477153-1-1-1v-2c.5522847 0 1-.4477153 1-1s-.4477153-1-1-1v-2c.5522847 0 1-.4477153 1-1s-.4477153-1-1-1v-2c.5375156.0022226.9794214-.4232622.9975449-.9604768.0181236-.5372146-.3941016-.9915145-.9305449-1.0255232.5006396-4.00217354 3.8996404-7.00741641 7.933-7.014 2.1286952-.02298571 4.176909.81248585 5.6822116 2.31778843 1.5053026 1.50530259 2.3407741 3.55351634 2.3177884 5.68221157v12.141c.0071574 1.041117.5562618 2.0032814 1.449 2.539 7.1305322 4.4016396 10.2804682 13.1415515 7.5974345 21.080081-2.6830338 7.9385295-10.4892371 12.9755274-18.8280385 12.1489009-8.33880141-.8266264-15.00415932-7.298192-16.076396-15.6089819-.04394367-.3545861-.27371872-.6587935-.60277112-.7980302-.32905241-.1392367-.70739127-.0923494-.9925.123-.28510874.2153494-.43367255.5664441-.38972888.9210302 1.19703422 9.1075784 8.42116608 16.2419388 17.543 17.325.77437.0858469 1.552886.1289123 2.332.129 4.9117495.0146749 9.653031-1.7998456 13.3-5.09 4.7049574-4.2072427 7.1478287-10.3885642 6.5902253-16.6755821-.5576034-6.2870178-4.0502433-11.9419115-9.4222253-15.2554179-.300896-.1735375-.4901853-.4907863-.5-.838v-12.141c.0286632-2.66084841-1.0156984-5.22107538-2.8973115-7.10268849-1.8816131-1.88161312-4.4418401-2.92597471-7.1026885-2.89731151-5.5203344.00606237-9.9939376 4.47966557-10 10v12.141c.0076138.3139946-.14740923.6096727-.41.782-4.19179337 2.5699117-7.29652678 6.5868184-8.727 11.291-.08652183.2569968-.06175325.5384533.06832338.7763891.13007663.2379357.35363418.4107167.61667662.4766109z"/><path id="Shape" d="m1.093 40.423c-.55228473.0027614-1.00223852-.4427153-1.00499994-.995-.00276143-.5522847.44271521-1.0022385.99499994-1.005h.01c.55228475 0 1 .4477153 1 1s-.44771525 1-1 1z"/><path id="Shape" d="m20 10c-3.3123376.0033074-5.9966926 2.6876624-6 6v7.141c.0049792 1.7085077-.875154 3.2977422-2.326 4.2-5.83379619 3.5515951-8.76996958 10.414709-7.31002544 17.0867078 1.45994413 6.6719989 6.99407964 11.6816685 13.77802544 12.4722922.6170211.067501 1.2372983.1008852 1.858.1 7.1560991.0009896 13.4426745-4.7499449 15.395156-11.6345342 1.9524816-6.8845894-.9039738-14.2285033-6.995156-17.9844658-1.4856858-.8971026-2.3955212-2.5044784-2.4-4.24v-7.141c.0364656-1.6021997-.5839585-3.1496021-1.7171782-4.2828218s-2.6806221-1.75364375-4.2828218-1.7171782zm7.347 19.083c5.3357137 3.2896622 7.8344764 9.7250906 6.1167903 15.7534628-1.7176862 6.0283723-7.2331377 10.1802813-13.501426 10.1635727-6.2682884-.0167086-11.76152722-4.1979621-13.44705106-10.2354058-1.68552384-6.0374438.84751135-12.4594596 6.20068676-15.7206297 2.0427382-1.2664901 3.2850268-3.4995076 3.284-5.903v-7.141c0-2.209139 1.790861-4 4-4 1.0680493-.0240227 2.0994823.3896858 2.8548982 1.1451018.755416.7554159 1.1691245 1.7868489 1.1451018 2.8548982v7.141c.0017738 2.429168 1.2704641 4.6815006 3.347 5.942z"/><path id="Shape" d="m12 35c-1.2133867 0-2.3072956.7309265-2.7716386 1.8519497s-.20767573 2.4113767.65031826 3.2693706c.85799394.857994 2.14834744 1.1146613 3.26937064.6503183s1.8519497-1.5582519 1.8519497-2.7716386c0-1.6568542-1.3431458-3-3-3zm0 4c-.5522847 0-1-.4477153-1-1s.4477153-1 1-1 1 .4477153 1 1-.4477153 1-1 1z"/><path id="Shape" d="m25 38c0 1.6568542 1.3431458 3 3 3s3-1.3431458 3-3-1.3431458-3-3-3-3 1.3431458-3 3zm3-1c.5522847 0 1 .4477153 1 1s-.4477153 1-1 1-1-.4477153-1-1 .4477153-1 1-1z"/><path id="Shape" d="m23 41h-6c-.5522847 0-1 .4477153-1 1v1c0 2.209139 1.790861 4 4 4s4-1.790861 4-4v-1c0-.5522847-.4477153-1-1-1zm-3 4c-1.1045695 0-2-.8954305-2-2h4c0 1.1045695-.8954305 2-2 2z"/><path id="Shape" d="m13.293 42.293-1 1c-.2599566.2510745-.3642126.6228779-.2726972.9725073.0915155.3496295.3645604.6226744.7141899.7141899.3496294.0915154.7214328-.0127406.9725073-.2726972l1-1c.3789722-.3923789.3735524-1.0160848-.0121814-1.4018186s-1.0094397-.3911536-1.4018186-.0121814z"/><path id="Shape" d="m9.293 42.293-1 1c-.25995658.2510745-.3642126.6228779-.27269716.9725073.09151544.3496295.3645604.6226744.71418984.7141899.34962943.0915154.72143285-.0127406.97250732-.2726972l1-1c.3789722-.3923789.3735524-1.0160848-.0121814-1.4018186s-1.00943971-.3911536-1.4018186-.0121814z"/><path id="Shape" d="m26.707 42.293c-.3923789-.3789722-1.0160848-.3735524-1.4018186.0121814s-.3911536 1.0094397-.0121814 1.4018186l1 1c.3923789.3789722 1.0160848.3735524 1.4018186-.0121814s.3911536-1.0094397.0121814-1.4018186z"/><path id="Shape" d="m29.293 42.293c-.3903819.3904999-.3903819 1.0235001 0 1.414l1 1c.3923789.3789722 1.0160848.3735524 1.4018186-.0121814s.3911536-1.0094397.0121814-1.4018186l-1-1c-.3904999-.3903819-1.0235001-.3903819-1.414 0z"/></g></g></g></svg>