<svg height="60" viewBox="0 0 60 60" width="60" xmlns="http://www.w3.org/2000/svg"><g id="Page-1" fill="none" fill-rule="evenodd"><g id="012---Windy" fill-rule="nonzero" transform="translate(0 -1)"><path id="Shape" d="m46 44c6.5341907.0020691 12.0545686-4.8463342 12.8959036-11.3261341.841335-6.4798-3.2578432-12.5772031-9.5759036-14.2438659 1.5306136-3.7142409.4142979-7.9931284-2.735746-10.48623614-3.150044-2.49310777-7.5709395-2.5966556-10.834254-.25376386-3.6250275-4.57607937-9.5757596-6.63323921-15.2529862-5.27293623-5.6772267 1.36030299-10.0494811 5.89092219-11.2070138 11.61293623-4.54729743.3513387-8.11292697 4.0486572-8.29918917 8.6057022s3.06573315 8.5330235 7.56918917 9.2542978c-1.02295352 2.7602694-.62924494 5.8465305 1.05391512 8.261586 1.68316008 2.4150555 4.44236228 3.8526984 7.38608488 3.848414h23z" fill="#e8edfc"/><path id="Shape" d="m49.32 18.43c1.2544864-3.0281938.7616487-6.4991324-1.2862039-9.0584279-2.0478526-2.55929555-5.3261965-3.80137614-8.5557961-3.2415721 2.7042512.44710637 5.0567428 2.10361398 6.3891616 4.4989299 1.3324188 2.395316 1.4991541 5.2676728.4528384 7.8010701 6.3143969 1.665678 10.413086 7.7572741 9.5772216 14.233957-.8358644 6.476683-6.346829 11.3280813-12.8772216 11.336043h2.98c6.5341907.0020691 12.0545686-4.8463342 12.8959036-11.3261341.841335-6.4798-3.2578432-12.5772031-9.5759036-14.2438659z" fill="#cad9fc"/><circle id="Oval" cx="44" cy="34" fill="#a4c2f7" r="4"/><path id="Shape" d="m17 44h3c-2.9413807-.001825-5.6962666-1.4408566-7.3780862-3.8539887-1.6818195-2.4131321-2.078325-5.4958244-1.0619138-8.2560113-4.50345602-.7212743-7.75545137-4.6972528-7.56918917-9.2542978s3.75189174-8.2543635 8.29918917-8.6057022c1.2867277-6.5026242 6.7145134-11.37328541 13.318-11.951-7.7110602-.83421669-14.7864462 4.34766454-16.318 11.951-4.54729743.3513387-8.11292697 4.0486572-8.29918917 8.6057022s3.06573315 8.5330235 7.56918917 9.2542978c-1.01641119 2.7601869-.61990572 5.8428792 1.06191384 8.2560113s4.43670546 3.8521637 7.37808616 3.8539887z" fill="#fff"/><path id="Shape" d="m12.116 6.307 1.484 1.339c-.8318779.92760259-1.5404106 1.95880679-2.108 3.068-.549103 1.1176656-.9601254 2.2980117-1.224 3.515l-1.96-.4c.29940974-1.3921998.76963648-2.7420864 1.4-4.019.6480476-1.26674094 1.4574482-2.44420372 2.408-3.503z" fill="#fff"/><g fill="#428dff"><path id="Shape" d="m10.622 11.254c-.5522847.0030376-1.00246242-.4422153-1.00549999-.9945-.00303756-.55228474.44221529-1.00246243.99449999-1.0055h.011c.5522847 0 1 .44771525 1 1 0 .5522847-.4477153 1-1 1z"/><path id="Shape" d="m7.287 32.634c-.190983.7741607-.28735351 1.5686298-.287 2.366.00606237 5.5203344 4.4796656 9.9939376 10 10h22v8c0 1.1045695-.8954305 2-2 2s-2-.8954305-2-2 .8954305-2 2-2c.5522847 0 1-.4477153 1-1s-.4477153-1-1-1c-2.209139 0-4 1.790861-4 4s1.790861 4 4 4 4-1.790861 4-4v-13c0-.5522847-.4477153-1-1-1s-1 .4477153-1 1v3h-22c-4.4162219-.0049599-7.99504012-3.5837781-8-8 .00052403-.6888733.09129645-1.3747093.27-2.04.242.018.483.04.73.04 1.0749565.0009161 2.1430178-.171635 3.163-.511.3394023-.1128959.5927937-.398285.6647242-.748664.0719304-.350379-.0485282-.712517-.3160001-.95-.2674719-.2374831-.6413218-.3142319-.9807241-.201336-3.43136622 1.1412288-7.20165421-.161291-9.19684523-3.1772304-1.99519102-3.0159393-1.71913387-6.9953139.67338486-9.7068691 2.39251874-2.7115552 6.30654297-3.480999 9.54746037-1.8769005.3203279.1621467.7029956.1401275 1.0026105-.0576916.299615-.1978191.4701885-.5410743.446912-.8993475s-.2368302-.6765722-.5595225-.8339609c-1.4112421-.6939289-2.9665239-1.0444583-4.539-1.023-.361 0-.722.026-1.077.064-4.73885164.5589448-8.42259621 4.3881558-8.79768293 9.1450922s2.66299532 9.1161666 7.25568293 10.4109078z"/><path id="Shape" d="m50.608 17.777c1.1378142-3.931043-.2344216-8.15864607-3.4640412-10.67206557s-7.6647563-2.8053467-11.1959588-.73693443c-3.0204728-3.40501555-7.350711-5.35889749-11.9023317-5.37054774-4.5516207-.01165026-8.8918043 1.92003901-11.9296683 5.30954774-.1888126.19831263-.2855316.46688129-.2665094.74004104.0190223.27315975.1520324.52573056.3665094.69595896.41824.32807672 1.017268.28479435 1.384-.1 2.6558946-2.94626347 6.433372-4.6326892 10.4-4.643 4.2775589-.01241527 8.3223604 1.94635316 10.965 5.31.008.009.02.014.028.023.7615051.96323276 1.3932378 2.0222844 1.879 3.15.1261307.3484076.4345731.5985117.8015246.6499257s.7322523-.1042913.949278-.4046188c.2170258-.3003275.2501962-.6960402.0861974-1.0283069-.4096768-.9552042-.9120834-1.86790947-1.5-2.725 1.1622302-.63695622 2.4656757-.97218686 3.791-.975 2.5196543.00324996 4.8907687 1.19247958 6.4001694 3.2099973 1.5094007 2.0175177 1.980955 4.6278985 1.2728306 7.0460027-2.7082433-.5201931-5.5095413-.2358221-8.058.818-.3395636.1307825-.5812864.4356922-.6311527.7961375-.0498664.3604454.0999952.7195294.3912977.93759.2913024.2180606.6780629.2606764 1.009855.1112725 2.415823-.9947355 5.0870448-1.1882159 7.621-.552.022.007.038.025.06.03 5.2812348 1.3925621 8.9558756 6.1757773 8.9403539 11.6375013-.0155216 5.461724-3.7172895 10.2239762-9.0063539 11.5864987v-2.621c0-.5522847-.4477153-1-1-1s-1 .4477153-1 1v13c0 2.209139 1.790861 4 4 4s4-1.790861 4-4-1.790861-4-4-4c-.5522847 0-1 .4477153-1 1s.4477153 1 1 1c1.1045695 0 2 .8954305 2 2s-.8954305 2-2 2-2-.8954305-2-2v-8.333c6.1148756-1.3453802 10.5929982-6.587311 10.9667411-12.8372764.3737428-6.2499654-3.4477745-11.9882079-9.3587411-14.0527236z"/><path id="Shape" d="m17.593 16.492c-.3630639-.4028044-.9810163-.4428339-1.3930134-.090236-.411997.3525978-.4678857.9693182-.1259866 1.390236.4260252.4966927.7900333 1.0433765 1.084 1.628.1607695.3193954.4797221.5287595.8367114.5492267.3569894.0204673.6977802-.1510718.8940001-.45.1962198-.2989282.218058-.6798313.0572885-.9992267-.3673077-.7282398-.8216283-1.4092171-1.353-2.028z"/><path id="Shape" d="m52.832 24.445c-.1471733-.2206869-.3759984-.3738581-.6361213-.4258077-.2601229-.0519495-.5302285.0015795-.7508787.1488077l-3 2c-.2781551.1854732-.4452244.4976789-.4452244.832s.1670693.6465268.4452244.832l3 2c.297245.1982824.6776931.2229246.9980332.0646441s.5319049-.4754371.555-.832-.1457882-.6983617-.4430332-.8966441l-1.755-1.168 1.752-1.168c.2211743-.1467018.3749585-.3753094.4274774-.6354656s-.0005358-.5305193-.1474774-.7515344z"/><path id="Shape" d="m35.168 29.555c.1471733.2206869.3759984.3738581.6361213.4258077.2601229.0519495.5302285-.0015795.7508787-.1488077l3-2c.2781551-.1854732.4452244-.4976789.4452244-.832s-.1670693-.6465268-.4452244-.832l-3-2c-.297245-.1982824-.6776931-.2229246-.9980331-.0646441-.3203401.1582805-.5319049.4754371-.555.832s.1457881.6983617.4430331.8966441l1.755 1.168-1.752 1.168c-.2211743.1467018-.3749585.3753094-.4274774.6354656s.0005358.5305193.1474774.7515344z"/><path id="Shape" d="m44 29c-2.7614237 0-5 2.2385763-5 5s2.2385763 5 5 5 5-2.2385763 5-5c-.0033061-2.7600532-2.2399468-4.9966939-5-5zm0 8c-1.6568542 0-3-1.3431458-3-3s1.3431458-3 3-3 3 1.3431458 3 3-1.3431458 3-3 3z"/><path id="Shape" d="m43 42v18c0 .5522847.4477153 1 1 1s1-.4477153 1-1v-18c0-.5522847-.4477153-1-1-1s-1 .4477153-1 1z"/><path id="Shape" d="m14 40c0 .5522847.4477153 1 1 1h1c.5522847 0 1-.4477153 1-1s-.4477153-1-1-1h-1c-.5522847 0-1 .4477153-1 1z"/><path id="Shape" d="m20 41h7c.5522847 0 1-.4477153 1-1s-.4477153-1-1-1h-7c-.5522847 0-1 .4477153-1 1s.4477153 1 1 1z"/></g></g></g></svg>