<svg height="60" viewBox="0 0 60 60" width="60" xmlns="http://www.w3.org/2000/svg"><g id="Page-1" fill="none" fill-rule="evenodd"><g id="013---Full-Moon-and-Clouds" fill-rule="nonzero" transform="translate(0 -1)"><path id="Shape" d="m50 26.5c.0008897 1.9886325-.2408973 3.9699428-.72 5.9-2.0860666-2.7701614-5.3522244-4.3995372-8.82-4.4-2.9721944.0211339-5.814099 1.22283-7.8998075 3.3404243-2.0857085 2.1175944-3.2441519 4.9774028-3.2201925 7.9495757-.0019586.0568543.0013892.1137674.01.17-4.8737294.9432198-8.3831295 5.2259487-8.35 10.19 0 .32.01.63.04.94-1.9539902-.3530486-3.8556592-.9511-5.66-1.78-.12-.06-.25-.11-.37-.17-10.0096901-4.7481557-15.5874443-15.6227054-13.60384113-26.5224392s11.03489723-19.11199588 22.07561733-20.0292635c11.04072-.91726763 21.3231223 5.68874287 25.0782238 16.1117027.8643475 2.3991489 1.3403315 4.9208514 1.41 7.47.02.27.03.55.03.83z" fill="#e8edfc"/><path id="Shape" d="m38.972 28.113c-.5007791-.0725986-1.0059928-.110356-1.512-.113-2.9721944.0211339-5.814099 1.22283-7.8998075 3.3404243-2.0857085 2.1175944-3.2441519 4.9774028-3.2201925 7.9495757-.0019586.0568543.0013892.1137674.01.17-4.8737294.9432198-8.3831295 5.2259487-8.35 10.19 0 .061.007.118.008.178.9929714.3198365 2.0058001.5743799 3.032.762-.03-.31-.04-.62-.04-.94-.0331295-4.9640513 3.4762706-9.2467802 8.35-10.19-.0086108-.0562326-.0119586-.1131457-.01-.17-.0332078-5.6090546 4.0795429-10.3815021 9.632-11.177z" fill="#cad9fc"/><path id="Shape" d="m49.97 25.67c-.0696685-2.5491486-.5456525-5.0708511-1.41-7.47-3.5041036-9.72043373-12.7272572-16.19983914-23.06-16.2-.478 0-.948.036-1.42.063 9.7328097.62649995 18.1681196 6.9635854 21.48 16.137.8643475 2.3991489 1.3403315 4.9208514 1.41 7.47.02.27.03.55.03.83-.0029905 1.1642964-.0888743 2.3269024-.257 3.479.968083.668117 1.8243392 1.4852224 2.537 2.421.4791027-1.9300572.7208897-3.9113675.72-5.9 0-.28-.01-.56-.03-.83z" fill="#cad9fc"/><path id="Shape" d="m22 19h8v1c0 2.209139-1.790861 4-4 4s-4-1.790861-4-4z" fill="#a4c2f7"/><circle id="Oval" cx="20" cy="32" fill="#a4c2f7" r="4"/><circle id="Oval" cx="11" cy="37" fill="#a4c2f7" r="2"/><path id="Shape" d="m59 51.53c.0343766 4.6413365-3.6986869 8.4325893-8.34 8.47h-19.46c-5.313328-.0302124-9.7232179-4.114569-10.16-9.41-.03-.31-.04-.62-.04-.94-.0331295-4.9640513 3.4762706-9.2467802 8.35-10.19-.0086108-.0562326-.0119586-.1131457-.01-.17-.0239594-2.9721729 1.134484-5.8319813 3.2201925-7.9495757 2.0857085-2.1175943 4.9276131-3.3192904 7.8998075-3.3404243 3.4677756.0004628 6.7339334 1.6298386 8.82 4.4 1.5036929 1.9817562 2.3152404 4.4023459 2.31 6.89-.0001363 1.2869504-.2164805 2.5647335-.64 3.78 4.5253035.1885726 8.0862789 3.9309146 8.05 8.46z" fill="#e8edfc"/><path id="Shape" d="m50.95 43.07c.4235195-1.2152665.6398637-2.4930496.64-3.78.0052404-2.4876541-.8063071-4.9082438-2.31-6.89-2.0860666-2.7701614-5.3522244-4.3995372-8.82-4.4-.497999.0036297-.9951639.0413848-1.488.113 2.9086604.4017685 5.5379936 1.9441811 7.308 4.287 1.5036929 1.9817562 2.3152404 4.4023459 2.31 6.89-.0001363 1.2869504-.2164805 2.5647335-.64 3.78 4.5620429.2312497 8.1191473 4.0379893 8.0409136 8.6052194-.0782337 4.5672302-3.7636271 8.2499104-8.3309136 8.3247806h3c4.5672865-.0748702 8.2526799-3.7575504 8.3309136-8.3247806.0782337-4.5672301-3.4788707-8.3739697-8.0409136-8.6052194z" fill="#cad9fc"/><path id="Shape" d="m21 49.65c0 .32.01.63.04.94-1.9539902-.3530486-3.8556592-.9511-5.66-1.78-.12-.06-.25-.11-.37-.17-.128751-1.6851849.4391852-3.3494448 1.571261-4.6043669s2.72924-1.9907068 4.418739-2.0356331c.93176-.0012921 1.8492428.2289376 2.67.67-1.7254084 1.9146777-2.6770933 4.4026031-2.67 6.98z" fill="#a4c2f7"/><path id="Shape" d="m23.67 42.67c-.8207572-.4410624-1.73824-.6712921-2.67-.67-.5069481.002446-1.0113373.0720517-1.5.207.4068207.1098116.7999687.2651252 1.172.463-1.7261345 1.914379-2.6785449 4.4023374-2.672 6.98 0 .061.007.118.008.178.9929714.3198365 2.0058001.5743799 3.032.762-.03-.31-.04-.62-.04-.94-.0070933-2.5773969.9445916-5.0653223 2.67-6.98z" fill="#7facfa"/><path id="Shape" d="m50 26.5v.1c-1.8685797.8110358-4.0422428.4092078-5.4973781-1.0162572-1.4551353-1.4254649-1.9016511-3.59039-1.1292763-5.4752789.7723749-1.8848889 2.6096618-3.1139754 4.6466544-3.1084639h.07c.17.4.32.8.47 1.2.8643475 2.3991489 1.3403315 4.9208514 1.41 7.47.02.27.03.55.03.83z" fill="#a4c2f7"/><path id="Shape" d="m49.97 25.67c-.0696685-2.5491486-.5456525-5.0708511-1.41-7.47-.15-.4-.3-.8-.47-1.2h-.07c-.9309789.0033577-1.8425308.2665718-2.632.76.056.147.117.293.172.44.8643475 2.3991489 1.3403315 4.9208514 1.41 7.47.02.27.03.55.03.83v.1c-.1559817.0575872-.3148648.1069878-.476.148.4841085.1604657.9900318.2454609 1.5.252.6788897.0011655 1.3510119-.1348916 1.976-.4v-.1c0-.28-.01-.56-.03-.83z" fill="#7facfa"/><path id="Shape" d="m9 26c.01065154 1.3154866-.50173029 2.581321-1.42441847 3.5190122-.92268818.9376913-2.18009428 1.4704218-3.49558153 1.4809878-1.00991072.0051688-1.99484046-.3137943-2.81-.91-.03-.16-.05-.33-.07-.49-.13261747-1.0280196-.1994202-2.0634619-.2-3.1-.00115065-1.5883798.15629697-3.1729059.47-4.73.77714445-.503854 1.68381397-.7713389 2.61-.77 1.31548725.010566 2.57289335.5432965 3.49558153 1.4809878.92268818.9376912 1.43507001 2.2035256 1.42441847 3.5190122z" fill="#a4c2f7"/><path id="Shape" d="m21.04 50.59c.4367821 5.295431 4.846672 9.3797876 10.16 9.41h3c-5.313328-.0302124-9.7232179-4.114569-10.16-9.41-12.1980322-2.2527946-20.78428269-13.271606-19.98763943-25.6503148.79664327-12.3787089 10.72446593-22.20602989 23.11063943-22.8766852-.55-.037-1.103-.063-1.663-.063-12.6619842.00175423-23.23668714 9.6516173-24.39404563 22.260597-1.15735849 12.6089796 7.48395566 24.0226508 19.93404563 26.329403z" fill="#fff"/><path id="Shape" d="m6.42 9.607 1.5 1.326c-1.69998855 1.9177529-3.07907926 4.0974861-4.084 6.455l-1.843-.776c1.08818616-2.558491 2.58317065-4.9240583 4.427-7.005z" fill="#fff"/><g fill="#428dff"><path id="Shape" d="m4.781 14.455c-.55228474.0027614-1.00223854-.4427153-1.00499996-.995-.00276143-.5522847.44271522-1.0022386.99499996-1.005h.01c.55228475 0 1 .4477153 1 1s-.44771525 1-1 1z"/><path id="Shape" d="m40.435 12.565c.4043959-.0000863.7689341-.2437275.923678-.6173454.1547439-.373618.0692299-.8036603-.216678-1.0896546-6.9655859-6.90787051-17.6337481-8.43781333-26.26-3.766-.3167702.16958518-.5182088.49607885-.5276761.85526244-.0094672.3591836.1744924.69583548.4818892.88187228.3073968.18603679.6909709.1928568 1.0047869.01786528 7.8469155-4.24799718 17.5498763-2.85675338 23.887 3.425.1870531.1882061.4416514.2937185.707.293z"/><path id="Shape" d="m11.341 9.5c-.513.43-1.012.886-1.483 1.356-.25995658.2510745-.3642126.6228779-.27269716.9725073.09151544.3496295.3645604.6226744.71418986.7141899.3496294.0915154.7214328-.0127406.9725073-.2726972.429-.428.884-.844 1.352-1.234.4241547-.3542907.4807907-.9853453.1265-1.4095-.3542907-.42415469-.9853453-.48079067-1.4095-.1265z"/><path id="Shape" d="m14 14c0 1.6568542 1.3431458 3 3 3s3-1.3431458 3-3c0-.5522847-.4477153-1-1-1s-1 .4477153-1 1-.4477153 1-1 1-1-.4477153-1-1-.4477153-1-1-1-1 .4477153-1 1z"/><path id="Shape" d="m36 14c0 .5522847-.4477153 1-1 1s-1-.4477153-1-1-.4477153-1-1-1-1 .4477153-1 1c0 1.6568542 1.3431458 3 3 3s3-1.3431458 3-3c0-.5522847-.4477153-1-1-1s-1 .4477153-1 1z"/><path id="Shape" d="m31 20v-1c0-.5522847-.4477153-1-1-1h-8c-.5522847 0-1 .4477153-1 1v1c0 2.7614237 2.2385763 5 5 5s5-2.2385763 5-5zm-8 0h6c0 1.6568542-1.3431458 3-3 3s-3-1.3431458-3-3z"/><path id="Shape" d="m15 32c0 2.7614237 2.2385763 5 5 5s5-2.2385763 5-5-2.2385763-5-5-5c-2.7600532.0033061-4.9966939 2.2399468-5 5zm8 0c0 1.6568542-1.3431458 3-3 3s-3-1.3431458-3-3 1.3431458-3 3-3 3 1.3431458 3 3z"/><path id="Shape" d="m8 37c0 1.6568542 1.34314575 3 3 3 1.6568542 0 3-1.3431458 3-3s-1.3431458-3-3-3c-1.65685425 0-3 1.3431458-3 3zm4 0c0 .5522847-.4477153 1-1 1s-1-.4477153-1-1 .4477153-1 1-1 1 .4477153 1 1z"/><path id="Shape" d="m52.246 42.2c.8288855-3.4515927.1370312-7.0929315-1.9-10 2.6159651-11.3600001-2.810482-23.04670101-13.1769469-28.37861246-10.366465-5.33191145-23.0293458-2.94931707-30.7490531 5.78561246-.18516941.19544091-.2805783.4591701-.2633117.7278459.0172666.2686759.14564861.518023.3543117.6881541.41975167.3422071 1.0323413.3029665 1.405-.09 5.1904004-5.87780129 12.973443-8.77502184 20.7438781-7.72186314s14.5015165 5.91753756 17.9401219 12.96486314c-3.1337636.7527369-5.1113341 3.8487573-4.4766847 7.0085528.6346495 3.1597955 3.6543055 5.2521157 6.8356847 4.7364472-.0507828.7921259-.1419009 1.5811492-.273 2.364-2.2203807-2.1057649-5.162882-3.2812625-8.223-3.285-6.4935967.0507699-11.812186 5.1738551-12.106 11.661-1.8563179.4906751-3.5531618 1.4555741-4.924 2.8-1.9824249-.7383476-4.1931296-.5342994-6.0069145.5544385-1.8137848 1.0887379-3.0334567 2.943799-3.3140855 5.0405615-5.83782618-3.2072649-10.02313566-8.7604986-11.498-15.256 1.7823759.4544327 3.6747233.054995 5.12138568-1.0810247 1.44666239-1.1360198 2.28343532-2.8796769 2.26461432-4.7189753.0182974-3.2900741-2.62997671-5.9741357-5.92-6-.39796256.0045053-.79439701.0500802-1.183.136.25436304-.9346306.56697415-1.8524248.936-2.748.21428648-.5092065-.02479346-1.0957135-.534-1.31s-1.09571352.0247935-1.31.534c-2.83524782 6.756587-2.62860929 14.4060451.5672754 20.9997102 3.19588469 6.593665 9.0724706 11.4949553 16.1327246 13.4552898.4950112.0888444.9842285.2073919 1.465.355.8236625 5.4757087 5.5088326 9.5382253 11.046 9.578h19.459c4.8682768-.0778908 8.8861748-3.830641 9.2957258-8.6822855.4095511-4.8516445-2.9223968-9.2248312-7.7087258-10.1177145zm-44.246-16.2c.01943673 2.1859784-1.73407504 3.9752761-3.92 4-.6625598.0000595-1.31318479-.1763168-1.885-.511-.30756873-2.3520035-.25056542-4.7373729.169-7.072 1.22408777-.5993328 2.67177551-.5189214 3.82195854.2122897 1.15018304.7312111 1.83730864 2.0079743 1.81404146 3.3707103zm36-4c.0090655-1.9796903 1.4649191-3.6549424 3.424-3.94.9607799 2.4513158 1.4850256 5.0518992 1.549 7.684 0 .043 0 .088.005.132-1.195046.2988973-2.4611591.0313597-3.4331294-.7254416-.9719703-.7568014-1.5417073-1.9187043-1.5448706-3.1505584zm-21.963 21.122c-1.267117 1.8337442-1.9709443 3.9977089-2.025 6.226-1.3729231-.3246205-2.7121825-.7779598-4-1.354.0231295-1.496134.7090708-2.9048419 1.8725803-3.8456914 1.1635094-.9408494 2.6845744-1.3167946 4.1524197-1.0263086zm28.622 15.878h-19.459c-5.1211292-.0472952-9.2371697-4.2317873-9.2-9.353 0-6.7 7.212-11.467 13.3-8.371.4899383.2363237 1.0789165.0376851 1.325657-.4470907s.0607348-1.0778646-.418657-1.3349093c-1.7981437-.909707-3.8103368-1.3117999-5.82-1.163.3104085-3.8708828 2.8040752-7.2245996 6.4216459-8.6364317 3.6175706-1.411832 7.7237254-.6338325 10.5740963 2.0034905 2.850371 2.6373231 3.9443743 6.6708013 2.8172578 10.3869412-1.2980927.0554651-2.5692583.3882596-3.728.976-.3263766.157429-.5420528.4791008-.563752.8408116-.0216991.3617109.1539743.7068598.4591895.9021782.3052152.1953185.6922116.2102427 1.0115625.0390102 2.7484452-1.3024106 6.0129569-.800041 8.2426607 1.2684476s2.9752063 5.2861956 1.8823409 8.124482c-1.0928653 2.8382863-3.8038331 4.7250999-6.8450016 4.7640704z"/><path id="Shape" d="m41.463 32c0-.5522847-.4477153-1-1-1-2.2423362.0099952-4.3795722.951828-5.9 2.6-.3752775.405377-.350877 1.0382225.0545 1.4135.405377.3752774 1.0382225.350877 1.4135-.0545 1.1352589-1.2483842 2.7446129-1.959739 4.432-1.959.2652165 0 .5195704-.1053568.7071068-.2928932s.2928932-.4418903.2928932-.7071068z"/><path id="Shape" d="m32 47c0-.5522847-.4477153-1-1-1s-1 .4477153-1 1-.4477153 1-1 1-1-.4477153-1-1-.4477153-1-1-1-1 .4477153-1 1c0 1.6568542 1.3431458 3 3 3s3-1.3431458 3-3z"/><path id="Shape" d="m41 46c-.5522847 0-1 .4477153-1 1s-.4477153 1-1 1-1-.4477153-1-1-.4477153-1-1-1-1 .4477153-1 1c0 1.6568542 1.3431458 3 3 3s3-1.3431458 3-3c0-.5522847-.4477153-1-1-1z"/><path id="Shape" d="m36 51c-.5522847 0-1 .4477153-1 1s-.4477153 1-1 1-1-.4477153-1-1-.4477153-1-1-1-1 .4477153-1 1c0 1.6568542 1.3431458 3 3 3s3-1.3431458 3-3c0-.5522847-.4477153-1-1-1z"/><path id="Shape" d="m53 4c-.5522847 0-1 .44771525-1 1v1c0 .55228475.4477153 1 1 1s1-.44771525 1-1v-1c0-.55228475-.4477153-1-1-1z"/><path id="Shape" d="m55 9h1c.5522847 0 1-.44771525 1-1s-.4477153-1-1-1h-1c-.5522847 0-1 .44771525-1 1s.4477153 1 1 1z"/><path id="Shape" d="m52 11c0 .5522847.4477153 1 1 1s1-.4477153 1-1v-1c0-.55228475-.4477153-1-1-1s-1 .44771525-1 1z"/><path id="Shape" d="m51 7h-1c-.5522847 0-1 .44771525-1 1s.4477153 1 1 1h1c.5522847 0 1-.44771525 1-1s-.4477153-1-1-1z"/><path id="Shape" d="m8 50c-.55228475 0-1 .4477153-1 1v1c0 .5522847.44771525 1 1 1s1-.4477153 1-1v-1c0-.5522847-.44771525-1-1-1z"/><path id="Shape" d="m10 55h1c.5522847 0 1-.4477153 1-1s-.4477153-1-1-1h-1c-.55228475 0-1 .4477153-1 1s.44771525 1 1 1z"/><path id="Shape" d="m7 57c0 .5522847.44771525 1 1 1s1-.4477153 1-1v-1c0-.5522847-.44771525-1-1-1s-1 .4477153-1 1z"/><path id="Shape" d="m6 53h-1c-.55228475 0-1 .4477153-1 1s.44771525 1 1 1h1c.55228475 0 1-.4477153 1-1s-.44771525-1-1-1z"/></g></g></g></svg>