<svg height="60" viewBox="0 0 60 60" width="60" xmlns="http://www.w3.org/2000/svg"><g id="Page-1" fill="none" fill-rule="evenodd"><g id="014---Hail" fill-rule="nonzero"><path id="Shape" d="m8.56 30.89c-1.02295352 2.7602694-.62924494 5.8465305 1.05391512 8.261586 1.68316008 2.4150555 4.44236228 3.8526984 7.38608488 3.848414h29c6.5341907.0020691 12.0545686-4.8463342 12.8959036-11.3261341.841335-6.4798-3.2578432-12.5772031-9.5759036-14.2438659 1.5306136-3.7142409.4142979-7.99312837-2.735746-10.48623614-3.150044-2.49310777-7.5709395-2.5966556-10.834254-.25376386-3.6250275-4.57607937-9.5757596-6.63323921-15.2529862-5.27293623-5.6772267 1.36030299-10.0494811 5.89092219-11.2070138 11.61293623-4.54729743.3513387-8.11292697 4.0486572-8.29918917 8.6057022s3.06573315 8.5330235 7.56918917 9.2542978z" fill="#e8edfc"/><path id="Shape" d="m49.32 17.43c1.2544864-3.0281938.7616487-6.4991324-1.2862039-9.0584279-2.0478526-2.55929555-5.3261965-3.80137614-8.5557961-3.2415721 2.7042512.44710637 5.0567428 2.10361398 6.3891616 4.49892994s1.4991541 5.26767276.4528384 7.80107006c6.3180604 1.6666628 10.4172386 7.7640659 9.5759036 14.2438659-.841335 6.4797999-6.3617129 11.3282032-12.8959036 11.3261341h3c6.5341907.0020691 12.0545686-4.8463342 12.8959036-11.3261341.841335-6.4798-3.2578432-12.5772031-9.5759036-14.2438659z" fill="#cad9fc"/><path id="Shape" d="m49.12 30.33c-.0810272.2140079-.1217135.4411729-.12.67.0006063 1.066726.8382948 1.9452308 1.9037859 1.9965476 1.0654911.0513169 1.9837287-.7426177 2.0868471-1.8043481s-.6451804-2.017524-1.700633-2.1721995z" fill="#a4c2f7"/><path id="Shape" d="m36.71 29.02c-1.0554526.1546755-1.8037514 1.1104691-1.700633 2.1721995s1.021356 1.855665 2.0868471 1.8043481c1.0654911-.0513168 1.9031796-.9298216 1.9037859-1.9965476.0017135-.2288271-.0389728-.4559921-.12-.67z" fill="#a4c2f7"/><circle id="Oval" cx="38" cy="55" fill="#a4c2f7" r="4"/><path id="Shape" d="m38 51c-.5146843.0021695-1.0240724.1040471-1.5.3 1.5110147.6085107 2.5007405 2.0740584 2.5007405 3.703s-.9897258 3.0944893-2.5007405 3.703c1.496414.6077595 3.211506.2559465 4.3478056-.8918556s1.4708211-2.8663504.8480212-4.3565675c-.6227999-1.490217-2.0807039-2.4596648-3.6958268-2.4575769z" fill="#7facfa"/><circle id="Oval" cx="50" cy="50" fill="#a4c2f7" r="3"/><path id="Shape" d="m50 47c-.5281059.0027453-1.0459153.1463511-1.5.416.9273539.5298262 1.4996803 1.5159639 1.4996803 2.584s-.5723264 2.0541738-1.4996803 2.584c.4540847.2696489.9718941.4132547 1.5.416 1.6568542-.0000001 2.9999999-1.3431458 2.9999999-3s-1.3431457-2.9999999-2.9999999-3z" fill="#7facfa"/><circle id="Oval" cx="13" cy="56" fill="#e8edfc" r="3"/><path id="Shape" d="m13 53c-.5281059.0027453-1.0459153.1463511-1.5.416.9273539.5298262 1.4996803 1.5159639 1.4996803 2.584s-.5723264 2.0541738-1.4996803 2.584c.4540847.2696489.9718941.4132547 1.5.416 1.6568542 0 3-1.3431458 3-3s-1.3431458-3-3-3z" fill="#a4c2f7"/><circle id="Oval" cx="25" cy="51" fill="#a4c2f7" r="4"/><path id="Shape" d="m25 47c-.5146843.0021695-1.0240724.1040471-1.5.3 1.5110147.6085107 2.5007405 2.0740584 2.5007405 3.703s-.9897258 3.0944893-2.5007405 3.703c1.496414.6077595 3.211506.2559465 4.3478056-.8918556s1.4708211-2.8663504.8480212-4.3565675c-.6227999-1.490217-2.0807039-2.4596648-3.6958268-2.4575769z" fill="#7facfa"/><path id="Shape" d="m8.56 30.89c-1.01641119 2.7601869-.61990572 5.8428792 1.06191384 8.2560113s4.43670546 3.8521637 7.37808616 3.8539887h3c-2.9413807-.001825-5.6962666-1.4408566-7.3780862-3.8539887-1.6818195-2.4131321-2.078325-5.4958244-1.0619138-8.2560113-4.50345602-.7212743-7.75545137-4.6972528-7.56918917-9.2542978s3.75189174-8.2543635 8.29918917-8.6057022c1.2867277-6.5026242 6.7145134-11.37328541 13.318-11.951-7.7110602-.83421669-14.7864462 4.34766454-16.318 11.951-4.54729743.3513387-8.11292697 4.0486572-8.29918917 8.6057022s3.06573315 8.5330235 7.56918917 9.2542978z" fill="#fff"/><path id="Shape" d="m12.49 53.051c-.3471542.0688013-.6812681.1919847-.99.365-1.0903533.6294191-1.66920468 1.8747561-1.4474609 3.1140576.2217439 1.2393016 1.1965043 2.2066563 2.4374609 2.4189424.6881468.1235421 1.3977807-.0038372 2-.359-.9227729-.5352289-1.4903509-1.5216808-1.48932-2.5884417.0010308-1.0667608.5705144-2.0521139 1.49432-2.5855583-.6030634-.3578327-1.3145218-.48735-2.005-.365z" fill="#fff"/><path id="Shape" d="m12.116 5.307 1.484 1.339c-.8318779.92760259-1.5404106 1.95880679-2.108 3.068-.549103 1.1176656-.9601254 2.2980117-1.224 3.515l-1.96-.4c.29940974-1.3921998.76963648-2.7420864 1.4-4.019.6480476-1.26674094 1.4574482-2.44420372 2.408-3.503z" fill="#fff"/><g fill="#428dff"><path id="Shape" d="m10.622 10.254c-.5522847.0030376-1.00246242-.44221526-1.00549999-.9945-.00303756-.55228474.44221529-1.00246243.99449999-1.0055h.011c.5522847 0 1 .44771525 1 1s-.4477153 1-1 1z"/><path id="Shape" d="m50.608 16.777c1.1378142-3.931043-.2344216-8.15864607-3.4640412-10.67206557s-7.6647563-2.8053467-11.1959588-.73693443c-3.0243665-3.42567385-7.3783345-5.38182554-11.948-5.368-2.2419425.01182932-4.4573784.48569024-6.508 1.392-2.0463531.91418887-3.8778869 2.24797883-5.376 3.915-.1888126.19831263-.2855316.46688129-.2665094.74004104.0190223.27315975.1520324.52573056.3665094.69595896.41824.32807672 1.017268.28479435 1.384-.1 2.6558946-2.94626347 6.433372-4.6326892 10.4-4.643 4.2776959-.01301672 8.3227473 1.94587272 10.965 5.31.008.009.02.014.028.023.7618584.96298918 1.39362 2.02208922 1.879 3.15.1261307.3484076.4345731.5985117.8015246.6499257s.7322523-.1042913.949278-.4046188c.2170258-.3003275.2501962-.6960402.0861974-1.0283069-.4096768-.9552042-.9120834-1.86790947-1.5-2.725 1.1622302-.63695622 2.4656757-.97218686 3.791-.975 2.5225263.00020941 4.8971986 1.1901483 6.4073424 3.21069396 1.5101438 2.02054564 1.9788479 4.63499384 1.2646576 7.05430604-.183-.034-.365-.081-.547-.108-.3570659-.0603654-.7188672.0770285-.9458589.3591895s-.2837005.6649943-.1482543 1.000843c.1354463.3358488.4418808.572228.8011132.6179675 6.214886.9399773 10.6513513 6.5164084 10.1702543 12.7835378-.4810971 6.2671295-5.7167169 11.1010816-12.0022543 11.0814622h-29c-4.4162219-.0049599-7.99504012-3.5837781-8-8 .00052403-.6888733.09129645-1.3747093.27-2.04.242.018.483.04.73.04 1.0749565.0009161 2.1430178-.171635 3.163-.511.3394023-.1128959.5927937-.398285.6647242-.748664.0719304-.350379-.0485282-.712517-.3160001-.95-.2674719-.2374831-.6413218-.3142319-.9807241-.201336-3.43136622 1.1412288-7.20165421-.161291-9.19684523-3.1772304-1.99519102-3.0159393-1.71913387-6.9953139.67338486-9.7068691 2.39251874-2.7115552 6.30654297-3.480999 9.54746037-1.8769005.3203279.1621467.7029956.1401275 1.0026105-.0576916.299615-.1978191.4701885-.5410743.446912-.8993475s-.2368302-.6765722-.5595225-.8339609c-3.1013903-1.5271812-6.77098932-1.3476188-9.70846288.4750587-2.93747356 1.8226774-4.72778705 5.0309444-4.73653712 8.4879413-.01979386 4.4866063 2.96438017 8.4319244 7.287 9.634-.190983.7741607-.28735351 1.5686298-.287 2.366.00606237 5.5203344 4.4796656 9.9939376 10 10h29c6.8336977.004319 12.6719872-4.9256182 13.8124946-11.6634728 1.1405075-6.7378547-2.7500645-13.314583-9.2044946-15.5595272z"/><path id="Shape" d="m17.158 18.422c.1607695.3193954.4797221.5287595.8367114.5492267.3569894.0204673.6977802-.1510718.8940001-.45.1962198-.2989282.218058-.6798313.0572885-.9992267-.3668884-.7303351-.8212227-1.4133477-1.353-2.034-.3630639-.4028044-.9810163-.4428339-1.3930134-.090236-.411997.3525978-.4678857.9693182-.1259866 1.390236.4264322.4985618.7904541 1.0472811 1.084 1.634z"/><path id="Shape" d="m34 31c-.0043032 1.4646962 1.0523895 2.7171808 2.4969008 2.9595451 1.4445113.2423644 2.8521222-.5966521 3.3260992-1.9825451.0582493.0126245.1174587.0203184.177.023.4494307.0003074.8438561-.2992511.9641796-.7322756.1203235-.4330246-.0630173-.8931255-.4481796-1.1247244l-5-3c-.3065026-.1918041-.6926712-.2032165-1.0099658-.0298476-.3172946.173369-.5162906.5045139-.5204443.8660598-.0041536.3615458.1871822.6971751.5004101.8777878l.27.162c-.4847351.5462955-.7535374 1.2506571-.756 1.981zm3.993-.038c0 .014.007.024.007.038.0041542.4958882-.3557424.9199141-.8457127.9964086-.4899704.0764945-.9619886-.2176523-1.1091848-.6912086-.1471961-.4735564.0748996-.9834555.5218975-1.1982z"/><path id="Shape" d="m53.857 27.485c-.2844846-.4732297-.8986776-.6263303-1.372-.342l-5 3c-.385003.2315033-.5683703.6913367-.448313 1.1242424s.514068.7326155.963313.7327576c.0592061-.0027374.1180787-.010431.176-.023.3936685 1.1449448 1.4385556 1.9397863 2.6470367 2.0135902 1.2084811.0738038 2.3423266-.5879789 2.872397-1.6765096.5300704-1.0885306.3518721-2.3892256-.4514337-3.2950806l.27-.162c.2274248-.1364524.3913287-.357661.4556538-.6149615.0643252-.2573006.0238023-.5296159-.1126538-.7570385zm-1.857 3.515c0 .5522847-.4477153 1-1 1s-1-.4477153-1-1c0-.014.006-.024.007-.038l1.426-.855c.3438522.1651587.5637916.5115536.567.893z"/><path id="Shape" d="m41 39c.5522847 0 1-.4477153 1-1 0-1.1045695.8954305-2 2-2s2 .8954305 2 2c0 .5522847.4477153 1 1 1s1-.4477153 1-1c0-2.209139-1.790861-4-4-4s-4 1.790861-4 4c0 .5522847.4477153 1 1 1z"/><path id="Shape" d="m44 21c.5522847 0 1-.4477153 1-1s-.4477153-1-1-1-1-.4477153-1-1-.4477153-1-1-1-1 .4477153-1 1c0 1.6568542 1.3431458 3 3 3z"/><path id="Shape" d="m37 21c1.6568542 0 3-1.3431458 3-3 0-.5522847-.4477153-1-1-1s-1 .4477153-1 1-.4477153 1-1 1-1 .4477153-1 1 .4477153 1 1 1z"/><path id="Shape" d="m42 26c.5522847 0 1-.4477153 1-1s.4477153-1 1-1 1-.4477153 1-1-.4477153-1-1-1c-1.6568542 0-3 1.3431458-3 3 0 .2652165.1053568.5195704.2928932.7071068s.4418903.2928932.7071068.2928932z"/><path id="Shape" d="m37 24c.5522847 0 1 .4477153 1 1s.4477153 1 1 1 1-.4477153 1-1c0-1.6568542-1.3431458-3-3-3-.5522847 0-1 .4477153-1 1s.4477153 1 1 1z"/><path id="Shape" d="m15 39c0 .5522847.4477153 1 1 1h1c.5522847 0 1-.4477153 1-1s-.4477153-1-1-1h-1c-.5522847 0-1 .4477153-1 1z"/><path id="Shape" d="m31 40c.5522847 0 1-.4477153 1-1s-.4477153-1-1-1h-10c-.5522847 0-1 .4477153-1 1s.4477153 1 1 1z"/><path id="Shape" d="m38 60c2.7614237 0 5-2.2385763 5-5s-2.2385763-5-5-5-5 2.2385763-5 5c.0033061 2.7600532 2.2399468 4.9966939 5 5zm0-8c1.6568542 0 3 1.3431458 3 3s-1.3431458 3-3 3-3-1.3431458-3-3 1.3431458-3 3-3z"/><path id="Shape" d="m54 50c0-2.209139-1.790861-4-4-4s-4 1.790861-4 4 1.790861 4 4 4 4-1.790861 4-4zm-6 0c0-1.1045695.8954305-2 2-2s2 .8954305 2 2-.8954305 2-2 2-2-.8954305-2-2z"/><path id="Shape" d="m17 56c0-2.209139-1.790861-4-4-4s-4 1.790861-4 4 1.790861 4 4 4 4-1.790861 4-4zm-6 0c0-1.1045695.8954305-2 2-2s2 .8954305 2 2-.8954305 2-2 2-2-.8954305-2-2z"/><path id="Shape" d="m30 51c0-2.7614237-2.2385763-5-5-5s-5 2.2385763-5 5 2.2385763 5 5 5c2.7600532-.0033061 4.9966939-2.2399468 5-5zm-8 0c0-1.6568542 1.3431458-3 3-3s3 1.3431458 3 3-1.3431458 3-3 3-3-1.3431458-3-3z"/></g></g></g></svg>