<svg height="512" viewBox="0 0 60 60" width="512" xmlns="http://www.w3.org/2000/svg"><g id="Page-1" fill="none" fill-rule="evenodd"><g id="015---Sunrise" fill-rule="nonzero"><path id="Shape" d="m53.77 35.68c-.258087.2511338-.3612169.6216372-.27.97l1.77 7.11c.1309456.5309209-.1766638 1.0714346-.7 1.23l-.81.23c-5.25-4.98-13.93-8.22-23.76-8.22s-18.5 3.24-23.75 8.21l-.75-.22c-.53026495-.1560281-.84038309-.7053802-.7-1.24l1.83-6.8c.08989496-.3434656-.00906155-.7088435-.26-.96l-5.09-5.29c-.36981757-.3933997-.36981757-1.0066003 0-1.4l5.09-5.29c.25093845-.2511565.34989496-.6165344.26-.96l-1.83-6.8c-.14038309-.5346198.16973505-1.0839719.7-1.24l7.03-2.01c.3420338-.1029801.6066936-.3752016.7-.72l1.83-6.8c.0659011-.25750666.2316107-.47818129.4605245-.61327795s.5021944-.17349825.7594755-.10672205l7.1 1.76c.3434656.08989496.7088435-.00906155.96-.26l4.96-4.96c.4005652-.40002296 1.0494348-.40002296 1.45 0l4.96 4.96c.2511565.25093845.6165344.34989496.96.26l7.11-1.76c.5318913-.13810415 1.0770936.17217358 1.23.7l2.02 7.05c.1021039.3389655.3696204.6027142.71.7l6.81 1.82c.5306826.1447142.8498227.6854794.72 1.22l-1.77 7.1c-.0912169.3483628.011913.7188662.27.97l4.96 4.96c.390213.4006947.390213 1.0393053 0 1.44z" fill="#a4c2f7"/><path id="Shape" d="m58.73 30.72c.390213-.4006947.390213-1.0393053 0-1.44l-4.96-4.96c-.258087-.2511338-.3612169-.6216372-.27-.97l1.77-7.1c.1298227-.5345206-.1893174-1.0752858-.72-1.22l-6.81-1.82c-.3403796-.0972858-.6078961-.3610345-.71-.7l-2.02-7.05c-.1529064-.52782642-.6981087-.83810415-1.23-.7l-1.89.468c.0503614.07151815.0907334.14957075.12.232l2.02 7.05c.1021039.3389655.3696204.6027142.71.7l6.81 1.82c.5306826.1447142.8498227.6854794.72 1.22l-1.77 7.1c-.0912169.3483628.011913.7188662.27.97l4.96 4.96c.390213.4006947.390213 1.0393053 0 1.44l-4.96 4.96c-.258087.2511338-.3612169.6216372-.27.97l1.77 7.11c.0084818.061613.0114936.1238559.009.186.516.412 1.017.833 1.481 1.274l.81-.23c.5233362-.1585654.8309456-.6990791.7-1.23l-1.77-7.11c-.0912169-.3483628.011913-.7188662.27-.97z" fill="#7facfa"/><path id="Shape" d="m51.03 30c.0060024 3.921042-1.0926176 7.7644792-3.17 11.09-.67-.35-1.36-.68-2.07-.99-4.9996635-2.0900878-10.3712265-3.1446695-15.79-3.1-5.4165945-.0454384-10.7857008 1.0127314-15.78 3.11-.7.29-1.38.61-2.03.95-2.0740376-3.31544-3.16942214-7.1492858-3.16-11.06-.00387521-11.2248622 8.8265013-20.46503162 20.04-20.97.31-.02.62-.03.93-.03s.62.01.93.03c11.2362008.47582852 20.1004255 9.7237286 20.1 20.97z" fill="#cad9fc"/><path id="Shape" d="m48 30c.009562 3.4876397-.7447748 6.9350612-2.21 10.1-4.9996635-2.0900878-10.3712265-3.1446695-15.79-3.1-5.4165945-.0454384-10.7857008 1.0127314-15.78 3.11-1.4742359-3.1658182-2.2322326-6.6177762-2.22-10.11 0-11.24 7.56-20.41 17.07-20.97.31-.02.62-.03.93-.03s.62.01.93.03c9.51.56 17.07 9.73 17.07 20.97z" fill="#e8edfc"/><path id="Shape" d="m33.025 23h-6v1c0 1.6568542 1.3431458 3 3 3s3-1.3431458 3-3z" fill="#a4c2f7"/><path id="Shape" d="m59 56.25v1.83c-.0232614.5296498-.470251.9408802-1 .92h-56c-.52974901.0208802-.97673855-.3903502-1-.92v-1.83c0-4.11 1.94-7.92 5.25-11.04 1.77873754-1.651147 3.7777596-3.0477702 5.94-4.15 5.5326533-2.7410646 11.6359862-4.1323915 17.81-4.06 6.1941038-.0785029 12.3173559 1.3237424 17.86 4.09 2.1512734 1.0920716 4.1375506 2.4824656 5.9 4.13 3.3 3.11 5.24 6.93 5.24 11.03z" fill="#e8edfc"/><path id="Shape" d="m53.76 45.22c-1.7624494-1.6475344-3.7487266-3.0379284-5.9-4.13-5.5426441-2.7662576-11.6658962-4.1685029-17.86-4.09-.5 0-1 .025-1.5.042 5.6857861.1213807 11.273649 1.5040011 16.36 4.048 2.1512734 1.0920716 4.1375506 2.4824656 5.9 4.13 3.3 3.11 5.24 6.93 5.24 11.03v1.83c-.0232614.5296498-.470251.9408802-1 .92h3c.529749.0208802.9767386-.3903502 1-.92v-1.83c0-4.1-1.94-7.92-5.24-11.03z" fill="#cad9fc"/><path id="Shape" d="m29.3 1.3-4.763 4.763 1.843.457c.3434656.08989496.7088435-.00906155.96-.26l4.185-4.185-.775-.775c-.4005652-.40002296-1.0494348-.40002296-1.45 0z" fill="#fff"/><path id="Shape" d="m2 59h3c-.52974901.0208802-.97673855-.3903502-1-.92v-1.83c0-3.646 1.549-7.62 5.437-11.2-.061.055-.128.107-.187.163l-.75-.22c-.53026495-.1560281-.84038309-.7053802-.7-1.24l1.83-6.8c.08989496-.3434656-.00906155-.7088435-.26-.96l-5.09-5.293c-.36981757-.3933997-.36981757-1.0066003 0-1.4l5.09-5.29c.25093845-.2511565.34989496-.6165344.26-.96l-1.83-6.8c-.14038309-.5346198.16973505-1.0839719.7-1.24l7.03-2.01c.3420338-.1029801.6066936-.3752016.7-.72l1.83-6.8c.0284842-.08825262.0692149-.17207028.121-.249l-1.9-.471c-.2572811-.0667762-.5305617-.02837461-.7594755.10672205s-.3946234.35577129-.4605245.61327795l-1.83 6.8c-.0933064.3447984-.3579662.6170199-.7.72l-7.031 2.01c-.53026495.1560281-.84038309.7053802-.7 1.24l1.83 6.8c.08989496.3434656-.00906155.7088435-.26.96l-5.09 5.29c-.36981757.3933997-.36981757 1.0066003 0 1.4l5.09 5.29c.25093845.2511565.34989496.6165344.26.96l-1.83 6.8c-.14038309.5346198.16973505 1.0839719.7 1.24l.75.22c.059-.056.126-.108.187-.163-3.888 3.583-5.437 7.553-5.437 11.203v1.83c.02326145.5296498.47025099.9408802 1 .92z" fill="#fff"/><path id="Shape" d="m2.477 48.162 1.683 1.081c-1.38011115 2.0787523-2.13019151 4.5119991-2.16 7.007h-2c.03040669-2.8781503.89045839-5.6864257 2.477-8.088z" fill="#fff"/><g fill="#428dff"><path id="Shape" d="m54.471 23.592 1.77-7.107c.2563462-1.0620794-.3786859-2.1353856-1.433-2.422l-6.817-1.829-2.02-7.051c-.2949351-1.04959269-1.376165-1.66959864-2.431-1.394l-7.123 1.764-4.96-4.96c-.7917476-.78875444-2.0722524-.78875444-2.864 0l-4.972 4.956-7.091-1.757c-1.065839-.2699694-2.1509086.36610591-2.436 1.428l-1.839 6.819-7.045 2.014c-1.0462734.3138303-1.65508293 1.400927-1.376 2.457l1.815 6.806-5.095 5.3c-.73892184.7809074-.73672406 2.0037537.005 2.782l5.1 5.3-1.827 6.802c-.20093423.7684339.06805505 1.5832326.687 2.081-.75578421.7981406-1.43913905 1.6618717-2.042 2.581-.14534995.2326031-.19005992.5142423-.12389158.7804238s.23754713.4941046.47489158.6315762c.46052736.2675133 1.05026196.1209652 1.332-.331 1.33879502-1.9992373 3.03361171-3.7354075 5-5.122 1.9718441-1.4386387 4.1272975-2.6070028 6.409-3.474 1.12-.5 2.318-.8 3.48-1.187 1.2-.271 2.378-.63 3.6-.8 2.4272749-.4273725 4.8864167-.6481633 7.351-.66 15.439 0 28 8.187 28 18.25v1.75l-56 .083v-1.833c0-.5522847-.44771525-1-1-1s-1 .4477153-1 1v1.833c.02458979 1.0809154.91901324 1.9382202 2 1.917h56c1.0809868.0212202 1.9754102-.8360846 2-1.917v-1.833c-.09029-3.9896286-1.6964559-7.7951549-4.492-10.643.6342764-.4912896.9209001-1.3092636.732-2.089l-1.763-7.131 4.97-4.97c.7757647-.7907352.7717538-2.0581905-.009-2.844zm-32.171 13.102c-1.281.177-2.526.551-3.786.839-1.229.407-2.488.729-3.679 1.254-.761.291-1.506.624-2.242.977-4.72329607-8.4144645-2.76508163-19.0015992 4.6554706-25.1699168 7.4205523-6.16831768 18.1872571-6.15874398 25.596828.0227605 7.4095709 6.1815046 9.3489542 16.772105 4.6107014 25.1781563-5.4613809-2.5552855-11.4266635-3.8521603-17.456-3.795-2.5816731.0131876-5.1575748.2453533-7.7.694zm30.766-1.721c-.5065365.4992231-.7098582 1.2298869-.534 1.919l1.768 7.136-.3.085c-1.4630785-1.3002146-3.0631406-2.4375596-4.772-3.392 5.1773554-9.2482761 3.0246188-20.8734291-5.1210491-27.6545583-8.145668-6.7811292-19.9684583-6.79036335-28.124709-.0219667-8.15625076 6.7683967-10.3271443 18.3901727-5.1642419 27.646525-.98035771.549883-1.92795305 1.1562371-2.838 1.816-.673.492-1.318 1.029-1.945 1.587l-.268-.084 1.83-6.8c.18110262-.6802936-.00879518-1.4057032-.5-1.91l-5.097-5.307 5.077-5.276c.50433716-.5037811.70343697-1.2373668.523-1.927l-1.825-6.819 7.054-2.017c.6706613-.2027164 1.1890851-.7374001 1.371-1.414l1.843-6.81 7.086 1.757c.6875521.18055423 1.4192725-.01741384 1.922-.52l5-4.96 4.949 4.96c.4987926.49872153 1.223406.69782873 1.907.524l7.138-1.756 2.022 7.056c.1999153.6745242.7337423 1.1981434 1.412 1.385l6.821 1.832-1.769 7.092c-.1786615.6906249.0240524 1.4241289.532 1.925l4.96 4.986z"/><path id="Shape" d="m23.025 17c-1.6568542 0-3 1.3431458-3 3 0 .5522847.4477153 1 1 1s1-.4477153 1-1 .4477153-1 1-1 1 .4477153 1 1 .4477153 1 1 1 1-.4477153 1-1c0-1.6568542-1.3431458-3-3-3z"/><path id="Shape" d="m37.025 17c-1.6568542 0-3 1.3431458-3 3 0 .5522847.4477153 1 1 1s1-.4477153 1-1 .4477153-1 1-1 1 .4477153 1 1 .4477153 1 1 1 1-.4477153 1-1c0-1.6568542-1.3431458-3-3-3z"/><path id="Shape" d="m33.025 22h-6c-.5522847 0-1 .4477153-1 1v1c0 2.209139 1.790861 4 4 4s4-1.790861 4-4v-1c0-.5522847-.4477153-1-1-1zm-3 4c-1.1045695 0-2-.8954305-2-2h4c0 1.1045695-.8954305 2-2 2z"/><path id="Shape" d="m18.318 23.293-1 1c-.2599566.2510745-.3642126.6228779-.2726972.9725073.0915155.3496295.3645604.6226744.7141899.7141899.3496294.0915154.7214328-.0127406.9725073-.2726972l1-1c.3789722-.3923789.3735524-1.0160848-.0121814-1.4018186s-1.0094397-.3911536-1.4018186-.0121814z"/><path id="Shape" d="m22.318 23.293-1 1c-.2599566.2510745-.3642126.6228779-.2726972.9725073.0915155.3496295.3645604.6226744.7141899.7141899.3496294.0915154.7214328-.0127406.9725073-.2726972l1-1c.3789722-.3923789.3735524-1.0160848-.0121814-1.4018186s-1.0094397-.3911536-1.4018186-.0121814z"/><path id="Shape" d="m41.732 23.293c-.3923789-.3789722-1.0160848-.3735524-1.4018186.0121814s-.3911536 1.0094397-.0121814 1.4018186l1 1c.3923789.3789722 1.0160848.3735524 1.4018186-.0121814s.3911536-1.0094397.0121814-1.4018186z"/><path id="Shape" d="m37.732 23.293c-.3923789-.3789722-1.0160848-.3735524-1.4018186.0121814s-.3911536 1.0094397-.0121814 1.4018186l1 1c.3923789.3789722 1.0160848.3735524 1.4018186-.0121814s.3911536-1.0094397.0121814-1.4018186z"/><path id="Shape" d="m1.643 53.308c-.55228475.0027614-1.00223858-.4427153-1.005-.995s.44271525-1.0022386.995-1.005h.01c.55228475 0 1 .4477153 1 1s-.44771525 1-1 1z"/><path id="Shape" d="m6 56c.55228475 0 1-.4477153 1-1s-.44771525-1-1-1h-1c-.55228475 0-1 .4477153-1 1s.44771525 1 1 1z"/><path id="Shape" d="m26 56c.5522847 0 1-.4477153 1-1s-.4477153-1-1-1h-16c-.55228475 0-1 .4477153-1 1s.44771525 1 1 1z"/></g></g></g></svg>