<svg height="512" viewBox="0 0 60 60" width="512" xmlns="http://www.w3.org/2000/svg"><g id="Page-1" fill="none" fill-rule="evenodd"><g id="017---Heatwave" fill-rule="nonzero" transform="translate(-1)"><path id="Shape" d="m54.742 35.682c-.253791.2511579-.3544125.6185789-.264.964l1.766 7.112c.1318942.5305658-.1762646 1.0711645-.7 1.228l-7.052 2.019c-.3404739.0995905-.6052487.3681478-.7.71l-1.826 6.808c-.1424435.531445-.6837202.8514115-1.218.72l-7.1-1.765c-.3454211-.0904125-.7128421.010209-.964.264l-4.963 4.958c-.3986159.3962403-1.0423841.3962403-1.441 0l-4.962-4.961c-.2509522-.2534351-.6178896-.3540285-.963-.264l-7.1 1.765c-.5339503.1307895-1.0745525-.189041-1.217-.72l-1.827-6.808c-.0947513-.3418522-.3595261-.6104095-.7-.71l-7.034-2.016c-.53069687-.1542437-.84139544-.7037364-.7-1.238l1.823-6.798c.0892834-.343466-.0065571-.7086448-.253-.964l-5.091-5.286c-.37486459-.3913862-.37486459-1.0086138 0-1.4l5.094-5.286c.24537482-.2559537.34005907-.6210562.25-.964l-1.826-6.8c-.14139544-.5342636.16930313-1.0837563.7-1.238l7.034-2.012c.3404739-.0995905.6052487-.3681478.7-.71l1.827-6.808c.1424475-.53095902.6830497-.85078945 1.217-.72l7.1 1.765c.3451104.09002849.7120478-.01056494.963-.264l4.965-4.963c.3986159-.39624026 1.0423841-.39624026 1.441 0l4.961 4.961c.2511579.25379102.6185789.35441255.964.264l7.112-1.765c.5306408-.13243855 1.0715946.17592271 1.228.7l2.019 7.051c.0995905.3404739.3681478.6052487.71.7l6.808 1.827c.5313634.1420087.8517187.6827471.721 1.217l-1.766 7.1c-.0904125.3454211.010209.7128421.264.964l4.958 4.961c.3961243.3982737.3961243 1.0417263 0 1.44z" fill="#a4c2f7"/><path id="Shape" d="m59.7 30.72c.3961243-.3982737.3961243-1.0417263 0-1.44l-4.961-4.962c-.253791-.2511579-.3544125-.6185789-.264-.964l1.766-7.1c.1301507-.5341684-.1899836-1.0745337-.721-1.217l-6.808-1.827c-.3418522-.0947513-.6104095-.3595261-.71-.7l-2.016-7.053c-.1564054-.52407729-.6973592-.83243855-1.228-.7l-1.892.469c.0501453.07129019.0905049.14898244.12.231l2.019 7.051c.0995905.3404739.3681478.6052487.71.7l6.808 1.827c.5310164.1424663.8511507.6828316.721 1.217l-1.766 7.1c-.0904125.3454211.010209.7128421.264.964l4.958 4.964c.3961243.3982737.3961243 1.0417263 0 1.44l-4.961 4.962c-.253791.2511579-.3544125.6185789-.264.964l1.766 7.112c.1313518.5304908-.1766055 1.0707359-.7 1.228l-7.052 2.019c-.3404739.0995905-.6052487.3681478-.7.71l-1.826 6.808c-.0288462.087662-.0699177.170815-.122.247l1.9.473c.5342798.1314115 1.0755565-.188555 1.218-.72l1.826-6.808c.0947513-.3418522.3595261-.6104095.7-.71l7.052-2.019c.5233945-.1572641.8313518-.6975092.7-1.228l-1.766-7.112c-.0904125-.3454211.010209-.7128421.264-.964z" fill="#7facfa"/><circle id="Oval" cx="31" cy="30" fill="#cad9fc" r="21"/><ellipse id="Oval" cx="31" cy="30" fill="#e8edfc" rx="18" ry="21"/><path id="Shape" d="m47.761 33.812c-.471635.9681041-1.4259725 1.6091532-2.500539 1.6796659s-2.1044908-.4403297-2.6985902-1.3385007-.6612209-2.0458638-.1758708-3.0071652c.737-1.484 4.914-3.146 4.914-3.146s1.2 4.328.461 5.812z" fill="#e8edfc"/><path id="Shape" d="m15.286 36.415c.7872606 1.4497502 2.5973689 1.9918221 4.0518934 1.2134178 1.4545246-.7784044 2.0076257-2.585173 1.2381066-4.0444178-.782-1.461-5.005-2.993-5.005-2.993s-1.071 4.364-.285 5.824z" fill="#e8edfc"/><path id="Shape" d="m25.318 18.144c-.5314817.5023707-1.294786.6745917-1.9904907.4491059-.6957048-.2254859-1.2128614-.8127189-1.3486042-1.5313447-.1357428-.7186257.131576-1.45404.6970949-1.9177612.829-.733 4.324-1.144 4.324-1.144s-.853 3.414-1.682 4.144z" fill="#e8edfc"/><path id="Shape" d="m37.679 19.144c.5314817.5023707 1.294786.6745917 1.9904907.4491059.6957048-.2254859 1.2128614-.8127189 1.3486042-1.5313447.1357428-.7186257-.131576-1.45404-.6970949-1.9177612-.829-.733-4.321-1.144-4.321-1.144s.85 3.414 1.679 4.144z" fill="#e8edfc"/><ellipse id="Oval" cx="31" cy="30.5" fill="#a4c2f7" rx="3" ry="2.5"/><path id="Shape" d="m28.8 44.075c.5105872.979477.130477 2.1874127-.849 2.698-.979477.5105872-2.1874127.130477-2.698-.849-.51-.979-.075-4.471-.075-4.471s3.107 1.647 3.622 2.622z" fill="#e8edfc"/><path id="Shape" d="m36.227 41.622c-.5105872.979477-.130477 2.1874127.849 2.698.979477.5105872 2.1874127.130477 2.698-.849.51-.979.075-4.471.075-4.471s-3.112 1.643-3.622 2.622z" fill="#e8edfc"/><path id="Shape" d="m27.354 6.522c.3454211.09041255.7128421-.01020898.964-.264l4.182-4.182-.779-.776c-.3986159-.39624026-1.0423841-.39624026-1.441 0l-4.767 4.764z" fill="#fff"/><path id="Shape" d="m31.721 58.7.779-.779-4.182-4.182c-.2511579-.253791-.6185789-.3544125-.964-.264l-1.841.458 4.767 4.767c.3986159.3962403 1.0423841.3962403 1.441 0z" fill="#fff"/><path id="Shape" d="m7.35 35.986c.2464429.2553552.3422834.620534.253.964l-1.826 6.8c-.14139544.5342636.16930313 1.0837563.7 1.238l7.031 2.019c.3404739.0995905.6052487.3681478.7.71l1.827 6.808c.141989.5313069.6829656.8513588 1.217.72l1.905-.473c-.0520823-.076185-.0931538-.159338-.122-.247l-1.827-6.808c-.0947513-.3418522-.3595261-.6104095-.7-.71l-7.031-2.021c-.53069687-.1542437-.84139544-.7037364-.7-1.238l1.823-6.798c.0892834-.343466-.0065571-.7086448-.253-.964l-5.091-5.286c-.37486459-.3913862-.37486459-1.0086138 0-1.4l5.094-5.286c.2453748-.2559537.3400591-.6210562.25-.964l-1.826-6.8c-.14139544-.5342636.16930313-1.0837563.7-1.238l7.034-2.012c.3404739-.0995905.6052487-.3681478.7-.71l1.827-6.808c.0288462-.08766196.0699177-.17081501.122-.247l-1.905-.473c-.5340344-.13135879-1.075011.1886931-1.217.72l-1.827 6.808c-.0947513.3418522-.3595261.6104095-.7.71l-7.031 2.014c-.53069687.1542437-.84139544.7037364-.7 1.238l1.823 6.798c.0892834.343466-.0065571.7086448-.253.964l-5.091 5.286c-.37486459.3913862-.37486459 1.0086138 0 1.4z" fill="#fff"/><path id="Shape" d="m3.242 29.719-1.442-1.388 4.836-5.026 1.934-.505c.16947094.6524401.0030025 1.3464336-.444 1.851l-.721.751-1.388 1.436z" fill="#fff"/><g fill="#428dff"><path id="Shape" d="m31 52c12.1502645 0 22-9.8497355 22-22s-9.8497355-22-22-22-22 9.8497355-22 22c.01377716 12.1445532 9.8554468 21.9862228 22 22zm0-42c11.045695 0 20 8.954305 20 20s-8.954305 20-20 20-20-8.954305-20-20c.0126747-11.0404407 8.9595593-19.9873253 20-20z"/><path id="Shape" d="m5.316 27.145c-.35726559.0016077-.6882503-.1875057-.8682754-.4961029s-.18174049-.6897951-.0045-1 .50650981-.5022894.8637754-.5038971h.009c.55228475 0 1 .4477153 1 1s-.44771525 1-1 1z"/><path id="Shape" d="m55.449 23.6 1.765-7.1c.2559158-1.0619408-.3782945-2.1350492-1.432-2.423l-6.816-1.836-2.021-7.067c-.3064122-1.03871708-1.3774488-1.65099007-2.428-1.388l-7.128 1.765-4.96-4.961c-.7997612-.76139689-2.0562388-.76139689-2.856 0l-4.973 4.961-7.11-1.766c-1.0610759-.25127588-2.1308051.38190129-2.421 1.433l-1.837 6.816-7.032 2.019c-1.05054019.3100534-1.6650454 1.3982766-1.388 2.458l1.826 6.8c.08471625.3536999.35479043.6335159.70526773.7307072.3504773.0971914.72608946-.0035684.98086807-.2631225.25477861-.2595542.34854654-.6369725.2448642-.9855847l-1.815-6.818 7.037-2.02c.6735073-.2003187 1.1962192-.7336134 1.383-1.411l1.837-6.817 7.089 1.762c.6894906.17812266 1.4217897-.02111137 1.926-.524l4.988-4.965 4.962 4.962c.4990102.50120284 1.225627.70158328 1.911.527l7.138-1.761 2.021 7.059c.2001323.6732598.732997 1.1959208 1.41 1.383l6.816 1.837-1.76 7.093c-.1808194.6899437.018308 1.4240119.523 1.928l4.965 4.985-4.961 4.962c-.5012028.4990102-.7015833 1.225627-.527 1.911l1.761 7.138-7.063 2.021c-.6737899.2001933-1.1968606.7334684-1.384 1.411l-1.837 6.817-7.089-1.762c-.6894993-.17959-1.4225257.0198419-1.926.524l-4.987 4.965-4.963-4.962c-.4990102-.5012028-1.225627-.7015833-1.911-.527l-7.113 1.753-1.828-6.811c-.1879706-.6780378-.7128611-1.2108697-1.388-1.409l-7.041-2.037 1.827-6.8c.17653394-.6812275-.01271028-1.4052758-.5-1.913l-5.097-5.294v-.005l.265-.275c.36598343-.3996602.3470257-1.0181131-.04274954-1.3946067s-1.00851356-.3740072-1.39525046.0056067l-.265.275c-.74655766.7790139-.74655766 2.0079861 0 2.787l5.1 5.3-1.827 6.8c-.27480276 1.0596827.34145547 2.1461035 1.392 2.454l7.041 2.027 1.827 6.808c.2901917 1.052476 1.3621473 1.6857435 2.424 1.432l7.118-1.765 4.961 4.961c.7894606.7867337 2.0665394.7867337 2.856 0l4.973-4.961 7.106 1.766c1.0636791.2671953 2.1441246-.3720609 2.422-1.433l1.836-6.816 7.059-2.021c1.0385187-.3059593 1.650559-1.3769196 1.387-2.427l-1.765-7.129 4.961-4.962c.7865032-.7887754.7865032-2.0652246 0-2.854z"/><path id="Shape" d="m21 25h5c.5522847 0 1-.4477153 1-1s-.4477153-1-1-1h-5c-.5522847 0-1 .4477153-1 1s.4477153 1 1 1z"/><path id="Shape" d="m21 28h3c.5522847 0 1-.4477153 1-1s-.4477153-1-1-1h-3c-.5522847 0-1 .4477153-1 1s.4477153 1 1 1z"/><path id="Shape" d="m41 23h-5c-.5522847 0-1 .4477153-1 1s.4477153 1 1 1h5c.5522847 0 1-.4477153 1-1s-.4477153-1-1-1z"/><path id="Shape" d="m41 28c.5522847 0 1-.4477153 1-1s-.4477153-1-1-1h-3c-.5522847 0-1 .4477153-1 1s.4477153 1 1 1z"/><path id="Shape" d="m41.283 33.755c.5169588 1.5324798 1.9059014 2.6028538 3.5195204 2.7122814s3.1343552-.7636266 3.8534796-2.2122814c.864-1.739-.178-5.74-.4-6.525-.0760766-.2736818-.2649562-.5020951-.5194824-.6282134-.2545261-.1261182-.5506781-.1380392-.8145176-.0327866-.756.3-4.572 1.891-5.435 3.631-.4737482.9500928-.5472189 2.0503536-.204 3.055zm2-2.165c.283-.57 1.786-1.486 3.325-2.2.36 1.666.534 3.426.258 3.981-.4955644.9808799-1.689714 1.3781658-2.6741314.8896662-.9844174-.4884997-1.3902782-1.6797622-.9088686-2.6676662z"/><path id="Shape" d="m19.819 38.525c1.9475662-1.0424915 2.6813526-3.4663594 1.639-5.414-.917-1.711-4.78-3.182-5.546-3.46-.2665875-.0967739-.5617284-.0757987-.8119506.057704s-.4319882.3669748-.5000494.642296c-.194.791-1.111 4.821-.2 6.533.6979 1.3047452 2.0583315 2.1183894 3.538 2.116.6566858.0000787 1.3030833-.163153 1.881-.475zm-3.651-2.582c-.3-.562-.175-2.318.134-3.986 1.566.673 3.1 1.552 3.392 2.1.3545567.6314504.3400698 1.4052369-.0378744 2.0229734-.3779441.6177364-1.0602962.982909-1.783929.9547005-.7236327-.0282085-1.3754872-.4453908-1.7041966-1.0906739z"/><path id="Shape" d="m23.805 19.636c.065 0 .131.007.2.007.7287019.0003984 1.4323289-.2660408 1.978-.749.959-.845 1.712-3.535 1.991-4.652.0794193-.3186612-.0026867-.6560059-.2196653-.902527-.2169785-.2465212-.5411691-.3707922-.8673347-.332473-1.144.135-3.908.538-4.867 1.383-.9107092.8013736-1.2491685 2.072347-.8576197 3.2205109.3915489 1.1481639 1.4360363 1.9475224 2.6466197 2.0254891zm-.469-3.744c.7168576-.3422287 1.4839086-.5674148 2.272-.667-.1994827.7687137-.520531 1.5006091-.951 2.168-.4143967.3639711-1.0452422.3237044-1.41-.09-.3648965-.4142696-.3250582-1.0458637.089-1.411z"/><path id="Shape" d="m37.018 19.894c.7966115.7573272 1.9435993 1.0183783 2.9894988.6804013 1.0458996-.337977 1.8232305-1.2208617 2.0260284-2.3011428s-.2014112-2.1849727-1.0535272-2.8792585c-.959-.845-3.723-1.248-4.867-1.383-.3261656-.0383192-.6503562.0859518-.8673347.332473-.2169786.2465211-.2990846.5838658-.2196653.902527.28 1.114 1.033 3.804 1.992 4.648zm2.643-3c.2827595.2318606.4164189.5995678.3485475.9588806-.0678714.3593129-.3264497.6529294-.6743021.7656723-.3478524.112743-.7295046.0266324-.9952454-.2245529-.4306814-.6672767-.7517451-1.3992073-.951-2.168.7880349.0992689 1.5550835.3241168 2.272.666z"/><path id="Shape" d="m31 34c2.0671312.1264835 3.8509663-1.4343722 4-3.5-.1490337-2.0656278-1.9328688-3.6264835-4-3.5-2.0671312-.1264835-3.8509663 1.4343722-4 3.5.1490337 2.0656278 1.9328688 3.6264835 4 3.5zm0-5c1.084 0 2 .687 2 1.5s-.916 1.5-2 1.5-2-.687-2-1.5.916-1.5 2-1.5z"/><path id="Shape" d="m25.64 40.568c-.2905431-.1532959-.637846-.1541168-.9291105-.0021961s-.489338.4372045-.5298895.7631961c-.143 1.143-.41 3.924.18 5.058.7657428 1.4693536 2.5776464 2.0397428 4.047 1.274s2.0397428-2.5776464 1.274-4.047c-.59-1.135-3.024-2.508-4.042-3.046zm2.336 4.732c-.0788369.2533769-.2560923.4644982-.492.586-.4891004.2548419-1.0921884.065594-1.348-.423-.1613513-.7782848-.1974721-1.5773315-.107-2.367.6991386.3775204 1.3334674.8643231 1.879 1.442.1237459.2346595.14824.509137.068.762z"/><path id="Shape" d="m40.312 38.113c-.2908744-.1525692-.6381256-.1525692-.929 0-1.019.537-3.452 1.911-4.043 3.044-.51467.9523276-.4763767 2.108067.1002024 3.0242382.5765791.9161711 1.602012 1.4506684 2.6832634 1.3986258s2.0506105-.6825527 2.5365342-1.649864c.591-1.134.324-3.914.182-5.058-.041875-.3244644-.239814-.607928-.53-.759zm-1.425 4.9c-.2554723.489552-.859394.6793687-1.349.424-.2352678-.122509-.4122236-.3334715-.4919291-.5864664-.0797056-.2529948-.05563-.5272919.0669291-.7625336.5459402-.5769528 1.1802022-1.0633667 1.879-1.441.0909923.7882347.0555462 1.5859424-.105 2.363z"/></g></g></g></svg>