<svg height="512" viewBox="0 0 60 60" width="512" xmlns="http://www.w3.org/2000/svg"><g id="Page-1" fill="none" fill-rule="evenodd"><g id="019---Sunny-and-Fog" fill-rule="nonzero" transform="translate(-1)"><path id="Shape" d="m51.74 26.62-2.38 2.38h-13.36c-1.6568542 0-3 1.3431458-3 3s1.3431458 3 3 3h-5c-1.6568542 0-3 1.3431458-3 3s1.3431458 3 3 3h-6c-1.1569444-.0000828-2.210831.6651134-2.708489 1.7095543-.4976579 1.044441-.350386 2.2819683.378489 3.1804457l-7.52 1.87c-.2214958.057924-.4569503.0250311-.654092-.0913764s-.3396574-.306697-.395908-.5286236l-1.58-5.87c-.0843763-.2914803-.3099541-.5208177-.6-.61l-6.06-1.74c-.46135502-.130316-.73288769-.606611-.61-1.07l1.58-5.86c.07719925-.2961031-.00627021-.6110106-.22-.83l-4.39-4.56c-.33001243-.3319324-.33001243-.8680676 0-1.2l4.39-4.56c.21372979-.2189894.29719925-.5338969.22-.83l-1.58-5.86c-.12288769-.463389.14864498-.939684.61-1.07l6.06-1.74c.2900459-.0891823.5156237-.3185197.6-.61l1.58-5.87c.0562506-.22192663.1987663-.41221608.395908-.52862358.1971417-.11640749.4325962-.14930041.654092-.09137642l6.12 1.52c.2978985.07845625.6149705-.00940707.83-.23l4.28-4.27c.1625707-.16790374.3862888-.26269258.62-.26269258s.4574293.09478884.62.26269258l4.27 4.27c.2190348.22083127.5390201.30844629.84.23l6.13-1.52c.4564383-.11202155.9211183.15100483 1.06.6l1.74 6.08c.0789908.2961074.3126275.525914.61.6l5.87 1.58c.4570146.1242135.7319485.5898274.62 1.05l-1.52 6.12c-.0771992.2961031.0062702.6110106.22.83l4.28 4.28c.3401225.3433636.3401225.8966364 0 1.24z" fill="#a4c2f7"/><path id="Shape" d="m51.74 25.38-4.28-4.28c-.2137298-.2189894-.2971992-.5338969-.22-.83l1.52-6.12c.1119485-.4601726-.1629854-.9257865-.62-1.05l-5.87-1.58c-.2973725-.074086-.5310092-.3038926-.61-.6l-1.74-6.08c-.1388817-.44899517-.6035617-.71202155-1.06-.6l-2 .5c.0209769.032167.0400109.06555996.057.1l1.74 6.08c.0789908.2961074.3126275.525914.61.6l5.87 1.58c.4570146.1242135.7319485.5898274.62 1.05l-1.52 6.12c-.0771992.2961031.0062702.6110106.22.83l4.28 4.28c.3401225.3433636.3401225.8966364 0 1.24l-2.377 2.38h3l2.38-2.38c.3401225-.3433636.3401225-.8966364 0-1.24z" fill="#7facfa"/><path id="Shape" d="m44 26c-.0198875 1.0028781-.0899752 2.0041315-.21 3h-7.79c-1.6568542 0-3 1.3431458-3 3s1.3431458 3 3 3h-5c-1.6568542 0-3 1.3431458-3 3s1.3431458 3 3 3h-6c-.9253168-.0059909-1.7995336.4237089-2.36 1.16-.0622146.0724065-.1190337.1492795-.17.23-8.0661051-2.2301397-13.30934971-9.9989935-12.360023-18.3137006.9493268-8.314707 7.8088113-14.7017389 16.170023-15.0562994.24-.01.48-.02.72-.02s.48.01.72.02c9.1003839.38217453 16.2810531 7.8715949 16.28 16.98z" fill="#cad9fc"/><path id="Shape" d="m41 26c.0032047 1.0041445-.0703428 2.0070654-.22 3h-4.78c-1.6568542 0-3 1.3431458-3 3s1.3431458 3 3 3h-5c-1.6568542 0-3 1.3431458-3 3s1.3431458 3 3 3h-6c-.9253168-.0059909-1.7995336.4237089-2.36 1.16-5.6-2.23-9.64-8.62-9.64-16.16 0-9.1 5.88-16.52 13.28-16.98.24-.01.48-.02.72-.02s.48.01.72.02c7.4.46 13.28 7.88 13.28 16.98z" fill="#e8edfc"/><path id="Shape" d="m60 44c0 1.6568542-1.3431458 3-3 3h-12c1.6568542.0000001 2.9999999 1.3431458 2.9999999 3s-1.3431457 2.9999999-2.9999999 3h8c1.6568542 0 3 1.3431458 3 3s-1.3431458 3-3 3h-18c-1.6568542 0-3-1.3431458-3-3s1.3431458-3 3-3h-6c-1.6568542 0-3-1.3431458-3-3s1.3431458-3 3-3h-4c-1.6568542 0-3-1.3431458-3-3s1.3431458-3 3-3h6c-1.6568542 0-3-1.3431458-3-3s1.3431458-3 3-3h5c-1.6568542 0-3-1.3431458-3-3s1.3431458-3 3-3h14c1.6568542 0 3 1.3431458 3 3s-1.3431458 3-3 3h4c1.6568542 0 3 1.3431458 3 3s-1.3431458 3-3 3h3c.7956495 0 1.5587112.3160705 2.1213203.8786797.5626092.5626091.8786797 1.3256708.8786797 2.1213203z" fill="#e8edfc"/><path id="Shape" d="m45 50c0 1.6568542-1.3431458 3-3 3h3c1.6568542 0 3-1.3431458 3-3s-1.3431458-3-3-3h-3c1.6568542 0 3 1.3431458 3 3z" fill="#cad9fc"/><path id="Shape" d="m50 32c0 1.6568542-1.3431458 3-3 3h3c1.6568542 0 3-1.3431458 3-3s-1.3431458-3-3-3h-3c1.6568542 0 3 1.3431458 3 3z" fill="#cad9fc"/><path id="Shape" d="m53 53h-3c1.6568542 0 3 1.3431458 3 3s-1.3431458 3-3 3h3c1.6568542 0 3-1.3431458 3-3s-1.3431458-3-3-3z" fill="#cad9fc"/><path id="Shape" d="m57 41h-3c1.6568542 0 3 1.3431458 3 3s-1.3431458 3-3 3h3c1.6568542 0 3-1.3431458 3-3s-1.3431458-3-3-3z" fill="#cad9fc"/><path id="Shape" d="m57 38c0-1.6568542-1.3431458-3-3-3h-3c1.6568542 0 3 1.3431458 3 3s-1.3431458 3-3 3h3c1.6568542 0 3-1.3431458 3-3z" fill="#cad9fc"/><circle id="Oval" cx="20" cy="18" fill="#a4c2f7" r="2"/><circle id="Oval" cx="34" cy="18" fill="#a4c2f7" r="2"/><path id="Shape" d="m27.62 1.26c-.1625707-.16790374-.3862888-.26269258-.62-.26269258s-.4574293.09478884-.62.26269258l-4.032 4.023 1.922.477c.2978985.07845625.6149705-.00940707.83-.23l3.4-3.391z" fill="#fff"/><path id="Shape" d="m6.61 31.16c.21372979.2189894.29719925.5338969.22.83l-1.58 5.86c-.12288769.463389.14864498.939684.61 1.07l6.06 1.74c.2900459.0891823.5156237.3185197.6.61l1.58 5.87c.0562506.2219266.1987663.4122161.395908.5286236s.4325962.1493004.654092.0913764l2.008-.5c-.0223173-.0388339-.0417045-.0792796-.058-.121l-1.58-5.87c-.0843763-.2914803-.3099541-.5208177-.6-.61l-6.06-1.739c-.46135502-.130316-.73288769-.606611-.61-1.07l1.58-5.86c.07719925-.2961031-.00627021-.6110106-.22-.83l-4.39-4.56c-.33001243-.3319324-.33001243-.8680676 0-1.2l4.39-4.56c.21372979-.2189894.29719925-.5338969.22-.83l-1.58-5.86c-.12288769-.463389.14864498-.939684.61-1.07l6.06-1.74c.2900459-.0891823.5156237-.3185197.6-.61l1.58-5.87c.0160836-.04181206.0354785-.08227384.058-.121l-2.008-.5c-.2214958-.05792399-.4569503-.02503107-.654092.09137642-.1971417.1164075-.3396574.30669695-.395908.52862358l-1.58 5.87c-.0843763.2914803-.3099541.5208177-.6.61l-6.06 1.741c-.46135502.130316-.73288769.606611-.61 1.07l1.58 5.86c.07719925.2961031-.00627021.6110106-.22.83l-4.39 4.56c-.33001243.3319324-.33001243.8680676 0 1.2z" fill="#fff"/><path id="Rectangle-path" d="m35 58h8v2h-8z" fill="#fff"/><g fill="#428dff"><path id="Shape" d="m27 21c-2.243 0-4 1.318-4 3 0 .5522847.4477153 1 1 1s1-.4477153 1-1c0-.408.779-1 2-1s2 .592 2 1c0 .5522847.4477153 1 1 1s1-.4477153 1-1c0-1.682-1.757-3-4-3z"/><path id="Shape" d="m15.293 22.293-1 1c-.2599566.2510745-.3642126.6228779-.2726972.9725073.0915155.3496295.3645604.6226744.7141899.7141899.3496294.0915154.7214328-.0127406.9725073-.2726972l1-1c.3789722-.3923789.3735524-1.0160848-.0121814-1.4018186s-1.0094397-.3911536-1.4018186-.0121814z"/><path id="Shape" d="m19.293 22.293-1 1c-.2599566.2510745-.3642126.6228779-.2726972.9725073.0915155.3496295.3645604.6226744.7141899.7141899.3496294.0915154.7214328-.0127406.9725073-.2726972l1-1c.3789722-.3923789.3735524-1.0160848-.0121814-1.4018186s-1.0094397-.3911536-1.4018186-.0121814z"/><path id="Shape" d="m39.707 23.293-1-1c-.3923789-.3789722-1.0160848-.3735524-1.4018186.0121814s-.3911536 1.0094397-.0121814 1.4018186l1 1c.3923789.3789722 1.0160848.3735524 1.4018186-.0121814s.3911536-1.0094397.0121814-1.4018186z"/><path id="Shape" d="m34.707 22.293c-.3923789-.3789722-1.0160848-.3735524-1.4018186.0121814s-.3911536 1.0094397-.0121814 1.4018186l1 1c.3923789.3789722 1.0160848.3735524 1.4018186-.0121814s.3911536-1.0094397.0121814-1.4018186z"/><path id="Shape" d="m39.02 60c-.5522847.0027614-1.0022385-.4427153-1.0049999-.995-.0027615-.5522847.4427152-1.0022385.9949999-1.005h.01c.5522847 0 1 .4477153 1 1s-.4477153 1-1 1z"/><path id="Shape" d="m57.448 40.025c.7259397-1.2366235.7343899-2.7672261.0221484-4.0117896s-2.0361938-2.0126559-3.4701484-2.0132104h-.537c.5811138-1.0040129.6966197-2.2111879.3164402-3.30718-.3801794-1.0959922-1.2184178-1.9723309-2.2964402-2.40082l.965-.965c.731593-.7334152.731593-1.9205848 0-2.654l-4.221-4.221 1.507-6.074c.2402315-.9864093-.352676-1.9837739-1.334-2.244l-5.8-1.56-1.727-6.037c-.2967748-.95249127-1.2849408-1.50819756-2.253-1.267l-6.071 1.505-4.212-4.212c-.7394236-.72127829-1.917643-.72614513-2.663-.011l-4.232 4.22-6.042-1.501c-.9919565-.25320279-2.0027956.33965036-2.266 1.329l-1.561 5.8-5.984 1.718c-.98999907.2767704-1.57224873 1.2993882-1.305 2.292l1.56 5.784-4.331 4.5c-.71773418.7158243-.72398391 1.876488-.014 2.6l4.345 4.513-1.563 5.793c-.26166307.9869575.31716727 2.0012464 1.3 2.278l5.989 1.72 1.559 5.792c.2159562.8182434.9537526 1.3900356 1.8 1.395.1534976-.0001955.3063621-.0196815.455-.058l6.983-1.736c.7244369.6475095 1.6613666 1.0065532 2.633 1.009h.537c-.7144329 1.2374339-.7145379 2.7619908-.0002755 3.9995231s2.0344099 2.0000834 3.4632755 2.0004769h2.537c-.7144329 1.2374339-.7145379 2.7619908-.0002755 3.9995231s2.0344099 2.0000834 3.4632755 2.0004769c.5522847 0 1-.4477153 1-1s-.4477153-1-1-1c-1.1045695 0-2-.8954305-2-2s.8954305-2 2-2h4c.5522847 0 1-.4477153 1-1s-.4477153-1-1-1h-10c-1.1045695 0-2-.8954305-2-2s.8954305-2 2-2h3c.5522847 0 1-.4477153 1-1s-.4477153-1-1-1h-7c-1.1045695 0-2-.8954305-2-2s.8954305-2 2-2h15c.5522847 0 1-.4477153 1-1s-.4477153-1-1-1h-9c-1.1045695 0-2-.8954305-2-2s.8954305-2 2-2h5c.5522847 0 1-.4477153 1-1s-.4477153-1-1-1c-1.1045695 0-2-.8954305-2-2s.8954305-2 2-2h14c1.1045695 0 2 .8954305 2 2s-.8954305 2-2 2h-8c-.5522847 0-1 .4477153-1 1s.4477153 1 1 1h12c1.1045695 0 2 .8954305 2 2s-.8954305 2-2 2h-3c-.5522847 0-1 .4477153-1 1s.4477153 1 1 1h6c1.1045695 0 2 .8954305 2 2s-.8954305 2-2 2h-18c-.5522847 0-1 .4477153-1 1s.4477153 1 1 1h6c1.1045695 0 2 .8954305 2 2s-.8954305 2-2 2c-.5522847 0-1 .4477153-1 1s.4477153 1 1 1h8c1.1045695 0 2 .8954305 2 2s-.8954305 2-2 2h-10c-.5522847 0-1 .4477153-1 1s.4477153 1 1 1h10c2.209139 0 4-1.790861 4-4s-1.790861-4-4-4h-4.537c.7159782-1.2372162.7159782-2.7627838 0-4h8.537c2.1225547.0007897 3.8761437-1.6564376 3.9951917-3.7756512.119048-2.1192137-1.4379027-3.9624123-3.5471917-4.1993488zm-42.416 6.734-1.548-5.752c-.1782994-.6254312-.6618326-1.1176258-1.284-1.307l-5.952-1.709 1.552-5.743c.16917128-.6341307-.00742318-1.3105065-.465-1.781l-4.305-4.467 4.3-4.469c.4591788-.4695846.63767983-1.1459895.47-1.781l-1.552-5.741 5.968-1.709c.6153929-.1912283 1.0926771-.6801719 1.269-1.3l1.547-5.749 5.981 1.485c.6419372.1721506 1.3268538-.01426284 1.793-.488l4.194-4.194 4.184 4.184c.466877.46825329 1.1462433.65529762 1.787.492l6.022-1.493 1.7 5.941c.1679614.642992.6719958 1.1439623 1.316 1.308l5.749 1.547-1.485 5.979c-.1692331.6409396.0129342 1.3235915.479 1.795l4.194 4.193-2 2h-4.057c.059-.64.111-1.307.111-2 .0034264-9.1733256-6.8922429-16.88178393-16.0092962-17.89630412-9.1170534-1.01452019-17.5386067 4.98948052-19.55185748 13.93915842-2.01325075 8.9496779 3.02591478 17.9816985 11.69915368 20.9691457-.2063015.7266443-.1807828 1.4995462.073 2.211zm16.968-14.759c-.0010879.7024341.1842164 1.3925804.537 2h-1.537c-1.4288656.0003935-2.7490131.7629446-3.4632755 2.0004769s-.7141574 2.7620892.0002755 3.9995231h-2.537c-1.0859381.0009318-2.1244132.4452185-2.875 1.23-7.8096871-2.4983039-12.466742-10.4961762-10.7847436-18.5213626s9.1585943-13.47996744 17.3141977-12.6321069c8.1556035.8478606 14.3502797 7.7239138 14.3455459 15.9234695 0 .676-.057 1.353-.119 2h-6.881c-2.209139 0-4 1.790861-4 4z"/><path id="Shape" d="m46 42c.5522847 0 1-.4477153 1-1s-.4477153-1-1-1h-1c-.5522847 0-1 .4477153-1 1s.4477153 1 1 1z"/><path id="Shape" d="m20 15c-1.6568542 0-3 1.3431458-3 3s1.3431458 3 3 3 3-1.3431458 3-3-1.3431458-3-3-3zm0 4c-.5522847 0-1-.4477153-1-1s.4477153-1 1-1 1 .4477153 1 1-.4477153 1-1 1z"/><path id="Shape" d="m34 15c-1.6568542 0-3 1.3431458-3 3s1.3431458 3 3 3 3-1.3431458 3-3-1.3431458-3-3-3zm0 4c-.5522847 0-1-.4477153-1-1s.4477153-1 1-1 1 .4477153 1 1-.4477153 1-1 1z"/></g></g></g></svg>