<svg height="512" viewBox="0 0 60 60" width="512" xmlns="http://www.w3.org/2000/svg"><g id="Page-1" fill="none" fill-rule="evenodd"><g id="020---Cloudy" fill-rule="nonzero" transform="translate(-1)"><path id="Shape" d="m53.48 48.69c.3208531.8468223.4868272 1.7444368.49 2.65-.0297261 4.2572243-3.5027483 7.685491-7.76 7.66h-25c-2.9532057.0199584-5.7933771-1.1340917-7.8956745-3.2082585s-3.2945011-4.8985349-3.3143255-7.8517415c.0020991-3.5473983 1.714833-6.8760594 4.6-8.94 1.9232565-1.389937 4.2370673-2.1355371 6.61-2.13.13 0 .27 0 .41.01-.2788881-1.1150194-.4166327-2.2606511-.41-3.41.0995119-6.66395 4.6727653-12.4258988 11.1401203-14.0356976 6.4673549-1.6097988 13.2080606 1.3359758 16.4198797 7.1756976 1.1526226 2.1024532 1.7546317 4.4623289 1.75 6.86.0016589.0634976-.0016848.1270273-.01.19.568368-.1240713 1.1482519-.187758 1.73-.19 4.0239029-.0527275 7.4012201 3.0199402 7.7279999 7.0308988.3267798 4.0109587-2.5086283 7.589788-6.4879999 8.1891012z" fill="#e8edfc"/><path id="Shape" d="m60 41.13c-.0126883-2.0449987-.8375251-4.0011341-2.2929326-5.4377863s-3.4220762-2.2360494-5.4670674-2.2222137c-.4968675.0040147-.9923033.053893-1.48.149 3.6694183.6855364 6.3065932 3.9217188 6.2372525 7.6539812-.0693407 3.7322625-2.8249024 6.8682547-6.5172525 7.4170188.3208531.8468223.4868272 1.7444368.49 2.65-.0297261 4.2572243-3.5027483 7.685491-7.76 7.6601412l3-.0001412c4.2572517.025491 7.7302739-3.4027757 7.76-7.66-.0031728-.9055632-.1691469-1.8031777-.49-2.65 3.7370887-.5731013 6.5021926-3.7792646 6.52-7.56z" fill="#cad9fc"/><circle id="Oval" cx="29" cy="30" fill="#a4c2f7" r="2"/><circle id="Oval" cx="43" cy="30" fill="#a4c2f7" r="2"/><path id="Shape" d="m52 20c.019263 2.5878932-1.1765079 5.034966-3.23 6.61-3.2118191-5.8397218-9.9525248-8.7854964-16.4198797-7.1756976-6.467355 1.6097988-11.0406084 7.3717476-11.1401203 14.0356976-.0066327 1.1493489.1311119 2.2949806.41 3.41-.14-.01-.28-.01-.41-.01-2.3729327-.0055371-4.6867435.740063-6.61 2.13h-1.39c-6.34016153-.1582661-11.35536248-5.4195295-11.21-11.76-.08384949-5.2312782 3.32508603-9.8787119 8.34-11.37-.38314033-.9921214-.57977078-2.0464675-.58-3.11-.10174354-4.38942999 3.370721-8.03193792 7.76-8.14 1.6337521.00010392 3.2220857.5377478 4.52 1.53 2.3758683-3.21775445 6.1302327-5.12643918 10.13-5.15 6.2877653.11955741 11.6066267 4.68337542 12.68 10.88 4.1297496.4403892 7.2357122 3.9677202 7.15 8.12z" fill="#a4c2f7"/><path id="Shape" d="m44.85 11.88c-1.0733733-6.19662458-6.3922347-10.76044259-12.68-10.88-.5139117.00141742-1.0272371.0348153-1.537.1 5.6829442.77681048 10.2150929 5.13239246 11.217 10.78 4.1297496.4403892 7.2357122 3.9677202 7.15 8.12.0039997 1.6909979-.5050837 3.3434268-1.46 4.739.4577004.5909681.8689308 1.2165063 1.23 1.871 2.0534921-1.575034 3.249263-4.0221068 3.23-6.61.0857122-4.1522798-3.0202504-7.6796108-7.15-8.12z" fill="#7facfa"/><path id="Shape" d="m34.326 19.08c-.483-.047-.97-.08-1.466-.08-8.040878-.0487525-14.5993461 6.4291338-14.65 14.47-.0066327 1.1493489.1311119 2.2949806.41 3.41-.14-.01-.28-.01-.41-.01-2.3054174-.0035041-4.5561438.7020517-6.447 2.021.4793465.0687113.9627693.1051267 1.447.109h1.39c1.9232565-1.389937 4.2370673-2.1355371 6.61-2.13.13 0 .27 0 .41.01-.2788881-1.1150194-.4166327-2.2606511-.41-3.41.0415037-7.4478383 5.7038851-13.6602254 13.116-14.39z" fill="#7facfa"/><path id="Shape" d="m22.982 5.039c.7399627.26024145 1.4344336.63514772 2.058 1.111 2.0344589-2.79216687 5.1321676-4.61967024 8.56-5.05-3.9689056-.48847452-7.9279349.98022171-10.618 3.939z" fill="#fff"/><path id="Shape" d="m53.51 33.66c.075-.016.148-.021.223-.035-.073-.014-.146-.029-.219-.041-.002.026 0 .052-.004.076z" fill="#fff"/><path id="Shape" d="m12.333 38.953c.7541236.0594592 1.51106.0751522 2.267.047-2.885167 2.0639406-4.5979009 5.3926017-4.6 8.94.0198244 2.9532066 1.2120281 5.7775747 3.3143255 7.8517415s4.9424688 3.2282169 7.8956745 3.2082585l3 .0002546c-2.9532057.0197038-5.7933771-1.1343463-7.8956745-3.2085131s-3.2945011-4.8985349-3.3143255-7.8517415c.0020991-3.5473983 1.714833-6.8760594 4.6-8.94-.75594.0281522-1.5128764.0124592-2.267-.047-5.9635544-.628316-10.45326863-5.7176437-10.333-11.713-.08384949-5.2312782 3.32508603-9.8787119 8.34-11.37-.3831403-.9921214-.5797708-2.0464675-.58-3.11-.0834495-3.83257164 2.5694498-7.1832267 6.319-7.981-2.3429347-.4347346-4.7567906.21354039-6.5666872 1.76357634-1.8098967 1.55003595-2.82162237 3.83550566-2.7523128 6.21742366.00022922 1.0635325.19685967 2.1178786.58 3.11-5.01491397 1.4912881-8.42384949 6.1387218-8.34 11.37-.12026863 5.9953563 4.3694456 11.084684 10.333 11.713z" fill="#fff"/><path id="Shape" d="m3.741 19.19 1.578 1.229c-1.51275485 1.9510481-2.32910132 4.3522121-2.319 6.821h-2c-.00960901-2.9139186.95518827-5.7474166 2.741-8.05z" fill="#fff"/><g fill="#428dff"><path id="Shape" d="m29 33c1.6568542 0 3-1.3431458 3-3s-1.3431458-3-3-3-3 1.3431458-3 3 1.3431458 3 3 3zm0-4c.5522847 0 1 .4477153 1 1s-.4477153 1-1 1-1-.4477153-1-1 .4477153-1 1-1z"/><path id="Shape" d="m43 33c1.6568542 0 3-1.3431458 3-3s-1.3431458-3-3-3-3 1.3431458-3 3 1.3431458 3 3 3zm0-4c.5522847 0 1 .4477153 1 1s-.4477153 1-1 1-1-.4477153-1-1 .4477153-1 1-1z"/><path id="Shape" d="m36 38c2.243 0 4-1.318 4-3 0-.5522847-.4477153-1-1-1s-1 .4477153-1 1c0 .408-.779 1-2 1s-2-.592-2-1c0-.5522847-.4477153-1-1-1s-1 .4477153-1 1c0 1.682 1.757 3 4 3z"/><path id="Shape" d="m2.664 24.3c-.55228475.0027614-1.00223858-.4427153-1.005-.995s.44271525-1.0022386.995-1.005h.01c.55228475 0 1 .4477153 1 1s-.44771525 1-1 1z"/><path id="Shape" d="m12.088 39.941c-1.9847059 2.1901342-3.08519944 5.0393719-3.088 7.995.04734305 6.698941 5.5079662 12.0955952 12.207 12.064h25c4.8077901.0216164 8.7259671-3.8522748 8.759-8.66.0002085-.6418952-.0729326-1.2817121-.218-1.907 3.7043018-1.0628771 6.2554975-4.4522295 6.252-8.306-.0183399-2.439872-1.0571398-4.7606759-2.8645516-6.3997531s-4.2184024-2.4467651-6.6484484-2.2272469c-.1224095-1.9577649-.622609-3.8733285-1.473-5.641 1.9076626-1.7703303 2.9899741-4.256457 2.986-6.859.0502295-4.3782453-3.0279325-8.1701475-7.323-9.021-1.4365675-6.33360797-7.0134868-10.86673875-13.507-10.979-3.9823359.00912347-7.7596532 1.76706962-10.331 4.808-1.305057-.78089597-2.7981583-1.19159389-4.319-1.188-4.9395929.11256444-8.85716823 4.20008024-8.76 9.14.00163857.8334235.11190068 1.6630786.328 2.468-2.11358814.8023236-3.9641249 2.1735274-5.347 3.962-.17579035.2116844-.25351502.4880123-.21385434.7602981s.19298228.5149599.42185434.6677019c.44113912.2911585 1.03050727.2051193 1.37-.2 1.33105315-1.7319021 3.18458456-2.9889793 5.286-3.585l-.005-.018c2.163511-.5826133 4.4606707-.4140985 6.516.478.1259374.0559467.2621948.0849014.4.085.4739764.0005281.8832163-.3317555.9800309-.7957393.0968145-.4639837-.1453939-.9321981-.5800309-1.1212607-2.1721219-.9476454-4.579133-1.2197757-6.908-.781-.1649945-.6267182-.2493424-1.2719289-.251-1.92-.0980324-3.83573529 2.9246378-7.02831894 6.76-7.14 1.0950003.00034893 2.1714987.28238738 3.126.819-.5024002.76069026-.9335601 1.56610239-1.288 2.406-.2062147.51030123.0387045 1.09131383.548 1.3.1198481.0495941.248296.0750798.378.075.4069798.0016321.7743497-.24354478.929-.62.4126648-1.00826862.9530834-1.95937836 1.608-2.83.006-.007.015-.01.02-.018 2.1838444-2.97099599 5.6447726-4.7333546 9.332-4.752 5.3594054.1014345 10.0091081 3.7270131 11.414 8.9-1.1351899.0821973-2.2420368.393094-3.254.914-.4896004.2557078-.6792078.8598996-.4235 1.3495s.8598996.6792078 1.3495.4235c1.1246626-.5846745 2.3963314-.8260029 3.657-.694 3.5378698.4822771 6.1542139 3.5370426 6.087 7.107.0031345 1.8857189-.718628 3.7005076-2.016 5.069-3.782392-5.7584899-10.8812591-8.3724098-17.4948679-6.4418988-6.6136089 1.930511-11.1915432 7.9528867-11.2821321 14.8418988-.0003703.8141746.0641675 1.627083.193 2.431-2.1807253.1424248-4.2832295.8676645-6.088 2.1h-1.1c-5.78678937-.1613522-10.35308019-4.9726809-10.212-10.76 0-.5522847-.44771525-1-1-1s-1 .4477153-1 1c-.11214452 6.4521908 4.67972667 11.9411479 11.088 12.701zm23.774-19.941c7.2640275-.0308364 13.2672293 5.6578217 13.627 12.913-.3885105.1250384-.7680552.2763885-1.136.453-.321539.1571969-.5347898.4739918-.5594229.8310512-.024633.3570594.143094.7001374.44.9.296906.1998625.6778839.2261457.9994229.0689488.4891984-.2399811 1.0056101-.4199529 1.538-.536 1.9849705-.4448047 4.0646928.028869 5.6612596 1.2893982 1.5965667 1.2605291 2.5398528 3.1735956 2.5677404 5.2076018-.0042636 3.2947052-2.4165878 6.0913009-5.675 6.579-.0504485.0158455-.0995952.035571-.147.059-.0616695-.0115808-.1242538-.0176049-.187-.018-.9740415.1040298-1.9590729.0018127-2.891-.3-.5246705-.172589-1.089911.1128295-1.2625.6375s.1128295 1.089911.6375 1.2625c.8926321.2933608 1.8263984.4422368 2.766.441.171 0 .336-.017.5-.027.1387885.5154875.2130232 1.0462155.221 1.58-.0319063 3.7018908-3.0530318 6.6800809-6.755 6.659h-25c-3.636756.0627938-7.0244539-1.8414465-8.8612006-4.9809208-1.8367467-3.1394742-1.8367467-7.0256842 0-10.1651584 1.8367467-3.1394743 5.2244446-5.0437146 8.8612006-4.9809208 1.3479919-.0033085 2.6834263.2590211 3.93.772.5003195.1732464 1.0489653-.0735144 1.251306-.5627916.2023406-.4892772-.0117613-1.0514725-.488306-1.2822084-1.0979062-.4514365-2.2557378-.7404733-3.437-.858-.162935-.8130583-.2479864-1.6397983-.254-2.469.0577857-7.4872256 6.1656669-13.514581 13.653-13.473z"/><path id="Shape" d="m45 55c0 .5522847.4477153 1 1 1h1c.5522847 0 1-.4477153 1-1s-.4477153-1-1-1h-1c-.5522847 0-1 .4477153-1 1z"/><path id="Shape" d="m42 54h-22c-.5522847 0-1 .4477153-1 1s.4477153 1 1 1h22c.5522847 0 1-.4477153 1-1s-.4477153-1-1-1z"/></g></g></g></svg>