<svg height="512" viewBox="0 0 60 60" width="512" xmlns="http://www.w3.org/2000/svg"><g id="Page-1" fill="none" fill-rule="evenodd"><g id="021---Thunder-Storm" fill-rule="nonzero" transform="translate(-1)"><path id="Shape" d="m47 43 3 4h-3l10 12-3-9h3l-3.5-8.75z" fill="#a4c2f7"/><path id="Shape" d="m51 50 1 3 5 6-3-9z" fill="#7facfa"/><path id="Shape" d="m53.5 41.25-2.708.729 3.208 8.021h3z" fill="#7facfa"/><path id="Shape" d="m32 43 3 4h-3l10 12-3-9h3l-2.8-7z" fill="#a4c2f7"/><path id="Shape" d="m36 50 1 3 5 6-3-9z" fill="#7facfa"/><path id="Shape" d="m39.2 43h-3l2.8 7h3z" fill="#7facfa"/><path id="Shape" d="m17.93 43c-2.9313424-.0185457-5.6694197-1.4655811-7.3361381-3.8770457-1.66671837-2.4114647-2.05258813-5.4842621-1.0338619-8.2329543-4.50345602-.7212743-7.75545137-4.6972528-7.56918917-9.2542978s3.75189174-8.2543635 8.29918917-8.6057022c1.1575327-5.72201404 5.5297871-10.25263324 11.2070138-11.61293623 5.6772266-1.36030298 11.6279587.69685686 15.2529862 5.27293623 3.2633145-2.34289174 7.68421-2.23934391 10.834254.25376386 3.1500439 2.49310777 4.2663596 6.77199524 2.735746 10.48623614 6.3180604 1.6666628 10.4172386 7.7640659 9.5759036 14.2438659-.841335 6.4797999-6.3617129 11.3282032-12.8959036 11.3261341z" fill="#e8edfc"/><path id="Shape" d="m50.32 17.43c1.2544864-3.0281938.7616487-6.4991324-1.2862039-9.0584279-2.0478526-2.55929555-5.3261965-3.80137614-8.5557961-3.2415721 2.7042512.44710637 5.0567428 2.10361398 6.3891616 4.49892994s1.4991541 5.26767276.4528384 7.80107006c6.3180604 1.6666628 10.4172386 7.7640659 9.5759036 14.2438659-.841335 6.4797999-6.3617129 11.3282032-12.8959036 11.3261341h3c6.5341907.0020691 12.0545686-4.8463342 12.8959036-11.3261341.841335-6.4798-3.2578432-12.5772031-9.5759036-14.2438659z" fill="#cad9fc"/><path id="Shape" d="m26.122 18.384 4.864 20c.0361234.151198-.0001333.3105964-.098102.4312938-.0979687.1206975-.2465029.1889615-.401898.1847062h-3.862c-.1468912-.0017084-.2871018.0612662-.3833998.1722015-.096298.1109354-.1389391.2586058-.1166002.4037985l2.967 18.848c.0304213.2348054-.1044398.4597564-.325877.5435692-.2214373.0838128-.4714479.0045337-.604123-.1915692l-14.914-23.008c-.0986629-.1553323-.1040299-.3523047-.0139719-.5127792.0900579-.1604745.2609837-.2585117.4449719-.2552208h3.33c.1771718.0036118.3430198-.0868251.4359403-.237718.0929204-.1508929.0990301-.3396973.0160597-.496282l-8.4-15.532c-.08287721-.1564256-.07686359-.3450138.01581118-.4958415s.25819437-.2414088.43518882-.2381585h16.114c.2341817-.0012893.439146.1570735.497.384z" fill="#e8edfc"/><path id="Shape" d="m26.624 39h-3c-.1468912-.0017084-.2871018.0612662-.3833998.1722015-.096298.1109354-.1389391.2586058-.1166002.4037985l2.376 15.093 2.661 4.107c.1326751.1961029.3826857.275382.604123.1915692.2214372-.0838128.3562983-.3087638.325877-.5435692l-2.972-18.848c-.0224991-.1460697.0207763-.2946097.1182075-.4057391s.2390348-.1734614.3867925-.1702609z" fill="#cad9fc"/><path id="Shape" d="m30.986 38.384-4.864-20c-.0581206-.2280211-.2647034-.3866767-.5-.384l-3-.0000334c.2352966-.0026433.4418794.1560123.5.3840334l4.864 20c.0361234.151198-.0001333.3105964-.098102.4312938-.0979687.1206975-.2465029.1889615-.401898.1847062h3c.1553951.0042553.3039293-.0640087.401898-.1847062.0979687-.1206974.1342254-.2800958.098102-.4312938z" fill="#cad9fc"/><path id="Shape" d="m50.12 28.33c-.0810272.2140079-.1217135.4411729-.12.67.0006063 1.066726.8382948 1.9452308 1.9037859 1.9965476 1.0654911.0513169 1.9837287-.7426177 2.0868471-1.8043481s-.6451804-2.017524-1.700633-2.1721995z" fill="#a4c2f7"/><path id="Shape" d="m37.71 27.02c-1.0554526.1546755-1.8037514 1.1104691-1.700633 2.1721995s1.021356 1.855665 2.0868471 1.8043481c1.0654911-.0513168 1.9031796-.9298216 1.9037859-1.9965476.0017135-.2288271-.0389728-.4559921-.12-.67z" fill="#a4c2f7"/><path id="Shape" d="m45 33c1.6568542 0 3 1.3431458 3 3v1h-6v-1c0-1.6568542 1.3431458-3 3-3z" fill="#a4c2f7" transform="matrix(-1 0 0 -1 90 70)"/><path id="Shape" d="m28.5 54.669-7.567-11.669c-2.9295247-.0235923-5.6642447-1.4715813-7.3303541-3.8813013-1.6661095-2.4097201-2.0550872-5.4795836-1.0426459-8.2286987-4.50345602-.7212743-7.75545137-4.6972528-7.56918917-9.2542978s3.75189174-8.2543635 8.29918917-8.6057022c1.2867277-6.5026242 6.7145134-11.37328541 13.318-11.951-7.7110602-.83421669-14.7864462 4.34766454-16.318 11.951-4.54729743.3513387-8.11292697 4.0486572-8.29918917 8.6057022s3.06573315 8.5330235 7.56918917 9.2542978c-1.01244135 2.7491151-.62346362 5.8189786 1.0426459 8.2286987 1.6661094 2.40972 4.4008294 3.857709 7.3303541 3.8813013l7.567 11.669 2.661 4.107c.1326751.1961029.3826857.275382.604123.1915692.2214372-.0838128.3562983-.3087638.325877-.5435692z" fill="#fff"/><path id="Shape" d="m13.116 5.307 1.484 1.339c-.8318779.92760259-1.5404106 1.95880679-2.108 3.068-.549103 1.1176656-.9601254 2.2980117-1.224 3.515l-1.96-.4c.29940974-1.3921998.7696365-2.7420864 1.4-4.019.6480476-1.26674094 1.4574482-2.44420372 2.408-3.503z" fill="#fff"/><g fill="#428dff"><path id="Shape" d="m11.622 10.254c-.5522847.0030376-1.0024624-.44221526-1.0055-.9945s.4422153-1.00246243.9945-1.0055h.011c.5522847 0 1 .44771525 1 1s-.4477153 1-1 1z"/><path id="Shape" d="m61 30c.0013096-5.9569197-3.7669988-11.2623225-9.392-13.223 1.1378142-3.931043-.2344216-8.15864607-3.4640412-10.67206557s-7.6647563-2.8053467-11.1959588-.73693443c-3.0243665-3.42567385-7.3783345-5.38182554-11.948-5.368-2.2419425.01182932-4.4573784.48569024-6.508 1.392-2.0463531.91418887-3.8778869 2.24797883-5.376 3.915-.1888126.19831263-.2855316.46688129-.2665094.74004104.0190223.27315975.1520324.52573056.3665094.69595896.41824.32807672 1.017268.28479435 1.384-.1 2.6558946-2.94626347 6.433372-4.6326892 10.4-4.643 4.2775589-.01241527 8.3223604 1.94635316 10.965 5.31.008.009.02.014.028.023.7618584.96298918 1.39362 2.02208922 1.879 3.15.1261307.3484076.4345731.5985117.8015246.6499257s.7322523-.1042913.949278-.4046188c.2170258-.3003275.2501962-.6960402.0861974-1.0283069-.4096768-.9552042-.9120834-1.86790947-1.5-2.725 1.1622302-.63695622 2.4656757-.97218686 3.791-.975 4.4162219.00495988 7.9950401 3.58377808 8 8 .0005414.7638472-.1096029 1.5237423-.327 2.256-2.7082459-.520134-5.5095269-.2357647-8.058.818-.3395636.1307825-.5812864.4356922-.6311527.7961375-.0498664.3604454.0999952.7195294.3912977.93759.2913024.2180606.6780629.2606764 1.009855.1112725 2.4158394-.994666 5.0870386-1.1881448 7.621-.552.022.007.038.025.06.03 5.8321635 1.5386424 9.6158997 7.1673401 8.8389157 13.1487988-.7769839 5.9814587-5.873204 10.4566613-11.9049157 10.4542012h-19.487l-.313-2h3.291c.4654954.0027308.9058786-.2108107 1.192-.578.2836434-.3593286.3858351-.8293366.277-1.274l-4.865-20c-.163609-.6778245-.7727314-1.1535201-1.47-1.148h-16.114c-.53336885-.0032463-1.02834231.2769848-1.3.736-.27185674.4505485-.28328663 1.0117561-.03 1.473l8 14.791h-2.5c-.554312-.0011741-1.0647673.301261-1.33.788-.2608567.4804842-.2382231 1.0651213.059 1.524l3.5 5.4c-3.479178-.9505227-5.8968346-4.1053396-5.91-7.712.0004615-.9431316.1698005-1.8785603.5-2.762.1051645-.2812893.0783479-.5949488-.0730395-.8543039-.1513874-.2593552-.4113166-.4369452-.7079605-.4836961-3.0968144-.5127363-5.60761965-2.7891716-6.42040187-5.8210922-.81278223-3.0319207.22266356-6.2590173 2.64774742-8.2520367 2.42508385-1.9930193 5.79164175-2.3836446 8.60865445-.9988711.3203279.1621467.7029956.1401275 1.0026105-.0576916.299615-.1978191.4701885-.5410743.446912-.8993475s-.2368302-.6765722-.5595225-.8339609c-1.6222059-.7966944-3.4296891-1.1398087-5.231-.993v-.014c-.055 0-.109.015-.164.021s-.1 0-.149 0c-.025 0-.045.018-.07.022-4.7445779.5528601-8.43571145 4.3840463-8.81157802 9.1459154-.37586658 4.7618692 2.66849177 9.124705 7.26757802 10.4150846-.190983.7741607-.28735351 1.5686298-.287 2.366.01820997 5.268304 4.1118895 9.623273 9.369 9.967l9.961 15.371c.2791487.4144229.7463302.6626365 1.246.662.1926883-.0003389.383622-.0366265.563-.107.6551472-.2536835 1.0445561-.9300471.935-1.624l-2.246-14.269h3.672l1.5 2h-1c-.3879065.0001454-.7407342.2246105-.9052432.5759056-.1645089.3512952-.111017.7660368.1372432 1.0640944l10 12c.3077541.3692232.8346582.4672586 1.2546152.2334328.4199569-.2338258.6141459-.7333551.4623848-1.1894328l-2.562-7.684h1.613c.3320758.0002548.6426171-.1643542.8288036-.4393251.1861865-.2749708.2237287-.6244312.1001964-.9326749l-2.252-5.628h5.823l1.5 2h-1c-.3879065.0001454-.7407342.2246105-.9052432.5759056-.1645089.3512952-.111017.7660368.1372432 1.0640944l10 12c.3077541.3692232.8346582.4672586 1.2546152.2334328.4199569-.2338258.6141459-.7333551.4623848-1.1894328l-2.562-7.684h1.613c.3320758.0002548.6426171-.1643542.8288036-.4393251.1861865-.2749708.2237287-.6244312.1001964-.9326749l-3.189-7.972c3.9067572-2.5920308 6.2566956-6.9675712 6.26-11.656zm-46.412 6h2.42c.5333689.0032463 1.0283423-.2769848 1.3-.736.2708402-.4508421.2822589-1.0115042.03-1.473l-7.997-14.791h14.9l4.621 19h-3.238c-.4431694-.0009436-.8643804.1928427-1.152.53-.2833423.3310686-.4079025.7694035-.341 1.2l2.607 16.56zm25.935 13h-1.523c-.3214436-.0000774-.6233283.1543712-.8113424.4150947-.1880141.2607234-.2392338.5959327-.1376576.9009053l1.324 3.973-5.24-6.289h.865c.3787721 0 .7250352-.2140024.8944272-.5527864s.132836-.744196-.0944272-1.0472136l-1.8-2.4h4.523zm15 0h-1.523c-.3214436-.0000774-.6233283.1543712-.8113424.4150947-.1880141.2607234-.2392338.5959327-.1376576.9009053l1.324 3.973-5.24-6.289h.865c.3787721 0 .7250352-.2140024.8944272-.5527864s.132836-.744196-.0944272-1.0472136l-1.908-2.543c1.416936-.1925008 2.795569-.6030211 4.087-1.217z"/><path id="Shape" d="m35 29c-.0043032 1.4646962 1.0523895 2.7171808 2.4969008 2.9595451 1.4445113.2423644 2.8521222-.5966521 3.3260992-1.9825451.0582493.0126245.1174587.0203184.177.023.4494307.0003074.8438561-.2992511.9641796-.7322756.1203235-.4330246-.0630173-.8931255-.4481796-1.1247244l-5-3c-.3065026-.1918041-.6926712-.2032165-1.0099658-.0298476-.3172946.173369-.5162906.5045139-.5204443.8660598-.0041536.3615458.1871822.6971751.5004101.8777878l.27.162c-.4847351.5462955-.7535374 1.2506571-.756 1.981zm3.993-.038c0 .014.007.024.007.038.0041542.4958882-.3557424.9199141-.8457127.9964086-.4899704.0764945-.9619886-.2176523-1.1091848-.6912086-.1471961-.4735564.0748996-.9834555.5218975-1.1982z"/><path id="Shape" d="m54.857 25.485c-.2844846-.4732297-.8986776-.6263303-1.372-.342l-5 3c-.385003.2315033-.5683703.6913367-.448313 1.1242424s.514068.7326155.963313.7327576c.0592061-.0027374.1180787-.010431.176-.023.3936685 1.1449448 1.4385556 1.9397863 2.6470367 2.0135902 1.2084811.0738038 2.3423266-.5879789 2.872397-1.6765096.5300704-1.0885306.3518721-2.3892256-.4514337-3.2950806l.27-.162c.2274248-.1364524.3913287-.357661.4556538-.6149615.0643252-.2573006.0238023-.5296159-.1126538-.7570385zm-1.857 3.515c0 .5522847-.4477153 1-1 1s-1-.4477153-1-1c0-.014.006-.024.007-.038l1.426-.855c.3438522.1651587.5637916.5115536.567.893z"/><path id="Shape" d="m42 32c-.5522847 0-1 .4477153-1 1v1c0 2.209139 1.790861 4 4 4s4-1.790861 4-4v-1c0-.5522847-.4477153-1-1-1zm3 4c-1.1045695 0-2-.8954305-2-2h4c0 1.1045695-.8954305 2-2 2z"/></g></g></g></svg>