<svg height="512" viewBox="0 0 55 60" width="512" xmlns="http://www.w3.org/2000/svg"><g id="Page-1" fill="none" fill-rule="evenodd"><g id="022---Tornado" fill-rule="nonzero"><path id="Shape" d="m49 5c-25 11-43 4-43 4 5-7 15-8 28-8 12 0 15 4 15 4z" fill="#a4c2f7"/><path id="Shape" d="m34 1c-.8073333 0-1.6026667.00433333-2.386.013 11.471.138 14.386 3.987 14.386 3.987-8.3507839 3.77679642-17.3627522 5.8745943-26.523 6.174 10.1767869.1537476 20.2606555-1.95504227 29.523-6.174 0 0-3-4-15-4z" fill="#7facfa"/><path id="Shape" d="m46 25c1.2077693 8.8085096-1.7486788 17.6778539-8 24-2 8-7 10-7 10h-3c-6-2-6-10-6-10-11-8-10-23-10-23-3-2-2-7-2-7-2.95467902-2.430707-4.46324547-6.2021232-4-10 0 0 18 7 43-4 1 7-1 11-1 11 2 4-2 9-2 9z" fill="#e8edfc"/><path id="Shape" d="m48 16s2-4 1-11c-.964.424-1.914.813-2.857 1.185.63 6.263-1.143 9.815-1.143 9.815 2 4-2 9-2 9 1.2077693 8.8085096-1.7486788 17.6778539-8 24-2 8-7 10-7 10h3s5-2 7-10c6.2513212-6.3221461 9.2077693-15.1914904 8-24 0 0 4-5 2-9z" fill="#cad9fc"/><path id="Shape" d="m27.88 32.33c.0810272.2140079.1217135.4411729.12.67-.0006063 1.066726-.8382948 1.9452308-1.9037859 1.9965476-1.0654911.0513169-1.9837287-.7426177-2.0868471-1.8043481s.6451804-2.017524 1.700633-2.1721995z" fill="#a4c2f7"/><path id="Shape" d="m40.29 31.02c1.0554526.1546755 1.8037514 1.1104691 1.700633 2.1721995s-1.021356 1.855665-2.0868471 1.8043481c-1.0654911-.0513168-1.9031796-.9298216-1.9037859-1.9965476-.0017135-.2288271.0389728-.4559921.12-.67z" fill="#a4c2f7"/><path id="Shape" d="m32 37h2c1.1045695 0 2 .8954305 2 2v2h-6v-2c0-1.1045695.8954305-2 2-2z" fill="#a4c2f7"/><path id="Shape" d="m25 49c-11-8-10-23-10-23-3-2-2-7-2-7-2.954679-2.430707-4.46324547-6.2021232-4-10 4.69-6.565 13.778-7.853 25.614-7.987-.209-.003-.399-.013-.614-.013-13 0-23 1-28 8-.46324547 3.7978768 1.04532098 7.569293 4 10 0 0-1 5 2 7 0 0-1 15 10 23 0 0 0 8 6 10h3c-6-2-6-10-6-10z" fill="#fff"/><path id="Shape" d="m15.136 38.362-1.856.738c-1.0063453-2.5643925-1.6882954-5.2444898-2.03-7.978l1.984-.252c.3202969 2.5666509.9592207 5.0833792 1.902 7.492z" fill="#fff"/><g fill="#428dff"><path id="Shape" d="m13 35.932c-.5522847.0027614-1.0022385-.4427153-1.0049999-.995-.0027615-.5522847.4427152-1.0022385.9949999-1.005h.01c.5522847 0 1 .4477153 1 1s-.4477153 1-1 1z"/><path id="Shape" d="m52 13c-.545859.0005356-.9891562.4411543-.993.987-.0039872.5486975.4324571.9993785.981 1.013.2741498-.0291128.5468874.0663894.7429897.2601664.1961024.193777.294851.465356.2690103.7398336 0 .677-.432 2.114-3.512 3.526.1797806-1.1922705.043579-2.4108444-.395-3.534 1.2458207-3.5735929 1.5556644-7.40670342.9-11.134h-.01c-.0202959-.1660472-.0822115-.324276-.18-.46-.138-.178-3.445-4.398-15.803-4.398-12.015 0-23.26.644-28.814 8.419 0 .006 0 .015-.009.022-.08189471.1177912-.13748608.2518244-.163.393-.33614644 2.7340371.24340631 5.5023862 1.648 7.872-1.08187867-.366553-2.1112507-.8728346-3.062-1.506-1.208-.906-1.4-1.46-1.375-1.6.041-.209.6-.523 1.022-.634.53200814-.1382352.8527092-.6799455.71803604-1.2128665-.13467317-.532921-.67422609-.8572387-1.20803604-.7261335-.221.055-2.172.587-2.493 2.176-.349 1.733 1.521 3.136 2.136 3.597 1.99740825 1.2767582 4.20309875 2.1936242 6.517 2.709-.169 1.5-.272 5 2.064 6.974-.0227748 1.5521363.067128 3.103879.269 4.643.0633513.4987892.4872048.8729791.99.874.0428003.0002947.0855695-.0023783.128-.008.5478576-.0696034.9355706-.5701382.866-1.118-.1533802-1.1941613-.2381859-2.3961326-.254-3.6 2.6411203.5180885 5.3287772.7613851 8.02.726.5522847 0 1-.4477153 1-1s-.4477153-1-1-1c-2.8729556.0718943-5.7429725-.2323537-8.537-.905-1.69-1.224-1.7-3.848-1.58-5.145 2.2899618.4352188 4.616051.652191 6.947.648 7.5707528-.1057785 14.9999245-2.0674562 21.636-5.713.488772-.2573647.6763647-.862228.419-1.351s-.862228-.6763647-1.351-.419c-11.947 6.285-22.158 6.043-28.487 4.593-2.01947788-1.9075295-3.15447584-4.5691414-3.133-7.347 4.5750844 1.2960344 9.3132305 1.9251827 14.068 1.868 9.355828-.0929579 18.5980246-2.0610901 27.18-5.788.3785394 3.010302.0445672 6.0674323-.975 8.925-1.3744603.7958856-2.8714576 1.3581889-4.43 1.664-.4897554.1227443-.8111846.5913178-.7493732 1.0924224s.4874708.8775246.9923732.8775776c.0822727.0003241.1642562-.0097558.244-.03 1.4530079-.3316816 2.8658878-.8195174 4.214-1.455.1654575.9538172.1023994 1.9332737-.184 2.858-3.66 1.18-9.616 2.227-19.316 2.627-.5522847.011598-.9905979.4687153-.979 1.021.011598.5522847.4687153.990598 1.021.979h.042c8.307-.346 14.165-1.186 18.248-2.289-.3008472.5527977-.6396596 1.0840715-1.014 1.59-.9990222.5513712-2.1389348.7945943-3.276.699-.5522847 0-1 .4477153-1 1s.4477153 1 1 1c1.0710876.02273 2.1386347-.1306455 3.16-.454.6517446 8.0289866-2.2037465 15.9470482-7.83 21.712 0 0-.008.011-.013.016l-.013.008c-.6569827.5080092-1.4747301.7628454-2.304.718-.5522847 0-1 .4477153-1 1s.4477153 1 1 1c.4665279-.0002949.931625-.0515998 1.387-.153-1.84 5.034-4.874 6.794-5.6 7.153h-2.619c-.9450545-.341985-1.7958633-.9025663-2.483-1.636 2.2344461-.2391912 4.3390819-1.1677893 6.022-2.657.3789722-.3923789.3735524-1.0160848-.0121814-1.4018186s-1.0094397-.3911536-1.4018186-.0121814c-1.6714574 1.3786682-3.7588157 2.1537211-5.925 2.2-.6461388-1.3015238-1.0690244-2.7023535-1.251-4.144 1.5969077.4056572 3.235593.6241262 4.883.651.5522847 0 1-.4477153 1-1s-.4477153-1-1-1c-1.8744915-.0493629-3.7336873-.3521087-5.527-.9-3.3039997-2.500619-5.8448997-5.8733634-7.337-9.739-.2019538-.5056909-.7713891-.7568469-1.281-.565-.2515723.0935982-.4545969.2849615-.5628955.5305641-.1082987.2456026-.1126645.5245646-.0121045.7734359 1.5925444 4.1017266 4.2661802 7.6956019 7.737 10.4.1050067 1.716535.4862373 3.4048903 1.129 5-1.1414865-.061632-2.2662011-.3022325-3.333-.713-.677-.277-1.813-.887-1.813-1.787-.0261168-.2741851.0722548-.5456088.267977-.7393932.1957223-.1937844.4681113-.2894505.742023-.2606068.5522847-.0027614.9977614-.4527153.995-1.005s-.4527153-.9977614-1.005-.995c-.8026156-.0234737-1.5793921.2850527-2.1471697.8528303s-.876304 1.3445541-.8528303 2.1471697c0 1.532 1.083 2.824 3.048 3.638 1.6435376.629488 3.3922445.9390417 5.152.912h.038c1.060116 1.5986028 2.6255041 2.7957058 4.446 3.4.1019674.0335176.2086659.0504002.316.05h3c.127363-.0000472.2535725-.0241356.372-.071.22-.089 5.378-2.237 7.524-10.4 6.2703354-6.420408 9.269878-15.3501868 8.147-24.254.7470075-1.046612 1.3604184-2.1823964 1.826-3.381 4.761-1.757 6.131-3.954 6.131-5.894.0234737-.8026156-.2850527-1.5793921-.8528303-2.1471697s-1.3445541-.876304-2.1471697-.8528303zm-44.318-4.513c4.751-5.387 13.363-6.487 26.318-6.487 7.617 0 11.436 1.658 13.1 2.724-19.775 8.222-34.98 5.027-39.418 3.763z"/><path id="Shape" d="m17.2 6.02c-.541239-.11045693-1.069543.23876096-1.18.78000001-.1104569.54123904.238761 1.06954303.78 1.17999999 2.1320568.37279151 4.2936913.55019415 6.458.53 4.8238305.03508566 9.6109461-.84057311 14.11-2.581.3318997-.1329028.5676849-.43277645.6185376-.78666145s-.0909529-.70801781-.372-.92900001-.6586379-.27524135-.9905376-.14233854c-6.1992047 2.30976307-12.8894771 2.98106358-19.424 1.949z"/><path id="Shape" d="m23 33c-.0043032 1.4646962 1.0523895 2.7171808 2.4969008 2.9595451 1.4445113.2423644 2.8521222-.5966521 3.3260992-1.9825451.0582493.0126245.1174587.0203184.177.023.4494307.0003074.8438561-.2992511.9641796-.7322756.1203235-.4330246-.0630173-.8931255-.4481796-1.1247244l-5-3c-.3065026-.1918041-.6926712-.2032165-1.0099658-.0298476-.3172946.173369-.5162906.5045139-.5204443.8660598-.0041536.3615458.1871822.6971751.5004101.8777878l.27.162c-.4847351.5462955-.7535374 1.2506571-.756 1.981zm3.993-.038c0 .014.007.024.007.038.0041542.4958882-.3557424.9199141-.8457127.9964086-.4899704.0764945-.9619886-.2176523-1.1091848-.6912086-.1471961-.4735564.0748996-.9834555.5218975-1.1982z"/><path id="Shape" d="m42.857 29.485c-.2844846-.4732297-.8986776-.6263303-1.372-.342l-5 3c-.385003.2315033-.5683703.6913367-.448313 1.1242424s.514068.7326155.963313.7327576c.0592061-.0027374.1180787-.010431.176-.023.3936685 1.1449448 1.4385556 1.9397863 2.6470367 2.0135902 1.2084811.0738038 2.3423266-.5879789 2.872397-1.6765096.5300704-1.0885306.3518721-2.3892256-.4514337-3.2950806l.27-.162c.2274248-.1364524.3913287-.357661.4556538-.6149615.0643252-.2573006.0238023-.5296159-.1126538-.7570385zm-1.857 3.515c0 .5522847-.4477153 1-1 1s-1-.4477153-1-1c0-.014.006-.024.007-.038l1.426-.855c.3438522.1651587.5637916.5115536.567.893z"/><path id="Shape" d="m32 36c-1.6568542 0-3 1.3431458-3 3v2c0 .5522847.4477153 1 1 1h6c.5522847 0 1-.4477153 1-1v-2c0-1.6568542-1.3431458-3-3-3zm3 3v1h-4v-1c0-.5522847.4477153-1 1-1h2c.5522847 0 1 .4477153 1 1z"/></g></g></g></svg>