<svg height="60" viewBox="0 0 60 60" width="60" xmlns="http://www.w3.org/2000/svg"><g id="Page-1" fill="none" fill-rule="evenodd"><g id="025---Cresent-Moon" fill-rule="nonzero"><path id="Shape" d="m49.72 29.21c-.158746 1.074216-.3892619 2.1365936-.69 3.18-1.3457098-2.2315561-3.4292369-3.9224321-5.89-4.78 2.1406822-1.3159747 3.901796-3.166695 5.11-5.37.1803273-.3167638.5438134-.4817542.9009661-.4089588.3571527.0727955.627068.3668869.6690339.7289588.2659055 2.2110755.2322687 4.4479196-.1 6.65z" fill="#a4c2f7"/><path id="Shape" d="m49.82 22.56c-.0419659-.3620719-.3118812-.6561633-.6690339-.7289588-.3571527-.0727954-.7206388.092195-.9009661.4089588-.3785464.6734251-.8098984 1.3157717-1.29 1.921.09137 1.6867842.0109563 3.378488-.24 5.049-.02.135-.051.268-.073.4.9390589.7920891 1.7437882 1.7308837 2.383 2.78.3007381-1.0434064.531254-2.105784.69-3.18.3322687-2.2020804.3659055-4.4389245.1-6.65z" fill="#7facfa"/><path id="Shape" d="m28.42 38.29c-.0047894 1.28736.2116945 2.5659682.64 3.78-4.1682059.1667958-7.5807684 3.3705999-8.01 7.52-11.77118777-2.1614022-20.25811857-12.5108369-20.07237968-24.4773745s8.98978197-22.04759004 20.82237968-23.8426255c2.1995695-.32406444 4.4324552-.35432946 6.64-.09.3620719.04196593.6561633.31188117.7289588.66903388.0727954.35715271-.092195.72063877-.4089588.90096612-5.2799167 2.8778177-8.2092423 8.739173-7.3413502 14.689477.8678921 5.9503041 5.349395 10.7307399 11.2313502 11.980523-2.6854546 2.1596023-4.2421744 5.4239297-4.23 8.87z" fill="#e8edfc"/><path id="Shape" d="m32.65 29.42c-5.8819552-1.2497831-10.3634581-6.0302189-11.2313502-11.980523-.8678921-5.950304 2.0614335-11.8116593 7.3413502-14.689477.3167638-.18032735.4817542-.54381341.4089588-.90096612-.0727955-.35715271-.3668869-.62706795-.7289588-.66903388-1.4663601-.17295771-2.9452483-.21445627-4.419-.124.476.03.95.067 1.419.124.3620719.04196593.6561633.31188117.7289588.66903388.0727954.35715271-.092195.72063877-.4089588.90096612-5.2799167 2.8778177-8.2092423 8.739173-7.3413502 14.689477.8678921 5.9503041 5.349395 10.7307399 11.2313502 11.980523-3.7444233 3.0377863-5.1805356 8.0981818-3.59 12.65-3.894461.1531861-7.1689209 2.9717085-7.9 6.8.9474268.2983916 1.9122311.5385073 2.889.719.4292316-4.1494001 3.8417941-7.3532042 8.01-7.52-1.5905356-4.5518182-.1544233-9.6122137 3.59-12.65z" fill="#cad9fc"/><circle id="Oval" cx="9" cy="22" fill="#a4c2f7" r="3"/><circle id="Oval" cx="18" cy="27" fill="#a4c2f7" r="2"/><path id="Shape" d="m59 48.65c.0220982 2.7240358-1.0392821 5.3451875-2.9504668 7.286381s-4.5154837 3.0432784-7.2395332 3.063619h-19.47c-4.6413131-.0374107-8.3743766-3.8286635-8.34-8.47 0-.32.02-.63.05-.94.4292316-4.1494001 3.8417941-7.3532042 8.01-7.52-1.5905356-4.5518182-.1544233-9.6122137 3.59-12.65 1.9516172-1.5721579 4.3839177-2.4264638 6.89-2.42 1.2259935-.0033021 2.4435295.2030026 3.6.61 2.4607631.8575679 4.5442902 2.5484439 5.89 4.78 1.0684033 1.7824248 1.6318502 3.821895 1.63 5.9.0019586.0568543-.0013892.1137674-.01.17 4.875692.9399277 8.3867432 5.2246716 8.35 10.19z" fill="#e8edfc"/><path id="Shape" d="m50.65 38.46c.0086108-.0562326.0119586-.1131457.01-.17.0018502-2.078105-.5615967-4.1175752-1.63-5.9-1.3457098-2.2315561-3.4292369-3.9224321-5.89-4.78-1.1564705-.4069974-2.3740065-.6133021-3.6-.61-.5019388.0029376-1.0030961.0400233-1.5.111.7151823.0948167 1.4188254.2623508 2.1.5 2.4607631.8575679 4.5442902 2.5484439 5.89 4.78 1.0684033 1.7824248 1.6318502 3.821895 1.63 5.9.0019586.0568543-.0013892.1137674-.01.17 5.196416 1.0339428 8.77772 5.8187777 8.3049632 11.0959245-.4727567 5.2771468-4.8475137 9.3492326-10.1449632 9.4430755h3c5.299276-.0915108 9.6766988-4.1642739 10.149592-9.4432011s-3.1109551-10.0648714-8.309592-11.0967989z" fill="#cad9fc"/><path id="Shape" d="m17.005 38c1.6568542 0 3 1.3431458 3 3v1h-6v-1c0-1.6568542 1.3431458-3 3-3z" fill="#a4c2f7" transform="matrix(-1 0 0 -1 34.01 80)"/><path id="Shape" d="m21.29 16.13c-.2836979.0523278-.5715179.0791017-.86.08-2.247187-.0042227-4.2234731-1.4871882-4.8556909-3.6436129-.6322177-2.1564248.230498-4.47172507 2.1196732-5.68864091 1.8891751-1.21691584 4.3539993-1.0450568 6.0560177.42225381-1.7634799 2.59515321-2.6276009 5.696856-2.46 8.83z" fill="#a4c2f7"/><path id="Shape" d="m23.75 7.3c-.9220176-.79713654-2.1011779-1.23399412-3.32-1.23-.5036389.00701978-1.0033081.09029798-1.482.247.6610427.20080791 1.2737311.53540387 1.8.983-1.6797937 2.47893383-2.5414184 5.4215361-2.464 8.415.6686429.3238868 1.4010614.4946934 2.144.5.2884821-.0008983.5763021-.0276722.86-.08-.1681216-3.1350528.6967565-6.23870729 2.462-8.835z" fill="#7facfa"/><path id="Shape" d="m24.05 49.59c-12.1599947-2.2597773-20.72879966-13.2284196-19.97851211-25.573829.75028756-12.3454095 10.58435061-22.19562442 22.92851211-22.966171-12.9110492-.76445511-24.19245644 8.63871153-25.76607745 21.4762853-1.57362102 12.8375738 7.102641 24.6871379 19.81607745 27.0637147-.280485 2.3763389.4629759 4.759821 2.0447384 6.5552836 1.5817624 1.7954626 3.8525215 2.8334292 6.2452616 2.8547164h3c-2.3927401-.0212872-4.6634992-1.0592538-6.2452616-2.8547164-1.5817625-1.7954626-2.3252234-4.1789447-2.0447384-6.5552836z" fill="#fff"/><path id="Shape" d="m2.812 31.557-1.933.514c-.70728437-2.6877736-.98571316-5.470374-.825-8.245l2 .128c-.14882007 2.5584273.10699234 5.1243135.758 7.603z" fill="#fff"/><g fill="#428dff"><path id="Shape" d="m1.155 28.888c-.55228475.0027614-1.00223858-.4427153-1.005-.995s.44271525-1.0022386.995-1.005h.01c.55228475 0 1 .4477153 1 1s-.44771525 1-1 1z"/><path id="Shape" d="m9 18c-2.209139 0-4 1.790861-4 4s1.790861 4 4 4 4-1.790861 4-4-1.790861-4-4-4zm0 6c-1.1045695 0-2-.8954305-2-2s.8954305-2 2-2 2 .8954305 2 2-.8954305 2-2 2z"/><path id="Shape" d="m23 36c1.6568542 0 3-1.3431458 3-3 0-.5522847-.4477153-1-1-1s-1 .4477153-1 1-.4477153 1-1 1-1-.4477153-1-1-.4477153-1-1-1-1 .4477153-1 1c0 1.6568542 1.3431458 3 3 3z"/><path id="Shape" d="m13 32c-.5522847 0-1 .4477153-1 1s-.4477153 1-1 1-1-.4477153-1-1-.44771525-1-1-1-1 .4477153-1 1c.00000003 1.6568542 1.34314578 2.9999999 3 2.9999999 1.6568542 0 3-1.3431457 3-2.9999999 0-.5522847-.4477153-1-1-1z"/><path id="Shape" d="m18 24c-1.6568542 0-3 1.3431458-3 3s1.3431458 3 3 3 3-1.3431458 3-3-1.3431458-3-3-3zm0 4c-.5522847 0-1-.4477153-1-1s.4477153-1 1-1 1 .4477153 1 1-.4477153 1-1 1z"/><path id="Shape" d="m51.646 37.661c-.0963148-1.8929984-.6273774-3.7383723-1.552-5.393.8732038-3.1952013 1.118398-6.5294343.722-9.818-.0900328-.7953441-.683138-1.4416486-1.4678421-1.5995018-.7847041-.1578533-1.5815862.2088374-1.9721579.9075018-1.0596709 1.9162503-2.5697934 3.5458097-4.4 4.748-3.5996486-1.0853175-7.5004724-.4057043-10.521 1.833-5.3599486-1.3120029-9.3619083-5.7841245-10.0729188-11.2563146s2.0152224-10.81851663 6.8619188-13.4566854c.6975803-.38914001 1.0648552-1.18353715.9094291-1.96704905-.1554262-.78351189-.7981284-1.37755871-1.5914291-1.47095095-6.9533692-.83904036-13.9458414 1.21790192-19.33733708 5.68837248-5.39149566 4.47047052-8.70765057 10.96114042-9.17066292 17.94962752-.022865.3572656.1466058.6995909.44457437.8980254.29796858.1984345.67916643.2228311 1 .064.32083358-.1588311.53256063-.4767598.55542563-.8340254.4199021-6.3569372 3.40276112-12.2709898 8.2652053-16.3872509 4.8624441-4.11626106 11.1877507-6.08195751 17.5267947-5.4467491-1.6680455.98055448-3.1357916 2.26746179-4.326 3.793-2.1976307-1.30338663-4.9762756-1.09050273-6.9497071.53244688-1.9734316 1.62294962-2.7187951 4.30820932-1.8642392 6.71614032.854556 2.407931 3.1259225 4.0225767 5.6809463 4.0384128.7399399 5.8524283 4.7377672 10.7775127 10.313 12.705-2.8072885 3.0363994-3.9116254 7.2747569-2.943 11.295-3.7269319.6507397-6.6920581 3.4874969-7.507 7.182-4.0012728-.9002462-7.6917086-2.8469217-10.694-5.641-3.2609755-3.0147615-5.59954899-6.8929652-6.744-11.184-.16017193-.5207403-.69476637-.8298981-1.226-.709-.26113538.0598985-.48561534.2256633-.61970192.4576122s-.16570931.5092019-.08729808.7653878c1.24270322 4.6574853 3.78133432 8.8668069 7.321 12.139 3.3111494 3.0789215 7.3908646 5.208595 11.81 6.165-.0579337 2.5196777.8974317 4.9572637 2.6520229 6.7665567 1.7545913 1.809293 4.1617084 2.8390193 6.6819771 2.8584433h19.464c5.6584709-.0893327 10.390543-4.3250716 11.1037657-9.9391242s-2.809384-10.8984857-8.2657657-12.3998758zm-35.282-26.523c-.0005684-1.43674392.7578829-2.76690789 1.9946217-3.49814692s2.7677618-.75475855 4.0263783-.06185308c-1.3508623 2.31192318-2.0747319 4.9364677-2.1 7.614-2.1838973-.0784425-3.9154231-1.8687015-3.921-4.054zm32.518 12.016c.1957125 1.9682189.145661 3.9531462-.149 5.909-.05.343-.12.683-.186 1.023-.9585246-1.085399-2.1023064-1.9918241-3.378-2.677 1.4870911-1.1797231 2.7455221-2.6218518 3.713-4.255zm-.074 34.846h-19.464c-4.0891308-.0395883-7.3745197-3.3817915-7.344-7.471 0-5.353 5.773-9.154 10.62-6.686.4899383.2363237 1.0789165.0376851 1.325657-.4470907s.0607348-1.0778646-.418657-1.3349093c-1.1591673-.5875586-2.4306181-.9203384-3.729-.976-1.1274952-3.7170989-.0331358-7.7516646 2.818121-10.3895433s6.9586009-3.4157393 10.5769574-2.0030944 6.1121779 4.7676707 6.4219216 8.6396377c-2.010962-.1508161-4.0248905.2510013-5.824 1.162-.4910494.2512815-.6858887.8527305-.4354581 1.3442143.2504306.4914839.8515412.6873647 1.3434581.4377857 6.118-3.119 13.301 1.669 13.301 8.371.0371899 5.1181201-4.0740057 9.3013242-9.192 9.353z"/><path id="Shape" d="m44.389 34.46c.3313709.4418278.9581722.5313708 1.4.2.4418278-.3313709.5313708-.9581722.2-1.4-1.5097446-2.0499536-3.9040938-3.2601207-6.45-3.26-.5522847 0-1 .4477153-1 1s.4477153 1 1 1c1.9157576.0025794 3.716185.9157858 4.85 2.46z"/><path id="Shape" d="m54 45c-.5522847 0-1 .4477153-1 1s-.4477153 1-1 1-1-.4477153-1-1-.4477153-1-1-1-1 .4477153-1 1c0 1.6568542 1.3431458 3 3 3s3-1.3431458 3-3c0-.5522847-.4477153-1-1-1z"/><path id="Shape" d="m45 46c0-.5522847-.4477153-1-1-1s-1 .4477153-1 1-.4477153 1-1 1-1-.4477153-1-1-.4477153-1-1-1-1 .4477153-1 1c0 1.6568542 1.3431458 3 3 3s3-1.3431458 3-3z"/><path id="Shape" d="m49 50c-.5522847 0-1 .4477153-1 1s-.4477153 1-1 1-1-.4477153-1-1-.4477153-1-1-1-1 .4477153-1 1c.0000001 1.6568542 1.3431458 2.9999999 3 2.9999999s2.9999999-1.3431457 3-2.9999999c0-.5522847-.4477153-1-1-1z"/><path id="Shape" d="m13 38v1c0 2.209139 1.790861 4 4 4s4-1.790861 4-4v-1c0-.5522847-.4477153-1-1-1h-6c-.5522847 0-1 .4477153-1 1zm6 1c0 1.1045695-.8954305 2-2 2s-2-.8954305-2-2z"/><path id="Shape" d="m33 8c-.5522847 0-1 .44771525-1 1v1c0 .5522847.4477153 1 1 1s1-.4477153 1-1v-1c0-.55228475-.4477153-1-1-1z"/><path id="Shape" d="m31 11h-1c-.5522847 0-1 .4477153-1 1s.4477153 1 1 1h1c.5522847 0 1-.4477153 1-1s-.4477153-1-1-1z"/><path id="Shape" d="m32 15c0 .5522847.4477153 1 1 1s1-.4477153 1-1v-1c0-.5522847-.4477153-1-1-1s-1 .4477153-1 1z"/><path id="Shape" d="m35 13h1c.5522847 0 1-.4477153 1-1s-.4477153-1-1-1h-1c-.5522847 0-1 .4477153-1 1s.4477153 1 1 1z"/><path id="Shape" d="m48 0c-.5522847 0-1 .44771525-1 1v1c0 .55228475.4477153 1 1 1s1-.44771525 1-1v-1c0-.55228475-.4477153-1-1-1z"/><path id="Shape" d="m46 3h-1c-.5522847 0-1 .44771525-1 1s.4477153 1 1 1h1c.5522847 0 1-.44771525 1-1s-.4477153-1-1-1z"/><path id="Shape" d="m47 7c0 .55228475.4477153 1 1 1s1-.44771525 1-1v-1c0-.55228475-.4477153-1-1-1s-1 .44771525-1 1z"/><path id="Shape" d="m51 3h-1c-.5522847 0-1 .44771525-1 1s.4477153 1 1 1h1c.5522847 0 1-.44771525 1-1s-.4477153-1-1-1z"/><path id="Shape" d="m56 15c.5522847 0 1-.4477153 1-1v-1c0-.5522847-.4477153-1-1-1s-1 .4477153-1 1v1c0 .5522847.4477153 1 1 1z"/><path id="Shape" d="m54 15h-1c-.5522847 0-1 .4477153-1 1s.4477153 1 1 1h1c.5522847 0 1-.4477153 1-1s-.4477153-1-1-1z"/><path id="Shape" d="m55 19c0 .5522847.4477153 1 1 1s1-.4477153 1-1v-1c0-.5522847-.4477153-1-1-1s-1 .4477153-1 1z"/><path id="Shape" d="m59 15h-1c-.5522847 0-1 .4477153-1 1s.4477153 1 1 1h1c.5522847 0 1-.4477153 1-1s-.4477153-1-1-1z"/></g></g></g></svg>