<svg height="60" viewBox="0 0 60 60" width="60" xmlns="http://www.w3.org/2000/svg"><g id="Page-1" fill="none" fill-rule="evenodd"><g id="027---Sleet" fill-rule="nonzero" transform="translate(-1 -1)"><path id="Shape" d="m9.56 31.89c-1.02295352 2.7602694-.62924494 5.8465305 1.0539151 8.261586 1.6831601 2.4150555 4.4423623 3.8526984 7.3860849 3.848414h29c6.5341907.0020691 12.0545686-4.8463342 12.8959036-11.3261341.841335-6.4798-3.2578432-12.5772031-9.5759036-14.2438659 1.5306136-3.7142409.4142979-7.9931284-2.735746-10.48623614-3.150044-2.49310777-7.5709395-2.5966556-10.834254-.25376386-3.6250275-4.57607937-9.5757596-6.63323921-15.2529862-5.27293623-5.6772267 1.36030299-10.0494811 5.89092219-11.2070138 11.61293623-4.54729743.3513387-8.11292697 4.0486572-8.29918917 8.6057022s3.06573315 8.5330235 7.56918917 9.2542978z" fill="#e8edfc"/><path id="Shape" d="m50.32 18.43c1.2544864-3.0281938.7616487-6.4991324-1.2862039-9.0584279-2.0478526-2.55929555-5.3261965-3.80137614-8.5557961-3.2415721 2.7042512.44710637 5.0567428 2.10361398 6.3891616 4.4989299 1.3324188 2.395316 1.4991541 5.2676728.4528384 7.8010701 6.3180604 1.6666628 10.4172386 7.7640659 9.5759036 14.2438659-.841335 6.4797999-6.3617129 11.3282032-12.8959036 11.3261341h3c6.5341907.0020691 12.0545686-4.8463342 12.8959036-11.3261341.841335-6.4798-3.2578432-12.5772031-9.5759036-14.2438659z" fill="#cad9fc"/><path id="Shape" d="m44 52c0 1.1045695.8954305 2 2 2s2-.8954305 2-2c0-1.1-2-4-2-4s-2 2.9-2 4z" fill="#cad9fc"/><path id="Shape" d="m51 58c0 1.1045695.8954305 2 2 2s2-.8954305 2-2c0-1.1-2-4-2-4s-2 2.9-2 4z" fill="#cad9fc"/><path id="Shape" d="m24 52c0 1.1045695-.8954305 2-2 2s-2-.8954305-2-2c0-1.1 2-4 2-4s2 2.9 2 4z" fill="#cad9fc"/><path id="Shape" d="m17 58c0 1.1045695-.8954305 2-2 2s-2-.8954305-2-2c0-1.1 2-4 2-4s2 2.9 2 4z" fill="#cad9fc"/><circle id="Oval" cx="50" cy="29" fill="#a4c2f7" r="2"/><circle id="Oval" cx="34" cy="29" fill="#a4c2f7" r="2"/><path id="Shape" d="m16 58c.0676226-.5242705.237501-1.0301682.5-1.489-.4484844-.8667178-.9494144-1.7052746-1.5-2.511 0 0-2 2.9-2 4-.0035514.8339089.5127089 1.5817704 1.2937125 1.8740888.7810035.2923185 1.66143.067217 2.2062875-.5640888-.3204802-.361301-.4982461-.8270478-.5-1.31z" fill="#fff"/><path id="Shape" d="m21 44c-2.9413807-.001825-5.6962666-1.4408566-7.3780862-3.8539887-1.6818195-2.4131321-2.078325-5.4958244-1.0619138-8.2560113-4.50345602-.7212743-7.75545137-4.6972528-7.56918917-9.2542978s3.75189174-8.2543635 8.29918917-8.6057022c1.2867277-6.5026242 6.7145134-11.37328541 13.318-11.951-7.7110602-.83421669-14.7864462 4.34766454-16.318 11.951-4.54729743.3513387-8.11292697 4.0486572-8.29918917 8.6057022s3.06573315 8.5330235 7.56918917 9.2542978c-1.01641119 2.7601869-.61990572 5.8428792 1.0619138 8.2560113 1.6818196 2.4131321 4.4367055 3.8521637 7.3780862 3.8539887z" fill="#fff"/><path id="Shape" d="m13.116 6.307 1.484 1.339c-.8318779.92760259-1.5404106 1.95880679-2.108 3.068-.549103 1.1176656-.9601254 2.2980117-1.224 3.515l-1.96-.4c.29940974-1.3921998.7696365-2.7420864 1.4-4.019.6480476-1.26674094 1.4574482-2.44420372 2.408-3.503z" fill="#fff"/><g fill="#428dff"><path id="Shape" d="m11.621 11.254c-.5522847.0027614-1.0022386-.4427153-1.005-.995-.0027614-.55228475.4427153-1.00223858.995-1.005h.01c.5522847 0 1 .44771525 1 1 0 .5522847-.4477153 1-1 1z"/><path id="Shape" d="m51.608 17.777c1.138211-3.9313326-.2340886-8.1594228-3.4640979-10.6729741-3.2300093-2.51355131-7.6656532-2.80512738-11.1969021-.7360259-3.0206278-3.40438655-7.3505808-5.35783475-11.9018338-5.36948456-4.5512531-.0116498-8.8911498 1.91960626-11.9291662 5.30848456-.1888126.19831263-.2855316.46688129-.2665094.74004104.0190223.27315975.1520324.52573056.3665094.69595896.41824.32807672 1.017268.28479435 1.384-.1 2.6558946-2.94626347 6.433372-4.6326892 10.4-4.643 4.2775589-.01241527 8.3223604 1.94635316 10.965 5.31.009.012.024.017.034.029.7588105.96162255 1.3881809 2.0186421 1.872 3.144.2320102.4811719.8012314.6950338 1.2926814.4856729s.7315764-.7680102.5453186-1.2686729c-.4100801-.95500723-.9124655-1.86767406-1.5-2.725 1.1620878-.63731634 2.4656267-.97257101 3.791-.975 2.5196754.00335488 4.8907961 1.19255663 6.4003357 3.2099971 1.5095396 2.0174404 1.9813917 4.6277602 1.2736643 7.0460029-2.7085176-.5214579-5.5105005-.2370527-8.059.818-.3395636.1307825-.5812864.4356922-.6311527.7961375-.0498664.3604454.0999952.7195294.3912977.93759.2913024.2180606.6780629.2606764 1.009855.1112725 4.4824149-1.8630185 9.6457388-.8420693 13.0818073 2.586679 3.4360684 3.4287482 4.4680271 8.5898831 2.6145723 13.0762609-1.8534547 4.4863779-6.2272199 7.4142491-11.0813796 7.4180601h-29c-2.4807674-.0014041-4.8205205-1.1536044-6.3340457-3.1191707-1.5135251-1.9655662-2.02955049-4.5220732-1.3969543-6.9208293.243.018.484.04.731.04 1.0749565.0009161 2.1430178-.171635 3.163-.511.3394023-.1130746.5926984-.3986287.6644741-.749097s-.0488734-.7126063-.3165-.95c-.2676266-.2373938-.6415718-.3139776-.9809741-.200903-1.0999931.3621003-2.2646896.4848435-3.416.36-.0754915-.0027499-.1510387.0036296-.225.019-.05436313-.0280478-.11129027-.0508187-.17-.068-3.0968144-.5127363-5.60761965-2.7891716-6.42040187-5.8210922-.81278223-3.0319207.22266356-6.2590173 2.64774742-8.2520367 2.42508385-1.9930193 5.79164175-2.3836446 8.60865445-.9988711.3203279.1621467.7029956.1401275 1.0026105-.0576916.299615-.1978191.4701885-.5410743.446912-.8993475s-.2368302-.6765722-.5595225-.8339609c-1.4327127-.6942451-3.0081286-1.043234-4.6-1.019-4.96650242.069025-9.12862291 3.7749759-9.77114492 8.7002247-.64252202 4.9252489 2.42956589 9.5749365 7.21214492 10.9157753-.7230675 2.9808374-.03914942 6.1286401 1.855625 8.5407031 1.8947744 2.4120631 4.7910949 3.8219329 7.858375 3.8252969h29c6.8336977.004319 12.6719872-4.9256182 13.8124946-11.6634728 1.1405075-6.7378547-2.7500645-13.314583-9.2044946-15.5595272z"/><path id="Shape" d="m46 33c0-.5522847-.4477153-1-1-1s-1 .4477153-1 1c0 1.1045695-.8954305 2-2 2s-2-.8954305-2-2c0-.5522847-.4477153-1-1-1s-1 .4477153-1 1c0 2.209139 1.790861 4 4 4s4-1.790861 4-4z"/><path id="Shape" d="m18.593 16.492c-.2275866-.2869618-.5938406-.4265481-.9546891-.3638502-.3608486.0626979-.6585514.3176476-.7760016.66456-.1174502.3469123-.0358542.7302769.2126907.9992902.4260607.4962445.7894565 1.0430174 1.082 1.628.2485281.4940187.8504813.6930281 1.3445.4445s.6930281-.8504813.4445-1.3445c-.3668274-.7285197-.8211855-1.4095531-1.353-2.028z"/><path id="Shape" d="m40.707 52.293c-.3904999-.3903819-1.0235001-.3903819-1.414 0l-.707.707h-2.172l1.293-1.293c.3789722-.3923789.3735524-1.0160848-.0121814-1.4018186s-1.0094397-.3911536-1.4018186-.0121814l-1.293 1.293v-2.172l.707-.707c.3789722-.3923789.3735524-1.0160848-.0121814-1.4018186s-1.0094397-.3911536-1.4018186-.0121814l-.293.293-.293-.293c-.3923789-.3789722-1.0160848-.3735524-1.4018186.0121814s-.3911536 1.0094397-.0121814 1.4018186l.707.707v2.172l-1.293-1.293c-.3923789-.3789722-1.0160848-.3735524-1.4018186.0121814s-.3911536 1.0094397-.0121814 1.4018186l1.293 1.293h-2.172l-.707-.707c-.3923789-.3789722-1.0160848-.3735524-1.4018186.0121814s-.3911536 1.0094397-.0121814 1.4018186l.293.293-.293.293c-.2599566.2510745-.3642126.6228779-.2726972.9725073.0915155.3496295.3645604.6226744.7141899.7141899.3496294.0915154.7214328-.0127406.9725073-.2726972l.707-.707h2.172l-1.293 1.293c-.2599566.2510745-.3642126.6228779-.2726972.9725073.0915155.3496295.3645604.6226744.7141899.7141899.3496294.0915154.7214328-.0127406.9725073-.2726972l1.293-1.293v2.172l-.707.707c-.3789722.3923789-.3735524 1.0160848.0121814 1.4018186s1.0094397.3911536 1.4018186.0121814l.293-.293.293.293c.3923789.3789722 1.0160848.3735524 1.4018186-.0121814s.3911536-1.0094397.0121814-1.4018186l-.707-.707v-2.172l1.293 1.293c.3923789.3789722 1.0160848.3735524 1.4018186-.0121814s.3911536-1.0094397.0121814-1.4018186l-1.293-1.293h2.172l.707.707c.3923789.3789722 1.0160848.3735524 1.4018186-.0121814s.3911536-1.0094397.0121814-1.4018186l-.293-.293.293-.293c.3903819-.3904999.3903819-1.0235001 0-1.414z"/><path id="Shape" d="m15 40c0 .5522847.4477153 1 1 1h1c.5522847 0 1-.4477153 1-1s-.4477153-1-1-1h-1c-.5522847 0-1 .4477153-1 1z"/><path id="Shape" d="m20 40c0 .5522847.4477153 1 1 1h15c.5522847 0 1-.4477153 1-1s-.4477153-1-1-1h-15c-.5522847 0-1 .4477153-1 1z"/><path id="Shape" d="m45.177 47.432c-.655.947-2.177 3.29-2.177 4.568 0 1.6568542 1.3431458 3 3 3s3-1.3431458 3-3c0-1.278-1.522-3.621-2.177-4.568-.1964761-.2556332-.5005854-.4054536-.823-.4054536s-.6265239.1498204-.823.4054536zm.823 5.568c-.5522847 0-1-.4477153-1-1 .2177526-.7640254.5552768-1.4886899 1-2.147.4457938.6577036.7834006 1.3825453 1 2.147 0 .5522847-.4477153 1-1 1z"/><path id="Shape" d="m52.177 53.432c-.655.947-2.177 3.29-2.177 4.568 0 1.6568542 1.3431458 3 3 3s3-1.3431458 3-3c0-1.278-1.522-3.621-2.177-4.568-.1964761-.2556332-.5005854-.4054536-.823-.4054536s-.6265239.1498204-.823.4054536zm.823 5.568c-.5522847 0-1-.4477153-1-1 .2177526-.7640254.5552768-1.4886899 1-2.147.4457938.6577036.7834006 1.3825453 1 2.147 0 .5522847-.4477153 1-1 1z"/><path id="Shape" d="m21.177 47.432c-.655.947-2.177 3.29-2.177 4.568 0 1.6568542 1.3431458 3 3 3s3-1.3431458 3-3c0-1.278-1.522-3.621-2.177-4.568-.1964761-.2556332-.5005854-.4054536-.823-.4054536s-.6265239.1498204-.823.4054536zm.823 5.568c-.5522847 0-1-.4477153-1-1 .2168254-.7643706.554416-1.4891774 1-2.147.4455093.6578649.783094 1.3826594 1 2.147 0 .5522847-.4477153 1-1 1z"/><path id="Shape" d="m14.177 53.432c-.655.947-2.177 3.29-2.177 4.568 0 1.6568542 1.3431458 2.9999999 3 2.9999999s3-1.3431457 3-2.9999999c0-1.278-1.522-3.621-2.177-4.568-.1964761-.2556332-.5005854-.4054536-.823-.4054536s-.6265239.1498204-.823.4054536zm.823 5.568c-.5522847 0-1-.4477153-1-1 .2168254-.7643706.554416-1.4891774 1-2.147.4455093.6578649.783094 1.3826594 1 2.147 0 .5522847-.4477153 1-1 1z"/><path id="Shape" d="m53 29c0-1.6568542-1.3431458-3-3-3s-3 1.3431458-3 3 1.3431458 3 3 3 3-1.3431458 3-3zm-4 0c0-.5522847.4477153-1 1-1s1 .4477153 1 1-.4477153 1-1 1-1-.4477153-1-1z"/><path id="Shape" d="m37 29c0-1.6568542-1.3431458-3-3-3s-3 1.3431458-3 3 1.3431458 3 3 3 3-1.3431458 3-3zm-4 0c0-.5522847.4477153-1 1-1s1 .4477153 1 1-.4477153 1-1 1-1-.4477153-1-1z"/></g></g></g></svg>