<svg height="60" viewBox="0 0 60 60" width="60" xmlns="http://www.w3.org/2000/svg"><g id="Page-1" fill="none" fill-rule="evenodd"><g id="029---Full-Moon-Fog" fill-rule="nonzero"><path id="Shape" d="m50 25.5c.0015002 1.2017944-.0887622 2.4019492-.27 3.59-.2385671-.0606495-.4838459-.0908894-.73-.09h-14c-1.6568542 0-3 1.3431458-3 3s1.3431458 3 3 3h-5c-1.6568542 0-3 1.3431458-3 3s1.3431458 3 3 3h-6c-1.6568542 0-3 1.3431458-3 3s1.3431458 3 3 3h4c-1.6490751-.0000366-2.9890062 1.3309616-3 2.98-3.3226911-.0463785-6.5991609-.7854574-9.62-2.17-.12-.06-.25-.11-.37-.17-10.0096901-4.7481557-15.5874443-15.6227054-13.60384113-26.5224392s11.03489723-19.11199588 22.07561733-20.0292635c11.04072-.91726763 21.3231223 5.68874287 25.0782238 16.1117027.8643475 2.3991489 1.3403315 4.9208514 1.41 7.47.02.27.03.55.03.83z" fill="#e8edfc"/><path id="Shape" d="m30 35h-3c-1.6568542 0-3 1.3431458-3 3s1.3431458 3 3 3h3c-1.6568542 0-3-1.3431458-3-3s1.3431458-3 3-3z" fill="#cad9fc"/><path id="Shape" d="m35 29h-3c-1.6568542 0-3 1.3431458-3 3s1.3431458 3 3 3h3c-1.6568542 0-3-1.3431458-3-3s1.3431458-3 3-3z" fill="#cad9fc"/><path id="Shape" d="m49.97 24.67c-.0696685-2.5491486-.5456525-5.0708511-1.41-7.47-3.5041036-9.72043373-12.7272572-16.19983914-23.06-16.2-.478 0-.948.036-1.42.063 9.7328097.62649995 18.1681196 6.9635854 21.48 16.137.8643475 2.3991489 1.3403315 4.9208514 1.41 7.47.02.27.03.55.03.83.0002236 1.1714991-.0866828 2.3413925-.26 3.5h2.26c.2461541-.0008894.4914329.0293505.73.09.1812378-1.1880508.2715002-2.3882056.27-3.59 0-.28-.01-.56-.03-.83z" fill="#cad9fc"/><path id="Shape" d="m26 18c2.209139 0 4 1.790861 4 4v1h-8v-1c0-2.209139 1.790861-4 4-4z" fill="#a4c2f7"/><circle id="Oval" cx="20" cy="31" fill="#a4c2f7" r="4"/><circle id="Oval" cx="11" cy="36" fill="#a4c2f7" r="2"/><path id="Shape" d="m59 44c0 1.6568542-1.3431458 3-3 3h-12c1.6568542.0000001 2.9999999 1.3431458 2.9999999 3s-1.3431457 2.9999999-2.9999999 3h8c1.6568542 0 3 1.3431458 3 3s-1.3431458 3-3 3h-18c-1.6568542 0-3-1.3431458-3-3s1.3431458-3 3-3h-6c-1.6568542 0-3-1.3431458-3-3v-.02c.0109938-1.6490384 1.3509249-2.9800366 3-2.98h-4c-1.6568542 0-3-1.3431458-3-3s1.3431458-3 3-3h6c-1.6568542 0-3-1.3431458-3-3s1.3431458-3 3-3h5c-1.6568542 0-3-1.3431458-3-3s1.3431458-3 3-3h14c.2461541-.0008894.4914329.0293505.73.09 1.4694511.368279 2.4337666 1.7742915 2.2480586 3.2777636-.1857081 1.5034721-1.4631607 2.6325826-2.9780586 2.6322364h4c1.6568542 0 3 1.3431458 3 3s-1.3431458 3-3 3h3c.7956495 0 1.5587112.3160705 2.1213203.8786797.5626092.5626091.8786797 1.3256708.8786797 2.1213203z" fill="#e8edfc"/><path id="Shape" d="m44 50c0 1.6568542-1.3431458 3-3 3h3c1.6568542 0 3-1.3431458 3-3s-1.3431458-3-3-3h-3c1.6568542 0 3 1.3431458 3 3z" fill="#cad9fc"/><path id="Shape" d="m49 32c0 1.6568542-1.3431458 3-3 3.0000001l3-.0000001c1.5148979.0003462 2.7923505-1.1287643 2.9780586-2.6322364.185708-1.5034721-.7786075-2.9094846-2.2480586-3.2777636-.2385671-.0606495-.4838459-.0908894-.73-.09l-3-.0000191c.2461541-.0008703.4914329.0293696.73.0900191 1.337511.3299699 2.275488 1.5323986 2.27 2.91z" fill="#cad9fc"/><path id="Shape" d="m56 38c0-1.6568542-1.3431458-3-3-3h-3c1.6568542 0 3 1.3431458 3 3s-1.3431458 3-3 3h3c1.6568542 0 3-1.3431458 3-3z" fill="#cad9fc"/><path id="Shape" d="m52 53h-3c1.6568542 0 3 1.3431458 3 3s-1.3431458 3-3 3h3c1.6568542 0 3-1.3431458 3-3s-1.3431458-3-3-3z" fill="#cad9fc"/><path id="Shape" d="m56 41h-3c1.6568542 0 3 1.3431458 3 3s-1.3431458 3-3 3h3c1.6568542 0 3-1.3431458 3-3s-1.3431458-3-3-3z" fill="#cad9fc"/><path id="Shape" d="m28 47c-1.6490751-.0000366-2.9890062 1.3309616-3 2.98-3.3226911-.0463785-6.5991609-.7854574-9.62-2.17-.12-.06-.25-.11-.37-.17-.128751-1.6851849.4391852-3.3494448 1.571261-4.6043669s2.72924-1.9907068 4.418739-2.0356331c.5943986.0010935 1.1849338.0955792 1.75.28-1.2732159.5923446-1.9651761 1.9886334-1.6653759 3.3605192s1.5111329 2.3522452 2.9153759 2.3594808z" fill="#a4c2f7"/><path id="Shape" d="m19.75 41.28c-1.2732159.5923446-1.9651761 1.9886334-1.6653759 3.3605192s1.5111329 2.3522452 2.9153759 2.3594808h3c-1.404243-.0072356-2.6155757-.987595-2.9153759-2.3594808s.39216-2.7681746 1.6653759-3.3605192c-.5650662-.1844208-1.1556014-.2789065-1.75-.28-.5155961.0021373-1.0285502.0737827-1.525.213.091.025.185.038.275.067z" fill="#7facfa"/><path id="Shape" d="m25 47c-1.5533786.0024405-2.8461597 1.1939719-2.975 2.742.9860382.1385436 1.9794768.2180187 2.975.238.0109938-1.6490384 1.3509249-2.9800366 3-2.98z" fill="#7facfa"/><path id="Shape" d="m50 25.5v.1c-1.8685797.8110358-4.0422428.4092078-5.4973781-1.0162572-1.4551353-1.4254649-1.9016511-3.59039-1.1292763-5.4752789.7723749-1.8848889 2.6096618-3.1139754 4.6466544-3.1084639h.07c.17.4.32.8.47 1.2.8643475 2.3991489 1.3403315 4.9208514 1.41 7.47.02.27.03.55.03.83z" fill="#a4c2f7"/><path id="Shape" d="m49.97 24.67c-.0696685-2.5491486-.5456525-5.0708511-1.41-7.47-.15-.4-.3-.8-.47-1.2h-.07c-.9310626.0027732-1.8427716.2660327-2.632.76.056.147.117.293.172.44.8643475 2.3991489 1.3403315 4.9208514 1.41 7.47.02.27.03.55.03.83v.1c-.1559817.0575872-.3148648.1069878-.476.148.4841085.1604657.9900318.2454609 1.5.252.6788897.0011655 1.3510119-.1348916 1.976-.4v-.1c0-.28-.01-.56-.03-.83z" fill="#7facfa"/><path id="Shape" d="m9 25c.01065154 1.3154866-.50173029 2.581321-1.42441847 3.5190122-.92268818.9376913-2.18009428 1.4704218-3.49558153 1.4809878-1.00991072.0051688-1.99484046-.3137943-2.81-.91-.03-.16-.05-.33-.07-.49-.13261747-1.0280196-.1994202-2.0634619-.2-3.1-.00115065-1.5883798.15629697-3.1729059.47-4.73.77714445-.503854 1.68381397-.7713389 2.61-.77 1.31548725.010566 2.57289335.5432965 3.49558153 1.4809878.92268818.9376912 1.43507001 2.2035256 1.42441847 3.5190122z" fill="#a4c2f7"/><path id="Shape" d="m28 49.98c-13.1119886-.2677378-23.68329084-10.8218761-23.97233452-23.9334124s9.80688292-24.12128344 22.89433452-24.9665876c-.9462763-.05907082-1.8951529-.06407897-2.842-.015-13.1212032.76698337-23.2952666 11.7583671-23.04810368 24.8996436.24716293 13.1412765 10.82733948 23.7423117 23.96810368 24.0153564-.0053275.7991091.3083896 1.5673189.8715772 2.1342611s1.329296.8857567 2.1284228.8857389h3c-.7991268.0000178-1.5652352-.3187967-2.1284228-.8857389s-.8769047-1.335152-.8715772-2.1342611z" fill="#fff"/><path id="Shape" d="m34 56c0-1.6568542 1.3431458-3 3-3h-3c-1.6568542 0-3 1.3431458-3 3s1.3431458 3 3 3h3c-1.6568542 0-3-1.3431458-3-3z" fill="#fff"/><path id="Shape" d="m6.42 8.607 1.5 1.326c-1.70004158 1.9175179-3.078836 4.0973166-4.083 6.455l-1.844-.776c1.08818616-2.558491 2.58317065-4.9240583 4.427-7.005z" fill="#fff"/><g fill="#428dff"><path id="Shape" d="m4.78 13.455c-.55228475.0024853-1.00201472-.4432153-1.0045-.9955s.44321525-1.0020147.9955-1.0045h.009c.55228475 0 1 .4477153 1 1s-.44771525 1-1 1z"/><path id="Shape" d="m40.435 11.565c.4043959-.0000863.7689341-.2437275.923678-.6173454.1547439-.373618.0692299-.8036603-.216678-1.0896546-6.9652629-6.90770249-17.6330553-8.43765054-26.259-3.766-.3167702.16958518-.5182088.49607885-.5276761.85526244-.0094672.3591836.1744924.69583548.4818892.88187228.3073968.18603679.6909709.1928568 1.0047869.01786528 7.8461834-4.25021059 17.5502747-2.85874644 23.886 3.425.1870531.1882061.4416514.2937185.707.293z"/><path id="Shape" d="m11.342 8.5c-.511.427-1.01.883-1.484 1.356-.25995658.2510745-.3642126.6228779-.27269716.9725073.09151544.3496295.3645604.6226744.71418986.7141899.3496294.0915154.7214328-.0127406.9725073-.2726972.432-.431.886-.846 1.351-1.234.4241547-.35373838.4812384-.98434531.1275-1.4085s-.9843453-.48123838-1.4085-.1275z"/><path id="Shape" d="m14 16c0 1.6568542 1.3431458 3 3 3s3-1.3431458 3-3c0-.5522847-.4477153-1-1-1s-1 .4477153-1 1-.4477153 1-1 1-1-.4477153-1-1-.4477153-1-1-1-1 .4477153-1 1z"/><path id="Shape" d="m36 16c0 .5522847-.4477153 1-1 1s-1-.4477153-1-1-.4477153-1-1-1-1 .4477153-1 1c0 1.6568542 1.3431458 3 3 3s3-1.3431458 3-3c0-.5522847-.4477153-1-1-1s-1 .4477153-1 1z"/><path id="Shape" d="m31 23v-1c0-2.7614237-2.2385763-5-5-5s-5 2.2385763-5 5v1c0 .5522847.4477153 1 1 1h8c.5522847 0 1-.4477153 1-1zm-8-1c0-1.6568542 1.3431458-3 3-3s3 1.3431458 3 3z"/><path id="Shape" d="m15 31c0 2.7614237 2.2385763 5 5 5s5-2.2385763 5-5-2.2385763-5-5-5c-2.7600532.0033061-4.9966939 2.2399468-5 5zm8 0c0 1.6568542-1.3431458 3-3 3s-3-1.3431458-3-3 1.3431458-3 3-3 3 1.3431458 3 3z"/><path id="Shape" d="m8 36c0 1.6568542 1.34314575 3 3 3 1.6568542 0 3-1.3431458 3-3s-1.3431458-3-3-3c-1.65685425 0-3 1.3431458-3 3zm4 0c0 .5522847-.4477153 1-1 1s-1-.4477153-1-1 .4477153-1 1-1 1 .4477153 1 1z"/><path id="Shape" d="m56.448 40.025c.7259397-1.2366235.7343899-2.7672261.0221484-4.0117896s-2.0361938-2.0126559-3.4701484-2.0132104h-.537c.5496827-.948038.6838131-2.0808805.3707243-3.1310721-.3130889-1.0501916-1.0456474-1.924652-2.0247243-2.4169279.0052865-.1359031.0203251-.2712512.045-.405.7429902-7.1720986-1.5939927-14.3224023-6.4293078-19.67130507-4.835315-5.34890277-11.7142332-8.39337605-18.9246922-8.37569493-3.6084581.00897555-7.1745524.7780062-10.466 2.257-1.6434776.731799-3.2006735 1.64371275-4.643 2.719-1.45538064 1.05791024-2.78738953 2.27587154-3.971 3.631-.18516941.19544091-.2805783.45917008-.2633117.72784595s.14564861.51802299.3543117.68815405c.41975167.3422071 1.0323413.3029665 1.405-.09 5.1901553-5.87827992 12.9733559-8.77584207 20.7439857-7.72265697 7.7706299 1.0531851 14.5017726 5.91793527 17.9400143 12.96565697-3.1356348.7492106-5.1169945 3.8444436-4.4845807 7.0057052s3.6520412 5.2560417 6.8345807 4.7412948c-.022.363-.059.72-.1 1.077h-13.85c-1.4288656.0003935-2.7490131.7629446-3.4632755 2.0004769s-.7141574 2.7620892.0002755 3.9995231h-1.537c-1.4288656.0003935-2.7490131.7629446-3.4632755 2.0004769s-.7141574 2.7620892.0002755 3.9995231h-2.537c-.4469695.0048299-.8898954.0853004-1.31.238-1.9193835-.4754196-3.9503738-.1128354-5.5866828.9973672-1.6363089 1.1102026-2.7237765 2.8634292-2.9913172 4.8226328-5.83810763-3.2079061-10.02341536-8.7618656-11.498-15.258 1.7823759.4544327 3.6747233.054995 5.12138568-1.0810247 1.44666239-1.1360198 2.28343532-2.8796769 2.26461432-4.7189753.018849-3.2902986-2.62974485-5.9746842-5.92-6-.39796256.0045053-.79439701.0500802-1.183.136.25421008-.9346775.56682442-1.8524811.936-2.748.21428648-.5092065-.02479346-1.0957135-.534-1.31s-1.09571352.0247935-1.31.534c-1.73698824 4.1381876-2.35133284 8.6614334-1.781 13.113.02.159.052.315.075.474 0 .029.008.056.013.084 1.31 6.741 4.472 12.666 10.109 16.782 2.9688242 2.1727056 6.3716409 3.6790046 9.976 4.416.343.069 3.727.395 3.744.462.4340851 1.7894326 2.0336779 3.0513566 3.875 3.057h2.537c-.7144329 1.2374339-.7145379 2.7619908-.0002755 3.9995231s2.0344099 2.0000834 3.4632755 2.0004769h18c2.209139 0 4-1.790861 4-4s-1.790861-4-4-4h-4.537c.7166003-1.2370491.7166003-2.7629509 0-4h8.537c2.1225547.0007897 3.8761437-1.6564376 3.9951917-3.7756512.119048-2.1192137-1.4379027-3.9624123-3.5471917-4.1993488zm-48.448-15.025c.01943673 2.1859784-1.73407504 3.9752761-3.92 4-.66247421.0004111-1.31310539-.1756218-1.885-.51v-.017c-.12832019-.9858289-.19345315-1.978856-.195-2.973.00282966-1.3686432.12462137-2.7344503.364-4.082.5310998-.2725276 1.11906346-.4157495 1.716-.418 2.18592496.0247239 3.93943673 1.8140216 3.92 4zm36-4c.0090655-1.9796903 1.4649191-3.6549424 3.424-3.94.062.161.135.316.194.479.8333846 2.3146277 1.2908398 4.7477491 1.355 7.207v.13c-.3117452.0783502-.6315851.1199663-.953.124-2.2137562.0033225-4.0122814-1.7862547-4.02-4zm-26.51 22.525c.8019417-.8538899 1.8870353-1.3870181 3.053-1.5-.3512921.599228-.5385729 1.2804061-.543 1.975 0 2.209139 1.790861 4 4 4h.537c-.1716102.2960693-.3043692.6130104-.395.943-2.8068192-.1372092-5.5635139-.7961166-8.129-1.943.0662415-1.2964723.58951-2.5275879 1.477-3.475zm38.51 2.475h-18c-.5522847 0-1 .4477153-1 1s.4477153 1 1 1h6c1.1045695 0 2 .8954305 2 2s-.8954305 2-2 2c-.5522847 0-1 .4477153-1 1s.4477153 1 1 1h8c1.1045695 0 2 .8954305 2 2s-.8954305 2-2 2h-18c-1.1045695 0-2-.8954305-2-2s.8954305-2 2-2h4c.5522847 0 1-.4477153 1-1s-.4477153-1-1-1h-10c-1.1045695 0-2-.8954305-2-2s.8954305-2 2-2h3c.5522847 0 1-.4477153 1-1s-.4477153-1-1-1h-7c-.9416471-.0042879-1.7527532-.6648517-1.9476062-1.586128-.1948529-.9212763.2793345-1.8536839 1.1386062-2.238872l.032-.018c.2458423-.1039374.5100893-.1573309.777-.157h15c.5522847 0 1-.4477153 1-1s-.4477153-1-1-1h-9c-1.1045695 0-2-.8954305-2-2s.8954305-2 2-2h5c.5522847 0 1-.4477153 1-1s-.4477153-1-1-1c-1.1045695 0-2-.8954305-2-2s.8954305-2 2-2h14c1.1045695 0 2 .8954305 2 2s-.8954305 2-2 2h-8c-.5522847 0-1 .4477153-1 1s.4477153 1 1 1h12c1.1045695 0 2 .8954305 2 2s-.8954305 2-2 2h-3c-.5522847 0-1 .4477153-1 1s.4477153 1 1 1h6c1.1045695 0 2 .8954305 2 2s-.8954305 2-2 2z"/><path id="Shape" d="m45 40h-1c-.5522847 0-1 .4477153-1 1s.4477153 1 1 1h1c.5522847 0 1-.4477153 1-1s-.4477153-1-1-1z"/><path id="Shape" d="m53 3c-.5522847 0-1 .44771525-1 1v1c0 .55228475.4477153 1 1 1s1-.44771525 1-1v-1c0-.55228475-.4477153-1-1-1z"/><path id="Shape" d="m55 8h1c.5522847 0 1-.44771525 1-1s-.4477153-1-1-1h-1c-.5522847 0-1 .44771525-1 1s.4477153 1 1 1z"/><path id="Shape" d="m52 10c0 .5522847.4477153 1 1 1s1-.4477153 1-1v-1c0-.55228475-.4477153-1-1-1s-1 .44771525-1 1z"/><path id="Shape" d="m51 6h-1c-.5522847 0-1 .44771525-1 1s.4477153 1 1 1h1c.5522847 0 1-.44771525 1-1s-.4477153-1-1-1z"/><path id="Shape" d="m8 52c.55228475 0 1-.4477153 1-1v-1c0-.5522847-.44771525-1-1-1s-1 .4477153-1 1v1c0 .5522847.44771525 1 1 1z"/><path id="Shape" d="m11 52h-1c-.55228475 0-1 .4477153-1 1s.44771525 1 1 1h1c.5522847 0 1-.4477153 1-1s-.4477153-1-1-1z"/><path id="Shape" d="m8 54c-.55228475 0-1 .4477153-1 1v1c0 .5522847.44771525 1 1 1s1-.4477153 1-1v-1c0-.5522847-.44771525-1-1-1z"/><path id="Shape" d="m6 52h-1c-.55228475 0-1 .4477153-1 1s.44771525 1 1 1h1c.55228475 0 1-.4477153 1-1s-.44771525-1-1-1z"/></g></g></g></svg>