<svg height="512" viewBox="0 0 60 52" width="512" xmlns="http://www.w3.org/2000/svg"><g id="Page-1" fill="none" fill-rule="evenodd"><g id="030---Raindrops" fill-rule="nonzero"><path id="Shape" d="m22.59 43.23c-1.3480095 4.4750793-5.3989475 7.5927327-10.07 7.75-.17.01-.35.02-.52.02-5.96946898.1030828-10.89324133-4.6505956-11-10.62 0-8.49 10.32-18.72 10.97-19.35l.03-.03.02.02c.17.17 1.31 1.29 2.8 3.02-.08.29-.16.59-.23.88-.3808022 1.4700629-.5789627 2.9814568-.59 4.5.0089158 4.7412127 2.2043434 9.2132434 5.95 12.12.8218059.6494491 1.7061569 1.2155677 2.64 1.69z" fill="#7facfa"/><path id="Shape" d="m59 40.38c-.1067587 5.9694044-5.030531 10.7230828-11 10.62-.17 0-.35-.01-.52-.02-4.6710525-.1572673-8.7219905-3.2749207-10.07-7.75.9338431-.4744323 1.8181941-1.0405509 2.64-1.69 3.7456566-2.9067566 5.9410842-7.3787873 5.95-12.12-.0110373-1.5185432-.2091978-3.0299371-.59-4.5-.07-.29-.15-.59-.23-.88 1.49-1.73 2.63-2.85 2.8-3.02l.02-.02.03.03c.65.63 10.97 10.86 10.97 19.35z" fill="#7facfa"/><path id="Shape" d="m56 40.38c0 4.09-1.74 7.64-4.3 9.41-1.0789214.7754797-2.3713543 1.1981402-3.7 1.21-.17 0-.35-.01-.52-.02-1.1461826-.1102094-2.2430475-.5206714-3.18-1.19-2.5587716-1.9930098-4.1127434-5.0095431-4.25-8.25 3.7456566-2.9067566 5.9410842-7.3787873 5.95-12.12-.0110373-1.5185432-.2091978-3.0299371-.59-4.5 1.33-2.21 2.42-3.7 2.57-3.9l.02-.02.03.03c.39.54 5.99 8.17 7.56 15.68.2630611 1.2058882.4004615 2.4357891.41 3.67z" fill="#a4c2f7"/><path id="Shape" d="m19.95 41.54c-.1372566 3.2404569-1.6912284 6.2569902-4.25 8.25-.9369525.6693286-2.0338174 1.0797906-3.18 1.19-.17.01-.35.02-.52.02-1.3286457-.0118598-2.62107861-.4345203-3.7-1.21-2.56-1.77-4.3-5.32-4.3-9.41.00953849-1.2342109.14693885-2.4641118.41-3.67 1.57-7.51 7.17-15.14 7.56-15.68l.03-.03.02.02c.15.2 1.24 1.69 2.57 3.9-.3808022 1.4700629-.5789627 2.9814568-.59 4.5.0089158 4.7412127 2.2043434 9.2132434 5.95 12.12z" fill="#a4c2f7"/><path id="Shape" d="m46 29.42c-.029273 5.855088-3.3510255 11.1954142-8.59 13.81-4.6583009 2.3593165-10.1616991 2.3593165-14.82 0-5.2389745-2.6145858-8.560727-7.954912-8.59-13.81.02155-1.8227618.2975488-3.6335837.82-5.38 3.26-11.43 15.18-23.04 15.18-23.04s11.92 11.61 15.18 23.04c.5224512 1.7464163.79845 3.5572382.82 5.38z" fill="#cad9fc"/><path id="Shape" d="m43 29.42c0 6-2.827 11.21-6.979 13.81-3.6671287 2.3599502-8.3748713 2.3599502-12.042 0-4.152-2.6-6.979-7.81-6.979-13.81.0164657-1.8128395.2399135-3.6178682.666-5.38 2.649-11.43 12.334-23.04 12.334-23.04s9.685 11.61 12.334 23.04c.4260865 1.7621318.6495343 3.5671605.666 5.38z" fill="#e8edfc"/><path id="Shape" d="m27 36h6v1c0 1.6568542-1.3431458 3-3 3s-3-1.3431458-3-3z" fill="#a4c2f7"/><path id="Shape" d="m30 1s-10.3 10.04-14.37 20.638c.508.524 1.282 1.348 2.19 2.4 2.546-8.924 10.373-17.96 13.68-21.49-.928-.991-1.5-1.548-1.5-1.548z" fill="#fff"/><path id="Shape" d="m4 40.38c0-6.734 6.488-14.557 9.5-17.822-.8-.871-1.364-1.424-1.478-1.538-.026-.026-.013-.027-.05.01-.652.63-10.972 10.86-10.972 19.35.10675867 5.9694044 5.03053102 10.7230828 11 10.62.5052111-.0023532 1.0096887-.0387691 1.51-.109-5.35897549-.6198697-9.42775619-5.1169206-9.51-10.511z" fill="#fff"/><path id="Shape" d="m2.281 32.3 1.784.9c-1.21325486 2.2101771-1.91868773 4.6629655-2.065 7.18h-2c.14326604-2.8305583.92293433-5.592382 2.281-8.08z" fill="#fff"/><g fill="#428dff"><path id="Shape" d="m21.782 18.036c.2275438.1363698.4999488.1767389.7572629.1122228.2573141-.064516.4784493-.22863.6147371-.4562228 2.2260284-3.6198063 4.7672227-7.0360629 7.594-10.209.2370457-.26794919.3131358-.64200684.1996079-.98126906-.113528-.33926221-.3994264-.59218699-.75-.66350001-.3505737-.07131301-.7125622.04981987-.9496079.31776907-2.9084303 3.26596784-5.5229089 6.7822792-7.813 10.508-.1361117.2279074-.1760202.500582-.1109311.757937.065089.257355.2298338.4782697.4579311.614063z"/><path id="Shape" d="m6 40.38c0-2.18 1.325-5.34 3.73-8.88.21282259-.2952565.24842075-.6828289.09294325-1.0119134-.15547749-.3290844-.47747608-.5477086-.8407065-.5708061-.36323041-.0230975-.71032772.1529794-.90623675.4597195-1.859 2.735-4.076 6.695-4.076 10.003 0 .5522847.44771525 1 1 1s1-.4477153 1-1z"/><path id="Shape" d="m1.673 37.438c-.55228475.0027614-1.00223858-.4427153-1.005-.995s.44271525-1.0022386.995-1.005h.01c.55228475 0 1 .4477153 1 1s-.44771525 1-1 1z"/><path id="Shape" d="m48.694 20.281c-.3874691-.3740097-1.0015309-.3740097-1.389 0-.037.036-.7.683-1.7 1.779-3.854-10.908-14.364-21.247-14.905-21.776-.3881016-.3772385-1.0058984-.3772385-1.394 0-.544.529-11.054 10.869-14.9 21.776-1-1.1-1.668-1.743-1.7-1.779-.3869538-.3714428-.9980462-.3714428-1.385 0h-.005l-.021.022c-1.76552666 1.7673667-3.41118061 3.650548-4.926 5.637-1.55288891 1.991521-2.92120513 4.1203104-4.088 6.36-.12717081.2354735-.15185098.512899-.06824441.7671235.08360658.2542246.26813336.4628484.51024441.5768765.49349035.232291 1.08249194.0387368 1.342-.441 2.12370074-3.9495651 4.79850033-7.5769085 7.944-10.773.425.442 1.016 1.076 1.7 1.859-.4542099 1.6720711-.6924801 3.3954137-.709 5.128.0344583 5.9156967 3.2332736 11.3602453 8.384 14.27-1.5233161 3.8409808-5.2521369 6.3495109-9.384 6.313-5.41483131.097074-9.88733105-4.2054707-10-9.62 0-.5522847-.44771525-1-1-1s-1 .4477153-1 1c.11394529 6.5185756 5.48113248 11.7158019 12 11.62 4.8834796.0308848 9.2998946-2.896922 11.173-7.407 4.3580085 1.8760443 9.2959915 1.8760443 13.654 0 1.8731054 4.510078 6.2895204 7.4378848 11.173 7.407 6.5188675.0958019 11.8860547-5.1014244 12-11.62 0-9.08-10.844-19.654-11.306-20.099zm-33.694 9.136c0-10.753 11.955-23.835 15-26.992 3.045 3.155 15 16.231 15 26.992-.1261198 8.16439-6.8352989 14.687054-15 14.583-8.1647011.104054-14.8738802-6.41861-15-14.583zm33 20.583c-4.1318631.0365109-7.8606839-2.4720192-9.384-6.313 5.1507264-2.9097547 8.3495417-8.3543033 8.384-14.27-.0177538-1.7317103-.2570303-3.4540307-.712-5.125.687-.783 1.287-1.426 1.712-1.868 2.371 2.47 10 10.961 10 17.956-.112669 5.4145293-4.5851687 9.717074-10 9.62z"/><path id="Shape" d="m27 32c0-1.6568542-1.3431458-3-3-3s-3 1.3431458-3 3c0 .5522847.4477153 1 1 1s1-.4477153 1-1 .4477153-1 1-1 1 .4477153 1 1 .4477153 1 1 1 1-.4477153 1-1z"/><path id="Shape" d="m36 29c-1.6568542 0-3 1.3431458-3 3 0 .5522847.4477153 1 1 1s1-.4477153 1-1 .4477153-1 1-1 1 .4477153 1 1 .4477153 1 1 1 1-.4477153 1-1c0-1.6568542-1.3431458-3-3-3z"/><path id="Shape" d="m33 35h-6c-.5522847 0-1 .4477153-1 1v1c0 2.209139 1.790861 4 4 4s4-1.790861 4-4v-1c0-.5522847-.4477153-1-1-1zm-3 4c-1.1045695 0-2-.8954305-2-2h4c0 1.1045695-.8954305 2-2 2z"/><circle id="Oval" cx="20" cy="21" r="1"/></g></g></g></svg>