<?xml version="1.0" encoding="iso-8859-1"?>
<!-- Generator: Adobe Illustrator 19.0.0, SVG Export Plug-In . SVG Version: 6.00 Build 0)  -->
<svg version="1.1" id="Capa_1" xmlns="http://www.w3.org/2000/svg" xmlns:xlink="http://www.w3.org/1999/xlink" x="0px" y="0px"
	 viewBox="0 0 384 384" style="enable-background:new 0 0 384 384;" xml:space="preserve">
<circle style="fill:#83CFDF;" cx="88" cy="88" r="72"/>
<circle style="fill:#E16F47;" cx="296" cy="152" r="72"/>
<circle style="fill:#E6F7FA;" cx="240" cy="296" r="72"/>
<g>
	<path style="fill:#1C3252;" d="M16,240h40c8.832,0,16-7.168,16-16s-7.168-16-16-16H16c-8.832,0-16,7.168-16,16S7.168,240,16,240z"
		/>
	<path style="fill:#1C3252;" d="M296,64c-48.52,0-88,39.48-88,88c0,8.832,7.168,16,16,16s16-7.168,16-16c0-30.88,25.12-56,56-56
		s56,25.12,56,56s-25.12,56-56,56h-48H136c-8.832,0-16,7.168-16,16s7.168,16,16,16h104c30.88,0,56,25.12,56,56s-25.12,56-56,56
		s-56-25.12-56-56c0-8.832-7.168-16-16-16s-16,7.168-16,16c0,48.52,39.48,88,88,88s88-39.48,88-88
		c0-21.448-7.736-41.112-20.536-56.4c0.952-0.208,1.88-0.488,2.76-0.856C351.992,231.904,384,195.672,384,152
		C384,103.48,344.52,64,296,64z"/>
	<path style="fill:#1C3252;" d="M88,144H16c-8.832,0-16,7.168-16,16s7.168,16,16,16h72c48.52,0,88-39.48,88-88S136.52,0,88,0
		S0,39.48,0,88c0,8.832,7.168,16,16,16s16-7.168,16-16c0-30.88,25.12-56,56-56s56,25.12,56,56S118.88,144,88,144z"/>
</g>
<g>
</g>
<g>
</g>
<g>
</g>
<g>
</g>
<g>
</g>
<g>
</g>
<g>
</g>
<g>
</g>
<g>
</g>
<g>
</g>
<g>
</g>
<g>
</g>
<g>
</g>
<g>
</g>
<g>
</g>
</svg>
