<?xml version="1.0" encoding="iso-8859-1"?>
<!-- Generator: Adobe Illustrator 19.0.0, SVG Export Plug-In . SVG Version: 6.00 Build 0)  -->
<svg version="1.1" id="Capa_1" xmlns="http://www.w3.org/2000/svg" xmlns:xlink="http://www.w3.org/1999/xlink" x="0px" y="0px"
	 viewBox="0 0 480.122 480.122" style="enable-background:new 0 0 480.122 480.122;" xml:space="preserve">
<path style="fill:#83CFDF;" d="M240.061,336.122c0-22.4-20-40-44-40s-44,17.6-44,40c0-22.4-20-40-44-40s-44,17.6-44,40v-16
	c0-96.8,79.2-176,176-176s176,79.2,176,176v16c0-22.4-20-40-44-40s-44,17.6-44,40c0-22.4-20-40-44-40
	S240.061,313.722,240.061,336.122z"/>
<g>
	<path style="fill:#1C3252;" d="M256.061,128.922v-16.8c0-8.8-7.2-16-16-16s-16,7.2-16,16v16.8c-98.4,8-176,91.2-176,191.2v16
		c0,8.8,7.2,16,16,16s16-7.2,16-16c0-13.6,12.8-24,28-24s28,10.4,28,24c0,8.8,7.2,16,16,16s16-7.2,16-16c0-13.6,12.8-24,28-24
		s28,10.4,28,24v104c0,3.2-1.6,4.8-2.4,5.6c-0.8,0.8-2.4,2.4-5.6,2.4c-4.8,0-8-3.2-8-8v-8c0-8.8-7.2-16-16-16s-16,7.2-16,16v8
		c0,22.4,17.6,40,40,40c10.4,0,20.8-4,28-12s12-17.6,12-28v-104c0-13.6,12.8-24,28-24s28,10.4,28,24c0,8.8,7.2,16,16,16
		s16-7.2,16-16c0-13.6,12.8-24,28-24s28,10.4,28,24c0,8.8,7.2,16,16,16s16-7.2,16-16v-16
		C432.061,219.322,354.461,136.922,256.061,128.922z M372.061,280.122c-17.6,0-32.8,7.2-44,17.6c-11.2-11.2-26.4-17.6-44-17.6
		s-32.8,7.2-44,17.6c-11.2-11.2-26.4-17.6-44-17.6s-32.8,7.2-44,17.6c-11.2-11.2-26.4-17.6-44-17.6c-8.8,0-16.8,1.6-24,4.8
		c16-71.2,80-124.8,156-124.8s140,53.6,156,124.8C388.861,281.722,380.861,280.122,372.061,280.122z"/>
	<path style="fill:#1C3252;" d="M351.261,25.722c-8-4-17.6-0.8-21.6,7.2l-16,32c-4,8-0.8,17.6,7.2,21.6c2.4,0.8,4.8,1.6,7.2,1.6
		c5.6,0,11.2-3.2,14.4-8.8l16-32C362.461,39.322,359.261,29.722,351.261,25.722z"/>
	<path style="fill:#1C3252;" d="M257.661,8.922l-16,32c-4,8-0.8,17.6,7.2,21.6c2.4,0.8,4.8,1.6,7.2,1.6c5.6,0,11.2-3.2,14.4-8.8
		l16-32c4-8,0.8-17.6-7.2-21.6C271.261-2.278,261.661,0.922,257.661,8.922z"/>
	<path style="fill:#1C3252;" d="M360.861,126.522c2.4,0.8,4.8,1.6,7.2,1.6c5.6,0,11.2-3.2,14.4-8.8l16-32c4-8,0.8-17.6-7.2-21.6
		s-17.6-0.8-21.6,7.2l-16,32C349.661,112.922,352.861,122.522,360.861,126.522z"/>
	<path style="fill:#1C3252;" d="M151.261,1.722c-8-4-17.6-0.8-21.6,7.2l-16,32c-4,8-0.8,17.6,7.2,21.6c2.4,0.8,4.8,1.6,7.2,1.6
		c5.6,0,11.2-3.2,14.4-8.8l16-32C162.461,15.322,159.261,5.722,151.261,1.722z"/>
	<path style="fill:#1C3252;" d="M160.861,102.522c2.4,0.8,4.8,1.6,7.2,1.6c5.6,0,11.2-3.2,14.4-8.8l16-32c4-8,0.8-17.6-7.2-21.6
		s-17.6-0.8-21.6,7.2l-16,32C149.661,88.922,152.861,98.522,160.861,102.522z"/>
</g>
<g>
</g>
<g>
</g>
<g>
</g>
<g>
</g>
<g>
</g>
<g>
</g>
<g>
</g>
<g>
</g>
<g>
</g>
<g>
</g>
<g>
</g>
<g>
</g>
<g>
</g>
<g>
</g>
<g>
</g>
</svg>
