<?xml version="1.0" encoding="iso-8859-1"?>
<!-- Generator: Adobe Illustrator 19.0.0, SVG Export Plug-In . SVG Version: 6.00 Build 0)  -->
<svg version="1.1" id="Capa_1" xmlns="http://www.w3.org/2000/svg" xmlns:xlink="http://www.w3.org/1999/xlink" x="0px" y="0px"
	 viewBox="0 0 384 384" style="enable-background:new 0 0 384 384;" xml:space="preserve">
<path style="fill:#83CFDF;" d="M192,240c0-22.08-19.68-40-44-40s-44,17.92-44,40c0-22.08-19.68-40-44-40s-44,17.92-44,40v-16
	c0-97.2,78.8-176,176-176s176,78.8,176,176v16c0-22.08-19.68-40-44-40s-44,17.92-44,40c0-22.08-19.68-40-44-40S192,217.92,192,240z"
	/>
<path style="fill:#1C3252;" d="M208,32.72V16c0-8.832-7.168-16-16-16s-16,7.168-16,16v16.72C77.592,40.88,0,123.52,0,224v16
	c0,8.832,7.168,16,16,16s16-7.168,16-16c0-13.232,12.56-24,28-24s28,10.768,28,24c0,8.832,7.168,16,16,16s16-7.168,16-16
	c0-13.232,12.56-24,28-24s28,10.768,28,24v104c0,2.864-1.472,4.768-2.352,5.648S170.864,352,168,352c-4.408,0-8-3.592-8-8v-8
	c0-8.832-7.168-16-16-16s-16,7.168-16,16v8c0,22.056,17.944,40,40,40c10.672,0,20.712-4.168,28.272-11.728S208,354.672,208,344V240
	c0-13.232,12.56-24,28-24s28,10.768,28,24c0,8.832,7.168,16,16,16s16-7.168,16-16c0-13.232,12.56-24,28-24s28,10.768,28,24
	c0,8.832,7.168,16,16,16s16-7.168,16-16v-16C384,123.52,306.408,40.88,208,32.72z M324,184c-17.368,0-33.032,6.92-44,17.968
	C269.032,190.92,253.368,184,236,184s-33.032,6.92-44,17.968C181.032,190.92,165.368,184,148,184s-33.032,6.92-44,17.968
	C93.032,190.92,77.368,184,60,184c-8.56,0-16.704,1.68-24.08,4.704C52.032,117.408,115.896,64,192,64s139.968,53.408,156.08,124.704
	C340.704,185.68,332.56,184,324,184z"/>
<g>
</g>
<g>
</g>
<g>
</g>
<g>
</g>
<g>
</g>
<g>
</g>
<g>
</g>
<g>
</g>
<g>
</g>
<g>
</g>
<g>
</g>
<g>
</g>
<g>
</g>
<g>
</g>
<g>
</g>
</svg>
