<?xml version="1.0" encoding="iso-8859-1"?>
<!-- Generator: Adobe Illustrator 19.0.0, SVG Export Plug-In . SVG Version: 6.00 Build 0)  -->
<svg version="1.1" id="Capa_1" xmlns="http://www.w3.org/2000/svg" xmlns:xlink="http://www.w3.org/1999/xlink" x="0px" y="0px"
	 viewBox="0 0 392 392" style="enable-background:new 0 0 392 392;" xml:space="preserve">
<polygon style="fill:#E6F7FA;" points="282.4,88 259.68,152 100.32,152 52,16 308,16 "/>
<polygon style="fill:#83CFDF;" points="131.68,240 100.32,152 259.68,152 180,376 "/>
<g>
	<path style="fill:#1C3252;" d="M356,72h-50.92l17.992-50.64c1.744-4.896,1-10.336-2-14.584C318.072,2.528,313.2,0,308,0H52
		c-5.2,0-10.072,2.528-13.072,6.776s-3.744,9.68-2.008,14.584L77.688,136H36c-8.832,0-16,7.168-16,16s7.168,16,16,16h53.064
		l19.912,56H68c-8.832,0-16,7.168-16,16s7.168,16,16,16h52.352l44.568,125.352C167.192,387.736,173.224,392,180,392l0,0
		c6.768,0,12.808-4.264,15.072-10.64L270.968,168H324c8.832,0,16-7.168,16-16s-7.168-16-16-16h-41.656l11.368-32H356
		c8.832,0,16-7.168,16-16S364.832,72,356,72z M180.008,328.232L154.32,256H172c8.832,0,16-7.168,16-16s-7.168-16-16-16h-29.056
		l-19.912-56h113.952L180.008,328.232z M248.352,136H111.648L74.664,32h210.664l-14.224,40H148c-8.832,0-16,7.168-16,16
		s7.168,16,16,16h111.728L248.352,136z"/>
	<path style="fill:#1C3252;" d="M308,256c8.832,0,16-7.168,16-16s-7.168-16-16-16h-24c-8.832,0-16,7.168-16,16s7.168,16,16,16H308z"
		/>
</g>
<g>
</g>
<g>
</g>
<g>
</g>
<g>
</g>
<g>
</g>
<g>
</g>
<g>
</g>
<g>
</g>
<g>
</g>
<g>
</g>
<g>
</g>
<g>
</g>
<g>
</g>
<g>
</g>
<g>
</g>
</svg>
