<?xml version="1.0" encoding="iso-8859-1"?>
<!-- Generator: Adobe Illustrator 19.0.0, SVG Export Plug-In . SVG Version: 6.00 Build 0)  -->
<svg version="1.1" id="Capa_1" xmlns="http://www.w3.org/2000/svg" xmlns:xlink="http://www.w3.org/1999/xlink" x="0px" y="0px"
	 viewBox="0 0 384 384" style="enable-background:new 0 0 384 384;" xml:space="preserve">
<path style="fill:#83CFDF;" d="M188,248.64c19.12,10.96,32,31.68,32,55.36s-12.88,44.4-32,55.36c-9.36,5.52-20.32,8.64-32,8.64
	s-22.64-3.12-32-8.64C104.88,348.4,92,327.68,92,304s12.88-44.4,32-55.36V48c0-17.68,14.32-32,32-32c8.8,0,16.8,3.6,22.64,9.36
	C184.4,31.2,188,39.2,188,48V248.64z M164,304c0-4.4-3.6-8-8-8s-8,3.6-8,8s3.6,8,8,8S164,308.4,164,304z"/>
<circle style="fill:#E16F47;" cx="156" cy="304" r="64"/>
<g>
	<path style="fill:#1C3252;" d="M268,232c8.832,0,16-7.168,16-16s-7.168-16-16-16h-24c-8.832,0-16,7.168-16,16s7.168,16,16,16H268z"
		/>
	<path style="fill:#1C3252;" d="M308,160c0-8.832-7.168-16-16-16h-48c-8.832,0-16,7.168-16,16s7.168,16,16,16h48
		C300.832,176,308,168.832,308,160z"/>
	<path style="fill:#1C3252;" d="M244,120h24c8.832,0,16-7.168,16-16s-7.168-16-16-16h-24c-8.832,0-16,7.168-16,16
		S235.168,120,244,120z"/>
	<path style="fill:#1C3252;" d="M292,32h-48c-8.832,0-16,7.168-16,16s7.168,16,16,16h48c8.832,0,16-7.168,16-16S300.832,32,292,32z"
		/>
	<path style="fill:#1C3252;" d="M156,328c13.232,0,24-10.768,24-24s-10.768-24-24-24s-24,10.768-24,24S142.768,328,156,328z"/>
	<path style="fill:#1C3252;" d="M115.872,373.144C127.92,380.248,141.792,384,156,384s28.08-3.752,39.96-10.76
		C220.656,359.08,236,332.552,236,304c0-25.296-12.08-48.96-32-63.888V48c0-12.712-4.96-24.736-14.128-34.032
		C180.736,4.96,168.712,0,156,0c-26.472,0-48,21.528-48,48v192.112C88.08,255.04,76,278.704,76,304
		C76,332.552,91.344,359.08,115.872,373.144z M131.96,262.52c0.168-0.096,0.296-0.232,0.456-0.328c0.48-0.296,0.92-0.632,1.36-0.976
		c0.408-0.312,0.808-0.624,1.176-0.968c0.36-0.344,0.688-0.72,1.016-1.096c0.36-0.408,0.712-0.808,1.024-1.24
		c0.288-0.4,0.528-0.824,0.776-1.256c0.264-0.456,0.536-0.912,0.752-1.392c0.208-0.456,0.368-0.936,0.536-1.416
		c0.176-0.504,0.344-1,0.472-1.52c0.112-0.464,0.176-0.944,0.24-1.416c0.088-0.584,0.152-1.16,0.176-1.744
		c0.008-0.176,0.056-0.344,0.056-0.528V48c0-8.824,7.176-16,16-16c4.248,0,8.296,1.688,11.248,4.592
		C170.312,39.704,172,43.752,172,48v200.64c0,0.184,0.048,0.352,0.056,0.536c0.024,0.592,0.088,1.168,0.176,1.744
		c0.072,0.48,0.136,0.952,0.24,1.416c0.12,0.52,0.296,1.016,0.472,1.52c0.168,0.48,0.328,0.96,0.536,1.416
		c0.216,0.48,0.488,0.928,0.752,1.392c0.248,0.424,0.488,0.856,0.776,1.256c0.312,0.44,0.672,0.84,1.024,1.24
		c0.328,0.376,0.656,0.752,1.016,1.096c0.368,0.344,0.768,0.656,1.176,0.968c0.44,0.344,0.888,0.68,1.36,0.976
		c0.16,0.104,0.288,0.232,0.456,0.328C194.824,270.992,204,286.888,204,304s-9.176,33.008-24.128,41.576
		c-14.248,8.4-33.32,8.504-47.912-0.104C117.176,337.008,108,321.112,108,304S117.176,270.992,131.96,262.52z"/>
</g>
<g>
</g>
<g>
</g>
<g>
</g>
<g>
</g>
<g>
</g>
<g>
</g>
<g>
</g>
<g>
</g>
<g>
</g>
<g>
</g>
<g>
</g>
<g>
</g>
<g>
</g>
<g>
</g>
<g>
</g>
</svg>
