<?xml version="1.0" encoding="iso-8859-1"?>
<!-- Generator: Adobe Illustrator 19.0.0, SVG Export Plug-In . SVG Version: 6.00 Build 0)  -->
<svg version="1.1" id="Capa_1" xmlns="http://www.w3.org/2000/svg" xmlns:xlink="http://www.w3.org/1999/xlink" x="0px" y="0px"
	 viewBox="0 0 384 384" style="enable-background:new 0 0 384 384;" xml:space="preserve">
<path style="fill:#E16F47;" d="M80,200c0-61.856,50.144-112,112-112s112,50.144,112,112H80z"/>
<g>
	<path style="fill:#1C3252;" d="M352,256c0-8.832-7.168-16-16-16H48c-8.832,0-16,7.168-16,16s7.168,16,16,16h288
		C344.832,272,352,264.832,352,256z"/>
	<path style="fill:#1C3252;" d="M320,312c0-8.832-7.168-16-16-16H80c-8.832,0-16,7.168-16,16s7.168,16,16,16h224
		C312.832,328,320,320.832,320,312z"/>
	<path style="fill:#1C3252;" d="M112,352c-8.832,0-16,7.168-16,16s7.168,16,16,16h160c8.832,0,16-7.168,16-16s-7.168-16-16-16H112z"
		/>
	<path style="fill:#1C3252;" d="M208,32V16c0-8.832-7.168-16-16-16s-16,7.168-16,16v16c0,8.832,7.168,16,16,16S208,40.832,208,32z"
		/>
	<path style="fill:#1C3252;" d="M73.2,97.2c4.096,0,8.192-1.56,11.312-4.688c6.248-6.248,6.248-16.384,0-22.632L73.232,58.6
		c-6.248-6.24-16.392-6.248-22.624,0c-6.248,6.248-6.248,16.384,0,22.632l11.28,11.28C65.016,95.64,69.112,97.2,73.2,97.2z"/>
	<path style="fill:#1C3252;" d="M322.112,92.512l11.28-11.28c6.248-6.248,6.248-16.376,0-22.632s-16.376-6.248-22.624,0
		l-11.28,11.28c-6.248,6.248-6.248,16.376,0,22.632c3.128,3.128,7.216,4.688,11.312,4.688S318.984,95.64,322.112,92.512z"/>
	<path style="fill:#1C3252;" d="M368,184h-49.112C310.976,120.96,257.152,72,192,72S73.024,120.96,65.112,184H16
		c-8.832,0-16,7.168-16,16s7.168,16,16,16h200c8.832,0,16-7.168,16-16s-7.168-16-16-16H97.448c7.648-45.328,47.08-80,94.552-80
		c52.936,0,96,43.064,96,96c0,8.832,7.168,16,16,16h64c8.832,0,16-7.168,16-16S376.832,184,368,184z"/>
</g>
<g>
</g>
<g>
</g>
<g>
</g>
<g>
</g>
<g>
</g>
<g>
</g>
<g>
</g>
<g>
</g>
<g>
</g>
<g>
</g>
<g>
</g>
<g>
</g>
<g>
</g>
<g>
</g>
<g>
</g>
</svg>
