<?xml version="1.0" encoding="iso-8859-1"?>
<!-- Generator: Adobe Illustrator 19.0.0, SVG Export Plug-In . SVG Version: 6.00 Build 0)  -->
<svg version="1.1" id="Capa_1" xmlns="http://www.w3.org/2000/svg" xmlns:xlink="http://www.w3.org/1999/xlink" x="0px" y="0px"
	 viewBox="0 0 384 384" style="enable-background:new 0 0 384 384;" xml:space="preserve">
<path style="fill:#83CFDF;" d="M280,85.68c48.64,0,88,38.08,88,85.12c0,47.12-39.36,85.2-88,85.2H88c-39.76,0-72-31.2-72-69.68
	c0-36.4,28.8-66.16,65.52-69.36c-1.04-5.12-1.52-10.4-1.52-15.76C80,54.08,119.36,16,168,16c44.4,0,81.12,31.84,87.12,73.2
	C262.96,86.88,271.36,85.68,280,85.68z"/>
<g>
	<path style="fill:#1C3252;" d="M280,69.68c-4.36,0-8.672,0.256-12.912,0.776C253.568,29.32,213.624,0,168,0
		C110.656,0,64,45.4,64,101.2c0,0.896,0.008,1.784,0.032,2.672C26.592,114.024,0,147.088,0,186.32
		c0,36.576,23.712,67.792,56.92,80.056l-7.232,14.464c-3.952,7.904-0.752,17.512,7.16,21.472c2.296,1.152,4.736,1.688,7.136,1.688
		c5.872,0,11.52-3.24,14.328-8.848l11.68-23.36C97.88,270.808,104,264.152,104,256c0-8.832-7.168-16-16-16
		c-30.872,0-56-24.08-56-53.68c0-27.928,21.888-50.888,50.912-53.416c4.544-0.4,8.704-2.712,11.432-6.368
		c2.736-3.656,3.768-8.304,2.856-12.776c-0.8-3.896-1.2-8.12-1.2-12.56C96,63.04,128.296,32,168,32
		c35.72,0,66.36,25.576,71.28,59.496c0.672,4.592,3.296,8.672,7.208,11.176c3.904,2.512,8.712,3.176,13.168,1.872
		c6.424-1.896,13.264-2.864,20.344-2.864c39.704,0,72,31.008,72,69.12c0,38.16-32.296,69.2-72,69.2h-79.536l13.96-29.072
		c2.384-4.96,2.048-10.792-0.88-15.448c-2.928-4.656-8.04-7.48-13.544-7.48h-22.792l21.264-45.184
		c3.768-8,0.328-17.528-7.664-21.288c-7.976-3.752-17.512-0.336-21.288,7.664l-32,68c-2.336,4.96-1.968,10.76,0.968,15.384
		C141.424,217.2,146.52,220,152,220h22.568l-36.992,77.08c-3.832,7.968-0.472,17.52,7.504,21.344
		c2.232,1.072,4.584,1.576,6.912,1.576c5.96,0,11.68-3.344,14.432-9.08l18.68-38.92h29.008l-4.424,8.84
		c-3.952,7.904-0.752,17.512,7.16,21.472c2.296,1.152,4.736,1.688,7.136,1.688c5.872,0,11.52-3.24,14.328-8.848L249.888,272h28.216
		l-4.424,8.84c-3.952,7.904-0.752,17.512,7.16,21.472c2.304,1.152,4.744,1.688,7.144,1.688c5.872,0,11.52-3.24,14.328-8.848
		l15-30.008C356.256,250.512,384,213.792,384,170.8C384,115.04,337.344,69.68,280,69.68z"/>
	<path style="fill:#1C3252;" d="M239.984,384c5.872,0,11.52-3.24,14.328-8.848l16-32c3.952-7.904,0.752-17.512-7.16-21.472
		c-7.912-3.968-17.512-0.736-21.472,7.16l-16,32c-3.952,7.904-0.752,17.512,7.16,21.472C235.144,383.464,237.584,384,239.984,384z"
		/>
	<path style="fill:#1C3252;" d="M79.984,384c5.872,0,11.52-3.24,14.328-8.848l16-32c3.952-7.904,0.752-17.512-7.16-21.472
		c-7.928-3.968-17.512-0.736-21.472,7.16l-16,32c-3.952,7.904-0.752,17.512,7.16,21.472C75.144,383.464,77.584,384,79.984,384z"/>
	<path style="fill:#1C3252;" d="M175.984,384c5.872,0,11.52-3.24,14.328-8.848l16-32c3.952-7.904,0.752-17.512-7.16-21.472
		c-7.92-3.968-17.512-0.736-21.472,7.16l-16,32c-3.952,7.904-0.752,17.512,7.16,21.472C171.144,383.464,173.584,384,175.984,384z"/>
</g>
<g>
</g>
<g>
</g>
<g>
</g>
<g>
</g>
<g>
</g>
<g>
</g>
<g>
</g>
<g>
</g>
<g>
</g>
<g>
</g>
<g>
</g>
<g>
</g>
<g>
</g>
<g>
</g>
<g>
</g>
</svg>
