<?xml version="1.0" encoding="iso-8859-1"?>
<!-- Generator: Adobe Illustrator 19.0.0, SVG Export Plug-In . SVG Version: 6.00 Build 0)  -->
<svg version="1.1" id="Capa_1" xmlns="http://www.w3.org/2000/svg" xmlns:xlink="http://www.w3.org/1999/xlink" x="0px" y="0px"
	 viewBox="0 0 384 384" style="enable-background:new 0 0 384 384;" xml:space="preserve">
<circle style="fill:#83CFDF;" cx="192" cy="192" r="104"/>
<path style="fill:#1C3252;" d="M368,176h-14.112l4.424-8.84c3.952-7.904,0.752-17.512-7.16-21.472
	c-7.92-3.968-17.512-0.736-21.472,7.16L318.112,176h-87.488l61.856-61.856l24.552,8.168c1.672,0.552,3.376,0.824,5.048,0.824
	c6.704,0,12.952-4.248,15.176-10.952c2.792-8.384-1.744-17.448-10.136-20.232l-9.336-3.104l10-10c6.248-6.248,6.248-16.376,0-22.624
	s-16.376-6.248-22.624,0l-10,10l-3.104-9.336c-2.784-8.384-11.848-12.92-20.224-10.136c-8.384,2.792-12.92,11.84-10.136,20.232
	l8.16,24.544L208,153.376V65.888l23.16-11.576c7.904-3.952,11.112-13.56,7.16-21.472c-3.952-7.896-13.544-11.112-21.472-7.16
	L208,30.112V16c0-8.832-7.168-16-16-16s-16,7.168-16,16v14.112l-8.84-4.424c-7.888-3.952-17.512-0.752-21.472,7.16
	c-3.952,7.904-0.744,17.512,7.16,21.472L176,65.888v87.488L114.144,91.52l8.16-24.544c2.792-8.384-1.752-17.448-10.136-20.232
	c-8.384-2.784-17.44,1.744-20.232,10.136l-3.104,9.336l-10-10c-6.24-6.248-16.384-6.248-22.624,0
	c-6.248,6.248-6.248,16.376,0,22.624l10,10l-9.336,3.104c-8.384,2.792-12.92,11.848-10.136,20.232
	c2.232,6.704,8.48,10.952,15.176,10.952c1.672,0,3.376-0.264,5.056-0.824l24.544-8.16L153.376,176H65.888l-11.576-23.16
	c-3.96-7.904-13.584-11.104-21.472-7.16c-7.904,3.952-11.104,13.56-7.16,21.472L30.112,176H16c-8.832,0-16,7.168-16,16
	s7.168,16,16,16h14.112l-4.424,8.84c-3.952,7.904-0.744,17.512,7.16,21.472c2.296,1.152,4.736,1.688,7.144,1.688
	c5.864,0,11.52-3.24,14.328-8.848L65.888,208h87.488L91.52,269.856l-24.544-8.16c-8.384-2.776-17.448,1.744-20.232,10.136
	c-2.792,8.384,1.752,17.448,10.136,20.232l9.336,3.104l-10,10c-6.248,6.248-6.248,16.376,0,22.624
	c3.12,3.128,7.216,4.688,11.312,4.688s8.192-1.56,11.312-4.688l10-10l3.104,9.336c2.232,6.704,8.48,10.952,15.176,10.952
	c1.672,0,3.376-0.264,5.056-0.824c8.384-2.792,12.92-11.848,10.136-20.232l-8.16-24.544L176,230.624v87.488l-23.16,11.576
	c-7.904,3.952-11.104,13.56-7.16,21.472c2.816,5.6,8.464,8.84,14.328,8.84c2.408,0,4.848-0.544,7.144-1.688l8.848-4.424V368
	c0,8.832,7.168,16,16,16s16-7.168,16-16v-14.112l8.84,4.424c2.304,1.152,4.744,1.688,7.144,1.688c5.872,0,11.52-3.24,14.328-8.848
	c3.952-7.904,0.752-17.512-7.16-21.472L208,318.112v-87.488l61.864,61.864l-8.16,24.544c-2.792,8.384,1.752,17.44,10.136,20.232
	c1.672,0.552,3.376,0.824,5.048,0.824c6.704,0,12.952-4.248,15.176-10.96l3.104-9.336l10,10c3.128,3.128,7.216,4.688,11.312,4.688
	s8.184-1.56,11.312-4.688c6.248-6.248,6.248-16.376,0-22.624l-10-10l9.336-3.104c8.392-2.792,12.92-11.848,10.136-20.232
	c-2.784-8.376-11.848-12.904-20.224-10.136l-24.552,8.168L230.624,208h87.488l11.576,23.16c2.808,5.6,8.456,8.84,14.328,8.84
	c2.4,0,4.84-0.544,7.144-1.688c7.904-3.952,11.112-13.56,7.16-21.472l-4.432-8.84H368c8.832,0,16-7.168,16-16S376.832,176,368,176z"
	/>
<g>
</g>
<g>
</g>
<g>
</g>
<g>
</g>
<g>
</g>
<g>
</g>
<g>
</g>
<g>
</g>
<g>
</g>
<g>
</g>
<g>
</g>
<g>
</g>
<g>
</g>
<g>
</g>
<g>
</g>
</svg>
