<?xml version="1.0" encoding="iso-8859-1"?>
<!-- Generator: Adobe Illustrator 19.0.0, SVG Export Plug-In . SVG Version: 6.00 Build 0)  -->
<svg version="1.1" id="Capa_1" xmlns="http://www.w3.org/2000/svg" xmlns:xlink="http://www.w3.org/1999/xlink" x="0px" y="0px"
	 viewBox="0 0 384 384" style="enable-background:new 0 0 384 384;" xml:space="preserve">
<path style="fill:#83CFDF;" d="M256,192c0-35.36-28.64-64-64-64s-64,28.64-64,64H72c0-66.24,53.76-120,120-120s120,53.76,120,120
	H256z"/>
<path style="fill:#E16F47;" d="M312,192c0-66.24-53.76-120-120-120S72,125.76,72,192H16C16,94.8,94.8,16,192,16s176,78.8,176,176
	H312z"/>
<path style="fill:#E6F7FA;" d="M128,192c0-35.344,28.656-64,64-64s64,28.656,64,64H128z"/>
<g>
	<path style="fill:#1C3252;" d="M336,240H48c-8.832,0-16,7.168-16,16s7.168,16,16,16h288c8.832,0,16-7.168,16-16
		S344.832,240,336,240z"/>
	<path style="fill:#1C3252;" d="M304,296H80c-8.832,0-16,7.168-16,16s7.168,16,16,16h224c8.832,0,16-7.168,16-16
		S312.832,296,304,296z"/>
	<path style="fill:#1C3252;" d="M272,352H112c-8.832,0-16,7.168-16,16s7.168,16,16,16h160c8.832,0,16-7.168,16-16
		S280.832,352,272,352z"/>
	<path style="fill:#1C3252;" d="M192,0C86.128,0,0,86.128,0,192c0,1.392,0.232,2.712,0.568,4C0.232,197.288,0,198.608,0,200
		c0,8.832,7.168,16,16,16h160c8.832,0,16-7.168,16-16s-7.168-16-16-16h-31.28c3.824-22.664,23.536-40,47.28-40
		c8.832,0,16-7.168,16-16s-7.168-16-16-16c-41.416,0-75.568,31.632-79.592,72h-24C92.512,130.392,137.352,88,192,88
		s99.488,42.392,103.592,96H271.6c-1.256-12.616-5.472-24.664-12.368-35.232c-4.832-7.4-14.752-9.488-22.144-4.648
		c-7.4,4.832-9.48,14.744-4.648,22.144c4.944,7.568,7.56,16.472,7.56,25.736v8c0,8.832,7.168,16,16,16h112c8.832,0,16-7.168,16-16
		v-8c0-36.92-10.48-72.72-30.296-103.512C318.192,33.08,257.744,0,192,0z M327.592,184C323.416,112.736,264.288,56,192,56
		S60.584,112.736,56.408,184h-24C36.616,99.504,106.48,32,192,32c54.792,0,105.168,27.568,134.784,73.776
		c15.064,23.416,23.648,50.304,25.024,78.224H327.592z"/>
</g>
<g>
</g>
<g>
</g>
<g>
</g>
<g>
</g>
<g>
</g>
<g>
</g>
<g>
</g>
<g>
</g>
<g>
</g>
<g>
</g>
<g>
</g>
<g>
</g>
<g>
</g>
<g>
</g>
<g>
</g>
</svg>
