<?xml version="1.0" encoding="iso-8859-1"?>
<!-- Generator: Adobe Illustrator 19.0.0, SVG Export Plug-In . SVG Version: 6.00 Build 0)  -->
<svg version="1.1" id="Capa_1" xmlns="http://www.w3.org/2000/svg" xmlns:xlink="http://www.w3.org/1999/xlink" x="0px" y="0px"
	 viewBox="0 0 384 384" style="enable-background:new 0 0 384 384;" xml:space="preserve">
<path style="fill:#83CFDF;" d="M256,280c0-35.36-28.64-64-64-64s-64,28.64-64,64H72c0-66.24,53.76-120,120-120s120,53.76,120,120
	H256z"/>
<path style="fill:#E16F47;" d="M312,280c0-66.24-53.76-120-120-120S72,213.76,72,280H16c0-97.2,78.8-176,176-176s176,78.8,176,176
	H312z"/>
<g>
	<path style="fill:#1C3252;" d="M192,88C86.128,88,0,174.128,0,280c0,8.832,7.168,16,16,16s16-7.168,16-16
		c0-88.224,71.776-160,160-160s160,71.776,160,160c0,8.832,7.168,16,16,16s16-7.168,16-16C384,174.128,297.872,88,192,88z"/>
	<path style="fill:#1C3252;" d="M192,144c-74.992,0-136,61.008-136,136c0,8.832,7.168,16,16,16s16-7.168,16-16
		c0-57.344,46.656-104,104-104s104,46.656,104,104c0,8.832,7.168,16,16,16s16-7.168,16-16C328,205.008,266.992,144,192,144z"/>
	<path style="fill:#1C3252;" d="M192,200c-44.112,0-80,35.888-80,80c0,8.832,7.168,16,16,16s16-7.168,16-16
		c0-26.472,21.528-48,48-48s48,21.528,48,48c0,8.832,7.168,16,16,16s16-7.168,16-16C272,235.888,236.112,200,192,200z"/>
</g>
<g>
</g>
<g>
</g>
<g>
</g>
<g>
</g>
<g>
</g>
<g>
</g>
<g>
</g>
<g>
</g>
<g>
</g>
<g>
</g>
<g>
</g>
<g>
</g>
<g>
</g>
<g>
</g>
<g>
</g>
</svg>
