<?xml version="1.0" encoding="iso-8859-1"?>
<!-- Generator: Adobe Illustrator 19.0.0, SVG Export Plug-In . SVG Version: 6.00 Build 0)  -->
<svg version="1.1" id="Capa_1" xmlns="http://www.w3.org/2000/svg" xmlns:xlink="http://www.w3.org/1999/xlink" x="0px" y="0px"
	 viewBox="0 0 384 384" style="enable-background:new 0 0 384 384;" xml:space="preserve">
<path style="fill:#83CFDF;" d="M231.92,135.34c-4.4,10.88-11.04,21.04-19.84,29.84c-35.76,35.76-93.6,35.76-129.28,0
	c-35.76-35.68-35.76-93.52,0-129.28c8.8-8.8,18.96-15.44,29.84-19.84c-4.4,10.72-6.8,22.32-6.8,34.64
	c0,50.48,40.96,91.44,91.44,91.44C209.6,142.14,221.2,139.74,231.92,135.34z"/>
<g>
	<path style="fill:#1C3252;" d="M128.48,14.396c-0.808-8.08-7.544-14.376-15.84-14.376c-1.016,0-1.984,0.16-2.944,0.336
		c-0.096,0.024-0.2,0.016-0.304,0.04c-0.712,0.144-1.376,0.392-2.048,0.632c-0.376,0.128-0.752,0.24-1.112,0.4
		c-0.192,0.088-0.416,0.12-0.608,0.216C92.888,6.956,81.408,14.668,71.488,24.588c-20.336,20.328-31.52,47.336-31.504,76.04
		C40,129.292,51.192,156.244,71.48,176.476c20.264,20.312,47.208,31.504,75.88,31.52c0.016,0,0.04,0,0.056,0
		c28.68,0,55.664-11.184,75.984-31.504c9.872-9.864,17.56-21.28,22.864-33.936c0.12-0.24,0.168-0.52,0.28-0.768
		c0.16-0.36,0.272-0.728,0.4-1.096c0.24-0.672,0.488-1.344,0.64-2.056c0.088-0.416,0.096-0.856,0.152-1.28
		c0.088-0.672,0.24-1.32,0.24-2.016c0-7.96-5.864-14.512-13.488-15.744c-0.824-0.136-1.648-0.248-2.488-0.248
		c-0.024,0-0.04-0.008-0.064-0.008c-0.064,0-0.128,0.032-0.192,0.032c-1.32,0.016-2.64,0.24-3.96,0.6
		c-0.352,0.096-0.688,0.192-1.032,0.304c-0.296,0.104-0.6,0.144-0.896,0.264c-9.048,3.72-18.664,5.6-28.56,5.6
		c-41.6,0-75.44-33.84-75.44-75.44c0-9.896,1.88-19.512,5.6-28.56c0.144-0.352,0.2-0.712,0.312-1.064
		c0.088-0.264,0.16-0.528,0.24-0.792c0.384-1.4,0.632-2.816,0.632-4.216c0-0.024,0.016-0.056,0.016-0.08c0-0.008,0-0.016,0-0.024
		C128.632,15.428,128.536,14.916,128.48,14.396z M196.12,158.084c-13.624,11.568-30.672,17.92-48.712,17.92c-0.008,0-0.024,0-0.04,0
		c-20.112-0.008-39.016-7.864-53.264-22.152c-14.256-14.216-22.112-33.128-22.12-53.24c-0.008-18.048,6.336-35.12,17.92-48.752
		C90.528,110.172,137.808,157.452,196.12,158.084z"/>
	<path style="fill:#1C3252;" d="M352,255.98c0-8.832-7.168-16-16-16H48c-8.832,0-16,7.168-16,16c0,8.832,7.168,16,16,16h288
		C344.832,271.98,352,264.812,352,255.98z"/>
	<path style="fill:#1C3252;" d="M320,311.98c0-8.832-7.168-16-16-16H80c-8.832,0-16,7.168-16,16s7.168,16,16,16h224
		C312.832,327.98,320,320.812,320,311.98z"/>
	<path style="fill:#1C3252;" d="M112,351.98c-8.832,0-16,7.168-16,16s7.168,16,16,16h160c8.832,0,16-7.168,16-16s-7.168-16-16-16
		H112z"/>
	<path style="fill:#1C3252;" d="M16,183.98c-8.832,0-16,7.168-16,16s7.168,16,16,16h16c8.832,0,16-7.168,16-16s-7.168-16-16-16H16z"
		/>
	<path style="fill:#1C3252;" d="M368,183.98H264c-8.832,0-16,7.168-16,16s7.168,16,16,16h104c8.832,0,16-7.168,16-16
		S376.832,183.98,368,183.98z"/>
</g>
<g>
</g>
<g>
</g>
<g>
</g>
<g>
</g>
<g>
</g>
<g>
</g>
<g>
</g>
<g>
</g>
<g>
</g>
<g>
</g>
<g>
</g>
<g>
</g>
<g>
</g>
<g>
</g>
<g>
</g>
</svg>
