<?xml version="1.0" encoding="iso-8859-1"?>
<!-- Generator: Adobe Illustrator 19.0.0, SVG Export Plug-In . SVG Version: 6.00 Build 0)  -->
<svg version="1.1" id="Capa_1" xmlns="http://www.w3.org/2000/svg" xmlns:xlink="http://www.w3.org/1999/xlink" x="0px" y="0px"
	 viewBox="0 0 383.841 383.841" style="enable-background:new 0 0 383.841 383.841;" xml:space="preserve">
<path style="fill:#83CFDF;" d="M367.793,254.601c-8.8,21.76-22.08,42.16-39.84,59.84c-71.44,71.36-187.12,71.36-258.56,0
	c-71.36-71.44-71.36-187.12,0-258.56c17.68-17.76,38.08-31.04,59.84-39.84c-8.8,21.44-13.6,44.8-13.6,69.36
	c0,100.96,81.84,182.8,182.8,182.8C322.993,268.201,346.353,263.401,367.793,254.601z"/>
<path style="fill:#1C3252;" d="M145.073,14.361c-0.816-8.064-7.552-14.36-15.84-14.36c-1.912,0-3.704,0.424-5.4,1.048
	c-0.32,0.112-0.648,0.208-0.96,0.344c-0.2,0.088-0.424,0.128-0.616,0.216c-24.032,9.872-45.632,24.336-64.184,42.968
	c-77.432,77.52-77.432,203.656,0.008,281.184c38.768,38.72,89.68,58.08,140.6,58.08c50.904,0,101.816-19.352,140.56-58.056
	c18.608-18.52,33.04-40.056,42.912-64.008c0.12-0.232,0.168-0.504,0.272-0.744c0.152-0.344,0.256-0.696,0.384-1.048
	c0.248-0.688,0.496-1.36,0.648-2.088c0.08-0.368,0.08-0.744,0.128-1.112c0.096-0.72,0.256-1.424,0.256-2.168
	c0-5.552-2.848-10.44-7.152-13.304c-0.136-0.088-0.288-0.144-0.424-0.232c-0.728-0.456-1.48-0.888-2.288-1.224
	c-0.944-0.4-1.936-0.704-2.944-0.912c-0.048-0.008-0.096-0.008-0.144-0.016c-0.992-0.2-2.008-0.304-3.032-0.304
	c-0.016,0-0.032-0.008-0.048-0.008c-0.048,0-0.096,0.024-0.152,0.024c-1.336,0.016-2.672,0.24-4,0.6
	c-0.352,0.096-0.696,0.192-1.032,0.312c-0.296,0.104-0.592,0.144-0.888,0.264c-20.048,8.224-41.336,12.4-63.288,12.4
	c-91.976,0-166.8-74.824-166.8-166.8c0-21.952,4.168-43.24,12.4-63.288c0.144-0.344,0.2-0.704,0.312-1.048
	c0.088-0.272,0.168-0.536,0.24-0.808c0.384-1.4,0.632-2.808,0.632-4.208c0-0.032,0.016-0.056,0.016-0.08c0-0.008,0-0.016,0-0.024
	C145.225,15.401,145.129,14.881,145.073,14.361z M298.433,284.201c12.488,0,24.8-1.168,36.864-3.424
	c-5.536,7.888-11.68,15.408-18.656,22.352c-65.048,64.984-170.888,64.976-235.928,0.008c-64.976-65.048-64.976-170.896,0.016-235.96
	c6.936-6.968,14.448-13.104,22.328-18.632c-2.256,12.064-3.424,24.376-3.424,36.864C99.633,195.017,188.817,284.201,298.433,284.201
	z"/>
<g>
</g>
<g>
</g>
<g>
</g>
<g>
</g>
<g>
</g>
<g>
</g>
<g>
</g>
<g>
</g>
<g>
</g>
<g>
</g>
<g>
</g>
<g>
</g>
<g>
</g>
<g>
</g>
<g>
</g>
</svg>
