<?xml version="1.0" encoding="iso-8859-1"?>
<!-- Generator: Adobe Illustrator 19.0.0, SVG Export Plug-In . SVG Version: 6.00 Build 0)  -->
<svg version="1.1" id="Capa_1" xmlns="http://www.w3.org/2000/svg" xmlns:xlink="http://www.w3.org/1999/xlink" x="0px" y="0px"
	 viewBox="0 0 384 384" style="enable-background:new 0 0 384 384;" xml:space="preserve">
<path style="fill:#83CFDF;" d="M280,101.68c48.64,0,88,38.08,88,85.12c0,47.12-39.36,85.2-88,85.2H88c-39.76,0-72-31.2-72-69.68
	c0-36.4,28.8-66.16,65.52-69.36c-1.04-5.12-1.52-10.4-1.52-15.76C80,70.08,119.36,32,168,32c44.4,0,81.12,31.84,87.12,73.2
	C262.96,102.88,271.36,101.68,280,101.68z"/>
<path style="fill:#E16F47;" d="M265.6,272c3.92,9.12,6.4,17.52,6.4,24c0,30.96-25.04,56-56,56s-56-25.04-56-56s56-104,56-104
	S250.96,237.6,265.6,272z"/>
<path style="fill:#1C3252;" d="M280,85.68c-4.36,0-8.664,0.256-12.912,0.776C253.568,45.32,213.632,16,168,16
	C110.656,16,64,61.4,64,117.2c0,0.896,0.008,1.784,0.032,2.672C26.592,130.024,0,163.096,0,202.32C0,249.56,39.48,288,88,288
	c8.832,0,16-7.168,16-16s-7.168-16-16-16c-30.88,0-56-24.08-56-53.68c0-27.928,21.888-50.888,50.912-53.416
	c4.536-0.4,8.696-2.712,11.424-6.36c2.728-3.656,3.768-8.296,2.864-12.76c-0.8-3.928-1.2-8.16-1.2-12.584
	C96,79.04,128.304,48,168,48c35.72,0,66.368,25.576,71.288,59.496c0.664,4.592,3.296,8.672,7.208,11.176
	c3.92,2.504,8.712,3.176,13.168,1.864c6.416-1.896,13.256-2.856,20.336-2.856c39.696,0,72,31.008,72,69.12
	c0,38.16-32.304,69.2-72,69.2h-4.2c-16.696-33.88-45.76-71.976-47.104-73.736C225.664,178.32,220.976,176,216,176
	s-9.664,2.32-12.696,6.264C193.4,195.176,144,261.368,144,296c0,39.696,32.304,72,72,72s72-32.304,72-72
	c0-2.608-0.336-5.424-0.832-8.352c54-3.608,96.832-47.4,96.832-100.848C384,131.04,337.344,85.68,280,85.68z M216,336
	c-22.056,0-40-17.944-40-40c0-14.344,20.512-49.024,39.952-76.824c11.056,15.824,26.6,39.576,34.896,59.032
	c0.008,0.016,0.016,0.032,0.024,0.048s0.016,0.04,0.024,0.056C255.504,289.032,256,294.256,256,296C256,318.056,238.056,336,216,336
	z"/>
<g>
</g>
<g>
</g>
<g>
</g>
<g>
</g>
<g>
</g>
<g>
</g>
<g>
</g>
<g>
</g>
<g>
</g>
<g>
</g>
<g>
</g>
<g>
</g>
<g>
</g>
<g>
</g>
<g>
</g>
</svg>
