<?xml version="1.0" encoding="iso-8859-1"?>
<!-- Generator: Adobe Illustrator 19.0.0, SVG Export Plug-In . SVG Version: 6.00 Build 0)  -->
<svg version="1.1" id="Capa_1" xmlns="http://www.w3.org/2000/svg" xmlns:xlink="http://www.w3.org/1999/xlink" x="0px" y="0px"
	 viewBox="0 0 384 384" style="enable-background:new 0 0 384 384;" xml:space="preserve">
<path style="fill:#E6F7FA;" d="M340.64,97.68C358,124.96,368,157.28,368,192c0,97.2-78.8,176-176,176c-8.4,0-16.64-0.56-24.72-1.76
	c5.6-11.52,8.72-24.56,8.72-38.24c0-48.64-39.36-88-88-88c-22.08,0-42.24,8.08-57.68,21.6C21.12,240.24,16,216.72,16,192
	C16,94.8,94.8,16,192,16c21.76,0,42.64,3.92,61.92,11.2C245.2,37.04,240,49.84,240,64c0,30.96,25.04,56,56,56
	C314.32,120,330.56,111.28,340.64,97.68z M296,208c0-8.8-7.2-16-16-16s-16,7.2-16,16s7.2,16,16,16S296,216.8,296,208z M184,152
	c0-22.08-17.92-40-40-40s-40,17.92-40,40s17.92,40,40,40S184,174.08,184,152z"/>
<g>
	<path style="fill:#83CFDF;" d="M340.64,97.68C330.56,111.28,314.32,120,296,120c-30.96,0-56-25.04-56-56
		c0-14.16,5.2-26.96,13.92-36.8C289.92,40.72,320.32,65.68,340.64,97.68z"/>
	<circle style="fill:#83CFDF;" cx="144" cy="152" r="40"/>
	<path style="fill:#83CFDF;" d="M176,328c0,13.68-3.12,26.72-8.72,38.24C105.6,357.6,54.16,316.88,30.32,261.6
		C45.76,248.08,65.92,240,88,240C136.64,240,176,279.36,176,328z"/>
</g>
<g>
	<path style="fill:#1C3252;" d="M144,96c-30.88,0-56,25.12-56,56s25.12,56,56,56s56-25.12,56-56S174.88,96,144,96z M144,176
		c-13.232,0-24-10.768-24-24s10.768-24,24-24s24,10.768,24,24S157.232,176,144,176z"/>
	<path style="fill:#1C3252;" d="M280,176c-17.648,0-32,14.352-32,32s14.352,32,32,32s32-14.352,32-32S297.648,176,280,176z M264,208
		l15.984-0.048c0.008,0.008,0.016,0.04,0.016,0.048H264z"/>
	<path style="fill:#1C3252;" d="M354.352,89.448c-0.072-0.112-0.128-0.232-0.208-0.344c-22.24-35.016-55.832-62.328-94.576-76.872
		c-0.12-0.048-0.24-0.072-0.36-0.12c-0.144-0.048-0.28-0.096-0.416-0.136C237.52,4.048,215.056,0,192,0C86.128,0,0,86.128,0,192
		c0,26.304,5.256,51.848,15.624,75.928c0,0,0,0,0,0.008C42.016,329.128,99.28,372.872,164.92,382.064
		c8.632,1.28,17.744,1.936,27.08,1.936c105.864,0,192-86.128,192-192c0-36.408-10.224-71.784-29.528-102.344
		C354.432,89.584,354.392,89.52,354.352,89.448z M319.992,95.968C313.224,101.12,304.912,104,296,104c-22.056,0-40-17.944-40-40
		c0-6.024,1.432-11.688,3.912-16.904C283.512,58.192,304.28,75.088,319.992,95.968z M50.504,266.584C61.68,259.72,74.632,256,88,256
		c39.696,0,72,32.304,72,72c0,6.824-1.08,13.584-2.952,20.072C111.632,337.904,72.352,307.872,50.504,266.584z M192,352
		c-0.952,0-1.864-0.08-2.808-0.096C191.024,344.096,192,336.056,192,328c0-57.344-46.656-104-104-104
		c-17.48,0-34.456,4.472-49.528,12.664C34.264,222.208,32,207.28,32,192c0-88.224,71.776-160,160-160
		c12.792,0,25.328,1.624,37.52,4.56C225.944,45.184,224,54.48,224,64c0,39.696,32.296,72,72,72c14.632,0,28.736-4.552,40.528-12.592
		C346.648,144.712,352,168.064,352,192C352,280.224,280.224,352,192,352z"/>
</g>
<g>
</g>
<g>
</g>
<g>
</g>
<g>
</g>
<g>
</g>
<g>
</g>
<g>
</g>
<g>
</g>
<g>
</g>
<g>
</g>
<g>
</g>
<g>
</g>
<g>
</g>
<g>
</g>
<g>
</g>
</svg>
