<?xml version="1.0" encoding="iso-8859-1"?>
<!-- Generator: Adobe Illustrator 19.0.0, SVG Export Plug-In . SVG Version: 6.00 Build 0)  -->
<svg version="1.1" id="Capa_1" xmlns="http://www.w3.org/2000/svg" xmlns:xlink="http://www.w3.org/1999/xlink" x="0px" y="0px"
	 viewBox="0 0 384 384" style="enable-background:new 0 0 384 384;" xml:space="preserve">
<path style="fill:#83CFDF;" d="M192,16c97.2,0,176,78.8,176,176s-78.8,176-176,176S16,289.2,16,192S94.8,16,192,16z M136,104
	c0-4.4-3.6-8-8-8s-8,3.6-8,8s3.6,8,8,8S136,108.4,136,104z"/>
<g>
	<path style="fill:#1C3252;" d="M128,80c-13.232,0-24,10.768-24,24s10.768,24,24,24s24-10.768,24-24S141.232,80,128,80z"/>
	<path style="fill:#1C3252;" d="M272,120h-80c-8.832,0-16,7.168-16,16v144c0,8.832,7.168,16,16,16s16-7.168,16-16v-56h32
		c8.832,0,16-7.168,16-16s-7.168-16-16-16h-32v-40h64c8.832,0,16-7.168,16-16S280.832,120,272,120z"/>
	<path style="fill:#1C3252;" d="M192,0C86.136,0,0,86.128,0,192s86.136,192,192,192s192-86.128,192-192S297.864,0,192,0z M192,352
		c-88.224,0-160-71.776-160-160S103.776,32,192,32s160,71.776,160,160S280.224,352,192,352z"/>
</g>
<g>
</g>
<g>
</g>
<g>
</g>
<g>
</g>
<g>
</g>
<g>
</g>
<g>
</g>
<g>
</g>
<g>
</g>
<g>
</g>
<g>
</g>
<g>
</g>
<g>
</g>
<g>
</g>
<g>
</g>
</svg>
