<?xml version="1.0" encoding="iso-8859-1"?>
<!-- Generator: Adobe Illustrator 19.0.0, SVG Export Plug-In . SVG Version: 6.00 Build 0)  -->
<svg version="1.1" id="Capa_1" xmlns="http://www.w3.org/2000/svg" xmlns:xlink="http://www.w3.org/1999/xlink" x="0px" y="0px"
	 viewBox="0 0 384 384" style="enable-background:new 0 0 384 384;" xml:space="preserve">
<path style="fill:#83CFDF;" d="M280,104c48.64,0,88,39.36,88,88s-39.36,88-88,88c-16,0-31.04-4.24-44-11.76
	c-26.32-15.2-44-43.6-44-76.24s17.68-61.04,44-76.24C248.96,108.24,264,104,280,104z"/>
<path style="fill:#E16F47;" d="M236,115.76c-26.32,15.2-44,43.6-44,76.24s17.68,61.04,44,76.24c-12.96,7.52-28,11.76-44,11.76
	c-48.64,0-88-39.36-88-88s39.36-88,88-88C208,104,223.04,108.24,236,115.76z"/>
<g>
	<path style="fill:#1C3252;" d="M90.16,106.16c4.096,0,8.192-1.56,11.312-4.688c6.248-6.248,6.248-16.376,0-22.624l-22.64-22.64
		c-6.24-6.248-16.384-6.248-22.624,0c-6.248,6.248-6.248,16.376,0,22.624l22.64,22.64C81.968,104.6,86.064,106.16,90.16,106.16z"/>
	<path style="fill:#1C3252;" d="M64,192c0-8.832-7.168-16-16-16H16c-8.832,0-16,7.168-16,16s7.168,16,16,16h32
		C56.832,208,64,200.832,64,192z"/>
	<path style="fill:#1C3252;" d="M78.848,282.528l-22.64,22.64c-6.248,6.248-6.248,16.376,0,22.624
		c3.12,3.128,7.216,4.688,11.312,4.688s8.192-1.56,11.312-4.688l22.64-22.64c6.248-6.248,6.248-16.376,0-22.624
		C95.232,276.28,85.088,276.28,78.848,282.528z"/>
	<path style="fill:#1C3252;" d="M192,320c-8.832,0-16,7.168-16,16v32c0,8.832,7.168,16,16,16s16-7.168,16-16v-32
		C208,327.168,200.832,320,192,320z"/>
	<path style="fill:#1C3252;" d="M208,48V16c0-8.832-7.168-16-16-16s-16,7.168-16,16v32c0,8.832,7.168,16,16,16S208,56.832,208,48z"
		/>
	<path style="fill:#1C3252;" d="M280,88c-15.328,0-30.32,3.544-44,9.952C222.304,91.544,207.32,88,192,88
		c-57.344,0-104,46.656-104,104s46.656,104,104,104c15.32,0,30.304-3.544,44-9.952c13.696,6.408,28.68,9.952,44,9.952
		c57.344,0,104-46.656,104-104S337.344,88,280,88z M120,192c0-39.696,32.304-72,72-72c4.048,0,8.04,0.456,11.992,1.12
		C186.32,140.128,176,165.392,176,192s10.32,51.872,27.992,70.88C200.04,263.544,196.048,264,192,264
		C152.304,264,120,231.696,120,192z M280,264c-12.712,0-25.152-3.32-35.968-9.6c-0.008-0.008-0.024-0.016-0.032-0.016
		c-22.2-12.824-36-36.728-36-62.384s13.8-49.56,36.032-62.4c10.816-6.28,23.256-9.6,35.968-9.6c39.704,0,72,32.304,72,72
		S319.704,264,280,264z"/>
</g>
<g>
</g>
<g>
</g>
<g>
</g>
<g>
</g>
<g>
</g>
<g>
</g>
<g>
</g>
<g>
</g>
<g>
</g>
<g>
</g>
<g>
</g>
<g>
</g>
<g>
</g>
<g>
</g>
<g>
</g>
</svg>
