<?xml version="1.0" encoding="iso-8859-1"?>
<!-- Generator: Adobe Illustrator 19.0.0, SVG Export Plug-In . SVG Version: 6.00 Build 0)  -->
<svg version="1.1" id="Capa_1" xmlns="http://www.w3.org/2000/svg" xmlns:xlink="http://www.w3.org/1999/xlink" x="0px" y="0px"
	 viewBox="0 0 384 384" style="enable-background:new 0 0 384 384;" xml:space="preserve">
<path style="fill:#E16F47;" d="M367.92,178.72c-6,14.8-15.04,28.72-27.12,40.8c-19.68,19.68-44.32,31.36-69.92,35.12
	c-12.48-14-30.64-22.88-50.88-22.88c-6.64,0-13.2,0.96-19.2,2.8c-4.48-32.16-31.44-57.12-64.48-58.4
	c-17.12-44.64-7.76-96.96,28.16-132.96c12.08-12.08,26-21.12,40.8-27.12c-6,14.64-9.28,30.48-9.28,47.28
	C196,132.16,251.84,188,320.64,188C337.44,188,353.28,184.72,367.92,178.72z"/>
<path style="fill:#83CFDF;" d="M270.88,254.64c10.64,12,17.12,27.84,17.12,45.2c0,37.68-30.4,68.16-68,68.16H71.6
	C40.88,368,16,343.04,16,312.24c0-29.12,22.24-52.96,50.64-55.44c-0.8-4.16-1.2-8.32-1.2-12.64c0-37.68,30.4-68.16,68-68.16
	c0.96,0,1.92,0,2.88,0.16c33.04,1.28,60,26.24,64.48,58.4c6-1.84,12.56-2.8,19.2-2.8C240.24,231.76,258.4,240.64,270.88,254.64z"/>
<g>
	<path style="fill:#1C3252;" d="M0,312.24C0,351.808,32.12,384,71.6,384H220c46.32,0,84-37.752,84-84.16
		c0-12.144-2.672-23.984-7.6-34.832c20.912-6.784,39.888-18.344,55.712-34.176c13.024-13.016,23.168-28.128,30.16-44.92
		c0.12-0.24,0.168-0.52,0.28-0.776c0.144-0.336,0.248-0.688,0.376-1.032c0.248-0.688,0.496-1.368,0.648-2.104
		c0.088-0.4,0.088-0.816,0.144-1.216c0.088-0.688,0.24-1.36,0.24-2.08c0-5.544-2.84-10.424-7.128-13.296
		c-0.16-0.104-0.336-0.168-0.496-0.272c-1.872-1.16-3.992-1.912-6.264-2.216c-0.68-0.096-1.352-0.2-2.04-0.208
		c-0.032,0-0.072-0.008-0.104-0.008c-0.104,0-0.2,0.048-0.312,0.048c-1.264,0.024-2.536,0.232-3.808,0.576
		c-0.368,0.096-0.72,0.192-1.08,0.32c-0.288,0.096-0.584,0.144-0.872,0.256C348.768,169.28,334.896,172,320.64,172
		C260.736,172,212,123.264,212,63.36c0-14.256,2.72-28.12,8.088-41.216c0.12-0.288,0.16-0.592,0.264-0.88
		c0.12-0.344,0.216-0.688,0.312-1.04c0.352-1.312,0.584-2.632,0.592-3.952c0-0.064,0.032-0.128,0.032-0.192V16
		c0-0.008,0-0.016,0-0.032c0-0.552-0.104-1.096-0.168-1.64c-0.848-8.032-7.568-14.288-15.832-14.288c-1.904,0-3.68,0.424-5.36,1.032
		c-0.344,0.128-0.704,0.224-1.04,0.368c-0.192,0.088-0.408,0.12-0.6,0.216c-16.848,6.984-32.032,17.152-45.136,30.24
		C118.912,66.224,105.08,115.512,115.408,162c-37.632,8.288-65.904,41.88-65.968,82.024C20.384,253.32,0,280.32,0,312.24z
		 M175.792,54.512c1.552-1.552,3.216-2.944,4.848-4.392c-0.408,4.384-0.632,8.792-0.632,13.24c0,77.552,63.096,140.64,140.64,140.64
		c4.44,0,8.856-0.224,13.232-0.632c-1.448,1.624-2.84,3.288-4.392,4.84c-14.76,14.76-33.056,24.728-53.272,29.168
		c-15.392-13.824-35.4-21.616-56.208-21.616c-2.456,0-4.888,0.104-7.296,0.312c-9.952-28.376-34.544-49.368-64.408-54.632
		C137.472,123.688,147.768,82.6,175.792,54.512z M68.032,272.736c4.512-0.392,8.64-2.68,11.376-6.288
		c2.728-3.616,3.8-8.208,2.944-12.664c-0.616-3.224-0.912-6.368-0.912-9.632c0-28.76,23.328-52.16,52.248-52.216
		c0.664,0.112,1.336,0.176,2.016,0.208c25.072,0.976,45.784,19.736,49.248,44.616c0.64,4.64,3.288,8.768,7.24,11.288
		c3.952,2.52,8.824,3.184,13.288,1.808c4.472-1.368,9.496-2.096,14.512-2.096c14.808,0,28.992,6.384,38.92,17.504
		c8.44,9.52,13.088,21.8,13.088,34.576c0,28.76-23.328,52.16-52,52.16H71.6C49.768,352,32,334.168,32,312.24
		C32,291.512,47.496,274.536,68.032,272.736z"/>
	<path style="fill:#1C3252;" d="M288,128c13.232,0,24-10.768,24-24s-10.768-24-24-24s-24,10.768-24,24S274.768,128,288,128z"/>
	<path style="fill:#1C3252;" d="M360,0c-13.232,0-24,10.768-24,24s10.768,24,24,24s24-10.768,24-24S373.232,0,360,0z"/>
</g>
<g>
</g>
<g>
</g>
<g>
</g>
<g>
</g>
<g>
</g>
<g>
</g>
<g>
</g>
<g>
</g>
<g>
</g>
<g>
</g>
<g>
</g>
<g>
</g>
<g>
</g>
<g>
</g>
<g>
</g>
</svg>
