<?xml version="1.0" encoding="iso-8859-1"?>
<!-- Generator: Adobe Illustrator 19.0.0, SVG Export Plug-In . SVG Version: 6.00 Build 0)  -->
<svg version="1.1" id="Capa_1" xmlns="http://www.w3.org/2000/svg" xmlns:xlink="http://www.w3.org/1999/xlink" x="0px" y="0px"
	 viewBox="0 0 384 384" style="enable-background:new 0 0 384 384;" xml:space="preserve">
<path style="fill:#83CFDF;" d="M192,16c97.2,0,176,78.8,176,176s-78.8,176-176,176S16,289.2,16,192S94.8,16,192,16z M136,104
	c0-4.4-3.6-8-8-8s-8,3.6-8,8s3.6,8,8,8S136,108.4,136,104z"/>
<g>
	<path style="fill:#1C3252;" d="M152,104c0-13.232-10.768-24-24-24s-24,10.768-24,24s10.768,24,24,24S152,117.232,152,104z"/>
	<path style="fill:#1C3252;" d="M248.776,158.76c7.888,4,17.512,0.832,21.504-7.056c3.992-7.88,0.832-17.512-7.048-21.504
		c-33.896-17.152-74.712-10.624-101.592,16.264c-34.08,34.168-34.08,89.784,0.032,123.992
		c16.872,16.816,39.224,25.632,61.912,25.632c13.464,0,27.04-3.104,39.648-9.488c7.88-3.992,11.04-13.616,7.048-21.504
		c-3.984-7.888-13.608-11.04-21.504-7.056c-21.52,10.888-47.448,6.76-64.488-10.216c-21.656-21.712-21.656-57.048-0.016-78.752
		C201.328,152.016,227.24,147.848,248.776,158.76z"/>
	<path style="fill:#1C3252;" d="M192,0C86.136,0,0,86.128,0,192s86.136,192,192,192s192-86.128,192-192S297.864,0,192,0z M192,352
		c-88.224,0-160-71.776-160-160S103.776,32,192,32s160,71.776,160,160S280.224,352,192,352z"/>
</g>
<g>
</g>
<g>
</g>
<g>
</g>
<g>
</g>
<g>
</g>
<g>
</g>
<g>
</g>
<g>
</g>
<g>
</g>
<g>
</g>
<g>
</g>
<g>
</g>
<g>
</g>
<g>
</g>
<g>
</g>
</svg>
