<svg id="Capa_1" enable-background="new 0 0 497 497" height="512" viewBox="0 0 497 497" width="512" xmlns="http://www.w3.org/2000/svg"><g><path d="m78.775 66.847c0-22.489 18.231-40.719 40.719-40.719 22.488 0 40.719 18.231 40.719 40.719 0-22.489 18.231-40.719 40.719-40.719 22.488 0 40.719 18.231 40.719 40.719 0-22.489 18.231-40.719 40.719-40.719 22.488 0 40.719 18.231 40.719 40.719 0-22.489 18.231-40.719 40.719-40.719 22.488 0 40.719 18.231 40.719 40.719v404.025h-325.752z" fill="#ffd3bc"/><path d="m491.876 305.866c-6.811-10.17-6.812-23.446 0-33.616l.003-.005c10.884-16.252 3.686-38.405-14.672-45.157-11.483-4.223-19.284-14.956-19.757-27.182l-.002-.054c-.756-19.528-19.576-33.209-38.384-27.903l-.067.019c-11.759 3.317-24.359-.776-31.923-10.372l-.051-.065c-12.094-15.342-35.351-15.342-47.444 0l-.051.065c-7.564 9.596-20.164 13.69-31.923 10.372l-.067-.019c-18.809-5.306-37.628 8.376-38.384 27.903l-.002.055c-.473 12.225-8.274 22.958-19.757 27.181h-.001c-18.358 6.752-25.555 28.905-14.671 45.157l.003.004c6.811 10.17 6.812 23.446 0 33.616l-.002.004c-10.884 16.252-3.686 38.406 14.671 45.157 11.482 4.223 19.284 14.956 19.757 27.181l.002.055c.756 19.528 19.576 33.209 38.384 27.903l.067-.019c11.759-3.317 24.359.777 31.923 10.372l.051.065c12.094 15.342 35.351 15.343 47.444 0l.051-.065c7.564-9.596 20.164-13.69 31.923-10.372l.067.019c18.809 5.306 37.629-8.375 38.384-27.904l.002-.055c.473-12.225 8.274-22.958 19.757-27.181h.001c18.357-6.752 25.555-28.905 14.671-45.157z" fill="#00cd8c"/><g fill="#423e4f"><path d="m385.303 288.778c-3.124-2.721-7.861-2.396-10.582.727-2.884 3.309-7.046 5.206-11.42 5.206s-8.537-1.897-11.419-5.206c-2.721-3.123-7.459-3.448-10.582-.727s-3.448 7.459-.727 10.582c5.732 6.578 14.017 10.351 22.728 10.351s16.995-3.772 22.728-10.351c2.722-3.122 2.397-7.86-.726-10.582z"/><path d="m312.742 270.693-24.957-6.687c-3.996-1.071-8.113 1.302-9.186 5.303-1.072 4.001 1.302 8.114 5.303 9.186l7.634 2.045c-.316.829-.496 1.725-.496 2.665v10.75c0 4.142 3.358 7.5 7.5 7.5s7.5-3.358 7.5-7.5v-9.529l2.819.756c3.998 1.069 8.112-1.298 9.186-5.304 1.072-4-1.302-8.113-5.303-9.185z"/><path d="m448.003 269.309c-1.072-4.001-5.188-6.375-9.186-5.303l-24.957 6.687c-4.001 1.072-6.375 5.185-5.303 9.186 1.073 4.003 5.184 6.374 9.186 5.304l2.819-.756v9.529c0 4.142 3.358 7.5 7.5 7.5s7.5-3.358 7.5-7.5v-10.75c0-.94-.181-1.836-.496-2.665l7.634-2.045c4.001-1.073 6.375-5.186 5.303-9.187z"/></g><circle cx="402.771" cy="227.45" fill="#80dfb5" r="16.522"/><path d="m271.614 259.212c0-32.703 9.841-63.1 26.707-88.389-15.302.498-28.536 12.719-29.167 29.028l-.002.055c-.473 12.226-8.274 22.958-19.757 27.181l-.001.001c-18.358 6.752-25.555 28.905-14.671 45.157l.003.004c6.811 10.17 6.812 23.446 0 33.616l-.002.004c-10.884 16.252-3.686 38.406 14.671 45.158 11.482 4.223 19.284 14.956 19.757 27.181l.002.055c.756 19.528 19.576 33.208 38.384 27.903l.067-.019c11.76-3.317 24.359.777 31.923 10.372l.051.065c12.094 15.342 35.351 15.343 47.444 0l.051-.065c.925-1.174 1.928-2.262 2.993-3.268-68.165-17.92-118.453-80.09-118.453-154.039z" fill="#00c67f"/><circle cx="325.605" cy="351.346" fill="#80dfb5" r="21.544"/><path d="m250.238 470.872c-77.896-45.052-130.744-132.635-130.744-233.304 0-84.74 37.447-160.21 95.759-208.844-4.456-1.675-9.28-2.597-14.321-2.597-22.489 0-40.719 18.23-40.719 40.719 0-22.489-18.231-40.719-40.719-40.719-22.489 0-40.719 18.23-40.719 40.719v112.305l-9.263-9.263c-15.902-15.902-41.684-15.902-57.586 0-15.902 15.902-15.902 41.684 0 57.585l66.849 66.849v176.549h171.463z" fill="#ffbe9c"/></g></svg>