<svg id="Capa_1" enable-background="new 0 0 497 497" height="512" viewBox="0 0 497 497" width="512" xmlns="http://www.w3.org/2000/svg"><g><path d="m394.986 396.602h-102.015l-68.533-177.542 170.548-76.185z" fill="#bebebc"/><path d="m102.015 41.518c-56.341 0-102.015 79.488-102.015 177.542v216.074c0 12.572 14.338 19.763 24.414 12.245 14.482-10.806 34.346-10.806 48.829 0 14.482 10.806 34.346 10.806 48.829 0 14.482-10.806 34.346-10.806 48.828 0 14.482 10.806 34.346 10.806 48.829 0 14.482-10.806 34.346-10.806 48.829 0 10.076 7.519 24.414.328 24.414-12.245v-216.074l102.014-177.542z" fill="#dadada"/><ellipse cx="394.986" cy="219.06" fill="#ccccca" rx="102.014" ry="177.542"/><ellipse cx="394.986" cy="219.06" fill="#bebebc" rx="43.775" ry="76.185"/><path d="m29.719 264.051c0-89.507 39.264-169.506 100.914-222.534h-28.618c-56.341 0-102.015 79.489-102.015 177.543v216.074c0 12.572 14.338 19.763 24.414 12.245 14.482-10.807 34.346-10.807 48.828 0 7.796 5.817 17.152 8.498 26.389 8.051-43.497-50.983-69.912-117.98-69.912-191.379z" fill="#ccccca"/><g><g><path d="m292.971 256h-15c-4.142 0-7.5-3.358-7.5-7.5s3.358-7.5 7.5-7.5h15z" fill="#ccccca"/></g><g><path d="m248.752 256h-29.219c-4.142 0-7.5-3.358-7.5-7.5s3.358-7.5 7.5-7.5h29.219c4.142 0 7.5 3.358 7.5 7.5s-3.357 7.5-7.5 7.5zm-58.438 0h-29.219c-4.142 0-7.5-3.358-7.5-7.5s3.358-7.5 7.5-7.5h29.219c4.142 0 7.5 3.358 7.5 7.5s-3.357 7.5-7.5 7.5zm-58.438 0h-29.219c-4.142 0-7.5-3.358-7.5-7.5s3.358-7.5 7.5-7.5h29.219c4.142 0 7.5 3.358 7.5 7.5s-3.357 7.5-7.5 7.5zm-58.438 0h-29.219c-4.142 0-7.5-3.358-7.5-7.5s3.358-7.5 7.5-7.5h29.219c4.142 0 7.5 3.358 7.5 7.5s-3.357 7.5-7.5 7.5z" fill="#ccccca"/></g></g><g><path d="m81.476 350.647c-.002 0-.004 0-.006 0-4.142-.003-7.497-3.364-7.494-7.506l.009-12.201c.003-4.14 3.36-7.494 7.5-7.494h.006c4.142.003 7.497 3.364 7.494 7.506l-.009 12.201c-.003 4.14-3.36 7.494-7.5 7.494z" fill="#423e4f"/></g><g><path d="m211.537 350.774c-.002 0-.004 0-.006 0-4.142-.003-7.497-3.364-7.494-7.506l.009-12.201c.003-4.14 3.36-7.494 7.5-7.494h.006c4.142.003 7.497 3.364 7.494 7.506l-.009 12.201c-.003 4.14-3.36 7.494-7.5 7.494z" fill="#423e4f"/></g><g><path d="m163.646 356.142c-.002 0-.004 0-.006 0l-34.29-.03c-4.142-.004-7.497-3.364-7.494-7.506.003-4.14 3.361-7.494 7.5-7.494h.006l34.29.03c4.142.004 7.497 3.364 7.494 7.506-.003 4.141-3.36 7.494-7.5 7.494z" fill="#423e4f"/></g><g><path d="m0 241h15c4.142 0 7.5 3.358 7.5 7.5s-3.358 7.5-7.5 7.5h-15z" fill="#bebebc"/></g></g></svg>