<svg id="Capa_1" enable-background="new 0 0 497 497" height="512" viewBox="0 0 497 497" width="512" xmlns="http://www.w3.org/2000/svg"><g><path d="m45.665 20.656h64.27v132.308h-64.27z" fill="#fccb88"/><path d="m72.321 160.466v303.753h352.359v-303.753l-176.18-93.26z" fill="#fccb88"/><path d="m98.846 275.032c0-51.459 10.09-100.136 28.045-143.453l-54.571 28.887v303.752h95.283c-42.512-45.906-68.757-109.313-68.757-189.186z" fill="#fab659"/><path d="m67.031 62.293c0-14.953 3.603-29.087 10.002-41.638h-31.368v132.308h64.27v-12.595c-25.875-16.869-42.904-45.54-42.904-78.075z" fill="#fab659"/><g fill="#ff9dd3"><path d="m468.472 141.035-198.076-120.112c-13.457-8.16-30.335-8.162-43.792-.001l-198.076 120.113c-11.351 6.883-14.973 21.665-8.09 33.017l18.866 31.111c6.883 11.351 21.665 14.973 33.017 8.09l176.179-106.835 176.18 106.834c11.351 6.883 26.133 3.261 33.017-8.09l18.865-31.11c6.883-11.351 3.261-26.133-8.09-33.017z"/><path d="m433.183 431.437h-369.366c-10.923 0-19.777 8.855-19.777 19.777v26.009c0 10.923 8.854 19.777 19.777 19.777h369.366c10.923 0 19.777-8.854 19.777-19.777v-26.009c0-10.922-8.854-19.777-19.777-19.777z"/><path d="m115.213 0h-74.827c-6.798 0-12.308 5.51-12.308 12.308v16.695c0 6.798 5.51 12.308 12.308 12.308h74.827c6.798 0 12.308-5.51 12.308-12.308v-16.695c0-6.797-5.511-12.308-12.308-12.308z"/></g><path d="m171.503 54.336-142.975 86.699c-11.351 6.883-14.973 21.666-8.09 33.017l18.865 31.111c6.883 11.352 21.665 14.973 33.017 8.09l35.636-21.609c11.58-51.944 33.714-98.84 63.547-137.308z" fill="#ff88ca"/><path d="m142.033 431.437h-78.216c-10.923 0-19.777 8.854-19.777 19.777v26.009c0 10.922 8.854 19.777 19.777 19.777h140.815c-24.448-17.716-45.695-39.606-62.599-65.563z" fill="#ff88ca"/><g><g fill="#fff"><path d="m263.196 285.833 3.399-8.924h23.443l3.36 8.902c1.133 3.004 3.987 4.854 7.018 4.854 5.216 0 8.872-5.232 7.016-10.15l-20.843-55.229c-.026-.07-.054-.14-.082-.209-1.359-3.299-4.541-5.429-8.108-5.429-.005 0-.009 0-.013 0-3.571.005-6.753 2.144-8.105 5.45-.023.056-.045.113-.067.169l-21.034 55.227c-1.474 3.871.468 8.204 4.339 9.678 3.869 1.475 8.203-.469 9.677-4.339zm15.174-39.84 6.007 15.916h-12.069z"/><path d="m161.169 290.663c25.47 0 35.568-31.735 7.46-42.103-6.795-2.506-13.128-5.234-15.161-6.124-2.118-1.77-1.544-5.87 2.963-7.229 7.618-2.295 14.733 3.294 14.957 3.473 3.17 2.627 7.872 2.208 10.526-.95 2.665-3.171 2.255-7.902-.915-10.567-.537-.452-13.332-11.006-28.895-6.319-16.848 5.076-19.797 25.732-6.464 34.426 1.991 1.296 15.428 6.488 17.797 7.362 1.825.673 7.723 3.171 7.027 7.071-.523 2.929-4.143 5.958-9.295 5.958-5.429 0-10.649-2.183-13.963-5.84-2.781-3.069-7.524-3.303-10.594-.521-3.069 2.782-3.302 7.524-.521 10.594 6.201 6.845 15.341 10.769 25.078 10.769z"/><path d="m361.637 231.381c2.26-3.472 1.278-8.118-2.193-10.377s-8.118-1.278-10.377 2.194l-11.471 17.62-11.603-17.771c-2.267-3.469-6.912-4.443-10.381-2.179-3.468 2.265-4.444 6.912-2.18 10.38l16.667 25.526-.065 26.371c-.01 4.142 3.34 7.508 7.481 7.519h.019c4.134 0 7.49-3.346 7.5-7.481l.065-26.398z"/><path d="m203.601 234.647h7.905v48.516c0 4.142 3.358 7.5 7.5 7.5s7.5-3.358 7.5-7.5v-48.516h8.03c4.142 0 7.5-3.358 7.5-7.5s-3.358-7.5-7.5-7.5h-30.935c-4.142 0-7.5 3.358-7.5 7.5s3.358 7.5 7.5 7.5z"/><path d="m321.624 324.171c-.794-3.897-4.123-6.776-8.095-7-3.993-.224-7.735 2.306-8.91 6.305l-9.563 33.548c-13.352-45.25-9.077-31.112-10.003-33.889-2.854-8.497-15.209-7.737-16.934 1.219l-9.845 54.549c-.735 4.076 1.973 7.977 6.049 8.713 4.075.735 7.977-1.973 8.712-6.049l5.171-28.648 8.56 29.013c.026.089.055.179.084.268 1.203 3.577 4.538 5.973 8.309 5.973h.045c3.789-.019 7.121-2.453 8.292-6.057.028-.087.055-.174.08-.262l8.263-28.985 5.499 28.774c.777 4.069 4.712 6.735 8.774 5.959 4.068-.778 6.736-4.706 5.958-8.774z"/><path d="m159.058 317.157c-4.142 0-7.5 3.358-7.5 7.5v19.548h-23.764v-19.548c0-4.142-3.358-7.5-7.5-7.5s-7.5 3.358-7.5 7.5v56.017c0 4.142 3.358 7.5 7.5 7.5s7.5-3.358 7.5-7.5v-21.469h23.764v21.469c0 4.142 3.358 7.5 7.5 7.5s7.5-3.358 7.5-7.5v-56.017c0-4.142-3.358-7.5-7.5-7.5z"/><path d="m376.706 373.173h-15.887v-12.752h14.163c4.143 0 7.5-3.358 7.5-7.5s-3.357-7.5-7.5-7.5h-14.163v-12.752h15.887c4.143 0 7.5-3.358 7.5-7.5 0-4.143-3.357-7.5-7.5-7.5h-23.387c-4.143 0-7.5 3.357-7.5 7.5v55.505c0 4.142 3.357 7.5 7.5 7.5h23.387c4.143 0 7.5-3.358 7.5-7.5 0-4.143-3.358-7.501-7.5-7.501z"/><path d="m214.788 317.157c-19.579 0-35.508 15.929-35.508 35.508s15.929 35.508 35.508 35.508 35.508-15.929 35.508-35.508-15.929-35.508-35.508-35.508zm0 56.016c-11.308 0-20.508-9.2-20.508-20.508s9.2-20.508 20.508-20.508 20.508 9.2 20.508 20.508-9.2 20.508-20.508 20.508z"/></g></g><path d="m91.357 0h-50.971c-6.798 0-12.308 5.511-12.308 12.308v16.695c0 6.797 5.51 12.308 12.308 12.308h29.069c3.666-15.607 11.336-29.732 21.902-41.311z" fill="#ff88ca"/></g></svg>