<svg id="Capa_1" enable-background="new 0 0 497 497" height="512" viewBox="0 0 497 497" width="512" xmlns="http://www.w3.org/2000/svg"><g><circle cx="248.5" cy="248.526" fill="#fff" r="202.002"/><path d="m290.5 426.528c-111.563 0-202.002-90.439-202.002-202.002 0-66.463 32.103-125.425 81.644-162.238-72.645 30.602-123.644 102.463-123.644 186.238 0 111.563 90.439 202.002 202.002 202.002 45.099 0 86.742-14.784 120.358-39.764-24.095 10.151-50.571 15.764-78.358 15.764z" fill="#e5e5e5"/><path d="m366.715 220.046c-11.416-7.701-17.125-21.479-14.5-34.996l.007-.037c4.637-23.881-16.354-44.872-40.235-40.235l-.037.007c-13.518 2.625-27.296-3.083-34.996-14.499-13.606-20.172-43.301-20.172-56.907 0-7.7 11.416-21.479 17.125-34.996 14.499l-.037-.007c-23.881-4.637-44.872 16.354-40.235 40.235l.007.037c2.625 13.518-3.083 27.296-14.499 34.996-20.172 13.606-20.172 43.301 0 56.907 11.416 7.7 17.125 21.479 14.499 34.996l-.007.037c-4.637 23.881 16.354 44.872 40.235 40.235l.037-.007c13.518-2.625 27.296 3.083 34.996 14.499 13.606 20.172 43.301 20.172 56.907 0 7.7-11.416 21.479-17.125 34.996-14.499l.037.007c23.881 4.637 44.872-16.354 40.235-40.235l-.007-.037c-2.625-13.518 3.083-27.296 14.499-34.996 20.172-13.606 20.172-43.3.001-56.907z" fill="#80dfb5"/><path d="m164.223 201.94c0-19.875 3.253-39.131 9.319-57.456-18.631 2.669-32.637 20.584-28.764 40.528l.007.037c2.625 13.518-3.083 27.296-14.5 34.997-20.172 13.606-20.172 43.301 0 56.907 11.416 7.701 17.125 21.479 14.499 34.997l-.007.037c-4.637 23.881 16.354 44.872 40.235 40.235l.037-.007c13.518-2.625 27.296 3.083 34.996 14.5 11.146 16.524 33.083 19.502 48.133 8.954-63.317-40.535-103.955-103.286-103.955-173.729z" fill="#36d39a"/><path d="m248.5 0c-137.243 0-248.5 111.257-248.5 248.5s111.257 248.5 248.5 248.5 248.5-111.257 248.5-248.5-111.257-248.5-248.5-248.5zm-188.5 248.5c0-103.939 84.561-188.5 188.5-188.5 41.166 0 79.284 13.274 110.321 35.753l-263.068 263.068c-22.479-31.037-35.753-69.155-35.753-110.321zm188.5 188.5c-41.166 0-79.284-13.274-110.321-35.753l263.068-263.068c22.479 31.037 35.753 69.155 35.753 110.321 0 103.939-84.561 188.5-188.5 188.5z" fill="#ff748f"/><g fill="#36d39a"><circle cx="194.5" cy="194.5" r="16.028"/><circle cx="302.5" cy="302.5" r="16.028"/></g></g></svg>