<svg id="Capa_1" enable-background="new 0 0 497 497" height="512" viewBox="0 0 497 497" width="512" xmlns="http://www.w3.org/2000/svg"><g><path d="m409.387 19.579-60.621-9.411v79.14l60.621-9.411c10.331-1.604 17.951-10.498 17.951-20.953v-18.412c0-10.455-7.62-19.349-17.951-20.953z" fill="#ff748f"/><path d="m378.168 157.642c-40.779-25.107-49.037-61.502-49.037-61.502l-44.561 35.577c19.54 36.671 58.221 53.604 76.687 59.858 5.844 1.979 12.263-.45 15.317-5.811l6.122-10.745c3.454-6.061 1.413-13.719-4.528-17.377z" fill="#ff748f"/><path d="m330.539 145.929c5.735-5.523 12.368-9.761 18.774-12.99-16.169-19.178-20.182-36.799-20.182-36.799l-44.562 35.577c8.255 15.493 19.928 27.451 32.049 36.581 2.651-8.543 7.258-15.952 13.921-22.369z" fill="#fd5f7e"/><path d="m348.766 89.308 54.337-8.436c.366-2.604.565-5.255.565-7.944v-46.38c0-2.697-.202-5.348-.569-7.945l-54.332-8.435v79.14z" fill="#fd5f7e"/><path d="m347.12 0h-138.03c-24.067 0-47.558 7.364-67.318 21.103l-37.357 25.975c-13.865 9.64-17.726 28.464-8.776 42.783 5.787 9.259 15.935 14.884 26.854 14.884h17.963c17.489 0 31.667 14.178 31.667 31.667v50.92l54.54 24.326 57.249-24.326c0-57.675 45.066-80.644 71.332-89.133 10.976-3.547 18.424-13.737 18.424-25.272v-46.38c0-14.661-11.886-26.547-26.548-26.547z" fill="#c1e9fa"/><path d="m161.866 37.791c0-9.771.665-19.363 1.938-28.726-7.709 3.207-15.103 7.222-22.031 12.039l-37.357 25.975c-13.865 9.641-17.726 28.464-8.776 42.784 5.787 9.259 15.935 14.884 26.854 14.884h17.963c17.489 0 31.667 14.178 31.667 31.667v50.919l54.54 24.326 22.206-9.436c-51.724-31.064-87.004-93.036-87.004-164.432z" fill="#90d3f1"/><path d="m321.487 322.812c8.259-11.581 8.259-27.127 0-38.708s-8.259-27.127 0-38.708c8.259-11.581 8.259-27.127 0-38.708-8.661-12.145-22.658-19.354-37.575-19.354h-111.789l-85.415 85.415c-10.914 10.914-17.046 25.717-17.046 41.152v124.903c0 32.142 26.056 58.198 58.198 58.198h156.052c14.917 0 28.914-7.21 37.575-19.354 8.259-11.581 8.259-27.127 0-38.708s-8.259-27.127 0-38.708c8.259-11.581 8.259-27.127 0-38.708-8.26-11.585-8.26-27.131 0-38.712z" fill="#78cbec"/><path d="m103.516 255.939-16.808 16.809c-10.914 10.914-17.046 25.717-17.046 41.152v124.903c0 32.142 26.056 58.198 58.198 58.198h156.052c10.38 0 20.31-3.499 28.311-9.715-108.742-40.02-189.333-126.748-208.707-231.347z" fill="#34b5e1"/><path d="m233.268 239.003h-25.515c-9.109 0-17.845 3.619-24.286 10.06l-60.221 60.221c-1.234 1.233-1.913 2.873-1.913 4.616v90.558c0 22.573 18.299 40.873 40.872 40.873h71.062c18.969 0 34.346-15.377 34.346-34.346v-137.637c0-18.968-15.377-34.345-34.345-34.345z" fill="#c1e9fa"/><g><g><path d="m176.603 69.639c-4.143 0-7.5-3.358-7.5-7.5v-12.401c0-4.142 3.357-7.5 7.5-7.5s7.5 3.358 7.5 7.5v12.401c0 4.142-3.358 7.5-7.5 7.5z" fill="#423e4f"/></g><g><path d="m305.673 69.639c-4.143 0-7.5-3.358-7.5-7.5v-12.401c0-4.142 3.357-7.5 7.5-7.5s7.5 3.358 7.5 7.5v12.401c0 4.142-3.358 7.5-7.5 7.5z" fill="#423e4f"/></g><g><path d="m241.138 77.021c-8.688 0-16.95-3.763-22.668-10.324-2.722-3.123-2.396-7.86.727-10.582 3.122-2.721 7.859-2.396 10.582.727 2.868 3.291 7.008 5.179 11.359 5.179s8.492-1.887 11.36-5.179c2.72-3.123 7.457-3.448 10.582-.727 3.122 2.721 3.448 7.459.727 10.582-5.718 6.561-13.98 10.324-22.669 10.324z" fill="#423e4f"/></g></g><path d="m121.333 314.291v90.167c0 22.573 18.299 40.873 40.872 40.873h68.906c-49.016-33.921-87.322-79.093-109.778-131.04z" fill="#90d3f1"/></g></svg>