<svg id="Capa_1" enable-background="new 0 0 497 497" height="512" viewBox="0 0 497 497" width="512" xmlns="http://www.w3.org/2000/svg"><g><path d="m381.03 195.23h-35.028v-85.685c0-12.721 4.953-24.68 13.948-33.675l57.481-57.48 24.768 24.769-57.48 57.479c-2.378 2.379-3.689 5.542-3.689 8.907z" fill="#c7c5cb"/><path d="m417.43 18.39-34.584 34.583c.177.183.344.371.524.551l23.691 23.692c.18.18.37.349.552.526l34.584-34.584z" fill="#b2b0bc"/><path d="m455.044 29.236-23.691-23.692c-7.392-7.392-19.376-7.392-26.769-.001-7.392 7.392-7.392 19.376-.001 26.768l23.691 23.692c7.392 7.392 19.377 7.392 26.769 0 7.393-7.39 7.393-19.375.001-26.767z" fill="#5c586f"/><g><path d="m277.451 140.181h-50.04v-50.58c0-21.347-17.366-38.714-38.714-38.714-21.347 0-38.714 17.367-38.714 38.714v50.58h-50.04v-50.58c0-48.939 39.815-88.754 88.754-88.754s88.754 39.815 88.754 88.754z" fill="#36d39a"/></g><path d="m381.03 147.728c-5.562-1.625-11.435-2.514-17.514-2.514-6.08 0-11.952.889-17.514 2.514v47.503h35.028z" fill="#b2b0bc"/><path d="m363.515 175.214c-17.973 0-32.542 14.57-32.542 32.542v230.087c0 17.972 14.57 32.542 32.542 32.542 17.972 0 32.542-14.57 32.542-32.542v-230.087c0-17.972-14.569-32.542-32.542-32.542z" fill="#5c586f"/><path d="m396.057 289.488h-93.019v55.028h93.019c15.195 0 27.514-12.318 27.514-27.514s-12.318-27.514-27.514-27.514z" fill="#c7c5cb"/><path d="m288.522 191.864-5.89-5.89-93.935-39.467-93.935 39.467-5.89 5.89c-33.589 33.589-52.459 79.145-52.459 126.647v108.106c0 12.852 3.519 25.46 10.176 36.454 12.752 21.062 35.584 33.929 60.206 33.929h163.804c24.622 0 47.454-12.867 60.207-33.929 6.657-10.994 10.176-23.601 10.176-36.454v-108.106c-.001-47.502-18.871-93.058-52.46-126.647z" fill="#36d39a"/><path d="m103.72 307.554c0-50.378 12.774-97.988 35.454-140.24l-44.413 18.66-5.89 5.89c-33.589 33.589-52.459 79.146-52.459 126.647v108.106c0 12.853 3.519 25.46 10.176 36.454 12.753 21.062 35.585 33.929 60.207 33.929h55.374c-36.897-57.481-58.449-123.957-58.449-189.446z" fill="#00c67f"/><path d="m163.72 4.724c0-.099.002-.196.002-.294-36.818 10.814-63.779 44.9-63.779 85.171v50.58h50.04v-50.58c0-13.806 7.269-25.939 18.176-32.794-2.911-17.307-4.439-34.729-4.439-52.083z" fill="#00c67f"/><path d="m279.141 107.04h-180.888c-17.604 0-30.509 16.859-25.575 33.758 4.853 16.622 12.407 31.894 22.084 45.176h187.871c9.677-13.282 17.231-28.553 22.084-45.176 4.933-16.898-7.972-33.758-25.576-33.758z" fill="#5c586f"/><ellipse cx="188.697" cy="321.754" fill="#fff" rx="104.977" ry="69.624"/><g><g><path d="m126.198 331.684c-4.142 0-7.5-3.358-7.5-7.5v-12.01c0-4.142 3.358-7.5 7.5-7.5s7.5 3.358 7.5 7.5v12.01c0 4.142-3.358 7.5-7.5 7.5z" fill="#423e4f"/></g><g><path d="m251.196 331.684c-4.142 0-7.5-3.358-7.5-7.5v-12.01c0-4.142 3.358-7.5 7.5-7.5s7.5 3.358 7.5 7.5v12.01c0 4.142-3.358 7.5-7.5 7.5z" fill="#423e4f"/></g><g><path d="m188.697 338.833c-8.483 0-16.55-3.674-22.132-10.079-2.721-3.123-2.396-7.86.727-10.582 3.122-2.721 7.86-2.396 10.582.727 2.732 3.136 6.677 4.934 10.823 4.934s8.09-1.798 10.824-4.934c2.722-3.123 7.458-3.448 10.582-.726 3.123 2.722 3.448 7.459.726 10.582-5.583 6.404-13.65 10.078-22.132 10.078z" fill="#423e4f"/></g></g><path d="m103.72 307.554c0-9.396.47-18.689 1.339-27.876-13.388 11.688-21.339 26.265-21.339 42.076 0 17.515 9.754 33.517 25.851 45.752-3.838-19.887-5.851-39.965-5.851-59.952z" fill="#e5e5e5"/><path d="m181.367 107.041h-83.114c-17.604 0-30.509 16.859-25.575 33.757 4.853 16.623 12.407 31.895 22.084 45.176h35.194c12.957-28.704 30.353-55.264 51.411-78.933z" fill="#4f4c5f"/></g></svg>