<svg id="Capa_1" enable-background="new 0 0 497 497" height="512" viewBox="0 0 497 497" width="512" xmlns="http://www.w3.org/2000/svg"><g><g fill="#5c586f"><path d="m54.667 412.152v47.435c0 16.552 13.418 29.97 29.97 29.97h40.753c16.552 0 29.97-13.418 29.97-29.97v-47.435z"/><path d="m442.333 412.152v47.435c0 16.552-13.418 29.97-29.97 29.97h-40.753c-16.552 0-29.97-13.418-29.97-29.97v-47.435z"/><path d="m126.477 47.404v106.69h63.086v-83.565h117.874v83.565h63.086v-106.69c0-22.07-17.891-39.961-39.961-39.961h-164.124c-22.07 0-39.961 17.891-39.961 39.961z"/></g><path d="m86.179 412.152h-31.512v47.435c0 16.552 13.418 29.97 29.97 29.97h40.753c1.384 0 2.744-.102 4.078-.284-18.081-21.407-32.486-47.144-43.289-77.121z" fill="#4f4c5f"/><path d="m155.346 118.497c0-44.93 16.57-84.986 42.439-111.054h-31.347c-22.07 0-39.961 17.891-39.961 39.961v106.689h32.44c-2.331-11.376-3.571-23.304-3.571-35.596z" fill="#4f4c5f"/><path d="m442.333 70.529h-71.811v63.607h-244.045v-63.607h-71.81c-30.192 0-54.667 24.475-54.667 54.667v261.254c0 30.191 24.475 54.666 54.667 54.666h387.667c30.192 0 54.667-24.475 54.667-54.666v-261.254c-.001-30.192-24.476-54.667-54.668-54.667z" fill="#ff748f"/><path d="m310.418 301.429h-35.867v-35.867c0-8.903-7.218-16.121-16.121-16.121h-19.86c-8.903 0-16.121 7.218-16.121 16.121v35.867h-35.867c-8.903 0-16.121 7.218-16.121 16.121v19.861c0 8.903 7.218 16.121 16.121 16.121h35.867v35.867c0 8.903 7.218 16.121 16.121 16.121h19.861c8.903 0 16.121-7.218 16.121-16.121v-35.867h35.867c8.903 0 16.121-7.218 16.121-16.121v-19.861c-.001-8.903-7.219-16.121-16.122-16.121z" fill="#fff"/><g><g><g><ellipse cx="143.687" cy="229.941" fill="#fff" rx="38.674" ry="30.798"/></g><g><ellipse cx="353.313" cy="229.941" fill="#fff" rx="38.674" ry="30.798"/></g></g></g><g><path d="m166.226 207.794c-4.142 0-7.5-3.358-7.5-7.5v-15.81c0-4.142 3.358-7.5 7.5-7.5s7.5 3.358 7.5 7.5v15.81c0 4.142-3.358 7.5-7.5 7.5z" fill="#423e4f"/></g><g><path d="m330.774 207.794c-4.142 0-7.5-3.358-7.5-7.5v-15.81c0-4.142 3.358-7.5 7.5-7.5s7.5 3.358 7.5 7.5v15.81c0 4.142-3.358 7.5-7.5 7.5z" fill="#423e4f"/></g><g><path d="m248.5 217.205c-10.481 0-20.448-4.539-27.345-12.454-2.721-3.123-2.396-7.86.727-10.582 3.123-2.721 7.86-2.396 10.582.727 4.048 4.645 9.893 7.309 16.037 7.309s11.989-2.664 16.037-7.309c2.721-3.123 7.459-3.448 10.582-.726 3.123 2.721 3.448 7.459.727 10.582-6.899 7.913-16.867 12.453-27.347 12.453z" fill="#423e4f"/></g><path d="m61.612 245.952c0-63.253 10.371-122.906 29.719-175.423h-36.664c-30.192 0-54.667 24.475-54.667 54.667v261.254c0 30.191 24.475 54.667 54.667 54.667h43.709c-24.663-50.452-36.764-115.695-36.764-195.165z" fill="#fd5f7e"/></g></svg>