<svg id="Capa_1" enable-background="new 0 0 497 497" height="512" viewBox="0 0 497 497" width="512" xmlns="http://www.w3.org/2000/svg"><g><path d="m437.054 19.882h-364.093c-31.858 0-57.684 25.826-57.684 57.684v272.374c0 31.858 25.826 57.684 57.684 57.684h364.093c31.858 0 57.684-25.826 57.684-57.684v-272.373c.001-31.858-25.826-57.685-57.684-57.685z" fill="#c7c5cb"/><g><path d="m259.423 321.604c-72.097-25.456-123.603-92.676-123.603-171.603 0-50.947 21.468-97.01 56.075-130.119h-118.934c-31.858 0-57.684 25.826-57.684 57.685v272.373c0 31.858 25.826 57.685 57.684 57.685h186.462z" fill="#b2b0bc"/></g><path d="m288.27 63.9h-136.638c-25.889 0-46.876 20.987-46.876 46.876v183.513h230.389v-183.513c.001-25.889-20.986-46.876-46.875-46.876z" fill="#ff748f"/><path d="m348.781 259.371c-11.194-11.194-29.344-11.194-40.539 0l-48.82 48.819 40.539 40.539 48.82-48.819c11.195-11.195 11.195-29.345 0-40.539z" fill="#fccb88"/><path d="m76.091 407.624h229.321v89.376h-229.321z" fill="#ffdcce"/><g><g><path d="m157.214 144.925c-4.142 0-7.5-3.358-7.5-7.5v-12.056c0-4.142 3.358-7.5 7.5-7.5s7.5 3.358 7.5 7.5v12.056c0 4.142-3.358 7.5-7.5 7.5z" fill="#423e4f"/></g><g><path d="m282.688 144.925c-4.142 0-7.5-3.358-7.5-7.5v-12.056c0-4.142 3.358-7.5 7.5-7.5s7.5 3.358 7.5 7.5v12.056c0 4.142-3.358 7.5-7.5 7.5z" fill="#423e4f"/></g><g><path d="m219.951 152.101c-8.506 0-16.596-3.684-22.194-10.108-2.722-3.123-2.396-7.86.726-10.582 3.122-2.721 7.859-2.397 10.582.726 2.749 3.154 6.717 4.963 10.887 4.963s8.137-1.809 10.886-4.963c2.721-3.123 7.458-3.448 10.582-.727 3.123 2.721 3.448 7.459.727 10.582-5.599 6.425-13.689 10.109-22.196 10.109z" fill="#423e4f"/></g></g><path d="m400.119 157.584c-12.446-2.574-21.226-11.529-23.79-23.676-.921-4.364-4.628-7.574-9.088-7.574h-.825c-4.461 0-8.167 3.21-9.088 7.574-2.564 12.147-11.345 21.102-23.791 23.676-4.343.898-7.442 4.749-7.442 9.184v.596c0 4.577 3.21 8.282 7.574 9.204 12.134 2.562 21.082 11.326 23.667 23.75.907 4.357 4.742 7.482 9.193 7.482h.5c4.533 0 8.383-3.099 9.282-7.442 2.575-12.449 11.534-21.231 23.686-23.792 4.361-.919 7.564-4.629 7.564-9.085v-.597c0-4.551-3.098-8.402-7.442-9.3z" fill="#f9ed80"/><path d="m9.703 31.25c12.446-2.574 21.226-11.529 23.79-23.676.922-4.364 4.629-7.574 9.089-7.574h.825c4.461 0 8.167 3.21 9.088 7.574 2.565 12.148 11.346 21.102 23.791 23.676 4.343.898 7.442 4.749 7.442 9.184v.596c0 4.577-3.21 8.282-7.574 9.204-12.134 2.562-21.082 11.326-23.668 23.75-.907 4.357-4.742 7.482-9.193 7.482h-.5c-4.533 0-8.383-3.099-9.282-7.442-2.575-12.449-11.533-21.23-23.686-23.792-4.361-.919-7.564-4.629-7.564-9.085v-.597c0-4.551 3.099-8.402 7.442-9.3z" fill="#f9ed80"/><path d="m135.82 150.001c0-31.139 8.025-60.451 22.16-86.101h-6.348c-25.889 0-46.876 20.987-46.876 46.875v183.513h103.796c-44.247-33.385-72.732-85.597-72.732-144.287z" fill="#fd5f7e"/><path d="m190.752 219.296c0-15.831-12.834-28.665-28.665-28.665-15.831 0-28.665 12.834-28.665 28.665 0-15.831-12.834-28.665-28.665-28.665-15.831 0-28.665 12.834-28.665 28.665v160.647l114.661 27.681 114.661-27.681v-160.647c0-15.831-12.834-28.665-28.665-28.665-15.831 0-28.665 12.834-28.665 28.665 0-15.831-12.834-28.665-28.665-28.665-15.833 0-28.667 12.834-28.667 28.665z" fill="#f9ed80"/><path d="m140.011 407.625h-63.92v89.375h130.16c-26.992-25.479-49.508-55.71-66.24-89.375z" fill="#ffcabd"/><path d="m305.413 379.943h-229.322c-10.577 0-19.152 8.575-19.152 19.152v17.058c0 10.577 8.575 19.152 19.152 19.152h229.321c10.577 0 19.152-8.575 19.152-19.152v-17.058c0-10.577-8.574-19.152-19.151-19.152z" fill="#fccb88"/><path d="m106.94 266.212c0-25.645 1.895-50.567 5.818-74.441-2.54-.737-5.223-1.14-8.001-1.14-15.831 0-28.665 12.834-28.665 28.665v160.647l57.467 13.874c-17.103-39.029-26.619-82.194-26.619-127.605z" fill="#fccb88"/><path d="m127.867 379.943h-51.776c-10.577 0-19.152 8.575-19.152 19.152v17.058c0 10.577 8.575 19.152 19.152 19.152h79.448c-10.934-17.378-20.227-35.906-27.672-55.362z" fill="#fab659"/></g></svg>