<svg id="Capa_1" enable-background="new 0 0 497 497" height="512" viewBox="0 0 497 497" width="512" xmlns="http://www.w3.org/2000/svg"><g><path d="m91.616 405.381-37.262-4.028-45.805 45.805c-11.398 11.398-11.398 29.89 0 41.289 11.421 11.421 29.904 11.385 41.289 0l45.805-45.805z" fill="#b0aeba"/><path d="m465.853 31.144c-20.765-20.764-47.979-31.143-75.193-31.143s-54.428 10.379-75.193 31.143l-21.834 21.834 59.312 91.073 91.075 59.313 21.834-21.834c41.528-41.529 41.528-108.856-.001-150.386z" fill="#78cbec"/><path d="m413.345 2.436c-7.468-1.623-15.076-2.436-22.685-2.436-27.214 0-54.428 10.379-75.193 31.144l-21.834 21.834 10.652 16.356c34.917-28.451 71.933-50.87 109.06-66.898z" fill="#34b5e1"/><path d="m293.632 52.977-129.99 129.99c-18.358 18.358-29.366 42.804-30.945 68.722l-1.409 23.044c-2.074 34.089-16.559 66.244-40.715 90.4l-36.22 36.219 41.289 41.289 36.22-36.219c24.156-24.156 56.312-38.641 90.4-40.715l23.044-1.409c25.919-1.579 50.365-12.588 68.722-30.945l129.99-129.99z" fill="#c1e9fa"/><path d="m357.275 173.298-33.576-33.576c-14.911-14.911-39.086-14.911-53.996 0l-76.614 76.614c-14.911 14.911-14.911 39.086 0 53.996l33.576 33.576c14.911 14.911 39.086 14.911 53.996 0l76.614-76.614c14.911-14.91 14.911-39.085 0-53.996z" fill="#90d3f1"/><path d="m264.046 232.964c-.093-22.468-27.394-33.602-43.205-17.789-8.532 8.533-9.848 21.989-3.127 31.995 2.309 3.438 6.969 4.354 10.407 2.044s4.354-6.969 2.044-10.408c-4.581-6.821.348-16.045 8.573-16.045 9.101 0 13.809 11.082 7.291 17.601-2.93 2.929-2.93 7.677-.001 10.606 2.956 2.956 7.717 2.888 10.606 0 0 0 .001 0 .001-.001 4.022-4.019 10.562-4.019 14.581 0 4.021 4.02 4.021 10.562 0 14.581-3.919 3.92-10.463 4.113-14.584-.002-2.929-2.927-7.678-2.927-10.606.004-2.928 2.93-2.926 7.679.005 10.606 10.023 10.018 26.12 9.669 35.793-.002 15.77-15.769 4.706-43.085-17.778-43.19z" fill="#fff"/><path d="m308.349 182.93c-8.882 0-16.828 4.152-21.966 10.881-2.743-11.286-1.664-19.863-1.635-20.08.585-4.087-2.246-7.881-6.334-8.482-4.103-.601-7.909 2.231-8.511 6.33-.177 1.198-4.043 29.466 16.08 55.199 9.968 13.732 29.866 15.351 41.9 3.317 17.39-17.388 4.925-47.165-19.534-47.165zm8.929 36.558c-4.935 4.935-12.922 4.935-17.857 0-4.924-4.924-4.924-12.936 0-17.859 4.934-4.935 12.921-4.936 17.858 0 4.936 4.937 4.936 12.922-.001 17.859z" fill="#fff"/><g fill="#423e4f"><path d="m366.853 36.406-7.987 7.987c-2.93 2.929-2.93 7.678-.001 10.606 2.929 2.929 7.677 2.93 10.607 0l7.986-7.987c2.93-2.929 2.93-7.677.001-10.606-2.928-2.928-7.677-2.929-10.606 0z"/><path d="m460.59 119.537c-2.929-2.929-7.678-2.93-10.606 0l-7.987 7.987c-2.93 2.929-2.93 7.678-.001 10.606 2.929 2.929 7.677 2.93 10.607 0l7.986-7.987c2.93-2.928 2.93-7.676.001-10.606z"/><path d="m416.417 94.501c-7.907.547-14.464-6.002-13.921-13.921.283-4.132-2.837-7.712-6.969-7.996-4.136-.284-7.713 2.836-7.996 6.969-1.165 16.987 12.915 31.072 29.913 29.913 4.133-.284 7.253-3.864 6.969-7.997-.283-4.132-3.86-7.251-7.996-6.968z"/></g><path d="m265.175 104.675c13.646-13.646 27.788-26.271 42.273-37.882l-13.816-13.815-129.99 129.989c-18.358 18.358-29.366 42.804-30.945 68.723l-1.409 23.044c-2.074 34.089-16.559 66.245-40.715 90.4l-36.22 36.22 41.289 41.288 36.22-36.219c.81-.81 1.631-1.607 2.459-2.396-7.412-93.317 38.945-207.444 130.854-299.352z" fill="#90d3f1"/></g></svg>