<svg id="Capa_1" enable-background="new 0 0 497 497" height="512" viewBox="0 0 497 497" width="512" xmlns="http://www.w3.org/2000/svg"><g><path d="m435.718 87.857v184.089l-187.218 37.258-187.218-37.258v-184.089l187.218-34.917z" fill="#78cbec"/><path d="m354.587 281.808c23.82 0 43.13-19.31 43.13-43.13s-19.31-43.13-43.13-43.13c-2.551 0-5.046.234-7.475.659-3.598-27.433-27.05-48.617-55.465-48.617-10.599 0-20.509 2.948-28.957 8.067-2.283-3.345-4.893-6.535-7.861-9.503-25.7-25.7-67.369-25.7-93.069 0-13.579 13.579-19.977 31.615-19.207 49.398-.047 0-.093-.004-.14-.004-23.82 0-43.13 19.31-43.13 43.13s19.31 43.13 43.13 43.13z" fill="#fff"/><path d="m80.638 184.584c0-37.901 8.713-73.584 24.063-104.825l-43.418 8.098v184.089l38.922 7.746c-12.542-28.843-19.567-61.081-19.567-95.108z" fill="#34b5e1"/><path d="m161.953 204.285c0-30.102 14.05-57.287 36.641-76.687-13.479 1.999-26.458 8.18-36.833 18.555-13.579 13.579-19.977 31.615-19.207 49.398-.047 0-.093-.003-.14-.003-23.82 0-43.13 19.31-43.13 43.13s19.31 43.13 43.13 43.13h57.161c-23.166-19.45-37.622-46.987-37.622-77.523z" fill="#e5e5e5"/><path d="m435.718 271.946v29.635c0 32.15-26.062 58.222-58.222 58.222h-257.982c-32.16 0-58.232-26.072-58.232-58.222v-29.635z" fill="#c1e9fa"/><path d="m435.718 58.232v29.625h-187.218-187.218v-29.625c0-32.16 26.072-58.232 58.232-58.232h257.982c32.16 0 58.222 26.072 58.222 58.232z" fill="#c1e9fa"/><circle cx="248.5" cy="348.826" fill="#78cbec" r="39.622"/><path d="m268.5 368.448c-21.883 0-39.622-17.739-39.622-39.622 0-5.762 1.24-11.231 3.452-16.17-13.819 6.188-23.452 20.05-23.452 36.17 0 21.883 17.74 39.622 39.622 39.622 16.121 0 29.983-9.633 36.17-23.452-4.939 2.212-10.408 3.452-16.17 3.452z" fill="#34b5e1"/><g><ellipse cx="248.5" cy="220.107" fill="#423e4f" rx="13.288" ry="14.869"/></g><g><path d="m184.843 218.868c-4.143 0-7.5-3.358-7.5-7.5v-9.709c0-4.142 3.357-7.5 7.5-7.5s7.5 3.358 7.5 7.5v9.709c0 4.142-3.357 7.5-7.5 7.5z" fill="#423e4f"/></g><g><path d="m312.158 218.868c-4.143 0-7.5-3.358-7.5-7.5v-9.709c0-4.142 3.357-7.5 7.5-7.5s7.5 3.358 7.5 7.5v9.709c0 4.142-3.358 7.5-7.5 7.5z" fill="#423e4f"/></g><path d="m250.72 415.515c-1.237-1.203-3.203-1.203-4.441 0-44.259 43.043-32.352 81.485 2.221 81.485s46.48-38.442 2.22-81.485z" fill="#dadada"/><g fill="#90d3f1"><path d="m96.996 271.946h-35.714v29.635c0 32.15 26.072 58.222 58.232 58.222h39.471c-26.903-22.99-48.374-53.162-61.989-87.857z"/><path d="m170.787 0h-51.273c-32.16 0-58.232 26.072-58.232 58.232v29.625h39.622c15.796-35.58 40.032-65.893 69.883-87.857z"/></g></g></svg>