<svg id="Capa_1" enable-background="new 0 0 497 497" height="512" viewBox="0 0 497 497" width="512" xmlns="http://www.w3.org/2000/svg"><g><circle cx="411.598" cy="162.808" fill="#ffbd86" r="39.1"/><path d="m109.727 123.805-.01-.011c13.334-70.486 75.247-123.794 149.61-123.794s136.276 53.308 149.611 123.795l-.01.011h-299.201z" fill="#ff9e8e"/><path d="m143.586 251.23c-10.887-12.718-30.472-12.932-41.55-.38-9.038 10.24-9.235 25.601-.36 35.984 20.355 23.816 46.003 42.973 75.1 55.649l19.35-23.341-19.35-38.899z" fill="#fed2a4"/><path d="m375.069 251.23c10.887-12.718 30.472-12.932 41.55-.38 9.038 10.24 9.235 25.601.36 35.984-20.355 23.816-46.003 42.973-75.1 55.649l-19.35-23.341 19.35-38.899z" fill="#ffbd86"/><path d="m300.234 358.275-40.906 17.406-35.872-17.406-41.422 17.406c4.708 12.532 12.391 23.611 22.168 32.396v26.255l27.563 31.334 27.563-31.334 27.563 31.334 27.563-31.334v-26.255c1.112-1.002 2.194-2.014 3.246-3.065 8.234-8.244 14.745-18.221 18.923-29.331z" fill="#5c586f"/><path d="m207.347 365.044-25.313 10.637c4.708 12.531 12.391 23.61 22.168 32.396v26.256l27.563 31.334.964-1.096c-15.084-28.276-24.322-62.5-25.382-99.527z" fill="#4f4c5f"/><path d="m341.88 232.434v114.197c0 10.228-1.863 20.015-5.259 29.05h-154.587c-3.396-9.036-5.259-18.822-5.259-29.05v-114.197z" fill="#ff9dd3"/><circle cx="259.327" cy="304.541" fill="#ffbd86" r="38.766"/><path d="m165.966 31.995c-4.195-17.358-19.38-30.633-37.652-31.893-20.245-1.396-37.681 11.642-43.044 29.852-3.465 11.764-11.425 21.804-22.615 26.82-2.408 1.08-4.714 1.898-6.898 2.508-9.571 2.671-12.661 14.808-5.599 21.799 15.221 15.067 40.198 28.385 72.084 4.871-5.74 11.842-10.006 24.531-12.524 37.843l.01.011h31.757c8.937-49.319 39.488-91.995 82.508-119.675-21.462 5.1-41.156 14.752-58.027 27.864z" fill="#fb8978"/><path d="m207.234 357.892c0-57.532 1.148-97.689 9.207-125.458h-39.666v114.197c0 10.228 1.863 20.015 5.259 29.05h25.843c-.421-5.855-.643-11.787-.643-17.789z" fill="#ff88ca"/><path d="m411.6 152.276c0 26.155-6.591 50.768-18.201 72.265-25.734 47.632-76.121 79.998-134.071 79.998s-108.337-32.366-134.071-79.998c-11.61-21.497-18.201-46.109-18.201-72.265 0-9.737.912-19.253 2.665-28.479l.01.01s57.339-94.172 149.598-19.814c92.259-74.358 149.598 19.814 149.598 19.814l.01-.01c1.751 9.226 2.663 18.742 2.663 28.479z" fill="#fed2a4"/><g><g><g><ellipse cx="176.773" cy="188.886" fill="#ff889e" rx="30.461" ry="24.258"/></g><g><ellipse cx="341.882" cy="188.886" fill="#ff889e" rx="30.461" ry="24.258"/></g></g></g><g><path d="m209.025 169.99c-4.142 0-7.5-3.358-7.5-7.5 0-3.859-3.14-6.999-6.999-6.999s-6.999 3.14-6.999 6.999c0 4.142-3.358 7.5-7.5 7.5s-7.5-3.358-7.5-7.5c0-12.13 9.869-21.999 21.999-21.999s21.999 9.869 21.999 21.999c0 4.142-3.358 7.5-7.5 7.5z" fill="#423e4f"/></g><g><path d="m338.628 169.99c-4.142 0-7.5-3.358-7.5-7.5 0-3.859-3.14-6.999-6.999-6.999s-6.999 3.14-6.999 6.999c0 4.142-3.358 7.5-7.5 7.5s-7.5-3.358-7.5-7.5c0-12.13 9.869-21.999 21.999-21.999s21.999 9.869 21.999 21.999c0 4.142-3.358 7.5-7.5 7.5z" fill="#423e4f"/></g><g><path d="m259.327 193.943c-8.062 0-15.729-3.491-21.034-9.579-2.721-3.123-2.396-7.86.727-10.582 3.123-2.721 7.86-2.396 10.582.727 2.456 2.818 6 4.434 9.725 4.434s7.27-1.616 9.725-4.434c2.721-3.123 7.459-3.448 10.582-.727s3.448 7.459.727 10.582c-5.305 6.087-12.972 9.579-21.034 9.579z" fill="#423e4f"/></g><g><path d="m259.328 441.832c-4.142 0-7.5-3.358-7.5-7.5v-32.576c0-4.142 3.358-7.5 7.5-7.5s7.5 3.358 7.5 7.5v32.576c0 4.142-3.358 7.5-7.5 7.5z" fill="#4f4c5f"/></g><path d="m314.453 434.332v35.101c0 7.613-3.085 14.505-8.074 19.494s-11.87 8.074-19.484 8.074c-15.226 0-27.568-12.341-27.568-27.568v-35.101z" fill="#ffbd86"/><path d="m259.327 434.332v35.101c0 7.613-3.085 14.505-8.074 19.494s-11.88 8.074-19.494 8.074c-15.216 0-27.558-12.341-27.558-27.568v-35.101h27.127z" fill="#fed2a4"/><g fill="#ffbd86"><path d="m138.775 153.856c0-24.769 5.409-48.384 15.189-69.935-28.405 13.891-44.235 39.885-44.235 39.885l-.01-.01c-.001.005-.002.01-.003.015-.868-.062-1.749-.104-2.66-.104-21.595 0-39.1 17.506-39.1 39.1 0 21.595 17.506 39.101 39.1 39.101 2.873 0 5.526-.319 7.977-.907 2.76 8.177 6.179 16.051 10.223 23.539 19.089 35.333 51.75 62.249 90.994 73.802-47.152-33.525-77.475-85.778-77.475-144.486z"/><path d="m219.648 434.332h-15.446v35.101c0 15.226 12.341 27.567 27.557 27.567 6.76 0 12.948-2.437 17.744-6.475-12.417-15.953-22.598-34.991-29.855-56.193z"/></g></g></svg>