<svg id="Capa_1" enable-background="new 0 0 497 497" height="512" viewBox="0 0 497 497" width="512" xmlns="http://www.w3.org/2000/svg"><g><path d="m145.934 0h-99.237c-24.851 0-44.996 20.146-44.996 44.997v15.882l94.615 17.541 94.615-17.541v-15.882c0-24.851-20.145-44.997-44.997-44.997z" fill="#dadada"/><path d="m67.108 0h-20.411c-24.851 0-44.996 20.146-44.996 44.997v15.882l31.022 5.751c5.076-25.896 17.315-48.944 34.385-66.63z" fill="#ccccca"/><path d="m1.701 60.879v103.478c0 20.845 16.898 37.742 37.742 37.742h60.272l31.454 29.138 22.02-29.138c20.845 0 37.742-16.898 37.742-37.742v-103.478z" fill="#ff748f"/><path d="m493.858 201.299-43.188-91.926c-3.558-7.574-12.582-10.829-20.156-7.271-18.663 8.768-26.685 31.006-17.917 49.669l24.321 51.767c8.768 18.663 31.006 26.685 49.669 17.917 7.574-3.558 10.829-12.582 7.271-20.156z" fill="#5c586f"/><path d="m468.579 253.774-66.588-138.244c-7.419-15.403-23.005-25.196-40.102-25.196h-78.307v48.516h65.854l33.817 100.241c4.044 11.987.943 25.229-8.002 34.174l-16.892 16.892c-26.561 26.561-72.315 10.518-76.036-26.86-.185-1.858-.175-2.923-.175-2.923l-5.729-27.946-82.922 27.946v150.971h173.713c61.753 0 111.814-50.061 111.814-111.814 0-15.843-3.57-31.482-10.445-45.757z" fill="#90d3f1"/><path d="m282.148 202.099h-182.433c-16.092 0-29.138 13.045-29.138 29.138s13.045 29.138 29.138 29.138h182.433c16.092 0 29.138-13.045 29.138-29.138s-13.046-29.138-29.138-29.138z" fill="#5c586f"/><path d="m193.497 260.375h-75.458c-64.252 0-116.339 52.087-116.339 116.339 0 19.127 15.506 34.633 34.633 34.633h157.164c23.593 0 42.718-19.126 42.718-42.718v-65.535c0-23.594-19.125-42.719-42.718-42.719z" fill="#c1e9fa"/><path d="m345.602 131.827v-34.468c0-2.387-.182-4.732-.529-7.024h-61.492v48.516h61.492c.348-2.292.529-4.637.529-7.024z" fill="#34b5e1"/><path d="m298.856 80.612h-48.167c-13.126 0-23.768 10.641-23.768 23.768v20.425c0 13.126 10.641 23.768 23.768 23.768h48.167c9.249 0 16.746-7.498 16.746-16.746v-34.468c.001-9.249-7.497-16.747-16.746-16.747z" fill="#5c586f"/><path d="m61.148 275.219c-35.475 19.928-59.447 57.909-59.447 101.494 0 19.127 15.506 34.633 34.633 34.633h136.854c-49.275-32.524-88.562-79.925-112.04-136.127z" fill="#90d3f1"/><circle cx="104.335" cy="426.235" fill="#5c586f" r="70.765"/><circle cx="104.335" cy="426.235" fill="#c7c5cb" r="30.081"/><circle cx="385.679" cy="426.235" fill="#5c586f" r="70.765"/><circle cx="385.679" cy="426.235" fill="#c7c5cb" r="30.081"/><g><path d="m193.497 302.284h-55.979c-4.142 0-7.5-3.358-7.5-7.5s3.358-7.5 7.5-7.5h55.979c4.142 0 7.5 3.358 7.5 7.5s-3.358 7.5-7.5 7.5z" fill="#5c586f"/></g><g><path d="m193.497 334.762h-77.326c-4.142 0-7.5-3.358-7.5-7.5s3.358-7.5 7.5-7.5h77.326c4.142 0 7.5 3.358 7.5 7.5s-3.358 7.5-7.5 7.5z" fill="#5c586f"/></g><path d="m129.852 116.77h-18.817v-18.817c0-4.83-3.915-8.745-8.745-8.745h-11.948c-4.83 0-8.745 3.915-8.745 8.745v18.816h-18.817c-4.83 0-8.745 3.915-8.745 8.745v11.948c0 4.83 3.915 8.745 8.745 8.745h18.817v18.817c0 4.83 3.915 8.745 8.745 8.745h11.948c4.83 0 8.745-3.915 8.745-8.745v-18.817h18.817c4.83 0 8.745-3.915 8.745-8.745v-11.948c0-4.829-3.916-8.744-8.745-8.744z" fill="#fff"/><path d="m116.96 202.1h-17.245c-16.092 0-29.138 13.045-29.138 29.137s13.045 29.138 29.138 29.138h52.082c-18.686-12.459-31.887-33.62-34.837-58.275z" fill="#4f4c5f"/><path d="m30.114 93.58c0-11.296 1.342-22.253 3.859-32.701h-32.272v103.478c0 20.845 16.898 37.743 37.742 37.743h45.029c-32.742-23.217-54.358-63.147-54.358-108.52z" fill="#fd5f7e"/></g></svg>