<svg id="Capa_1" enable-background="new 0 0 497 497" height="512" viewBox="0 0 497 497" width="512" xmlns="http://www.w3.org/2000/svg"><g><path d="m113.597 332.46h-65.761c-12.315 0-22.299 9.984-22.299 22.299v142.241h110.359l55.181-77.264-55.181-64.977c0-12.316-9.984-22.299-22.299-22.299z" fill="#36d39a"/><path d="m223.956 296.725h-65.757c-12.315 0-22.299 9.984-22.299 22.299v177.976h110.355l55.177-95.131-55.177-82.845c-.001-12.315-9.984-22.299-22.299-22.299z" fill="#f9ed80"/><path d="m334.31 260.991h-65.757c-12.315 0-22.299 9.984-22.299 22.299v213.71h110.355l55.183-112.998-55.183-100.712c0-12.315-9.983-22.299-22.299-22.299z" fill="#fccb88"/><path d="m444.673 225.26h-65.761c-12.315 0-22.299 9.984-22.299 22.299v249.44h110.359v-249.44c0-12.315-9.984-22.299-22.299-22.299z" fill="#ff748f"/><path d="m458.961 77.529c-10.249-4.531-15.131-16.313-11.09-26.765l.017-.044c6.571-16.995-10.149-33.716-27.144-27.145l-.044.017c-10.452 4.041-22.234-.841-26.765-11.09-7.369-16.67-31.023-16.67-38.392 0-4.531 10.249-16.313 15.131-26.765 11.09l-.044-.017c-16.995-6.571-33.716 10.149-27.145 27.144l.017.044c4.041 10.452-.841 22.234-11.09 26.765-16.67 7.369-16.67 31.023 0 38.392 10.249 4.53 15.131 16.313 11.09 26.765l-.017.044c-6.571 16.995 10.149 33.716 27.144 27.145l.044-.017c10.452-4.041 22.234.841 26.765 11.09 7.369 16.67 31.023 16.67 38.392 0 4.531-10.249 16.313-15.131 26.765-11.09l.044.017c16.995 6.571 33.716-10.149 27.145-27.144l-.017-.044c-4.041-10.452.841-22.234 11.09-26.765 16.669-7.369 16.669-31.023 0-38.392z" fill="#36d39a"/><g fill="#423e4f"><path d="m392.009 96.639c-3.125-2.721-7.861-2.396-10.582.727-3.538 4.061-9.829 4.071-13.379 0-2.721-3.123-7.458-3.447-10.582-.726-3.122 2.722-3.446 7.459-.725 10.582 9.526 10.927 26.481 10.915 35.994-.001 2.722-3.123 2.396-7.861-.726-10.582z"/><path d="m338.725 83.124-18.041-4.834c-4.001-1.073-8.113 1.303-9.186 5.304s1.302 8.113 5.303 9.186l3.641.976c-.008.141-.021.279-.021.422v7.771c0 4.142 3.357 7.5 7.5 7.5s7.5-3.358 7.5-7.5v-4.22c.458.085.915.142 1.367.142 3.312 0 6.342-2.21 7.239-5.561 1.073-4.001-1.301-8.114-5.302-9.186z"/><path d="m437.976 83.594c-1.071-4.001-5.183-6.375-9.186-5.304l-18.041 4.834c-4.001 1.072-6.375 5.185-5.303 9.186.897 3.351 3.928 5.561 7.239 5.561.452 0 .909-.057 1.367-.142v4.22c0 4.142 3.357 7.5 7.5 7.5s7.5-3.358 7.5-7.5v-7.771c0-.143-.013-.281-.021-.422l3.641-.976c4.003-1.073 6.377-5.185 5.304-9.186z"/></g><path d="m247.527 166.701-41.647-15.078c-10.137-3.67-20.023 6.007-16.569 16.22l3.236 9.57-127.577 43.144c-6.053 2.047-9.301 8.614-7.254 14.667l3.813 11.275c2.047 6.053 8.614 9.301 14.667 7.254l127.578-43.142 3.236 9.57c3.454 10.213 17.183 11.905 23.013 2.835l23.949-37.26c4.465-6.947 1.321-16.243-6.445-19.055z" fill="#ff748f"/><path d="m67.103 360.77c0-9.639.641-19.092 1.856-28.311h-21.123c-12.315 0-22.299 9.983-22.299 22.299v142.241h94.172c-32.113-32.294-52.606-81.325-52.606-136.229z" fill="#00c67f"/><path d="m97.78 209.461-32.81 11.095c-6.053 2.047-9.301 8.614-7.254 14.667l3.813 11.275c2.047 6.053 8.614 9.301 14.667 7.254l44.847-15.166c-10.04-8.127-18.033-18.036-23.263-29.125z" fill="#fd5f7e"/><path d="m308.241 83.027c0-22.077 8.363-42.44 22.46-58.796-.645-.181-1.287-.392-1.924-.638l-.044-.017c-16.995-6.571-33.716 10.149-27.145 27.144l.017.044c4.041 10.452-.841 22.234-11.09 26.765-16.67 7.369-16.67 31.023 0 38.392 10.249 4.53 15.131 16.313 11.09 26.765l-.017.044c-6.571 16.995 10.149 33.715 27.144 27.145l.044-.018c10.452-4.041 22.234.841 26.765 11.09 7.369 16.67 31.023 16.67 38.392 0 .407-.92.89-1.78 1.407-2.61-49.837-9.726-87.099-48.701-87.099-95.31z" fill="#00c67f"/></g></svg>