<svg id="Capa_1" enable-background="new 0 0 497 497" height="512" viewBox="0 0 497 497" width="512" xmlns="http://www.w3.org/2000/svg"><g><path d="m88.961 436.728c19.102-46.518 56.79-65.507 56.79-65.507h144.789s67.619 34.072 67.619 122.73h-215.22z" fill="#36d39a"/><path d="m394.044 13.637c25.416-1.753 47.304 14.615 54.037 37.475 4.35 14.767 14.342 27.372 28.39 33.669 3.023 1.355 5.918 2.383 8.66 3.148 12.015 3.354 15.895 18.59 7.029 27.365-19.725 19.525-52.501 36.71-94.396 3.109-30.196 0-54.432-25.519-52.318-56.167 1.783-25.862 22.736-46.815 48.598-48.599z" fill="#fab659"/><path d="m6.349 216.077c0-117.464 95.564-213.028 213.028-213.028s213.027 95.564 213.027 213.028z" fill="#fccb88"/><path d="m79.554 201.789c0-84.376 48.928-158.103 121.804-197.97-109.062 9.179-195.009 100.864-195.009 212.258h73.694c-.312-4.727-.489-9.487-.489-14.288z" fill="#fab659"/><circle cx="391.192" cy="216.077" fill="#ffcabd" r="47.561"/><path d="m216.672 371.221h-70.921s-37.688 18.988-56.79 65.506l19.819 21.011c7.316-44.691 46.843-78.835 94.515-78.835 4.541 0 9.005.317 13.377.916z" fill="#00c67f"/><path d="m379.093 152.642c-7.463-18.765-25.845-30.896-46.039-30.896h-227.344c-20.343 0-38.724 12.35-46.198 31.271-7.831 19.826-12.081 41.457-11.947 64.099.554 93.626 76.958 170.118 170.583 170.773 95.455.668 173.045-76.511 173.045-171.811-.001-22.408-4.294-43.811-12.1-63.436z" fill="#ffdcce"/><path d="m142.939 436.728v57.223h-64.796c0-22.471 4.338-41.428 10.818-57.223z" fill="#ffdcce"/><g><path d="m354.285 350.945-16.18 47.225-47.225 16.19-30.167-30.167c-17.505-17.515-17.505-45.9 0-63.405 17.515-17.515 45.9-17.515 63.415 0z" fill="#ffcabd"/></g><path d="m372.202 432.266c-17.515 17.505-45.9 17.505-63.415 0l-17.907-17.906 63.405-63.415 17.917 17.917c17.504 17.504 17.504 45.9 0 63.404z" fill="#80dfb5"/><path d="m172.621 381.384c-56.71-42.043-93.067-106.862-93.067-179.595 0-27.671 5.263-54.197 14.905-78.761-15.643 3.616-28.884 14.639-34.947 29.988-2.054 5.201-3.855 10.529-5.402 15.964-2.142-.296-4.325-.465-6.548-.465-26.268 0-47.562 21.295-47.562 47.562 0 26.268 21.294 47.562 47.561 47.562 2.241 0 4.441-.171 6.599-.473 16.33 56.936 61.47 102.001 118.461 118.218z" fill="#ffcabd"/><ellipse cx="116.207" cy="245.531" fill="#ff889e" rx="38.068" ry="30.315"/><ellipse cx="322.547" cy="245.531" fill="#ff889e" rx="38.068" ry="30.315"/><ellipse cx="219.377" cy="222.238" fill="#423e4f" rx="20.207" ry="22.612"/><g><path d="m159.884 216.209c-4.143 0-7.5-3.358-7.5-7.5 0-5.204-4.233-9.437-9.438-9.437s-9.438 4.234-9.438 9.437c0 4.142-3.357 7.5-7.5 7.5s-7.5-3.358-7.5-7.5c0-13.475 10.963-24.437 24.438-24.437s24.438 10.963 24.438 24.437c0 4.142-3.358 7.5-7.5 7.5z" fill="#423e4f"/></g><g><path d="m311.286 216.209c-4.143 0-7.5-3.358-7.5-7.5 0-5.204-4.233-9.437-9.438-9.437s-9.438 4.234-9.438 9.437c0 4.142-3.357 7.5-7.5 7.5s-7.5-3.358-7.5-7.5c0-13.475 10.963-24.437 24.438-24.437s24.438 10.963 24.438 24.437c0 4.142-3.358 7.5-7.5 7.5z" fill="#423e4f"/></g><circle cx="156.556" cy="282.899" fill="#36d39a" r="24.948"/><circle cx="83.46" cy="328.396" fill="#36d39a" r="21.507"/><path d="m107.561 472.709c0-12.749 2.6-24.901 7.302-35.982h-25.902c-6.481 15.795-10.818 34.752-10.818 57.223h31.884c-1.613-6.825-2.466-13.935-2.466-21.241z" fill="#ffcabd"/></g></svg>