<svg id="Capa_1" enable-background="new 0 0 497 497" height="512" viewBox="0 0 497 497" width="512" xmlns="http://www.w3.org/2000/svg"><g><path d="m373.904 0h-250.808c-41.452 0-75.056 33.604-75.056 75.056v346.887c0 41.452 33.604 75.056 75.056 75.056h250.807c41.452 0 75.056-33.604 75.056-75.056v-346.887c.001-41.452-33.603-75.056-75.055-75.056z" fill="#5c586f"/><path d="m122.779 228.582c0-89.078 16.856-169.789 58.618-228.582h-58.3c-41.453 0-75.057 33.604-75.057 75.056v346.888c0 41.453 33.604 75.056 75.056 75.056h117.86c-71.373-58.714-118.177-157.026-118.177-268.418z" fill="#4f4c5f"/><path d="m123.096 397.436c-8.446 0-15.318-6.871-15.318-15.318v-307.062c0-8.446 6.872-15.318 15.318-15.318h250.807c8.446 0 15.318 6.872 15.318 15.318v307.062c0 8.446-6.871 15.318-15.318 15.318z" fill="#78cbec"/><circle cx="248.5" cy="275.383" fill="#ff748f" r="78.925"/><path d="m268.5 334.308c-43.589 0-78.925-35.336-78.925-78.925 0-16.686 5.191-32.151 14.027-44.898-20.555 14.248-34.027 37.994-34.027 64.898 0 43.589 35.336 78.925 78.925 78.925 26.904 0 50.65-13.472 64.898-34.027-12.747 8.836-28.213 14.027-44.898 14.027z" fill="#fd5f7e"/><path d="m284.839 264.019-45.377-22.689c-8.448-4.224-18.387 1.919-18.387 11.364v45.377c0 9.445 9.94 15.588 18.387 11.364l45.377-22.689c9.365-4.682 9.365-18.045 0-22.727z" fill="#fff"/><circle cx="248.5" cy="447.218" fill="#4f4c5f" r="21.387"/><circle cx="248.5" cy="29.869" fill="#4f4c5f" r="6.61"/><g fill="#fff"><path d="m181.632 154.848c-.015 0-.028 0-.043 0-4.987.028-10.338.048-14.465.052v-55.346c0-4.142-3.357-7.5-7.5-7.5s-7.5 3.358-7.5 7.5v62.794c0 3.654 2.633 6.776 6.234 7.393 1.667.286 20.013.126 23.314.107 4.142-.023 7.481-3.4 7.458-7.542-.022-4.128-3.375-7.458-7.498-7.458z"/><path d="m209.803 92.054c-4.143 0-7.5 3.358-7.5 7.5v62.847c0 4.142 3.357 7.5 7.5 7.5s7.5-3.358 7.5-7.5v-62.847c0-4.142-3.357-7.5-7.5-7.5z"/><path d="m337.376 154.901h-18.739v-16.136h16.805c4.143 0 7.5-3.358 7.5-7.5s-3.357-7.5-7.5-7.5h-16.805v-16.137h18.739c4.143 0 7.5-3.357 7.5-7.5 0-4.142-3.357-7.5-7.5-7.5h-26.239c-4.143 0-7.5 3.358-7.5 7.5v62.273c0 4.142 3.357 7.5 7.5 7.5h26.239c4.143 0 7.5-3.358 7.5-7.5s-3.358-7.5-7.5-7.5z"/><path d="m285.696 92.552c-3.927-1.306-8.176.822-9.481 4.753l-14.872 44.767-15.613-44.977c-1.358-3.913-5.635-5.984-9.544-4.626-3.913 1.358-5.984 5.632-4.626 9.545l21.505 61.955c1.264 3.555 4.635 5.933 8.403 5.933h.063c3.793-.026 7.161-2.457 8.397-6.097l20.521-61.77c1.306-3.931-.822-8.177-4.753-9.483z"/></g><path d="m122.779 228.582c0-61.817 8.11-119.61 27.03-168.843h-26.713c-8.446 0-15.318 6.872-15.318 15.318v307.062c0 8.446 6.872 15.318 15.318 15.318h39.124c-25.028-49.236-39.441-107.034-39.441-168.855z" fill="#34b5e1"/></g></svg>