<svg id="Capa_1" enable-background="new 0 0 497 497" height="512" viewBox="0 0 497 497" width="512" xmlns="http://www.w3.org/2000/svg"><g><path d="m248.5 48.476-186.932 102.766v287.774c0 32.023 25.96 57.984 57.984 57.984h257.896c32.023 0 57.984-25.96 57.984-57.984v-287.774z" fill="#ff748f"/><path d="m82.014 261.102c0-48.875 9.735-95.043 27.005-135.946l-47.452 26.086v287.774c0 32.023 25.96 57.983 57.984 57.983h37.351c-49.515-51.558-74.888-131.432-74.888-235.897z" fill="#fd5f7e"/><path d="m481.897 133.937-210.165-127.443c-14.279-8.658-32.187-8.66-46.464-.001l-210.165 127.444c-12.044 7.303-15.887 22.987-8.583 35.031l20.017 33.01c7.303 12.044 22.988 15.887 35.032 8.584l186.931-113.355 186.932 113.355c12.044 7.303 27.728 3.46 35.032-8.584l20.016-33.009c7.304-12.044 3.461-27.728-8.583-35.032z" fill="#f9ed80"/><circle cx="131.551" cy="268.494" fill="#423e4f" r="29.702"/><path d="m232.783 229.202c15.476-25.269 43.34-42.135 75.148-42.135 34.635 0 64.597 19.994 78.975 49.072l-32.645 34.089h-89.718z" fill="#5c586f"/><path d="m283.698 190.456c-21.433 6.124-39.529 20.155-50.915 38.746l12.121 15.657c6.622-22.012 20.437-41.015 38.794-54.403z" fill="#4f4c5f"/><path d="m396 275.135c0 48.635-39.434 88.059-88.069 88.059s-88.059-39.425-88.059-88.059c0-16.827 4.722-32.556 12.912-45.934 81.657-13.232 65.374 27.582 154.123 6.937 5.819 11.756 9.093 24.998 9.093 38.997z" fill="#ffdcce"/><path d="m240.559 274.451c0-17.125 4.206-33.288 11.662-47.561-5.815.406-12.239 1.145-19.438 2.311-8.19 13.378-12.912 29.107-12.912 45.934 0 41.364 28.521 76.06 66.969 85.511-27.959-18.901-46.281-50.454-46.281-86.195z" fill="#ffcabd"/><path d="m104.837 324.455c10.508-33.173 41.494-57.38 78.395-57.38 36.672 0 67.857 24.067 78.405 57.38l-78.405 39.631z" fill="#5c586f"/><path d="m141.549 278.41c-17.324 10.212-30.546 26.581-36.712 46.045l16.876 8.531c1.141-20.099 8.285-38.765 19.836-54.576z" fill="#4f4c5f"/><path d="m265.464 349.317c0 45.411-36.822 82.232-82.232 82.232-45.421 0-82.232-36.822-82.232-82.232 0-8.659 1.342-17.009 3.837-24.863 9.384 1.412 55.222 6.839 78.395-17.695 23.182 24.544 69.05 19.097 78.405 17.695 2.485 7.844 3.827 16.194 3.827 24.863z" fill="#ffdcce"/><g><g><path d="m137.571 366.363c-4.142 0-7.5-3.358-7.5-7.5v-8.774c0-4.142 3.358-7.5 7.5-7.5s7.5 3.358 7.5 7.5v8.774c0 4.142-3.358 7.5-7.5 7.5z" fill="#423e4f"/></g><g><path d="m228.893 366.363c-4.142 0-7.5-3.358-7.5-7.5v-8.774c0-4.142 3.358-7.5 7.5-7.5s7.5 3.358 7.5 7.5v8.774c0 4.142-3.358 7.5-7.5 7.5z" fill="#423e4f"/></g><g><path d="m183.232 371.586c-6.781 0-13.23-2.937-17.692-8.056-2.722-3.123-2.396-7.86.726-10.582 3.122-2.721 7.86-2.397 10.582.726 1.613 1.851 3.94 2.912 6.384 2.912 2.445 0 4.772-1.061 6.385-2.912 2.722-3.123 7.458-3.448 10.582-.726 3.123 2.722 3.448 7.459.726 10.582-4.463 5.119-10.911 8.056-17.693 8.056z" fill="#423e4f"/></g></g><g><g><path d="m260.948 283.278c-4.142 0-7.5-3.358-7.5-7.5v-9.396c0-4.142 3.358-7.5 7.5-7.5s7.5 3.358 7.5 7.5v9.396c0 4.142-3.358 7.5-7.5 7.5z" fill="#423e4f"/></g><g><path d="m358.742 283.278c-4.142 0-7.5-3.358-7.5-7.5v-9.396c0-4.142 3.358-7.5 7.5-7.5s7.5 3.358 7.5 7.5v9.396c0 4.142-3.358 7.5-7.5 7.5z" fill="#423e4f"/></g><g><path d="m309.845 288.871c-7.109 0-13.869-3.078-18.545-8.446-2.721-3.123-2.396-7.861.727-10.582 3.122-2.721 7.86-2.396 10.582.727 1.828 2.097 4.465 3.3 7.237 3.3s5.41-1.203 7.237-3.3c2.721-3.123 7.458-3.448 10.582-.727 3.123 2.721 3.448 7.459.727 10.582-4.678 5.368-11.438 8.446-18.547 8.446z" fill="#423e4f"/></g></g><path d="m252.899 376.347c8.838-28.938 35.718-50.143 67.768-50.143 31.861 0 58.92 21.075 67.788 50.143l-67.78 32.706z" fill="#4f4c5f"/><path d="m391.536 397.074c0 39.138-31.732 70.86-70.87 70.86s-70.86-31.722-70.86-70.86c0-7.197 1.074-14.166 3.092-20.727 13.579-1.342 36.414-5.149 56.972-15.866 6.75-3.519 14.852-3.519 21.612 0 20.558 10.716 43.393 14.524 56.972 15.866 2.009 6.551 3.082 13.51 3.082 20.727z" fill="#ffcabd"/><g><g><path d="m281.327 412.052c-4.142 0-7.5-3.358-7.5-7.5v-7.561c0-4.142 3.358-7.5 7.5-7.5s7.5 3.358 7.5 7.5v7.561c0 4.142-3.358 7.5-7.5 7.5z" fill="#423e4f"/></g><g><path d="m360.022 412.052c-4.142 0-7.5-3.358-7.5-7.5v-7.561c0-4.142 3.358-7.5 7.5-7.5s7.5 3.358 7.5 7.5v7.561c0 4.142-3.357 7.5-7.5 7.5z" fill="#423e4f"/></g><g><path d="m320.674 416.553c-6.144 0-11.986-2.66-16.028-7.299-2.721-3.123-2.396-7.86.727-10.582 3.123-2.721 7.86-2.396 10.582.727 1.192 1.369 2.913 2.154 4.719 2.154s3.527-.785 4.72-2.154c2.721-3.123 7.459-3.448 10.582-.727s3.448 7.459.727 10.582c-4.042 4.639-9.885 7.299-16.029 7.299z" fill="#423e4f"/></g></g><path d="m154.296 49.531-139.193 84.405c-12.044 7.304-15.887 22.988-8.583 35.032l20.017 33.01c7.303 12.044 22.988 15.887 35.031 8.583l26.648-16.159c10.49-55.592 33.811-105.416 66.08-144.871z" fill="#fccb88"/><path d="m121.551 338.688c0-4.322.286-8.583.825-12.775-8.183-.195-14.623-1.021-17.539-1.459-2.495 7.854-3.837 16.204-3.837 24.862 0 43.687 34.074 79.407 77.103 82.057-33.987-19.44-56.552-53.683-56.552-92.685z" fill="#ffcabd"/></g></svg>