<svg id="Capa_1" enable-background="new 0 0 497 497" height="512" viewBox="0 0 497 497" width="512" xmlns="http://www.w3.org/2000/svg"><g><path d="m130.881 61.86c-13.303-2.981-27.244-.561-38.764 6.729l-34.388 21.761c-13.922 8.81-12.898 29.444 1.829 36.831l118.308 59.348 57.9-101.167z" fill="#78cbec"/><path d="m357.832 288.812-23.502-104.885-101.167 57.9 59.348 118.308c7.387 14.727 28.021 15.751 36.831 1.829l21.761-34.388c7.29-11.52 9.71-25.462 6.729-38.764z" fill="#90d3f1"/><path d="m334.33 183.927-101.167 57.9 21.571 43.002 87.064-67.574z" fill="#78cbec"/><path d="m392.398 27.294c-15.834-15.834-40.195-19.373-59.88-8.698l-55.364 30.022c-16.421 8.905-30.752 21.211-42.036 36.098l-138.212 178.076-53.35-4.639c-5.058-.44-10.051 1.379-13.64 4.969l-24.87 24.87c-9.446 9.445-4.975 25.584 7.984 28.824l58.974 14.743c7.943 1.986 14.144 8.187 16.13 16.13l14.743 58.974c3.24 12.959 19.378 17.429 28.824 7.984l24.87-24.87c3.59-3.59 5.409-8.583 4.969-13.64l-4.639-53.35 178.076-138.213c14.886-11.284 27.193-25.615 36.098-42.036l30.022-55.364c10.674-19.685 7.135-44.046-8.699-59.88z" fill="#c1e9fa"/><circle cx="382.372" cy="369.894" fill="#ff748f" r="114.628"/><path d="m408.188 369.894 28.598-28.598c7.129-7.129 7.129-18.688 0-25.817-7.129-7.129-18.688-7.129-25.817 0l-28.598 28.598-28.598-28.598c-7.129-7.129-18.688-7.129-25.817 0s-7.129 18.688 0 25.817l28.598 28.598-28.598 28.598c-7.129 7.129-7.129 18.688 0 25.817 7.129 7.129 18.688 7.129 25.817 0l28.598-28.598 28.598 28.598c7.129 7.129 18.688 7.129 25.817 0s7.129-18.688 0-25.817z" fill="#fff"/><path d="m224.311 143.315c54.973-54.972 115.121-94.756 168.832-115.245-.248-.259-.491-.521-.745-.776-15.834-15.834-40.195-19.373-59.88-8.698l-55.364 30.022c-16.421 8.905-30.752 21.211-42.036 36.098l-138.212 178.076-53.35-4.639c-5.058-.439-10.051 1.379-13.64 4.969l-24.87 24.871c-9.445 9.445-4.975 25.584 7.984 28.824l58.974 14.744c7.943 1.986 14.144 8.187 16.13 16.13l5.988 23.951c6.565-65.251 53.668-151.806 130.189-228.327z" fill="#90d3f1"/><path d="m303.213 360.603c0-42.323 20.507-79.684 51.794-102.04-19.674 4.816-38.322 14.907-53.69 30.276-44.765 44.766-44.765 117.344 0 162.109 27.545 27.545 65.62 38.133 101.268 31.78-56.428-10.009-99.372-60.874-99.372-122.125z" fill="#fd5f7e"/></g></svg>