<svg id="Capa_1" enable-background="new 0 0 497 497" height="512" viewBox="0 0 497 497" width="512" xmlns="http://www.w3.org/2000/svg"><g><ellipse cx="125.72" cy="82.183" fill="#ff9dd3" rx="81.505" ry="82.856" transform="matrix(.707 -.707 .707 .707 -21.29 112.968)"/><path d="m175.065 110.088c-54.349 0-98.408-37.711-98.408-84.231 0-3.726.286-7.394.834-10.991-3.632 2.58-7.106 5.477-10.359 8.73-31.83 31.829-31.402 83.863.956 116.22 32.357 32.357 84.391 32.786 116.221.956 9.956-9.957 16.755-21.889 20.409-34.579-9.359 2.528-19.319 3.895-29.653 3.895z" fill="#ff88ca"/><path d="m159.243 435.34h178.514v61.658h-178.514z" fill="#78cbec"/><ellipse cx="371.28" cy="82.183" fill="#ff9dd3" rx="82.856" ry="81.505" transform="matrix(.707 -.707 .707 .707 50.633 286.605)"/><path d="m40.176 231.81c0-114.87 93.454-208.324 208.324-208.324 114.871 0 208.325 93.454 208.325 208.324z" fill="#5c586f"/><path d="m248.503 231.808v171.85h-124.84c-44.11 0-78.3-38.27-73.72-82.15 2.64-25.24 3.62-55.51.66-89.7z" fill="#4f4c5f"/><path d="m373.333 403.658h-124.83v-171.85h197.9c-2.96 34.19-1.99 64.46.65 89.7 4.59 43.88-29.6 82.15-73.72 82.15z" fill="#5c586f"/><path d="m103.234 212.868c0-74.007 35.047-139.818 89.439-181.775-87.847 24.464-152.497 105.178-152.497 200.717h63.842c-.511-6.247-.784-12.562-.784-18.942z" fill="#4f4c5f"/><circle cx="417.953" cy="244.623" fill="#ffbd86" r="49.136"/><path d="m368.817 454.677c0-73.498-42.328-94.871-42.328-94.871h-155.978s-42.328 21.373-42.328 94.871z" fill="#78cbec"/><path d="m90.885 163.249c-8.891 20.406-13.936 42.874-14.215 66.488-1.131 95.665 75.02 173.291 170.69 173.912 95.43.62 172.984-76.553 172.984-171.839 0-27.599-6.51-53.676-18.074-76.785-6.099-12.187-21.201-16.84-33.203-10.385-111.409 59.915-119.633-28.218-228.825-17.277-21.757 2.18-40.624 15.842-49.357 35.886z" fill="#fed2a4"/><g><g><g><ellipse cx="154.712" cy="268.867" fill="#ff889e" rx="34.606" ry="27.558"/></g><g><ellipse cx="342.288" cy="268.867" fill="#ff889e" rx="34.606" ry="27.558"/></g></g></g><g><path d="m191.352 246.378c-4.142 0-7.5-3.358-7.5-7.5 0-4.947-4.025-8.972-8.972-8.972s-8.972 4.025-8.972 8.972c0 4.142-3.358 7.5-7.5 7.5s-7.5-3.358-7.5-7.5c0-13.218 10.753-23.972 23.972-23.972s23.972 10.754 23.972 23.972c0 4.142-3.358 7.5-7.5 7.5z" fill="#423e4f"/></g><g><path d="m338.591 246.378c-4.143 0-7.5-3.358-7.5-7.5 0-4.947-4.024-8.972-8.972-8.972s-8.972 4.025-8.972 8.972c0 4.142-3.357 7.5-7.5 7.5s-7.5-3.358-7.5-7.5c0-13.218 10.754-23.972 23.972-23.972s23.972 10.754 23.972 23.972c0 4.142-3.357 7.5-7.5 7.5z" fill="#423e4f"/></g><g><path d="m248.5 273.59c-8.864 0-17.293-3.839-23.127-10.532-2.721-3.123-2.396-7.86.727-10.582 3.123-2.721 7.86-2.396 10.582.727 2.984 3.424 7.292 5.387 11.818 5.387s8.834-1.964 11.818-5.387c2.721-3.123 7.459-3.448 10.582-.727s3.448 7.459.727 10.582c-5.834 6.693-14.263 10.532-23.127 10.532z" fill="#423e4f"/></g><g><path d="m132.542 484.658c-10.454-13.746-7.786-33.364 5.959-43.818l48.972-37.247c13.745-10.456 33.365-7.786 43.818 5.959 10.455 13.746 7.787 33.364-5.959 43.818l-48.972 37.247c-13.747 10.458-33.365 7.784-43.818-5.959z" fill="#c1e9fa"/></g><g><path d="m364.458 484.658c10.454-13.746 7.786-33.364-5.959-43.818l-48.972-37.247c-13.745-10.456-33.365-7.786-43.818 5.959-10.455 13.746-7.787 33.364 5.959 43.818l48.972 37.247c13.747 10.458 33.365 7.784 43.818-5.959z" fill="#c1e9fa"/></g><path d="m220.497 364.05c-15.466 0-28.004 12.538-28.004 28.004v32.304c0 15.466 12.538 28.004 28.004 28.004 15.466 0 28.003-12.538 28.003-28.004v-32.304c0-15.467-12.538-28.004-28.003-28.004z" fill="#ffbd86"/><path d="m276.504 364.05c15.466 0 28.004 12.538 28.004 28.004v32.304c0 15.466-12.538 28.004-28.003 28.004-15.466 0-28.004-12.538-28.004-28.004v-32.304c-.001-15.467 12.537-28.004 28.003-28.004z" fill="#ffad6d"/><path d="m192.275 394.338c-54.165-41.971-89.041-107.643-89.041-181.47 0-27.472 4.835-53.813 13.689-78.228-11.401 6.31-20.65 16.242-26.038 28.609-4.475 10.271-7.973 21.064-10.382 32.263-.484-.014-.968-.025-1.456-.025-27.137 0-49.136 21.999-49.136 49.136s21.999 49.136 49.136 49.136c2.976 0 5.885-.279 8.715-.786 17.948 47.474 56.253 84.807 104.513 101.365z" fill="#ffbd86"/></g></svg>