<svg id="Capa_1" enable-background="new 0 0 497 497" height="512" viewBox="0 0 497 497" width="512" xmlns="http://www.w3.org/2000/svg"><g><path d="m226.746 196.369-43.487 153.485h47.885c28.799 0 54.218-18.813 62.634-46.354l32.734-107.131z" fill="#5c586f"/><path d="m84.162 48.075c-15.386 0-29.443 8.682-36.345 22.433-10.496 20.911-26.447 55.185-43.646 101.12-15.872 42.39 15.534 87.586 60.798 87.586l71.767-211.139c-.001 0-35.057 0-52.574 0z" fill="#4f4c5f"/><path d="m183.259 349.853h47.885c2.344 0 4.663-.137 6.955-.381 4.437-17.327 9.23-33.582 14.367-50.997 2.084-7.063 4.196-14.224 6.33-21.619 5.733-19.884 24.204-33.771 44.917-33.771h8.524l14.275-46.717h-99.765z" fill="#4f4c5f"/><path d="m195.813 404.755c9.361-56.02 21.395-91.986 34.157-136.211 9.475-32.857 39.544-55.458 73.743-55.458h101.243l46.021-75.226-46.021-89.785h-268.22s-78.735 135.556-115.659 356.68l93.919 35.941z" fill="#fccb88"/><path d="m86.435 292.191c0-95.748 38.917-182.25 101.539-244.116h-51.239s-78.735 135.556-115.659 356.68l93.919 35.941 4.065-1.808c-20.908-44.426-32.625-94.17-32.625-146.697z" fill="#fab659"/><path d="m213.663 442.087c-5.511-12.698-11.485-25.146-17.85-37.332h-174.736c-2.382 14.268-4.589 28.891-6.591 43.859-1.984 14.83 9.549 28.022 24.511 28.022h151.968c17.788 0 29.779-18.231 22.698-34.549z" fill="#5c586f"/><path d="m325.211 79.087h-130.045c-8.566 0-16.332 5.019-19.846 12.831-5.341 11.874-11.567 26.612-18.149 43.972-5.396 14.232 5.135 29.466 20.355 29.466h147.684c12.019 0 21.763-9.744 21.763-21.763v-42.743c0-12.019-9.743-21.763-21.762-21.763z" fill="#5c586f"/><g><g><path d="m200.926 133.257c-4.143 0-7.5-3.358-7.5-7.5v-10.968c0-4.142 3.357-7.5 7.5-7.5s7.5 3.358 7.5 7.5v10.968c0 4.142-3.357 7.5-7.5 7.5z" fill="#423e4f"/></g><g><path d="m315.085 133.257c-4.143 0-7.5-3.358-7.5-7.5v-10.968c0-4.142 3.357-7.5 7.5-7.5s7.5 3.358 7.5 7.5v10.968c0 4.142-3.357 7.5-7.5 7.5z" fill="#423e4f"/></g><g><path d="m258.005 139.786c-7.935 0-15.48-3.436-20.703-9.428-2.722-3.123-2.396-7.86.727-10.582 3.122-2.721 7.859-2.397 10.582.726 2.372 2.722 5.797 4.283 9.395 4.283s7.022-1.561 9.395-4.283c2.722-3.123 7.46-3.448 10.582-.726 3.123 2.722 3.448 7.459.727 10.582-5.224 5.992-12.77 9.428-20.705 9.428z" fill="#423e4f"/></g></g><path d="m105.209 404.755h-84.132c-2.382 14.269-4.589 28.892-6.591 43.859-1.984 14.83 9.549 28.022 24.511 28.022h100.836c-14.176-22.304-25.842-46.403-34.624-71.881z" fill="#4f4c5f"/><path d="m469.291 20.364h-36.629c-15.303 0-27.709 12.406-27.709 27.709v165.011c0 15.303 12.406 27.709 27.709 27.709h36.629c15.303 0 27.709-12.406 27.709-27.709v-165.011c0-15.303-12.406-27.709-27.709-27.709z" fill="#5c586f"/><path d="m435.316 92.885c0-26.842 6.505-51.787 17.651-72.521h-20.304c-15.303 0-27.709 12.406-27.709 27.709v165.012c0 15.303 12.406 27.709 27.709 27.709h36.629c15.303 0 27.709-12.406 27.709-27.709v-1.245c-36.364-20.397-61.685-65.985-61.685-118.955z" fill="#4f4c5f"/></g></svg>