<svg id="Capa_1" enable-background="new 0 0 497 497" height="512" viewBox="0 0 497 497" width="512" xmlns="http://www.w3.org/2000/svg"><g><path d="m325.645 9.334c25.416-1.753 47.304 14.615 54.037 37.475 4.35 14.767 14.342 27.372 28.39 33.669 3.023 1.355 5.918 2.383 8.66 3.148 12.015 3.354 15.895 18.59 7.029 27.365-19.725 19.525-52.501 36.71-94.396 3.109-30.196 0-54.432-25.519-52.318-56.167 1.783-25.863 22.736-46.815 48.598-48.599z" fill="#fb8978"/><path d="m119.297 334.836s-46.978 37.198-46.978 152.959h144.853l42.645-42.519 14.035-98.622-7.123-46.128z" fill="#ff9dd3"/><path d="m4.138 203.717c0-97.665 79.456-177.121 177.121-177.121s177.121 79.456 177.121 177.121z" fill="#ff9e8e"/><path d="m67.319 187.729c0-59.192 21.983-112.832 57.603-151.944-70.13 23.588-120.784 89.954-120.784 167.932h63.726c-.357-5.28-.545-10.61-.545-15.988z" fill="#fb8978"/><circle cx="326.358" cy="203.717" fill="#ffcabd" r="36.159"/><path d="m321.885 167.843c-49.88-8.607-78.381-31.506-91.653-45.505-5.464-5.763-14.346-6.412-20.649-1.58-60.648 46.498-168.949 47.085-168.95 47.085-2.963 11.652-4.521 23.865-4.472 36.451.309 79.281 65.016 144.092 144.296 144.521 80.504.435 145.901-64.694 145.901-145.097 0-12.383-1.555-24.401-4.473-35.875z" fill="#ffdcce"/><path d="m278.868 228.108c-8.509.389-16.051 5.65-19.464 13.454-6.327 14.467-12.71 42.334-.823 87.116l97.039-71.332s-24.528-31.624-76.752-29.238z" fill="#b0aeba"/><path d="m464.546 228.108c8.509.389 16.051 5.65 19.464 13.454 6.327 14.467 12.71 42.334.823 87.116l-97.039-71.332s24.529-31.624 76.752-29.238z" fill="#b0aeba"/><path d="m323.157 235.089c-11.554-4.578-26.272-7.804-44.288-6.98-8.509.389-16.051 5.65-19.464 13.454-6.327 14.467-12.71 42.334-.823 87.116l16.181-11.895c7.908-31.559 24.987-59.698 48.394-81.695z" fill="#9f9bac"/><path d="m496.924 394.436-.759-18.637c-2.721-66.764-57.637-119.489-124.457-119.489-66.82 0-121.736 52.724-124.457 119.489l-.76 18.637c-2.076 50.934 38.655 93.359 89.632 93.359h71.17c50.976 0 91.707-42.425 89.631-93.359z" fill="#c5c3c9"/><g fill="#423e4f"><path d="m314.224 345.936c4.143 0 7.5-3.358 7.5-7.5v-11.03c0-4.142-3.357-7.5-7.5-7.5s-7.5 3.358-7.5 7.5v11.03c0 4.142 3.358 7.5 7.5 7.5z"/><path d="m429.027 345.936c4.143 0 7.5-3.358 7.5-7.5v-11.03c0-4.142-3.357-7.5-7.5-7.5s-7.5 3.358-7.5 7.5v11.03c0 4.142 3.358 7.5 7.5 7.5z"/><path d="m405.868 345.013c0-4.142-3.357-7.5-7.5-7.5s-7.5 3.358-7.5 7.5c0 3.191-2.596 5.788-5.787 5.788s-5.788-2.596-5.788-5.788c0-4.142-3.357-7.5-7.5-7.5s-7.5 3.358-7.5 7.5c0 3.191-2.596 5.788-5.787 5.788s-5.787-2.596-5.787-5.788c0-4.142-3.357-7.5-7.5-7.5s-7.5 3.358-7.5 7.5c0 11.462 9.325 20.788 20.787 20.788 5.05 0 9.682-1.813 13.287-4.818 3.606 3.005 8.238 4.818 13.288 4.818 11.462-.001 20.787-9.326 20.787-20.788z"/></g><path d="m341.333 391.411c-4.143 0-7.5 3.357-7.5 7.5v6.146c0 6.2-5.043 11.243-11.242 11.243s-11.243-5.043-11.243-11.243v-6.146c0-4.143-3.357-7.5-7.5-7.5s-7.5 3.357-7.5 7.5v6.146c0 14.471 11.772 26.243 26.243 26.243 14.47 0 26.242-11.772 26.242-26.243v-6.146c0-4.143-3.358-7.5-7.5-7.5z" fill="#9f9bac"/><path d="m439.567 391.411c-4.143 0-7.5 3.357-7.5 7.5v6.146c0 6.2-5.044 11.243-11.243 11.243s-11.243-5.043-11.243-11.243v-6.146c0-4.143-3.357-7.5-7.5-7.5s-7.5 3.357-7.5 7.5v6.146c0 14.471 11.772 26.243 26.243 26.243s26.243-11.772 26.243-26.243v-6.146c0-4.143-3.357-7.5-7.5-7.5z" fill="#9f9bac"/><g><g><path d="m126.084 214.297c-4.143 0-7.5-3.358-7.5-7.5 0-4.506-3.666-8.172-8.173-8.172-4.506 0-8.172 3.666-8.172 8.172 0 4.142-3.357 7.5-7.5 7.5s-7.5-3.358-7.5-7.5c0-12.777 10.395-23.172 23.172-23.172s23.173 10.395 23.173 23.172c0 4.142-3.358 7.5-7.5 7.5z" fill="#423e4f"/></g><g><path d="m266.175 214.297c-4.143 0-7.5-3.358-7.5-7.5 0-4.506-3.666-8.172-8.172-8.172s-8.172 3.666-8.172 8.172c0 4.142-3.357 7.5-7.5 7.5s-7.5-3.358-7.5-7.5c0-12.777 10.395-23.172 23.172-23.172s23.172 10.395 23.172 23.172c0 4.142-3.358 7.5-7.5 7.5z" fill="#423e4f"/></g><g><path d="m180.457 240.188c-8.539 0-16.659-3.698-22.278-10.146-2.722-3.123-2.396-7.86.727-10.582 3.122-2.721 7.859-2.397 10.582.727 2.77 3.178 6.768 5.001 10.97 5.001s8.2-1.823 10.97-5.001c2.722-3.123 7.457-3.448 10.582-.727 3.122 2.721 3.448 7.459.727 10.582-5.621 6.448-13.741 10.146-22.28 10.146z" fill="#423e4f"/></g></g><path d="m269.846 356.668c0-22.008 4.36-43.041 12.297-62.352-20.527 21.231-33.601 49.771-34.893 81.483l-.759 18.637c-2.049 50.277 37.614 92.259 87.667 93.333-39.291-31.251-64.312-78.377-64.312-131.101z" fill="#b0aeba"/><g><path d="m251.911 487.795h-34.739c-22.356 0-43.375-8.707-59.183-24.515-.359-.358-.709-.725-1.051-1.099l-19.695-21.524c-12.791-13.979-11.828-35.681 2.151-48.472 13.98-12.792 35.681-11.828 48.472 2.151l19.035 20.803c2.799 2.608 6.425 4.038 10.271 4.038h34.739c18.948 0 34.309 15.36 34.309 34.309 0 18.948-15.361 34.309-34.309 34.309z" fill="#ffdcce"/></g><path d="m121.566 335.899c-33.638-38.755-54.247-90.86-54.247-148.169 0-7.259.337-14.432.983-21.507-16.786 1.56-27.668 1.621-27.669 1.621-.001.004-.002.009-.003.013-1.433-.189-2.919-.299-4.47-.299-19.971 0-36.16 16.189-36.16 36.159s16.189 36.16 36.159 36.16c1.573 0 3.078-.112 4.53-.307 11.002 42.894 41.227 78.292 80.877 96.329z" fill="#ffcabd"/><path d="m107.144 394.112c0-20.871 4.117-40.732 11.535-58.75-5.509 4.853-46.36 44.476-46.36 152.432h66.599c-19.86-25.549-31.774-58.155-31.774-93.682z" fill="#ff88ca"/></g></svg>