<svg id="Capa_1" enable-background="new 0 0 497 497" height="512" viewBox="0 0 497 497" width="512" xmlns="http://www.w3.org/2000/svg"><g><path d="m206.633 353.294h83.734v117.733h-83.734z" fill="#b2b0bc"/><path d="m497 61.987v224.336l-248.5 33.416-248.5-33.416v-224.336c0-31.478 25.522-57 57-57h383c31.478 0 57 25.522 57 57z" fill="#5c586f"/><path d="m86.353 218.327c0-83.031 33.163-158.304 86.947-213.34h-116.3c-31.478 0-57 25.522-57 57v224.336l97.257 13.078c-7.095-25.82-10.904-53.001-10.904-81.074z" fill="#4f4c5f"/><path d="m60.36 65.35h376.28v254.389h-376.28z" fill="#80dfb5"/><path d="m206.633 353.294h83.734v56.807h-83.734z" fill="#9f9bac"/><path d="m497 286.323v36.779c0 31.477-25.522 56.999-57 56.999h-383c-31.478 0-57-25.522-57-56.999v-36.779z" fill="#c7c5cb"/><circle cx="248.5" cy="35.168" fill="#80dfb5" r="7.617"/><path d="m332.893 129.479v74.131l-84.393 23.022-84.393-23.022v-74.131z" fill="#4f4c5f"/><path d="m130.768 129.479v111.15c0 9.206 7.463 16.67 16.67 16.67 9.206 0 16.67-7.463 16.67-16.67v-111.15z" fill="#f9ed80"/><path d="m187.129 152.066c0-7.733.702-15.285 2.031-22.587h-25.054v74.132l39.867 10.875c-10.647-17.946-16.844-39.385-16.844-62.42z" fill="#423e4f"/><path d="m357.51 101.609h-218.02c-13.046 0-23.622 10.576-23.622 23.622v8.494c0 13.046 10.576 23.622 23.622 23.622h218.02c13.046 0 23.622-10.576 23.622-23.622v-8.494c0-13.046-10.576-23.622-23.622-23.622z" fill="#5c586f"/><path d="m332.893 203.61v18.852c0 15.019-12.162 27.192-27.182 27.192h-114.422c-15.019 0-27.182-12.173-27.182-27.192v-18.852z" fill="#ff748f"/><circle cx="248.5" cy="333.212" fill="#5c586f" r="20.082"/><path d="m311.034 436.419h-125.068c-17.628 0-31.919 14.291-31.919 31.919 0 13.076 10.6 23.675 23.675 23.675h141.555c13.075 0 23.675-10.6 23.675-23.675.001-17.629-14.29-31.919-31.918-31.919z" fill="#c7c5cb"/><path d="m86.353 218.327c0-55.747 14.952-107.997 41.05-152.978h-67.043v254.389h43.265c-11.174-31.732-17.272-65.857-17.272-101.411z" fill="#36d39a"/><path d="m93.963 286.323h-93.963v36.779c0 31.478 25.522 57 57 57h75.718c-17.818-28.457-31.082-60.052-38.755-93.779z" fill="#b2b0bc"/><path d="m194.107 446.692c0-3.499.371-6.928 1.057-10.273h-9.198c-17.628 0-31.919 14.291-31.919 31.919 0 13.075 10.6 23.675 23.675 23.675h40.306c-14.769-11.567-23.921-27.599-23.921-45.321z" fill="#b2b0bc"/><path d="m187.129 152.066c0-18.113 3.834-35.238 10.647-50.457h-58.286c-13.046 0-23.622 10.576-23.622 23.622v8.494c0 13.046 10.576 23.622 23.622 23.622h47.753c-.072-1.751-.114-3.511-.114-5.281z" fill="#4f4c5f"/><path d="m198.268 203.61h-34.16v18.852c0 15.02 12.162 27.192 27.182 27.192h45.599c-16.447-11.065-29.877-27.027-38.621-46.044z" fill="#fd5f7e"/></g></svg>