<svg id="Capa_1" enable-background="new 0 0 497 497" height="512" viewBox="0 0 497 497" width="512" xmlns="http://www.w3.org/2000/svg"><g><path d="m248.5 0c-23.349 0-42.276 18.928-42.276 42.276v52.306h84.552v-52.306c0-23.348-18.927-42.276-42.276-42.276z" fill="#78cbec"/><path d="m234.66 41.839c0-15.836 6.312-30.363 16.823-41.723-.986-.068-1.979-.116-2.983-.116-23.348 0-42.276 18.927-42.276 42.276v52.306h58.248c-18.099-12.011-29.812-31.165-29.812-52.743z" fill="#34b5e1"/><path d="m248.5 49.281c-106.855 0-193.478 86.623-193.478 193.478v209.566h386.955v-209.566c.001-106.855-86.622-193.478-193.477-193.478z" fill="#c1e9fa"/><path d="m83.933 302.548c0-93.095 47.632-186.87 121.459-248.439-86.104 19.593-150.37 96.614-150.37 188.651v209.566h74.196c-28.719-43.608-45.285-94.892-45.285-149.778z" fill="#90d3f1"/><path d="m475.366 468.736-4.6-20.652c-5.262-23.628-26.224-40.434-50.43-40.434h-343.672c-24.207 0-45.168 16.806-50.43 40.434l-4.6 20.652c-3.23 14.502 7.804 28.264 22.662 28.264h408.409c14.857 0 25.891-13.762 22.661-28.264z" fill="#78cbec"/><path d="m344.371 231.721c-11.667-5.157-17.224-18.569-12.624-30.467l.019-.05c7.48-19.345-11.553-38.378-30.898-30.898l-.051.02c-11.897 4.6-25.309-.958-30.466-12.624-8.388-18.975-35.314-18.975-43.701 0-5.157 11.666-18.569 17.224-30.466 12.624l-.05-.019c-19.345-7.48-38.378 11.553-30.899 30.898l.02.05c4.6 11.897-.958 25.309-12.624 30.466h-.001c-18.975 8.388-18.975 35.314 0 43.702 11.666 5.157 17.224 18.569 12.624 30.466l-.019.05c-7.48 19.345 11.553 38.378 30.898 30.899l.051-.02c11.897-4.6 25.309.957 30.466 12.624 8.388 18.975 35.314 18.975 43.701 0 5.157-11.666 18.569-17.224 30.467-12.624l.05.019c19.345 7.48 38.378-11.553 30.898-30.898l-.019-.051c-4.6-11.897.957-25.309 12.624-30.466h.001c18.974-8.387 18.974-35.313-.001-43.701z" fill="#ff748f"/><g fill="#ff9db0"><circle cx="147.732" cy="345.459" r="33.26"/><circle cx="341.76" cy="159.743" r="26.792"/><circle cx="383.311" cy="317.6" r="20.801"/><circle cx="172.091" cy="120.733" r="18.865"/></g><g fill="#423e4f"><path d="m229.182 261.033c-2.721 3.123-2.396 7.86.727 10.582 3.121 2.721 7.86 2.396 10.582-.728 4.245-4.87 11.78-4.864 16.02 0 2.721 3.123 7.459 3.449 10.582.728 3.123-2.722 3.448-7.459.727-10.582-10.224-11.731-28.427-11.717-38.638 0z"/><path d="m208.424 239.29-19.973-5.352c-3.996-1.07-8.113 1.302-9.186 5.304-1.072 4.001 1.303 8.113 5.304 9.186l4.686 1.255c-.155 1.087-.052.806-.085 9.671 0 4.142 3.358 7.5 7.5 7.5s7.5-3.358 7.5-7.5v-5.674l.371.1c3.999 1.069 8.112-1.299 9.186-5.304 1.072-4.001-1.302-8.113-5.303-9.186z"/><path d="m317.735 239.242c-1.072-4.001-5.186-6.376-9.186-5.304l-19.973 5.352c-4.001 1.072-6.375 5.185-5.304 9.186.898 3.351 3.928 5.561 7.24 5.561 1.24 0 2.095-.31 2.317-.357v5.674c0 4.142 3.358 7.5 7.5 7.5s7.5-3.358 7.5-7.5c-.033-8.81.071-8.58-.085-9.671l4.686-1.255c4.002-1.072 6.377-5.185 5.305-9.186z"/></g><path d="m105.27 407.65h-28.606c-24.207 0-45.168 16.806-50.43 40.434l-4.6 20.652c-3.23 14.502 7.804 28.264 22.662 28.264h121.221c-25.599-25.853-46.171-56.079-60.247-89.35z" fill="#34b5e1"/><path d="m174.808 231.466c0-22.616 6.302-43.862 17.354-62.323-17.862-3.69-33.894 14.044-26.928 32.061l.02.051c4.6 11.897-.957 25.309-12.624 30.466-18.975 8.388-18.975 35.313 0 43.702 11.666 5.157 17.224 18.569 12.624 30.466l-.019.05c-7.48 19.346 11.553 38.378 30.898 30.899l.051-.02c11.897-4.6 25.309.958 30.466 12.624 7.813 17.675 31.704 18.878 41.721 3.625-54.432-17.311-93.563-65.213-93.563-121.601z" fill="#fd5f7e"/></g></svg>