<svg id="Capa_1" enable-background="new 0 0 497 497" height="512" viewBox="0 0 497 497" width="512" xmlns="http://www.w3.org/2000/svg"><g><path d="m416.209 67.654h-335.418c-29.84 0-54.029 24.19-54.029 54.029v295.171h443.476v-295.17c0-29.84-24.19-54.03-54.029-54.03z" fill="#5c586f"/><path d="m89.071 149.949h318.857v266.906h-318.857z" fill="#78cbec"/><path d="m366.005 391.946-40.378 24.908-45.391-24.908-31.736-53.378 31.736-65.196h32.266s53.503 45.693 53.503 118.574z" fill="#fff"/><path d="m216.764 273.372 31.736 65.196-31.736 53.379-42.884 24.908-42.884-24.908c0-72.881 53.503-118.575 53.503-118.575z" fill="#fff"/><path d="m216.764 273.372h63.472v118.575h-63.472z" fill="#80dfb5"/><path d="m184.498 391.946h-157.736c-14.778 0-26.762 11.985-26.762 26.762v12.4c0 33.398 27.073 60.471 60.461 60.471h376.078c33.387 0 60.461-27.073 60.461-60.471v-12.4c0-14.778-11.984-26.762-26.762-26.762h-157.736z" fill="#c7c5cb"/><circle cx="385.944" cy="167.799" fill="#ffcabd" r="38.758"/><path d="m118.398 91.065s0 0-.01 0c21.694-50.377 71.78-85.644 130.112-85.644s108.418 35.267 130.112 85.644l-130.112 43.851z" fill="#ff9e8e"/><path d="m232.49 6.319c-51.373 5.781-94.421 39.044-114.102 84.746h.01l34.647 11.678c12.936-39.759 41.486-73.717 79.445-96.424z" fill="#fb8978"/><path d="m390.098 147.029c0 78.198-63.389 141.598-141.598 141.598s-141.598-63.4-141.598-141.598c0-19.877 4.092-38.798 11.486-55.964h.01c138.971-43.388 122.355 51.146 260.204 0h.01c7.394 17.166 11.486 36.088 11.486 55.964z" fill="#ffdcce"/><path d="m312.502 391.946v17.717c0 17.727-14.373 32.1-32.1 32.1h-63.805c-17.727 0-32.1-14.373-32.1-32.1v-17.717z" fill="#b2b0bc"/><path d="m216.786 285.059c-43.628-32.056-71.389-80.252-71.389-134.154 0-24.875 5.924-48.531 16.578-69.952-12.667 1.733-27.015 4.941-43.577 10.112 0 0 0 0-.01 0-5.144 11.942-8.684 24.734-10.366 38.105-19.986 1.549-35.724 18.245-35.724 38.629 0 21.405 17.353 38.758 38.758 38.758 3.028 0 5.846-.358 8.468-1.015 18.033 39.685 53.84 69.582 97.262 79.517z" fill="#ffcabd"/><g><g><g><ellipse cx="165.881" cy="185.78" fill="#ff889e" rx="30.485" ry="24.276"/></g><g><ellipse cx="331.119" cy="185.78" fill="#ff889e" rx="30.485" ry="24.276"/></g></g></g><g><path d="m183.648 169.911c-4.142 0-7.5-3.358-7.5-7.5v-12.462c0-4.142 3.358-7.5 7.5-7.5s7.5 3.358 7.5 7.5v12.462c0 4.142-3.358 7.5-7.5 7.5z" fill="#423e4f"/></g><g><path d="m313.353 169.911c-4.143 0-7.5-3.358-7.5-7.5v-12.462c0-4.142 3.357-7.5 7.5-7.5s7.5 3.358 7.5 7.5v12.462c0 4.142-3.358 7.5-7.5 7.5z" fill="#423e4f"/></g><g><path d="m248.5 177.329c-8.721 0-17.014-3.777-22.752-10.362-2.721-3.123-2.396-7.86.727-10.582 3.123-2.721 7.861-2.396 10.582.727 2.889 3.315 7.06 5.217 11.444 5.217 4.383 0 8.554-1.901 11.443-5.217 2.721-3.123 7.458-3.448 10.582-.727 3.123 2.721 3.448 7.459.727 10.582-5.74 6.585-14.032 10.362-22.753 10.362z" fill="#423e4f"/></g><path d="m332.27 337.956h-5.976v-5.976c0-4.143-3.357-7.5-7.5-7.5s-7.5 3.357-7.5 7.5v5.976h-5.976c-4.143 0-7.5 3.358-7.5 7.5s3.357 7.5 7.5 7.5h5.976v5.976c0 4.143 3.357 7.5 7.5 7.5s7.5-3.357 7.5-7.5v-5.976h5.976c4.143 0 7.5-3.358 7.5-7.5s-3.358-7.5-7.5-7.5z" fill="#ff748f"/><path d="m56.716 391.947h-29.954c-14.778 0-26.762 11.984-26.762 26.761v12.399c0 33.398 27.073 60.471 60.461 60.471h54.741c-28.702-28.19-49.212-62.225-58.486-99.631z" fill="#b2b0bc"/></g></svg>