<svg id="Capa_1" enable-background="new 0 0 497 497" height="512" viewBox="0 0 497 497" width="512" xmlns="http://www.w3.org/2000/svg"><g><path d="m29.49 97.486h438.02v351.224h-438.02z" fill="#78cbec"/><path d="m69.739 211.644c0-40.276 6.183-78.776 17.434-114.158h-57.683v351.224h128.299c-53.94-57.546-88.05-142.411-88.05-237.066z" fill="#34b5e1"/><path d="m0 97.486v13.512c0 27.449 22.251 49.7 49.7 49.7 27.449 0 49.7-22.251 49.7-49.7v-13.512l-49.7-47.288z" fill="#c1e9fa"/><path d="m198.8 97.486v13.512c0 27.449 22.251 49.7 49.7 49.7 27.449 0 49.7-22.251 49.7-49.7v-13.512l-49.7-47.287z" fill="#c1e9fa"/><path d="m397.6 97.486v13.512c0 27.449 22.251 49.7 49.7 49.7 27.449 0 49.7-22.251 49.7-49.7v-13.512l-49.7-47.287z" fill="#c1e9fa"/><g fill="#90d3f1"><path d="m65.864 65.578-16.164-15.38-49.7 47.288v13.512c0 24.701 18.023 45.184 41.634 49.039 4.257-33.257 12.533-64.975 24.23-94.459z"/><path d="m34.108 2.911c-18.837 0-34.108 15.271-34.108 34.108v60.467h99.4l49.7-47.287-49.7-47.288z"/><path d="m298.2 2.911h-99.4l-49.7 47.287 49.7 47.288h99.4l49.7-47.288z"/><path d="m462.892 2.911h-65.292l-49.7 47.287 49.7 47.287h99.4v-60.466c0-18.837-15.271-34.108-34.108-34.108z"/></g><path d="m99.4 97.486v13.512c0 27.449 22.251 49.7 49.7 49.7 27.449 0 49.7-22.251 49.7-49.7v-13.512l-49.7-47.287z" fill="#ffb3dd"/><path d="m298.2 97.486v13.512c0 27.449 22.251 49.7 49.7 49.7 27.449 0 49.7-22.251 49.7-49.7v-13.512l-49.7-47.287z" fill="#ffb3dd"/><path d="m99.4 2.911h99.4v94.575h-99.4z" fill="#ff9dd3"/><path d="m298.2 2.911h99.4v94.575h-99.4z" fill="#ff9dd3"/><path d="m467.51 403.331h-438.02c-13.573 0-24.576 11.003-24.576 24.576v41.607c0 13.573 11.003 24.576 24.576 24.576h438.02c13.573 0 24.576-11.003 24.576-24.576v-41.607c0-13.573-11.003-24.576-24.576-24.576z" fill="#ffb3dd"/><path d="m467.51 215.296h-438.02c-13.573 0-24.576 11.003-24.576 24.576v81.607c0 13.573 11.003 24.576 24.576 24.576h438.02c13.573 0 24.576-11.003 24.576-24.576v-81.607c0-13.573-11.003-24.576-24.576-24.576z" fill="#c1e9fa"/><g fill="#fff"><path d="m153.57 305.684c-5.281.03-10.951.051-15.264.055v-57.627c0-4.142-3.357-7.5-7.5-7.5s-7.5 3.358-7.5 7.5v65.072c0 3.653 2.631 6.774 6.231 7.392 1.697.291 20.754.126 24.116.107 4.142-.022 7.481-3.399 7.458-7.542-.022-4.052-3.282-7.457-7.541-7.457z"/><path d="m373.215 256.206c4.143 0 7.5-3.357 7.5-7.5 0-4.142-3.357-7.5-7.5-7.5h-27.191c-4.143 0-7.5 3.358-7.5 7.5v64.533c0 4.142 3.357 7.5 7.5 7.5h27.191c4.143 0 7.5-3.358 7.5-7.5 0-4.143-3.357-7.5-7.5-7.5h-19.691v-17.267h17.687c4.143 0 7.5-3.358 7.5-7.5s-3.357-7.5-7.5-7.5h-17.687v-17.267h19.691z"/><path d="m428.278 242.538h-17.9c-4.075 0-7.511 3.28-7.5 7.564.164 62.987-.225 61.776.152 63.621.259 3.998 3.564 7.017 7.476 7.017 1.98 0 14.164-.066 18.427-.141 42.729-.748 43.948-78.061-.655-78.061zm.393 63.063c-2.448.042-6.837.077-10.69.1-.078-23.75-.038-19.219-.089-48.163h10.387c13.287 0 18.021 12.45 18.021 24.101 0 16.339-8.855 23.808-17.629 23.962z"/><path d="m101.096 298.298c-3.174-2.661-7.905-2.243-10.565.931-3.808 4.543-8.956 6.51-14.767 6.51-13.82 0-25.063-11.244-25.063-25.064s11.243-25.063 25.063-25.063c5.023 0 9.867 1.479 14.009 4.276 3.432 2.318 8.094 1.416 10.413-2.016 2.318-3.432 1.416-8.094-2.017-10.414-6.63-4.479-14.378-6.846-22.405-6.846-22.091 0-40.063 17.972-40.063 40.063s17.973 40.064 40.063 40.064c10.698 0 19.882-4.258 26.263-11.875 2.66-3.175 2.243-7.905-.931-10.566z"/><path d="m296.949 274.152c-8.107-2.99-15.646-6.25-17.846-7.213-3.328-2.584-2.603-8.714 3.735-10.624 9.521-2.867 18.282 4.074 18.514 4.261 3.17 2.632 7.877 2.215 10.532-.944 2.665-3.171 2.256-7.902-.915-10.567-.604-.507-14.99-12.374-32.457-7.112-18.696 5.632-21.756 28.347-7.201 37.835 2.032 1.324 16.798 7.091 20.446 8.437 16.196 5.97 7.661 17.514-3.06 17.514-6.65 0-13.058-2.688-17.138-7.191-2.783-3.07-7.524-3.301-10.595-.521-3.068 2.782-3.302 7.525-.521 10.594 6.877 7.587 17.439 12.118 28.253 12.118 13.414 0 24.675-8.536 26.774-20.297 1.578-8.825-2.46-20.366-18.521-26.29z"/><path d="m209.68 240.612c-22.092 0-40.064 17.972-40.064 40.063s17.973 40.064 40.064 40.064 40.063-17.973 40.063-40.064-17.973-40.063-40.063-40.063zm0 65.127c-13.82 0-25.064-11.244-25.064-25.064s11.244-25.063 25.064-25.063 25.063 11.244 25.063 25.063-11.243 25.064-25.063 25.064z"/></g><path d="m97.961 2.911h-63.853c-18.837 0-34.108 15.271-34.108 34.108v60.466h54.819c10.202-34.277 24.851-66.117 43.142-94.574z" fill="#78cbec"/><path d="m122.927 403.331h-93.437c-13.573 0-24.576 11.003-24.576 24.576v41.607c0 13.573 11.003 24.576 24.576 24.576h184.205c-35.695-21.312-66.736-52.539-90.768-90.759z" fill="#ff9dd3"/></g></svg>