<svg id="Capa_1" enable-background="new 0 0 497 497" height="512" viewBox="0 0 497 497" width="512" xmlns="http://www.w3.org/2000/svg"><g><path d="m34.287 214.213c0-118.118 96.095-214.213 214.213-214.213 118.117 0 214.213 96.095 214.213 214.213z" fill="#5c586f"/><g><path d="m464.404 199.452c3.138 7.067 4.895 14.882 4.895 23.112 0 31.494-25.531 57.024-57.024 57.024-19.98 0-37.549-10.284-47.732-25.839l28.733-36.067z" fill="#c5836a"/></g><path d="m102.1 210.426c0-96.391 63.778-178.572 153.293-210.303-2.29-.073-4.586-.123-6.893-.123-118.118 0-214.213 96.096-214.213 214.213h67.864c-.023-1.261-.051-2.521-.051-3.787z" fill="#4f4c5f"/><path d="m324.721 497h-152.442l-55.081-48.804c13.451-56.689 47.475-76.768 47.475-76.768h167.656s34.024 20.078 47.475 76.768z" fill="#f7eb7f"/><circle cx="248.5" cy="392.352" fill="#d89b80" r="42.002"/><path d="m376.96 90.818c-5.948-6.189-16.03-5.098-20.624 2.154-7.934 12.526-21.911 20.843-37.837 20.843-10.132 0-19.474-3.369-26.974-9.046-4.769-3.609-11.282-3.609-16.051 0-7.5 5.676-16.842 9.046-26.974 9.046s-19.474-3.369-26.974-9.046c-4.769-3.609-11.282-3.609-16.051 0-7.5 5.676-16.842 9.046-26.974 9.046-15.926 0-29.903-8.317-37.837-20.843-4.593-7.252-14.676-8.343-20.624-2.154-30.763 32.011-49.678 75.49-49.678 123.395 0 68.079 38.188 127.231 94.31 157.215h167.656c56.122-29.983 94.31-89.136 94.31-157.215 0-47.905-18.915-91.384-49.678-123.395z" fill="#d89b80"/><path d="m465.288 179.188c-5.176-10.141-17.592-14.166-27.732-8.99l-118.552 60.507 18.742 36.722 118.552-60.506c10.141-5.177 14.166-17.593 8.99-27.733z" fill="#d8d8d8"/><path d="m149.886 467.229c0-38.12 18.456-72.343 47.733-95.8h-32.947s-34.024 20.078-47.475 76.768l33.15 29.372c-.302-3.412-.461-6.86-.461-10.34z" fill="#fccb88"/><path d="m102.1 210.426c0-44.139 13.381-85.293 36.473-119.995-5.099-4.864-13.371-4.984-18.534.388-30.763 32.011-49.678 75.49-49.678 123.395 0 .667.028 1.329.035 1.994l-37.8-16.756c-3.138 7.067-4.895 14.882-4.895 23.112 0 30.827 24.464 55.924 55.034 56.974 15.572 39.479 44.828 72.064 81.937 91.89h8.909c-44.078-40.767-71.481-97.829-71.481-161.002z" fill="#c5836a"/><path d="m31.712 179.188c5.176-10.141 17.592-14.166 27.732-8.99l118.552 60.507-18.742 36.722-118.552-60.507c-10.141-5.176-14.166-17.592-8.99-27.732z" fill="#d8d8d8"/><path d="m369.939 279.066c-9.338 71.222-36.621 91.641-37.611 92.362-.021.01-.031.021-.031.021-24.974 13.337-53.504 20.903-83.797 20.903s-58.823-7.565-83.797-20.903c0 0-.01-.01-.031-.021-.989-.721-28.272-21.14-37.611-92.362-2.278-17.398 3.803-34.879 16.347-47.155 20.645-20.202 57.349-47.464 105.092-47.464s84.446 27.262 105.092 47.464c12.543 12.275 18.625 29.756 16.347 47.155z" fill="#5c586f"/><g><path d="m300.764 295.899h-104.528c-4.143 0-7.5-3.358-7.5-7.5s3.357-7.5 7.5-7.5h104.528c4.143 0 7.5 3.358 7.5 7.5s-3.357 7.5-7.5 7.5z" fill="#423e4f"/></g><g><path d="m189.247 253.853c-1.505-3.859.402-8.208 4.261-9.713 15.22-5.938 34.749-9.208 54.992-9.208s39.772 3.27 54.991 9.209c3.858 1.506 5.766 5.854 4.261 9.713-1.505 3.858-5.854 5.767-9.714 4.26-13.522-5.276-31.115-8.182-49.538-8.182s-36.016 2.906-49.539 8.183c-3.866 1.507-8.211-.41-9.714-4.262z" fill="#423e4f"/></g><g><path d="m248.5 341.866c-20.243 0-39.772-3.27-54.992-9.208-3.858-1.506-5.766-5.854-4.261-9.713 1.506-3.859 5.853-5.766 9.714-4.261 13.523 5.277 31.116 8.183 49.539 8.183s36.016-2.906 49.538-8.182c3.859-1.507 8.209.402 9.714 4.26s-.402 8.208-4.261 9.713c-15.218 5.938-34.748 9.208-54.991 9.208z" fill="#423e4f"/></g><g><g><path d="m157.123 189.969c-4.143 0-7.5-3.358-7.5-7.5v-17.559c0-4.142 3.357-7.5 7.5-7.5s7.5 3.358 7.5 7.5v17.559c0 4.142-3.357 7.5-7.5 7.5z" fill="#423e4f"/></g><g><path d="m339.876 189.969c-4.143 0-7.5-3.358-7.5-7.5v-17.559c0-4.142 3.357-7.5 7.5-7.5s7.5 3.358 7.5 7.5v17.559c0 4.142-3.357 7.5-7.5 7.5z" fill="#423e4f"/></g></g><path d="m172.279 448.196v48.804h-60.462c0-18.656 2.061-34.838 5.38-48.804z" fill="#d89b80"/><path d="m385.183 497h-60.462v-48.804h55.081c3.32 13.966 5.381 30.148 5.381 48.804z" fill="#d89b80"/><path d="m102.1 210.426c0-6.083.263-12.107.761-18.068l-43.417-22.16c-10.141-5.176-22.557-1.151-27.732 8.99-5.175 10.141-1.151 22.557 8.99 27.732l63.324 32.319c-1.269-9.434-1.926-19.051-1.926-28.813z" fill="#cacac8"/><path d="m149.886 467.229c0-6.468.536-12.822 1.562-19.033h-34.25c-3.319 13.966-5.38 30.148-5.38 48.804h41.931c-2.521-9.554-3.863-19.521-3.863-29.771z" fill="#c5836a"/></g></svg>