<svg id="Capa_1" enable-background="new 0 0 497 497" height="512" viewBox="0 0 497 497" width="512" xmlns="http://www.w3.org/2000/svg"><g><path d="m97.374 84.768c-1.829-1.779-4.737-1.779-6.566 0-65.441 63.642-47.835 120.482 3.283 120.482 51.119 0 68.724-56.84 3.283-120.482z" fill="#80dfb5"/><path d="m387.884 0h-193.604c-20.413 0-40.546 4.753-58.804 13.883l-13.886 6.944c-8.791 4.396-12.184 15.206-7.482 23.837l9.656 17.726c3.68 6.755 11.365 10.284 18.886 8.672l17.04-3.651c18.086-3.876 36.657 4.032 46.397 19.757l14.888 24.036 56.082 44.374 56.082-44.374c9.744-38.952 36.203-47.682 55.489-48.53 12.234-.538 21.954-10.437 21.954-22.683v-17.296c-.003-12.534-10.163-22.695-22.698-22.695z" fill="#78cbec"/><path d="m372.78 199.952-95.725-23.926-95.725 23.926c-45.739 38.055-75.826 102.611-75.826 175.847 0 20.396 2.335 39.49 6.692 57.119 9.329 37.748 43.483 64.082 82.367 64.082h164.985c38.883 0 73.038-26.334 82.367-64.082 4.357-17.629 6.692-36.723 6.692-57.119 0-73.236-30.087-137.792-75.827-175.847z" fill="#78cbec"/><path d="m192.333 263.259c0-24.479.973-46.663 2.85-66.77l-13.853 3.462c-45.739 38.056-75.826 102.611-75.826 175.848 0 20.396 2.335 39.49 6.692 57.119 9.329 37.748 43.483 64.082 82.367 64.082h87.298c-55.053-50.572-89.528-140.691-89.528-233.741z" fill="#34b5e1"/><path d="m333.137 111.203h-112.163c-21.895 0-39.644 17.749-39.644 39.644v49.105h191.45v-49.105c0-21.895-17.749-39.644-39.643-39.644z" fill="#c1e9fa"/><g><g><path d="m216.269 167.16c-4.142 0-7.5-3.358-7.5-7.5v-11.681c0-4.142 3.358-7.5 7.5-7.5s7.5 3.358 7.5 7.5v11.681c0 4.142-3.357 7.5-7.5 7.5z" fill="#423e4f"/></g><g><path d="m337.841 167.16c-4.142 0-7.5-3.358-7.5-7.5v-11.681c0-4.142 3.358-7.5 7.5-7.5s7.5 3.358 7.5 7.5v11.681c0 4.142-3.358 7.5-7.5 7.5z" fill="#423e4f"/></g><g><path d="m277.055 174.113c-8.31 0-16.211-3.599-21.68-9.873-2.721-3.123-2.396-7.86.727-10.582 3.122-2.721 7.86-2.396 10.582.726 2.619 3.005 6.4 4.729 10.372 4.729 3.973 0 7.753-1.723 10.372-4.728 2.721-3.123 7.459-3.449 10.582-.727 3.123 2.721 3.448 7.459.727 10.582-5.47 6.274-13.372 9.873-21.682 9.873z" fill="#423e4f"/></g></g><path d="m352.006 259.752h-149.902c-19.005 0-34.412 15.407-34.412 34.412v113.034c0 19.005 15.407 34.412 34.412 34.412h149.902c19.005 0 34.412-15.407 34.412-34.412v-113.034c0-19.005-15.407-34.412-34.412-34.412z" fill="#fff"/><path d="m323.546 330.276h-26.086v-26.085c0-6.695-5.428-12.123-12.123-12.123h-16.563c-6.695 0-12.123 5.428-12.123 12.123v26.085h-26.085c-6.695 0-12.123 5.428-12.123 12.123v16.563c0 6.695 5.428 12.123 12.123 12.123h26.085v26.086c0 6.695 5.428 12.123 12.123 12.123h16.563c6.695 0 12.123-5.428 12.123-12.123v-26.086h26.086c6.695 0 12.123-5.428 12.123-12.123v-16.563c0-6.695-5.428-12.123-12.123-12.123z" fill="#ff748f"/><path d="m211.837 112.273c-17.488 4.127-30.507 19.825-30.507 38.574v49.104h13.542c3.06-35.106 8.827-63.98 16.965-87.678z" fill="#a7e0f5"/><path d="m192.333 263.259c0-.702.004-1.394.006-2.093-14.247 4.21-24.646 17.386-24.646 32.998v113.034c0 19.005 15.407 34.412 34.412 34.412h36.039c-28.952-49.68-45.811-113.296-45.811-178.351z" fill="#e5e5e5"/><path d="m233.055 0h-38.775c-20.413 0-40.546 4.753-58.804 13.883l-13.886 6.943c-8.791 4.396-12.184 15.206-7.482 23.837l9.656 17.726c3.68 6.755 11.365 10.284 18.886 8.672l17.04-3.651c12.33-2.642 24.882.196 34.71 7.25 2.351-28.919 16.636-55.009 38.655-74.66z" fill="#34b5e1"/><path d="m74.96 122.987c0-9.157 1.523-17.939 4.298-26.1-51.495 58.564-33.014 108.363 14.833 108.363 12.157 0 22.413-3.221 30.113-8.978-28.708-10.794-49.244-39.526-49.244-73.285z" fill="#36d39a"/></g></svg>