<svg id="Capa_1" enable-background="new 0 0 497 497" height="512" viewBox="0 0 497 497" width="512" xmlns="http://www.w3.org/2000/svg"><g><path d="m400.202 114.812c-9.886-9.886-25.914-9.886-35.799 0 9.886-9.886 9.886-25.914 0-35.799-9.886-9.886-25.914-9.886-35.799 0 9.886-9.886 9.886-25.914 0-35.799-9.886-9.886-25.914-9.886-35.799 0 9.886-9.886 9.886-25.914 0-35.799s-25.914-9.886-35.799 0l-132.94 132.938 54.313 88.884 88.884 54.313 132.939-132.938c9.886-9.886 9.886-25.914 0-35.8z" fill="#78cbec"/><path d="m292.804 7.414c-9.886-9.886-25.914-9.886-35.799 0l-33.737 33.737v-3.534c0-13.98-11.333-25.314-25.314-25.314-13.98 0-25.314 11.333-25.314 25.314v54.162l-48.574 48.574 19.193 31.409c15.412-30.782 38.008-62.221 66.887-91.1 27.916-27.917 58.226-49.97 88.021-65.33-1.233-2.876-3.016-5.571-5.363-7.918z" fill="#34b5e1"/><path d="m267.263 283.55-143.197-143.197c-6.605-6.604-17.313-6.604-23.918 0l-17.597 17.597c-6.605 6.604-6.605 17.313 0 23.918l143.197 143.197c6.605 6.605 17.313 6.605 23.918 0l17.597-17.597c6.605-6.604 6.605-17.313 0-23.918z" fill="#c1e9fa"/><path d="m235.055 204.598c0-13.98-11.333-25.314-25.314-25.314-13.98 0-25.314 11.333-25.314 25.314v60.97h50.628z" fill="#a7e0f5"/><path d="m411.989 281.793c-9.886-9.886-25.914-9.886-35.799 0 9.886-9.886 9.886-25.914 0-35.799s-25.914-9.886-35.799 0c9.886-9.886 9.886-25.914 0-35.799-9.886-9.886-25.914-9.886-35.799 0 9.886-9.886 9.886-25.914 0-35.799-9.886-9.886-25.914-9.886-35.799 0l-132.94 132.938 54.313 88.884 88.884 54.313 132.939-132.939c9.885-9.885 9.885-25.913 0-35.799z" fill="#c1e9fa"/><path d="m279.05 450.531-143.197-143.197c-6.605-6.605-17.313-6.605-23.918 0l-17.597 17.597c-6.605 6.605-6.605 17.313 0 23.918l143.197 143.197c6.605 6.605 17.313 6.605 23.918 0l17.597-17.597c6.605-6.605 6.605-17.313 0-23.918z" fill="#78cbec"/><path d="m147.437 163.723-23.37-23.371c-6.605-6.604-17.313-6.604-23.918 0l-17.598 17.598c-6.605 6.604-6.605 17.313 0 23.918l41.487 41.487c4.534-19.099 12.421-39.282 23.399-59.632z" fill="#a7e0f5"/><path d="m304.591 174.396c-9.886-9.886-25.914-9.886-35.799 0l-33.737 33.737v-3.534c0-13.98-11.333-25.314-25.314-25.314-13.98 0-25.314 11.333-25.314 25.314v54.162l-48.574 48.574 19.193 31.409c15.412-30.782 38.008-62.221 66.887-91.1 27.916-27.917 58.226-49.97 88.021-65.33-1.233-2.876-3.016-5.572-5.363-7.918z" fill="#a7e0f5"/><path d="m159.224 330.705-23.37-23.371c-6.605-6.604-17.313-6.604-23.918 0l-17.597 17.598c-6.605 6.604-6.605 17.313 0 23.918l41.487 41.487c4.533-19.1 12.419-39.283 23.398-59.632z" fill="#34b5e1"/></g></svg>