<svg id="Capa_1" enable-background="new 0 0 497 497" height="512" viewBox="0 0 497 497" width="512" xmlns="http://www.w3.org/2000/svg"><g><path d="m433.098 224.856c-9.461-6.594-14.165-17.732-12.132-28.726 3.699-20.002-9.039-38.79-30.787-38.014-15.75.561-27.378-8.753-33.045-23.145-6.475-16.444-26.583-23.809-42.965-15.737-15.281 7.53-30.736 4.902-42.935-7.827-12.205-12.735-33.264-12.736-45.47-.001-11.723 12.231-26.951 15.705-42.935 7.829-16.382-8.072-36.491-.706-42.968 15.745-5.418 13.762-15.883 23.748-31.62 23.186-18.857-.672-36.588 14.277-32.882 34.317 2.335 12.624-.368 24.644-11.458 32.374-16.797 11.707-16.797 35.581-.001 47.288 10.931 7.619 13.761 19.921 11.458 32.378-3.399 18.38 11.874 35.061 31.462 34.363 0 0 1.418-.051 1.421-.051 15.669-.559 26.238 9.518 31.624 23.196 6.475 16.444 26.584 23.809 42.965 15.737 15.539-7.657 30.818-4.816 42.935 7.827 12.205 12.735 33.264 12.736 45.47 0 10.602-11.061 25.149-16.593 39.836-9.356 16.35 8.056 38.496 5.01 46.064-14.211 5.689-14.45 16.805-23.721 33.043-23.142 19.588.698 34.861-15.983 31.463-34.362-2.278-12.318.285-24.592 11.458-32.378 16.797-11.708 16.797-35.584-.001-47.29z" fill="#80dfb5"/><path d="m111.755 200.514c0-14.499.973-28.757 2.82-42.728-2.008.321-4.117.458-6.334.379-18.857-.672-36.588 14.277-32.882 34.316 2.335 12.625-.368 24.644-11.458 32.374-16.797 11.707-16.797 35.582-.001 47.288 10.931 7.619 13.761 19.921 11.458 32.378-3.399 18.38 11.874 35.061 31.462 34.363 0 0 1.418-.051 1.421-.051 15.669-.559 26.238 9.518 31.624 23.196 4.887 12.41 17.538 19.644 30.493 18.979-37.122-49.57-58.603-111.599-58.603-180.494z" fill="#36d39a"/><path d="m19.195 41.799h64.218v413.402h-64.218z" fill="#b2b0bc"/><path d="m216.391 41.799h64.218v413.402h-64.218z" fill="#b2b0bc"/><path d="m413.587 41.799h64.218v413.402h-64.218z" fill="#b2b0bc" transform="matrix(-1 0 0 -1 891.393 497)"/><path d="m413.587 106.509h64.218v-64.71h-64.218z" fill="#9f9bac"/><path d="m216.391 41.799h64.218v64.71h-64.218z" fill="#9f9bac"/><path d="m477.805 7.089h-458.61c-10.601 0-19.195 8.594-19.195 19.194v31.032c0 10.601 8.594 19.195 19.195 19.195h458.611c10.601 0 19.195-8.594 19.195-19.195v-31.032c-.001-10.6-8.595-19.194-19.196-19.194z" fill="#c7c5cb"/><g fill="#9f9bac"><path d="m19.195 390.49h64.218v64.71h-64.218z"/><path d="m216.391 390.49h64.218v64.71h-64.218z"/><path d="m19.195 41.799h64.218v64.71h-64.218z"/><path d="m477.805 390.49h-64.218v64.711h64.218z"/></g><path d="m477.805 420.491h-458.61c-10.601 0-19.195 8.593-19.195 19.194v31.032c0 10.601 8.594 19.195 19.195 19.195h458.611c10.601 0 19.195-8.594 19.195-19.195v-31.032c-.001-10.601-8.595-19.194-19.196-19.194z" fill="#c7c5cb"/><g><g><g><ellipse cx="144.876" cy="277.143" fill="#fff" rx="38.235" ry="30.449"/></g><g><ellipse cx="352.124" cy="277.143" fill="#fff" rx="38.235" ry="30.449"/></g></g></g><g fill="#423e4f"><path d="m184.5 219.405-31.345-8.399c-3.998-1.071-8.114 1.302-9.186 5.303s1.302 8.113 5.303 9.186l11.949 3.202c-.976 1.266-1.562 2.848-1.562 4.569v13.502c0 4.142 3.358 7.5 7.5 7.5s7.5-3.358 7.5-7.5c-.03-14.171.064-13.454-.072-14.49l6.03 1.616c4.017 1.077 8.118-1.319 9.186-5.303 1.072-4.001-1.302-8.113-5.303-9.186z"/><path d="m353.03 216.31c-1.071-4.001-5.183-6.375-9.186-5.303l-31.345 8.399c-4.001 1.072-6.375 5.185-5.303 9.186 1.069 3.989 5.173 6.379 9.186 5.303l6.03-1.616c-.135 1.026-.043.335-.072 14.49 0 4.142 3.357 7.5 7.5 7.5s7.5-3.358 7.5-7.5v-13.502c0-1.722-.586-3.303-1.562-4.569l11.949-3.202c4.002-1.073 6.376-5.185 5.303-9.186z"/></g><path d="m172.977 7.089h-153.782c-10.601 0-19.195 8.594-19.195 19.194v31.032c0 10.601 8.594 19.194 19.195 19.194h85.217c18.979-26.518 42.141-49.966 68.565-69.42z" fill="#b2b0bc"/><path d="m99.982 420.49h-80.787c-10.601 0-19.195 8.594-19.195 19.195v31.031c0 10.601 8.594 19.195 19.195 19.195h145.457c-25.019-19.74-46.861-43.158-64.67-69.421z" fill="#b2b0bc"/></g></svg>