<svg id="Capa_1" enable-background="new 0 0 497 497" height="512" viewBox="0 0 497 497" width="512" xmlns="http://www.w3.org/2000/svg"><g><path d="m248.5 57.581-189.078 100.088v296.987c0 22.645 18.358 41.003 41.003 41.003h296.149c22.645 0 41.003-18.358 41.003-41.003v-296.987z" fill="#78cbec"/><path d="m87.539 259.219c0-45.319 7.565-88.468 21.217-127.664l-49.333 26.114v296.987c0 22.645 18.358 41.003 41.003 41.003h70.212c-51.163-59.289-83.099-143.285-83.099-236.44z" fill="#34b5e1"/><path d="m484.575 136.816-212.576-128.906c-14.443-8.758-32.556-8.759-46.998-.001l-212.576 128.906c-12.182 7.387-16.069 23.251-8.682 35.434l20.247 33.388c7.387 12.182 23.251 16.069 35.434 8.682l189.076-114.655 189.078 114.656c12.182 7.387 28.046 3.5 35.434-8.682l20.246-33.388c7.387-12.183 3.5-28.047-8.683-35.434z" fill="#ff748f"/><path d="m345.678 209.161h-194.356c-16.726 0-30.286 15.56-30.286 34.755v169.167h254.928v-169.167c0-19.195-13.56-34.755-30.286-34.755z" fill="#c1e9fa"/><path d="m158.56 253.523c12.055-38.059 47.605-65.83 89.94-65.83 42.073 0 77.851 27.612 89.952 65.83l-89.952 45.468z" fill="#5c586f"/><path d="m214.461 194.016c-26.589 10.284-47.269 32.256-55.901 59.507l20.6 10.415c3.117-27.16 16.016-51.539 35.301-69.922z" fill="#4f4c5f"/><path d="m342.842 282.047c0 52.098-42.244 94.343-94.342 94.343-52.11 0-94.343-42.244-94.343-94.343 0-9.934 1.54-19.514 4.402-28.524 10.766 1.62 63.355 7.847 89.94-20.301 26.597 28.159 79.219 21.909 89.952 20.301 2.852 8.999 4.391 18.579 4.391 28.524z" fill="#fed2a4"/><g><g><path d="m197.461 309.417c-.002 0-.003 0-.005 0-4.143-.003-7.498-3.363-7.495-7.505l.007-9.58c.003-4.14 3.36-7.495 7.5-7.495h.005c4.143.003 7.498 3.363 7.495 7.505l-.007 9.58c-.003 4.14-3.361 7.495-7.5 7.495z" fill="#423e4f"/></g><g><path d="m299.585 309.517c-.002 0-.003 0-.005 0-4.143-.003-7.498-3.363-7.495-7.505l.007-9.58c.003-4.14 3.36-7.495 7.5-7.495h.005c4.143.003 7.498 3.363 7.495 7.505l-.007 9.58c-.003 4.14-3.361 7.495-7.5 7.495z" fill="#423e4f"/></g><g><path d="m261.98 313.732c-.002 0-.004 0-.007 0l-26.924-.023c-4.142-.004-7.497-3.365-7.493-7.507.004-4.14 3.361-7.493 7.5-7.493h.007l26.924.023c4.142.004 7.497 3.365 7.493 7.507-.004 4.139-3.361 7.493-7.5 7.493z" fill="#423e4f"/></g></g><path d="m232.411 362.984c0-13.186 10.689-23.876 23.876-23.876h45.585c13.186 0 23.876 10.689 23.876 23.876 0 13.186-10.69 23.876-23.876 23.876h-61.16z" fill="#ffbd86"/><path d="m178.421 276.755c0-7.353.721-14.546 2.088-21.524-10.254-.134-18.389-1.172-21.949-1.708-2.863 9.01-4.402 18.59-4.402 28.524 0 47.604 35.264 86.975 81.102 93.413-34.201-20.923-56.839-57.311-56.839-98.705z" fill="#ffbd86"/><path d="m240.713 339.108h-45.585c-13.186 0-23.876 10.689-23.876 23.876 0 13.186 10.689 23.876 23.876 23.876h45.585c13.186 0 23.876-10.69 23.876-23.876 0-13.187-10.69-23.876-23.876-23.876z" fill="#ffad6d"/><path d="m375.964 386.859h-254.928c-10.791 0-19.539 8.748-19.539 19.539v13.37c0 10.791 8.748 19.539 19.539 19.539h254.928c10.791 0 19.539-8.748 19.539-19.539v-13.37c0-10.791-8.748-19.539-19.539-19.539z" fill="#ff748f"/><g fill="#fd5f7e"><path d="m145.671 56.015-133.247 80.8c-12.182 7.387-16.069 23.251-8.682 35.434l20.247 33.389c7.387 12.182 23.251 16.069 35.434 8.682l33.445-20.281c8.537-51.475 26.995-98.517 52.803-138.024z"/><path d="m138.283 386.859h-17.247c-10.791 0-19.539 8.748-19.539 19.539v13.37c0 10.791 8.748 19.539 19.539 19.539h47.599c-17.044-12.668-28.45-31.335-30.352-52.448z"/></g></g></svg>