<svg id="Capa_1" enable-background="new 0 0 497 497" height="512" viewBox="0 0 497 497" width="512" xmlns="http://www.w3.org/2000/svg"><g><path d="m439.68 339.705c-25.33 6.35-64.6 12.18-123.39 12.18h-67.79v-105.11h199.37s4.29 24.4 14.21 47.53c8.07 18.83-2.531 40.41-22.4 45.4z" fill="#fd9c8c"/><path d="m248.5 246.775v105.11h-67.79c-58.79 0-98.06-5.83-123.39-12.18-19.87-4.99-30.47-26.57-22.4-45.4 9.93-23.13 14.22-47.53 14.22-47.53z" fill="#f98778"/><path d="m324.721 497h-152.442l-55.081-48.804c13.451-56.689 47.475-76.768 47.475-76.768h167.656s34.024 20.078 47.475 76.768z" fill="#fd748d"/><circle cx="248.5" cy="392.352" fill="#fdd1ba" r="42.002"/><path d="m34.287 214.213c0-118.118 96.095-214.213 214.213-214.213 118.117 0 214.213 96.095 214.213 214.213z" fill="#fd9c8c"/><g><path d="m464.404 199.452c3.138 7.067 4.895 14.882 4.895 23.112 0 31.494-25.531 57.024-57.024 57.024-19.98 0-37.549-10.284-47.732-25.839l28.733-36.067z" fill="#fdbc9a"/></g><path d="m98.817 209.491c0-101.348 72.786-186.245 170.553-208.473-6.869-.666-13.829-1.018-20.87-1.018-118.118 0-214.213 96.095-214.213 214.214h64.592c-.035-1.571-.062-3.144-.062-4.723z" fill="#f98778"/><path d="m411.314 141.85c-3.866-8.683-11.299-15.303-20.413-18-44.19-13.078-70.076-34.376-82.93-47.924-5.834-6.148-15.435-6.441-21.78-.823-47.803 42.331-135.249 50.462-173.934 51.94-12.664.484-23.99 8.245-28.776 19.98-8.455 20.734-13.118 43.416-13.118 67.189 0 68.079 38.188 127.231 94.31 157.215h167.656c56.122-29.983 94.31-89.136 94.31-157.215-.001-25.765-5.479-50.25-15.325-72.362z" fill="#fdd1ba"/><path d="m465.288 179.188c-5.176-10.141-17.592-14.166-27.732-8.99l-118.552 60.507 18.742 36.722 118.552-60.506c10.141-5.177 14.166-17.593 8.99-27.733z" fill="#bfe7f8"/><path d="m98.817 209.491c0-29.279 6.082-57.181 17.079-82.601-1.255.058-2.471.109-3.64.153-12.664.484-23.99 8.245-28.776 19.98-8.455 20.734-13.118 43.416-13.118 67.189 0 .667.028 1.328.035 1.994l-37.8-16.756c-3.138 7.066-4.895 14.882-4.895 23.112 0 30.826 24.464 55.923 55.034 56.974 15.572 39.479 44.827 72.064 81.937 91.89h10.661c-46.869-39.266-76.517-97.252-76.517-161.935z" fill="#fdbc9a"/><path d="m31.712 179.188c5.176-10.141 17.592-14.166 27.732-8.99l118.552 60.507-18.742 36.722-118.552-60.507c-10.141-5.176-14.166-17.592-8.99-27.732z" fill="#bfe7f8"/><path d="m187.636 371.428h-22.964s-34.024 20.078-47.475 76.768l27.512 24.377c1.244-38.738 17.237-74.018 42.927-101.145z" fill="#fd5f7e"/><path d="m369.939 279.066c-9.338 71.222-36.621 91.641-37.611 92.362-.021.01-.031.021-.031.021-24.974 13.337-53.504 20.903-83.797 20.903s-58.823-7.565-83.797-20.903c0 0-.01-.01-.031-.021-.989-.721-28.272-21.14-37.611-92.362-2.278-17.398 3.803-34.879 16.347-47.155 20.645-20.202 57.349-47.464 105.092-47.464s84.446 27.262 105.092 47.464c12.543 12.275 18.625 29.756 16.347 47.155z" fill="#78c9ea"/><g fill="#bfe7f8"><path d="m300.764 295.899h-104.528c-4.143 0-7.5-3.358-7.5-7.5s3.357-7.5 7.5-7.5h104.528c4.143 0 7.5 3.358 7.5 7.5s-3.357 7.5-7.5 7.5z"/><path d="m300.763 258.629c-.906 0-1.828-.166-2.725-.515-13.522-5.277-31.116-8.183-49.538-8.183s-36.016 2.906-49.54 8.183c-3.854 1.505-8.207-.402-9.713-4.261-1.505-3.859.402-8.208 4.262-9.713 15.22-5.938 34.749-9.208 54.991-9.208s39.771 3.27 54.991 9.208c3.858 1.506 5.766 5.854 4.261 9.713-1.156 2.963-3.989 4.776-6.989 4.776z"/><path d="m248.5 341.867c-20.243 0-39.772-3.27-54.992-9.208-3.858-1.506-5.766-5.854-4.261-9.713 1.506-3.859 5.853-5.766 9.714-4.261 13.523 5.277 31.116 8.183 49.539 8.183 18.422 0 36.016-2.906 49.538-8.183 3.859-1.506 8.209.402 9.714 4.261s-.402 8.208-4.261 9.713c-15.219 5.937-34.748 9.208-54.991 9.208z"/></g><g><path d="m157.123 189.968c-4.143 0-7.5-3.358-7.5-7.5v-17.558c0-4.142 3.357-7.5 7.5-7.5s7.5 3.358 7.5 7.5v17.559c0 4.141-3.357 7.499-7.5 7.499z" fill="#423e4f"/></g><g><path d="m339.876 189.968c-4.143 0-7.5-3.358-7.5-7.5v-17.558c0-4.142 3.357-7.5 7.5-7.5s7.5 3.358 7.5 7.5v17.559c0 4.141-3.357 7.499-7.5 7.499z" fill="#423e4f"/></g><path d="m172.279 448.196v48.804h-60.462c0-18.656 2.061-34.838 5.38-48.804z" fill="#fdd1ba"/><path d="m385.183 497h-60.462v-48.804h55.081c3.32 13.966 5.381 30.148 5.381 48.804z" fill="#fdd1ba"/><path d="m98.817 209.491c0-6.323.3-12.578.855-18.762l-40.228-20.532c-10.141-5.176-22.557-1.151-27.732 8.99-5.175 10.141-1.151 22.557 8.99 27.732l60.007 30.626c-1.243-9.181-1.892-18.544-1.892-28.054z" fill="#8ed1ef"/><path d="m144.623 477.451c0-9.993.99-19.769 2.868-29.255h-30.294c-3.319 13.966-5.38 30.148-5.38 48.804h34.082c-.836-6.408-1.276-12.931-1.276-19.549z" fill="#fdbc9a"/></g></svg>