<svg id="Capa_1" enable-background="new 0 0 497 497" height="512" viewBox="0 0 497 497" width="512" xmlns="http://www.w3.org/2000/svg"><g><path d="m468.214 204.345c-11.246 0-20.98 9.899-25.717 24.321h-42.116c-3.55-27.455-14.375-52.624-30.472-73.525l29.792-29.792c13.547 6.848 27.429 6.965 35.382-.987 11.242-11.242 6.376-34.334-10.867-51.577s-40.335-22.109-51.577-10.867c-7.952 7.952-7.835 21.834-.987 35.382l-29.792 29.792c-20.902-16.097-46.071-26.921-73.525-30.472v-42.117c14.422-4.737 24.321-14.47 24.321-25.717-.001-15.898-19.77-28.786-44.156-28.786s-44.155 12.888-44.155 28.786c0 11.246 9.899 20.98 24.321 25.717v42.116c-27.455 3.55-52.624 14.375-73.525 30.472l-29.792-29.792c6.848-13.547 6.965-27.429-.987-35.382-11.242-11.242-34.334-6.376-51.577 10.867-17.244 17.244-22.109 40.335-10.867 51.577 7.952 7.952 21.834 7.835 35.382.987l29.792 29.792c-16.097 20.902-26.921 46.071-30.472 73.525h-42.117c-4.737-14.422-14.47-24.321-25.717-24.321-15.898.001-28.786 19.77-28.786 44.156s12.888 44.155 28.786 44.155c11.246 0 20.98-9.899 25.717-24.321h42.116c3.55 27.454 14.375 52.624 30.472 73.525l-29.792 29.792c-13.547-6.848-27.429-6.965-35.382.987-11.242 11.242-6.376 34.334 10.867 51.577s40.335 22.109 51.577 10.867c7.952-7.952 7.835-21.835.987-35.382l29.792-29.792c20.902 16.097 46.071 26.921 73.526 30.472v42.116c-14.422 4.737-24.321 14.47-24.321 25.717 0 15.898 19.769 28.786 44.155 28.786s44.155-12.888 44.155-28.786c0-11.246-9.899-20.98-24.321-25.717v-42.116c27.455-3.55 52.624-14.375 73.526-30.472l29.792 29.792c-6.848 13.547-6.965 27.429.987 35.382 11.242 11.242 34.334 6.376 51.577-10.867 17.244-17.243 22.109-40.335 10.867-51.577-7.952-7.952-21.834-7.835-35.382-.987l-29.792-29.792c16.097-20.902 26.921-46.071 30.472-73.525h42.116c4.737 14.422 14.47 24.321 25.717 24.321 15.898 0 28.786-19.769 28.786-44.155s-12.888-44.155-28.786-44.155z" fill="#36d39a"/><path d="m350.441 224.338c-10.5-6.407-15.66-18.862-12.768-30.817l.009-.036c4.98-20.584-13.582-39.145-34.166-34.166l-.036.009c-11.955 2.892-24.41-2.268-30.817-12.768-11.033-18.082-37.29-18.082-48.323 0-6.407 10.5-18.861 15.66-30.817 12.768l-.036-.009c-20.584-4.98-39.145 13.582-34.166 34.166l.009.036c2.892 11.955-2.268 24.41-12.768 30.817-18.082 11.033-18.082 37.29 0 48.324 10.5 6.407 15.66 18.861 12.768 30.817l-.009.036c-4.98 20.584 13.582 39.145 34.166 34.166l.036-.009c11.955-2.892 24.41 2.268 30.817 12.768 11.033 18.082 37.29 18.082 48.323 0 6.407-10.5 18.861-15.66 30.817-12.768l.036.009c20.584 4.98 39.145-13.582 34.166-34.166l-.009-.036c-2.892-11.955 2.268-24.41 12.768-30.817 18.082-11.033 18.082-37.291 0-48.324z" fill="#b0ebce"/><g fill="#423e4f"><path d="m268.238 249.218c-3.123-2.721-7.86-2.396-10.582.727-4.842 5.555-13.457 5.571-18.313 0-2.721-3.124-7.459-3.448-10.582-.726-3.123 2.721-3.448 7.459-.726 10.582 10.83 12.426 30.112 12.413 40.929 0 2.722-3.124 2.397-7.862-.726-10.583z"/><path d="m204.9 233.319-21.648-5.8c-3.999-1.072-8.113 1.302-9.186 5.304-1.072 4.001 1.303 8.113 5.304 9.186l5.633 1.509c-.115.521-.179 1.061-.179 1.616v9.325c0 4.142 3.358 7.5 7.5 7.5s7.5-3.358 7.5-7.5v-6.97l1.194.32c4.011 1.075 8.116-1.313 9.186-5.304 1.071-4.001-1.303-8.114-5.304-9.186z"/><path d="m322.934 232.823c-1.072-4.001-5.187-6.374-9.186-5.304l-21.647 5.8c-4.001 1.072-6.375 5.185-5.304 9.186 1.073 4.003 5.184 6.374 9.186 5.304l1.194-.32v6.97c0 4.142 3.358 7.5 7.5 7.5s7.5-3.358 7.5-7.5v-9.325c0-.555-.065-1.095-.179-1.616l5.633-1.509c4-1.073 6.374-5.185 5.303-9.186z"/></g><path d="m204.63 395.263c-50.106-36.952-82.413-95.052-82.413-160.406 0-39.756 11.96-76.826 32.602-108.088l-29.47-29.47c6.848-13.547 6.965-27.429-.987-35.382-11.242-11.242-34.333-6.376-51.577 10.867s-22.109 40.335-10.867 51.577c7.952 7.952 21.834 7.835 35.382.987l29.792 29.792c-16.097 20.902-26.922 46.071-30.472 73.525h-42.117c-4.737-14.422-14.47-24.321-25.717-24.321-15.898.001-28.786 19.77-28.786 44.156s12.888 44.155 28.786 44.155c11.246 0 20.98-9.899 25.717-24.321h42.116c3.55 27.455 14.375 52.624 30.472 73.526l-29.792 29.792c-13.547-6.848-27.429-6.965-35.382.987-11.242 11.242-6.376 34.333 10.867 51.577 17.244 17.243 40.335 22.109 51.577 10.867 7.952-7.953 7.835-21.834.987-35.382l29.792-29.792c14.631 11.267 31.357 19.939 49.49 25.354z" fill="#00c67f"/><path d="m165.767 231.723c0-27.153 10.598-52.187 28.441-72.258-.229-.049-.458-.082-.687-.137l-.036-.009c-20.584-4.98-39.145 13.582-34.166 34.166l.009.036c2.892 11.955-2.268 24.41-12.768 30.817-18.082 11.033-18.082 37.29 0 48.324 10.5 6.407 15.66 18.862 12.768 30.817l-.009.036c-4.979 20.584 13.582 39.145 34.166 34.166l.036-.009c11.956-2.892 24.41 2.268 30.817 12.768 11.033 18.082 37.29 18.082 48.323 0 .468-.768.978-1.498 1.509-2.207-62.094-12.2-108.403-59.732-108.403-116.51z" fill="#80dfb5"/></g></svg>