<svg id="Capa_1" enable-background="new 0 0 497 497" height="512" viewBox="0 0 497 497" width="512" xmlns="http://www.w3.org/2000/svg"><g><path d="m314.377 48.618h-264.516c-27.537 0-49.861 22.324-49.861 49.862v348.26c0 27.538 22.324 49.861 49.861 49.861h264.515c27.538 0 49.861-22.324 49.861-49.861v-348.26c.001-27.538-22.322-49.862-49.86-49.862z" fill="#c1e9fa"/><path d="m317.776 328.145c-16.933-20.664-16.933-50.406 0-71.07 4.456-5.439 1.784-13.664-5.018-15.445l-.002-.001c-25.837-6.763-43.316-30.812-41.775-57.475l.001-.023c.406-7.014-6.584-12.095-13.13-9.545l-.063.025c-24.86 9.683-53.099.506-67.518-21.94l-.036-.055c-3.796-5.91-12.434-5.91-16.231 0l-.036.056c-14.42 22.446-42.659 31.622-67.518 21.939l-.063-.024c-6.547-2.55-13.536 2.531-13.13 9.545l.001.023c1.542 26.662-15.938 50.711-41.774 57.474l-.003.001c-6.802 1.781-9.475 10.006-5.018 15.445 16.933 20.664 16.933 50.406 0 71.07-4.456 5.439-1.784 13.664 5.018 15.445l.002.001c25.837 6.763 43.316 30.812 41.775 57.475l-.001.023c-.406 7.014 6.584 12.095 13.13 9.545l.063-.025c24.86-9.682 53.099-.506 67.518 21.94l.036.055c3.796 5.91 12.434 5.91 16.231 0l.036-.056c14.42-22.446 42.659-31.622 67.519-21.939l.063.024c6.547 2.55 13.536-2.531 13.13-9.545l-.001-.023c-1.542-26.662 15.938-50.711 41.774-57.474l.003-.001c6.801-1.781 9.473-10.007 5.017-15.445z" fill="#ff748f"/><circle cx="182.119" cy="292.61" fill="#f9ed80" r="88.141"/><path d="m112.978 265.882c0-11.985 1.949-23.513 5.54-34.291-15.198 15.837-24.54 37.336-24.54 61.019 0 48.679 39.462 88.141 88.141 88.141 11.87 0 23.19-2.352 33.526-6.607-57.203-2.988-102.667-50.314-102.667-108.262z" fill="#fccb88"/><path d="m283.036 142.184-51.265 18.124-11.534 51.47 16.647 48.737 48.734 16.643 51.469-11.533 15.331-54.059z" fill="#ffdcce"/><path d="m482.521 50.284-35.407-35.407c-19.305-19.305-50.605-19.305-69.911 0l-145.427 145.428 28.032 6.568c11.498 2.694 19.628 12.95 19.628 24.759 3.062 13.066 13.264 23.268 26.329 26.329 13.066 3.062 23.268 13.264 26.329 26.329 2.499 10.665 4.998 21.331 4.998 21.331l145.428-145.428c19.306-19.304 19.306-50.604.001-69.909z" fill="#fccb88"/><path d="m220.237 211.778-7.932 35.409c-2.37 10.608.847 21.686 8.536 29.375 7.861 7.861 19.017 10.844 29.368 8.529l35.409-7.932z" fill="#fccb88"/><g><g><path d="m330.023 178.24-9.042-9.042c-2.929-2.929-2.929-7.678 0-10.606 2.929-2.929 7.678-2.929 10.606 0l9.042 9.042c2.929 2.929 2.929 7.678 0 10.606-2.929 2.929-7.677 2.928-10.606 0z" fill="#423e4f"/></g><g><path d="m424.137 84.125-9.042-9.042c-2.929-2.929-2.929-7.678 0-10.606 2.929-2.929 7.678-2.929 10.606 0l9.042 9.042c2.929 2.929 2.929 7.678 0 10.606-2.928 2.929-7.677 2.93-10.606 0z" fill="#423e4f"/></g><g><path d="m369.194 145.499c-4.132-.284-7.252-3.864-6.969-7.996s3.865-7.252 7.996-6.969c4.557.312 9.021-1.355 12.241-4.575 3.221-3.221 4.889-7.683 4.576-12.242-.284-4.132 2.836-7.712 6.969-7.996 4.131-.275 7.712 2.836 7.996 6.969 1.278 18.612-14.149 34.084-32.809 32.809z" fill="#423e4f"/></g></g><g><path d="m134.095 329.58c-4.142 0-7.5-3.358-7.5-7.5v-9.228c0-4.142 3.358-7.5 7.5-7.5s7.5 3.358 7.5 7.5v9.228c0 4.142-3.358 7.5-7.5 7.5z" fill="#423e4f"/></g><g><path d="m230.143 329.58c-4.142 0-7.5-3.358-7.5-7.5v-9.228c0-4.142 3.358-7.5 7.5-7.5s7.5 3.358 7.5 7.5v9.228c0 4.142-3.358 7.5-7.5 7.5z" fill="#423e4f"/></g><g><path d="m182.119 335.073c-7.021 0-13.696-3.04-18.315-8.34-2.721-3.123-2.396-7.86.727-10.582s7.86-2.396 10.582.727c1.77 2.03 4.323 3.195 7.007 3.195 2.683 0 5.237-1.165 7.007-3.195 2.722-3.124 7.459-3.448 10.582-.726s3.448 7.459.726 10.582c-4.62 5.299-11.296 8.339-18.316 8.339z" fill="#423e4f"/></g><path d="m21.107 251.701c0-78.34 26.65-149.655 70.275-203.083h-41.52c-27.538 0-49.862 22.324-49.862 49.862v348.26c0 27.538 22.324 49.861 49.861 49.861h83.651c-68.012-54.339-112.405-143.774-112.405-244.9z" fill="#90d3f1"/></g></svg>