<svg id="Capa_1" enable-background="new 0 0 497 497" height="512" viewBox="0 0 497 497" width="512" xmlns="http://www.w3.org/2000/svg"><g><path d="m48.39 397.671c0-88.742 68.361-123.707 68.361-123.707h74.136s68.361 34.965 68.361 123.707l-105.429 25.303z" fill="#c1e9fa"/><path d="m90.811 380.723c0-46.177 21.257-86.315 52.523-106.759h-26.583s-68.361 34.965-68.361 123.707l45.053 10.813c-1.719-8.916-2.632-18.209-2.632-27.761z" fill="#90d3f1"/><path d="m466.549 245.995h-98.322l-27.046 19.344-39.226 132.332 66.272 31.75 68.969-31.75c9.712 0 18.328-6.232 21.369-15.456l33.345-101.157c5.695-17.275-7.171-35.063-25.361-35.063z" fill="#c7c5cb"/><path d="m231.411 25.828h-67.739c-86.339 0-156.582 70.243-156.582 156.583l261.3-68.784v-50.821c-.001-20.422-16.556-36.978-36.979-36.978z" fill="#5c586f"/><path d="m313.156 269.32-27.476 83.351h-45.947c-12.201 0-22.592 9.488-23.025 21.68-.455 12.8 9.787 23.32 22.485 23.32l33.612 31.75 29.149-31.75c9.712 0 18.328-6.232 21.369-15.456l44.903-136.22h-22.823c-14.655 0-27.658 9.404-32.247 23.325z" fill="#b2b0bc"/><path d="m155.872 26.023c-82.731 4.079-148.782 72.664-148.782 156.388l83.848-22.072c9.483-50.607 32.379-96.6 64.934-134.316z" fill="#4f4c5f"/><path d="m268.389 113.627h-174.423c-25.378 0-47.482 17.623-52.798 42.438-2.018 9.42-2.976 19.234-2.743 29.31 1.522 65.857 54.567 119.741 120.395 122.227 71.403 2.696 130.136-54.388 130.136-125.191-.001-25.405-7.57-49.039-20.567-68.784z" fill="#da9d81"/><g><g><path d="m123.743 200.618c-4.142 0-7.5-3.358-7.5-7.5v-13c0-4.142 3.358-7.5 7.5-7.5s7.5 3.358 7.5 7.5v13c0 4.143-3.357 7.5-7.5 7.5z" fill="#423e4f"/></g><g><path d="m248.64 200.618c-4.142 0-7.5-3.358-7.5-7.5v-13c0-4.142 3.358-7.5 7.5-7.5s7.5 3.358 7.5 7.5v13c0 4.143-3.357 7.5-7.5 7.5z" fill="#423e4f"/></g><g><path d="m186.192 206.762c-8.478 0-16.54-3.672-22.118-10.074-2.721-3.123-2.396-7.86.727-10.582s7.86-2.396 10.582.727c2.729 3.132 6.669 4.928 10.81 4.928s8.081-1.796 10.81-4.928c2.721-3.123 7.458-3.448 10.582-.727 3.123 2.721 3.448 7.458.727 10.582-5.58 6.402-13.642 10.074-22.12 10.074z" fill="#423e4f"/></g></g><path d="m103.9 113.627h-9.934c-21.308 0-40.304 12.427-48.996 31.1-2.139-.371-4.334-.575-6.579-.575-21.13 0-38.26 17.129-38.26 38.26s17.129 38.26 38.26 38.26c1.992 0 3.948-.153 5.857-.447 8.92 27.999 27.469 51.828 51.736 67.51-6.469-23.834-9.935-48.869-9.935-74.702-.001-34.925 6.302-68.405 17.851-99.406z" fill="#c7856a"/><path d="m475.072 397.671h-453.144c-12.111 0-21.928 9.817-21.928 21.928v29.645c0 12.11 9.817 21.928 21.928 21.928h453.145c12.11 0 21.928-9.817 21.928-21.928v-29.645c-.001-12.111-9.818-21.928-21.929-21.928z" fill="#78cbec"/><path d="m76.151 427.241c0-10.319 1.575-20.255 4.479-29.57h-58.702c-12.111 0-21.928 9.817-21.928 21.927v29.646c0 12.11 9.817 21.928 21.928 21.928h64.46c-6.541-13.165-10.237-28.1-10.237-43.931z" fill="#34b5e1"/></g></svg>