<svg id="Capa_1" enable-background="new 0 0 497 497" height="512" viewBox="0 0 497 497" width="512" xmlns="http://www.w3.org/2000/svg"><g><path d="m378.442 276.816-23.543 27.238 23.543 27.893h20.24c15.214 0 27.571-12.331 27.571-27.571 0-15.22-12.34-27.561-27.571-27.561h-20.24z" fill="#ffdcce"/><path d="m289.407 358.272-40.907 17.407-35.872-17.407-41.422 17.407c4.708 12.532 12.392 23.611 22.169 32.396v26.256l27.563 31.335 27.563-31.335 27.563 31.335 27.563-31.335v-26.256c1.112-1.002 2.194-2.014 3.246-3.065 8.234-8.244 14.746-18.222 18.923-29.331z" fill="#78cbec"/><path d="m196.519 365.044-25.313 10.637c4.708 12.531 12.391 23.61 22.168 32.396v26.256l27.563 31.334.964-1.096c-15.085-28.276-24.323-62.5-25.382-99.527z" fill="#34b5e1"/><path d="m303.626 434.331v35.101c0 7.613-3.085 14.505-8.074 19.494s-11.871 8.074-19.484 8.074c-15.227 0-27.568-12.341-27.568-27.568v-35.101z" fill="#ffcabd"/><path d="m248.499 434.331v35.101c0 7.613-3.085 14.505-8.074 19.494s-11.881 8.074-19.494 8.074c-15.217 0-27.558-12.341-27.558-27.568v-35.101h27.127z" fill="#ffdcce"/><path d="m208.82 434.332h-15.446v35.101c0 15.226 12.341 27.567 27.557 27.567 6.76 0 12.948-2.437 17.744-6.475-12.418-15.953-22.598-34.991-29.855-56.193z" fill="#ffcabd"/><path d="m378.442 276.816h-47.389v-44.387h-165.108v44.387h-47.389v55.131h47.389v14.681c0 10.228 1.863 20.015 5.259 29.051h154.59c3.396-9.036 5.259-18.823 5.259-29.051v-14.681h47.389z" fill="#ff748f"/><path d="m118.557 276.816 23.543 27.238-23.543 27.893h-20.24c-15.214 0-27.571-12.331-27.571-27.571 0-15.22 12.34-27.561 27.571-27.561h20.24z" fill="#ffdcce"/><circle cx="248.499" cy="304.537" fill="#ffcabd" r="38.767"/><circle cx="400.773" cy="162.801" fill="#ffcabd" r="39.101"/><path d="m113.537 81.702c25.4-48.471 76.141-81.702 134.962-81.702 58.741 0 109.552 33.191 134.963 81.702l-21.79 32.784h-226.345z" fill="#ff9e8e"/><path d="m217.507 3.165c-45.336 9.359-83.16 38.826-103.97 78.537l21.79 32.784h5.945c9.689-46.168 37.683-85.802 76.235-111.321z" fill="#fb8978"/><path d="m205.612 232.434h-39.666v44.386l-.001-.004h-47.389v55.131h47.389l.001-.004v14.688c0 10.228 1.863 20.015 5.259 29.05h25.843c-.42-5.855-.643-11.787-.643-17.789 0-57.532 1.149-97.689 9.207-125.458z" fill="#fd5f7e"/><path d="m400.773 152.273c0 83.752-67.821 152.263-152.273 152.263-84.312 0-152.273-68.361-152.273-152.263 0-25.42 6.25-49.451 17.31-70.571l1.72 1.26c5.67 4.15 12.35 6.22 19.04 6.22 6.68 0 13.36-2.07 19.03-6.22s12.35-6.22 19.03-6.22c6.69 0 13.37 2.07 19.04 6.22 5.66 4.15 12.35 6.22 19.03 6.22 6.69 0 13.37-2.07 19.04-6.22s12.35-6.22 19.03-6.22 13.36 2.07 19.03 6.22 12.35 6.22 19.04 6.22c6.68 0 13.37-2.07 19.03-6.22 5.67-4.15 12.35-6.22 19.04-6.22 6.68 0 13.36 2.07 19.03 6.22 11.34 8.29 26.731 8.29 38.071 0l1.72-1.26c11.064 21.11 17.315 45.121 17.315 70.571z" fill="#ffdcce"/><g fill="#78cbec"><path d="m79.307 237.75h-48.417l8.134-8.134c2.929-2.929 2.929-7.678 0-10.606-2.93-2.929-7.678-2.929-10.607 0l-20.937 20.937c-.012.012-.022.025-.034.038-.161.164-.316.333-.462.511-.076.093-.143.191-.214.286-.075.1-.153.198-.222.302-.075.112-.14.228-.208.342-.057.096-.117.189-.17.287-.063.117-.116.237-.172.357-.048.102-.099.202-.143.307-.049.117-.088.237-.13.357-.04.112-.083.222-.118.336-.036.12-.063.243-.094.364-.029.116-.062.23-.085.347-.028.143-.046.287-.066.43-.014.099-.033.195-.043.295-.049.494-.049.991 0 1.485.01.102.029.201.044.302.02.141.037.283.065.423.024.12.057.237.087.355.03.119.056.239.092.357.035.116.079.229.12.343.042.117.08.234.128.35.044.107.097.21.146.314.055.117.107.235.169.35.054.101.116.197.174.295.067.112.13.226.203.335.072.107.151.207.228.31.07.093.134.188.209.279.146.178.301.348.463.512.012.012.022.025.033.037l20.937 20.938c1.465 1.465 3.384 2.197 5.304 2.197 1.919 0 3.839-.732 5.303-2.197 2.93-2.929 2.93-7.677.001-10.606l-8.134-8.134h48.417c4.143 0 7.5-3.358 7.5-7.5s-3.358-7.501-7.501-7.501z"/><path d="m490.01 250.011c.045-.055.083-.113.126-.169.107-.138.214-.275.311-.42.034-.051.062-.105.095-.156.099-.156.197-.312.284-.475.019-.036.035-.074.053-.111.094-.181.183-.365.262-.554.01-.024.017-.049.027-.073.081-.202.157-.406.221-.616.008-.027.013-.054.021-.081.06-.206.115-.415.158-.628.013-.063.018-.128.029-.192.031-.177.062-.354.08-.536.025-.248.038-.498.038-.749s-.013-.501-.038-.749c-.018-.181-.049-.358-.08-.536-.011-.064-.017-.129-.029-.192-.043-.213-.098-.422-.158-.628-.008-.027-.013-.054-.021-.081-.064-.21-.139-.414-.221-.616-.01-.024-.017-.049-.027-.073-.079-.189-.168-.373-.262-.554-.019-.037-.034-.075-.053-.111-.088-.163-.185-.319-.284-.475-.033-.052-.061-.105-.095-.156-.097-.145-.204-.283-.311-.42-.043-.056-.082-.114-.126-.169-.139-.169-.287-.33-.44-.486-.018-.018-.033-.039-.051-.057l-20.938-20.937c-2.93-2.929-7.678-2.929-10.607 0s-2.929 7.678 0 10.606l8.134 8.134h-48.417c-4.143 0-7.5 3.358-7.5 7.5s3.357 7.5 7.5 7.5h48.418l-8.135 8.134c-2.929 2.929-2.929 7.678 0 10.606 1.465 1.464 3.385 2.197 5.304 2.197s3.839-.732 5.304-2.197l20.938-20.938c.018-.018.033-.039.051-.057.152-.156.301-.316.439-.485z"/></g><path d="m225.891 302.865c-52.913-31.042-88.334-87.7-88.334-152.459 0-23.136 4.524-45.238 12.748-65.508-4.957 2.843-10.478 4.284-16.008 4.284-6.69 0-13.37-2.07-19.04-6.22l-1.72-1.26c-6.83 13.042-11.818 27.196-14.641 42.099-.883-.06-1.772-.101-2.671-.101-21.595 0-39.101 17.506-39.101 39.101s17.506 39.101 39.101 39.101c2.744 0 5.421-.285 8.005-.823 17.995 53.191 64.585 93.303 121.661 101.786z" fill="#ffcabd"/><g><g><g><ellipse cx="165.943" cy="188.88" fill="#ff889e" rx="30.462" ry="24.258"/></g><g><ellipse cx="331.055" cy="188.88" fill="#ff889e" rx="30.462" ry="24.258"/></g></g></g><g><path d="m198.196 169.983c-4.143 0-7.5-3.358-7.5-7.5 0-3.859-3.141-6.999-7-6.999-3.858 0-6.998 3.14-6.998 6.999 0 4.142-3.357 7.5-7.5 7.5s-7.5-3.358-7.5-7.5c0-12.13 9.868-21.999 21.998-21.999 12.131 0 22 9.869 22 21.999 0 4.142-3.358 7.5-7.5 7.5z" fill="#423e4f"/></g><g><path d="m327.801 169.983c-4.143 0-7.5-3.358-7.5-7.5 0-3.859-3.14-6.999-6.999-6.999s-6.999 3.14-6.999 6.999c0 4.142-3.357 7.5-7.5 7.5s-7.5-3.358-7.5-7.5c0-12.13 9.869-21.999 21.999-21.999s21.999 9.869 21.999 21.999c0 4.142-3.357 7.5-7.5 7.5z" fill="#423e4f"/></g><g><path d="m248.5 193.936c-8.063 0-15.729-3.491-21.034-9.579-2.722-3.123-2.396-7.86.727-10.582 3.122-2.721 7.859-2.397 10.582.727 2.455 2.817 6 4.434 9.726 4.434 3.725 0 7.27-1.616 9.727-4.435 2.721-3.122 7.46-3.447 10.581-.726 3.123 2.722 3.447 7.459.726 10.582-5.308 6.088-12.974 9.579-21.035 9.579z" fill="#423e4f"/></g><g><path d="m241 434.33v-29.326c0-4.142 3.357-7.5 7.5-7.5s7.5 3.358 7.5 7.5v29.326z" fill="#34b5e1"/></g></g></svg>