<svg id="Capa_1" enable-background="new 0 0 497 497" height="512" viewBox="0 0 497 497" width="512" xmlns="http://www.w3.org/2000/svg"><g><path d="m318.406 194.804v194.535l-162.062 49.572-156.344-49.572v-194.535l159.202-64.119z" fill="#f9ed80"/><path d="m170.459 389.339h-170.459v38.913c0 12.828 3.759 25.373 10.817 36.086 6.074 9.215 14.252 16.598 23.666 21.666 9.425 5.079 20.085 7.854 31.122 7.854h158.549z" fill="#ff9e8e"/><path d="m270.338 3.142h-222.272c-22.431 0-40.616 18.184-40.616 40.616 0 12.596 10.211 22.807 22.807 22.807l128.946 28.815 128.944-28.815c12.596 0 22.807-10.211 22.807-22.807 0-22.432-18.185-40.616-40.616-40.616z" fill="#f9ed80"/><path d="m318.406 167.514v27.29h-318.406v-27.29c0-35.876 10.524-70.978 30.253-100.948h257.889c19.739 29.971 30.264 65.072 30.264 100.948z" fill="#ff9e8e"/><path d="m318.406 194.804v194.535l-162.062 49.572-156.344-49.572v-194.535l159.202-64.119z" fill="#f9ed80"/><path d="m40 249.817c0-25.591 2.727-50.46 7.836-74.279l-47.836 19.266v194.535l81.605 25.875c-26.368-48.055-41.605-104.713-41.605-165.397z" fill="#fccb88"/><path d="m170.459 389.339h-170.459v38.913c0 12.828 3.759 25.373 10.817 36.086 6.074 9.215 14.252 16.598 23.666 21.666 9.425 5.079 20.085 7.854 31.122 7.854h158.549z" fill="#ff9e8e"/><path d="m81.342 25.913c0-7.979 1.313-15.635 3.699-22.771h-36.975c-22.431 0-40.616 18.184-40.616 40.615 0 12.596 10.211 22.808 22.807 22.808l83.004 18.549c-19.147-12.224-31.919-34.162-31.919-59.201z" fill="#fccb88"/><path d="m318.406 167.514v27.29h-318.406v-27.29c0-35.876 10.524-70.978 30.253-100.948h257.889c19.739 29.971 30.264 65.072 30.264 100.948z" fill="#ff9e8e"/><path d="m438.983 339.762v-135.292h-268.524v235.688c0 29.657 24.042 53.7 53.7 53.7h109.947z" fill="#c1e9fa"/><path d="m381.31 271.637c-18.075 0-32.728 14.653-32.728 32.728v43.105h65.457v-43.105c-.001-18.075-14.654-32.728-32.729-32.728z" fill="#ff748f"/><path d="m287.997 339.762v107.987c0 25.465 20.643 46.108 46.108 46.108h94.407c25.465 0 46.108-20.643 46.108-46.108v-107.987z" fill="#ff748f"/><g><g><path d="m330.824 430.67c-4.143 0-7.5-3.358-7.5-7.5v-9.701c0-4.142 3.357-7.5 7.5-7.5s7.5 3.358 7.5 7.5v9.701c0 4.142-3.357 7.5-7.5 7.5z" fill="#423e4f"/></g><g><path d="m431.795 430.67c-4.143 0-7.5-3.358-7.5-7.5v-9.701c0-4.142 3.357-7.5 7.5-7.5s7.5 3.358 7.5 7.5v9.701c0 4.142-3.357 7.5-7.5 7.5z" fill="#423e4f"/></g><g><path d="m381.31 436.445c-7.27 0-14.182-3.148-18.965-8.637-2.722-3.123-2.396-7.86.727-10.582 3.122-2.721 7.859-2.397 10.582.727 1.934 2.219 4.724 3.491 7.656 3.491s5.722-1.272 7.655-3.491c2.721-3.124 7.457-3.448 10.582-.727 3.122 2.721 3.448 7.459.727 10.582-4.784 5.489-11.696 8.637-18.964 8.637z" fill="#423e4f"/></g></g><path d="m304.721 116.999c-19.607 0-35.502 15.895-35.502 35.502v49.98h71.005v-49.98c0-19.607-15.895-35.502-35.503-35.502z" fill="#c1e9fa"/><path d="m213.293 322.823c0-43.167 10.558-83.604 28.96-118.353h-71.794v235.688c0 29.657 24.042 53.7 53.7 53.7h56.105c-41.22-42.812-66.971-103.597-66.971-171.035z" fill="#8ed1ef"/><path d="m296.53 161.77c0-17.148 7.664-32.497 19.742-42.839-3.622-1.246-7.505-1.932-11.551-1.932-19.607 0-35.502 15.895-35.502 35.502v49.98h44.706c-10.713-10.264-17.395-24.703-17.395-40.711z" fill="#8ed1ef"/><path d="m413.427 163.063h-217.411c-21.91 0-39.671 17.761-39.671 39.671 0 13.155 10.665 23.82 23.82 23.82h249.114c13.155 0 23.82-10.665 23.82-23.82-.001-21.91-17.762-39.671-39.672-39.671z" fill="#78cbec"/><path d="m474.622 309.553h-186.625c-12.359 0-22.378 10.019-22.378 22.378v15.66c0 12.359 10.019 22.378 22.378 22.378h186.624c12.359 0 22.378-10.019 22.378-22.378v-15.66c.001-12.358-10.018-22.378-22.377-22.378z" fill="#78cbec"/><path d="m68.863 389.339h-68.863v38.913c0 12.828 3.759 25.373 10.817 36.086 6.074 9.215 14.252 16.598 23.666 21.666 9.425 5.079 20.085 7.854 31.122 7.854h77.245c-30.82-28.324-56.165-63.938-73.987-104.519z" fill="#fb8978"/><path d="m92.157 66.566h-61.904c-19.729 29.971-30.253 65.072-30.253 100.948v27.29h44.254c7.378-47.22 24.09-90.8 47.903-128.238z" fill="#fb8978"/><path d="m270.12 163.063h-74.104c-21.91 0-39.672 17.761-39.672 39.671 0 13.156 10.665 23.82 23.82 23.82h51.767c9.566-23.471 22.531-44.883 38.189-63.491z" fill="#34b5e1"/></g></svg>