<svg id="Capa_1" enable-background="new 0 0 497 497" height="512" viewBox="0 0 497 497" width="512" xmlns="http://www.w3.org/2000/svg"><g><path d="m63.628 97.901c-33.978 39.836-54.479 91.495-54.479 147.943 0 125.986 102.131 228.117 228.117 228.117 4.156 0 8.292-.109 12.398-.336l50.731-50.731v-104.9l-85.77-38.259v-152.374z" fill="#78cbec"/><path d="m442.784 344.927c14.476-29.96 22.589-63.582 22.589-99.083 0-55.854-20.086-107.029-53.42-146.686l-197.329 28.203v152.375l85.77 38.259z" fill="#78cbec"/><path d="m69.133 248.936c0-52.447 16.887-101.064 45.66-141.053l-51.165-9.982c-33.978 39.836-54.479 91.495-54.479 147.943 0 119.107 91.287 216.875 207.712 227.199-87.225-39.202-147.728-124.801-147.728-224.107z" fill="#34b5e1"/><path d="m442.784 344.927c-35.175 72.853-107.949 124.136-193.121 128.698l-5.927-14.387c-3.8-9.225-.707-19.823 7.371-25.587 5.65-4.007 8.994-10.508 8.994-17.434-.476-4.135 2.045-13.562-5.788-21.916l-11.171-11.913c-6.857-7.312-7.718-18.414-2.068-26.695l2.998-4.393c8.024-11.774 2.523-27.952-11.003-32.395l-32.434-10.646c-2.978-.98-5.482-3.008-7.055-5.719l-22.243-38.262c-4.838-8.341-16.831-8.499-21.896-.287l-5.323 8.628c-2.355 3.809-6.481 6.065-10.854 6.065-8.384 0-14.466-7.917-12.368-15.989l11.517-44.09c.91-3.513 3.285-6.471 6.511-8.133l23.47-12.081c5.29-2.712 7.859-8.629 6.619-14.119-2.177-9.805-10.073-17.315-19.967-19.007-11.982-2.502-19.656-1.964-29.258-7.797l-34.057-20.67c-8.42-5.115-14.624-13.199-17.375-22.658l-4.73-16.237v-.01c41.844-49.057 104.1-80.165 173.638-80.165 70.122 0 132.853 31.643 174.687 81.432l-9.271 16.484c-3.524 6.297-10.078 10.674-17.622 11.28-7.54.604-14.258 4.997-17.83 11.656l-8.49 15.821c-4.146 7.728-12.447 12.299-21.204 11.675-5.301-.354-6.3-.524-8.826-.524-11.527 0-22.579 4.819-30.435 13.377-15.5 16.923-8.049 34.884-20.808 51.837l-19.354 25.825c-4.502 6.016-3.216 14.555 2.869 18.968l16.771 12.16c3.255 2.355 7.391 3.137 11.29 2.127 22.914-5.712 24.393-6.936 30-6.936 6.887 0 13.585 2.731 18.542 7.767 14.061 14.288 29.399 3.043 43.961 10.805 12.893 6.952 14.185 7.24 17.058 9.469z" fill="#b0ebce"/><g><g><path d="m150.187 128.544c-4.142 0-7.5-3.358-7.5-7.5v-16.732c0-4.142 3.358-7.5 7.5-7.5s7.5 3.358 7.5 7.5v16.732c0 4.142-3.358 7.5-7.5 7.5z" fill="#423e4f"/></g><g><path d="m324.335 128.544c-4.142 0-7.5-3.358-7.5-7.5v-16.732c0-4.142 3.358-7.5 7.5-7.5s7.5 3.358 7.5 7.5v16.732c0 4.142-3.358 7.5-7.5 7.5z" fill="#423e4f"/></g><g><path d="m214.301 138.504c-1.748 0-3.503-.607-4.925-1.846-3.123-2.722-3.448-7.459-.727-10.582 7.217-8.281 17.646-13.031 28.609-13.031 10.967 0 21.396 4.75 28.613 13.031 2.721 3.123 2.396 7.86-.727 10.582-3.122 2.721-7.859 2.396-10.582-.727-4.367-5.011-10.674-7.886-17.305-7.886-6.627 0-12.933 2.875-17.3 7.886-1.481 1.702-3.563 2.573-5.656 2.573z" fill="#423e4f"/></g></g><path d="m149.758 383.334c-8.482-3.75-12.523-13.501-9.179-22.152l.014-.036c5.438-14.066-8.4-27.904-22.465-22.466l-.037.014c-8.65 3.344-18.402-.696-22.151-9.179-6.099-13.796-25.676-13.796-31.774 0-3.75 8.482-13.501 12.523-22.151 9.178l-.036-.014c-14.066-5.439-27.904 8.4-22.466 22.465l.014.037c3.344 8.65-.696 18.402-9.178 22.151-13.796 6.099-13.796 25.676 0 31.774 8.482 3.75 12.523 13.501 9.178 22.151l-.014.036c-5.438 14.066 8.4 27.904 22.465 22.466l.037-.014c8.65-3.344 18.402.696 22.151 9.178 6.099 13.796 25.676 13.796 31.774 0 3.75-8.482 13.501-12.523 22.151-9.178l.036.014c14.066 5.439 27.904-8.4 22.466-22.465l-.014-.037c-3.344-8.65.696-18.402 9.178-22.151 13.797-6.096 13.797-25.673.001-31.772z" fill="#ff748f"/><path d="m384.795 93.734c6.355 2.809 9.383 10.116 6.877 16.597l-.01.027c-4.075 10.538 6.293 20.907 16.832 16.832l.027-.011c6.481-2.506 13.787.522 16.597 6.877 4.569 10.337 19.237 10.337 23.807 0 2.809-6.355 10.116-9.383 16.597-6.877l.027.011c10.539 4.075 20.907-6.293 16.832-16.832l-.011-.028c-2.506-6.481.522-13.787 6.877-16.597 10.337-4.569 10.337-19.237 0-23.807-6.355-2.809-9.383-10.116-6.877-16.597l.011-.027c4.075-10.539-6.294-20.907-16.832-16.832l-.028.011c-6.481 2.506-13.787-.522-16.597-6.877-4.569-10.337-19.237-10.337-23.807 0-2.809 6.355-10.116 9.383-16.597 6.877l-.027-.011c-10.539-4.075-20.907 6.293-16.832 16.832l.011.028c2.506 6.481-.522 13.787-6.877 16.597-10.337 4.57-10.337 19.238 0 23.807z" fill="#ff748f"/><path d="m85.732 136.797 8.495 5.156c28.3-56.958 78.501-101.76 140.01-124.184-68.314.89-129.375 31.781-170.61 80.123v.01l4.73 16.237c2.751 9.458 8.955 17.542 17.375 22.658z" fill="#80dfb5"/><g fill="#fd5f7e"><path d="m44.486 369.554c0-10.365 1.524-20.346 4.333-29.704-2.26.072-4.569-.291-6.805-1.155l-.036-.014c-14.065-5.438-27.904 8.4-22.466 22.466l.014.037c3.344 8.65-.696 18.402-9.178 22.151-13.796 6.099-13.796 25.676 0 31.774 8.482 3.75 12.523 13.501 9.178 22.151l-.014.036c-5.438 14.066 8.4 27.904 22.465 22.466l.037-.014c8.65-3.344 18.402.696 22.151 9.178 6.099 13.796 25.676 13.796 31.774 0 1.686-3.813 4.589-6.718 8.054-8.468-34.681-13.316-59.507-48.985-59.507-90.904z"/><path d="m409.155 57.709c0-7.108.83-13.973 2.349-20.477-1.001-.133-2.001-.371-2.983-.751l-.027-.01c-10.539-4.075-20.907 6.293-16.832 16.832l.011.028c2.506 6.481-.522 13.787-6.877 16.597-10.337 4.569-10.337 19.237 0 23.807 6.355 2.81 9.383 10.116 6.877 16.597l-.01.027c-4.075 10.539 6.293 20.907 16.832 16.832l.028-.011c6.481-2.506 13.787.522 16.597 6.877 4.569 10.337 19.237 10.337 23.807 0 .95-2.149 2.422-3.906 4.194-5.209-25.335-8.525-43.966-37.136-43.966-71.139z"/></g></g></svg>