<svg id="Capa_1" enable-background="new 0 0 497 497" height="512" viewBox="0 0 497 497" width="512" xmlns="http://www.w3.org/2000/svg"><g><g><path d="m236.353 357.771c-2.245 2.79-55.823 68.221-128.955 58.959-15.126-1.916-25.836-15.731-23.92-30.858 1.916-15.126 15.731-25.836 30.858-23.92 42.182 5.342 78.644-38.354 79-38.796z" fill="#ffd3bc"/></g><g><path d="m262.763 357.771c2.245 2.79 55.823 68.221 128.955 58.959 15.126-1.916 25.836-15.731 23.92-30.858-1.916-15.126-15.731-25.836-30.858-23.92-42.182 5.342-78.644-38.354-79-38.796z" fill="#ffbe9c"/></g><path d="m192.528 338.682s-24.777 22.52-24.777 68.533l59.368 49.794h42.764l59.368-49.794c0-46.013-24.777-68.533-24.777-68.533z" fill="#78cbec"/><path d="m203.777 383.318c0-16.283 4.953-31.534 13.584-44.636h-24.833s-24.777 22.52-24.777 68.533l59.368 49.793h21.12c-26.796-15.836-44.462-42.926-44.462-73.69z" fill="#34b5e1"/><g><path d="m151.238 475.12 37.607 11.821 36.866-29.516-15.137-39.575-37.607-11.821c-19.074-6.007-39.403 4.597-45.41 23.681-5.997 19.074 4.607 39.413 23.681 45.41z" fill="#5c586f"/></g><g><path d="m345.762 475.12-37.607 11.821-36.866-29.516 15.137-39.575 37.607-11.821c19.074-6.007 39.403 4.597 45.41 23.681 5.997 19.074-4.607 39.413-23.681 45.41z" fill="#5c586f"/></g><path d="m308.155 486.941-26.645 8.383c-19.045 5.988-39.393-4.568-45.41-23.681-5.997-19.074 4.597-39.413 23.681-45.41l26.645-8.383z" fill="#ffbe9c"/><path d="m188.845 486.941 26.645 8.383c19.045 5.988 39.393-4.568 45.41-23.681 5.997-19.074-4.597-39.413-23.681-45.41l-26.645-8.383z" fill="#ffd3bc"/><circle cx="249.558" cy="349.86" fill="#ffbe9c" r="36.69"/><path d="m403.018 74.069c6.449-18.655 5.468-37.436 2.778-51.766-2.654-14.133-15.782-23.789-30.065-22.115-25.878 3.033-71.94 7.272-127.23 7.272-101.598 0-184.255 82.656-184.255 184.255h368.509c0-35.376-10.024-68.454-27.378-96.547-3.91-6.328-4.79-14.068-2.359-21.099z" fill="#b2b0bc"/><path d="m266.518 7.309c-5.885.097-11.891.151-18.018.151-101.598 0-184.255 82.656-184.255 184.255h70.88c5-75.454 58.535-154.797 131.393-184.406z" fill="#a19dae"/><circle cx="393.769" cy="204.595" fill="#ffbe9c" r="49.355"/><path d="m154.011 104.816c81.76 27.348 109.582-34.126 168.102-19.694 10.663 2.63 20.402 8.197 28.232 15.898 26.854 26.405 43.49 63.167 43.423 103.819-.131 79.395-64.818 144.456-144.211 145.021-80.716.575-146.327-64.683-146.327-145.265 0-36.647 13.571-70.125 35.96-95.683 3.688-4.209 9.514-5.871 14.821-4.096z" fill="#ffd3bc"/><path d="m248.5 249.177c-21.748 27.185-53.792 15.919-70.693 6.992-4.099-2.165-4.391-7.858-.593-10.515 9.688-6.778 15.328-21.622 23.331-29.08 12.432-11.587 33.85-18.625 47.955-5.837 14.105-12.788 35.523-5.75 47.955 5.837 8.002 7.458 13.643 22.301 23.331 29.08 3.798 2.658 3.506 8.35-.593 10.515-16.901 8.927-48.945 20.193-70.693-6.992z" fill="#5c586f"/><g><g><path d="m321.847 201.498c-9.578 0-18.688-4.149-24.992-11.382-2.721-3.123-2.396-7.86.727-10.582 3.124-2.721 7.861-2.396 10.582.727 3.455 3.964 8.442 6.238 13.683 6.238 5.242 0 10.229-2.273 13.684-6.238 2.721-3.123 7.459-3.447 10.582-.727 3.123 2.722 3.448 7.459.727 10.582-6.305 7.233-15.415 11.382-24.993 11.382z" fill="#423e4f"/></g><g><path d="m175.153 201.498c-9.579 0-18.688-4.149-24.992-11.383-2.721-3.123-2.396-7.86.727-10.582s7.86-2.396 10.582.727c3.454 3.964 8.441 6.237 13.683 6.237s10.229-2.273 13.683-6.237c2.722-3.124 7.459-3.448 10.582-.727s3.448 7.458.727 10.582c-6.304 7.234-15.413 11.383-24.992 11.383z" fill="#423e4f"/></g></g><path d="m210.777 344.907c-46.207-32.495-76.049-83.893-76.049-141.749 0-32.331 9.32-65.895 25.604-96.382-2.074-.598-4.175-1.242-6.322-1.96-5.307-1.775-11.133-.113-14.82 4.095-11.993 13.69-21.452 29.655-27.654 47.159-2.487-.536-5.236-.831-8.307-.831-27.258 0-49.355 22.097-49.355 49.354 0 27.258 22.097 49.355 49.355 49.355 3.071 0 5.82-.295 8.308-.832 15.852 44.731 52.991 79.388 99.24 91.791z" fill="#ffbe9c"/></g></svg>