<svg id="Capa_1" enable-background="new 0 0 497 497" height="512" viewBox="0 0 497 497" width="512" xmlns="http://www.w3.org/2000/svg"><g><path d="m470.718 26.282c-35.042-35.042-92.06-35.042-127.103 0l-51.604 51.604 35.138 35.138 51.604-51.604c15.667-15.667 41.16-15.667 56.827 0s15.667 41.16 0 56.827l-51.604 51.604 35.138 35.138 51.604-51.604c35.043-35.043 35.043-92.061 0-127.103z" fill="#5c586f"/><path d="m169.851 383.976-51.604 51.604c-15.667 15.667-41.16 15.667-56.827 0s-15.667-41.16 0-56.827l51.604-51.604-35.138-35.138-51.604 51.604c-35.042 35.042-35.042 92.06 0 127.103 35.042 35.042 92.061 35.042 127.103 0l51.604-51.604z" fill="#5c586f"/><g fill="#4f4c5f"><path d="m292.011 77.886 35.138 35.138 44.629-44.629-13.664-13.664c-7.454-7.454-16.041-13.354-25.362-17.585z"/><path d="m458.534 165.569c-6.965-13.771-16.106-26.524-27.238-37.656l-2.691-2.691-44.629 44.629 35.138 35.138z"/></g><g fill="#4f4c5f"><path d="m37.189 332.709c4.195 9.289 10.063 17.925 17.543 25.405l13.664 13.664 44.628-44.628-35.138-35.138z"/><path d="m204.989 419.114-35.138-35.138-44.629 44.629 2.706 2.707c11.075 11.075 23.825 20.243 37.614 27.249z"/></g><path d="m410.083 149.127-73.182-73.182c-16.807-16.806-42.374-21.241-63.843-11.044-46.678 22.171-84.489-11.473-152.059 56.097-67.571 67.571-33.927 105.381-56.098 152.059-10.197 21.469-5.763 47.037 11.044 63.844l73.197 73.198c25.657 25.657 61.778 38.313 97.736 33.452 35.195-4.758 80.178-22.066 127.393-69.28 46.323-46.323 63.858-90.498 68.997-125.389 5.392-36.609-7.02-73.59-33.185-99.755z" fill="#b2b0bc"/><path d="m145.222 253.591c0-70.791 25.497-134.409 66.036-178.304-25.413 2.115-53.411 8.862-90.259 45.711-67.571 67.571-33.927 105.381-56.098 152.059-10.197 21.469-5.763 47.037 11.044 63.844l73.197 73.198c20.121 20.121 46.677 32.242 74.543 34.193-47.687-43.814-78.463-112.927-78.463-190.701z" fill="#a19dae"/><path d="m371.431 187.778-73.182-73.182c-.465-.465-1.164-.594-1.739-.321-26.47 12.572-50.055 13.787-69.007 14.764-24.486 1.262-39.266 2.024-67.854 30.611-28.587 28.587-29.349 43.367-30.61 67.853-.976 18.952-2.192 42.538-14.764 69.007-.273.575-.145 1.275.32 1.74l73.198 73.198c13.752 13.752 33.102 20.457 51.762 17.934 32.456-4.387 64.776-22.475 96.063-53.762 30.833-30.833 48.856-62.695 53.57-94.702 2.846-19.311-3.793-39.176-17.757-53.14z" fill="#fff"/><g><g><path d="m200.116 295.153c-2.929-2.929-2.929-7.678 0-10.606l84.432-84.432c2.929-2.929 7.678-2.929 10.606 0 2.929 2.929 2.929 7.678 0 10.606l-84.432 84.432c-2.929 2.93-7.678 2.929-10.606 0z" fill="#dadada"/></g></g><g><g><path d="m170.793 262.732c-5.364 0-9.066-5.547-6.853-10.542 7.488-16.892 20.568-35.152 36.833-51.417s34.525-29.346 51.417-36.833c3.784-1.679 8.217.03 9.895 3.817 1.679 3.787-.03 8.217-3.817 9.896-15.245 6.758-31.897 18.735-46.889 33.726-14.99 14.991-26.968 31.643-33.726 46.889-1.24 2.8-3.984 4.464-6.86 4.464z" fill="#dadada"/></g></g><g><g><path d="m233.183 327.51c-1.679-3.787.03-8.217 3.817-9.896 15.246-6.758 31.897-18.735 46.889-33.726 14.99-14.99 26.967-31.642 33.726-46.889 1.678-3.787 6.109-5.496 9.896-3.817 3.787 1.678 5.496 6.109 3.817 9.896-7.488 16.893-20.569 35.153-36.833 51.417-16.265 16.265-34.525 29.345-51.417 36.833-3.786 1.679-8.217-.03-9.895-3.818z" fill="#dadada"/></g></g><path d="m145.222 253.591c0-34.203 5.964-66.725 16.687-96.166-.745.725-1.495 1.46-2.259 2.224-28.587 28.587-29.349 43.367-30.61 67.853-.976 18.952-2.192 42.538-14.764 69.007-.273.575-.145 1.275.32 1.74l45.054 45.054c-9.297-27.714-14.428-57.99-14.428-89.712z" fill="#e5e5e5"/></g></svg>