<svg id="Capa_1" enable-background="new 0 0 497 497" height="512" viewBox="0 0 497 497" width="512" xmlns="http://www.w3.org/2000/svg"><g><path d="m354.311 256.354c31.518 0 57.069-25.551 57.069-57.069s-25.551-57.069-57.069-57.069c-5.451 0-10.716.78-15.708 2.207-5.349-34.365-35.067-60.665-70.933-60.665-27.665 0-51.659 15.657-63.647 38.584-9.96-8.482-22.863-13.612-36.971-13.612-29.676 0-54.053 22.653-56.803 51.609-4.722-.977-9.613-1.494-14.624-1.494-39.651 0-71.795 32.144-71.795 71.795s32.144 71.795 71.795 71.795z" fill="#c1e9fa"/><path d="m267.67 313.215-133.835-34.891-110.005 34.891 33.07 128.912c6.031 23.51 27.22 39.949 51.491 39.949h167.095z" fill="#36d39a"/><path d="m53.715 196.438c0-9.376 1.592-18.466 4.567-27.124-20.659 12.606-34.452 35.354-34.452 61.327 0 39.651 32.144 71.795 71.795 71.795l43.947-7.829c-50.362-15.796-85.857-53.795-85.857-98.169z" fill="#90d3f1"/><path d="m63.128 300.751-39.298 12.464 33.07 128.912c6.031 23.51 27.22 39.949 51.491 39.949h27.311c-43.732-39.419-72.485-105.911-72.574-181.325z" fill="#00c67f"/><path d="m23.83 243.434c-13.161 0-23.83 10.669-23.83 23.83v22.12c0 13.161 10.669 23.83 23.83 23.83h243.84v-69.781h-243.84z" fill="#80dfb5"/><circle cx="66.454" cy="63.497" fill="#90d3f1" r="39.48"/><circle cx="457.52" cy="102.977" fill="#90d3f1" r="39.48"/><circle cx="335.391" cy="41.282" fill="#c1e9fa" r="26.359"/><path d="m329.978 203.804h-59.615c-32.697 0-56.999 30.257-49.946 62.184l8.286 37.509c5.74 25.982 5.74 52.904 0 78.886l-8.286 37.509c-7.053 31.927 17.249 62.184 49.946 62.184h59.615z" fill="#fccb88"/><path d="m487.489 382.383c-5.74-25.982-5.74-52.904 0-78.886l8.286-37.509c7.053-31.927-17.249-62.184-49.946-62.184h-115.851c-32.697 0-56.999 30.257-49.946 62.184l8.286 37.509c5.74 25.982 5.74 52.904 0 78.886l-8.286 37.509c-7.053 31.927 17.249 62.184 49.946 62.184h115.851c32.697 0 56.999-30.257 49.946-62.184z" fill="#f9ed80"/><g><g><path d="m327.647 352.596c-4.143 0-7.5-3.358-7.5-7.5v-11.579c0-4.142 3.357-7.5 7.5-7.5s7.5 3.358 7.5 7.5v11.579c0 4.142-3.358 7.5-7.5 7.5z" fill="#423e4f"/></g><g><path d="m448.161 352.596c-4.143 0-7.5-3.358-7.5-7.5v-11.579c0-4.142 3.357-7.5 7.5-7.5s7.5 3.358 7.5 7.5v11.579c0 4.142-3.357 7.5-7.5 7.5z" fill="#423e4f"/></g><g><path d="m387.903 359.488c-8.257 0-16.107-3.576-21.54-9.81-2.722-3.123-2.396-7.861.728-10.582 3.122-2.72 7.859-2.396 10.581.728 2.583 2.964 6.313 4.665 10.231 4.665 3.92 0 7.649-1.7 10.232-4.665 2.721-3.123 7.458-3.449 10.581-.728s3.449 7.459.728 10.582c-5.432 6.235-13.283 9.81-21.541 9.81z" fill="#423e4f"/></g></g><path d="m63.125 300.4c0-19.705 1.968-38.798 5.638-56.966h-44.933c-13.161 0-23.83 10.669-23.83 23.83v22.12c0 13.161 10.669 23.83 23.83 23.83h39.582c-.183-4.241-.287-8.511-.287-12.814z" fill="#36d39a"/></g></svg>