<svg id="Capa_1" enable-background="new 0 0 497 497" height="512" viewBox="0 0 497 497" width="512" xmlns="http://www.w3.org/2000/svg"><g><path d="m373.679 114.9-63.431-40.073-74.274-37.417-74.264 37.417-42.919 40.353c-26.064 24.501-40.844 58.681-40.844 94.445v95.878l158.031 26.405 183.074-26.405v-108.283c.001-33.409-17.125-64.483-45.373-82.32zm-9.74 128.676c0 9.439-7.656 17.095-17.095 17.095h-43.37c-9.44 0-17.095-7.656-17.095-17.095v-94.626c0-13.468 14.841-21.645 26.224-14.46l31.645 19.991c12.336 7.786 19.691 21.144 19.691 35.734z" fill="#78cbec"/><path d="m419.053 432.737c0 5.622-.732 11.183-2.174 16.564-1.433 5.391-3.567 10.582-6.363 15.452-11.465 19.952-32.719 32.247-55.726 32.247h-212.57c-11.504 0-22.567-3.076-32.197-8.638-9.62-5.572-17.797-13.628-23.529-23.609-5.592-9.74-8.548-20.783-8.548-32.016l158.031-22.375z" fill="#78cbec"/><path d="m150.682 422.439-72.734 10.298c0 11.233 2.956 22.276 8.548 32.016 5.732 9.98 13.909 18.037 23.529 23.609 9.63 5.562 20.693 8.638 32.197 8.638h47.625c-15.626-22.639-28.843-47.665-39.165-74.561z" fill="#34b5e1"/><path d="m125.166 282.449c0-86.681 27.548-165.789 72.897-225.938l-36.353 18.316-42.919 40.354c-26.064 24.5-40.844 58.681-40.844 94.445v95.878l48.437 8.093c-.791-10.261-1.218-20.645-1.218-31.148z" fill="#34b5e1"/><path d="m273.567 0h-75.177c-20.256 0-36.677 16.421-36.677 36.677v38.15h148.531v-38.15c0-20.256-16.421-36.677-36.677-36.677z" fill="#c1e9fa"/><path d="m77.947 305.504h341.105v127.233h-341.105z" fill="#c1e9fa"/><g><g><path d="m168.491 379.732c-4.143 0-7.5-3.358-7.5-7.5v-15.375c0-4.142 3.357-7.5 7.5-7.5s7.5 3.358 7.5 7.5v15.375c0 4.142-3.357 7.5-7.5 7.5z" fill="#423e4f"/></g><g><path d="m328.51 379.732c-4.143 0-7.5-3.358-7.5-7.5v-15.375c0-4.142 3.357-7.5 7.5-7.5s7.5 3.358 7.5 7.5v15.375c0 4.142-3.358 7.5-7.5 7.5z" fill="#423e4f"/></g><g><path d="m248.5 388.884c-10.252 0-20.001-4.44-26.748-12.182-2.722-3.123-2.396-7.86.727-10.582 3.122-2.721 7.86-2.396 10.582.727 3.897 4.473 9.525 7.038 15.439 7.038s11.542-2.565 15.441-7.038c2.721-3.123 7.459-3.447 10.581-.726 3.123 2.722 3.447 7.459.726 10.582-6.748 7.741-16.497 12.181-26.748 12.181z" fill="#423e4f"/></g></g><g fill="#90d3f1"><path d="m125.841 305.504h-47.893v127.233h76.883c-16.257-38.824-26.408-81.808-28.99-127.233z"/><path d="m185.124 69.351c0-27.883 11.337-52.808 29.144-69.351h-15.878c-20.256 0-36.677 16.421-36.677 36.677v38.15h23.564c-.098-1.812-.153-3.637-.153-5.476z"/></g></g></svg>