<svg id="Capa_1" enable-background="new 0 0 497 497" height="512" viewBox="0 0 497 497" width="512" xmlns="http://www.w3.org/2000/svg"><g><path d="m373.118 497c0-95.943-69.863-126.528-69.863-126.528h-109.51s-69.863 30.585-69.863 126.528z" fill="#c1e9fa"/><path d="m280.122 497-17.231-81.81h-28.782l-17.231 81.81z" fill="#ff748f"/><path d="m148.337 486.624c0-57.275 42.904-105.064 99.953-116.153h-54.544s-69.863 30.585-69.863 126.528h24.937c-.314-3.419-.483-6.878-.483-10.375z" fill="#90d3f1"/><path d="m222.439 368.357v25.107c0 14.393 11.668 26.061 26.061 26.061s26.061-11.668 26.061-26.061v-25.107z" fill="#ff889e"/><g><path d="m169.164 497v-44.76c0-4.142 3.358-7.5 7.5-7.5s7.5 3.358 7.5 7.5v44.76z" fill="#90d3f1"/></g><path d="m40.661 207.839c0-114.603 93.236-207.839 207.839-207.839s207.839 93.236 207.839 207.839z" fill="#5c586f"/><path d="m118.598 188.532c0-80.193 39.84-150.001 98.648-186.183-99.828 15.12-176.585 101.508-176.585 205.49h78.727c-.513-6.361-.79-12.797-.79-19.307z" fill="#4f4c5f"/><circle cx="420.111" cy="207.839" fill="#ffbd86" r="46.993"/><path d="m415.087 166.44c-4.619-18.652-23.965-29.651-42.354-24.077-20.731 6.284-43.824 9.791-68.164 9.791-49.858 0-94.458-14.706-124.272-37.848-3.667-2.846-8.892-2.422-11.976 1.048-18.507 20.826-46.601 32.792-67.511 39.259-11.131 3.442-19.533 12.744-21.487 24.23-1.604 9.425-2.438 19.112-2.438 28.994-.002 95.064 77.838 172.312 172.9 171.614 94.189-.691 170.329-77.257 170.329-171.61 0-14.272-1.743-28.14-5.027-41.401z" fill="#fed2a4"/><path d="m377.7 322.695c-13.805 0-24.996 11.191-24.996 24.996v53.349h49.992v-53.349c0-13.805-11.191-24.996-24.996-24.996z" fill="#5c586f"/><path d="m361.705 383.623c0-23.742 10.093-44.938 25.899-58.885-3.038-1.313-6.385-2.043-9.905-2.043-13.805 0-24.996 11.191-24.996 24.996v53.35h10.882c-1.216-5.597-1.88-11.422-1.88-17.418z" fill="#4f4c5f"/><path d="m402.696 384.364h-49.992c-9.379 0-16.983 7.603-16.983 16.983v32.643c0 9.379 7.603 16.983 16.983 16.983h49.992c9.379 0 16.983-7.603 16.983-16.983v-32.643c-.001-9.38-7.604-16.983-16.983-16.983z" fill="#ff889e"/><path d="m352.704 423.218c0-13.954 3.365-27.144 9.342-38.854h-9.342c-9.379 0-16.983 7.603-16.983 16.982v32.643c0 9.379 7.603 16.982 16.983 16.982h4.625c-2.998-8.722-4.625-18.053-4.625-27.753z" fill="#ff748f"/><path d="m377.7 443.565c-19.527 0-35.357 15.83-35.357 35.357 0 9.984 8.094 18.078 18.078 18.078h34.557c9.984 0 18.078-8.094 18.078-18.078.001-19.527-15.829-35.357-35.356-35.357z" fill="#fed2a4"/><path d="m221.633 377.334c-61.206-35.359-103.035-106.63-103.035-188.802 0-14.318 1.279-28.302 3.7-41.826-7.527 3.256-14.867 5.859-21.486 7.906-4.93 1.525-9.321 4.203-12.857 7.707-3.336-.962-7.019-1.474-11.065-1.474-25.954 0-46.993 21.04-46.993 46.993s21.039 46.993 46.993 46.993c2.252 0 4.385-.168 6.416-.475 17.987 63.693 71.946 112.468 138.327 122.978z" fill="#ffbd86"/><g fill="#ff889e"><ellipse cx="148.336" cy="239.679" rx="36.958" ry="29.432"/><ellipse cx="348.663" cy="239.679" rx="36.958" ry="29.432"/></g><g><path d="m169.876 218.847c-4.142 0-7.5-3.358-7.5-7.5v-15.108c0-4.142 3.358-7.5 7.5-7.5s7.5 3.358 7.5 7.5v15.108c0 4.142-3.358 7.5-7.5 7.5z" fill="#423e4f"/></g><g><path d="m327.124 218.847c-4.142 0-7.5-3.358-7.5-7.5v-15.108c0-4.142 3.358-7.5 7.5-7.5s7.5 3.358 7.5 7.5v15.108c0 4.142-3.358 7.5-7.5 7.5z" fill="#423e4f"/></g><g><path d="m248.5 227.841c-10.112 0-19.728-4.38-26.383-12.017-2.721-3.123-2.396-7.86.727-10.582 3.123-2.721 7.86-2.396 10.582.727 3.805 4.367 9.3 6.871 15.074 6.871 5.775 0 11.27-2.504 15.075-6.871 2.721-3.124 7.459-3.448 10.582-.727s3.448 7.459.727 10.582c-6.656 7.637-16.272 12.017-26.384 12.017z" fill="#423e4f"/></g></g></svg>