<svg id="Capa_1" enable-background="new 0 0 497 497" height="512" viewBox="0 0 497 497" width="512" xmlns="http://www.w3.org/2000/svg"><g><path d="m494.283 73.547h-68.853v-49.352h-48.654v49.352h-85.836c-13.435 0-24.327 10.892-24.327 24.327v45.818l24.327 18.697 24.327-18.697v-21.491h40.875c-.152 1.51-.231 3.041-.231 4.591 0 24.959 20.233 45.191 45.191 45.191 24.959 0 45.191-20.233 45.191-45.191 0-1.55-.079-3.081-.231-4.591h48.22v-48.654z" fill="#dadada"/><path d="m412.081 312.135c12.762 0 23.108 10.346 23.108 23.108 0 12.762-10.346 23.108-23.108 23.108 12.762 0 23.108 10.346 23.108 23.108 0 12.762-10.346 23.108-23.108 23.108 12.762 0 23.108 10.346 23.108 23.108 0 12.762-10.346 23.108-23.108 23.108 12.762 0 23.108 10.346 23.108 23.108 0 12.762-10.346 23.108-23.108 23.108h-202.038v-184.864z" fill="#ffbe9c"/><path d="m133.007 285.963c-1.138-34.692 29.757-62.988 65.188-57.389l.045.007c22.522-30.985 68.72-30.985 91.242 0l.045-.007c37.829-5.977 70.488 26.681 64.51 64.51l-.007.045c30.985 22.522 30.985 68.72 0 91.242l.007.045c5.977 37.829-26.682 70.488-64.511 64.51l-.045-.007c-14.414 19.83-38.52 26.947-59.916 21.395h-96.59z" fill="#90d3f1"/><path d="m226.833 264.66c0-20.933 4.488-40.896 12.606-59.126-15.664 1.217-30.904 8.885-41.197 23.046l-.045-.007c-35.432-5.598-66.326 22.698-65.188 57.39l-.03 184.352h96.59c21.396 5.552 45.502-1.565 59.916-21.395l.045.007c27.068 4.277 51.481-11.231 60.995-34.257-71.307-18.111-123.692-78.407-123.692-150.01z" fill="#78cbec"/><path d="m177.452 274.198c-9.024-9.024-23.656-9.024-32.68 0l-43.992 43.992 32.68 32.68 43.992-43.992c9.024-9.024 9.024-23.656 0-32.68z" fill="#ffbe9c"/><path d="m206.736 312.135c12.762 0 23.108 10.346 23.108 23.108 0 12.762-10.346 23.108-23.108 23.108 12.762 0 23.108 10.346 23.108 23.108 0 12.762-10.346 23.108-23.108 23.108 12.762 0 23.108 10.346 23.108 23.108 0 12.762-10.346 23.108-23.108 23.108 12.762 0 23.108 10.346 23.108 23.108 0 12.762-10.346 23.108-23.108 23.108h-204.019v-184.864z" fill="#ffd3bc"/><circle cx="282.549" cy="297.867" fill="#c1e9fa" r="32.486"/><circle cx="128.874" cy="186.035" fill="#c1e9fa" r="26.347"/><path d="m112.527 166.837c0-.499.02-.994.041-1.488-6.112 4.825-10.041 12.294-10.041 20.686 0 14.551 11.796 26.347 26.347 26.347 7.325 0 13.949-2.991 18.725-7.816-19.844-2.725-35.072-18.577-35.072-37.729z" fill="#90d3f1"/><path d="m428.212 0h-54.219c-13.362 0-24.194 10.832-24.194 24.194 0 13.362 10.832 24.194 24.194 24.194h54.219c13.362 0 24.194-10.832 24.194-24.194 0-13.362-10.832-24.194-24.194-24.194z" fill="#b2b0bc"/><path d="m315.267 143.691h-48.654c-10.326 0-18.697 8.371-18.697 18.697s8.371 18.697 18.697 18.697h48.654c10.326 0 18.697-8.371 18.697-18.697s-8.371-18.697-18.697-18.697z" fill="#b2b0bc"/><path d="m28.245 385.908c0-27.156 8.372-52.468 22.813-73.773h-48.341v184.865h85.654c-36.432-24.944-60.126-65.407-60.126-111.092z" fill="#ffbe9c"/><g fill="#a19dae"><path d="m275.613 154.779c0-3.783.448-7.483 1.261-11.088h-10.261c-10.326 0-18.697 8.371-18.697 18.697s8.371 18.697 18.697 18.697h16.302c-4.68-8.038-7.302-16.935-7.302-26.306z"/><path d="m380.448 11.213c0-3.845.424-7.594 1.22-11.213h-7.675c-13.362 0-24.194 10.832-24.194 24.194 0 13.362 10.832 24.194 24.194 24.194h21.883c-9.561-9.719-15.428-22.789-15.428-37.175z"/></g></g></svg>