<svg id="Capa_1" enable-background="new 0 0 497 497" height="512" viewBox="0 0 497 497" width="512" xmlns="http://www.w3.org/2000/svg"><g><path d="m101.072 377.142s-57.621 40.509-57.621 119.858h410.097c0-79.349-57.621-119.858-57.621-119.858z" fill="#c1e9fa"/><path d="m83.317 488.914c0-59.122 34.932-107.547 79.223-111.772h-61.468s-57.621 40.509-57.621 119.858h40.089c-.145-2.671-.223-5.366-.223-8.086z" fill="#90d3f1"/><path d="m248.415 0c-90.975.046-164.237 74.919-164.237 165.894v167.994c0 24.124 13.595 46.168 35.13 57.04 26.377 13.316 68.478 27.244 129.192 27.244s102.814-13.927 129.192-27.244c21.535-10.872 35.13-32.916 35.13-57.04v-169.566c0-90.781-73.615-164.368-164.407-164.322z" fill="#90d3f1"/><path d="m171.9 238.313c-14.139 18.998-43.17 15.626-53.507-5.299-11.918-24.141-16.506-50.208-14.369-75.962.105-1.267 1.121-2.22 2.367-2.22h284.22c1.246 0 2.262.953 2.367 2.22 2.137 25.774-2.461 51.832-14.369 75.962-10.316 20.883-39.348 24.34-53.507 5.299z" fill="#c1e9fa"/><g><g><path d="m167.847 207.437c-4.142 0-7.5-3.358-7.5-7.5v-15.498c0-4.142 3.358-7.5 7.5-7.5s7.5 3.358 7.5 7.5v15.498c0 4.142-3.358 7.5-7.5 7.5z" fill="#423e4f"/></g><g><path d="m329.153 207.437c-4.143 0-7.5-3.358-7.5-7.5v-15.498c0-4.142 3.357-7.5 7.5-7.5s7.5 3.358 7.5 7.5v15.498c0 4.142-3.358 7.5-7.5 7.5z" fill="#423e4f"/></g></g><path d="m97.246 208.911c0-77.589 32.238-147.095 83.125-193.975-56.838 26.259-96.193 84.282-96.193 150.959v167.994c0 24.124 13.595 46.168 35.13 57.04 17.471 8.82 41.847 17.904 73.952 23.036-58.274-46.603-96.014-121.1-96.014-205.054z" fill="#78cbec"/><path d="m123.707 180.534c0-8.827.942-17.425 2.715-25.703h-20.032c-1.246 0-2.262.953-2.367 2.22-2.136 25.753 2.451 51.821 14.369 75.962 5.553 11.242 16.503 17.408 27.639 17.771-14.029-19.669-22.324-43.959-22.324-70.25z" fill="#78cbec"/><path d="m426.673 155.716c-1.814-21.803-20.36-38.887-42.214-38.887h-271.918c-21.863 0-40.4 17.084-42.214 38.887-2.585 31.242 2.826 63.486 17.765 93.736 12.815 25.951 38.276 39.468 63.776 39.328l.02-.03 47.284-77.433c-.01.01-.03.02-.04.04-8.296 6.713-16.312 15.19-23.917 25.42-13.527 18.176-41.302 14.95-51.191-5.07-11.403-23.096-15.791-48.035-13.747-72.674.1-1.212 1.072-2.124 2.264-2.124h271.918c1.192 0 2.164.912 2.264 2.124 2.044 24.659-2.355 49.588-13.747 72.674-9.87 19.98-37.645 23.286-51.191 5.07-7.615-10.24-15.631-18.717-23.927-25.44-.01-.01-.03-.02-.04-.03l47.294 77.443.02.03c25.49.15 50.941-13.336 63.776-39.328 23.596-47.795 17.484-88.335 17.765-93.736z" fill="#5c586f"/><g><path d="m372.254 497v-51.032c0-4.142 3.357-7.5 7.5-7.5s7.5 3.358 7.5 7.5v51.032z" fill="#90d3f1"/></g><g><path d="m109.746 497v-51.032c0-4.142 3.358-7.5 7.5-7.5s7.5 3.358 7.5 7.5v51.032z" fill="#90d3f1"/></g><path d="m143.967 247.792c-8.239-2.067-15.722-7.541-19.943-16.086-11.403-23.096-15.791-48.035-13.747-72.674.1-1.212 1.072-2.124 2.265-2.124h13.449c2.838-14.491 8.236-28.025 15.686-40.079h-29.136c-21.863 0-40.4 17.084-42.214 38.887-2.585 31.242 2.826 63.486 17.765 93.736 12.815 25.951 38.276 39.468 63.776 39.328l.02-.03 11.391-18.654c-7.308-6.558-13.801-14.055-19.312-22.304z" fill="#4f4c5f"/><path d="m354.54 305.74c0 32.34-47.469 58.55-106.04 58.55s-106.04-26.209-106.04-58.55c0-4.359.859-9.782 2.513-15.902 6.496-24.309 25.243-59.613 50.626-82.934.011-.021.032-.032.043-.043 15.558-14.291 33.607-24.083 52.859-24.083s37.29 9.782 52.848 24.073c.011.011.032.021.043.032 25.383 23.332 44.13 58.636 50.636 82.955 1.653 6.121 2.512 11.543 2.512 15.902z" fill="#fff"/><path d="m294.691 272.936c-12.459-21.397-24.626-31.673-24.998-32.091-8.124-7.462-16.045-11.917-21.191-11.917-6.614 0-16.705 7.478-21.147 11.946l-.741.745c-.1.113-11.927 10.03-24.358 31.405-9.924 17.065.014 38.926 19.399 42.657 16.675 3.21 36.281 3.35 53.687.001 19.427-3.737 29.304-25.649 19.349-42.746z" fill="#dadada"/></g></svg>