<svg id="Capa_1" enable-background="new 0 0 497 497" height="512" viewBox="0 0 497 497" width="512" xmlns="http://www.w3.org/2000/svg"><g><path d="m248.5 428.047c-46.65 0-90.493-18.16-123.454-51.133-32.948-32.962-51.093-76.791-51.093-123.414s18.145-90.452 51.093-123.414c32.96-32.974 76.804-51.134 123.454-51.134 96.246 0 174.547 78.302 174.547 174.547 0 96.246-78.302 174.548-174.547 174.548z" fill="#4f4c5f"/><g><path d="m248.5 132.109c-66.935 0-121.391 54.456-121.391 121.392 0 66.935 54.456 121.391 121.391 121.391 66.936 0 121.392-54.456 121.392-121.391-.001-66.937-54.457-121.392-121.392-121.392z" fill="#f9ed80"/></g><path d="m278.175 364.887c-66.786-.176-121.066-54.56-121.066-121.387 0-47.946 27.943-89.485 68.397-109.198-55.977 10.777-98.397 60.122-98.397 119.198 0 66.935 54.456 121.391 121.391 121.391 10.235 0 20.174-1.285 29.675-3.683z" fill="#fccb88"/><path d="m304.849 396.744c8.653 15.05 21.118 28.037 36.905 37.136 19.706 11.379 41.608 15.476 62.613 13.138 5.728-.638 7.991 7.162 2.817 9.7-46.663 22.895-103.51 22.876-151.902-5.076-2.308-1.319-4.572-2.713-6.79-4.137-2.203 1.424-4.467 2.818-6.775 4.137-48.391 27.951-105.237 27.97-151.891 5.077-5.174-2.539-2.91-10.337 2.818-9.7 20.997 2.335 42.899-1.763 62.601-13.139 48.242-27.806 65.46-92.027 37.607-140.343-27.801-48.209-92.124-65.391-140.358-37.608-19.694 11.377-34.194 28.297-42.671 47.649-2.312 5.278-10.198 3.339-9.809-2.41 3.502-51.85 31.938-101.073 80.33-129.013 2.278-1.319 4.557-2.563 6.88-3.762-.195-3.193-.3-6.43-.3-9.683 0-55.879 28.402-105.12 71.56-134.082 4.785-3.211 10.407 2.648 6.992 7.289-12.521 17.019-19.915 38.034-19.915 60.781 0 17.822 4.542 34.58 12.516 49.194 17.432 31.912 51.293 53.556 90.204 53.556 37.087 0 72.718-21.1 90.339-53.781 7.929-14.539 12.411-31.222 12.411-48.969 0-22.748-7.408-43.764-19.935-60.783-3.416-4.641 2.206-10.501 6.992-7.29 43.161 28.962 71.565 78.204 71.565 134.085 0 3.193-.09 6.355-.27 9.488 2.443 1.259 4.856 2.578 7.27 3.957 48.399 27.943 76.836 77.175 80.332 129.033.388 5.75-7.498 7.689-9.809 2.411-8.477-19.36-22.978-36.288-42.688-47.669-48.42-27.96-112.42-10.813-140.343 37.608-18.761 32.535-17.1 72.237.704 103.206z" fill="#5c586f"/><ellipse cx="248.5" cy="257.5" fill="#f9ed80" rx="29.675" ry="29.675" transform="matrix(.811 -.585 .585 .811 -103.657 193.906)"/></g></svg>