<svg id="Capa_1" enable-background="new 0 0 497 497" height="512" viewBox="0 0 497 497" width="512" xmlns="http://www.w3.org/2000/svg"><g><path d="m453.702 192.198v67.538l-205.202 33.401-205.202-33.401v-67.538l205.202-25.019z" fill="#c1e9fa"/><path d="m453.702 426.39c0 38.993-31.617 70.61-70.61 70.61h-269.184c-38.993 0-70.61-31.617-70.61-70.61l205.202-26.478z" fill="#c1e9fa"/><path d="m159.375 26.13h178.249v126.508h-178.249z" fill="#34b5e1"/><circle cx="248.5" cy="64.009" fill="#423e4f" r="10.954"/><path d="m75.289 198.448c0-3.4.038-6.787.106-10.164l-32.098 3.914v67.538l36.551 5.95c-2.988-21.755-4.559-44.235-4.559-67.238z" fill="#90d3f1"/><path d="m453.702 26.13v166.067h-410.404v-166.067c0-14.429 11.701-26.13 26.13-26.13h84.716c14.429 0 26.13 11.701 26.13 26.13v32.789c0 37.498 29.829 68.751 67.316 69.236 38.094.495 69.135-30.233 69.135-68.215v-33.81c0-14.429 11.701-26.13 26.13-26.13h84.716c14.43 0 26.131 11.701 26.131 26.13z" fill="#78cbec"/><path d="m128.558 415.388-85.26 11.001c0 38.993 31.617 70.61 70.61 70.61h80.141c-25.116-21.447-47.299-49.154-65.491-81.611z" fill="#90d3f1"/><path d="m43.298 259.736h410.404v166.654h-410.404z" fill="#78cbec"/><path d="m254.682 230.884c-3.444-3.35-8.919-3.35-12.364 0-123.228 119.84-90.075 226.872 6.182 226.872 96.258-.001 129.41-107.032 6.182-226.872z" fill="#34b5e1"/><g><g><path d="m196.46 374.472c-4.143 0-7.5-3.358-7.5-7.5v-10c0-4.142 3.357-7.5 7.5-7.5s7.5 3.358 7.5 7.5v10c0 4.143-3.357 7.5-7.5 7.5z" fill="#423e4f"/></g><g><path d="m300.539 374.472c-4.143 0-7.5-3.358-7.5-7.5v-10c0-4.142 3.357-7.5 7.5-7.5s7.5 3.358 7.5 7.5v10c0 4.143-3.357 7.5-7.5 7.5z" fill="#423e4f"/></g><g><path d="m248.5 380.425c-7.427 0-14.488-3.216-19.375-8.823-2.722-3.123-2.396-7.86.727-10.582 3.122-2.721 7.859-2.397 10.582.727 2.037 2.337 4.977 3.678 8.066 3.678s6.028-1.34 8.065-3.678c2.721-3.124 7.457-3.448 10.582-.727 3.122 2.721 3.448 7.459.727 10.582-4.886 5.607-11.948 8.823-19.374 8.823z" fill="#423e4f"/></g></g><g fill="#34b5e1"><path d="m79.066 259.736h-35.768v166.654h91.687c-28.268-46.402-48.054-103.588-55.919-166.654z"/><path d="m118.876 0h-49.448c-14.429 0-26.13 11.701-26.13 26.13v166.068h32.035c.882-71.38 16.845-137.513 43.543-192.198z"/></g></g></svg>