<svg id="Capa_1" enable-background="new 0 0 497 497" height="512" viewBox="0 0 497 497" width="512" xmlns="http://www.w3.org/2000/svg"><g><path d="m229.334 61.79c-10.775-16.63-13.656-38.207-14.37-50.959-.343-6.132-5.47-10.902-11.611-10.83-62.964.738-87.082 16.719-86.188 31.738l7.109 28.276 32.299 26.265z" fill="#ccccca"/><path d="m353.76 135.261s22.214-20.881 26.057-85.777c.734-12.399-7.975-23.38-20.236-25.362-23.862-3.857-68.436-4.134-134.662 22.76-58.997 23.958-106.539 5.297-107.755-15.143 0 80.362 26.076 103.522 26.076 103.522l105.26 34.074z" fill="#dadada"/><path d="m63.946 184.543v235.298c0 42.614 34.546 77.159 77.159 77.159h214.788c42.614 0 77.159-34.545 77.159-77.159v-235.298z" fill="#f9ed80"/><path d="m91.86 327.513c0-52.935 14.862-102.121 40.32-142.97h-68.234v235.297c0 42.614 34.546 77.16 77.159 77.16h10.05c-36.899-45.192-59.295-104.512-59.295-169.487z" fill="#fccb88"/><path d="m419.078 135.261h-341.156c-19.619 0-35.524 15.905-35.524 35.524v27.515c0 19.619 15.905 35.524 35.524 35.524h341.156c19.619 0 35.524-15.905 35.524-35.524v-27.515c0-19.619-15.905-35.524-35.524-35.524z" fill="#ff748f"/><ellipse cx="248.5" cy="361.058" fill="#fff" rx="137.964" ry="81.239"/><g><g><path d="m172.138 370.751c-4.142 0-7.5-3.358-7.5-7.5v-14.674c0-4.142 3.358-7.5 7.5-7.5s7.5 3.358 7.5 7.5v14.674c0 4.142-3.358 7.5-7.5 7.5z" fill="#423e4f"/></g><g><path d="m324.863 370.751c-4.142 0-7.5-3.358-7.5-7.5v-14.674c0-4.142 3.358-7.5 7.5-7.5s7.5 3.358 7.5 7.5v14.674c0 4.142-3.358 7.5-7.5 7.5z" fill="#423e4f"/></g><g><path d="m248.5 379.486c-9.883 0-19.282-4.281-25.787-11.745-2.721-3.123-2.396-7.86.727-10.582 3.123-2.721 7.86-2.396 10.582.727 3.655 4.194 8.932 6.599 14.478 6.599s10.824-2.405 14.479-6.6c2.721-3.123 7.458-3.447 10.582-.727 3.123 2.722 3.448 7.459.727 10.582-6.506 7.465-15.905 11.746-25.788 11.746z" fill="#423e4f"/></g></g><path d="m91.758 178.387c0-15.583 4.208-30.259 11.627-43.126h-25.463c-19.619 0-35.524 15.905-35.524 35.524v27.515c0 19.619 15.905 35.524 35.524 35.524h33.98c-12.643-15.424-20.144-34.623-20.144-55.437z" fill="#fd5f7e"/></g></svg>