<svg id="Capa_1" enable-background="new 0 0 497 497" height="512" viewBox="0 0 497 497" width="512" xmlns="http://www.w3.org/2000/svg"><g><path d="m497 116.342v45.21l-248.5 32.024-248.5-32.024v-45.21c0-41.95 34-75.95 75.95-75.95h345.1c41.95 0 75.95 34 75.95 75.95z" fill="#ff748f"/><path d="m162.545 40.392h-86.595c-41.95 0-75.95 34-75.95 75.95v45.21l72.547 9.349c20.369-51.093 51.548-96.539 89.998-130.509z" fill="#fd5f7e"/><path d="m497 161.552v253.05c0 41.94-34 75.95-75.95 75.95h-345.1c-41.95 0-75.95-34.01-75.95-75.95v-253.05z" fill="#dadada"/><path d="m379.385 210.459h-261.77c-25.733 0-46.668 20.936-46.668 46.668v137.848c0 25.733 20.936 46.668 46.668 46.668h45.849.01s.006 0 .01 0h85.007.01s.006 0 .01 0h130.876c25.732 0 46.668-20.935 46.668-46.668v-137.847c-.002-25.733-20.937-46.669-46.67-46.669zm-223.411 216.185h-38.358c-17.462 0-31.668-14.206-31.668-31.668v-25.394h70.027v57.062zm0-72.062h-70.027v-57.062h70.027zm0-72.061h-70.027v-25.393c0-17.462 14.207-31.668 31.668-31.668h38.358v57.061zm85.026 144.123h-70.026v-57.062h70.026zm0-72.062h-70.026v-57.062h70.026zm0-72.061h-70.026v-57.062h70.026zm15-57.062h70.027v57.062h-70.027zm0 72.062h70.027v57.062h-70.027zm155.053 97.455c0 17.462-14.206 31.668-31.668 31.668h-123.385v-57.062h73.827c3.416 0 6.293-2.286 7.199-5.409 2.379-1.257 4.001-3.754 4.001-6.632v-60.021h70.026zm0-112.455h-70.026v-57.062h38.358c17.462 0 31.668 14.207 31.668 31.668z" fill="#423e4f"/><g fill="#c7c5cb"><path d="m196.359 6.448c-14.327 0-25.942 11.614-25.942 25.942v35.383c0 14.327 11.614 25.942 25.942 25.942 14.327 0 25.942-11.614 25.942-25.942v-35.383c-.001-14.327-11.615-25.942-25.942-25.942z"/><path d="m300.641 6.448c-14.327 0-25.942 11.614-25.942 25.942v35.383c0 14.327 11.614 25.942 25.942 25.942 14.327 0 25.942-11.614 25.942-25.942v-35.383c0-14.327-11.615-25.942-25.942-25.942z"/><path d="m404.923 6.448c14.327 0 25.942 11.614 25.942 25.942v35.383c0 14.327-11.614 25.942-25.942 25.942-14.327 0-25.942-11.614-25.942-25.942v-35.383c.001-14.327 11.615-25.942 25.942-25.942z"/></g><circle cx="376.04" cy="394.669" fill="#ff748f" r="64.968"/><path d="m386.647 394.669 17.113-17.114c2.929-2.929 2.929-7.678 0-10.606-2.93-2.929-7.678-2.929-10.607 0l-17.113 17.113-17.113-17.113c-2.929-2.929-7.677-2.93-10.607 0-2.929 2.929-2.929 7.678 0 10.606l17.113 17.114-17.113 17.114c-2.929 2.929-2.929 7.678 0 10.606 1.465 1.464 3.385 2.197 5.304 2.197s3.839-.732 5.304-2.197l17.113-17.113 17.113 17.113c1.465 1.465 3.384 2.197 5.304 2.197 1.919 0 3.839-.732 5.304-2.197 2.929-2.929 2.929-7.678 0-10.606z" fill="#fff"/><path d="m46.193 306.344c0-50.279 10.913-99.916 30.229-144.792h-76.422v253.05c0 41.94 34 75.95 75.95 75.95h7.907c-26.556-52.449-37.664-116.556-37.664-184.208z" fill="#ccccca"/><path d="m92.077 6.448c-14.327 0-25.942 11.614-25.942 25.942v35.383c0 14.327 11.614 25.942 25.942 25.942 14.327 0 25.942-11.614 25.942-25.942v-35.383c-.001-14.327-11.615-25.942-25.942-25.942z" fill="#c7c5cb"/><path d="m85.947 25.476c0-6.52.934-12.817 2.643-18.788-12.677 1.704-22.455 12.558-22.455 25.702v35.383c0 14.327 11.614 25.942 25.942 25.942 9.535 0 17.863-5.148 22.371-12.813-17.251-12.371-28.501-32.579-28.501-55.426z" fill="#b2b0bc"/></g></svg>