<svg id="Capa_1" enable-background="new 0 0 497 497" height="512" viewBox="0 0 497 497" width="512" xmlns="http://www.w3.org/2000/svg"><g><path d="m34.407 52.448v398.768c0 25.286 20.498 45.784 45.783 45.784h117.098l51.211-20.423 51.212 20.423h117.099c25.286 0 45.783-20.498 45.783-45.783v-398.769z" fill="#ff748f"/><path d="m56.105 246.884c0-73.258 22.517-140.71 60.321-194.435h-82.019v398.768c0 25.285 20.498 45.783 45.783 45.783h86.496c-67.317-58.12-110.581-148.546-110.581-250.116z" fill="#fd5f7e"/><path d="m451.905 0h-406.81c-20.78 0-37.626 16.846-37.626 37.626v29.645c0 20.78 16.846 37.626 37.626 37.626h406.81c20.78 0 37.626-16.846 37.626-37.626v-29.645c0-20.78-16.846-37.626-37.626-37.626z" fill="#f9ed80"/><path d="m121.021 146.862c-18.894 0-34.211 15.317-34.211 34.211v34.841c0 8.429 6.833 15.262 15.262 15.262h37.9c8.429 0 15.262-6.833 15.262-15.262v-34.841c-.002-18.894-15.319-34.211-34.213-34.211z" fill="#f9ed80"/><path d="m375.979 146.862c18.894 0 34.211 15.317 34.211 34.211v34.841c0 8.429-6.833 15.262-15.262 15.262h-37.9c-8.429 0-15.262-6.833-15.262-15.262v-34.841c.002-18.894 15.319-34.211 34.213-34.211z" fill="#f9ed80"/><path d="m121.021 370.789c-18.894 0-34.211 15.317-34.211 34.211v34.841c0 8.429 6.833 15.262 15.262 15.262h37.9c8.429 0 15.262-6.833 15.262-15.262v-34.841c-.002-18.894-15.319-34.211-34.213-34.211z" fill="#f9ed80"/><path d="m197.289 422.001c0-28.283 22.928-51.211 51.211-51.211 28.283 0 51.211 22.928 51.211 51.211v75h-102.422z" fill="#c1e9fa"/><path d="m375.979 370.789c18.894 0 34.211 15.317 34.211 34.211v34.841c0 8.429-6.833 15.262-15.262 15.262h-37.9c-8.429 0-15.262-6.833-15.262-15.262v-34.841c.002-18.894 15.319-34.211 34.213-34.211z" fill="#f9ed80"/><g fill="#fff"><path d="m221.458 267.015c-2.374-5.776-8.397-5.583-8.287-5.548-3.808.003-7.071 2.376-8.345 5.732l-24.044 63.13c-1.878 4.931 1.793 10.171 7.008 10.171 3.021 0 5.87-1.84 7.01-4.833l4.148-10.892h28.279l4.103 10.871c1.462 3.876 5.79 5.833 9.665 4.369 3.875-1.463 5.831-5.79 4.368-9.665-28.656-75.931-23.118-61.411-23.905-63.335zm-16.797 42.761 8.491-22.294 8.414 22.294z"/><path d="m137.904 263.36h-17.6c-4.1 0-7.511 3.305-7.5 7.563.116 43.252-.189 60.893.151 62.566.119 1.819.89 3.54 2.191 4.832 2.392 2.374 5.413 2.197 5.313 2.177.531-.002 13.079-.05 18.091-.138 42.174-.735 43.379-77-.646-77zm.384 62.003c-2.38.042-6.625.075-10.383.098-.078-24.433-.033-17.173-.087-47.1h10.086c12.971 0 17.593 12.175 17.593 23.569 0 15.98-8.643 23.284-17.209 23.433z"/><path d="m365.583 294.451c-7.951-2.932-15.346-6.127-17.524-7.083-3.181-2.486-2.477-8.371 3.644-10.215 9.29-2.799 17.854 3.981 18.086 4.167 3.17 2.631 7.875 2.214 10.531-.945 2.665-3.171 2.256-7.902-.915-10.567-.596-.5-14.789-12.209-32.028-7.017-18.468 5.563-21.526 28.029-7.113 37.425 2.012 1.312 16.516 6.975 20.129 8.308 15.743 5.807 7.493 16.975-2.965 16.975-6.504 0-12.769-2.627-16.756-7.028-2.783-3.071-7.526-3.302-10.594-.521-3.069 2.781-3.303 7.524-.521 10.594 6.784 7.486 17.203 11.956 27.871 11.956 13.25 0 24.373-8.437 26.448-20.06 1.558-8.728-2.43-20.138-18.293-25.989z"/><path d="m308.947 262.843c-3.471-2.259-8.116-1.277-10.377 2.194l-14.01 21.521-14.163-21.692c-2.266-3.468-6.912-4.444-10.381-2.179-3.468 2.265-4.444 6.912-2.18 10.38l19.228 29.447-.075 30.466c-.01 4.142 3.34 7.508 7.481 7.519h.019c4.134 0 7.49-3.346 7.5-7.481l.075-30.493 19.076-29.304c2.261-3.472 1.279-8.118-2.193-10.378z"/><path d="m198.312 156.589h8.847v68.978c0 4.142 3.357 7.5 7.5 7.5s7.5-3.358 7.5-7.5v-76.478c0-4.142-3.357-7.5-7.5-7.5h-16.347c-4.143 0-7.5 3.358-7.5 7.5s3.357 7.5 7.5 7.5z"/><path d="m281.238 223.275c-.036 4.185 3.35 7.564 7.501 7.564 4.112 0 7.463-3.315 7.499-7.436.023-2.774.07-8.309.12-15.136h2.329c4.143 0 7.5-3.358 7.5-7.5s-3.357-7.5-7.5-7.5h-2.229c.111-18.633.174-38.977-.056-41.728-.978-11.744-13.659-16.897-21.931-6.749-4.4 5.398-26.076 44.559-30.377 52.354-2.752 4.991.863 11.123 6.567 11.123h30.694c-.036 5.319-.076 10.426-.117 15.008zm-17.835-30.007c6.937-12.427 13.757-24.404 18.156-31.8.016 7.722-.03 19.542-.103 31.8z"/></g><path d="m149.908 65.704c4.143 0 7.5-3.358 7.5-7.5v-18.946c0-4.142-3.357-7.5-7.5-7.5s-7.5 3.358-7.5 7.5v18.945c0 4.143 3.358 7.501 7.5 7.501z" fill="#423e4f"/><path d="m347.092 65.704c4.143 0 7.5-3.358 7.5-7.5v-18.946c0-4.142-3.357-7.5-7.5-7.5s-7.5 3.358-7.5 7.5v18.945c0 4.143 3.357 7.501 7.5 7.501z" fill="#423e4f"/><path d="m248.5 76.981c12.129 0 23.664-5.253 31.647-14.414 2.722-3.123 2.396-7.86-.727-10.582s-7.859-2.396-10.582.726c-5.134 5.891-12.547 9.269-20.339 9.269s-15.205-3.378-20.339-9.269c-2.722-3.123-7.46-3.448-10.582-.726-3.123 2.721-3.448 7.459-.727 10.582 7.985 9.161 19.52 14.414 31.649 14.414z" fill="#423e4f"/><path d="m88.716 393.737c-1.23 3.528-1.907 7.316-1.907 11.264v34.841c0 8.429 6.833 15.262 15.262 15.262h24.613c-14.721-18.668-27.485-39.255-37.968-61.367z" fill="#fccb88"/><path d="m69.953 43.691c0-15.554 3.04-30.336 8.501-43.691h-33.359c-20.78 0-37.626 16.846-37.626 37.626v29.645c0 20.78 16.846 37.626 37.626 37.626h42.415c-11.068-17.386-17.557-38.472-17.557-61.206z" fill="#fccb88"/></g></svg>