<svg id="Capa_1" enable-background="new 0 0 497 497" height="512" viewBox="0 0 497 497" width="512" xmlns="http://www.w3.org/2000/svg"><g><path d="m468.261 186.843-18.176-4.975-22.509 15.232 11.045 26.654 18.175 4.975c11.567 3.166 23.509-3.644 26.676-15.21 3.165-11.567-3.645-23.51-15.211-26.676z" fill="#ffbe9c"/><path d="m205.822 108.878c-3.145-11.489-15.007-18.253-26.496-15.108-11.489 3.145-18.253 15.007-15.108 26.496-3.144-11.489-15.007-18.253-26.496-15.108-11.489 3.144-18.253 15.007-15.108 26.496-3.145-11.489-15.007-18.253-26.496-15.108-11.488 3.145-18.253 15.007-15.108 26.496-3.145-11.489-15.007-18.253-26.496-15.108-11.488 3.145-18.253 15.007-15.108 26.496l29.505 107.793 90.977 6.249 75.44-51.8z" fill="#da9d81"/><path d="m442.487 127.933c-11.488-3.145-23.351 3.62-26.496 15.108 3.145-11.489-3.62-23.351-15.108-26.496-11.488-3.145-23.351 3.62-26.496 15.108 3.145-11.489-3.62-23.351-15.108-26.496-11.488-3.145-23.351 3.62-26.496 15.108 3.145-11.489-3.62-23.351-15.108-26.496-11.488-3.144-23.351 3.62-26.496 15.108l-29.504 107.793 81.713 45.551h84.704l29.505-107.793c3.143-11.487-3.621-23.35-15.11-26.495z" fill="#ffd3bc"/><g><g><path d="m248.5 47.523c-4.119 0-7.458-3.339-7.458-7.458v-32.607c0-4.119 3.338-7.458 7.458-7.458s7.458 3.339 7.458 7.458v32.608c0 4.118-3.339 7.457-7.458 7.457z" fill="#f9ed80"/></g><g><path d="m66.361 91.032-23.057-23.057c-2.912-2.912-2.912-7.634 0-10.547 2.913-2.912 7.634-2.912 10.547 0l23.057 23.057c2.912 2.912 2.912 7.634 0 10.547-2.913 2.913-7.633 2.912-10.547 0z" fill="#f9ed80"/></g><g><path d="m148.881 53.23-13.31-29.768c-1.681-3.76.004-8.171 3.764-9.852 3.758-1.681 8.171.003 9.852 3.764l13.31 29.768c1.681 3.76-.004 8.171-3.764 9.852-3.752 1.678-8.168.003-9.852-3.764z" fill="#f9ed80"/></g><g><path d="m420.091 91.032c-2.912-2.912-2.912-7.634 0-10.547l23.057-23.057c2.913-2.912 7.634-2.912 10.547 0 2.912 2.912 2.912 7.634 0 10.547l-23.057 23.057c-2.913 2.913-7.633 2.912-10.547 0z" fill="#f9ed80"/></g><g><path d="m338.266 56.994c-3.76-1.681-5.445-6.092-3.764-9.852l13.31-29.768c1.681-3.76 6.089-5.447 9.852-3.764 3.76 1.681 5.445 6.092 3.764 9.852l-13.31 29.768c-1.675 3.746-6.078 5.45-9.852 3.764z" fill="#f9ed80"/></g></g><path d="m365.919 108.266c-1.967-1.371-4.195-2.438-6.64-3.107-11.488-3.145-23.351 3.62-26.496 15.108 3.145-11.489-3.62-23.351-15.108-26.496-11.488-3.144-23.351 3.62-26.496 15.108l-29.504 107.793 19.911 11.099c24.269-48.341 53.827-89.354 84.333-119.505z" fill="#ffbe9c"/><path d="m248.5 371.687c22.939 73.616 91.435 125.313 170.439 125.313h76.657v-153.261h-55.98c-17.035 0-29.402-16.206-24.904-32.637l13.379-48.88-166.418-45.551-13.173 48.128z" fill="#ff748f"/><path d="m99.059 264.294c-23.894-39.017-38.914-86.019-41.614-136.945-.976.127-1.955.317-2.932.585-11.488 3.145-18.253 15.007-15.108 26.496l7.51 27.439-18.175 4.975c-11.566 3.166-18.376 15.109-15.21 26.675s15.109 18.376 26.675 15.21l18.175-4.975 10.53 38.469z" fill="#c7856a"/><path d="m277.003 237.094c2.313-4.833 4.686-9.589 7.103-14.282l-22.433-6.14-13.173 48.127v45.123c7.263-23.787 16.759-48.292 28.503-72.828z" fill="#fd5f7e"/><path d="m250.281 271.305-14.954-54.634-166.418 45.552 13.379 48.88c4.497 16.431-7.869 32.637-24.904 32.637h-55.98v153.26h76.656c87.45 0 162.032-63.337 176.197-149.632 4.161-25.345 2.804-51.29-3.976-76.063z" fill="#78cbec"/><path d="m93.848 255.396-24.939 6.826 13.379 48.88c4.497 16.431-7.869 32.637-24.904 32.637h-55.98v153.261h76.656c79.15 0 147.755-51.885 170.568-125.716-64.654-11.068-120.35-54.519-154.78-115.888z" fill="#34b5e1"/></g></svg>