<?xml version="1.0" encoding="iso-8859-1"?>
<!-- Generator: Adobe Illustrator 19.0.0, SVG Export Plug-In . SVG Version: 6.00 Build 0)  -->
<svg version="1.1" id="Capa_1" xmlns="http://www.w3.org/2000/svg" xmlns:xlink="http://www.w3.org/1999/xlink" x="0px" y="0px"
	 viewBox="0 0 512 512" style="enable-background:new 0 0 512 512;" xml:space="preserve">
<g>
	<path style="fill:#D4D2D3;" d="M228.95,48.263c0-3.406-1.611-6.611-4.345-8.642l-16.518-12.269
		c-3.812-2.831-9.027-2.831-12.839-0.001l-16.521,12.27c-2.734,2.032-4.346,5.236-4.346,8.642v0.592L147.172,256l27.207,207.144
		v0.593c0,3.406,1.612,6.612,4.346,8.642l16.519,12.271c3.812,2.831,9.027,2.831,12.839,0l16.519-12.271
		c2.734-2.03,4.346-5.236,4.346-8.642l27.56-221.417L228.95,48.263z"/>
	<path style="fill:#D4D2D3;" d="M364.832,256l-26.9-204.807v-2.93c0-3.406-1.611-6.611-4.345-8.642l-16.518-12.269
		c-3.812-2.831-9.027-2.831-12.839-0.001l-16.521,12.27c-2.734,2.03-4.346,5.236-4.346,8.642h-0.307l-27.559,194.056l27.56,221.417
		h0.307c0,3.406,1.612,6.612,4.346,8.642l16.519,12.271c3.812,2.831,9.027,2.831,12.839,0l16.519-12.271
		c2.734-2.03,4.346-5.236,4.346-8.642v-2.93L364.832,256z"/>
</g>
<g>
	<path style="fill:#FD6F71;" d="M147.172,256L119.887,48.264l-0.312,0.868v-0.869H46.513C20.824,48.263,0,69.087,0,94.775
		L45.256,256L0,417.223c0,25.689,20.824,46.513,46.513,46.513h73.063v-0.868l0.312,0.868L147.172,256z"/>
	<path style="fill:#FD6F71;" d="M465.49,48.263h-73.066v0.855l-0.307-0.854L364.832,256l27.285,207.737l0.307-0.854v0.854h73.066
		c25.687,0,46.51-20.823,46.51-46.51V94.772C512,69.086,491.177,48.263,465.49,48.263z"/>
</g>
<g>
	<circle style="fill:#EFEDEE;" cx="462.345" cy="110.332" r="15.453"/>
	<circle style="fill:#EFEDEE;" cx="462.345" cy="226.866" r="15.453"/>
	<circle style="fill:#EFEDEE;" cx="462.345" cy="343.4" r="15.453"/>
	<circle style="fill:#EFEDEE;" cx="442.082" cy="168.599" r="15.453"/>
	<circle style="fill:#EFEDEE;" cx="442.082" cy="285.133" r="15.453"/>
	<circle style="fill:#EFEDEE;" cx="442.082" cy="401.667" r="15.453"/>
</g>
<g>
	<polygon style="fill:#D4D2D3;" points="42.895,302.066 0,325.1 0,371.156 0,371.156 0,371.156 42.895,394.19 85.79,371.156 
		85.79,371.156 85.79,371.156 85.79,325.1 	"/>
	<polygon style="fill:#D4D2D3;" points="85.781,232.966 42.895,209.937 0.009,232.966 0,232.966 0,232.971 0,279.027 0,279.032 
		0.009,279.032 42.895,302.061 85.781,279.032 85.79,279.032 85.79,279.027 85.79,232.971 85.79,232.966 	"/>
	<polygon style="fill:#D4D2D3;" points="42.895,117.809 0,140.843 0,186.899 42.895,209.933 85.79,186.899 85.79,140.843 	"/>
</g>
<g>
	<rect y="94.776" style="fill:#EFEDEE;" width="85.793" height="46.067"/>
	<rect y="186.895" style="fill:#EFEDEE;" width="85.793" height="46.067"/>
	<rect y="279.034" style="fill:#EFEDEE;" width="85.793" height="46.067"/>
	<rect y="371.153" style="fill:#EFEDEE;" width="85.793" height="46.067"/>
</g>
<g>
	<path style="fill:#334060;" d="M40.411,126.574c-3.756,0-6.8,3.044-6.8,6.8v14.936c0,3.756,3.044,6.8,6.8,6.8h45.378v-28.537
		H40.411V126.574z"/>
	<path style="fill:#334060;" d="M40.411,172.631c-3.756,0-6.8,3.044-6.8,6.8v14.936c0,3.756,3.044,6.8,6.8,6.8h45.378V172.63H40.411
		V172.631z"/>
	<path style="fill:#334060;" d="M40.411,264.744c-3.756,0-6.8,3.045-6.8,6.8v14.936c0,3.756,3.044,6.8,6.8,6.8h45.378v-28.537
		H40.411V264.744z"/>
	<path style="fill:#334060;" d="M40.411,310.801c-3.756,0-6.8,3.045-6.8,6.8v14.936c0,3.756,3.044,6.8,6.8,6.8h45.378V310.8H40.411
		V310.801z"/>
	<path style="fill:#334060;" d="M40.411,356.857c-3.756,0-6.8,3.044-6.8,6.8v14.936c0,3.756,3.044,6.8,6.8,6.8h45.378v-28.537
		H40.411V356.857z"/>
</g>
<g>
	<path style="fill:#EFEDEE;" d="M388.078,39.62l-16.517-12.269c-3.812-2.831-9.027-2.831-12.839-0.001l-16.521,12.27
		c-2.734,2.032-4.346,5.236-4.346,8.642v415.473c0,3.406,1.612,6.612,4.346,8.642l16.519,12.271c3.812,2.831,9.027,2.831,12.839,0
		l16.519-12.271c2.734-2.03,4.346-5.236,4.346-8.642V48.263C392.425,44.857,390.813,41.652,388.078,39.62z"/>
	<path style="fill:#EFEDEE;" d="M279.096,39.62l-16.518-12.269c-3.812-2.831-9.027-2.831-12.839-0.001l-16.521,12.27
		c-2.734,2.032-4.346,5.236-4.346,8.642v415.473c0,3.406,1.612,6.612,4.346,8.642l16.519,12.271c3.812,2.831,9.027,2.831,12.839,0
		l16.519-12.271c2.734-2.03,4.346-5.236,4.346-8.642V48.263C283.441,44.857,281.83,41.652,279.096,39.62z"/>
	<path style="fill:#EFEDEE;" d="M170.112,39.62l-16.518-12.269c-3.812-2.831-9.027-2.831-12.839-0.001l-16.521,12.27
		c-2.734,2.032-4.346,5.236-4.346,8.642v415.473c0,3.406,1.612,6.612,4.346,8.642l16.519,12.271c3.812,2.831,9.027,2.831,12.839,0
		l16.519-12.271c2.734-2.03,4.346-5.236,4.346-8.642V48.263C174.457,44.857,172.846,41.652,170.112,39.62z"/>
</g>
<g>
</g>
<g>
</g>
<g>
</g>
<g>
</g>
<g>
</g>
<g>
</g>
<g>
</g>
<g>
</g>
<g>
</g>
<g>
</g>
<g>
</g>
<g>
</g>
<g>
</g>
<g>
</g>
<g>
</g>
</svg>
