<?xml version="1.0" encoding="iso-8859-1"?>
<!-- Generator: Adobe Illustrator 19.0.0, SVG Export Plug-In . SVG Version: 6.00 Build 0)  -->
<svg version="1.1" id="Capa_1" xmlns="http://www.w3.org/2000/svg" xmlns:xlink="http://www.w3.org/1999/xlink" x="0px" y="0px"
	 viewBox="0 0 512 512" style="enable-background:new 0 0 512 512;" xml:space="preserve">
<g>
	<path style="fill:#334060;" d="M100.59,49.226l-24.126,6.876C67.969,58.524,62.11,66.286,62.11,75.121v35.596
		c0,8.834,5.859,16.596,14.355,19.018l24.126,6.876l19.28-43.692L100.59,49.226z"/>
	<path style="fill:#334060;" d="M100.59,157.947l-24.126,6.876c-8.496,2.421-14.355,10.183-14.355,19.018v35.596
		c0,8.834,5.859,16.596,14.355,19.018l24.126,6.876l19.28-43.692L100.59,157.947z"/>
	<path style="fill:#334060;" d="M100.59,266.67l-24.126,6.876c-8.496,2.421-14.355,10.183-14.355,19.018v35.596
		c0,8.834,5.859,16.596,14.355,19.018l24.126,6.876l19.28-43.692L100.59,266.67z"/>
	<path style="fill:#334060;" d="M100.59,375.391l-24.126,6.876c-8.496,2.421-14.355,10.183-14.355,19.018v35.596
		c0,8.834,5.859,16.596,14.355,19.018l24.126,6.876l19.28-43.692L100.59,375.391z"/>
</g>
<path style="fill:#6EE3FF;" d="M400.664,0H149.817C122.63,0,100.59,22.039,100.59,49.226v413.549
	c0,27.186,22.039,49.225,49.226,49.225h250.847c27.186,0,49.226-22.039,49.226-49.225V49.226C449.889,22.039,427.85,0,400.664,0z"/>
<path style="fill:#42C3E2;" d="M131.496,462.774V49.225C131.496,22.039,153.535,0,180.722,0h-30.905
	C122.63,0,100.59,22.039,100.59,49.225v413.549c0,27.186,22.039,49.226,49.226,49.226h30.905
	C153.535,512,131.496,489.961,131.496,462.774z"/>
<g>
	<path style="fill:#3A484A;" d="M195.817,63.548c-4.267,0-7.726-3.459-7.726-7.726V41.447c0-4.267,3.459-7.726,7.726-7.726
		c4.267,0,7.726,3.459,7.726,7.726v14.374C203.544,60.089,200.084,63.548,195.817,63.548z"/>
	<path style="fill:#3A484A;" d="M354.663,63.548c-4.267,0-7.726-3.459-7.726-7.726V41.447c0-4.267,3.459-7.726,7.726-7.726
		s7.726,3.459,7.726,7.726v14.374C362.389,60.089,358.93,63.548,354.663,63.548z"/>
	<path style="fill:#3A484A;" d="M275.24,71.221c-9.869,0-19.135-4.124-25.42-11.314c-2.809-3.213-2.481-8.094,0.731-10.902
		c3.213-2.808,8.094-2.481,10.902,0.732c3.351,3.833,8.375,6.032,13.786,6.032c5.409,0,10.435-2.198,13.785-6.031
		c2.808-3.213,7.69-3.541,10.902-0.732c3.213,2.808,3.541,7.689,0.732,10.902C294.375,67.097,285.109,71.221,275.24,71.221z"/>
</g>
<path style="fill:#485877;" d="M161.258,344.256v81.684c0,13.062,10.583,23.656,23.646,23.656h180.674
	c13.062,0,23.646-10.594,23.646-23.656V129.452c0-13.062-10.583-23.656-23.646-23.656H184.903
	c-13.062,0-23.646,10.594-23.646,23.656v81.684l42.404,66.56L161.258,344.256z"/>
<path style="fill:#EFEDEE;" d="M246.068,231.414v92.564c0,11.197-9.081,20.278-20.268,20.278h-64.542v-133.12H225.8
	C236.986,211.136,246.068,220.217,246.068,231.414z"/>
<g>
	<path style="fill:#334060;" d="M192.163,129.452c0-13.061,10.581-23.654,23.641-23.656h-30.9c-7.347,0-13.911,3.352-18.247,8.61
		c-2.41,2.921-4.131,6.43-4.918,10.28c-0.158,0.77-0.277,1.554-0.359,2.349c-0.04,0.398-0.071,0.797-0.092,1.201
		c-0.021,0.404-0.031,0.81-0.031,1.218v81.684h30.905L192.163,129.452L192.163,129.452z"/>
	<path style="fill:#334060;" d="M184.903,449.596h30.895c-13.058-0.005-23.635-10.598-23.635-23.656v-81.684h-30.905v81.684
		C161.258,439.001,171.841,449.596,184.903,449.596z"/>
</g>
<g>
	<circle style="fill:#EFEDEE;" cx="294.982" cy="176.82" r="29.246"/>
	<circle style="fill:#EFEDEE;" cx="294.982" cy="378.571" r="29.246"/>
</g>
<rect x="161.254" y="211.136" style="fill:#D4D2D3;" width="30.905" height="133.12"/>
<g>
</g>
<g>
</g>
<g>
</g>
<g>
</g>
<g>
</g>
<g>
</g>
<g>
</g>
<g>
</g>
<g>
</g>
<g>
</g>
<g>
</g>
<g>
</g>
<g>
</g>
<g>
</g>
<g>
</g>
</svg>
