<?xml version="1.0" encoding="iso-8859-1"?>
<!-- Generator: Adobe Illustrator 19.0.0, SVG Export Plug-In . SVG Version: 6.00 Build 0)  -->
<svg version="1.1" id="Capa_1" xmlns="http://www.w3.org/2000/svg" xmlns:xlink="http://www.w3.org/1999/xlink" x="0px" y="0px"
	 viewBox="0 0 511.999 511.999" style="enable-background:new 0 0 511.999 511.999;" xml:space="preserve">
<path style="fill:#EFEDEE;" d="M489.637,75.551c4.909-12.861,12.021-29.298,19.845-40.306c3.787-5.327,3.273-12.583-1.349-17.205
	L493.959,3.866c-4.621-4.621-11.878-5.135-17.205-1.349c-11.007,7.824-27.445,14.937-40.306,19.845
	c-10.251,3.913-18.387,12.047-22.128,22.362c-6.555,18.071-22.684,37.207-22.684,37.207l7.059,31.372l31.372,7.059
	c0,0,19.136-16.13,37.207-22.684C477.59,93.938,485.725,85.803,489.637,75.551z"/>
<path style="fill:#D4D2D3;" d="M489.637,75.551c4.909-12.861,12.021-29.298,19.845-40.306c3.787-5.327,3.273-12.583-1.349-17.205
	L493.959,3.866c-0.067-0.067-0.138-0.124-0.206-0.189c4.439,4.629,4.893,11.748,1.16,16.998
	c-7.824,11.007-14.937,27.445-19.845,40.306c-3.913,10.251-12.047,18.387-22.363,22.128c-18.071,6.555-37.207,22.684-37.207,22.684
	l-19.479-4.382l2.675,11.893l31.372,7.059c0,0,19.136-16.13,37.207-22.684C477.59,93.938,485.724,85.803,489.637,75.551z"/>
<path style="fill:#EFEDEE;" d="M324.97,148.598c15.097-33.529,42.353-42.353,42.353-42.353l31.372,7.059l7.059,31.372
	c0,0-8.823,27.254-42.353,42.353l-31.372-7.059L324.97,148.598z"/>
<path style="fill:#D4D2D3;" d="M405.754,144.676l-7.059-31.372l-11.892-2.676l4.382,19.48c0,0-8.823,27.254-42.353,42.353
	l-19.479-4.382l2.676,11.892l31.372,7.059C396.931,171.931,405.754,144.676,405.754,144.676z"/>
<polygon style="fill:#EFEDEE;" points="332.029,179.97 300.657,172.912 101.403,372.166 108.461,403.538 139.833,410.597 
	339.088,211.342 "/>
<polygon style="fill:#D4D2D3;" points="332.029,179.97 320.137,177.294 324.519,196.774 125.265,396.028 105.786,391.645 
	108.461,403.538 139.833,410.597 339.088,211.342 "/>
<path style="fill:#EFEDEE;" d="M45.231,466.769l40.196,15.882c6.726-25.354,30.094-47.741,30.094-47.741l-7.059-31.372
	l-31.372-7.059c0,0-22.388,23.368-47.741,30.094L45.231,466.769z"/>
<g>
	<path style="fill:#D4D2D3;" d="M115.52,434.91l-7.059-31.372l-11.893-2.675l4.382,19.479c0,0-23.368,22.388-30.094,47.741
		l-29.753-11.756l4.126,10.443l40.196,15.882C92.153,457.297,115.52,434.91,115.52,434.91z"/>
	<path style="fill:#D4D2D3;" d="M430.067,120.363l-38.431-38.431c-6.714-6.714-17.6-6.714-24.313,0l0,0
		c-6.714,6.714-6.714,17.6,0,24.313l38.431,38.431c6.714,6.714,17.6,6.714,24.313,0l0,0
		C436.781,137.963,436.781,127.077,430.067,120.363z"/>
</g>
<path style="fill:#B8B8B8;" d="M430.067,120.363l-14.569-14.569c6.714,6.714,6.714,17.6,0,24.313l0,0
	c-6.714,6.714-17.6,6.714-24.313,0l14.569,14.569c6.714,6.714,17.6,6.714,24.313,0l0,0
	C436.781,137.963,436.781,127.078,430.067,120.363z"/>
<path style="fill:#D4D2D3;" d="M363.401,187.029l-38.431-38.431c-6.714-6.714-17.6-6.714-24.313,0l0,0
	c-6.714,6.714-6.714,17.6,0,24.313l38.431,38.431c6.714,6.714,17.6,6.714,24.313,0l0,0
	C370.115,204.629,370.115,193.743,363.401,187.029z"/>
<path style="fill:#B8B8B8;" d="M363.401,187.029l-14.569-14.569c6.714,6.714,6.714,17.6,0,24.313l0,0
	c-6.714,6.714-17.599,6.714-24.313,0l14.569,14.569c6.714,6.714,17.599,6.715,24.313,0l0,0
	C370.115,204.629,370.115,193.743,363.401,187.029z"/>
<path style="fill:#D4D2D3;" d="M139.833,410.597l-38.431-38.431c-6.714-6.714-17.6-6.714-24.313,0l0,0
	c-6.714,6.714-6.714,17.6,0,24.313l38.431,38.431c6.714,6.714,17.6,6.714,24.313,0l0,0
	C146.547,428.197,146.547,417.311,139.833,410.597z"/>
<path style="fill:#B8B8B8;" d="M139.833,410.597l-14.569-14.569c6.714,6.714,6.714,17.6,0,24.313l0,0
	c-6.714,6.714-17.599,6.714-24.313,0l14.569,14.569c6.714,6.714,17.599,6.715,24.313,0l0,0
	C146.547,428.197,146.547,417.311,139.833,410.597z"/>
<path style="fill:#D4D2D3;" d="M85.426,482.651l-56.078-56.078c-6.714-6.714-17.6-6.714-24.313,0l0,0
	c-6.714,6.714-6.714,17.6,0,24.313l56.078,56.078c6.714,6.714,17.6,6.714,24.313,0l0,0C92.14,500.251,92.14,489.365,85.426,482.651z
	"/>
<path style="fill:#B8B8B8;" d="M85.426,482.651l-14.569-14.569c6.714,6.714,6.714,17.6,0,24.313l0,0
	c-6.714,6.714-17.6,6.714-24.313,0l14.569,14.569c6.714,6.714,17.6,6.714,24.313,0l0,0C92.14,500.251,92.14,489.365,85.426,482.651z
	"/>
<g>
	<circle style="fill:#334060;" cx="297.063" cy="214.947" r="10.191"/>
	<circle style="fill:#334060;" cx="266.332" cy="245.667" r="10.191"/>
	<circle style="fill:#334060;" cx="235.612" cy="276.387" r="10.191"/>
	<circle style="fill:#334060;" cx="204.882" cy="307.117" r="10.191"/>
	<circle style="fill:#334060;" cx="174.162" cy="337.837" r="10.191"/>
	<circle style="fill:#334060;" cx="143.432" cy="368.568" r="10.191"/>
	<circle style="fill:#334060;" cx="76.841" cy="435.148" r="10.191"/>
	<path style="fill:#334060;" d="M468.844,52.28l-9.125-9.125c-2.677-2.677-7.02-2.678-9.698,0l-13.12,13.12
		c-5.067,5.067-5.534,13.323-0.71,18.624c5.15,5.659,13.919,5.814,19.267,0.466l13.386-13.386
		C471.523,59.3,471.523,54.958,468.844,52.28z"/>
</g>
<g>
</g>
<g>
</g>
<g>
</g>
<g>
</g>
<g>
</g>
<g>
</g>
<g>
</g>
<g>
</g>
<g>
</g>
<g>
</g>
<g>
</g>
<g>
</g>
<g>
</g>
<g>
</g>
<g>
</g>
</svg>
