<?xml version="1.0" encoding="iso-8859-1"?>
<!-- Generator: Adobe Illustrator 19.0.0, SVG Export Plug-In . SVG Version: 6.00 Build 0)  -->
<svg version="1.1" id="Capa_1" xmlns="http://www.w3.org/2000/svg" xmlns:xlink="http://www.w3.org/1999/xlink" x="0px" y="0px"
	 viewBox="0 0 512 512" style="enable-background:new 0 0 512 512;" xml:space="preserve">
<path style="fill:#D4D2D3;" d="M72.084,467.238V43.641c0-8.047,6.524-14.571,14.571-14.571s14.571,6.524,14.571,14.571v423.596
	H72.084V467.238z"/>
<path style="fill:#FADC60;" d="M108.897,448.02H64.411c-15.953,0-28.885,12.933-28.885,28.885v6.026h102.257v-6.026
	C137.783,460.951,124.85,448.02,108.897,448.02z"/>
<path style="fill:#E6CB59;" d="M95.316,448.02H64.411c-15.953,0-28.885,12.933-28.885,28.885v6.026h30.905v-6.026
	C66.431,460.952,79.364,448.02,95.316,448.02z"/>
<path style="fill:#D4D2D3;" d="M439.916,467.238V43.641c0-8.047-6.524-14.571-14.571-14.571s-14.571,6.524-14.571,14.571v423.596
	h29.142V467.238z"/>
<path style="fill:#FADC60;" d="M403.103,448.02h44.485c15.953,0,28.885,12.933,28.885,28.885v6.026H374.216v-6.026
	C374.217,460.951,387.15,448.02,403.103,448.02z"/>
<path style="fill:#E6CB59;" d="M434.008,448.02h-30.905c-15.953,0-28.885,12.933-28.885,28.885v6.026h30.905v-6.026
	C405.123,460.952,418.056,448.02,434.008,448.02z"/>
<polygon style="fill:#B8B8B8;" points="72.084,350.024 101.226,358.29 101.226,295.372 72.084,295.895 "/>
<path style="fill:#485877;" d="M102.903,212.932l-68.074,1.223l-18.603,65.59c-3.235,11.405,3.388,23.273,14.793,26.508
	l115.862,32.863l24.461-86.241L102.903,212.932z"/>
<polygon style="fill:#B8B8B8;" points="410.775,358.29 439.916,350.024 439.916,295.895 410.775,295.372 "/>
<path style="fill:#485877;" d="M409.097,212.932l68.074,1.223l18.603,65.59c3.235,11.405-3.388,23.273-14.793,26.508
	l-115.862,32.863l-24.461-86.241L409.097,212.932z"/>
<polygon style="fill:#334060;" points="34.828,214.155 26.387,243.916 161.215,288.573 171.341,252.874 102.903,212.932 "/>
<path style="fill:#FADC60;" d="M45.607,176.151c-6.154-1.745-12.558,1.829-14.303,7.982l-4.459,15.72
	c-1.745,6.154,1.829,12.558,7.982,14.303l146.227,48.433l10.779-38.004L45.607,176.151z"/>
<polygon style="fill:#334060;" points="477.172,214.155 409.097,212.932 340.659,252.874 350.785,288.573 485.613,243.916 "/>
<g>
	<path style="fill:#FADC60;" d="M466.393,176.151c6.154-1.745,12.558,1.829,14.303,7.982l4.459,15.72
		c1.745,6.154-1.829,12.558-7.982,14.303l-146.227,48.433l-10.779-38.004L466.393,176.151z"/>
	<path style="fill:#FADC60;" d="M147.216,56.608H26.092C11.682,56.608,0,68.291,0,82.701v5.062h173.308v-5.062
		C173.308,68.291,161.626,56.608,147.216,56.608z"/>
</g>
<path style="fill:#E6CB59;" d="M56.998,56.609H26.092C11.682,56.609,0,68.291,0,82.701v5.063h30.905v-5.063
	C30.905,68.291,42.588,56.609,56.998,56.609z"/>
<rect x="72.084" y="132.296" style="fill:#B8B8B8;" width="29.144" height="41.454"/>
<path style="fill:#FADC60;" d="M147.216,147.997H26.092C11.682,147.997,0,136.315,0,121.904v-5.062h173.308v5.062
	C173.308,136.315,161.626,147.997,147.216,147.997z"/>
<path style="fill:#E6CB59;" d="M30.905,121.904v-5.063H0v5.063c0,14.41,11.682,26.092,26.092,26.092h30.905
	C42.588,147.996,30.905,136.315,30.905,121.904z"/>
<path style="fill:#FADC60;" d="M364.784,56.608h121.124c14.41,0,26.092,11.682,26.092,26.092v5.062H338.692v-5.062
	C338.692,68.291,350.374,56.608,364.784,56.608z"/>
<path style="fill:#E6CB59;" d="M395.689,56.609h-30.905c-14.41,0-26.092,11.681-26.092,26.092v5.063h30.905v-5.063
	C369.597,68.291,381.279,56.609,395.689,56.609z"/>
<rect x="410.774" y="132.296" style="fill:#B8B8B8;" width="29.144" height="41.454"/>
<path style="fill:#FADC60;" d="M364.784,147.997h121.124c14.41,0,26.092-11.682,26.092-26.092v-5.062H338.692v5.062
	C338.692,136.315,350.374,147.997,364.784,147.997z"/>
<path style="fill:#E6CB59;" d="M369.597,121.904v-5.063h-30.905v5.063c0,14.41,11.682,26.092,26.092,26.092h30.905
	C381.279,147.996,369.597,136.315,369.597,121.904z"/>
<circle style="fill:#FD6F71;" cx="256" cy="343.298" r="139.631"/>
<circle style="fill:#EFEDEE;" cx="256" cy="343.298" r="106.624"/>
<path style="fill:#D4D2D3;" d="M169.981,343.295c0-55.41,42.269-100.942,96.321-106.125c-3.39-0.326-6.826-0.498-10.302-0.498
	c-58.886,0-106.623,47.737-106.623,106.623S197.114,449.918,256,449.918c3.476,0,6.911-0.172,10.302-0.497
	C212.25,444.238,169.981,398.706,169.981,343.295z"/>
<g>
	<path style="fill:#3A484A;" d="M192,353.722c-4.268,0-7.726-3.459-7.726-7.726v-11.583c0-4.267,3.458-7.726,7.726-7.726
		c4.268,0,7.726,3.459,7.726,7.726v11.583C199.726,350.263,196.267,353.722,192,353.722z"/>
	<path style="fill:#3A484A;" d="M320.001,353.722c-4.268,0-7.726-3.459-7.726-7.726v-11.583c0-4.267,3.458-7.726,7.726-7.726
		c4.268,0,7.726,3.459,7.726,7.726v11.583C327.727,350.263,324.268,353.722,320.001,353.722z"/>
	<path style="fill:#3A484A;" d="M256,359.904c-8.386,0-16.262-3.51-21.612-9.63c-2.809-3.213-2.481-8.094,0.731-10.902
		c3.213-2.808,8.094-2.482,10.902,0.731c2.416,2.763,6.052,4.347,9.979,4.347c3.927,0,7.565-1.584,9.98-4.347
		c2.807-3.213,7.689-3.54,10.902-0.731c3.212,2.808,3.541,7.689,0.731,10.902C272.263,356.394,264.385,359.904,256,359.904z"/>
</g>
<g>
</g>
<g>
</g>
<g>
</g>
<g>
</g>
<g>
</g>
<g>
</g>
<g>
</g>
<g>
</g>
<g>
</g>
<g>
</g>
<g>
</g>
<g>
</g>
<g>
</g>
<g>
</g>
<g>
</g>
</svg>
