<?xml version="1.0" encoding="iso-8859-1"?>
<!-- Generator: Adobe Illustrator 19.0.0, SVG Export Plug-In . SVG Version: 6.00 Build 0)  -->
<svg version="1.1" id="Capa_1" xmlns="http://www.w3.org/2000/svg" xmlns:xlink="http://www.w3.org/1999/xlink" x="0px" y="0px"
	 viewBox="0 0 512.001 512.001" style="enable-background:new 0 0 512.001 512.001;" xml:space="preserve">
<path style="fill:#B8B8B8;" d="M101.448,13.297l325.92,97.168c7.897,2.354,12.39,10.664,10.036,18.561
	c-1.931,6.474-7.865,10.661-14.293,10.661c-1.411,0-2.846-0.202-4.268-0.625L92.922,41.894L101.448,13.297z"/>
<path style="fill:#D4D2D3;" d="M423.105,84.973c-13.184,0-23.872,10.688-23.872,23.872v45.76h47.745v-45.76
	C446.978,95.661,436.289,84.973,423.105,84.973z"/>
<path style="fill:#485877;" d="M61.327,460.296v36.049c0,8.646,7.009,15.656,15.656,15.656h39.691
	c8.646,0,15.656-7.009,15.656-15.656v-36.049H61.327z"/>
<path style="fill:#334060;" d="M92.233,496.346v-36.049H61.327v36.049c0,8.647,7.009,15.656,15.656,15.656h30.905
	C99.242,512.001,92.233,504.992,92.233,496.346z"/>
<path style="fill:#485877;" d="M450.674,460.296v36.049c0,8.646-7.009,15.656-15.656,15.656h-39.691
	c-8.646,0-15.656-7.009-15.656-15.656v-36.049H450.674z"/>
<path style="fill:#334060;" d="M410.577,496.346v-36.049h-30.905v36.049c0,8.647,7.009,15.656,15.656,15.656h30.905
	C417.587,512.001,410.577,504.992,410.577,496.346z"/>
<g>
	<path style="fill:#C86D5C;" d="M460.175,134.71H51.826c-21.826,0-39.52,17.693-39.52,39.52v265.22
		c0,21.826,17.693,39.52,39.52,39.52h408.349c21.826,0,39.52-17.693,39.52-39.52V174.23
		C499.695,152.403,482.002,134.71,460.175,134.71z"/>
	<path style="fill:#C86D5C;" d="M68.966,439.45V174.23c0-21.826,17.693-39.52,39.52-39.52h-56.66
		c-21.826,0-39.52,17.693-39.52,39.52v265.22c0,21.826,17.693,39.52,39.52,39.52h56.66C86.659,478.969,68.966,461.276,68.966,439.45
		z"/>
</g>
<path style="fill:#AD4F3D;" d="M51.826,478.969h56.653c-21.823-0.004-39.513-17.696-39.513-39.52V174.23
	c0-21.826,17.693-39.52,39.52-39.52h-56.66c-21.826,0-39.52,17.693-39.52,39.52v265.22c0,6.138,1.4,11.95,3.897,17.133
	c0.277,0.576,0.569,1.145,0.873,1.704C23.768,470.606,36.82,478.969,51.826,478.969z"/>
<path style="fill:#485877;" d="M256.001,298.147L52.093,325.33v81.673c0,17.775,14.413,32.178,32.178,32.178h343.46
	c17.775,0,32.178-14.403,32.178-32.178V325.33L256.001,298.147z"/>
<path style="fill:#31576E;" d="M68.966,435.313V323.081l-16.873,2.25v81.673C52.093,419.236,58.919,429.87,68.966,435.313z"/>
<path style="fill:#FA9F6A;" d="M459.908,206.676V325.33H52.093V206.676c0-17.775,14.403-32.178,32.178-32.178h343.46
	C445.496,174.498,459.908,188.901,459.908,206.676z"/>
<path style="fill:#E0824A;" d="M52.093,206.676v118.655h16.873V178.364C58.917,183.806,52.093,194.443,52.093,206.676z"/>
<path style="fill:#EFEDEE;" d="M328.238,353.061H183.763c-7.853,0-14.22,6.367-14.22,14.22v29.951c0,7.853,6.367,14.22,14.22,14.22
	h144.474c7.853,0,14.22-6.367,14.22-14.22V367.28C342.456,359.427,336.091,353.061,328.238,353.061z"/>
<g>
	<circle style="fill:#D4D2D3;" cx="110.776" cy="382.26" r="29.301"/>
	<circle style="fill:#D4D2D3;" cx="401.225" cy="382.26" r="29.301"/>
</g>
<g>
	<path style="fill:#3A484A;" d="M159.765,264.984c-4.268,0-7.726-3.459-7.726-7.726v-17.417c0-4.267,3.458-7.726,7.726-7.726
		s7.726,3.459,7.726,7.726v17.417C167.492,261.526,164.032,264.984,159.765,264.984z"/>
	<path style="fill:#3A484A;" d="M352.237,264.984c-4.268,0-7.726-3.459-7.726-7.726v-17.417c0-4.267,3.458-7.726,7.726-7.726
		c4.268,0,7.726,3.459,7.726,7.726v17.417C359.963,261.526,356.504,264.984,352.237,264.984z"/>
	<path style="fill:#3A484A;" d="M256.001,274.282c-11.485,0-22.263-4.793-29.569-13.15c-2.809-3.213-2.481-8.094,0.731-10.902
		c3.214-2.808,8.094-2.482,10.902,0.731c4.371,5.001,10.909,7.867,17.935,7.867c7.028,0,13.565-2.867,17.934-7.867
		c2.809-3.213,7.691-3.541,10.902-0.732c3.213,2.808,3.542,7.689,0.733,10.902C278.266,269.488,267.488,274.282,256.001,274.282z"/>
</g>
<g>
	<path style="fill:#FD6F71;" d="M189.257,411.451V384.02c0-4.267,3.458-7.726,7.726-7.726c4.268,0,7.726,3.459,7.726,7.726v27.432
		H189.257z"/>
	<path style="fill:#FD6F71;" d="M218.766,411.451V384.02c0-4.267,3.458-7.726,7.726-7.726c4.268,0,7.726,3.459,7.726,7.726v27.432
		H218.766z"/>
	<path style="fill:#FD6F71;" d="M248.274,411.451V384.02c0-4.267,3.458-7.726,7.726-7.726c4.268,0,7.726,3.459,7.726,7.726v27.432
		H248.274z"/>
	<path style="fill:#FD6F71;" d="M277.783,411.451V384.02c0-4.267,3.458-7.726,7.726-7.726s7.726,3.459,7.726,7.726v27.432H277.783z"
		/>
	<path style="fill:#FD6F71;" d="M307.291,411.451V384.02c0-4.267,3.458-7.726,7.726-7.726s7.726,3.459,7.726,7.726v27.432H307.291z"
		/>
</g>
<path style="fill:#D4D2D3;" d="M92.393,55.189c-1.753,0-3.535-0.311-5.272-0.967c-7.708-2.912-11.595-11.523-8.682-19.231
	l9.577-25.34c2.913-7.708,11.524-11.596,19.231-8.682c7.708,2.912,11.595,11.523,8.682,19.231l-9.577,25.34
	C104.096,51.51,98.42,55.189,92.393,55.189z"/>
<g>
</g>
<g>
</g>
<g>
</g>
<g>
</g>
<g>
</g>
<g>
</g>
<g>
</g>
<g>
</g>
<g>
</g>
<g>
</g>
<g>
</g>
<g>
</g>
<g>
</g>
<g>
</g>
<g>
</g>
</svg>
