<?xml version="1.0" encoding="iso-8859-1"?>
<!-- Generator: Adobe Illustrator 19.0.0, SVG Export Plug-In . SVG Version: 6.00 Build 0)  -->
<svg version="1.1" id="Capa_1" xmlns="http://www.w3.org/2000/svg" xmlns:xlink="http://www.w3.org/1999/xlink" x="0px" y="0px"
	 viewBox="0 0 512 512" style="enable-background:new 0 0 512 512;" xml:space="preserve">
<path style="fill:#B8B8B8;" d="M461.868,506.674c27.691,0,50.132-22.451,50.132-50.132V55.451c0-27.68-22.44-50.132-50.132-50.132
	H50.132C22.44,5.32,0,27.771,0,55.451v401.092c0,27.681,22.44,50.132,50.132,50.132L256,463.108L461.868,506.674z"/>
<g>
	<rect x="108.952" y="282.926" style="fill:#D4D2D3;" width="58.823" height="223.755"/>
	<rect x="226.588" y="282.926" style="fill:#D4D2D3;" width="58.823" height="223.755"/>
	<rect x="344.225" y="282.926" style="fill:#D4D2D3;" width="58.823" height="223.755"/>
</g>
<g>
	<path style="fill:#EFEDEE;" d="M108.951,282.922v223.752H50.132V312.641c0-16.414,13.307-29.721,29.721-29.721h29.098V282.922z"/>
	<rect x="167.765" y="282.926" style="fill:#EFEDEE;" width="58.823" height="223.755"/>
	<rect x="285.412" y="282.926" style="fill:#EFEDEE;" width="58.823" height="223.755"/>
	<path style="fill:#EFEDEE;" d="M461.868,312.641v194.033h-58.819V282.922h29.1C448.561,282.922,461.868,296.229,461.868,312.641z"
		/>
</g>
<g>
	<path style="fill:#334060;" d="M93.418,282.922v118.951c0,4.08,3.307,7.387,7.387,7.387h16.292c4.08,0,7.387-3.307,7.387-7.387
		V282.922H93.418z"/>
	<path style="fill:#334060;" d="M152.237,282.922v118.951c0,4.08,3.307,7.387,7.387,7.387h16.293c4.08,0,7.387-3.307,7.387-7.387
		V282.922H152.237z"/>
	<path style="fill:#334060;" d="M269.877,282.922v118.951c0,4.08,3.307,7.387,7.387,7.387h16.292c4.079,0,7.387-3.307,7.387-7.387
		V282.922H269.877z"/>
	<path style="fill:#334060;" d="M328.696,282.922v118.951c0,4.08,3.307,7.387,7.387,7.387h16.292c4.079,0,7.387-3.307,7.387-7.387
		V282.922H328.696z"/>
	<path style="fill:#334060;" d="M387.516,282.922v118.951c0,4.08,3.307,7.387,7.387,7.387h16.292c4.08,0,7.387-3.307,7.387-7.387
		V282.922H387.516z"/>
</g>
<path style="fill:#EFEDEE;" d="M441.536,50.768h-14.687c-4.538,0-8.217,3.679-8.217,8.217v164.124c0,4.538,3.679,8.217,8.217,8.217
	h14.687c4.538,0,8.217-3.679,8.217-8.217V58.985C449.752,54.447,446.074,50.768,441.536,50.768z"/>
<polygon style="fill:#D4D2D3;" points="418.631,186.971 449.752,186.971 449.752,186.971 449.752,140.472 449.752,140.472 
	418.631,140.472 "/>
<path style="fill:#334060;" d="M449.752,130.171h-31.122c-7.151,0-12.947,5.797-12.947,12.947c0,7.15,5.797,12.947,12.947,12.947
	h31.122c7.15,0,12.947-5.797,12.947-12.947C462.701,135.967,456.904,130.171,449.752,130.171z"/>
<path style="fill:#EFEDEE;" d="M356.226,50.768h-14.687c-4.538,0-8.217,3.679-8.217,8.217v164.124c0,4.538,3.679,8.217,8.217,8.217
	h14.687c4.538,0,8.217-3.679,8.217-8.217V58.985C364.443,54.447,360.764,50.768,356.226,50.768z"/>
<path style="fill:#D4D2D3;" d="M334.515,95.943c-0.752,1.241-1.194,2.692-1.194,4.249v42.25h31.122l0,0v-42.25
	c0-1.558-0.441-3.008-1.194-4.249H334.515z"/>
<path style="fill:#334060;" d="M364.443,85.641h-31.122c-7.15,0-12.947,5.797-12.947,12.947s5.797,12.947,12.947,12.947h31.122
	c7.15,0,12.947-5.797,12.947-12.947S371.595,85.641,364.443,85.641z"/>
<path style="fill:#58B78C;" d="M270.01,111.359H65.531c-8.505,0-15.4,6.895-15.4,15.4v76.181c0,8.505,6.895,15.4,15.4,15.4h204.48
	c8.505,0,15.4-6.895,15.4-15.4V126.76C285.41,118.254,278.515,111.359,270.01,111.359z"/>
<path style="fill:#46926F;" d="M72.796,202.939v-76.181c0-8.505,6.895-15.399,15.399-15.399H65.531
	c-8.505,0-15.399,6.894-15.399,15.399v76.181c0,8.505,6.895,15.4,15.399,15.4h22.664C79.69,218.34,72.796,211.445,72.796,202.939z"
	/>
<g>
	<path style="fill:#3A484A;" d="M92.778,175.74c-4.267,0-7.726-3.459-7.726-7.726v-13.573c0-4.267,3.459-7.726,7.726-7.726
		c4.267,0,7.726,3.459,7.726,7.726v13.573C100.504,172.28,97.045,175.74,92.778,175.74z"/>
	<path style="fill:#3A484A;" d="M242.763,175.74c-4.267,0-7.726-3.459-7.726-7.726v-13.573c0-4.267,3.459-7.726,7.726-7.726
		c4.267,0,7.726,3.459,7.726,7.726v13.573C250.49,172.28,247.03,175.74,242.763,175.74z"/>
	<path style="fill:#3A484A;" d="M167.77,182.985c-9.444,0-18.31-3.948-24.327-10.83c-2.808-3.213-2.481-8.094,0.732-10.902
		c3.213-2.808,8.093-2.481,10.902,0.732c3.081,3.525,7.708,5.548,12.692,5.548c4.984,0,9.611-2.022,12.692-5.548
		c2.809-3.213,7.689-3.541,10.902-0.732s3.541,7.689,0.732,10.902C186.081,179.037,177.214,182.985,167.77,182.985z"/>
</g>
<circle style="fill:#6EE3FF;" cx="167.765" cy="59.933" r="22.307"/>
<path style="fill:#42C3E2;" d="M178.072,71.937c-12.32,0-22.307-9.987-22.307-22.307c0-3.501,0.809-6.812,2.245-9.76
	c-7.428,3.62-12.547,11.242-12.547,20.062c0,12.319,9.987,22.307,22.307,22.307c8.819,0,16.441-5.119,20.062-12.548
	C184.883,71.128,181.573,71.937,178.072,71.937z"/>
<circle style="fill:#FD6F71;" cx="92.778" cy="59.933" r="22.307"/>
<path style="fill:#E36465;" d="M103.079,71.937c-12.32,0-22.307-9.987-22.307-22.307c0-3.501,0.809-6.812,2.245-9.76
	c-7.428,3.62-12.547,11.242-12.547,20.062c0,12.319,9.987,22.307,22.307,22.307c8.819,0,16.441-5.119,20.062-12.548
	C109.89,71.128,106.579,71.937,103.079,71.937z"/>
<circle style="fill:#FADC60;" cx="242.762" cy="59.933" r="22.307"/>
<path style="fill:#E6CB59;" d="M253.065,71.937c-12.32,0-22.307-9.987-22.307-22.307c0-3.501,0.808-6.812,2.245-9.76
	c-7.428,3.62-12.547,11.242-12.547,20.062c0,12.319,9.987,22.307,22.307,22.307c8.819,0,16.441-5.119,20.062-12.548
	C259.877,71.128,256.566,71.937,253.065,71.937z"/>
<g>
</g>
<g>
</g>
<g>
</g>
<g>
</g>
<g>
</g>
<g>
</g>
<g>
</g>
<g>
</g>
<g>
</g>
<g>
</g>
<g>
</g>
<g>
</g>
<g>
</g>
<g>
</g>
<g>
</g>
</svg>
