<?xml version="1.0" encoding="iso-8859-1"?>
<!-- Generator: Adobe Illustrator 19.0.0, SVG Export Plug-In . SVG Version: 6.00 Build 0)  -->
<svg version="1.1" id="Capa_1" xmlns="http://www.w3.org/2000/svg" xmlns:xlink="http://www.w3.org/1999/xlink" x="0px" y="0px"
	 viewBox="0 0 511.999 511.999" style="enable-background:new 0 0 511.999 511.999;" xml:space="preserve">
<path style="fill:#E36465;" d="M195.642,155.415H33.957C15.204,155.415,0,170.618,0,189.372v133.255
	c0,18.754,15.203,33.957,33.957,33.957h161.685L258.094,256L195.642,155.415z"/>
<g>
	<path style="fill:#3A484A;" d="M36.358,266.204c-4.204,0-7.611-3.408-7.611-7.612v-11.124c0-4.204,3.408-7.611,7.611-7.611
		s7.611,3.408,7.611,7.611v11.124C43.969,262.796,40.561,266.204,36.358,266.204z"/>
	<path style="fill:#3A484A;" d="M159.284,266.204c-4.204,0-7.611-3.408-7.611-7.612v-11.124c0-4.204,3.408-7.611,7.611-7.611
		c4.204,0,7.611,3.408,7.611,7.611v11.124C166.896,262.796,163.488,266.204,159.284,266.204z"/>
	<path style="fill:#3A484A;" d="M97.821,272.142c-8.109,0-15.727-3.395-20.901-9.313c-2.767-3.165-2.444-7.974,0.722-10.74
		c3.165-2.767,7.974-2.444,10.74,0.722c2.283,2.611,5.724,4.109,9.439,4.109c3.715,0,7.156-1.498,9.438-4.109
		c2.768-3.165,7.575-3.488,10.74-0.722c3.165,2.767,3.489,7.575,0.722,10.74C113.548,268.747,105.931,272.142,97.821,272.142z"/>
</g>
<path style="fill:#FD6F71;" d="M286.834,89.241l-91.192,66.174v201.169l91.192,66.174c14.04,10.188,33.71,0.158,33.71-17.189V106.43
	C320.543,89.082,300.873,79.052,286.834,89.241z"/>
<g>
	<path style="fill:#334060;" d="M404.25,422.678c-2.837,0-5.56-1.593-6.869-4.322c-1.818-3.79-0.218-8.337,3.572-10.154
		c28.251-13.546,52.142-34.653,69.089-61.034c17.489-27.225,26.735-58.75,26.735-91.167c0-32.414-9.243-63.938-26.732-91.163
		c-16.948-26.382-40.837-47.489-69.085-61.036c-3.79-1.818-5.39-6.364-3.572-10.155c1.818-3.791,6.364-5.39,10.155-3.571
		c30.794,14.768,56.836,37.776,75.31,66.535c19.068,29.685,29.146,64.053,29.146,99.391c0,35.341-10.08,69.711-29.15,99.395
		c-18.474,28.758-44.517,51.765-75.315,66.533C406.474,422.437,405.354,422.678,404.25,422.678z"/>
	<path style="fill:#334060;" d="M380.354,372.845c-2.837,0-5.56-1.593-6.869-4.322c-1.818-3.79-0.218-8.337,3.572-10.155
		c19.006-9.115,35.081-23.318,46.487-41.074c11.754-18.296,17.967-39.491,17.967-61.296c0-21.802-6.212-42.998-17.964-61.294
		c-11.406-17.756-27.481-31.96-46.485-41.075c-3.79-1.818-5.39-6.364-3.572-10.155c1.818-3.79,6.365-5.39,10.155-3.571
		c21.551,10.336,39.778,26.441,52.71,46.573c13.332,20.756,20.38,44.795,20.38,69.521c0,24.728-7.048,48.768-20.382,69.523
		c-12.931,20.132-31.159,36.237-52.713,46.572C382.578,372.605,381.458,372.845,380.354,372.845z"/>
	<path style="fill:#334060;" d="M356.456,323.014c-2.837,0-5.56-1.593-6.869-4.322c-1.818-3.79-0.218-8.336,3.572-10.155
		c20.098-9.639,33.086-30.261,33.086-52.539c0-22.276-12.986-42.898-33.085-52.538c-3.79-1.818-5.389-6.364-3.571-10.155
		s6.362-5.389,10.155-3.571c25.346,12.157,41.723,38.167,41.723,66.264c0,28.098-16.378,54.109-41.725,66.265
		C358.68,322.774,357.56,323.014,356.456,323.014z"/>
</g>
<g>
</g>
<g>
</g>
<g>
</g>
<g>
</g>
<g>
</g>
<g>
</g>
<g>
</g>
<g>
</g>
<g>
</g>
<g>
</g>
<g>
</g>
<g>
</g>
<g>
</g>
<g>
</g>
<g>
</g>
</svg>
