<?xml version="1.0" encoding="iso-8859-1"?>
<!-- Generator: Adobe Illustrator 19.0.0, SVG Export Plug-In . SVG Version: 6.00 Build 0)  -->
<svg version="1.1" id="Capa_1" xmlns="http://www.w3.org/2000/svg" xmlns:xlink="http://www.w3.org/1999/xlink" x="0px" y="0px"
	 viewBox="0 0 512 512" style="enable-background:new 0 0 512 512;" xml:space="preserve">
<path style="fill:#334060;" d="M73.004,36.502H36.462C16.325,36.502,0,52.826,0,72.964v366.071
	c0,20.138,16.325,36.462,36.462,36.462h36.542l28.727-219.169L73.004,36.502z"/>
<path style="fill:#485877;" d="M475.538,36.502H73.004v438.996h402.534c20.138,0,36.462-16.325,36.462-36.462V72.964
	C512,52.826,495.675,36.502,475.538,36.502z"/>
<circle style="fill:#6EE3FF;" cx="292.499" cy="256.329" r="185.834"/>
<path style="fill:#42C3E2;" d="M137.575,256.328c0-97.428,74.979-177.334,170.381-185.188c-5.096-0.419-10.248-0.644-15.453-0.644
	c-102.633,0-185.833,83.201-185.833,185.833s83.201,185.833,185.833,185.833c5.204,0,10.356-0.225,15.453-0.644
	C212.553,433.661,137.575,353.755,137.575,256.328z"/>
<circle style="fill:#EFEDEE;" cx="292.499" cy="256.329" r="73.083"/>
<circle style="fill:#485877;" cx="292.499" cy="256.329" r="31.235"/>
<g>
	<path style="fill:#3A484A;" d="M225.675,151.375c-4.267,0-7.726-3.459-7.726-7.726v-12.094c0-4.267,3.459-7.726,7.726-7.726
		c4.267,0,7.726,3.459,7.726,7.726v12.094C233.401,147.916,229.943,151.375,225.675,151.375z"/>
	<path style="fill:#3A484A;" d="M359.329,151.375c-4.267,0-7.726-3.459-7.726-7.726v-12.094c0-4.267,3.459-7.726,7.726-7.726
		c4.267,0,7.726,3.459,7.726,7.726v12.094C367.056,147.916,363.596,151.375,359.329,151.375z"/>
	<path style="fill:#3A484A;" d="M292.502,157.831c-8.659,0-16.79-3.623-22.312-9.939c-2.808-3.213-2.481-8.094,0.732-10.902
		c3.212-2.807,8.093-2.481,10.902,0.732c2.586,2.959,6.478,4.656,10.677,4.656s8.09-1.697,10.677-4.656
		c2.807-3.213,7.688-3.54,10.902-0.731c3.213,2.808,3.541,7.689,0.731,10.902C309.291,154.209,301.159,157.831,292.502,157.831z"/>
</g>
<g>
</g>
<g>
</g>
<g>
</g>
<g>
</g>
<g>
</g>
<g>
</g>
<g>
</g>
<g>
</g>
<g>
</g>
<g>
</g>
<g>
</g>
<g>
</g>
<g>
</g>
<g>
</g>
<g>
</g>
</svg>
