<?xml version="1.0" encoding="iso-8859-1"?>
<!-- Generator: Adobe Illustrator 19.0.0, SVG Export Plug-In . SVG Version: 6.00 Build 0)  -->
<svg version="1.1" id="Capa_1" xmlns="http://www.w3.org/2000/svg" xmlns:xlink="http://www.w3.org/1999/xlink" x="0px" y="0px"
	 viewBox="0 0 512 512" style="enable-background:new 0 0 512 512;" xml:space="preserve">
<path style="fill:#E6CB59;" d="M412.855,42.099l14.652-23.208c4.597-7.281,11.905-12.431,20.308-14.311l18.975-4.245
	c9.626-2.154,18.22,6.441,16.067,16.067l-4.245,18.975c-1.88,8.403-7.03,15.711-14.311,20.308l-23.207,14.653l-23.082-2.348
	L412.855,42.099z"/>
<polygon style="fill:#FADC60;" points="313.767,141.188 316.994,169.006 342.004,169.425 441.093,70.337 412.855,42.099 "/>
<rect x="385.547" y="69.941" transform="matrix(-0.7071 -0.7071 0.7071 -0.7071 637.3354 419.3283)" style="fill:#E6CB59;" width="39.934" height="15.453"/>
<path style="fill:#6EE3FF;" d="M183.115,332.626l-21.22,21.22c-38.856,38.856-41.274,59.034-44.081,82.394
	c-2.518,21.008-5.291,44.147-28.23,75.761H28.81c38.135-38.124,40.531-58.113,43.305-81.251
	c3.339-27.809,7.122-59.344,57.237-109.448l21.208-21.22c8.996-8.985,23.56-8.985,32.556,0
	C192.1,309.066,192.1,323.641,183.115,332.626z"/>
<path style="fill:#42C3E2;" d="M150.56,300.082l-21.208,21.22c-7.108,7.106-13.282,13.839-18.657,20.24
	c3.327,6.443,7.679,12.49,13.073,17.884c5.933,5.933,12.719,10.704,20.077,14.204c4.927-6.048,10.862-12.595,18.051-19.783
	l21.22-21.22c8.985-8.985,8.985-23.56,0-32.544C174.12,291.097,159.555,291.097,150.56,300.082z"/>
<path style="fill:#B8B8B8;" d="M283.587,141.188L145.62,279.154c-16.132,16.132-16.132,42.286,0,58.417l0,0
	c16.132,16.132,42.286,16.132,58.417,0l137.967-137.967c8.334-8.334,8.334-21.846,0-30.18l-28.238-28.238
	C305.433,132.854,291.921,132.854,283.587,141.188z"/>
<g>
	<path style="fill:#3A484A;" d="M191.32,303.601c-1.978,0-3.955-0.754-5.464-2.263l-8.585-8.585c-3.017-3.017-3.017-7.91,0-10.927
		c3.019-3.018,7.911-3.016,10.927,0l8.585,8.585c3.017,3.017,3.017,7.91,0,10.927C195.275,302.846,193.297,303.601,191.32,303.601z"
		/>
	<path style="fill:#3A484A;" d="M286.188,208.733c-1.978,0-3.955-0.754-5.464-2.263l-8.585-8.584c-3.017-3.017-3.017-7.91,0-10.927
		c3.019-3.017,7.911-3.017,10.927,0l8.585,8.585c3.017,3.017,3.017,7.91,0,10.927C290.143,207.979,288.165,208.733,286.188,208.733z
		"/>
	<path style="fill:#3A484A;" d="M227.832,267.323c-0.633,0-1.266-0.022-1.902-0.064c-4.258-0.286-7.477-3.969-7.191-8.227
		c0.285-4.259,3.975-7.475,8.227-7.191c3.941,0.265,7.92-1.295,10.905-4.281c2.986-2.986,4.547-6.961,4.282-10.907
		c-0.285-4.258,2.935-7.941,7.192-8.226c4.247-0.284,7.941,2.934,8.226,7.192c0.564,8.394-2.635,16.729-8.775,22.868
		C243.125,264.161,235.572,267.323,227.832,267.323z"/>
</g>
<g>
</g>
<g>
</g>
<g>
</g>
<g>
</g>
<g>
</g>
<g>
</g>
<g>
</g>
<g>
</g>
<g>
</g>
<g>
</g>
<g>
</g>
<g>
</g>
<g>
</g>
<g>
</g>
<g>
</g>
</svg>
