<?xml version="1.0" encoding="iso-8859-1"?>
<!-- Generator: Adobe Illustrator 19.0.0, SVG Export Plug-In . SVG Version: 6.00 Build 0)  -->
<svg version="1.1" id="Capa_1" xmlns="http://www.w3.org/2000/svg" xmlns:xlink="http://www.w3.org/1999/xlink" x="0px" y="0px"
	 viewBox="0 0 511.999 511.999" style="enable-background:new 0 0 511.999 511.999;" xml:space="preserve">
<path style="fill:#D4D2D3;" d="M448.601,30.84L342.527,136.913c-53.727-38.187-128.922-33.222-177.055,14.911L6.744,310.552
	c-8.991,8.991-8.991,23.568,0,32.559s23.568,8.991,32.559,0l158.728-158.728c35.727-35.727,93.859-35.727,129.585,0
	s35.727,93.859,0,129.585L168.887,472.697c-8.991,8.991-8.99,23.568,0,32.559c8.99,8.99,23.568,8.991,32.559,0l158.728-158.728
	c48.133-48.133,53.098-123.328,14.911-177.055L481.159,63.399c8.99-8.99,8.99-23.568,0-32.559
	C472.169,21.848,457.591,21.849,448.601,30.84z"/>
<path style="fill:#B8B8B8;" d="M448.601,30.84l-52.719,52.718c3.555,6.742,8.161,13.069,13.826,18.734
	c5.601,5.601,11.907,10.239,18.713,13.846L481.159,63.4c8.99-8.99,8.99-23.568,0-32.559
	C472.169,21.848,457.591,21.848,448.601,30.84z"/>
<circle style="fill:#EFEDEE;" cx="464.88" cy="47.12" r="47.119"/>
<g>
</g>
<g>
</g>
<g>
</g>
<g>
</g>
<g>
</g>
<g>
</g>
<g>
</g>
<g>
</g>
<g>
</g>
<g>
</g>
<g>
</g>
<g>
</g>
<g>
</g>
<g>
</g>
<g>
</g>
</svg>
