<?xml version="1.0" encoding="iso-8859-1"?>
<!-- Generator: Adobe Illustrator 19.0.0, SVG Export Plug-In . SVG Version: 6.00 Build 0)  -->
<svg version="1.1" id="Capa_1" xmlns="http://www.w3.org/2000/svg" xmlns:xlink="http://www.w3.org/1999/xlink" x="0px" y="0px"
	 viewBox="0 0 512 512" style="enable-background:new 0 0 512 512;" xml:space="preserve">
<circle style="fill:#485877;" cx="255.999" cy="182.126" r="182.126"/>
<path style="fill:#334060;" d="M104.776,182.129c0-95.381,73.323-173.626,166.676-181.469C266.357,0.231,261.205,0,255.999,0
	C155.413,0,73.871,81.542,73.871,182.129s81.542,182.129,182.129,182.129c5.206,0,10.357-0.231,15.453-0.659
	C178.099,355.753,104.776,277.51,104.776,182.129z"/>
<circle style="fill:#FD6F71;" cx="255.999" cy="182.126" r="102.565"/>
<circle style="fill:#485877;" cx="255.999" cy="182.126" r="36.031"/>
<path style="fill:#FADC60;" d="M439.643,182.129H72.357c-18.786,0-34.016,15.229-34.016,34.016v261.84
	c0,18.786,15.229,34.016,34.016,34.016h367.285c18.786,0,34.016-15.229,34.016-34.016v-261.84
	C473.657,197.358,458.428,182.129,439.643,182.129z"/>
<path style="fill:#E6CB59;" d="M79.549,477.984v-261.84c0-18.786,15.229-34.016,34.016-34.016H72.357
	c-18.786,0-34.016,15.229-34.016,34.016v261.84c0,18.786,15.229,34.016,34.016,34.016h41.207
	C94.778,512,79.549,496.771,79.549,477.984z"/>
<g>
</g>
<g>
</g>
<g>
</g>
<g>
</g>
<g>
</g>
<g>
</g>
<g>
</g>
<g>
</g>
<g>
</g>
<g>
</g>
<g>
</g>
<g>
</g>
<g>
</g>
<g>
</g>
<g>
</g>
</svg>
