<?xml version="1.0" encoding="iso-8859-1"?>
<!-- Generator: Adobe Illustrator 19.0.0, SVG Export Plug-In . SVG Version: 6.00 Build 0)  -->
<svg version="1.1" id="Capa_1" xmlns="http://www.w3.org/2000/svg" xmlns:xlink="http://www.w3.org/1999/xlink" x="0px" y="0px"
	 viewBox="0 0 512 512" style="enable-background:new 0 0 512 512;" xml:space="preserve">
<polygon style="fill:#58B78C;" points="478.46,482.364 478.46,124.679 256.001,95.041 33.541,124.679 33.541,482.364 "/>
<polygon style="fill:#46926F;" points="271.453,97.101 256.001,95.041 33.541,124.679 33.541,482.364 64.447,482.364 
	64.447,124.679 "/>
<path style="fill:#EFEDEE;" d="M478.46,65.405H33.541c-9.212,0-16.679,7.467-16.679,16.679V108c0,9.211,7.467,16.679,16.679,16.679
	h444.918c9.212,0,16.679-7.468,16.679-16.679V82.084C495.139,72.873,487.671,65.405,478.46,65.405z"/>
<g>
	<path style="fill:#D4D2D3;" d="M47.768,108V82.084c0-9.211,7.467-16.679,16.679-16.679H33.541c-9.212,0-16.679,7.468-16.679,16.679
		V108c0,9.211,7.467,16.679,16.679,16.679h30.905C55.236,124.679,47.768,117.211,47.768,108z"/>
	<path style="fill:#D4D2D3;" d="M294.882,95.041c0,10.206,1.229,20.129,3.531,29.637h80.004c2.302-9.509,3.531-19.431,3.531-29.637
		s-1.229-20.129-3.531-29.637h-80.004C296.111,74.914,294.882,84.836,294.882,95.041z"/>
</g>
<g>
	<circle style="fill:#485877;" cx="256.001" cy="95.045" r="95.045"/>
	<path style="fill:#485877;" d="M420.46,223.808H319.739c-11.33,0-20.515,10.374-20.515,23.171v235.384h141.751V246.98
		C440.975,234.183,431.79,223.808,420.46,223.808z"/>
</g>
<rect x="334.995" y="264.211" style="fill:#6EE3FF;" width="70.217" height="218.151"/>
<path style="fill:#D4D2D3;" d="M478.46,452.726H33.541c-9.212,0-16.679,7.467-16.679,16.679v25.916
	c0,9.211,7.467,16.679,16.679,16.679h444.918c9.212,0,16.679-7.468,16.679-16.679v-25.916
	C495.139,460.194,487.671,452.726,478.46,452.726z"/>
<path style="fill:#EFEDEE;" d="M299.224,38.189c0-2.62-2.503-4.514-5.025-3.802l-62.248,17.581
	c-2.857,0.807-4.829,3.414-4.829,6.383v67.4c-2.04-0.96-4.317-1.5-6.721-1.5c-8.726,0-15.8,7.073-15.8,15.8s7.073,15.8,15.8,15.8
	c8.628,0,15.636-6.918,15.792-15.508h0.007V77.991l0,0l53.945-15.236l0,0v45.195c-2.04-0.96-4.318-1.5-6.721-1.5
	c-8.726,0-15.8,7.073-15.8,15.8c0,8.726,7.073,15.8,15.8,15.8c8.628,0,15.636-6.918,15.792-15.508h0.007V38.189H299.224z"/>
<path style="fill:#485877;" d="M237.569,223.808H95.97c-11.33,0-20.515,10.374-20.515,23.171v121.995h182.628V246.98
	C258.084,234.183,248.898,223.808,237.569,223.808z"/>
<rect x="111.229" y="259.575" style="fill:#6EE3FF;" width="111.095" height="109.395"/>
<path style="fill:#EFEDEE;" d="M262.579,351.552H70.958c-4.626,0-8.375,3.75-8.375,8.375v18.092c0,4.625,3.75,8.375,8.375,8.375
	h191.621c4.626,0,8.375-3.75,8.375-8.375v-18.092C270.955,355.302,267.205,351.552,262.579,351.552z"/>
<path style="fill:#D4D2D3;" d="M93.489,378.02v-18.093c0-4.625,3.75-8.374,8.375-8.374H70.959c-4.626,0-8.375,3.75-8.375,8.374
	v18.093c0,4.625,3.75,8.374,8.375,8.374h30.905C97.239,386.395,93.489,382.645,93.489,378.02z"/>
<g>
</g>
<g>
</g>
<g>
</g>
<g>
</g>
<g>
</g>
<g>
</g>
<g>
</g>
<g>
</g>
<g>
</g>
<g>
</g>
<g>
</g>
<g>
</g>
<g>
</g>
<g>
</g>
<g>
</g>
</svg>
