<?xml version="1.0" encoding="iso-8859-1"?>
<!-- Generator: Adobe Illustrator 19.0.0, SVG Export Plug-In . SVG Version: 6.00 Build 0)  -->
<svg version="1.1" id="Capa_1" xmlns="http://www.w3.org/2000/svg" xmlns:xlink="http://www.w3.org/1999/xlink" x="0px" y="0px"
	 viewBox="0 0 512 512" style="enable-background:new 0 0 512 512;" xml:space="preserve">
<g>
	<path style="fill:#6EE3FF;" d="M211.229,96.744c0-5.983-4.85-10.833-10.833-10.833h-23.103c-5.983,0-10.833,4.85-10.833,10.833
		v30.715l20.446,15.935l24.324-15.935l22.385-20.775L211.229,96.744z"/>
	<path style="fill:#6EE3FF;" d="M300.771,96.744c0-5.983-4.85-10.833-10.833-10.833h-23.103c-5.983,0-10.833,4.85-10.833,10.833
		l-22.385,9.94l22.385,20.775l20.446,15.935l24.324-15.935l22.385-20.775L300.771,96.744z"/>
</g>
<g>
	<path style="fill:#42C3E2;" d="M245.167,85.91h-23.103c-5.983,0-10.833,4.85-10.833,10.833v30.715l20.446,15.935L256,127.459
		V96.744C256,90.761,251.15,85.91,245.167,85.91z"/>
	<path style="fill:#42C3E2;" d="M334.707,85.91h-23.103c-5.983,0-10.833,4.85-10.833,10.833v30.715l20.446,15.935l24.324-15.935
		V96.744C345.541,90.761,340.69,85.91,334.707,85.91z"/>
</g>
<path style="fill:#FADC60;" d="M417.685,10.217H94.315c-17.407,0-31.517,14.111-31.517,31.517v117.944h44.325V54.541H404.88V159.68
	h44.325V41.734C449.203,24.327,435.092,10.217,417.685,10.217z"/>
<g>
	<rect x="62.797" y="96.548" style="fill:#E6CB59;" width="44.329" height="63.129"/>
	<rect x="404.882" y="96.548" style="fill:#E6CB59;" width="44.329" height="63.129"/>
</g>
<path style="fill:#FF98C9;" d="M465.313,127.459H46.687C20.9,127.459,0,148.359,0,174.135v297.222
	c0,16.803,13.622,30.425,30.425,30.425h145.583L256,482.063l79.992,19.719h145.583c16.803,0,30.425-13.622,30.425-30.425V174.135
	C512,148.359,491.1,127.459,465.313,127.459z"/>
<path style="fill:#EB6DA8;" d="M20.604,471.357V174.135c0-25.776,20.9-46.676,46.687-46.676H46.687
	C20.9,127.459,0,148.359,0,174.135v297.222c0,16.803,13.622,30.425,30.425,30.425h20.604
	C34.226,501.782,20.604,488.16,20.604,471.357z"/>
<rect x="48.717" y="160.368" style="fill:#6EE3FF;" width="414.565" height="80.735"/>
<rect x="48.717" y="160.368" style="fill:#42C3E2;" width="30.905" height="80.735"/>
<path style="fill:#EFEDEE;" d="M315.207,274.271H196.793c-4.827,0-8.74,3.913-8.74,8.74v18.121c0,4.827,3.913,8.74,8.74,8.74
	h118.413c4.827,0,8.74-3.913,8.74-8.74v-18.121C323.947,278.183,320.033,274.271,315.207,274.271z"/>
<path style="fill:#D4D2D3;" d="M218.959,301.132v-18.121c0-4.827,3.913-8.74,8.74-8.74h-30.905c-4.826,0-8.74,3.914-8.74,8.74
	v18.121c0,4.827,3.913,8.74,8.74,8.74h30.905C222.872,309.872,218.959,305.958,218.959,301.132z"/>
<g>
	<path style="fill:#3A484A;" d="M178.222,211.743c-4.268,0-7.726-3.459-7.726-7.726V189.94c0-4.267,3.458-7.726,7.726-7.726
		c4.268,0,7.726,3.459,7.726,7.726v14.076C185.949,208.284,182.49,211.743,178.222,211.743z"/>
	<path style="fill:#3A484A;" d="M333.778,211.743c-4.268,0-7.726-3.459-7.726-7.726V189.94c0-4.267,3.458-7.726,7.726-7.726
		s7.726,3.459,7.726,7.726v14.076C341.504,208.284,338.046,211.743,333.778,211.743z"/>
	<path style="fill:#3A484A;" d="M256,219.256c-9.712,0-18.829-4.059-25.014-11.134c-2.809-3.213-2.481-8.094,0.732-10.902
		c3.211-2.807,8.093-2.481,10.901,0.732c3.251,3.719,8.128,5.851,13.38,5.851c5.252,0,10.129-2.132,13.379-5.851
		c2.808-3.213,7.689-3.541,10.901-0.732c3.213,2.808,3.542,7.689,0.732,10.902C274.829,215.198,265.712,219.256,256,219.256z"/>
</g>
<circle style="fill:#FADC60;" cx="100.309" cy="351.611" r="69.854"/>
<circle style="fill:#FD6F71;" cx="100.309" cy="351.611" r="39.157"/>
<circle style="fill:#FADC60;" cx="411.691" cy="351.611" r="69.854"/>
<circle style="fill:#FD6F71;" cx="411.691" cy="351.611" r="39.157"/>
<path style="fill:#6EE3FF;" d="M335.991,428.094v73.688H176.008v-73.688c0-12.2,9.892-22.082,22.082-22.082h115.821
	C326.101,406.013,335.991,415.894,335.991,428.094z"/>
<path style="fill:#42C3E2;" d="M218.693,406.013h-20.604c-12.19,0-22.082,9.88-22.082,22.082v73.688h20.604v-73.688
	C196.612,415.894,206.503,406.013,218.693,406.013z"/>
<g>
	<circle style="fill:#EFEDEE;" cx="219.707" cy="453.897" r="16.826"/>
	<circle style="fill:#EFEDEE;" cx="292.293" cy="453.897" r="16.826"/>
</g>
<g>
</g>
<g>
</g>
<g>
</g>
<g>
</g>
<g>
</g>
<g>
</g>
<g>
</g>
<g>
</g>
<g>
</g>
<g>
</g>
<g>
</g>
<g>
</g>
<g>
</g>
<g>
</g>
<g>
</g>
</svg>
