<?xml version="1.0" encoding="iso-8859-1"?>
<!-- Generator: Adobe Illustrator 19.0.0, SVG Export Plug-In . SVG Version: 6.00 Build 0)  -->
<svg version="1.1" id="Capa_1" xmlns="http://www.w3.org/2000/svg" xmlns:xlink="http://www.w3.org/1999/xlink" x="0px" y="0px"
	 viewBox="0 0 512.001 512.001" style="enable-background:new 0 0 512.001 512.001;" xml:space="preserve">
<path style="fill:#E6CB59;" d="M230.011,281.262c17.84,62.034,140.857,124.442,81.67,166.229s-76.822-95.022-129.308-132.595
	l8.021-39.193L230.011,281.262z"/>
<path style="fill:#FADC60;" d="M281.99,281.262c-17.84,62.034-140.857,124.442-81.67,166.229s76.822-95.022,129.308-132.595
	l-8.021-39.193L281.99,281.262z"/>
<g>
	<path style="fill:#FD6F71;" d="M155.74,226.621l85.935-38.326c6.222,36.848,2.725,72.415-11.664,92.968l-47.639,33.634
		c-24.184,6.681-58.87-1.927-91.51-20.124L155.74,226.621z"/>
	<path style="fill:#FD6F71;" d="M356.261,226.621l-85.935-38.326c-6.222,36.848-2.725,72.415,11.664,92.968l47.639,33.634
		c24.184,6.681,58.87-1.927,91.51-20.124L356.261,226.621z"/>
</g>
<g>
	<path style="fill:#58B78C;" d="M54.838,83.705c64.045-45.218,114.047-28.366,146.603,11.143l-82.393,79.803L16.271,225.582
		C-10.062,181.68-9.207,128.923,54.838,83.705z"/>
	<path style="fill:#58B78C;" d="M457.163,83.705C393.118,38.487,343.116,55.339,310.56,94.848l82.393,79.803l102.777,50.931
		C522.064,181.68,521.209,128.923,457.163,83.705z"/>
</g>
<path style="fill:#FADC60;" d="M90.863,294.772l150.812-106.477c-5.663-33.544-19.368-68.137-40.234-93.447L16.271,225.582
	C33.138,253.715,61.149,278.208,90.863,294.772z"/>
<g>
	<path style="fill:#3A484A;" d="M189.606,171.362c-2.425,0-4.813-1.138-6.319-3.27l-6.68-9.46
		c-2.461-3.486-1.631-8.306,1.855-10.768c3.487-2.461,8.306-1.631,10.768,1.854l6.68,9.46c2.461,3.486,1.631,8.306-1.855,10.768
		C192.701,170.903,191.146,171.362,189.606,171.362z"/>
	<path style="fill:#3A484A;" d="M85.062,245.171c-2.425,0-4.814-1.138-6.319-3.271l-6.679-9.46
		c-2.461-3.486-1.63-8.307,1.856-10.768c3.486-2.462,8.307-1.63,10.767,1.855l6.679,9.46c2.461,3.486,1.63,8.307-1.856,10.768
		C88.158,244.712,86.601,245.171,85.062,245.171z"/>
	<path style="fill:#3A484A;" d="M128.642,217.272c-2.179,0-4.36-0.254-6.5-0.774c-4.148-1.004-6.695-5.181-5.69-9.328
		c1.004-4.146,5.18-6.695,9.328-5.69c3.564,0.864,7.448,0.061,10.657-2.204c3.206-2.264,5.262-5.655,5.642-9.304
		c0.442-4.243,4.227-7.327,8.484-6.886c4.244,0.441,7.327,4.24,6.887,8.484c-0.841,8.084-5.251,15.493-12.099,20.33
		C140.355,215.426,134.504,217.272,128.642,217.272z"/>
</g>
<path style="fill:#46926F;" d="M310.56,94.847l19.05,18.452c0.52-0.654,1.024-1.327,1.553-1.969
	c32.347-39.254,81.917-56.13,145.37-11.997c-0.655-0.61-1.323-1.219-1.999-1.825c-5.464-4.933-11.268-9.525-17.298-13.749
	c-0.025-0.018-0.049-0.036-0.074-0.054c-32.022-22.608-60.534-29.7-85.11-26.202c-4.79,0.684-9.519,1.784-14.119,3.288
	C339.485,66.807,323.618,79.002,310.56,94.847z"/>
<path style="fill:#E36465;" d="M300.318,294.202c-12.464-20.946-15.267-54.609-9.388-89.424c0.378-2.242,0.799-4.488,1.25-6.737
	l-21.853-9.746c-3.088,18.291-4.109,37.166-1.511,55.582c2.079,14.817,6.431,27.751,13.176,37.385L300.318,294.202z"/>
<path style="fill:#FADC60;" d="M421.139,294.772L270.327,188.294c5.663-33.544,19.368-68.137,40.234-93.447l185.17,130.735
	C478.864,253.715,450.852,278.208,421.139,294.772z"/>
<path style="fill:#E6CB59;" d="M291.244,203.063c5.836-33.005,19.409-66.854,39.919-91.732c0.337-0.409,0.679-0.812,1.02-1.217
	L310.56,94.847c-9.925,12.04-18.209,26.191-24.8,41.32c-1.525,3.502-2.956,7.044-4.291,10.623
	c-5.047,13.527-8.797,27.602-11.144,41.504L291.244,203.063z"/>
<path style="fill:#46926F;" d="M13.635,125.585c3.44-5.653,7.42-11.003,11.81-15.987c7.77-8.821,17.487-17.487,29.392-25.893
	c0.018-0.012,0.035-0.024,0.053-0.037c4.71-3.322,9.561-6.439,14.539-9.345c1.733-1.012,3.487-1.989,5.261-2.927
	c0.235-0.126,0.472-0.257,0.707-0.38C16.528,115.371,16.424,166.419,42.025,209.1c0.572,0.954,1.16,1.904,1.757,2.849L16.27,225.582
	c-2.654-4.424-5.025-8.939-7.09-13.525c-5.789-12.862-9.295-26.844-9.178-40.999C0.138,154.749,5.3,139.282,13.635,125.585z"/>
<path style="fill:#E36465;" d="M110.135,274.527c2.15,1.294,4.31,2.552,6.482,3.762c31.044,17.307,63.934,25.929,87.884,20.984
	l-17.596,12.423l-4.533,3.2c-12.092,3.34-26.809,2.858-42.584-0.733c-5.915-1.346-11.979-3.131-18.11-5.315
	c-10.216-3.64-20.616-8.39-30.817-14.076L110.135,274.527z"/>
<path style="fill:#E6CB59;" d="M41.319,207.898c0.235,0.401,0.468,0.801,0.707,1.201c16.613,27.71,44.04,51.883,73.255,68.432
	l-24.418,17.24c-4.279-2.385-8.521-4.94-12.701-7.641c-2.176-1.406-4.329-2.843-6.456-4.322
	c-19.374-13.471-36.987-29.92-50.405-49.413c-1.77-2.57-3.449-5.176-5.029-7.813L41.319,207.898z"/>
<g>
	<path style="fill:#3A484A;" d="M322.397,171.362c-1.54,0-3.096-0.459-4.449-1.415c-3.485-2.461-4.315-7.282-1.855-10.768
		l6.679-9.46c2.46-3.486,7.282-4.317,10.768-1.855c3.485,2.461,4.315,7.282,1.855,10.768l-6.679,9.46
		C327.211,170.223,324.823,171.362,322.397,171.362z"/>
	<path style="fill:#3A484A;" d="M426.94,245.171c-1.54,0-3.096-0.459-4.448-1.415c-3.486-2.461-4.316-7.282-1.856-10.768l6.679-9.46
		c2.461-3.486,7.283-4.317,10.767-1.855c3.486,2.461,4.316,7.282,1.856,10.768l-6.679,9.46
		C431.753,244.033,429.365,245.171,426.94,245.171z"/>
	<path style="fill:#3A484A;" d="M383.36,217.272c-5.864,0-11.712-1.846-16.706-5.371c-6.85-4.837-11.26-12.246-12.101-20.33
		c-0.441-4.244,2.641-8.043,6.887-8.484c4.252-0.441,8.042,2.642,8.484,6.886c0.379,3.649,2.435,7.04,5.643,9.305
		c3.204,2.263,7.087,3.067,10.656,2.203c4.146-1.005,8.324,1.543,9.328,5.69c1.005,4.148-1.542,8.324-5.69,9.328
		C387.72,217.018,385.539,217.272,383.36,217.272z"/>
</g>
<g>
</g>
<g>
</g>
<g>
</g>
<g>
</g>
<g>
</g>
<g>
</g>
<g>
</g>
<g>
</g>
<g>
</g>
<g>
</g>
<g>
</g>
<g>
</g>
<g>
</g>
<g>
</g>
<g>
</g>
</svg>
