<?xml version="1.0" encoding="iso-8859-1"?>
<!-- Generator: Adobe Illustrator 19.0.0, SVG Export Plug-In . SVG Version: 6.00 Build 0)  -->
<svg version="1.1" id="Capa_1" xmlns="http://www.w3.org/2000/svg" xmlns:xlink="http://www.w3.org/1999/xlink" x="0px" y="0px"
	 viewBox="0 0 512 512" style="enable-background:new 0 0 512 512;" xml:space="preserve">
<path style="fill:#334060;" d="M325.157,105.532c-8.555,0-15.49-6.935-15.49-15.49V39.843c0-4.887-3.977-8.864-8.864-8.864h-79.52
	c-4.887,0-8.864,3.975-8.864,8.864v50.199c0,8.555-6.935,15.49-15.49,15.49c-8.555,0-15.49-6.935-15.49-15.49V39.843
	C181.44,17.874,199.314,0,221.285,0h79.52c21.97,0,39.843,17.874,39.843,39.843v50.199
	C340.647,98.597,333.711,105.532,325.157,105.532z"/>
<path style="fill:#485877;" d="M461.986,423.469l-53.899-316.664c-3.566-21.638-22.273-37.513-44.203-37.513H158.205
	c-21.929,0-40.637,15.875-44.203,37.513L60.103,423.469c-5.039,30.564,18.543,58.352,49.521,58.352h302.841
	C443.442,481.821,467.023,454.034,461.986,423.469z"/>
<path style="fill:#334060;" d="M91.008,423.469l53.899-316.663c3.566-21.638,22.273-37.513,44.203-37.513h-30.905
	c-21.929,0-40.637,15.875-44.203,37.513L60.103,423.469c-5.039,30.564,18.543,58.352,49.521,58.352h30.905
	C109.551,481.821,85.969,454.034,91.008,423.469z"/>
<path style="fill:#FA9F6A;" d="M37.212,512c-6.2,0-12.329-2.779-16.396-8.077c-6.947-9.047-5.244-22.013,3.803-28.959
	L422.47,169.498c9.047-6.945,22.014-5.242,28.959,3.804c6.947,9.047,5.244,22.013-3.803,28.959L49.775,507.727
	C46.025,510.606,41.602,512,37.212,512z"/>
<g>
	<path style="fill:#EFEDEE;" d="M181.441,142.554c-4.267,0-7.726-3.459-7.726-7.726v-14.407c0-4.267,3.459-7.726,7.726-7.726
		c4.267,0,7.726,3.459,7.726,7.726v14.407C189.168,139.095,185.708,142.554,181.441,142.554z"/>
	<path style="fill:#EFEDEE;" d="M340.647,142.554c-4.267,0-7.726-3.459-7.726-7.726v-14.407c0-4.267,3.459-7.726,7.726-7.726
		s7.726,3.459,7.726,7.726v14.407C348.373,139.095,344.914,142.554,340.647,142.554z"/>
	<path style="fill:#EFEDEE;" d="M261.044,150.245c-9.888,0-19.169-4.131-25.464-11.334c-2.808-3.213-2.481-8.094,0.732-10.902
		c3.212-2.807,8.093-2.481,10.902,0.732c3.361,3.846,8.402,6.051,13.829,6.051c5.427,0,10.469-2.206,13.83-6.051
		c2.808-3.213,7.688-3.541,10.902-0.731c3.213,2.808,3.541,7.689,0.731,10.902C280.212,146.114,270.93,150.245,261.044,150.245z"/>
</g>
<circle style="fill:#E0824A;" cx="435.046" cy="185.876" r="60.411"/>
<g>
</g>
<g>
</g>
<g>
</g>
<g>
</g>
<g>
</g>
<g>
</g>
<g>
</g>
<g>
</g>
<g>
</g>
<g>
</g>
<g>
</g>
<g>
</g>
<g>
</g>
<g>
</g>
<g>
</g>
</svg>
