<?xml version="1.0" encoding="iso-8859-1"?>
<!-- Generator: Adobe Illustrator 19.0.0, SVG Export Plug-In . SVG Version: 6.00 Build 0)  -->
<svg version="1.1" id="Capa_1" xmlns="http://www.w3.org/2000/svg" xmlns:xlink="http://www.w3.org/1999/xlink" x="0px" y="0px"
	 viewBox="0 0 512 512" style="enable-background:new 0 0 512 512;" xml:space="preserve">
<path style="fill:#EFEDEE;" d="M462.662,0H49.338C22.09,0,0,22.09,0,49.338v413.322C0,489.91,22.09,512,49.338,512h413.322
	C489.91,512,512,489.91,512,462.662V49.338C512,22.09,489.91,0,462.662,0z"/>
<path style="fill:#D4D2D3;" d="M30.905,462.66V49.339C30.905,22.089,52.996,0,80.244,0H49.338C22.09,0,0,22.089,0,49.339v413.322
	C0,489.911,22.09,512,49.338,512h30.905C52.996,512,30.905,489.911,30.905,462.66z"/>
<g>
	<path style="fill:#3A484A;" d="M166.169,69.498c-4.267,0-7.726-3.459-7.726-7.726V45.514c0-4.267,3.459-7.726,7.726-7.726
		c4.267,0,7.726,3.459,7.726,7.726v16.257C173.896,66.039,170.436,69.498,166.169,69.498z"/>
	<path style="fill:#3A484A;" d="M345.831,69.498c-4.267,0-7.726-3.459-7.726-7.726V45.514c0-4.267,3.459-7.726,7.726-7.726
		s7.726,3.459,7.726,7.726v16.257C353.557,66.039,350.098,69.498,345.831,69.498z"/>
	<path style="fill:#3A484A;" d="M256,78.176c-10.87,0-21.072-4.538-27.988-12.451c-2.808-3.212-2.481-8.093,0.731-10.902
		c3.213-2.808,8.093-2.481,10.902,0.732c3.983,4.555,9.943,7.168,16.354,7.168c6.412,0,12.372-2.613,16.354-7.168
		c2.808-3.213,7.689-3.541,10.902-0.732c3.213,2.808,3.541,7.689,0.732,10.902C277.072,73.638,266.871,78.176,256,78.176z"/>
</g>
<path style="fill:#58B78C;" d="M85.438,120.504H84.47c-9.957,0-18.028,8.071-18.028,18.028v294.825
	c0,9.957,8.071,18.028,18.028,18.028h0.968c9.957,0,18.028-8.071,18.028-18.028V138.533
	C103.466,128.576,95.395,120.504,85.438,120.504z"/>
<path style="fill:#46926F;" d="M75.149,338.577c-2.976,0-5.884,0.292-8.707,0.824v80.637c2.824,0.533,5.732,0.823,8.707,0.823h19.61
	c2.976,0,5.884-0.291,8.708-0.823v-80.637c-2.824-0.533-5.732-0.824-8.708-0.824H75.149z"/>
<path style="fill:#485877;" d="M94.758,281.917h-19.61c-11.672,0-21.133,9.461-21.133,21.133v70.924
	c0,11.672,9.462,21.133,21.133,21.133h19.609c11.672,0,21.133-9.462,21.133-21.133V303.05
	C115.891,291.378,106.43,281.917,94.758,281.917z"/>
<path style="fill:#FADC60;" d="M199.469,120.504H198.5c-9.957,0-18.028,8.071-18.028,18.028v294.825
	c0,9.957,8.071,18.028,18.028,18.028h0.968c9.957,0,18.028-8.071,18.028-18.028V138.533
	C217.497,128.576,209.425,120.504,199.469,120.504z"/>
<path style="fill:#E6CB59;" d="M189.18,243.094c-2.976,0-5.884,0.29-8.708,0.823v70.336c2.824,0.533,5.732,0.823,8.708,0.823h19.609
	c2.976,0,5.884-0.291,8.707-0.823v-70.336c-2.824-0.533-5.732-0.823-8.707-0.823H189.18z"/>
<path style="fill:#485877;" d="M208.789,176.132h-19.609c-11.672,0-21.133,9.461-21.133,21.133v70.924
	c0,11.672,9.462,21.133,21.133,21.133h19.609c11.672,0,21.133-9.462,21.133-21.133v-70.924
	C229.923,185.594,220.461,176.132,208.789,176.132z"/>
<path style="fill:#FD6F71;" d="M313.5,120.504h-0.968c-9.957,0-18.028,8.071-18.028,18.028v294.825
	c0,9.957,8.071,18.028,18.028,18.028h0.968c9.957,0,18.028-8.071,18.028-18.028V138.533
	C331.528,128.576,323.456,120.504,313.5,120.504z"/>
<path style="fill:#E36465;" d="M303.21,316.866c-2.976,0-5.884,0.292-8.707,0.824v60.034c2.824,0.533,5.732,0.823,8.707,0.823
	h19.609c2.976,0,5.884-0.291,8.708-0.823V317.69c-2.824-0.533-5.732-0.824-8.708-0.824H303.21z"/>
<path style="fill:#485877;" d="M322.821,239.604h-19.609c-11.672,0-21.133,9.461-21.133,21.133v70.924
	c0,11.672,9.462,21.133,21.133,21.133h19.609c11.672,0,21.133-9.462,21.133-21.133v-70.924
	C343.954,249.065,334.492,239.604,322.821,239.604z"/>
<path style="fill:#6EE3FF;" d="M427.53,120.504h-0.968c-9.957,0-18.028,8.071-18.028,18.028v294.825
	c0,9.957,8.071,18.028,18.028,18.028h0.968c9.957,0,18.028-8.071,18.028-18.028V138.533
	C445.558,128.576,437.487,120.504,427.53,120.504z"/>
<path style="fill:#42C3E2;" d="M417.242,242.818c-2.976,0-5.884,0.29-8.708,0.823v60.034c2.824,0.533,5.732,0.824,8.708,0.824
	h19.609c2.976,0,5.884-0.292,8.708-0.824v-60.034c-2.824-0.533-5.732-0.823-8.708-0.823H417.242z"/>
<path style="fill:#485877;" d="M436.851,165.554h-19.609c-11.672,0-21.133,9.461-21.133,21.133v70.924
	c0,11.672,9.462,21.133,21.133,21.133h19.609c11.672,0,21.133-9.462,21.133-21.133v-70.924
	C457.984,175.015,448.522,165.554,436.851,165.554z"/>
<g>
</g>
<g>
</g>
<g>
</g>
<g>
</g>
<g>
</g>
<g>
</g>
<g>
</g>
<g>
</g>
<g>
</g>
<g>
</g>
<g>
</g>
<g>
</g>
<g>
</g>
<g>
</g>
<g>
</g>
</svg>
