<?xml version="1.0" encoding="iso-8859-1"?>
<!-- Generator: Adobe Illustrator 19.0.0, SVG Export Plug-In . SVG Version: 6.00 Build 0)  -->
<svg version="1.1" id="Capa_1" xmlns="http://www.w3.org/2000/svg" xmlns:xlink="http://www.w3.org/1999/xlink" x="0px" y="0px"
	 viewBox="0 0 512.001 512.001" style="enable-background:new 0 0 512.001 512.001;" xml:space="preserve">
<path style="fill:#D4D2D3;" d="M380.302,131.699L257.609,45.576c-12.629,13.177-22.329,28.116-29.123,44.001l81.886,112.052
	l112.052,81.886c15.885-6.794,30.824-16.495,44.001-29.123L380.302,131.699z"/>
<path style="fill:#B8B8B8;" d="M380.302,131.699l-12.84-9.013l77.11,109.852c-13.177,12.628-28.116,22.329-44.001,29.123
	l-99.426-72.659l9.227,12.626l112.052,81.886c15.885-6.794,30.824-16.495,44.001-29.123L380.302,131.699z"/>
<path style="fill:#EFEDEE;" d="M468.743,252.13c-0.767,0.767-1.536,1.522-2.317,2.262L257.609,45.576
	c0.741-0.782,1.495-1.549,2.262-2.317c57.678-57.678,151.193-57.678,208.87,0S526.42,194.451,468.743,252.13z"/>
<path style="fill:#D4D2D3;" d="M468.743,43.258c-3.69-3.69-7.53-7.141-11.495-10.36c47.079,58.006,43.629,143.389-10.359,197.376
	c-0.767,0.767-1.536,1.522-2.317,2.262l21.853,21.853c0.782-0.741,1.549-1.495,2.317-2.262
	C526.42,194.451,526.42,100.937,468.743,43.258z"/>
<path style="fill:#485877;" d="M228.486,89.577c-11.936,27.911-14.877,58.741-8.816,88.084l43.686,70.986l70.986,43.686
	c29.343,6.061,60.174,3.119,88.084-8.816L228.486,89.577z"/>
<path style="fill:#334060;" d="M400.57,261.662c-27.911,11.936-58.741,14.877-88.084,8.816l-57.457-35.36l8.326,13.528
	l70.986,43.686c29.343,6.061,60.174,3.119,88.084-8.816L400.57,261.662z"/>
<polygon style="fill:#485877;" points="127.307,487.395 307.033,319.639 263.354,248.646 192.362,204.968 24.606,384.694 
	24.606,444.098 65.679,485.171 "/>
<polygon style="fill:#334060;" points="263.354,248.646 249.825,240.323 285.18,297.785 101.452,468.346 43.826,463.318 
	65.679,485.171 127.307,487.395 307.033,319.639 "/>
<g>
	<path style="fill:#3A484A;" d="M360.91,59.52c-1.977,0-3.955-0.754-5.463-2.263c-3.017-3.017-3.017-7.91,0-10.927l8.986-8.985
		c3.017-3.016,7.91-3.017,10.926,0c3.017,3.017,3.017,7.91,0,10.927l-8.986,8.985C364.864,58.765,362.886,59.52,360.91,59.52z"/>
	<path style="fill:#3A484A;" d="M460.207,158.817c-1.978,0-3.955-0.754-5.464-2.263c-3.017-3.017-3.017-7.91,0-10.927l8.986-8.985
		c3.019-3.017,7.911-3.016,10.927,0c3.017,3.017,3.017,7.91,0,10.927l-8.986,8.985C464.162,158.063,462.184,158.817,460.207,158.817
		z"/>
	<path style="fill:#3A484A;" d="M421.991,120.845c-8.007,0-15.818-3.272-21.691-9.144c-6.353-6.352-9.661-14.975-9.078-23.657
		c0.285-4.258,3.965-7.477,8.227-7.191c4.258,0.286,7.477,3.969,7.191,8.227c-0.284,4.233,1.388,8.495,4.586,11.695
		c3.199,3.2,7.46,4.872,11.695,4.587c4.256-0.285,7.941,2.934,8.227,7.192c0.285,4.258-2.934,7.941-7.191,8.227
		C423.3,120.824,422.644,120.845,421.991,120.845z"/>
</g>
<path style="fill:#D4D2D3;" d="M334.34,292.332L219.668,177.661c-7.541-7.541-19.766-7.541-27.307,0l0,0
	c-7.541,7.541-7.541,19.766,0,27.307l114.672,114.672c7.541,7.541,19.766,7.541,27.307,0l0,0
	C341.881,312.098,341.881,299.872,334.34,292.332z"/>
<path style="fill:#B8B8B8;" d="M334.34,292.332l-21.853-21.853c7.541,7.541,7.541,19.766,0,27.307l0,0
	c-7.541,7.541-19.766,7.541-27.307,0l21.853,21.853c7.541,7.541,19.766,7.541,27.307,0l0,0
	C341.881,312.098,341.881,299.872,334.34,292.332z"/>
<path style="fill:#D4D2D3;" d="M127.307,487.395l-9.296,8.679c-23.323,21.774-59.714,21.143-82.277-1.42l-18.388-18.388
	c-22.563-22.563-23.193-58.953-1.42-82.277l8.679-9.296c11.929,18.099,27.725,37.433,46.496,56.205
	C89.874,459.67,109.207,475.466,127.307,487.395z"/>
<path style="fill:#B8B8B8;" d="M101.99,468.775l-5.833,5.446c-22.723,21.214-57.844,21.152-80.501,0.271
	c0.552,0.599,1.11,1.195,1.691,1.776l18.388,18.388c22.563,22.563,58.953,23.194,82.277,1.42l9.296-8.679
	C119.067,481.964,110.571,475.724,101.99,468.775z"/>
<path style="fill:#334060;" d="M224.674,287.327c-7.762-7.762-20.347-7.762-28.108,0l-28.795,28.795
	c-7.762,7.762-7.762,20.347,0,28.108c7.762,7.762,20.347,7.762,28.11,0l28.795-28.795
	C232.436,307.674,232.436,295.089,224.674,287.327z"/>
<circle style="fill:#58B78C;" cx="206.161" cy="305.84" r="7.393"/>
<g>
</g>
<g>
</g>
<g>
</g>
<g>
</g>
<g>
</g>
<g>
</g>
<g>
</g>
<g>
</g>
<g>
</g>
<g>
</g>
<g>
</g>
<g>
</g>
<g>
</g>
<g>
</g>
<g>
</g>
</svg>
