<?xml version="1.0" encoding="iso-8859-1"?>
<!-- Generator: Adobe Illustrator 19.0.0, SVG Export Plug-In . SVG Version: 6.00 Build 0)  -->
<svg version="1.1" id="Capa_1" xmlns="http://www.w3.org/2000/svg" xmlns:xlink="http://www.w3.org/1999/xlink" x="0px" y="0px"
	 viewBox="0 0 512 512" style="enable-background:new 0 0 512 512;" xml:space="preserve">
<path style="fill:#D4D2D3;" d="M457.272,507.964H67.355c-25.21,0-48.095-13.894-59.726-36.26
	c-11.631-22.367-9.862-49.082,4.616-69.72l205.876-293.463c12.588-17.944,33.189-28.657,55.109-28.657
	c21.92,0,42.522,10.713,55.11,28.657l179.205,255.446c7.79,11.105,5.104,26.423-6.002,34.213
	c-11.105,7.791-26.423,5.105-34.214-6.001L288.124,136.734c-3.453-4.922-8.881-7.745-14.894-7.745
	c-6.013,0-11.441,2.823-14.894,7.745L52.46,430.197c-5.726,8.162-2.779,15.896-1.248,18.843c1.532,2.946,6.173,9.8,16.142,9.8
	h389.916c13.565,0,24.563,10.996,24.563,24.563S470.837,507.964,457.272,507.964z"/>
<path style="fill:#42C3E2;" d="M273.23,197.259c-13.565,0-24.563-10.997-24.563-24.563V28.599c0-13.565,10.997-24.563,24.563-24.563
	c13.565,0,24.563,10.997,24.563,24.563v144.098C297.792,186.262,286.796,197.259,273.23,197.259z"/>
<polygon style="fill:#B8B8B8;" points="142.97,215.644 113.465,257.703 148.731,292.969 180.866,247.162 "/>
<path style="fill:#EFEDEE;" d="M317.125,366.711L75.202,124.787c-7.034-7.034-18.439-7.034-25.473,0l0,0
	c-7.034,7.034-7.034,18.439,0,25.473l241.924,241.924l29.719,4.245L317.125,366.711z"/>
<path style="fill:#B8B8B8;" d="M354.157,504.237c1.228,1.312,2.519,2.554,3.864,3.726h69.784c0.902-0.789,1.79-1.6,2.646-2.455
	c10.112-10.113,15.776-24.116,15.538-38.417c-0.046-2.778-0.321-5.537-0.8-8.253H311.687L354.157,504.237z"/>
<path style="fill:#485877;" d="M408.065,451.784l-90.94-85.073l-25.473,25.473l85.073,90.94c8.564,9.154,23.007,9.395,31.872,0.531
	l0,0C417.461,474.792,417.22,460.348,408.065,451.784z"/>
<g>
</g>
<g>
</g>
<g>
</g>
<g>
</g>
<g>
</g>
<g>
</g>
<g>
</g>
<g>
</g>
<g>
</g>
<g>
</g>
<g>
</g>
<g>
</g>
<g>
</g>
<g>
</g>
<g>
</g>
</svg>
