<?xml version="1.0" encoding="iso-8859-1"?>
<!-- Generator: Adobe Illustrator 19.0.0, SVG Export Plug-In . SVG Version: 6.00 Build 0)  -->
<svg version="1.1" id="Capa_1" xmlns="http://www.w3.org/2000/svg" xmlns:xlink="http://www.w3.org/1999/xlink" x="0px" y="0px"
	 viewBox="0 0 512 512" style="enable-background:new 0 0 512 512;" xml:space="preserve">
<path style="fill:#FADC60;" d="M93.046,39.788L61.13,44.43c-2.646,0.385-5.09,1.635-6.951,3.555L44.017,58.476
	c-2.059,2.125-4.826,3.423-7.778,3.647l-21.918,1.661c-4.876,0.37-9.05,3.637-10.58,8.281l0,0
	c-2.579,7.828,3.252,15.887,11.494,15.887h77.812l23.161-31.935L93.046,39.788z"/>
<path style="fill:#FD6F71;" d="M383.375,188.466c-63.152,29.943-77.049,143.535-80.108,192.079
	c-0.745,11.822-10.09,21.559-21.919,22.181c-12.75,0.672-23.53-9.005-24.38-21.587L234.462,48.183
	C232.629,21.062,210.095,0,182.913,0c-10.691,0-21.095,3.356-29.846,9.498c-30.813,21.623-60.02,30.289-60.02,30.289v48.164
	L134.4,65.657c8.336-4.495,18.887-2.763,24.862,4.585c2.92,3.589,4.63,8.239,4.405,13.387l-12.438,285.426
	C151.229,483.73,210.088,512,288.081,512c62.918,0,112.628-45.414,125.309-107.147c8.071-39.29,7.814-101.213,64.568-101.213
	L383.375,188.466z"/>
<g>
	<path style="fill:#E36465;" d="M171.832,369.055l12.438-285.426c0.225-5.148-1.487-9.797-4.405-13.387
		c-5.975-7.348-16.525-9.079-24.862-4.585l-0.644,0.347c1.827,1.099,3.494,2.507,4.903,4.238c2.92,3.59,4.63,8.239,4.405,13.387
		l-12.438,285.426C151.229,483.731,210.088,512,288.081,512c2.743,0,5.46-0.092,8.152-0.262
		C224.513,508.691,171.832,477.54,171.832,369.055z"/>
	<path style="fill:#E36465;" d="M350.928,215.492c0.112,0.139,0.216,0.283,0.33,0.422l86.481,105.307
		c8.67-10.667,21.261-17.581,40.218-17.581l-94.582-115.174C370.668,194.491,359.96,203.906,350.928,215.492z"/>
</g>
<path style="fill:#FADC60;" d="M504.827,271.597l-89.162-108.574c-6.246-7.605-17.474-8.707-25.079-2.462l-16.962,13.93
	c-7.605,6.246-8.707,17.474-2.462,25.079l89.162,108.574c6.246,7.605,17.474,8.707,25.079,2.462l16.962-13.929
	C509.971,290.43,511.073,279.202,504.827,271.597z"/>
<g>
	<path style="fill:#E6CB59;" d="M203.115,127.59H155.58v23.924h47.535c6.607,0,11.961-5.356,11.961-11.961
		C215.076,132.947,209.72,127.59,203.115,127.59z"/>
	<path style="fill:#E6CB59;" d="M199.797,203.597h-47.535v23.924h47.535c6.607,0,11.961-5.356,11.961-11.961
		C211.759,208.954,206.403,203.597,199.797,203.597z"/>
	<path style="fill:#E6CB59;" d="M196.255,281.876H148.72V305.8h47.535c6.607,0,11.961-5.356,11.961-11.961
		C208.216,287.232,202.86,281.876,196.255,281.876z"/>
	<circle style="fill:#E6CB59;" cx="336.21" cy="272.359" r="33.374"/>
	<circle style="fill:#E6CB59;" cx="313.968" cy="352.198" r="28.011"/>
</g>
<g>
	<circle style="fill:#FADC60;" cx="161.234" cy="139.548" r="21.343"/>
	<circle style="fill:#FADC60;" cx="157.916" cy="215.555" r="21.343"/>
	<circle style="fill:#FADC60;" cx="154.373" cy="293.839" r="21.343"/>
</g>
<g>
</g>
<g>
</g>
<g>
</g>
<g>
</g>
<g>
</g>
<g>
</g>
<g>
</g>
<g>
</g>
<g>
</g>
<g>
</g>
<g>
</g>
<g>
</g>
<g>
</g>
<g>
</g>
<g>
</g>
</svg>
