<?xml version="1.0" encoding="iso-8859-1"?>
<!-- Generator: Adobe Illustrator 19.0.0, SVG Export Plug-In . SVG Version: 6.00 Build 0)  -->
<svg version="1.1" id="Capa_1" xmlns="http://www.w3.org/2000/svg" xmlns:xlink="http://www.w3.org/1999/xlink" x="0px" y="0px"
	 viewBox="0 0 512 512" style="enable-background:new 0 0 512 512;" xml:space="preserve">
<path style="fill:#485877;" d="M256,417.289l55.746-5.405c9.547-0.926,18.036,6.063,18.963,15.61
	c0.926,9.547-6.063,18.036-15.61,18.963c-1.103,0.107-2.287,0.096-3.352,0L256,441.051c-6.561-0.637-11.365-6.472-10.728-13.033
	C245.832,422.238,250.43,417.825,256,417.289z"/>
<path style="fill:#EFEDEE;" d="M256,0c-10.005,0-18.117,8.111-18.117,18.117V512h36.232V18.117C274.117,8.111,266.005,0,256,0z"/>
<path style="fill:#FADC60;" d="M103.964,121.775c0,0,41.556-55.239,152.036-55.239s152.036,55.239,152.036,55.239L256,146.048
	L103.964,121.775z"/>
<path style="fill:#E6CB59;" d="M489.35,175.926c-31.062-41.795-81.314-54.153-81.314-54.153H103.964
	c0,0-50.251,12.357-81.314,54.153c-4.536,6.104-0.217,14.771,7.386,14.771h451.926C489.568,190.697,493.887,182.03,489.35,175.926z"
	/>
<g>
	<path style="fill:#3A484A;" d="M182.6,167.058c-4.267,0-7.726-3.459-7.726-7.726v-13.284c0-4.267,3.459-7.726,7.726-7.726
		s7.726,3.459,7.726,7.726v13.284C190.326,163.599,186.867,167.058,182.6,167.058z"/>
	<path style="fill:#3A484A;" d="M329.401,167.058c-4.267,0-7.726-3.459-7.726-7.726v-13.284c0-4.267,3.459-7.726,7.726-7.726
		s7.726,3.459,7.726,7.726v13.284C337.127,163.599,333.669,167.058,329.401,167.058z"/>
	<path style="fill:#3A484A;" d="M256,174.15c-9.29,0-18.014-3.884-23.933-10.656c-2.808-3.213-2.481-8.094,0.731-10.902
		c3.212-2.808,8.093-2.481,10.902,0.731c2.985,3.415,7.469,5.374,12.299,5.374c4.831,0,9.314-1.958,12.298-5.373
		c2.808-3.213,7.689-3.541,10.902-0.732s3.541,7.689,0.732,10.902C274.014,170.265,265.29,174.15,256,174.15z"/>
</g>
<path style="fill:#D4D2D3;" d="M237.883,245.605v127.969c5.963,0.322,12.005,0.487,18.117,0.487c6.112,0,12.153-0.165,18.117-0.487
	V245.605L256,242.713L237.883,245.605z"/>
<path style="fill:#FADC60;" d="M103.964,293.068c0,0,41.556,55.239,152.036,55.239s152.036-55.239,152.036-55.239L256,268.794
	L103.964,293.068z"/>
<path style="fill:#E6CB59;" d="M489.35,238.915c-31.062,41.795-81.314,54.152-81.314,54.152H103.964
	c0,0-50.251-12.357-81.314-54.153c-4.536-6.104-0.217-14.771,7.386-14.771h451.926C489.568,224.145,493.887,232.813,489.35,238.915z
	"/>
<path style="fill:#B8B8B8;" d="M274.117,393.52h-36.233c-8.134,0-12.056,6.594-12.056,14.728v41.842
	c0,8.134,3.922,14.728,12.056,14.728h36.233c8.134,0,12.056-6.594,12.056-14.728v-41.842
	C286.172,400.114,282.251,393.52,274.117,393.52z"/>
<rect x="237.879" y="464.818" style="fill:#D4D2D3;" width="36.231" height="26.353"/>
<g>
</g>
<g>
</g>
<g>
</g>
<g>
</g>
<g>
</g>
<g>
</g>
<g>
</g>
<g>
</g>
<g>
</g>
<g>
</g>
<g>
</g>
<g>
</g>
<g>
</g>
<g>
</g>
<g>
</g>
</svg>
