<?xml version="1.0" encoding="iso-8859-1"?>
<!-- Generator: Adobe Illustrator 19.0.0, SVG Export Plug-In . SVG Version: 6.00 Build 0)  -->
<svg version="1.1" id="Capa_1" xmlns="http://www.w3.org/2000/svg" xmlns:xlink="http://www.w3.org/1999/xlink" x="0px" y="0px"
	 viewBox="0 0 512 512" style="enable-background:new 0 0 512 512;" xml:space="preserve">
<path style="fill:#FD6F71;" d="M429.859,90.728c0,0,33.46,5.258,48.697-28.62c5.351-11.898,16.432-19.488,25.752-24.015
	c7.548-3.666,10.063-13.176,5.186-20.005l0,0c-3.494-4.891-9.806-6.877-15.471-4.867L436.91,33.487l-28.083,36.209l0.239,20.793
	L429.859,90.728z"/>
<path style="fill:#E36465;" d="M509.494,18.088L509.494,18.088c-1.999-2.798-4.92-4.64-8.114-5.332
	c1.268,5.879-1.54,12.201-7.374,15.035c-9.319,4.527-20.402,12.118-25.752,24.015c-15.236,33.879-48.697,28.62-48.697,28.62
	l-10.609-0.122l0.117,10.184l20.793,0.239c0,0,33.46,5.258,48.697-28.62c5.351-11.897,16.432-19.488,25.752-24.015
	C511.857,34.426,514.371,24.917,509.494,18.088z"/>
<path style="fill:#FD6F71;" d="M201.611,456.642c23.387-51.253,35.025-74.34,49.8-88.867c17.448-14.629,55.562-19.761,64.965-41.36
	c4.452-10.227-6.82-20.28-16.604-14.926c-17.421,9.533-44.773,16.801-57.009-21.123l-3.931-61.357
	c-56.341-7.548-8.54-56.305-8.54-56.305c30.592-37.284-40.63-37.762-67.399,20.554s-24.464,61.099-119.98,104.684
	c-56.073,25.587-47.2,72.408-29.164,107.985c17.438,34.397,45.482,62.441,79.879,79.879
	C129.203,503.842,176.025,512.715,201.611,456.642z"/>
<path style="fill:#E36465;" d="M299.773,311.489c-3.847,2.105-8.178,4.099-12.723,5.521c-15.133,12.83-42.289,18.464-56.242,30.162
	c-14.774,14.528-26.413,37.615-49.8,88.868c-25.587,56.073-72.408,47.2-107.985,29.164c-12.816-6.497-24.75-14.47-35.582-23.692
	c15.529,18.239,34.607,33.356,56.186,44.296c35.575,18.035,82.398,26.908,107.985-29.164c23.387-51.251,35.026-74.34,49.8-88.868
	c17.448-14.629,55.562-19.761,64.965-41.36C320.83,316.189,309.557,306.135,299.773,311.489z"/>
<g>
	<polygon style="fill:#485877;" points="429.859,90.728 408.827,69.696 180.579,283.603 215.952,318.976 	"/>
	<path style="fill:#485877;" d="M189.329,335.374l-25.148-25.148c-5.992-5.992-15.705-5.992-21.697,0
		c-5.992,5.992-5.992,15.705,0,21.697l25.148,25.148c5.992,5.992,15.705,5.992,21.697,0
		C195.32,351.079,195.32,341.366,189.329,335.374z"/>
	<path style="fill:#485877;" d="M155.814,385.032l-41.29-41.29c-4.438-4.438-11.633-4.438-16.071,0L82.976,359.22
		c-4.438,4.438-4.438,11.633,0,16.071l41.29,41.29c4.438,4.438,11.633,4.438,16.071,0l15.477-15.477
		C160.251,396.665,160.251,389.47,155.814,385.032z"/>
</g>
<g>
	<path style="fill:#3A484A;" d="M44.177,395.323c-1.977,0-3.955-0.754-5.463-2.263c-3.017-3.017-3.017-7.91,0-10.927l6.134-6.134
		c3.017-3.016,7.91-3.017,10.926,0c3.017,3.017,3.017,7.91,0,10.927l-6.134,6.134C48.131,394.569,46.154,395.323,44.177,395.323z"/>
	<path style="fill:#3A484A;" d="M111.958,463.105c-1.977,0-3.954-0.754-5.463-2.263c-3.017-3.017-3.017-7.909,0-10.926l6.134-6.134
		c3.017-3.017,7.909-3.017,10.927,0c3.017,3.017,3.017,7.909,0,10.926l-6.134,6.134C115.913,462.35,113.935,463.105,111.958,463.105
		z"/>
	<path style="fill:#3A484A;" d="M85.871,437.185c-6.113,0-12.071-2.49-16.541-6.96c-4.837-4.837-7.355-11.414-6.909-18.047
		c0.285-4.258,3.966-7.475,8.226-7.191c4.258,0.286,7.477,3.969,7.191,8.227c-0.146,2.183,0.735,4.401,2.419,6.084
		c1.683,1.683,3.896,2.563,6.084,2.418c4.257-0.283,7.941,2.934,8.226,7.191c0.286,4.258-2.934,7.941-7.191,8.227
		C86.874,437.168,86.371,437.185,85.871,437.185z"/>
</g>
<g>
</g>
<g>
</g>
<g>
</g>
<g>
</g>
<g>
</g>
<g>
</g>
<g>
</g>
<g>
</g>
<g>
</g>
<g>
</g>
<g>
</g>
<g>
</g>
<g>
</g>
<g>
</g>
<g>
</g>
</svg>
