<?xml version="1.0" encoding="iso-8859-1"?>
<!-- Generator: Adobe Illustrator 19.0.0, SVG Export Plug-In . SVG Version: 6.00 Build 0)  -->
<svg version="1.1" id="Capa_1" xmlns="http://www.w3.org/2000/svg" xmlns:xlink="http://www.w3.org/1999/xlink" x="0px" y="0px"
	 viewBox="0 0 511.999 511.999" style="enable-background:new 0 0 511.999 511.999;" xml:space="preserve">
<path style="fill:#6EE3FF;" d="M401.088,444.457h84.667c14.487,0,26.244-11.756,26.244-26.244V93.786
	c0-14.487-11.756-26.244-26.244-26.244H26.244C11.756,67.542,0,79.299,0,93.786v324.426c0,14.487,11.756,26.244,26.244,26.244
	h84.667L256,409.44L401.088,444.457z"/>
<path style="fill:#42C3E2;" d="M30.905,418.212V93.787c0-14.487,11.756-26.244,26.244-26.244H26.244
	C11.756,67.542,0,79.299,0,93.787v324.425c0,14.487,11.756,26.244,26.244,26.244h30.905C42.662,444.457,30.905,432.7,30.905,418.212
	z"/>
<path style="fill:#FF98C9;" d="M401.088,444.457H110.912l11.904-46.406c3.572-13.91,16.106-23.628,30.457-23.628h205.455
	c14.351,0,26.885,9.718,30.457,23.628L401.088,444.457z"/>
<g>
	<circle style="fill:#EFEDEE;" cx="186.926" cy="409.486" r="14.845"/>
	<circle style="fill:#EFEDEE;" cx="325.074" cy="409.486" r="14.845"/>
	<path style="fill:#EFEDEE;" d="M438.679,116.858H73.321c-11.777,0-21.317,9.539-21.317,21.317v58.308L256,216.09l203.995-19.607
		v-58.308C459.995,126.398,450.456,116.858,438.679,116.858z"/>
</g>
<g>
	<path style="fill:#3A484A;" d="M168.8,170.215c-4.267,0-7.726-3.459-7.726-7.726v-15.781c0-4.267,3.459-7.726,7.726-7.726
		c4.267,0,7.726,3.459,7.726,7.726v15.781C176.527,166.756,173.067,170.215,168.8,170.215z"/>
	<path style="fill:#3A484A;" d="M343.2,170.215c-4.267,0-7.726-3.459-7.726-7.726v-15.781c0-4.267,3.459-7.726,7.726-7.726
		c4.267,0,7.726,3.459,7.726,7.726v15.781C350.926,166.756,347.467,170.215,343.2,170.215z"/>
	<path style="fill:#3A484A;" d="M256,178.639c-10.618,0-20.583-4.434-27.34-12.163c-2.808-3.213-2.481-8.094,0.732-10.902
		c3.211-2.807,8.094-2.481,10.902,0.732c3.822,4.373,9.547,6.881,15.705,6.881c6.158,0,11.883-2.507,15.705-6.881
		c2.808-3.213,7.689-3.541,10.902-0.732c3.213,2.808,3.541,7.689,0.732,10.902C276.583,174.205,266.618,178.639,256,178.639z"/>
</g>
<g>
	<circle style="fill:#EFEDEE;" cx="62.11" cy="403.315" r="10.101"/>
	<circle style="fill:#EFEDEE;" cx="32.689" cy="100.741" r="10.101"/>
	<circle style="fill:#EFEDEE;" cx="449.89" cy="403.315" r="10.101"/>
	<circle style="fill:#EFEDEE;" cx="479.312" cy="100.741" r="10.101"/>
</g>
<path style="fill:#FF98C9;" d="M459.995,196.483v122.825c0,11.767-9.539,21.316-21.316,21.316H73.321
	c-11.777,0-21.317-9.55-21.317-21.316V196.483H459.995z"/>
<rect x="137.333" y="226.65" style="fill:#42C3E2;" width="237.323" height="83.816"/>
<g>
	<path style="fill:#FADC60;" d="M137.335,310.46c23.144,0,41.906-18.762,41.906-41.906l0,0c0-23.144-18.762-41.906-41.906-41.906
		S95.43,245.41,95.43,268.554l0,0C95.431,291.698,114.192,310.46,137.335,310.46z"/>
	<path style="fill:#FADC60;" d="M374.664,310.46c-23.144,0-41.906-18.762-41.906-41.906l0,0c0-23.144,18.762-41.906,41.906-41.906
		c23.144,0,41.906,18.762,41.906,41.906l0,0C416.569,291.698,397.808,310.46,374.664,310.46z"/>
</g>
<g>
</g>
<g>
</g>
<g>
</g>
<g>
</g>
<g>
</g>
<g>
</g>
<g>
</g>
<g>
</g>
<g>
</g>
<g>
</g>
<g>
</g>
<g>
</g>
<g>
</g>
<g>
</g>
<g>
</g>
</svg>
