<?xml version="1.0" encoding="iso-8859-1"?>
<!-- Generator: Adobe Illustrator 19.0.0, SVG Export Plug-In . SVG Version: 6.00 Build 0)  -->
<svg version="1.1" id="Capa_1" xmlns="http://www.w3.org/2000/svg" xmlns:xlink="http://www.w3.org/1999/xlink" x="0px" y="0px"
	 viewBox="0 0 512.001 512.001" style="enable-background:new 0 0 512.001 512.001;" xml:space="preserve">
<g>
	<polygon style="fill:#485877;" points="438.815,45.766 386.771,84.046 425.313,122.588 463.593,70.544 460.971,48.388 	"/>
	<path style="fill:#485877;" d="M485.114,6.831l-26.764,19.4l2.622,22.156l22.156,2.622l19.4-26.764
		c2.403-3.316,2.041-7.887-0.855-10.783l-5.776-5.776C493.001,4.79,488.43,4.427,485.114,6.831z"/>
</g>
<path style="fill:#58B78C;" d="M192.516,492.584l-1.61,1.61c-14.055,14.055-35.92,16.608-52.831,6.181L20.381,427.792
	c-23.566-14.522-27.393-47.242-7.819-66.817L321.097,52.441c14.055-14.055,35.92-16.608,52.831-6.181l117.693,72.584
	c23.566,14.522,27.392,47.242,7.819,66.817l-10.407,10.407L304.081,306.682L192.516,492.584z"/>
<path style="fill:#46926F;" d="M158.678,479.771L40.985,407.187c-23.566-14.522-27.393-47.242-7.819-66.817l-20.604,20.604
	c-19.574,19.574-15.747,52.294,7.819,66.817l117.693,72.585c16.91,10.427,38.777,7.874,52.831-6.181l1.61-1.61l6.079-10.13
	C185.95,488.068,171,487.369,158.678,479.771z"/>
<g>
	<polygon style="fill:#D4D2D3;" points="176.555,306.651 134.061,349.143 163.289,420.864 235.009,450.091 277.502,407.598 
		248.279,335.874 	"/>
	<polygon style="fill:#D4D2D3;" points="346.535,136.671 304.041,179.164 333.269,250.884 404.989,280.111 447.482,237.617 
		417.784,166.369 	"/>
</g>
<path style="fill:#EFEDEE;" d="M134.061,349.143l100.947,100.947l-42.493,42.493l-75.371-75.371
	c-14.123-14.123-14.123-37.029,0-51.152L134.061,349.143z"/>
<polygon style="fill:#D4D2D3;" points="261.548,221.656 219.056,264.15 248.279,335.874 320.002,365.097 362.496,322.604 
	333.269,250.884 "/>
<g>
	
		<rect x="176.892" y="305.827" transform="matrix(0.7071 0.7071 -0.7071 0.7071 310.218 -77.1789)" style="fill:#EFEDEE;" width="142.761" height="60.1"/>
	
		<rect x="261.884" y="220.838" transform="matrix(0.7071 0.7071 -0.7071 0.7071 275.0121 -162.1714)" style="fill:#EFEDEE;" width="142.761" height="60.09"/>
	<path style="fill:#EFEDEE;" d="M413.661,120.696l75.371,75.371l-41.55,41.55L346.534,136.67l15.975-15.975
		C376.633,106.573,399.538,106.573,413.661,120.696z"/>
</g>
<g>
	<path style="fill:#3A484A;" d="M156.855,281.584c-1.978,0-3.955-0.754-5.464-2.263l-9.02-9.02
		c-3.017-3.017-3.017-7.91,0.001-10.927c3.016-3.017,7.909-3.016,10.926,0l9.02,9.02c3.017,3.017,3.017,7.91-0.001,10.927
		C160.81,280.829,158.832,281.584,156.855,281.584z"/>
	<path style="fill:#3A484A;" d="M256.541,181.899c-1.978,0-3.955-0.754-5.464-2.263l-9.02-9.02
		c-3.017-3.017-3.017-7.91,0.001-10.927c3.017-3.017,7.91-3.016,10.926,0l9.02,9.02c3.017,3.017,3.017,7.91-0.001,10.927
		C260.496,181.145,258.518,181.899,256.541,181.899z"/>
	<path style="fill:#3A484A;" d="M195.222,243.464c-0.657,0-1.313-0.022-1.972-0.066c-4.258-0.286-7.477-3.969-7.191-8.227
		c0.286-4.259,3.98-7.475,8.227-7.191c4.254,0.283,8.544-1.395,11.763-4.613s4.9-7.506,4.614-11.764
		c-0.285-4.258,2.935-7.941,7.192-8.226c4.264-0.284,7.941,2.934,8.226,7.192c0.583,8.707-2.734,17.354-9.105,23.725
		C211.087,240.183,203.252,243.464,195.222,243.464z"/>
</g>
<g>
	<path style="fill:#334060;" d="M123.277,359.928l57.32,57.32c3.124,3.124,8.187,3.124,11.31,0l10.26-10.26
		c3.124-3.124,3.124-8.187,0-11.31l-57.32-57.32L123.277,359.928z"/>
	<path style="fill:#334060;" d="M165.769,317.436l57.32,57.32c3.124,3.124,8.187,3.124,11.31,0l10.26-10.26
		c3.124-3.124,3.124-8.187,0-11.31l-57.32-57.32L165.769,317.436z"/>
	<path style="fill:#334060;" d="M250.756,232.449l57.32,57.32c3.124,3.124,8.187,3.124,11.31,0l10.26-10.26
		c3.124-3.124,3.124-8.187,0-11.31l-57.32-57.32L250.756,232.449z"/>
	<path style="fill:#334060;" d="M293.249,189.956l57.32,57.32c3.124,3.124,8.187,3.124,11.31,0l10.26-10.26
		c3.124-3.124,3.124-8.187,0-11.31l-57.32-57.32L293.249,189.956z"/>
	<path style="fill:#334060;" d="M335.743,147.462l57.32,57.32c3.124,3.124,8.187,3.124,11.31,0l10.26-10.26
		c3.124-3.124,3.124-8.187,0-11.31l-57.32-57.32L335.743,147.462z"/>
	<path style="fill:#334060;" d="M438.815,26.232c-5.394,5.394-5.394,14.14,0,19.534l24.778,24.778c5.394,5.394,14.14,5.394,19.534,0
		s5.394-14.14,0-19.534l-24.778-24.778C452.955,20.837,444.21,20.837,438.815,26.232z"/>
</g>
<g>
</g>
<g>
</g>
<g>
</g>
<g>
</g>
<g>
</g>
<g>
</g>
<g>
</g>
<g>
</g>
<g>
</g>
<g>
</g>
<g>
</g>
<g>
</g>
<g>
</g>
<g>
</g>
<g>
</g>
</svg>
