<?xml version="1.0" encoding="iso-8859-1"?>
<!-- Generator: Adobe Illustrator 19.0.0, SVG Export Plug-In . SVG Version: 6.00 Build 0)  -->
<svg version="1.1" id="Capa_1" xmlns="http://www.w3.org/2000/svg" xmlns:xlink="http://www.w3.org/1999/xlink" x="0px" y="0px"
	 viewBox="0 0 512 512" style="enable-background:new 0 0 512 512;" xml:space="preserve">
<polygon style="fill:#EFEDEE;" points="256,402 182,427 182,466.5 256,485.666 330,466.5 330,427 "/>
<polygon style="fill:#D4D2D3;" points="202.604,466.5 202.604,427 266.302,405.48 256,402 182,427 182,466.5 256,485.666 
	266.302,482.998 "/>
<g>
	<polygon style="fill:#C86D5C;" points="437,118 310.334,118 310.334,145 437,145 454.25,131.501 	"/>
	<polygon style="fill:#C86D5C;" points="407,216.667 310.334,216.667 310.334,243.667 407,243.667 424.25,230.167 	"/>
	<polygon style="fill:#C86D5C;" points="397,315.333 310.334,315.333 310.334,342.333 397,342.333 414.25,328.834 	"/>
	<polygon style="fill:#C86D5C;" points="75,118 201.667,118 201.667,145 75,145 57.75,131.501 	"/>
	<polygon style="fill:#C86D5C;" points="105,216.667 201.667,216.667 201.667,243.667 105,243.667 87.75,230.167 	"/>
	<polygon style="fill:#C86D5C;" points="115,315.333 201.667,315.333 201.667,342.333 115,342.333 97.75,328.834 	"/>
</g>
<path style="fill:#FA9F6A;" d="M182,427L182,427c-22.485-27.481-35.866-61.279-38.222-96.708
	c-3.195-48.045-10.958-118.725-29.777-167.292c-13.215-34.101-17.708-60.208-18.513-78.94
	c-0.799-18.609,11.262-35.135,29.023-40.748C159.575,32.232,178.985,0,256,0s96.425,32.232,131.489,43.312
	c17.76,5.612,29.823,22.139,29.023,40.748C415.708,102.79,411.215,128.897,398,163c-18.819,48.567-26.583,119.248-29.777,167.292
	c-2.356,35.429-15.737,69.227-38.222,96.708l0,0H182V427z"/>
<path style="fill:#E0824A;" d="M203.634,427L203.634,427c-22.485-27.481-35.866-61.278-38.222-96.708
	c-3.195-48.045-10.958-118.724-29.777-167.292c-13.215-34.102-17.707-60.209-18.512-78.94
	c-0.799-18.609,11.262-35.135,29.022-40.748C179.506,32.771,198.7,3.083,266.817,0.225C263.34,0.078,259.74,0,256,0
	c-77.015,0-96.425,32.232-131.489,43.312C106.75,48.924,94.688,65.45,95.489,84.06c0.805,18.731,5.297,44.838,18.512,78.94
	c18.819,48.568,26.583,119.248,29.777,167.292c2.356,35.43,15.737,69.227,38.222,96.708l0,0h148l0,0H203.634z"/>
<g>
	<path style="fill:#3A484A;" d="M183.582,75.593c-4.268,0-7.726-3.459-7.726-7.726V54.76c0-4.267,3.458-7.726,7.726-7.726
		c4.268,0,7.726,3.459,7.726,7.726v13.106C191.309,72.134,187.849,75.593,183.582,75.593z"/>
	<path style="fill:#3A484A;" d="M328.419,75.593c-4.268,0-7.726-3.459-7.726-7.726V54.76c0-4.267,3.458-7.726,7.726-7.726
		c4.268,0,7.726,3.459,7.726,7.726v13.106C336.145,72.134,332.686,75.593,328.419,75.593z"/>
	<path style="fill:#3A484A;" d="M256.001,82.589c-9.196,0-17.831-3.846-23.691-10.549c-2.809-3.213-2.481-8.094,0.732-10.902
		c3.211-2.808,8.093-2.481,10.901,0.732c2.926,3.347,7.32,5.267,12.057,5.267c4.737,0,9.13-1.919,12.056-5.266
		c2.808-3.213,7.688-3.541,10.902-0.732c3.212,2.808,3.541,7.689,0.731,10.902C273.83,78.744,265.195,82.589,256.001,82.589z"/>
</g>
<g>
	<circle style="fill:#FADC60;" cx="353.002" cy="131.503" r="18.749"/>
	<circle style="fill:#FADC60;" cx="334.253" cy="230.163" r="18.749"/>
	<circle style="fill:#FADC60;" cx="320.582" cy="328.834" r="18.749"/>
	<circle style="fill:#FADC60;" cx="158.998" cy="131.503" r="18.749"/>
	<circle style="fill:#FADC60;" cx="177.747" cy="230.163" r="18.749"/>
	<circle style="fill:#FADC60;" cx="191.418" cy="328.834" r="18.749"/>
</g>
<rect x="182.002" y="466.497" style="fill:#FA9F6A;" width="147.996" height="45.503"/>
<rect x="182.002" y="466.497" style="fill:#E0824A;" width="20.604" height="45.503"/>
<g>
	<path style="fill:#FA9F6A;" d="M460.121,112.974L437,118v27l23.121,5.026c5.849,1.271,11.378-3.184,11.378-9.171v-18.711
		C471.5,116.158,465.971,111.703,460.121,112.974z"/>
	<path style="fill:#FA9F6A;" d="M430.121,211.64L407,216.667v27l23.121,5.026c5.849,1.271,11.378-3.184,11.378-9.171v-18.711
		C441.501,214.825,435.971,210.369,430.121,211.64z"/>
	<path style="fill:#FA9F6A;" d="M420.121,310.307L397,315.333v27l23.121,5.026c5.849,1.271,11.378-3.184,11.378-9.171v-18.711
		C431.501,313.491,425.971,309.036,420.121,310.307z"/>
	<path style="fill:#FA9F6A;" d="M51.879,112.974L75,118v27l-23.121,5.026c-5.849,1.271-11.378-3.184-11.378-9.171v-18.711
		C40.501,116.158,46.03,111.703,51.879,112.974z"/>
	<path style="fill:#FA9F6A;" d="M81.879,211.64L105,216.667v27l-23.121,5.026c-5.849,1.271-11.378-3.184-11.378-9.171v-18.711
		C70.5,214.825,76.029,210.369,81.879,211.64z"/>
	<path style="fill:#FA9F6A;" d="M91.879,310.307L115,315.333v27l-23.121,5.026c-5.849,1.271-11.378-3.184-11.378-9.171v-18.711
		C80.5,313.491,86.029,309.036,91.879,310.307z"/>
</g>
<g>
</g>
<g>
</g>
<g>
</g>
<g>
</g>
<g>
</g>
<g>
</g>
<g>
</g>
<g>
</g>
<g>
</g>
<g>
</g>
<g>
</g>
<g>
</g>
<g>
</g>
<g>
</g>
<g>
</g>
</svg>
