<?xml version="1.0" encoding="iso-8859-1"?>
<!-- Generator: Adobe Illustrator 19.0.0, SVG Export Plug-In . SVG Version: 6.00 Build 0)  -->
<svg version="1.1" id="Capa_1" xmlns="http://www.w3.org/2000/svg" xmlns:xlink="http://www.w3.org/1999/xlink" x="0px" y="0px"
	 viewBox="0 0 512.002 512.002" style="enable-background:new 0 0 512.002 512.002;" xml:space="preserve">
<path style="fill:#E0824A;" d="M450.707,163.526c-9.224-2.766-16.819-7.654-21.546-13.25L36.403,37.574
	c-0.116-0.034-0.321-0.095-0.438-0.131c-10.097-3.16-15.721-13.906-12.56-24.003S37.312-2.28,47.409,0.879l389.959,122.035
	c7.027-2.071,16.057-1.973,25.282,0.793c17.808,5.34,29.57,18.583,26.273,29.579C485.624,164.283,468.515,168.867,450.707,163.526z"
	/>
<g>
	<path style="fill:#FD6F71;" d="M124.853,327.322l-71.217-42.361v196.654c0,16.782,13.605,30.386,30.375,30.386h70.808
		L124.853,327.322z"/>
	<polygon style="fill:#FD6F71;" points="300.736,310.498 256.001,284.961 188.323,320.439 154.817,512.001 357.184,512.001 
		357.184,432.853 	"/>
	<path style="fill:#FD6F71;" d="M357.184,432.853v79.148h70.809c16.77,0,30.375-13.605,30.375-30.386V284.961L357.184,432.853z"/>
</g>
<g>
	<polygon style="fill:#FADC60;" points="217.447,249.642 53.634,284.961 154.817,512.001 256.001,284.961 	"/>
	<polygon style="fill:#FADC60;" points="294.554,249.642 256.001,284.961 357.184,512.001 458.367,284.961 	"/>
</g>
<path style="fill:#FA9F6A;" d="M61.295,163.526c9.224-2.766,16.819-7.654,21.546-13.25L475.598,37.574
	c0.116-0.034,0.321-0.095,0.438-0.131c10.097-3.16,15.721-13.906,12.56-24.003C485.437,3.344,474.69-2.28,464.593,0.879
	L74.634,122.916c-7.027-2.071-16.057-1.973-25.282,0.793c-17.808,5.34-29.57,18.583-26.273,29.579
	C26.378,164.283,43.487,168.867,61.295,163.526z"/>
<path style="fill:#EFEDEE;" d="M458.371,197.703H53.631c-12.301,0-22.274,9.972-22.274,22.274v42.704
	c0,12.301,9.972,22.274,22.274,22.274h404.741c12.301,0,22.274-9.972,22.274-22.274v-42.704
	C480.645,207.675,470.672,197.703,458.371,197.703z"/>
<path style="fill:#D4D2D3;" d="M72.564,262.681v-42.705c0-12.301,9.972-22.274,22.274-22.274H53.63
	c-12.301,0-22.274,9.972-22.274,22.274v42.705c0,12.301,9.972,22.274,22.274,22.274h41.207
	C82.537,284.955,72.564,274.983,72.564,262.681z"/>
<g>
	<path style="fill:#3A484A;" d="M167.755,257.112c-4.267,0-7.726-3.459-7.726-7.726v-15.971c0-4.267,3.459-7.726,7.726-7.726
		c4.267,0,7.726,3.459,7.726,7.726v15.971C175.482,253.653,172.023,257.112,167.755,257.112z"/>
	<path style="fill:#3A484A;" d="M344.246,257.112c-4.267,0-7.726-3.459-7.726-7.726v-15.971c0-4.267,3.459-7.726,7.726-7.726
		s7.726,3.459,7.726,7.726v15.971C351.972,253.653,348.513,257.112,344.246,257.112z"/>
	<path style="fill:#3A484A;" d="M256.001,265.638c-10.718,0-20.777-4.475-27.598-12.278c-2.808-3.213-2.481-8.094,0.732-10.902
		c3.213-2.808,8.094-2.481,10.902,0.732c3.886,4.445,9.703,6.995,15.963,6.995c6.259,0,12.077-2.55,15.963-6.995
		c2.809-3.213,7.69-3.54,10.902-0.732c3.213,2.808,3.541,7.689,0.732,10.902C276.777,261.163,266.719,265.638,256.001,265.638z"/>
</g>
<g>
</g>
<g>
</g>
<g>
</g>
<g>
</g>
<g>
</g>
<g>
</g>
<g>
</g>
<g>
</g>
<g>
</g>
<g>
</g>
<g>
</g>
<g>
</g>
<g>
</g>
<g>
</g>
<g>
</g>
</svg>
