<?xml version="1.0" encoding="iso-8859-1"?>
<!-- Generator: Adobe Illustrator 19.0.0, SVG Export Plug-In . SVG Version: 6.00 Build 0)  -->
<svg version="1.1" id="Capa_1" xmlns="http://www.w3.org/2000/svg" xmlns:xlink="http://www.w3.org/1999/xlink" x="0px" y="0px"
	 viewBox="0 0 512 512" style="enable-background:new 0 0 512 512;" xml:space="preserve">
<rect x="236.715" y="450.704" style="fill:#B8B8B8;" width="38.58" height="61.296"/>
<path style="fill:#D4D2D3;" d="M407.675,238.345v47.437c0,83.633-68.041,151.675-151.675,151.675s-151.675-68.041-151.675-151.675
	v-50.357H74.9v50.357c0,99.859,81.241,181.1,181.1,181.1s181.1-81.241,181.1-181.1v-47.437H407.675z"/>
<path style="fill:#485877;" d="M256,0L256,0c-70.225,0-127.153,56.929-127.153,127.153v111.192h254.306V127.153
	C383.153,56.929,326.224,0,256,0z"/>
<path style="fill:#334060;" d="M271.453,0.936C266.387,0.323,261.231,0,256,0l0,0c-70.224,0-127.153,56.928-127.153,127.153v111.192
	h30.905V127.153C159.752,62.159,208.517,8.563,271.453,0.936z"/>
<path style="fill:#D4D2D3;" d="M128.847,238.345v47.437c0,70.224,56.929,127.153,127.153,127.153l0,0
	c70.224,0,127.153-56.929,127.153-127.153v-47.437H128.847z"/>
<path style="fill:#B8B8B8;" d="M159.752,285.781v-47.437h-30.905v47.437c0,70.224,56.929,127.153,127.153,127.153l0,0
	c5.231,0,10.387-0.322,15.453-0.936C208.517,404.373,159.752,350.775,159.752,285.781z"/>
<g>
	<path style="fill:#EFEDEE;" d="M184.969,110.584c-4.267,0-7.726-3.459-7.726-7.726V90.002c0-4.267,3.459-7.726,7.726-7.726
		c4.267,0,7.726,3.459,7.726,7.726v12.856C192.695,107.124,189.236,110.584,184.969,110.584z"/>
	<path style="fill:#EFEDEE;" d="M327.031,110.584c-4.267,0-7.726-3.459-7.726-7.726V90.002c0-4.267,3.459-7.726,7.726-7.726
		s7.726,3.459,7.726,7.726v12.856C334.757,107.124,331.298,110.584,327.031,110.584z"/>
	<path style="fill:#EFEDEE;" d="M256,117.446c-9.063,0-17.573-3.79-23.349-10.399c-2.808-3.213-2.481-8.094,0.732-10.902
		c3.213-2.807,8.094-2.481,10.902,0.732c2.841,3.25,7.11,5.115,11.714,5.115s8.873-1.865,11.714-5.115
		c2.808-3.213,7.689-3.541,10.902-0.732c3.213,2.808,3.541,7.689,0.732,10.902C273.573,113.656,265.062,117.446,256,117.446z"/>
</g>
<g>
	<path style="fill:#B8B8B8;" d="M437.1,225.394h-76.705v25.901H437.1c7.153,0,12.95-5.798,12.95-12.95
		C450.05,231.192,444.252,225.394,437.1,225.394z"/>
	<path style="fill:#B8B8B8;" d="M74.9,225.394h76.705v25.901H74.9c-7.153,0-12.95-5.798-12.95-12.95
		C61.95,231.192,67.748,225.394,74.9,225.394z"/>
</g>
<path style="fill:#EFEDEE;" d="M383.153,208.92H128.847c-9.099,0-16.475,7.376-16.475,16.475v25.901
	c0,9.099,7.376,16.475,16.475,16.475h254.306c9.099,0,16.475-7.376,16.475-16.475v-25.901
	C399.629,216.296,392.252,208.92,383.153,208.92z"/>
<path style="fill:#D4D2D3;" d="M143.278,251.295v-25.901c0-9.099,7.376-16.475,16.475-16.475h-30.905
	c-9.099,0-16.475,7.376-16.475,16.475v25.901c0,9.1,7.376,16.476,16.475,16.476h30.905
	C150.654,267.77,143.278,260.394,143.278,251.295z"/>
<g>
</g>
<g>
</g>
<g>
</g>
<g>
</g>
<g>
</g>
<g>
</g>
<g>
</g>
<g>
</g>
<g>
</g>
<g>
</g>
<g>
</g>
<g>
</g>
<g>
</g>
<g>
</g>
<g>
</g>
</svg>
