<?xml version="1.0" encoding="iso-8859-1"?>
<!-- Generator: Adobe Illustrator 19.0.0, SVG Export Plug-In . SVG Version: 6.00 Build 0)  -->
<svg version="1.1" id="Capa_1" xmlns="http://www.w3.org/2000/svg" xmlns:xlink="http://www.w3.org/1999/xlink" x="0px" y="0px"
	 viewBox="0 0 512 512" style="enable-background:new 0 0 512 512;" xml:space="preserve">
<circle style="fill:#485877;" cx="256" cy="256" r="256"/>
<circle style="fill:#EFEDEE;" cx="256" cy="256" r="80.467"/>
<path style="fill:#D4D2D3;" d="M196.131,256c0-40.951,30.595-74.732,70.171-79.794c-3.376-0.432-6.808-0.679-10.302-0.679
	c-44.444,0-80.473,36.029-80.473,80.473s36.029,80.473,80.473,80.473c3.493,0,6.926-0.247,10.302-0.679
	C226.727,330.732,196.131,296.951,196.131,256z"/>
<circle style="fill:#334060;" cx="256" cy="256" r="26.762"/>
<g>
	<path style="fill:#EFEDEE;" d="M441.898,133.898c-4.757-7.227-14.797-8.583-21.23-2.798l-51.216,46.059
		c-4.901,4.407-6.061,11.607-2.854,17.365c10.139,18.2,15.915,39.163,15.915,61.475c0,5.902-0.405,11.709-1.186,17.396
		c-1.077,7.832,4.462,15.022,12.315,15.933l67.282,7.806c7.673,0.89,14.607-4.568,15.603-12.227
		c1.23-9.461,1.862-19.109,1.862-28.908C478.389,210.909,464.969,168.941,441.898,133.898z"/>
	<path style="fill:#EFEDEE;" d="M70.102,378.102c4.757,7.227,14.796,8.583,21.23,2.798l51.216-46.059
		c4.901-4.407,6.061-11.607,2.854-17.365c-10.139-18.2-15.915-39.163-15.915-61.475c0-5.902,0.405-11.709,1.186-17.396
		c1.077-7.831-4.462-15.022-12.315-15.933l-67.282-7.806c-7.673-0.89-14.607,4.568-15.603,12.227
		c-1.23,9.461-1.862,19.109-1.862,28.908C33.611,301.091,47.031,343.059,70.102,378.102z"/>
	<path style="fill:#EFEDEE;" d="M174.718,105.183c-4.267,0-7.726-3.459-7.726-7.726V82.745c0-4.267,3.459-7.726,7.726-7.726
		c4.267,0,7.726,3.459,7.726,7.726v14.711C182.444,101.723,178.985,105.183,174.718,105.183z"/>
	<path style="fill:#EFEDEE;" d="M337.282,105.183c-4.267,0-7.726-3.459-7.726-7.726V82.745c0-4.267,3.459-7.726,7.726-7.726
		c4.267,0,7.726,3.459,7.726,7.726v14.711C345.009,101.723,341.55,105.183,337.282,105.183z"/>
	<path style="fill:#EFEDEE;" d="M256,113.036c-10.048,0-19.481-4.198-25.879-11.517c-2.808-3.213-2.481-8.094,0.732-10.902
		c3.213-2.807,8.093-2.481,10.902,0.732c3.463,3.962,8.656,6.235,14.244,6.235c5.589,0,10.781-2.273,14.244-6.235
		c2.809-3.213,7.689-3.541,10.902-0.732c3.213,2.808,3.541,7.689,0.732,10.902C275.481,108.838,266.048,113.036,256,113.036z"/>
</g>
<g>
</g>
<g>
</g>
<g>
</g>
<g>
</g>
<g>
</g>
<g>
</g>
<g>
</g>
<g>
</g>
<g>
</g>
<g>
</g>
<g>
</g>
<g>
</g>
<g>
</g>
<g>
</g>
<g>
</g>
</svg>
