<?xml version="1.0" encoding="iso-8859-1"?>
<!-- Generator: Adobe Illustrator 19.0.0, SVG Export Plug-In . SVG Version: 6.00 Build 0)  -->
<svg version="1.1" id="Capa_1" xmlns="http://www.w3.org/2000/svg" xmlns:xlink="http://www.w3.org/1999/xlink" x="0px" y="0px"
	 viewBox="0 0 511.999 511.999" style="enable-background:new 0 0 511.999 511.999;" xml:space="preserve">
<g>
	<path style="fill:#FADC60;" d="M104.965,319.106L98.4,325.67c-4.99,4.99-4.99,13.081,0,18.071l161.051,161.051
		c4.99,4.99,13.081,4.99,18.071,0l6.564-6.564c4.99-4.99,4.99-13.081,0-18.071L123.036,319.106
		C118.046,314.115,109.955,314.115,104.965,319.106z"/>
	<path style="fill:#FADC60;" d="M153.51,270.56l-6.564,6.564c-4.99,4.99-4.99,13.081,0,18.071l161.051,161.051
		c4.99,4.99,13.081,4.99,18.071,0l6.564-6.564c4.99-4.99,4.99-13.081,0-18.071L171.581,270.56
		C166.591,265.57,158.5,265.57,153.51,270.56z"/>
	<path style="fill:#FADC60;" d="M202.055,222.014l-6.564,6.564c-4.99,4.99-4.99,13.081,0,18.071l161.051,161.051
		c4.99,4.99,13.081,4.99,18.071,0l6.564-6.564c4.99-4.99,4.99-13.081,0-18.071l-161.05-161.051
		C215.136,217.024,207.045,217.024,202.055,222.014z"/>
</g>
<path style="fill:#6EE3FF;" d="M462.083,168.844C299.846,188.225,79.138,455.377,79.138,455.377l-31.796-2.331l-2.331-31.796
	c0,0,267.152-220.707,286.534-382.944l81.933,48.605L462.083,168.844z"/>
<g>
	<path style="fill:#42C3E2;" d="M340.843,4.977l-9.298,9.298c-6.635,6.635-6.635,17.395,0,24.031l130.538,130.538
		c6.635,6.635,17.395,6.635,24.031,0l9.298-9.298c6.635-6.635,6.635-17.395,0-24.031L364.873,4.977
		C358.238-1.659,347.479-1.659,340.843,4.977z"/>
	<path style="fill:#42C3E2;" d="M26.005,421.25l-10.458,10.458c-5.249,5.249-5.249,13.758,0,19.006l34.127,34.127
		c5.249,5.249,13.758,5.249,19.006,0l10.458-10.458c5.249-5.249,5.249-13.758,0-19.006L45.011,421.25
		C39.762,416.001,31.253,416.001,26.005,421.25z"/>
</g>
<g>
	<path style="fill:#E6CB59;" d="M240.854,292.015l29.021,29.021l15.942-15.942c3.131-3.131,6.847-5.323,10.797-6.592l-30.63-30.63
		c-3.177,2.533-6.247,5.263-9.187,8.202L240.854,292.015z"/>
	
		<rect x="201.715" y="322.237" transform="matrix(0.7071 -0.7071 0.7071 0.7071 -178.1825 255.3438)" style="fill:#E6CB59;" width="34.841" height="41.041"/>
	<path style="fill:#E6CB59;" d="M144.256,389.598l30.63,30.63c1.269-3.951,3.462-7.667,6.592-10.797l15.942-15.942l-29.021-29.021
		l-15.942,15.942C149.518,383.351,146.789,386.421,144.256,389.598z"/>
</g>
<path style="fill:#42C3E2;" d="M363.966,383.242L259.627,487.58c-32.559,32.559-85.537,32.559-118.096,0s-32.559-85.537,0-118.096
	L245.87,265.146c32.559-32.559,85.537-32.559,118.096,0S396.524,350.683,363.966,383.242z M163.267,391.22
	c-20.574,20.574-20.574,54.049,0,74.623c20.574,20.574,54.049,20.574,74.623,0l104.339-104.339
	c20.574-20.574,20.574-54.049,0-74.623c-20.574-20.574-54.049-20.574-74.623,0L163.267,391.22z"/>
<g>
</g>
<g>
</g>
<g>
</g>
<g>
</g>
<g>
</g>
<g>
</g>
<g>
</g>
<g>
</g>
<g>
</g>
<g>
</g>
<g>
</g>
<g>
</g>
<g>
</g>
<g>
</g>
<g>
</g>
</svg>
