<?xml version="1.0" encoding="iso-8859-1"?>
<!-- Generator: Adobe Illustrator 19.0.0, SVG Export Plug-In . SVG Version: 6.00 Build 0)  -->
<svg version="1.1" id="Capa_1" xmlns="http://www.w3.org/2000/svg" xmlns:xlink="http://www.w3.org/1999/xlink" x="0px" y="0px"
	 viewBox="0 0 512.001 512.001" style="enable-background:new 0 0 512.001 512.001;" xml:space="preserve">
<path style="fill:#485877;" d="M460.478,509.026h12.811c21.381,0,38.712-17.33,38.712-38.701V368.003
	c0-53.204-30.008-101.855-77.546-125.729l-57.979-29.128c-11.987-6.033-19.556-18.298-19.556-31.721
	c0-49.286-19.979-93.896-52.268-126.186C272.352,22.949,227.73,2.97,178.455,2.97S84.558,22.949,52.269,55.238
	C19.968,87.527,0,132.138,0,181.424v288.902c0,21.37,17.33,38.701,38.712,38.701h12.811L256,470.445L460.478,509.026z"/>
<g>
	<rect x="343.627" y="345.047" style="fill:#D2D2D2;" width="58.424" height="163.984"/>
	<rect x="226.794" y="345.047" style="fill:#D2D2D2;" width="58.412" height="163.984"/>
	<rect x="109.941" y="345.047" style="fill:#D2D2D2;" width="58.424" height="163.984"/>
</g>
<g>
	<path style="fill:#EFEDEE;" d="M109.946,345.042v163.984H51.522V378.677c0-18.576,15.059-33.636,33.636-33.636h24.787V345.042z"/>
	<rect x="168.373" y="345.047" style="fill:#EFEDEE;" width="58.424" height="163.984"/>
	<rect x="285.206" y="345.047" style="fill:#EFEDEE;" width="58.424" height="163.984"/>
	<path style="fill:#EFEDEE;" d="M460.478,378.678v130.349h-58.424V345.043h24.787C445.417,345.042,460.478,360.101,460.478,378.678z
		"/>
</g>
<g>
	<path style="fill:#334060;" d="M94.119,345.042v90.819c0,4.961,4.022,8.984,8.984,8.984h13.687c4.961,0,8.984-4.022,8.984-8.984
		v-90.819H94.119z"/>
	<path style="fill:#334060;" d="M152.543,345.042v90.819c0,4.961,4.022,8.984,8.984,8.984h13.687c4.961,0,8.984-4.022,8.984-8.984
		v-90.819H152.543z"/>
	<path style="fill:#334060;" d="M269.39,345.042v90.819c0,4.961,4.022,8.984,8.984,8.984h13.687c4.961,0,8.984-4.022,8.984-8.984
		v-90.819H269.39z"/>
	<path style="fill:#334060;" d="M327.814,345.042v90.819c0,4.961,4.022,8.984,8.984,8.984h13.687c4.961,0,8.984-4.022,8.984-8.984
		v-90.819H327.814z"/>
	<path style="fill:#334060;" d="M386.238,345.042v90.819c0,4.961,4.022,8.984,8.984,8.984h13.687c4.961,0,8.984-4.022,8.984-8.984
		v-90.819H386.238z"/>
</g>
<g>
	<path style="fill:#EFEDEE;" d="M92.841,177.8c-4.268,0-7.726-3.459-7.726-7.726v-15.495c0-4.267,3.458-7.726,7.726-7.726
		s7.726,3.459,7.726,7.726v15.495C100.567,174.341,97.109,177.8,92.841,177.8z"/>
	<path style="fill:#EFEDEE;" d="M264.067,177.8c-4.268,0-7.726-3.459-7.726-7.726v-15.495c0-4.267,3.458-7.726,7.726-7.726
		c4.268,0,7.726,3.459,7.726,7.726v15.495C271.794,174.341,268.335,177.8,264.067,177.8z"/>
	<path style="fill:#EFEDEE;" d="M178.454,186.07c-10.466,0-20.287-4.37-26.947-11.991c-2.808-3.213-2.48-8.094,0.734-10.902
		s8.093-2.48,10.902,0.733c3.725,4.263,9.306,6.708,15.312,6.708c6.006,0,11.587-2.445,15.314-6.708
		c2.807-3.213,7.689-3.541,10.902-0.731c3.212,2.808,3.541,7.689,0.731,10.902C198.74,181.7,188.919,186.07,178.454,186.07z"/>
</g>
<g>
</g>
<g>
</g>
<g>
</g>
<g>
</g>
<g>
</g>
<g>
</g>
<g>
</g>
<g>
</g>
<g>
</g>
<g>
</g>
<g>
</g>
<g>
</g>
<g>
</g>
<g>
</g>
<g>
</g>
</svg>
