<?xml version="1.0" encoding="iso-8859-1"?>
<!-- Generator: Adobe Illustrator 19.0.0, SVG Export Plug-In . SVG Version: 6.00 Build 0)  -->
<svg version="1.1" id="Capa_1" xmlns="http://www.w3.org/2000/svg" xmlns:xlink="http://www.w3.org/1999/xlink" x="0px" y="0px"
	 viewBox="0 0 512 512" style="enable-background:new 0 0 512 512;" xml:space="preserve">
<polygon style="fill:#334060;" points="163.74,175.227 365.788,401.73 337.553,416.742 309.319,401.73 132.293,203.279 "/>
<g>
	<polygon style="fill:#485877;" points="348.26,175.227 146.212,401.73 174.447,416.742 202.681,401.73 379.707,203.279 	"/>
	<path style="fill:#485877;" d="M116.644,80.244H99.028c-5.981,0-10.829,4.848-10.829,10.829v13.486l19.637,10.97l19.637-10.97
		V91.074C127.474,85.092,122.625,80.244,116.644,80.244z"/>
	<path style="fill:#485877;" d="M175.903,80.244h-17.616c-5.981,0-10.829,4.848-10.829,10.829v13.486l19.637,10.97l19.637-10.97
		V91.074C186.733,85.092,181.884,80.244,175.903,80.244z"/>
	<path style="fill:#485877;" d="M294.422,80.244h-17.616c-5.981,0-10.829,4.848-10.829,10.829v13.486l19.637,10.97l19.637-10.97
		V91.074C305.251,85.092,300.403,80.244,294.422,80.244z"/>
	<path style="fill:#485877;" d="M353.681,80.244h-17.616c-5.981,0-10.829,4.848-10.829,10.829v13.486l19.637,10.97l19.637-10.97
		V91.074C364.51,85.092,359.662,80.244,353.681,80.244z"/>
	<path style="fill:#485877;" d="M412.94,80.244h-17.616c-5.981,0-10.829,4.848-10.829,10.829v13.486l19.637,10.97l19.637-10.97
		V91.074C423.769,85.092,418.921,80.244,412.94,80.244z"/>
</g>
<path style="fill:#FD6F71;" d="M463.434,104.559h30.773c9.829,0,17.793,7.975,17.793,17.793v55.151
	c0,27.622-22.387,50.009-50.009,50.009H50.009C22.387,227.513,0,205.126,0,177.504v-55.151c0-9.819,7.964-17.793,17.793-17.793
	h30.773L256,132.666L463.434,104.559z"/>
<path style="fill:#E36465;" d="M30.905,177.504v-55.151c0-9.786,7.913-17.737,17.696-17.789l-0.036-0.005H17.793
	C7.964,104.559,0,112.534,0,122.353v55.151c0,27.622,22.387,50.009,50.009,50.009h30.905
	C53.292,227.513,30.905,205.126,30.905,177.504z"/>
<g>
	<rect x="344.905" y="104.563" style="fill:#D4D2D3;" width="59.256" height="56.217"/>
	<rect x="226.362" y="104.563" style="fill:#D4D2D3;" width="59.266" height="56.217"/>
	<rect x="107.839" y="104.563" style="fill:#D4D2D3;" width="59.256" height="56.217"/>
</g>
<g>
	<rect x="48.563" y="104.563" style="fill:#EFEDEE;" width="59.266" height="56.217"/>
	<rect x="167.095" y="104.563" style="fill:#EFEDEE;" width="59.266" height="56.217"/>
	<rect x="285.638" y="104.563" style="fill:#EFEDEE;" width="59.266" height="56.217"/>
	<rect x="404.161" y="104.563" style="fill:#EFEDEE;" width="59.266" height="56.217"/>
</g>
<g>
	<path style="fill:#3A484A;" d="M179.708,203.884c-4.267,0-7.726-3.459-7.726-7.726V182.35c0-4.267,3.459-7.726,7.726-7.726
		c4.267,0,7.726,3.459,7.726,7.726v13.808C187.434,200.424,183.975,203.884,179.708,203.884z"/>
	<path style="fill:#3A484A;" d="M332.292,203.884c-4.267,0-7.726-3.459-7.726-7.726V182.35c0-4.267,3.459-7.726,7.726-7.726
		s7.726,3.459,7.726,7.726v13.808C340.018,200.424,336.559,203.884,332.292,203.884z"/>
	<path style="fill:#3A484A;" d="M256,211.254c-9.568,0-18.551-3.999-24.647-10.972c-2.808-3.213-2.481-8.094,0.732-10.902
		c3.213-2.808,8.094-2.481,10.902,0.732c3.161,3.616,7.904,5.69,13.012,5.69c5.109,0,9.852-2.074,13.012-5.69
		c2.809-3.214,7.69-3.541,10.902-0.732c3.213,2.808,3.541,7.689,0.732,10.902C274.551,207.254,265.568,211.254,256,211.254z"/>
</g>
<g>
	<path style="fill:#FD6F71;" d="M209.922,401.73h-70.951c-6.256,0-11.328,5.072-11.328,11.328v7.37
		c0,6.256,5.072,11.328,11.328,11.328h70.951c6.256,0,11.327-5.072,11.327-11.328v-7.37
		C221.249,406.802,216.177,401.73,209.922,401.73z"/>
	<path style="fill:#FD6F71;" d="M302.078,401.73h70.951c6.256,0,11.328,5.072,11.328,11.328v7.37
		c0,6.256-5.072,11.328-11.328,11.328h-70.951c-6.256,0-11.327-5.072-11.327-11.328v-7.37
		C290.751,406.802,295.823,401.73,302.078,401.73z"/>
</g>
<g>
</g>
<g>
</g>
<g>
</g>
<g>
</g>
<g>
</g>
<g>
</g>
<g>
</g>
<g>
</g>
<g>
</g>
<g>
</g>
<g>
</g>
<g>
</g>
<g>
</g>
<g>
</g>
<g>
</g>
</svg>
