<?xml version="1.0" encoding="iso-8859-1"?>
<!-- Generator: Adobe Illustrator 19.0.0, SVG Export Plug-In . SVG Version: 6.00 Build 0)  -->
<svg version="1.1" id="Capa_1" xmlns="http://www.w3.org/2000/svg" xmlns:xlink="http://www.w3.org/1999/xlink" x="0px" y="0px"
	 viewBox="0 0 512 512" style="enable-background:new 0 0 512 512;" xml:space="preserve">
<path style="fill:#6EE3FF;" d="M452.268,382.445c-11.448,0-20.728-9.28-20.728-20.728V229.434
	c0-96.793-78.747-175.539-175.54-175.539S80.461,132.641,80.461,229.434v132.282c0,11.448-9.28,20.728-20.728,20.728
	s-20.728-9.28-20.728-20.728V229.434c0-119.652,97.344-216.996,216.996-216.996s216.997,97.344,216.997,216.996v132.282
	C472.997,373.165,463.716,382.445,452.268,382.445z"/>
<path style="fill:#42C3E2;" d="M256,12.437c-75.056,0-141.326,38.307-180.306,96.393c1.907,3.461,4.163,6.793,6.795,9.934
	c6.701,7.995,15.18,14.051,24.619,17.798c31.053-49.603,86.179-82.667,148.891-82.667c62.713,0,117.84,33.064,148.892,82.668
	c9.441-3.748,17.919-9.803,24.621-17.799c2.632-3.14,4.888-6.471,6.794-9.932C397.328,50.746,331.057,12.437,256,12.437z"/>
<path style="fill:#485877;" d="M381.979,110.034c-7.047,0-14.132-2.382-19.956-7.263C332.391,77.936,294.737,64.26,256,64.26
	s-76.389,13.677-106.021,38.51c-13.162,11.03-32.772,9.304-43.803-3.858c-11.03-13.162-9.303-32.773,3.859-43.803
	C150.843,20.908,202.681,2.073,256,2.073c53.32,0,105.158,18.836,145.966,53.037c13.162,11.03,14.889,30.642,3.859,43.802
	C399.676,106.25,390.857,110.034,381.979,110.034z"/>
<path style="fill:#42C3E2;" d="M39.004,284.068v77.648c0,11.448,9.28,20.729,20.728,20.729s20.728-9.281,20.728-20.729v-89.099
	C65.741,273.983,51.766,277.952,39.004,284.068z"/>
<path style="fill:#FADC60;" d="M112.627,302.986H91.897C41.143,302.986,0,344.129,0,394.883l0,0
	c0,50.754,41.143,91.897,91.897,91.897h20.729l23.147-91.897L112.627,302.986z"/>
<path style="fill:#42C3E2;" d="M431.54,272.617v89.099c0,11.448,9.28,20.729,20.728,20.729c11.448,0,20.728-9.281,20.728-20.729
	v-77.648C460.235,277.952,446.26,273.983,431.54,272.617z"/>
<path style="fill:#FADC60;" d="M399.373,302.986h20.729c50.754,0,91.897,41.143,91.897,91.897l0,0
	c0,50.754-41.143,91.897-91.897,91.897h-20.729l-23.147-91.897L399.373,302.986z"/>
<g>
	<path style="fill:#485877;" d="M135.774,279.838c-12.784,0-23.147,10.364-23.147,23.147V486.78
		c0,12.784,10.364,23.147,23.147,23.147c12.784,0,23.147-10.364,23.147-23.147V302.986
		C158.92,290.201,148.557,279.838,135.774,279.838z"/>
	<path style="fill:#485877;" d="M376.226,279.838c12.784,0,23.147,10.364,23.147,23.147V486.78
		c0,12.784-10.364,23.147-23.147,23.147s-23.147-10.364-23.147-23.147V302.986C353.08,290.201,363.443,279.838,376.226,279.838z"/>
</g>
<g>
</g>
<g>
</g>
<g>
</g>
<g>
</g>
<g>
</g>
<g>
</g>
<g>
</g>
<g>
</g>
<g>
</g>
<g>
</g>
<g>
</g>
<g>
</g>
<g>
</g>
<g>
</g>
<g>
</g>
</svg>
