<?xml version="1.0" encoding="iso-8859-1"?>
<!-- Generator: Adobe Illustrator 19.0.0, SVG Export Plug-In . SVG Version: 6.00 Build 0)  -->
<svg version="1.1" id="Capa_1" xmlns="http://www.w3.org/2000/svg" xmlns:xlink="http://www.w3.org/1999/xlink" x="0px" y="0px"
	 viewBox="0 0 512 512" style="enable-background:new 0 0 512 512;" xml:space="preserve">
<path style="fill:#FA9F6A;" d="M99.343,451.82v44.424c0,8.702,7.054,15.756,15.756,15.756h45.143
	c8.702,0,15.756-7.054,15.756-15.756V451.82H99.343z"/>
<path style="fill:#E0824A;" d="M130.249,496.244V451.82H99.343v44.424c0,8.702,7.054,15.756,15.756,15.756h30.905
	C137.302,512,130.249,504.946,130.249,496.244z"/>
<path style="fill:#FA9F6A;" d="M416.288,451.82v44.424c0,8.702-7.054,15.756-15.756,15.756h-45.143
	c-8.702,0-15.756-7.054-15.756-15.756V451.82H416.288z"/>
<path style="fill:#E0824A;" d="M370.539,496.244V451.82h-30.905v44.424c0,8.702,7.054,15.756,15.756,15.756h30.905
	C377.594,512,370.539,504.946,370.539,496.244z"/>
<path style="fill:#C86D5C;" d="M452.656,444.337L370.637,21.619C368.201,9.066,357.208,0,344.42,0H171.211
	c-12.788,0-23.781,9.066-26.217,21.619L62.975,444.337c-3.198,16.483,9.427,31.792,26.217,31.792H426.44
	C443.23,476.129,455.855,460.82,452.656,444.337z"/>
<path style="fill:#AD4F3D;" d="M83.578,444.337l82.02-422.717C168.034,9.066,179.027,0,191.814,0h-20.604
	c-12.788,0-23.781,9.066-26.217,21.619L62.975,444.337c-3.198,16.483,9.427,31.793,26.217,31.793h20.604
	C93.004,476.129,80.38,460.82,83.578,444.337z"/>
<g>
	<path style="fill:#3A484A;" d="M175.08,414.061c-4.268,0-7.726-3.459-7.726-7.726v-14.974c0-4.267,3.458-7.726,7.726-7.726
		c4.268,0,7.726,3.459,7.726,7.726v14.974C182.806,410.601,179.348,414.061,175.08,414.061z"/>
	<path style="fill:#3A484A;" d="M340.55,414.061c-4.268,0-7.726-3.459-7.726-7.726v-14.974c0-4.267,3.458-7.726,7.726-7.726
		c4.268,0,7.726,3.459,7.726,7.726v14.974C348.276,410.601,344.818,414.061,340.55,414.061z"/>
	<path style="fill:#3A484A;" d="M257.816,422.053c-10.188,0-19.752-4.256-26.238-11.676c-2.809-3.213-2.481-8.093,0.732-10.902
		c3.212-2.808,8.094-2.481,10.901,0.732c3.551,4.063,8.874,6.393,14.604,6.393c5.729,0,11.052-2.33,14.603-6.393
		c2.808-3.214,7.688-3.541,10.902-0.731c3.212,2.808,3.541,7.689,0.731,10.902C277.567,417.797,268.003,422.053,257.816,422.053z"/>
</g>
<path style="fill:#485877;" d="M383.03,298.672L335.742,54.963c-1.614-8.335-8.923-14.355-17.411-14.355h-40.1l-20.416,19.289
	l-20.416-19.289h-40.101c-8.497,0-15.797,6.02-17.411,14.355l-47.288,243.709c-2.122,10.954,6.264,21.117,17.411,21.117h87.388
	l20.416-14.212l20.416,14.212h87.388C376.767,319.789,385.152,309.626,383.03,298.672z"/>
<g>
	<path style="fill:#334060;" d="M299.185,92.242h-82.739c-4.268,0-7.726-3.459-7.726-7.726c0-4.267,3.458-7.726,7.726-7.726h82.739
		c4.268,0,7.726,3.459,7.726,7.726C306.911,88.783,303.453,92.242,299.185,92.242z"/>
	<path style="fill:#334060;" d="M299.185,132.911h-82.739c-4.268,0-7.726-3.459-7.726-7.726c0-4.267,3.458-7.726,7.726-7.726h82.739
		c4.268,0,7.726,3.459,7.726,7.726C306.911,129.452,303.453,132.911,299.185,132.911z"/>
	<path style="fill:#334060;" d="M299.185,173.579h-82.739c-4.268,0-7.726-3.459-7.726-7.726c0-4.267,3.458-7.726,7.726-7.726h82.739
		c4.268,0,7.726,3.459,7.726,7.726C306.911,170.12,303.453,173.579,299.185,173.579z"/>
	<path style="fill:#334060;" d="M299.185,214.248h-82.739c-4.268,0-7.726-3.459-7.726-7.726c0-4.267,3.458-7.726,7.726-7.726h82.739
		c4.268,0,7.726,3.459,7.726,7.726C306.911,210.788,303.453,214.248,299.185,214.248z"/>
	<path style="fill:#334060;" d="M299.185,254.916h-82.739c-4.268,0-7.726-3.459-7.726-7.726s3.458-7.726,7.726-7.726h82.739
		c4.268,0,7.726,3.459,7.726,7.726S303.453,254.916,299.185,254.916z"/>
	<path style="fill:#334060;" d="M299.185,295.585h-82.739c-4.268,0-7.726-3.459-7.726-7.726c0-4.267,3.458-7.726,7.726-7.726h82.739
		c4.268,0,7.726,3.459,7.726,7.726C306.911,292.125,303.453,295.585,299.185,295.585z"/>
</g>
<rect x="237.395" y="40.61" style="fill:#EFEDEE;" width="40.831" height="279.179"/>
<path style="fill:#D2D2D2;" d="M89.382,20.682c-2.316-3.667-7.152-4.79-10.846-2.519L62.619,27.95
	c-3.758,2.311-4.904,7.246-2.549,10.977L237.4,319.789l40.832,0.002L89.382,20.682z"/>
<path style="fill:#EFEDEE;" d="M172.808,130.981c-1.943-5.285-8.264-7.433-13.025-4.427l-34.06,21.504
	c-4.761,3.006-5.539,9.636-1.603,13.662l38.767,39.66l29.058-18.347L172.808,130.981z"/>
<g>
</g>
<g>
</g>
<g>
</g>
<g>
</g>
<g>
</g>
<g>
</g>
<g>
</g>
<g>
</g>
<g>
</g>
<g>
</g>
<g>
</g>
<g>
</g>
<g>
</g>
<g>
</g>
<g>
</g>
</svg>
