<?xml version="1.0" encoding="iso-8859-1"?>
<!-- Generator: Adobe Illustrator 19.0.0, SVG Export Plug-In . SVG Version: 6.00 Build 0)  -->
<svg version="1.1" id="Capa_1" xmlns="http://www.w3.org/2000/svg" xmlns:xlink="http://www.w3.org/1999/xlink" x="0px" y="0px"
	 viewBox="0 0 511.999 511.999" style="enable-background:new 0 0 511.999 511.999;" xml:space="preserve">
<path style="fill:#EFEDEE;" d="M7.053,424.274l45.427-45.427l80.674,80.674l-45.427,45.427c-9.402,9.402-24.648,9.402-34.051,0
	L7.053,458.324C-2.351,448.922-2.351,433.677,7.053,424.274z"/>
<circle style="fill:#485877;" cx="54.878" cy="457.124" r="13.376"/>
<path style="fill:#EFEDEE;" d="M424.274,7.053L378.846,52.48l80.674,80.674l45.427-45.427c9.402-9.402,9.402-24.648,0-34.051
	L458.324,7.053C448.922-2.351,433.677-2.351,424.274,7.053z"/>
<circle style="fill:#485877;" cx="457.124" cy="54.878" r="13.376"/>
<path style="fill:#6EE3FF;" d="M321.112,32.333L32.333,321.112c-17.797,17.797-17.797,46.653,0,64.45l94.104,94.104
	c17.797,17.797,46.653,17.797,64.45,0l288.778-288.778c17.797-17.797,17.797-46.653,0-64.45l-94.104-94.104
	C367.765,14.536,338.909,14.536,321.112,32.333z"/>
<path style="fill:#42C3E2;" d="M190.888,479.667l51.508-51.508c-17.797,17.796-46.652,17.795-64.448-0.001l-94.104-94.104
	c-17.797-17.797-17.797-46.651-0.001-64.449c0,0-51.507,51.507-51.508,51.508c-6.786,6.785-11.342,15.759-12.805,25.244
	c-0.356,2.313-0.543,4.646-0.543,6.982c0,11.664,4.449,23.326,13.348,32.225l47.052,47.053l47.052,47.053
	C144.235,497.463,173.091,497.463,190.888,479.667z"/>
<rect x="181.873" y="44.216" transform="matrix(-0.7071 -0.7071 0.7071 -0.7071 256.0036 618.0279)" style="fill:#EFEDEE;" width="148.253" height="423.557"/>
<path style="fill:#D4D2D3;" d="M183.763,433.068c-2.038-1.453-3.988-3.082-5.816-4.911l-94.104-94.104
	c-1.829-1.829-3.458-3.779-4.911-5.816l-25.1,25.1l104.832,104.832L183.763,433.068z"/>
<g>
	<path style="fill:#3A484A;" d="M206.411,317.683c-1.977,0-3.955-0.754-5.463-2.263l-9.371-9.37c-3.017-3.017-3.017-7.909,0-10.926
		c3.017-3.017,7.91-3.018,10.926,0l9.371,9.37c3.017,3.017,3.017,7.909,0,10.926C210.366,316.928,208.389,317.683,206.411,317.683z"
		/>
	<path style="fill:#3A484A;" d="M309.957,214.137c-1.977,0-3.955-0.754-5.463-2.263l-9.37-9.371c-3.017-3.017-3.017-7.91,0-10.926
		c3.017-3.017,7.91-3.017,10.926,0l9.37,9.371c3.017,3.017,3.017,7.91,0,10.926C313.912,213.383,311.934,214.137,309.957,214.137z"
		/>
	<path style="fill:#3A484A;" d="M246.264,278.087c-0.675,0-1.351-0.023-2.027-0.068c-4.258-0.285-7.477-3.969-7.191-8.226
		c0.285-4.257,3.962-7.487,8.226-7.191c4.503,0.298,9.047-1.476,12.45-4.879c3.404-3.404,5.183-7.941,4.88-12.451
		c-0.286-4.258,2.934-7.941,7.191-8.227c4.259-0.276,7.941,2.934,8.226,7.192c0.602,8.958-2.813,17.856-9.371,24.413
		C262.588,274.71,254.525,278.087,246.264,278.087z"/>
</g>
<g>
</g>
<g>
</g>
<g>
</g>
<g>
</g>
<g>
</g>
<g>
</g>
<g>
</g>
<g>
</g>
<g>
</g>
<g>
</g>
<g>
</g>
<g>
</g>
<g>
</g>
<g>
</g>
<g>
</g>
</svg>
