<?xml version="1.0" encoding="iso-8859-1"?>
<!-- Generator: Adobe Illustrator 19.0.0, SVG Export Plug-In . SVG Version: 6.00 Build 0)  -->
<svg version="1.1" id="Capa_1" xmlns="http://www.w3.org/2000/svg" xmlns:xlink="http://www.w3.org/1999/xlink" x="0px" y="0px"
	 viewBox="0 0 512 512" style="enable-background:new 0 0 512 512;" xml:space="preserve">
<path style="fill:#FD6F71;" d="M256,0C-32.781,0-69.251,299.696,202.426,494.749c32.039,23.002,75.109,23.002,107.148,0
	C581.251,299.696,544.781,0,256,0z M109.149,185.721c-12.359,0-22.378-10.019-22.378-22.378s10.019-22.378,22.378-22.378
	s22.378,10.019,22.378,22.378S121.507,185.721,109.149,185.721z M182.574,230.476c-12.359,0-22.378-10.019-22.378-22.378
	s10.019-22.378,22.378-22.378c12.359,0,22.378,10.019,22.378,22.378C204.952,220.457,194.933,230.476,182.574,230.476z
	 M182.574,140.966c-12.359,0-22.378-10.019-22.378-22.378s10.019-22.378,22.378-22.378c12.359,0,22.378,10.019,22.378,22.378
	S194.933,140.966,182.574,140.966z M256,275.23c-12.359,0-22.378-10.019-22.378-22.378c0-12.359,10.019-22.378,22.378-22.378
	c12.359,0,22.378,10.019,22.378,22.378C278.378,265.212,268.359,275.23,256,275.23z M256,185.721
	c-12.359,0-22.378-10.019-22.378-22.378s10.019-22.378,22.378-22.378c12.359,0,22.378,10.019,22.378,22.378
	S268.359,185.721,256,185.721z M256,96.212c-12.359,0-22.378-10.019-22.378-22.378S243.641,51.457,256,51.457
	c12.359,0,22.378,10.019,22.378,22.378S268.359,96.212,256,96.212z M329.426,230.476c-12.359,0-22.378-10.019-22.378-22.378
	s10.019-22.378,22.378-22.378c12.359,0,22.378,10.019,22.378,22.378C351.803,220.457,341.784,230.476,329.426,230.476z
	 M329.426,140.966c-12.359,0-22.378-10.019-22.378-22.378s10.019-22.378,22.378-22.378c12.359,0,22.378,10.019,22.378,22.378
	C351.803,130.947,341.784,140.966,329.426,140.966z M402.851,185.721c-12.359,0-22.378-10.019-22.378-22.378
	s10.019-22.378,22.378-22.378c12.359,0,22.378,10.019,22.378,22.378S415.21,185.721,402.851,185.721z"/>
<path style="fill:#E36465;" d="M243.633,494.749C-21.441,304.437,6.839,14.511,276.604,0.531C269.884,0.182,263.019,0,256,0
	C-32.781,0-69.251,299.696,202.426,494.749c21.918,15.736,48.999,20.7,74.178,14.906
	C264.977,506.979,253.754,502.014,243.633,494.749z"/>
<g>
	<path style="fill:#3A484A;" d="M160.25,371.5c-4.267,0-7.726-3.459-7.726-7.726v-17.329c0-4.267,3.459-7.726,7.726-7.726
		s7.726,3.459,7.726,7.726v17.329C167.976,368.04,164.517,371.5,160.25,371.5z"/>
	<path style="fill:#3A484A;" d="M351.75,371.5c-4.267,0-7.726-3.459-7.726-7.726v-17.329c0-4.267,3.459-7.726,7.726-7.726
		c4.267,0,7.726,3.459,7.726,7.726v17.329C359.477,368.04,356.017,371.5,351.75,371.5z"/>
	<path style="fill:#3A484A;" d="M256,380.75c-11.44,0-22.174-4.774-29.45-13.097c-2.809-3.213-2.481-8.093,0.731-10.902
		c3.213-2.809,8.094-2.481,10.902,0.731c4.341,4.967,10.835,7.814,17.816,7.814c6.98,0,13.474-2.848,17.815-7.814
		c2.808-3.214,7.689-3.541,10.902-0.731c3.213,2.808,3.541,7.689,0.731,10.902C278.174,375.976,267.44,380.75,256,380.75z"/>
</g>
<g>
</g>
<g>
</g>
<g>
</g>
<g>
</g>
<g>
</g>
<g>
</g>
<g>
</g>
<g>
</g>
<g>
</g>
<g>
</g>
<g>
</g>
<g>
</g>
<g>
</g>
<g>
</g>
<g>
</g>
</svg>
