<?xml version="1.0" encoding="iso-8859-1"?>
<!-- Generator: Adobe Illustrator 19.0.0, SVG Export Plug-In . SVG Version: 6.00 Build 0)  -->
<svg version="1.1" id="Capa_1" xmlns="http://www.w3.org/2000/svg" xmlns:xlink="http://www.w3.org/1999/xlink" x="0px" y="0px"
	 viewBox="0 0 512 512" style="enable-background:new 0 0 512 512;" xml:space="preserve">
<path style="fill:#E6CB59;" d="M501.351,406.359h-35.383l-12.642,13.291l12.642,15.884h35.383c5.881,0,10.649-4.768,10.649-10.649
	v-7.877C512,411.127,507.232,406.359,501.351,406.359z"/>
<path style="fill:#FADC60;" d="M360.289,54.311c-46.599,12.975-94.118,22.927-141.62,31.965c-16.398,3.12-33.691,6.258-51.579,9.352
	c-35.138,6.077-68.291,10.131-99.099,29.623c-30.855,19.521-54.997,52.079-63.612,87.683c-3.924,16.213-5.409,32.905-3.642,49.53
	c2.54,23.885,3.348,47.85,12.008,70.548c17.113,44.857,53.346,74.037,96.735,88.851l5.689-39.265
	c-32.881-2.563-61.449-29.25-69.896-60.456c-5.436-20.085-1.913-40.645,0.43-60.917c0.007,0.125,0.01,0.249,0.009,0.374
	c4.686-31.766,26.769-59.896,58.733-67.515c20.813-4.961,42.181,2.091,62.643,5.631c17.218,2.978,34.414,6.085,51.579,9.352
	c45.186,8.598,90.43,17.712,134.766,30.057c4.47,1.244,6.854,1.908,6.854,1.908l17.394-93.361L360.289,54.311z"/>
<g>
	<path style="fill:#485877;" d="M465.968,435.534h-8.266c-22.254,0-40.359-18.105-40.359-40.359c0-6.167-5.017-11.184-11.184-11.184
		h-39.71v-29.175h39.71c22.254,0,40.359,18.105,40.359,40.359c0,6.167,5.017,11.184,11.184,11.184h8.266V435.534z"/>
	<path style="fill:#485877;" d="M243.264,250.271c-6.972,0-12.625,5.653-12.625,12.625v31.138h25.249v-31.138
		C255.889,255.924,250.236,250.271,243.264,250.271z"/>
</g>
<path style="fill:#E6CB59;" d="M350.796,277.969H135.732c-16.123,0-29.194,13.071-29.194,29.194l0,0l136.727,16.209l136.727-16.209
	l0,0C379.991,291.04,366.92,277.969,350.796,277.969z"/>
<path style="fill:#334060;" d="M412.337,355.289c-2.015-0.311-4.078-0.473-6.179-0.473h-39.71v29.176h39.71
	c2.283,0,4.407,0.691,6.179,1.87V355.289z"/>
<path style="fill:#E6CB59;" d="M63.961,356.044v42.764c13.718,9.787,29.106,17.451,45.52,23.055l5.689-39.265
	C95.39,381.057,77.178,370.778,63.961,356.044z"/>
<polygon style="fill:#C86D5C;" points="94.867,442.666 94.867,339.58 243.264,323.372 391.734,339.58 391.734,442.666 
	243.264,458.875 "/>
<polygon style="fill:#AD4F3D;" points="125.773,442.666 125.773,339.58 258.721,325.059 243.264,323.372 94.867,339.58 
	94.867,442.666 243.264,458.875 258.721,457.187 "/>
<path style="fill:#FADC60;" d="M405.347,307.163H81.19c-7.084,0-11.85,7.184-9.187,13.748c6.379,15.724,22.791,18.669,22.791,18.669
	h296.939c0,0,16.692-2.996,22.951-19.073C417.189,314.076,412.249,307.163,405.347,307.163z"/>
<path style="fill:#E6CB59;" d="M102.909,320.911c-2.663-6.563,2.104-13.748,9.187-13.748H81.191c-7.084,0-11.85,7.184-9.187,13.748
	c6.379,15.724,22.791,18.669,22.791,18.669H125.7C125.7,339.58,109.288,336.634,102.909,320.911z"/>
<path style="fill:#FADC60;" d="M81.253,475.082H405.41c7.084,0,11.85-7.184,9.187-13.748c-6.379-15.724-22.791-18.669-22.791-18.669
	H94.867c0,0-16.692,2.996-22.951,19.073C69.412,468.17,74.351,475.082,81.253,475.082z"/>
<path style="fill:#E6CB59;" d="M102.82,461.739c6.259-16.077,22.951-19.073,22.951-19.073H94.866c0,0-16.692,2.996-22.951,19.073
	c-2.503,6.43,2.436,13.344,9.338,13.344h30.905C105.257,475.082,100.317,468.17,102.82,461.739z"/>
<g>
	<path style="fill:#3A484A;" d="M168.287,399.386c-4.267,0-7.726-3.459-7.726-7.726v-13.57c0-4.267,3.459-7.726,7.726-7.726
		c4.267,0,7.726,3.459,7.726,7.726v13.57C176.014,395.926,172.554,399.386,168.287,399.386z"/>
	<path style="fill:#3A484A;" d="M318.241,399.386c-4.267,0-7.726-3.459-7.726-7.726v-13.57c0-4.267,3.459-7.726,7.726-7.726
		c4.267,0,7.726,3.459,7.726,7.726v13.57C325.967,395.926,322.508,399.386,318.241,399.386z"/>
	<path style="fill:#3A484A;" d="M243.264,406.629c-9.442,0-18.307-3.947-24.323-10.828c-2.808-3.213-2.481-8.094,0.732-10.902
		c3.213-2.808,8.093-2.481,10.902,0.732c3.08,3.524,7.705,5.545,12.688,5.545c4.983,0,9.607-2.021,12.688-5.545
		c2.807-3.213,7.688-3.542,10.902-0.732c3.213,2.808,3.542,7.689,0.732,10.902C261.571,402.681,252.707,406.629,243.264,406.629z"/>
</g>
<path style="fill:#E6CB59;" d="M377.683,36.918c-9.606,0-17.394,7.787-17.394,17.394v186.721c0,9.606,7.787,17.394,17.394,17.394
	c9.606,0,17.394-7.787,17.394-17.394V54.311C395.077,44.705,387.289,36.918,377.683,36.918z"/>
<g>
</g>
<g>
</g>
<g>
</g>
<g>
</g>
<g>
</g>
<g>
</g>
<g>
</g>
<g>
</g>
<g>
</g>
<g>
</g>
<g>
</g>
<g>
</g>
<g>
</g>
<g>
</g>
<g>
</g>
</svg>
