<?xml version="1.0" encoding="iso-8859-1"?>
<!-- Generator: Adobe Illustrator 19.0.0, SVG Export Plug-In . SVG Version: 6.00 Build 0)  -->
<svg version="1.1" id="Capa_1" xmlns="http://www.w3.org/2000/svg" xmlns:xlink="http://www.w3.org/1999/xlink" x="0px" y="0px"
	 viewBox="0 0 512 512" style="enable-background:new 0 0 512 512;" xml:space="preserve">
<path style="fill:#FD6F71;" d="M470.847,0H41.153C18.425,0,0,18.425,0,41.153v429.695C0,493.575,18.425,512,41.153,512h429.695
	C493.575,512,512,493.575,512,470.847V41.153C512,18.425,493.575,0,470.847,0z"/>
<path style="fill:#E36465;" d="M225.061,465.197c-115.352,0-209.197-93.845-209.197-209.197S109.709,46.803,225.061,46.803
	S434.256,140.649,434.256,256S340.412,465.197,225.061,465.197z"/>
<circle style="fill:#EFEDEE;" cx="372.019" cy="109.034" r="68.023"/>
<circle style="fill:#334060;" cx="225.064" cy="256" r="183.444"/>
<circle style="fill:#485877;" cx="225.064" cy="256" r="148.058"/>
<circle style="fill:#334060;" cx="225.064" cy="256" r="77.398"/>
<circle style="fill:#485877;" cx="225.064" cy="256" r="36.96"/>
<path style="fill:#B8B8B8;" d="M225.061,271.47c-3.959,0-7.918-1.51-10.938-4.531c-6.041-6.041-6.041-15.836,0-21.877
	L361.085,98.098c6.041-6.042,15.836-6.042,21.877,0c6.042,6.041,6.042,15.836,0,21.877L235.999,266.938
	C232.979,269.959,229.02,271.47,225.061,271.47z"/>
<path style="fill:#EFEDEE;" d="M460.524,275.595h-12.213c-5.428,0-9.828,4.4-9.828,9.828v175.595c0,5.428,4.4,9.828,9.828,9.828
	h12.213c5.428,0,9.828-4.4,9.828-9.828V285.423C470.352,279.995,465.952,275.595,460.524,275.595z"/>
<rect x="438.486" y="330.544" style="fill:#B8B8B8;" width="31.87" height="45.316"/>
<g>
	<path style="fill:#334060;" d="M473.258,320.246h-37.681c-5.819,0-10.538,4.718-10.538,10.538v3.638
		c0,5.819,4.718,10.538,10.538,10.538h37.681c5.819,0,10.538-4.718,10.538-10.538v-3.638
		C483.796,324.964,479.077,320.246,473.258,320.246z"/>
	<circle style="fill:#334060;" cx="51.561" cy="51.561" r="17.764"/>
	<circle style="fill:#334060;" cx="51.561" cy="460.429" r="17.764"/>
</g>
<g>
</g>
<g>
</g>
<g>
</g>
<g>
</g>
<g>
</g>
<g>
</g>
<g>
</g>
<g>
</g>
<g>
</g>
<g>
</g>
<g>
</g>
<g>
</g>
<g>
</g>
<g>
</g>
<g>
</g>
</svg>
