<?xml version="1.0" encoding="iso-8859-1"?>
<!-- Generator: Adobe Illustrator 19.0.0, SVG Export Plug-In . SVG Version: 6.00 Build 0)  -->
<svg version="1.1" id="Capa_1" xmlns="http://www.w3.org/2000/svg" xmlns:xlink="http://www.w3.org/1999/xlink" x="0px" y="0px"
	 viewBox="0 0 512.001 512.001" style="enable-background:new 0 0 512.001 512.001;" xml:space="preserve">
<g>
	<path style="fill:#334060;" d="M80.507,464.367v28.966c0,10.31,8.358,18.668,18.668,18.668h35.192
		c10.31,0,18.668-8.358,18.668-18.668v-28.966H80.507z"/>
	<path style="fill:#334060;" d="M431.495,464.367v28.966c0,10.31-8.358,18.668-18.668,18.668h-35.192
		c-10.31,0-18.668-8.358-18.668-18.668v-28.966H431.495z"/>
</g>
<g>
	<path style="fill:#D2D2D2;" d="M317.069,126.441c-10.004,0-18.114-8.11-18.114-18.114V56.012c0-10.91-8.876-19.786-19.786-19.786
		h-46.339c-10.91,0-19.786,8.876-19.786,19.786v52.315c0,10.004-8.11,18.114-18.114,18.114c-10.004,0-18.114-8.11-18.114-18.114
		V56.012C176.819,25.127,201.946,0,232.831,0h46.339c30.885,0,56.012,25.127,56.012,56.012v52.315
		C335.183,118.331,327.073,126.441,317.069,126.441z"/>
	<path style="fill:#D2D2D2;" d="M134.063,54.504h-39.78c-7.608,0-13.776,6.168-13.776,13.776v15.276l33.665,11.835l33.665-11.835
		V68.279C147.837,60.671,141.671,54.504,134.063,54.504z"/>
</g>
<path style="fill:#B8B8B8;" d="M101.11,83.555V68.279c0-7.608,6.168-13.776,13.776-13.776H94.282
	c-7.608,0-13.776,6.168-13.776,13.776v15.276l33.665,11.835l10.302-3.621L101.11,83.555z"/>
<path style="fill:#D2D2D2;" d="M377.939,54.504h39.78c7.608,0,13.776,6.168,13.776,13.776v15.276L397.83,95.39l-33.665-11.835
	V68.279C364.165,60.671,370.332,54.504,377.939,54.504z"/>
<g>
	<path style="fill:#B8B8B8;" d="M384.768,83.555V68.279c0-7.608,6.168-13.776,13.776-13.776H377.94
		c-7.608,0-13.776,6.168-13.776,13.776v15.276L397.83,95.39l10.302-3.621L384.768,83.555z"/>
	<path style="fill:#B8B8B8;" d="M194.933,126.44c10.004,0,18.114-8.11,18.114-18.114V57.8h-36.227v50.527
		C176.819,118.331,184.929,126.44,194.933,126.44z"/>
	<path style="fill:#B8B8B8;" d="M298.956,57.8v50.527c0,10.004,8.11,18.114,18.114,18.114s18.114-8.11,18.114-18.114V57.8H298.956z"
		/>
</g>
<path style="fill:#485877;" d="M431.495,83.555H80.507c-23.029,0-41.698,18.669-41.698,41.698v311.513
	c0,23.029,18.669,41.698,41.698,41.698h350.988c23.029,0,41.698-18.669,41.698-41.698V125.253
	C473.192,102.223,454.524,83.555,431.495,83.555z"/>
<path style="fill:#D2D2D2;" d="M396.095,206.657H115.907c-16.856,0-30.519,13.664-30.519,30.519v164.189
	c0,16.856,13.664,30.519,30.519,30.519h280.189c16.856,0,30.519-13.664,30.519-30.519V237.178
	C426.614,220.322,412.951,206.657,396.095,206.657z"/>
<path style="fill:#B8B8B8;" d="M116.293,401.367V237.178c0-16.856,13.664-30.519,30.519-30.519h-30.905
	c-16.856,0-30.519,13.664-30.519,30.519v164.189c0,16.856,13.664,30.519,30.519,30.519h30.905
	C129.956,431.886,116.293,418.222,116.293,401.367z"/>
<g>
	<path style="fill:#3A484A;" d="M176.203,330.365c-4.268,0-7.726-3.459-7.726-7.726v-14.442c0-4.267,3.458-7.726,7.726-7.726
		c4.268,0,7.726,3.459,7.726,7.726v14.442C183.93,326.905,180.47,330.365,176.203,330.365z"/>
	<path style="fill:#3A484A;" d="M335.799,330.365c-4.268,0-7.726-3.459-7.726-7.726v-14.442c0-4.267,3.458-7.726,7.726-7.726
		c4.268,0,7.726,3.459,7.726,7.726v14.442C343.525,326.905,340.067,330.365,335.799,330.365z"/>
	<path style="fill:#3A484A;" d="M256.001,338.073c-9.905,0-19.205-4.139-25.512-11.355c-2.809-3.213-2.481-8.093,0.731-10.902
		c3.213-2.809,8.094-2.481,10.902,0.731c3.373,3.859,8.432,6.073,13.879,6.073c5.448,0,10.506-2.213,13.88-6.073
		c2.807-3.213,7.689-3.541,10.901-0.732c3.213,2.808,3.542,7.689,0.732,10.902C275.207,333.935,265.907,338.073,256.001,338.073z"/>
</g>
<circle style="fill:#334060;" cx="127.98" cy="155.454" r="23.777"/>
<path style="fill:#EFEDEE;" d="M127.98,146.881c-4.268,0-7.726-3.459-7.726-7.726v-16.078c0-4.267,3.458-7.726,7.726-7.726
	c4.268,0,7.726,3.459,7.726,7.726v16.078C135.707,143.422,132.248,146.881,127.98,146.881z"/>
<circle style="fill:#334060;" cx="210.034" cy="155.454" r="23.777"/>
<path style="fill:#EFEDEE;" d="M210.032,146.881c-4.268,0-7.726-3.459-7.726-7.726v-16.078c0-4.267,3.458-7.726,7.726-7.726
	c4.268,0,7.726,3.459,7.726,7.726v16.078C217.759,143.422,214.3,146.881,210.032,146.881z"/>
<circle style="fill:#334060;" cx="292.088" cy="155.454" r="23.777"/>
<g>
	<path style="fill:#EFEDEE;" d="M292.085,146.881c-4.268,0-7.726-3.459-7.726-7.726v-16.078c0-4.267,3.458-7.726,7.726-7.726
		c4.268,0,7.726,3.459,7.726,7.726v16.078C299.812,143.422,296.352,146.881,292.085,146.881z"/>
	<path style="fill:#EFEDEE;" d="M396.503,111.437H376.21c-6.235,0-11.29,5.054-11.29,11.29v45.213c0,6.235,5.054,11.29,11.29,11.29
		h20.294c6.235,0,11.29-5.054,11.29-11.29v-45.213C407.793,116.491,402.739,111.437,396.503,111.437z"/>
</g>
<g>
</g>
<g>
</g>
<g>
</g>
<g>
</g>
<g>
</g>
<g>
</g>
<g>
</g>
<g>
</g>
<g>
</g>
<g>
</g>
<g>
</g>
<g>
</g>
<g>
</g>
<g>
</g>
<g>
</g>
</svg>
