<?xml version="1.0" encoding="iso-8859-1"?>
<!-- Generator: Adobe Illustrator 19.0.0, SVG Export Plug-In . SVG Version: 6.00 Build 0)  -->
<svg version="1.1" id="Capa_1" xmlns="http://www.w3.org/2000/svg" xmlns:xlink="http://www.w3.org/1999/xlink" x="0px" y="0px"
	 viewBox="0 0 512 512" style="enable-background:new 0 0 512 512;" xml:space="preserve">
<path style="fill:#FA9F6A;" d="M146.286,111.455L146.286,111.455V96.316c0-7.752-6.284-14.036-14.035-14.036H87.179
	c-7.752,0.001-14.036,6.285-14.036,14.036L36.571,255.999l36.571,159.683c0,7.752,6.284,14.036,14.036,14.036h45.071
	c7.752,0,14.035-6.284,14.035-14.036v-15.139l36.571-144.545L146.286,111.455z"/>
<path style="fill:#58B78C;" d="M292.571,141.732L292.571,141.732v-15.139c0-7.752-6.284-14.036-14.036-14.036h-45.071
	c-7.752,0-14.036,6.284-14.036,14.036l-36.57,129.406l36.571,129.406c0,7.752,6.284,14.036,14.036,14.036h45.071
	c7.752,0,14.036-6.284,14.036-14.036v-15.138l36.571-114.268L292.571,141.732z"/>
<path style="fill:#42C3E2;" d="M438.857,172.009V156.87c0-7.752-6.284-14.036-14.036-14.036h-45.071
	c-7.752,0-14.036,6.284-14.036,14.036l-36.57,99.129l36.571,99.129c0,7.752,6.284,14.036,14.036,14.036h45.071
	c7.752,0,14.036-6.284,14.036-14.036V339.99l36.571-83.991L438.857,172.009z"/>
<path style="fill:#FD6F71;" d="M59.107,67.143h-45.07C6.284,67.143,0,73.427,0,81.178v349.643c0,7.752,6.284,14.036,14.036,14.036
	h45.071c7.752,0,14.036-6.284,14.036-14.036V81.178C73.143,73.427,66.859,67.143,59.107,67.143z"/>
<path style="fill:#FADC60;" d="M205.393,97.42h-45.071c-7.752,0-14.036,6.284-14.036,14.036v289.089
	c0,7.752,6.284,14.036,14.036,14.036h45.071c7.752,0,14.036-6.284,14.036-14.036v-289.09
	C219.429,103.703,213.144,97.42,205.393,97.42z"/>
<path style="fill:#6EE3FF;" d="M351.678,127.696h-45.071c-7.752,0-14.036,6.284-14.036,14.036v228.535
	c0,7.752,6.284,14.036,14.036,14.036h45.071c7.752,0,14.036-6.284,14.036-14.036V141.732
	C365.714,133.98,359.43,127.696,351.678,127.696z"/>
<path style="fill:#FF98C9;" d="M497.964,157.973h-45.071c-7.752,0-14.036,6.284-14.036,14.035V339.99
	c0,7.752,6.284,14.036,14.036,14.036h45.071c7.752,0,14.036-6.284,14.036-14.036V172.009
	C512,164.257,505.716,157.973,497.964,157.973z"/>
<g>
	<path style="fill:#EFEDEE;" d="M36.571,91.707c-5.826,0-10.549,4.722-10.549,10.549c0,5.827,4.722,10.549,10.549,10.549
		s10.549-4.722,10.549-10.549C47.12,96.43,42.397,91.707,36.571,91.707z"/>
	<circle style="fill:#EFEDEE;" cx="109.714" cy="117.492" r="10.549"/>
	<circle style="fill:#EFEDEE;" cx="182.857" cy="132.728" r="10.549"/>
	<circle style="fill:#EFEDEE;" cx="256" cy="147.964" r="10.549"/>
	<circle style="fill:#EFEDEE;" cx="329.143" cy="163.201" r="10.549"/>
	<circle style="fill:#EFEDEE;" cx="402.286" cy="178.437" r="10.549"/>
	<circle style="fill:#EFEDEE;" cx="475.429" cy="193.674" r="10.549"/>
	<path style="fill:#EFEDEE;" d="M47.12,409.744c0-5.826-4.722-10.549-10.549-10.549s-10.549,4.722-10.549,10.549
		c0,5.827,4.722,10.549,10.549,10.549S47.12,415.569,47.12,409.744z"/>
	<circle style="fill:#EFEDEE;" cx="109.714" cy="394.507" r="10.549"/>
	<circle style="fill:#EFEDEE;" cx="182.857" cy="379.271" r="10.549"/>
	<circle style="fill:#EFEDEE;" cx="256" cy="364.035" r="10.549"/>
	<circle style="fill:#EFEDEE;" cx="329.143" cy="348.798" r="10.549"/>
	<circle style="fill:#EFEDEE;" cx="402.286" cy="333.562" r="10.549"/>
	<circle style="fill:#EFEDEE;" cx="475.429" cy="318.325" r="10.549"/>
	<path style="fill:#EFEDEE;" d="M43.611,204.808c-6.922,0-12.534,5.611-12.534,12.534s5.611,12.534,12.534,12.534h310.772v-25.067
		H43.611V204.808z"/>
</g>
<circle style="fill:#485877;" cx="354.382" cy="217.337" r="36.571"/>
<path style="fill:#EFEDEE;" d="M378.419,307.191c6.922,0,12.534-5.611,12.534-12.534s-5.611-12.534-12.534-12.534H67.649v25.067
	h310.771V307.191z"/>
<circle style="fill:#485877;" cx="67.652" cy="294.652" r="36.571"/>
<g>
</g>
<g>
</g>
<g>
</g>
<g>
</g>
<g>
</g>
<g>
</g>
<g>
</g>
<g>
</g>
<g>
</g>
<g>
</g>
<g>
</g>
<g>
</g>
<g>
</g>
<g>
</g>
<g>
</g>
</svg>
