<?xml version="1.0" encoding="iso-8859-1"?>
<!-- Generator: Adobe Illustrator 19.0.0, SVG Export Plug-In . SVG Version: 6.00 Build 0)  -->
<svg version="1.1" id="Capa_1" xmlns="http://www.w3.org/2000/svg" xmlns:xlink="http://www.w3.org/1999/xlink" x="0px" y="0px"
	 viewBox="0 0 511.999 511.999" style="enable-background:new 0 0 511.999 511.999;" xml:space="preserve">
<g>
	<circle style="fill:#EFEDEE;" cx="256" cy="125.712" r="48.17"/>
	<circle style="fill:#EFEDEE;" cx="386.957" cy="169.701" r="48.17"/>
	<circle style="fill:#EFEDEE;" cx="463.829" cy="282.248" r="48.17"/>
	<circle style="fill:#EFEDEE;" cx="125.043" cy="169.701" r="48.17"/>
	<circle style="fill:#EFEDEE;" cx="48.17" cy="282.248" r="48.17"/>
</g>
<g>
	<path style="fill:#D4D2D3;" d="M505.011,307.25c-3.231-23.618-9.729-46.441-19.305-67.913c-6.566-3.354-13.997-5.259-21.877-5.259
		c-19.943,0-37.056,12.12-44.374,29.396c8.703,18.156,14.311,37.741,16.565,58.094c7.857,5.567,17.447,8.85,27.809,8.85
		C481.279,330.419,496.561,321.141,505.011,307.25z"/>
	<path style="fill:#D4D2D3;" d="M378.574,122.274c-22.602,3.971-39.783,23.686-39.783,47.427c0,4.036,0.504,7.955,1.439,11.702
		c15.924,8.348,30.661,19.12,43.733,32.144c1.415,1.41,2.795,2.846,4.157,4.295c26.067-0.618,47.011-21.926,47.011-48.14
		c0-1.514-0.079-3.01-0.215-4.49c-0.465-0.47-0.918-0.949-1.387-1.415C416.962,147.291,398.475,133.389,378.574,122.274z"/>
	<path style="fill:#D4D2D3;" d="M220.581,93.073c-7.913,8.582-12.752,20.043-12.752,32.637c0,15.227,7.073,28.796,18.105,37.623
		c9.783-1.641,19.824-2.51,30.066-2.51c10.196,0,20.257,0.842,30.113,2.471c11.004-8.829,18.057-22.38,18.057-37.585
		c0-12.6-4.844-24.066-12.764-32.651c-11.631-1.623-23.452-2.463-35.406-2.463C244.044,90.596,232.217,91.441,220.581,93.073z"/>
	<path style="fill:#D4D2D3;" d="M124.185,217.85c13.683-14.521,29.731-26.786,47.523-36.179c0.979-3.827,1.501-7.838,1.501-11.97
		c0-23.685-17.1-43.363-39.624-47.399c-20.04,11.206-38.659,25.243-55.34,41.923c-0.398,0.398-0.782,0.806-1.177,1.206
		c-0.124,1.407-0.199,2.83-0.199,4.269C76.869,196.019,97.977,217.393,124.185,217.85z"/>
	<path style="fill:#D4D2D3;" d="M48.17,330.419c10.373,0,19.971-3.289,27.832-8.867c2.312-20.5,8.047-39.978,16.637-57.837
		c-7.262-17.403-24.435-29.636-44.47-29.636c-7.83,0-15.217,1.88-21.753,5.195c-9.631,21.507-16.175,44.353-19.42,67.99
		C15.451,321.148,30.727,330.419,48.17,330.419z"/>
</g>
<path style="fill:#FA9F6A;" d="M437.98,434.457c-13.81,0-26.532-5.686-35.828-16.008C364.901,377.07,311.631,353.339,256,353.339
	c-55.632,0-108.905,23.733-146.157,65.114c-9.286,10.315-21.978,15.997-35.734,15.997c-0.002,0-0.002,0-0.004,0
	c-22.758-0.002-42.338-15.466-47.616-37.606c-4.261-17.877-6.42-36.334-6.42-54.862c0-63.019,24.541-122.267,69.102-166.829
	S192.981,106.05,256,106.049c62.984,0,122.159,24.396,166.623,68.695c44.466,44.3,69.08,103.383,69.307,166.366
	c0.069,18.946-2.119,37.815-6.503,56.083C480.162,419.134,460.652,434.457,437.98,434.457z M256.001,314.017
	c66.758,0,130.681,28.475,175.377,78.123c1.789,1.988,4.01,2.996,6.602,2.996c2.787,0,7.861-1.5,9.21-7.12
	c3.652-15.219,5.475-30.954,5.418-46.765c-0.191-52.505-20.695-101.746-57.739-138.651c-37.043-36.904-86.361-57.229-138.869-57.229
	c-108.411,0-196.609,88.199-196.609,196.61c0,15.462,1.8,30.853,5.349,45.745c1.219,5.112,5.584,7.401,9.369,7.401
	c2.537,0,4.729-1.003,6.511-2.982C125.317,342.493,189.241,314.017,256.001,314.017z"/>
<path style="fill:#E0824A;" d="M118.179,409.768c36.641-35.992,86.212-56.429,137.822-56.429
	c51.607,0,101.174,20.434,137.814,56.423c7.784-5.835,14.303-13.449,18.941-22.479c1.661-3.234,3.01-6.546,4.088-9.899
	c-43.476-40.483-101.014-63.366-160.842-63.366c-59.834,0-117.379,22.889-160.857,63.381c1.089,3.371,2.444,6.68,4.093,9.893
	C103.875,396.32,110.395,403.933,118.179,409.768z"/>
<path style="fill:#485877;" d="M157.362,391.863c-12.488,0-24.535-6.821-30.633-18.694c-8.682-16.903-2.018-37.644,14.884-46.326
	c35.116-18.038,74.671-27.573,114.388-27.573c39.713,0,79.264,9.533,114.376,27.567c16.904,8.682,23.568,29.422,14.887,46.325
	c-8.681,16.905-29.421,23.567-46.326,14.887c-25.793-13.248-53.697-19.965-82.937-19.965c-29.243,0-57.15,6.719-82.947,19.969
	C168.024,390.638,162.653,391.863,157.362,391.863z"/>
<g>
</g>
<g>
</g>
<g>
</g>
<g>
</g>
<g>
</g>
<g>
</g>
<g>
</g>
<g>
</g>
<g>
</g>
<g>
</g>
<g>
</g>
<g>
</g>
<g>
</g>
<g>
</g>
<g>
</g>
</svg>
