<?xml version="1.0" encoding="iso-8859-1"?>
<!-- Generator: Adobe Illustrator 19.0.0, SVG Export Plug-In . SVG Version: 6.00 Build 0)  -->
<svg version="1.1" id="Capa_1" xmlns="http://www.w3.org/2000/svg" xmlns:xlink="http://www.w3.org/1999/xlink" x="0px" y="0px"
	 viewBox="0 0 512.001 512.001" style="enable-background:new 0 0 512.001 512.001;" xml:space="preserve">
<path style="fill:#485877;" d="M380.66,0H131.34c-28.802,0-52.15,23.348-52.15,52.15v407.701c0,28.801,23.348,52.15,52.15,52.15
	h249.321c28.802,0,52.15-23.348,52.15-52.15V52.15C432.81,23.348,409.462,0,380.66,0z"/>
<path style="fill:#334060;" d="M131.34,512h66.962c-28.802,0-52.15-23.348-52.15-52.149V52.15c0-28.801,23.347-52.148,52.147-52.15
	H131.34c-21.631,0-41.548,13.91-48.985,34.218c-2.047,5.591-3.165,11.631-3.165,17.931v407.701
	C79.19,488.283,102.939,512,131.34,512z"/>
<path style="fill:#EFEDEE;" d="M131.34,291.343c-3.289,0-5.966-2.676-5.966-5.966V52.15c0-3.289,2.676-5.966,5.966-5.966h249.321
	c3.289,0,5.966,2.676,5.966,5.966v233.229c0,3.289-2.676,5.966-5.966,5.966H131.34V291.343z"/>
<path style="fill:#D4D2D3;" d="M131.34,46.184c-3.289,0-5.966,2.676-5.966,5.966v233.229c0,3.289,2.676,5.966,5.966,5.966h14.812
	V52.15c0-2.018,0.127-4.006,0.349-5.966H131.34z"/>
<g>
	<path style="fill:#3A484A;" d="M174.31,186.839c-4.267,0-7.726-3.459-7.726-7.726v-14.784c0-4.267,3.459-7.726,7.726-7.726
		s7.726,3.459,7.726,7.726v14.784C182.036,183.379,178.578,186.839,174.31,186.839z"/>
	<path style="fill:#3A484A;" d="M337.69,186.839c-4.267,0-7.726-3.459-7.726-7.726v-14.784c0-4.267,3.459-7.726,7.726-7.726
		s7.726,3.459,7.726,7.726v14.784C345.417,183.379,341.957,186.839,337.69,186.839z"/>
	<path style="fill:#3A484A;" d="M256,194.731c-10.088,0-19.556-4.214-25.979-11.562c-2.808-3.213-2.481-8.094,0.732-10.902
		c3.213-2.808,8.093-2.481,10.902,0.732c3.488,3.991,8.716,6.279,14.344,6.279s10.857-2.289,14.345-6.279
		c2.809-3.214,7.689-3.54,10.902-0.732c3.213,2.808,3.541,7.689,0.732,10.902C275.557,190.517,266.088,194.731,256,194.731z"/>
</g>
<path style="fill:#FD6F71;" d="M321.578,326.122H190.422c-11.568,0-20.946,9.378-20.946,20.946v109.207
	c0,11.568,9.378,20.946,20.946,20.946h131.158c11.568,0,20.946-9.378,20.946-20.946V347.068
	C342.525,335.5,333.147,326.122,321.578,326.122z"/>
<circle style="fill:#EFEDEE;" cx="256" cy="401.668" r="52.859"/>
<path style="fill:#FD6F71;" d="M275.29,397.461l-23.767-11.884c-3.13-1.565-6.812,0.711-6.812,4.21v23.767
	c0,3.5,3.682,5.775,6.812,4.21l23.767-11.884C278.76,404.147,278.76,399.196,275.29,397.461z"/>
<g>
</g>
<g>
</g>
<g>
</g>
<g>
</g>
<g>
</g>
<g>
</g>
<g>
</g>
<g>
</g>
<g>
</g>
<g>
</g>
<g>
</g>
<g>
</g>
<g>
</g>
<g>
</g>
<g>
</g>
</svg>
