<?xml version="1.0" encoding="iso-8859-1"?>
<!-- Generator: Adobe Illustrator 19.0.0, SVG Export Plug-In . SVG Version: 6.00 Build 0)  -->
<svg version="1.1" id="Capa_1" xmlns="http://www.w3.org/2000/svg" xmlns:xlink="http://www.w3.org/1999/xlink" x="0px" y="0px"
	 viewBox="0 0 512.001 512.001" style="enable-background:new 0 0 512.001 512.001;" xml:space="preserve">
<path style="fill:#C86D5C;" d="M282.605,359.851c7.877-4.3,15.28-9.784,21.946-16.45c37.633-37.633,37.349-99.336-0.612-136.636
	c-37.61-36.956-98.058-36.754-135.418,0.607c-6.555,6.555-11.966,13.821-16.233,21.549c-13.676,24.773-36.987,43.028-64.345,50.256
	c-19.697,5.204-38.314,15.569-53.708,31.094c-45.217,45.601-45.596,119.816-0.823,165.854
	c46.126,47.43,121.974,47.829,168.603,1.201c15.096-15.096,25.261-33.254,30.497-52.475
	C240.002,397.358,257.596,373.504,282.605,359.851z"/>
<path style="fill:#AD4F3D;" d="M303.941,206.764c-2.068-2.032-4.214-3.93-6.412-5.737c30.844,37.65,28.793,93.821-6.369,128.981
	c-6.667,6.667-14.069,12.15-21.946,16.451c-25.01,13.652-42.604,37.507-50.093,64.998c-5.236,19.221-15.401,37.379-30.497,52.475
	c-43.972,43.972-113.925,46.113-160.436,6.439c1.67,1.96,3.407,3.882,5.226,5.753c46.126,47.43,121.974,47.829,168.603,1.201
	c15.096-15.096,25.261-33.254,30.497-52.475c7.489-27.491,25.083-51.346,50.093-64.998c7.877-4.3,15.279-9.784,21.946-16.451
	C342.185,305.769,341.902,244.065,303.941,206.764z"/>
<path style="fill:#C86D5C;" d="M510.97,34.995l-4.121-14.011c-2.254-7.662-8.246-13.655-15.908-15.908L476.93,0.955
	c-8.247-2.425-17.16-0.152-23.239,5.926l-41.774,41.774c-3.107,3.107-5.265,7.034-6.221,11.322l-3.732,16.728l5.423,29.053
	l27.834,4.205l16.728-3.732c4.289-0.957,8.216-3.115,11.322-6.221l41.774-41.774C511.122,52.155,513.395,43.242,510.97,34.995z"/>
<g>
	<path style="fill:#3A484A;" d="M87.262,347.524c-1.977,0-3.955-0.754-5.464-2.263c-3.017-3.017-3.017-7.91,0-10.926l7.679-7.679
		c3.018-3.017,7.91-3.017,10.927,0s3.017,7.91,0,10.926l-7.679,7.679C91.216,346.77,89.238,347.524,87.262,347.524z"/>
	<path style="fill:#3A484A;" d="M172.125,432.387c-1.977,0-3.955-0.754-5.464-2.263c-3.017-3.017-3.017-7.91,0-10.926l7.679-7.679
		c3.018-3.017,7.91-3.017,10.927,0c3.017,3.017,3.017,7.91,0,10.926l-7.679,7.679C176.08,431.633,174.102,432.387,172.125,432.387z"
		/>
	<path style="fill:#3A484A;" d="M139.464,399.936c-7.141,0-14.103-2.913-19.333-8.145c-5.657-5.657-8.605-13.343-8.086-21.086
		c0.285-4.259,3.966-7.471,8.226-7.193c4.258,0.285,7.477,3.968,7.192,8.226c-0.221,3.294,1.09,6.621,3.594,9.126
		c2.505,2.506,5.824,3.81,9.124,3.593c4.232-0.282,7.94,2.934,8.226,7.192c0.285,4.258-2.935,7.941-7.192,8.226
		C140.633,399.917,140.048,399.936,139.464,399.936z"/>
</g>
<g>
	<path style="fill:#FA9F6A;" d="M126.831,445.01l-59.917-59.917c-2.769-2.769-7.259-2.769-10.028,0l-10.626,10.626
		c-2.769,2.769-2.769,7.259,0,10.028l59.917,59.917c2.769,2.769,7.259,2.769,10.028,0l10.626-10.626
		C129.6,452.269,129.6,447.779,126.831,445.01z"/>
	<circle style="fill:#FA9F6A;" cx="462.831" cy="28.496" r="6.908"/>
	<circle style="fill:#FA9F6A;" cx="433.048" cy="58.276" r="6.908"/>
	<circle style="fill:#FA9F6A;" cx="483.424" cy="49.095" r="6.908"/>
	<circle style="fill:#FA9F6A;" cx="453.641" cy="78.88" r="6.908"/>
	
		<rect x="192.297" y="163.549" transform="matrix(-0.7071 0.7071 -0.7071 -0.7071 686.8393 89.6399)" style="fill:#FA9F6A;" width="265.115" height="47.04"/>
</g>
<circle style="fill:#485877;" cx="217.246" cy="294.682" r="47.385"/>
<g>
</g>
<g>
</g>
<g>
</g>
<g>
</g>
<g>
</g>
<g>
</g>
<g>
</g>
<g>
</g>
<g>
</g>
<g>
</g>
<g>
</g>
<g>
</g>
<g>
</g>
<g>
</g>
<g>
</g>
</svg>
