<?xml version="1.0" encoding="iso-8859-1"?>
<!-- Generator: Adobe Illustrator 19.0.0, SVG Export Plug-In . SVG Version: 6.00 Build 0)  -->
<svg version="1.1" id="Capa_1" xmlns="http://www.w3.org/2000/svg" xmlns:xlink="http://www.w3.org/1999/xlink" x="0px" y="0px"
	 viewBox="0 0 512 512" style="enable-background:new 0 0 512 512;" xml:space="preserve">
<path style="fill:#C86D5C;" d="M168.239,465.736C63.947,363.141,59.179,127.224,59.179,127.224L256,101.468l196.821,25.758
	c0,0-4.767,235.916-109.059,338.511l-87.761,23.132L168.239,465.736z"/>
<path style="fill:#AD4F3D;" d="M199.145,465.737C94.852,363.141,90.085,127.224,90.085,127.224l181.369-23.735L256,101.467
	L59.179,127.224c0,0,4.767,235.917,109.059,338.511l87.761,23.132l15.453-4.073L199.145,465.737z"/>
<path style="fill:#EFEDEE;" d="M59.179,75.71C59.179,75.71,67.23,0,256,0s196.821,75.71,196.821,75.71L256,101.468L59.179,75.71z"/>
<path style="fill:#D2D2D2;" d="M90.085,75.71c0,0,7.613-71.519,181.369-75.532C266.439,0.063,261.295,0,256,0
	C67.23,0,59.179,75.71,59.179,75.71L256,101.468l15.453-2.022L90.085,75.71z"/>
<g>
	<path style="fill:#3A484A;" d="M178.175,52.096c-4.268,0-7.726-3.459-7.726-7.726V30.284c0-4.267,3.458-7.726,7.726-7.726
		c4.268,0,7.726,3.459,7.726,7.726V44.37C185.902,48.637,182.442,52.096,178.175,52.096z"/>
	<path style="fill:#3A484A;" d="M333.826,52.096c-4.268,0-7.726-3.459-7.726-7.726V30.284c0-4.267,3.458-7.726,7.726-7.726
		s7.726,3.459,7.726,7.726V44.37C341.552,48.637,338.094,52.096,333.826,52.096z"/>
	<path style="fill:#3A484A;" d="M256,59.613c-9.716,0-18.837-4.06-25.025-11.139c-2.809-3.213-2.481-8.093,0.731-10.902
		c3.213-2.809,8.094-2.482,10.902,0.731c3.254,3.722,8.134,5.858,13.391,5.858c5.258,0,10.139-2.135,13.392-5.858
		c2.808-3.213,7.689-3.541,10.901-0.732c3.213,2.808,3.542,7.689,0.732,10.902C274.838,55.554,265.716,59.613,256,59.613z"/>
</g>
<path style="fill:#FA9F6A;" d="M370.29,491.961l-5.412-12.4c-3.664-8.396-11.954-13.824-21.116-13.824H168.239
	c-9.161,0-17.451,5.428-21.116,13.824l-5.412,12.4c-4.127,9.456,2.802,20.039,13.119,20.039H357.17
	C367.487,512,374.416,501.417,370.29,491.961z"/>
<path style="fill:#E0824A;" d="M172.617,491.961l5.412-12.4c3.664-8.396,11.954-13.824,21.116-13.824h-30.905
	c-9.161,0-17.451,5.428-21.116,13.824l-5.412,12.4c-4.127,9.456,2.802,20.039,13.119,20.039h30.905
	C175.42,512,168.491,501.417,172.617,491.961z"/>
<g>
	<path style="fill:#D2D2D2;" d="M138.433,211.484h-13.768c-6.353,0-11.504-5.151-11.504-11.504v-95.636h36.776v95.636
		C149.937,206.333,144.786,211.484,138.433,211.484z"/>
	<path style="fill:#D2D2D2;" d="M373.568,211.484h13.768c6.353,0,11.504-5.151,11.504-11.504v-95.636h-36.776v95.636
		C362.064,206.333,367.215,211.484,373.568,211.484z"/>
	<path style="fill:#D2D2D2;" d="M262.885,211.484h-13.768c-6.353,0-11.504-5.151-11.504-11.504v-95.636h36.776v95.636
		C274.389,206.333,269.238,211.484,262.885,211.484z"/>
</g>
<path style="fill:#FA9F6A;" d="M452.822,75.71H59.179c-9.492,0-17.187,7.694-17.187,17.187v17.141
	c0,9.492,7.694,17.187,17.187,17.187h393.641c9.492,0,17.187-7.694,17.187-17.187V92.897
	C470.008,83.404,462.313,75.71,452.822,75.71z"/>
<path style="fill:#E0824A;" d="M72.898,110.038V92.897c0-9.492,7.694-17.187,17.187-17.187H59.179
	c-9.492,0-17.187,7.694-17.187,17.187v17.141c0,9.492,7.694,17.187,17.187,17.187h30.905
	C80.593,127.224,72.898,119.53,72.898,110.038z"/>
<g>
</g>
<g>
</g>
<g>
</g>
<g>
</g>
<g>
</g>
<g>
</g>
<g>
</g>
<g>
</g>
<g>
</g>
<g>
</g>
<g>
</g>
<g>
</g>
<g>
</g>
<g>
</g>
<g>
</g>
</svg>
