<?xml version="1.0" encoding="iso-8859-1"?>
<!-- Generator: Adobe Illustrator 19.0.0, SVG Export Plug-In . SVG Version: 6.00 Build 0)  -->
<svg version="1.1" id="Capa_1" xmlns="http://www.w3.org/2000/svg" xmlns:xlink="http://www.w3.org/1999/xlink" x="0px" y="0px"
	 viewBox="0 0 511.998 511.998" style="enable-background:new 0 0 511.998 511.998;" xml:space="preserve">
<g>
	<path style="fill:#EFEDEE;" d="M367.247,69.788l-6.952-6.952c-3.922-3.922-10.315-3.809-14.095,0.251l-17.495,18.786
		c-3.594,3.86-3.487,9.873,0.242,13.603l7.445,7.445l26.612-5.383L367.247,69.788z"/>
	<path style="fill:#EFEDEE;" d="M40.753,351.445L26.682,332.64l-9.107-0.884c-6.786-0.658-13.002,3.826-14.527,10.471
		c-1.356,5.906-2.353,11.925-2.978,18.031c-0.761,7.423,4.723,14.034,12.15,14.774l7.043,0.702L40.753,351.445z"/>
	<path style="fill:#EFEDEE;" d="M325.35,352.031c6.146-7.664,11.202-16.065,15.08-24.983c2.352-5.411,0.169-11.72-5.05-14.471
		l-9.215-4.856l-23.332,14.354l-1.863,26.963l10.167,5.7C315.902,357.408,321.933,356.293,325.35,352.031z"/>
	<path style="fill:#EFEDEE;" d="M170.752,281.765l-36.691-64.935c-4.021-7.115-5.028-15.369-2.84-23.243
		c2.188-7.874,7.312-14.424,14.427-18.444l37.494-21.186c7.115-4.021,15.369-5.029,23.243-2.841
		c7.874,2.189,14.425,7.312,18.444,14.428l36.691,64.935l-20.863,11.788l-36.691-64.935c-0.873-1.542-2.291-2.653-3.997-3.127
		c-1.707-0.474-3.495-0.255-5.038,0.616l-37.496,21.187c-1.542,0.872-2.653,2.291-3.127,3.997c-0.474,1.707-0.255,3.496,0.616,5.039
		l36.691,64.935L170.752,281.765z"/>
</g>
<g>
	<path style="fill:#D4D2D3;" d="M170.752,281.765l20.863-11.788l-35.213-62.319c-1.713,1.881-3.371,3.812-4.941,5.789
		c-3.66,4.61-8.077,8.385-12.99,11.191L170.752,281.765z"/>
	<path style="fill:#D4D2D3;" d="M228.313,171.709c-8.453,0.79-16.708,2.527-24.642,5.156c0.103,0.151,0.203,0.305,0.295,0.466
		l36.691,64.935l20.863-11.788L228.313,171.709z"/>
</g>
<path style="fill:#485877;" d="M271.312,395.022c2.467-16.014,10.692-30.685,23.455-40.667c3.45-2.699,6.751-5.681,9.869-8.949
	c16.237-17.016,24.581-38.942,24.995-61.001c0.199-10.563,4.551-20.621,12.283-27.821L502.73,106.83
	c10.935-10.183,12.369-26.97,3.368-38.897c-5.998-7.946-14.05-17.543-24.496-27.99c-10.447-10.447-20.044-18.498-27.99-24.496
	c-11.926-9.003-28.713-7.568-38.897,3.368L265.038,179.546c-7.115,7.641-17.023,12.133-27.463,12.278
	c-22.834,0.316-45.571,9.182-62.995,26.605c-2.504,2.504-4.833,5.119-6.983,7.828c-10.181,12.824-24.673,21.476-40.859,23.941
	c-25.065,3.817-49.207,15.155-68.781,34.017C7.302,333.027,6.215,414.561,55.607,464.651
	c49.487,50.185,130.289,50.401,180.044,0.646C255.464,445.482,267.35,420.745,271.312,395.022z"/>
<path style="fill:#334060;" d="M506.098,67.933c-5.998-7.946-14.05-17.543-24.497-27.99c-3.639-3.639-7.165-6.968-10.563-10.04
	c5.748,6.359,10.547,12.248,14.457,17.427c9.003,11.926,7.568,28.713-3.368,38.897L321.311,235.979
	c-7.732,7.2-12.085,17.258-12.283,27.821c-0.414,22.058-8.759,43.985-24.995,61.001c-3.118,3.268-6.419,6.251-9.869,8.949
	c-12.763,9.982-20.988,24.653-23.455,40.667c-3.963,25.723-15.849,50.46-35.663,70.275c-46.049,46.049-118.689,49.288-168.487,9.73
	c2.801,3.531,5.813,6.949,9.047,10.228c49.486,50.185,130.289,50.401,180.044,0.646c19.814-19.815,31.7-44.552,35.663-70.275
	c2.467-16.014,10.692-30.685,23.455-40.667c3.45-2.698,6.751-5.681,9.869-8.949c16.237-17.016,24.581-38.942,24.995-61.001
	c0.199-10.563,4.551-20.621,12.283-27.821L502.73,106.83C513.665,96.646,515.099,79.86,506.098,67.933z"/>
<g>
	<path style="fill:#FFFFFF;" d="M88.528,344.038c-1.977,0-3.955-0.754-5.463-2.263c-3.017-3.017-3.017-7.91,0-10.926l8.751-8.751
		c3.017-3.017,7.91-3.017,10.926,0c3.017,3.017,3.017,7.91,0,10.926l-8.751,8.751C92.483,343.284,90.505,344.038,88.528,344.038z"/>
	<path style="fill:#FFFFFF;" d="M185.232,440.742c-1.977,0-3.955-0.754-5.463-2.263c-3.017-3.017-3.017-7.909,0-10.926l8.75-8.751
		c3.017-3.017,7.91-3.018,10.926,0c3.017,3.017,3.017,7.909,0,10.926l-8.75,8.751C189.187,439.988,187.209,440.742,185.232,440.742z
		"/>
	<path style="fill:#FFFFFF;" d="M148.013,403.763c-7.851,0-15.51-3.207-21.267-8.965c-6.228-6.227-9.471-14.682-8.9-23.196
		c0.286-4.258,3.969-7.479,8.227-7.191c4.258,0.286,7.477,3.969,7.191,8.227c-0.273,4.064,1.333,8.158,4.408,11.233
		c3.074,3.073,7.165,4.679,11.233,4.408c4.256-0.298,7.941,2.934,8.226,7.191c0.286,4.258-2.934,7.941-7.191,8.226
		C149.297,403.741,148.654,403.763,148.013,403.763z"/>
</g>
<g>
</g>
<g>
</g>
<g>
</g>
<g>
</g>
<g>
</g>
<g>
</g>
<g>
</g>
<g>
</g>
<g>
</g>
<g>
</g>
<g>
</g>
<g>
</g>
<g>
</g>
<g>
</g>
<g>
</g>
</svg>
