<?xml version="1.0" encoding="iso-8859-1"?>
<!-- Generator: Adobe Illustrator 19.0.0, SVG Export Plug-In . SVG Version: 6.00 Build 0)  -->
<svg version="1.1" id="Capa_1" xmlns="http://www.w3.org/2000/svg" xmlns:xlink="http://www.w3.org/1999/xlink" x="0px" y="0px"
	 viewBox="0 0 512 512" style="enable-background:new 0 0 512 512;" xml:space="preserve">
<path style="fill:#FD6F71;" d="M82.841,442.619h-65.36C7.826,442.619,0,450.445,0,460.1v17.896c0,9.655,7.826,17.481,17.481,17.481
	h65.36c9.655,0,17.481-7.826,17.481-17.481V460.1C100.321,450.445,92.495,442.619,82.841,442.619z"/>
<path style="fill:#FA9F6A;" d="M82.841,357.4h-65.36C7.826,357.4,0,365.227,0,374.88v17.896c0,9.655,7.826,17.481,17.481,17.481
	h65.36c9.655,0,17.481-7.826,17.481-17.481V374.88C100.321,365.227,92.495,357.4,82.841,357.4z"/>
<path style="fill:#FADC60;" d="M82.841,272.181h-65.36C7.826,272.181,0,280.007,0,289.662v17.896
	c0,9.655,7.826,17.481,17.481,17.481h65.36c9.655,0,17.481-7.826,17.481-17.481v-17.896
	C100.321,280.007,92.495,272.181,82.841,272.181z"/>
<path style="fill:#FD6F71;" d="M220.067,442.619h-65.36c-9.655,0-17.481,7.826-17.481,17.481v17.896
	c0,9.655,7.826,17.481,17.481,17.481h65.36c9.655,0,17.481-7.826,17.481-17.481V460.1
	C237.547,450.445,229.721,442.619,220.067,442.619z"/>
<path style="fill:#FA9F6A;" d="M220.067,357.4h-65.36c-9.655,0-17.481,7.826-17.481,17.481v17.896
	c0,9.655,7.826,17.481,17.481,17.481h65.36c9.655,0,17.481-7.826,17.481-17.481v-17.896
	C237.547,365.227,229.721,357.4,220.067,357.4z"/>
<path style="fill:#FADC60;" d="M220.067,272.181h-65.36c-9.655,0-17.481,7.826-17.481,17.481v17.896
	c0,9.655,7.826,17.481,17.481,17.481h65.36c9.655,0,17.481-7.826,17.481-17.481v-17.896
	C237.547,280.007,229.721,272.181,220.067,272.181z"/>
<path style="fill:#E6CB59;" d="M220.067,186.961h-65.36c-9.655,0-17.481,7.826-17.481,17.481v17.896
	c0,9.655,7.826,17.481,17.481,17.481h65.36c9.655,0,17.481-7.826,17.481-17.481v-17.896
	C237.547,194.787,229.721,186.961,220.067,186.961z"/>
<path style="fill:#FD6F71;" d="M357.293,442.619h-65.36c-9.655,0-17.481,7.826-17.481,17.481v17.896
	c0,9.655,7.826,17.481,17.481,17.481h65.36c9.655,0,17.481-7.826,17.481-17.481V460.1
	C374.774,450.445,366.947,442.619,357.293,442.619z"/>
<path style="fill:#FA9F6A;" d="M357.293,357.4h-65.36c-9.655,0-17.481,7.826-17.481,17.481v17.896
	c0,9.655,7.826,17.481,17.481,17.481h65.36c9.655,0,17.481-7.826,17.481-17.481v-17.896
	C374.774,365.227,366.947,357.4,357.293,357.4z"/>
<path style="fill:#FADC60;" d="M357.293,272.181h-65.36c-9.655,0-17.481,7.826-17.481,17.481v17.896
	c0,9.655,7.826,17.481,17.481,17.481h65.36c9.655,0,17.481-7.826,17.481-17.481v-17.896
	C374.774,280.007,366.947,272.181,357.293,272.181z"/>
<path style="fill:#E6CB59;" d="M357.293,186.961h-65.36c-9.655,0-17.481,7.826-17.481,17.481v17.896
	c0,9.655,7.826,17.481,17.481,17.481h65.36c9.655,0,17.481-7.826,17.481-17.481v-17.896
	C374.774,194.787,366.947,186.961,357.293,186.961z"/>
<path style="fill:#58B78C;" d="M357.293,101.741h-65.36c-9.655,0-17.481,7.826-17.481,17.481v17.896
	c0,9.655,7.826,17.481,17.481,17.481h65.36c9.655,0,17.481-7.826,17.481-17.481v-17.896
	C374.774,109.569,366.947,101.741,357.293,101.741z"/>
<path style="fill:#FD6F71;" d="M494.519,442.619h-65.36c-9.655,0-17.481,7.826-17.481,17.481v17.896
	c0,9.655,7.826,17.481,17.481,17.481h65.36c9.655,0,17.481-7.826,17.481-17.481V460.1C512,450.445,504.174,442.619,494.519,442.619z
	"/>
<path style="fill:#FA9F6A;" d="M494.519,357.4h-65.36c-9.655,0-17.481,7.826-17.481,17.481v17.896
	c0,9.655,7.826,17.481,17.481,17.481h65.36c9.655,0,17.481-7.826,17.481-17.481v-17.896C512,365.227,504.174,357.4,494.519,357.4z"
	/>
<path style="fill:#FADC60;" d="M494.519,272.181h-65.36c-9.655,0-17.481,7.826-17.481,17.481v17.896
	c0,9.655,7.826,17.481,17.481,17.481h65.36c9.655,0,17.481-7.826,17.481-17.481v-17.896
	C512,280.007,504.174,272.181,494.519,272.181z"/>
<path style="fill:#E6CB59;" d="M494.519,186.961h-65.36c-9.655,0-17.481,7.826-17.481,17.481v17.896
	c0,9.655,7.826,17.481,17.481,17.481h65.36c9.655,0,17.481-7.826,17.481-17.481v-17.896
	C512,194.787,504.174,186.961,494.519,186.961z"/>
<path style="fill:#58B78C;" d="M494.519,101.741h-65.36c-9.655,0-17.481,7.826-17.481,17.481v17.896
	c0,9.655,7.826,17.481,17.481,17.481h65.36c9.655,0,17.481-7.826,17.481-17.481v-17.896
	C512,109.569,504.174,101.741,494.519,101.741z"/>
<path style="fill:#46926F;" d="M494.519,16.523h-65.36c-9.655,0-17.481,7.826-17.481,17.481V51.9
	c0,9.655,7.826,17.481,17.481,17.481h65.36c9.655,0,17.481-7.826,17.481-17.481V34.003C512,24.349,504.174,16.523,494.519,16.523z"
	/>
<g>
</g>
<g>
</g>
<g>
</g>
<g>
</g>
<g>
</g>
<g>
</g>
<g>
</g>
<g>
</g>
<g>
</g>
<g>
</g>
<g>
</g>
<g>
</g>
<g>
</g>
<g>
</g>
<g>
</g>
</svg>
