<?xml version="1.0" encoding="iso-8859-1"?>
<!-- Generator: Adobe Illustrator 19.0.0, SVG Export Plug-In . SVG Version: 6.00 Build 0)  -->
<svg version="1.1" id="Capa_1" xmlns="http://www.w3.org/2000/svg" xmlns:xlink="http://www.w3.org/1999/xlink" x="0px" y="0px"
	 viewBox="0 0 512 512" style="enable-background:new 0 0 512 512;" xml:space="preserve">
<g>
	<polygon style="fill:#334060;" points="243.977,361.41 130.588,512 179.811,512 268.023,386.015 	"/>
	<polygon style="fill:#334060;" points="268.022,361.41 381.411,512 332.188,512 243.976,386.015 	"/>
</g>
<g>
	<rect x="238.795" y="307.251" style="fill:#485877;" width="34.403" height="204.748"/>
	<path style="fill:#485877;" d="M267.482,0h-22.965c-6.918,0-12.526,5.608-12.526,12.526v45.145h48.016V12.526
		C280.008,5.608,274.4,0,267.482,0z"/>
	<polygon style="fill:#485877;" points="255.999,49.918 57.375,78.833 57.375,286.672 255.999,307.257 454.624,286.672 
		454.624,78.833 	"/>
</g>
<path style="fill:#D4D2D3;" d="M372.811,130.565c-50.859-28.404-116.811,5.53-116.811,5.53l-17.202,19.225v102.704l17.202,28.648
	h125.411V145.157C381.411,139.092,378.106,133.522,372.811,130.565z"/>
<path style="fill:#EFEDEE;" d="M139.188,130.565c-5.294,2.957-8.599,8.527-8.599,14.59v141.516h125.41V136.095
	C255.999,136.095,190.047,102.161,139.188,130.565z"/>
<g>
	<path style="fill:#334060;" d="M454.624,37.662H57.375c-6.996,0-12.667,5.671-12.667,12.667v15.837
		c0,6.996,5.671,12.667,12.667,12.667h397.249c6.996,0,12.667-5.671,12.667-12.667V50.329
		C467.291,43.334,461.62,37.662,454.624,37.662z"/>
	<path style="fill:#334060;" d="M454.624,286.672H57.375c-6.996,0-12.667,5.671-12.667,12.667v15.837
		c0,6.996,5.671,12.667,12.667,12.667h397.249c6.996,0,12.667-5.671,12.667-12.667v-15.837
		C467.291,292.343,461.62,286.672,454.624,286.672z"/>
</g>
<g>
</g>
<g>
</g>
<g>
</g>
<g>
</g>
<g>
</g>
<g>
</g>
<g>
</g>
<g>
</g>
<g>
</g>
<g>
</g>
<g>
</g>
<g>
</g>
<g>
</g>
<g>
</g>
<g>
</g>
</svg>
