<?xml version="1.0" encoding="iso-8859-1"?>
<!-- Generator: Adobe Illustrator 19.0.0, SVG Export Plug-In . SVG Version: 6.00 Build 0)  -->
<svg version="1.1" id="Capa_1" xmlns="http://www.w3.org/2000/svg" xmlns:xlink="http://www.w3.org/1999/xlink" x="0px" y="0px"
	 viewBox="0 0 512 512" style="enable-background:new 0 0 512 512;" xml:space="preserve">
<circle style="fill:#E6CB59;" cx="322.426" cy="256" r="189.574"/>
<circle style="fill:#FADC60;" cx="322.426" cy="256" r="147.81"/>
<path style="fill:#D9BF54;" d="M303.815,67.333C207.849,76.684,132.846,157.579,132.846,256c0,98.42,75.002,179.316,170.968,188.667
	c14.972-9.103,28.961-20.057,41.668-32.763c41.643-41.643,64.578-97.011,64.578-155.905c0-58.892-22.935-114.262-64.578-155.905
	C332.776,87.389,318.786,76.435,303.815,67.333z"/>
<path style="fill:#E6CB59;" d="M174.617,256c0,81.632,66.176,147.806,147.806,147.806c11.813,0,23.3-1.394,34.311-4.013
	c34.502-39.983,53.325-90.442,53.325-143.795c0-53.352-18.822-103.811-53.324-143.794c-11.013-2.618-22.498-4.013-34.312-4.013
	C240.791,108.194,174.617,174.368,174.617,256z"/>
<circle style="fill:#FADC60;" cx="189.574" cy="256" r="189.574"/>
<circle style="fill:#E6CB59;" cx="189.574" cy="256" r="147.81"/>
<circle style="fill:#FADC60;" cx="189.574" cy="246.11" r="49.459"/>
<path style="fill:#FD6F71;" d="M189.577,365.334c-13.975,0-26.878-4.28-36.331-12.053c-10.275-8.448-15.934-20.385-15.934-33.61
	c0-51.782,41.365-90.847,43.125-92.484c5.152-4.79,13.129-4.79,18.28,0c1.761,1.638,43.126,40.702,43.126,92.484
	c0,13.225-5.66,25.161-15.935,33.61C216.455,361.054,203.552,365.334,189.577,365.334z M189.605,256.994
	c-10.241,12.707-25.452,36.064-25.452,62.676c0,12.932,13.179,18.821,25.424,18.821c12.246,0,25.424-5.89,25.424-18.821
	C215.001,292.903,199.845,269.65,189.605,256.994z"/>
<g>
	<path style="fill:#3A484A;" d="M127.575,175.52c-4.268,0-7.726-3.459-7.726-7.726v-11.222c0-4.267,3.458-7.726,7.726-7.726
		c4.268,0,7.726,3.459,7.726,7.726v11.222C135.301,172.061,131.843,175.52,127.575,175.52z"/>
	<path style="fill:#3A484A;" d="M251.579,175.52c-4.268,0-7.726-3.459-7.726-7.726v-11.222c0-4.267,3.458-7.726,7.726-7.726
		s7.726,3.459,7.726,7.726v11.222C259.306,172.061,255.848,175.52,251.579,175.52z"/>
	<path style="fill:#3A484A;" d="M189.577,181.51c-8.194,0-15.892-3.431-21.12-9.412c-2.809-3.213-2.481-8.094,0.732-10.902
		c3.212-2.808,8.094-2.48,10.901,0.732c2.294,2.624,5.751,4.129,9.486,4.129c3.735,0,7.193-1.505,9.487-4.129
		c2.808-3.214,7.69-3.541,10.901-0.732c3.213,2.808,3.542,7.689,0.732,10.902C205.469,178.079,197.771,181.51,189.577,181.51z"/>
</g>
<g>
</g>
<g>
</g>
<g>
</g>
<g>
</g>
<g>
</g>
<g>
</g>
<g>
</g>
<g>
</g>
<g>
</g>
<g>
</g>
<g>
</g>
<g>
</g>
<g>
</g>
<g>
</g>
<g>
</g>
</svg>
