<?xml version="1.0" encoding="iso-8859-1"?>
<!-- Generator: Adobe Illustrator 19.0.0, SVG Export Plug-In . SVG Version: 6.00 Build 0)  -->
<svg version="1.1" id="Capa_1" xmlns="http://www.w3.org/2000/svg" xmlns:xlink="http://www.w3.org/1999/xlink" x="0px" y="0px"
	 viewBox="0 0 512 512" style="enable-background:new 0 0 512 512;" xml:space="preserve">
<g>
	<path style="fill:#EFEDEE;" d="M462.428,236.594c7.79,0,14.106,6.315,14.106,14.105v61.152c0,7.79-6.315,14.106-14.106,14.106
		h-40.179v-89.363H462.428z"/>
	<path style="fill:#EFEDEE;" d="M49.572,236.594c-7.79,0-14.106,6.315-14.106,14.105v61.152c0,7.79,6.315,14.106,14.106,14.106
		h40.179v-89.363H49.572z"/>
</g>
<g>
	<path style="fill:#D2D2D2;" d="M35.466,286.097v25.755c0,7.79,6.315,14.106,14.106,14.106h40.179v-25.755H49.572
		C41.782,300.203,35.466,293.887,35.466,286.097z"/>
	<path style="fill:#D2D2D2;" d="M476.534,286.097v25.755c0,7.79-6.315,14.106-14.106,14.106h-40.179v-25.755h40.179
		C470.218,300.203,476.534,293.887,476.534,286.097z"/>
</g>
<path style="fill:#FA9F6A;" d="M407.02,0H104.98C83.969,0,66.937,17.032,66.937,38.043v435.916c0,21.01,17.032,38.041,38.041,38.041
	H407.02c21.011,0,38.042-17.032,38.042-38.041V38.043C445.063,17.032,428.031,0,407.02,0z"/>
<path style="fill:#E0824A;" d="M128.748,473.958V38.041C128.748,17.032,145.78,0,166.79,0H104.98c-3.939,0-7.739,0.599-11.312,1.71
	c-11.749,3.655-21.365,13.27-25.02,25.019c-0.741,2.383-1.254,4.866-1.513,7.422c-0.13,1.278-0.197,2.576-0.197,3.89v435.916
	c0,6.923,1.912,13.81,5.507,19.726c1.9,3.126,4.249,5.974,6.956,8.433c6.966,6.331,16.167,9.883,25.578,9.883h61.811
	C145.78,512,128.748,494.968,128.748,473.958z"/>
<g>
	<path style="fill:#485877;" d="M392.648,35.386H119.352c-9.405,0-17.028,7.623-17.028,17.028v194.855
		c0,9.405,7.623,17.028,17.028,17.028h273.297c9.405,0,17.028-7.623,17.028-17.028V52.415
		C409.676,43.01,402.053,35.386,392.648,35.386z"/>
	<path style="fill:#485877;" d="M392.648,298.254H119.352c-9.405,0-17.028,7.623-17.028,17.028v147.337
		c0,9.405,7.623,17.028,17.028,17.028h273.297c9.405,0,17.028-7.623,17.028-17.028V315.282
		C409.676,305.878,402.053,298.254,392.648,298.254z"/>
</g>
<g>
	<path style="fill:#334060;" d="M119.352,35.386c-9.405,0-17.028,7.624-17.028,17.028v194.855c0,9.405,7.624,17.028,17.028,17.028
		h9.396V38.041c0-0.894,0.042-1.777,0.103-2.656H119.352z"/>
	<path style="fill:#334060;" d="M128.748,298.254h-9.396c-9.405,0-17.028,7.624-17.028,17.028v147.337
		c0,9.405,7.624,17.028,17.028,17.028h9.822c-0.278-1.856-0.425-3.755-0.425-5.689C128.748,473.957,128.748,298.254,128.748,298.254
		z"/>
</g>
<circle style="fill:#FA9F6A;" cx="175.368" cy="116.534" r="37.661"/>
<path style="fill:#E0824A;" d="M185.672,143.89c-20.799,0-37.66-16.861-37.66-37.66c0-7.767,2.353-14.982,6.381-20.978
	c-10.062,6.761-16.683,18.247-16.683,31.279c0,20.799,16.861,37.66,37.66,37.66c13.033,0,24.518-6.622,31.279-16.683
	C200.655,141.537,193.438,143.89,185.672,143.89z"/>
<path style="fill:#334060;" d="M175.371,61.682c-7.12,0-12.891,5.771-12.891,12.891v18.704c0,7.12,5.771,12.891,12.891,12.891
	c7.12,0,12.891-5.771,12.891-12.891V74.573C188.261,67.453,182.489,61.682,175.371,61.682z"/>
<circle style="fill:#FA9F6A;" cx="336.632" cy="116.534" r="37.661"/>
<path style="fill:#E0824A;" d="M346.931,143.89c-20.799,0-37.66-16.861-37.66-37.66c0-7.767,2.353-14.982,6.381-20.978
	c-10.062,6.761-16.683,18.247-16.683,31.279c0,20.799,16.861,37.66,37.66,37.66c13.033,0,24.518-6.622,31.279-16.683
	C361.914,141.537,354.698,143.89,346.931,143.89z"/>
<path style="fill:#334060;" d="M336.629,61.682c7.12,0,12.891,5.771,12.891,12.891v18.704c0,7.12-5.771,12.891-12.891,12.891
	c-7.12,0-12.891-5.771-12.891-12.891V74.573C323.74,67.453,329.511,61.682,336.629,61.682z"/>
<circle style="fill:#FA9F6A;" cx="256" cy="197.414" r="37.661"/>
<path style="fill:#E0824A;" d="M266.302,224.772c-20.799,0-37.661-16.861-37.661-37.66c0-7.767,2.353-14.982,6.381-20.978
	c-10.062,6.761-16.683,18.247-16.683,31.279c0,20.799,16.861,37.66,37.661,37.66c13.033,0,24.518-6.622,31.279-16.683
	C281.284,222.419,274.068,224.772,266.302,224.772z"/>
<path style="fill:#334060;" d="M256,142.564c-7.12,0-12.891,5.771-12.891,12.891v18.704c0,7.12,5.771,12.891,12.891,12.891
	c7.12,0,12.891-5.771,12.891-12.891v-18.704C268.891,148.336,263.12,142.564,256,142.564z"/>
<g>
	<path style="fill:#EFEDEE;" d="M171.622,401.254c-4.268,0-7.726-3.459-7.726-7.726v-15.271c0-4.267,3.458-7.726,7.726-7.726
		s7.726,3.459,7.726,7.726v15.271C179.348,397.795,175.889,401.254,171.622,401.254z"/>
	<path style="fill:#EFEDEE;" d="M340.378,401.254c-4.268,0-7.726-3.459-7.726-7.726v-15.271c0-4.267,3.458-7.726,7.726-7.726
		c4.268,0,7.726,3.459,7.726,7.726v15.271C348.104,397.795,344.646,401.254,340.378,401.254z"/>
	<path style="fill:#EFEDEE;" d="M256,409.405c-10.347,0-20.059-4.322-26.644-11.856c-2.808-3.213-2.48-8.094,0.733-10.902
		s8.093-2.48,10.902,0.732c3.65,4.177,9.121,6.573,15.008,6.573s11.358-2.395,15.009-6.573c2.808-3.214,7.689-3.541,10.901-0.732
		c3.213,2.808,3.542,7.689,0.732,10.902C276.058,405.085,266.346,409.405,256,409.405z"/>
</g>
<g>
</g>
<g>
</g>
<g>
</g>
<g>
</g>
<g>
</g>
<g>
</g>
<g>
</g>
<g>
</g>
<g>
</g>
<g>
</g>
<g>
</g>
<g>
</g>
<g>
</g>
<g>
</g>
<g>
</g>
</svg>
