<?xml version="1.0" encoding="UTF-8" standalone="no"?>
<svg
   xmlns:dc="http://purl.org/dc/elements/1.1/"
   xmlns:cc="http://creativecommons.org/ns#"
   xmlns:rdf="http://www.w3.org/1999/02/22-rdf-syntax-ns#"
   xmlns:svg="http://www.w3.org/2000/svg"
   xmlns="http://www.w3.org/2000/svg"
   xmlns:sodipodi="http://sodipodi.sourceforge.net/DTD/sodipodi-0.dtd"
   xmlns:inkscape="http://www.inkscape.org/namespaces/inkscape"
   id="Material"
   viewBox="0 0 65 65"
   version="1.1"
   sodipodi:docname="CLEARtest.svg"
   width="65"
   height="65"
   inkscape:version="1.0.1 (3bc2e813f5, 2020-09-07)">
  <metadata
     id="metadata19">
    <rdf:RDF>
      <cc:Work
         rdf:about="">
        <dc:format>image/svg+xml</dc:format>
        <dc:type
           rdf:resource="http://purl.org/dc/dcmitype/StillImage" />
        <dc:title>CLEAR1</dc:title>
      </cc:Work>
    </rdf:RDF>
  </metadata>
  <sodipodi:namedview
     pagecolor="#ffffff"
     bordercolor="#666666"
     borderopacity="1"
     objecttolerance="10"
     gridtolerance="10"
     guidetolerance="10"
     inkscape:pageopacity="0"
     inkscape:pageshadow="2"
     inkscape:window-width="1285"
     inkscape:window-height="480"
     id="namedview17"
     showgrid="false"
     fit-margin-top="0"
     fit-margin-left="0"
     fit-margin-right="0"
     fit-margin-bottom="0"
     inkscape:zoom="3.0729167"
     inkscape:cx="94.620339"
     inkscape:cy="33.615308"
     inkscape:window-x="0"
     inkscape:window-y="0"
     inkscape:window-maximized="0"
     inkscape:current-layer="Material" />
  <defs
     id="defs6">
    <style
       id="style2">.cls-1{fill:none;}.cls-2{clip-path:url(#clip-path);}.cls-3{fill:#fddb4d;}.cls-4{fill-opacity:0.04;}.cls-5{fill:#fff;fill-opacity:0.2;}</style>
    <clipPath
       id="clip-path">
      <rect
         id="CLIP"
         class="cls-1"
         width="192"
         height="192"
         x="0"
         y="0" />
    </clipPath>
  </defs>
  <title
     id="title8">CLEAR1</title>
  <g
     id="CLEAR1"
     transform="matrix(0.37790698,0,0,0.37790698,-3.7790698,-3.7790698)">
    <g
       class="cls-2"
       clip-path="url(#clip-path)"
       id="g13">
      <circle
         id="Sun"
         class="cls-3"
         cx="96"
         cy="96"
         r="86" />
      <path
         id="Edge-shadow"
         class="cls-4"
         d="M 96,181.5 A 86,86 0 0 1 10,95.75 c 0,0.08 0,0.17 0,0.25 a 86,86 0 0 0 172,0 c 0,-0.08 0,-0.17 0,-0.25 A 86,86 0 0 1 96,181.5 Z" />
      <path
         id="Edge-highlight"
         class="cls-5"
         d="m 96,10.5 a 86,86 0 0 1 86,85.75 c 0,-0.08 0,-0.17 0,-0.25 A 86,86 0 0 0 10,96 c 0,0.08 0,0.17 0,0.25 A 86,86 0 0 1 96,10.5 Z" />
    </g>
  </g>
</svg>
