<svg id="Material" xmlns="http://www.w3.org/2000/svg" xmlns:xlink="http://www.w3.org/1999/xlink" viewBox="0 0 192 192"><defs><style>.cls-1{fill:none;}.cls-2{clip-path:url(#clip-path);}.cls-3{fill:#dbdbdb;}.cls-4{fill-opacity:0.04;}.cls-5{fill:#fff;fill-opacity:0.2;}</style><clipPath id="clip-path"><rect id="CLIP" class="cls-1" width="192" height="192"/></clipPath></defs><title>FOG</title><g id="FOG"><g class="cls-2"><path id="Shape" class="cls-3" d="M18,42c19.5,0,19.5-11.14,39-11.14S76.5,42,96,42s19.5-11.14,39-11.14S154.5,42,174,42V56.85c-19.5,0-19.5-11.14-39-11.14S115.5,56.85,96,56.85,76.5,45.71,57,45.71,37.5,56.85,18,56.85Z"/><path id="Edge-shadow" class="cls-4" d="M135,45.21c-19.5,0-19.5,11.14-39,11.14S76.5,45.21,57,45.21,37.5,56.35,18,56.35v.5c19.5,0,19.5-11.14,39-11.14S76.5,56.85,96,56.85s19.5-11.14,39-11.14,19.5,11.14,39,11.14v-.5C154.5,56.35,154.5,45.21,135,45.21Z"/><path id="Edge-highlighlt" class="cls-5" d="M135,30.85C115.5,30.85,115.5,42,96,42S76.5,30.85,57,30.85,37.5,42,18,42v.5c19.5,0,19.5-11.14,39-11.14S76.5,42.49,96,42.49s19.5-11.14,39-11.14,19.5,11.14,39,11.14V42C154.5,42,154.5,30.85,135,30.85Z"/><path id="Shape-2" data-name="Shape" class="cls-3" d="M18,76.49c19.5,0,19.5-11.14,39-11.14S76.5,76.49,96,76.49s19.5-11.14,39-11.14,19.5,11.14,39,11.14V91.35c-19.5,0-19.5-11.14-39-11.14S115.5,91.35,96,91.35,76.5,80.21,57,80.21,37.5,91.35,18,91.35Z"/><path id="Edge-shadow-2" data-name="Edge-shadow" class="cls-4" d="M96,90.85c-19.5,0-19.5-11.14-39-11.14S37.5,90.85,18,90.85v.5c19.5,0,19.5-11.14,39-11.14S76.5,91.35,96,91.35s19.5-11.14,39-11.14,19.5,11.14,39,11.14v-.5c-19.5,0-19.5-11.14-39-11.14S115.5,90.85,96,90.85Z"/><path id="Edge-highlighlt-2" data-name="Edge-highlighlt" class="cls-5" d="M96,76.49c-19.5,0-19.5-11.14-39-11.14S37.5,76.49,18,76.49V77c19.5,0,19.5-11.14,39-11.14S76.5,77,96,77s19.5-11.14,39-11.14S154.5,77,174,77v-.5c-19.5,0-19.5-11.14-39-11.14S115.5,76.49,96,76.49Z"/><path id="Shape-3" data-name="Shape" class="cls-3" d="M18,111c19.5,0,19.5-11.14,39-11.14S76.5,111,96,111s19.5-11.14,39-11.14S154.5,111,174,111v14.86c-19.5,0-19.5-11.14-39-11.14s-19.5,11.14-39,11.14-19.5-11.14-39-11.14S37.5,125.85,18,125.85Z"/><path id="Edge-shadow-3" data-name="Edge-shadow" class="cls-4" d="M96,125.35c-19.5,0-19.5-11.14-39-11.14S37.5,125.35,18,125.35v.5c19.5,0,19.5-11.14,39-11.14s19.49,11.14,39,11.14,19.5-11.14,39-11.14,19.5,11.14,39,11.14v-.5c-19.5,0-19.5-11.14-39-11.14S115.5,125.35,96,125.35Z"/><path id="Edge-highlighlt-3" data-name="Edge-highlighlt" class="cls-5" d="M96,111c-19.5,0-19.5-11.14-39-11.14S37.5,111,18,111v.5c19.5,0,19.5-11.14,39-11.14s19.49,11.14,39,11.14,19.5-11.14,39-11.14,19.5,11.14,39,11.14V111c-19.5,0-19.5-11.14-39-11.14S115.5,111,96,111Z"/><path id="Shape-4" data-name="Shape" class="cls-3" d="M18,145.5c19.5,0,19.5-11.15,39-11.15S76.5,145.5,96,145.5s19.5-11.15,39-11.15,19.5,11.15,39,11.15v14.85c-19.5,0-19.5-11.14-39-11.14s-19.5,11.14-39,11.14-19.5-11.14-39-11.14S37.5,160.35,18,160.35Z"/><path id="Edge-shadow-4" data-name="Edge-shadow" class="cls-4" d="M96,159.85c-19.5,0-19.5-11.14-39-11.14S37.5,159.85,18,159.85v.5c19.5,0,19.5-11.14,39-11.14s19.49,11.14,39,11.14,19.5-11.14,39-11.14,19.5,11.14,39,11.14v-.5c-19.5,0-19.5-11.14-39-11.14S115.5,159.85,96,159.85Z"/><path id="Edge-highlighlt-4" data-name="Edge-highlighlt" class="cls-5" d="M96,145.5c-19.5,0-19.5-11.15-39-11.15S37.5,145.5,18,145.5v.5c19.5,0,19.5-11.15,39-11.15S76.5,146,96,146s19.5-11.15,39-11.15S154.5,146,174,146v-.5c-19.5,0-19.5-11.15-39-11.15S115.5,145.5,96,145.5Z"/></g></g></svg>