<?xml version="1.0" encoding="iso-8859-1"?>
<!-- Generator: Adobe Illustrator 19.0.0, SVG Export Plug-In . SVG Version: 6.00 Build 0)  -->
<svg version="1.1" id="Capa_1" xmlns="http://www.w3.org/2000/svg" xmlns:xlink="http://www.w3.org/1999/xlink" x="0px" y="0px"
	 viewBox="0 0 512.172 512.172" style="enable-background:new 0 0 512.172 512.172;" xml:space="preserve">
<linearGradient id="SVGID_1_" gradientUnits="userSpaceOnUse" x1="-43.3271" y1="635.8344" x2="-32.9491" y2="646.2123" gradientTransform="matrix(21.3333 0 0 -21.3333 994.5855 13791.667)">
	<stop  offset="0" style="stop-color:#34CDFA"/>
	<stop  offset="1" style="stop-color:#E8D9F1"/>
</linearGradient>
<path style="fill:url(#SVGID_1_);" d="M317.953,121.6c-2.133-8.533-10.667-14.933-19.2-14.933h-32l32-76.8
	C303.019,14.933,292.353,0,277.419,0h-128c-8.533,0-17.067,4.267-19.2,12.8L87.553,119.467c-6.4,14.933,4.267,29.867,19.2,29.867
	h34.133L106.753,249.6c-6.4,19.2,17.067,36.267,32,23.467l170.667-128C317.953,138.667,322.219,130.133,317.953,121.6z"/>
<linearGradient id="SVGID_2_" gradientUnits="userSpaceOnUse" x1="-37.3031" y1="624.8083" x2="-26.9241" y2="635.1873" gradientTransform="matrix(21.3333 0 0 -21.3333 994.5855 13791.667)">
	<stop  offset="0" style="stop-color:#34CDFA"/>
	<stop  offset="1" style="stop-color:#E8D9F1"/>
</linearGradient>
<path style="fill:url(#SVGID_2_);" d="M445.953,356.267c-2.133-8.533-10.667-14.933-19.2-14.933h-32l32-76.8
	c4.267-12.8-4.267-29.867-19.2-29.867h-128c-8.533,0-17.067,4.267-19.2,12.8l-42.667,106.667
	C209.153,369.067,219.819,384,234.753,384h34.133l-34.133,100.267c-6.4,19.2,17.067,36.267,32,23.467l170.667-128
	C445.953,373.333,450.219,364.8,445.953,356.267z"/>
<g>
	<path style="fill:#99E6FD;" d="M401.153,204.8l-34.133-25.6l38.4-51.2h-21.333c-17.067,0-27.733-19.2-17.067-34.133l64-85.333
		l34.133,25.6l-38.4,51.2h21.333c17.067,0,27.733,19.2,17.067,34.133L401.153,204.8z"/>
	<path style="fill:#99E6FD;" d="M81.153,503.467l-34.133-25.6l38.4-51.2H64.086c-17.067,0-27.733-19.2-17.067-34.133l64-85.333
		l34.133,25.6l-38.4,51.2h21.333c17.067,0,27.733,19.2,17.067,34.133L81.153,503.467z"/>
</g>
<g>
</g>
<g>
</g>
<g>
</g>
<g>
</g>
<g>
</g>
<g>
</g>
<g>
</g>
<g>
</g>
<g>
</g>
<g>
</g>
<g>
</g>
<g>
</g>
<g>
</g>
<g>
</g>
<g>
</g>
</svg>
