<?xml version="1.0" encoding="iso-8859-1"?>
<!-- Generator: Adobe Illustrator 19.0.0, SVG Export Plug-In . SVG Version: 6.00 Build 0)  -->
<svg version="1.1" id="Capa_1" xmlns="http://www.w3.org/2000/svg" xmlns:xlink="http://www.w3.org/1999/xlink" x="0px" y="0px"
	 viewBox="0 0 503.509 503.509" style="enable-background:new 0 0 503.509 503.509;" xml:space="preserve">
<g>
	
		<linearGradient id="SVGID_1_" gradientUnits="userSpaceOnUse" x1="-42.5053" y1="626.7035" x2="-35.4343" y2="633.7745" gradientTransform="matrix(21.3333 0 0 -21.3333 1083.0889 13696.8545)">
		<stop  offset="0" style="stop-color:#34CDFA"/>
		<stop  offset="1" style="stop-color:#E8D9F1"/>
	</linearGradient>
	<circle style="fill:url(#SVGID_1_);" cx="251.733" cy="251.755" r="106.667"/>
	<path style="fill:#67D9FB;" d="M379.733,251.755h-42.667c0.087-102.894-73.338-191.164-174.528-209.813l7.723-41.92
		C291.681,22.393,379.8,128.291,379.733,251.755z"/>
	<path style="fill:#99E6FD;" d="M312.064,191.424c-72.681-72.833-187.015-83.352-271.765-25.003l-24.213-35.093
		c101.677-70.054,238.882-57.49,326.144,29.867L312.064,191.424z"/>
	<path style="fill:#67D9FB;" d="M41.92,340.949L0,333.227c22.372-121.42,128.27-209.539,251.733-209.472v42.667
		C148.839,166.334,60.569,239.759,41.92,340.949z"/>
	<path style="fill:#99E6FD;" d="M131.307,487.403c-70.081-101.67-57.515-238.893,29.867-326.144l30.229,30.165
		c-72.833,72.681-83.352,187.015-25.003,271.765L131.307,487.403z"/>
	<path style="fill:#67D9FB;" d="M333.205,503.488c-121.42-22.372-209.539-128.269-209.472-251.733H166.4
		c-0.087,102.894,73.338,191.164,174.528,209.813L333.205,503.488z"/>
	<path style="fill:#99E6FD;" d="M342.421,417.344c-67.974,0.04-133.167-26.98-181.184-75.093l30.165-30.165
		c72.681,72.833,187.015,83.352,271.765,25.003l24.213,35.115C444.769,401.627,394.205,417.373,342.421,417.344z"/>
	<path style="fill:#67D9FB;" d="M251.733,379.755v-42.667c102.894,0.087,191.164-73.338,209.813-174.528l41.963,7.701
		C481.143,291.706,375.22,379.84,251.733,379.755z"/>
	<g>
		<path style="fill:#99E6FD;" d="M342.229,342.251l-30.165-30.165c72.833-72.681,83.352-187.015,25.003-271.765l35.093-24.213
			C442.224,117.792,429.631,255.016,342.229,342.251z"/>
		<path style="fill:#99E6FD;" d="M251.733,379.755c-70.692,0-128-57.308-128-128s57.308-128,128-128s128,57.308,128,128
			C379.651,322.413,322.392,379.672,251.733,379.755z M251.733,166.421c-47.128,0-85.333,38.205-85.333,85.333
			s38.205,85.333,85.333,85.333s85.333-38.205,85.333-85.333S298.862,166.421,251.733,166.421z"/>
	</g>
	<circle style="fill:#FFFFFF;" cx="251.733" cy="251.755" r="21.333"/>
</g>
<g>
</g>
<g>
</g>
<g>
</g>
<g>
</g>
<g>
</g>
<g>
</g>
<g>
</g>
<g>
</g>
<g>
</g>
<g>
</g>
<g>
</g>
<g>
</g>
<g>
</g>
<g>
</g>
<g>
</g>
</svg>
