<?xml version="1.0" encoding="iso-8859-1"?>
<!-- Generator: Adobe Illustrator 19.0.0, SVG Export Plug-In . SVG Version: 6.00 Build 0)  -->
<svg version="1.1" id="Capa_1" xmlns="http://www.w3.org/2000/svg" xmlns:xlink="http://www.w3.org/1999/xlink" x="0px" y="0px"
	 viewBox="0 0 512 512" style="enable-background:new 0 0 512 512;" xml:space="preserve">
<path style="fill:#CCF2FE;" d="M0,42.667c42.667,0,42.667,42.667,85.333,42.667S128,42.667,170.667,42.667
	S213.333,85.333,256,85.333s42.667-42.667,85.333-42.667S384,85.333,426.667,85.333S469.333,42.667,512,42.667v426.667H0V42.667z"/>
<linearGradient id="SVGID_1_" gradientUnits="userSpaceOnUse" x1="-44.2031" y1="577.3177" x2="-25.2031" y2="596.3177" gradientTransform="matrix(21.3333 0 0 -21.3333 996.3334 12838.7783)">
	<stop  offset="0" style="stop-color:#34CDFA"/>
	<stop  offset="1" style="stop-color:#E8D9F1"/>
</linearGradient>
<path style="fill:url(#SVGID_1_);" d="M0,170.667c42.667,0,42.667,42.667,85.333,42.667s42.667-42.667,85.333-42.667
	s42.667,42.667,85.333,42.667s42.667-42.667,85.333-42.667s42.667,42.667,85.333,42.667s42.667-42.667,85.333-42.667v298.667H0
	V170.667z"/>
<path style="fill:#FFFFFF;" d="M354.133,345.6l-85.333-64c-8.533-6.4-17.067-6.4-25.6,0l-85.333,64l25.6,34.133l51.2-38.4V448
	h42.667V341.333l51.2,38.4L354.133,345.6z"/>
<g>
</g>
<g>
</g>
<g>
</g>
<g>
</g>
<g>
</g>
<g>
</g>
<g>
</g>
<g>
</g>
<g>
</g>
<g>
</g>
<g>
</g>
<g>
</g>
<g>
</g>
<g>
</g>
<g>
</g>
</svg>
