<?xml version="1.0" encoding="iso-8859-1"?>
<!-- Generator: Adobe Illustrator 19.0.0, SVG Export Plug-In . SVG Version: 6.00 Build 0)  -->
<svg version="1.1" id="Capa_1" xmlns="http://www.w3.org/2000/svg" xmlns:xlink="http://www.w3.org/1999/xlink" x="0px" y="0px"
	 viewBox="0 0 512 512" style="enable-background:new 0 0 512 512;" xml:space="preserve">
<path style="fill:#CCF2FE;" d="M373.713,128c-6.4,0-14.933,0-21.333,2.133V128c0-70.4-57.6-128-128-128s-128,57.6-128,128
	c0,2.133,0,4.267,0,6.4c-66.133,23.467-102.4,98.133-78.933,164.267C34.513,349.867,83.58,384,139.046,384h234.667
	c70.4,0,128-57.6,128-128S444.113,128,373.713,128z"/>
<path style="fill:#B3ECFD;" d="M395.046,341.333H160.38c-44.8,0-85.333-27.733-100.267-70.4c-10.667-27.733-8.533-57.6,4.267-83.2
	s34.133-44.8,59.733-53.333l17.067-6.4v-17.067c-2.133,0-2.133-2.133-2.133-4.267c0-55.467,44.8-102.4,98.133-106.667
	c-4.267,0-8.533,0-12.8,0c-70.4,0-128,57.6-128,128c0,2.133,0,4.267,0,6.4c-66.133,23.467-102.4,98.133-78.933,164.267
	C34.513,349.867,83.58,384,139.046,384h234.667c70.4,0,128-57.6,128-128c0-4.267,0-8.533,0-12.8
	C497.446,296.533,450.513,341.333,395.046,341.333z"/>
<linearGradient id="SVGID_1_" gradientUnits="userSpaceOnUse" x1="-48.8186" y1="632.6559" x2="-43.1618" y2="638.3128" gradientTransform="matrix(21.3333 0 0 -21.3333 1205.504 13791.667)">
	<stop  offset="0" style="stop-color:#34CDFA"/>
	<stop  offset="1" style="stop-color:#E8D9F1"/>
</linearGradient>
<circle style="fill:url(#SVGID_1_);" cx="224.38" cy="234.667" r="85.333"/>
<g>
	<circle style="fill:#34CDFA;" cx="245.713" cy="426.667" r="21.333"/>
	<circle style="fill:#34CDFA;" cx="352.38" cy="426.667" r="21.333"/>
	<circle style="fill:#34CDFA;" cx="139.046" cy="426.667" r="21.333"/>
	<circle style="fill:#34CDFA;" cx="245.713" cy="490.667" r="21.333"/>
	<circle style="fill:#34CDFA;" cx="352.38" cy="490.667" r="21.333"/>
	<circle style="fill:#34CDFA;" cx="139.046" cy="490.667" r="21.333"/>
</g>
<circle style="fill:#FFFFFF;" cx="245.713" cy="256" r="21.333"/>
<g>
</g>
<g>
</g>
<g>
</g>
<g>
</g>
<g>
</g>
<g>
</g>
<g>
</g>
<g>
</g>
<g>
</g>
<g>
</g>
<g>
</g>
<g>
</g>
<g>
</g>
<g>
</g>
<g>
</g>
</svg>
