<?xml version="1.0" encoding="iso-8859-1"?>
<!-- Generator: Adobe Illustrator 19.0.0, SVG Export Plug-In . SVG Version: 6.00 Build 0)  -->
<svg version="1.1" id="Capa_1" xmlns="http://www.w3.org/2000/svg" xmlns:xlink="http://www.w3.org/1999/xlink" x="0px" y="0px"
	 viewBox="0 0 512 512" style="enable-background:new 0 0 512 512;" xml:space="preserve">
<g>
	
		<linearGradient id="SVGID_1_" gradientUnits="userSpaceOnUse" x1="-40.8406" y1="636.8743" x2="-28.5656" y2="649.1493" gradientTransform="matrix(21.3333 0 0 -21.3333 996.3334 14029.8896)">
		<stop  offset="0" style="stop-color:#34CDFA"/>
		<stop  offset="1" style="stop-color:#E8D9F1"/>
	</linearGradient>
	<path style="fill:url(#SVGID_1_);" d="M256,138.667C138.233,138.796,42.796,234.233,42.667,352
		c0,11.782,9.551,21.333,21.333,21.333h384c11.782,0,21.333-9.551,21.333-21.333C469.204,234.233,373.767,138.796,256,138.667z"/>
	<g>
		<rect x="234.667" y="10.667" style="fill:#CCF2FE;" width="42.667" height="64"/>
		
			<rect x="80.002" y="52.114" transform="matrix(-0.866 0.5 -0.5 -0.866 231.15 106.2937)" style="fill:#CCF2FE;" width="42.666" height="64"/>
		
			<rect x="378.655" y="62.76" transform="matrix(-0.4999 0.8661 -0.8661 -0.4999 688.7814 -229.5234)" style="fill:#CCF2FE;" width="64" height="42.667"/>
	</g>
	<path style="fill:#FFFFFF;" d="M331.84,248.917l-64-42.667c-7.164-4.773-16.495-4.773-23.659,0l-64,42.667l23.659,35.499
		l30.827-20.565V352h42.667v-88.149l30.827,20.565L331.84,248.917z"/>
	<rect y="330.667" style="fill:#34CDFA;" width="512" height="42.667"/>
	<rect x="106.667" y="394.667" style="fill:#99E6FD;" width="298.667" height="42.667"/>
	<rect x="149.333" y="458.667" style="fill:#CCF2FE;" width="213.333" height="42.667"/>
</g>
<g>
</g>
<g>
</g>
<g>
</g>
<g>
</g>
<g>
</g>
<g>
</g>
<g>
</g>
<g>
</g>
<g>
</g>
<g>
</g>
<g>
</g>
<g>
</g>
<g>
</g>
<g>
</g>
<g>
</g>
</svg>
