<?xml version="1.0" encoding="iso-8859-1"?>
<!-- Generator: Adobe Illustrator 19.0.0, SVG Export Plug-In . SVG Version: 6.00 Build 0)  -->
<svg version="1.1" id="Capa_1" xmlns="http://www.w3.org/2000/svg" xmlns:xlink="http://www.w3.org/1999/xlink" x="0px" y="0px"
	 viewBox="0 0 510.003 510.003" style="enable-background:new 0 0 510.003 510.003;" xml:space="preserve">
<linearGradient id="SVGID_1_" gradientUnits="userSpaceOnUse" x1="-44.3054" y1="615.9534" x2="-27.3379" y2="632.9208" gradientTransform="matrix(21.3333 0 0 -21.3333 1036.9376 13615.6406)">
	<stop  offset="0" style="stop-color:#34CDFA"/>
	<stop  offset="1" style="stop-color:#E8D9F1"/>
</linearGradient>
<path style="fill:url(#SVGID_1_);" d="M309.47,7.052c-17.067-6.4-34.133,14.933-25.6,29.867
	c57.6,102.4,21.333,232.533-81.067,290.133C149.47,356.918,85.47,363.318,27.87,341.985c-17.067-6.4-34.133,14.933-25.6,29.867
	c68.267,123.733,226.133,166.4,347.733,98.133s166.4-226.133,98.133-347.733C420.403,68.918,369.203,26.252,309.47,7.052z"/>
<path style="fill:#CCF2FE;" d="M418.27,254.518c-8.533-8.533-21.333-8.533-29.867,0c-14.933,14.933-91.733,89.6-91.733,142.933
	c0,59.733,46.933,106.667,106.667,106.667s106.667-46.933,106.667-106.667C510.003,344.118,433.203,269.452,418.27,254.518z"/>
<circle style="fill:#FFFFFF;" cx="446.003" cy="397.452" r="21.333"/>
<g>
</g>
<g>
</g>
<g>
</g>
<g>
</g>
<g>
</g>
<g>
</g>
<g>
</g>
<g>
</g>
<g>
</g>
<g>
</g>
<g>
</g>
<g>
</g>
<g>
</g>
<g>
</g>
<g>
</g>
</svg>
