<?xml version="1.0" encoding="iso-8859-1"?>
<!-- Generator: Adobe Illustrator 19.0.0, SVG Export Plug-In . SVG Version: 6.00 Build 0)  -->
<svg version="1.1" id="Capa_1" xmlns="http://www.w3.org/2000/svg" xmlns:xlink="http://www.w3.org/1999/xlink" x="0px" y="0px"
	 viewBox="0 0 509.974 509.974" style="enable-background:new 0 0 509.974 509.974;" xml:space="preserve">
<linearGradient id="SVGID_1_" gradientUnits="userSpaceOnUse" x1="-44.158" y1="621.9203" x2="-27.186" y2="638.8932" gradientTransform="matrix(21.3333 0 0 -21.3333 1037.5209 13749.4492)">
	<stop  offset="0" style="stop-color:#34CDFA"/>
	<stop  offset="1" style="stop-color:#E8D9F1"/>
</linearGradient>
<path style="fill:url(#SVGID_1_);" d="M313.708,13.043c-17.067-6.4-34.133,14.933-25.6,29.867
	c57.6,102.4,21.333,232.533-81.067,290.133C153.708,362.91,89.708,369.31,32.108,347.976c-17.067-6.4-34.133,14.933-25.6,29.867
	c68.267,123.733,226.133,166.4,347.733,98.133s166.4-226.133,98.133-347.733C422.508,74.91,373.441,32.243,313.708,13.043z"/>
<path style="fill:#CCF2FE;" d="M187.841,47.176C177.174,13.043,140.908-6.157,108.908,4.51c-19.2,6.4-34.133,21.333-42.667,40.533
	c-36.267,0-64,27.733-66.133,61.867s27.733,64,61.867,66.133h106.667c36.267,0,64-27.733,64-64
	C232.641,79.176,213.441,55.71,187.841,47.176z"/>
<path style="fill:#B3ECFD;" d="M189.974,149.576H83.308c-36.267,0-64-29.867-61.867-66.133c0-10.667,4.267-21.333,10.667-32
	c-19.2,12.8-32,32-32,55.467c0,36.267,27.733,64,61.867,66.133h106.667c23.467,0,42.667-12.8,55.467-29.867
	C213.441,147.443,202.774,149.576,189.974,149.576z"/>
<path style="fill:#CCF2FE;" d="M465.174,362.91c-10.667-34.133-46.933-53.333-78.933-42.667c-19.2,6.4-34.133,21.333-42.667,40.533
	c-36.267,0-64,27.733-66.133,61.867c0,36.267,27.733,64,61.867,66.133h106.667c36.267,0,64-27.733,64-64
	C509.974,397.043,490.774,371.443,465.174,362.91z"/>
<path style="fill:#B3ECFD;" d="M467.308,467.443H360.641c-36.267,0-64-29.867-61.867-66.133c0-10.667,4.267-21.333,10.667-32
	c-17.067,10.667-29.867,29.867-32,53.333c0,36.267,27.733,64,61.867,66.133h106.667c23.467,0,42.667-12.8,55.467-29.867
	C490.774,463.176,480.108,467.443,467.308,467.443z"/>
<g>
</g>
<g>
</g>
<g>
</g>
<g>
</g>
<g>
</g>
<g>
</g>
<g>
</g>
<g>
</g>
<g>
</g>
<g>
</g>
<g>
</g>
<g>
</g>
<g>
</g>
<g>
</g>
<g>
</g>
</svg>
