<?xml version="1.0" encoding="iso-8859-1"?>
<!-- Generator: Adobe Illustrator 19.0.0, SVG Export Plug-In . SVG Version: 6.00 Build 0)  -->
<svg version="1.1" id="Capa_1" xmlns="http://www.w3.org/2000/svg" xmlns:xlink="http://www.w3.org/1999/xlink" x="0px" y="0px"
	 viewBox="0 0 512 512" style="enable-background:new 0 0 512 512;" xml:space="preserve">
<g>
	<g>
		<path style="fill:#34CDFA;" d="M298.667,512c-35.346,0-64-28.654-64-64V277.333h42.667V448c0,11.782,9.551,21.333,21.333,21.333
			c11.782,0,21.333-9.551,21.333-21.333h42.667C362.667,483.346,334.013,512,298.667,512z"/>
		<rect x="235.52" style="fill:#34CDFA;" width="42.667" height="64"/>
	</g>
	<path style="fill:#CCF2FE;" d="M256,42.667C114.683,42.831,0.165,157.35,0,298.667C0,310.449,9.551,320,21.333,320h469.333
		c11.782,0,21.333-9.551,21.333-21.333C511.847,157.345,397.322,42.82,256,42.667z"/>
	<path style="fill:#B3ECFD;" d="M42.667,298.667C42.871,165.668,144.806,54.939,277.333,43.755
		c-7.061-0.597-14.123-1.088-21.333-1.088C114.683,42.831,0.165,157.35,0,298.667C0,310.449,9.551,320,21.333,320H64
		C52.218,320,42.667,310.449,42.667,298.667z"/>
	
		<linearGradient id="SVGID_1_" gradientUnits="userSpaceOnUse" x1="-39.3398" y1="631.7068" x2="-30.0667" y2="640.9799" gradientTransform="matrix(21.3333 0 0 -21.3333 996.3334 13791.667)">
		<stop  offset="0" style="stop-color:#34CDFA"/>
		<stop  offset="1" style="stop-color:#E8D9F1"/>
	</linearGradient>
	<path style="fill:url(#SVGID_1_);" d="M256,42.667c-70.037,0-106.667,128.789-106.667,256c0,11.782,9.551,21.333,21.333,21.333
		h170.667c11.782,0,21.333-9.551,21.333-21.333C362.667,171.456,326.016,42.667,256,42.667z"/>
</g>
<g>
</g>
<g>
</g>
<g>
</g>
<g>
</g>
<g>
</g>
<g>
</g>
<g>
</g>
<g>
</g>
<g>
</g>
<g>
</g>
<g>
</g>
<g>
</g>
<g>
</g>
<g>
</g>
<g>
</g>
</svg>
