<?xml version="1.0" encoding="iso-8859-1"?>
<!-- Generator: Adobe Illustrator 19.0.0, SVG Export Plug-In . SVG Version: 6.00 Build 0)  -->
<svg version="1.1" id="Capa_1" xmlns="http://www.w3.org/2000/svg" xmlns:xlink="http://www.w3.org/1999/xlink" x="0px" y="0px"
	 viewBox="0 0 512.04 512.04" style="enable-background:new 0 0 512.04 512.04;" xml:space="preserve">
<path style="fill:#B3ECFD;" d="M183.467,317.887l-128-64c-10.667-4.267-14.933-17.067-8.533-27.733
	c2.133-4.267,6.4-8.533,8.533-8.533l128-64l19.2,38.4l-91.733,42.667l89.6,44.8L183.467,317.887z"/>
<rect x="42.667" y="106.687" style="fill:#34CDFA;" width="42.667" height="405.333"/>
<circle style="fill:#CCF2FE;" cx="64" cy="64.02" r="64"/>
<circle style="fill:#34CDFA;" cx="64" cy="64.02" r="21.333"/>
<linearGradient id="SVGID_1_" gradientUnits="userSpaceOnUse" x1="-37.6455" y1="630.0524" x2="-27.7355" y2="639.9584" gradientTransform="matrix(21.3333 0 0 -21.3333 996.3334 13792.1133)">
	<stop  offset="0" style="stop-color:#34CDFA"/>
	<stop  offset="1" style="stop-color:#E8D9F1"/>
</linearGradient>
<path style="fill:url(#SVGID_1_);" d="M497.067,236.82L198.4,130.153c-12.8-6.4-27.733,4.267-27.733,19.2V320.02
	c0,12.8,12.8,23.467,25.6,21.333l298.667-64C516.267,273.087,518.4,243.22,497.067,236.82z"/>
<g>
</g>
<g>
</g>
<g>
</g>
<g>
</g>
<g>
</g>
<g>
</g>
<g>
</g>
<g>
</g>
<g>
</g>
<g>
</g>
<g>
</g>
<g>
</g>
<g>
</g>
<g>
</g>
<g>
</g>
</svg>
