<?xml version="1.0" encoding="iso-8859-1"?>
<!-- Generator: Adobe Illustrator 19.0.0, SVG Export Plug-In . SVG Version: 6.00 Build 0)  -->
<svg version="1.1" id="Capa_1" xmlns="http://www.w3.org/2000/svg" xmlns:xlink="http://www.w3.org/1999/xlink" x="0px" y="0px"
	 viewBox="0 0 512 512" style="enable-background:new 0 0 512 512;" xml:space="preserve">
<linearGradient id="SVGID_1_" gradientUnits="userSpaceOnUse" x1="-36.8554" y1="640.3947" x2="-32.5244" y2="644.7256" gradientTransform="matrix(21.3333 0 0 -21.3333 996.3334 13791.667)">
	<stop  offset="0" style="stop-color:#34CDFA"/>
	<stop  offset="1" style="stop-color:#E8D9F1"/>
</linearGradient>
<path style="fill:url(#SVGID_1_);" d="M270.933,6.4c-8.533-8.533-21.333-8.533-29.867,0C230.4,17.067,192,55.467,192,85.333
	c0,36.267,27.733,64,64,64s64-27.733,64-64C320,55.467,281.6,17.067,270.933,6.4z"/>
<circle style="fill:#FFFFFF;" cx="277.333" cy="85.333" r="21.333"/>
<path style="fill:#CCF2FE;" d="M512,192c-42.667,0-42.667,42.667-85.333,42.667S384,192,341.333,192S298.667,234.667,256,234.667
	S213.333,192,170.667,192S128,234.667,85.333,234.667S42.667,192,0,192v192h512V192z"/>
<rect y="384" style="fill:#67D9FB;" width="512" height="128"/>
<path style="fill:#B3ECFD;" d="M341.333,298.667c-42.667,0-42.667,42.667-85.333,42.667s-42.667-42.667-85.333-42.667
	S128,341.333,85.333,341.333S42.667,298.667,0,298.667v106.667c42.667,0,42.667,42.667,85.333,42.667s42.667-42.667,85.333-42.667
	S213.333,448,256,448s42.667-42.667,85.333-42.667S384,448,426.667,448s42.667-42.667,85.333-42.667V298.667
	c-42.667,0-42.667,42.667-85.333,42.667S384,298.667,341.333,298.667z"/>
<g>
</g>
<g>
</g>
<g>
</g>
<g>
</g>
<g>
</g>
<g>
</g>
<g>
</g>
<g>
</g>
<g>
</g>
<g>
</g>
<g>
</g>
<g>
</g>
<g>
</g>
<g>
</g>
<g>
</g>
</svg>
