<?xml version="1.0" encoding="iso-8859-1"?>
<!-- Generator: Adobe Illustrator 19.0.0, SVG Export Plug-In . SVG Version: 6.00 Build 0)  -->
<svg version="1.1" id="Capa_1" xmlns="http://www.w3.org/2000/svg" xmlns:xlink="http://www.w3.org/1999/xlink" x="0px" y="0px"
	 viewBox="0 0 511.676 511.676" style="enable-background:new 0 0 511.676 511.676;" xml:space="preserve">
<g>
	
		<linearGradient id="SVGID_1_" gradientUnits="userSpaceOnUse" x1="-50.0059" y1="624.1493" x2="-41.0568" y2="633.1004" gradientTransform="matrix(21.3333 0 0 -21.3333 1216.5151 13784.4336)">
		<stop  offset="0" style="stop-color:#34CDFA"/>
		<stop  offset="1" style="stop-color:#E8D9F1"/>
	</linearGradient>
	<path style="fill:url(#SVGID_1_);" d="M229.726,198.289c-11.52,12.053-112.555,119.829-112.555,185.387
		c0,70.692,57.308,128,128,128s128-57.308,128-128c0-65.557-101.035-173.333-112.555-185.387
		C252.052,189.842,238.29,189.842,229.726,198.289z"/>
	<g>
		<path style="fill:#B3ECFD;" d="M410.377,6.759c-8.426-8.766-22.363-9.041-31.129-0.615c-0.209,0.201-0.414,0.406-0.615,0.615
			c-11.605,12.928-69.461,79.509-69.461,120.917c0,47.128,38.205,85.333,85.333,85.333s85.333-38.205,85.333-85.333
			C479.838,86.268,421.982,19.687,410.377,6.759z"/>
		<path style="fill:#B3ECFD;" d="M202.505,127.676c0-41.408-57.856-107.989-69.461-120.917c-8.426-8.766-22.363-9.041-31.129-0.615
			c-0.209,0.201-0.414,0.406-0.615,0.615C89.694,19.687,31.838,86.268,31.838,127.676c0,47.128,38.205,85.333,85.333,85.333
			S202.505,174.804,202.505,127.676z"/>
	</g>
	<g>
		<circle style="fill:#FFFFFF;" cx="309.171" cy="405.009" r="21.333"/>
		<circle style="fill:#FFFFFF;" cx="415.838" cy="127.676" r="21.333"/>
		<circle style="fill:#FFFFFF;" cx="138.505" cy="127.676" r="21.333"/>
	</g>
</g>
<g>
</g>
<g>
</g>
<g>
</g>
<g>
</g>
<g>
</g>
<g>
</g>
<g>
</g>
<g>
</g>
<g>
</g>
<g>
</g>
<g>
</g>
<g>
</g>
<g>
</g>
<g>
</g>
<g>
</g>
</svg>
