<?xml version="1.0" encoding="iso-8859-1"?>
<!-- Generator: Adobe Illustrator 19.0.0, SVG Export Plug-In . SVG Version: 6.00 Build 0)  -->
<svg version="1.1" id="Capa_1" xmlns="http://www.w3.org/2000/svg" xmlns:xlink="http://www.w3.org/1999/xlink" x="0px" y="0px"
	 viewBox="0 0 510.211 510.211" style="enable-background:new 0 0 510.211 510.211;" xml:space="preserve">
<path style="fill:#CCF2FE;" d="M308.439,317.867V64c0-36.267-27.733-64-64-64s-64,27.733-64,64v253.867
	c-46.933,36.267-57.6,102.4-21.333,149.333s102.4,57.6,149.333,21.333s57.6-102.4,21.333-149.333
	C323.372,330.667,316.972,324.267,308.439,317.867z"/>
<g>
	<rect x="265.772" y="61.867" style="fill:#99E6FD;" width="85.333" height="42.667"/>
	<rect x="265.772" y="147.2" style="fill:#99E6FD;" width="85.333" height="42.667"/>
	<rect x="265.772" y="232.533" style="fill:#99E6FD;" width="85.333" height="42.667"/>
</g>
<linearGradient id="SVGID_1_" gradientUnits="userSpaceOnUse" x1="-51.2428" y1="627.4907" x2="-41.3238" y2="637.4107" gradientTransform="matrix(21.3333 0 0 -21.3333 1231.4082 13744.0225)">
	<stop  offset="0" style="stop-color:#34CDFA"/>
	<stop  offset="1" style="stop-color:#E8D9F1"/>
</linearGradient>
<path style="fill:url(#SVGID_1_);" d="M265.772,366.933V61.867h-42.667v305.067c-21.333,12.8-27.733,38.4-14.933,57.6
	c12.8,21.333,38.4,27.733,57.6,14.933c19.2-12.8,27.733-38.4,14.933-57.6C278.572,375.467,272.172,371.2,265.772,366.933z"/>
<circle style="fill:#99E6FD;" cx="52.439" cy="168.533" r="21.333"/>
<path style="fill:#34CDFA;" d="M116.439,339.2h-64c-12.8,0-21.333-8.533-21.333-21.333v-85.333c0-12.8,8.533-21.333,21.333-21.333
	h64v42.667H73.772v42.667h42.667V339.2z"/>
<circle style="fill:#99E6FD;" cx="415.106" cy="168.533" r="21.333"/>
<path style="fill:#34CDFA;" d="M479.106,253.867V211.2h-64c-12.8,0-21.333,8.533-21.333,21.333V339.2h42.667v-21.333h21.333V275.2
	h-21.333v-21.333H479.106z"/>
<g>
</g>
<g>
</g>
<g>
</g>
<g>
</g>
<g>
</g>
<g>
</g>
<g>
</g>
<g>
</g>
<g>
</g>
<g>
</g>
<g>
</g>
<g>
</g>
<g>
</g>
<g>
</g>
<g>
</g>
</svg>
