<?xml version="1.0" encoding="iso-8859-1"?>
<!-- Generator: Adobe Illustrator 19.0.0, SVG Export Plug-In . SVG Version: 6.00 Build 0)  -->
<svg version="1.1" id="Capa_1" xmlns="http://www.w3.org/2000/svg" xmlns:xlink="http://www.w3.org/1999/xlink" x="0px" y="0px"
	 viewBox="0 0 512 512" style="enable-background:new 0 0 512 512;" xml:space="preserve">
<g>
	<path style="fill:#CCF2FE;" d="M256,384c-47.851,0-85.333,28.117-85.333,64s37.483,64,85.333,64s85.333-28.117,85.333-64
		S303.851,384,256,384z M256,469.333c-26.048,0-42.667-12.629-42.667-21.333c0-8.704,16.619-21.333,42.667-21.333
		s42.667,12.629,42.667,21.333C298.667,456.704,282.048,469.333,256,469.333z"/>
	<path style="fill:#B3ECFD;" d="M256,277.333c-71.765,0-128,37.483-128,85.333S184.235,448,256,448s128-37.483,128-85.333
		S327.765,277.333,256,277.333z M256,405.333c-52.864,0-85.333-24.853-85.333-42.667C170.667,344.853,203.136,320,256,320
		s85.333,24.853,85.333,42.667C341.333,380.48,308.864,405.333,256,405.333z"/>
	<path style="fill:#99E6FD;" d="M256,149.333c-95.701,0-170.667,46.933-170.667,106.667S160.299,362.667,256,362.667
		S426.667,315.733,426.667,256S351.701,149.333,256,149.333z M256,320c-75.435,0-128-33.728-128-64s52.565-64,128-64
		s128,33.728,128,64S331.435,320,256,320z"/>
	
		<linearGradient id="SVGID_1_" gradientUnits="userSpaceOnUse" x1="-40.5558" y1="634.6317" x2="-28.8504" y2="646.3371" gradientTransform="matrix(21.3333 0 0 -21.3333 996.3334 13791.667)">
		<stop  offset="0" style="stop-color:#34CDFA"/>
		<stop  offset="1" style="stop-color:#E8D9F1"/>
	</linearGradient>
	<path style="fill:url(#SVGID_1_);" d="M256,0C136.384,0,42.667,56.235,42.667,128S136.384,256,256,256s213.333-56.235,213.333-128
		S375.616,0,256,0z"/>
	<ellipse style="fill:#FFFFFF;" cx="256" cy="128" rx="128" ry="64"/>
</g>
<g>
</g>
<g>
</g>
<g>
</g>
<g>
</g>
<g>
</g>
<g>
</g>
<g>
</g>
<g>
</g>
<g>
</g>
<g>
</g>
<g>
</g>
<g>
</g>
<g>
</g>
<g>
</g>
<g>
</g>
</svg>
