<?xml version="1.0" encoding="iso-8859-1"?>
<!-- Generator: Adobe Illustrator 19.0.0, SVG Export Plug-In . SVG Version: 6.00 Build 0)  -->
<svg version="1.1" id="Capa_1" xmlns="http://www.w3.org/2000/svg" xmlns:xlink="http://www.w3.org/1999/xlink" x="0px" y="0px"
	 viewBox="0 0 512 512" style="enable-background:new 0 0 512 512;" xml:space="preserve">
<path style="fill:#CCF2FE;" d="M384,128c-6.4,0-14.933,0-21.333,2.133V128c0-70.4-57.6-128-128-128s-128,57.6-128,128
	c0,2.133,0,4.267,0,6.4c-66.133,23.467-102.4,98.133-78.933,164.267C44.8,349.867,93.867,384,149.333,384H384
	c70.4,0,128-57.6,128-128S454.4,128,384,128z"/>
<path style="fill:#B3ECFD;" d="M405.333,341.333H170.667c-44.8,0-85.333-27.733-100.267-70.4c-10.667-27.733-8.533-57.6,4.267-83.2
	s34.133-44.8,59.733-53.333l17.067-6.4v-17.067c-2.133,0-2.133-2.133-2.133-4.267c0-55.467,44.8-102.4,98.133-106.667
	c-4.267,0-8.533,0-12.8,0c-70.4,0-128,57.6-128,128c0,2.133,0,4.267,0,6.4c-66.133,23.467-102.4,98.133-78.933,164.267
	C44.8,349.867,93.867,384,149.333,384H384c70.4,0,128-57.6,128-128c0-4.267,0-8.533,0-12.8
	C507.733,296.533,460.8,341.333,405.333,341.333z"/>
<linearGradient id="SVGID_1_" gradientUnits="userSpaceOnUse" x1="-44.0403" y1="629.8218" x2="-33.716" y2="640.1472" gradientTransform="matrix(21.3333 0 0 -21.3333 996.3334 13791.667)">
	<stop  offset="0" style="stop-color:#34CDFA"/>
	<stop  offset="1" style="stop-color:#E8D9F1"/>
</linearGradient>
<path style="fill:url(#SVGID_1_);" d="M234.667,128c-46.933,0-85.333,38.4-85.333,85.333H192c0-23.467,19.2-42.667,42.667-42.667
	s42.667,19.2,42.667,42.667S258.133,256,234.667,256H0v42.667h234.667c46.933,0,85.333-38.4,85.333-85.333S281.6,128,234.667,128z"
	/>
<linearGradient id="SVGID_2_" gradientUnits="userSpaceOnUse" x1="-34.542" y1="624.3216" x2="-27.2142" y2="631.6464" gradientTransform="matrix(21.3333 0 0 -21.3333 996.3334 13791.667)">
	<stop  offset="0" style="stop-color:#34CDFA"/>
	<stop  offset="1" style="stop-color:#E8D9F1"/>
</linearGradient>
<path style="fill:url(#SVGID_2_);" d="M405.333,341.333H170.667V384h234.667C428.8,384,448,403.2,448,426.667
	s-19.2,42.667-42.667,42.667s-42.667-19.2-42.667-42.667H320C320,473.6,358.4,512,405.333,512s85.333-38.4,85.333-85.333
	S452.267,341.333,405.333,341.333z"/>
<g>
	<rect x="42.667" y="426.667" style="fill:#34CDFA;" width="128" height="42.667"/>
	<rect x="426.667" y="42.667" style="fill:#34CDFA;" width="85.333" height="42.667"/>
	<rect x="213.333" y="426.667" style="fill:#34CDFA;" width="64" height="42.667"/>
</g>
<g>
</g>
<g>
</g>
<g>
</g>
<g>
</g>
<g>
</g>
<g>
</g>
<g>
</g>
<g>
</g>
<g>
</g>
<g>
</g>
<g>
</g>
<g>
</g>
<g>
</g>
<g>
</g>
<g>
</g>
</svg>
