<?xml version="1.0" encoding="iso-8859-1"?>
<!-- Generator: Adobe Illustrator 19.0.0, SVG Export Plug-In . SVG Version: 6.00 Build 0)  -->
<svg version="1.1" id="Capa_1" xmlns="http://www.w3.org/2000/svg" xmlns:xlink="http://www.w3.org/1999/xlink" x="0px" y="0px"
	 viewBox="0 0 511.999 511.999" style="enable-background:new 0 0 511.999 511.999;" xml:space="preserve">
<g>
	
		<linearGradient id="SVGID_1_" gradientUnits="userSpaceOnUse" x1="-42.9238" y1="626.2637" x2="-26.4835" y2="642.7039" gradientTransform="matrix(21.3333 0 0 -21.3333 996.344 13791.6553)">
		<stop  offset="0" style="stop-color:#34CDFA"/>
		<stop  offset="1" style="stop-color:#E8D9F1"/>
	</linearGradient>
	<path style="fill:url(#SVGID_1_);" d="M509.141,245.333l-28.587-49.515v-57.152c0-7.621-4.066-14.664-10.667-18.475l-49.493-28.565
		l-28.587-49.515c-3.811-6.6-10.853-10.666-18.475-10.667h-57.173L266.666,2.858c-6.601-3.811-14.733-3.811-21.333,0l-49.493,28.587
		h-57.173c-7.621,0-14.664,4.066-18.475,10.667L91.605,91.605l-49.493,28.587c-6.6,3.811-10.666,10.853-10.667,18.475v57.152
		L2.858,245.333c-3.811,6.601-3.811,14.733,0,21.333l28.587,49.515v57.152c0,7.621,4.066,14.664,10.667,18.475l49.493,28.565
		l28.587,49.515c3.811,6.6,10.853,10.666,18.475,10.667h57.173l49.493,28.587c6.601,3.811,14.733,3.811,21.333,0l49.493-28.587
		h57.173c7.621,0,14.664-4.066,18.475-10.667l28.587-49.515l49.493-28.565c6.6-3.811,10.666-10.853,10.667-18.475v-57.152
		l28.587-49.515C512.952,260.066,512.952,251.933,509.141,245.333z"/>
	<circle style="fill:#CCF2FE;" cx="255.999" cy="255.999" r="170.667"/>
</g>
<g>
</g>
<g>
</g>
<g>
</g>
<g>
</g>
<g>
</g>
<g>
</g>
<g>
</g>
<g>
</g>
<g>
</g>
<g>
</g>
<g>
</g>
<g>
</g>
<g>
</g>
<g>
</g>
<g>
</g>
</svg>
