<?xml version="1.0" encoding="iso-8859-1"?>
<!-- Generator: Adobe Illustrator 19.0.0, SVG Export Plug-In . SVG Version: 6.00 Build 0)  -->
<svg version="1.1" id="Capa_1" xmlns="http://www.w3.org/2000/svg" xmlns:xlink="http://www.w3.org/1999/xlink" x="0px" y="0px"
	 viewBox="0 0 509.237 509.237" style="enable-background:new 0 0 509.237 509.237;" xml:space="preserve">
<path style="fill:#CCF2FE;" d="M336.218,9.6c-10.667-4.267-23.467,2.133-27.733,14.933c-2.133,6.4-2.133,10.667,2.133,17.067
	c57.6,102.4,21.333,232.533-81.067,290.133C176.218,361.6,112.218,368,54.618,346.667C43.952,342.4,31.152,348.8,26.885,361.6
	c-2.133,6.4-2.133,10.667,2.133,17.067C97.285,502.4,255.152,545.067,376.752,476.8s166.4-226.133,98.133-347.733
	C445.018,71.467,395.952,28.8,336.218,9.6z"/>
<path style="fill:#B3ECFD;" d="M253.018,464c-87.467,0-166.4-44.8-213.333-117.333c-10.667,6.4-14.933,19.2-8.533,27.733l0,0
	c70.4,123.733,226.133,166.4,347.733,98.133c81.067-44.8,130.133-130.133,130.133-221.867c0-8.533,0-14.933,0-21.333
	C496.218,361.6,387.418,464,253.018,464z"/>
<linearGradient id="SVGID_1_" gradientUnits="userSpaceOnUse" x1="-48.3446" y1="628.2892" x2="-44.6386" y2="631.9992" gradientTransform="matrix(21.3333 0 0 -21.3333 1056.9598 13672.5557)">
	<stop  offset="0" style="stop-color:#34CDFA"/>
	<stop  offset="1" style="stop-color:#E8D9F1"/>
</linearGradient>
<path style="fill:url(#SVGID_1_);" d="M127.152,233.6c-29.867,12.8-51.2,38.4-57.6,70.4c0,4.267-6.4,4.267-8.533,0
	c-6.4-32-27.733-57.6-57.6-70.4c-4.267-2.133-4.267-6.4,0-8.533c29.867-12.8,51.2-38.4,57.6-70.4c0-4.267,6.4-4.267,8.533,0
	c6.4,32,27.733,57.6,57.6,70.4C131.418,227.2,131.418,231.467,127.152,233.6z"/>
<linearGradient id="SVGID_2_" gradientUnits="userSpaceOnUse" x1="-41.5318" y1="635.454" x2="-37.8238" y2="639.162" gradientTransform="matrix(21.3333 0 0 -21.3333 1056.9598 13672.5557)">
	<stop  offset="0" style="stop-color:#34CDFA"/>
	<stop  offset="1" style="stop-color:#E8D9F1"/>
</linearGradient>
<path style="fill:url(#SVGID_2_);" d="M272.218,80c-29.867,12.8-51.2,38.4-57.6,70.4c0,4.267-6.4,4.267-8.533,0
	c-6.4-32-27.733-57.6-57.6-70.4c-4.267,0-4.267-6.4,0-6.4c29.867-12.8,51.2-38.4,57.6-70.4c0-4.267,6.4-4.267,8.533,0
	c6.4,32,27.733,57.6,57.6,70.4C276.485,73.6,276.485,80,272.218,80z"/>
<g>
</g>
<g>
</g>
<g>
</g>
<g>
</g>
<g>
</g>
<g>
</g>
<g>
</g>
<g>
</g>
<g>
</g>
<g>
</g>
<g>
</g>
<g>
</g>
<g>
</g>
<g>
</g>
<g>
</g>
</svg>
