<?xml version="1.0" encoding="iso-8859-1"?>
<!-- Generator: Adobe Illustrator 19.0.0, SVG Export Plug-In . SVG Version: 6.00 Build 0)  -->
<svg version="1.1" id="Capa_1" xmlns="http://www.w3.org/2000/svg" xmlns:xlink="http://www.w3.org/1999/xlink" x="0px" y="0px"
	 viewBox="0 0 512 512" style="enable-background:new 0 0 512 512;" xml:space="preserve">
<g>
	
		<linearGradient id="SVGID_1_" gradientUnits="userSpaceOnUse" x1="-36.8244" y1="632.363" x2="-32.5818" y2="636.6057" gradientTransform="matrix(21.3333 0 0 -21.3333 996.3332 13791.667)">
		<stop  offset="0" style="stop-color:#34CDFA"/>
		<stop  offset="1" style="stop-color:#E8D9F1"/>
	</linearGradient>
	<circle style="fill:url(#SVGID_1_);" cx="256" cy="256" r="64"/>
	<path style="fill:#CCF2FE;" d="M481.771,298.773l-58.709,29.035l-29.483-17.067l33.216-16.427l-18.923-38.251l-58.709,29.035
		l-11.264-6.4c4.583-14.749,4.583-30.542,0-45.291l11.264-6.4l58.709,29.035l18.923-38.251l-33.216-16.427l29.483-17.067
		l58.709,29.035l18.923-38.4l-33.216-16.427l20.885-12.053l-21.333-36.949l-20.885,12.053l2.389-36.971l-42.667-2.752L401.6,147.2
		l-29.483,17.067l2.389-36.971l-42.667-2.752l-4.267,65.365l-11.029,6.4c-10.792-10.936-24.34-18.75-39.211-22.613v-12.949
		l54.507-36.267l-23.68-35.563l-30.827,20.565V75.349l54.507-36.267L308.16,3.584l-30.827,20.565V0h-42.667v24.149L203.84,3.584
		l-23.68,35.499l54.507,36.331v34.133L203.84,88.917l-23.68,35.499l54.507,36.331v12.949c-14.95,3.812-28.584,11.613-39.445,22.571
		l-11.029-6.4l-4.267-65.365l-42.667,2.752l2.496,37.013L110.293,147.2l-4.267-65.365L63.36,84.587l2.517,37.013l-20.907-12.075
		l-21.333,36.949l20.907,12.075l-33.237,16.384l18.923,38.251l58.709-28.992l29.483,17.067l-33.216,16.427l18.923,38.251
		l58.731-29.035l11.264,6.4c-4.583,14.749-4.583,30.542,0,45.291l-11.264,6.4l-58.731-28.885L85.205,294.4l33.216,16.427
		l-29.483,17.067l-58.709-29.12l-18.923,38.293l33.216,16.427l-20.907,12.075l21.333,36.949l20.907-12.075l-2.389,36.971
		l42.667,2.752L110.4,364.8l29.483-17.067l-2.389,36.971l42.667,2.752l4.267-65.365l11.029-6.4
		c10.791,10.937,24.34,18.751,39.211,22.613v12.949L180.16,387.52l23.659,35.499l30.848-20.501v34.133l-54.507,36.267l23.659,35.499
		l30.848-20.565V512h42.667v-24.149l30.827,20.565l23.659-35.499l-54.485-36.331v-34.133l30.827,20.565l23.659-35.499
		l-54.485-36.267v-12.949c14.95-3.813,28.583-11.614,39.445-22.571l11.029,6.4l4.267,65.365l42.667-2.752l-2.517-37.013
		l29.483,17.067l4.267,65.365l42.667-2.752l-2.496-37.013l20.885,12.053l21.333-36.949l-20.885-12.053l33.216-16.427
		L481.771,298.773z M256,298.667c-23.564,0-42.667-19.103-42.667-42.667s19.103-42.667,42.667-42.667
		c23.564,0,42.667,19.103,42.667,42.667S279.564,298.667,256,298.667z"/>
</g>
<g>
</g>
<g>
</g>
<g>
</g>
<g>
</g>
<g>
</g>
<g>
</g>
<g>
</g>
<g>
</g>
<g>
</g>
<g>
</g>
<g>
</g>
<g>
</g>
<g>
</g>
<g>
</g>
<g>
</g>
</svg>
