<?xml version="1.0" encoding="iso-8859-1"?>
<!-- Generator: Adobe Illustrator 19.0.0, SVG Export Plug-In . SVG Version: 6.00 Build 0)  -->
<svg version="1.1" id="Capa_1" xmlns="http://www.w3.org/2000/svg" xmlns:xlink="http://www.w3.org/1999/xlink" x="0px" y="0px"
	 viewBox="0 0 511.646 511.646" style="enable-background:new 0 0 511.646 511.646;" xml:space="preserve">
<path style="fill:#CCF2FE;" d="M362.474,84.98c-8.533,0-14.933,0-23.467,2.133c-10.667-57.6-66.133-96-123.733-85.333
	c-44.8,8.533-78.933,42.667-85.333,85.333c-57.6,10.667-96,66.133-85.333,123.733c8.533,51.2,53.333,87.467,104.533,87.467h213.333
	c59.733,0,106.667-46.933,106.667-106.667S422.207,84.98,362.474,84.98z"/>
<path style="fill:#B3ECFD;" d="M383.807,255.646H170.474c-51.2,0-96-36.267-104.533-87.467c-2.133-14.933-2.133-29.867,0-42.667
	c-19.2,23.467-27.733,53.333-21.333,85.333c8.533,51.2,53.333,87.467,104.533,87.467h213.333c51.2,0,91.733-34.133,104.533-83.2
	C445.674,240.713,417.94,255.646,383.807,255.646z"/>
<path style="fill:#34CDFA;" d="M362.474,468.98c0-23.467,42.667-64,42.667-64s42.667,40.533,42.667,64s-19.2,42.667-42.667,42.667
	S362.474,492.446,362.474,468.98z"/>
<linearGradient id="SVGID_1_" gradientUnits="userSpaceOnUse" x1="-36.3529" y1="625.7624" x2="-33.4393" y2="628.6761" gradientTransform="matrix(21.3333 0 0 -21.3333 1000.2573 13783.7656)">
	<stop  offset="0" style="stop-color:#34CDFA"/>
	<stop  offset="1" style="stop-color:#E8D9F1"/>
</linearGradient>
<path style="fill:url(#SVGID_1_);" d="M213.14,404.98c0-23.467,42.667-64,42.667-64s42.667,40.533,42.667,64
	s-19.2,42.667-42.667,42.667S213.14,428.446,213.14,404.98z"/>
<path style="fill:#34CDFA;" d="M63.807,468.98c0-23.467,42.667-64,42.667-64s42.667,40.533,42.667,64s-19.2,42.667-42.667,42.667
	S63.807,492.446,63.807,468.98z"/>
<g>
</g>
<g>
</g>
<g>
</g>
<g>
</g>
<g>
</g>
<g>
</g>
<g>
</g>
<g>
</g>
<g>
</g>
<g>
</g>
<g>
</g>
<g>
</g>
<g>
</g>
<g>
</g>
<g>
</g>
</svg>
