<?xml version="1.0" encoding="iso-8859-1"?>
<!-- Generator: Adobe Illustrator 19.0.0, SVG Export Plug-In . SVG Version: 6.00 Build 0)  -->
<svg version="1.1" id="Capa_1" xmlns="http://www.w3.org/2000/svg" xmlns:xlink="http://www.w3.org/1999/xlink" x="0px" y="0px"
	 viewBox="0 0 512 512" style="enable-background:new 0 0 512 512;" xml:space="preserve">
<path style="fill:#CCF2FE;" d="M373.713,128c-6.4,0-14.933,0-21.333,2.133V128c0-70.4-57.6-128-128-128s-128,57.6-128,128v6.4
	c-66.133,23.467-102.4,98.133-78.933,164.267C34.513,349.867,83.58,384,139.046,384h234.667c70.4,0,128-57.6,128-128
	S444.113,128,373.713,128z"/>
<path style="fill:#B3ECFD;" d="M395.046,341.333H160.38c-44.8,0-85.333-27.733-100.267-70.4c-10.667-27.733-8.533-57.6,4.267-83.2
	s34.133-44.8,59.733-53.333l17.067-6.4c0,0-2.133-19.2-2.133-21.333c0-55.467,44.8-102.4,98.133-106.667c-4.267,0-8.533,0-12.8,0
	c-70.4,0-128,57.6-128,128v6.4c-66.133,23.467-102.4,98.133-78.933,164.267C34.513,349.867,83.58,384,139.046,384h234.667
	c70.4,0,128-57.6,128-128c0-4.267,0-8.533,0-12.8C497.446,296.533,450.513,341.333,395.046,341.333z"/>
<linearGradient id="SVGID_1_" gradientUnits="userSpaceOnUse" x1="-48.9902" y1="632.4844" x2="-42.9902" y2="638.4844" gradientTransform="matrix(21.3333 0 0 -21.3333 1205.504 13791.667)">
	<stop  offset="0" style="stop-color:#34CDFA"/>
	<stop  offset="1" style="stop-color:#E8D9F1"/>
</linearGradient>
<path style="fill:url(#SVGID_1_);" d="M309.713,213.333H275.58l27.733-27.733l-29.867-29.867l-27.733,27.733v-34.133h-42.667v34.133
	l-27.733-27.733L145.446,185.6l27.733,27.733h-34.133V256h34.133l-27.733,27.733l29.867,29.867l27.733-27.733V320h42.667v-34.133
	l27.733,27.733l29.867-29.867L275.58,256h34.133V213.333z"/>
<g>
	<path style="fill:#34CDFA;" d="M331.046,405.333h42.667V448h-42.667V405.333z"/>
	<path style="fill:#34CDFA;" d="M331.046,469.333h42.667V512h-42.667V469.333z"/>
	<path style="fill:#34CDFA;" d="M224.38,405.333h42.667V448H224.38V405.333z"/>
	<path style="fill:#34CDFA;" d="M224.38,469.333h42.667V512H224.38V469.333z"/>
	<rect x="117.713" y="405.333" style="fill:#34CDFA;" width="42.667" height="42.667"/>
	<rect x="117.713" y="469.333" style="fill:#34CDFA;" width="42.667" height="42.667"/>
</g>
<g>
</g>
<g>
</g>
<g>
</g>
<g>
</g>
<g>
</g>
<g>
</g>
<g>
</g>
<g>
</g>
<g>
</g>
<g>
</g>
<g>
</g>
<g>
</g>
<g>
</g>
<g>
</g>
<g>
</g>
</svg>
