<?xml version="1.0" encoding="iso-8859-1"?>
<!-- Generator: Adobe Illustrator 19.0.0, SVG Export Plug-In . SVG Version: 6.00 Build 0)  -->
<svg version="1.1" id="Capa_1" xmlns="http://www.w3.org/2000/svg" xmlns:xlink="http://www.w3.org/1999/xlink" x="0px" y="0px"
	 viewBox="0 0 512.438 512.438" style="enable-background:new 0 0 512.438 512.438;" xml:space="preserve">
<path style="fill:#CCF2FE;" d="M373.932,128.561c-6.4,0-14.933,0-21.333,2.133v-2.133c0-70.4-57.6-128-128-128s-128,57.6-128,128
	c0,2.133,0,4.267,0,6.4c-66.133,23.467-102.4,98.133-78.933,164.267c17.067,51.2,66.133,85.333,121.6,85.333h234.667
	c70.4,0,128-57.6,128-128S444.332,128.561,373.932,128.561z"/>
<path style="fill:#B3ECFD;" d="M395.265,341.894H160.599c-59.733,0-106.667-46.933-106.667-106.667
	c0-44.8,27.733-85.333,70.4-100.267l17.067-6.4v-17.067c-2.133,0-2.133-2.133-2.133-4.267c0-55.467,42.667-102.4,98.133-106.667
	c-68.267-6.4-132.267,42.667-140.8,113.067c0,6.4,0,10.667,0,14.933c0,2.133,0,4.267,0,6.4
	c-66.133,23.467-102.4,98.133-78.933,164.267c17.067,51.2,66.133,85.333,121.6,85.333h234.667c70.4,0,128-57.6,128-128
	c0-4.267,0-8.533,0-14.933C497.665,299.227,450.732,341.894,395.265,341.894z"/>
<linearGradient id="SVGID_1_" gradientUnits="userSpaceOnUse" x1="-52.4629" y1="625.3658" x2="-41.0899" y2="636.7388" gradientTransform="matrix(21.3333 0 0 -21.3333 1201.0466 13804.1865)">
	<stop  offset="0" style="stop-color:#34CDFA"/>
	<stop  offset="1" style="stop-color:#E8D9F1"/>
</linearGradient>
<path style="fill:url(#SVGID_1_);" d="M350.465,335.494c-2.133-8.533-10.667-14.933-19.2-14.933h-32l32-76.8
	c4.267-12.8-4.267-29.867-19.2-29.867H181.932c-8.533,0-17.067,4.267-19.2,12.8l-42.667,106.667
	c-6.4,14.933,4.267,29.867,19.2,29.867h32l-51.2,119.467c-8.533,19.2,14.933,38.4,32,25.6l192-149.333
	C352.599,352.561,354.732,344.027,350.465,335.494z"/>
<g>
</g>
<g>
</g>
<g>
</g>
<g>
</g>
<g>
</g>
<g>
</g>
<g>
</g>
<g>
</g>
<g>
</g>
<g>
</g>
<g>
</g>
<g>
</g>
<g>
</g>
<g>
</g>
<g>
</g>
</svg>
