<?xml version="1.0" encoding="iso-8859-1"?>
<!-- Generator: Adobe Illustrator 19.0.0, SVG Export Plug-In . SVG Version: 6.00 Build 0)  -->
<svg version="1.1" id="Capa_1" xmlns="http://www.w3.org/2000/svg" xmlns:xlink="http://www.w3.org/1999/xlink" x="0px" y="0px"
	 viewBox="0 0 512 512" style="enable-background:new 0 0 512 512;" xml:space="preserve">
<path style="fill:#CCF2FE;" d="M373.713,128c-6.4,0-14.933,0-21.333,2.133V128c0-70.4-57.6-128-128-128s-128,57.6-128,128
	c0,2.133,0,4.267,0,6.4c-66.133,23.467-102.4,98.133-78.933,164.267C34.513,349.867,83.58,384,139.046,384h234.667
	c70.4,0,128-57.6,128-128S444.113,128,373.713,128z"/>
<path style="fill:#B3ECFD;" d="M395.046,341.333H160.38c-44.8,0-85.333-27.733-100.267-70.4c-10.667-27.733-8.533-57.6,4.267-83.2
	s34.133-44.8,59.733-55.467L141.18,128l-2.133-14.933c0-2.133,0-4.267,0-6.4c0-55.467,44.8-102.4,98.133-106.667
	c-4.267,0-8.533,0-12.8,0c-70.4,0-128,57.6-128,128c0,2.133,0,4.267,0,6.4c-66.133,23.467-102.4,98.133-78.933,164.267
	C34.513,349.867,83.58,384,139.046,384h234.667c70.4,0,128-57.6,128-128c0-4.267,0-8.533,0-12.8
	C497.446,296.533,450.513,341.333,395.046,341.333z"/>
<linearGradient id="SVGID_1_" gradientUnits="userSpaceOnUse" x1="-40.9902" y1="622.4844" x2="-38.9902" y2="624.4844" gradientTransform="matrix(21.3333 0 0 -21.3333 1205.504 13791.667)">
	<stop  offset="0" style="stop-color:#34CDFA"/>
	<stop  offset="1" style="stop-color:#E8D9F1"/>
</linearGradient>
<rect x="331.046" y="469.333" style="fill:url(#SVGID_1_);" width="42.667" height="42.667"/>
<linearGradient id="SVGID_2_" gradientUnits="userSpaceOnUse" x1="-40.9902" y1="626.4844" x2="-38.9902" y2="628.4844" gradientTransform="matrix(21.3333 0 0 -21.3333 1205.504 13791.667)">
	<stop  offset="0" style="stop-color:#34CDFA"/>
	<stop  offset="1" style="stop-color:#E8D9F1"/>
</linearGradient>
<rect x="331.046" y="384" style="fill:url(#SVGID_2_);" width="42.667" height="42.667"/>
<linearGradient id="SVGID_3_" gradientUnits="userSpaceOnUse" x1="-40.9902" y1="630.4844" x2="-38.9902" y2="632.4844" gradientTransform="matrix(21.3333 0 0 -21.3333 1205.504 13791.667)">
	<stop  offset="0" style="stop-color:#34CDFA"/>
	<stop  offset="1" style="stop-color:#E8D9F1"/>
</linearGradient>
<rect x="331.046" y="298.667" style="fill:url(#SVGID_3_);" width="42.667" height="42.667"/>
<linearGradient id="SVGID_4_" gradientUnits="userSpaceOnUse" x1="-40.9902" y1="634.4844" x2="-38.9902" y2="636.4844" gradientTransform="matrix(21.3333 0 0 -21.3333 1205.504 13791.667)">
	<stop  offset="0" style="stop-color:#34CDFA"/>
	<stop  offset="1" style="stop-color:#E8D9F1"/>
</linearGradient>
<rect x="331.046" y="213.333" style="fill:url(#SVGID_4_);" width="42.667" height="42.667"/>
<linearGradient id="SVGID_5_" gradientUnits="userSpaceOnUse" x1="-45.9902" y1="622.4844" x2="-43.9902" y2="624.4844" gradientTransform="matrix(21.3333 0 0 -21.3333 1205.504 13791.667)">
	<stop  offset="0" style="stop-color:#34CDFA"/>
	<stop  offset="1" style="stop-color:#E8D9F1"/>
</linearGradient>
<rect x="224.38" y="469.333" style="fill:url(#SVGID_5_);" width="42.667" height="42.667"/>
<linearGradient id="SVGID_6_" gradientUnits="userSpaceOnUse" x1="-45.9902" y1="626.4844" x2="-43.9902" y2="628.4844" gradientTransform="matrix(21.3333 0 0 -21.3333 1205.504 13791.667)">
	<stop  offset="0" style="stop-color:#34CDFA"/>
	<stop  offset="1" style="stop-color:#E8D9F1"/>
</linearGradient>
<rect x="224.38" y="384" style="fill:url(#SVGID_6_);" width="42.667" height="42.667"/>
<linearGradient id="SVGID_7_" gradientUnits="userSpaceOnUse" x1="-45.9902" y1="630.4844" x2="-43.9902" y2="632.4844" gradientTransform="matrix(21.3333 0 0 -21.3333 1205.504 13791.667)">
	<stop  offset="0" style="stop-color:#34CDFA"/>
	<stop  offset="1" style="stop-color:#E8D9F1"/>
</linearGradient>
<rect x="224.38" y="298.667" style="fill:url(#SVGID_7_);" width="42.667" height="42.667"/>
<linearGradient id="SVGID_8_" gradientUnits="userSpaceOnUse" x1="-45.9902" y1="634.4844" x2="-43.9902" y2="636.4844" gradientTransform="matrix(21.3333 0 0 -21.3333 1205.504 13791.667)">
	<stop  offset="0" style="stop-color:#34CDFA"/>
	<stop  offset="1" style="stop-color:#E8D9F1"/>
</linearGradient>
<rect x="224.38" y="213.333" style="fill:url(#SVGID_8_);" width="42.667" height="42.667"/>
<linearGradient id="SVGID_9_" gradientUnits="userSpaceOnUse" x1="-50.9902" y1="622.4844" x2="-48.9902" y2="624.4844" gradientTransform="matrix(21.3333 0 0 -21.3333 1205.504 13791.667)">
	<stop  offset="0" style="stop-color:#34CDFA"/>
	<stop  offset="1" style="stop-color:#E8D9F1"/>
</linearGradient>
<rect x="117.713" y="469.333" style="fill:url(#SVGID_9_);" width="42.667" height="42.667"/>
<linearGradient id="SVGID_10_" gradientUnits="userSpaceOnUse" x1="-50.9902" y1="626.4844" x2="-48.9902" y2="628.4844" gradientTransform="matrix(21.3333 0 0 -21.3333 1205.504 13791.667)">
	<stop  offset="0" style="stop-color:#34CDFA"/>
	<stop  offset="1" style="stop-color:#E8D9F1"/>
</linearGradient>
<rect x="117.713" y="384" style="fill:url(#SVGID_10_);" width="42.667" height="42.667"/>
<linearGradient id="SVGID_11_" gradientUnits="userSpaceOnUse" x1="-50.9902" y1="630.4844" x2="-48.9902" y2="632.4844" gradientTransform="matrix(21.3333 0 0 -21.3333 1205.504 13791.667)">
	<stop  offset="0" style="stop-color:#34CDFA"/>
	<stop  offset="1" style="stop-color:#E8D9F1"/>
</linearGradient>
<rect x="117.713" y="298.667" style="fill:url(#SVGID_11_);" width="42.667" height="42.667"/>
<linearGradient id="SVGID_12_" gradientUnits="userSpaceOnUse" x1="-50.9902" y1="634.4844" x2="-48.9902" y2="636.4844" gradientTransform="matrix(21.3333 0 0 -21.3333 1205.504 13791.667)">
	<stop  offset="0" style="stop-color:#34CDFA"/>
	<stop  offset="1" style="stop-color:#E8D9F1"/>
</linearGradient>
<rect x="117.713" y="213.333" style="fill:url(#SVGID_12_);" width="42.667" height="42.667"/>
<g>
</g>
<g>
</g>
<g>
</g>
<g>
</g>
<g>
</g>
<g>
</g>
<g>
</g>
<g>
</g>
<g>
</g>
<g>
</g>
<g>
</g>
<g>
</g>
<g>
</g>
<g>
</g>
<g>
</g>
</svg>
