<?xml version="1.0" encoding="iso-8859-1"?>
<!-- Generator: Adobe Illustrator 19.0.0, SVG Export Plug-In . SVG Version: 6.00 Build 0)  -->
<svg version="1.1" id="Capa_1" xmlns="http://www.w3.org/2000/svg" xmlns:xlink="http://www.w3.org/1999/xlink" x="0px" y="0px"
	 viewBox="0 0 512 512" style="enable-background:new 0 0 512 512;" xml:space="preserve">
<path style="fill:#CCF2FE;" d="M373.713,128c-6.4,0-14.933,0-21.333,2.133V128c0-70.4-57.6-128-128-128s-128,57.6-128,128
	c0,2.133,0,4.267,0,6.4c-66.133,23.467-102.4,98.133-78.933,164.267C34.513,349.867,83.58,384,139.046,384h234.667
	c70.4,0,128-57.6,128-128S444.113,128,373.713,128z"/>
<path style="fill:#B3ECFD;" d="M395.046,341.333H160.38c-44.8,0-85.333-27.733-100.267-70.4c-10.667-27.733-8.533-57.6,4.267-83.2
	s34.133-44.8,59.733-53.333l17.067-6.4v-17.067c-2.133,0-2.133-2.133-2.133-4.267c0-55.467,44.8-102.4,98.133-106.667
	c-4.267,0-8.533,0-12.8,0c-70.4,0-128,57.6-128,128c0,2.133,0,4.267,0,6.4c-66.133,23.467-102.4,98.133-78.933,164.267
	C34.513,349.867,83.58,384,139.046,384h234.667c70.4,0,128-57.6,128-128c0-4.267,0-8.533,0-12.8
	C497.446,296.533,450.513,341.333,395.046,341.333z"/>
<linearGradient id="SVGID_1_" gradientUnits="userSpaceOnUse" x1="-45.6973" y1="634.7773" x2="-44.2831" y2="636.1915" gradientTransform="matrix(21.3333 0 0 -21.3333 1205.504 13791.667)">
	<stop  offset="0" style="stop-color:#34CDFA"/>
	<stop  offset="1" style="stop-color:#E8D9F1"/>
</linearGradient>
<circle style="fill:url(#SVGID_1_);" cx="245.713" cy="234.667" r="21.333"/>
<linearGradient id="SVGID_2_" gradientUnits="userSpaceOnUse" x1="-42.9902" y1="634.4844" x2="-40.9902" y2="636.4844" gradientTransform="matrix(21.3333 0 0 -21.3333 1205.504 13791.667)">
	<stop  offset="0" style="stop-color:#34CDFA"/>
	<stop  offset="1" style="stop-color:#E8D9F1"/>
</linearGradient>
<rect x="288.38" y="213.333" style="fill:url(#SVGID_2_);" width="42.667" height="42.667"/>
<linearGradient id="SVGID_3_" gradientUnits="userSpaceOnUse" x1="-45.9902" y1="631.4844" x2="-43.9902" y2="633.4844" gradientTransform="matrix(21.3333 0 0 -21.3333 1205.504 13791.667)">
	<stop  offset="0" style="stop-color:#34CDFA"/>
	<stop  offset="1" style="stop-color:#E8D9F1"/>
</linearGradient>
<rect x="224.38" y="277.333" style="fill:url(#SVGID_3_);" width="42.667" height="42.667"/>
<linearGradient id="SVGID_4_" gradientUnits="userSpaceOnUse" x1="-48.9902" y1="634.4844" x2="-46.9902" y2="636.4844" gradientTransform="matrix(21.3333 0 0 -21.3333 1205.504 13791.667)">
	<stop  offset="0" style="stop-color:#34CDFA"/>
	<stop  offset="1" style="stop-color:#E8D9F1"/>
</linearGradient>
<rect x="160.38" y="213.333" style="fill:url(#SVGID_4_);" width="42.667" height="42.667"/>
<linearGradient id="SVGID_5_" gradientUnits="userSpaceOnUse" x1="-45.9902" y1="637.4844" x2="-43.9902" y2="639.4844" gradientTransform="matrix(21.3333 0 0 -21.3333 1205.504 13791.667)">
	<stop  offset="0" style="stop-color:#34CDFA"/>
	<stop  offset="1" style="stop-color:#E8D9F1"/>
</linearGradient>
<rect x="224.38" y="149.333" style="fill:url(#SVGID_5_);" width="42.667" height="42.667"/>
<g>
	<circle style="fill:#34CDFA;" cx="373.713" cy="426.667" r="21.333"/>
	<rect x="416.38" y="405.333" style="fill:#34CDFA;" width="42.667" height="42.667"/>
	<rect x="352.38" y="469.333" style="fill:#34CDFA;" width="42.667" height="42.667"/>
	<rect x="288.38" y="405.333" style="fill:#34CDFA;" width="42.667" height="42.667"/>
	<rect x="352.38" y="341.333" style="fill:#34CDFA;" width="42.667" height="42.667"/>
	<circle style="fill:#34CDFA;" cx="139.046" cy="426.667" r="21.333"/>
	<rect x="181.713" y="405.333" style="fill:#34CDFA;" width="42.667" height="42.667"/>
	<rect x="117.713" y="469.333" style="fill:#34CDFA;" width="42.667" height="42.667"/>
	<rect x="53.713" y="405.333" style="fill:#34CDFA;" width="42.667" height="42.667"/>
	<rect x="117.713" y="341.333" style="fill:#34CDFA;" width="42.667" height="42.667"/>
</g>
<g>
</g>
<g>
</g>
<g>
</g>
<g>
</g>
<g>
</g>
<g>
</g>
<g>
</g>
<g>
</g>
<g>
</g>
<g>
</g>
<g>
</g>
<g>
</g>
<g>
</g>
<g>
</g>
<g>
</g>
</svg>
