<?xml version="1.0" encoding="iso-8859-1"?>
<!-- Generator: Adobe Illustrator 19.0.0, SVG Export Plug-In . SVG Version: 6.00 Build 0)  -->
<svg version="1.1" id="Capa_1" xmlns="http://www.w3.org/2000/svg" xmlns:xlink="http://www.w3.org/1999/xlink" x="0px" y="0px"
	 viewBox="0 0 510.933 510.933" style="enable-background:new 0 0 510.933 510.933;" xml:space="preserve">
<linearGradient id="SVGID_1_" gradientUnits="userSpaceOnUse" x1="-43.6218" y1="625.1996" x2="-27.1818" y2="641.6396" gradientTransform="matrix(21.3333 0 0 -21.3333 1010.5798 13767.8447)">
	<stop  offset="0" style="stop-color:#34CDFA"/>
	<stop  offset="1" style="stop-color:#E8D9F1"/>
</linearGradient>
<path style="fill:url(#SVGID_1_);" d="M509.166,244.267L481.433,195.2v-57.6c0-8.533-4.267-14.933-10.667-19.2l-49.067-27.733
	L391.833,41.6c-4.267-6.4-10.667-10.667-19.2-10.667h-57.6L265.966,3.2c-6.4-4.267-14.933-4.267-21.333,0l-49.067,27.733h-57.6
	c-8.533,0-14.933,4.267-19.2,10.667L91.033,90.667L41.966,118.4c-6.4,4.267-10.667,10.667-10.667,19.2v57.6L3.566,244.267
	c-4.267,6.4-4.267,14.933,0,21.333l27.733,49.067v57.6c0,8.533,4.267,14.933,10.667,19.2L91.033,419.2l27.733,49.067
	c4.267,6.4,10.667,10.667,19.2,10.667h57.6l49.067,27.733c6.4,4.267,14.933,4.267,21.333,0l49.067-27.733h57.6
	c8.533,0,14.933-4.267,19.2-10.667l27.733-49.067l49.067-27.733c6.4-4.267,10.667-10.667,10.667-19.2v-57.6l27.733-49.067
	C511.299,259.2,511.299,250.667,509.166,244.267z"/>
<circle style="fill:#CCF2FE;" cx="255.299" cy="254.933" r="170.667"/>
<path style="fill:#99E6FD;" d="M321.433,297.6c-8.533,0-14.933,0-23.467,2.133c-10.667-57.6-66.133-96-123.733-85.333
	c-44.8,8.533-78.933,42.667-85.333,85.333c-57.6,10.667-96,66.133-85.333,123.733c8.533,51.2,53.333,87.467,104.533,87.467h213.333
	c59.733,0,106.667-46.933,106.667-106.667S381.166,297.6,321.433,297.6z"/>
<path style="fill:#80DFFC;" d="M342.766,468.267H129.433c-51.2,0-96-36.267-104.533-87.467c-2.133-14.933-2.133-29.867,2.133-44.8
	c-19.2,23.467-27.733,55.467-23.467,87.467c8.533,51.2,53.333,87.467,104.533,87.467h213.333c51.2,0,91.733-34.133,104.533-83.2
	C404.633,453.333,376.899,468.267,342.766,468.267z"/>
<g>
</g>
<g>
</g>
<g>
</g>
<g>
</g>
<g>
</g>
<g>
</g>
<g>
</g>
<g>
</g>
<g>
</g>
<g>
</g>
<g>
</g>
<g>
</g>
<g>
</g>
<g>
</g>
<g>
</g>
</svg>
