<svg id="Layer_1" enable-background="new 0 0 512 512" height="512" viewBox="0 0 512 512" width="512" xmlns="http://www.w3.org/2000/svg"><g><path d="m336 36v44c0 8.84-7.16 16-16 16h-128c-8.84 0-16-7.16-16-16v-44c0-19.85 16.15-36 36-36h88c19.85 0 36 16.15 36 36z" fill="#f3d4b7"/><path d="m336 36v44c0 8.84-7.16 16-16 16h-32c8.84 0 16-7.16 16-16v-44c0-19.85-16.15-36-36-36h32c19.85 0 36 16.15 36 36z" fill="#e1c3a7"/><path d="m400 110v356c0 25.36-20.64 46-46 46h-196c-25.36 0-46-20.64-46-46v-356c0-25.36 20.64-46 46-46h196c25.36 0 46 20.64 46 46z" fill="#f8e9d2"/><g fill="#acebe2"><path d="m320 456h-128c-8.837 0-16-7.164-16-16s7.163-16 16-16h128c8.837 0 16 7.164 16 16s-7.163 16-16 16z"/><path d="m320 392h-128c-8.837 0-16-7.164-16-16s7.163-16 16-16h128c8.837 0 16 7.164 16 16s-7.163 16-16 16z"/><path d="m320 328h-128c-8.837 0-16-7.164-16-16s7.163-16 16-16h128c8.837 0 16 7.164 16 16s-7.163 16-16 16z"/></g><path d="m400 110v356c0 25.36-20.64 46-46 46h-32c25.36 0 46-20.64 46-46v-356c0-25.36-20.64-46-46-46h32c25.36 0 46 20.64 46 46z" fill="#e4d5be"/></g></svg>