<svg id="Layer_1" enable-background="new 0 0 512 512" height="512" viewBox="0 0 512 512" width="512" xmlns="http://www.w3.org/2000/svg"><g><g fill="#f3d4b7"><path d="m496 232h-112c-8.837 0-16-7.164-16-16s7.163-16 16-16h112c8.837 0 16 7.164 16 16s-7.163 16-16 16z"/><path d="m128 232h-112c-8.836 0-16-7.164-16-16s7.164-16 16-16h112c8.836 0 16 7.164 16 16s-7.164 16-16 16z"/><path d="m328 232h-56c-8.837 0-16-7.164-16-16s7.163-16 16-16h56c8.837 0 16 7.164 16 16s-7.163 16-16 16z"/></g><path d="m288 128v171.29c0 17.63-6.87 34.2-19.33 46.67l-43.7 43.7c-6.67 6.67-15.54 10.34-24.97 10.34s-18.3-3.67-24.97-10.34l-43.7-43.7c-12.46-12.47-19.33-29.04-19.33-46.67v-171.29c0-8.84 7.16-16 16-16h144c8.84 0 16 7.16 16 16z" fill="#f79caf"/><path d="m288 128v171.29c0 17.63-6.87 34.2-19.33 46.67l-43.7 43.7c-6.67 6.67-15.54 10.34-24.97 10.34-5.65 0-11.1-1.32-16-3.82 3.28-1.66 6.3-3.84 8.97-6.52l43.7-43.7c12.46-12.47 19.33-29.04 19.33-46.67v-171.29c0-8.84-7.16-16-16-16h32c8.84 0 16 7.16 16 16z" fill="#e3889b"/><path d="m216 112v80c0 8.84-7.16 16-16 16s-16-7.16-16-16v-80z" fill="#e3889b"/></g></svg>