<svg id="Layer_1" enable-background="new 0 0 512 512" height="512" viewBox="0 0 512 512" width="512" xmlns="http://www.w3.org/2000/svg"><g><path d="m256 96c-8.837 0-16-7.164-16-16v-40c0-22.056 17.944-40 40-40s40 17.944 40 40c0 8.836-7.163 16-16 16s-16-7.164-16-16c0-4.411-3.589-8-8-8s-8 3.589-8 8v40c0 8.836-7.163 16-16 16z" fill="#f3d4b7"/><path d="m320 448c0 35.29-28.71 64-64 64s-64-28.71-64-64c0-15.78 5.79-30.94 16.32-42.68 3.03-3.39 7.36-5.32 11.91-5.32h71.54c4.55 0 8.88 1.93 11.91 5.32 10.53 11.74 16.32 26.9 16.32 42.68z" fill="#f8e9d2"/><path d="m320 448c0 35.29-28.71 64-64 64-4.1 0-8.11-.39-12-1.13 29.58-5.63 52-31.68 52-62.87 0-15.78-5.79-30.94-16.32-42.68-3.03-3.39-7.36-5.32-11.91-5.32h24c4.55 0 8.88 1.93 11.91 5.32 10.53 11.74 16.32 26.9 16.32 42.68z" fill="#e4d5be"/><path d="m320 40c0 8.84-7.16 16-16 16-2.92 0-5.65-.78-8-2.14 4.78-2.76 8-7.94 8-13.86 0-19.32-13.76-35.48-32-39.2 2.58-.52 5.26-.8 8-.8 22.06 0 40 17.94 40 40z" fill="#e1c3a7"/><path d="m400 208v144c0 8.84-7.16 16-16 16h-256c-8.84 0-16-7.16-16-16v-144c0-79.4 64.6-144 144-144s144 64.6 144 144z" fill="#f8e9d2"/><path d="m400 208v144c0 8.84-7.16 16-16 16h-40c8.84 0 16-7.16 16-16v-144c0-72.61-54.03-132.85-124-142.61 6.54-.92 13.21-1.39 20-1.39 79.4 0 144 64.6 144 144z" fill="#e4d5be"/><path d="m432 384c0 26.47-21.53 48-48 48h-256c-26.47 0-48-21.53-48-48s21.53-48 48-48h256c26.47 0 48 21.53 48 48z" fill="#f3d4b7"/><path d="m432 384c0 26.47-21.53 48-48 48h-40c26.47 0 48-21.53 48-48s-21.53-48-48-48h40c26.47 0 48 21.53 48 48z" fill="#e1c3a7"/></g></svg>