<svg id="Layer_1" enable-background="new 0 0 512 512" height="512" viewBox="0 0 512 512" width="512" xmlns="http://www.w3.org/2000/svg"><g><path d="m512 46v420c0 25.36-20.64 46-46 46h-420c-25.36 0-46-20.64-46-46v-420c0-25.36 20.64-46 46-46h420c25.36 0 46 20.64 46 46z" fill="#f8e9d2"/><path d="m384 240c0 30.88-25.12 56-56 56h-144c-30.88 0-56-25.12-56-56s25.12-56 56-56h144c30.88 0 56 25.12 56 56z" fill="#f3d4b7"/><path d="m512 46v420c0 25.36-20.64 46-46 46h-32c25.36 0 46-20.64 46-46v-420c0-25.36-20.64-46-46-46h32c25.36 0 46 20.64 46 46z" fill="#e4d5c1"/><path d="m384 240c0 30.88-25.12 56-56 56h-32c30.88 0 56-25.12 56-56s-25.12-56-56-56h32c30.88 0 56 25.12 56 56z" fill="#e1c3a7"/><path d="m344 0v143.634c0 4.062-1.376 8.059-4.101 11.071-3.144 3.475-7.486 5.295-11.899 5.295-1.7 0-3.41-.27-5.06-.82l-66.94-22.31-66.94 22.31c-4.88 1.63-10.24.81-14.42-2.2-4.17-3.01-6.64-7.84-6.64-12.98v-144z" fill="#e2e0e0"/><path d="m344 0v143.63c0 4.07-1.38 8.06-4.1 11.08-3.14 3.47-7.49 5.29-11.9 5.29-1.7 0-3.41-.27-5.06-.82l-8.69-2.9c.58-.47 1.13-1 1.65-1.57 2.72-3.02 4.1-7.01 4.1-11.08v-143.63z" fill="#cecccc"/></g></svg>