<svg id="Layer_1" enable-background="new 0 0 512 512" height="512" viewBox="0 0 512 512" width="512" xmlns="http://www.w3.org/2000/svg"><g><path d="m512 256c0 60.35-21.4 118.94-60.25 165-9.21 10.9-19.37 21.09-30.21 30.28-46.13 39.16-104.92 60.72-165.54 60.72s-119.41-21.56-165.54-60.72c-10.84-9.19-21-19.38-30.2-30.28-38.86-46.06-60.26-104.65-60.26-165 0-68.38 26.63-132.67 74.98-181.02 48.35-48.35 112.64-74.98 181.02-74.98s132.67 26.63 181.02 74.98 74.98 112.64 74.98 181.02z" fill="#e2e0e0"/><path d="m432 400c0 14.53-1.78 28.99-5.29 42.98-.81 3.23-2.62 6.14-5.17 8.3-46.13 39.16-104.92 60.72-165.54 60.72s-119.41-21.56-165.54-60.72c-2.55-2.16-4.36-5.07-5.17-8.3-3.51-13.99-5.29-28.45-5.29-42.98 0-46.58 18.02-90.48 50.73-123.63 32.69-33.11 76.29-51.71 122.78-52.36h.22l2.27-.01 2.27.01h.22c46.49.65 90.09 19.25 122.78 52.36 32.71 33.15 50.73 77.05 50.73 123.63z" fill="#acebe2"/><path d="m512 256c0 60.35-21.4 118.94-60.25 165-9.21 10.9-19.37 21.09-30.21 30.28-46.13 39.16-104.92 60.72-165.54 60.72-5.35 0-10.69-.17-16-.51 54.9-3.43 107.48-24.51 149.54-60.21 10.84-9.19 21-19.38 30.21-30.28 38.85-46.06 60.25-104.65 60.25-165 0-68.38-26.63-132.67-74.98-181.02-44.56-44.56-102.66-70.67-165.02-74.49 5.31-.33 10.64-.49 16-.49 68.38 0 132.67 26.63 181.02 74.98s74.98 112.64 74.98 181.02z" fill="#cecccc"/><path d="m432 400c0 14.53-1.78 28.99-5.29 42.98-.81 3.23-2.62 6.14-5.17 8.3-46.13 39.16-104.92 60.72-165.54 60.72-5.35 0-10.69-.17-16-.51 54.9-3.43 107.48-24.51 149.54-60.21 2.55-2.16 4.36-5.07 5.17-8.3 3.51-13.99 5.29-28.45 5.29-42.98 0-46.58-18.02-90.48-50.73-123.63-29.5-29.88-67.89-47.94-109.27-51.65 4.47-.41 8.97-.65 13.51-.71h.22l2.27-.01 2.27.01h.22c46.49.65 90.09 19.25 122.78 52.36 32.71 33.15 50.73 77.05 50.73 123.63z" fill="#98d7ce"/><circle cx="256" cy="160" fill="#98d7ce" r="96"/><path d="m352 160c0 52.93-43.07 96-96 96-5.45 0-10.8-.46-16-1.34 45.34-7.64 80-47.18 80-94.66s-34.66-87.02-80-94.66c5.2-.88 10.55-1.34 16-1.34 52.93 0 96 43.07 96 96z" fill="#84c3ba"/></g></svg>