<svg id="Layer_1" enable-background="new 0 0 512 512" height="512" viewBox="0 0 512 512" width="512" xmlns="http://www.w3.org/2000/svg"><g><path d="m432 176v290c0 25.36-20.64 46-46 46h-340c-25.36 0-46-20.64-46-46v-290c0-8.84 7.16-16 16-16h400c8.84 0 16 7.16 16 16z" fill="#e2e0e0"/><path d="m432 176v290c0 25.36-20.64 46-46 46h-32c25.36 0 46-20.64 46-46v-290c0-8.84-7.16-16-16-16h32c8.84 0 16 7.16 16 16z" fill="#cecccc"/><path d="m431.982 176.765c-.401 8.609-7.813 15.235-16.431 15.235h-415.551v-66c0-25.405 20.595-46 46-46h290c8.779 0 16.02 7.072 16 15.851-.081 35.358 28.66 64.149 64 64.149 9.094 0 16.41 7.577 15.982 16.765z" fill="#acebe2"/><circle cx="416" cy="96" fill="#f8e9d2" r="96"/><path d="m512 96c0 52.93-43.07 96-96 96-4.06 0-8.07-.25-12-.75 47.29-5.92 84-46.38 84-95.25s-36.71-89.33-84-95.25c3.93-.5 7.94-.75 12-.75 52.93 0 96 43.07 96 96z" fill="#e4d5be"/><path d="m438.627 96 28.687-28.687c6.249-6.248 6.249-16.379 0-22.627-6.248-6.249-16.379-6.249-22.627 0l-28.687 28.687-28.687-28.687c-6.248-6.249-16.379-6.249-22.627 0-6.249 6.248-6.249 16.379 0 22.627l28.687 28.687-28.687 28.687c-6.249 6.248-6.249 16.379 0 22.627 3.125 3.124 7.219 4.686 11.314 4.686s8.189-1.562 11.313-4.687l28.687-28.686 28.687 28.687c3.124 3.124 7.218 4.686 11.313 4.686s8.189-1.562 11.313-4.687c6.249-6.248 6.249-16.379 0-22.627z" fill="#f79caf"/></g></svg>