<svg id="Layer_1" enable-background="new 0 0 512 512" height="512" viewBox="0 0 512 512" width="512" xmlns="http://www.w3.org/2000/svg"><g><path d="m262.78 142.12c-2.47 5.98-8.31 9.88-14.78 9.88h-248v-106c0-25.405 20.595-46 46-46h93.57c12.29 0 23.84 4.78 32.53 13.47l87.21 111.22c4.58 4.57 5.95 11.45 3.47 17.43z" fill="#f8e9d2"/><path d="m262.78 142.12c-2.47 5.98-8.31 9.88-14.78 9.88h-40c6.47 0 12.31-3.9 14.78-9.88 2.48-5.98 1.11-12.86-3.47-17.43l-87.21-111.22c-8.69-8.69-20.24-13.47-32.53-13.47h40c12.29 0 23.84 4.78 32.53 13.47l87.21 111.22c4.58 4.57 5.95 11.45 3.47 17.43z" fill="#e4d5be"/><path d="m512 142v324c0 25.36-20.64 46-46 46h-420c-25.36 0-46-20.64-46-46v-324c0-25.36 20.64-46 46-46h420c25.36 0 46 20.64 46 46z" fill="#f3d4b7"/><path d="m512 142v324c0 25.36-20.64 46-46 46h-40c25.36 0 46-20.64 46-46v-324c0-25.36-20.64-46-46-46h40c25.36 0 46 20.64 46 46z" fill="#e1c3a7"/><path d="m378.89 288.67-55.27 40.91 21.09 66.12c2.91 9.12-.37 19-8.16 24.57-7.79 5.58-18.19 5.5-25.89-.2l-54.66-40.45-54.66 40.45c-3.9 2.88-8.49 4.33-13.09 4.33-4.48 0-8.96-1.37-12.8-4.13-7.79-5.57-11.07-15.45-8.16-24.57l21.09-66.12-55.27-40.91c-7.65-5.66-10.79-15.54-7.81-24.58 2.98-9.03 11.38-15.11 20.89-15.11h67.9l20.95-65.67c2.92-9.16 11.35-15.31 20.96-15.31s18.04 6.15 20.96 15.31l20.95 65.67h67.9c9.51 0 17.91 6.08 20.89 15.11 2.98 9.04-.16 18.92-7.81 24.58z" fill="#f79caf"/></g></svg>