<svg id="Layer_1" enable-background="new 0 0 512 512" height="512" viewBox="0 0 512 512" width="512" xmlns="http://www.w3.org/2000/svg"><g><g fill="#f79caf"><circle cx="72" cy="72" r="72"/><circle cx="72" cy="256" r="72"/><circle cx="72" cy="440" r="72"/></g><path d="m512 72c0 39.7-32.3 72-72 72h-192c-39.7 0-72-32.3-72-72s32.3-72 72-72h192c39.7 0 72 32.3 72 72z" fill="#acebe2"/><path d="m512 256c0 39.7-32.3 72-72 72h-192c-39.7 0-72-32.3-72-72s32.3-72 72-72h192c39.7 0 72 32.3 72 72z" fill="#acebe2"/><path d="m512 440c0 39.7-32.3 72-72 72h-192c-39.7 0-72-32.3-72-72s32.3-72 72-72h192c39.7 0 72 32.3 72 72z" fill="#acebe2"/><path d="m144 72c0 39.7-32.3 72-72 72-5.5 0-10.85-.62-16-1.8 32.03-7.29 56-36 56-70.2s-23.97-62.91-56-70.2c5.15-1.18 10.5-1.8 16-1.8 39.7 0 72 32.3 72 72z" fill="#e3889b"/><path d="m144 256c0 39.7-32.3 72-72 72-5.5 0-10.85-.62-16-1.8 32.03-7.29 56-36 56-70.2s-23.97-62.91-56-70.2c5.15-1.18 10.5-1.8 16-1.8 39.7 0 72 32.3 72 72z" fill="#e3889b"/><path d="m144 440c0 39.7-32.3 72-72 72-5.5 0-10.85-.62-16-1.8 32.03-7.29 56-36 56-70.2s-23.97-62.91-56-70.2c5.15-1.18 10.5-1.8 16-1.8 39.7 0 72 32.3 72 72z" fill="#e3889b"/><path d="m512 72c0 39.7-32.3 72-72 72h-32c39.7 0 72-32.3 72-72s-32.3-72-72-72h32c39.7 0 72 32.3 72 72z" fill="#98d7ce"/><path d="m512 256c0 39.7-32.3 72-72 72h-32c39.7 0 72-32.3 72-72s-32.3-72-72-72h32c39.7 0 72 32.3 72 72z" fill="#98d7ce"/><path d="m512 440c0 39.7-32.3 72-72 72h-32c39.7 0 72-32.3 72-72s-32.3-72-72-72h32c39.7 0 72 32.3 72 72z" fill="#98d7ce"/></g></svg>