<svg id="Layer_1" enable-background="new 0 0 512 512" height="512" viewBox="0 0 512 512" width="512" xmlns="http://www.w3.org/2000/svg"><g><path d="m490.01 217.5-69.27-43.11c-48.77-30.35-105.73-46.39-164.74-46.39s-115.97 16.04-164.74 46.39l-69.27 43.11c-13.77 8.58-21.99 22.97-21.99 38.5s8.22 29.92 21.99 38.5l69.27 43.11c48.77 30.35 105.73 46.39 164.74 46.39s115.97-16.04 164.74-46.39l69.27-43.11c13.77-8.58 21.99-22.97 21.99-38.5s-8.22-29.92-21.99-38.5z" fill="#e2e0e0"/><circle cx="256" cy="256" fill="#acebe2" r="112"/><path d="m347.745 320.241c-35.424 50.591-105.395 62.929-155.986 27.504-3.318-2.323-6.476-4.803-9.463-7.407 49.429 27.286 112.688 13.41 145.789-33.863s24.504-111.463-18.042-148.578c3.468 1.916 6.879 4.036 10.197 6.359 50.591 35.423 62.929 105.394 27.505 155.985z" fill="#98d7ce"/><path d="m256 288c-17.645 0-32-14.355-32-32s14.355-32 32-32 32 14.355 32 32-14.355 32-32 32zm0-32c0 .014.001.02.001.02z" fill="#f79caf"/><circle cx="195" cy="197" fill="#d2f9f2" r="24"/></g></svg>