<svg id="Layer_1" enable-background="new 0 0 512 512" height="512" viewBox="0 0 512 512" width="512" xmlns="http://www.w3.org/2000/svg"><g><path d="m512 456c0 14.95-5.82 29.01-16.4 39.59-5.28 5.29-11.44 9.39-18.15 12.17s-13.97 4.24-21.45 4.24c-14.97 0-29.03-5.83-39.6-16.41l-142.78-142.78c-3-3-4.69-7.07-4.69-11.31s1.69-8.31 4.69-11.31c.86-.86 1.82-1.63 2.86-2.28 20.73-12.92 38.51-30.7 51.43-51.43.65-1.04 1.41-1.99 2.27-2.85 3-3 7.07-4.69 11.32-4.69 2.12 0 4.2.42 6.12 1.22 1.92.79 3.69 1.96 5.19 3.46l142.78 142.79c10.58 10.57 16.41 24.63 16.41 39.59z" fill="#f8e9d2"/><path d="m512 456c0 14.95-5.82 29.01-16.4 39.59-5.28 5.29-11.44 9.39-18.15 12.17s-13.97 4.24-21.45 4.24c-2.45 0-4.89-.16-7.28-.47 3.57-2.24 6.91-4.89 9.95-7.94 10.58-10.58 16.4-24.64 16.4-39.59 0-14.96-5.83-29.02-16.41-39.59l-137.7-137.71c2.45-3.31 4.77-6.73 6.95-10.22.65-1.04 1.41-1.99 2.27-2.85 3-3 7.07-4.69 11.32-4.69 2.12 0 4.2.42 6.12 1.22 1.92.79 3.69 1.96 5.19 3.46l142.78 142.79c10.58 10.57 16.41 24.63 16.41 39.59z" fill="#e4d5be"/><circle cx="192" cy="192" fill="#e2e0e0" r="192"/><path d="m384 192c0 106.04-85.96 192-192 192-5.39 0-10.72-.22-16-.66 98.55-8.13 176-90.69 176-191.34s-77.45-183.21-176-191.34c5.28-.44 10.61-.66 16-.66 106.04 0 192 85.96 192 192z" fill="#cecccc"/><circle cx="192" cy="192" fill="#9af9ff" r="128"/><path d="m320 192c0 70.58-57.42 128-128 128-5.42 0-10.76-.34-16-1 63.06-7.89 112-61.84 112-127s-48.94-119.11-112-127c5.24-.66 10.58-1 16-1 70.58 0 128 57.42 128 128z" fill="#86effd"/></g></svg>