<svg id="Layer_1" enable-background="new 0 0 512 512" height="512" viewBox="0 0 512 512" width="512" xmlns="http://www.w3.org/2000/svg"><g><path d="m485.587 128.86c-4.29 9.34-13.34 15.14-23.62 15.14h-21.98v332c0 19.85-16.15 36-36 36h-40c-19.85 0-36-16.15-36-36v-332h-21.98c-10.28 0-19.33-5.8-23.62-15.14-4.3-9.33-2.81-19.98 3.88-27.78.07-.09.15-.18.23-.27l85.57-95.49c3.04-3.38 7.37-5.32 11.92-5.32s8.88 1.94 11.92 5.32l85.57 95.49c.08.09.16.18.23.27 6.69 7.8 8.18 18.45 3.88 27.78z" fill="#acebe2"/><path d="m485.587 128.86c-4.29 9.34-13.34 15.14-23.62 15.14h-5.17c1.95-2.05 3.58-4.45 4.82-7.14 4.3-9.33 2.81-19.98-3.88-27.78-.07-.09-.15-.18-.23-.27l-85.57-95.49c-1.19-1.32-2.58-2.43-4.1-3.28l4.23-4.72c3.04-3.38 7.37-5.32 11.92-5.32s8.88 1.94 11.92 5.32l85.57 95.49c.08.09.16.18.23.27 6.69 7.8 8.18 18.45 3.88 27.78z" fill="#98d7ce"/><path d="m287.987 228v248c0 19.85-16.15 36-36 36h-40c-19.85 0-36-16.15-36-36v-248c0-19.85 16.15-36 36-36h40c19.85 0 36 16.15 36 36z" fill="#f8e9d2"/><path d="m135.987 308v168c0 19.85-16.15 36-36 36h-40c-19.85 0-36-16.15-36-36v-168c0-19.85 16.15-36 36-36h40c19.85 0 36 16.15 36 36z" fill="#f79caf"/><path d="m439.987 144v332c0 19.882-16.118 36-36 36h-31.97c19.85 0 36-16.15 36-36v-322c0-5.523 4.477-10 10-10z" fill="#98d7ce"/><path d="m287.987 228v248c0 19.85-16.15 36-36 36h-32c19.85 0 36-16.15 36-36v-248c0-19.85-16.15-36-36-36h32c19.85 0 36 16.15 36 36z" fill="#e4d5c1"/><path d="m135.987 308v168c0 19.85-16.15 36-36 36h-32c19.85 0 36-16.15 36-36v-168c0-19.85-16.15-36-36-36h32c19.85 0 36 16.15 36 36z" fill="#e3889b"/></g></svg>