<svg id="Layer_1" enable-background="new 0 0 512 512" height="512" viewBox="0 0 512 512" width="512" xmlns="http://www.w3.org/2000/svg"><g><path d="m492.416 114.23-341.09 341.08-52 52c-3 3-7.07 4.69-11.31 4.69h-72c-8.84 0-16-7.16-16-16v-72c0-4.24 1.69-8.31 4.69-11.31l52-52 341.08-341.09c26.09-26.09 68.54-26.09 94.63 0s26.09 68.54 0 94.63z" fill="#f3d4b7"/><path d="m492.416 114.22-68.4 68.41-94.63-94.63 68.41-68.4c12.63-12.64 29.44-19.6 47.31-19.6s34.68 6.96 47.31 19.6c26.09 26.09 26.09 68.53 0 94.62z" fill="#f79caf"/><path d="m151.326 455.31-52 52c-3 3-7.07 4.69-11.31 4.69h-72c-8.84 0-16-7.16-16-16v-72c0-4.24 1.69-8.31 4.69-11.31l52-52z" fill="#f8e9d2"/><path d="m492.416 114.23-341.09 341.08-52 52c-3 3-7.07 4.69-11.31 4.69h-72c-8.84 0-16-7.16-16-16v-8h56.03c4.24 0 8.31-1.69 11.31-4.69l52-52 3.99-3.98 337.1-337.1c23.49-23.49 25.83-60.24 7.03-86.37 9.12 3.22 17.67 8.47 24.94 15.74 26.09 26.09 26.09 68.54 0 94.63z" fill="#e1c3a7"/><path d="m492.416 114.22-68.4 68.41-27.99-27.99 64.42-64.42c23.51-23.51 25.83-60.28 6.98-86.42 9.29 3.27 17.82 8.62 24.99 15.8 26.09 26.09 26.09 68.53 0 94.62z" fill="#e3889b"/><path d="m151.326 455.31-52 52c-3 3-7.07 4.69-11.31 4.69h-72c-8.84 0-16-7.16-16-16v-8h56.03c4.24 0 8.31-1.69 11.31-4.69l52-52 3.99-3.98z" fill="#e4d5be"/></g></svg>