<svg id="Layer_1" enable-background="new 0 0 511.997 511.997" height="512" viewBox="0 0 511.997 511.997" width="512" xmlns="http://www.w3.org/2000/svg"><g><path d="m407.579 87.677c-31.07-53.63-86.27-86.39-147.64-87.64-2.62-.05-5.26-.05-7.88 0-61.37 1.25-116.57 34.01-147.64 87.64-31.76 54.81-32.63 120.65-2.32 176.12l126.96 232.39c.06.1.11.2.17.31 5.59 9.7 15.59 15.5 26.77 15.5s21.18-5.8 26.77-15.51c.06-.1.11-.2.17-.3l126.96-232.39c30.31-55.469 29.44-121.31-2.32-176.12z" fill="#acebe2"/><circle cx="255.999" cy="159.997" fill="#f79caf" r="72"/><path d="m407.579 87.677c-31.07-53.63-86.27-86.39-147.64-87.64-2.62-.05-5.26-.05-7.88 0-5.4.11-10.75.46-16.04 1.06 54.85 6.12 103.25 37.67 131.59 86.58 31.76 54.81 32.63 120.65 2.32 176.12l-126.96 232.39c-.06.1-.11.2-.17.3-1.83 3.17-4.12 5.92-6.78 8.2 5.47 4.68 12.46 7.31 19.98 7.31 11.18 0 21.18-5.8 26.77-15.51.06-.1.11-.2.17-.3l126.96-232.39c30.31-55.469 29.44-121.31-2.32-176.12z" fill="#98d7ce"/><path d="m327.999 159.997c0 39.7-32.3 72-72 72-6.93 0-13.63-.98-19.98-2.83 30.01-8.68 52.01-36.4 52.01-69.17s-22-60.49-52.01-69.17c6.35-1.85 13.05-2.83 19.98-2.83 39.7 0 72 32.301 72 72z" fill="#e3889b"/></g></svg>