<svg id="Layer_1" enable-background="new 0 0 512 512" height="512" viewBox="0 0 512 512" width="512" xmlns="http://www.w3.org/2000/svg"><g><path d="m512 388v58c0 36.45-29.55 66-66 66h-78v-.33h-302c-36.45 0-66-29.55-66-66v-57.67c0-11.05 8.95-20 20-20h472c11.05 0 20 8.95 20 20z" fill="#cecccc"/><path d="m512 124v290.33c0 36.45-29.55 66-66 66h-78v-.33h-302c-36.45 0-66-29.55-66-66v-290c0-11.05 8.95-20 20-20h472c11.05 0 20 8.95 20 20z" fill="#e2e0e0"/><path d="m384 224h-256c-8.837 0-16-7.164-16-16s7.163-16 16-16h256c8.837 0 16 7.164 16 16s-7.163 16-16 16z" fill="#f79caf"/><path d="m352 304h-192c-8.837 0-16-7.164-16-16s7.163-16 16-16h192c8.837 0 16 7.164 16 16s-7.163 16-16 16z" fill="#f79caf"/><path d="m512 66v78h-512v-78c0-36.451 29.549-66 66-66h380c36.451 0 66 29.549 66 66z" fill="#acebe2"/><path d="m512 352-128 128v-82c0-25.41 20.59-46 46-46z" fill="#cecccc"/></g></svg>