<svg id="Layer_1" enable-background="new 0 0 512 512" height="512" viewBox="0 0 512 512" width="512" xmlns="http://www.w3.org/2000/svg"><g><path d="m496 312.05c-8.837 0-16-7.164-16-16v-16.055c0-123.514-100.486-224-224-224s-224 100.486-224 224v16.055c0 8.836-7.163 16-16 16s-16-7.164-16-16v-16.055c0-68.38 26.629-132.667 74.98-181.02s112.64-74.98 181.02-74.98 132.668 26.628 181.02 74.98 74.98 112.64 74.98 181.02v16.055c0 8.836-7.163 16-16 16z" fill="#acebe2"/><path d="m512 296.075-.26 142.44c-.01 3.58-1.22 7.06-3.44 9.88-17.2 21.81-41.86 35.62-69.45 38.88-4.15.49-8.3.73-12.41.73-23.25 0-45.67-7.74-64.2-22.35-.8-.63-1.59-1.27-2.36-1.92-26.59-22.25-38.16-57.17-30.21-91.14 8.08-34.53 34.43-61.14 68.78-69.44l93.79-22.66c4.78-1.15 9.81-.05 13.67 2.99 3.85 3.04 6.1 7.68 6.09 12.59z" fill="#e2e0e0"/><path d="m152.13 463.725c-.78.66-1.57 1.3-2.37 1.93-18.53 14.61-40.96 22.35-64.2 22.35-4.12 0-8.26-.24-12.41-.73-27.59-3.26-52.25-17.07-69.45-38.88-2.22-2.82-3.43-6.3-3.44-9.88l-.26-142.44c-.01-4.91 2.24-9.55 6.09-12.59 3.86-3.04 8.89-4.14 13.67-2.99l93.79 22.66c34.35 8.3 60.7 34.91 68.78 69.44 7.95 33.97-3.62 68.89-30.2 91.13z" fill="#e2e0e0"/><g fill="#cecccc"><path d="m512 296.075-.26 142.44c-.01 3.58-1.22 7.06-3.44 9.88-17.2 21.81-41.86 35.62-69.45 38.88-4.15.49-8.3.73-12.41.73-23.25 0-45.67-7.74-64.2-22.35-.8-.63-1.59-1.27-2.36-1.92-8.27-6.92-15.08-15.06-20.3-24.02 16.69 10.68 35.88 16.28 55.66 16.28 4.11 0 8.26-.24 12.41-.73 27.59-3.26 52.25-17.07 69.45-38.88 2.22-2.82 3.43-6.3 3.44-9.88l.22-123.24 11.48-2.77c4.78-1.15 9.81-.05 13.67 2.99 3.85 3.04 6.1 7.68 6.09 12.59z"/><path d="m152.13 463.725c-.78.66-1.57 1.3-2.37 1.93-18.53 14.61-40.96 22.35-64.2 22.35-4.12 0-8.26-.24-12.41-.73-18.29-2.16-35.29-8.96-49.68-19.65 5.72 1.7 11.63 2.93 17.68 3.64 4.15.49 8.29.73 12.41.73 23.24 0 45.67-7.74 64.2-22.35.8-.63 1.59-1.27 2.37-1.93 26.58-22.24 38.15-57.16 30.2-91.13-5.01-21.41-17.04-39.77-33.65-52.62 32.81 9.12 57.82 35.16 65.65 68.63 7.95 33.97-3.62 68.89-30.2 91.13z"/></g></g></svg>