<svg id="Capa_1" enable-background="new 0 0 497 497" height="512" viewBox="0 0 497 497" width="512" xmlns="http://www.w3.org/2000/svg"><g><g><path d="m234.526 0c-21.123.021-38.169 17.315-38.169 38.437v250.734c-12.969-1.296-27.037-.648-41.792 2.225-2.098.409-4.209.862-6.333 1.36-69.036 16.206-125 74.116-125 129.344s55.964 86.862 125 70.656c68.813-16.153 124.998-74.023 125-129.341v-.003c0-.002 0-.003 0-.003v-235.287c73.68 17.894 135.3 72.227 170.045 139.754 7.583 14.737 30.491 10.252 30.491-7.876 0-143.684-95.499-260.145-239.242-260z" fill="#ffb39d"/><path d="m109.254 379.089c0-30.999 17.633-62.853 45.31-87.693-2.099.409-4.208.861-6.333 1.36-69.036 16.206-125 74.115-125 129.344 0 55.228 55.964 86.862 125 70.656 30.204-7.09 57.973-22.218 79.628-41.639-66.063 12.845-118.605-18.516-118.605-72.028z" fill="#ff8f71"/></g><g><ellipse cx="65.713" cy="418.706" fill="#ea5b70" rx="29.355" ry="23.377" transform="matrix(.985 -.174 .174 .985 -71.709 17.772)"/><ellipse cx="222.409" cy="391.077" fill="#ff8e9e" rx="29.355" ry="23.377" transform="matrix(.985 -.174 .174 .985 -64.532 44.563)"/></g><g fill="#313d40"><path d="m83.956 380.454c-.719-4.079-4.608-6.801-8.688-6.084-4.079.719-6.803 4.609-6.084 8.688l2.083 11.818c.642 3.639 3.806 6.199 7.377 6.199.432 0 .871-.038 1.311-.115 4.079-.719 6.803-4.609 6.084-8.688z"/><path d="m209.039 370.583-2.083-11.817c-.719-4.079-4.606-6.804-8.688-6.084-4.079.719-6.803 4.609-6.084 8.688l2.083 11.817c.642 3.639 3.806 6.199 7.377 6.199.432 0 .871-.038 1.311-.115 4.079-.718 6.803-4.608 6.084-8.688z"/><path d="m160.176 373.096c-3.549-2.139-8.157-.995-10.295 2.553-2.144 3.558-5.713 6.011-9.79 6.73-4.076.719-8.27-.365-11.501-2.976-3.223-2.602-7.944-2.101-10.547 1.122-2.603 3.222-2.101 7.944 1.122 10.547 5.267 4.254 11.785 6.525 18.444 6.525 1.693 0 3.396-.147 5.088-.446 8.349-1.473 15.65-6.488 20.033-13.76 2.137-3.548.994-8.157-2.554-10.295z"/></g></g></svg>