<svg id="Capa_1" enable-background="new 0 0 497 497" height="512" viewBox="0 0 497 497" width="512" xmlns="http://www.w3.org/2000/svg"><g><g><path d="m191.312 102.054v244.871c-14.861-6.045-33.427-7.677-53.704-3.728-1.569.306-3.149.645-4.737 1.018-51.642 12.123-93.507 55.443-93.507 96.757 0 41.313 41.864 64.978 93.507 52.854 51.476-12.083 93.505-55.374 93.507-96.754v-.002c0-.001 0-.002 0-.002v-231.133l196.194-52.57v171.612c-14.861-6.045-33.427-7.677-53.704-3.728-1.569.306-3.149.645-4.737 1.018-51.642 12.123-93.507 55.443-93.507 96.757 0 41.313 41.864 64.978 93.507 52.854 51.487-12.087 93.507-55.382 93.507-96.757v-288.342c0-30.742-29.16-53.117-58.854-45.16l-164.156 43.984c-25.549 6.846-43.316 30-43.316 56.451z" fill="#7ce3ff"/><g fill="#2ed0fc"><path d="m103.713 408.796c0-23.189 13.19-47.018 33.895-65.599-1.57.306-3.148.644-4.737 1.018-51.643 12.123-93.507 55.442-93.507 96.756s41.864 64.977 93.507 52.854c22.594-5.304 43.367-16.621 59.566-31.148-49.42 9.609-88.724-13.851-88.724-53.881z"/><path d="m334.972 346.848c0-23.188 13.19-47.017 33.895-65.599-1.57.306-3.148.644-4.737 1.018-51.643 12.123-93.507 55.443-93.507 96.756s41.864 64.978 93.507 52.855c22.596-5.305 43.368-16.622 59.566-31.148-49.42 9.608-88.724-13.852-88.724-53.882z"/></g></g><g><g><g><ellipse cx="244.705" cy="124.687" fill="#ff8e9e" rx="30.834" ry="24.555" transform="matrix(.966 -.259 .259 .966 -23.933 67.583)"/></g><g><ellipse cx="406.14" cy="81.43" fill="#ff8e9e" rx="30.834" ry="24.555" transform="matrix(.966 -.259 .259 .966 -7.237 107.892)"/></g></g></g><g fill="#313d40"><path d="m260.006 83.38c-1.072-4.001-5.185-6.373-9.186-5.304-4.001 1.072-6.375 5.185-5.304 9.186l3.105 11.591c.898 3.351 3.928 5.561 7.24 5.561.643 0 1.296-.083 1.946-.257 4.001-1.072 6.375-5.185 5.304-9.186z"/><path d="m339.209 68.652c-3.719-1.82-8.212-.28-10.033 3.44-1.966 4.018-5.563 6.984-9.87 8.138-4.306 1.156-8.905.384-12.616-2.112-3.437-2.312-8.098-1.401-10.409 2.036-2.313 3.437-1.4 8.097 2.036 10.409 5.081 3.418 11.008 5.192 17.004 5.192 2.631 0 5.275-.341 7.867-1.036 8.496-2.276 15.589-8.121 19.461-16.034 1.821-3.721.28-8.213-3.44-10.033z"/><path d="m405.415 56.495c-3.055-11.401-14.813-18.19-26.217-15.137-11.401 3.055-18.191 14.816-15.137 26.218.898 3.351 3.928 5.561 7.24 5.561.643 0 1.296-.083 1.946-.257 4.001-1.072 6.375-5.185 5.303-9.186-.443-1.653-.216-3.379.64-4.861.855-1.482 2.237-2.542 3.89-2.985 3.415-.914 6.932 1.118 7.846 4.53 1.072 4.001 5.185 6.372 9.186 5.303 4.001-1.073 6.375-5.185 5.303-9.186z"/></g></g></svg>