<svg id="Capa_1" enable-background="new 0 0 497 497" height="512" viewBox="0 0 497 497" width="512" xmlns="http://www.w3.org/2000/svg"><g><path d="m341.168 15.204c-9.507-9.572-22.342-14.968-35.43-15.195-.003 0-.001 0-.003 0l-22.492 22.075 22.495 22.919c3.515.061 7.397 5.248 4.205 9.448-14.532 19.12-30.923 36.633-50.544 53.796v57.888c35.724-26.951 63.019-53.731 86.37-84.453 6.801-8.948 10.48-20.078 10.359-31.341-.142-13.09-5.455-25.568-14.96-35.137z" fill="#64b3fb"/><path d="m207.458 148.002c-23.688 16.173-42.492 34.953-55.889 55.82-15.701 24.455-23.663 51.269-23.663 79.697 0 72.505 58.987 131.492 131.492 131.492v-45c-47.692 0-86.492-38.8-86.492-86.492 0-47.474 32.587-79.688 59.925-98.353 9.359-6.389 18.193-12.716 26.567-19.034v-57.888c-15.169 13.27-32.27 26.329-51.94 39.758z" fill="#3085d1"/><path d="m324.093 305.318c0 35.672-29.021 64.693-64.693 64.693v45c60.485 0 109.693-49.208 109.693-109.693z" fill="#64b3fb"/><path d="m305.738.008c-13.976-.248-26.745 5.1-36.623 15.03-9.608 9.659-14.777 22.879-14.777 36.503v376.619c0 10.056-6.259 18.678-15.086 22.175l-8.06-9.7c-10.475-12.607-29.847-12.534-40.227.151l-.001.001c-5.788 7.073-7.554 16.698-4.385 25.27 6.696 18.117 24.168 31.118 44.527 30.941 37.68-.327 68.233-31.081 68.233-68.837v-377.264c0-3.546 2.869-5.912 6.4-5.896-13.285-13.534-11.895-33.321-.001-44.993z" fill="#4293dd"/><path d="m276.838 213.063c-43.177 0-78.304 35.127-78.304 78.304 0 12.426 10.074 22.5 22.5 22.5s22.5-10.074 22.5-22.5c0-18.364 14.94-33.304 33.304-33.304 26.057 0 47.255 21.199 47.255 47.255l22.5 22.5 22.5-22.5c0-50.869-41.386-92.255-92.255-92.255z" fill="#64b3fb"/></g></svg>