<svg id="Capa_1" enable-background="new 0 0 497 497" height="512" viewBox="0 0 497 497" width="512" xmlns="http://www.w3.org/2000/svg"><g><g><path d="m428.974 166.608-191.387-110.497-75-43.301c-63.04-36.397-141.841 9.099-141.841 81.892v307.596c0 72.793 78.801 118.288 141.841 81.892l75-43.302 191.386-110.497c63.041-36.396 63.041-127.387.001-163.783z" fill="#53a3ec"/><path d="m170.746 326.665v-156.33c0-46.802 24.969-90.049 65.5-113.449l1.341-.774-75-43.301c-63.04-36.398-141.841 9.098-141.841 81.891v307.596c0 72.793 78.801 118.288 141.841 81.892l75-43.302-1.341-.774c-40.531-23.4-65.5-66.647-65.5-113.449z" fill="#3085d1"/></g><g><g><g><ellipse cx="144.935" cy="255.313" fill="#ff8e9e" rx="30.834" ry="24.555"/></g><g><ellipse cx="312.065" cy="255.313" fill="#ff8e9e" rx="30.834" ry="24.555"/></g></g></g><g fill="#313d40"><path d="m162.905 211.873c-4.142 0-7.5 3.358-7.5 7.5v12c0 4.142 3.358 7.5 7.5 7.5s7.5-3.358 7.5-7.5v-12c0-4.142-3.358-7.5-7.5-7.5z"/><path d="m250.722 225.646c-3.123-2.721-7.861-2.396-10.582.727-2.938 3.372-7.181 5.306-11.64 5.306s-8.701-1.934-11.64-5.306c-2.721-3.122-7.459-3.447-10.582-.727-3.123 2.722-3.448 7.459-.727 10.582 5.788 6.642 14.152 10.451 22.948 10.451s17.16-3.809 22.948-10.451c2.722-3.123 2.397-7.86-.725-10.582z"/><path d="m296.412 209.633c-11.803 0-21.406 9.603-21.406 21.406 0 4.142 3.358 7.5 7.5 7.5s7.5-3.358 7.5-7.5c0-3.532 2.874-6.406 6.406-6.406s6.406 2.874 6.406 6.406c0 4.142 3.358 7.5 7.5 7.5s7.5-3.358 7.5-7.5c0-11.803-9.603-21.406-21.406-21.406z"/></g></g></svg>