<svg id="Capa_1" enable-background="new 0 0 497 497" height="512" viewBox="0 0 497 497" width="512" xmlns="http://www.w3.org/2000/svg"><g><g><path d="m147.75 2.505c-6.144-1.628-12.594-2.505-19.25-2.505h-53.5c-41.421 0-75 33.579-75 75v347c0 41.421 33.579 75 75 75h53.5c6.656 0 13.106-.877 19.25-2.505 32.092-8.5 55.75-37.73 55.75-72.495v-347c0-34.765-23.658-63.995-55.75-72.495z" fill="#53a3ec"/><path d="m441.25 2.505c-6.144-1.628-12.594-2.505-19.25-2.505h-53.5c-41.421 0-75 33.579-75 75v347c0 41.421 33.579 75 75 75h53.5c6.656 0 13.106-.877 19.25-2.505 32.092-8.5 55.75-37.73 55.75-72.495v-347c0-34.765-23.658-63.995-55.75-72.495z" fill="#53a3ec"/><g fill="#3085d1"><path d="m92 422v-347c0-34.765 23.658-63.995 55.75-72.495-6.144-1.628-12.594-2.505-19.25-2.505h-53.5c-41.421 0-75 33.579-75 75v347c0 41.421 33.579 75 75 75h53.5c6.656 0 13.106-.877 19.25-2.505-32.092-8.5-55.75-37.73-55.75-72.495z"/><path d="m385.5 422v-347c0-34.765 23.658-63.995 55.75-72.495-6.144-1.628-12.594-2.505-19.25-2.505h-53.5c-41.421 0-75 33.579-75 75v347c0 41.421 33.579 75 75 75h53.5c6.656 0 13.106-.877 19.25-2.505-32.092-8.5-55.75-37.73-55.75-72.495z"/></g></g><g><g><g><ellipse cx="148.943" cy="225.123" fill="#ff8e9e" rx="29.355" ry="23.377"/></g><g><ellipse cx="348.057" cy="225.123" fill="#ff8e9e" rx="29.355" ry="23.377"/></g></g></g><g fill="#313d40"><path d="m166.051 183.12c-4.142 0-7.5 3.357-7.5 7.5v12c0 4.143 3.358 7.5 7.5 7.5s7.5-3.357 7.5-7.5v-12c0-4.142-3.358-7.5-7.5-7.5z"/><path d="m330.949 183.12c-4.142 0-7.5 3.357-7.5 7.5v12c0 4.143 3.358 7.5 7.5 7.5s7.5-3.357 7.5-7.5v-12c0-4.142-3.358-7.5-7.5-7.5z"/></g></g></svg>