<svg id="Capa_1" enable-background="new 0 0 497 497" height="512" viewBox="0 0 497 497" width="512" xmlns="http://www.w3.org/2000/svg"><g><g><path d="m377 0h-47-210c-66.274 0-120 53.726-120 120v257c0 66.274 53.726 120 120 120h210 47c66.274 0 120-53.726 120-120v-257c0-66.274-53.726-120-120-120z" fill="#53a3ec"/><path d="m190 357v-217c0-77.32 62.68-140 140-140h-210c-66.274 0-120 53.726-120 120v257c0 66.274 53.726 120 120 120h210c-77.32 0-140-62.68-140-140z" fill="#3085d1"/></g><g><g><g><ellipse cx="168.943" cy="244.36" fill="#ff8e9e" rx="29.355" ry="23.377"/></g><g><ellipse cx="328.057" cy="244.36" fill="#ff8e9e" rx="29.355" ry="23.377"/></g></g></g><g fill="#313d40"><path d="m186.051 202.356c-4.142 0-7.5 3.357-7.5 7.5v12c0 4.143 3.358 7.5 7.5 7.5s7.5-3.357 7.5-7.5v-12c0-4.142-3.358-7.5-7.5-7.5z"/><path d="m310.949 202.356c-4.142 0-7.5 3.357-7.5 7.5v12c0 4.143 3.358 7.5 7.5 7.5s7.5-3.357 7.5-7.5v-12c0-4.142-3.358-7.5-7.5-7.5z"/><path d="m269.892 215.845c-3.123-2.721-7.861-2.396-10.582.727-2.729 3.133-6.669 4.929-10.81 4.929s-8.081-1.796-10.81-4.929c-2.721-3.122-7.459-3.447-10.582-.727-3.123 2.722-3.448 7.459-.727 10.582 5.579 6.401 13.641 10.073 22.119 10.073s16.54-3.672 22.119-10.073c2.721-3.123 2.396-7.861-.727-10.582z"/></g></g></svg>