<svg id="Capa_1" enable-background="new 0 0 497 497" height="512" viewBox="0 0 497 497" width="512" xmlns="http://www.w3.org/2000/svg"><g><g><path d="m463.704 190.829c-19.649-11.344-185.356-107.014-187.596-108.308-40.538-23.405-90.322 1.28-98.666 44.775-12.994-7.502-69.078-39.882-77.553-44.775-44.396-25.631-99.889 6.408-99.889 57.67v216.617c0 51.263 55.493 83.302 99.888 57.67 8.474-4.893 64.559-37.273 77.553-44.775 8.345 43.495 58.128 68.18 98.666 44.775 2.251-1.299 168.038-97.017 187.596-108.309 44.396-25.63 44.396-89.708.001-115.34z" fill="#53a3ec"/><path d="m105.634 303.546v-110.092c0-32.959 17.583-63.415 46.127-79.894l.944-.545-52.817-30.494c-44.395-25.631-99.888 6.408-99.888 57.67v216.617c0 51.262 55.493 83.301 99.888 57.671l52.817-30.494-.944-.545c-28.544-16.48-46.127-46.935-46.127-79.894z" fill="#3085d1"/></g><g><g><g><ellipse cx="144.935" cy="255.313" fill="#ff8e9e" rx="30.834" ry="24.555"/></g><g><ellipse cx="312.065" cy="255.313" fill="#ff8e9e" rx="30.834" ry="24.555"/></g></g></g><g fill="#313d40"><path d="m162.905 211.873c-4.142 0-7.5 3.358-7.5 7.5v12c0 4.142 3.358 7.5 7.5 7.5s7.5-3.358 7.5-7.5v-12c0-4.142-3.358-7.5-7.5-7.5z"/><path d="m250.722 225.646c-3.123-2.721-7.861-2.396-10.582.727-2.938 3.372-7.181 5.306-11.64 5.306s-8.701-1.934-11.64-5.306c-2.721-3.122-7.459-3.447-10.582-.727-3.123 2.722-3.448 7.459-.727 10.582 5.788 6.642 14.152 10.451 22.948 10.451s17.16-3.809 22.948-10.451c2.722-3.123 2.397-7.86-.725-10.582z"/><path d="m296.412 209.633c-11.803 0-21.406 9.603-21.406 21.406 0 4.142 3.358 7.5 7.5 7.5s7.5-3.358 7.5-7.5c0-3.532 2.874-6.406 6.406-6.406s6.406 2.874 6.406 6.406c0 4.142 3.358 7.5 7.5 7.5s7.5-3.358 7.5-7.5c0-11.803-9.603-21.406-21.406-21.406z"/></g></g></svg>