<svg id="Capa_1" enable-background="new 0 0 497 497" height="512" viewBox="0 0 497 497" width="512" xmlns="http://www.w3.org/2000/svg"><g><path d="m397.112 82.521c-8.475 4.893-64.559 37.273-77.553 44.775-5.067-26.409-25.411-45.88-49.686-51.866-15.706-3.873-33.056-2.103-48.981 7.091-2.24 1.293-167.947 96.964-187.596 108.308-44.395 25.632-44.395 89.71 0 115.341 19.558 11.292 185.345 107.01 187.596 108.309 15.779 9.11 32.959 10.932 48.55 7.197 24.465-5.861 45.02-25.408 50.116-51.972 12.994 7.502 69.079 39.883 77.553 44.775 44.396 25.631 99.889-6.408 99.889-57.671v-216.617c0-51.262-55.493-83.301-99.888-57.67z" fill="#53a3ec"/><path d="m269.873 75.43c-15.706-3.873-33.056-2.103-48.981 7.091-2.24 1.293-167.947 96.964-187.596 108.308-44.395 25.632-44.395 89.71 0 115.341 19.558 11.292 185.345 107.01 187.596 108.309 15.779 9.11 32.959 10.932 48.55 7.197-55.361-108.43-55.407-237.587.431-346.246z" fill="#3085d1"/><g><g><g><g><ellipse cx="164.935" cy="255.313" fill="#ff8e9e" rx="30.834" ry="24.555"/></g><g><ellipse cx="332.065" cy="255.313" fill="#ff8e9e" rx="30.834" ry="24.555"/></g></g></g><g fill="#313d40"><path d="m182.905 211.873c-4.142 0-7.5 3.358-7.5 7.5v12c0 4.142 3.358 7.5 7.5 7.5s7.5-3.358 7.5-7.5v-12c0-4.142-3.358-7.5-7.5-7.5z"/><path d="m270.722 225.646c-3.123-2.721-7.861-2.396-10.582.727-2.938 3.372-7.181 5.306-11.64 5.306s-8.701-1.934-11.64-5.306c-2.721-3.122-7.459-3.447-10.582-.727-3.123 2.722-3.448 7.459-.727 10.582 5.788 6.642 14.152 10.451 22.948 10.451s17.16-3.809 22.948-10.451c2.722-3.123 2.397-7.86-.725-10.582z"/><path d="m316.412 209.633c-11.803 0-21.406 9.603-21.406 21.406 0 4.142 3.358 7.5 7.5 7.5s7.5-3.358 7.5-7.5c0-3.532 2.874-6.406 6.406-6.406s6.406 2.874 6.406 6.406c0 4.142 3.358 7.5 7.5 7.5s7.5-3.358 7.5-7.5c0-11.803-9.603-21.406-21.406-21.406z"/></g></g></g></svg>