<svg id="Capa_1" enable-background="new 0 0 497 497" height="512" viewBox="0 0 497 497" width="512" xmlns="http://www.w3.org/2000/svg"><g><g><path d="m457.739 75.264c-4.327-1.146-8.869-1.764-13.556-1.764h-37.676c-29.17 0-52.817 23.647-52.817 52.817v244.366c0 29.17 23.647 52.817 52.817 52.817h37.676c4.688 0 9.229-.618 13.556-1.764 22.6-5.986 39.261-26.57 39.261-51.053v-244.366c0-24.483-16.661-45.067-39.261-51.053z" fill="#53a3ec"/><path d="m418.479 370.683v-244.366c0-24.482 16.661-45.067 39.26-51.053-4.327-1.146-8.869-1.764-13.556-1.764h-37.676c-29.17 0-52.817 23.647-52.817 52.817v244.366c0 29.17 23.647 52.817 52.817 52.817h37.676c4.688 0 9.229-.618 13.556-1.764-22.599-5.986-39.26-26.57-39.26-51.053z" fill="#3085d1"/></g><g><g><path d="m280.977 188.174-131.728-76.053-51.622-29.804c-43.39-25.051-97.627 6.262-97.627 56.365v211.714c0 50.102 54.237 81.416 97.627 56.365l51.621-29.804 131.728-76.054c43.391-25.05 43.391-87.678.001-112.729z" fill="#53a3ec"/><path d="m103.243 298.339v-107.6c0-32.213 17.185-61.979 45.083-78.086l.923-.533-51.622-29.803c-43.39-25.051-97.627 6.262-97.627 56.365v211.714c0 50.102 54.237 81.416 97.627 56.365l51.621-29.804-.923-.533c-27.897-16.106-45.082-45.872-45.082-78.085z" fill="#3085d1"/></g></g><g><g><g><g><ellipse cx="67.203" cy="270.102" fill="#ff8e9e" rx="29.355" ry="23.377"/></g><g><ellipse cx="226.316" cy="270.102" fill="#ff8e9e" rx="29.355" ry="23.377"/></g></g></g><g fill="#313d40"><path d="m84.311 228.099c-4.142 0-7.5 3.357-7.5 7.5v12c0 4.143 3.358 7.5 7.5 7.5s7.5-3.357 7.5-7.5v-12c0-4.142-3.358-7.5-7.5-7.5z"/><path d="m209.208 228.099c-4.142 0-7.5 3.357-7.5 7.5v12c0 4.143 3.358 7.5 7.5 7.5s7.5-3.357 7.5-7.5v-12c0-4.142-3.357-7.5-7.5-7.5z"/><path d="m168.151 241.588c-3.124-2.722-7.861-2.397-10.582.728-2.729 3.131-6.668 4.927-10.81 4.927s-8.082-1.796-10.81-4.927c-2.721-3.123-7.459-3.449-10.582-.728s-3.448 7.459-.727 10.581c5.578 6.402 13.64 10.073 22.119 10.073s16.54-3.671 22.118-10.073c2.722-3.122 2.397-7.861-.726-10.581z"/></g></g></g></svg>