<svg id="Capa_1" enable-background="new 0 0 497 497" height="512" viewBox="0 0 497 497" width="512" xmlns="http://www.w3.org/2000/svg"><g><g><path d="m104.049 75.264c-4.327-1.146-8.869-1.764-13.556-1.764h-37.676c-29.17 0-52.817 23.647-52.817 52.817v244.366c0 29.17 23.647 52.817 52.817 52.817h37.676c4.688 0 9.229-.618 13.556-1.764 22.6-5.986 39.261-26.57 39.261-51.053v-244.366c0-24.483-16.661-45.067-39.261-51.053z" fill="#53a3ec"/><path d="m64.789 370.683v-244.366c0-24.482 16.661-45.067 39.261-51.053-4.328-1.146-8.87-1.764-13.557-1.764h-37.676c-29.17 0-52.817 23.647-52.817 52.817v244.366c0 29.17 23.647 52.817 52.817 52.817h37.676c4.688 0 9.229-.618 13.556-1.764-22.6-5.986-39.26-26.57-39.26-51.053z" fill="#3085d1"/></g><g><path d="m399.373 90.239-9.771 5.641-41.851 24.163-131.728 76.054c-43.39 25.051-43.39 87.679 0 112.73l131.728 76.053 41.85 24.162 9.771 5.642c43.39 25.051 97.627-6.263 97.627-56.365v-211.715c.001-50.102-54.236-81.416-97.626-56.365z" fill="#53a3ec"/><path d="m344.249 319.157v-133.393c0-35.699 17.035-68.963 45.353-89.884l-41.851 24.163-131.728 76.054c-43.39 25.051-43.39 87.679 0 112.73l131.728 76.053 41.85 24.162c-28.317-20.921-45.352-54.185-45.352-89.885z" fill="#3085d1"/></g><g><g><g><ellipse cx="270.684" cy="275.524" fill="#ff8e9e" rx="29.355" ry="23.377"/></g><g><ellipse cx="429.797" cy="275.524" fill="#ff8e9e" rx="29.355" ry="23.377"/></g></g></g><g fill="#313d40"><path d="m287.792 233.521c-4.142 0-7.5 3.357-7.5 7.5v12c0 4.143 3.358 7.5 7.5 7.5s7.5-3.357 7.5-7.5v-12c0-4.142-3.358-7.5-7.5-7.5z"/><path d="m412.689 233.521c-4.142 0-7.5 3.357-7.5 7.5v12c0 4.143 3.358 7.5 7.5 7.5s7.5-3.357 7.5-7.5v-12c0-4.142-3.358-7.5-7.5-7.5z"/><path d="m371.632 247.009c-3.124-2.722-7.861-2.397-10.582.728-2.729 3.131-6.668 4.927-10.81 4.927s-8.082-1.796-10.81-4.927c-2.721-3.123-7.459-3.449-10.582-.728s-3.448 7.459-.727 10.581c5.578 6.402 13.64 10.073 22.119 10.073s16.54-3.671 22.118-10.073c2.722-3.122 2.397-7.86-.726-10.581z"/></g></g></svg>