<svg id="Capa_1" enable-background="new 0 0 497 497" height="512" viewBox="0 0 497 497" width="512" xmlns="http://www.w3.org/2000/svg"><g><g><path d="m323.5 11.53c-23.666-7.483-48.859-11.53-75-11.53-137.243 0-248.5 111.257-248.5 248.5s111.257 248.5 248.5 248.5c26.141 0 51.334-4.047 75-11.53 100.584-31.806 173.5-125.868 173.5-236.97s-72.916-205.164-173.5-236.97z" fill="#ff8e9e"/><path d="m150 248.5c0-111.102 72.916-205.164 173.5-236.97-23.666-7.483-48.859-11.53-75-11.53-137.243 0-248.5 111.257-248.5 248.5s111.257 248.5 248.5 248.5c26.141 0 51.334-4.047 75-11.53-100.584-31.806-173.5-125.868-173.5-236.97z" fill="#ea5b70"/></g><g fill="#ea5b70"><ellipse cx="168.943" cy="234.36" rx="29.355" ry="23.377"/><ellipse cx="328.057" cy="234.36" rx="29.355" ry="23.377"/></g><g fill="#313d40"><path d="m186.051 192.356c-4.142 0-7.5 3.357-7.5 7.5v12c0 4.143 3.358 7.5 7.5 7.5s7.5-3.357 7.5-7.5v-12c0-4.142-3.358-7.5-7.5-7.5z"/><path d="m310.949 192.356c-4.142 0-7.5 3.357-7.5 7.5v12c0 4.143 3.358 7.5 7.5 7.5s7.5-3.357 7.5-7.5v-12c0-4.142-3.358-7.5-7.5-7.5z"/><path d="m269.892 205.845c-3.123-2.721-7.861-2.396-10.582.727-2.729 3.133-6.669 4.929-10.81 4.929s-8.081-1.796-10.81-4.929c-2.721-3.122-7.459-3.447-10.582-.727-3.123 2.722-3.448 7.459-.727 10.582 5.579 6.401 13.641 10.073 22.119 10.073s16.54-3.672 22.119-10.073c2.721-3.123 2.396-7.861-.727-10.582z"/></g></g></svg>