<svg id="Capa_1" enable-background="new 0 0 497 497" height="512" viewBox="0 0 497 497" width="512" xmlns="http://www.w3.org/2000/svg"><g><g><g fill="#2ed0fc"><path d="m155.206 98.5h-95.35c-16.645 0-31.606 10.287-37.432 25.879-29.899 80.024-29.899 168.217 0 248.241 5.825 15.592 20.787 25.879 37.432 25.879h95.35 122.958v-300h-122.958z"/><path d="m455.656 23.026c-4.43-11.671-14.587-19.962-26.53-22.32-2.269-.449-4.597-.706-6.969-.706-7.729 0-15.25 2.496-21.446 7.116l-122.547 91.384-100 150 100 150 122.546 91.384c6.196 4.62 13.717 7.116 21.446 7.116 2.375 0 4.705-.258 6.977-.707 11.94-2.36 22.094-10.65 26.523-22.319 55.125-145.226 55.125-305.722 0-450.948z"/></g><g fill="#1cbbea"><path d="m165.591 396.959c-30.462-30.461-48.995-70.834-52.244-113.791-1.804-23.853-1.742-47.813.187-71.658 3.451-42.671 21.912-82.739 52.183-113.011h-28.511-77.35c-16.645 0-31.606 10.287-37.432 25.879-29.899 80.024-29.899 168.217 0 248.241 5.825 15.592 20.787 25.879 37.432 25.879h77.35 29.925z"/><path d="m355.5 248.494c0-91.143 27.004-176.132 73.626-247.789-2.269-.448-4.597-.705-6.969-.705-7.729 0-15.25 2.496-21.446 7.116l-122.547 91.384v300l122.546 91.384c6.196 4.62 13.717 7.116 21.446 7.116 2.375 0 4.705-.258 6.977-.707-46.626-71.659-73.633-156.652-73.633-247.799z"/></g></g><g fill="#ff8e9e"><ellipse cx="68.943" cy="290.36" rx="29.355" ry="23.377"/><ellipse cx="228.057" cy="290.36" rx="29.355" ry="23.377"/></g><path d="m105.536 497c-3.342 0-6.734-.747-9.933-2.325-11.145-5.495-15.725-18.985-10.229-30.129l222.875-451.992c5.496-11.144 18.986-15.725 30.13-10.229 11.145 5.495 15.725 18.985 10.229 30.129l-222.875 451.992c-3.918 7.945-11.9 12.554-20.197 12.554z" fill="#ea5b70"/><g fill="#313d40"><path d="m86.051 248.357c-4.142 0-7.5 3.357-7.5 7.5v12c0 4.143 3.358 7.5 7.5 7.5s7.5-3.357 7.5-7.5v-12c0-4.143-3.358-7.5-7.5-7.5z"/><path d="m210.949 248.357c-4.142 0-7.5 3.357-7.5 7.5v12c0 4.143 3.358 7.5 7.5 7.5s7.5-3.357 7.5-7.5v-12c0-4.143-3.358-7.5-7.5-7.5z"/><path d="m169.892 261.845c-3.123-2.721-7.861-2.396-10.582.727-2.729 3.133-6.669 4.929-10.81 4.929s-8.081-1.796-10.81-4.929c-2.721-3.122-7.459-3.447-10.582-.727-3.123 2.722-3.448 7.459-.727 10.582 5.579 6.401 13.641 10.073 22.119 10.073s16.54-3.672 22.119-10.073c2.721-3.123 2.396-7.861-.727-10.582z"/></g></g></svg>