<svg id="Capa_1" enable-background="new 0 0 497 497" height="512" viewBox="0 0 497 497" width="512" xmlns="http://www.w3.org/2000/svg"><g><g><path d="m345.639 77.466c-3.36-8.853-11.065-15.142-20.124-16.931-1.722-.34-3.487-.535-5.287-.535-5.862 0-11.568 1.893-16.268 5.397l-92.958 69.32h-93.27-72.328c-12.626 0-23.975 7.803-28.394 19.631-22.68 60.703-22.68 127.601 0 188.304 4.419 11.828 15.768 19.631 28.394 19.631h72.328 93.27l92.958 69.32c4.7 3.504 10.405 5.397 16.268 5.397 1.802 0 3.569-.195 5.292-.536 9.057-1.791 16.759-8.079 20.119-16.93 41.815-110.162 41.815-231.906 0-342.068z" fill="#2ed0fc"/><g fill="#1cbbea"><path d="m125.609 361.114c-23.107-23.107-37.165-53.732-39.63-86.316-1.369-18.093-1.321-36.268.142-54.356 2.618-32.368 16.621-62.762 39.583-85.724h-21.627-58.673c-12.626 0-23.975 7.803-28.394 19.631-22.68 60.703-22.68 127.601 0 188.304 4.419 11.828 15.768 19.631 28.394 19.631h58.674 22.7z"/><path d="m269.665 248.496c0-69.136 20.484-133.605 55.849-187.96-1.722-.34-3.487-.535-5.287-.535-5.862 0-11.568 1.893-16.268 5.398l-92.958 69.32v227.565l92.958 69.32c4.7 3.504 10.405 5.398 16.268 5.398 1.802 0 3.569-.196 5.292-.536-35.368-54.359-55.854-118.831-55.854-187.97z"/></g></g><path d="m482 233.5c-6.432 0-53.732 0-60.117 0-8.284 0-15 6.716-15 15s6.716 15 15 15h60.117c8.284 0 15-6.716 15-15s-6.716-15-15-15z" fill="#ea5b70"/><g><g><g><ellipse cx="35.944" cy="274.063" fill="#ff8e9e" rx="29.355" ry="23.377"/></g><g><ellipse cx="175.058" cy="274.063" fill="#ff8e9e" rx="29.355" ry="23.377"/></g></g></g><g fill="#313d40"><path d="m53.052 232.06c-4.142 0-7.5 3.357-7.5 7.5v12c0 4.143 3.358 7.5 7.5 7.5s7.5-3.357 7.5-7.5v-12c0-4.143-3.358-7.5-7.5-7.5z"/><path d="m157.95 232.06c-4.142 0-7.5 3.357-7.5 7.5v12c0 4.143 3.358 7.5 7.5 7.5s7.5-3.357 7.5-7.5v-12c0-4.143-3.358-7.5-7.5-7.5z"/><path d="m126.893 245.549c-3.123-2.721-7.861-2.396-10.582.727-2.729 3.132-6.669 4.928-10.81 4.928s-8.081-1.796-10.81-4.928c-2.721-3.122-7.459-3.447-10.582-.727-3.123 2.722-3.448 7.459-.727 10.582 5.579 6.401 13.641 10.072 22.119 10.072s16.54-3.671 22.119-10.072c2.721-3.123 2.396-7.86-.727-10.582z"/></g></g></svg>