<svg id="Capa_1" enable-background="new 0 0 497.006 497.006" height="512" viewBox="0 0 497.006 497.006" width="512" xmlns="http://www.w3.org/2000/svg"><g><g><path d="m345.639 77.469c-3.36-8.853-11.065-15.142-20.124-16.931-1.722-.34-3.487-.535-5.287-.535-5.862 0-11.568 1.893-16.268 5.397l-92.958 69.32h-93.27-72.328c-12.626 0-23.975 7.803-28.394 19.631-22.68 60.703-22.68 127.601 0 188.304 4.419 11.828 15.768 19.631 28.394 19.631h72.328 93.27l92.958 69.32c4.7 3.504 10.405 5.397 16.268 5.397 1.802 0 3.569-.195 5.292-.536 9.057-1.791 16.759-8.079 20.119-16.93 41.815-110.162 41.815-231.906 0-342.068z" fill="#2ed0fc"/><g fill="#1cbbea"><path d="m125.609 361.117c-23.107-23.107-37.165-53.732-39.63-86.316-1.369-18.093-1.321-36.268.142-54.356 2.618-32.368 16.621-62.762 39.583-85.724h-21.627-58.673c-12.626 0-23.975 7.803-28.394 19.631-22.68 60.703-22.68 127.601 0 188.304 4.419 11.828 15.768 19.631 28.394 19.631h58.674 22.7z"/><path d="m269.665 248.498c0-69.136 20.484-133.605 55.849-187.96-1.722-.34-3.487-.535-5.287-.535-5.862 0-11.568 1.893-16.268 5.398l-92.958 69.32v227.565l92.958 69.32c4.7 3.504 10.405 5.398 16.268 5.398 1.802 0 3.569-.196 5.292-.536-35.368-54.358-55.854-118.83-55.854-187.97z"/></g></g><g fill="#7ce3ff"><path d="m486.312 111.36c-1.282-8.183-8.952-13.771-17.142-12.497-8.184 1.282-13.779 8.957-12.497 17.142 13.776 87.919 13.776 177.077 0 264.996-1.282 8.185 4.313 15.859 12.497 17.142.787.123 1.569.183 2.341.183 7.26 0 13.642-5.282 14.801-12.68 14.258-91.002 14.258-183.285 0-274.286z"/><path d="m416.94 157.215c-8.248.778-14.302 8.096-13.524 16.343 4.694 49.73 4.694 100.16 0 149.889-.779 8.248 5.276 15.565 13.524 16.344.479.045.955.067 1.427.067 7.648 0 14.183-5.823 14.916-13.592 4.871-51.6 4.871-103.926 0-155.527-.779-8.247-8.086-14.299-16.343-13.524z"/></g><g><g><g><ellipse cx="35.944" cy="274.066" fill="#ff8e9e" rx="29.355" ry="23.377"/></g><g><ellipse cx="175.058" cy="274.066" fill="#ff8e9e" rx="29.355" ry="23.377"/></g></g></g><g fill="#313d40"><path d="m53.052 232.062c-4.142 0-7.5 3.357-7.5 7.5v12c0 4.143 3.358 7.5 7.5 7.5s7.5-3.357 7.5-7.5v-12c0-4.142-3.358-7.5-7.5-7.5z"/><path d="m157.95 232.062c-4.142 0-7.5 3.357-7.5 7.5v12c0 4.143 3.358 7.5 7.5 7.5s7.5-3.357 7.5-7.5v-12c0-4.142-3.358-7.5-7.5-7.5z"/><path d="m126.893 245.552c-3.123-2.721-7.861-2.396-10.582.727-2.729 3.132-6.669 4.928-10.81 4.928s-8.081-1.796-10.81-4.928c-2.721-3.122-7.459-3.447-10.582-.727-3.123 2.722-3.448 7.459-.727 10.582 5.579 6.401 13.641 10.072 22.119 10.072s16.54-3.671 22.119-10.072c2.721-3.123 2.396-7.861-.727-10.582z"/></g></g></svg>