<svg id="Capa_1" enable-background="new 0 0 497 497" height="512" viewBox="0 0 497 497" width="512" xmlns="http://www.w3.org/2000/svg"><g><g><path d="m361.487 30h-41.326-184.648c-58.273 0-105.513 47.24-105.513 105.513v225.974c0 58.273 47.24 105.513 105.513 105.513h184.648 41.326c58.273 0 105.513-47.24 105.513-105.513v-225.974c0-58.273-47.24-105.513-105.513-105.513z" fill="#b28ae4"/><path d="m197.063 343.901v-190.802c0-67.986 55.113-123.099 123.098-123.099h-184.648c-58.273 0-105.513 47.24-105.513 105.513v225.974c0 58.273 47.24 105.513 105.513 105.513h184.648c-67.985 0-123.098-55.113-123.098-123.099z" fill="#976bcf"/></g><g><g><g><ellipse cx="168.943" cy="144.36" fill="#ff8e9e" rx="29.355" ry="23.377"/></g><g><ellipse cx="328.057" cy="144.36" fill="#ff8e9e" rx="29.355" ry="23.377"/></g></g></g><g fill="#313d40"><path d="m186.051 102.356c-4.142 0-7.5 3.357-7.5 7.5v12c0 4.143 3.358 7.5 7.5 7.5s7.5-3.357 7.5-7.5v-12c0-4.142-3.358-7.5-7.5-7.5z"/><path d="m310.949 102.356c-4.142 0-7.5 3.357-7.5 7.5v12c0 4.143 3.358 7.5 7.5 7.5s7.5-3.357 7.5-7.5v-12c0-4.142-3.358-7.5-7.5-7.5z"/><path d="m269.892 115.845c-3.123-2.721-7.861-2.396-10.582.727-2.729 3.133-6.669 4.929-10.81 4.929s-8.081-1.796-10.81-4.929c-2.721-3.122-7.459-3.447-10.582-.727-3.123 2.722-3.448 7.459-.727 10.582 5.579 6.401 13.641 10.073 22.119 10.073s16.54-3.672 22.119-10.073c2.721-3.123 2.396-7.861-.727-10.582z"/></g><g><path d="m482 276.773h-63.868l-3.509-7.928c-5.134-11.6-21.45-11.918-27.113-.677-.417.828-2.498 4.959-5.2 10.323-6.264 12.435-15.87 31.507-15.87 31.507l-53.28-125.92c-5.33-12.595-23.612-12.064-28.03 1.059l-55.883 165.969c-.896-1.779-17.351-34.445-32.184-63.893l-15.048 15.808 15.541 51.856c11.048 21.933 20.451 40.601 21.052 41.794 5.992 11.895 23.366 10.65 27.612-1.962l54.722-162.52 52.547 124.191c5.249 12.409 23.114 12.12 27.865-.594l18.316-49.014h82.33c8.284 0 15-6.716 15-15s-6.716-14.999-15-14.999z" fill="#b9f0ff"/><path d="m197.063 287.213c-11.537-22.903-22.094-43.86-23.587-46.825-5.663-11.241-21.978-10.923-27.113.677l-15.805 35.709h-33.592-81.966c-8.284 0-15 6.716-15 15s6.716 15 15 15h97.078c3.066 6.086 5.504 10.926 5.959 11.83 5.663 11.241 21.978 10.923 27.113-.677l8.887-20.079c0-.001.001-.002.002-.003l6.917-15.627c1.28 2.542 20.654 41.002 36.6 72.659-.32-3.616-.493-7.275-.493-10.976z" fill="#7ce3ff"/></g></g></svg>