<svg id="Capa_1" enable-background="new 0 0 497 497" height="512" viewBox="0 0 497 497" width="512" xmlns="http://www.w3.org/2000/svg"><g><g fill="#b0ebd8"><path d="m55 152.834c-5.225-2.763-11.178-4.334-17.5-4.334-20.711 0-37.5 16.789-37.5 37.5v125c0 20.711 16.789 37.5 37.5 37.5 6.322 0 12.275-1.571 17.5-4.334 11.892-6.288 20-18.777 20-33.166v-125c0-14.389-8.108-26.878-20-33.166z"/><path d="m371.5 97.834c-5.225-2.763-11.178-4.334-17.5-4.334-20.711 0-37.5 16.789-37.5 37.5v235c0 20.711 16.789 37.5 37.5 37.5 6.322 0 12.275-1.571 17.5-4.334 11.892-6.288 20-18.777 20-33.166v-235c0-14.389-8.108-26.878-20-33.166z"/><path d="m160.5 62.834c-5.225-2.763-11.178-4.334-17.5-4.334-20.711 0-37.5 16.789-37.5 37.5v305c0 20.711 16.789 37.5 37.5 37.5 6.322 0 12.275-1.571 17.5-4.334 11.892-6.288 20-18.777 20-33.166v-305c0-14.389-8.108-26.878-20-33.166z"/><path d="m266 132.834c-5.225-2.763-11.178-4.334-17.5-4.334-20.711 0-37.5 16.789-37.5 37.5v165c0 20.711 16.789 37.5 37.5 37.5 6.322 0 12.275-1.571 17.5-4.334 11.892-6.288 20-18.777 20-33.166v-165c0-14.389-8.108-26.878-20-33.166z"/><path d="m477 192.834c-5.225-2.763-11.178-4.334-17.5-4.334-20.711 0-37.5 16.789-37.5 37.5v45c0 20.711 16.789 37.5 37.5 37.5 6.322 0 12.275-1.571 17.5-4.334 11.892-6.288 20-18.777 20-33.166v-45c0-14.389-8.108-26.878-20-33.166z"/></g><g fill="#5fd9b3"><path d="m55 152.834c-5.225-2.763-11.178-4.334-17.5-4.334-20.711 0-37.5 16.789-37.5 37.5v125c0 20.711 16.789 37.5 37.5 37.5 6.322 0 12.275-1.571 17.5-4.334-11.892-6.288-20-18.777-20-33.166v-125c0-14.389 8.108-26.878 20-33.166z"/><path d="m371.5 97.834c-5.225-2.763-11.178-4.334-17.5-4.334-20.711 0-37.5 16.789-37.5 37.5v235c0 20.711 16.789 37.5 37.5 37.5 6.322 0 12.275-1.571 17.5-4.334-11.892-6.288-20-18.777-20-33.166v-235c0-14.389 8.108-26.878 20-33.166z"/><path d="m160.5 62.834c-5.225-2.763-11.178-4.334-17.5-4.334-20.711 0-37.5 16.789-37.5 37.5v305c0 20.711 16.789 37.5 37.5 37.5 6.322 0 12.275-1.571 17.5-4.334-11.892-6.288-20-18.777-20-33.166v-305c0-14.389 8.108-26.878 20-33.166z"/><path d="m266 132.834c-5.225-2.763-11.178-4.334-17.5-4.334-20.711 0-37.5 16.789-37.5 37.5v165c0 20.711 16.789 37.5 37.5 37.5 6.322 0 12.275-1.571 17.5-4.334-11.892-6.288-20-18.777-20-33.166v-165c0-14.389 8.108-26.878 20-33.166z"/><path d="m457 271v-45c0-14.389 8.108-26.878 20-33.166-5.225-2.763-11.178-4.334-17.5-4.334-20.711 0-37.5 16.789-37.5 37.5v45c0 20.711 16.789 37.5 37.5 37.5 6.322 0 12.275-1.571 17.5-4.334-11.892-6.288-20-18.777-20-33.166z"/></g><g><g><g><ellipse cx="138.943" cy="264.36" fill="#ff8e9e" rx="29.355" ry="23.377"/></g><g><ellipse cx="358.057" cy="264.36" fill="#ff8e9e" rx="29.355" ry="23.377"/></g></g></g><g fill="#313d40"><path d="m156.051 222.356c-4.143 0-7.5 3.358-7.5 7.5v12c0 4.142 3.357 7.5 7.5 7.5s7.5-3.358 7.5-7.5v-12c0-4.142-3.358-7.5-7.5-7.5z"/><path d="m340.948 222.356c-4.143 0-7.5 3.358-7.5 7.5v12c0 4.142 3.357 7.5 7.5 7.5s7.5-3.358 7.5-7.5v-12c0-4.142-3.357-7.5-7.5-7.5z"/><path d="m269.892 235.845c-3.125-2.721-7.862-2.396-10.582.727-2.729 3.131-6.669 4.928-10.81 4.928s-8.08-1.796-10.81-4.928c-2.722-3.123-7.46-3.448-10.582-.727-3.122 2.722-3.448 7.459-.727 10.582 5.579 6.402 13.641 10.073 22.118 10.073s16.539-3.671 22.118-10.073c2.723-3.123 2.397-7.86-.725-10.582z"/></g></g></svg>