<svg id="Capa_1" enable-background="new 0 0 497 497" height="512" viewBox="0 0 497 497" width="512" xmlns="http://www.w3.org/2000/svg"><g><g><path d="m199.54 132.371h97.92c12.426 0 22.5-10.074 22.5-22.5v-18.871c0-12.426-10.074-22.5-22.5-22.5h-97.92c-12.426 0-22.5 10.074-22.5 22.5v18.871c0 12.426 10.074 22.5 22.5 22.5z" fill="#5fd9b3"/><path d="m247.04 109.87c0-22.848 18.522-41.37 41.37-41.37h-88.87c-12.426 0-22.5 10.074-22.5 22.5v18.871c0 12.426 10.074 22.5 22.5 22.5h47.5z" fill="#00ce8e"/></g><g><path d="m199.54 329.79h97.92c12.426 0 22.5-10.074 22.5-22.5v-18.871c0-12.426-10.074-22.5-22.5-22.5h-97.92c-12.426 0-22.5 10.074-22.5 22.5v18.871c0 12.427 10.074 22.5 22.5 22.5z" fill="#ff8f71"/><path d="m199.54 265.919c-12.426 0-22.5 10.074-22.5 22.5v18.871c0 12.426 10.074 22.5 22.5 22.5h47.5v-63.871z" fill="#ff6f4d"/></g><g><path d="m199.54 231.081h97.92c12.426 0 22.5-10.074 22.5-22.5v-18.871c0-12.426-10.074-22.5-22.5-22.5h-97.92c-12.426 0-22.5 10.074-22.5 22.5v18.871c0 12.426 10.074 22.5 22.5 22.5z" fill="#ffce71"/><path d="m199.54 167.21c-12.426 0-22.5 10.074-22.5 22.5v18.871c0 12.426 10.074 22.5 22.5 22.5h47.5v-63.871z" fill="#ffb357"/></g><g><path d="m199.54 428.5h97.92c12.426 0 22.5-10.074 22.5-22.5v-18.871c0-12.426-10.074-22.5-22.5-22.5h-97.92c-12.426 0-22.5 10.074-22.5 22.5v18.871c0 12.426 10.074 22.5 22.5 22.5z" fill="#ff8e9e"/><path d="m247.04 387.13v-22.501h-47.5c-12.426 0-22.5 10.074-22.5 22.5v18.871c0 12.426 10.074 22.5 22.5 22.5h88.87c-22.848 0-41.37-18.522-41.37-41.37z" fill="#ea5b70"/></g><g><path d="m0 288.419v18.871c0 12.426 10.074 22.5 22.5 22.5h97.921c12.426 0 22.5-10.074 22.5-22.5v-18.871c0-12.426-10.074-22.5-22.5-22.5h-97.921c-12.426 0-22.5 10.074-22.5 22.5z" fill="#ff6f4d"/><path d="m22.5 428.5h97.921c12.426 0 22.5-10.074 22.5-22.5v-18.871c0-12.426-10.074-22.5-22.5-22.5h-97.921c-12.426 0-22.5 10.074-22.5 22.5v18.871c0 12.426 10.074 22.5 22.5 22.5z" fill="#ea5b70"/></g><g><path d="m497 208.581v-18.871c0-12.426-10.074-22.5-22.5-22.5h-97.921c-12.426 0-22.5 10.074-22.5 22.5v18.871c0 12.426 10.074 22.5 22.5 22.5h97.921c12.426 0 22.5-10.074 22.5-22.5z" fill="#ffce71"/><path d="m474.5 265.919h-97.921c-12.426 0-22.5 10.074-22.5 22.5v18.871c0 12.426 10.074 22.5 22.5 22.5h97.921c12.426 0 22.5-10.074 22.5-22.5v-18.871c0-12.426-10.074-22.5-22.5-22.5z" fill="#ff8f71"/><path d="m376.579 428.5h97.921c12.426 0 22.5-10.074 22.5-22.5v-18.871c0-12.426-10.074-22.5-22.5-22.5h-97.921c-12.426 0-22.5 10.074-22.5 22.5v18.871c0 12.426 10.074 22.5 22.5 22.5z" fill="#ff8e9e"/></g><g fill="#313d40"><path d="m201.051 282.06c-4.143 0-7.5 3.358-7.5 7.5v12c0 4.142 3.357 7.5 7.5 7.5s7.5-3.358 7.5-7.5v-12c0-4.142-3.358-7.5-7.5-7.5z"/><path d="m295.948 282.06c-4.143 0-7.5 3.358-7.5 7.5v12c0 4.142 3.357 7.5 7.5 7.5s7.5-3.358 7.5-7.5v-12c0-4.142-3.357-7.5-7.5-7.5z"/><path d="m269.891 295.548c-3.122-2.721-7.861-2.396-10.581.727-2.729 3.132-6.669 4.928-10.81 4.928s-8.08-1.796-10.81-4.928c-2.721-3.123-7.459-3.448-10.581-.727-3.123 2.721-3.449 7.458-.728 10.582 5.578 6.402 13.641 10.074 22.118 10.074s16.54-3.672 22.118-10.074c2.723-3.123 2.397-7.86-.726-10.582z"/></g></g></svg>