<svg id="Capa_1" enable-background="new 0 0 497 497" height="512" viewBox="0 0 497 497" width="512" xmlns="http://www.w3.org/2000/svg"><g><g><path d="m361.487 0h-41.326-184.648c-58.273 0-105.513 47.196-105.513 105.416v286.169c0 58.219 47.24 105.415 105.513 105.415h184.648 41.326c58.273 0 105.513-47.196 105.513-105.416v-286.168c0-58.22-47.24-105.416-105.513-105.416z" fill="#b28ae4"/><path d="m197.063 374.015v-251.03c0-67.923 55.113-122.985 123.098-122.985h-184.648c-58.273 0-105.513 47.196-105.513 105.416v286.169c0 58.219 47.24 105.415 105.513 105.415h184.648c-67.985 0-123.098-55.062-123.098-122.985z" fill="#976bcf"/></g><g fill="#ff8e9e"><path d="m199 90.423c-.031 9.896-10.13 17.886-22.556 17.847s-22.475-8.092-22.444-17.988 10.13-17.886 22.556-17.847c12.426.038 22.475 8.092 22.444 17.988z"/><path d="m298 90.714c-.031 9.896 10.017 17.949 22.444 17.988 12.426.039 22.525-7.951 22.556-17.847s-10.017-17.95-22.444-17.988c-12.426-.039-22.525 7.951-22.556 17.847z"/></g><g fill="#313d40"><path d="m184.5 52.935c-4.142 0-7.5 3.358-7.5 7.5v10c0 4.142 3.358 7.5 7.5 7.5s7.5-3.358 7.5-7.5v-10c0-4.142-3.358-7.5-7.5-7.5z"/><path d="m312.5 52.935c-4.142 0-7.5 3.358-7.5 7.5v10c0 4.142 3.358 7.5 7.5 7.5s7.5-3.358 7.5-7.5v-10c0-4.142-3.358-7.5-7.5-7.5z"/><path d="m268.235 71.669c-3.737-1.788-8.215-.206-10.001 3.531-1.666 3.484-5.291 5.735-9.234 5.735s-7.568-2.251-9.234-5.735c-1.787-3.737-6.266-5.318-10.001-3.531-3.737 1.787-5.318 6.265-3.531 10.001 4.144 8.666 13.08 14.265 22.766 14.265 9.687 0 18.623-5.599 22.766-14.265 1.787-3.737.206-8.215-3.531-10.001z"/></g><g><g><path d="m383.217 393.551c-23.746 0-259.884 0-269.434 0-10.611 0-19.245 8.635-19.245 19.245s8.634 19.245 19.245 19.245h269.434c10.61 0 19.245-8.635 19.245-19.245s-8.635-19.245-19.245-19.245z" fill="#efedff"/><path d="m383.217 393.551c-23.746 0-259.884 0-269.434 0-10.611 0-19.245 8.635-19.245 19.245s8.634 19.245 19.245 19.245h269.434c10.61 0 19.245-8.635 19.245-19.245s-8.635-19.245-19.245-19.245z" fill="#efedff"/><path d="m240.5 460.91c-15.944 0-28.868-12.925-28.868-28.868v-38.491c0-15.943 12.924-28.868 28.868-28.868s28.868 12.925 28.868 28.868v38.491c0 15.943-12.924 28.868-28.868 28.868z" fill="#2ed0fc"/></g><g><path d="m383.217 271.664c-8.83 0-255.589 0-269.434 0-10.611 0-19.245 8.635-19.245 19.245s8.634 19.245 19.245 19.245h269.434c10.61 0 19.245-8.635 19.245-19.245s-8.635-19.245-19.245-19.245z" fill="#efedff"/><path d="m329.446 339.023c-15.944 0-28.868-12.925-28.868-28.868v-38.491c0-15.943 12.924-28.868 28.868-28.868s28.868 12.925 28.868 28.868v38.491c0 15.943-12.925 28.868-28.868 28.868z" fill="#ffce71"/></g><g><path d="m383.217 149.778c-8.83 0-255.589 0-269.434 0-10.611 0-19.245 8.635-19.245 19.245 0 10.611 8.634 19.245 19.245 19.245h269.434c10.61 0 19.245-8.635 19.245-19.245 0-10.611-8.635-19.245-19.245-19.245z" fill="#efedff"/><path d="m168.195 217.136c-15.944 0-28.868-12.925-28.868-28.868v-38.491c0-15.943 12.924-28.868 28.868-28.868s28.868 12.925 28.868 28.868v38.491c0 15.943-12.925 28.868-28.868 28.868z" fill="#ff8e9e"/></g></g></g></svg>