<svg id="Capa_1" enable-background="new 0 0 497 497" height="512" viewBox="0 0 497 497" width="512" xmlns="http://www.w3.org/2000/svg"><g><g><path d="m391.487 0h-101.326-184.648c-58.273 0-105.513 47.196-105.513 105.416v286.169c0 58.219 47.24 105.415 105.513 105.415h184.648 101.326c58.273 0 105.513-47.196 105.513-105.416v-286.168c0-58.22-47.24-105.416-105.513-105.416z" fill="#7ce3ff"/><path d="m167.063 374.015v-251.03c0-67.923 55.113-122.985 123.098-122.985h-184.648c-58.273 0-105.513 47.196-105.513 105.416v286.169c0 58.219 47.24 105.415 105.513 105.415h184.648c-67.985 0-123.098-55.062-123.098-122.985z" fill="#2ed0fc"/></g><g><g><path d="m372.274 166.759v254.906c0 12.796 10.412 23.208 23.208 23.208 12.795 0 23.208-10.412 23.208-23.208 0-11.586 0-226.98 0-254.906 0-12.794-10.412-23.208-23.208-23.208s-23.208 10.413-23.208 23.208z" fill="#4293dd"/><path d="m453.5 308.859c0 19.226-15.586 34.811-34.811 34.811h-46.415c-19.226 0-34.811-15.585-34.811-34.811s15.586-34.811 34.811-34.811h46.415c19.225-.001 34.811 15.584 34.811 34.811z" fill="#fce3a0"/></g><g><path d="m225.292 166.759v254.906c0 12.796 10.412 23.208 23.208 23.208 12.795 0 23.208-10.412 23.208-23.208 0-10.483 0-237.812 0-254.906 0-12.794-10.412-23.208-23.208-23.208-12.795 0-23.208 10.413-23.208 23.208z" fill="#4293dd"/><path d="m306.519 231.601c0 19.226-15.586 34.811-34.811 34.811h-46.415c-19.226 0-34.811-15.585-34.811-34.811s15.586-34.811 34.811-34.811h46.415c19.225-.001 34.811 15.584 34.811 34.811z" fill="#fce3a0"/></g><g><path d="m78.311 166.759v254.906c0 12.796 10.412 23.208 23.208 23.208s23.208-10.412 23.208-23.208c0-10.483 0-237.812 0-254.906 0-12.794-10.412-23.208-23.208-23.208s-23.208 10.413-23.208 23.208z" fill="#4293dd"/><path d="m159.538 356.05c0 19.226-15.586 34.811-34.811 34.811h-46.416c-19.226 0-34.811-15.585-34.811-34.811s15.586-34.811 34.811-34.811h46.415c19.226 0 34.812 15.585 34.812 34.811z" fill="#fce3a0"/></g></g><g><g><g><ellipse cx="168.943" cy="114.36" fill="#ff8e9e" rx="29.355" ry="23.377"/></g><g><ellipse cx="328.057" cy="114.36" fill="#ff8e9e" rx="29.355" ry="23.377"/></g></g></g><g fill="#313d40"><path d="m186.051 72.356c-4.143 0-7.5 3.358-7.5 7.5v12c0 4.142 3.357 7.5 7.5 7.5s7.5-3.358 7.5-7.5v-12c0-4.142-3.358-7.5-7.5-7.5z"/><path d="m310.948 72.356c-4.143 0-7.5 3.358-7.5 7.5v12c0 4.142 3.357 7.5 7.5 7.5s7.5-3.358 7.5-7.5v-12c0-4.142-3.357-7.5-7.5-7.5z"/><path d="m269.891 85.845c-3.122-2.721-7.861-2.396-10.581.727-2.729 3.132-6.669 4.928-10.81 4.928s-8.08-1.796-10.81-4.928c-2.721-3.123-7.459-3.448-10.581-.727-3.123 2.721-3.449 7.458-.728 10.582 5.578 6.402 13.641 10.074 22.118 10.074s16.54-3.672 22.118-10.074c2.723-3.124 2.397-7.861-.726-10.582z"/></g></g></svg>