<svg id="Capa_1" enable-background="new 0 0 504.5 504.5" height="512" viewBox="0 0 504.5 504.5" width="512" xmlns="http://www.w3.org/2000/svg"><g><g><path d="m252.25 7.5c-53.382 0-96.656 43.274-96.656 96.656v99.344l96.656 40 96.656-40v-99.344c0-37.131-20.938-69.372-51.65-85.561-13.442-7.085-28.756-11.095-45.006-11.095z" fill="#ff8e9e"/><path d="m297.255 18.595c-13.441-7.084-28.755-11.095-45.005-11.095-53.382 0-96.656 43.274-96.656 96.656v99.344h90v-99.344c0-37.132 20.948-69.373 51.661-85.561z" fill="#ea5b70"/></g><g><path d="m348.906 203.5h-14.312-179c-34.156 0-61.844 26.863-61.844 60l158.5 40 89.5-22.587 69-17.413c0-33.137-27.689-60-61.844-60z" fill="#88c5fd"/><path d="m155.594 203.5c-34.156 0-61.844 26.863-61.844 60h179c0-33.137 27.688-60 61.844-60z" fill="#64b3fb"/></g><g><path d="m410.75 263.5h-74-243c-49.706 0-90 40.294-90 90v61c0 49.706 40.294 90 90 90h243 74c49.706 0 90-40.294 90-90v-61c0-49.706-40.294-90-90-90z" fill="#88c5fd"/><path d="m182.75 414.5v-61c0-49.706 40.294-90 90-90h-179c-49.706 0-90 40.294-90 90v61c0 49.706 40.294 90 90 90h179c-49.705 0-90-40.294-90-90z" fill="#64b3fb"/></g><g><path d="m410.75 323.5h-222.872-94.128c-16.542 0-30 13.458-30 30v61c0 16.542 13.458 30 30 30h94.128 222.872c16.542 0 30-13.458 30-30v-61c0-16.542-13.458-30-30-30z" fill="#4293dd"/><path d="m182.75 353.5c0-10.52 1.811-20.616 5.128-30h-94.128c-16.542 0-30 13.458-30 30v61c0 16.542 13.458 30 30 30h94.128c-3.317-9.384-5.128-19.48-5.128-30z" fill="#3085d1"/></g><g><ellipse cx="184.279" cy="160.935" fill="#ff8e9e" rx="28.685" ry="22.844"/><ellipse cx="320.221" cy="160.935" fill="#ffb5c0" rx="28.685" ry="22.844"/></g><g fill="#313d40"><path d="m199.801 119.856c-4.143 0-7.5 3.358-7.5 7.5v12c0 4.142 3.357 7.5 7.5 7.5s7.5-3.358 7.5-7.5v-12c0-4.142-3.358-7.5-7.5-7.5z"/><path d="m304.698 119.856c-4.143 0-7.5 3.358-7.5 7.5v12c0 4.142 3.357 7.5 7.5 7.5s7.5-3.358 7.5-7.5v-12c0-4.142-3.357-7.5-7.5-7.5z"/><path d="m273.642 133.345c-3.125-2.722-7.862-2.396-10.582.727-2.729 3.131-6.669 4.928-10.81 4.928s-8.08-1.796-10.81-4.928c-2.723-3.123-7.46-3.448-10.582-.727-3.122 2.722-3.448 7.459-.727 10.582 5.58 6.402 13.641 10.073 22.119 10.073s16.539-3.671 22.118-10.073c2.722-3.123 2.396-7.86-.726-10.582z"/></g><g><g fill="#ffb5c0"><path d="m294.588 351.867c-1.098-2.927-3.896-4.867-7.022-4.867s-5.925 1.939-7.022 4.867l-22.5 60c-1.454 3.878.511 8.201 4.389 9.656 3.88 1.454 8.201-.511 9.656-4.389l3.797-10.125h23.361l3.797 10.125c1.453 3.875 5.771 5.844 9.656 4.389 3.878-1.455 5.843-5.777 4.389-9.656zm-13.078 40.141 6.055-16.148 6.055 16.148z"/><path d="m357.113 354.5c0-4.142-3.357-7.5-7.5-7.5h-15c-4.143 0-7.5 3.358-7.5 7.5s3.357 7.5 7.5 7.5v45c-4.143 0-7.5 3.358-7.5 7.5s3.357 7.5 7.5 7.5h15c4.143 0 7.5-3.358 7.5-7.5s-3.357-7.5-7.5-7.5v-45c4.143 0 7.5-3.358 7.5-7.5z"/><path d="m226.042 347c-4.143 0-7.5 3.358-7.5 7.5v37.09l-30.452-41.525c-1.917-2.616-5.301-3.7-8.381-2.693-3.083 1.009-5.167 3.885-5.167 7.128v60c0 4.142 3.357 7.5 7.5 7.5s7.5-3.358 7.5-7.5v-37.09l30.452 41.525c1.439 1.964 3.705 3.065 6.049 3.065 4.108 0 7.499-3.33 7.499-7.5v-60c0-4.142-3.357-7.5-7.5-7.5z"/><path d="m123.75 347c-20.678 0-37.5 16.822-37.5 37.5s16.822 37.5 37.5 37.5 37.5-16.822 37.5-37.5-16.822-37.5-37.5-37.5zm0 60c-12.406 0-22.5-10.093-22.5-22.5s10.094-22.5 22.5-22.5 22.5 10.093 22.5 22.5-10.094 22.5-22.5 22.5z"/><path d="m416.054 409.197-12.405-12.405c8.642-4.29 14.601-13.229 14.601-23.542 0-14.474-11.733-26.25-26.155-26.25h-18.345c-4.143 0-7.5 3.358-7.5 7.5v60c0 4.142 3.357 7.5 7.5 7.5s7.5-3.358 7.5-7.5v-15h3.893l20.303 20.303c2.93 2.929 7.678 2.929 10.607 0 2.929-2.928 2.929-7.678.001-10.606zm-23.959-24.697h-10.845v-22.5h10.845c6.151 0 11.155 5.047 11.155 11.25s-5.004 11.25-11.155 11.25z"/></g></g><g fill="#ffb5c0"><path d="m138.03 25.36-32.93-23.93c-1.29-.94-2.81-1.43-4.4-1.43-2.4 0-4.67 1.16-6.08 3.09-1.181 1.62-1.65 3.6-1.34 5.58.319 1.98 1.38 3.72 3 4.9l32.93 23.92c1.29.94 2.82 1.44 4.41 1.44 2.39 0 4.66-1.16 6.069-3.09 2.431-3.35 1.691-8.05-1.659-10.48z"/><path d="m408.55 13.57c3.35-2.43 4.09-7.13 1.66-10.48-1.4-1.93-3.67-3.09-6.07-3.09-1.59 0-3.109.5-4.399 1.43l-32.941 23.93c-1.62 1.18-2.68 2.91-3 4.89-.31 1.98.17 3.96 1.35 5.58 1.4 1.94 3.67 3.1 6.07 3.1 1.59 0 3.11-.5 4.4-1.44z"/><path d="m117.819 93.21c0-4.14-3.359-7.5-7.489-7.5h-50.7c-4.14 0-7.5 3.36-7.5 7.5 0 4.13 3.36 7.5 7.5 7.5h50.7c4.13 0 7.489-3.37 7.489-7.5z"/><path d="m445.21 85.71h-50.7c-4.14 0-7.5 3.36-7.5 7.5 0 4.13 3.36 7.49 7.5 7.49h50.7c4.13 0 7.49-3.36 7.49-7.49 0-4.14-3.36-7.5-7.49-7.5z"/><path d="m418.55 172.84-32.93-23.92c-1.29-.94-2.811-1.44-4.4-1.44-2.4 0-4.67 1.16-6.07 3.1-2.439 3.34-1.689 8.04 1.65 10.47l32.94 23.93c1.29.94 2.81 1.43 4.399 1.43 2.4 0 4.67-1.15 6.07-3.09 2.431-3.35 1.69-8.05-1.659-10.48z"/><path d="m123.609 147.48c-1.59 0-3.109.5-4.399 1.44l-32.93 23.92c-3.341 2.43-4.091 7.13-1.66 10.48 1.41 1.94 3.68 3.09 6.069 3.09h.011c1.59 0 3.109-.49 4.399-1.43l32.931-23.93c1.619-1.18 2.689-2.91 3-4.89.31-1.98-.16-3.96-1.341-5.58-1.409-1.94-3.679-3.1-6.08-3.1z"/></g></g></svg>