<svg id="Capa_1" enable-background="new 0 0 497 497" height="512" viewBox="0 0 497 497" width="512" xmlns="http://www.w3.org/2000/svg"><g><g><path d="m248.745 124.723c-8.284 0-15 6.716-15 15v25h43.203l10-17.872-10-22.128z" fill="#9ea2e3"/><path d="m276.949 124.723v40h43.203l10-17.873-10-22.127z" fill="#d4d4ff"/><path d="m348.356 124.723h-28.203v40h43.203v-25c0-8.285-6.716-15-15-15z" fill="#efedff"/></g><path d="m203.745 164.723h-70v-20c0-11.046 8.954-20 20-20h30c11.046 0 20 8.954 20 20z" fill="#9ea2e3"/><g><path d="m370.856 49.723h-122.306l-41.25 22.5 41.25 22.5h122.305c12.406 0 22.5 10.093 22.5 22.5v70.605h45v-70.605c.001-37.22-30.28-67.5-67.499-67.5z" fill="#9ea2e3"/><path d="m248.55 49.723h-122.305c-37.22 0-67.5 30.28-67.5 67.5v70.605h45v-70.605c0-12.407 10.094-22.5 22.5-22.5h122.305c-15-11.25-15-33.75 0-45z" fill="#8288cb"/></g><g><path d="m435.856 175.329-.004-.001c-68.862-13.856-139.768-19.81-209.652-18.23-55.58 1.256-110.187 7.21-164.954 18.23l-.005.001c-39.108 8.233-65.447 44.977-60.685 84.657l17.565 146.379c2.801 23.343 22.604 40.912 46.115 40.912h164.265 204.361c23.511 0 43.313-17.568 46.115-40.912l17.462-145.518c4.78-39.838-21.414-76.814-60.583-85.518z" fill="#ffb357"/><path d="m179.324 403.649-18.732-156.099c-5.078-42.315 23.903-81.673 65.608-90.453.592-.119-.592.118 0 0-55.58 1.256-110.187 7.21-164.954 18.23l-.005.001c-39.108 8.233-65.447 44.977-60.685 84.657l17.565 146.379c2.801 23.343 22.604 40.912 46.115 40.912h164.265c-25.072.001-46.19-18.733-49.177-43.627z" fill="#fc8a3d"/></g><path d="m171.056 270.753h154.982v100h-154.982z" fill="#fc8a3d"/><g><g><g><ellipse cx="168.942" cy="227.834" fill="#ff8e9e" rx="29.355" ry="23.377"/></g><g><ellipse cx="328.055" cy="227.834" fill="#ff8e9e" rx="29.355" ry="23.377"/></g></g></g><g fill="#313d40"><path d="m186.05 185.831c-4.143 0-7.5 3.357-7.5 7.5v12c0 4.143 3.357 7.5 7.5 7.5s7.5-3.357 7.5-7.5v-12c0-4.143-3.357-7.5-7.5-7.5z"/><path d="m310.947 185.831c-4.143 0-7.5 3.357-7.5 7.5v12c0 4.143 3.357 7.5 7.5 7.5s7.5-3.357 7.5-7.5v-12c0-4.143-3.357-7.5-7.5-7.5z"/><path d="m269.891 199.319c-3.123-2.722-7.859-2.396-10.582.727-2.729 3.132-6.67 4.929-10.811 4.929s-8.08-1.796-10.81-4.928c-2.721-3.124-7.459-3.449-10.581-.728-3.123 2.721-3.449 7.459-.728 10.581 5.578 6.402 13.641 10.074 22.118 10.074s16.539-3.672 22.119-10.073c2.722-3.122 2.398-7.86-.725-10.582z"/></g><g><path d="m130.047 230.753c-19.749 0-38.009 6.366-52.849 17.151-22.511 16.359-37.151 42.892-37.151 72.849s14.64 56.49 37.151 72.849c14.841 10.785 33.1 17.151 52.849 17.151 49.706 0 90-40.294 90-90s-40.294-90-90-90z" fill="#676fb2"/><path d="m77.198 247.904c-22.511 16.359-37.151 42.892-37.151 72.849s14.64 56.49 37.151 72.849l72.849-72.849z" fill="#4c5699"/><path d="m130.047 350.753c-8.058 0-14.006-3.094-17.577-5.688-7.896-5.737-12.423-14.599-12.423-24.312s4.528-18.574 12.424-24.313c3.57-2.594 9.519-5.688 17.576-5.688 16.542 0 30 13.458 30 30s-13.458 30.001-30 30.001z" fill="#d4d4ff"/></g><g><path d="m365.03 230.753c-19.745 0-38 6.363-52.839 17.144-22.517 16.359-37.161 42.895-37.161 72.856s14.644 56.498 37.161 72.856c14.839 10.781 33.094 17.144 52.839 17.144 49.706 0 90-40.294 90-90s-40.295-90-90-90z" fill="#676fb2"/><path d="m312.191 247.897c-22.517 16.359-37.161 42.895-37.161 72.856s14.644 56.498 37.161 72.856l72.856-72.856z" fill="#4c5699"/><path d="m365.029 350.753c-8.057 0-14.002-3.091-17.571-5.685-7.899-5.738-12.429-14.601-12.429-24.315s4.53-18.577 12.429-24.315c3.568-2.593 9.516-5.685 17.571-5.685 16.542 0 30 13.458 30 30s-13.458 30-30 30z" fill="#d4d4ff"/></g></g></svg>