<svg id="Capa_1" enable-background="new 0 0 497 497" height="512" viewBox="0 0 497 497" width="512" xmlns="http://www.w3.org/2000/svg"><g><path d="m276.182 8.788c-11.715-11.717-30.711-11.717-42.426 0l-209.865 209.865 42.426 42.426 209.865-209.866c11.716-11.715 11.716-30.71 0-42.425z" fill="#8288cb"/><g><path d="m435.856 196.961-.004-.001c-68.862-15.287-139.768-21.856-209.652-20.113-55.58 1.386-110.187 7.955-164.954 20.113l-.005.001c-39.108 9.084-65.447 49.623-60.685 93.402l17.565 161.499c2.801 25.755 22.603 45.138 46.114 45.138h164.265 204.361c23.511 0 43.313-19.383 46.115-45.138l17.462-160.55c4.781-43.953-21.413-84.748-60.582-94.351z" fill="#ff8e9e"/><path d="m179.324 448.866-18.732-172.223c-5.078-46.686 23.903-90.109 65.608-99.796.592-.131-.592.13 0 0-55.58 1.386-110.187 7.955-164.954 20.113l-.005.001c-39.108 9.084-65.447 49.623-60.685 93.402l17.565 161.499c2.801 25.755 22.603 45.138 46.114 45.138h164.265c-25.071 0-46.189-20.67-49.176-48.134z" fill="#ea5b70"/></g><g><path d="m414.917 240.189h-338.702c-12.427 0-22.5 10.073-22.5 22.5s10.073 22.5 22.5 22.5h338.702c12.427 0 22.5-10.073 22.5-22.5s-10.073-22.5-22.5-22.5z" fill="#efedff"/><path d="m161.933 240.189h-85.718c-12.427 0-22.5 10.073-22.5 22.5s10.073 22.5 22.5 22.5h86.527l-2.15-17.915c-1.112-9.267-.589-18.392 1.341-27.085z" fill="#d4d4ff"/></g><path d="m374.144 262.689c-8.284 0-15 6.716-15 15v7.5h30v-7.5c0-8.285-6.716-15-15-15z" fill="#ea5b70"/><g fill="#9ea2e3"><path d="m309.517 255.189c-4.143 0-7.5 3.357-7.5 7.5v22.5h15v-22.5c0-4.143-3.358-7.5-7.5-7.5z"/><path d="m245.567 255.189c-4.143 0-7.5 3.357-7.5 7.5v22.5h15v-22.5c0-4.143-3.358-7.5-7.5-7.5z"/><path d="m181.615 255.189c-4.143 0-7.5 3.357-7.5 7.5v22.5h15v-22.5c0-4.143-3.357-7.5-7.5-7.5z"/><path d="m117.665 255.189c-4.143 0-7.5 3.357-7.5 7.5v22.5h15v-22.5c0-4.143-3.357-7.5-7.5-7.5z"/></g><g fill="#d34459"><path d="m112.621 315.188c-17.922 0-34.389 6.214-47.372 16.604-5.938 4.751-2.671 14.302 4.934 14.302h84.877c7.605 0 10.871-9.551 4.934-14.302-12.984-10.389-29.451-16.604-47.373-16.604z"/><path d="m188.526 390.937c-.017-8.233-6.827-14.844-15.061-14.844h-121.69c-8.233 0-15.043 6.61-15.06 14.844v.157.156c.017 8.233 6.827 14.844 15.06 14.844h121.69c8.233 0 15.044-6.61 15.061-14.844 0-.052 0-.104 0-.156.001-.052.001-.104 0-.157z"/><path d="m112.621 467c17.923 0 34.39-6.215 47.373-16.604 5.937-4.751 2.671-14.302-4.934-14.302h-84.879c-7.604 0-10.871 9.551-4.934 14.302 12.984 10.389 29.451 16.604 47.374 16.604z"/></g><g fill="#313d40"><path d="m186.099 300.653c-4.143 0-7.5 3.357-7.5 7.5v12c0 4.143 3.357 7.5 7.5 7.5s7.5-3.357 7.5-7.5v-12c0-4.142-3.358-7.5-7.5-7.5z"/><path d="m310.995 300.653c-4.143 0-7.5 3.357-7.5 7.5v12c0 4.143 3.357 7.5 7.5 7.5s7.5-3.357 7.5-7.5v-12c0-4.142-3.357-7.5-7.5-7.5z"/><path d="m269.938 314.143c-3.122-2.722-7.861-2.396-10.581.728-2.729 3.131-6.669 4.927-10.81 4.927s-8.081-1.796-10.81-4.927c-2.721-3.123-7.459-3.449-10.581-.728-3.123 2.721-3.449 7.459-.728 10.581 5.578 6.402 13.64 10.073 22.118 10.073s16.54-3.671 22.118-10.073c2.723-3.122 2.397-7.861-.726-10.581z"/></g><g><path d="m374.144 315.641c-24.853 0-45 20.147-45 45s20.147 45 45 45c9.718 0 18.709-3.091 26.065-8.329 4.1-2.919 7.687-6.507 10.606-10.606 5.238-7.356 8.329-16.346 8.329-26.064 0-24.854-20.148-45.001-45-45.001z" fill="#efedff"/><path d="m379.447 355.338c-2.929-2.929-7.677-2.929-10.606 0s-2.929 7.677 0 10.606l31.368 31.368c4.1-2.919 7.687-6.507 10.606-10.606z" fill="#9ea2e3"/></g></g></svg>