<svg id="Capa_1" enable-background="new 0 0 497 497" height="512" viewBox="0 0 497 497" width="512" xmlns="http://www.w3.org/2000/svg"><g><g><path d="m448.061 65.317h-231.643-167.479c-27.029 0-48.939 21.911-48.939 48.939v268.489c0 27.028 21.91 48.939 48.939 48.939h167.479 231.643c27.028 0 48.939-21.91 48.939-48.939v-268.489c0-27.028-21.911-48.939-48.939-48.939zm-117.945 228.381c-3.599 0-152.255 0-162.636 0-.219 0-.4 0-.493 0l-54.376-65.251 54.376-65.252h.493 162.636l54.376 65.252z" fill="#8288cb"/><path d="m167.479 382.744v-89.046c-.219 0-.4 0-.493 0l-54.376-65.251 54.376-65.252h.493v-48.939c0-27.028 21.91-48.939 48.939-48.939h-167.479c-27.029 0-48.939 21.911-48.939 48.939v268.489c0 27.028 21.91 48.939 48.939 48.939h167.479c-27.028-.001-48.939-21.911-48.939-48.94z" fill="#676fb2"/></g><g><path d="m407.279 130.569h-317.558c-13.514 0-24.469 10.955-24.469 24.469v146.816c0 13.514 10.955 24.469 24.469 24.469h317.558c13.514 0 24.469-10.955 24.469-24.469v-146.816c0-13.514-10.955-24.469-24.469-24.469zm-77.163 163.129c-3.675 0-158.622 0-163.129 0l-54.376-65.251 54.376-65.252h163.129l54.376 65.252z" fill="#ff8e9e"/><path d="m166.986 293.698-54.376-65.251 54.376-65.252h.493v-32.626h-77.758c-13.514 0-24.469 10.955-24.469 24.469v146.816c0 13.514 10.955 24.469 24.469 24.469h77.758v-32.626c-.219.001-.399.001-.493.001z" fill="#ea5b70"/></g><path d="m239.872 163.195c-36.441 0-70.551 0-72.886 0l55.624 65.252-55.624 65.251h72.886c15.53-17.329 24.991-40.205 24.991-65.251.001-25.047-9.46-47.923-24.991-65.252z" fill="#676fb2"/><g fill="#d4d4ff"><path d="m166.986 163.195c-35.98 0-65.252 29.272-65.252 65.252s29.272 65.252 65.252 65.252 65.252-29.272 65.252-65.252-29.272-65.252-65.252-65.252zm.001 97.877c-18.019 0-32.626-14.607-32.626-32.626s14.607-32.626 32.626-32.626 32.626 14.607 32.626 32.626-14.607 32.626-32.626 32.626z"/><g><path d="m188.188 243.752c-2.649-3.644-7.749-4.449-11.394-1.803-3.644 2.648-4.451 7.749-1.803 11.394l4.571 6.29c1.596 2.196 4.084 3.362 6.605 3.362 1.663 0 3.34-.508 4.789-1.559 3.644-2.648 4.451-7.749 1.803-11.394z"/><path d="m157.178 241.948c-3.644-2.648-8.745-1.841-11.394 1.803l-4.571 6.29c-2.648 3.645-1.841 8.746 1.803 11.394 1.449 1.052 3.126 1.559 4.789 1.559 2.521 0 5.009-1.166 6.605-3.362l4.571-6.29c2.649-3.645 1.841-8.746-1.803-11.394z"/><path d="m205.774 215.844c-1.391-4.285-5.998-6.626-10.277-5.237l-7.4 2.404c-4.284 1.392-6.629 5.993-5.237 10.277 1.119 3.447 4.317 5.638 7.755 5.638.836 0 1.685-.13 2.522-.401l7.4-2.404c4.285-1.392 6.63-5.993 5.237-10.277z"/><path d="m175.143 195.821c0-4.505-3.651-8.156-8.156-8.156s-8.156 3.651-8.156 8.156v7.783c0 4.505 3.651 8.156 8.156 8.156s8.156-3.651 8.156-8.156z"/><path d="m143.358 228.927c3.438 0 6.636-2.191 7.755-5.638 1.392-4.284-.953-8.885-5.237-10.277l-7.4-2.404c-4.279-1.389-8.886.952-10.277 5.237-1.392 4.284.953 8.885 5.237 10.277l7.4 2.404c.837.271 1.686.401 2.522.401z"/></g></g><g fill="#d4d4ff"><path d="m330.116 163.195c-35.98 0-65.252 29.272-65.252 65.252s29.272 65.252 65.252 65.252 65.252-29.272 65.252-65.252-29.273-65.252-65.252-65.252zm0 97.877c-18.019 0-32.626-14.607-32.626-32.626s14.607-32.626 32.626-32.626 32.626 14.607 32.626 32.626-14.607 32.626-32.626 32.626z"/><g><path d="m351.317 243.752c-2.649-3.644-7.749-4.449-11.394-1.803-3.644 2.648-4.451 7.749-1.803 11.394l4.571 6.29c1.596 2.196 4.084 3.362 6.605 3.362 1.663 0 3.34-.508 4.789-1.559 3.644-2.648 4.451-7.749 1.803-11.394z"/><path d="m320.308 241.948c-3.644-2.648-8.745-1.841-11.394 1.803l-4.571 6.29c-2.648 3.645-1.841 8.746 1.803 11.394 1.449 1.052 3.126 1.559 4.789 1.559 2.521 0 5.009-1.166 6.605-3.362l4.571-6.29c2.648-3.645 1.84-8.746-1.803-11.394z"/><path d="m368.903 215.844c-1.391-4.285-5.998-6.626-10.277-5.237l-7.4 2.404c-4.284 1.392-6.629 5.993-5.237 10.277 1.119 3.447 4.317 5.638 7.755 5.638.836 0 1.685-.13 2.522-.401l7.4-2.404c4.285-1.392 6.63-5.993 5.237-10.277z"/><path d="m338.272 195.821c0-4.505-3.651-8.156-8.156-8.156s-8.156 3.651-8.156 8.156v7.783c0 4.505 3.651 8.156 8.156 8.156s8.156-3.651 8.156-8.156z"/><path d="m306.487 228.927c3.438 0 6.636-2.191 7.755-5.638 1.392-4.284-.953-8.885-5.237-10.277l-7.4-2.404c-4.279-1.389-8.886.952-10.277 5.237-1.392 4.284.953 8.885 5.237 10.277l7.4 2.404c.837.271 1.686.401 2.522.401z"/></g></g><path d="m379.865 431.683-13.316-36.116c-8.694-23.58-31.163-39.244-56.295-39.244h-123.507c-25.132 0-47.601 15.663-56.295 39.244l-13.316 36.116h99.283z" fill="#676fb2"/><g><g><g><ellipse cx="170.435" cy="404.93" fill="#ff8e9e" rx="25.115" ry="20"/></g><g><ellipse cx="326.565" cy="404.93" fill="#ff8e9e" rx="25.115" ry="20"/></g></g></g><g fill="#313d40"><path d="m186.051 372.804c-4.143 0-7.5 3.357-7.5 7.5v12c0 4.143 3.357 7.5 7.5 7.5s7.5-3.357 7.5-7.5v-12c0-4.143-3.358-7.5-7.5-7.5z"/><path d="m310.948 372.804c-4.143 0-7.5 3.357-7.5 7.5v12c0 4.143 3.357 7.5 7.5 7.5s7.5-3.357 7.5-7.5v-12c0-4.143-3.357-7.5-7.5-7.5z"/><path d="m269.891 386.292c-3.122-2.721-7.861-2.396-10.581.728-2.729 3.132-6.669 4.928-10.81 4.928s-8.08-1.796-10.81-4.928c-2.721-3.124-7.459-3.448-10.581-.728-3.123 2.721-3.449 7.459-.728 10.581 5.578 6.402 13.641 10.074 22.118 10.074s16.54-3.672 22.118-10.074c2.723-3.122 2.397-7.86-.726-10.581z"/></g></g></svg>