<svg id="Capa_1" enable-background="new 0 0 497 497" height="512" viewBox="0 0 497 497" width="512" xmlns="http://www.w3.org/2000/svg"><g><g><path d="m388.5 0h-110-170c-33.137 0-60 26.863-60 60v377c0 33.137 26.863 60 60 60h170 110c33.137 0 60-26.863 60-60v-377c0-33.137-26.863-60-60-60z" fill="#ff8f71"/><path d="m218.5 437v-377c0-33.137 26.863-60 60-60h-170c-33.137 0-60 26.863-60 60v377c0 33.137 26.863 60 60 60h170c-33.137 0-60-26.863-60-60z" fill="#ff6f4d"/></g><g><path d="m248.5 242c-23.041 0-44.343 7.427-61.657 20.009-26.263 19.086-43.343 50.041-43.343 84.991 0 34.949 17.08 65.905 43.343 84.99 17.314 12.583 38.616 20.01 61.657 20.01 57.99 0 105-47.01 105-105s-47.01-105-105-105z" fill="#676fb2"/><path d="m186.843 262.009c-26.263 19.086-43.343 50.041-43.343 84.991 0 34.949 17.08 65.905 43.343 84.99l84.99-84.99z" fill="#4c5699"/><path d="m248.5 382c-9.401 0-16.34-3.609-20.507-6.637-9.211-6.693-14.493-17.032-14.493-28.363 0-11.332 5.283-21.67 14.494-28.365 4.166-3.026 11.105-6.635 20.506-6.635 19.299 0 35 15.701 35 35s-15.701 35-35 35z" fill="#d4d4ff"/></g><g><path d="m248.5 474.5c-70.304 0-127.5-57.196-127.5-127.5s57.196-127.5 127.5-127.5 127.5 57.196 127.5 127.5-57.196 127.5-127.5 127.5zm0-210c-45.49 0-82.5 37.01-82.5 82.5s37.01 82.5 82.5 82.5 82.5-37.01 82.5-82.5-37.01-82.5-82.5-82.5z" fill="#d4d4ff"/><path d="m166 347c0-62.628 45.389-114.854 105-125.512-7.306-1.306-14.825-1.988-22.5-1.988-70.304 0-127.5 57.196-127.5 127.5s57.196 127.5 127.5 127.5c7.675 0 15.194-.682 22.5-1.988-59.611-10.658-105-62.884-105-125.512z" fill="#9ea2e3"/></g><g><path d="m248.5 45c-14.208 0-27.345 4.58-38.022 12.339-16.196 11.769-26.728 30.859-26.728 52.411s10.532 40.641 26.728 52.411c10.677 7.759 23.814 12.339 38.022 12.339 35.76 0 64.75-28.99 64.75-64.75 0-35.761-28.99-64.75-64.75-64.75z" fill="#676fb2"/><path d="m210.478 57.339c-16.196 11.769-26.728 30.859-26.728 52.411s10.532 40.641 26.728 52.411l52.411-52.411z" fill="#4c5699"/><path d="m248.5 131.333c-5.797 0-10.076-2.226-12.646-4.093-5.68-4.128-8.938-10.503-8.938-17.491s3.258-13.363 8.938-17.491c2.569-1.866 6.848-4.092 12.645-4.092 11.901 0 21.583 9.682 21.583 21.583s-9.681 21.584-21.582 21.584z" fill="#d4d4ff"/></g><g><path d="m248.5 189.5c-44.555 0-79.75-36.306-79.75-79.75 0-43.429 35.182-79.75 79.75-79.75 43.975 0 79.75 35.775 79.75 79.75s-35.775 79.75-79.75 79.75zm0-129.5c-27.848 0-49.75 22.705-49.75 49.75 0 27.033 21.891 49.75 49.75 49.75 27.433 0 49.75-22.317 49.75-49.75s-22.317-49.75-49.75-49.75z" fill="#d4d4ff"/><path d="m198.814 112.271c-.042-.835-.064-1.676-.064-2.521 0-.846.021-1.687.064-2.523 1.177-37.316 28.284-68.894 64.661-75.817-4.854-.926-9.856-1.41-14.975-1.41-44.568 0-79.75 36.321-79.75 79.75 0 43.444 35.195 79.75 79.75 79.75 5.119 0 10.121-.484 14.975-1.41-36.37-6.922-63.486-38.49-64.661-75.819z" fill="#9ea2e3"/></g><g><g><g><ellipse cx="170.435" cy="214.929" fill="#ffb5c0" rx="25.115" ry="20"/></g><g><ellipse cx="326.565" cy="214.929" fill="#ffdbe0" rx="25.115" ry="20"/></g></g></g><g fill="#313d40"><path d="m186.051 182.804c-4.143 0-7.5 3.357-7.5 7.5v12c0 4.143 3.357 7.5 7.5 7.5s7.5-3.357 7.5-7.5v-12c0-4.143-3.358-7.5-7.5-7.5z"/><path d="m310.948 182.804c-4.143 0-7.5 3.357-7.5 7.5v12c0 4.143 3.357 7.5 7.5 7.5s7.5-3.357 7.5-7.5v-12c0-4.143-3.357-7.5-7.5-7.5z"/></g><g fill="#4c5699"><circle cx="108.5" cy="60" r="15"/><circle cx="388.5" cy="60" r="15"/><circle cx="108.5" cy="437" r="15"/><circle cx="388.5" cy="437" r="15"/></g></g></svg>