<svg id="Capa_1" enable-background="new 0 0 497 497" height="512" viewBox="0 0 497 497" width="512" xmlns="http://www.w3.org/2000/svg"><g><g><path d="m424.216 72.784c-25.202-25.203-54.477-43.843-85.7-55.956-89.007-34.527-193.89-15.887-265.732 55.956-97.045 97.045-97.045 254.387 0 351.432 71.843 71.843 176.726 90.483 265.732 55.956 31.224-12.112 60.498-30.753 85.7-55.956 97.045-97.045 97.045-254.387 0-351.432zm-191.634 191.633c-8.777-8.777-8.777-23.058 0-31.835s23.058-8.777 31.835 0 8.777 23.058 0 31.835-23.057 8.777-31.835 0z" fill="#8288cb"/><path d="m252.816 72.784c25.203-25.203 54.477-43.843 85.7-55.956-89.007-34.527-193.89-15.887-265.732 55.956-97.045 97.045-97.045 254.387 0 351.432 71.843 71.843 176.726 90.483 265.732 55.956-31.223-12.112-60.498-30.753-85.7-55.956-97.046-97.045-97.046-254.387 0-351.432z" fill="#676fb2"/><g><path d="m104.603 399.896c-1.92 0-3.839-.732-5.304-2.196-82.268-82.27-82.268-216.131 0-298.4 2.929-2.928 7.677-2.93 10.607 0 2.929 2.93 2.929 7.678 0 10.607-76.42 76.42-76.42 200.766 0 277.186 2.929 2.93 2.929 7.678 0 10.607-1.464 1.464-3.384 2.196-5.303 2.196z" fill="#4c5699"/></g><g><path d="m392.396 399.896c-1.919 0-3.839-.732-5.304-2.196-2.929-2.93-2.929-7.678 0-10.607 76.42-76.42 76.42-200.766 0-277.186-2.929-2.93-2.929-7.678 0-10.607 2.931-2.929 7.679-2.927 10.607 0 82.268 82.27 82.268 216.131 0 298.4-1.464 1.464-3.383 2.196-5.303 2.196z" fill="#4c5699"/></g><g><path d="m136.424 368.076c-1.919 0-3.839-.732-5.304-2.196-31.306-31.306-48.546-72.992-48.546-117.38s17.24-86.074 48.546-117.38c2.93-2.929 7.678-2.927 10.607 0 2.929 2.93 2.929 7.678 0 10.607-28.473 28.472-44.153 66.391-44.153 106.772s15.681 78.301 44.153 106.772c2.929 2.93 2.929 7.678 0 10.607-1.464 1.466-3.384 2.198-5.303 2.198z" fill="#4c5699"/></g><g><path d="m360.576 368.076c-1.92 0-3.839-.732-5.304-2.196-2.929-2.93-2.929-7.678 0-10.607 28.473-28.472 44.153-66.391 44.153-106.772s-15.681-78.301-44.153-106.772c-2.929-2.93-2.929-7.678 0-10.607 2.93-2.928 7.678-2.928 10.607 0 31.306 31.306 48.546 72.992 48.546 117.38s-17.24 86.074-48.546 117.38c-1.464 1.462-3.384 2.194-5.303 2.194z" fill="#4c5699"/></g><g><path d="m168.243 336.257c-1.92 0-3.839-.732-5.304-2.196-47.177-47.179-47.177-123.942 0-171.121 2.93-2.928 7.678-2.928 10.607 0 2.929 2.93 2.929 7.678 0 10.607-41.329 41.329-41.329 108.577 0 149.906 2.929 2.93 2.929 7.678 0 10.607-1.464 1.464-3.384 2.197-5.303 2.197z" fill="#4c5699"/></g><g><path d="m328.757 336.257c-1.919 0-3.839-.732-5.304-2.196-2.929-2.93-2.929-7.678 0-10.607 41.329-41.329 41.329-108.577 0-149.906-2.929-2.93-2.929-7.678 0-10.607 2.93-2.928 7.678-2.928 10.607 0 47.177 47.179 47.177 123.942 0 171.121-1.464 1.462-3.384 2.195-5.303 2.195z" fill="#4c5699"/></g><path d="m296.937 200.063c-26.708-26.708-70.165-26.708-96.874 0s-26.708 70.166 0 96.874 70.165 26.708 96.874 0 26.708-70.166 0-96.874zm-37.83 59.043c-5.849 5.849-15.365 5.849-21.213 0s-5.848-15.365 0-21.213c5.849-5.849 15.365-5.849 21.213 0s5.848 15.365 0 21.213z" fill="#d4d4ff"/></g><g><g><g><g><ellipse cx="168.943" cy="111.36" fill="#ff8e9e" rx="29.355" ry="23.377"/></g><g><ellipse cx="328.057" cy="111.36" fill="#ff8e9e" rx="29.355" ry="23.377"/></g></g></g><g fill="#313d40"><path d="m186.051 69.356c-4.143 0-7.5 3.357-7.5 7.5v12c0 4.143 3.357 7.5 7.5 7.5s7.5-3.357 7.5-7.5v-12c0-4.142-3.358-7.5-7.5-7.5z"/><path d="m310.948 69.356c-4.143 0-7.5 3.357-7.5 7.5v12c0 4.143 3.357 7.5 7.5 7.5s7.5-3.357 7.5-7.5v-12c0-4.142-3.357-7.5-7.5-7.5z"/><path d="m269.891 82.845c-3.122-2.722-7.861-2.396-10.581.728-2.729 3.132-6.669 4.928-10.81 4.928s-8.08-1.796-10.81-4.928c-2.721-3.124-7.459-3.449-10.581-.728-3.123 2.721-3.449 7.459-.728 10.581 5.578 6.402 13.641 10.074 22.118 10.074s16.54-3.672 22.118-10.074c2.723-3.122 2.397-7.861-.726-10.581z"/></g></g></g></svg>