<svg id="Capa_1" enable-background="new 0 0 497 497" height="512" viewBox="0 0 497 497" width="512" xmlns="http://www.w3.org/2000/svg"><g><g><path d="m437 41h-148.283-228.717c-33.137 0-60 26.863-60 60v295c0 33.137 26.863 60 60 60h228.717 148.283c33.137 0 60-26.863 60-60v-295c0-33.137-26.863-60-60-60z" fill="#7ce3ff"/><path d="m258.75 416.036v-.003-335.066-.003c0-18.379 12.365-34.678 29.967-39.964h-228.717c-33.137 0-60 26.863-60 60v295c0 33.137 26.863 60 60 60h228.717c-17.602-5.287-29.967-21.585-29.967-39.964z" fill="#2ed0fc"/></g><g><path d="m258.75 80.967c-18.39-6.448-38.157-9.967-58.75-9.967-98.031 0-177.5 79.469-177.5 177.5 0 98.03 79.469 177.5 177.5 177.5 20.593 0 40.36-3.519 58.75-9.967 69.155-24.251 118.75-90.095 118.75-167.533s-49.595-143.282-118.75-167.533zm-58.75 227.533c-33.084 0-60-26.916-60-60s26.916-60 60-60 60 26.916 60 60-26.916 60-60 60z" fill="#8288cb"/><path d="m140 248.5c0-77.438 49.595-143.282 118.75-167.533-18.39-6.448-38.157-9.967-58.75-9.967-98.031 0-177.5 79.469-177.5 177.5 0 98.03 79.469 177.5 177.5 177.5 20.593 0 40.36-3.519 58.75-9.967-69.155-24.251-118.75-90.095-118.75-167.533z" fill="#676fb2"/></g><g><circle cx="200" cy="248.5" fill="#ff8e9e" r="60"/><circle cx="200" cy="248.5" fill="#efedff" r="15"/></g><g fill="#313d40"><path d="m147.551 126.356c-4.143 0-7.5 3.357-7.5 7.5v12c0 4.143 3.357 7.5 7.5 7.5s7.5-3.357 7.5-7.5v-12c0-4.142-3.358-7.5-7.5-7.5z"/><path d="m252.448 126.356c-4.143 0-7.5 3.357-7.5 7.5v12c0 4.143 3.357 7.5 7.5 7.5s7.5-3.357 7.5-7.5v-12c0-4.142-3.357-7.5-7.5-7.5z"/><path d="m221.391 139.845c-3.122-2.721-7.86-2.396-10.581.728-5.725 6.569-15.899 6.564-21.619 0-2.721-3.124-7.46-3.448-10.581-.728-3.123 2.721-3.449 7.459-.728 10.581 11.702 13.431 32.545 13.419 44.236 0 2.722-3.122 2.396-7.861-.727-10.581z"/></g><g fill="#4c5699"><path d="m99.237 147.737c2.929-2.93 2.929-7.678 0-10.607-2.929-2.927-7.677-2.929-10.607 0-61.408 61.41-61.408 161.33 0 222.74 2.931 2.929 7.678 2.928 10.607 0 2.929-2.93 2.929-7.678 0-10.607-55.56-55.561-55.56-145.965 0-201.526z"/><path d="m311.37 137.13c-2.929-2.927-7.677-2.929-10.607 0-2.929 2.93-2.929 7.678 0 10.607 55.561 55.561 55.561 145.965 0 201.525-2.929 2.93-2.929 7.678 0 10.607 2.931 2.929 7.678 2.928 10.607 0 61.408-61.409 61.408-161.329 0-222.739z"/><path d="m87.557 248.5c0-30.086 11.682-58.338 32.895-79.549 2.929-2.93 2.929-7.678 0-10.607-2.93-2.928-7.678-2.928-10.607 0-24.045 24.045-37.287 56.063-37.287 90.156s13.242 66.111 37.287 90.156c2.93 2.928 7.677 2.928 10.607 0 2.929-2.93 2.929-7.678 0-10.607-21.214-21.211-32.895-49.463-32.895-79.549z"/><path d="m290.156 158.344c-2.932-2.929-7.68-2.928-10.607 0-2.929 2.93-2.929 7.678 0 10.607 21.213 21.211 32.895 49.463 32.895 79.549s-11.682 58.338-32.895 79.549c-2.929 2.93-2.929 7.678 0 10.607 2.931 2.929 7.678 2.928 10.607 0 24.045-24.045 37.287-56.063 37.287-90.156s-13.242-66.111-37.287-90.156z"/><path d="m141.664 179.557c-2.93-2.928-7.678-2.928-10.607 0-18.388 18.389-28.515 42.873-28.515 68.943s10.127 50.555 28.515 68.943c2.931 2.929 7.678 2.928 10.607 0 2.929-2.93 2.929-7.678 0-10.607-32.167-32.166-32.167-84.506 0-116.672 2.929-2.93 2.929-7.678 0-10.607z"/><path d="m268.943 179.557c-2.93-2.928-7.678-2.928-10.607 0-2.929 2.93-2.929 7.678 0 10.607 32.167 32.166 32.167 84.506 0 116.672-2.929 2.93-2.929 7.678 0 10.607 2.931 2.929 7.678 2.928 10.607 0 18.388-18.389 28.515-42.873 28.515-68.943s-10.127-50.555-28.515-68.943z"/></g><g><path d="m422.148 145.5-15 15v186.64l-25.069 25.07c-5.858 5.858-5.857 15.355 0 21.213 2.929 2.93 6.768 4.394 10.606 4.394s7.678-1.465 10.606-4.394l25.067-25.068c5.668-5.666 8.789-13.2 8.789-21.215v-186.64z" fill="#8288cb"/><g fill="#676fb2"><path d="m355.788 419.713c-11.716-11.716-11.716-30.71 0-42.426l9.338-9.338c11.715-11.717 30.711-11.717 42.426 0 11.716 11.716 11.716 30.71 0 42.426l-9.338 9.338c-11.713 11.715-30.711 11.717-42.426 0z"/><path d="m437 160.5h-29.5c-16.569 0-30-13.431-30-30v-29.5c0-16.569 13.431-30 30-30h29.5c16.569 0 30 13.431 30 30v29.5c0 16.569-13.431 30-30 30z"/></g></g></g></svg>