<svg id="Capa_1" enable-background="new 0 0 497 497" height="512" viewBox="0 0 497 497" width="512" xmlns="http://www.w3.org/2000/svg"><g><g><path d="m295.474 326.946c25.818 0 46.697-21.145 46.264-47.062-.424-25.37-21.652-45.48-47.026-45.48-17.74 0-35.043 5.497-49.53 15.735l51.734-194.445c1.006 7.523 2.643 14.643 5.28 22.41 12.422 36.58 38.881 52.986 51.791 60.454 34.977 20.234 58.509 58.052 58.509 101.366 0 64.63-52.393 117.022-117.022 117.022h-30z" fill="#ffce71"/><g transform="matrix(.259 -.966 .966 .259 34.681 329.798)"><ellipse cx="232.241" cy="142.3" fill="#ffb357" rx="146.348" ry="62.595"/><ellipse cx="232.241" cy="142.3" fill="#fc8a3d" rx="76.132" ry="21.364"/></g></g><circle cx="265.474" cy="326.946" fill="#d4d4ff" r="30"/><path d="m282.014 356.946h-122.27c-7.434 0-13.46 6.028-13.46 13.462s6.026 13.462 13.46 13.462h122.271c7.434 0 13.46-6.028 13.46-13.462s-6.027-13.462-13.461-13.462z" fill="#676fb2"/><g><g><path d="m304.754 497h-167.75c-16.569 0-30-13.431-30-30v-38.13l113.875-22.5 113.875 22.5v38.13c0 16.569-13.432 30-30 30z" fill="#d6948c"/><path d="m220.879 467v-38.13h-113.875v38.13c0 16.568 13.432 30 30 30h113.875c-16.569 0-30-13.432-30-30z" fill="#ce857a"/></g><g><path d="m334.754 383.87h-227.75c-12.426 0-22.5 10.073-22.5 22.5 0 12.426 10.074 22.5 22.5 22.5h227.75c12.426 0 22.5-10.074 22.5-22.5 0-12.427-10.074-22.5-22.5-22.5z" fill="#e8b5b1"/><path d="m220.879 383.87h-113.875c-12.426 0-22.5 10.073-22.5 22.5 0 12.426 10.074 22.5 22.5 22.5h113.875c-12.427-12.427-12.427-32.574 0-45z" fill="#d6948c"/></g></g><g fill="#313d40"><path d="m158.43 443.62c-4.143 0-7.5 3.357-7.5 7.5v12c0 4.143 3.357 7.5 7.5 7.5s7.5-3.357 7.5-7.5v-12c0-4.142-3.358-7.5-7.5-7.5z"/><path d="m283.327 443.62c-4.143 0-7.5 3.357-7.5 7.5v12c0 4.143 3.357 7.5 7.5 7.5s7.5-3.357 7.5-7.5v-12c0-4.142-3.357-7.5-7.5-7.5z"/><path d="m242.27 457.108c-3.123-2.721-7.861-2.396-10.581.728-2.729 3.132-6.669 4.928-10.81 4.928s-8.081-1.797-10.811-4.929c-2.723-3.124-7.46-3.447-10.582-.727-3.123 2.722-3.447 7.46-.727 10.582 5.58 6.401 13.642 10.073 22.119 10.073s16.54-3.672 22.118-10.074c2.723-3.122 2.397-7.86-.726-10.581z"/></g></g></svg>