<svg id="Capa_1" enable-background="new 0 0 497 497" height="512" viewBox="0 0 497 497" width="512" xmlns="http://www.w3.org/2000/svg"><g><g><path d="m350.397 313.361c50.102 0 81.416-54.237 56.364-97.627l-5.641-9.771-24.163-41.851-57.741-100.011c-12.991-22.501-9.983-17.133-18.312-31.559-25.051-43.39-87.679-43.39-112.73 0-5 8.66-98.733 170.854-105.857 183.191-25.051 43.39 6.263 97.627 56.365 97.627h125 86.715z" fill="#53a3ec"/><path d="m207.317 216.05c1.731-2.997 74.201-128.52 75.368-130.541 7.437-12.882 21.266-21.408 36.531-21.408-12.991-22.501-9.983-17.133-18.312-31.559-25.051-43.39-87.679-43.39-112.73 0-5 8.66-98.733 170.854-105.857 183.191-25.051 43.39 6.263 97.627 56.365 97.627h125c-50.102.001-81.416-53.92-56.365-97.31z" fill="#3085d1"/></g><g><g><g><ellipse cx="168.931" cy="230.252" fill="#ff8e9e" rx="29.355" ry="23.377"/></g><g><ellipse cx="328.044" cy="230.252" fill="#ff8e9e" rx="29.355" ry="23.377"/></g></g></g><g fill="#313d40"><path d="m193.539 207.985v-12c0-4.143-3.358-7.5-7.5-7.5s-7.5 3.357-7.5 7.5v12c0 4.143 3.358 7.5 7.5 7.5s7.5-3.357 7.5-7.5z"/><path d="m318.436 207.985v-12c0-4.143-3.358-7.5-7.5-7.5s-7.5 3.357-7.5 7.5v12c0 4.143 3.358 7.5 7.5 7.5s7.5-3.357 7.5-7.5z"/><path d="m248.488 222.629c8.478 0 16.54-3.672 22.119-10.073 2.721-3.123 2.396-7.86-.727-10.582s-7.86-2.396-10.582.727c-2.729 3.133-6.669 4.929-10.81 4.929s-8.081-1.796-10.81-4.929c-2.722-3.122-7.458-3.447-10.582-.727-3.123 2.722-3.448 7.459-.727 10.582 5.579 6.401 13.641 10.073 22.119 10.073z"/></g><g><path d="m370.691 353.69h-.007-119.367-125c-29.17 0-52.817 23.647-52.817 52.817v37.676c0 4.688.618 9.229 1.764 13.557 5.986 22.6 26.571 39.26 51.053 39.26h125 119.366.003c24.481-.001 45.064-16.662 51.05-39.26 1.146-4.327 1.764-8.869 1.764-13.557v-37.676c0-29.168-23.643-52.813-52.809-52.817z" fill="#53a3ec"/><path d="m200.264 457.74c-1.146-4.327-1.764-8.869-1.764-13.557v-37.676c0-29.17 23.647-52.817 52.817-52.817h-125c-29.17 0-52.817 23.647-52.817 52.817v37.676c0 4.688.618 9.229 1.764 13.557 5.986 22.6 26.571 39.26 51.053 39.26h125c-24.482 0-45.067-16.661-51.053-39.26z" fill="#3085d1"/></g></g></svg>