<svg id="Capa_1" enable-background="new 0 0 497 497" height="512" viewBox="0 0 497 497" width="512" xmlns="http://www.w3.org/2000/svg"><g><path d="m82.97 371.6-74.185 74.192c-5.625 5.626-8.785 13.255-8.785 21.21 0 16.568 13.43 29.998 29.997 29.998 7.955 0 15.585-3.16 21.21-8.785l74.192-74.186v-42.429z" fill="#676fb2"/><g><path d="m497 30c0-8.285-3.357-15.785-8.786-21.213-5.43-5.429-12.93-8.787-21.214-8.787h-17.159c-10.552 0-20.672 4.192-28.134 11.653-9.785 9.786-14.127 22.977-13.002 35.786-12.797-1.128-25.984 3.2-35.789 13.004-4.654 4.654-61.976 61.976-111.179 111.179v63.64h63.64c49.22-49.22 106.563-106.563 111.179-111.179 9.823-9.823 14.134-23.006 13.005-35.789 12.77 1.13 25.95-3.166 35.786-13.002 7.461-7.46 11.653-17.58 11.653-28.133z" fill="#d4d4ff"/><g><path d="m328.436 238.564c-.98-1.124-1.988-2.232-3.059-3.302l-63.639-63.64c-25.384-25.384-66.54-25.384-91.924 0l-134.853 134.854c-25.384 25.384-25.384 66.54 0 91.924l63.64 63.64c1.07 1.07 2.178 2.078 3.302 3.059 25.534 22.263 64.308 21.255 88.622-3.059l134.853-134.853c24.313-24.315 25.322-63.089 3.058-88.623z" fill="#64b3fb"/><path d="m104.961 376.476 134.853-134.853c24.314-24.313 63.088-25.322 88.622-3.058-.98-1.124-1.988-2.232-3.059-3.302l-63.639-63.64c-25.384-25.384-66.54-25.384-91.924 0l-134.853 134.853c-25.384 25.384-25.384 66.54 0 91.924l63.64 63.64c1.07 1.07 2.178 2.078 3.302 3.059-22.264-25.535-21.256-64.31 3.058-88.623z" fill="#4293dd"/></g></g><g><g><g><g><ellipse cx="93.781" cy="292.245" fill="#ff8e9e" rx="22.024" ry="27.656" transform="matrix(.707 -.707 .707 .707 -179.181 151.911)"/></g><g><ellipse cx="204.755" cy="403.219" fill="#ff8e9e" rx="22.024" ry="27.656" transform="matrix(.707 -.707 .707 .707 -225.147 262.882)"/></g></g></g><g fill="#313d40"><path d="m123.436 274.641-8.485 8.485c-2.929 2.93-2.929 7.678 0 10.607 2.931 2.929 7.678 2.928 10.607 0l8.485-8.485c2.929-2.93 2.929-7.678 0-10.607-2.93-2.928-7.678-2.928-10.607 0z"/><path d="m222.359 362.957c-2.93-2.928-7.678-2.928-10.607 0l-8.485 8.485c-2.929 2.93-2.929 7.678 0 10.607 2.931 2.929 7.678 2.928 10.607 0l8.485-8.485c2.929-2.929 2.929-7.677 0-10.607z"/><path d="m175.793 336.495c-8.725.585-15.882-6.619-15.288-15.288.283-4.133-2.837-7.713-6.969-7.996-4.126-.291-7.713 2.836-7.996 6.969-1.216 17.732 13.473 32.493 31.28 31.28 4.132-.283 7.252-3.863 6.969-7.996-.283-4.132-3.857-7.24-7.996-6.969z"/></g></g><g fill="#4c5699"><path d="m415.34 145.3 21.216-21.217.004-.003-63.64-63.64-.003.004-21.217 21.216z"/><path d="m336.704 100.296h29.999v90h-29.999z" transform="matrix(.707 -.707 .707 .707 .262 291.226)"/></g></g></svg>