<svg id="Capa_1" enable-background="new 0 0 497 497" height="512" viewBox="0 0 497 497" width="512" xmlns="http://www.w3.org/2000/svg"><g><path d="m437 98.5c-15.141 0-360.514 0-377 0-33.137 0-60 26.863-60 60v180c0 33.137 26.863 60 60 60h377c10.065 0 19.544-2.491 27.875-6.871 19.095-10.039 32.125-30.057 32.125-53.129v-180c0-33.266-27.039-60-60-60z" fill="#efedff"/><g fill="#d4d4ff"><path d="m62.257 338.5v-240h-2.257c-33.137 0-60 26.863-60 60v180c0 33.137 26.863 60 60 60h60c-33.137 0-57.743-26.863-57.743-60z"/><path d="m184.25 338.5v-240h-60v300h120c-33.137 0-60-26.863-60-60z"/><path d="m311.753 338.5v-240h-63.253v300h120c-33.137 0-56.747-26.863-56.747-60z"/><path d="m433.747 338.5v-240h-60.997v300h64.25c10.065 0 19.544-2.491 27.875-6.871-19.095-10.039-31.128-30.057-31.128-53.129z"/></g><g><path d="m155.41 98.5h-93.153v181.495c0 16.844 13.654 30.498 30.498 30.498h60.997c7.345 0 14.083-2.598 19.347-6.923 6.808-5.594 11.151-14.077 11.151-23.575v-181.495z" fill="#8288cb"/><path d="m124.604 229.164v-66.957c0-25.818 12.044-48.809 30.805-63.708h-93.152v181.495c0 16.844 13.654 30.498 30.498 30.498h60.997c7.345 0 14.083-2.598 19.347-6.923-28.557-12.62-48.495-41.176-48.495-74.405z" fill="#676fb2"/></g><g><path d="m404.906 98.5h-93.153v181.495c0 16.844 13.654 30.498 30.498 30.498h60.997c7.345 0 14.083-2.598 19.347-6.923 6.808-5.594 11.151-14.077 11.151-23.575v-181.495z" fill="#8288cb"/><path d="m372.75 229.164v-66.957c0-25.818 13.395-48.809 32.156-63.708h-93.153v181.495c0 16.844 13.654 30.498 30.498 30.498h60.997c7.345 0 14.083-2.598 19.347-6.923-28.556-12.62-49.845-41.176-49.845-74.405z" fill="#676fb2"/></g><g fill="#ffb5c0"><path d="m168.943 339.983c-16.212 0-29.355 10.466-29.355 23.376s13.142 23.377 29.355 23.377c16.212 0 29.355-10.466 29.355-23.377s-13.142-23.376-29.355-23.376z"/><path d="m328.057 339.983c-16.212 0-29.355 10.466-29.355 23.376s13.143 23.377 29.355 23.377 29.355-10.466 29.355-23.377-13.143-23.376-29.355-23.376z"/></g><g fill="#313d40"><path d="m186.051 321.356c-4.143 0-7.5 3.357-7.5 7.5v12c0 4.143 3.357 7.5 7.5 7.5s7.5-3.357 7.5-7.5v-12c0-4.142-3.358-7.5-7.5-7.5z"/><path d="m310.948 321.356c-4.143 0-7.5 3.357-7.5 7.5v12c0 4.143 3.357 7.5 7.5 7.5s7.5-3.357 7.5-7.5v-12c0-4.142-3.357-7.5-7.5-7.5z"/></g></g></svg>