<svg id="Capa_1" enable-background="new 0 0 497 497" height="512" viewBox="0 0 497 497" width="512" xmlns="http://www.w3.org/2000/svg"><g><g><g><circle cx="337" cy="160" fill="#8288cb" r="160"/><path d="m438.183 36.06c-27.571-22.536-62.796-36.06-101.183-36.06-88.365 0-160 71.635-160 160 0 43.863 17.657 83.599 46.243 112.502 14.7 14.238 31.361 25.878 48.832 33.768 2.45 1.089 4.934 2.117 7.447 3.085v-46.792c.001-104.152 66.122-192.894 158.661-226.503z" fill="#676fb2"/></g><path d="m496.827 167.5c.115-2.486.173-4.985.173-7.5s-.058-5.014-.173-7.5h-72.327v-65h51.09c1.305 0 2.531-.334 3.6-.92-2.506-4.844-5.256-9.541-8.227-14.08h-46.463v-46.463c-4.539-2.971-9.236-5.721-14.08-8.228-.586 1.069-.92 2.296-.92 3.601v51.09h-65v-72.319c-2.486-.115-4.985-.181-7.5-.181s-5.014.065-7.5.181v72.319h-65v-51.09c0-1.305-.334-2.531-.92-3.601-4.844 2.507-9.54 5.243-14.08 8.214v46.477h-46.478c-2.971 4.539-5.712 9.233-8.218 14.076 1.069.586 2.301.924 3.606.924h51.09v65h-72.327c-.115 2.486-.173 4.985-.173 7.5s.065 5.014.18 7.5h72.32v65h-51.09c-1.305 0-2.531.334-3.6.92 2.506 4.844 5.256 9.541 8.227 14.08h46.463v46.463c4.539 2.971 9.236 5.721 14.08 8.228.586-1.069.92-2.296.92-3.601v-51.09h65v72.319c2.486.115 4.985.181 7.5.181s5.014-.065 7.5-.181v-72.319h65v51.09c0 1.305.334 2.531.92 3.601 4.844-2.507 9.54-5.257 14.08-8.228v-46.463h46.463c2.971-4.539 5.726-9.23 8.232-14.074-1.069-.586-2.3-.926-3.605-.926h-51.09v-65zm-167.327 65h-65v-65h65zm0-80h-65v-65h65zm80 80h-65v-65h65zm0-80h-65v-65h65z" fill="#4c5699"/><path d="m213.26 262.528-208.866 208.865c-5.858 5.858-5.858 15.355 0 21.213 2.929 2.93 6.767 4.394 10.606 4.394 3.838 0 7.678-1.465 10.606-4.394l208.866-208.866z" fill="#4c5699"/><g><path d="m177 160-137.585 213.414c-7.655 11.874-5.988 27.479 4.001 37.469l43.469 43.469c10.023 10.023 25.693 11.663 37.574 3.933l212.541-138.285z" fill="#fad5cb"/><path d="m177 160-55.435 55.435c-8.437 8.437-8.437 22.115 0 30.552l129.757 129.757c8.266 8.266 21.668 8.266 29.934 0l55.744-55.744z" fill="#ffb39d"/></g><g><path d="m177 160-55.435 55.435c-8.437 8.437-8.437 22.115 0 30.552l64.724 64.724 16.325-16.325c20.399-20.399 48.065-31.858 76.913-31.858z" fill="#ff8f71"/><path d="m186.289 310.711-64.724-64.724-82.15 127.427c-7.655 11.874-5.988 27.479 4.001 37.469 4.297 4.297 38.804 38.804 43.469 43.469 0-28.324 11.252-55.487 31.279-75.515z" fill="#ffb39d"/></g><g><path d="m126.951 327.623-30 30c-11.716 11.716-11.716 30.711 0 42.427 5.857 5.858 13.535 8.787 21.213 8.787s15.355-2.929 21.213-8.787l30-30z" fill="#ea5b70"/><circle cx="148.164" cy="348.836" fill="#ff8e9e" r="30"/></g></g><g><g fill="#313d40"><path d="m278.436 119.641-8.485 8.485c-2.929 2.93-2.929 7.678 0 10.607 1.465 1.464 3.385 2.196 5.304 2.196s3.839-.732 5.304-2.196l8.485-8.485c2.929-2.93 2.929-7.678 0-10.607-2.93-2.928-7.679-2.928-10.608 0z"/><path d="m377.36 207.958c-2.929-2.93-7.678-2.929-10.606-.001l-8.485 8.484c-2.93 2.929-2.93 7.678-.001 10.606 1.465 1.465 3.384 2.197 5.304 2.197 1.919 0 3.839-.732 5.303-2.196l8.485-8.484c2.928-2.928 2.928-7.677 0-10.606z"/><path d="m317.793 194.495c-4.134.274-8.201-1.231-11.129-4.16-2.928-2.927-4.443-6.983-4.159-11.128.283-4.133-2.837-7.713-6.969-7.996-4.135-.287-7.713 2.836-7.996 6.969-.581 8.473 2.523 16.77 8.518 22.762 5.518 5.519 12.984 8.588 20.746 8.588.67 0 1.343-.023 2.017-.069 4.132-.283 7.252-3.863 6.969-7.996-.285-4.133-3.867-7.238-7.997-6.97z"/></g></g></g></svg>