<svg id="Capa_1" enable-background="new 0 0 497 497" height="512" viewBox="0 0 497 497" width="512" xmlns="http://www.w3.org/2000/svg"><g><path d="m409.502 309.506-161.002 60-161.004-60v-199.012l161.004-70 161.002 70z" fill="#676fb2"/><path d="m292.256 497h-90v-30l46.244-30 43.756 30z" fill="#9ea2e3"/><g><path d="m248.5 380.012h-76.244v56.988c0 16.568 13.432 30 30 30h76.244 13.756c16.568 0 30-13.432 30-30v-56.988z" fill="#d4d4ff"/><path d="m248.5 437v-56.988h-76.244v56.988c0 16.568 13.432 30 30 30h76.244c-16.569 0-30-13.432-30-30z" fill="#9ea2e3"/></g><g><path d="m308.659 272.718h97.344c12.239 0 22.161-9.922 22.161-22.161 0-12.24-9.922-22.162-22.161-22.162h-96.903c-9.975 0-18.469-7.757-18.823-17.726-.371-10.465 8.001-19.063 18.382-19.063h97.344c12.239 0 22.161-9.922 22.161-22.162 0-12.239-9.922-22.161-22.161-22.161h-96.902c-9.973 0-18.468-7.755-18.824-17.722-.373-10.464 8-19.066 18.382-19.066h100.844c10.706 0 19.209-9.112 18.343-19.784-2.679-33.013-25.012-63.116-58.511-74.282-10.86-3.621-22.943-6.639-35.834-9.063-26.109-4.908-55.553-7.366-85.001-7.366-43.99 0-87.979 5.475-120.835 16.428-33.433 11.145-55.827 41.203-58.511 74.277-.866 10.673 7.634 19.789 18.343 19.789h100.405c9.974 0 18.469 7.757 18.822 17.726.371 10.464-8.001 19.063-18.382 19.063h-97.344c-12.24 0-22.162 9.922-22.162 22.161 0 12.24 9.922 22.162 22.162 22.162h96.902c9.975 0 18.469 7.757 18.823 17.726.371 10.465-8.001 19.063-18.382 19.063h-97.343c-12.24 0-22.162 9.922-22.162 22.162 0 12.239 9.922 22.161 22.162 22.161h96.901c9.973 0 18.468 7.755 18.824 17.722.373 10.464-8 19.066-18.382 19.066h-100.848c-10.701 0-19.204 9.104-18.344 19.77 2.685 33.289 25.273 63.216 58.516 74.297 32.856 10.951 76.845 16.427 120.835 16.427 29.449 0 58.893-2.458 85.001-7.366 12.891-2.423 24.973-5.44 35.833-9.062 33.343-11.114 55.837-41.109 58.515-74.305.86-10.663-7.646-19.762-18.344-19.762h-100.406c-9.974 0-18.469-7.757-18.822-17.726-.371-10.463 8.001-19.061 18.382-19.061z" fill="#d4d4ff"/><path d="m297.666 403.572c-33.243-11.081-55.831-41.008-58.516-74.297-6.392-79.266-6.428-159.308.004-238.57 2.684-33.074 25.078-63.132 58.511-74.277 10.86-3.621 22.943-6.639 35.834-9.063-26.107-4.907-55.551-7.365-84.999-7.365-43.99 0-87.979 5.475-120.835 16.428-33.433 11.145-55.827 41.203-58.511 74.277-.866 10.673 7.634 19.789 18.343 19.789h100.405c9.974 0 18.469 7.757 18.822 17.726.371 10.464-8.001 19.063-18.382 19.063h-97.344c-12.24 0-22.162 9.922-22.162 22.161 0 12.24 9.922 22.162 22.162 22.162h96.902c9.975 0 18.469 7.757 18.823 17.726.371 10.465-8.001 19.063-18.382 19.063h-97.343c-12.24 0-22.162 9.922-22.162 22.162 0 12.239 9.922 22.161 22.162 22.161h96.901c9.973 0 18.468 7.755 18.824 17.722.373 10.464-8 19.066-18.382 19.066h-100.848c-10.701 0-19.204 9.104-18.344 19.77 2.685 33.289 25.273 63.216 58.516 74.297 32.856 10.951 76.845 16.427 120.835 16.427 29.449 0 58.893-2.458 85.001-7.366-12.892-2.423-24.975-5.442-35.835-9.062z" fill="#9ea2e3"/></g><g><g><g><ellipse cx="168.943" cy="80.36" fill="#ff8e9e" rx="29.355" ry="23.377"/></g><g><ellipse cx="328.057" cy="80.36" fill="#ff8e9e" rx="29.355" ry="23.377"/></g></g></g><g fill="#313d40"><path d="m186.051 38.356c-4.143 0-7.5 3.357-7.5 7.5v12c0 4.143 3.357 7.5 7.5 7.5s7.5-3.357 7.5-7.5v-12c0-4.142-3.358-7.5-7.5-7.5z"/><path d="m310.948 38.356c-4.143 0-7.5 3.357-7.5 7.5v12c0 4.143 3.357 7.5 7.5 7.5s7.5-3.357 7.5-7.5v-12c0-4.142-3.357-7.5-7.5-7.5z"/><path d="m269.891 51.845c-3.122-2.722-7.861-2.397-10.581.728-5.725 6.569-15.899 6.564-21.619 0-2.721-3.124-7.459-3.448-10.581-.728-3.123 2.721-3.449 7.459-.728 10.581 11.702 13.431 32.545 13.419 44.236 0 2.722-3.122 2.396-7.861-.727-10.581z"/></g></g></svg>