<svg id="Capa_1" enable-background="new 0 0 497 497" height="512" viewBox="0 0 497 497" width="512" xmlns="http://www.w3.org/2000/svg"><g><path d="m236.231 391.59-67 67c-8.786 8.787-8.786 23.033 0 31.819 4.394 4.394 10.152 6.59 15.91 6.59s11.517-2.197 15.91-6.59l67-67v-31.819z" fill="#4c5699"/><g><path d="m405.637 253.504-42.938-42.938-17.593-17.593h-76.644v76.644l22.209 22.209-57.797 57.797c-11.123 11.123-13.596 27.617-7.427 41.133 1.767 3.872 4.24 7.502 7.427 10.689l24.822 24.822c14.31 14.31 37.511 14.31 51.822 0l8.589-8.589 87.53-87.53c21.165-21.164 21.165-55.479 0-76.644z" fill="#00ce8e"/><path d="m345.106 192.972-76.644 76.644 22.209 22.209-57.797 57.797c-11.124 11.123-13.596 27.617-7.427 41.133 1.768 3.872 4.24 7.502 7.427 10.689l24.822 24.822c14.311 14.31 37.512 14.31 51.822 0l8.589-8.589-12.233-12.233c-3.187-3.187-5.66-6.816-7.427-10.689-6.169-13.516-3.696-30.01 7.427-41.133l39.232-39.232c10.253-10.253 10.253-26.877 0-37.13-23.276-23.275-23.276-61.012 0-84.288z" fill="#00b27a"/></g><g><path d="m345.106 78.006-38.322-38.322c-11.588-11.588-24.754-20.638-38.805-27.15-50.107-23.224-111.482-14.174-152.806 27.149-52.912 52.912-52.912 138.699 0 191.611l38.322 38.322c31.589 31.589 82.7 31.734 114.483.459.159-.156.325-.301.483-.459l76.644-76.644c31.748-31.747 31.748-83.219.001-114.966z" fill="#efedff"/><path d="m229.173 231.294c-52.912-52.912-52.912-138.699 0-191.611 11.588-11.588 24.754-20.638 38.805-27.15-50.106-23.223-111.481-14.173-152.805 27.15-52.912 52.912-52.912 138.699 0 191.611l38.322 38.322c31.589 31.589 82.7 31.734 114.483.459l.483-.459z" fill="#d4d4ff"/></g><g><g><g><ellipse cx="205.948" cy="242.965" fill="#ff8e9e" rx="29.355" ry="23.377" transform="matrix(.707 -.707 .707 .707 -111.482 216.791)"/></g><g><ellipse cx="318.458" cy="130.455" fill="#ff8e9e" rx="29.355" ry="23.377" transform="matrix(.707 -.707 .707 .707 1.028 263.392)"/></g></g></g><g fill="#313d40"><path d="m198.951 201.167c-2.93-2.929-7.678-2.929-10.607 0s-2.929 7.678 0 10.606l8.485 8.485c2.93 2.929 7.678 2.929 10.607 0s2.929-7.678 0-10.606z"/><path d="m295.752 121.337-8.485-8.485c-2.93-2.929-7.678-2.929-10.607 0s-2.929 7.678 0 10.606l8.485 8.485c2.93 2.929 7.678 2.929 10.607 0 2.929-2.928 2.929-7.677 0-10.606z"/><path d="m257.165 151.421c-4.132.284-7.252 3.864-6.968 7.997.598 8.693-6.601 15.884-15.287 15.287-4.126-.289-7.712 2.836-7.996 6.968-.284 4.133 2.836 7.713 6.969 7.997 17.773 1.222 32.499-13.528 31.279-31.281-.285-4.133-3.861-7.245-7.997-6.968z"/></g></g></svg>