<svg id="Capa_1" enable-background="new 0 0 497 497" height="512" viewBox="0 0 497 497" width="512" xmlns="http://www.w3.org/2000/svg"><g><g><path d="m76.5 212.25v6.071h59.997v-6.071c0-61.757 50.246-112 112.003-112v-60c-94.841 0-172 77.16-172 172z" fill="#9ea2e3"/><path d="m248.5 40.25c-12.111 18.167-12.111 41.833 0 60 61.757 0 112.003 50.243 112.003 112v6.071h59.997v-6.071c0-94.84-77.159-172-172-172z" fill="#d4d4ff"/></g><g><path d="m497 288.916c0 46.194-22.947 87.029-58.064 111.727-32.978 23.193-78.433-.816-78.433-41.133v-141.188c0-40.317 45.455-64.326 78.433-41.133 35.117 24.698 58.064 65.533 58.064 111.727z" fill="#ffb39d"/><path d="m419.503 359.51v-141.188c0-17.263 8.338-31.531 20.458-40.389-.343-.246-.68-.501-1.025-.744-32.977-23.193-78.433.816-78.433 41.133v141.188c0 40.317 45.456 64.326 78.433 41.133.346-.243.682-.498 1.025-.744-12.12-8.858-20.458-23.126-20.458-40.389z" fill="#ff8f71"/></g><g><path d="m0 288.916c0 46.194 22.947 87.029 58.064 111.727 32.978 23.193 78.433-.816 78.433-41.133v-141.188c0-40.317-45.455-64.326-78.433-41.133-35.117 24.698-58.064 65.533-58.064 111.727z" fill="#ffb39d"/><path d="m110.452 401.618c-14.335-7.679-24.934-20.819-29.522-36.421-7.112-24.189-10.93-49.789-10.93-76.281 0-27.521 4.121-54.079 11.776-79.094 4.628-15.123 15.202-27.72 29.142-35.188-4.111-2.312-8.536-4.052-13.133-5.15-12.93-3.09-27.222-1.085-39.721 7.706-35.117 24.697-58.064 65.531-58.064 111.726s22.947 87.029 58.064 111.727c12.5 8.791 26.791 10.795 39.721 7.706 5.044-1.206 9.88-3.186 14.322-5.844zm-20.66-11.057c1.173 2.883 2.396 5.74 3.664 8.574-1.269-2.833-2.492-5.69-3.664-8.574z" fill="#ff8f71"/></g><g><path d="m345.764 43.861c-29.474-17.082-63.107-26.111-97.264-26.111s-67.79 9.029-97.264 26.111c-10.738 6.224-14.408 19.968-8.202 30.717l29.993 51.949c6.241 10.813 20.049 14.428 30.768 8.217 13.539-7.847 28.998-11.994 44.705-11.994s31.166 4.147 44.705 11.994c10.739 6.223 24.537 2.578 30.768-8.217l29.993-51.949c6.206-10.749 2.536-24.493-8.202-30.717z" fill="#ffb39d"/><path d="m248.5 17.75c-34.157 0-67.79 9.029-97.264 26.111-10.738 6.224-14.408 19.968-8.202 30.717l29.993 51.949c6.241 10.813 20.049 14.428 30.768 8.217 13.539-7.847 28.998-11.994 44.705-11.994-32.113-27.634-32.113-77.366 0-105z" fill="#ff8f71"/></g><path d="m278.383 225.789-70.303 18.837c-14.195 3.804-24.109 16.725-24.109 31.421v131.505c-42.641-.413-68.251 44.703-42.981 64.725 9.129 7.234 21.742 8.318 33.212 5.624 23.906-5.612 39.786-25.989 39.786-41.538v-127.202l69.025-18.495v93.701l.05.046c-37.669 1.451-59.456 41.36-36.873 59.254 22.033 17.461 64.563-3.157 66.745-31.483l.094.088v-159.897c0-18.097-17.148-31.274-34.646-26.586z" fill="#55dafe"/><g><g><g><ellipse cx="184.798" cy="95.697" fill="#ea5b70" rx="23.5" ry="18.714"/></g><g><ellipse cx="312.202" cy="95.697" fill="#ff8e9e" rx="23.5" ry="18.714"/></g></g></g><g fill="#313d40"><path d="m196.051 58.356c-4.143 0-7.5 3.358-7.5 7.5v12c0 4.142 3.357 7.5 7.5 7.5s7.5-3.358 7.5-7.5v-12c0-4.142-3.358-7.5-7.5-7.5z"/><path d="m300.948 58.356c-4.143 0-7.5 3.358-7.5 7.5v12c0 4.142 3.357 7.5 7.5 7.5s7.5-3.358 7.5-7.5v-12c0-4.142-3.357-7.5-7.5-7.5z"/><path d="m269.891 71.845c-3.123-2.721-7.86-2.396-10.581.727-2.729 3.132-6.669 4.928-10.81 4.928s-8.08-1.796-10.81-4.928c-2.721-3.123-7.459-3.448-10.581-.727-3.123 2.721-3.449 7.458-.728 10.582 5.579 6.401 13.641 10.073 22.119 10.073s16.54-3.672 22.118-10.074c2.722-3.123 2.396-7.86-.727-10.581z"/></g></g></svg>