<svg id="Capa_1" enable-background="new 0 0 497 497" height="512" viewBox="0 0 497 497" width="512" xmlns="http://www.w3.org/2000/svg"><g><g><path d="m368.5 0c-9.673 0-229.942 0-240 0-33.137 0-60 26.863-60 60v377c0 33.137 26.863 60 60 60h240c33.137 0 60-26.863 60-60v-377c0-33.137-26.863-60-60-60z" fill="#2ed0fc"/><path d="m168.5 377v-257c0-66.274 53.726-120 120-120h-160c-33.137 0-60 26.863-60 60v377c0 33.137 26.863 60 60 60h160c-66.274 0-120-53.726-120-120z" fill="#1cbbea"/></g><g><path d="m338.5 60c-7.146 0-172.849 0-180 0-16.569 0-30 13.431-30 30v120c0 16.569 13.431 30 30 30h180c16.568 0 30-13.431 30-30v-120c0-16.569-13.432-30-30-30z" fill="#efedff"/><path d="m158.5 60c-16.569 0-30 13.431-30 30v120c0 16.569 13.431 30 30 30h10v-120c0-21.858 5.847-42.349 16.058-60-14.462 0-24.42 0-26.058 0z" fill="#d4d4ff"/></g><path d="m248.5 285c-46.116 0-83.5 37.384-83.5 83.5s37.384 83.5 83.5 83.5 83.5-37.384 83.5-83.5-37.384-83.5-83.5-83.5zm0 122c-21.229 0-38.5-17.271-38.5-38.5s17.271-38.5 38.5-38.5 38.5 17.271 38.5 38.5-17.271 38.5-38.5 38.5z" fill="#1cbbea"/><g fill="#efedff"><path d="m199.386 358.649c-2.213-1.367-4.973-1.49-7.298-.328l-6.942 3.471c-2.54 1.27-4.146 3.867-4.146 6.708s1.605 5.438 4.146 6.708l6.942 3.471c1.059.529 2.208.792 3.354.792 1.371 0 2.738-.376 3.943-1.12 2.211-1.367 3.557-3.781 3.557-6.38v-6.942c0-2.599-1.345-5.013-3.556-6.38z"/><path d="m311.854 361.792-6.942-3.471c-2.326-1.163-5.086-1.039-7.298.328-2.211 1.367-3.557 3.781-3.557 6.38v6.942c0 2.599 1.346 5.013 3.557 6.38 1.205.745 2.572 1.12 3.943 1.12 1.146 0 2.296-.263 3.354-.792l6.942-3.471c2.54-1.27 4.146-3.867 4.146-6.708s-1.604-5.438-4.145-6.708z"/><path d="m255.208 305.146c-1.271-2.541-3.867-4.146-6.708-4.146s-5.438 1.605-6.708 4.146l-3.472 6.943c-1.163 2.325-1.038 5.086.328 7.297s3.78 3.557 6.38 3.557h6.943c2.6 0 5.014-1.346 6.38-3.557s1.491-4.972.328-7.297z"/><path d="m251.972 414.057h-6.943c-2.6 0-5.014 1.346-6.38 3.557s-1.491 4.972-.328 7.297l3.472 6.943c1.27 2.541 3.867 4.146 6.708 4.146s5.437-1.605 6.708-4.146l3.472-6.943c1.163-2.325 1.038-5.086-.328-7.297-1.368-2.211-3.782-3.557-6.381-3.557z"/></g><g><g><g><ellipse cx="168.943" cy="184.063" fill="#ff8e9e" rx="29.355" ry="23.377"/></g><g><ellipse cx="328.057" cy="184.063" fill="#ff8e9e" rx="29.355" ry="23.377"/></g></g></g><g fill="#313d40"><path d="m186.051 142.06c-4.143 0-7.5 3.358-7.5 7.5v12c0 4.142 3.357 7.5 7.5 7.5s7.5-3.358 7.5-7.5v-12c0-4.142-3.357-7.5-7.5-7.5z"/><path d="m310.949 142.06c-4.143 0-7.5 3.358-7.5 7.5v12c0 4.142 3.357 7.5 7.5 7.5s7.5-3.358 7.5-7.5v-12c0-4.142-3.358-7.5-7.5-7.5z"/><path d="m269.892 155.549c-3.122-2.722-7.86-2.397-10.582.726-5.725 6.57-15.899 6.565-21.62 0-2.721-3.123-7.459-3.448-10.581-.727-3.123 2.721-3.449 7.458-.728 10.582 11.702 13.43 32.542 13.418 44.237 0 2.721-3.122 2.397-7.86-.726-10.581z"/></g></g></svg>