<svg id="Capa_1" enable-background="new 0 0 497 497" height="512" viewBox="0 0 497 497" width="512" xmlns="http://www.w3.org/2000/svg"><g><g><path d="m368.5 0c-9.673 0-229.942 0-240 0-33.137 0-60 26.863-60 60v377c0 33.137 26.863 60 60 60h240c33.137 0 60-26.863 60-60v-377c0-33.137-26.863-60-60-60z" fill="#676fb2"/><path d="m168.5 377v-257c0-66.274 53.726-120 120-120h-160c-33.137 0-60 26.863-60 60v377c0 33.137 26.863 60 60 60h160c-66.274 0-120-53.726-120-120z" fill="#4c5699"/></g><g><path d="m293.5 75c0 8.284-6.716 15-15 15h-60c-8.284 0-15-6.716-15-15 0-8.284-6.716-15-15-15h-30c-16.569 0-30 13.431-30 30v317c0 16.569 13.431 30 30 30h180c16.569 0 30-13.431 30-30v-317c0-16.569-13.431-30-30-30h-30c-8.284 0-15 6.716-15 15z" fill="#ff8f71"/><path d="m168.5 120c0-21.858 5.847-42.349 16.058-60h-26.058c-16.569 0-30 13.432-30 30v317c0 16.568 13.431 30 30 30h26.058c-10.211-17.651-16.058-38.142-16.058-60z" fill="#ff6f4d"/></g><circle cx="248.5" cy="45" fill="#313d40" r="15"/><path d="m302.878 145.918-70.303 18.837c-14.195 3.804-24.109 16.725-24.109 31.421v91.505c-42.641-.413-68.251 44.703-42.981 64.725 9.129 7.234 21.742 8.318 33.212 5.624 23.906-5.612 39.786-25.989 39.786-41.538v-87.202l69.025-18.495v53.701c-42.794-.285-68.183 44.795-42.981 64.764 24.701 19.575 72.998-4.669 72.998-36.858v-119.899c-.001-18.096-17.149-31.273-34.647-26.585z" fill="#fff1d4"/></g></svg>