<svg id="Capa_1" enable-background="new 0 0 497 497" height="512" viewBox="0 0 497 497" width="512" xmlns="http://www.w3.org/2000/svg"><g><g><path d="m430.67 218.494-67.701-28.564-27.949-27.949-27.949-27.949-28.565-67.702c-2.3-5.451-5.272-10.184-8.737-14.226-25.515-29.771-78.019-21.632-89.92 20.282l-29.783 104.898-115.29 37.382c-46.398 15.044-46.361 80.699.054 95.691l114.75 37.063 37.063 114.748c14.991 46.415 80.647 46.452 95.691.054l17.178-52.979 20.204-62.31 104.898-29.783c47.606-13.516 51.651-79.419 6.056-98.656z" fill="#ff8e9e"/><path d="m204.311 217.272c0-63.915 24.875-122.014 65.459-165.169-25.515-29.771-78.019-21.632-89.92 20.282l-29.783 104.898-115.29 37.382c-46.398 15.044-46.361 80.699.054 95.691l114.749 37.064 37.063 114.748c14.991 46.415 80.647 46.452 95.691.054l17.178-52.979c-57.851-44.053-95.201-113.645-95.201-191.971z" fill="#ea5b70"/></g><path d="m433.721 126.969-113.011 113.011c-5.863 5.863-15.368 5.863-21.23 0l-42.46-42.46c-5.863-5.863-5.863-15.368 0-21.23l113.011-113.012 43.056 20.634z" fill="#676fb2"/><path d="m444.204 52.796-3.045-30.528c-2.605-26.113-36.355-30.32-48.318-6.962-26.415 51.578-26.415 51.578-26.415 51.578l31.845 31.845 31.845 31.845s0 0 51.578-26.415c23.358-11.962 19.151-45.713-6.962-48.318z" fill="#ea5b70"/><path d="m253.519 307.227 21.247-21.247c5.858-5.858 5.858-15.355 0-21.213l-42.477-42.477c-5.858-5.858-15.355-5.858-21.213 0l-21.247 21.247c-5.858 5.858-5.858 15.355 0 21.213l42.477 42.477c5.857 5.858 15.355 5.858 21.213 0z" fill="#d4d4ff"/><g fill="#efedff"><path d="m403.61 104.068-167.742 167.743c-2.929 2.929-2.929 7.678 0 10.606 1.465 1.464 3.385 2.197 5.304 2.197s3.839-.732 5.304-2.197l167.742-167.742z"/><path d="m382.38 82.837-167.742 167.744c-2.929 2.929-2.929 7.678 0 10.606 1.465 1.464 3.385 2.197 5.304 2.197s3.839-.732 5.304-2.197l167.741-167.743z"/></g><g fill="#ff8e9e"><path d="m91.488 251.488c-9.129 9.129-7.237 25.823 4.227 37.287s28.157 13.356 37.287 4.227c9.129-9.129 7.237-25.823-4.227-37.287s-28.158-13.356-37.287-4.227z"/><path d="m241.285 368.225c-11.463-11.464-28.158-13.356-37.287-4.227s-7.237 25.823 4.227 37.287 28.158 13.356 37.287 4.227 7.236-25.823-4.227-37.287z"/></g><g fill="#313d40"><path d="m143.436 254.642-8.485 8.485c-2.929 2.929-2.929 7.678 0 10.606 2.93 2.929 7.677 2.929 10.607 0l8.485-8.485c2.929-2.929 2.929-7.678 0-10.606-2.93-2.929-7.678-2.929-10.607 0z"/><path d="m242.359 342.957c-2.93-2.929-7.678-2.929-10.607 0l-8.485 8.485c-2.929 2.929-2.929 7.678 0 10.606 2.93 2.929 7.677 2.929 10.607 0l8.485-8.485c2.929-2.928 2.929-7.677 0-10.606z"/><path d="m195.793 316.495c-8.67.598-15.885-6.578-15.288-15.288.283-4.132-2.837-7.712-6.969-7.996-4.134-.292-7.714 2.836-7.996 6.969-1.218 17.756 13.513 32.502 31.28 31.279 4.133-.284 7.253-3.864 6.969-7.996-.284-4.133-3.865-7.249-7.996-6.968z"/></g></g></svg>