<svg id="Capa_1" enable-background="new 0 0 497 497" height="512" viewBox="0 0 497 497" width="512" xmlns="http://www.w3.org/2000/svg"><g><g><path d="m354.577 142.238c-17.285-17.285-38.523-28.189-60.802-32.756-29.791-6.107-61.445-.866-88.022 15.764-9.099 5.694-12.039 17.8-6.333 26.892 11.538 18.386 9.224 43.495-8.197 59.331-17.406 15.823-44.365 16.034-62.017.488-2.198-1.936-4.786-5.214-7.426-9.031-9.834-14.221-29.55-17.363-43.101-6.625-11.473 9.091-24.161 19.679-32.809 28.447-9.709 9.843-17.871 20.662-24.497 32.14-35.124 60.842-26.954 140.321 24.518 192.487 62.399 63.24 164.252 63.499 226.975.777.107-.107.218-.223.327-.331 8.396-8.447 18.487-20.569 27.241-31.616 10.765-13.584 7.684-33.325-6.571-43.185-3.792-2.623-7.046-5.192-8.972-7.374-15.548-17.618-15.386-44.543.378-61.969 15.799-17.464 40.945-19.852 59.375-8.306 9.119 5.712 21.256 2.764 26.959-6.361 29.028-46.446 23.357-108.389-17.026-148.772z" fill="#ffb357"/><path d="m293.775 109.482c-29.791-6.107-61.445-.866-88.022 15.764-9.099 5.694-12.039 17.8-6.333 26.892 11.538 18.386 9.224 43.495-8.197 59.331-17.406 15.823-44.365 16.034-62.017.488-2.198-1.936-4.786-5.214-7.426-9.031-9.834-14.221-29.55-17.363-43.101-6.625-11.473 9.091-24.161 19.679-32.809 28.447-9.709 9.844-17.871 20.661-24.497 32.14-28.413 49.218-28.488 110.627-.234 159.913 6.673 11.64 14.918 22.608 24.752 32.574 62.399 63.24 164.252 63.499 226.975.777.107-.107.218-.223.327-.331-43.921-49.625-67.337-117.016-58.995-188.012 7.198-61.254 36.772-114.421 79.577-152.327z" fill="#fc8a3d"/><path d="m80.704 336.811c0-37.707-25.003-69.562-59.331-79.924-28.413 49.219-28.488 110.628-.234 159.914 34.448-10.288 59.565-42.198 59.565-79.99z" fill="#676fb2"/></g><path d="m170.185 377.686c-1.919 0-3.839-.732-5.304-2.196l-43.373-43.373c-2.929-2.93-2.929-7.678 0-10.607 2.93-2.928 7.678-2.928 10.607 0l43.373 43.373c2.929 2.93 2.929 7.678 0 10.607-1.464 1.464-3.384 2.196-5.303 2.196z" fill="#ffb357"/><g><path d="m438.887 121.774-137.153 137.153c-5.863 5.863-15.368 5.863-21.23 0l-42.46-42.46c-5.863-5.863-5.863-15.368 0-21.23l137.153-137.154 43.056 20.634z" fill="#676fb2"/><g fill="#efedff"><path d="m418.776 88.873-277.24 277.241c-2.929 2.929-2.929 7.678 0 10.606 2.93 2.929 7.678 2.929 10.607 0l277.24-277.24z"/><path d="m397.546 67.642-277.24 277.241c-2.929 2.929-2.929 7.678 0 10.606 2.93 2.929 7.678 2.929 10.607 0l277.24-277.24z"/></g></g><g><path d="m12.511 335.197c-8.382 8.382-6.645 23.71 3.881 34.236s25.854 12.264 34.236 3.881c8.382-8.382 6.644-23.71-3.881-34.236-10.526-10.526-25.854-12.264-34.236-3.881z" fill="#ff8e9e"/><path d="m150.051 442.382c-10.525-10.526-25.854-12.263-34.236-3.881s-6.645 23.71 3.881 34.236 25.854 12.264 34.236 3.881c8.383-8.382 6.645-23.71-3.881-34.236z" fill="#ffb5c0"/></g><g fill="#313d40"><path d="m55.267 334.939-8.485 8.485c-2.929 2.929-2.929 7.678 0 10.606 2.93 2.929 7.677 2.929 10.607 0l8.485-8.485c2.929-2.929 2.929-7.678 0-10.606-2.929-2.929-7.677-2.929-10.607 0z"/><path d="m154.191 423.254c-2.93-2.929-7.678-2.929-10.607 0l-8.485 8.485c-2.929 2.929-2.929 7.678 0 10.606 2.93 2.929 7.677 2.929 10.607 0l8.485-8.485c2.929-2.928 2.929-7.677 0-10.606z"/><path d="m107.625 396.792c-8.67.598-15.885-6.578-15.288-15.288.283-4.132-2.837-7.712-6.969-7.996-4.134-.292-7.714 2.836-7.996 6.969-1.218 17.756 13.513 32.502 31.28 31.279 4.133-.284 7.253-3.864 6.969-7.996-.284-4.133-3.866-7.248-7.996-6.968z"/></g><g fill="#4c5699"><path d="m157.116 239.354c-14.029 0-25.443 11.414-25.443 25.443 0 6.772-.202 13.65-.202 20.593 0 5.759-4.685 10.443-10.443 10.443-2.319 0-4.396-1.146-5.641-2.944.697-1.139 1.099-2.478 1.099-3.91 0-4.143-3.357-7.5-7.5-7.5-5.974 0-10.505 5.384-9.492 11.235 1.812 10.499 10.868 18.119 21.534 18.119 14.029 0 25.443-11.414 25.443-25.443 0-6.772.202-13.65.202-20.593 0-5.759 4.685-10.443 10.443-10.443 2.139 0 4.071.975 5.335 2.537-3.234 4.588-.62 11.817 6.706 11.817 5.975 0 10.506-5.384 9.493-11.235-1.811-10.498-10.868-18.119-21.534-18.119z"/><path d="m239.526 318.348c-5.353-.924-11.237 2.798-11.237 10.065 0 6.109 6.903 9.6 11.817 6.133 1.563 1.265 2.537 3.196 2.537 5.336 0 5.759-4.685 10.443-10.443 10.443-6.942 0-13.821.202-20.593.202-14.029 0-25.443 11.414-25.443 25.443 0 10.666 7.62 19.723 18.117 21.534 5.885 1.012 11.237-3.543 11.237-9.492 0-4.143-3.357-7.5-7.5-7.5-1.433 0-2.771.401-3.91 1.099-1.798-1.244-2.944-3.321-2.944-5.641 0-5.759 4.685-10.443 10.443-10.443 6.942 0 13.821-.202 20.593-.202 14.029 0 25.443-11.414 25.443-25.443.001-10.666-7.619-19.723-18.117-21.534z"/></g><path d="m492.601 46.857-42.46-42.46c-5.863-5.863-15.368-5.863-21.23 0l-53.714 53.687 63.69 63.69 53.714-53.687c5.863-5.862 5.863-15.368 0-21.23z" fill="#fc8a3d"/><g fill="#676fb2"><path d="m375.145 8.514c-9.402 9.403-11.308 22.742-4.256 29.794s18.949 5.146 28.352-4.256c9.403-9.403 12.75-22.742 5.698-29.794s-20.391-5.147-29.794 4.256z"/><path d="m492.738 92.042c-7.056-7.056-19.678-4.429-29.086 4.979s-12.04 22.035-4.984 29.091 20.403 5.149 29.812-4.259 11.315-22.755 4.258-29.811z"/></g></g></svg>