<svg id="Capa_1" enable-background="new 0 0 497 497" height="512" viewBox="0 0 497 497" width="512" xmlns="http://www.w3.org/2000/svg"><g><g><g><path d="m111.22 198.393h-28.87l-70.38 53.946c-.093.072-.184.147-.271.226-8.153 7.424-12.384 17.924-11.609 28.808 1.403 19.718 18.87 34.638 38.936 33.26 11.077-.761 21.196-6.537 27.542-15.503l44.651-76.075v-24.662z" fill="#ce857a"/><path d="m82.35 198.393-70.38 53.946c-.093.072-.184.147-.271.226-8.153 7.424-12.384 17.924-11.609 28.808 1.403 19.718 18.87 34.638 38.936 33.26 11.077-.761 21.196-6.537 27.542-15.503-12.195-34.023-6.232-71.877 15.782-100.737z" fill="#c77464"/></g><g><path d="m101.672 53.077c-4.771 5.588-9.071 11.403-12.888 17.385-31.187 48.871-30.299 108.768 5.84 144.907 20.736 20.736 49.295 29.863 79.104 27.987 24.998-1.573 50.875-10.882 73.757-27.581 3.207-2.34 6.354-4.826 9.432-7.454 3.162-2.697-152.546-158.405-155.245-155.244z" fill="#5fd9b3"/><path d="m130.479 140.082c-12.744 2.111-25.005-5.833-28.275-18.334l-13.42-51.286c-31.187 48.871-30.299 108.768 5.84 144.907 20.736 20.736 49.295 29.863 79.104 27.987-3.174-2.439-6.216-5.099-9.104-7.987-24.795-24.795-32.992-60.773-25.625-96.701v.001z" fill="#00ce8e"/><path d="m281.766 28.228c-2.826-2.826-5.8-5.431-8.9-7.827-38.627-29.861-97.224-26.493-143.62 7.175-6.621 4.804 18.121 94.023 40.254 114.925 22.153 20.919 111.935 40.248 117.861 31.022 31.439-48.943 30.639-109.061-5.595-145.295z" fill="#ff8e9e"/><path d="m171.672 73.077c2.699-3.161 5.544-6.251 8.547-9.254 6.03-6.03 12.406-11.443 19.026-16.248 22.201-16.11 49.248-25.26 73.62-27.175-38.627-29.861-97.224-26.493-143.62 7.175-6.621 4.804 22.368 75.444 22.368 75.444 2.168-4.248 4.545-8.444 7.17-12.556 3.818-5.983 8.119-11.798 12.889-17.386z" fill="#ea5b70"/><path d="m236.789 162.101c-10.174-2.298-16.875-12.029-15.391-22.353l4.773-33.218c1.134-7.891-1.563-15.849-7.261-21.424-5.698-5.574-13.716-8.103-21.575-6.795l-34.532 5.727c-10.198 1.691-20.004-4.667-22.621-14.668l-10.936-41.796c-6.621 4.804-12.996 10.218-19.026 16.248-8.311 8.311-15.459 17.274-21.435 26.639l13.42 51.286c3.271 12.501 15.531 20.445 28.275 18.334l8.519-1.413 5.868-.973c13.345-2.213 24.993 9.185 23.069 22.575l-1.94 13.505c-1.854 12.906 6.521 25.07 19.239 27.942l62.25 14.057c6.499-4.743 12.759-10.074 18.686-16.001 8.197-8.197 15.264-17.027 21.191-26.252z" fill="#fce3a0"/><path d="m163.157 83.98-.355.059c-10.198 1.691-20.004-4.667-22.621-14.668l-10.936-41.796c-6.621 4.804-12.996 10.218-19.026 16.248-8.311 8.311-15.459 17.274-21.435 26.639l13.42 51.286c3.271 12.501 15.531 20.445 28.275 18.334l8.519-1.413c3.37-16.438 9.996-32.866 19.785-48.207 1.398-2.189 2.849-4.341 4.374-6.482z" fill="#ffce71"/></g><g><g><g><g><ellipse cx="101.28" cy="102.105" fill="#ff8e9e" rx="17.619" ry="22.125" transform="matrix(.707 -.707 .707 .707 -42.535 101.522)"/></g><g><ellipse cx="207.254" cy="208.079" fill="#ff8e9e" rx="17.619" ry="22.125" transform="matrix(.707 -.707 .707 .707 -86.431 207.494)"/></g></g></g><g fill="#313d40"><path d="m124.935 84.5-8.485 8.485c-2.929 2.93-2.929 7.678 0 10.607 1.465 1.464 3.385 2.196 5.304 2.196s3.839-.732 5.304-2.196l8.485-8.485c2.929-2.93 2.929-7.678 0-10.607-2.931-2.927-7.679-2.927-10.608 0z"/><path d="m223.858 172.817c-2.93-2.928-7.678-2.928-10.607 0l-8.485 8.485c-2.929 2.93-2.929 7.678 0 10.607 1.465 1.464 3.385 2.196 5.304 2.196s3.839-.732 5.304-2.196l8.485-8.485c2.928-2.929 2.928-7.677-.001-10.607z"/></g></g></g><g><g><path d="m298.222 380.672h-28.87l-70.38 53.946c-.093.072-.184.147-.271.226-8.153 7.424-12.384 17.924-11.609 28.808 1.403 19.718 18.87 34.638 38.936 33.26 11.077-.761 21.196-6.537 27.542-15.503l44.651-76.075v-24.662z" fill="#ce857a"/><path d="m269.352 380.672-70.38 53.946c-.093.072-.184.147-.271.226-8.153 7.424-12.384 17.924-11.609 28.808 1.403 19.718 18.87 34.638 38.936 33.26 11.077-.761 21.196-6.537 27.542-15.503-12.194-34.023-6.232-71.877 15.782-100.737z" fill="#c77464"/></g><g><path d="m288.675 235.356c-4.771 5.588-9.071 11.403-12.888 17.385-31.187 48.871-30.299 108.768 5.84 144.907 20.736 20.736 49.295 29.863 79.104 27.987 24.998-1.573 50.875-10.882 73.757-27.581 3.207-2.34 6.354-4.826 9.432-7.454 3.161-2.697-152.547-158.405-155.245-155.244z" fill="#5fd9b3"/><path d="m317.482 322.361c-12.744 2.111-25.005-5.833-28.275-18.334l-13.42-51.286c-31.187 48.871-30.299 108.768 5.84 144.907 20.736 20.736 49.295 29.863 79.104 27.987-3.174-2.439-6.216-5.099-9.104-7.987-24.795-24.795-32.992-60.773-25.625-96.701v.001z" fill="#00ce8e"/><path d="m468.768 210.507c-2.826-2.826-5.8-5.431-8.9-7.827-38.627-29.861-97.224-26.493-143.62 7.175-6.621 4.803 34.252 116.645 34.252 116.645s117.937 38.527 123.864 29.301c31.438-48.942 30.639-109.06-5.596-145.294z" fill="#ff8e9e"/><path d="m358.675 255.356c2.699-3.161 5.544-6.251 8.547-9.254 6.03-6.03 12.406-11.443 19.026-16.248 22.201-16.11 49.248-25.26 73.62-27.175-38.627-29.861-97.224-26.493-143.62 7.175-6.621 4.804 22.368 75.444 22.368 75.444 2.168-4.248 4.545-8.444 7.17-12.556 3.817-5.983 8.118-11.798 12.889-17.386z" fill="#ea5b70"/><path d="m423.791 344.38c-10.174-2.298-16.875-12.029-15.391-22.353l4.773-33.218c1.134-7.891-1.563-15.849-7.261-21.424-5.698-5.574-13.716-8.103-21.575-6.795l-34.532 5.727c-10.198 1.691-20.004-4.667-22.621-14.668l-10.936-41.796c-6.621 4.804-12.996 10.218-19.026 16.248-8.311 8.311-15.459 17.274-21.435 26.639l13.42 51.286c3.271 12.501 15.531 20.445 28.275 18.334l8.519-1.413 5.868-.973c13.345-2.213 24.993 9.185 23.069 22.575l-1.94 13.505c-1.854 12.906 6.521 25.07 19.239 27.942l62.25 14.057c6.499-4.743 12.759-10.074 18.686-16.001 8.197-8.197 15.264-17.027 21.191-26.252z" fill="#fce3a0"/><path d="m350.16 266.259-.355.059c-10.198 1.691-20.004-4.667-22.621-14.668l-10.936-41.796c-6.621 4.804-12.996 10.218-19.026 16.248-8.311 8.311-15.459 17.274-21.435 26.639l13.42 51.286c3.271 12.501 15.531 20.445 28.275 18.334l8.519-1.413c3.37-16.438 9.996-32.866 19.785-48.207 1.397-2.189 2.848-4.341 4.374-6.482z" fill="#ffce71"/></g><g><g><g><g><ellipse cx="288.282" cy="284.384" fill="#ff8e9e" rx="17.619" ry="22.125" transform="matrix(.707 -.707 .707 .707 -116.654 287.142)"/></g><g><ellipse cx="394.256" cy="390.358" fill="#ff8e9e" rx="17.619" ry="22.125" transform="matrix(.707 -.707 .707 .707 -160.55 393.112)"/></g></g></g><g fill="#313d40"><path d="m311.937 266.781-8.484 8.485c-2.929 2.929-2.929 7.678.001 10.606 2.928 2.928 7.676 2.929 10.606-.001l8.484-8.485c2.929-2.929 2.929-7.678-.001-10.606-2.928-2.928-7.677-2.929-10.606.001z"/><path d="m410.86 355.095c-2.93-2.928-7.678-2.928-10.607 0l-8.485 8.485c-2.929 2.93-2.929 7.678 0 10.607 2.931 2.929 7.678 2.928 10.607 0l8.485-8.485c2.929-2.929 2.929-7.677 0-10.607z"/></g></g></g></g></svg>