<svg id="Capa_1" enable-background="new 0 0 497 497" height="512" viewBox="0 0 497 497" width="512" xmlns="http://www.w3.org/2000/svg"><g><g><path d="m359.038 39.778c-24.642 20.2-38.545 51.258-49.586 110.771-19.971 107.633-29.465 153.22-33.95 179.201-.687 3.979-3.895 7.176-7.92 7.5-5.013.405-9.2-3.39-9.473-8.239-5.366-95.254-23.057-131.91-66.182-211.154l-91.391 60.166-65.346 43.02c35.39 45.037 67.562 69.922 67.562 136.167 0 84.38 71.794 139.79 144.569 139.79 16.989 0 33.764-3.099 49.453-8.958 17.595-6.572 33.823-16.619 47.448-29.677 26.164-25.077 40.73-58.618 41.016-94.444.465-58.426.005-227.229 0-228.984-.048-17.023 3.491-32.862 8.07-43.387 6.132-14.093 20.373-22.919 35.741-22.919l30-26.815-30-26.815c-28.724-.001-51.696 9.763-70.011 24.777z" fill="#ffce71"/><path d="m202.752 357.21c0-66.244-32.171-91.129-67.562-136.167l-34.654-43.02-65.346 43.02c35.39 45.037 67.562 69.922 67.562 136.167 0 84.38 71.794 139.79 144.569 139.79 16.989 0 33.764-3.099 49.453-8.958-52.178-18.886-94.022-66.414-94.022-130.832z" fill="#ffb357"/></g><g><ellipse cx="106.291" cy="169.822" fill="#ffb357" rx="128.247" ry="78.368" transform="matrix(.707 -.707 .707 .707 -88.951 124.899)"/><path d="m47.427 228.688c-6.384-6.384-2.572-44.618 35.269-82.461 38.215-38.213 76.252-41.478 82.461-35.269 6.372 6.372 2.592 44.595-35.271 82.46-38.72 38.719-76.548 41.181-82.459 35.27z" fill="#fc8a3d"/></g><path d="m482 0h-37.951c-8.284 0-15 6.716-15 15v53.631c0 8.284 6.716 15 15 15h9.346c4.428 0 8.674-1.759 11.806-4.89 1.638-1.638 2.928-3.597 3.751-5.763 3.039-7.998 9.398-14.357 17.396-17.396 2.166-.823 4.125-2.113 5.763-3.751 3.131-3.131 4.89-7.378 4.89-11.806v-25.025c-.001-8.284-6.717-15-15.001-15z" fill="#676fb2"/><g fill="#ffb357"><circle cx="295.01" cy="307.512" r="22.5"/><circle cx="303.098" cy="243.895" r="22.5"/><circle cx="311.186" cy="180.279" r="22.5"/><circle cx="319.274" cy="116.662" r="22.5"/></g><g><g><g><ellipse cx="165.943" cy="415.045" fill="#ff8e9e" rx="29.355" ry="23.377"/></g><g><ellipse cx="325.057" cy="415.045" fill="#ff8e9e" rx="29.355" ry="23.377"/></g></g></g><g fill="#313d40"><path d="m183.051 373.042c-4.143 0-7.5 3.357-7.5 7.5v12c0 4.143 3.357 7.5 7.5 7.5s7.5-3.357 7.5-7.5v-12c0-4.143-3.358-7.5-7.5-7.5z"/><path d="m307.948 373.042c-4.143 0-7.5 3.357-7.5 7.5v12c0 4.143 3.357 7.5 7.5 7.5s7.5-3.357 7.5-7.5v-12c0-4.143-3.357-7.5-7.5-7.5z"/><path d="m266.891 386.53c-3.123-2.721-7.861-2.396-10.581.728-2.729 3.131-6.669 4.927-10.81 4.927s-8.081-1.796-10.81-4.927c-2.721-3.124-7.459-3.448-10.581-.728-3.123 2.721-3.449 7.459-.728 10.581 5.578 6.402 13.64 10.073 22.118 10.073s16.54-3.671 22.118-10.073c2.723-3.122 2.397-7.86-.726-10.581z"/></g></g></svg>