<svg id="Capa_1" enable-background="new 0 0 497 497" height="512" viewBox="0 0 497 497" width="512" xmlns="http://www.w3.org/2000/svg"><g><g><path d="m426.886 75.2h-128.577-49.809v346.6h49.809 128.578c38.511 0 70.114-31.509 70.114-70.02v-206.56c-.001-38.511-31.604-70.02-70.115-70.02z" fill="#b28ae4"/><path d="m60 100c-33 0-60 27-60 60v177c0 33 27 60 60 60h188.5v-297z" fill="#976bcf"/></g><g><path d="m348.678 0h-90.178-100c-33 0-60 27-60 60v377c0 33 27 60 60 60h100 90.178c33 0 60-27 60-60v-377c0-33-27-60-60-60z" fill="#c9aaf2"/><path d="m218.5 437v-377c0-33 27-60 60-60h-120c-33 0-60 27-60 60v377c0 33 27 60 60 60h120c-33 0-60-27-60-60z" fill="#b28ae4"/></g><path d="m304.258 98.068-70.303 18.837c-14.195 3.804-24.109 16.725-24.109 31.421v91.505c-42.641-.413-68.251 44.703-42.981 64.725 9.129 7.234 21.742 8.318 33.212 5.624 23.906-5.612 39.786-25.989 39.786-41.538v-87.203l69.025-18.495v53.701c-42.794-.285-68.183 44.795-42.981 64.764 24.701 19.575 72.998-4.669 72.998-36.858v-119.898c0-18.096-17.149-31.273-34.647-26.585z" fill="#fce3a0"/><g><g><g><ellipse cx="170.324" cy="376.51" fill="#ff8e9e" rx="29.355" ry="23.377"/></g><g><ellipse cx="329.437" cy="376.51" fill="#ff8e9e" rx="29.355" ry="23.377"/></g></g></g><g fill="#313d40"><path d="m187.431 334.507c-4.143 0-7.5 3.357-7.5 7.5v12c0 4.143 3.357 7.5 7.5 7.5s7.5-3.357 7.5-7.5v-12c0-4.143-3.357-7.5-7.5-7.5z"/><path d="m312.329 334.507c-4.143 0-7.5 3.357-7.5 7.5v12c0 4.143 3.357 7.5 7.5 7.5s7.5-3.357 7.5-7.5v-12c0-4.143-3.358-7.5-7.5-7.5z"/><path d="m271.271 347.995c-3.123-2.722-7.86-2.396-10.581.728-2.729 3.131-6.669 4.927-10.81 4.927s-8.081-1.796-10.81-4.927c-2.721-3.124-7.459-3.448-10.581-.728-3.123 2.721-3.449 7.459-.728 10.581 5.578 6.402 13.64 10.073 22.118 10.073 8.479 0 16.54-3.671 22.118-10.073 2.723-3.122 2.397-7.86-.726-10.581z"/></g></g></svg>