<svg id="Capa_1" enable-background="new 0 0 497 497" height="512" viewBox="0 0 497 497" width="512" xmlns="http://www.w3.org/2000/svg"><g><g><path d="m381.32 45c0-24.853-20.147-45-45-45h-27.861-147.779c-24.853 0-45 20.147-45 45v66.399h265.64z" fill="#976bcf"/><path d="m205.462 102.997c0-56.884 46.113-102.997 102.997-102.997h-147.779c-24.853 0-45 20.147-45 45v66.399h89.782z" fill="#7c4cba"/></g><g><path d="m431.32 110c0-24.853-20.147-45-45-45h-77.861-197.779c-24.853 0-45 20.147-45 45v106.262h365.64z" fill="#b28ae4"/><path d="m185.462 167.998c0-56.884 46.113-102.998 102.997-102.998h-177.779c-24.853 0-45 20.147-45 45v106.262h119.782z" fill="#976bcf"/></g><g><path d="m437 160h-107-270c-33.137 0-60 26.863-60 60v217c0 33.137 26.863 60 60 60h270 107c33.137 0 60-26.863 60-60v-217c0-33.137-26.863-60-60-60z" fill="#c9aaf2"/><path d="m170 387v-87c0-77.32 62.68-140 140-140h-250c-33.137 0-60 26.863-60 60v217c0 33.137 26.863 60 60 60h250c-77.32 0-140-32.68-140-110z" fill="#b28ae4"/></g><path d="m304.878 191.068-70.303 18.837c-14.195 3.804-24.109 16.725-24.109 31.421v91.505c-42.641-.413-68.251 44.703-42.981 64.725 9.129 7.234 21.742 8.318 33.212 5.624 23.906-5.612 39.786-25.989 39.786-41.538v-87.203l69.025-18.495v53.701c-42.794-.285-68.183 44.795-42.981 64.764 24.701 19.575 72.998-4.669 72.998-36.858v-119.898c-.001-18.096-17.149-31.273-34.647-26.585z" fill="#fce3a0"/><g><g><g><ellipse cx="168.943" cy="463.36" fill="#ff8e9e" rx="29.355" ry="23.377"/></g><g><ellipse cx="328.057" cy="463.36" fill="#ff8e9e" rx="29.355" ry="23.377"/></g></g></g><g fill="#313d40"><path d="m186.051 421.357c-4.142 0-7.5 3.357-7.5 7.5v12c0 4.143 3.358 7.5 7.5 7.5s7.5-3.357 7.5-7.5v-12c0-4.143-3.358-7.5-7.5-7.5z"/><path d="m310.949 421.357c-4.142 0-7.5 3.357-7.5 7.5v12c0 4.143 3.358 7.5 7.5 7.5s7.5-3.357 7.5-7.5v-12c0-4.143-3.358-7.5-7.5-7.5z"/><path d="m269.892 434.845c-3.123-2.721-7.861-2.396-10.582.727-2.729 3.133-6.669 4.929-10.81 4.929s-8.081-1.796-10.81-4.929c-2.721-3.122-7.459-3.447-10.582-.727-3.123 2.722-3.448 7.459-.727 10.582 5.579 6.401 13.641 10.073 22.119 10.073s16.54-3.672 22.119-10.073c2.721-3.123 2.396-7.86-.727-10.582z"/></g></g></svg>