<svg id="Capa_1" enable-background="new 0 0 497 497" height="512" viewBox="0 0 497 497" width="512" xmlns="http://www.w3.org/2000/svg"><g><g><g><path d="m442.281 116.397c-33.808-33.808-80.514-54.719-132.103-54.719l-132.097 186.822h-.007s230.399 165.912 264.207 132.103c33.808-33.808 54.719-80.514 54.719-132.103s-20.911-98.295-54.719-132.103zm-132.103 154.657c-12.456 0-22.554-10.098-22.554-22.554s10.098-22.554 22.554-22.554 22.554 10.098 22.554 22.554-10.098 22.554-22.554 22.554z" fill="#7ce3ff"/><path d="m442.274 116.403-84.274 84.275 10.762 13.999 103.235-59.605c-8.203-14.176-18.219-27.165-29.723-38.669z" fill="#b9f0ff"/></g><path d="m310.178 282.331-59.325 69.093 59.325 83.898c51.59 0 98.295-20.911 132.104-54.719l-108.182-108.181c-6.122 6.122-14.58 9.909-23.922 9.909z" fill="#e9dcfa"/><path d="m310.178 180.837c-37.369 0-67.662 30.293-67.662 67.663 0 37.369 30.293 67.662 67.662 67.662s67.662-30.293 67.662-67.662-30.293-67.663-67.662-67.663zm0 90.217c-12.456 0-22.554-10.098-22.554-22.554s10.098-22.554 22.554-22.554 22.554 10.098 22.554 22.554-10.098 22.554-22.554 22.554z" fill="#efedff"/></g><g><path d="m250.178 0h-90.178-100c-33 0-60 27-60 60v377c0 33 27 60 60 60h100 90.178c33 0 60-27 60-60v-377c0-33-27-60-60-60z" fill="#88c5fd"/><path d="m120 437v-377c0-33 27-60 60-60h-120c-33 0-60 27-60 60v377c0 33 27 60 60 60h120c-33 0-60-27-60-60z" fill="#53a3ec"/></g><path d="m205.758 98.068-70.303 18.837c-14.195 3.804-24.109 16.725-24.109 31.421v91.505c-42.641-.413-68.251 44.703-42.981 64.725 9.129 7.234 21.743 8.318 33.212 5.624 23.906-5.612 39.786-25.989 39.786-41.538v-87.203l69.025-18.495v53.701c-42.794-.285-68.183 44.795-42.981 64.764 24.701 19.575 72.998-4.669 72.998-36.858v-119.898c0-18.096-17.149-31.273-34.647-26.585z" fill="#efedff"/><g><g><g><ellipse cx="71.824" cy="376.51" fill="#ffb5c0" rx="29.355" ry="23.377"/></g><g><ellipse cx="230.937" cy="376.51" fill="#ffb5c0" rx="29.355" ry="23.377"/></g></g></g><g fill="#313d40"><path d="m88.931 334.507c-4.143 0-7.5 3.357-7.5 7.5v12c0 4.143 3.357 7.5 7.5 7.5s7.5-3.357 7.5-7.5v-12c0-4.143-3.357-7.5-7.5-7.5z"/><path d="m213.829 334.507c-4.143 0-7.5 3.357-7.5 7.5v12c0 4.143 3.357 7.5 7.5 7.5s7.5-3.357 7.5-7.5v-12c0-4.143-3.358-7.5-7.5-7.5z"/><path d="m172.771 347.995c-3.123-2.722-7.86-2.396-10.581.728-2.729 3.131-6.669 4.927-10.81 4.927s-8.081-1.796-10.81-4.927c-2.721-3.124-7.459-3.448-10.581-.728-3.123 2.721-3.449 7.459-.728 10.581 5.578 6.402 13.64 10.073 22.118 10.073s16.54-3.671 22.118-10.073c2.723-3.122 2.397-7.86-.726-10.581z"/></g></g></svg>