<svg id="Capa_1" enable-background="new 0 0 497 497" height="512" viewBox="0 0 497 497" width="512" xmlns="http://www.w3.org/2000/svg"><g><g><path d="m392 0h-287c-33.137 0-60 26.863-60 60v377c0 33.137 26.863 60 60 60h187l160-160v-277c0-33.137-26.863-60-60-60z" fill="#efedff"/><path d="m165.238 377v-257c0-66.274 53.726-120 120-120h-180.238c-33.137 0-60 26.863-60 60v377c0 33.137 26.863 60 60 60h180.238c-58.903 0-107.89-42.441-118.059-98.41-1.273-7.005-1.941-14.218-1.941-21.59z" fill="#d4d4ff"/></g><g><path d="m333.873 38.306-127.929 34.246c-23.823 6.383-40.707 27.971-40.707 52.635v184.309c-41.332-9.417-96.986 26.472-96.986 67.978 0 28.719 29.101 45.168 65 36.741 12.423-2.916 24.042-8.448 33.927-15.625 18.617-13.516 31.07-32.874 31.073-51.632v-162.208l157.802-42.251v76.001c-41.33-9.417-97.305 26.467-97.305 67.979 0 28.718 29.102 45.168 65 36.741 35.833-8.413 64.997-38.551 65-67.251v-.008-175.547c.001-28.664-27.188-49.526-54.875-42.108z" fill="#53a3ec"/><path d="m165.238 309.496c-41.332-9.417-96.986 26.472-96.986 67.978 0 28.719 29.101 45.168 65 36.741 12.423-2.916 24.042-8.448 33.927-15.625-1.272-7.004-1.941-14.219-1.941-21.59z" fill="#4293dd"/></g><path d="m352 337c-33.137 0-60 26.863-60 60v100l160-160z" fill="#d4d4ff"/><g fill="#ff8e9e"><path d="m193.604 131.993c-15.66 4.196-25.646 17.707-22.304 30.177 3.342 12.471 18.745 19.179 34.405 14.983s25.646-17.707 22.304-30.178-18.745-19.179-34.405-14.982z"/><path d="m381.7 105.793c-3.341-12.471-18.745-19.179-34.405-14.982-15.66 4.196-25.646 17.707-22.304 30.178 3.341 12.471 18.745 19.179 34.405 14.982 15.66-4.196 25.646-17.707 22.304-30.178z"/></g><g fill="#313d40"><path d="m214.493 114.876c-1.071-4.001-5.186-6.381-9.186-5.303-4.001 1.072-6.375 5.185-5.303 9.186l3.106 11.591c.897 3.351 3.928 5.561 7.239 5.561.643 0 1.296-.083 1.946-.258 4.001-1.072 6.375-5.185 5.303-9.186z"/><path d="m338.241 94.141-3.106-11.591c-1.072-4-5.185-6.379-9.186-5.303-4.001 1.072-6.375 5.185-5.303 9.186l3.106 11.591c1.074 4.01 5.197 6.375 9.186 5.303 4.001-1.073 6.375-5.185 5.303-9.186z"/><path d="m289.784 100.902c-3.722-1.822-8.213-.279-10.033 3.439-1.827 3.732-5.168 6.487-9.168 7.56-4 1.069-8.271.355-11.716-1.963-3.435-2.312-8.097-1.402-10.409 2.036-2.313 3.437-1.4 8.097 2.036 10.409 6.937 4.667 15.664 6.235 23.972 4.006 8.188-2.194 15.025-7.827 18.758-15.454 1.821-3.72.281-8.212-3.44-10.033z"/></g></g></svg>