<svg id="Capa_1" enable-background="new 0 0 497 497" height="512" viewBox="0 0 497 497" width="512" xmlns="http://www.w3.org/2000/svg"><g><g><path d="m392 0h-287c-33.137 0-60 26.863-60 60v377c0 33.137 26.863 60 60 60h187l160-160v-277c0-33.137-26.863-60-60-60z" fill="#efedff"/><g fill="#d4d4ff"><path d="m171.585 377v-257c0-66.274 57.378-120 123.653-120h-190.238c-33.137 0-60 26.863-60 60v377c0 33.137 26.863 60 60 60h187c-66.337 0-120.415-53.799-120.415-120z"/><path d="m352 337c-33.137 0-60 26.863-60 60v100l160-160z"/></g></g><g><g><g><ellipse cx="168.943" cy="124.36" fill="#ff8e9e" rx="29.355" ry="23.377"/></g><g><ellipse cx="328.057" cy="124.36" fill="#ff8e9e" rx="29.355" ry="23.377"/></g></g></g><g fill="#313d40"><path d="m186.051 82.356c-4.143 0-7.5 3.357-7.5 7.5v12c0 4.143 3.357 7.5 7.5 7.5s7.5-3.357 7.5-7.5v-12c0-4.142-3.358-7.5-7.5-7.5z"/><path d="m310.948 82.356c-4.143 0-7.5 3.357-7.5 7.5v12c0 4.143 3.357 7.5 7.5 7.5s7.5-3.357 7.5-7.5v-12c0-4.142-3.357-7.5-7.5-7.5z"/><path d="m269.891 95.845c-3.123-2.722-7.86-2.396-10.581.728-2.729 3.132-6.669 4.928-10.81 4.928s-8.08-1.796-10.81-4.928c-2.721-3.124-7.459-3.448-10.581-.728-3.123 2.721-3.449 7.459-.728 10.581 5.578 6.402 13.641 10.074 22.118 10.074s16.54-3.672 22.118-10.074c2.723-3.122 2.397-7.861-.726-10.581z"/></g><g><path d="m137.549 221.151-38.43-38.43c-9.408-9.414-25.606-2.75-25.606 10.606v98.073c0 8.284 6.716 15 15 15s15-6.716 15-15v-61.859l23.43 23.43c5.857 5.857 15.355 5.857 21.213 0 28.767-28.767 18.635-18.586 44.43-44.643l-21-21.213z" fill="#4293dd"/><g fill="#64b3fb"><path d="m276.388 178.328h-30.391c-8.284 0-15 6.716-15 15v98.072c0 8.284 6.716 15 15 15s15-6.716 15-15v-21.777h15.391c25.313 0 45.905-20.478 45.905-45.647s-20.592-45.648-45.905-45.648zm0 61.295h-15.391v-31.295h15.391c8.771 0 15.905 7.02 15.905 15.647s-7.134 15.648-15.905 15.648z"/><path d="m423.487 197.65c0-37.983-44.291-59.627-75.215-37.193-6.705 4.865-8.197 14.245-3.333 20.95s14.244 8.195 20.95 3.333c11.188-8.122 27.598-.574 27.598 12.91 0 8.96-7.702 16.25-17.17 16.25-8.284 0-15 6.716-15 15s6.716 15 15 15c9.445 0 17.129 7.29 17.129 16.25s-7.684 16.25-17.129 16.25c-6.172 0-11.896-3.177-14.938-8.291-4.234-7.121-13.44-9.459-20.56-5.224s-9.459 13.44-5.224 20.56c8.422 14.159 24.025 22.955 40.722 22.955 25.987 0 47.129-20.748 47.129-46.25 0-12.03-4.708-22.999-12.407-31.234 7.723-8.239 12.448-19.22 12.448-31.266z"/><path d="m175.979 182.722-4.394 4.394v42.426 61.858c0 8.284 6.716 15 15 15s15-6.716 15-15v-98.072c0-13.337-16.185-20.032-25.606-10.606z"/></g></g></g></svg>