<svg id="Capa_1" enable-background="new 0 0 497 497" height="512" viewBox="0 0 497 497" width="512" xmlns="http://www.w3.org/2000/svg"><g><path d="m416.626 160.267c-.004-75.047-51.455-137.779-120.746-155.352-12.642-3.207-25.877-4.915-39.503-4.915-69.776 0-129.126 44.596-151.133 106.835v.007c-57.348.761-105.244 47.61-105.244 106.853 0 59.01 47.837 106.847 106.847 106.847h227.356 82.661c44.258 0 80.136-35.878 80.136-80.136 0-44.838-36.645-80.373-80.374-80.139z" fill="#88c5fd"/><path d="m175.161 160.273c0-74.868 51.332-137.741 120.719-155.358-12.642-3.207-25.877-4.915-39.503-4.915-69.776 0-129.126 44.596-151.133 106.835v.007c-57.348.761-105.244 47.61-105.244 106.853 0 59.01 47.837 106.847 106.847 106.847h227.356c-87.95-.669-159.042-72.162-159.042-160.269z" fill="#64b3fb"/><g fill="#ff8e9e"><path d="m219.043 194.397c-.04 12.848-13.152 23.222-29.285 23.171s-29.179-10.506-29.139-23.354 13.151-23.222 29.285-23.172c16.133.051 29.179 10.507 29.139 23.355z"/><path d="m318.957 194.71c-.04 12.848 13.006 23.304 29.139 23.354 16.133.051 29.245-10.323 29.285-23.171s-13.006-23.304-29.139-23.355c-16.133-.05-29.245 10.324-29.285 23.172z"/></g><g fill="#313d40"><path d="m204.5 152.042c-4.142 0-7.5 3.358-7.5 7.5v10c0 4.142 3.358 7.5 7.5 7.5s7.5-3.358 7.5-7.5v-10c0-4.142-3.358-7.5-7.5-7.5z"/><path d="m332.5 152.042c-4.142 0-7.5 3.358-7.5 7.5v10c0 4.142 3.358 7.5 7.5 7.5s7.5-3.358 7.5-7.5v-10c0-4.142-3.358-7.5-7.5-7.5z"/><path d="m288.235 165.776c-3.737-1.789-8.215-.206-10.001 3.531-1.666 3.484-5.291 5.735-9.234 5.735s-7.568-2.251-9.234-5.735c-1.787-3.737-6.266-5.317-10.001-3.531-3.737 1.787-5.318 6.265-3.531 10.001 4.144 8.666 13.08 14.265 22.766 14.265s18.623-5.599 22.766-14.265c1.787-3.736.206-8.214-3.531-10.001z"/></g><path d="m281.056 249.049-78.008 20.902c-15.751 4.221-26.752 18.558-26.752 34.864v112.63c-47.314-.458-75.731 49.602-47.692 71.819 10.13 8.027 24.125 9.229 36.852 6.24 26.526-6.227 44.146-28.837 44.146-46.09v-107.856l76.59-20.522v70.682l.055.051c-41.798 1.61-65.972 45.893-40.914 65.748 24.447 19.374 71.639-3.503 74.06-34.933l.105.097v-144.133c.002-20.079-19.026-34.7-38.442-29.499z" fill="#ffce71"/></g></svg>