<svg id="Capa_1" enable-background="new 0 0 497 497" height="512" viewBox="0 0 497 497" width="512" xmlns="http://www.w3.org/2000/svg"><g><path d="m397 128.499h-108.39l-26.013-31.214c-15.199-18.239-37.715-28.785-61.457-28.785h-79.334c-16.703 0-32.651 6.963-44.005 19.214l-21.805 23.526c-10.282 11.093-15.994 25.66-15.995 40.785l-.001 86.474h417v-50c0-33.137-26.863-60-60-60z" fill="#ffb357"/><g><path d="m457 188.499h-416.998c-22.091 0-40.002 17.909-40.002 40 0 5.319.547 10.625 1.632 15.832l28.418 136.405c5.797 27.823 30.318 47.763 58.739 47.763h11.211 308.212c28.421 0 52.942-19.94 58.739-47.763l28.418-136.405c1.085-5.208 1.632-10.513 1.632-15.832-.001-22.091-17.91-40-40.001-40z" fill="#ffce71"/><path d="m120.05 380.737-28.418-136.406c-1.085-5.207-1.632-10.512-1.632-15.832 0-22.091 17.91-40 40.002-40h-90c-22.091 0-40.002 17.909-40.002 40 0 5.319.547 10.625 1.632 15.832l28.418 136.405c5.797 27.823 30.318 47.763 58.739 47.763h11.211 78.788c-28.42 0-52.942-19.939-58.738-47.762z" fill="#ffb357"/></g><path d="m294.878 213.246-70.303 18.837c-14.195 3.804-24.109 16.725-24.109 31.421v69.505c-42.641-.413-68.251 44.703-42.981 64.725 9.129 7.234 21.743 8.318 33.212 5.624 23.906-5.612 39.786-25.989 39.786-41.538v-65.203l69.025-18.495v31.701c-42.794-.285-68.183 44.795-42.981 64.764 24.701 19.575 72.998-4.669 72.998-36.858v-97.897c-.001-18.097-17.149-31.274-34.647-26.586z" fill="#b28ae4"/></g></svg>