<svg id="Layer_1" enable-background="new 0 0 512 512" height="512" viewBox="0 0 512 512" width="512" xmlns="http://www.w3.org/2000/svg"><g><g fill="#e3889b"><path d="m343.758 81.487c.163 2.227.248 4.419.248 6.527 0 20.421-12.891 46.846-39.393 80.759-18.385 23.518-36.515 41.762-37.286 42.532 0 0-.007.007-.014.014-2.998 2.998-7.071 4.681-11.314 4.681-4.25.007-8.33-1.683-11.328-4.695-.771-.771-18.901-19.014-37.286-42.532-26.502-33.913-39.393-60.337-39.386-80.766 0-2.107.078-4.292.233-6.498 1.633-22.14 11.469-42.653 27.74-57.848 16.342-15.253 37.662-23.661 60.02-23.661 22.38.007 43.692 8.408 60.033 23.66 16.257 15.181 26.107 35.709 27.733 57.827z"/><path d="m81.487 168.242c2.227-.163 4.419-.248 6.527-.248 20.421 0 46.846 12.891 80.759 39.393 23.518 18.385 41.762 36.515 42.532 37.286 0 0 .007.007.014.014 2.998 2.998 4.681 7.071 4.681 11.314.007 4.25-1.683 8.33-4.695 11.328-.771.771-19.014 18.901-42.532 37.286-33.913 26.502-60.337 39.393-80.766 39.386-2.107 0-4.292-.078-6.498-.233-22.14-1.633-42.653-11.469-57.848-27.74-15.253-16.342-23.661-37.662-23.661-60.02.007-22.38 8.408-43.692 23.66-60.033 15.181-16.257 35.709-26.107 57.827-27.733z"/><path d="m168.242 430.513c-.163-2.227-.248-4.419-.248-6.527 0-20.421 12.891-46.846 39.393-80.759 18.385-23.518 36.515-41.762 37.286-42.532 0 0 .007-.007.014-.014 2.998-2.998 7.071-4.681 11.314-4.681 4.25-.007 8.33 1.683 11.328 4.695.771.771 18.901 19.014 37.286 42.532 26.502 33.913 39.393 60.337 39.386 80.766 0 2.107-.078 4.292-.233 6.498-1.633 22.14-11.469 42.653-27.74 57.848-16.341 15.252-37.66 23.66-60.019 23.66-22.38-.007-43.692-8.408-60.033-23.66-16.258-15.18-26.108-35.708-27.734-57.826z"/><path d="m430.513 343.758c-2.227.163-4.419.248-6.527.248-20.421 0-46.846-12.891-80.759-39.393-23.518-18.385-41.762-36.515-42.532-37.286 0 0-.007-.007-.014-.014-2.998-2.998-4.681-7.071-4.681-11.314-.007-4.25 1.683-8.33 4.695-11.328.771-.771 19.014-18.901 42.532-37.286 33.913-26.502 60.337-39.393 80.766-39.386 2.107 0 4.292.078 6.498.233 22.14 1.633 42.653 11.469 57.848 27.74 15.252 16.341 23.66 37.66 23.66 60.019-.007 22.38-8.408 43.692-23.66 60.033-15.18 16.258-35.708 26.108-57.826 27.734z"/></g><path d="m232.4 216.38c.01 4.25-1.68 8.33-4.69 11.33-3 3-7.07 4.69-11.31 4.69-.01 0-.02 0-.02 0-1.09 0-26.81-.08-56.44-3.71-42.72-5.24-70.52-14.81-84.96-29.26-1.49-1.48-2.98-3.09-4.43-4.76-14.5-16.81-22.05-38.29-21.29-60.52.77-22.34 9.9-43.35 25.71-59.17 15.82-15.82 36.84-24.95 59.18-25.72 22.26-.76 43.71 6.79 60.5 21.28 1.69 1.46 3.29 2.95 4.78 4.43 14.45 14.45 24.02 42.25 29.26 84.97 3.63 29.63 3.71 55.35 3.71 56.44z" fill="#f79caf"/><path d="m232.4 295.62c0 1.09-.08 26.81-3.71 56.44-5.24 42.72-14.81 70.52-29.26 84.96-1.49 1.49-3.09 2.98-4.76 4.43-16.03 13.83-36.32 21.34-57.44 21.34-1.02 0-2.05-.02-3.08-.05-22.34-.77-43.36-9.9-59.17-25.71-15.82-15.83-24.95-36.84-25.72-59.18-.76-22.23 6.79-43.71 21.28-60.5 1.46-1.69 2.95-3.3 4.44-4.79 14.44-14.44 42.24-24.01 84.96-29.25 29.63-3.63 55.35-3.71 56.44-3.71h.02c4.24 0 8.31 1.69 11.31 4.69 3.01 3 4.7 7.08 4.69 11.33z" fill="#f79caf"/><path d="m462.74 377.85c-.77 22.34-9.9 43.35-25.71 59.17-15.82 15.82-36.84 24.95-59.18 25.72-1.03.03-2.06.05-3.08.05-21.12 0-41.41-7.51-57.42-21.33-1.69-1.46-3.29-2.95-4.78-4.43-14.45-14.45-24.02-42.25-29.26-84.97-3.63-29.63-3.71-55.35-3.71-56.44-.01-4.25 1.68-8.33 4.69-11.33 3-3 7.07-4.69 11.31-4.69h.02c1.09 0 26.81.08 56.44 3.71 42.72 5.24 70.52 14.81 84.96 29.26 1.49 1.48 2.98 3.09 4.43 4.76 14.5 16.81 22.05 38.29 21.29 60.52z" fill="#f79caf"/><path d="m441.46 194.65c-1.46 1.69-2.95 3.3-4.44 4.79-14.44 14.44-42.24 24.01-84.96 29.25-29.63 3.63-55.35 3.71-56.44 3.71 0 0-.01 0-.02 0-4.24 0-8.31-1.69-11.31-4.69-3.01-3-4.7-7.08-4.69-11.33 0-1.09.08-26.81 3.71-56.44 5.24-42.72 14.81-70.52 29.26-84.96 1.49-1.49 3.09-2.98 4.76-4.43 16.81-14.5 38.27-22.05 60.52-21.29 22.34.77 43.36 9.9 59.17 25.71 15.82 15.83 24.95 36.84 25.72 59.18.76 22.23-6.79 43.71-21.28 60.5z" fill="#f79caf"/><path d="m328 256c0 19.22-7.49 37.3-21.08 50.91-13.62 13.6-31.7 21.09-50.92 21.09s-37.3-7.49-50.91-21.08l-.01-.01c-13.59-13.61-21.08-31.69-21.08-50.91s7.49-37.3 21.08-50.91c13.62-13.6 31.7-21.09 50.92-21.09s37.3 7.49 50.91 21.08c13.6 13.62 21.09 31.7 21.09 50.92z" fill="#f8e9d2"/></g></svg>