<svg height="512pt" viewBox="-6 0 512 512.00102" width="512pt" xmlns="http://www.w3.org/2000/svg"><path d="m500.773438 261.613281c0 138.285157-112.101563 250.386719-250.386719 250.386719-138.285157 0-250.386719-112.101562-250.386719-250.386719 0-138.285156 112.101562-250.382812 250.386719-250.382812 138.285156 0 250.386719 112.097656 250.386719 250.382812zm0 0" fill="#fdd33a"/><path d="m250.386719 512c131.738281 0 239.710937-101.742188 249.636719-230.933594-72.65625-23.355468-158.140626-36.824218-249.636719-36.824218-91.496094 0-176.980469 13.46875-249.640625 36.824218 9.929687 129.191406 117.902344 230.933594 249.640625 230.933594zm0 0" fill="#3f6dc9"/><path d="m250.386719 330.085938c50.375 0 92.894531-33.601563 106.386719-79.613282-34.214844-4.074218-69.820313-6.230468-106.386719-6.230468-36.570313 0-72.175781 2.15625-106.386719 6.230468 13.492188 46.011719 56.011719 79.613282 106.386719 79.613282zm0 0" fill="#4f81d3"/><path d="m407.007812 275.375c.398438-4.535156.617188-9.121094.617188-13.761719 0-85.628906-69.417969-155.046875-155.046875-155.046875s-155.046875 69.417969-155.046875 155.046875c0 4.375.191406 8.707031.546875 12.992188 47.839844-8.421875 99.050781-12.992188 152.308594-12.992188 54.859375 0 107.554687 4.847657 156.621093 13.761719zm0 0" fill="#fc8e36"/><path d="m282.214844 109.410156c-1.195313-.230468-2.402344-.449218-3.609375-.65625 0 0-.003907 0-.007813 0-1.191406-.203125-2.390625-.390625-3.59375-.566406-.046875-.003906-.09375-.011719-.144531-.019531-1.15625-.164063-2.316406-.320313-3.480469-.460938-.121094-.015625-.25-.027343-.375-.042969-1.085937-.132812-2.179687-.25-3.277344-.359374-.242187-.023438-.484374-.039063-.726562-.0625-.992188-.09375-1.980469-.179688-2.976562-.25-.394532-.03125-.792969-.050782-1.1875-.078126-.855469-.054687-1.710938-.113281-2.566407-.15625-.636719-.027343-1.273437-.046874-1.90625-.070312-.636719-.023438-1.269531-.054688-1.90625-.070312-1.289062-.03125-2.582031-.050782-3.878906-.050782-14.714844 0-28.953125 2.054688-42.445313 5.882813-2.453124.699219-4.878906 1.453125-7.28125 2.265625-7.203124 2.4375-14.171874 5.390625-20.855468 8.816406-2.230469 1.140625-4.429688 2.335938-6.589844 3.578125-3.25 1.867187-6.421875 3.847656-9.515625 5.9375s-6.105469 4.289063-9.035156 6.589844c-4.878907 3.835937-9.527344 7.960937-13.910157 12.34375-3.507812 3.507812-6.847656 7.179687-10.007812 11.011719-10.265625 12.441406-18.632812 26.515624-24.648438 41.769531-6.941406 17.605469-10.753906 36.785156-10.753906 56.851562 0 1.199219.019532 2.398438.042969 3.589844.015625.59375.039063 1.1875.058594 1.777344.019531.542969.039062 1.082031.0625 1.625.035156.792969.078125 1.585937.125 2.378906.015625.277344.035156.554687.050781.832031.0625.929688.128906 1.859375.207031 2.785156v.003907c19.089844-3.359375 38.726563-6.097657 58.808594-8.183594-.046875-1.597656-.082031-3.199219-.082031-4.808594 0-75.492187 53.957031-138.371093 125.40625-152.203125zm0 0" fill="#ed7626"/><path d="m368.789062 201.960938c0 15.65625-12.691406 28.347656-28.347656 28.347656s-28.347656-12.691406-28.347656-28.347656 12.691406-28.347657 28.347656-28.347657 28.347656 12.691407 28.347656 28.347657zm0 0" fill="#ffab5f"/><path d="m325.636719 153.304688c0 9.816406-7.957031 17.769531-17.769531 17.769531-9.816407 0-17.769532-7.953125-17.769532-17.769531 0-9.8125 7.953125-17.769532 17.769532-17.769532 9.8125 0 17.769531 7.957032 17.769531 17.769532zm0 0" fill="#ffab5f"/><g fill="#fc8e36"><path d="m252.515625 88.378906c-4.234375 0-7.667969-3.429687-7.667969-7.664062v-73.050782c0-4.230468 3.433594-7.664062 7.667969-7.664062 4.230469 0 7.664063 3.433594 7.664063 7.664062v73.050782c0 4.234375-3.433594 7.664062-7.664063 7.664062zm0 0"/><path d="m380.429688 141.367188c-1.960938 0-3.921876-.75-5.417969-2.246094-2.996094-2.992188-2.996094-7.847656 0-10.839844l51.652343-51.65625c2.996094-2.992188 7.847657-2.992188 10.839844 0 2.992188 2.996094 2.992188 7.847656 0 10.839844l-51.652344 51.65625c-1.496093 1.496094-3.457031 2.246094-5.421874 2.246094zm0 0"/><path d="m124.597656 141.363281c-1.960937 0-3.921875-.746093-5.417968-2.242187l-51.65625-51.65625c-2.992188-2.992188-2.992188-7.847656 0-10.839844 2.992187-2.992188 7.847656-2.992188 10.839843 0l51.652344 51.65625c2.992187 2.992188 2.992187 7.847656 0 10.839844-1.496094 1.496094-3.457031 2.242187-5.417969 2.242187zm0 0"/><path d="m407.007812 275.375c.398438-4.535156.617188-9.121094.617188-13.761719 0-85.628906-69.417969-155.046875-155.046875-155.046875s-155.046875 69.417969-155.046875 155.046875c0 4.375.191406 8.707031.546875 12.992188 47.839844-8.421875 99.050781-12.992188 152.308594-12.992188 54.859375 0 107.554687 4.847657 156.621093 13.761719zm0 0"/></g><path d="m282.214844 109.410156c-1.195313-.230468-2.402344-.449218-3.609375-.65625 0 0-.003907 0-.007813 0-1.191406-.203125-2.390625-.390625-3.59375-.566406-.046875-.003906-.09375-.011719-.144531-.019531-1.15625-.164063-2.316406-.320313-3.480469-.460938-.121094-.015625-.25-.027343-.375-.042969-1.085937-.132812-2.179687-.25-3.277344-.359374-.242187-.023438-.484374-.039063-.726562-.0625-.992188-.09375-1.980469-.179688-2.976562-.25-.394532-.03125-.792969-.050782-1.1875-.078126-.855469-.054687-1.710938-.113281-2.566407-.15625-.636719-.027343-1.273437-.046874-1.90625-.070312-.636719-.023438-1.269531-.054688-1.90625-.070312-1.289062-.03125-2.582031-.050782-3.878906-.050782-14.714844 0-28.953125 2.054688-42.445313 5.882813-2.453124.699219-4.878906 1.453125-7.28125 2.265625-7.203124 2.4375-14.171874 5.390625-20.855468 8.816406-2.230469 1.140625-4.429688 2.335938-6.589844 3.578125-3.25 1.867187-6.421875 3.847656-9.515625 5.9375s-6.105469 4.289063-9.035156 6.589844c-4.878907 3.835937-9.527344 7.960937-13.910157 12.34375-3.507812 3.507812-6.847656 7.179687-10.007812 11.011719-10.265625 12.441406-18.632812 26.515624-24.648438 41.769531-6.941406 17.605469-10.753906 36.785156-10.753906 56.851562 0 1.199219.019532 2.398438.042969 3.589844.015625.59375.039063 1.1875.058594 1.777344.019531.542969.039062 1.082031.0625 1.625.035156.792969.078125 1.585937.125 2.378906.015625.277344.035156.554687.050781.832031.0625.929688.128906 1.859375.207031 2.785156v.003907c19.089844-3.359375 38.726563-6.097657 58.808594-8.183594-.046875-1.597656-.082031-3.199219-.082031-4.808594 0-75.492187 53.957031-138.371093 125.40625-152.203125zm0 0" fill="#ed7626"/><path d="m368.789062 201.960938c0 15.65625-12.691406 28.347656-28.347656 28.347656s-28.347656-12.691406-28.347656-28.347656 12.691406-28.347657 28.347656-28.347657 28.347656 12.691407 28.347656 28.347657zm0 0" fill="#ffab5f"/><path d="m325.636719 153.304688c0 9.816406-7.957031 17.769531-17.769531 17.769531-9.816407 0-17.769532-7.953125-17.769532-17.769531 0-9.8125 7.953125-17.769532 17.769532-17.769532 9.8125 0 17.769531 7.957032 17.769531 17.769532zm0 0" fill="#ffab5f"/><path d="m252.515625 88.378906c-4.234375 0-7.667969-3.429687-7.667969-7.664062v-73.050782c0-4.230468 3.433594-7.664062 7.667969-7.664062 4.230469 0 7.664063 3.433594 7.664063 7.664062v73.050782c0 4.234375-3.433594 7.664062-7.664063 7.664062zm0 0" fill="#fc8e36"/><path d="m380.429688 141.367188c-1.960938 0-3.921876-.75-5.417969-2.246094-2.996094-2.992188-2.996094-7.847656 0-10.839844l51.652343-51.65625c2.996094-2.992188 7.847657-2.992188 10.839844 0 2.992188 2.996094 2.992188 7.847656 0 10.839844l-51.652344 51.65625c-1.496093 1.496094-3.457031 2.246094-5.421874 2.246094zm0 0" fill="#fc8e36"/><path d="m124.597656 141.363281c-1.960937 0-3.921875-.746093-5.417968-2.242187l-51.65625-51.65625c-2.992188-2.992188-2.992188-7.847656 0-10.839844 2.992187-2.992188 7.847656-2.992188 10.839843 0l51.652344 51.65625c2.992187 2.992188 2.992187 7.847656 0 10.839844-1.496094 1.496094-3.457031 2.242187-5.417969 2.242187zm0 0" fill="#fc8e36"/><path d="m250.386719 512c131.738281 0 239.710937-101.742188 249.636719-230.933594-72.65625-23.355468-158.140626-36.824218-249.636719-36.824218-91.496094 0-176.980469 13.46875-249.640625 36.824218 9.929687 129.191406 117.902344 230.933594 249.640625 230.933594zm0 0" fill="#3f6dc9"/><path d="m250.386719 327.019531c49.285156 0 91.035156-32.171875 105.453125-76.65625-33.925782-4.003906-69.214844-6.121093-105.453125-6.121093s-71.527344 2.117187-105.453125 6.121093c14.417968 44.484375 56.167968 76.65625 105.453125 76.65625zm0 0" fill="#4f81d3"/><path d="m56.957031 265.953125c1.34375-.433594 2.699219-.851563 4.050781-1.277344-20.898437 4.730469-41.03125 10.207031-60.261718 16.390625 9.929687 129.191406 117.902344 230.933594 249.640625 230.933594 20.894531 0 41.183593-2.566406 60.585937-7.386719-134.339844-2.050781-243.855468-106.4375-254.015625-238.660156zm0 0" fill="#2e5daa"/></svg>