<svg height="512pt" viewBox="0 0 512 512" width="512pt" xmlns="http://www.w3.org/2000/svg"><path d="m512 256c0 141.386719-114.613281 256-256 256s-256-114.613281-256-256 114.613281-256 256-256 256 114.613281 256 256zm0 0" fill="#393991"/><path d="m414.019531 268.640625c.332031-4.171875.503907-8.386719.503907-12.640625 0-87.550781-70.972657-158.523438-158.523438-158.523438s-158.523438 70.972657-158.523438 158.523438c0 4.253906.171876 8.46875.503907 12.640625 49.566406-8.871094 102.71875-13.683594 158.019531-13.683594s108.453125 4.8125 158.019531 13.683594zm0 0" fill="#fc8e36"/><path d="m286.300781 100.382812c-1.222656-.238281-2.453125-.460937-3.6875-.667968-.003906-.003906-.007812-.003906-.011719-.003906-1.21875-.207032-2.441406-.398438-3.671874-.578126-.050782-.003906-.097657-.011718-.148438-.019531-1.179688-.167969-2.367188-.328125-3.558594-.472656-.125-.015625-.253906-.027344-.382812-.042969-1.113282-.132812-2.230469-.257812-3.351563-.367187-.25-.023438-.496093-.042969-.746093-.0625-1.011719-.097657-2.023438-.183594-3.039063-.257813-.40625-.03125-.8125-.050781-1.214844-.078125-.875-.058593-1.75-.117187-2.625-.160156-.648437-.03125-1.300781-.050781-1.949219-.074219-.648437-.023437-1.296874-.054687-1.949218-.070312-1.316406-.03125-2.640625-.050782-3.964844-.050782-15.046875 0-29.605469 2.097657-43.398438 6.015626-2.507812.710937-4.988281 1.484374-7.441406 2.3125-7.367187 2.492187-14.492187 5.511718-21.328125 9.015624-2.277343 1.167969-4.523437 2.386719-6.738281 3.660157-3.316406 1.910156-6.5625 3.933593-9.722656 6.070312-3.164063 2.136719-6.246094 4.382813-9.238282 6.738281-4.992187 3.921876-9.742187 8.136719-14.222656 12.617188-3.585937 3.585938-7 7.34375-10.230468 11.257812-10.5 12.722657-19.054688 27.113282-25.203126 42.710938-7.101562 17.996094-11 37.605469-11 58.125 0 1.222656.019532 2.441406.046876 3.65625.011718.464844.027343.925781.042968 1.386719.023438.730469.050782 1.457031.082032 2.179687.027343.585938.054687 1.167969.085937 1.746094.03125.589844.070313 1.175781.113281 1.765625.042969.632813.082032 1.269531.128906 1.902344v.003906c19.523438-3.496094 39.613282-6.347656 60.160157-8.539063-.035157-1.363281-.054688-2.730468-.054688-4.101562 0-77.183594 55.167969-141.472656 128.21875-155.617188zm0 0" fill="#ed7626"/><path d="m256 512c134.691406 0 245.085938-104.023438 255.234375-236.113281-74.285156-23.878907-161.6875-37.648438-255.234375-37.648438s-180.949219 13.769531-255.234375 37.648438c10.148437 132.089843 120.542969 236.113281 255.234375 236.113281zm0 0" fill="#fdd33a"/><path d="m378.996094 196.558594c0 16.421875-13.3125 29.734375-29.734375 29.734375s-29.734375-13.3125-29.734375-29.734375 13.3125-29.734375 29.734375-29.734375 29.734375 13.3125 29.734375 29.734375zm0 0" fill="#ffab5f"/><path d="m333.726562 145.523438c0 10.292968-8.34375 18.636718-18.636718 18.636718-10.296875 0-18.640625-8.34375-18.640625-18.636718 0-10.296876 8.34375-18.640626 18.640625-18.640626 10.292968 0 18.636718 8.34375 18.636718 18.640626zm0 0" fill="#ffab5f"/><path d="m58.234375 260.4375c1.371094-.441406 2.757813-.875 4.140625-1.308594-21.367188 4.835938-41.953125 10.4375-61.609375 16.757813 10.148437 132.089843 120.542969 236.113281 255.234375 236.113281 21.363281 0 42.109375-2.625 61.945312-7.554688-137.351562-2.097656-249.324218-108.820312-259.710937-244.007812zm0 0" fill="#e8bb2a"/><path d="m262.269531 322.875c50.121094 0 92.628907-32.542969 107.585938-77.644531-36.53125-4.566407-74.652344-6.992188-113.855469-6.992188-34.898438 0-68.941406 1.917969-101.769531 5.558594 14.527343 45.84375 57.390625 79.078125 108.039062 79.078125zm0 0" fill="#ffe292"/><g fill="#4848aa"><path d="m386.148438 35.527344h-94.25c-8.367188 0-15.152344 6.78125-15.152344 15.148437 0 8.371094 6.785156 15.152344 15.152344 15.152344h71.875c5.300781.929687 9.332031 5.542969 9.332031 11.109375 0 6.234375-5.050781 11.289062-11.289063 11.289062h-23.113281c-5.941406 0-10.753906 4.816407-10.753906 10.757813v1.066406c0 5.941407 4.8125 10.757813 10.753906 10.757813h128.148437c-21.089843-30.566406-48.648437-56.316406-80.703124-75.28125zm0 0"/><path d="m160.761719 100.050781v-1.066406c0-5.941406-4.8125-10.757813-10.753907-10.757813h-12.992187c-6.234375 0-11.289063-5.050781-11.289063-11.289062 0-5.566406 4.03125-10.179688 9.332032-11.109375h25.183594c8.367187 0 15.148437-6.78125 15.148437-15.152344 0-8.367187-6.78125-15.148437-15.148437-15.148437h-34.390626c-32.054687 18.964844-59.613281 44.714844-80.703124 75.28125h104.859374c5.941407 0 10.753907-4.816406 10.753907-10.757813zm0 0"/></g></svg>