<svg height="512pt" viewBox="-6 0 512 512" width="512pt" xmlns="http://www.w3.org/2000/svg"><path d="m500.769531 261.613281c0 138.285157-112.097656 250.386719-250.382812 250.386719-138.285157 0-250.386719-112.101562-250.386719-250.386719 0-138.285156 112.101562-250.382812 250.386719-250.382812 138.285156 0 250.382812 112.097656 250.382812 250.382812zm0 0" fill="#fdd33a"/><path d="m153.050781 279.882812c.882813.828126 1.84375 1.507813 2.847657 2.066407 4.035156.101562 8.203124.207031 12.488281.308593 1.214843-.597656 2.375-1.386718 3.425781-2.375 9.113281-8.558593 21.226562-13.773437 34.523438-13.773437 13.292968 0 25.40625 5.214844 34.523437 13.773437 5.363281 5.039063 13.394531 5.039063 18.761719 0 9.113281-8.558593 21.226562-13.773437 34.523437-13.773437 13.292969 0 25.40625 5.214844 34.519531 13.773437 5.367188 5.039063 13.398438 5.039063 18.765626 0 9.113281-8.558593 21.226562-13.773437 34.519531-13.773437 8.402343 0 16.328125 2.085937 23.324219 5.777344.203124-3.226563.308593-6.480469.308593-9.761719 0-86.074219-69.777343-155.851562-155.851562-155.851562s-155.851563 69.777343-155.851563 155.851562c0 3.464844.128906 6.894531.355469 10.300781 7.234375-4.023437 15.503906-6.316406 24.296875-6.316406 13.292969-.003906 25.40625 5.214844 34.519531 13.773437zm0 0" fill="#fc8e36"/><path d="m280.898438 109.394531c-5.035157-1.023437-10.15625-1.804687-15.355469-2.328125-.019531 0-.042969-.003906-.066407-.003906-.058593-.007812-.117187-.011719-.175781-.015625-1.21875-.121094-2.4375-.230469-3.664062-.324219-.300781-.023437-.605469-.035156-.910157-.058594-1.007812-.070312-2.015624-.136718-3.027343-.191406-.558594-.027344-1.117188-.039062-1.679688-.0625-.761719-.03125-1.523437-.066406-2.289062-.085937-1.332031-.035157-2.664063-.050781-4.003907-.050781-86.074218 0-155.851562 69.777343-155.851562 155.851562 0 1.699219.03125 3.390625.089844 5.074219.003906.117187.011718.234375.015625.351562.058593 1.628907.140625 3.253907.25 4.875 7.234375-4.023437 15.503906-6.316406 24.296875-6.316406 13.296875 0 25.40625 5.214844 34.523437 13.773437.882813.828126 1.84375 1.507813 2.847657 2.066407.519531.011719 1.0625.023437 1.585937.039062-.828125-6.503906-1.269531-13.132812-1.269531-19.863281 0-75.398438 53.546875-138.292969 124.683594-152.730469zm0 0" fill="#ed7626"/><path d="m374.773438 211.652344c0 16.0625-13.023438 29.082031-29.082032 29.082031-16.0625 0-29.085937-13.019531-29.085937-29.082031s13.023437-29.082032 29.085937-29.082032c16.058594 0 29.082032 13.019532 29.082032 29.082032zm0 0" fill="#ffab5f"/><path d="m330.496094 161.734375c0 10.070313-8.160156 18.230469-18.230469 18.230469-10.066406 0-18.230469-8.160156-18.230469-18.230469 0-10.066406 8.164063-18.230469 18.230469-18.230469 10.070313 0 18.230469 8.164063 18.230469 18.230469zm0 0" fill="#ffab5f"/><g fill="#fc8e36"><path d="m250.46875 88.378906c-4.230469 0-7.664062-3.429687-7.664062-7.664062v-73.050782c0-4.230468 3.429687-7.664062 7.664062-7.664062s7.664062 3.433594 7.664062 7.664062v73.050782c0 4.234375-3.429687 7.664062-7.664062 7.664062zm0 0"/><path d="m378.386719 141.367188c-1.960938 0-3.925781-.75-5.421875-2.246094-2.992188-2.992188-2.992188-7.847656 0-10.839844l51.65625-51.65625c2.992187-2.992188 7.84375-2.992188 10.839844 0 2.992187 2.996094 2.992187 7.847656 0 10.839844l-51.65625 51.65625c-1.496094 1.496094-3.457032 2.246094-5.417969 2.246094zm0 0"/><path d="m122.554688 141.363281c-1.960938 0-3.925782-.746093-5.421876-2.242187l-51.65625-51.65625c-2.992187-2.992188-2.992187-7.847656 0-10.839844 2.996094-2.992188 7.847657-2.992188 10.84375 0l51.652344 51.65625c2.996094 2.992188 2.996094 7.847656 0 10.839844-1.496094 1.496094-3.457031 2.242187-5.417968 2.242187zm0 0"/></g><path d="m469.753906 262.019531c-13.292968 0-25.40625 5.214844-34.519531 13.773438-5.367187 5.039062-13.398437 5.039062-18.765625 0-9.113281-8.558594-21.226562-13.773438-34.519531-13.773438-13.296875 0-25.410157 5.214844-34.523438 13.773438-5.367187 5.039062-13.398437 5.039062-18.761719 0-9.117187-8.558594-21.230468-13.773438-34.523437-13.773438-13.296875 0-25.410156 5.214844-34.523437 13.773438-5.367188 5.039062-13.398438 5.039062-18.761719 0-9.113281-8.558594-21.226563-13.773438-34.523438-13.773438-13.292969 0-25.40625 5.214844-34.523437 13.773438-5.363282 5.039062-13.394532 5.039062-18.761719 0-9.113281-8.558594-21.226563-13.773438-34.523437-13.773438-13.292969 0-25.40625 5.214844-34.523438 13.773438-5.363281 5.039062-13.394531 5.039062-18.761719 0-9.113281-8.558594-21.226562-13.773438-34.523437-13.773438-11.414063 0-21.953125 3.847657-30.476563 10.351563 1.285157 30.378906 7.972657 59.359375 19.144531 85.996094 3.644532-.847657 7.4375-1.304688 11.332032-1.304688 13.296875 0 25.410156 5.21875 34.523437 13.777344 5.367188 5.039062 13.398438 5.039062 18.761719 0 9.113281-8.558594 21.226562-13.777344 34.523438-13.777344 13.296874 0 25.40625 5.21875 34.523437 13.777344 5.363281 5.039062 13.394531 5.039062 18.761719 0 9.113281-8.558594 21.226562-13.777344 34.523437-13.777344 13.292969 0 25.40625 5.21875 34.523438 13.777344 5.363281 5.039062 13.394531 5.039062 18.761719 0 9.113281-8.558594 21.226562-13.777344 34.523437-13.777344 13.292969 0 25.40625 5.21875 34.519531 13.777344 5.367188 5.039062 13.398438 5.039062 18.765625 0 9.113281-8.558594 21.226563-13.777344 34.519531-13.777344 13.296876 0 25.410157 5.21875 34.523438 13.777344 5.367188 5.039062 13.398438 5.039062 18.761719 0 9.117187-8.558594 21.230469-13.777344 34.523437-13.777344 3.992188 0 7.875.472656 11.605469 1.363281 11.160156-26.589843 17.847656-55.511719 19.15625-85.832031-8.570313-6.640625-19.21875-10.574219-30.761719-10.574219zm0 0" fill="#2e5daa"/><path d="m485.226562 348.625c-4.730468-1.484375-9.753906-2.292969-14.960937-2.292969-13.296875 0-25.40625 5.21875-34.523437 13.777344-5.363282 5.035156-13.398438 5.035156-18.761719 0-9.113281-8.558594-21.226563-13.777344-34.523438-13.777344-13.292969 0-25.40625 5.21875-34.523437 13.777344-5.363282 5.035156-13.394532 5.035156-18.761719 0-9.113281-8.558594-21.226563-13.777344-34.523437-13.777344-13.292969 0-25.40625 5.21875-34.519532 13.777344-5.367187 5.035156-13.398437 5.035156-18.765625 0-9.113281-8.558594-21.226562-13.777344-34.519531-13.777344-13.296875 0-25.410156 5.21875-34.523438 13.777344-5.367187 5.035156-13.398437 5.035156-18.761718 0-9.117188-8.558594-21.230469-13.777344-34.523438-13.777344-13.296875 0-25.410156 5.21875-34.523437 13.777344-5.367188 5.035156-13.398438 5.035156-18.761719 0-9.113281-8.558594-21.226562-13.777344-34.523438-13.777344-5.445312 0-10.6875.882813-15.609374 2.503907 15.019531 40.40625 40.167968 75.875 72.363281 103.339843 8.621093-6.773437 19.378906-10.800781 31.054687-10.800781 13.292969 0 25.40625 5.21875 34.519532 13.777344 5.367187 5.039062 13.398437 5.039062 18.765624 0 9.113282-8.558594 21.226563-13.777344 34.519532-13.777344 13.296875 0 25.410156 5.21875 34.523437 13.777344 5.367188 5.039062 13.398438 5.039062 18.761719 0 9.117188-8.558594 21.230469-13.777344 34.523438-13.777344 13.296874 0 25.40625 5.21875 34.523437 13.777344 5.363281 5.039062 13.398437 5.039062 18.761719 0 9.113281-8.558594 21.226562-13.777344 34.523437-13.777344 11.5 0 22.113281 3.914062 30.671875 10.507812 32.089844-27.46875 57.144532-62.90625 72.097656-103.257812zm0 0" fill="#3f6dc9"/><path d="m420.507812 445.308594c-1.253906-.605469-2.445312-1.40625-3.527343-2.417969-9.113281-8.558594-21.226563-13.777344-34.523438-13.777344-13.292969 0-25.40625 5.21875-34.519531 13.777344-5.367188 5.039063-13.398438 5.039063-18.765625 0-9.113281-8.558594-21.226563-13.777344-34.519531-13.777344-13.296875 0-25.410156 5.21875-34.523438 13.777344-5.367187 5.039063-13.398437 5.039063-18.761718 0-9.117188-8.558594-21.230469-13.777344-34.523438-13.777344-13.296875 0-25.40625 5.21875-34.523438 13.777344-5.363281 5.039063-13.398437 5.039063-18.761718 0-9.113282-8.558594-21.226563-13.777344-34.523438-13.777344-13.292968 0-25.40625 5.21875-34.523437 13.777344-1.21875 1.144531-2.582031 2.015625-4.011719 2.640625 44.636719 41.25 104.308594 66.46875 169.882812 66.46875 65.691407 0 125.460938-25.308594 170.125-66.691406zm0 0" fill="#399faa"/></svg>