<svg height="512pt" viewBox="0 0 512.00001 512" width="512pt" xmlns="http://www.w3.org/2000/svg"><path d="m500.019531 255.605469c0 135.105469-109.527343 244.632812-244.636719 244.632812-135.109374 0-244.636718-109.527343-244.636718-244.632812 0-135.109375 109.527344-244.636719 244.636718-244.636719 135.109376 0 244.636719 109.527344 244.636719 244.636719zm0 0" fill="#fdd33a"/><g fill="#fc8e36"><path d="m255.609375 86.351562c-4.136719 0-7.488281-3.355468-7.488281-7.488281l-.003906-71.375c0-4.136719 3.355468-7.488281 7.492187-7.488281 4.132813 0 7.488281 3.351562 7.488281 7.488281v71.375c0 4.132813-3.351562 7.488281-7.488281 7.488281zm0 0"/><path d="m255.609375 511.214844c-4.136719 0-7.488281-3.351563-7.488281-7.488282l-.003906-71.371093c0-4.136719 3.355468-7.492188 7.492187-7.492188 4.132813 0 7.488281 3.355469 7.488281 7.492188v71.371093c0 4.136719-3.351562 7.488282-7.488281 7.488282zm0 0"/><path d="m432.355469 263.097656c-4.136719 0-7.488281-3.355468-7.488281-7.488281 0-4.136719 3.351562-7.492187 7.488281-7.492187h71.371093c4.136719 0 7.488282 3.355468 7.488282 7.492187 0 4.132813-3.351563 7.488281-7.488282 7.488281zm0 0"/><path d="m7.488281 263.097656c-4.136719 0-7.488281-3.355468-7.488281-7.488281 0-4.136719 3.351562-7.492187 7.488281-7.492187h71.371094c4.136719 0 7.492187 3.355468 7.492187 7.492187 0 4.132813-3.351562 7.488281-7.492187 7.488281zm0 0"/><path d="m380.585938 138.117188c-1.914063 0-3.832032-.730469-5.296876-2.191407-2.921874-2.925781-2.921874-7.667969 0-10.59375l50.46875-50.464843c2.925782-2.925782 7.667969-2.925782 10.59375 0 2.921876 2.921874 2.921876 7.664062 0 10.589843l-50.46875 50.46875c-1.460937 1.460938-3.378906 2.191407-5.296874 2.191407zm0 0"/><path d="m80.160156 438.542969c-1.914062 0-3.832031-.730469-5.292968-2.191407-2.925782-2.925781-2.925782-7.667968 0-10.59375l50.464843-50.464843c2.925781-2.925781 7.667969-2.925781 10.59375 0 2.921875 2.921875 2.921875 7.664062 0 10.589843l-50.46875 50.46875c-1.460937 1.460938-3.378906 2.191407-5.296875 2.191407zm0 0"/><path d="m431.054688 438.542969c-1.917969 0-3.832032-.730469-5.296876-2.191407l-50.46875-50.46875c-2.921874-2.925781-2.921874-7.667968 0-10.589843 2.929688-2.925781 7.667969-2.925781 10.59375 0l50.46875 50.464843c2.921876 2.925782 2.921876 7.667969 0 10.59375-1.464843 1.460938-3.378906 2.191407-5.296874 2.191407zm0 0"/><path d="m130.628906 138.117188c-1.914062 0-3.832031-.730469-5.296875-2.191407l-50.464843-50.46875c-2.925782-2.925781-2.925782-7.667969 0-10.589843 2.925781-2.925782 7.664062-2.925782 10.589843 0l50.46875 50.464843c2.925781 2.925781 2.925781 7.667969 0 10.59375-1.460937 1.460938-3.378906 2.191407-5.296875 2.191407zm0 0"/></g><path d="m512 255.605469c0 83.660156-67.820312 151.484375-151.484375 151.484375s-151.484375-67.824219-151.484375-151.484375c0-83.664063 67.820312-151.484375 151.484375-151.484375s151.484375 67.820312 151.484375 151.484375zm0 0" fill="#3f6dc9"/><path d="m224.007812 255.605469c0-62.988281 39.757813-116.6875 95.546876-137.382813-19.414063-9.042968-41.054688-14.101562-63.882813-14.101562-83.664063 0-151.488281 67.820312-151.488281 151.484375 0 83.664062 67.824218 151.484375 151.488281 151.484375 22.828125 0 44.46875-5.058594 63.882813-14.101563-55.789063-20.695312-95.546876-74.394531-95.546876-137.382812zm0 0" fill="#fc8e36"/><path d="m224.007812 255.605469c0-62.988281 39.757813-116.6875 95.546876-137.382813-15.160157-7.0625-31.679688-11.679687-49.058594-13.371094-56.578125 26.597657-95.753906 84.097657-95.753906 150.753907s39.175781 124.15625 95.753906 150.753906c17.378906-1.691406 33.898437-6.308594 49.058594-13.371094-55.789063-20.695312-95.546876-74.394531-95.546876-137.382812zm0 0" fill="#ed7626"/><path d="m266.945312 255.605469c0-73.757813 52.714844-135.195313 122.527344-148.707031-9.375-1.816407-19.054687-2.777344-28.957031-2.777344-83.664063 0-151.484375 67.820312-151.484375 151.484375 0 83.664062 67.820312 151.484375 151.484375 151.484375 9.902344 0 19.582031-.960938 28.957031-2.777344-69.8125-13.515625-122.527344-74.949219-122.527344-148.707031zm0 0" fill="#2e5daa"/><path d="m485.894531 225.761719c0 15.691406-12.722656 28.414062-28.414062 28.414062-15.695313 0-28.414063-12.722656-28.414063-28.414062 0-15.691407 12.71875-28.414063 28.414063-28.414063 15.691406 0 28.414062 12.722656 28.414062 28.414063zm0 0" fill="#4c82d8"/><path d="m442.636719 176.992188c0 9.835937-7.976563 17.8125-17.8125 17.8125-9.835938 0-17.8125-7.976563-17.8125-17.8125 0-9.839844 7.976562-17.8125 17.8125-17.8125 9.835937 0 17.8125 7.972656 17.8125 17.8125zm0 0" fill="#4c82d8"/></svg>