<svg height="511pt" viewBox="0 -5 511.99898 511" width="511pt" xmlns="http://www.w3.org/2000/svg"><path d="m501.226562 251.113281c0 138.410157-112.203124 250.613281-250.613281 250.613281-138.410156 0-250.613281-112.203124-250.613281-250.613281 0-138.410156 112.203125-250.613281 250.613281-250.613281 138.410157 0 250.613281 112.203125 250.613281 250.613281zm0 0" fill="#393991"/><path d="m191.890625 270.117188c-10.351563-93.664063 57.164063-178.988282 150.710937-190.265626 12.589844-1.515624 25.007813-1.636718 37.105469-.492187 2.878907.269531 4.320313-3.382813 2.03125-5.148437-36.761719-28.335938-82.597656-45.476563-132.40625-46.285157-123.445312-2.003906-226.667969 99.3125-226.886719 222.785157-.214843 123.460937 99.792969 223.613281 223.1875 223.613281 51.246094 0 98.449219-17.28125 136.125-46.328125 2.300782-1.773438.832032-5.429688-2.0625-5.152344-.035156 0-.066406.003906-.101562.007812-93.921875 8.898438-177.375-59.285156-187.703125-152.734374zm0 0" fill="#fdd33a"/><path d="m97.238281 250.710938c.191407-109.566407 81.5-201.675782 186.066407-219.632813-11.070313-1.886719-22.414063-2.964844-33.976563-3.152344-123.441406-2.003906-226.664063 99.3125-226.882813 222.785157-.214843 123.460937 99.792969 223.613281 223.1875 223.613281 12.757813 0 25.265626-1.070313 37.4375-3.128907-105.605468-17.796874-186.027343-109.761718-185.832031-220.484374zm0 0" fill="#e8bb2a"/><g fill="#5dc1d8"><path d="m313.757812 209.925781 6.710938 18.515625c1.054688 2.910156 3.347656 5.207032 6.261719 6.261719l18.515625 6.707031c9.179687 3.328125 9.179687 16.3125 0 19.640625l-18.515625 6.710938c-2.914063 1.054687-5.207031 3.347656-6.261719 6.257812l-6.710938 18.515625c-3.328124 9.179688-16.3125 9.179688-19.636718 0l-6.710938-18.515625c-1.054687-2.910156-3.347656-5.203125-6.261718-6.257812l-18.511719-6.710938c-9.183594-3.328125-9.183594-16.3125 0-19.640625l18.511719-6.707031c2.914062-1.058594 5.207031-3.351563 6.261718-6.261719l6.710938-18.515625c3.324218-9.179687 16.3125-9.179687 19.636718 0zm0 0"/><path d="m473.628906 344.554688 6.707032 18.511718c1.058593 2.914063 3.351562 5.207032 6.261718 6.261719l18.515625 6.710937c9.179688 3.328126 9.179688 16.3125 0 19.640626l-18.515625 6.707031c-2.910156 1.054687-5.207031 3.351562-6.261718 6.261719l-6.707032 18.515624c-3.328125 9.179688-16.3125 9.179688-19.640625 0l-6.707031-18.515624c-1.058594-2.910157-3.351562-5.207032-6.261719-6.261719l-18.515625-6.707031c-9.179687-3.328126-9.179687-16.3125 0-19.640626l18.515625-6.710937c2.910157-1.054687 5.207031-3.347656 6.261719-6.261719l6.707031-18.511718c3.328125-9.183594 16.3125-9.183594 19.640625 0zm0 0"/><path d="m473.628906 75.921875 6.707032 18.511719c1.058593 2.914062 3.351562 5.207031 6.261718 6.261718l18.515625 6.710938c9.179688 3.328125 9.179688 16.3125 0 19.640625l-18.515625 6.707031c-2.910156 1.058594-5.207031 3.351563-6.261718 6.261719l-6.707032 18.515625c-3.328125 9.179688-16.3125 9.179688-19.640625 0l-6.707031-18.515625c-1.058594-2.910156-3.351562-5.207031-6.261719-6.261719l-18.515625-6.707031c-9.179687-3.328125-9.179687-16.3125 0-19.640625l18.515625-6.710938c2.910157-1.054687 5.207031-3.347656 6.261719-6.261718l6.707031-18.511719c3.328125-9.183594 16.3125-9.183594 19.640625 0zm0 0"/></g><path d="m301.605469 267.757812-18.511719-6.707031c-9.183594-3.328125-9.183594-16.3125 0-19.640625l18.511719-6.710937c2.914062-1.054688 5.207031-3.347657 6.261719-6.257813l6.300781-17.386718-.410157-1.128907c-3.328124-9.183593-16.3125-9.183593-19.636718 0l-6.710938 18.511719c-1.054687 2.914062-3.347656 5.207031-6.261718 6.261719l-18.511719 6.710937c-9.183594 3.328125-9.183594 16.3125 0 19.640625l18.511719 6.707031c2.914062 1.054688 5.207031 3.347657 6.261718 6.261719l6.710938 18.511719c3.324218 9.183594 16.3125 9.183594 19.636718 0l.410157-1.128906-6.300781-17.382813c-1.054688-2.910156-3.347657-5.203125-6.261719-6.261719zm0 0" fill="#399faa"/><path d="m461.476562 402.386719-18.515624-6.710938c-9.179688-3.328125-9.179688-16.3125 0-19.636719l18.515624-6.710937c2.914063-1.054687 5.207032-3.347656 6.261719-6.261719l6.300781-17.386718-.410156-1.128907c-3.328125-9.179687-16.3125-9.179687-19.640625 0l-6.707031 18.515625c-1.058594 2.914063-3.351562 5.207032-6.261719 6.261719l-18.515625 6.710937c-9.179687 3.324219-9.179687 16.3125 0 19.636719l18.515625 6.710938c2.910157 1.054687 5.207031 3.347656 6.261719 6.261719l6.707031 18.515624c3.328125 9.179688 16.3125 9.179688 19.640625 0l.410156-1.132812-6.300781-17.382812c-1.054687-2.914063-3.347656-5.207032-6.261719-6.261719zm0 0" fill="#399faa"/><path d="m422.503906 127.046875 18.515625 6.707031c2.910157 1.058594 5.207031 3.351563 6.261719 6.261719l6.707031 18.515625c3.328125 9.179688 16.3125 9.179688 19.640625 0l.410156-1.128906-6.300781-17.386719c-1.054687-2.910156-3.347656-5.207031-6.261719-6.261719l-18.515624-6.707031c-9.179688-3.328125-9.179688-16.316406 0-19.640625l18.515624-6.710938c2.914063-1.054687 5.207032-3.347656 6.261719-6.261718l6.300781-17.382813-.410156-1.128906c-3.328125-9.183594-16.3125-9.183594-19.640625 0l-6.707031 18.511719c-1.058594 2.914062-3.351562 5.207031-6.261719 6.261718l-18.515625 6.710938c-9.179687 3.324219-9.179687 16.3125 0 19.640625zm0 0" fill="#399faa"/><path d="m489.460938 175.054688h-56.074219c-7.265625 0-13.160157 5.894531-13.160157 13.164062v1.308594c0 7.265625 5.890626 13.160156 13.160157 13.160156h11.917969c7.632812 0 13.816406 6.183594 13.816406 13.816406 0 6.8125-4.933594 12.457032-11.421875 13.59375h-65.445313c-10.242187 0-18.542968 8.300782-18.542968 18.539063s8.300781 18.539062 18.542968 18.539062h56.851563c7.902343 0 14.304687 6.40625 14.304687 14.308594 0 7.898437-6.402344 14.304687-14.304687 14.304687h-13.390625c-7.265625 0-13.160156 5.890626-13.160156 13.160157v2.289062c0 7.269531 5.890624 13.160157 13.160156 13.160157h64.613281c7.078125-23.183594 10.898437-47.785157 10.898437-73.285157 0-26.519531-4.132812-52.070312-11.765624-76.058593zm0 0" fill="#4848aa"/></svg>