<svg height="512pt" viewBox="-1 0 512 512.00002" width="512pt" xmlns="http://www.w3.org/2000/svg"><path d="m510.722656 250.15625c0 138.15625-112 250.152344-250.15625 250.152344s-250.152344-111.996094-250.152344-250.152344c0-138.160156 111.996094-250.15625 250.152344-250.15625s250.15625 111.996094 250.15625 250.15625zm0 0" fill="#393991"/><path d="m390.832031 414.035156c-.03125 0-.066406.003906-.097656.007813-89.625 8.488281-169.265625-56.578125-179.121094-145.75-9.878906-89.386719 54.550781-170.808594 143.824219-181.566407 12.011719-1.449218 23.859375-1.5625 35.40625-.472656 2.746094.257813 4.121094-3.226562 1.9375-4.910156-35.082031-27.042969-78.820312-43.398438-126.351562-44.167969-117.800782-1.914062-216.304688 94.769531-216.511719 212.59375-.074219 41.617188 11.796875 80.445313 32.355469 113.277344 12.613281-13.976563 30.851562-22.765625 51.152343-22.785156 22.464844-.019531 42.429688 10.703125 55.046875 27.324219 1.332032 1.75 3.636719 2.507812 5.691406 1.738281 4.640626-1.742188 9.660157-2.695313 14.90625-2.699219 21.566407-.019531 39.398438 16 42.246094 36.804688.308594 2.253906 2.136719 4.027343 4.398438 4.253906 24.300781 2.433594 43.289062 22.9375 43.3125 47.910156 0 1.535156-.078125 3.054688-.214844 4.554688 34.96875-5.945313 67.03125-20.414063 93.984375-41.195313 2.199219-1.691406.796875-5.183594-1.964844-4.917969zm0 0" fill="#fdd33a"/><path d="m274.8125 396.457031c-2.539062-.253906-4.589844-2.242187-4.9375-4.773437-3.195312-23.351563-23.210938-41.332032-47.417969-41.3125-5.886719.007812-11.523437 1.078125-16.726562 3.03125-2.3125.867187-4.898438.015625-6.390625-1.949219-14.164063-18.65625-36.574219-30.691406-61.789063-30.671875-1.410156.003906-2.8125.046875-4.207031.125-7.835938-22.253906-12.097656-46.191406-12.054688-71.132812.183594-104.558594 77.773438-192.457032 177.558594-209.59375h-.003906c-1.292969-.21875-2.585938-.425782-3.882812-.621094-.058594-.011719-.117188-.019532-.175782-.027344-1.242187-.1875-2.492187-.363281-3.742187-.53125-.136719-.015625-.273438-.035156-.410157-.050781-1.175781-.15625-2.359374-.296875-3.542968-.433594-.242188-.027344-.480469-.050781-.71875-.078125-1.09375-.121094-2.191406-.234375-3.289063-.339844-.363281-.035156-.730469-.0625-1.097656-.09375-.988281-.089844-1.976563-.175781-2.96875-.25-.523437-.039062-1.050781-.070312-1.574219-.105468-.851562-.058594-1.699218-.117188-2.550781-.164063-.769531-.042969-1.539063-.074219-2.308594-.109375-.628906-.027344-1.253906-.0625-1.882812-.085938-1.421875-.050781-2.84375-.089843-4.273438-.113281-5.519531-.089843-11 .039063-16.429687.375-10.546875.652344-20.902344 2.101563-31.007813 4.269531-3.765625.808594-7.5 1.707032-11.191406 2.714844-3.398437.925782-6.765625 1.9375-10.101563 3.03125-1.667968.546875-3.328124 1.113282-4.976562 1.699219-3.296875 1.171875-6.5625 2.425781-9.789062 3.753906-1.609376.664063-3.214844 1.347657-4.808594 2.050781-7.964844 3.515626-15.6875 7.507813-23.125 11.941407-4.460938 2.65625-8.820313 5.476562-13.070313 8.441406-1.417969.988281-2.820312 1.996094-4.214843 3.019531-2.78125 2.042969-5.515626 4.152344-8.195313 6.324219-12.066406 9.78125-23.066406 20.835937-32.78125 32.960937-2.160156 2.691407-4.253906 5.4375-6.285156 8.234376-7.101563 9.789062-13.398438 20.191406-18.785157 31.109374-1.539062 3.117188-3.003906 6.277344-4.390624 9.480469-1.390626 3.199219-2.699219 6.4375-3.933594 9.714844-8.625 22.941406-13.375 47.703125-13.421875 73.480469 0 1.636718.019531 3.273437.054687 4.902344.007813.457031.023438.914062.035156 1.371093.035157 1.316407.082032 2.632813.144532 3.945313.011718.34375.027344.691406.042968 1.035156.078126 1.589844.179688 3.171875.292969 4.753906.03125.425782.066407.847656.101563 1.273438.09375 1.21875.199218 2.433594.316406 3.644531.046875.484375.089844.964844.140625 1.445313.15625 1.535156.328125 3.070312.515625 4.597656.042969.339844.09375.675781.136719 1.015625.160156 1.226562.328125 2.453125.507812 3.675781.082031.5625.167969 1.125.253907 1.683594.175781 1.125.359374 2.246094.554687 3.363281.074219.449219.148437.898437.226563 1.347656.253906 1.417969.527343 2.832031.808593 4.242188.125.628906.253907 1.253906.386719 1.878906.1875.90625.382812 1.808594.585938 2.710937.144531.648438.285156 1.296876.4375 1.945313.308593 1.324219.625 2.644531.960937 3.960937.175781.699219.363281 1.394532.546875 2.089844.199219.757813.402344 1.515625.609375 2.269532.214844.765624.429687 1.535156.648437 2.296874.199219.695313.40625 1.382813.613282 2.070313.40625 1.367187.828125 2.726563 1.265625 4.082031.183593.574219.367187 1.148438.554687 1.71875.289063.867188.582032 1.730469.878906 2.589844.171876.496094.34375.992188.519532 1.488281 1.054687 2.980469 2.175781 5.933594 3.355468 8.855469.140626.339844.277344.679688.417969 1.019531.40625.984375.8125 1.964844 1.230469 2.941407.003906.007812.007812.019531.011719.027343.921875 2.148438 1.878906 4.277344 2.871093 6.390625.054688.121094.109376.242188.167969.363282.488281 1.035156.984375 2.066406 1.488281 3.09375.054688.109374.105469.210937.160157.316406 1.257812 2.554687 2.582031 5.074218 3.9375 7.570312-.003907.003906-.003907.003906-.007813.007813.085938.152343.171875.300781.257813.453125.238281.441406.472656.890625.714843 1.328125.046876.082031.089844.160156.136719.242187.527344.949219 1.078125 1.886719 1.625 2.828125.222657.390625.445313.785157.671875 1.171875 1.039063 1.769532 2.09375 3.527344 3.179688 5.261719.003906 0 .003906.003906.003906.003906 12.609375-13.976562 30.847656-22.769531 51.148438-22.789062.6875 0 1.367187.011719 2.050781.03125.589843.015625 1.175781.042969 1.765625.074219.078125.003906.160156.007812.238281.011718 1.335937.078125 2.664063.191406 3.976563.34375 19.15625 2.203125 35.925781 12.253906 47.019531 26.863282 1.328125 1.753906 3.632812 2.511718 5.691406 1.738281 4.636719-1.738281 9.660156-2.695313 14.902344-2.699219 21.566406-.019531 39.398437 16.003906 42.246093 36.808594.308594 2.25 2.136719 4.023437 4.398438 4.25 24.304688 2.433594 43.292969 22.941406 43.3125 47.910156.003906 1.539062-.074219 3.054688-.214844 4.554688 8.324219-1.414063 16.476563-3.328126 24.441406-5.675782.105469-1.398437.175782-2.808594.175782-4.234375-.03125-28.03125-21.34375-51.046875-48.621094-53.78125zm0 0" fill="#e8bb2a"/><path d="m508.800781 219.066406c-4.523437-1.933594-9.382812-3.230468-14.476562-3.742187-2.324219-.230469-4.203125-2.054688-4.523438-4.371094-2.925781-21.390625-21.257812-37.863281-43.433593-37.839844-5.390626.003907-10.554688.984375-15.324219 2.773438-2.113281.792969-4.484375.015625-5.851563-1.785157-12.972656-17.085937-33.5-28.113281-56.597656-28.09375-37.054688.035157-67.429688 28.492188-70.601562 64.75-.214844 2.476563-2.089844 4.507813-4.558594 4.765626-24.90625 2.621093-44.3125 23.703124-44.289063 49.324218.023438 27.375 22.21875 49.546875 49.570313 49.519532l190.664062-.171876c4.703125-.003906 9.25-.675781 13.5625-1.910156 5.078125-19.863281 7.78125-40.679687 7.78125-62.128906 0-10.53125-.660156-20.902344-1.921875-31.089844zm0 0" fill="#5dc1d8"/><path d="m285.464844 267.074219c-.019532-23.089844 16.535156-42.308594 38.421875-46.402344 4.511719-.84375 7.875-4.585937 8.550781-9.125 4.832031-32.558594 32.84375-57.554687 66.722656-57.585937.738282 0 1.476563.011718 2.210938.035156-9.808594-5.109375-20.953125-8-32.777344-7.988282-37.074219.035157-67.460938 28.523438-70.605469 64.808594-.210937 2.449219-2.109375 4.449219-4.554687 4.707032-24.90625 2.617187-44.3125 23.703124-44.289063 49.320312.027344 27.375 22.21875 49.546875 49.570313 49.523438l33.929687-.15625c-26.035156.023437-47.15625-21.082032-47.179687-47.136719zm0 0" fill="#399faa"/><path d="m48.351562 404.09375c2.695313-.285156 4.742188-2.503906 4.976563-5.203125 3.464844-39.582031 36.625-70.652344 77.078125-70.6875 25.214844-.023437 47.625 12.015625 61.785156 30.667969 1.492188 1.96875 4.082032 2.816406 6.390625 1.953125 5.207031-1.953125 10.84375-3.027344 16.730469-3.03125 24.207031-.023438 44.21875 17.960937 47.417969 41.3125.34375 2.527343 2.394531 4.519531 4.933593 4.773437 27.277344 2.730469 48.589844 25.746094 48.617188 53.773438.027344 29.886718-24.15625 54.132812-54.015625 54.160156l-208.152344.1875c-29.859375.027344-54.0859372-24.179688-54.113281-54.0625-.0234375-27.96875 21.160156-50.984375 48.351562-53.84375zm0 0" fill="#5dc1d8"/><path d="m39.648438 460.371094c-.019532-25.207032 18.054687-46.1875 41.949218-50.65625 4.925782-.921875 8.597656-5.007813 9.332032-9.964844 5.273437-35.542969 35.855468-62.832031 72.84375-62.867188.808593 0 1.613281.015626 2.414062.039063-10.707031-5.578125-22.875-8.730469-35.78125-8.71875-40.476562.035156-73.652344 31.136719-77.082031 70.75-.230469 2.675781-2.300781 4.859375-4.972657 5.136719-27.191406 2.859375-48.3749995 25.878906-48.34765575 53.847656.02343755 29.882812 24.25390575 54.089844 54.11328175 54.0625l37.042968-.171875c-28.425781.027344-51.484375-23.011719-51.511718-51.457031zm0 0" fill="#399faa"/></svg>