<svg height="512pt" viewBox="-6 0 512 512.0015" width="512pt" xmlns="http://www.w3.org/2000/svg"><path d="m490.460938 255.757812c0 135.4375-109.792969 245.230469-245.230469 245.230469s-245.230469-109.792969-245.230469-245.230469c0-135.433593 109.792969-245.226562 245.230469-245.226562s245.230469 109.792969 245.230469 245.226562zm0 0" fill="#393991"/><path d="m404.269531 217.3125 5.957031 16.445312c.9375 2.585938 2.976563 4.621094 5.5625 5.558594l16.441407 5.960938c8.15625 2.953125 8.15625 14.488281 0 17.441406l-16.441407 5.960938c-2.585937.9375-4.625 2.972656-5.5625 5.558593l-5.957031 16.445313c-2.957031 8.152344-14.488281 8.152344-17.445312 0l-5.957031-16.445313c-.9375-2.585937-2.976563-4.621093-5.5625-5.558593l-16.441407-5.960938c-8.15625-2.953125-8.15625-14.484375 0-17.441406l16.441407-5.960938c2.585937-.933594 4.625-2.972656 5.5625-5.558594l5.957031-16.445312c2.957031-8.152344 14.488281-8.152344 17.445312 0zm0 0" fill="#5dc1d8"/><path d="m334.25 255.757812c0-104.789062-84.949219-189.742187-189.742188-189.742187-24.46875 0-47.855468 4.632813-69.332031 13.070313-46.335937 44.609374-75.175781 107.269531-75.175781 176.671874 0 69.40625 28.839844 132.066407 75.175781 176.675782 21.476563 8.433594 44.863281 13.070312 69.332031 13.070312 104.792969 0 189.742188-84.953125 189.742188-189.746094zm0 0" fill="#fdd33a"/><path d="m56.652344 255.757812c0-87.140624 58.746094-160.554687 138.796875-182.816406-15.046875-4.183594-30.847657-6.558594-47.148438-6.878906-4.4375.035156-8.828125.089844-13.167969.183594-21.070312 1.027344-41.238281 5.488281-59.953124 12.839844-46.339844 44.609374-75.179688 107.269531-75.179688 176.671874 0 69.40625 28.839844 132.066407 75.175781 176.675782 21.476563 8.433594 44.863281 13.070312 69.332031 13.070312 17.648438 0 34.726563-2.417968 50.9375-6.925781-80.046874-22.261719-138.792968-95.675781-138.792968-182.820313zm0 0" fill="#e8bb2a"/><path d="m308.898438 271.152344c0 18.5-15 33.5-33.5 33.5s-33.5-15-33.5-33.5c0-18.503906 15-33.5 33.5-33.5s33.5 14.996094 33.5 33.5zm0 0" fill="#ffe292"/><path d="m255.480469 201.433594c0 12.003906-9.730469 21.730468-21.730469 21.730468s-21.730469-9.726562-21.730469-21.730468c0-12 9.730469-21.730469 21.730469-21.730469s21.730469 9.730469 21.730469 21.730469zm0 0" fill="#ffe292"/><path d="m332.203125 6.117188 5.957031 16.441406c.9375 2.585937 2.976563 4.625 5.5625 5.5625l16.441406 5.957031c8.15625 2.957031 8.15625 14.488281 0 17.445313l-16.441406 5.957031c-2.585937.9375-4.625 2.976562-5.5625 5.5625l-5.957031 16.441406c-2.957031 8.15625-14.488281 8.15625-17.445313 0l-5.957031-16.441406c-.9375-2.585938-2.976562-4.625-5.5625-5.5625l-16.441406-5.957031c-8.15625-2.957032-8.15625-14.488282 0-17.445313l16.441406-5.957031c2.585938-.9375 4.625-2.976563 5.5625-5.5625l5.957031-16.441406c2.957032-8.15625 14.488282-8.15625 17.445313 0zm0 0" fill="#5dc1d8"/><path d="m332.203125 432.515625 5.957031 16.441406c.9375 2.585938 2.976563 4.625 5.5625 5.5625l16.441406 5.957031c8.15625 2.957032 8.15625 14.488282 0 17.445313l-16.441406 5.957031c-2.585937.9375-4.625 2.976563-5.5625 5.5625l-5.957031 16.441406c-2.957031 8.15625-14.488281 8.15625-17.445313 0l-5.957031-16.441406c-.9375-2.585937-2.976562-4.625-5.5625-5.5625l-16.441406-5.957031c-8.15625-2.957031-8.15625-14.488281 0-17.445313l16.441406-5.957031c2.585938-.9375 4.625-2.976562 5.5625-5.5625l5.957031-16.441406c2.957032-8.15625 14.488282-8.15625 17.445313 0zm0 0" fill="#5dc1d8"/><g fill="#399faa"><path d="m396.328125 268.679688-16.445313-5.960938c-8.152343-2.953125-8.152343-14.484375 0-17.441406l16.445313-5.960938c2.585937-.933594 4.621094-2.972656 5.558594-5.558594l4.171875-11.507812-1.789063-4.933594c-2.957031-8.15625-14.488281-8.15625-17.445312 0l-5.957031 16.441406c-.9375 2.585938-2.976563 4.625-5.5625 5.5625l-16.441407 5.957032c-8.15625 2.957031-8.15625 14.488281 0 17.445312l16.441407 5.957032c2.585937.9375 4.625 2.976562 5.5625 5.5625l5.957031 16.441406c2.957031 8.15625 14.488281 8.15625 17.445312 0l1.789063-4.933594-4.171875-11.507812c-.9375-2.589844-2.972657-4.625-5.558594-5.5625zm0 0"/><path d="m286.796875 51.523438 16.441406 5.957031c2.585938.9375 4.625 2.976562 5.5625 5.5625l5.957031 16.441406c2.957032 8.15625 14.488282 8.15625 17.445313 0l1.789063-4.933594-4.171876-11.507812c-.9375-2.585938-2.972656-4.625-5.558593-5.5625l-16.445313-5.957031c-8.15625-2.953126-8.15625-14.488282 0-17.441407l16.445313-5.960937c2.585937-.9375 4.621093-2.972656 5.558593-5.5625l4.171876-11.507813-1.789063-4.933593c-2.957031-8.152344-14.488281-8.152344-17.445313 0l-5.957031 16.445312c-.9375 2.585938-2.976562 4.625-5.5625 5.558594l-16.441406 5.960937c-8.15625 2.953125-8.15625 14.484375 0 17.441407zm0 0"/><path d="m324.257812 483.878906-16.441406-5.957031c-8.15625-2.957031-8.15625-14.488281 0-17.445313l16.441406-5.957031c2.585938-.9375 4.625-2.976562 5.5625-5.5625l4.167969-11.507812-1.785156-4.933594c-2.957031-8.15625-14.488281-8.15625-17.445313 0l-5.957031 16.445313c-.9375 2.585937-2.976562 4.621093-5.5625 5.558593l-16.441406 5.960938c-8.15625 2.953125-8.15625 14.484375 0 17.441406l16.441406 5.960937c2.585938.933594 4.625 2.972657 5.5625 5.558594l5.957031 16.445313c2.957032 8.152343 14.488282 8.152343 17.445313 0l1.785156-4.9375-4.167969-11.507813c-.9375-2.585937-2.976562-4.625-5.5625-5.5625zm0 0"/></g><path d="m482.734375 317.0625h-109.152344c-5.691406 0-10.304687 4.613281-10.304687 10.304688v1.023437c0 5.691406 4.613281 10.300781 10.304687 10.300781h4.125c5.96875 0 10.8125 4.84375 10.8125 10.816406 0 5.332032-3.863281 9.753907-8.941406 10.640626h-48.832031c-8.015625 0-14.511719 6.5-14.511719 14.515624 0 8.015626 6.496094 14.511719 14.511719 14.511719h42.105468c6.183594 0 11.199219 5.015625 11.199219 11.199219 0 6.1875-5.015625 11.199219-11.199219 11.199219h-5.277343c-5.691407 0-10.300781 4.613281-10.300781 10.300781v1.792969c0 5.691406 4.609374 10.304687 10.300781 10.304687h46.097656c33.023437-31.226562 57.378906-71.519531 69.0625-116.910156zm0 0" fill="#4848aa"/><path d="m363.277344 86.140625v1.023437c0 5.691407 4.613281 10.304688 10.304687 10.304688h4.125c5.96875 0 10.8125 4.839844 10.8125 10.8125 0 5.335938-3.863281 9.753906-8.941406 10.644531h-48.832031c-8.015625 0-14.511719 6.496094-14.511719 14.511719s6.496094 14.515625 14.511719 14.515625h42.105468c6.183594 0 11.199219 5.011719 11.199219 11.195313 0 6.1875-5.015625 11.199218-11.199219 11.199218h-5.277343c-5.691407 0-10.300781 4.613282-10.300781 10.304688v1.789062c0 5.691406 4.609374 10.304688 10.300781 10.304688h114.695312c-12.066406-45.523438-36.898437-85.84375-70.433593-116.910156h-38.253907c-5.691406.003906-10.304687 4.613281-10.304687 10.304687zm0 0" fill="#4848aa"/><path d="m466.328125 338.785156 5.957031 16.445313c.9375 2.585937 2.976563 4.625 5.5625 5.558593l16.441406 5.960938c8.15625 2.953125 8.15625 14.488281 0 17.441406l-16.441406 5.960938c-2.585937.9375-4.625 2.972656-5.5625 5.558594l-5.957031 16.445312c-2.957031 8.152344-14.488281 8.152344-17.445313 0l-5.957031-16.445312c-.9375-2.585938-2.976562-4.621094-5.5625-5.558594l-16.441406-5.960938c-8.15625-2.953125-8.15625-14.484375 0-17.441406l16.441406-5.960938c2.585938-.933593 4.625-2.972656 5.5625-5.558593l5.957031-16.445313c2.957032-8.152344 14.488282-8.152344 17.445313 0zm0 0" fill="#5dc1d8"/><path d="m466.328125 100.203125 5.957031 16.445313c.9375 2.585937 2.976563 4.621093 5.5625 5.558593l16.441406 5.960938c8.15625 2.953125 8.15625 14.488281 0 17.441406l-16.441406 5.960937c-2.585937.9375-4.625 2.972657-5.5625 5.558594l-5.957031 16.445313c-2.957031 8.152343-14.488281 8.152343-17.445313 0l-5.957031-16.445313c-.9375-2.585937-2.976562-4.621094-5.5625-5.558594l-16.441406-5.960937c-8.15625-2.953125-8.15625-14.488281 0-17.441406l16.441406-5.960938c2.585938-.933593 4.625-2.972656 5.5625-5.558593l5.957031-16.445313c2.957032-8.152344 14.488282-8.152344 17.445313 0zm0 0" fill="#5dc1d8"/><path d="m458.382812 390.148438-16.441406-5.957032c-8.15625-2.953125-8.15625-14.488281 0-17.441406l16.441406-5.960938c2.589844-.9375 4.625-2.972656 5.5625-5.558593l4.171876-11.507813-1.789063-4.9375c-2.957031-8.152344-14.488281-8.152344-17.445313 0l-5.957031 16.445313c-.9375 2.585937-2.976562 4.625-5.5625 5.558593l-16.441406 5.960938c-8.15625 2.953125-8.15625 14.488281 0 17.441406l16.441406 5.960938c2.585938.9375 4.625 2.972656 5.5625 5.558594l5.957031 16.445312c2.957032 8.152344 14.488282 8.152344 17.445313 0l1.789063-4.933594-4.171876-11.507812c-.9375-2.589844-2.972656-4.625-5.5625-5.566406zm0 0" fill="#399faa"/><path d="m420.921875 145.609375 16.441406 5.960937c2.589844.9375 4.625 2.972657 5.5625 5.558594l5.957031 16.445313c2.957032 8.152343 14.488282 8.152343 17.445313 0l1.789063-4.933594-4.171876-11.507813c-.933593-2.589843-2.972656-4.625-5.558593-5.5625l-16.445313-5.957031c-8.152344-2.957031-8.152344-14.488281 0-17.445312l16.445313-5.957031c2.585937-.9375 4.625-2.976563 5.558593-5.5625l4.171876-11.507813-1.789063-4.933594c-2.953125-8.15625-14.488281-8.15625-17.445313 0l-5.957031 16.441407c-.9375 2.585937-2.972656 4.625-5.5625 5.5625l-16.441406 5.957031c-8.15625 2.953125-8.15625 14.488281 0 17.441406zm0 0" fill="#399faa"/></svg>