<svg height="512pt" viewBox="0 0 512 512.00002" width="512pt" xmlns="http://www.w3.org/2000/svg"><path d="m511.363281 250.15625c0 138.15625-112 250.152344-250.15625 250.152344s-250.152343-111.996094-250.152343-250.152344c0-138.160156 111.996093-250.15625 250.152343-250.15625s250.15625 111.996094 250.15625 250.15625zm0 0" fill="#393991"/><path d="m511.363281 250.15625c0 138.15625-112 250.152344-250.15625 250.152344s-250.152343-111.996094-250.152343-250.152344c0-138.160156 111.996093-250.15625 250.152343-250.15625s250.15625 111.996094 250.15625 250.15625zm0 0" fill="#393991"/><path d="m296.066406 259.320312c-.019531-20.023437 15.152344-36.503906 34.621094-38.550781 1.929688-.203125 3.394531-1.792969 3.5625-3.726562 2.480469-28.339844 26.222656-50.585938 55.1875-50.613281 18.054688-.015626 34.097656 8.601562 44.238281 21.960937 1.070313 1.40625 2.921875 2.015625 4.578125 1.394531 3.726563-1.398437 7.761719-2.167968 11.976563-2.171875 6.367187-.003906 12.324219 1.734375 17.429687 4.757813-25.210937-90.101563-107.921875-156.191406-206.074218-156.191406-118.175782 0-213.972657 95.800781-213.972657 213.976562 0 43.042969 12.71875 83.109375 34.589844 116.667969 12.492187-14.433594 30.917969-23.582031 51.5-23.601563 22.210937-.019531 41.953125 10.585938 54.425781 27.015625 1.316406 1.734375 3.59375 2.484375 5.628906 1.71875 4.585938-1.71875 9.550782-2.664062 14.738282-2.667969 21.324218-.019531 38.953125 15.820313 41.769531 36.390626.304687 2.230468 2.113281 3.984374 4.347656 4.207031 24.03125 2.40625 42.808594 22.679687 42.828125 47.371093.003906 1.3125-.0625 2.605469-.164062 3.890626 85.515625-14.359376 153.824218-79.433594 172.929687-163.242188l-135.394531.121094c-21.378906.023437-38.726562-17.308594-38.746094-38.707032zm0 0" fill="#fdd33a"/><path d="m349.972656 105.226562c0 19.65625-15.933594 35.589844-35.585937 35.589844-19.65625 0-35.589844-15.933594-35.589844-35.589844s15.933594-35.589843 35.589844-35.589843c19.652343 0 35.585937 15.933593 35.585937 35.589843zm0 0" fill="#ffe292"/><path d="m263.410156 149.472656c0 12.746094-10.335937 23.082032-23.085937 23.082032s-23.085938-10.335938-23.085938-23.082032c0-12.75 10.335938-23.085937 23.085938-23.085937s23.085937 10.335937 23.085937 23.085937zm0 0" fill="#ffe292"/><path d="m324.957031 448.703125c-.023437-28.027344-21.335937-51.046875-48.617187-53.777344-2.535156-.253906-4.585938-2.242187-4.933594-4.773437-3.195312-23.351563-23.210938-41.332032-47.417969-41.3125-5.886719.007812-11.523437 1.078125-16.730469 3.03125-2.308593.867187-4.894531.015625-6.386718-1.949219-12.667969-16.6875-31.9375-28.070313-53.90625-30.273437-7.480469-21.789063-11.542969-45.164063-11.542969-69.492188 0-103.125 72.957031-189.207031 170.070313-209.457031-14.171876-2.957031-28.855469-4.519531-43.902344-4.519531-118.179688 0-213.976563 95.800781-213.976563 213.976562 0 37.722656 9.773438 73.15625 26.910157 103.929688 0 0-.003907.003906-.003907.003906.015625.023437.027344.046875.042969.070312 36.554688 65.59375 106.601562 109.96875 187.023438 109.96875 12.164062 0 24.082031-1.035156 35.691406-2.988281 0 .003906 0 .007813-.003906.007813.183593-.027344.359374-.066407.542968-.097657 2.007813-.34375 4.007813-.710937 5.996094-1.109375.203125-.042968.402344-.078125.605469-.121094.355469-.070312.71875-.132812 1.074219-.207031-.019532-.003906-.039063-.011719-.058594-.015625 6.507812-1.355468 12.917968-2.992187 19.195312-4.925781.214844-1.960937.332032-3.949219.328125-5.96875zm-165.851562-100.613281c11.578125 4.640625 21.59375 12.359375 29.027343 22.152344 1.3125 1.730468 3.59375 2.480468 5.625 1.714843 4.589844-1.71875 9.554688-2.664062 14.738282-2.667969 21.324218-.019531 38.957031 15.820313 41.773437 36.394532.304688 2.226562 2.109375 3.980468 4.347657 4.203125 24.027343 2.40625 42.804687 22.683593 42.828124 47.371093 0 .167969-.011718.332032-.011718.5-60.300782-15.042968-110.472656-55.660156-138.328125-109.667968zm0 0" fill="#e8bb2a"/><path d="m334.8125 298.03125c-21.378906.019531-38.726562-17.3125-38.746094-38.710938-.019531-20.027343 15.148438-36.507812 34.621094-38.554687 1.929688-.203125 3.390625-1.789063 3.5625-3.722656 2.476562-28.34375 26.222656-50.589844 55.1875-50.613281 18.054688-.019532 34.097656 8.601562 44.238281 21.957031 1.070313 1.40625 2.921875 2.019531 4.574219 1.398437 3.730469-1.402344 7.765625-2.167968 11.980469-2.171875 6.363281-.003906 12.320312 1.734375 17.429687 4.757813-2.585937-9.238282-5.78125-18.214844-9.527344-26.902344-.851562-.046875-1.707031-.082031-2.574218-.078125-5.378906.003906-10.53125.984375-15.289063 2.765625-2.109375.792969-4.472656.015625-5.835937-1.78125-12.945313-17.046875-33.421875-28.046875-56.464844-28.023438-36.96875.03125-67.273438 28.425782-70.4375 64.59375-.214844 2.46875-2.082031 4.496094-4.546875 4.753907-24.847656 2.613281-44.207031 23.648437-44.183594 49.207031.023438 27.308594 22.164063 49.429688 49.449219 49.40625l159.894531-.144531c.738281-2.734375 1.429688-5.484375 2.0625-8.261719zm0 0" fill="#e8bb2a"/><path d="m48.351562 404.09375c2.695313-.285156 4.742188-2.503906 4.976563-5.203125 3.464844-39.582031 36.625-70.652344 77.078125-70.6875 25.214844-.023437 47.625 12.015625 61.785156 30.667969 1.492188 1.96875 4.082032 2.816406 6.390625 1.953125 5.207031-1.953125 10.84375-3.027344 16.730469-3.03125 24.207031-.023438 44.21875 17.960937 47.417969 41.3125.34375 2.527343 2.394531 4.519531 4.933593 4.773437 27.277344 2.730469 48.589844 25.746094 48.617188 53.773438.027344 29.886718-24.15625 54.132812-54.015625 54.160156l-208.152344.1875c-29.859375.027344-54.0859372-24.179688-54.113281-54.0625-.0273438-27.96875 21.160156-50.984375 48.351562-53.84375zm0 0" fill="#5dc1d8"/><path d="m39.648438 460.371094c-.019532-25.207032 18.054687-46.1875 41.949218-50.65625 4.925782-.921875 8.597656-5.007813 9.332032-9.964844 5.273437-35.542969 35.855468-62.832031 72.84375-62.867188.808593 0 1.613281.015626 2.414062.039063-10.707031-5.578125-22.875-8.730469-35.78125-8.71875-40.476562.035156-73.652344 31.136719-77.082031 70.75-.230469 2.675781-2.300781 4.859375-4.972657 5.136719-27.191406 2.859375-48.3749995 25.878906-48.34765575 53.847656.02343755 29.882812 24.25390575 54.089844 54.11328175 54.0625l37.042968-.171875c-28.425781.027344-51.484375-23.011719-51.511718-51.457031zm0 0" fill="#399faa"/><path d="m509.378906 218.523438c-2.863281-.898438-5.847656-1.527344-8.925781-1.835938-2.113281-.210938-3.820313-1.867188-4.109375-3.972656-2.65625-19.429688-19.3125-34.394532-39.457031-34.375-4.898438.003906-9.585938.894531-13.921875 2.519531-1.917969.722656-4.074219.015625-5.316406-1.621094-11.785157-15.523437-30.429688-25.539062-51.414063-25.519531-33.660156.03125-61.253906 25.882812-64.136719 58.820312-.195312 2.246094-1.898437 4.09375-4.140625 4.328126-22.628906 2.378906-40.253906 21.53125-40.234375 44.808593.023438 24.867188 20.183594 45.007813 45.03125 44.984375l173.207032-.15625c3.167968-.003906 6.253906-.335937 9.238281-.960937 4.027343-17.816407 6.164062-36.351563 6.164062-55.386719 0-10.714844-.675781-21.273438-1.984375-31.632812zm0 0" fill="#5dc1d8"/><path d="m310.714844 263.695312c-.019532-20.972656 15.023437-38.433593 34.90625-42.152343 4.101562-.765625 7.15625-4.164063 7.765625-8.289063 4.390625-29.578125 29.835937-52.285156 60.617187-52.3125.671875-.003906 1.339844.011719 2.007813.03125-8.910157-4.640625-19.035157-7.265625-29.773438-7.257812-33.683593.03125-61.289062 25.914062-64.144531 58.875-.191406 2.226562-1.914062 4.042968-4.136719 4.277344-22.625 2.378906-40.253906 21.53125-40.234375 44.804687.023438 24.867187 20.183594 45.007813 45.03125 44.988281l30.824219-.144531c-23.652344.023437-42.839844-19.148437-42.863281-42.820313zm0 0" fill="#399faa"/></svg>