<svg height="512pt" viewBox="0 0 512 512" width="512pt" xmlns="http://www.w3.org/2000/svg"><path d="m512 256c0 141.386719-114.613281 256-256 256s-256-114.613281-256-256 114.613281-256 256-256 256 114.613281 256 256zm0 0" fill="#393991"/><path d="m475.363281 256c0 120.9375-98.039062 218.976562-218.976562 218.976562s-218.972657-98.039062-218.972657-218.976562 98.035157-218.976562 218.972657-218.976562 218.976562 98.039062 218.976562 218.976562zm0 0" fill="#fdd33a"/><path d="m127.273438 256c0-105.535156 74.660156-193.625 174.042968-214.351562-14.5-3.027344-29.527344-4.625-44.929687-4.625-120.9375 0-218.972657 98.039062-218.972657 218.976562s98.035157 218.976562 218.972657 218.976562c15.402343 0 30.429687-1.597656 44.929687-4.625-99.378906-20.726562-174.042968-108.816406-174.042968-214.351562zm0 0" fill="#e8bb2a"/><g fill="#ffe292"><path d="m446.105469 273.761719c0 21.355469-17.308594 38.664062-38.660157 38.664062-21.351562 0-38.664062-17.308593-38.664062-38.664062 0-21.351563 17.3125-38.660157 38.664062-38.660157 21.351563 0 38.660157 17.308594 38.660157 38.660157zm0 0"/><path d="m384.457031 193.304688c0 13.851562-11.226562 25.078124-25.078125 25.078124-13.851562 0-25.078125-11.226562-25.078125-25.078124 0-13.847657 11.226563-25.074219 25.078125-25.074219 13.851563 0 25.078125 11.226562 25.078125 25.074219zm0 0"/></g></svg>