<svg height="512pt" viewBox="0 -6 512.00003 512" width="512pt" xmlns="http://www.w3.org/2000/svg"><path d="m512 250.46875c0-138.332031-112.042969-250.46875-250.253906-250.46875-138.214844 0-250.257813 112.136719-250.257813 250.46875 0 138.328125 112.042969 250.46875 250.257813 250.46875 138.210937 0 250.253906-112.140625 250.253906-250.46875zm0 0" fill="#3f6dc9"/><path d="m505.40625 193.15625c-14.65625.027344-39.8125.0625-55.679688.050781-1.085937 0-2.144531-.117187-3.171874-.324219-6.410157-1.273437-11.539063-6.308593-12.945313-12.917968-7.609375-35.8125-39.394531-62.664063-77.441406-62.628906-9.738281.007812-19.0625 1.78125-27.675781 5.015624-3.757813 1.410157-8.007813.15625-10.429688-3.046874-23.417969-30.960938-60.554688-50.953126-102.347656-50.914063-66.933594.058594-121.796875 51.480469-127.503906 116.976563-.386719 4.449218-3.789063 8.09375-8.226563 8.558593-44.984375 4.730469-80.0273438 42.804688-79.984375 89.074219.0429688 49.433594 40.121094 89.472656 89.515625 89.429688l354.875-.277344 36.140625-.027344c20.003906-35.957031 31.429688-77.355469 31.46875-121.429688.015625-19.800781-2.269531-39.0625-6.59375-57.539062zm0 0" fill="#aef7ff"/><path d="m65.589844 287.023438c-.039063-41.699219 29.863281-76.40625 69.386718-83.796876 8.152344-1.523437 14.222657-8.28125 15.4375-16.480468 8.726563-58.796875 59.316407-103.9375 120.496094-103.992188 1.339844-.003906 2.667969.019532 3.996094.0625-17.714844-9.226562-37.839844-14.445312-59.191406-14.425781-66.953125.058594-121.832032 51.507813-127.507813 117.035156-.382812 4.425781-3.804687 8.039063-8.222656 8.503907-44.984375 4.726562-80.0273438 42.800781-79.984375 89.070312.046875 49.433594 40.121094 89.472656 89.515625 89.429688l61.277344-.285157c-47.015625.042969-85.160157-38.066406-85.203125-85.121093zm0 0" fill="#5dc1d8"/><g fill="#5081d1"><path d="m181.597656 479.421875h90.730469c8.179687 0 14.816406-6.636719 14.816406-14.816406 0-8.183594-6.636719-14.820313-14.816406-14.820313h-83.859375c-6.316406 0-11.433594-5.117187-11.433594-11.429687 0-6.316407 5.117188-11.433594 11.433594-11.433594h44.214844c5.8125 0 10.519531-4.707031 10.519531-10.519531v-1.828125c0-5.808594-4.707031-10.519531-10.519531-10.519531h-168.621094c28.15625 36.253906 66.050781 64.550781 109.753906 80.96875 1.582032-2.898438 4.414063-5.011719 7.78125-5.601563zm0 0"/><path d="m384.453125 32.144531h-61.035156c-8.179688 0-14.816407 6.632813-14.816407 14.816407 0 8.183593 6.636719 14.816406 14.816407 14.816406h63.421875c6.316406 0 11.433594 5.121094 11.433594 11.433594 0 6.316406-5.117188 11.433593-11.433594 11.433593h-23.777344c-5.8125 0-10.519531 4.707031-10.519531 10.515625v1.832032c0 5.808593 4.707031 10.515624 10.519531 10.515624h104.175781c-21.523437-30.929687-49.835937-56.773437-82.785156-75.363281zm0 0"/></g></svg>