<svg height="512pt" viewBox="0 -1 512.00003 512" width="512pt" xmlns="http://www.w3.org/2000/svg"><path d="m512 250.46875c0-138.332031-112.042969-250.46875-250.253906-250.46875-138.214844 0-250.257813 112.136719-250.257813 250.46875 0 138.328125 112.042969 250.46875 250.257813 250.46875 138.210937 0 250.253906-112.140625 250.253906-250.46875zm0 0" fill="#3f6dc9"/><path d="m505.40625 193.15625c-14.65625.027344-39.8125.0625-55.679688.050781-1.085937 0-2.144531-.117187-3.171874-.324219-6.410157-1.273437-11.539063-6.308593-12.945313-12.917968-7.609375-35.8125-39.394531-62.664063-77.441406-62.628906-9.738281.007812-19.0625 1.78125-27.675781 5.015624-3.757813 1.410157-8.007813.15625-10.429688-3.046874-23.417969-30.960938-60.554688-50.953126-102.347656-50.914063-66.933594.058594-121.796875 51.480469-127.503906 116.976563-.386719 4.449218-3.789063 8.09375-8.226563 8.558593-44.984375 4.730469-80.0273438 42.804688-79.984375 89.074219.0429688 49.433594 40.121094 89.472656 89.515625 89.429688l354.875-.277344 36.140625-.027344c20.003906-35.957031 31.429688-77.355469 31.46875-121.429688.015625-19.800781-2.269531-39.0625-6.59375-57.539062zm0 0" fill="#aef7ff"/><g fill="#5dc1d8"><path d="m65.589844 287.023438c-.039063-41.699219 29.863281-76.40625 69.386718-83.796876 8.152344-1.523437 14.222657-8.28125 15.4375-16.480468 8.726563-58.796875 59.316407-103.9375 120.496094-103.992188 1.339844-.003906 2.667969.019532 3.996094.0625-17.714844-9.226562-37.839844-14.445312-59.191406-14.425781-66.953125.058594-121.832032 51.507813-127.507813 117.035156-.382812 4.425781-3.804687 8.039063-8.222656 8.503907-44.984375 4.726562-80.0273438 42.800781-79.984375 89.070312.046875 49.433594 40.121094 89.472656 89.515625 89.429688l61.277344-.285157c-47.015625.042969-85.160157-38.066406-85.203125-85.121093zm0 0"/><path d="m131.816406 510.589844c-.976562 0-1.96875-.1875-2.929687-.585938-3.910157-1.621094-5.769531-6.101562-4.148438-10.011718l41.898438-101.164063c1.617187-3.914063 6.101562-5.769531 10.011719-4.148437 3.910156 1.617187 5.769531 6.101562 4.148437 10.011718l-41.894531 101.164063c-1.222656 2.953125-4.078125 4.734375-7.085938 4.734375zm0 0"/><path d="m206.414062 510.589844c-.980468 0-1.972656-.1875-2.929687-.585938-3.910156-1.621094-5.769531-6.101562-4.148437-10.011718l41.894531-101.164063c1.621093-3.914063 6.105469-5.769531 10.015625-4.148437 3.910156 1.617187 5.765625 6.101562 4.148437 10.011718l-41.898437 101.164063c-1.222656 2.953125-4.074219 4.734375-7.082032 4.734375zm0 0"/><path d="m281.007812 510.589844c-.976562 0-1.96875-.1875-2.929687-.585938-3.910156-1.621094-5.765625-6.101562-4.148437-10.011718l41.898437-101.164063c1.617187-3.914063 6.101563-5.769531 10.011719-4.148437 3.910156 1.617187 5.769531 6.101562 4.148437 10.011718l-41.894531 101.164063c-1.222656 2.953125-4.078125 4.734375-7.085938 4.734375zm0 0"/><path d="m355.605469 510.589844c-.976563 0-1.96875-.1875-2.929688-.585938-3.910156-1.621094-5.769531-6.101562-4.148437-10.011718l41.894531-101.164063c1.621094-3.914063 6.105469-5.769531 10.015625-4.148437 3.910156 1.617187 5.765625 6.101562 4.148438 10.011718l-41.898438 101.164063c-1.222656 2.953125-4.074219 4.734375-7.082031 4.734375zm0 0"/></g><path d="m180.796875 404.691406c1.621094-3.910156-.238281-8.394531-4.148437-10.011718-3.910157-1.617188-8.394532.238281-10.011719 4.148437l-14.335938 34.609375h16.589844zm0 0" fill="#399faa"/><path d="m255.394531 404.691406c1.617188-3.910156-.238281-8.394531-4.148437-10.011718-3.910156-1.617188-8.394532.238281-10.015625 4.148437l-14.332031 34.609375h16.589843zm0 0" fill="#399faa"/><path d="m329.988281 404.691406c1.621094-3.910156-.238281-8.394531-4.148437-10.011718-3.910156-1.617188-8.394532.238281-10.011719 4.148437l-14.335937 34.609375h16.589843zm0 0" fill="#399faa"/><path d="m404.585938 404.691406c1.617187-3.910156-.238282-8.394531-4.148438-10.011718-3.910156-1.617188-8.394531.238281-10.015625 4.148437l-14.332031 34.609375h16.589844zm0 0" fill="#399faa"/><path d="m346.703125 23.96875h-70.289063c-8.183593 0-14.816406 6.636719-14.816406 14.816406 0 8.183594 6.632813 14.820313 14.816406 14.820313h63.421876c6.3125 0 11.433593 5.117187 11.433593 11.429687 0 6.316406-5.121093 11.433594-11.433593 11.433594h-23.78125c-5.808594 0-10.519532 4.710938-10.519532 10.519531v1.828125c0 5.808594 4.710938 10.519532 10.519532 10.519532h145.25c-27.261719-36.007813-64.023438-64.40625-106.558594-81.457032-1.515625 3.148438-4.488282 5.46875-8.042969 6.089844zm0 0" fill="#5081d1"/></svg>