<svg height="512pt" viewBox="0 -1 512.00003 512" width="512pt" xmlns="http://www.w3.org/2000/svg"><path d="m512 250.46875c0-138.332031-112.042969-250.46875-250.253906-250.46875-138.214844 0-250.257813 112.136719-250.257813 250.46875 0 138.328125 112.042969 250.46875 250.257813 250.46875 138.210937 0 250.253906-112.140625 250.253906-250.46875zm0 0" fill="#3f6dc9"/><path d="m505.40625 193.15625c-14.65625.023438-39.8125.0625-55.679688.050781-1.085937-.003906-2.144531-.121093-3.171874-.324219-6.410157-1.273437-11.539063-6.308593-12.945313-12.917968-7.609375-35.8125-39.394531-62.664063-77.441406-62.628906-9.738281.007812-19.0625 1.78125-27.675781 5.011718-3.757813 1.410156-8.007813.160156-10.429688-3.042968-23.417969-30.960938-60.554688-50.953126-102.347656-50.917969-66.933594.0625-121.796875 51.480469-127.503906 116.980469-.386719 4.445312-3.789063 8.089843-8.226563 8.558593-44.984375 4.730469-80.0273438 42.804688-79.984375 89.070313.0429688 49.4375 40.121094 89.476562 89.515625 89.433594l354.875-.277344 36.140625-.027344c20.003906-35.957031 31.429688-77.355469 31.46875-121.429688.015625-19.800781-2.269531-39.0625-6.59375-57.539062zm0 0" fill="#aef7ff"/><path d="m65.589844 287.023438c-.039063-41.699219 29.863281-76.40625 69.386718-83.796876 8.152344-1.523437 14.222657-8.28125 15.4375-16.480468 8.726563-58.796875 59.316407-103.9375 120.496094-103.992188 1.339844-.003906 2.667969.019532 3.996094.0625-17.714844-9.226562-37.839844-14.445312-59.191406-14.425781-66.953125.058594-121.832032 51.507813-127.507813 117.035156-.382812 4.425781-3.804687 8.039063-8.222656 8.503907-44.984375 4.726562-80.0273438 42.800781-79.984375 89.066406.046875 49.4375 40.121094 89.476562 89.515625 89.433594l61.277344-.285157c-47.015625.042969-85.160157-38.066406-85.203125-85.121093zm0 0" fill="#5dc1d8"/><path d="m367.761719 23.539062c-.53125.183594-1.078125.332032-1.644531.429688h-70.289063c-8.183594 0-14.816406 6.636719-14.816406 14.816406 0 8.183594 6.632812 14.820313 14.816406 14.820313h63.421875c6.316406 0 11.433594 5.117187 11.433594 11.429687 0 6.316406-5.117188 11.433594-11.433594 11.433594h-23.78125c-5.808594 0-10.515625 4.710938-10.515625 10.519531v1.828125c0 5.808594 4.707031 10.519532 10.515625 10.519532h125.835938c-24.441407-32.277344-56.515626-58.4375-93.542969-75.796876zm0 0" fill="#5081d1"/><path d="m178.460938 385.363281h-39.699219c-2.300781 0-4.3125 1.53125-4.925781 3.746094l-15.292969 55.375-.597657 2.15625c-.371093 1.363281-.519531 2.816406-.410156 4.316406.496094 6.746094 6.367188 11.839844 13.128906 11.839844h21.589844c3.570313 0 6.039063 3.566406 4.78125 6.90625l-10.96875 29.1875c-1.613281 4.273437.222656 9.203125 4.460938 11.308594 4.421875 2.191406 9.804687.246093 12.144531-4.101563l27.386719-50.882812c.925781-1.738282 1.480468-3.773438 1.480468-5.882813 0-6.851562-5.554687-12.40625-12.40625-12.40625h-13.464843c-4.867188 0-7.769531-5.425781-5.070313-9.472656 0 0 14.304688-22.03125 22.160156-34.21875 2.195313-3.398437-.25-7.871094-4.296874-7.871094zm0 0" fill="#fdd33a"/><path d="m162.414062 487.652344 11.035157-29.359375c1.226562-3.257813-1.183594-6.738281-4.664063-6.738281h-21.769531c-6.761719 0-12.632813-5.09375-13.128906-11.839844-.109375-1.5.039062-2.953125.40625-4.316406l.597656-2.15625 13.226563-47.878907h-9.359376c-2.296874 0-4.3125 1.53125-4.921874 3.746094l-15.292969 55.375-.601563 2.15625c-.367187 1.363281-.515625 2.8125-.40625 4.316406.496094 6.746094 6.367188 11.839844 13.128906 11.839844h21.589844c3.566406 0 6.035156 3.566406 4.78125 6.90625l-10.96875 29.1875c-1.613281 4.273437.21875 9.203125 4.460938 11.308594 4.421875 2.191406 9.804687.246093 12.144531-4.101563l3.925781-7.296875c-4.035156-2.175781-5.757812-6.972656-4.183594-11.148437zm0 0" fill="#e8bb2a"/><path d="m285.757812 385.363281h-39.703124c-2.296876 0-4.3125 1.53125-4.921876 3.746094l-15.296874 55.375-.597657 2.15625c-.367187 1.363281-.515625 2.816406-.40625 4.316406.496094 6.746094 6.367188 11.839844 13.128907 11.839844h21.589843c3.566407 0 6.035157 3.566406 4.78125 6.90625l-10.96875 29.1875c-1.613281 4.273437.21875 9.203125 4.460938 11.308594 4.421875 2.191406 9.804687.246093 12.144531-4.101563l27.386719-50.882812c.925781-1.738282 1.480469-3.773438 1.480469-5.882813 0-6.851562-5.554688-12.40625-12.410157-12.40625h-13.460937c-4.867188 0-7.769532-5.425781-5.070313-9.472656 0 0 14.300781-22.03125 22.160157-34.21875 2.191406-3.398437-.25-7.871094-4.296876-7.871094zm0 0" fill="#fdd33a"/><path d="m269.710938 487.652344 11.035156-29.359375c1.222656-3.257813-1.183594-6.738281-4.664063-6.738281h-21.769531c-6.765625 0-12.636719-5.09375-13.128906-11.839844-.113282-1.5.039062-2.953125.40625-4.316406l.597656-2.15625 13.222656-47.878907h-9.355468c-2.296876 0-4.3125 1.53125-4.925782 3.746094l-15.292968 55.375-.597657 2.15625c-.367187 1.363281-.515625 2.8125-.40625 4.316406.496094 6.746094 6.367188 11.839844 13.128907 11.839844h21.585937c3.570313 0 6.039063 3.566406 4.785156 6.90625l-10.972656 29.1875c-1.609375 4.273437.222656 9.203125 4.460937 11.308594 4.425782 2.191406 9.804688.246093 12.148438-4.101563l3.925781-7.296875c-4.035156-2.175781-5.757812-6.972656-4.183593-11.148437zm0 0" fill="#e8bb2a"/><path d="m392.03125 385.363281h-39.703125c-2.296875 0-4.3125 1.53125-4.921875 3.746094l-15.292969 55.375-.601562 2.15625c-.367188 1.363281-.515625 2.816406-.40625 4.316406.496093 6.746094 6.367187 11.839844 13.128906 11.839844h21.589844c3.566406 0 6.035156 3.566406 4.78125 6.90625l-10.96875 29.1875c-1.613281 4.273437.21875 9.203125 4.460937 11.308594 4.421875 2.191406 9.804688.246093 12.144532-4.101563l27.386718-50.882812c.925782-1.738282 1.480469-3.773438 1.480469-5.882813 0-6.851562-5.554687-12.40625-12.410156-12.40625h-13.460938c-4.867187 0-7.769531-5.425781-5.070312-9.472656 0 0 14.300781-22.03125 22.160156-34.21875 2.191406-3.398437-.25-7.871094-4.296875-7.871094zm0 0" fill="#fdd33a"/><path d="m375.984375 487.652344 11.035156-29.359375c1.222657-3.257813-1.183593-6.738281-4.664062-6.738281h-21.769531c-6.765626 0-12.632813-5.09375-13.128907-11.839844-.113281-1.5.039063-2.953125.40625-4.316406l.597657-2.15625 13.222656-47.878907h-9.355469c-2.296875 0-4.3125 1.53125-4.925781 3.746094l-15.292969 55.375-.597656 2.15625c-.367188 1.363281-.515625 2.8125-.40625 4.316406.496093 6.746094 6.367187 11.839844 13.128906 11.839844h21.585937c3.570313 0 6.039063 3.566406 4.785157 6.90625l-10.972657 29.1875c-1.609374 4.273437.222657 9.203125 4.460938 11.308594 4.425781 2.191406 9.808594.246093 12.148438-4.101563l3.925781-7.296875c-4.035157-2.175781-5.757813-6.972656-4.183594-11.148437zm0 0" fill="#e8bb2a"/></svg>