<svg height="512pt" viewBox="0 -5 512.00002 512" width="512pt" xmlns="http://www.w3.org/2000/svg"><path d="m512 251.027344c0-138.636719-112.292969-251.027344-250.8125-251.027344s-250.8125 112.390625-250.8125 251.027344c0 138.636718 112.292969 251.027344 250.8125 251.027344s250.8125-112.390626 250.8125-251.027344zm0 0" fill="#393991"/><path d="m165.167969 277.921875c1.785156-20.410156 9.636719-39.082031 21.738281-54.199219-4.558594-11.855468-7.070312-24.722656-7.070312-38.183594 0-15.929687 3.5-31.039062 9.769531-44.609374-.273438.097656-.546875.1875-.816407.289062-2.195312.824219-4.65625.011719-6.074218-1.855469-13.464844-17.734375-34.769532-29.179687-58.742188-29.15625-38.457031.035157-69.980468 29.570313-73.273437 67.199219-.222657 2.570312-2.167969 4.679688-4.730469 4.949219-25.855469 2.714843-45.9921875 24.597656-45.96875 51.1875.0273438 28.414062 23.058594 51.421875 51.445312 51.398437l106.117188-.097656c.375-.042969.746094-.105469 1.121094-.144531 3.511718-.367188 6.175781-3.257813 6.484375-6.777344zm0 0" fill="#5dc1d8"/><path d="m24.914062 234.515625c-.023437-27.644531 20.914063-50.394531 47.792969-53.21875 2.664063-.28125 4.683594-2.472656 4.917969-5.144531 2.683594-30.667969 23.40625-56.160156 51.5-65.765625-1.703125-.117188-3.417969-.179688-5.152344-.179688-38.457031.035157-69.980468 29.570313-73.273437 67.199219-.222657 2.570312-2.167969 4.679688-4.730469 4.949219-25.855469 2.714843-45.9921875 24.597656-45.96875 51.1875.0273438 28.414062 23.058594 51.421875 51.445312 51.398437l9.199219-.007812c-20.792969-7.308594-35.707031-27.109375-35.730469-50.417969zm0 0" fill="#399faa"/><path d="m158.683594 284.699219c3.511718-.367188 6.175781-3.257813 6.484375-6.777344 1.785156-20.410156 9.636719-39.082031 21.738281-54.199219-4.558594-11.855468-7.070312-24.722656-7.070312-38.183594 0-15.929687 3.503906-31.039062 9.769531-44.609374-.269531.097656-.546875.1875-.816407.289062-2.195312.824219-4.65625.011719-6.074218-1.855469-6.859375-9.03125-15.75-16.425781-25.992188-21.511719-7.621094 17.304688-11.863281 36.433594-11.863281 56.558594 0 15.792969 2.617187 30.972656 7.425781 45.136719-11.960937 17.558594-19.664062 38.253906-21.617187 60.601563-.152344 1.746093-.769531 3.367187-1.726563 4.722656l28.621094-.027344c.375-.042969.746094-.105469 1.121094-.144531zm0 0" fill="#399faa"/><path d="m266.472656 188.824219c32.027344-.03125 60.492188 15.261719 78.480469 38.953125 1.898437 2.5 5.183594 3.578125 8.117187 2.480468 6.613282-2.480468 13.773438-3.84375 21.25-3.851562 8.125-.003906 15.875 1.597656 22.960938 4.488281 5.726562-13.992187 8.890625-29.300781 8.890625-45.355469 0-66.175781-53.648437-119.824218-119.824219-119.824218-66.175781 0-119.824218 53.648437-119.824218 119.824218 0 19.875 4.84375 38.617188 13.410156 55.121094 16.589844-30.828125 49.097656-51.804687 86.539062-51.835937zm0 0" fill="#fdd33a"/><path d="m388.148438 212.039062c-8.835938.007813-17.296876 1.617188-25.109376 4.546876-3.46875 1.300781-7.351562.023437-9.589843-2.925782-21.257813-28-54.894531-46.066406-92.738281-46.035156-11.863282.011719-23.308594 1.808594-34.085938 5.125 5.328125-50.1875 41.617188-91.132812 89.421875-103.324219-1.101563-.28125-2.207031-.539062-3.316406-.789062-.25-.058594-.496094-.109375-.746094-.164063-.882813-.191406-1.773437-.375-2.667969-.550781-.289062-.054687-.578125-.113281-.867187-.164063-.921875-.171874-1.851563-.332031-2.78125-.484374-.21875-.035157-.4375-.074219-.660157-.109376-1.167968-.183593-2.34375-.351562-3.523437-.5-.011719 0-.027344-.003906-.039063-.003906-1.121093-.140625-2.246093-.261718-3.378906-.375-.335937-.03125-.671875-.058594-1.007812-.089844-.824219-.070312-1.648438-.136718-2.480469-.195312-.386719-.023438-.777344-.050781-1.167969-.074219-.824218-.046875-1.648437-.085937-2.476562-.117187-.355469-.011719-.710938-.027344-1.066406-.039063-1.167969-.035156-2.34375-.054687-3.519532-.054687-66.175781 0-119.824218 53.648437-119.824218 119.824218 0 1.152344.019531 2.296876.050781 3.441407.011719.359375.027343.71875.042969 1.074219.027343.792968.0625 1.582031.109374 2.367187.023438.410156.046876.816406.078126 1.222656.046874.753907.105468 1.503907.171874 2.253907.03125.394531.066407.785156.101563 1.175781.082031.824219.167969 1.640625.261719 2.457031.035156.300781.066406.601562.105468.90625.28125 2.265625.625 4.511719 1.03125 6.734375.042969.246094.09375.484375.140626.726563.164062.871093.335937 1.742187.519531 2.609374.0625.292969.125.582032.191406.875.183594.839844.378906 1.675782.578125 2.511719.066406.261719.128906.523438.195312.785157.085938.34375.179688.679687.265626 1.023437.019531.0625.035156.125.050781.1875.140625.542969.277343 1.089844.429687 1.628906.035156.125.066406.25.101563.375.128906.464844.273437.921875.40625 1.382813.046875.152344.089843.304687.136719.457031.304687 1.03125.628906 2.058594.960937 3.082031.066406.199219.132813.398438.195313.597656.121093.363282.234374.726563.359374 1.089844.027344.078125.054688.15625.082032.238282.183594.527343.378906 1.046874.570312 1.570312.085938.238281.171875.476562.257813.71875.078125.214844.152343.429688.234375.644531.058594.15625.117187.3125.179687.46875.199219.53125.410157 1.050781.621094 1.578125.113281.28125.222656.566406.335937.847656.046876.117188.089844.230469.136719.347657.050781.128906.105469.257812.15625.382812.113281.273438.238281.535157.351563.804688.453125 1.074219.921875 2.140625 1.40625 3.199219.183594.402343.363281.804687.550781 1.199218.65625 1.394532 1.332031 2.78125 2.039063 4.148438 0 0 .003906.003906.003906.007812 0 0 0-.003906.003906-.007812.589844-1.089844 1.203125-2.167969 1.832031-3.238282.195313-.332031.398438-.660156.597657-.988281.449218-.746093.90625-1.484375 1.375-2.21875.234374-.359375.46875-.71875.703124-1.078125.480469-.726562.96875-1.441406 1.464844-2.152344.21875-.316406.433594-.632812.660156-.945312.671876-.941406 1.359376-1.871094 2.0625-2.785156.046876-.0625.09375-.125.140626-.1875.769531-.996094 1.5625-1.976563 2.371093-2.941406.1875-.226563.382813-.445313.570313-.667969.628906-.734375 1.261718-1.460938 1.910156-2.179688.242188-.265625.484375-.53125.726562-.792969.644532-.695312 1.296876-1.382812 1.957032-2.058593.21875-.222657.433594-.449219.652344-.667969.859374-.863281 1.734374-1.710938 2.625-2.542969.015624-.011719.027343-.027343.042968-.042969.960938-.894531 1.941406-1.769531 2.941406-2.625.089844-.078124.183594-.15625.277344-.234374.871094-.742188 1.753906-1.46875 2.652344-2.179688.199219-.160156.402344-.316406.601562-.476562.835938-.648438 1.679688-1.289063 2.53125-1.914063.183594-.132813.367188-.269531.554688-.402344 3.152344-2.273437 6.445312-4.363281 9.859375-6.257812.15625-.085938.3125-.167969.46875-.253907 1-.546874 2.007813-1.074218 3.027344-1.585937.167969-.082031.332031-.167969.5-.253906 1.148437-.566407 2.304687-1.117188 3.476562-1.640625 12.203125-5.457032 25.722657-8.503906 39.957031-8.515625 32.027344-.027344 60.492188 15.261719 78.480469 38.957031 1.894531 2.496094 5.179688 3.578125 8.117188 2.476562 6.613281-2.480468 13.769531-3.84375 21.25-3.847656 8.125-.007812 15.871093 1.59375 22.957031 4.484375 2.285156-5.582031 4.152344-11.375 5.585938-17.339843-4.753907-.988282-9.671876-1.523438-14.71875-1.515626zm0 0" fill="#e8bb2a"/><path d="m394.707031 177.210938c0 13.839843-11.222656 25.0625-25.0625 25.0625-13.84375 0-25.0625-11.222657-25.0625-25.0625 0-13.839844 11.21875-25.0625 25.0625-25.0625 13.839844 0 25.0625 11.222656 25.0625 25.0625zm0 0" fill="#ffdc7b"/><path d="m356.550781 134.195312c0 8.675782-7.03125 15.710938-15.710937 15.710938-8.675782 0-15.707032-7.035156-15.707032-15.710938 0-8.675781 7.03125-15.710937 15.707032-15.710937 8.679687 0 15.710937 7.035156 15.710937 15.710937zm0 0" fill="#ffdc7b"/><path d="m505.363281 308.613281c-12.363281-14.253906-29.925781-23.867187-49.742187-25.851562-3.566406-.359375-6.449219-3.15625-6.933594-6.707031-4.492188-32.820313-32.621094-58.089844-66.636719-58.058594-8.273437.007812-16.195312 1.511718-23.511719 4.257812-3.246093 1.21875-6.882812.023438-8.980468-2.742187-19.902344-26.214844-51.394532-43.132813-86.828125-43.097657-56.851563.050782-103.453125 43.710938-108.320313 99.335938-.332031 3.796875-3.203125 6.914062-6.992187 7.3125-38.214844 4.019531-67.984375 36.363281-67.949219 75.671875.039062 41.996094 34.085938 76.011719 76.046875 75.976563l276.871094-.25c35.574219-33.273438 61.46875-76.78125 72.976562-125.847657zm0 0" fill="#aef7ff"/><path d="m135.191406 362.152344c-.03125-35.421875 25.371094-64.910156 58.949219-71.191406 6.921875-1.292969 12.082031-7.03125 13.113281-14 7.414063-49.949219 50.390625-88.300782 102.371094-88.347657 1.132812 0 2.265625.019531 3.390625.054688-15.046875-7.839844-32.148437-12.273438-50.285156-12.257813-56.878907.050782-103.5 43.761719-108.324219 99.429688-.328125 3.761718-3.234375 6.828125-6.984375 7.222656-38.214844 4.015625-67.988281 36.363281-67.953125 75.667969.039062 42 34.085938 76.011719 76.050781 75.976562l52.054688-.242187c-39.941407.039062-72.347657-32.335938-72.382813-72.3125zm0 0" fill="#5dc1d8"/><g fill="#4848aa"><path d="m195.195312 84.917969v-1.046875c0-5.824219-4.71875-10.542969-10.539062-10.542969h-22.65625c-6.109375 0-11.066406-4.953125-11.066406-11.0625 0-5.457031 3.953125-9.980469 9.148437-10.890625h70.449219c8.199219 0 14.847656-6.648438 14.847656-14.851562 0-8.199219-6.648437-14.847657-14.847656-14.847657h-63.5625c-1.835938 0-3.5625-.441406-5.097656-1.207031-38.4375 16.605469-71.90625 42.550781-97.535156 74.992188h120.320312c5.820312 0 10.539062-4.71875 10.539062-10.542969zm0 0"/><path d="m455.859375 148.484375c-5.820313 0-10.542969 4.722656-10.542969 10.542969v1.046875c0 5.824219 4.722656 10.542969 10.542969 10.542969h22.65625c6.109375 0 11.066406 4.953124 11.066406 11.066406 0 5.457031-3.953125 9.976562-9.148437 10.886718h-40.75c-8.199219 0-14.847656 6.648438-14.847656 14.851563 0 8.199219 6.648437 14.847656 14.847656 14.847656h70.667968c-2.964843-26.003906-9.886718-50.808593-20.171874-73.785156zm0 0"/></g></svg>