<svg height="512pt" viewBox="-1 0 512 512.00001" width="512pt" xmlns="http://www.w3.org/2000/svg"><path d="m509.847656 262.027344c0-138.054688-111.820312-249.96875-249.757812-249.96875s-249.761719 111.914062-249.761719 249.96875c0 138.058594 111.824219 249.972656 249.761719 249.972656s249.757812-111.914062 249.757812-249.972656zm0 0" fill="#393991"/><path d="m509.847656 262.027344c0-138.054688-111.820312-249.96875-249.757812-249.96875s-249.761719 111.914062-249.761719 249.96875c0 138.058594 111.824219 249.972656 249.761719 249.972656s249.757812-111.914062 249.757812-249.972656zm0 0" fill="#393991"/><path d="m425.085938 126.5625v1.042969c0 5.796875 4.703124 10.496093 10.5 10.496093h22.558593c6.085938 0 11.019531 4.933594 11.019531 11.019532 0 5.433594-3.9375 9.9375-9.109374 10.84375h-27.316407c-8.167969 0-14.789062 6.621094-14.789062 14.789062 0 8.164063 6.621093 14.785156 14.789062 14.785156h66.429688c-8.054688-26.644531-20.433594-51.40625-36.320313-73.472656h-27.261718c-5.796876 0-10.5 4.699219-10.5 10.496094zm0 0" fill="#4848aa"/><path d="m164.472656 288.808594c1.777344-20.324219 9.597656-38.917969 21.644532-53.96875-4.535157-11.804688-7.039063-24.621094-7.039063-38.023438 0-15.863281 3.488281-30.910156 9.730469-44.421875-.273438.097657-.546875.183594-.816406.285157-2.183594.820312-4.632813.015624-6.046876-1.84375-13.40625-17.660157-34.621093-29.058594-58.492187-29.035157-38.296875.035157-69.691406 29.445313-72.96875 66.917969-.222656 2.558594-2.160156 4.65625-4.710937 4.925781-25.742188 2.707031-45.7968755 24.496094-45.773438 50.972657.0273438 28.292968 22.960938 51.207031 51.230469 51.179687l105.667969-.09375c.375-.042969.746093-.105469 1.121093-.144531 3.492188-.367188 6.144531-3.246094 6.453125-6.75zm0 0" fill="#5dc1d8"/><path d="m24.898438 245.167969c-.027344-27.21875 20.589843-49.617188 47.054687-52.398438 2.621094-.277343 4.609375-2.4375 4.839844-5.066406 2.726562-31.15625 24.367187-56.886719 53.371093-65.605469-2.210937-.199218-4.449218-.300781-6.710937-.296875-38.296875.035157-69.691406 29.445313-72.96875 66.917969-.222656 2.558594-2.160156 4.65625-4.710937 4.925781-25.742188 2.707031-45.7968755 24.496094-45.773438 50.972657.0273438 28.292968 22.960938 51.207031 51.230469 51.179687l11.964843-.007813c-22.082031-6.238281-38.277343-26.527343-38.296874-50.621093zm0 0" fill="#399faa"/><path d="m158.015625 295.558594c3.496094-.367188 6.148437-3.246094 6.457031-6.75 1.777344-20.324219 9.597656-38.917969 21.648438-53.96875-4.539063-11.804688-7.042969-24.621094-7.042969-38.023438 0-15.863281 3.488281-30.910156 9.730469-44.421875-.269532.097657-.546875.183594-.8125.285157-2.1875.820312-4.636719.015624-6.050782-1.84375-6.660156-8.773438-15.25-16-25.132812-21.050782-9.679688 19.226563-15.136719 40.945313-15.136719 63.9375 0 14.015625 2.03125 27.550782 5.800781 40.34375-10.417968 16.691406-17.117187 35.949219-18.921874 56.613282-.164063 1.886718-.867188 3.628906-1.957032 5.050781l30.304688-.027344c.371094-.046875.738281-.105469 1.113281-.144531zm0 0" fill="#399faa"/><path d="m503.234375 319.371094c-12.308594-14.195313-29.796875-23.765625-49.527344-25.742188-3.554687-.355468-6.421875-3.140625-6.90625-6.679687-4.476562-32.679688-32.484375-57.84375-66.359375-57.8125-8.238281.003906-16.125 1.503906-23.410156 4.238281-3.234375 1.214844-6.855469.023438-8.941406-2.730469-19.820313-26.105469-51.179688-42.949219-86.464844-42.917969-56.613281.050782-103.015625 43.53125-107.863281 98.921876-.328125 3.78125-3.191407 6.882812-6.960938 7.28125-38.054687 4-67.703125 36.210937-67.664062 75.351562.035156 41.820312 33.941406 75.691406 75.726562 75.65625l275.707031-.25c35.421876-33.128906 61.207032-76.457031 72.664063-125.316406zm0 0" fill="#aef7ff"/><path d="m263.246094 194.773438c33.351562-.027344 62.992187 15.894531 81.726562 40.570312 1.972656 2.597656 5.394532 3.722656 8.449219 2.578125 6.886719-2.582031 14.34375-4 22.128906-4.007813 8.871094-.007812 17.308594 1.816407 24.972657 5.109376 3.226562-10.871094 4.96875-22.382813 4.96875-34.300782 0-66.449218-53.871094-120.320312-120.320313-120.320312-66.453125 0-120.320313 53.871094-120.320313 120.320312 0 15.519532 2.9375 30.347656 8.285157 43.96875 17.289062-32.070312 51.140625-53.882812 90.109375-53.917968zm0 0" fill="#fc8e36"/><path d="m380.445312 221.691406c-8.238281.007813-16.128906 1.507813-23.414062 4.242188-3.230469 1.210937-6.851562.023437-8.941406-2.730469-19.820313-26.105469-51.179688-42.949219-86.464844-42.917969-18.113281.015625-35.175781 4.488282-50.167969 12.367188 5.289063-53.117188 45.121094-96.058594 96.714844-106.046875-.929687-.179688-1.863281-.347657-2.800781-.507813-.003906 0-.007813 0-.007813 0-.925781-.160156-1.855469-.304687-2.785156-.4375-.039063-.007812-.078125-.011718-.117187-.019531-.894532-.128906-1.796876-.246094-2.699219-.355469-.097657-.015625-.195313-.023437-.296875-.035156-.84375-.101562-1.6875-.195312-2.539063-.277344-.1875-.015625-.378906-.03125-.570312-.050781-.765625-.070313-1.535157-.136719-2.304688-.195313-.308593-.019531-.621093-.039062-.933593-.058593-.660157-.042969-1.316407-.085938-1.976563-.117188-.507813-.027343-1.015625-.042969-1.519531-.058593-.480469-.019532-.957032-.039063-1.441406-.054688-1-.023438-2.003907-.035156-3.011719-.035156-19.726563 0-38.34375 4.746094-54.773438 13.160156-6.054687 3.101562-11.808593 6.699219-17.214843 10.742188-3.089844 2.308593-6.0625 4.765624-8.910157 7.355468-1.425781 1.292969-2.820312 2.621094-4.179687 3.984375-1.359375 1.359375-2.6875 2.753907-3.984375 4.175781-1.941407 2.136719-3.808594 4.34375-5.59375 6.617188-2.382813 3.03125-4.621094 6.179688-6.707031 9.433594-1.566407 2.441406-3.042969 4.941406-4.433594 7.5-.925782 1.703125-1.8125 3.433594-2.65625 5.1875s-1.648438 3.53125-2.410156 5.328125c-6.089844 14.394531-9.453126 30.222656-9.453126 46.835937 0 1.003906.011719 2.007813.035157 3.007813.007812.339843.027343.675781.035156 1.015625.023437.65625.042969 1.3125.074219 1.96875.023437.40625.050781.8125.074218 1.21875.035157.582031.066407 1.167968.109376 1.746094.035156.4375.074218.871093.109374 1.304687.046876.546875.09375 1.097656.144532 1.640625.046875.453125.097656.902344.144531 1.351562.058594.523438.117187 1.046876.179687 1.570313.058594.460937.117188.921875.179688 1.382813.070312.507812.140625 1.015624.214844 1.519531.066406.46875.140625.933593.214844 1.398437.078124.492188.160156.984375.246093 1.472656.082031.476563.167969.949219.253907 1.425782.085937.472656.179687.949218.273437 1.421875.09375.480469.191406.957031.289063 1.4375.097656.460937.199218.921875.300781 1.382812.109375.484375.21875.96875.332031 1.453125.097656.40625.199219.8125.296875 1.214844v.003906c.003906.015625.007813.03125.011719.042969.007812.023437.011718.046875.019531.070313.121094.492187.242187.984374.371094 1.472656.109375.429687.230469.859375.347656 1.285156.082031.300781.164063.597656.246094.894531.011719.035157.019531.070313.03125.109375.042969.164063.089843.324219.136719.488282.117187.40625.238281.808593.359374 1.214843.152344.511719.304688 1.023438.464844 1.535157.042969.136718.089844.273437.132813.410156.03125.101562.066406.203125.101562.308594.039063.125.082031.25.121094.375.175781.542968.347656 1.085937.53125 1.625.085937.246093.175781.488281.257813.730468.023437.070313.050781.132813.074218.203125.5 1.429688 1.019532 2.855469 1.570313 4.261719.546875-1.011719 1.109375-2.011719 1.6875-3.003906.15625-.265625.320312-.523438.476562-.785156.433594-.726563.863281-1.449219 1.3125-2.164063.171875-.269531.351563-.535156.523438-.804687.449219-.699219.898437-1.398438 1.363281-2.082032.167969-.25.347656-.492187.515625-.738281.484375-.699219.96875-1.402344 1.46875-2.089844.152344-.207031.3125-.410156.464844-.617187.53125-.722656 1.066406-1.4375 1.617187-2.144532.128906-.167968.269532-.332031.402344-.5.582031-.734374 1.167969-1.46875 1.769531-2.1875.109375-.132812.222657-.257812.332031-.390624.636719-.75 1.277344-1.496094 1.929688-2.226563.085938-.097656.175781-.191406.261719-.285156.6875-.761719 1.382812-1.515625 2.089843-2.257813.0625-.0625.128907-.125.191407-.191406.738281-.769531 1.484375-1.527344 2.246093-2.269531.039063-.039063.078126-.074219.117188-.109375.789062-.769532 1.585938-1.527344 2.402344-2.269532.015625-.015624.035156-.03125.054687-.050781.832031-.761719 1.679688-1.511719 2.539063-2.242187 0-.003906.003906-.003906.003906-.003906 4.375-3.734376 9.066406-7.105469 14.027344-10.070313 15.304687-9.140625 33.1875-14.414063 52.308594-14.429687 33.351562-.03125 62.992187 15.890624 81.726562 40.566406 1.972656 2.601562 5.398438 3.726562 8.453125 2.578125 6.886719-2.582031 14.339844-4 22.128906-4.007813 8.867188-.007812 17.308594 1.820313 24.96875 5.109375 1.28125-4.304687 2.316407-8.710937 3.109375-13.203125-7.222656-2.664062-15.03125-4.128906-23.183594-4.125zm0 0" fill="#ed7626"/><path d="m391.328125 181.550781c0 14.671875-11.894531 26.570313-26.566406 26.570313-14.675781 0-26.570313-11.898438-26.570313-26.570313s11.894532-26.570312 26.570313-26.570312c14.671875 0 26.566406 11.898437 26.566406 26.570312zm0 0" fill="#ffab5f"/><path d="m350.882812 135.949219c0 9.195312-7.457031 16.652343-16.65625 16.652343-9.199218 0-16.65625-7.457031-16.65625-16.652343 0-9.199219 7.457032-16.65625 16.65625-16.65625 9.199219 0 16.65625 7.457031 16.65625 16.65625zm0 0" fill="#ffab5f"/><g fill="#fc8e36"><path d="m285.121094 71.988281c-4.222656 0-7.648438-3.425781-7.648438-7.648437v-56.691406c0-4.222657 3.421875-7.648438 7.648438-7.648438 4.222656 0 7.648437 3.425781 7.648437 7.648438v56.691406c0 4.222656-3.421875 7.648437-7.648437 7.648437zm0 0"/><path d="m425.507812 212.375c-4.226562 0-7.648437-3.425781-7.648437-7.648438 0-4.226562 3.421875-7.648437 7.648437-7.648437h56.691407c4.222656 0 7.648437 3.421875 7.648437 7.648437 0 4.222657-3.425781 7.648438-7.648437 7.648438zm0 0"/><path d="m384.390625 113.105469c-1.957031 0-3.917969-.746094-5.410156-2.242188-2.988281-2.984375-2.988281-7.828125 0-10.816406l40.085937-40.085937c2.988282-2.984376 7.832032-2.984376 10.816406 0 2.988282 2.988281 2.988282 7.832031 0 10.816406l-40.085937 40.085937c-1.492187 1.496094-3.449219 2.242188-5.40625 2.242188zm0 0"/><path d="m185.851562 113.105469c-1.957031 0-3.914062-.746094-5.40625-2.242188l-40.085937-40.082031c-2.988281-2.988281-2.988281-7.832031 0-10.816406 2.988281-2.988282 7.828125-2.988282 10.816406 0l40.085938 40.082031c2.988281 2.988281 2.988281 7.832031 0 10.816406-1.492188 1.496094-3.453125 2.242188-5.410157 2.242188zm0 0"/></g><path d="m503.234375 319.371094c-12.308594-14.195313-29.796875-23.765625-49.527344-25.742188-3.554687-.355468-6.421875-3.140625-6.90625-6.679687-4.476562-32.679688-32.484375-57.84375-66.359375-57.8125-8.238281.003906-16.125 1.503906-23.410156 4.238281-3.234375 1.214844-6.855469.023438-8.941406-2.730469-19.820313-26.105469-51.179688-42.949219-86.464844-42.917969-56.613281.050782-103.015625 43.53125-107.863281 98.921876-.328125 3.78125-3.191407 6.882812-6.960938 7.28125-38.054687 4-67.703125 36.210937-67.664062 75.351562.035156 41.820312 33.941406 75.691406 75.726562 75.65625l275.707031-.25c35.421876-33.128906 61.207032-76.457031 72.664063-125.316406zm0 0" fill="#aef7ff"/><path d="m134.621094 372.6875c-.03125-35.277344 25.265625-64.636719 58.703125-70.890625 6.894531-1.289063 12.03125-7.003906 13.058593-13.945313 7.382813-49.738281 50.179688-87.925781 101.9375-87.972656 1.128907 0 2.257813.019532 3.378907.054688-14.984375-7.808594-32.011719-12.222656-50.074219-12.207032-56.640625.050782-103.066406 43.578126-107.867188 99.011719-.324218 3.742188-3.21875 6.796875-6.957031 7.191407-38.054687 4-67.699219 36.210937-67.664062 75.351562.035156 41.820312 33.941406 75.691406 75.726562 75.65625l51.839844-.242188c-39.773437.039063-72.046875-32.203124-72.082031-72.007812zm0 0" fill="#5dc1d8"/><path d="m127.066406 90.75c0-7.320312-5.933594-13.257812-13.257812-13.257812h-22.183594c-8.980469 8.214843-17.351562 17.082031-25.054688 26.515624h47.238282c7.324218 0 13.257812-5.933593 13.257812-13.257812zm0 0" fill="#4848aa"/></svg>