<svg height="512pt" viewBox="0 -5 512.00114 512" width="512pt" xmlns="http://www.w3.org/2000/svg"><path d="m512 250.742188c0-138.480469-112.164062-250.742188-250.53125-250.742188-138.363281 0-250.527344 112.261719-250.527344 250.742188 0 138.484374 112.164063 250.746093 250.527344 250.746093 138.367188 0 250.53125-112.261719 250.53125-250.746093zm0 0" fill="#3f6dc9"/><path d="m54.535156 378.726562h70.367188c8.191406 0 14.832031-6.640624 14.832031-14.832031 0-8.191406-6.640625-14.832031-14.832031-14.832031h-63.492188c-6.320312 0-11.445312-5.125-11.445312-11.445312 0-6.324219 5.125-11.445313 11.445312-11.445313h23.808594c5.816406 0 10.527344-4.714844 10.527344-10.53125v-1.832031c0-5.8125-4.710938-10.527344-10.527344-10.527344h-68.75c6.054688 28.421875 16.917969 55.058594 31.703125 79.019531 1.625-1.835937 3.84375-3.132812 6.363281-3.574219zm0 0" fill="#5081d1"/><path d="m482.40625 132.441406h-89.691406c-5.816406 0-10.53125 4.714844-10.53125 10.527344v1.832031c0 5.816407 4.714844 10.53125 10.53125 10.53125h13.542968c6.320313 0 11.445313 5.125 11.445313 11.445313 0 6.320312-5.125 11.445312-11.445313 11.445312h-23.5625c-8.191406 0-14.832031 6.640625-14.832031 14.832032 0 8.191406 6.640625 14.832031 14.832031 14.832031h24.652344c5.191406.910156 9.136719 5.425781 9.136719 10.878906 0 6.101563-4.945313 11.050781-11.050781 11.050781h-12.71875c-5.816406 0-10.53125 4.714844-10.53125 10.53125v1.046875c0 5.816407 4.714844 10.527344 10.53125 10.527344h119.273437c0-.316406.011719-.632813.011719-.953125.039062-42.863281-10.683594-83.222656-29.59375-118.527344zm0 0" fill="#5081d1"/><g fill="#fdd33a"><path d="m372.941406 308.214844c1.574219 2.074218 4.300782 2.972656 6.738282 2.058594 5.488281-2.058594 11.433593-3.191407 17.644531-3.195313 13.363281-.015625 25.507812 5.183594 34.539062 13.667969 13.933594-5.246094 26.878907-12.503906 38.476563-21.433594 1.5625-1.203125.601562-3.695312-1.363282-3.507812-63.953124 6.058593-120.65625-41.25-126.007812-105.441407-5.109375-61.273437 39.332031-116.308593 100.3125-124.148437 8.75-1.121094 17.378906-1.238282 25.78125-.445313 1.929688.183594 2.882812-2.261719 1.347656-3.445312-25.421875-19.597657-57.328125-31.199219-91.953125-31.015625-81.484375.433594-148.089843 66.941406-148.652343 148.425781-.28125 40.640625 15.664062 77.554687 41.730468 104.660156 10.921875-5.4375 23.222656-8.511719 36.246094-8.523437 26.589844-.023438 50.222656 12.671875 65.160156 32.34375zm0 0"/><path d="m456.554688 174.441406 4.292968 11.835938c.671875 1.863281 2.140625 3.328125 4 4.003906l11.835938 4.289062c5.871094 2.125 5.871094 10.429688 0 12.554688l-11.835938 4.289062c-1.859375.675782-3.328125 2.140626-4 4.003907l-4.292968 11.835937c-2.125 5.871094-10.425782 5.871094-12.554688 0l-4.289062-11.835937c-.675782-1.863281-2.140626-3.328125-4.003907-4.003907l-11.835937-4.289062c-5.867188-2.125-5.867188-10.425781 0-12.554688l11.835937-4.289062c1.863281-.675781 3.328125-2.140625 4.003907-4.003906l4.289062-11.835938c2.128906-5.871094 10.429688-5.871094 12.554688 0zm0 0"/><path d="m148.636719 282.878906 4.292969 11.835938c.671874 1.859375 2.140624 3.328125 4 4l11.835937 4.292968c5.871094 2.125 5.871094 10.425782 0 12.554688l-11.835937 4.289062c-1.859376.675782-3.328126 2.140626-4 4.003907l-4.292969 11.835937c-2.125 5.867188-10.425781 5.867188-12.554688 0l-4.289062-11.835937c-.675781-1.863281-2.140625-3.328125-4.003907-4.003907l-11.835937-4.289062c-5.867187-2.128906-5.867187-10.429688 0-12.554688l11.835937-4.292968c1.863282-.671875 3.328126-2.140625 4.003907-4l4.289062-11.835938c2.128907-5.871094 10.429688-5.871094 12.554688 0zm0 0"/><path d="m215.132812 28.15625 4.289063 11.835938c.675781 1.859374 2.140625 3.328124 4.003906 4l11.835938 4.292968c5.867187 2.125 5.867187 10.425782 0 12.554688l-11.835938 4.289062c-1.863281.675782-3.328125 2.140625-4.003906 4.003906l-4.289063 11.835938c-2.128906 5.867188-10.429687 5.867188-12.554687 0l-4.292969-11.835938c-.671875-1.863281-2.140625-3.328124-4-4.003906l-11.835937-4.289062c-5.871094-2.128906-5.871094-10.429688 0-12.554688l11.835937-4.292968c1.859375-.671876 3.328125-2.140626 4-4l4.292969-11.835938c2.125-5.871094 10.425781-5.871094 12.554687 0zm0 0"/></g><path d="m453.101562 211.414062-11.835937-4.289062c-5.871094-2.125-5.871094-10.429688 0-12.554688l11.835937-4.289062c1.859376-.675781 3.324219-2.144531 4-4.003906l1.871094-5.164063-2.417968-6.671875c-2.125-5.871094-10.425782-5.871094-12.554688 0l-4.289062 11.835938c-.675782 1.859375-2.140626 3.328125-4.003907 4.003906l-11.835937 4.289062c-5.867188 2.125-5.867188 10.425782 0 12.554688l11.835937 4.289062c1.863281.675782 3.328125 2.140626 4.003907 4.003907l4.289062 11.835937c2.128906 5.871094 10.429688 5.871094 12.554688 0l2.417968-6.671875-1.871094-5.164062c-.675781-1.863281-2.140624-3.328125-4-4.003907zm0 0" fill="#e8bb2a"/><path d="m145.183594 319.851562-11.835938-4.289062c-5.871094-2.128906-5.871094-10.429688 0-12.558594l11.835938-4.289062c1.859375-.675782 3.328125-2.140625 4-4.003906l1.871094-5.164063-2.417969-6.671875c-2.125-5.867188-10.425781-5.867188-12.554688 0l-4.289062 11.835938c-.675781 1.863281-2.140625 3.328124-4.003907 4.003906l-11.835937 4.289062c-5.867187 2.128906-5.867187 10.429688 0 12.558594l11.835937 4.289062c1.863282.675782 3.328126 2.140626 4.003907 4.003907l4.289062 11.832031c2.128907 5.871094 10.429688 5.871094 12.554688 0l2.417969-6.671875-1.871094-5.160156c-.671875-1.863281-2.140625-3.332031-4-4.003907zm0 0" fill="#e8bb2a"/><path d="m211.675781 65.128906-11.835937-4.289062c-5.871094-2.128906-5.871094-10.429688 0-12.558594l11.835937-4.289062c1.863281-.675782 3.328125-2.140626 4.003907-4.003907l1.871093-5.164062-2.417969-6.671875c-2.128906-5.867188-10.429687-5.867188-12.554687 0l-4.292969 11.835937c-.671875 1.863281-2.140625 3.328125-4 4.003907l-11.835937 4.289062c-5.871094 2.128906-5.871094 10.429688 0 12.558594l11.835937 4.289062c1.859375.675782 3.328125 2.140625 4 4l4.292969 11.835938c2.125 5.871094 10.425781 5.871094 12.554687 0l2.417969-6.671875-1.871093-5.164063c-.675782-1.859375-2.140626-3.328125-4.003907-4zm0 0" fill="#e8bb2a"/><path d="m245.195312 147.136719c-7.4375-14.988281-22.882812-25.285157-40.734374-25.269531-5.589844.003906-10.941407 1.023437-15.886719 2.878906-2.191407.820312-4.648438.011718-6.066407-1.851563-13.449218-17.714843-34.730468-29.148437-58.671874-29.125-38.417969.035157-69.90625 29.539063-73.195313 67.125-.222656 2.566407-2.164063 4.671875-4.722656 4.941407-25.824219 2.714843-45.9414065 24.574218-45.917969 51.132812.0273438 28.378906 23.03125 51.363281 51.386719 51.335938l197.664062-.175782c7.367188-.007812 14.363281-1.578125 20.695313-4.382812-18.160156-23.230469-28.917969-52.53125-28.699219-84.355469.078125-11.113281 1.519531-21.914063 4.148437-32.253906zm0 0" fill="#5dc1d8"/><path d="m269.746094 263.746094c-18.160156-23.230469-28.917969-52.53125-28.699219-84.355469.078125-11.113281 1.519531-21.914063 4.148437-32.253906-5.109374-10.296875-14-18.378907-24.851562-22.425781-6.113281 17.457031-9.503906 36.164062-9.636719 55.609374-.222656 32.011719 8.253907 62.019532 23.191407 87.820313l15.152343-.011719c7.367188-.007812 14.363281-1.578125 20.695313-4.382812zm0 0" fill="#399faa"/><path d="m37.652344 219.277344c-.023438-23.9375 17.144531-43.859375 39.832031-48.105469 4.679687-.875 8.164063-4.75 8.863281-9.460937 5.007813-33.753907 34.050782-59.664063 69.171875-59.695313.769531-.003906 1.53125.011719 2.292969.035156-10.167969-5.296875-21.722656-8.292969-33.980469-8.28125-38.433593.035157-69.9375 29.570313-73.195312 67.1875-.222657 2.539063-2.183594 4.613281-4.722657 4.878907-25.820312 2.714843-45.9374995 24.574218-45.914062 51.132812.0273438 28.378906 23.03125 51.363281 51.386719 51.335938l35.175781-.160157c-26.988281.023438-48.886719-21.855469-48.910156-48.867187zm0 0" fill="#399faa"/><path d="m412.480469 293.808594c-7.464844.007812-14.609375 1.367187-21.207031 3.839844-2.925782 1.097656-6.207032.019531-8.097657-2.46875-17.441406-22.976563-44.753906-38.027344-75.605469-38.839844-13.179687-22.449219-20.671874-48.640625-20.476562-76.605469.496094-72 52.566406-132.300781 120.894531-145.65625-4.699219-.917969-9.480469-1.609375-14.324219-2.078125-.226562-.019531-.457031-.039062-.683593-.0625-.921875-.082031-1.847657-.15625-2.777344-.226562-.328125-.023438-.660156-.046876-.992187-.066407-.835938-.054687-1.675782-.101562-2.519532-.144531-.371094-.019531-.742187-.039062-1.109375-.054688-.84375-.035156-1.691406-.058593-2.539062-.082031-.34375-.007812-.691407-.019531-1.039063-.027343-1.179687-.019532-2.363281-.03125-3.546875-.023438-81.484375.429688-148.089843 66.941406-148.652343 148.421875-.007813 1.285156 0 2.566406.023437 3.839844.007813.4375.027344.871093.039063 1.304687.023437.835938.042968 1.675782.078124 2.507813.023438.539062.0625 1.074219.089844 1.609375.039063.726562.074219 1.457031.125 2.179687.039063.585938.09375 1.167969.140625 1.75.050781.671875.101563 1.34375.164063 2.011719.058594.617188.128906 1.226562.195312 1.839844.066406.632812.128906 1.265625.203125 1.894531.078125.636719.164063 1.273437.25 1.910156.078125.597657.152344 1.195313.238281 1.789063.09375.660156.203126 1.316406.308594 1.972656.089844.566406.171875 1.132812.269532 1.695312.113281.679688.242187 1.355469.367187 2.027344.097656.539063.191406 1.074219.296875 1.609375.136719.695313.285156 1.386719.429688 2.078125.109374.507813.210937 1.019532.324218 1.527344.15625.707031.324219 1.414062.492188 2.117188.117187.484374.226562.96875.34375 1.453124.179687.722657.371094 1.4375.558594 2.15625.121093.457032.238281.917969.363281 1.375.203125.734376.414062 1.464844.628906 2.195313.125.433594.25.867187.378906 1.300781.222657.746094.457031 1.488282.695313 2.234375.128906.40625.257812.816407.390625 1.222657.25.761718.507812 1.519531.769531 2.273437.132812.382813.261719.765625.394531 1.144531.273438.773438.558594 1.542969.847657 2.308594.132812.355469.261718.714844.398437 1.070312.300781.785157.609375 1.5625.921875 2.339844.132812.332032.261719.664063.398438.992188.328124.796875.660156 1.585937 1 2.375.132812.308594.265624.617187.398437.921875.351563.804687.714844 1.605469 1.082031 2.402343.128906.28125.257813.5625.390625.847657.378907.8125.769531 1.621093 1.164063 2.429687.125.257813.253906.515625.382812.773438.40625.824218.824219 1.640625 1.246094 2.453125.125.238281.246094.472656.371094.707031.433594.832031.882812 1.65625 1.332031 2.476562.121094.210938.238281.425782.355469.640626.46875.835937.941406 1.667968 1.425781 2.496093.109375.1875.21875.378907.332031.566407.496094.84375 1.003906 1.679687 1.515625 2.515624.101563.167969.207031.335938.308594.503907.527344.847656 1.0625 1.6875 1.605469 2.523437.097656.148438.195312.296875.289062.445313.558594.851562 1.125 1.699219 1.699219 2.539062.085937.125.171875.25.257813.378907.589843.855468 1.1875 1.703124 1.792968 2.546874.058594.078126.117188.160157.175782.238282h-.003907c.015625.015625.027344.035156.039063.050781.007812.007813.015625.019531.019531.03125.621094.855469 1.253906 1.710937 1.890625 2.554687.066406.085938.132812.171876.195312.253907.226563.300781.460938.59375.691407.890625.214843.28125.429687.558594.648437.835937.214844.277344.429688.558594.648438.835938.054687.066406.105468.132812.160156.199219.6875.859374 1.382812 1.714843 2.085938 2.558593.023437.027344.046874.054688.070312.082031.011719.019532.027344.035157.039062.050782.007813.007812.011719.011718.019532.019531.71875.859375 1.445312 1.714844 2.183594 2.554687.027343.03125.054687.0625.078124.089844.25.285156.503907.5625.757813.84375.253906.289063.515625.578125.773437.867188.253907.28125.503907.566406.757813.847656.015625.011719.027344.027344.039063.039062.789062.859376 1.582031 1.703126 2.390624 2.542969 10.917969-5.4375 23.21875-8.511719 36.242188-8.523437 1.105469 0 2.203125.027344 3.296875.070312.269531.011719.539063.023438.808594.035156 1.082031.054688 2.164062.117188 3.238281.214844h.007812c1.09375.097656 2.183594.222656 3.265626.363282.234374.027343.46875.058593.703124.09375 1.070313.148437 2.136719.308593 3.195313.496093 20.578125 3.675781 38.492187 15.0625 50.644531 31.070313 1.574219 2.074218 4.304688 2.96875 6.738282 2.054687 5.492187-2.058593 11.433593-3.1875 17.644531-3.195312 13.363281-.011719 25.507812 5.1875 34.539062 13.667969 7.703125-2.898438 15.09375-6.433594 22.132813-10.503907-10.855469-10.195312-25.453125-16.445312-41.515625-16.429687zm0 0" fill="#e8bb2a"/><path d="m486.210938 361.632812c-7.078126-3.898437-15-6.457031-23.425782-7.300781-2.886718-.289062-5.222656-2.554687-5.613281-5.429687-3.636719-26.566406-26.40625-47.019532-53.941406-46.996094-6.699219.007812-13.109375 1.226562-19.03125 3.449219-2.628907.984375-5.574219.015625-7.269531-2.21875-16.109376-21.222657-41.605469-34.914063-70.289063-34.890625-46.015625.042968-83.738281 35.386718-87.679687 80.414062-.265626 3.070313-2.59375 5.59375-5.660157 5.917969-30.933593 3.25-55.03125 29.4375-55.003906 61.253906.03125 33.996094 27.589844 61.53125 61.558594 61.5l149.304687-.132812c50.796875-24.246094 92.148438-65.105469 117.050782-115.566407zm0 0" fill="#aef7ff"/><path d="m203.402344 418.597656c-.027344-28.675781 20.535156-52.542968 47.714844-57.628906 5.605468-1.046875 9.78125-5.691406 10.621093-11.332031 5.996094-40.433594 40.789063-71.476563 82.863281-71.511719.917969-.003906 1.832032.011719 2.746094.042969-12.179687-6.347657-26.023437-9.9375-40.707031-9.921875-46.042969.042968-83.78125 35.421875-87.683594 80.484375-.265625 3.042969-2.617187 5.527343-5.65625 5.847656-30.933593 3.25-55.03125 29.433594-55.003906 61.25.03125 34 27.589844 61.535156 61.558594 61.503906l42.140625-.195312c-32.332032.027343-58.566406-26.179688-58.59375-58.539063zm0 0" fill="#5dc1d8"/></svg>