<svg height="512pt" viewBox="0 -6 512.00003 512" width="512pt" xmlns="http://www.w3.org/2000/svg"><path d="m512 250.46875c0-138.332031-112.042969-250.46875-250.253906-250.46875-138.214844 0-250.257813 112.136719-250.257813 250.46875 0 138.328125 112.042969 250.46875 250.257813 250.46875 138.210937 0 250.253906-112.140625 250.253906-250.46875zm0 0" fill="#3f6dc9"/><path d="m512 250.46875c0-138.332031-112.042969-250.46875-250.253906-250.46875-138.214844 0-250.257813 112.136719-250.257813 250.46875 0 138.328125 112.042969 250.46875 250.257813 250.46875 138.210937 0 250.253906-112.140625 250.253906-250.46875zm0 0" fill="#3f6dc9"/><path d="m505.40625 193.15625c-14.65625.027344-39.8125.0625-55.679688.050781-1.085937 0-2.144531-.117187-3.171874-.324219-6.410157-1.273437-11.539063-6.308593-12.945313-12.917968-7.609375-35.8125-39.394531-62.664063-77.441406-62.628906-9.738281.007812-19.0625 1.78125-27.675781 5.015624-3.757813 1.410157-8.007813.15625-10.429688-3.046874-23.417969-30.960938-60.554688-50.953126-102.347656-50.914063-66.933594.058594-121.796875 51.480469-127.503906 116.976563-.386719 4.449218-3.789063 8.09375-8.226563 8.558593-44.984375 4.730469-80.0273438 42.804688-79.984375 89.074219.0429688 49.433594 40.121094 89.472656 89.515625 89.429688l354.875-.277344 36.140625-.027344c20.003906-35.957031 31.429688-77.355469 31.46875-121.429688.015625-19.800781-2.269531-39.0625-6.59375-57.539062zm0 0" fill="#aef7ff"/><path d="m65.589844 287.023438c-.039063-41.699219 29.863281-76.40625 69.386718-83.796876 8.152344-1.523437 14.222657-8.28125 15.4375-16.480468 8.726563-58.796875 59.316407-103.9375 120.496094-103.992188 1.339844-.003906 2.667969.019532 3.996094.0625-17.714844-9.226562-37.839844-14.445312-59.191406-14.425781-66.953125.058594-121.832032 51.507813-127.507813 117.035156-.382812 4.425781-3.804687 8.039063-8.222656 8.503907-44.984375 4.726562-80.0273438 42.800781-79.984375 89.070312.046875 49.433594 40.121094 89.472656 89.515625 89.429688l61.277344-.285157c-47.015625.042969-85.160157-38.066406-85.203125-85.121093zm0 0" fill="#5dc1d8"/><path d="m370.96875 25.058594c-.867188.398437-1.792969.695312-2.761719.859375l-70.289062-.199219c-8.183594-.023438-14.835938 6.59375-14.859375 14.777344-.023438 8.179687 6.59375 14.832031 14.777344 14.855468l63.421874.179688c6.3125.019531 11.417969 5.152344 11.398438 11.46875-.019531 6.3125-5.152344 11.417969-11.464844 11.398438l-23.78125-.066407c-5.808594-.015625-10.53125 4.679688-10.546875 10.488281l-.003906 1.828126c-.019531 5.808593 4.679687 10.53125 10.488281 10.546874l125.625.355469c-23.945312-32.355469-55.492187-58.738281-92.003906-76.492187zm0 0" fill="#5081d1"/><g fill="#fff"><path d="m348.453125 468.632812h-185.5c-4.234375 0-7.664063-3.429687-7.664063-7.664062 0-4.230469 3.429688-7.664062 7.664063-7.664062h185.5c4.234375 0 7.664063 3.433593 7.664063 7.664062 0 4.234375-3.429688 7.664062-7.664063 7.664062zm0 0"/><path d="m388.523438 432.414062h-267.433594c-4.230469 0-7.664063-3.429687-7.664063-7.664062 0-4.230469 3.433594-7.664062 7.664063-7.664062h267.433594c6.925781 0 12.558593-5.632813 12.558593-12.554688s-5.632812-12.554688-12.558593-12.554688c-3.941407 0-7.578126 1.800782-9.980469 4.9375-2.570313 3.359376-7.382813 4-10.742188 1.425782-3.363281-2.570313-4-7.382813-1.429687-10.742188 5.324218-6.960937 13.398437-10.949218 22.152344-10.949218 15.375 0 27.886718 12.507812 27.886718 27.882812s-12.511718 27.882812-27.886718 27.882812zm0 0"/></g></svg>