<svg height="512pt" viewBox="0 0 512 512" width="512pt" xmlns="http://www.w3.org/2000/svg"><path d="m511.476562 250.214844c0-138.191406-111.925781-250.214844-250-250.214844-138.070312 0-250 112.023438-250 250.214844 0 138.1875 111.929688 250.210937 250 250.210937 138.074219 0 250-112.023437 250-250.210937zm0 0" fill="#393991"/><path d="m504.890625 192.960938c-14.640625.023437-39.773437.0625-55.621094.046874-1.085937 0-2.144531-.117187-3.171875-.320312-6.402344-1.273438-11.527344-6.304688-12.929687-12.90625-7.601563-35.773438-39.355469-62.597656-77.363281-62.5625-9.730469.007812-19.042969 1.777344-27.648438 5.007812-3.753906 1.40625-8 .15625-10.417969-3.042968-23.394531-30.929688-60.492187-50.902344-102.242187-50.863282-66.867188.058594-121.675782 51.429688-127.375 116.859376-.386719 4.441406-3.785156 8.085937-8.21875 8.550781-44.9375 4.722656-79.9414065 42.761719-79.902344 88.980469.046875 49.382812 40.082031 89.382812 89.425781 89.339843l354.511719-.277343 36.105469-.027344c19.984375-35.921875 31.394531-77.277344 31.433593-121.308594.019532-19.777344-2.265624-39.019531-6.585937-57.476562zm0 0" fill="#aef7ff"/><g fill="#5dc1d8"><path d="m271.109375 312.691406c-.742187-1.484375-1.75-2.675781-2.917969-3.59375-2.910156-1.339844-6.28125-1.917968-9.589844-1.734375-5.367187.300781-10.566406 2.597657-13.363281 6.902344-9.613281 14.8125-22.800781 35.609375-35.832031 57.691406l14.875-.011719 74.84375-.058593c-9.894531-22.410157-20.601562-44.378907-28.015625-59.195313zm0 0"/><path d="m65.523438 286.730469c-.039063-41.652344 29.832031-76.324219 69.316406-83.710938 8.140625-1.523437 14.207031-8.269531 15.421875-16.464843 8.71875-58.738282 59.253906-103.832032 120.375-103.886719 1.335937 0 2.664062.023437 3.988281.066406-17.695312-9.21875-37.800781-14.433594-59.128906-14.414063-66.886719.058594-121.707032 51.457032-127.378906 116.917969-.382813 4.421875-3.800782 8.027344-8.214844 8.492188-44.9375 4.722656-79.9414065 42.761719-79.902344 88.980469.046875 49.382812 40.082031 89.382812 89.425781 89.339843l61.210938-.285156c-46.964844.042969-85.070313-38.027344-85.113281-85.035156zm0 0"/><path d="m324.621094 449.09375c0 34.742188-28.164063 62.90625-62.90625 62.90625-34.742188 0-62.902344-28.164062-62.902344-62.90625 0-26.269531 35.96875-101.351562 53.507812-136.402344 3.875-7.742187 14.917969-7.742187 18.789063 0 17.542969 35.050782 53.511719 110.132813 53.511719 136.402344zm0 0"/></g><path d="m232.5 449.09375c0-22.941406 27.425781-83.097656 46.058594-121.320312-2.703125-5.550782-5.222656-10.636719-7.449219-15.082032-3.871094-7.742187-14.914063-7.742187-18.789063 0-17.539062 35.050782-53.507812 110.132813-53.507812 136.402344 0 34.742188 28.160156 62.90625 62.902344 62.90625 5.839844 0 11.480468-.8125 16.84375-2.300781-26.558594-7.367188-46.058594-31.699219-46.058594-60.605469zm0 0" fill="#399faa"/><path d="m307.265625 459.535156c0 9.023438-7.3125 16.335938-16.332031 16.335938-9.019532 0-16.332032-7.3125-16.332032-16.335938 0-9.019531 7.3125-16.332031 16.332032-16.332031 9.019531 0 16.332031 7.3125 16.332031 16.332031zm0 0" fill="#77dbe5"/><path d="m285.828125 421.257812c0 5.355469-4.339844 9.695313-9.695313 9.695313-5.355468 0-9.699218-4.339844-9.699218-9.695313 0-5.359374 4.34375-9.699218 9.699218-9.699218 5.355469 0 9.695313 4.339844 9.695313 9.699218zm0 0" fill="#77dbe5"/><path d="m504.890625 192.960938c-14.640625.023437-39.773437.0625-55.621094.046874-1.085937 0-2.144531-.117187-3.171875-.320312-6.402344-1.273438-11.527344-6.304688-12.929687-12.90625-7.601563-35.773438-39.355469-62.597656-77.363281-62.5625-9.730469.007812-19.042969 1.777344-27.648438 5.007812-3.753906 1.40625-8 .15625-10.417969-3.042968-23.394531-30.929688-60.492187-50.902344-102.242187-50.863282-66.867188.058594-121.675782 51.429688-127.375 116.859376-.386719 4.441406-3.785156 8.085937-8.21875 8.550781-44.9375 4.722656-79.9414065 42.761719-79.902344 88.980469.046875 49.382812 40.082031 89.382812 89.425781 89.339843l354.511719-.277343 36.105469-.027344c19.984375-35.921875 31.394531-77.277344 31.433593-121.308594.019532-19.777344-2.265624-39.019531-6.585937-57.476562zm0 0" fill="#aef7ff"/><path d="m65.523438 286.730469c-.039063-41.652344 29.832031-76.324219 69.316406-83.710938 8.140625-1.523437 14.207031-8.269531 15.421875-16.464843 8.71875-58.738282 59.253906-103.832032 120.375-103.886719 1.335937 0 2.664062.023437 3.988281.066406-17.695312-9.21875-37.800781-14.433594-59.128906-14.414063-66.886719.058594-121.707032 51.457032-127.378906 116.917969-.382813 4.421875-3.800782 8.027344-8.214844 8.492188-44.9375 4.722656-79.9414065 42.761719-79.902344 88.980469.046875 49.382812 40.082031 89.382812 89.425781 89.339843l61.210938-.285156c-46.964844.042969-85.070313-38.027344-85.113281-85.035156zm0 0" fill="#5dc1d8"/><path d="m324.621094 449.09375c0 34.742188-28.164063 62.90625-62.90625 62.90625-34.742188 0-62.902344-28.164062-62.902344-62.90625 0-26.269531 35.96875-101.351562 53.507812-136.402344 3.875-7.742187 14.917969-7.742187 18.789063 0 17.542969 35.050782 53.511719 110.132813 53.511719 136.402344zm0 0" fill="#5dc1d8"/><path d="m232.5 449.09375c0-22.941406 27.425781-83.097656 46.058594-121.320312-2.703125-5.550782-5.222656-10.636719-7.449219-15.082032-3.871094-7.742187-14.914063-7.742187-18.789063 0-17.539062 35.050782-53.507812 110.132813-53.507812 136.402344 0 34.742188 28.160156 62.90625 62.902344 62.90625 5.839844 0 11.480468-.8125 16.84375-2.300781-26.558594-7.367188-46.058594-31.699219-46.058594-60.605469zm0 0" fill="#399faa"/><path d="m307.265625 459.535156c0 9.023438-7.3125 16.335938-16.332031 16.335938-9.019532 0-16.332032-7.3125-16.332032-16.335938 0-9.019531 7.3125-16.332031 16.332032-16.332031 9.019531 0 16.332031 7.3125 16.332031 16.332031zm0 0" fill="#77dbe5"/><path d="m285.828125 421.257812c0 5.355469-4.339844 9.695313-9.695313 9.695313-5.355468 0-9.699218-4.339844-9.699218-9.695313 0-5.359374 4.34375-9.699218 9.699218-9.699218 5.355469 0 9.695313 4.339844 9.695313 9.699218zm0 0" fill="#77dbe5"/><path d="m353.496094 31.089844h-60.011719c-8.171875 0-14.800781 6.628906-14.800781 14.804687 0 8.171875 6.628906 14.800781 14.800781 14.800781h63.359375c6.308594 0 11.421875 5.113282 11.421875 11.421876 0 6.304687-5.113281 11.417968-11.421875 11.417968h-23.757812c-5.800782 0-10.507813 4.707032-10.507813 10.507813v1.828125c0 5.804687 4.707031 10.507812 10.507813 10.507812h132.972656c-25.996094-36.96875-61.742188-66.566406-103.5-85.066406-.476563 4.949219-4.230469 8.933594-9.0625 9.777344zm0 0" fill="#4848aa"/><path d="m104.632812 117.820312v-1.042968c0-5.804688-4.703124-10.507813-10.507812-10.507813h-4.859375c-5.945313 0-11.097656-4.550781-11.382813-10.488281-.175781-3.695312 1.46875-7.011719 4.113282-9.132812 1.914062-1.539063 4.355468-2.261719 6.808594-2.261719h51.652343c7.96875 0 14.828125-6.125 15.203125-14.085938.398438-8.5-6.375-15.519531-14.785156-15.519531h-35.496094c-25.203125 20.191406-46.414062 45.164062-62.261718 73.546875h51.011718c5.800782 0 10.503906-4.703125 10.503906-10.507813zm0 0" fill="#4848aa"/></svg>