<svg height="512pt" viewBox="0 -6 512.00003 512" width="512pt" xmlns="http://www.w3.org/2000/svg"><path d="m512 250.46875c0-138.332031-112.042969-250.46875-250.253906-250.46875-138.214844 0-250.257813 112.136719-250.257813 250.46875 0 138.328125 112.042969 250.46875 250.257813 250.46875 138.210937 0 250.253906-112.140625 250.253906-250.46875zm0 0" fill="#3f6dc9"/><path d="m505.40625 193.15625c-14.65625.027344-39.8125.0625-55.679688.050781-1.085937 0-2.144531-.117187-3.171874-.324219-6.410157-1.273437-11.539063-6.308593-12.945313-12.917968-7.609375-35.8125-39.394531-62.664063-77.441406-62.628906-9.738281.007812-19.0625 1.78125-27.675781 5.015624-3.757813 1.410157-8.007813.15625-10.429688-3.046874-23.417969-30.960938-60.554688-50.953126-102.347656-50.914063-66.933594.058594-121.796875 51.480469-127.503906 116.976563-.386719 4.449218-3.789063 8.09375-8.226563 8.558593-44.984375 4.730469-80.0273438 42.804688-79.984375 89.074219.0429688 49.433594 40.121094 89.472656 89.515625 89.429688l354.875-.277344 36.140625-.027344c20.003906-35.957031 31.429688-77.355469 31.46875-121.429688.015625-19.800781-2.269531-39.0625-6.59375-57.539062zm0 0" fill="#aef7ff"/><path d="m65.589844 287.023438c-.039063-41.699219 29.863281-76.40625 69.386718-83.796876 8.152344-1.523437 14.222657-8.28125 15.4375-16.480468 8.726563-58.796875 59.316407-103.9375 120.496094-103.992188 1.339844-.003906 2.667969.019532 3.996094.0625-17.714844-9.226562-37.839844-14.445312-59.191406-14.425781-66.953125.058594-121.832032 51.507813-127.507813 117.035156-.382812 4.425781-3.804687 8.039063-8.222656 8.503907-44.984375 4.726562-80.0273438 42.800781-79.984375 89.070312.046875 49.433594 40.121094 89.472656 89.515625 89.429688l61.277344-.285157c-47.015625.042969-85.160157-38.066406-85.203125-85.121093zm0 0" fill="#5dc1d8"/><path d="m362.332031 381.828125h-28.320312l16.742187-16.746094c2.5625-2.558593 2.5625-6.714843 0-9.277343-2.558594-2.5625-6.714844-2.5625-9.277344 0l-26.023437 26.023437h-39.351563l22.925782-22.925781h32.308594c3.183593 0 5.761718-2.578125 5.761718-5.761719 0-3.179687-2.578125-5.757813-5.761718-5.757813h-20.789063l17.582031-17.582031c2.25-2.25 2.25-5.894531 0-8.144531s-5.898437-2.25-8.148437 0l-17.578125 17.578125v-20.789063c0-3.179687-2.582032-5.757812-5.761719-5.757812s-5.761719 2.578125-5.761719 5.757812v32.3125l-22.921875 22.925782v-39.355469l26.023438-26.019531c2.5625-2.5625 2.5625-6.71875 0-9.28125s-6.71875-2.5625-9.28125 0l-16.742188 16.746094v-28.320313c0-3.625-2.9375-6.558594-6.558593-6.558594-3.625 0-6.5625 2.9375-6.5625 6.558594v28.320313l-16.742188-16.742188c-2.5625-2.5625-6.71875-2.5625-9.28125 0-2.5625 2.558594-2.5625 6.714844 0 9.277344l26.023438 26.023437v39.351563l-22.925782-22.925782v-32.308593c0-3.183594-2.578125-5.761719-5.757812-5.761719-3.183594 0-5.761719 2.578125-5.761719 5.761719v20.789062l-17.582031-17.582031c-2.25-2.25-5.894532-2.25-8.144532 0s-2.25 5.894531 0 8.144531l6.265626 6.265625 11.3125 11.316406h-20.789063c-3.179687 0-5.757813 2.578126-5.757813 5.761719 0 3.179688 2.578126 5.757813 5.757813 5.757813h32.308594l22.925781 22.925781h-39.351562l-26.023438-26.023437c-2.558594-2.558594-6.714844-2.558594-9.277344 0-2.5625 2.5625-2.5625 6.71875 0 9.28125l16.746094 16.742187h-28.320312c-3.625 0-6.5625 2.9375-6.5625 6.5625 0 3.621094 2.9375 6.558594 6.5625 6.558594h28.320312l-16.746094 16.746093c-2.558594 2.558594-2.558594 6.714844 0 9.277344 2.5625 2.5625 6.71875 2.5625 9.28125 0l26.023438-26.023437h39.351562l-22.925781 22.925781h-32.308594c-3.183593 0-5.761719 2.578125-5.761719 5.761719 0 3.179687 2.578126 5.757812 5.761719 5.757812h20.789063l-17.582032 17.582031c-2.25 2.25-2.25 5.894532 0 8.148438 2.25 2.246094 5.894532 2.246094 8.144532 0l6.265625-6.269531 11.316406-11.3125v20.789062c0 3.179688 2.578125 5.757813 5.761719 5.757813 3.179687 0 5.757812-2.578125 5.757812-5.757813v-32.308593l22.925782-22.925782v39.351563l-26.023438 26.023437c-2.558594 2.558594-2.558594 6.714844 0 9.277344 2.5625 2.5625 6.71875 2.5625 9.28125 0l16.742188-16.746094v28.320313c0 3.625 2.9375 6.5625 6.5625 6.5625 3.621093 0 6.558593-2.9375 6.558593-6.5625v-28.320313l16.746094 16.746094c2.5625 2.558594 6.714844 2.558594 9.277344 0 2.5625-2.5625 2.5625-6.71875 0-9.28125l-26.023438-26.023438v-39.351562l22.925781 22.925781v32.308594c0 3.183594 2.578126 5.761719 5.761719 5.761719 3.179688 0 5.757813-2.578125 5.757813-5.761719v-20.789063l17.582031 17.582032c2.25 2.25 5.898437 2.25 8.148437 0 2.246094-2.25 2.246094-5.894532 0-8.144532l-6.269531-6.265624-11.3125-11.316407h20.789063c3.179687 0 5.761718-2.578125 5.761718-5.761719 0-3.179687-2.582031-5.757812-5.761718-5.757812h-32.308594l-22.925781-22.925781h39.351562l26.023438 26.023437c2.5625 2.5625 6.714843 2.5625 9.277343 0s2.5625-6.71875 0-9.28125l-16.742187-16.742187h28.320313c3.621093 0 6.558593-2.9375 6.558593-6.5625 0-3.621094-2.941406-6.558594-6.5625-6.558594zm0 0" fill="#5dc1d8"/><path d="m357.945312 31.121094h-70.292968c-8.179688 0-14.816406 6.636718-14.816406 14.820312 0 8.179688 6.636718 14.816406 14.816406 14.816406h63.421875c6.316406 0 11.433593 5.117188 11.433593 11.433594 0 6.3125-5.117187 11.429688-11.433593 11.429688h-23.777344c-5.8125 0-10.519531 4.710937-10.519531 10.519531v1.828125c0 5.808594 4.707031 10.519531 10.519531 10.519531h139.234375c-25.230469-35.886719-59.644531-64.835937-99.820312-83.441406-1.082032 4.140625-4.5 7.328125-8.765626 8.074219zm0 0" fill="#5081d1"/></svg>