<svg height="512pt" viewBox="0 -5 512.00003 512" width="512pt" xmlns="http://www.w3.org/2000/svg"><path d="m500.820312 250.625c0-138.417969-112.113281-250.625-250.410156-250.625s-250.410156 112.207031-250.410156 250.625c0 138.414062 112.113281 250.625 250.410156 250.625s250.410156-112.210938 250.410156-250.625zm0 0" fill="#3f6dc9"/><path d="m114.421875 249.347656c4-.417968 7.035156-3.710937 7.386719-7.71875 5.136718-58.734375 54.34375-104.839844 114.371094-104.890625 37.414062-.035156 70.667968 17.828125 91.683593 45.507813 2.214844 2.917968 6.054688 4.179687 9.480469 2.894531 7.726562-2.898437 16.089844-4.488281 24.828125-4.496094 35.921875-.035156 65.617187 26.648438 70.363281 61.300781.511719 3.753907 3.554688 6.707032 7.320313 7.082032 40.480469 4.054687 72.109375 38.210937 72.144531 79.796875.039062 44.347656-35.847656 80.328125-80.15625 80.367187l-308.871094.28125c-44.308594.039063-80.257812-35.878906-80.296875-80.222656-.039062-41.503906 31.394531-75.660156 71.746094-79.902344zm0 0" fill="#aef7ff"/><path d="m133.214844 243.929688c4.585937-52.429688 47.070312-93.992188 99.910156-97.011719-4.429688-20.0625-22.300781-35.066407-43.679688-35.046875-5.503906.003906-10.769531 1.007812-15.636718 2.832031-2.160156.808594-4.578125.015625-5.972656-1.824219-13.242188-17.4375-34.1875-28.6875-57.757813-28.667968-37.816406.035156-68.8125 29.078124-72.050781 66.078124-.21875 2.523438-2.132813 4.597657-4.648438 4.863282-5.824218.613281-11.347656 2.222656-16.414062 4.640625-9.535156 24.53125-15.324219 50.929687-16.65625 78.503906 9.277344 10.855469 23.058594 17.742187 38.453125 17.726563l67.90625-.0625c6.199219-2.476563 12.8125-4.152344 19.703125-4.875 3.707031-.390626 6.519531-3.441407 6.84375-7.15625zm0 0" fill="#5dc1d8"/><path d="m126.371094 251.085938c3.707031-.390626 6.519531-3.441407 6.84375-7.15625 4.585937-52.429688 47.070312-93.992188 99.910156-97.011719-2.6875-12.167969-10.320312-22.464844-20.679688-28.6875-60.429687 8.230469-107.777343 57.523437-113.140624 118.855469-.402344 4.589843-3.875 8.355468-8.453126 8.835937-11.855468 1.25-23.03125 4.765625-33.101562 10.085937l48.917969-.046874c6.199219-2.476563 12.8125-4.152344 19.703125-4.875zm0 0" fill="#399faa"/><path d="m101.507812 332.859375c-.03125-37.402344 26.789063-68.539063 62.246094-75.167969 7.308594-1.367187 12.757813-7.429687 13.847656-14.785156 7.828126-52.746094 53.207032-93.234375 108.089844-93.285156 1.199219-.003906 2.394532.019531 3.582032.054687-15.886719-8.277343-33.945313-12.957031-53.09375-12.941406-60.0625.054687-109.289063 46.207031-114.382813 104.988281-.34375 3.96875-3.414063 7.207032-7.375 7.625-40.351563 4.242188-71.785156 38.398438-71.75 79.902344.039063 44.34375 35.992187 80.261719 80.300781 80.222656l54.964844-.257812c-42.171875.042968-76.390625-34.144532-76.429688-76.355469zm0 0" fill="#5dc1d8"/><g fill="#5081d1"><path d="m397.113281 47.511719h-53.527343c-5.8125 0-10.523438 4.710937-10.523438 10.523437v1.046875c0 5.8125 4.710938 10.523438 10.523438 10.523438h22.621093c6.101563 0 11.046875 4.945312 11.046875 11.050781 0 5.445312-3.945312 9.960938-9.132812 10.871094h-70.335938c-8.1875 0-14.824218 6.636718-14.824218 14.824218s6.636718 14.828126 14.824218 14.828126h63.464844c6.316406 0 11.4375 5.121093 11.4375 11.4375 0 6.320312-5.121094 11.441406-11.4375 11.441406h-23.796875c-5.8125 0-10.523437 4.710937-10.523437 10.523437v1.832031c0 5.8125 4.710937 10.523438 10.523437 10.523438h149.046875c-2.925781-8.269531-6.265625-16.347656-10.007812-24.191406-3.644532-1.914063-6.132813-5.726563-6.132813-10.128906 0-.558594.054687-1.101563.132813-1.640626-17.957032-33.015624-43.125-61.539062-73.378907-83.464843zm0 0"/><path d="m218.414062 66.378906v-1.660156c0-5.277344-4.277343-9.558594-9.554687-9.558594h-12.292969c-5.734375 0-10.386718-4.648437-10.386718-10.386718 0-5.734376 4.652343-10.386719 10.386718-10.386719h48.992188c7.433594 0 13.460937-6.023438 13.460937-13.460938 0-7.433593-6.027343-13.460937-13.460937-13.460937h-49.980469c-.910156-.15625-1.78125-.445313-2.589844-.832032-47.273437 11.101563-89.378906 35.613282-122.113281 69.304688h137.984375c5.277344 0 9.554687-4.28125 9.554687-9.558594zm0 0"/></g></svg>