<svg height="512pt" viewBox="-5 0 512 512.00065" width="512pt" xmlns="http://www.w3.org/2000/svg"><path d="m501.53125 256.691406c0-135.5-109.753906-245.34375-245.136719-245.34375-135.386719 0-245.136719 109.84375-245.136719 245.34375 0 135.503906 109.75 245.347656 245.136719 245.347656 135.382813 0 245.136719-109.84375 245.136719-245.347656zm0 0" fill="#3f6dc9"/><path d="m309.417969 131.699219c2.289062 3.027343 6.304687 4.210937 9.855469 2.878906 8.140624-3.054687 16.953124-4.730469 26.15625-4.738281 32.121093-.03125 59.507812 20.226562 70.113281 48.675781 10.761719-13.003906 17.230469-29.6875 17.230469-47.886719 0-41.515625-33.65625-75.171875-75.171876-75.171875-33.675781 0-62.175781 22.148438-71.738281 52.671875 8.886719 6.738282 16.824219 14.671875 23.554688 23.570313zm0 0" fill="#fc8e36"/><path d="m420.832031 109.417969c0 9.167969-7.433593 16.601562-16.597656 16.601562-9.167969 0-16.601563-7.433593-16.601563-16.601562 0-9.164063 7.433594-16.597657 16.601563-16.597657 9.164063 0 16.597656 7.433594 16.597656 16.597657zm0 0" fill="#ffab5f"/><path d="m395.5625 80.929688c0 5.746093-4.660156 10.402343-10.40625 10.402343s-10.40625-4.65625-10.40625-10.402343c0-5.746094 4.660156-10.40625 10.40625-10.40625s10.40625 4.660156 10.40625 10.40625zm0 0" fill="#ffab5f"/><g fill="#fc8e36"><path d="m357.570312 50.429688c-4.144531 0-7.507812-3.359376-7.507812-7.507813v-35.414063c0-4.148437 3.363281-7.507812 7.507812-7.507812 4.148438 0 7.507813 3.359375 7.507813 7.507812v35.414063c0 4.148437-3.359375 7.507813-7.507813 7.507813zm0 0"/><path d="m480.691406 138.136719h-35.414062c-4.144532 0-7.507813-3.363281-7.507813-7.507813 0-4.144531 3.363281-7.507812 7.507813-7.507812h35.414062c4.148438 0 7.507813 3.363281 7.507813 7.507812 0 4.144532-3.359375 7.507813-7.507813 7.507813zm0 0"/><path d="m419.589844 76.121094c-1.921875 0-3.84375-.734375-5.308594-2.199219-2.933594-2.933594-2.933594-7.6875 0-10.617187l25.042969-25.042969c2.929687-2.933594 7.683593-2.933594 10.617187 0 2.929688 2.929687 2.929688 7.683593 0 10.617187l-25.042968 25.042969c-1.46875 1.464844-3.390626 2.199219-5.308594 2.199219zm0 0"/><path d="m295.554688 76.121094c-1.921876 0-3.84375-.734375-5.308594-2.199219l-25.042969-25.042969c-2.933594-2.933594-2.933594-7.6875 0-10.617187 2.929687-2.933594 7.683594-2.933594 10.617187 0l25.042969 25.042969c2.929688 2.929687 2.929688 7.683593 0 10.617187-1.464843 1.464844-3.386719 2.199219-5.308593 2.199219zm0 0"/></g><path d="m355.917969 119.046875c-10.226563.007813-20.011719 1.871094-29.054688 5.261719-3.945312 1.480468-8.40625.167968-10.949219-3.191406-1.117187-1.480469-2.277343-2.929688-3.457031-4.359376 5.636719-30.214843 29.347657-54.070312 59.488281-59.917968-.351562-.066406-.707031-.125-1.0625-.1875-.742187-.136719-1.488281-.269532-2.238281-.378906-.488281-.074219-.984375-.125-1.480469-.1875-.710937-.09375-1.417968-.1875-2.136718-.261719-.648438-.0625-1.300782-.101563-1.953125-.148438-.574219-.039062-1.144531-.09375-1.722657-.125-1.242187-.058593-2.492187-.09375-3.75-.09375-1.191406 0-2.375.035157-3.550781.089844-.375.019531-.742187.046875-1.113281.070313-.8125.046874-1.625.109374-2.429688.183593-.417968.039063-.835937.082031-1.25.128907-.78125.085937-1.5625.183593-2.335937.296874-.386719.054688-.773437.105469-1.160156.167969-.929688.144531-1.855469.3125-2.773438.496094-.210937.039063-.421875.070313-.628906.117187-1.121094.226563-2.226563.488282-3.328125.765626-.316406.082031-.628906.171874-.945312.257812-.785157.210938-1.570313.429688-2.347657.667969-.394531.117187-.78125.242187-1.167969.367187-.710937.230469-1.417968.46875-2.117187.71875-.382813.132813-.765625.269532-1.144531.410156-.761719.285157-1.515625.585938-2.265625.894532-.292969.121094-.589844.234375-.878907.355468-1.019531.433594-2.027343.890626-3.019531 1.367188-.253906.121094-.5.253906-.753906.375-.75.371094-1.492187.75-2.226563 1.140625-.359374.195313-.71875.394531-1.074218.59375-.625.347656-1.246094.703125-1.859375 1.070313-.367188.214843-.730469.4375-1.09375.660156-.625.386718-1.238281.785156-1.851563 1.1875-.320312.210937-.644531.414062-.960937.632812-.890625.609375-1.773438 1.230469-2.640625 1.878906-.167969.125-.328125.257813-.496094.382813-.710938.539063-1.410156 1.089844-2.101562 1.652344-.324219.265625-.644532.539062-.964844.808593-.523438.445313-1.042969.894532-1.558594 1.351563-.335938.300781-.671875.605469-1.003906.914063-.496094.457031-.980469.925781-1.464844 1.394531-.3125.308593-.628906.609375-.9375.921875-.5625.570312-1.113281 1.152344-1.65625 1.738281-.203125.222656-.417969.433594-.617188.65625-.710937.785156-1.402343 1.585937-2.078124 2.398437-.273438.328126-.539063.667969-.808594 1.003907-.421875.523437-.839844 1.050781-1.246094 1.585937-.289062.378906-.570312.761719-.851562 1.148438-.378907.515625-.75 1.039062-1.113282 1.566406-.269531.386719-.542968.777344-.804687 1.171875-.386719.578125-.757813 1.167969-1.125 1.757813-.21875.347656-.445313.691406-.65625 1.042968-.542969.898438-1.066407 1.8125-1.574219 2.738282-.203125.371093-.390625.75-.589844 1.128906-.027344.046875-.050781.097656-.078125.148437v-.003906c-.015625.035156-.035156.074219-.050781.109375-.273438.519531-.546875 1.042969-.804688 1.570312-.199218.402344-.390624.8125-.582031 1.21875-.015625.039063-.035156.074219-.050781.109376-.265625.570312-.527344 1.144531-.78125 1.726562-.148438.339844-.292969.683594-.4375 1.023438-.046875.117187-.097656.230468-.144531.34375-.003907 0-.003907.003906-.003907.003906-.25.605468-.488281 1.222656-.722656 1.839844-.09375.238281-.183594.480468-.277344.722656-.066406.179687-.140624.355468-.203124.535156-.003907.011719-.011719.023438-.015626.035156-.359374 1-.703124 2.007813-1.023437 3.03125 8.886719 6.738282 16.824219 14.671875 23.554687 23.570313.257813.339843.539063.652343.835938.945312.007812.007813.015625.015625.023438.023438.300781.292969.621093.558593.957031.804687 2.285156 1.65625 5.296875 2.132813 8.039062 1.101563 8.140625-3.050781 16.953125-4.730469 26.15625-4.738281 32.121094-.027344 59.507813 20.230468 70.113281 48.679687 4.761719-5.757813 8.679688-12.238281 11.574219-19.246094-14.546875-24.125-40.988281-40.25-71.195312-40.222656zm0 0" fill="#ed7626"/><path d="m495.070312 200.554688c-14.355468.023437-39 .058593-54.539062.046874-1.066406 0-2.101562-.117187-3.109375-.316406-6.277344-1.246094-11.304687-6.179687-12.679687-12.652344-7.453126-35.078124-38.589844-61.382812-75.859376-61.347656-9.539062.007813-18.671874 1.742188-27.109374 4.910156-3.679688 1.378907-7.84375.15625-10.214844-2.980468-22.941406-30.332032-59.316406-49.914063-100.253906-49.878906-65.566407.0625-119.308594 50.429687-124.894532 114.589843-.382812 4.355469-3.714844 7.925781-8.0625 8.382813-44.0625 4.632812-78.3867185 41.929687-78.347656 87.25.0429688 48.425781 39.300781 87.644531 87.6875 87.601562l347.617188-.269531 35.402343-.027344c19.59375-35.222656 30.785157-75.773437 30.820313-118.949219.019531-19.394531-2.222656-38.261718-6.457032-56.359374zm0 0" fill="#aef7ff"/><path d="m64.25 292.5c-.039062-40.84375 29.25-74.84375 67.964844-82.082031 7.984375-1.496094 13.933594-8.113281 15.125-16.144531 8.546875-57.597657 58.101562-101.8125 118.03125-101.867188 1.308594 0 2.613281.023438 3.910156.0625-17.347656-9.039062-37.0625-14.148438-57.976562-14.128906-65.585938.058594-119.339844 50.453125-124.902344 114.640625-.375 4.335937-3.726563 7.871093-8.054688 8.328125-44.0625 4.632812-78.3867185 41.929687-78.347656 87.25.0429688 48.425781 39.300781 87.644531 87.683594 87.601562l60.023437-.277344c-46.050781.039063-83.417969-37.289062-83.457031-83.382812zm0 0" fill="#5dc1d8"/><path d="m174.8125 388.828125h-38.886719c-2.253906 0-4.226562 1.5-4.828125 3.671875l-14.976562 54.238281-.589844 2.113281c-.359375 1.335938-.503906 2.757813-.398438 4.230469.488282 6.605469 6.238282 11.597657 12.863282 11.597657h21.144531c3.496094 0 5.914063 3.492187 4.683594 6.765624l-10.742188 28.589844c-1.582031 4.1875.214844 9.015625 4.367188 11.074219 4.335937 2.152344 9.605469.242187 11.898437-4.015625l26.824219-49.84375c.910156-1.703125 1.453125-3.695312 1.453125-5.757812 0-6.714844-5.441406-12.15625-12.15625-12.15625h-13.1875c-4.765625 0-7.609375-5.3125-4.964844-9.277344 0 0 14.007813-21.582032 21.707032-33.519532 2.144531-3.328124-.246094-7.710937-4.210938-7.710937zm0 0" fill="#fdd33a"/><path d="m159.09375 489.027344 10.808594-28.761719c1.199218-3.191406-1.160156-6.597656-4.570313-6.597656h-21.324219c-6.625 0-12.375-4.988281-12.859374-11.597657-.109376-1.46875.039062-2.890624.398437-4.226562l.585937-2.113281 12.953126-46.902344h-9.164063c-2.25 0-4.226563 1.503906-4.824219 3.671875l-14.980468 54.238281-.585938 2.117188c-.359375 1.332031-.507812 2.753906-.398438 4.226562.484376 6.605469 6.234376 11.597657 12.859376 11.597657h21.148437c3.496094 0 5.914063 3.492187 4.683594 6.765624l-10.746094 28.589844c-1.578125 4.1875.21875 9.015625 4.371094 11.078125 4.332031 2.148438 9.601562.238281 11.894531-4.019531l3.847656-7.144531c-3.953125-2.136719-5.640625-6.832031-4.097656-10.921875zm0 0" fill="#e8bb2a"/><path d="m279.914062 388.828125h-38.886718c-2.253906 0-4.226563 1.5-4.828125 3.671875l-14.980469 54.238281-.585938 2.113281c-.359374 1.335938-.503906 2.757813-.398437 4.230469.488281 6.605469 6.238281 11.597657 12.863281 11.597657h21.144532c3.496093 0 5.914062 3.492187 4.683593 6.765624l-10.746093 28.589844c-1.578126 4.1875.21875 9.015625 4.371093 11.074219 4.332031 2.152344 9.605469.242187 11.898438-4.015625l26.824219-49.84375c.910156-1.703125 1.453124-3.695312 1.453124-5.757812 0-6.714844-5.445312-12.15625-12.15625-12.15625h-13.1875c-4.765624 0-7.609374-5.3125-4.964843-9.277344 0 0 14.007812-21.582032 21.707031-33.519532 2.144531-3.328124-.246094-7.710937-4.210938-7.710937zm0 0" fill="#fdd33a"/><path d="m264.195312 489.027344 10.808594-28.761719c1.199219-3.191406-1.160156-6.597656-4.570312-6.597656h-21.324219c-6.625 0-12.375-4.988281-12.859375-11.597657-.109375-1.46875.039062-2.890624.398438-4.226562l.585937-2.113281 12.953125-46.902344h-9.164062c-2.25 0-4.226563 1.503906-4.824219 3.671875l-14.980469 54.238281-.585938 2.117188c-.363281 1.332031-.507812 2.753906-.398437 4.226562.484375 6.605469 6.234375 11.597657 12.859375 11.597657h21.144531c3.5 0 5.917969 3.492187 4.6875 6.765624l-10.746093 28.589844c-1.578126 4.1875.21875 9.015625 4.371093 11.078125 4.332031 2.148438 9.601563.238281 11.894531-4.019531l3.847657-7.144531c-3.953125-2.136719-5.640625-6.832031-4.097657-10.921875zm0 0" fill="#e8bb2a"/><path d="m384.015625 388.828125h-38.890625c-2.25 0-4.222656 1.5-4.824219 3.671875l-14.980469 54.238281-.585937 2.113281c-.359375 1.335938-.507813 2.757813-.398437 4.230469.484374 6.605469 6.234374 11.597657 12.859374 11.597657h21.148438c3.496094 0 5.914062 3.492187 4.683594 6.765624l-10.746094 28.589844c-1.578125 4.1875.21875 9.015625 4.371094 11.074219 4.332031 2.152344 9.605468.242187 11.894531-4.015625l26.828125-49.84375c.90625-1.703125 1.449219-3.695312 1.449219-5.757812 0-6.714844-5.441407-12.15625-12.152344-12.15625h-13.191406c-4.765625 0-7.605469-5.3125-4.964844-9.277344 0 0 14.011719-21.582032 21.707031-33.519532 2.148438-3.328124-.246094-7.710937-4.207031-7.710937zm0 0" fill="#fdd33a"/><path d="m368.296875 489.027344 10.808594-28.761719c1.199219-3.191406-1.160157-6.597656-4.570313-6.597656h-21.324218c-6.625 0-12.375-4.988281-12.859376-11.597657-.109374-1.46875.035157-2.890624.398438-4.226562l.585938-2.113281 12.953124-46.902344h-9.164062c-2.253906 0-4.226562 1.503906-4.824219 3.671875l-14.980469 54.238281-.589843 2.117188c-.359375 1.332031-.503907 2.753906-.398438 4.226562.488281 6.605469 6.238281 11.597657 12.863281 11.597657h21.144532c3.496094 0 5.914062 3.492187 4.683594 6.765624l-10.742188 28.589844c-1.582031 4.1875.214844 9.015625 4.367188 11.078125 4.335937 2.148438 9.605468.238281 11.898437-4.019531l3.84375-7.144531c-3.949219-2.136719-5.636719-6.832031-4.09375-10.921875zm0 0" fill="#e8bb2a"/></svg>