<svg height="512pt" viewBox="-4 0 511 512" width="512pt" xmlns="http://www.w3.org/2000/svg"><path d="m502.527344 256.945312c0-135.632812-109.863282-245.585937-245.382813-245.585937-135.515625 0-245.378906 109.953125-245.378906 245.585937 0 135.636719 109.863281 245.589844 245.378906 245.589844 135.519531 0 245.382813-109.953125 245.382813-245.589844zm0 0" fill="#3f6dc9"/><path d="m310.226562 131.832031c2.289063 3.027344 6.308594 4.210938 9.863282 2.878907 8.148437-3.058594 16.96875-4.734376 26.183594-4.742188 32.152343-.03125 59.5625 20.246094 70.179687 48.722656 10.773437-13.015625 17.246094-29.71875 17.246094-47.933594 0-41.558593-33.6875-75.246093-75.242188-75.246093-33.710937 0-62.238281 22.171875-71.8125 52.722656 8.898438 6.746094 16.839844 14.6875 23.582031 23.597656zm0 0" fill="#fc8e36"/><path d="m422.75 115.539062c0 9.175782-7.441406 16.617188-16.617188 16.617188-9.175781 0-16.613281-7.441406-16.613281-16.617188 0-9.175781 7.4375-16.617187 16.613281-16.617187 9.175782 0 16.617188 7.441406 16.617188 16.617187zm0 0" fill="#ffab5f"/><path d="m397.453125 87.019531c0 5.753907-4.664063 10.417969-10.414063 10.417969-5.753906 0-10.414062-4.664062-10.414062-10.417969 0-5.75 4.660156-10.414062 10.414062-10.414062 5.75 0 10.414063 4.664062 10.414063 10.414062zm0 0" fill="#ffab5f"/><path d="m358.425781 50.480469c-4.148437 0-7.515625-3.363281-7.515625-7.515625v-35.449219c0-4.152344 3.367188-7.515625 7.515625-7.515625 4.148438 0 7.515625 3.363281 7.515625 7.515625v35.449219c0 4.152344-3.367187 7.515625-7.515625 7.515625zm0 0" fill="#fc8e36"/><path d="m481.667969 138.273438h-35.449219c-4.152344 0-7.515625-3.367188-7.515625-7.515626 0-4.148437 3.363281-7.515624 7.515625-7.515624h35.449219c4.148437 0 7.515625 3.367187 7.515625 7.515624 0 4.148438-3.367188 7.515626-7.515625 7.515626zm0 0" fill="#fc8e36"/><path d="m420.503906 76.195312c-1.925781 0-3.847656-.734374-5.316406-2.203124-2.933594-2.933594-2.933594-7.691407 0-10.625l25.070312-25.070313c2.933594-2.933594 7.691407-2.933594 10.625 0 2.9375 2.9375 2.9375 7.695313 0 10.628906l-25.066406 25.066407c-1.46875 1.46875-3.390625 2.203124-5.3125 2.203124zm0 0" fill="#fc8e36"/><path d="m296.347656 76.195312c-1.921875 0-3.847656-.734374-5.3125-2.203124l-25.070312-25.066407c-2.933594-2.933593-2.933594-7.695312 0-10.628906s7.695312-2.933594 10.628906 0l25.066406 25.070313c2.9375 2.933593 2.9375 7.691406 0 10.625-1.46875 1.46875-3.390625 2.203124-5.3125 2.203124zm0 0" fill="#fc8e36"/><path d="m354.808594 121.183594c-10.042969.007812-19.660156 1.835937-28.539063 5.167968-3.875 1.453126-8.257812.164063-10.753906-3.136718-.890625-1.175782-1.796875-2.332032-2.722656-3.472656 4.640625-31.597657 28.902343-56.808594 60.023437-62.847657-.355468-.066406-.710937-.125-1.066406-.1875-.742188-.132812-1.488281-.269531-2.238281-.378906-.492188-.074219-.988281-.125-1.480469-.191406-.714844-.089844-1.421875-.1875-2.140625-.257813-.648437-.0625-1.304687-.101562-1.957031-.148437-.574219-.039063-1.144532-.09375-1.722656-.125-1.242188-.058594-2.496094-.09375-3.753907-.09375-1.191406 0-2.375.035156-3.554687.089843-.375.015626-.742188.046876-1.113282.066407-.816406.050781-1.625.109375-2.433593.1875-.417969.039062-.835938.082031-1.25.128906-.785157.085937-1.5625.183594-2.339844.296875-.386719.054688-.773437.105469-1.160156.167969-.929688.144531-1.855469.3125-2.777344.496093-.210937.039063-.421875.074219-.628906.117188-1.121094.230469-2.230469.488281-3.332031.765625-.316407.082031-.628907.175781-.945313.257813-.789063.210937-1.574219.433593-2.351563.667968-.390624.121094-.78125.246094-1.167968.371094-.710938.226562-1.417969.46875-2.121094.714844-.382812.136718-.765625.273437-1.144531.414062-.761719.285156-1.515625.585938-2.269531.894532-.292969.121093-.589844.234374-.878907.359374-1.019531.433594-2.027343.886719-3.023437 1.363282-.25.121094-.5.253906-.75.378906-.75.371094-1.496094.75-2.230469 1.140625-.363281.195313-.71875.398437-1.074219.59375-.625.347656-1.246094.707031-1.859375 1.070313-.371093.21875-.734375.4375-1.097656.664062-.625.386719-1.242187.78125-1.851563 1.1875-.320312.210938-.644531.414062-.960937.632812-.894531.609376-1.777344 1.234376-2.644531 1.878907-.167969.125-.332032.261719-.5.386719-.710938.539062-1.410156 1.089843-2.101563 1.652343-.324219.265625-.644531.539063-.964843.8125-.527344.441407-1.046876.890625-1.5625 1.351563-.335938.300781-.671876.605468-1.003907.914062-.496093.457032-.984375.925782-1.464843 1.394532-.3125.308593-.628907.613281-.9375.925781-.566407.570312-1.117188 1.152343-1.660157 1.738281-.203125.222656-.417969.433594-.621093.65625-.710938.785156-1.398438 1.585938-2.078126 2.402344-.273437.328125-.539062.667968-.808593 1.003906-.421875.523438-.839844 1.050781-1.246094 1.589844-.289063.378906-.570313.761718-.855469 1.144531-.375.519531-.746094 1.042969-1.113281 1.570313-.269531.386718-.542969.777343-.804687 1.171874-.386719.582032-.757813 1.171876-1.128907 1.761719-.214843.347657-.441406.691407-.652343 1.042969-.546876.902344-1.070313 1.8125-1.574219 2.738281-.207031.375-.394531.753907-.59375 1.132813-.320313.601562-.632813 1.210937-.9375 1.824218-.082031.167969-.15625.335938-.238281.503907-.128907.277343-.261719.550781-.390626.828125-.207031.4375-.402343.882812-.601562 1.328125-.054688.125-.117188.25-.171875.378906-.003906.003906-.003906.011719-.007813.019531-.199218.453125-.394531.910156-.585937 1.371094-.066406.164062-.128906.332031-.195313.496094-.171874.421875-.339843.851562-.503906 1.277344-.007812.023437-.019531.046874-.027344.070312-.164062.429688-.335937.859375-.492187 1.292969-.019531.058593-.039063.117187-.058594.171875-.339843.945312-.664062 1.898437-.96875 2.863281 8.898438 6.746094 16.839844 14.6875 23.578125 23.59375.257813.339844.539063.652344.835938.945313.007812.007812.015625.015624.023437.027343.300781.292969.625.558594.960938.800781 2.285156 1.660157 5.300781 2.136719 8.046875 1.105469 8.148437-3.054687 16.96875-4.734375 26.179687-4.742187 32.152344-.027344 59.566407 20.246094 70.183594 48.726562 3.867187-4.675781 7.171875-9.832031 9.828125-15.355468-13.914062-25.15625-40.707031-42.179688-71.472656-42.152344zm0 0" fill="#ed7626"/><path d="m496.058594 200.753906c-14.371094.023438-39.035156.058594-54.59375.046875-1.0625 0-2.101563-.117187-3.113282-.316406-6.28125-1.25-11.3125-6.1875-12.6875-12.667969-7.464843-35.113281-38.628906-61.441406-75.933593-61.40625-9.550781.007813-18.691407 1.746094-27.136719 4.914063-3.6875 1.382812-7.851562.15625-10.226562-2.984375-22.964844-30.359375-59.375-49.960938-100.351563-49.925782-65.632813.058594-119.429687 50.476563-125.023437 114.703126-.378907 4.359374-3.714844 7.933593-8.066407 8.390624-44.105469 4.636719-78.464843 41.972657-78.425781 87.335938.042969 48.472656 39.339844 87.730469 87.773438 87.6875l347.960937-.269531 35.4375-.027344c19.613281-35.257813 30.8125-75.851563 30.851563-119.066406.019531-19.414063-2.222657-38.300781-6.464844-56.414063zm0 0" fill="#aef7ff"/><g fill="#5dc1d8"><path d="m64.8125 292.789062c-.039062-40.886718 29.28125-74.917968 68.035156-82.164062 7.992188-1.496094 13.945313-8.121094 15.136719-16.160156 8.558594-57.652344 58.160156-101.914063 118.152344-101.964844 1.308593-.003906 2.613281.019531 3.914062.0625-17.367187-9.046875-37.105469-14.164062-58.039062-14.148438-65.648438.058594-119.457031 50.507813-125.023438 114.757813-.375 4.339844-3.730469 7.878906-8.0625 8.335937-44.105469 4.636719-78.464843 41.972657-78.425781 87.335938.042969 48.472656 39.339844 87.730469 87.769531 87.6875l60.085938-.277344c-46.097657.039063-83.503907-37.328125-83.542969-83.464844zm0 0"/><path d="m126.742188 512c-.957032 0-1.929688-.183594-2.871094-.574219-3.835938-1.589843-5.65625-5.984375-4.066406-9.816406l41.078124-99.195313c1.589844-3.835937 5.984376-5.652343 9.820313-4.066406 3.832031 1.585938 5.65625 5.984375 4.066406 9.816406l-41.078125 99.195313c-1.199218 2.894531-3.996094 4.640625-6.949218 4.640625zm0 0"/><path d="m199.886719 512c-.957031 0-1.933594-.183594-2.871094-.574219-3.835937-1.589843-5.65625-5.984375-4.070313-9.816406l41.082032-99.195313c1.585937-3.835937 5.984375-5.652343 9.816406-4.066406 3.835938 1.585938 5.65625 5.984375 4.070312 9.816406l-41.082031 99.195313c-1.199219 2.894531-3.996093 4.640625-6.945312 4.640625zm0 0"/><path d="m273.027344 512c-.957032 0-1.929688-.183594-2.871094-.574219-3.835938-1.589843-5.65625-5.984375-4.066406-9.816406l41.078125-99.195313c1.589843-3.835937 5.984375-5.652343 9.820312-4.066406 3.832031 1.585938 5.65625 5.984375 4.066407 9.816406l-41.078126 99.195313c-1.199218 2.894531-3.996093 4.640625-6.949218 4.640625zm0 0"/><path d="m346.171875 512c-.957031 0-1.933594-.183594-2.871094-.574219-3.835937-1.589843-5.65625-5.984375-4.070312-9.816406l41.082031-99.195313c1.585938-3.835937 5.984375-5.652343 9.816406-4.066406 3.835938 1.585938 5.65625 5.984375 4.070313 9.816406l-41.082031 99.195313c-1.199219 2.894531-3.996094 4.640625-6.945313 4.640625zm0 0"/></g><path d="m174.769531 408.164062c1.589844-3.832031-.230469-8.226562-4.066406-9.816406-3.835937-1.585937-8.230469.230469-9.820313 4.066406l-13.640624 32.933594h16.269531zm0 0" fill="#399faa"/><path d="m247.914062 408.164062c1.585938-3.832031-.234374-8.226562-4.070312-9.816406-3.832031-1.585937-8.226562.230469-9.816406 4.066406l-13.640625 32.933594h16.265625zm0 0" fill="#399faa"/><path d="m321.054688 408.164062c1.589843-3.832031-.230469-8.226562-4.066407-9.816406-3.835937-1.585937-8.230469.230469-9.820312 4.066406l-13.640625 32.933594h16.269531zm0 0" fill="#399faa"/><path d="m394.199219 408.164062c1.585937-3.832031-.234375-8.226562-4.070313-9.816406-3.832031-1.585937-8.226562.230469-9.816406 4.066406l-13.640625 32.933594h16.265625zm0 0" fill="#399faa"/></svg>