<svg height="512pt" viewBox="0 0 512.00003 512" width="512pt" xmlns="http://www.w3.org/2000/svg"><path d="m512 250.46875c0-138.332031-112.042969-250.46875-250.253906-250.46875-138.214844 0-250.257813 112.136719-250.257813 250.46875 0 138.328125 112.042969 250.46875 250.257813 250.46875 138.210937 0 250.253906-112.140625 250.253906-250.46875zm0 0" fill="#393991"/><path d="m505.40625 193.15625c-14.65625.027344-39.8125.0625-55.679688.050781-1.085937 0-2.144531-.117187-3.171874-.324219-6.410157-1.273437-11.539063-6.308593-12.945313-12.917968-7.609375-35.8125-39.394531-62.664063-77.441406-62.628906-9.738281.007812-19.0625 1.78125-27.675781 5.015624-3.757813 1.410157-8.007813.15625-10.429688-3.046874-23.417969-30.960938-60.554688-50.953126-102.347656-50.914063-66.933594.058594-121.796875 51.480469-127.503906 116.976563-.386719 4.449218-3.789063 8.09375-8.226563 8.558593-44.984375 4.730469-80.0273438 42.808594-79.984375 89.074219.0429688 49.433594 40.121094 89.472656 89.515625 89.429688l354.875-.277344 36.140625-.027344c20.003906-35.957031 31.429688-77.355469 31.46875-121.429688.015625-19.800781-2.269531-39.0625-6.59375-57.539062zm0 0" fill="#aef7ff"/><path d="m65.589844 287.023438c-.039063-41.695313 29.863281-76.40625 69.386718-83.796876 8.152344-1.523437 14.222657-8.28125 15.4375-16.480468 8.726563-58.796875 59.316407-103.9375 120.496094-103.992188 1.339844 0 2.667969.023438 3.996094.0625-17.714844-9.226562-37.839844-14.445312-59.191406-14.425781-66.953125.058594-121.832032 51.507813-127.507813 117.035156-.382812 4.425781-3.804687 8.039063-8.222656 8.503907-44.984375 4.726562-80.0273438 42.804687-79.984375 89.070312.046875 49.433594 40.121094 89.472656 89.515625 89.429688l61.277344-.285157c-47.015625.042969-85.160157-38.066406-85.203125-85.121093zm0 0" fill="#5dc1d8"/><path d="m177.191406 409.117188c0 13.09375-10.613281 23.707031-23.707031 23.707031s-23.707031-10.613281-23.707031-23.707031 10.613281-23.707032 23.707031-23.707032 23.707031 10.613282 23.707031 23.707032zm0 0" fill="#5dc1d8"/><path d="m148.578125 409.117188c0-10.476563 8.394531-18.980469 18.820313-19.191407-3.910157-2.835937-8.714844-4.515625-13.914063-4.515625-13.09375 0-23.707031 10.613282-23.707031 23.707032s10.613281 23.707031 23.707031 23.707031c5.199219 0 10.007813-1.675781 13.914063-4.515625-10.425782-.210938-18.820313-8.714844-18.820313-19.191406zm0 0" fill="#399faa"/><path d="m237.484375 487.800781c0 13.09375-10.617187 23.707031-23.710937 23.707031s-23.707032-10.613281-23.707032-23.707031 10.613282-23.707031 23.707032-23.707031 23.710937 10.613281 23.710937 23.707031zm0 0" fill="#5dc1d8"/><path d="m208.871094 487.800781c0-10.476562 8.390625-18.980469 18.816406-19.191406-3.90625-2.835937-8.714844-4.515625-13.914062-4.515625-13.09375 0-23.707032 10.613281-23.707032 23.707031s10.613282 23.707031 23.707032 23.707031c5.203124 0 10.007812-1.675781 13.914062-4.515624-10.425781-.210938-18.816406-8.714844-18.816406-19.191407zm0 0" fill="#399faa"/><path d="m334.558594 487.800781c0 13.09375-10.613282 23.707031-23.707032 23.707031s-23.707031-10.613281-23.707031-23.707031 10.613281-23.707031 23.707031-23.707031 23.707032 10.613281 23.707032 23.707031zm0 0" fill="#5dc1d8"/><path d="m305.945312 487.800781c0-10.476562 8.394532-18.980469 18.820313-19.191406-3.910156-2.835937-8.714844-4.515625-13.914063-4.515625-13.09375 0-23.707031 10.613281-23.707031 23.707031s10.613281 23.707031 23.707031 23.707031c5.199219 0 10.007813-1.675781 13.914063-4.515624-10.425781-.210938-18.820313-8.714844-18.820313-19.191407zm0 0" fill="#399faa"/><path d="m392.804688 409.117188c0 13.09375-10.613282 23.707031-23.707032 23.707031s-23.707031-10.613281-23.707031-23.707031 10.613281-23.707032 23.707031-23.707032 23.707032 10.613282 23.707032 23.707032zm0 0" fill="#5dc1d8"/><path d="m364.191406 409.117188c0-10.476563 8.394532-18.980469 18.820313-19.191407-3.910157-2.835937-8.714844-4.515625-13.914063-4.515625-13.09375 0-23.707031 10.613282-23.707031 23.707032s10.613281 23.707031 23.707031 23.707031c5.199219 0 10.007813-1.675781 13.914063-4.515625-10.425781-.210938-18.820313-8.714844-18.820313-19.191406zm0 0" fill="#399faa"/><path d="m284.488281 409.117188c0 13.09375-10.613281 23.707031-23.707031 23.707031s-23.710938-10.613281-23.710938-23.707031 10.617188-23.707032 23.710938-23.707032 23.707031 10.613282 23.707031 23.707032zm0 0" fill="#5dc1d8"/><path d="m255.875 409.117188c0-10.476563 8.390625-18.980469 18.820312-19.191407-3.910156-2.835937-8.714843-4.515625-13.914062-4.515625-13.09375 0-23.710938 10.613282-23.710938 23.707032s10.617188 23.707031 23.710938 23.707031c5.199219 0 10.003906-1.675781 13.914062-4.515625-10.429687-.210938-18.820312-8.714844-18.820312-19.191406zm0 0" fill="#399faa"/><path d="m358.964844 30.101562h-70.289063c-8.183593 0-14.816406 6.632813-14.816406 14.816407 0 8.183593 6.632813 14.816406 14.816406 14.816406h63.421875c6.3125 0 11.433594 5.121094 11.433594 11.433594s-5.121094 11.433593-11.433594 11.433593h-23.78125c-5.808594 0-10.515625 4.707032-10.515625 10.515626v1.832031c0 5.808593 4.707031 10.515625 10.515625 10.515625h137.503906c-25.042968-35.238282-58.976562-63.703125-98.519531-82.140625-1.398437 3.496093-4.527343 6.109375-8.335937 6.777343zm0 0" fill="#4848aa"/></svg>