<svg height="512pt" viewBox="-1 0 512 512.00019" width="512pt" xmlns="http://www.w3.org/2000/svg"><path d="m501.535156 257.195312c0-135.5-109.753906-245.347656-245.140625-245.347656s-245.136719 109.847656-245.136719 245.347656c0 135.503907 109.75 245.351563 245.136719 245.351563s245.140625-109.847656 245.140625-245.351563zm0 0" fill="#393991"/><path d="m507.929688 156.210938c-.015626.007812-.03125.011718-.042969.019531-39.296875 18.777343-86.304688 2.480469-105.625-36.382813-19.367188-38.957031-3.65625-86.667968 35.101562-106.417968 5.214844-2.65625 10.578125-4.679688 16.003907-6.105469 1.289062-.339844 1.335937-2.152344.0625-2.554688-20.4375-6.441406-43.027344-6.589843-64.746094.972657-53.824219 18.742187-82.472656 79.054687-62.949219 132.609374.429687 1.183594.886719 2.351563 1.359375 3.511719 5.058594-1.148437 10.320312-1.761719 15.726562-1.769531 34.203126-.03125 62.777344 24.109375 69.617188 56.304688.878906 4.136718 3.382812 7.582031 6.765625 9.683593 12.847656.421875 25.984375-1.5625 38.796875-6.257812 22.210938-8.140625 39.925781-23.132813 51.640625-41.707031.71875-1.132813-.5-2.484376-1.710937-1.90625zm0 0" fill="#fdd33a"/><path d="m432.367188 183.339844c-7.878907-31.332032-33.921876-55.414063-66.265626-60.402344-.40625-1.019531-.808593-2.046875-1.1875-3.085938-15.695312-43.0625-.246093-90.488281 34.390626-117.164062-.003907 0-.003907.003906-.003907.003906-1.4375.332032-2.875.703125-4.304687 1.097656-.472656.132813-.941406.257813-1.414063.398438-.503906.144531-1.011719.300781-1.515625.457031-1.128906.347657-2.257812.707031-3.382812 1.097657-.8125.285156-1.621094.578124-2.425782.882812-.265624.097656-.527343.207031-.792968.308594-.535156.207031-1.066406.410156-1.597656.625-.3125.128906-.621094.261718-.933594.390625-.476563.199219-.949219.398437-1.421875.601562-.328125.144531-.65625.292969-.984375.441407-.445313.199218-.890625.398437-1.335938.605468-.332031.15625-.664062.316406-1 .476563-.429687.203125-.859375.410156-1.285156.625-.335938.164062-.667969.335937-1 .503906-.417969.214844-.832031.425781-1.246094.644531-.335937.175782-.667968.355469-1 .535156-.40625.222657-.808594.445313-1.210937.671876-.332031.183593-.660157.371093-.988281.558593-.398438.226563-.792969.460938-1.1875.695313-.324219.191406-.648438.386718-.972657.582031-.390625.238281-.78125.480469-1.167969.722656-.316406.199219-.636718.398438-.953124.601563-.382813.25-.765626.5-1.148438.753906-.308594.207031-.621094.410156-.929688.617188-.378906.257812-.757812.523437-1.132812.789062-.304688.210938-.605469.417969-.90625.632812-.382812.269532-.757812.550782-1.136719.828126-.285156.210937-.574219.417968-.859375.632812-.394531.296875-.78125.597656-1.171875.898438-.261719.203124-.527343.402343-.789062.609374-.453125.363282-.90625.730469-1.355469 1.097657-.257812.210937-.515625.421875-.773438.636719-.542968.453124-1.085937.914062-1.621093 1.382812-.265625.230469-.523438.464844-.785157.699219-.347656.308593-.699218.617187-1.042968.929687-.285156.261719-.566406.527344-.847656.792969-.3125.292969-.625.582031-.933594.878906-.289063.277344-.574219.558594-.859375.839844-.292969.289063-.589844.574219-.882813.867187-.289062.292969-.574218.585938-.859375.878907-.277343.289062-.558593.578125-.832031.867187-.289062.304688-.574219.609375-.859375.917969-.265625.285156-.527344.574219-.789063.863281-.285156.3125-.566406.628906-.847656.949219-.257812.289063-.511718.578125-.761718.867187-.28125.324219-.558594.652344-.835938.980469-.242188.289063-.484375.578125-.722656.867188-.277344.339843-.554688.675781-.828125 1.015625-.226563.289062-.453125.574218-.679688.863281-.277343.351563-.550781.699219-.820312 1.054687-.214844.28125-.429688.566407-.644531.851563-.269532.363281-.542969.726563-.8125 1.097656-.199219.273438-.394532.546875-.589844.820313-.273438.386718-.550782.769531-.820313 1.160156-.175781.253906-.347656.507812-.519531.765625-.28125.414063-.566406.824219-.839844 1.242187-.140625.214844-.277344.429688-.417968.648438-.300782.460938-.601563.925781-.898438 1.390625-.039062.066406-.078125.128906-.117188.195313-1.160156 1.859374-2.261718 3.75-3.300781 5.675781-.042969.074219-.082031.148437-.125.222656-.285156.535156-.5625 1.070313-.839843 1.609375-.089844.175781-.183594.351562-.273438.527344-.257812.503906-.507812 1.011718-.753906 1.519531-.105469.210937-.207032.421875-.3125.632813-.238282.5-.46875 1-.699219 1.5-.105469.226562-.210937.449218-.3125.675781-.222656.496093-.441406.996093-.660156 1.496093-.101563.234376-.203125.464844-.300781.695313-.214844.503906-.421876 1.011719-.628907 1.515625-.09375.230469-.1875.460938-.277343.691406-.207032.511719-.40625 1.027344-.601563 1.542969-.085937.226563-.171875.453125-.257813.679687-.195312.523438-.386718 1.050782-.574218 1.582032-.074219.210937-.148438.425781-.226563.640625-.1875.546875-.375 1.09375-.554687 1.640625-.0625.195312-.125.386718-.1875.582031-.183594.570313-.367188 1.144531-.539063 1.71875-.050781.164063-.097656.328125-.148437.492187-.179688.605469-.359375 1.214844-.527344 1.828126-.03125.105468-.058594.210937-.089844.320312-1.417968 5.152344-2.441406 10.421875-3.054687 15.765625-.003907.042969-.011719.085937-.015625.128906-.078125.703125-.148438 1.40625-.214844 2.109375-.007812.097656-.019531.195313-.027344.289063-.058594.675781-.113281 1.351562-.160156 2.027343-.007812.125-.015625.253907-.027344.378907-.042968.664062-.078125 1.328125-.109375 1.992187-.003906.136719-.011719.273438-.019531.410156-.027344.660157-.046875 1.316407-.0625 1.980469-.003906.140625-.007812.28125-.007812.421875-.011719.660156-.019532 1.324219-.019532 1.988282 0 .132812 0 .269531.003906.40625 0 .671874.011719 1.34375.027344 2.019531.003906.117187.007813.234375.011719.351562.019531.695313.042969 1.390625.078125 2.082031.003906.082032.007812.164063.011719.246094.035156.734375.082031 1.46875.132812 2.203125.003907.015625.003907.027344.003907.042969.40625 5.546875 1.273437 11.109375 2.625 16.632812 0 .007813 0 .011719.003906.019532.214844.871094.4375 1.742187.675781 2.613281 0 .007813 0 .011719.003906.015625.238281.871094.484375 1.734375.746094 2.601562.011719.039063.023437.074219.035156.113282 0 .007812.003907.015625.007813.027344.234375.777343.480468 1.550781.738281 2.328124.039063.117188.074219.234376.113281.351563.292969.875.59375 1.75.914063 2.621094.429687 1.183593.886719 2.351562 1.359375 3.511719 5.058594-1.148438 10.320312-1.765626 15.726562-1.769532 34.203125-.03125 62.777344 24.109375 69.617188 56.304688.878906 4.136718 3.382812 7.582031 6.765625 9.683594h.003906c.101563 0 .199219 0 .300781.003906.679688.019531 1.363282.035156 2.046875.042968h.097657c.542968.007813 1.089843 0 1.632812-.003906.210938 0 .421875.003906.632812 0 .0625 0 .125 0 .191407-.003906.636719-.007812 1.273437-.027344 1.910156-.046875.09375-.003906.183594-.003906.277344-.007813.09375-.003906.1875-.007812.285156-.011718.570313-.023438 1.144531-.050782 1.714844-.085938.132812-.003906.265625-.011718.398437-.019531.121094-.003906.246094-.011719.367188-.023437.675781-.042969 1.355468-.089844 2.035156-.148438.152344-.011719.304688-.027344.457031-.039062.621094-.054688 1.242188-.117188 1.863281-.183594.03125-.003906.066407-.003906.097657-.007813.179687-.019531.363281-.039062.542969-.0625.628906-.070312 1.253906-.144531 1.882812-.226562.207031-.03125.417969-.058594.625-.089844.605469-.082031 1.207031-.167969 1.8125-.261719.234375-.039062.46875-.078125.703125-.117187.578125-.09375 1.15625-.191407 1.734375-.296875.261719-.046875.527344-.097656.789062-.148438.554688-.105468 1.105469-.210937 1.660157-.324218.289062-.0625.574219-.125.863281-.1875.53125-.113282 1.058594-.230469 1.589844-.351563.3125-.074219.625-.152344.9375-.226563.507812-.121093 1.011718-.246093 1.515625-.375.34375-.089843.691406-.183593 1.035156-.277343.472656-.128907.945313-.253907 1.417969-.386719.382812-.109375.769531-.226562 1.152344-.339844.433593-.128906.871093-.257812 1.304687-.390625.433594-.136719.867187-.28125 1.296875-.421875.386719-.125.777344-.246094 1.164062-.378906.804688-.269531 1.609376-.554688 2.410157-.847656.003906 0 .007812-.003906.011719-.003906.007812-.003907.019531-.007813.03125-.011719 1.320312-.484375 2.617187-.992188 3.90625-1.523438.5-.207031.988281-.429687 1.480468-.644531.769532-.332031 1.539063-.660156 2.296875-1.007812.621094-.289063 1.238281-.589844 1.855469-.890626.597656-.289062 1.195312-.578124 1.785156-.878906.699219-.351562 1.386719-.71875 2.070313-1.089844.484375-.257812.964843-.515624 1.441406-.78125.75-.421874 1.492187-.851562 2.230469-1.289062.382812-.222656.761718-.449219 1.136718-.679688.800782-.488281 1.59375-.984374 2.378907-1.492187.277343-.179687.554687-.363281.832031-.546875.851562-.566406 1.699219-1.136719 2.53125-1.722656.167969-.117188.332031-.238282.496094-.355469.917968-.65625 1.832031-1.320313 2.722656-2.003906-17.882812 4.199219-36.027344 3.417969-52.789062-1.578125zm0 0" fill="#e8bb2a"/><path d="m495.074219 201.058594c-14.355469.023437-38.996094.058594-54.539063.046875-1.0625 0-2.101562-.117188-3.109375-.316407-6.277343-1.246093-11.300781-6.179687-12.679687-12.652343-7.453125-35.082031-38.589844-61.382813-75.859375-61.351563-9.539063.007813-18.671875 1.746094-27.109375 4.910156-3.679688 1.382813-7.84375.15625-10.214844-2.980468-22.941406-30.328125-59.316406-49.914063-100.253906-49.875-65.566406.058594-119.3125 50.425781-124.898438 114.589844-.378906 4.355468-3.710937 7.925781-8.0625 8.382812-44.0625 4.632812-78.3867185 41.929688-78.347656 87.25.0429688 48.425781 39.300781 87.644531 87.6875 87.601562l347.621094-.269531 35.402344-.027343c19.597656-35.222657 30.785156-75.777344 30.824218-118.949219.015625-19.394531-2.222656-38.261719-6.460937-56.359375zm0 0" fill="#aef7ff"/><g fill="#5dc1d8"><path d="m64.25 293.003906c-.039062-40.84375 29.253906-74.84375 67.96875-82.085937 7.984375-1.492188 13.929688-8.109375 15.121094-16.144531 8.550781-57.59375 58.101562-101.8125 118.035156-101.863282 1.308594-.003906 2.613281.019532 3.910156.0625-17.347656-9.039062-37.066406-14.152344-57.976562-14.132812-65.585938.058594-119.34375 50.457031-124.90625 114.644531-.375 4.335937-3.726563 7.871094-8.054688 8.328125-44.0625 4.632812-78.3867185 41.929688-78.347656 87.25.0429688 48.425781 39.300781 87.644531 87.683594 87.601562l60.027344-.277343c-46.054688.039062-83.421876-37.289063-83.460938-83.382813zm0 0"/><path d="m126.121094 512c-.957032 0-1.929688-.183594-2.871094-.574219-3.828125-1.585937-5.648438-5.976562-4.0625-9.808593l41.039062-99.09375c1.585938-3.832032 5.980469-5.648438 9.808594-4.066407 3.832032 1.585938 5.652344 5.980469 4.0625 9.808594l-41.039062 99.097656c-1.195313 2.890625-3.992188 4.636719-6.9375 4.636719zm0 0"/><path d="m199.191406 512c-.957031 0-1.929687-.183594-2.871094-.574219-3.828124-1.585937-5.648437-5.976562-4.0625-9.808593l41.039063-99.09375c1.585937-3.832032 5.980469-5.648438 9.808594-4.066407 3.832031 1.585938 5.652343 5.980469 4.066406 9.808594l-41.042969 99.097656c-1.195312 2.890625-3.988281 4.636719-6.9375 4.636719zm0 0"/><path d="m272.261719 512c-.957031 0-1.929688-.183594-2.867188-.574219-3.832031-1.585937-5.652343-5.976562-4.066406-9.808593l41.039063-99.09375c1.589843-3.832032 5.980468-5.648438 9.808593-4.066407 3.832031 1.585938 5.652344 5.980469 4.066407 9.808594l-41.039063 99.097656c-1.199219 2.890625-3.992187 4.636719-6.941406 4.636719zm0 0"/><path d="m345.335938 512c-.960938 0-1.933594-.183594-2.871094-.574219-3.832032-1.585937-5.652344-5.976562-4.066406-9.808593l41.042968-99.09375c1.585938-3.832032 5.976563-5.648438 9.808594-4.066407 3.828125 1.585938 5.648438 5.980469 4.0625 9.808594l-41.039062 99.097656c-1.199219 2.890625-3.992188 4.636719-6.9375 4.636719zm0 0"/></g><path d="m174.101562 408.265625c1.585938-3.828125-.234374-8.21875-4.066406-9.808594-3.828125-1.582031-8.21875.234375-9.808594 4.066407l-17.355468 41.910156h16.25zm0 0" fill="#399faa"/><path d="m247.171875 408.265625c1.585937-3.828125-.234375-8.21875-4.0625-9.808594-3.832031-1.582031-8.222656.234375-9.808594 4.066407l-17.359375 41.910156h16.25zm0 0" fill="#399faa"/><path d="m320.242188 408.265625c1.585937-3.828125-.230469-8.21875-4.0625-9.808594-3.832032-1.582031-8.222657.234375-9.808594 4.066407l-17.359375 41.910156h16.253906zm0 0" fill="#399faa"/><path d="m393.3125 408.265625c1.585938-3.828125-.230469-8.21875-4.0625-9.808594-3.832031-1.582031-8.222656.234375-9.808594 4.066407l-17.355468 41.910156h16.25zm0 0" fill="#399faa"/></svg>