<svg height="512pt" viewBox="-1 0 512 512.00084" width="512pt" xmlns="http://www.w3.org/2000/svg"><path d="m501.039062 256.941406c0-135.367187-109.644531-245.105468-244.894531-245.105468-135.253906 0-244.898437 109.738281-244.898437 245.105468 0 135.371094 109.644531 245.109375 244.898437 245.109375 135.25 0 244.894531-109.738281 244.894531-245.109375zm0 0" fill="#393991"/><path d="m507.425781 156.054688c-.011719.007812-.027343.015624-.042969.019531-39.257812 18.761719-86.214843 2.480469-105.519531-36.347657-19.347656-38.917968-3.652343-86.578124 35.066407-106.308593 5.210937-2.65625 10.570312-4.675781 15.992187-6.101563 1.289063-.339844 1.332031-2.148437.0625-2.550781-20.417969-6.4375-42.984375-6.582031-64.683594.972656-53.769531 18.722657-82.390625 78.976563-62.890625 132.476563.433594 1.183594.890625 2.351562 1.359375 3.507812 5.054688-1.148437 10.3125-1.761718 15.710938-1.765625 34.167969-.03125 62.714843 24.085938 69.550781 56.246094.878906 4.132813 3.378906 7.574219 6.757812 9.675781 12.835938.421875 25.960938-1.5625 38.757813-6.253906 22.191406-8.132812 39.890625-23.105469 51.59375-41.664062.710937-1.132813-.503906-2.484376-1.714844-1.90625zm0 0" fill="#fdd33a"/><path d="m431.941406 183.160156c-7.871094-31.300781-33.886718-55.359375-66.199218-60.34375-.410157-1.019531-.808594-2.042968-1.1875-3.085937-15.679688-43.015625-.246094-90.394531 34.355468-117.042969h-.003906c-1.4375.332031-2.871094.703125-4.300781 1.101562-.46875.128907-.941407.253907-1.410157.394532-.503906.144531-1.011718.300781-1.515624.457031-1.128907.347656-2.253907.707031-3.378907 1.097656-.8125.28125-1.621093.578125-2.421875.878907-.265625.101562-.527344.207031-.792968.308593-.535157.207031-1.066407.414063-1.597657.625-.3125.128907-.621093.261719-.933593.390625-.472657.199219-.949219.398438-1.417969.601563-.328125.144531-.65625.292969-.984375.4375-.445313.203125-.890625.402343-1.332032.609375-.335937.152344-.667968.3125-1 .472656-.429687.207031-.859374.414062-1.285156.625-.335937.164062-.667968.335938-1 .503906-.417968.214844-.832031.425782-1.246094.644532-.332031.175781-.664062.355468-.996093.535156-.40625.222656-.808594.441406-1.210938.667968-.332031.1875-.660156.371094-.988281.5625-.394531.226563-.792969.457032-1.183594.691407-.328125.191406-.652344.386719-.972656.582031-.390625.238281-.78125.480469-1.167969.722656-.316406.199219-.632812.398438-.949219.601563-.386718.246093-.769531.5-1.148437.753906-.3125.203125-.621094.410156-.929687.617187-.378907.257813-.757813.519532-1.132813.785157-.304687.210937-.605469.417969-.90625.632812-.378906.273438-.757813.550781-1.132813.828125-.285156.210938-.574218.417969-.859374.632813-.394532.292969-.78125.597656-1.171876.898437-.261718.203125-.527343.402344-.785156.605469-.457031.363281-.90625.730469-1.355468 1.097656-.257813.210938-.515626.421875-.773438.636719-.542969.453125-1.085938.914062-1.621094 1.378906-.265625.230469-.523437.46875-.785156.699219-.347656.308594-.695312.617187-1.039062.929687-.285157.261719-.566407.527344-.847657.792969-.3125.292969-.625.582031-.933593.875-.289063.277344-.570313.558594-.859376.839844-.292968.289063-.589843.578125-.878906.871094-.289062.289062-.574218.582031-.859375.878906-.277343.285156-.558593.574219-.832031.863281-.289062.304688-.574219.609375-.855469.917969-.265625.285156-.53125.574219-.792969.859375-.285156.316406-.566406.632812-.847656.949219-.253906.289062-.507812.578125-.757812.867187-.28125.324219-.558594.652344-.835938.980469-.242187.285156-.480468.574219-.722656.867187-.277344.335938-.550781.675782-.824219 1.015626-.230469.285156-.457031.570312-.683593.859374-.273438.351563-.546876.699219-.816407 1.054688-.214843.28125-.429687.566406-.640625.847656-.273437.367188-.546875.730469-.816406 1.097656-.195312.273438-.390625.546876-.589844.824219-.273437.382813-.546875.765625-.816406 1.15625-.175781.253907-.347656.507813-.523438.765625-.28125.410156-.5625.824219-.835937 1.242188-.140625.210937-.277344.429687-.417969.644531-.300781.460937-.601562.925781-.894531 1.390625-.039063.066406-.078125.128906-.117187.191406-1.160157 1.859375-2.261719 3.75-3.300782 5.671875-.039062.078125-.082031.148438-.121094.226563-.289062.53125-.566406 1.066406-.84375 1.601562-.089843.179688-.183593.351563-.273437.527344-.253906.503906-.503906 1.011719-.75 1.519531-.105469.210938-.210937.421875-.3125.636719-.238281.496094-.46875.996094-.699219 1.496094-.105468.222656-.207031.449218-.3125.671875-.222656.5-.441406 1-.660156 1.5-.097656.230469-.199219.460937-.300781.691406-.210938.503906-.421875 1.007813-.628907 1.515625-.089843.230469-.1875.460938-.277343.6875-.203125.515625-.402344 1.027344-.601563 1.542969-.085937.226562-.167968.453125-.253906.679687-.195312.523438-.386719 1.050782-.574219 1.578125-.078125.214844-.152343.429688-.226562.644531-.1875.542969-.375 1.089844-.554688 1.636719-.0625.195313-.125.386719-.1875.582031-.183593.570313-.363281 1.140626-.539062 1.714844-.050781.164063-.097657.328125-.144531.492188-.183594.605468-.359376 1.214844-.53125 1.828125-.03125.105469-.058594.210937-.085938.316406-1.417969 5.148437-2.441406 10.414063-3.054688 15.753906-.003906.042969-.007812.085938-.015624.128907-.078126.699218-.148438 1.402343-.210938 2.105468-.011719.097656-.019531.195313-.03125.292969-.058594.671875-.109375 1.347656-.15625 2.023437-.011719.125-.019531.25-.027344.378907-.042968.660156-.082031 1.324219-.109375 1.988281-.007812.136719-.015625.273438-.019531.410156-.027344.65625-.050781 1.316406-.066406 1.976563 0 .140625-.003906.28125-.007813.421875-.011719.660156-.019531 1.324218-.019531 1.984375 0 .136719.003906.273437.003906.410156.003906.671875.011719 1.34375.027344 2.015625.003906.117188.007812.234375.011719.351562.019531.695313.042969 1.386719.078125 2.082032.003906.082031.007812.164062.011718.246094.039063.730468.082032 1.464843.136719 2.199218 0 .015625 0 .027344.003907.042969.40625 5.542969 1.269531 11.097656 2.617187 16.617187.003906.003907.003906.011719.007813.019532.210937.871094.4375 1.742187.671874 2.609375.003907.007812.003907.011719.003907.015625.238281.867187.488281 1.734375.75 2.601562.007812.035156.019531.074219.03125.109375.003906.011719.003906.019531.007812.027344.234375.777344.484375 1.550781.738281 2.328125.039063.117188.074219.234375.113282.351562.292968.875.59375 1.746094.910156 2.617188.433594 1.183594.890625 2.347656 1.359375 3.507812 5.054687-1.148437 10.3125-1.761718 15.710937-1.765624 34.167969-.03125 62.714844 24.085937 69.550782 56.246093.878906 4.132813 3.378906 7.574219 6.757812 9.675781h.003906c.101563 0 .203126 0 .300782.003907.679687.019531 1.363281.035156 2.042968.042969h.101563c.542969.007812 1.085937 0 1.632813-.003907.207031 0 .417968.003907.628906 0 .0625 0 .125 0 .191406-.003906.632812-.007813 1.269531-.027344 1.910156-.046875.089844-.003906.183594-.003906.277344-.007812.09375-.003907.1875-.007813.28125-.011719.570312-.023438 1.144531-.050781 1.714844-.085938.132812-.003906.265625-.011719.398437-.019531.121094-.003906.242188-.011719.367188-.023438.675781-.042968 1.355469-.089843 2.03125-.148437.152343-.011719.304687-.027344.457031-.039063.621094-.054687 1.242188-.117187 1.863281-.183593.03125-.003907.0625-.003907.097657-.007813.179687-.019531.359374-.039062.542968-.0625.625-.070312 1.25-.144531 1.878906-.226562.207032-.027344.417969-.058594.625-.085938.605469-.085937 1.207032-.171875 1.808594-.265625.234375-.039062.46875-.078125.703125-.117187.578125-.09375 1.15625-.191406 1.734375-.296875.261719-.046875.527344-.097657.789063-.148438.550781-.105469 1.105469-.210937 1.65625-.324219.289062-.058593.578125-.125.863281-.1875.527344-.113281 1.058594-.226562 1.585938-.347656.3125-.074218.625-.152344.941406-.230468.503906-.121094 1.007812-.242188 1.511718-.371094.34375-.089844.6875-.183594 1.03125-.277344.472657-.128906.949219-.253906 1.417969-.386719.386719-.109375.769531-.226562 1.152344-.339843.433594-.128907.871094-.257813 1.304687-.390626.433594-.132812.863282-.28125 1.292969-.417968.386719-.128906.777344-.25 1.164063-.378906.804687-.273438 1.605468-.554688 2.410156-.851563h.007812c.011719-.003906.023438-.007813.035157-.011719 1.316406-.484375 2.613281-.996094 3.898437-1.527344.5-.203124.988282-.425781 1.480469-.640624.769531-.328126 1.539063-.660157 2.292969-1.007813.625-.285156 1.238281-.589844 1.855468-.886719.597657-.289062 1.195313-.578125 1.785157-.878906.695312-.351562 1.382812-.71875 2.070312-1.089844.480469-.257812.960938-.515625 1.4375-.78125.75-.417968 1.492188-.847656 2.226563-1.285156.382812-.226562.761718-.453125 1.136718-.679688.796876-.488281 1.589844-.984374 2.375-1.488281.28125-.183593.554688-.367187.832032-.550781.851562-.5625 1.699218-1.132812 2.527344-1.71875.167968-.117188.332031-.238281.5-.359375.914062-.652344 1.824218-1.316406 2.71875-2-17.867188 4.195313-35.996094 3.417969-52.738282-1.574219zm0 0" fill="#e8bb2a"/><path d="m494.585938 200.859375c-14.34375.023437-38.960938.058594-54.488282.046875-1.058594 0-2.097656-.117188-3.105468-.316406-6.269532-1.246094-11.289063-6.171875-12.664063-12.640625-7.449219-35.046875-38.554687-61.320313-75.785156-61.289063-9.53125.007813-18.65625 1.746094-27.082031 4.90625-3.679688 1.378906-7.835938.15625-10.207032-2.976562-22.917968-30.300782-59.257812-49.867188-100.15625-49.828125-65.5.058593-119.191406 50.378906-124.773437 114.476562-.378907 4.351563-3.707031 7.917969-8.050781 8.375-44.019532 4.628907-78.3125005 41.886719-78.273438 87.164063.0429688 48.375 39.265625 87.558594 87.601562 87.515625l347.277344-.269531 35.367188-.027344c19.578125-35.191406 30.753906-75.699219 30.792968-118.832032.019532-19.375-2.21875-38.226562-6.453124-56.304687zm0 0" fill="#aef7ff"/><path d="m64.1875 292.714844c-.039062-40.804688 29.222656-74.769532 67.902344-82.003906 7.976562-1.492188 13.914062-8.101563 15.105468-16.128907 8.539063-57.539062 58.046876-101.710937 117.917969-101.765625 1.308594 0 2.609375.023438 3.90625.0625-17.332031-9.027344-37.027343-14.136718-57.921875-14.117187-65.519531.058593-119.222656 50.40625-124.777344 114.53125-.375 4.332031-3.726562 7.863281-8.046874 8.320312-44.019532 4.628907-78.3125005 41.886719-78.273438 87.164063.0429688 48.375 39.261719 87.558594 87.597656 87.515625l59.964844-.277344c-46.003906.039063-83.335938-37.253906-83.375-83.300781zm0 0" fill="#5dc1d8"/><path d="m174.644531 388.949219h-38.851562c-2.25 0-4.222657 1.5-4.820313 3.667969l-14.964844 54.1875-.589843 2.109374c-.359375 1.332032-.503907 2.757813-.394531 4.226563.484374 6.597656 6.226562 11.585937 12.847656 11.585937h21.125c3.492187 0 5.910156 3.488282 4.679687 6.757813l-10.734375 28.5625c-1.578125 4.183594.214844 9.007813 4.363282 11.066406 4.332031 2.144531 9.597656.238281 11.886718-4.015625l26.800782-49.792968c.90625-1.699219 1.449218-3.691407 1.449218-5.753907 0-6.707031-5.4375-12.144531-12.144531-12.144531h-13.175781c-4.761719 0-7.601563-5.304688-4.957032-9.265625 0 0 13.992188-21.5625 21.683594-33.488281 2.144532-3.324219-.246094-7.703125-4.203125-7.703125zm0 0" fill="#fdd33a"/><path d="m158.941406 489.046875 10.796875-28.730469c1.199219-3.1875-1.15625-6.589844-4.566406-6.589844h-21.300781c-6.621094 0-12.363282-4.988281-12.847656-11.585937-.109376-1.46875.035156-2.890625.394531-4.222656l.585937-2.113281 12.941406-46.855469h-9.15625c-2.246093 0-4.21875 1.5-4.820312 3.667969l-14.964844 54.1875-.585937 2.113281c-.359375 1.332031-.503907 2.753906-.398438 4.222656.488281 6.597656 6.230469 11.585937 12.847657 11.585937h21.128906c3.492187 0 5.90625 3.488282 4.679687 6.757813l-10.734375 28.5625c-1.578125 4.183594.214844 9.007813 4.363282 11.066406 4.328124 2.148438 9.59375.242188 11.886718-4.015625l3.839844-7.136718c-3.945312-2.132813-5.632812-6.824219-4.089844-10.914063zm0 0" fill="#e8bb2a"/><path d="m279.640625 388.949219h-38.851563c-2.246093 0-4.21875 1.5-4.820312 3.667969l-14.964844 54.1875-.585937 2.109374c-.359375 1.332032-.503907 2.757813-.398438 4.226563.484375 6.597656 6.230469 11.585937 12.847657 11.585937h21.125c3.496093 0 5.910156 3.488282 4.683593 6.757813l-10.738281 28.5625c-1.574219 4.183594.21875 9.007813 4.367188 11.066406 4.328124 2.144531 9.59375.238281 11.886718-4.015625l26.796875-49.792968c.910157-1.699219 1.453125-3.691407 1.453125-5.753907 0-6.707031-5.4375-12.144531-12.144531-12.144531h-13.175781c-4.761719 0-7.601563-5.304688-4.960938-9.265625 0 0 13.996094-21.5625 21.6875-33.488281 2.144532-3.324219-.246094-7.703125-4.207031-7.703125zm0 0" fill="#fdd33a"/><path d="m263.9375 489.046875 10.800781-28.730469c1.195313-3.1875-1.160156-6.589844-4.566406-6.589844h-21.304687c-6.617188 0-12.363282-4.988281-12.847657-11.585937-.105469-1.46875.039063-2.890625.398438-4.222656l.585937-2.113281 12.941406-46.855469h-9.15625c-2.25 0-4.222656 1.5-4.820312 3.667969l-14.964844 54.1875-.585937 2.113281c-.359375 1.332031-.507813 2.753906-.398438 4.222656.484375 6.597656 6.230469 11.585937 12.847657 11.585937h21.125c3.492187 0 5.910156 3.488282 4.679687 6.757813l-10.734375 28.5625c-1.578125 4.183594.21875 9.007813 4.367188 11.066406 4.328124 2.148438 9.59375.242188 11.882812-4.015625l3.84375-7.136718c-3.949219-2.132813-5.632812-6.824219-4.09375-10.914063zm0 0" fill="#e8bb2a"/><path d="m383.640625 388.949219h-38.851563c-2.25 0-4.222656 1.5-4.820312 3.667969l-14.964844 54.1875-.585937 2.109374c-.359375 1.332032-.507813 2.757813-.398438 4.226563.484375 6.597656 6.230469 11.585937 12.847657 11.585937h21.125c3.492187 0 5.910156 3.488282 4.679687 6.757813l-10.734375 28.5625c-1.578125 4.183594.21875 9.007813 4.367188 11.066406 4.328124 2.144531 9.59375.238281 11.882812-4.015625l26.800781-49.792968c.90625-1.699219 1.449219-3.691407 1.449219-5.753907 0-6.707031-5.4375-12.144531-12.140625-12.144531h-13.175781c-4.761719 0-7.601563-5.304688-4.960938-9.265625 0 0 13.996094-21.5625 21.683594-33.488281 2.148438-3.324219-.242188-7.703125-4.203125-7.703125zm0 0" fill="#fdd33a"/><path d="m367.9375 489.046875 10.796875-28.730469c1.199219-3.1875-1.15625-6.589844-4.5625-6.589844h-21.304687c-6.617188 0-12.363282-4.988281-12.847657-11.585937-.109375-1.46875.039063-2.890625.398438-4.222656l.585937-2.113281 12.941406-46.855469h-9.15625c-2.25 0-4.222656 1.5-4.820312 3.667969l-14.964844 54.1875-.585937 2.113281c-.363281 1.332031-.507813 2.753906-.398438 4.222656.484375 6.597656 6.226563 11.585937 12.847657 11.585937h21.125c3.492187 0 5.910156 3.488282 4.679687 6.757813l-10.734375 28.5625c-1.578125 4.183594.214844 9.007813 4.363281 11.066406 4.332031 2.148438 9.597657.242188 11.886719-4.015625l3.84375-7.136718c-3.949219-2.132813-5.636719-6.824219-4.09375-10.914063zm0 0" fill="#e8bb2a"/></svg>