<svg height="512pt" viewBox="0 0 512 512" width="512pt" xmlns="http://www.w3.org/2000/svg"><path d="m512 256c0 141.386719-114.613281 256-256 256s-256-114.613281-256-256 114.613281-256 256-256 256 114.613281 256 256zm0 0" fill="#3f6dc9"/><path d="m109.535156 225.546875c-1.089844 4.035156-1.675781 8.277344-1.675781 12.65625-.023437 26.707031 22.6875 48.554687 49.398437 48.554687h110.21875l-51.398437 136.75c-5.972656 15.84375.542969 34.054688 15.863281 42.300782 16.691406 8.984375 37.507813 2.734375 46.492188-13.957032l104.316406-193.824218c3.515625-6.585938 5.617188-14.292969 5.617188-22.28125 0-25.960938-21.046876-47.007813-47.011719-47.007813h-63.726563c-13 0-20.75-14.488281-13.539062-25.304687l94.65625-141.960938c-31.453125-13.796875-66.199219-21.472656-102.746094-21.472656-31.109375 0-60.917969 5.554688-88.5 15.714844l-55.695312 201.65625zm0 0" fill="#fdd33a"/><path d="m270.9375 385.371094 41.4375-110.253906c4.816406-12.816407-4.65625-26.496094-18.347656-26.496094h-81.914063c-26.707031 0-49.417969-21.847656-49.398437-48.554688.003906-4.378906.585937-8.621094 1.675781-12.65625l2.273437-8.175781 48.609376-176.003906c-16.503907 2.640625-32.480469 6.851562-47.773438 12.484375l-55.695312 201.65625-2.269532 8.175781c-1.089844 4.035156-1.675781 8.277344-1.675781 12.65625-.023437 26.707031 22.6875 48.554687 49.398437 48.554687h110.21875l-51.398437 136.75c-5.921875 15.710938.4375 33.75 15.480469 42.089844 16.722656 9.269532 38.15625 2.445313 47.21875-14.390625l11.746094-21.820312c-1.257813-.496094-2.503907-1.0625-3.726563-1.71875-15.316406-8.242188-21.832031-26.453125-15.859375-42.296875zm0 0" fill="#e8bb2a"/></svg>