<svg height="512pt" viewBox="0 -6 512 512" width="512pt" xmlns="http://www.w3.org/2000/svg"><path d="m500.417969 250.210938c0 138.183593-112.023438 250.207031-250.207031 250.207031-138.1875 0-250.210938-112.023438-250.210938-250.207031 0-138.1875 112.023438-250.210938 250.210938-250.210938 138.183593 0 250.207031 112.023438 250.207031 250.210938zm0 0" fill="#3f6dc9"/><path d="m451.234375 144c-25.207031 0-48.082031 15.855469-56.917969 39.457031-2.96875 7.921875 1.050782 16.75 8.972656 19.71875 7.925782 2.964844 16.75-1.050781 19.71875-8.976562 4.382813-11.699219 15.726563-19.5625 28.226563-19.5625 16.613281 0 30.128906 13.515625 30.128906 30.125 0 16.613281-13.515625 30.128906-30.128906 30.128906h-332.421875c-8.457031 0-15.316406 6.859375-15.316406 15.320313 0 8.457031 6.859375 15.316406 15.316406 15.316406h332.421875c33.507813 0 60.765625-27.257813 60.765625-60.765625 0-33.503907-27.257812-60.761719-60.765625-60.761719zm0 0" fill="#5dc1d8"/><path d="m296.003906 303.316406h-290.335937c2.261719 10.472656 5.179687 20.699219 8.710937 30.636719h281.625c16.609375 0 30.125 13.515625 30.125 30.128906 0 16.609375-13.515625 30.125-30.125 30.125-12.503906 0-23.847656-7.859375-28.230468-19.5625-2.964844-7.921875-11.792969-11.941406-19.71875-8.976562-7.921876 2.96875-11.9375 11.796875-8.972657 19.71875 8.839844 23.601562 31.714844 39.457031 56.921875 39.457031 33.503906 0 60.765625-27.257812 60.765625-60.761719 0-33.507812-27.261719-60.765625-60.765625-60.765625zm0 0" fill="#fff"/><path d="m356.769531 136.339844c0-33.507813-27.261719-60.765625-60.765625-60.765625-25.207031 0-48.082031 15.855469-56.921875 39.457031-2.964843 7.921875 1.050781 16.75 8.972657 19.71875 7.925781 2.964844 16.753906-1.050781 19.71875-8.972656 4.382812-11.703125 15.726562-19.566406 28.230468-19.566406 16.609375 0 30.125 13.515624 30.125 30.128906 0 16.609375-13.515625 30.125-30.125 30.125h-281.625c-3.53125 9.941406-6.449218 20.167968-8.710937 30.640625h290.335937c33.503906 0 60.765625-27.261719 60.765625-60.765625zm0 0" fill="#fff"/><g fill="#ddd"><path d="m5.667969 303.316406c2.261719 10.472656 5.179687 20.699219 8.710937 30.636719h70.042969c-4.933594-9.75-9.027344-19.996094-12.199219-30.636719zm0 0"/><path d="m14.378906 166.464844c-3.53125 9.941406-6.449218 20.167968-8.710937 30.640625h66.554687c3.171875-10.644531 7.265625-20.890625 12.199219-30.640625zm0 0"/></g></svg>