<svg height="512pt" viewBox="0 0 512 512" width="512pt" xmlns="http://www.w3.org/2000/svg"><path d="m512 256c0 141.386719-114.613281 256-256 256s-256-114.613281-256-256 114.613281-256 256-256 256 114.613281 256 256zm0 0" fill="#5dc1d8"/><path d="m455.167969 243.054688h-19.914063-.003906-35.964844l33.039063-33.039063c5.054687-5.058594 5.054687-13.253906 0-18.308594-5.054688-5.058593-13.25-5.058593-18.308594 0l-51.347656 51.347657h-77.648438l45.234375-45.238282h63.753906c6.277344 0 11.367188-5.089844 11.367188-11.367187 0-6.277344-5.089844-11.363281-11.367188-11.363281h-41.019531l34.691407-34.691407c4.4375-4.441406 4.4375-11.636719 0-16.074219s-11.636719-4.4375-16.074219 0l-34.691407 34.691407v-41.023438c0-6.273437-5.089843-11.363281-11.367187-11.363281s-11.363281 5.089844-11.363281 11.363281v63.753907l-45.238282 45.238281v-77.648438l51.347657-51.351562c5.054687-5.054688 5.054687-13.25 0-18.308594-5.058594-5.054687-13.253907-5.054687-18.308594 0l-33.039063 33.042969v-55.882813c0-7.148437-5.796874-12.945312-12.949218-12.945312-7.148438 0-12.945313 5.796875-12.945313 12.945312v19.914063.003906 35.964844l-33.039062-33.039063c-5.054688-5.054687-13.253907-5.054687-18.308594 0-5.054687 5.054688-5.054687 13.25 0 18.308594l51.347656 51.347656v77.648438l-45.238281-45.234375v-63.757813c0-6.273437-5.085938-11.363281-11.363281-11.363281-6.277344 0-11.367188 5.089844-11.367188 11.363281v41.023438l-34.691406-34.691407c-4.4375-4.4375-11.632813-4.4375-16.070313 0-4.441406 4.4375-4.441406 11.632813 0 16.074219l34.691407 34.691407h-41.023438c-6.273437 0-11.363281 5.089843-11.363281 11.363281 0 6.277343 5.089844 11.367187 11.363281 11.367187h63.753907l45.238281 45.238282h-77.648438l-51.351562-51.347657c-5.054688-5.058593-13.25-5.058593-18.308594 0-5.054687 5.054688-5.054687 13.25 0 18.308594l33.042969 33.039063h-55.882813c-7.148437 0-12.945312 5.796874-12.945312 12.945312s5.796875 12.945312 12.945312 12.945312h19.914063.003906 35.964844l-33.039063 33.039063c-5.054687 5.058594-5.054687 13.253906 0 18.308594 5.054688 5.058593 13.25 5.058593 18.308594 0l51.347656-51.347657h77.648438l-45.234375 45.238282h-63.757813c-6.273437 0-11.363281 5.089844-11.363281 11.367187 0 6.277344 5.089844 11.363281 11.363281 11.363281h41.023438l-34.691407 34.691407c-4.4375 4.441406-4.4375 11.636719 0 16.074219s11.632813 4.4375 16.074219 0l34.691407-34.691407v41.023438c0 6.273437 5.089843 11.363281 11.363281 11.363281 6.277343 0 11.367187-5.089844 11.367187-11.363281v-63.753907l45.238282-45.238281v77.648438l-51.347657 51.351562c-5.058593 5.054688-5.058593 13.25 0 18.308594 5.054688 5.054687 13.25 5.054687 18.308594 0l33.039063-33.042969v55.882813c0 7.152343 5.796874 12.949219 12.945312 12.949219s12.945312-5.796876 12.945312-12.949219v-55.882813l33.039063 33.042969c5.058594 5.054687 13.253906 5.054687 18.308594 0 5.058593-5.058594 5.058593-13.253906 0-18.308594l-51.347657-51.351562v-77.648438l45.238282 45.238281v63.753907c0 6.273437 5.089844 11.363281 11.367187 11.363281 6.277344 0 11.363281-5.089844 11.363281-11.363281v-41.023438l34.691407 34.691407c4.441406 4.4375 11.636719 4.4375 16.074219 0s4.4375-11.632813 0-16.074219l-34.691407-34.691407h41.023438c6.273437 0 11.363281-5.089843 11.363281-11.363281 0-6.277343-5.089844-11.367187-11.363281-11.367187h-63.753907l-45.238281-45.238282h77.648438l51.351562 51.347657c5.054688 5.058593 13.25 5.058593 18.308594 0 5.054687-5.054688 5.054687-13.25 0-18.308594l-33.042969-33.039063h55.882813c7.152343 0 12.949219-5.796874 12.949219-12.945312s-5.800782-12.945312-12.949219-12.945312zm0 0" fill="#fff"/><g fill="#ddd"><path d="m197.816406 181.742188v-63.753907c0-6.273437-5.089844-11.363281-11.367187-11.363281-6.277344 0-11.363281 5.089844-11.363281 11.363281v41.023438l-34.691407-34.691407c-4.441406-4.4375-11.636719-4.4375-16.074219 0s-4.4375 11.632813 0 16.074219l34.691407 34.691407h-41.023438c-6.273437 0-11.363281 5.089843-11.363281 11.363281 0 6.277343 5.089844 11.367187 11.363281 11.367187h63.753907l11.886718 11.882813c1.898438-8.515625 4.316406-16.839844 7.207032-24.9375zm0 0"/><path d="m268.945312 89.945312v-33.113281c0-7.148437-5.796874-12.945312-12.945312-12.945312s-12.945312 5.796875-12.945312 12.945312v19.914063.003906 35.964844l-33.039063-33.039063c-5.058594-5.054687-13.253906-5.054687-18.308594 0-5.058593 5.054688-5.058593 13.25 0 18.308594l35.71875 35.71875c11.695313-16.492187 25.691407-31.230469 41.519531-43.757813zm0 0"/><path d="m181.742188 314.183594h-63.753907c-6.273437 0-11.363281 5.089844-11.363281 11.363281 0 6.277344 5.089844 11.367187 11.363281 11.367187h41.023438l-34.691407 34.691407c-4.4375 4.4375-4.4375 11.636719 0 16.074219s11.632813 4.4375 16.074219 0l34.691407-34.691407v41.019531c0 6.277344 5.089843 11.367188 11.363281 11.367188 6.277343 0 11.367187-5.089844 11.367187-11.367188v-63.753906l3.019532-3.019531c-2.894532-8.09375-5.308594-16.417969-7.210938-24.9375zm0 0"/><path d="m188.941406 243.054688h-39.609375l-51.351562-51.347657c-5.054688-5.058593-13.25-5.058593-18.308594 0-5.054687 5.054688-5.054687 13.25 0 18.308594l33.042969 33.039063h-55.882813c-7.148437 0-12.945312 5.796874-12.945312 12.945312s5.796875 12.945312 12.945312 12.945312h19.914063.003906 35.964844l-33.039063 33.039063c-5.054687 5.058594-5.054687 13.253906 0 18.308594 5.054688 5.058593 13.25 5.058593 18.308594 0l51.347656-51.347657h39.609375c-.257812-4.28125-.40625-8.597656-.40625-12.945312s.148438-8.664062.40625-12.945312zm0 0"/><path d="m227.425781 378.296875-35.71875 35.722656c-5.054687 5.054688-5.054687 13.25 0 18.308594 5.054688 5.054687 13.25 5.054687 18.308594 0l33.039063-33.042969v55.882813c0 7.152343 5.796874 12.949219 12.945312 12.949219 7.152344 0 12.949219-5.796876 12.949219-12.949219v-33.113281c-15.832031-12.527344-29.828125-27.265626-41.523438-43.757813zm0 0"/></g></svg>