<svg height="512pt" viewBox="0 0 512 512" width="512pt" xmlns="http://www.w3.org/2000/svg"><path d="m512 256c0 141.386719-114.613281 256-256 256s-256-114.613281-256-256 114.613281-256 256-256 256 114.613281 256 256zm0 0" fill="#393991"/><path d="m444.324219 89.675781c-4.4375-.074219-8.863281-1.71875-12.257813-4.921875-8.976562-8.472656-21.304687-13.699218-34.914062-13.699218s-25.941406 5.230468-34.917969 13.703124c-6.925781 6.535157-18.082031 6.535157-25.007813 0-8.976562-8.472656-21.308593-13.703124-34.917968-13.703124s-25.941406 5.230468-34.917969 13.703124c-6.925781 6.535157-18.082031 6.535157-25.007813 0-8.976562-8.472656-21.308593-13.703124-34.917968-13.703124s-25.941406 5.230468-34.917969 13.703124c-6.925781 6.535157-18.082031 6.535157-25.007813 0-8.976562-8.472656-21.308593-13.703124-34.917968-13.703124s-25.941406 5.226562-34.917969 13.699218c-4.355469 4.113282-10.414063 5.652344-16.015625 4.589844-26.085938 30.386719-45.164062 66.957031-54.734375 107.214844 3.347656-.722656 6.8125-1.128906 10.367187-1.160156 13.839844-.121094 26.382813 5.167968 35.46875 13.789062 6.875 6.523438 18.027344 6.414062 24.917969-.089844 8.972657-8.472656 21.304688-13.703125 34.914063-13.703125s25.941406 5.230469 34.917968 13.707031c6.925782 6.535157 18.082032 6.535157 25.007813 0 8.976563-8.476562 21.308594-13.707031 34.917969-13.707031s25.941406 5.230469 34.917968 13.707031c6.925782 6.535157 18.078126 6.535157 25.007813 0 8.976563-8.476562 21.304687-13.707031 34.917969-13.707031 13.609375 0 25.941406 5.230469 34.914062 13.707031 6.929688 6.535157 18.082032 6.535157 25.007813 0 8.980469-8.476562 21.3125-13.707031 34.921875-13.707031s25.9375 5.230469 34.914062 13.703125c6.890625 6.503906 18.042969 6.613282 24.914063.089844 9.085937-8.621094 21.632812-13.910156 35.472656-13.789062 2.082031.015624 4.128906.164062 6.144531.425781 2.25.289062 4.445313.738281 6.589844 1.3125-9.574219-40.683594-28.847656-77.625-55.253906-108.246094-1.820313.542969-3.714844.816406-5.609375.785156zm0 0" fill="#3f6dc9"/><path d="m254.808594 125.757812c-6.503906 0-13.007813-2.347656-18.074219-7.039062-8.09375-7.492188-18.847656-11.617188-30.28125-11.617188s-22.1875 4.125-30.28125 11.617188c-3.179687 2.941406-8.136719 2.75-11.074219-.425781-2.941406-3.175781-2.75-8.132813.425782-11.074219 11-10.183594 25.535156-15.789062 40.929687-15.789062s29.929687 5.605468 40.929687 15.789062c4.027344 3.726562 10.824219 3.726562 14.851563 0 11-10.183594 25.535156-15.789062 40.929687-15.789062 15.394532 0 29.929688 5.605468 40.929688 15.789062 3.179688 2.9375 3.371094 7.898438.429688 11.074219-2.941407 3.175781-7.898438 3.367187-11.074219.425781-8.09375-7.492188-18.851563-11.617188-30.285157-11.617188-11.433593 0-22.1875 4.125-30.28125 11.617188-5.066406 4.691406-11.570312 7.035156-18.074218 7.039062zm0 0" fill="#5d8ddb"/><path d="m492.453125 159.871094c-13.839844-.117188-26.386719 5.171875-35.472656 13.789062-6.871094 6.523438-18.023438 6.414063-24.914063-.089844-8.976562-8.472656-21.304687-13.699218-34.914062-13.699218s-25.941406 5.230468-34.917969 13.703125c-6.925781 6.535156-18.082031 6.535156-25.007813 0-8.976562-8.472657-21.308593-13.703125-34.917968-13.703125s-25.941406 5.230468-34.917969 13.703125c-6.925781 6.535156-18.082031 6.535156-25.007813 0-8.976562-8.472657-21.308593-13.703125-34.917968-13.703125s-25.941406 5.230468-34.917969 13.703125c-6.925781 6.535156-18.082031 6.535156-25.007813 0-8.976562-8.472657-21.308593-13.703125-34.917968-13.703125s-25.941406 5.226562-34.917969 13.699218c-6.886719 6.503907-18.042969 6.613282-24.914063.089844-8.789062-8.335937-20.816406-13.542968-34.117187-13.769531-4.789063 11.8125-8.722656 24.058594-11.71875 36.667969 3.347656-.722656 6.8125-1.128906 10.367187-1.160156 13.839844-.121094 26.382813 5.167968 35.46875 13.789062 6.875 6.523438 18.027344 6.414062 24.917969-.089844 8.972657-8.472656 21.304688-13.703125 34.914063-13.703125s25.941406 5.230469 34.917968 13.707031c6.925782 6.535157 18.082032 6.535157 25.007813 0 8.976563-8.476562 21.308594-13.707031 34.917969-13.707031s25.941406 5.230469 34.917968 13.707031c6.925782 6.535157 18.078126 6.535157 25.007813 0 8.976563-8.476562 21.304687-13.707031 34.917969-13.707031 13.609375 0 25.941406 5.230469 34.914062 13.707031 6.929688 6.535157 18.082032 6.535157 25.007813 0 8.980469-8.476562 21.3125-13.707031 34.921875-13.707031s25.9375 5.230469 34.914062 13.703125c6.890625 6.503906 18.042969 6.613282 24.914063.089844 9.085937-8.621094 21.632812-13.910156 35.472656-13.789062 2.082031.015624 4.128906.164062 6.144531.425781 2.25.289062 4.445313.738281 6.589844 1.3125-3.011719-12.808594-6.996094-25.242188-11.855469-37.230469-.292969-.007812-.582031-.03125-.878906-.035156zm0 0" fill="#2e5faf"/><path d="m502.617188 187.132812c-2.132813-.453124-4.308594-.789062-6.53125-.964843-1.199219-.09375-2.410157-.164063-3.632813-.175781-13.839844-.117188-26.386719 5.171874-35.472656 13.792968-6.871094 6.519532-18.023438 6.410156-24.914063-.089844-8.976562-8.472656-21.304687-13.703124-34.914062-13.703124s-25.941406 5.230468-34.917969 13.703124c-6.925781 6.539063-18.082031 6.539063-25.007813 0-8.976562-8.472656-21.308593-13.703124-34.917968-13.703124s-25.941406 5.230468-34.917969 13.703124c-6.925781 6.539063-18.082031 6.539063-25.007813 0-8.976562-8.472656-21.308593-13.703124-34.917968-13.703124s-25.941406 5.230468-34.917969 13.703124c-6.925781 6.539063-18.082031 6.539063-25.007813 0-8.976562-8.472656-21.308593-13.703124-34.917968-13.703124s-25.941406 5.230468-34.917969 13.703124c-6.886719 6.5-18.042969 6.609376-24.914063.089844-9.085937-8.621094-21.632812-13.910156-35.472656-13.792968-2.65625.023437-5.261718.257812-7.808594.675781-6.1875 22.050781-9.507812 45.300781-9.507812 69.332031 0 19.128906 2.113281 37.757812 6.09375 55.691406 3.609375-.847656 7.367188-1.320312 11.226562-1.355468 13.839844-.117188 26.382813 5.171874 35.46875 13.792968 6.875 6.519532 18.027344 6.410156 24.917969-.09375 8.972657-8.472656 21.304688-13.699218 34.914063-13.699218s25.941406 5.230468 34.917968 13.703124c6.925782 6.539063 18.082032 6.539063 25.007813 0 8.976563-8.472656 21.308594-13.703124 34.917969-13.703124s25.941406 5.230468 34.917968 13.703124c6.925782 6.539063 18.078126 6.539063 25.007813 0 8.976563-8.472656 21.304687-13.703124 34.917969-13.703124 13.609375 0 25.941406 5.230468 34.914062 13.703124 6.929688 6.539063 18.082032 6.539063 25.007813 0 8.980469-8.472656 21.3125-13.703124 34.921875-13.703124s25.9375 5.226562 34.914062 13.699218c6.890625 6.503906 18.042969 6.613282 24.914063.09375 9.085937-8.621094 21.632812-13.914062 35.472656-13.792968 2.496094.023437 4.949219.226562 7.351563.59375 2.039062.3125 4.035156.757812 5.984374 1.308593 4.054688-18.097656 6.210938-36.917969 6.210938-56.238281 0-23.859375-3.277344-46.953125-9.382812-68.867188zm0 0" fill="#5dc1d8"/><path d="m254.808594 240.695312c-6.503906 0-13.007813-2.34375-18.074219-7.035156-8.09375-7.492187-18.847656-11.617187-30.28125-11.617187s-22.1875 4.125-30.28125 11.617187c-3.179687 2.9375-8.136719 2.746094-11.074219-.429687-2.941406-3.175781-2.75-8.132813.425782-11.074219 11-10.179688 25.535156-15.789062 40.929687-15.789062s29.929687 5.609374 40.929687 15.789062c4.027344 3.726562 10.824219 3.726562 14.851563 0 11-10.179688 25.535156-15.789062 40.929687-15.789062 15.394532 0 29.929688 5.609374 40.929688 15.789062 3.179688 2.941406 3.371094 7.898438.429688 11.074219-2.941407 3.175781-7.898438 3.367187-11.074219.429687-8.09375-7.492187-18.851563-11.617187-30.285157-11.617187-11.433593 0-22.1875 4.125-30.28125 11.617187-5.066406 4.6875-11.570312 7.035156-18.074218 7.035156zm0 0" fill="#77dbe5"/><path d="m504.550781 277.492188c-2.445312-.367188-4.949219-.570313-7.492187-.59375-14.113282-.117188-26.90625 5.171874-36.171875 13.792968-7.007813 6.519532-18.378907 6.410156-25.40625-.089844-9.152344-8.472656-21.726563-13.703124-35.601563-13.703124-13.878906 0-26.453125 5.230468-35.609375 13.703124-7.0625 6.539063-18.433593 6.539063-25.5 0-9.152343-8.472656-21.726562-13.703124-35.605469-13.703124-13.878906 0-26.453124 5.230468-35.605468 13.703124-7.0625 6.539063-18.4375 6.539063-25.5 0-9.152344-8.472656-21.726563-13.703124-35.605469-13.703124s-26.453125 5.230468-35.605469 13.703124c-7.066406 6.539063-18.4375 6.539063-25.503906 0-9.152344-8.472656-21.726562-13.703124-35.605469-13.703124-13.875 0-26.449219 5.230468-35.601562 13.703124-7.027344 6.5-18.398438 6.609376-25.40625.089844-9.265625-8.621094-22.058594-13.910156-36.167969-13.792968-3.984375.035156-7.859375.519531-11.585938 1.390624.980469 11.363282 2.699219 22.511719 5.117188 33.402344 3.613281-.847656 7.371094-1.320312 11.226562-1.355468 13.839844-.117188 26.386719 5.171874 35.472657 13.792968 6.871093 6.519532 18.023437 6.410156 24.914062-.09375 8.972657-8.472656 21.304688-13.699218 34.914063-13.699218s25.941406 5.230468 34.917968 13.703124c6.925782 6.539063 18.082032 6.539063 25.007813 0 8.976563-8.472656 21.308594-13.703124 34.917969-13.703124s25.941406 5.230468 34.917968 13.703124c6.925782 6.539063 18.078126 6.539063 25.007813 0 8.976563-8.472656 21.304687-13.703124 34.917969-13.703124 13.609375 0 25.941406 5.230468 34.914062 13.703124 6.929688 6.539063 18.082032 6.539063 25.007813 0 8.980469-8.472656 21.3125-13.703124 34.921875-13.703124s25.9375 5.226562 34.914062 13.699218c6.890625 6.503906 18.042969 6.613282 24.914063.09375 9.085937-8.621094 21.632812-13.914062 35.472656-13.792968 2.496094.023437 4.949219.226562 7.351563.59375 2.039062.3125 4.035156.757812 5.984374 1.308593 2.4375-10.871093 4.175782-22.007812 5.183594-33.351562-2.089844-.589844-4.230468-1.066407-6.421875-1.394531zm0 0" fill="#399faa"/><path d="m507.417969 304.359375c-1.945313-.617187-3.941407-1.121094-5.980469-1.503906-2.917969-.542969-5.917969-.851563-8.984375-.878907-13.839844-.117187-26.386719 5.171876-35.472656 13.789063-6.871094 6.523437-18.023438 6.414063-24.914063-.089844-8.976562-8.46875-21.304687-13.699219-34.914062-13.699219s-25.941406 5.230469-34.917969 13.703126c-6.925781 6.539062-18.082031 6.539062-25.007813 0-8.976562-8.472657-21.308593-13.703126-34.917968-13.703126s-25.941406 5.230469-34.917969 13.703126c-6.925781 6.539062-18.082031 6.539062-25.007813 0-8.976562-8.472657-21.308593-13.703126-34.917968-13.703126s-25.941406 5.230469-34.917969 13.703126c-6.925781 6.539062-18.082031 6.539062-25.007813 0-8.976562-8.472657-21.308593-13.703126-34.917968-13.703126s-25.941406 5.230469-34.917969 13.699219c-6.886719 6.503907-18.042969 6.613281-24.914063.09375-9.085937-8.621093-21.632812-13.910156-35.472656-13.792969-4.4375.039063-8.746094.660157-12.855468 1.765626 9.988281 52.933593 36.261718 100.105468 73.425781 136.113281 8.960937-8.371094 21.214843-13.535157 34.734375-13.535157 13.609375 0 25.941406 5.230469 34.917968 13.703126 6.925782 6.535156 18.082032 6.535156 25.007813 0 8.976563-8.472657 21.308594-13.703126 34.917969-13.703126s25.941406 5.230469 34.917968 13.703126c6.925782 6.535156 18.078126 6.535156 25.007813 0 8.976563-8.472657 21.304687-13.703126 34.917969-13.703126 13.609375 0 25.941406 5.230469 34.914062 13.703126 6.929688 6.535156 18.082032 6.535156 25.007813 0 8.980469-8.472657 21.3125-13.703126 34.921875-13.703126 12.480468 0 23.875 4.40625 32.605468 11.667969.789063.65625 1.566407 1.328125 2.308594 2.03125.324219.304688.664063.582031 1.003906.855469 37.574219-35.996094 64.179688-83.335938 74.347657-136.515625zm0 0" fill="#aef7ff"/><path d="m254.808594 362.949219c-6.503906 0-13.007813-2.34375-18.074219-7.039063-8.09375-7.488281-18.847656-11.613281-30.28125-11.613281s-22.1875 4.125-30.28125 11.613281c-3.179687 2.941406-8.136719 2.75-11.074219-.425781-2.941406-3.175781-2.75-8.132813.425782-11.074219 11-10.183594 25.535156-15.789062 40.929687-15.789062s29.929687 5.605468 40.929687 15.789062c4.027344 3.726563 10.824219 3.726563 14.851563 0 11-10.183594 25.535156-15.789062 40.929687-15.789062 15.394532 0 29.929688 5.605468 40.929688 15.789062 3.179688 2.9375 3.371094 7.898438.429688 11.074219-2.941407 3.175781-7.898438 3.367187-11.074219.425781-8.09375-7.488281-18.851563-11.613281-30.285157-11.613281-11.433593 0-22.1875 4.125-30.28125 11.613281-5.066406 4.691406-11.570312 7.039063-18.074218 7.039063zm0 0" fill="#fff"/></svg>