<svg height="512pt" viewBox="0 0 512 512" width="512pt" xmlns="http://www.w3.org/2000/svg"><path d="m512 256c0 141.386719-114.613281 256-256 256s-256-114.613281-256-256 114.613281-256 256-256 256 114.613281 256 256zm0 0" fill="#393991"/><path d="m255.785156 242.0625c43.621094-.039062 78.945313-35.433594 78.90625-79.054688-.03125-30.949218-39.878906-115.828124-63.019531-162.515624-5.183594-.3125-10.40625-.492188-15.671875-.492188-5.566406 0-11.089844.199219-16.570312.546875-23.054688 46.738281-62.726563 131.667969-62.699219 162.613281.042969 43.617188 35.4375 78.945313 79.054687 78.902344zm0 0" fill="#5dc1d8"/><path d="m219.027344 163.117188c-.027344-28.800782 34.339844-104.367188 57.6875-152.378907-.042969-.085937-.085938-.175781-.128906-.261719-.320313-.65625-.640626-1.308593-.957032-1.953124-.09375-.199219-.191406-.398438-.289062-.59375-.328125-.667969-.652344-1.332032-.976563-1.984376-.074219-.152343-.148437-.304687-.222656-.457031-.320313-.652343-.640625-1.296875-.957031-1.9375-.082032-.171875-.167969-.347656-.253906-.515625-.316407-.640625-.628907-1.277344-.941407-1.90625-.074219-.148437-.148437-.300781-.222656-.449218-.03125-.0625-.0625-.125-.09375-.1875-5.183594-.3125-10.40625-.492188-15.671875-.492188-5.566406 0-11.089844.199219-16.570312.546875-.660157 1.339844-1.335938 2.714844-2.019532 4.113281-.074218.148438-.148437.296875-.21875.445313-.257812.523437-.515625 1.050781-.773437 1.578125-.144531.292968-.285157.582031-.429688.878906-.238281.488281-.480469.980469-.722656 1.476562-.152344.316407-.308594.632813-.464844.953126-.242187.5-.488281 1.003906-.734375 1.511718-.160156.328125-.320312.660156-.484375.992188-.246093.507812-.492187 1.019531-.742187 1.53125-.160156.332031-.320313.667968-.484375 1.003906-.246094.507812-.492188 1.023438-.742188 1.535156-.171875.363282-.347656.730469-.527343 1.097656-.230469.480469-.464844.96875-.699219 1.453126-.199219.414062-.394531.828124-.597657 1.246093-.222656.46875-.449218.941407-.675781 1.417969-.199219.410156-.398437.824219-.597656 1.242188-.230469.488281-.464844.976562-.699219 1.46875-.195312.410156-.394531.824218-.589844 1.238281-.242187.503906-.480468 1.007812-.71875 1.511719-.195312.40625-.386718.816406-.578124 1.222656-.246094.515625-.488282 1.03125-.734376 1.550781-.199218.417969-.398437.84375-.597656 1.265625-.242187.511719-.480468 1.019531-.722656 1.535156-.199219.421875-.398438.847656-.597656 1.273438-.246094.523437-.492188 1.042968-.738282 1.570312-.21875.46875-.4375.9375-.65625 1.40625-.222656.480469-.449218.957032-.671874 1.441406-.441407.941407-.882813 1.890626-1.324219 2.84375-.160157.347657-.320313.695313-.480469 1.042969-.292969.628907-.582031 1.257813-.875 1.890625-.1875.410156-.375.820313-.566406 1.230469-.257813.566406-.519532 1.136719-.78125 1.707031-.210938.453125-.417969.914063-.628906 1.371094-.238282.523438-.480469 1.046875-.71875 1.574219-.21875.480469-.4375.960937-.65625 1.445312-.234376.511719-.464844 1.023438-.699219 1.539063-.214844.472656-.429688.945312-.640625 1.417968-.242188.535157-.484375 1.066407-.722656 1.601563-.210938.46875-.421876.9375-.632813 1.40625-.238281.53125-.476563 1.0625-.714844 1.59375-.210937.46875-.417969.9375-.628906 1.40625-.242187.546875-.484375 1.09375-.726563 1.640625-.203124.457031-.40625.914062-.609374 1.371094-.25.558594-.496094 1.121094-.742188 1.679687-.199219.449219-.394531.898438-.59375 1.347657-.246094.554687-.488281 1.113281-.734375 1.671874-.203125.460938-.40625.925782-.609375 1.390626-.242188.558593-.484375 1.117187-.730469 1.675781-.191406.445312-.386719.890625-.578125 1.332031-.25.574219-.496094 1.148438-.742187 1.722656-.191407.445313-.382813.890625-.574219 1.332032-.25.582031-.496094 1.160156-.742188 1.738281-.183593.429687-.367187.859375-.550781 1.289062-.265625.621094-.527343 1.242188-.789062 1.859375-.164063.386719-.328125.773438-.492188 1.164063-.304687.726562-.609375 1.453125-.914062 2.179687-.117188.277344-.234375.558594-.351563.835938-.421875 1.003906-.835937 2.011718-1.25 3.011718-.082031.195313-.160156.386719-.238281.582032-.332031.796875-.664063 1.597656-.988281 2.398437-.152344.371094-.304688.746094-.457032 1.117188-.253906.625-.507812 1.25-.757812 1.871093-.164062.398438-.320312.792969-.480469 1.191407-.238281.589843-.476562 1.183593-.714843 1.773437-.160157.40625-.320313.808594-.480469 1.214844-.234375.582031-.464844 1.164062-.691407 1.742188-.164062.410156-.324218.820312-.484374 1.226562-.21875.5625-.4375 1.125-.65625 1.683594-.167969.425781-.332032.851562-.496094 1.273437-.207032.546875-.417969 1.085938-.625 1.628907-.164063.421874-.324219.84375-.484375 1.265624-.203125.535157-.40625 1.070313-.609375 1.601563-.160156.429687-.320313.855469-.480469 1.28125-.195313.523437-.390625 1.042969-.582031 1.5625-.160156.425781-.316406.847656-.46875 1.265625-.195313.527344-.386719 1.046875-.574219 1.570312-.152344.410157-.300781.824219-.449219 1.230469-.191406.523438-.375 1.039063-.5625 1.558594-.144531.402344-.289062.808594-.429687 1.210937-.183594.519532-.367188 1.035157-.546875 1.550782-.136719.390625-.277344.785156-.414063 1.175781-.179687.527344-.359375 1.046875-.535156 1.566406-.128906.375-.261719.75-.386719 1.125-.183594.542969-.363281 1.082031-.542968 1.621094-.117188.339844-.230469.683594-.34375 1.023437-.195313.589844-.386719 1.175782-.574219 1.757813-.09375.28125-.1875.566406-.277344.847656-.273437.855469-.546875 1.707031-.808594 2.546875-.039062.128906-.074219.253906-.117187.382813-.21875.710937-.4375 1.417969-.648438 2.117187-.089844.292969-.171875.578125-.257812.867188-.160156.535156-.320313 1.066406-.472656 1.59375-.09375.3125-.179688.621094-.269532.933594-.140625.492187-.28125.984374-.417968 1.46875-.089844.328124-.179688.652343-.269532.980468-.125.453125-.25.910156-.367187 1.359375-.089844.335938-.179688.671875-.265625 1.003907-.109375.429687-.222656.859374-.328125 1.28125-.085938.335937-.167969.667968-.25 1-.101563.414062-.203125.820312-.300781 1.226562-.078126.335938-.152344.664062-.230469.992188-.089844.394531-.179688.785156-.265625 1.171874-.074219.324219-.144532.648438-.210938.96875-.085937.382813-.164062.761719-.238281 1.140626-.066406.3125-.128906.625-.191406.933593-.070313.371094-.140625.738281-.207031 1.105469-.054688.300781-.113282.601562-.164063.894531-.066406.367188-.125.722657-.183594 1.082031-.046875.285157-.09375.574219-.136719.855469-.054687.351563-.105468.699219-.152343 1.042969-.039063.273438-.078125.546875-.113281.816406-.046876.347656-.082032.683594-.121094 1.019532-.03125.257812-.0625.515624-.085938.765624-.035156.347657-.0625.679688-.09375 1.015626-.019531.230468-.042968.464843-.058594.691406-.027343.363281-.042968.714844-.058593 1.066406-.011719.183594-.023438.375-.03125.558594-.019531.507812-.03125 1.003906-.03125 1.488281v.050781c0 1.328125.039062 2.648438.105469 3.960938.003906.136718.015624.277344.023437.414062.207031 3.726563.679687 7.378906 1.382813 10.953125.550781 2.769531 1.230468 5.496094 2.058593 8.15625.773438 2.472657 1.664063 4.894531 2.664063 7.253907 1 2.363281 2.113281 4.664062 3.332031 6.902343s2.542969 4.40625 3.960937 6.507813c11.371094 16.796875 29.035157 28.980468 49.605469 33.171875 5.144531 1.046875 10.46875 1.59375 15.921875 1.589843h.007813c1.1875-.003906 2.367187-.042968 3.542969-.09375.359374-.019531.722656-.035156 1.082031-.058593.898437-.054688 1.789062-.125 2.679687-.207031.582032-.054688 1.160156-.113282 1.738282-.183594.707031-.082032 1.414062-.167969 2.113281-.269532.644531-.09375 1.289062-.195312 1.929687-.300781.332032-.058593.667969-.121093 1-.179687 2.386719-.4375 4.742188-.972656 7.050782-1.617188-33.355469-9.21875-57.867188-39.75-57.902344-76.042968zm0 0" fill="#399faa"/><path d="m200.140625 400.183594c.042969 43.617187-35.285156 79.011718-78.902344 79.054687-43.621093.039063-79.015625-35.289062-79.058593-78.90625-.03125-32.984375 45.042968-127.296875 67.023437-171.324219 4.855469-9.722656 18.71875-9.738281 23.59375-.023437 22.0625 43.988281 67.3125 138.214844 67.34375 171.199219zm0 0" fill="#5dc1d8"/><path d="m84.476562 400.289062c-.027343-28.800781 34.339844-104.367187 57.691407-152.378906-3.40625-6.964844-6.574219-13.347656-9.371094-18.925781-4.875-9.714844-18.738281-9.699219-23.589844.023437-21.980469 44.027344-67.054687 138.339844-67.023437 171.324219.039062 43.617188 35.433594 78.945313 79.054687 78.90625 7.328125-.007812 14.414063-1.035156 21.144531-2.90625-33.355468-9.21875-57.871093-39.75-57.90625-76.042969zm0 0" fill="#399faa"/><path d="m476.082031 400.183594c.042969 43.617187-35.285156 79.011718-78.90625 79.054687-43.617187.039063-79.011719-35.289062-79.054687-78.90625-.03125-32.984375 45.042968-127.296875 67.023437-171.324219 4.855469-9.722656 18.71875-9.738281 23.589844-.023437 22.066406 43.988281 67.316406 138.214844 67.347656 171.199219zm0 0" fill="#5dc1d8"/><path d="m360.417969 400.289062c-.027344-28.800781 34.339843-104.367187 57.691406-152.378906-3.40625-6.964844-6.574219-13.347656-9.371094-18.925781-4.875-9.714844-18.738281-9.699219-23.59375.023437-21.980469 44.027344-67.050781 138.339844-67.019531 171.324219.039062 43.617188 35.433594 78.945313 79.054688 78.902344 7.328124-.003906 14.410156-1.03125 21.144531-2.90625-33.355469-9.214844-57.871094-39.746094-57.90625-76.039063zm0 0" fill="#399faa"/><g fill="#77dbe5"><path d="m318.242188 176.066406c0 12.984375-10.527344 23.507813-23.511719 23.507813s-23.511719-10.523438-23.511719-23.507813 10.527344-23.511718 23.511719-23.511718 23.511719 10.527343 23.511719 23.511718zm0 0"/><path d="m290.027344 131.132812c0 7.214844-5.847656 13.0625-13.058594 13.0625-7.214844 0-13.0625-5.847656-13.0625-13.0625 0-7.210937 5.847656-13.058593 13.0625-13.058593 7.210938 0 13.058594 5.847656 13.058594 13.058593zm0 0"/><path d="m460.347656 416.390625c0 12.984375-10.527344 23.511719-23.511718 23.511719-12.984376 0-23.511719-10.527344-23.511719-23.511719s10.527343-23.507813 23.511719-23.507813c12.984374 0 23.511718 10.523438 23.511718 23.507813zm0 0"/><path d="m432.132812 371.460938c0 7.214843-5.847656 13.0625-13.058593 13.0625-7.214844 0-13.0625-5.847657-13.0625-13.0625 0-7.214844 5.847656-13.0625 13.0625-13.0625 7.210937 0 13.058593 5.847656 13.058593 13.0625zm0 0"/><path d="m184.492188 416.390625c0 12.984375-10.523438 23.511719-23.507813 23.511719s-23.511719-10.527344-23.511719-23.511719 10.527344-23.507813 23.511719-23.507813 23.507813 10.523438 23.507813 23.507813zm0 0"/><path d="m156.28125 371.460938c0 7.214843-5.847656 13.0625-13.0625 13.0625-7.210938 0-13.058594-5.847657-13.058594-13.0625 0-7.214844 5.847656-13.0625 13.058594-13.0625 7.214844 0 13.0625 5.847656 13.0625 13.0625zm0 0"/></g></svg>