<svg height="512pt" viewBox="0 0 512 512" width="512pt" xmlns="http://www.w3.org/2000/svg"><path d="m512 256c0 141.386719-114.613281 256-256 256s-256-114.613281-256-256 114.613281-256 256-256 256 114.613281 256 256zm0 0" fill="#3f6dc9"/><path d="m182.027344 242.996094c-35.550782 23.914062-58.898438 64.570312-58.726563 110.675781.265625 73.1875 59.511719 132.207031 132.703125 132.207031 73.289063-.003906 132.699219-59.414062 132.699219-132.703125 0-44.605469-22.007813-84.066406-55.757813-108.125-10.269531-7.324219-16.339843-19.1875-16.339843-31.800781v-206.015625c-19.433594-4.714844-39.722657-7.234375-60.605469-7.234375-19.390625 0-38.269531 2.167969-56.425781 6.253906v204.109375c0 13.132813-6.648438 25.304688-17.546875 32.632813zm0 0" fill="#fff"/><path d="m165.804688 353.671875c-.167969-46.105469 23.179687-86.761719 58.730468-110.675781 10.898438-7.328125 17.546875-19.5 17.546875-32.632813v-209.964843c-3.488281.1875-6.960937.445312-10.410156.773437-.351563.03125-.707031.066406-1.058594.101563-1.566406.152343-3.132812.316406-4.695312.5-.164063.019531-.328125.042968-.492188.0625-2.589843.304687-5.164062.660156-7.730469 1.042968-1.074218.164063-2.152343.320313-3.222656.496094-.910156.148438-1.816406.308594-2.722656.464844-1.308594.226562-2.613281.464844-3.910156.710937-.726563.140625-1.449219.273438-2.171875.417969-2.039063.40625-4.070313.828125-6.09375 1.285156v204.109375c0 6.566407-1.664063 12.894531-4.6875 18.492188-.753907 1.402343-1.597657 2.757812-2.519531 4.058593-.921876 1.300782-1.921876 2.550782-3 3.738282-1.617188 1.785156-3.40625 3.429687-5.347657 4.914062-.648437.496094-1.3125.972656-1.992187 1.433594-11.109375 7.46875-21.027344 16.578125-29.410156 26.976562-1.675782 2.078126-3.289063 4.210938-4.839844 6.390626-13.953125 19.621093-22.703125 43.199218-24.238282 68.726562-.171874 2.835938-.25 5.695312-.242187 8.578125.269531 73.1875 59.515625 132.207031 132.707031 132.207031 7.246094 0 14.355469-.589844 21.289063-1.707031-63.085938-10.105469-111.246094-64.535156-111.488281-130.5zm0 0" fill="#ddd"/><path d="m152.554688 353.164062c-.007813 56.289063 45.683593 102.660157 101.96875 103.445313 57.808593.808594 104.921874-45.8125 104.921874-103.433594 0-.699219-.019531-1.394531-.035156-2.089843h-206.820312c-.011719.691406-.035156 1.382812-.035156 2.078124zm0 0" fill="#5dc1d8"/><path d="m182.855469 353.699219c0-.875.027343-1.746094.050781-2.613281h-30.316406c-.011719.691406-.035156 1.382812-.035156 2.078124 0 14.953126 3.222656 29.203126 9.007812 42.085938 1.023438 2.273438 2.125 4.507812 3.300781 6.691406 1.179688 2.183594 2.433594 4.320313 3.761719 6.410156.882812 1.394532 1.800781 2.761719 2.746094 4.109376.476562.675781.957031 1.339843 1.445312 2.003906.980469 1.324218 1.988282 2.621094 3.03125 3.898437 1.558594 1.910157 3.183594 3.765625 4.871094 5.5625s3.441406 3.53125 5.253906 5.203125c2.414063 2.230469 4.933594 4.347656 7.550782 6.34375 1.964843 1.5 3.980468 2.925782 6.050781 4.285156 2.070312 1.355469 4.1875 2.640626 6.355469 3.847657 2.167968 1.210937 4.382812 2.34375 6.640624 3.398437 5.269532 2.460938 10.777344 4.488282 16.480469 6.035156 8.140625 2.210938 16.679688 3.449219 25.472657 3.570313.144531.003906.289062 0 .433593 0h2.351563.007812c1.058594-.011719 2.113282-.046875 3.167969-.089844.25-.011719.5-.027343.75-.039062.855469-.042969 1.707031-.09375 2.558594-.15625.21875-.015625.433593-.03125.648437-.050781 2.179688-.175782 4.34375-.417969 6.480469-.726563-49.800781-7.199219-88.066406-50.050781-88.066406-101.847656zm0 0" fill="#47aebf"/><g fill="#fff"><path d="m388.367188 72.621094h-39.707032c-4.328125 0-7.835937-3.507813-7.835937-7.835938 0-4.332031 3.507812-7.839844 7.835937-7.839844h39.707032c4.328124 0 7.835937 3.507813 7.835937 7.839844 0 4.328125-3.507813 7.835938-7.835937 7.835938zm0 0"/><path d="m388.367188 114.765625h-39.707032c-4.328125 0-7.835937-3.507813-7.835937-7.839844 0-4.328125 3.507812-7.835937 7.835937-7.835937h39.707032c4.328124 0 7.835937 3.507812 7.835937 7.835937 0 4.332031-3.507813 7.839844-7.835937 7.839844zm0 0"/><path d="m388.367188 156.910156h-39.707032c-4.328125 0-7.835937-3.507812-7.835937-7.835937 0-4.332031 3.507812-7.839844 7.835937-7.839844h39.707032c4.328124 0 7.835937 3.507813 7.835937 7.839844 0 4.328125-3.507813 7.835937-7.835937 7.835937zm0 0"/><path d="m388.367188 199.054688h-39.707032c-4.328125 0-7.835937-3.507813-7.835937-7.839844 0-4.328125 3.507812-7.835938 7.835937-7.835938h39.707032c4.328124 0 7.835937 3.507813 7.835937 7.835938 0 4.332031-3.507813 7.839844-7.835937 7.839844zm0 0"/></g></svg>