<svg height="512pt" viewBox="0 0 512 512" width="512pt" xmlns="http://www.w3.org/2000/svg"><path d="m512 256c0 141.386719-114.613281 256-256 256s-256-114.613281-256-256 114.613281-256 256-256 256 114.613281 256 256zm0 0" fill="#3f6dc9"/><path d="m182 243c-35.601562 23.898438-58.898438 64.601562-58.699219 110.699219.300781 73.199219 59.5 132.199219 132.699219 132.199219 73.300781 0 132.699219-59.398438 132.699219-132.699219 0-44.597657-22-84.097657-55.800781-108.097657-10.296876-7.300781-16.296876-19.203124-16.296876-31.800781v-206.101562c-19.402343-4.699219-39.703124-7.199219-60.601562-7.199219-19.398438 0-38.300781 2.199219-56.398438 6.300781v204.097657c0 13.101562-6.703124 25.300781-17.601562 32.601562zm0 0" fill="#fff"/><path d="m182 243c-35.601562 23.898438-58.898438 64.601562-58.699219 110.699219.300781 73.199219 59.5 132.199219 132.699219 132.199219 73.300781 0 132.699219-59.398438 132.699219-132.699219 0-44.597657-22-84.097657-55.800781-108.097657-10.296876-7.300781-16.296876-19.203124-16.296876-31.800781v-206.101562c-19.402343-4.699219-39.703124-7.199219-60.601562-7.199219-19.398438 0-38.300781 2.199219-56.398438 6.300781v204.097657c0 13.101562-6.703124 25.300781-17.601562 32.601562zm0 0" fill="#fff"/><path d="m155.5 353.699219c-.199219-46.097657 23.199219-70 58.699219-94 10.902343-7.300781 17.5-19.5 17.5-32.597657v-225.902343c-11 1-21.699219 2.699219-32.199219 5.101562v204.097657c0 6.601562-1.699219 12.902343-4.699219 18.5-.800781 1.402343-1.601562 2.800781-2.5 4.101562-.902343 1.300781-1.902343 2.601562-3 3.699219-1.601562 1.800781-3.402343 3.402343-5.300781 4.902343-.601562.5-1.300781 1-2 1.398438-11.101562 7.5-21 16.601562-29.398438 27-1.703124 2.101562-3.300781 4.199219-4.800781 6.398438-14 19.601562-22.699219 43.203124-24.199219 68.703124-.203124 2.796876-.300781 5.699219-.203124 8.597657.300781 73.199219 59.5 132.199219 132.703124 132.199219 4.796876 0 9.5-.296876 14.199219-.796876v-.5c-64.800781-8.703124-114.5-63.902343-114.800781-130.902343zm0 0" fill="#ddd"/><path d="m294.699219 238.601562v-76.601562h-73.097657v74.199219c0 11-5.902343 21.199219-15.5 26.5-31.902343 17.601562-53.402343 51.601562-53.5 90.601562 0 56.300781 45.699219 102.699219 102 103.398438 57.796876.800781 104.898438-45.800781 104.898438-103.398438 0-37.601562-20.101562-70.601562-50.101562-88.699219-9.199219-5.601562-14.699219-15.402343-14.699219-26zm0 0" fill="#ea4b57"/><path d="m182.898438 353.699219c0-41.398438 24.402343-77 59.601562-93.398438 7.601562-3.5 12.5-11 12.5-19.300781v-79h-33.398438v74.199219c0 11-6 21.199219-15.601562 26.5-31.800781 17.601562-53.300781 51.601562-53.300781 90.5 0 56.300781 45.699219 102.699219 102 103.402343h.402343 2.398438c4.601562-.101562 9.199219-.402343 13.601562-1.101562-50-7.199219-88.203124-50-88.203124-101.800781zm0 0" fill="#d63649"/><path d="m337.5 373.101562c0 16.402344-13.296875 29.699219-29.699219 29.699219-16.402343 0-29.699219-13.296875-29.699219-29.699219 0-16.40625 13.296876-29.703124 29.699219-29.703124 16.402344 0 29.699219 13.296874 29.699219 29.703124zm0 0" fill="#f47887"/><path d="m292.199219 322.101562c0 10.269532-8.328125 18.597657-18.597657 18.597657-10.273437 0-18.601562-8.328125-18.601562-18.597657 0-10.273437 8.328125-18.601562 18.601562-18.601562 10.269532 0 18.597657 8.328125 18.597657 18.601562zm0 0" fill="#f47887"/><g fill="#fff"><path d="m386.5 72.300781h-39.699219c-4.101562 0-7.5-3.402343-7.5-7.5 0-4.101562 3.398438-7.5 7.5-7.5h39.699219c4.101562 0 7.5 3.398438 7.5 7.5 0 4.097657-3.398438 7.5-7.5 7.5zm0 0"/><path d="m386.5 114.398438h-39.699219c-4.101562 0-7.5-3.398438-7.5-7.5 0-4.097657 3.398438-7.5 7.5-7.5h39.699219c4.101562 0 7.5 3.402343 7.5 7.5 0 4.101562-3.398438 7.5-7.5 7.5zm0 0"/><path d="m386.5 156.601562h-39.699219c-4.101562 0-7.5-3.402343-7.5-7.5 0-4.101562 3.398438-7.5 7.5-7.5h39.699219c4.101562 0 7.5 3.398438 7.5 7.5 0 4.097657-3.398438 7.5-7.5 7.5zm0 0"/><path d="m386.5 198.699219h-39.699219c-4.101562 0-7.5-3.398438-7.5-7.5 0-4.097657 3.398438-7.5 7.5-7.5h39.699219c4.101562 0 7.5 3.402343 7.5 7.5 0 4.101562-3.398438 7.5-7.5 7.5zm0 0"/></g></svg>