<svg height="512pt" viewBox="0 -11 512.00025 512" width="512pt" xmlns="http://www.w3.org/2000/svg"><path d="m500.457031 244.523438c0 135.046874-109.476562 244.523437-244.523437 244.523437s-244.523438-109.476563-244.523438-244.523437c0-135.046876 109.476563-244.523438 244.523438-244.523438s244.523437 109.476562 244.523437 244.523438zm0 0" fill="#393991"/><path d="m500.457031 244.523438c0 135.046874-109.476562 244.523437-244.523437 244.523437s-244.523438-109.476563-244.523438-244.523437c0-135.046876 109.476563-244.523438 244.523438-244.523438s244.523437 109.476562 244.523437 244.523438zm0 0" fill="#393991"/><path d="m385.042969 99.117188 22.199219 61.253906c3.492187 9.636718 11.078124 17.226562 20.714843 20.71875l61.257813 22.199218c30.378906 11.007813 30.378906 53.972657 0 64.980469l-61.257813 22.199219c-9.636719 3.492188-17.222656 11.082031-20.714843 20.71875l-22.199219 61.257812c-11.007813 30.378907-53.972657 30.378907-64.984375 0l-22.195313-61.257812c-3.492187-9.636719-11.082031-17.226562-20.71875-20.71875l-61.257812-22.199219c-30.378907-11.007812-30.378907-53.972656 0-64.980469l61.257812-22.199218c9.636719-3.492188 17.226563-11.082032 20.71875-20.71875l22.195313-61.253906c11.011718-30.382813 53.976562-30.382813 64.984375 0zm0 0" fill="#fdd33a"/><path d="m356.753906 311.1875c-3.492187-9.636719-11.078125-17.226562-20.714844-20.71875l-61.257812-22.199219c-30.378906-11.007812-30.378906-53.972656 0-64.980469l61.257812-22.199218c9.636719-3.492188 17.222657-11.082032 20.714844-20.71875l22.199219-61.253906c.835937-2.304688 1.871094-4.410157 3.042969-6.363282-14.308594-23.820312-51.761719-21.714844-61.9375 6.363282l-22.195313 61.253906c-3.492187 9.636718-11.082031 17.226562-20.71875 20.71875l-61.257812 22.199218c-30.378907 11.007813-30.378907 53.972657 0 64.980469l61.257812 22.199219c9.636719 3.492188 17.226563 11.082031 20.71875 20.71875l22.195313 61.257812c10.175781 28.078126 47.628906 30.183594 61.9375 6.359376-1.171875-1.953126-2.207032-4.058594-3.042969-6.359376zm0 0" fill="#e8bb2a"/><path d="m228.777344 446.054688 30.390625-11.011719c15.074219-5.460938 15.074219-26.777344 0-32.238281l-30.390625-11.015626c-4.78125-1.730468-8.546875-5.496093-10.277344-10.277343l-11.011719-30.390625c-5.460937-15.070313-26.777343-15.070313-32.242187 0l-11.011719 30.390625c-1.730469 4.78125-5.496094 8.546875-10.277344 10.277343l-30.390625 11.015626c-15.074218 5.460937-15.074218 26.777343 0 32.238281l30.390625 11.011719c4.78125 1.734374 8.546875 5.496093 10.277344 10.277343l6.292969 17.367188c12.171875 4.539062 24.800781 8.132812 37.804687 10.699219l10.167969-28.066407c1.730469-4.78125 5.496094-8.546875 10.277344-10.277343zm0 0" fill="#fdd33a"/><path d="m153.957031 42.472656-30.390625 11.011719c-15.074218 5.460937-15.074218 26.777344 0 32.238281l30.390625 11.011719c4.777344 1.734375 8.542969 5.5 10.277344 10.28125l11.011719 30.390625c5.460937 15.070312 26.777344 15.070312 32.238281 0l11.011719-30.390625c1.734375-4.78125 5.5-8.546875 10.277344-10.28125l30.390624-11.011719c15.074219-5.460937 15.074219-26.777344 0-32.238281l-30.390624-11.011719c-4.777344-1.734375-8.542969-5.496094-10.277344-10.277344l-9.992188-27.582031c-13.140625 2.582031-25.902344 6.21875-38.195312 10.8125l-6.078125 16.769531c-1.730469 4.78125-5.496094 8.542969-10.273438 10.277344zm0 0" fill="#fdd33a"/><g fill="#5dc1d8"><path d="m164.179688 245.023438h-156.695313c-4.132813 0-7.484375-3.351563-7.484375-7.488282 0-4.132812 3.351562-7.484375 7.484375-7.484375h156.695313c4.132812 0 7.484374 3.351563 7.484374 7.484375 0 4.136719-3.351562 7.488282-7.484374 7.488282zm0 0"/><path d="m184.140625 195.617188h-93.316406c-4.136719 0-7.488281-3.347657-7.488281-7.484376 0-4.136718 3.351562-7.484374 7.488281-7.484374h93.316406c4.132813 0 7.484375 3.347656 7.484375 7.484374 0 4.136719-3.351562 7.484376-7.484375 7.484376zm0 0"/><path d="m184.140625 293.425781h-93.316406c-4.136719 0-7.488281-3.347656-7.488281-7.484375 0-4.132812 3.351562-7.484375 7.488281-7.484375h93.316406c4.132813 0 7.484375 3.351563 7.484375 7.484375 0 4.136719-3.351562 7.484375-7.484375 7.484375zm0 0"/></g><path d="m449.121094 253.503906c0 14.332032-11.617188 25.949219-25.949219 25.949219-14.328125 0-25.949219-11.617187-25.949219-25.949219 0-14.332031 11.621094-25.949218 25.949219-25.949218 14.332031 0 25.949219 11.617187 25.949219 25.949218zm0 0" fill="#ffe292"/><path d="m411.195312 207.59375c0 11.023438-8.933593 19.960938-19.960937 19.960938-11.023437 0-19.960937-8.9375-19.960937-19.960938s8.9375-19.960938 19.960937-19.960938c11.027344 0 19.960937 8.9375 19.960937 19.960938zm0 0" fill="#ffe292"/><path d="m112.425781 71.988281c.011719.101563.03125.203125.042969.308594.246094 1.589844.703125 3.152344 1.382812 4.628906.175782.382813.367188.761719.570313 1.132813.328125.589844.703125 1.152344 1.101563 1.699218.355468.492188.734374.976563 1.152343 1.433594.292969.320313.601563.632813.925781.933594 1.621094 1.507812 3.605469 2.746094 5.960938 3.601562l30.390625 11.011719c2.390625.863281 4.527344 2.238281 6.285156 3.996094 1.316407 1.316406 2.417969 2.847656 3.25 4.539063.28125.5625.527344 1.144531.742188 1.742187l11.015625 30.390625v.007812c.164062.449219.34375.886719.535156 1.3125.066406.140626.136719.273438.203125.414063.136719.277344.269531.558594.417969.824219.085937.15625.179687.304687.269531.460937.140625.234375.277344.46875.425781.695313.101563.15625.210938.304687.316406.457031.148438.210937.292969.417969.449219.617187.113281.148438.234375.292969.355469.4375.15625.1875.3125.375.472656.554688.128906.140625.257813.277344.390625.414062.164063.167969.332031.335938.503907.496094.136718.128906.277343.257813.417968.382813.171875.152343.347656.300781.523438.445312.148437.117188.296875.238281.449218.351563.179688.132812.359376.261718.542969.390625.160157.109375.316407.21875.476563.320312.183594.121094.371094.230469.558594.339844.167968.097656.335937.199219.503906.292969.183594.097656.371094.1875.558594.28125.179687.089844.359374.183594.542968.265625.171875.078125.351563.144531.527344.21875.203125.082031.402344.171875.609375.246093.113281.042969.234375.078126.351563.117188.9375.320312 1.894531.5625 2.871093.722656.0625.007813.125.023438.191407.03125.304687.046875.613281.078125.921874.109375.085938.007813.171876.019531.257813.027344.304687.023437.609375.039063.917969.046875.085937.003906.171875.007812.261718.011719.308594.003906.621094 0 .929688-.011719.082031-.003906.164062-.007812.242188-.011719.320312-.015625.636718-.039062.953124-.074219.070313-.003906.140626-.011718.210938-.019531.328125-.039062.652344-.085937.976562-.140625.054688-.011718.109376-.019531.164063-.03125.339844-.0625.679687-.132812 1.015625-.214844.03125-.007812.0625-.015624.09375-.023437 4.117188-1.03125 7.890625-3.566406 10.320312-7.609375-.582031-.972656-1.097656-2.015625-1.511718-3.15625l-11.011719-30.390625c-1.734375-4.78125-5.496094-8.546875-10.277344-10.28125l-30.390625-11.011719c-15.074218-5.460937-15.074218-26.777344 0-32.238281l30.390625-11.011719c4.78125-1.734375 8.546875-5.496094 10.277344-10.277344l9.578125-26.433593c-11.214844 2.472656-22.140625 5.710937-32.722656 9.664062l-.921875 2.546875-5.152344 14.222656c-.214844.597657-.464844 1.179688-.742187 1.742188-.277344.5625-.585938 1.109375-.921876 1.636719-1.007812 1.578125-2.261718 2.976562-3.71875 4.144531-1.453124 1.167969-3.101562 2.105469-4.894531 2.753906l-30.390625 11.011719c-.941406.339844-1.828125.746094-2.652344 1.203125-.710937.394531-1.367187.835938-1.992187 1.304688-.820313.621093-1.574219 1.296874-2.246094 2.027343-.292969.320313-.574219.652344-.839843.992188-.527344.679687-1 1.394531-1.410157 2.136719-.207031.371093-.398437.75-.574219 1.132812-.707031 1.535156-1.179687 3.160156-1.414062 4.820312-.230469 1.617188-.234375 3.265626-.011719 4.886719zm0 0" fill="#e8bb2a"/><path d="m183.171875 446.054688-30.390625-11.011719c-15.070312-5.460938-15.070312-26.777344 0-32.242188l30.390625-11.011719c4.78125-1.730468 8.546875-5.496093 10.277344-10.277343l11.015625-30.390625c.414062-1.140625.925781-2.1875 1.511718-3.15625h-.003906c-2.429687-4.042969-6.203125-6.578125-10.316406-7.609375-.035156-.007813-.066406-.019531-.097656-.027344-.335938-.082031-.671875-.152344-1.011719-.214844-.054687-.007812-.109375-.019531-.164063-.027343-.324218-.058594-.652343-.105469-.980468-.140626-.066406-.007812-.140625-.015624-.210938-.023437-.3125-.03125-.628906-.058594-.949218-.074219-.082032-.003906-.164063-.003906-.246094-.007812-.308594-.011719-.617188-.015625-.925782-.011719-.089843 0-.179687.007813-.265624.007813-.308594.011718-.613282.023437-.917969.046874-.085938.007813-.171875.019532-.261719.03125-.304688.027344-.613281.0625-.917969.105469-.066406.011719-.128906.027344-.191406.035157-.96875.15625-1.925781.398437-2.855469.71875-.121094.039062-.246094.074218-.367187.121093-.203125.074219-.402344.160157-.605469.246094-.175781.070313-.355469.140625-.527344.21875-.183594.082031-.363281.175781-.546875.265625-.183593.089844-.371093.179688-.554687.28125-.171875.09375-.335938.191406-.503906.289062-.1875.113282-.375.222657-.558594.339844-.160156.105469-.316406.210938-.476563.320313-.183593.128906-.367187.257812-.546875.394531-.148437.113281-.296875.230469-.445312.351562-.175782.144532-.351563.292969-.527344.445313-.140625.121094-.28125.25-.417969.382813-.171875.160156-.335937.328124-.5.496093-.132812.136719-.261719.269531-.390625.410157-.160156.179687-.320312.367187-.472656.558593-.121094.144531-.242188.285157-.355469.4375-.15625.199219-.300781.40625-.449219.617188-.105468.152343-.214843.300781-.316406.457031-.148437.226562-.285156.460938-.425781.695312-.089844.15625-.183594.304688-.269531.460938-.144532.265625-.28125.546875-.417969.828125-.066406.136719-.136719.269531-.199219.410156-.195312.425781-.375.867188-.539062 1.320313l-5.507813 15.195312-5.503906 15.195313c-.21875.597656-.464844 1.179687-.742187 1.742187-.277344.566406-.585938 1.113282-.921876 1.636719-1.007812 1.578125-2.265624 2.980469-3.71875 4.148437-1.453124 1.164063-3.105468 2.101563-4.894531 2.75l-30.390625 11.011719c-.945312.34375-1.828125.746094-2.652344 1.203125-.710937.394532-1.371093.835938-1.992187 1.308594-.820313.617188-1.574219 1.292969-2.246094 2.023438-.292969.324218-.574219.65625-.839843.996093-.527344.679688-1 1.394531-1.414063 2.136719-.203125.371094-.394531.746094-.570313 1.132812-.707031 1.53125-1.179687 3.160157-1.414062 4.816407-.230469 1.621093-.234375 3.265625-.015625 4.886719.015625.101562.03125.207031.046875.308593.242188 1.59375.699219 3.15625 1.378906 4.632813.175782.382812.371094.761718.574219 1.132812.328125.585938.699219 1.148438 1.097656 1.699219.359375.492187.738281.972656 1.15625 1.429687.292969.320313.601563.632813.925781.933594 1.617188 1.507813 3.605469 2.746094 5.960938 3.601563l30.390625 11.011719c2.390625.867187 4.527344 2.242187 6.28125 3.996093 1.316406 1.316407 2.421875 2.847657 3.253906 4.539063.277344.5625.527344 1.144531.742188 1.742187l2.324219 6.417969 3.96875 10.953125c10.578124 3.941406 21.5 7.167969 32.710937 9.632813l-9.785156-27.003907c-1.730469-4.78125-5.496094-8.546875-10.277344-10.277343zm0 0" fill="#e8bb2a"/></svg>