<svg height="512pt" viewBox="0 -4 512.00098 512" width="512pt" xmlns="http://www.w3.org/2000/svg"><path d="m503.015625 257.273438c0 135.980468-110.234375 246.214843-246.214844 246.214843-135.984375 0-246.21875-110.234375-246.21875-246.214843 0-135.984376 110.234375-246.21875 246.21875-246.21875 135.980469 0 246.214844 110.234374 246.214844 246.21875zm0 0" fill="#fdd33a"/><path d="m272.460938 271.195312v-44.894531c-4.78125 3.1875-10.480469 5.023438-16.511719 5.023438-5.152344 0-10.058594-1.34375-14.363281-3.714844v42.15625c4.171874-2.640625 9.113281-4.175781 14.414062-4.175781 6.199219 0 11.902344 2.09375 16.460938 5.605468zm0 0" fill="#303084"/><path d="m276.285156 312.277344c-5.140625 5.289062-12.324218 8.585937-20.285156 8.585937-8.25 0-15.671875-3.535156-20.839844-9.171875l-20.378906 188.210938c13.65625 2.347656 27.691406 3.585937 42.015625 3.585937 13.566406 0 26.871094-1.117187 39.839844-3.226562zm0 0" fill="#3f6dc9"/><path d="m277.300781 321.652344-1.015625-9.375c-4.097656 4.21875-9.5 7.160156-15.558594 8.183594-.730468.125-1.472656.214843-2.222656.28125-.089844.007812-.183594.015624-.277344.023437-.734374.058594-1.476562.09375-2.226562.09375-8.25 0-15.671875-3.535156-20.839844-9.167969l-20.378906 188.207032c9.246094 1.589843 18.671875 2.660156 28.238281 3.191406l16.9375-174.6875c6.441407-.703125 12.375-3.105469 17.34375-6.75zm0 0" fill="#2e5faf"/><path d="m50.1875 308.027344c-3.492188 0-6.621094-2.4375-7.367188-5.992188-8.050781-38.292968-5.578124-78.207031 7.136719-115.433594 17.84375-52.222656 54.398438-95.417968 102.925781-121.628906 3.664063-1.980468 8.238282-.609375 10.214844 3.050782 1.976563 3.664062.613282 8.234374-3.050781 10.210937-45.179687 24.402344-79.210937 64.617187-95.824219 113.242187-11.839844 34.660157-14.140625 71.820313-6.652344 107.460938.855469 4.074219-1.753906 8.070312-5.828124 8.925781-.519532.109375-1.042969.164063-1.554688.164063zm0 0" fill="#fff"/><path d="m463.402344 308.023438c-.515625 0-1.039063-.050782-1.5625-.164063-4.074219-.855469-6.679688-4.851563-5.824219-8.925781 18.277344-86.824219-23.285156-177.28125-101.0625-219.972656-3.652344-2.003907-4.984375-6.585938-2.980469-10.234376 2-3.648437 6.582032-4.984374 10.234375-2.980468 41.148438 22.585937 73.34375 57.175781 93.101563 100.03125 19.828125 43 25.171875 90.117187 15.460937 136.261718-.75 3.550782-3.882812 5.984376-7.367187 5.984376zm0 0" fill="#fff"/><path d="m282.230469 286.199219c.496093 2.050781.765625 4.183593.765625 6.382812 0 9.398438-4.804688 17.667969-12.085938 22.5l28.921875 14.703125c-.675781-5.707031.269531-11.617187 3.003907-16.996094 2.335937-4.589843 5.753906-8.359374 9.820312-11.121093zm0 0" fill="#303084"/><path d="m229.007812 292.582031c0-2.199219.269532-4.332031.765626-6.382812l-30.429688 15.46875c4.066406 2.761719 7.488281 6.527343 9.824219 11.121093 2.730469 5.378907 3.679687 11.289063 3.003906 16.996094l28.917969-14.703125c-7.28125-4.832031-12.082032-13.101562-12.082032-22.5zm0 0" fill="#303084"/><path d="m421.910156 276.867188c-.1875 0-.371094-.003907-.5625-.019532-4.152344-.304687-7.269531-3.917968-6.960937-8.070312 4.175781-56.648438-22.59375-111.414063-69.859375-142.921875-3.464844-2.308594-4.398438-6.984375-2.089844-10.449219s6.984375-4.402344 10.449219-2.089844c51.78125 34.515625 81.109375 94.507813 76.53125 156.570313-.289063 3.960937-3.597657 6.980469-7.507813 6.980469zm0 0" fill="#fff"/><path d="m92.6875 276.867188c-3.910156 0-7.21875-3.019532-7.507812-6.984376-1.707032-23.25 1.277343-46.316406 8.875-68.558593 12.417968-36.339844 35.835937-66.773438 67.71875-88.011719 3.460937-2.308594 8.144531-1.371094 10.449218 2.097656 2.308594 3.460938 1.371094 8.144532-2.09375 10.449219-29.101562 19.382813-50.472656 47.164063-61.808594 80.339844-6.9375 20.308593-9.664062 41.363281-8.105468 62.578125.304687 4.152344-2.8125 7.765625-6.964844 8.070312-.1875.015625-.375.019532-.5625.019532zm0 0" fill="#fff"/><path d="m285.921875 292.582031c0 16.527344-13.394531 29.925781-29.921875 29.925781-16.523438 0-29.921875-13.398437-29.921875-29.925781 0-16.523437 13.398437-29.921875 29.921875-29.921875 16.527344 0 29.921875 13.398438 29.921875 29.921875zm0 0" fill="#ea4b57"/><path d="m246.175781 292.582031c0-13 8.292969-24.058593 19.875-28.1875-3.144531-1.121093-6.523437-1.734375-10.050781-1.734375-16.527344 0-29.921875 13.398438-29.921875 29.921875 0 16.527344 13.394531 29.925781 29.921875 29.925781 3.527344 0 6.90625-.617187 10.050781-1.734374-11.582031-4.132813-19.875-15.191407-19.875-28.191407zm0 0" fill="#d63649"/><path d="m293.445312 308.011719c6.386719-12.566407 20.117188-19.609375 34.050782-17.464844l33.632812 5.175781c13.933594 2.140625 27.171875 7.507813 38.664063 15.667969l100.644531 71.453125c11.097656 7.875 14.746094 22.691406 8.582031 34.820312-6.164062 12.121094-20.269531 17.902344-33.164062 13.59375l-116.269531-38.828124c-13.28125-4.433594-25.351563-11.886719-35.265626-21.773438l-24.828124-24.75c-10.011719-9.988281-12.457032-25.289062-6.046876-37.894531zm0 0" fill="#ea4b57"/><path d="m218.554688 308.011719c-6.386719-12.566407-20.117188-19.609375-34.050782-17.464844l-33.632812 5.175781c-13.929688 2.140625-27.171875 7.507813-38.664063 15.667969l-100.644531 71.453125c-11.097656 7.875-14.746094 22.691406-8.578125 34.820312 6.160156 12.121094 20.265625 17.902344 33.164063 13.59375l116.269531-38.828124c13.277343-4.433594 25.347656-11.886719 35.261719-21.773438l24.828124-24.75c10.015626-9.988281 12.457032-25.289062 6.046876-37.894531zm0 0" fill="#ea4b57"/><path d="m484.320312 402.796875-120.746093-40.324219c-13.792969-4.609375-26.328125-12.347656-36.625-22.613281l-25.78125-25.707031c-2.589844-2.582032-4.695313-5.511719-6.289063-8.65625-.511718.8125-.992187 1.648437-1.433594 2.515625-6.410156 12.605469-3.96875 27.90625 6.046876 37.894531l24.828124 24.75c9.914063 9.886719 21.984376 17.339844 35.265626 21.773438l116.269531 38.828124c12.894531 4.308594 27-1.472656 33.164062-13.59375 3.175781-6.25 3.738281-13.207031 2.03125-19.566406-7.347656 5.816406-17.34375 7.832032-26.730469 4.699219zm0 0" fill="#d63649"/><path d="m218.554688 308.011719c-.441407-.867188-.921876-1.703125-1.429688-2.515625-1.597656 3.144531-3.699219 6.074218-6.292969 8.65625l-25.78125 25.707031c-10.296875 10.265625-22.832031 18.003906-36.621093 22.613281l-120.75 40.324219c-9.382813 3.132813-19.382813 1.117187-26.726563-4.699219-1.710937 6.359375-1.144531 13.316406 2.03125 19.566406 6.160156 12.121094 20.265625 17.902344 33.164063 13.597657l116.269531-38.832031c13.277343-4.433594 25.347656-11.886719 35.261719-21.769532l24.828124-24.753906c10.015626-9.988281 12.457032-25.289062 6.046876-37.894531zm0 0" fill="#d63649"/><path d="m255.945312 241.859375c-14.097656 0-26.597656-9.050781-31-22.441406l-10.628906-32.328125c-4.402344-13.390625-5.617187-27.621094-3.554687-41.566406l18.089843-122.097657c1.992188-13.457031 13.546876-23.425781 27.152344-23.425781 13.59375 0 25.144532 9.953125 27.148438 23.402344l18.074218 121.242187c2.0625 13.847657.890626 27.984375-3.429687 41.304688l-10.816406 33.34375c-4.359375 13.457031-16.894531 22.566406-31.035157 22.566406zm0 0" fill="#ea4b57"/><path d="m252.078125 219.417969-10.628906-32.328125c-4.402344-13.390625-5.617188-27.621094-3.550781-41.566406l18.085937-122.097657c1.273437-8.601562 6.460937-15.773437 13.585937-19.832031-4.023437-2.289062-8.660156-3.59375-13.566406-3.59375-13.605468 0-25.160156 9.96875-27.152344 23.425781l-18.089843 122.097657c-2.0625 13.945312-.847657 28.179687 3.554687 41.566406l10.628906 32.328125c4.402344 13.390625 16.902344 22.441406 31 22.441406 4.796876 0 9.394532-1.070313 13.566407-2.980469-8.089844-3.703125-14.527344-10.625-17.433594-19.460937zm0 0" fill="#d63649"/></svg>