<svg height="512pt" viewBox="0 -5 512 511" width="512pt" xmlns="http://www.w3.org/2000/svg"><path d="m501.398438 251.199219c0 138.457031-112.242188 250.699219-250.699219 250.699219s-250.699219-112.242188-250.699219-250.699219 112.242188-250.699219 250.699219-250.699219 250.699219 112.242188 250.699219 250.699219zm0 0" fill="#5dc1d8"/><path d="m112.5 144.800781c.199219 0 132.800781 8 132.800781 8l133.300781 8 76.296876 4.597657c32.300781 1.902343 57 20.601562 57 42.902343v86.898438c0 22.300781-24.796876 41-57 42.902343l-76.296876 4.597657-133.300781 8s-132.699219 8-132.800781 8c-5.398438 0-9.699219-47.898438-9.699219-106.898438s4.300781-107 9.699219-107zm0 0" fill="#ea4b57"/><path d="m375.300781 298.199219 78.199219-4.699219c33.101562-2 58.5-21.101562 58.5-44v45.601562c0 22.296876-24.800781 41-57 42.898438l-76.300781 4.601562-133.300781 8s-132.699219 8-132.796876 8c-3.203124 0-6.101562-17.402343-7.902343-44.101562 17.199219-1 134-8.101562 134-8.101562zm0 0" fill="#d63649"/><path d="m70 149 39.101562 2.199219c1-4.097657 2.199219-6.398438 3.296876-6.398438 5.402343 0 9.703124 47.898438 9.703124 106.898438s-4.402343 106.902343-9.703124 106.902343c-1.199219 0-2.296876-2.203124-3.296876-6.300781l-39.101562 2.199219v-15.398438l36.601562-2c-2.300781-19.5-3.902343-50.5-3.902343-85.402343 0-34.800781 1.5-65.800781 3.902343-85.300781l-36.601562-2zm0 0" fill="#393991"/><path d="m378.699219 342.601562-133.398438 8v-197.800781l133.398438 8zm0 0" fill="#fff"/><path d="m375.300781 298.199219 3.398438-.199219v44.601562l-133.398438 8v-44.601562zm0 0" fill="#ddd"/><path d="m59.300781 72.199219c8.800781 0 15.898438 7.101562 15.898438 15.902343v342.097657c-11.800781-11.5-22.398438-24.199219-31.699219-37.898438v-304.300781c-.101562-8.699219 7-15.800781 15.800781-15.800781zm0 0" fill="#3f6dc9"/><path d="m58.800781 88c0-5.800781-3.101562-10.800781-7.699219-13.601562 2.398438-1.398438 5.199219-2.296876 8.199219-2.296876 8.800781 0 15.898438 7.097657 15.898438 15.898438v342.101562c-5.699219-5.601562-11.199219-11.5-16.398438-17.703124zm0 0" fill="#2e5faf"/><g fill="#fff"><path d="m347.300781 411.699219h-193.300781c-4.101562 0-7.5-3.398438-7.5-7.5 0-4.097657 3.398438-7.5 7.5-7.5h193.398438c4.101562 0 7.5 3.402343 7.5 7.5 0 4.101562-3.398438 7.5-7.597657 7.5zm0 0"/><path d="m323.800781 452.601562h-140.199219c-4.101562 0-7.5-3.402343-7.5-7.5 0-4.101562 3.398438-7.5 7.5-7.5h140.199219c4.097657 0 7.5 3.398438 7.5 7.5 0 4.097657-3.300781 7.5-7.5 7.5zm0 0"/></g></svg>