<svg height="512pt" viewBox="0 0 512 512" width="512pt" xmlns="http://www.w3.org/2000/svg"><path d="m512 256c0 141.386719-114.613281 256-256 256s-256-114.613281-256-256 114.613281-256 256-256 256 114.613281 256 256zm0 0" fill="#fdd33a"/><path d="m469.867188 256c0 118.117188-95.75 213.867188-213.867188 213.867188s-213.867188-95.75-213.867188-213.867188 95.75-213.867188 213.867188-213.867188 213.867188 95.75 213.867188 213.867188zm0 0" fill="#3f6dc9"/><path d="m283.175781 449.113281c-106.078125.003907-192.070312-85.984375-192.078125-192.058593-.003906-106.078126 85.984375-192.074219 192.0625-192.078126 62.894532 0 118.730469 30.230469 153.765625 76.953126-37.886719-59.96875-104.753906-99.800782-180.933593-99.796876-118.117188.003907-213.867188 95.757813-213.859376 213.875.003907 118.117188 95.761719 213.867188 213.875 213.863282 70.3125-.003906 132.695313-33.941406 171.675782-86.320313-35.207032 40.179688-86.890625 65.5625-144.507813 65.5625zm0 0" fill="#2e5faf"/><path d="m421.199219 256c0 91.238281-73.960938 165.199219-165.199219 165.199219s-165.199219-73.960938-165.199219-165.199219 73.960938-165.199219 165.199219-165.199219 165.199219 73.960938 165.199219 165.199219zm0 0" fill="#fff"/><path d="m256 90.800781c-91.238281 0-165.199219 73.960938-165.199219 165.199219s73.960938 165.199219 165.199219 165.199219 165.199219-73.960938 165.199219-165.199219-73.960938-165.199219-165.199219-165.199219zm21.941406 308.148438c-78.949218 0-142.949218-64-142.949218-142.949219s64-142.949219 142.949218-142.949219c78.949219 0 142.953125 64 142.953125 142.949219s-64.003906 142.949219-142.953125 142.949219zm0 0" fill="#ddd"/><path d="m321.65625 178.585938-67.816406 32.328124c-18.804688 8.964844-33.960938 24.121094-42.925782 42.925782l-32.328124 67.816406c-3.574219 7.5 4.257812 15.332031 11.753906 11.757812l67.816406-32.328124c18.808594-8.964844 33.964844-24.121094 42.929688-42.929688l32.328124-67.816406c3.574219-7.496094-4.257812-15.328125-11.757812-11.753906zm0 0" fill="#ea4b57"/><path d="m301.085938 258.160156 32.328124-67.820312c2-4.199219.421876-8.5-2.667968-10.847656l-151.253906 151.253906c2.347656 3.089844 6.648437 4.667968 10.851562 2.667968l67.816406-32.328124c18.804688-8.964844 33.960938-24.121094 42.925782-42.925782zm0 0" fill="#d63649"/><g fill="#393991"><path d="m256.320312 407.511719c-5.480468 0-9.925781-4.445313-9.925781-9.929688v-17.761719c0-5.484374 4.445313-9.925781 9.925781-9.925781 5.484376 0 9.929688 4.441407 9.929688 9.925781v17.761719c0 5.484375-4.445312 9.929688-9.929688 9.929688zm0 0"/><path d="m256.320312 140.015625c-5.480468 0-9.925781-4.441406-9.925781-9.925781v-17.761719c0-5.484375 4.445313-9.929687 9.925781-9.929687 5.484376 0 9.929688 4.445312 9.929688 9.929687v17.761719c0 5.484375-4.445312 9.925781-9.929688 9.925781zm0 0"/><path d="m103.765625 254.957031c0-5.484375 4.445313-9.929687 9.925781-9.929687h17.765625c5.480469 0 9.925781 4.445312 9.925781 9.929687 0 5.480469-4.445312 9.925781-9.925781 9.925781h-17.765625c-5.480468 0-9.925781-4.445312-9.925781-9.925781zm0 0"/><path d="m371.261719 254.957031c0-5.484375 4.441406-9.929687 9.925781-9.929687h17.761719c5.484375 0 9.925781 4.445312 9.925781 9.929687 0 5.480469-4.441406 9.925781-9.925781 9.925781h-17.761719c-5.484375 0-9.925781-4.445312-9.925781-9.925781zm0 0"/></g></svg>