<svg height="511pt" viewBox="1 -5 511.99949 511" width="511pt" xmlns="http://www.w3.org/2000/svg"><path d="m512 251.355469c0 138.546875-112.3125 250.859375-250.859375 250.859375-138.542969 0-250.855469-112.3125-250.855469-250.859375 0-138.542969 112.3125-250.855469 250.855469-250.855469 138.546875 0 250.859375 112.3125 250.859375 250.855469zm0 0" fill="#393991"/><path d="m317.691406 147.167969 40.78125 40.785156-28.296875 28.296875-40.78125-40.78125zm0 0" fill="#fff"/><path d="m213.652344 156.324219 24.136718 24.136719-18.308593 18.3125-24.136719-24.136719zm0 0" fill="#fff"/><path d="m169.542969 200.4375 24.136719 24.136719-18.3125 18.3125-24.136719-24.140625zm0 0" fill="#fff"/><path d="m325.183594 267.851562 24.136718 24.136719-18.3125 18.3125-24.136718-24.136719zm0 0" fill="#fff"/><path d="m281.070312 311.964844 24.136719 24.136718-18.308593 18.3125-24.136719-24.136718zm0 0" fill="#fff"/><path d="m65.074219 233.238281 4.292969 11.847657c.675781 1.863281 2.144531 3.328124 4.007812 4.003906l11.847656 4.292968c5.875 2.128907 5.875 10.4375 0 12.570313l-11.847656 4.292969c-1.863281.675781-3.332031 2.140625-4.007812 4.003906l-4.292969 11.847656c-2.128907 5.875-10.4375 5.875-12.566407 0l-4.292968-11.847656c-.675782-1.863281-2.144532-3.332031-4.007813-4.003906l-11.84375-4.292969c-5.875-2.128906-5.875-10.4375 0-12.570313l11.84375-4.292968c1.863281-.675782 3.332031-2.140625 4.007813-4.003906l4.292968-11.847657c2.128907-5.875 10.4375-5.875 12.566407 0zm0 0" fill="#fdd33a"/><path d="m254.5 427.78125 4.292969 11.84375c.675781 1.863281 2.140625 3.332031 4.003906 4.007812l11.847656 4.292969c5.875 2.128907 5.875 10.4375 0 12.566407l-11.847656 4.292968c-1.863281.675782-3.328125 2.144532-4.003906 4.007813l-4.292969 11.847656c-2.128906 5.875-10.4375 5.875-12.570312 0l-4.292969-11.847656c-.675781-1.863281-2.140625-3.332031-4.003907-4.007813l-11.847656-4.292968c-5.875-2.128907-5.875-10.4375 0-12.566407l11.847656-4.292969c1.863282-.675781 3.328126-2.144531 4.003907-4.007812l4.292969-11.84375c2.132812-5.875 10.441406-5.875 12.570312 0zm0 0" fill="#fdd33a"/><path d="m222.757812 15.144531 4.292969 11.847657c.675781 1.863281 2.144531 3.332031 4.007813 4.007812l11.84375 4.292969c5.875 2.128906 5.875 10.4375 0 12.566406l-11.84375 4.292969c-1.863282.675781-3.332032 2.144531-4.007813 4.007812l-4.292969 11.847656c-2.128906 5.875-10.4375 5.875-12.566406 0l-4.292968-11.847656c-.675782-1.863281-2.144532-3.332031-4.007813-4.007812l-11.847656-4.292969c-5.875-2.128906-5.875-10.4375 0-12.566406l11.847656-4.292969c1.863281-.675781 3.332031-2.144531 4.007813-4.007812l4.292968-11.847657c2.128906-5.875 10.4375-5.875 12.566406 0zm0 0" fill="#fdd33a"/><path d="m63.664062 270.242188-11.847656-4.292969c-5.875-2.128907-5.875-10.4375 0-12.566407l11.847656-4.292968c1.863282-.675782 3.332032-2.144532 4.007813-4.007813l.847656-2.34375-3.445312-9.5c-2.128907-5.875-10.4375-5.875-12.566407 0l-4.292968 11.84375c-.675782 1.863281-2.144532 3.332031-4.007813 4.007813l-11.84375 4.292968c-5.875 2.128907-5.875 10.4375 0 12.566407l11.84375 4.292969c1.863281.675781 3.332031 2.144531 4.007813 4.007812l4.292968 11.847656c2.128907 5.875 10.4375 5.875 12.566407 0l3.445312-9.503906-.847656-2.34375c-.675781-1.863281-2.144531-3.332031-4.007813-4.007812zm0 0" fill="#e8bb2a"/><path d="m253.085938 464.785156-11.847657-4.292968c-5.875-2.128907-5.875-10.4375 0-12.566407l11.847657-4.292969c1.863281-.675781 3.332031-2.144531 4.007812-4.007812l.847656-2.34375-3.441406-9.5c-2.128906-5.875-10.4375-5.875-12.570312 0l-4.292969 11.84375c-.675781 1.863281-2.140625 3.332031-4.003907 4.007812l-11.847656 4.292969c-5.875 2.128907-5.875 10.4375 0 12.566407l11.847656 4.292968c1.863282.675782 3.328126 2.144532 4.003907 4.007813l4.292969 11.847656c2.128906 5.875 10.4375 5.875 12.570312 0l3.441406-9.503906-.847656-2.34375c-.675781-1.863281-2.144531-3.332031-4.007812-4.007813zm0 0" fill="#e8bb2a"/><path d="m222.757812 68.003906 3.441407-9.503906-.847657-2.34375c-.675781-1.863281-2.144531-3.332031-4.007812-4.003906l-11.84375-4.292969c-5.875-2.128906-5.875-10.441406 0-12.570313l11.84375-4.292968c1.863281-.675782 3.332031-2.140625 4.007812-4.003906l.847657-2.34375-3.441407-9.503907c-2.128906-5.875-10.4375-5.875-12.566406 0l-4.292968 11.847657c-.675782 1.863281-2.144532 3.328124-4.007813 4.003906l-11.847656 4.292968c-5.875 2.128907-5.875 10.4375 0 12.570313l11.847656 4.292969c1.863281.671875 3.332031 2.140625 4.007813 4.003906l4.292968 11.847656c2.128906 5.875 10.4375 5.875 12.566406 0zm0 0" fill="#e8bb2a"/><path d="m168.695312 398.703125-61.75-61.753906c-9.378906-9.378907-9.378906-24.582031 0-33.960938l147.15625-147.15625c9.378907-9.378906 24.585938-9.378906 33.964844 0l61.75 61.75c9.378906 9.378907 9.378906 24.585938 0 33.964844l-147.15625 147.15625c-9.378906 9.378906-24.585937 9.378906-33.964844 0zm0 0" fill="#5dc1d8"/><path d="m349.816406 217.582031-29.179687-29.179687c9.378906 9.378906 9.378906 24.582031 0 33.960937l-147.15625 147.15625c-9.378907 9.378907-24.585938 9.378907-33.964844 0l29.179687 29.183594c9.378907 9.378906 24.585938 9.378906 33.964844 0l147.15625-147.15625c9.378906-9.378906 9.378906-24.585937 0-33.964844zm0 0" fill="#47aebf"/><path d="m365.164062 212.953125-72.46875-72.46875c-25.726562-25.726563-25.726562-67.433594 0-93.160156l5.886719-5.890625c3.199219-3.195313 8.386719-3.195313 11.585938 0l154.042969 154.046875c3.199218 3.199219 3.199218 8.386719 0 11.585937l-5.886719 5.886719c-25.726563 25.726563-67.4375 25.726563-93.160157 0zm0 0" fill="#5dc1d8"/><path d="m458.320312 212.953125 5.890626-5.886719c3.199218-3.199218 3.199218-8.386718 0-11.585937l-31.4375-31.4375c-32.886719 27.714843-86.183594 30.335937-116.664063-.144531l49.050781 49.054687c25.726563 25.726563 67.4375 25.726563 93.160156 0zm0 0" fill="#47aebf"/><path d="m472.363281 386.742188-105.773437-105.777344c-4.941406-4.941406-12.953125-4.941406-17.894532 0l-72.828124 72.828125c-4.941407 4.941406-4.941407 12.953125 0 17.894531l101.839843 101.835938c38.566407-20.277344 71.214844-50.285157 94.65625-86.78125zm0 0" fill="#5dc1d8"/><path d="m301.464844 328.195312-25.597656 25.597657c-4.941407 4.941406-4.941407 12.953125 0 17.894531l101.839843 101.835938c9.09375-4.78125 17.847657-10.125 26.242188-15.945313l-102.484375-111.488281c-4.941406-4.941406-4.941406-12.953125 0-17.894532zm0 0" fill="#47aebf"/><path d="m133.960938 229.777344-130.253907-130.253906c-4.941406-4.941407-4.941406-12.953126 0-17.894532l72.824219-72.828125c4.941406-4.941406 12.953125-4.941406 17.894531 0l130.257813 130.257813c4.941406 4.941406 4.941406 12.953125 0 17.894531l-72.828125 72.824219c-4.941407 4.941406-12.953125 4.941406-17.894531 0zm0 0" fill="#5dc1d8"/><path d="m159.046875 204.691406-130.253906-130.253906c-4.941407-4.941406-4.941407-12.953125 0-17.894531l-25.085938 25.085937c-4.941406 4.941406-4.941406 12.953125 0 17.894532l130.253907 130.253906c4.941406 4.941406 12.953124 4.941406 17.894531 0l25.085937-25.085938c-4.941406 4.941406-12.953125 4.941406-17.894531 0zm0 0" fill="#47aebf"/><g fill="#2e5faf"><path d="m361.179688 357.121094-22.054688-22.054688c-2.644531-2.644531-2.644531-6.929687 0-9.574218l22.054688-22.054688c2.644531-2.640625 6.929687-2.640625 9.570312 0l22.058594 22.054688c2.640625 2.644531 2.640625 6.929687 0 9.574218l-22.058594 22.054688c-2.640625 2.644531-6.925781 2.644531-9.570312 0zm0 0"/><path d="m320.398438 397.902344-22.058594-22.054688c-2.640625-2.640625-2.640625-6.929687 0-9.570312l22.058594-22.054688c2.640624-2.644531 6.925781-2.644531 9.570312 0l22.054688 22.054688c2.644531 2.640625 2.644531 6.929687 0 9.570312l-22.054688 22.054688c-2.644531 2.644531-6.929688 2.644531-9.570312 0zm0 0"/><path d="m401.960938 397.902344-22.054688-22.054688c-2.640625-2.640625-2.640625-6.929687 0-9.570312l22.054688-22.054688c2.644531-2.644531 6.929687-2.644531 9.574218 0l22.054688 22.054688c2.644531 2.640625 2.644531 6.929687 0 9.570312l-22.054688 22.054688c-2.644531 2.644531-6.929687 2.644531-9.574218 0zm0 0"/><path d="m361.179688 438.6875-22.054688-22.058594c-2.644531-2.640625-2.644531-6.925781 0-9.570312l22.054688-22.054688c2.644531-2.644531 6.929687-2.644531 9.570312 0l22.058594 22.054688c2.640625 2.644531 2.640625 6.929687 0 9.570312l-22.058594 22.058594c-2.640625 2.644531-6.925781 2.644531-9.570312 0zm0 0"/><path d="m464.929688 397.617188-12.613282-12.613282c-2.640625-2.644531-6.929687-2.644531-9.570312 0l-22.054688 22.054688c-2.644531 2.644531-2.644531 6.929687 0 9.570312l14.929688 14.933594c10.746094-10.40625 20.554687-21.769531 29.308594-33.945312zm0 0"/><path d="m401.960938 425.785156-22.054688 22.058594c-2.640625 2.640625-2.640625 6.925781 0 9.570312l9.511719 9.511719c13.027343-7.769531 25.296875-16.675781 36.660156-26.597656l-14.542969-14.542969c-2.644531-2.644531-6.929687-2.644531-9.574218 0zm0 0"/><path d="m89.015625 84.957031-22.054687-22.054687c-2.644532-2.644532-2.644532-6.929688 0-9.570313l22.054687-22.058593c2.644531-2.640626 6.929687-2.640626 9.574219 0l22.054687 22.058593c2.640625 2.640625 2.640625 6.925781 0 9.570313l-22.054687 22.054687c-2.644532 2.644531-6.929688 2.644531-9.574219 0zm0 0"/><path d="m48.234375 125.742188-22.058594-22.058594c-2.640625-2.640625-2.640625-6.925782 0-9.570313l22.058594-22.054687c2.640625-2.644532 6.929687-2.644532 9.570313 0l22.054687 22.054687c2.644531 2.644531 2.644531 6.929688 0 9.570313l-22.054687 22.058594c-2.640626 2.640624-6.925782 2.640624-9.570313 0zm0 0"/><path d="m129.800781 125.742188-22.058593-22.058594c-2.640626-2.640625-2.640626-6.925782 0-9.570313l22.058593-22.054687c2.640625-2.644532 6.929688-2.644532 9.570313 0l22.054687 22.054687c2.644531 2.644531 2.644531 6.929688 0 9.570313l-22.054687 22.058594c-2.644532 2.640624-6.929688 2.640624-9.570313 0zm0 0"/><path d="m89.015625 166.523438-22.054687-22.054688c-2.644532-2.644531-2.644532-6.929688 0-9.574219l22.054687-22.054687c2.644531-2.644532 6.929687-2.644532 9.574219 0l22.054687 22.054687c2.640625 2.644531 2.640625 6.929688 0 9.574219l-22.054687 22.054688c-2.644532 2.644531-6.929688 2.644531-9.574219 0zm0 0"/><path d="m170.582031 166.523438-22.054687-22.054688c-2.644532-2.644531-2.644532-6.929688 0-9.574219l22.054687-22.054687c2.644531-2.644532 6.929688-2.644532 9.570313 0l22.058594 22.054687c2.640624 2.644531 2.640624 6.929688 0 9.574219l-22.058594 22.054688c-2.640625 2.644531-6.925782 2.644531-9.570313 0zm0 0"/><path d="m129.800781 207.304688-22.058593-22.054688c-2.640626-2.640625-2.640626-6.929688 0-9.570312l22.058593-22.058594c2.640625-2.640625 6.929688-2.640625 9.570313 0l22.054687 22.058594c2.644531 2.640624 2.644531 6.929687 0 9.570312l-22.054687 22.054688c-2.644532 2.644531-6.929688 2.644531-9.570313 0zm0 0"/></g></svg>