<svg height="511pt" viewBox="0 0 511 511.99731" width="511pt" xmlns="http://www.w3.org/2000/svg"><path d="m431.566406 80.929688c-98.613281-98.609376-258.496094-98.609376-357.109375 0-98.613281 98.613281-98.613281 258.496093 0 357.109374 98.613281 98.613282 258.496094 98.613282 357.109375 0 98.609375-98.613281 98.609375-258.496093 0-357.109374zm0 0" fill="#5dc1d8"/><path d="m115.773438 62.703125c6.574218 6.570313 10.363281 14.863281 11.382812 23.425781.796875 6.714844 6.125 12.042969 12.839844 12.839844 8.5625 1.019531 16.855468 4.8125 23.429687 11.382812 6.570313 6.570313 10.359375 14.863282 11.378907 23.429688.800781 6.710938 6.125 12.039062 12.839843 12.839844 8.5625 1.015625 16.855469 4.808594 23.429688 11.378906 6.570312 6.570312 10.363281 14.867188 11.378906 23.429688.800781 6.710937 6.128906 12.039062 12.839844 12.839843 8.5625 1.019531 16.859375 4.808594 23.429687 11.378907 6.570313 6.574218 10.363282 14.867187 11.378906 23.429687.800782 6.714844 6.128907 12.042969 12.84375 12.839844 8.5625 1.019531 16.855469 4.808593 23.425782 11.378906 6.570312 6.574219 10.363281 14.867187 11.382812 23.429687.796875 6.714844 6.125 12.042969 12.839844 12.839844 8.5625 1.019532 16.855469 4.8125 23.429688 11.382813 6.570312 6.570312 10.359374 14.863281 11.378906 23.425781.800781 6.714844 6.125 12.042969 12.839844 12.839844 8.5625 1.019531 16.855468 4.8125 23.429687 11.382812 6.570313 6.570313 10.363281 14.863282 11.378906 23.425782.800781 6.714843 6.128907 12.042968 12.839844 12.84375 8.5625 1.015624 16.859375 4.808593 23.429687 11.378906 2.335938 2.335937 4.316407 4.886718 5.953126 7.59375 5.980468 9.902344 20.5 9.472656 25.867187-.777344 54.375-103.863281 37.9375-235.132812-49.335937-322.40625-87.210938-87.207031-218.355469-103.695312-322.179688-49.46875-10.230469 5.339844-10.820312 19.730469-1.019531 25.820312 2.546875 1.582032 4.953125 3.480469 7.167969 5.695313zm0 0" fill="#ea4b57"/><path d="m214.433594 240.71875c0-19.605469-15.953125-35.558594-35.558594-35.558594-11.164062 0-21.460938 5.089844-28.25 13.964844-2.597656 3.390625-1.953125 8.242188 1.4375 10.835938 3.390625 2.597656 8.242188 1.953124 10.835938-1.4375 3.84375-5.023438 9.667968-7.902344 15.976562-7.902344 11.082031 0 20.097656 9.015625 20.097656 20.097656s-9.015625 20.101562-20.097656 20.101562h-178.359375c.027344 5.15625.210937 10.3125.550781 15.457032h177.808594c19.605469 0 35.558594-15.949219 35.558594-35.558594zm0 0" fill="#fff"/><path d="m146.925781 173.210938c0-19.605469-15.953125-35.558594-35.558593-35.558594-11.164063 0-21.460938 5.089844-28.253907 13.964844-2.59375 3.386718-1.949219 8.242187 1.441407 10.835937 3.390624 2.59375 8.242187 1.949219 10.835937-1.441406 3.84375-5.019531 9.664063-7.898438 15.976563-7.898438 11.082031 0 20.097656 9.015625 20.097656 20.097657 0 11.082031-9.015625 20.097656-20.097656 20.097656h-102.085938c-1.382812 5.121094-2.589844 10.277344-3.648438 15.460937h105.734376c19.605468 0 35.558593-15.953125 35.558593-35.558593zm0 0" fill="#fff"/><path d="m277.566406 216.984375-211.855468 211.859375c2.824218 3.117188 5.738281 6.1875 8.746093 9.195312 2.859375 2.855469 5.769531 5.621094 8.726563 8.3125l211.871094-211.875zm0 0" fill="#3f6dc9"/><path d="m277.566406 216.984375-19.074218 19.078125c.289062 1.304688.519531 2.625.679687 3.949219.796875 6.714843 6.125 12.039062 12.839844 12.839843 1.335937.160157 2.664062.394532 3.984375.6875l19.058594-19.0625zm0 0" fill="#2e5faf"/><path d="m431.820312 80.675781c0-.003906-.003906-.007812-.007812-.007812-28.511719-28.507813-115.296875 9.554687-213.179688 87.878906 2.015626 4.085937 3.292969 8.449219 3.820313 12.882813.800781 6.710937 6.128906 12.039062 12.839844 12.839843 8.5625 1.019531 16.859375 4.808594 23.429687 11.378907 6.570313 6.570312 10.363282 14.867187 11.378906 23.429687.800782 6.714844 6.128907 12.042969 12.84375 12.839844 8.5625 1.019531 16.855469 4.808593 23.425782 11.378906 6.570312 6.574219 10.363281 14.867187 11.382812 23.429687.796875 6.714844 6.125 12.042969 12.839844 12.839844 4.648438.554688 9.214844 1.929688 13.472656 4.121094 78.234375-97.8125 116.242188-184.511719 87.753906-213.011719zm0 0" fill="#d63649"/><path d="m430.019531 78.925781c.007813.003907.019531.007813.027344.011719 0-.003906-.003906-.003906-.003906-.003906-.003907-.003906-.003907-.007813-.007813-.011719-27.253906-26.773437-58.6875-46.734375-92.179687-59.882813 0 0 0 0-.003907 0-1.671874-.65625-3.347656-1.296874-5.027343-1.917968-.011719-.003906-.019531-.007813-.027344-.011719-1.675781-.617187-3.351563-1.21875-5.035156-1.804687-.019531-.007813-.039063-.015626-.058594-.023438-1.671875-.578125-3.34375-1.144531-5.023437-1.691406-.035157-.011719-.074219-.023438-.109376-.035156-1.664062-.542969-3.328124-1.066407-5-1.574219-.054687-.019531-.109374-.035157-.167968-.050781-1.652344-.503907-3.308594-.992188-4.96875-1.464844-.070313-.019532-.136719-.035156-.203125-.054688-1.648438-.464844-3.300781-.917968-4.957031-1.351562-.085938-.023438-.171876-.042969-.257813-.066406-1.636719-.429688-3.277344-.84375-4.921875-1.242188-.101562-.023438-.207031-.046875-.3125-.074219-1.625-.390625-3.253906-.769531-4.886719-1.128906-.121093-.027344-.242187-.050781-.367187-.078125-1.613282-.355469-3.230469-.699219-4.847656-1.023438-.144532-.03125-.285157-.054687-.429688-.085937-1.597656-.316406-3.199219-.625-4.804688-.917969-.164062-.027344-.328124-.054687-.496093-.085937-1.582031-.28125-3.167969-.554688-4.753907-.8125-.183593-.03125-.371093-.054688-.554687-.085938-1.566406-.25-3.136719-.488281-4.707031-.710937-.207032-.03125-.417969-.054688-.625-.085938-1.550782-.214844-3.101563-.421875-4.65625-.609375-.222656-.03125-.449219-.054687-.671875-.078125-1.539063-.183594-3.074219-.359375-4.613281-.519531-.25-.023437-.5-.046875-.75-.070313-1.511719-.152343-3.023438-.292968-4.539063-.421874-.28125-.023438-.558594-.042969-.839844-.0625-1.488281-.121094-2.976562-.230469-4.464843-.328126-.300782-.019531-.597657-.03125-.898438-.050781-1.46875-.089843-2.9375-.171875-4.410156-.238281-.328125-.011719-.652344-.023438-.980469-.035156-1.445313-.058594-2.886719-.113282-4.332031-.1484378-.351563-.0117187-.703125-.015625-1.058594-.0195312-1.417969-.03125-2.839844-.0585938-4.257812-.0664062-.378907-.0039063-.753907 0-1.128907 0-1.394531-.0039063-2.789062 0-4.1875.015625-.402343.0078124-.808593.0195312-1.214843.0273437-1.367188.0234375-2.734376.0507815-4.101563.0937505-.429687.011718-.859375.035156-1.292969.050781-1.339844.050781-2.683594.101562-4.027344.167969-.449218.023437-.898437.054687-1.351562.082031-1.320312.074219-2.636719.148437-3.957031.242187-.480469.035156-.960938.078125-1.441407.113282-1.289062.097656-2.578124.195312-3.867187.3125-.503906.046874-1.011719.101562-1.515625.148437-1.261719.121094-2.523438.242187-3.785156.378906-.53125.058594-1.058594.125-1.589844.1875-1.234375.140625-2.46875.285157-3.703125.441407-.554687.074218-1.109375.15625-1.664063.230468-1.207031.164063-2.414062.324219-3.621093.503906-.578125.085938-1.152344.183594-1.730469.273438-1.179688.183594-2.359375.363281-3.539062.5625-.605469.101562-1.210938.214844-1.8125.320312-1.152344.199219-2.300782.398438-3.449219.617188-.625.117188-1.246094.246094-1.867188.367188-1.128906.222656-2.253906.4375-3.378906.671874-.644531.136719-1.289063.28125-1.933594.421876-1.097656.238281-2.195312.46875-3.292969.722656-.671874.152344-1.339843.320312-2.011718.476562-1.066406.253906-2.132813.503906-3.199219.769532-.699219.171874-1.394531.359374-2.089844.539062-1.035156.265625-2.070312.527344-3.097656.808594-.722656.195312-1.441406.402344-2.160156.605468-1.003907.277344-2.011719.554688-3.011719.84375-.742188.21875-1.476562.445313-2.214844.667969-.980468.292969-1.957031.582031-2.933594.886719-.769531.242188-1.539062.496094-2.304687.746094-.9375.300781-1.878906.597656-2.816406.910156-.800781.269531-1.597657.550781-2.398438.828125-.902343.308594-1.804687.613281-2.703125.933594-.816406.292969-1.632812.601562-2.449218.898437-.871094.320313-1.75.636719-2.621094.964844-.835938.320312-1.671875.652344-2.507813.980469-.84375.328125-1.691406.648437-2.535156.988281-.855469.34375-1.703125.703125-2.554687 1.054688-.820313.339843-1.640626.667968-2.453126 1.015624-.890624.375-1.777343.773438-2.664062 1.160157-.769531.335937-1.546875.664062-2.316406 1.011719-.945313.425781-1.890625.867187-2.835938 1.304687-.699218.324219-1.40625.636719-2.105468.96875-1.050782.496094-2.09375 1.011719-3.136719 1.519531-.589844.289063-1.183594.566406-1.773438.859375-1.628906.8125-3.25 1.636719-4.867187 2.480469-.367188.191406-.714844.398438-1.054688.609375-.082031.050781-.15625.101563-.234375.152344-.027343.019531-.054687.039062-.082031.054687-.230469.152344-.460938.3125-.679688.476563-.054687.039062-.105468.078125-.15625.117187-.058593.046875-.113281.085938-.171874.128906-.214844.171876-.421876.34375-.625.523438-.089844.078125-.183594.15625-.269532.238281-.28125.257813-.554687.523438-.8125.800781-.300781.324219-.578125.660157-.84375 1.003907-.066406.085937-.132812.171875-.195312.261719-.257813.34375-.503906.699218-.722656 1.0625-.003907 0-.003907 0-.003907 0-.085937.140624-.160156.28125-.238281.421874-.078125.136719-.164062.277344-.238281.417969-.1875.363281-.355469.734375-.515625 1.109375-.035156.082032-.066406.164063-.101563.246094-.003906.019531-.015625.039062-.023437.058594-.125.320312-.242188.648437-.347656.976562-.019532.0625-.042969.121094-.0625.183594-.117188.386719-.214844.773438-.300782 1.164062-.007812.039063-.015625.074219-.023437.109376-.011719.0625-.023438.125-.035157.1875-.0625.320312-.117187.644531-.160156.96875-.011718.089843-.027344.179687-.035156.273437-.046875.394531-.074219.792969-.089844 1.191406-.003906.082031 0 .164063 0 .246094-.007812.332031 0 .664063.015625.992187.003907.105469.007813.210938.015625.316407.027344.398437.070313.800781.128906 1.195312.003907.039063.015626.078125.019532.117188.058594.363281.132812.722656.214844 1.078125.027343.109375.054687.214844.082031.320312.089843.355469.195312.710938.3125 1.058594.007812.019531.011719.035156.019531.054688.007812.019531.011719.039062.019531.058593.132813.382813.285157.757813.453125 1.128907.042969.097656.089844.195312.132813.289062.144531.304688.300781.605469.46875.902344.039062.074218.078125.148437.121093.222656.207032.351562.429688.699219.667969 1.039062.054688.074219.109375.148438.164063.222657.003906 0 .003906.003906.007812.003906.199219.277344.414063.546875.636719.808594.070313.082031.136719.160156.207031.238281.28125.320312.574219.625.890625.921875.011719.011719.027344.023437.039063.035156.035156.035157.078125.070313.117187.105469.273438.25.5625.496094.863281.730469.03125.027343.0625.050781.09375.074219.0625.046874.125.097656.1875.144531.359376.269531.730469.53125 1.125.777343.636719.394532 1.265626.8125 1.882813 1.246094.558594.390625 1.101563.804688 1.644531 1.226563.15625.125.3125.253906.472656.382812.398438.320313.789063.648438 1.179688.988281.554688.484376 1.097656.988282 1.628906 1.507813.117188.113281.238282.222656.355469.335937 0 0 .003906.003907.003906.003907.515625.519531 1.011719 1.050781 1.492188 1.589843.058593.066407.117187.132813.175781.199219h.003906c.398438.449219.785156.90625 1.15625 1.371094.03125.039063.0625.074219.09375.117187.6875.851563 1.332032 1.730469 1.9375 2.625.082032.117188.160156.234376.238282.355469.3125.472657.613281.953125.90625 1.433594v.003906c.007812.011719.015624.023438.023437.035157.707031 1.183593 1.347656 2.394531 1.921875 3.628906.011719.027344.023438.054687.035156.082031.261719.566406.511719 1.140625.746094 1.714844.019531.054687.042969.105469.0625.160156.238281.597656.464844 1.199219.675781 1.804687.089844.257813.171875.511719.257813.769532v.003906.003906c.296875.910156.5625 1.828125.789062 2.753906.386719 1.578126.671875 3.171876.863282 4.777344.039062.324219.097656.640625.15625.957032.042968.222656.089843.441406.140624.660156.019532.070312.035157.140625.054688.207031.003906.023437.011719.046875.015625.070313 1.484375 5.800781 6.40625 10.226562 12.476563 10.945312 1.476562.175781 2.945312.441406 4.398437.78125.230469-.160156.457031-.324219.691406-.480469 105.378907-69.925781 221.605469-81.296875 284.9375-20.34375zm0 0" fill="#c92f49"/></svg>