<svg height="512pt" viewBox="0 -3 512.01192 512" width="512pt" xmlns="http://www.w3.org/2000/svg"><path d="m479.164062 114.777344h25.609376c3.667968 0 6.640624 2.972656 6.640624 6.640625 0 3.664062-2.972656 6.640625-6.640624 6.640625h-25.609376c-3.667968 0-6.640624-2.976563-6.640624-6.640625 0-3.667969 2.972656-6.640625 6.640624-6.640625zm0 0" fill="#fdd33a"/><path d="m499.722656 261.871094c0 135.308594-109.6875 245-245 245-135.308594 0-245-109.691406-245-245 0-135.3125 109.691406-245 245-245 135.3125 0 245 109.6875 245 245zm0 0" fill="#3f6dc9"/><path d="m462.089844 121.414062c0-39.734374-32.214844-71.949218-71.953125-71.949218-38.226563 0-69.472657 29.816406-71.792969 67.457031 43.1875 11.148437 81.921875 33.375 112.992188 63.46875 18.585937-13.007813 30.753906-34.566406 30.753906-58.976563zm0 0" fill="#fdd33a"/><path d="m331.75 120.789062c.347656.113282.695312.222657 1.039062.335938 2.035157.65625 4.0625 1.335938 6.074219 2.042969.226563.078125.453125.160156.675781.242187 2.109376.746094 4.207032 1.515625 6.289063 2.316406 32.171875 12.375 61.1875 31.105469 85.507813 54.664063 3.464843-2.425781 6.703124-5.148437 9.683593-8.128906-26.945312-25.859375-59.121093-46.304688-94.78125-59.59375 3.761719-31.042969 27.289063-55.992188 57.628907-61.878907-.335938-.066406-.679688-.121093-1.019532-.183593-.710937-.125-1.421875-.253907-2.140625-.359375-.46875-.070313-.945312-.121094-1.417969-.179688-.679687-.089844-1.359374-.179687-2.042968-.25-.625-.058594-1.257813-.097656-1.886719-.140625-.542969-.039062-1.082031-.09375-1.632813-.117187-1.1875-.0625-2.382812-.09375-3.589843-.09375-.019531 0-.042969.003906-.0625.003906-1.195313 0-2.386719.03125-3.570313.089844-.414062.019531-.820312.0625-1.234375.089844-.785156.050781-1.570312.101562-2.347656.179687-.492187.046875-.972656.117187-1.460937.175781-.691407.085938-1.386719.160156-2.074219.265625-.515625.078125-1.023438.175781-1.539063.261719-.644531.113281-1.296875.21875-1.9375.347656-.53125.109375-1.058594.234375-1.582031.351563-.613281.136719-1.226563.269531-1.835937.421875-.539063.136718-1.070313.292968-1.605469.441406-.582031.160156-1.167969.316406-1.742188.492188-.542969.167968-1.082031.347656-1.617187.527343-.558594.183594-1.113282.363281-1.660156.5625-.546876.195313-1.085938.40625-1.625.613281-.53125.203126-1.058594.40625-1.578126.621094-.546874.226563-1.089843.46875-1.628906.707032-.5.222656-1.003906.445312-1.5.675781-.542968.257812-1.085937.527343-1.621094.796875-.476562.238281-.949218.476562-1.417968.726562-.546875.289063-1.085938.589844-1.621094.890625-.445312.25-.890625.503907-1.332031.765625-.542969.324219-1.082031.652344-1.617188.988282-.417969.261718-.832031.527343-1.242187.796874-.542969.355469-1.082032.722657-1.613282 1.09375-.382812.265626-.765624.539063-1.148437.816407-.539063.394531-1.078125.792969-1.605469 1.199219-.355468.273437-.703125.546874-1.050781.828124-.542969.429688-1.074219.867188-1.605469 1.316407-.316406.269531-.632812.546875-.949218.820312-.539063.472657-1.074219.953125-1.597657 1.441407-.28125.265624-.5625.535156-.839843.800781-.535157.519531-1.070313 1.042969-1.59375 1.578125-.246094.25-.484376.507812-.730469.765625-.535157.566406-1.070313 1.136719-1.589844 1.722656-.203125.230469-.40625.46875-.609375.703125-.539062.621094-1.070312 1.25-1.589844 1.890625-.164062.199219-.320312.40625-.480468.609375-.542969.6875-1.078126 1.378906-1.59375 2.085938-.117188.15625-.226563.316406-.339844.472656-.550782.765625-1.089844 1.535156-1.609375 2.320312-.058594.085938-.113281.175782-.171875.265625-6.050782 9.21875-10.035156 19.910157-11.308594 31.421875-.023438.183594-.042969.363282-.0625.546875-.101562.984375-.1875 1.972657-.25 2.964844 2.144531.554687 4.277344 1.144531 6.402344 1.753906.3125.085938.625.175781.933594.265625 2.035156.589844 4.058593 1.207032 6.070312 1.847656zm0 0" fill="#e8bb2a"/><path d="m455.449219 115.488281c0 8.773438-7.113281 15.886719-15.886719 15.886719-8.777344 0-15.890625-7.113281-15.890625-15.886719 0-8.773437 7.113281-15.886719 15.890625-15.886719 8.773438 0 15.886719 7.113282 15.886719 15.886719zm0 0" fill="#ffdc7b"/><path d="m431.261719 88.21875c0 5.5-4.460938 9.957031-9.960938 9.957031s-9.957031-4.457031-9.957031-9.957031 4.457031-9.960938 9.957031-9.960938 9.960938 4.460938 9.960938 9.960938zm0 0" fill="#ffdc7b"/><path d="m383.363281 32.257812v-25.613281c0-3.664062 2.972657-6.6367185 6.636719-6.6367185 3.667969 0 6.640625 2.9726565 6.640625 6.6367185v25.613281c0 3.664063-2.972656 6.636719-6.640625 6.636719-3.664062 0-6.636719-2.972656-6.636719-6.636719zm0 0" fill="#fc8e36"/><g fill="#fdd33a"><path d="m383.363281 32.257812v-25.613281c0-3.664062 2.972657-6.6367185 6.636719-6.6367185 3.667969 0 6.640625 2.9726565 6.640625 6.6367185v25.613281c0 3.664063-2.972656 6.636719-6.640625 6.636719-3.664062 0-6.636719-2.972656-6.636719-6.636719zm0 0"/><path d="m448.351562 53.675781 18.109376-18.109375c2.59375-2.59375 6.796874-2.59375 9.390624 0s2.59375 6.796875 0 9.390625l-18.109374 18.109375c-2.59375 2.589844-6.796876 2.589844-9.390626 0-2.59375-2.59375-2.59375-6.796875 0-9.390625zm0 0"/><path d="m331.652344 53.675781-18.109375-18.109375c-2.59375-2.59375-6.796875-2.59375-9.390625 0s-2.59375 6.796875 0 9.390625l18.109375 18.109375c2.589843 2.589844 6.796875 2.589844 9.390625 0 2.589844-2.59375 2.589844-6.796875 0-9.390625zm0 0"/></g><path d="m26.5625 308.105469c9.027344 0 17.328125 3.089843 23.910156 8.273437 5.160156 4.0625 12.480469 4.0625 17.640625 0 6.582031-5.183594 14.882813-8.273437 23.914063-8.273437 9.023437 0 17.328125 3.089843 23.910156 8.273437 5.160156 4.0625 12.476562 4.0625 17.640625 0 6.578125-5.183594 14.882813-8.273437 23.910156-8.273437 9.027344 0 17.328125 3.089843 23.910157 8.273437 5.160156 4.0625 12.480468 4.0625 17.640624 0 6.582032-5.183594 14.882813-8.273437 23.910157-8.273437 9.027343 0 17.328125 3.089843 23.910156 8.273437 5.160156 4.0625 12.480469 4.0625 17.640625 0 6.582031-5.183594 14.882812-8.273437 23.910156-8.273437s17.332032 3.089843 23.914063 8.273437c5.160156 4.0625 12.476562 4.0625 17.636719 0 6.582031-5.183594 14.882812-8.273437 23.914062-8.273437 9.027344 0 17.328125 3.089843 23.910156 8.273437 5.160156 4.0625 12.476563 4.0625 17.640625 0 6.578125-5.183594 14.882813-8.273437 23.910157-8.273437 9.027343 0 17.328124 3.089843 23.910156 8.273437 5.160156 4.0625 12.480468 4.0625 17.640625 0 6.582031-5.183594 14.882812-8.273437 23.910156-8.273437 3.207031 0 6.324219.386719 9.304687 1.125 10.914063 2.695312 20.589844-7.574219 17.234376-18.300781-33.992188-108.695313-135.453126-187.574219-255.347657-187.574219-119.808593 0-221.222656 78.757812-255.289062 187.324219-3.359375 10.695312 6.121093 20.988281 17.035156 18.4375 2.832031-.664063 5.789063-1.011719 8.828125-1.011719zm0 0" fill="#ea4b57"/><path d="m243.675781 302.945312v203.664063c3.664063.164063 7.34375.261719 11.050781.261719 4.355469 0 8.679688-.117188 12.980469-.34375v-203.582032zm0 0" fill="#fdd33a"/><path d="m243.675781 302.945312v26.207032c1.097657.695312 2.164063 1.441406 3.183594 2.246094 5.15625 4.0625 12.476563 4.0625 17.636719 0 1.03125-.808594 2.101562-1.5625 3.210937-2.265626v-26.1875zm0 0" fill="#e8bb2a"/><path d="m256.003906 103.355469c-.003906 0-.007812 0-.011718 0-39.167969.003906-72.632813 85.761719-86.070313 206.796875 4.191406 1.425781 8.066406 3.542968 11.472656 6.226562 5.164063 4.0625 12.480469 4.0625 17.640625 0 6.582032-5.183594 14.882813-8.273437 23.914063-8.273437 9.023437 0 17.328125 3.089843 23.910156 8.273437 5.160156 4.0625 12.476563 4.0625 17.640625 0 6.578125-5.183594 14.882812-8.273437 23.910156-8.273437s17.328125 3.089843 23.910156 8.273437c5.160157 4.0625 12.480469 4.0625 17.640626 0 3.574218-2.8125 7.65625-5.003906 12.085937-6.425781-13.453125-120.929687-46.902344-206.589844-86.042969-206.597656zm0 0" fill="#fff"/><path d="m253.5625 103.394531c.011719-.007812.019531-.011719.027344-.015625-.003906 0-.003906 0-.007813 0-.003906 0-.007812 0-.011719 0-37.109374.328125-72.414062 8.210938-104.453124 22.183594-1.601563.699219-3.191407 1.410156-4.773438 2.140625-.011719.003906-.019531.007813-.027344.011719-1.574218.722656-3.140625 1.460937-4.695312 2.214844-.019532.007812-.039063.019531-.058594.027343-1.546875.75-3.082031 1.511719-4.613281 2.289063-.03125.015625-.066407.03125-.097657.050781-1.515624.769531-3.019531 1.550781-4.515624 2.351563-.050782.027343-.097657.050781-.148438.078124-1.480469.792969-2.953125 1.59375-4.421875 2.410157-.058594.035156-.117187.066406-.175781.101562-1.453125.8125-2.894532 1.636719-4.332032 2.476563-.074218.042968-.148437.085937-.222656.128906-1.417968.832031-2.832031 1.675781-4.234375 2.53125-.085937.054688-.175781.109375-.261719.164062-1.386718.847657-2.765624 1.707032-4.136718 2.578126-.101563.066406-.203125.132812-.304688.199218-1.355468.863282-2.699218 1.738282-4.035156 2.628906-.117188.078126-.234375.15625-.351562.234376-1.320313.878906-2.628907 1.769531-3.929688 2.671874-.136719.09375-.269531.1875-.402344.28125-1.28125.890626-2.558594 1.792969-3.824218 2.707032-.148438.105468-.292969.214844-.441407.320312-1.246093.90625-2.488281 1.820313-3.722656 2.746094-.160156.121094-.320313.246094-.484375.371094-1.214844.914062-2.421875 1.839844-3.617188 2.777344-.175781.136718-.34375.273437-.519531.410156-1.179687.929687-2.355469 1.863281-3.519531 2.8125-.191406.152344-.375.308594-.566406.464844-1.140625.933593-2.277344 1.875-3.40625 2.828124-.207032.175782-.414063.355469-.621094.535157-1.101562.9375-2.203125 1.882812-3.292969 2.84375-.21875.191406-.433593.386719-.652343.582031-1.070313.945312-2.132813 1.898438-3.191407 2.863281-.234375.214844-.464843.433594-.699219.648438-1.03125.949219-2.058593 1.90625-3.078124 2.871093-.246094.238282-.492188.476563-.738282.714844-1 .953125-1.992187 1.910156-2.972656 2.882813-.261719.257812-.515625.515625-.773438.773437-.960937.957032-1.921874 1.917969-2.867187 2.890625-.273437.277344-.542969.566407-.816406.847657-.921875.957031-1.84375 1.914062-2.753907 2.882812-.285156.308594-.566406.617188-.851562.921875-.886719.957031-1.773438 1.914063-2.648438 2.886719-.292968.324218-.582031.652344-.875.980468-.855468.957032-1.707031 1.917969-2.550781 2.886719-.308593.355469-.605469.710938-.914062 1.066407-.816407.953124-1.636719 1.90625-2.441407 2.871093-.316406.378907-.625.761719-.941406 1.144531-.78125.949219-1.566406 1.898438-2.335937 2.859376-.324219.402343-.640625.816406-.964844 1.21875-.75.949218-1.5 1.894531-2.238281 2.847656-.332032.433594-.65625.867187-.988282 1.300781-.714843.941406-1.433593 1.882813-2.136718 2.832031-.339844.457032-.667969.917969-1.003906 1.378906-.683594.933594-1.371094 1.871094-2.042969 2.816407-.347657.484375-.683594.976562-1.027344 1.464843-.648437.929688-1.304687 1.855469-1.941406 2.792969-.347657.507813-.6875 1.027344-1.03125 1.539063-.625.921875-1.246094 1.847656-1.859375 2.777344-.351563.539062-.691406 1.082031-1.039063 1.621093-.59375.917969-1.1875 1.832031-1.765625 2.757813-.355468.566406-.703125 1.140625-1.054687 1.710937-.558594.90625-1.121094 1.808594-1.671875 2.722657-.359375.597656-.707032 1.207031-1.0625 1.808593-.527344.894531-1.058594 1.785157-1.574219 2.683594-.363281.628906-.714844 1.265625-1.070313 1.898437-.496093.882813-1 1.761719-1.488281 2.648438-.359375.65625-.707031 1.320312-1.0625 1.980469-.46875.875-.945312 1.746093-1.40625 2.625-.363281.695312-.710937 1.394531-1.070312 2.09375-.4375.851562-.878907 1.703125-1.308594 2.558593-.367187.734376-.71875 1.476563-1.078125 2.214844-.40625.832032-.820312 1.664063-1.214844 2.5-.363281.761719-.710937 1.53125-1.066406 2.296875-.378906.824219-.765625 1.640625-1.136719 2.464844-.359375.792969-.703125 1.597656-1.050781 2.394531-.355469.808594-.714844 1.609375-1.0625 2.421875-.351562.824219-.6875 1.652344-1.03125 2.480469-.332031.792969-.667969 1.582031-.988281 2.382812-.355469.871094-.691407 1.75-1.03125 2.625-.300781.761719-.605469 1.519532-.898438 2.285157-.359375.941406-.703125 1.894531-1.050781 2.84375-.257812.703125-.527344 1.40625-.78125 2.113281-.378906 1.0625-.742188 2.132812-1.109375 3.199219-.207031.601562-.425781 1.199219-.628906 1.804687-.5625 1.675782-1.109375 3.359375-1.640625 5.050782-.117188.382812-.21875.761718-.304688 1.144531-.019531.085937-.039062.175781-.054687.265625-.007813.027344-.011719.058594-.019531.089844-.054688.265624-.101563.53125-.140626.796874-.007812.0625-.019531.125-.027343.1875-.007813.070313-.019531.136719-.027344.207032-.03125.261718-.0546875.527344-.0703125.789062-.0078125.113282-.0195313.230469-.0234375.347656-.015625.371094-.01953125.738282-.0078125 1.105469.015625.429688.0585937.851563.1093755 1.273438.015624.101562.027343.207031.042968.308593.0625.414063.136719.828126.234375 1.230469v.003907c.039063.148437.082031.300781.125.449218.042969.148438.078125.300782.125.449219.121094.378906.257813.75.40625 1.117187.035157.082032.066407.160157.101563.238282.007812.019531.015625.039062.023437.054687.132813.3125.277344.617188.429688.914063.03125.054687.054687.113281.085937.167968.183594.34375.382813.679688.59375 1.007813.015625.03125.039063.0625.058594.089844.035156.054687.066406.101562.101562.152343.179688.265626.363282.523438.554688.773438.054688.070312.109375.144531.164062.214844.242188.304687.496094.597656.757813.878906.054687.058594.113281.113281.167969.171875.226562.230469.457031.453125.695312.671875.074219.066406.148438.136719.226563.203125.292969.253906.597656.503906.910156.734375.03125.023438.066406.042969.09375.066406.289063.210938.585937.40625.890625.59375.089844.054688.179688.109375.269531.164063.308594.179687.625.351562.945313.511719.015625.007812.035156.015624.050781.023437.019531.011719.035156.019531.054687.027344.351563.171875.71875.324219 1.085938.464843.097656.039063.195312.070313.289062.105469.3125.113281.625.210938.945313.300781.078125.023438.152344.046876.234375.070313.382812.101563.773438.183594 1.171875.253906.089844.011719.179687.023438.265625.039063h.007812c.328126.050781.660157.089844.996094.113281.101563.011719.203125.019531.304688.027344.414062.023437.828125.03125 1.246094.019531.015624 0 .035156-.003906.050781-.003906.050781 0 .101562-.007813.152343-.007813.363282-.015625.730469-.046875 1.097657-.089843.039062-.003907.078125-.011719.113281-.015626.078125-.011718.152344-.019531.230469-.027343.429687-.0625.867187-.136719 1.304687-.242188.707032-.164062 1.425782-.308593 2.148438-.4375.652344-.113281 1.308594-.203125 1.972656-.285156.195312-.023437.390625-.042969.585938-.0625.496093-.050781.992187-.09375 1.492187-.128906.714844-.046875 1.433594-.074219 2.15625-.085938.160156 0 .316406-.011719.472656-.011719h.003907.003906c.710937 0 1.414062.027344 2.117187.0625.085938.007813.171875.011719.257813.019532.585937.035156 1.164062.082031 1.738281.144531.050781.003906.097656.007813.144531.015625 1.058594.113281 2.105469.273438 3.132813.472656h.003906c.132813.027344.269531.050782.40625.078125.539063.113281 1.074219.234375 1.605469.367188h.003906c.011719 0 .027344.003906.039062.007812 1.296876.328125 2.570313.71875 3.8125 1.171875.027344.011719.054688.023438.082032.03125.570312.210938 1.132812.433594 1.691406.667969.050781.019531.101562.042969.152344.066406.574218.246094 1.140625.503907 1.703125.773438.238281.117187.472656.234375.707031.351562 0 0 0 .003907.003906.003907h.003906c.824219.425781 1.636719.871093 2.429688 1.351562 1.347656.820312 2.644531 1.714844 3.875 2.6875.25.195312.507812.375.765625.550781.183594.125.367187.242188.550781.355469.058594.039062.121094.074219.179688.109375.019531.011719.039062.023437.058594.035156 5.003906 2.964844 11.421874 2.621094 16.085937-1.050781 1.136719-.894531 2.328125-1.722656 3.5625-2.484375.042969-.269531.085937-.539063.144531-.808594 24.347656-120.410156 96.375-208.058593 181.746094-209.6875zm0 0" fill="#c92f49"/></svg>