<svg height="511pt" viewBox="0 -2 511.99508 511" width="511pt" xmlns="http://www.w3.org/2000/svg"><path d="m501.347656 261.816406c0 135.476563-109.824218 245.300782-245.296875 245.300782-135.476562 0-245.300781-109.824219-245.300781-245.300782 0-135.476562 109.824219-245.300781 245.300781-245.300781 135.472657 0 245.296875 109.824219 245.296875 245.300781zm0 0" fill="#fdd33a"/><path d="m26.5625 313.164062c9.027344 0 17.328125 3.089844 23.910156 8.273438 5.160156 4.0625 12.476563 4.0625 17.636719 0 6.582031-5.183594 14.882813-8.273438 23.910156-8.273438 9.027344 0 17.332031 3.089844 23.910157 8.273438 5.160156 4.0625 12.480468 4.0625 17.640624 0 6.582032-5.183594 14.882813-8.273438 23.910157-8.273438 9.027343 0 17.328125 3.089844 23.910156 8.273438 5.160156 4.0625 12.480469 4.0625 17.640625 0 6.582031-5.183594 14.882812-8.273438 23.910156-8.273438s17.328125 3.089844 23.910156 8.273438c5.160157 4.0625 12.480469 4.0625 17.640626 0 6.578124-5.183594 14.882812-8.273438 23.910156-8.273438s17.328125 3.089844 23.910156 8.273438c5.160156 4.0625 12.476562 4.0625 17.636719 0 6.582031-5.183594 14.886719-8.273438 23.910156-8.273438 9.027344 0 17.332031 3.089844 23.910156 8.273438 5.164063 4.0625 12.480469 4.0625 17.640625 0 6.582032-5.183594 14.882813-8.273438 23.910156-8.273438 9.027344 0 17.328126 3.089844 23.910157 8.273438 5.160156 4.0625 12.480469 4.0625 17.640625 0 6.582031-5.183594 14.882812-8.273438 23.910156-8.273438 3.207031 0 6.324219.390626 9.304688 1.125 10.910156 2.695313 20.589843-7.574218 17.234374-18.300781-33.992187-108.695312-135.453124-187.574219-255.351562-187.574219-119.800781 0-221.210938 78.757813-255.28125 187.328126-3.355469 10.691406 6.121094 20.984374 17.039062 18.433593 2.835938-.664062 5.792969-1.011719 8.835938-1.011719zm0 0" fill="#ea4b57"/><path d="m243.675781 308.003906v198.800782c4.097657.207031 8.222657.3125 12.375.3125 3.90625 0 7.789063-.101563 11.652344-.285157v-198.828125zm0 0" fill="#3f6dc9"/><path d="m243.675781 308.003906v26.207032c1.097657.695312 2.160157 1.441406 3.179688 2.246093 5.160156 4.0625 12.480469 4.0625 17.640625 0 1.027344-.8125 2.101562-1.5625 3.207031-2.265625v-26.1875zm0 0" fill="#2e5faf"/><path d="m256 108.414062c-.003906 0-.007812 0-.007812 0-39.167969.003907-72.636719 85.761719-86.074219 206.800782 4.195312 1.421875 8.066406 3.539062 11.476562 6.222656 5.160157 4.0625 12.480469 4.0625 17.640625 0 6.578125-5.183594 14.882813-8.273438 23.910156-8.273438 9.027344 0 17.328126 3.089844 23.910157 8.273438 5.160156 4.0625 12.476562 4.0625 17.636719 0 6.582031-5.183594 14.886718-8.273438 23.910156-8.273438 9.027344 0 17.332031 3.089844 23.910156 8.273438 5.164062 4.0625 12.480469 4.0625 17.640625 0 3.574219-2.8125 7.65625-5.003906 12.085937-6.425781-13.449218-120.925781-46.894531-206.585938-86.039062-206.597657zm0 0" fill="#d63649"/><path d="m253.5625 108.453125c.007812-.003906.015625-.007813.023438-.015625h-.003907c-.003906 0-.007812 0-.011719 0-37.109374.328125-72.417968 8.210938-104.457031 22.183594v.003906c-1.597656.695312-3.191406 1.410156-4.773437 2.136719-.007813.003906-.015625.007812-.027344.011719-1.574219.722656-3.136719 1.460937-4.695312 2.214843-.019532.007813-.039063.019531-.058594.027344-1.542969.75-3.082032 1.511719-4.609375 2.289063-.035157.015624-.066407.035156-.101563.050781-1.511718.769531-3.015625 1.554687-4.515625 2.351562-.046875.027344-.097656.054688-.148437.078125-1.480469.792969-2.953125 1.59375-4.417969 2.414063-.058594.03125-.117187.066406-.175781.097656-1.453125.8125-2.898438 1.636719-4.335938 2.476563-.074218.042968-.144531.085937-.222656.132812-1.417969.828125-2.828125 1.671875-4.230469 2.527344-.089843.054687-.175781.109375-.265625.164062-1.386718.847656-2.765625 1.707032-4.132812 2.582032-.105469.0625-.207032.132812-.308594.195312-1.351562.867188-2.699219 1.742188-4.035156 2.628906-.117188.078125-.230469.160156-.351563.238282-1.316406.878906-2.628906 1.765624-3.929687 2.667968-.132813.09375-.265625.1875-.398438.28125-1.285156.894532-2.558594 1.792969-3.824218 2.707032-.148438.109374-.296876.21875-.441407.324218-1.25.90625-2.492187 1.820313-3.722656 2.746094-.164063.121094-.324219.246094-.488281.367188-1.210938.917968-2.417969 1.839843-3.617188 2.777343-.171875.136719-.34375.277344-.515625.410157-1.183593.929687-2.355469 1.863281-3.523437 2.8125-.1875.15625-.375.3125-.5625.464843-1.144532.9375-2.28125 1.878907-3.410156 2.832031-.207032.175782-.410157.355469-.617188.53125-1.105469.941407-2.207031 1.886719-3.292969 2.84375-.21875.191407-.4375.390626-.65625.582032-1.070312.949218-2.136719 1.902344-3.191406 2.867187-.234375.214844-.464844.429688-.699219.648438-1.03125.949219-2.058594 1.90625-3.078125 2.871093-.246093.234376-.492187.476563-.738281.710938-.996094.957031-1.988281 1.914062-2.972656 2.882812-.257813.257813-.515625.519532-.773438.777344-.960937.957032-1.917968 1.914063-2.867187 2.886719-.273438.28125-.542969.566406-.816407.851563-.921874.953124-1.84375 1.910156-2.753906 2.882812-.285156.304688-.566406.613281-.851562.921875-.886719.957031-1.773438 1.914063-2.648438 2.882813-.292968.324218-.582031.65625-.871094.980468-.859374.957032-1.710937 1.917969-2.554687 2.886719-.304687.355469-.605469.714844-.910156 1.066406-.820313.953125-1.636719 1.90625-2.441407 2.871094-.316406.378906-.628906.765625-.941406 1.144531-.785156.949219-1.566406 1.898438-2.339844 2.859375-.324218.40625-.640624.816407-.960937 1.222657-.75.945312-1.503906 1.890624-2.238281 2.847656-.332032.429687-.660156.867187-.988282 1.300781-.71875.941406-1.433593 1.878906-2.140624 2.832031-.335938.457032-.667969.917969-1 1.375-.6875.9375-1.371094 1.871094-2.046876 2.816406-.34375.488282-.683593.980469-1.023437 1.46875-.652344.925782-1.304687 1.855469-1.945313 2.789063-.347656.511719-.6875 1.027344-1.03125 1.539063-.621093.925781-1.246093 1.847656-1.855468 2.78125-.351563.535156-.695313 1.078124-1.042969 1.617187-.589844.917969-1.183594 1.832031-1.765625 2.757813-.355469.570312-.699219 1.144531-1.050781 1.714843-.558594.90625-1.121094 1.808594-1.671875 2.722657-.359375.597656-.710938 1.203124-1.066406 1.804687-.523438.894531-1.054688 1.785156-1.574219 2.683594-.359375.632812-.710938 1.269531-1.066407 1.902343-.5.878907-1 1.757813-1.488281 2.648438-.359375.65625-.710937 1.320312-1.0625 1.980469-.472656.875-.945312 1.746093-1.40625 2.625-.363281.691406-.714843 1.394531-1.074219 2.09375-.433593.851562-.878906 1.699219-1.304687 2.558593-.367187.734376-.722656 1.476563-1.082031 2.214844-.40625.832032-.816406 1.660156-1.214844 2.5-.359375.761719-.710938 1.53125-1.0625 2.296875-.378906.820313-.765625 1.636719-1.140625 2.464844-.359375.792969-.699219 1.59375-1.050781 2.394531-.355469.804688-.714844 1.609375-1.0625 2.421875-.351563.820313-.6875 1.652344-1.03125 2.480469-.328125.792969-.667969 1.582031-.988282 2.378906-.351562.871094-.6875 1.75-1.03125 2.628906-.296874.761719-.605468 1.519532-.894531 2.285157-.359375.941406-.703125 1.894531-1.050781 2.84375-.261719.703125-.527344 1.40625-.78125 2.113281-.382812 1.0625-.742188 2.128906-1.113281 3.199219-.207031.601562-.421875 1.199219-.625 1.804687-.5625 1.675782-1.109375 3.359375-1.640625 5.050782-.121094.382812-.21875.761718-.304688 1.144531-.019531.089843-.039062.175781-.054687.265625-.007813.03125-.011719.0625-.019531.09375-.054688.261718-.101563.527344-.140626.792968-.011718.0625-.019531.125-.027343.191407-.007813.066406-.019531.132812-.027344.203125-.03125.261718-.0546875.527344-.0703125.789062-.0078125.117188-.0195313.230469-.0234375.347656-.015625.371094-.01953125.742188-.0078125 1.105469.015625.429688.0585937.851563.1093755 1.273438.015624.101562.03125.207031.042968.308593.0625.414063.136719.828126.234375 1.230469v.003907c.039063.152343.082031.300781.125.449218.042969.152344.078125.304688.125.453125.117188.378907.257813.75.40625 1.117188.03125.078125.066407.15625.101563.234375.007812.019531.011718.039062.023437.054687.132813.308594.277344.617188.429688.914063.027343.054687.054687.113281.085937.167968.179688.347657.382813.679688.589844 1.007813.019531.03125.042969.058594.0625.089844.03125.050781.066406.101562.101562.152343.175782.265626.359376.523438.554688.773438.054688.070312.105469.144531.164062.214844.238282.300781.492188.597656.757813.878906.054687.058594.113281.113281.167969.171875.222656.230469.453125.453125.691406.671875.078125.066406.152344.136719.230469.203125.292969.253906.59375.503906.90625.734375.03125.023438.066406.042969.097656.066406.289063.207032.585937.40625.886719.59375.089844.054688.183594.109375.273437.164063.308594.179687.621094.351562.945313.511719.015625.007812.03125.019531.046875.027343.019531.007813.035156.015625.054687.027344.355469.167969.71875.320313 1.089844.464844.09375.035156.191406.070312.289062.105469.308594.109374.625.210937.941407.300781.078125.019531.15625.046875.234375.066406.386718.101563.777344.1875 1.171875.253906.089843.015625.179687.027344.269531.039063 0 0 .003906.003906.007812.003906.328126.046875.660157.085938.992188.113281.101562.007813.203125.019531.304688.023438.414062.023437.828124.035156 1.25.023437.015624 0 .03125-.003906.046874-.003906.050782-.003906.101563-.007812.152344-.011719.363282-.015625.730469-.046875 1.097656-.089843.039063-.003907.078126-.007813.117188-.011719.074219-.011719.152344-.019531.226562-.03125.433594-.0625.867188-.136719 1.304688-.238281.710938-.164063 1.429688-.3125 2.152344-.4375.652344-.113282 1.308594-.203126 1.972656-.285157.195312-.023437.390625-.042969.585938-.0625.496093-.054687.992187-.097656 1.488281-.128906h.003906c.710937-.050781 1.429687-.078125 2.15625-.085937.15625 0 .3125-.011719.472656-.011719h.007813c.710937 0 1.414062.023437 2.117187.0625.085938.007812.171875.011719.257813.015625.582031.035156 1.160156.085937 1.738281.144531.046875.007813.09375.011719.140625.015625h.003906c1.058594.117188 2.101563.273438 3.132813.472656.136719.027344.269531.054688.40625.082032.539062.109374 1.078125.230468 1.609375.363281.011718.003906.027344.007812.039062.011719 1.300782.324218 2.570313.71875 3.8125 1.171874.03125.007813.058594.019532.085938.03125.570312.207032 1.132812.429688 1.6875.667969.050781.019531.101562.042969.152344.0625.574218.246094 1.144531.503907 1.703124.777344h.003907c.234375.113281.46875.230469.703125.351563h.003906.003906c.828125.425781 1.640625.871093 2.429688 1.351562 1.351562.820312 2.644531 1.714844 3.878906 2.6875.246094.195312.507812.375.765625.550781.179687.125.363281.242188.546875.359375.0625.035156.121094.070313.179688.105469.019531.011719.039062.023437.058593.035156 5.003907 2.964844 11.425781 2.625 16.089844-1.050781 1.132813-.894531 2.324219-1.71875 3.558594-2.484375.042969-.269531.089843-.539063.144531-.808594 24.351562-120.414062 96.375-208.058593 181.75-209.691406zm0 0" fill="#c92f49"/><g fill="#3f6dc9"><path d="m258.914062 87.605469c-4.148437 0-7.511718-3.363281-7.511718-7.511719v-24.027344c0-4.148437 3.363281-7.511718 7.511718-7.511718 4.148438 0 7.507813 3.363281 7.507813 7.511718v24.027344c0 4.148438-3.363281 7.511719-7.507813 7.511719zm0 0"/><path d="m317.984375 95.613281c-4.148437 0-7.507813-3.359375-7.507813-7.507812v-24.03125c0-4.148438 3.359376-7.507813 7.507813-7.507813s7.511719 3.359375 7.511719 7.507813v24.03125c0 4.144531-3.363282 7.507812-7.511719 7.507812zm0 0"/><path d="m290.953125 39.546875c-4.148437 0-7.511719-3.363281-7.511719-7.511719v-24.027344c0-4.148437 3.363282-7.511718 7.511719-7.511718s7.507813 3.363281 7.507813 7.511718v24.027344c0 4.148438-3.363282 7.511719-7.507813 7.511719zm0 0"/><path d="m349.023438 53.5625c-4.148438 0-7.507813-3.359375-7.507813-7.507812v-24.03125c0-4.148438 3.359375-7.507813 7.507813-7.507813 4.148437 0 7.507812 3.359375 7.507812 7.507813v24.03125c0 4.144531-3.359375 7.507812-7.507812 7.507812zm0 0"/><path d="m406.09375 75.589844c-4.148438 0-7.511719-3.363282-7.511719-7.507813v-24.03125c0-4.148437 3.363281-7.507812 7.511719-7.507812s7.507812 3.359375 7.507812 7.507812v24.03125c0 4.144531-3.363281 7.507813-7.507812 7.507813zm0 0"/><path d="m373.050781 115.636719c-4.144531 0-7.507812-3.359375-7.507812-7.507813v-24.027344c0-4.148437 3.363281-7.511718 7.507812-7.511718 4.148438 0 7.511719 3.363281 7.511719 7.511718v24.027344c0 4.148438-3.363281 7.507813-7.511719 7.507813zm0 0"/><path d="m422.113281 147.675781c-4.148437 0-7.511719-3.359375-7.511719-7.507812v-24.027344c0-4.148437 3.363282-7.511719 7.511719-7.511719 4.148438 0 7.507813 3.363282 7.507813 7.511719v24.027344c0 4.148437-3.363282 7.507812-7.507813 7.507812zm0 0"/><path d="m199.839844 95.613281c-4.148438 0-7.507813-3.359375-7.507813-7.507812v-24.03125c0-4.148438 3.359375-7.507813 7.507813-7.507813 4.148437 0 7.511718 3.359375 7.511718 7.507813v24.03125c0 4.144531-3.363281 7.507812-7.511718 7.507812zm0 0"/><path d="m226.875 39.546875c-4.148438 0-7.511719-3.363281-7.511719-7.511719v-24.027344c0-4.148437 3.363281-7.511718 7.511719-7.511718s7.507812 3.363281 7.507812 7.511718v24.027344c0 4.148438-3.363281 7.511719-7.507812 7.511719zm0 0"/><path d="m168.804688 53.5625c-4.148438 0-7.511719-3.359375-7.511719-7.507812v-24.03125c0-4.148438 3.363281-7.507813 7.511719-7.507813 4.144531 0 7.507812 3.359375 7.507812 7.507813v24.03125c0 4.144531-3.363281 7.507812-7.507812 7.507812zm0 0"/><path d="m111.734375 75.589844c-4.148437 0-7.511719-3.363282-7.511719-7.507813v-24.03125c0-4.148437 3.363282-7.507812 7.511719-7.507812s7.507813 3.359375 7.507813 7.507812v24.03125c0 4.144531-3.363282 7.507813-7.507813 7.507813zm0 0"/><path d="m144.773438 115.636719c-4.148438 0-7.507813-3.359375-7.507813-7.507813v-24.027344c0-4.148437 3.359375-7.511718 7.507813-7.511718 4.148437 0 7.507812 3.363281 7.507812 7.511718v24.027344c0 4.148438-3.359375 7.507813-7.507812 7.507813zm0 0"/><path d="m95.714844 147.675781c-4.148438 0-7.511719-3.359375-7.511719-7.507812v-24.027344c0-4.148437 3.363281-7.511719 7.511719-7.511719 4.148437 0 7.507812 3.363282 7.507812 7.511719v24.027344c0 4.148437-3.363281 7.507812-7.507812 7.507812zm0 0"/></g></svg>