<svg height="511pt" viewBox="0 -10 511.99925 511" width="511pt" xmlns="http://www.w3.org/2000/svg"><path d="m500.191406 245.5c0 135.308594-109.691406 245-245 245s-245-109.691406-245-245 109.691406-245 245-245 245 109.691406 245 245zm0 0" fill="#fdd33a"/><path d="m55.597656 308.640625-48.421875 40.382813c-.875.738281-1.785156 1.632812-2.546875 2.542968-7.058594 8.464844-5.917968 21.046875 2.546875 28.101563 8.460938 7.058593 21.042969 5.921875 28.101563-2.542969l42.050781-50.421875c-8.027344-5.039063-15.335937-11.121094-21.730469-18.0625zm0 0" fill="#ea4b57"/><path d="m55.597656 308.640625-22.972656 19.160156c7.015625 8.832031 15.167969 16.722657 24.230469 23.453125l20.472656-24.550781c-8.027344-5.039063-15.335937-11.121094-21.730469-18.0625zm0 0" fill="#d63649"/><path d="m456.402344 308.640625 48.421875 40.382813c.875.738281 1.785156 1.632812 2.542969 2.542968 7.058593 8.464844 5.921874 21.046875-2.542969 28.105469-8.460938 7.058594-21.042969 5.917969-28.101563-2.546875l-42.050781-50.421875c8.027344-5.039063 15.335937-11.121094 21.730469-18.0625zm0 0" fill="#ea4b57"/><path d="m456.402344 308.640625 22.972656 19.160156c-7.015625 8.832031-15.164062 16.722657-24.230469 23.453125l-20.472656-24.550781c8.027344-5.039063 15.335937-11.121094 21.730469-18.0625zm0 0" fill="#d63649"/><path d="m490.335938 234.125h-7.019532c-6.765625-51.886719-51.25-92.089844-104.949218-92.089844-53.703126 0-98.1875 40.203125-104.949219 92.089844h-35.042969c-6.363281-48.816406-46.117188-87.28125-95.519531-91.664062-.070313-.003907-.140625-.011719-.214844-.019532-.890625-.074218-1.78125-.140625-2.675781-.195312-.15625-.011719-.3125-.023438-.46875-.03125-.816406-.046875-1.636719-.082032-2.460938-.109375-.203125-.007813-.410156-.019531-.617187-.023438-.988281-.027343-1.976563-.046875-2.96875-.046875-.007813 0-.015625 0-.023438 0-.878906 0-1.757812.011719-2.632812.035156-.28125.007813-.5625.019532-.84375.03125-.589844.015626-1.179688.035157-1.765625.066407-.339844.015625-.679688.039062-1.023438.058593-.523437.03125-1.050781.0625-1.574218.101563-.363282.023437-.722657.058594-1.082032.085937-.5.042969-1 .085938-1.5.136719-.371094.035157-.742187.074219-1.113281.117188-.484375.050781-.96875.105469-1.453125.164062-.371094.046875-.746094.097657-1.117188.148438-.480468.0625-.957031.128906-1.433593.199219-.371094.054687-.742188.113281-1.113281.171874-.476563.074219-.949219.152344-1.425782.234376-.367187.0625-.730468.128906-1.097656.195312-.476562.085938-.949219.179688-1.421875.273438-.359375.070312-.71875.140624-1.078125.214843-.480469.101563-.957031.207031-1.433594.3125-.347656.078125-.699218.15625-1.042968.238281-.5.117188-.996094.238282-1.488282.363282-.320312.078125-.644531.15625-.964844.238281-.546874.144531-1.09375.292969-1.636718.445313-.261719.074218-.527344.140624-.792969.21875-.804687.230468-1.605469.464843-2.402344.714843-.042969.015625-.089843.03125-.136719.042969-.75.234375-1.496093.476562-2.238281.730469-.28125.09375-.558593.195312-.839843.292969-.507813.175781-1.011719.351562-1.515626.535156-.324218.117187-.640624.238281-.960937.359375-.457031.171875-.914063.34375-1.367187.519531-.339844.132812-.675782.269531-1.011719.40625-.433594.175781-.863281.351562-1.292969.53125-.34375.144531-.683594.289062-1.027344.4375-.417968.183594-.835937.363281-1.253906.550781-.339844.152344-.683594.308594-1.023438.464844-.410156.191406-.816406.378906-1.222656.574219-.34375.164062-.6875.328125-1.027344.496094-.398437.195312-.800781.394531-1.195312.59375-.339844.171874-.679688.34375-1.019531.519531-.394531.207031-.789063.417969-1.183594.625-.332031.179687-.664063.355469-.992187.535156-.398438.21875-.792969.441406-1.1875.664063-.320313.183593-.644532.363281-.964844.546874-.398438.234376-.796875.472657-1.191406.707032-.308594.183594-.617188.367187-.925782.554687-.417968.253907-.832031.515625-1.246094.777344-.28125.175781-.5625.347656-.839843.527344-.5625.363281-1.121094.734375-1.679688 1.105469-.304687.207031-.609375.414062-.914062.625-.476563.328124-.957031.65625-1.429688.992187-.289062.203125-.574219.414063-.859375.621094-.375.273437-.75.542969-1.121094.820312-.304687.226563-.605468.457031-.90625.6875-.347656.265625-.695312.527344-1.039062.796875-.308594.242188-.613281.488282-.921875.730469-.328125.265625-.660156.527344-.988281.796875-.308594.253906-.617188.511719-.925782.769531-.316406.265625-.632812.53125-.945312.800781-.308594.261719-.613281.53125-.914062.796876-.308594.269531-.617188.542968-.921876.816406-.304687.273437-.605468.546875-.90625.824218-.296874.273438-.59375.550782-.890624.828126-.300782.28125-.597657.566406-.894532.851562-.289062.277344-.578125.558594-.863281.839844-.296875.292968-.589844.582031-.882813.875-.277343.285156-.558593.570312-.835937.859375-.289063.296875-.582031.597656-.867187.898437-.273438.289063-.542969.582032-.8125.871094-.285157.304688-.570313.609375-.847657.921875-.265625.292969-.527343.589844-.789062.886719-.277344.3125-.558594.628906-.835938.945312-.242187.28125-.484375.570313-.726562.859375-.550781.652344-1.097657 1.3125-1.636719 1.980469-.226562.285156-.457031.5625-.683594.847656-.273437.347656-.539062.699219-.808594 1.050782-.226562.296874-.457031.589843-.679687.886718-.265625.351563-.523437.707032-.785156 1.0625-.21875.300782-.445313.601563-.664063.90625-.253906.359375-.507812.722656-.761718 1.082032-.210938.308593-.425782.613281-.636719.921874-.25.363282-.496094.734376-.738281 1.101563-.207032.308594-.414063.621094-.617188.933594-.242188.371093-.480469.746093-.71875 1.121093-.199219.316407-.394531.628907-.589844.945313-.234375.382813-.46875.761719-.699218 1.148437-.1875.3125-.375.628907-.558594.945313-.230469.390625-.457032.78125-.679688 1.171875-.179687.316406-.355468.636719-.535156.957031-.21875.398438-.441406.796875-.65625 1.195313-.167969.316406-.335938.632812-.5.949218-.214844.410157-.433594.820313-.640625 1.234376-.160156.308593-.308594.617187-.464844.925781-.210937.429687-.421875.855469-.628906 1.285156-.136719.28125-.265625.5625-.398437.84375-.214844.464844-.433594.929687-.644532 1.398437-.023437.050782-.046875.101563-.070312.15625-.539063 1.199219-1.054688 2.414063-1.550782 3.640626-.082031.207031-.171874.410156-.253906.621093-.1875.472657-.367187.945313-.546875 1.421875-.113281.300782-.230469.59375-.339843.894532-.167969.453124-.328126.910156-.492188 1.367187-.113281.328125-.230469.648437-.34375.976563-.152344.449218-.300781.902343-.449219 1.355468-.113281.335938-.222656.671875-.328125 1.007813-.144531.453125-.28125.902343-.417968 1.355469-.105469.347656-.210938.691406-.3125 1.035156-.128907.453125-.257813.910156-.382813 1.363281-.097656.347656-.191406.699219-.285156 1.046875-.121094.457031-.238281.917969-.355469 1.378906-.085938.347656-.171875.699219-.257812 1.050782-.109376.464843-.21875.929687-.324219 1.394531-.078125.351562-.15625.703125-.230469 1.058593-.101562.46875-.203125.9375-.296875 1.40625-.070313.351563-.136719.703126-.203125 1.054688-.089844.480469-.179688.957031-.265625 1.4375-.058594.339844-.113281.683594-.167969 1.023438-.082031.496093-.167968.992187-.242187 1.488281-.046875.304687-.085938.613281-.128907.917969-.078124.539062-.15625 1.074218-.222656 1.617187h-6.960937c-2.359375 0-4.574219.59375-6.511719 1.648437-4.257812 2.3125-7.144531 6.820313-7.144531 12.007813 0 1.414063.214843 2.777344.613281 4.058594.132812.429687.285156.847656.457031 1.253906 2.074219 4.902344 6.929688 8.34375 12.585938 8.34375h7.054687c0 .003906.003906.003906.003906.007813.632813 4.785156 1.59375 9.472656 2.851563 14.035156.019531.082031.042969.164062.066406.246094.183594.664062.375 1.328124.574219 1.988281.039062.128906.074219.253906.113281.378906.191407.636719.394531 1.273437.597657 1.902344.046874.148437.09375.292969.140624.4375.207032.621093.414063 1.238281.628907 1.851562.054687.152344.109375.304688.160156.453125.21875.613282.441406 1.226563.671875 1.835938.050781.136718.105469.277344.160156.417968.234375.621094.476563 1.238282.722656 1.855469.046876.109375.09375.21875.136719.328125.261719.648438.527344 1.289063.804688 1.925782.019531.046874.039062.09375.058593.136718 1.820313 4.222656 3.910157 8.300782 6.246094 12.214844.066406.109375.128906.21875.191406.324219.328126.542969.660157 1.078125.992188 1.613281.097656.152344.191406.304688.289062.457031.320313.507813.644532 1.011719.976563 1.515625.113281.171875.226563.347656.34375.519532.324219.488281.652344.972656.984375 1.453124.125.179688.25.363282.375.542969.332031.472657.664062.945313 1.003906 1.410157.132813.183593.265625.367187.398438.546874.339844.464844.683594.929688 1.03125 1.390626.132812.171874.261718.339843.394531.511718.359375.46875.71875.933594 1.085937 1.394532.117188.148437.238282.292968.355469.441406.386719.480468.773438.960937 1.167969 1.433594.074219.09375.15625.183593.234375.277343 1.847656 2.210938 3.789063 4.34375 5.808594 6.394531.105469.105469.207031.210938.308593.316407.398438.398437.800782.792969 1.203126 1.183593.179687.175782.355468.351563.535156.523438.378906.363281.757812.71875 1.140625 1.074219.210937.199219.421875.398437.636719.59375.367187.339843.742187.671875 1.113281 1.007812.234375.207031.464843.414063.699219.621094.367187.320313.738281.636719 1.109374.957031.246094.207032.492188.417969.742188.625.367188.308594.738281.613282 1.109375.917969.257813.210937.515625.417969.777344.625.371093.296875.742187.589844 1.113281.882813.269531.207031.535156.410156.804688.617187.375.285156.75.570313 1.128906.851563.273437.203124.550781.402343.824218.601562.378907.273438.761719.550781 1.144532.824219.277344.195312.558594.386719.839844.582031.386718.269531.773437.539062 1.164062.800781.269531.179688.542969.355469.8125.535157.992188.65625 1.996094 1.296874 3.011719 1.921874.0625.039063.125.078126.1875.117188.375.226562.753906.445312 1.128906.667969.328125.195312.652344.394531.984375.585937.367188.210938.734375.414063 1.101562.621094.347657.195312.695313.390625 1.042969.582031.363281.199219.734375.394531 1.101563.589844.355468.191406.714844.382813 1.074218.566406.367188.191407.734376.378907 1.105469.5625.367188.183594.730469.367188 1.097657.550781.371093.179688.738281.355469 1.109374.53125.375.175782.753907.355469 1.132813.527344.367187.167969.734375.335938 1.105469.5.386718.175782.777344.34375 1.167968.511719.363282.160156.730469.316406 1.097657.46875.398437.167969.800781.332031 1.207031.496094.359375.144531.722656.292969 1.085938.433593.417968.164063.835937.320313 1.257812.480469.355469.132813.707031.265625 1.066406.394531.441406.164063.886719.316407 1.335938.472657.335937.117187.671875.238281 1.007812.351562.507813.171875 1.015625.332031 1.523438.496094.285156.089844.566406.183594.851562.273437.785156.246094 1.578125.480469 2.371094.710938.203125.054688.40625.105469.609375.164062.605469.167969 1.210937.335938 1.816406.492188.3125.082031.628907.15625.941407.234375.5.125 1.003906.25 1.507812.367187.34375.082032.691406.15625 1.039062.234376.476563.105468.953126.210937 1.433594.3125.359375.074218.71875.144531 1.078125.214843.472657.09375.945313.1875 1.417969.273438.367188.066406.734375.128906 1.105469.195312.46875.078125.9375.160157 1.414062.234375.371094.058594.742188.117188 1.117188.171875.472656.070313.945312.132813 1.421875.199219.375.046875.75.097656 1.125.144531.480468.058594.960937.113281 1.445312.164063.371094.039062.742188.082031 1.113282.117187.496093.050781.996093.089844 1.492187.132813.359375.03125.722656.0625 1.085937.089844.519532.039062 1.042969.070312 1.566407.101562.339843.019531.683593.042969 1.027343.058594.574219.027344 1.15625.046875 1.734376.066406.292968.007812.582031.023438.871093.03125.871094.019531 1.746094.03125 2.621094.03125 1.003906 0 2-.015625 2.996094-.046875.203125-.003906.402343-.015625.605469-.019531.828124-.03125 1.652343-.066406 2.472656-.113282.152344-.007812.308594-.019531.460937-.027343.894531-.054688 1.789063-.121094 2.679688-.199219.074219-.007812.148437-.011719.222656-.019531.980469-.085938 1.957031-.1875 2.929687-.300781h.011719c48.09375-5.628907 86.445313-43.621094 92.601563-91.558594h34.984375c6.675781 51.984375 51.207031 92.285156 104.976562 92.285156 53.773438 0 98.304688-40.300781 104.980469-92.285156h6.992188c7.542968 0 13.65625-6.113282 13.65625-13.65625 0-7.542969-6.113282-13.652344-13.65625-13.652344zm0 0" fill="#ea4b57"/><path d="m378.367188 169.351562c-43.304688 0-78.53125 35.226563-78.53125 78.527344 0 43.300782 35.226562 78.53125 78.53125 78.53125 43.300781 0 78.527343-35.230468 78.527343-78.53125 0-43.300781-35.226562-78.527344-78.527343-78.527344zm0 0" fill="#393991"/><path d="m133.425781 169.351562c-43.300781 0-78.53125 35.226563-78.53125 78.527344 0 43.300782 35.230469 78.53125 78.53125 78.53125s78.53125-35.230468 78.53125-78.53125c-.003906-43.300781-35.230469-78.527344-78.53125-78.527344zm0 0" fill="#393991"/><path d="m87.089844 248.683594c0-35.296875 21.109375-65.648438 51.386718-79.152344-1.671874-.109375-3.351562-.179688-5.050781-.179688-43.300781 0-78.53125 35.226563-78.53125 78.527344 0 43.300782 35.230469 78.53125 78.53125 78.53125.632813 0 1.257813-.035156 1.882813-.050781-28.574219-14.160156-48.21875-43.621094-48.21875-77.675781zm0 0" fill="#303084"/><path d="m331.34375 249.484375c0-35.945313 21.894531-66.757813 53.074219-79.878906-2-.152344-4.015625-.253907-6.050781-.253907-43.304688 0-78.53125 35.226563-78.53125 78.527344 0 43.210938 35.082031 78.375 78.261718 78.523438-27.777344-14.433594-46.753906-43.453125-46.753906-76.917969zm0 0" fill="#303084"/><path d="m299.257812 247.878906c0-53.835937 40.398438-98.410156 92.472657-105.003906-4.378907-.550781-8.839844-.839844-13.367188-.839844-53.699219 0-98.183593 40.203125-104.949219 92.089844h-35.039062c.585938 4.503906.890625 9.09375.890625 13.753906 0 4.59375-.292969 9.117188-.863281 13.558594h34.984375c6.675781 51.984375 51.207031 92.285156 104.976562 92.285156 4.527344 0 8.988281-.285156 13.367188-.839844-52.074219-6.59375-92.472657-51.167968-92.472657-105.003906zm-26.21875-10.4375c-.011718.109375-.019531.222656-.03125.332032.011719-.109376.019532-.222657.03125-.332032zm-.257812 3.125c-.019531.28125-.039062.5625-.054688.847656.015626-.285156.035157-.566406.054688-.847656zm-.171875 3.246094c-.011719.292969-.027344.585938-.035156.878906.011719-.292968.023437-.585937.035156-.878906zm.359375 13.726562c.023438.253907.042969.511719.066406.761719-.023437-.253906-.042968-.507812-.066406-.761719zm-.394531-6.515624c.007812.308593.023437.621093.035156.929687-.011719-.308594-.027344-.621094-.035156-.929687zm.144531 3.179687c.019531.332031.039062.660156.0625.992187-.023438-.332031-.046875-.660156-.0625-.992187zm0 0" fill="#d63649"/><path d="m441 258.855469c0 13.046875-10.574219 23.621093-23.617188 23.621093-13.046874 0-23.621093-10.574218-23.621093-23.621093 0-13.042969 10.574219-23.617188 23.621093-23.617188 13.042969 0 23.617188 10.574219 23.617188 23.617188zm0 0" fill="#5656af"/><path d="m406.714844 220.378906c0 8.207032-6.652344 14.859375-14.859375 14.859375-8.203125 0-14.855469-6.652343-14.855469-14.859375 0-8.203125 6.652344-14.855468 14.855469-14.855468 8.207031 0 14.859375 6.652343 14.859375 14.855468zm0 0" fill="#5656af"/><path d="m197 258.855469c0 13.046875-10.574219 23.621093-23.617188 23.621093-13.046874 0-23.621093-10.574218-23.621093-23.621093 0-13.042969 10.574219-23.617188 23.621093-23.617188 13.042969 0 23.617188 10.574219 23.617188 23.617188zm0 0" fill="#5656af"/><path d="m162.714844 220.378906c0 8.207032-6.652344 14.859375-14.859375 14.859375-8.203125 0-14.855469-6.652343-14.855469-14.859375 0-8.203125 6.652344-14.855468 14.855469-14.855468 8.207031 0 14.859375 6.652343 14.859375 14.855468zm0 0" fill="#5656af"/><path d="m256.148438 115.726562c43.203124 0 78.226562-35.023437 78.226562-78.226562 0-8.855469-1.492188-17.359375-4.203125-25.296875-23.632813-7.589844-48.824219-11.703125-74.980469-11.703125-25.359375 0-49.820312 3.855469-72.828125 11.007812-2.863281 8.132813-4.441406 16.875-4.441406 25.992188 0 43.203125 35.023437 78.226562 78.226563 78.226562zm0 0" fill="#fc8e36"/><path d="m207.832031 37.5c0-12.105469 2.757813-23.5625 7.664063-33.789062-11.320313 1.84375-22.386719 4.453124-33.132813 7.796874-1.007812 2.859376-1.84375 5.800782-2.519531 8.804688-.054688.242188-.117188.484375-.167969.726562-.160156.730469-.292969 1.464844-.429687 2.203126-.089844.476562-.179688.953124-.257813 1.433593-.105469.640625-.199219 1.285157-.292969 1.933594-.082031.605469-.160156 1.214844-.230468 1.828125-.066406.566406-.128906 1.132812-.183594 1.703125-.070312.753906-.125 1.515625-.171875 2.277344-.03125.453125-.066406.90625-.089844 1.359375-.058593 1.234375-.09375 2.472656-.09375 3.722656 0 43.203125 35.023438 78.226562 78.226563 78.226562 1.308594 0 2.609375-.035156 3.902344-.101562.597656-.027344 1.191406-.085938 1.785156-.128906.679687-.046875 1.363281-.089844 2.039062-.15625.746094-.070313 1.484375-.171875 2.226563-.265625.511719-.066407 1.027343-.121094 1.539062-.199219.78125-.113281 1.554688-.253906 2.328125-.390625.367188-.066406.738282-.128906 1.105469-.199219-36.039063-6.988281-63.246094-38.707031-63.246094-76.785156zm0 0" fill="#ed7626"/><path d="m324.15625 56.054688c0 9.539062-7.734375 17.273437-17.273438 17.273437-9.539062 0-17.273437-7.734375-17.273437-17.273437 0-9.539063 7.734375-17.273438 17.273437-17.273438 9.539063 0 17.273438 7.734375 17.273438 17.273438zm0 0" fill="#ffab5f"/><path d="m297.859375 26.40625c0 5.980469-4.847656 10.828125-10.828125 10.828125s-10.828125-4.847656-10.828125-10.828125 4.847656-10.828125 10.828125-10.828125 10.828125 4.847656 10.828125 10.828125zm0 0" fill="#ffab5f"/><g fill="#fc8e36"><path d="m248.78125 162.28125v-27.84375c0-3.988281 3.230469-7.21875 7.21875-7.21875s7.21875 3.230469 7.21875 7.21875v27.84375c0 3.988281-3.230469 7.21875-7.21875 7.21875s-7.21875-3.230469-7.21875-7.21875zm0 0"/><path d="m352.9375 30.28125h27.84375c3.988281 0 7.21875 3.230469 7.21875 7.21875s-3.230469 7.21875-7.21875 7.21875h-27.84375c-3.988281 0-7.21875-3.230469-7.21875-7.21875s3.230469-7.21875 7.21875-7.21875zm0 0"/><path d="m131.21875 30.28125h27.84375c3.988281 0 7.21875 3.230469 7.21875 7.21875s-3.230469 7.21875-7.21875 7.21875h-27.84375c-3.988281 0-7.21875-3.230469-7.21875-7.21875s3.230469-7.21875 7.21875-7.21875zm0 0"/><path d="m248.78125 162.28125v-27.84375c0-3.988281 3.230469-7.21875 7.21875-7.21875s7.21875 3.230469 7.21875 7.21875v27.84375c0 3.988281-3.230469 7.21875-7.21875 7.21875s-7.21875-3.230469-7.21875-7.21875zm0 0"/><path d="m162.664062 120.628906 19.6875-19.6875c2.820313-2.820312 7.390626-2.820312 10.207032 0 2.820312 2.816406 2.820312 7.386719 0 10.207032l-19.6875 19.6875c-2.820313 2.820312-7.390625 2.820312-10.207032 0-2.820312-2.816407-2.820312-7.386719 0-10.207032zm0 0"/><path d="m349.339844 120.628906-19.691406-19.6875c-2.816407-2.820312-7.390626-2.820312-10.207032 0-2.820312 2.816406-2.820312 7.386719 0 10.207032l19.6875 19.6875c2.820313 2.820312 7.390625 2.820312 10.210938 0 2.816406-2.816407 2.816406-7.386719 0-10.207032zm0 0"/></g><path d="m52.335938 247.878906c0-54.175781 40.914062-98.964844 93.464843-105.117187-4.058593-.472657-8.1875-.726563-12.375-.726563-53.859375 0-98.449219 40.4375-105.011719 92.542969h-6.960937c-7.539063 0-13.65625 6.117187-13.65625 13.660156s6.113281 13.65625 13.65625 13.65625h7.058594c6.875 51.761719 51.300781 91.828125 104.914062 91.828125 4.1875 0 8.3125-.253906 12.375-.726562-52.550781-6.148438-93.464843-50.941406-93.464843-105.117188zm0 0" fill="#d63649"/></svg>