<svg height="512pt" viewBox="0 -5 512.00001 512" width="512pt" xmlns="http://www.w3.org/2000/svg"><path d="m512 250.902344c0 138.570312-112.332031 250.902344-250.902344 250.902344-138.570312 0-250.902344-112.332032-250.902344-250.902344 0-138.570313 112.332032-250.902344 250.902344-250.902344 138.570313 0 250.902344 112.332031 250.902344 250.902344zm0 0" fill="#3f6dc9"/><path d="m503.484375 315.878906c-11.847656-19.9375-26.261719-38.535156-43.085937-55.363281-52.964844-52.960937-123.378907-82.128906-198.277344-82.128906-74.898438 0-145.3125 29.167969-198.273438 82.128906-17.5 17.5-32.378906 36.921875-44.488281 57.765625 17.730469 63.746094 59.988281 117.265625 115.972656 149.761719v-9.25c0-69.914063 56.878907-126.792969 126.789063-126.792969 69.914062 0 126.792968 56.878906 126.792968 126.792969v8.039062c55.660157-33.019531 97.453126-86.9375 114.570313-150.953125zm0 0" fill="#393991"/><path d="m86.320312 430.886719c13.433594-84.9375 87.148438-150.089844 175.800782-150.089844 88.046875 0 161.355468 64.265625 175.511718 148.351563 15.160157-15.015626 28.414063-31.945313 39.367188-50.40625-11.320312-30.445313-29.15625-58.363282-52.8125-82.019532-43.289062-43.289062-100.84375-67.128906-162.066406-67.128906s-118.777344 23.839844-162.066406 67.128906c-24.207032 24.207032-42.316407 52.875-53.585938 84.148438 11.128906 18.347656 24.542969 35.144531 39.851562 50.015625zm0 0" fill="#ea4b57"/><path d="m437.632812 429.148438c-14.15625-84.085938-87.460937-148.351563-175.511718-148.351563-88.652344 0-162.367188 65.152344-175.800782 150.089844 14.710938 14.285156 31.160157 26.792969 49.011719 37.15625v-9.25c0-69.914063 56.878907-126.792969 126.792969-126.792969 69.910156 0 126.789062 56.878906 126.789062 126.792969v8.039062c17.773438-10.542969 34.125-23.226562 48.71875-37.683593zm0 0" fill="#fdd33a"/><path d="m46.46875 380.871094c11.269531-31.273438 29.378906-59.941406 53.585938-84.148438 1.179687-1.179687 2.371093-2.335937 3.574218-3.488281-.027344-1.136719-.042968-2.273437-.042968-3.417969 0-26.773437 6.6875-51.980468 18.46875-74.058594-2.625 1.519532-5.230469 3.085938-7.808594 4.691407 0 0 0 0-.003906 0-1.246094.777343-2.492188 1.566406-3.726563 2.367187-.164063.101563-.324219.210938-.488281.316406-2.171875 1.40625-4.324219 2.847657-6.464844 4.320313-.339844.234375-.683594.46875-1.027344.703125-1.03125.71875-2.058594 1.441406-3.082031 2.175781-.550781.390625-1.097656.792969-1.648437 1.191407-1.480469 1.074218-2.953126 2.164062-4.414063 3.269531-.769531.585937-1.542969 1.167969-2.308594 1.761719-.773437.59375-1.539062 1.195312-2.308593 1.800781-1.011719.796875-2.015626 1.605469-3.015626 2.417969-.753906.609374-1.507812 1.226562-2.257812 1.847656-.222656.1875-.445312.378906-.667969.5625-.941406.785156-1.882812 1.574218-2.816406 2.371094-.539063.464843-1.078125.929687-1.617187 1.394531-.296876.261719-.589844.523437-.882813.785156-1.0625.933594-2.128906 1.863281-3.179687 2.8125-.210938.1875-.417969.378906-.628907.566406-1.425781 1.300781-2.839843 2.617188-4.246093 3.949219-.394532.375-.789063.75-1.183594 1.128906-1.492188 1.425782-2.972656 2.863282-4.433594 4.324219-1.195312 1.195313-2.375 2.402344-3.546875 3.613281-.398437.414063-.792969.832032-1.1875 1.25-.765625.800782-1.527344 1.605469-2.28125 2.414063-.472656.507812-.941406 1.015625-1.410156 1.527343-.660157.722657-1.316407 1.445313-1.972657 2.171876-.503906.558593-1.003906 1.121093-1.503906 1.6875-.601562.675781-1.195312 1.359374-1.789062 2.042968-.523438.601563-1.050782 1.207032-1.566406 1.8125-.539063.632813-1.070313 1.269532-1.605469 1.90625-.550781.65625-1.105469 1.3125-1.652344 1.976563-.335937.410156-.664063.820312-.996094 1.230469-1.398437 1.71875-2.769531 3.445312-4.125 5.191406-.234375.304687-.476562.605468-.710937.914062-.707032.921875-1.40625 1.851563-2.101563 2.78125-.265625.351563-.53125.703125-.792969 1.054688-.703124.949218-1.402343 1.902344-2.089843 2.863281-.230469.316406-.460938.632813-.6875.953125-.722657 1.007812-1.441407 2.019531-2.148438 3.039062-.148437.210938-.292969.425782-.441406.636719-4.214844 6.09375-8.179687 12.332031-11.878906 18.703125 6.199219 22.265625 15.394531 43.277344 27.113281 62.585938zm0 0" fill="#303084"/><path d="m46.46875 380.871094c11.128906 18.34375 24.542969 35.144531 39.851562 50.011718 4.429688-28.003906 15.414063-53.859374 31.328126-75.9375-8.582032-18.871093-13.550782-39.738281-14.019532-61.710937-1.199218 1.152344-2.394531 2.308594-3.574218 3.488281-24.207032 24.207032-42.316407 52.875-53.585938 84.148438zm0 0" fill="#d63649"/><path d="m149.371094 400.839844c-13.121094-13.207032-23.914063-28.726563-31.722656-45.894532-15.914063 22.078126-26.898438 47.933594-31.328126 75.9375 14.710938 14.289063 31.15625 26.796876 49.011719 37.160157v-9.25c0-1.355469.027344-2.699219.070313-4.046875.007812-.238282.019531-.480469.027344-.71875.035156-.960938.082031-1.917969.136718-2.875.019532-.300782.039063-.601563.058594-.90625.050781-.777344.109375-1.550782.175781-2.320313 0-.003906 0-.003906 0-.003906.023438-.273437.050781-.542969.074219-.8125.089844-.976563.191406-1.953125.300781-2.921875v-.003906c.042969-.367188.082031-.734375.128907-1.101563.136718-1.117187.289062-2.234375.457031-3.34375.007812-.050781.015625-.101562.023437-.152343.359375-2.359376.789063-4.695313 1.277344-7.007813.027344-.121094.054688-.242187.078125-.363281.484375-2.265625 1.03125-4.503906 1.636719-6.722656.015625-.058594.03125-.117188.046875-.171876.6875-2.523437 1.449219-5.011718 2.289062-7.46875.042969-.128906.09375-.253906.136719-.386718.335938-.96875.683594-1.933594 1.042969-2.894532v-.003906c.097656-.257812.195312-.511718.292969-.769531v-.003906c.324218-.84375.652343-1.683594.992187-2.519531.109375-.269532.21875-.539063.328125-.808594h.003906c1.359375-3.277344 2.84375-6.488282 4.460938-9.625zm0 0" fill="#e8bb2a"/><path d="m34.71875 92.394531c1.933594-.203125 3.402344-1.796875 3.574219-3.738281 2.484375-28.421875 26.296875-50.730469 55.34375-50.753906 18.105469-.019532 34.195312 8.625 44.367187 22.019531 1.070313 1.410156 2.929688 2.023437 4.585938 1.402344 3.738281-1.402344 7.785156-2.171875 12.015625-2.179688 17.378906-.011719 31.75 12.898438 34.046875 29.667969.25 1.8125 1.722656 3.242188 3.542968 3.425781 19.585938 1.960938 34.890626 18.488281 34.910157 38.613281.019531 21.460938-17.347657 38.871094-38.785157 38.890626l-149.464843.132812c-21.441407.019531-38.8359378-17.359375-38.855469-38.816406-.0195312-20.085938 15.195312-36.613282 34.71875-38.664063zm0 0" fill="#aef7ff"/><path d="m28.472656 132.804688c-.019531-18.101563 12.960938-33.164063 30.117188-36.375 3.539062-.660157 6.171875-3.59375 6.703125-7.15625 3.785156-25.519532 25.746093-45.113282 52.304687-45.140626.578125 0 1.15625.011719 1.730469.027344-7.6875-4.003906-16.421875-6.269531-25.691406-6.261718-29.0625.027343-52.882813 22.359374-55.347657 50.804687-.167968 1.921875-1.652343 3.488281-3.570312 3.6875-19.523438 2.054687-34.7382812 18.582031-34.71875 38.667969.0195312 21.457031 17.414062 38.835937 38.855469 38.820312l26.597656-.125c-20.40625.019532-36.964844-16.523437-36.980469-36.949218zm0 0" fill="#5dc1d8"/><path d="m305.308594 45.203125c-20.230469 2.125-35.992188 19.25-35.972656 40.058594.019531 22.230469 18.042968 40.238281 40.257812 40.21875l154.855469-.140625c4.4375-.003906 8.699219-.734375 12.6875-2.066406-33.4375-56.480469-88.375-98.722657-153.5625-115.429688-8.125 9.039062-13.441407 20.660156-14.566407 33.488281-.175781 2.007813-1.695312 3.660157-3.699218 3.871094zm0 0" fill="#aef7ff"/><path d="m298.832031 87.070312c-.015625-18.753906 13.433594-34.363281 31.207031-37.6875 3.664063-.683593 6.398438-3.722656 6.945313-7.410156 1.464844-9.871094 5.554687-18.882812 11.53125-26.308594-8.125-3.019531-16.441406-5.640624-24.941406-7.820312-.207031.234375-.40625.476562-.613281.710938-.296876.34375-.597657.679687-.890626 1.03125-.269531.328124-.527343.660156-.789062.992187-.246094.308594-.496094.617187-.734375.933594-.257813.335937-.503906.679687-.75 1.019531-.234375.324219-.46875.644531-.699219.972656-.238281.34375-.472656.691406-.703125 1.042969-.222656.335937-.445312.675781-.664062 1.019531-.21875.347656-.4375.699219-.652344 1.050782-.214844.359374-.425781.722656-.636719 1.085937-.199218.347656-.398437.695313-.59375 1.046875-.214844.394531-.417968.792969-.625 1.191406-.171875.332032-.347656.660156-.515625.996094-.25.511719-.488281 1.027344-.726562 1.546875-.140625.308594-.28125.613281-.417969.921875-.289062.667969-.566406 1.335938-.832031 2.015625-.117188.296875-.222657.597656-.332031.898437-.183594.484376-.363282.976563-.53125 1.46875-.113282.332032-.214844.664063-.324219.996094-.148438.472656-.296875.949219-.4375 1.425782-.101563.339843-.195313.683593-.289063 1.027343-.132812.484375-.257812.96875-.375 1.453125-.082031.339844-.164062.683594-.242187 1.027344-.113281.507812-.21875 1.019531-.320313 1.535156-.0625.324219-.128906.648438-.1875.976563-.105468.578125-.191406 1.160156-.277344 1.742187-.039062.269532-.085937.535156-.121093.804688-.113281.859375-.214844 1.726562-.289063 2.601562-.148437 1.707032-1.308594 3.140625-2.890625 3.644532-.027343.011718-.050781.027343-.082031.035156-.230469.066406-.46875.113281-.710938.140625-.003906 0-.007812.003906-.011718.003906-4.425782.464844-8.640625 1.644531-12.519532 3.429687-4.433593 2.035157-8.429687 4.855469-11.820312 8.28125-.847656.855469-1.65625 1.75-2.421875 2.679688-1.152344 1.394531-2.214844 2.867188-3.171875 4.410156-3.835938 6.167969-6.046875 13.453125-6.039062 21.257813 0 2.207031.1875 4.371093.53125 6.484375.171874 1.054687.386718 2.097656.640624 3.125.082032.332031.167969.664062.257813.992187.570313 2.085938 1.304687 4.101563 2.1875 6.039063.210937.472656.433594.9375.664063 1.394531.589843 1.175781 1.238281 2.3125 1.933593 3.417969.722657 1.136718 1.496094 2.234375 2.324219 3.292968.617188.792969 1.257812 1.570313 1.933594 2.3125 1.300781 1.425782 2.699218 2.761719 4.191406 3.992188.992188.820312 2.027344 1.59375 3.097656 2.3125 2.675782 1.808594 5.582032 3.300781 8.664063 4.425781 1.234375.449219 2.492187.84375 3.777343 1.171875 1.285157.332032 2.597657.597656 3.929688.800782 1.996094.300781 4.042969.460937 6.125.457031l27.558594-.125c-21.144532.019531-38.300782-17.121094-38.320313-38.285157zm0 0" fill="#5dc1d8"/></svg>