<svg height="511pt" viewBox="-6 0 511 511.99738" width="511pt" xmlns="http://www.w3.org/2000/svg"><path d="m427.023438 85.472656c-97.574219-97.574218-255.769532-97.574218-353.34375 0-97.574219 97.574219-97.574219 255.769532 0 353.34375 97.574218 97.574219 255.769531 97.574219 353.34375 0 97.574218-97.574218 97.574218-255.769531 0-353.34375zm0 0" fill="#3f6dc9"/><path d="m419.953125 444.617188-47.195313-24.871094c-2.796874-1.472656-6.15625.554687-6.15625 3.714844v20.023437h-105.953124v-53.863281h-22.214844v53.863281h-111.59375l-13.75-22.917969c-1.660156-2.765625-4.648438-4.457031-7.871094-4.457031h-25.988281c-7.511719 0-11.839844 8.535156-7.402344 14.597656l10.613281 14.503907c3.785156 5.171874 3.835938 12.183593.121094 17.410156l-11.117188 15.640625c-4.320312 6.078125.023438 14.492187 7.476563 14.492187h26.296875c3.222656 0 6.210938-1.691406 7.871094-4.453125l12.105468-20.183593h113.238282v43.558593c7.402344.351563 14.8125.375 22.214844.070313v-43.625h105.953124v17.28125c0 3.164062 3.359376 5.191406 6.15625 3.714844l47.195313-24.871094c7.898437-4.160156 7.898437-15.464844 0-19.628906zm0 0" fill="#5dc1d8"/><path d="m274.386719 456.902344h-149.191407l-12.105468 20.179687c-1.660156 2.765625-4.648438 4.457031-7.871094 4.457031h-26.296875c-3.089844 0-5.628906-1.460937-7.257813-3.585937l-.21875.308594c-4.320312 6.078125.023438 14.496093 7.476563 14.496093h26.296875c3.222656 0 6.210938-1.691406 7.871094-4.457031l12.105468-20.179687h241.40625v-11.21875zm0 0" fill="#399faa"/><path d="m238.433594 389.621094v31.023437c3.984375.199219 7.996094.289063 12.042968.238281 3.414063-.042968 6.804688-.1875 10.171876-.414062v-30.847656zm0 0" fill="#399faa"/><path d="m443.546875 32.539062c-4.386719-5.816406-10.742187-8.898437-17.226563-9.273437-3.988281-.230469-7.511718-2.828125-8.949218-6.550781-3.765625-9.777344-13.238282-16.714844-24.34375-16.714844-11.070313 0-20.519532 6.894531-24.3125 16.621094-1.460938 3.753906-4.992188 6.398437-9.011719 6.644531-9.285156.566406-17.824219 6.707031-20.800781 16.414063-3.320313 10.835937 1.894531 22.714843 12.109375 27.632812 1.863281.894531 3.78125 1.519531 5.707031 1.894531 6.265625-13.125 19.066406-22.59375 34.351562-23.3125 17.027344-.804687 31.867188 8.933594 38.582032 23.242188 5.425781-1.121094 10.53125-4.191407 14.179687-9.226563 5.40625-7.453125 5.261719-20.019531-.285156-27.371094zm0 0" fill="#ea4b57"/><path d="m352.160156 52.9375c2.976563-9.707031 11.515625-15.847656 20.800782-16.414062 4.019531-.246094 7.550781-2.890626 9.011718-6.644532 3.792969-9.726562 13.238282-16.621094 24.3125-16.621094 3.765625 0 7.335938.8125 10.570313 2.25-4.0625-9.132812-13.1875-15.507812-23.828125-15.507812-11.070313 0-20.519532 6.894531-24.3125 16.621094-1.460938 3.753906-4.992188 6.398437-9.011719 6.644531-9.285156.566406-17.824219 6.707031-20.800781 16.414063-3.320313 10.835937 1.894531 22.714843 12.109375 27.632812.585937.28125 1.179687.527344 1.777343.757812-1.84375-4.722656-2.191406-10.039062-.628906-15.132812zm0 0" fill="#d63649"/><path d="m435.519531 83.269531v42.496094l39.320313-19.914063c1.539062-.777343 1.539062-2.96875.003906-3.75-10.238281-5.199218-39.324219-18.832031-39.324219-18.832031zm0 0" fill="#ea4b57"/><path d="m474.84375 102.101562c-1.699219-.863281-3.925781-1.960937-6.441406-3.1875l-32.882813 16.652344v10.199219l39.320313-19.914063c1.535156-.777343 1.539062-2.96875.003906-3.75zm0 0" fill="#d63649"/><path d="m390.921875 43.566406c-23.40625 1.101563-41.410156 21.261719-41.410156 44.695313v60.417969c0 33.246093-26.953125 60.195312-60.199219 60.195312h-113.382812c-22.695313 0-41.097657-18.398438-41.097657-41.097656v-48.835938c0-20.828125-16.882812-37.710937-37.714843-37.710937-20.828126 0-37.710938 16.882812-37.710938 37.710937v89.933594c0 104.976562 85.78125 189.917969 191.070312 188.550781 103.625-1.34375 186.0625-87.726562 186.0625-191.363281v-119.03125c.003907-24.730469-20.628906-44.644531-45.617187-43.464844zm0 0" fill="#fdd33a"/><path d="m343.707031 255.292969c0 62.359375-42.859375 112.914062-95.734375 112.914062-52.871094 0-95.734375-50.554687-95.734375-112.914062zm0 0" fill="#e8bb2a"/><path d="m112.4375 208.875v-89.933594c0-10.488281 4.285156-19.976562 11.199219-26.8125-6.8125-6.738281-16.179688-10.902344-26.515625-10.902344-20.828125 0-37.714844 16.886719-37.714844 37.714844v89.933594c0 104.976562 85.78125 189.917969 191.070312 188.550781 8.113282-.105469 16.097657-.730469 23.917969-1.847656-91.542969-12.929687-161.957031-91.59375-161.957031-186.703125zm0 0" fill="#e8bb2a"/><path d="m343.707031 255.292969c0 52.871093-42.859375 95.730469-95.734375 95.730469-52.871094 0-95.734375-42.859376-95.734375-95.730469zm0 0" fill="#fc8e36"/><path d="m201.195312 255.292969h-48.957031c0 52.871093 42.863281 95.730469 95.734375 95.730469 8.652344 0 17.03125-1.152344 25.003906-3.304688-41.195312-10.609375-71.652343-47.949219-71.78125-92.425781zm0 0" fill="#ed7626"/><path d="m399.824219 101.015625c0 3.941406-3.195313 7.136719-7.136719 7.136719s-7.140625-3.195313-7.140625-7.136719c0-3.945313 3.199219-7.140625 7.140625-7.140625s7.136719 3.195312 7.136719 7.140625zm0 0" fill="#393991"/></svg>