<svg height="511pt" viewBox="0 -10 511.9747 511" width="511pt" xmlns="http://www.w3.org/2000/svg"><path d="m500.335938 245.742188c0 135.449218-109.804688 245.253906-245.257813 245.253906-135.449219 0-245.253906-109.804688-245.253906-245.253906 0-135.449219 109.804687-245.253907 245.253906-245.253907 135.453125 0 245.257813 109.804688 245.257813 245.253907zm0 0" fill="#393991"/><path d="m424.894531 158.75c-79.238281-41.234375-176.898437-10.421875-218.128906 68.816406-41.234375 79.238282-10.421875 176.898438 68.816406 218.132813 79.238281 41.230469 176.898438 10.417969 218.132813-68.820313 41.230468-79.238281 10.417968-176.898437-68.820313-218.128906zm0 0" fill="#fdd33a"/><path d="m265.636719 258.203125c35.980469-69.148437 114.929687-101.410156 187.113281-81.109375-8.46875-6.925781-17.773438-13.09375-27.863281-18.347656-79.238281-41.230469-176.898438-10.417969-218.125 68.820312-41.230469 79.238282-10.421875 176.898438 68.816406 218.128906 10.089844 5.25 20.484375 9.328126 31.015625 12.289063-58.050781-47.464844-76.9375-130.632813-40.957031-199.78125zm0 0" fill="#e8bb2a"/><g fill="#ffe292"><path d="m458.394531 338.324219c-13.988281-7.277344-31.230469-1.839844-38.511719 12.152343-7.277343 13.988282-1.839843 31.230469 12.152344 38.511719 13.988282 7.277344 31.230469 1.839844 38.511719-12.152343 7.277344-13.988282 1.839844-31.230469-12.152344-38.511719zm0 0"/><path d="m451.648438 240.304688c-9.074219-4.722657-20.257813-1.195313-24.980469 7.878906-4.722657 9.074218-1.195313 20.261718 7.878906 24.980468 9.078125 4.722657 20.261719 1.195313 24.984375-7.878906 4.71875-9.074218 1.191406-20.257812-7.882812-24.980468zm0 0"/><path d="m334.144531 332.214844c-13.734375-7.144532-30.65625-1.804688-37.804687 11.925781-7.144532 13.734375-1.804688 30.660156 11.929687 37.804687 13.730469 7.144532 30.65625 1.804688 37.800781-11.925781 7.144532-13.734375 1.804688-30.65625-11.925781-37.804687zm0 0"/></g><path d="m292.507812 34.828125 4.199219 11.582031c.660157 1.820313 2.09375 3.253906 3.917969 3.914063l11.582031 4.199219c5.742188 2.082031 5.742188 10.203124 0 12.285156l-11.582031 4.199218c-1.824219.660157-3.257812 2.09375-3.917969 3.917969l-4.199219 11.582031c-2.078124 5.742188-10.203124 5.742188-12.285156 0l-4.199218-11.582031c-.660157-1.824219-2.09375-3.257812-3.914063-3.917969l-11.582031-4.199218c-5.746094-2.078125-5.746094-10.203125 0-12.285156l11.582031-4.199219c1.820313-.660157 3.253906-2.09375 3.914063-3.914063l4.199218-11.582031c2.082032-5.746094 10.203125-5.746094 12.285156 0zm0 0" fill="#fdd33a"/><path d="m106.316406 338.140625 4.195313 11.582031c.660156 1.824219 2.097656 3.257813 3.917969 3.917969l11.582031 4.199219c5.746093 2.078125 5.746093 10.203125 0 12.285156l-11.582031 4.199219c-1.820313.660156-3.257813 2.09375-3.917969 3.914062l-4.195313 11.582031c-2.082031 5.746094-10.207031 5.746094-12.289062 0l-4.195313-11.582031c-.660156-1.820312-2.097656-3.253906-3.917969-3.914062l-11.582031-4.199219c-5.742187-2.082031-5.742187-10.203125 0-12.285156l11.582031-4.199219c1.820313-.660156 3.257813-2.09375 3.917969-3.917969l4.195313-11.582031c2.082031-5.742187 10.207031-5.742187 12.289062 0zm0 0" fill="#fdd33a"/><path d="m290.125 71.003906-11.582031-4.195312c-5.742188-2.082032-5.742188-10.203125 0-12.285156l11.582031-4.199219c1.824219-.660157 3.257812-2.09375 3.917969-3.917969l1.332031-3.671875-2.867188-7.910156c-2.082031-5.742188-10.203124-5.742188-12.285156 0l-4.199218 11.582031c-.660157 1.824219-2.09375 3.257812-3.917969 3.917969l-11.582031 4.199219c-5.742188 2.078124-5.742188 10.203124 0 12.285156l11.582031 4.195312c1.824219.660156 3.257812 2.097656 3.917969 3.917969l4.199218 11.582031c2.078125 5.746094 10.203125 5.746094 12.285156 0l2.867188-7.910156-1.332031-3.671875c-.660157-1.820313-2.09375-3.253906-3.917969-3.917969zm0 0" fill="#e8bb2a"/><path d="m103.933594 374.320312-11.582032-4.195312c-5.746093-2.082031-5.746093-10.207031 0-12.289062l11.582032-4.195313c1.820312-.660156 3.253906-2.09375 3.917968-3.917969l1.328126-3.671875-2.863282-7.910156c-2.082031-5.742187-10.207031-5.742187-12.289062 0l-4.195313 11.582031c-.664062 1.824219-2.097656 3.257813-3.917969 3.917969l-11.582031 4.195313c-5.746093 2.082031-5.746093 10.207031 0 12.289062l11.582031 4.195312c1.820313.660157 3.253907 2.09375 3.917969 3.917969l4.195313 11.582031c2.082031 5.742188 10.203125 5.742188 12.289062 0l2.863282-7.910156-1.328126-3.671875c-.660156-1.824219-2.097656-3.257812-3.917968-3.917969zm0 0" fill="#e8bb2a"/><path d="m167.667969 231.226562c-1.199219 0-2.414063-.285156-3.546875-.894531l-160.164063-86.089843c-3.652343-1.960938-5.023437-6.515626-3.0625-10.167969 1.964844-3.648438 6.515625-5.023438 10.167969-3.058594l160.167969 86.089844c3.652343 1.964843 5.023437 6.515625 3.058593 10.167969-1.355468 2.519531-3.945312 3.953124-6.621093 3.953124zm0 0" fill="#fc8e36"/><path d="m209.714844 173.398438c-1.203125 0-2.417969-.285157-3.550782-.894532l-125.128906-67.257812c-3.652344-1.960938-5.023437-6.515625-3.058594-10.167969 1.960938-3.648437 6.511719-5.023437 10.167969-3.058594l125.128907 67.257813c3.652343 1.964844 5.023437 6.515625 3.058593 10.167968-1.355469 2.519532-3.941406 3.953126-6.617187 3.953126zm0 0" fill="#fc8e36"/><path d="m157.660156 303.535156c-1.199218 0-2.417968-.289062-3.550781-.894531l-125.128906-67.257813c-3.652344-1.964843-5.023438-6.515624-3.058594-10.167968 1.960937-3.652344 6.511719-5.027344 10.167969-3.058594l125.128906 67.257812c3.652344 1.960938 5.023438 6.515626 3.058594 10.167969-1.351563 2.519531-3.941406 3.953125-6.617188 3.953125zm0 0" fill="#fc8e36"/></svg>