<svg height="512pt" viewBox="-5 0 512 512" width="512pt" xmlns="http://www.w3.org/2000/svg"><path d="m501.925781 261.035156c0 138.605469-112.359375 250.964844-250.960937 250.964844-138.605469 0-250.964844-112.359375-250.964844-250.964844 0-138.601562 112.359375-250.960937 250.964844-250.960937 138.601562 0 250.960937 112.359375 250.960937 250.960937zm0 0" fill="#fdd33a"/><path d="m501.925781 261.035156c0 138.605469-112.359375 250.964844-250.960937 250.964844-138.605469 0-250.964844-112.359375-250.964844-250.964844 0-138.601562 112.359375-250.960937 250.964844-250.960937 138.601562 0 250.960937 112.359375 250.960937 250.960937zm0 0" fill="#fdd33a"/><path d="m501.925781 261.035156c0 138.605469-112.359375 250.964844-250.960937 250.964844-138.605469 0-250.964844-112.359375-250.964844-250.964844 0-138.601562 112.359375-250.960937 250.964844-250.960937 138.601562 0 250.960937 112.359375 250.960937 250.960937zm0 0" fill="#5dc1d8"/><path d="m452.085938 41.722656c-.003907-23.050781-89.894532-41.7304685-200.773438-41.722656-110.882812.0078125-200.773438 18.707031-200.769531 41.757812 0 .03125.003906.058594.003906.085938h-.003906l.007812.027344c.015625 1.480468.414063 2.945312 1.15625 4.390625l163.535157 407.507812 23.242187 57.914063c4.140625.207031 8.308594.316406 12.5.316406 4.523437 0 9.011719-.132812 13.476563-.367188 7.816406-19.382812 18.65625-46.355468 31.21875-77.65625 58.796874-146.515624 155.238281-387.75 155.238281-387.75.746093-1.441406 1.140625-2.90625 1.15625-4.390624l.007812-.023438h-.003906c0-.03125.007813-.058594.007813-.089844zm0 0" fill="#3f6dc9"/><path d="m322.195312 301.875c-.277343-.277344-.574218-.515625-.886718-.734375-.121094-.082031-.242188-.160156-.367188-.238281-.167968-.101563-.339844-.191406-.515625-.277344-2.4375-1.1875-5.457031-.773438-7.484375 1.253906-1.277344 1.277344-1.914062 2.949219-1.914062 4.625v.03125c0 .378906.035156.753906.105468 1.128906.011719.078126.03125.160157.046876.238282.105468.472656.261718.933594.46875 1.375.191406.40625.425781.796875.703124 1.164062.179688.238282.371094.472656.589844.6875l14.203125 14.207032c-7.285156 10.507812-8.546875 24.289062-3.140625 37.988281 6.742188-16.824219 13.667969-34.101563 20.632813-51.488281-2.910157 1.050781-5.671875 2.464843-8.238281 4.246093zm0 0" fill="#2e5faf"/><path d="m53.121094 35.089844c-1.671875 2.164062-2.558594 4.386718-2.558594 6.652344 0 .027343.003906.058593.003906.085937h-.003906l.003906.023437c.019532 1.484376.414063 2.949219 1.160156 4.390626l163.5 407.523437 23.234376 57.917969c4.144531.203125 8.308593.316406 12.503906.316406 4.519531 0 9.011718-.132812 13.476562-.367188 7.816406-19.378906 18.660156-46.351562 31.222656-77.648437-.179687-1.820313-.398437-4.050781-.578124-5.867187l-14.441407-22.089844c-59.953125-91.703125-101.671875-194.101563-122.875-301.59375l-7.886719-39.980469c-50.644531-6.179687-87.097656-16.839844-96.761718-29.363281zm0 0" fill="#2e5faf"/><path d="m452.101562 41.742188c0-23.054688-89.886718-41.742188-200.769531-41.742188-110.882812 0-200.769531 18.6875-200.769531 41.742188 0 23.054687 89.886719 41.742187 200.769531 41.742187 110.882813 0 200.769531-18.6875 200.769531-41.742187zm0 0" fill="#393991"/><path d="m345.972656 121.929688c18.929688 18.929687 42.105469 21.808593 57.808594 10.925781l8.933594 8.933593c1.761718-4.410156 3.484375-8.710937 5.160156-12.898437l-5.066406-5.066406c10.367187-14.957031 8.234375-36.699219-8.355469-55.089844-21.730469 5.324219-49.765625 9.5-81.710937 12.027344 5.109374 15.050781 12.535156 30.472656 23.230468 41.167969zm0 0" fill="#2e5faf"/><path d="m320.113281 294.707031c2.554688-2.554687 6.695313-2.554687 9.253907 0l14.203124 14.203125c16.085938-11.152344 39.839844-8.199218 59.234376 11.195313 24.214843 24.214843 32.105468 72.066406 34.046874 87.183593.316407 2.46875-1.6875 4.472657-4.15625 4.15625-15.113281-1.941406-62.96875-9.832031-87.183593-34.046874-19.394531-19.398438-22.347657-43.148438-11.195313-59.234376l-14.203125-14.207031c-2.554687-2.554687-2.554687-6.695312 0-9.25zm0 0" fill="#fc8e36"/><path d="m415.890625 397.027344c1.675781 0 3.347656-.640625 4.628906-1.914063 2.554688-2.558593 2.554688-6.699219 0-9.253906l-91.152343-91.152344c-2.554688-2.554687-6.699219-2.554687-9.253907 0-2.554687 2.554688-2.554687 6.695313 0 9.253907l91.152344 91.152343c1.277344 1.277344 2.953125 1.914063 4.625 1.914063zm0 0" fill="#fdd33a"/><path d="m103.486566 39.659677c31.807827-8.33616 85.67635-13.819873 146.771324-13.8275 57.018418-.003814 107.74086 4.762975 140.113074 12.172471" style="fill:none;stroke-width:15;stroke-linecap:round;stroke-linejoin:round;stroke:#3f6dc9;stroke-miterlimit:10" transform="matrix(1.02434 0 0 1.02434 -5.036688 .000003)"/><path d="m167.515625 139.109375c2.492187 2.496094 2.492187 6.535156 0 9.03125l-13.863281 13.863281c10.882812 15.699219 8.003906 38.878906-10.925782 57.804688-23.632812 23.632812-70.332031 31.335937-85.082031 33.230468-2.410156.308594-4.367187-1.648437-4.058593-4.054687 1.898437-14.753906 9.597656-61.453125 33.230468-85.085937 18.929688-18.929688 42.105469-21.808594 57.808594-10.925782l13.859375-13.863281c2.496094-2.492187 6.535156-2.492187 9.03125 0zm0 0" fill="#fc8e36"/><path d="m67.660156 232.582031c0 1.632813.621094 3.265625 1.867188 4.515625 2.496094 2.492188 6.535156 2.492188 9.03125 0l88.957031-88.957031c2.492187-2.496094 2.492187-6.535156 0-9.03125-2.496094-2.492187-6.539063-2.492187-9.03125 0l-88.957031 88.957031c-1.246094 1.246094-1.867188 2.882813-1.867188 4.515625zm0 0" fill="#fdd33a"/><path d="m433.84375 139.546875c-2.496094 2.492187-6.535156 2.492187-9.03125 0l-13.863281-13.863281c-15.699219 10.886718-38.878907 8.003906-57.804688-10.921875-23.632812-23.632813-31.332031-70.335938-33.230469-85.085938-.308593-2.40625 1.648438-4.367187 4.054688-4.054687 14.753906 1.894531 61.453125 9.59375 85.085938 33.226562 18.929687 18.929688 21.808593 42.105469 10.925781 57.808594l13.863281 13.863281c2.492188 2.492188 2.492188 6.535157 0 9.027344zm0 0" fill="#fc8e36"/><path d="m340.371094 39.691406c-1.632813 0-3.269532.625-4.515625 1.871094-2.492188 2.492188-2.492188 6.535156 0 9.027344l88.957031 88.957031c2.492188 2.492187 6.535156 2.492187 9.03125 0 2.492188-2.496094 2.492188-6.535156 0-9.03125l-88.957031-88.957031c-1.246094-1.242188-2.882813-1.867188-4.515625-1.867188zm0 0" fill="#fdd33a"/><path d="m175.019531 398.042969c0-19.347657-15.882812-35.085938-35.402343-35.085938-11.097657 0-21.34375 5.011719-28.105469 13.746094-2.59375 3.355469-1.980469 8.179687 1.375 10.777344 3.351562 2.59375 8.175781 1.984375 10.777343-1.371094 3.828126-4.949219 9.640626-7.785156 15.949219-7.785156 11.050781 0 20.039063 8.84375 20.039063 19.71875 0 10.871093-8.988282 19.714843-20.039063 19.714843h-84.652343c4.246093 5.304688 8.695312 10.429688 13.351562 15.367188h71.304688c19.519531 0 35.402343-15.738281 35.402343-35.082031zm0 0" fill="#fff"/><path d="m134.046875 323.265625c0-19.347656-15.882813-35.082031-35.40625-35.082031-11.097656 0-21.339844 5.007812-28.101563 13.742187-2.597656 3.355469-1.984374 8.179688 1.371094 10.777344 3.351563 2.59375 8.179688 1.984375 10.777344-1.371094 3.832031-4.949219 9.644531-7.785156 15.953125-7.785156 11.046875 0 20.039063 8.84375 20.039063 19.71875 0 10.871094-8.988282 19.71875-20.039063 19.71875h-84.941406c1.796875 5.199219 3.75 10.324219 5.871093 15.363281h79.070313c19.523437 0 35.40625-15.738281 35.40625-35.082031zm0 0" fill="#fff"/><path d="m426.71296 231.341775c4.942206-6.387496 12.736859-10.506002 21.503936-10.506002 14.944835 0 27.060105 11.974173 27.060105 26.747404s-12.11527 26.751217-27.060105 26.751217h-72.439931" fill="none" stroke="#fff" stroke-linecap="round" stroke-miterlimit="10" stroke-width="15" transform="matrix(1.02434 0 0 1.02434 -5.036688 .000003)"/></svg>