<svg height="512pt" viewBox="-5 0 512 512" width="512pt" xmlns="http://www.w3.org/2000/svg"><path d="m502.261719 260.867188c0 138.699218-112.433594 251.132812-251.128907 251.132812-138.699218 0-251.132812-112.433594-251.132812-251.132812 0-138.695313 112.433594-251.128907 251.132812-251.128907 138.695313 0 251.128907 112.433594 251.128907 251.128907zm0 0" fill="#fdd33a"/><path d="m251.132812 512c93.972657 0 175.878907-51.625 218.933594-128.054688l-124.511718-220.820312c0-8.722656-39.152344-15.796875-87.445313-15.796875s-87.441406 7.074219-87.441406 15.796875l-130.914063 233.390625c44.671875 69.46875 122.648438 115.484375 211.378906 115.484375zm0 0" fill="#fc8e36"/><g fill="#ea4b57"><path d="m258.164062 133.765625c-4.246093 0-7.6875-3.441406-7.6875-7.6875v-118.390625c0-4.246094 3.441407-7.6875 7.6875-7.6875 4.246094 0 7.6875 3.441406 7.6875 7.6875v118.390625c0 4.246094-3.441406 7.6875-7.6875 7.6875zm0 0"/><path d="m297.113281 133.765625c-4.246093 0-7.6875-3.441406-7.6875-7.6875 0-38.722656 24.503907-73.441406 60.980469-86.390625 4-1.421875 8.394531.671875 9.816406 4.671875 1.421875 4.003906-.671875 8.398437-4.671875 9.816406-30.355469 10.777344-50.75 39.671875-50.75 71.902344 0 4.246094-3.441406 7.6875-7.6875 7.6875zm0 0"/><path d="m219.722656 133.765625c-4.242187 0-7.6875-3.441406-7.6875-7.6875 0-32.230469-20.390625-61.125-50.746094-71.902344-4-1.417969-6.09375-5.8125-4.671874-9.816406 1.417968-4 5.816406-6.09375 9.816406-4.671875 36.472656 12.949219 60.976562 47.667969 60.976562 86.390625 0 4.246094-3.441406 7.6875-7.6875 7.6875zm0 0"/></g><path d="m345.554688 163.125c0-8.722656-39.148438-15.796875-87.441407-15.796875-48.296875 0-87.445312 7.074219-87.445312 15.796875s39.148437 15.796875 87.445312 15.796875c48.292969 0 87.441407-7.074219 87.441407-15.796875zm0 0" fill="#393991"/><path d="m172.339844 160.054688c-1.082032.992187-1.671875 2.019531-1.671875 3.070312l-130.914063 233.390625c28.75 44.710937 71.300782 79.703125 121.628906 98.96875-19.898437-55.164063-23.550781-123.425781-6.300781-193.21875 12.515625-50.648437 34.398438-95.457031 62.011719-131.339844-22.800781-2.191406-39.589844-6.152343-44.753906-10.871093zm0 0" fill="#ed7626"/><path d="m345.554688 163.125c0-8.722656-39.148438-15.796875-87.441407-15.796875-48.296875 0-87.445312 7.074219-87.445312 15.796875s39.148437 15.796875 87.445312 15.796875c48.292969 0 87.441407-7.074219 87.441407-15.796875zm0 0" fill="#393991"/><path d="m385.832031 80.960938v1.050781c-.007812 5.824219 4.710938 10.554687 10.539063 10.558593l22.675781.027344c6.113281.003906 11.066406 4.96875 11.0625 11.085938-.007813 5.460937-3.96875 9.984375-9.167969 10.886718l-70.507812-.078124c-8.210938-.007813-14.871094 6.640624-14.878906 14.847656-.011719 8.207031 6.636718 14.871094 14.84375 14.878906l63.621093.070312c6.332031.007813 11.460938 5.144532 11.453125 11.480469-.007812 6.332031-5.144531 11.460938-11.480468 11.457031l-23.851563-.027343c-5.828125-.007813-10.558594 4.710937-10.566406 10.539062v1.832031c-.007813 5.828126 4.710937 10.558594 10.539062 10.566407l102.066407.109375c-13.796876-47.164063-41.046876-88.582032-77.335938-119.804688l-18.449219-.023437c-5.824219 0-10.554687 4.714843-10.5625 10.542969zm0 0" fill="#ffe292"/><path d="m135.789062 179.640625v-1.832031c-.007812-5.828125-4.738281-10.546875-10.5625-10.539063l-23.855468.023438c-6.332032.007812-11.472656-5.121094-11.480469-11.457031-.007813-6.332032 5.121094-11.472657 11.457031-11.480469l63.617188-.070313c8.207031-.007812 14.855468-6.667968 14.847656-14.878906-.011719-8.207031-6.671875-14.855469-14.878906-14.84375l-70.507813.078125c-5.203125-.90625-9.164062-5.429687-9.167969-10.890625-.007812-6.117188 4.945313-11.078125 11.0625-11.085938l22.671876-.023437c5.828124-.007813 10.546874-4.738281 10.542968-10.5625l-.003906-1.050781c-.003906-5.828125-4.734375-10.542969-10.5625-10.539063l-31.648438.035157c-36.257812 31.234374-63.488281 72.648437-77.261718 119.808593l115.191406-.128906c5.828125-.003906 10.546875-4.734375 10.539062-10.5625zm0 0" fill="#ffe292"/></svg>