<svg height="512pt" viewBox="-5 0 512 512" width="512pt" xmlns="http://www.w3.org/2000/svg"><path d="m502.261719 260.867188c0 138.699218-112.433594 251.132812-251.128907 251.132812-138.699218 0-251.132812-112.433594-251.132812-251.132812 0-138.695313 112.433594-251.128907 251.132812-251.128907 138.695313 0 251.128907 112.433594 251.128907 251.128907zm0 0" fill="#393991"/><path d="m502.261719 260.867188c0 138.699218-112.433594 251.132812-251.128907 251.132812-138.699218 0-251.132812-112.433594-251.132812-251.132812 0-138.695313 112.433594-251.128907 251.132812-251.128907 138.695313 0 251.128907 112.433594 251.128907 251.128907zm0 0" fill="#393991"/><path d="m498.417969 304.859375-46.210938-80.980469c-25.992187-45.554687-91.667969-45.554687-117.664062 0l-94.394531 165.433594 66.488281 116.523438c97.933593-22.09375 174.1875-101.410157 191.78125-200.976563zm0 0" fill="#e8bb2a"/><path d="m240.148438 389.3125 66.488281 116.527344c18.417969-4.15625 36.070312-10.335938 52.707031-18.292969l-87.625-153.566406zm0 0" fill="#cca023"/><path d="m49.726562 223.878906-45.953124 80.535156c20.617187 117.9375 123.515624 207.585938 247.359374 207.585938 25.859376 0 50.808594-3.914062 74.285157-11.171875l-158.027344-276.949219c-25.992187-45.554687-91.671875-45.554687-117.664063 0zm0 0" fill="#fdd33a"/><path d="m87.386719 248.179688c14.09375-24.703126 36.375-40.003907 60.609375-45.921876-30.953125-22.15625-77.402344-14.953124-98.269532 21.621094l-45.953124 80.535156c3.625 20.746094 9.808593 40.613282 18.195312 59.277344-.039062-.21875-.082031-.4375-.121094-.652344zm0 0" fill="#e8bb2a"/><path d="m436.417969 95.84375c-6.589844-8.683594-17.019531-14.285156-28.753907-14.273438-18.824218.019532-34.253906 14.476563-35.867187 32.894532-.109375 1.257812-1.0625 2.292968-2.316406 2.421875-12.652344 1.332031-22.511719 12.042969-22.5 25.058593.011719 13.90625 11.289062 25.171876 25.183593 25.160157l96.867188-.089844c4.960938-.003906 9.582031-1.449219 13.480469-3.9375-10.367188-24.492187-24.511719-47-41.695313-66.789063-.480468.144532-.957031.289063-1.421875.460938-1.078125.402344-2.28125.007812-2.976562-.90625zm0 0" fill="#5dc1d8"/><path d="m124.621094 166.566406c13.894531-.011718 25.152344-11.296875 25.136718-25.203125-.011718-13.042969-9.929687-23.753906-22.625-25.027343-1.179687-.117188-2.132812-1.042969-2.296874-2.21875-1.484376-10.867188-10.800782-19.238282-22.066407-19.226563-2.738281.003906-5.363281.5-7.785156 1.410156-1.074219.402344-2.277344.007813-2.972656-.90625-4.472657-5.890625-10.710938-10.355469-17.925781-12.621093-23.457032 23.320312-42.320313 51.242187-55.148438 82.296874 2.746094 1.023438 5.714844 1.585938 8.816406 1.585938zm0 0" fill="#5dc1d8"/><path d="m300.976562 101.992188c0 27.480468-22.277343 49.753906-49.753906 49.753906-27.480468 0-49.753906-22.273438-49.753906-49.753906 0-27.480469 22.273438-49.753907 49.753906-49.753907 27.476563 0 49.753906 22.273438 49.753906 49.753907zm0 0" fill="#fc8e36"/><path d="m220.488281 101.992188c0-24.226563 17.316407-44.402344 40.246094-48.84375-3.082031-.59375-6.257813-.910157-9.511719-.910157-27.480468 0-49.757812 22.273438-49.757812 49.753907 0 27.480468 22.277344 49.753906 49.757812 49.753906 3.253906 0 6.429688-.316406 9.511719-.910156-22.929687-4.441407-40.246094-24.617188-40.246094-48.84375zm0 0" fill="#ed7626"/><path d="m296.386719 97.890625c0 6.070313-4.921875 10.988281-10.988281 10.988281-6.066407 0-10.984376-4.917968-10.984376-10.988281 0-6.066406 4.917969-10.984375 10.984376-10.984375 6.066406 0 10.988281 4.917969 10.988281 10.984375zm0 0" fill="#ffab5f"/><path d="m279.660156 79.035156c0 3.804688-3.085937 6.886719-6.886718 6.886719-3.804688 0-6.886719-3.082031-6.886719-6.886719 0-3.804687 3.082031-6.886718 6.886719-6.886718 3.800781 0 6.886718 3.082031 6.886718 6.886718zm0 0" fill="#ffab5f"/><g fill="#fc8e36"><path d="m251.199219 42.503906c-4.246094 0-7.6875-3.441406-7.6875-7.6875v-27.128906c0-4.246094 3.441406-7.6875 7.6875-7.6875 4.246093 0 7.6875 3.441406 7.6875 7.6875v27.128906c0 4.242188-3.441407 7.6875-7.6875 7.6875zm0 0"/><path d="m251.199219 203.984375c-4.246094 0-7.6875-3.4375-7.6875-7.6875v-27.125c0-4.246094 3.441406-7.6875 7.6875-7.6875 4.246093 0 7.6875 3.441406 7.6875 7.6875v27.125c0 4.246094-3.441407 7.6875-7.6875 7.6875zm0 0"/><path d="m345.503906 109.679688h-27.128906c-4.242188 0-7.6875-3.441407-7.6875-7.6875 0-4.246094 3.445312-7.6875 7.6875-7.6875h27.128906c4.246094 0 7.6875 3.441406 7.6875 7.6875 0 4.246093-3.441406 7.6875-7.6875 7.6875zm0 0"/><path d="m184.019531 109.679688h-27.125c-4.246093 0-7.6875-3.441407-7.6875-7.6875 0-4.246094 3.441407-7.6875 7.6875-7.6875h27.125c4.246094 0 7.6875 3.441406 7.6875 7.6875 0 4.246093-3.441406 7.6875-7.6875 7.6875zm0 0"/><path d="m298.699219 62.179688c-1.964844 0-3.933594-.75-5.433594-2.25-3.003906-3.003907-3.003906-7.871094 0-10.875l19.179687-19.179688c3.003907-3.003906 7.871094-3.003906 10.875 0 3 3 3 7.867188 0 10.871094l-19.183593 19.183594c-1.5 1.5-3.46875 2.25-5.4375 2.25zm0 0"/><path d="m184.515625 176.363281c-1.96875 0-3.9375-.75-5.4375-2.25-3-3.003906-3-7.871093 0-10.871093l19.183594-19.183594c3-3 7.867187-3 10.871093 0 3 3.003906 3 7.871094 0 10.871094l-19.183593 19.183593c-1.5 1.5-3.46875 2.25-5.433594 2.25zm0 0"/><path d="m317.882812 176.363281c-1.96875 0-3.933593-.75-5.4375-2.25l-19.179687-19.183593c-3.003906-3-3.003906-7.867188 0-10.871094 3-3 7.871094-3 10.871094 0l19.183593 19.183594c3 3.003906 3 7.871093 0 10.871093-1.503906 1.5-3.46875 2.25-5.4375 2.25zm0 0"/><path d="m203.695312 62.179688c-1.964843 0-3.933593-.753907-5.433593-2.253907l-19.183594-19.179687c-3-3.003906-3-7.871094 0-10.871094 3.003906-3.003906 7.871094-3.003906 10.871094 0l19.183593 19.179688c3.003907 3.003906 3.003907 7.871093 0 10.871093-1.5 1.5-3.46875 2.253907-5.4375 2.253907zm0 0"/></g></svg>