<svg height="512pt" viewBox="-6 0 512 512" width="512pt" xmlns="http://www.w3.org/2000/svg"><path d="m500.757812 261.621094c0 138.28125-112.097656 250.378906-250.378906 250.378906s-250.378906-112.097656-250.378906-250.378906 112.097656-250.378906 250.378906-250.378906 250.378906 112.097656 250.378906 250.378906zm0 0" fill="#393991"/><path d="m78.878906 285.199219c-.414062-3.210938 2.199219-5.820313 5.40625-5.410157 19.667969 2.53125 81.929688 12.792969 113.4375 44.304688 28.027344 28.023438 29.675782 63.046875 9.089844 83.632812-20.582031 20.582032-55.605469 18.933594-83.632812-9.09375-31.507813-31.507812-41.773438-93.769531-44.300782-113.433593zm0 0" fill="#fc8e36"/><path d="m140.554688 381.261719c-25.90625-25.90625-37.449219-72.59375-42.140626-99.3125-5.78125-1.011719-10.632812-1.710938-14.128906-2.160157-3.207031-.410156-5.820312 2.199219-5.40625 5.410157 2.527344 19.664062 12.792969 81.925781 44.300782 113.433593 28.027343 28.027344 63.050781 29.675782 83.632812 9.09375 2.992188-2.992187 5.5-6.300781 7.539062-9.835937-20.792968 11.992187-49.847656 7.320313-73.796874-16.628906zm0 0" fill="#ed7626"/><path d="m421.09375 285.199219c.414062-3.210938-2.199219-5.820313-5.40625-5.410157-19.667969 2.53125-81.929688 12.792969-113.4375 44.304688-28.027344 28.023438-29.675781 63.046875-9.089844 83.632812 20.582032 20.582032 55.605469 18.933594 83.632813-9.09375 31.507812-31.507812 41.773437-93.769531 44.300781-113.433593zm0 0" fill="#fc8e36"/><path d="m415.6875 279.789062c-3.746094.480469-9.039062 1.246094-15.371094 2.382813-4.828125 26.898437-16.414062 72.558594-41.917968 98.066406-23.707032 23.703125-52.414063 28.535157-73.15625 17.007813 2.101562 3.78125 4.742187 7.304687 7.917968 10.476562 20.582032 20.585938 55.605469 18.9375 83.632813-9.089844 31.507812-31.507812 41.773437-93.769531 44.300781-113.4375.414062-3.207031-2.199219-5.816406-5.40625-5.40625zm0 0" fill="#ed7626"/><path d="m398.992188 301.886719c-2.996094-2.992188-7.847657-2.992188-10.839844.003906l-127.160156 127.214844v-184.859375h-23.542969v183.328125l-125.628907-125.683594c-2.992187-2.992187-7.847656-2.992187-10.839843 0-2.996094 2.992187-2.996094 7.84375-.003907 10.835937l136.472657 136.527344v62.417969c4.28125.214844 8.59375.328125 12.929687.328125 3.558594 0 7.09375-.09375 10.613282-.238281v-60.972657l138.003906-138.0625c2.992187-2.992187 2.988281-7.84375-.003906-10.839843zm0 0" fill="#fdd33a"/><path d="m237.449219 244.246094h23.542969v35.769531h-23.542969zm0 0" fill="#e8bb2a"/><path d="m356.582031 92.769531c-5.148437-2.671875-7.558593-8.667969-5.820312-14.203125 4.386719-13.945312 1.054687-29.796875-10-40.851562-11.054688-11.054688-26.902344-14.386719-40.851563-10-5.53125 1.742187-11.53125-.671875-14.199218-5.820313-6.75-13.007812-20.335938-21.894531-36-21.894531-15.664063 0-29.25 8.886719-35.996094 21.894531-2.671875 5.148438-8.671875 7.558594-14.203125 5.820313-13.945313-4.386719-29.796875-1.054688-40.851563 10-11.054687 11.054687-14.386718 26.902344-10 40.851562 1.742188 5.535156-.671875 11.53125-5.820312 14.203125-13.007813 6.746094-21.894532 20.332031-21.894532 35.996094s8.886719 29.25 21.894532 35.996094c5.148437 2.671875 7.5625 8.671875 5.820312 14.203125-4.382812 13.945312-1.054687 29.796875 10 40.851562 11.054688 11.054688 26.90625 14.386719 40.851563 10 5.535156-1.742187 11.53125.671875 14.203125 5.820313 6.746094 13.007812 20.332031 21.894531 35.996094 21.894531 15.664062 0 29.25-8.886719 35.996093-21.890625 2.671875-5.148437 8.671875-7.5625 14.203125-5.824219 13.945313 4.386719 29.796875 1.058594 40.851563-9.996094 11.054687-11.054687 14.386719-26.90625 10-40.855468-1.742188-5.53125.671875-11.53125 5.820312-14.199219 13.007813-6.75 21.894531-20.332031 21.894531-36 0-15.664063-8.886718-29.25-21.894531-35.996094zm0 0" fill="#fc8e36"/><path d="m356.582031 92.769531c-5.148437-2.671875-7.558593-8.667969-5.820312-14.203125 4.386719-13.945312 1.054687-29.796875-10-40.851562-11.054688-11.054688-26.902344-14.386719-40.851563-10-5.53125 1.742187-11.53125-.671875-14.199218-5.820313-6.75-13.007812-20.335938-21.894531-36-21.894531-15.664063 0-29.25 8.886719-35.996094 21.894531-2.671875 5.148438-8.671875 7.558594-14.203125 5.820313-13.945313-4.386719-29.796875-1.054688-40.851563 10-11.054687 11.054687-14.386718 26.902344-10 40.851562 1.742188 5.535156-.671875 11.53125-5.820312 14.203125-13.007813 6.746094-21.894532 20.332031-21.894532 35.996094s8.886719 29.25 21.894532 35.996094c5.148437 2.671875 7.5625 8.671875 5.820312 14.203125-4.382812 13.945312-1.054687 29.796875 10 40.851562 11.054688 11.054688 26.90625 14.386719 40.851563 10 5.535156-1.742187 11.53125.671875 14.203125 5.820313 6.746094 13.007812 20.332031 21.894531 35.996094 21.894531 15.664062 0 29.25-8.886719 35.996093-21.890625 2.671875-5.148437 8.671875-7.5625 14.203125-5.824219 13.945313 4.386719 29.796875 1.058594 40.851563-9.996094 11.054687-11.054687 14.386719-26.90625 10-40.855468-1.742188-5.53125.671875-11.53125 5.820312-14.199219 13.007813-6.75 21.894531-20.332031 21.894531-36 0-15.664063-8.886718-29.25-21.894531-35.996094zm0 0" fill="#fc8e36"/><path d="m314.09375 128.765625c0 36.21875-29.359375 65.578125-65.574219 65.578125-36.214843 0-65.574219-29.359375-65.574219-65.578125 0-36.214844 29.359376-65.574219 65.574219-65.574219 36.214844 0 65.574219 29.359375 65.574219 65.574219zm0 0" fill="#fff"/><path d="m170.640625 128.765625c0-61.714844 48.761719-112.039063 109.859375-114.558594-7.433594-8.6875-18.460938-14.207031-30.789062-14.207031-15.664063 0-29.25 8.886719-35.996094 21.894531-2.671875 5.148438-8.671875 7.558594-14.203125 5.820313-13.945313-4.386719-29.796875-1.054688-40.851563 10-11.054687 11.054687-14.386718 26.902344-10 40.851562 1.742188 5.535156-.671875 11.53125-5.820312 14.203125-13.007813 6.746094-21.894532 20.332031-21.894532 35.996094s8.886719 29.25 21.894532 35.996094c5.148437 2.671875 7.5625 8.671875 5.820312 14.203125-4.382812 13.945312-1.054687 29.796875 10 40.851562 11.054688 11.054688 26.90625 14.386719 40.851563 10 5.535156-1.742187 11.53125.671875 14.203125 5.820313 6.746094 13.007812 20.332031 21.894531 35.996094 21.894531 12.328124 0 23.355468-5.519531 30.785156-14.203125-61.09375-2.523437-109.855469-52.84375-109.855469-114.5625zm0 0" fill="#ed7626"/><path d="m220.753906 128.765625c0-29.640625 19.675782-54.679687 46.671875-62.796875-5.988281-1.800781-12.332031-2.777344-18.90625-2.777344-36.214843 0-65.574219 29.359375-65.574219 65.574219 0 36.21875 29.355469 65.578125 65.574219 65.578125 6.574219 0 12.917969-.980469 18.90625-2.78125-26.996093-8.117188-46.671875-33.152344-46.671875-62.796875zm0 0" fill="#ddd"/></svg>