<svg height="512pt" viewBox="-5 0 512 512" width="512pt" xmlns="http://www.w3.org/2000/svg"><path d="m501.761719 261.121094c0 138.554687-112.324219 250.878906-250.882813 250.878906-138.554687 0-250.878906-112.324219-250.878906-250.878906 0-138.558594 112.324219-250.882813 250.878906-250.882813 138.558594 0 250.882813 112.324219 250.882813 250.882813zm0 0" fill="#393991"/><path d="m282.339844 351.550781 78.144531-78.144531h-29.804687l-50.148438 50.148438c-5.722656 5.726562-15.511719 1.667968-15.511719-6.425782v-43.722656h-39.9375v42.699219c0 8.09375-9.785156 12.148437-15.511719 6.425781l-49.125-49.125h-29.800781l77.117188 77.121094c11.089843 11.089844 17.320312 26.132812 17.320312 41.816406v118.34375c8.480469.867188 17.085938 1.3125 25.796875 1.3125 4.746094 0 9.457032-.144531 14.140625-.40625v-118.222656c0-15.6875 6.230469-30.730469 17.320313-41.820313zm0 0" fill="#fdd33a"/><path d="m159.988281 367.777344c-2.746093-2.746094-7.199219-2.746094-9.945312 0l-15.269531 15.265625c-17.289063-11.984375-42.816407-8.8125-63.664063 12.03125-26.027344 26.03125-34.507813 77.460937-36.597656 93.707031-.339844 2.652344 1.816406 4.808594 4.46875 4.46875 16.246093-2.089844 67.679687-10.570312 93.707031-36.597656 20.84375-20.84375 24.015625-46.371094 12.03125-63.664063l15.269531-15.265625c2.746094-2.75 2.746094-7.199218 0-9.945312zm0 0" fill="#fc8e36"/><path d="m160.125 367.78125c-2.753906-2.753906-7.214844-2.753906-9.96875 0l-15.300781 15.300781c-17.332031-12.011719-42.914063-8.835937-63.804688 12.058594-4.28125 4.28125-8.082031 9.253906-11.464843 14.636719 17.25-10.097656 35.578124-9.949219 48.984374-.691406l9.964844 9.925781c9.414063 13.523437 9.539063 32.113281-.839844 49.570312 5.546876-3.449219 10.675782-7.332031 15.066407-11.726562 20.894531-20.894531 24.074219-46.476563 12.0625-63.804688l15.300781-15.304687c2.75-2.75 2.75-7.210938 0-9.964844zm0 0" fill="#ed7626"/><path d="m57.042969 477.75c-1.800781 0-3.597657-.6875-4.972657-2.058594-2.746093-2.746094-2.746093-7.199218 0-9.945312l97.972657-97.96875c2.746093-2.746094 7.199219-2.746094 9.945312 0 2.742188 2.746094 2.742188 7.195312 0 9.945312l-97.972656 97.96875c-1.375 1.371094-3.171875 2.058594-4.972656 2.058594zm0 0" fill="#fdd33a"/><path d="m330.566406 367.777344c2.746094-2.746094 7.199219-2.746094 9.945313 0l15.269531 15.265625c17.289062-11.984375 42.816406-8.8125 63.664062 12.03125 26.027344 26.03125 34.507813 77.460937 36.59375 93.707031.34375 2.652344-1.8125 4.808594-4.464843 4.46875-16.246094-2.089844-67.679688-10.570312-93.707031-36.597656-20.847657-20.84375-24.019532-46.371094-12.03125-63.664063l-15.269532-15.265625c-2.746094-2.75-2.746094-7.199218 0-9.945312zm0 0" fill="#fc8e36"/><path d="m330.429688 367.78125c2.753906-2.753906 7.214843-2.753906 9.96875 0l15.300781 15.300781c17.328125-12.011719 42.914062-8.835937 63.804687 12.058594 4.28125 4.28125 8.078125 9.253906 11.460938 14.636719-17.246094-10.097656-35.574219-9.949219-48.984375-.691406l-9.964844 9.925781c-9.410156 13.523437-9.535156 32.113281.84375 49.570312-5.546875-3.449219-10.675781-7.332031-15.070313-11.726562-20.890624-20.894531-24.070312-46.476563-12.058593-63.804688l-15.300781-15.304687c-2.75-2.75-2.75-7.210938 0-9.964844zm0 0" fill="#ed7626"/><path d="m433.511719 477.75c1.796875 0 3.597656-.6875 4.972656-2.058594 2.742187-2.746094 2.742187-7.199218 0-9.945312l-97.972656-97.96875c-2.746094-2.746094-7.199219-2.746094-9.945313 0s-2.746094 7.195312 0 9.945312l97.972656 97.96875c1.371094 1.371094 3.171876 2.058594 4.972657 2.058594zm0 0" fill="#fdd33a"/><g fill="#e8bb2a"><path d="m303.03125 301.054688h29.804688l27.648437-27.648438h-29.804687zm0 0"/><path d="m160.445312 273.40625h-29.800781l27.644531 27.648438h29.804688zm0 0"/><path d="m225.082031 273.40625h39.9375v27.648438h-39.9375zm0 0"/></g><path d="m348.476562 279.550781h-206.847656c-77.199218 0-139.777344-62.578125-139.777344-139.773437 0-77.199219 62.578126-139.777344 139.773438-139.777344h206.847656c77.199219 0 139.777344 62.578125 139.777344 139.777344 0 77.195312-62.578125 139.773437-139.773438 139.773437zm0 0" fill="#5dc1d8"/><path d="m98.105469 139.777344c0-77.199219 62.582031-139.777344 139.777343-139.777344h-96.253906c-77.199218 0-139.777344 62.578125-139.777344 139.777344 0 77.195312 62.578126 139.773437 139.777344 139.773437h96.253906c-77.195312 0-139.777343-62.578125-139.777343-139.773437zm0 0" fill="#47aebf"/></svg>