<svg height="512pt" viewBox="0 0 512 512" width="512pt" xmlns="http://www.w3.org/2000/svg"><path d="m512 256c0 141.386719-114.613281 256-256 256s-256-114.613281-256-256 114.613281-256 256-256 256 114.613281 256 256zm0 0" fill="#393991"/><path d="m507.292969 305.011719-73.683594-127.625c-16.289063-28.210938-57.007813-28.210938-73.296875 0l-106.085938 183.746093 80.0625 138.671876c87.933594-28.21875 155.144532-102.699219 173.003907-194.792969zm0 0" fill="#47aebf"/><path d="m254.226562 361.132812 80.0625 138.671876c11.972657-3.839844 23.554688-8.546876 34.683594-14.03125l-93.355468-161.695313zm0 0" fill="#3a9faa"/><path d="m354.414062 211.527344c7.59375.746094 14.054688-5.265625 14.054688-12.714844v-.421875c0-3.351563 2.152344-6.441406 5.398438-7.289063.65625-.171874 1.347656-.261718 2.054687-.261718 1.808594 0 3.480469.589844 4.839844 1.589844 1.878906 1.382812 2.898437 3.652343 2.898437 5.984374v11.492188c0 6.640625 4.898438 12.46875 11.507813 13.117188 7.59375.742187 14.050781-5.269532 14.050781-12.71875v-11.917969c0-3.351563 2.15625-6.4375 5.398438-7.285157.660156-.171874 1.347656-.261718 2.058593-.261718 1.804688 0 3.480469.589844 4.839844 1.589844 1.878906 1.382812 2.894531 3.648437 2.894531 5.980468 0 6.640625 4.902344 12.46875 11.511719 13.117188 5.757813.566406 10.855469-2.761719 12.984375-7.648438l-15.292969-26.492187c-16.289062-28.214844-57.011719-28.214844-73.300781 0l-15.800781 27.371093c1.957031 3.667969 5.554687 6.34375 9.902343 6.769532zm0 0" fill="#fff"/><path d="m88.640625 177.386719-81.097656 140.464843c27.664062 111.5 128.402343 194.148438 248.457031 194.148438 31.589844 0 61.835938-5.738281 89.773438-16.199219l-183.835938-318.414062c-16.289062-28.210938-57.011719-28.210938-73.296875 0zm0 0" fill="#5dc1d8"/><path d="m114.140625 193.660156c-.722656-1.773437-1.882813-3.332031-3.410156-4.457031-1.992188-1.460937-4.34375-2.238281-6.808594-2.238281-.980469 0-1.953125.125-2.894531.371094-4.632813 1.207031-7.867188 5.519531-7.867188 10.488281v.429687c0 2.789063-1.195312 5.46875-3.277344 7.359375-2.109374 1.910157-4.824218 2.804688-7.652343 2.53125-2.875-.28125-5.484375-1.902343-7.160157-4.445312l-.867187-1.3125-66.660156 115.464843c3.644531 14.695313 8.578125 28.875 14.640625 42.441407l89.519531-154.449219zm0 0" fill="#47aebf"/><path d="m81.925781 211.265625c7.765625.761719 14.371094-5.390625 14.371094-13.007813v-.433593c0-3.429688 2.203125-6.589844 5.523437-7.453125.671876-.175782 1.375-.269532 2.101563-.269532 1.847656 0 3.558594.605469 4.949219 1.628907 1.921875 1.414062 2.964844 3.730469 2.964844 6.117187v11.757813c0 6.792969 5.011718 12.753906 11.769531 13.417969 7.769531.761718 14.375-5.390626 14.375-13.007813v-12.191406c0-3.429688 2.203125-6.585938 5.523437-7.453125.671875-.175782 1.375-.269532 2.101563-.269532 1.847656 0 3.5625.605469 4.949219 1.628907 1.921874 1.414062 2.964843 3.734375 2.964843 6.117187 0 6.792969 5.011719 12.753906 11.773438 13.417969 5.296875.519531 10.039062-2.183594 12.527343-6.367187l-15.882812-27.511719c-16.289062-28.210938-57.011719-28.210938-73.296875 0l-16.1875 28.035156c2.097656 3.183594 5.464844 5.449219 9.472656 5.84375zm0 0" fill="#fff"/><path d="m81.925781 211.265625c7.765625.761719 14.371094-5.390625 14.371094-13.007813v-.433593c0-3.429688 2.203125-6.589844 5.523437-7.453125.671876-.175782 1.375-.269532 2.101563-.269532 1.847656 0 3.558594.605469 4.949219 1.628907 1.921875 1.414062 2.964844 3.730469 2.964844 6.117187v8.410156l7.097656-12.316406c8.46875-14.667968 22.660156-22.707031 37.417968-24.164062-18.621093-20.304688-53.054687-17.777344-67.714843 7.609375l-16.183594 28.035156c2.097656 3.183594 5.464844 5.449219 9.472656 5.84375zm0 0" fill="#ddd"/><path d="m309.710938 151.511719h-41.199219l22.429687-22.429688c2.039063-2.039062 2.039063-5.347656 0-7.386719-2.039062-2.042968-5.351562-2.042968-7.386718 0l-22.429688 22.425782v-41.199219c0-2.886719-2.339844-5.222656-5.226562-5.222656-2.882813 0-5.222657 2.335937-5.222657 5.222656v41.199219l-22.429687-22.425782c-2.039063-2.042968-5.347656-2.042968-7.386719 0-2.042969 2.039063-2.042969 5.347657 0 7.386719l22.425781 22.429688h-41.199218c-2.886719 0-5.222657 2.335937-5.222657 5.222656s2.335938 5.226563 5.222657 5.226563h41.199218l-22.425781 22.425781c-2.042969 2.039062-2.042969 5.347656 0 7.386719 1.019531 1.023437 2.355469 1.53125 3.691406 1.53125 1.335938 0 2.675781-.507813 3.695313-1.53125l22.429687-22.425782v41.199219c0 2.886719 2.335938 5.222656 5.222657 5.222656 2.886718 0 5.226562-2.335937 5.226562-5.222656v-41.199219l22.425781 22.425782c1.019531 1.023437 2.359375 1.53125 3.695313 1.53125 1.335937 0 2.675781-.507813 3.691406-1.53125 2.042969-2.039063 2.042969-5.347657 0-7.386719l-22.425781-22.425781h41.199219c2.886718 0 5.226562-2.339844 5.226562-5.226563s-2.339844-5.222656-5.226562-5.222656zm0 0" fill="#fff"/><g fill="#5dc1d8"><path d="m402.617188 80.890625h-29.558594l16.089844-16.09375c1.464843-1.464844 1.464843-3.835937 0-5.300781-1.460938-1.464844-3.835938-1.464844-5.300782 0l-16.089844 16.09375v-29.5625c0-2.070313-1.679687-3.746094-3.75-3.746094-2.070312 0-3.746093 1.675781-3.746093 3.746094v29.5625l-16.09375-16.09375c-1.460938-1.464844-3.835938-1.464844-5.300781 0-1.460938 1.464844-1.460938 3.835937 0 5.300781l16.09375 16.09375h-29.558594c-2.070313 0-3.75 1.675781-3.75 3.746094 0 2.070312 1.679687 3.75 3.75 3.75h29.558594l-16.09375 16.089843c-1.460938 1.464844-1.460938 3.835938 0 5.300782.734374.730468 1.691406 1.097656 2.652343 1.097656.957031 0 1.917969-.367188 2.648438-1.097656l16.09375-16.089844v29.558594c0 2.070312 1.675781 3.746094 3.746093 3.746094 2.070313 0 3.75-1.675782 3.75-3.746094v-29.558594l16.089844 16.089844c.730469.730468 1.691406 1.097656 2.648438 1.097656.960937 0 1.917968-.367188 2.652344-1.097656 1.460937-1.464844 1.460937-3.835938 0-5.300782l-16.09375-16.089843h29.558593c2.070313 0 3.75-1.679688 3.75-3.75 0-2.070313-1.675781-3.746094-3.746093-3.746094zm0 0"/><path d="m189.53125 80.890625h-29.558594l16.089844-16.09375c1.464844-1.464844 1.464844-3.835937 0-5.300781-1.460938-1.464844-3.835938-1.464844-5.300781 0l-16.089844 16.09375v-29.5625c0-2.070313-1.679687-3.746094-3.746094-3.746094-2.070312 0-3.75 1.675781-3.75 3.746094v29.5625l-16.089843-16.09375c-1.464844-1.464844-3.839844-1.464844-5.300782 0-1.464844 1.464844-1.464844 3.835937 0 5.300781l16.089844 16.09375h-29.558594c-2.070312 0-3.75 1.675781-3.75 3.746094 0 2.070312 1.679688 3.75 3.75 3.75h29.558594l-16.089844 16.089843c-1.464844 1.464844-1.464844 3.835938 0 5.300782.730469.730468 1.6875 1.097656 2.648438 1.097656.960937 0 1.917968-.367188 2.648437-1.097656l16.09375-16.089844v29.558594c0 2.070312 1.675781 3.746094 3.746094 3.746094s3.75-1.675782 3.75-3.746094v-29.558594l16.089844 16.089844c.730469.730468 1.691406 1.097656 2.652343 1.097656.957032 0 1.917969-.367188 2.648438-1.097656 1.464844-1.464844 1.464844-3.835938 0-5.300782l-16.089844-16.089843h29.558594c2.070312 0 3.746094-1.679688 3.746094-3.75 0-2.070313-1.675782-3.746094-3.746094-3.746094zm0 0"/></g></svg>