<?xml version="1.0" encoding="iso-8859-1"?>
<!-- Generator: Adobe Illustrator 19.0.0, SVG Export Plug-In . SVG Version: 6.00 Build 0)  -->
<svg xmlns="http://www.w3.org/2000/svg" xmlns:xlink="http://www.w3.org/1999/xlink" version="1.1" id="Layer_1" x="0px" y="0px" viewBox="0 0 497 497" style="enable-background:new 0 0 497 497;" xml:space="preserve" width="512" height="512">
<g>
	<path style="fill:#FDE475;" d="M375.944,94.655c-2.345-3.53-7.81-2.362-8.471,1.824c-2.15,13.627-8.023,36.316-24.054,57.266   c-2.705,3.536-8.337,1.848-8.586-2.597c-1.746-31.211-13.343-113.66-85.941-150.626c-3.304-1.682-7.148,0.932-6.765,4.619   c2.222,21.367,3.705,78.837-37.925,114.709c-2.068,1.782-5.213,1.421-6.882-0.739c-7.407-9.583-24.947-36.176-19.707-67.442   c0.678-4.042-3.897-6.89-7.249-4.532C155.076,57.89,123.56,86.025,87.16,152.538l-0.002-0.001   C-12.206,348.925,74.495,497,248.5,497C439.231,497,525.067,319.09,375.944,94.655z"/>
	<g>
		<path style="fill:#FDB058;" d="M127.159,152.536l0.002,0.001c18.77-34.297,36.233-58.37,50.85-75.137    c-1.512-7.984-1.917-16.659-0.396-25.732c0.677-4.042-3.897-6.89-7.249-4.532c-15.288,10.754-46.804,38.889-83.204,105.401    l-0.002-0.001C-12.206,348.925,74.495,497,248.5,497c6.784,0,13.431-0.233,19.944-0.677    C107.983,485.315,31.689,341.226,127.159,152.536z"/>
	</g>
	<path style="fill:#FD5C6F;" d="M263.557,175.854c-0.691-5.369-6.38-8.54-11.239-6.153c-28.688,14.09-102.632,59.875-104.12,158.031   c-0.86,56.687,44.648,103.907,101.339,103.33c54.925-0.559,99.277-45.257,99.277-100.314   C348.814,253.657,269.6,222.797,263.557,175.854z"/>
	<g>
		<g>
			<path style="fill:#3A3C4C;" d="M192.849,333.406c-4.142,0-7.5-3.358-7.5-7.5v-10.072c0-4.142,3.358-7.5,7.5-7.5     s7.5,3.358,7.5,7.5v10.072C200.349,330.048,196.991,333.406,192.849,333.406z"/>
		</g>
		<g>
			<path style="fill:#3A3C4C;" d="M304.151,333.406c-4.142,0-7.5-3.358-7.5-7.5v-10.072c0-4.142,3.358-7.5,7.5-7.5     s7.5,3.358,7.5,7.5v10.072C311.651,330.048,308.293,333.406,304.151,333.406z"/>
		</g>
		<g>
			<path style="fill:#3A3C4C;" d="M248.5,338.783c-7.517,0-14.582-3.149-19.382-8.641c-2.727-3.119-2.408-7.857,0.71-10.583     c3.119-2.726,7.857-2.408,10.583,0.711c1.952,2.232,4.9,3.513,8.089,3.513s6.137-1.28,8.088-3.513     c2.727-3.119,7.465-3.437,10.583-0.711c3.119,2.726,3.437,7.464,0.711,10.583C263.082,335.633,256.018,338.783,248.5,338.783z"/>
		</g>
	</g>
</g>















</svg>
