<?xml version="1.0" encoding="iso-8859-1"?>
<!-- Generator: Adobe Illustrator 19.0.0, SVG Export Plug-In . SVG Version: 6.00 Build 0)  -->
<svg version="1.1" id="Capa_1" xmlns="http://www.w3.org/2000/svg" xmlns:xlink="http://www.w3.org/1999/xlink" x="0px" y="0px"
	 viewBox="0 0 512 512" style="enable-background:new 0 0 512 512;" xml:space="preserve">
<path style="fill:#4DB8CC;" d="M256,0L256,0C165.681,0,92.463,73.218,92.463,163.537v12.957L256,208.503l163.537-32.011v-12.957
	C419.537,73.218,346.319,0,256,0z"/>
<path style="fill:#85E7FF;" d="M130.297,146.507C138.645,84.593,191.835,36.696,256,36.696s117.355,47.896,125.703,109.811H130.297z
	"/>
<path style="fill:#57D0E6;" d="M256,208.503L92.463,240.514l38.283,241.902C133.441,499.454,148.129,512,165.378,512h181.243
	c17.249,0,31.937-12.546,34.633-29.583l38.283-241.902L256,208.503z"/>
<path style="fill:#4DB8CC;" d="M161.651,482.417l-38.283-241.902l148.084-28.986L256,208.505l-163.537,32.01l38.283,241.902
	C133.442,499.454,148.13,512,165.378,512h30.905C179.035,512,164.348,499.454,161.651,482.417z"/>
<path style="fill:#85E7FF;" d="M419.537,176.494H92.463c-10.101,0-18.289,8.188-18.289,18.289v27.444
	c0,10.101,8.188,18.289,18.289,18.289h327.074c10.101,0,18.289-8.188,18.289-18.289v-27.444
	C437.826,184.682,429.638,176.494,419.537,176.494z"/>
<path style="fill:#57D0E6;" d="M105.079,222.225v-27.444c0-10.101,8.188-18.289,18.289-18.289H92.463
	c-10.101,0-18.289,8.188-18.289,18.289v27.444c0,10.101,8.188,18.289,18.289,18.289h30.905
	C113.268,240.514,105.079,232.326,105.079,222.225z"/>
<g>
	<path style="fill:#3A484A;" d="M167.596,367.236c-4.267,0-7.726-3.459-7.726-7.726v-16c0-4.267,3.459-7.726,7.726-7.726
		c4.267,0,7.726,3.459,7.726,7.726v16C175.322,363.776,171.863,367.236,167.596,367.236z"/>
	<path style="fill:#3A484A;" d="M344.404,367.236c-4.267,0-7.726-3.459-7.726-7.726v-16c0-4.267,3.459-7.726,7.726-7.726
		c4.267,0,7.726,3.459,7.726,7.726v16C352.13,363.776,348.671,367.236,344.404,367.236z"/>
	<path style="fill:#3A484A;" d="M256,375.776c-10.733,0-20.807-4.481-27.637-12.295c-2.808-3.212-2.481-8.094,0.732-10.902
		c3.213-2.808,8.094-2.481,10.902,0.732c3.895,4.457,9.728,7.012,16.002,7.012c6.274,0,12.107-2.556,16.003-7.012
		c2.808-3.213,7.689-3.541,10.902-0.731c3.213,2.808,3.541,7.689,0.731,10.902C276.806,371.295,266.733,375.776,256,375.776z"/>
</g>
<g>
</g>
<g>
</g>
<g>
</g>
<g>
</g>
<g>
</g>
<g>
</g>
<g>
</g>
<g>
</g>
<g>
</g>
<g>
</g>
<g>
</g>
<g>
</g>
<g>
</g>
<g>
</g>
<g>
</g>
</svg>
