<?xml version="1.0" encoding="iso-8859-1"?>
<!-- Generator: Adobe Illustrator 19.0.0, SVG Export Plug-In . SVG Version: 6.00 Build 0)  -->
<svg version="1.1" id="Capa_1" xmlns="http://www.w3.org/2000/svg" xmlns:xlink="http://www.w3.org/1999/xlink" x="0px" y="0px"
	 viewBox="0 0 512 512" style="enable-background:new 0 0 512 512;" xml:space="preserve">
<g>
	<polygon style="fill:#D4D2D3;" points="295.243,498.704 295.243,362.422 318.446,341.947 346.428,362.422 346.428,498.704 	"/>
	<polygon style="fill:#D4D2D3;" points="216.757,498.704 216.757,362.422 193.553,341.947 165.572,362.422 165.572,498.704 	"/>
</g>
<g>
	<path style="fill:#EFEDEE;" d="M452.842,13.296c-118.699,0-203.325,65.899-157.599,349.126h51.186V227.953
		c0-8.489,10.364-12.535,16.184-6.356c43.863,46.564,90.229,52.322,90.229,52.322l29.579-130.312L452.842,13.296z"/>
	<path style="fill:#EFEDEE;" d="M59.158,13.296c118.698,0,203.325,65.899,157.599,349.126h-51.186V227.953
		c0-8.489-10.364-12.535-16.184-6.356c-43.863,46.564-90.229,52.322-90.229,52.322L29.58,143.607L59.158,13.296z"/>
</g>
<path style="fill:#D4D2D3;" d="M452.842,13.296L452.842,13.296v260.623l0,0c32.672,0,59.158-26.486,59.158-59.158V72.454
	C512,39.781,485.514,13.296,452.842,13.296z"/>
<path style="fill:#485877;" d="M318.446,339.436c-4.268,0-7.726-3.459-7.726-7.726v-21.498c0-4.267,3.458-7.726,7.726-7.726
	c4.268,0,7.726,3.459,7.726,7.726v21.498C326.173,335.977,322.715,339.436,318.446,339.436z"/>
<path style="fill:#D4D2D3;" d="M59.158,13.296L59.158,13.296v260.623l0,0C26.486,273.919,0,247.433,0,214.761V72.454
	C0,39.781,26.486,13.296,59.158,13.296z"/>
<path style="fill:#485877;" d="M193.553,339.436c-4.268,0-7.726-3.459-7.726-7.726v-21.498c0-4.267,3.458-7.726,7.726-7.726
	c4.268,0,7.726,3.459,7.726,7.726v21.498C201.28,335.977,197.821,339.436,193.553,339.436z"/>
<g>
</g>
<g>
</g>
<g>
</g>
<g>
</g>
<g>
</g>
<g>
</g>
<g>
</g>
<g>
</g>
<g>
</g>
<g>
</g>
<g>
</g>
<g>
</g>
<g>
</g>
<g>
</g>
<g>
</g>
</svg>
