<?xml version="1.0" encoding="iso-8859-1"?>
<!-- Generator: Adobe Illustrator 19.0.0, SVG Export Plug-In . SVG Version: 6.00 Build 0)  -->
<svg version="1.1" id="Capa_1" xmlns="http://www.w3.org/2000/svg" xmlns:xlink="http://www.w3.org/1999/xlink" x="0px" y="0px"
	 viewBox="0 0 512 512" style="enable-background:new 0 0 512 512;" xml:space="preserve">
<path style="fill:#FADC60;" d="M353.812,235.234c-11.566,0-20.94-9.376-20.94-20.94v-95.54c0-42.387-34.484-76.871-76.871-76.871
	s-76.871,34.484-76.871,76.871v95.54c0,11.566-9.376,20.94-20.94,20.94c-11.565,0-20.94-9.376-20.94-20.94v-95.54
	C137.248,53.272,190.52,0,256,0s118.752,53.272,118.752,118.752v95.54C374.752,225.858,365.377,235.234,353.812,235.234z"/>
<g>
	<path style="fill:#E6CB59;" d="M158.188,235.234c11.566,0,20.94-9.376,20.94-20.94V133.48h-41.881v80.814
		C137.248,225.859,146.623,235.234,158.188,235.234z"/>
	<path style="fill:#E6CB59;" d="M353.812,235.234c11.566,0,20.94-9.376,20.94-20.94V133.48h-41.881v80.814
		C332.871,225.859,342.247,235.234,353.812,235.234z"/>
</g>
<path style="fill:#6EE3FF;" d="M497.995,440.567l-44.028-233.841c-4.602-24.551-26.038-42.342-51.017-42.342H109.049
	c-24.979,0-46.415,17.791-51.017,42.342L14.005,440.567C7.047,477.688,35.526,512,73.293,512h365.413
	C476.474,512,504.953,477.688,497.995,440.567z"/>
<path style="fill:#42C3E2;" d="M44.911,440.567l44.028-233.841c4.602-24.551,26.038-42.342,51.017-42.342H109.05
	c-24.979,0-46.415,17.791-51.017,42.342L14.005,440.567C7.047,477.688,35.526,512,73.293,512h30.905
	C66.431,512,37.953,477.688,44.911,440.567z"/>
<g>
	<path style="fill:#3A484A;" d="M158.188,300.637c-4.267,0-7.726-3.459-7.726-7.726v-17.703c0-4.267,3.459-7.726,7.726-7.726
		c4.267,0,7.726,3.459,7.726,7.726v17.703C165.915,297.177,162.455,300.637,158.188,300.637z"/>
	<path style="fill:#3A484A;" d="M353.812,300.637c-4.267,0-7.726-3.459-7.726-7.726v-17.703c0-4.267,3.459-7.726,7.726-7.726
		c4.267,0,7.726,3.459,7.726,7.726v17.703C361.538,297.177,358.08,300.637,353.812,300.637z"/>
	<path style="fill:#3A484A;" d="M256,310.086c-11.639,0-22.559-4.856-29.959-13.323c-2.808-3.213-2.48-8.094,0.732-10.902
		s8.093-2.481,10.902,0.732c4.466,5.109,11.144,8.04,18.324,8.04c7.179,0,13.858-2.93,18.325-8.04
		c2.808-3.213,7.689-3.541,10.902-0.731c3.213,2.808,3.541,7.689,0.731,10.902C278.558,305.23,267.638,310.086,256,310.086z"/>
</g>
<g>
</g>
<g>
</g>
<g>
</g>
<g>
</g>
<g>
</g>
<g>
</g>
<g>
</g>
<g>
</g>
<g>
</g>
<g>
</g>
<g>
</g>
<g>
</g>
<g>
</g>
<g>
</g>
<g>
</g>
</svg>
