<?xml version="1.0" encoding="iso-8859-1"?>
<!-- Generator: Adobe Illustrator 19.0.0, SVG Export Plug-In . SVG Version: 6.00 Build 0)  -->
<svg version="1.1" id="Capa_1" xmlns="http://www.w3.org/2000/svg" xmlns:xlink="http://www.w3.org/1999/xlink" x="0px" y="0px"
	 viewBox="0 0 512.001 512.001" style="enable-background:new 0 0 512.001 512.001;" xml:space="preserve">
<path style="fill:#60C28E;" d="M337.305,512H174.697c-18.432,0-33.948-13.791-36.111-32.095l-29.788-252.126h294.406
	l-29.788,252.126C371.253,498.209,355.737,512,337.305,512z"/>
<path style="fill:#59B382;" d="M362.717,501.643C242.478,491.418,204.155,362.977,191.03,280.021
	c-1.64-10.366,6.38-19.736,16.875-19.736h191.458l3.841-32.507H108.798l29.788,252.126C140.749,498.209,156.265,512,174.697,512
	h162.608C347.132,512,356.129,508.078,362.717,501.643z"/>
<path style="fill:#80D3AE;" d="M418.288,153.984H93.714c-12.194,0-22.079,9.885-22.079,22.079v29.636
	c0,12.194,9.885,22.079,22.079,22.079h324.573c12.194,0,22.079-9.885,22.079-22.079v-29.636
	C440.367,163.869,430.482,153.984,418.288,153.984z"/>
<path style="fill:#60C28E;" d="M306.659,0H205.343c-42.974,0-79.873,30.562-87.876,72.784l-15.391,81.2h307.85l-15.391-81.2
	C386.532,30.562,349.633,0,306.659,0z"/>
<path style="fill:#59B382;" d="M186.877,1.935c-34.719,7.312-62.583,34.829-69.41,70.849l-15.391,81.2h159.241
	C208.059,122.136,182.635,53.429,186.877,1.935z"/>
<path style="fill:#80D3AE;" d="M195.532,121.53h120.937c13.326,0,24.797-9.409,27.405-22.477l16.223-81.317
	C345.082,6.541,326.524,0,306.659,0H205.343c-19.865,0-38.423,6.541-53.438,17.735l16.223,81.317
	C170.735,112.121,182.207,121.53,195.532,121.53z"/>
<path style="fill:#60C28E;" d="M224.566,121.53C196.57,86.585,183.768,39.638,186.878,1.926
	c-12.833,2.706-24.729,8.172-34.973,15.809l16.223,81.317c2.607,13.068,14.079,22.477,27.404,22.477L224.566,121.53L224.566,121.53z
	"/>
<g>
	<ellipse style="fill:#FFFFFF;" cx="199.851" cy="69.897" rx="20.717" ry="16.498"/>
	<ellipse style="fill:#FFFFFF;" cx="312.151" cy="69.897" rx="20.717" ry="16.498"/>
</g>
<g>
	<path style="fill:#495059;" d="M211.928,60.938c-4.142,0-7.5-3.357-7.5-7.5v-7.315c0-4.143,3.358-7.5,7.5-7.5s7.5,3.357,7.5,7.5
		v7.315C219.428,57.581,216.07,60.938,211.928,60.938z"/>
	<path style="fill:#495059;" d="M300.074,60.938c-4.143,0-7.5-3.357-7.5-7.5v-7.315c0-4.143,3.358-7.5,7.5-7.5
		c4.143,0,7.5,3.357,7.5,7.5v7.315C307.574,57.581,304.217,60.938,300.074,60.938z"/>
	<path style="fill:#495059;" d="M256.001,66.557c-6.622,0-12.918-2.867-17.274-7.867c-2.721-3.122-2.396-7.86,0.727-10.581
		c3.122-2.721,7.861-2.396,10.582,0.728c1.507,1.729,3.681,2.721,5.965,2.721s4.458-0.992,5.965-2.721
		c2.721-3.124,7.458-3.448,10.581-0.728c3.123,2.721,3.449,7.459,0.727,10.581C268.918,63.689,262.622,66.557,256.001,66.557z"/>
</g>
<path style="fill:#C7C9CC;" d="M133.583,437.555l5.003,42.35C140.749,498.209,156.265,512,174.697,512h162.608
	c18.432,0,33.948-13.791,36.111-32.096l5.004-42.35H133.583V437.555z"/>
<path style="fill:#B2B5B8;" d="M362.717,501.643c-50.885-4.328-87.101-29.822-112.941-64.089H133.583l5.003,42.35
	C140.749,498.209,156.265,512,174.697,512h162.608C347.132,512,356.129,508.078,362.717,501.643z"/>
<path style="fill:#495059;" d="M320.534,462.221c-4.128-0.272-7.713,2.835-7.998,6.967l-2.912,42.297
	c-0.012,0.173-0.009,0.344-0.009,0.516h15.01l2.877-41.781C327.785,466.086,324.666,462.505,320.534,462.221z M199.465,469.188
	c-0.285-4.133-3.873-7.243-7.998-6.967c-4.132,0.285-7.252,3.865-6.967,7.998L187.378,512h15.01c0-0.171,0.003-0.342-0.009-0.516
	L199.465,469.188z M256.001,462.203c-4.142,0-7.5,3.357-7.5,7.5V512h15v-42.297C263.501,465.56,260.144,462.203,256.001,462.203z"/>
<g>
	<path style="fill:#FFFFFF;" d="M238.421,381.212h-26.818c-6.952,0-13.178-3.595-16.654-9.615c-3.476-6.022-3.476-13.211,0-19.232
		l22.199-38.45c2.071-3.588,6.658-4.816,10.245-2.745c3.587,2.071,4.816,6.658,2.745,10.245l-22.199,38.45
		c-1.102,1.909-0.367,3.595,0,4.232c0.368,0.636,1.46,2.115,3.664,2.115h26.818c4.142,0,7.5,3.357,7.5,7.5
		C245.921,377.854,242.563,381.212,238.421,381.212z"/>
	<path style="fill:#FFFFFF;" d="M300.399,381.212h-44.398c-4.142,0-7.5-3.357-7.5-7.5s3.358-7.5,7.5-7.5h44.398
		c2.205,0,3.297-1.48,3.664-2.116s1.103-2.321,0-4.23l-14.781-25.603c-2.071-3.587-0.842-8.174,2.745-10.245
		c3.585-2.069,8.174-0.843,10.245,2.745l14.781,25.603c3.477,6.021,3.477,13.209,0,19.23
		C313.578,377.617,307.352,381.212,300.399,381.212z"/>
	<path style="fill:#FFFFFF;" d="M288.366,325.166c-2.592,0-5.113-1.345-6.502-3.751l-22.199-38.45
		c-1.103-1.909-2.929-2.115-3.664-2.115l0,0c-0.734,0-2.562,0.206-3.664,2.115l-14.782,25.603
		c-2.072,3.587-6.659,4.813-10.245,2.745c-3.587-2.071-4.816-6.658-2.745-10.245l14.782-25.603
		c3.476-6.021,9.702-9.615,16.654-9.615l0,0c6.953,0,13.178,3.595,16.654,9.615l22.199,38.45c2.071,3.587,0.842,8.174-2.745,10.245
		C290.929,324.842,289.639,325.166,288.366,325.166z"/>
	<path style="fill:#FFFFFF;" d="M273.812,396.559c-1.561,0.001-3.136-0.485-4.482-1.491l-16.185-12.09
		c-2.952-2.204-4.644-5.582-4.644-9.266c0-3.685,1.693-7.063,4.645-9.267l16.184-12.089c3.318-2.479,8.019-1.797,10.497,1.521
		c2.479,3.318,1.798,8.018-1.52,10.497l-12.501,9.338l12.501,9.338c3.318,2.479,3.999,7.179,1.52,10.497
		C278.354,395.519,276.098,396.559,273.812,396.559z"/>
	<path style="fill:#FFFFFF;" d="M286.34,325.722c-1.546,0-3.099-0.315-4.577-0.951L263.2,316.8
		c-3.806-1.635-5.566-6.045-3.932-9.852c1.635-3.805,6.042-5.566,9.852-3.932l14.337,6.157l1.836-15.495
		c0.487-4.113,4.222-7.046,8.331-6.565c4.113,0.487,7.053,4.218,6.565,8.331l-2.377,20.062c-0.435,3.66-2.514,6.814-5.704,8.655
		C290.311,325.198,288.331,325.722,286.34,325.722z"/>
	<path style="fill:#FFFFFF;" d="M228.015,348.27c-3.748,0-6.987-2.805-7.439-6.618l-1.836-15.495l-14.337,6.158
		c-3.806,1.635-8.216-0.126-9.851-3.932s0.126-8.217,3.931-9.852l18.562-7.973c3.385-1.454,7.157-1.232,10.346,0.611
		c3.191,1.842,5.27,4.996,5.703,8.655l2.377,20.061c0.487,4.113-2.452,7.844-6.565,8.331
		C228.607,348.252,228.309,348.27,228.015,348.27z"/>
	<path style="fill:#FFFFFF;" d="M300.399,381.212h-44.398c-4.142,0-7.5-3.357-7.5-7.5s3.358-7.5,7.5-7.5h44.398
		c2.205,0,3.297-1.48,3.664-2.116s1.103-2.321,0-4.23l-13.409-23.226c-2.071-3.587-0.842-8.174,2.745-10.245
		c3.586-2.069,8.175-0.843,10.245,2.745l13.409,23.226c3.477,6.021,3.477,13.209,0,19.23
		C313.578,377.617,307.352,381.212,300.399,381.212z"/>
</g>
<g>
</g>
<g>
</g>
<g>
</g>
<g>
</g>
<g>
</g>
<g>
</g>
<g>
</g>
<g>
</g>
<g>
</g>
<g>
</g>
<g>
</g>
<g>
</g>
<g>
</g>
<g>
</g>
<g>
</g>
</svg>
