<?xml version="1.0" encoding="iso-8859-1"?>
<!-- Generator: Adobe Illustrator 19.0.0, SVG Export Plug-In . SVG Version: 6.00 Build 0)  -->
<svg version="1.1" id="Capa_1" xmlns="http://www.w3.org/2000/svg" xmlns:xlink="http://www.w3.org/1999/xlink" x="0px" y="0px"
	 viewBox="0 0 512 512" style="enable-background:new 0 0 512 512;" xml:space="preserve">
<path style="fill:#E38892;" d="M259.79,19.96c-1.344,93.461-43.683,154.835-97.769,176.713c-6.606,2.672-14.151,0.503-18.292-5.296
	c-8.432-11.811-18.638-30.298-22.985-55.172c-1.54-8.808-12.341-12.318-18.632-5.964C55.396,177.424,32.23,233.596,32.23,301.411
	C32.228,431.157,132.414,512,256,512s223.772-80.843,223.772-210.589c0-144.671-83.209-251.924-191.786-299.698
	C274.8-4.089,259.997,5.555,259.79,19.96z"/>
<g>
	<ellipse style="fill:#FFFFFF;" cx="146.36" cy="335.69" rx="40.454" ry="32.22"/>
	<ellipse style="fill:#FFFFFF;" cx="365.64" cy="335.69" rx="40.454" ry="32.22"/>
</g>
<g>
	<path style="fill:#495059;" d="M153.125,305.148c-4.143,0-7.5-3.357-7.5-7.5v-17.363c0-4.143,3.357-7.5,7.5-7.5s7.5,3.357,7.5,7.5
		v17.363C160.625,301.79,157.268,305.148,153.125,305.148z"/>
	<path style="fill:#495059;" d="M256,340.243L256,340.243c-16.187,0-29.309-13.122-29.309-29.309v-21.308
		c0-4.419,3.582-8.001,8.001-8.001h42.617c4.419,0,8.001,3.582,8.001,8.001v21.308C285.309,327.121,272.187,340.243,256,340.243z"/>
	<path style="fill:#495059;" d="M358.875,305.148c-4.143,0-7.5-3.357-7.5-7.5v-17.363c0-4.143,3.357-7.5,7.5-7.5s7.5,3.357,7.5,7.5
		v17.363C366.375,301.79,363.018,305.148,358.875,305.148z"/>
</g>
<path style="opacity:0.15;fill:#812B2F;enable-background:new    ;" d="M448.785,414.338C135.158,512,110.75,308.173,140.292,186.31
	c-7.604-11.776-15.779-28.535-19.55-50.106c-1.539-8.808-12.341-12.317-18.632-5.964c-46.716,47.183-69.882,103.355-69.882,171.17
	C32.228,431.157,132.414,512,256,512C338.093,512,409.847,476.318,448.785,414.338z"/>
<g>
</g>
<g>
</g>
<g>
</g>
<g>
</g>
<g>
</g>
<g>
</g>
<g>
</g>
<g>
</g>
<g>
</g>
<g>
</g>
<g>
</g>
<g>
</g>
<g>
</g>
<g>
</g>
<g>
</g>
</svg>
