<?xml version="1.0" encoding="iso-8859-1"?>
<!-- Generator: Adobe Illustrator 19.0.0, SVG Export Plug-In . SVG Version: 6.00 Build 0)  -->
<svg version="1.1" id="Capa_1" xmlns="http://www.w3.org/2000/svg" xmlns:xlink="http://www.w3.org/1999/xlink" x="0px" y="0px"
	 viewBox="0 0 512.002 512.002" style="enable-background:new 0 0 512.002 512.002;" xml:space="preserve">
<path style="fill:#5089DD;" d="M399.236,93.028v253.927c0,39.7-79.824,72.3-181.616,75.754c-5.925,0.212-11.929,0.313-17.988,0.313
	c-110.255,0-199.615-34.054-199.615-76.067V93.028H399.236z"/>
<g>
	<path style="fill:#2358C1;" d="M399.236,179.045v167.91c0,39.7-79.824,72.3-181.616,75.754l-13.908-24.081
		c-6.216-10.766-2.515-24.573,8.251-30.789l16.87-9.738c-0.436-4.405-0.648-8.843-0.648-13.259c0-4.427,0.212-8.854,0.648-13.259
		l-16.87-9.738c-10.766-6.216-14.467-20.023-8.251-30.789l33.651-58.292c4.014-6.943,11.493-11.269,19.52-11.269
		c3.947,0,7.837,1.051,11.269,3.018l16.87,9.749c7.211-5.188,14.892-9.626,22.963-13.282v-19.452
		c0-12.432,10.107-22.539,22.538-22.539h67.302C398.297,178.989,398.777,179,399.236,179.045z"/>
	<path style="fill:#2358C1;" d="M399.232,93.027v35.977c-11.605,12.454-29.459,23.489-52.892,32.421
		c-39.442,15.026-91.551,23.299-146.724,23.299c-55.184,0-107.281-8.273-146.724-23.299c-23.433-8.933-41.287-19.956-52.881-32.41
		V93.027H399.232z"/>
</g>
<path style="fill:#DCF9F7;" d="M399.236,228.84v118.115c0,39.688-79.801,72.277-181.616,75.743
	c-5.925,0.212-11.929,0.313-17.999,0.313c-110.244,0-199.615-34.054-199.615-76.056V228.84c0,42.014,89.371,76.067,199.615,76.067
	h1.23C310.524,304.65,399.236,270.697,399.236,228.84z"/>
<g>
	<path style="fill:#B0D1CF;" d="M399.236,228.84v118.115c0,39.688-79.801,72.277-181.616,75.743l-13.908-24.07
		c-6.216-10.766-2.515-24.573,8.251-30.789l16.87-9.738c-0.436-4.405-0.648-8.843-0.648-13.259c0-4.427,0.212-8.854,0.648-13.259
		l-16.87-9.738c-6.406-3.7-10.319-10.095-11.113-16.937C310.524,304.65,399.236,270.697,399.236,228.84z"/>
	<path style="fill:#B0D1CF;" d="M399.232,228.839v37.419c-11.526,12.566-29.459,23.701-53.093,32.712
		c-39.375,15.003-91.417,23.265-146.523,23.265c-55.116,0-107.147-8.262-146.523-23.265C29.459,289.959,11.526,278.824,0,266.258
		v-37.419c0,42.014,89.371,76.067,199.615,76.067S399.232,270.853,399.232,228.839z"/>
</g>
<ellipse style="fill:#7EAEF2;" cx="199.611" cy="93.018" rx="199.61" ry="76.06"/>
<path style="fill:#F9B767;" d="M484.505,344.84c0-7.357-0.663-14.56-1.928-21.553l25.979-14.999
	c3.294-1.902,4.422-6.114,2.521-9.408l-33.651-58.285c-1.902-3.294-6.114-4.422-9.408-2.521l-26.001,15.012
	c-10.93-9.283-23.538-16.646-37.308-21.573v-29.99c0-3.803-3.083-6.887-6.887-6.887h-67.301c-3.803,0-6.887,3.083-6.887,6.887v29.99
	c-13.77,4.926-26.378,12.29-37.308,21.573l-26.001-15.012c-3.294-1.902-7.506-0.773-9.408,2.521l-33.651,58.285
	c-1.902,3.294-0.773,7.506,2.521,9.408l25.979,14.999c-1.265,6.993-1.928,14.195-1.928,21.553s0.663,14.56,1.928,21.552
	l-25.979,14.999c-3.294,1.902-4.422,6.114-2.521,9.408l33.651,58.285c1.902,3.294,6.114,4.422,9.408,2.521l26.001-15.012
	c10.93,9.283,23.538,16.646,37.308,21.573v29.99c0,3.803,3.083,6.887,6.887,6.887h67.302c3.803,0,6.887-3.083,6.887-6.887v-29.99
	c13.77-4.926,26.378-12.29,37.308-21.573l26.001,15.012c3.294,1.902,7.506,0.773,9.408-2.521l33.651-58.285
	c1.902-3.294,0.773-7.506-2.521-9.408l-25.979-14.999C483.842,359.399,484.505,352.197,484.505,344.84z"/>
<path style="fill:#EF9D45;" d="M364.172,400.511c-30.697,0-55.672-24.974-55.672-55.672s24.974-55.672,55.672-55.672
	s55.672,24.974,55.672,55.672S394.869,400.511,364.172,400.511z"/>
<circle style="fill:#E58013;" cx="364.171" cy="344.838" r="39.26"/>
<g>
</g>
<g>
</g>
<g>
</g>
<g>
</g>
<g>
</g>
<g>
</g>
<g>
</g>
<g>
</g>
<g>
</g>
<g>
</g>
<g>
</g>
<g>
</g>
<g>
</g>
<g>
</g>
<g>
</g>
</svg>
