<svg height="511pt" viewBox="-48 0 511 511.99992" width="511pt" xmlns="http://www.w3.org/2000/svg"><path d="m130.644531 303.308594-.945312.765625c-29.957031 24.835937-73.546875 24.113281-102.660157-1.707031-26.828124-23.792969-34.226562-62.6875-18.007812-94.667969l68.636719-135.300781 71.953125 132.597656c17.960937 33.097656 10.011718 74.273437-18.976563 98.3125zm0 0" fill="#b8eaee"/><path d="m258.496094 500.789062-10.425782 3.476563c-32.972656 11-68.738281 10.246094-101.21875-2.132813-77.679687-29.578124-116.671874-116.527343-87.09375-194.207031 1.007813-2.644531 2.089844-5.265625 3.246094-7.851562l134.078125-300.074219 147.847657 289.566406c37.804687 74.023438 8.441406 164.679688-65.585938 202.484375-6.71875 3.429688-13.6875 6.351563-20.847656 8.738281zm0 0" fill="#c0f5f9"/><path d="m253.949219 457.703125c-5.234375.003906-9.484375-4.234375-9.488281-9.46875-.003907-3.582031 2.011718-6.859375 5.210937-8.472656 37.363281-18.699219 61.011719-56.847657 61.140625-98.628907.03125-5.214843 4.265625-9.421874 9.476562-9.421874h.058594c5.210938.03125 9.417969 4.265624 9.417969 9.476562-.148437 48.90625-27.824219 93.558594-71.554687 115.453125-1.316407.6875-2.777344 1.050781-4.261719 1.0625zm0 0" fill="#b8eaee"/><path d="m367.675781 454.917969h18.957031v18.953125h-18.957031zm0 0" fill="#b3e4e8"/><g fill="#b8eaee"><path d="m396.109375 417.007812h18.953125v18.957032h-18.953125zm0 0"/><path d="m339.246094 492.828125h18.953125v18.953125h-18.953125zm0 0"/></g></svg>