<svg height="512pt" viewBox="0 0 512 512" width="512pt" xmlns="http://www.w3.org/2000/svg"><g fill="#57565c"><path d="m160 64h32v96h-32zm0 0"/><path d="m240 64h32v96h-32zm0 0"/><path d="m320 64h32v96h-32zm0 0"/><path d="m320 352h32v96h-32zm0 0"/><path d="m240 352h32v96h-32zm0 0"/><path d="m160 352h32v96h-32zm0 0"/><path d="m64 320h96v32h-96zm0 0"/><path d="m64 240h96v32h-96zm0 0"/><path d="m64 160h96v32h-96zm0 0"/><path d="m352 160h96v32h-96zm0 0"/><path d="m352 240h96v32h-96zm0 0"/><path d="m352 320h96v32h-96zm0 0"/></g><path d="m128 128h256v256h-256zm0 0" fill="#00ddc2"/><path d="m160 0h32v32h-32zm0 0" fill="#57565c"/><path d="m240 0h32v32h-32zm0 0" fill="#57565c"/><path d="m320 0h32v32h-32zm0 0" fill="#57565c"/><path d="m320 480h32v32h-32zm0 0" fill="#57565c"/><path d="m240 480h32v32h-32zm0 0" fill="#57565c"/><path d="m160 480h32v32h-32zm0 0" fill="#57565c"/><path d="m0 320h32v32h-32zm0 0" fill="#57565c"/><path d="m0 240h32v32h-32zm0 0" fill="#57565c"/><path d="m0 160h32v32h-32zm0 0" fill="#57565c"/><path d="m480 160h32v32h-32zm0 0" fill="#57565c"/><path d="m480 240h32v32h-32zm0 0" fill="#57565c"/><path d="m480 320h32v32h-32zm0 0" fill="#57565c"/><path d="m320 160h32v32h-32zm0 0" fill="#ffcb5a"/><path d="m160 160h32v32h-32zm0 0" fill="#fff"/><path d="m224 160h32v32h-32zm0 0" fill="#fff"/><path d="m128 352h256v32h-256zm0 0" fill="#0ac1a7"/></svg>