<svg height="512pt" viewBox="0 0 512 512" width="512pt" xmlns="http://www.w3.org/2000/svg"><path d="m467 0h-422c-24.902344 0-45 21.097656-45 46v421c0 24.898438 20.097656 45 45 45h422c24.902344 0 45-20.101562 45-45v-421c0-24.902344-20.097656-46-45-46zm0 0" fill="#3e5959"/><path d="m512 46v421c0 24.898438-20.097656 45-45 45h-211v-512h211c24.902344 0 45 21.097656 45 46zm0 0" fill="#384949"/><path d="m256 61c-107.402344 0-195 87.597656-195 195 0 107.398438 87.597656 195 195 195s196-87.601562 196-195c0-107.402344-88.597656-195-196-195zm0 0" fill="#ececf1"/><path d="m452 256c0 107.398438-88.597656 195-196 195v-390c107.402344 0 196 87.597656 196 195zm0 0" fill="#e2e2e7"/><path d="m374.5 260.5c-9.902344-17.398438-26.101562-30-45.601562-35.101562l-31.5-8.398438c-.597657-12 2.101562-25.199219 9-40.199219 14.703124-33.300781-14.699219-69.601562-50.398438-62.101562-.601562.300781-1.5.300781-2.402344.601562-40.199218 10.5-63.898437 51.898438-53.097656 91.800781l8.398438 31.5c-9.902344 6.597657-22.800782 10.496094-39.300782 12.296876-10.199218 1.203124-19.796875 5.699218-26.699218 13.199218-17.699219 17.402344-17.699219 45.902344 0 63.601563 29.101562 29.101562 76.800781 29.101562 105.902343 0l7.199219-7.199219 15.902344-15.898438c10.496094 5.097657 20.695312 14.398438 30.296875 27.597657 6 8.402343 15 14.101562 24.601562 16.800781 24.296875 6.601562 48.898438-7.800781 55.199219-31.800781 5.101562-19.199219 2.699219-39.601563-7.5-56.699219zm0 0" fill="#00ddc1"/><path d="m382 317.199219c-6.300781 24-30.902344 38.402343-55.199219 31.800781-9.601562-2.699219-18.601562-8.398438-24.601562-16.800781-9.601563-13.199219-19.800781-22.5-30.296875-27.597657l-15.902344 15.898438v-205.800781c35.699219-7.5 65.097656 28.800781 50.398438 62.101562-6.898438 15-9.597657 28.199219-9 40.199219l31.5 8.398438c19.503906 5.097656 35.703124 17.703124 45.601562 35.097656 10.199219 17.101562 12.601562 37.503906 7.5 56.703125zm0 0" fill="#00ccb2"/><path d="m451.972656 436c0 8.285156-6.71875 15-15 15-8.285156 0-15-6.714844-15-15s6.714844-15 15-15c8.28125 0 15 6.714844 15 15zm0 0" fill="#e2e2e7"/><path d="m90.972656 436c0 8.285156-6.71875 15-15 15-8.285156 0-15-6.714844-15-15s6.714844-15 15-15c8.28125 0 15 6.714844 15 15zm0 0" fill="#ececf1"/><path d="m451.972656 76c0 8.285156-6.71875 15-15 15-8.285156 0-15-6.714844-15-15s6.714844-15 15-15c8.28125 0 15 6.714844 15 15zm0 0" fill="#e2e2e7"/><path d="m90.972656 76c0 8.285156-6.71875 15-15 15-8.285156 0-15-6.714844-15-15s6.714844-15 15-15c8.28125 0 15 6.714844 15 15zm0 0" fill="#ececf1"/><path d="m301 256c0 24.898438-20.097656 45-45 45s-45-20.101562-45-45c0-24.902344 20.097656-45 45-45s45 20.097656 45 45zm0 0" fill="#3e5959"/><path d="m301 256c0 24.898438-20.097656 45-45 45v-90c24.902344 0 45 20.097656 45 45zm0 0" fill="#384949"/></svg>