<svg height="512pt" viewBox="0 0 512 512" width="512pt" xmlns="http://www.w3.org/2000/svg"><path d="m512 177.300781v289.699219c0 24.898438-20.097656 45-45 45h-46l-30-45h-270l-30 45h-46c-24.902344 0-45-20.101562-45-45v-392c0-24.902344 20.097656-45 45-45h46l30 45h240l30-34.800781c1.5.902343 3 1.800781 4.5 3l103.300781 102.300781c8.398438 8.699219 13.199219 19.800781 13.199219 31.800781zm0 0" fill="#3e5959"/><path d="m512 177.300781v289.699219c0 24.898438-20.097656 45-45 45h-46l-30-45h-135v-392h105l30-34.800781c1.5.902343 3 1.800781 4.5 3l103.300781 102.300781c8.398438 8.699219 13.199219 19.800781 13.199219 31.800781zm0 0" fill="#384949"/><path d="m421 301v211h-330v-211l165-30zm0 0" fill="#ececf1"/><path d="m421 301v211h-165v-241zm0 0" fill="#e2e2e7"/><path d="m361 376c0 8.398438-6.597656 15-15 15h-180c-8.402344 0-15-6.601562-15-15 0-8.402344 6.597656-15 15-15h180c8.402344 0 15 6.597656 15 15zm0 0" fill="#ececf1"/><path d="m106 180h45l30-60-30-90h-60v135c0 8.285156 6.714844 15 15 15zm0 0" fill="#384949"/><path d="m361 376c0 8.398438-6.597656 15-15 15h-90v-30h90c8.402344 0 15 6.597656 15 15zm0 0" fill="#e2e2e7"/><path d="m391 15v150c0 8.398438-6.597656 15-15 15h-225v-165c0-8.402344 6.597656-15 15-15h135l15 30 15-30h45c8.402344 0 15 6.597656 15 15zm0 0" fill="#ececf1"/><path d="m376 180h-120v-180h45l15 30 15-30h45c8.402344 0 15 6.597656 15 15v150c0 8.398438-6.597656 15-15 15zm0 0" fill="#e2e2e7"/><path d="m316 90c8.289062 0 15-6.710938 15-15v-75h-30v75c0 8.289062 6.710938 15 15 15zm0 0" fill="#384949"/><path d="m421 256v45h-330v-45c0-8.402344 6.597656-15 15-15h300c8.402344 0 15 6.597656 15 15zm0 0" fill="#00eed0"/><path d="m421 256v45h-165v-60h150c8.402344 0 15 6.597656 15 15zm0 0" fill="#00ddc1"/></svg>