<svg height="512pt" viewBox="0 0 512 512" width="512pt" xmlns="http://www.w3.org/2000/svg"><path d="m497 331h-61c-8.289062 0-15-6.710938-15-15s6.710938-15 15-15h61c8.289062 0 15 6.710938 15 15s-6.710938 15-15 15zm0 0" fill="#384949"/><path d="m316 512c-8.289062 0-15-6.710938-15-15v-61c0-8.289062 6.710938-15 15-15s15 6.710938 15 15v61c0 8.289062-6.710938 15-15 15zm0 0" fill="#384949"/><path d="m196 512c-8.289062 0-15-6.710938-15-15v-61c0-8.289062 6.710938-15 15-15s15 6.710938 15 15v61c0 8.289062-6.710938 15-15 15zm0 0" fill="#3e5959"/><path d="m76 211h-61c-8.289062 0-15-6.710938-15-15s6.710938-15 15-15h61c8.289062 0 15 6.710938 15 15s-6.710938 15-15 15zm0 0" fill="#3e5959"/><path d="m497 211h-61c-8.289062 0-15-6.710938-15-15s6.710938-15 15-15h61c8.289062 0 15 6.710938 15 15s-6.710938 15-15 15zm0 0" fill="#384949"/><path d="m76 331h-61c-8.289062 0-15-6.710938-15-15s6.710938-15 15-15h61c8.289062 0 15 6.710938 15 15s-6.710938 15-15 15zm0 0" fill="#3e5959"/><path d="m316 91c-8.289062 0-15-6.710938-15-15v-61c0-8.289062 6.710938-15 15-15s15 6.710938 15 15v61c0 8.289062-6.710938 15-15 15zm0 0" fill="#384949"/><path d="m196 91c-8.289062 0-15-6.710938-15-15v-61c0-8.289062 6.710938-15 15-15s15 6.710938 15 15v61c0 8.289062-6.710938 15-15 15zm0 0" fill="#3e5959"/><path d="m436 241c8.402344 0 15-6.597656 15-15v-60c0-8.402344-6.597656-15-15-15h-15v-15c0-24.902344-20.097656-45-45-45h-15v-15c0-8.402344-6.597656-15-15-15h-60c-8.402344 0-15 6.597656-15 15v15h-30v-15c0-8.402344-6.597656-15-15-15h-60c-8.402344 0-15 6.597656-15 15v15h-15c-24.902344 0-45 20.097656-45 45v15h-15c-8.402344 0-15 6.597656-15 15v60c0 8.402344 6.597656 15 15 15h15v30h-15c-8.402344 0-15 6.597656-15 15v60c0 8.402344 6.597656 15 15 15h15v15c0 24.902344 20.097656 45 45 45h15v15c0 8.402344 6.597656 15 15 15h60c8.402344 0 15-6.597656 15-15v-15h30v15c0 8.402344 6.597656 15 15 15h60c8.402344 0 15-6.597656 15-15v-15h15c24.902344 0 45-20.097656 45-45v-15h15c8.402344 0 15-6.597656 15-15v-60c0-8.402344-6.597656-15-15-15h-15v-30zm0 0" fill="#00ddc1"/><path d="m421 241v30h15c8.402344 0 15 6.597656 15 15v60c0 8.402344-6.597656 15-15 15h-15v15c0 24.902344-20.097656 45-45 45h-15v15c0 8.402344-6.597656 15-15 15h-60c-8.402344 0-15-6.597656-15-15v-15h-15v-330h15v-15c0-8.402344 6.597656-15 15-15h60c8.402344 0 15 6.597656 15 15v15h15c24.902344 0 45 20.097656 45 45v15h15c8.402344 0 15 6.597656 15 15v60c0 8.402344-6.597656 15-15 15zm0 0" fill="#00ccb2"/><path d="m356.5 215.5-60-60c-2.699219-3-6.601562-4.5-10.5-4.5h-120c-8.402344 0-15 6.597656-15 15v180c0 8.402344 6.597656 15 15 15h180c8.402344 0 15-6.597656 15-15v-120c0-3.898438-1.5-7.800781-4.5-10.5zm0 0" fill="#3e5959"/><path d="m361 226v120c0 8.402344-6.597656 15-15 15h-90v-210h30c3.898438 0 7.800781 1.5 10.5 4.5l60 60c3 2.699219 4.5 6.601562 4.5 10.5zm0 0" fill="#384949"/><path d="m301 286c0 8.402344-6.597656 15-15 15h-60c-8.402344 0-15-6.597656-15-15s6.597656-15 15-15h60c8.402344 0 15 6.597656 15 15zm0 0" fill="#ffd400"/><path d="m271 226c0 8.402344-6.597656 15-15 15h-30c-8.402344 0-15-6.597656-15-15s6.597656-15 15-15h30c8.402344 0 15 6.597656 15 15zm0 0" fill="#ffd400"/><g fill="#fdbf00"><path d="m256 241v-30c8.402344 0 15 6.597656 15 15s-6.597656 15-15 15zm0 0"/><path d="m301 286c0 8.402344-6.597656 15-15 15h-30v-30h30c8.402344 0 15 6.597656 15 15zm0 0"/></g></svg>