<svg height="512pt" viewBox="0 0 512 512" width="512pt" xmlns="http://www.w3.org/2000/svg"><path d="m512 45v376l-158.5 31-67.5-7.800781-196-23.199219-30-240 30-181h377c24.902344 0 45 20.097656 45 45zm0 0" fill="#00eed0"/><path d="m512 45v376l-158.5 31-67.5-7.800781v-444.199219h181c24.902344 0 45 20.097656 45 45zm0 0" fill="#00ddc1"/><path d="m286 61c-90.902344 0-165 74.097656-165 165 0 90.898438 74.097656 165 165 165s165-74.101562 165-165c0-90.902344-74.097656-165-165-165zm0 0" fill="#ececf1"/><g fill="#e2e2e7"><path d="m286 391v-330c90.902344 0 165 74.097656 165 165 0 90.898438-74.097656 165-165 165zm0 0"/><path d="m301 136c0 8.398438-6.597656 15-15 15-41.398438 0-75 33.601562-75 75 0 8.398438-6.597656 15-15 15s-15-6.601562-15-15c0-57.898438 47.101562-105 105-105 8.402344 0 15 6.597656 15 15zm0 0"/><path d="m391 226c0 57.898438-47.101562 105-105 105-8.402344 0-15-6.601562-15-15 0-8.402344 6.597656-15 15-15 41.398438 0 75-33.601562 75-75 0-8.402344 6.597656-15 15-15s15 6.597656 15 15zm0 0"/></g><path d="m286 181c-24.902344 0-45 20.097656-45 45 0 24.898438 20.097656 45 45 45s45-20.101562 45-45c0-24.902344-20.097656-45-45-45zm0 0" fill="#3e5959"/><path d="m0 45v376l45 31 45-31v-421h-45c-24.8125 0-45 20.1875-45 45zm0 0" fill="#4a696f"/><path d="m331 226c0 24.898438-20.097656 45-45 45v-90c24.902344 0 45 20.097656 45 45zm0 0" fill="#384949"/><path d="m286 151v-30c8.402344 0 15 6.597656 15 15 0 8.398438-6.597656 15-15 15zm0 0" fill="#d3d3d8"/><path d="m391 226c0 57.898438-47.101562 105-105 105v-30c41.398438 0 75-33.601562 75-75 0-8.402344 6.597656-15 15-15s15 6.597656 15 15zm0 0" fill="#d3d3d8"/><path d="m512 421v46c0 24.898438-20.097656 45-45 45h-377l-30-45 30-46zm0 0" fill="#00ccb2"/><path d="m512 421v46c0 24.898438-20.097656 45-45 45h-181v-91zm0 0" fill="#00aa95"/><path d="m0 421v46c0 24.8125 20.1875 45 45 45h45v-91zm0 0" fill="#3e5959"/></svg>