<svg height="512pt" viewBox="0 -31 512 512" width="512pt" xmlns="http://www.w3.org/2000/svg"><path d="m467 0h-422c-24.902344 0-45 20.097656-45 45v360c0 24.898438 20.097656 45 45 45h422c24.902344 0 45-20.101562 45-45v-360c0-24.902344-20.097656-45-45-45zm0 0" fill="#ececf1"/><path d="m512 45v360c0 24.898438-20.097656 45-45 45h-211v-450h211c24.902344 0 45 20.097656 45 45zm0 0" fill="#e2e2e7"/><path d="m437 60h-362c-8.402344 0-15 6.597656-15 15v180c0 8.398438 6.597656 15 15 15h15v45c0 8.398438 6.597656 15 15 15h45v45c0 8.398438 6.597656 15 15 15h182c8.402344 0 15-6.601562 15-15v-45h45c8.402344 0 15-6.601562 15-15v-45h15c8.402344 0 15-6.601562 15-15v-180c0-8.402344-6.597656-15-15-15zm0 0" fill="#3e5959"/><path d="m452 75v180c0 8.398438-6.597656 15-15 15h-15v45c0 8.398438-6.597656 15-15 15h-45v45c0 8.398438-6.597656 15-15 15h-91v-330h181c8.402344 0 15 6.597656 15 15zm0 0" fill="#384949"/><path d="m105 390h-30c-8.289062 0-15-6.710938-15-15s6.710938-15 15-15h30c8.289062 0 15 6.710938 15 15s-6.710938 15-15 15zm0 0" fill="#3e5959"/><path d="m437 390h-30c-8.289062 0-15-6.710938-15-15s6.710938-15 15-15h30c8.289062 0 15 6.710938 15 15s-6.710938 15-15 15zm0 0" fill="#384949"/><g fill="#ffd400"><path d="m135 210c-8.289062 0-15-6.710938-15-15v-60c0-8.289062 6.710938-15 15-15s15 6.710938 15 15v60c0 8.289062-6.710938 15-15 15zm0 0"/><path d="m196 210c-8.289062 0-15-6.710938-15-15v-60c0-8.289062 6.710938-15 15-15s15 6.710938 15 15v60c0 8.289062-6.710938 15-15 15zm0 0"/><path d="m271 135v60c0 8.398438-6.597656 15-15 15s-15-6.601562-15-15v-60c0-8.402344 6.597656-15 15-15s15 6.597656 15 15zm0 0"/></g><path d="m317 210c-8.289062 0-15-6.710938-15-15v-60c0-8.289062 6.710938-15 15-15s15 6.710938 15 15v60c0 8.289062-6.710938 15-15 15zm0 0" fill="#fdbf00"/><path d="m377 210c-8.289062 0-15-6.710938-15-15v-60c0-8.289062 6.710938-15 15-15s15 6.710938 15 15v60c0 8.289062-6.710938 15-15 15zm0 0" fill="#fdbf00"/><path d="m271 135v60c0 8.398438-6.597656 15-15 15v-90c8.402344 0 15 6.597656 15 15zm0 0" fill="#fdbf00"/></svg>