<svg height="512pt" viewBox="-76 0 512 512" width="512pt" xmlns="http://www.w3.org/2000/svg"><path d="m270.527344 195.382812v33.964844c-11.421875 16.230469-25.25 64.324219-41.480469 80.859375-26.75 27.652344-58.914063 20.4375-93.78125 20.4375-46.289063 0-90.78125-19.539062-122.039063-53.804687-4.808593-5.109375-9.019531-40.878906-13.226562-46.589844v-34.867188c0-9.320312 1.804688-18.039062 4.808594-26.152343 10.824218-28.554688 38.175781-48.996094 70.339844-48.996094h120.234374c32.464844 0 60.117188 21.042969 70.335938 49.898437 3.007812 7.8125 4.808594 16.230469 4.808594 25.25zm0 0" fill="#e2e2e7"/><path d="m270.527344 195.382812v33.964844c-11.421875 16.230469-25.25 64.324219-41.480469 80.859375-26.75 27.652344-58.914063 20.4375-93.78125 20.4375v-210.410156h60.117187c32.464844 0 60.117188 21.042969 70.335938 49.898437 3.007812 7.8125 4.808594 16.230469 4.808594 25.25zm0 0" fill="#babac0"/><path d="m360.703125 15.03125c0 41.480469-33.664063 75.144531-75.144531 75.144531h-90.175782c-24.949218 0-45.089843 20.140625-45.089843 45.089844v180.351563c0 8.414062-6.613281 15.027343-15.027344 15.027343-8.417969 0-15.03125-6.613281-15.03125-15.027343v-180.351563c0-16.835937 5.410156-32.464844 15.03125-44.789063 13.523437-18.335937 35.46875-30.359374 60.117187-30.359374h90.175782c24.949218 0 45.085937-20.136719 45.085937-45.085938 0-8.417969 6.613281-15.03125 15.03125-15.03125s15.027344 6.613281 15.027344 15.03125zm0 0" fill="#3e5959"/><path d="m360.703125 15.03125c0 41.480469-33.664063 75.144531-75.144531 75.144531h-90.175782c-24.949218 0-45.089843 20.140625-45.089843 45.089844v180.351563c0 8.414062-6.613281 15.027343-15.027344 15.027343v-240.167969c13.523437-18.335937 35.46875-30.359374 60.117187-30.359374h90.175782c24.949218 0 45.085937-20.136719 45.085937-45.085938 0-8.417969 6.613281-15.03125 15.03125-15.03125s15.027344 6.613281 15.027344 15.03125zm0 0" fill="#384949"/><path d="m270.527344 229.347656v147.386719c0 74.546875-60.71875 135.265625-135.261719 135.265625-74.546875 0-135.265625-60.71875-135.265625-135.265625v-146.484375c4.207031 5.710938 8.417969 11.421875 13.226562 16.53125 31.257813 34.265625 75.75 53.804688 122.039063 53.804688 55.605469 0 105.203125-28.253907 135.261719-71.238282zm0 0" fill="#00ddc1"/><path d="m270.527344 229.347656v147.386719c0 74.546875-60.71875 135.265625-135.261719 135.265625v-211.414062c55.605469 0 105.203125-28.253907 135.261719-71.238282zm0 0" fill="#00aa95"/></svg>