<svg height="512pt" viewBox="0 -91 512 512" width="512pt" xmlns="http://www.w3.org/2000/svg"><path d="m451 45v60c0 8.402344-6.597656 15-15 15h-360c-8.402344 0-15-6.597656-15-15v-60c0-24.902344 20.097656-45 45-45h300c24.902344 0 45 20.097656 45 45zm0 0" fill="#fdbf00"/><path d="m451 45v60c0 8.402344-6.597656 15-15 15h-180v-120h150c24.902344 0 45 20.097656 45 45zm0 0" fill="#ff9f00"/><path d="m421 45v75h-330v-75c0-8.402344 6.597656-15 15-15h300c8.402344 0 15 6.597656 15 15zm0 0" fill="#ffd400"/><g fill="#fdbf00"><path d="m421 45v75h-165v-90h150c8.402344 0 15 6.597656 15 15zm0 0"/><path d="m136 90c-8.289062 0-15-6.710938-15-15v-60c0-8.289062 6.710938-15 15-15s15 6.710938 15 15v60c0 8.289062-6.710938 15-15 15zm0 0"/><path d="m196 90c-8.289062 0-15-6.710938-15-15v-60c0-8.289062 6.710938-15 15-15s15 6.710938 15 15v60c0 8.289062-6.710938 15-15 15zm0 0"/><path d="m271 15v60c0 8.402344-6.597656 15-15 15s-15-6.597656-15-15v-60c0-8.402344 6.597656-15 15-15s15 6.597656 15 15zm0 0"/></g><path d="m316 90c-8.289062 0-15-6.710938-15-15v-60c0-8.289062 6.710938-15 15-15s15 6.710938 15 15v60c0 8.289062-6.710938 15-15 15zm0 0" fill="#ff9f00"/><path d="m376 90c-8.289062 0-15-6.710938-15-15v-60c0-8.289062 6.710938-15 15-15s15 6.710938 15 15v60c0 8.289062-6.710938 15-15 15zm0 0" fill="#ff9f00"/><path d="m256 90v-90c8.402344 0 15 6.597656 15 15v60c0 8.402344-6.597656 15-15 15zm0 0" fill="#ff9f00"/><path d="m497 180c8.402344 0 15-6.597656 15-15v-60c0-24.902344-20.097656-45-45-45h-422c-24.902344 0-45 20.097656-45 45v60c0 8.402344 6.597656 15 15 15s15 6.597656 15 15-6.597656 15-15 15-15 6.597656-15 15v60c0 24.902344 20.097656 45 45 45h422c24.902344 0 45-20.097656 45-45v-60c0-8.402344-6.597656-15-15-15s-15-6.597656-15-15 6.597656-15 15-15zm0 0" fill="#00ddc1"/><path d="m482 195c0 8.402344 6.597656 15 15 15s15 6.597656 15 15v60c0 24.902344-20.097656 45-45 45h-211v-270h211c24.902344 0 45 20.097656 45 45v60c0 8.402344-6.597656 15-15 15s-15 6.597656-15 15zm0 0" fill="#00ccb2"/><path d="m166 270h-60c-8.289062 0-15-6.710938-15-15v-120c0-8.289062 6.710938-15 15-15h60c8.289062 0 15 6.710938 15 15v120c0 8.289062-6.710938 15-15 15zm0 0" fill="#3e5959"/><path d="m286 120h-60c-8.402344 0-15 6.597656-15 15v120c0 8.402344 6.597656 15 15 15h60c8.402344 0 15-6.597656 15-15v-120c0-8.402344-6.597656-15-15-15zm0 0" fill="#3e5959"/><path d="m406 270h-60c-8.289062 0-15-6.710938-15-15v-120c0-8.289062 6.710938-15 15-15h60c8.289062 0 15 6.710938 15 15v120c0 8.289062-6.710938 15-15 15zm0 0" fill="#384949"/><path d="m301 135v120c0 8.402344-6.597656 15-15 15h-30v-150h30c8.402344 0 15 6.597656 15 15zm0 0" fill="#384949"/></svg>