<svg height="512pt" viewBox="0 -12 512 512" width="512pt" xmlns="http://www.w3.org/2000/svg"><path d="m411.011719 487.695312v-96.382812l22.964843-20.910156 22.96875 20.910156v96.382812zm0 0" fill="#d9d9d9"/><path d="m100.988281 487.695312v-96.382812l-22.964843-20.910156-22.96875 20.910156v96.382812zm0 0" fill="#d9d9d9"/><path d="m402.53125 213.011719v169.820312c0 4.683594 3.796875 8.480469 8.480469 8.480469h45.933593c4.679688 0 8.476563-3.796875 8.476563-8.480469v-169.820312zm0 0" fill="#d7ecec"/><path d="m109.46875 213.011719v169.820312c0 4.683594-3.796875 8.480469-8.480469 8.480469h-45.933593c-4.683594 0-8.476563-3.796875-8.476563-8.480469v-169.820312zm0 0" fill="#d7ecec"/><path d="m402.53125 293.316406c24.265625-.546875 45.175781-5.996094 62.890625-15.097656v-65.207031h-62.890625zm0 0" fill="#d9d9d9"/><path d="m288.238281 55.574219c13.953125-22.164063 45.683594-55.574219 110.214844-55.574219 89.75 0 113.546875 78.878906 113.546875 131.234375 0 52.351563-23.796875 131.230469-113.546875 131.230469-64.53125 0-96.261719-33.414063-110.214844-55.574219zm0 0" fill="#d7ecec"/><path d="m328.414062 117.402344v27.660156c0 26.734375-15.746093 50.964844-40.175781 61.828125-6.242187-9.914063-9.464843-21.429687-9.464843-33.148437v-85.019532c0-11.71875 3.222656-23.234375 9.464843-33.148437 24.429688 10.863281 40.175781 35.097656 40.175781 61.828125zm0 0" fill="#5c5766"/><path d="m446.382812 63.917969h-28.246093c-9.949219 0-18.015625 8.066406-18.015625 18.019531 0 9.949219 8.066406 18.019531 18.015625 18.019531h28.246093c9.953126 0 18.019532-8.070312 18.019532-18.019531 0-9.953125-8.066406-18.019531-18.019532-18.019531zm0 0" fill="#d9d9d9"/><path d="m46.578125 278.21875c17.71875 9.105469 38.625 14.550781 62.890625 15.101562v-80.308593h-62.890625zm0 0" fill="#d9d9d9"/><path d="m223.761719 55.574219c-13.953125-22.164063-45.683594-55.574219-110.214844-55.574219-89.75 0-113.546875 78.878906-113.546875 131.234375 0 52.351563 23.796875 131.230469 113.546875 131.230469 64.53125 0 96.261719-33.414063 110.214844-55.574219zm0 0" fill="#d7ecec"/><path d="m183.585938 117.402344v27.660156c0 26.734375 15.746093 50.964844 40.175781 61.828125 6.242187-9.914063 9.464843-21.429687 9.464843-33.148437v-85.019532c0-11.71875-3.222656-23.234375-9.464843-33.148437-24.429688 10.863281-40.175781 35.097656-40.175781 61.828125zm0 0" fill="#5c5766"/><path d="m65.617188 63.917969h28.246093c9.949219 0 18.015625 8.066406 18.015625 18.019531 0 9.949219-8.066406 18.019531-18.015625 18.019531h-28.246093c-9.953126 0-18.019532-8.070312-18.019532-18.019531 0-9.953125 8.066406-18.019531 18.019532-18.019531zm0 0" fill="#d9d9d9"/><path d="m256 395.390625-33.914062 18.871094v52.503906c0 11.554687 9.375 20.929687 20.929687 20.929687h25.96875c11.554687 0 20.929687-9.371093 20.929687-20.929687v-52.503906zm0 0" fill="#efd8e4"/><path d="m268.984375 245.972656h-25.96875c-11.554687 0-20.929687 9.375-20.929687 20.929688v52.503906s32.128906 15.300781 33.914062 16.832031c1.785156 1.527344 33.914062-16.832031 33.914062-16.832031v-52.503906c0-11.554688-9.375-20.929688-20.929687-20.929688zm0 0" fill="#efd8e4"/><path d="m243.96875 290.71875h4.304688v4.300781c0 4.269531 3.460937 7.726563 7.726562 7.726563s7.726562-3.457032 7.726562-7.726563v-4.300781h4.304688c4.265625 0 7.722656-3.460938 7.722656-7.726562 0-4.269532-3.457031-7.726563-7.722656-7.726563h-4.304688v-4.304687c0-4.265626-3.460937-7.726563-7.726562-7.726563s-7.726562 3.460937-7.726562 7.726563v4.304687h-4.304688c-4.265625 0-7.722656 3.457031-7.722656 7.726563 0 4.265624 3.457031 7.726562 7.722656 7.726562zm0 0" fill="#5c5766"/><path d="m268.03125 442.230469h-24.0625c-4.265625 0-7.722656 3.460937-7.722656 7.726562s3.457031 7.726563 7.722656 7.726563h24.0625c4.265625 0 7.722656-3.460938 7.722656-7.726563s-3.457031-7.726562-7.722656-7.726562zm0 0" fill="#5c5766"/><path d="m222.085938 319.40625h67.828124v94.855469h-67.828124zm0 0" fill="#d9d9d9"/></svg>