<svg height="512pt" viewBox="-73 0 512 512.00101" width="512pt" xmlns="http://www.w3.org/2000/svg"><path d="m266.980469 239.335938v-102.269532c0-46.511718-37.835938-84.347656-84.347657-84.347656-46.507812 0-84.347656 37.835938-84.347656 84.347656v102.269532h-52.714844v-102.269532c0-75.578125 61.484376-137.066406 137.0625-137.066406 75.582032 0 137.066407 61.488281 137.066407 137.066406v102.269532zm0 0" fill="#fedd60"/><path d="m45.570312 196.820312h52.714844v42.519532h-52.714844zm0 0" fill="#fecc2e"/><path d="m266.980469 196.820312h52.71875v42.519532h-52.71875zm0 0" fill="#fecc2e"/><path d="m320.339844 227.726562h-275.410156c-24.8125 0-44.929688 20.113282-44.929688 44.925782v194.421875c0 24.8125 20.113281 44.925781 44.929688 44.925781h275.410156c24.8125 0 44.929687-20.113281 44.929687-44.925781v-194.421875c0-24.8125-20.117187-44.925782-44.929687-44.925782zm0 0" fill="#a78bd6"/><path d="m41.207031 467.074219v-194.421875c0-24.8125 20.113281-44.925782 44.925781-44.925782h-41.207031c-24.8125 0-44.925781 20.113282-44.925781 44.925782v194.421875c0 24.8125 20.113281 44.925781 44.925781 44.925781h41.207031c-24.8125 0-44.925781-20.113281-44.925781-44.925781zm0 0" fill="#8363ba"/><path d="m208.867188 393.015625c0-14.488281-11.746094-26.230469-26.234376-26.230469-14.488281 0-26.230468 11.742188-26.230468 26.230469 0 9.371094 4.914062 17.589844 12.304687 22.230469v15.804687c0 7.691407 6.234375 13.925781 13.925781 13.925781 7.695313 0 13.929688-6.234374 13.929688-13.925781v-15.804687c7.390625-4.640625 12.304688-12.859375 12.304688-22.230469zm0 0" fill="#41476b"/><g fill="#3a484a"><path d="m103.28125 306.292969c-4.269531 0-7.726562-3.457031-7.726562-7.726563v-14.359375c0-4.269531 3.457031-7.726562 7.726562-7.726562 4.265625 0 7.726562 3.457031 7.726562 7.726562v14.359375c0 4.269532-3.460937 7.726563-7.726562 7.726563zm0 0"/><path d="m261.988281 306.292969c-4.265625 0-7.726562-3.457031-7.726562-7.726563v-14.359375c0-4.269531 3.460937-7.726562 7.726562-7.726562s7.726563 3.457031 7.726563 7.726562v14.359375c0 4.269532-3.460938 7.726563-7.726563 7.726563zm0 0"/><path d="m182.632812 313.960938c-9.863281 0-19.121093-4.121094-25.402343-11.308594-2.808594-3.214844-2.480469-8.09375.734375-10.902344 3.210937-2.808594 8.09375-2.480469 10.902344.730469 3.34375 3.828125 8.363281 6.023437 13.765624 6.023437 5.40625 0 10.421876-2.195312 13.769532-6.023437 2.808594-3.210938 7.6875-3.539063 10.902344-.730469 3.214843 2.808594 3.539062 7.691406.730468 10.902344-6.28125 7.1875-15.539062 11.308594-25.402344 11.308594zm0 0"/></g></svg>