<svg height="512pt" viewBox="0 -38 512.00103 512" width="512pt" xmlns="http://www.w3.org/2000/svg"><path d="m422.730469 94.523438h-66.957031v-61.046876c0-18.488281 14.988281-33.476562 33.476562-33.476562 18.492188 0 33.480469 14.988281 33.480469 33.476562zm0 0" fill="#ff929f"/><path d="m153.601562 94.523438h-66.957031v-61.046876c0-18.488281 14.988281-33.476562 33.480469-33.476562 18.488281 0 33.476562 14.988281 33.476562 33.476562zm0 0" fill="#8ed7e8"/><path d="m86.644531 33.476562v61.046876h66.957031v-61.046876c0-1.898437-.160156-3.761718-.464843-5.574218h-66.027344c-.304687 1.8125-.464844 3.675781-.464844 5.574218zm0 0" fill="#7ac1dd"/><path d="m355.773438 33.476562v61.046876h66.953124v-61.046876c0-1.898437-.15625-3.761718-.460937-5.574218h-66.027344c-.304687 1.8125-.464843 3.675781-.464843 5.574218zm0 0" fill="#ff737d"/><path d="m430.542969 435.859375h-351.710938c-28.3125 0-51.261719-22.953125-51.261719-51.261719v-284.878906c0-21.652344 17.550782-39.203125 39.203126-39.203125h375.828124c21.652344 0 39.203126 17.550781 39.203126 39.203125v284.878906c0 28.308594-22.949219 51.261719-51.261719 51.261719zm0 0" fill="#898890"/><path d="m153.007812 384.597656v-284.878906c0-21.652344 17.554688-39.203125 39.207032-39.203125h-125.441406c-21.652344 0-39.203126 17.550781-39.203126 39.203125v284.878906c0 28.308594 22.949219 51.261719 51.261719 51.261719h125.4375c-28.3125 0-51.261719-22.953125-51.261719-51.261719zm0 0" fill="#73737a"/><path d="m476.554688 174.605469h-441.109376c-19.574218 0-35.445312-15.871094-35.445312-35.445313 0-19.578125 15.871094-35.445312 35.445312-35.445312h441.109376c19.578124 0 35.445312 15.867187 35.445312 35.445312 0 19.574219-15.871094 35.445313-35.445312 35.445313zm0 0" fill="#acabb1"/><path d="m82.15625 139.160156c0-19.578125 15.871094-35.445312 35.449219-35.445312h-82.160157c-19.574218 0-35.445312 15.867187-35.445312 35.445312 0 19.574219 15.871094 35.445313 35.445312 35.445313h82.160157c-19.578125 0-35.449219-15.871094-35.449219-35.445313zm0 0" fill="#9d9da3"/><path d="m382.632812 357.015625h-255.886718c-19.65625 0-35.589844-15.933594-35.589844-35.585937v-67.914063c0-19.652344 15.933594-35.585937 35.589844-35.585937h255.886718c19.652344 0 35.585938 15.933593 35.585938 35.585937v67.914063c-.003906 19.652343-15.933594 35.585937-35.585938 35.585937zm0 0" fill="#ccf8ff"/><path d="m126.746094 217.929688c-19.65625 0-35.589844 15.929687-35.589844 35.585937v67.914063c0 19.652343 15.933594 35.585937 35.589844 35.585937h26.261718v-139.085937zm0 0" fill="#abebf4"/><g fill="#898890"><path d="m372.398438 279.746094h-11.753907v-11.753906c0-4.269532-3.460937-7.726563-7.726562-7.726563s-7.726563 3.457031-7.726563 7.726563v11.753906h-11.753906c-4.265625 0-7.726562 3.457031-7.726562 7.726562 0 4.265625 3.460937 7.726563 7.726562 7.726563h11.753906v11.753906c0 4.265625 3.460938 7.726563 7.726563 7.726563s7.726562-3.460938 7.726562-7.726563v-11.753906h11.753907c4.269531 0 7.726562-3.460938 7.726562-7.726563 0-4.269531-3.457031-7.726562-7.726562-7.726562zm0 0"/><path d="m175.9375 279.746094h-38.960938c-4.269531 0-7.726562 3.457031-7.726562 7.726562 0 4.265625 3.457031 7.726563 7.726562 7.726563h38.960938c4.265625 0 7.726562-3.460938 7.726562-7.726563 0-4.269531-3.460937-7.726562-7.726562-7.726562zm0 0"/></g></svg>