<svg height="512pt" viewBox="0 -10 512 511" width="512pt" xmlns="http://www.w3.org/2000/svg"><path d="m512 47.605469c0 26.011719-72.515625 50.320312-161.96875 50.320312s-161.964844-24.308593-161.964844-50.320312c0-26.015625 72.511719-47.105469 161.964844-47.105469s161.96875 21.089844 161.96875 47.105469zm0 0" fill="#616377"/><path d="m208.675781 47.605469c0-25.007813 67.011719-45.460938 151.664063-47.007813-3.410156-.0625-6.84375-.097656-10.308594-.097656-89.453125 0-161.96875 21.089844-161.96875 47.101562 0 26.015626 72.515625 50.324219 161.96875 50.324219 3.464844 0 6.898438-.042969 10.308594-.113281-84.652344-1.777344-151.664063-25.203125-151.664063-50.207031zm0 0" fill="#525468"/><path d="m350.03125 285.628906c-89.453125 0-161.96875-21.09375-161.96875-47.105468v95.460937c0 26.011719 72.515625 47.101563 161.96875 47.101563s161.96875-21.089844 161.96875-47.101563v-95.460937c0 26.011718-72.515625 47.105468-161.96875 47.105468zm0 0" fill="#3e4151"/><path d="m344.546875 285.597656c-86.910156-.84375-156.484375-21.59375-156.484375-47.074218v95.460937c0 25.476563 69.570312 46.230469 156.484375 47.074219zm0 0" fill="#353744"/><path d="m350.03125 94.707031c-89.453125 0-161.96875-21.089843-161.96875-47.101562v95.457031c0 26.015625 72.515625 47.105469 161.96875 47.105469s161.96875-21.089844 161.96875-47.105469v-95.457031c0 26.011719-72.515625 47.101562-161.96875 47.101562zm0 0" fill="#3e4151"/><path d="m282.253906 105.035156c-18.574218-5.398437-40.539062-9.40625-64.402344-11.84375-5.21875-.535156-9.175781-4.957031-9.175781-10.203125v-12.378906c-13.121093-6.804687-20.609375-14.648437-20.609375-23.003906v95.457031c0 13.273438 19.953125 22.6875 18.222656 21.722656 26.207032 14.636719 78.070313 24.769532 138.257813 25.351563v-32c0-23.214844-20.960937-41.078125-62.292969-53.101563zm0 0" fill="#353744"/><path d="m350.03125 186.949219c-89.453125 0-161.96875-21.089844-161.96875-47.101563v101.894532c0 26.015624 72.515625 47.105468 161.96875 47.105468s161.96875-21.089844 161.96875-47.105468v-101.898438c0 26.015625-72.515625 47.105469-161.96875 47.105469zm0 0" fill="#525468"/><path d="m344.546875 186.917969c-86.910156-.839844-156.484375-21.59375-156.484375-47.074219v101.898438c0 25.480468 69.570312 46.230468 156.484375 47.074218zm0 0" fill="#3e4151"/><path d="m323.933594 158.132812c0 26.015626-72.511719 50.324219-161.964844 50.324219s-161.96875-24.308593-161.96875-50.324219c0-26.015624 72.515625-47.101562 161.96875-47.101562s161.964844 21.089844 161.964844 47.101562zm0 0" fill="#616377"/><path d="m20.609375 158.132812c0-25.003906 67.015625-45.457031 151.664063-47.003906-3.410157-.0625-6.84375-.097656-10.304688-.097656-89.453125 0-161.96875 21.089844-161.96875 47.101562 0 26.015626 72.515625 50.324219 161.96875 50.324219 3.460938 0 6.894531-.042969 10.304688-.113281-84.648438-1.777344-151.664063-25.203125-151.664063-50.210938zm0 0" fill="#525468"/><path d="m161.96875 396.15625c-89.453125 0-161.96875-21.089844-161.96875-47.101562v95.460937c0 26.011719 72.515625 47.101563 161.96875 47.101563s161.96875-21.089844 161.96875-47.101563v-95.460937c-.003906 26.011718-72.515625 47.101562-161.96875 47.101562zm0 0" fill="#3e4151"/><path d="m20.609375 372.058594c-13.117187-6.804688-20.609375-14.648438-20.609375-23.003906v95.460937c0 8.351563 7.492188 16.199219 20.609375 23.003906zm0 0" fill="#353744"/><path d="m161.96875 205.238281c-89.453125 0-161.96875-21.089843-161.96875-47.105469v95.460938c0 26.015625 72.515625 47.101562 161.96875 47.101562s161.96875-21.085937 161.96875-47.101562v-95.460938c-.003906 26.015626-72.515625 47.105469-161.96875 47.105469zm0 0" fill="#3e4151"/><path d="m20.609375 181.140625c-13.117187-6.804687-20.609375-14.652344-20.609375-23.007813v95.460938c0 8.355469 7.492188 16.203125 20.609375 23.003906zm0 0" fill="#353744"/><path d="m161.96875 297.480469c-89.453125 0-161.96875-21.089844-161.96875-47.105469v101.898438c0 26.011718 72.515625 47.101562 161.96875 47.101562s161.96875-21.089844 161.96875-47.101562v-101.898438c-.003906 26.015625-72.515625 47.105469-161.96875 47.105469zm0 0" fill="#525468"/><path d="m20.609375 273.382812c-13.117187-6.804687-20.609375-14.652343-20.609375-23.007812v101.898438c0 8.355468 7.492188 16.199218 20.609375 23.003906zm0 0" fill="#3e4151"/></svg>