<svg height="465.63433pt" viewBox="0 0 465.63433 465.63433" width="465.63433pt" xmlns="http://www.w3.org/2000/svg"><path d="m273.304688 192.328125-79.199219-79.199219-175.359375 175.367188c-24.996094 24.992187-24.996094 65.519531 0 90.511718l67.878906 67.878907c24.996094 24.996093 65.519531 24.996093 90.511719 0l175.363281-175.359375zm0 0" fill="#00868b"/><path d="m375.128906 237.585938-22.628906-22.625-16.96875-16.976563-44.792969-44.792969-22.632812-22.617187-17.445313-17.4375-22.625-22.632813c-3.125-3.121094-8.1875-3.121094-11.3125 0l-22.617187 22.632813 79.199219 79.199219 79.203124 79.199218 22.628907-22.632812c1.503906-1.5 2.34375-3.535156 2.34375-5.660156s-.847657-4.160157-2.351563-5.65625zm0 0" fill="#00a1a7"/><path d="m403.410156 39.59375-22.625 22.628906 22.625 22.625-22.625 22.632813-22.628906-22.632813-22.625 22.632813 22.625 22.625-22.625 22.621093-22.632812-22.621093-22.160157 23.085937 44.792969 44.792969 16.96875 16.976563 113.132812-113.136719zm0 0" fill="#c8c7cb"/><path d="m448.667969 84.847656-113.136719 113.136719 16.96875 16.976563 113.132812-113.136719zm0 0" fill="#7d7c7f"/><path d="m403.410156 39.59375-39.601562-39.59375-113.132813 113.136719 17.445313 17.4375 22.617187 22.617187 22.160157-23.085937 22.632812 22.621093 22.625-22.621093-22.625-22.625 22.625-22.632813 22.628906 22.632813 22.625-22.632813-22.625-22.625zm0 0" fill="#c8c7cb"/><path d="m375.128906 237.585938-16.972656-16.96875c3.121094 3.121093 3.121094 8.1875 0 11.3125l-22.625 22.621093 16.96875 16.976563 22.628906-22.632813c3.125-3.121093 3.125-8.1875 0-11.308593zm0 0" fill="#006568"/><path d="m335.53125 254.550781-175.359375 175.371094c-24.996094 24.992187-65.519531 24.992187-90.511719 0l16.964844 16.964844c24.996094 24.996093 65.519531 24.996093 90.511719 0l175.363281-175.359375zm0 0" fill="#005457"/><path d="m176.570312 345.0625c0 30.929688-25.070312 56-56 56-30.929687 0-56-25.070312-56-56 0-30.925781 25.070313-56 56-56 30.929688 0 56 25.074219 56 56zm0 0" fill="#d80027"/><path d="m160.171875 305.464844c-2.863281-2.847656-6.023437-5.375-9.425781-7.542969 14.117187 22.144531 10.945312 51.128906-7.625 69.699219-18.574219 18.570312-47.558594 21.738281-69.703125 7.617187 2.175781 3.402344 4.707031 6.5625 7.550781 9.425781 21.871094 21.871094 57.332031 21.871094 79.203125 0 21.867187-21.871093 21.867187-57.328124 0-79.199218zm0 0" fill="#a2001d"/><g fill="#414042"><path d="m335.53125 164.046875-22.511719-22.511719-16.976562 17.679688-11.535157-11.078125 28.277344-29.464844 22.746094 22.753906 11.3125-11.320312-22.625-22.625 33.9375-33.945313 22.628906 22.632813 11.3125-11.320313-22.625-22.625 28.28125-28.285156 11.3125 11.320312-16.96875 16.964844 22.625 22.625-33.9375 33.945313-22.628906-22.632813-11.3125 11.320313 22.621094 22.625zm0 0"/><path d="m262.230469 125.164062 10.84375-11.789062 11.769531 10.828125-10.84375 11.789063zm0 0"/><path d="m326.230469 189.167969 10.839843-11.789063 11.773438 10.824219-10.84375 11.789063zm0 0"/><path d="m143.203125 243.234375 50.910156-50.914063 11.3125 11.316407-50.910156 50.910156zm0 0"/><path d="m211.085938 311.128906 50.910156-50.914062 11.3125 11.3125-50.910156 50.914062zm0 0"/><path d="m358.15625 265.871094-158.394531-158.390625-11.3125 11.3125 73.546875 73.535156-73.546875 73.542969 11.3125 11.3125 73.542969-73.542969 73.539062 73.542969zm0 0"/></g></svg>