<?xml version="1.0" encoding="iso-8859-1"?>
<!-- Generator: Adobe Illustrator 21.0.0, SVG Export Plug-In . SVG Version: 6.00 Build 0)  -->
<svg version="1.1" id="Capa_1" xmlns="http://www.w3.org/2000/svg" xmlns:xlink="http://www.w3.org/1999/xlink" x="0px" y="0px"
	 viewBox="0 0 512.01 512.01" style="enable-background:new 0 0 512.01 512.01;" xml:space="preserve">
<circle style="fill:#CCCCCC;" cx="227.354" cy="199.77" r="199.77"/>
<path style="fill:#ED8300;" d="M427.129,199.773h-0.011H227.345L86.163,58.592l-0.08-0.068C122.235,22.361,172.175,0,227.356,0
	C337.684,0,427.129,89.445,427.129,199.773z"/>
<path style="fill:#ADADAD;" d="M414.229,270.508c-26.989-25.088-63.153-40.439-102.908-40.439
	c-83.504,0-151.197,67.693-151.197,151.197c0,2.255,0.059,4.496,0.157,6.726c20.966,7.473,43.542,11.554,67.075,11.554
	C312.78,399.546,385.667,345.924,414.229,270.508z"/>
<circle style="fill:#EBEBEB;" cx="343.454" cy="371.04" r="140.97"/>
<path style="fill:#A6E2E3;" d="M420.047,252.669c-22.054-14.301-48.349-22.6-76.587-22.6v140.966l99.563,99.563l0.114,0.114
	c25.51-25.51,41.289-60.751,41.289-99.676C484.425,321.424,458.79,277.793,420.047,252.669z"/>
<path style="fill:#FFA638;" d="M343.459,371.035h140.965c0,38.925-15.779,74.166-41.289,99.676l-0.114-0.114L343.459,371.035z"/>
<g>
</g>
<g>
</g>
<g>
</g>
<g>
</g>
<g>
</g>
<g>
</g>
<g>
</g>
<g>
</g>
<g>
</g>
<g>
</g>
<g>
</g>
<g>
</g>
<g>
</g>
<g>
</g>
<g>
</g>
</svg>
