<svg height="464pt" viewBox="-24 0 464 464" width="464pt" xmlns="http://www.w3.org/2000/svg"><path d="m0 352h416v64c0 26.507812-21.492188 48-48 48h-320c-26.507812 0-48-21.492188-48-48zm0 0" fill="#4398d1"/><path d="m353.527344 352c-49.136719 59.039062-122.085938 92.878906-184 112h198.472656c26.507812 0 48-21.492188 48-48v-64zm0 0" fill="#408fc9"/><path d="m368 416h-104v-16h-112v16h-104c-26.507812 0-48-21.492188-48-48v-144c0-26.507812 21.492188-48 48-48h320c26.507812 0 48 21.492188 48 48v144c0 26.507812-21.492188 48-48 48zm0 0" fill="#c7cacc"/><path d="m152 400h112v32h-112zm0 0" fill="#b8bbbd"/><path d="m48 0h320c26.507812 0 48 21.492188 48 48v80c0 26.507812-21.492188 48-48 48h-320c-26.507812 0-48-21.492188-48-48v-80c0-26.507812 21.492188-48 48-48zm0 0" fill="#4398d1"/><path d="m48 48h320c26.507812 0 48 21.492188 48 48v32c0 26.507812-21.492188 48-48 48h-320c-26.507812 0-48-21.492188-48-48v-32c0-26.507812 21.492188-48 48-48zm0 0" fill="#b8bbbd"/><path d="m152 8h112v72h-112zm0 0" fill="#4398d1"/><path d="m104 368h-32c-17.671875 0-32-14.328125-32-32v-80c0-17.671875 14.328125-32 32-32s32 14.328125 32 32zm0 0" fill="#4398d1"/><path d="m136 344h-32v-48h32zm0 0" fill="#408fc9"/><path d="m136 280h16c22.089844 0 40 17.910156 40 40s-17.910156 40-40 40h-16zm0 0" fill="#fdb62f"/><path d="m104 296h16v48h-16zm0 0" fill="#3181bd"/><path d="m136 342.265625v17.734375h16c13.417969-.007812 25.941406-6.742188 33.34375-17.933594s8.699219-25.347656 3.457031-37.699218c-13.386719 17.65625-31.789062 30.867187-52.800781 37.898437zm0 0" fill="#ffa230"/><path d="m312 224h32c17.671875 0 32 14.328125 32 32v80c0 17.671875-14.328125 32-32 32s-32-14.328125-32-32zm0 0" fill="#4398d1"/><path d="m280 248h32v48h-32zm0 0" fill="#3181bd"/><path d="m296 248h16v48h-16zm0 0" fill="#408fc9"/><path d="m280 312h-16c-22.089844 0-40-17.910156-40-40s17.910156-40 40-40h16zm0 0" fill="#fdb62f"/><path d="m234.511719 298.824219c7.523437 8.367187 18.238281 13.15625 29.488281 13.175781h16v-62.9375c-10.632812 20.222656-26.300781 37.359375-45.488281 49.761719zm0 0" fill="#ffa230"/><path d="m313.121094 344c3.984375 15.617188 18.984375 25.816406 34.972656 23.785156 15.992188-2.035156 27.957031-15.667968 27.90625-31.785156v-71.457031c-12.371094 32.277343-34.3125 60-62.878906 79.457031zm0 0" fill="#408fc9"/></svg>