<svg height="512pt" viewBox="-52 0 512 512" width="512pt" xmlns="http://www.w3.org/2000/svg"><path d="m70.363281 190.011719c-3.839843 0-7.675781-1.464844-10.605469-4.394531l-42.289062-42.289063c-5.859375-5.855469-5.859375-15.351563 0-21.210937 5.855469-5.859376 15.355469-5.859376 21.214844 0l42.289062 42.289062c5.855469 5.859375 5.855469 15.355469 0 21.210938-2.929687 2.929687-6.769531 4.394531-10.609375 4.394531zm0 0" fill="#ffdb83"/><path d="m336.898438 190.011719c-3.769532 0-7.542969-1.414063-10.460938-4.25-5.933594-5.78125-6.0625-15.277344-.285156-21.210938l41.175781-42.289062c5.777344-5.9375 15.273437-6.066407 21.210937-.285157 5.9375 5.777344 6.0625 15.277344.285157 21.210938l-41.175781 42.289062c-2.9375 3.019532-6.84375 4.535157-10.75 4.535157zm0 0" fill="#fcad2d"/><path d="m260.011719 57.230469v64.050781c0 8.277344-6.722657 15-15 15h-82.871094c-8.28125 0-15-6.722656-15-15v-64.050781zm0 0" fill="#d1d4d5"/><path d="m245.011719 136.28125h-41.433594v-79.050781h56.433594v64.050781c0 8.277344-6.722657 15-15 15zm0 0" fill="#bdbfc1"/><path d="m290.128906 41.921875v28.488281c0 9.28125-7.550781 16.820313-16.820312 16.820313h-139.46875c-9.269532 0-16.820313-7.539063-16.820313-16.820313v-28.488281c0-23.121094 18.808594-41.921875 41.921875-41.921875h89.269532c23.109374 0 41.917968 18.800781 41.917968 41.921875zm0 0" fill="#2d475c"/><path d="m407.148438 308.390625c0 112.269531-91.320313 203.609375-203.570313 203.609375-112.257813 0-203.578125-91.339844-203.578125-203.609375s91.320312-203.609375 203.578125-203.609375c112.25 0 203.570313 91.339844 203.570313 203.609375zm0 0" fill="#2d475c"/><path d="m407.148438 308.390625c0 112.269531-91.320313 203.609375-203.570313 203.609375v-407.21875c112.25 0 203.570313 91.339844 203.570313 203.609375zm0 0" fill="#223c4d"/><path d="m273.308594 87.230469h-69.730469v-87.230469h44.632813c23.109374 0 41.917968 18.800781 41.917968 41.921875v28.488281c0 9.28125-7.550781 16.820313-16.820312 16.820313zm0 0" fill="#223c4d"/><path d="m219.660156 284.371094c.011719 12.191406-6.378906 22.933594-16.082031 28.929687-10.875 6.785157-8.480469 5.089844-115.777344 5.089844-21 0-36.890625-18.863281-33.53125-39.570313 16.046875-98.703124 122.683594-144.191406 153.359375-118.070312 15.578125 13.238281 11.945313 19.714844 12.03125 123.621094zm0 0" fill="#00c7ce"/></svg>