<svg height="512pt" viewBox="0 0 512 512" width="512pt" xmlns="http://www.w3.org/2000/svg"><path d="m119.433594 94.265625c-8.285156 0-15-6.714844-15-15v-64.265625c0-8.285156 6.714844-15 15-15s15 6.714844 15 15v64.265625c0 8.285156-6.714844 15-15 15zm0 0" fill="#c5e1e6"/><path d="m119.433594 512c-8.285156 0-15-6.714844-15-15v-64.265625c0-8.285156 6.714844-15 15-15s15 6.714844 15 15v64.265625c0 8.285156-6.714844 15-15 15zm0 0" fill="#c5e1e6"/><path d="m187.71875 94.265625c-8.285156 0-15-6.714844-15-15v-64.265625c0-8.285156 6.714844-15 15-15s15 6.714844 15 15v64.265625c0 8.285156-6.714844 15-15 15zm0 0" fill="#c5e1e6"/><path d="m187.71875 512c-8.285156 0-15-6.714844-15-15v-64.265625c0-8.285156 6.714844-15 15-15s15 6.714844 15 15v64.265625c0 8.285156-6.714844 15-15 15zm0 0" fill="#c5e1e6"/><path d="m256.003906 94.265625c-8.285156 0-15-6.714844-15-15v-64.265625c0-8.285156 6.714844-15 15-15 8.28125 0 15 6.714844 15 15v64.265625c0 8.285156-6.71875 15-15 15zm0 0" fill="#c5e1e6"/><path d="m271.003906 79.265625v-64.265625c0-8.285156-6.71875-15-15-15-.003906 0-.003906 0-.003906 0v94.265625h.003906c8.28125 0 15-6.714844 15-15zm0 0" fill="#8db9c4"/><path d="m256.003906 512c-8.285156 0-15-6.714844-15-15v-64.265625c0-8.285156 6.714844-15 15-15 8.28125 0 15 6.714844 15 15v64.265625c0 8.285156-6.71875 15-15 15zm0 0" fill="#c5e1e6"/><g fill="#8db9c4"><path d="m256.003906 512c8.28125 0 15-6.714844 15-15v-64.265625c0-8.285156-6.71875-15-15-15-.003906 0-.003906 0-.003906 0v94.265625zm0 0"/><path d="m324.285156 94.265625c-8.285156 0-15-6.714844-15-15v-64.265625c0-8.285156 6.714844-15 15-15s15 6.714844 15 15v64.265625c0 8.285156-6.714844 15-15 15zm0 0"/><path d="m324.285156 512c-8.285156 0-15-6.714844-15-15v-64.265625c0-8.285156 6.714844-15 15-15s15 6.714844 15 15v64.265625c0 8.285156-6.714844 15-15 15zm0 0"/><path d="m392.566406 512c-8.28125 0-15-6.714844-15-15v-64.265625c0-8.285156 6.71875-15 15-15 8.285156 0 15 6.714844 15 15v64.265625c0 8.285156-6.714844 15-15 15zm0 0"/><path d="m392.566406 94.265625c-8.28125 0-15-6.714844-15-15v-64.265625c0-8.285156 6.71875-15 15-15 8.285156 0 15 6.714844 15 15v64.265625c0 8.285156-6.714844 15-15 15zm0 0"/><path d="m497 134.433594h-64.265625c-8.285156 0-15-6.714844-15-15s6.714844-15 15-15h64.265625c8.285156 0 15 6.714844 15 15s-6.714844 15-15 15zm0 0"/></g><path d="m79.269531 134.433594h-64.269531c-8.285156 0-15-6.714844-15-15s6.714844-15 15-15h64.269531c8.28125 0 15 6.714844 15 15s-6.71875 15-15 15zm0 0" fill="#c5e1e6"/><path d="m497 202.71875h-64.265625c-8.285156 0-15-6.71875-15-15 0-8.285156 6.714844-15 15-15h64.265625c8.285156 0 15 6.714844 15 15 0 8.28125-6.714844 15-15 15zm0 0" fill="#8db9c4"/><path d="m79.269531 202.71875h-64.269531c-8.285156 0-15-6.71875-15-15 0-8.285156 6.714844-15 15-15h64.269531c8.28125 0 15 6.714844 15 15 0 8.28125-6.71875 15-15 15zm0 0" fill="#c5e1e6"/><path d="m497 271h-64.265625c-8.285156 0-15-6.714844-15-15s6.714844-15 15-15h64.265625c8.285156 0 15 6.714844 15 15s-6.714844 15-15 15zm0 0" fill="#8db9c4"/><path d="m79.269531 271h-64.269531c-8.285156 0-15-6.714844-15-15s6.714844-15 15-15h64.269531c8.28125 0 15 6.714844 15 15s-6.71875 15-15 15zm0 0" fill="#c5e1e6"/><path d="m497 339.28125h-64.265625c-8.285156 0-15-6.714844-15-15 0-8.28125 6.714844-15 15-15h64.265625c8.285156 0 15 6.71875 15 15 0 8.285156-6.714844 15-15 15zm0 0" fill="#8db9c4"/><path d="m79.269531 339.28125h-64.269531c-8.285156 0-15-6.714844-15-15 0-8.28125 6.714844-15 15-15h64.269531c8.28125 0 15 6.71875 15 15 0 8.285156-6.71875 15-15 15zm0 0" fill="#c5e1e6"/><path d="m79.269531 407.566406h-64.269531c-8.285156 0-15-6.714844-15-15s6.714844-15 15-15h64.269531c8.28125 0 15 6.714844 15 15s-6.71875 15-15 15zm0 0" fill="#c5e1e6"/><path d="m497 407.566406h-64.265625c-8.285156 0-15-6.714844-15-15s6.714844-15 15-15h64.265625c8.285156 0 15 6.714844 15 15s-6.714844 15-15 15zm0 0" fill="#8db9c4"/><path d="m392.566406 64.265625h-273.132812c-30.417969 0-55.164063 24.75-55.164063 55.167969v273.132812c0 30.417969 24.746094 55.167969 55.164063 55.167969h273.136718c30.417969 0 55.164063-24.75 55.164063-55.167969v-273.132812c0-30.417969-24.746094-55.167969-55.167969-55.167969zm0 0" fill="#54e360"/><path d="m392.566406 64.265625h-136.5625v383.46875h136.5625c30.421875 0 55.167969-24.75 55.167969-55.167969v-273.132812c0-30.417969-24.746094-55.167969-55.167969-55.167969zm0 0" fill="#00ab5e"/><path d="m328.300781 128.53125h-144.601562c-30.417969 0-55.167969 24.75-55.167969 55.167969v144.601562c0 30.417969 24.75 55.167969 55.167969 55.167969h144.601562c30.421875 0 55.167969-24.75 55.167969-55.167969v-144.601562c0-30.417969-24.746094-55.167969-55.167969-55.167969zm0 0" fill="#3d5959"/><path d="m328.300781 128.53125h-72.296875v254.9375h72.296875c30.421875 0 55.167969-24.75 55.167969-55.167969v-144.601562c0-30.417969-24.746094-55.167969-55.167969-55.167969zm0 0" fill="#293939"/></svg>