<svg height="511pt" viewBox="1 -61 511.99998 511" width="511pt" xmlns="http://www.w3.org/2000/svg"><path d="m198.175781 360.648438c-4.269531 0-7.726562-3.460938-7.726562-7.726563v-48.503906c0-4.269531 3.457031-7.726563 7.726562-7.726563 4.265625 0 7.722657 3.457032 7.722657 7.726563v48.503906c0 4.269531-3.457032 7.726563-7.722657 7.726563zm0 0" fill="#4e7693"/><path d="m217.882812 389.476562c-4.265624 0-7.726562-3.457031-7.726562-7.726562v-75.65625c0-4.269531 3.460938-7.726562 7.726562-7.726562 4.265626 0 7.726563 3.457031 7.726563 7.726562v75.65625c0 4.269531-3.460937 7.726562-7.726563 7.726562zm0 0" fill="#4e7693"/><path d="m239.105469 199.730469v107.039062c0 16.695313-13.535157 30.230469-30.230469 30.230469s-30.226562-13.535156-30.226562-30.230469v-.035156c0-56.132813-33.511719-106.847656-85.152344-128.855469v-123.753906c80.417968 0 145.609375 65.191406 145.609375 145.605469zm0 0" fill="#e3f4ff"/><path d="m239.105469 199.734375v107.039063c0 16.6875-13.539063 30.226562-30.226563 30.226562-.988281 0-1.964844-.046875-2.917968-.140625 10.160156-4.867187 17.175781-15.253906 17.175781-27.273437v-107.039063c0-40.210937-16.296875-76.609375-42.640625-102.964844-22.816406-22.804687-53.167969-38.082031-87-41.777343v-3.679688c40.203125 0 76.605468 16.296875 102.957031 42.644531 26.355469 26.351563 42.652344 62.753907 42.652344 102.964844zm0 0" fill="#bddff4"/><path d="m108.425781 43.8125c-5.542969 0-19.011719 0-26.773437 0v154.132812h26.773437c35.589844 0 64.4375-34.503906 64.4375-77.066406s-28.847656-77.066406-64.4375-77.066406zm0 0" fill="#84a1c0"/><path d="m146.316406 120.878906c0-42.5625-28.847656-77.066406-64.4375-77.066406-35.585937 0-64.4375 34.503906-64.4375 77.066406s28.851563 77.066406 64.4375 77.066406c35.589844 0 64.4375-34.503906 64.4375-77.066406zm0 0" fill="#e3f4ff"/><path d="m146.316406 120.875c0 42.566406-28.847656 77.074219-64.433594 77.074219-2.953124 0-5.863281-.238281-8.714843-.707031 31.457031-5.09375 55.710937-37.339844 55.710937-76.367188 0-39.019531-24.253906-71.265625-55.710937-76.359375 2.851562-.46875 5.757812-.703125 8.714843-.703125 35.585938 0 64.433594 34.507812 64.433594 77.0625zm0 0" fill="#bddff4"/><path d="m55.789062 74.664062h-32.203124v47.167969h32.203124c13.023438 0 23.582032-10.558593 23.582032-23.582031 0-13.027344-10.558594-23.585938-23.582032-23.585938zm0 0" fill="#84a1c0"/><path d="m47.167969 98.25c0 13.023438-10.558594 23.582031-23.582031 23.582031-13.027344 0-23.585938-10.558593-23.585938-23.582031 0-13.027344 10.558594-23.585938 23.585938-23.585938 13.023437 0 23.582031 10.558594 23.582031 23.585938zm0 0" fill="#9cc6db"/><path d="m94.464844 127.488281h-.085938c-4.265625 0-7.726562-3.460937-7.726562-7.726562s3.460937-7.726563 7.726562-7.726563 7.769532 3.460938 7.769532 7.726563-3.414063 7.726562-7.683594 7.726562zm0 0" fill="#84a1c0"/><path d="m113.648438 138.886719h-.089844c-4.265625 0-7.726563-3.460938-7.726563-7.726563s3.460938-7.726562 7.726563-7.726562 7.769531 3.460937 7.769531 7.726562-3.414063 7.726563-7.679687 7.726563zm0 0" fill="#84a1c0"/><path d="m89.625 152.707031c0 7.90625-6.40625 14.3125-14.3125 14.3125-7.902344 0-14.308594-6.40625-14.308594-14.3125 0-7.902343 6.40625-14.3125 14.308594-14.3125 7.90625 0 14.3125 6.410157 14.3125 14.3125zm0 0" fill="#4e7693"/><path d="m246.832031 230.136719c0 4.265625-3.460937 7.726562-7.726562 7.726562h-14.90625c-.363281 0-.710938-.019531-1.0625-.082031-3.757813-.503906-6.664063-3.738281-6.664063-7.644531 0-3.914063 2.90625-7.136719 6.664063-7.644531.351562-.058594.703125-.082032 1.0625-.082032h14.90625c4.265625 0 7.726562 3.453125 7.726562 7.726563zm0 0" fill="#48ffe0"/><path d="m246.832031 251.390625c0 4.265625-3.460937 7.726563-7.726562 7.726563h-14.90625c-.363281 0-.710938-.023438-1.0625-.082032-3.757813-.503906-6.664063-3.738281-6.664063-7.644531 0-3.914063 2.90625-7.140625 6.664063-7.644531.351562-.0625.703125-.082032 1.0625-.082032h14.90625c4.265625 0 7.726562 3.453126 7.726562 7.726563zm0 0" fill="#48ffe0"/><path d="m246.832031 272.632812c0 4.273438-3.460937 7.726563-7.726562 7.726563h-14.90625c-.363281 0-.710938-.023437-1.0625-.082031-3.757813-.503906-6.664063-3.730469-6.664063-7.644532 0-3.902343 2.90625-7.140624 6.664063-7.644531.351562-.0625.703125-.082031 1.0625-.082031h14.90625c4.265625 0 7.726562 3.460938 7.726562 7.726562zm0 0" fill="#48ffe0"/><path d="m313.824219 360.648438c-4.265625 0-7.722657-3.460938-7.722657-7.726563v-48.503906c0-4.269531 3.457032-7.726563 7.722657-7.726563 4.269531 0 7.726562 3.457032 7.726562 7.726563v48.503906c0 4.269531-3.457031 7.726563-7.726562 7.726563zm0 0" fill="#4e7693"/><path d="m294.117188 389.476562c-4.265626 0-7.726563-3.457031-7.726563-7.726562v-75.65625c0-4.269531 3.460937-7.726562 7.726563-7.726562 4.269531 0 7.726562 3.457031 7.726562 7.726562v75.65625c0 4.269531-3.457031 7.726562-7.726562 7.726562zm0 0" fill="#4e7693"/><path d="m272.894531 199.730469v107.039062c0 16.695313 13.535157 30.230469 30.230469 30.230469s30.226562-13.535156 30.226562-30.230469v-.035156c0-56.132813 33.511719-106.847656 85.152344-128.855469v-123.753906c-80.417968 0-145.609375 65.191406-145.609375 145.605469zm0 0" fill="#e3f4ff"/><path d="m272.894531 199.734375v107.039063c0 16.6875 13.539063 30.226562 30.226563 30.226562.988281 0 1.964844-.046875 2.917968-.140625-10.160156-4.867187-17.175781-15.253906-17.175781-27.273437v-107.039063c0-40.210937 16.296875-76.609375 42.640625-102.964844 22.816406-22.804687 53.167969-38.082031 87-41.777343v-3.679688c-40.203125 0-76.605468 16.296875-102.957031 42.644531-26.355469 26.351563-42.652344 62.753907-42.652344 102.964844zm0 0" fill="#bddff4"/><path d="m403.574219 43.8125h26.773437v154.132812h-26.773437c-35.589844 0-64.4375-34.503906-64.4375-77.066406s28.847656-77.066406 64.4375-77.066406zm0 0" fill="#84a1c0"/><path d="m494.558594 120.878906c0-42.5625-28.851563-77.066406-64.4375-77.066406-35.589844 0-64.4375 34.503906-64.4375 77.066406s28.847656 77.066406 64.4375 77.066406c35.585937 0 64.4375-34.503906 64.4375-77.066406zm0 0" fill="#e3f4ff"/><path d="m365.683594 120.875c0 42.566406 28.847656 77.074219 64.433594 77.074219 2.953124 0 5.863281-.238281 8.714843-.707031-31.457031-5.09375-55.710937-37.339844-55.710937-76.367188 0-39.019531 24.253906-71.265625 55.710937-76.359375-2.851562-.46875-5.757812-.703125-8.714843-.703125-35.585938 0-64.433594 34.507812-64.433594 77.0625zm0 0" fill="#bddff4"/><path d="m456.210938 74.664062h32.203124v47.167969h-32.203124c-13.023438 0-23.582032-10.558593-23.582032-23.582031 0-13.027344 10.558594-23.585938 23.582032-23.585938zm0 0" fill="#84a1c0"/><path d="m512 98.25c0 13.023438-10.558594 23.582031-23.585938 23.582031-13.023437 0-23.582031-10.558593-23.582031-23.582031 0-13.027344 10.558594-23.585938 23.582031-23.585938 13.027344 0 23.585938 10.558594 23.585938 23.585938zm0 0" fill="#9cc6db"/><path d="m417.621094 127.488281c-4.265625 0-7.769532-3.460937-7.769532-7.726562s3.414063-7.726563 7.683594-7.726563h.085938c4.269531 0 7.726562 3.460938 7.726562 7.726563s-3.457031 7.726562-7.726562 7.726562zm0 0" fill="#84a1c0"/><path d="m398.441406 138.886719c-4.269531 0-7.769531-3.460938-7.769531-7.726563s3.414063-7.726562 7.679687-7.726562h.089844c4.265625 0 7.722656 3.460937 7.722656 7.726562s-3.457031 7.726563-7.722656 7.726563zm0 0" fill="#84a1c0"/><path d="m450.996094 152.707031c0 7.90625-6.40625 14.3125-14.308594 14.3125-7.90625 0-14.3125-6.40625-14.3125-14.3125 0-7.902343 6.40625-14.3125 14.3125-14.3125 7.902344 0 14.308594 6.410157 14.308594 14.3125zm0 0" fill="#4e7693"/><path d="m295.527344 230.136719c0 3.90625-2.90625 7.140625-6.664063 7.644531-.351562.0625-.703125.082031-1.0625.082031h-14.90625c-4.265625 0-7.726562-3.460937-7.726562-7.726562 0-4.273438 3.460937-7.726563 7.726562-7.726563h14.90625c.363281 0 .710938.023438 1.0625.082032 3.757813.507812 6.664063 3.730468 6.664063 7.644531zm0 0" fill="#48ffe0"/><path d="m295.527344 251.390625c0 3.902344-2.90625 7.140625-6.664063 7.644531-.351562.0625-.703125.082032-1.0625.082032h-14.90625c-4.265625 0-7.726562-3.460938-7.726562-7.726563 0-4.273437 3.460937-7.726563 7.726562-7.726563h14.90625c.363281 0 .710938.023438 1.0625.082032 3.757813.503906 6.664063 3.730468 6.664063 7.644531zm0 0" fill="#48ffe0"/><path d="m295.527344 272.632812c0 3.914063-2.90625 7.140626-6.664063 7.644532-.351562.0625-.703125.082031-1.0625.082031h-14.90625c-4.265625 0-7.726562-3.453125-7.726562-7.726563 0-4.265624 3.460937-7.726562 7.726562-7.726562h14.90625c.363281 0 .710938.019531 1.0625.082031 3.757813.503907 6.664063 3.742188 6.664063 7.644531zm0 0" fill="#48ffe0"/><path d="m231.5625 76.644531c-1.976562 0-3.953125-.753906-5.460938-2.261719-3.019531-3.015624-3.019531-7.910156-.003906-10.925781l4.625-4.628906v-39.722656c0-3.523438 2.382813-6.597657 5.789063-7.480469l41.988281-10.878906c2.316406-.597656 4.777344-.09375 6.664062 1.367187 1.894532 1.464844 3 3.722657 3 6.113281v42.925782c0 2.050781-.8125 4.015625-2.261718 5.464844l-6.890625 6.886718c-3.015625 3.019532-7.90625 3.019532-10.925781 0-3.019532-3.015625-3.019532-7.90625 0-10.925781l4.625-4.625v-29.746094l-26.535157 6.875v36.949219c0 2.050781-.8125 4.015625-2.261719 5.464844l-6.886718 6.886718c-1.507813 1.507813-3.488282 2.261719-5.464844 2.261719zm0 0" fill="#1685fb"/><g fill="#00e5b9"><path d="m246.832031 272.632812c0 4.273438-3.460937 7.726563-7.726562 7.726563h-14.90625c-.363281 0-.710938-.023437-1.0625-.082031v-15.289063c.351562-.0625.703125-.082031 1.0625-.082031h14.90625c4.265625 0 7.726562 3.460938 7.726562 7.726562zm0 0"/><path d="m246.832031 251.390625c0 4.265625-3.460937 7.726563-7.726562 7.726563h-14.90625c-.363281 0-.710938-.023438-1.0625-.082032v-15.289062c.351562-.0625.703125-.082032 1.0625-.082032h14.90625c4.265625 0 7.726562 3.453126 7.726562 7.726563zm0 0"/><path d="m224.199219 237.863281c-.363281 0-.710938-.019531-1.0625-.082031v-15.285156c.351562-.0625.703125-.082032 1.0625-.082032h14.90625c4.265625 0 7.726562 3.449219 7.726562 7.726563 0 4.261719-3.460937 7.722656-7.726562 7.722656zm0 0"/><path d="m288.863281 222.492188v15.289062c-.351562.0625-.703125.082031-1.0625.082031h-14.90625c-4.265625 0-7.726562-3.460937-7.726562-7.726562 0-4.273438 3.460937-7.726563 7.726562-7.726563h14.90625c.359375 0 .710938.023438 1.0625.082032zm0 0"/><path d="m287.800781 243.664062c.363281 0 .710938.023438 1.0625.082032v15.289062c-.351562.0625-.703125.082032-1.0625.082032h-14.90625c-4.265625 0-7.726562-3.460938-7.726562-7.726563 0-4.273437 3.460937-7.726563 7.726562-7.726563zm0 0"/><path d="m287.800781 264.90625c.363281 0 .710938.019531 1.0625.082031v15.289063c-.351562.0625-.703125.082031-1.0625.082031h-14.90625c-4.265625 0-7.726562-3.453125-7.726562-7.726563 0-4.265624 3.460937-7.726562 7.726562-7.726562zm0 0"/></g></svg>