<svg height="512pt" viewBox="0 1 512 511" width="512pt" xmlns="http://www.w3.org/2000/svg"><path d="m153.664062.5c-8.695312 0-15.746093 7.050781-15.746093 15.746094v76.15625c0 8.695312 7.050781 15.746094 15.746093 15.746094 8.699219 0 15.746094-7.050782 15.746094-15.746094v-76.15625c0-8.695313-7.046875-15.746094-15.746094-15.746094zm0 0" fill="#ff5e93"/><path d="m221.886719.5c-8.695313 0-15.742188 7.050781-15.742188 15.746094v76.15625c0 8.695312 7.046875 15.746094 15.742188 15.746094 8.699219 0 15.746093-7.050782 15.746093-15.746094v-76.15625c0-8.695313-7.046874-15.746094-15.746093-15.746094zm0 0" fill="#ff5e93"/><path d="m290.113281.5c-8.699219 0-15.746093 7.050781-15.746093 15.746094v76.15625c0 8.695312 7.046874 15.746094 15.746093 15.746094 8.695313 0 15.742188-7.050782 15.742188-15.746094v-76.15625c0-8.695313-7.046875-15.746094-15.742188-15.746094zm0 0" fill="#ff3c7d"/><path d="m358.335938.5c-8.699219 0-15.746094 7.050781-15.746094 15.746094v76.15625c0 8.695312 7.046875 15.746094 15.746094 15.746094 8.695312 0 15.746093-7.050782 15.746093-15.746094v-76.15625c0-8.695313-7.050781-15.746094-15.746093-15.746094zm0 0" fill="#ff3c7d"/><path d="m153.664062 404.851562c-8.695312 0-15.746093 7.050782-15.746093 15.746094v76.15625c0 8.695313 7.050781 15.746094 15.746093 15.746094 8.699219 0 15.746094-7.050781 15.746094-15.746094v-76.15625c0-8.695312-7.046875-15.746094-15.746094-15.746094zm0 0" fill="#ff5e93"/><path d="m221.886719 404.851562c-8.695313 0-15.742188 7.050782-15.742188 15.746094v76.15625c0 8.695313 7.046875 15.746094 15.742188 15.746094 8.699219 0 15.746093-7.050781 15.746093-15.746094v-76.15625c0-8.695312-7.046874-15.746094-15.746093-15.746094zm0 0" fill="#ff5e93"/><g fill="#ff3c7d"><path d="m290.113281 404.851562c-8.699219 0-15.746093 7.050782-15.746093 15.746094v76.15625c0 8.695313 7.046874 15.746094 15.746093 15.746094 8.695313 0 15.742188-7.050781 15.742188-15.746094v-76.15625c0-8.695312-7.046875-15.746094-15.742188-15.746094zm0 0"/><path d="m358.335938 404.851562c-8.699219 0-15.746094 7.050782-15.746094 15.746094v76.15625c0 8.695313 7.046875 15.746094 15.746094 15.746094 8.695312 0 15.746093-7.050781 15.746093-15.746094v-76.15625c0-8.695312-7.050781-15.746094-15.746093-15.746094zm0 0"/><path d="m420.097656 169.910156h76.15625c8.695313 0 15.746094-7.046875 15.746094-15.746094 0-8.695312-7.050781-15.746093-15.746094-15.746093h-76.15625c-8.695312 0-15.746094 7.050781-15.746094 15.746093 0 8.699219 7.050782 15.746094 15.746094 15.746094zm0 0"/><path d="m496.253906 206.644531h-76.15625c-8.695312 0-15.746094 7.046875-15.746094 15.742188 0 8.699219 7.050782 15.746093 15.746094 15.746093h76.15625c8.695313 0 15.746094-7.046874 15.746094-15.746093 0-8.695313-7.050781-15.742188-15.746094-15.742188zm0 0"/><path d="m496.253906 274.867188h-76.15625c-8.695312 0-15.746094 7.046874-15.746094 15.746093 0 8.695313 7.050782 15.742188 15.746094 15.742188h76.15625c8.695313 0 15.746094-7.046875 15.746094-15.742188 0-8.699219-7.050781-15.746093-15.746094-15.746093zm0 0"/><path d="m496.253906 343.089844h-76.15625c-8.695312 0-15.746094 7.046875-15.746094 15.746094 0 8.695312 7.050782 15.746093 15.746094 15.746093h76.15625c8.695313 0 15.746094-7.050781 15.746094-15.746093 0-8.699219-7.050781-15.746094-15.746094-15.746094zm0 0"/></g><path d="m91.902344 138.417969h-76.15625c-8.695313 0-15.746094 7.050781-15.746094 15.746093 0 8.699219 7.050781 15.746094 15.746094 15.746094h76.15625c8.695312 0 15.746094-7.046875 15.746094-15.746094 0-8.695312-7.050782-15.746093-15.746094-15.746093zm0 0" fill="#ff5e93"/><path d="m91.902344 206.644531h-76.15625c-8.695313 0-15.746094 7.046875-15.746094 15.742188 0 8.699219 7.050781 15.746093 15.746094 15.746093h76.15625c8.695312 0 15.746094-7.046874 15.746094-15.746093 0-8.695313-7.050782-15.742188-15.746094-15.742188zm0 0" fill="#ff5e93"/><path d="m91.902344 274.867188h-76.15625c-8.695313 0-15.746094 7.046874-15.746094 15.746093 0 8.695313 7.050781 15.742188 15.746094 15.742188h76.15625c8.695312 0 15.746094-7.046875 15.746094-15.742188 0-8.699219-7.050782-15.746093-15.746094-15.746093zm0 0" fill="#ff5e93"/><path d="m91.902344 343.089844h-76.15625c-8.695313 0-15.746094 7.046875-15.746094 15.746094 0 8.695312 7.050781 15.746093 15.746094 15.746093h76.15625c8.695312 0 15.746094-7.050781 15.746094-15.746093 0-8.699219-7.050782-15.746094-15.746094-15.746094zm0 0" fill="#ff5e93"/><path d="m420.554688 106.621094v297.605468c0 8.703126-7.054688 15.746094-15.746094 15.746094h-297.617188c-8.691406 0-15.746094-7.042968-15.746094-15.746094v-297.605468c0-8.703125 7.054688-15.746094 15.746094-15.746094h297.617188c8.691406 0 15.746094 7.042969 15.746094 15.746094zm0 0" fill="#4895ff"/><path d="m420.554688 106.621094v297.605468c0 8.703126-7.054688 15.746094-15.746094 15.746094h-148.808594v-329.097656h148.808594c8.691406 0 15.746094 7.042969 15.746094 15.746094zm0 0" fill="#2682ff"/><path d="m380.894531 201.359375v107.050781c0 5.792969-4.703125 10.496094-10.496093 10.496094h-16.617188c-18.347656 0-33.234375 14.875-33.234375 33.234375v17.675781c0 5.792969-4.691406 10.496094-10.496094 10.496094h-108.101562c-5.804688 0-10.496094-4.703125-10.496094-10.496094v-17.675781c0-18.359375-14.886719-33.234375-33.234375-33.234375h-16.617188c-5.792968 0-10.496093-4.703125-10.496093-10.496094v-107.050781c0-5.796875 4.703125-10.496094 10.496093-10.496094h16.617188c18.347656 0 33.234375-14.875 33.234375-33.226562v-16.605469c0-5.792969 4.691406-10.496094 10.496094-10.496094h108.101562c5.804688 0 10.496094 4.703125 10.496094 10.496094v16.605469c0 18.351562 14.886719 33.226562 33.234375 33.226562h16.617188c5.792968 0 10.496093 4.699219 10.496093 10.496094zm0 0" fill="#ffeb99"/><path d="m380.894531 201.359375v107.050781c0 5.792969-4.703125 10.496094-10.496093 10.496094h-16.617188c-18.347656 0-33.234375 14.875-33.234375 33.234375v17.675781c0 5.792969-4.691406 10.496094-10.496094 10.496094h-54.050781v-249.777344h54.050781c5.804688 0 10.496094 4.703125 10.496094 10.496094v16.605469c0 18.351562 14.886719 33.226562 33.234375 33.226562h16.617188c5.792968 0 10.496093 4.699219 10.496093 10.496094zm0 0" fill="#ffde55"/></svg>