<svg height="512pt" viewBox="0 -18 512.00052 512" width="512pt" xmlns="http://www.w3.org/2000/svg"><path d="m502.023438 155.847656c-13.300782-13.304687-34.871094-13.304687-48.171876 0l-76.640624 76.40625c-11.878907 11.878906-31.136719 11.878906-43.015626 0-11.875-11.875-11.875-31.132812 0-43.011718l6.296876-6.296876c13.304687-13.304687 13.304687-34.871093 0-48.171874-13.300782-13.304688-34.867188-13.304688-48.171876 0l-13.921874 13.917968c-11.875 11.878906-31.136719 11.878906-43.011719 0-11.878907-11.875-11.878907-31.132812 0-43.011718l47.527343-47.53125c13.304688-13.300782 13.304688-34.867188 0-48.171876-13.300781-13.300781-34.871093-13.300781-48.171874 0 0 0-185.332032 185.097657-187.023438 186.789063-63.625 63.628906-63.625 167.152344 0 230.78125 61.921875 61.917969 161.621094 63.570313 225.566406 4.976563l228.738282-228.5c13.300781-13.308594 13.300781-34.875 0-48.175782zm0 0" fill="#ffbc97"/><path d="m157.617188 318.699219c-60.515626-70.765625-46.25-153.371094-28.28125-203.449219-42.054688 42.003906-80.847657 80.75-81.617188 81.519531-63.625 63.625-63.625 167.148438 0 230.777344 42.496094 42.492187 102.78125 56.597656 157.097656 42.328125 2.605469-48.082031-6.660156-103.773438-47.199218-151.175781zm0 0" fill="#ff9478"/><path d="m284.761719 312.152344c0 67.191406-54.464844 121.65625-121.652344 121.65625s-121.65625-54.464844-121.65625-121.65625c0-67.1875 54.46875-121.652344 121.65625-121.652344s121.652344 54.464844 121.652344 121.652344zm0 0" fill="#ff737d"/><path d="m157.617188 318.699219c-32.613282-38.140625-43.507813-79.726563-43.808594-117.796875-13.320313 5.898437-25.800782 14.3125-36.722656 25.230468-47.507813 47.511719-47.507813 124.539063 0 172.046876 34.226562 34.226562 83.777343 43.792968 126.570312 28.703124-4.152344-36.4375-17.160156-74.414062-46.039062-108.183593zm0 0" fill="#f46262"/><g fill="#57565c"><path d="m198.132812 367.175781c-3.015624-3.019531-3.015624-7.910156 0-10.929687l9.070313-9.066406c3.019531-3.019532 7.910156-3.019532 10.929687 0 3.015626 3.015624 3.015626 7.910156 0 10.925781l-9.070312 9.070312c-3.019531 3.015625-7.910156 3.019531-10.929688 0zm0 0"/><path d="m108.089844 277.128906c-3.019532-3.015625-3.019532-7.910156 0-10.925781l9.066406-9.070313c3.019531-3.015624 7.910156-3.015624 10.929688 0 3.015624 3.019532 3.015624 7.910157 0 10.925782l-9.070313 9.070312c-3.019531 3.019532-7.910156 3.019532-10.925781 0zm0 0"/><path d="m167.761719 314.964844c-3.019531.570312-5.019531-.996094-5.742188-1.71875-.726562-.726563-2.34375-2.734375-1.71875-5.746094.863281-4.179688-1.820312-8.269531-6-9.132812-4.179687-.867188-8.265625 1.820312-9.132812 6-1.492188 7.199218.722656 14.605468 5.921875 19.804687 5.203125 5.199219 12.605468 7.414063 19.804687 5.921875 4.179688-.867188 6.867188-4.953125 6-9.132812-.316406-1.53125-2.832031-7.191407-9.132812-5.996094zm0 0"/></g><path d="m366.847656 108.414062c-13.296875-13.296874-13.296875-34.855468 0-48.15625l16.808594-16.804687c13.296875-13.296875 34.855469-13.296875 48.152344 0 13.300781 13.296875 13.300781 34.855469 0 48.15625l-16.804688 16.804687c-13.296875 13.296876-34.855468 13.296876-48.15625 0zm0 0" fill="#ff9478"/></svg>