<svg height="512pt" viewBox="-31 0 512 512" width="512pt" xmlns="http://www.w3.org/2000/svg"><path d="m195 15h60v91h-60zm0 0" fill="#fdbf00"/><path d="m225 15h30v91h-30zm0 0" fill="#ff9100"/><path d="m85.605469 82.972656c-17.007813-16.992187-46.683594-16.976562-63.632813-.015625-17.5625 17.566407-17.617187 46.03125 0 63.648438l24.230469 24.230469 63.632813-63.636719zm0 0" fill="#fdbf00"/><path d="m434.355469 82.972656c-17.007813-16.992187-46.683594-16.992187-63.632813 0l-26.984375 26.96875 62.726563 64.554688 27.890625-27.890625c17.621093-17.621094 17.5625-46.101563 0-63.632813zm0 0" fill="#ff9100"/><path d="m225 61c-124.199219 0-225 100.800781-225 225s100.800781 226 225 226 225-101.800781 225-226-100.800781-225-225-225zm0 0" fill="#ff637b"/><path d="m450 286c0 124.199219-100.800781 226-225 226v-451c124.199219 0 225 100.800781 225 225zm0 0" fill="#e63950"/><path d="m360 286 29.097656 15c-6.898437 78.898438-70.199218 142.199219-149.097656 149.097656l-15-29.097656-15 29.097656c-34.199219-2.996094-65.398438-16.5-90.601562-37.5l1.203124-22.199218-22.203124 1.199218c-20.996094-25.199218-34.5-56.398437-37.496094-90.597656l29.097656-15-29.097656-15c2.996094-34.199219 16.5-65.398438 37.5-90.601562l22.199218 1.199218-1.203124-22.199218c28.800781-24 65.402343-38.398438 105.601562-38.398438s76.800781 14.398438 105.601562 38.398438l-1.203124 22.199218 22.203124-1.199218c21 25.203124 34.5 56.402343 37.5 90.601562zm0 0" fill="#faecd8"/><path d="m360 286 29.097656 15c-6.898437 78.898438-70.199218 142.199219-149.097656 149.097656l-15-29.097656v-300c40.199219 0 76.800781 14.398438 105.601562 38.398438l-1.203124 22.199218 22.203124-1.199218c21 25.203124 34.5 56.402343 37.5 90.601562zm0 0" fill="#f4d7af"/><path d="m120 286c0-8.289062-6.710938-15-15-15h-44.238281c-.449219 4.949219-.761719 9.9375-.761719 15s.3125 10.050781.761719 15h44.238281c8.289062 0 15-6.710938 15-15zm0 0" fill="#f4d7af"/><path d="m389.238281 271h-44.238281c-8.289062 0-15 6.710938-15 15s6.710938 15 15 15h44.238281c.449219-4.949219.761719-9.9375.761719-15s-.3125-10.050781-.761719-15zm0 0" fill="#dabba6"/><path d="m150.746094 211.746094c5.859375-5.859375 5.859375-15.351563 0-21.210938l-31.253906-31.253906c-7.691407 6.417969-14.792969 13.519531-21.210938 21.210938l31.253906 31.253906c5.859375 5.859375 15.351563 5.859375 21.210938 0zm0 0" fill="#f4d7af"/><path d="m150.746094 360.253906c-5.859375-5.859375-15.351563-5.859375-21.210938 0l-31.253906 31.253906c6.417969 7.691407 13.519531 14.792969 21.210938 21.210938l31.253906-31.253906c5.859375-5.859375 5.859375-15.351563 0-21.210938zm0 0" fill="#f4d7af"/><path d="m299.253906 211.746094c5.859375 5.859375 15.351563 5.859375 21.210938 0l31.253906-31.253906c-6.417969-7.691407-13.519531-14.792969-21.210938-21.210938l-31.253906 31.253906c-5.859375 5.859375-5.859375 15.351563 0 21.210938zm0 0" fill="#dabba6"/><path d="m240 406v44.097656c-4.800781.601563-9.902344.902344-15 .902344s-10.199219-.300781-15-.902344v-44.097656c0-8.402344 6.597656-15 15-15s15 6.597656 15 15zm0 0" fill="#f4d7af"/><path d="m240 136v120c0 8.398438-6.597656 15-15 15s-15-6.601562-15-15v-120c0-8.402344 6.597656-15 15-15s15 6.597656 15 15zm0 0" fill="#7c8388"/><path d="m337.835938 399.730469c-3.515626 0-7.03125-1.214844-9.871094-3.707031l-90.265625-78.96875c-6.238281-5.464844-6.871094-14.941407-1.421875-21.167969 5.464844-6.253907 14.941406-6.871094 21.167968-1.421875l90.265626 78.972656c6.238281 5.460938 6.867187 14.941406 1.421874 21.164062-2.976562 3.402344-7.121093 5.128907-11.296874 5.128907zm0 0" fill="#575f64"/><path d="m240 406v44.097656c-4.800781.601563-9.902344.902344-15 .902344v-60c8.402344 0 15 6.597656 15 15zm0 0" fill="#dabba6"/><path d="m240 136v120c0 8.398438-6.597656 15-15 15v-150c8.402344 0 15 6.597656 15 15zm0 0" fill="#575f64"/><path d="m300 15c0 8.398438-6.597656 15-15 15h-120c-8.402344 0-15-6.601562-15-15 0-8.402344 6.597656-15 15-15h120c8.402344 0 15 6.597656 15 15zm0 0" fill="#ff637b"/><path d="m285 30h-60v-30h60c8.402344 0 15 6.597656 15 15 0 8.398438-6.597656 15-15 15zm0 0" fill="#e63950"/><path d="m225 241c-24.902344 0-45 20.097656-45 45 0 24.898438 20.097656 45 45 45s45-20.101562 45-45c0-24.902344-20.097656-45-45-45zm0 0" fill="#7c8388"/><path d="m270 286c0 24.898438-20.097656 45-45 45v-90c24.902344 0 45 20.097656 45 45zm0 0" fill="#575f64"/></svg>