<svg height="464pt" viewBox="0 0 464.01371 464" width="464pt" xmlns="http://www.w3.org/2000/svg"><path d="m88.015625 96.007812c-49.601563 1.339844-88.867187 42.386719-88 92 0 44 40 84 88 84h312c35.34375 0 64-24 64-56 0-35.347656-28.65625-64-64-64 0-30.929687-25.074219-56-56-56h-48c0-53.019531-42.984375-95.9999995-96-95.9999995-53.019531 0-96 42.9804685-96 95.9999995zm0 0" fill="#ffe675"/><path d="m128.015625 144.007812h208c8.835937 0 16 7.164063 16 16v288c0 8.835938-7.164063 16-16 16h-208c-8.839844 0-16-7.164062-16-16v-288c0-8.835937 7.160156-16 16-16zm0 0" fill="#efefef"/><g fill="#bcbcbc"><path d="m168.015625 184.007812c0 8.835938-7.164063 16-16 16-8.839844 0-16-7.164062-16-16 0-8.835937 7.160156-16 16-16 8.835937 0 16 7.164063 16 16zm0 0"/><path d="m328.015625 184.007812c0 8.835938-7.164063 16-16 16-8.839844 0-16-7.164062-16-16 0-8.835937 7.160156-16 16-16 8.835937 0 16 7.164063 16 16zm0 0"/><path d="m168.015625 424.007812c0 8.835938-7.164063 16-16 16-8.839844 0-16-7.164062-16-16 0-8.835937 7.160156-16 16-16 8.835937 0 16 7.164063 16 16zm0 0"/><path d="m328.015625 424.007812c0 8.835938-7.164063 16-16 16-8.839844 0-16-7.164062-16-16 0-8.835937 7.160156-16 16-16 8.835937 0 16 7.164063 16 16zm0 0"/></g><path d="m320.015625 288.007812c0 48.601563-39.402344 88-88 88-48.601563 0-88-39.398437-88-88 0-48.601562 39.398437-88 88-88 48.597656 0 88 39.398438 88 88zm0 0" fill="#ffe675"/><path d="m248.015625 288.007812c0 8.835938-7.164063 16-16 16-8.839844 0-16-7.164062-16-16 0-8.835937 7.160156-16 16-16 8.835937 0 16 7.164063 16 16zm0 0" fill="#ccb85d"/><path d="m265.953125 321.949219c6.25-6.25 16.378906-6.25 22.628906 0l28.285157 28.28125c6.246093 6.25 6.246093 16.378906 0 22.628906-6.25 6.25-16.378907 6.25-22.628907 0l-28.285156-28.285156c-6.246094-6.246094-6.246094-16.378907 0-22.625zm0 0" fill="#75c1ff"/></svg>