<svg height="464pt" viewBox="-24 0 464 464" width="464pt" xmlns="http://www.w3.org/2000/svg"><path d="m104 296h48v40h-48zm0 0" fill="#62666a"/><path d="m416 112v-16c0-53.019531-42.980469-96-96-96h-57.375c-4.242188 0-8.3125 1.6875-11.3125 4.6875l-11.3125 11.3125h-64l-11.3125-11.3125c-3-3-7.070312-4.6875-11.3125-4.6875h-57.375c-53.019531 0-96 42.980469-96 96v16c0 53.019531 42.980469 96 96 96-53.019531 0-96 42.980469-96 96v64c0 53.019531 42.980469 96 96 96h224c53.019531 0 96-42.980469 96-96v-64c0-53.019531-42.980469-96-96-96 53.019531 0 96-42.980469 96-96zm0 0" fill="#1a6c85"/><path d="m360 48c-5.121094-5.121094-12.070312-8-19.3125-8h-14.238281c-4.242188 0-8.425781.984375-12.21875 2.878906l-10.230469 5.121094-12.625-6.3125c-2.21875-1.109375-4.667969-1.6875-7.152344-1.6875h-19.664062c-5.347656 0-10.34375 2.675781-13.3125 7.128906l-6.492188 9.742188c-2.96875 4.453125-7.964844 7.128906-13.3125 7.128906h-46.882812c-5.347656 0-10.34375-2.675781-13.3125-7.128906l-6.492188-9.742188c-2.96875-4.453125-7.964844-7.128906-13.3125-7.128906h-19.664062c-2.484375 0-4.933594.578125-7.152344 1.6875l-12.625 6.3125-10.230469-5.121094c-3.792969-1.894531-7.976562-2.878906-12.21875-2.878906h-14.238281c-15.085938 0-27.3125 12.226562-27.3125 27.3125v73.375c0 15.085938 12.226562 27.3125 27.3125 27.3125h14.238281c4.242188 0 8.425781-.984375 12.21875-2.878906l10.230469-5.121094 12.625 6.3125c2.21875 1.109375 4.667969 1.6875 7.152344 1.6875h19.664062c5.347656 0 10.34375-2.675781 13.3125-7.128906l6.492188-9.742188c2.96875-4.453125 7.964844-7.128906 13.3125-7.128906h46.882812c5.347656 0 10.34375 2.675781 13.3125 7.128906l6.492188 9.742188c2.96875 4.453125 7.964844 7.128906 13.3125 7.128906h19.664062c2.484375 0 4.933594-.578125 7.152344-1.6875l12.625-6.3125 10.230469 5.121094c3.792969 1.894531 7.976562 2.878906 12.21875 2.878906h14.238281c15.085938 0 27.3125-12.226562 27.3125-27.3125v-73.375c0-7.242188-2.878906-14.191406-8-19.3125zm0 0" fill="#155a6e"/><path d="m391.40625 432h-127.40625l-11.3125-11.3125c-3-3-7.070312-4.6875-11.3125-4.6875h-66.75c-4.242188 0-8.3125 1.6875-11.3125 4.6875l-11.3125 11.3125h-127.40625c18.148438 20.363281 44.128906 32.003906 71.40625 32h224c27.277344.003906 53.257812-11.636719 71.40625-32zm0 0" fill="#155a6e"/><path d="m280 240h-144c-17.671875 0-32-14.328125-32-32h208c0 17.671875-14.328125 32-32 32zm0 0" fill="#3b869e"/><path d="m168 376h16v16h-16zm0 0" fill="#ffda75"/><path d="m200 368h16v24h-16zm0 0" fill="#ffda75"/><path d="m232 360h16v32h-16zm0 0" fill="#bda157"/><g fill="#176177"><path d="m104 96h16v16h-16zm0 0"/><path d="m104 164 8-4 8 4v-36h-16zm0 0"/><path d="m312 44-8 4-8-4v36h16zm0 0"/><path d="m296 96h16v16h-16zm0 0"/><path d="m296 164 8-4 8 4v-36h-16zm0 0"/><path d="m120 44-8 4-8-4v36h16zm0 0"/></g><path d="m264 296h48v40h-48zm0 0" fill="#62666a"/><path d="m104 296h48v40h-48zm0 0" fill="#62666a"/><path d="m315.574219 389.792969c2.910156 1.449219 6.117187 2.203125 9.371093 2.207031h12.710938c4.136719 0 8.179688-1.226562 11.625-3.519531l9.390625-6.265625c5.828125-3.878906 9.328125-10.414063 9.328125-17.414063v-73.601562c0-7.003907-3.5-13.542969-9.328125-17.421875l-9.390625-6.257813c-3.445312-2.292969-7.488281-3.519531-11.625-3.519531h-12.710938c-3.253906.003906-6.460937.757812-9.371093 2.207031-7.09375 3.550781-11.574219 10.804688-11.574219 18.738281v86.109376c0 7.933593 4.480469 15.1875 11.574219 18.738281zm0 0" fill="#9c9c9c"/><path d="m262.6875 281.550781-32 5.335938c-3.855469.644531-6.6875 3.980469-6.6875 7.890625v34.445312c0 3.910156 2.832031 7.246094 6.6875 7.890625l32 5.335938c2.320312.382812 4.691406-.269531 6.484375-1.789063 1.792969-1.519531 2.828125-3.75 2.828125-6.101562v-45.117188c0-2.351562-1.035156-4.582031-2.828125-6.101562-1.792969-1.519532-4.164063-2.171875-6.484375-1.789063zm0 0" fill="#787d82"/><path d="m344 328h-16v-64h9.65625c2.152344.003906 4.292969.34375 6.34375 1zm0 0" fill="#a8a8a8"/><path d="m328 344h16v16h-16zm0 0" fill="#a8a8a8"/><path d="m100.425781 389.792969c-2.910156 1.449219-6.117187 2.203125-9.371093 2.207031h-12.710938c-4.136719 0-8.179688-1.226562-11.625-3.519531l-9.390625-6.265625c-5.828125-3.878906-9.328125-10.414063-9.328125-17.414063v-73.601562c0-7.003907 3.5-13.542969 9.328125-17.421875l9.390625-6.265625c3.445312-2.292969 7.488281-3.511719 11.625-3.511719h12.710938c3.253906.003906 6.460937.757812 9.371093 2.207031 7.09375 3.550781 11.574219 10.804688 11.574219 18.738281v86.109376c0 7.933593-4.480469 15.1875-11.574219 18.738281zm0 0" fill="#9c9c9c"/><path d="m153.3125 281.550781 32 5.335938c3.855469.644531 6.6875 3.980469 6.6875 7.890625v34.445312c0 3.910156-2.832031 7.246094-6.6875 7.890625l-32 5.335938c-2.320312.382812-4.691406-.269531-6.484375-1.789063-1.792969-1.519531-2.828125-3.75-2.828125-6.101562v-45.117188c0-2.351562 1.035156-4.582031 2.828125-6.101562 1.792969-1.519532 4.164063-2.171875 6.484375-1.789063zm0 0" fill="#787d82"/><path d="m72 328h16v-64h-9.65625c-2.152344.003906-4.292969.34375-6.34375 1zm0 0" fill="#a8a8a8"/><path d="m72 344h16v16h-16zm0 0" fill="#a8a8a8"/></svg>