<svg height="512pt" viewBox="0 0 512 512.00025" width="512pt" xmlns="http://www.w3.org/2000/svg"><path d="m500.277344 108.328125-95.207032 95.207031-96.605468-96.605468 95.207031-95.207032c15.628906-15.628906 41.0625-15.628906 56.691406 0l39.914063 39.914063c15.628906 15.628906 15.628906 41.0625 0 56.691406zm0 0" fill="#daf0fa"/><path d="m500.277344 51.636719-19.957032-19.957031-123.550781 123.550781 48.300781 48.304687 95.207032-95.207031c15.628906-15.628906 15.628906-41.0625 0-56.691406zm0 0" fill="#b0e1ff"/><path d="m500.277344 51.636719-39.914063-39.914063c-15.632812-15.628906-41.0625-15.628906-56.691406 0l-25.886719 25.882813 96.609375 96.605469 25.882813-25.882813c15.628906-15.628906 15.628906-41.0625 0-56.691406zm0 0" fill="#ffda2f"/><path d="m500.277344 51.636719-19.957032-19.957031-54.230468 54.230468 48.304687 48.300782 25.882813-25.882813c15.628906-15.628906 15.628906-41.0625 0-56.691406zm0 0" fill="#ffbc1d"/><path d="m450.085938 206.117188-144.203126-144.203126c-15.628906-15.628906-41.058593-15.628906-56.691406 0l-207.652344 207.652344c-55.390624 55.390625-55.382812 145.511719 0 200.890625 55.390626 55.390625 145.503907 55.390625 200.894532 0l207.652344-207.652343c15.628906-15.628907 15.628906-41.058594 0-56.6875zm0 0" fill="#0db2ff"/><path d="m450.085938 206.117188-72.101563-72.101563-336.445313 336.441406c55.390626 55.390625 145.503907 55.390625 200.894532 0l207.652344-207.652343c15.628906-15.628907 15.628906-41.058594 0-56.6875zm0 0" fill="#0089ff"/><path d="m319.722656 192.277344c-5.855468-5.859375-15.359375-5.859375-21.214844 0l-129.734374 129.730468c-5.855469 5.855469-5.855469 15.359376 0 21.214844 5.859374 5.855469 15.363281 5.855469 21.21875 0l129.730468-129.730468c5.855469-5.855469 5.855469-15.363282 0-21.214844zm0 0" fill="#0089ff"/><path d="m319.722656 192.277344-150.949218 150.945312c5.859374 5.855469 15.363281 5.855469 21.21875 0l129.730468-129.730468c5.855469-5.855469 5.855469-15.363282 0-21.214844zm0 0" fill="#0052c2"/><path d="m190 418.605469c-26.636719 26.632812-69.972656 26.632812-96.605469 0-26.636719-26.632813-26.636719-69.972657 0-96.605469 26.632813-26.632812 69.964844-26.628906 96.597657.007812 26.632812 26.632813 26.640624 69.964844.007812 96.597657zm0 0" fill="#fff"/><path d="m190 418.605469c-26.636719 26.632812-69.972656 26.632812-96.605469 0l96.597657-96.597657c26.632812 26.632813 26.640624 69.964844.007812 96.597657zm0 0" fill="#daf0fa"/></svg>