<?xml version="1.0" encoding="iso-8859-1"?>
<!-- Generator: Adobe Illustrator 19.0.0, SVG Export Plug-In . SVG Version: 6.00 Build 0)  -->
<svg xmlns="http://www.w3.org/2000/svg" xmlns:xlink="http://www.w3.org/1999/xlink" version="1.1" id="Layer_1" x="0px" y="0px" viewBox="0 0 512 512" style="enable-background:new 0 0 512 512;" xml:space="preserve" width="512" height="512">
<g>
	<path style="fill:#C5E1E6;" d="M280.098,48.2h-48.2c-8.284,0-15,6.716-15,15v49.692c0,8.284,6.716,15,15,15c8.284,0,15-6.716,15-15   h18.2c0,8.284,6.716,15,15,15c8.284,0,15-6.716,15-15V63.2C295.098,54.916,288.383,48.2,280.098,48.2z"/>
	<path style="fill:#8DB9C4;" d="M280.098,48.2h-24.1v64.692h9.1c0,8.284,6.716,15,15,15c8.284,0,15-6.716,15-15V63.2   C295.098,54.916,288.383,48.2,280.098,48.2z"/>
	<path style="fill:#C5E1E6;" d="M162.979,132.514L131.044,94.45c-2.558-3.047-6.221-4.954-10.184-5.301   c-3.965-0.351-7.901,0.896-10.949,3.451l-36.925,30.981c-3.048,2.558-4.955,6.221-5.302,10.184s0.896,7.902,3.452,10.949   l31.954,38.08c2.968,3.536,7.218,5.358,11.499,5.358c3.402,0,6.824-1.151,9.634-3.51c6.346-5.325,7.174-14.786,1.849-21.132   l-0.004-0.006l13.934-11.703c5.326,6.341,14.784,7.168,21.128,1.844C167.475,148.321,168.304,138.86,162.979,132.514z"/>
	<path style="fill:#8DB9C4;" d="M444.313,133.766c-0.348-3.963-2.254-7.626-5.302-10.184l-36.924-30.981   c-3.048-2.557-6.984-3.795-10.949-3.452c-3.964,0.348-7.626,2.254-10.183,5.302l-31.938,38.063   c-5.326,6.347-4.498,15.808,1.849,21.133c6.344,5.322,15.802,4.495,21.128-1.844l13.934,11.703l-0.004,0.005   c-5.325,6.347-4.498,15.808,1.848,21.133c2.81,2.358,6.232,3.51,9.635,3.51c4.281,0,8.531-1.822,11.498-5.357l31.955-38.08   C443.418,141.668,444.659,137.73,444.313,133.766z"/>
	<g>
		<path style="fill:#3D5959;" d="M255.999,96.4c-114.581,0-207.8,93.219-207.8,207.8S141.418,512,255.999,512    s207.8-93.219,207.8-207.8S370.58,96.4,255.999,96.4z"/>
		<path style="fill:#293939;" d="M255.999,96.4V512c114.581,0,207.8-93.219,207.8-207.8S370.58,96.4,255.999,96.4z"/>
		<path style="fill:#FEF4F5;" d="M255.999,144.6c-88.004,0-159.601,71.597-159.601,159.601s71.597,159.6,159.601,159.6    s159.6-71.596,159.6-159.6S344.003,144.6,255.999,144.6z"/>
		<path style="fill:#D5EDED;" d="M255.999,144.6v319.2c88.004,0,159.6-71.596,159.6-159.6S344.003,144.6,255.999,144.6z"/>
		<path style="fill:#FF4949;" d="M342.802,217.392c-7.385-7.384-17.203-11.45-27.647-11.45c-10.443,0-20.262,4.066-27.647,11.451    l-59.159,59.158c-15.244,15.245-15.244,40.05-0.002,55.293c7.385,7.388,17.203,11.456,27.649,11.456    c10.446,0,20.265-4.068,27.648-11.453l59.157-59.154C358.048,257.448,358.049,232.642,342.802,217.392z"/>
	</g>
	<g>
		<path style="fill:#3D5959;" d="M296.165,0h-80.333c-17.13,0-31.066,13.937-31.066,31.066v16.067    c0,17.13,13.937,31.066,31.066,31.066h80.333c17.131,0,31.067-13.937,31.067-31.066V31.066C327.232,13.937,313.296,0,296.165,0z"/>
		<path style="fill:#3D5959;" d="M122.692,59.507c-5.908-7.04-14.59-11.077-23.818-11.077c-7.292,0-14.375,2.573-19.947,7.248    L42.002,86.66c-6.344,5.322-10.236,12.813-10.96,21.093c-0.725,8.279,1.808,16.332,7.13,22.676l10.326,12.307    c5.907,7.042,14.59,11.081,23.82,11.081c7.293,0,14.377-2.575,19.948-7.25l36.925-30.984c13.122-11.011,14.84-30.645,3.829-43.767    L122.692,59.507z"/>
		<path style="fill:#293939;" d="M469.996,86.661l-36.927-30.985c-5.57-4.673-12.654-7.246-19.945-7.246    c-9.23,0-17.912,4.037-23.82,11.078l-10.326,12.308c-5.322,6.343-7.855,14.396-7.131,22.675    c0.725,8.279,4.617,15.771,10.959,21.092l36.926,30.984c5.57,4.675,12.655,7.25,19.948,7.25c9.229,0,17.913-4.039,23.819-11.08    l10.327-12.308C484.836,117.306,483.118,97.672,469.996,86.661z"/>
	</g>
	<path style="fill:#293939;" d="M327.232,47.134V31.066C327.232,13.937,313.296,0,296.165,0h-40.166v78.2h40.166   C313.296,78.2,327.232,64.264,327.232,47.134z"/>
	<path style="fill:#F30051;" d="M228.359,331.855c7.383,7.381,17.197,11.444,27.637,11.444c10.446,0,20.265-4.068,27.648-11.453   l59.157-59.154c15.242-15.24,15.246-40.038,0.011-55.289L228.359,331.855z"/>
</g>















</svg>
