<?xml version="1.0" encoding="iso-8859-1"?>
<!-- Generator: Adobe Illustrator 21.0.0, SVG Export Plug-In . SVG Version: 6.00 Build 0)  -->
<svg xmlns="http://www.w3.org/2000/svg" xmlns:xlink="http://www.w3.org/1999/xlink" version="1.1" id="Capa_1" x="0px" y="0px" viewBox="0 0 511.7 511.7" style="enable-background:new 0 0 511.7 511.7;" xml:space="preserve" width="512" height="512">
<g>
	<path style="fill:#25D9F8;" d="M450.85,314.9v1.8c0,107.399-87.599,195-195,195s-195-87.601-195-195c0-4.801,0.3-9.3,0.601-13.801   l27.599-7.8c1.5,2.401,2.401,4.801,2.401,7.8c0,16.199,13.799,30,30,30c16.5,0,30-13.5,30-30c0-8.399,6.599-15,15-15   c8.399,0,15,6.601,15,15c0,16.199,13.799,30,30,30c16.5,0,30-13.5,30-30c0-8.101,6.299-14.7,14.399-15c0.3,0,0.3,0,0.601,0   c8.399,0,15,6.601,15,15c0,16.199,13.799,30,30,30c16.5,0,30-13.5,30-30c0-8.399,6.599-15,15-15c8.399,0,15,6.601,15,15   c0,16.199,13.799,30,30,30c14.099,0,26.4-10.199,29.399-24c0.901-3.9,2.999-6.601,5.7-8.699l23.699,14.7H450.85z"/>
	<path style="fill:#00C0F1;" d="M450.85,314.9v1.8c0,107.399-87.599,195-195,195V287.899c0.3,0,0.3,0,0.601,0   c8.399,0,15,6.601,15,15c0,16.199,13.799,30,30,30c16.5,0,30-13.5,30-30c0-8.399,6.599-15,15-15c8.399,0,15,6.601,15,15   c0,16.199,13.799,30,30,30c14.099,0,26.4-10.199,29.399-24c0.901-3.9,2.999-6.601,5.7-8.699l23.699,14.7H450.85z"/>
	<g>
		<path style="fill:#76E2F8;" d="M411.85,199.699L267.851,5.7c-3.001-3.602-7.5-5.7-12.001-5.7s-9,2.098-12.001,5.7l-144,193.999    c-22.2,30-35.4,65.4-38.399,103.2c0,33.001,26.999,60,60,60c17.999,0,33.9-7.8,45-20.4c11.1,12.599,26.999,20.4,45,20.4    c17.699,0,33.3-7.5,44.399-19.799c0.3-0.3,0.3-0.3,0.601-0.601c11.1,12.599,26.999,20.4,45,20.4c17.999,0,33.9-7.8,45-20.4    c11.1,12.599,26.999,20.4,45,20.4c28.2,0,53.099-20.099,58.799-47.999c0.3-1.201,0.3-2.1,0.3-3.301    C449.651,271.099,436.15,232.7,411.85,199.699z"/>
	</g>
	<path style="fill:#25D9F8;" d="M450.55,311.598c0,1.201,0,2.1-0.3,3.301c-5.7,27.9-30.599,47.999-58.799,47.999   c-18.001,0-33.9-7.8-45-20.4c-11.1,12.599-27.001,20.4-45,20.4c-18.001,0-33.9-7.8-45-20.4c-0.3,0.3-0.3,0.3-0.601,0.601V0   c4.501,0,9,2.098,12.001,5.7l144,193.999C436.15,232.7,449.651,271.099,450.55,311.598z"/>
</g>















</svg>
