<svg height="512.00001pt" viewBox="0 0 512.00001 512.00001" width="512.00001pt" xmlns="http://www.w3.org/2000/svg"><path d="m256 106.117188c-4.265625 0-7.726562-3.460938-7.726562-7.726563v-58.214844c0-4.265625 3.460937-7.726562 7.726562-7.726562 4.269531 0 7.726562 3.460937 7.726562 7.726562v58.214844c0 4.265625-3.457031 7.726563-7.726562 7.726563zm0 0" fill="#3d6638"/><path d="m372.96875 146.757812c-1.976562 0-3.953125-.753906-5.460938-2.265624-3.019531-3.015626-3.019531-7.90625 0-10.925782l64.558594-64.558594c3.015625-3.019531 7.90625-3.019531 10.925782 0 3.019531 3.015626 3.019531 7.90625 0 10.925782l-64.558594 64.558594c-1.507813 1.511718-3.488282 2.265624-5.464844 2.265624zm0 0" fill="#3d6638"/><path d="m471.824219 263.726562h-45.851563c-4.269531 0-7.726562-3.460937-7.726562-7.726562s3.457031-7.726562 7.726562-7.726562h45.851563c4.265625 0 7.726562 3.460937 7.726562 7.726562s-3.460937 7.726562-7.726562 7.726562zm0 0" fill="#3d6638"/><path d="m427.105469 434.832031c-1.976563 0-3.953125-.757812-5.464844-2.265625l-21.984375-21.984375c-3.019531-3.015625-3.019531-7.910156 0-10.925781 3.015625-3.019531 7.90625-3.019531 10.925781 0l21.988281 21.984375c3.015626 3.015625 3.015626 7.910156 0 10.925781-1.511718 1.511719-3.488281 2.265625-5.464843 2.265625zm0 0" fill="#3d6638"/><path d="m387.863281 395.589844c-1.976562 0-3.957031-.753906-5.464843-2.261719l-14.457032-14.460937c-3.015625-3.015626-3.015625-7.90625 0-10.925782 3.019532-3.015625 7.910156-3.015625 10.925782 0l14.460937 14.457032c3.015625 3.019531 3.015625 7.910156 0 10.929687-1.511719 1.507813-3.488281 2.261719-5.464844 2.261719zm0 0" fill="#3d6638"/><path d="m256 479.550781c-4.265625 0-7.726562-3.460937-7.726562-7.726562v-58.214844c0-4.265625 3.460937-7.726563 7.726562-7.726563 4.269531 0 7.726562 3.460938 7.726562 7.726563v58.214844c0 4.265625-3.457031 7.726562-7.726562 7.726562zm0 0" fill="#3d6638"/><path d="m103.390625 416.335938c-1.976563 0-3.957031-.753907-5.464844-2.261719-3.015625-3.019531-3.015625-7.910157 0-10.929688l37.039063-37.035156c3.015625-3.019531 7.910156-3.019531 10.925781 0 3.019531 3.015625 3.019531 7.90625 0 10.925781l-37.035156 37.039063c-1.511719 1.507812-3.488281 2.261719-5.464844 2.261719zm0 0" fill="#3d6638"/><path d="m86.027344 263.726562h-45.851563c-4.265625 0-7.726562-3.460937-7.726562-7.726562s3.460937-7.726562 7.726562-7.726562h45.851563c4.269531 0 7.726562 3.460937 7.726562 7.726562s-3.457031 7.726562-7.726562 7.726562zm0 0" fill="#3d6638"/><path d="m140.429688 148.152344c-1.980469 0-3.957032-.753906-5.464844-2.261719l-55.574219-55.574219c-3.015625-3.015625-3.015625-7.90625 0-10.925781 3.019531-3.015625 7.910156-3.015625 10.929687 0l55.570313 55.574219c3.019531 3.015625 3.019531 7.90625 0 10.925781-1.507813 1.507813-3.484375 2.261719-5.460937 2.261719zm0 0" fill="#3d6638"/><path d="m321.933594 112.566406c-9.644532-6.21875-16.933594-19.773437-28.105469-22.3125-11.726563-2.664062-25.296875 8.136719-37.828125 8.136719s-26.101562-10.800781-37.828125-8.136719c-12.105469 2.753906-19.644531 18.4375-30.566406 23.707032-11.101563 5.355468-28.050781 1.53125-37.585938 9.144531-9.582031 7.652343-9.597656 25.046875-17.25 34.628906-7.617187 9.535156-24.585937 13.398437-29.941406 24.5-5.269531 10.921875 2.234375 26.574219-.519531 38.679687-2.664063 11.722657-16.28125 22.554688-16.28125 35.085938s13.617187 23.363281 16.28125 35.089844c2.753906 12.105468-4.75 27.753906.519531 38.675781 5.355469 11.101563 22.324219 14.964844 29.9375 24.503906 7.652344 9.582031 7.671875 26.972657 17.253906 34.625 9.535157 7.613281 26.484375 3.789063 37.585938 9.144531 10.921875 5.269532 18.460937 20.957032 30.566406 23.707032 11.726563 2.664062 25.296875-8.136719 37.828125-8.136719s26.101562 10.800781 37.828125 8.136719c12.105469-2.75 19.644531-18.4375 30.566406-23.707032 11.101563-5.355468 28.050781-1.53125 37.585938-9.144531 9.582031-7.652343 9.597656-25.042969 17.25-34.625 7.617187-9.539062 24.585937-13.402343 29.941406-24.503906 5.269531-10.921875-2.234375-26.574219.519531-38.679687 2.664063-11.722657 16.28125-22.554688 16.28125-35.085938s-13.617187-23.363281-16.28125-35.085938c-2.753906-12.105468 4.75-27.757812-.519531-38.679687-5.355469-11.101563-22.324219-14.964844-29.9375-24.5-7.652344-9.585937-7.671875-26.976563-17.253906-34.628906-3.601563-2.875-8.261719-4.117188-13.265625-4.839844zm0 0" fill="#74c26c"/><path d="m409.691406 291.085938c2.664063-11.722657 16.28125-22.554688 16.28125-35.085938s-13.617187-23.363281-16.28125-35.085938c-2.753906-12.105468 4.75-27.757812-.519531-38.679687-5.355469-11.101563-22.324219-14.964844-29.9375-24.5-7.652344-9.585937-7.671875-26.976563-17.253906-34.628906-3.601563-2.875-8.261719-4.117188-13.265625-4.839844l-21.773438-4.632813c26.890625 29.359376 43.304688 68.472657 43.304688 111.425782 0 91.144531-73.890625 165.035156-165.035156 165.035156-22.140626 0-43.257813-4.371094-62.550782-12.28125 1.761719 4.398438 3.949219 8.359375 7.359375 11.082031 9.535157 7.613281 26.484375 3.789063 37.585938 9.144531 10.921875 5.269532 18.460937 20.957032 30.566406 23.707032 11.726563 2.664062 25.296875-8.136719 37.828125-8.136719s26.101562 10.800781 37.828125 8.136719c12.105469-2.75 19.644531-18.4375 30.566406-23.707032 11.101563-5.355468 28.050781-1.53125 37.585938-9.144531 9.582031-7.652343 9.597656-25.042969 17.25-34.625 7.617187-9.539062 24.585937-13.402343 29.941406-24.503906 5.269531-10.921875-2.230469-26.574219.519531-38.679687zm0 0" fill="#63a65c"/><g fill="#9dcb3b"><path d="m224.066406 173.800781c0 11.09375-8.996094 20.089844-20.089844 20.089844s-20.089843-8.996094-20.089843-20.089844 8.996093-20.089843 20.089843-20.089843 20.089844 8.996093 20.089844 20.089843zm0 0"/><path d="m276.089844 20.089844c0 11.09375-8.996094 20.089844-20.089844 20.089844s-20.089844-8.996094-20.089844-20.089844 8.996094-20.089844 20.089844-20.089844 20.089844 8.996094 20.089844 20.089844zm0 0"/><path d="m354.3125 240.207031c0 11.09375-8.996094 20.089844-20.089844 20.089844s-20.089844-8.996094-20.089844-20.089844 8.996094-20.089843 20.089844-20.089843 20.089844 8.996093 20.089844 20.089843zm0 0"/><path d="m235.660156 316.5625c0 17.496094-14.183594 31.683594-31.683594 31.683594s-31.6875-14.1875-31.6875-31.683594c0-17.5 14.1875-31.6875 31.6875-31.6875s31.683594 14.1875 31.683594 31.6875zm0 0"/><path d="m473.847656 38.148438c-9.648437-9.648438-25.296875-9.648438-34.949218 0-9.648438 9.652343-9.648438 25.300781 0 34.949218 9.652343 9.652344 25.300781 9.652344 34.949218 0 9.652344-9.648437 9.652344-25.296875 0-34.949218zm0 0"/><path d="m512 256c0 11.09375-8.996094 20.089844-20.089844 20.089844s-20.089844-8.996094-20.089844-20.089844 8.996094-20.089844 20.089844-20.089844 20.089844 8.996094 20.089844 20.089844zm0 0"/><path d="m464.246094 427.691406c-10.097656-10.097656-26.464844-10.097656-36.5625 0-10.09375 10.09375-10.09375 26.464844 0 36.558594 10.097656 10.097656 26.464844 10.097656 36.5625 0 10.09375-10.09375 10.09375-26.464844 0-36.558594zm0 0"/><path d="m276.089844 491.910156c0 11.09375-8.996094 20.089844-20.089844 20.089844s-20.089844-8.996094-20.089844-20.089844 8.996094-20.089844 20.089844-20.089844 20.089844 8.996094 20.089844 20.089844zm0 0"/><path d="m103.386719 408.609375c-7.84375-7.847656-20.566407-7.847656-28.410157 0-7.84375 7.84375-7.84375 20.5625 0 28.410156 7.84375 7.84375 20.566407 7.84375 28.410157 0 7.84375-7.847656 7.84375-20.566406 0-28.410156zm0 0"/><path d="m40.179688 256c0 11.09375-8.996094 20.089844-20.089844 20.089844s-20.089844-8.996094-20.089844-20.089844 8.996094-20.089844 20.089844-20.089844 20.089844 8.996094 20.089844 20.089844zm0 0"/><path d="m84.679688 47.183594c-10.355469-10.355469-27.144532-10.355469-37.496094 0-10.355469 10.355468-10.355469 27.140625 0 37.496094 10.351562 10.355468 27.140625 10.355468 37.496094 0 10.351562-10.355469 10.351562-27.140626 0-37.496094zm0 0"/></g></svg>