<?xml version="1.0" encoding="iso-8859-1"?>
<!-- Generator: Adobe Illustrator 19.0.0, SVG Export Plug-In . SVG Version: 6.00 Build 0)  -->
<svg xmlns="http://www.w3.org/2000/svg" xmlns:xlink="http://www.w3.org/1999/xlink" version="1.1" id="Capa_1" x="0px" y="0px" viewBox="0 0 512 512" style="enable-background:new 0 0 512 512;" xml:space="preserve" width="512" height="512">
<g>
	<path style="fill:#ECEAEC;" d="M322.065,0H189.935c-4.561,0-8.258,3.697-8.258,8.258v123.871h148.645V8.258   C330.323,3.697,326.626,0,322.065,0z"/>
	<path style="fill:#DAD8DB;" d="M198.194,82.581V0h-8.258c-4.561,0-8.258,3.697-8.258,8.258v123.871h148.645v-24.774H222.968   C209.285,107.355,198.194,96.263,198.194,82.581z"/>
	<path style="fill:#C8C5C9;" d="M338.581,123.871H173.419c-9.121,0-16.516,7.394-16.516,16.516v272.516   C156.903,467.633,201.27,512,256,512s99.097-44.367,99.097-99.097V140.387C355.097,131.265,347.702,123.871,338.581,123.871z    M256,478.968c-36.486,0-66.065-29.578-66.065-66.065s29.578-66.065,66.065-66.065s66.065,29.578,66.065,66.065   S292.486,478.968,256,478.968z"/>
	<path style="fill:#B6B1B7;" d="M173.419,409.616V123.871c-9.121,0-16.516,7.394-16.516,16.516v272.516   C156.903,467.633,201.27,512,256,512c2.938,0,6.072-0.153,8.945-0.404C213.29,507.427,173.419,462.164,173.419,409.616z"/>
	<path style="fill:#ADA7AE;" d="M289.032,180.262c-4.565,0-8.258,3.698-8.258,8.258v2.831c0,6.617-2.581,12.839-7.258,17.52   l-9.258,9.261v-52.97c0-4.56-3.694-8.258-8.258-8.258s-8.258,3.698-8.258,8.258v70.905l-9.258-9.264   c-4.613-4.613-7.258-10.996-7.258-17.516v-2.835c0-4.56-3.694-8.258-8.258-8.258s-8.258,3.698-8.258,8.258v2.835   c0,11.024,4.298,21.395,12.097,29.194l13.677,13.685c4.613,4.613,7.258,10.996,7.258,17.516v13.384   c-4.916,2.861-8.258,8.127-8.258,14.225c0,9.121,7.395,16.516,16.516,16.516c9.121,0,16.516-7.395,16.516-16.516   c0-6.098-3.342-11.364-8.258-14.225V251.75c0-6.613,2.581-12.835,7.258-17.52l13.677-13.681   c7.798-7.798,12.097-18.169,12.097-29.198v-2.831C297.29,183.96,293.597,180.262,289.032,180.262z"/>
	<circle style="fill:#9B959D;" cx="222.968" cy="206.452" r="8.258"/>
	<circle style="fill:#9B959D;" cx="289.032" cy="188.52" r="8.258"/>
	<circle style="fill:#9B959D;" cx="256" cy="165.161" r="8.258"/>
	<path style="fill:#C8C5C9;" d="M231.226,57.806H214.71c-4.561,0-8.258-3.697-8.258-8.258V41.29c0-4.561,3.697-8.258,8.258-8.258   h16.516c4.561,0,8.258,3.697,8.258,8.258v8.258C239.484,54.109,235.787,57.806,231.226,57.806z"/>
	<path style="fill:#C8C5C9;" d="M297.29,57.806h-16.516c-4.561,0-8.258-3.697-8.258-8.258V41.29c0-4.561,3.697-8.258,8.258-8.258   h16.516c4.561,0,8.258,3.697,8.258,8.258v8.258C305.548,54.109,301.851,57.806,297.29,57.806z"/>
</g>















</svg>
