<?xml version="1.0" encoding="iso-8859-1"?>
<!-- Generator: Adobe Illustrator 19.0.0, SVG Export Plug-In . SVG Version: 6.00 Build 0)  -->
<svg xmlns="http://www.w3.org/2000/svg" xmlns:xlink="http://www.w3.org/1999/xlink" version="1.1" id="Layer_1" x="0px" y="0px" viewBox="0 0 497 497" style="enable-background:new 0 0 497 497;" xml:space="preserve" width="512" height="512">
<g>
	<g>
		<path style="fill:#59C2E8;" d="M213.513,495.395c-3.572,0-7.166-0.328-10.744-0.993C85.277,472.533,0,369.792,0,250.105    c0-65.744,25.426-127.723,71.595-174.519C117.717,28.837,179.253,2.573,244.869,1.631c33.649-0.489,66.493,5.796,97.588,18.665    C434.125,58.233,497,150.728,497,250.105c0,85.11-45.174,166.202-117.387,211.133c-11.134,6.925-25.775,3.516-32.702-7.616    c-6.927-11.134-3.517-25.774,7.616-32.702c58.484-36.393,94.989-101.926,94.989-170.814c0-110.033-94.112-202.547-203.966-200.996    c-53.07,0.762-102.844,22.008-140.153,59.825c-37.346,37.853-57.913,87.988-57.913,141.17c0,96.821,68.962,179.93,163.976,197.615    c6.935,1.292,13.298-4.405,13.298-11.309V318.693c0-13.113,10.63-23.742,23.742-23.742c13.113,0,23.742,10.629,23.742,23.742    c0,0,0,117.679,0,117.718C272.242,468.372,245.555,495.395,213.513,495.395z"/>
	</g>
	<path style="fill:#0097D1;" d="M248.5,294.951c-13.112,0-23.742,10.629-23.742,23.742v69.805   c7.671,1.575,15.612,2.403,23.742,2.403c8.13,0,16.071-0.828,23.742-2.403c0-32.583,0-69.805,0-69.805   C272.242,305.58,261.613,294.951,248.5,294.951z"/>
	<path style="fill:#F9EE80;" d="M160.652,201.566v71.488c0,48.517,39.331,87.848,87.848,87.848h0   c48.517,0,87.848-39.331,87.848-87.848v-71.488H160.652z"/>
	<path style="fill:#FFCA5E;" d="M298.491,92.352c11,0,19.918,8.918,19.918,19.918v84.019h-39.836V112.27   C278.573,101.27,287.491,92.352,298.491,92.352z"/>
	<rect x="278.573" y="145.186" style="fill:#FBA557;" width="39.836" height="51.104"/>
	<path style="fill:#FFCA5E;" d="M198.509,92.352c-11,0-19.918,8.918-19.918,19.918v84.019h39.836V112.27   C218.427,101.27,209.509,92.352,198.509,92.352z"/>
	<rect x="178.591" y="145.186" style="fill:#FBA557;" width="39.836" height="51.104"/>
	<polygon style="fill:#FFCA5E;" points="160.652,257.946 160.653,257.946 336.347,257.946 336.348,257.946 336.348,201.566    160.652,201.566  "/>
	<path style="fill:#59C2E8;" d="M336.348,175.186H160.652c-9.178,0-16.617,7.44-16.617,16.617v19.525   c0,9.177,7.44,16.617,16.617,16.617h175.695c9.177,0,16.617-7.44,16.617-16.617v-19.525   C352.965,182.626,345.525,175.186,336.348,175.186z"/>
	<g>
		<g>
			<path style="fill:#334151;" d="M197.988,286.836c-4.142,0-7.5-3.358-7.5-7.5v-9.142c0-4.142,3.358-7.5,7.5-7.5s7.5,3.358,7.5,7.5     v9.142C205.488,283.478,202.13,286.836,197.988,286.836z"/>
		</g>
		<g>
			<path style="fill:#334151;" d="M299.012,286.836c-4.142,0-7.5-3.358-7.5-7.5v-9.142c0-4.142,3.358-7.5,7.5-7.5s7.5,3.358,7.5,7.5     v9.142C306.512,283.478,303.154,286.836,299.012,286.836z"/>
		</g>
		<g>
			<path style="fill:#334151;" d="M248.5,291.716c-7.023,0-13.625-2.945-18.114-8.08c-2.726-3.118-2.408-7.856,0.71-10.583     c3.118-2.726,7.856-2.408,10.583,0.71c1.64,1.876,4.126,2.952,6.821,2.952s5.18-1.076,6.82-2.951     c2.727-3.12,7.465-3.437,10.583-0.711c3.119,2.726,3.438,7.464,0.711,10.583C262.126,288.771,255.524,291.716,248.5,291.716z"/>
		</g>
	</g>
</g>















</svg>
