<?xml version="1.0" encoding="iso-8859-1"?>
<!-- Generator: Adobe Illustrator 19.0.0, SVG Export Plug-In . SVG Version: 6.00 Build 0)  -->
<svg xmlns="http://www.w3.org/2000/svg" xmlns:xlink="http://www.w3.org/1999/xlink" version="1.1" id="Layer_1" x="0px" y="0px" viewBox="0 0 497 497" style="enable-background:new 0 0 497 497;" xml:space="preserve" width="512" height="512">
<g>
	<path style="fill:#FF6E80;" d="M107.161,33.827H55.779c-9.244,0-16.737,7.494-16.737,16.737v62.296h84.856V50.565   C123.898,41.321,116.404,33.827,107.161,33.827z"/>
	<path style="fill:#E3244C;" d="M85.779,33.827h-30c-9.244,0-16.737,7.494-16.737,16.737v62.296h30V50.564   C69.042,41.321,76.535,33.827,85.779,33.827z"/>
	<path style="fill:#59C2E8;" d="M389.839,33.827h51.381c9.244,0,16.737,7.494,16.737,16.737v62.296h-84.856V50.565   C373.102,41.321,380.596,33.827,389.839,33.827z"/>
	<path style="fill:#0097D1;" d="M419.839,33.827h-30c-9.244,0-16.737,7.494-16.737,16.737v62.296h30V50.564   C403.102,41.321,410.596,33.827,419.839,33.827z"/>
	<path style="fill:#485C70;" d="M17.923,124.768v311.855c0,14.663,11.886,26.549,26.549,26.549h408.057   c14.663,0,26.549-11.886,26.549-26.549V124.768H17.923z"/>
	<path style="fill:#334151;" d="M57.923,436.624V124.769h-40v311.855c0,14.663,11.886,26.549,26.549,26.549h40   C69.809,463.173,57.923,451.287,57.923,436.624z"/>
	<path style="fill:#60DAA8;" d="M479.077,72.5H17.923C8.024,72.5,0,80.524,0,90.422v53.558c0,9.898,8.024,17.923,17.923,17.923   h461.155c9.898,0,17.923-8.024,17.923-17.923V90.422C497,80.524,488.976,72.5,479.077,72.5z"/>
	<path style="fill:#00C5A3;" d="M40,143.98V90.422c0-9.898,8.024-17.923,17.923-17.923h-40C8.024,72.499,0,80.524,0,90.422v53.558   c0,9.898,8.024,17.923,17.923,17.923h40C48.024,161.903,40,153.879,40,143.98z"/>
	<g>
		<g>
			<path style="fill:#334151;" d="M158.625,128.493c-4.142,0-7.5-3.358-7.5-7.5v-16.266c0-4.142,3.358-7.5,7.5-7.5     s7.5,3.358,7.5,7.5v16.266C166.125,125.135,162.767,128.493,158.625,128.493z"/>
		</g>
		<g>
			<path style="fill:#334151;" d="M338.375,128.493c-4.142,0-7.5-3.358-7.5-7.5v-16.266c0-4.142,3.358-7.5,7.5-7.5     s7.5,3.358,7.5,7.5v16.266C345.875,125.135,342.517,128.493,338.375,128.493z"/>
		</g>
		<g>
			<path style="fill:#334151;" d="M248.5,137.176c-10.81,0-20.953-4.512-27.829-12.379c-2.726-3.119-2.408-7.857,0.711-10.583     c3.118-2.725,7.856-2.408,10.583,0.711c4.027,4.608,10.054,7.25,16.535,7.25s12.508-2.643,16.536-7.25     c2.725-3.119,7.464-3.437,10.583-0.711c3.119,2.726,3.437,7.464,0.71,10.583C269.452,132.664,259.309,137.176,248.5,137.176z"/>
		</g>
	</g>
	<g>
		<circle style="fill:#60DAA8;" cx="248.5" cy="320.019" r="24"/>
		<path style="fill:#60DAA8;" d="M292.576,207.227c-13.658-5.344-28.527-8.276-44.076-8.276s-30.417,2.932-44.076,8.276    c-8.324,3.257-12.437,12.641-9.163,20.958l17.761,45.113c9.845-7.499,22.144-11.947,35.478-11.947    c13.333,0,25.632,4.448,35.478,11.947l17.761-45.113C305.013,219.869,300.9,210.484,292.576,207.227z"/>
		<path style="fill:#60DAA8;" d="M196.054,346.312c-5.976-11.92-7.511-24.908-5.22-37.07l-48.289,4.341    c-8.902,0.8-15.448,8.683-14.629,17.584c1.344,14.605,5.386,29.21,12.354,43.111c6.968,13.9,16.253,25.877,27.152,35.692    c6.642,5.982,16.875,5.453,22.842-1.202l32.369-36.095C211.518,367.233,202.03,358.231,196.054,346.312z"/>
		<path style="fill:#60DAA8;" d="M354.454,313.583l-48.289-4.341c2.291,12.162,0.756,25.15-5.22,37.07    c-5.976,11.919-15.464,20.921-26.58,26.361l32.369,36.095c5.968,6.654,16.2,7.183,22.842,1.202    c10.898-9.815,20.183-21.792,27.152-35.692c6.968-13.9,11.01-28.506,12.354-43.111    C369.903,322.266,363.357,314.384,354.454,313.583z"/>
	</g>
</g>















</svg>
