<svg height="512pt" viewBox="-61 0 512 512" width="512pt" xmlns="http://www.w3.org/2000/svg"><path d="m345.941406 262.832031h-56.394531v-111.589843c0-52.300782-42.546875-94.847657-94.847656-94.847657-52.296875 0-94.84375 42.546875-94.84375 94.847657v111.589843h-56.394531v-111.589843c0-83.394532 67.84375-151.242188 151.238281-151.242188 83.398437 0 151.242187 67.847656 151.242187 151.242188zm0 0" fill="#ebebeb"/><path d="m99.855469 191.472656c-19.398438 4.5-38.109375 10.519532-56.394531 18.128906v53.230469h56.394531zm0 0" fill="#d5d4da"/><path d="m345.941406 209.601562c-18.285156-7.609374-36.996094-13.628906-56.394531-18.128906v71.359375h56.394531zm0 0" fill="#d5d4da"/><path d="m365.890625 253.335938c-47.136719-25.503907-100.800781-41.171876-171.191406-41.171876-70.386719 0-124.050781 15.667969-171.1875 41.171876-14.453125 7.820312-23.511719 22.867187-23.511719 39.300781v164.765625c0 30.152344 24.445312 54.597656 54.597656 54.597656h280.207032c30.15625 0 54.597656-24.445312 54.597656-54.597656v-164.765625c0-16.433594-9.058594-31.480469-23.511719-39.300781zm0 0" fill="#fab659"/><path d="m85.503906 512c-30.15625 0-54.597656-24.445312-54.597656-54.597656v-207.949219c-2.484375 1.269531-4.949219 2.558594-7.394531 3.882813-14.453125 7.820312-23.511719 22.867187-23.511719 39.300781v164.765625c0 30.152344 24.445312 54.597656 54.597656 54.597656zm0 0" fill="#ff9c20"/><g fill="#4b5562"><path d="m235.542969 368.992188c0-23.546876-19.925781-42.4375-43.835938-40.734376-20.140625 1.433594-36.398437 17.757813-37.753906 37.90625-1.078125 15.957032 7.023437 30.121094 19.542969 37.742188l-5.082032 51.90625c-.476562 4.851562 3.335938 9.050781 8.210938 9.050781h36.152344c4.875 0 8.683594-4.199219 8.210937-9.050781l-5.082031-51.90625c11.773438-7.164062 19.636719-20.121094 19.636719-34.914062zm0 0"/><path d="m120.699219 297.972656c-4.265625 0-7.722657-3.460937-7.722657-7.726562v-13.390625c0-4.269531 3.457032-7.726563 7.722657-7.726563 4.269531 0 7.726562 3.457032 7.726562 7.726563v13.390625c0 4.265625-3.457031 7.726562-7.726562 7.726562zm0 0"/><path d="m268.699219 297.972656c-4.265625 0-7.722657-3.460937-7.722657-7.726562v-13.390625c0-4.269531 3.457032-7.726563 7.722657-7.726563 4.269531 0 7.726562 3.457032 7.726562 7.726563v13.390625c0 4.265625-3.457031 7.726562-7.726562 7.726562zm0 0"/><path d="m194.699219 305.121094c-9.347657 0-18.125-3.90625-24.078125-10.722656-2.808594-3.210938-2.480469-8.09375.730468-10.902344 3.214844-2.808594 8.09375-2.480469 10.902344.734375 3.023438 3.453125 7.558594 5.4375 12.445313 5.4375 4.890625 0 9.429687-1.984375 12.449219-5.4375 2.808593-3.214844 7.691406-3.542969 10.902343-.734375 3.210938 2.808594 3.542969 7.691406.734375 10.902344-5.957031 6.8125-14.734375 10.722656-24.085937 10.722656zm0 0"/></g></svg>