<svg height="512pt" viewBox="-30 0 512 512" width="512pt" xmlns="http://www.w3.org/2000/svg"><path d="m17.65625 176.621094c-9.75 0-17.65625 7.90625-17.65625 17.65625v20.359375c0 9.75 7.90625 17.652343 17.65625 17.652343h70.3125v-55.664062h-70.3125zm0 0" fill="#76e6d5"/><path d="m433.867188 176.621094c9.75 0 17.65625 7.90625 17.65625 17.65625v20.359375c0 9.75-7.90625 17.652343-17.65625 17.652343h-70.3125v-55.664062h70.3125zm0 0" fill="#76e6d5"/><path d="m225.761719 108.214844-172.804688 34.21875 25.640625 336.769531c1.410156 18.503906 16.832032 32.796875 35.390625 32.796875h223.546875c18.558594 0 33.980469-14.292969 35.390625-32.796875l25.640625-336.769531zm0 0" fill="#00ccac"/><path d="m294.578125 20.347656c-3.949219-12.132812-15.257813-20.347656-28.019531-20.347656h-81.597656c-12.757813 0-24.070313 8.214844-28.019532 20.347656l-9.871094 30.335938 78.691407 23.539062 78.691406-23.539062zm0 0" fill="#00ccac"/><path d="m231.691406 221.832031-14.777344-23.722656h-20.8125c-9.535156-.003906-18.371093 5-23.273437 13.175781l-9.871094 16.042969c-2.171875 3.53125-1.109375 8.152344 2.390625 10.378906l35.804688 22.785157c3.691406 2.351562 8.605468 1.097656 10.71875-2.738282zm0 0" fill="#d5d4da"/><path d="m309.601562 240.867188-17.121093-29.414063c-4.355469-8.234375-12.921875-13.375-22.238281-13.34375h-53.328126l39.984376 75.617187-22.242188 13.34375 63.339844 7.207032c1.710937.195312 3.359375-.710938 4.109375-2.261719l30.40625-62.769531zm0 0" fill="#ebebeb"/><path d="m329.972656 295.59375-39.96875 23.316406c-3.566406 2.082032-4.816406 6.632813-2.808594 10.242188l18.628907 33.535156 14.671875 12.546875 20.914062-12.546875 9.296875-15.011719c5.160157-8.359375 5.402344-18.855469.628907-27.441406l-10.753907-21.480469c-1.960937-3.917968-6.824219-5.367187-10.609375-3.160156zm0 0" fill="#d5d4da"/><path d="m252.449219 362.6875v-22.242188l-42.199219 46.417969c-1.320312 1.453125-1.410156 3.644531-.210938 5.203125l42.410157 55.132813v-17.792969h35.585937c9.371094.230469 18.03125-4.96875 22.238282-13.34375l31.136718-53.375zm0 0" fill="#ebebeb"/><path d="m141.246094 367.136719-10.832032 24.960937 13.539063 23.445313c5.019531 8.5 14.113281 13.757812 23.980469 13.867187h10.203125c4.191406 0 7.589843-3.398437 7.589843-7.589844v-47.09375c0-4.191406-3.398437-7.589843-7.589843-7.589843zm0 0" fill="#d5d4da"/><path d="m194.625 327.101562-25.527344-55.300781c-.699218-1.519531-2.265625-2.453125-3.933594-2.351562l-68.398437 4.277343 25.4375 15.773438-16.542969 33.15625c-4.601562 8.300781-4.601562 18.386719 0 26.6875l24.75 42.753906 9.261719-16.066406 33.058594-57.378906zm0 0" fill="#ebebeb"/><path d="m52.957031 142.433594 2.355469 30.902344h340.898438l2.355468-30.902344-172.804687-34.21875zm0 0" fill="#00ad8d"/><path d="m419.757812 110.667969-13.304687-32.003907c-7.039063-16.941406-23.582031-27.980468-41.929687-27.980468h-277.527344c-18.34375 0-34.886719 11.039062-41.929688 27.980468l-13.304687 32.003907c-6.285157 15.117187 4.824219 31.765625 21.195312 31.765625h345.605469c16.375 0 27.480469-16.652344 21.195312-31.765625zm0 0" fill="#76e6d5"/><g fill="#334151"><path d="m141.773438 107.828125c-4.269532 0-7.726563-3.460937-7.726563-7.726563v-15.199218c0-4.269532 3.457031-7.726563 7.726563-7.726563 4.265624 0 7.726562 3.457031 7.726562 7.726563v15.199218c0 4.265626-3.460938 7.726563-7.726562 7.726563zm0 0"/><path d="m309.75 107.828125c-4.265625 0-7.726562-3.460937-7.726562-7.726563v-15.199218c0-4.269532 3.460937-7.726563 7.726562-7.726563 4.269531 0 7.726562 3.457031 7.726562 7.726563v15.199218c0 4.265626-3.457031 7.726563-7.726562 7.726563zm0 0"/><path d="m225.761719 115.941406c-10.308594 0-19.984375-4.304687-26.546875-11.8125-2.808594-3.214844-2.480469-8.09375.730468-10.902344 3.214844-2.808593 8.09375-2.480468 10.902344.730469 3.628906 4.152344 9.0625 6.53125 14.914063 6.53125 5.851562 0 11.285156-2.378906 14.914062-6.53125 2.804688-3.210937 7.6875-3.539062 10.902344-.730469 3.210937 2.808594 3.539063 7.691407.730469 10.902344-6.5625 7.507813-16.238282 11.8125-26.546875 11.8125zm0 0"/></g></svg>