<svg height="512pt" viewBox="0 -8 512 512" width="512pt" xmlns="http://www.w3.org/2000/svg" xmlns:xlink="http://www.w3.org/1999/xlink"><linearGradient id="a" gradientUnits="userSpaceOnUse" x1="63.1037" x2="123.745" y1="239.9335" y2="239.9335"><stop offset="0" stop-color="#fff"/><stop offset="1"/></linearGradient><path d="m436.289062 486.058594h-360.578124c-36.238282 0-65.617188-29.378906-65.617188-65.617188v-344.730468c0-36.238282 29.378906-65.617188 65.617188-65.617188h360.578124c36.238282 0 65.617188 29.378906 65.617188 65.617188v344.730468c0 36.242188-29.378906 65.617188-65.617188 65.617188zm0 0" fill="#b5bcc9"/><path d="m133.152344 159.070312c-38.546875 0-69.796875 31.25-69.796875 69.796876 0 36.449218 27.945312 66.355468 63.578125 69.503906v187.6875h76.015625v-257.191406c0-38.546876-31.25-69.796876-69.796875-69.796876zm0 0" fill="#f9f9f9"/><path d="m378.847656 159.070312c38.546875 0 69.796875 31.25 69.796875 69.796876 0 36.449218-27.945312 66.355468-63.578125 69.503906v187.6875h-76.015625v-257.191406c0-38.546876 31.25-69.796876 69.796875-69.796876zm0 0" fill="#f9f9f9"/><g fill="#79b2ff"><path d="m256.859375 139.003906c-10.753906.457032-20.441406-7.582031-20.441406-18.722656v-110.1875h39.164062v110.1875c0 10.339844-8.382812 18.722656-18.722656 18.722656zm0 0"/><path d="m98.878873 265.382712h-10.90829c-14.43346 0-25.032186-12.537375-24.335665-26.5684 0-13.438983 10.896682-24.331795 24.335665-24.331795h10.90829c14.43346 0 25.032185 12.541245 24.331795 26.568401 0 13.438982-10.892812 24.331794-24.331795 24.331794zm0 0" stroke="url(#a)" stroke-miterlimit="10" transform="matrix(1.009482 0 0 1.009482 0 -7.922412)"/><path d="m423.023438 259.976562h-11.011719c-14.570313 0-25.269531-12.65625-24.566407-26.820312 0-13.566406 11-24.5625 24.566407-24.5625h11.011719c14.570312 0 25.269531 12.660156 24.5625 26.820312 0 13.566407-10.996094 24.5625-24.5625 24.5625zm0 0"/></g><path d="m75.710938 0c-41.746094 0-75.710938 33.964844-75.710938 75.710938v344.730468c0 41.75 33.964844 75.710938 75.710938 75.710938h360.578124c41.746094 0 75.710938-33.960938 75.710938-75.710938v-344.730468c0-41.746094-33.964844-75.710938-75.710938-75.710938zm189.777343 20.191406v100.089844c0 4.757812-3.871093 8.628906-8.628906 8.628906-5.183594.519532-10.347656-3.054687-10.347656-8.628906v-100.089844zm-128.460937 455.773438v-177.59375c0-5.230469-3.996094-9.59375-9.207032-10.054688-14.425781-1.273437-27.8125-7.75-37.835937-18.242187h9.832031c19.113282 0 34.660156-15.546875 34.660156-34.660157.527344-19.652343-14.503906-36.914062-34.660156-36.914062h-11.011718c-2.574219 0-5.082032.289062-7.496094.824219 10.292968-17.996094 29.667968-30.160157 51.847656-30.160157 32.917969 0 59.699219 26.785157 59.699219 59.703126v247.097656zm-48.222656-226.082032c-9.070313 0-15.160157-8.082031-14.46875-16.726562 0-7.976562 6.488281-14.46875 14.46875-14.46875h11.011718c9.070313 0 15.15625 8.085938 14.46875 16.726562 0 7.980469-6.492187 14.46875-14.46875 14.46875zm267.476562 226.082032v-78.019532c0-12.964843-20.191406-12.984374-20.191406 0v78.019532h-16.945313v-247.097656c0-32.917969 26.78125-59.703126 59.703125-59.703126 22.195313 0 41.585938 12.183594 51.871094 30.207032-2.476562-.566406-5.050781-.871094-7.695312-.871094h-11.011719c-20.15625 0-35.199219 17.277344-34.660157 36.914062 0 19.113282 15.546876 34.660157 34.660157 34.660157h10.003906c-10.023437 10.492187-23.410156 16.96875-37.835937 18.242187-5.210938.460938-9.207032 4.824219-9.207032 10.054688v177.59375zm81.210938-242.808594c.6875 8.644531-5.398438 16.726562-14.46875 16.726562h-11.011719c-9.070313 0-15.160157-8.082031-14.472657-16.726562 0-7.976562 6.492188-14.46875 14.472657-14.46875h11.011719c7.980468 0 14.46875 6.492188 14.46875 14.46875zm54.316406 187.289062c0 30.613282-24.90625 55.519532-55.519532 55.519532h-41.125v-168.894532c16.25-3.371093 31.085938-11.75 42.480469-24.125 13.601563-14.777343 21.09375-33.980468 21.09375-54.078124 0-44.050782-35.839843-79.890626-79.890625-79.890626-44.054687 0-79.894531 35.839844-79.894531 79.890626v247.097656h-85.910156v-247.097656c0-44.050782-35.835938-79.890626-79.890625-79.890626-44.050782 0-79.890625 35.835938-79.890625 79.890626 0 20.097656 7.492187 39.300781 21.09375 54.078124 11.394531 12.375 26.230469 20.753907 42.480469 24.125v168.894532h-41.125c-30.613282 0-55.519532-24.90625-55.519532-55.523438v-344.730468c0-30.613282 24.90625-55.519532 55.519532-55.519532h150.613281v100.089844c0 16.578125 14.230469 29.417969 30.535156 28.816406 15.890625 0 28.816406-12.925781 28.816406-28.816406v-100.089844h150.613281c30.613282 0 55.519532 24.90625 55.519532 55.519532zm0 0"/><path d="m448.636719 54.953125c-5.394531 0-10.003907 4.527344-10.074219 9.921875-.074219 5.601562 4.515625 10.226562 10.105469 10.234375 5.570312.007813 10.171875-4.726563 10.058593-10.296875-.109374-5.367188-4.726562-9.859375-10.089843-9.859375zm0 0"/><path d="m346.1875 347.28125c-5.398438 0-10.007812 4.523438-10.078125 9.921875-.070313 5.601563 4.515625 10.230469 10.101563 10.234375 5.570312.007812 10.179687-4.730469 10.0625-10.300781-.109376-5.359375-4.734376-9.855469-10.085938-9.855469zm0 0"/><path d="m63.1875 54.953125c-5.402344 0-10.007812 4.515625-10.078125 9.921875-.074219 5.605469 4.503906 10.226562 10.097656 10.234375 5.566407.007813 10.183594-4.730469 10.066407-10.296875-.109376-5.359375-4.730469-9.859375-10.085938-9.859375zm0 0"/></svg>