<?xml version="1.0" encoding="iso-8859-1"?>
<!-- Generator: Adobe Illustrator 19.0.0, SVG Export Plug-In . SVG Version: 6.00 Build 0)  -->
<svg xmlns="http://www.w3.org/2000/svg" xmlns:xlink="http://www.w3.org/1999/xlink" version="1.1" id="Layer_1" x="0px" y="0px" viewBox="0 0 494.011 494.011" style="enable-background:new 0 0 494.011 494.011;" xml:space="preserve" width="512" height="512">
<g>
	<path style="fill:#2682FF;" d="M483.898,202.442l-31.39-2.995c-4.613-0.452-8.434-3.711-9.7-8.17   c-4.327-15.238-10.383-29.749-17.946-43.314c-2.257-4.052-1.861-9.061,1.09-12.64l20.082-24.332   c3.655-4.437,3.347-10.933-0.727-15.007L398.02,48.698c-4.074-4.063-10.57-4.371-15.007-0.716l-24.332,20.082   c-3.578,2.951-8.588,3.347-12.64,1.09c-13.553-7.564-28.065-13.619-43.303-17.946c-4.459-1.266-7.718-5.087-8.169-9.7   l-3.006-31.411C291.013,4.371,286.19,0,280.443,0h-66.875c-5.747,0-10.57,4.371-11.12,10.096l-3.006,31.411   c-0.451,4.613-3.71,8.434-8.169,9.7c-15.238,4.327-29.749,10.383-43.303,17.946c-4.052,2.257-9.061,1.861-12.64-1.09   l-24.332-20.082c-4.437-3.655-10.933-3.347-15.007,0.716L48.703,95.986c-4.074,4.074-4.382,10.57-0.727,15.007l20.082,24.332   c2.951,3.578,3.347,8.588,1.09,12.64c-7.564,13.564-13.619,28.076-17.946,43.314c-1.266,4.459-5.087,7.718-9.7,8.17l-31.39,2.995   c-5.736,0.551-10.107,5.373-10.107,11.131v66.864c0,5.759,4.371,10.581,10.107,11.12l31.39,3.006c4.613,0.451,8.434,3.71,9.7,8.169   c4.327,15.238,10.383,29.738,17.946,43.303c2.268,4.052,1.872,9.061-1.09,12.651l-20.071,24.321   c-3.666,4.437-3.358,10.933,0.716,15.007l47.288,47.288c4.074,4.074,10.57,4.382,15.007,0.727l24.332-20.082   c3.578-2.951,8.588-3.347,12.64-1.09c13.553,7.564,28.065,13.619,43.303,17.946c4.459,1.266,7.718,5.087,8.169,9.7l3.006,31.412   c0.551,5.725,5.373,10.096,11.12,10.096h66.875c5.747,0,10.57-4.371,11.12-10.096l3.006-31.412c0.451-4.613,3.71-8.434,8.169-9.7   c15.238-4.327,29.749-10.382,43.303-17.946c4.052-2.257,9.061-1.861,12.64,1.09l24.332,20.082   c4.437,3.655,10.933,3.347,15.007-0.727l47.288-47.288c4.074-4.074,4.382-10.57,0.716-15.007l-20.071-24.321   c-2.962-3.589-3.358-8.599-1.09-12.651c7.564-13.564,13.619-28.065,17.946-43.303c1.266-4.459,5.087-7.718,9.7-8.169l31.39-3.006   c5.736-0.539,10.107-5.362,10.107-11.12v-66.864C494.006,207.815,489.635,202.993,483.898,202.442z M247.006,376.093   c-71.29,0-129.082-57.792-129.082-129.082s57.792-129.082,129.082-129.082s129.082,57.792,129.082,129.082   S318.296,376.093,247.006,376.093z"/>
	<path style="fill:#046EFF;" d="M494.006,213.573v66.864c0,5.759-4.371,10.581-10.107,11.12l-31.39,3.006   c-4.613,0.451-8.434,3.71-9.7,8.169c-4.327,15.238-10.383,29.738-17.946,43.303c-2.268,4.052-1.872,9.061,1.09,12.651   l20.071,24.321c3.666,4.437,3.358,10.933-0.716,15.007l-47.288,47.288c-4.074,4.074-10.57,4.382-15.007,0.727l-24.332-20.082   c-3.578-2.951-8.588-3.347-12.64-1.09c-13.553,7.564-28.065,13.619-43.303,17.946c-4.459,1.266-7.718,5.087-8.169,9.7   l-3.006,31.412c-0.551,5.725-5.373,10.096-11.12,10.096h-33.438V376.093c71.29,0,129.082-57.792,129.082-129.082   s-57.792-129.082-129.082-129.082V0h33.438c5.747,0,10.57,4.371,11.12,10.096l3.006,31.411c0.451,4.613,3.71,8.434,8.169,9.7   c15.238,4.327,29.749,10.383,43.303,17.946c4.052,2.257,9.061,1.861,12.64-1.09l24.332-20.082   c4.437-3.655,10.933-3.347,15.007,0.716l47.288,47.288c4.074,4.074,4.382,10.57,0.727,15.007l-20.082,24.332   c-2.951,3.578-3.347,8.588-1.09,12.64c7.564,13.564,13.619,28.076,17.946,43.314c1.266,4.459,5.087,7.718,9.7,8.17l31.39,2.995   C489.635,202.993,494.006,207.815,494.006,213.573z"/>
	<path style="fill:#6AA9FF;" d="M261.096,247.006c13.728,3.871,23.789,16.478,23.789,31.44v43.086h-75.76v-43.086   c0-14.962,10.061-27.57,23.789-31.44c-13.728-3.871-23.789-16.478-23.789-31.44V172.48h75.76v43.086   C284.885,230.527,274.824,243.135,261.096,247.006z"/>
	<path style="fill:#4895FF;" d="M261.096,247.006c13.728,3.871,23.789,16.478,23.789,31.44v43.086h-37.88V172.48h37.88v43.086   C284.885,230.527,274.824,243.135,261.096,247.006z"/>
	<path style="fill:#FF6379;" d="M315.771,177.482c0,9.371-7.605,16.976-16.976,16.976H195.216c-9.371,0-16.976-7.605-16.976-16.976   c0-9.382,7.605-16.988,16.976-16.976h103.578C308.166,160.506,315.771,168.1,315.771,177.482z"/>
	<path style="fill:#FF415B;" d="M298.795,194.458h-51.789v-33.953h51.789c9.371,0,16.976,7.594,16.976,16.976   C315.771,186.853,308.166,194.458,298.795,194.458z"/>
	<path style="fill:#FF6379;" d="M315.771,316.529c0,9.382-7.605,16.976-16.976,16.976H195.216c-9.371,0-16.976-7.594-16.976-16.976   c0-9.371,7.605-16.976,16.976-16.976h103.578C308.166,299.553,315.771,307.158,315.771,316.529z"/>
	<path style="fill:#FF415B;" d="M315.771,316.529c0,9.382-7.605,16.976-16.976,16.976h-51.789v-33.953h51.789   C308.166,299.553,315.771,307.158,315.771,316.529z"/>
</g>















</svg>
