<?xml version="1.0" encoding="iso-8859-1"?>
<!-- Generator: Adobe Illustrator 19.0.0, SVG Export Plug-In . SVG Version: 6.00 Build 0)  -->
<svg version="1.1" id="Layer_1" xmlns="http://www.w3.org/2000/svg" xmlns:xlink="http://www.w3.org/1999/xlink" x="0px" y="0px"
	 viewBox="0 0 362.016 362.016" style="enable-background:new 0 0 362.016 362.016;" xml:space="preserve">
<g>
	<rect x="175.008" y="316.682" style="fill:#A4A9AD;" width="12" height="45.334"/>
	<g>
		<rect x="229.231" y="116.531" style="fill:#A4A9AD;" width="27.781" height="87.873"/>
		<path style="fill:#333E48;" d="M236.534,196.85c-0.829,0-1.5-0.672-1.5-1.5v-17.668c0-0.828,0.671-1.5,1.5-1.5s1.5,0.672,1.5,1.5
			v17.668C238.034,196.178,237.362,196.85,236.534,196.85z"/>
		<path style="fill:#C3C6C8;" d="M257.012,116.531c0-4.594,3.724-8.318,8.318-8.318c3.041,0,5.7,1.631,7.151,4.066h-0.002
			c4.025,7.441,14.363,12.496,23.418,12.496c11.388,0,35.194-10.396,35.194-62.387C331.09,10.398,304.821,0,293.433,0
			c-27.689,0-64.202,31.193-64.202,77.164v39.367C229.231,116.531,257.012,116.531,257.012,116.531z"/>
		<path style="fill:#333E48;" d="M297.034,48.727c0-6.625,5.371-11.996,11.996-11.996s11.996,5.371,11.996,11.996v27.324
			c0,6.625-5.371,11.996-11.996,11.996s-11.996-5.371-11.996-11.996V48.727z"/>
		<rect x="233.185" y="204.404" style="fill:#C3C6C8;" width="19.874" height="24.625"/>
	</g>
	<g>
		<rect x="105.003" y="116.531" style="fill:#A4A9AD;" width="27.781" height="87.873"/>
		<path style="fill:#333E48;" d="M125.482,196.85c0.829,0,1.5-0.672,1.5-1.5v-17.668c0-0.828-0.671-1.5-1.5-1.5
			c-0.829,0-1.5,0.672-1.5,1.5v17.668C123.982,196.178,124.653,196.85,125.482,196.85z"/>
		<path style="fill:#C3C6C8;" d="M105.003,116.531c0-4.594-3.724-8.318-8.318-8.318c-3.041,0-5.7,1.631-7.151,4.066h0.003
			c-4.025,7.441-14.363,12.496-23.418,12.496c-11.388,0-35.194-10.396-35.194-62.387C30.926,10.398,57.194,0,68.582,0
			c27.689,0,64.202,31.193,64.202,77.164v39.367C132.784,116.531,105.003,116.531,105.003,116.531z"/>
		<path style="fill:#333E48;" d="M64.981,48.727c0-6.625-5.371-11.996-11.996-11.996s-11.996,5.371-11.996,11.996v27.324
			c0,6.625,5.371,11.996,11.996,11.996s11.996-5.371,11.996-11.996V48.727z"/>
		<rect x="108.956" y="204.404" style="fill:#C3C6C8;" width="19.874" height="24.625"/>
	</g>
	<path style="fill:#A4A9AD;" d="M193.415,297.848h-12v-12.484c0-11.938,9.713-21.65,21.651-21.65h8.651
		c13.846,0,25.111-11.266,25.111-25.111v-9.572h12v9.572c0,20.463-16.648,37.111-37.111,37.111h-8.651
		c-5.322,0-9.651,4.328-9.651,9.65L193.415,297.848L193.415,297.848z"/>
	<path style="fill:#A4A9AD;" d="M180.6,297.848h-12v-12.484c0-5.322-4.33-9.65-9.651-9.65h-8.651
		c-20.463,0-37.111-16.648-37.111-37.111v-9.572h12v9.572c0,13.846,11.265,25.111,25.111,25.111h8.651
		c11.939,0,21.651,9.713,21.651,21.65V297.848z"/>
	<path style="fill:#C3C6C8;" d="M196.749,312.941c0,8.691-7.047,15.74-15.742,15.74c-8.694,0-15.742-7.049-15.742-15.74v-15.094
		h31.483v15.094H196.749z"/>
</g>
<g>
</g>
<g>
</g>
<g>
</g>
<g>
</g>
<g>
</g>
<g>
</g>
<g>
</g>
<g>
</g>
<g>
</g>
<g>
</g>
<g>
</g>
<g>
</g>
<g>
</g>
<g>
</g>
<g>
</g>
</svg>
