<svg height="512pt" viewBox="-31 0 512 512" width="512pt" xmlns="http://www.w3.org/2000/svg"><path d="m405 70h-360c-24.8125 0-45 20.1875-45 45v352c0 24.8125 20.1875 45 45 45h360c24.8125 0 45-20.1875 45-45v-352c0-24.8125-20.1875-45-45-45zm0 0" fill="#f93057"/><path d="m405 70h-180v442h180c24.8125 0 45-20.1875 45-45v-352c0-24.8125-20.1875-45-45-45zm0 0" fill="#e22753"/><path d="m375 70h-300c-8.285156 0-15 6.714844-15 15v352c0 8.285156 6.714844 15 15 15h300c8.285156 0 15-6.714844 15-15v-352c0-8.285156-6.714844-15-15-15zm0 0" fill="#e1ebf0"/><path d="m375 70h-150v382h150c8.285156 0 15-6.714844 15-15v-352c0-8.285156-6.714844-15-15-15zm0 0" fill="#cde1e6"/><path d="m181 361h-46c-8.285156 0-15-6.714844-15-15s6.714844-15 15-15h46c8.285156 0 15 6.714844 15 15s-6.714844 15-15 15zm0 0" fill="#006eff"/><path d="m181 246h-46c-8.285156 0-15-6.714844-15-15s6.714844-15 15-15h46c8.285156 0 15 6.714844 15 15s-6.714844 15-15 15zm0 0" fill="#006eff"/><path d="m270 246c-3.839844 0-7.679688-1.464844-10.605469-4.394531l-25-25c-5.859375-5.855469-5.859375-15.355469 0-21.210938 5.855469-5.859375 15.355469-5.859375 21.210938 0l14.394531 14.390625 34.394531-34.390625c5.855469-5.859375 15.355469-5.859375 21.210938 0 5.859375 5.855469 5.859375 15.351563 0 21.210938l-45 45c-2.925781 2.929687-6.765625 4.394531-10.605469 4.394531zm0 0" fill="#005adc"/><path d="m270 361c-3.839844 0-7.679688-1.464844-10.605469-4.394531l-25-25c-5.859375-5.855469-5.859375-15.355469 0-21.210938 5.855469-5.859375 15.355469-5.859375 21.210938 0l14.394531 14.390625 34.394531-34.390625c5.855469-5.859375 15.355469-5.859375 21.210938 0 5.859375 5.855469 5.859375 15.351563 0 21.210938l-45 45c-2.925781 2.929687-6.765625 4.394531-10.605469 4.394531zm0 0" fill="#005adc"/><path d="m320 130h-190c-8.285156 0-15-6.714844-15-15v-60c0-8.285156 6.714844-15 15-15h42.078125c6.546875-23.0625 27.792969-40 52.921875-40s46.375 16.9375 52.921875 40h42.078125c8.285156 0 15 6.714844 15 15v60c0 8.285156-6.714844 15-15 15zm0 0" fill="#ffb533"/><path d="m320 130c8.285156 0 15-6.714844 15-15v-60c0-8.285156-6.714844-15-15-15h-42.078125c-6.546875-23.0625-27.792969-40-52.921875-40v130zm0 0" fill="#ffa300"/></svg>