<svg height="512pt" viewBox="0 -76 512 512" width="512pt" xmlns="http://www.w3.org/2000/svg"><path d="m271 255v90c0 8.398438-6.597656 15-15 15h-241c-8.402344 0-15-6.601562-15-15v-75c0-.902344 21.597656-15.902344 42.597656-30h213.402344c8.402344 0 15 6.597656 15 15zm0 0" fill="#537983"/><path d="m316 240c-8.289062 0-15 6.710938-15 15v90c0 8.289062 6.710938 15 15 15h181c8.289062 0 15-6.710938 15-15v-75l-87.167969-30zm0 0" fill="#3e5959"/><path d="m331 255.9375h30v74.0625h-30zm0 0" fill="#fdbf00"/><path d="m391 255.9375h30v74.0625h-30zm0 0" fill="#fdbf00"/><path d="m452 255.9375h30v74.0625h-30zm0 0" fill="#fdbf00"/><g fill="#ffda2d"><path d="m90 255.9375h30v74.0625h-30zm0 0"/><path d="m30 255.9375h30v74.0625h-30zm0 0"/><path d="m150 255.9375h30v74.0625h-30zm0 0"/><path d="m211 255.9375h30v74.0625h-30zm0 0"/></g><path d="m271 255v90c0 8.398438-6.597656 15-15 15v-120c8.402344 0 15 6.597656 15 15zm0 0" fill="#3e5959"/><path d="m497 120c8.402344 0 15-6.601562 15-15v-90c0-8.402344-6.597656-15-15-15h-482c-8.402344 0-15 6.597656-15 15v90c0 8.398438 6.597656 15 15 15s15 6.597656 15 15c0 8.398438-6.597656 15-15 15s-15 6.597656-15 15v105h512v-105c0-8.402344-6.597656-15-15-15s-15-6.601562-15-15c0-8.402344 6.597656-15 15-15zm0 0" fill="#5bc980"/><path d="m482 135c0 8.398438 6.597656 15 15 15s15 6.597656 15 15v105h-256v-270h241c8.402344 0 15 6.597656 15 15v90c0 8.398438-6.597656 15-15 15s-15 6.597656-15 15zm0 0" fill="#00ab5e"/><path d="m165 210h-60c-8.289062 0-15-6.710938-15-15v-120c0-8.289062 6.710938-15 15-15h60c8.289062 0 15 6.710938 15 15v120c0 8.289062-6.710938 15-15 15zm0 0" fill="#537983"/><path d="m286 60h-60c-8.402344 0-15 6.597656-15 15v120c0 8.398438 6.597656 15 15 15h60c8.402344 0 15-6.601562 15-15v-120c0-8.402344-6.597656-15-15-15zm0 0" fill="#537983"/><path d="m406 210h-60c-8.289062 0-15-6.710938-15-15v-120c0-8.289062 6.710938-15 15-15h60c8.289062 0 15 6.710938 15 15v120c0 8.289062-6.710938 15-15 15zm0 0" fill="#3e5959"/><path d="m301 75v120c0 8.398438-6.597656 15-15 15h-30v-150h30c8.402344 0 15 6.597656 15 15zm0 0" fill="#3e5959"/></svg>