<svg height="512pt" viewBox="0 0 512 512" width="512pt" xmlns="http://www.w3.org/2000/svg"><path d="m271 406v91c0 8.398438-6.597656 15-15 15s-15-6.601562-15-15v-91c0-8.402344 6.597656-15 15-15s15 6.597656 15 15zm0 0" fill="#0b799d"/><path d="m271 15v91c0 8.398438-6.597656 15-15 15s-15-6.601562-15-15v-91c0-8.402344 6.597656-15 15-15s15 6.597656 15 15zm0 0" fill="#0b799d"/><path d="m271 15v91c0 8.398438-6.597656 15-15 15v-121c8.402344 0 15 6.597656 15 15zm0 0" fill="#07485e"/><path d="m271 406v91c0 8.398438-6.597656 15-15 15v-121c8.402344 0 15 6.597656 15 15zm0 0" fill="#07485e"/><path d="m166 512c-8.289062 0-15-6.710938-15-15v-91c0-8.289062 6.710938-15 15-15s15 6.710938 15 15v91c0 8.289062-6.710938 15-15 15zm0 0" fill="#0b799d"/><path d="m497 271h-91c-8.289062 0-15-6.710938-15-15s6.710938-15 15-15h91c8.289062 0 15 6.710938 15 15s-6.710938 15-15 15zm0 0" fill="#07485e"/><path d="m106 361h-91c-8.289062 0-15-6.710938-15-15s6.710938-15 15-15h91c8.289062 0 15 6.710938 15 15s-6.710938 15-15 15zm0 0" fill="#0b799d"/><path d="m346 512c-8.289062 0-15-6.710938-15-15v-91c0-8.289062 6.710938-15 15-15s15 6.710938 15 15v91c0 8.289062-6.710938 15-15 15zm0 0" fill="#07485e"/><path d="m497 361h-91c-8.289062 0-15-6.710938-15-15s6.710938-15 15-15h91c8.289062 0 15 6.710938 15 15s-6.710938 15-15 15zm0 0" fill="#07485e"/><g fill="#0b799d"><path d="m106 271h-91c-8.289062 0-15-6.710938-15-15s6.710938-15 15-15h91c8.289062 0 15 6.710938 15 15s-6.710938 15-15 15zm0 0"/><path d="m106 181h-91c-8.289062 0-15-6.710938-15-15s6.710938-15 15-15h91c8.289062 0 15 6.710938 15 15s-6.710938 15-15 15zm0 0"/><path d="m166 121c-8.289062 0-15-6.710938-15-15v-91c0-8.289062 6.710938-15 15-15s15 6.710938 15 15v91c0 8.289062-6.710938 15-15 15zm0 0"/></g><path d="m346 121c-8.289062 0-15-6.710938-15-15v-91c0-8.289062 6.710938-15 15-15s15 6.710938 15 15v91c0 8.289062-6.710938 15-15 15zm0 0" fill="#07485e"/><path d="m497 181h-91c-8.289062 0-15-6.710938-15-15s6.710938-15 15-15h91c8.289062 0 15 6.710938 15 15s-6.710938 15-15 15zm0 0" fill="#07485e"/><path d="m406 91h-300c-8.402344 0-15 6.597656-15 15v300c0 8.398438 6.597656 15 15 15h300c8.402344 0 15-6.601562 15-15v-300c0-8.402344-6.597656-15-15-15zm0 0" fill="#6fe8d5"/><path d="m421 106v300c0 8.398438-6.597656 15-15 15h-150v-330h150c8.402344 0 15 6.597656 15 15zm0 0" fill="#15ccc2"/><path d="m181 166c0 8.285156-6.714844 15-15 15s-15-6.714844-15-15 6.714844-15 15-15 15 6.714844 15 15zm0 0" fill="#0b799d"/><path d="m181 346c0 8.285156-6.714844 15-15 15s-15-6.714844-15-15 6.714844-15 15-15 15 6.714844 15 15zm0 0" fill="#0b799d"/><path d="m361 166c0 8.285156-6.714844 15-15 15s-15-6.714844-15-15 6.714844-15 15-15 15 6.714844 15 15zm0 0" fill="#07485e"/><path d="m361 346c0 8.285156-6.714844 15-15 15s-15-6.714844-15-15 6.714844-15 15-15 15 6.714844 15 15zm0 0" fill="#07485e"/><path d="m360.398438 256-104.398438 15-104.398438-15c0-2.402344 0-4.5.898438-6.601562l30-60c2.699219-5.097657 7.800781-8.398438 13.5-8.398438h120c5.699219 0 10.800781 3.300781 13.5 8.398438l30 60c.898438 2.101562.898438 4.199218.898438 6.601562zm0 0" fill="#fff5f5"/><path d="m360.398438 256-104.398438 15v-90h60c5.699219 0 10.800781 3.300781 13.5 8.398438l30 60c.898438 2.101562.898438 4.199218.898438 6.601562zm0 0" fill="#e1ebf0"/><path d="m360.398438 256c0 3.898438-.898438 7.800781-3.898438 10.5l-90 90c-2.699219 3-6.601562 4.5-10.5 4.5s-7.800781-1.5-10.5-4.5l-90-90c-3-2.699219-3.898438-6.601562-3.898438-10.5zm0 0" fill="#e1ebf0"/><path d="m360.398438 256c0 3.898438-.898438 7.800781-3.898438 10.5l-90 90c-2.699219 3-6.601562 4.5-10.5 4.5v-105zm0 0" fill="#b4d2d7"/></svg>