<svg height="512pt" viewBox="0 -91 512 512" width="512pt" xmlns="http://www.w3.org/2000/svg"><path d="m316 255-5.824219 37.5 5.824219 37.5c3.332031 0 63.246094 0 60 0l5.117188-39.707031-5.117188-35.292969-30.882812-4.410156zm0 0" fill="#ffda44"/><path d="m256 255c0 3.332031 0 63.246094 0 60 0 8.289062 6.710938 15 15 15 3.019531 0 48.019531 0 45 0 0-4.042969 0-79.214844 0-75l-30-6.175781zm0 0" fill="#ff9f22"/><path d="m376 255c0 4.042969 0 79.214844 0 75 3.332031 0 63.246094 0 60 0l5.824219-40.589844-5.824219-34.410156-29.9375-4.410156zm0 0" fill="#ff9f22"/><path d="m76 255-6.882812 37.5 6.882812 37.5c3.332031 0 63.246094 0 60 0l6.882812-39.175781-6.882812-35.824219-29.117188-6.175781zm0 0" fill="#ffda44"/><path d="m136 330h45c8.289062 0 15-6.710938 15-15 0-3.332031 0-63.246094 0-60l-30.175781-4.410156-29.824219 4.410156zm0 0" fill="#ff9f22"/><path d="m482 105c0 8.398438 6.597656 15 15 15s15 6.597656 15 15v180c0 8.398438-6.597656 15-15 15h-61v-75h-360v75h-61c-8.402344 0-15-6.601562-15-15v-180c0-8.402344 6.597656-15 15-15s15-6.601562 15-15c0-8.402344-6.597656-15-15-15s-15-6.601562-15-15v-60c0-8.402344 6.597656-15 15-15h482c8.402344 0 15 6.597656 15 15v60c0 8.398438-6.597656 15-15 15s-15 6.597656-15 15zm0 0" fill="#6fe8d5"/><path d="m482 105c0 8.398438 6.597656 15 15 15s15 6.597656 15 15v180c0 8.398438-6.597656 15-15 15h-61v-75h-180v-255h241c8.402344 0 15 6.597656 15 15v60c0 8.398438-6.597656 15-15 15s-15 6.597656-15 15zm0 0" fill="#15ccc2"/><path d="m166 210h-60c-8.289062 0-15-6.710938-15-15v-120c0-8.289062 6.710938-15 15-15h60c8.289062 0 15 6.710938 15 15v120c0 8.289062-6.710938 15-15 15zm0 0" fill="#0b799d"/><path d="m286 60h-60c-8.402344 0-15 6.597656-15 15v120c0 8.398438 6.597656 15 15 15h60c8.402344 0 15-6.601562 15-15v-120c0-8.402344-6.597656-15-15-15zm0 0" fill="#0b799d"/><g fill="#07485e"><path d="m406 210h-60c-8.289062 0-15-6.710938-15-15v-120c0-8.289062 6.710938-15 15-15h60c8.289062 0 15 6.710938 15 15v120c0 8.289062-6.710938 15-15 15zm0 0"/><path d="m301 75v120c0 8.398438-6.597656 15-15 15h-30v-150h30c8.402344 0 15 6.597656 15 15zm0 0"/></g></svg>