<svg height="512pt" viewBox="-61 0 512 512" width="512pt" xmlns="http://www.w3.org/2000/svg"><path d="m390 15v482c0 8.398438-6.597656 15-15 15h-270l-105-105v-392c0-8.402344 6.597656-15 15-15h360c8.402344 0 15 6.597656 15 15zm0 0" fill="#e1ebf0"/><path d="m390 15v482c0 8.398438-6.597656 15-15 15h-180v-512h180c8.402344 0 15 6.597656 15 15zm0 0" fill="#b4d2d7"/><path d="m90 77c0 8.285156-6.714844 15-15 15s-15-6.714844-15-15 6.714844-15 15-15 15 6.714844 15 15zm0 0" fill="#0b799d"/><path d="m330 77c0 8.285156-6.714844 15-15 15s-15-6.714844-15-15 6.714844-15 15-15 15 6.714844 15 15zm0 0" fill="#07485e"/><path d="m330 197c0 74.398438-60.601562 135-135 135-10.800781 0-21.300781-1.199219-31.5-3.601562l-45.300781-20.398438c-36.601563-25.199219-58.199219-66.601562-58.199219-111 0-74.402344 60.601562-135 135-135s135 60.597656 135 135zm0 0" fill="#fdbf00"/><path d="m330 197c0 74.398438-60.601562 135-135 135v-270c74.398438 0 135 60.597656 135 135zm0 0" fill="#ff9100"/><path d="m195 152c-24.902344 0-45 20.097656-45 45 0 24.898438 20.097656 45 45 45s45-20.101562 45-45c0-24.902344-20.097656-45-45-45zm0 0" fill="#07485e"/><path d="m240 197c0 24.898438-20.097656 45-45 45v-90c24.902344 0 45 20.097656 45 45zm0 0" fill="#03232e"/><path d="m144.449219 410.265625-76.90625-35.859375c-4.1875-1.945312-7.234375-5.726562-8.273438-10.222656-1.042969-4.496094.058594-9.230469 2.972657-12.816406l110.171874-135.878907c4.320313-5.363281 11.746094-7.078125 17.988282-4.148437 6.238281 2.917968 9.695312 9.683594 8.378906 16.449218l-33.269531 171.738282c-.878907 4.527344-3.792969 8.410156-7.910157 10.503906-4.035156 2.074219-8.878906 2.214844-13.152343.234375zm0 0" fill="#0b799d"/><path d="m255 452c-8.289062 0-15-6.710938-15-15v-60c0-8.289062 6.710938-15 15-15s15 6.710938 15 15v60c0 8.289062-6.710938 15-15 15zm0 0" fill="#87a0af"/><path d="m315 452c-8.289062 0-15-6.710938-15-15v-60c0-8.289062 6.710938-15 15-15s15 6.710938 15 15v60c0 8.289062-6.710938 15-15 15zm0 0" fill="#87a0af"/><path d="m15 407h-15v90c0 8.289062 6.710938 15 15 15h90v-15c0-49.707031-40.292969-90-90-90zm0 0" fill="#b4d2d7"/></svg>