<svg height="512pt" viewBox="0 -59 512 511" width="512pt" xmlns="http://www.w3.org/2000/svg"><path d="m203.316406 32.453125c-36.347656-34.332031-90.972656-32.042969-94.492187-31.859375 0 0-.003907 0-.007813 0-.035156.003906-.074218.003906-.097656.007812-.003906 0-.003906 0-.003906 0-2.046875.113282-27.792969 1.792969-53.632813 15.945313-25.128906 13.761719-55.082031 41.921875-55.082031 97.917969 0 56.300781 30.210938 83.289062 55.554688 96.011718 25.132812 12.617188 50.136718 13.496094 53.574218 13.558594 2.78125.117188 20.882813.652344 42.960938-4.058594v141.558594c0 17.589844 14.308594 31.902344 31.902344 31.902344h18.503906c17.59375 0 31.902344-14.3125 31.902344-31.902344v-249.226562c0-33.507813-10.457032-60.375-31.082032-79.855469zm0 0" fill="#f2f2fc"/><path d="m.0351562 112.304688c-.0078124.722656-.0351562 1.429687-.0351562 2.160156 0 56.300781 30.210938 83.289062 55.554688 96.011718 25.132812 12.617188 50.136718 13.496094 53.574218 13.558594 2.78125.117188 20.882813.652344 42.960938-4.058594v141.558594c0 17.589844 14.308594 31.902344 31.902344 31.902344h18.503906c17.59375 0 31.902344-14.3125 31.902344-31.902344v-249.230468zm0 0" fill="#d7e9ff"/><path d="m108.824219.59375h-.007813c-.035156.003906-.074218.003906-.101562.007812-2.050782.113282-27.792969 1.792969-53.636719 15.945313-25.125 13.761719-55.078125 41.921875-55.078125 97.917969 0 56.300781 30.210938 83.289062 55.554688 96.011718 25.132812 12.617188 50.136718 13.496094 53.574218 13.558594.117188.003906.273438.007813.441406.015625v-223.488281c-.335937.011719-.589843.023438-.746093.03125zm0 0" fill="#d7e9ff"/><path d="m.0351562 112.304688c-.0078124.722656-.0351562 1.429687-.0351562 2.160156 0 56.300781 30.210938 83.289062 55.554688 96.011718 25.132812 12.617188 50.136718 13.496094 53.574218 13.558594.117188.003906.273438.007813.441406.015625v-111.746093zm0 0" fill="#b0d5f7"/><path d="m234.398438 317.6875v43.847656c0 17.589844-14.3125 31.902344-31.902344 31.902344h-18.503906c-17.59375 0-31.902344-14.3125-31.902344-31.902344v-43.847656zm0 0" fill="#55608a"/><path d="m308.683594 32.453125c36.347656-34.332031 90.972656-32.042969 94.492187-31.859375h.007813c.035156.003906.074218.003906.097656.007812h.003906c2.046875.113282 27.792969 1.792969 53.632813 15.945313 25.128906 13.761719 55.082031 41.921875 55.082031 97.917969 0 56.300781-30.210938 83.289062-55.554688 96.011718-25.132812 12.617188-50.136718 13.496094-53.574218 13.558594-2.78125.117188-20.882813.652344-42.960938-4.058594v141.558594c0 17.589844-14.308594 31.902344-31.902344 31.902344h-18.503906c-17.59375 0-31.902344-14.3125-31.902344-31.902344v-249.226562c0-33.507813 10.457032-60.375 31.082032-79.855469zm0 0" fill="#f2f2fc"/><path d="m511.964844 112.304688c.007812.722656.035156 1.429687.035156 2.160156 0 56.300781-30.210938 83.289062-55.554688 96.011718-25.132812 12.617188-50.136718 13.496094-53.574218 13.558594-2.78125.117188-20.882813.652344-42.960938-4.058594v141.558594c0 17.589844-14.308594 31.902344-31.902344 31.902344h-18.503906c-17.59375 0-31.902344-14.3125-31.902344-31.902344v-249.230468zm0 0" fill="#d7e9ff"/><path d="m403.175781.59375h.007813c.035156.003906.074218.003906.101562.007812 2.050782.113282 27.792969 1.792969 53.636719 15.945313 25.125 13.761719 55.078125 41.921875 55.078125 97.917969 0 56.300781-30.210938 83.289062-55.554688 96.011718-25.132812 12.617188-50.136718 13.496094-53.574218 13.558594-.117188.003906-.273438.007813-.441406.015625v-223.488281c.335937.011719.589843.023438.746093.03125zm0 0" fill="#d7e9ff"/><path d="m511.964844 112.304688c.007812.722656.035156 1.429687.035156 2.160156 0 56.300781-30.210938 83.289062-55.554688 96.011718-25.132812 12.617188-50.136718 13.496094-53.574218 13.558594-.117188.003906-.273438.007813-.441406.015625v-111.746093zm0 0" fill="#b0d5f7"/><path d="m359.910156 317.6875v43.847656c0 17.589844-14.308594 31.902344-31.902344 31.902344h-18.503906c-17.589844 0-31.902344-14.3125-31.902344-31.902344v-43.847656zm0 0" fill="#55608a"/></svg>