<svg enable-background="new 0 0 110 110" height="512" viewBox="0 0 110 110" width="512" xmlns="http://www.w3.org/2000/svg"><path d="m39.725922 5h30.552336v29.554478h-30.552336z" fill="#dbd8dd"/><path d="m40.953991 5h29.324268v29.554478h-29.324268z" fill="#ededed"/><path d="m75.9864655 28.8653259h-41.96875c-1.6885605 0-3.0573864 1.3689709-3.0573864 3.0576057v48.4589043c0 13.0363159 10.1370792 24.1394119 23.1651096 24.6021881 13.6774788.486824 24.9184074-10.4573212 24.9184074-24.0262146v-49.0348777c0-1.6886349-1.3688202-3.0576058-3.0573806-3.0576058z" fill="#4da0dc"/><path d="m69.4914017 100.1316223c-4.2402802 3.2194901-9.5857353 5.057106-15.3636169 4.8529892-13.0333099-.4686432-23.1716347-11.5676346-23.1716347-24.6010208v-48.45714c0-1.6939125 1.3694115-3.0634708 3.063179-3.0634708h.3122559c-.1080704.3126221-.1681175.6487064-.1681175 1.0094261v48.4571381c0 13.0451202 10.1383247 24.1446991 23.1715622 24.6010208 4.4084701.1560211 8.5527038-.8651352 12.156372-2.7989426z" fill="#4288b9"/><path d="m67.0151215 54.306263h-3.9855728c-.2651138 0-.4800797.2152596-.4800797.4803734v3.9855003c0 .2651138.2149658.4797859.4800797.4797859h.8341255v9.4913025l-7.2601242 6.8870926v-29.3378754h2.2292709c.3996506 0 .6336021-.4498711.4041214-.7771606l-3.4304199-4.8887634c-.1965637-.280365-.6116104-.280365-.8081703 0l-3.4304962 4.8887634c-.2294807.3272896.0044708.7771606.4041214.7771606h2.229126v20.9557037l-7.2847595-6.2788506v-6.4970436c.960083-.4703979 1.6269722-1.447567 1.6269722-2.5889626 0-1.5971336-1.2948456-2.8922005-2.8919792-2.8922005-1.5972099 0-2.8920555 1.2950668-2.8920555 2.8922005 0 1.1930122.7231216 2.2165146 1.7546158 2.6581764v7.5281715l9.6872063 8.352253v16.9930801c-1.5329819.5067673-2.6467361 1.9343872-2.6467361 3.6376877 0 2.1256027 1.7228699 3.8476639 3.8480339 3.8476639 2.1252327 0 3.8480301-1.7220612 3.8480301-3.8476639 0-1.7033005-1.1136818-3.1315079-2.6468811-3.6382751v-8.4719086l9.662571-9.1669464v-10.5236052h.7490005c.2651901 0 .4800797-.2146721.4800797-.4797859v-3.9855003c-.0000003-.2651139-.2148898-.4803734-.4800799-.4803734z" fill="#ededed"/><g fill="#dbd8dd"><path d="m46.520287 10.702052h5.274398v13.257272h-5.274398z"/><path d="m58.209496 10.702052h5.274398v13.257272h-5.274398z"/></g></svg>