<svg height="512pt" viewBox="0 0 512 512" width="512pt" xmlns="http://www.w3.org/2000/svg"><path d="m512 256c0 141.386719-114.613281 256-256 256s-256-114.613281-256-256 114.613281-256 256-256 256 114.613281 256 256zm0 0" fill="#e0f4ff"/><path d="m256 0v512c141.386719 0 256-114.613281 256-256s-114.613281-256-256-256zm0 0" fill="#bbdcff"/><path d="m256 48.734375c-114.285156 0-207.265625 92.980469-207.265625 207.265625s92.980469 207.265625 207.265625 207.265625 207.265625-92.980469 207.265625-207.265625-92.980469-207.265625-207.265625-207.265625zm0 0" fill="#29daf8"/><path d="m256 48.734375v414.53125c114.285156 0 207.265625-92.980469 207.265625-207.265625 0-114.289062-92.980469-207.265625-207.265625-207.265625zm0 0" fill="#00c1f1"/><path d="m256 386.640625c-8.285156 0-15 6.714844-15 15v61.078125c4.953125.355469 9.957031.546875 15 .546875s10.046875-.191406 15-.546875v-61.078125c0-8.285156-6.714844-15-15-15zm0 0" fill="#47568c"/><path d="m271 462.71875v-61.078125c0-8.285156-6.714844-15-15-15v76.625c5.042969 0 10.046875-.191406 15-.546875zm0 0" fill="#2c3b73"/><path d="m462.71875 241h-61.078125c-8.285156 0-15 6.714844-15 15s6.714844 15 15 15h61.078125c.355469-4.953125.546875-9.957031.546875-15s-.191406-10.046875-.546875-15zm0 0" fill="#2c3b73"/><path d="m256 125.359375c8.285156 0 15-6.714844 15-15v-61.078125c-4.953125-.355469-9.957031-.546875-15-.546875s-10.046875.191406-15 .546875v61.078125c0 8.285156 6.714844 15 15 15zm0 0" fill="#47568c"/><path d="m271 110.359375v-61.078125c-4.953125-.355469-9.957031-.546875-15-.546875v76.625c8.285156 0 15-6.714844 15-15zm0 0" fill="#2c3b73"/><path d="m323.191406 338.191406c-3.839844 0-7.679687-1.464844-10.605468-4.394531l-67.191407-67.191406c-2.816406-2.8125-4.394531-6.625-4.394531-10.605469v-79.089844c0-8.28125 6.714844-15 15-15s15 6.71875 15 15v72.875l62.796875 62.800782c5.859375 5.855468 5.859375 15.351562 0 21.210937-2.929687 2.929687-6.769531 4.394531-10.605469 4.394531zm0 0" fill="#47568c"/><path d="m333.796875 312.585938-62.796875-62.800782v-72.875c0-8.28125-6.714844-15-15-15v115.304688l56.585938 56.582031c2.925781 2.929687 6.765624 4.394531 10.605468 4.394531 3.835938 0 7.675782-1.464844 10.605469-4.394531 5.859375-5.859375 5.859375-15.355469 0-21.210937zm0 0" fill="#2c3b73"/><path d="m125.359375 256c0-8.285156-6.714844-15-15-15h-61.078125c-.355469 4.953125-.546875 9.957031-.546875 15s.191406 10.046875.546875 15h61.078125c8.285156 0 15-6.714844 15-15zm0 0" fill="#47568c"/></svg>