<svg id="Layer_1" height="512" viewBox="0 0 512 512" width="512" xmlns="http://www.w3.org/2000/svg" data-name="Layer 1"><path d="m328 213.85v211.15a72 72 0 0 1 -144 0v-211.15zm-56.25 210.8a15.75 15.75 0 1 0 -15.75 15.75 15.746 15.746 0 0 0 15.75-15.75z" fill="#00efd1"/><path d="m328 87v37.15h-144v-37.15a72 72 0 0 1 144 0z" fill="#00efd1"/><path d="m207.67 141.41h96.66v72.44h-96.66z" fill="#00acea"/><path d="m256 408.91a15.745 15.745 0 1 1 -15.75 15.74 15.746 15.746 0 0 1 15.75-15.74z" fill="#fedb41"/><g fill="#00efd1"><path d="m271.059 186.962a6 6 0 0 1 -6-6v-14.824a6 6 0 1 1 12 0v14.824a6 6 0 0 1 -6 6z"/><path d="m240.941 186.962a6 6 0 0 1 -6-6v-14.824a6 6 0 0 1 12 0v14.824a6 6 0 0 1 -6 6z"/></g></svg>