<svg height="512" viewBox="0 0 64 64" width="512" xmlns="http://www.w3.org/2000/svg"><path d="m46 3h-4-20-4l-4 16h36z" fill="#00ccb3"/><path d="m50 25-.11 2-1.84 33.06a1 1 0 0 1 -1 .94h-30.1a1 1 0 0 1 -1-.94l-1.84-33.06-.11-2z" fill="#00ccb3"/><path d="m22 3h20v10h-20z" fill="#009986"/><path d="m52 19a1 1 0 0 1 1 1v4a1 1 0 0 1 -1 1h-40a1 1 0 0 1 -1-1v-4a1 1 0 0 1 1-1z" fill="#00b39d"/><g fill="#009986"><path d="m40 31h4v24h-4z"/><path d="m30 31h4v24h-4z"/><path d="m20 31h4v24h-4z"/></g><path d="m50 25-.11 2h-35.78l-.11-2z" fill="#00bfa9"/></svg>