<svg id="icons" enable-background="new 0 0 64 64" height="512" viewBox="0 0 64 64" width="512" xmlns="http://www.w3.org/2000/svg"><path d="m60 29c0 15.46-12.54 28-28 28s-28-12.54-28-28c0-15.47 12.54-28 28-28s28 12.53 28 28zm-6 0c0-12.149-9.87-22-22-22s-22 9.851-22 22c0 12.13 9.87 22 22 22s22-9.87 22-22z" fill="#e6e9ed"/><path d="m32 11c9.93 0 18 8.061 18 18 0 9.92-8.07 18-18 18s-18-8.08-18-18c0-9.939 8.07-18 18-18zm0 29.99c5.52 0 10-4.47 10-10 0-5.521-10-15-10-15s-10 9.479-10 15c0 5.531 4.48 10 10 10z" fill="#e6e9ed"/><path d="m32 7c12.13 0 22 9.851 22 22 0 12.13-9.87 22-22 22s-22-9.87-22-22c0-12.149 9.87-22 22-22zm18 22c0-9.939-8.07-18-18-18s-18 8.061-18 18c0 9.92 8.07 18 18 18s18-8.08 18-18z" fill="#5d9cec"/><path d="m32 15.99s-10 9.479-10 15c0 5.53 4.48 10 10 10s10-4.47 10-10c0-5.52-10-15-10-15z" fill="#5d9cec"/><path d="m32 57c15.46 0 28-12.54 28-28v6c0 15.46-12.54 28-28 28s-28-12.54-28-28v-6c0 15.46 12.54 28 28 28z" fill="#ccd1d9"/><path d="m32.03 54.999c-.553 0-1.005-.447-1.005-1s.442-1 .994-1h.011c.552 0 1 .447 1 1s-.448 1-1 1z" fill="#656d78"/><g fill="#4a89dc"><path d="m29 30c-1.379 0-2.5-1.121-2.5-2.5s1.121-2.5 2.5-2.5 2.5 1.121 2.5 2.5-1.121 2.5-2.5 2.5zm0-3c-.275 0-.5.225-.5.5s.225.5.5.5.5-.225.5-.5-.225-.5-.5-.5z"/><path d="m35 36c-1.379 0-2.5-1.121-2.5-2.5s1.121-2.5 2.5-2.5 2.5 1.121 2.5 2.5-1.121 2.5-2.5 2.5zm0-3c-.275 0-.5.225-.5.5s.225.5.5.5.5-.225.5-.5-.225-.5-.5-.5z"/><path d="m27.5 36c-.256 0-.512-.098-.707-.293-.391-.391-.391-1.023 0-1.414l9-9c.391-.391 1.023-.391 1.414 0s.391 1.023 0 1.414l-9 9c-.195.195-.451.293-.707.293z"/></g></svg>