<svg id="Capa_1" enable-background="new 0 0 512 512" height="512" viewBox="0 0 512 512" width="512" xmlns="http://www.w3.org/2000/svg"><circle cx="256" cy="424.592" fill="#8ac9fe" r="46.741"/><path d="m302.74 424.589c0 25.823-20.928 46.74-46.74 46.74-17.424 0-32.623-9.531-40.661-23.669 5.482 2.071 11.448 3.143 17.661 2.988 25.802-.639 46.204-22.072 45.576-47.884-.196-7.975-2.38-15.425-6.059-21.907 17.662 6.667 30.223 23.742 30.223 43.732z" fill="#60b7ff"/><g fill="#8ac9fe"><path d="m444.63 279.515c15.863-16.697 13.571-43.445-4.819-57.31-50.987-38.438-114.348-61.335-183.042-61.673v-.019c-.257 0-.512.009-.769.01-.257-.001-.512-.01-.769-.01v.019c-68.694.338-132.055 23.235-183.042 61.673-18.391 13.864-20.683 40.613-4.819 57.31 13.432 14.137 35.373 16.072 50.933 4.318 38.325-28.951 86.003-46.175 137.698-46.345 51.694.17 99.372 17.393 137.698 46.345 15.558 11.753 37.5 9.819 50.931-4.318z"/><path d="m256 268.453c-38.762 0-75.018 10.732-105.957 29.386-20.831 12.56-25.655 40.718-10.472 59.722 12.662 15.85 35.071 19.8 52.475 9.376 18.698-11.198 40.574-17.634 63.954-17.634s45.256 6.437 63.954 17.634c17.404 10.423 39.813 6.474 52.475-9.376 15.182-19.005 10.359-47.163-10.472-59.722-30.939-18.655-67.195-29.386-105.957-29.386z"/><path d="m256 40.667c-80.017 0-172.375 23.545-236.855 68.387-20.86 14.507-25.447 43.449-9.925 63.565 14.476 18.762 41.065 22.698 60.546 9.205 50.631-35.07 124.741-53.217 186.235-53.217s135.604 18.148 186.235 53.217c19.481 13.493 46.07 9.557 60.546-9.205 15.522-20.117 10.935-49.058-9.925-63.565-64.482-44.842-156.84-68.387-236.857-68.387z"/></g><path d="m511.999 145.631c0 9.418-2.988 18.919-9.222 26.987-14.467 18.764-41.062 22.7-60.537 9.202-50.636-35.066-124.744-53.211-186.24-53.211s-135.604 18.145-186.239 53.211c-7.769 5.389-16.672 7.996-25.493 7.996-13.272 0-26.348-5.925-35.045-17.198-10.232-13.251-11.726-30.325-5.595-44.586 1.494 3.493 3.493 6.863 5.976 9.995 8.717 10.984 21.608 16.724 34.684 16.724 9.006 0 18.105-2.72 25.977-8.336 50.161-35.745 124.012-54.891 185.507-55.715 61.485-.824 135.831 16.322 186.929 50.707 19.661 13.231 46.194 8.944 60.414-10.016 1.494-1.999 2.803-4.081 3.905-6.224 3.289 6.347 4.979 13.385 4.979 20.464z" fill="#60b7ff"/><path d="m444.63 279.515c-13.426 14.137-35.374 16.075-50.934 4.318-38.322-28.955-86-46.173-137.696-46.349-51.696.175-99.374 17.394-137.696 46.349-6.842 5.173-14.921 7.697-22.968 7.697-10.253 0-20.444-4.091-27.966-12.015-7.553-7.945-10.984-18.156-10.531-28.182.309.33.629.659.958.989 7.481 7.46 17.352 11.273 27.255 11.273 8.388 0 16.786-2.73 23.782-8.305 37.549-29.954 84.752-48.43 136.418-49.965 51.686-1.195 99.797 14.766 138.881 42.701 15.858 11.335 37.744 8.82 50.8-5.667 4.462-4.956 7.388-10.727 8.82-16.734 14.695 14.497 15.529 38.475.877 53.89z" fill="#60b7ff"/><path d="m381.3 332.283c0 8.831-2.875 17.775-8.872 25.276-12.664 15.848-35.065 19.805-52.469 9.377-18.702-11.201-40.578-17.631-63.958-17.631s-45.256 6.43-63.958 17.631c-6.523 3.905-13.746 5.791-20.887 5.791-11.932 0-23.659-5.255-31.583-15.168-3.37-4.214-5.75-8.882-7.203-13.736 6.512 4.111 14.034 6.244 21.629 6.244 7.481 0 15.034-2.071 21.763-6.327 15.526-9.819 33.213-15.957 51.247-19.155 16.185-2.87 29.708-2.723 45.869-1.022 12.159 1.28 24.391 4.184 35.838 8.472 11.349 4.252 22.724 11.407 35.065 5.52 11.951-5.701 20.331-18.885 20.331-32.127 0-2.195-.175-4.39-.526-6.554 11.552 7.731 17.714 20.467 17.714 33.409z" fill="#60b7ff"/></svg>