<svg id="Capa_1" enable-background="new 0 0 512 512" height="512" viewBox="0 0 512 512" width="512" xmlns="http://www.w3.org/2000/svg"><path d="m241 39.77h30v59.51h-30z" fill="#07485e"/><path d="m256 39.77h15v59.51h-15z" fill="#002438"/><path d="m87.151 90.238c-5.853-5.864-15.351-5.872-21.213-.02-5.863 5.852-5.872 15.35-.02 21.213l49.491 49.584c2.93 2.936 6.773 4.403 10.617 4.403 3.834 0 7.669-1.461 10.597-4.384 5.863-5.852 5.872-15.35.02-21.213z" fill="#07485e"/><path d="m446.062 90.219c-5.863-5.853-15.361-5.845-21.213.02l-49.493 49.586c-5.852 5.863-5.843 15.361.02 21.213 2.928 2.923 6.762 4.384 10.597 4.384 3.843 0 7.687-1.468 10.617-4.403l49.493-49.586c5.851-5.865 5.842-15.363-.021-21.214z" fill="#002438"/><path d="m469.49 298.14c0 117.92-95.77 213.86-213.49 213.86s-213.49-95.94-213.49-213.86 95.77-213.86 213.49-213.86 213.49 95.94 213.49 213.86z" fill="#9adb05"/><path d="m469.49 298.14c0 117.92-95.77 213.86-213.49 213.86v-427.72c117.72 0 213.49 95.94 213.49 213.86z" fill="#00ca76"/><path d="m314.05 24.88c0 6.88-2.79 13.1-7.29 17.6s-10.72 7.29-17.59 7.29h-66.34c-13.74 0-24.88-11.14-24.88-24.89 0-6.87 2.79-13.09 7.29-17.59 4.5-4.51 10.72-7.29 17.59-7.29h66.34c13.74 0 24.88 11.14 24.88 24.88z" fill="#07485e"/><path d="m397.21 298.14c0 77.99-63.35 141.45-141.21 141.45s-141.21-63.46-141.21-141.45c0-78 63.35-141.45 141.21-141.45s141.21 63.45 141.21 141.45z" fill="#f3eee9"/><path d="m397.21 298.14c0 77.99-63.35 141.45-141.21 141.45v-282.9c77.86 0 141.21 63.45 141.21 141.45z" fill="#e9dfda"/><path d="m320.91 298.14c0 8.28-6.72 15-15 15h-49.91c-8.28 0-15-6.72-15-15v-71.45c0-8.29 6.72-15 15-15s15 6.71 15 15v56.45h34.91c8.28 0 15 6.71 15 15z" fill="#07485e"/><g fill="#002438"><path d="m289.17 49.77h-33.17v-49.77h33.17c13.74 0 24.88 11.14 24.88 24.88 0 6.88-2.79 13.1-7.29 17.6s-10.72 7.29-17.59 7.29z"/><path d="m320.91 298.14c0 8.28-6.72 15-15 15h-49.91v-101.45c8.28 0 15 6.71 15 15v56.45h34.91c8.28 0 15 6.71 15 15z"/></g></svg>