<svg id="Capa_1" enable-background="new 0 0 512 512" height="512" viewBox="0 0 512 512" width="512" xmlns="http://www.w3.org/2000/svg"><path d="m229.681 52.638c-126.734 0-229.494 102.645-229.681 229.335-.185 125.11 100.752 227.956 225.846 229.996 64.943 1.059 123.844-24.84 166.244-67.241l-159.391-159.391c-1.933-1.933-3.018-4.554-3.018-7.287z" fill="#6df3bf"/><path d="m229.681 278.05v-225.412c-7.752 0-15.413.39-22.968 1.14v228.541c0 6.092 2.42 11.934 6.727 16.241l161.593 161.593c5.938-4.859 11.616-10.023 17.037-15.444l-159.371-159.372c-1.932-1.932-3.018-4.553-3.018-7.287z" fill="#05e29a"/><path d="m459.362 282.319c0 7.607-.116 15.439-1.154 22.971-5.38 54.254-29.646 102.959-66.121 139.435l-159.386-159.386c-.886-.886-1.587-1.907-2.092-3.02z" fill="#fc8086"/><path d="m230.609 282.319c.505 1.113 1.206 2.133 2.092 3.02l19.952 19.952h205.556c1.038-7.532 1.154-15.364 1.154-22.971h-228.754z" fill="#fa4954"/><path d="m511.993 271.642c.216 5.833-4.473 10.677-10.306 10.677h-271.078c-.608-1.329-.928-2.783-.928-4.267v-267.739c0-5.833 4.844-10.522 10.677-10.306 147.535 5.483 266.152 124.1 271.635 271.635z" fill="#fba65c"/><path d="m439.575 274.796c5.843 0 .217 5.833 0 0z" fill="#fba65c"/><g fill="#fb9538"><path d="m318.153 282.319-88.472-88.472v21.862l66.61 66.61z"/><path d="m229.681 127.68v21.861l132.778 132.778h21.862z"/><path d="m510.932 276.573-275.506-275.505c-3.395 1.683-5.745 5.184-5.745 9.245v6.871l265.135 265.135h6.872c4.06 0 7.561-2.351 9.244-5.746z"/><path d="m229.681 61.491v21.861l198.967 198.967h21.862z"/><path d="m283.642 4.977 223.381 223.382c-1.915-9.898-4.335-19.615-7.253-29.116l-187.012-187.013c-9.501-2.919-19.218-5.338-29.116-7.253z"/></g></svg>