<svg id="Layer_1" enable-background="new 0 0 64 64" height="512" viewBox="0 0 64 64" width="512" xmlns="http://www.w3.org/2000/svg"><circle cx="42" cy="47" fill="#cadfdc" r="9"/><path d="m25 56.5c-.276 0-.5-.224-.5-.5v-3c0-.276.224-.5.5-.5s.5.224.5.5v3c0 .276-.224.5-.5.5z" fill="#8cb5ad"/><path d="m33 17c0 3.53-2.04 6.59-5 8.06-1.2.6-2.57.94-4 .94-.7 0-1.37-.04-2-.12-5.15-.56-8.04-3.22-8.73-4.36-.18-.3-.27-.65-.27-1.01v-7.02c0-.36.09-.71.27-1.01.77-1.28 4.33-4.48 10.73-4.48 4.97 0 9 4.03 9 9z" fill="#cadfdc"/><g fill="#bad3ce"><path d="m16 13.61v6.92c0 .31-.07.61-.21.89l-1.19 1.53c-.67-.55-1.11-1.07-1.33-1.43-.18-.3-.27-.65-.27-1.01v-7.02c0-.36.09-.71.27-1.01.22-.36.65-.86 1.3-1.41l1.09 1.43c.22.32.34.71.34 1.11z"/><path d="m30 18h-5c-.552 0-1-.448-1-1 0-.552.448-1 1-1h5"/><path d="m28 25.06v23.94h-6v-23.12c.63.08 1.3.12 2 .12 1.43 0 2.8-.34 4-.94z"/></g><path d="m28 25.06v1.94c-1.2.6-2.57.94-4 .94-.7 0-1.37-.04-2-.12v-1.94c.63.08 1.3.12 2 .12 1.43 0 2.8-.34 4-.94z" fill="#a3c4bd"/><path d="m23 49h4v4h-4z" fill="#cadfdc"/><path d="m42 11.5c-.276 0-.5-.224-.5-.5v-3c0-.276.224-.5.5-.5s.5.224.5.5v3c0 .276-.224.5-.5.5z" fill="#8cb5ad"/><path d="m40 11h4v4h-4z" fill="#cadfdc" transform="matrix(-1 0 0 -1 84 26)"/><path d="m42 53.5c-.276 0-.5-.224-.5-.5v-3c0-.276.224-.5.5-.5s.5.224.5.5v3c0 .276-.224.5-.5.5z" fill="#bad3ce"/><path d="m46.631 46.612c-1.602-1.865-1.631-4.612-1.631-4.612v-27h-6v27s-.029 2.747-1.631 4.612c-.241.225-.369.388-.369.388s1.125 2 5 2 5-2 5-2-.128-.163-.369-.388z" fill="#bad3ce"/></svg>