<svg id="Layer_1" enable-background="new 0 0 64 64" height="512" viewBox="0 0 64 64" width="512" xmlns="http://www.w3.org/2000/svg"><path d="m44 32h-24c-2.761 0-5-2.239-5-5 0-2.761 2.239-5 5-5h24c2.761 0 5 2.239 5 5 0 2.761-2.239 5-5 5z" fill="#cadfdc"/><path d="m49 27c0 .17-.01.33-.03.49-.25-2.52-2.38-4.49-4.97-4.49h-24c-1.38 0-2.63.56-3.54 1.46-.79.8-1.31 1.85-1.43 3.03-.02-.16-.03-.32-.03-.49 0-1.38.56-2.63 1.46-3.54.91-.9 2.16-1.46 3.54-1.46h24c2.76 0 5 2.24 5 5z" fill="#e3eeec"/><path d="m30 15v17h-4v-6s.02-2.2-.39-4.55c-.47.19-.98.34-1.5.43-.42.08-.86.12-1.31.12-5.12 0-6.97-2.49-7.58-3.48-.15-.24-.22-.51-.22-.79v-5.46c0-.28.07-.55.22-.79.61-.99 2.46-3.48 7.58-3.48 3.98 0 7.2 3.13 7.2 7z" fill="#f4f8f7"/><g fill="#e3eeec"><path d="m25.61 21.45c-.47.19-.98.34-1.5.43.81-.96.89-2.88.89-2.88.27.77.46 1.62.61 2.45z"/><circle cx="18.5" cy="15.5" r=".5"/><path d="m27 13.5c-.18 0-.353-.097-.442-.268-.553-1.05-1.8-1.795-1.812-1.802-.238-.141-.317-.447-.177-.685.142-.238.45-.315.685-.177.062.036 1.506.899 2.188 2.198.129.244.035.546-.21.675-.074.04-.153.059-.232.059z"/></g><path d="m34 15v17h4v-6s-.02-2.2.39-4.55c.47.19.98.34 1.5.43.42.08.86.12 1.31.12 5.12 0 6.97-2.49 7.58-3.48.15-.24.22-.51.22-.79v-5.46c0-.28-.07-.55-.22-.79-.61-.99-2.46-3.48-7.58-3.48-3.98 0-7.2 3.13-7.2 7z" fill="#f4f8f7"/><path d="m38.39 21.45c.47.19.98.34 1.5.43-.81-.96-.89-2.88-.89-2.88-.27.77-.46 1.62-.61 2.45z" fill="#e3eeec"/><circle cx="45.5" cy="15.5" fill="#e3eeec" r=".5"/><path d="m37 13.5c.18 0 .353-.097.442-.268.553-1.05 1.8-1.795 1.812-1.802.238-.141.317-.447.177-.685-.142-.238-.45-.315-.685-.177-.062.036-1.506.899-2.188 2.198-.129.244-.035.546.21.675.074.04.153.059.232.059z" fill="#e3eeec"/><path d="m49 34v14c0 4.42-3.58 8-8 8h-18c-4.42 0-8-3.58-8-8v-14c0-1.1.9-2 2-2h30c1.1 0 2 .9 2 2z" fill="#cadfdc"/><path d="m49 34v1c0-1.1-.9-2-2-2h-30c-1.1 0-2 .9-2 2v-1c0-1.1.9-2 2-2h30c1.1 0 2 .9 2 2z" fill="#e3eeec"/><circle cx="32.006" cy="36.5" fill="#8cb5ad" r=".5"/></svg>