<svg id="Capa_1" enable-background="new 0 0 512 512" height="512" viewBox="0 0 512 512" width="512" xmlns="http://www.w3.org/2000/svg"><path d="m376 392c-24.26 0-41.38 13.54-75.48 40.52-11.79 9.33-26.47 20.94-44.52 34.48-12.9 9.67-28.88 15-45 15-8.27 0-15-6.73-15-15v-30h-30v30c0 13.3 5.8 25.26 15 33.5 7.96 7.15 18.49 11.5 30 11.5h165c33.08 0 60-26.92 60-60s-26.92-60-60-60zm0 90h-90.11c13.02-9.95 24-18.64 33.24-25.95 32.7-25.87 43.68-34.05 56.87-34.05 16.54 0 30 13.46 30 30s-13.46 30-30 30z" fill="#6c6fa9"/><path d="m376 392c-24.26 0-41.38 13.54-75.48 40.52-11.79 9.33-26.47 20.94-44.52 34.48-12.9 9.67-28.88 15-45 15-8.27 0-15-6.73-15-15v-30h-15v63.5c7.96 7.15 18.49 11.5 30 11.5h165c33.08 0 60-26.92 60-60s-26.92-60-60-60zm0 90h-90.11c13.02-9.95 24-18.64 33.24-25.95 32.7-25.87 43.68-34.05 56.87-34.05 16.54 0 30 13.46 30 30s-13.46 30-30 30z" fill="#574f7f"/><path d="m106 0h150v137h-150z" fill="#e8dde3"/><path d="m181 0h75v137h-75z" fill="#e2d0da"/><path d="m136 47h30v30h-30z" fill="#6c6fa9"/><path d="m196 47h30v30h-30z" fill="#574f7f"/><path d="m286 122v75l-105 15-105-15v-75z" fill="#6c6fa9"/><path d="m286 122v75l-105 15v-90z" fill="#574f7f"/><path d="m286 197v180c0 41.35-33.65 75-75 75h-60c-41.35 0-75-33.65-75-75v-180z" fill="#76e2f8"/><path d="m286 197v180c0 41.35-33.65 75-75 75h-30v-255z" fill="#4bb9ec"/><path d="m196 242h30v150h-30z" fill="#189ced"/><path d="m136 242h30v150h-30z" fill="#4bb9ec"/></svg>