<svg height="512" viewBox="0 0 512 512" width="512" xmlns="http://www.w3.org/2000/svg"><g id="Flat"><path d="m376 280h-48c-39.76453 0-72 46.56238-72 104s32.23547 104 72 104h48c39.76453 0 72-46.56238 72-104s-32.23547-104-72-104z" fill="#808080"/><ellipse cx="376" cy="384" fill="#4d4d4d" rx="72" ry="104"/><path d="m424 248h-32a32 32 0 0 0 -32 32v48h64z" fill="#b3b3b3"/><path d="m424 312h-32c-30.928 0-56 32.23547-56 72s25.072 72 56 72h32c30.928 0 56-32.2356 56-72s-25.072-72-56-72z" fill="#b3b3b3"/><ellipse cx="424" cy="384" fill="#808080" rx="56" ry="72"/><path d="m392 216h64v96h-64z" fill="#808080" transform="matrix(-1 0 0 -1 848 528)"/><path d="m424 280a32 32 0 0 1 -32 32h64a32 32 0 0 0 32-32v-64h-64z" fill="#4d4d4d"/><path d="m24 216h64a0 0 0 0 1 0 0v96a0 0 0 0 1 0 0h-32a32 32 0 0 1 -32-32v-64a0 0 0 0 1 0 0z" fill="#808080"/><path d="m56 216h64v96h-64z" fill="#4d4d4d"/><path d="m56 248h64v72h-64z" fill="#b3b3b3" transform="matrix(-1 0 0 -1 176 568)"/><path d="m88 280a32 32 0 0 0 -32-32h64a32 32 0 0 1 32 32v40h-64z" fill="#808080"/><path d="m24 216h32v-.00015a151.99985 151.99985 0 0 1 151.99985-151.99985h32.0003a151.99985 151.99985 0 0 1 151.99985 151.99985v.00015h32v-.00019c0-106.03857-85.96124-191.99981-191.99981-191.99981h-16.00038c-106.03857 0-191.99981 85.96124-191.99981 191.99981z" fill="#3ea7ff"/><path d="m232 64a111.99475 111.99475 0 0 0 -112 112v40h-64a152.00075 152.00075 0 0 1 152-152z" fill="#2b7cd4"/><path d="m488 216h-64c0-.81-.01-1.62-.02-2.43v-.05a192.0087 192.0087 0 0 0 -191.98-189.52h64c106.04 0 192 85.96 192 192z" fill="#2b7cd4"/><path d="m152 280h-48c-39.76453 0-72 46.56238-72 104s32.23547 104 72 104h48c39.76453 0 72-46.56238 72-104s-32.23547-104-72-104z" fill="#b3b3b3"/><ellipse cx="152" cy="384" fill="#808080" rx="72" ry="104"/><ellipse cx="152" cy="384" fill="#4d4d4d" rx="32" ry="48"/></g></svg>