<svg id="Layer_1" enable-background="new 0 0 512.576 512.576" height="512" viewBox="0 0 512.576 512.576" width="512" xmlns="http://www.w3.org/2000/svg"><path d="m430.332 273.39h-191.152l-.066-191.151c-.003-8.827-7.164-15.995-16-15.995-59.143 0-115.117 23.319-157.457 65.672-87.523 87.554-87.572 227.374.028 314.974 87.561 87.561 227.401 87.6 315.001 0 42.332-42.332 65.646-98.267 65.646-157.5 0-8.837-7.164-16-16-16z" fill="#d83d3d"/><path d="m289.002 0c-8.822.036-15.951 7.206-15.936 16.028l.363 207.145c.016 8.826 7.174 15.972 16 15.972h207.146c8.836 0 16-7.164 16-16 .001-122.404-100.357-223.286-223.573-223.145z" fill="#e2c63b"/><path d="m239.14 158.64c-80.553-9.467-151.22 53.321-151.22 134.324 0 74.705 60.56 135.265 135.265 135.265 82.235 0 145.731-72.88 133.85-154.839h-117.855z" fill="#ed4040"/><path d="m273.183 82.25.247 140.923c.016 8.826 7.174 15.972 16 15.972h142.971c16.916-93.818-65.76-175.171-159.218-156.895z" fill="#f4dc4d"/></svg>