<svg id="Layer_1" enable-background="new 0 0 512 512" height="512" viewBox="0 0 512 512" width="512" xmlns="http://www.w3.org/2000/svg"><g><circle cx="256" cy="256" fill="#fafaf0" r="256"/><path d="m256 512v-512c141.159 0 256 114.841 256 256s-114.841 256-256 256z" fill="#e5e9f8"/><circle clip-rule="evenodd" cx="256" cy="64.267" fill="#e5e9f8" fill-rule="evenodd" r="15"/><circle clip-rule="evenodd" cx="256" cy="447.733" fill="#e5e9f8" fill-rule="evenodd" r="15"/><circle clip-rule="evenodd" cx="447.733" cy="256" fill="#cbd7ff" fill-rule="evenodd" r="15"/><circle clip-rule="evenodd" cx="64.267" cy="256" fill="#e5e9f8" fill-rule="evenodd" r="15"/><path d="m256 316.444c-8.284 0-15-6.716-15-15v-125.777c0-8.284 6.716-15 15-15s15 6.716 15 15v125.778c0 8.284-6.716 14.999-15 14.999z" fill="#454554"/><path d="m277.527 298.74-128.534-128.533c-5.858-5.857-5.858-15.355 0-21.213 5.857-5.858 15.355-5.858 21.213 0l128.534 128.533c5.858 5.857 5.858 15.355 0 21.213-5.858 5.859-15.357 5.857-21.213 0z" fill="#525263"/><g clip-rule="evenodd" fill-rule="evenodd"><circle cx="160.133" cy="89.954" fill="#e5e9f8" r="15"/><circle cx="351.867" cy="422.046" fill="#cbd7ff" r="15"/><circle cx="422.046" cy="160.133" fill="#cbd7ff" r="15"/><circle cx="89.954" cy="351.867" fill="#e5e9f8" r="15"/><circle cx="89.954" cy="160.133" fill="#e5e9f8" r="15"/><circle cx="422.046" cy="351.867" fill="#cbd7ff" r="15"/><circle cx="351.867" cy="89.954" fill="#cbd7ff" r="15"/><circle cx="160.133" cy="422.046" fill="#e5e9f8" r="15"/><path d="m271 64.267c0-8.28-6.72-15-15-15v30c8.28 0 15-6.72 15-15z" fill="#cbd7ff"/><path d="m271 447.733c0-8.28-6.72-15-15-15v30c8.28 0 15-6.72 15-15z" fill="#cbd7ff"/></g></g></svg>