<?xml version="1.0" encoding="iso-8859-1"?>
<!-- Generator: Adobe Illustrator 19.0.0, SVG Export Plug-In . SVG Version: 6.00 Build 0)  -->
<svg version="1.1" id="Layer_1" xmlns="http://www.w3.org/2000/svg" xmlns:xlink="http://www.w3.org/1999/xlink" x="0px" y="0px"
	 viewBox="0 0 512 512" style="enable-background:new 0 0 512 512;" xml:space="preserve">
<path style="fill:#F1F2F2;" d="M325.642,137.151H186.357c-9.425,0-17.067-7.641-17.067-17.067V17.067
	C169.29,7.641,176.931,0,186.357,0h139.286c9.425,0,17.067,7.641,17.067,17.067v103.018
	C342.709,129.51,335.069,137.151,325.642,137.151z"/>
<path style="fill:#E6E7E8;" d="M325.642,0h-69.647v137.151h69.647c9.425,0,17.067-7.641,17.067-17.067V17.067
	C342.709,7.641,335.069,0,325.642,0z"/>
<path style="fill:#6A82A1;" d="M213.169,0v60.652c0,9.425,7.641,17.067,17.067,17.067c9.425,0,17.067-7.641,17.067-17.067V0H213.169
	z"/>
<path style="fill:#C7E9F4;" d="M256,512c-65.137,0-118.129-52.992-118.129-118.128V120.084c0-9.425,7.641-17.067,17.067-17.067
	h202.123c9.425,0,17.067,7.641,17.067,17.067v273.788C374.129,459.008,321.135,512,256,512z"/>
<path style="fill:#80D0E1;" d="M357.062,103.018H255.997V512c0.001,0,0.002,0,0.003,0c65.135,0,118.129-52.992,118.129-118.128
	V120.084C374.129,110.658,366.487,103.018,357.062,103.018z"/>
<path style="fill:#6A82A1;" d="M256,448.6c-32.297,0-58.572-26.275-58.572-58.572c0-32.296,26.275-58.572,58.572-58.572
	s58.572,26.275,58.572,58.572S288.297,448.6,256,448.6z"/>
<g>
	<path style="fill:#36495E;" d="M264.697,0v60.652c0,9.425,7.641,17.067,17.067,17.067c9.425,0,17.067-7.641,17.067-17.067V0
		H264.697z"/>
	<path style="fill:#36495E;" d="M256,331.456c-0.001,0-0.002,0-0.003,0v117.142c0.001,0,0.002,0,0.003,0
		c32.297,0,58.572-26.275,58.572-58.572C314.572,357.732,288.297,331.456,256,331.456z"/>
</g>
<g>
</g>
<g>
</g>
<g>
</g>
<g>
</g>
<g>
</g>
<g>
</g>
<g>
</g>
<g>
</g>
<g>
</g>
<g>
</g>
<g>
</g>
<g>
</g>
<g>
</g>
<g>
</g>
<g>
</g>
</svg>
