<svg height="512" viewBox="0 0 512 512" width="512" xmlns="http://www.w3.org/2000/svg"><g id="flat"><rect fill="#4976f2" height="136" rx="68" width="400" x="56" y="152"/><rect fill="#486be0" height="64" rx="32" width="136" x="272" y="184"/><path d="m341.30615 206.65307 20.75466 10.37734a16 16 0 0 0 21.27307-6.78143l41.60733-78.01376a127.99964 127.99964 0 0 0 15.05879-60.23514v-.00008a48 48 0 0 0 -48-48h-21.57781a34.42215 34.42215 0 0 0 -19.094 5.78119 34.42214 34.42214 0 0 0 -15.32819 28.641v20.60726a40.97052 40.97052 0 0 0 12 28.97055 40.96336 40.96336 0 0 0 14.119 9.21344l.00079-.002-28.45116 69.03416a16 16 0 0 0 7.63752 20.40747z" fill="#548aff"/><rect fill="#486be0" height="64" rx="32" width="136" x="104" y="184"/><path d="m56 288h400a0 0 0 0 1 0 0v112a88 88 0 0 1 -88 88h-224a88 88 0 0 1 -88-88v-112a0 0 0 0 1 0 0z" fill="#548aff"/><path d="m344 288v16l-16 16h-144l-16-16v-16z" fill="#486be0"/><circle cx="256" cy="376" fill="#3cde8d" r="8"/><path d="m392 80h-16a8 8 0 0 1 0-16h16a8 8 0 0 1 0 16z" fill="#4976f2"/><path d="m336 24v88h-32a32 32 0 0 1 -32-32v-24a32 32 0 0 1 32-32z" fill="#91c0ff"/><path d="m170.69385 206.65307-20.75466 10.37734a16 16 0 0 1 -21.27307-6.78143l-41.60733-78.01376a127.99964 127.99964 0 0 1 -15.05879-60.23514v-.00008a48 48 0 0 1 48-48h21.57781a34.42215 34.42215 0 0 1 19.094 5.78119 34.42214 34.42214 0 0 1 15.32819 28.641v20.60726a40.97052 40.97052 0 0 1 -12 28.97055 40.96336 40.96336 0 0 1 -14.119 9.21344l-.00079-.002 28.45117 69.03415a16 16 0 0 1 -7.63753 20.40748z" fill="#548aff"/><path d="m120 80h16a8 8 0 0 0 0-16h-16a8 8 0 0 0 0 16z" fill="#4976f2"/><path d="m176 24v88h32a32 32 0 0 0 32-32v-24a32 32 0 0 0 -32-32z" fill="#91c0ff"/></g></svg>