<svg id="Capa_1" enable-background="new 0 0 512 512" height="512" viewBox="0 0 512 512" width="512" xmlns="http://www.w3.org/2000/svg"><g><path d="m402.927 279.021h-354.174l16.442 177.828c2.888 31.248 29.104 55.151 60.485 55.151h200.32c31.381 0 57.596-23.903 60.485-55.151z" fill="#98cd64"/><path d="m65.194 456.849c2.889 31.248 29.105 55.151 60.486 55.151h47.11c-49.286-45.538-60.25-154.934-60.373-232.979h-63.664z" fill="#6ac65e"/><path d="m125.68 512h200.32c31.381 0 57.596-23.903 60.486-55.151h-321.292c2.89 31.248 29.105 55.151 60.486 55.151z" fill="#a2ddfd"/><path d="m125.68 512h47.11c-14.674-13.558-25.947-32.783-34.553-55.151h-73.043c2.889 31.248 29.105 55.151 60.486 55.151z" fill="#7acdf9"/><g fill="#7acdf9"><path d="m159.305 456.849h15v55.151h-15z"/><path d="m277.375 456.849h15v55.151h-15z"/></g><g><g><path d="m167.158 382.552c.007 15.091-15.349 27.333-34.3 27.342-18.951.01-34.32-12.216-34.327-27.308-.008-15.092 15.349-27.333 34.3-27.343 18.951-.009 34.32 12.218 34.327 27.309z" fill="#fff"/><path d="m284.522 382.493c.008 15.091 15.376 27.317 34.327 27.308s34.307-12.251 34.3-27.342c-.008-15.092-15.376-27.318-34.327-27.309-18.951.01-34.308 12.252-34.3 27.343z" fill="#fff"/><path d="m259.469 370.152c-.01-20.787-15.07-22.733-33.647-22.723-18.576.009-33.634 1.97-33.624 22.757s15.078 37.63 33.654 37.621c18.577-.009 33.627-16.868 33.617-37.655z" fill="#4e5660"/></g><g fill="#4e5660"><path d="m136.495 360.333c-4.141 0-7.498-3.355-7.5-7.497-.006-13.141 10.68-23.837 23.82-23.844h.014c6.36 0 12.342 2.476 16.842 6.972 4.504 4.499 6.985 10.482 6.989 16.849.002 4.142-3.354 7.501-7.496 7.504-.001 0-.003 0-.004 0-4.141 0-7.498-3.355-7.5-7.496-.001-2.359-.921-4.577-2.59-6.245-1.668-1.666-3.885-2.583-6.242-2.583-.002 0-.003 0-.005 0-4.87.002-8.83 3.967-8.828 8.837.002 4.142-3.354 7.501-7.497 7.503-.001 0-.002 0-.003 0z"/><path d="m282.49 360.259c-4.141 0-7.498-3.355-7.5-7.496-.004-6.366 2.473-12.352 6.972-16.855 4.499-4.504 10.482-6.986 16.849-6.989h.012c6.362 0 12.343 2.475 16.844 6.972 4.504 4.499 6.985 10.483 6.988 16.849.002 4.142-3.354 7.501-7.497 7.503-.001 0-.002 0-.003 0-4.141 0-7.498-3.355-7.5-7.497-.001-2.359-.921-4.576-2.59-6.244-1.668-1.667-3.885-2.584-6.242-2.584-.001 0-.003 0-.004 0-2.359.001-4.577.921-6.244 2.59-1.668 1.669-2.585 3.887-2.584 6.247.002 4.142-3.353 7.501-7.496 7.504-.002 0-.004 0-.005 0z"/></g></g><path d="m413.75 279.021h-375.82c-15.062 0-27.272-12.21-27.272-27.273v-21.736c0-15.062 12.21-27.273 27.272-27.273h375.82c15.062 0 27.272 12.21 27.272 27.273v21.736c0 15.062-12.21 27.273-27.272 27.273z" fill="#fbf1cf"/><path d="m317.474 0h-183.268c-34.174 0-63.22 24.969-68.35 58.755l-21.862 143.985h363.692l-21.862-143.985c-5.13-33.786-34.177-58.755-68.35-58.755z" fill="#fbf1cf"/><path d="m303.815 0h-155.95v77.176c0 28.491 23.096 51.588 51.587 51.588h52.774c28.491 0 51.587-23.097 51.587-51.588v-77.176z" fill="#f5e2a2"/><path d="m441.241 52.822 22.693 4.021c10.557 1.871 16.155 13.559 10.995 22.957-3.931 7.159-1.699 16.137 5.126 20.624l14.229 9.353c8.862 5.825 9.493 18.589 1.25 25.261l-21.971 17.781c-10.078 8.156-24.21 9.052-35.237 2.233l-17.719-10.956c-5.321-3.29-11.525-4.865-17.771-4.511l-17.45.989c-17.5.992-32.236-12.932-32.236-30.461v-41.545c0-4.622 2.041-9.007 5.578-11.983l34.277-28.843c6.351-5.344 15.769-4.805 21.469 1.23l18.116 19.182c2.306 2.445 5.34 4.081 8.651 4.668z" fill="#e0b799"/><g fill="#d1986f"><path d="m392.525 96.825c-1.919 0-3.839-.732-5.304-2.197-2.929-2.929-2.929-7.678 0-10.606l6.608-6.608c2.93-2.929 7.678-2.929 10.607 0s2.929 7.678 0 10.606l-6.608 6.608c-1.464 1.464-3.384 2.197-5.303 2.197z"/><path d="m437.989 115.947c-1.919 0-3.838-.732-5.303-2.196l-2.897-2.897c-2.93-2.929-2.93-7.677-.001-10.606 2.928-2.93 7.677-2.93 10.606-.001l2.898 2.897c2.93 2.929 2.93 7.677.001 10.606-1.464 1.465-3.385 2.197-5.304 2.197z"/></g><path d="m43.994 202.74h363.692l-6.963-45.859h-349.766z" fill="#f5e2a2"/></g></svg>