<svg height="512" viewBox="0 0 52 59" width="512" xmlns="http://www.w3.org/2000/svg"><g id="Page-1" fill="none" fill-rule="evenodd"><g id="034---Trash" fill-rule="nonzero"><path id="Shape" d="m37 10h-22c-.5522847 0-1-.44771525-1-1v-4.571c-.1094933-2.32440222 1.6764921-4.30193459 4-4.429h16c2.3235079.12706541 4.1094933 2.10459778 4 4.429v4.571c0 .55228475-.4477153 1-1 1zm-21-2h20v-3.571c.1054907-1.21903966-.7833761-2.29856845-2-2.429h-16c-1.2166239.13043155-2.1054907 1.20996034-2 2.429z" fill="#35495e"/><path id="Shape" d="m40.38 59h-28.76c-2.05426131.0000258-3.77457387-1.5560358-3.98-3.6l-3.64-36.4h44l-3.64 36.4c-.2054261 2.0439642-1.9257387 3.6000258-3.98 3.6z" fill="#3f5c6c"/><rect id="Rectangle-path" fill="#4482c3" height="11" rx="3" width="52" y="8"/><path id="Shape" d="m11 24h-2c-.55228475 0-1-.4477153-1-1s.44771525-1 1-1h2c.5522847 0 1 .4477153 1 1s-.4477153 1-1 1z" fill="#fff"/><path id="Shape" d="m34 24h-19c-.5522847 0-1-.4477153-1-1s.4477153-1 1-1h19c.5522847 0 1 .4477153 1 1s-.4477153 1-1 1z" fill="#fff"/><g fill="#2c3e50"><path id="Shape" d="m26 55c-.5522847 0-1-.4477153-1-1v-26c0-.5522847.4477153-1 1-1s1 .4477153 1 1v26c0 .5522847-.4477153 1-1 1z"/><path id="Shape" d="m20 55c-.5370335.0004298-.9785188-.4233961-1-.96l-.08-2c-.0220914-.5522847.4077153-1.0179086.96-1.04s1.0179086.4077153 1.04.96l.08 2c.0108235.265273-.0842861.5239618-.2643652.7190475s-.4303448.3105535-.6956348.3209525z"/><path id="Shape" d="m19.77 49c-.537406.0004088-.9790413-.4240027-1-.961l-.77-20c-.0105476-.2652704.0848201-.523848.2650846-.7187437.1802645-.1948958.4306292-.3101122.6959154-.3202563.2660783-.0146938.5267388.0791587.7223784.2600971s.3095274.4334889.3156216.6999029l.77 20c.0108235.265273-.0842861.5239618-.2643652.7190475s-.4303448.3105535-.6956348.3209525z"/><path id="Shape" d="m14 55c-.5079943-.0002442-.9350887-.3813174-.993-.886l-.23-2c-.0629604-.548971.331029-1.0450395.88-1.108.548971-.0629604 1.0450395.331029 1.108.88l.23 2c.0303755.2636513-.0453001.5285638-.2103582.736387s-.4059593.3415096-.6696418.371613c-.0382033.0039938-.0765885.0059965-.115.006z"/><path id="Shape" d="m13.309 49c-.5072723-.0006927-.9336641-.3810927-.992-.885l-2.31-20c-.05155893-.3600185.0964088-.719645.3864042-.9391315s.676291-.2642236 1.0087753-.1168269c.3324844.1473967.5587303.4636852.5908205.8259584l2.31 20c.0633041.5483593-.3296868 1.0442978-.878 1.108-.038479.0047916-.077224.0071297-.116.007z"/><path id="Shape" d="m32 55h-.04c-.26529-.010399-.5155557-.1258668-.6956348-.3209525s-.2751887-.4537745-.2643652-.7190475l1-26c.0215391-.5522847.4867153-.9825391 1.039-.961s.9825391.4867153.961 1.039l-1 26c-.0204355.5373906-.4622211.9623884-1 .962z"/><path id="Shape" d="m38 55c-.0384108-.0000302-.0767946-.0020329-.115-.006-.2636825-.0301034-.5045837-.1637898-.6696418-.371613s-.2407337-.4727357-.2103582-.736387l.23-2c.0629605-.548971.559029-.9429604 1.108-.88.548971.0629605.9429604.559029.88 1.108l-.23 2c-.0579113.5046826-.4850057.8857558-.993.886z"/><path id="Shape" d="m38.691 49c-.038776.0001297-.077521-.0022084-.116-.007-.5483132-.0637022-.9413041-.5596407-.878-1.108l2.31-20c.0320902-.3622732.2583361-.6785617.5908205-.8259584.3324843-.1473967.7187799-.1026596 1.0087753.1168269s.4379631.579113.3864042.9391315l-2.31 20c-.0583359.5039073-.4847277.8843073-.992.885z"/></g></g></g></svg>