<svg height="512" viewBox="0 0 64 64" width="512" xmlns="http://www.w3.org/2000/svg" xmlns:xlink="http://www.w3.org/1999/xlink"><linearGradient id="linear-gradient" gradientUnits="userSpaceOnUse" x1="-11.133" x2="11.793" y1="56" y2="56"><stop offset="0" stop-color="#f3f7ff"/><stop offset="1" stop-color="#cdd9ff"/></linearGradient><linearGradient id="linear-gradient-2" x1="0" x2="8" xlink:href="#linear-gradient" y1="31.995" y2="31.995"/><linearGradient id="linear-gradient-3" x1="0" x2="25.97" xlink:href="#linear-gradient" y1="13.985" y2="13.985"/><linearGradient id="linear-gradient-4" gradientUnits="userSpaceOnUse" x1="18.359" x2="21.155" y1="-7.763" y2="45.888"><stop offset="0" stop-color="#048ac4"/><stop offset="1" stop-color="#35489b"/></linearGradient><linearGradient id="linear-gradient-5" x1="9.894" x2="9.894" xlink:href="#linear-gradient-4" y1="-13.056" y2="35.791"/><linearGradient id="linear-gradient-6" gradientTransform="matrix(-1 0 0 1 25.97 0)" x1="-49.163" x2="-26.237" xlink:href="#linear-gradient" y1="56" y2="56"/><linearGradient id="linear-gradient-7" gradientTransform="matrix(-1 0 0 1 25.97 0)" x1="-38.03" x2="-30.03" xlink:href="#linear-gradient" y1="31.995" y2="31.995"/><linearGradient id="linear-gradient-8" gradientTransform="matrix(-1 0 0 1 25.97 0)" x1="-38.03" x2="-12.06" xlink:href="#linear-gradient" y1="13.985" y2="13.985"/><linearGradient id="linear-gradient-9" gradientTransform="matrix(-1 0 0 1 25.97 0)" x1="-19.671" x2="-16.874" xlink:href="#linear-gradient-4" y1="-7.763" y2="45.888"/><linearGradient id="linear-gradient-10" gradientTransform="matrix(-1 0 0 1 25.97 0)" x1="-28.136" x2="-28.136" xlink:href="#linear-gradient-4" y1="-13.056" y2="35.791"/><g id="Earphone"><path d="m7 49h-6a1 1 0 0 0 -1 1v10a3 3 0 0 0 3 3h2a3 3 0 0 0 3-3v-10a1 1 0 0 0 -1-1z" fill="url(#linear-gradient)"/><path d="m7.479 23.482a10.983 10.983 0 0 1 -5.459-9.49 1.018 1.018 0 0 0 -1.02-1 1 1 0 0 0 -1 1v37.008h8v-26.64a1.022 1.022 0 0 0 -.521-.878z" fill="url(#linear-gradient-2)"/><path d="m16.97 1h-3.59a13.234 13.234 0 0 0 -13.38 12.988 12.977 12.977 0 0 0 12.98 12.982h3.99a9.01 9.01 0 0 0 9-9v-7.97a9.01 9.01 0 0 0 -9-9z" fill="url(#linear-gradient-3)"/><path d="m19.493 6.767a2.5 2.5 0 0 0 -2.5 2.5v9.433a2.5 2.5 0 0 0 5 0v-9.433a2.5 2.5 0 0 0 -2.5-2.5z" fill="url(#linear-gradient-4)"/><path d="m11.507 7h-3.227a2.5 2.5 0 0 0 0 5h3.227a2.5 2.5 0 0 0 0-5z" fill="url(#linear-gradient-5)"/><path d="m57 49h6a1 1 0 0 1 1 1v10a3 3 0 0 1 -3 3h-2a3 3 0 0 1 -3-3v-10a1 1 0 0 1 1-1z" fill="url(#linear-gradient-6)"/><path d="m56.521 23.482a10.983 10.983 0 0 0 5.459-9.49 1.018 1.018 0 0 1 1.02-1 1 1 0 0 1 1 1v37.008h-8v-26.64a1.022 1.022 0 0 1 .521-.878z" fill="url(#linear-gradient-7)"/><path d="m47.03 1h3.59a13.234 13.234 0 0 1 13.38 12.988 12.977 12.977 0 0 1 -12.98 12.982h-3.99a9.01 9.01 0 0 1 -9-9v-7.97a9.01 9.01 0 0 1 9-9z" fill="url(#linear-gradient-8)"/><path d="m44.507 6.767a2.5 2.5 0 0 1 2.5 2.5v9.433a2.5 2.5 0 0 1 -5 0v-9.433a2.5 2.5 0 0 1 2.5-2.5z" fill="url(#linear-gradient-9)"/><path d="m52.493 7h3.227a2.5 2.5 0 0 1 0 5h-3.227a2.5 2.5 0 0 1 0-5z" fill="url(#linear-gradient-10)"/></g></svg>