<svg height="512" viewBox="0 0 512 512" width="512" xmlns="http://www.w3.org/2000/svg"><g id="flat"><path d="m336 488h-160a48 48 0 0 1 -48-48v-168c0-22.091 17.909-32 40-32h176c22.091 0 40 9.909 40 32v168a48 48 0 0 1 -48 48z" fill="#ebebeb"/><rect fill="#428dc5" height="80" rx="40" width="256" x="128" y="232"/><path d="m192 312a18.42 18.42 0 0 1 -15.328-8.2l-7.437-11.156a18.418 18.418 0 0 1 -3.094-10.219 18.422 18.422 0 0 1 18.422-18.425h142.874a18.422 18.422 0 0 1 18.422 18.422 18.418 18.418 0 0 1 -3.094 10.219l-7.437 11.159a18.42 18.42 0 0 1 -15.328 8.2z" fill="#3775a4"/><path d="m328 24a48 48 0 0 0 -48 48v168h32v-98.429a23.592 23.592 0 0 1 2.492-10.554l.426-.854a23.98 23.98 0 0 1 18.631-12.915 44.362 44.362 0 0 0 8.491-1.928l3.6-1.2a44.4 44.4 0 0 0 30.36-42.12 48 48 0 0 0 -48-48z" fill="#ebebeb"/><circle cx="336" cy="56" fill="#8dc79d" r="8"/><path d="m312 88a8 8 0 0 1 -8-8v-16a8 8 0 0 1 16 0v16a8 8 0 0 1 -8 8z" fill="#4799cf"/><path d="m300 264h-8a12 12 0 0 1 -12-12v-20h32v20a12 12 0 0 1 -12 12z" fill="#d9d9d9"/><path d="m192 72a48 48 0 0 1 48 48v168h-32v-90.429c0-3.664-.853-15.277-2.492-18.554l-.426-.854a23.98 23.98 0 0 0 -18.631-12.915 44.362 44.362 0 0 1 -8.491-1.928l-3.6-1.2a44.4 44.4 0 0 1 -30.36-42.12 48 48 0 0 1 48-48z" fill="#ebebeb"/><circle cx="184" cy="104" fill="#8dc79d" r="8"/><path d="m208 136a8 8 0 0 1 -8-8v-16a8 8 0 0 1 16 0v16a8 8 0 0 1 -8 8z" fill="#4799cf"/><path d="m220 312h8a12 12 0 0 0 12-12v-20h-32v20a12 12 0 0 0 12 12z" fill="#d9d9d9"/><g fill="#99d8aa"><path d="m302.343 387.2a65.612 65.612 0 0 0 -92.686 0l-11.314-11.314a81.632 81.632 0 0 1 115.314 0z"/><path d="m229.657 407.2-11.314-11.314a53.255 53.255 0 0 1 75.314 0l-11.314 11.314a37.254 37.254 0 0 0 -52.686 0z"/><path d="m261.657 427.882a8 8 0 0 0 -11.313 0l-11.315-11.313a24 24 0 0 1 33.942 0z"/></g><path d="m332 464a8 8 0 0 1 0-16 12.013 12.013 0 0 0 12-12v-52a8 8 0 0 1 16 0v52a28.032 28.032 0 0 1 -28 28z" fill="#f9f9f9"/><path d="m352 360a8 8 0 0 1 -8-8v-8a8 8 0 0 1 16 0v8a8 8 0 0 1 -8 8z" fill="#f9f9f9"/></g></svg>