<svg id="Layer_1" enable-background="new 0 0 511.951 511.951" height="512" viewBox="0 0 511.951 511.951" width="512" xmlns="http://www.w3.org/2000/svg"><g><g><path d="m255.976 454.843c-34.719 0-62.965-28.246-62.965-62.966 0-34.719 28.246-62.965 62.965-62.965s62.965 28.246 62.965 62.965c0 34.72-28.246 62.966-62.965 62.966z" fill="#636978"/></g><g><g><path d="m126.831 353.432c-13.931 0-27.027-5.425-36.877-15.275s-15.275-22.946-15.275-36.876 5.425-27.027 15.275-36.877c44.279-44.279 103.24-68.666 166.021-68.666s121.742 24.386 166.021 68.666c9.851 9.85 15.275 22.946 15.275 36.876s-5.425 27.027-15.275 36.877-22.947 15.275-36.876 15.275c-13.931 0-27.027-5.425-36.877-15.275-50.876-50.876-133.659-50.877-184.537 0-9.849 9.85-22.945 15.275-36.875 15.275z" fill="#4ab8f7"/></g></g><g><g><path d="m52.127 245.848c-13.93 0-27.026-5.425-36.876-15.275-20.334-20.333-20.334-53.419 0-73.753 64.299-64.3 149.791-99.712 240.725-99.712s176.425 35.412 240.725 99.711c20.334 20.334 20.334 53.419.001 73.753-9.851 9.85-22.948 15.275-36.878 15.275-13.93 0-27.026-5.425-36.876-15.275-92.068-92.068-241.875-92.067-333.944 0-9.85 9.851-22.946 15.276-36.877 15.276z" fill="#4ab8f7"/></g></g><path d="m318.941 391.877c0-34.719-28.246-62.965-62.965-62.965v125.931c34.719 0 62.965-28.246 62.965-62.966z" fill="#414952"/><g fill="#4a7aff"><path d="m348.244 338.156c9.85 9.851 22.946 15.275 36.877 15.275 13.93 0 27.026-5.425 36.876-15.275 9.851-9.85 15.275-22.947 15.275-36.877s-5.425-27.027-15.275-36.876c-44.279-44.28-103.24-68.666-166.021-68.666v104.261c33.415.001 66.829 12.72 92.268 38.158z"/><path d="m422.947 230.573c9.85 9.85 22.946 15.275 36.876 15.275 13.93 0 27.027-5.425 36.878-15.275 20.333-20.334 20.333-53.419-.001-73.753-64.3-64.3-149.791-99.711-240.725-99.711v104.414c60.47-.001 120.938 23.016 166.972 69.05z"/></g></g></svg>