<svg height="512" viewBox="0 0 512 512" width="512" xmlns="http://www.w3.org/2000/svg"><g id="Flat"><path d="m424 200v-72a72 72 0 0 0 -72-72h-120" fill="#bdbdbc"/><path d="m160 56h192a72 72 0 0 1 72 72v112a0 0 0 0 1 0 0h-336a0 0 0 0 1 0 0v-112a72 72 0 0 1 72-72z" fill="#bdbdbc"/><path d="m297.262 209.243a53.893 53.893 0 0 0 -1.262 11.6v166.157a13 13 0 0 1 -13 13h-14a13 13 0 0 1 -13-13v-187c0-64 16-104 72-104 48 0 64 40 64 40v56s-38.667 56.936-94.667 16.936z" fill="#e4e4e3"/><g fill="#b3b1b3"><path d="m344 160h16v16h-16z"/><path d="m283 400h-14a13 13 0 0 1 -13-13v-19h40v19a13 13 0 0 1 -13 13z"/><path d="m307.075 204.307a45.527 45.527 0 0 1 11.883-17.373 8.055 8.055 0 0 0 1.372-10.44 8 8 0 0 0 -12-1.521 61.414 61.414 0 0 0 -16.253 23.763 8 8 0 0 0 5.77 10.635 8.055 8.055 0 0 0 9.228-5.064z"/></g><path d="m424 200v214a74 74 0 0 1 -74 74h-188a74 74 0 0 1 -74-74v-214z" fill="#cacac9"/><path d="m344 200-24 24h-120v-24z" fill="#b3b1b3"/><path d="m174.738 137.243a53.893 53.893 0 0 1 1.262 11.6v166.157a13 13 0 0 0 13 13h14a13 13 0 0 0 13-13v-187c0-64-16-104-72-104-48 0-64 40-64 40v56s38.667 56.936 94.667 16.936z" fill="#e4e4e3"/><path d="m112 88h16v16h-16z" fill="#b3b1b3"/><path d="m189 328h14a13 13 0 0 0 13-13v-19h-40v19a13 13 0 0 0 13 13z" fill="#b3b1b3"/><path d="m164.925 132.307a45.527 45.527 0 0 0 -11.883-17.373 8.055 8.055 0 0 1 -1.372-10.44 8 8 0 0 1 12-1.521 61.414 61.414 0 0 1 16.253 23.763 8 8 0 0 1 -5.77 10.635 8.055 8.055 0 0 1 -9.228-5.064z" fill="#b3b1b3"/><path d="m248 256h16v16h-16z" fill="#85bb40"/></g></svg>