<svg id="Capa_1" enable-background="new 0 0 497 497" height="512" viewBox="0 0 497 497" width="512" xmlns="http://www.w3.org/2000/svg"><g><g><path d="m176.854 397.215v36.235c0 15.838 5.802 30.316 15.39 41.44 11.023 12.788 27.05 21.14 45.045 22 1.022.049 2.049.078 3.084.078 7.938.256 15.542-.989 22.564-3.455 23.88-8.386 40.957-31.038 40.957-58.05v-38.248l-51.265-51.265-12.255-12.255z" fill="#8288cb"/><path d="m441 5.371c-2.389-.654-4.823-1.206-7.309-1.631-14.348-2.45-29.234-3.74-44.496-3.74-30.56 0-59.605 5.174-85.86 14.472-74.497 26.382-126.48 86.03-126.48 155.4v227.342h75.774 51.265v-71.747c26.108 9.174 54.958 14.277 85.301 14.277 5.655 0 11.257-.181 16.801-.529 9.612-.602 19.045-1.714 28.254-3.307 2.091-.362 4.145-.818 6.166-1.345 33.154-8.643 56.584-38.987 56.584-73.787v-181.303-.418c0-34.631-23.192-64.697-56-73.684z" fill="#d4d4ff"/></g><g><path d="m176.854 397.215v36.235c0 15.838 5.802 30.316 15.39 41.44 11.745 13.626 29.047 22.08 48.129 22.078 7.938.256 15.542-.989 22.564-3.455-6.546-11.289-10.308-24.391-10.308-38.38 0-54.146 0-39.562 0-57.918z" fill="#676fb2"/><path d="m303.335 14.472c-74.497 26.382-126.48 86.03-126.48 155.4v227.342h75.774v-260.284c0-45.904 18.856-88.284 50.706-122.458z" fill="#9ea2e3"/></g><g><g><g><ellipse cx="297.371" cy="224.063" fill="#ff8e9e" rx="29.355" ry="23.377"/></g><g><ellipse cx="456.484" cy="224.063" fill="#ff8e9e" rx="29.355" ry="23.377"/></g></g></g><g fill="#313d40"><path d="m314.479 182.06c-4.143 0-7.5 3.358-7.5 7.5v12c0 4.142 3.357 7.5 7.5 7.5s7.5-3.358 7.5-7.5v-12c0-4.142-3.358-7.5-7.5-7.5z"/><path d="m439.376 182.06c-4.143 0-7.5 3.358-7.5 7.5v12c0 4.142 3.357 7.5 7.5 7.5s7.5-3.358 7.5-7.5v-12c0-4.142-3.357-7.5-7.5-7.5z"/><path d="m398.319 195.549c-3.122-2.722-7.86-2.397-10.582.726-5.725 6.57-15.899 6.565-21.62 0-2.721-3.123-7.459-3.448-10.581-.727-3.123 2.721-3.449 7.458-.728 10.582 11.702 13.43 32.542 13.418 44.237 0 2.722-3.122 2.397-7.859-.726-10.581z"/></g><path d="m72.999 350.006c-2.287 0-4.583-.522-6.706-1.583-5.082-2.541-8.292-7.735-8.292-13.417v-57l-34 25.5c-6.628 4.97-16.028 3.627-21-3-4.971-6.627-3.627-16.029 3-21l42-31.5-42-31.5c-6.627-4.971-7.971-14.373-3-21 4.97-6.627 14.373-7.971 21-3l34 25.5v-57c0-5.682 3.21-10.875 8.292-13.417s11.164-1.992 15.708 1.417l58 43.5c3.777 2.833 6 7.279 6 12s-2.223 9.167-6 12l-42 31.5 42 31.5c3.777 2.833 6 7.279 6 12s-2.223 9.167-6 12l-58 43.5c-2.647 1.985-5.815 3-9.002 3zm15.002-72v27l18-13.5zm0-87v27l18-13.5z" fill="#64b3fb"/></g></svg>