<svg id="Capa_1" enable-background="new 0 0 510 510" height="512" viewBox="0 0 510 510" width="512" xmlns="http://www.w3.org/2000/svg" xmlns:xlink="http://www.w3.org/1999/xlink"><linearGradient id="SVGID_1_" gradientUnits="userSpaceOnUse" x1="198.896" x2="413.047" y1="313.272" y2="527.423"><stop offset="0" stop-color="#8a7889"/><stop offset="1" stop-color="#6e566e"/></linearGradient><linearGradient id="lg1"><stop offset="0" stop-color="#6e566e" stop-opacity="0"/><stop offset=".2944" stop-color="#674d66" stop-opacity=".294"/><stop offset="1" stop-color="#593b56"/></linearGradient><linearGradient id="SVGID_2_" gradientUnits="userSpaceOnUse" x1="429.256" x2="348.255" xlink:href="#lg1" y1="295.947" y2="241.455"/><linearGradient id="SVGID_3_" gradientUnits="userSpaceOnUse" x1="286.415" x2="286.415" xlink:href="#lg1" y1="452.868" y2="397.665"/><linearGradient id="SVGID_4_" gradientUnits="userSpaceOnUse" x1="80.464" x2="145.265" xlink:href="#lg1" y1="340.737" y2="322.328"/><linearGradient id="lg2"><stop offset="0" stop-color="#cdec7a"/><stop offset=".34" stop-color="#c1ea76"/><stop offset=".9563" stop-color="#a1e66b"/><stop offset="1" stop-color="#9ee66a"/></linearGradient><linearGradient id="SVGID_5_" gradientUnits="userSpaceOnUse" x1="255" x2="255" xlink:href="#lg2" y1="352.722" y2="392.656"/><linearGradient id="SVGID_6_" gradientUnits="userSpaceOnUse" x1="249.822" x2="307.259" xlink:href="#lg2" y1="193.533" y2="379.098"/><linearGradient id="SVGID_7_" gradientUnits="userSpaceOnUse" x1="255" x2="255" xlink:href="#lg2" y1="319.217" y2="301.752"/><linearGradient id="SVGID_8_" gradientUnits="userSpaceOnUse" x1="255" x2="255" xlink:href="#lg2" y1="280.31" y2="262.846"/><linearGradient id="SVGID_9_" gradientUnits="userSpaceOnUse" x1="255" x2="255" xlink:href="#lg2" y1="241.404" y2="223.939"/><linearGradient id="lg3"><stop offset="0" stop-color="#9ee66a" stop-opacity="0"/><stop offset=".1524" stop-color="#93e267" stop-opacity=".152"/><stop offset=".4172" stop-color="#77d660" stop-opacity=".417"/><stop offset=".7603" stop-color="#49c254" stop-opacity=".76"/><stop offset="1" stop-color="#25b34b"/></linearGradient><linearGradient id="SVGID_10_" gradientUnits="userSpaceOnUse" x1="290.958" x2="240.885" xlink:href="#lg3" y1="319.344" y2="97.696"/><linearGradient id="lg4"><stop offset="0" stop-color="#f8f6fb"/><stop offset="1" stop-color="#efdcfb"/></linearGradient><linearGradient id="SVGID_11_" gradientUnits="userSpaceOnUse" x1="166.591" x2="194.583" xlink:href="#lg4" y1="64.863" y2="64.863"/><linearGradient id="SVGID_12_" gradientUnits="userSpaceOnUse" x1="309.352" x2="337.344" xlink:href="#lg4" y1="64.863" y2="64.863"/><linearGradient id="SVGID_13_" gradientUnits="userSpaceOnUse" x1="251.86" x2="257.383" xlink:href="#lg2" y1="100.269" y2="178.693"/><linearGradient id="SVGID_14_" gradientUnits="userSpaceOnUse" x1="298.892" x2="142.045" xlink:href="#lg3" y1="243.549" y2="384.195"/><g><path d="m360.819 510c-70.53 0-127.91-57.38-127.91-127.91v-2.177c0-12.201 9.89-22.091 22.091-22.091s22.091 9.89 22.091 22.091v2.177c0 46.168 37.56 83.728 83.728 83.728s83.728-37.56 83.728-83.728v-32.658c0-46.168-37.56-83.728-83.728-83.728h-211.638c-46.168 0-83.728 37.56-83.728 83.728v83.633c0 12.201-9.89 22.091-22.091 22.091s-22.091-9.89-22.091-22.091v-83.633c0-70.53 57.38-127.91 127.91-127.91h211.638c70.53 0 127.91 57.38 127.91 127.91v32.658c0 70.53-57.38 127.91-127.91 127.91z" fill="url(#SVGID_1_)"/><path d="m360.819 221.522h-3.523v44.182h3.523c46.168 0 83.728 37.56 83.728 83.728v11.39h44.182v-11.39c0-70.53-57.38-127.91-127.91-127.91z" fill="url(#SVGID_2_)"/><path d="m277.091 382.09v-2.177c0-12.201-9.89-22.091-22.091-22.091s-22.091 9.89-22.091 22.091v2.177c0 30.752 10.911 59.002 29.061 81.088h77.95c-36.088-9.307-62.829-42.134-62.829-81.088z" fill="url(#SVGID_3_)"/><path d="m141.231 221.776c-66.84 4.12-119.96 59.797-119.96 127.656v83.633c0 12.201 9.89 22.091 22.091 22.091s22.091-9.89 22.091-22.091v-83.633c0-43.485 33.326-79.322 75.778-83.34z" fill="url(#SVGID_4_)"/><g><path d="m284.873 400.586h-59.747c-9.123 0-16.518-7.395-16.518-16.518v-23.246h92.783v23.246c0 9.123-7.395 16.518-16.518 16.518z" fill="url(#SVGID_5_)"/><path d="m270.899 376.877h-31.798c-60.759 0-110.014-49.255-110.014-110.014v-129.937h251.826v129.937c0 60.759-49.255 110.014-110.014 110.014z" fill="url(#SVGID_6_)"/><g><path d="m300.287 321.426h-90.574c-7.625 0-13.807-6.182-13.807-13.807 0-7.625 6.182-13.807 13.807-13.807h90.574c7.625 0 13.807 6.182 13.807 13.807 0 7.625-6.182 13.807-13.807 13.807z" fill="url(#SVGID_7_)"/><path d="m300.287 282.52h-90.574c-7.625 0-13.807-6.182-13.807-13.807 0-7.625 6.182-13.807 13.807-13.807h90.574c7.625 0 13.807 6.182 13.807 13.807 0 7.625-6.182 13.807-13.807 13.807z" fill="url(#SVGID_8_)"/><path d="m300.287 243.613h-90.574c-7.625 0-13.807-6.182-13.807-13.807 0-7.625 6.182-13.807 13.807-13.807h90.574c7.625 0 13.807 6.182 13.807 13.807 0 7.625-6.182 13.807-13.807 13.807z" fill="url(#SVGID_9_)"/></g><path d="m129.087 136.926v46.5l186.261 184.094c38.616-17.078 65.565-55.717 65.565-100.657v-129.937z" fill="url(#SVGID_10_)"/><g><path d="m204.33 129.726h-41.421v-109.016c0-11.438 9.272-20.71 20.71-20.71 11.438 0 20.71 9.272 20.71 20.71v109.016z" fill="url(#SVGID_11_)"/><path d="m347.091 129.726h-41.421v-109.016c0-11.438 9.272-20.71 20.71-20.71 11.438 0 20.71 9.272 20.71 20.71v109.016z" fill="url(#SVGID_12_)"/></g><path d="m385.442 183.356h-260.884c-10.923 0-19.778-8.855-19.778-19.778v-37.443c0-10.923 8.855-19.778 19.778-19.778h260.884c10.923 0 19.778 8.855 19.778 19.778v37.443c0 10.924-8.855 19.778-19.778 19.778z" fill="url(#SVGID_13_)"/><path d="m255 376.877h15.899c60.759 0 110.014-49.255 110.014-110.014v-129.937h-125.913z" fill="url(#SVGID_14_)"/></g></g></svg>