<svg height="512" viewBox="0 0 512 512" width="512" xmlns="http://www.w3.org/2000/svg"><g id="Flat"><path d="m112 256v200a32 32 0 0 0 32 32h224a32 32 0 0 0 32-32v-200z" fill="#348fd9"/><rect fill="#a8deea" height="96" rx="48" width="288" x="112" y="112"/><rect fill="#4db7e5" height="96" rx="48" width="288" x="112" y="208"/><path d="m224 320h64l8-16h-80z" fill="#266cad"/><path d="m248 344h16v16h-16z" fill="#4db7e5"/><path d="m176 24c-28.415 0-45.436 18.007-64 36.571v54.857c18.564 18.565 35.585 36.572 64 36.572a63.789 63.789 0 0 0 24-4.67v116.67h40v-176a64 64 0 0 0 -64-64z" fill="#ffb531"/><path d="m208.156 176h-.312a7.844 7.844 0 0 1 -7.844-7.844v-22.267a20.824 20.824 0 0 0 -6.756-15.423 7.808 7.808 0 0 1 -1.847-9.261l.2-.395a7.833 7.833 0 0 1 12.2-2.386 36.726 36.726 0 0 1 12.203 27.465v22.267a7.844 7.844 0 0 1 -7.844 7.844z" fill="#fa9f0c"/><g fill="#f98500"><path d="m200.845 75.578a20.457 20.457 0 0 0 -16.936-11.578l.091-8v-8a36.433 36.433 0 0 1 31.155 20.422z"/><path d="m136 80h16v16h-16z"/><path d="m200 224h40v16h-40z"/></g><path d="m336 88c28.415 0 45.436 18.007 64 36.571v54.857c-18.564 18.565-35.585 36.572-64 36.572a63.789 63.789 0 0 1 -24-4.67v52.67h-40v-112a64 64 0 0 1 64-64z" fill="#ffb531"/><path d="m304.156 240h-.312a7.844 7.844 0 0 1 -7.844-7.844v-22.267a36.726 36.726 0 0 1 12.2-27.465 7.833 7.833 0 0 1 12.2 2.386l.2.4a7.808 7.808 0 0 1 -1.847 9.261 20.824 20.824 0 0 0 -6.753 15.418v22.267a7.844 7.844 0 0 1 -7.844 7.844z" fill="#fa9f0c"/><path d="m311.155 139.578-14.31-7.156a36.433 36.433 0 0 1 31.155-20.422v16h.091a20.457 20.457 0 0 0 -16.936 11.578z" fill="#f98500"/><path d="m360 144h16v16h-16z" fill="#f98500"/><path d="m136 328h16v16h-16z" fill="#459de6"/><path d="m136 360h16v80h-16z" fill="#459de6"/><path d="m280 80h-16a68.8 68.8 0 0 0 -20.284-48.971l-1.373-1.372 11.314-11.314 1.372 1.373a84.694 84.694 0 0 1 24.971 60.284z" fill="#a8deea"/></g></svg>