<svg id="Capa_1" enable-background="new 0 0 497 497" height="512" viewBox="0 0 497 497" width="512" xmlns="http://www.w3.org/2000/svg"><g><path d="m456.05 228.155-.08-.091c-17.62-20.132-23.919-47.783-16.758-73.56l.027-.097c1.75-6.3-1.441-12.921-7.46-15.476l-.027-.012c-24.667-10.471-42.389-32.677-47.129-59.052l-.008-.045c-1.155-6.428-6.892-11.006-13.416-10.708l-.125.006c-26.722 1.224-52.265-11.088-67.954-32.754l-.065-.09c-3.835-5.295-11.001-6.928-16.75-3.815-23.586 12.768-52.023 12.768-75.61 0-5.75-3.112-12.916-1.48-16.75 3.815l-.065.089c-15.689 21.666-41.232 33.978-67.954 32.754l-.079-.004c-6.55-.3-12.309 4.297-13.469 10.75-4.74 26.375-22.462 48.58-47.129 59.052-6.034 2.562-9.234 9.2-7.48 15.517l.019.069c7.162 25.777.862 53.428-16.758 73.56l-.08.091c-4.299 4.911-4.299 12.246 0 17.157l.08.091c17.62 20.132 23.919 47.783 16.758 73.56l-.027.097c-1.75 6.3 1.441 12.921 7.46 15.476l.027.012c24.667 10.471 42.389 32.677 47.129 59.052h272.246c4.74-26.375 22.462-48.58 47.129-59.052l.028-.012c6.019-2.555 9.21-9.176 7.46-15.476l-.027-.098c-7.162-25.777-.862-53.428 16.758-73.56l.08-.091c4.298-4.909 4.298-12.243-.001-17.155z" fill="#ff748f"/><path d="m123.045 231.708-1.373-34.697c-33.165 1.314-61.69-10.858-76.86-19.003-2.972-9.235-11.631-15.92-21.854-15.92-12.679.001-22.958 10.279-22.958 22.959s10.279 22.958 22.958 22.958c1.263 0 2.5-.106 3.708-.302 17.624 9.722 50.417 24.132 89.987 24.132 2.108-.001 4.247-.042 6.392-.127z" fill="#f9f097"/><path d="m373.955 231.708 1.372-34.697c33.165 1.314 61.69-10.858 76.86-19.003 2.972-9.235 11.631-15.92 21.854-15.92 12.679 0 22.958 10.279 22.958 22.958s-10.279 22.958-22.958 22.958c-1.263 0-2.5-.106-3.708-.302-17.624 9.722-50.417 24.132-89.987 24.132-2.107 0-4.246-.041-6.391-.126z" fill="#f9f097"/><path d="m429.764 224.561c-.79-11.882-2.725-23.454-5.7-34.607-13.921 4.471-30.634 7.774-48.737 7.057l-1.372 34.697c2.146.085 4.284.126 6.393.126 18.175 0 34.914-3.043 49.416-7.273z" fill="#fccb88"/><circle cx="248.5" cy="236.734" fill="#f9f097" r="151.681"/><path d="m328.5 361.415c-101.878 0-184.467-75.053-184.467-167.636 0-32.087 9.926-62.064 27.131-87.545-33.284 19.767-58.358 51.901-68.891 90.069-10.656-1.174-20.554-3.527-29.338-6.349-2.975 11.154-4.91 22.726-5.7 34.607 9.091 2.651 19.062 4.836 29.714 6.098-.079 2.016-.132 4.039-.132 6.075 0 83.771 67.91 151.681 151.681 151.681 32.177 0 62.007-10.028 86.555-27.117-2.175.069-4.358.117-6.553.117z" fill="#fccb88"/><path d="m405.731 370.839c-3.638 0-7.175.421-10.579 1.194-3.676-22.652-23.319-39.949-47.01-39.949-9.215 0-17.814 2.624-25.105 7.155-11.849-29.549-40.755-50.419-74.538-50.419s-62.69 20.87-74.538 50.419c-7.29-4.531-15.889-7.155-25.105-7.155-23.691 0-43.333 17.297-47.01 39.949-3.404-.772-6.941-1.194-10.579-1.194-26.308 0-47.636 21.327-47.636 47.636 0 26.308 21.327 47.636 47.636 47.636h314.463c26.308 0 47.636-21.327 47.636-47.636.001-26.309-21.326-47.636-47.635-47.636z" fill="#e2e2e2"/><g><g><g><ellipse cx="174.787" cy="416.549" fill="#ff9dd3" rx="27.199" ry="21.66"/></g><g><ellipse cx="322.213" cy="416.549" fill="#ff9dd3" rx="27.199" ry="21.66"/></g></g></g><g><path d="m190.639 402.164c-7.547 0-14.723-3.268-19.688-8.966-2.722-3.123-2.396-7.86.727-10.582 3.122-2.721 7.859-2.396 10.582.727 2.116 2.428 5.17 3.821 8.38 3.821 3.209 0 6.263-1.393 8.379-3.821 2.722-3.123 7.457-3.448 10.582-.727 3.122 2.721 3.448 7.459.727 10.582-4.968 5.698-12.144 8.966-19.689 8.966z" fill="#423e4f"/></g><g><path d="m306.362 402.164c-7.546 0-14.722-3.268-19.688-8.965-2.722-3.122-2.397-7.86.726-10.582 3.122-2.722 7.86-2.397 10.581.725 2.117 2.429 5.172 3.822 8.381 3.822s6.263-1.393 8.379-3.821c2.723-3.123 7.457-3.448 10.582-.727 3.122 2.721 3.448 7.459.727 10.582-4.966 5.698-12.142 8.966-19.688 8.966z" fill="#423e4f"/></g><ellipse cx="248.5" cy="407.427" fill="#423e4f" rx="10.85" ry="11.572"/><ellipse cx="164.469" cy="216.3" fill="#ff9dd3" rx="31.006" ry="24.692"/><ellipse cx="332.531" cy="216.3" fill="#ff9dd3" rx="31.006" ry="24.692"/><ellipse cx="248.5" cy="197.329" fill="#423e4f" rx="16.459" ry="18.417"/><g><path d="m200.043 193.809c-4.143 0-7.5-3.358-7.5-7.5 0-3.471-2.824-6.295-6.295-6.295-3.472 0-6.296 2.824-6.296 6.295 0 4.142-3.357 7.5-7.5 7.5s-7.5-3.358-7.5-7.5c0-11.742 9.554-21.295 21.296-21.295s21.295 9.553 21.295 21.295c0 4.142-3.358 7.5-7.5 7.5z" fill="#423e4f"/></g><g><path d="m323.359 193.809c-4.143 0-7.5-3.358-7.5-7.5 0-3.471-2.824-6.295-6.295-6.295-3.472 0-6.296 2.824-6.296 6.295 0 4.142-3.357 7.5-7.5 7.5s-7.5-3.358-7.5-7.5c0-11.742 9.554-21.295 21.296-21.295s21.295 9.553 21.295 21.295c0 4.142-3.357 7.5-7.5 7.5z" fill="#423e4f"/></g><path d="m112.055 349.484c-5.221 6.35-8.832 14.074-10.207 22.548-3.404-.772-6.941-1.193-10.579-1.193-26.308 0-47.636 21.327-47.636 47.635 0 26.309 21.327 47.636 47.636 47.636h75.443c-55.22-32.46-57.557-88.34-54.657-116.626z" fill="#d4d4d2"/></g></svg>