<svg id="Capa_1" enable-background="new 0 0 510 510" height="512" viewBox="0 0 510 510" width="512" xmlns="http://www.w3.org/2000/svg" xmlns:xlink="http://www.w3.org/1999/xlink"><radialGradient id="SVGID_1_" cx="255" cy="267.576" gradientUnits="userSpaceOnUse" r="205.999"><stop offset="0" stop-color="#ffa325"/><stop offset=".3298" stop-color="#ffa627"/><stop offset=".5692" stop-color="#ffaf2c"/><stop offset=".7801" stop-color="#ffbf36"/><stop offset=".9734" stop-color="#ffd543"/><stop offset="1" stop-color="#ffd945"/></radialGradient><linearGradient id="SVGID_2_" gradientUnits="userSpaceOnUse" x1="225.662" x2="284.676" y1="155.947" y2="380.49"><stop offset="0" stop-color="#ffa936"/><stop offset=".4112" stop-color="#ff8548"/><stop offset=".7781" stop-color="#ff6c54"/><stop offset="1" stop-color="#ff6359"/></linearGradient><linearGradient id="SVGID_3_" gradientUnits="userSpaceOnUse" x1="214.037" x2="292.417" y1="239.89" y2="541.98"><stop offset="0" stop-color="#cdec7a"/><stop offset=".2157" stop-color="#b0e995"/><stop offset=".5613" stop-color="#87e4bb"/><stop offset=".8347" stop-color="#6ee1d2"/><stop offset="1" stop-color="#65e0db"/></linearGradient><linearGradient id="lg1"><stop offset="0" stop-color="#cdec7a" stop-opacity="0"/><stop offset=".2354" stop-color="#9ad57d" stop-opacity=".235"/><stop offset=".6035" stop-color="#51b482" stop-opacity=".604"/><stop offset=".8679" stop-color="#239f85" stop-opacity=".868"/><stop offset="1" stop-color="#119786"/></linearGradient><linearGradient id="SVGID_4_" gradientUnits="userSpaceOnUse" x1="254.306" x2="163.61" xlink:href="#lg1" y1="420.017" y2="112.715"/><linearGradient id="SVGID_5_" gradientUnits="userSpaceOnUse" x1="248.087" x2="317.609" xlink:href="#lg1" y1="474.197" y2="282.541"/><linearGradient id="SVGID_6_" gradientUnits="userSpaceOnUse" x1="255.001" x2="255.001" y1="259.823" y2="362.828"><stop offset="0" stop-color="#ffa936"/><stop offset=".9994" stop-color="#cdec7a" stop-opacity="0"/></linearGradient><linearGradient id="SVGID_7_" gradientUnits="userSpaceOnUse" x1="255" x2="255" y1="270.823" y2="370.004"><stop offset="0" stop-color="#cdec7a"/><stop offset=".9994" stop-color="#cdec7a" stop-opacity="0"/></linearGradient><linearGradient id="lg2"><stop offset="0" stop-color="#8a7889"/><stop offset=".3344" stop-color="#867385"/><stop offset=".7039" stop-color="#7b667b"/><stop offset="1" stop-color="#6e566e"/></linearGradient><linearGradient id="SVGID_8_" gradientUnits="userSpaceOnUse" x1="382.072" x2="396.572" xlink:href="#lg2" y1="15.077" y2="54.577"/><linearGradient id="SVGID_9_" gradientUnits="userSpaceOnUse" x1="404.975" x2="417.235" xlink:href="#lg2" y1="96.261" y2="129.658"/><linearGradient id="SVGID_10_" gradientUnits="userSpaceOnUse" x1="436.747" x2="449.006" xlink:href="#lg2" y1="55.558" y2="88.954"/><g><g><g><path d="m490.689 283.681-30.793 41.403c-3.525 4.739-5.397 10.503-5.331 16.409l.582 51.59c.134 11.921-7.569 22.518-18.951 26.067l-49.245 15.356c-5.654 1.763-10.571 5.338-13.993 10.172l-29.782 42.076c-6.898 9.745-19.379 13.8-30.687 9.968l-48.828-16.545c-5.617-1.903-11.704-1.903-17.321 0l-48.828 16.545c-11.308 3.832-23.79-.223-30.687-9.968l-29.782-42.076c-3.422-4.834-8.339-8.409-13.993-10.172l-49.246-15.356c-11.381-3.549-19.085-14.146-18.951-26.067l.582-51.589c.067-5.906-1.806-11.67-5.331-16.409l-30.793-41.404c-7.11-9.559-7.11-22.65 0-32.21l30.793-41.403c3.525-4.739 5.397-10.503 5.331-16.409l-.582-51.59c-.134-11.921 7.569-22.518 18.951-26.067l49.245-15.356c5.654-1.763 10.571-5.338 13.993-10.172l29.782-42.076c6.898-9.745 19.379-13.8 30.687-9.968l48.828 16.545c5.617 1.903 11.704 1.903 17.321 0l48.828-16.545c11.308-3.832 23.79.223 30.687 9.968l29.782 42.076c3.422 4.834 8.339 8.409 13.993 10.172l49.245 15.356c11.381 3.549 19.085 14.146 18.951 26.067l-.582 51.589c-.067 5.906 1.806 11.67 5.331 16.409l30.793 41.404c7.111 9.56 7.111 22.651.001 32.21z" fill="url(#SVGID_1_)"/><circle cx="255" cy="267.576" fill="url(#SVGID_2_)" r="168.597"/></g><g><path d="m47.545 293.517c9.963 6.016 22.44 6.016 32.403 0l15.675-9.465c19.601-11.835 44.145-11.835 63.746 0l.002.001c19.601 11.835 44.146 11.835 63.747-.001 19.601-11.836 44.146-11.836 63.747-.001l.004.002c19.6 11.835 44.144 11.835 63.745 0l.007-.004c19.6-11.834 44.143-11.834 63.743-.001l15.682 9.468c9.963 6.015 22.438 6.015 32.401 0l.01-.006c20.89-12.612 47.544 2.43 47.544 26.832v155.808c0 13.645-11.062 24.707-24.707 24.707h-460.587c-13.645 0-24.707-11.062-24.707-24.707v-155.802c0-24.402 26.656-39.445 47.545-26.831z" fill="url(#SVGID_3_)"/><path d="m462.111 343.042c-9.591 5.962-21.716 6.041-31.384.204l-16.493-9.958c-19.567-11.814-44.076-11.784-63.614.078l-.846.514c-19.373 11.762-43.73 11.564-62.91-.512-19.601-11.835-44.146-11.835-63.747.001-19.601 11.836-44.146 11.836-63.747.001l-.002-.001c-20.072-11.621-44.878-11.392-64.733.596l-14.688 8.868c-9.963 6.016-22.44 6.016-32.403 0-20.888-12.615-47.544 2.428-47.544 26.831v106.486c0 13.645 11.062 24.707 24.707 24.707h460.587c13.645 0 24.707-11.062 24.707-24.707v-106.49c-.001-24.582-27.012-39.596-47.89-26.618z" fill="url(#SVGID_4_)"/><path d="m462.371 408.626c-9.876 6.005-22.27 6.025-32.165.051l-15.843-9.565c-19.646-11.862-44.255-11.831-63.872.079l-.717.435c-19.373 11.762-43.73 11.564-62.91-.512-19.601-11.835-44.146-11.835-63.747.001-19.601 11.836-44.146 11.836-63.747.001l-.002-.002c-19.097-12.061-43.366-12.305-62.702-.63l-16.719 10.095c-9.963 6.016-22.44 6.016-32.403 0-20.888-12.614-47.544 2.429-47.544 26.831v40.74c0 13.645 11.062 24.707 24.707 24.707h460.587c13.645 0 24.707-11.062 24.707-24.707v-40.743c-.001-24.447-26.743-39.483-47.63-26.781z" fill="url(#SVGID_5_)"/></g><path d="m486.075 289.884c-7.59-1.883-15.988-.979-23.62 3.629l-.01.006c-9.963 6.015-22.438 6.015-32.401 0l-15.682-9.468c-19.6-11.834-44.143-11.834-63.743.001l-.007.004c-19.6 11.835-44.145 11.834-63.745 0l-.004-.002c-19.601-11.835-44.146-11.835-63.747.001-19.601 11.836-44.146 11.836-63.747 0l-.002-.001c-19.601-11.835-44.145-11.835-63.746 0l-15.675 9.465c-9.963 6.016-22.44 6.016-32.403 0-7.632-4.608-16.029-5.512-23.619-3.63l26.178 35.198c3.525 4.739 5.397 10.503 5.331 16.409l-.582 51.589c-.134 11.921 7.569 22.518 18.951 26.067l49.245 15.356c5.654 1.763 10.571 5.338 13.993 10.172l29.782 42.077c6.898 9.745 19.379 13.8 30.687 9.968l48.828-16.545c5.617-1.903 11.704-1.903 17.321 0l48.828 16.545c11.308 3.832 23.79-.223 30.687-9.968l29.781-42.076c3.422-4.834 8.339-8.409 13.993-10.172l49.245-15.356c11.381-3.549 19.085-14.146 18.951-26.067l-.582-51.59c-.067-5.906 1.806-11.67 5.331-16.409z" fill="url(#SVGID_6_)"/><path d="m255 436.173c85.917 0 156.821-64.267 167.268-147.35l-7.905-4.773c-19.6-11.834-44.143-11.834-63.743.001l-.007.004c-19.6 11.835-44.145 11.834-63.745 0l-.004-.002c-19.601-11.835-44.146-11.835-63.747.001-19.601 11.836-44.146 11.836-63.747 0l-.002-.001c-19.601-11.835-44.145-11.835-63.746 0l-7.892 4.765c10.447 83.086 81.352 147.355 167.27 147.355z" fill="url(#SVGID_7_)"/></g><g><path d="m387.256 44c-5.024-.001-9.596-2.555-12.229-6.833l-2.485-4.034c-3.57-5.798-7.931-8.99-12.279-8.99s-8.709 3.192-12.278 8.989c-2.172 3.527-6.792 4.625-10.319 2.454-3.526-2.172-4.626-6.792-2.454-10.319 6.402-10.397 15.299-16.124 25.052-16.124 9.752 0 18.649 5.727 25.052 16.124l1.942 3.154 1.942-3.154c6.402-10.397 15.3-16.124 25.052-16.124 9.753 0 18.649 5.727 25.052 16.124 2.172 3.527 1.072 8.147-2.454 10.319-3.529 2.17-8.147 1.072-10.319-2.454-3.569-5.797-7.93-8.989-12.278-8.989s-8.709 3.192-12.278 8.989l-2.485 4.036c-2.639 4.279-7.211 6.832-12.234 6.832z" fill="url(#SVGID_8_)"/><path d="m409.358 120.715c-4.248-.001-8.113-2.16-10.34-5.777l-2.101-3.411c-3.019-4.902-6.705-7.601-10.382-7.601s-7.363 2.699-10.381 7.6c-1.836 2.982-5.742 3.91-8.725 2.075-2.981-1.836-3.911-5.743-2.075-8.725 5.413-8.791 12.935-13.633 21.181-13.633 8.245 0 15.768 4.842 21.181 13.633l1.642 2.667 1.642-2.667c5.413-8.791 12.936-13.633 21.181-13.633 8.246 0 15.768 4.842 21.181 13.633 1.836 2.982.907 6.889-2.075 8.725-2.984 1.835-6.889.907-8.725-2.075-3.018-4.901-6.704-7.6-10.381-7.6s-7.363 2.699-10.381 7.6l-2.101 3.412c-2.228 3.618-6.094 5.777-10.341 5.777z" fill="url(#SVGID_9_)"/><path d="m441.129 80.011c-4.248-.001-8.113-2.16-10.34-5.777l-2.101-3.411c-3.019-4.902-6.705-7.601-10.382-7.601s-7.363 2.699-10.381 7.6c-1.836 2.982-5.743 3.91-8.725 2.075-2.981-1.836-3.911-5.743-2.075-8.725 5.413-8.791 12.935-13.633 21.181-13.633 8.245 0 15.768 4.842 21.181 13.633l1.642 2.667 1.642-2.667c5.413-8.791 12.936-13.633 21.181-13.633 8.246 0 15.768 4.842 21.181 13.633 1.836 2.982.907 6.889-2.075 8.725-2.984 1.835-6.889.907-8.725-2.075-3.018-4.901-6.704-7.6-10.381-7.6s-7.363 2.699-10.381 7.6l-2.101 3.412c-2.228 3.618-6.093 5.777-10.341 5.777z" fill="url(#SVGID_10_)"/></g></g></svg>