<svg id="Capa_1" enable-background="new 0 0 511.997 511.997" height="512" viewBox="0 0 511.997 511.997" width="512" xmlns="http://www.w3.org/2000/svg"><g><g fill="#80b6fc"><path d="m255.928 122.298c-55.45 0-95.457-3.539-135.537-14.389 1.854-2.879-7.174-8.652-5.261-11.435 40.976-59.633 94.946-97.06 144.617-96.468 48.453.581 100.13 37.454 139.327 95.528 1.939 2.873-1.349 7.113.528 10.088-40.45 11.241-87.114 16.676-143.674 16.676z"/><path d="m255.978 410.309c85.76 0 161.25-34.69 205.14-64.64-15.55 99.1-102.922 167.572-207.532 166.311-102.88-1.24-187.468-69.491-202.768-166.321 43.9 29.949 119.391 64.65 205.16 64.65z"/><path d="m255.978 341.678c-83.02 0-151.731-11.855-201.861-33.225.187-7.956-5.043-17.524-4.385-25.342 3.665-43.571 14.429-84.812 30.016-121.651.423-1 5.053-1.565 5.483-2.559 46.33 14.03 103.437 22.148 170.697 22.148 68.12 0 127.17-8.054 173.71-22.404.405.964 3.788 1.214 4.186 2.184 15.197 36.977 25.517 78.38 28.719 122.035.579 7.892-7.182 18.721-7.082 26.747-50.13 21.39-116.423 32.067-199.483 32.067z"/></g><path d="m259.747.007c-7.598-.091-15.298.709-23.034 2.341 90.887 19.278 185.318 155.897 183.416 313.975-1.28 106.361-82.228 184.938-185.462 194.649 6.229.583 12.538.931 18.92 1.008 100.107 1.205 184.429-61.447 205.133-153.681 3.008-13.402-4.051-21.468-3.876-36.014.137-11.349 8.501-28.55 7.681-39.643-3.216-43.521-13.505-84.794-28.638-121.677-4.796-11.689-20.91-17.16-26.608-27.899-5.938-11.192-1.495-27.608-8.254-37.616-39.192-58.027-90.844-94.86-139.278-95.443z" fill="#62a4fb"/><path d="m462.497 282.485c-46.611 33.073-121.752 54.538-206.521 54.538-84.573 0-159.56-21.367-206.195-54.309-.805 9.437-1.294 18.978-1.41 28.613-.196 16.308 1.501 32.007 4.878 46.946 38.8 41.902 115.027 70.394 202.727 70.394 87.716 0 163.954-28.502 202.748-70.417 3.002-13.389 4.669-27.397 4.844-41.927.137-11.405-.243-22.693-1.071-33.838z" fill="#f7f3f1"/><path d="m433.88 160.954c-9.816-23.924-21.671-45.997-34.953-65.64-38.411 15.411-88.352 24.723-142.952 24.723-53.522 0-102.56-8.953-140.657-23.823-13.503 19.611-25.594 41.635-35.669 65.5 44.627 21.523 107.128 34.906 176.326 34.906 70.014 0 133.18-13.696 177.905-35.666z" fill="#f7f3f1"/><g fill="#ebe1dc"><path d="m363.053 107.025c12.87 20.83 24.147 44.043 33.21 69.025 13.607-4.436 26.214-9.495 37.617-15.096-9.257-22.56-21.017-45.03-34.953-65.64-11.056 4.436-23.071 8.363-35.874 11.711z"/><path d="m462.497 282.485c-12.266 8.703-26.524 16.592-42.397 23.508.049 3.434.07 6.875.029 10.33-.36 29.924-7.027 57.649-18.721 82.26 23.371-11.087 42.925-24.784 57.316-40.333 5.632-25.121 5.713-49.657 3.773-75.765z"/></g><g fill="#f1cd88"><circle cx="255.976" cy="266.877" r="21.281"/><circle cx="388.119" cy="245.596" r="21.281"/><circle cx="123.832" cy="245.596" r="21.281"/></g></g></svg>