<svg height="512" viewBox="0 0 64 64" width="512" xmlns="http://www.w3.org/2000/svg"><g id="Storage-Smartphone-Data-Server-Computing"><path d="m51 8v48a5 5 0 0 1 -5 5h-28a5 5 0 0 1 -5-5v-48a5 5 0 0 1 5-5h28a5 5 0 0 1 5 5z" fill="#5aaae7"/><path d="m51 19.51v36.49a5 5 0 0 1 -5 5h-28a5 5 0 0 1 -3.01-1.01c7.61-4.31 24.5-16.04 36.01-40.48z" fill="#479fe3"/><path d="m34 53h-4a2 2 0 0 0 0 4h4a2 2 0 0 0 0-4z" fill="#e6e7e8"/><path d="m34 20c-6.08 0-11 2.24-11 5v14c0 2.76 4.92 5 11 5s11-2.24 11-5v-14c0-2.76-4.92-5-11-5z" fill="#3d9ae2"/><path d="m43 30v7c0 2.76-4.92 5-11 5s-11-2.24-11-5v-7c0 2.76 4.92 5 11 5s11-2.24 11-5z" fill="#c6c5ca"/><path d="m43 23v7c0 2.76-4.92 5-11 5s-11-2.24-11-5v-7c0 2.76 4.92 5 11 5s11-2.24 11-5z" fill="#acabb1"/><ellipse cx="32" cy="23" fill="#898890" rx="11" ry="5"/><path d="m25 6h2v2h-2z" fill="#3d9ae2"/><path d="m29 6h6v2h-6z" fill="#3d9ae2"/><path d="m23 29h2v2h-2z" fill="#c6c5ca"/><path d="m27 30h2v2h-2z" fill="#c6c5ca"/><path d="m23 36h2v2h-2z" fill="#acabb1"/><path d="m27 37h2v2h-2z" fill="#acabb1"/><path d="m26 22h12v2h-12z" fill="#787680"/></g></svg>