<svg id="Capa_1" enable-background="new 0 0 512 512" height="512" viewBox="0 0 512 512" width="512" xmlns="http://www.w3.org/2000/svg"><g><g><path d="m133.886 122.513c-12.343-4.691-17.791-24.724-1.782-29.283 2.232-.432 3.697-2.92 2.98-5.081-9.007-34.986-64.782-70.55-99.06-40.966-41.673 36.633 2.09 95.269 51.065 86.695-1.945 20.751-1.662 54.13-41.101 91.558-1.276 1.219-1.604 3.13-.805 4.704 3.09 6.895 18.08 22.854 25.737 17.291 30.678-39.411 57.15-77.855 65.589-120.435.346-1.936-.766-3.836-2.623-4.483zm-83.428-25.916c-2.28 10.472-12.824 11.143-15.544.111-2.433-6.244-3.559-26.023 2.423-34.977 18.001-15.918 16.414 29.234 13.121 34.866zm52.872.504c-10.195 11.142-33.467-13.318-25.152-23.932 10.345-16.159 31.319 13.272 25.152 23.932z" fill="#fff"/><path d="m469.23 208.404c-9.37-4.636-50.115-11.394-47.745-.789 1.72 7.571-1.49 13.93 9.402 12.095 19.296.301 52.33 10.594 24.93 25.713-15.515 5.482-33.396 8.146-54.658 8.146-13.455-1.389-74.457.692-72.365-14.065 5.224-14.745 39.882-18.329 57.405-18.174 7.641-1.229 1.897-9.105.594-14.051 7.149 2.441 31.205-5.766 28.841-14.973-25.297-48.093-14.412-79.602-9.529-99.871 43.447 23.74 103.884-17.59 76.224-65.702-22.698-38.937-87.181-23.48-106.994 6.96-4.025 6.787 10.682 7.167 6.678 19.623-1.746 6.4-8.155 13.239-16.594 13.304-15.649 22.716 1.613 84.664 18.908 136.726-70.202-11.151-6.55 12.368-68.295 12.604-8.106-.071-19.355-.75-23.924-5.729-3.914-2.639.227-11.818-6.178-12.172-69.642-1.703-125.264 16.655-129.124 33.532-32.712 55.354 435.114 64.525 312.424-23.177zm-16.483-139.253c-1.82-9.716 16.042-53.801 23.942-27.284.996 13.269-5.982 35.522-17.162 37.468-3.54-.434-6.864-1.319-6.78-10.184zm-47.195-26.372c4.809-7.016 13.458-12.512 19.692-12.512 10.706.838 11.233 13.527 5.163 19.273-8.36 9.129-37.407 13.922-24.855-6.761zm-92.727 195.517c-7.049 19.315-117.992 14.756-124.421.386 2.121-23.779 124.962-28.959 124.421-.386z" fill="#fff"/><path d="m486.352 248.816c-42.803 30.231-284.636 31.43-323.791-2.102-2.59-1.901-6.624.355-6.25 3.605 3.549 47.398 7.85 95.532 11.8 132.06 7.736 71.531 11.714 77.276 13.213 79.44 7.843 11.334 31.71 45.825 135.417 47.141 73.434-1.03 139.878-5.732 150.747-79.069 3.98-53.999 23.374-165.568 18.864-181.075zm-156.349 75.165c-10.194 10.384-30.201.445-26.868-14.61 1.05-6.853 6.166-14.84 14.927-16.249 19.172-1.064 21.806 20.271 11.941 30.859z" fill="#f0f1fa"/><g fill="#c0c5d7"><path d="m491.081 150.041c-7.85-26.582-37.638-40.03-87.161-40.001-1.936 0-3.596 1.388-3.937 3.294-4.692 19.696 3.254 14.875 18.4 16.795 12.867.836 25.022 1.626 35.456 8.684 19.492 11.48 12.634 39.825-9.006 43.501-8.165 2.121-18.75 2.007-27.966.875-10.438 1.462.974 13.29 2.649 18.409 2.702 4.135 7.053 1.28 11.807 1.764 22.247.154 71.066-15.562 59.758-53.321z"/><path d="m431.231 218.571c-3.813.353-8.5-.513-10.114 3.349-2.945 8.646-11.022 14.762-19.242 13.828-10.443-1.042-4.471-18.234-18.161-15.464-13.52.313-53.294 2.879-55.889 20.635 1.841 8.178 11.407 8.774 15.594 9.335 35.631 4.419 80.118 8.314 112.709-3.882 29.137-15.133-6.432-27.954-24.897-27.801z"/><path d="m201.568 206.973c21.711-5.133 56.469-8.187 88.89-7.937 42.488-1.471 75.696 6.322 92.516 2.981 2.362-4.665-1.997-8.989-2.963-14.445-.523-1.587-1.975-2.683-3.645-2.748-17.141-.671-34.183-.808-54.496-.808-39.734-.014-80.406.537-120.542-3.992-7.668-1.142-13.144-5.215-14.653-10.906 2.327-41.023 97.647-40.294 135.61-42.018 13.199-.321 25.664-.626 37.479-1.409 1.115-.074 2.147-.61 2.849-1.479 2.142-3.87-.59-8.952-.424-13.083-.215-2.026-1.918-3.568-3.955-3.58-8.943-.052-18.152-.206-27.058-.354-44.257.972-145.045-7.412-174.614 34.003-18.048 29.267 4.148 70.54 45.006 65.775z"/><path d="m310.808 230.55c-28.79-20.697-85.034-13.119-113.472-2.984-37.015 22.44 41.966 24.275 63.933 24.273 41.719-.589 56.98-5.554 49.539-21.289z"/></g><path d="m477.632 41.406c-9.254-30.565-34.094 26.606-23.494 36.545 14.508 11.231 25.34-23.674 23.494-36.545z" fill="#3c76aa"/><path d="m428.27 29.726c-10.334-3.083-27.687 11.338-26.8 22.75 8.232 19.044 51.137-9.791 26.8-22.75z" fill="#3c76aa"/><path d="m419.843 199.914c-1.001-2.838-4.41-4.696-6.924-2.428-6.077 5.381-13.882 8.653-21.975 9.215-1.254.087-2.394.757-3.078 1.811-1.406 7.238 4.81 14.849 6.697 22.567 16.47 18.71 37.446-12.769 25.28-31.165z" fill="#3c76aa"/><path d="m376.927 38.517c-8.107-3.769-11.96 17.775-14.064 24.116 1.614 16.217 34.874-11.434 14.064-24.116z" fill="#3c76aa"/><path d="m344.572 199.777c-17.973-1.092-35.326-1.677-51.577-1.737-6.259.136-4.259 10.487-2.013 12.227 2.997 5.901 21.675 7.472 32.513 6.483 5.853-.357 17.562.488 23.318-6.782 2.214-2.85 2.726-9.789-2.241-10.191z" fill="#494a57"/><path d="m135.1 92.756c-18.22-2.57-16.85 24.545-3.163 30.006 9.461 5.14 6.691-28.225 3.163-30.006z" fill="#3c76aa"/><path d="m86.613 67.396c-27.771 3.745 3.324 45.634 17.675 30.177 4.436-10.188-6.797-29.11-17.675-30.177z" fill="#3c76aa"/><path d="m64.754 247.01c-7.479-3.129-13.819-8.736-17.853-15.786-.597-1.044-1.632-1.764-2.818-1.96-12.924 3.752-15.616 24.511-12.57 29.873 2.689 8.653 14.466 18.136 21.958 9.824 3.274-5.942 19.369-17.557 11.283-21.951z" fill="#3c76aa"/><path d="m42.325 105.71c14.943.983 15.52-49.041.777-48.51-13.391-.484-16.699 45.929-.777 48.51z" fill="#3c76aa"/><path d="m319.964 292.037c-22.423 1.119-25.163 37.253-.193 37.227 21.424-.104 22.864-37.874.193-37.227z" fill="#b6d366"/><path d="m454.408 137.984c-10.734-7.281-23.75-8.101-36.338-8.893-6.314.456-12.777-2.74-18.261-.492-4.577 7.029 3.871 49.779 12.523 54.987 11.267 1.669 22.483 2.196 32.595-.267 22.522-4.026 29.783-33.175 9.481-45.335z" fill="#9499a9"/><path d="m373.785 185.728c2.66.169 4.845-2.665 3.96-5.2-5.316-16.868-9.266-32.079-12.078-46.497-.93-3.408-.252-9.251-5.044-9.39-53.342 3.66-125.364-2.73-166.892 26.433-13.932 10.329-9.845 27.958 7.631 29.961 56.673 6.399 116.838 2.643 172.423 4.693z" fill="#9499a9"/></g><g><path d="m456.257 82.837c5.678 1.711 10.926-1.12 14.597-6.819 6.218-8.038 16.875-36.007 4.01-45.205-2.5-1.67-5.837-1.753-8.499-.212-11.39 6.596-17.145 26.294-17.608 38.23-.664 8.306 3.434 12.68 7.5 14.006zm-.516-13.507c.44-9.626 4.598-25.421 12.434-31.419 1.665-1.275 4.043-.619 4.79 1.34.317.832.547 1.799.728 2.84 1.385 10.158-4.63 25.206-8.684 30.07-4.331 6.868-9.986 4.79-9.268-2.831z"/><path d="m399.059 54.834c7.288 13.481 26.681 4.034 34.037-2.335 7.847-7.472 7.001-21.794-3.974-25.654-13.256-4.218-34.8 15.737-30.063 27.989zm12.966-14.88c5.183-4.832 11.552-7.625 14.732-6.52 6.383 2.593 5.379 9.915 1.566 13.94-4.86 3.747-13.93 8.846-19.586 7.014-2.519-.816-3.704-3.663-2.754-6.135.992-2.583 3.132-5.587 6.042-8.299z"/><path d="m450.76 30.66c1.846.391 3.751-.821 4.13-2.728l.993-4.854c.812-4.543-5.82-5.906-6.858-1.403-.51 2.778-2.582 8.183 1.735 8.985z"/><path d="m92.43 38.525c-19.327-9.15-42.225-6.655-58.337 6.357-14.597 11.789-20.433 29.367-16.02 48.199 5.68 28.411 36.745 46.562 65.123 44.167.88 19.812-4.447 56.237-45.758 91.92-12.095 12.631-10.872 25.055-8.82 30.759 3.613 11.653 18.2 21.084 27.2 10.911 52.588-62.109 140.898-181.207 36.612-232.313zm40.493 57.582c1.344 7.13 1.576 14.811.686 23.028-8.523-3.937-13.094-20.107-.686-23.028zm-82.531 170.306c-4.522 5.072-12.979-1.832-15.141-8.72-1.858-3.918-1.693-15.776 8.182-24.487 4.448 7.786 11.507 14.031 19.777 17.493-4.271 5.322-8.559 10.565-12.818 15.714zm59.019-81.62c-12.029 21.06-26.611 41.139-41.629 60.159-8.165-2.836-15.122-8.911-19.033-16.618 37.651-35.91 42.406-71.982 41.416-91.892 5.731-.966 11.288-2.673 16.452-5.12 1.747-.828 2.491-2.916 1.663-4.662-.827-1.747-2.92-2.491-4.661-1.663-15.737 7.46-35.587 7.189-51.809-.709-29.017-12.907-39.054-53.807-13.318-73.96 14.032-11.334 34.028-13.483 50.876-5.508 22.173 11.078 36.235 26.029 41.89 44.497-18.978 4.101-15.571 31.098 1.315 36.968-3.11 17.375-10.841 36.937-23.162 58.508z"/><path d="m43.932 54.214c-17.571-.672-16.275 34.699-12.921 43.37 3.072 13.746 19.14 15.875 23.234.284 2.815-8.364 6.238-41.935-10.313-43.654zm3.582 41.73c-.814 3.463-2.682 5.838-4.784 5.782-9.043-.919-8.192-32.859-2.192-39.301 1.426-1.92 4.619-1.49 5.694.578 4.477 7.986 4.151 23.317 1.282 32.941z"/><path d="m86.241 64.407c-11.554.154-16.953 13.459-11.921 23.02 3.51 5.668 11.76 15.258 20.871 16.526 14.294 1.083 16.301-12.15 9.268-24.913-3.701-6.885-10.704-14.841-18.218-14.633zm14.525 31.266c-6.442 5.083-16.079-5.255-20.281-11.569-2.319-5.035-.921-12.291 5.956-12.7 6.739-.314 17.853 17.76 14.325 24.269z"/><path d="m66.086 49.212c-1.913-.236-3.667 1.12-3.907 3.039l-.616 4.914c-.462 4.582 6.244 5.451 6.945.873 0 0 .616-4.917.616-4.917.241-1.92-1.12-3.669-3.038-3.909z"/><path d="m493.118 236.902c0-.001 0-.002 0-.002-.295-20.305-16.956-31.631-35.22-35.242 24.446-6.806 42.728-24.699 36.098-52.328-11.06-35.067-51.078-41.977-88.571-42.263.985-3.844 2.122-7.267 3.274-10.229 26.092 11.373 61.357 4.153 75.837-20.907 10.239-16.443 10.352-34.965.312-50.815-11.082-17.494-31.964-27.21-53.285-24.734-57.776 7.997-78.322 47.745-73.984 104.161-59.447-.381-121.897-4.941-178.219 14.476-28.02 11.125-35.634 36.201-30.59 55.95 3.814 15.028 15.283 29.268 33.529 33.846-14.972 5.875-30.265 16.276-29.856 29.248-.253 1.267 3.947 52.436 8.846 106.316 10.289 108.629 15.759 116.544 17.561 119.142 27.945 40.298 85.581 47.997 144.88 48.48 95.168 0 140.516-25.366 146.738-81.783 5.564-50.451 19.666-167.905 22.231-189.243.323-1.324.488-2.689.419-4.073zm-89.056-122.845c47.786-.006 75.795 12.49 83.186 37.135 7.973 34.725-28.601 46.285-56.197 48.182-3.556.097-5.659.242-7.953.444-2.162-4.347-4.798-8.52-6.707-12.655 9.813 1.18 20.501 1.295 29.259-.931 25.513-5.318 32.928-36.319 10.434-50.733-16.045-10.853-35.635-8.048-53.45-10.902.253-3.748.7-7.27 1.282-10.555.049.003.096.015.146.015zm-15.226 110.362c2.759 6.927 3.69 13.94 12.485 15.286 10.048 1.278 20.127-6.176 23.584-16.513 12.291-2.784 35.722 4.346 38.165 10.403 1.33 3.296-5.03 7.564-8.273 9.008-33.812 15.055-73.556 7.914-110.93 3.682-2.034-.277-7.761-.606-10.594-3.366-1.335-1.3-1.421-3.422-.32-4.926 7.758-10.594 39.323-14.524 55.883-13.574zm-27.095-89.629c3.076 15.802 7.329 31.516 12.187 46.942-56.969-2.066-115.692 1.701-172.115-4.675-14.097-2.107-16.771-13.945-5.772-22.715 40.12-28.356 112.227-22.083 164.575-25.702.351 2.03.721 4.075 1.125 6.15zm40.67-3.146c16.646 2.628 35.749.127 49.786 9.678 17.378 11.191 11.477 33.999-8.166 38.101-8.068 2.029-18.534 2.098-31.104.211-7.783-18.184-10.497-34.343-10.516-47.99zm13.992 70.31c8.341 15.18-2.854 32.939-13.063 30.703-2.757-.604-4.934-2.721-5.936-5.359-2.077-5.469-4.148-11.01-6.188-16.608 8.944-.624 17.638-4.262 24.35-10.208.284.492.547.978.837 1.472zm16.041-194.628c18.199-2.199 36.903 6.239 46.492 21.536 17.887 27.333-4.699 62.856-36.352 65.772-17.904 2.275-36.785-3.84-49.295-15.955-3.217-3.207-8.178 1.919-4.869 5.029 4.105 3.976 8.82 7.375 13.938 10.129-7.328 18.538-14.4 54.228 9.734 100.322-6.177 6.045-14.697 9.562-23.36 9.631-14.328-39.73-29.523-93.722-23.281-133.168 17.865-.139 29.762-24.609 13.133-34.591 11.283-15.675 29.374-25.338 53.86-28.705zm-57.638 34.586c10.808 6.742 1.309 20.595-8.039 21.59 1.794-8.067 4.478-15.268 8.039-21.59zm-173.525 161.066c-25.626 2.962-41.427-12.8-45.724-29.731-5.897-23.236 8.885-40.658 26.173-47.64 55.258-19.031 117.643-14.397 176.48-14.058.35 3.313.783 6.7 1.292 10.154-53.797 3.558-125.904-2.714-167.76 27.114-15.91 12.465-11.048 32.221 9.063 35.169 57.64 6.56 117.376 2.568 175.4 4.831 1.18 3.595 2.389 7.171 3.62 10.728-12.856-1.278-54.919-5.042-98.94-4.445-32.47.442-58.943 3.081-79.353 7.874-.084.004-.166-.006-.251.004zm142.23 4.729c-2.256 3.483-10.544 4.969-17.29 4.952-8.236.163-36.182 2.596-33.243-10.618 18.69.064 36.543.824 51.355 1.726.217 1.57-.053 2.869-.822 3.94zm-183.01 25.425c4.485-13.292 44.858-31.878 125.392-31.081-1.236 15.752 15.442 17.779 30.196 17.9 11.149-.418 35.215 1.471 35.301-15.729 16.576 1.125 28.2 2.324 30.999 2.623 1.255 3.52 2.526 7.017 3.808 10.49-14.587-.196-53.934 2.545-60.941 20.205-.277.698-.455 1.434-.484 2.185-.298 7.857 8.238 12.966 18.307 13.516 36.834 4.205 79.021 10.89 114.313-4.13 13.055-5.556 14.193-13.886 12.17-18.134-4.473-11.087-29.661-16.448-43.283-15.043.145-2.758-.096-5.837-.899-9.229 1.579-.058 3.373-.152 5.321-.293 18.048-.785 55.195 2.947 55.419 30.654-.001.004-.001.008-.002.013-.252 2.09-1.122 4.06-2.516 5.637-38.645 43.693-342.614 29.121-323.101-9.584zm303.01 196.318c-2.976 26.97-15.68 45.958-38.842 58.048-23.684 12.363-58.974 18.072-107.881 17.457-101.652-1.282-124.629-34.501-132.18-45.417-7.173-10.37-18.104-126.696-24.312-209.514 49.125 33.668 275.83 36.127 323.999 2.227-4.49 37.434-15.91 133.001-20.784 177.199z"/><path d="m317.568 289.15c-19.064 2.925-26.568 31.58-7.836 40.783 7.978 3.661 16.908 3.2 23.129-3.15 13.073-13.624 6.606-39.673-15.293-37.633zm10.318 32.709c-3.816 3.853-9.074 4.45-15.211 1.722-12.76-6.895-5.936-25.374 5.596-27.462 15.243-1.472 18.118 16.841 9.615 25.74z"/><path d="m218.666 252.845c14.547 1.576 25.769 2.131 36.169 1.757 18.852-.411 52.845 1.614 61.531-14.448 1.685-3.314 1.056-7.327-1.566-9.986-22.331-22.644-86.571-16.333-114.158-7.057-3.09 1.039-6.063 2.407-8.782 4.206-4.161 2.754-8.801 7.059-7.308 12.433 1.189 4.036 6.018 9.785 34.114 13.095zm-15.962-23.054c26.193-9.007 82.487-13.295 104.066 2.666 1.264.935 2.116 2.388 2.1 3.96-.163 15.909-72.917 11.064-89.384 9.476-26.449-3.117-28.162-7.796-28.217-8.119-.067-.387.44-1.744 3.715-4.073 2.363-1.681 4.976-2.967 7.72-3.91z"/></g></g></svg>