<svg id="Capa_1" enable-background="new 0 0 512 512" height="512" viewBox="0 0 512 512" width="512" xmlns="http://www.w3.org/2000/svg" xmlns:xlink="http://www.w3.org/1999/xlink"><linearGradient id="SVGID_1_" gradientUnits="userSpaceOnUse" x1="225.5" x2="225.5" y1="512" y2="61"><stop offset="0" stop-color="#fd3a84"/><stop offset="1" stop-color="#ffa68d"/></linearGradient><linearGradient id="SVGID_2_" gradientUnits="userSpaceOnUse" x1="391.5" x2="391.5" y1="241" y2="0"><stop offset="0" stop-color="#ffc2cc"/><stop offset="1" stop-color="#fff2f4"/></linearGradient><g><path d="m226 512c-124.379 0-226-101.632-226-226 0-124.065 101.383-225 226-225 8.284 0 15 6.716 15 15v195h195c8.284 0 15 6.716 15 15 0 124.617-100.935 226-225 226z" fill="url(#SVGID_1_)"/><path d="m497 241h-211c-8.284 0-15-6.716-15-15v-211c0-8.284 6.716-15 15-15 124.379 0 226 101.632 226 226 0 8.284-6.716 15-15 15z" fill="url(#SVGID_2_)"/></g></svg>