<svg height="512" viewBox="0 0 58 48" width="512" xmlns="http://www.w3.org/2000/svg"><g id="Page-1" fill="none" fill-rule="evenodd"><g id="023---Ear-Pods" fill-rule="nonzero"><path id="Shape" d="m24 48h-6c-9.9411255 0-18-8.0588745-18-18s8.0588745-18 18-18l5-2h12l5 2c9.9411255 0 18 8.0588745 18 18s-8.0588745 18-18 18z" fill="#2980ba"/><path id="Shape" d="m55.48 12h-52.97c-.33888767-.0007064-.65435802-.1729981-.83812452-.4577352-.18376651-.2847371-.21082046-.6431699-.07187548-.9522648 2.90444628-6.4513899 9.3249603-10.5973194 16.4-10.59h22c7.0700802-.00019639 13.4855558 4.13856777 16.4 10.58.1391141.3119054.1110078.6730123-.0746921.9596361-.1857.2866238-.5037857.4598568-.8453079.4603639z" fill="#3b97d3"/><path id="Shape" d="m34 46v2h-10v-2c.0032948-1.1032019.8967981-1.9967052 2-2h6c1.1032019.0032948 1.9967052.8967981 2 2z" fill="#285680"/><path id="Shape" d="m21 31c.0875255 2.8752799-1.0936742 5.6436024-3.23 7.57-.6796367.5799202-1.4785099 1.0032547-2.34 1.24-.0116762.024242-.0250425.047633-.04.07-.0504964.0991117-.1107976.1929136-.18.28-.0505763.1038391-.118177.19848-.2.28-.01.01-.01.01-.01.02-.700939.9579988-1.8130067 1.5288602-3 1.54-2.3441817-.1443066-4.13152373-2.1550664-4-4.5-.0025776-.4845338.06822487-.9666649.21-1.43v-.04c-.08516554-.2088759-.1889155-.4096822-.31-.6-.11-.24-.2-.5-.29-.75-.12306637-.3574293-.2265533-.7213027-.31-1.09-.03-.14-.06-.27-.09-.41-.26009696-1.4557495-.30054623-2.9422602-.12-4.41.13018939-1.1342013.37134454-2.2528932.72-3.34.4642406-1.4570538 1.16345347-2.8284568 2.07-4.06 1.0793682-1.4397244 2.4889526-2.5989446 4.11-3.38.5897214-.2832397 1.2017955-.5173664 1.83-.7.6938758-.2029094 1.4432434-.0155675 1.96.49l.09.09c.436843.4456301.6373794 1.0715019.5408628 1.6880264-.0965166.6165246-.478731 1.1511671-1.0308628 1.4419736-.6293597.3376187-1.2083192.7617402-1.72 1.26.6097708.1873783 1.1842349.4746103 1.7.85 2.3998979 1.9007967 3.7515307 4.8305721 3.64 7.89z" fill="#ecf0f1"/><circle id="Oval" cx="25" cy="39" fill="#65ddb9" r="1"/><circle id="Oval" cx="29" cy="39" fill="#65ddb9" r="1"/><circle id="Oval" cx="33" cy="39" fill="#65ddb9" r="1"/><path id="Shape" d="m35 12v2c-.0032948 1.1032019-.8967981 1.9967052-2 2h-8c-1.1032019-.0032948-1.9967052-.8967981-2-2v-2z" fill="#285680"/><g fill="#bdc3c7"><path id="Shape" d="m12.86 33.13c-.0583374.2588088-.2185095.4831886-.444327.6224427s-.4982245.1816315-.755673.1175573c-1.542783-.3195466-3.06356805.6325971-3.45 2.16-.08516554-.2088759-.1889155-.4096822-.31-.6-.11-.24-.2-.5-.29-.75-.12306637-.3574293-.2265533-.7213027-.31-1.09 1.15024409-1.4395046 3.0257272-2.0893089 4.82-1.67.2589999.0616246.4827348.2239836.6216365.4511066.1389016.227123.1815022.5002585.1183635.7588934z"/><path id="Shape" d="m15.43 39.81c.367988-.7907969.4527296-1.6841153.24-2.53-.0921561-.5200102.2359354-1.0220378.7492004-1.1463855.5132651-.1243477 1.0347425.1718564 1.1907996.6763855.1373602.5759743.1912441 1.168698.16 1.76-.6796367.5799202-1.4785099 1.0032547-2.34 1.24z"/><circle id="Oval" cx="12" cy="37" r="1"/><path id="Shape" d="m17.56 23.27c-.9161351.6421397-1.5751237 1.588107-1.86 2.67-.1102928.4461224-.5104464.7596448-.97.76-.0841886-.0006886-.1680387-.0107506-.25-.03-.2575067-.0659011-.4781813-.2316107-.6132779-.4605245-.1350967-.2289138-.1734983-.5021944-.1067221-.7594755.3071918-1.226488.9678701-2.3357322 1.9-3.19.6923491.2114507 1.33745.5543728 1.9 1.01z"/></g><path id="Shape" d="m36.981 31c-.0875255 2.8752799 1.0936742 5.6436024 3.23 7.57.6796367.5799202 1.4785099 1.0032547 2.34 1.24.0116762.024242.0250425.047633.04.07.0504964.0991117.1107976.1929136.18.28.0505763.1038391.118177.19848.2.28.01.01.01.01.01.02.700939.9579988 1.8130067 1.5288602 3 1.54 2.3441817-.1443066 4.1315237-2.1550664 4-4.5.0025776-.4845338-.0682249-.9666649-.21-1.43v-.04c.0851655-.2088759.1889155-.4096822.31-.6.11-.24.2-.5.29-.75.1230664-.3574293.2265533-.7213027.31-1.09.03-.14.06-.27.09-.41.260097-1.4557495.3005462-2.9422602.12-4.41-.1301894-1.1342013-.3713445-2.2528932-.72-3.34-.4642406-1.4570538-1.1634535-2.8284568-2.07-4.06-1.0793682-1.4397244-2.4889526-2.5989446-4.11-3.38-.5897214-.2832397-1.2017955-.5173664-1.83-.7-.6938758-.2029094-1.4432434-.0155675-1.96.49l-.09.09c-.4369209.4454899-.637616 1.0712557-.5412987 1.6877653.0963174.6165097.478317 1.1512411 1.0302987 1.4422347.6293597.3376187 1.2083192.7617402 1.72 1.26-.6097708.1873783-1.1842349.4746103-1.7.85-2.3995232 1.9010034-3.7507697 4.8307463-3.639 7.89z" fill="#ecf0f1"/><path id="Shape" d="m45.121 33.13c.0583374.2588088.2185095.4831886.444327.6224427s.4982245.1816315.755673.1175573c1.542783-.3195466 3.0635681.6325971 3.45 2.16.0851655-.2088759.1889155-.4096822.31-.6.11-.24.2-.5.29-.75.1230664-.3574293.2265533-.7213027.31-1.09-1.1502441-1.4395046-3.0257272-2.0893089-4.82-1.67-.2589999.0616246-.4827348.2239836-.6216365.4511066-.1389016.227123-.1815022.5002585-.1183635.7588934z" fill="#bdc3c7"/><path id="Shape" d="m42.551 39.81c-.367988-.7907969-.4527296-1.6841153-.24-2.53.0921561-.5200102-.2359354-1.0220378-.7492004-1.1463855-.5132651-.1243477-1.0347425.1718564-1.1907996.6763855-.1373602.5759743-.1912441 1.168698-.16 1.76.6796367.5799202 1.4785099 1.0032547 2.34 1.24z" fill="#bdc3c7"/><circle id="Oval" cx="45.981" cy="37" fill="#bdc3c7" r="1"/><path id="Shape" d="m40.421 23.27c.9161351.6421397 1.5751237 1.588107 1.86 2.67.1102928.4461224.5104464.7596448.97.76.0841886-.0006886.1680387-.0107506.25-.03.2575067-.0659011.4781813-.2316107.6132779-.4605245.1350967-.2289138.1734983-.5021944.1067221-.7594755-.3071918-1.226488-.9678701-2.3357322-1.9-3.19-.6923491.2114507-1.33745.5543728-1.9 1.01z" fill="#bdc3c7"/></g></g></svg>