<svg height="512" viewBox="0 0 58 47" width="512" xmlns="http://www.w3.org/2000/svg"><g id="Page-1" fill="none" fill-rule="evenodd"><g id="024---Ear-Pods" fill-rule="nonzero"><path id="Shape" d="m34.61 33.65c-.4111659-1.8550594-.6157448-3.749929-.61-5.65 0-9.94 5.37-18 12-18s12 8.06 12 18-5.37 18-12 18c-1.187033-.0018013-2.3599456-.2575235-3.44-.75z" fill="#bdc3c7"/><path id="Shape" d="m52.181 19.313c.2056714.4197855.093077.9260475-.2711298 1.2190902-.3642067.2930426-.8828357.2946663-1.2488702.0039098-2.7698904-2.0479722-6.5521096-2.0479722-9.322 0-.3660345.2907565-.8846635.2891328-1.2488702-.0039098-.3642068-.2930427-.4768012-.7993047-.2711298-1.2190902 1.581-3.321 3.952-5.313 6.181-5.313s4.6 1.992 6.181 5.313z" fill="#7f8c8d"/><path id="Shape" d="m46.74 33.98-1.27-1.54c-1.0156103-1.2255572-2.4765707-1.9973474-4.0613429-2.1455095-1.5847721-.1481621-3.1634752.3394465-4.3886571 1.3555095l-2.41 2-1.44 1.19c-2.5479196 2.1171696-2.901322 5.8972327-.79 8.45l1.28 1.54c2.1171696 2.5479196 5.8972327 2.901322 8.45.79l.45-.37 3.4-2.83c1.2246042-1.0144961 1.9951181-2.4746448 2.1414596-4.0581353.1463415-1.5834904-.3435223-3.1601195-1.3614596-4.3818647zm-7.37 8.69c-.85.71-2.39.24-3.45-1.03s-1.23-2.88-.38-3.59 2.4-.24 3.46 1.03 1.22 2.88.37 3.59z" fill="#ecf0f1"/><path id="Shape" d="m39.37 42.67c-.85.71-2.39.24-3.45-1.03s-1.23-2.88-.38-3.59 2.4-.24 3.46 1.03 1.22 2.88.37 3.59z" fill="#95a5a5"/><g fill="#464f5d"><circle id="Oval" cx="52" cy="24" r="1"/><circle id="Oval" cx="48" cy="26" r="1"/><circle id="Oval" cx="54" cy="28" r="1"/><circle id="Oval" cx="50" cy="30" r="1"/></g><path id="Shape" d="m15.44 45.25c-1.0800544.4924765-2.252967.7481987-3.44.75-6.63 0-12-8.06-12-18s5.37-18 12-18 12 8.06 12 18c.0057448 1.900071-.1988341 3.7949406-.61 5.65z" fill="#bdc3c7"/><path id="Shape" d="m5.819 19.313c-.20567137.4197855-.09307699.9260475.27112976 1.2190902.36420676.2930426.88283578.2946663 1.24887024.0039098 2.7698904-2.0479722 6.5521096-2.0479722 9.322 0 .3660345.2907565.8846635.2891328 1.2488702-.0039098.3642068-.2930427.4768012-.7993047.2711298-1.2190902-1.581-3.321-3.952-5.313-6.181-5.313s-4.6 1.992-6.181 5.313z" fill="#7f8c8d"/><path id="Shape" d="m24.83 34.84-1.44-1.19-2.41-2c-1.2251819-1.016063-2.803885-1.5036716-4.3886571-1.3555095-1.5847722.1481621-3.0457326.9199523-4.0613429 2.1455095l-1.27 1.54c-1.0179373 1.2217452-1.50780112 2.7983743-1.36145958 4.3818647.14634148 1.5834905.91685538 3.0436392 2.14145958 4.0581353l3.4 2.83.45.37c2.5527673 2.111322 6.3328304 1.7579196 8.45-.79l1.28-1.54c2.111322-2.5527673 1.7579196-6.3328304-.79-8.45zm-2.75 6.8c-1.06 1.27-2.6 1.74-3.45 1.03s-.68-2.31.37-3.59 2.61-1.73 3.46-1.03.68 2.31-.38 3.59z" fill="#ecf0f1"/><path id="Shape" d="m22.08 41.64c-1.06 1.27-2.6 1.74-3.45 1.03s-.68-2.31.37-3.59 2.61-1.73 3.46-1.03.68 2.31-.38 3.59z" fill="#95a5a5"/><circle id="Oval" cx="6" cy="24" fill="#464f5d" r="1"/><circle id="Oval" cx="10" cy="26" fill="#464f5d" r="1"/><circle id="Oval" cx="4" cy="28" fill="#464f5d" r="1"/><circle id="Oval" cx="8" cy="30" fill="#464f5d" r="1"/><path id="Shape" d="m36.778 5.217c-.2651948-.00005664-.5195073-.10545063-.707-.293-3.907737-3.89908895-10.234263-3.89908895-14.142 0-.3923789.37897221-1.0160848.37355237-1.4018186-.01218142-.3857338-.3857338-.3911536-1.00943969-.0121814-1.40181858 4.6891928-4.67875071 12.2808072-4.67875071 16.97 0 .2859079.28599425.3714219.71603662.216678 1.08965456s-.5192821.61725909-.923678.61734544z" fill="#ff5364"/><path id="Shape" d="m24.05 8.045c-.4043959-.00008635-.7689341-.2437275-.923678-.61734544s-.0692299-.80366031.216678-1.08965456c3.1262812-3.1194272 8.1877188-3.1194272 11.314 0 .2599566.25107447.3642126.62287789.2726972.97250732-.0915155.34962944-.3645604.6226744-.7141899.71418984-.3496294.09151544-.7214328-.01274058-.9725073-.27269716-2.3450529-2.33921535-6.1409471-2.33921535-8.486 0-.1874927.18754937-.4418052.29294336-.707.293z" fill="#ff5364"/><path id="Shape" d="m31.121 10.874c-.2651948-.0000566-.5195073-.1054506-.707-.293-.7809997-.78076388-2.0470003-.78076388-2.828 0-.2510745.2599566-.6228779.3642126-.9725073.2726972-.3496295-.0915155-.6226744-.3645604-.7141899-.7141899-.0915154-.34962941.0127406-.72143283.2726972-.9725073 1.5619994-1.56152775 4.0940006-1.56152775 5.656 0 .2859079.28599425.3714219.71603662.216678 1.0896546-.1547439.3736179-.5192821.6172591-.923678.6173454z" fill="#ff5364"/></g></g></svg>