<svg id="Capa_1" enable-background="new 0 0 512 512" height="512" viewBox="0 0 512 512" width="512" xmlns="http://www.w3.org/2000/svg"><g><path d="m166.717 0c-38.797 0-70.248 31.451-70.248 70.248s31.451 70.248 70.248 70.248c11.284 0 21.938-2.676 31.386-7.404v76.302h38.862v-139.146c0-38.797-31.451-70.248-70.248-70.248z" fill="#f3f0f3"/><path d="m151.332 98.778h-1.277c-7.276 0-13.174-5.898-13.174-13.174v-35.01c0-7.276 5.898-13.174 13.174-13.174h1.277c7.276 0 13.174 5.898 13.174 13.174v35.011c0 7.275-5.898 13.173-13.174 13.173z" fill="#7a6d79"/><path d="m164.511 50.984v34.231c0 7.487-6.076 13.563-13.573 13.563h-.494c-2.338 0-4.531-.587-6.447-1.627 4.243-2.296 7.126-6.776 7.126-11.936v-34.231c0-5.159-2.883-9.639-7.126-11.935 1.915-1.04 4.109-1.627 6.447-1.627h.494c7.497 0 13.573 6.076 13.573 13.562z" fill="#685e68"/><path d="m351.6 512h-191.2c-34.087 0-61.72-27.633-61.72-61.72v-234.981c0-3.261 2.644-5.905 5.905-5.905h302.832c3.261 0 5.905 2.644 5.905 5.905v234.981c-.001 34.087-27.635 61.72-61.722 61.72z" fill="#cbc4cc"/><path d="m413.318 215.575v231.845c0 35.668-28.909 64.577-64.576 64.577h-21.323c35.668 0 64.576-28.909 64.576-64.577v-231.845c0-3.411-2.762-6.184-6.173-6.184h21.323c3.411.001 6.173 2.773 6.173 6.184z" fill="#b5adb6"/><path d="m345.283 0c38.797 0 70.248 31.451 70.248 70.248s-31.451 70.248-70.248 70.248c-11.284 0-21.938-2.676-31.386-7.404v76.302h-38.862v-139.146c0-38.797 31.451-70.248 70.248-70.248z" fill="#f3f0f3"/><path d="m415.529 70.252c0 38.793-31.45 70.244-70.244 70.244-8.125 0-15.921-1.39-23.181-3.934 39.947-1.349 71.912-34.159 71.912-74.435 0-24.314-11.647-45.909-29.669-59.513 29.525 8.311 51.182 35.436 51.182 67.638z" fill="#e2dee2"/><path d="m360.668 98.778h1.277c7.276 0 13.174-5.898 13.174-13.174v-35.01c0-7.276-5.898-13.174-13.174-13.174h-1.277c-7.276 0-13.174 5.898-13.174 13.174v35.011c0 7.275 5.898 13.173 13.174 13.173z" fill="#7a6d79"/><path d="m375.119 50.984v34.231c0 7.487-6.076 13.563-13.563 13.563h-.494c-2.338 0-4.531-.587-6.447-1.627 4.233-2.296 7.116-6.776 7.116-11.936v-34.231c0-5.159-2.883-9.639-7.116-11.935 1.915-1.04 4.109-1.627 6.447-1.627h.494c7.487 0 13.563 6.076 13.563 13.562z" fill="#685e68"/><g><path d="m310.268 258.633h-117.779c-4.142 0-7.5-3.357-7.5-7.5s3.358-7.5 7.5-7.5h117.779c4.142 0 7.5 3.357 7.5 7.5s-3.358 7.5-7.5 7.5z" fill="#7a6d79"/></g><g><g><g><path d="m54.18 91.645c-2.661 0-5.238-1.419-6.598-3.921-1.957-3.603-2.991-7.684-2.991-11.801 0-3.881.924-7.752 2.672-11.195 1.875-3.693 6.389-5.168 10.083-3.292 3.693 1.875 5.167 6.39 3.292 10.083-.695 1.368-1.047 2.851-1.047 4.404 0 1.647.395 3.209 1.172 4.641 1.977 3.641.629 8.193-3.011 10.171-1.137.617-2.363.91-3.572.91z" fill="#b5adb6"/></g><g><path d="m32.715 108.668c-2.537 0-5.012-1.287-6.423-3.616-5.321-8.787-8.134-18.888-8.134-29.21 0-10.321 2.813-20.423 8.135-29.21 2.145-3.544 6.756-4.679 10.3-2.53 3.543 2.146 4.676 6.757 2.53 10.3-3.902 6.444-5.965 13.858-5.965 21.44s2.063 14.996 5.965 21.44c2.146 3.543 1.013 8.154-2.53 10.3-1.215.735-2.554 1.086-3.878 1.086z" fill="#b5adb6"/></g></g><g><g><path d="m457.82 91.645c-1.209 0-2.436-.293-3.573-.91-3.64-1.978-4.988-6.53-3.011-10.171.778-1.432 1.172-2.993 1.172-4.641 0-1.554-.353-3.036-1.047-4.404-1.875-3.693-.401-8.208 3.292-10.083 3.693-1.876 8.208-.401 10.083 3.292 1.748 3.443 2.672 7.314 2.672 11.195 0 4.117-1.034 8.198-2.991 11.801-1.358 2.502-3.936 3.921-6.597 3.921z" fill="#b5adb6"/></g><g><path d="m479.285 108.668c-1.323 0-2.663-.35-3.878-1.086-3.543-2.146-4.676-6.757-2.53-10.3 3.903-6.444 5.965-13.858 5.965-21.44s-2.063-14.996-5.965-21.44c-2.146-3.543-1.013-8.154 2.53-10.3 3.544-2.146 8.154-1.014 10.3 2.53 5.322 8.787 8.135 18.889 8.135 29.21 0 10.322-2.813 20.423-8.134 29.21-1.411 2.329-3.886 3.616-6.423 3.616z" fill="#b5adb6"/></g></g></g></g></svg>