<svg id="Capa_1" enable-background="new 0 0 512 512" height="512" viewBox="0 0 512 512" width="512" xmlns="http://www.w3.org/2000/svg"><g><path d="m253.939 304.429c-.031 3.678-.062 7.345-.103 11.013-.206 20.985-.556 41.97-1.051 62.954-.515 21.469-17.925 38.92-39.404 39.003-.258.01-.515.01-.773 0-21.479-.082-38.889-17.534-39.394-39.003-.484-20.264-.824-40.517-1.03-60.781-.062-5.151-.103-10.302-.134-15.453-.134-18.172-.154-36.355-.072-54.527-14.999 6.14-31.41 9.529-48.624 9.529h-12.671c-33.295 0-61.924-24.034-67.199-56.918-7.623-47.471-7.623-95.858 0-143.329 5.274-32.883 33.903-56.917 67.198-56.917h12.671c71.01 0 128.587 57.567 128.587 128.577 1.783 58.617 2.452 117.234 1.999 175.852z" fill="#f6f1f1"/><path d="m257.195 309.889c0 2.184-.906 4.152-2.359 5.553-1.391 1.35-3.276 2.174-5.367 2.174h-76.285c-.062-5.151-.103-10.302-.134-15.453h76.419c2.143 0 4.069.865 5.47 2.266 1.391 1.391 2.256 3.327 2.256 5.46z" fill="#dae4ea"/><path d="m224.064 415.875c-3.357.958-6.9 1.439-10.556 1.459h-.783c-21.749 0-39.201-17.566-39.394-39.013-1.04-43.585-1.549-87.101-1.353-130.686 0 0 17.533-6.65 22.002-16.178-.206 43.585.196 103.278 1.226 146.864.423 17.818 12.483 32.899 28.858 37.554z" fill="#dae4ea"/><path d="m92.795 56.916c-7.621 47.478-7.621 95.863 0 143.331 4.439 27.663 25.408 49.075 51.773 55.172-6.9 1.153-13.996 1.751-21.216 1.751h-12.668c-33.297 0-61.928-24.038-67.201-56.923-7.621-47.468-7.621-95.853 0-143.331 5.273-32.875 33.904-56.912 67.201-56.912h12.668c7.23 0 14.316.597 21.226 1.751-26.376 6.096-47.345 27.498-51.783 55.161z" fill="#dae4ea"/><path d="m88.863 176.444c-9.745 0-17.644-7.9-17.644-17.644v-63.277c0-9.745 7.9-17.644 17.644-17.644 9.745 0 17.644 7.9 17.644 17.644v63.276c0 9.745-7.899 17.645-17.644 17.645z" fill="#407093"/><path d="m445.635 294.776c-5.275 32.873-33.903 56.907-67.209 56.907h-12.671c-17.204 0-33.625-3.389-48.625-9.519.082 18.172.062 36.355-.062 54.527-.031 5.151-.082 10.302-.134 15.453-.206 20.264-.556 40.517-1.03 60.781-.505 21.469-17.915 38.92-39.394 39.003h-.783c-21.479-.082-38.889-17.534-39.394-39.003-.484-20.264-.824-40.527-1.03-60.781-.062-5.151-.113-10.302-.144-15.453-.422-57.865.258-115.731 2.019-173.586 0-71.01 57.567-128.577 128.577-128.577h12.671c33.306 0 61.934 24.034 67.209 56.907 7.613 47.472 7.613 95.87 0 143.341z" fill="#f6f1f1"/><path d="m270.033 223.058c-2.544 83.267-2.822 166.545-.855 249.812.381 15.757 9.862 29.409 23.364 35.557-4.902 2.245-10.337 3.469-16.053 3.5h-.803c-21.473-.093-38.878-17.585-39.383-39.059-1.967-83.267-1.689-166.545.845-249.812 0-71.012 57.571-128.583 128.583-128.583h12.668c2.863 0 5.695.175 8.476.525-65.522 5.935-116.842 61.003-116.842 128.06z" fill="#dae4ea"/><path d="m317.007 396.692c-.031 5.151-.082 10.302-.134 15.453h-81.632c-.062-5.151-.113-10.302-.144-15.453z" fill="#dae4ea"/><path d="m402.25 270.969c9.745 0 17.644-7.9 17.644-17.644v-63.276c0-9.745-7.9-17.644-17.644-17.644-9.745 0-17.644 7.9-17.644 17.644v63.276c0 9.745 7.899 17.644 17.644 17.644z" fill="#407093"/><circle cx="183.197" cy="137.628" fill="#407093" r="16.439"/><circle cx="301.151" cy="244.488" fill="#407093" r="16.439"/><g fill="#daeefa"><path d="m152.905 440.28c0 8.532-6.917 15.448-15.448 15.448-32.503 0-58.947-26.443-58.947-58.947 0-8.532 6.917-15.448 15.448-15.448s15.448 6.917 15.448 15.448c0 15.467 12.583 28.05 28.05 28.05 8.533 0 15.449 6.917 15.449 15.449z"/><path d="m152.905 496.552c0 8.532-6.917 15.448-15.448 15.448-63.532 0-115.218-51.687-115.218-115.218 0-8.532 6.917-15.448 15.448-15.448s15.448 6.917 15.448 15.448c0 46.495 37.826 84.322 84.321 84.322 8.533-.001 15.449 6.916 15.449 15.448z"/><path d="m359.095 440.28c0 8.532 6.917 15.448 15.448 15.448 32.503 0 58.947-26.443 58.947-58.947 0-8.532-6.917-15.448-15.448-15.448-8.532 0-15.448 6.917-15.448 15.448 0 15.467-12.583 28.05-28.05 28.05-8.533 0-15.449 6.917-15.449 15.449z"/><path d="m359.095 496.552c0 8.532 6.917 15.448 15.448 15.448 63.532 0 115.218-51.687 115.218-115.218 0-8.532-6.917-15.448-15.448-15.448s-15.448 6.917-15.448 15.448c0 46.495-37.826 84.322-84.321 84.322-8.533-.001-15.449 6.916-15.449 15.448z"/></g></g></svg>