<svg id="Capa_1" enable-background="new 0 0 512 512" height="512" viewBox="0 0 512 512" width="512" xmlns="http://www.w3.org/2000/svg"><g><path d="m443.733 472.716v30.751c0 4.713-3.82 8.533-8.533 8.533h-34.133c-4.713 0-8.533-3.82-8.533-8.533v-30.751z" fill="#5a5a5a"/><path d="m420.039 472.716v30.751c0 4.713-3.82 8.533-8.533 8.533h23.694c4.713 0 8.533-3.82 8.533-8.533v-30.751z" fill="#464646"/><path d="m119.467 472.716v30.751c0 4.713-3.82 8.533-8.533 8.533h-34.134c-4.713 0-8.533-3.82-8.533-8.533v-30.751z" fill="#5a5a5a"/><path d="m95.772 472.716v30.751c0 4.713-3.82 8.533-8.533 8.533h23.694c4.713 0 8.533-3.82 8.533-8.533v-30.751z" fill="#464646"/><path d="m17.067 170.667v-5.151h477.867v5.151l-15.275 274.96c-1.005 18.088-15.965 32.24-34.081 32.24h-379.155c-18.116 0-33.076-14.152-34.081-32.24z" fill="#9ed9ae"/><path d="m471.239 165.516v5.151l-15.276 274.96c-1.005 18.088-15.965 32.24-34.08 32.24h23.694c18.116 0 33.075-14.152 34.081-32.24l15.276-274.96v-5.151z" fill="#81c8ac"/><path d="m480.282 434.393.859-15.453h-450.281l.858 15.453z" fill="#81c8ac"/><g><path d="m43.01 8.533h425.98v70.734h-425.98z" fill="#6a60b2"/><path d="m486.4 0h-17.067c-4.713 0-8.533 3.82-8.533 8.533v51.2c0 4.713-3.82 8.533-8.533 8.533h-59.733c-4.713 0-8.533-3.82-8.533-8.533v-51.2c-.001-4.713-3.821-8.533-8.534-8.533h-17.067c-4.713 0-8.533 3.82-8.533 8.533v51.2c0 4.713-3.82 8.533-8.533 8.533h-59.734c-4.713 0-8.533-3.82-8.533-8.533v-51.2c0-4.713-3.821-8.533-8.533-8.533h-17.067c-4.713 0-8.533 3.82-8.533 8.533v51.2c0 4.713-3.82 8.533-8.533 8.533h-59.733c-4.713 0-8.533-3.82-8.533-8.533v-51.2c0-4.713-3.82-8.533-8.533-8.533h-17.067c-4.715 0-8.535 3.82-8.535 8.533v51.2c0 4.713-3.821 8.533-8.533 8.533h-59.734c-4.713 0-8.533-3.82-8.533-8.533v-51.2c0-4.713-3.82-8.533-8.533-8.533h-17.067c-4.713 0-8.533 3.82-8.533 8.533v99.018h477.867v-99.018c-.001-4.713-3.821-8.533-8.534-8.533z" fill="#766eb8"/><g><path d="m486.4 0h-17.067c-1.175 0-2.295.238-3.314.668 3.066 1.294 5.219 4.328 5.219 7.866v99.018h23.694v-99.019c.001-4.713-3.819-8.533-8.532-8.533z" fill="#5d519d"/></g><path d="m504 170.667h-496c-4.418 0-8-3.582-8-8v-52.267c0-4.418 3.582-8 8-8h496c4.418 0 8 3.582 8 8v52.267c0 4.418-3.582 8-8 8z" fill="#6a60b2"/><path d="m503.758 102.4h-23.694c4.552 0 8.241 3.69 8.241 8.241v51.784c0 4.552-3.69 8.242-8.241 8.242h23.694c4.552 0 8.241-3.69 8.241-8.242v-51.784c.001-4.551-3.689-8.241-8.241-8.241z" fill="#5d529d"/></g><g><g><path d="m292.061 400.26h-18.994c-4.268 0-7.726-3.459-7.726-7.726 0-4.268 3.459-7.726 7.726-7.726h18.994c3.729 0 5.652-2.459 6.305-3.516.654-1.056 1.993-3.876.325-7.212l-6.112-12.223c-1.909-3.817-.361-8.458 3.455-10.366 3.819-1.906 8.46-.361 10.366 3.455l6.112 12.223c3.57 7.141 3.196 15.458-1.001 22.249-4.196 6.788-11.468 10.842-19.45 10.842z" fill="#f2f9ff"/></g><g><path d="m282.432 332.001c-2.834 0-5.563-1.566-6.917-4.273l-12.885-25.771c-1.283-2.566-3.762-4.098-6.631-4.098-2.868 0-5.347 1.531-6.63 4.097l-12.882 25.767c-1.908 3.816-6.548 5.365-10.366 3.455-3.816-1.908-5.363-6.549-3.455-10.365l12.882-25.766c3.897-7.797 11.733-12.64 20.45-12.64 8.717-.001 16.554 4.842 20.453 12.639l12.885 25.771c1.909 3.817.361 8.458-3.455 10.366-1.109.554-2.288.818-3.449.818z" fill="#f2f9ff"/></g><g><path d="m238.933 400.26h-18.994c-7.983 0-15.255-4.054-19.451-10.845-4.197-6.79-4.571-15.107-1.001-22.247l6.112-12.223c1.908-3.816 6.546-5.366 10.366-3.455 3.816 1.909 5.363 6.549 3.455 10.366l-6.112 12.223c-1.668 3.336-.329 6.155.325 7.212.653 1.057 2.575 3.516 6.306 3.516h18.994c4.268 0 7.726 3.459 7.726 7.726.001 4.268-3.458 7.727-7.726 7.727z" fill="#f2f9ff"/></g></g><path d="m504 256h-496c-4.418 0-8-3.582-8-8v-18.133c0-4.418 3.582-8 8-8h496c4.418 0 8 3.582 8 8v18.133c0 4.418-3.582 8-8 8z" fill="#bbe6a9"/><path d="m503.758 221.867h-23.694c4.552 0 8.241 3.69 8.241 8.241v17.651c0 4.551-3.69 8.241-8.241 8.241h23.694c4.552 0 8.241-3.69 8.241-8.241v-17.651c.001-4.552-3.689-8.241-8.241-8.241z" fill="#9edaab"/></g></svg>