<svg id="Capa_1" enable-background="new 0 0 512 512" height="512" viewBox="0 0 512 512" width="512" xmlns="http://www.w3.org/2000/svg"><g><path d="m112.697 210.129c-25.395-27.327-40.104-75.996-27.312-134.971 2.548-11.745 16.472-16.49 25.802-8.913 24.138 19.603 67.68 19.592 99.119 51.03 26.369 26.369 26.309 69.157-.178 95.452-27.297 27.099-71.247 25.578-97.431-2.598z" fill="#7fd49d"/><path d="m194.868 196.105c-.92 0-1.854-.17-2.761-.529-26.371-10.448-43.999-27.97-63.895-52.854-2.586-3.235-2.061-7.955 1.175-10.542s7.956-2.061 10.542 1.174c21.678 27.115 37.316 40.199 57.703 48.275 3.851 1.526 5.735 5.884 4.21 9.735-1.165 2.946-3.988 4.741-6.974 4.741z" fill="#5ec783"/><path d="m403.504 210.129c25.395-27.327 40.104-75.996 27.312-134.971-2.548-11.745-16.472-16.49-25.802-8.913-24.138 19.603-67.68 19.592-99.119 51.03-26.369 26.369-26.309 69.157.178 95.452 27.297 27.099 71.248 25.578 97.431-2.598z" fill="#7fd49d"/><path d="m321.333 196.105c-2.985 0-5.808-1.795-6.975-4.739-1.525-3.851.359-8.21 4.21-9.735 20.387-8.077 36.025-21.161 57.703-48.275 2.587-3.235 7.307-3.761 10.542-1.174 3.235 2.586 3.761 7.306 1.175 10.542-19.895 24.884-37.523 42.406-63.895 52.854-.905.357-1.841.527-2.76.527z" fill="#5ec783"/><ellipse cx="258.101" cy="187.849" fill="#5ec783" rx="89.032" ry="62.976"/><path d="m258.101 512c174.97 0 223.772.164 223.772-100.38 0-123.586-100.186-223.772-223.772-223.772s-223.772 100.187-223.772 223.772c0 100.544 48.802 100.38 223.772 100.38z" fill="#7fd49d"/><path d="m147.106 217.278c-67.375 38.563-112.777 111.149-112.777 194.342 0 98.285 46.656 100.336 212.19 100.378-110.173-48.887-130.126-229.707-99.413-294.72z" fill="#5ec783"/><g><g><path d="m194.228 337.29c.008 16.423-16.704 29.745-37.327 29.756-20.623.01-37.349-13.295-37.357-29.718-.008-16.424 16.704-29.746 37.327-29.756 20.623-.012 37.348 13.294 37.357 29.718z" fill="#fff"/><path d="m321.95 337.226c.008 16.423 16.734 29.729 37.357 29.718 20.623-.01 37.335-13.332 37.327-29.756s-16.734-29.729-37.357-29.719c-20.623.011-37.335 13.333-37.327 29.757z" fill="#fff"/><path d="m294.686 323.795c-.011-22.622-16.4-24.739-36.616-24.729s-36.603 2.144-36.592 24.766c.011 22.621 16.409 40.951 36.625 40.941s36.595-18.356 36.583-40.978z" fill="#4e5660"/></g><g fill="#4e5660"><path d="m338.385 310.696c-.005 0-.01 0-.015 0-4.142-.008-7.493-3.373-7.485-7.515l.028-14.666c.008-4.137 3.364-7.485 7.5-7.485h.015c4.142.008 7.493 3.372 7.485 7.515l-.028 14.667c-.008 4.136-3.364 7.484-7.5 7.484z"/><path d="m202.019 309.353c-.006 0-.011 0-.017 0-4.143-.009-7.493-3.375-7.483-7.517.006-2.587-.996-5.022-2.822-6.855-1.825-1.833-4.256-2.847-6.844-2.852-.007 0-.015 0-.021 0-2.58 0-5.006 1.001-6.834 2.822-1.834 1.826-2.847 4.256-2.853 6.843-.009 4.137-3.365 7.484-7.5 7.484-.005 0-.011 0-.017 0-4.142-.009-7.492-3.374-7.483-7.516.015-6.594 2.596-12.788 7.269-17.441 4.66-4.639 10.844-7.192 17.416-7.192h.057c6.594.014 12.788 2.596 17.441 7.269s7.207 10.879 7.192 17.473c-.011 4.135-3.367 7.482-7.501 7.482z"/></g></g><g><path d="m467.286 360.001c15.311 0 27.723 12.412 27.723 27.723s-12.412 27.723-27.723 27.723-27.723-12.412-27.723-27.723v-27.723z" fill="#b9e6ff"/><path d="m467.286 339.848c15.311 0 27.723-12.412 27.723-27.723s-12.412-27.723-27.723-27.723-27.723 12.412-27.723 27.723v27.723z" fill="#b9e6ff"/><ellipse cx="446.659" cy="349.924" fill="#4e5660" rx="34.286" ry="34.286" transform="matrix(.924 -.383 .383 .924 -99.91 197.565)"/></g><g><path d="m82.769 47.327c-10.827-10.827-10.827-28.38 0-39.207s28.38-10.827 39.207 0 10.827 28.38 0 39.207l-19.604 19.603z" fill="#b9e6ff"/><path d="m68.519 61.577c-10.827-10.827-28.38-10.827-39.207 0s-10.827 28.38 0 39.207 28.38 10.827 39.207 0l19.603-19.604z" fill="#b9e6ff"/><circle cx="90.229" cy="69.037" fill="#4e5660" r="34.286"/></g><path d="m73.926 379.471 49.151 3.314c8.189.552 15.213 6.043 17.724 13.857l13.533 42.099c3.749 11.661-3.753 23.927-15.842 25.902l-14.611 2.387c-4.858.794-9.255 3.349-12.349 7.177l-20.461 25.312c-8.936 11.054-26.22 9.545-33.105-2.889l-12.088-21.83c-.947-1.71-2.138-3.272-3.537-4.636l-19.304-18.83c-7.375-7.194-8.091-18.81-1.655-26.855l27.025-33.781c6.154-7.696 15.687-11.889 25.519-11.227z" fill="#f1d88c"/><path d="m77.923 456.793c-4.143 0-7.5-3.358-7.5-7.5v-13.56c0-6.626 3.989-12.461 10.163-14.867l19.026-7.413c3.861-1.505 8.207.406 9.711 4.266 1.504 3.859-.406 8.207-4.266 9.711l-19.026 7.413c-.364.142-.608.5-.608.89v13.56c0 4.142-3.358 7.5-7.5 7.5z" fill="#f7ef87"/></g></svg>