<?xml version="1.0" encoding="iso-8859-1"?>
<!-- Generator: Adobe Illustrator 19.0.0, SVG Export Plug-In . SVG Version: 6.00 Build 0)  -->
<svg version="1.1" id="Layer_1" xmlns="http://www.w3.org/2000/svg" xmlns:xlink="http://www.w3.org/1999/xlink" x="0px" y="0px"
	 viewBox="0 0 512 512" style="enable-background:new 0 0 512 512;" xml:space="preserve">
<path style="fill:#FFD76E;" d="M256,512C114.511,512,0,397.504,0,256C0,114.509,114.496,0,256,0c141.489,0,256,114.496,256,256
	C512,397.491,397.504,512,256,512z"/>
<path style="fill:#F5AA2C;" d="M256,0c-0.199,0-0.396,0.007-0.595,0.007v511.985c0.199,0,0.396,0.007,0.595,0.007
	c141.504,0,256-114.509,256-256C512,114.496,397.489,0,256,0z"/>
<g>
	<path style="fill:#48AEE2;" d="M164.787,347.21c-6.975-6.974-6.975-18.283,0-25.258l52.703-52.703
		c6.974-6.975,18.283-6.975,25.258,0c6.975,6.974,6.975,18.283,0,25.258l-52.703,52.703
		C183.071,354.185,171.761,354.186,164.787,347.21z"/>
	<path style="fill:#48AEE2;" d="M256,236.949c-9.864,0-17.86-7.997-17.86-17.86V111.926c0-9.864,7.997-17.86,17.86-17.86
		s17.86,7.997,17.86,17.86v107.163C273.86,228.952,265.864,236.949,256,236.949z"/>
</g>
<g>
	<path style="fill:#4390CB;" d="M256,94.065c-0.201,0-0.396,0.024-0.595,0.03v142.823c0.199,0.006,0.394,0.03,0.595,0.03
		c9.864,0,17.86-7.997,17.86-17.86V111.926C273.86,102.062,265.864,94.065,256,94.065z"/>
	<path style="fill:#4390CB;" d="M255.405,309.581c-29.873,0-54.177-24.303-54.177-54.177s24.303-54.177,54.177-54.177
		s54.177,24.303,54.177,54.177S285.278,309.581,255.405,309.581z"/>
</g>
<path style="fill:#3F72B4;" d="M255.405,201.228v108.353c29.873,0,54.177-24.303,54.177-54.177S285.278,201.228,255.405,201.228z"/>
<g>
</g>
<g>
</g>
<g>
</g>
<g>
</g>
<g>
</g>
<g>
</g>
<g>
</g>
<g>
</g>
<g>
</g>
<g>
</g>
<g>
</g>
<g>
</g>
<g>
</g>
<g>
</g>
<g>
</g>
</svg>
