<svg id="Capa_1" enable-background="new 0 0 512 512" height="512" viewBox="0 0 512 512" width="512" xmlns="http://www.w3.org/2000/svg" xmlns:xlink="http://www.w3.org/1999/xlink"><linearGradient id="SVGID_1_" gradientUnits="userSpaceOnUse" x1="256.992" x2="256.992" y1="406" y2="0"><stop offset="0" stop-color="#ffc2cc"/><stop offset="1" stop-color="#fff2f4"/></linearGradient><linearGradient id="SVGID_2_" gradientUnits="userSpaceOnUse" x1="256" x2="256" y1="512" y2="143.446"><stop offset="0" stop-color="#fd3a84"/><stop offset="1" stop-color="#ffa68d"/></linearGradient><g><g><g><path d="m256 256c-16.816 0-30 13.184-30 30v90c0 16.816 13.184 30 30 30s30-13.184 30-30v-90c0-16.816-13.184-30-30-30zm.992-256c-74.443 0-135 60.557-135 135v26.195c0 4.614 2.139 8.979 5.771 11.821 3.633 2.813 8.32 3.882 12.861 2.725 15.645-3.896 33.721-2.725 50.977 3.955 4.57 1.787 9.785 1.172 13.887-1.626 4.072-2.798 6.504-7.412 6.504-12.363v-30.707c0-24.814 20.186-45 45-45s45 20.186 45 45v30.707c0 4.951 2.432 9.565 6.504 12.363 4.197 2.87 9.405 3.373 13.887 1.626 17.256-6.665 35.332-7.808 50.977-3.955 4.541 1.201 9.229.117 12.861-2.725s5.771-7.207 5.771-11.821v-26.195c0-74.443-60.557-135-135-135z" fill="url(#SVGID_1_)"/></g></g><g><g><path d="m379.6 146.499c-21.599-5.4-46.198-3.6-68.698 5.099-18.604 6.901-37.2 18.302-54.902 34.201-17.703-15.899-36.299-27.299-54.602-34.201-23.101-8.699-47.695-10.199-68.998-5.099-50.702 12.301-86.1 60.601-86.1 117.6 0 72.602 58.499 121.501 146.7 195.601 17.699 14.7 36.299 31.601 56.1 48.701 2.999 2.399 6.299 3.6 9.899 3.6s6.903-1.201 9.899-3.6c128.811-113.307 196.802-163.278 196.802-244.302 0-56.999-35.398-105.299-86.1-117.6zm-108.6 229.501c0 8.399-6.599 15-15 15s-15-6.601-15-15v-90c0-8.401 6.599-15 15-15s15 6.599 15 15z" fill="url(#SVGID_2_)"/></g></g></g></svg>