<svg id="Capa_1" enable-background="new 0 0 512 512" height="512" viewBox="0 0 512 512" width="512" xmlns="http://www.w3.org/2000/svg"><g><g><path d="m208.09 129.277c0-54.713-44.354-99.068-99.067-99.068-30.62 0-68.426 13.892-95.784 35.717-8.439 6.734-13.239 17.034-13.239 27.83v71.041c0 10.796 4.8 21.097 13.239 27.829 27.358 21.825 65.164 35.717 95.784 35.717 15.845 0 30.817-3.726 44.099-10.34v246.751c0 9.408 7.627 17.035 17.035 17.035h20.898c9.408 0 17.035-7.627 17.035-17.035z" fill="#eceaec"/><path d="m13.239 183.046c28.007 20.986 65.164 35.717 95.784 35.717 15.845 0 21.751-1.303 34.92-6.31l9.179 5.551v228.17c0 9.409 2.141 26.036 17.036 26.036h20.897c15.372 0 17.036-16.627 17.036-26.036v-316.897c0-54.713-44.354-99.067-99.067-99.067-30.62 0-68.425 13.892-95.784 35.717-8.44 6.732-13.24 17.033-13.24 27.829v52.461c0 10.796 1.19 27.801 13.239 36.829z" fill="#eceaec"/><g fill="#dad8db"><path d="m153.122 207.396c0-3.637-3.673-6.163-7.046-4.801-11.446 4.621-23.951 7.169-37.053 7.169-30.62 0-68.426-13.892-95.784-35.717-8.439-6.733-13.239-17.034-13.239-27.83v18.581c0 10.796 4.8 21.097 13.239 27.829 27.358 21.825 65.164 35.717 95.784 35.717 15.845 0 30.817-3.726 44.099-10.34z"/><path d="m191.055 463.21h-20.897c-9.409 0-17.036-7.627-17.036-17.036v18.581c0 9.409 7.627 17.036 17.036 17.036h20.897c9.409 0 17.035-7.627 17.035-17.036v-18.581c0 9.409-7.626 17.036-17.035 17.036z"/></g><g><path d="m498.761 183.046c-28.007 20.986-65.164 35.717-95.784 35.717-15.845 0-21.751-1.303-34.92-6.31l-9.179 5.551v228.17c0 9.409-2.141 26.036-17.036 26.036h-20.897c-15.372 0-17.036-16.627-17.036-26.036v-316.897c0-54.713 44.354-99.067 99.067-99.067 30.62 0 68.425 13.892 95.784 35.717 8.44 6.732 13.24 17.033 13.24 27.829v52.461c0 10.796-1.19 27.801-13.239 36.829z" fill="#eceaec"/><g fill="#dad8db"><path d="m358.878 207.396c0-3.637 3.673-6.163 7.046-4.801 11.446 4.621 23.951 7.169 37.053 7.169 30.62 0 68.426-13.892 95.784-35.717 8.439-6.733 13.239-17.034 13.239-27.83v18.581c0 10.796-4.8 21.097-13.239 27.829-27.358 21.825-65.164 35.717-95.784 35.717-15.845 0-30.817-3.726-44.099-10.34z"/><path d="m320.945 463.21h20.897c9.409 0 17.035-7.627 17.035-17.036v18.581c0 9.409-7.627 17.036-17.035 17.036h-20.897c-9.409 0-17.035-7.627-17.035-17.036v-18.581c0 9.409 7.626 17.036 17.035 17.036z"/></g></g></g><g><g fill="#454d58"><path d="m40.153 118.593v17.1c0 4.284 3.472 7.757 7.757 7.757s7.757-3.473 7.757-7.757v-17.1c0-4.284-3.472-7.757-7.757-7.757s-7.757 3.473-7.757 7.757z"/><path d="m130.807 68.552c-4.036-1.439-8.473.663-9.913 4.698s.664 8.473 4.698 9.913c.127.045 12.939 4.899 23.38 18.68 6.504 7.98 18.279-.994 12.365-9.369-13.374-17.65-29.836-23.674-30.53-23.922z"/><path d="m471.847 135.693v-17.1c0-4.284-3.472-7.757-7.757-7.757s-7.757 3.473-7.757 7.757v17.1c0 4.284 3.473 7.757 7.757 7.757s7.757-3.473 7.757-7.757z"/><path d="m352.162 103.342c3.384 2.572 8.266 1.935 10.867-1.498 10.38-13.699 23.11-18.578 23.414-18.692 4.013-1.452 6.101-5.877 4.664-9.901-1.44-4.035-5.879-6.139-9.913-4.698-.694.247-17.157 6.271-30.529 23.922-2.589 3.414-1.918 8.28 1.497 10.867z"/></g></g></g></svg>