<svg id="Capa_1" enable-background="new 0 0 512 512" height="512" viewBox="0 0 512 512" width="512" xmlns="http://www.w3.org/2000/svg"><g><g><path d="m.338 282.844c0 68.645 60.094 128 127.662 128h256c67.568 0 127.662-62.06 127.662-128-4.76-66.355-60.094-118.71-127.662-118.71h-256c-67.568.001-122.902 52.356-127.662 118.71z" fill="#eceaec"/><path d="m1.211 118.711c0 16.014 18.18 36.137 34.925 36.137h439.727c16.745 0 34.925-19.758 34.925-36.137-4.1-15.455-18.18-26.846-34.925-26.846h-439.727c-16.745 0-30.824 11.392-34.925 26.846 0 .001 0 .001 0 0z" fill="#dad8db"/><path d="m184.432 335.123 9.226 10.411c19.14 0 47.633-16.231 47.633-39.076-5.059-22.372-28.492-29.785-47.633-29.785-3.24 0-6.386.402-9.397 1.145z" fill="#eacc73"/><g><path d="m193.658 336.244c-3.182 0-6.266-.402-9.226-1.121l-13.2 3.877 1.834 9.956c5.98 3.716 13.033 5.868 20.591 5.868 21.581 0 48.64-9.408 48.64-39.076 0-3.355-.362-6.438-1.007-9.29-5.058 22.372-28.492 29.786-47.632 29.786z" fill="#e3bd57"/></g><path d="m47.628 274.802c0 12.688 7.514 33.6 16.996 43.083 24.015 24.015 69.25 61.014 109.686 20.577 9.997-9.997 17.152-28.895 17.152-39.767-4.19-24.108-23.3-46.199-37.73-60.629-24.015-24.015-63.431-23.536-88.038 1.071-10.09 10.092-16.116 22.675-18.066 35.665z" fill="#a6aec4"/><path d="m91.361 279.272c0 9.29 13.674 26.927 25.28 26.927s25.28-17.636 25.28-26.927c-3.784-10.293-13.674-17.636-25.28-17.636s-21.496 7.343-25.28 17.636z" fill="#df667c"/><path d="m187.867 188.005h136.266c17.244 0 19.736-15.719 19.736-23.871h-175.738c0 7.8 0 23.871 19.736 23.871z" fill="#454d58"/><path d="m475.864 145.558h-439.728c-16.745 0-30.824-11.391-34.925-26.846-.786 2.965-1.211 6.077-1.211 9.29 0 19.958 16.179 36.137 36.136 36.137h439.727c19.958 0 36.136-16.179 36.136-36.137 0-3.213-.425-6.325-1.211-9.29-4.1 15.454-18.18 26.846-34.924 26.846z" fill="#c8c5c9"/><path d="m324.133 178.715h-136.266c-9.291 0-17.145-6.139-19.736-14.581h-.909v12.516c0 11.402 9.243 20.645 20.645 20.645h136.266c11.402 0 20.645-9.243 20.645-20.645v-12.516h-.909c-2.591 8.442-10.445 14.581-19.736 14.581z" fill="#3c434c"/><path d="m384 401.554h-256c-67.568 0-122.902-52.355-127.662-118.71-.22 3.069-.338 6.166-.338 9.29 0 70.692 57.307 128 128 128h256c70.692 0 128-57.308 128-128 0-3.125-.118-6.221-.338-9.29-4.76 66.355-60.094 118.71-127.662 118.71z" fill="#dad8db"/><path d="m174.31 329.172c-40.436 40.436-85.671 3.438-109.686-20.577-9.482-9.482-15.129-21.368-16.996-33.792-2.805 18.683 2.83 38.207 16.996 52.373 24.015 24.015 69.25 61.014 109.686 20.577 16.14-16.14 19.936-33.043 17.152-49.057-1.897 10.189-7.155 20.479-17.152 30.476z" fill="#959db0"/><path d="m116.641 296.909c-11.606 0-21.496-7.343-25.28-17.637-1.065 2.896-1.646 6.025-1.646 9.29 0 14.871 12.055 26.927 26.927 26.927s26.927-12.055 26.927-26.927c0-3.265-.582-6.395-1.646-9.29-3.785 10.293-13.676 17.637-25.282 17.637z" fill="#dc4857"/><g><path d="m327.568 335.123-9.226 10.411c-19.14 0-47.633-16.231-47.633-39.076 5.059-22.372 28.492-29.785 47.633-29.785 3.24 0 6.386.402 9.397 1.145z" fill="#eacc73"/><g><path d="m318.342 336.244c3.182 0 6.266-.402 9.226-1.121l13.199 3.877-1.834 9.956c-5.98 3.716-13.033 5.868-20.591 5.868-21.581 0-48.64-9.408-48.64-39.076 0-3.355.362-6.438 1.007-9.29 5.059 22.372 28.493 29.786 47.633 29.786z" fill="#e3bd57"/></g><path d="m464.372 274.802c0 12.688-7.514 33.6-16.996 43.083-24.015 24.015-69.25 61.014-109.686 20.577-9.997-9.997-17.152-28.895-17.152-39.767 4.19-24.108 23.3-46.199 37.73-60.629 24.015-24.015 63.431-23.536 88.038 1.071 10.091 10.092 16.116 22.675 18.066 35.665z" fill="#a6aec4"/><path d="m420.639 279.272c0 9.29-13.674 26.927-25.28 26.927s-25.28-17.636-25.28-26.927c3.784-10.293 13.674-17.636 25.28-17.636s21.496 7.343 25.28 17.636z" fill="#df667c"/><path d="m337.69 329.172c40.436 40.436 85.671 3.438 109.686-20.577 9.482-9.482 15.129-21.368 16.996-33.792 2.805 18.683-2.83 38.207-16.996 52.373-24.015 24.015-69.25 61.014-109.686 20.577-16.14-16.14-19.936-33.043-17.152-49.057 1.897 10.189 7.155 20.479 17.152 30.476z" fill="#959db0"/><path d="m395.359 296.909c11.606 0 21.496-7.343 25.28-17.637 1.065 2.896 1.647 6.025 1.647 9.29 0 14.871-12.056 26.927-26.927 26.927s-26.927-12.055-26.927-26.927c0-3.265.582-6.395 1.646-9.29 3.784 10.293 13.675 17.637 25.281 17.637z" fill="#dc4857"/></g></g><g><path d="m236.426 398.453h39.148c4.284 0 7.757-3.473 7.757-7.757s-3.473-7.757-7.757-7.757h-39.148c-4.284 0-7.757 3.473-7.757 7.757s3.473 7.757 7.757 7.757z" fill="#454d58"/></g></g></svg>