<?xml version="1.0" encoding="iso-8859-1"?>
<!-- Generator: Adobe Illustrator 19.0.0, SVG Export Plug-In . SVG Version: 6.00 Build 0)  -->
<svg version="1.1" id="Layer_1" xmlns="http://www.w3.org/2000/svg" xmlns:xlink="http://www.w3.org/1999/xlink" x="0px" y="0px"
	 viewBox="0 0 512.004 512.004" style="enable-background:new 0 0 512.004 512.004;" xml:space="preserve">
<g>
	<path style="fill:#ECF0F1;" d="M211.864,441.014V264.321V224.65c0-102.118-29.246-142.53-35.31-153.962
		C137.739-2.396,24.481,0.491,2.765,81.166c-0.159,0.574-0.309,1.139-0.45,1.713c-3.769,14.963-2.657,69.155,1.333,84.065
		c2.719,10.169,6.744,22.652,13.895,33.88c21.23,33.359,67.681,38.153,89.282,9.234c0,0,44.897-57.662,43.246,13.18v217.777H211.864
		z"/>
	<g>
		<polygon style="fill:#ACB7C1;" points="158.898,493.983 203.036,493.983 203.036,441.017 158.898,441.017 		"/>
		<path style="fill:#ACB7C1;" d="M35.312,167.221c-4.882,0-8.828-3.955-8.828-8.828V78.945c0-4.873,3.946-8.828,8.828-8.828
			s8.828,3.955,8.828,8.828v79.448C44.14,163.266,40.194,167.221,35.312,167.221"/>
		<path style="fill:#ACB7C1;" d="M150.071,123.083c0,9.754-11.855,17.655-26.483,17.655s-26.483-7.901-26.483-17.655
			s11.855-17.655,26.483-17.655S150.071,113.329,150.071,123.083"/>
	</g>
	<path style="fill:#ECF0F1;" d="M300.14,440.876V264.183v-39.671c0-102.118,29.246-142.53,35.31-153.962
		C374.265-2.534,487.523,0.353,509.239,81.028c0.159,0.574,0.309,1.139,0.45,1.713c3.769,14.963,2.657,69.155-1.333,84.065
		c-2.719,10.169-6.744,22.652-13.895,33.88c-21.23,33.359-67.681,38.153-89.282,9.234c0,0-44.897-57.662-43.246,13.18v217.777
		H300.14z"/>
	<g>
		<polygon style="fill:#ACB7C1;" points="308.967,493.842 353.105,493.842 353.105,440.876 308.967,440.876 		"/>
		<path style="fill:#ACB7C1;" d="M476.691,167.083c-4.882,0-8.828-3.955-8.828-8.828V78.807c0-4.873,3.946-8.828,8.828-8.828
			c4.882,0,8.828,3.955,8.828,8.828v79.448C485.519,163.128,481.573,167.083,476.691,167.083"/>
		<path style="fill:#ACB7C1;" d="M361.933,122.945c0,9.754,11.855,17.655,26.483,17.655s26.483-7.901,26.483-17.655
			c0-9.754-11.855-17.655-26.483-17.655S361.933,113.191,361.933,122.945"/>
	</g>
</g>
<g>
</g>
<g>
</g>
<g>
</g>
<g>
</g>
<g>
</g>
<g>
</g>
<g>
</g>
<g>
</g>
<g>
</g>
<g>
</g>
<g>
</g>
<g>
</g>
<g>
</g>
<g>
</g>
<g>
</g>
</svg>
