<svg id="Capa_1" enable-background="new 0 0 496.988 496.988" height="512" viewBox="0 0 496.988 496.988" width="512" xmlns="http://www.w3.org/2000/svg"><g><path d="m301.199 297.324v-244.619c0-29.108-23.597-52.705-52.705-52.705-29.108 0-52.705 23.597-52.705 52.705v244.624c0 8.079-3.729 15.673-10.037 20.723-23.227 18.595-38.021 47.285-37.723 79.422.504 54.299 44.738 98.75 99.034 99.505 56.143.781 101.9-44.496 101.9-100.46 0-31.718-14.7-59.999-37.657-78.411-6.328-5.075-10.107-12.671-10.107-20.784z" fill="#d7effa"/><path d="m284.388 338.203-2.644-1.633c-7.797-4.815-12.544-13.324-12.544-22.488v-221.739l-19.84-4.849-21.57 4.849v221.74c0 9.164-4.747 17.673-12.544 22.488l-2.644 1.633c-20.621 12.731-32.798 34.777-32.572 58.973.342 36.875 30.613 67.292 67.48 67.805.328.005.988.007.989.007 19.457 0 37.674-8.06 50.838-22.602 10.523-11.626 16.747-26.635 17.537-42.296 1.276-25.311-11.078-48.671-32.486-61.888z" fill="#f26e91"/><path d="m284.388 338.203-2.644-1.633c-7.797-4.815-12.544-13.324-12.544-22.488v-221.739l-26-4.849v236.588c0 9.164 4.747 17.673 12.544 22.488l2.644 1.633c21.408 13.217 33.762 36.577 32.485 61.886-.79 15.661-7.014 30.671-17.537 42.296-4.122 4.554-8.741 8.471-13.737 11.705 15.199-2.464 29.114-9.971 39.737-21.705 10.523-11.626 16.747-26.635 17.537-42.296 1.277-25.309-11.077-48.669-32.485-61.886z" fill="#e05c7e"/><path d="m269.199 92.343v-39.638c0-11.682-9.724-21.135-21.504-20.69-11.205.424-19.907 9.986-19.907 21.198v39.129h41.411z" fill="#a29aa5"/><path d="m247.696 32.015c-4.637.175-8.83 1.934-12.17 4.708 4.676 3.8 7.671 9.591 7.671 16.071v39.548h26.003v-39.637c-.001-11.682-9.725-21.135-21.504-20.69z" fill="#8c818f"/><g fill="#f26e91"><path d="m255.994 131.432h12.206c.34 0 .672-.031 1-.074v-14.852c-.328-.043-.66-.074-1-.074h-12.205c-4.143 0-7.5 3.358-7.5 7.5-.001 4.142 3.357 7.5 7.499 7.5z"/><path d="m255.994 152.423c-4.143 0-7.5 3.358-7.5 7.5s3.357 7.5 7.5 7.5h12.206c.34 0 .672-.03 1-.074v-14.852c-.328-.044-.66-.074-1-.074z"/><path d="m255.994 275.396h12.206c.34 0 .672-.03 1-.074v-14.852c-.328-.044-.66-.074-1-.074h-12.205c-4.143 0-7.5 3.358-7.5 7.5-.001 4.142 3.357 7.5 7.499 7.5z"/><path d="m255.994 239.404h12.206c.34 0 .672-.03 1-.074v-14.852c-.328-.044-.66-.074-1-.074h-12.205c-4.143 0-7.5 3.358-7.5 7.5-.001 4.142 3.357 7.5 7.499 7.5z"/><path d="m255.994 203.413h12.206c.34 0 .672-.031 1-.074v-14.852c-.328-.044-.66-.074-1-.074h-12.205c-4.143 0-7.5 3.358-7.5 7.5s3.357 7.5 7.499 7.5z"/></g></g></svg>