<svg id="Capa_1" enable-background="new 0 0 512 512" height="512" viewBox="0 0 512 512" width="512" xmlns="http://www.w3.org/2000/svg"><g><path d="m381.71 50.83c-10.823 0-21.498 1.46-31.862 4.351-28.841-35.208-69.423-55.181-112.896-55.181-29.125 0-57.43 9.083-81.853 26.267-21.092 14.839-38.493 35.111-50.729 58.998-58.361 5.922-104.37 59.776-104.37 124.595 0 30.685 10.406 60.241 29.303 83.223 18.973 23.076 44.852 37.677 72.87 41.115.604.074 1.211.111 1.819.112l288.36.15h.006c.512 0 1.022-.026 1.531-.078 32.257-3.307 62.139-19.642 84.141-45.996 21.907-26.238 33.97-60.141 33.97-95.466 0-78.349-58.448-142.09-130.29-142.09z" fill="#27d8f6"/><path d="m381.71 50.83c-10.823 0-21.498 1.46-31.862 4.351-24.58-30.007-57.691-48.936-93.848-53.877v333.085l136.353.071h.006c.512 0 1.022-.026 1.531-.078 32.257-3.307 62.139-19.642 84.141-45.996 21.906-26.238 33.969-60.141 33.969-95.466 0-78.349-58.448-142.09-130.29-142.09z" fill="#3aaaff"/><path d="m316 177h-120c-41.355 0-75 33.645-75 75v185c0 41.355 33.645 75 75 75h120c41.355 0 75-33.645 75-75v-185c0-41.355-33.645-75-75-75z" fill="#f5f0eb"/><path d="m316 177h-60v335h60c41.355 0 75-33.645 75-75v-185c0-41.355-33.645-75-75-75z" fill="#dad0cb"/><path d="m469.403 272.844c-5.23-9.773-15.365-15.844-26.45-15.844h-4.973v-90c0-16.542-13.458-30-30-30h-34c-16.542 0-30 13.458-30 30v90h-4.973c-11.085 0-21.22 6.071-26.45 15.844s-4.66 21.574 1.489 30.798l51.973 77.958c5.576 8.365 14.908 13.359 24.961 13.359s19.385-4.994 24.961-13.359l51.973-77.958c6.15-9.225 6.72-21.025 1.489-30.798z" fill="#ffda2d"/><path d="m442.953 257h-4.973v-90c0-16.542-13.458-30-30-30h-17v257.958c10.053 0 19.385-4.994 24.961-13.359l51.973-77.958c6.149-9.224 6.72-21.024 1.489-30.797s-15.365-15.844-26.45-15.844z" fill="#fdbf00"/><path d="m312 431h-112c-8.284 0-15-6.716-15-15s6.716-15 15-15h112c8.284 0 15 6.716 15 15s-6.716 15-15 15z" fill="#6c6c6c"/><path d="m312 401h-56v30h56c8.284 0 15-6.716 15-15s-6.716-15-15-15z" fill="#404040"/><g fill="#6c6c6c"><path d="m224 359h-24c-8.284 0-15-6.716-15-15s6.716-15 15-15h24c8.284 0 15 6.716 15 15s-6.716 15-15 15z"/><path d="m224 295h-24c-8.284 0-15-6.716-15-15s6.716-15 15-15h24c8.284 0 15 6.716 15 15s-6.716 15-15 15z"/></g></g></svg>