<svg id="Capa_1" enable-background="new 0 0 496.633 496.633" height="512" viewBox="0 0 496.633 496.633" width="512" xmlns="http://www.w3.org/2000/svg"><g><path d="m158.717 8.175c4.302 45.699 42.775 81.458 89.6 81.458 0-46.825-35.759-85.298-81.458-89.6-4.651-.437-8.58 3.491-8.142 8.142z" fill="#504b83"/><path d="m308.216 4.797-59.899 84.836c46.824 0 85.296-35.757 89.6-81.455.441-4.687-3.545-8.582-8.232-8.135-7.459.712-14.652 2.335-21.469 4.754z" fill="#5b3364"/><path d="m308.216 4.797c-34.902 12.384-59.899 45.688-59.899 84.836 31.981 0 58.115-37.534 59.899-84.836z" fill="#504b83"/><path d="m479.817 466.633-46.91-226.861c-17.72-85.71-93.629-150.139-184.59-150.139 0 0 201.5 407 201.5 407h30c8.284 0 15-6.716 15-15s-6.716-15-15-15z" fill="#5b3364"/><path d="m464.817 481.633c0-8.284-6.716-15-15-15l-46.91-226.861c-14.84-85.71-78.412-150.139-154.59-150.139-90.961 0-166.869 64.429-184.589 150.139l-46.91 226.861c-8.284 0-15 6.716-15 15s6.716 15 15 15h433c8.283 0 14.999-6.715 14.999-15z" fill="#504b83"/><circle cx="413.426" cy="113.024" fill="#302c4c" r="7.5"/><circle cx="443.426" cy="83.024" fill="#504b83" r="7.5"/><g fill="#302c4c"><circle cx="481.817" cy="278.133" r="7.5"/><circle cx="413.426" cy="443.243" r="7.5"/><circle cx="14.817" cy="278.133" r="7.5"/><circle cx="83.207" cy="113.024" r="7.5"/></g></g></svg>