<svg id="color" enable-background="new 0 0 24 24" height="512" viewBox="0 0 24 24" width="512" xmlns="http://www.w3.org/2000/svg"><path d="m24 12h-5c0-3.86-3.14-7-7-7v-5c6.62 0 12 5.38 12 12z" fill="#ffc107"/><path d="m20.48 20.48c-2.17 2.18-5.17 3.52-8.48 3.52-6.62 0-12-5.38-12-12s5.38-12 12-12v5c-3.86 0-7 3.14-7 7s3.14 7 7 7c1.93 0 3.68-.78 4.95-2.05z" fill="#2196f3"/><path d="m24 12c0 3.31-1.34 6.31-3.52 8.48l-3.53-3.53c1.27-1.27 2.05-3.02 2.05-4.95z" fill="#4caf50"/><path d="m5 12h-5c0 6.62 5.38 12 12 12 3.31 0 6.31-1.34 8.48-3.52l-3.53-3.53c-1.27 1.27-3.02 2.05-4.95 2.05-3.86 0-7-3.14-7-7z" fill="#1d83d4"/><path d="m24 12h-5c0 1.93-.78 3.68-2.05 4.95l3.53 3.53c2.18-2.17 3.52-5.17 3.52-8.48z" fill="#429846"/></svg>