<svg id="color" enable-background="new 0 0 24 24" height="512" viewBox="0 0 24 24" width="512" xmlns="http://www.w3.org/2000/svg"><path d="m17.25 9.5h-10.5c-.414 0-.75-.336-.75-.75v-7c0-.965.785-1.75 1.75-1.75h8.5c.965 0 1.75.785 1.75 1.75v7c0 .414-.336.75-.75.75z" fill="#cfd8dc"/><path d="m14.75 6.5c-.414 0-.75-.336-.75-.75v-2.5c0-.414.336-.75.75-.75s.75.336.75.75v2.5c0 .414-.336.75-.75.75z" fill="#ffc107"/><path d="m15 24c-.553 0-1-.448-1-1 0-.276-.225-.5-.5-.5-1.379 0-2.5-1.122-2.5-2.5v-1c0-.552.447-1 1-1s1 .448 1 1v1c0 .276.225.5.5.5 1.379 0 2.5 1.122 2.5 2.5 0 .552-.447 1-1 1z" fill="#607d8b"/><path d="m16.25 20h-8.5c-2.067 0-3.75-1.682-3.75-3.75v-7.5c0-.414.336-.75.75-.75h14.5c.414 0 .75.336.75.75v7.5c0 2.068-1.683 3.75-3.75 3.75z" fill="#eceff1"/><path d="m9.25 6.5c-.414 0-.75-.336-.75-.75v-2.5c0-.414.336-.75.75-.75s.75.336.75.75v2.5c0 .414-.336.75-.75.75z" fill="#ffc107"/><path d="m12 6.5c-.414 0-.75-.336-.75-.75v-2.5c0-.414.336-.75.75-.75s.75.336.75.75v2.5c0 .414-.336.75-.75.75z" fill="#ffc107"/><path d="m12 20h-1c0 .816.393 1.542 1 1.999z" fill="#546d79"/><path d="m9.25 6.5c-.414 0-.75-.336-.75-.75v-2.5c0-.414.336-.75.75-.75s.75.336.75.75v2.5c0 .414-.336.75-.75.75zm2.75-6.5h-4.25c-.965 0-1.75.785-1.75 1.75v6.25h6v-1.5c-.414 0-.75-.336-.75-.75v-2.5c0-.414.336-.75.75-.75z" fill="#b4bcc0"/><path d="m12 8h-6-1.25c-.414 0-.75.336-.75.75v7.5c0 2.068 1.683 3.75 3.75 3.75h3.25 1z" fill="#cdd0d2"/><g fill="#dea806"><path d="m12 2.5c-.414 0-.75.336-.75.75v2.5c0 .414.336.75.75.75z"/><path d="m9.25 2.5c-.414 0-.75.336-.75.75v2.5c0 .414.336.75.75.75z"/><path d="m14.75 2.5c-.414 0-.75.336-.75.75v2.5c0 .414.336.75.75.75z"/></g></svg>