<svg id="Capa_1" enable-background="new 0 0 512 512" height="512" viewBox="0 0 512 512" width="512" xmlns="http://www.w3.org/2000/svg"><g><g><path d="m414.37 134.46-38.87 58.04-80.26 7.3c-16.49-20.59-41.85-33.8-70.24-33.8-22.67 0-43.41 8.42-59.24 22.3l-68.76-30.3-20.16-71.33c41.02-36 93.08-55.67 148.16-55.67 76.83 0 148.14 39.3 189.37 103.46z" fill="#65d6a9"/><path d="m414.37 134.46-38.87 58.04-80.26 7.3c-16.49-20.59-41.85-33.8-70.24-33.8v-135c76.83 0 148.14 39.3 189.37 103.46z" fill="#26bfa6"/><path d="m414.37 377.54c-41.23 64.16-112.54 103.46-189.37 103.46-124.37 0-225-100.64-225-225l62-25 73 25c0 49.64 40.38 90 90 90 28.39 0 53.75-13.21 70.24-33.8l72.76 15.8z" fill="#7ed8f6"/><path d="m414.37 377.54c-41.23 64.16-112.54 103.46-189.37 103.46v-135c28.39 0 53.75-13.21 70.24-33.8l72.76 15.8z" fill="#4895ff"/></g><path d="m165.76 188.3c-18.84 16.51-30.76 40.74-30.76 67.7h-135c0-65.205 27.582-126.131 76.84-169.33z" fill="#ff6c6c"/><path d="m468.72 104.64c-.336.184-173.364 95.096-173.48 95.16 12.37 15.41 19.76 34.95 19.76 56.2s-7.39 40.79-19.76 56.2c.113.062 173.367 95.098 173.48 95.16 3.137-7.472 43.28-63.762 43.28-151.36 0-87.963-39.924-143.365-43.28-151.36z" fill="#fabe2c"/></g></svg>