<svg id="Capa_1" enable-background="new 0 0 510 510" height="512" viewBox="0 0 510 510" width="512" xmlns="http://www.w3.org/2000/svg" xmlns:xlink="http://www.w3.org/1999/xlink"><linearGradient id="SVGID_1_" gradientUnits="userSpaceOnUse" x1=".843" x2="389.558" y1="244.379" y2="244.379"><stop offset="0" stop-color="#fe99a0"/><stop offset=".593" stop-color="#fe646f"/><stop offset="1" stop-color="#e41f2d"/></linearGradient><linearGradient id="SVGID_2_" gradientUnits="userSpaceOnUse" x1="144.928" x2="482.407" y1="244.379" y2="244.379"><stop offset="0" stop-color="#fe646f"/><stop offset=".7043" stop-color="#e41f2d"/><stop offset="1" stop-color="#c41926"/></linearGradient><linearGradient id="SVGID_3_" gradientUnits="userSpaceOnUse" x1="234.877" x2="479.665" y1="122.189" y2="122.189"><stop offset="0" stop-color="#fff9df"/><stop offset=".593" stop-color="#ffe177"/><stop offset="1" stop-color="#feb137"/></linearGradient><linearGradient id="SVGID_4_" gradientUnits="userSpaceOnUse" x1="234.877" x2="500.12" y1="335.278" y2="335.278"><stop offset="0" stop-color="#b0e7c9"/><stop offset=".593" stop-color="#46cc8d"/><stop offset="1" stop-color="#0ab69f"/></linearGradient><linearGradient id="lg1"><stop offset="0" stop-color="#f2fbff"/><stop offset=".593" stop-color="#faf7f7"/><stop offset="1" stop-color="#f3eae6"/></linearGradient><linearGradient id="SVGID_5_" gradientUnits="userSpaceOnUse" x1="14.047" x2="163.036" xlink:href="#lg1" y1="60.25" y2="60.25"/><linearGradient id="lg2"><stop offset="0" stop-color="#cdbfba"/><stop offset="1" stop-color="#766e6e"/></linearGradient><linearGradient id="SVGID_6_" gradientUnits="userSpaceOnUse" x1="44.975" x2="265.29" xlink:href="#lg2" y1="45.769" y2="45.769"/><linearGradient id="SVGID_7_" gradientUnits="userSpaceOnUse" x1="307.418" x2="477.727" y1="122.189" y2="122.189"><stop offset="0" stop-color="#ffe177"/><stop offset="1" stop-color="#feb137"/></linearGradient><linearGradient id="SVGID_8_" gradientUnits="userSpaceOnUse" x1="341.791" x2="516.067" y1="335.278" y2="335.278"><stop offset="0" stop-color="#46cc8d"/><stop offset=".5484" stop-color="#0ab69f"/><stop offset="1" stop-color="#01998d"/></linearGradient><linearGradient id="SVGID_9_" gradientTransform="matrix(1 0 0 -1 0 1788)" gradientUnits="userSpaceOnUse" x1="287.044" x2="436.033" xlink:href="#lg1" y1="1338.25" y2="1338.25"/><linearGradient id="SVGID_10_" gradientUnits="userSpaceOnUse" x1="317.972" x2="538.287" xlink:href="#lg2" y1="467.676" y2="467.676"/><g><path d="m393.972 403.474c-40.72 40.72-96.96 65.902-159.095 65.902-124.26 0-224.997-100.737-224.997-224.997s100.737-224.997 224.997-224.997v224.997z" fill="url(#SVGID_1_)"/><path d="m229.391 19.451c-.874.021-1.743.06-2.614.091-.911.032-1.823.061-2.731.104-1.19.057-2.375.131-3.56.207-.546.034-1.092.065-1.637.104-1.423.101-2.841.217-4.257.345-.26.023-.52.045-.78.069-6.761.635-13.436 1.566-20.012 2.779v-.015c-57.394 10.589-107.148 42.959-140.384 88.22h51.238c4.05 0 7.933 1.609 10.797 4.472l21.594 21.594c9.619 9.619 26.066 2.806 26.066-10.797v-1.8c0-7.439 6.03-13.469 13.469-13.469 7.383 0 13.662-4.654 16.111-11.182v144.205l159.095 159.095c-36.057 36.057-84.288 59.915-138 64.91 6.946.646 13.978.992 21.092.992 62.135 0 118.375-25.182 159.095-65.902l-159.096-159.094v-224.997c-1.834 0-3.662.026-5.486.069z" fill="url(#SVGID_2_)"/><path d="m234.877 13.89v230.489h244.788c0-130.256-101.738-236.751-230.086-244.354-7.974-.473-14.702 5.877-14.702 13.865z" fill="url(#SVGID_3_)"/><path d="m234.877 244.379 177.733 177.732c5.635 5.635 14.849 5.38 20.167-.555 39.06-43.599 63.923-100.18 67.322-162.475.435-7.977-5.875-14.702-13.863-14.702z" fill="url(#SVGID_4_)"/><g><path d="m27.102 0h128.052c9.511 0 17.222 7.711 17.222 17.222v55.487c0 9.511-7.711 17.222-17.222 17.222-7.439 0-13.469 6.03-13.469 13.469v1.8c0 13.603-16.447 20.416-26.066 10.797l-21.592-21.593c-2.863-2.863-6.747-4.472-10.797-4.472h-56.128c-9.511 0-17.222-7.711-17.222-17.222v-55.488c0-9.511 7.711-17.222 17.222-17.222z" fill="url(#SVGID_5_)"/><path d="m138.477 27.26h-94.697c-3.374 0-6.109 2.735-6.109 6.109v24.798c0 3.374 2.735 6.109 6.109 6.109h94.698c3.374 0 6.109-2.735 6.109-6.109v-24.797c0-3.374-2.736-6.11-6.11-6.11z" fill="url(#SVGID_6_)"/></g><path d="m249.58.025c-4.049-.24-7.771 1.284-10.46 3.883 113.236 21.498 198.858 120.979 198.858 240.471h41.687c0-130.257-101.738-236.751-230.085-244.354z" fill="url(#SVGID_7_)"/><path d="m486.235 244.379h-41.687c7.988 0 14.298 6.726 13.863 14.702-3.111 57.019-24.213 109.244-57.717 151.116l11.915 11.915c5.635 5.635 14.849 5.38 20.167-.555 39.06-43.599 63.923-100.18 67.321-162.475.437-7.978-5.873-14.703-13.862-14.703z" fill="url(#SVGID_8_)"/><g><path d="m300.1 510h128.052c9.511 0 17.222-7.711 17.222-17.222v-55.487c0-9.512-7.711-17.222-17.222-17.222-7.439 0-13.469-6.03-13.469-13.469v-1.8c0-13.603-16.447-20.416-26.066-10.797l-21.594 21.594c-2.863 2.863-6.747 4.472-10.797 4.472h-56.126c-9.511 0-17.222 7.711-17.222 17.222v55.487c0 9.511 7.71 17.222 17.222 17.222z" fill="url(#SVGID_9_)"/><path d="m411.475 449.168h-94.698c-3.374 0-6.109 2.735-6.109 6.109v24.798c0 3.374 2.735 6.109 6.109 6.109h94.698c3.374 0 6.109-2.735 6.109-6.109v-24.798c0-3.374-2.735-6.109-6.109-6.109z" fill="url(#SVGID_10_)"/></g></g></svg>