<svg id="Capa_1" enable-background="new 0 0 512 512" height="512" viewBox="0 0 512 512" width="512" xmlns="http://www.w3.org/2000/svg"><g><path d="m401.067 238.933v238.933c0 18.851-15.282 34.133-34.133 34.133h-221.867c-18.851 0-34.133-15.282-34.133-34.133v-238.933z" fill="#ddf1fc"/><path d="m377.373 238.933v238.933c0 18.851-15.282 34.133-34.133 34.133h23.694c18.851 0 34.133-15.282 34.133-34.133v-238.933z" fill="#c5dcf5"/><path d="m110.933 476.197c7.207 5.87 16.393 9.397 26.39 9.397h237.396c9.978 0 19.147-3.514 26.348-9.363v-30.806c-.875 13.776-12.354 24.717-26.348 24.717h-237.396c-14.331 0-26.024-11.477-26.39-25.722z" fill="#c5dcf5"/><g><path d="m286.104 314.926h-60.209c-15.958 0-30.304-8.866-37.44-23.139l-7.633-15.265c-1.909-3.817-.361-8.458 3.455-10.366 3.819-1.906 8.458-.361 10.366 3.455l7.633 15.265c4.502 9.004 13.552 14.598 23.619 14.598h60.209c10.066 0 19.117-5.594 23.62-14.598l7.632-15.264c1.907-3.818 6.55-5.366 10.365-3.456 3.817 1.907 5.364 6.549 3.456 10.365l-7.632 15.265c-7.138 14.274-21.484 23.14-37.441 23.14z" fill="#c5dcf5"/></g><path d="m273.067 392.533c9.426 0 17.067-7.641 17.067-17.067s-7.641-17.067-17.067-17.067h-34.133c-9.426 0-17.067 7.641-17.067 17.067s7.641 17.067 17.067 17.067z" fill="#355b90"/><path d="m273.067 358.4h-23.694c9.426 0 17.067 7.641 17.067 17.067s-7.641 17.067-17.067 17.067h23.694c9.426 0 17.067-7.641 17.067-17.067-.001-9.426-7.642-17.067-17.067-17.067z" fill="#2b4983"/><path d="m145.067 187.733c-18.851 0-34.133 15.282-34.133 34.133v17.067c0 18.851 15.282 34.133 34.133 34.133h221.867c18.851 0 34.133-15.282 34.133-34.133v-17.067c0-18.851-15.282-34.133-34.133-34.133v-9.699h-221.722z" fill="#355b90"/><path d="m366.933 187.733v-9.699h-23.694v9.699c18.851 0 34.133 15.282 34.133 34.133v17.067c0 18.851-15.282 34.133-34.133 34.133h23.694c18.851 0 34.133-15.282 34.133-34.133v-17.067c.001-18.851-15.281-34.133-34.133-34.133z" fill="#2b4983"/><path d="m110.933 136.533v-34.133l119.467-34.133h51.2l119.467 34.133v34.133z" fill="#c5dcf5"/><path d="m145.067 187.733c-18.851 0-34.133-15.282-34.133-34.133v-17.067c0-6.587 1.866-12.737 5.097-17.953l114.369-16.18h51.2l114.371 16.182c3.231 5.215 5.096 11.366 5.096 17.951v17.067c0 18.851-15.282 34.133-34.133 34.133z" fill="#1c3173"/><path d="m395.97 118.582-21.12-2.988c1.615 3.968 2.522 8.3 2.522 12.849v25.157c0 18.851-15.282 34.133-34.133 34.133h23.694c18.851 0 34.133-15.282 34.133-34.133v-17.067c.001-6.586-1.865-12.736-5.096-17.951z" fill="#162664"/><g><path d="m110.933 102.8v3.605c0 4.766 1.957 9.355 5.494 12.549 12.099 10.922 28.121 17.579 45.706 17.579 3.401 0 6.743-.25 10.01-.731 3.723-.548 7.057 2.348 7.057 6.111v88.487h51.2v-162.133h-.018c0-.33.016-.655.011-.985-.51-36.137-29.675-65.964-65.793-67.238-18.525-.653-35.464 6.086-48.122 17.49-3.559 3.207-5.545 7.808-5.545 12.599v4.002z" fill="#e9f5fc"/><path d="m112 102.4h-2.133c-8.837 0-16-7.163-16-16v-36.267c0-8.836 7.163-16 16-16h2.133c8.837 0 16 7.164 16 16v36.267c0 8.837-7.163 16-16 16z" fill="#355b90"/><g><g><path d="m154.407 68.266c0-13.671 11.123-24.793 24.794-24.793s24.793 11.122 24.793 24.793-11.122 24.794-24.793 24.794-24.794-11.123-24.794-24.794zm15.452 0c0 5.151 4.19 9.341 9.341 9.341 5.15 0 9.34-4.19 9.34-9.341 0-5.15-4.19-9.34-9.34-9.34s-9.341 4.191-9.341 9.34z" fill="#c5e0fa"/></g></g><path d="m171.474 112.807c4.268 0 7.726 3.459 7.726 7.726v21.379c-.001-3.762-3.334-6.658-7.056-6.11-2.748.405-5.552.635-8.396.701v-15.971c-.001-4.267 3.458-7.725 7.726-7.725z" fill="#c5e0fa"/></g><g><path d="m401.067 102.8v3.605c0 4.766-1.957 9.355-5.495 12.549-12.099 10.922-28.121 17.579-45.706 17.579-3.401 0-6.743-.25-10.01-.731-3.723-.548-7.056 2.348-7.056 6.111v88.487h-51.2v-162.133h.018c0-.33-.016-.655-.011-.985.51-36.137 29.675-65.964 65.793-67.238 18.525-.653 35.464 6.086 48.122 17.49 3.559 3.207 5.545 7.808 5.545 12.599v4.002z" fill="#e9f5fc"/><path d="m395.522 17.533c-12.658-11.403-29.597-18.143-48.122-17.489-3.174.112-6.291.457-9.342.995 12.874 2.254 24.509 8.105 33.822 16.495 3.56 3.207 5.545 7.808 5.545 12.599v4.002 68.665 3.605c0 4.766-1.957 9.355-5.495 12.549-12.1 10.922-28.121 17.579-45.705 17.579-3.401 0-6.743-.25-10.01-.731-3.723-.548-7.056 2.348-7.056 6.111v88.487h23.641v-88.487c0-3.763 3.333-6.659 7.056-6.111 3.267.481 6.609.731 10.01.731 17.584 0 33.606-6.657 45.705-17.579 3.538-3.194 5.495-7.783 5.495-12.549v-3.605-68.666-4.002c.001-4.791-1.985-9.392-5.544-12.599z" fill="#c5e0fa"/><path d="m400 102.4h2.133c8.837 0 16-7.163 16-16v-36.267c0-8.836-7.163-16-16-16h-2.133c-8.837 0-16 7.164-16 16v36.267c0 8.837 7.163 16 16 16z" fill="#355b90"/><g><g><path d="m332.8 93.06c-13.671 0-24.793-11.123-24.793-24.794s11.122-24.793 24.793-24.793 24.794 11.122 24.794 24.793c-.001 13.671-11.123 24.794-24.794 24.794zm0-34.134c-5.15 0-9.34 4.19-9.34 9.34 0 5.151 4.19 9.341 9.34 9.341 5.151 0 9.341-4.19 9.341-9.341 0-5.149-4.191-9.34-9.341-9.34z" fill="#c5e0fa"/></g></g><g><path d="m349.867 238.127h-76.8c-4.268 0-7.726-3.459-7.726-7.726 0-4.268 3.459-7.726 7.726-7.726h76.8c4.268 0 7.726 3.459 7.726 7.726s-3.458 7.726-7.726 7.726z" fill="#1c3173"/></g><path d="m340.526 112.807c-4.268 0-7.726 3.459-7.726 7.726v21.379c0-3.762 3.334-6.658 7.056-6.11 2.748.405 5.552.635 8.396.701v-15.971c.001-4.267-3.458-7.725-7.726-7.725z" fill="#c5e0fa"/></g><path d="m401.65 34.133h-1.168c-4.336 0-8.269 1.687-11.212 4.425 3.235 3.01 5.271 7.291 5.271 12.058v35.301c0 4.767-2.036 9.049-5.271 12.058 2.943 2.737 6.876 4.425 11.212 4.425h1.168c9.103 0 16.483-7.38 16.483-16.483v-35.301c0-9.103-7.379-16.483-16.483-16.483z" fill="#2b4983"/><path d="m230.382 68.267c0-.329.016-.655.011-.985-.51-36.137-29.675-65.964-65.793-67.238-4.904-.173-9.692.186-14.324.999 31.663 5.594 55.958 33.288 56.423 66.239.005.33-.011.656-.011.985h.018v162.133h23.694v-162.133z" fill="#c5e0fa"/><g><path d="m238.933 238.127h-76.8c-4.268 0-7.726-3.459-7.726-7.726 0-4.268 3.459-7.726 7.726-7.726h76.8c4.268 0 7.726 3.459 7.726 7.726.001 4.267-3.458 7.726-7.726 7.726z" fill="#1c3173"/></g><path d="m111.517 34.133h-1.167c-4.336 0-8.269 1.687-11.212 4.425 3.235 3.01 5.271 7.291 5.271 12.058v35.301c0 4.767-2.036 9.049-5.271 12.058 2.943 2.737 6.876 4.425 11.212 4.425h1.167c9.103 0 16.483-7.38 16.483-16.483v-35.301c0-9.103-7.379-16.483-16.483-16.483z" fill="#2b4983"/></g></svg>