<svg id="Layer_1" enable-background="new 0 0 512 512" height="512" viewBox="0 0 512 512" width="512" xmlns="http://www.w3.org/2000/svg"><g><g><path d="m512 282.296c-1.33 43.72-37.96 80.75-81.69 80.75h-348.62c-34.21 0-64.02-22.46-76.04-53.16-3.39-8.65-5.36-17.95-5.62-27.59h-.03c0-41.65 30.18-76.59 69.75-84.06-3.12-12.06-4.62-24.78-4.24-37.9 2.09-73.04 62.82-131.57 135.88-131.11 47.63.31 89.4 25.27 113.21 62.75 0 0 0 0 .01-.01 11.74-5.31 24.76-8.3 38.5-8.3 51.6 0 93.44 41.84 93.44 93.44 0 7.4-.89 14.58-2.51 21.48 16.13 3.41 30.63 11.4 42.04 22.52 15.97 15.56 25.92 37.27 25.92 61.19z" fill="#d9f9f8"/><path d="m512 282.296c-1.33 43.72-37.96 80.75-81.69 80.75h-348.62c-34.21 0-64.02-22.46-76.04-53.16 14.7 14.25 34.5 23.16 56.04 23.16h348.62c43.73 0 80.36-37.03 81.69-80.75 0-10.99-2.1-21.52-5.92-31.19 15.97 15.56 25.92 37.27 25.92 61.19z" fill="#c1eaf4"/></g><g><path d="m401 277.527v30l-26.43 5.58-115.74 24.42-147.83-30v-60c0-4.14 3.36-7.5 7.5-7.5h137c2.47 0 4.79 1.22 6.19 3.27l18.27 26.73h113.54c4.14 0 7.5 3.36 7.5 7.5z" fill="#466175"/><path d="m401 277.527v30l-26.43 5.58v-43.08h18.93c4.14 0 7.5 3.36 7.5 7.5z" fill="#2d4859"/><path d="m401 307.527v167.75c0 4.14-3.36 7.5-7.5 7.5h-275c-4.14 0-7.5-3.36-7.5-7.5v-167.75z" fill="#ffe45c"/><g fill="#ffc35a"><path d="m401 307.527v167.75c0 4.14-3.36 7.5-7.5 7.5h-275c-4.14 0-7.5-3.36-7.5-7.5v-17.54h243.56c11.05 0 20.01-8.96 20.01-20.01v-130.2z"/><g><path d="m235.475 397.017h-93.975c-4.142 0-7.5 3.358-7.5 7.5s3.358 7.5 7.5 7.5h93.975c4.142 0 7.5-3.358 7.5-7.5s-3.358-7.5-7.5-7.5z"/><path d="m210.177 427.132h-68.677c-4.142 0-7.5 3.358-7.5 7.5s3.358 7.5 7.5 7.5h68.677c4.142 0 7.5-3.358 7.5-7.5s-3.358-7.5-7.5-7.5z"/></g></g></g></g></svg>