<svg id="Capa_1" enable-background="new 0 0 497.443 497.443" height="512" viewBox="0 0 497.443 497.443" width="512" xmlns="http://www.w3.org/2000/svg"><g><path d="m274.285 219.949v-209.152c0-5.767 4.869-10.363 10.624-9.988 161.286 10.513 260.325 183.925 189.07 328.545-2.441 4.955-8.579 6.804-13.362 4.04l-181.335-104.787c-3.093-1.787-4.997-5.087-4.997-8.658z" fill="#2edffc"/><path d="m434.163 382.28c4.772 2.765 6.23 8.99 3.169 13.578-18.943 28.392-44.124 52.329-73.517 69.778l-.16.09c-34.82 20.37-74.54 31.13-114.85 31.13-3.32 0-6.64-.07-9.96-.23-36.24-1.61-71.83-12.03-103.49-30.38-30.154-17.467-55.87-41.62-75.102-70.38-3.069-4.589-1.616-10.822 3.161-13.591l14.081-8.16 166.266-96.354c3.101-1.797 6.927-1.797 10.028 0z" fill="#93ddb7"/><path d="m223.285 10.591v208.659c0 3.574-1.908 6.877-5.004 8.662l-181.378 104.618c-4.677 2.697-10.658.953-13.152-3.835l-.046-.088c-70.32-134.76 24.33-307.13 171.83-326.46 0 0 0-.01.01 0 5.7-.749 11.483-1.269 17.339-1.548 5.674-.271 10.401 4.312 10.401 9.992z" fill="#fd646f"/><path d="m483.745 306.506c-2.798 7.679-6.049 15.303-9.768 22.848-2.442 4.954-8.579 6.802-13.361 4.038l-181.334-104.788c-3.092-1.787-4.997-5.087-4.997-8.658v-34.229z" fill="#27bdf3"/><path d="m223.285 185.026v34.224c0 3.574-1.908 6.877-5.004 8.662l-181.304 104.575c-4.708 2.715-10.741.969-13.256-3.848-3.878-7.429-7.254-14.972-10.146-22.592z" fill="#fc4755"/><path d="m434.165 382.28c4.771 2.766 6.228 8.99 3.168 13.577-18.943 28.393-44.124 52.331-73.518 69.779l-.16.09c-34.82 20.37-74.54 31.13-114.85 31.13-3.32 0-6.64-.07-9.96-.23-36.24-1.61-71.83-12.03-103.49-30.38-30.154-17.468-55.87-41.62-75.102-70.38-3.069-4.589-1.616-10.822 3.161-13.59l11.612-6.729c16.92 20.17 37.34 37.38 60.33 50.7 31.66 18.35 67.25 28.77 103.49 30.38 3.32.16 6.64.23 9.96.23 40.31 0 80.03-10.76 114.85-31.13l.16-.09c22.32-13.25 42.2-30.23 58.77-50.07z" fill="#5ed297"/></g></svg>