<svg id="Capa_1" enable-background="new 0 0 496.5 496.5" height="512" viewBox="0 0 496.5 496.5" width="512" xmlns="http://www.w3.org/2000/svg"><g><path d="m235.63 26.192v105.19h-.53c-8.23 0-16.29.76-24.1 2.23-3.38.63-6.72 1.4-10 2.29-55.21 14.98-95.81 65.44-95.81 125.39 0 23.59 6.29 45.73 17.29 64.8l-28.48 53.3-62.63-.7c-19.96-34.54-31.37-74.64-31.37-117.4 0-118.27 87.31-216.13 201-232.64 3.31-.48 6.64-.89 10-1.23 7.92-.82 15.96-1.23 24.1-1.23z" fill="#2edffc"/><path d="m235.63 96.392v34.99h-.53c-71.75 0-129.91 58.16-129.91 129.91 0 23.59 6.29 45.73 17.29 64.8l-30.51 17.61c-13.98-24.22-21.97-52.34-21.97-82.31 0-91.13 73.87-165 165-165z" fill="#27bdf3"/><path d="m276.536 492.752c-13.443 2.388-27.297 3.64-41.435 3.64-87.087 0-163.109-47.346-203.733-117.698l91.116-52.606c22.437 38.921 64.471 65.113 112.617 65.113 7.91 0 15.642-.705 23.163-2.062l43.736 51.253z" fill="#fad207"/><path d="m264.37 423.782c-9.53 1.72-19.35 2.61-29.37 2.61-61.15 0-114.53-33.26-143.03-82.69l30.51-17.61c22.44 38.92 64.48 65.11 112.62 65.11 7.91 0 15.64-.71 23.16-2.06z" fill="#faa515"/><path d="m415.67 411.842-.01.01-.01.01c-5.27 6.32-10.86 12.35-16.76 18.07l-.01.01c-2.4 2.35-4.86 4.63-7.36 6.86-.95.85-1.91 1.69-2.87 2.52-31.27 27-69.73 45.89-112.11 53.43l-18.28-103.61c17.25-3.1 33.32-9.61 47.49-18.82 1.28-.83 2.56-1.69 3.81-2.57 2.74-1.92 5.4-3.94 7.98-6.06.01-.01.01-.01.02-.01 6.36-5.22 12.21-11.05 17.46-17.36.02-.02.04-.05.06-.07l.01-.01.01-.01 22.92 19.23 51.49 43.21z" fill="#fd646f"/><path d="m361.97 366.772c-24.32 29.28-58.58 50-97.6 57.01l-6.11-34.64c30.72-5.52 57.69-21.85 76.84-44.91l20.14 16.9z" fill="#fc4755"/><path d="m235.63 26.192 20.37 43.2-20.37 61.99h-.53c-8.23 0-16.29.76-24.1 2.23v-106.19c7.92-.82 15.96-1.23 24.1-1.23z" fill="#27bdf3"/><path d="m415.67 411.842-.01.01-.01.01c-5.27 6.32-10.86 12.35-16.76 18.07l-81.33-68.25c6.36-5.22 12.21-11.05 17.46-17.36.02-.02.04-.05.06-.07l.01-.01 57.91 20.15 16.51 42.28z" fill="#fc4755"/><path d="m496.5 261.29c0 59.959-20.197 115.205-54.138 159.31-3.475 4.516-10.01 5.238-14.375 1.575l-72.748-61.049-20.144-16.894c18.682-22.5 29.916-51.417 29.916-82.943 0-71.572-57.876-129.626-129.385-129.91v-121.263c0-5.696 4.752-10.233 10.443-9.998 139.278 5.749 250.431 120.487 250.431 261.172z" fill="#50758d"/><path d="m400 261.392c0 40.06-14.28 76.8-38.03 105.38l-6.73-5.64-20.14-16.9c18.68-22.5 29.91-51.42 29.91-82.94 0-71.57-57.87-129.63-129.38-129.91v-34.99c90.84.34 164.37 74.08 164.37 165z" fill="#2b597f"/></g></svg>