<svg id="Capa_1" enable-background="new 0 0 496.841 496.841" height="512" viewBox="0 0 496.841 496.841" width="512" xmlns="http://www.w3.org/2000/svg"><g><path d="m468.235 224.88c0 27.86-5.063 54.544-14.334 79.167-1.67 4.436-6.689 6.602-11.058 4.763l-13.668-5.751-185.82-78.18-12.323-116.047 12.323-108.832c124.21 0 224.88 100.69 224.88 224.88z" fill="#fe646f"/><path d="m468.235 224.88c0 27.86-5.06 54.54-14.33 79.17-1.67 4.43-6.69 6.6-11.06 4.76l-13.67-5.75-8.14-3.43c4.49 1.89 9.63-.44 11.16-5.06 6.67-20.12 10.27-41.62 10.27-63.96 0-110.9-88.75-201.08-199.11-203.36l-5.657-15.083 5.657-12.167c124.21 0 224.88 100.69 224.88 224.88z" fill="#fd4755"/><path d="m410.575 225.37c0 22.84-4.58 44.61-12.87 64.45l-23.92-10.06c4.15-13.87 6.37-28.58 6.37-43.8 0-78.95-59.92-143.91-136.8-151.85l-5.657-12.61 5.657-13.34c92.36 0 167.22 74.87 167.22 167.21z" fill="#fd4755"/><path d="m243.355 0v441.25c0 4.744-3.951 8.525-8.692 8.344-8.4-.32-16.681-1.101-24.818-2.315-108.3-16.19-191.35-109.6-191.35-222.4s83.05-206.21 191.35-222.4c10.93-1.629 22.12-2.479 33.51-2.479z" fill="#8795de"/><path d="m243.355 0v441.25c0 4.74-3.95 8.53-8.69 8.34-8.4-.32-16.68-1.1-24.82-2.31-3.34-.5-6.66-1.07-9.96-1.72 5.16 1.01 9.96-2.94 9.96-8.2v-434.88c10.93-1.63 22.12-2.48 33.51-2.48z" fill="#6c7fd8"/><path d="m243.355 116.82v222.66c-11.68 0-22.94-1.8-33.51-5.14-45.11-14.22-77.81-56.39-77.81-106.19 0-49.81 32.7-91.97 77.81-106.19 10.57-3.34 21.83-5.14 33.51-5.14z" fill="#4f66d0"/><path d="m243.355 116.82v222.66c-11.68 0-22.94-1.8-33.51-5.14v-212.38c10.57-3.34 21.83-5.14 33.51-5.14z" fill="#314dc9"/><path d="m473.235 356.057c4.377 1.842 6.328 6.956 4.316 11.257-28.702 61.358-84.316 107.62-151.646 123.606-14.025 3.335-28.555 5.349-43.455 5.915-4.742.18-8.695-3.598-8.695-8.344v-203.806c0-5.967 6.081-10.006 11.581-7.692z" fill="#fedf30"/><path d="m477.555 367.31c-28.71 61.36-84.32 107.62-151.65 123.61 54.08-20.98 98.03-62.28 122.48-114.54 2.01-4.3.06-9.41-4.32-11.25l-158.73-66.79c-5.5-2.31-11.58 1.73-11.58 7.69v-21.35c0-5.96 6.08-10 11.58-7.69l187.9 79.07c4.38 1.84 6.33 6.95 4.32 11.25z" fill="#fed402"/><g><path d="m98.376 244.606h-46.547c-4.142 0-7.5-3.358-7.5-7.5s3.358-7.5 7.5-7.5h46.547c4.142 0 7.5 3.358 7.5 7.5s-3.358 7.5-7.5 7.5z" fill="#6c7fd8"/></g></g></svg>