<svg id="Capa_1" enable-background="new 0 0 512 512" height="512" viewBox="0 0 512 512" width="512" xmlns="http://www.w3.org/2000/svg"><g><path d="m256 0 40.165 256-40.165 256c-68.38 0-132.67-26.63-181.02-74.98-48.35-48.35-74.98-112.64-74.98-181.02s26.63-132.67 74.98-181.02 112.64-74.98 181.02-74.98z" fill="#00ddc0"/><path d="m512 256c0 68.38-26.63 132.67-74.98 181.02s-112.64 74.98-181.02 74.98v-512c68.38 0 132.67 26.63 181.02 74.98s74.98 112.64 74.98 181.02z" fill="#00ba9f"/><path d="m256 60 22.405 196-22.405 196c-108.08 0-196-87.93-196-196s87.92-196 196-196z" fill="#e7f2ff"/><path d="m452 256c0 108.07-87.92 196-196 196v-392c108.08 0 196 87.93 196 196z" fill="#9dcfff"/><path d="m134.875 241h21.625c8.284 0 15 6.716 15 15s-6.716 15-15 15h-21.625c-8.284 0-15-6.716-15-15s6.716-15 15-15z" fill="#3ba9ff"/><path d="m377.125 241h-21.625c-8.284 0-15 6.716-15 15s6.716 15 15 15h21.625c8.284 0 15-6.716 15-15s-6.716-15-15-15z" fill="#0081ff"/><g><path d="m256.002 271c-3.679 0-7.354-1.346-10.232-4.031l-44.667-41.667c-6.059-5.651-6.388-15.143-.737-21.201 5.651-6.059 15.145-6.387 21.2-.737l34.607 32.283 75.283-67.879c6.152-5.548 15.638-5.058 21.186 1.095 5.547 6.153 5.057 15.638-1.096 21.185l-85.5 77.092c-2.857 2.575-6.451 3.86-10.044 3.86z" fill="#ff5e94"/></g><path d="m352.64 168.86c-5.55-6.15-15.03-6.64-21.18-1.09l-75.29 67.88-.17-.16v35.51c3.59 0 7.19-1.28 10.05-3.86l85.5-77.09c6.15-5.55 6.64-15.03 1.09-21.19z" fill="#ff3980"/><path d="m256 171.5c-8.284 0-15-6.716-15-15v-21.625c0-8.284 6.716-15 15-15s15 6.716 15 15v21.625c0 8.284-6.716 15-15 15z" fill="#3ba9ff"/><path d="m271 134.88v21.62c0 8.28-6.72 15-15 15v-51.62c8.28 0 15 6.71 15 15z" fill="#0081ff"/><path d="m256 340.5c8.284 0 15 6.716 15 15v21.625c0 8.284-6.716 15-15 15s-15-6.716-15-15v-21.625c0-8.284 6.716-15 15-15z" fill="#3ba9ff"/><path d="m271 355.5v21.62c0 8.29-6.72 15-15 15v-51.62c8.28 0 15 6.72 15 15z" fill="#0081ff"/></g></svg>