<svg id="Capa_1" enable-background="new 0 0 510 510" height="512" viewBox="0 0 510 510" width="512" xmlns="http://www.w3.org/2000/svg"><g><path d="m450 195v31.24l-47.29 283.76h-147.71v-315z" fill="#007579"/><path d="m255 195v315h-147.71l-47.29-283.76v-31.24z" fill="#00a98f"/><path d="m450 195h-195v-195c50.44 0 98.08 18.06 134.17 50.87 36.5 33.18 58.09 78.75 60.81 128.31.14 2.63.02 14.88.02 15.82z" fill="#00a98f"/><path d="m255 0v195h-195c0-.94-.12-13.19.02-15.82 2.72-49.56 24.31-95.13 60.81-128.31 36.09-32.81 83.73-50.87 134.17-50.87z" fill="#00dc80"/><path d="m360 29.04v54.74c0 25.49-20.73 46.22-46.22 46.22h-58.78v-130c37.8 0 74.03 10.14 105 29.04z" fill="#04303e"/><path d="m255 0v130h-58.78c-25.49 0-46.22-20.73-46.22-46.22v-54.74c30.97-18.9 67.2-29.04 105-29.04z" fill="#07485e"/><path d="m310.82 326.358-26.02 14.94-26.5-46.13c-.77-1.35-1.98-1.63-2.85-1.63-.14 0-.29.01-.45.03v-30.02c.15-.01.3-.01.45-.01 12.04 0 22.83 6.22 28.85 16.65z" fill="#b3d1d6"/><path d="m255 263.548v30.02c-.8.09-1.74.47-2.4 1.59l-25.93 45.95-26.13-14.75 26.05-46.17c5.95-10.3 16.54-16.49 28.41-16.64z" fill="#f1f6f7"/><path d="m192.625 441.462 48.367-.014-.009-30-48.341.014c-1.583-.002-2.435-.905-2.87-1.663-.436-.757-.789-1.947.005-3.316l21.575-38.234-26.128-14.743-21.456 38.025c-5.989 10.405-5.99 22.82.001 33.232 6.008 10.439 16.786 16.682 28.856 16.699z" fill="#f1f6f7"/><path d="m322.219 406.44c.797 1.367.447 2.558.013 3.316s-1.283 1.664-2.81 1.67l-48.422.014.008 30 48.479-.013c12.045-.048 22.806-6.319 28.786-16.774s5.931-22.91-.086-33.235l-21.866-38.067-26.014 14.942z" fill="#b3d1d6"/></g></svg>