<svg id="Capa_1" enable-background="new 0 0 491 491" height="512" viewBox="0 0 491 491" width="512" xmlns="http://www.w3.org/2000/svg"><g><g><path d="m322.5 154.074-20.587-35.37c-4.208-7.23-14.658-7.212-18.842.032l-5.935 10.277c-4.312 7.467-15.035 7.622-19.562.284l-67.85-109.995c-4.254-6.897-14.282-6.897-18.536 0l-67.851 109.996c-4.527 7.339-15.25 7.183-19.562-.284l-5.936-10.278c-4.184-7.244-14.633-7.262-18.842-.032l-20.587 35.371c-25.157 43.22-38.41 92.335-38.41 142.344 0 46.182 17.618 92.365 52.854 127.601 70.472 70.472 184.73 70.472 255.202 0 35.236-35.236 52.854-81.418 52.854-127.601-.001-50.009-13.254-99.125-38.41-142.345z" fill="#eb5569"/><path d="m277.134 129.013c-18.805 33.114-43.017 7.627-47.536.285l-63.132-102.347 4.721-7.653c4.255-6.896 14.282-6.896 18.536.001l67.854 109.998c4.52 7.342 15.242 7.183 19.557-.284z" fill="#e53950"/><path d="m360.914 296.414c0 46.193-17.621 92.375-52.864 127.606-38.794 38.794-90.861 56.233-141.584 52.306 41.412-3.199 81.948-20.626 113.616-52.306 35.231-35.231 52.852-81.413 52.852-127.606 0-24.998-3.313-49.79-9.778-73.718-6.454-23.927-16.062-47.012-28.64-68.618l-17.382-25.066 5.938-10.28c4.184-7.244 14.635-7.261 18.842-.03l20.582 35.375c12.578 21.605 22.186 44.69 28.64 68.618 6.465 23.929 9.778 48.721 9.778 73.719z" fill="#e53950"/><path d="m262.526 258.608-8.452-13.971c-4.041-6.679-13.735-6.662-17.753.031-2.541 4.233-8.643 4.323-11.308.167l-35.833-55.888c-4.078-6.36-13.371-6.36-17.449 0l-35.834 55.888c-2.665 4.156-8.767 4.066-11.308-.167v-.001c-4.018-6.693-13.712-6.709-17.753-.031l-8.453 13.971c-14.535 24.025-22.192 51.326-22.192 79.124 0 25.671 10.179 51.342 30.538 70.929 40.717 39.173 106.733 39.173 147.451 0 20.359-19.587 30.538-45.258 30.538-70.929 0-27.797-7.658-55.099-22.192-79.123z" fill="#ffe177"/><path d="m284.715 337.735c0 25.669-10.176 51.338-30.53 70.929-23.723 22.823-56.028 32.34-86.922 28.572 22.129-2.698 43.529-12.214 60.524-28.572 20.365-19.59 30.541-45.26 30.541-70.929 0-13.899-1.912-27.672-5.646-40.979s-9.289-26.136-16.551-38.145c0 0-14.332 14.309-29.027-1.628l-39.75-61.196 4.378-6.832c4.077-6.362 13.372-6.362 17.45-.001l35.828 55.883c2.618 4.075 8.811 3.996 11.303-.16l.006-.011c4.017-6.692 13.711-6.709 17.752-.032l8.457 13.975c7.274 12.009 12.818 24.838 16.54 38.145 3.735 13.308 5.647 27.082 5.647 40.981z" fill="#ffc344"/><path d="m188.622 296.193c-4.135-5.404-12.249-5.435-16.419-.058-14.241 18.363-41.923 58.351-41.923 91.731 0 27.711 22.464 50.175 50.175 50.175s50.175-22.464 50.175-50.175c0-32.599-27.792-73.093-42.008-91.673z" fill="#fff9df"/><path d="m440.72 19.558c-5.472-7.207-16.285-7.247-21.803-.075-17.588 22.863-50.165 70.605-50.165 110.572 0 33.756 27.365 61.121 61.122 61.121s61.122-27.365 61.122-61.121c0-39.036-32.714-87.366-50.276-110.497z" fill="#eb5569"/><path d="m491 130.06c0 33.751-27.365 61.116-61.128 61.116-4.565 0-9.004-.501-13.284-1.457 27.377-6.056 47.844-30.473 47.844-59.659 0-37.371-29.972-83.245-47.935-107.389.831-1.104 1.639-2.174 2.425-3.187 5.509-7.171 16.323-7.137 21.799.08 17.564 23.13 50.279 71.451 50.279 110.496z" fill="#e53950"/><path d="m230.633 387.866c0 27.707-22.47 50.177-50.177 50.177-5.009 0-9.847-.74-14.411-2.106 20.672-6.192 35.743-25.373 35.743-48.071 0-28.355-21.025-62.687-35.846-83.37 2.258-3.12 4.377-5.927 6.26-8.356 4.17-5.378 12.287-5.352 16.422.053 14.217 18.581 42.009 59.074 42.009 91.673z" fill="#fff3be"/><path d="m434.05 96.533c-2.107-2.775-6.27-2.79-8.394-.029-6.771 8.802-19.313 27.182-19.313 42.569 0 12.996 10.535 23.531 23.531 23.531s23.531-10.535 23.531-23.531c.001-15.028-12.594-33.635-19.355-42.54z" fill="#ffe177"/></g></g></svg>