<?xml version="1.0" encoding="iso-8859-1"?>
<!-- Generator: Adobe Illustrator 19.0.0, SVG Export Plug-In . SVG Version: 6.00 Build 0)  -->
<svg version="1.1" id="Layer_1" xmlns="http://www.w3.org/2000/svg" xmlns:xlink="http://www.w3.org/1999/xlink" x="0px" y="0px"
	 viewBox="0 0 512 512" style="enable-background:new 0 0 512 512;" xml:space="preserve">
<path style="fill:#F2F2F2;" d="M435.478,512H76.522c-9.22,0-16.696-7.475-16.696-16.696V16.696C59.826,7.475,67.301,0,76.522,0
	h358.957c9.22,0,16.696,7.475,16.696,16.696v478.609C452.174,504.525,444.699,512,435.478,512z"/>
<path style="fill:#CDD6E0;" d="M435.478,0H256v512h179.478c9.22,0,16.696-7.475,16.696-16.696V16.696
	C452.174,7.475,444.699,0,435.478,0z"/>
<path style="fill:#FF7058;" d="M315.426,88.267H196.575c-9.22,0-16.696-7.475-16.696-16.696V0h152.243v71.571
	C332.122,80.792,324.647,88.267,315.426,88.267z"/>
<g>
	<path style="fill:#CDD6E0;" d="M351.722,192.135H160.278c-9.22,0-16.696-7.475-16.696-16.696c0-9.22,7.475-16.696,16.696-16.696
		h191.443c9.22,0,16.696,7.475,16.696,16.696C368.417,184.659,360.942,192.135,351.722,192.135z"/>
	<path style="fill:#CDD6E0;" d="M351.722,300.133H160.278c-9.22,0-16.696-7.475-16.696-16.696s7.475-16.696,16.696-16.696h191.443
		c9.22,0,16.696,7.475,16.696,16.696S360.942,300.133,351.722,300.133z"/>
	<path style="fill:#CDD6E0;" d="M351.722,408.133H160.278c-9.22,0-16.696-7.475-16.696-16.696s7.475-16.696,16.696-16.696h191.443
		c9.22,0,16.696,7.475,16.696,16.696S360.942,408.133,351.722,408.133z"/>
</g>
<path style="fill:#F1543F;" d="M256,0v88.267h59.426c9.22,0,16.696-7.475,16.696-16.696V0H256z"/>
<g>
	<path style="fill:#AEB6BD;" d="M351.722,158.743H256v33.391h95.722c9.22,0,16.696-7.475,16.696-16.696
		C368.417,166.219,360.942,158.743,351.722,158.743z"/>
	<path style="fill:#AEB6BD;" d="M351.722,266.742H256v33.391h95.722c9.22,0,16.696-7.475,16.696-16.696
		S360.942,266.742,351.722,266.742z"/>
	<path style="fill:#AEB6BD;" d="M351.722,374.742H256v33.391h95.722c9.22,0,16.696-7.475,16.696-16.696
		S360.942,374.742,351.722,374.742z"/>
</g>
<g>
</g>
<g>
</g>
<g>
</g>
<g>
</g>
<g>
</g>
<g>
</g>
<g>
</g>
<g>
</g>
<g>
</g>
<g>
</g>
<g>
</g>
<g>
</g>
<g>
</g>
<g>
</g>
<g>
</g>
</svg>
