<svg id="Capa_1" enable-background="new 0 0 512 512" height="512" viewBox="0 0 512 512" width="512" xmlns="http://www.w3.org/2000/svg"><g><g><g><g><path d="m428.516 35.92v42.632h42.632c11.149 0 16.733-13.48 8.849-21.364l-30.118-30.118c-7.883-7.882-21.363-2.299-21.363 8.85z" fill="#3d4751"/></g></g></g><g><g><g><circle cx="367.053" cy="140.016" fill="#495560" r="103.018"/></g></g></g><g><g><g><path d="m40.852 78.553h42.632v-42.632c0-11.149-13.48-16.733-21.364-8.849l-30.117 30.117c-7.884 7.884-2.3 21.364 8.849 21.364z" fill="#3d4751"/></g></g></g><g><g><g><circle cx="144.947" cy="140.016" fill="#495560" r="103.018"/></g></g></g><g><g><g><circle cx="439.887" cy="450.189" fill="#5f7080" r="61.811"/></g></g></g><g><g><g><path d="m419.284 491.396c0-11.361 9.243-20.604 20.604-20.604v-82.414c-34.137 0-61.811 27.674-61.811 61.811s27.673 61.811 61.81 61.811c-11.36 0-20.603-9.243-20.603-20.604z" fill="#495560"/></g></g></g><g><g><g><path d="m223.756 21.364 30.146 30.145 30.146-30.145c7.882-7.884 2.299-21.364-8.85-21.364h-42.593c-11.15 0-16.733 13.48-8.849 21.364z" fill="#495560"/></g></g></g><g><g><g><circle cx="253.901" cy="138.431" fill="#5f7080" r="103.018"/></g></g></g><g><g><g><circle cx="72.113" cy="450.189" fill="#5f7080" r="61.811"/></g></g></g><g><g><g><path d="m51.509 491.396c0-11.361 9.243-20.604 20.604-20.604v-20.604l43.707-43.707c-11.186-11.185-26.638-18.104-43.707-18.104-34.137 0-61.811 27.674-61.811 61.811s27.673 61.812 61.811 61.812c-11.361 0-20.604-9.243-20.604-20.604z" fill="#495560"/></g></g></g><g><g><g><circle cx="72.113" cy="450.189" fill="#3d4751" r="20.604"/></g></g></g><g><g><g><circle cx="439.887" cy="450.189" fill="#3d4751" r="20.604"/></g></g></g><g><g><g><path d="m454.835 393.42 19.552-238.893h-436.774l19.552 238.893c2.625 32.075 29.423 56.769 61.605 56.769h274.46c32.183 0 58.98-24.694 61.605-56.769z" fill="#ff8fa2"/></g></g></g><g><g><g><path d="m118.976 393.42-13.65-166.78h363.16l5.902-72.113h-436.775l19.552 238.893c2.625 32.075 29.423 56.769 61.605 56.769h61.811c-32.183 0-58.98-24.694-61.605-56.769z" fill="#ff768d"/></g></g></g><g><g><g><path d="m481.095 185.433h-450.19c-17.068 0-30.905-13.837-30.905-30.906 0-17.069 13.837-30.905 30.905-30.905h450.189c17.069 0 30.905 13.837 30.905 30.905.001 17.069-13.836 30.906-30.904 30.906z" fill="#ffa1af"/></g></g></g><g><g><g><path d="m121.178 154.527c0-17.069 13.837-30.905 30.905-30.905h-121.178c-17.068 0-30.905 13.836-30.905 30.905s13.837 30.905 30.905 30.905h121.178c-17.068.001-30.905-13.836-30.905-30.905z" fill="#ff8fa2"/></g></g></g><g fill="#fff"><path d="m267.811 257.668 12.349 21.391-6.651-2.898c-3.799-1.657-8.218.083-9.872 3.88s.083 8.217 3.88 9.871l27.529 11.995c.958.417 1.979.625 2.996.625 1.299 0 2.594-.337 3.75-1.005 2.061-1.19 3.435-3.287 3.702-5.652l3.377-29.838c.466-4.116-2.493-7.83-6.608-8.296-4.116-.462-7.83 2.493-8.296 6.609l-.816 7.21-12.35-21.392c-5.08-8.799-14.179-14.052-24.34-14.052-10.159 0-19.258 5.253-24.337 14.052l-13.364 23.146c-2.071 3.587-.842 8.174 2.745 10.245 3.585 2.071 8.175.842 10.245-2.745l13.364-23.146c2.368-4.103 6.61-6.552 11.348-6.552 4.737 0 8.979 2.45 11.349 6.552z"/><path d="m332.38 339.506-13.364-23.146c-2.071-3.588-6.66-4.815-10.245-2.745-3.587 2.071-4.816 6.658-2.745 10.245l13.364 23.146c2.368 4.103 2.368 9.002 0 13.104-2.369 4.102-6.611 6.551-11.349 6.551h-24.7l5.835-4.311c3.331-2.461 4.036-7.157 1.575-10.489-2.461-3.333-7.157-4.037-10.489-1.576l-24.151 17.843c-1.914 1.414-3.043 3.652-3.043 6.032s1.129 4.618 3.043 6.032l24.151 17.843c1.341.991 2.902 1.468 4.451 1.468 2.299 0 4.567-1.053 6.038-3.044 2.461-3.332 1.756-8.027-1.575-10.489l-5.835-4.311h24.7c10.16 0 19.259-5.253 24.339-14.051s5.08-19.302 0-28.102z"/><path d="m231.688 366.662h-26.728c-4.737 0-8.979-2.449-11.348-6.552s-2.369-9.001-.001-13.104l12.35-21.391.816 7.209c.433 3.83 3.678 6.658 7.442 6.657.282 0 .566-.016.853-.048 4.116-.466 7.075-4.18 6.609-8.296l-3.376-29.838c-.268-2.365-1.642-4.462-3.702-5.652-2.063-1.19-4.566-1.331-6.746-.38l-27.529 11.995c-3.797 1.654-5.534 6.074-3.88 9.871 1.655 3.798 6.074 5.537 9.872 3.88l6.651-2.898-12.35 21.391c-5.08 8.799-5.079 19.305.001 28.104 5.08 8.798 14.178 14.051 24.338 14.051h26.728c4.143 0 7.5-3.358 7.5-7.5s-3.358-7.499-7.5-7.499z"/></g></g></svg>