<svg id="Capa_1" enable-background="new 0 0 512 512" height="512" viewBox="0 0 512 512" width="512" xmlns="http://www.w3.org/2000/svg"><g><g><path d="m321 77.5h-130l15.856-55.494c2.453-8.586 10.3-14.506 19.23-14.506h59.828c8.93 0 16.777 5.92 19.23 14.506z" fill="#c6c5ca"/></g><g><path d="m266.086 7.5h-40c-8.93 0-16.777 5.92-19.23 14.506l-15.856 55.494h40l15.856-55.494c2.453-8.586 10.3-14.506 19.23-14.506z" fill="#acabb1"/></g><g><path d="m84.011 157.5 22.685 291.653c2.43 31.238 28.487 55.347 59.819 55.347h178.971c31.333 0 57.39-24.109 59.819-55.347l22.684-291.653z" fill="#d8d7da"/></g><g><path d="m161.766 449.153-17.24-221.653h278.019l5.445-70h-343.979l22.685 291.653c2.43 31.238 28.487 55.347 59.819 55.347h55.071c-31.333 0-57.39-24.109-59.82-55.347z" fill="#c6c5ca"/></g><g><path d="m323.357 346c-17.87 0-32.357 14.487-32.357 32.357v106.143c0 11.046-8.954 20-20 20h37.99c20.888 0 38.26-16.073 39.88-36.898l6.746-86.736c1.463-18.802-13.4-34.866-32.259-34.866z" fill="#acabb1"/></g><g><path d="m221 484.5v-106.143c0-17.87-14.487-32.357-32.357-32.357-18.859 0-33.722 16.064-32.259 34.866l6.746 86.736c1.62 20.825 18.991 36.898 39.88 36.898h37.99c-11.046 0-20-8.954-20-20z" fill="#acabb1"/></g><g><path d="m426 187.5h-340c-16.569 0-30-13.431-30-30 0-16.569 13.431-30 30-30l170-10 170 10c16.569 0 30 13.431 30 30 0 16.569-13.431 30-30 30z" fill="#e8e8e8"/></g><g><path d="m426 127.5h-340c-16.569 0-30-13.431-30-30 0-16.569 13.431-30 30-30h340c16.569 0 30 13.431 30 30 0 16.569-13.431 30-30 30z" fill="#d8d7da"/></g><g><path d="m131.766 97.5c0-16.569 13.431-30 30-30h-75.766c-16.569 0-30 13.431-30 30s13.431 30 30 30h75.766c-16.569 0-30-13.431-30-30z" fill="#c6c5ca"/></g><g><path d="m191.128 157.5c0-16.569 13.431-30 30-30v-7.949l-135.128 7.949c-16.569 0-30 13.431-30 30s13.431 30 30 30h135.128c-16.569 0-30-13.431-30-30z" fill="#d8d7da"/></g><g><g><g><g><ellipse cx="176.355" cy="275.019" fill="#ffa1af" rx="29.387" ry="23.403"/></g></g><g><g><ellipse cx="335.645" cy="275.019" fill="#ffa1af" rx="29.387" ry="23.403"/></g></g><g><g><path d="m279.694 257.038c0-14.643-10.608-16.019-23.693-16.019-13.086 0-23.694 1.376-23.694 16.019s10.608 26.513 23.694 26.513c13.085-.001 23.693-11.871 23.693-26.513z" fill="#5f7080"/></g></g></g><g><g><path d="m181.268 254.579c-4.142 0-7.5-3.358-7.5-7.5v-12c0-4.142 3.358-7.5 7.5-7.5s7.5 3.358 7.5 7.5v12c0 4.142-3.358 7.5-7.5 7.5z"/></g></g><g><g><path d="m256 291.05c-17.2 0-31.193-15.258-31.193-34.013 0-23.519 21.859-23.519 31.193-23.519s31.193 0 31.193 23.519c0 18.755-13.993 34.013-31.193 34.013zm0-42.531c-15.539 0-16.193 2.611-16.193 8.519 0 10.484 7.264 19.013 16.193 19.013s16.193-8.529 16.193-19.013c0-5.908-.654-8.519-16.193-8.519z"/></g></g><g><g><path d="m330.732 254.579c-4.142 0-7.5-3.358-7.5-7.5v-12c0-4.142 3.358-7.5 7.5-7.5s7.5 3.358 7.5 7.5v12c0 4.142-3.358 7.5-7.5 7.5z"/></g></g></g><g><path d="m448.474 127.5c9.117-6.847 15.026-17.746 15.026-30 0-20.678-16.822-37.5-37.5-37.5h-102.2l-11.444-40.055c-3.355-11.743-14.229-19.945-26.442-19.945h-59.828c-12.213 0-23.086 8.202-26.442 19.945l-11.444 40.055h-102.2c-20.678 0-37.5 16.822-37.5 37.5 0 12.254 5.909 23.153 15.026 30-9.117 6.847-15.026 17.746-15.026 30 0 18.41 13.339 33.753 30.858 36.899l19.86 255.335c1.322 16.997 8.941 32.733 21.455 44.312 12.514 11.578 28.794 17.954 45.842 17.954h178.971c17.048 0 33.328-6.376 45.842-17.954 12.513-11.578 20.133-27.315 21.455-44.312l19.86-255.335c17.519-3.146 30.858-18.489 30.858-36.899-.001-12.254-5.91-23.153-15.027-30zm-234.407-103.434c1.525-5.338 6.467-9.066 12.019-9.066h59.828c5.552 0 10.494 3.728 12.019 9.066l10.267 35.934h-104.4zm96.383 472.902c-.115.005-.226.022-.339.032h-14.662c1.949-3.78 3.051-8.039 3.051-12.5v-106.143c0-13.706 11.151-24.857 24.857-24.857 7.007 0 13.486 2.833 18.245 7.976s7.08 11.823 6.537 18.809l-6.746 86.736c-1.272 16.349-14.574 29.223-30.943 29.947zm87.377-48.397c-2.112 27.157-25.103 48.429-52.342 48.429h-1.876c7.182-7.647 11.872-17.679 12.738-28.817l6.746-86.736c.858-11.039-2.962-22.031-10.481-30.159-7.52-8.127-18.183-12.789-29.255-12.789-21.977 0-39.857 17.88-39.857 39.857v106.144c0 6.148-4.574 11.463-10.639 12.364-.231.034-.457.082-.679.136h-32.48c-.25-.069-.505-.126-.767-.169-6.046-1.001-10.435-6.187-10.435-12.331v-45.475c0-4.142-3.358-7.5-7.5-7.5s-7.5 3.358-7.5 7.5v45.475c0 4.49 1.086 8.735 2.999 12.5h-14.616c-.116-.01-.23-.028-.348-.033-16.36-.73-29.656-13.605-30.927-29.947l-6.746-86.736c-.543-6.986 1.778-13.666 6.537-18.809s11.238-7.976 18.245-7.976c13.706 0 24.857 11.151 24.857 24.857v30.668c0 4.142 3.358 7.5 7.5 7.5s7.5-3.358 7.5-7.5v-30.668c0-21.977-17.88-39.857-39.857-39.857-11.072 0-21.735 4.661-29.255 12.789-7.52 8.127-11.34 19.12-10.481 30.159l6.746 86.736c.867 11.137 5.558 21.169 12.74 28.817h-1.878c-27.238 0-50.229-21.272-52.342-48.429l-19.724-253.571h323.1zm28.173-268.571h-340c-12.407 0-22.5-10.093-22.5-22.5s10.093-22.5 22.5-22.5h229.732c4.142 0 7.5-3.358 7.5-7.5s-3.358-7.5-7.5-7.5h-229.732c-12.407 0-22.5-10.093-22.5-22.5s10.093-22.5 22.5-22.5h340c12.407 0 22.5 10.093 22.5 22.5s-10.093 22.5-22.5 22.5h-80.268c-4.142 0-7.5 3.358-7.5 7.5s3.358 7.5 7.5 7.5h80.268c12.407 0 22.5 10.093 22.5 22.5s-10.093 22.5-22.5 22.5z"/></g></g></svg>