<svg id="Capa_1" enable-background="new 0 0 512 512" height="512" viewBox="0 0 512 512" width="512" xmlns="http://www.w3.org/2000/svg"><g><g><g><path d="m322.962 72.113h-133.924l16.334-57.169c2.528-8.846 10.612-14.944 19.811-14.944h61.634c9.199 0 17.284 6.098 19.811 14.943z" fill="#c6c5ca"/></g></g><g><g><path d="m266.39 0h-41.207c-9.199 0-17.284 6.098-19.811 14.943l-16.334 57.169h41.207l16.334-57.169c2.528-8.845 10.612-14.943 19.811-14.943z" fill="#acabb1"/></g></g><g><g><path d="m78.82 154.527 23.369 300.455c2.503 32.181 29.346 57.018 61.625 57.018h184.373c32.278 0 59.122-24.837 61.625-57.018l23.369-300.455z" fill="#d8d7da"/></g></g><g><g><path d="m158.922 454.982-17.76-228.342h286.41l5.609-72.113h-354.361l23.369 300.455c2.503 32.181 29.347 57.018 61.625 57.018h56.733c-32.279 0-59.122-24.837-61.625-57.018z" fill="#c6c5ca"/></g></g><g><g><path d="m325.39 348.716c-18.409 0-33.333 14.924-33.333 33.333v109.347c0 11.379-9.225 20.604-20.604 20.604h39.137c21.519 0 39.414-16.558 41.083-38.012l6.95-89.354c1.506-19.369-13.805-35.918-33.233-35.918z" fill="#acabb1"/></g></g><g><g><path d="m219.944 491.396v-109.346c0-18.409-14.924-33.333-33.333-33.333-19.428 0-34.74 16.548-33.233 35.918l6.95 89.354c1.668 21.453 19.564 38.011 41.082 38.011h39.137c-11.379 0-20.603-9.225-20.603-20.604z" fill="#acabb1"/></g></g><g><g><path d="m431.131 185.433h-350.262c-17.069 0-30.905-13.837-30.905-30.905 0-17.069 13.837-30.905 30.905-30.905l175.131-10.303 175.131 10.302c17.069 0 30.905 13.837 30.905 30.905 0 17.069-13.837 30.906-30.905 30.906z" fill="#e8e8e8"/></g></g><g><g><path d="m431.131 123.622h-350.262c-17.069 0-30.905-13.837-30.905-30.905 0-17.069 13.837-30.905 30.905-30.905h350.262c17.069 0 30.905 13.837 30.905 30.905 0 17.068-13.837 30.905-30.905 30.905z" fill="#d8d7da"/></g></g><g><g><path d="m128.016 92.716c0-17.069 13.837-30.905 30.905-30.905h-78.052c-17.069 0-30.905 13.837-30.905 30.905s13.837 30.905 30.905 30.905h78.053c-17.069.001-30.906-13.836-30.906-30.905z" fill="#c6c5ca"/></g></g><g><g><path d="m189.17 154.527c0-17.069 13.837-30.905 30.905-30.905v-8.189l-139.206 8.189c-17.069 0-30.905 13.837-30.905 30.905s13.837 30.905 30.905 30.905h139.206c-17.068.001-30.905-13.836-30.905-30.905z" fill="#d8d7da"/></g></g><g><g><g><g><g><ellipse cx="173.951" cy="275.593" fill="#ffa1af" rx="30.274" ry="24.109"/></g></g></g><g><g><g><ellipse cx="338.049" cy="275.593" fill="#ffa1af" rx="30.274" ry="24.109"/></g></g></g><g><g><g><path d="m280.409 257.069c0-15.085-10.928-16.502-24.409-16.502s-24.409 1.417-24.409 16.502 10.928 27.313 24.409 27.313 24.409-12.229 24.409-27.313z" fill="#495560"/></g></g></g></g><g><g><g><path d="m179.013 254.31c-4.142 0-7.5-3.358-7.5-7.5v-12.362c0-4.142 3.358-7.5 7.5-7.5s7.5 3.358 7.5 7.5v12.362c0 4.142-3.358 7.5-7.5 7.5z" fill="#495560"/></g></g></g><g><g><g><path d="m332.988 254.31c-4.142 0-7.5-3.358-7.5-7.5v-12.362c0-4.142 3.358-7.5 7.5-7.5s7.5 3.358 7.5 7.5v12.362c0 4.142-3.358 7.5-7.5 7.5z" fill="#495560"/></g></g></g></g></g></svg>