<svg id="Capa_1" enable-background="new 0 0 512 512" height="512" viewBox="0 0 512 512" width="512" xmlns="http://www.w3.org/2000/svg"><g><path d="m382.044 417.619v-375.313c0-23.365-18.941-42.306-42.306-42.306h-276.802c-23.365 0-42.306 18.941-42.306 42.306v375.313c0 23.365 18.941 42.306 42.306 42.306h276.802c23.365 0 42.306-18.941 42.306-42.306z" fill="#fbf1cf"/><path d="m339.738 459.925c23.365 0 42.306-18.941 42.306-42.306v-112.921l-116.329 116.33c-9.999 10-17.381 22.46-21.345 36.032l-.837 2.865z" fill="#fae0bd"/><path d="m483.603 343.631-147.643 147.643c-6.358 6.358-14.214 11.012-22.845 13.533l-21.935 6.408c-14.397 4.206-27.758-9.155-23.552-23.552l6.408-21.935c2.521-8.63 7.175-16.487 13.533-22.845l147.643-147.643c10.356-10.356 27.146-10.356 37.502 0l10.89 10.89c10.355 10.355 10.355 27.145-.001 37.501z" fill="#b0ade2"/><path d="m349.814 380.636-62.245 62.245c-6.358 6.358-11.012 14.214-13.533 22.845l-6.408 21.935c-4.206 14.397 9.155 27.758 23.552 23.552l21.935-6.408c8.63-2.521 16.487-7.175 22.845-13.533l32.965-32.965c-20.523-18.788-23.54-51.407-19.111-77.671z" fill="#a09cdc"/><path d="m323.48 500.531-45.169-45.169c-1.771 3.288-3.22 6.753-4.275 10.364l-6.408 21.935c-4.206 14.397 9.155 27.758 23.552 23.552l21.935-6.408c3.613-1.054 7.078-2.503 10.365-4.274z" fill="#59636f"/><path d="m459.327 367.907 24.276-24.276c10.356-10.356 10.356-27.146 0-37.502l-10.89-10.89c-10.356-10.356-27.146-10.356-37.502 0l-24.276 24.276z" fill="#e7889d"/><path d="m399.562 324.226h41.672v68.437h-41.672z" fill="#59636f" transform="matrix(-.707 .707 -.707 -.707 971.122 314.638)"/><path d="m348.904 437.437c-1.919 0-3.839-.732-5.303-2.197-2.929-2.929-2.929-7.678 0-10.606l24.159-24.159c2.929-2.929 7.678-2.929 10.606 0 2.929 2.929 2.929 7.678 0 10.607l-24.159 24.159c-1.464 1.464-3.383 2.196-5.303 2.196z" fill="#f6ee86"/><g><g fill="#59636f"><path d="m106.617 394.203c-18.542 0-33.627-15.085-33.627-33.627s15.085-33.627 33.627-33.627 33.627 15.085 33.627 33.627-15.086 33.627-33.627 33.627zm0-52.254c-10.271 0-18.627 8.356-18.627 18.627s8.356 18.627 18.627 18.627 18.627-8.356 18.627-18.627-8.357-18.627-18.627-18.627z"/><path d="m314.973 368.076h-125.536c-4.142 0-7.5-3.358-7.5-7.5s3.358-7.5 7.5-7.5h125.537c4.142 0 7.5 3.358 7.5 7.5s-3.359 7.5-7.501 7.5z"/><path d="m106.617 296.544c-18.542 0-33.627-15.085-33.627-33.627s15.085-33.627 33.627-33.627 33.627 15.085 33.627 33.627c-.001 18.542-15.086 33.627-33.627 33.627zm0-52.254c-10.271 0-18.627 8.356-18.627 18.627s8.356 18.627 18.627 18.627 18.627-8.356 18.627-18.627-8.357-18.627-18.627-18.627z"/><path d="m314.973 270.417h-125.536c-4.142 0-7.5-3.358-7.5-7.5s3.358-7.5 7.5-7.5h125.537c4.142 0 7.5 3.358 7.5 7.5-.001 4.142-3.359 7.5-7.501 7.5z"/><path d="m314.973 172.758h-125.536c-4.142 0-7.5-3.358-7.5-7.5s3.358-7.5 7.5-7.5h125.537c4.142 0 7.5 3.358 7.5 7.5-.001 4.142-3.359 7.5-7.501 7.5z"/></g><path d="m92.955 188.817c-1.919 0-3.839-.732-5.303-2.197l-18.152-18.152c-2.929-2.929-2.929-7.678 0-10.607s7.678-2.929 10.606 0l12.849 12.849 40.171-40.171c2.929-2.929 7.678-2.929 10.606 0 2.929 2.929 2.929 7.678 0 10.606l-45.474 45.475c-1.464 1.465-3.383 2.197-5.303 2.197z" fill="#e7889d"/></g><path d="m279.805 94.727h-156.936c-11.327 0-20.509-9.182-20.509-20.509v-17.851c0-11.327 9.182-20.509 20.509-20.509h156.936c11.327 0 20.509 9.182 20.509 20.509v17.851c0 11.326-9.182 20.509-20.509 20.509z" fill="#a2ddfd"/></g></svg>