<svg id="Capa_1" enable-background="new 0 0 512 512" height="512" viewBox="0 0 512 512" width="512" xmlns="http://www.w3.org/2000/svg"><g><path d="m284.876 440.502-197.034-197.034c-24.163-24.163-24.163-63.338 0-87.501l113.111-113.11c13.558-13.558 35.541-13.558 49.099 0l235.436 235.436c13.558 13.558 13.558 35.541 0 49.099l-113.11 113.111c-24.164 24.162-63.339 24.162-87.502-.001z" fill="#5ec682"/><path d="m403.568 317.64v-288.479c0-16.105-13.056-29.161-29.161-29.161h-190.797c-16.105 0-29.161 13.056-29.161 29.161v288.479c0 16.105 13.056 29.161 29.161 29.161h190.796c16.106.001 29.162-13.055 29.162-29.161z" fill="#fbf1cf"/><path d="m345.835 167.096c12.101-22.636 8.132-51.103-10.286-69.522l-43.455-43.455c-11.136-11.137-25.946-17.27-41.699-17.27-10.676 0-21.058 2.869-30.189 8.318-10.822-6.145-23.102-9.417-35.885-9.417-10.473 0-20.6 2.215-29.872 6.388v275.502c0 16.105 13.056 29.161 29.161 29.161h190.796c16.105 0 29.161-13.056 29.161-29.161v-92.812z" fill="#fae0bd"/><g fill="#59636f"><path d="m362.308 104.627h-166.598c-4.142 0-7.5-3.358-7.5-7.5s3.358-7.5 7.5-7.5h166.598c4.142 0 7.5 3.358 7.5 7.5s-3.358 7.5-7.5 7.5z"/><path d="m362.308 148.911h-166.598c-4.142 0-7.5-3.358-7.5-7.5s3.358-7.5 7.5-7.5h166.598c4.142 0 7.5 3.358 7.5 7.5s-3.358 7.5-7.5 7.5z"/><path d="m362.308 193.195h-166.598c-4.142 0-7.5-3.358-7.5-7.5s3.358-7.5 7.5-7.5h166.598c4.142 0 7.5 3.358 7.5 7.5s-3.358 7.5-7.5 7.5z"/></g><path d="m303.732 162.173 7.535-11.446c5.439-8.261 4.323-19.207-2.671-26.201l-43.455-43.455c-6.994-6.994-17.94-8.11-26.201-2.671l-11.446 7.535c-5.872 3.866-13.653 3.073-18.624-1.899-13.558-13.558-35.541-13.558-49.099 0l-128.253 128.255c-20.232 20.232-20.232 53.034 0 73.265l211.27 211.27c20.232 20.232 53.034 20.232 73.265 0l128.254-128.254c13.558-13.558 13.558-35.541 0-49.099l-138.676-138.676c-4.971-4.971-5.765-12.752-1.899-18.624z" fill="#88d37f"/><path d="m167.466 78.236c-2.757 1.533-5.353 3.46-7.695 5.801l-128.253 128.254c-20.232 20.232-20.232 53.034 0 73.265l162.757 162.757c-67.198-112.501-63.8-297.845-26.809-370.077z" fill="#5ec682"/><g><g><path d="m183.15 323.877c9.794 9.784 7.773 27.684-4.513 39.983-12.286 12.298-30.184 14.337-39.978 4.553s-7.773-27.685 4.512-39.983c12.287-12.299 30.186-14.337 39.979-4.553z" fill="#fff"/><path d="m259.236 247.714c9.794 9.784 27.692 7.745 39.978-4.553s14.306-30.199 4.513-39.983c-9.794-9.784-27.693-7.746-39.978 4.553-12.286 12.298-14.306 30.199-4.513 39.983z" fill="#fff"/><path d="m234.982 255.959c-13.49-13.476-24.52-4.97-36.563 7.085s-20.538 23.094-7.048 36.57c13.489 13.476 34.188 14.628 46.23 2.573 12.043-12.055 10.871-32.752-2.619-46.228z" fill="#4e5660"/></g><g fill="#4e5660"><path d="m248.75 225.137c-1.924 0-3.848-.736-5.313-2.207l-8.725-8.758c-2.923-2.935-2.914-7.683.02-10.607s7.683-2.915 10.607.021l8.725 8.758c2.923 2.935 2.914 7.683-.021 10.606-1.464 1.458-3.379 2.187-5.293 2.187z"/><path d="m146.141 326.055c-1.925 0-3.849-.736-5.314-2.208-4.144-4.162-6.42-9.688-6.406-15.562.013-5.873 2.312-11.389 6.474-15.533 8.592-8.553 22.541-8.523 31.094.068 2.922 2.935 2.912 7.684-.023 10.606-2.936 2.922-7.685 2.912-10.607-.023-1.317-1.322-3.07-2.053-4.936-2.057-.005 0-.01 0-.016 0-1.86 0-3.61.723-4.929 2.036-1.322 1.317-2.053 3.07-2.057 4.936s.719 3.622 2.035 4.944c2.923 2.935 2.913 7.684-.022 10.606-1.465 1.459-3.379 2.187-5.293 2.187z"/></g></g><path d="m164.285 355.339h267.903v15h-267.903z" fill="#5ec682" transform="matrix(.707 -.707 .707 .707 -169.214 317.158)"/></g></svg>