<svg id="Capa_1" enable-background="new 0 0 512 512" height="512" viewBox="0 0 512 512" width="512" xmlns="http://www.w3.org/2000/svg" xmlns:xlink="http://www.w3.org/1999/xlink"><linearGradient id="SVGID_1_" gradientUnits="userSpaceOnUse" x1="225.5" x2="225.5" y1="512" y2="61"><stop offset="0" stop-color="#00b59c"/><stop offset="1" stop-color="#9cffac"/></linearGradient><linearGradient id="SVGID_2_" gradientUnits="userSpaceOnUse" x1="391.5" x2="391.5" y1="241" y2="0"><stop offset="0" stop-color="#c3ffe8"/><stop offset=".9973" stop-color="#f0fff4"/></linearGradient><g><g><g><path d="m436 271h-195v-195c0-8.284-6.716-15-15-15-124.272 0-226 100.894-226 225 0 124.185 101.795 226 226 226 124.272 0 225-101.907 225-226 0-8.284-6.716-15-15-15z" fill="url(#SVGID_1_)"/></g></g><g><g><path d="m286 0c-8.284 0-15 6.716-15 15v211c0 8.284 6.716 15 15 15h211c8.284 0 15-6.716 15-15 0-124.369-101.622-226-226-226z" fill="url(#SVGID_2_)"/></g></g></g></svg>