<svg id="Layer_1" enable-background="new 0 0 512 512" height="512" viewBox="0 0 512 512" width="512" xmlns="http://www.w3.org/2000/svg"><g><path d="m192 512c-105.869 0-192-86.13-192-192 0-82.423 39.755-160.307 91.506-224.995 44.683-55.853 88.853-90.229 90.711-91.666 5.762-4.453 13.803-4.453 19.566 0 2.474 1.912 61.18 47.649 111.593 119.479 5.077 7.233 3.329 17.212-3.904 22.288-7.234 5.078 44.562 219.2 52.824 222.334s12.419 12.373 9.284 20.635c-27.848 73.408-98.461 123.925-179.58 123.925z" fill="#9af9ff"/><path d="m362.3 367.44c-8.27-3.13-60.06-217.26-52.83-222.33 7.23-5.08 8.98-15.06 3.91-22.29-50.42-71.83-109.12-117.57-111.6-119.48-5.528-4.27-13.421-4.817-20.28.56 4.656 3.652 29.186 23.381 58.858 55.119 16.943 18.123 19.82 45.165 7.376 66.628-26.125 45.059-39.734 91.051-39.734 135.153 0 58.753 29.191 110.688 73.571 141.53 25.805 17.933 25.942 56.28.296 74.439-30.112 21.321-64.708 33.035-100.397 34.941 84.696 4.609 160.786-46.375 190.11-123.63 3.13-8.27-1.02-17.51-9.28-20.64z" fill="#86effd"/><path d="m512 260.8c0 76.76-61.01 139.2-136 139.2s-136-62.44-136-139.2c0-51.68 21.92-107.12 63.38-160.33 30.82-39.56 61.39-63.98 62.68-65 5.82-4.62 14.06-4.62 19.88 0 1.29 1.02 31.86 25.44 62.68 65 41.46 53.21 63.38 108.65 63.38 160.33z" fill="#9af9ff"/><path d="m512 260.8c0 82.8-70.701 147.994-152 138.24 67.48-8.12 120-67.02 120-138.24 0-83.286-57.572-166.297-120-220.26 3.56-3.08 5.74-4.81 6.06-5.07 5.82-4.62 14.06-4.62 19.88 0 1.29 1.02 31.86 25.44 62.68 65 41.46 53.21 63.38 108.65 63.38 160.33z" fill="#86effd"/></g></svg>