<svg id="Capa_1" enable-background="new 0 0 511.995 511.995" height="512" viewBox="0 0 511.995 511.995" width="512" xmlns="http://www.w3.org/2000/svg" xmlns:xlink="http://www.w3.org/1999/xlink"><linearGradient id="SVGID_1_" gradientUnits="userSpaceOnUse" x1="288.299" x2="288.299" y1="330.998" y2="30.998"><stop offset="0" stop-color="#addcff"/><stop offset=".5028" stop-color="#eaf6ff"/><stop offset="1" stop-color="#eaf6ff"/></linearGradient><linearGradient id="SVGID_2_" gradientUnits="userSpaceOnUse" x1="220.371" x2="220.371" y1="480.998" y2="181.415"><stop offset="0" stop-color="#5558ff"/><stop offset="1" stop-color="#00c0ff"/></linearGradient><g id="Refresh_1_"><g><g><path d="m510.225 218.923c-2.607-4.878-7.69-7.925-13.228-7.925h-19.512c-21.064-103.491-113.628-180-220.488-180-77.432 0-148.477 39.067-190.049 104.517-4.545 7.156-2.266 16.588 4.937 20.903l51.533 30.923c6.943 4.189 15.894 2.065 20.303-4.688 25.078-38.613 67.427-61.655 113.276-61.655 57.598 0 108.472 36.899 127.295 90h-7.295c-5.537 0-10.62 3.047-13.228 7.925s-2.329 10.796.747 15.396l60 90c2.783 4.175 7.471 6.68 12.48 6.68s9.697-2.505 12.48-6.68l60-90c3.064-4.601 3.357-10.519.749-15.396z" fill="url(#SVGID_1_)"/></g></g><g><g><path d="m435.349 366.755-46.318-38.599c-6.901-5.725-17.119-4.164-22.046 3.135-25.225 37.383-67.09 59.707-111.987 59.707-57.598 0-108.472-36.899-127.295-90h7.295c5.537 0 10.62-3.047 13.228-7.925s2.329-10.796-.747-15.396l-60-90c-5.566-8.35-19.395-8.35-24.961 0l-60 90c-3.062 4.6-3.354 10.518-.747 15.396s7.69 7.925 13.228 7.925h19.512c21.064 103.491 113.628 180 220.488 180 72.334 0 140.728-35.127 182.93-93.97 4.583-6.387 3.455-15.234-2.58-20.273z" fill="url(#SVGID_2_)"/></g></g></g></svg>