<svg id="Capa_1" enable-background="new 0 0 512 512" height="512" viewBox="0 0 512 512" width="512" xmlns="http://www.w3.org/2000/svg"><g><g><path d="m217.979 135.068h-88.569c-14.901 0-27.024 12.123-27.024 27.024v246.742l27.024 21.513h76.558l27.024-21.512v-258.754c0-8.291-6.722-15.013-15.013-15.013z" fill="#e6f5ff"/><path d="m217.979 135.068h-50.29v295.279h38.279l27.024-21.512v-258.754c0-8.291-6.722-15.013-15.013-15.013z" fill="#c8eafc"/><path d="m101.758 12.591c-37.505 0-73.298 16.872-98.203 46.29-2.296 2.711-3.555 6.148-3.555 9.7v163.001c0 3.553 1.259 6.99 3.555 9.701 24.905 29.418 60.699 46.29 98.203 46.29 72.363 0 131.234-61.678 131.234-137.491s-58.871-137.491-131.234-137.491z" fill="#c8eafc"/><path d="m119.585 135.068h-40.431c-8.292 0-15.014 6.722-15.014 15.014s6.722 15.014 15.014 15.014h40.431c8.292 0 15.014-6.722 15.014-15.014s-6.722-15.014-15.014-15.014z" fill="#e6f5ff"/><path d="m232.992 408.834h-130.607v62.447c0 15.535 12.594 28.129 28.129 28.129h74.349c15.535 0 28.129-12.594 28.129-28.129z" fill="#c8eafc"/><g fill="#a6d3e7"><path d="m167.689 31.242v237.68c39.022-23.854 65.303-68.19 65.303-118.84s-26.281-94.986-65.303-118.84z"/><path d="m167.689 499.409h37.175c15.535 0 28.129-12.594 28.129-28.129v-62.447h-65.303v90.576z"/></g></g><g><path d="m294.021 135.068h88.568c14.901 0 27.024 12.123 27.024 27.024v246.742l-27.024 21.513h-76.558l-27.024-21.512v-258.754c.001-8.291 6.723-15.013 15.014-15.013z" fill="#c8eafc"/><path d="m294.021 135.068h50.29v295.279h-38.279l-27.024-21.512v-258.754c0-8.291 6.722-15.013 15.013-15.013z" fill="#e6f5ff"/><path d="m410.242 12.591c37.505 0 73.298 16.872 98.203 46.29 2.296 2.711 3.555 6.148 3.555 9.701v163.001c0 3.553-1.259 6.99-3.555 9.701-24.905 29.418-60.699 46.29-98.203 46.29-72.363 0-131.234-61.678-131.234-137.491s58.871-137.492 131.234-137.492z" fill="#a6d3e7"/><path d="m392.415 135.068h40.431c8.292 0 15.014 6.722 15.014 15.014s-6.722 15.014-15.014 15.014h-40.431c-8.292 0-15.014-6.722-15.014-15.014s6.722-15.014 15.014-15.014z" fill="#c8eafc"/><path d="m279.008 408.834h130.607v62.447c0 15.535-12.594 28.129-28.129 28.129h-74.349c-15.535 0-28.129-12.594-28.129-28.129z" fill="#a6d3e7"/><g fill="#c8eafc"><path d="m344.311 31.242v237.68c-39.022-23.854-65.303-68.19-65.303-118.84s26.281-94.986 65.303-118.84z"/><path d="m344.311 499.409h-37.174c-15.535 0-28.129-12.594-28.129-28.129v-62.447h65.303z"/></g></g></g></svg>