<svg id="Capa_1" enable-background="new 0 0 512 512" height="512" viewBox="0 0 512 512" width="512" xmlns="http://www.w3.org/2000/svg"><g><path d="m256 0c-33.084 0-60 26.916-60 60s26.916 60 60 60 60-26.916 60-60-26.916-60-60-60zm0 90c-16.542 0-30-13.458-30-30s13.458-30 30-30 30 13.458 30 30-13.458 30-30 30z" fill="#f5f2f1"/><path d="m256 0v30c16.54 0 30 13.46 30 30 0 16.538-13.469 30-30 30v30c33.083 0 60-26.926 60-60 0-33.08-26.92-60-60-60z" fill="#e8e1de"/><path d="m271 76v48.44c-9.955-.764-19.805-.782-30 0v-48.44c0-8.28 6.72-15 15-15s15 6.72 15 15z" fill="#607881"/><path d="m271 76v48.44c-5.01-.38-9.98-.58-15-.58v-62.86c8.28 0 15 6.72 15 15z" fill="#55696e"/><path d="m467.82 172.82-46.28 46.28c-15.34-26.27-36.75-48.57-62.3-64.98l44.94-44.94c5.829-5.828 15.336-5.874 21.21 0l42.43 42.43c5.86 5.85 5.86 15.35 0 21.21z" fill="#dbd1cc"/><path d="m152.76 154.12c-25.55 16.41-46.96 38.71-62.3 64.98l-46.28-46.28c-5.86-5.86-5.86-15.36 0-21.21l42.43-42.43c5.875-5.875 15.383-5.827 21.21 0z" fill="#e8e1de"/><circle cx="256" cy="315.431" fill="#f5f2f1" r="196.569"/><path d="m452.57 315.43c0 108.39-88.18 196.57-196.57 196.57v-393.14c108.39 0 196.57 88.18 196.57 196.57z" fill="#e8e1de"/><path d="m256 174.587c-77.662 0-140.845 63.183-140.845 140.844s63.183 140.844 140.845 140.844l5-140.971z" fill="#13b8e5"/><path d="m388.317 267.146c-19.75-53.951-71.609-92.559-132.317-92.559v140.718l68.39-8.531z" fill="#f47160"/><path d="m256 315.305v140.971c77.662 0 140.845-63.183 140.845-140.844 0-16.954-3.012-33.218-8.528-48.286z" fill="#50dbc1"/></g></svg>