<svg id="Layer_1" enable-background="new 0 0 512 512" height="512" viewBox="0 0 512 512" width="512" xmlns="http://www.w3.org/2000/svg"><g><path d="m401.6 168.36c-.36 4.01-3.83 7.03-7.85 6.83l-23.39-1.15-26.44-1.31c-2.02-.1-3.91-1.01-5.25-2.52-1.34-1.52-2.01-3.51-1.86-5.52 1-13.36-.96-56.65-22.31-79.65-12.51-13.48-31.65-20.04-58.5-20.04s-45.99 6.56-58.5 20.04c-21.33 22.98-23.3 66.12-22.31 79.42.15 2.01-.52 3.99-1.85 5.51-1.33 1.51-3.21 2.42-5.22 2.53l-49.84 2.69c-.14.01-.27.01-.41.01-3.86 0-7.12-2.95-7.47-6.84-.27-3.15-6.23-77.69 38.93-126.97 22.57-24.64 53.76-38.37 92.87-40.94 4.49-.3 9.1-.45 13.8-.45 45.62 0 81.51 13.92 106.67 41.39 45.16 49.28 39.2 123.82 38.93 126.97z" fill="#96c9d6"/><path d="m401.6 168.36c-.36 4.01-3.83 7.03-7.85 6.83l-23.39-1.15c-.14-3.29-.22-6.73-.22-10.32 0-121.18-72.66-155.04-127.94-163.27 4.49-.3 9.1-.45 13.8-.45 45.62 0 81.51 13.92 106.67 41.39 45.16 49.28 39.2 123.82 38.93 126.97z" fill="#77a5af"/><path d="m445.17 225.34-16.39 85.14-18.53 96.25-12.1 62.85c-33.48 28.18-81.13 42.42-142.15 42.42-12.49 0-24.43-.6-35.79-1.79h-.01c-44.14-4.63-79.73-18.22-106.35-40.63l-47.02-244.24c3.86-18.24 8.77-37.32 14.77-57.43.87-2.91 3.4-5.01 6.42-5.32 1.4-.14 133.56-13.38 304.72-2.26 10.22.65 20.59 1.4 31.07 2.25 3.09.24 5.7 2.36 6.59 5.33 6 20.11 10.91 39.19 14.77 57.43z" fill="#edf8f9"/><g fill="#daeeef"><path d="m410.25 406.73-12.1 62.85c-33.48 28.18-81.13 42.42-142.15 42.42-12.49 0-24.43-.6-35.79-1.79 109.24-9.05 164.66-51.29 190.04-103.48z"/><path d="m445.17 225.34-16.39 85.14c-1.98-77.94-35.5-149.01-36.04-150.15 10.22.65 20.59 1.4 31.07 2.25 3.09.24 5.7 2.36 6.59 5.33 6 20.11 10.91 39.19 14.77 57.43z"/></g><g fill="#66f1ff"><path d="m420.9 445.45c-6.66 8.94-14.25 16.99-22.75 24.13-6.61-6.57-12.45-13.65-17.54-21.13-50.75-74.42-27.92-187.73 36.8-216.44 8.55-3.79 17.83-6.11 27.76-6.67 5.31 25.04 8.64 48.5 10.09 70.83 4.07 62.99-7.49 113.22-34.36 149.28z"/><path d="m113.85 469.58c-8.5-7.14-16.09-15.19-22.75-24.13-26.87-36.06-38.43-86.29-34.36-149.28 1.45-22.33 4.78-45.79 10.09-70.83 92.72 5.19 128.17 163.68 47.02 244.24z"/></g><g fill="#ff76b4"><path d="m238 333.566c4.142 0 7.5-3.358 7.5-7.5v-30.792c0-5.791 4.71-10.501 10.5-10.501s10.501 4.711 10.501 10.501c0 4.142 3.358 7.5 7.5 7.5s7.5-3.358 7.5-7.5c0-14.062-11.439-25.501-25.501-25.501-14.061 0-25.5 11.44-25.5 25.501v30.792c0 4.142 3.358 7.5 7.5 7.5z"/><path d="m281.5 325.308c0-4.142-3.358-7.5-7.5-7.5s-7.5 3.358-7.5 7.5v29.971c0 5.791-4.71 10.501-10.501 10.501-5.79 0-10.5-4.711-10.5-10.501 0-4.142-3.358-7.5-7.5-7.5s-7.5 3.358-7.5 7.5c0 14.062 11.439 25.501 25.5 25.501s25.501-11.44 25.501-25.501z"/><path d="m202 302.774c4.142 0 7.5-3.358 7.5-7.5 0-11.125 4.008-21.897 11.285-30.333 2.706-3.136 2.356-7.872-.78-10.578-3.137-2.706-7.873-2.356-10.578.78-9.626 11.158-14.927 25.411-14.927 40.131 0 4.143 3.358 7.5 7.5 7.5z"/><path d="m256 233.77c-4.613 0-9.218.517-13.687 1.536-4.038.921-6.565 4.941-5.644 8.98.921 4.038 4.94 6.568 8.98 5.644 3.375-.77 6.858-1.16 10.351-1.16 25.64 0 46.5 20.862 46.5 46.504v30.002c0 4.142 3.358 7.5 7.5 7.5s7.5-3.358 7.5-7.5v-30.002c0-33.913-27.588-61.504-61.5-61.504z"/><path d="m310 347.779c-4.142 0-7.5 3.358-7.5 7.5 0 14.556-6.652 28.009-18.25 36.912-3.286 2.522-3.905 7.23-1.383 10.516 1.477 1.924 3.704 2.934 5.955 2.934 1.593 0 3.2-.506 4.561-1.551 15.327-11.764 24.118-29.555 24.118-48.811-.001-4.142-3.358-7.5-7.501-7.5z"/><path d="m256 401.783c-25.64 0-46.5-20.861-46.5-46.504 0-4.142-3.358-7.5-7.5-7.5s-7.5 3.358-7.5 7.5c0 33.914 27.589 61.504 61.5 61.504 4.142 0 7.5-3.358 7.5-7.5s-3.357-7.5-7.5-7.5z"/></g><g fill="#66d4ff"><g><ellipse cx="405" cy="371.405" rx="7.5" ry="7.501" transform="matrix(.009 -1 1 .009 29.994 773.074)"/><ellipse cx="405" cy="320.405" rx="7.5" ry="7.501" transform="matrix(.009 -1 1 .009 80.992 722.529)"/><ellipse cx="107" cy="371.405" rx="7.5" ry="7.501" transform="matrix(.009 -1 1 .009 -265.346 475.086)"/><ellipse cx="107" cy="320.405" rx="7.5" ry="7.501" transform="matrix(.009 -1 1 .009 -214.348 424.541)"/></g><path d="m420.9 445.45c-6.66 8.94-14.25 16.99-22.75 24.13-6.61-6.57-12.45-13.65-17.54-21.13 60.78-60.96 52.8-152.89 36.8-216.44 8.55-3.79 17.83-6.11 27.76-6.67 5.31 25.04 8.64 48.5 10.09 70.83 4.07 62.99-7.49 113.22-34.36 149.28z"/></g></g></svg>