<svg id="Capa_1" enable-background="new 0 0 512 512" height="512" viewBox="0 0 512 512" width="512" xmlns="http://www.w3.org/2000/svg"><g><path d="m335.975 85.188-119.427 171.779-7.844-4.273-69.495-190.402 3.074-8.798c23.16-8.466 48.177-13.075 74.266-13.075 43.303 0 83.621 12.724 117.462 34.61 3.411 2.205 4.284 6.823 1.964 10.159z" fill="#fee97d"/><path d="m216.548 256.967-5.289 7.832-190.648 60.872-10.402-2.822c-6.631-20.779-10.209-42.908-10.209-65.882 0-93.394 59.128-172.981 141.983-203.37l.299-.103z" fill="#8ac9fe"/><path d="m72.183 256.967c0 15.292 1.588 30.224 4.609 44.619l-66.583 21.263c-6.631-20.779-10.209-42.908-10.209-65.882 0-93.508 59.262-173.167 142.283-203.473l12.24 33.524c-50.157 39.659-82.34 101.045-82.34 169.949z" fill="#60b7ff"/><path d="m425.756 256.967c4.058 0 7.353 3.345 7.216 7.401-3.902 116.17-99.305 209.147-216.424 209.147-96.622 0-178.467-63.284-206.34-150.666l206.34-65.882z" fill="#ade194"/><path d="m252.64 470.525c-11.735 1.969-23.789 2.99-36.091 2.99-96.622 0-178.467-63.284-206.34-150.656v-.01l66.583-21.263c18.139 86.609 88.032 154.203 175.848 168.939z" fill="#97da7b"/><path d="m72.183 256.967c0 15.292 1.588 30.224 4.609 44.619l-66.583 21.263c-6.631-20.779-10.209-42.908-10.209-65.882 0-93.508 59.262-173.167 142.283-203.473l12.24 33.524c-50.157 39.659-82.34 101.045-82.34 169.949z" fill="#60b7ff"/><path d="m252.609 43.419c-36.628 6.156-70.151 21.5-98.086 43.598l-12.24-33.524v-.01c23.16-8.456 48.177-13.065 74.266-13.065 12.281 0 24.335 1.021 36.06 3.001z" fill="#fee45a"/><path d="m252.64 470.525c-11.735 1.969-23.789 2.99-36.091 2.99-96.622 0-178.467-63.284-206.34-150.656v-.01l66.583-21.263c18.139 86.609 88.032 154.203 175.848 168.939z" fill="#97da7b"/><path d="m414.992 41.574-111.537 160.43c-3.328 4.786.097 11.339 5.927 11.339h195.395c4.062 0 7.356-3.352 7.219-7.412-2.284-67.899-35.836-127.865-86.705-165.981-3.288-2.465-7.954-1.749-10.299 1.624z" fill="#f07281"/><path d="m457.443 69.508-100.004 143.829h-48.061c-5.829 0-9.254-6.553-5.927-11.339l111.538-160.421c2.345-3.373 7.012-4.088 10.3-1.624 11.685 8.758 22.456 18.661 32.154 29.555z" fill="#eb5569"/></g></svg>