<svg id="Layer_1" enable-background="new 0 0 512 512" height="512" viewBox="0 0 512 512" width="512" xmlns="http://www.w3.org/2000/svg"><g><path d="m384.536 102.301c-8.284 0-15-6.716-15-15v-24.1c0-18.307-14.894-33.201-33.201-33.201h-160.67c-18.307 0-33.201 14.894-33.201 33.201v24.1c0 8.284-6.716 15-15 15s-15-6.716-15-15v-24.1c0-34.849 28.352-63.201 63.201-63.201h160.67c34.849 0 63.201 28.352 63.201 63.201v24.1c0 8.284-6.716 15-15 15z" fill="#d7e3e6"/><path d="m399.536 63.201c0-34.849-28.352-63.201-63.201-63.201h-80.335v30h80.335c18.307 0 33.201 14.894 33.201 33.201v24.1c0 8.284 6.716 15 15 15s15-6.716 15-15z" fill="#bed2d2"/><path d="m436.406 123.8c-5.858-5.858-5.858-15.355 0-21.213l17.858-17.858c5.857-5.858 15.355-5.858 21.213 0s5.858 15.355 0 21.213l-17.858 17.858c-5.858 5.859-15.357 5.857-21.213 0z" fill="#001428"/><path d="m383.345 498.197-32.021-32.012c-6.589-6.588-5.633-17.536 1.987-22.885 16.305-11.446 30.363-25.504 41.784-41.783 5.343-7.615 16.29-8.589 22.888-1.991l32.014 32.021c18.375 18.375 18.375 48.274-.001 66.649-18.211 18.212-48.056 18.597-66.651.001z" fill="#003c50"/><path d="m62.004 498.193c-18.375-18.375-18.375-48.275 0-66.65l32.012-32.021c6.602-6.605 17.55-5.617 22.888 1.991 11.42 16.279 25.479 30.337 41.784 41.783 7.626 5.353 8.571 16.302 1.987 22.885l-32.021 32.014c-18.21 18.21-48.045 18.603-66.65-.002z" fill="#006478"/><path d="m418.28 254.217c-16.551-53.752-58.53-95.73-112.293-112.292-9.51-2.93-13.587-14.164-8.16-22.511 19.178-29.5 51.593-47.113 86.709-47.113 56.998 0 103.368 46.371 103.368 103.369 0 35.117-17.612 67.531-47.112 86.709-8.096 5.264-19.478 1.692-22.512-8.162z" fill="#003c50"/><path d="m54.381 123.8-17.858-17.858c-5.858-5.858-5.858-15.355 0-21.213 5.857-5.858 15.355-5.858 21.213 0l17.858 17.858c5.858 5.858 5.858 15.355 0 21.213-5.858 5.859-15.357 5.857-21.213 0z" fill="#003c50"/><path d="m71.208 262.379c-29.5-19.178-47.112-51.593-47.112-86.709 0-56.998 46.371-103.369 103.368-103.369 35.117 0 67.532 17.612 86.709 47.113 5.424 8.343 1.355 19.58-8.16 22.511-53.764 16.562-95.743 58.54-112.293 112.292-2.904 9.43-14.08 13.643-22.512 8.162z" fill="#006478"/><circle cx="256" cy="304.206" fill="#003c50" r="199.771"/><path d="m256 503.977v-399.541c110.154 0 199.771 89.617 199.771 199.771s-89.617 199.77-199.771 199.77z" fill="#001428"/><path d="m408.637 289.206h16.463c-3.129-35.563-17.264-68.011-38.977-93.91l-5.907 5.907c-5.858 5.859-15.357 5.857-21.213 0-5.858-5.858-5.858-15.355 0-21.213l5.907-5.907c-25.899-21.713-58.348-35.848-93.91-38.977v16.464c0 8.284-6.716 15-15 15s-15-6.716-15-15v-16.464c-35.563 3.129-68.011 17.264-93.91 38.977l5.907 5.907c5.858 5.858 5.858 15.355 0 21.213-5.858 5.859-15.357 5.857-21.213 0l-5.907-5.907c-21.713 25.899-35.848 58.347-38.977 93.91h16.464c8.284 0 15 6.716 15 15s-6.716 15-15 15h-16.464c3.129 35.563 17.264 68.011 38.977 93.91l5.907-5.907c5.858-5.857 15.356-5.857 21.213 0s5.857 15.355 0 21.213l-5.907 5.907c25.899 21.713 58.347 35.848 93.91 38.977v-16.464c0-8.284 6.716-15 15-15s15 6.716 15 15v16.464c35.563-3.129 68.011-17.264 93.91-38.977l-5.907-5.907c-5.858-5.858-5.858-15.355 0-21.213s15.355-5.858 21.213 0l5.907 5.907c21.713-25.899 35.848-58.347 38.977-93.91h-16.464c-8.284 0-15-6.716-15-15s6.717-15 15.001-15z" fill="#f0f5fa"/><path d="m271 456.842v16.464c35.563-3.129 68.011-17.264 93.91-38.977l-5.907-5.907c-5.858-5.858-5.858-15.355 0-21.213s15.355-5.858 21.213 0l5.907 5.907c21.713-25.899 35.848-58.347 38.977-93.91h-16.464c-8.284 0-15-6.716-15-15s6.716-15 15-15h16.464c-3.129-35.563-17.264-68.011-38.977-93.91l-5.907 5.907c-5.858 5.859-15.357 5.857-21.213 0-5.858-5.858-5.858-15.355 0-21.213l5.907-5.907c-25.899-21.713-58.348-35.848-93.91-38.977v16.464c0 8.284-6.716 15-15 15v275.273c8.284-.001 15 6.715 15 14.999z" fill="#d7e3e6"/><path d="m320.268 319.206h-64.268c-8.284 0-15-6.716-15-15v-96.402c0-8.284 6.716-15 15-15s15 6.716 15 15v81.402h49.268c8.284 0 15 6.716 15 15s-6.716 15-15 15z" fill="#003c50"/><path d="m320.268 319.206h-64.268v-126.402c8.284 0 15 6.716 15 15v81.402h49.268c8.284 0 15 6.716 15 15s-6.716 15-15 15z" fill="#001428"/></g></svg>