<svg id="Layer_1" height="512" viewBox="0 0 512 512" width="512" xmlns="http://www.w3.org/2000/svg" data-name="Layer 1"><path d="m472.02 284.42a25.21 25.21 0 0 0 -34.92-7.22l-2.11 1.38 27.69 42.15 2.11-1.38a25.2 25.2 0 0 0 7.23-34.93z" fill="#6addc7"/><path d="m335.84 58h-270a29.548 29.548 0 0 0 -29.84 29.63v361c0 16.56 13.27 30.37 29.84 30.37h270a30.466 30.466 0 0 0 30.16-30.37v-361c0-16.57-13.6-29.63-30.16-29.63zm-231.75 58.79a16.61 16.61 0 1 1 16.61-16.61 16.608 16.608 0 0 1 -16.61 16.61zm62.52 0a16.61 16.61 0 1 1 16.61-16.61 16.608 16.608 0 0 1 -16.61 16.61zm62.53 0a16.61 16.61 0 1 1 16.61-16.61 16.6 16.6 0 0 1 -16.61 16.61zm62.52 0a16.61 16.61 0 1 1 16.61-16.61 16.608 16.608 0 0 1 -16.61 16.61z" fill="#cae6ee"/><path d="m108.2 162.9a34.725 34.725 0 1 1 -34.72 34.73 34.729 34.729 0 0 1 34.72-34.73z" fill="#81c83d"/><path d="m108.2 262.9a34.725 34.725 0 1 1 -34.72 34.73 34.729 34.729 0 0 1 34.72-34.73z" fill="#81c83d"/><path d="m108.2 362.9a34.725 34.725 0 1 1 -34.72 34.73 34.729 34.729 0 0 1 34.72-34.73z" fill="#81c83d"/><path d="m66 448.63v-361a29.548 29.548 0 0 1 29.84-29.63h-30a29.548 29.548 0 0 0 -29.84 29.63v361c0 16.56 13.27 30.37 29.84 30.37h30c-16.57 0-29.84-13.81-29.84-30.37z" fill="#aac8ce"/><g fill="#6d7486"><path d="m104.09 89.43a6 6 0 0 1 -6-6v-50.055a6 6 0 0 1 12 0v50.055a6 6 0 0 1 -6 6z"/><path d="m104.09 89.43a6 6 0 0 1 -6-6v-50.055a6 6 0 0 1 12 0v50.055a6 6 0 0 1 -6 6z"/><path d="m166.613 89.43a6 6 0 0 1 -6-6v-50.055a6 6 0 0 1 12 0v50.055a6 6 0 0 1 -6 6z"/><path d="m229.138 89.43a6 6 0 0 1 -6-6v-50.055a6 6 0 0 1 12 0v50.055a6 6 0 0 1 -6 6z"/><path d="m291.661 89.43a6 6 0 0 1 -6-6v-50.055a6 6 0 0 1 12 0v50.055a6 6 0 0 1 -6 6z"/></g><path d="m328.2 191.625h-150a6 6 0 0 1 0-12h150a6 6 0 0 1 0 12z" fill="#8fb1b5"/><path d="m104.189 212.025a5.981 5.981 0 0 1 -4.242-1.757l-9.555-9.556a6 6 0 1 1 8.484-8.485l5.407 5.407 13.331-12.745a6 6 0 1 1 8.293 8.673l-17.571 16.8a5.982 5.982 0 0 1 -4.147 1.663z" fill="#d8ff33"/><path d="m328.2 291.625h-150a6 6 0 0 1 0-12h150a6 6 0 0 1 0 12z" fill="#8fb1b5"/><path d="m104.189 312.025a5.981 5.981 0 0 1 -4.242-1.757l-9.555-9.556a6 6 0 1 1 8.484-8.485l5.407 5.407 13.331-12.745a6 6 0 1 1 8.293 8.673l-17.571 16.8a5.982 5.982 0 0 1 -4.147 1.663z" fill="#d8ff33"/><path d="m273.3 391.625h-95.1a6 6 0 0 1 0-12h95.1a6 6 0 0 1 0 12z" fill="#8fb1b5"/><path d="m104.189 412.025a5.981 5.981 0 0 1 -4.242-1.757l-9.555-9.556a6 6 0 1 1 8.484-8.485l5.407 5.407 13.331-12.745a6 6 0 1 1 8.293 8.673l-17.571 16.8a5.982 5.982 0 0 1 -4.147 1.663z" fill="#d8ff33"/><path d="m258.2 211.625h-80a6 6 0 0 1 0-12h80a6 6 0 0 1 0 12z" fill="#8fb1b5"/><path d="m258.2 311.625h-80a6 6 0 0 1 0-12h80a6 6 0 0 1 0 12z" fill="#8fb1b5"/><path d="m258.2 411.625h-80a6 6 0 0 1 0-12h80a6 6 0 0 1 0 12z" fill="#8fb1b5"/><path d="m59.3 112.392a6 6 0 0 1 -6-6v-6.3a6 6 0 0 1 12 0v6.3a6 6 0 0 1 -6 6z" fill="#f4f8fc"/><path d="m59.3 189.392a6 6 0 0 1 -6-6v-58a6 6 0 0 1 12 0v58a6 6 0 0 1 -6 6z" fill="#f4f8fc"/><path d="m448.84 299.66-161.19 105.85 13.85 21.07 161.18-105.85z" fill="#e75163"/><path d="m264.901 329.434h192.838v25.223h-192.838z" fill="#fb6771" transform="matrix(.836 -.549 .549 .836 -128.452 254.466)"/><path d="m273.8 384.43-.64 1.2-22.37 42.28 50.71-1.33z" fill="#c79a83"/></svg>