<svg id="Capa_1" enable-background="new 0 0 512 512" height="512" viewBox="0 0 512 512" width="512" xmlns="http://www.w3.org/2000/svg"><g><path d="m90 0c-25.011 0-48.18 13.152-65.239 37.035-15.968 22.355-24.761 51.819-24.761 82.965s8.793 60.61 24.761 82.965c17.059 23.883 40.228 37.035 65.239 37.035 14.614 0 29.873-2.334 45-6.832v203.832c0 8.284 6.716 15 15 15h75c8.284 0 15-6.716 15-15v-317c0-67.581-80.634-120-150-120z" fill="#edf5ff"/><path d="m135 437v60c0 8.284 6.716 15 15 15h75c8.284 0 15-6.716 15-15v-60z" fill="#4bb9ec"/><path d="m487.239 37.035c-17.058-23.883-40.227-37.035-65.239-37.035-69.366 0-150 52.419-150 120v317c0 8.284 6.716 15 15 15h75c8.284 0 15-6.716 15-15v-203.832c15.127 4.498 30.386 6.832 45 6.832 25.012 0 48.181-13.152 65.239-37.035 15.967-22.355 24.761-51.819 24.761-82.965s-8.794-60.61-24.761-82.965z" fill="#d5e8fe"/><path d="m272 437v60c0 8.284 6.716 15 15 15h75c8.284 0 15-6.716 15-15v-60z" fill="#0095ff"/></g></svg>