<svg id="Capa_1" enable-background="new 0 0 512 512" height="512" viewBox="0 0 512 512" width="512" xmlns="http://www.w3.org/2000/svg"><g><g><path d="m301.125 374v62.75c0 8.284-6.716 15-15 15h-60.25c-8.284 0-15-6.716-15-15v-62.753z" fill="#384949"/></g><path d="m256 451.75h30.125c8.284 0 15-6.716 15-15v-62.75l-45.125-.002z" fill="#283939"/><g><path d="m256 376.5c-99.666 0-180.75-81.084-180.75-180.75s81.084-180.75 180.75-180.75 180.75 81.084 180.75 180.75-81.084 180.75-180.75 180.75z" fill="#efe8f9"/></g><path d="m436.75 195.75c0-99.666-81.084-180.75-180.75-180.75v361.5c99.666 0 180.75-81.084 180.75-180.75z" fill="#dcd5ea"/><g><path d="m373.204 334.167-42.6-42.6c-5.857-5.857-5.858-15.353-.002-21.21 19.925-19.935 30.899-46.431 30.899-74.606 0-28.178-10.976-54.673-30.907-74.604-2.831-2.832-4.413-6.677-4.393-10.681s1.64-7.834 4.5-10.637l43.03-42.18s63.771 46.352 63.771 138.102-64.298 138.416-64.298 138.416z" fill="#ff425b"/></g><g><path d="m256 180.625c-8.284 0-15-6.716-15-15v-60.25c0-8.284 6.716-15 15-15s15 6.716 15 15v60.25c0 8.284-6.716 15-15 15z" fill="#384949"/></g><g><path d="m256 52.594c-8.284 0-15-6.716-15-15v-22.594c0-8.284 30-8.284 30 0v22.594c0 8.284-6.716 15-15 15z" fill="#384949"/></g><g><path d="m144.167 98.917c-3.839 0-7.678-1.464-10.606-4.394l-15.976-15.976c-5.858-5.858 15.355-27.071 21.213-21.213l15.976 15.976c5.858 5.858 5.858 15.355 0 21.213-2.93 2.929-6.769 4.394-10.607 4.394z" fill="#384949"/></g><g><path d="m97.844 210.75h-22.594c-8.284 0-8.284-30 0-30h22.594c8.284 0 15 6.716 15 15s-6.716 15-15 15z" fill="#384949"/></g><g><path d="m117.584 312.953 15.976-15.976c5.857-5.858 15.355-5.858 21.213 0s5.858 15.355 0 21.213l-15.976 15.976c-2.929 2.929-27.071-15.355-21.213-21.213z" fill="#384949"/></g><g><path d="m241 376.5v-22.594c0-8.284 6.716-15 15-15s15 6.716 15 15v22.594c0 8.284-30 8.284-30 0z" fill="#384949"/></g><g><path d="m497 512h-165.75l-75.25-29.667-75.25 29.667h-165.75c-8.284 0-15-6.716-15-15v-60.25c0-8.284 6.716-15 15-15h168.667l72.333 25.917 75.25-25.917h165.75c8.284 0 15 6.716 15 15v60.25c0 8.284-6.716 15-15 15z" fill="#384949"/></g><g fill="#283939"><path d="m271 165.625v-60.25c0-8.284-6.716-15-15-15v90.25c8.284 0 15-6.716 15-15z"/><path d="m271 376.5v-22.594c0-8.284-6.716-15-15-15v43.807c7.5 0 15-2.071 15-6.213z"/><path d="m271 37.594v-22.594c0-4.142-7.5-6.213-15-6.213v43.807c8.284 0 15-6.716 15-15z"/><path d="m331.25 512h165.75c8.284 0 15-6.716 15-15v-60.25c0-8.284-6.716-15-15-15h-165.75l-75.25 25.917v34.667z"/></g><g><path d="m256 391.5c-107.937 0-195.75-87.813-195.75-195.75s87.813-195.75 195.75-195.75 195.75 87.813 195.75 195.75-87.813 195.75-195.75 195.75zm0-361.5c-91.395 0-165.75 74.355-165.75 165.75s74.355 165.75 165.75 165.75 165.75-74.355 165.75-165.75-74.355-165.75-165.75-165.75z" fill="#dcd5ea"/></g><path d="m421.75 195.75c0 91.395-74.355 165.75-165.75 165.75v30c107.937 0 195.75-87.813 195.75-195.75s-87.813-195.75-195.75-195.75v30c91.395 0 165.75 74.355 165.75 165.75z" fill="#b8b5d2"/><g><path d="m256 240.875c-24.882 0-45.125-20.243-45.125-45.125s20.243-45.125 45.125-45.125 45.125 20.243 45.125 45.125-20.243 45.125-45.125 45.125z" fill="#dcd5ea"/></g><path d="m301.125 195.75c0-24.882-20.243-45.125-45.125-45.125v90.25c24.882 0 45.125-20.243 45.125-45.125z" fill="#b8b5d2"/><g><path d="m331.25 512h-150.5v-90.25h150.5z" fill="#dcd5ea"/></g><path d="m256 421.75h75.25v90.25h-75.25z" fill="#b8b5d2"/></g></svg>