<svg id="Capa_1" enable-background="new 0 0 512 512" height="512" viewBox="0 0 512 512" width="512" xmlns="http://www.w3.org/2000/svg"><g><g><g><path d="m129.81 248.31v-92.12c0-69.58 56.61-126.19 126.19-126.19s126.19 56.61 126.19 126.19v92.12h30v-92.12c0-86.12-70.07-156.19-156.19-156.19s-156.19 70.07-156.19 156.19v92.12z" fill="#334973"/></g><path d="m382.19 156.19v92.12h30v-92.12c0-86.12-70.07-156.19-156.19-156.19v30c69.58 0 126.19 56.61 126.19 126.19z" fill="#1f3259"/></g><g><path d="m442.19 256v157.84c0 54.12-44.04 98.16-98.16 98.16h-176.05c-54.13 0-98.17-44.04-98.17-98.16v-157.84c0-8.28 6.72-15 15-15h342.38c8.28 0 15 6.72 15 15z" fill="#ffe14d"/></g><path d="m442.19 256v157.84c0 54.12-44.04 98.16-98.16 98.16h-88.03v-271h171.19c8.28 0 15 6.72 15 15z" fill="#fabe2c"/><path d="m294.3 353.2c0 8.28-6.71 15-15 15h-8.3v31.6c0 8.29-6.72 15-15 15s-15-6.71-15-15v-31.6h-8.3c-8.29 0-15-6.72-15-15 0-8.29 6.71-15 15-15h46.6c8.29 0 15 6.71 15 15z" fill="#334973"/><path d="m294.3 353.2c0 8.28-6.71 15-15 15h-8.3v31.6c0 8.29-6.72 15-15 15v-76.6h23.3c8.29 0 15 6.71 15 15z" fill="#1f3259"/></g></svg>