<?xml version="1.0" encoding="iso-8859-1"?>
<!-- Generator: Adobe Illustrator 19.0.0, SVG Export Plug-In . SVG Version: 6.00 Build 0)  -->
<svg version="1.1" id="Layer_1" xmlns="http://www.w3.org/2000/svg" xmlns:xlink="http://www.w3.org/1999/xlink" x="0px" y="0px"
	 viewBox="0 0 512.004 512.004" style="enable-background:new 0 0 512.004 512.004;" xml:space="preserve">
<rect x="27.607" y="303.481" style="fill:#E6E6E6;" width="456.785" height="104.704"/>
<rect y="103.813" style="fill:#5FC9ED;" width="512.004" height="219.463"/>
<g>
	<path style="fill:#E6E6E6;" d="M104.418,142.287H53.515c-9.153,0-16.573,7.42-16.573,16.573v109.372
		c0,9.153,7.42,16.573,16.573,16.573h50.903c9.153,0,16.573-7.42,16.573-16.573V158.86
		C120.991,149.707,113.571,142.287,104.418,142.287z"/>
	<path style="fill:#E6E6E6;" d="M224.879,142.287h-50.903c-9.153,0-16.573,7.42-16.573,16.573v109.372
		c0,9.153,7.42,16.573,16.573,16.573h50.903c9.153,0,16.573-7.42,16.573-16.573V158.86
		C241.452,149.707,234.032,142.287,224.879,142.287z"/>
	<path style="fill:#E6E6E6;" d="M455.358,142.287h-50.903c-9.153,0-16.573,7.42-16.573,16.573v109.372
		c0,9.153,7.42,16.573,16.573,16.573h50.903c9.153,0,16.573-7.42,16.573-16.573V158.86
		C471.931,149.707,464.511,142.287,455.358,142.287z"/>
</g>
<g>
	<rect x="53.387" y="357.031" style="fill:#808080;" width="18.272" height="51.16"/>
	<rect x="92.117" y="357.031" style="fill:#808080;" width="18.272" height="51.16"/>
	<rect x="130.854" y="357.031" style="fill:#808080;" width="18.272" height="51.16"/>
	<rect x="169.592" y="357.031" style="fill:#808080;" width="18.272" height="51.16"/>
	<rect x="208.329" y="357.031" style="fill:#808080;" width="18.272" height="51.16"/>
	<rect x="247.067" y="357.031" style="fill:#808080;" width="18.272" height="51.16"/>
	<rect x="285.804" y="357.031" style="fill:#808080;" width="18.272" height="51.16"/>
	<rect x="324.541" y="357.031" style="fill:#808080;" width="18.272" height="51.16"/>
	<rect x="363.267" y="357.031" style="fill:#808080;" width="18.272" height="51.16"/>
	<rect x="402.004" y="357.031" style="fill:#808080;" width="18.272" height="51.16"/>
	<rect x="440.741" y="357.031" style="fill:#808080;" width="18.272" height="51.16"/>
</g>
<g>
</g>
<g>
</g>
<g>
</g>
<g>
</g>
<g>
</g>
<g>
</g>
<g>
</g>
<g>
</g>
<g>
</g>
<g>
</g>
<g>
</g>
<g>
</g>
<g>
</g>
<g>
</g>
<g>
</g>
</svg>
