<?xml version="1.0" encoding="iso-8859-1"?>
<!-- Generator: Adobe Illustrator 19.0.0, SVG Export Plug-In . SVG Version: 6.00 Build 0)  -->
<svg version="1.1" id="Layer_1" xmlns="http://www.w3.org/2000/svg" xmlns:xlink="http://www.w3.org/1999/xlink" x="0px" y="0px"
	 viewBox="0 0 512 512" style="enable-background:new 0 0 512 512;" xml:space="preserve">
<path style="fill:#E6EEFF;" d="M384,158H128c-8.284,0-15-6.716-15-15V15c0-8.284,6.716-15,15-15h256c8.284,0,15,6.716,15,15v128
	C399,151.284,392.284,158,384,158z"/>
<path style="fill:#DAE2F2;" d="M384,158c8.284,0,15-6.716,15-15V15c0-8.284-6.716-15-15-15H256c0,0,0.338,67.854,0.674,158H384z"/>
<rect x="176" y="63" style="fill:#5C5F66;" width="32" height="32"/>
<rect x="304" y="63" style="fill:#53565C;" width="32" height="32"/>
<path style="fill:#45C1F1;" d="M384,512H128c-43.561,0-79-35.439-79-79V143c0-8.284,6.716-15,15-15h384c8.284,0,15,6.716,15,15v290
	C463,476.561,427.561,512,384,512z"/>
<path style="fill:#44A4EC;" d="M257.255,512H384c43.561,0,79-35.439,79-79V143c0-8.284-6.716-15-15-15H256.559
	C257.012,243.393,257.534,410.131,257.255,512z"/>
<path style="fill:#E6EEFF;" d="M336,226c-8.284,0-15,6.716-15,15v32c0,9.374-7.626,17-17,17h-16c-5.994,0-11.724,1.14-17,3.195V207
	c0-8.284-6.716-15-15-15s-15,6.716-15,15v130v20.195c-5.276-2.055-11.006-3.195-17-3.195h-16c-9.374,0-17-7.626-17-17v-32
	c0-8.284-6.716-15-15-15s-15,6.716-15,15v32c0,25.916,21.084,47,47,47h16c9.374,0,17,7.626,17,17v32c0,8.284,6.716,15,15,15
	s15-6.716,15-15v-32v-32v-32c0-9.374,7.626-17,17-17h16c25.916,0,47-21.084,47-47v-32C351,232.716,344.284,226,336,226z"/>
<path style="fill:#DAE2F2;" d="M257.333,447.933C264.992,447.257,271,440.834,271,433v-32v-32v-32c0-9.374,7.626-17,17-17h16
	c25.916,0,47-21.084,47-47v-32c0-8.284-6.716-15-15-15s-15,6.716-15,15v32c0,9.374-7.626,17-17,17h-16
	c-5.994,0-11.724,1.14-17,3.195V207c0-8.015-6.292-14.543-14.204-14.96C257.084,274.696,257.338,370.012,257.333,447.933z"/>
<g>
</g>
<g>
</g>
<g>
</g>
<g>
</g>
<g>
</g>
<g>
</g>
<g>
</g>
<g>
</g>
<g>
</g>
<g>
</g>
<g>
</g>
<g>
</g>
<g>
</g>
<g>
</g>
<g>
</g>
</svg>
