<?xml version="1.0" encoding="iso-8859-1"?>
<!-- Generator: Adobe Illustrator 19.0.0, SVG Export Plug-In . SVG Version: 6.00 Build 0)  -->
<svg version="1.1" id="Capa_1" xmlns="http://www.w3.org/2000/svg" xmlns:xlink="http://www.w3.org/1999/xlink" x="0px" y="0px"
	 viewBox="0 0 512 512" style="enable-background:new 0 0 512 512;" xml:space="preserve">
<path style="fill:#C5C7DA;" d="M320,0H192c-4.418,0-8,3.582-8,8v96c0,4.418,3.582,8,8,8h128c4.418,0,8-3.582,8-8V8
	C328,3.582,324.418,0,320,0z"/>
<path style="fill:#8B8FB5;" d="M200,104V8c0-4.418,3.582-8,8-8h-16c-4.418,0-8,3.582-8,8v96c0,4.418,3.582,8,8,8h16
	C203.582,112,200,108.418,200,104z"/>
<path style="fill:#515790;" d="M344,96H168c-4.418,0-8,3.582-8,8v32c0,4.418,3.582,8,8,8h176c4.418,0,8-3.582,8-8v-32
	C352,99.582,348.418,96,344,96z"/>
<path style="fill:#3E477C;" d="M176,136v-32c0-4.418,3.582-8,8-8h-16c-4.418,0-8,3.582-8,8v32c0,4.418,3.582,8,8,8h16
	C179.582,144,176,140.418,176,136z"/>
<path style="fill:#60CDEA;" d="M376,128H136c-4.418,0-8,3.582-8,8v288c0,48.523,39.477,88,88,88h80c48.523,0,88-39.477,88-88V136
	C384,131.582,380.418,128,376,128z"/>
<path style="fill:#49B9DE;" d="M312,496h-80c-48.523,0-88-39.477-88-88V128h-8c-4.418,0-8,3.582-8,8v288c0,48.523,39.477,88,88,88
	h80c28.331,0,53.574-13.461,69.68-34.32C350.814,489.159,332.192,496,312,496z"/>
<g>
	<path style="fill:#7074A3;" d="M240,16h-24c-4.418,0-8,3.582-8,8v16c0,4.418,3.582,8,8,8h24c4.418,0,8-3.582,8-8V24
		C248,19.582,244.418,16,240,16z"/>
	<path style="fill:#7074A3;" d="M296,16h-24c-4.418,0-8,3.582-8,8v16c0,4.418,3.582,8,8,8h24c4.418,0,8-3.582,8-8V24
		C304,19.582,300.418,16,296,16z"/>
</g>
<path style="fill:#515790;" d="M280,80h-48c-4.418,0-8-3.582-8-8s3.582-8,8-8h48c4.418,0,8,3.582,8,8S284.418,80,280,80z"/>
<path style="fill:#4296BD;" d="M320,280c-4.418,0-8,3.582-8,8v27.056l-48,24V208c0-4.418-3.582-8-8-8s-8,3.582-8,8v164.457l-48-18
	V328c0-4.418-3.582-8-8-8s-8,3.582-8,8v32c0,3.335,2.068,6.319,5.191,7.49L248,389.544V424c0,4.418,3.582,8,8,8s8-3.582,8-8v-67.056
	l59.578-29.789C326.288,325.8,328,323.03,328,320v-32C328,283.582,324.418,280,320,280z"/>
<g>
	<path style="fill:#F6D45A;" d="M256,416c-17.645,0-32,14.355-32,32s14.355,32,32,32s32-14.355,32-32S273.645,416,256,416z"/>
	<path style="fill:#F6D45A;" d="M286.4,203.2l-24-32c-3.149-4.196-9.652-4.199-12.8,0l-24,32c-3.885,5.179-0.054,12.8,6.4,12.8h48
		C286.454,216,290.284,208.38,286.4,203.2z"/>
	<path style="fill:#F6D45A;" d="M192,272c-17.645,0-32,14.355-32,32s14.355,32,32,32s32-14.355,32-32S209.645,272,192,272z"/>
	<path style="fill:#F6D45A;" d="M344,232h-48c-4.418,0-8,3.582-8,8v48c0,4.418,3.582,8,8,8h48c4.418,0,8-3.582,8-8v-48
		C352,235.582,348.418,232,344,232z"/>
</g>
<g>
</g>
<g>
</g>
<g>
</g>
<g>
</g>
<g>
</g>
<g>
</g>
<g>
</g>
<g>
</g>
<g>
</g>
<g>
</g>
<g>
</g>
<g>
</g>
<g>
</g>
<g>
</g>
<g>
</g>
</svg>
