<?xml version="1.0" encoding="iso-8859-1"?>
<!-- Generator: Adobe Illustrator 19.0.0, SVG Export Plug-In . SVG Version: 6.00 Build 0)  -->
<svg version="1.1" id="Capa_1" xmlns="http://www.w3.org/2000/svg" xmlns:xlink="http://www.w3.org/1999/xlink" x="0px" y="0px"
	 viewBox="0 0 512 512" style="enable-background:new 0 0 512 512;" xml:space="preserve">
<path style="fill:#6F7D96;" d="M107.508,152.509c-3.838,0-7.676-1.465-10.605-4.395l-42.422-42.422
	c-5.859-5.859-5.859-15.352,0-21.211s15.352-5.859,21.211,0l42.422,42.422c5.859,5.859,5.859,15.352,0,21.211
	C115.184,151.044,111.346,152.509,107.508,152.509z"/>
<path style="fill:#66728B;" d="M404.491,152.509c-3.838,0-7.676-1.465-10.605-4.395c-5.859-5.859-5.859-15.352,0-21.211
	l42.422-42.422c5.859-5.859,15.352-5.859,21.211,0s5.859,15.352,0,21.211l-42.422,42.422
	C412.167,151.044,408.329,152.509,404.491,152.509z"/>
<path style="fill:#6F7D96;" d="M271,15v60c0,8.401-6.599,16-15,16c-8.401,0-15-7.599-15-16V15c0-8.401,6.599-15,15-15
	C264.401,0,271,6.599,271,15z"/>
<path style="fill:#66728B;" d="M271,15v60c0,8.401-6.599,16-15,16V0C264.401,0,271,6.599,271,15z"/>
<path style="fill:#F6B73C;" d="M255.999,60c-124.2,0-225,101.8-225,226s100.8,226,225,226s225-101.8,225-226S380.2,60,255.999,60z"
	/>
<path style="fill:#F29737;" d="M481,286c0,124.2-100.8,226-225,226V60C380.2,60,481,161.8,481,286z"/>
<path style="fill:#57DEFF;" d="M255.999,121c-90.901,0-165,74.099-165,165s74.099,165,165,165s165-74.099,165-165
	S346.901,121,255.999,121z"/>
<path style="fill:#4EC9E6;" d="M421,286c0,90.901-74.099,165-165,165V121C346.901,121,421,195.099,421,286z"/>
<path style="fill:#7984EB;" d="M271,136v120c0,8.401-6.599,15-15,15c-8.401,0-15-6.599-15-15V136c0-8.401,6.599-15,15-15
	C264.401,121,271,127.599,271,136z"/>
<path style="fill:#6B77E8;" d="M351.464,402.675l-21.255-21.255c-5.859-5.859-5.859-15.352,0-21.211s15.352-5.859,21.211,0
	l21.255,21.255c5.859,5.859,5.859,15.352,0,21.211C366.815,408.534,357.323,408.534,351.464,402.675z"/>
<path style="fill:#7984EB;" d="M160.579,211.791l-21.196-21.196c-5.859-5.859-5.859-15.352,0-21.211s15.352-5.859,21.211,0
	l21.196,21.196c5.859,5.859,5.859,15.352,0,21.211C175.93,217.651,166.439,217.651,160.579,211.791z"/>
<path style="fill:#6B77E8;" d="M406,301h-30c-8.291,0-15-6.709-15-15s6.709-15,15-15h30c8.291,0,15,6.709,15,15S414.29,301,406,301z
	"/>
<path style="fill:#7984EB;" d="M135.999,301h-30c-8.291,0-15-6.709-15-15s6.709-15,15-15h30c8.291,0,15,6.709,15,15
	S144.29,301,135.999,301z"/>
<path style="fill:#6B77E8;" d="M330.209,211.791c-5.859-5.859-5.859-15.352,0-21.211l21.196-21.196
	c5.859-5.859,15.352-5.859,21.211,0s5.859,15.352,0,21.211l-21.196,21.196C345.56,217.651,336.069,217.651,330.209,211.791z"/>
<g>
	<path style="fill:#7984EB;" d="M139.324,402.675c-5.859-5.859-5.859-15.352,0-21.211l21.255-21.255
		c5.859-5.859,15.352-5.859,21.211,0s5.859,15.352,0,21.211l-21.255,21.255C154.676,408.534,145.184,408.534,139.324,402.675z"/>
	<path style="fill:#7984EB;" d="M202.27,339.73c-5.859-5.859-5.859-15.352,0-21.211l21.914-21.914
		c5.859-5.859,15.352-5.859,21.211,0s5.859,15.352,0,21.211l-21.915,21.914C217.62,345.59,208.128,345.59,202.27,339.73z"/>
	<path style="fill:#7984EB;" d="M271,406v30c0,8.401-6.599,15-15,15c-8.401,0-15-6.599-15-15v-30c0-8.401,6.599-15,15-15
		C264.401,391,271,397.599,271,406z"/>
</g>
<path style="fill:#BAC2CF;" d="M43.861,131.298c-3.838,0-7.676-1.465-10.605-4.395c-5.859-5.859-5.859-15.352,0-21.211
	l42.437-42.437c5.859-5.859,15.352-5.859,21.211,0s5.859,15.352,0,21.211l-42.437,42.437
	C51.536,129.833,47.699,131.298,43.861,131.298z"/>
<path style="fill:#ADB5C5;" d="M468.139,131.298c-3.838,0-7.676-1.465-10.605-4.395l-42.437-42.437
	c-5.859-5.859-5.859-15.352,0-21.211s15.352-5.859,21.211,0l42.437,42.437c5.859,5.859,5.859,15.352,0,21.211
	C475.814,129.833,471.977,131.298,468.139,131.298z"/>
<g>
	<path style="fill:#6B77E8;" d="M271,136v120c0,8.401-6.599,15-15,15V121C264.401,121,271,127.599,271,136z"/>
	<path style="fill:#6B77E8;" d="M271,406v30c0,8.401-6.599,15-15,15v-60C264.401,391,271,397.599,271,406z"/>
</g>
<path style="fill:#CA80DC;" d="M255.999,241c-24.901,0-45,20.099-45,45s20.099,45,45,45s45-20.099,45-45S280.901,241,255.999,241z"
	/>
<path style="fill:#B757D1;" d="M301,286c0,24.901-20.099,45-45,45v-90C280.901,241,301,261.099,301,286z"/>
<path style="fill:#BAC2CF;" d="M331,15c0,8.401-6.599,15-15,15h-120c-8.401,0-15-6.599-15-15s6.599-15,15-15h120
	C324.401,0,331,6.599,331,15z"/>
<path style="fill:#ADB5C5;" d="M331,15c0,8.401-6.599,15-15,15h-60V0h60C324.401,0,331,6.599,331,15z"/>
<g>
</g>
<g>
</g>
<g>
</g>
<g>
</g>
<g>
</g>
<g>
</g>
<g>
</g>
<g>
</g>
<g>
</g>
<g>
</g>
<g>
</g>
<g>
</g>
<g>
</g>
<g>
</g>
<g>
</g>
</svg>
