<?xml version="1.0" encoding="iso-8859-1"?>
<!-- Generator: Adobe Illustrator 19.0.0, SVG Export Plug-In . SVG Version: 6.00 Build 0)  -->
<svg version="1.1" id="Capa_1" xmlns="http://www.w3.org/2000/svg" xmlns:xlink="http://www.w3.org/1999/xlink" x="0px" y="0px"
	 viewBox="0 0 512 512" style="enable-background:new 0 0 512 512;" xml:space="preserve">
<path style="fill:#FFD15C;" d="M256.001,0L256.001,0c-61.457,0-111.276,49.82-111.276,111.276v141.185h41.796V111.276
	c0-38.312,31.168-69.48,69.48-69.48c38.311,0,69.479,31.168,69.479,69.48v141.185h41.796V111.276C367.277,49.82,317.456,0,256.001,0
	z"/>
<g>
	<path style="fill:#EDBB4C;" d="M264.36,0.311C261.6,0.107,258.813,0,256.001,0l0,0c-61.456,0-111.276,49.82-111.276,111.276
		v141.185h16.718V111.276C161.443,52.633,206.809,4.586,264.36,0.311z"/>
	<path style="fill:#EDBB4C;" d="M272.719,41.796c-2.831,0-5.616,0.19-8.359,0.52c34.381,4.144,61.12,33.479,61.12,68.959V252.46
		h16.718V111.276C342.198,72.964,311.03,41.796,272.719,41.796z"/>
</g>
<path style="fill:#FF525D;" d="M393.605,247.236H118.396c-20.516,0-37.146,16.631-37.146,37.146v190.471
	C81.25,495.369,97.88,512,118.396,512h275.208c20.516,0,37.146-16.631,37.146-37.146V284.383
	C430.751,263.867,414.12,247.236,393.605,247.236z"/>
<path style="fill:#EF4152;" d="M113.642,474.854V284.383c0-20.516,16.631-37.146,37.146-37.146h-32.392
	c-20.516,0-37.146,16.631-37.146,37.146v190.471C81.25,495.369,97.88,512,118.396,512h32.392
	C130.273,512,113.642,495.369,113.642,474.854z"/>
<path style="fill:#5C5E70;" d="M291.529,359.561c0-19.622-15.906-35.529-35.529-35.529s-35.529,15.906-35.529,35.529
	c0,13.617,7.664,25.439,18.911,31.403v44.239h33.237v-44.239C283.866,385,291.529,373.178,291.529,359.561z"/>
<g>
</g>
<g>
</g>
<g>
</g>
<g>
</g>
<g>
</g>
<g>
</g>
<g>
</g>
<g>
</g>
<g>
</g>
<g>
</g>
<g>
</g>
<g>
</g>
<g>
</g>
<g>
</g>
<g>
</g>
</svg>
