<?xml version="1.0" encoding="iso-8859-1"?>
<!-- Generator: Adobe Illustrator 19.0.0, SVG Export Plug-In . SVG Version: 6.00 Build 0)  -->
<svg version="1.1" id="Capa_1" xmlns="http://www.w3.org/2000/svg" xmlns:xlink="http://www.w3.org/1999/xlink" x="0px" y="0px"
	 viewBox="0 0 394.245 394.245" style="enable-background:new 0 0 394.245 394.245;" xml:space="preserve">
<path style="fill:#1BB7EA;" d="M23.043,163.845v199.68c0,16.896,13.824,30.72,30.72,30.72h286.72c16.896,0,30.72-13.824,30.72-30.72
	v-199.68H23.043z"/>
<path style="fill:#1F4254;" d="M227.843,266.24c0-16.968-13.752-30.72-30.72-30.72s-30.72,13.752-30.72,30.72
	c0,13.368,8.556,24.714,20.48,28.933v22.267c0,5.652,4.588,10.24,10.24,10.24s10.24-4.588,10.24-10.24v-22.267
	C219.287,290.959,227.843,279.613,227.843,266.24z"/>
<path style="fill:#C5CED3;" d="M99.837,163.845v-28.431c0.015-25.999,10.721-49.398,28.314-66.616
	c17.618-17.172,41.897-27.837,68.966-27.843c27.069,0.005,51.343,10.67,68.966,27.843c17.592,17.213,28.298,40.617,28.314,66.616
	v28.431h40.96v-28.431c0.015-37.473-15.642-71.542-40.668-95.928C269.688,15.063,235.082,0,197.117,0
	c-37.965-0.005-72.571,15.058-97.577,39.485C74.514,63.872,58.862,97.94,58.877,135.414v28.431H99.837z"/>
<g>
</g>
<g>
</g>
<g>
</g>
<g>
</g>
<g>
</g>
<g>
</g>
<g>
</g>
<g>
</g>
<g>
</g>
<g>
</g>
<g>
</g>
<g>
</g>
<g>
</g>
<g>
</g>
<g>
</g>
</svg>
