<?xml version="1.0" encoding="iso-8859-1"?>
<!-- Generator: Adobe Illustrator 19.0.0, SVG Export Plug-In . SVG Version: 6.00 Build 0)  -->
<svg version="1.1" id="Capa_1" xmlns="http://www.w3.org/2000/svg" xmlns:xlink="http://www.w3.org/1999/xlink" x="0px" y="0px"
	 viewBox="0 0 512 512" style="enable-background:new 0 0 512 512;" xml:space="preserve">
<path style="fill:#159CE4;" d="M301,15v62.1c0,8.399-6.599,16-15,16h-60c-8.401,0-15-7.601-15-16V15c0-8.401,6.599-15,15-15h60
	C294.401,0,301,6.599,301,15z"/>
<path style="fill:#4DBBEB;" d="M331,15c0,8.399-6.599,15-15,15H196c-8.401,0-15-6.601-15-15c0-8.401,6.599-15,15-15h120
	C324.401,0,331,6.599,331,15z"/>
<path style="fill:#1183D0;" d="M301,15v62.1c0,8.399-6.599,16-15,16h-30V0h30C294.401,0,301,6.599,301,15z"/>
<g>
	<path style="fill:#159CE4;" d="M331,15c0,8.399-6.599,15-15,15h-60V0h60C324.401,0,331,6.599,331,15z"/>
	<path style="fill:#159CE4;" d="M140.834,107.201l-33.018-33.018c-17.549-17.549-46.084-17.549-63.633,0s-17.549,46.084,0,63.633
		l33.018,33.018c5.86,5.86,15.351,5.86,21.211,0l42.422-42.422C146.693,122.553,146.693,113.061,140.834,107.201z"/>
</g>
<path style="fill:#1183D0;" d="M467.816,74.184c-17.549-17.549-46.084-17.549-63.633,0l-33.018,33.018
	c-5.859,5.859-5.859,15.352,0,21.211l42.422,42.422c5.86,5.86,15.351,5.86,21.211,0l33.018-33.018
	C485.365,120.268,485.365,91.732,467.816,74.184z"/>
<path style="fill:#4DBBEB;" d="M256,60C131.8,60,31,161.8,31,286s100.8,226,225,226s225-101.8,225-226S380.2,60,256,60z"/>
<path style="fill:#159CE4;" d="M481,286c0,124.2-100.8,226-225,226V60C380.2,60,481,161.8,481,286z"/>
<path style="fill:#E1E4FB;" d="M256,121c-90.901,0-165,74.099-165,165c0,90.899,74.099,165,165,165s165-74.101,165-165
	C421,195.099,346.901,121,256,121z"/>
<path style="fill:#C5C9F7;" d="M421,286c0,90.899-74.099,165-165,165V121C346.901,121,421,195.099,421,286z"/>
<g>
	<path style="fill:#0A4EAF;" d="M271,136v30c0,8.399-6.599,15-15,15s-15-6.601-15-15v-30c0-8.401,6.599-15,15-15
		S271,127.599,271,136z"/>
	<path style="fill:#0A4EAF;" d="M271,406v30c0,8.399-6.599,15-15,15s-15-6.601-15-15v-30c0-8.401,6.599-15,15-15
		S271,397.599,271,406z"/>
	<path style="fill:#0A4EAF;" d="M136,301h-30c-8.291,0-15-6.709-15-15s6.709-15,15-15h30c8.291,0,15,6.709,15,15
		S144.291,301,136,301z"/>
</g>
<path style="fill:#08469C;" d="M406,301h-30c-8.291,0-15-6.709-15-15s6.709-15,15-15h30c8.291,0,15,6.709,15,15S414.291,301,406,301
	z"/>
<path style="fill:#0A4EAF;" d="M331,286c0,8.399-6.599,15-15,15h-60c-8.401,0-15-6.601-15-15v-60c0-8.401,6.599-15,15-15
	s15,6.599,15,15v45h45C324.401,271,331,277.599,331,286z"/>
<g>
	<path style="fill:#08469C;" d="M271,406v30c0,8.399-6.599,15-15,15v-60C264.401,391,271,397.599,271,406z"/>
	<path style="fill:#08469C;" d="M331,286c0,8.399-6.599,15-15,15h-60v-90c8.401,0,15,6.599,15,15v45h45
		C324.401,271,331,277.599,331,286z"/>
	<path style="fill:#08469C;" d="M271,136v30c0,8.399-6.599,15-15,15v-60C264.401,121,271,127.599,271,136z"/>
</g>
<g>
</g>
<g>
</g>
<g>
</g>
<g>
</g>
<g>
</g>
<g>
</g>
<g>
</g>
<g>
</g>
<g>
</g>
<g>
</g>
<g>
</g>
<g>
</g>
<g>
</g>
<g>
</g>
<g>
</g>
</svg>
