<?xml version="1.0" encoding="iso-8859-1"?>
<!-- Generator: Adobe Illustrator 19.0.0, SVG Export Plug-In . SVG Version: 6.00 Build 0)  -->
<svg version="1.1" id="Capa_1" xmlns="http://www.w3.org/2000/svg" xmlns:xlink="http://www.w3.org/1999/xlink" x="0px" y="0px"
	 viewBox="0 0 512 512" style="enable-background:new 0 0 512 512;" xml:space="preserve">
<path style="fill:#C5C9F7;" d="M372.7,47.999C341.499,17.1,299.801,0,256,0C165.099,0,91,74.099,91,165v62c0,8.401,6.599,15,15,15
	h60c8.401,0,15-6.599,15-15v-62c0-41.4,33.6-75,75-75s75,33.6,75,75v62c0,8.401,6.599,15,15,15h60c8.401,0,15-6.599,15-15v-62
	C421,121.199,403.9,79.501,372.7,47.999z"/>
<path style="fill:#A8AFF1;" d="M421,165v62c0,8.401-6.599,15-15,15h-60c-8.401,0-15-6.599-15-15v-62c0-41.4-33.6-75-75-75V0
	c43.801,0,85.499,17.1,116.7,47.999C403.9,79.501,421,121.199,421,165z"/>
<path style="fill:#FEA832;" d="M406,212H106c-24.901,0-45,20.099-45,45v60c0,107.401,87.599,195,195,195s195-87.599,195-195v-60
	C451,232.099,430.901,212,406,212z"/>
<path style="fill:#FE9923;" d="M451,257v60c0,107.401-87.599,195-195,195V212h150C430.901,212,451,232.099,451,257z"/>
<path style="fill:#0D70B2;" d="M301,317c0,19.501-12.599,36-30,42.299V407c0,8.401-6.599,15-15,15s-15-6.599-15-15v-47.701
	C223.599,353,211,336.501,211,317c0-24.901,20.099-45,45-45S301,292.099,301,317z"/>
<path style="fill:#0059AA;" d="M301,317c0,19.501-12.599,36-30,42.299V407c0,8.401-6.599,15-15,15V272
	C280.901,272,301,292.099,301,317z"/>
<g>
</g>
<g>
</g>
<g>
</g>
<g>
</g>
<g>
</g>
<g>
</g>
<g>
</g>
<g>
</g>
<g>
</g>
<g>
</g>
<g>
</g>
<g>
</g>
<g>
</g>
<g>
</g>
<g>
</g>
</svg>
