<?xml version="1.0" encoding="iso-8859-1"?>
<!-- Generator: Adobe Illustrator 19.0.0, SVG Export Plug-In . SVG Version: 6.00 Build 0)  -->
<svg version="1.1" id="Capa_1" xmlns="http://www.w3.org/2000/svg" xmlns:xlink="http://www.w3.org/1999/xlink" x="0px" y="0px"
	 viewBox="0 0 512.001 512.001" style="enable-background:new 0 0 512.001 512.001;" xml:space="preserve">
<path style="fill:#1DE8F1;" d="M356.149,20.402c-32.401-13.801-66.599-20.4-99.6-20.4c-81.599-0.3-161.601,39.3-210.499,109.799
	l-21.901-16.5c-9.901-7.5-24-0.3-24,12.001v150c0,11.1,11.4,18.3,21.599,13.5l120-60c9.901-5.101,11.4-18.9,2.401-25.501
	l-25.499-19.2c33.3-50.999,87.8-73.2,137.9-73.499c22.8,0,45,4.199,64.501,12.599c61.199,26.1,100.8,85.8,100.8,152.1
	c0,98.699-80.7,166.097-165.3,166.698c-40.8,0.298-84.2-14.702-118.1-48.6c-15-15.3-26.999-32.701-35.4-52.5
	c-9.6-23.101-36-33.602-58.801-24.001c-23.099,9.6-33.6,36-24,59.101c39,92.1,132.201,156,236.301,156
	c138.3,0,255.3-112.999,255.3-256.698C511.849,152.403,450.65,60.303,356.149,20.402z"/>
<path style="fill:#1BD9DE;" d="M511.849,255.303c0,143.699-117.001,256.698-255.3,256.698v-90
	c84.6-0.601,165.3-67.999,165.3-166.698c0-66.301-39.6-126-100.8-152.1c-19.501-8.401-41.7-12.599-64.501-12.599V0.003
	c33.001,0,67.2,6.599,99.6,20.4C450.65,60.303,511.849,152.403,511.849,255.303z"/>
<g>
</g>
<g>
</g>
<g>
</g>
<g>
</g>
<g>
</g>
<g>
</g>
<g>
</g>
<g>
</g>
<g>
</g>
<g>
</g>
<g>
</g>
<g>
</g>
<g>
</g>
<g>
</g>
<g>
</g>
</svg>
