<?xml version="1.0" encoding="iso-8859-1"?>
<!-- Generator: Adobe Illustrator 19.0.0, SVG Export Plug-In . SVG Version: 6.00 Build 0)  -->
<svg version="1.1" id="Capa_1" xmlns="http://www.w3.org/2000/svg" xmlns:xlink="http://www.w3.org/1999/xlink" x="0px" y="0px"
	 viewBox="0 0 512 512" style="enable-background:new 0 0 512 512;" xml:space="preserve">
<path style="fill:#B758CE;" d="M257,0C116.302,0,0,114.3,0,255s116.302,257,257,257s255-116.3,255-257S397.698,0,257,0z"/>
<path style="fill:#AA3DC8;" d="M512,255c0,140.7-114.302,257-255,257V0C397.698,0,512,114.3,512,255z"/>
<path style="fill:#E1E4FB;" d="M257,60C149.598,60,60,147.599,60,255c0,107.399,89.598,197,197,197s195-89.601,195-197
	C452,147.599,364.402,60,257,60z"/>
<path style="fill:#C5C9F7;" d="M257,452c107.402,0,195-89.601,195-197c0-107.401-87.598-195-195-195V452z"/>
<path style="fill:#0D70B2;" d="M392,255c0,8.399-6.599,15-15,15H257c-8.401,0-15-6.601-15-15V135c0-8.401,6.599-15,15-15
	s15,6.599,15,15v105h105C385.401,240,392,246.599,392,255z"/>
<path style="fill:#0059AA;" d="M392,255c0,8.399-6.599,15-15,15H257V120c8.401,0,15,6.599,15,15v105h105
	C385.401,240,392,246.599,392,255z"/>
<g>
</g>
<g>
</g>
<g>
</g>
<g>
</g>
<g>
</g>
<g>
</g>
<g>
</g>
<g>
</g>
<g>
</g>
<g>
</g>
<g>
</g>
<g>
</g>
<g>
</g>
<g>
</g>
<g>
</g>
</svg>
