<?xml version="1.0" encoding="iso-8859-1"?>
<!-- Generator: Adobe Illustrator 19.0.0, SVG Export Plug-In . SVG Version: 6.00 Build 0)  -->
<svg version="1.1" id="Capa_1" xmlns="http://www.w3.org/2000/svg" xmlns:xlink="http://www.w3.org/1999/xlink" x="0px" y="0px"
	 viewBox="0 0 512 512" style="enable-background:new 0 0 512 512;" xml:space="preserve">
<path style="fill:#0D70B2;" d="M241,30v0.731C128.925,38.177,38.203,127.906,30.76,240H30v30h211h30v-30V30H241z"/>
<path style="fill:#FEA832;" d="M256,0c-8.401,0-15,6.599-15,15v225H15c-8.401,0-15,6.599-15,15c0,140.7,115.3,257,256,257
	s256-116.3,256-257S396.7,0,256,0z"/>
<path style="fill:#FE9923;" d="M512,255c0,140.7-115.3,257-256,257V0C396.7,0,512,114.3,512,255z"/>
<path style="fill:#17ACE8;" d="M391,255c0,37.2-15,71.1-39.6,95.4C327.1,375,293.2,390,256,390c-74.7,0-136-60.3-136-135
	c0-37.2,15-71.1,39.6-95.4C183.9,135,218.8,120,256,120s71.1,15,95.4,39.6C376,183.9,391,217.8,391,255z"/>
<path style="fill:#1689FC;" d="M391,255c0,37.2-15,71.1-39.6,95.4C327.1,375,293.2,390,256,390V120c37.2,0,71.1,15,95.4,39.6
	C376,183.9,391,217.8,391,255z"/>
<g>
	<path style="fill:#1DE8F1;" d="M271,105v30c0,8.399-6.599,15-15,15s-15-6.601-15-15v-30c0-8.401,6.599-15,15-15S271,96.599,271,105
		z"/>
	<path style="fill:#1DE8F1;" d="M271,375v30c0,8.399-6.599,15-15,15s-15-6.601-15-15v-30c0-8.401,6.599-15,15-15
		S271,366.599,271,375z"/>
	<path style="fill:#1DE8F1;" d="M135,270h-30c-8.291,0-15-6.709-15-15s6.709-15,15-15h30c8.291,0,15,6.709,15,15
		C150,263.291,143.291,270,135,270z"/>
</g>
<path style="fill:#1BD9DE;" d="M406,270h-30c-8.291,0-15-6.709-15-15s6.709-15,15-15h30c8.291,0,15,6.709,15,15
	C421,263.291,414.291,270,406,270z"/>
<path style="fill:#1DE8F1;" d="M138.325,371.675c-5.859-5.859-5.859-15.352,0-21.211l21.211-21.211
	c5.859-5.859,15.352-5.859,21.211,0s5.859,15.352,0,21.211l-21.211,21.211C153.677,377.534,144.185,377.534,138.325,371.675z"/>
<g>
	<path style="fill:#1BD9DE;" d="M330.253,180.747c-5.859-5.859-5.859-15.352,0-21.211l21.211-21.211
		c5.859-5.859,15.352-5.859,21.211,0s5.859,15.352,0,21.211l-21.211,21.211C345.604,186.607,336.112,186.607,330.253,180.747z"/>
	<path style="fill:#1BD9DE;" d="M351.464,371.675l-21.211-21.211c-5.859-5.859-5.859-15.352,0-21.211s15.352-5.859,21.211,0
		l21.211,21.211c5.859,5.859,5.859,15.352,0,21.211C366.815,377.534,357.323,377.534,351.464,371.675z"/>
</g>
<path style="fill:#1DE8F1;" d="M159.536,180.747l-21.211-21.211c-5.859-5.859-5.859-15.352,0-21.211s15.352-5.859,21.211,0
	l21.211,21.211c5.859,5.859,5.859,15.352,0,21.211C174.888,186.607,165.396,186.607,159.536,180.747z"/>
<g>
	<path style="fill:#1BD9DE;" d="M271,375v30c0,8.399-6.599,15-15,15v-60C264.401,360,271,366.599,271,375z"/>
	<path style="fill:#1BD9DE;" d="M271,105v30c0,8.399-6.599,15-15,15V90C264.401,90,271,96.599,271,105z"/>
</g>
<path style="fill:#E1E4FB;" d="M296.499,295.499c-5.398,6.002-15.6,6.002-20.999,0L256,276l-10.499-10.501
	C242.5,262.8,241,258.9,241,255v-60c0-8.401,6.599-15,15-15s15,6.599,15,15v53.699l25.499,25.8
	C302.5,280.199,302.5,289.799,296.499,295.499z"/>
<path style="fill:#C5C9F7;" d="M296.499,295.499c-5.398,6.002-15.6,6.002-20.999,0L256,276v-96c8.401,0,15,6.599,15,15v53.699
	l25.499,25.8C302.5,280.199,302.5,289.799,296.499,295.499z"/>
<path style="fill:#1DE8F1;" d="M256,90c-90.901,0-166,74.099-166,165c0,90.899,75.099,165,166,165s165-74.101,165-165
	C421,164.099,346.901,90,256,90z M256,390c-74.443,0-136-60.557-136-135s61.557-135,136-135s135,60.557,135,135S330.443,390,256,390
	z"/>
<path style="fill:#1BD9DE;" d="M256,90v30c74.443,0,135,60.557,135,135s-60.557,135-135,135v30c90.901,0,165-74.101,165-165
	C421,164.099,346.901,90,256,90z"/>
<g>
</g>
<g>
</g>
<g>
</g>
<g>
</g>
<g>
</g>
<g>
</g>
<g>
</g>
<g>
</g>
<g>
</g>
<g>
</g>
<g>
</g>
<g>
</g>
<g>
</g>
<g>
</g>
<g>
</g>
</svg>
