<?xml version="1.0" encoding="iso-8859-1"?>
<!-- Generator: Adobe Illustrator 19.0.0, SVG Export Plug-In . SVG Version: 6.00 Build 0)  -->
<svg version="1.1" id="Capa_1" xmlns="http://www.w3.org/2000/svg" xmlns:xlink="http://www.w3.org/1999/xlink" x="0px" y="0px"
	 viewBox="0 0 512 512" style="enable-background:new 0 0 512 512;" xml:space="preserve">
<path style="fill:#F0F4F7;" d="M336,164H176c-8.284,0-15-6.716-15-15V15c0-8.284,6.716-15,15-15h160c8.284,0,15,6.716,15,15v134
	C351,157.284,344.284,164,336,164z"/>
<g>
	<path style="fill:#C6D5DB;" d="M336,0h-80v164h80c8.284,0,15-6.716,15-15V15C351,6.716,344.284,0,336,0z"/>
	<path style="fill:#C6D5DB;" d="M291,512h-70c-8.284,0-15-6.716-15-15V369c0-8.284,6.716-15,15-15h70c8.284,0,15,6.716,15,15v128
		C306,505.284,299.284,512,291,512z"/>
</g>
<path style="fill:#9CB5BF;" d="M291,354h-35v158h35c8.284,0,15-6.716,15-15V369C306,360.716,299.284,354,291,354z"/>
<path style="fill:#4DB6AC;" d="M336,384H176c-24.813,0-45-20.187-45-45V179c0-24.813,20.187-45,45-45h160c24.813,0,45,20.187,45,45
	v160C381,363.813,360.813,384,336,384z"/>
<path style="fill:#C6D5DB;" d="M229,113c-8.284,0-15-6.716-15-15V66c0-8.284,6.716-15,15-15s15,6.716,15,15v32
	C244,106.284,237.284,113,229,113z"/>
<circle style="fill:#FFA726;" cx="256" cy="310" r="15"/>
<path style="fill:#339C91;" d="M336,134h-80v250h80c24.813,0,45-20.187,45-45V179C381,154.187,360.813,134,336,134z"/>
<path style="fill:#9CB5BF;" d="M283,113c-8.284,0-15-6.716-15-15V66c0-8.284,6.716-15,15-15s15,6.716,15,15v32
	C298,106.284,291.284,113,283,113z"/>
<path style="fill:#FA9319;" d="M256,295v30c8.284,0,15-6.716,15-15S264.284,295,256,295z"/>
<g>
</g>
<g>
</g>
<g>
</g>
<g>
</g>
<g>
</g>
<g>
</g>
<g>
</g>
<g>
</g>
<g>
</g>
<g>
</g>
<g>
</g>
<g>
</g>
<g>
</g>
<g>
</g>
<g>
</g>
</svg>
