<?xml version="1.0" encoding="iso-8859-1"?>
<!-- Generator: Adobe Illustrator 19.0.0, SVG Export Plug-In . SVG Version: 6.00 Build 0)  -->
<svg version="1.1" id="Capa_1" xmlns="http://www.w3.org/2000/svg" xmlns:xlink="http://www.w3.org/1999/xlink" x="0px" y="0px"
	 viewBox="0 0 508 508" style="enable-background:new 0 0 508 508;" xml:space="preserve">
<rect x="40.3" style="fill:#F2F2F2;" width="168.7" height="87"/>
<rect x="24.1" y="87" style="fill:#4FBFA8;" width="201.1" height="25.3"/>
<g>
	<path style="fill:#65C5B8;" d="M0,112.3v271.1C0,452.2,55.8,508,124.6,508h0.1c68.8,0,124.6-55.8,124.6-124.6V112.3H0z"/>
	<path style="fill:#65C5B8;" d="M383.4,329.6c-68.8,0-124.6,55.8-124.6,124.6V508H508v-53.8C508,385.4,452.2,329.6,383.4,329.6z"/>
</g>
<g>
	<rect x="69" y="20.9" style="fill:#41596B;" width="29.2" height="45.2"/>
	<rect x="151" y="20.9" style="fill:#41596B;" width="29.2" height="45.2"/>
</g>
<path style="fill:#FFFFFF;" d="M157.2,432.2H92.1c-0.6,0-1.1-0.5-1.1-1.1v-22c0-0.6,0.5-1.1,1.1-1.1h65.1c0.6,0,1.1,0.5,1.1,1.1v22
	C158.3,431.7,157.8,432.2,157.2,432.2z"/>
<rect x="258.7" y="482.7" style="fill:#4FBFA8;" width="249.3" height="25.3"/>
<g>
</g>
<g>
</g>
<g>
</g>
<g>
</g>
<g>
</g>
<g>
</g>
<g>
</g>
<g>
</g>
<g>
</g>
<g>
</g>
<g>
</g>
<g>
</g>
<g>
</g>
<g>
</g>
<g>
</g>
</svg>
