<?xml version="1.0" encoding="iso-8859-1"?>
<!-- Generator: Adobe Illustrator 19.0.0, SVG Export Plug-In . SVG Version: 6.00 Build 0)  -->
<svg version="1.1" id="Capa_1" xmlns="http://www.w3.org/2000/svg" xmlns:xlink="http://www.w3.org/1999/xlink" x="0px" y="0px"
	 viewBox="0 0 512 512" style="enable-background:new 0 0 512 512;" xml:space="preserve">
<path style="fill:#9CD7F2;" d="M407.582,255.529L407.582,255.529L270.611,8.613c-6.37-11.483-22.883-11.483-29.253,0
	l-136.97,246.916l0,0c-51.995,104.759-4.476,213.595,92.907,246.667c16.512,5.919,34.26,9.377,52.884,9.764
	c1.288,0.027,2.58,0.04,3.877,0.04h0.001c0.646,0,1.284-0.024,1.928-0.029c0.644,0.006,1.281,0.029,1.928,0.029h0.001
	c1.297,0,2.588-0.014,3.877-0.04c18.625-0.387,36.372-3.846,52.884-9.764C412.895,468.839,459.317,359.764,407.582,255.529z"/>
<path style="fill:#71C5DB;" d="M189.398,284.336L253.42,9.328c0.885-3.799,2.913-6.862,5.563-9.058
	c-6.633-1.184-13.881,1.592-17.625,8.342L104.388,255.529c-51.995,104.759-4.476,213.595,92.908,246.667
	c16.512,5.918,34.26,9.377,52.884,9.764c1.288,0.027,2.579,0.04,3.877,0.04l0,0c0.646,0,1.284-0.023,1.928-0.029
	c0.644,0.006,1.281,0.029,1.927,0.029h0.001c1.297,0,2.588-0.014,3.877-0.04c18.625-0.387,36.372-3.846,52.884-9.764
	c6.281-2.133,12.348-4.581,18.194-7.312C237.144,482.784,169.063,394.232,189.398,284.336z"/>
<g>
</g>
<g>
</g>
<g>
</g>
<g>
</g>
<g>
</g>
<g>
</g>
<g>
</g>
<g>
</g>
<g>
</g>
<g>
</g>
<g>
</g>
<g>
</g>
<g>
</g>
<g>
</g>
<g>
</g>
</svg>
