<?xml version="1.0" encoding="iso-8859-1"?>
<!-- Generator: Adobe Illustrator 19.0.0, SVG Export Plug-In . SVG Version: 6.00 Build 0)  -->
<svg version="1.1" id="Capa_1" xmlns="http://www.w3.org/2000/svg" xmlns:xlink="http://www.w3.org/1999/xlink" x="0px" y="0px"
	 viewBox="0 0 512 512" style="enable-background:new 0 0 512 512;" xml:space="preserve">
<path id="SVGCleanerId_0" style="fill:#79C6E4;" d="M424.983,267.504L195.725,496.762c-20.317,20.317-53.258,20.317-73.576,0
	L15.238,389.85c-20.317-20.317-20.317-53.258,0-73.576L244.496,87.017c20.317-20.317,53.258-20.317,73.576,0l106.912,106.912
	C445.3,214.246,445.3,247.187,424.983,267.504z"/>
<g>
	<path id="SVGCleanerId_0_1_" style="fill:#79C6E4;" d="M424.983,267.504L195.725,496.762c-20.317,20.317-53.258,20.317-73.576,0
		L15.238,389.85c-20.317-20.317-20.317-53.258,0-73.576L244.496,87.017c20.317-20.317,53.258-20.317,73.576,0l106.912,106.912
		C445.3,214.246,445.3,247.187,424.983,267.504z"/>
</g>
<path style="opacity:0.1;enable-background:new    ;" d="M398.761,241.283L169.504,470.54c-20.317,20.317-53.258,20.317-73.576,0
	l26.222,26.222c20.317,20.317,53.258,20.317,73.576,0l229.258-229.258c20.317-20.318,20.317-53.258,0-73.576l-26.222-26.222
	C419.079,188.024,419.079,220.965,398.761,241.283z"/>
<path style="fill:#FBE096;" d="M236.47,136.523L120.007,252.986c-6.446,6.446-16.898,6.446-23.344,0l-9.068-9.068l139.806-139.807
	l9.068,9.068C242.916,119.625,242.916,130.077,236.47,136.523z"/>
<g style="opacity:0.1;">
	<rect x="153.197" y="176.873" transform="matrix(-0.7071 -0.7071 0.7071 -0.7071 156.1877 433.4406)" width="29.331" height="15"/>
	<rect x="129.558" y="200.53" transform="matrix(-0.7071 -0.7071 0.7071 -0.7071 99.1057 457.1107)" width="29.331" height="15"/>
	<rect x="105.913" y="224.179" transform="matrix(-0.7071 -0.7071 0.7071 -0.7071 42.0171 480.761)" width="29.33" height="15"/>
	<rect x="176.856" y="153.24" transform="matrix(-0.7071 -0.7071 0.7071 -0.7071 213.2864 409.8251)" width="29.33" height="15"/>
	<rect x="200.492" y="129.59" transform="matrix(-0.7071 -0.7071 0.7071 -0.7071 270.3587 386.166)" width="29.331" height="15"/>
</g>
<path style="fill:#FBE096;" d="M375.477,275.53L259.015,391.993c-6.446,6.446-6.446,16.898,0,23.344l9.068,9.068l139.806-139.806
	l-9.068-9.068C392.375,269.084,381.923,269.084,375.477,275.53z"/>
<g style="opacity:0.1;">
	<rect x="312.957" y="336.621" transform="matrix(-0.7071 -0.7071 0.7071 -0.7071 315.9555 819.1148)" width="29.33" height="15"/>
	<rect x="289.291" y="360.271" transform="matrix(-0.7071 -0.7071 0.7071 -0.7071 258.8327 842.7545)" width="29.331" height="15"/>
	<rect x="265.652" y="383.928" transform="matrix(-0.7071 -0.7071 0.7071 -0.7071 201.7508 866.4245)" width="29.331" height="15"/>
	<rect x="336.596" y="312.988" transform="matrix(-0.7071 -0.7071 0.7071 -0.7071 373.0208 795.4869)" width="29.331" height="15"/>
	<rect x="360.252" y="289.338" transform="matrix(-0.7071 -0.7071 0.7071 -0.7071 430.1265 771.8401)" width="29.33" height="15"/>
</g>
<path style="fill:#404B58;" d="M329.357,278.353l-67.521,67.521c-26.43,26.429-69.28,26.429-95.71,0l0,0
	c-26.43-26.43-26.43-69.28,0-95.71l67.521-67.521c26.43-26.43,69.28-26.43,95.71,0l0,0
	C355.787,209.072,355.787,251.923,329.357,278.353z"/>
<path style="fill:#E8E8E8;" d="M421.898,190.843l82.58-82.58c10.03-10.03,10.03-26.293,0-36.323L440.059,7.523
	c-10.03-10.03-26.293-10.03-36.323,0l-82.579,82.58L421.898,190.843z"/>
<g style="opacity:0.1;">
	<path d="M389.295,78.252c-1.92,0-3.839-0.732-5.304-2.197c-2.929-2.929-2.929-7.678,0.001-10.606l13.253-13.252
		c2.929-2.93,7.678-2.929,10.607,0s2.929,7.678-0.001,10.606l-13.253,13.253C393.134,77.52,391.214,78.252,389.295,78.252z"/>
	<path d="M441.247,130.205c-1.92,0-3.839-0.732-5.304-2.197c-2.929-2.929-2.929-7.678,0.001-10.606l13.253-13.252
		c2.928-2.93,7.677-2.929,10.606,0s2.929,7.678-0.001,10.606l-13.253,13.252C445.086,129.472,443.166,130.205,441.247,130.205z"/>
	<rect x="414.383" y="18.873" transform="matrix(-0.7071 -0.7071 0.7071 -0.7071 656.4845 452.1394)" width="15" height="142.469"/>
</g>
<circle style="fill:#E8E8E8;" cx="281.5" cy="230.5" r="37.08"/>
<rect x="367.382" y="59.238" transform="matrix(-0.7071 0.7071 -0.7071 -0.7071 743.5482 -47.0427)" style="opacity:0.1;enable-background:new    ;" width="28.27" height="142.469"/>
<g>
	<path style="fill:#404B58;" d="M77.492,355.037c-1.919,0-3.839-0.732-5.303-2.196c-2.93-2.929-2.93-7.678-0.001-10.607l7.166-7.167
		c2.93-2.929,7.679-2.929,10.606-0.001c2.93,2.929,2.93,7.678,0.001,10.607l-7.166,7.167
		C81.331,354.304,79.411,355.037,77.492,355.037z"/>
	<path style="fill:#404B58;" d="M101.937,407.127L101.937,407.127c-6.681-6.681-6.681-17.512,0-24.193l8.861-8.861
		c1.783-1.783,4.673-1.783,6.455,0l17.738,17.738c1.783,1.783,1.783,4.673,0,6.455l-8.861,8.861
		C119.45,413.808,108.618,413.808,101.937,407.127z"/>
	<path style="fill:#404B58;" d="M161.527,439.072c-1.92,0-3.839-0.733-5.304-2.197c-2.929-2.929-2.929-7.678,0.001-10.607
		l7.167-7.167c2.929-2.929,7.678-2.927,10.606,0c2.929,2.929,2.929,7.678-0.001,10.607l-7.167,7.167
		C165.366,438.34,163.446,439.072,161.527,439.072z"/>
</g>
<g>
</g>
<g>
</g>
<g>
</g>
<g>
</g>
<g>
</g>
<g>
</g>
<g>
</g>
<g>
</g>
<g>
</g>
<g>
</g>
<g>
</g>
<g>
</g>
<g>
</g>
<g>
</g>
<g>
</g>
</svg>
