<?xml version="1.0" encoding="iso-8859-1"?>
<!-- Generator: Adobe Illustrator 19.0.0, SVG Export Plug-In . SVG Version: 6.00 Build 0)  -->
<svg version="1.1" id="Capa_1" xmlns="http://www.w3.org/2000/svg" xmlns:xlink="http://www.w3.org/1999/xlink" x="0px" y="0px"
	 viewBox="0 0 512 512" style="enable-background:new 0 0 512 512;" xml:space="preserve">
<path style="fill:#19DEC1;" d="M256,0C115.3,0,0,115.3,0,256s115.3,256,256,256s256-115.3,256-256S396.7,0,256,0z"/>
<path style="fill:#17CEB4;" d="M512,256c0,140.7-115.3,256-256,256V0C396.7,0,512,115.3,512,256z"/>
<path style="fill:#CAE8F9;" d="M256,61C148.599,61,61,148.599,61,256c0,107.399,87.599,195,195,195s195-87.601,195-195
	C451,148.599,363.401,61,256,61z"/>
<path style="fill:#B7E0F6;" d="M451,256c0,107.399-87.599,195-195,195V61C363.401,61,451,148.599,451,256z"/>
<g>
	<path style="fill:#787780;" d="M271,406v30c0,8.399-6.599,15-15,15s-15-6.601-15-15v-30c0-8.401,6.599-15,15-15
		S271,397.599,271,406z"/>
	<path style="fill:#787780;" d="M271,76v30c0,8.399-6.599,15-15,15s-15-6.601-15-15V76c0-8.401,6.599-15,15-15S271,67.599,271,76z"
		/>
</g>
<path style="fill:#57555C;" d="M436,271h-30c-8.291,0-15-6.709-15-15s6.709-15,15-15h30c8.291,0,15,6.709,15,15
	C451,264.291,444.291,271,436,271z"/>
<g>
	<path style="fill:#787780;" d="M106,271H76c-8.291,0-15-6.709-15-15s6.709-15,15-15h30c8.291,0,15,6.709,15,15
		C121,264.291,114.291,271,106,271z"/>
	<path style="fill:#787780;" d="M356.499,176.499l-90,90C263.8,269.5,259.9,271,256,271h-90c-8.401,0-15-6.601-15-15
		c0-8.401,6.599-15,15-15h83.699l6.301-6.301l79.501-79.2c5.7-5.999,15.298-5.999,20.999,0
		C362.5,161.199,362.5,170.799,356.499,176.499z"/>
</g>
<g>
	<path style="fill:#57555C;" d="M356.499,176.499l-90,90C263.8,269.5,259.9,271,256,271v-36.301l79.501-79.2
		c5.7-5.999,15.298-5.999,20.999,0C362.5,161.199,362.5,170.799,356.499,176.499z"/>
	<path style="fill:#57555C;" d="M271,76v30c0,8.399-6.599,15-15,15V61C264.401,61,271,67.599,271,76z"/>
	<path style="fill:#57555C;" d="M271,406v30c0,8.399-6.599,15-15,15v-60C264.401,391,271,397.599,271,406z"/>
</g>
<g>
</g>
<g>
</g>
<g>
</g>
<g>
</g>
<g>
</g>
<g>
</g>
<g>
</g>
<g>
</g>
<g>
</g>
<g>
</g>
<g>
</g>
<g>
</g>
<g>
</g>
<g>
</g>
<g>
</g>
</svg>
