<?xml version="1.0" encoding="iso-8859-1"?>
<!-- Generator: Adobe Illustrator 19.0.0, SVG Export Plug-In . SVG Version: 6.00 Build 0)  -->
<svg version="1.1" id="Capa_1" xmlns="http://www.w3.org/2000/svg" xmlns:xlink="http://www.w3.org/1999/xlink" x="0px" y="0px"
	 viewBox="0 0 512 512" style="enable-background:new 0 0 512 512;" xml:space="preserve">
<path style="fill:#445258;" d="M276.115,435.745h-40.23v68.199c0,4.449,3.607,8.056,8.056,8.056h24.117
	c4.449,0,8.056-3.607,8.056-8.056v-68.199H276.115z"/>
<path style="opacity:0.1;enable-background:new    ;" d="M235.885,435.745v36.293c1.188,0.047,2.376,0.09,3.575,0.09h33.079
	c1.199,0,2.388-0.043,3.576-0.09v-36.293H235.885z"/>
<path style="fill:#445258;" d="M62.199,185.531v-79.735C62.199,47.366,109.566,0,167.995,0h176.01
	c58.429,0,105.796,47.366,105.796,105.796v79.735c0,58.429-47.366,105.796-105.796,105.796h-176.01
	C109.566,291.327,62.199,243.961,62.199,185.531z"/>
<path style="fill:#E5E5E5;" d="M334.919,34.041H177.081c-42.695,0-77.306,34.611-77.306,77.306v68.635
	c0,42.695,34.611,77.306,77.306,77.306h157.838c42.695,0,77.306-34.611,77.306-77.306v-68.635
	C412.225,68.651,377.614,34.041,334.919,34.041z"/>
<path style="opacity:0.1;enable-background:new    ;" d="M112.143,179.981v-68.635c0-42.695,34.611-77.306,77.306-77.306h-12.368
	c-42.695,0-77.306,34.611-77.306,77.306v68.635c0,42.695,34.611,77.306,77.306,77.306h12.368
	C146.754,257.287,112.143,222.676,112.143,179.981z"/>
<g>
	<path style="fill:#445258;" d="M256,146.403L256,146.403c-16.66,0-30.165,13.505-30.165,30.165v14.869
		c0,4.935,4.001,8.935,8.936,8.935h42.46c4.935,0,8.935-4,8.935-8.935v-14.869C286.165,159.908,272.66,146.403,256,146.403z"/>
	<path style="fill:#445258;" d="M192.367,142.459c-9.652,0-17.476-7.825-17.476-17.476V98.715c0-9.652,7.825-17.477,17.476-17.477
		c9.652,0,17.477,7.825,17.477,17.477v26.268C209.844,134.635,202.019,142.459,192.367,142.459z"/>
	<path style="fill:#445258;" d="M319.633,142.459c-9.652,0-17.477-7.825-17.477-17.476V98.715c0-9.652,7.825-17.477,17.477-17.477
		c9.652,0,17.476,7.825,17.476,17.477v26.268C337.109,134.635,329.285,142.459,319.633,142.459z"/>
</g>
<g>
	<path style="fill:#FDBA6D;" d="M192.367,343.227c-9.652,0-17.476-7.825-17.476-17.477v-73.62c0-9.652,7.825-17.477,17.476-17.477
		c9.652,0,17.477,7.825,17.477,17.477v73.62C209.844,335.402,202.019,343.227,192.367,343.227z"/>
	<path style="fill:#FDBA6D;" d="M319.633,343.227c-9.652,0-17.477-7.825-17.477-17.477v-73.62c0-9.652,7.825-17.477,17.477-17.477
		c9.652,0,17.476,7.825,17.476,17.477v73.62C337.109,335.402,329.285,343.227,319.633,343.227z"/>
</g>
<path style="fill:#E5E5E5;" d="M272.539,456.879H239.46c-48.606,0-88.009-39.403-88.009-88.009v-25.663
	c0-9.641,7.816-17.457,17.457-17.457h174.184c9.641,0,17.457,7.816,17.457,17.457v25.663
	C360.549,417.476,321.146,456.879,272.539,456.879z"/>
<path style="opacity:0.1;enable-background:new    ;" d="M343.092,325.75h-19.046c9.641,0,17.457,7.816,17.457,17.457v25.663
	c0,48.606-39.403,88.009-88.009,88.009h19.046c48.606,0,88.009-39.403,88.009-88.009v-25.663
	C360.549,333.566,352.733,325.75,343.092,325.75z"/>
<g style="opacity:0.1;">
	<path d="M295.74,378.34h-79.48c-4.142,0-7.5-3.357-7.5-7.5s3.358-7.5,7.5-7.5h79.48c4.142,0,7.5,3.357,7.5,7.5
		C303.24,374.982,299.882,378.34,295.74,378.34z"/>
	<path d="M280.136,414.064h-48.271c-4.142,0-7.5-3.358-7.5-7.5c0-4.143,3.358-7.5,7.5-7.5h48.271c4.142,0,7.5,3.357,7.5,7.5
		S284.278,414.064,280.136,414.064z"/>
</g>
<rect x="174.89" y="310.64" style="opacity:0.1;enable-background:new    ;" width="34.953" height="15.11"/>
<rect x="302.16" y="310.64" style="opacity:0.1;enable-background:new    ;" width="34.953" height="15.11"/>
<g>
</g>
<g>
</g>
<g>
</g>
<g>
</g>
<g>
</g>
<g>
</g>
<g>
</g>
<g>
</g>
<g>
</g>
<g>
</g>
<g>
</g>
<g>
</g>
<g>
</g>
<g>
</g>
<g>
</g>
</svg>
