<?xml version="1.0" encoding="iso-8859-1"?>
<!-- Generator: Adobe Illustrator 19.0.0, SVG Export Plug-In . SVG Version: 6.00 Build 0)  -->
<svg version="1.1" id="Capa_1" xmlns="http://www.w3.org/2000/svg" xmlns:xlink="http://www.w3.org/1999/xlink" x="0px" y="0px"
	 viewBox="0 0 512 512" style="enable-background:new 0 0 512 512;" xml:space="preserve">
<g>
	<path style="fill:#D1F4FF;" d="M181.669,383.742c-1.427,0-2.871-0.371-4.194-1.145c-29.468-17.403-73.048-33.266-104.411-43.516
		c-4.339-1.411-6.702-6.073-5.282-10.411c1.411-4.339,6.048-6.726,10.411-5.282c32.145,10.5,76.927,26.823,107.685,44.984
		c3.927,2.323,5.226,7.387,2.911,11.315C187.25,382.29,184.492,383.742,181.669,383.742z"/>
	<path style="fill:#D1F4FF;" d="M42.427,329.218c-0.758,0-1.54-0.105-2.315-0.331c-9.548-2.782-15.355-4.339-15.403-4.355
		c-4.411-1.177-7.024-5.702-5.847-10.105c1.177-4.411,5.758-7.016,10.105-5.847c0,0,5.96,1.589,15.774,4.452
		c4.379,1.274,6.887,5.863,5.613,10.242C49.306,326.879,46.008,329.218,42.427,329.218z"/>
	<path style="fill:#D1F4FF;" d="M75.629,189.024c-3.476,0-6.71-2.21-7.847-5.694c-1.419-4.339,0.944-9,5.282-10.411
		c31.363-10.25,74.944-26.113,104.411-43.516c3.944-2.306,9-1.008,11.315,2.911c2.315,3.927,1.016,8.992-2.911,11.315
		c-30.758,18.161-75.54,34.484-107.685,44.984C77.339,188.895,76.476,189.024,75.629,189.024z"/>
	<path style="fill:#D1F4FF;" d="M26.831,203.702c-3.645,0-6.984-2.435-7.968-6.129c-1.177-4.403,1.435-8.927,5.847-10.105
		c0.048-0.016,5.855-1.573,15.403-4.355c4.419-1.306,8.976,1.242,10.242,5.613c1.274,4.379-1.234,8.968-5.613,10.242
		c-9.815,2.863-15.774,4.452-15.774,4.452C28.258,203.613,27.54,203.702,26.831,203.702z"/>
	<path style="fill:#D1F4FF;" d="M400.018,132.729c-9.656-24.515-33.494-41.891-61.438-41.891c-6.16,0-12.098,0.907-17.755,2.484
		c-18.573-18.935-45.339-29.804-74.588-26.747c-33.14,3.464-61.809,25.922-74.36,56.789c-8.394,20.642-8.212,40.196-3.341,57.794
		c-57.05,23.938-133.645,42.237-159.548,48.086C3.714,230.436,0,235.109,0,240.516v30.968c0,5.407,3.714,10.08,8.988,11.271
		c25.903,5.849,102.498,24.148,159.548,48.086c-4.871,17.598-5.053,37.152,3.341,57.794c12.551,30.867,41.219,53.325,74.36,56.789
		c29.249,3.057,56.015-7.811,74.588-26.747c5.657,1.577,11.595,2.484,17.755,2.484c27.944,0,51.781-17.376,61.438-41.891
		C462.848,373.283,512,320.399,512,256C512,191.602,462.848,138.717,400.018,132.729z"/>
</g>
<path style="fill:#B2EDFF;" d="M500.756,307.32c-2.746,5.271-6.063,10.041-10.216,14.172c-16.5,16.427-46.411,24.75-88.944,24.75
	c-0.524,0-1.073-0.016-1.581,0c-13.565,0-25.758,8.298-30.734,20.927c-6.073,15.419-22.282,24.5-39.581,19.694
	c-11.091-3.125-23.004-0.175-31.403,7.655c-6.675,6.223-13.813,12.144-22.461,15.058c-40.196,13.544-77.644-16.182-77.644-54.479
	c0-5.209,0.786-10.599,2.332-16.01c4.487-15.706-4.124-32.375-19.186-38.697C134.061,280.546,52.142,259.517,0,247.097v24.387
	c0,5.407,3.714,10.08,8.988,11.271c25.903,5.849,102.498,24.148,159.548,48.086c-4.871,17.598-5.053,37.152,3.341,57.794
	c12.551,30.867,41.219,53.325,74.36,56.789c29.249,3.057,56.015-7.811,74.588-26.747c5.657,1.577,11.595,2.484,17.755,2.484
	c27.944,0,51.781-17.376,61.438-41.891C444.962,374.987,482.794,346.645,500.756,307.32z"/>
<g>
</g>
<g>
</g>
<g>
</g>
<g>
</g>
<g>
</g>
<g>
</g>
<g>
</g>
<g>
</g>
<g>
</g>
<g>
</g>
<g>
</g>
<g>
</g>
<g>
</g>
<g>
</g>
<g>
</g>
</svg>
