<?xml version="1.0" encoding="iso-8859-1"?>
<!-- Generator: Adobe Illustrator 19.0.0, SVG Export Plug-In . SVG Version: 6.00 Build 0)  -->
<svg version="1.1" id="Capa_1" xmlns="http://www.w3.org/2000/svg" xmlns:xlink="http://www.w3.org/1999/xlink" x="0px" y="0px"
	 viewBox="0 0 512 512" style="enable-background:new 0 0 512 512;" xml:space="preserve">
<g>
	<path style="fill:#EFEFEF;" d="M112.684,512c-4.204,0-7.612-3.408-7.612-7.612v-91.579c0-4.204,3.408-7.612,7.612-7.612
		s7.612,3.408,7.612,7.612v91.579C120.296,508.592,116.888,512,112.684,512z"/>
	<path style="fill:#EFEFEF;" d="M399.316,512c-4.204,0-7.612-3.408-7.612-7.612v-91.579c0-4.204,3.408-7.612,7.612-7.612
		s7.612,3.408,7.612,7.612v91.579C406.928,508.592,403.52,512,399.316,512z"/>
</g>
<path style="fill:#CCCCCC;" d="M98.983,375.693c0,10.081,0,34.989,0,45.164c0,7.567,6.134,13.702,13.702,13.702
	c7.567,0,13.702-6.134,13.702-13.702c0-11.963,0-37.486,0-45.164H98.983z"/>
<path style="fill:#BABABA;" d="M112.684,420.857c0-11.963,0-37.486,0-45.164H98.983c0,10.081,0,34.989,0,45.164
	c0,10.614,11.517,17.088,20.552,11.854C115.444,430.341,112.684,425.926,112.684,420.857z"/>
<path style="fill:#CCCCCC;" d="M385.614,375.693c0,11.963,0,37.486,0,45.164c0,7.567,6.134,13.702,13.702,13.702
	c7.567,0,13.702-6.134,13.702-13.702c0-8.408,0-33.383,0-45.164H385.614z"/>
<path style="fill:#BABABA;" d="M399.316,420.857c0-11.963,0-37.486,0-45.164h-13.702c0,11.963,0,37.486,0,45.164
	c0,10.614,11.517,17.088,20.552,11.854C402.075,430.341,399.316,425.926,399.316,420.857z"/>
<path style="fill:#EFEFEF;" d="M90.017,143.09v3.906v6.751v3.906c0,26.93,0,189.057,0,216.518c0,6.699,5.481,12.179,12.179,12.179
	h20.976c6.699,0,12.179-5.481,12.179-12.179v-10.657c0-6.772,0-178.052,0-190.811v-10.657
	C118.258,160.208,102.656,153.399,90.017,143.09z"/>
<path style="fill:#DDDDDD;" d="M112.684,374.17c0-8.776,0-207.437,0-216.518v-1.237c-8.254-3.288-15.89-7.797-22.667-13.325v3.906
	v6.751v3.906c0,26.93,0,189.057,0,216.518c0,6.699,5.481,12.179,12.179,12.179c22.836-0.025,20.588,0.044,21.821-0.043
	C117.711,385.867,112.684,380.584,112.684,374.17z"/>
<path style="fill:#EFEFEF;" d="M376.649,162.046c0,25.971,0,186.549,0,212.125c0,6.699,5.48,12.179,12.179,12.179h20.976
	c6.699,0,12.179-5.481,12.179-12.179c0-33.77,0-199.778,0-231.081C409.344,153.399,393.743,160.208,376.649,162.046z"/>
<path style="fill:#DDDDDD;" d="M399.316,374.17c0-67.521,0-148.399,0-217.755c-7.139,2.844-14.739,4.778-22.667,5.631
	c0,25.971,0,186.549,0,212.125c0,6.699,5.48,12.179,12.179,12.179h20.976c0.285,0,0.565-0.023,0.846-0.043
	C404.343,385.867,399.316,380.584,399.316,374.17z"/>
<path style="fill:#EFEFEF;" d="M144.714,0C96.883,0,58.107,38.775,58.107,86.607s38.775,86.607,86.607,86.607
	c36.666,0,73.376-22.786,88.518-54.969V54.969C218.091,22.786,181.38,0,144.714,0z"/>
<path style="fill:#DDDDDD;" d="M213.252,144.449c-41.507,23.77-94.425,9.391-118.195-32.117
	C75.051,77.397,82.074,34.385,109.545,7.465c-30.3,13.486-51.438,43.836-51.438,79.142c0,47.832,38.775,86.607,86.607,86.607
	c26.304,0,52.628-11.728,70.998-30.238C214.899,143.478,214.082,143.974,213.252,144.449z"/>
<path style="fill:#EFEFEF;" d="M367.286,0c-36.666,0-73.376,22.786-88.518,54.969v63.276c15.142,32.183,51.852,54.969,88.518,54.969
	c47.832,0,86.607-38.775,86.607-86.607S415.117,0,367.286,0z"/>
<path style="fill:#DDDDDD;" d="M314.914,114.752c-20.911-36.219-12.686-81.263,17.4-107.996
	c-23.247,9.038-43.319,26.475-53.547,48.213v63.276c24.118,51.262,99.412,76.395,147.412,31.84
	C385.971,168.681,337.495,153.864,314.914,114.752z"/>
<path style="fill:#666666;" d="M222.472,123.483c-7.567,0-13.702-6.134-13.702-13.702V63.433c0-7.567,6.134-13.702,13.702-13.702
	c7.567,0,13.702,6.134,13.702,13.702v46.349C236.173,117.349,230.039,123.483,222.472,123.483z"/>
<path style="fill:#535454;" d="M222.472,93.035c-7.567,0-13.702-6.134-13.702-13.702v30.448c0,7.567,6.134,13.702,13.702,13.702
	c7.567,0,13.702-6.134,13.702-13.702V79.333C236.173,86.901,230.039,93.035,222.472,93.035z"/>
<g>
	<path style="fill:#666666;" d="M123.341,94.219H90.017c-4.204,0-7.612-3.408-7.612-7.612s3.408-7.612,7.612-7.612h33.324
		c4.204,0,7.612,3.408,7.612,7.612S127.545,94.219,123.341,94.219z"/>
	<path style="fill:#666666;" d="M181.36,94.222c-0.498,0-0.995-0.051-1.482-0.153c-0.488-0.101-0.964-0.243-1.431-0.436
		c-0.457-0.192-0.903-0.426-1.309-0.7c-0.416-0.275-0.812-0.589-1.157-0.945c-1.421-1.42-2.233-3.38-2.233-5.379
		c0-0.498,0.051-0.995,0.152-1.492c0.091-0.488,0.243-0.964,0.426-1.421c0.193-0.457,0.426-0.903,0.7-1.319
		c0.284-0.416,0.599-0.802,0.954-1.157c0.345-0.346,0.741-0.67,1.157-0.945c0.406-0.274,0.852-0.507,1.309-0.7
		c0.467-0.193,0.944-0.335,1.431-0.437c2.476-0.497,5.094,0.315,6.861,2.081c0.355,0.355,0.67,0.74,0.954,1.157
		c0.274,0.416,0.507,0.862,0.7,1.319c0.183,0.457,0.335,0.934,0.426,1.421c0.102,0.487,0.153,0.994,0.153,1.492
		c0,0.498-0.051,0.995-0.153,1.482c-0.091,0.488-0.243,0.964-0.426,1.431c-0.193,0.457-0.426,0.893-0.7,1.309
		c-0.284,0.416-0.599,0.802-0.954,1.157C185.328,93.41,183.37,94.222,181.36,94.222z"/>
	<path style="fill:#666666;" d="M421.983,94.219h-33.324c-4.204,0-7.612-3.408-7.612-7.612s3.408-7.612,7.612-7.612h33.324
		c4.204,0,7.612,3.408,7.612,7.612S426.187,94.219,421.983,94.219z"/>
	<path style="fill:#666666;" d="M330.636,94.222c-0.497,0-0.995-0.051-1.482-0.153c-0.487-0.101-0.964-0.243-1.431-0.436
		c-0.457-0.192-0.894-0.426-1.309-0.7c-0.416-0.275-0.812-0.589-1.157-0.945c-1.421-1.42-2.233-3.38-2.233-5.379
		c0-0.498,0.051-0.995,0.153-1.492c0.101-0.488,0.243-0.964,0.436-1.421s0.426-0.903,0.7-1.319c0.274-0.416,0.589-0.802,0.944-1.157
		c0.345-0.346,0.741-0.67,1.157-0.945c0.416-0.274,0.852-0.507,1.309-0.7c0.467-0.193,0.944-0.335,1.431-0.437
		c2.466-0.497,5.105,0.315,6.871,2.081c0.345,0.355,0.66,0.74,0.944,1.157c0.274,0.416,0.507,0.862,0.7,1.319
		c0.193,0.457,0.335,0.934,0.437,1.421c0.091,0.497,0.142,0.994,0.142,1.492c0,1.999-0.812,3.959-2.223,5.379
		C334.604,93.41,332.645,94.222,330.636,94.222z"/>
	<path style="fill:#666666;" d="M289.529,123.483c-7.567,0-13.702-6.134-13.702-13.702V63.433c0-7.567,6.134-13.702,13.702-13.702
		c7.567,0,13.702,6.134,13.702,13.702v46.349C303.23,117.349,297.096,123.483,289.529,123.483z"/>
</g>
<path style="fill:#535454;" d="M289.529,93.035c-7.568,0-13.702-6.134-13.702-13.702v30.448c0,7.567,6.134,13.702,13.702,13.702
	c7.567,0,13.702-6.134,13.702-13.702V79.333C303.23,86.901,297.096,93.035,289.529,93.035z"/>
<g>
</g>
<g>
</g>
<g>
</g>
<g>
</g>
<g>
</g>
<g>
</g>
<g>
</g>
<g>
</g>
<g>
</g>
<g>
</g>
<g>
</g>
<g>
</g>
<g>
</g>
<g>
</g>
<g>
</g>
</svg>
