<?xml version="1.0" encoding="iso-8859-1"?>
<!-- Generator: Adobe Illustrator 19.0.0, SVG Export Plug-In . SVG Version: 6.00 Build 0)  -->
<svg version="1.1" id="Capa_1" xmlns="http://www.w3.org/2000/svg" xmlns:xlink="http://www.w3.org/1999/xlink" x="0px" y="0px"
	 viewBox="0 0 512.001 512.001" style="enable-background:new 0 0 512.001 512.001;" xml:space="preserve">
<path style="fill:#CCCCCC;" d="M439.527,498.506v-16.225h64.541v16.225c0,7.14-5.841,12.98-12.98,12.98h-38.58
	C445.368,511.486,439.527,505.644,439.527,498.506z"/>
<path style="fill:#BABABA;" d="M470.434,498.506v-16.225h-30.908v16.225c0,7.14,5.841,12.98,12.98,12.98h30.908
	C476.275,511.486,470.434,505.644,470.434,498.506z"/>
<path style="fill:#CCCCCC;" d="M7.933,498.506v-16.225h64.541v16.225c0,7.14-5.841,12.98-12.98,12.98H20.913
	C13.773,511.486,7.933,505.644,7.933,498.506z"/>
<path style="fill:#BABABA;" d="M38.84,498.506v-16.225H7.933v16.225c0,7.14,5.841,12.98,12.98,12.98h30.908
	C44.681,511.486,38.84,505.644,38.84,498.506z"/>
<g>
	<path style="fill:#EFEFEF;" d="M461.81,30.911c-16.965-16.965-42.448-30.396-73.843-30.396
		c-72.113,0-104.802,60.755-104.802,60.755c0,85.983,0,80.153,0,80.406c0,0,32.689,60.755,104.802,60.755
		c17.007,0,31.605-4.616,43.988-11.665c0,13.136,0,263.713,0,284.541c0,4.42,3.583,8.003,8.003,8.003h64.209
		c4.326,0,7.834-3.507,7.834-7.834c0-10.887,0-297.965,0-310.724C512,164.753,512.436,76.053,461.81,30.911z"/>
	<path style="fill:#EFEFEF;" d="M228.836,61.27c0,0-32.689-60.755-104.802-60.755c-31.395,0-56.878,13.431-73.843,30.396
		C-0.436,76.053,0,164.753,0,164.753c0,12.826,0,299.834,0,310.724c0,4.326,3.507,7.834,7.834,7.834h64.209
		c4.42,0,8.003-3.583,8.003-8.003c0-15.643,0-246.818,0-262.42v-22.121c12.383,7.05,26.982,11.665,43.988,11.665
		c72.113,0,104.802-60.755,104.802-60.755C228.836,141.426,228.836,147.236,228.836,61.27z"/>
</g>
<path style="fill:#DDDDDD;" d="M30.908,475.476c0-10.887,0-297.965,0-310.724c0,0-0.436-88.698,50.19-133.841
	c14.196-14.196,34.362-25.913,58.961-29.36C104.183-3.157,72.511,8.59,50.19,30.911C-0.436,76.053,0,164.753,0,164.753
	c0,12.826,0,299.834,0,310.724c0,4.326,3.507,7.834,7.834,7.834h30.908C34.415,483.31,30.908,479.803,30.908,475.476z"/>
<path style="fill:#EFEFEF;" d="M228.833,61.37c-8.646-10.834-26.016-4.684-26.016,9.504v61.201c0,14.193,17.376,20.331,26.016,9.504
	l0.003,0.1"/>
<path style="fill:#CCCCCC;" d="M431.912,190.79c-0.018-0.104,0.42-27.15-17.622-37.359c-3.715-2.102-8.429-0.794-10.531,2.92
	c-2.102,3.715-0.793,8.429,2.92,10.53c11.451,6.479,9.756,30.553,9.779,30.881C421.95,195.888,427.1,193.526,431.912,190.79z"/>
<g>
	<path style="fill:#666666;" d="M462.884,90.083c-8.398-18.362-16.359-26.28-24.567-34.456c-2.742-2.741-5.725-5.316-8.868-7.653
		c-3.425-2.546-4.137-7.386-1.591-10.81c2.546-3.425,7.387-4.139,10.811-1.591c17.549,13.043,29.682,29.309,38.269,48.08
		c1.775,3.881,0.069,8.466-3.812,10.241C469.277,95.657,464.674,93.995,462.884,90.083z"/>
	<circle style="fill:#666666;" cx="352.989" cy="101.476" r="14.603"/>
	<path style="fill:#666666;" d="M475.58,161.661c-0.795-3.809,1.526-8.117,6.058-9.087c8.318-1.625,12.763,9.369,5.8,14.012
		C482.864,169.668,476.574,166.976,475.58,161.661z"/>
	<path style="fill:#666666;" d="M217.42,147.085c8.065,0,14.603-6.538,14.603-14.603V70.465c0-8.065-6.538-14.603-14.603-14.603
		c-8.065,0-14.603,6.538-14.603,14.603v62.018C202.817,140.547,209.355,147.085,217.42,147.085z"/>
</g>
<path style="fill:#535454;" d="M217.42,107.967c-8.065,0-14.603-6.538-14.603-14.603v39.118c0,8.065,6.538,14.603,14.603,14.603
	s14.603-6.538,14.603-14.603V93.363C232.022,101.429,225.485,107.967,217.42,107.967z"/>
<path style="fill:#CCCCCC;" d="M97.681,153.43c-18.04,10.207-17.543,37.08-17.623,37.342c4.811,2.738,9.962,5.103,15.454,6.978
	v-6.984c0-4.76,1.796-19.368,9.78-23.886c3.714-2.101,5.022-6.815,2.92-10.53C106.11,152.637,101.398,151.33,97.681,153.43z"/>
<g>
	<path style="fill:#666666;" d="M38.876,93.894c-3.881-1.774-5.588-6.359-3.812-10.241c8.612-18.826,20.758-35.066,38.269-48.08
		c3.425-2.548,8.264-1.834,10.811,1.591c2.546,3.425,1.833,8.265-1.591,10.81c-3.142,2.336-6.126,4.911-8.868,7.653
		c-9.082,9.037-16.394,16.588-24.567,34.456C47.819,92.921,42.744,95.666,38.876,93.894z"/>
	<circle style="fill:#666666;" cx="159.01" cy="101.476" r="14.603"/>
	<path style="fill:#666666;" d="M21.118,160.157c0-6.723,8.145-10.39,13.197-5.47c3.156,3.246,2.859,8.073,0,10.93
		C30.857,169.08,21.118,167.188,21.118,160.157z"/>
</g>
<path style="fill:#CCCCCC;" d="M54.111,464.47H26.295c-4.267,0-7.726-3.459-7.726-7.726c0-4.268,3.459-7.726,7.726-7.726h27.816
	c4.267,0,7.726,3.459,7.726,7.726C61.838,461.011,58.378,464.47,54.111,464.47z"/>
<g>
	<path style="fill:#DDDDDD;" d="M403.54,1.653c-5.011-0.737-10.203-1.138-15.573-1.138c-72.113,0-104.802,60.755-104.802,60.755
		c0,85.983,0,80.153,0,80.406c0,0,32.689,60.755,104.802,60.755c5.207,0,10.183-0.437,14.944-1.24
		c-47.671-7.59-83.739-49.453-83.739-99.073v-1.29C319.172,50.99,355.556,8.973,403.54,1.653z"/>
	<path style="fill:#DDDDDD;" d="M463.022,475.308c0-35.042,0-245.211,0-284.542c0-44.201-48.733-37.336-48.733-37.336
		c12.367,6.998,17.622,23.952,17.622,37.336v0.023c0.014-0.008,0.029-0.015,0.043-0.023c0,16.768,0,267.851,0,284.542
		c0,4.42,3.583,8.003,8.003,8.003h31.066C466.605,483.31,463.022,479.728,463.022,475.308z"/>
</g>
<path style="fill:#666666;" d="M294.58,147.085c-8.065,0-14.603-6.538-14.603-14.603V70.465c0-8.065,6.538-14.603,14.603-14.603
	s14.603,6.538,14.603,14.603v62.018C309.183,140.547,302.645,147.085,294.58,147.085z"/>
<path style="fill:#535454;" d="M294.58,107.967c-8.065,0-14.603-6.538-14.603-14.603v39.118c0,8.065,6.538,14.603,14.603,14.603
	s14.603-6.538,14.603-14.603V93.363C309.183,101.429,302.645,107.967,294.58,107.967z"/>
<path style="fill:#CCCCCC;" d="M485.706,464.47h-27.817c-4.267,0-7.726-3.459-7.726-7.726c0-4.268,3.459-7.726,7.726-7.726h27.817
	c4.267,0,7.726,3.459,7.726,7.726S489.974,464.47,485.706,464.47z"/>
<g>
</g>
<g>
</g>
<g>
</g>
<g>
</g>
<g>
</g>
<g>
</g>
<g>
</g>
<g>
</g>
<g>
</g>
<g>
</g>
<g>
</g>
<g>
</g>
<g>
</g>
<g>
</g>
<g>
</g>
</svg>
