<?xml version="1.0" encoding="iso-8859-1"?>
<!-- Generator: Adobe Illustrator 19.0.0, SVG Export Plug-In . SVG Version: 6.00 Build 0)  -->
<svg version="1.1" id="Capa_1" xmlns="http://www.w3.org/2000/svg" xmlns:xlink="http://www.w3.org/1999/xlink" x="0px" y="0px"
	 viewBox="0 0 512 512" style="enable-background:new 0 0 512 512;" xml:space="preserve">
<path style="fill:#FD003A;" d="M257,0C116.302,0,0,114.3,0,255s116.302,257,257,257s255-116.3,255-257S397.698,0,257,0z"/>
<path style="fill:#E50027;" d="M512,255c0,140.7-114.302,257-255,257V0C397.698,0,512,114.3,512,255z"/>
<path style="fill:#CAE8F9;" d="M437,255c0,99.3-80.698,182-180,182S75,354.3,75,255S157.698,75,257,75S437,155.7,437,255z"/>
<path style="fill:#B7E0F6;" d="M437,255c0,99.3-80.698,182-180,182V75C356.302,75,437,155.7,437,255z"/>
<path style="fill:#1689FC;" d="M306.501,327.499L257,276l-10.499-10.501c-6.002-5.7-6.002-15.3,0-21l60-60
	c13.799-14.099,35.101,6.901,20.999,21L278.299,255l49.2,51.499C341.902,320.6,319.999,341.3,306.501,327.499z"/>
<path style="fill:#81C8EE;" d="M257,60C149.898,60,60,146.999,60,255c0,107.1,89.001,197,197,197c107.102,0,195-89.001,195-197
	C452,147.9,364.999,60,257,60z M383.599,362.599L373.7,352.4c-14.103-13.801-35.402,7.2-21.302,21.301l10.203,9.899
	c-25.203,21-56.4,34.501-90.601,37.5V407c0-9.901-7.5-15-15-15s-15,5.099-15,15v14.099c-34.2-2.999-67.398-16.5-92.601-37.5
	l10.203-9.899c13.799-14.101-7.2-35.402-21.302-21.301l-9.899,10.199C107.402,337.4,93.9,304.2,90.901,270H105
	c19.797,0,19.797-30,0-30H90.901c2.999-34.2,16.501-65.4,37.5-90.601L138.3,159.6c14.103,13.799,35.402-7.202,21.302-21.301
	l-10.203-9.901C174.602,107.401,207.8,93.9,242,90.901V105c0,9.901,7.5,15,15,15s15-5.099,15-15V90.901
	c34.2,2.999,65.398,16.5,90.601,37.498l-10.203,9.901c-14.099,14.099,7.5,35.099,21.302,21.301l9.899-10.201
	c20.999,25.201,34.501,56.4,37.5,90.601H407c-19.797,0-19.797,30,0,30h14.099C418.1,304.2,404.598,337.4,383.599,362.599z"/>
<path style="fill:#136EF1;" d="M306.501,327.499L257,276v-42l49.501-49.501c13.799-14.099,35.101,6.901,20.999,21L278.299,255
	l49.2,51.499C341.902,320.6,319.999,341.3,306.501,327.499z"/>
<path style="fill:#4DBBEC;" d="M452,255c0,107.999-87.898,197-195,197v-60c7.5,0,15,5.099,15,15v14.099
	c34.2-2.999,65.398-16.5,90.601-37.5l-10.203-9.899c-14.099-14.101,7.2-35.101,21.302-21.301l9.899,10.199
	C404.598,337.4,418.1,304.2,421.099,270H407c-19.797,0-19.797-30,0-30h14.099c-2.999-34.2-16.501-65.4-37.5-90.601L373.7,159.6
	c-13.802,13.799-35.402-7.202-21.302-21.301l10.203-9.901C337.398,107.401,306.2,93.9,272,90.901V105c0,9.901-7.5,15-15,15V60
	C364.999,60,452,147.9,452,255z"/>
<g>
</g>
<g>
</g>
<g>
</g>
<g>
</g>
<g>
</g>
<g>
</g>
<g>
</g>
<g>
</g>
<g>
</g>
<g>
</g>
<g>
</g>
<g>
</g>
<g>
</g>
<g>
</g>
<g>
</g>
</svg>
