<?xml version="1.0" encoding="iso-8859-1"?>
<!-- Generator: Adobe Illustrator 19.0.0, SVG Export Plug-In . SVG Version: 6.00 Build 0)  -->
<svg version="1.1" id="Capa_1" xmlns="http://www.w3.org/2000/svg" xmlns:xlink="http://www.w3.org/1999/xlink" x="0px" y="0px"
	 viewBox="0 0 512 512" style="enable-background:new 0 0 512 512;" xml:space="preserve">
<path style="fill:#53BBF3;" d="M368.951,198.345H143.049V21.12c0-11.664,9.456-21.12,21.12-21.12h183.662
	c11.664,0,21.12,9.456,21.12,21.12L368.951,198.345L368.951,198.345z"/>
<path style="fill:#359EE0;" d="M347.831,0h-53.769c11.664,0,21.12,9.456,21.12,21.12v177.225h53.769V21.12
	C368.951,9.456,359.495,0,347.831,0z"/>
<g>
	<path style="fill:#FFD9A6;" d="M226.98,91.185h-38.962c-2.61,0-4.726-2.116-4.726-4.726v-28.78c0-2.61,2.116-4.726,4.726-4.726
		h38.962c2.61,0,4.726,2.116,4.726,4.726v28.779C231.706,89.069,229.59,91.185,226.98,91.185z"/>
	<path style="fill:#FFD9A6;" d="M323.982,91.185h-38.962c-2.61,0-4.726-2.116-4.726-4.726v-28.78c0-2.61,2.116-4.726,4.726-4.726
		h38.962c2.61,0,4.726,2.116,4.726,4.726v28.779C328.708,89.069,326.593,91.185,323.982,91.185z"/>
</g>
<path style="fill:#DFEAEF;" d="M402.344,162.694H109.656c-11.664,0-21.121,9.456-21.121,21.121v307.064
	c0,11.665,9.456,21.121,21.121,21.121h292.689c11.665,0,21.121-9.456,21.121-21.121V183.815
	C423.466,172.15,414.01,162.694,402.344,162.694z M360.383,456.569c0,10.405-8.435,18.841-18.841,18.841H170.458
	c-10.405,0-18.841-8.435-18.841-18.841l0,0c0-10.405,8.435-18.841,18.841-18.841h171.084
	C351.948,437.728,360.383,446.163,360.383,456.569L360.383,456.569z"/>
<path style="fill:#BFCFD6;" d="M402.344,162.694h-54.514c11.665,0,21.121,9.456,21.121,21.121v307.064
	c0,11.665-9.456,21.121-21.121,21.121h54.514c11.665,0,21.121-9.456,21.121-21.121V183.815
	C423.466,172.15,414.01,162.694,402.344,162.694z"/>
<g>
</g>
<g>
</g>
<g>
</g>
<g>
</g>
<g>
</g>
<g>
</g>
<g>
</g>
<g>
</g>
<g>
</g>
<g>
</g>
<g>
</g>
<g>
</g>
<g>
</g>
<g>
</g>
<g>
</g>
</svg>
