<?xml version="1.0" encoding="iso-8859-1"?>
<!-- Generator: Adobe Illustrator 19.0.0, SVG Export Plug-In . SVG Version: 6.00 Build 0)  -->
<svg version="1.1" id="Capa_1" xmlns="http://www.w3.org/2000/svg" xmlns:xlink="http://www.w3.org/1999/xlink" x="0px" y="0px"
	 viewBox="0 0 512 512" style="enable-background:new 0 0 512 512;" xml:space="preserve">
<circle style="fill:#D4F3FF;" cx="256" cy="256" r="241"/>
<path style="fill:#96E2FF;" d="M256,15v482c133.1,0,241-107.899,241-241S389.1,15,256,15z"/>
<path style="fill:#B37150;" d="M256,512c-68.38,0-132.667-26.629-181.019-74.98C26.629,388.667,0,324.38,0,256
	S26.629,123.333,74.981,74.98C123.333,26.629,187.62,0,256,0s132.667,26.629,181.019,74.98C485.371,123.333,512,187.62,512,256
	s-26.629,132.667-74.981,181.02C388.667,485.371,324.38,512,256,512z M256,30C131.383,30,30,131.383,30,256s101.383,226,226,226
	s226-101.383,226-226S380.617,30,256,30z"/>
<path style="fill:#663E2C;" d="M352.4,271H256c-8.284,0-15-6.716-15-15v-96.4c0-8.284,6.716-15,15-15s15,6.716,15,15V241h81.4
	c8.284,0,15,6.716,15,15S360.685,271,352.4,271z"/>
<path style="fill:#843D2D;" d="M437.019,74.98C388.667,26.629,324.38,0,256,0v30c124.617,0,226,101.383,226,226S380.617,482,256,482
	v30c68.38,0,132.667-26.629,181.019-74.98C485.371,388.667,512,324.38,512,256S485.371,123.333,437.019,74.98z"/>
<path style="fill:#482F21;" d="M367.4,256c0-8.284-6.716-15-15-15H271v-81.4c0-8.284-6.716-15-15-15V271h96.4
	C360.685,271,367.4,264.284,367.4,256z"/>
<g>
</g>
<g>
</g>
<g>
</g>
<g>
</g>
<g>
</g>
<g>
</g>
<g>
</g>
<g>
</g>
<g>
</g>
<g>
</g>
<g>
</g>
<g>
</g>
<g>
</g>
<g>
</g>
<g>
</g>
</svg>
