<?xml version="1.0" encoding="iso-8859-1"?>
<!-- Generator: Adobe Illustrator 19.0.0, SVG Export Plug-In . SVG Version: 6.00 Build 0)  -->
<svg version="1.1" id="Capa_1" xmlns="http://www.w3.org/2000/svg" xmlns:xlink="http://www.w3.org/1999/xlink" x="0px" y="0px"
	 viewBox="0 0 318 318" style="enable-background:new 0 0 318 318;" xml:space="preserve">
<g>
	<path style="fill:#3ABFC8;" d="M128.8,0H190c8,0,14.8,6.4,14.8,14.8v75.6H114v-76C114,6.4,120.8,0,128.8,0z"/>
	<path style="fill:#4A566E;" d="M152.4,222.8h13.2c32,0,58.4-26.4,58.4-58.4v-59.6c0-8-6.4-14.8-14.8-14.8H108.8
		c-8,0-14.8,6.4-14.8,14.8V164C94,196.4,120.4,222.8,152.4,222.8z"/>
</g>
<g>
	<path style="fill:#4A566E;" d="M151.6,180.4c0-4.4,3.6-7.6,7.6-7.6c4.4,0,7.6,3.6,7.6,7.6v130c0,4.4-3.6,7.6-7.6,7.6
		c-4.4,0-7.6-3.6-7.6-7.6V180.4z"/>
	<g>
		<path style="fill:#4A566E;" d="M138,32.8h8.8c4,0,7.6,3.6,7.6,7.6v8.8c0,4-3.6,7.6-7.6,7.6H138c-4,0-7.6-3.6-7.6-7.6v-8.8
			C130.4,36.4,133.6,32.8,138,32.8z"/>
		<path style="fill:#4A566E;" d="M171.6,32.8h8.8c4,0,7.6,3.6,7.6,7.6v8.8c0,4-3.6,7.6-7.6,7.6h-8.8c-4,0-7.6-3.6-7.6-7.6v-8.8
			C164,36.4,167.6,32.8,171.6,32.8z"/>
	</g>
</g>
<g>
</g>
<g>
</g>
<g>
</g>
<g>
</g>
<g>
</g>
<g>
</g>
<g>
</g>
<g>
</g>
<g>
</g>
<g>
</g>
<g>
</g>
<g>
</g>
<g>
</g>
<g>
</g>
<g>
</g>
</svg>
