<?xml version="1.0" encoding="iso-8859-1"?>
<!-- Generator: Adobe Illustrator 19.0.0, SVG Export Plug-In . SVG Version: 6.00 Build 0)  -->
<svg version="1.1" id="Capa_1" xmlns="http://www.w3.org/2000/svg" xmlns:xlink="http://www.w3.org/1999/xlink" x="0px" y="0px"
	 viewBox="0 0 512 512" style="enable-background:new 0 0 512 512;" xml:space="preserve">
<path style="fill:#F8EB76;" d="M351,0H161c-8.284,0-15,6.716-15,15v51c0,8.284,6.716,15,15,15h190c8.284,0,15-6.716,15-15V15
	C366,6.716,359.284,0,351,0z"/>
<path style="fill:#FAD557;" d="M351,0h-95v81h95c8.284,0,15-6.716,15-15V15C366,6.716,359.284,0,351,0z"/>
<path style="fill:#00C2FF;" d="M457,51H55C24.673,51,0,75.673,0,106v351c0,30.327,24.673,55,55,55h402c30.327,0,55-24.673,55-55V106
	C512,75.673,487.327,51,457,51z"/>
<path style="fill:#00B3F3;" d="M457,51H256v461h201c30.327,0,55-24.673,55-55V106C512,75.673,487.327,51,457,51z"/>
<path style="fill:#0B4EB1;" d="M304.079,350.792l-58.686-58.686C242.58,289.294,241,285.479,241,281.5V166c0-8.284,6.716-15,15-15
	s15,6.716,15,15v109.286l54.292,54.293c5.858,5.857,5.858,15.355,0,21.213C319.435,356.649,309.936,356.651,304.079,350.792z"/>
<path style="fill:#09489F;" d="M325.292,329.579L271,275.286V166c0-8.284-6.716-15-15-15v151.713l48.079,48.079
	c5.857,5.859,15.356,5.857,21.213,0C331.15,344.935,331.15,335.437,325.292,329.579z"/>
<g>
</g>
<g>
</g>
<g>
</g>
<g>
</g>
<g>
</g>
<g>
</g>
<g>
</g>
<g>
</g>
<g>
</g>
<g>
</g>
<g>
</g>
<g>
</g>
<g>
</g>
<g>
</g>
<g>
</g>
</svg>
