<?xml version="1.0" encoding="iso-8859-1"?>
<!-- Generator: Adobe Illustrator 19.0.0, SVG Export Plug-In . SVG Version: 6.00 Build 0)  -->
<svg version="1.1" id="Capa_1" xmlns="http://www.w3.org/2000/svg" xmlns:xlink="http://www.w3.org/1999/xlink" x="0px" y="0px"
	 viewBox="0 0 512 512" style="enable-background:new 0 0 512 512;" xml:space="preserve">
<path style="fill:#ECEFF1;" d="M416,64H96c-17.632,0-32,14.368-32,32v384c0,17.952,14.048,32,32,32h320c17.952,0,32-14.048,32-32V96
	C448,78.048,433.952,64,416,64z"/>
<path style="fill:#455A64;" d="M336,32h-34.752C294.656,13.376,276.864,0,256,0s-38.656,13.376-45.28,32H176
	c-8.832,0-16,7.168-16,16v64c0,8.832,7.168,16,16,16h160c8.832,0,16-7.168,16-16V48C352,39.168,344.832,32,336,32z"/>
<g>
	<path style="fill:#4CAF50;" d="M176,288c-4.096,0-8.192-1.568-11.328-4.672l-32-32c-6.24-6.24-6.24-16.384,0-22.624
		c6.24-6.24,16.384-6.24,22.624,0L176,249.376l52.672-52.672c6.24-6.24,16.384-6.24,22.624,0s6.24,16.384,0,22.624l-64,64
		C184.192,286.432,180.096,288,176,288z"/>
	<path style="fill:#4CAF50;" d="M176,416c-4.096,0-8.192-1.568-11.328-4.672l-32-32c-6.24-6.24-6.24-16.384,0-22.624
		c6.24-6.24,16.384-6.24,22.624,0L176,377.376l52.672-52.672c6.24-6.24,16.384-6.24,22.624,0s6.24,16.384,0,22.624l-64,64
		C184.192,414.432,180.096,416,176,416z"/>
</g>
<g>
	<path style="fill:#90A4AE;" d="M368,256h-64c-8.832,0-16-7.168-16-16s7.168-16,16-16h64c8.832,0,16,7.168,16,16
		S376.832,256,368,256z"/>
	<path style="fill:#90A4AE;" d="M368,384h-64c-8.832,0-16-7.168-16-16s7.168-16,16-16h64c8.832,0,16,7.168,16,16
		S376.832,384,368,384z"/>
</g>
<g>
</g>
<g>
</g>
<g>
</g>
<g>
</g>
<g>
</g>
<g>
</g>
<g>
</g>
<g>
</g>
<g>
</g>
<g>
</g>
<g>
</g>
<g>
</g>
<g>
</g>
<g>
</g>
<g>
</g>
</svg>
