<?xml version="1.0" encoding="iso-8859-1"?>
<!-- Generator: Adobe Illustrator 19.0.0, SVG Export Plug-In . SVG Version: 6.00 Build 0)  -->
<svg version="1.1" id="Capa_1" xmlns="http://www.w3.org/2000/svg" xmlns:xlink="http://www.w3.org/1999/xlink" x="0px" y="0px"
	 viewBox="0 0 512 512" style="enable-background:new 0 0 512 512;" xml:space="preserve">
<path style="fill:#607D8B;" d="M224,448v16c0,26.56-21.44,48-48,48s-48-21.44-48-48v-16H224z"/>
<path style="fill:#ECEFF1;" d="M224,112v336h-96V220.48c-42.88,9.92-90.88-1.6-122.56-29.76C1.92,187.84,0,183.36,0,178.88V45.12
	c0-4.48,1.92-8.96,5.44-11.84C29.44,11.84,61.76,0,96,0C166.72,0,224,50.24,224,112z"/>
<g>
	<path style="fill:#90A4AE;" d="M112,64c-8.832,0-16,7.168-16,16s7.168,16,16,16s16,7.168,16,16s7.168,16,16,16s16-7.168,16-16
		C160,85.536,138.464,64,112,64z"/>
	<path style="fill:#90A4AE;" d="M48.64,96h-0.32c-8.832,0-15.84,7.168-15.84,16s7.328,16,16.16,16s16-7.168,16-16
		S57.472,96,48.64,96z"/>
</g>
<path style="fill:#607D8B;" d="M288,448v16c0,26.56,21.44,48,48,48s48-21.44,48-48v-16H288z"/>
<path style="fill:#ECEFF1;" d="M288,112v336h96V220.48c42.88,9.92,90.88-1.6,122.56-29.76c3.52-2.88,5.44-7.36,5.44-11.84V45.12
	c0-4.48-1.92-8.96-5.44-11.84C482.56,11.84,450.24,0,416,0C345.28,0,288,50.24,288,112z"/>
<g>
	<path style="fill:#90A4AE;" d="M400,64c8.832,0,16,7.168,16,16s-7.168,16-16,16s-16,7.168-16,16s-7.168,16-16,16s-16-7.168-16-16
		C352,85.536,373.536,64,400,64z"/>
	<path style="fill:#90A4AE;" d="M463.36,96h0.32c8.832,0,15.84,7.168,15.84,16s-7.328,16-16.16,16s-16-7.168-16-16
		S454.528,96,463.36,96z"/>
</g>
<g>
</g>
<g>
</g>
<g>
</g>
<g>
</g>
<g>
</g>
<g>
</g>
<g>
</g>
<g>
</g>
<g>
</g>
<g>
</g>
<g>
</g>
<g>
</g>
<g>
</g>
<g>
</g>
<g>
</g>
</svg>
