<?xml version="1.0" encoding="iso-8859-1"?>
<!-- Generator: Adobe Illustrator 19.0.0, SVG Export Plug-In . SVG Version: 6.00 Build 0)  -->
<svg version="1.1" id="Capa_1" xmlns="http://www.w3.org/2000/svg" xmlns:xlink="http://www.w3.org/1999/xlink" x="0px" y="0px"
	 viewBox="0 0 496.5 496.5" style="enable-background:new 0 0 496.5 496.5;" xml:space="preserve">
<rect x="155.384" y="95.154" style="fill:#CACACA;" width="185.716" height="23.738"/>
<rect x="185.608" style="fill:#F3F3F3;" width="125.207" height="95.154"/>
<g>
	<rect x="202.985" y="35.918" style="fill:#CACACA;" width="21.457" height="23.304"/>
	<rect x="271.981" y="35.918" style="fill:#CACACA;" width="21.457" height="23.304"/>
</g>
<path style="fill:#E95353;" d="M130.932,118.893v260.282c0,64.791,52.519,117.326,117.31,117.326s117.326-52.519,117.326-117.326
	V118.893H130.932z M264.673,441.127h-32.861c-8.564,0-15.515-6.935-15.515-15.515s6.951-15.515,15.515-15.515h32.861
	c8.564,0,15.515,6.935,15.515,15.515C280.188,434.176,273.237,441.127,264.673,441.127z"/>
<g>
	<path style="fill:#E04F4F;" d="M365.552,118.955v260.189c0,42.046-22.031,78.972-55.389,99.452
		c-2.327-4.344-6.982-7.292-12.257-7.292H291.7c-9.619,0-17.222-7.913-16.756-17.687c0.465-8.999,8.533-15.67,17.687-15.67h26.686
		c7.602,0,13.653-6.516,13.188-14.119v-1.086c0-7.758-6.361-14.119-13.964-14.119h-24.824c-9.309,0-16.756-7.447-16.756-16.756
		c0-8.999,7.292-16.291,16.291-16.601h8.688c8.999,0,17.067-6.827,17.532-15.825c0.465-9.619-7.137-17.532-16.601-17.532h-10.085
		c-9.464,0-17.067-8.068-16.601-17.687c0.465-8.999,8.533-15.67,17.532-15.67h11.947c8.068,0,13.964-6.827,13.964-14.895V293.5
		c0-0.155,0-0.31,0-0.31c0-7.913-5.896-14.895-13.964-14.895h-13.033c-9.619,0-17.222-7.913-16.756-17.532
		c0.465-8.999,8.533-15.825,17.687-15.825h3.568c8.223,0,14.895-6.516,14.739-14.739v-0.155l0.155-1.086
		c0-7.758-6.361-13.964-14.119-13.964H291.7c-9.619,0-17.222-8.068-16.756-17.532c0.465-9.154,8.533-15.981,17.687-15.981h26.686
		c7.602,0,13.653-6.361,13.188-13.964v-1.241c0-7.758-6.361-13.964-13.964-13.964h-18.463c-9.154,0-16.756-7.447-16.756-16.756
		c0-9.154,7.602-16.601,16.756-16.601L365.552,118.955L365.552,118.955z"/>
	<path style="fill:#E04F4F;" d="M221.572,453.616c0.465,9.775-7.137,17.687-16.756,17.687h-6.206c-5.275,0-9.93,2.948-12.257,7.292
		c-33.358-20.48-55.389-57.406-55.389-99.452V118.955h65.474c9.154,0,16.756,7.447,16.756,16.601
		c0,9.309-7.602,16.756-16.756,16.756h-18.463c-7.758,0-13.964,6.206-13.964,13.964v1.241c-0.465,7.602,5.585,13.964,13.188,13.964
		h26.686c9.154,0,17.222,6.827,17.687,15.981c0.465,9.464-7.137,17.532-16.756,17.532h-6.206c-7.758,0-14.119,6.206-14.119,13.964
		l0.155,1.086v0.155c-0.155,8.223,6.516,14.739,14.739,14.739h3.568c9.154,0,17.067,6.827,17.687,15.825
		c0.465,9.619-7.137,17.532-16.756,17.532h-13.033c-8.068,0-13.964,6.982-13.964,14.895c0,0,0,0.155,0,0.31v0.155
		c0,8.068,5.896,14.895,13.964,14.895h11.947c8.999,0,17.067,6.672,17.532,15.67c0.465,9.619-7.137,17.687-16.601,17.687h-10.085
		c-9.464,0-17.222,7.913-16.601,17.532c0.465,8.999,8.533,15.825,17.532,15.825h8.688c8.999,0.31,16.291,7.602,16.291,16.601
		c0,9.309-7.447,16.756-16.756,16.756h-24.824c-7.758,0-13.964,6.361-13.964,14.119v1.086c-0.465,7.602,5.585,14.119,13.188,14.119
		h26.686C213.039,437.946,221.106,444.618,221.572,453.616z"/>
</g>
<g>
</g>
<g>
</g>
<g>
</g>
<g>
</g>
<g>
</g>
<g>
</g>
<g>
</g>
<g>
</g>
<g>
</g>
<g>
</g>
<g>
</g>
<g>
</g>
<g>
</g>
<g>
</g>
<g>
</g>
</svg>
