<?xml version="1.0" encoding="iso-8859-1"?>
<!-- Generator: Adobe Illustrator 19.0.0, SVG Export Plug-In . SVG Version: 6.00 Build 0)  -->
<svg version="1.1" id="Capa_1" xmlns="http://www.w3.org/2000/svg" xmlns:xlink="http://www.w3.org/1999/xlink" x="0px" y="0px"
	 viewBox="0 0 467.069 467.069" style="enable-background:new 0 0 467.069 467.069;" xml:space="preserve">
<path style="fill:#00BBD3;" d="M117.551,351.086c0,64.261,52.245,115.984,115.984,115.984s115.984-52.245,115.984-115.984V229.355
	H117.551V351.086z"/>
<path style="fill:#D4E1F4;" d="M320.261,144.196h11.494V0H135.314v144.196h11.494H320.261z"/>
<path style="fill:#4DCFE0;" d="M331.755,141.584h-11.494H146.808h-11.494H128c-5.747,0-10.449,4.702-10.449,10.449v82.547h231.967
	v-82.547c0-5.747-4.702-10.449-10.449-10.449C339.069,141.584,331.755,141.584,331.755,141.584z"/>
<g>
	<path style="fill:#3A2C51;" d="M203.755,55.902c-8.882,0-15.673,6.792-15.673,15.673v23.51c0,8.882,6.792,15.673,15.673,15.673
		s15.673-6.792,15.673-15.673v-23.51C219.429,62.694,212.637,55.902,203.755,55.902z"/>
	<path style="fill:#3A2C51;" d="M263.314,55.902c-8.882,0-15.673,6.792-15.673,15.673v23.51c0,8.882,6.792,15.673,15.673,15.673
		c8.882,0,15.673-6.792,15.673-15.673v-23.51C278.988,62.694,272.196,55.902,263.314,55.902z"/>
</g>
<g>
</g>
<g>
</g>
<g>
</g>
<g>
</g>
<g>
</g>
<g>
</g>
<g>
</g>
<g>
</g>
<g>
</g>
<g>
</g>
<g>
</g>
<g>
</g>
<g>
</g>
<g>
</g>
<g>
</g>
</svg>
