<?xml version="1.0" encoding="iso-8859-1"?>
<!-- Generator: Adobe Illustrator 19.0.0, SVG Export Plug-In . SVG Version: 6.00 Build 0)  -->
<svg version="1.1" id="Capa_1" xmlns="http://www.w3.org/2000/svg" xmlns:xlink="http://www.w3.org/1999/xlink" x="0px" y="0px"
	 viewBox="0 0 475.429 475.429" style="enable-background:new 0 0 475.429 475.429;" xml:space="preserve">
<path style="fill:#D4E1F4;" d="M331.755,114.939V0H143.673v114.939H331.755z"/>
<path style="fill:#3A2C51;" d="M222.041,390.792v84.637h31.347v-84.637c-5.225,0.522-10.449,1.045-15.673,1.045
	S227.265,391.314,222.041,390.792z"/>
<path style="fill:#4DCFE0;" d="M357.878,109.714h-26.122H143.673h-26.122c-8.882,0-15.673,6.792-15.673,15.673v135.837
	c0,69.486,52.767,126.955,120.163,134.792c5.224,0.522,10.449,1.045,15.673,1.045s10.449-0.522,15.673-1.045
	c67.396-7.837,120.163-65.306,120.163-134.792V125.388C373.551,116.506,366.759,109.714,357.878,109.714z"/>
<g>
	<rect x="185.469" y="52.245" style="fill:#3A2C51;" width="41.796" height="41.796"/>
	<rect x="248.163" y="52.245" style="fill:#3A2C51;" width="41.796" height="41.796"/>
</g>
<g>
</g>
<g>
</g>
<g>
</g>
<g>
</g>
<g>
</g>
<g>
</g>
<g>
</g>
<g>
</g>
<g>
</g>
<g>
</g>
<g>
</g>
<g>
</g>
<g>
</g>
<g>
</g>
<g>
</g>
</svg>
