<?xml version="1.0" encoding="iso-8859-1"?>
<!-- Generator: Adobe Illustrator 19.0.0, SVG Export Plug-In . SVG Version: 6.00 Build 0)  -->
<svg version="1.1" id="Capa_1" xmlns="http://www.w3.org/2000/svg" xmlns:xlink="http://www.w3.org/1999/xlink" x="0px" y="0px"
	 viewBox="0 0 484.833 484.833" style="enable-background:new 0 0 484.833 484.833;" xml:space="preserve">
<g>
	<path style="fill:#3A2C51;" d="M215.771,76.8c-4.702,2.09-9.927,3.135-15.673,3.135s-10.971-1.045-15.673-3.135v47.543h31.347V76.8
		z"/>
	<path style="fill:#3A2C51;" d="M294.139,78.367h31.347c-2.09-4.702-3.135-9.927-3.135-15.673s1.045-10.971,3.135-15.673h-47.02
		c-8.882,0-15.673,6.792-15.673,15.673v61.649h31.347V78.367z"/>
	<path style="fill:#3A2C51;" d="M408.033,221.518c-2.09-4.702-3.135-9.927-3.135-15.673s1.045-10.971,3.135-15.673H360.49v31.347
		H408.033z"/>
	<path style="fill:#3A2C51;" d="M406.465,299.886v31.347c4.702-2.09,9.927-3.135,15.673-3.135c5.747,0,10.971,1.045,15.673,3.135
		v-47.02c0-8.882-6.792-15.673-15.673-15.673H360.49v31.347H406.465z"/>
	<path style="fill:#3A2C51;" d="M76.8,268.016c2.09,4.702,3.135,9.927,3.135,15.673c0,5.747-1.045,10.971-3.135,15.673h47.543
		v-31.347H76.8z"/>
	<path style="fill:#3A2C51;" d="M78.367,189.649v-31.347c-4.702,2.09-9.927,3.135-15.673,3.135s-10.971-1.045-15.673-3.135v47.02
		c0,8.882,6.792,15.673,15.673,15.673h61.649v-31.347H78.367z"/>
	<path style="fill:#3A2C51;" d="M268.016,408.033c4.702-2.09,9.927-3.135,15.673-3.135c5.747,0,10.971,1.045,15.673,3.135V360.49
		h-31.347V408.033z"/>
	<path style="fill:#3A2C51;" d="M189.649,406.465h-31.347c2.09,4.702,3.135,9.927,3.135,15.673c0,5.747-1.045,10.971-3.135,15.673
		h47.02c8.882,0,15.673-6.792,15.673-15.673V360.49h-31.347V406.465z"/>
</g>
<g>
	<path style="fill:#4DCFE0;" d="M344.816,123.82h-204.8c-9.404,0-16.196,6.792-16.196,16.196v204.8
		c0,9.404,6.792,16.196,16.196,16.196h204.8c9.404,0,16.196-6.792,16.196-16.196v-204.8
		C361.012,130.612,354.22,123.82,344.816,123.82z"/>
	<path style="fill:#4DCFE0;" d="M184.424,77.322c4.702,2.09,9.927,3.135,15.673,3.135s10.971-1.045,15.673-3.135
		c14.629-6.792,24.555-20.898,24.555-37.094C240.327,18.286,222.041,0,200.098,0s-40.229,18.286-40.229,40.229
		C159.869,55.902,169.273,70.531,184.424,77.322z"/>
	<path style="fill:#4DCFE0;" d="M402.286,62.694c0-21.943-18.286-40.229-40.229-40.229c-16.196,0-30.302,9.404-37.094,24.555
		c-2.09,4.702-3.135,9.927-3.135,15.673s1.045,10.971,3.135,15.673c6.792,14.629,20.898,24.555,37.094,24.555
		C384,102.922,402.286,84.637,402.286,62.694z"/>
	<path style="fill:#4DCFE0;" d="M444.604,165.616c-15.673,0-30.302,9.404-37.094,24.555c-2.09,4.702-3.135,9.927-3.135,15.673
		s1.045,10.971,3.135,15.673c6.792,14.629,20.898,24.555,37.094,24.555c21.943,0,40.229-18.286,40.229-40.229
		C484.833,183.902,466.547,165.616,444.604,165.616z"/>
	<path style="fill:#4DCFE0;" d="M437.812,330.71c-4.702-2.09-9.927-3.135-15.673-3.135c-5.747,0-10.971,1.045-15.673,3.135
		c-14.629,6.792-24.555,20.898-24.555,37.094c0,21.943,18.286,40.229,40.229,40.229s40.229-18.286,40.229-40.229
		C462.367,352.131,452.963,337.502,437.812,330.71z"/>
	<path style="fill:#4DCFE0;" d="M40.229,243.461C18.286,243.461,0,261.747,0,283.69c0,21.943,18.286,40.229,40.229,40.229
		c15.673,0,30.302-9.404,37.094-24.555c2.09-4.702,3.135-9.927,3.135-15.673c0-5.747-1.045-10.971-3.135-15.673
		C70.531,252.865,56.424,243.461,40.229,243.461z"/>
	<path style="fill:#4DCFE0;" d="M47.02,158.824c4.702,2.09,9.927,3.135,15.673,3.135s10.971-1.045,15.673-3.135
		c14.629-6.792,24.555-20.898,24.555-37.094c0-21.943-18.286-40.229-40.229-40.229s-40.229,18.286-40.229,40.229
		C22.465,137.927,31.869,152.033,47.02,158.824z"/>
	<path style="fill:#4DCFE0;" d="M299.363,407.51c-4.702-2.09-9.927-3.135-15.673-3.135c-5.747,0-10.971,1.045-15.673,3.135
		c-14.629,6.792-24.555,20.898-24.555,37.094c0,21.943,18.286,40.229,40.229,40.229c21.943,0,40.229-18.286,40.229-40.229
		C323.918,428.931,314.514,414.302,299.363,407.51z"/>
	<path style="fill:#4DCFE0;" d="M121.731,381.91c-21.943,0-40.229,18.286-40.229,40.229s18.286,40.229,40.229,40.229
		c15.673,0,30.302-9.404,37.094-24.555c2.09-4.702,3.135-9.927,3.135-15.673c0-5.747-1.045-10.971-3.135-15.673
		C152.033,391.314,137.927,381.91,121.731,381.91z"/>
</g>
<path style="fill:#00BBD3;" d="M192.261,176.588c-8.882,0-15.673,6.792-15.673,15.673v100.31c0,8.882,6.792,15.673,15.673,15.673
	h100.31c8.882,0,15.673-6.792,15.673-15.673v-100.31c0-8.882-6.792-15.673-15.673-15.673H192.261z"/>
<rect x="207.935" y="207.935" style="fill:#D4E1F4;" width="68.963" height="68.963"/>
<g>
</g>
<g>
</g>
<g>
</g>
<g>
</g>
<g>
</g>
<g>
</g>
<g>
</g>
<g>
</g>
<g>
</g>
<g>
</g>
<g>
</g>
<g>
</g>
<g>
</g>
<g>
</g>
<g>
</g>
</svg>
