<?xml version="1.0" encoding="iso-8859-1"?>
<!-- Generator: Adobe Illustrator 19.0.0, SVG Export Plug-In . SVG Version: 6.00 Build 0)  -->
<svg version="1.1" id="Capa_1" xmlns="http://www.w3.org/2000/svg" xmlns:xlink="http://www.w3.org/1999/xlink" x="0px" y="0px"
	 viewBox="0 0 475.429 475.429" style="enable-background:new 0 0 475.429 475.429;" xml:space="preserve">
<path style="fill:#D4E1F4;" d="M331.755,120.163V0H143.673v120.163H331.755z"/>
<rect x="222.041" y="415.869" style="fill:#3A2C51;" width="31.347" height="59.559"/>
<path style="fill:#00BBD3;" d="M167.184,340.114v52.245c0,14.629,11.494,26.122,26.122,26.122h28.735h31.347h28.735
	c14.629,0,26.122-11.494,26.122-26.122v-52.245H167.184z"/>
<path style="fill:#4DCFE0;" d="M357.878,117.551h-26.122H143.673h-26.122c-8.882,0-15.673,6.792-15.673,15.673v182.857
	c0,14.629,11.494,26.122,26.122,26.122h39.184h141.061h39.184c14.629,0,26.122-11.494,26.122-26.122V133.225
	C373.551,124.343,366.759,117.551,357.878,117.551z"/>
<g>
	<rect x="195.918" y="50.678" style="fill:#3A2C51;" width="31.347" height="52.245"/>
	<rect x="248.163" y="50.678" style="fill:#3A2C51;" width="31.347" height="52.245"/>
</g>
<g>
</g>
<g>
</g>
<g>
</g>
<g>
</g>
<g>
</g>
<g>
</g>
<g>
</g>
<g>
</g>
<g>
</g>
<g>
</g>
<g>
</g>
<g>
</g>
<g>
</g>
<g>
</g>
<g>
</g>
</svg>
