<?xml version="1.0" encoding="iso-8859-1"?>
<!-- Generator: Adobe Illustrator 19.0.0, SVG Export Plug-In . SVG Version: 6.00 Build 0)  -->
<svg version="1.1" id="Capa_1" xmlns="http://www.w3.org/2000/svg" xmlns:xlink="http://www.w3.org/1999/xlink" x="0px" y="0px"
	 viewBox="0 0 491.624 491.624" style="enable-background:new 0 0 491.624 491.624;" xml:space="preserve">
<path style="fill:#00BBD3;" d="M333.322,90.906h-14.106v53.812l-147.853,5.224V90.906h-13.061c-28.735,0-52.245,23.51-52.245,52.245
	v14.629v5.224c0,28.735,23.51,52.245,52.245,52.245h175.02c26.122,0,48.065-19.853,51.722-44.931
	c0.522-2.612,0.522-4.702,0.522-7.314v-19.853C385.567,114.416,362.057,90.906,333.322,90.906z"/>
<g>
	<polygon style="fill:#3A2C51;" points="197.486,434.155 197.486,434.155 197.486,491.624 228.833,491.624 228.833,434.155 
		202.71,434.155 	"/>
	<polygon style="fill:#3A2C51;" points="288.392,434.155 262.269,434.155 262.269,491.624 293.616,491.624 293.616,434.155 
		293.616,434.155 	"/>
</g>
<path style="fill:#00BBD3;" d="M187.037,426.841c0,5.747,4.702,10.449,10.449,10.449l0,0h5.224h26.122h33.437h26.122h5.225l0,0
	c5.747,0,10.449-4.702,10.449-10.449v-43.363H187.037V426.841z"/>
<path style="fill:#4DCFE0;" d="M333.322,215.249h-175.02c-28.735,0-52.245-23.51-52.245-52.245v181.29
	c0,22.988,18.808,41.796,41.796,41.796h39.184h117.029h39.184c22.988,0,41.796-18.808,41.796-41.796V170.318
	C381.388,195.396,359.445,215.249,333.322,215.249z"/>
<path style="fill:#D4E1F4;" d="M324.441,160.392V90.906V15.673C324.441,6.792,317.649,0,308.767,0H181.812
	c-8.882,0-15.673,6.792-15.673,15.673v75.233v69.486H324.441z"/>
<g>
	<path style="fill:#3A2C51;" d="M245.551,99.265c8.882,0,15.673-6.792,15.673-15.673V38.661c0-8.882-6.792-15.673-15.673-15.673
		s-15.673,6.792-15.673,15.673v44.931C229.878,92.473,236.669,99.265,245.551,99.265z"/>
	<path style="fill:#3A2C51;" d="M287.347,99.265c8.882,0,15.673-6.792,15.673-15.673V38.661c0-8.882-6.792-15.673-15.673-15.673
		c-8.882,0-15.673,6.792-15.673,15.673v44.931C271.673,92.473,278.465,99.265,287.347,99.265z"/>
	<path style="fill:#3A2C51;" d="M203.755,99.265c8.882,0,15.673-6.792,15.673-15.673V38.661c0-8.882-6.792-15.673-15.673-15.673
		s-15.673,6.792-15.673,15.673v44.931C188.082,92.473,194.873,99.265,203.755,99.265z"/>
</g>
<g>
</g>
<g>
</g>
<g>
</g>
<g>
</g>
<g>
</g>
<g>
</g>
<g>
</g>
<g>
</g>
<g>
</g>
<g>
</g>
<g>
</g>
<g>
</g>
<g>
</g>
<g>
</g>
<g>
</g>
</svg>
