<?xml version="1.0" encoding="iso-8859-1"?>
<!-- Generator: Adobe Illustrator 19.0.0, SVG Export Plug-In . SVG Version: 6.00 Build 0)  -->
<svg version="1.1" id="Capa_1" xmlns="http://www.w3.org/2000/svg" xmlns:xlink="http://www.w3.org/1999/xlink" x="0px" y="0px"
	 viewBox="0 0 487.967 487.967" style="enable-background:new 0 0 487.967 487.967;" xml:space="preserve">
<path style="fill:#4DCFE0;" d="M481.176,169.796c4.18-1.567,6.792-5.224,6.792-9.927v-55.902c0-5.747-4.702-10.449-10.449-10.449
	H10.449C4.702,93.518,0,98.22,0,103.967v55.902c0,4.18,2.612,8.359,6.792,9.927c12.539,4.18,20.898,16.196,20.898,29.78
	c0,13.584-8.359,25.6-20.898,29.78C2.612,230.922,0,234.58,0,239.282V384c0,5.747,4.702,10.449,10.449,10.449h29.257
	c5.747,0,10.449-4.702,10.449-10.449v-47.543h23.51V384c0,5.747,4.702,10.449,10.449,10.449h44.931
	c5.747,0,10.449-4.702,10.449-10.449v-47.543h24.033V384c0,5.747,4.702,10.449,10.449,10.449h44.931
	c5.747,0,10.449-4.702,10.449-10.449v-47.543h24.033V384c0,5.747,4.702,10.449,10.449,10.449h44.931
	c5.747,0,10.449-4.702,10.449-10.449v-47.543h24.033V384c0,5.747,4.702,10.449,10.449,10.449h49.633
	c5.747,0,10.449-4.702,10.449-10.449v-47.543h24.033V384c0,5.747,4.702,10.449,10.449,10.449h29.257
	c5.747,0,10.449-4.702,10.449-10.449V239.282c0-4.18-2.612-8.359-6.792-9.927c-12.539-4.18-20.898-16.196-20.898-29.78
	C460.277,185.992,468.637,173.975,481.176,169.796z"/>
<g>
	<path style="fill:#00BBD3;" d="M271.673,279.51c5.747,0,10.449-4.702,10.449-10.449V161.959c0-5.747-4.702-10.449-10.449-10.449
		h-55.902c-5.747,0-10.449,4.702-10.449,10.449v107.102c0,5.747,4.702,10.449,10.449,10.449H271.673z"/>
	<path style="fill:#00BBD3;" d="M158.824,269.061V161.959c0-5.747-4.702-10.449-10.449-10.449H92.473
		c-5.747,0-10.449,4.702-10.449,10.449v107.102c0,5.747,4.702,10.449,10.449,10.449h55.902
		C154.122,279.51,158.824,274.808,158.824,269.061z"/>
	<path style="fill:#00BBD3;" d="M405.943,269.061V161.959c0-5.747-4.702-10.449-10.449-10.449h-55.902
		c-5.747,0-10.449,4.702-10.449,10.449v107.102c0,5.747,4.702,10.449,10.449,10.449h55.902
		C401.241,279.51,405.943,274.808,405.943,269.061z"/>
</g>
<g>
</g>
<g>
</g>
<g>
</g>
<g>
</g>
<g>
</g>
<g>
</g>
<g>
</g>
<g>
</g>
<g>
</g>
<g>
</g>
<g>
</g>
<g>
</g>
<g>
</g>
<g>
</g>
<g>
</g>
</svg>
