<?xml version="1.0" encoding="iso-8859-1"?>
<!-- Generator: Adobe Illustrator 19.0.0, SVG Export Plug-In . SVG Version: 6.00 Build 0)  -->
<svg version="1.1" id="Capa_1" xmlns="http://www.w3.org/2000/svg" xmlns:xlink="http://www.w3.org/1999/xlink" x="0px" y="0px"
	 viewBox="0 0 468.114 468.114" style="enable-background:new 0 0 468.114 468.114;" xml:space="preserve">
<g>
	<path style="fill:#D4E1F4;" d="M455.053,339.592c7.314,0,13.061-5.747,13.061-13.061c0-7.314-5.747-13.061-13.061-13.061h-46.498
		v26.122H455.053z"/>
	<path style="fill:#D4E1F4;" d="M216.294,59.559V13.061C216.294,5.747,210.547,0,203.233,0c-7.314,0-13.061,5.747-13.061,13.061
		v46.498l0,0C190.171,59.559,216.294,59.559,216.294,59.559z"/>
	<path style="fill:#D4E1F4;" d="M277.943,13.061C277.943,5.747,272.196,0,264.882,0c-7.314,0-13.061,5.747-13.061,13.061v46.498
		h26.122V13.061z"/>
	<path style="fill:#D4E1F4;" d="M154.645,13.061C154.645,5.747,148.898,0,141.584,0c-7.314,0-13.061,5.747-13.061,13.061v46.498
		h26.122V13.061z"/>
	<path style="fill:#D4E1F4;" d="M339.592,13.061C339.592,5.747,333.845,0,326.531,0c-7.314,0-13.061,5.747-13.061,13.061v46.498
		h26.122V13.061z"/>
	<path style="fill:#D4E1F4;" d="M190.171,455.053c0,7.314,5.747,13.061,13.061,13.061c7.314,0,13.061-5.747,13.061-13.061v-46.498
		h-26.122V455.053z"/>
	<path style="fill:#D4E1F4;" d="M251.82,455.053c0,7.314,5.747,13.061,13.061,13.061c7.314,0,13.061-5.747,13.061-13.061v-46.498
		H251.82V455.053z"/>
	<path style="fill:#D4E1F4;" d="M128.522,455.053c0,7.314,5.747,13.061,13.061,13.061c7.314,0,13.061-5.747,13.061-13.061v-46.498
		h-26.122V455.053z"/>
	<path style="fill:#D4E1F4;" d="M313.469,455.053c0,7.314,5.747,13.061,13.061,13.061c7.314,0,13.061-5.747,13.061-13.061v-46.498
		h-26.122V455.053z"/>
	<path style="fill:#D4E1F4;" d="M455.053,216.294c7.314,0,13.061-5.747,13.061-13.061c0-7.314-5.747-13.061-13.061-13.061h-46.498
		v26.122H455.053z"/>
	<path style="fill:#D4E1F4;" d="M455.053,277.943c7.314,0,13.061-5.747,13.061-13.061c0-7.314-5.747-13.061-13.061-13.061h-46.498
		v26.122H455.053z"/>
	<path style="fill:#D4E1F4;" d="M455.053,154.645c7.314,0,13.061-5.747,13.061-13.061c0-7.314-5.747-13.061-13.061-13.061h-46.498
		v26.122H455.053z"/>
	<path style="fill:#D4E1F4;" d="M0,203.233c0,7.314,5.747,13.061,13.061,13.061h46.498v-26.122H13.061
		C5.747,190.171,0,195.918,0,203.233z"/>
	<path style="fill:#D4E1F4;" d="M0,264.882c0,7.314,5.747,13.061,13.061,13.061h46.498V251.82H13.061
		C5.747,251.82,0,257.567,0,264.882z"/>
	<path style="fill:#D4E1F4;" d="M0,141.584c0,7.314,5.747,13.061,13.061,13.061h46.498v-26.122H13.061
		C5.747,128.522,0,134.269,0,141.584z"/>
	<path style="fill:#D4E1F4;" d="M0,326.531c0,7.314,5.747,13.061,13.061,13.061h46.498v-26.122H13.061
		C5.747,313.469,0,319.216,0,326.531z"/>
</g>
<path style="fill:#4DCFE0;" d="M385.045,56.947H83.069c-14.629,0-26.122,11.494-26.122,26.122v301.975
	c0,14.629,11.494,26.122,26.122,26.122h301.975c14.629,0,26.122-11.494,26.122-26.122V83.069
	C411.167,68.441,399.673,56.947,385.045,56.947z"/>
<g>
	<path style="fill:#00BBD3;" d="M234.057,206.89c-15.151,0-27.167,12.016-27.167,27.167c0,15.151,12.016,27.167,27.167,27.167
		c15.151,0,27.167-12.016,27.167-27.167C261.224,218.906,249.208,206.89,234.057,206.89z"/>
	<path style="fill:#00BBD3;" d="M342.204,211.592l-16.196-2.612c-2.09-7.837-5.224-15.151-8.882-21.943l9.404-13.584
		c2.09-3.135,2.09-7.314-1.045-9.927l-20.376-20.376c-3.135-3.135-7.314-3.135-10.449-1.045l-13.584,9.404
		c-6.792-4.18-14.629-7.314-21.943-8.882l-2.612-16.196c0-2.09-1.045-3.135-2.612-4.702c-1.567-1.045-3.135-1.567-5.225-1.567
		h-29.257c-3.657,0-7.314,2.612-7.837,6.269l-2.612,16.196c-7.837,2.09-15.151,5.224-21.943,8.882l-13.584-9.404
		c-3.135-2.09-7.314-2.09-10.449,0.522l-20.376,20.376c-2.612,3.135-2.612,7.314-0.522,10.449l9.404,13.584
		c-4.18,6.792-7.314,14.629-8.882,21.943l-16.196,2.612c-3.657,0.522-6.269,3.657-6.269,7.837v29.257
		c0,3.657,2.612,7.314,6.269,7.837l16.196,2.612c2.09,7.837,5.224,15.151,8.882,21.943l-9.404,13.584
		c-2.09,3.135-2.09,7.314,0.522,10.449l20.376,20.376c2.612,2.612,6.792,3.135,9.927,1.045l13.584-9.404
		c5.224,3.135,10.971,5.747,16.196,7.314c2.09,0.522,3.657,1.045,5.747,1.567l2.612,16.196c0.522,1.567,1.045,3.135,2.612,4.702
		c0.522,0.522,1.567,1.045,2.612,1.045c1.045,0.522,2.09,0.522,3.135,0.522l0,0h29.257c1.045,0,1.567,0,2.612-0.522
		c1.045-0.522,2.612-1.045,3.657-2.09c1.045-1.045,1.567-2.09,1.567-3.657l2.612-16.196c7.837-2.09,15.151-5.224,21.943-8.882
		l13.584,9.404c1.567,1.045,3.135,1.567,5.224,1.567c1.045,0,1.567-0.522,2.612-0.522c1.045-0.522,1.567-1.045,2.09-1.567
		l20.375-20.376c2.612-2.612,3.135-6.792,1.045-9.927l-9.404-14.629c4.18-6.792,7.314-14.629,8.882-21.943l16.718-2.612
		c3.657-0.522,6.269-3.657,6.269-7.837v-29.257C348.473,215.771,345.861,212.114,342.204,211.592z M234.057,276.898
		c-23.51,0-42.841-19.331-42.841-42.841s19.331-42.841,42.841-42.841s42.841,19.331,42.841,42.841S257.567,276.898,234.057,276.898z
		"/>
</g>
<g>
</g>
<g>
</g>
<g>
</g>
<g>
</g>
<g>
</g>
<g>
</g>
<g>
</g>
<g>
</g>
<g>
</g>
<g>
</g>
<g>
</g>
<g>
</g>
<g>
</g>
<g>
</g>
<g>
</g>
</svg>
