<?xml version="1.0" encoding="iso-8859-1"?>
<!-- Generator: Adobe Illustrator 19.0.0, SVG Export Plug-In . SVG Version: 6.00 Build 0)  -->
<svg version="1.1" id="Capa_1" xmlns="http://www.w3.org/2000/svg" xmlns:xlink="http://www.w3.org/1999/xlink" x="0px" y="0px"
	 viewBox="0 0 487.967 487.967" style="enable-background:new 0 0 487.967 487.967;" xml:space="preserve">
<path style="fill:#4DCFE0;" d="M382.433,89.339h-277.42c-8.882,0-15.673,6.792-15.673,15.673v277.42
	c0,8.882,6.792,15.673,15.673,15.673h277.42c8.882,0,15.673-6.792,15.673-15.673v-277.42
	C398.106,96.131,391.314,89.339,382.433,89.339z"/>
<g>
	<path style="fill:#D4E1F4;" d="M214.204,80.98c8.882,0,15.673-6.792,15.673-15.673V15.673C229.878,6.792,223.086,0,214.204,0
		s-15.673,6.792-15.673,15.673v49.633C198.531,74.188,205.322,80.98,214.204,80.98z"/>
	<path style="fill:#D4E1F4;" d="M273.763,80.98c8.882,0,15.673-6.792,15.673-15.673V15.673C289.437,6.792,282.645,0,273.763,0
		c-8.882,0-15.673,6.792-15.673,15.673v49.633C258.09,74.188,264.882,80.98,273.763,80.98z"/>
	<path style="fill:#D4E1F4;" d="M154.645,80.98c8.882,0,15.673-6.792,15.673-15.673V15.673C170.318,6.792,163.527,0,154.645,0
		s-15.673,6.792-15.673,15.673v49.633C138.971,74.188,145.763,80.98,154.645,80.98z"/>
	<path style="fill:#D4E1F4;" d="M333.322,80.98c8.882,0,15.673-6.792,15.673-15.673V15.673C348.996,6.792,342.204,0,333.322,0
		c-8.882,0-15.673,6.792-15.673,15.673v49.633C317.649,74.188,324.441,80.98,333.322,80.98z"/>
	<path style="fill:#D4E1F4;" d="M214.204,406.988c-8.882,0-15.673,6.792-15.673,15.673v49.633c0,8.882,6.792,15.673,15.673,15.673
		s15.673-6.792,15.673-15.673v-49.633C229.878,413.78,223.086,406.988,214.204,406.988z"/>
	<path style="fill:#D4E1F4;" d="M273.763,406.988c-8.882,0-15.673,6.792-15.673,15.673v49.633c0,8.882,6.792,15.673,15.673,15.673
		c8.882,0,15.673-6.792,15.673-15.673v-49.633C289.437,413.78,282.645,406.988,273.763,406.988z"/>
	<path style="fill:#D4E1F4;" d="M154.645,406.988c-8.882,0-15.673,6.792-15.673,15.673v49.633c0,8.882,6.792,15.673,15.673,15.673
		c8.882,0,15.673-6.792,15.673-15.673v-49.633C170.318,413.78,163.527,406.988,154.645,406.988z"/>
	<path style="fill:#D4E1F4;" d="M333.322,406.988c-8.882,0-15.673,6.792-15.673,15.673v49.633c0,8.882,6.792,15.673,15.673,15.673
		c8.882,0,15.673-6.792,15.673-15.673v-49.633C348.996,413.78,342.204,406.988,333.322,406.988z"/>
	<path style="fill:#D4E1F4;" d="M472.294,198.531h-49.633c-8.882,0-15.673,6.792-15.673,15.673s6.792,15.673,15.673,15.673h49.633
		c8.882,0,15.673-6.792,15.673-15.673S481.176,198.531,472.294,198.531z"/>
	<path style="fill:#D4E1F4;" d="M472.294,258.09h-49.633c-8.882,0-15.673,6.792-15.673,15.673c0,8.882,6.792,15.673,15.673,15.673
		h49.633c8.882,0,15.673-6.792,15.673-15.673C487.967,264.882,481.176,258.09,472.294,258.09z"/>
	<path style="fill:#D4E1F4;" d="M422.661,170.318h49.633c8.882,0,15.673-6.792,15.673-15.673s-6.792-15.673-15.673-15.673h-49.633
		c-8.882,0-15.673,6.792-15.673,15.673S413.78,170.318,422.661,170.318z"/>
	<path style="fill:#D4E1F4;" d="M472.294,317.649h-49.633c-8.882,0-15.673,6.792-15.673,15.673c0,8.882,6.792,15.673,15.673,15.673
		h49.633c8.882,0,15.673-6.792,15.673-15.673C487.967,324.441,481.176,317.649,472.294,317.649z"/>
	<path style="fill:#D4E1F4;" d="M65.306,198.531H15.673C6.792,198.531,0,205.322,0,214.204s6.792,15.673,15.673,15.673h49.633
		c8.882,0,15.673-6.792,15.673-15.673S74.188,198.531,65.306,198.531z"/>
	<path style="fill:#D4E1F4;" d="M65.306,258.09H15.673C6.792,258.09,0,264.882,0,273.763c0,8.882,6.792,15.673,15.673,15.673h49.633
		c8.882,0,15.673-6.792,15.673-15.673C80.98,264.882,74.188,258.09,65.306,258.09z"/>
	<path style="fill:#D4E1F4;" d="M65.306,138.971H15.673C6.792,138.971,0,145.763,0,154.645c0,8.882,6.792,15.673,15.673,15.673
		h49.633c8.882,0,15.673-6.792,15.673-15.673S74.188,138.971,65.306,138.971z"/>
	<path style="fill:#D4E1F4;" d="M65.306,317.649H15.673C6.792,317.649,0,324.441,0,333.322c0,8.882,6.792,15.673,15.673,15.673
		h49.633c8.882,0,15.673-6.792,15.673-15.673C80.98,324.441,74.188,317.649,65.306,317.649z"/>
</g>
<path style="fill:#00BBD3;" d="M293.616,178.678h-99.265c-8.882,0-15.673,6.792-15.673,15.673v99.265
	c0,8.882,6.792,15.673,15.673,15.673h99.265c8.882,0,15.673-6.792,15.673-15.673v-99.265
	C309.29,185.469,302.498,178.678,293.616,178.678z"/>
<rect x="210.024" y="210.024" style="fill:#D4E1F4;" width="67.918" height="67.918"/>
<g>
</g>
<g>
</g>
<g>
</g>
<g>
</g>
<g>
</g>
<g>
</g>
<g>
</g>
<g>
</g>
<g>
</g>
<g>
</g>
<g>
</g>
<g>
</g>
<g>
</g>
<g>
</g>
<g>
</g>
</svg>
