<?xml version="1.0" encoding="iso-8859-1"?>
<!-- Generator: Adobe Illustrator 19.0.0, SVG Export Plug-In . SVG Version: 6.00 Build 0)  -->
<svg version="1.1" id="Capa_1" xmlns="http://www.w3.org/2000/svg" xmlns:xlink="http://www.w3.org/1999/xlink" x="0px" y="0px"
	 viewBox="0 0 435.722 435.722" style="enable-background:new 0 0 435.722 435.722;" xml:space="preserve">
<g>
	<path style="fill:#3A2C51;" d="M167.184,15.673C167.184,6.792,160.392,0,151.51,0s-15.673,6.792-15.673,15.673v28.212h31.347
		V15.673z"/>
	<path style="fill:#3A2C51;" d="M299.886,15.673C299.886,6.792,293.094,0,284.212,0c-8.882,0-15.673,6.792-15.673,15.673v28.212
		h31.347V15.673z"/>
	<path style="fill:#3A2C51;" d="M135.837,420.049c0,8.882,6.792,15.673,15.673,15.673s15.673-6.792,15.673-15.673v-28.212h-31.347
		V420.049z"/>
	<path style="fill:#3A2C51;" d="M268.539,420.049c0,8.882,6.792,15.673,15.673,15.673c8.882,0,15.673-6.792,15.673-15.673v-28.212
		h-31.347C268.539,391.837,268.539,420.049,268.539,420.049z"/>
	<path style="fill:#3A2C51;" d="M420.049,167.184c8.882,0,15.673-6.792,15.673-15.673s-6.792-15.673-15.673-15.673h-28.212v31.347
		H420.049z"/>
	<path style="fill:#3A2C51;" d="M420.049,250.253h-28.212V281.6h28.212c8.882,0,15.673-6.792,15.673-15.673
		C435.722,257.045,428.931,250.253,420.049,250.253z"/>
	<path style="fill:#3A2C51;" d="M15.673,135.837C6.792,135.837,0,142.629,0,151.51s6.792,15.673,15.673,15.673h28.212v-31.347
		H15.673z"/>
	<path style="fill:#3A2C51;" d="M15.673,250.253C6.792,250.253,0,257.045,0,265.927c0,8.882,6.792,15.673,15.673,15.673h28.212
		v-31.347H15.673z"/>
</g>
<path style="fill:#4DCFE0;" d="M376.163,41.273H59.559c-10.449,0-18.286,7.837-18.286,18.286v316.604
	c0,10.449,7.837,18.286,18.286,18.286h316.604c10.449,0,18.286-7.837,18.286-18.286V59.559
	C394.449,49.11,386.612,41.273,376.163,41.273z"/>
<path style="fill:#00BBD3;" d="M157.257,294.661h121.731c8.882,0,15.673-6.792,15.673-15.673V157.257
	c0-8.882-6.792-15.673-15.673-15.673H157.257c-8.882,0-15.673,6.792-15.673,15.673v121.731
	C141.584,287.869,148.376,294.661,157.257,294.661z"/>
<rect x="172.931" y="172.931" style="fill:#D4E1F4;" width="90.384" height="90.384"/>
<g>
</g>
<g>
</g>
<g>
</g>
<g>
</g>
<g>
</g>
<g>
</g>
<g>
</g>
<g>
</g>
<g>
</g>
<g>
</g>
<g>
</g>
<g>
</g>
<g>
</g>
<g>
</g>
<g>
</g>
</svg>
