<?xml version="1.0" encoding="iso-8859-1"?>
<!-- Generator: Adobe Illustrator 19.0.0, SVG Export Plug-In . SVG Version: 6.00 Build 0)  -->
<svg version="1.1" id="Capa_1" xmlns="http://www.w3.org/2000/svg" xmlns:xlink="http://www.w3.org/1999/xlink" x="0px" y="0px"
	 viewBox="0 0 511.999 511.999" style="enable-background:new 0 0 511.999 511.999;" xml:space="preserve">
<path style="fill:#1BD9DE;" d="M105.122,341.924c-78.326,0-129.28-83.278-93.428-152.93c0,0,79.945-161.178,79.98-161.25
	c5.068-10.195,21.768-10.254,26.895,0l79.863,160.957C234.606,259.302,182.885,341.924,105.122,341.924z"/>
<path style="fill:#15B7BE;" d="M406.906,341.924c-79.552,0-128.471-85.088-93.428-152.944c0,0,79.944-161.161,79.98-161.235
	c5.098-10.195,21.797-10.254,26.895,0l79.863,160.942C536.426,259.466,484.629,341.924,406.906,341.924z"/>
<path style="fill:#1DE8F1;" d="M376.422,295.424L269.62,80.325c-2.699-5.101-8.101-7.8-13.499-7.8c-5.398,0-10.8,2.699-13.499,7.8
	l-106.8,215.099c-9.602,19.2-14.7,39.901-14.7,61.5c0,74.399,60.601,135,135,135s135-60.601,135-135
	C391.122,335.325,386.024,314.625,376.422,295.424z"/>
<path style="fill:#1BD9DE;" d="M391.122,356.924c0,74.399-60.601,135-135,135V72.525c5.398,0,10.8,2.699,13.499,7.8l106.802,215.099
	C386.024,314.625,391.122,335.325,391.122,356.924z"/>
<g>
</g>
<g>
</g>
<g>
</g>
<g>
</g>
<g>
</g>
<g>
</g>
<g>
</g>
<g>
</g>
<g>
</g>
<g>
</g>
<g>
</g>
<g>
</g>
<g>
</g>
<g>
</g>
<g>
</g>
</svg>
