<?xml version="1.0" encoding="iso-8859-1"?>
<!-- Generator: Adobe Illustrator 19.0.0, SVG Export Plug-In . SVG Version: 6.00 Build 0)  -->
<svg version="1.1" id="Capa_1" xmlns="http://www.w3.org/2000/svg" xmlns:xlink="http://www.w3.org/1999/xlink" x="0px" y="0px"
	 viewBox="0 0 512 512" style="enable-background:new 0 0 512 512;" xml:space="preserve">
<path style="fill:#E0E0E3;" d="M125.424,287.937l0.33,155.197c0,22.288,18.133,40.421,40.421,40.421h179.649
	c22.288,0,40.421-18.133,40.421-40.421l-0.668-155.197H125.424z"/>
<path style="fill:#CFCFD3;" d="M230.715,457.606c-22.288,0-40.421-18.133-40.421-40.421l-0.275-129.248h-64.595l0.33,155.197
	c0,22.288,18.133,40.421,40.421,40.421h179.649c17.189,0,31.898-10.79,37.732-25.949H230.715z"/>
<path style="fill:#C7C5CC;" d="M344.845,328.67H166.156c-22.496,0-40.732-18.236-40.732-40.732l0,0
	c0-22.496,18.236-40.732,40.732-40.732h178.689c22.496,0,40.732,18.236,40.732,40.732l0,0
	C385.578,310.433,367.342,328.67,344.845,328.67z"/>
<g>
	<path style="fill:#AEABB7;" d="M224.463,306.455H184.56c-8.548,0-15.478-6.929-15.478-15.478l0,0
		c0-8.548,6.929-15.478,15.478-15.478h39.903c8.548,0,15.478,6.929,15.478,15.478l0,0
		C239.94,299.525,233.011,306.455,224.463,306.455z"/>
	<path style="fill:#AEABB7;" d="M330.41,306.455h-39.903c-8.548,0-15.478-6.929-15.478-15.478l0,0
		c0-8.548,6.929-15.478,15.478-15.478h39.903c8.548,0,15.478,6.929,15.478,15.478l0,0
		C345.887,299.525,338.958,306.455,330.41,306.455z"/>
	<path style="fill:#AEABB7;" d="M344.845,247.205H166.156c-12.928,0-24.441,6.03-31.903,15.423c4.348-1.583,9.04-2.448,13.936-2.448
		h178.689c22.496,0,40.732,18.236,40.732,40.732l0,0c0,9.567-3.308,18.358-8.83,25.31c15.632-5.692,26.797-20.684,26.797-38.284l0,0
		C385.578,265.441,367.342,247.205,344.845,247.205z"/>
</g>
<path style="fill:#B2AFBC;" d="M363.267,171.269c-5.533-2.812-11.79-4.407-18.422-4.407H166.156
	c-22.496,0-40.732,18.236-40.732,40.732l0,0c0,22.496,18.236,40.732,40.732,40.732h178.69c6.632,0,12.888-1.595,18.422-4.407v-72.65
	H363.267z"/>
<path style="fill:#A19EAF;" d="M141.557,226.058c0-22.496,18.236-40.732,40.732-40.732h178.69c0.768,0,1.531,0.026,2.289,0.069
	v-14.125c-5.533-2.812-11.79-4.407-18.422-4.407H166.156c-22.496,0-40.732,18.236-40.732,40.732
	c0,14.736,7.827,27.644,19.549,34.795C142.781,237.389,141.557,231.868,141.557,226.058z"/>
<path style="fill:#E0E0E3;" d="M287.439,294.321v-38.717c-9.266-11.596-13.826-26.17-12.841-41.058
	c1.908-28.885,27.985-54.216,56.944-55.313c0.744-0.028,1.482-0.042,2.218-0.042c18.403,0,36.065,8.712,47.242,23.305
	c1.971,2.571,3.057,5.794,3.057,9.072v54.014c0,3.265-1.061,6.451-2.988,8.976c-11.207,14.685-28.209,23.208-46.646,23.382
	l-7.063,0.067v16.312c0,3.009-2.439,5.447-5.447,5.447h-29.026C289.878,299.769,287.439,297.33,287.439,294.321z"/>
<path style="fill:#BCBCC9;" d="M299.547,214.545c1.685-25.495,22.201-48.21,46.905-53.948c-4.144-0.914-8.396-1.407-12.693-1.407
	c-0.735,0-1.474,0.014-2.218,0.042c-28.958,1.098-55.035,26.428-56.944,55.313c-0.984,14.888,3.575,29.462,12.841,41.058v38.842
	c0,2.94,2.383,5.324,5.324,5.324h19.626v-44.165C303.122,244.008,298.563,229.433,299.547,214.545z"/>
<path style="fill:#8F8F99;" d="M309.895,218.074c-5.779,0-10.48-4.701-10.48-10.48c0-5.779,4.701-10.48,10.48-10.48
	s10.48,4.701,10.48,10.48C320.374,213.373,315.673,218.074,309.895,218.074z"/>
<path style="fill:#777787;" d="M309.895,197.115c-5.056,0-9.288,3.6-10.266,8.371c0.887-0.245,1.817-0.386,2.781-0.386
	c5.779,0,10.48,4.701,10.48,10.48c0,0.723-0.074,1.427-0.214,2.109c4.431-1.223,7.699-5.279,7.699-10.093
	C320.374,201.815,315.673,197.115,309.895,197.115z"/>
<path style="fill:#8F8F99;" d="M350.815,243.025c-5.779,0-10.48-4.701-10.48-10.48V204.6c0-5.779,4.701-10.48,10.48-10.48
	s10.48,4.701,10.48,10.48v27.945C361.294,238.323,356.594,243.025,350.815,243.025z"/>
<path style="fill:#777787;" d="M350.815,194.12c-5.584,0-10.148,4.393-10.451,9.904c1.199-0.479,2.503-0.75,3.87-0.75
	c5.779,0,10.48,4.701,10.48,10.48v27.945c0,0.195-0.019,0.384-0.029,0.576c3.866-1.544,6.608-5.32,6.608-9.73V204.6
	C361.294,198.821,356.594,194.12,350.815,194.12z"/>
<path style="fill:#E0E0E3;" d="M199.809,300.912c-8.365,0-15.169-6.805-15.169-15.169V147.264l-7.062-0.067
	c-18.439-0.175-35.441-8.697-46.646-23.382c-1.926-2.523-2.988-5.712-2.988-8.977V60.823c0-3.278,1.086-6.5,3.057-9.073
	c11.177-14.593,28.838-23.304,47.241-23.304c0.737,0,1.474,0.014,2.214,0.041c28.964,1.099,55.04,26.429,56.949,55.315
	c0.984,14.887-3.576,29.46-12.841,41.057v160.885c0,8.364-6.805,15.169-15.169,15.169H199.809z"/>
<path style="fill:#BCBCC9;" d="M219.176,287.937c-8.365,0-15.169-6.805-15.169-15.169V134.289l-7.062-0.067
	c-18.439-0.175-35.441-8.697-46.646-23.382c-1.926-2.523-2.988-5.712-2.988-8.977V47.848c0-3.278,1.086-6.5,3.057-9.073
	c1.553-2.028,3.244-3.929,5.032-5.723c-9.531,3.971-18.022,10.373-24.399,18.697c-1.972,2.574-3.057,5.797-3.057,9.073v54.014
	c0,3.265,1.062,6.454,2.988,8.977c11.206,14.685,28.208,23.208,46.646,23.382l7.062,0.067v138.479
	c0,8.364,6.805,15.169,15.169,15.169h9.583c7.617,0,13.923-5.65,14.992-12.975H219.176z"/>
<path style="fill:#8F8F99;" d="M202.105,87.329c-5.779,0-10.48-4.701-10.48-10.48c0-5.779,4.701-10.48,10.48-10.48
	c5.779,0,10.48,4.701,10.48,10.48C212.585,82.628,207.884,87.329,202.105,87.329z"/>
<path style="fill:#777787;" d="M202.105,66.37c-4.338,0-8.067,2.649-9.658,6.413c1.026-0.336,2.12-0.525,3.257-0.525
	c5.779,0,10.48,4.701,10.48,10.48c0,1.441-0.292,2.814-0.821,4.066c4.188-1.373,7.223-5.314,7.223-9.955
	C212.585,71.071,207.884,66.37,202.105,66.37z"/>
<path style="fill:#8F8F99;" d="M161.185,112.28c-5.779,0-10.48-4.701-10.48-10.48V73.855c0-5.779,4.701-10.48,10.48-10.48
	c5.779,0,10.48,4.701,10.48,10.48v27.945C171.665,107.578,166.964,112.28,161.185,112.28z"/>
<path style="fill:#777787;" d="M161.185,63.376c-4.817,0-8.873,3.27-10.094,7.703c0.634-0.121,1.286-0.19,1.955-0.19
	c5.779,0,10.48,4.701,10.48,10.48v27.945c0,0.962-0.142,1.891-0.385,2.777c4.847-0.919,8.524-5.18,8.524-10.29V73.855
	C171.665,68.077,166.964,63.376,161.185,63.376z"/>
<g>
	<circle style="fill:#8F8F99;" cx="202.105" cy="110.784" r="7.485"/>
	<circle style="fill:#8F8F99;" cx="309.895" cy="241.529" r="7.485"/>
</g>
<g>
	<circle style="fill:#C7C5CC;" cx="256" cy="378.262" r="11.977"/>
	<path style="fill:#C7C5CC;" d="M60.881,316.881C27.311,316.881,0,289.57,0,256s27.311-60.881,60.881-60.881
		c4.135,0,7.485,3.351,7.485,7.485s-3.35,7.485-7.485,7.485c-25.315,0-45.91,20.596-45.91,45.91s20.596,45.91,45.91,45.91
		c4.135,0,7.485,3.351,7.485,7.485C68.366,313.529,65.016,316.881,60.881,316.881z"/>
	<path style="fill:#C7C5CC;" d="M60.881,285.941c-16.51,0-29.942-13.432-29.942-29.942s13.432-29.942,29.942-29.942
		c4.135,0,7.485,3.351,7.485,7.485s-3.35,7.485-7.485,7.485c-8.255,0-14.971,6.716-14.971,14.971
		c0,8.255,6.716,14.971,14.971,14.971c4.135,0,7.485,3.351,7.485,7.485C68.366,282.59,65.016,285.941,60.881,285.941z"/>
	<path style="fill:#C7C5CC;" d="M90.324,261.988h-9.981c-4.135,0-7.485-3.351-7.485-7.485s3.35-7.485,7.485-7.485h9.981
		c4.135,0,7.485,3.351,7.485,7.485S94.459,261.988,90.324,261.988z"/>
	<path style="fill:#C7C5CC;" d="M451.119,316.881c-4.135,0-7.485-3.351-7.485-7.485c0-4.134,3.35-7.485,7.485-7.485
		c25.315,0,45.91-20.596,45.91-45.91s-20.596-45.91-45.91-45.91c-4.135,0-7.485-3.351-7.485-7.485s3.35-7.485,7.485-7.485
		c33.57,0,60.881,27.311,60.881,60.881S484.689,316.881,451.119,316.881z"/>
	<path style="fill:#C7C5CC;" d="M451.119,285.941c-4.135,0-7.485-3.351-7.485-7.485c0-4.134,3.35-7.485,7.485-7.485
		c8.255,0,14.971-6.716,14.971-14.971c0-8.255-6.716-14.971-14.971-14.971c-4.135,0-7.485-3.351-7.485-7.485s3.35-7.485,7.485-7.485
		c16.51,0,29.942,13.432,29.942,29.942S467.629,285.941,451.119,285.941z"/>
	<path style="fill:#C7C5CC;" d="M431.657,261.988h-9.98c-4.135,0-7.485-3.351-7.485-7.485s3.35-7.485,7.485-7.485h9.98
		c4.135,0,7.485,3.351,7.485,7.485S435.792,261.988,431.657,261.988z"/>
</g>
<path style="fill:#D2D2D8;" d="M184.639,269.805v15.938c0,8.364,6.805,15.169,15.169,15.169h9.583
	c8.365,0,15.169-6.805,15.169-15.169v-15.938H184.639z"/>
<path style="fill:#9E9EB7;" d="M211.373,300.767c0.315-0.042,0.632-0.083,0.941-0.144c0.2-0.039,0.394-0.092,0.591-0.139
	c0.267-0.064,0.535-0.128,0.797-0.206c0.213-0.063,0.42-0.137,0.629-0.21c0.235-0.081,0.468-0.164,0.697-0.255
	c0.221-0.089,0.437-0.186,0.653-0.284c0.204-0.094,0.405-0.19,0.605-0.291c0.227-0.117,0.45-0.239,0.671-0.366
	c0.172-0.099,0.34-0.203,0.507-0.308c0.235-0.149,0.466-0.3,0.692-0.46c0.134-0.095,0.264-0.196,0.394-0.294
	c0.246-0.188,0.489-0.376,0.722-0.578c0.086-0.074,0.167-0.153,0.251-0.229c0.265-0.24,0.527-0.482,0.775-0.74
	c0.012-0.012,0.022-0.026,0.034-0.038c2.128-2.227,3.588-5.098,4.054-8.288h-5.208c-8.365,0-15.169-6.805-15.169-15.169v-2.963
	h-19.368v15.938c0,8.364,6.805,15.169,15.169,15.169h9.583c0.5,0,0.995-0.028,1.483-0.075
	C211.043,300.82,211.206,300.789,211.373,300.767z"/>
<g>
</g>
<g>
</g>
<g>
</g>
<g>
</g>
<g>
</g>
<g>
</g>
<g>
</g>
<g>
</g>
<g>
</g>
<g>
</g>
<g>
</g>
<g>
</g>
<g>
</g>
<g>
</g>
<g>
</g>
</svg>
