<?xml version="1.0" encoding="iso-8859-1"?>
<!-- Generator: Adobe Illustrator 19.0.0, SVG Export Plug-In . SVG Version: 6.00 Build 0)  -->
<svg version="1.1" id="Capa_1" xmlns="http://www.w3.org/2000/svg" xmlns:xlink="http://www.w3.org/1999/xlink" x="0px" y="0px"
	 viewBox="0 0 512 512" style="enable-background:new 0 0 512 512;" xml:space="preserve">
<path style="fill:#858384;" d="M256,0c-15.737,0-28.495,12.758-28.495,28.495v27.937h56.99V28.495C284.495,12.758,271.737,0,256,0z"
	/>
<circle style="fill:#BAB8B9;" cx="256" cy="20.901" r="6.908"/>
<path style="fill:#FF8C57;" d="M419.438,56.432H92.562c-18.819,0-34.076,15.256-34.076,34.076v387.415
	c0,18.819,15.257,34.076,34.076,34.076h326.876c18.819,0,34.076-15.257,34.076-34.076V90.509
	C453.515,71.689,438.258,56.432,419.438,56.432z"/>
<path style="fill:#EC6A34;" d="M129.613,61.505v45.803c0,25.431,20.689,46.12,46.119,46.12h160.535
	c25.431,0,46.12-20.689,46.12-46.12V61.505c0-1.714-0.102-3.406-0.285-5.072H129.898C129.715,58.099,129.613,59.791,129.613,61.505z
	"/>
<path style="fill:#EFEDEE;" d="M383.066,105.628H128.934c-11.204,0-20.286,9.083-20.286,20.286v312.199
	c0,11.204,9.083,20.286,20.286,20.286h254.13c11.204,0,20.286-9.083,20.286-20.286V125.914
	C403.352,114.71,394.269,105.628,383.066,105.628z"/>
<g>
	<path style="fill:#3A484A;" d="M153.525,210.491c-1.413,0-2.822-0.387-4.062-1.154c-2.278-1.408-3.664-3.895-3.664-6.573v-16.605
		c0-4.267,3.459-7.726,7.726-7.726c4.267,0,7.726,3.459,7.726,7.726v4.104l34.571-17.285c3.818-1.908,8.457-0.362,10.366,3.455
		s0.362,8.458-3.455,10.366l-45.752,22.876C155.889,210.22,154.705,210.491,153.525,210.491z"/>
	<path style="fill:#3A484A;" d="M358.476,199.053H247.653c-4.267,0-7.726-3.459-7.726-7.726s3.459-7.726,7.726-7.726h110.822
		c4.267,0,7.726,3.459,7.726,7.726S362.743,199.053,358.476,199.053z"/>
	<path style="fill:#3A484A;" d="M153.525,270.949c-1.413,0-2.822-0.387-4.062-1.154c-2.278-1.408-3.664-3.895-3.664-6.573v-16.605
		c0-4.267,3.459-7.726,7.726-7.726c4.267,0,7.726,3.459,7.726,7.726v4.104l34.571-17.285c3.818-1.909,8.457-0.362,10.366,3.455
		c1.909,3.817,0.362,8.458-3.455,10.366l-45.752,22.876C155.889,270.679,154.705,270.949,153.525,270.949z"/>
	<path style="fill:#3A484A;" d="M358.476,259.511H247.653c-4.267,0-7.726-3.459-7.726-7.726s3.459-7.726,7.726-7.726h110.822
		c4.267,0,7.726,3.459,7.726,7.726S362.743,259.511,358.476,259.511z"/>
	<path style="fill:#3A484A;" d="M153.525,331.407c-1.413,0-2.822-0.387-4.062-1.154c-2.278-1.408-3.664-3.895-3.664-6.573v-16.605
		c0-4.267,3.459-7.726,7.726-7.726c4.267,0,7.726,3.459,7.726,7.726v4.104l34.571-17.285c3.818-1.909,8.457-0.362,10.366,3.455
		c1.909,3.817,0.362,8.458-3.455,10.366l-45.752,22.876C155.889,331.137,154.705,331.407,153.525,331.407z"/>
	<path style="fill:#3A484A;" d="M358.476,319.969H247.653c-4.267,0-7.726-3.459-7.726-7.726c0-4.267,3.459-7.726,7.726-7.726
		h110.822c4.267,0,7.726,3.459,7.726,7.726C366.202,316.51,362.743,319.969,358.476,319.969z"/>
	<path style="fill:#3A484A;" d="M153.525,391.866c-1.413,0-2.822-0.387-4.062-1.154c-2.278-1.408-3.664-3.895-3.664-6.573v-16.605
		c0-4.267,3.459-7.726,7.726-7.726c4.267,0,7.726,3.459,7.726,7.726v4.104l34.571-17.285c3.818-1.909,8.457-0.362,10.366,3.455
		s0.362,8.458-3.455,10.366l-45.752,22.876C155.889,391.595,154.705,391.866,153.525,391.866z"/>
	<path style="fill:#3A484A;" d="M358.476,380.428H247.653c-4.267,0-7.726-3.459-7.726-7.726c0-4.267,3.459-7.726,7.726-7.726
		h110.822c4.267,0,7.726,3.459,7.726,7.726C366.202,376.969,362.743,380.428,358.476,380.428z"/>
</g>
<path style="fill:#D4D2D3;" d="M129.613,105.628v1.68c0,25.431,20.689,46.12,46.119,46.12h160.535
	c25.431,0,46.12-20.689,46.12-46.12v-1.68C382.388,105.628,129.613,105.628,129.613,105.628z"/>
<path style="fill:#9E9C9D;" d="M336.268,41.139H175.732c-11.248,0-20.365,9.118-20.365,20.365v45.803
	c0,11.248,9.118,20.365,20.365,20.365h160.535c11.247,0,20.365-9.118,20.365-20.365V61.505
	C356.632,50.257,347.515,41.139,336.268,41.139z"/>
<g>
	<path style="fill:#3A484A;" d="M205.858,94.248c-4.267,0-7.726-3.459-7.726-7.726v-9.075c0-4.267,3.459-7.726,7.726-7.726
		s7.726,3.459,7.726,7.726v9.075C213.584,90.789,210.125,94.248,205.858,94.248z"/>
	<path style="fill:#3A484A;" d="M306.142,94.248c-4.267,0-7.726-3.459-7.726-7.726v-9.075c0-4.267,3.459-7.726,7.726-7.726
		s7.726,3.459,7.726,7.726v9.075C313.868,90.789,310.409,94.248,306.142,94.248z"/>
	<path style="fill:#3A484A;" d="M256,99.092c-7.053,0-13.684-2.959-18.193-8.117c-2.809-3.213-2.481-8.094,0.731-10.902
		c3.213-2.808,8.094-2.481,10.902,0.732c1.575,1.801,3.965,2.834,6.559,2.834c2.594,0,4.984-1.033,6.559-2.834
		c2.807-3.213,7.688-3.541,10.902-0.732c3.213,2.808,3.541,7.689,0.731,10.902C269.684,96.133,263.053,99.092,256,99.092z"/>
</g>
<g>
</g>
<g>
</g>
<g>
</g>
<g>
</g>
<g>
</g>
<g>
</g>
<g>
</g>
<g>
</g>
<g>
</g>
<g>
</g>
<g>
</g>
<g>
</g>
<g>
</g>
<g>
</g>
<g>
</g>
</svg>
