<?xml version="1.0" encoding="iso-8859-1"?>
<!-- Generator: Adobe Illustrator 19.0.0, SVG Export Plug-In . SVG Version: 6.00 Build 0)  -->
<svg version="1.1" id="Capa_1" xmlns="http://www.w3.org/2000/svg" xmlns:xlink="http://www.w3.org/1999/xlink" x="0px" y="0px"
	 viewBox="0 0 512 512" style="enable-background:new 0 0 512 512;" xml:space="preserve">
<path style="fill:#54B88B;" d="M256,512c105.317,0,190.694-85.376,190.694-190.694C446.694,160.245,339.791,0,256,0
	S65.306,160.245,65.306,321.306C65.306,426.624,150.683,512,256,512z"/>
<path style="fill:#FBDD56;" d="M256,0c-51.928,0-112.73,61.547-151.465,146.689c42.849,6.937,92.412,10.808,151.465,10.808
	s108.616-3.871,151.465-10.808C368.729,61.547,307.928,0,256,0z"/>
<path style="fill:#B5E489;" d="M65.322,322.529C65.981,427.282,151.092,512,256,512s190.019-84.718,190.678-189.471
	c0,0-74.056-33.831-190.678-33.831S65.322,322.529,65.322,322.529z"/>
<path style="fill:#FFFFFF;" d="M436.035,371.327c-10.841,1.967-21.948-1.5-29.716-9.267c-18.918-18.916-49.695-18.917-68.613,0.001
	c-6.33,6.33-14.747,9.817-23.699,9.817c-8.953,0-17.37-3.486-23.7-9.817c-18.918-18.916-49.695-18.916-68.613,0
	c-13.069,13.068-34.332,13.068-47.4,0c-18.918-18.915-49.696-18.917-68.612,0c-7.77,7.768-18.875,11.234-29.717,9.267
	c-1.361-0.248-2.701-0.104-3.912,0.34c1.381,5.057,2.962,10.03,4.74,14.91c14.535,1.555,29.085-3.501,39.496-13.91
	c13.066-13.068,34.332-13.068,47.398,0c18.917,18.914,49.695,18.916,68.614,0c13.066-13.068,34.332-13.068,47.398,0
	c9.164,9.163,21.348,14.21,34.308,14.21c12.959,0,25.143-5.047,34.307-14.21c13.066-13.068,34.331-13.068,47.399,0
	c10.41,10.409,24.958,15.465,39.495,13.91c1.777-4.879,3.358-9.852,4.739-14.907C438.734,371.225,437.395,371.08,436.035,371.327z
	 M372.013,408.554c-12.959,0-25.143,5.047-34.307,14.21c-13.066,13.069-34.331,13.067-47.399,0.001
	c-9.164-9.164-21.348-14.211-34.307-14.211c-12.959,0-25.143,5.047-34.306,14.21c-13.068,13.069-34.332,13.067-47.4,0.001
	c-9.164-9.164-21.348-14.211-34.307-14.211s-25.143,5.047-34.306,14.21c-2.245,2.244-4.774,4.117-7.489,5.616
	c2.834,4.169,5.835,8.214,8.982,12.138c3.278-1.99,6.343-4.377,9.113-7.147c6.33-6.33,14.747-9.816,23.699-9.816
	c8.952,0,17.369,3.486,23.7,9.817c18.917,18.916,49.696,18.915,68.613-0.001c6.33-6.33,14.747-9.816,23.699-9.816
	c8.952,0,17.369,3.486,23.7,9.817c18.914,18.915,49.695,18.917,68.613-0.001c6.33-6.33,14.747-9.816,23.699-9.816
	s17.369,3.486,23.7,9.817c2.77,2.77,5.836,5.154,9.114,7.144c3.146-3.923,6.147-7.968,8.98-12.136
	c-2.715-1.499-5.244-3.371-7.488-5.614C397.155,413.601,384.972,408.554,372.013,408.554z"/>
<path style="fill:#F985AC;" d="M256,0c-39.849,0-84.925,36.245-121.244,91.584c30.73,9.749,68.731,15.668,121.244,15.668
	s90.514-5.919,121.244-15.668C340.925,36.245,295.849,0,256,0z"/>
<g>
	<circle style="fill:#FBDD56;" cx="256" cy="53.626" r="21.275"/>
	<path style="fill:#FBDD56;" d="M191.542,27.026c-9.843,7.842-19.569,17.215-28.995,27.902c3.393,7.244,10.728,12.274,19.257,12.274
		c11.75,0,21.275-9.525,21.275-21.275C203.078,37.69,198.388,30.561,191.542,27.026z"/>
	<path style="fill:#FBDD56;" d="M320.458,27.026c9.843,7.842,19.569,17.215,28.995,27.902c-3.393,7.244-10.728,12.274-19.257,12.274
		c-11.75,0-21.275-9.525-21.275-21.275C308.922,37.69,313.612,30.561,320.458,27.026z"/>
</g>
<g>
	<path style="fill:#414B58;" d="M188.498,225.556c-4.143,0-7.5-3.357-7.5-7.5v-11.394c0-4.143,3.357-7.5,7.5-7.5s7.5,3.357,7.5,7.5
		v11.394C195.998,222.198,192.641,225.556,188.498,225.556z"/>
	<path style="fill:#414B58;" d="M256,246.005L256,246.005c-10.621,0-19.232-8.61-19.232-19.232v-13.982c0-2.899,2.35-5.25,5.25-5.25
		h27.963c2.899,0,5.25,2.35,5.25,5.25v13.982C275.232,237.395,266.621,246.005,256,246.005z"/>
	<path style="fill:#414B58;" d="M323.502,225.556c-4.143,0-7.5-3.357-7.5-7.5v-11.394c0-4.143,3.357-7.5,7.5-7.5
		c4.142,0,7.5,3.357,7.5,7.5v11.394C331.002,222.198,327.645,225.556,323.502,225.556z"/>
</g>
<path style="opacity:0.1;enable-background:new    ;" d="M245.489,0.818C163.545,13.268,65.306,166.909,65.306,321.306
	C65.306,426.624,150.683,512,256,512c9.39,0,18.618-0.691,27.645-2.002C101.718,432.107,182.812,75.73,245.489,0.818z"/>
<g>
</g>
<g>
</g>
<g>
</g>
<g>
</g>
<g>
</g>
<g>
</g>
<g>
</g>
<g>
</g>
<g>
</g>
<g>
</g>
<g>
</g>
<g>
</g>
<g>
</g>
<g>
</g>
<g>
</g>
</svg>
