<?xml version="1.0" encoding="iso-8859-1"?>
<!-- Generator: Adobe Illustrator 19.0.0, SVG Export Plug-In . SVG Version: 6.00 Build 0)  -->
<svg version="1.1" id="Capa_1" xmlns="http://www.w3.org/2000/svg" xmlns:xlink="http://www.w3.org/1999/xlink" x="0px" y="0px"
	 viewBox="0 0 512 512" style="enable-background:new 0 0 512 512;" xml:space="preserve">
<path style="fill:#C4C8F6;" d="M365.204,147.426c-2.806,3.289-6.912,5.189-11.234,5.189H157.046c-4.322,0-8.428-1.9-11.234-5.189
	c-2.806-3.289-4.037-7.641-3.348-11.914l7.109-44.436l4.726-29.538l7.857-49.103C163.298,5.268,169.482,0,176.738,0h157.538
	c7.257,0,13.44,5.268,14.582,12.436l7.857,49.103l4.726,29.538l7.109,44.436C369.241,139.786,368.01,144.138,365.204,147.426z"/>
<path style="fill:#9DA4D6;" d="M361.442,91.077l-4.726-29.538l-7.857-49.103C347.717,5.268,341.534,0,334.277,0H256v152.615h97.969
	c4.322,0,8.428-1.9,11.234-5.189c2.806-3.289,4.037-7.641,3.348-11.914L361.442,91.077z"/>
<path style="fill:#C4C8F6;" d="M368.551,376.487l-7.109,44.436l-4.726,29.538l-7.857,49.103
	c-1.142,7.168-7.326,12.436-14.582,12.436H176.738c-7.257,0-13.44-5.268-14.582-12.436l-7.857-49.103l-4.726-29.538l-7.109-44.436
	c-0.689-4.273,0.542-8.625,3.348-11.914c2.806-3.289,6.912-5.189,11.234-5.189h196.923c4.322,0,8.428,1.9,11.234,5.189
	C368.01,367.862,369.241,372.214,368.551,376.487z"/>
<path style="fill:#9DA4D6;" d="M353.969,359.385H256V512h78.277c7.257,0,13.44-5.268,14.582-12.436l7.857-49.103l4.726-29.538
	l7.109-44.436c0.689-4.273-0.542-8.625-3.348-11.914C362.398,361.285,358.292,359.385,353.969,359.385z"/>
<polygon style="fill:#EDEEF0;" points="361.442,91.077 149.573,91.077 154.299,61.538 356.716,61.538 "/>
<polygon style="fill:#D8D9DD;" points="256,91.077 361.442,91.077 356.716,61.538 256,61.538 "/>
<polygon style="fill:#EDEEF0;" points="361.442,420.923 356.716,450.462 154.299,450.462 149.573,420.923 "/>
<polygon style="fill:#D8D9DD;" points="256,450.462 356.716,450.462 361.442,420.923 256,420.923 "/>
<path style="fill:#2F4552;" d="M363.815,123.077H148.185c-24.431,0-44.308,19.876-44.308,44.308v177.231
	c0,24.431,19.876,44.308,44.308,44.308h215.631c24.431,0,44.308-19.876,44.308-44.308V167.385
	C408.123,142.953,388.247,123.077,363.815,123.077z"/>
<path style="fill:#21323A;" d="M363.815,123.077H256v265.846h107.815c24.431,0,44.308-19.876,44.308-44.308V167.385
	C408.123,142.953,388.247,123.077,363.815,123.077z"/>
<path style="fill:#30D536;" d="M294.893,310.154c-3.811,0-7.62-1.466-10.51-4.391l-38.892-39.385
	c-2.7-2.733-4.227-6.412-4.259-10.255l-0.492-59.077c-0.068-8.157,6.489-14.824,14.646-14.892
	c8.196-0.05,14.824,6.489,14.891,14.646l0.443,53.086l34.682,35.121c5.731,5.804,5.673,15.155-0.131,20.887
	C302.392,308.736,298.642,310.154,294.893,310.154z"/>
<path style="fill:#1CB71C;" d="M270.719,249.886l-0.443-53.086c-0.066-7.95-6.368-14.345-14.276-14.619v94.838l28.384,28.743
	c2.89,2.926,6.698,4.391,10.51,4.391c3.748,0,7.499-1.418,10.377-4.26c5.804-5.731,5.862-15.082,0.131-20.887L270.719,249.886z"/>
<g>
</g>
<g>
</g>
<g>
</g>
<g>
</g>
<g>
</g>
<g>
</g>
<g>
</g>
<g>
</g>
<g>
</g>
<g>
</g>
<g>
</g>
<g>
</g>
<g>
</g>
<g>
</g>
<g>
</g>
</svg>
