<?xml version="1.0" encoding="iso-8859-1"?>
<!-- Generator: Adobe Illustrator 19.0.0, SVG Export Plug-In . SVG Version: 6.00 Build 0)  -->
<svg version="1.1" id="Capa_1" xmlns="http://www.w3.org/2000/svg" xmlns:xlink="http://www.w3.org/1999/xlink" x="0px" y="0px"
	 viewBox="0 0 512 512" style="enable-background:new 0 0 512 512;" xml:space="preserve">
<path style="fill:#2F4552;" d="M305.231,0h-98.462c-24.431,0-44.308,19.876-44.308,44.308v93.538
	c0,8.157,6.613,14.769,14.769,14.769h157.538c8.157,0,14.769-6.613,14.769-14.769V44.308C349.538,19.876,329.662,0,305.231,0z"/>
<path style="fill:#21323A;" d="M305.231,0H256v152.615h78.769c8.157,0,14.769-6.613,14.769-14.769V44.308
	C349.538,19.876,329.662,0,305.231,0z"/>
<path style="fill:#C4C8F6;" d="M344.615,123.077H167.385c-24.431,0-44.308,19.876-44.308,44.308v270.769
	c0,40.719,33.127,73.846,73.846,73.846h118.154c40.719,0,73.846-33.127,73.846-73.846V167.385
	C388.923,142.953,369.047,123.077,344.615,123.077z"/>
<path style="fill:#9DA4D6;" d="M344.615,123.077H256V512h59.077c40.719,0,73.846-33.127,73.846-73.846V167.385
	C388.923,142.953,369.047,123.077,344.615,123.077z"/>
<path style="fill:#30D536;" d="M226.462,51.692c-8.157,0-14.769,6.613-14.769,14.769v19.692c0,8.157,6.613,14.769,14.769,14.769
	c8.157,0,14.769-6.613,14.769-14.769V66.462C241.231,58.305,234.618,51.692,226.462,51.692z"/>
<path style="fill:#1CB71C;" d="M285.538,51.692c-8.157,0-14.769,6.613-14.769,14.769v19.692c0,8.157,6.613,14.769,14.769,14.769
	s14.769-6.613,14.769-14.769V66.462C300.308,58.305,293.695,51.692,285.538,51.692z"/>
<path style="fill:#EDEEF0;" d="M305.231,214.154c-8.157,0-14.769,6.613-14.769,14.769v32.331l-19.692,15.913v-67.936
	c0-8.157-6.613-14.769-14.769-14.769s-14.769,6.613-14.769,14.769v76.532l-19.692-7.799v-19.502c0-8.157-6.613-14.769-14.769-14.769
	c-8.157,0-14.769,6.613-14.769,14.769V288c0,6.057,3.699,11.501,9.331,13.731l39.9,15.802v57.491
	c-11.632,5.541-19.692,17.41-19.692,31.13c0,19.002,15.459,34.462,34.462,34.462s34.462-15.459,34.462-34.462
	c0-13.72-8.06-25.588-19.692-31.13v-59.88l43.745-35.349c3.47-2.804,5.486-7.026,5.486-11.488v-39.385
	C320,220.767,313.387,214.154,305.231,214.154z"/>
<path style="fill:#D8D9DD;" d="M305.231,214.154c-8.157,0-14.769,6.613-14.769,14.769v32.331l-19.692,15.913v-67.936
	c0-8.157-6.613-14.769-14.769-14.769l0,0v246.154l0,0c19.002,0,34.462-15.459,34.462-34.462c0-13.72-8.06-25.588-19.692-31.13
	v-59.88l43.745-35.349c3.47-2.804,5.486-7.026,5.486-11.488v-39.385C320,220.767,313.387,214.154,305.231,214.154z"/>
<g>
</g>
<g>
</g>
<g>
</g>
<g>
</g>
<g>
</g>
<g>
</g>
<g>
</g>
<g>
</g>
<g>
</g>
<g>
</g>
<g>
</g>
<g>
</g>
<g>
</g>
<g>
</g>
<g>
</g>
</svg>
