<?xml version="1.0" encoding="iso-8859-1"?>
<!-- Generator: Adobe Illustrator 19.0.0, SVG Export Plug-In . SVG Version: 6.00 Build 0)  -->
<svg version="1.1" id="Capa_1" xmlns="http://www.w3.org/2000/svg" xmlns:xlink="http://www.w3.org/1999/xlink" x="0px" y="0px"
	 viewBox="0 0 512 512" style="enable-background:new 0 0 512 512;" xml:space="preserve">
<path style="fill:#E0E2FF;" d="M272.457,146.453L412.093,6.816c9.088-9.088,23.824-9.088,32.913,0l60.178,60.178
	c9.088,9.088,9.088,23.824,0,32.913L365.548,239.543c-9.088,9.088-23.824,9.088-32.913,0l-60.178-60.178
	C263.367,170.277,263.367,155.542,272.457,146.453z"/>
<path style="fill:#B8BDEB;" d="M500.364,81.455c-6.425-6.427-16.844-6.428-23.27-0.002c-0.001,0.001-0.002,0.002-0.002,0.002
	l-16.456,16.456c-23.044,23.044-60.407,23.044-83.451,0l0,0c-6.427-6.427-16.846-6.427-23.272,0c-6.427,6.427-6.427,16.846,0,23.272
	l53.361,53.362c6.427,6.427,16.846,6.427,23.272,0l0,0l69.818-69.818C506.79,98.301,506.79,87.882,500.364,81.455L500.364,81.455z"
	/>
<path style="fill:#1B214E;" d="M95.914,276.45L295.729,76.635c9.088-9.088,23.824-9.088,32.913,0l106.724,106.724
	c9.088,9.088,9.088,23.824,0,32.913L235.55,416.086c-9.088,9.088-23.824,9.088-32.913,0L95.914,309.363
	C86.826,300.274,86.826,285.538,95.914,276.45z"/>
<path style="fill:#252B56;" d="M38.559,287.259L249.183,76.635c9.088-9.088,23.824-9.088,32.913,0l153.27,153.27
	c9.088,9.088,9.088,23.824,0,32.913L224.742,473.441c-51.412,51.412-134.769,51.412-186.182,0l0,0
	C-12.853,422.029-12.853,338.672,38.559,287.259L38.559,287.259z"/>
<g>
	<path style="fill:#2B315B;" d="M249.183,76.636L38.559,287.259c-37.876,37.923-48.956,95.034-28.007,144.369
		c49.334,20.95,106.447,9.872,144.371-28.005l210.624-210.624c9.088-9.087,9.089-23.823,0.002-32.912
		c-0.001-0.001-0.001-0.001-0.002-0.002l-83.45-83.45c-9.087-9.088-23.823-9.089-32.912-0.002
		C249.185,76.635,249.185,76.635,249.183,76.636z"/>
	<path style="fill:#2B315B;" d="M372.364,69.819l23.272-23.272l23.273,23.272l-23.272,23.272L372.364,69.819z"/>
	<path style="fill:#2B315B;" d="M418.909,116.364l23.272-23.272l23.272,23.272l-23.272,23.272L418.909,116.364z"/>
</g>
<path style="fill:#1B214E;" d="M172.549,432.543l143.629-143.629c12.853-12.853,33.693-12.853,46.546,0l0,0
	c12.853,12.853,12.853,33.693,0,46.546L219.095,479.089c-12.853,12.853-33.693,12.853-46.546,0l0,0
	C159.696,466.234,159.696,445.396,172.549,432.543z"/>
<g>
	<path style="fill:#474D78;" d="M390.817,227.908L284.093,121.183c-6.435-6.418-16.856-6.403-23.272,0.033
		c-6.405,6.423-6.405,16.816,0,23.24L367.545,251.18c6.427,6.427,16.846,6.427,23.272,0v-0.001
		C397.188,244.762,397.147,234.366,390.817,227.908L390.817,227.908z"/>
	<path style="fill:#474D78;" d="M67.822,327.815l122.353-122.353c25.706-25.706,67.384-25.706,93.091,0l0,0
		c25.706,25.706,25.706,67.384,0,93.091L160.912,420.906c-25.706,25.706-67.384,25.706-93.091,0l0,0
		C42.116,395.2,42.116,353.522,67.822,327.815z"/>
</g>
<path style="fill:#EFF0FF;" d="M423.729,28.093L423.729,28.093c6.427-6.427,16.846-6.427,23.272,0l36.905,36.905
	c6.427,6.427,6.427,16.846,0,23.272l0,0c-6.427,6.427-16.846,6.427-23.272,0l-36.906-36.905
	C417.302,44.939,417.302,34.52,423.729,28.093z"/>
<g>
</g>
<g>
</g>
<g>
</g>
<g>
</g>
<g>
</g>
<g>
</g>
<g>
</g>
<g>
</g>
<g>
</g>
<g>
</g>
<g>
</g>
<g>
</g>
<g>
</g>
<g>
</g>
<g>
</g>
</svg>
