<?xml version="1.0" encoding="iso-8859-1"?>
<!-- Generator: Adobe Illustrator 19.0.0, SVG Export Plug-In . SVG Version: 6.00 Build 0)  -->
<svg version="1.1" id="Capa_1" xmlns="http://www.w3.org/2000/svg" xmlns:xlink="http://www.w3.org/1999/xlink" x="0px" y="0px"
	 viewBox="0 0 509.867 509.867" style="enable-background:new 0 0 509.867 509.867;" xml:space="preserve">
<path style="fill:#CCF2FE;" d="M272,6.4c-8.533-8.533-23.467-8.533-32,0C220.8,27.733,62.933,219.733,62.933,317.867
	c0,106.667,85.333,192,192,192s192-85.333,192-192C446.933,219.733,289.067,27.733,272,6.4z"/>
<path style="fill:#B3ECFD;" d="M423.467,234.667c-32,8.533-36.267,40.533-76.8,40.533c-46.933,0-46.933-42.667-91.733-42.667
	S208,275.2,163.2,275.2c-40.533,0-44.8-32-76.8-40.533c-12.8,25.6-21.333,53.333-23.467,83.2c0,6.4,0,14.933,2.133,21.333
	c2.133,0,4.267,0,6.4,0c46.933,0,46.933,42.667,91.733,42.667s46.933-42.667,91.733-42.667s46.933,42.667,91.733,42.667
	S393.6,339.2,438.4,339.2c2.133,0,4.267,0,6.4,0c0-6.4,2.133-14.933,2.133-21.333C444.8,288,436.267,260.267,423.467,234.667z"/>
<linearGradient id="SVGID_1_" gradientUnits="userSpaceOnUse" x1="-40.9231" y1="621.7793" x2="-30.6013" y2="632.1001" gradientTransform="matrix(21.3333 0 0 -21.3333 1018.022 13744.0225)">
	<stop  offset="0" style="stop-color:#34CDFA"/>
	<stop  offset="1" style="stop-color:#E8D9F1"/>
</linearGradient>
<path style="fill:url(#SVGID_1_);" d="M346.667,381.867c-46.933,0-46.933-42.667-91.733-42.667S208,381.867,163.2,381.867
	S116.267,339.2,71.467,339.2c-2.133,0-4.267,0-6.4,0c12.8,104.533,106.667,181.333,213.333,168.533
	C368,497.067,436.267,426.667,446.933,339.2c-2.133,0-4.267,0-6.4,0C393.6,339.2,393.6,381.867,346.667,381.867z"/>
<g>
</g>
<g>
</g>
<g>
</g>
<g>
</g>
<g>
</g>
<g>
</g>
<g>
</g>
<g>
</g>
<g>
</g>
<g>
</g>
<g>
</g>
<g>
</g>
<g>
</g>
<g>
</g>
<g>
</g>
</svg>
