<?xml version="1.0" encoding="iso-8859-1"?>
<!-- Generator: Adobe Illustrator 19.0.0, SVG Export Plug-In . SVG Version: 6.00 Build 0)  -->
<svg version="1.1" id="Capa_1" xmlns="http://www.w3.org/2000/svg" xmlns:xlink="http://www.w3.org/1999/xlink" x="0px" y="0px"
	 viewBox="0 0 387.003 387.003" style="enable-background:new 0 0 387.003 387.003;" xml:space="preserve">
<path style="fill:#00ACEA;" d="M332.432,240.8v95.93c0,19.28-29.95,36.01-73.92,44.44c-21.44,3.975-43.205,5.927-65.01,5.83
	c-76.74,0-138.93-22.49-138.93-50.27V240.8c0,27.79,62.19,50.28,138.93,50.28S332.432,268.59,332.432,240.8z"/>
<path style="fill:#669FD5;" d="M332.432,238.817v1.98c0,27.79-62.19,50.28-138.93,50.28s-138.93-22.49-138.93-50.28v-95.26
	c0,27.78,62.19,50.28,138.93,50.28s138.93-22.5,138.93-50.28V238.817z"/>
<path style="fill:#00ACEA;" d="M332.432,50.27v95.27c0,27.78-62.19,50.28-138.93,50.28s-138.93-22.5-138.93-50.28V50.27
	c0,27.77,62.2,50.28,138.93,50.28S332.432,78.04,332.432,50.27z"/>
<path style="fill:#00EFD1;" d="M193.502,0c76.73,0,138.93,22.51,138.93,50.27s-62.2,50.28-138.93,50.28S54.572,78.04,54.572,50.27
	S116.772,0,193.502,0z"/>
<g>
	<path style="fill:#D4E1F4;" d="M216.502,156.5h-46c-5.523,0-10-4.477-10-10c0-5.523,4.477-10,10-10h46c5.523,0,10,4.477,10,10
		C226.502,152.023,222.025,156.5,216.502,156.5z"/>
	<path style="fill:#D4E1F4;" d="M216.502,250.5h-46c-5.523,0-10-4.477-10-10s4.477-10,10-10h46c5.523,0,10,4.477,10,10
		S222.025,250.5,216.502,250.5z"/>
	<path style="fill:#D4E1F4;" d="M216.502,347.5h-46c-5.523,0-10-4.477-10-10s4.477-10,10-10h46c5.523,0,10,4.477,10,10
		S222.025,347.5,216.502,347.5z"/>
</g>
<g>
</g>
<g>
</g>
<g>
</g>
<g>
</g>
<g>
</g>
<g>
</g>
<g>
</g>
<g>
</g>
<g>
</g>
<g>
</g>
<g>
</g>
<g>
</g>
<g>
</g>
<g>
</g>
<g>
</g>
</svg>
