<?xml version="1.0" encoding="iso-8859-1"?>
<!-- Generator: Adobe Illustrator 19.0.0, SVG Export Plug-In . SVG Version: 6.00 Build 0)  -->
<svg version="1.1" id="Layer_1" xmlns="http://www.w3.org/2000/svg" xmlns:xlink="http://www.w3.org/1999/xlink" x="0px" y="0px"
	 viewBox="0 0 512.001 512.001" style="enable-background:new 0 0 512.001 512.001;" xml:space="preserve">
<path style="fill:#00D6C1;" d="M135.446,348.043c-6.355,0-12.747-2.144-18-6.537c-11.888-9.938-13.457-27.621-3.506-39.49
	c35.375-42.211,87.155-66.419,142.061-66.419c54.904,0,106.684,24.208,142.059,66.418c9.95,11.869,8.38,29.552-3.506,39.49
	c-11.885,9.939-29.59,8.372-39.539-3.503c-24.68-29.447-60.77-46.338-99.015-46.338c-38.247,0-74.337,16.891-99.019,46.339
	C151.432,344.631,143.467,348.043,135.446,348.043z"/>
<g style="opacity:0.1;">
	<path id="SVGCleanerId_0" d="M180.323,314.401c-6.354,0-12.746-2.144-18-6.537c-11.887-9.938-13.456-27.621-3.505-39.491
		c3.181-3.796,6.5-7.44,9.937-10.941c-20.674,11.06-39.317,26.095-54.813,44.585c-9.952,11.869-8.382,29.552,3.506,39.49
		c5.254,4.393,11.645,6.537,18,6.537c8.021,0,15.986-3.414,21.536-10.039c7.694-9.179,16.497-17.137,26.128-23.746
		C182.185,314.35,181.254,314.401,180.323,314.401z"/>
	<g>
		<path id="SVGCleanerId_0_1_" d="M180.323,314.401c-6.354,0-12.746-2.144-18-6.537c-11.887-9.938-13.456-27.621-3.505-39.491
			c3.181-3.796,6.5-7.44,9.937-10.941c-20.674,11.06-39.317,26.095-54.813,44.585c-9.952,11.869-8.382,29.552,3.506,39.49
			c5.254,4.393,11.645,6.537,18,6.537c8.021,0,15.986-3.414,21.536-10.039c7.694-9.179,16.497-17.137,26.128-23.746
			C182.185,314.35,181.254,314.401,180.323,314.401z"/>
	</g>
</g>
<path style="fill:#00D6C1;" d="M81.724,276.713c-6.581,0-13.189-2.296-18.522-6.979c-11.641-10.224-12.782-27.936-2.547-39.565
	c49.476-56.205,120.676-88.442,195.346-88.442c74.672,0,145.871,32.237,195.346,88.44c10.235,11.629,9.094,29.343-2.55,39.566
	c-11.64,10.22-29.375,9.083-39.612-2.545c-38.817-44.1-94.65-69.392-153.184-69.392c-58.531,0-114.365,25.292-153.185,69.394
	C97.266,273.492,89.514,276.713,81.724,276.713z"/>
<g style="opacity:0.1;">
	<path id="SVGCleanerId_1" d="M138.004,232.135c-6.581,0-13.189-2.297-18.522-6.98c-11.641-10.223-12.782-27.936-2.547-39.564
		c2.389-2.714,4.841-5.352,7.329-7.952c-23.6,13.877-45.123,31.529-63.608,52.529c-10.235,11.629-9.094,29.341,2.547,39.565
		c5.333,4.682,11.941,6.979,18.522,6.979c7.79,0,15.541-3.22,21.091-9.522c12.138-13.788,25.939-25.739,40.965-35.652
		C141.879,231.935,139.943,232.135,138.004,232.135z"/>
	<g>
		<path id="SVGCleanerId_1_1_" d="M138.004,232.135c-6.581,0-13.189-2.297-18.522-6.98c-11.641-10.223-12.782-27.936-2.547-39.564
			c2.389-2.714,4.841-5.352,7.329-7.952c-23.6,13.877-45.123,31.529-63.608,52.529c-10.235,11.629-9.094,29.341,2.547,39.565
			c5.333,4.682,11.941,6.979,18.522,6.979c7.79,0,15.541-3.22,21.091-9.522c12.138-13.788,25.939-25.739,40.965-35.652
			C141.879,231.935,139.943,232.135,138.004,232.135z"/>
	</g>
</g>
<path style="fill:#00D6C1;" d="M28.059,205.695c-6.696,0-13.415-2.381-18.783-7.212c-11.513-10.365-12.434-28.091-2.055-39.594
	c63.528-70.4,154.205-110.775,248.782-110.775c94.574,0,185.25,40.375,248.778,110.773c10.38,11.502,9.459,29.231-2.055,39.594
	c-11.516,10.364-29.265,9.449-39.64-2.052c-52.902-58.624-128.38-92.247-207.082-92.247c-78.704,0-154.184,33.624-207.086,92.249
	C43.375,202.57,35.733,205.695,28.059,205.695z"/>
<g style="opacity:0.1;">
	<path id="SVGCleanerId_2" d="M73.95,153.782c-11.513-10.365-12.434-28.092-2.056-39.594c8.617-9.549,17.75-18.525,27.307-26.944
		C64.946,105.41,33.717,129.527,7.22,158.888c-10.379,11.503-9.457,29.229,2.055,39.594c5.368,4.831,12.087,7.212,18.783,7.212
		c7.674,0,15.317-3.125,20.857-9.264c11.968-13.263,25.102-25.232,39.158-35.837C82.984,159.74,78.069,157.488,73.95,153.782z"/>
	<g>
		<path id="SVGCleanerId_2_1_" d="M73.95,153.782c-11.513-10.365-12.434-28.092-2.056-39.594
			c8.617-9.549,17.75-18.525,27.307-26.944C64.946,105.41,33.717,129.527,7.22,158.888c-10.379,11.503-9.457,29.229,2.055,39.594
			c5.368,4.831,12.087,7.212,18.783,7.212c7.674,0,15.317-3.125,20.857-9.264c11.968-13.263,25.102-25.232,39.158-35.837
			C82.984,159.74,78.069,157.488,73.95,153.782z"/>
	</g>
</g>
<path style="fill:#00D6C1;" d="M219.351,340.175c-31.152,20.233-40.052,62.005-19.844,93.118
	c20.209,31.112,61.991,39.964,93.142,19.731c31.149-20.231,40.05-62.003,19.839-93.117
	C292.281,328.794,250.5,319.943,219.351,340.175z"/>
<path style="opacity:0.1;enable-background:new    ;" d="M227.536,415.086c-17.071-26.281-13.367-60.167,6.969-82.254
	c-5.227,1.765-10.318,4.203-15.155,7.343c-31.152,20.233-40.052,62.005-19.844,93.118c20.209,31.112,61.991,39.964,93.142,19.731
	c4.836-3.142,9.132-6.803,12.871-10.862C277.074,451.764,244.608,441.371,227.536,415.086z"/>
<path style="fill:#FFFFFF;" d="M258.868,437.813c-4.465,0-8.084-3.62-8.084-8.084c0-4.465,3.62-8.083,8.084-8.083
	c14.854,0,26.94-12.05,26.94-26.861c0-4.465,3.62-8.083,8.084-8.083c4.465,0,8.084,3.618,8.084,8.083
	C301.976,418.51,282.637,437.813,258.868,437.813z"/>
<g>
</g>
<g>
</g>
<g>
</g>
<g>
</g>
<g>
</g>
<g>
</g>
<g>
</g>
<g>
</g>
<g>
</g>
<g>
</g>
<g>
</g>
<g>
</g>
<g>
</g>
<g>
</g>
<g>
</g>
</svg>
