<?xml version="1.0" encoding="iso-8859-1"?>
<!-- Generator: Adobe Illustrator 19.0.0, SVG Export Plug-In . SVG Version: 6.00 Build 0)  -->
<svg version="1.1" id="Capa_1" xmlns="http://www.w3.org/2000/svg" xmlns:xlink="http://www.w3.org/1999/xlink" x="0px" y="0px"
	 viewBox="0 0 512 512" style="enable-background:new 0 0 512 512;" xml:space="preserve">
<path style="fill:#F8E47C;" d="M123.541,309.52c-36.36,0-73.412-12.376-109.52-36.891c-14.614-9.923-18.417-29.812-8.495-44.426
	c9.92-14.614,29.807-18.418,44.426-8.495c39.196,26.614,75.34,32.667,110.502,18.518c16.388-6.6,35.017,1.345,41.61,17.729
	c6.595,16.386-1.343,35.015-17.729,41.61C164.5,305.549,144.128,309.52,123.541,309.52z"/>
<path style="opacity:0.2;fill:#C97B00;enable-background:new    ;" d="M123.541,309.52c20.587,0,40.959-3.971,60.794-11.954
	c16.386-6.595,24.324-25.224,17.73-41.61c-6.593-16.385-25.222-24.329-41.61-17.729c-27.844,11.204-56.306,9.727-86.409-4.584
	c-1.377,17.138-5.451,48.286-23.203,59.646C75.061,304.083,99.453,309.52,123.541,309.52z"/>
<path style="fill:#F8E47C;" d="M388.459,309.52c-20.59,0-40.954-3.97-60.793-11.954c-16.386-6.595-24.324-25.224-17.729-41.61
	s25.228-24.324,41.61-17.729c35.165,14.152,71.31,8.096,110.502-18.518c14.617-9.921,34.505-6.115,44.426,8.495
	c9.921,14.614,6.119,34.503-8.495,44.426C461.876,297.143,424.814,309.52,388.459,309.52z"/>
<path style="opacity:0.2;fill:#C97B00;enable-background:new    ;" d="M482.326,282.456c-29.299,0.891-46.914-28.566-42.512-49.705
	c-30.79,15.143-59.849,16.912-88.268,5.475c-16.382-6.595-35.015,1.343-41.61,17.729c-6.595,16.386,1.343,35.015,17.73,41.61
	c19.839,7.985,40.203,11.954,60.794,11.954C419.579,309.52,451.215,300.443,482.326,282.456z"/>
<path style="fill:#F8E47C;" d="M14.722,427.884L14.722,427.884c-8.641,7.547-2.529,21.739,8.892,20.645l18.479-1.77
	c24.69-2.365,49.129,6.536,66.516,24.225l0,0c9.587,9.753,24.132,12.716,36.769,7.488l16.659-6.891
	c24.249-10.031,52.092-5.409,71.799,11.919l0,0c12.675,11.144,31.653,11.144,44.328,0l0,0c19.708-17.328,47.55-21.95,71.799-11.919
	l16.659,6.891c12.637,5.227,27.182,2.265,36.769-7.488l0,0c17.387-17.689,41.826-26.59,66.516-24.225l18.479,1.77
	c11.42,1.094,17.533-13.098,8.892-20.645l0,0c-42.64-37.239-69.398-89.395-74.775-145.75l-11.557-121.127
	C403.325,81.134,336.236,20.142,256,20.142l0,0c-80.236,0-147.324,60.992-154.945,140.865L89.497,282.133
	C84.12,338.489,57.362,390.645,14.722,427.884z"/>
<g>
	<ellipse style="fill:#E38892;" cx="175.05" cy="219.2" rx="29.87" ry="23.787"/>
	<ellipse style="fill:#E38892;" cx="336.95" cy="219.2" rx="29.87" ry="23.787"/>
</g>
<g>
	<path style="fill:#495059;" d="M180.04,198.616c-4.143,0-7.5-3.357-7.5-7.5v-12.821c0-4.143,3.357-7.5,7.5-7.5s7.5,3.357,7.5,7.5
		v12.821C187.54,195.259,184.183,198.616,180.04,198.616z"/>
	<path style="fill:#495059;" d="M256,222.567L256,222.567c-11.952,0-21.641-9.689-21.641-21.641v-15.734
		c0-3.263,2.645-5.908,5.908-5.908h31.467c3.263,0,5.908,2.645,5.908,5.908v15.734C277.641,212.878,267.952,222.567,256,222.567z"/>
	<path style="fill:#495059;" d="M331.96,198.616c-4.143,0-7.5-3.357-7.5-7.5v-12.821c0-4.143,3.357-7.5,7.5-7.5s7.5,3.357,7.5,7.5
		v12.821C339.46,195.259,336.103,198.616,331.96,198.616z"/>
</g>
<path style="opacity:0.1;fill:#C97B00;enable-background:new    ;" d="M204.915,28.741c-56.055,19.48-97.935,70.162-103.861,132.266
	L89.497,282.133c-5.377,56.356-32.135,108.512-74.775,145.75l0,0c-8.641,7.546-2.529,21.739,8.892,20.645l18.479-1.77
	c24.69-2.365,49.129,6.536,66.516,24.225l0,0c9.587,9.753,24.132,12.716,36.769,7.488l16.659-6.891
	c24.249-10.03,52.091-5.409,71.799,11.919l0,0c12.675,11.144,31.653,11.144,44.328,0l0,0c11.295-9.931,25.264-15.68,39.696-16.897
	C132.278,305.511,142.951,103.964,204.915,28.741z"/>
<g>
</g>
<g>
</g>
<g>
</g>
<g>
</g>
<g>
</g>
<g>
</g>
<g>
</g>
<g>
</g>
<g>
</g>
<g>
</g>
<g>
</g>
<g>
</g>
<g>
</g>
<g>
</g>
<g>
</g>
</svg>
