<?xml version="1.0" encoding="iso-8859-1"?>
<!-- Generator: Adobe Illustrator 19.0.0, SVG Export Plug-In . SVG Version: 6.00 Build 0)  -->
<svg version="1.1" id="Capa_1" xmlns="http://www.w3.org/2000/svg" xmlns:xlink="http://www.w3.org/1999/xlink" x="0px" y="0px"
	 viewBox="0 0 512.001 512.001" style="enable-background:new 0 0 512.001 512.001;" xml:space="preserve">
<path style="fill:#72CDA2;" d="M147.191,110.667c16.982-2.624,34.873-2.544,51.092-8.587c18.789-7.001,30.164-22.74,41.881-38.138
	c16.568-21.772,47.649-25.991,69.421-9.423c13.93,10.601,20.641,27.475,19.352,43.718c-3.369,42.481-25.988,83.277-60.508,108.343
	c-34.55,25.088-79.215,34.082-121.275,30.819c-35.037-2.718-61.237-33.324-58.519-68.362c1.312-16.914,9.485-32.833,22.463-43.758
	C121.841,116.236,134.252,112.667,147.191,110.667z"/>
<path style="opacity:0.25;fill:#2C6245;enable-background:new    ;" d="M202.383,100.343c-1.331,0.621-2.688,1.211-4.1,1.737
	c-16.219,6.044-34.11,5.963-51.092,8.587c-12.939,1.999-25.35,5.569-36.093,14.613c-12.978,10.925-21.15,26.845-22.463,43.758
	c-2.718,35.037,23.482,65.643,58.519,68.362c42.06,3.263,86.725-5.73,121.275-30.819c10.319-7.493,19.565-16.401,27.561-26.33
	C242.594,202.541,187.383,133.252,202.383,100.343z"/>
<path style="fill:#5B9675;" d="M124.172,352.913c-4.541,0-9.176-0.008-13.912-0.016c-5.259-0.008-10.695-0.017-16.324-0.017
	c-35.063,0-63.486-28.423-63.486-63.486s28.423-63.486,63.486-63.486c5.699,0,11.201,0.009,16.524,0.017
	c52.199,0.088,83.705,0.133,107.248-8.122c22.677-7.953,47.512-27.05,88.579-68.117c24.793-24.793,64.989-24.793,89.782,0
	c24.793,24.793,24.793,64.989,0,89.782c-47.864,47.864-87.367,80.978-136.347,98.153
	C219.092,351.87,178.307,352.913,124.172,352.913z"/>
<path style="opacity:0.25;fill:#2C6245;enable-background:new    ;" d="M254.535,196.594
	c-13.925,10.645-25.641,17.288-36.827,21.211c-23.544,8.255-55.049,8.21-107.248,8.122c-5.323-0.008-10.825-0.017-16.524-0.017
	c-35.063,0-63.486,28.423-63.486,63.486s28.423,63.486,63.486,63.486c5.629,0,11.065,0.009,16.324,0.017
	c4.736,0.008,9.371,0.016,13.912,0.016c54.135,0,94.92-1.043,135.55-15.29c29.911-10.488,56.289-26.933,83.195-49.039
	C283.355,301.465,240.813,233.428,254.535,196.594z"/>
<path style="fill:#5B9675;" d="M448.514,467.234H63.486C28.423,467.234,0,438.811,0,403.748s28.423-63.486,63.486-63.486h385.029
	c35.063,0,63.486,28.423,63.486,63.486S483.577,467.234,448.514,467.234z"/>
<path style="opacity:0.25;fill:#2C6245;enable-background:new    ;" d="M63.486,467.234h385.029c11.411,0,22.109-3.026,31.362-8.295
	c-55.537,0.179-78.306-72.69-45.486-118.676H63.486C28.423,340.262,0,368.685,0,403.748S28.423,467.234,63.486,467.234z"/>
<path style="fill:#72CDA2;" d="M168.725,467.599c-13.15,0-27.347-0.076-42.792-0.157c-18.495-0.098-39.459-0.209-62.447-0.209
	C28.423,467.234,0,438.811,0,403.748s28.423-63.486,63.486-63.486c23.325,0,44.466,0.112,63.12,0.211
	c78.078,0.408,121.095,0.642,145.146-8.01c20.451-7.358,40.145-26.53,86.662-73.052l1.753-1.751
	c24.793-24.793,64.989-24.793,89.782,0c24.793,24.791,24.793,64.989,0,89.782l-1.748,1.748
	c-53.304,53.309-85.478,85.486-133.47,102.749C276.823,465.575,236.961,467.599,168.725,467.599z"/>
<g>
	<ellipse style="fill:#FFFFFF;" cx="154.52" cy="408.58" rx="31.866" ry="25.377"/>
	<ellipse style="fill:#FFFFFF;" cx="327.25" cy="408.58" rx="31.866" ry="25.377"/>
</g>
<g>
	<path style="fill:#495059;" d="M159.849,386.118c-4.143,0-7.5-3.358-7.5-7.5V364.94c0-4.142,3.357-7.5,7.5-7.5s7.5,3.358,7.5,7.5
		v13.678C167.349,382.761,163.991,386.118,159.849,386.118z"/>
	<path style="fill:#495059;" d="M240.884,412.171L240.884,412.171c-12.751,0-23.087-10.337-23.087-23.087v-16.785
		c0-3.481,2.822-6.302,6.302-6.302h33.57c3.481,0,6.302,2.822,6.302,6.302v16.785C263.971,401.835,253.635,412.171,240.884,412.171z
		"/>
	<path style="fill:#495059;" d="M321.92,386.118c-4.143,0-7.5-3.358-7.5-7.5V364.94c0-4.142,3.357-7.5,7.5-7.5s7.5,3.358,7.5,7.5
		v13.678C329.42,382.761,326.063,386.118,321.92,386.118z"/>
</g>
<path style="opacity:0.25;fill:#2C6245;enable-background:new    ;" d="M152.299,340.593c-8.119-0.029-16.661-0.073-25.693-0.12
	c-18.654-0.099-39.795-0.211-63.12-0.211C28.423,340.262,0,368.685,0,403.748s28.423,63.486,63.486,63.486
	c22.989,0,43.952,0.112,62.447,0.209c15.445,0.081,29.643,0.157,42.792,0.157c27.345,0,50.125-0.328,70.057-1.595
	C170.223,449.597,119.591,390.164,152.299,340.593z"/>
<g>
	<circle style="fill:#495059;" cx="422.2" cy="117.67" r="7.534"/>
	<circle style="fill:#495059;" cx="88.44" cy="76.73" r="7.534"/>
	<circle style="fill:#495059;" cx="466.46" cy="226.33" r="7.534"/>
	<circle style="fill:#495059;" cx="45.11" cy="207.96" r="7.534"/>
</g>
<g>
</g>
<g>
</g>
<g>
</g>
<g>
</g>
<g>
</g>
<g>
</g>
<g>
</g>
<g>
</g>
<g>
</g>
<g>
</g>
<g>
</g>
<g>
</g>
<g>
</g>
<g>
</g>
<g>
</g>
</svg>
