<?xml version="1.0" encoding="iso-8859-1"?>
<!-- Generator: Adobe Illustrator 19.0.0, SVG Export Plug-In . SVG Version: 6.00 Build 0)  -->
<svg version="1.1" id="Capa_1" xmlns="http://www.w3.org/2000/svg" xmlns:xlink="http://www.w3.org/1999/xlink" x="0px" y="0px"
	 viewBox="0 0 512.003 512.003" style="enable-background:new 0 0 512.003 512.003;" xml:space="preserve">
<circle style="fill:#7F9AE6;" cx="200.321" cy="477.6" r="34.403"/>
<circle style="fill:#BBE0F1;" cx="200.321" cy="477.6" r="7.473"/>
<circle style="fill:#7F9AE6;" cx="386.151" cy="477.6" r="34.403"/>
<circle style="fill:#BBE0F1;" cx="386.151" cy="477.6" r="7.473"/>
<path style="fill:#6B7BAB;" d="M460.143,447.584H151.129c-13.565,0-25.889-6.91-32.964-18.485
	c-7.076-11.573-7.608-25.69-1.424-37.765l48.693-95.07c6.483-12.66,22.004-17.667,34.665-11.183
	c12.661,6.484,17.668,22.005,11.183,34.665l-39.092,76.327h287.954c14.224,0,25.756,11.531,25.756,25.756
	S474.367,447.584,460.143,447.584z"/>
<path style="opacity:0.2;fill:#254A74;enable-background:new    ;" d="M172.189,396.072l39.092-76.327
	c6.485-12.66,1.478-28.181-11.183-34.665s-28.181-1.477-34.665,11.183l-48.693,95.07c-6.184,12.075-5.653,26.192,1.424,37.765
	c7.075,11.575,19.399,18.485,32.964,18.485h154.483c-21.574-11.901-23.22-38.651-14.06-51.512L172.189,396.072L172.189,396.072z"/>
<path style="fill:#BBE0F1;" d="M468.065,315.618l-309.448,16.004c-11.464,0.593-21.624-7.325-23.849-18.587l-39.75-201.193
	c-2.915-14.753,8.823-28.312,23.842-27.54l371.229,19.079c13.469,0.692,23.482,12.73,21.709,26.1l-22.031,166.11
	C488.303,306.624,479.18,315.043,468.065,315.618z"/>
<g>
	<ellipse style="fill:#E38892;" cx="214.171" cy="198.6" rx="39.03" ry="31.08"/>
	<ellipse style="fill:#E38892;" cx="425.731" cy="198.6" rx="39.03" ry="31.08"/>
</g>
<g>
	<path style="fill:#495059;" d="M236.915,175.091c-4.142,0-7.5-3.357-7.5-7.5v-13.783c0-4.143,3.358-7.5,7.5-7.5s7.5,3.357,7.5,7.5
		v13.783C244.415,171.733,241.057,175.091,236.915,175.091z"/>
	<path style="fill:#495059;" d="M402.983,175.091c-4.143,0-7.5-3.357-7.5-7.5v-13.783c0-4.143,3.357-7.5,7.5-7.5s7.5,3.357,7.5,7.5
		v13.783C410.483,171.733,407.126,175.091,402.983,175.091z"/>
	<path style="fill:#495059;" d="M319.949,185.676c-10.559,0-20.599-4.573-27.546-12.547c-2.722-3.123-2.396-7.86,0.728-10.581
		c3.122-2.721,7.86-2.396,10.581,0.728c4.099,4.703,10.017,7.4,16.237,7.4s12.139-2.697,16.237-7.401
		c2.722-3.122,7.46-3.448,10.582-0.727c3.122,2.722,3.448,7.459,0.727,10.582C340.547,181.102,330.507,185.676,319.949,185.676z"/>
</g>
<path style="opacity:0.2;fill:#254A74;enable-background:new    ;" d="M95.018,111.841l39.75,201.193
	c2.225,11.262,12.385,19.18,23.849,18.587l181.786-9.402c-98.882-37.663-157.44-167.429-172.271-235.387L118.859,84.3
	C103.841,83.529,92.103,97.088,95.018,111.841z"/>
<path style="fill:#72CDA2;" d="M495.29,253.948l-371.482,3.613l10.96,55.474c2.225,11.262,12.385,19.18,23.849,18.587
	l309.448-16.004c11.114-0.575,20.238-8.995,21.701-20.027L495.29,253.948z"/>
<path style="opacity:0.2;fill:#2C6245;enable-background:new    ;" d="M134.768,313.035c2.225,11.262,12.385,19.18,23.849,18.587
	l181.786-9.402c-34.258-13.049-63.678-37.149-88.115-65.909l-128.48,1.25L134.768,313.035z"/>
<path style="fill:#6B7BAB;" d="M138.617,358.416c-12.05,0-22.815-8.498-25.239-20.769L60.097,67.975
	c-1.277-6.461-6.498-11.52-12.994-12.591L21.57,51.173C7.535,48.859-1.966,35.605,0.348,21.57
	C2.663,7.534,15.912-1.972,29.952,0.349l25.531,4.21c27.569,4.544,49.733,26.017,55.149,53.432l53.28,269.672
	c2.757,13.954-6.32,27.501-20.275,30.26C141.952,358.255,140.271,358.416,138.617,358.416z"/>
<g>
</g>
<g>
</g>
<g>
</g>
<g>
</g>
<g>
</g>
<g>
</g>
<g>
</g>
<g>
</g>
<g>
</g>
<g>
</g>
<g>
</g>
<g>
</g>
<g>
</g>
<g>
</g>
<g>
</g>
</svg>
