<?xml version="1.0" encoding="iso-8859-1"?>
<!-- Generator: Adobe Illustrator 19.0.0, SVG Export Plug-In . SVG Version: 6.00 Build 0)  -->
<svg version="1.1" id="Capa_1" xmlns="http://www.w3.org/2000/svg" xmlns:xlink="http://www.w3.org/1999/xlink" x="0px" y="0px"
	 viewBox="0 0 512 512" style="enable-background:new 0 0 512 512;" xml:space="preserve">
<path id="SVGCleanerId_0" style="fill:#F8E47C;" d="M512,257.026c-0.014-17.257-1.773-34.79-5.446-52.398
	C478.359,69.453,346.499-19.359,210.603,5.124C71.916,30.11-20.56,162.579,3.931,301.478
	c19.7,111.726,109.094,193.657,215.588,208.971c14.047,2.02,28.264-2.374,38.877-11.796l241.295-214.22
	C507.525,277.478,512.008,267.501,512,257.026z"/>
<g>
	<path id="SVGCleanerId_0_1_" style="fill:#F8E47C;" d="M512,257.026c-0.014-17.257-1.773-34.79-5.446-52.398
		C478.359,69.453,346.499-19.359,210.603,5.124C71.916,30.11-20.56,162.579,3.931,301.478
		c19.7,111.726,109.094,193.657,215.588,208.971c14.047,2.02,28.264-2.374,38.877-11.796l241.295-214.22
		C507.525,277.478,512.008,267.501,512,257.026z"/>
</g>
<g>
	
		<ellipse transform="matrix(-0.1736 -0.9848 0.9848 -0.1736 -137.967 404.0106)" style="fill:#E38892;" cx="100.527" cy="259.892" rx="31.03" ry="38.968"/>
	
		<ellipse transform="matrix(0.1736 0.9848 -0.9848 0.1736 536.5105 -226.3099)" style="fill:#E38892;" cx="403.102" cy="206.524" rx="31.03" ry="38.968"/>
</g>
<g>
	<path style="fill:#495059;" d="M105.465,233.286c-3.571,0-6.735-2.56-7.378-6.198c-1.812-10.274,0.486-20.64,6.47-29.186
		s14.938-14.25,25.212-16.062c10.274-1.813,20.639,0.484,29.186,6.469c8.546,5.984,14.25,14.938,16.062,25.213
		c0.719,4.079-2.004,7.97-6.084,8.688c-4.079,0.726-7.969-2.003-8.688-6.083c-1.116-6.329-4.629-11.845-9.894-15.53
		c-5.264-3.687-11.649-5.1-17.977-3.985c-6.329,1.116-11.844,4.63-15.53,9.894c-3.686,5.265-5.101,11.648-3.985,17.977
		c0.719,4.079-2.004,7.97-6.083,8.689C106.336,233.249,105.897,233.286,105.465,233.286z"/>
	<path style="fill:#495059;" d="M324.611,194.644c-3.571,0-6.736-2.56-7.377-6.198c-1.811-10.274,0.486-20.64,6.471-29.186
		c5.984-8.546,14.938-14.25,25.212-16.061c10.274-1.812,20.639,0.485,29.186,6.47c8.546,5.984,14.25,14.938,16.062,25.212
		c0.719,4.08-2.005,7.97-6.084,8.688c-4.078,0.726-7.969-2.003-8.689-6.083c-1.116-6.329-4.629-11.844-9.894-15.53
		c-5.264-3.687-11.651-5.102-17.977-3.985c-6.329,1.116-11.844,4.63-15.53,9.894c-3.686,5.265-5.101,11.648-3.985,17.976
		c0.719,4.08-2.005,7.97-6.084,8.689C325.482,194.607,325.043,194.644,324.611,194.644z"/>
</g>
<path style="fill:#FFFFFF;" d="M127.638,300.733c-9.539-0.061-16.268,9.276-13.287,18.337
	c22.015,66.918,93.83,108.818,169.434,95.487s128.756-77.267,126.557-147.679c-0.298-9.534-9.815-16.007-18.757-12.687
	c-22.665,8.413-67.569,23.093-130.061,34.112C199.03,299.324,151.813,300.887,127.638,300.733z"/>
<path style="fill:#F0F2FF;" d="M273.885,358.418c43.475-7.666,87.888-21.178,127.477-38.605c2.367-6.211,4.293-12.59,5.75-19.099
	c-41.327,19.552-89.127,34.696-135.832,42.932c-46.708,8.234-96.805,10.352-142.324,6.114c3.598,5.622,7.593,10.962,11.946,15.992
	c11.489,0.754,23.197,1.142,35.028,1.142C208.53,366.894,241.99,364.042,273.885,358.418z"/>
<path style="opacity:0.2;fill:#C97B00;enable-background:new    ;" d="M324.135,372.015
	C74.897,424.22,38.965,178.466,118.378,41.157C33.763,95.152-14.584,196.47,3.931,301.478
	c19.7,111.726,109.094,193.657,215.588,208.971c14.047,2.02,28.264-2.374,38.877-11.796l136.287-120.995L324.135,372.015z"/>
<g>
	<path style="fill:#F0F2FF;" d="M283.784,414.532c31.26-5.512,58.676-19.681,79.934-39.377l-39.583-3.166
		c-105.5,22.098-172.776-9.194-209.268-63.047c-1.363,3.033-1.673,6.587-0.516,10.102
		C136.366,385.962,208.181,427.863,283.784,414.532z"/>
	<path style="fill:#F0F2FF;" d="M258.401,498.648l241.481-214.385c7.694-6.83,12.097-16.626,12.098-26.915v-0.169
		c-0.044,10.068-10.216,16.701-20.147,16.594l-0.01,0.017c-12.634,0.322-25.4,1.566-38.223,3.827
		c-111.816,19.716-193.76,109.246-208.977,215.855c-2.683,14.283-19.904,17.478-25.189,16.953c0.076,0.011,0.153,0.022,0.229,0.033
		C233.664,512.464,247.825,508.038,258.401,498.648z"/>
</g>
<path style="fill:#DBE1FF;" d="M410.981,363.189c-31.374,5.379-55.972-29.585-39.679-55.95
	c-68.438,39.005-115.516,108.022-126.679,186.233c-2.683,14.283-19.904,17.478-25.189,16.953c0.076,0.011,0.153,0.022,0.229,0.033
	c14,2.006,28.161-2.42,38.738-11.809L410.981,363.189z"/>
<g>
</g>
<g>
</g>
<g>
</g>
<g>
</g>
<g>
</g>
<g>
</g>
<g>
</g>
<g>
</g>
<g>
</g>
<g>
</g>
<g>
</g>
<g>
</g>
<g>
</g>
<g>
</g>
<g>
</g>
</svg>
