<?xml version="1.0" encoding="iso-8859-1"?>
<!-- Generator: Adobe Illustrator 19.0.0, SVG Export Plug-In . SVG Version: 6.00 Build 0)  -->
<svg version="1.1" id="Capa_1" xmlns="http://www.w3.org/2000/svg" xmlns:xlink="http://www.w3.org/1999/xlink" x="0px" y="0px"
	 viewBox="0 0 512 512" style="enable-background:new 0 0 512 512;" xml:space="preserve">
<path style="fill:#F0F2FF;" d="M327.282,184.007L327.282,184.007c-22.148-3.905-35.034-27.263-26.525-48.081l18.865-46.155
	c7.08-17.321,25.279-27.361,43.707-24.112l0,0c8.779,1.548,14.806,9.705,13.706,18.551l-8.626,69.411
	C365.92,173.651,347.16,187.512,327.282,184.007z"/>
<path style="fill:#DBE1FF;" d="M327.282,184.007L327.282,184.007c-22.148-3.905-35.034-27.263-26.525-48.081l18.865-46.155
	c7.08-17.321,25.279-27.361,43.707-24.112l0,0c8.779,1.548,14.806,9.705,13.706,18.551l-8.626,69.411
	C365.92,173.651,347.16,187.512,327.282,184.007z"/>
<path style="fill:#7F9AE6;" d="M361.996,193.985c0.001-74.254-60.663-134.641-134.917-134.314
	c-69.373,0.305-126.318,53.207-133.036,120.884c-0.754,7.594-6.129,13.998-13.499,15.978c-6.779,1.821-13.792,2.971-20.953,3.38
	c-10.185,0.581-15.225,12.878-8.293,20.362c4.776,5.157,10.306,9.645,16.448,13.299c-18.544,17.893-30.081,42.999-30.081,70.802
	c0,6.059,0.55,11.988,1.6,17.743c0.815,4.471-1.69,8.914-5.914,10.591c-6.575,2.61-13.382,4.76-20.388,6.398
	C-0.9,342.35-4.658,360.41,6.675,369.028c18.487,14.058,41.84,22.043,67.098,20.969c3.98-0.169,7.903-0.572,11.76-1.187
	c14.766,8.853,32.044,13.947,50.514,13.947c46.104,0,84.796-31.716,95.461-74.519C303.916,326.213,361.994,266.884,361.996,193.985z
	"/>
<path style="fill:#F0F2FF;" d="M295.933,458.591H93.969c-19.572,0-33.675-18.773-28.225-37.57l0,0
	c18.844-64.997,47.034-126.911,83.686-183.8l10.459-16.234l154.691,33.33l21.116,158.878
	C338.889,437.236,320.185,458.591,295.933,458.591z"/>
<path style="fill:#DBE1FF;" d="M295.933,458.591H93.969c-19.572,0-33.675-18.773-28.225-37.57l0,0
	c18.844-64.997,47.034-126.911,83.686-183.8l10.459-16.234l154.691,33.33l21.116,158.878
	C338.889,437.236,320.185,458.591,295.933,458.591z"/>
<path style="fill:#909DE0;" d="M314.578,254.317l-154.691-33.33l-10.459,16.234c-12.648,19.632-24.263,39.875-34.86,60.624
	c12.473,47.656,49.274,120.942,101.778,160.746h79.586c24.252,0,42.957-21.355,39.761-45.396L314.578,254.317z"/>
<path style="fill:#F0F2FF;" d="M298.145,431.462L168.773,315.823c-42.629-38.104-44.48-104.202-4.05-144.633l0,0
	c69.943-69.943,184.292-66.741,250.212,7.006l64.413,72.062c45.374,50.762,43.208,128.124-4.936,176.268l0,0
	C426.269,474.67,348.907,476.836,298.145,431.462z"/>
<path style="fill:#DBE1FF;" d="M457.402,440.835c-169.747-2.77-279.498-185.309-245.211-303.294
	c-17.141,8.199-33.226,19.407-47.468,33.649v0.001c-40.43,40.43-38.579,106.528,4.05,144.632l129.372,115.639
	C343.281,471.807,409.445,474.563,457.402,440.835z"/>
<ellipse style="fill:#E38892;" cx="241.22" cy="279.14" rx="31.694" ry="25.24"/>
<path style="fill:#495059;" d="M284.16,258.577c-4.142,0-7.5-3.357-7.5-7.5c0-6.403-5.21-11.612-11.613-11.612
	s-11.613,5.209-11.613,11.612c0,4.143-3.358,7.5-7.5,7.5s-7.5-3.357-7.5-7.5c0-14.674,11.938-26.612,26.613-26.612
	c14.674,0,26.613,11.939,26.613,26.612C291.66,255.22,288.302,258.577,284.16,258.577z"/>
<ellipse style="fill:#E38892;" cx="440.2" cy="279.14" rx="31.694" ry="25.24"/>
<path style="fill:#495059;" d="M435.49,258.577c-4.142,0-7.5-3.357-7.5-7.5c0-6.403-5.209-11.612-11.613-11.612
	c-6.403,0-11.613,5.209-11.613,11.612c0,4.143-3.358,7.5-7.5,7.5s-7.5-3.357-7.5-7.5c0-14.674,11.938-26.612,26.613-26.612
	c14.674,0,26.613,11.939,26.613,26.612C442.99,255.22,439.632,258.577,435.49,258.577z"/>
<path style="fill:#7F9AE6;" d="M345.098,90.714c-30.816,19.726-70.488,19.956-101.51,0.691c-7.952-4.938-17.959,1.688-16.688,10.962
	c2.054,14.984,9.138,29.41,21.263,40.546c25.628,23.538,65.637,23.538,91.265,0c12.659-11.627,19.823-26.838,21.505-42.528
	C361.859,91.745,352.417,86.029,345.098,90.714z"/>
<path style="fill:#495059;" d="M412.265,423.256c-13.006,0-25.377-5.633-33.94-15.453c-2.722-3.122-2.398-7.859,0.724-10.582
	c3.122-2.72,7.86-2.398,10.582,0.725c5.714,6.553,13.963,10.311,22.634,10.311s16.92-3.758,22.634-10.311
	c2.722-3.123,7.46-3.447,10.582-0.725c3.122,2.723,3.446,7.46,0.724,10.582C437.642,417.623,425.272,423.256,412.265,423.256z"/>
<path style="fill:#F0F2FF;" d="M199.168,200.117L199.168,200.117c-22.148-3.905-35.034-27.263-26.525-48.081l18.865-46.155
	c7.08-17.321,25.279-27.361,43.707-24.112l0,0c8.779,1.548,14.806,9.705,13.706,18.551l-8.626,69.411
	C237.806,189.762,219.046,203.622,199.168,200.117z"/>
<path style="fill:#DBE1FF;" d="M199.168,200.117L199.168,200.117c-22.148-3.905-35.034-27.263-26.525-48.081l18.865-46.155
	c7.08-17.321,25.279-27.361,43.707-24.112l0,0c8.779,1.548,14.806,9.705,13.706,18.551l-8.626,69.411
	C237.806,189.762,219.046,203.622,199.168,200.117z"/>
<g>
	<circle style="fill:#495059;" cx="371.19" cy="347.73" r="7.56"/>
	<circle style="fill:#495059;" cx="453.34" cy="347.73" r="7.56"/>
</g>
<path style="fill:#72CDA2;" d="M338.873,230.974L338.873,230.974c-18.782-7.185-33.62-22.022-40.805-40.804l0,0
	c-4.85-12.678-0.669-27.034,10.229-35.125l138.64-102.932c8.534-6.336,20.423-5.462,27.939,2.054l0,0
	c7.516,7.516,8.39,19.404,2.054,27.939l-102.932,138.64C365.907,231.643,351.551,235.823,338.873,230.974z"/>
<path style="opacity:0.2;fill:#2C6245;enable-background:new    ;" d="M353.19,121.714l-44.892,33.33
	c-10.898,8.091-15.079,22.447-10.229,35.125l0,0c7.185,18.782,22.022,33.619,40.805,40.804l0,0
	c12.678,4.85,27.034,0.669,35.125-10.229l7.847-10.569C336.961,208.278,341.259,160,353.19,121.714z"/>
<path style="fill:#E38892;" d="M474.877,54.165c-7.516-7.516-19.404-8.39-27.939-2.054l-57.891,42.98
	c14.583,9.915,35.512,19.598,60.678,23.655l27.205-36.643C483.267,73.57,482.393,61.681,474.877,54.165L474.877,54.165z"/>
<path style="fill:#F8E47C;" d="M320.017,146.343c13.035,13.722,42.668,32.322,81.633,37.156l48.075-64.752
	c-25.166-4.057-46.095-13.74-60.678-23.655L320.017,146.343z"/>
<path style="opacity:0.2;fill:#C97B00;enable-background:new    ;" d="M320.017,146.343c5.559,5.852,14.146,12.589,25.179,18.77
	c0.269-13.955,3.615-29.349,7.993-43.399L320.017,146.343z"/>
<g>
</g>
<g>
</g>
<g>
</g>
<g>
</g>
<g>
</g>
<g>
</g>
<g>
</g>
<g>
</g>
<g>
</g>
<g>
</g>
<g>
</g>
<g>
</g>
<g>
</g>
<g>
</g>
<g>
</g>
</svg>
