<?xml version="1.0" encoding="iso-8859-1"?>
<!-- Generator: Adobe Illustrator 19.0.0, SVG Export Plug-In . SVG Version: 6.00 Build 0)  -->
<svg version="1.1" id="Capa_1" xmlns="http://www.w3.org/2000/svg" xmlns:xlink="http://www.w3.org/1999/xlink" x="0px" y="0px"
	 viewBox="0 0 512 512" style="enable-background:new 0 0 512 512;" xml:space="preserve">
<path style="fill:#6B7BAB;" d="M73.695,462.896l-9.43,22.488C58.961,498.032,68.25,512,81.965,512h50.721
	c12.934,0,25.338-5.142,34.479-14.293l15.228-15.246c10.191-10.203,24.02-15.936,38.441-15.936h70.334
	c14.421,0,28.25,5.733,38.441,15.936l15.228,15.246c9.14,9.151,21.544,14.293,34.479,14.293h50.721
	c13.715,0,23.004-13.968,17.7-26.616l-9.43-22.488c-14.415-34.375-48.049-56.743-85.324-56.743H159.019
	C121.744,406.152,88.109,428.521,73.695,462.896z"/>
<path style="opacity:0.2;fill:#254A74;enable-background:new    ;" d="M430.554,511.983
	c-67.501-17.149-110.397-68.557-112.58-105.831H159.019c-37.275,0-70.91,22.368-85.325,56.743l-9.43,22.488
	C58.961,498.032,68.25,512,81.965,512h50.721c12.934,0,25.338-5.142,34.479-14.293l15.228-15.246
	c10.191-10.203,24.02-15.936,38.441-15.936h70.334c14.421,0,28.25,5.733,38.441,15.936l15.228,15.246
	C353.976,506.858,366.38,512,379.314,512h50.721C430.21,512,430.381,511.988,430.554,511.983z"/>
<circle style="fill:#BBE0F1;" cx="256" cy="214.72" r="214.72"/>
<path style="fill:#6B7BAB;" d="M218.054,85.345h75.891l14.576-78.863C291.713,2.255,274.121,0,256,0s-35.713,2.255-52.522,6.482
	L218.054,85.345z"/>
<path style="fill:#7F9AE6;" d="M256,63.104c-60.721,0-113.104,35.694-137.314,87.244c-6.501,13.844-20.268,22.814-35.562,22.814
	H45.31c-2.638,13.448-4.034,27.341-4.034,41.561c0,14.221,1.396,28.113,4.034,41.561h37.814c15.294,0,29.061,8.97,35.563,22.814
	c24.209,51.55,76.593,87.244,137.314,87.244s113.104-35.694,137.314-87.244c6.501-13.844,20.268-22.814,35.563-22.814h37.813
	c2.638-13.448,4.034-27.341,4.034-41.561c0-14.221-1.397-28.114-4.034-41.561h-37.813c-15.294,0-29.061-8.97-35.562-22.814
	C369.104,98.798,316.721,63.104,256,63.104z"/>
<path style="opacity:0.2;fill:#254A74;enable-background:new    ;" d="M441.871,322.289
	C141.542,387.147,106.135,126.856,176.963,15.018C97.487,46.498,41.276,124.045,41.276,214.724
	c0,118.589,96.135,214.724,214.724,214.724C335.393,429.448,404.715,386.355,441.871,322.289z"/>
<circle style="fill:#495059;" cx="256" cy="214.72" r="86.9"/>
<circle style="fill:#FFFFFF;" cx="281.43" cy="189.3" r="25.428"/>
<path style="opacity:0.2;fill:#254A74;enable-background:new    ;" d="M329.039,261.78c8.758-13.564,13.861-29.71,13.861-47.057
	c0-47.993-38.906-86.899-86.899-86.899c-23.548,0-44.894,9.382-60.544,24.592C246.985,138.769,340.482,165.986,329.039,261.78z"/>
<path style="fill:#F0F2FF;" d="M256,309.123c-52.052,0-94.399-42.348-94.399-94.399c0-52.052,42.348-94.398,94.399-94.398
	s94.399,42.347,94.399,94.398S308.052,309.123,256,309.123z M256,135.325c-43.781,0-79.399,35.618-79.399,79.398
	c0,43.781,35.618,79.399,79.399,79.399s79.399-35.618,79.399-79.399C335.398,170.943,299.781,135.325,256,135.325z"/>
<g>
</g>
<g>
</g>
<g>
</g>
<g>
</g>
<g>
</g>
<g>
</g>
<g>
</g>
<g>
</g>
<g>
</g>
<g>
</g>
<g>
</g>
<g>
</g>
<g>
</g>
<g>
</g>
<g>
</g>
</svg>
