<?xml version="1.0" encoding="iso-8859-1"?>
<!-- Generator: Adobe Illustrator 19.0.0, SVG Export Plug-In . SVG Version: 6.00 Build 0)  -->
<svg version="1.1" id="Capa_1" xmlns="http://www.w3.org/2000/svg" xmlns:xlink="http://www.w3.org/1999/xlink" x="0px" y="0px"
	 viewBox="0 0 512 512" style="enable-background:new 0 0 512 512;" xml:space="preserve">
<path style="fill:#F8E47C;" d="M85.728,174.974H22.27c-12.299,0-22.27,9.97-22.27,22.27v117.51c0,12.299,9.97,22.27,22.27,22.27
	h63.459c13.892,0,27.617,3.024,40.223,8.862l108.38,50.194c14.138,6.548,30.298-3.777,30.298-19.358V135.276
	c0-15.581-16.16-25.905-30.298-19.358l-108.38,50.194C113.345,171.95,99.62,174.974,85.728,174.974z"/>
<g>
	<ellipse style="fill:#E38892;" cx="56.3" cy="242.069" rx="19.259" ry="15.337"/>
	<ellipse style="fill:#E38892;" cx="160.69" cy="242.069" rx="19.259" ry="15.337"/>
</g>
<g>
	<path style="fill:#495059;" d="M67.521,234.272c-4.143,0-7.5-3.357-7.5-7.5v-6.801c0-4.143,3.357-7.5,7.5-7.5s7.5,3.357,7.5,7.5
		v6.801C75.021,230.915,71.664,234.272,67.521,234.272z"/>
	<path style="fill:#495059;" d="M149.463,234.272c-4.143,0-7.5-3.357-7.5-7.5v-6.801c0-4.143,3.357-7.5,7.5-7.5s7.5,3.357,7.5,7.5
		v6.801C156.963,230.915,153.605,234.272,149.463,234.272z"/>
	<path style="fill:#495059;" d="M108.492,239.495c-6.309,0-12.307-2.731-16.456-7.494c-2.722-3.123-2.396-7.86,0.728-10.581
		c3.122-2.721,7.86-2.396,10.581,0.728c1.301,1.492,3.177,2.348,5.147,2.348c1.971,0,3.847-0.856,5.148-2.349
		c2.721-3.123,7.459-3.448,10.581-0.726c3.123,2.722,3.447,7.459,0.726,10.581C120.797,236.764,114.799,239.495,108.492,239.495z"/>
</g>
<g style="opacity:0.2;">
	<path style="fill:#C97B00;" d="M95.815,285.433H51.132c-4.143,0-7.5-3.357-7.5-7.5s3.357-7.5,7.5-7.5h44.684
		c4.143,0,7.5,3.357,7.5,7.5S99.958,285.433,95.815,285.433z"/>
	<path style="fill:#C97B00;" d="M95.815,313.4H51.132c-4.143,0-7.5-3.357-7.5-7.5s3.357-7.5,7.5-7.5h44.684
		c4.143,0,7.5,3.357,7.5,7.5C103.315,310.043,99.958,313.4,95.815,313.4z"/>
</g>
<path style="opacity:0.2;fill:#C97B00;enable-background:new    ;" d="M234.331,396.079c14.138,6.548,30.298-3.777,30.298-19.358
	v-10.825C44.966,321.381,49.726,227.872,50.991,174.974H22.27c-12.3,0-22.27,9.971-22.27,22.27v117.51
	c0,12.299,9.97,22.269,22.27,22.269h63.459c13.892,0,27.617,3.024,40.222,8.862L234.331,396.079z"/>
<path style="fill:#BBE0F1;" d="M405.843,79.248c0,4.201,1.602,8.401,4.807,11.606c44.187,44.188,68.522,102.837,68.522,165.145
	s-24.335,120.957-68.522,165.145c-6.41,6.41-6.41,16.802,0,23.212c6.41,6.411,16.802,6.411,23.213,0
	C484.25,393.969,512,327.075,512,255.999s-27.75-137.97-78.137-188.356c-6.41-6.411-16.802-6.411-23.213,0
	C407.446,70.848,405.843,75.048,405.843,79.248z"/>
<path style="fill:#7F9AE6;" d="M359.44,125.651c0,4.201,1.602,8.401,4.807,11.606c31.773,31.773,49.271,73.943,49.271,118.742
	s-17.498,86.969-49.271,118.742c-6.41,6.41-6.41,16.802,0,23.212c6.41,6.411,16.803,6.411,23.213,0
	c37.973-37.973,58.886-88.386,58.886-141.954s-20.913-103.981-58.886-141.954c-6.41-6.411-16.802-6.411-23.213,0
	C361.042,117.25,359.44,121.45,359.44,125.651z"/>
<path style="fill:#6B7BAB;" d="M313.037,172.054c0,4.201,1.602,8.401,4.808,11.606c19.358,19.358,30.019,45.049,30.019,72.339
	s-10.661,52.981-30.019,72.339c-6.411,6.41-6.41,16.802-0.001,23.212s16.802,6.411,23.212,0
	c25.559-25.557,39.634-59.492,39.634-95.551s-14.076-69.993-39.634-95.551c-6.41-6.411-16.803-6.41-23.212,0
	C314.64,163.653,313.037,167.854,313.037,172.054z"/>
<g>
	<path style="opacity:0.2;fill:#254A74;enable-background:new    ;" d="M380.578,250.677c0.068,1.769,0.113,3.542,0.113,5.322
		c0,36.059-14.076,69.993-39.634,95.551c-6.41,6.411-16.803,6.41-23.212,0c-6.41-6.41-6.41-16.802,0.001-23.212
		c19.358-19.358,30.019-45.049,30.019-72.339c0-4.85-0.343-9.648-1.006-14.371C356.045,257.325,374.262,258.014,380.578,250.677z"/>
	<path style="opacity:0.2;fill:#254A74;enable-background:new    ;" d="M446.345,255.999c0,53.568-20.913,103.981-58.886,141.954
		c-6.41,6.411-16.802,6.411-23.213,0c-6.41-6.41-6.41-16.802,0-23.212c31.773-31.773,49.271-73.943,49.271-118.742
		c0-7.787-0.541-15.491-1.581-23.078c10.201,17.812,27.068,20.307,34.201,14.077C446.27,249.988,446.345,252.988,446.345,255.999z"
		/>
	<path style="opacity:0.2;fill:#254A74;enable-background:new    ;" d="M512,255.999c0,71.076-27.75,137.97-78.137,188.356
		c-6.41,6.411-16.802,6.411-23.213,0c-6.41-6.41-6.41-16.802,0-23.212c44.187-44.188,68.522-102.837,68.522-165.145
		c0-8.009-0.409-15.957-1.204-23.822c8.593,15.235,24.444,20.309,33.94,16.89C511.967,251.373,512,253.684,512,255.999z"/>
</g>
<path style="fill:#E38892;" d="M234.331,115.919L208.9,127.696v256.605l25.431,11.778c14.138,6.548,30.298-3.777,30.298-19.358
	V135.276C264.629,119.696,248.469,109.371,234.331,115.919z"/>
<path style="opacity:0.2;fill:#C97B00;enable-background:new    ;" d="M208.901,384.301l25.431,11.778
	c14.138,6.548,30.298-3.777,30.298-19.358v-10.825c-20.463-4.147-38.976-8.72-55.728-13.645v32.05H208.901z"/>
<g>
</g>
<g>
</g>
<g>
</g>
<g>
</g>
<g>
</g>
<g>
</g>
<g>
</g>
<g>
</g>
<g>
</g>
<g>
</g>
<g>
</g>
<g>
</g>
<g>
</g>
<g>
</g>
<g>
</g>
</svg>
