<?xml version="1.0" encoding="iso-8859-1"?>
<!-- Generator: Adobe Illustrator 19.0.0, SVG Export Plug-In . SVG Version: 6.00 Build 0)  -->
<svg version="1.1" id="Capa_1" xmlns="http://www.w3.org/2000/svg" xmlns:xlink="http://www.w3.org/1999/xlink" x="0px" y="0px"
	 viewBox="0 0 511.999 511.999" style="enable-background:new 0 0 511.999 511.999;" xml:space="preserve">
<path style="fill:#BBE0F1;" d="M504.607,272.897c9.857-9.106,9.857-24.686,0-33.793C466.572,203.966,369.61,126.255,256,126.255
	S45.428,203.966,7.393,239.104c-9.857,9.106-9.857,24.686,0,33.793C45.428,308.035,142.39,385.746,256,385.746
	S466.572,308.035,504.607,272.897z"/>
<circle style="fill:#6B7BAB;" cx="256" cy="256" r="129.75"/>
<circle style="fill:#495059;" cx="256" cy="256" r="70.02"/>
<path style="opacity:0.2;fill:#254A74;enable-background:new    ;" d="M432.678,328.245
	c-210.926,17.539-241.606-141.561-226.602-197.128C114.593,148.651,39.715,209.244,7.393,239.104
	c-9.857,9.106-9.857,24.686,0,33.792C45.428,308.035,142.39,385.746,256,385.746C323.827,385.746,385.715,358.047,432.678,328.245z"
	/>
<path style="fill:#E38892;" d="M84.646,453.491c-6.689,0-13.378-2.551-18.482-7.655c-10.207-10.207-10.207-26.756,0-36.963
	L408.873,66.164c10.207-10.207,26.756-10.207,36.963,0c10.206,10.207,10.206,26.756,0,36.963L103.127,445.836
	C98.024,450.94,91.335,453.491,84.646,453.491z"/>
<path style="opacity:0.15;fill:#812B2F;enable-background:new    ;" d="M266.306,208.731L66.164,408.873
	c-10.207,10.207-10.207,26.756,0,36.963c5.104,5.104,11.793,7.655,18.482,7.655s13.378-2.551,18.481-7.655l193.684-193.684
	C272.138,250.235,260.878,227.49,266.306,208.731z"/>
<g>
</g>
<g>
</g>
<g>
</g>
<g>
</g>
<g>
</g>
<g>
</g>
<g>
</g>
<g>
</g>
<g>
</g>
<g>
</g>
<g>
</g>
<g>
</g>
<g>
</g>
<g>
</g>
<g>
</g>
</svg>
