<?xml version="1.0" encoding="iso-8859-1"?>
<!-- Generator: Adobe Illustrator 19.0.0, SVG Export Plug-In . SVG Version: 6.00 Build 0)  -->
<svg version="1.1" id="Capa_1" xmlns="http://www.w3.org/2000/svg" xmlns:xlink="http://www.w3.org/1999/xlink" x="0px" y="0px"
	 viewBox="0 0 512 512" style="enable-background:new 0 0 512 512;" xml:space="preserve">
<path style="fill:#F0F2FF;" d="M299.725,16.288L125.248,47.053c-34.518,6.086-57.567,39.003-51.48,73.521l43.323,245.698
	c3.248,18.421,20.814,30.721,39.235,27.473l203.623-35.904c18.421-3.248,30.721-20.814,27.473-39.235L338.96,43.761
	C335.712,25.34,318.145,13.04,299.725,16.288z"/>
<path style="fill:#DBE1FF;" d="M125.248,47.053c-34.518,6.086-57.567,39.003-51.48,73.522l43.323,245.698
	c3.248,18.421,20.814,30.721,39.235,27.473l203.624-35.904c18.186-3.207,30.395-20.369,27.578-38.532l0,0
	C262.746,340.642,158.515,195.775,169.534,39.245L125.248,47.053z"/>
<g>
	
		<ellipse transform="matrix(-0.1736 -0.9848 0.9848 -0.1736 30.5105 311.5746)" style="fill:#E38892;" cx="145.982" cy="142.986" rx="20.574" ry="25.836"/>
	
		<ellipse transform="matrix(0.1736 0.9848 -0.9848 0.1736 351.4665 -181.5441)" style="fill:#E38892;" cx="283.906" cy="118.649" rx="20.574" ry="25.836"/>
</g>
<g>
	<path style="fill:#495059;" d="M157.242,127.65c-3.572,0-6.736-2.56-7.377-6.199l-1.584-8.985
		c-0.719-4.079,2.005-7.969,6.084-8.688c4.082-0.725,7.969,2.004,8.688,6.084l1.584,8.985c0.719,4.079-2.005,7.969-6.084,8.688
		C158.112,127.613,157.674,127.65,157.242,127.65z"/>
	<path style="fill:#495059;" d="M265.497,108.563c-3.572,0-6.736-2.56-7.378-6.199l-1.584-8.985
		c-0.719-4.079,2.005-7.969,6.084-8.688c4.083-0.72,7.969,2.004,8.689,6.084l1.584,8.985c0.719,4.079-2.005,7.969-6.084,8.688
		C266.367,108.525,265.929,108.563,265.497,108.563z"/>
	<path style="fill:#495059;" d="M209.263,125.296c-6.065,0-12.003-2.067-16.798-5.942c-3.222-2.603-3.724-7.325-1.121-10.547
		c2.603-3.224,7.325-3.725,10.547-1.121c2.642,2.135,6.068,3.016,9.402,2.434c3.332-0.588,6.249-2.594,8.002-5.503
		c2.138-3.548,6.746-4.689,10.295-2.553c3.547,2.138,4.69,6.747,2.553,10.295c-3.991,6.623-10.641,11.19-18.245,12.532
		C212.356,125.162,210.805,125.296,209.263,125.296z"/>
	<path style="fill:#495059;" d="M163.004,200.92c-3.571,0-6.736-2.559-7.377-6.198c-0.719-4.079,2.004-7.97,6.084-8.688
		L283.83,164.5c4.084-0.725,7.969,2.004,8.689,6.083c0.719,4.079-2.004,7.97-6.084,8.689l-122.119,21.533
		C163.875,200.883,163.437,200.92,163.004,200.92z"/>
	<path style="fill:#495059;" d="M169.334,236.818c-3.571,0-6.736-2.56-7.378-6.198c-0.719-4.079,2.004-7.97,6.084-8.689
		l122.12-21.533c4.082-0.724,7.97,2.005,8.688,6.083c0.719,4.079-2.005,7.97-6.084,8.688l-122.12,21.533
		C170.205,236.781,169.766,236.818,169.334,236.818z"/>
</g>
<path style="fill:#909DE0;" d="M125.248,47.053c-34.518,6.086-57.567,39.003-51.48,73.522l3.593,20.377
	c-1.69-9.587,1.293-27.435,18.485-30.466c18.421-3.248,30.721-20.814,27.473-39.235c-3.032-17.193,12.719-26.1,22.306-27.791
	L125.248,47.053z"/>
<path style="fill:#BBE0F1;" d="M0.169,433.111l31.005-175.835c1.056-5.989,6.767-9.988,12.757-8.932L328.6,298.539
	c5.989,1.056,9.988,6.767,8.932,12.757L306.527,487.13c-1.056,5.989-6.767,9.988-12.757,8.932L9.101,445.868
	C3.112,444.812-0.887,439.1,0.169,433.111z"/>
<path style="fill:#5B9675;" d="M293.771,496.063c5.989,1.056,11.701-2.943,12.757-8.932l14.316-81.191l-40.862-58.358
	c-9.693-13.842-28.771-17.206-42.613-7.514L70.746,456.737L293.771,496.063z"/>
<path style="fill:#72CDA2;" d="M7.516,445.452c0.512,0.171,1.037,0.319,1.585,0.416l194.584,34.311l-69.77-99.642
	c-6.122-8.743-18.171-10.867-26.914-4.746L7.516,445.452z"/>
<circle style="fill:#F8E47C;" cx="94.78" cy="315.11" r="30.578"/>
<circle style="fill:#E38892;" cx="380.79" cy="397.36" r="91.14"/>
<path style="fill:#FFFFFF;" d="M421.899,411.693l-53.574,26.787c-10.659,5.329-23.2-2.421-23.2-14.338v-53.574
	c0-11.917,12.541-19.668,23.2-14.338l53.574,26.787C433.714,388.924,433.714,405.786,421.899,411.693z"/>
<path style="opacity:0.15;fill:#812B2F;enable-background:new    ;" d="M459.472,443.367
	c-113.997,22.165-141.407-84.173-94.226-135.823c-42.927,7.379-75.591,44.778-75.591,89.811c0,50.334,40.804,91.137,91.137,91.137
	C414.341,488.492,443.651,470.361,459.472,443.367z"/>
<rect x="393.386" y="86.953" transform="matrix(0.9848 0.1736 -0.1736 0.9848 36.1053 -68.821)" style="fill:#6B7BAB;" width="36.169" height="170.067"/>
<path style="fill:#F8E47C;" d="M367.701,321.088h-22.786c-26.559,0-46.68-23.979-42.068-50.135l0,0
	c3.6-20.415,21.338-35.299,42.068-35.299h73.695l-8.84,50.135C406.169,306.204,388.431,321.088,367.701,321.088z"/>
<path style="opacity:0.2;fill:#C97B00;enable-background:new    ;" d="M357.309,235.654h-12.394
	c-20.73,0-38.468,14.884-42.068,35.299l0,0c-4.612,26.156,15.509,50.135,42.068,50.135h22.786c11.64,0,22.336-4.694,30.117-12.424
	C345.828,314.879,325.752,258.171,357.309,235.654z"/>
<path style="fill:#E38892;" d="M503.189,35.005H446.12c-16.69,0-30.971,11.983-33.87,28.42l-7.907,44.844h56.598
	c23.034,0,42.743-16.538,46.743-39.222l4.18-23.703C512.815,39.95,508.666,35.005,503.189,35.005z"/>
<path style="opacity:0.15;fill:#812B2F;enable-background:new    ;" d="M460.941,108.269c9.092,0,17.661-2.586,24.956-7.1
	c-25.66-6.419-35.466-47.925-31.77-66.164h-8.006c-16.69,0-30.971,11.983-33.87,28.42l-7.907,44.843h56.597V108.269z"/>
<g>
</g>
<g>
</g>
<g>
</g>
<g>
</g>
<g>
</g>
<g>
</g>
<g>
</g>
<g>
</g>
<g>
</g>
<g>
</g>
<g>
</g>
<g>
</g>
<g>
</g>
<g>
</g>
<g>
</g>
</svg>
