<?xml version="1.0" encoding="iso-8859-1"?>
<!-- Generator: Adobe Illustrator 19.0.0, SVG Export Plug-In . SVG Version: 6.00 Build 0)  -->
<svg version="1.1" id="Capa_1" xmlns="http://www.w3.org/2000/svg" xmlns:xlink="http://www.w3.org/1999/xlink" x="0px" y="0px"
	 viewBox="0 0 512 512" style="enable-background:new 0 0 512 512;" xml:space="preserve">
<path style="fill:#7F9AE6;" d="M304.397,509.628c-84.226,14.851-164.831-41.589-179.682-125.814L81.199,137.025
	C70.021,73.632,112.501,12.963,175.894,1.785s124.061,31.303,135.239,94.696l43.516,246.789c7.504,42.56-21.015,83.29-63.575,90.795
	c-42.56,7.504-83.29-21.015-90.795-63.575l-27.371-155.23c-1.778-10.086,4.956-19.703,15.042-21.482
	c10.085-1.778,19.703,4.956,21.482,15.042l27.371,155.23c3.954,22.421,25.411,37.445,47.832,33.492s37.445-25.41,33.492-47.831
	l-43.516-246.789c-7.627-43.254-49.021-72.24-92.276-64.613c-43.254,7.627-72.238,49.022-64.611,92.276l43.516,246.789
	c11.3,64.086,72.632,107.031,136.719,95.731s107.032-72.632,95.732-136.719l-27.371-155.23
	c-1.778-10.086,4.956-19.703,15.042-21.482c10.085-1.778,19.703,4.956,21.482,15.042l27.371,155.23
	C445.063,414.172,388.623,494.777,304.397,509.628z"/>
<g>
	<path style="opacity:0.2;fill:#254A74;enable-background:new    ;" d="M427.451,396.323c-11.344,2.336-25.837-0.126-36.195-8.197
		c-11.756,42.55-47.01,76.816-93.299,84.979c-64.087,11.3-125.419-31.645-136.719-95.731l-43.516-246.789
		c-3.906-22.153,1.808-43.805,14.107-60.696C118.674,66.231,108.933,54.54,105.742,43c-20.69,25.402-30.665,59.304-24.543,94.024
		l43.515,246.789c14.851,84.226,95.456,140.666,179.682,125.814C365.82,498.797,412.456,452.995,427.451,396.323z"/>
	<path style="opacity:0.2;fill:#254A74;enable-background:new    ;" d="M318.125,349.71c3.954,22.421-11.071,43.878-33.492,47.831
		c-22.421,3.954-43.878-11.071-47.831-33.492l-27.371-155.23c-1.779-10.086-11.396-16.82-21.482-15.042
		c-10.085,1.778-16.82,11.395-15.042,21.482l27.371,155.23c7.504,42.56,48.235,71.079,90.795,63.575s71.08-48.235,63.575-90.795
		l-6.858-38.892c-15.566-4.359-31.326-19.356-43.744-34.513L318.125,349.71z"/>
</g>
<g>
</g>
<g>
</g>
<g>
</g>
<g>
</g>
<g>
</g>
<g>
</g>
<g>
</g>
<g>
</g>
<g>
</g>
<g>
</g>
<g>
</g>
<g>
</g>
<g>
</g>
<g>
</g>
<g>
</g>
</svg>
