<?xml version="1.0" encoding="iso-8859-1"?>
<!-- Generator: Adobe Illustrator 19.0.0, SVG Export Plug-In . SVG Version: 6.00 Build 0)  -->
<svg version="1.1" id="Capa_1" xmlns="http://www.w3.org/2000/svg" xmlns:xlink="http://www.w3.org/1999/xlink" x="0px" y="0px"
	 viewBox="0 0 512 512" style="enable-background:new 0 0 512 512;" xml:space="preserve">
<path style="fill:#F0F2FF;" d="M377.25,0H169.462c-41.109,0-74.434,33.325-74.434,74.434v292.607
	c0,21.938,17.784,39.722,39.722,39.722h242.5c21.938,0,39.722-17.784,39.722-39.722V39.722C416.972,17.784,399.188,0,377.25,0z"/>
<path style="fill:#DBE1FF;" d="M169.462,0c-41.109,0-74.434,33.325-74.434,74.434v292.607c0,21.938,17.784,39.722,39.722,39.722
	h242.5c21.658,0,39.255-17.337,39.7-38.888l0,0C268.481,367.102,177.597,178.55,222.203,0H169.462z"/>
<g>
	<ellipse style="fill:#E38892;" cx="173.88" cy="122.1" rx="30.3" ry="24.13"/>
	<ellipse style="fill:#E38892;" cx="338.12" cy="122.1" rx="30.3" ry="24.13"/>
</g>
<g>
	<path style="fill:#495059;" d="M191.538,105.53c-4.143,0-7.5-3.357-7.5-7.5v-10.7c0-4.143,3.357-7.5,7.5-7.5s7.5,3.357,7.5,7.5
		v10.7C199.038,102.173,195.681,105.53,191.538,105.53z"/>
	<path style="fill:#495059;" d="M320.462,105.53c-4.143,0-7.5-3.357-7.5-7.5v-10.7c0-4.143,3.357-7.5,7.5-7.5s7.5,3.357,7.5,7.5
		v10.7C327.962,102.173,324.605,105.53,320.462,105.53z"/>
	<path style="fill:#495059;" d="M256,113.748c-8.681,0-16.935-3.76-22.649-10.315c-2.722-3.123-2.396-7.86,0.727-10.582
		c3.122-2.721,7.859-2.396,10.582,0.727c2.863,3.286,6.997,5.171,11.341,5.171c4.344,0,8.478-1.885,11.341-5.171
		c2.722-3.122,7.457-3.447,10.582-0.727c3.122,2.722,3.448,7.459,0.727,10.582C272.936,109.988,264.681,113.748,256,113.748z"/>
	<path style="fill:#495059;" d="M328.707,196.484H183.273c-4.143,0-7.5-3.357-7.5-7.5s3.357-7.5,7.5-7.5h145.434
		c4.143,0,7.5,3.357,7.5,7.5S332.85,196.484,328.707,196.484z"/>
	<path style="fill:#495059;" d="M328.707,239.235H183.273c-4.143,0-7.5-3.357-7.5-7.5s3.357-7.5,7.5-7.5h145.434
		c4.143,0,7.5,3.357,7.5,7.5S332.85,239.235,328.707,239.235z"/>
</g>
<path style="fill:#909DE0;" d="M169.462,0c-41.109,0-74.434,33.325-74.434,74.434v24.267c0-11.418,7.08-31.424,27.556-31.424
	c21.938,0,39.722-17.784,39.722-39.722C162.306,7.08,182.312,0,193.73,0H169.462z"/>
<path style="fill:#7F9AE6;" d="M207.29,314.307c0-12.068,9.783-21.851,21.851-21.851h47.278c12.068,0,21.851,9.783,21.851,21.851
	V430.25h19.905c9.442,0,14.094,11.484,7.315,18.056l-60.684,58.822c-6.701,6.496-17.35,6.496-24.051,0l-60.684-58.822
	c-6.78-6.572-2.128-18.056,7.315-18.056h19.905V314.307H207.29z"/>
<path style="opacity:0.2;fill:#254A74;enable-background:new    ;" d="M240.755,507.128c6.701,6.496,17.35,6.496,24.051,0
	l38.159-36.988c-70.818,16.258-68.053-73.585-67.78-177.685h-6.044c-12.068,0-21.851,9.783-21.851,21.851V430.25h-19.905
	c-9.442,0-14.094,11.484-7.315,18.056L240.755,507.128z"/>
<g>
</g>
<g>
</g>
<g>
</g>
<g>
</g>
<g>
</g>
<g>
</g>
<g>
</g>
<g>
</g>
<g>
</g>
<g>
</g>
<g>
</g>
<g>
</g>
<g>
</g>
<g>
</g>
<g>
</g>
</svg>
