<?xml version="1.0" encoding="iso-8859-1"?>
<!-- Generator: Adobe Illustrator 19.0.0, SVG Export Plug-In . SVG Version: 6.00 Build 0)  -->
<svg version="1.1" id="Capa_1" xmlns="http://www.w3.org/2000/svg" xmlns:xlink="http://www.w3.org/1999/xlink" x="0px" y="0px"
	 viewBox="0 0 512 512" style="enable-background:new 0 0 512 512;" xml:space="preserve">
<rect x="334.93" y="67.924" style="fill:#72CDA2;" width="101.02" height="119.52"/>
<path style="opacity:0.2;fill:#2C6245;enable-background:new    ;" d="M366.174,83.061h69.774V67.924H334.934v119.52h84.267
	C362.277,156.141,366.174,83.061,366.174,83.061z"/>
<path style="fill:#72CDA2;" d="M461.838,217.688L256,135.036L50.162,217.688v246.959c0,12.845,10.413,23.257,23.257,23.257H438.58
	c12.845,0,23.257-10.413,23.257-23.257V217.688H461.838z"/>
<path style="opacity:0.2;fill:#2C6245;enable-background:new    ;" d="M50.162,217.688v246.959
	c0,12.845,10.413,23.258,23.258,23.258h236.545c-138.062-55.605-128.563-198.2-103.397-267.953
	c1.74-4.824,5.487-8.651,10.267-10.507l31.039-12.057c5.227-2.031,11.026-2.031,16.253,0l197.711,76.801v-56.5L256,135.036
	L50.162,217.688z"/>
<path style="fill:#6B7BAB;" d="M210.557,292.014h-87.852c-11.925,0-21.592,9.667-21.592,21.592v174.3h131.036v-174.3
	C232.149,301.681,222.482,292.014,210.557,292.014z"/>
<path style="fill:#F0F2FF;" d="M393.028,390.595H291.47V303.31c0-6.239,5.058-11.296,11.296-11.296h78.965
	c6.239,0,11.296,5.058,11.296,11.296v87.285H393.028z"/>
<path style="fill:#5B9675;" d="M402.708,390.595H281.79c-4.517,0-8.179,3.662-8.179,8.179v19.901c0,4.517,3.662,8.179,8.179,8.179
	h120.918c4.517,0,8.179-3.662,8.179-8.179v-19.901C410.887,394.257,407.225,390.595,402.708,390.595z"/>
<g>
	<rect x="334.75" y="292.01" style="fill:#6B7BAB;" width="15" height="98.58"/>
	<rect x="291.47" y="333.81" style="fill:#6B7BAB;" width="101.56" height="15"/>
</g>
<path style="opacity:0.2;fill:#254A74;enable-background:new    ;" d="M232.149,432.535
	c-34.226-41.954-43.004-94.362-40.127-140.522h-69.317c-11.925,0-21.592,9.667-21.592,21.592v174.3h131.036V432.535z"/>
<circle style="fill:#F0F2FF;" cx="130.16" cy="389.96" r="7.373"/>
<path style="fill:#6B7BAB;" d="M512,200.434c0-9.259-5.686-17.568-14.317-20.921L272.545,92.057c-10.643-4.133-22.447-4.133-33.09,0
	L14.317,179.512C5.686,182.865,0,191.173,0,200.434v29.31c0,15.783,15.859,26.635,30.57,20.921l217.303-84.411
	c5.227-2.031,11.026-2.031,16.253,0l217.303,84.411c14.711,5.715,30.57-5.138,30.57-20.921v-29.31H512z"/>
<path style="opacity:0.2;fill:#2C6245;enable-background:new    ;" d="M200.469,107.201L14.317,179.512
	C5.686,182.865,0,191.173,0,200.434v29.31c0,15.782,15.859,26.635,30.571,20.921l208.256-80.897
	C203.54,163.135,192.781,126.196,200.469,107.201z"/>
<path style="fill:#6B7BAB;" d="M441.262,24.094H329.621c-5.356,0-9.698,4.342-9.698,9.698v24.435c0,5.356,4.342,9.698,9.698,9.698
	h111.641c5.356,0,9.697-4.342,9.697-9.698V33.791C450.959,28.436,446.618,24.094,441.262,24.094z"/>
<g>
</g>
<g>
</g>
<g>
</g>
<g>
</g>
<g>
</g>
<g>
</g>
<g>
</g>
<g>
</g>
<g>
</g>
<g>
</g>
<g>
</g>
<g>
</g>
<g>
</g>
<g>
</g>
<g>
</g>
</svg>
