<?xml version="1.0" encoding="iso-8859-1"?>
<!-- Generator: Adobe Illustrator 19.0.0, SVG Export Plug-In . SVG Version: 6.00 Build 0)  -->
<svg version="1.1" id="Capa_1" xmlns="http://www.w3.org/2000/svg" xmlns:xlink="http://www.w3.org/1999/xlink" x="0px" y="0px"
	 viewBox="0 0 512.001 512.001" style="enable-background:new 0 0 512.001 512.001;" xml:space="preserve">
<path style="fill:#F8E47C;" d="M256.001,512.001C118.944,512.001,7.44,400.497,7.44,263.44c0-16.764,13.591-30.356,30.356-30.356
	s30.356,13.591,30.356,30.356c0,103.58,84.269,187.849,187.85,187.849S443.851,367.02,443.851,263.44S359.582,75.591,256.001,75.591
	c-50.087,0-97.2,19.479-132.66,54.849c-11.87,11.839-31.09,11.816-42.93-0.055c-11.84-11.87-11.815-31.09,0.054-42.93
	c46.922-46.8,109.262-72.576,175.536-72.576c137.057,0,248.561,111.504,248.561,248.561S393.059,512.001,256.001,512.001z"/>
<g>
	<path style="opacity:0.2;fill:#C97B00;enable-background:new    ;" d="M418.378,357.796
		c-32.589,55.866-93.168,93.493-162.377,93.493c-103.58,0-187.85-84.269-187.85-187.849c0-16.764-13.591-30.356-30.356-30.356
		S7.439,246.675,7.439,263.44C7.44,400.497,118.944,512.001,256.001,512.001c96.671,0,180.621-55.477,221.707-136.261
		C457.025,372.38,437.218,366.213,418.378,357.796z"/>
	<path style="opacity:0.2;fill:#C97B00;enable-background:new    ;" d="M80.466,87.456c-11.87,11.84-11.894,31.06-0.054,42.93
		c11.839,11.871,31.06,11.893,42.93,0.055c22.796-22.739,50.412-38.896,80.534-47.546c-5.882-23.64-8.137-44.679-6.432-61.098
		C153.539,32.351,113.239,54.767,80.466,87.456z"/>
</g>
<path style="fill:#6B7BAB;" d="M187.578,359.184c-6.993,0-13.983-2.667-19.319-8.002c-10.669-10.67-10.669-27.968,0.001-38.637
	l68.424-68.423c10.668-10.669,27.966-10.669,38.637,0c10.668,10.67,10.668,27.968,0,38.638l-68.424,68.423
	C201.562,356.516,194.568,359.184,187.578,359.184z"/>
<path style="opacity:0.2;fill:#254A74;enable-background:new    ;" d="M236.683,244.121l-30.654,30.654
	c2.967,17.232,13.12,35.074,35.305,41.969l33.986-33.985c10.668-10.67,10.668-27.968,0-38.638
	C264.649,233.453,247.352,233.453,236.683,244.121z"/>
<path style="fill:#7F9AE6;" d="M352.767,290.761h-96.766c-15.089,0-27.32-12.231-27.32-27.32c0-15.089,12.232-27.32,27.32-27.32
	h96.766c15.089,0,27.32,12.231,27.32,27.32C380.087,278.529,367.856,290.761,352.767,290.761z"/>
<path style="fill:#6B7BAB;" d="M177.494,148.953c-0.975,0-1.958-0.043-2.948-0.129l-75.553-6.611
	c-18.371-1.608-31.962-17.803-30.354-36.175l6.61-75.552c1.607-18.372,17.799-31.973,36.175-30.355
	c18.371,1.608,31.962,17.803,30.354,36.175l-3.7,42.288l42.288,3.7c18.371,1.608,31.962,17.803,30.354,36.176
	C209.2,135.851,194.62,148.953,177.494,148.953z"/>
<path style="opacity:0.2;fill:#254A74;enable-background:new    ;" d="M177.494,148.953c13.358,0,25.166-7.972,30.437-19.727
	C93.927,134.888,91.279,42.614,98.88,1.42C86.188,5.246,76.475,16.474,75.249,30.487l-6.61,75.552
	c-1.607,18.371,11.983,34.567,30.354,36.175l75.553,6.611C175.536,148.91,176.519,148.953,177.494,148.953z"/>
<g>
</g>
<g>
</g>
<g>
</g>
<g>
</g>
<g>
</g>
<g>
</g>
<g>
</g>
<g>
</g>
<g>
</g>
<g>
</g>
<g>
</g>
<g>
</g>
<g>
</g>
<g>
</g>
<g>
</g>
</svg>
