<?xml version="1.0" encoding="iso-8859-1"?>
<!-- Generator: Adobe Illustrator 19.0.0, SVG Export Plug-In . SVG Version: 6.00 Build 0)  -->
<svg version="1.1" id="Capa_1" xmlns="http://www.w3.org/2000/svg" xmlns:xlink="http://www.w3.org/1999/xlink" x="0px" y="0px"
	 viewBox="0 0 511.999 511.999" style="enable-background:new 0 0 511.999 511.999;" xml:space="preserve">
<path style="fill:#7F9AE6;" d="M159.644,130.704H64.709l4.723-29.454c1.526-9.513,9.734-16.51,19.368-16.51h46.752
	c9.634,0,17.843,6.997,19.368,16.51L159.644,130.704z"/>
<path style="opacity:0.2;fill:#254A74;enable-background:new    ;" d="M113.988,84.74H88.801c-9.634,0-17.843,6.997-19.368,16.51
	l-4.723,29.454h74.809C113.113,119.457,103.749,103.92,113.988,84.74z"/>
<path style="fill:#7F9AE6;" d="M352.356,130.704h94.935l-4.723-29.454c-1.526-9.513-9.734-16.51-19.368-16.51h-46.752
	c-9.634,0-17.843,6.997-19.368,16.51L352.356,130.704z"/>
<path style="opacity:0.2;fill:#254A74;enable-background:new    ;" d="M401.635,84.74h-25.187c-9.634,0-17.843,6.997-19.368,16.51
	l-4.723,29.454h74.809C400.759,119.457,391.395,103.92,401.635,84.74z"/>
<path style="fill:#6B7BAB;" d="M511.16,352.603l-28.693-177.562c-5.701-35.28-36.159-61.212-71.897-61.212h-27.129
	c-16.614,0-32.878,4.771-46.859,13.746l-6.455,4.144c-10.697,6.867-23.141,10.518-35.853,10.518h-76.552
	c-12.712,0-25.156-3.651-35.853-10.518l-6.455-4.144c-13.981-8.975-30.245-13.746-46.859-13.746h-27.129
	c-35.738,0-66.196,25.931-71.897,61.212L0.84,352.603c-6.326,39.15,23.903,74.656,63.561,74.656l0,0
	c31.237,0,57.968-22.422,63.403-53.182l16.108-91.16h224.177l16.108,91.16c5.435,30.76,32.166,53.182,63.403,53.182l0,0
	C487.257,427.26,517.487,391.753,511.16,352.603z"/>
<g>
	<ellipse style="fill:#E38892;" cx="201.07" cy="195.99" rx="20.268" ry="16.14"/>
	<ellipse style="fill:#E38892;" cx="310.93" cy="195.99" rx="20.268" ry="16.14"/>
</g>
<g>
	<path style="fill:#495059;" d="M212.883,187.386c-4.142,0-7.5-3.357-7.5-7.5v-7.156c0-4.143,3.358-7.5,7.5-7.5s7.5,3.357,7.5,7.5
		v7.156C220.383,184.028,217.025,187.386,212.883,187.386z"/>
	<path style="fill:#495059;" d="M299.117,187.386c-4.142,0-7.5-3.357-7.5-7.5v-7.156c0-4.143,3.358-7.5,7.5-7.5s7.5,3.357,7.5,7.5
		v7.156C306.617,184.028,303.259,187.386,299.117,187.386z"/>
	<path style="fill:#495059;" d="M256,192.882c-6.525,0-12.729-2.825-17.022-7.751c-2.721-3.123-2.396-7.86,0.727-10.582
		c3.122-2.721,7.86-2.395,10.581,0.727c1.443,1.656,3.526,2.606,5.713,2.606c2.188,0,4.27-0.95,5.713-2.606
		c2.722-3.123,7.459-3.448,10.582-0.727c3.123,2.722,3.448,7.459,0.727,10.582C268.729,190.057,262.525,192.882,256,192.882z"/>
</g>
<path style="opacity:0.2;fill:#254A74;enable-background:new    ;" d="M193.112,137.494c-3.904-1.559-7.671-3.484-11.24-5.775
	l-6.455-4.144c-13.981-8.975-30.245-13.746-46.859-13.746h-27.129c-35.738,0-66.196,25.931-71.897,61.212L0.84,352.603
	c-6.326,39.15,23.903,74.656,63.561,74.656l0,0c31.237,0,57.968-22.421,63.403-53.182l16.108-91.16h122.49
	C208.271,244.137,191.296,174.571,193.112,137.494z"/>
<circle style="fill:#7F9AE6;" cx="180.95" cy="282.92" r="51.51"/>
<path style="opacity:0.2;fill:#254A74;enable-background:new    ;" d="M226.445,307.069c-73.517,18.13-84.404-50.736-62.957-72.617
	c-19.851,7.153-34.046,26.15-34.046,48.466c0,28.447,23.061,51.507,51.507,51.507C200.667,334.425,217.789,323.342,226.445,307.069z
	"/>
<circle style="fill:#BBE0F1;" cx="180.95" cy="282.92" r="27.445"/>
<circle style="fill:#7F9AE6;" cx="331.05" cy="282.92" r="51.51"/>
<path style="opacity:0.2;fill:#254A74;enable-background:new    ;" d="M376.546,307.069c-73.517,18.13-84.404-50.736-62.957-72.617
	c-19.851,7.153-34.046,26.15-34.046,48.466c0,28.447,23.06,51.507,51.507,51.507C350.768,334.425,367.89,323.342,376.546,307.069z"
	/>
<g>
	<circle style="fill:#BBE0F1;" cx="331.05" cy="282.92" r="27.445"/>
	<circle style="fill:#BBE0F1;" cx="411.76" cy="163.03" r="18.475"/>
	<circle style="fill:#BBE0F1;" cx="411.76" cy="221.83" r="18.475"/>
	<circle style="fill:#BBE0F1;" cx="441.16" cy="192.43" r="18.475"/>
	<circle style="fill:#BBE0F1;" cx="382.36" cy="192.43" r="18.475"/>
	<path style="fill:#BBE0F1;" d="M100.238,181.502L100.238,181.502c-10.203,0-18.475-8.271-18.475-18.475v-7.505
		c0-6.059,4.911-10.97,10.97-10.97h15.01c6.059,0,10.97,4.911,10.97,10.97v7.505C118.713,173.23,110.442,181.502,100.238,181.502z"
		/>
	<path style="fill:#BBE0F1;" d="M89.312,192.428L89.312,192.428c0,10.203-8.271,18.475-18.475,18.475h-7.505
		c-6.059,0-10.97-4.911-10.97-10.97v-15.01c0-6.059,4.911-10.97,10.97-10.97h7.505C81.041,173.953,89.312,182.225,89.312,192.428z"
		/>
	<path style="fill:#BBE0F1;" d="M100.238,203.354L100.238,203.354c10.203,0,18.475,8.271,18.475,18.475v7.505
		c0,6.059-4.911,10.97-10.97,10.97h-15.01c-6.059,0-10.97-4.911-10.97-10.97v-7.505C81.763,211.626,90.035,203.354,100.238,203.354z
		"/>
	<path style="fill:#BBE0F1;" d="M111.165,192.428L111.165,192.428c0-10.203,8.272-18.475,18.475-18.475h7.505
		c6.059,0,10.97,4.911,10.97,10.97v15.01c0,6.059-4.911,10.97-10.97,10.97h-7.505C119.436,210.903,111.165,202.632,111.165,192.428z
		"/>
</g>
<g>
</g>
<g>
</g>
<g>
</g>
<g>
</g>
<g>
</g>
<g>
</g>
<g>
</g>
<g>
</g>
<g>
</g>
<g>
</g>
<g>
</g>
<g>
</g>
<g>
</g>
<g>
</g>
<g>
</g>
</svg>
