<?xml version="1.0" encoding="iso-8859-1"?>
<!-- Generator: Adobe Illustrator 19.0.0, SVG Export Plug-In . SVG Version: 6.00 Build 0)  -->
<svg version="1.1" id="Capa_1" xmlns="http://www.w3.org/2000/svg" xmlns:xlink="http://www.w3.org/1999/xlink" x="0px" y="0px"
	 viewBox="0 0 512 512" style="enable-background:new 0 0 512 512;" xml:space="preserve">
<circle style="fill:#BBE0F1;" cx="256.002" cy="43.72" r="43.72"/>
<path style="opacity:0.2;fill:#254A74;enable-background:new    ;" d="M256.002,87.44c14.554,0,27.438-7.117,35.385-18.054
	c-39.814,4.605-63.778-36.031-38.658-69.251c-22.616,1.676-40.447,20.542-40.447,43.585C212.282,67.866,231.856,87.44,256.002,87.44
	z"/>
<circle style="fill:#7F9AE6;" cx="256.002" cy="286.88" r="225.12"/>
<path style="opacity:0.2;fill:#254A74;enable-background:new    ;" d="M444.089,410.601
	C151.176,452.41,104.252,159.174,184.933,73.212C95.429,102.969,30.878,187.379,30.878,286.876
	C30.878,411.208,131.669,512,256.002,512C334.629,512,403.829,471.681,444.089,410.601z"/>
<circle style="fill:#BBE0F1;" cx="256.002" cy="286.88" r="165.53"/>
<g>
	<circle style="fill:#6B7BAB;" cx="256.002" cy="159.17" r="16.91"/>
	<circle style="fill:#6B7BAB;" cx="128.302" cy="286.88" r="16.911"/>
	<circle style="fill:#6B7BAB;" cx="256.002" cy="414.58" r="16.91"/>
	<circle style="fill:#6B7BAB;" cx="383.702" cy="286.88" r="16.911"/>
</g>
<path style="fill:#D66274;" d="M330.582,198.766l-86.791,46.601c-12.432,6.675-22.623,16.866-29.298,29.298l-46.601,86.791
	c-4.683,8.722,4.807,18.212,13.529,13.529l86.791-46.601c12.432-6.675,22.623-16.866,29.298-29.298l46.601-86.791
	C348.795,203.574,339.304,194.083,330.582,198.766z"/>
<path style="fill:#FFFFFF;" d="M167.892,361.456c-4.683,8.722,4.807,18.213,13.529,13.529l86.791-46.601
	c6.216-3.338,11.872-7.554,16.808-12.49l-58.037-58.038c-4.936,4.936-9.152,10.592-12.49,16.808L167.892,361.456z"/>
<path style="opacity:0.1;enable-background:new    ;" d="M214.941,335.436c-1.919,0-3.839-0.732-5.303-2.196
	c-2.929-2.93-2.929-7.678,0-10.607l82.122-82.122c2.929-2.928,7.678-2.928,10.606,0c2.929,2.93,2.929,7.678,0,10.607l-82.122,82.122
	C218.78,334.704,216.86,335.436,214.941,335.436z"/>
<path style="opacity:0.2;fill:#254A74;enable-background:new    ;" d="M399.51,369.432c14.01-24.3,22.026-52.492,22.026-82.556
	c0-91.422-74.112-165.534-165.534-165.534c-34.915,0-67.299,10.819-94.001,29.275C311.367,106.691,422.584,224.983,399.51,369.432z"
	/>
<g>
</g>
<g>
</g>
<g>
</g>
<g>
</g>
<g>
</g>
<g>
</g>
<g>
</g>
<g>
</g>
<g>
</g>
<g>
</g>
<g>
</g>
<g>
</g>
<g>
</g>
<g>
</g>
<g>
</g>
</svg>
