<?xml version="1.0" encoding="iso-8859-1"?>
<!-- Generator: Adobe Illustrator 19.0.0, SVG Export Plug-In . SVG Version: 6.00 Build 0)  -->
<svg version="1.1" id="Capa_1" xmlns="http://www.w3.org/2000/svg" xmlns:xlink="http://www.w3.org/1999/xlink" x="0px" y="0px"
	 viewBox="0 0 512.001 512.001" style="enable-background:new 0 0 512.001 512.001;" xml:space="preserve">
<path style="fill:#D66274;" d="M345.805,77.917L162.41,110.254c-21.278,3.752-42.211-8.181-49.824-28.401l-7.005-18.606
	c-3.122-8.291,2.059-17.379,10.784-18.918l250.161-44.11c8.725-1.538,16.701,5.23,16.604,14.089l-0.219,19.88
	C382.672,55.793,367.083,74.165,345.805,77.917z"/>
<path style="fill:#E38892;" d="M350.055,175.244l-16.772-95.119l-158.35,27.921l16.772,95.119c0.859,4.873-0.269,9.898-3.178,13.9
	c-16.074,22.12-24.848,49.508-23.545,78.211c0.389,8.58,8.164,14.901,16.622,13.409l214.033-37.74
	c8.458-1.491,13.602-10.09,11.034-18.286c-8.593-27.418-26.205-50.154-48.875-65.441
	C353.692,184.452,350.914,180.117,350.055,175.244z"/>
<g>
	
		<ellipse transform="matrix(-0.1736 -0.9848 0.9848 -0.1736 14.4484 516.3611)" style="fill:#FFFFFF;" cx="223.874" cy="252.118" rx="16.808" ry="21.11"/>
	
		<ellipse transform="matrix(0.1736 0.9848 -0.9848 0.1736 506.8372 -139.5467)" style="fill:#FFFFFF;" cx="336.567" cy="232.225" rx="16.808" ry="21.11"/>
</g>
<g>
	<path style="fill:#495059;" d="M233.082,240.964c-3.571,0-6.736-2.56-7.377-6.199l-1.294-7.341
		c-0.72-4.079,2.005-7.969,6.084-8.688c4.086-0.724,7.97,2.005,8.688,6.084l1.294,7.341c0.72,4.079-2.005,7.969-6.084,8.688
		C233.952,240.927,233.514,240.964,233.082,240.964z"/>
	<path style="fill:#495059;" d="M321.518,225.37c-3.571,0-6.735-2.56-7.377-6.199l-1.294-7.34c-0.72-4.079,2.005-7.969,6.084-8.688
		c4.077-0.727,7.969,2.005,8.688,6.084l1.294,7.34c0.72,4.079-2.005,7.969-6.084,8.688
		C322.389,225.333,321.949,225.37,321.518,225.37z"/>
	<path style="fill:#495059;" d="M275.579,239.041c-5.265,0-10.419-1.796-14.584-5.16c-3.222-2.603-3.725-7.324-1.121-10.547
		c2.601-3.221,7.323-3.726,10.547-1.121c1.85,1.494,4.249,2.112,6.578,1.703c2.333-0.411,4.373-1.814,5.601-3.852
		c2.138-3.547,6.745-4.689,10.295-2.553c3.548,2.138,4.69,6.747,2.553,10.295c-3.466,5.751-9.24,9.717-15.843,10.881
		C278.266,238.924,276.918,239.041,275.579,239.041z"/>
</g>
<path style="fill:#BBE0F1;" d="M320.183,284.251l-63.126,11.131l32.17,182.447c1.175,6.665,4.589,12.729,9.678,17.19l14.488,12.703
	c8.288,7.267,21.173,4.995,26.476-4.668l9.27-16.892c3.256-5.933,4.39-12.799,3.215-19.464L320.183,284.251z"/>
<path style="opacity:0.2;fill:#254A74;enable-background:new    ;" d="M280.288,313.407l43.678-7.702l-3.783-21.454l-63.126,11.131
	l32.17,182.447c1.175,6.665,4.589,12.729,9.678,17.19l14.488,12.703c8.288,7.267,21.173,4.995,26.476-4.668l8.063-14.693
	C303.712,474.041,296.553,405.648,280.288,313.407z"/>
<g>
	<path style="opacity:0.15;fill:#812B2F;enable-background:new    ;" d="M228.853,98.539l-53.92,9.508l16.772,95.118
		c0.859,4.873-0.269,9.898-3.178,13.901c-16.074,22.12-24.848,49.508-23.545,78.211c0.389,8.58,8.164,14.901,16.622,13.409
		l140.887-24.842C248.384,269.488,228.837,191.768,228.853,98.539z"/>
	<path style="opacity:0.15;fill:#812B2F;enable-background:new    ;" d="M116.365,44.329c-8.725,1.538-13.905,10.626-10.784,18.918
		l7.005,18.606c7.613,20.22,28.546,32.153,49.824,28.401l131.947-23.266c-41.836-10.458-52.34-47.665-46.572-65.833L116.365,44.329z
		"/>
</g>
<g>
</g>
<g>
</g>
<g>
</g>
<g>
</g>
<g>
</g>
<g>
</g>
<g>
</g>
<g>
</g>
<g>
</g>
<g>
</g>
<g>
</g>
<g>
</g>
<g>
</g>
<g>
</g>
<g>
</g>
</svg>
