<?xml version="1.0" encoding="iso-8859-1"?>
<!-- Generator: Adobe Illustrator 19.0.0, SVG Export Plug-In . SVG Version: 6.00 Build 0)  -->
<svg version="1.1" id="Capa_1" xmlns="http://www.w3.org/2000/svg" xmlns:xlink="http://www.w3.org/1999/xlink" x="0px" y="0px"
	 viewBox="0 0 511.999 511.999" style="enable-background:new 0 0 511.999 511.999;" xml:space="preserve">
<path style="fill:#6B7BAB;" d="M360.008,260.029c-16.939,0-30.671-13.732-30.671-30.671V134.68
	c0-40.438-32.899-73.338-73.337-73.338s-73.337,32.9-73.337,73.338v94.678c0,16.939-13.732,30.671-30.671,30.671
	s-30.671-13.732-30.671-30.671V134.68C121.321,60.418,181.738,0,256,0s134.679,60.418,134.679,134.68v94.678
	C390.678,246.297,376.948,260.029,360.008,260.029z"/>
<path style="opacity:0.2;fill:#254A74;enable-background:new    ;" d="M265.525,61.981c-30.683-15.858-31.464-47.546-18.679-61.663
	C176.838,5.04,121.321,63.495,121.321,134.68v94.678c0,16.938,13.731,30.671,30.671,30.671c16.939,0,30.671-13.732,30.671-30.671
	V134.68c0-40.438,32.899-73.338,73.337-73.338C259.23,61.342,262.405,61.574,265.525,61.981z"/>
<path style="fill:#F8E47C;" d="M434.053,208.973L434.053,208.973c-117.408-24.792-238.699-24.792-356.107,0l0,0
	c-12.49,2.637-21.427,13.659-21.427,26.424v231.584c0,12.765,8.937,23.787,21.427,26.424l0,0
	c117.408,24.792,238.699,24.792,356.107,0l0,0c12.49-2.637,21.427-13.659,21.427-26.424V235.398
	C455.48,222.633,446.543,211.611,434.053,208.973z"/>
<g>
	<ellipse style="fill:#E38892;" cx="172.72" cy="264.4" rx="30.729" ry="24.471"/>
	<ellipse style="fill:#E38892;" cx="339.28" cy="264.4" rx="30.729" ry="24.471"/>
</g>
<g>
	<path style="fill:#495059;" d="M190.628,247.484c-4.142,0-7.5-3.357-7.5-7.5v-10.852c0-4.143,3.358-7.5,7.5-7.5s7.5,3.357,7.5,7.5
		v10.852C198.128,244.127,194.771,247.484,190.628,247.484z"/>
	<path style="fill:#495059;" d="M321.372,247.484c-4.142,0-7.5-3.357-7.5-7.5v-10.852c0-4.143,3.358-7.5,7.5-7.5s7.5,3.357,7.5,7.5
		v10.852C328.872,244.127,325.514,247.484,321.372,247.484z"/>
	<path style="fill:#495059;" d="M256,255.817c-8.773,0-17.116-3.8-22.889-10.424c-2.721-3.123-2.396-7.86,0.727-10.582
		c3.122-2.722,7.86-2.394,10.581,0.727c2.923,3.355,7.145,5.279,11.581,5.279s8.657-1.924,11.581-5.279
		c2.721-3.123,7.459-3.448,10.582-0.727c3.123,2.722,3.448,7.459,0.727,10.582C273.116,252.018,264.773,255.817,256,255.817z"/>
</g>
<path style="opacity:0.2;fill:#C97B00;enable-background:new    ;" d="M397.449,500.297
	c-207.733-63.636-235.402-228.098-216.127-306.66c-34.66,3.015-69.183,8.117-103.376,15.337l0,0
	c-12.49,2.637-21.427,13.659-21.427,26.424v231.584c0,12.765,8.938,23.787,21.427,26.424l0,0
	C183.192,515.63,291.557,517.916,397.449,500.297z"/>
<rect x="56.52" y="298.57" style="fill:#BBE0F1;" width="398.96" height="152.17"/>
<g>
	<path style="fill:#6B7BAB;" d="M256,415.675c-4.142,0-7.5-3.357-7.5-7.5V341.14c0-4.142,3.358-7.5,7.5-7.5s7.5,3.358,7.5,7.5
		v67.035C263.5,412.317,260.142,415.675,256,415.675z"/>
	<path style="fill:#6B7BAB;" d="M279.7,405.857c-1.919,0-3.839-0.732-5.303-2.196l-47.4-47.4c-2.929-2.93-2.929-7.678,0-10.607
		c2.929-2.928,7.678-2.928,10.606,0l47.4,47.4c2.929,2.93,2.929,7.678,0,10.607C283.539,405.125,281.62,405.857,279.7,405.857z"/>
	<path style="fill:#6B7BAB;" d="M289.517,382.157h-67.034c-4.142,0-7.5-3.357-7.5-7.5s3.358-7.5,7.5-7.5h67.034
		c4.142,0,7.5,3.357,7.5,7.5S293.659,382.157,289.517,382.157z"/>
	<path style="fill:#6B7BAB;" d="M232.3,405.857c-1.919,0-3.839-0.732-5.303-2.196c-2.929-2.93-2.929-7.678,0-10.607l47.4-47.4
		c2.929-2.928,7.678-2.928,10.606,0c2.929,2.93,2.929,7.678,0,10.607l-47.4,47.4C236.139,405.125,234.219,405.857,232.3,405.857z"/>
	<path style="fill:#6B7BAB;" d="M149.122,415.675c-4.142,0-7.5-3.357-7.5-7.5V341.14c0-4.142,3.358-7.5,7.5-7.5s7.5,3.358,7.5,7.5
		v67.035C156.622,412.317,153.264,415.675,149.122,415.675z"/>
	<path style="fill:#6B7BAB;" d="M172.822,405.857c-1.92,0-3.839-0.732-5.303-2.196l-47.4-47.4c-2.929-2.93-2.929-7.678,0-10.607
		c2.929-2.928,7.678-2.928,10.606,0l47.4,47.4c2.929,2.93,2.929,7.678,0,10.607C176.661,405.125,174.741,405.857,172.822,405.857z"
		/>
	<path style="fill:#6B7BAB;" d="M182.639,382.157h-67.035c-4.142,0-7.5-3.357-7.5-7.5s3.358-7.5,7.5-7.5h67.035
		c4.142,0,7.5,3.357,7.5,7.5S186.781,382.157,182.639,382.157z"/>
	<path style="fill:#6B7BAB;" d="M125.421,405.857c-1.919,0-3.839-0.732-5.303-2.196c-2.929-2.93-2.929-7.678,0-10.607l47.4-47.4
		c2.929-2.928,7.678-2.928,10.606,0c2.929,2.93,2.929,7.678,0,10.607l-47.4,47.4C129.26,405.125,127.341,405.857,125.421,405.857z"
		/>
	<path style="fill:#6B7BAB;" d="M362.878,415.675c-4.142,0-7.5-3.357-7.5-7.5V341.14c0-4.142,3.358-7.5,7.5-7.5s7.5,3.358,7.5,7.5
		v67.035C370.378,412.317,367.021,415.675,362.878,415.675z"/>
	<path style="fill:#6B7BAB;" d="M339.178,405.857c-1.919,0-3.839-0.732-5.303-2.196c-2.929-2.93-2.929-7.678,0-10.607l47.4-47.4
		c2.929-2.928,7.678-2.928,10.606,0c2.929,2.93,2.929,7.678,0,10.607l-47.4,47.4C343.017,405.125,341.098,405.857,339.178,405.857z"
		/>
	<path style="fill:#6B7BAB;" d="M396.396,382.157h-67.035c-4.142,0-7.5-3.357-7.5-7.5s3.358-7.5,7.5-7.5h67.035
		c4.142,0,7.5,3.357,7.5,7.5S400.538,382.157,396.396,382.157z"/>
	<path style="fill:#6B7BAB;" d="M386.579,405.857c-1.919,0-3.839-0.732-5.303-2.196l-47.4-47.4c-2.929-2.93-2.929-7.678,0-10.607
		c2.929-2.928,7.678-2.928,10.606,0l47.4,47.4c2.929,2.93,2.929,7.678,0,10.607C390.418,405.125,388.497,405.857,386.579,405.857z"
		/>
</g>
<path style="opacity:0.2;fill:#254A74;enable-background:new    ;" d="M183.76,298.571H56.519v152.173h235.72
	C229.057,407.113,196.959,350.696,183.76,298.571z"/>
<g>
</g>
<g>
</g>
<g>
</g>
<g>
</g>
<g>
</g>
<g>
</g>
<g>
</g>
<g>
</g>
<g>
</g>
<g>
</g>
<g>
</g>
<g>
</g>
<g>
</g>
<g>
</g>
<g>
</g>
</svg>
