<?xml version="1.0" encoding="iso-8859-1"?>
<!-- Generator: Adobe Illustrator 19.0.0, SVG Export Plug-In . SVG Version: 6.00 Build 0)  -->
<svg version="1.1" id="Capa_1" xmlns="http://www.w3.org/2000/svg" xmlns:xlink="http://www.w3.org/1999/xlink" x="0px" y="0px"
	 viewBox="0 0 512 512" style="enable-background:new 0 0 512 512;" xml:space="preserve">
<path style="fill:#72CDA2;" d="M175.617,322.342L175.617,322.342c-15.804-43.42-23.888-89.271-23.888-135.477l0,0
	c0-17.281,14.009-31.29,31.29-31.29l0,0c13.396,0,24.256-10.86,24.256-24.256V24.256C207.275,10.86,196.415,0,183.019,0h-59.723
	C83.754,0,51.7,32.055,51.7,71.596l0,0c0,134.133,23.469,267.231,69.345,393.275l0,0c13.524,37.157,54.609,56.315,91.766,42.791
	l56.121-20.427c12.588-4.582,19.079-18.501,14.497-31.089L246.811,355.54c-4.582-12.588-18.501-19.079-31.089-14.497l0,0
	C199.483,346.954,181.528,338.581,175.617,322.342z"/>
<g>
	<path style="fill:#5B9675;" d="M183.019,0H160c-1.846,29.927-4.7,97.951,7.475,159.713c4.581-2.628,9.884-4.138,15.544-4.138l0,0
		c13.396,0,24.256-10.86,24.256-24.256V24.256C207.275,10.86,196.415,0,183.019,0z"/>
	<path style="fill:#5B9675;" d="M268.932,487.236l-21.631,7.873c-11.97-27.491-37.918-90.437-47.601-152.638
		c5.203,0.903,10.703,0.508,16.022-1.428l0,0c12.588-4.582,26.507,1.909,31.089,14.497l36.618,100.607
		C288.011,468.736,281.52,482.654,268.932,487.236z"/>
</g>
<path style="fill:#BBE0F1;" d="M323.611,50.34c0.716,4.058,2.979,7.843,6.621,10.393c50.215,35.161,83.715,87.675,94.329,147.869
	s-2.905,120.998-38.066,171.214c-5.1,7.284-3.33,17.324,3.954,22.424c7.285,5.101,17.324,3.331,22.425-3.954
	c40.095-57.26,55.508-126.611,43.4-195.276c-12.107-68.664-50.31-128.561-107.571-168.655c-7.285-5.101-17.324-3.331-22.425,3.954
	C323.728,41.951,322.896,46.282,323.611,50.34z"/>
<path style="fill:#7F9AE6;" d="M286.687,103.072c0.716,4.058,2.979,7.843,6.621,10.393c36.107,25.283,60.195,63.041,67.827,106.32
	s-2.09,86.999-27.372,123.106c-5.1,7.284-3.33,17.324,3.954,22.424c7.285,5.101,17.324,3.331,22.425-3.954
	c30.216-43.153,41.832-95.418,32.707-147.169c-9.125-51.75-37.916-96.891-81.069-127.107c-7.285-5.101-17.324-3.331-22.425,3.954
	C286.804,94.683,285.971,99.014,286.687,103.072z"/>
<path style="fill:#6B7BAB;" d="M249.763,155.806c0.716,4.059,2.979,7.843,6.622,10.393c21.999,15.404,36.674,38.407,41.323,64.771
	s-1.274,52.999-16.678,74.998c-5.101,7.284-3.331,17.324,3.953,22.424s17.324,3.331,22.425-3.954
	c20.338-29.044,28.156-64.225,22.013-99.06c-6.142-34.835-25.521-65.221-54.566-85.557c-7.284-5.101-17.324-3.33-22.425,3.954
	C249.88,147.417,249.047,151.748,249.763,155.806z"/>
<g>
	<path style="opacity:0.2;fill:#254A74;enable-background:new    ;" d="M328.406,220.255c0.367,1.697,0.712,3.403,1.015,5.122
		c6.142,34.835-1.675,70.016-22.013,99.06c-5.1,7.285-15.141,9.054-22.425,3.954c-7.284-5.1-9.055-15.14-3.953-22.424
		c15.404-21.999,21.327-48.634,16.678-74.998c-0.826-4.686-1.975-9.262-3.42-13.712C305.837,230.857,323.553,228.42,328.406,220.255
		z"/>
	<path style="opacity:0.2;fill:#254A74;enable-background:new    ;" d="M392.848,214.194c9.125,51.75-2.491,104.016-32.707,147.169
		c-5.101,7.285-15.14,9.055-22.425,3.954c-7.284-5.1-9.054-15.14-3.954-22.424c25.283-36.107,35.004-79.827,27.372-123.106
		c-1.326-7.522-3.161-14.873-5.459-22.025c12.889,15.47,29.609,15.007,35.439,7.774C391.751,208.4,392.335,211.285,392.848,214.194z
		"/>
	<path style="opacity:0.2;fill:#254A74;enable-background:new    ;" d="M456.275,203.01c12.107,68.664-3.306,138.016-43.4,195.276
		c-5.101,7.285-15.14,9.055-22.425,3.954c-7.284-5.1-9.054-15.14-3.954-22.424c35.161-50.215,48.68-111.02,38.066-171.214
		c-1.364-7.738-3.113-15.345-5.221-22.809c10.897,13.254,27.074,15.456,35.665,10.536
		C455.455,198.547,455.88,200.773,456.275,203.01z"/>
</g>
<path style="opacity:0.2;fill:#2C6245;enable-background:new    ;" d="M212.811,507.663l56.121-20.426
	c12.588-4.582,19.079-18.501,14.497-31.089l-6.56-18.024c-149.572-15-230.976-288.611-189.25-428.59
	C66.158,21.897,51.7,45.05,51.7,71.596l0,0c0,134.133,23.469,267.231,69.345,393.275l0,0
	C134.569,502.029,175.654,521.187,212.811,507.663z"/>
<g>
</g>
<g>
</g>
<g>
</g>
<g>
</g>
<g>
</g>
<g>
</g>
<g>
</g>
<g>
</g>
<g>
</g>
<g>
</g>
<g>
</g>
<g>
</g>
<g>
</g>
<g>
</g>
<g>
</g>
</svg>
