<?xml version="1.0" encoding="iso-8859-1"?>
<!-- Generator: Adobe Illustrator 19.0.0, SVG Export Plug-In . SVG Version: 6.00 Build 0)  -->
<svg version="1.1" id="Capa_1" xmlns="http://www.w3.org/2000/svg" xmlns:xlink="http://www.w3.org/1999/xlink" x="0px" y="0px"
	 viewBox="0 0 512 512" style="enable-background:new 0 0 512 512;" xml:space="preserve">
<polygon style="fill:#6B7BAB;" points="129.267,344.217 263.623,287.158 248.573,235.438 133.263,275.924 "/>
<path style="fill:#7F9AE6;" d="M482.228,81.518l-459.42,84.016c-28.469,5.206-31.034,45.023-3.468,53.839l117.915,37.709
	c9.279,2.967,16.524,10.279,19.407,19.585l38.99,125.857c9.506,30.685,49.329,38.469,69.69,13.623l240.872-293.931
	C521.061,104.097,505.27,77.304,482.228,81.518z"/>
<path style="opacity:0.2;fill:#254A74;enable-background:new    ;" d="M198.122,133.473l-175.314,32.06
	c-28.469,5.206-31.034,45.023-3.468,53.839l117.915,37.709c9.279,2.967,16.524,10.279,19.407,19.584l38.99,125.857
	c9.506,30.685,49.329,38.469,69.69,13.623l127.35-155.403C238.073,273.205,176.207,187.025,198.122,133.473z"/>
<path style="fill:#BBE0F1;" d="M495.397,95.479l-377.942,155.27l-4.471,82.674c-0.627,11.587,14.537,16.466,20.785,6.688
	l28.656-44.844l0.008,0.027L506.169,90.26l0,0L495.397,95.479z"/>
<path style="opacity:0.2;fill:#254A74;enable-background:new    ;" d="M506.169,90.26l-10.773,5.219l-84.738,34.813
	c-117.824,77.202-214.214,116.87-294.808,150.126l-2.867,53.005c-0.627,11.587,14.537,16.466,20.785,6.688l28.656-44.844
	l0.008,0.027L506.169,90.26L506.169,90.26z"/>
<g>
</g>
<g>
</g>
<g>
</g>
<g>
</g>
<g>
</g>
<g>
</g>
<g>
</g>
<g>
</g>
<g>
</g>
<g>
</g>
<g>
</g>
<g>
</g>
<g>
</g>
<g>
</g>
<g>
</g>
</svg>
