<?xml version="1.0" encoding="iso-8859-1"?>
<!-- Generator: Adobe Illustrator 19.0.0, SVG Export Plug-In . SVG Version: 6.00 Build 0)  -->
<svg version="1.1" id="Capa_1" xmlns="http://www.w3.org/2000/svg" xmlns:xlink="http://www.w3.org/1999/xlink" x="0px" y="0px"
	 viewBox="0 0 512 512" style="enable-background:new 0 0 512 512;" xml:space="preserve">
<path style="fill:#7F9AE6;" d="M433.98,397.878L82.69,459.82c-15.603,2.751-30.481-7.667-33.233-23.27L0.442,158.565
	c-2.751-15.603,7.667-30.481,23.27-33.232l414.879-73.154c15.603-2.751,30.481,7.667,33.233,23.27l37.804,214.396
	C518.57,340.566,484.702,388.934,433.98,397.878z"/>
<path style="fill:#FFFFFF;" d="M87.466,400.558L48.468,179.387c-1.328-7.533,3.702-14.717,11.235-16.046l358.066-63.137
	c7.533-1.328,14.717,3.702,16.046,11.235l38.999,221.171c1.328,7.533-3.702,14.717-11.235,16.046l-358.066,63.137
	C95.979,413.122,88.795,408.092,87.466,400.558z"/>
<path style="fill:#BBE0F1;" d="M87.466,400.558L48.468,179.387c-1.328-7.533,3.702-14.717,11.235-16.046l358.066-63.137
	c7.533-1.328,14.717,3.702,16.046,11.235l38.999,221.171c1.328,7.533-3.702,14.717-11.235,16.046l-358.066,63.137
	C95.979,413.122,88.795,408.092,87.466,400.558z"/>
<path style="fill:#F8E47C;" d="M417.769,100.205l-203.84,35.942l30.057,170.465l202.858-121.28l-13.029-73.892
	C432.486,103.906,425.302,98.876,417.769,100.205z"/>
<path style="fill:#72CDA2;" d="M87.466,400.558c1.328,7.534,8.512,12.564,16.046,11.235l134.904-23.787l-23.628-134.003
	L66.243,280.196L87.466,400.558z"/>
<path style="opacity:0.15;fill:#2C6245;enable-background:new    ;" d="M103.512,411.793l117.473-20.714
	c-51.254-15.494-80.29-65.804-95.87-121.265l-58.872,10.381l21.223,120.362C88.795,408.092,95.979,413.122,103.512,411.793z"/>
<polygon style="fill:#6B7BAB;" points="443.417,165.898 258.153,272.293 233.537,132.69 174.449,143.108 187.416,216.647 
	59.029,239.285 69.448,298.373 197.834,275.735 218.248,391.505 277.336,381.086 269.231,335.121 454.495,228.725 "/>
<path style="fill:#F0F2FF;" d="M509.103,286.875l-23.796,7.587c-14.919,4.757-30.41,7.488-46.057,8.121l0,0
	c-12.558,0.508-21.187,12.831-17.369,24.805l0,0c4.757,14.919,7.488,30.41,8.121,46.057l1.009,24.956l8.828-1.557
	c47.486-8.373,79.193-53.655,70.82-101.141L509.103,286.875z"/>
<path style="fill:#DBE1FF;" d="M429.265,305.893c-6.618,4.548-10.059,13.104-7.384,21.495l0,0
	c4.757,14.919,7.488,30.41,8.121,46.057l1.009,24.956l8.828-1.557c29.622-5.223,53.101-24.811,64.544-50.335
	C466.75,365.417,428.565,337.413,429.265,305.893z"/>
<path style="opacity:0.2;fill:#254A74;enable-background:new    ;" d="M218.001,390.104l0.247,1.401l2.656-0.468
	C219.926,390.74,218.962,390.425,218.001,390.104z M421.882,327.389L421.882,327.389c-0.204-0.64-0.365-1.281-0.5-1.922
	c-89.33,65.088-153.945,79.614-200.355,65.605l-117.515,20.721c-7.533,1.328-14.717-3.702-16.046-11.235L69.448,298.373
	l61.207-10.792c-21.994-63.871-23.839-139.431-20.028-177.574l-86.916,15.325c-15.603,2.751-26.021,17.63-23.27,33.232
	l49.016,277.985c2.751,15.603,17.63,26.021,33.233,23.27l351.289-61.942c0.009-0.002,0.019-0.004,0.028-0.005l-2.996,0.528
	l-1.009-24.956C429.37,357.799,426.639,342.308,421.882,327.389z"/>
<g>
</g>
<g>
</g>
<g>
</g>
<g>
</g>
<g>
</g>
<g>
</g>
<g>
</g>
<g>
</g>
<g>
</g>
<g>
</g>
<g>
</g>
<g>
</g>
<g>
</g>
<g>
</g>
<g>
</g>
</svg>
