<?xml version="1.0" encoding="iso-8859-1"?>
<!-- Generator: Adobe Illustrator 19.0.0, SVG Export Plug-In . SVG Version: 6.00 Build 0)  -->
<svg version="1.1" id="Capa_1" xmlns="http://www.w3.org/2000/svg" xmlns:xlink="http://www.w3.org/1999/xlink" x="0px" y="0px"
	 viewBox="0 0 512.001 512.001" style="enable-background:new 0 0 512.001 512.001;" xml:space="preserve">
<path style="fill:#F0F2FF;" d="M400.107,512H153.149c-48.858,0-88.465-39.607-88.465-88.466V176.576
	c0-26.073,21.137-47.21,47.21-47.21h288.214c26.073,0,47.21,21.137,47.21,47.21V464.79C447.317,490.863,426.18,512,400.107,512z"/>
<path style="fill:#DBE1FF;" d="M400.107,512c25.741,0,46.655-20.605,47.185-46.219c-176.458-0.919-284.475-124.206-231.46-336.415
	H111.893c-26.073,0-47.21,21.137-47.21,47.21v246.959c0,48.858,39.607,88.466,88.465,88.466L400.107,512L400.107,512z"/>
<path style="fill:#7F9AE6;" d="M237.264,366.507l21.599,68.266c7.017,22.178,36.08,27.303,50.26,8.862l43.645-56.761
	c7.172-9.327,11.984-20.249,14.027-31.835l46.047-261.144L281.019,70.65l-46.047,261.144
	C232.929,343.381,233.715,355.29,237.264,366.507z"/>
<path style="fill:#BBE0F1;" d="M233.91,343.003c-0.16,7.942,0.943,15.882,3.355,23.504l21.599,68.266
	c7.017,22.178,36.081,27.303,50.26,8.862l43.645-56.761c4.873-6.337,8.626-13.421,11.191-20.939L233.91,343.003z"/>
<path style="opacity:0.2;fill:#254A74;enable-background:new    ;" d="M352.809,386.818
	c-61.796-44.949-50.256-204.276-35.003-309.681l-36.787-6.487l-46.047,261.144c-2.043,11.587-1.257,23.495,2.293,34.713
	l21.599,68.266c7.017,22.178,36.08,27.303,50.26,8.862l43.645-56.761C352.783,386.856,352.795,386.836,352.809,386.818z"/>
<path style="fill:#495059;" d="M249.811,406.163l9.052,28.61c7.017,22.178,36.081,27.303,50.26,8.862l18.292-23.789L249.811,406.163
	z"/>
<rect x="275.153" y="81.833" transform="matrix(-0.9848 -0.1736 0.1736 -0.9848 659.9088 277.3005)" style="fill:#F8E47C;" width="133.858" height="55.915"/>
<path style="fill:#E38892;" d="M412.842,93.894L281.019,70.65l8.743-49.582c2.445-13.864,15.665-23.121,29.529-20.676l81.618,14.392
	c13.864,2.445,23.121,15.665,20.677,29.529L412.842,93.894z"/>
<path style="fill:#909DE0;" d="M153.149,512c-48.858,0-88.466-39.607-88.465-88.466v-28.842c0,13.57,8.415,37.348,32.75,37.348
	c26.073,0,47.21,21.137,47.21,47.21c0,24.335,23.778,32.75,37.348,32.75L153.149,512L153.149,512z"/>
<path style="opacity:0.15;fill:#C97B00;enable-background:new    ;" d="M317.806,77.137l-36.787-6.487l-9.71,55.066l39.59,6.981
	C312.896,113.218,315.3,94.451,317.806,77.137z"/>
<path style="opacity:0.15;fill:#812B2F;enable-background:new    ;" d="M330.464,2.362l-11.173-1.97
	c-13.864-2.445-27.085,6.813-29.529,20.676l-8.743,49.582l36.787,6.487C322.297,46.102,327.107,19.748,330.464,2.362z"/>
<g>
</g>
<g>
</g>
<g>
</g>
<g>
</g>
<g>
</g>
<g>
</g>
<g>
</g>
<g>
</g>
<g>
</g>
<g>
</g>
<g>
</g>
<g>
</g>
<g>
</g>
<g>
</g>
<g>
</g>
</svg>
