<?xml version="1.0" encoding="iso-8859-1"?>
<!-- Generator: Adobe Illustrator 19.0.0, SVG Export Plug-In . SVG Version: 6.00 Build 0)  -->
<svg version="1.1" id="Capa_1" xmlns="http://www.w3.org/2000/svg" xmlns:xlink="http://www.w3.org/1999/xlink" x="0px" y="0px"
	 viewBox="0 0 512 512" style="enable-background:new 0 0 512 512;" xml:space="preserve">
<path style="fill:#72CDA2;" d="M489.669,205.602h-38.282c-5.705,0-10.976-3.043-13.829-7.984l-40.218-69.66
	c-2.852-4.94-2.852-11.027,0-15.968l19.141-33.154c6.167-10.681,2.507-24.339-8.174-30.505l-48.614-28.067
	c-10.681-6.167-24.339-2.507-30.505,8.174l-19.141,33.153c-2.852,4.94-8.124,7.984-13.828,7.984h-80.436
	c-5.705,0-10.976-3.043-13.828-7.984l-19.141-33.153c-6.167-10.681-19.824-14.34-30.505-8.174l-48.614,28.067
	c-10.681,6.167-14.341,19.824-8.174,30.505l19.141,33.154c2.852,4.94,2.852,11.027,0,15.968l-40.218,69.66
	c-2.852,4.94-8.124,7.984-13.828,7.984H22.331C9.998,205.602,0,215.601,0,227.934v56.134c0,12.333,9.998,22.331,22.331,22.331
	h38.282c5.705,0,10.976,3.044,13.828,7.984l40.218,69.66c2.852,4.94,2.852,11.027,0,15.968l-19.141,33.154
	c-6.167,10.681-2.507,24.339,8.174,30.505l48.614,28.067c10.681,6.167,24.339,2.507,30.505-8.174l19.141-33.153
	c2.852-4.941,8.124-7.984,13.828-7.984h80.436c5.705,0,10.976,3.043,13.828,7.984l19.141,33.153
	c6.167,10.681,19.824,14.34,30.505,8.174l48.614-28.067c10.681-6.167,14.34-19.824,8.174-30.505L397.34,400.01
	c-2.852-4.94-2.852-11.027,0-15.968l40.218-69.66c2.852-4.94,8.124-7.984,13.829-7.984h38.282c12.333,0,22.331-9.998,22.331-22.331
	v-56.134C512,215.601,502.002,205.602,489.669,205.602z M256,310.736c-30.23,0-54.736-24.506-54.736-54.736
	S225.77,201.265,256,201.265s54.736,24.506,54.736,54.736S286.23,310.736,256,310.736z"/>
<path style="fill:#5B9675;" d="M256,145.191c-61.198,0-110.809,49.611-110.809,110.809S194.802,366.809,256,366.809
	S366.809,317.198,366.809,256S317.198,145.191,256,145.191z M256,310.736c-30.23,0-54.736-24.506-54.736-54.736
	S225.77,201.265,256,201.265s54.736,24.506,54.736,54.736S286.23,310.736,256,310.736z"/>
<g>
	<path style="opacity:0.2;fill:#2C6245;enable-background:new    ;" d="M182.812,483.563l19.141-33.153
		c2.852-4.94,8.124-7.984,13.828-7.984h80.436c5.705,0,10.976,3.043,13.828,7.984l19.141,33.153
		c6.167,10.681,19.824,14.34,30.505,8.174l48.614-28.067c6.61-3.816,10.527-10.503,11.094-17.576
		c-87.337-30.103-142.36-79.207-172.64-136.149c-25.827-4.393-45.496-26.865-45.496-53.944c0-15.715,6.632-29.872,17.239-39.855
		c-5.226-49.462,2.75-100.202,20.093-146.57h-22.814c-5.705,0-10.976-3.043-13.828-7.984l-19.141-33.153
		c-6.167-10.681-19.824-14.34-30.505-8.174l-48.614,28.067c-10.681,6.167-14.341,19.824-8.174,30.505l19.141,33.154
		c2.852,4.94,2.852,11.027,0,15.968l-40.218,69.66c-2.852,4.94-8.124,7.984-13.829,7.984H22.331C9.998,205.602,0,215.601,0,227.934
		v56.134c0,12.333,9.998,22.331,22.331,22.331h38.282c5.705,0,10.976,3.044,13.829,7.984l40.218,69.66
		c2.852,4.94,2.852,11.027,0,15.968l-19.141,33.154c-6.167,10.681-2.507,24.339,8.174,30.505l48.614,28.067
		C162.988,497.904,176.646,494.243,182.812,483.563z"/>
	<g style="opacity:0.15;">
		<path style="fill:#2C6245;" d="M337.798,121.81c-1.272,0-2.562-0.324-3.743-1.006c-3.587-2.071-4.816-6.658-2.745-10.245
			l17.279-29.928c2.07-3.588,6.657-4.816,10.245-2.745c3.587,2.071,4.816,6.658,2.745,10.245L344.3,118.06
			C342.911,120.466,340.39,121.81,337.798,121.81z"/>
		<path style="fill:#2C6245;" d="M174.202,121.81c-2.592,0-5.113-1.345-6.502-3.751l-17.279-29.928
			c-2.071-3.587-0.842-8.174,2.745-10.245c3.586-2.07,8.174-0.843,10.245,2.745l17.279,29.928c2.071,3.587,0.842,8.174-2.745,10.245
			C176.765,121.486,175.475,121.81,174.202,121.81z"/>
		<path style="fill:#2C6245;" d="M355.091,435.119c-2.592,0-5.113-1.345-6.502-3.751L331.31,401.44
			c-2.071-3.587-0.842-8.174,2.745-10.245c3.585-2.07,8.174-0.843,10.245,2.745l17.279,29.928c2.071,3.587,0.842,8.174-2.745,10.245
			C357.653,434.796,356.363,435.119,355.091,435.119z"/>
		<path style="fill:#2C6245;" d="M156.909,435.119c-1.273,0-2.562-0.324-3.743-1.006c-3.587-2.071-4.816-6.658-2.745-10.245
			L167.7,393.94c2.071-3.588,6.658-4.815,10.245-2.745c3.587,2.071,4.816,6.658,2.745,10.245l-17.279,29.928
			C162.022,433.774,159.501,435.119,156.909,435.119z"/>
		<path style="fill:#2C6245;" d="M92.391,263.5H57.832c-4.142,0-7.5-3.357-7.5-7.5c0-4.143,3.358-7.5,7.5-7.5H92.39
			c4.142,0,7.5,3.357,7.5,7.5C99.89,260.143,96.533,263.5,92.391,263.5z"/>
		<path style="fill:#2C6245;" d="M454.167,263.5h-34.558c-4.142,0-7.5-3.357-7.5-7.5c0-4.143,3.358-7.5,7.5-7.5h34.558
			c4.142,0,7.5,3.357,7.5,7.5C461.667,260.143,458.31,263.5,454.167,263.5z"/>
	</g>
</g>
<g>
</g>
<g>
</g>
<g>
</g>
<g>
</g>
<g>
</g>
<g>
</g>
<g>
</g>
<g>
</g>
<g>
</g>
<g>
</g>
<g>
</g>
<g>
</g>
<g>
</g>
<g>
</g>
<g>
</g>
</svg>
