<?xml version="1.0" encoding="iso-8859-1"?>
<!-- Generator: Adobe Illustrator 19.0.0, SVG Export Plug-In . SVG Version: 6.00 Build 0)  -->
<svg version="1.1" id="Capa_1" xmlns="http://www.w3.org/2000/svg" xmlns:xlink="http://www.w3.org/1999/xlink" x="0px" y="0px"
	 viewBox="0 0 511.99 511.99" style="enable-background:new 0 0 511.99 511.99;" xml:space="preserve">
<circle style="fill:#BBE0F1;" cx="188.975" cy="463.49" r="48.49"/>
<path style="opacity:0.2;fill:#254A74;enable-background:new    ;" d="M236.725,455.074c-4.734-26.846-30.71-44.612-57.595-39.059
	c-24.204,4.999-40.995,27.914-38.388,52.491c2.996,28.244,29.159,47.587,56.651,42.739c10.119-1.784,18.939-6.594,25.716-13.325
	c-17.714,1.265-28.566-6.986-33.53-17.093c-2.747-5.594,0.698-12.262,6.836-13.344l40.937-7.218
	C237.236,458.543,237.032,456.811,236.725,455.074z"/>
<circle style="fill:#6B7BAB;" cx="194.445" cy="48.49" r="48.49"/>
<path style="opacity:0.2;fill:#254A74;enable-background:new    ;" d="M238.363,69.01c-49.945,10.67-77.059-38.184-61.358-65.768
	c-21.227,8.155-34.41,30.431-30.314,53.664c4.65,26.372,29.799,43.982,56.171,39.332C219.029,93.387,231.891,82.827,238.363,69.01z"
	/>
<path style="fill:#F8E47C;" d="M235.68,65.118l-74.299,13.101c-55.177,9.729-92.021,62.347-82.291,117.524l11.691,66.302
	c5.902,33.473,1.603,67.946-12.338,98.944L64.63,391.701l369.183-65.097l-23.484-24.135c-23.703-24.36-39.533-55.285-45.435-88.758
	l-11.691-66.302C343.474,92.232,290.857,55.389,235.68,65.118z"/>
<path style="fill:#6B7BAB;" d="M454.831,402.115L70.706,469.847c-13.973,2.464-27.298-6.866-29.761-20.839l-4.625-26.227
	c-2.464-13.973,6.866-27.298,20.839-29.761l384.125-67.732c13.973-2.464,27.298,6.866,29.761,20.839l4.625,26.227
	C478.134,386.327,468.804,399.651,454.831,402.115z"/>
<path style="opacity:0.2;fill:#254A74;enable-background:new    ;" d="M265.061,356.36L57.159,393.019
	c-13.973,2.464-23.303,15.789-20.839,29.762l4.625,26.228c2.464,13.973,15.788,23.303,29.761,20.839l239.406-42.214
	C255.499,419.963,246.706,372.358,265.061,356.36z"/>
<g>
	
		<ellipse transform="matrix(-0.1736 -0.9848 0.9848 -0.1736 -51.4789 388.5487)" style="fill:#E38892;" cx="137.284" cy="215.873" rx="25.08" ry="31.49"/>
	
		<ellipse transform="matrix(0.1736 0.9848 -0.9848 0.1736 435.7753 -146.8794)" style="fill:#E38892;" cx="305.406" cy="186.217" rx="25.08" ry="31.489"/>
</g>
<g>
	<path style="fill:#495059;" d="M151.018,195.546c-3.571,0-6.735-2.56-7.377-6.198l-1.931-10.951
		c-0.719-4.079,2.004-7.97,6.084-8.688c4.083-0.72,7.969,2.004,8.689,6.083l1.931,10.951c0.719,4.079-2.004,7.97-6.084,8.688
		C151.889,195.509,151.45,195.546,151.018,195.546z"/>
	<path style="fill:#495059;" d="M282.963,172.28c-3.572,0-6.736-2.56-7.378-6.199l-1.931-10.951
		c-0.719-4.079,2.005-7.969,6.084-8.688c4.083-0.724,7.969,2.004,8.689,6.084l1.931,10.951c0.719,4.079-2.005,7.969-6.084,8.688
		C283.834,172.243,283.395,172.28,282.963,172.28z"/>
	<path style="fill:#495059;" d="M214.421,192.677c-7.017,0-13.889-2.394-19.441-6.877c-3.223-2.603-3.726-7.324-1.123-10.547
		c2.603-3.223,7.324-3.724,10.547-1.123c3.59,2.9,8.249,4.102,12.776,3.306c4.53-0.799,8.494-3.523,10.875-7.476
		c2.137-3.549,6.747-4.689,10.294-2.553c3.548,2.138,4.691,6.747,2.553,10.295c-4.62,7.667-12.317,12.954-21.118,14.505
		C218,192.522,216.205,192.677,214.421,192.677z"/>
</g>
<g>
	<path style="opacity:0.15;fill:#C97B00;enable-background:new    ;" d="M93.308,288.041c0.298,14.697-1.316,29.363-4.8,43.63
		l302.335-53.31c-8.153-12.215-14.686-25.445-19.432-39.357L93.308,288.041z"/>
	<path style="opacity:0.15;fill:#C97B00;enable-background:new    ;" d="M64.63,391.701l281.051-49.557
		C245.252,323.907,78.962,256.146,146.369,82.053c-46.664,15.784-76.096,63.686-67.279,113.69l11.691,66.302
		c5.902,33.472,1.603,67.946-12.338,98.944L64.63,391.701z"/>
</g>
<g>
</g>
<g>
</g>
<g>
</g>
<g>
</g>
<g>
</g>
<g>
</g>
<g>
</g>
<g>
</g>
<g>
</g>
<g>
</g>
<g>
</g>
<g>
</g>
<g>
</g>
<g>
</g>
<g>
</g>
</svg>
