<?xml version="1.0" encoding="iso-8859-1"?>
<!-- Generator: Adobe Illustrator 19.0.0, SVG Export Plug-In . SVG Version: 6.00 Build 0)  -->
<svg version="1.1" id="Capa_1" xmlns="http://www.w3.org/2000/svg" xmlns:xlink="http://www.w3.org/1999/xlink" x="0px" y="0px"
	 viewBox="0 0 512 512" style="enable-background:new 0 0 512 512;" xml:space="preserve">
<g>
	<rect x="139.7" y="124.19" style="fill:#6B7BAB;" width="52.872" height="279.57"/>
	<rect x="424.25" y="74.25" style="fill:#6B7BAB;" width="52.872" height="279.57"/>
</g>
<path style="fill:#BBE0F1;" d="M140.967,505.25l-32.803,5.784c-38.235,6.742-73.288-22.671-73.288-61.496l0,0
	c0-30.304,21.757-56.233,51.601-61.496l106.09-18.707v74.418C192.568,474.059,170.811,499.988,140.967,505.25z"/>
<path style="opacity:0.15;fill:#254A74;enable-background:new    ;" d="M104.32,384.897l-17.842,3.146
	c-29.843,5.262-51.601,31.192-51.601,61.496l0,0c0,38.824,35.053,68.237,73.288,61.496l32.803-5.784
	c16.757-2.955,30.964-12.427,40.202-25.53C107.903,501.864,64.607,425.323,104.32,384.897z"/>
<path style="fill:#D66274;" d="M477.123,99.122L139.696,158.62V92.056c0-24.398,17.517-45.274,41.545-49.511L418.119,0.778
	c30.783-5.428,59.005,18.253,59.005,49.511v48.833H477.123z"/>
<path style="opacity:0.15;fill:#812B2F;enable-background:new    ;" d="M290.119,23.347L181.241,42.546
	c-24.027,4.237-41.545,25.113-41.545,49.511v66.563l215.689-38.032C295.486,111.521,266.119,51.443,290.119,23.347z"/>
<path style="fill:#BBE0F1;" d="M425.523,454.06l-32.803,5.784c-38.234,6.742-73.288-22.671-73.288-61.496l0,0
	c0-30.304,21.757-56.233,51.601-61.496l106.09-18.707v74.418C477.123,422.868,455.366,448.798,425.523,454.06z"/>
<path style="opacity:0.15;fill:#254A74;enable-background:new    ;" d="M388.875,333.707l-17.842,3.146
	c-29.843,5.262-51.601,31.192-51.601,61.496l0,0c0,38.824,35.053,68.237,73.288,61.496l32.803-5.784
	c16.758-2.955,30.964-12.427,40.202-25.53C392.458,450.674,349.163,374.133,388.875,333.707z"/>
<g>
</g>
<g>
</g>
<g>
</g>
<g>
</g>
<g>
</g>
<g>
</g>
<g>
</g>
<g>
</g>
<g>
</g>
<g>
</g>
<g>
</g>
<g>
</g>
<g>
</g>
<g>
</g>
<g>
</g>
</svg>
