<?xml version="1.0" encoding="iso-8859-1"?>
<!-- Generator: Adobe Illustrator 19.0.0, SVG Export Plug-In . SVG Version: 6.00 Build 0)  -->
<svg version="1.1" id="Capa_1" xmlns="http://www.w3.org/2000/svg" xmlns:xlink="http://www.w3.org/1999/xlink" x="0px" y="0px"
	 viewBox="0 0 511.999 511.999" style="enable-background:new 0 0 511.999 511.999;" xml:space="preserve">
<path style="fill:#7F9AE6;" d="M184.429,329.627H87.708c-39.425,0-73.724,26.994-82.99,65.316l-4.326,17.892
	c-2.094,8.659,4.467,16.995,13.376,16.995H258.37c8.909,0,15.469-8.336,13.376-16.995l-4.326-17.892
	C258.154,356.621,223.855,329.627,184.429,329.627z"/>
<polygon style="fill:#BBE0F1;" points="183.609,329.627 88.528,329.627 114.308,429.83 157.829,429.83 "/>
<path style="opacity:0.2;fill:#254A74;enable-background:new    ;" d="M114.395,376.152c-2.546-2.757-0.115-7.145,3.585-6.52
	c5.882,0.994,11.925,1.512,18.089,1.512c31.703,0,60.209-13.687,79.934-35.472c-9.826-3.914-20.497-6.045-31.573-6.045H87.708
	c-39.425,0-73.724,26.994-82.99,65.315l-4.326,17.892c-2.094,8.659,4.467,16.995,13.376,16.995h178.614
	C162.984,418.859,134.984,398.451,114.395,376.152z"/>
<circle style="fill:#F8E47C;" cx="136.07" cy="241.917" r="107.8"/>
<g>
	<ellipse style="fill:#E38892;" cx="72.58" cy="261.947" rx="23.428" ry="18.657"/>
	<ellipse style="fill:#E38892;" cx="199.56" cy="261.947" rx="23.428" ry="18.657"/>
</g>
<g>
	<path style="fill:#495059;" d="M76.491,247.414c-4.143,0-7.5-3.358-7.5-7.5v-10.056c0-4.142,3.357-7.5,7.5-7.5s7.5,3.358,7.5,7.5
		v10.056C83.991,244.056,80.634,247.414,76.491,247.414z"/>
	<path style="fill:#495059;" d="M136.069,264.582L136.069,264.582c-9.374,0-16.974-7.599-16.974-16.974v-12.34
		c0-2.559,2.075-4.633,4.633-4.633h24.681c2.559,0,4.633,2.075,4.633,4.633v12.34C153.042,256.983,145.443,264.582,136.069,264.582z
		"/>
	<path style="fill:#495059;" d="M195.646,247.414c-4.143,0-7.5-3.358-7.5-7.5v-10.056c0-4.142,3.357-7.5,7.5-7.5s7.5,3.358,7.5,7.5
		v10.056C203.146,244.056,199.788,247.414,195.646,247.414z"/>
</g>
<path style="opacity:0.15;fill:#C97B00;enable-background:new    ;" d="M211.58,318.841
	C32.696,349.717,30.229,195.399,94.942,142.24c-39.135,16.165-66.677,54.7-66.677,99.673c0,59.538,48.265,107.804,107.804,107.804
	C165.477,349.717,192.131,337.935,211.58,318.841z"/>
<path style="fill:#72CDA2;" d="M408.886,312.026H295.175c-46.351,0-86.675,31.736-97.568,76.789l-5.086,21.035
	c-2.461,10.18,5.252,19.981,15.725,19.981h287.567c10.474,0,18.187-9.8,15.725-19.981l-5.086-21.035
	C495.561,343.762,455.237,312.026,408.886,312.026z"/>
<polygon style="fill:#F0F2FF;" points="407.921,312.026 296.139,312.026 326.448,429.83 377.613,429.83 "/>
<path style="opacity:0.15;fill:#2C6245;enable-background:new    ;" d="M326.549,366.724c-2.993-3.241-0.136-8.4,4.214-7.665
	c6.915,1.169,14.02,1.777,21.267,1.777c37.272,0,70.785-16.091,93.975-41.703c-11.552-4.601-24.097-7.107-37.119-7.107H295.175
	c-46.351,0-86.675,31.736-97.568,76.789l-5.086,21.035c-2.461,10.18,5.252,19.981,15.725,19.981h209.989
	C383.673,416.932,350.755,392.94,326.549,366.724z"/>
<circle style="fill:#F8E47C;" cx="352.03" cy="208.907" r="126.74"/>
<g>
	<ellipse style="fill:#E38892;" cx="277.38" cy="232.457" rx="27.543" ry="21.934"/>
	<ellipse style="fill:#E38892;" cx="426.68" cy="232.457" rx="27.543" ry="21.934"/>
</g>
<g>
	<path style="fill:#495059;" d="M281.987,214.054c-4.143,0-7.5-3.358-7.5-7.5v-11.822c0-4.142,3.357-7.5,7.5-7.5s7.5,3.358,7.5,7.5
		v11.822C289.487,210.696,286.13,214.054,281.987,214.054z"/>
	<path style="fill:#495059;" d="M352.03,235.556L352.03,235.556c-11.021,0-19.955-8.934-19.955-19.955v-14.508
		c0-3.009,2.439-5.447,5.447-5.447h29.016c3.009,0,5.447,2.439,5.447,5.447v14.508C371.986,226.621,363.051,235.556,352.03,235.556z
		"/>
	<path style="fill:#495059;" d="M422.073,214.054c-4.142,0-7.5-3.358-7.5-7.5v-11.822c0-4.142,3.358-7.5,7.5-7.5
		c4.143,0,7.5,3.358,7.5,7.5v11.822C429.573,210.696,426.216,214.054,422.073,214.054z"/>
</g>
<path style="opacity:0.15;fill:#C97B00;enable-background:new    ;" d="M440.806,299.346
	C230.5,335.644,227.599,154.22,303.68,91.723c-46.009,19.005-78.389,64.309-78.389,117.182c0,69.997,56.743,126.74,126.74,126.74
	C386.605,335.644,417.94,321.793,440.806,299.346z"/>
<g>
</g>
<g>
</g>
<g>
</g>
<g>
</g>
<g>
</g>
<g>
</g>
<g>
</g>
<g>
</g>
<g>
</g>
<g>
</g>
<g>
</g>
<g>
</g>
<g>
</g>
<g>
</g>
<g>
</g>
</svg>
