<?xml version="1.0" encoding="iso-8859-1"?>
<!-- Generator: Adobe Illustrator 19.0.0, SVG Export Plug-In . SVG Version: 6.00 Build 0)  -->
<svg version="1.1" id="Capa_1" xmlns="http://www.w3.org/2000/svg" xmlns:xlink="http://www.w3.org/1999/xlink" x="0px" y="0px"
	 viewBox="0 0 512 512" style="enable-background:new 0 0 512 512;" xml:space="preserve">
<path style="fill:#F0F2FF;" d="M469.69,108.971l-36.712-27.889c-13.168-10.003-29.912-14.057-46.197-11.186l-364.26,64.229
	c-14.82,2.613-24.716,16.746-22.103,31.566l44.927,254.793c2.613,14.82,16.746,24.716,31.566,22.103l364.26-64.229
	c16.285-2.871,30.633-12.408,39.585-26.311l24.959-38.763c5.381-8.356,7.411-18.435,5.685-28.223l-26.716-151.513
	C482.96,123.76,477.605,114.983,469.69,108.971z M415.401,257.017c-17.751,3.13-34.679-8.723-37.809-26.474
	s8.723-34.679,26.474-37.809c17.751-3.13,34.679,8.723,37.809,26.474C445.005,236.96,433.152,253.887,415.401,257.017z"/>
<path style="fill:#DBE1FF;" d="M480.757,352.047l0.516-0.801c-337.645,39.827-355.049-147.217-326.281-240.479l-132.47,23.358
	c-14.82,2.613-24.716,16.746-22.103,31.566l44.927,254.793c2.613,14.82,16.746,24.716,31.566,22.103l364.26-64.229
	C457.457,375.487,471.805,365.95,480.757,352.047z"/>
<g>
	
		<ellipse transform="matrix(-0.1736 -0.9848 0.9848 -0.1736 -56.25 448.7516)" style="fill:#E38892;" cx="160.157" cy="247.977" rx="21.623" ry="27.15"/>
	
		<ellipse transform="matrix(0.1736 0.9848 -0.9848 0.1736 471.1902 -116.697)" style="fill:#E38892;" cx="305.129" cy="222.41" rx="21.623" ry="27.15"/>
</g>
<g>
	<path style="fill:#495059;" d="M172.005,231.481c-3.571,0-6.736-2.561-7.377-6.199l-1.665-9.443
		c-0.719-4.079,2.005-7.969,6.084-8.688c4.084-0.718,7.969,2.005,8.689,6.084l1.665,9.443c0.719,4.079-2.005,7.969-6.084,8.689
		C172.876,231.444,172.437,231.481,172.005,231.481z"/>
	<path style="fill:#495059;" d="M285.779,211.42c-3.571,0-6.735-2.561-7.377-6.199l-1.665-9.443
		c-0.72-4.079,2.004-7.969,6.083-8.688c4.075-0.719,7.969,2.005,8.689,6.084l1.665,9.443c0.72,4.079-2.004,7.969-6.083,8.688
		C286.65,211.382,286.212,211.42,285.779,211.42z"/>
	<path style="fill:#495059;" d="M226.678,229.007c-6.286,0-12.441-2.144-17.414-6.16c-3.223-2.603-3.725-7.325-1.122-10.547
		c2.603-3.223,7.324-3.724,10.547-1.122c2.863,2.312,6.575,3.274,10.188,2.636c3.612-0.637,6.772-2.81,8.671-5.962
		c2.137-3.548,6.745-4.69,10.294-2.554c3.548,2.138,4.691,6.747,2.554,10.295c-4.138,6.867-11.032,11.603-18.915,12.993
		C229.884,228.869,228.276,229.007,226.678,229.007z"/>
</g>
<path style="fill:#72CDA2;" d="M324.647,335.942l-143.994,25.39c-6.529,1.151-12.756-3.208-13.907-9.738l-5.589-31.697
	c-1.151-6.529,3.208-12.756,9.738-13.907l143.994-25.39c6.529-1.151,12.756,3.208,13.907,9.738l5.589,31.697
	C335.536,328.564,331.176,334.791,324.647,335.942z"/>
<path style="fill:#5B9675;" d="M122.048,434.628l-54.39-308.462l-45.136,7.959c-14.82,2.613-24.716,16.746-22.103,31.566
	l44.927,254.793c2.613,14.82,16.746,24.716,31.566,22.103L122.048,434.628z"/>
<path style="fill:#495059;" d="M409.648,265.023c-8.161,0-16.112-2.491-22.937-7.269c-8.782-6.149-14.644-15.351-16.505-25.909
	c-1.862-10.558,0.499-21.209,6.648-29.992c6.149-8.782,15.351-14.644,25.908-16.506c10.563-1.862,21.211,0.5,29.992,6.649
	c8.782,6.149,14.645,15.351,16.506,25.909c1.862,10.558-0.499,21.209-6.648,29.992c-6.149,8.782-15.352,14.644-25.909,16.506l0,0
	C414.349,264.818,411.989,265.023,409.648,265.023z M409.787,199.731c-1.467,0-2.944,0.129-4.419,0.389
	c-6.613,1.165-12.375,4.837-16.227,10.337c-3.852,5.501-5.33,12.171-4.164,18.783c1.166,6.613,4.837,12.376,10.338,16.227
	c5.501,3.852,12.17,5.331,18.782,4.164h0.001c6.612-1.166,12.375-4.837,16.227-10.337c3.851-5.5,5.33-12.171,4.164-18.784
	c-1.166-6.612-4.837-12.375-10.338-16.227C419.878,201.292,414.898,199.731,409.787,199.731z"/>
<g>
</g>
<g>
</g>
<g>
</g>
<g>
</g>
<g>
</g>
<g>
</g>
<g>
</g>
<g>
</g>
<g>
</g>
<g>
</g>
<g>
</g>
<g>
</g>
<g>
</g>
<g>
</g>
<g>
</g>
</svg>
