<?xml version="1.0" encoding="iso-8859-1"?>
<!-- Generator: Adobe Illustrator 19.0.0, SVG Export Plug-In . SVG Version: 6.00 Build 0)  -->
<svg version="1.1" id="Capa_1" xmlns="http://www.w3.org/2000/svg" xmlns:xlink="http://www.w3.org/1999/xlink" x="0px" y="0px"
	 viewBox="0 0 512 512" style="enable-background:new 0 0 512 512;" xml:space="preserve">
<path style="fill:#72CDA2;" d="M471.718,235.092l-94.554,94.554c-53.709,53.709-141.101,53.709-194.81,0s-53.709-141.101,0-194.81
	l94.554-94.554c53.709-53.709,141.101-53.709,194.81,0S525.427,181.383,471.718,235.092z M229.348,181.83
	c-27.797,27.797-27.797,73.026,0,100.823s73.026,27.797,100.823,0l94.554-94.554c27.797-27.797,27.797-73.026,0-100.823
	s-73.026-27.797-100.823,0L229.348,181.83z"/>
<path style="opacity:0.2;fill:#2C6245;enable-background:new    ;" d="M290.756,334.837c-65.929-2.442-90.422-30.062-100.188-62.275
	c-2.174-7.17-0.281-14.958,4.96-20.313c4.594-4.694,9.098-9.253,13.28-13.419c-1.876-20.385,4.967-41.428,20.54-57l8.294-8.294
	c-10.042-0.914-27.275-1.358-45.692,3.144c2.988-24.148,9.046-50.968,15.875-67.315l-25.471,25.471
	c-53.709,53.709-53.709,141.101,0,194.81s141.101,53.709,194.81,0l56.692-56.691C394.849,305.477,343.921,336.806,290.756,334.837z"
	/>
<path style="fill:#5B9675;" d="M246.853,365.969l-58.755,58.756c-27.797,27.797-73.025,27.796-100.822-0.001
	s-27.798-73.025-0.001-100.822l94.555-94.555c27.797-27.797,73.025-27.796,100.822,0.001c19.21,19.21,25.137,46.744,17.794,71.098
	c10.886-3.282,21.138-9.208,29.724-17.794l35.799-35.798c-5.779-23.652-17.885-46.061-36.323-64.499
	c-53.709-53.709-141.101-53.709-194.809-0.001l-94.555,94.555c-53.709,53.709-53.709,141.1,0.001,194.809
	c53.709,53.709,141.101,53.709,194.81,0.001l94.555-94.555c8.194-8.194,15.122-17.179,20.815-26.702
	C318.994,369.276,281.586,374.455,246.853,365.969z"/>
<path style="opacity:0.2;fill:#2C6245;enable-background:new    ;" d="M330.171,282.652l35.799-35.799
	c-2.8-11.462-7.1-22.626-12.873-33.194c-13.781,17.096-33.426,38.156-51.08,51.784l0,0c2.355,11.583,1.858,23.636-1.569,35.003
	C311.332,297.165,321.584,291.239,330.171,282.652z M246.854,365.969l-15.803,15.803c9.984,6.143,23.306,11.004,38.276,14.079
	c-32.609,42.741-86.342,92.671-149.6,81.652C15.377,459.328,13.218,340.879,60.15,257.04l-19.868,19.868
	c-53.709,53.709-53.709,141.1,0.001,194.809c53.709,53.709,141.101,53.709,194.81,0.001l94.555-94.555
	c8.194-8.194,15.122-17.179,20.816-26.702C318.994,369.276,281.586,374.455,246.854,365.969z"/>
<g>
</g>
<g>
</g>
<g>
</g>
<g>
</g>
<g>
</g>
<g>
</g>
<g>
</g>
<g>
</g>
<g>
</g>
<g>
</g>
<g>
</g>
<g>
</g>
<g>
</g>
<g>
</g>
<g>
</g>
</svg>
