<?xml version="1.0" encoding="iso-8859-1"?>
<!-- Generator: Adobe Illustrator 19.0.0, SVG Export Plug-In . SVG Version: 6.00 Build 0)  -->
<svg version="1.1" id="Capa_1" xmlns="http://www.w3.org/2000/svg" xmlns:xlink="http://www.w3.org/1999/xlink" x="0px" y="0px"
	 viewBox="0 0 512.001 512.001" style="enable-background:new 0 0 512.001 512.001;" xml:space="preserve">
<path style="fill:#7F9AE6;" d="M495.867,418.046H16.133C7.223,418.046,0,410.823,0,401.913v-22.311
	c0-8.91,7.223-16.133,16.133-16.133h479.735c8.91,0,16.133,7.223,16.133,16.133v22.311C512,410.823,504.777,418.046,495.867,418.046
	z"/>
<path style="fill:#6B7BAB;" d="M432.331,93.954H79.669c-23.555,0-42.65,19.095-42.65,42.65V363.47h437.963V136.604
	C474.981,113.049,455.886,93.954,432.331,93.954z"/>
<circle style="fill:#F0F2FF;" cx="256" cy="115.18" r="7.455"/>
<path style="opacity:0.2;fill:#254A74;enable-background:new    ;" d="M201.54,93.954H79.669c-23.555,0-42.65,19.095-42.65,42.65
	V363.47H340.37C222.115,303.133,172.904,164.23,201.54,93.954z"/>
<path style="fill:#F0F2FF;" d="M79.258,347.062v-194.46c0-9.062,7.346-16.408,16.408-16.408h320.668
	c9.062,0,16.408,7.346,16.408,16.408v194.461c0,9.062-7.346,16.408-16.408,16.408H95.666
	C86.604,363.471,79.258,356.124,79.258,347.062z"/>
<path style="fill:#DBE1FF;" d="M193.613,136.194H95.666c-9.062,0-16.408,7.346-16.408,16.408v194.461
	c0,9.062,7.346,16.408,16.408,16.408H340.37C242.736,313.655,192.166,210.286,193.613,136.194z"/>
<path style="fill:#E38892;" d="M79.258,198.674v-46.072c0-9.062,7.346-16.408,16.408-16.408h320.668
	c9.062,0,16.408,7.346,16.408,16.408v46.072L79.258,198.674L79.258,198.674z"/>
<g>
	<path style="fill:#495059;" d="M363.419,320.207c-1.919,0-3.839-0.732-5.304-2.197l-32.204-32.204
		c-2.929-2.929-2.929-7.678,0-10.606c2.93-2.929,7.678-2.929,10.607,0l32.204,32.204c2.929,2.929,2.929,7.678,0,10.606
		C367.258,319.475,365.338,320.207,363.419,320.207z"/>
	<path style="fill:#495059;" d="M361.683,276.02l-23.357,6.759c-2.335,0.676-4.161,2.501-4.837,4.837l-6.759,23.357
		c-1.933,6.68-11.328,6.868-13.527,0.271l-19.895-59.683c-1.846-5.539,3.423-10.808,8.962-8.962l59.683,19.894
		C368.551,264.691,368.363,274.087,361.683,276.02z"/>
</g>
<path style="fill:#6B7BAB;" d="M300.896,363.471h-89.793l8.365,14.973c4.248,7.603,12.276,12.314,20.985,12.314h31.093
	c8.709,0,16.738-4.711,20.985-12.314L300.896,363.471z"/>
<path style="fill:#72CDA2;" d="M161.687,324.772h33.726c8.666,0,15.691-7.025,15.691-15.69v-56.019
	c0-8.666-7.025-15.69-15.691-15.69h-33.726c-8.666,0-15.69,7.025-15.69,15.69v56.019
	C145.996,317.747,153.021,324.772,161.687,324.772z"/>
<path style="opacity:0.2;fill:#254A74;enable-background:new    ;" d="M16.133,363.47C7.223,363.47,0,370.693,0,379.603v22.311
	c0,8.91,7.223,16.133,16.133,16.133h290.052c-29.608-11.821-43.362-38.443-43.049-54.576H16.133V363.47z"/>
<g>
</g>
<g>
</g>
<g>
</g>
<g>
</g>
<g>
</g>
<g>
</g>
<g>
</g>
<g>
</g>
<g>
</g>
<g>
</g>
<g>
</g>
<g>
</g>
<g>
</g>
<g>
</g>
<g>
</g>
</svg>
