<?xml version="1.0" encoding="iso-8859-1"?>
<!-- Generator: Adobe Illustrator 19.0.0, SVG Export Plug-In . SVG Version: 6.00 Build 0)  -->
<svg version="1.1" id="Capa_1" xmlns="http://www.w3.org/2000/svg" xmlns:xlink="http://www.w3.org/1999/xlink" x="0px" y="0px"
	 viewBox="0 0 512 512" style="enable-background:new 0 0 512 512;" xml:space="preserve">
<circle style="fill:#6B7BAB;" cx="256" cy="397.39" r="70.4"/>
<path style="fill:#BBE0F1;" d="M490.247,184.899c-5.567,0-11.134-2.124-15.381-6.371C416.304,119.967,338.576,87.716,256,87.716
	S95.696,119.967,37.134,178.528c-8.495,8.495-22.268,8.495-30.762,0c-8.496-8.495-8.496-22.268,0-30.764
	C73.149,80.987,161.803,44.21,256,44.21s182.851,36.777,249.628,103.554c8.496,8.495,8.496,22.268,0,30.764
	C501.381,182.775,495.814,184.899,490.247,184.899z"/>
<path style="fill:#7F9AE6;" d="M428.75,246.397c-5.567,0-11.134-2.124-15.381-6.371C371.26,197.917,315.373,174.727,256,174.727
	s-115.26,23.19-157.369,65.299c-8.495,8.495-22.268,8.495-30.762,0c-8.496-8.495-8.496-22.268,0-30.764
	c50.325-50.326,117.138-78.041,188.131-78.041s137.806,27.715,188.131,78.041c8.496,8.495,8.496,22.268,0,30.764
	C439.884,244.273,434.317,246.397,428.75,246.397z"/>
<path style="fill:#6B7BAB;" d="M367.252,307.895c-5.568,0-11.134-2.123-15.381-6.372c-25.656-25.655-59.703-39.784-95.871-39.784
	s-70.215,14.129-95.871,39.784c-8.495,8.496-22.268,8.495-30.762,0.001c-8.495-8.495-8.496-22.268,0-30.763
	c33.871-33.873,78.845-52.527,126.633-52.527s92.762,18.654,126.633,52.527c8.496,8.495,8.495,22.268,0,30.763
	C378.386,305.77,372.819,307.895,367.252,307.895z"/>
<g>
	<ellipse style="fill:#E38892;" cx="206.88" cy="397.37" rx="18.12" ry="14.432"/>
	<ellipse style="fill:#E38892;" cx="305.12" cy="397.37" rx="18.12" ry="14.432"/>
</g>
<g>
	<path style="fill:#495059;" d="M217.445,390.476c-4.143,0-7.5-3.358-7.5-7.5v-6.4c0-4.142,3.357-7.5,7.5-7.5s7.5,3.358,7.5,7.5v6.4
		C224.945,387.118,221.588,390.476,217.445,390.476z"/>
	<path style="fill:#495059;" d="M294.555,390.476c-4.143,0-7.5-3.358-7.5-7.5v-6.4c0-4.142,3.357-7.5,7.5-7.5s7.5,3.358,7.5,7.5v6.4
		C302.055,387.118,298.697,390.476,294.555,390.476z"/>
	<path style="fill:#495059;" d="M256,395.391c-6.064,0-11.829-2.625-15.819-7.203c-2.721-3.123-2.396-7.86,0.727-10.582
		c3.122-2.722,7.86-2.397,10.582,0.726c1.14,1.308,2.784,2.059,4.511,2.059c1.727,0,3.371-0.75,4.511-2.059
		c2.722-3.122,7.459-3.448,10.582-0.726c3.123,2.721,3.447,7.459,0.727,10.582C267.829,392.765,262.064,395.391,256,395.391z"/>
</g>
<g>
	<path style="opacity:0.2;fill:#254A74;enable-background:new    ;" d="M307.929,444.915
		c-86.472,12.525-115.584-55.83-96.04-102.367c-16.023,12.904-26.286,32.672-26.286,54.846c0,38.879,31.517,70.396,70.396,70.396
		C276.561,467.79,295.059,458.971,307.929,444.915z"/>
	<path style="opacity:0.2;fill:#254A74;enable-background:new    ;" d="M263.053,218.382c-2.344-0.09-4.694-0.149-7.053-0.149
		c-47.788,0-92.762,18.654-126.633,52.527c-8.496,8.495-8.495,22.268,0,30.763s22.268,8.495,30.762-0.001
		c25.656-25.655,59.703-39.784,95.871-39.784c6.428,0,12.787,0.455,19.046,1.333C254.243,250.896,253.329,226.754,263.053,218.382z"
		/>
	<path style="opacity:0.2;fill:#254A74;enable-background:new    ;" d="M256,131.221c-70.993,0-137.806,27.716-188.131,78.041
		c-8.496,8.495-8.496,22.268,0,30.764c8.495,8.495,22.268,8.495,30.762,0c42.109-42.109,97.996-65.299,157.369-65.299
		c10.32,0,20.53,0.717,30.585,2.095c-23.607-13.519-26.912-35.873-18.657-45.326C263.966,131.322,259.991,131.221,256,131.221z"/>
	<path style="opacity:0.2;fill:#254A74;enable-background:new    ;" d="M256,44.21c-94.197,0-182.851,36.777-249.628,103.554
		c-8.496,8.495-8.496,22.268,0,30.764c8.495,8.495,22.268,8.495,30.762,0C95.696,119.967,173.424,87.716,256,87.716
		c10.615,0,21.147,0.542,31.571,1.595c-20.191-11.388-26.915-32.396-22.384-44.98C262.131,44.253,259.069,44.21,256,44.21z"/>
</g>
<g>
</g>
<g>
</g>
<g>
</g>
<g>
</g>
<g>
</g>
<g>
</g>
<g>
</g>
<g>
</g>
<g>
</g>
<g>
</g>
<g>
</g>
<g>
</g>
<g>
</g>
<g>
</g>
<g>
</g>
</svg>
