<?xml version="1.0" encoding="iso-8859-1"?>
<!-- Generator: Adobe Illustrator 19.0.0, SVG Export Plug-In . SVG Version: 6.00 Build 0)  -->
<svg version="1.1" id="Capa_1" xmlns="http://www.w3.org/2000/svg" xmlns:xlink="http://www.w3.org/1999/xlink" x="0px" y="0px"
	 viewBox="0 0 512 512" style="enable-background:new 0 0 512 512;" xml:space="preserve">
<path style="fill:#D66274;" d="M419.848,512H92.152C41.258,512,0,470.742,0,419.848V92.152C0,41.258,41.258,0,92.152,0h327.696
	C470.742,0,512,41.258,512,92.152v327.696C512,470.742,470.742,512,419.848,512z"/>
<path style="fill:#E38892;" d="M512,419.848V273.432c-150.331,82.876-320.856-2.103-512,99.875v46.542
	C0,470.742,41.258,512,92.152,512h327.697C470.742,512,512,470.742,512,419.848z"/>
<path style="fill:#BBE0F1;" d="M79.374,156.598h86.05c8.099,0,14.665-6.566,14.665-14.665V106.97
	c0-8.099-6.566-14.665-14.665-14.665h-86.05c-8.099,0-14.665,6.566-14.665,14.665v34.963
	C64.709,150.032,71.275,156.598,79.374,156.598z"/>
<path style="opacity:0.15;fill:#812B2F;enable-background:new    ;" d="M505.644,453.471C147.071,439.464,153.221,157.112,179.596,0
	H92.152C41.258,0,0,41.258,0,92.152v327.697C0,470.742,41.258,512,92.152,512h327.697C458.873,512,492.207,487.73,505.644,453.471z"
	/>
<circle style="fill:#F0F2FF;" cx="256" cy="256" r="152.75"/>
<circle style="fill:#6B7BAB;" cx="256" cy="256" r="97.56"/>
<circle style="fill:#F8E47C;" cx="425.42" cy="86.58" r="37.872"/>
<path style="opacity:0.2;fill:#254A74;enable-background:new    ;" d="M353.561,256c0-53.881-43.68-97.561-97.561-97.561
	c-25.567,0-48.825,9.846-66.221,25.939c69.32-16.634,160.619,34.421,137.458,138.247C343.555,305.185,353.561,281.767,353.561,256z"
	/>
<g>
</g>
<g>
</g>
<g>
</g>
<g>
</g>
<g>
</g>
<g>
</g>
<g>
</g>
<g>
</g>
<g>
</g>
<g>
</g>
<g>
</g>
<g>
</g>
<g>
</g>
<g>
</g>
<g>
</g>
</svg>
