<?xml version="1.0" encoding="iso-8859-1"?>
<!-- Generator: Adobe Illustrator 19.0.0, SVG Export Plug-In . SVG Version: 6.00 Build 0)  -->
<svg version="1.1" id="Capa_1" xmlns="http://www.w3.org/2000/svg" xmlns:xlink="http://www.w3.org/1999/xlink" x="0px" y="0px"
	 viewBox="0 0 512 512" style="enable-background:new 0 0 512 512;" xml:space="preserve">
<path style="fill:#E38892;" d="M92.125,163.875c0,110.391,87.992,266.668,141.143,336.825c11.414,15.066,34.05,15.066,45.464,0
	c53.151-70.157,141.143-226.434,141.143-336.825C419.875,73.369,346.506,0,256,0S92.125,73.369,92.125,163.875z"/>
<path style="fill:#D66274;" d="M256,332.433c-50.891,0-77.517,15.328-107.878,26.253c27.593,57.208,60.205,109.093,85.146,142.014
	c11.414,15.066,34.05,15.066,45.464,0c24.941-32.921,57.553-84.806,85.146-142.014C333.517,347.76,306.891,332.433,256,332.433z"/>
<path style="opacity:0.15;fill:#812B2F;enable-background:new    ;" d="M224.571,3.023C149.103,17.684,92.125,84.12,92.125,163.875
	c0,110.391,87.992,266.668,141.143,336.825c11.414,15.066,34.05,15.066,45.464,0c11.644-15.37,24.961-34.875,38.659-57.124
	C222.315,453.876,147.344,94.562,224.571,3.023z"/>
<circle style="fill:#F8E47C;" cx="256" cy="163.87" r="94.3"/>
<g>
	<ellipse style="fill:#E38892;" cx="197.7" cy="178.97" rx="21.511" ry="17.13"/>
	<ellipse style="fill:#E38892;" cx="314.3" cy="178.97" rx="21.511" ry="17.13"/>
</g>
<g>
	<path style="fill:#495059;" d="M210.238,169.386c-4.142,0-7.5-3.358-7.5-7.5v-7.596c0-4.142,3.358-7.5,7.5-7.5s7.5,3.358,7.5,7.5
		v7.596C217.738,166.028,214.38,169.386,210.238,169.386z"/>
	<path style="fill:#495059;" d="M301.762,169.386c-4.142,0-7.5-3.358-7.5-7.5v-7.596c0-4.142,3.358-7.5,7.5-7.5s7.5,3.358,7.5,7.5
		v7.596C309.262,166.028,305.904,169.386,301.762,169.386z"/>
	<path style="fill:#495059;" d="M256,175.22c-6.792,0-13.25-2.941-17.719-8.069c-2.721-3.123-2.396-7.86,0.727-10.582
		c3.123-2.721,7.86-2.396,10.582,0.727c1.619,1.858,3.956,2.924,6.411,2.924c2.455,0,4.792-1.066,6.411-2.924
		c2.722-3.123,7.459-3.447,10.582-0.727c3.122,2.722,3.448,7.459,0.727,10.582C269.25,172.279,262.792,175.22,256,175.22z"/>
</g>
<path style="opacity:0.15;fill:#C97B00;enable-background:new    ;" d="M256,69.571c-26.076,0-49.678,10.585-66.749,27.69
	c62.518-18.527,171.053,15.205,131.325,135.305c18.29-17.2,29.728-41.603,29.728-68.692C350.304,111.792,308.082,69.571,256,69.571z
	"/>
<g>
</g>
<g>
</g>
<g>
</g>
<g>
</g>
<g>
</g>
<g>
</g>
<g>
</g>
<g>
</g>
<g>
</g>
<g>
</g>
<g>
</g>
<g>
</g>
<g>
</g>
<g>
</g>
<g>
</g>
</svg>
