<?xml version="1.0" encoding="iso-8859-1"?>
<!-- Generator: Adobe Illustrator 19.0.0, SVG Export Plug-In . SVG Version: 6.00 Build 0)  -->
<svg version="1.1" id="Capa_1" xmlns="http://www.w3.org/2000/svg" xmlns:xlink="http://www.w3.org/1999/xlink" x="0px" y="0px"
	 viewBox="0 0 512.001 512.001" style="enable-background:new 0 0 512.001 512.001;" xml:space="preserve">
<path style="fill:#5B9675;" d="M469.502,512c-10.877,0-21.753-4.149-30.051-12.448l-169.05-169.05
	c-16.596-16.596-16.596-43.505,0.001-60.102c16.596-16.596,43.505-16.596,60.101,0.001l169.05,169.05
	c16.596,16.596,16.596,43.505-0.001,60.101C491.254,507.851,480.378,512,469.502,512z"/>
<path style="opacity:0.15;fill:#2C6245;enable-background:new    ;" d="M506.347,490.682
	c-67.792-20.719-119.674-80.851-138.415-114.73c-2.762-4.993-2.031-11.229,1.889-15.376c8.28-8.758,15.883-18.163,22.728-28.129
	l-61.453-61.453c-16.85-16.85-44.75-17.171-61.275-0.002c-16.014,16.639-15.82,43.11,0.58,59.51l169.05,169.05
	c8.298,8.299,19.174,12.448,30.051,12.448c10.876,0,21.753-4.149,30.051-12.448C502.263,496.842,504.522,493.853,506.347,490.682z"
	/>
<path style="fill:#F8E47C;" d="M439.451,499.552c8.298,8.299,19.174,12.448,30.051,12.448c10.876,0,21.753-4.149,30.051-12.448
	c16.597-16.596,16.597-43.505,0.001-60.101l-31.48-31.48c-19.917,19.916-41.923,41.923-60.101,60.102L439.451,499.552z"/>
<path style="opacity:0.15;fill:#C97B00;enable-background:new    ;" d="M407.972,468.073l31.48,31.479
	C447.75,507.851,458.626,512,469.503,512c10.876,0,21.753-4.149,30.051-12.448c2.711-2.71,4.97-5.699,6.795-8.87
	c-29.238-8.936-55.513-25.205-77.45-43.535C421.61,454.434,414.539,461.505,407.972,468.073z"/>
<circle style="fill:#72CDA2;" cx="201.59" cy="201.59" r="201.59"/>
<path style="opacity:0.15;fill:#2C6245;enable-background:new    ;" d="M201.586,403.172c74.913,0,140.28-40.865,175.031-101.518
	C128.681,411.276,43.924,127.904,171.278,2.268C74.325,16.887,0,100.555,0,201.586C0,312.919,90.253,403.172,201.586,403.172z"/>
<circle style="fill:#FFFFFF;" cx="201.59" cy="201.59" r="144.16"/>
<path style="opacity:0.1;enable-background:new    ;" d="M201.586,57.43c-27.479,0-53.16,7.691-75.013,21.034
	c86.996-21.666,207.486,24.616,212.2,167.495c4.518-13.98,6.97-28.889,6.97-44.372C345.743,121.971,281.202,57.43,201.586,57.43z"/>
<path style="fill:#F8E47C;" d="M178.774,114.754c-58.42,0-107.471,40.09-121.157,94.257
	c3.864,76.165,66.843,136.731,143.969,136.731c21.962,0,42.772-4.92,61.402-13.704c25.038-22.852,40.75-55.752,40.75-92.322
	C303.737,170.702,247.789,114.754,178.774,114.754z"/>
<g>
	<ellipse style="fill:#E38892;" cx="105.17" cy="262.94" rx="27.16" ry="21.627"/>
	<ellipse style="fill:#E38892;" cx="252.37" cy="262.94" rx="27.16" ry="21.627"/>
</g>
<g>
	<path style="fill:#495059;" d="M109.714,244.9c-4.142,0-7.5-3.358-7.5-7.5v-11.657c0-4.142,3.358-7.5,7.5-7.5s7.5,3.358,7.5,7.5
		V237.4C117.214,241.542,113.856,244.9,109.714,244.9z"/>
	<path style="fill:#495059;" d="M178.774,265.995L178.774,265.995c-10.867,0-19.676-8.809-19.676-19.675v-14.305
		c0-2.966,2.405-5.371,5.371-5.371h28.609c2.966,0,5.371,2.405,5.371,5.371v14.305C198.45,257.186,189.641,265.995,178.774,265.995z
		"/>
	<path style="fill:#495059;" d="M247.835,244.9c-4.142,0-7.5-3.358-7.5-7.5v-11.657c0-4.142,3.358-7.5,7.5-7.5s7.5,3.358,7.5,7.5
		V237.4C255.335,241.542,251.977,244.9,247.835,244.9z"/>
</g>
<path style="opacity:0.15;fill:#C97B00;enable-background:new    ;" d="M131.102,124.178c-36.159,14.936-63.76,46.355-73.481,84.888
	c3.892,76.138,66.859,136.676,143.965,136.676c21.945,0,42.74-4.912,61.358-13.683c1.138-1.038,2.262-2.09,3.361-3.169
	C58.948,364.68,56.088,185.8,131.102,124.178z"/>
<g>
</g>
<g>
</g>
<g>
</g>
<g>
</g>
<g>
</g>
<g>
</g>
<g>
</g>
<g>
</g>
<g>
</g>
<g>
</g>
<g>
</g>
<g>
</g>
<g>
</g>
<g>
</g>
<g>
</g>
</svg>
