<?xml version="1.0" encoding="iso-8859-1"?>
<!-- Generator: Adobe Illustrator 19.0.0, SVG Export Plug-In . SVG Version: 6.00 Build 0)  -->
<svg version="1.1" id="Capa_1" xmlns="http://www.w3.org/2000/svg" xmlns:xlink="http://www.w3.org/1999/xlink" x="0px" y="0px"
	 viewBox="0 0 512.001 512.001" style="enable-background:new 0 0 512.001 512.001;" xml:space="preserve">
<path style="fill:#BBE0F1;" d="M174.974,96.688H66.592v67.408h175.791l0,0C242.383,126.867,212.203,96.688,174.974,96.688z"/>
<path style="opacity:0.2;fill:#254A74;enable-background:new    ;" d="M85.623,96.688h-19.03v67.408h87.937
	C113.493,145.255,91.845,117.063,85.623,96.688z"/>
<path style="fill:#7F9AE6;" d="M16.983,73.575h32.626c9.38,0,16.983,7.604,16.983,16.983v72.127c0,9.38-7.604,16.983-16.983,16.983
	H16.983C7.604,179.668,0,172.064,0,162.685V90.558C0,81.179,7.604,73.575,16.983,73.575z"/>
<path style="opacity:0.2;fill:#254A74;enable-background:new    ;" d="M66.592,162.685v-12.743
	c-38.727,0.148-51.845-47.899-53.87-75.806C5.409,76.029,0,82.653,0,90.558v72.127c0,9.38,7.604,16.983,16.983,16.983h32.626
	C58.989,179.668,66.592,172.064,66.592,162.685z"/>
<path style="fill:#6B7BAB;" d="M335.637,164.096H66.592c-29.741,0-53.852,24.11-53.852,53.852v166.626
	c0,29.741,24.11,53.851,53.852,53.851h269.045c29.741,0,53.852-24.11,53.852-53.851V217.948
	C389.489,188.206,365.379,164.096,335.637,164.096z"/>
<path style="opacity:0.2;fill:#254A74;enable-background:new    ;" d="M364.225,430.203
	C174.882,406.78,152.032,226.966,162.507,164.096H66.592c-29.741,0-53.852,24.11-53.852,53.852v166.626
	c0,29.741,24.11,53.851,53.852,53.851h269.045C346.143,438.425,355.939,435.406,364.225,430.203z"/>
<path style="fill:#F0F2FF;" d="M51.491,369.658V232.863c0-16.578,13.439-30.017,30.017-30.017h239.215
	c16.578,0,30.017,13.439,30.017,30.017v136.795c0,16.578-13.439,30.017-30.017,30.017H81.507
	C64.93,399.675,51.491,386.236,51.491,369.658z"/>
<path style="fill:#DBE1FF;" d="M269.755,399.675c-81.81-47.814-106.664-137.071-109.134-196.829H81.507
	c-16.578,0-30.017,13.439-30.017,30.017v136.796c0,16.578,13.439,30.016,30.017,30.016H269.755z"/>
<path style="fill:#72CDA2;" d="M389.489,241.621l102.068-24.222c10.433-2.476,20.444,5.437,20.444,16.16v137.402
	c0,10.8-10.146,18.727-20.625,16.116L389.49,361.685L389.489,241.621L389.489,241.621z"/>
<path style="fill:#5B9675;" d="M491.556,217.399l-24.38,5.786v157.861l24.199,6.031c10.48,2.612,20.625-5.316,20.625-16.116V233.558
	C512,222.835,501.99,214.923,491.556,217.399z"/>
<path style="fill:#E38892;" d="M248.417,321.234l-74.631,37.316c-14.848,7.424-32.318-3.373-32.318-19.974v-74.631
	c0-16.601,17.47-27.398,32.318-19.974l74.631,37.316C264.877,289.516,264.877,313.005,248.417,321.234z"/>
<path style="opacity:0.15;fill:#2C6245;enable-background:new    ;" d="M512,370.961V353.29
	c-75.749-8.05-96.536-73.01-102.207-116.487l-20.304,4.818v120.064l101.886,25.392C501.854,389.688,512,381.761,512,370.961z"/>
<g>
</g>
<g>
</g>
<g>
</g>
<g>
</g>
<g>
</g>
<g>
</g>
<g>
</g>
<g>
</g>
<g>
</g>
<g>
</g>
<g>
</g>
<g>
</g>
<g>
</g>
<g>
</g>
<g>
</g>
</svg>
