<?xml version="1.0" encoding="iso-8859-1"?>
<!-- Generator: Adobe Illustrator 19.0.0, SVG Export Plug-In . SVG Version: 6.00 Build 0)  -->
<svg version="1.1" id="Capa_1" xmlns="http://www.w3.org/2000/svg" xmlns:xlink="http://www.w3.org/1999/xlink" x="0px" y="0px"
	 viewBox="0 0 512.001 512.001" style="enable-background:new 0 0 512.001 512.001;" xml:space="preserve">
<path style="fill:#F0F2FF;" d="M0,441.448c0,27.154,22.013,49.167,49.167,49.167h413.667c-27.154,0-49.167-22.013-49.167-49.167
	V95.287H0V441.448z"/>
<path style="fill:#DBE1FF;" d="M119.256,95.287H0v346.16c0,27.154,22.013,49.167,49.167,49.167H394.36
	C171.532,431.232,127.812,233.064,119.256,95.287z"/>
<g>
	<path style="fill:#495059;" d="M353.998,255.962H206.833c-4.143,0-7.5-3.358-7.5-7.5s3.357-7.5,7.5-7.5h147.165
		c4.143,0,7.5,3.358,7.5,7.5S358.141,255.962,353.998,255.962z"/>
	<path style="fill:#495059;" d="M354.393,377.235H59.274c-4.143,0-7.5-3.358-7.5-7.5s3.357-7.5,7.5-7.5h295.118
		c4.143,0,7.5,3.358,7.5,7.5C361.893,373.877,358.535,377.235,354.393,377.235z"/>
	<path style="fill:#495059;" d="M354.393,434.458H59.274c-4.143,0-7.5-3.358-7.5-7.5s3.357-7.5,7.5-7.5h295.118
		c4.143,0,7.5,3.358,7.5,7.5S358.535,434.458,354.393,434.458z"/>
	<path style="fill:#495059;" d="M353.998,303.512H206.833c-4.143,0-7.5-3.358-7.5-7.5s3.357-7.5,7.5-7.5h147.165
		c4.143,0,7.5,3.358,7.5,7.5S358.141,303.512,353.998,303.512z"/>
</g>
<path style="fill:#72CDA2;" d="M133.469,326.796H78.906c-12.224,0-22.134-9.91-22.134-22.134v-54.564
	c0-12.224,9.91-22.134,22.134-22.134h54.564c12.224,0,22.134,9.909,22.134,22.134v54.564
	C155.603,316.886,145.693,326.796,133.469,326.796z"/>
<path style="fill:#6B7BAB;" d="M362.454,24.895l-20.479,16.718c-6.426,5.246-15.657,5.246-22.083,0l-20.479-16.718
	c-5.731-4.678-13.962-4.678-19.692,0l-20.479,16.718c-6.426,5.246-15.657,5.246-22.083,0L216.68,24.895
	c-5.731-4.678-13.962-4.678-19.692,0l-20.479,16.718c-6.426,5.246-15.657,5.246-22.083,0l-20.479-16.718
	c-5.731-4.678-13.962-4.678-19.693,0L93.775,41.613c-6.426,5.246-15.657,5.246-22.083,0L51.213,24.895
	c-5.73-4.678-13.962-4.678-19.692,0L11.784,41.007C4.326,47.095,0,56.212,0,65.839v122.242h413.667V65.839
	c0-9.627-4.326-18.744-11.784-24.832l-19.737-16.113C376.416,20.216,368.184,20.216,362.454,24.895z"/>
<g>
	<ellipse style="fill:#E38892;" cx="117.1" cy="141.54" rx="33.11" ry="26.366"/>
	<ellipse style="fill:#E38892;" cx="296.56" cy="141.54" rx="33.11" ry="26.366"/>
</g>
<g>
	<path style="fill:#495059;" d="M136.399,122.736c-4.143,0-7.5-3.358-7.5-7.5v-11.691c0-4.142,3.357-7.5,7.5-7.5s7.5,3.358,7.5,7.5
		v11.691C143.899,119.378,140.542,122.736,136.399,122.736z"/>
	<path style="fill:#495059;" d="M277.267,122.736c-4.143,0-7.5-3.358-7.5-7.5v-11.691c0-4.142,3.357-7.5,7.5-7.5s7.5,3.358,7.5,7.5
		v11.691C284.767,119.378,281.409,122.736,277.267,122.736z"/>
	<path style="fill:#495059;" d="M206.833,131.714c-9.283,0-18.112-4.021-24.223-11.031c-2.722-3.122-2.397-7.86,0.726-10.582
		c3.122-2.722,7.86-2.396,10.581,0.726c3.262,3.742,7.97,5.888,12.916,5.888c4.947,0,9.655-2.146,12.917-5.888
		c2.722-3.123,7.459-3.447,10.581-0.726c3.123,2.722,3.447,7.46,0.725,10.582C224.946,127.693,216.117,131.714,206.833,131.714z"/>
</g>
<path style="opacity:0.2;fill:#254A74;enable-background:new    ;" d="M117.193,23.016c-1.029,0.51-2.018,1.127-2.939,1.879
	L93.775,41.613c-6.426,5.246-15.657,5.246-22.083,0L51.213,24.895c-5.731-4.678-13.962-4.678-19.693,0L11.784,41.007
	C4.326,47.095,0,56.212,0,65.839v122.242h130.605C118.613,125.601,117.322,66.175,117.193,23.016z"/>
<path style="fill:#F0F2FF;" d="M486.096,248.462h-72.429v192.986c0,27.154,22.013,49.167,49.167,49.167l0,0
	c27.154,0,49.167-22.013,49.167-49.167V274.366C512,260.06,500.402,248.462,486.096,248.462z"/>
<path style="fill:#DBE1FF;" d="M486.096,248.462h-72.429v192.986c0,27.154,22.013,49.167,49.167,49.167l0,0
	c27.154,0,49.167-22.013,49.167-49.167V274.366C512,260.06,500.402,248.462,486.096,248.462z"/>
<path style="fill:#909DE0;" d="M462.833,490.614L462.833,490.614c27.154,0,49.167-22.013,49.167-49.167v-9.477
	c-60.903-2.758-86.109-61.881-98.333-125.076v134.554C413.667,468.602,435.68,490.614,462.833,490.614z"/>
<g>
</g>
<g>
</g>
<g>
</g>
<g>
</g>
<g>
</g>
<g>
</g>
<g>
</g>
<g>
</g>
<g>
</g>
<g>
</g>
<g>
</g>
<g>
</g>
<g>
</g>
<g>
</g>
<g>
</g>
</svg>
