<?xml version="1.0" encoding="iso-8859-1"?>
<!-- Generator: Adobe Illustrator 19.0.0, SVG Export Plug-In . SVG Version: 6.00 Build 0)  -->
<svg version="1.1" id="Capa_1" xmlns="http://www.w3.org/2000/svg" xmlns:xlink="http://www.w3.org/1999/xlink" x="0px" y="0px"
	 viewBox="0 0 512 512" style="enable-background:new 0 0 512 512;" xml:space="preserve">
<circle style="fill:#BBE0F1;" cx="256" cy="256" r="256"/>
<path style="fill:#5B9675;" d="M476.974,385.301c0.921-12.965,0.663-23.865-1.17-30.863c-7.992-30.514-83.938-65.928-110.309-57.108
	c-26.372,8.82-34.375-4.615-37.191-14.489c-2.815-9.874-18.694-23.556-34.628-13.864s-43.814-11.299-47.883-33.172
	s13.116-28.128,20.867-23.943c7.751,4.185,46.003,15.173,28.558-13.508c-17.445-28.681,43.306-15.762,35.859-51.196
	c-7.448-35.434-3.083-70.497-19.336-80.929s-7.332-47.932-51.386-34.233s-81.348,72.424-117.978,52.282
	c-33.245-18.281-55.68-9.62-73.617-2.829c-39.556,42.413-64.873,98.27-68.338,159.975c31.3-21.946,74.704-17.176,79.478,7.34
	c3.752,19.267,29.711,81.285,65.786,82.014s-14.065-55.754-0.38-63.071c13.685-7.316,53.999,2.921,60.446,35.606
	c6.447,32.685,57.881,26.419,71.692,23.728c13.811-2.691,25.684-8.57,32.937,2.803c7.253,11.372-12.98,67.002,30.276,91.738
	c24.592,14.063,41.539,33.42,50.815,51.653C426.589,451.29,455.998,421.071,476.974,385.301z"/>
<g>
	
		<ellipse transform="matrix(-0.342 -0.9397 0.9397 -0.342 -22.8477 375.9667)" style="fill:#FFFFFF;" cx="120.206" cy="195.983" rx="22.766" ry="28.587"/>
	
		<ellipse transform="matrix(0.342 0.9397 -0.9397 0.342 309.255 -155.7133)" style="fill:#FFFFFF;" cx="265.816" cy="142.969" rx="22.766" ry="28.587"/>
</g>
<g>
	<path style="fill:#495059;" d="M128.096,176.445c-3.064,0-5.939-1.891-7.048-4.937l-3.453-9.486
		c-1.416-3.892,0.59-8.196,4.483-9.613c3.89-1.418,8.195,0.59,9.613,4.483l3.453,9.486c1.416,3.892-0.59,8.196-4.483,9.613
		C129.814,176.299,128.948,176.445,128.096,176.445z"/>
	<path style="fill:#495059;" d="M242.393,134.845c-3.064,0-5.939-1.891-7.048-4.937l-3.453-9.486
		c-1.416-3.892,0.59-8.196,4.483-9.613c3.89-1.416,8.196,0.59,9.613,4.483l3.453,9.486c1.416,3.892-0.59,8.196-4.483,9.613
		C244.111,134.699,243.244,134.845,242.393,134.845z"/>
	<path style="fill:#495059;" d="M180.634,164.208c-4.818,0-9.615-1.21-13.932-3.596c-3.626-2.003-4.94-6.566-2.937-10.192
		s6.566-4.939,10.192-2.937c3.492,1.93,7.637,2.257,11.373,0.896c3.736-1.359,6.701-4.274,8.135-7.996
		c1.489-3.866,5.831-5.79,9.695-4.302c3.865,1.489,5.792,5.83,4.302,9.695c-2.994,7.77-9.19,13.856-17.002,16.699
		C187.276,163.634,183.95,164.208,180.634,164.208z"/>
</g>
<g>
	<path style="opacity:0.2;fill:#254A74;enable-background:new    ;" d="M174.904,13.123C73.269,47.043,0,142.961,0,256
		c0,141.385,114.615,256,256,256c88.68,0,166.822-45.096,212.762-113.602C154.507,467.186,90.584,153.673,174.904,13.123z"/>
	<g style="opacity:0.2;">
		<path style="fill:#254A74;" d="M450.597,219.536c-13.058,0-25.477-5.146-34.686-14.095c-9.21,8.948-21.629,14.095-34.686,14.095
			c-4.143,0-7.5-3.358-7.5-7.5s3.357-7.5,7.5-7.5c11.354,0,22.021-5.576,28.533-14.915c1.403-2.011,3.7-3.21,6.152-3.21l0,0
			c2.452,0,4.75,1.199,6.152,3.21c6.512,9.339,17.179,14.915,28.533,14.915c4.143,0,7.5,3.358,7.5,7.5
			C458.097,216.178,454.739,219.536,450.597,219.536z"/>
		<path style="fill:#254A74;" d="M161.055,406.629c-13.057,0-25.477-5.146-34.686-14.095c-9.21,8.948-21.629,14.095-34.686,14.095
			c-4.142,0-7.5-3.358-7.5-7.5s3.358-7.5,7.5-7.5c11.354,0,22.021-5.576,28.534-14.915c1.402-2.011,3.7-3.21,6.152-3.21l0,0
			c2.452,0,4.75,1.199,6.152,3.211c6.513,9.339,17.179,14.915,28.534,14.915c4.142,0,7.5,3.358,7.5,7.5
			S165.197,406.629,161.055,406.629z"/>
		<path style="fill:#254A74;" d="M282.164,468.757c-13.057,0-25.476-5.147-34.686-14.095c-9.209,8.949-21.628,14.095-34.685,14.095
			c-4.142,0-7.5-3.358-7.5-7.5s3.358-7.5,7.5-7.5c11.354,0,22.021-5.576,28.533-14.915c1.403-2.012,3.7-3.211,6.152-3.211
			s4.75,1.199,6.152,3.211c6.512,9.339,17.179,14.915,28.533,14.915c4.143,0,7.5,3.358,7.5,7.5
			C289.664,465.399,286.307,468.757,282.164,468.757z"/>
	</g>
</g>
<g>
</g>
<g>
</g>
<g>
</g>
<g>
</g>
<g>
</g>
<g>
</g>
<g>
</g>
<g>
</g>
<g>
</g>
<g>
</g>
<g>
</g>
<g>
</g>
<g>
</g>
<g>
</g>
<g>
</g>
</svg>
