<?xml version="1.0" encoding="iso-8859-1"?>
<!-- Generator: Adobe Illustrator 19.0.0, SVG Export Plug-In . SVG Version: 6.00 Build 0)  -->
<svg version="1.1" id="Capa_1" xmlns="http://www.w3.org/2000/svg" xmlns:xlink="http://www.w3.org/1999/xlink" x="0px" y="0px"
	 viewBox="0 0 512 512" style="enable-background:new 0 0 512 512;" xml:space="preserve">
<path id="SVGCleanerId_0" style="fill:#E38892;" d="M239.929,71.637C180.775,27.147,96.254,32.072,42.716,86.41
	c-58.145,59.014-56.444,154.426,2.136,213.007l142.591,142.591c37.863,37.863,99.251,37.863,137.114,0l142.591-142.591
	c58.581-58.581,60.281-153.993,2.136-213.007c-53.538-54.338-138.059-59.262-197.213-14.773
	C262.568,78.784,249.431,78.784,239.929,71.637z"/>
<g>
	<path id="SVGCleanerId_0_1_" style="fill:#E38892;" d="M239.929,71.637C180.775,27.147,96.254,32.072,42.716,86.41
		c-58.145,59.014-56.444,154.426,2.136,213.007l142.591,142.591c37.863,37.863,99.251,37.863,137.114,0l142.591-142.591
		c58.581-58.581,60.281-153.993,2.136-213.007c-53.538-54.338-138.059-59.262-197.213-14.773
		C262.568,78.784,249.431,78.784,239.929,71.637z"/>
</g>
<g>
	<ellipse style="fill:#FFFFFF;" cx="158.46" cy="195.4" rx="35.99" ry="28.66"/>
	<ellipse style="fill:#FFFFFF;" cx="353.54" cy="195.4" rx="35.99" ry="28.66"/>
</g>
<g>
	<path style="fill:#495059;" d="M196.567,171.717c-4.142,0-7.5-3.358-7.5-7.5c0-5.31-4.32-9.63-9.63-9.63s-9.63,4.32-9.63,9.63
		c0,4.142-3.358,7.5-7.5,7.5s-7.5-3.358-7.5-7.5c0-13.581,11.049-24.63,24.63-24.63c13.581,0,24.63,11.049,24.63,24.63
		C204.067,168.359,200.709,171.717,196.567,171.717z"/>
	<path style="fill:#495059;" d="M349.694,171.717c-4.142,0-7.5-3.358-7.5-7.5c0-5.31-4.32-9.63-9.63-9.63s-9.63,4.32-9.63,9.63
		c0,4.142-3.358,7.5-7.5,7.5s-7.5-3.358-7.5-7.5c0-13.581,11.049-24.63,24.63-24.63s24.63,11.049,24.63,24.63
		C357.194,168.359,353.836,171.717,349.694,171.717z"/>
	<path style="fill:#495059;" d="M256,200.017c-9.132,0-17.816-3.955-23.825-10.851c-2.721-3.122-2.396-7.86,0.727-10.581
		c3.122-2.721,7.861-2.397,10.581,0.727c3.16,3.626,7.722,5.706,12.517,5.706c4.794,0,9.357-2.08,12.517-5.706
		c2.721-3.124,7.458-3.448,10.582-0.727c3.123,2.721,3.448,7.459,0.727,10.581C273.816,196.062,265.132,200.017,256,200.017z"/>
</g>
<path style="fill:#D66274;" d="M256,305.637c-79.451,0-90.062,43.488-176.186,28.741l107.629,107.629
	c37.863,37.863,99.251,37.863,137.114,0l107.629-107.629C346.062,349.125,335.451,305.637,256,305.637z"/>
<path style="opacity:0.15;fill:#812B2F;enable-background:new    ;" d="M161.111,42.053C118.618,38.852,75.026,53.617,42.716,86.41
	c-58.145,59.014-56.444,154.426,2.136,213.007l142.591,142.591c37.863,37.863,99.251,37.863,137.114,0l123.156-123.156
	C169.835,424.4,80.909,160.309,161.111,42.053z"/>
<g>
</g>
<g>
</g>
<g>
</g>
<g>
</g>
<g>
</g>
<g>
</g>
<g>
</g>
<g>
</g>
<g>
</g>
<g>
</g>
<g>
</g>
<g>
</g>
<g>
</g>
<g>
</g>
<g>
</g>
</svg>
