<?xml version="1.0" encoding="iso-8859-1"?>
<!-- Generator: Adobe Illustrator 19.0.0, SVG Export Plug-In . SVG Version: 6.00 Build 0)  -->
<svg version="1.1" id="Capa_1" xmlns="http://www.w3.org/2000/svg" xmlns:xlink="http://www.w3.org/1999/xlink" x="0px" y="0px"
	 viewBox="0 0 512 512" style="enable-background:new 0 0 512 512;" xml:space="preserve">
<g>
	<path style="fill:#BBE0F1;" d="M476.008,82.487l-104.242,26.477l17.129,67.44l21.976-10.756
		c30.292-14.826,57.079-35.934,78.577-61.92l0,0C497.602,93.873,488.404,79.338,476.008,82.487z"/>
	<path style="fill:#BBE0F1;" d="M500.091,164.002L393.08,153.229l-6.969,69.231l24.33-2.591
		c33.536-3.571,65.927-14.245,95.016-31.311l0,0C516.488,182.087,512.816,165.283,500.091,164.002z"/>
</g>
<path style="fill:#7F9AE6;" d="M319.727,46.259c-78.028-0.952-141.579,62.014-141.579,139.823c0,0.404-0.011,0.805-0.014,1.208
	c-31.932-18.183-56.795-47.352-69.407-82.382c-5.589-15.523-27.62-14.843-32.13,1.027c-4.226,14.868-6.488,30.562-6.488,46.786
	c0,30.473,7.987,59.078,21.969,83.85c-16.919-9.255-32.166-21.656-44.756-36.767c-10.561-12.675-31.031-4.501-29.841,11.954
	c1.114,15.417,4.356,30.938,9.905,46.183c13.737,37.742,39.394,67.694,71.168,87.17c-25.135,18.847-54.883,31.879-87.249,37.09
	c-11.421,1.839-15.374,16.353-6.294,23.52c47.621,37.592,107.758,60.029,173.137,60.029c152.644,0,276.726-122.291,279.616-274.245
	C459.247,113.515,397.726,47.211,319.727,46.259z"/>
<path style="opacity:0.15;fill:#254A74;enable-background:new    ;" d="M221.707,84.676
	c-26.828,25.479-43.559,61.487-43.559,101.406c0,0.398-0.011,0.793-0.014,1.191c-31.93-18.18-56.796-47.337-69.407-82.364
	c-5.589-15.523-27.62-14.843-32.13,1.027c-4.226,14.868-6.488,30.562-6.488,46.786c0,30.473,7.987,59.078,21.969,83.85
	c-16.919-9.255-32.166-21.656-44.756-36.767c-10.561-12.675-31.031-4.501-29.841,11.954c1.114,15.417,4.356,30.938,9.905,46.183
	c13.738,37.745,39.406,67.685,71.184,87.158c-25.139,18.854-54.893,31.89-87.265,37.102c-11.421,1.839-15.374,16.353-6.294,23.52
	c47.621,37.592,107.758,60.029,173.137,60.029c85.89,0,162.737-38.72,214.039-99.655C203.68,416.201,163.264,194.795,221.707,84.676
	z"/>
<ellipse style="fill:#E38892;" cx="344.09" cy="181.079" rx="43.36" ry="34.527"/>
<path style="fill:#495059;" d="M389.991,151.005c-4.142,0-7.5-3.358-7.5-7.5c0-7.244-5.893-13.137-13.137-13.137
	s-13.137,5.894-13.137,13.137c0,4.142-3.358,7.5-7.5,7.5s-7.5-3.358-7.5-7.5c0-15.515,12.622-28.137,28.137-28.137
	c15.515,0,28.137,12.622,28.137,28.137C397.491,147.647,394.133,151.005,389.991,151.005z"/>
<g>
</g>
<g>
</g>
<g>
</g>
<g>
</g>
<g>
</g>
<g>
</g>
<g>
</g>
<g>
</g>
<g>
</g>
<g>
</g>
<g>
</g>
<g>
</g>
<g>
</g>
<g>
</g>
<g>
</g>
</svg>
