<?xml version="1.0" encoding="iso-8859-1"?>
<!-- Generator: Adobe Illustrator 19.0.0, SVG Export Plug-In . SVG Version: 6.00 Build 0)  -->
<svg version="1.1" id="Capa_1" xmlns="http://www.w3.org/2000/svg" xmlns:xlink="http://www.w3.org/1999/xlink" x="0px" y="0px"
	 viewBox="0 0 512 512" style="enable-background:new 0 0 512 512;" xml:space="preserve">
<path style="fill:#6B7BAB;" d="M399.359,439.831c-3.101,0-6.241-0.79-9.119-2.451L103.489,271.823
	c-5.654-3.264-9.135-9.296-9.135-15.823c0-6.528,3.482-12.559,9.135-15.824L390.241,74.62c8.737-5.042,19.914-2.052,24.958,6.688
	c5.046,8.739,2.052,19.913-6.687,24.959L149.167,256l259.345,149.733c8.739,5.046,11.733,16.22,6.687,24.959
	C411.815,436.553,405.673,439.831,399.359,439.831z"/>
<g>
	<path style="opacity:0.15;fill:#254A74;enable-background:new    ;" d="M216.088,294.637L149.167,256l66.922-38.637
		c-4.34-11.583-10.566-22.252-18.312-31.623l-94.287,54.437c-5.654,3.264-9.135,9.296-9.135,15.824
		c0,6.527,3.482,12.559,9.135,15.823l94.287,54.437C205.522,316.889,211.749,306.22,216.088,294.637z"/>
	<path style="opacity:0.15;fill:#254A74;enable-background:new    ;" d="M408.512,405.733l-94.288-54.437
		c-7.746,9.371-13.973,20.04-18.312,31.623l94.329,54.461c2.878,1.661,6.018,2.451,9.119,2.451c6.314,0,12.456-3.277,15.839-9.139
		C420.245,421.953,417.251,410.779,408.512,405.733z"/>
	<path style="opacity:0.15;fill:#254A74;enable-background:new    ;" d="M314.224,160.704l94.288-54.437
		c8.739-5.046,11.733-16.22,6.687-24.959c-5.044-8.74-16.222-11.73-24.958-6.688l-94.329,54.461
		C300.251,140.664,306.478,151.333,314.224,160.704z"/>
</g>
<circle style="fill:#7F9AE6;" cx="112.62" cy="256" r="90.44"/>
<g>
	<ellipse style="fill:#E38892;" cx="54.972" cy="267.13" rx="21.272" ry="16.94"/>
	<ellipse style="fill:#E38892;" cx="170.28" cy="267.13" rx="21.272" ry="16.94"/>
</g>
<g>
	<path style="fill:#495059;" d="M67.37,257.731c-4.143,0-7.5-3.358-7.5-7.5v-7.512c0-4.142,3.357-7.5,7.5-7.5
		c4.143,0,7.5,3.358,7.5,7.5v7.512C74.87,254.374,71.513,257.731,67.37,257.731z"/>
	<path style="fill:#495059;" d="M157.879,257.731c-4.143,0-7.5-3.358-7.5-7.5v-7.512c0-4.142,3.357-7.5,7.5-7.5s7.5,3.358,7.5,7.5
		v7.512C165.379,254.374,162.021,257.731,157.879,257.731z"/>
	<path style="fill:#495059;" d="M112.624,263.5c-6.741,0-13.151-2.919-17.586-8.009c-2.721-3.123-2.395-7.861,0.729-10.581
		s7.859-2.395,10.582,0.728c1.584,1.819,3.872,2.862,6.275,2.862s4.691-1.044,6.277-2.863c2.723-3.122,7.459-3.448,10.582-0.727
		c3.122,2.722,3.448,7.459,0.727,10.582C125.774,260.581,119.364,263.5,112.624,263.5z"/>
</g>
<circle style="fill:#E38892;" cx="399.38" cy="421.56" r="90.44"/>
<g>
	<ellipse style="fill:#FFFFFF;" cx="341.72" cy="432.69" rx="21.272" ry="16.94"/>
	<ellipse style="fill:#FFFFFF;" cx="457.03" cy="432.69" rx="21.272" ry="16.94"/>
</g>
<g>
	<path style="fill:#495059;" d="M354.121,423.288c-4.143,0-7.5-3.358-7.5-7.5v-7.512c0-4.142,3.357-7.5,7.5-7.5s7.5,3.358,7.5,7.5
		v7.512C361.621,419.93,358.264,423.288,354.121,423.288z"/>
	<path style="fill:#495059;" d="M444.63,423.288c-4.143,0-7.5-3.358-7.5-7.5v-7.512c0-4.142,3.357-7.5,7.5-7.5s7.5,3.358,7.5,7.5
		v7.512C452.13,419.93,448.772,423.288,444.63,423.288z"/>
	<path style="fill:#495059;" d="M399.376,429.056c-6.74,0-13.149-2.919-17.585-8.007c-2.722-3.122-2.397-7.86,0.726-10.582
		c3.122-2.722,7.86-2.397,10.581,0.726c1.587,1.82,3.875,2.864,6.278,2.864s4.69-1.044,6.276-2.863
		c2.72-3.124,7.459-3.449,10.581-0.727c3.123,2.721,3.449,7.458,0.728,10.582C412.526,426.137,406.117,429.056,399.376,429.056z"/>
</g>
<circle style="fill:#F8E47C;" cx="399.38" cy="90.44" r="90.44"/>
<g>
	<ellipse style="fill:#E38892;" cx="341.72" cy="101.58" rx="21.272" ry="16.94"/>
	<ellipse style="fill:#E38892;" cx="457.03" cy="101.58" rx="21.272" ry="16.94"/>
</g>
<g>
	<path style="fill:#495059;" d="M354.121,92.175c-4.143,0-7.5-3.358-7.5-7.5v-7.512c0-4.142,3.357-7.5,7.5-7.5s7.5,3.358,7.5,7.5
		v7.512C361.621,88.817,358.264,92.175,354.121,92.175z"/>
	<path style="fill:#495059;" d="M444.63,92.175c-4.143,0-7.5-3.358-7.5-7.5v-7.512c0-4.142,3.357-7.5,7.5-7.5s7.5,3.358,7.5,7.5
		v7.512C452.13,88.817,448.772,92.175,444.63,92.175z"/>
	<path style="fill:#495059;" d="M399.376,97.944c-6.74,0-13.15-2.919-17.586-8.008c-2.722-3.122-2.396-7.86,0.727-10.582
		c3.122-2.721,7.859-2.396,10.582,0.727c1.586,1.82,3.874,2.863,6.277,2.863s4.691-1.043,6.275-2.862
		c2.722-3.124,7.46-3.449,10.582-0.728c3.123,2.721,3.449,7.458,0.729,10.582C412.527,95.025,406.117,97.944,399.376,97.944z"/>
</g>
<path style="opacity:0.15;fill:#254A74;enable-background:new    ;" d="M77.636,172.578C45.061,186.257,22.18,218.454,22.18,256
	c0,49.951,40.493,90.444,90.444,90.444c27.146,0,51.48-11.976,68.059-30.913C37.274,332.406,29.868,222.944,77.636,172.578z"/>
<path style="opacity:0.15;fill:#8C6023;enable-background:new    ;" d="M364.388,7.022c-32.576,13.679-55.456,45.876-55.456,83.422
	c0,49.951,40.493,90.444,90.444,90.444c27.146,0,51.48-11.976,68.059-30.913C324.025,166.85,316.62,57.388,364.388,7.022z"/>
<path style="opacity:0.15;fill:#812B2F;enable-background:new    ;" d="M364.388,338.134
	c-32.576,13.679-55.456,45.876-55.456,83.422c0,49.951,40.493,90.444,90.444,90.444c27.146,0,51.48-11.976,68.059-30.913
	C324.025,497.962,316.62,388.5,364.388,338.134z"/>
<g>
</g>
<g>
</g>
<g>
</g>
<g>
</g>
<g>
</g>
<g>
</g>
<g>
</g>
<g>
</g>
<g>
</g>
<g>
</g>
<g>
</g>
<g>
</g>
<g>
</g>
<g>
</g>
<g>
</g>
</svg>
