<?xml version="1.0" encoding="iso-8859-1"?>
<!-- Generator: Adobe Illustrator 19.0.0, SVG Export Plug-In . SVG Version: 6.00 Build 0)  -->
<svg version="1.1" id="Capa_1" xmlns="http://www.w3.org/2000/svg" xmlns:xlink="http://www.w3.org/1999/xlink" x="0px" y="0px"
	 viewBox="0 0 512 512" style="enable-background:new 0 0 512 512;" xml:space="preserve">
<path style="fill:#F0F2FF;" d="M446.059,404.227c35.252-42.508,56.519-97.031,56.734-156.519
	C503.284,112.073,391.63-0.003,255.994,0C120.289,0.003,10.168,109.536,9.212,245.016c-0.956,135.482,108.728,247.17,244.207,248.56
	c22.49,0.231,44.291-2.557,65.032-7.971c11.703-3.055,24.115-1.465,34.579,4.603c14.707,8.529,31.604,15.943,48.579,20.855
	c17.868,5.171,34.142-11.933,28.471-29.648c-4.517-14.112-3.498-28.25-1.009-41.512C431.539,426.747,437.514,414.53,446.059,404.227
	z"/>
<path style="fill:#DBE1FF;" d="M430.08,481.414c-4.517-14.112-3.498-28.25-1.009-41.513c2.469-13.155,8.444-25.372,16.988-35.674
	c14.543-17.536,26.698-37.121,35.984-58.252C291.087,444.269,60.422,267.427,179.197,12.203
	C81.039,44.319,9.979,136.307,9.212,245.016c-0.956,135.482,108.728,247.17,244.207,248.56c22.49,0.231,44.291-2.557,65.032-7.971
	c11.703-3.055,24.115-1.465,34.579,4.603c14.707,8.529,31.603,15.943,48.579,20.855C419.477,516.233,435.75,499.13,430.08,481.414z"
	/>
<g>
	<path style="fill:#7F9AE6;" d="M292.673,345.866V189.738c0-13.351-13.645-22.358-25.921-17.111l0,0
		c-13.597,5.812-28.119,9.162-42.888,9.895l-24.353,1.208c-5.693,0.283-10.164,4.981-10.164,10.681v15.233
		c0,5.906,4.788,10.695,10.694,10.695h21.369c4.895,0,8.863,3.968,8.863,8.863v116.663h-21.877c-10.52,0-19.049,8.529-19.049,19.049
		v7.756c0,10.521,8.528,19.049,19.049,19.049h106.155c10.52,0,19.049-8.529,19.049-19.049v-7.756
		c0-10.52-8.529-19.049-19.049-19.049L292.673,345.866L292.673,345.866z"/>
	<circle style="fill:#7F9AE6;" cx="261.47" cy="105.07" r="31.2"/>
</g>
<g>
</g>
<g>
</g>
<g>
</g>
<g>
</g>
<g>
</g>
<g>
</g>
<g>
</g>
<g>
</g>
<g>
</g>
<g>
</g>
<g>
</g>
<g>
</g>
<g>
</g>
<g>
</g>
<g>
</g>
</svg>
