<?xml version="1.0" encoding="iso-8859-1"?>
<!-- Generator: Adobe Illustrator 19.0.0, SVG Export Plug-In . SVG Version: 6.00 Build 0)  -->
<svg version="1.1" id="Capa_1" xmlns="http://www.w3.org/2000/svg" xmlns:xlink="http://www.w3.org/1999/xlink" x="0px" y="0px"
	 viewBox="0 0 512 512" style="enable-background:new 0 0 512 512;" xml:space="preserve">
<path style="fill:#E38892;" d="M433.98,397.879L82.69,459.821c-15.603,2.751-30.481-7.667-33.232-23.27L0.442,158.566
	c-2.751-15.603,7.667-30.481,23.27-33.233l414.879-73.154c15.603-2.751,30.481,7.667,33.233,23.27l37.804,214.396
	C518.57,340.567,484.702,388.935,433.98,397.879z"/>
<path id="SVGCleanerId_0" style="fill:#FFFFFF;" d="M87.466,400.559L48.468,179.388c-1.328-7.533,3.702-14.717,11.235-16.046
	l358.066-63.137c7.533-1.328,14.717,3.702,16.046,11.235l38.998,221.171c1.328,7.533-3.702,14.717-11.235,16.046l-358.066,63.137
	C95.978,413.123,88.795,408.093,87.466,400.559z"/>
<g>
	<path id="SVGCleanerId_0_1_" style="fill:#FFFFFF;" d="M87.466,400.559L48.468,179.388c-1.328-7.533,3.702-14.717,11.235-16.046
		l358.066-63.137c7.533-1.328,14.717,3.702,16.046,11.235l38.998,221.171c1.328,7.533-3.702,14.717-11.235,16.046l-358.066,63.137
		C95.978,413.123,88.795,408.093,87.466,400.559z"/>
</g>
<path style="fill:#5B9675;" d="M461.578,348.658c7.533-1.328,12.564-8.512,11.235-16.046l-18.007-102.125l-73.404-51.398
	c-17.411-12.191-41.409-7.96-53.6,9.451L181.05,398.122L461.578,348.658z"/>
<path style="fill:#72CDA2;" d="M101.459,411.985c0.679-0.018,1.363-0.069,2.052-0.19l244.755-43.157l-125.332-87.759
	c-10.997-7.7-26.153-5.027-33.853,5.969L101.459,411.985z"/>
<circle style="fill:#F8E47C;" cx="148.531" cy="220.39" r="38.463"/>
<path style="opacity:0.15;fill:#812B2F;enable-background:new    ;" d="M421.882,327.39
	c-85.648,66.588-150.47,79.873-198.271,63.228l-120.099,21.177c-0.001,0-0.001,0-0.002,0c-0.371,0.065-0.74,0.108-1.108,0.138
	c-7.117,0.676-13.673-4.212-14.936-11.374L48.468,179.388c-1.328-7.533,3.702-14.717,11.235-16.046l49.072-8.653
	c-0.002-16.39,1.107-31.64,3.204-44.92l-88.268,15.564c-15.603,2.751-26.021,17.63-23.27,33.233l49.016,277.985
	c2.751,15.603,17.63,26.021,33.233,23.27l351.289-61.942c27.552-4.858,50.127-21.352,63.573-43.534L421.882,327.39z"/>
<path style="opacity:0.15;fill:#2C6245;enable-background:new    ;" d="M223.611,390.618c-28.316-9.86-50.657-30.222-67.81-56.24
	l-54.341,77.607c0.679-0.018,1.363-0.069,2.052-0.19L223.611,390.618z"/>
<path style="fill:#F0F2FF;" d="M509.103,286.876l-23.796,7.587c-14.919,4.757-30.41,7.488-46.057,8.121l0,0
	c-12.558,0.508-21.187,12.831-17.369,24.805l0,0c4.757,14.919,7.488,30.41,8.121,46.057l1.009,24.956l8.828-1.557
	c47.486-8.373,79.193-53.655,70.82-101.141L509.103,286.876z"/>
<path style="opacity:0.15;fill:#8C6023;enable-background:new    ;" d="M429.265,305.894c-6.618,4.548-10.059,13.104-7.383,21.495
	l0,0c4.757,14.919,7.488,30.41,8.121,46.057l1.009,24.956l8.828-1.557c29.622-5.223,53.101-24.811,64.544-50.335
	C466.75,365.418,428.565,337.414,429.265,305.894z"/>
<g>
</g>
<g>
</g>
<g>
</g>
<g>
</g>
<g>
</g>
<g>
</g>
<g>
</g>
<g>
</g>
<g>
</g>
<g>
</g>
<g>
</g>
<g>
</g>
<g>
</g>
<g>
</g>
<g>
</g>
</svg>
