<?xml version="1.0" encoding="iso-8859-1"?>
<!-- Generator: Adobe Illustrator 19.0.0, SVG Export Plug-In . SVG Version: 6.00 Build 0)  -->
<svg version="1.1" id="Capa_1" xmlns="http://www.w3.org/2000/svg" xmlns:xlink="http://www.w3.org/1999/xlink" x="0px" y="0px"
	 viewBox="0 0 511.999 511.999" style="enable-background:new 0 0 511.999 511.999;" xml:space="preserve">
<g>
	<g>
		<path id="SVGCleanerId_0" style="fill:#72CDA2;" d="M471.239,372.174l-377.762,66.61c-26.824,4.73-52.402-13.181-57.132-40.004
			L0.758,196.958c-4.73-26.824,13.181-52.402,40.004-57.132l377.762-66.61c26.823-4.73,52.402,13.181,57.132,40.004l35.586,201.821
			C515.973,341.865,498.063,367.444,471.239,372.174z"/>
	</g>
	<g>
		<path id="SVGCleanerId_0_1_" style="fill:#72CDA2;" d="M471.239,372.174l-377.762,66.61c-26.824,4.73-52.402-13.181-57.132-40.004
			L0.758,196.958c-4.73-26.824,13.181-52.402,40.004-57.132l377.762-66.61c26.823-4.73,52.402,13.181,57.132,40.004l35.586,201.821
			C515.973,341.865,498.063,367.444,471.239,372.174z"/>
	</g>
</g>
<g>
	<path id="SVGCleanerId_0_2_" style="fill:#7F9AE6;" d="M471.239,372.174l-377.762,66.61c-26.824,4.73-52.402-13.181-57.132-40.004
		L0.758,196.958c-4.73-26.824,13.181-52.402,40.004-57.132l377.762-66.61c26.823-4.73,52.402,13.181,57.132,40.004l35.586,201.821
		C515.973,341.865,498.063,367.444,471.239,372.174z"/>
</g>
<path style="fill:#6B7BAB;" d="M93.477,438.784l377.762-66.61c18.592-3.278,32.894-16.576,38.351-33.359L295.646,206.893
	l-93.694,16.521L46.029,420.553C56.897,434.458,74.885,442.062,93.477,438.784z"/>
<path style="fill:#BBE0F1;" d="M281.344,278.891L464.297,89.41c-10.986-12.602-28.108-19.308-45.772-16.194l-377.762,66.61
	c-17.664,3.115-31.46,15.273-37.473,30.872l236.726,115.48C253.916,292.959,270.601,290.017,281.344,278.891z"/>
<g>
	
		<ellipse transform="matrix(-0.1736 -0.9848 0.9848 -0.1736 -12.7963 387.3427)" style="fill:#E38892;" cx="156.119" cy="199.04" rx="25.992" ry="32.638"/>
	
		<ellipse transform="matrix(0.1736 0.9848 -0.9848 0.1736 438.7628 -186.2755)" style="fill:#E38892;" cx="330.373" cy="168.299" rx="25.992" ry="32.638"/>
</g>
<g>
	<path style="fill:#495059;" d="M154.647,178.072c-3.571,0-6.735-2.56-7.377-6.199c-1.068-6.06,0.287-12.172,3.816-17.213
		c3.529-5.04,8.809-8.404,14.869-9.473c6.058-1.066,12.172,0.287,17.213,3.816c5.04,3.529,8.404,8.81,9.473,14.87
		c0.719,4.079-2.005,7.969-6.084,8.688c-4.079,0.72-7.969-2.005-8.688-6.084c-0.373-2.114-1.546-3.956-3.304-5.187
		s-3.891-1.706-6.004-1.331c-2.113,0.372-3.956,1.546-5.187,3.305c-1.231,1.758-1.704,3.89-1.331,6.003
		c0.719,4.079-2.004,7.969-6.083,8.689C155.519,178.034,155.08,178.072,154.647,178.072z"/>
	<path style="fill:#495059;" d="M291.408,153.957c-3.571,0-6.736-2.561-7.377-6.199c-2.205-12.509,6.177-24.48,18.685-26.686
		c6.059-1.069,12.171,0.287,17.212,3.816c5.041,3.529,8.405,8.81,9.473,14.87c0.719,4.079-2.005,7.969-6.084,8.688
		c-4.081,0.72-7.969-2.005-8.689-6.084c-0.372-2.114-1.546-3.956-3.304-5.187c-1.758-1.23-3.892-1.703-6.004-1.331
		c-4.364,0.769-7.288,4.945-6.518,9.309c0.719,4.079-2.005,7.969-6.084,8.689C292.278,153.92,291.84,153.957,291.408,153.957z"/>
	<path style="fill:#495059;" d="M239.003,188.922c-6.663,0-13.186-2.272-18.456-6.529c-3.222-2.603-3.724-7.325-1.122-10.547
		c2.603-3.223,7.325-3.725,10.547-1.122c3.236,2.614,7.436,3.7,11.517,2.98c4.083-0.72,7.656-3.176,9.804-6.74
		c2.138-3.548,6.747-4.691,10.295-2.553s4.69,6.747,2.553,10.295c-4.386,7.278-11.693,12.297-20.047,13.77
		C242.401,188.775,240.697,188.922,239.003,188.922z"/>
</g>
<path style="opacity:0.15;fill:#2C6245;enable-background:new    ;" d="M428.115,72.476c-0.876-0.017-1.757-0.008-2.641,0.022
	C426.358,72.468,427.238,72.459,428.115,72.476z"/>
<path style="opacity:0.15;fill:#254A74;enable-background:new    ;" d="M511.87,327.149
	c-79.391,14.019-154.452,24.057-219.095,1.408c-7.017-2.459-8.913-11.333-3.723-16.658c0.043-0.044,0.086-0.089,0.129-0.133
	L476.464,117.8l-0.807-4.579c-1.615-9.159-5.664-17.276-11.36-23.811L281.344,278.891c-10.742,11.126-27.428,14.068-41.328,7.287
	L176.513,255.2c-32.874-36.671-49.194-81.852-41.241-132.039l-94.508,16.664c-26.823,4.73-44.734,30.309-40.004,57.132
	l35.587,201.821c4.73,26.823,30.309,44.734,57.132,40.004l377.762-66.61C493.974,368.165,510.3,349.177,511.87,327.149z"/>
<g>
	<path style="opacity:0.15;fill:#2C6245;enable-background:new    ;" d="M434.273,72.994c-0.715-0.105-1.433-0.194-2.155-0.267
		C432.84,72.8,433.558,72.889,434.273,72.994z"/>
	<path style="opacity:0.15;fill:#2C6245;enable-background:new    ;" d="M424.57,72.542c-0.722,0.038-1.445,0.092-2.171,0.162
		C423.124,72.634,423.848,72.579,424.57,72.542z"/>
	<path style="opacity:0.15;fill:#2C6245;enable-background:new    ;" d="M431.327,72.645c-0.966-0.083-1.936-0.143-2.913-0.169
		C429.391,72.502,430.361,72.563,431.327,72.645z"/>
	<path style="opacity:0.15;fill:#2C6245;enable-background:new    ;" d="M455.093,81.198c0.807,0.557,1.599,1.137,2.373,1.741
		C456.693,82.335,455.901,81.755,455.093,81.198z"/>
	<path style="opacity:0.15;fill:#2C6245;enable-background:new    ;" d="M437.551,73.587c-0.803-0.174-1.612-0.329-2.427-0.463
		C435.938,73.259,436.748,73.412,437.551,73.587z"/>
	<path style="opacity:0.15;fill:#2C6245;enable-background:new    ;" d="M421.51,72.792c-0.993,0.114-1.988,0.248-2.985,0.424
		C419.522,73.04,420.517,72.906,421.51,72.792z"/>
	<path style="opacity:0.15;fill:#2C6245;enable-background:new    ;" d="M454.711,80.944c-0.668-0.452-1.347-0.887-2.037-1.306
		C453.364,80.057,454.043,80.492,454.711,80.944z"/>
	<path style="opacity:0.15;fill:#2C6245;enable-background:new    ;" d="M461.917,86.881c-0.573-0.571-1.159-1.126-1.758-1.667
		C460.758,85.754,461.344,86.31,461.917,86.881z"/>
	<path style="opacity:0.15;fill:#2C6245;enable-background:new    ;" d="M459.673,84.778c-0.66-0.581-1.333-1.145-2.023-1.689
		C458.339,83.633,459.012,84.197,459.673,84.778z"/>
	<path style="opacity:0.15;fill:#2C6245;enable-background:new    ;" d="M440.749,74.392c-0.924-0.267-1.856-0.511-2.799-0.724
		C438.892,73.882,439.825,74.125,440.749,74.392z"/>
	<path style="opacity:0.15;fill:#2C6245;enable-background:new    ;" d="M464.297,89.41c-0.654-0.75-1.332-1.475-2.028-2.183
		C462.965,87.935,463.643,88.66,464.297,89.41z"/>
	<path style="opacity:0.15;fill:#2C6245;enable-background:new    ;" d="M452.066,79.273c-0.698-0.41-1.405-0.804-2.122-1.18
		C450.661,78.469,451.368,78.863,452.066,79.273z"/>
	<path style="opacity:0.15;fill:#2C6245;enable-background:new    ;" d="M449.54,77.878c-0.862-0.442-1.737-0.859-2.625-1.25
		C447.803,77.019,448.678,77.436,449.54,77.878z"/>
	<path style="opacity:0.15;fill:#2C6245;enable-background:new    ;" d="M443.517,75.289c-0.709-0.251-1.425-0.486-2.148-0.705
		C442.092,74.803,442.808,75.037,443.517,75.289z"/>
	<path style="opacity:0.15;fill:#2C6245;enable-background:new    ;" d="M446.506,76.457c-0.74-0.318-1.488-0.617-2.244-0.899
		C445.018,75.84,445.766,76.139,446.506,76.457z"/>
</g>
<g>
</g>
<g>
</g>
<g>
</g>
<g>
</g>
<g>
</g>
<g>
</g>
<g>
</g>
<g>
</g>
<g>
</g>
<g>
</g>
<g>
</g>
<g>
</g>
<g>
</g>
<g>
</g>
<g>
</g>
</svg>
