<?xml version="1.0" encoding="iso-8859-1"?>
<!-- Generator: Adobe Illustrator 19.0.0, SVG Export Plug-In . SVG Version: 6.00 Build 0)  -->
<svg version="1.1" id="Capa_1" xmlns="http://www.w3.org/2000/svg" xmlns:xlink="http://www.w3.org/1999/xlink" x="0px" y="0px"
	 viewBox="0 0 512 512" style="enable-background:new 0 0 512 512;" xml:space="preserve">
<path style="fill:#72CDA2;" d="M278.662,328.004H132.521c-59.57,0-111.393,40.787-125.393,98.688l-6.536,27.033
	c-3.163,13.084,6.749,25.679,20.21,25.679H390.38c13.461,0,23.374-12.595,20.21-25.679l-6.536-27.033
	C390.055,368.79,338.231,328.004,278.662,328.004z"/>
<polygon style="fill:#F0F2FF;" points="277.422,328.003 133.761,328.003 172.713,479.404 238.47,479.404 "/>
<path style="fill:#DBE1FF;" d="M244.261,456.739c-26.806-16.248-51.401-36.7-71.375-58.333c-3.841-4.16-0.174-10.782,5.409-9.838
	c8.875,1.5,17.994,2.281,27.296,2.281c20.584,0,40.274-3.824,58.4-10.799l14.575-51.85h-145.95l40.14,151.203h65.671
	L244.261,456.739z"/>
<circle style="fill:#F8E47C;" cx="205.59" cy="195.476" r="162.88"/>
<g>
	<ellipse style="fill:#E38892;" cx="109.66" cy="225.736" rx="35.398" ry="28.19"/>
	<ellipse style="fill:#E38892;" cx="301.53" cy="225.736" rx="35.398" ry="28.19"/>
</g>
<g>
	<path style="fill:#495059;" d="M115.573,199.953c-4.142,0-7.5-3.358-7.5-7.5v-15.194c0-4.142,3.358-7.5,7.5-7.5s7.5,3.358,7.5,7.5
		v15.194C123.073,196.595,119.715,199.953,115.573,199.953z"/>
	<path style="fill:#495059;" d="M205.591,229.725L205.591,229.725c-14.164,0-25.646-11.482-25.646-25.646v-18.645
		c0-3.867,3.134-7.001,7.001-7.001h37.291c3.867,0,7.001,3.135,7.001,7.001v18.645C231.238,218.243,219.755,229.725,205.591,229.725
		z"/>
	<path style="fill:#495059;" d="M295.609,199.953c-4.142,0-7.5-3.358-7.5-7.5v-15.194c0-4.142,3.358-7.5,7.5-7.5s7.5,3.358,7.5,7.5
		v15.194C303.109,196.595,299.751,199.953,295.609,199.953z"/>
</g>
<path style="opacity:0.15;fill:#C97B00;enable-background:new    ;" d="M319.685,311.707
	C49.402,358.358,45.673,125.193,143.452,44.872c-59.13,24.425-100.745,82.648-100.745,150.6
	c0,89.959,72.926,162.885,162.885,162.885C250.026,358.358,290.298,340.557,319.685,311.707z"/>
<circle style="fill:#7F9AE6;" cx="428.56" cy="384.926" r="83.44"/>
<g>
	<path style="fill:#FFFFFF;" d="M428.565,431.949c-4.142,0-7.5-3.358-7.5-7.5v-79.046c0-4.142,3.358-7.5,7.5-7.5s7.5,3.358,7.5,7.5
		v79.046C436.065,428.591,432.707,431.949,428.565,431.949z"/>
	<path style="fill:#FFFFFF;" d="M468.088,392.425h-79.046c-4.142,0-7.5-3.358-7.5-7.5s3.358-7.5,7.5-7.5h79.046
		c4.142,0,7.5,3.358,7.5,7.5C475.588,389.067,472.23,392.425,468.088,392.425z"/>
</g>
<path style="opacity:0.15;fill:#254A74;enable-background:new    ;" d="M407.15,304.277c-35.701,9.456-62.02,41.973-62.02,80.648
	c0,46.08,37.355,83.435,83.435,83.435c28.468,0,53.592-14.268,68.649-36.032C382.197,453.743,372.912,347.309,407.15,304.277z"/>
<g>
</g>
<g>
</g>
<g>
</g>
<g>
</g>
<g>
</g>
<g>
</g>
<g>
</g>
<g>
</g>
<g>
</g>
<g>
</g>
<g>
</g>
<g>
</g>
<g>
</g>
<g>
</g>
<g>
</g>
</svg>
