<?xml version="1.0" encoding="iso-8859-1"?>
<!-- Generator: Adobe Illustrator 19.0.0, SVG Export Plug-In . SVG Version: 6.00 Build 0)  -->
<svg version="1.1" id="Capa_1" xmlns="http://www.w3.org/2000/svg" xmlns:xlink="http://www.w3.org/1999/xlink" x="0px" y="0px"
	 viewBox="0 0 512.001 512.001" style="enable-background:new 0 0 512.001 512.001;" xml:space="preserve">
<path style="fill:#BBE0F1;" d="M496.078,302.586c12.214-13.449,13.193-33.665,2.335-48.23l-5.295-7.103
	c-2.188-2.935-1.99-7.007,0.47-9.717l8.549-9.413c12.214-13.449,13.193-33.665,2.335-48.23l0,0
	c-5.701-7.649-14.681-12.155-24.221-12.155h-74.465c4.721-13.866,6.333-41.126,6.333-74.983V74.007
	c0-27.796-22.533-50.329-50.329-50.329l0,0c-27.796,0-50.329,22.533-50.329,50.329v18.748c0,17.896-4.371,74.983-54.65,74.983
	h-73.417v297.85h278.682c9.54,0,18.52-4.506,24.221-12.155l1.773-2.378c10.039-13.467,10.039-31.929,0-45.396l-7.07-9.481
	c-2.188-2.935-1.99-7.007,0.47-9.717l8.549-9.413c12.214-13.449,13.193-33.665,2.335-48.23l-5.295-7.103
	c-2.188-2.935-1.99-7.007,0.47-9.717L496.078,302.586z"/>
<path style="opacity:0.15;fill:#254A74;enable-background:new    ;" d="M486.295,453.434l1.773-2.378
	c4.688-6.289,7.158-13.669,7.467-21.119c-205.826,37.311-229.449-162.29-232.128-262.587c-2.116,0.231-4.293,0.389-6.598,0.389
	h-73.417v297.85h278.682C471.614,465.588,480.593,461.082,486.295,453.434z"/>
<path style="fill:#7F9AE6;" d="M200.537,488.324H58.73c-19.54,0-35.794-15.025-37.328-34.504L0.113,183.49
	c-1.634-20.748,14.762-38.487,35.575-38.487h164.85c11.644,0,21.083,9.439,21.083,21.084V467.24
	C221.62,478.884,212.181,488.324,200.537,488.324z"/>
<circle style="fill:#F0F2FF;" cx="142.1" cy="420.131" r="25.04"/>
<path style="opacity:0.15;fill:#254A74;enable-background:new    ;" d="M21.402,453.82c1.534,19.479,17.789,34.504,37.328,34.504
	h141.807c11.644,0,21.084-9.439,21.084-21.083v-31.672C71.709,468.905,58.757,270.702,57.994,145.003H35.687
	c-20.813,0-37.209,17.738-35.575,38.487L21.402,453.82z"/>
<g>
</g>
<g>
</g>
<g>
</g>
<g>
</g>
<g>
</g>
<g>
</g>
<g>
</g>
<g>
</g>
<g>
</g>
<g>
</g>
<g>
</g>
<g>
</g>
<g>
</g>
<g>
</g>
<g>
</g>
</svg>
