<?xml version="1.0" encoding="iso-8859-1"?>
<!-- Generator: Adobe Illustrator 19.0.0, SVG Export Plug-In . SVG Version: 6.00 Build 0)  -->
<svg version="1.1" id="Capa_1" xmlns="http://www.w3.org/2000/svg" xmlns:xlink="http://www.w3.org/1999/xlink" x="0px" y="0px"
	 viewBox="0 0 512.001 512.001" style="enable-background:new 0 0 512.001 512.001;" xml:space="preserve">
<path style="fill:#F0F2FF;" d="M410.45,349.777c56.531,0,102.273-46.192,101.542-102.892c-0.701-54.291-44.662-98.816-98.94-100.176
	c-6.466-0.162-12.799,0.282-18.947,1.278c-10.605,1.718-20.694-5.326-22.944-15.831c-11.427-53.368-58.858-93.383-115.638-93.383
	c-48.59,0-90.333,29.304-108.527,71.202c-3.562,8.203-11.952,13.238-20.846,12.298c-4.439-0.469-8.954-0.683-13.531-0.626
	C49.853,122.432-0.87,174.577,0.011,237.342c0.874,62.245,51.605,112.435,114.058,112.435H410.45z"/>
<path style="fill:#DBE1FF;" d="M460.233,336.749c-229.638,5.223-320.845-139.208-243.565-291.443
	c-31.273,10.875-56.575,34.507-69.672,64.668c-3.562,8.203-11.952,13.238-20.846,12.298c-4.439-0.469-8.954-0.683-13.531-0.626
	C49.853,122.432-0.87,174.577,0.011,237.342c0.874,62.245,51.605,112.435,114.058,112.435h296.38
	C428.54,349.777,445.521,345.041,460.233,336.749z"/>
<g>
	<ellipse style="fill:#E38892;" cx="181.82" cy="166.131" rx="27.19" ry="21.655"/>
	<ellipse style="fill:#E38892;" cx="329.22" cy="166.131" rx="27.19" ry="21.655"/>
</g>
<g>
	<path style="fill:#495059;" d="M197.673,152.034c-4.143,0-7.5-3.358-7.5-7.5v-9.603c0-4.142,3.357-7.5,7.5-7.5
		c4.142,0,7.5,3.358,7.5,7.5v9.603C205.173,148.676,201.815,152.034,197.673,152.034z"/>
	<path style="fill:#495059;" d="M313.372,152.034c-4.143,0-7.5-3.358-7.5-7.5v-9.603c0-4.142,3.357-7.5,7.5-7.5
		c4.142,0,7.5,3.358,7.5,7.5v9.603C320.872,148.676,317.515,152.034,313.372,152.034z"/>
	<path style="fill:#495059;" d="M255.523,159.408c-8.014,0-15.634-3.47-20.906-9.521c-2.722-3.123-2.396-7.86,0.728-10.582
		c3.122-2.721,7.86-2.396,10.581,0.727c2.423,2.781,5.921,4.376,9.598,4.376c3.676,0,7.174-1.595,9.597-4.376
		c2.72-3.123,7.459-3.449,10.581-0.727c3.123,2.721,3.449,7.459,0.728,10.582C271.155,155.938,263.536,159.408,255.523,159.408z"/>
</g>
<path style="fill:#7F9AE6;" d="M203.946,207.419l-54.417,52.747c-6.08,5.893-1.908,16.191,6.559,16.191h17.849v103.97
	c0,10.822,8.773,19.595,19.595,19.595h61.99V276.357h17.849c8.467,0,12.639-10.298,6.559-16.191l-54.417-52.747
	C219.504,201.594,209.955,201.594,203.946,207.419z"/>
<path style="fill:#BBE0F1;" d="M307.098,468.86l54.417-52.747c6.08-5.893,1.908-16.191-6.559-16.191h-17.849v-103.97
	c0-10.822-8.773-19.595-19.595-19.595h-61.99v123.565h-17.849c-8.467,0-12.639,10.298-6.559,16.191l54.417,52.747
	C291.54,474.685,301.089,474.685,307.098,468.86z"/>
<g>
	<path style="opacity:0.15;fill:#254A74;enable-background:new    ;" d="M193.532,399.922h61.99V378.79
		c-59.905-8.711-74.931-101.886-61.742-161.516l-44.251,42.893c-6.08,5.893-1.908,16.191,6.559,16.191h17.849v103.97
		C173.937,391.149,182.71,399.922,193.532,399.922z"/>
	<path style="opacity:0.15;fill:#254A74;enable-background:new    ;" d="M307.098,468.86l22.091-21.413
		c-63.874-18.335-50.874-125.272-44.421-171.09h-29.246v123.565h-17.85c-8.467,0-12.639,10.298-6.559,16.191l54.417,52.747
		C291.54,474.685,301.089,474.685,307.098,468.86z"/>
</g>
<g>
</g>
<g>
</g>
<g>
</g>
<g>
</g>
<g>
</g>
<g>
</g>
<g>
</g>
<g>
</g>
<g>
</g>
<g>
</g>
<g>
</g>
<g>
</g>
<g>
</g>
<g>
</g>
<g>
</g>
</svg>
