<?xml version="1.0" encoding="iso-8859-1"?>
<!-- Generator: Adobe Illustrator 19.0.0, SVG Export Plug-In . SVG Version: 6.00 Build 0)  -->
<svg version="1.1" id="Capa_1" xmlns="http://www.w3.org/2000/svg" xmlns:xlink="http://www.w3.org/1999/xlink" x="0px" y="0px"
	 viewBox="0 0 512 512" style="enable-background:new 0 0 512 512;" xml:space="preserve">
<path style="fill:#72CDA2;" d="M313.55,226.379c176.104,0,198.45,46.772,198.45,104.468c0,25.193-4.272,48.298-23.736,66.34
	c-7.553,7.001-11.512,17.151-10.347,27.383c1.001,8.79,3.472,15.961,7.683,23.529c3.642,6.546-1.753,14.53-9.16,13.406
	c-22.644-3.438-43.215-12.808-59.094-25.392c-5.665-4.49-12.899-6.451-20.065-5.502c-23.079,3.056-50.696,4.704-83.731,4.704
	c-176.105,0-198.45-46.772-198.45-104.468C115.099,273.151,137.445,226.379,313.55,226.379z"/>
<g>
	<ellipse style="fill:#FFFFFF;" cx="232.3" cy="350.661" rx="29.998" ry="23.889"/>
	<ellipse style="fill:#FFFFFF;" cx="394.9" cy="350.661" rx="29.998" ry="23.889"/>
</g>
<g>
	<path style="fill:#495059;" d="M264.06,332.167c-4.142,0-7.5-3.358-7.5-7.5c0-3.738-3.041-6.778-6.779-6.778
		s-6.778,3.041-6.778,6.778c0,4.142-3.358,7.5-7.5,7.5s-7.5-3.358-7.5-7.5c0-12.009,9.77-21.778,21.778-21.778
		c12.009,0,21.779,9.77,21.779,21.778C271.56,328.809,268.203,332.167,264.06,332.167z"/>
	<path style="fill:#495059;" d="M391.696,332.167c-4.143,0-7.5-3.358-7.5-7.5c0-3.738-3.041-6.778-6.778-6.778
		c-3.738,0-6.779,3.041-6.779,6.778c0,4.142-3.357,7.5-7.5,7.5s-7.5-3.358-7.5-7.5c0-12.009,9.771-21.778,21.779-21.778
		c12.009,0,21.778,9.77,21.778,21.778C399.196,328.809,395.839,332.167,391.696,332.167z"/>
	<path style="fill:#495059;" d="M313.6,355.756c-7.973,0-15.554-3.453-20.8-9.473c-2.722-3.123-2.395-7.86,0.727-10.581
		c3.124-2.721,7.859-2.397,10.582,0.727c2.397,2.751,5.856,4.328,9.491,4.328c3.636,0,7.096-1.577,9.492-4.328
		c2.721-3.124,7.457-3.448,10.582-0.727c3.122,2.721,3.448,7.458,0.727,10.581C329.154,352.304,321.572,355.756,313.6,355.756z"/>
</g>
<path style="opacity:0.15;fill:#2C6245;enable-background:new    ;" d="M263.486,330.204c-12.023-16.614-0.197-39.856,20.311-39.856
	h77.696c32.04,0,58.513-23.769,62.788-54.633c-27.607-5.995-63.676-9.337-110.731-9.337c-176.105,0-198.45,46.772-198.45,104.468
	s22.346,104.468,198.45,104.468c33.035,0,60.652-1.648,83.732-4.704c7.166-0.949,14.4,1.012,20.065,5.502
	c15.879,12.584,36.45,21.955,59.093,25.392c7.406,1.124,12.802-6.86,9.16-13.406c-4.211-7.568-6.682-14.738-7.683-23.526
	c-1.162-10.208,2.755-20.361,10.296-27.339c8.35-7.726,13.903-16.383,17.531-25.735
	C366.523,395.373,293.089,371.113,263.486,330.204z"/>
<path style="fill:#F0F2FF;" d="M0.355,285.34L0.355,285.34c6.874-31.138,10.341-62.932,10.341-94.819v-76.726
	c0-35.018,28.388-63.406,63.406-63.406h287.392c35.018,0,63.406,28.388,63.406,63.406v74.223c0,35.018-28.388,63.406-63.406,63.406
	H98.145c-11.146,0-21.647,5.224-28.37,14.114l0,0c-12.819,16.95-30.382,29.714-50.462,36.674l0,0
	C8.571,305.935-2.096,296.443,0.355,285.34z"/>
<path style="fill:#DBE1FF;" d="M417.515,217.717c-249.45,25.976-300.495-99.01-294.993-167.328h-48.42
	c-35.018,0-63.406,28.388-63.406,63.406v76.726c0,31.888-3.467,63.681-10.341,94.819c-2.451,11.102,8.216,20.595,18.958,16.871
	c20.08-6.96,37.643-19.724,50.462-36.674l0,0c6.723-8.89,17.224-14.114,28.37-14.114h263.348
	C385.778,251.424,406.864,237.765,417.515,217.717z"/>
<g>
	<path style="fill:#495059;" d="M348.962,137.05H86.633c-4.142,0-7.5-3.358-7.5-7.5c0-4.142,3.358-7.5,7.5-7.5h262.329
		c4.143,0,7.5,3.358,7.5,7.5C356.462,133.692,353.104,137.05,348.962,137.05z"/>
	<path style="fill:#495059;" d="M217.797,179.764H86.633c-4.142,0-7.5-3.358-7.5-7.5s3.358-7.5,7.5-7.5h131.164
		c4.142,0,7.5,3.358,7.5,7.5S221.939,179.764,217.797,179.764z"/>
</g>
<g>
</g>
<g>
</g>
<g>
</g>
<g>
</g>
<g>
</g>
<g>
</g>
<g>
</g>
<g>
</g>
<g>
</g>
<g>
</g>
<g>
</g>
<g>
</g>
<g>
</g>
<g>
</g>
<g>
</g>
</svg>
