<?xml version="1.0" encoding="iso-8859-1"?>
<!-- Generator: Adobe Illustrator 19.0.0, SVG Export Plug-In . SVG Version: 6.00 Build 0)  -->
<svg version="1.1" id="Capa_1" xmlns="http://www.w3.org/2000/svg" xmlns:xlink="http://www.w3.org/1999/xlink" x="0px" y="0px"
	 viewBox="0 0 512 512" style="enable-background:new 0 0 512 512;" xml:space="preserve">
<path style="fill:#72CDA2;" d="M339.73,338.513H172.27c-68.26,0-127.644,46.737-143.686,113.085l-7.49,30.977
	C17.469,497.567,28.828,512,44.253,512h423.495c15.424,0,26.783-14.433,23.159-29.425l-7.49-30.977
	C467.374,385.25,407.99,338.513,339.73,338.513z"/>
<polygon style="fill:#F0F2FF;" points="338.309,338.512 173.691,338.512 218.325,512 293.675,512 "/>
<path style="fill:#DBE1FF;" d="M300.139,486.063c-30.676-18.593-58.821-41.998-81.678-66.753c-4.396-4.761-0.199-12.338,6.19-11.259
	c10.156,1.716,20.592,2.61,31.236,2.61c23.555,0,46.088-4.375,66.83-12.358l16.679-59.334H172.378L218.312,512h75.151
	L300.139,486.063z"/>
<circle style="fill:#F8E47C;" cx="256" cy="186.65" r="186.65"/>
<g>
	<ellipse style="fill:#E38892;" cx="146.07" cy="221.33" rx="40.562" ry="32.3"/>
	<ellipse style="fill:#E38892;" cx="365.93" cy="221.33" rx="40.562" ry="32.3"/>
</g>
<g>
	<path style="fill:#495059;" d="M152.85,190.686c-4.142,0-7.5-3.358-7.5-7.5v-17.41c0-4.142,3.358-7.5,7.5-7.5s7.5,3.358,7.5,7.5
		v17.41C160.35,187.329,156.992,190.686,152.85,190.686z"/>
	<path style="fill:#495059;" d="M256,225.896L256,225.896c-16.23,0-29.388-13.157-29.388-29.388v-21.366
		c0-4.431,3.592-8.022,8.022-8.022h42.731c4.431,0,8.022,3.592,8.022,8.022v21.366C285.388,212.739,272.23,225.896,256,225.896z"/>
	<path style="fill:#495059;" d="M359.15,190.686c-4.142,0-7.5-3.358-7.5-7.5v-17.41c0-4.142,3.358-7.5,7.5-7.5s7.5,3.358,7.5,7.5
		v17.41C366.65,187.329,363.293,190.686,359.15,190.686z"/>
</g>
<path style="opacity:0.15;fill:#C97B00;enable-background:new    ;" d="M386.739,319.839
	C77.025,373.295,72.752,106.115,184.795,14.076C117.039,42.065,69.353,108.782,69.353,186.647
	c0,103.082,83.565,186.647,186.647,186.647C306.918,373.295,353.064,352.897,386.739,319.839z"/>
<g>
</g>
<g>
</g>
<g>
</g>
<g>
</g>
<g>
</g>
<g>
</g>
<g>
</g>
<g>
</g>
<g>
</g>
<g>
</g>
<g>
</g>
<g>
</g>
<g>
</g>
<g>
</g>
<g>
</g>
</svg>
