<?xml version="1.0" encoding="iso-8859-1"?>
<!-- Generator: Adobe Illustrator 19.0.0, SVG Export Plug-In . SVG Version: 6.00 Build 0)  -->
<svg version="1.1" id="Capa_1" xmlns="http://www.w3.org/2000/svg" xmlns:xlink="http://www.w3.org/1999/xlink" x="0px" y="0px"
	 viewBox="0 0 512 512" style="enable-background:new 0 0 512 512;" xml:space="preserve">
<path style="fill:#7F9AE6;" d="M367.234,512H144.768c-20.823,0-37.704-16.881-37.704-37.704V37.704
	C107.064,16.881,123.945,0,144.768,0h222.466c20.823,0,37.704,16.881,37.704,37.704v436.592
	C404.939,495.119,388.057,512,367.234,512z"/>
<rect x="107.061" y="67.6" style="fill:#BBE0F1;" width="297.87" height="355.58"/>
<path style="fill:#72CDA2;" d="M324.457,301.852v37.305c0,8.319-6.744,15.063-15.063,15.063H197.223
	c-4.843,0-9.487,1.924-12.911,5.348l-25.417,25.418c-5.19,5.19-14.063,1.514-14.063-5.825v-77.308
	c0-8.319,6.744-15.063,15.063-15.063h149.5C317.714,286.789,324.457,293.532,324.457,301.852z"/>
<g>
	<path style="fill:#FFFFFF;" d="M187.546,197.334v37.305c0,8.319,6.744,15.063,15.063,15.063H314.78
		c4.842,0,9.487,1.924,12.911,5.348l25.418,25.418c5.19,5.19,14.063,1.514,14.063-5.825v-77.308c0-8.319-6.744-15.063-15.063-15.063
		h-149.5C194.289,182.271,187.546,189.015,187.546,197.334z"/>
	<circle style="fill:#FFFFFF;" cx="256.001" cy="467.59" r="21.357"/>
</g>
<g>
	<ellipse style="fill:#E38892;" cx="192.391" cy="138.09" rx="23.472" ry="18.692"/>
	<ellipse style="fill:#E38892;" cx="319.611" cy="138.09" rx="23.472" ry="18.692"/>
</g>
<g>
	<path style="fill:#495059;" d="M206.067,126.945c-4.142,0-7.5-3.358-7.5-7.5v-8.289c0-4.142,3.358-7.5,7.5-7.5s7.5,3.358,7.5,7.5
		v8.289C213.567,123.587,210.209,126.945,206.067,126.945z"/>
	<path style="fill:#495059;" d="M305.935,126.945c-4.142,0-7.5-3.358-7.5-7.5v-8.289c0-4.142,3.358-7.5,7.5-7.5s7.5,3.358,7.5,7.5
		v8.289C313.435,123.587,310.077,126.945,305.935,126.945z"/>
	<path style="fill:#495059;" d="M256.001,133.31c-7.213,0-14.073-3.124-18.819-8.57c-2.721-3.122-2.396-7.86,0.727-10.581
		s7.86-2.396,10.581,0.727c1.897,2.176,4.634,3.425,7.51,3.425c2.876,0,5.613-1.249,7.51-3.425
		c2.721-3.123,7.459-3.448,10.581-0.727c3.123,2.721,3.448,7.459,0.727,10.581C270.074,130.186,263.215,133.31,256.001,133.31z"/>
	<path style="fill:#495059;" d="M286.611,41.301h-61.22c-4.142,0-7.5-3.358-7.5-7.5s3.358-7.5,7.5-7.5h61.221
		c4.142,0,7.5,3.358,7.5,7.5S290.754,41.301,286.611,41.301z"/>
</g>
<path style="opacity:0.15;fill:#254A74;enable-background:new    ;" d="M182.35,0h-37.581c-20.823,0-37.703,16.879-37.704,37.702
	v436.597C107.065,495.121,123.945,512,144.768,512h207.935C160.245,451.297,178.11,133.03,182.35,0z"/>
<g>
</g>
<g>
</g>
<g>
</g>
<g>
</g>
<g>
</g>
<g>
</g>
<g>
</g>
<g>
</g>
<g>
</g>
<g>
</g>
<g>
</g>
<g>
</g>
<g>
</g>
<g>
</g>
<g>
</g>
</svg>
