<svg id="Layer_1" enable-background="new 0 0 512.02 512.02" height="512" viewBox="0 0 512.02 512.02" width="512" xmlns="http://www.w3.org/2000/svg"><g><g fill="#f79caf"><path d="m496 272c-8.836 0-16-7.164-16-16 0-123.514-100.486-224-224-224-8.836 0-16-7.164-16-16s7.164-16 16-16c68.381 0 132.668 26.628 181.02 74.98s74.98 112.639 74.98 181.02c0 8.836-7.164 16-16 16z"/><path d="m432 272c-8.836 0-16-7.164-16-16 0-88.224-71.776-160-160-160-8.836 0-16-7.164-16-16s7.164-16 16-16c105.869 0 192 86.131 192 192 0 8.836-7.164 16-16 16z"/><path d="m368 272c-8.836 0-16-7.164-16-16 0-52.935-43.065-96-96-96-8.836 0-16-7.164-16-16s7.164-16 16-16c70.58 0 128 57.42 128 128 0 8.836-7.164 16-16 16z"/></g><path d="m512 256c0 8.84-7.16 16-16 16-2.92 0-5.65-.78-8-2.14 4.78-2.76 8-7.94 8-13.86 0-68.38-26.63-132.67-74.98-181.02-45.32-45.32-104.64-71.56-168.21-74.67 1.03-.2 2.1-.31 3.19-.31 68.38 0 132.67 26.63 181.02 74.98s74.98 112.64 74.98 181.02z" fill="#e3889b"/><path d="m448 256c0 8.84-7.16 16-16 16-2.92 0-5.65-.78-8-2.14 4.78-2.76 8-7.94 8-13.86 0-101.69-79.47-185.17-179.57-191.6 1.15-.26 2.34-.4 3.57-.4 105.87 0 192 86.13 192 192z" fill="#e3889b"/><path d="m384 256c0 8.84-7.16 16-16 16-2.92 0-5.65-.78-8-2.14 4.78-2.76 8-7.94 8-13.86 0-66.59-51.11-121.46-116.16-127.45 1.33-.36 2.72-.55 4.16-.55 70.58 0 128 57.42 128 128z" fill="#e3889b"/><path d="m512.02 367.6c0 24.25-5.74 47.22-17.05 68.26-10.62 19.74-26 37.02-44.5 49.98-18.42 12.91-39.8 21.43-61.81 24.66-6.9 1.01-13.8 1.52-20.67 1.52-16.53 0-32.92-2.92-48.94-8.74-70.6-25.65-136.13-67.42-189.51-120.8s-95.15-118.91-120.8-189.51c-8.24-22.68-10.67-46.1-7.22-69.61 3.23-22.01 11.75-43.39 24.66-61.81 12.96-18.5 30.24-33.88 49.98-44.5 21.04-11.31 44.01-17.05 68.26-17.05 7.55 0 14.07 5.27 15.65 12.65l25.11 117.2c1.14 5.3-.49 10.83-4.33 14.66l-42.91 42.92c40.48 80.48 106.17 146.17 186.65 186.65l42.92-42.91c3.83-3.84 9.36-5.47 14.66-4.33l117.2 25.11c7.38 1.58 12.65 8.1 12.65 15.65z" fill="#acebe2"/><path d="m107.42 37c-24.25 0-47.22 5.74-68.26 17.05-4.65 2.5-9.17 5.27-13.52 8.29.17-.27.36-.53.54-.79 12.96-18.5 30.24-33.88 49.98-44.5 21.04-11.31 44.01-17.05 68.26-17.05 7.55 0 14.07 5.27 15.65 12.65l25.11 117.2c1.14 5.3-.49 10.83-4.33 14.66l-37 37c3.84-3.83 5.47-9.36 4.33-14.66l-25.11-117.2c-1.58-7.38-8.1-12.65-15.65-12.65z" fill="#98d7ce"/><path d="m324.59 374.08-21.225 21.225c-9.624 9.624-24.492 11.512-36.292 4.727-64.399-37.025-118.06-90.687-155.086-155.086-6.784-11.8-4.897-26.668 4.727-36.292l21.225-21.225c40.481 80.481 106.171 146.171 186.651 186.651z" fill="#98d7ce"/><path d="m512.02 367.6c0 24.25-5.74 47.22-17.05 68.26-10.62 19.74-26 37.02-44.5 49.98-.26.18-.52.37-.79.54 3.02-4.35 5.79-8.87 8.29-13.52 11.31-21.04 17.05-44.01 17.05-68.26 0-7.55-5.27-14.07-12.65-15.65l-117.2-25.11c-5.3-1.14-10.83.49-14.66 4.33l37-37c3.83-3.84 9.36-5.47 14.66-4.33l117.2 25.11c7.38 1.58 12.65 8.1 12.65 15.65z" fill="#98d7ce"/></g></svg>