<svg id="Layer_1" enable-background="new 0 0 512 512" height="512" viewBox="0 0 512 512" width="512" xmlns="http://www.w3.org/2000/svg"><g><path d="m439.33 255.57c.05 15.03-5.97 29.7-16.51 40.24l-134.29 134.29c-8.97 8.97-20.75 13.45-32.53 13.45s-23.56-4.48-32.53-13.45l-134.78-134.79c-10.51-10.5-16.29-24.46-16.29-39.31 0-14.71 5.69-28.57 16.02-39.04 10.31-10.45 24.21-16.24 39.15-16.29h.19c14.96 0 29.55 6.01 40.05 16.51l32.19 32.19v-193.37c0-30.88 25.12-56 56-56s56 25.12 56 56v193.37l32.69-32.68c10.5-10.51 24.46-16.29 39.31-16.29 14.71 0 28.57 5.69 39.04 16.02 10.45 10.31 16.24 24.21 16.29 39.15z" fill="#f79caf"/><path d="m312 56v193.37l-22 22v-193.37c0-30.88-25.12-56-56-56-9.8 0-19.01 2.53-27.03 6.97 9.55-17.26 27.95-28.97 49.03-28.97 30.88 0 56 25.12 56 56z" fill="#e3889b"/><path d="m439.33 255.57c.05 15.03-5.97 29.7-16.51 40.24l-134.29 134.29c-8.97 8.97-20.75 13.45-32.53 13.45-5.3 0-10.61-.91-15.66-2.73 6.16-2.22 11.93-5.79 16.86-10.72l134.29-134.29c10.54-10.54 16.56-25.21 16.51-40.24-.05-14.94-5.84-28.84-16.29-39.15-6.65-6.56-14.66-11.25-23.39-13.79 5.03-1.47 10.3-2.23 15.68-2.23 14.71 0 28.57 5.69 39.04 16.02 10.45 10.31 16.24 24.21 16.29 39.15z" fill="#e3889b"/><g fill="#acebe2"><path d="m496 512h-24c-8.836 0-16-7.164-16-16s7.164-16 16-16h24c8.836 0 16 7.164 16 16s-7.164 16-16 16z"/><path d="m40 512h-24c-8.836 0-16-7.164-16-16s7.164-16 16-16h24c8.836 0 16 7.164 16 16s-7.164 16-16 16z"/><path d="m416 512h-320c-8.836 0-16-7.164-16-16s7.164-16 16-16h320c8.836 0 16 7.164 16 16s-7.164 16-16 16z"/></g></g></svg>