<svg id="Layer_1" enable-background="new 0 0 511.999 511.999" height="512" viewBox="0 0 511.999 511.999" width="512" xmlns="http://www.w3.org/2000/svg"><g><path d="m511.04 44.199c-.01.05-.02.11-.04.16l-4.1 16.74-94.3 385.34c-9.45 38.6-43.8 65.56-83.53 65.56h-53.07c-19.33 0-35.16-15.32-35.97-34.46l-21.75-127.82-8.15-47.85-47.85-8.15-127.82-21.75c-19.14-.81-34.46-16.64-34.46-35.97v-53.07c0-39.73 26.96-74.08 65.56-83.53l385.34-94.3 16.74-4.1c.05-.02.11-.03.16-.04 12.21-2.85 24.78.74 33.64 9.6s12.45 21.43 9.6 33.64z" fill="#e2e0e0"/><g fill="#cecccc"><path d="m409.15 457.359c-12.73 32.67-44.21 54.64-80.08 54.64h-53.07c-19.33 0-35.16-15.32-35.97-34.46l-21.75-127.82-8.15-47.85-47.85-8.15-127.82-21.75c-19.14-.81-34.46-16.64-34.46-35.97v-53.07c0-29.31 14.67-55.69 37.86-71.3-3.8 9.74-5.86 20.32-5.86 31.3v53.07c0 19.33 15.32 35.16 34.46 35.97l127.82 21.75 47.85 8.15 8.15 47.85 21.75 127.82c.81 19.14 16.64 34.46 35.97 34.46h53.07c17.67 0 34.27-5.33 48.08-14.64z"/><path d="m433.72 64.193-300.704 251.609c-3.179 2.66-5.016 6.592-5.016 10.737v43.46c0 7.732 6.268 14 14 14h43.46c4.145 0 8.077-1.837 10.737-5.016l251.609-300.704c7.83-9.357-4.729-21.916-14.086-14.086z"/></g></g></svg>