<svg id="Layer_1" enable-background="new 0 0 512 512" height="512" viewBox="0 0 512 512" width="512" xmlns="http://www.w3.org/2000/svg"><g><path d="m495.59 216.41c-10.58-10.58-24.64-16.41-39.59-16.41h-16.3c-3.61-11.86-8.36-23.33-14.21-34.29l11.53-11.54c21.83-21.82 21.83-57.35 0-79.19-10.57-10.58-24.63-16.4-39.6-16.4-14.96 0-29.02 5.82-39.59 16.4l-11.54 11.53c-10.96-5.85-22.43-10.61-34.29-14.21v-16.3c0-24.84-16.54-46.66-40-53.67-1.59-.48-3.2-.88-4.85-1.22-3.68-.74-7.43-1.11-11.15-1.11-14.95 0-29.01 5.83-39.59 16.41s-16.41 24.64-16.41 39.59v16.3c-11.86 3.6-23.33 8.36-34.29 14.21l-11.54-11.53c-21.82-21.83-57.35-21.83-79.19 0-10.58 10.57-16.4 24.64-16.4 39.6s5.82 29.02 16.4 39.59l11.53 11.54c-5.85 10.96-10.6 22.43-14.21 34.29h-16.3c-30.88 0-56 25.12-56 56 0 14.95 5.83 29.01 16.41 39.59s24.64 16.41 39.59 16.41h16.3c3.61 11.86 8.36 23.33 14.21 34.29l-11.53 11.54c-21.83 21.82-21.83 57.35 0 79.19 10.57 10.58 24.63 16.4 39.6 16.4 14.96 0 29.02-5.82 39.59-16.4l11.54-11.53c10.96 5.85 22.43 10.61 34.29 14.21v16.3c0 30.88 25.12 56 56 56 3.72 0 7.47-.37 11.15-1.11.01-.01.02-.01.03-.01 1.63-.33 3.24-.73 4.82-1.22 8.88-2.62 16.96-7.43 23.59-14.07 10.58-10.58 16.41-24.64 16.41-39.59v-16.3c11.86-3.6 23.33-8.36 34.29-14.21l11.54 11.53c10.91 10.92 25.25 16.38 39.59 16.38 14.34-.01 28.68-5.46 39.6-16.38 10.58-10.57 16.4-24.64 16.4-39.6s-5.82-29.02-16.4-39.59l-11.53-11.54c5.85-10.96 10.6-22.43 14.21-34.29h16.3c30.88 0 56-25.12 56-56 0-14.95-5.83-29.01-16.41-39.59zm-223.59 134.25c-2.63.45-5.3.78-8 1-2.64.23-5.31.34-8 .34-53.02 0-96-42.98-96-96s42.98-96 96-96c2.69 0 5.36.11 8 .34 2.7.22 5.37.55 8 1 45.41 7.6 80 47.09 80 94.66s-34.59 87.06-80 94.66z" fill="#e2e0e0"/><g fill="#cecccc"><path d="m256 368c-61.757 0-112-50.243-112-112s50.243-112 112-112c3.181 0 6.339.135 9.389.4 27.848 2.289 53.742 14.915 72.835 35.548 19.201 20.75 29.776 47.76 29.776 76.052s-10.575 55.302-29.776 76.052c-19.093 20.633-44.987 33.259-72.913 35.555-2.972.258-6.13.393-9.311.393zm0-192c-44.112 0-80 35.888-80 80s35.888 80 80 80c2.258 0 4.482-.094 6.611-.279 41.187-3.386 73.389-38.4 73.389-79.721s-32.202-76.335-73.311-79.714c-2.207-.192-4.431-.286-6.689-.286z"/><path d="m495.59 216.41c-10.58-10.58-24.64-16.41-39.59-16.41h-16.3c-3.61-11.86-8.36-23.33-14.21-34.29l11.53-11.54c21.83-21.82 21.83-57.35 0-79.19-10.57-10.58-24.63-16.4-39.6-16.4-5.5 0-10.87.79-16 2.31 8.83 2.61 16.91 7.4 23.6 14.09 21.83 21.84 21.83 57.37 0 79.19l-4.402 4.406c-4.177 4.181-5.258 10.525-2.746 15.875 2.498 5.32 4.747 10.747 6.742 16.269 2.008 5.559 7.26 9.28 13.171 9.28h6.215c14.95 0 29.01 5.83 39.59 16.41 10.741 10.741 16.587 25.07 16.406 40.275-.366 30.793-26.012 55.315-56.808 55.315h-5.403c-5.911 0-11.163 3.721-13.171 9.28-1.995 5.522-4.244 10.949-6.742 16.269-2.512 5.35-1.432 11.694 2.746 15.875l4.402 4.406c10.58 10.57 16.4 24.63 16.4 39.59s-5.82 29.03-16.4 39.6c-6.82 6.82-14.97 11.5-23.62 14.06 5.22 1.55 10.62 2.32 16.02 2.32 14.34-.01 28.68-5.46 39.6-16.38 10.58-10.57 16.4-24.64 16.4-39.6s-5.82-29.02-16.4-39.59l-11.53-11.54c5.85-10.96 10.6-22.43 14.21-34.29h15.488c30.796 0 56.442-24.522 56.808-55.315.181-15.205-5.665-29.534-16.406-40.275zm-183.59-144.11v-16.3c0-24.84-16.54-46.66-40-53.67-1.59-.48-3.2-.88-4.85-1.22-3.68-.74-7.43-1.11-11.15-1.11-5.51 0-10.9.79-16.03 2.32v.001c23.476 7 40.03 28.828 40.03 53.679v6.211c0 5.912 3.722 11.164 9.282 13.172 5.521 1.994 10.947 4.244 16.266 6.743 5.35 2.514 11.695 1.434 15.877-2.744l2.875-2.872c-4.05-1.55-8.15-2.95-12.3-4.21zm-6.452 357.574c-5.319 2.499-10.745 4.75-16.266 6.744-5.56 2.008-9.282 7.26-9.282 13.172v6.21c0 14.95-5.83 29.01-16.41 39.59-6.63 6.64-14.71 11.45-23.59 14.07 5.07 1.53 10.44 2.34 16 2.34 3.72 0 7.47-.37 11.15-1.11.01-.01.02-.01.03-.01 1.63-.33 3.24-.73 4.82-1.22 8.88-2.62 16.96-7.43 23.59-14.07 10.58-10.58 16.41-24.64 16.41-39.59v-16.3c4.15-1.26 8.25-2.66 12.3-4.21l-2.875-2.872c-4.182-4.178-10.527-5.258-15.877-2.744z"/></g></g></svg>