<svg height="512pt" viewBox="0 -35 512.0669 512" width="512pt" xmlns="http://www.w3.org/2000/svg"><path d="m313.855469 411.386719-57.820313 30.015625-57.820312-30.015625c-34.453125-17.753907-66.644532-39.597657-95.867188-65.058594-69.738281-61.441406-118.199218-145.039063-97.542968-241.257813 6.65625-34.148437 26.769531-64.1875 55.808593-83.347656 29.042969-19.164062 64.570313-25.835937 98.585938-18.523437 47.621093 11.46875 84.933593 48.441406 96.835937 95.957031 11.90625-47.515625 49.21875-84.488281 96.839844-95.957031 13.914062-3.2109378 28.28125-3.988281 42.460938-2.296875 55.765624 7.175781 100.777343 49.058594 111.933593 104.167968 29.308594 136.738282-80.683593 247.878907-193.414062 306.316407zm0 0" fill="#c03a2b"/><path d="m450.242188 149.738281c.019531 82.753907-44.523438 159.109375-116.574219 199.824219-72.046875 40.714844-160.4375 39.476562-231.320313-3.234375-69.738281-61.441406-118.199218-145.039063-97.542968-241.257813 6.65625-34.148437 26.769531-64.1875 55.808593-83.347656 29.042969-19.164062 64.570313-25.835937 98.585938-18.523437 47.621093 11.46875 84.933593 48.441406 96.835937 95.957031 11.90625-47.515625 49.21875-84.488281 96.839844-95.957031 13.914062-3.2109378 28.28125-3.988281 42.460938-2.296875 35.515624 41.449218 54.996093 94.253906 54.90625 148.835937zm0 0" fill="#e64c3c"/><path d="m136.351562 23.359375c-30.28125-20.496094-78.089843-2.746094-106.78125 39.648437-28.695312 42.390626-27.410156 93.375 2.871094 113.871094s78.089844 2.742188 106.78125-39.648437c28.695313-42.394531 27.410156-93.375-2.871094-113.871094zm0 0" fill="#fb7b76"/><path d="m185.414062 242.78125c0-12.191406-17.785156-22.070312-39.722656-22.070312s-39.722656 9.878906-39.722656 22.070312c0 12.1875 17.785156 22.066406 39.722656 22.066406s39.722656-9.878906 39.722656-22.066406zm0 0" fill="#fb7b76"/><path d="m406.105469 242.78125c0-12.191406-17.785157-22.070312-39.722657-22.070312-21.941406 0-39.726562 9.878906-39.726562 22.070312 0 12.1875 17.785156 22.066406 39.726562 22.066406 21.9375 0 39.722657-9.878906 39.722657-22.066406zm0 0" fill="#fb7b76"/><path d="m167.761719 211.882812c-14.628907 0-26.484375-11.855468-26.484375-26.480468 0-14.628906 11.855468-26.484375 26.484375-26.484375 14.625 0 26.480469 11.855469 26.480469 26.484375 0 14.625-11.855469 26.480468-26.480469 26.480468zm0 0" fill="#2c3e50"/><path d="m344.3125 211.882812c-14.625 0-26.484375-11.855468-26.484375-26.480468 0-14.628906 11.859375-26.484375 26.484375-26.484375s26.484375 11.855469 26.484375 26.484375c0 14.625-11.859375 26.480468-26.484375 26.480468zm0 0" fill="#2c3e50"/><path d="m256.035156 264.847656c-52.355468 0-52.964844-34.957031-52.964844-35.308594-.046874-4.875 3.867188-8.867187 8.746094-8.910156 4.875-.046875 8.863282 3.867188 8.910156 8.742188.105469 1.960937 1.984376 17.824218 35.308594 17.824218 33.484375 0 35.222656-16.023437 35.3125-17.851562.398438-4.726562 4.289063-8.394531 9.03125-8.519531 4.769532.0625 8.609375 3.941406 8.625 8.714843 0 .351563-.609375 35.308594-52.96875 35.308594zm0 0" fill="#802d40"/><g fill="#ecf0f1"><path d="m167.761719 176.574219c0 4.875-3.953125 8.828125-8.828125 8.828125s-8.828125-3.953125-8.828125-8.828125 3.953125-8.828125 8.828125-8.828125 8.828125 3.953125 8.828125 8.828125zm0 0"/><path d="m185.414062 189.816406c0 7.3125-5.925781 13.238282-13.238281 13.238282s-13.242187-5.925782-13.242187-13.238282c0-7.316406 5.929687-13.242187 13.242187-13.242187s13.238281 5.925781 13.238281 13.242187zm0 0"/><path d="m344.3125 176.574219c0 4.875-3.953125 8.828125-8.828125 8.828125s-8.828125-3.953125-8.828125-8.828125 3.953125-8.828125 8.828125-8.828125 8.828125 3.953125 8.828125 8.828125zm0 0"/><path d="m361.96875 189.816406c0 7.3125-5.929688 13.238282-13.242188 13.238282s-13.242187-5.925782-13.242187-13.238282c0-7.316406 5.929687-13.242187 13.242187-13.242187s13.242188 5.925781 13.242188 13.242187zm0 0"/></g></svg>