<svg height="512pt" viewBox="0 -35 512.0669 512" width="512pt" xmlns="http://www.w3.org/2000/svg"><path d="m313.855469 411.386719-57.820313 30.015625-57.820312-30.015625c-34.453125-17.753907-66.644532-39.597657-95.867188-65.058594-69.738281-61.441406-118.199218-145.039063-97.542968-241.257813 6.65625-34.148437 26.769531-64.1875 55.808593-83.347656 29.042969-19.164062 64.570313-25.835937 98.585938-18.523437 47.621093 11.46875 84.933593 48.441406 96.835937 95.957031 11.90625-47.515625 49.21875-84.488281 96.839844-95.957031 13.914062-3.2109378 28.28125-3.988281 42.460938-2.296875 55.765624 7.175781 100.777343 49.058594 111.933593 104.167968 29.308594 136.738282-80.683593 247.878907-193.414062 306.316407zm0 0" fill="#c03a2b"/><path d="m450.242188 149.738281c.019531 82.753907-44.523438 159.109375-116.574219 199.824219-72.046875 40.714844-160.4375 39.476562-231.320313-3.234375-69.738281-61.441406-118.199218-145.039063-97.542968-241.257813 6.65625-34.148437 26.769531-64.1875 55.808593-83.347656 29.042969-19.164062 64.570313-25.835937 98.585938-18.523437 47.621093 11.46875 84.933593 48.441406 96.835937 95.957031 11.90625-47.515625 49.21875-84.488281 96.839844-95.957031 13.914062-3.2109378 28.28125-3.988281 42.460938-2.296875 35.515624 41.449218 54.996093 94.253906 54.90625 148.835937zm0 0" fill="#e64c3c"/><path d="m136.351562 23.359375c-30.28125-20.496094-78.089843-2.746094-106.78125 39.648437-28.695312 42.390626-27.410156 93.375 2.871094 113.871094s78.089844 2.742188 106.78125-39.648437c28.695313-42.394531 27.410156-93.375-2.871094-113.871094zm0 0" fill="#fb7b76"/><path d="m185.414062 242.78125c0-12.191406-17.785156-22.070312-39.722656-22.070312s-39.722656 9.878906-39.722656 22.070312c0 12.1875 17.785156 22.066406 39.722656 22.066406s39.722656-9.878906 39.722656-22.066406zm0 0" fill="#fb7b76"/><path d="m406.105469 242.78125c0-12.191406-17.785157-22.070312-39.722657-22.070312-21.941406 0-39.726562 9.878906-39.726562 22.070312 0 12.1875 17.785156 22.066406 39.726562 22.066406 21.9375 0 39.722657-9.878906 39.722657-22.066406zm0 0" fill="#fb7b76"/><path d="m167.761719 211.882812c-14.628907 0-26.484375-11.855468-26.484375-26.480468 0-14.628906 11.855468-26.484375 26.484375-26.484375 14.625 0 26.480469 11.855469 26.480469 26.484375 0 14.625-11.855469 26.480468-26.480469 26.480468zm0 0" fill="#2c3e50"/><path d="m344.3125 211.882812c-14.625 0-26.484375-11.855468-26.484375-26.480468 0-14.628906 11.859375-26.484375 26.484375-26.484375s26.484375 11.855469 26.484375 26.484375c0 14.625-11.859375 26.480468-26.484375 26.480468zm0 0" fill="#2c3e50"/><g fill="#ecf0f1"><path d="m167.761719 176.574219c0 4.875-3.953125 8.828125-8.828125 8.828125s-8.828125-3.953125-8.828125-8.828125 3.953125-8.828125 8.828125-8.828125 8.828125 3.953125 8.828125 8.828125zm0 0"/><path d="m185.414062 189.816406c0 7.3125-5.925781 13.238282-13.238281 13.238282s-13.242187-5.925782-13.242187-13.238282c0-7.316406 5.929687-13.242187 13.242187-13.242187s13.238281 5.925781 13.238281 13.242187zm0 0"/><path d="m344.3125 176.574219c0 4.875-3.953125 8.828125-8.828125 8.828125s-8.828125-3.953125-8.828125-8.828125 3.953125-8.828125 8.828125-8.828125 8.828125 3.953125 8.828125 8.828125zm0 0"/><path d="m361.96875 189.816406c0 7.3125-5.929688 13.238282-13.242188 13.238282s-13.242187-5.925782-13.242187-13.238282c0-7.316406 5.929687-13.242187 13.242187-13.242187s13.242188 5.925781 13.242188 13.242187zm0 0"/></g><path d="m308.3125 239.371094c-1.234375 12.175781-4.710938 24.015625-10.257812 34.921875-13.054688-6.445313-27.460938-9.683594-42.019532-9.445313-14.558594-.238281-28.964844 3-42.019531 9.445313-5.542969-10.90625-9.023437-22.746094-10.257813-34.921875-.285156-2.5.507813-5.003906 2.183594-6.882813 1.675782-1.878906 4.074219-2.949219 6.59375-2.949219h87.003906c2.515626 0 4.914063 1.070313 6.589844 2.949219 1.675782 1.878907 2.472656 4.382813 2.183594 6.882813zm0 0" fill="#802d40"/><path d="m298.054688 274.292969c-8 15.867187-24.25 25.871093-42.019532 25.871093-17.765625 0-34.019531-10.003906-42.019531-25.871093 1.414063-.703125 2.828125-1.410157 4.328125-2.117188 24.179688-9.769531 51.207031-9.769531 75.386719 0 1.5.707031 2.914062 1.414063 4.324219 2.117188zm0 0" fill="#df4d60"/><path d="m293.730469 272.175781c-1.664063 2.414063-3.554688 4.660157-5.648438 6.710938-8.550781 8.320312-20.117187 12.8125-32.046875 12.445312-11.925781.367188-23.492187-4.125-32.042968-12.445312-2.09375-2.050781-3.988282-4.296875-5.648438-6.710938 24.179688-9.769531 51.207031-9.769531 75.386719 0zm0 0" fill="#ff5364"/></svg>