<svg height="512pt" viewBox="0 -35 512.0669 512" width="512pt" xmlns="http://www.w3.org/2000/svg"><path d="m313.855469 411.714844-57.820313 30.011718-57.820312-30.011718c-34.453125-17.753906-66.644532-39.597656-95.867188-65.058594-69.738281-61.441406-118.199218-145.039062-97.542968-241.261719 6.65625-34.148437 26.769531-64.183593 55.808593-83.347656 29.042969-19.160156 64.570313-25.835937 98.585938-18.519531 47.621093 11.46875 84.933593 48.4375 96.835937 95.953125 11.90625-47.515625 49.21875-84.484375 96.839844-95.953125 13.914062-3.210938 28.28125-3.988282 42.460938-2.296875 55.765624 7.171875 100.777343 49.058593 111.933593 104.164062 29.308594 136.742188-80.683593 247.878907-193.414062 306.320313zm0 0" fill="#c03a2b"/><path d="m450.242188 149.738281c.019531 82.753907-44.523438 159.109375-116.574219 199.824219-72.046875 40.714844-160.4375 39.476562-231.320313-3.234375-69.738281-61.441406-118.199218-145.039063-97.542968-241.257813 6.65625-34.148437 26.769531-64.1875 55.808593-83.347656 29.042969-19.164062 64.570313-25.835937 98.585938-18.523437 47.621093 11.46875 84.933593 48.441406 96.835937 95.957031 11.90625-47.515625 49.21875-84.488281 96.839844-95.957031 13.914062-3.2109378 28.28125-3.988281 42.460938-2.296875 35.515624 41.449218 54.996093 94.253906 54.90625 148.835937zm0 0" fill="#e64c3c"/><g fill="#fb7b76"><path d="m136.351562 23.6875c-30.28125-20.496094-78.089843-2.746094-106.78125 39.644531-28.695312 42.394531-27.410156 93.375 2.871094 113.871094s78.089844 2.746094 106.78125-39.648437c28.695313-42.390626 27.410156-93.371094-2.871094-113.867188zm0 0"/><path d="m185.414062 243.105469c0-12.1875-17.785156-22.066407-39.722656-22.066407s-39.722656 9.878907-39.722656 22.066407c0 12.191406 17.785156 22.070312 39.722656 22.070312s39.722656-9.878906 39.722656-22.070312zm0 0"/><path d="m406.105469 243.105469c0-12.1875-17.785157-22.066407-39.722657-22.066407-21.941406 0-39.726562 9.878907-39.726562 22.066407 0 12.191406 17.785156 22.070312 39.726562 22.070312 21.9375 0 39.722657-9.878906 39.722657-22.070312zm0 0"/></g><path d="m207.484375 180.871094c3.96875-4.007813 5.398437-9.886719 3.707031-15.269532.015625-.152343-.015625-.308593-.085937-.441406-1.78125-5.367187-6.417969-9.289062-12.007813-10.152344l-12.269531-1.855468-5.5625-11.738282c-2.425781-5.277343-7.699219-8.65625-13.503906-8.65625-5.808594 0-11.082031 3.378907-13.507813 8.65625l-5.5625 11.738282-12.269531 1.855468c-5.589844.863282-10.222656 4.785157-12.003906 10.152344-.070313.132813-.101563.289063-.089844.441406-1.6875 5.382813-.261719 11.261719 3.707031 15.269532l7.859375 7.945312 1.234375 1.324219-1.855468 10.769531-.351563 2.296875c-.96875 5.816407 1.464844 11.675781 6.269531 15.09375 2.492188 1.792969 5.488282 2.753907 8.5625 2.738281 2.5-.007812 4.957032-.644531 7.148438-1.855468l10.859375-5.914063 10.855469 5.914063c4.976562 2.730468 11.074218 2.390625 15.714843-.882813 4.800781-3.417969 7.234375-9.277343 6.265625-15.09375l-.351562-2.296875-1.855469-10.769531 1.238281-1.324219zm0 0" fill="#f29c1f"/><path d="m384.035156 180.871094c3.972656-4.007813 5.398438-9.886719 3.707032-15.269532.015624-.152343-.015626-.308593-.085938-.441406-1.78125-5.367187-6.417969-9.289062-12.007812-10.152344l-12.269532-1.855468-5.558594-11.738282c-2.425781-5.277343-7.703124-8.65625-13.507812-8.65625s-11.082031 3.378907-13.507812 8.65625l-5.558594 11.738282-12.273438 1.855468c-5.585937.863282-10.222656 4.785157-12.003906 10.152344-.070312.132813-.101562.289063-.089844.441406-1.6875 5.382813-.261718 11.261719 3.710938 15.269532l7.855468 7.945312 1.234376 1.324219-1.851563 10.769531-.355469 2.296875c-.96875 5.816407 1.464844 11.675781 6.269532 15.09375 2.492187 1.792969 5.488281 2.753907 8.5625 2.738281 2.5-.007812 4.960937-.644531 7.148437-1.855468l10.859375-5.914063 10.859375 5.914063c4.976563 2.730468 11.074219 2.390625 15.710937-.882813 4.804688-3.417969 7.238282-9.277343 6.269532-15.09375l-.355469-2.296875-1.851563-10.769531 1.234376-1.324219zm0 0" fill="#f29c1f"/><path d="m211.191406 165.601562c.015625-.152343-.015625-.308593-.085937-.441406-1.78125-5.367187-6.417969-9.289062-12.007813-10.152344l-12.269531-1.855468-5.5625-11.738282c-2.425781-5.277343-7.699219-8.65625-13.503906-8.65625-5.808594 0-11.082031 3.378907-13.507813 8.65625l-5.5625 11.738282-12.269531 1.855468c-5.589844.863282-10.222656 4.785157-12.003906 10.152344-.070313.132813-.101563.289063-.089844.441406.636719 2.441407 1.917969 4.667969 3.707031 6.441407l9.09375 9.269531-1.234375 7.503906 1.234375 1.324219-1.855468 10.769531c.917968 3.457032 3.007812 6.484375 5.917968 8.5625 2.492188 1.796875 5.488282 2.753906 8.5625 2.738282 2.5-.007813 4.957032-.644532 7.148438-1.855469l10.859375-5.914063 10.855469 5.914063c4.976562 2.734375 11.074218 2.390625 15.714843-.882813 2.90625-2.078125 5-5.105468 5.914063-8.5625l-1.855469-10.769531 1.238281-1.324219-1.238281-7.503906 9.09375-9.269531c1.792969-1.773438 3.074219-4 3.707031-6.441407zm0 0" fill="#f0c419"/><path d="m387.742188 165.601562c.015624-.152343-.015626-.308593-.085938-.441406-1.78125-5.367187-6.417969-9.289062-12.007812-10.152344l-12.269532-1.855468-5.558594-11.738282c-2.425781-5.277343-7.703124-8.65625-13.507812-8.65625s-11.082031 3.378907-13.507812 8.65625l-5.558594 11.738282-12.273438 1.855468c-5.585937.863282-10.222656 4.785157-12.003906 10.152344-.070312.132813-.101562.289063-.089844.441406.636719 2.441407 1.917969 4.667969 3.710938 6.441407l9.089844 9.269531-1.234376 7.503906 1.234376 1.324219-1.851563 10.769531c.914063 3.457032 3.003906 6.484375 5.914063 8.5625 2.492187 1.796875 5.488281 2.753906 8.5625 2.738282 2.5-.007813 4.960937-.644532 7.148437-1.855469l10.859375-5.914063 10.859375 5.914063c4.976563 2.734375 11.074219 2.390625 15.710937-.882813 2.910157-2.078125 5-5.105468 5.914063-8.5625l-1.851563-10.769531 1.234376-1.324219-1.234376-7.503906 9.089844-9.269531c1.792969-1.773438 3.074219-4 3.707032-6.441407zm0 0" fill="#f0c419"/><path d="m291.347656 213.535156-5.5625 67.796875c-1.199218 15.542969-14.160156 27.542969-29.75 27.542969-15.585937 0-28.550781-12-29.746094-27.542969l-5.5625-67.796875c-.3125-3.324218 1.191407-6.5625 3.933594-8.464844 2.746094-1.902343 6.304688-2.175781 9.308594-.714843l5.648438 2.910156c10.304687 5.296875 22.53125 5.296875 32.839843 0l5.648438-2.910156c3.003906-1.460938 6.5625-1.1875 9.304687.714843 2.746094 1.902344 4.25 5.140626 3.9375 8.464844zm0 0" fill="#802d40"/><path d="m282.34375 293.160156c-5.027344 9.910156-15.195312 16.15625-26.308594 16.15625-11.109375 0-21.28125-6.246094-26.304687-16.15625.136719-2.335937.554687-4.648437 1.234375-6.886718 2.714844-11.839844 12.941406-20.445313 25.070312-21.097657 12.128906.652344 22.359375 9.257813 25.070313 21.097657.683593 2.238281 1.097656 4.550781 1.238281 6.886718zm0 0" fill="#df4d60"/><path d="m281.105469 286.273438c-5.277344 8.816406-14.792969 14.210937-25.070313 14.210937-10.273437 0-19.792968-5.394531-25.070312-14.210937 2.714844-11.839844 12.941406-20.445313 25.070312-21.097657 12.128906.652344 22.359375 9.257813 25.070313 21.097657zm0 0" fill="#ff5364"/><path d="m166.4375 164.851562c1.1875-1.203124 1.617188-2.96875 1.109375-4.582031.015625-.042969.015625-.089843 0-.132812-.53125-1.609375-1.917969-2.785157-3.589844-3.046875l-3.683593-.554688-1.667969-3.53125c-.726563-1.585937-2.308594-2.597656-4.050781-2.597656-1.742188 0-3.324219 1.011719-4.050782 2.597656l-1.667968 3.53125-3.683594.554688c-1.675782.257812-3.066406 1.4375-3.601563 3.046875-.011719.042969-.011719.089843 0 .132812-.503906 1.613281-.078125 3.378907 1.113281 4.582031l2.355469 2.382813.371094.398437-.554687 3.230469-.105469.6875c-.292969 1.746094.4375 3.503907 1.878906 4.527344.75.539063 1.648437.828125 2.570313.820313.75 0 1.488281-.191407 2.144531-.554688l3.257812-1.765625 3.257813 1.765625c1.488281.832031 3.324218.726562 4.710937-.265625 1.4375-1.027344 2.164063-2.785156 1.871094-4.527344l-.105469-.6875-.546875-3.230469.363281-.398437zm0 0" fill="#f9eab0"/><path d="m342.988281 164.851562c1.191407-1.203124 1.617188-2.96875 1.113281-4.582031.011719-.042969.011719-.089843 0-.132812-.535156-1.609375-1.921874-2.785157-3.59375-3.046875l-3.679687-.554688-1.671875-3.53125c-.726562-1.585937-2.308594-2.597656-4.050781-2.597656-1.742188 0-3.324219 1.011719-4.050781 2.597656l-1.667969 3.53125-3.683594.554688c-1.675781.257812-3.066406 1.4375-3.601563 3.046875-.011718.042969-.011718.089843 0 .132812-.503906 1.613281-.078124 3.378907 1.113282 4.582031l2.359375 2.382813.367187.398437-.554687 3.230469-.105469.6875c-.289062 1.746094.4375 3.503907 1.878906 4.527344.75.539063 1.648438.828125 2.570313.820313.75 0 1.488281-.191407 2.144531-.554688l3.257812-1.765625 3.257813 1.765625c1.488281.832031 3.324219.726562 4.714844-.265625 1.4375-1.027344 2.164062-2.785156 1.871093-4.527344l-.105468-.6875-.546875-3.230469.359375-.398437zm0 0" fill="#f9eab0"/></svg>