<svg height="512pt" viewBox="0 -35 512.0669 512" width="512pt" xmlns="http://www.w3.org/2000/svg"><path d="m313.855469 411.714844-57.820313 30.011718-57.820312-30.011718c-34.453125-17.753906-66.644532-39.597656-95.867188-65.058594-69.738281-61.441406-118.199218-145.039062-97.542968-241.261719 6.65625-34.148437 26.769531-64.183593 55.808593-83.347656 29.042969-19.160156 64.570313-25.835937 98.585938-18.519531 47.621093 11.46875 84.933593 48.4375 96.835937 95.953125 11.90625-47.515625 49.21875-84.484375 96.839844-95.953125 13.914062-3.210938 28.28125-3.988282 42.460938-2.296875 55.765624 7.171875 100.777343 49.058593 111.933593 104.164062 29.308594 136.742188-80.683593 247.878907-193.414062 306.320313zm0 0" fill="#c03a2b"/><path d="m450.242188 149.738281c.019531 82.753907-44.523438 159.109375-116.574219 199.824219-72.046875 40.714844-160.4375 39.476562-231.320313-3.234375-69.738281-61.441406-118.199218-145.039063-97.542968-241.257813 6.65625-34.148437 26.769531-64.1875 55.808593-83.347656 29.042969-19.164062 64.570313-25.835937 98.585938-18.523437 47.621093 11.46875 84.933593 48.441406 96.835937 95.957031 11.90625-47.515625 49.21875-84.488281 96.839844-95.957031 13.914062-3.2109378 28.28125-3.988281 42.460938-2.296875 35.515624 41.449218 54.996093 94.253906 54.90625 148.835937zm0 0" fill="#e64c3c"/><g fill="#fb7b76"><path d="m136.351562 23.6875c-30.28125-20.496094-78.089843-2.746094-106.78125 39.644531-28.695312 42.394531-27.410156 93.375 2.871094 113.871094s78.089844 2.746094 106.78125-39.648437c28.695313-42.390626 27.410156-93.371094-2.871094-113.867188zm0 0"/><path d="m185.414062 243.105469c0-12.1875-17.785156-22.066407-39.722656-22.066407s-39.722656 9.878907-39.722656 22.066407c0 12.191406 17.785156 22.070312 39.722656 22.070312s39.722656-9.878906 39.722656-22.070312zm0 0"/><path d="m406.105469 243.105469c0-12.1875-17.785157-22.066407-39.722657-22.066407-21.941406 0-39.726562 9.878907-39.726562 22.066407 0 12.191406 17.785156 22.070312 39.726562 22.070312 21.9375 0 39.722657-9.878906 39.722657-22.070312zm0 0"/></g><path d="m361.96875 212.210938c-1.367188 0-2.714844-.316407-3.9375-.925782l-35.3125-17.65625c-2.996094-1.492187-4.886719-4.554687-4.886719-7.902344 0-3.347656 1.890625-6.40625 4.886719-7.898437l35.3125-17.65625c4.363281-2.179687 9.667969-.410156 11.847656 3.953125 2.175782 4.363281.40625 9.667969-3.957031 11.847656l-19.527344 9.753906 19.519531 9.753907c3.667969 1.828125 5.59375 5.941406 4.652344 9.929687-.941406 3.988282-4.5 6.804688-8.597656 6.800782zm0 0" fill="#2c3e50"/><path d="m273.691406 254.582031v37.078125c0 9.75-7.902344 17.652344-17.65625 17.652344-9.75 0-17.652344-7.902344-17.652344-17.652344v-37.078125zm0 0" fill="#ff5364"/><path d="m256.035156 265.175781c-52.363281 0-52.964844-34.957031-52.964844-35.308593-.046874-4.878907 3.867188-8.867188 8.746094-8.914063 4.875-.046875 8.863282 3.871094 8.910156 8.746094.105469 1.957031 1.996094 17.820312 35.308594 17.820312 33.492188 0 35.222656-16.019531 35.3125-17.847656.34375-4.753906 4.265625-8.453125 9.03125-8.519531 4.769532.0625 8.609375 3.941406 8.625 8.714844 0 .351562-.601562 35.308593-52.96875 35.308593zm0 0" fill="#802d40"/><path d="m167.761719 212.210938c-14.628907 0-26.484375-11.859376-26.484375-26.484376s11.855468-26.480468 26.484375-26.480468c14.625 0 26.480469 11.855468 26.480469 26.480468s-11.855469 26.484376-26.480469 26.484376zm0 0" fill="#2c3e50"/><path d="m167.761719 176.898438c0 4.875-3.953125 8.828124-8.828125 8.828124s-8.828125-3.953124-8.828125-8.828124 3.953125-8.828126 8.828125-8.828126 8.828125 3.953126 8.828125 8.828126zm0 0" fill="#ecf0f1"/><path d="m185.414062 190.140625c0 7.3125-5.925781 13.242187-13.238281 13.242187s-13.242187-5.929687-13.242187-13.242187 5.929687-13.242187 13.242187-13.242187 13.238281 5.929687 13.238281 13.242187zm0 0" fill="#ecf0f1"/></svg>