<svg height="512pt" viewBox="0 -35 512.0669 512" width="512pt" xmlns="http://www.w3.org/2000/svg"><path d="m313.855469 411.714844-57.820313 30.011718-57.820312-30.011718c-34.453125-17.753906-66.644532-39.597656-95.867188-65.058594-69.738281-61.441406-118.199218-145.039062-97.542968-241.261719 6.65625-34.148437 26.769531-64.183593 55.808593-83.347656 29.042969-19.160156 64.570313-25.835937 98.585938-18.519531 47.621093 11.46875 84.933593 48.4375 96.835937 95.953125 11.90625-47.515625 49.21875-84.484375 96.839844-95.953125 13.914062-3.210938 28.28125-3.988282 42.460938-2.296875 55.765624 7.171875 100.777343 49.058593 111.933593 104.164062 29.308594 136.742188-80.683593 247.878907-193.414062 306.320313zm0 0" fill="#c03a2b"/><path d="m450.242188 149.738281c.019531 82.753907-44.523438 159.109375-116.574219 199.824219-72.046875 40.714844-160.4375 39.476562-231.320313-3.234375-69.738281-61.441406-118.199218-145.039063-97.542968-241.257813 6.65625-34.148437 26.769531-64.1875 55.808593-83.347656 29.042969-19.164062 64.570313-25.835937 98.585938-18.523437 47.621093 11.46875 84.933593 48.441406 96.835937 95.957031 11.90625-47.515625 49.21875-84.488281 96.839844-95.957031 13.914062-3.2109378 28.28125-3.988281 42.460938-2.296875 35.515624 41.449218 54.996093 94.253906 54.90625 148.835937zm0 0" fill="#e64c3c"/><g fill="#fb7b76"><path d="m136.351562 23.6875c-30.28125-20.496094-78.089843-2.746094-106.78125 39.644531-28.695312 42.394531-27.410156 93.375 2.871094 113.871094s78.089844 2.746094 106.78125-39.648437c28.695313-42.390626 27.410156-93.371094-2.871094-113.867188zm0 0"/><path d="m185.414062 243.105469c0-12.1875-17.785156-22.066407-39.722656-22.066407s-39.722656 9.878907-39.722656 22.066407c0 12.191406 17.785156 22.070312 39.722656 22.070312s39.722656-9.878906 39.722656-22.070312zm0 0"/><path d="m406.105469 243.105469c0-12.1875-17.785157-22.066407-39.722657-22.066407-21.941406 0-39.726562 9.878907-39.726562 22.066407 0 12.191406 17.785156 22.070312 39.726562 22.070312 21.9375 0 39.722657-9.878906 39.722657-22.070312zm0 0"/></g><path d="m150.105469 212.210938c-4.097657.007812-7.664063-2.808594-8.609375-6.796876-.941406-3.988281.984375-8.105468 4.65625-9.933593l19.523437-9.753907-19.515625-9.710937c-4.363281-2.179687-6.132812-7.480469-3.957031-11.84375 2.179687-4.363281 7.484375-6.136719 11.847656-3.957031l35.3125 17.65625c2.996094 1.492187 4.886719 4.554687 4.886719 7.902344 0 3.347656-1.890625 6.40625-4.886719 7.898437l-35.3125 17.65625c-1.230469.59375-2.578125.898437-3.945312.882813zm0 0" fill="#2c3e50"/><path d="m361.96875 212.210938c-1.367188 0-2.714844-.316407-3.9375-.925782l-35.3125-17.65625c-2.996094-1.492187-4.886719-4.554687-4.886719-7.902344 0-3.347656 1.890625-6.40625 4.886719-7.898437l35.3125-17.65625c4.363281-2.179687 9.667969-.410156 11.847656 3.953125 2.175782 4.363281.40625 9.667969-3.957031 11.847656l-19.527344 9.753906 19.519531 9.753907c3.667969 1.828125 5.59375 5.941406 4.652344 9.929687-.941406 3.988282-4.5 6.804688-8.597656 6.800782zm0 0" fill="#2c3e50"/><path d="m115.589844 217.859375s-8.917969 74.0625-28.601563 94.015625c-15.414062 15.644531-39.148437 19.597656-58.800781 9.789062-19.652344-9.804687-30.765625-31.144531-27.53125-52.867187 1.453125-10.726563 6.382812-20.679687 14.035156-28.339844 17.832032-18.007812 85.890625-21.890625 98.78125-22.507812 1.410156-.089844 2.117188-.089844 2.117188-.089844zm0 0" fill="#2fa8cc"/><path d="m113.472656 217.949219c-3.710937 22.597656-12.273437 65.058593-26.484375 79.445312-9.464843 9.597657-22.359375 15.035157-35.835937 15.117188-13.480469.085937-26.4375-5.195313-36.019532-14.675781-7.957031-7.773438-13.058593-18.007813-14.476562-29.039063 1.453125-10.726563 6.382812-20.679687 14.035156-28.339844 17.832032-18.007812 85.890625-21.890625 98.78125-22.507812zm0 0" fill="#67b9cc"/><path d="m56.378906 245.671875c-4.875-8.445313-19.097656-9.363281-31.761718-2.050781-12.667969 7.3125-18.984376 20.085937-14.109376 28.53125 4.875 8.445312 19.097657 9.363281 31.761719 2.050781 12.667969-7.316406 18.984375-20.089844 14.109375-28.53125zm0 0" fill="#b0d3f0"/><path d="m308.3125 239.699219c-1.234375 12.175781-4.710938 24.015625-10.257812 34.921875-13.054688-6.449219-27.460938-9.6875-42.019532-9.445313-14.558594-.242187-28.964844 2.996094-42.019531 9.445313-5.542969-10.90625-9.023437-22.746094-10.257813-34.921875-.285156-2.5.507813-5.003907 2.183594-6.882813 1.675782-1.878906 4.074219-2.953125 6.59375-2.949218h87.003906c2.515626-.003907 4.914063 1.070312 6.589844 2.949218 1.675782 1.878906 2.472656 4.382813 2.183594 6.882813zm0 0" fill="#802d40"/><path d="m298.054688 274.621094c-8 15.863281-24.25 25.871094-42.019532 25.871094-17.765625 0-34.019531-10.007813-42.019531-25.871094 1.414063-.707032 2.828125-1.414063 4.328125-2.117188 24.179688-9.769531 51.207031-9.769531 75.386719 0 1.5.703125 2.914062 1.410156 4.324219 2.117188zm0 0" fill="#df4d60"/><path d="m293.730469 272.503906c-1.664063 2.410156-3.554688 4.660156-5.648438 6.707032-8.550781 8.324218-20.117187 12.816406-32.046875 12.449218-11.925781.367188-23.492187-4.125-32.042968-12.449218-2.09375-2.046876-3.988282-4.296876-5.648438-6.707032 24.179688-9.769531 51.207031-9.769531 75.386719 0zm0 0" fill="#ff5364"/><path d="m396.546875 217.859375s8.914063 74.0625 28.601563 94.015625c15.414062 15.644531 39.144531 19.597656 58.796874 9.789062 19.65625-9.804687 30.765626-31.144531 27.535157-52.867187-1.453125-10.726563-6.386719-20.679687-14.035157-28.339844-17.832031-18.007812-85.894531-21.890625-98.78125-22.507812-1.386718-.089844-2.117187-.089844-2.117187-.089844zm0 0" fill="#2fa8cc"/><path d="m398.664062 217.949219c3.707032 22.597656 12.269532 65.058593 26.484376 79.445312 9.464843 9.597657 22.355468 15.035157 35.835937 15.117188 13.476563.085937 26.4375-5.195313 36.019531-14.675781 7.957032-7.773438 13.054688-18.007813 14.476563-29.039063-1.453125-10.726563-6.386719-20.679687-14.035157-28.339844-17.832031-18.007812-85.894531-21.890625-98.78125-22.507812zm0 0" fill="#67b9cc"/><path d="m487.515625 243.625c-12.664063-7.3125-26.886719-6.394531-31.761719 2.050781-4.875 8.445313 1.441406 21.21875 14.109375 28.53125 12.664063 7.3125 26.886719 6.394531 31.761719-2.050781 4.875-8.441406-1.441406-21.214844-14.109375-28.53125zm0 0" fill="#b0d3f0"/></svg>