<svg height="512pt" viewBox="0 -35 512.0669 512" width="512pt" xmlns="http://www.w3.org/2000/svg"><path d="m313.855469 411.386719-57.820313 30.015625-57.820312-30.015625c-34.453125-17.753907-66.644532-39.597657-95.867188-65.058594-69.738281-61.441406-118.199218-145.039063-97.542968-241.257813 6.65625-34.148437 26.769531-64.1875 55.808593-83.347656 29.042969-19.164062 64.570313-25.835937 98.585938-18.523437 47.621093 11.46875 84.933593 48.441406 96.835937 95.957031 11.90625-47.515625 49.21875-84.488281 96.839844-95.957031 13.914062-3.2109378 28.28125-3.988281 42.460938-2.296875 55.765624 7.175781 100.777343 49.058594 111.933593 104.167968 29.308594 136.738282-80.683593 247.878907-193.414062 306.316407zm0 0" fill="#c03a2b"/><path d="m450.242188 149.738281c.019531 82.753907-44.523438 159.109375-116.574219 199.824219-72.046875 40.714844-160.4375 39.476562-231.320313-3.234375-69.738281-61.441406-118.199218-145.039063-97.542968-241.257813 6.65625-34.148437 26.769531-64.1875 55.808593-83.347656 29.042969-19.164062 64.570313-25.835937 98.585938-18.523437 47.621093 11.46875 84.933593 48.441406 96.835937 95.957031 11.90625-47.515625 49.21875-84.488281 96.839844-95.957031 13.914062-3.2109378 28.28125-3.988281 42.460938-2.296875 35.515624 41.449218 54.996093 94.253906 54.90625 148.835937zm0 0" fill="#e64c3c"/><g fill="#fb7b76"><path d="m136.417969 23.449219c-30.273438-20.511719-78.097657-2.78125-106.816407 39.605469-28.71875 42.386718-27.457031 93.375 2.820313 113.890624 30.277344 20.511719 78.101563 2.78125 106.816406-39.605468 28.71875-42.386719 27.457031-93.378906-2.820312-113.890625zm0 0"/><path d="m185.414062 242.78125c0-12.191406-17.785156-22.070312-39.722656-22.070312s-39.722656 9.878906-39.722656 22.070312c0 12.1875 17.785156 22.066406 39.722656 22.066406s39.722656-9.878906 39.722656-22.066406zm0 0"/><path d="m406.105469 242.78125c0-12.191406-17.785157-22.070312-39.722657-22.070312-21.941406 0-39.726562 9.878906-39.726562 22.070312 0 12.1875 17.785156 22.066406 39.726562 22.066406 21.9375 0 39.722657-9.878906 39.722657-22.066406zm0 0"/></g><path d="m185.414062 194.226562c-4.875 0-8.824218-3.949218-8.824218-8.824218s-3.953125-8.828125-8.828125-8.828125-8.828125 3.953125-8.828125 8.828125-3.953125 8.824218-8.828125 8.824218c-9.128907-.613281-17.679688-4.695312-23.894531-11.414062-3.347657-3.460938-3.300782-8.96875.105468-12.371094 3.40625-3.40625 8.910156-3.453125 12.375-.109375 1.503906 1.519531 3.199219 2.839844 5.039063 3.929688 5.226562-11.28125 17.59375-17.40625 29.734375-14.730469 12.136718 2.679688 20.78125 13.4375 20.777344 25.871094 0 4.875-3.949219 8.824218-8.828126 8.824218zm0 0" fill="#2c3e50"/><path d="m256.035156 264.847656c-52.355468 0-52.964844-34.957031-52.964844-35.308594-.046874-4.875 3.867188-8.867187 8.746094-8.910156 4.875-.046875 8.863282 3.867188 8.910156 8.742188.105469 1.960937 1.984376 17.824218 35.308594 17.824218 33.484375 0 35.222656-16.023437 35.3125-17.851562.367188-4.742188 4.273438-8.425781 9.03125-8.519531 4.769532.0625 8.609375 3.941406 8.625 8.714843 0 .351563-.609375 35.308594-52.96875 35.308594zm0 0" fill="#802d40"/><path d="m159.1875 178.78125c-2.046875-.003906-4.03125-.71875-5.613281-2.023438-4.648438-3.855468-8.507813-8.574218-11.371094-13.894531-2.175781-4.363281-.40625-9.667969 3.957031-11.847656 4.363282-2.175781 9.667969-.40625 11.847656 3.957031 1.761719 3.109375 4.070313 5.878906 6.8125 8.171875 2.875 2.375 3.945313 6.292969 2.683594 9.800781-1.261718 3.503907-4.589844 5.839844-8.316406 5.835938zm0 0" fill="#2c3e50"/><path d="m361.96875 194.226562c-4.875 0-8.828125-3.949218-8.828125-8.824218s-3.953125-8.828125-8.828125-8.828125-8.828125 3.953125-8.828125 8.828125-3.953125 8.824218-8.828125 8.824218-8.828125-3.949218-8.828125-8.824218c.003906-12.429688 8.648437-23.1875 20.785156-25.863282 12.136719-2.671874 24.503907 3.453126 29.726563 14.730469 1.839844-1.09375 3.535156-2.417969 5.042968-3.9375 3.460938-3.34375 8.96875-3.296875 12.375.109375 3.402344 3.402344 3.453126 8.910156.105469 12.371094-6.214843 6.71875-14.765625 10.800781-23.894531 11.414062zm0 0" fill="#2c3e50"/><path d="m352.882812 178.78125c-3.722656.003906-7.050781-2.332031-8.3125-5.835938-1.265624-3.507812-.191406-7.425781 2.679688-9.800781 2.746094-2.292969 5.054688-5.0625 6.816406-8.171875 2.179688-4.363281 7.484375-6.132812 11.847656-3.957031 4.363282 2.179687 6.132813 7.484375 3.953126 11.847656-2.859376 5.320313-6.71875 10.039063-11.367188 13.894531-1.582031 1.304688-3.566406 2.019532-5.617188 2.023438zm0 0" fill="#2c3e50"/></svg>