<svg height="512pt" viewBox="0 -35 512.05789 512" width="512pt" xmlns="http://www.w3.org/2000/svg"><path d="m313.847656 411.710938-57.792968 30.011718-57.820313-30.011718c-34.457031-17.753907-66.644531-39.597657-95.867187-65.0625-69.738282-61.4375-118.203126-145.035157-97.546876-241.257813 6.660157-34.140625 26.769532-64.171875 55.804688-83.328125 29.035156-19.160156 64.554688-25.839844 98.5625-18.53125 47.632812 11.457031 84.953125 48.425781 96.867188 95.945312 11.902343-47.503906 49.199218-84.46875 96.8125-95.945312 13.914062-3.210938 28.28125-3.988281 42.460937-2.296875 55.765625 7.171875 100.773437 49.058594 111.933594 104.167969 29.304687 136.730468-80.683594 247.867187-193.414063 306.308594zm0 0" fill="#c03a2b"/><path d="m450.261719 149.734375c.015625 82.753906-44.527344 159.109375-116.574219 199.824219-72.050781 40.710937-160.441406 39.476562-231.320312-3.234375-69.765626-61.441407-118.203126-145.054688-97.574219-241.277344 6.660156-34.148437 26.773437-64.1875 55.8125-83.347656 29.039062-19.160157 64.566406-25.835938 98.582031-18.523438 47.640625 11.464844 84.964844 48.445313 96.867188 95.976563 11.902343-47.515625 49.214843-84.488282 96.839843-95.957032 13.914063-3.210937 28.277344-3.988281 42.457031-2.296874 35.519532 41.445312 55 94.253906 54.910157 148.835937zm0 0" fill="#e64c3c"/><path d="m136.335938 23.683594c-30.28125-20.496094-78.089844-2.746094-106.785157 39.648437-28.695312 42.390625-27.410156 93.371094 2.871094 113.867188 30.28125 20.496093 78.089844 2.746093 106.785156-39.644531 28.695313-42.394532 27.410157-93.375-2.871093-113.871094zm0 0" fill="#fb7b76"/><path d="m220.742188 150.066406c0 34.128906-27.664063 61.796875-61.792969 61.796875-34.125 0-61.792969-27.667969-61.792969-61.796875 0-34.125 27.667969-61.792968 61.792969-61.792968 34.128906 0 61.792969 27.667968 61.792969 61.792968zm0 0" fill="#ecf0f1"/><path d="m414.949219 150.066406c0 34.128906-27.664063 61.796875-61.792969 61.796875-34.125 0-61.792969-27.667969-61.792969-61.796875 0-34.125 27.667969-61.792968 61.792969-61.792968 34.128906 0 61.792969 27.667968 61.792969 61.792968zm0 0" fill="#ecf0f1"/><path d="m185.40625 243.101562c0-12.1875-17.785156-22.066406-39.722656-22.066406-21.941406 0-39.726563 9.878906-39.726563 22.066406s17.785157 22.070313 39.726563 22.070313c21.9375 0 39.722656-9.882813 39.722656-22.070313zm0 0" fill="#fb7b76"/><path d="m406.097656 243.101562c0-12.1875-17.785156-22.066406-39.726562-22.066406-21.9375 0-39.722656 9.878906-39.722656 22.066406s17.785156 22.070313 39.722656 22.070313c21.941406 0 39.726562-9.882813 39.726562-22.070313zm0 0" fill="#fb7b76"/><path d="m159.117188 211.863281c-33.976563.003907-61.546876-27.492187-61.632813-61.46875 0-4.875 3.953125-8.828125 8.828125-8.828125s8.828125 3.953125 8.828125 8.828125c.339844 24.042969 19.925781 43.355469 43.972656 43.355469s43.632813-19.3125 43.976563-43.355469c.171875-9.515625-4.804688-18.386719-13.019532-23.199219-8.214843-4.808593-18.386718-4.808593-26.601562 0-8.214844 4.8125-13.195312 13.683594-13.019531 23.199219 0 4.875 3.953125 8.828125 8.828125 8.828125s8.828125-3.953125 8.828125-8.828125 3.953125-8.828125 8.828125-8.828125 8.828125 3.953125 8.828125 8.828125c0 14.625-11.859375 26.484375-26.484375 26.484375s-26.484375-11.859375-26.484375-26.484375c-.222657-15.859375 8.109375-30.609375 21.808593-38.605469 13.695313-7.996093 30.636719-7.996093 44.335938 0 13.699219 7.996094 22.03125 22.746094 21.804688 38.605469-.082032 33.976563-27.648438 61.472657-61.625 61.46875zm0 0" fill="#2c3e50"/><path d="m352.988281 211.863281c-33.972656.003907-61.542969-27.492187-61.625-61.46875 0-4.875 3.953125-8.828125 8.828125-8.828125s8.828125 3.953125 8.828125 8.828125c.339844 24.042969 19.929688 43.355469 43.972657 43.355469 24.046874 0 43.636718-19.3125 43.976562-43.355469.175781-9.515625-4.804688-18.386719-13.019531-23.199219-8.214844-4.808593-18.386719-4.808593-26.601563 0-8.214844 4.8125-13.191406 13.683594-13.019531 23.199219 0 4.875 3.953125 8.828125 8.828125 8.828125s8.828125-3.953125 8.828125-8.828125 3.953125-8.828125 8.828125-8.828125 8.828125 3.953125 8.828125 8.828125c0 14.625-11.855469 26.484375-26.484375 26.484375-14.625 0-26.480469-11.859375-26.480469-26.484375-.226562-15.859375 8.105469-30.609375 21.804688-38.605469 13.699219-7.996093 30.640625-7.996093 44.339843 0 13.695313 7.996094 22.027344 22.746094 21.804688 38.605469-.089844 33.976563-27.660156 61.472657-61.636719 61.46875zm0 0" fill="#2c3e50"/><path d="m309.019531 264.828125c-2.339843 0-4.585937-.933594-6.242187-2.585937l-11.414063-11.414063-11.414062 11.414063c-3.445313 3.445312-9.035157 3.445312-12.480469 0l-11.414062-11.414063-11.414063 11.414063c-3.449219 3.445312-9.035156 3.445312-12.484375 0l-11.414062-11.414063-11.414063 11.414063c-3.460937 3.34375-8.96875 3.296874-12.375-.109376-3.402344-3.40625-3.453125-8.910156-.105469-12.375l17.65625-17.65625c3.445313-3.445312 9.035156-3.445312 12.480469 0l11.414063 11.414063 11.414062-11.414063c3.449219-3.445312 9.035156-3.445312 12.484375 0l11.414063 11.414063 11.414062-11.414063c3.445312-3.445312 9.035156-3.445312 12.480469 0l17.65625 17.65625c2.523437 2.523438 3.277343 6.320313 1.910156 9.621094-1.363281 3.296875-4.582031 5.445313-8.152344 5.449219zm0 0" fill="#802d40"/></svg>