<svg height="512pt" viewBox="0 -35 512.0669 512" width="512pt" xmlns="http://www.w3.org/2000/svg"><path d="m313.855469 411.714844-57.820313 30.011718-57.820312-30.011718c-34.453125-17.753906-66.644532-39.597656-95.867188-65.058594-69.738281-61.441406-118.199218-145.039062-97.542968-241.261719 6.65625-34.148437 26.769531-64.183593 55.808593-83.347656 29.042969-19.160156 64.570313-25.835937 98.585938-18.519531 47.621093 11.46875 84.933593 48.4375 96.835937 95.953125 11.90625-47.515625 49.21875-84.484375 96.839844-95.953125 13.914062-3.210938 28.28125-3.988282 42.460938-2.296875 55.765624 7.171875 100.777343 49.058593 111.933593 104.164062 29.308594 136.742188-80.683593 247.878907-193.414062 306.320313zm0 0" fill="#c03a2b"/><path d="m450.242188 149.738281c.019531 82.753907-44.523438 159.109375-116.574219 199.824219-72.046875 40.714844-160.4375 39.476562-231.320313-3.234375-69.738281-61.441406-118.199218-145.039063-97.542968-241.257813 6.65625-34.148437 26.769531-64.1875 55.808593-83.347656 29.042969-19.164062 64.570313-25.835937 98.585938-18.523437 47.621093 11.46875 84.933593 48.441406 96.835937 95.957031 11.90625-47.515625 49.21875-84.488281 96.839844-95.957031 13.914062-3.2109378 28.28125-3.988281 42.460938-2.296875 35.515624 41.449218 54.996093 94.253906 54.90625 148.835937zm0 0" fill="#e64c3c"/><path d="m136.351562 23.6875c-30.28125-20.496094-78.089843-2.746094-106.78125 39.644531-28.695312 42.394531-27.410156 93.375 2.871094 113.871094s78.089844 2.746094 106.78125-39.648437c28.695313-42.390626 27.410156-93.371094-2.871094-113.867188zm0 0" fill="#fb7b76"/><path d="m185.414062 243.105469c0-12.1875-17.785156-22.066407-39.722656-22.066407s-39.722656 9.878907-39.722656 22.066407c0 12.191406 17.785156 22.070312 39.722656 22.070312s39.722656-9.878906 39.722656-22.070312zm0 0" fill="#fb7b76"/><path d="m406.105469 243.105469c0-12.1875-17.785157-22.066407-39.722657-22.066407-21.941406 0-39.726562 9.878907-39.726562 22.066407 0 12.191406 17.785156 22.070312 39.726562 22.070312 21.9375 0 39.722657-9.878906 39.722657-22.070312zm0 0" fill="#fb7b76"/><path d="m167.761719 212.210938c-14.628907 0-26.484375-11.859376-26.484375-26.484376s11.855468-26.480468 26.484375-26.480468c14.625 0 26.480469 11.855468 26.480469 26.480468s-11.855469 26.484376-26.480469 26.484376zm0 0" fill="#2c3e50"/><path d="m344.3125 212.210938c-14.625 0-26.484375-11.859376-26.484375-26.484376s11.859375-26.480468 26.484375-26.480468 26.484375 11.855468 26.484375 26.480468-11.859375 26.484376-26.484375 26.484376zm0 0" fill="#2c3e50"/><g fill="#ecf0f1"><path d="m167.761719 176.898438c0 4.875-3.953125 8.828124-8.828125 8.828124s-8.828125-3.953124-8.828125-8.828124 3.953125-8.828126 8.828125-8.828126 8.828125 3.953126 8.828125 8.828126zm0 0"/><path d="m185.414062 190.140625c0 7.3125-5.925781 13.242187-13.238281 13.242187s-13.242187-5.929687-13.242187-13.242187 5.929687-13.242187 13.242187-13.242187 13.238281 5.929687 13.238281 13.242187zm0 0"/><path d="m344.3125 176.898438c0 4.875-3.953125 8.828124-8.828125 8.828124s-8.828125-3.953124-8.828125-8.828124 3.953125-8.828126 8.828125-8.828126 8.828125 3.953126 8.828125 8.828126zm0 0"/><path d="m361.96875 190.140625c0 7.3125-5.929688 13.242187-13.242188 13.242187s-13.242187-5.929687-13.242187-13.242187 5.929687-13.242187 13.242187-13.242187 13.242188 5.929687 13.242188 13.242187zm0 0"/></g><path d="m194.242188 185.726562c-1.121094 0-2.230469-.210937-3.273438-.625l-44.136719-17.65625c-4.53125-1.808593-6.734375-6.945312-4.925781-11.476562 1.808594-4.527344 6.945312-6.734375 11.472656-4.925781l44.140625 17.65625c3.933594 1.566406 6.199219 5.707031 5.402344 9.867187-.800781 4.160156-4.441406 7.164063-8.679687 7.160156zm0 0" fill="#c03a2b"/><path d="m317.828125 185.726562c-4.234375.003907-7.875-3-8.675781-7.160156-.800782-4.160156 1.46875-8.300781 5.402344-9.867187l44.136718-17.65625c2.929688-1.167969 6.261719-.6875 8.742188 1.265625 2.476562 1.953125 3.726562 5.078125 3.273437 8.199218-.453125 3.125-2.535156 5.769532-5.464843 6.9375l-44.136719 17.65625c-1.042969.414063-2.15625.625-3.277344.625zm0 0" fill="#c03a2b"/><path d="m299.539062 229.867188c2.515626-.003907 4.914063 1.070312 6.589844 2.949218 1.675782 1.878906 2.472656 4.382813 2.183594 6.882813-1.234375 12.175781-4.710938 24.015625-10.257812 34.921875-8 15.863281-24.25 25.871094-42.019532 25.871094-17.765625 0-34.019531-10.007813-42.019531-25.871094-5.542969-10.90625-9.023437-22.746094-10.257813-34.921875-.285156-2.5.507813-5.003907 2.183594-6.882813 1.675782-1.878906 4.074219-2.953125 6.59375-2.949218zm0 0" fill="#802d40"/><path d="m298.054688 274.621094c-8 15.863281-24.25 25.871094-42.019532 25.871094-17.765625 0-34.019531-10.007813-42.019531-25.871094 1.414063-.707032 2.828125-1.414063 4.328125-2.117188 24.179688-9.769531 51.207031-9.769531 75.386719 0 1.5.703125 2.914062 1.410156 4.324219 2.117188zm0 0" fill="#df4d60"/><path d="m293.730469 272.503906c-8.429688 12.449219-22.667969 19.683594-37.695313 19.15625-15.023437.527344-29.265625-6.707031-37.691406-19.15625 24.179688-9.769531 51.207031-9.769531 75.386719 0zm0 0" fill="#ff5364"/></svg>