<svg height="512pt" viewBox="0 -35 512.0669 512" width="512pt" xmlns="http://www.w3.org/2000/svg"><path d="m313.855469 411.714844-57.820313 30.011718-57.820312-30.011718c-34.453125-17.753906-66.644532-39.597656-95.867188-65.058594-69.738281-61.441406-118.199218-145.039062-97.542968-241.261719 6.65625-34.148437 26.769531-64.183593 55.808593-83.347656 29.042969-19.160156 64.570313-25.835937 98.585938-18.519531 47.621093 11.46875 84.933593 48.4375 96.835937 95.953125 11.90625-47.515625 49.21875-84.484375 96.839844-95.953125 13.914062-3.210938 28.28125-3.988282 42.460938-2.296875 55.765624 7.171875 100.777343 49.058593 111.933593 104.164062 29.308594 136.742188-80.683593 247.878907-193.414062 306.320313zm0 0" fill="#c03a2b"/><path d="m450.242188 149.738281c.019531 82.753907-44.523438 159.109375-116.574219 199.824219-72.046875 40.714844-160.4375 39.476562-231.320313-3.234375-69.738281-61.441406-118.199218-145.039063-97.542968-241.257813 6.65625-34.148437 26.769531-64.1875 55.808593-83.347656 29.042969-19.164062 64.570313-25.835937 98.585938-18.523437 47.621093 11.46875 84.933593 48.441406 96.835937 95.957031 11.90625-47.515625 49.21875-84.488281 96.839844-95.957031 13.914062-3.2109378 28.28125-3.988281 42.460938-2.296875 35.515624 41.449218 54.996093 94.253906 54.90625 148.835937zm0 0" fill="#e64c3c"/><g fill="#fb7b76"><path d="m136.351562 23.6875c-30.28125-20.496094-78.089843-2.746094-106.78125 39.644531-28.695312 42.394531-27.410156 93.375 2.871094 113.871094s78.089844 2.746094 106.78125-39.648437c28.695313-42.390626 27.410156-93.371094-2.871094-113.867188zm0 0"/><path d="m185.414062 243.105469c0-12.1875-17.785156-22.066407-39.722656-22.066407s-39.722656 9.878907-39.722656 22.066407c0 12.191406 17.785156 22.070312 39.722656 22.070312s39.722656-9.878906 39.722656-22.070312zm0 0"/><path d="m406.105469 243.105469c0-12.1875-17.785157-22.066407-39.722657-22.066407-21.941406 0-39.726562 9.878907-39.726562 22.066407 0 12.191406 17.785156 22.070312 39.726562 22.070312 21.9375 0 39.722657-9.878906 39.722657-22.070312zm0 0"/></g><path d="m299.539062 229.867188c2.515626-.003907 4.914063 1.070312 6.589844 2.949218 1.675782 1.878906 2.472656 4.382813 2.183594 6.882813-1.234375 12.175781-4.710938 24.015625-10.257812 34.921875-8 15.863281-24.25 25.871094-42.019532 25.871094-17.765625 0-34.019531-10.007813-42.019531-25.871094-5.542969-10.90625-9.023437-22.746094-10.257813-34.921875-.285156-2.5.507813-5.003907 2.183594-6.882813 1.675782-1.878906 4.074219-2.953125 6.59375-2.949218zm0 0" fill="#802d40"/><path d="m298.054688 274.621094c-8 15.863281-24.25 25.871094-42.019532 25.871094-17.765625 0-34.019531-10.007813-42.019531-25.871094 1.414063-.707032 2.828125-1.414063 4.328125-2.117188 24.179688-9.769531 51.207031-9.769531 75.386719 0 1.5.703125 2.914062 1.410156 4.324219 2.117188zm0 0" fill="#df4d60"/><path d="m293.730469 272.503906c-8.429688 12.449219-22.667969 19.683594-37.695313 19.15625-15.023437.527344-29.265625-6.707031-37.691406-19.15625 24.179688-9.769531 51.207031-9.769531 75.386719 0zm0 0" fill="#ff5364"/><path d="m338.132812 214.769531c-24.929687-11.996093-49.132812-35.398437-42.273437-65.085937 3.773437-15.164063 17.414063-25.792969 33.039063-25.75 2.453124 0 4.902343.257812 7.300781.769531 6.402343 1.355469 12.28125 4.515625 16.941406 9.109375 4.65625-4.589844 10.53125-7.753906 16.929687-9.109375 2.40625-.511719 4.859376-.769531 7.320313-.769531 15.691406-.210938 29.429687 10.488281 33.074219 25.75 6.859375 29.6875-17.34375 53.089844-42.273438 65.085937l-15.007812 7.238281zm0 0" fill="#802d40"/><path d="m143.925781 214.769531c-24.929687-11.996093-49.132812-35.398437-42.273437-65.085937 3.773437-15.164063 17.414062-25.792969 33.039062-25.75 2.453125 0 4.902344.257812 7.300782.769531 6.402343 1.355469 12.28125 4.515625 16.941406 9.109375 4.65625-4.589844 10.53125-7.753906 16.929687-9.109375 2.40625-.511719 4.859375-.769531 7.320313-.769531 15.691406-.210938 29.429687 10.488281 33.074218 25.75 6.859376 29.6875-17.34375 53.089844-42.273437 65.085937l-15.007813 7.238281zm0 0" fill="#802d40"/><path d="m158.933594 212.210938-11.21875-5.402344c-21.859375-10.515625-43.195313-30.519532-37.511719-55.136719 3.359375-13.222656 16.644531-21.351563 29.945313-18.328125 8.976562 1.828125 16.203124 8.46875 18.785156 17.257812 2.578125-8.789062 9.808594-15.429687 18.785156-17.257812 13.300781-3.027344 26.589844 5.105469 29.941406 18.328125 5.6875 24.617187-15.648437 44.621094-37.507812 55.136719zm0 0" fill="#ff5364"/><path d="m353.140625 212.210938-11.21875-5.402344c-21.859375-10.515625-43.195313-30.519532-37.511719-55.136719 3.359375-13.222656 16.644532-21.351563 29.945313-18.328125 8.976562 1.828125 16.203125 8.46875 18.785156 17.257812 2.578125-8.789062 9.808594-15.429687 18.785156-17.257812 13.300781-3.027344 26.589844 5.105469 29.941407 18.328125 5.6875 24.617187-15.648438 44.621094-37.507813 55.136719zm0 0" fill="#ff5364"/><path d="m141.277344 150.417969c0 4.875-3.953125 8.828125-8.828125 8.828125s-8.828125-3.953125-8.828125-8.828125 3.953125-8.828125 8.828125-8.828125 8.828125 3.953125 8.828125 8.828125zm0 0" fill="#fb7b76"/><path d="m335.484375 150.417969c0 4.875-3.953125 8.828125-8.828125 8.828125s-8.828125-3.953125-8.828125-8.828125 3.953125-8.828125 8.828125-8.828125 8.828125 3.953125 8.828125 8.828125zm0 0" fill="#fb7b76"/></svg>