<svg height="512pt" viewBox="0 -35 512.0669 512" width="512pt" xmlns="http://www.w3.org/2000/svg"><path d="m313.855469 411.714844-57.820313 30.011718-57.820312-30.011718c-34.453125-17.753906-66.644532-39.597656-95.867188-65.058594-69.738281-61.441406-118.199218-145.039062-97.542968-241.261719 6.65625-34.148437 26.769531-64.183593 55.808593-83.347656 29.042969-19.160156 64.570313-25.835937 98.585938-18.519531 47.621093 11.46875 84.933593 48.4375 96.835937 95.953125 11.90625-47.515625 49.21875-84.484375 96.839844-95.953125 13.914062-3.210938 28.28125-3.988282 42.460938-2.296875 55.765624 7.171875 100.777343 49.058593 111.933593 104.164062 29.308594 136.742188-80.683593 247.878907-193.414062 306.320313zm0 0" fill="#c03a2b"/><path d="m450.242188 149.738281c.019531 82.753907-44.523438 159.109375-116.574219 199.824219-72.046875 40.714844-160.4375 39.476562-231.320313-3.234375-69.738281-61.441406-118.199218-145.039063-97.542968-241.257813 6.65625-34.148437 26.769531-64.1875 55.808593-83.347656 29.042969-19.164062 64.570313-25.835937 98.585938-18.523437 47.621093 11.46875 84.933593 48.441406 96.835937 95.957031 11.90625-47.515625 49.21875-84.488281 96.839844-95.957031 13.914062-3.2109378 28.28125-3.988281 42.460938-2.296875 35.515624 41.449218 54.996093 94.253906 54.90625 148.835937zm0 0" fill="#e64c3c"/><path d="m136.351562 23.6875c-30.28125-20.496094-78.089843-2.746094-106.78125 39.644531-28.695312 42.394531-27.410156 93.375 2.871094 113.871094s78.089844 2.746094 106.78125-39.648437c28.695313-42.390626 27.410156-93.371094-2.871094-113.867188zm0 0" fill="#fb7b76"/><path d="m185.414062 243.105469c0-12.1875-17.785156-22.066407-39.722656-22.066407s-39.722656 9.878907-39.722656 22.066407c0 12.191406 17.785156 22.070312 39.722656 22.070312s39.722656-9.878906 39.722656-22.070312zm0 0" fill="#fb7b76"/><path d="m406.105469 243.105469c0-12.1875-17.785157-22.066407-39.722657-22.066407-21.941406 0-39.726562 9.878907-39.726562 22.066407 0 12.191406 17.785156 22.070312 39.726562 22.070312 21.9375 0 39.722657-9.878906 39.722657-22.070312zm0 0" fill="#fb7b76"/><path d="m256.035156 274.003906h39.929688c2.925781-.003906 5.664062-1.457031 7.304687-3.878906 1.640625-2.425781 1.972657-5.503906.886719-8.222656l-10.59375-26.484375c-1.339844-3.351563-4.582031-5.550781-8.191406-5.550781h-58.667969c-3.609375 0-6.855469 2.199218-8.191406 5.550781l-10.59375 26.484375c-1.085938 2.71875-.753907 5.796875.886719 8.222656 1.640624 2.421875 4.378906 3.875 7.304687 3.878906zm0 0" fill="#802d40"/><path d="m220.726562 203.382812c-3.058593 0-5.898437-1.585937-7.503906-4.1875-1.609375-2.601562-1.753906-5.851562-.386718-8.585937l8.824218-17.65625c2.179688-4.363281 7.484375-6.132813 11.847656-3.953125 4.363282 2.179688 6.132813 7.480469 3.957032 11.847656l-8.828125 17.652344c-1.5 2.996094-4.5625 4.886719-7.910157 4.882812zm0 0" fill="#67b9cc"/><path d="m256.035156 203.382812c-3.058594 0-5.894531-1.585937-7.503906-4.1875-1.605469-2.601562-1.753906-5.851562-.386719-8.585937l8.828125-17.65625c2.179688-4.363281 7.484375-6.132813 11.847656-3.953125 4.363282 2.179688 6.132813 7.480469 3.953126 11.847656l-8.828126 17.652344c-1.496093 2.996094-4.558593 4.886719-7.910156 4.882812zm0 0" fill="#67b9cc"/><path d="m291.347656 203.382812c-3.058594 0-5.898437-1.585937-7.507812-4.1875-1.605469-2.601562-1.75-5.851562-.386719-8.585937l8.828125-17.65625c2.179688-4.363281 7.484375-6.132813 11.847656-3.953125 4.363282 2.179688 6.132813 7.480469 3.953125 11.847656l-8.824219 17.652344c-1.5 2.996094-4.5625 4.886719-7.910156 4.882812zm0 0" fill="#67b9cc"/><path d="m167.761719 212.210938c-14.628907 0-26.484375-11.859376-26.484375-26.484376s11.855468-26.480468 26.484375-26.480468c14.625 0 26.480469 11.855468 26.480469 26.480468s-11.855469 26.484376-26.480469 26.484376zm0 0" fill="#2c3e50"/><path d="m344.3125 212.210938c-14.625 0-26.484375-11.859376-26.484375-26.484376s11.859375-26.480468 26.484375-26.480468 26.484375 11.855468 26.484375 26.480468-11.859375 26.484376-26.484375 26.484376zm0 0" fill="#2c3e50"/><g fill="#ecf0f1"><path d="m167.761719 176.898438c0 4.875-3.953125 8.828124-8.828125 8.828124s-8.828125-3.953124-8.828125-8.828124 3.953125-8.828126 8.828125-8.828126 8.828125 3.953126 8.828125 8.828126zm0 0"/><path d="m185.414062 190.140625c0 7.3125-5.925781 13.242187-13.238281 13.242187s-13.242187-5.929687-13.242187-13.242187 5.929687-13.242187 13.242187-13.242187 13.238281 5.929687 13.238281 13.242187zm0 0"/><path d="m344.3125 176.898438c0 4.875-3.953125 8.828124-8.828125 8.828124s-8.828125-3.953124-8.828125-8.828124 3.953125-8.828126 8.828125-8.828126 8.828125 3.953126 8.828125 8.828126zm0 0"/><path d="m361.96875 190.140625c0 7.3125-5.929688 13.242187-13.242188 13.242187s-13.242187-5.929687-13.242187-13.242187 5.929687-13.242187 13.242187-13.242187 13.242188 5.929687 13.242188 13.242187zm0 0"/></g></svg>