<svg height="512pt" viewBox="0 -35 512.0669 512" width="512pt" xmlns="http://www.w3.org/2000/svg"><path d="m313.855469 411.714844-57.820313 30.011718-57.820312-30.011718c-34.453125-17.753906-66.644532-39.597656-95.867188-65.058594-69.738281-61.441406-118.199218-145.039062-97.542968-241.261719 6.65625-34.148437 26.769531-64.183593 55.808593-83.347656 29.042969-19.160156 64.570313-25.835937 98.585938-18.519531 47.621093 11.46875 84.933593 48.4375 96.835937 95.953125 11.90625-47.515625 49.21875-84.484375 96.839844-95.953125 13.914062-3.210938 28.28125-3.988282 42.460938-2.296875 55.765624 7.171875 100.777343 49.058593 111.933593 104.164062 29.308594 136.742188-80.683593 247.878907-193.414062 306.320313zm0 0" fill="#c03a2b"/><path d="m450.242188 149.738281c.019531 82.753907-44.523438 159.109375-116.574219 199.824219-72.046875 40.714844-160.4375 39.476562-231.320313-3.234375-69.738281-61.441406-118.199218-145.039063-97.542968-241.257813 6.65625-34.148437 26.769531-64.1875 55.808593-83.347656 29.042969-19.164062 64.570313-25.835937 98.585938-18.523437 47.621093 11.46875 84.933593 48.441406 96.835937 95.957031 11.90625-47.515625 49.21875-84.488281 96.839844-95.957031 13.914062-3.2109378 28.28125-3.988281 42.460938-2.296875 35.515624 41.449218 54.996093 94.253906 54.90625 148.835937zm0 0" fill="#e64c3c"/><path d="m136.351562 23.6875c-30.28125-20.496094-78.089843-2.746094-106.78125 39.644531-28.695312 42.394531-27.410156 93.375 2.871094 113.871094s78.089844 2.746094 106.78125-39.648437c28.695313-42.390626 27.410156-93.371094-2.871094-113.867188zm0 0" fill="#fb7b76"/><path d="m185.414062 243.105469c0-12.1875-17.785156-22.066407-39.722656-22.066407s-39.722656 9.878907-39.722656 22.066407c0 12.191406 17.785156 22.070312 39.722656 22.070312s39.722656-9.878906 39.722656-22.070312zm0 0" fill="#fb7b76"/><path d="m406.105469 243.105469c0-12.1875-17.785157-22.066407-39.722657-22.066407-21.941406 0-39.726562 9.878907-39.726562 22.066407 0 12.191406 17.785156 22.070312 39.726562 22.070312 21.9375 0 39.722657-9.878906 39.722657-22.070312zm0 0" fill="#fb7b76"/><g fill="#2c3e50"><path d="m141.277344 221.039062c-3.570313-.003906-6.789063-2.152343-8.152344-5.449218-1.367188-3.300782-.613281-7.097656 1.910156-9.621094l52.96875-52.964844c3.460938-3.347656 8.96875-3.296875 12.375.105469 3.402344 3.40625 3.449219 8.914063.105469 12.375l-52.964844 52.96875c-1.65625 1.652344-3.902343 2.585937-6.242187 2.585937zm0 0"/><path d="m194.242188 221.039062c-2.339844 0-4.585938-.933593-6.238282-2.585937l-52.96875-52.96875c-3.34375-3.460937-3.296875-8.96875.109375-12.375 3.40625-3.402344 8.910157-3.453125 12.375-.105469l52.964844 52.964844c2.523437 2.523438 3.277344 6.320312 1.914063 9.621094-1.367188 3.296875-4.585938 5.445312-8.15625 5.449218zm0 0"/><path d="m317.828125 221.039062c-3.570313-.003906-6.785156-2.152343-8.152344-5.449218-1.367187-3.300782-.609375-7.097656 1.914063-9.621094l52.964844-52.964844c3.464843-3.347656 8.96875-3.296875 12.375.105469 3.402343 3.40625 3.453124 8.914063.105468 12.375l-52.964844 52.96875c-1.65625 1.652344-3.898437 2.585937-6.242187 2.585937zm0 0"/><path d="m370.796875 221.039062c-2.34375 0-4.585937-.933593-6.242187-2.585937l-52.964844-52.96875c-3.347656-3.460937-3.300782-8.96875.105468-12.375 3.40625-3.402344 8.910157-3.453125 12.375-.105469l52.964844 52.964844c2.523438 2.523438 3.28125 6.320312 1.914063 9.621094-1.367188 3.296875-4.585938 5.445312-8.152344 5.449218zm0 0"/></g><path d="m264.863281 247.519531h35.3125v35.3125c0 9.75-7.90625 17.652344-17.65625 17.652344s-17.65625-7.902344-17.65625-17.652344zm0 0" fill="#ff5364"/><path d="m309.003906 256.347656h-105.933594c-4.875 0-8.828124-3.953125-8.828124-8.828125s3.953124-8.828125 8.828124-8.828125h105.933594c4.875 0 8.824219 3.953125 8.824219 8.828125s-3.949219 8.828125-8.824219 8.828125zm0 0" fill="#802d40"/></svg>