<svg height="512pt" viewBox="0 -35 512.0669 512" width="512pt" xmlns="http://www.w3.org/2000/svg"><path d="m313.855469 411.714844-57.820313 30.011718-57.820312-30.011718c-34.453125-17.753906-66.644532-39.597656-95.867188-65.058594-69.738281-61.441406-118.199218-145.039062-97.542968-241.261719 6.65625-34.148437 26.769531-64.183593 55.808593-83.347656 29.042969-19.160156 64.570313-25.835937 98.585938-18.519531 47.621093 11.46875 84.933593 48.4375 96.835937 95.953125 11.90625-47.515625 49.21875-84.484375 96.839844-95.953125 13.914062-3.210938 28.28125-3.988282 42.460938-2.296875 55.765624 7.171875 100.777343 49.058593 111.933593 104.164062 29.308594 136.742188-80.683593 247.878907-193.414062 306.320313zm0 0" fill="#c03a2b"/><path d="m450.242188 149.738281c.019531 82.753907-44.523438 159.109375-116.574219 199.824219-72.046875 40.714844-160.4375 39.476562-231.320313-3.234375-69.738281-61.441406-118.199218-145.039063-97.542968-241.257813 6.65625-34.148437 26.769531-64.1875 55.808593-83.347656 29.042969-19.164062 64.570313-25.835937 98.585938-18.523437 47.621093 11.46875 84.933593 48.441406 96.835937 95.957031 11.90625-47.515625 49.21875-84.488281 96.839844-95.957031 13.914062-3.2109378 28.28125-3.988281 42.460938-2.296875 35.515624 41.449218 54.996093 94.253906 54.90625 148.835937zm0 0" fill="#e64c3c"/><path d="m136.351562 23.6875c-30.28125-20.496094-78.089843-2.746094-106.78125 39.644531-28.695312 42.394531-27.410156 93.375 2.871094 113.871094s78.089844 2.746094 106.78125-39.648437c28.695313-42.390626 27.410156-93.371094-2.871094-113.867188zm0 0" fill="#fb7b76"/><path d="m185.414062 243.105469c0-12.1875-17.785156-22.066407-39.722656-22.066407s-39.722656 9.878907-39.722656 22.066407c0 12.191406 17.785156 22.070312 39.722656 22.070312s39.722656-9.878906 39.722656-22.070312zm0 0" fill="#fb7b76"/><path d="m406.105469 243.105469c0-12.1875-17.785157-22.066407-39.722657-22.066407-21.941406 0-39.726562 9.878907-39.726562 22.066407 0 12.191406 17.785156 22.070312 39.726562 22.070312 21.9375 0 39.722657-9.878906 39.722657-22.070312zm0 0" fill="#fb7b76"/><path d="m220.726562 221.039062h70.621094c9.75 0 17.65625 7.902344 17.65625 17.652344v35.3125c0 9.75-7.90625 17.65625-17.65625 17.65625h-70.621094c-9.75 0-17.65625-7.90625-17.65625-17.65625v-35.3125c0-9.75 7.90625-17.652344 17.65625-17.652344zm0 0" fill="#802d40"/><path d="m282.519531 282.832031v8.828125h-52.964843v-8.828125c0-14.628906 11.855468-26.484375 26.480468-26.484375 14.628906 0 26.484375 11.855469 26.484375 26.484375zm0 0" fill="#df4d60"/><path d="m282.519531 282.832031h-52.964843c0-14.628906 11.855468-26.484375 26.480468-26.484375 14.628906 0 26.484375 11.855469 26.484375 26.484375zm0 0" fill="#ff5364"/><path d="m467.898438 159.246094c0 19.5-15.808594 35.308594-35.308594 35.308594-19.503906 0-35.3125-15.808594-35.3125-35.308594.035156-1.273438.152344-2.542969.355468-3.796875v-.089844c3.96875-19.773437 34.957032-49.082031 34.957032-49.082031s30.984375 29.308594 34.957031 49.082031v.089844c.199219 1.253906.316406 2.523437.351563 3.796875zm0 0" fill="#2fa8cc"/><path d="m467.546875 155.359375v.089844c-2.480469 17.402343-17.382813 30.328125-34.957031 30.328125-17.578125 0-32.480469-12.925782-34.957032-30.328125v-.089844c3.96875-19.773437 34.957032-49.082031 34.957032-49.082031s30.984375 29.308594 34.957031 49.082031zm0 0" fill="#67b9cc"/><path d="m432.589844 163.660156c0 7.3125-5.929688 13.238282-13.242188 13.238282s-13.242187-5.925782-13.242187-13.238282c0-7.316406 5.929687-13.242187 13.242187-13.242187s13.242188 5.925781 13.242188 13.242187zm0 0" fill="#b0d3f0"/><path d="m167.761719 212.210938c-14.628907 0-26.484375-11.859376-26.484375-26.484376s11.855468-26.480468 26.484375-26.480468c14.625 0 26.480469 11.855468 26.480469 26.480468s-11.855469 26.484376-26.480469 26.484376zm0 0" fill="#2c3e50"/><path d="m344.3125 212.210938c-14.625 0-26.484375-11.859376-26.484375-26.484376s11.859375-26.480468 26.484375-26.480468 26.484375 11.855468 26.484375 26.480468-11.859375 26.484376-26.484375 26.484376zm0 0" fill="#2c3e50"/><g fill="#ecf0f1"><path d="m167.761719 176.898438c0 4.875-3.953125 8.828124-8.828125 8.828124s-8.828125-3.953124-8.828125-8.828124 3.953125-8.828126 8.828125-8.828126 8.828125 3.953126 8.828125 8.828126zm0 0"/><path d="m185.414062 190.140625c0 7.3125-5.925781 13.242187-13.238281 13.242187s-13.242187-5.929687-13.242187-13.242187 5.929687-13.242187 13.242187-13.242187 13.238281 5.929687 13.238281 13.242187zm0 0"/><path d="m344.3125 176.898438c0 4.875-3.953125 8.828124-8.828125 8.828124s-8.828125-3.953124-8.828125-8.828124 3.953125-8.828126 8.828125-8.828126 8.828125 3.953126 8.828125 8.828126zm0 0"/><path d="m361.96875 190.140625c0 7.3125-5.929688 13.242187-13.242188 13.242187s-13.242187-5.929687-13.242187-13.242187 5.929687-13.242187 13.242187-13.242187 13.242188 5.929687 13.242188 13.242187zm0 0"/></g></svg>