<svg height="512pt" viewBox="0 -35 512.0669 512" width="512pt" xmlns="http://www.w3.org/2000/svg"><path d="m313.855469 411.714844-57.820313 30.011718-57.820312-30.011718c-34.453125-17.753906-66.644532-39.597656-95.867188-65.058594-69.738281-61.441406-118.199218-145.039062-97.542968-241.261719 6.65625-34.148437 26.769531-64.183593 55.808593-83.347656 29.042969-19.160156 64.570313-25.835937 98.585938-18.519531 47.621093 11.46875 84.933593 48.4375 96.835937 95.953125 11.90625-47.515625 49.21875-84.484375 96.839844-95.953125 13.914062-3.210938 28.28125-3.988282 42.460938-2.296875 55.765624 7.171875 100.777343 49.058593 111.933593 104.164062 29.308594 136.742188-80.683593 247.878907-193.414062 306.320313zm0 0" fill="#c03a2b"/><path d="m450.242188 149.738281c.019531 82.753907-44.523438 159.109375-116.574219 199.824219-72.046875 40.714844-160.4375 39.476562-231.320313-3.234375-69.738281-61.441406-118.199218-145.039063-97.542968-241.257813 6.65625-34.148437 26.769531-64.1875 55.808593-83.347656 29.042969-19.164062 64.570313-25.835937 98.585938-18.523437 47.621093 11.46875 84.933593 48.441406 96.835937 95.957031 11.90625-47.515625 49.21875-84.488281 96.839844-95.957031 13.914062-3.2109378 28.28125-3.988281 42.460938-2.296875 35.515624 41.449218 54.996093 94.253906 54.90625 148.835937zm0 0" fill="#e64c3c"/><g fill="#fb7b76"><path d="m136.351562 23.6875c-30.28125-20.496094-78.089843-2.746094-106.78125 39.644531-28.695312 42.394531-27.410156 93.375 2.871094 113.871094s78.089844 2.746094 106.78125-39.648437c28.695313-42.390626 27.410156-93.371094-2.871094-113.867188zm0 0"/><path d="m185.414062 243.105469c0-12.1875-17.785156-22.066407-39.722656-22.066407s-39.722656 9.878907-39.722656 22.066407c0 12.191406 17.785156 22.070312 39.722656 22.070312s39.722656-9.878906 39.722656-22.070312zm0 0"/><path d="m406.105469 243.105469c0-12.1875-17.785157-22.066407-39.722657-22.066407-21.941406 0-39.726562 9.878907-39.726562 22.066407 0 12.191406 17.785156 22.070312 39.726562 22.070312 21.9375 0 39.722657-9.878906 39.722657-22.070312zm0 0"/></g><path d="m300.175781 247.519531v26.484375c0 9.75-7.90625 17.65625-17.65625 17.65625s-17.65625-7.90625-17.65625-17.65625v-8.828125h-35.308593c-9.75 0-17.65625-7.90625-17.65625-17.65625s7.90625-17.652343 17.65625-17.652343h52.964843c9.75 0 17.65625 7.902343 17.65625 17.652343zm0 0" fill="#802d40"/><path d="m220.726562 150.417969c0 34.125-27.667968 61.792969-61.792968 61.792969-34.128906 0-61.792969-27.667969-61.792969-61.792969 0-34.128907 27.664063-61.792969 61.792969-61.792969 34.125 0 61.792968 27.664062 61.792968 61.792969zm0 0" fill="#ecf0f1"/><path d="m414.933594 150.417969c0 34.125-27.667969 61.792969-61.792969 61.792969-34.128906 0-61.792969-27.667969-61.792969-61.792969 0-34.128907 27.664063-61.792969 61.792969-61.792969 34.125 0 61.792969 27.664062 61.792969 61.792969zm0 0" fill="#ecf0f1"/><path d="m159.101562 212.210938c-33.976562.003906-61.546874-27.492188-61.636718-61.46875 0-4.875 3.953125-8.824219 8.828125-8.824219s8.828125 3.949219 8.828125 8.824219c.339844 24.046874 19.929687 43.359374 43.976562 43.359374 24.042969 0 43.632813-19.3125 43.972656-43.359374.175782-9.515626-4.804687-18.386719-13.019531-23.195313-8.214843-4.8125-18.386719-4.8125-26.601562 0-8.214844 4.808594-13.191407 13.679687-13.015625 23.195313 0 4.875 3.949218 8.828124 8.824218 8.828124 4.878907 0 8.828126-3.953124 8.828126-8.828124s3.953124-8.824219 8.828124-8.824219 8.828126 3.949219 8.828126 8.824219c0 14.628906-11.855469 26.484374-26.484376 26.484374-14.625 0-26.480468-11.855468-26.480468-26.484374-.226563-15.859376 8.105468-30.609376 21.804687-38.605469 13.699219-7.992188 30.640625-7.992188 44.339844 0 13.695313 7.996093 22.027344 22.746093 21.804687 38.605469-.082031 33.976562-27.652343 61.472656-61.625 61.46875zm0 0" fill="#2c3e50"/><path d="m352.972656 212.210938c-33.976562.003906-61.542968-27.492188-61.625-61.46875 0-4.875 3.953125-8.824219 8.828125-8.824219s8.828125 3.949219 8.828125 8.824219c.339844 24.046874 19.925782 43.359374 43.972656 43.359374 24.046876 0 43.632813-19.3125 43.976563-43.359374.171875-9.515626-4.804687-18.386719-13.019531-23.195313-8.214844-4.8125-18.386719-4.8125-26.601563 0-8.214843 4.808594-13.195312 13.679687-13.019531 23.195313 0 4.875 3.953125 8.828124 8.828125 8.828124s8.828125-3.953124 8.828125-8.828124 3.949219-8.824219 8.828125-8.824219c4.875 0 8.824219 3.949219 8.824219 8.824219 0 14.628906-11.855469 26.484374-26.480469 26.484374s-26.484375-11.855468-26.484375-26.484374c-.222656-15.859376 8.109375-30.609376 21.804688-38.605469 13.699218-7.992188 30.640624-7.992188 44.339843 0 13.699219 7.996093 22.03125 22.746093 21.804688 38.605469-.085938 33.976562-27.65625 61.472656-61.632813 61.46875zm0 0" fill="#2c3e50"/></svg>