<svg height="512pt" viewBox="0 -35 512.0669 512" width="512pt" xmlns="http://www.w3.org/2000/svg"><path d="m313.855469 411.386719-57.820313 30.015625-57.820312-30.015625c-34.453125-17.753907-66.644532-39.597657-95.867188-65.058594-69.738281-61.441406-118.199218-145.039063-97.542968-241.257813 6.65625-34.148437 26.769531-64.1875 55.808593-83.347656 29.042969-19.164062 64.570313-25.835937 98.585938-18.523437 47.621093 11.46875 84.933593 48.441406 96.835937 95.957031 11.90625-47.515625 49.21875-84.488281 96.839844-95.957031 13.914062-3.2109378 28.28125-3.988281 42.460938-2.296875 55.765624 7.175781 100.777343 49.058594 111.933593 104.167968 29.308594 136.738282-80.683593 247.878907-193.414062 306.316407zm0 0" fill="#c03a2b"/><path d="m450.242188 149.753906c.019531 82.757813-44.523438 159.113282-116.574219 199.824219-72.046875 40.714844-160.4375 39.480469-231.320313-3.234375-69.703125-61.4375-118.199218-145.054688-97.507812-241.273438 6.65625-34.148437 26.769531-64.1875 55.808594-83.347656 29.042968-19.164062 64.570312-25.835937 98.585937-18.523437 47.613281 11.484375 84.910156 48.460937 96.800781 95.972656 11.90625-47.515625 49.21875-84.484375 96.839844-95.953125 13.914062-3.2109375 28.28125-3.988281 42.460938-2.296875 35.515624 41.445313 54.996093 94.25 54.90625 148.832031zm0 0" fill="#e64c3c"/><path d="m136.351562 23.359375c-30.28125-20.496094-78.089843-2.746094-106.78125 39.648437-28.695312 42.390626-27.410156 93.375 2.871094 113.871094s78.089844 2.742188 106.78125-39.648437c28.695313-42.394531 27.410156-93.375-2.871094-113.871094zm0 0" fill="#fb7b76"/><path d="m185.414062 242.78125c0-12.191406-17.785156-22.070312-39.722656-22.070312s-39.722656 9.878906-39.722656 22.070312c0 12.1875 17.785156 22.066406 39.722656 22.066406s39.722656-9.878906 39.722656-22.066406zm0 0" fill="#fb7b76"/><path d="m406.105469 242.78125c0-12.191406-17.785157-22.070312-39.722657-22.070312-21.941406 0-39.726562 9.878906-39.726562 22.070312 0 12.1875 17.785156 22.066406 39.726562 22.066406 21.9375 0 39.722657-9.878906 39.722657-22.066406zm0 0" fill="#fb7b76"/><path d="m198.570312 184.871094c-6.476562 11.933594-19.222656 19.097656-32.785156 18.425781-13.558594-.671875-25.535156-9.058594-30.800781-21.574219s-2.886719-26.941406 6.117187-37.105468l5.03125 3.53125 52.257813 36.632812zm0 0" fill="#2c3e50"/><path d="m379.621094 167.746094c.019531 16.085937-10.847656 30.148437-26.421875 34.179687-15.574219 4.035157-31.902344-2.980469-39.695313-17.054687l57.46875-40.253906c5.570313 6.417968 8.644532 14.628906 8.648438 23.128906zm0 0" fill="#2c3e50"/><g fill="#ecf0f1"><path d="m158.933594 167.746094c0 4.875-3.953125 8.828125-8.828125 8.828125s-8.828125-3.953125-8.828125-8.828125 3.953125-8.828125 8.828125-8.828125 8.828125 3.953125 8.828125 8.828125zm0 0"/><path d="m370.796875 167.746094c0 4.875-3.953125 8.828125-8.828125 8.828125s-8.828125-3.953125-8.828125-8.828125 3.953125-8.828125 8.828125-8.828125 8.828125 3.953125 8.828125 8.828125zm0 0"/><path d="m185.414062 185.402344c0 9.75-7.902343 17.652344-17.652343 17.652344s-17.65625-7.902344-17.65625-17.652344c0-9.753906 7.90625-17.65625 17.65625-17.65625s17.652343 7.902344 17.652343 17.65625zm0 0"/><path d="m361.96875 185.402344c0 9.75-7.90625 17.652344-17.65625 17.652344s-17.65625-7.902344-17.65625-17.652344c0-9.753906 7.90625-17.65625 17.65625-17.65625s17.65625 7.902344 17.65625 17.65625zm0 0"/></g><path d="m299.539062 229.539062c2.515626 0 4.914063 1.070313 6.589844 2.949219 1.675782 1.878907 2.472656 4.382813 2.183594 6.882813-1.234375 12.175781-4.710938 24.015625-10.257812 34.921875-8 15.867187-24.25 25.871093-42.019532 25.871093-17.765625 0-34.019531-10.003906-42.019531-25.871093-5.542969-10.90625-9.023437-22.746094-10.257813-34.921875-.285156-2.5.507813-5.003906 2.183594-6.882813 1.675782-1.878906 4.074219-2.949219 6.59375-2.949219zm0 0" fill="#802d40"/><path d="m298.054688 274.292969c-8 15.867187-24.25 25.871093-42.019532 25.871093-17.765625 0-34.019531-10.003906-42.019531-25.871093 1.414063-.703125 2.828125-1.410157 4.328125-2.117188 24.179688-9.769531 51.207031-9.769531 75.386719 0 1.5.707031 2.914062 1.414063 4.324219 2.117188zm0 0" fill="#df4d60"/><path d="m293.730469 272.175781c-8.429688 12.449219-22.667969 19.6875-37.695313 19.15625-15.023437.53125-29.265625-6.707031-37.691406-19.15625 24.179688-9.769531 51.207031-9.769531 75.386719 0zm0 0" fill="#ff5364"/></svg>