<svg height="512pt" viewBox="0 -35 512.0669 512" width="512pt" xmlns="http://www.w3.org/2000/svg"><path d="m313.855469 411.386719-57.820313 30.015625-57.820312-30.015625c-34.453125-17.753907-66.644532-39.597657-95.867188-65.058594-69.738281-61.441406-118.199218-145.039063-97.542968-241.257813 6.65625-34.148437 26.769531-64.1875 55.808593-83.347656 29.042969-19.164062 64.570313-25.835937 98.585938-18.523437 47.621093 11.46875 84.933593 48.441406 96.835937 95.957031 11.90625-47.515625 49.21875-84.488281 96.839844-95.957031 13.914062-3.2109378 28.28125-3.988281 42.460938-2.296875 55.765624 7.175781 100.777343 49.058594 111.933593 104.167968 29.308594 136.738282-80.683593 247.878907-193.414062 306.316407zm0 0" fill="#c03a2b"/><path d="m450.242188 149.753906c.019531 82.757813-44.523438 159.113282-116.574219 199.824219-72.046875 40.714844-160.4375 39.480469-231.320313-3.234375-69.703125-61.4375-118.199218-145.054688-97.507812-241.273438 6.65625-34.148437 26.769531-64.1875 55.808594-83.347656 29.042968-19.164062 64.570312-25.835937 98.585937-18.523437 47.613281 11.484375 84.910156 48.460937 96.800781 95.972656 11.90625-47.515625 49.21875-84.484375 96.839844-95.953125 13.914062-3.2109375 28.28125-3.988281 42.460938-2.296875 35.515624 41.445313 54.996093 94.25 54.90625 148.832031zm0 0" fill="#e64c3c"/><g fill="#fb7b76"><path d="m136.351562 23.359375c-30.28125-20.496094-78.089843-2.746094-106.78125 39.648437-28.695312 42.390626-27.410156 93.375 2.871094 113.871094s78.089844 2.742188 106.78125-39.648437c28.695313-42.394531 27.410156-93.375-2.871094-113.871094zm0 0"/><path d="m185.414062 242.78125c0-12.191406-17.785156-22.070312-39.722656-22.070312s-39.722656 9.878906-39.722656 22.070312c0 12.1875 17.785156 22.066406 39.722656 22.066406s39.722656-9.878906 39.722656-22.066406zm0 0"/><path d="m406.105469 242.78125c0-12.191406-17.785157-22.070312-39.722657-22.070312-21.941406 0-39.726562 9.878906-39.726562 22.070312 0 12.1875 17.785156 22.066406 39.726562 22.066406 21.9375 0 39.722657-9.878906 39.722657-22.066406zm0 0"/></g><path d="m299.539062 229.539062c2.515626 0 4.914063 1.070313 6.589844 2.949219 1.675782 1.878907 2.472656 4.382813 2.183594 6.882813-1.234375 12.175781-4.710938 24.015625-10.257812 34.921875-8 15.867187-24.25 25.871093-42.019532 25.871093-17.765625 0-34.019531-10.003906-42.019531-25.871093-5.542969-10.90625-9.023437-22.746094-10.257813-34.921875-.285156-2.5.507813-5.003906 2.183594-6.882813 1.675782-1.878906 4.074219-2.949219 6.59375-2.949219zm0 0" fill="#802d40"/><path d="m298.054688 274.292969c-8 15.867187-24.25 25.871093-42.019532 25.871093-17.765625 0-34.019531-10.003906-42.019531-25.871093 1.414063-.703125 2.828125-1.410157 4.328125-2.117188 24.179688-9.769531 51.207031-9.769531 75.386719 0 1.5.707031 2.914062 1.414063 4.324219 2.117188zm0 0" fill="#df4d60"/><path d="m293.730469 272.175781c-8.429688 12.449219-22.667969 19.6875-37.695313 19.15625-15.023437.53125-29.265625-6.707031-37.691406-19.15625 24.179688-9.769531 51.207031-9.769531 75.386719 0zm0 0" fill="#ff5364"/><path d="m220.726562 150.089844c0 34.128906-27.667968 61.792968-61.792968 61.792968-34.128906 0-61.792969-27.664062-61.792969-61.792968 0-34.125 27.664063-61.792969 61.792969-61.792969 34.125 0 61.792968 27.667969 61.792968 61.792969zm0 0" fill="#ecf0f1"/><path d="m414.933594 150.089844c0 34.128906-27.667969 61.792968-61.792969 61.792968-34.128906 0-61.792969-27.664062-61.792969-61.792968 0-34.125 27.664063-61.792969 61.792969-61.792969 34.125 0 61.792969 27.667969 61.792969 61.792969zm0 0" fill="#ecf0f1"/><path d="m159.101562 211.882812c-33.976562.003907-61.546874-27.488281-61.636718-61.464843 0-4.875 3.953125-8.828125 8.828125-8.828125s8.828125 3.953125 8.828125 8.828125c.339844 24.042969 19.929687 43.355469 43.976562 43.355469 24.042969 0 43.632813-19.3125 43.972656-43.355469.175782-9.519531-4.804687-18.390625-13.019531-23.199219-8.214843-4.808594-18.386719-4.808594-26.601562 0-8.214844 4.808594-13.191407 13.679688-13.015625 23.199219 0 4.875 3.949218 8.828125 8.824218 8.828125 4.878907 0 8.828126-3.953125 8.828126-8.828125s3.953124-8.828125 8.828124-8.828125 8.828126 3.953125 8.828126 8.828125c0 14.625-11.855469 26.480469-26.484376 26.480469-14.625 0-26.480468-11.855469-26.480468-26.480469-.226563-15.859375 8.105468-30.613281 21.804687-38.605469 13.699219-7.996094 30.640625-7.996094 44.339844 0 13.695313 7.992188 22.027344 22.746094 21.804687 38.605469-.082031 33.972656-27.652343 61.46875-61.625 61.464843zm0 0" fill="#2c3e50"/><path d="m352.972656 211.882812c-33.976562.003907-61.542968-27.492187-61.625-61.464843 0-4.875 3.953125-8.828125 8.828125-8.828125s8.828125 3.953125 8.828125 8.828125c.339844 24.042969 19.925782 43.355469 43.972656 43.355469 24.046876 0 43.632813-19.3125 43.976563-43.355469.171875-9.519531-4.804687-18.390625-13.019531-23.199219s-18.386719-4.808594-26.601563 0c-8.214843 4.808594-13.195312 13.679688-13.019531 23.199219 0 4.875 3.953125 8.828125 8.828125 8.828125s8.828125-3.953125 8.828125-8.828125 3.949219-8.828125 8.828125-8.828125c4.875 0 8.824219 3.953125 8.824219 8.828125 0 14.625-11.855469 26.480469-26.480469 26.480469s-26.484375-11.855469-26.484375-26.480469c-.222656-15.859375 8.109375-30.613281 21.804688-38.605469 13.699218-7.996094 30.640624-7.996094 44.339843 0 13.699219 7.992188 22.03125 22.746094 21.804688 38.605469-.085938 33.976562-27.65625 61.46875-61.632813 61.464843zm0 0" fill="#2c3e50"/></svg>