<svg height="512pt" viewBox="0 -35 512.0669 512" width="512pt" xmlns="http://www.w3.org/2000/svg"><path d="m313.855469 411.386719-57.820313 30.015625-57.820312-30.015625c-34.453125-17.753907-66.644532-39.597657-95.867188-65.058594-69.738281-61.441406-118.199218-145.039063-97.542968-241.257813 6.65625-34.148437 26.769531-64.1875 55.808593-83.347656 29.042969-19.164062 64.570313-25.835937 98.585938-18.523437 47.621093 11.46875 84.933593 48.441406 96.835937 95.957031 11.90625-47.515625 49.21875-84.488281 96.839844-95.957031 13.914062-3.2109378 28.28125-3.988281 42.460938-2.296875 55.765624 7.175781 100.777343 49.058594 111.933593 104.167968 29.308594 136.738282-80.683593 247.878907-193.414062 306.316407zm0 0" fill="#c03a2b"/><path d="m450.242188 149.753906c.019531 82.757813-44.523438 159.113282-116.574219 199.824219-72.046875 40.714844-160.4375 39.480469-231.320313-3.234375-69.703125-61.4375-118.199218-145.054688-97.507812-241.273438 6.65625-34.148437 26.769531-64.1875 55.808594-83.347656 29.042968-19.164062 64.570312-25.835937 98.585937-18.523437 47.613281 11.484375 84.910156 48.460937 96.800781 95.972656 11.90625-47.515625 49.21875-84.484375 96.839844-95.953125 13.914062-3.2109375 28.28125-3.988281 42.460938-2.296875 35.515624 41.445313 54.996093 94.25 54.90625 148.832031zm0 0" fill="#e64c3c"/><path d="m136.351562 23.359375c-30.28125-20.496094-78.089843-2.746094-106.78125 39.648437-28.695312 42.390626-27.410156 93.375 2.871094 113.871094s78.089844 2.742188 106.78125-39.648437c28.695313-42.394531 27.410156-93.375-2.871094-113.871094zm0 0" fill="#fb7b76"/><path d="m185.414062 242.78125c0-12.191406-17.785156-22.070312-39.722656-22.070312s-39.722656 9.878906-39.722656 22.070312c0 12.1875 17.785156 22.066406 39.722656 22.066406s39.722656-9.878906 39.722656-22.066406zm0 0" fill="#fb7b76"/><path d="m406.105469 242.78125c0-12.191406-17.785157-22.070312-39.722657-22.070312-21.941406 0-39.726562 9.878906-39.726562 22.070312 0 12.1875 17.785156 22.066406 39.726562 22.066406 21.9375 0 39.722657-9.878906 39.722657-22.066406zm0 0" fill="#fb7b76"/><path d="m309.003906 264.847656c-2.34375 0-4.589844-.929687-6.242187-2.585937l-11.414063-11.414063-11.414062 11.414063c-3.449219 3.445312-9.035156 3.445312-12.484375 0l-11.414063-11.414063-11.414062 11.414063c-3.445313 3.445312-9.035156 3.445312-12.480469 0l-11.414063-11.414063-11.414062 11.414063c-3.464844 3.347656-8.96875 3.296875-12.375-.105469-3.40625-3.40625-3.453125-8.910156-.109375-12.375l17.65625-17.65625c3.449219-3.445312 9.035156-3.445312 12.484375 0l11.414062 11.414062 11.414063-11.414062c3.445313-3.445312 9.035156-3.445312 12.480469 0l11.414062 11.414062 11.414063-11.414062c3.449219-3.445312 9.035156-3.445312 12.484375 0l17.652344 17.65625c2.523437 2.523438 3.28125 6.320312 1.914062 9.617188-1.367188 3.300781-4.585938 5.449218-8.152344 5.449218zm0 0" fill="#802d40"/><path d="m167.761719 211.882812c-14.628907 0-26.484375-11.855468-26.484375-26.480468 0-14.628906 11.855468-26.484375 26.484375-26.484375 14.625 0 26.480469 11.855469 26.480469 26.484375 0 14.625-11.855469 26.480468-26.480469 26.480468zm0 0" fill="#2c3e50"/><path d="m344.3125 211.882812c-14.625 0-26.484375-11.855468-26.484375-26.480468 0-14.628906 11.859375-26.484375 26.484375-26.484375s26.484375 11.855469 26.484375 26.484375c0 14.625-11.859375 26.480468-26.484375 26.480468zm0 0" fill="#2c3e50"/><g fill="#ecf0f1"><path d="m167.761719 176.574219c0 4.875-3.953125 8.828125-8.828125 8.828125s-8.828125-3.953125-8.828125-8.828125 3.953125-8.828125 8.828125-8.828125 8.828125 3.953125 8.828125 8.828125zm0 0"/><path d="m185.414062 189.816406c0 7.3125-5.925781 13.238282-13.238281 13.238282s-13.242187-5.925782-13.242187-13.238282c0-7.316406 5.929687-13.242187 13.242187-13.242187s13.238281 5.925781 13.238281 13.242187zm0 0"/><path d="m344.3125 176.574219c0 4.875-3.953125 8.828125-8.828125 8.828125s-8.828125-3.953125-8.828125-8.828125 3.953125-8.828125 8.828125-8.828125 8.828125 3.953125 8.828125 8.828125zm0 0"/><path d="m361.96875 189.816406c0 7.3125-5.929688 13.238282-13.242188 13.238282s-13.242187-5.925782-13.242187-13.238282c0-7.316406 5.929687-13.242187 13.242187-13.242187s13.242188 5.925781 13.242188 13.242187zm0 0"/></g></svg>