<svg id="Layer" enable-background="new 0 0 512 512" height="512" viewBox="0 0 512 512" width="512" xmlns="http://www.w3.org/2000/svg"><path d="m466.85 97.12c-.28-.36-.57-.73-.86-1.09-2.19-2.73-4.59-5.28-7.19-7.63-11.34-10.19-26.34-16.4-42.8-16.4h-320c-35.35 0-64 28.65-64 64v216h448v-216c0-14.62-4.9-28.1-13.15-38.88z" fill="#92f8fd"/><g><path d="m466.85 97.12c-84.41 75.44-206.53 95.48-300.09 160.32-44.46 30.81-83.95 72.47-134.76 89.13v-210.57c0-35.35 28.65-64 64-64h320c16.46 0 31.46 6.21 42.8 16.4 2.6 2.35 5 4.9 7.19 7.63.29.36.58.73.86 1.09z" fill="#77f6fc"/></g><path d="m478 328h-444c-18.75 0-34 15.25-34 34v14c0 35.29 28.71 64 64 64h384c35.29 0 64-28.71 64-64v-14c0-18.75-15.25-34-34-34z" fill="#f0eaea"/><path d="m512 376c0 35.29-28.71 64-64 64h-384c-35.29 0-64-28.71-64-64z" fill="#dfd5d2"/></svg>