<svg id="Layer" enable-background="new 0 0 512 512" height="512" viewBox="0 0 512 512" width="512" xmlns="http://www.w3.org/2000/svg"><path d="m395.89 30.61c-.52-.72-1.05-1.43-1.6-2.13-3.97-5.09-8.6-9.65-13.75-13.54-12.4-9.37-27.83-14.94-44.54-14.94h-160c-40.8 0-74 33.2-74 74v366c0 6.25.78 12.33 2.25 18.13 2.02 7.99 5.35 15.47 9.74 22.19.01.02.02.03.03.05 13.21 20.23 36.06 33.63 61.98 33.63h160c40.8 0 74-33.2 74-74v-366c0-16.19-5.23-31.19-14.11-43.39z" fill="#92f8fd"/><g><path d="m394.29 28.48c-2.5 2.13-4.84 4.42-6.95 6.7-27.81 30.02-49.93 64.77-72.02 99.23-69.51 108.46-140.26 216.11-211.07 323.72-1.47-5.8-2.25-11.88-2.25-18.13v-366c0-40.8 33.2-74 74-74h160c16.71 0 32.14 5.57 44.54 14.94 5.15 3.89 9.78 8.45 13.75 13.54z" fill="#77f6fc"/></g><path d="m232 24h48c8.837 0 16 7.163 16 16 0 8.837-7.163 16-16 16h-48c-8.837 0-16-7.163-16-16 0-8.837 7.163-16 16-16z" fill="#f0eaea"/></svg>