<svg id="Layer" enable-background="new 0 0 512 512" height="512" viewBox="0 0 512 512" width="512" xmlns="http://www.w3.org/2000/svg"><path d="m440 200v48c0 13.25-10.75 24-24 24s-24-10.75-24-24v-48c0-37.29-15.08-71.12-39.48-95.71-24.65-24.87-58.82-40.29-96.52-40.29s-71.87 15.42-96.52 40.29c-24.4 24.59-39.48 58.42-39.48 95.71v48c0 13.25-10.75 24-24 24s-24-10.75-24-24v-48c0-53.61 23.05-101.94 59.75-135.6 32.76-30.04 76.4-48.4 124.25-48.4s91.49 18.36 124.25 48.4c36.7 33.66 59.75 81.99 59.75 135.6z" fill="#f0eaea"/><path d="m120 243.04c-7.67-1.98-15.72-3.04-24-3.04-52.93 0-96 43.07-96 96v64c0 52.93 43.07 96 96 96 8.28 0 16.33-1.06 24-3.04 41.36-10.68 72-48.31 72-92.96v-64c0-44.65-30.64-82.28-72-92.96z" fill="#dfd5d2"/><path d="m416 240c-8.28 0-16.33 1.06-24 3.04-41.36 10.68-72 48.31-72 92.96v64c0 44.65 30.64 82.28 72 92.96 7.67 1.98 15.72 3.04 24 3.04 52.93 0 96-43.07 96-96v-64c0-52.93-43.07-96-96-96z" fill="#dfd5d2"/><path d="m256 16c-47.85 0-91.49 18.36-124.25 48.4 5.03 15.95 14.83 29.82 27.73 39.89 13.86 10.84 31.29 17.3 50.19 17.3h92.66c18.9 0 36.33-6.46 50.19-17.3 12.9-10.07 22.7-23.94 27.73-39.89-32.76-30.04-76.4-48.4-124.25-48.4z" fill="#fed5b9"/><g fill="#eae1e1"><path d="m512 336v64c0 52.93-43.07 96-96 96-8.28 0-16.33-1.06-24-3.04v-249.92c7.67-1.98 15.72-3.04 24-3.04 52.93 0 96 43.07 96 96z"/><path d="m120 243.04v249.92c-7.67 1.98-15.72 3.04-24 3.04-52.93 0-96-43.07-96-96v-64c0-52.93 43.07-96 96-96 8.28 0 16.33 1.06 24 3.04z"/></g></svg>