<svg id="Layer" enable-background="new 0 0 512 512" height="512" viewBox="0 0 512 512" width="512" xmlns="http://www.w3.org/2000/svg"><path d="m280 .32c-3.31-.21-6.64-.32-10-.32h-28c-3.36 0-6.69.11-10 .32-80.28 5.17-144 72.12-144 153.68v204c0 84.92 69.08 154 154 154h28c84.92 0 154-69.08 154-154v-204c0-81.56-63.72-148.51-144-153.68z" fill="#f0eaea"/><g fill="#dfd5d2"><path d="m280 .32v151.68c0 13.25-10.75 24-24 24s-24-10.75-24-24v-151.68c3.31-.21 6.64-.32 10-.32h28c3.36 0 6.69.11 10 .32z"/><path d="m256 264c-13.255 0-24-10.745-24-24v-16c0-13.255 10.745-24 24-24s24 10.745 24 24v16c0 13.255-10.745 24-24 24z"/></g></svg>