<svg id="Layer" enable-background="new 0 0 512 512" height="512" viewBox="0 0 512 512" width="512" xmlns="http://www.w3.org/2000/svg"><path d="m400 464c-61.757 0-112-50.243-112-112v-16h-64v16c0 61.757-50.243 112-112 112s-112-50.243-112-112v-180c0-68.374 55.626-124 124-124h264c68.374 0 124 55.626 124 124v180c0 61.757-50.243 112-112 112z" fill="#f0eaea"/><path d="m192 168h-24v-24c0-13.255-10.745-24-24-24s-24 10.745-24 24v24h-24c-13.255 0-24 10.745-24 24s10.745 24 24 24h24v24c0 13.255 10.745 24 24 24s24-10.745 24-24v-24h24c13.255 0 24-10.745 24-24s-10.745-24-24-24z" fill="#fed5b9"/><circle cx="368.015" cy="144.005" fill="#feb6c4" r="24.005"/><circle cx="320.005" cy="192.005" fill="#feb6c4" r="24.005"/><g fill="#5be0d5"><path d="m368.015 216.01c-13.255 0-24.005 10.75-24.005 24.005s10.75 24.005 24.005 24.005 24.005-10.75 24.005-24.005-10.75-24.005-24.005-24.005z"/><path d="m416.005 168.01c-13.255 0-24.005 10.75-24.005 24.005s10.75 24.005 24.005 24.005 24.005-10.75 24.005-24.005-10.75-24.005-24.005-24.005z"/></g></svg>