<svg id="Layer" enable-background="new 0 0 512 512" height="512" viewBox="0 0 512 512" width="512" xmlns="http://www.w3.org/2000/svg"><path d="m344 488h-176v-112h176z" fill="#f0eaea"/><path d="m501.23 20.37c-.8-1.05-1.64-2.07-2.52-3.05-1.28-1.43-2.63-2.78-4.06-4.05-9.2-8.25-21.35-13.27-34.65-13.27h-408c-28.67 0-52 23.33-52 52v296c0 10.25 2.98 19.82 8.13 27.88 1.35 2.11 2.84 4.12 4.47 6.01 9.54 11.08 23.66 18.11 39.4 18.11h408c28.67 0 52-23.33 52-52v-296c0-11.89-4.02-22.87-10.77-31.63z" fill="#92f8fd"/><path d="m384 512h-256c-13.255 0-24-10.745-24-24s10.745-24 24-24h256c13.255 0 24 10.745 24 24s-10.745 24-24 24z" fill="#dfd5d2"/><path d="m272 368h-32c-13.255 0-24-10.745-24-24s10.745-24 24-24h32c13.255 0 24 10.745 24 24s-10.745 24-24 24z" fill="#dfd5d2"/><g><path d="m498.71 17.32c-66.57 44.58-135.67 85.38-206.87 122.14-37.79 19.5-76.19 37.88-113.01 59.16-65.68 37.96-126.02 85.12-178.83 139.57v-286.19c0-28.67 23.33-52 52-52h408c13.3 0 25.45 5.02 34.65 13.27 1.43 1.27 2.78 2.62 4.06 4.05z" fill="#77f6fc"/></g></svg>