<svg id="Layer" enable-background="new 0 0 512 512" height="512" viewBox="0 0 512 512" width="512" xmlns="http://www.w3.org/2000/svg"><path d="m104 264c-13.255 0-24-10.745-24-24v-144c0-13.255 10.745-24 24-24s24 10.745 24 24v144c0 13.255-10.745 24-24 24z" fill="#dfd5d2"/><path d="m184 264c-13.255 0-24-10.745-24-24v-144c0-13.255 10.745-24 24-24s24 10.745 24 24v144c0 13.255-10.745 24-24 24z" fill="#dfd5d2"/><path d="m458 232h-404c-29.78 0-54 24.22-54 54v100c0 2.03.11 4.03.33 6 3 26.97 25.92 48 53.67 48h404c27.75 0 50.67-21.03 53.67-48 .22-1.97.33-3.97.33-6v-100c0-29.78-24.22-54-54-54z" fill="#f0eaea"/><g fill="#5be0d5"><path d="m104 360h-16c-13.255 0-24-10.745-24-24s10.745-24 24-24h16c13.255 0 24 10.745 24 24s-10.745 24-24 24z"/><path d="m184 360h-16c-13.255 0-24-10.745-24-24s10.745-24 24-24h16c13.255 0 24 10.745 24 24s-10.745 24-24 24z"/><path d="m264 360h-16c-13.255 0-24-10.745-24-24s10.745-24 24-24h16c13.255 0 24 10.745 24 24s-10.745 24-24 24z"/></g><path d="m511.67 392c-3 26.97-25.92 48-53.67 48h-404c-27.75 0-50.67-21.03-53.67-48z" fill="#dfd5d2"/></svg>