<svg id="Layer" enable-background="new 0 0 512 512" height="512" viewBox="0 0 512 512" width="512" xmlns="http://www.w3.org/2000/svg"><path d="m392 96h-272v-72c0-13.255 10.745-24 24-24h224c13.255 0 24 10.745 24 24z" fill="#f0eaea"/><path d="m368 512h-224c-13.255 0-24-10.745-24-24v-72h272v72c0 13.255-10.745 24-24 24z" fill="#f0eaea"/><path d="m427.96 98.69c-1.95-2.72-4.12-5.28-6.47-7.65-11.6-11.75-27.71-19.04-45.49-19.04h-240c-35.29 0-64 28.71-64 64v240c0 18.12 7.58 34.51 19.72 46.15.89.86 1.8 1.68 2.73 2.48 11.19 9.58 25.71 15.37 41.55 15.37h240c35.29 0 64-28.71 64-64v-240c0-13.91-4.46-26.79-12.04-37.31z" fill="#92f8fd"/><g><path d="m427.96 98.69c-21.22 19.69-37.29 45.11-57.94 65.73-31.01 30.96-71.65 50.48-104.47 79.5-16.65 14.73-31.1 31.73-45.48 48.67-15.49 18.25-31.01 36.53-44.69 56.16-9.63 13.8-18.4 28.34-29.92 40.6-14.55 15.47-33.32 26.93-53.74 32.8-12.14-11.64-19.72-28.03-19.72-46.15v-240c0-35.29 28.71-64 64-64h240c17.78 0 33.89 7.29 45.49 19.04 2.35 2.37 4.52 4.93 6.47 7.65z" fill="#77f6fc"/></g><g fill="#5be0d5"><path d="m285.599 197.116c-2.684 0-5.413-.454-8.085-1.41-6.873-2.459-14.112-3.706-21.514-3.706s-14.641 1.247-21.514 3.707c-12.477 4.467-26.217-2.03-30.683-14.511-4.466-12.479 2.03-26.217 14.511-30.683 12.078-4.322 24.756-6.513 37.686-6.513s25.608 2.191 37.686 6.513c12.48 4.466 18.977 18.203 14.511 30.683-3.51 9.808-12.747 15.92-22.598 15.92z"/><path d="m256 368c-12.93 0-25.608-2.191-37.686-6.513-12.48-4.466-18.977-18.203-14.511-30.683s18.202-18.976 30.683-14.511c6.873 2.46 14.112 3.707 21.514 3.707s14.641-1.247 21.514-3.707c12.476-4.465 26.217 2.031 30.683 14.511 4.466 12.479-2.03 26.217-14.511 30.683-12.078 4.322-24.756 6.513-37.686 6.513z"/><path d="m173.111 309.606c-9.852 0-19.087-6.111-22.598-15.919-4.322-12.077-6.513-24.757-6.513-37.687s2.191-25.61 6.514-37.688c4.467-12.479 18.203-18.976 30.684-14.509 12.479 4.467 18.976 18.204 14.51 30.684-2.461 6.872-3.708 14.111-3.708 21.513s1.247 14.641 3.707 21.513c4.466 12.48-2.03 26.217-14.51 30.684-2.672.956-5.402 1.409-8.086 1.409z"/><path d="m338.889 309.606c-2.685 0-5.413-.453-8.086-1.41-12.479-4.467-18.976-18.204-14.51-30.684 2.46-6.872 3.707-14.11 3.707-21.513s-1.247-14.641-3.707-21.513c-4.466-12.48 2.03-26.217 14.51-30.684 12.481-4.465 26.217 2.03 30.684 14.509 4.322 12.079 6.513 24.759 6.513 37.689s-2.191 25.61-6.514 37.688c-3.509 9.806-12.747 15.918-22.597 15.918z"/></g></svg>