<svg id="Layer" enable-background="new 0 0 512 512" height="512" viewBox="0 0 512 512" width="512" xmlns="http://www.w3.org/2000/svg"><path d="m372 520h-232c-24.262 0-44-19.738-44-44v-440c0-24.262 19.738-44 44-44h232c24.262 0 44 19.738 44 44v440c0 24.262-19.738 44-44 44zm0-480h.01z" fill="#f0eaea"/><path d="m336 256c0-44.112-35.888-80-80-80s-80 35.888-80 80 35.888 80 80 80 80-35.888 80-80zm-80 32c-17.645 0-32-14.355-32-32s14.355-32 32-32 32 14.355 32 32-14.355 32-32 32z" fill="#dfd5d2"/><path d="m192 88h16c13.255 0 24-10.745 24-24s-10.745-24-24-24h-16c-13.255 0-24 10.745-24 24s10.745 24 24 24z" fill="#feb6c4"/><path d="m304 88h16c13.255 0 24-10.745 24-24s-10.745-24-24-24h-16c-13.255 0-24 10.745-24 24s10.745 24 24 24z" fill="#5be0d5"/><g fill="#dfd5d2"><path d="m192 160h16c13.255 0 24-10.745 24-24s-10.745-24-24-24h-16c-13.255 0-24 10.745-24 24s10.745 24 24 24z"/><path d="m320 112h-16c-13.255 0-24 10.745-24 24s10.745 24 24 24h16c13.255 0 24-10.745 24-24s-10.745-24-24-24z"/><path d="m208 352h-16c-13.255 0-24 10.745-24 24s10.745 24 24 24h16c13.255 0 24-10.745 24-24s-10.745-24-24-24z"/><path d="m320 352h-16c-13.255 0-24 10.745-24 24s10.745 24 24 24h16c13.255 0 24-10.745 24-24s-10.745-24-24-24z"/><path d="m208 424h-16c-13.255 0-24 10.745-24 24s10.745 24 24 24h16c13.255 0 24-10.745 24-24s-10.745-24-24-24z"/><path d="m320 424h-16c-13.255 0-24 10.745-24 24s10.745 24 24 24h16c13.255 0 24-10.745 24-24s-10.745-24-24-24z"/></g></svg>