<svg id="Layer" enable-background="new 0 0 512 512" height="512" viewBox="0 0 512 512" width="512" xmlns="http://www.w3.org/2000/svg"><path d="m458 72h-404c-29.78 0-54 24.22-54 54v260c0 29.78 24.22 54 54 54h404c29.78 0 54-24.22 54-54v-260c0-29.78-24.22-54-54-54z" fill="#f0eaea"/><path d="m280 376c-66.168 0-120-53.832-120-120s53.832-120 120-120 120 53.832 120 120-53.832 120-120 120z" fill="#dfd5d2"/><path d="m440 168c-13.255 0-24.005-10.745-24.005-24s10.74-24 23.995-24h.01c13.255 0 24 10.745 24 24s-10.745 24-24 24z" fill="#fed5b9"/><path d="m104 72v368h-50c-29.78 0-54-24.22-54-54v-260c0-29.78 24.22-54 54-54z" fill="#dfd5d2"/><path d="m360 256c0 44.18-35.82 80-80 80-24.62 0-46.65-11.13-61.32-28.63-2.6-3.1-4.97-6.39-7.07-9.86-7.37-12.1-11.61-26.31-11.61-41.51 0-44.18 35.82-80 80-80 18.47 0 35.49 6.27 49.03 16.78 6.66 5.17 12.48 11.38 17.22 18.37 8.68 12.79 13.75 28.23 13.75 44.85z" fill="#92f8fd"/><g><path d="m346.25 211.15c-13.46 2.26-26.62 6.9-39.48 11.66-9.88 3.67-19.78 7.45-28.82 12.87-23.3 13.96-39 37.48-59.04 55.81-2.32 2.13-4.73 4.2-7.3 6.02-7.37-12.1-11.61-26.31-11.61-41.51 0-44.18 35.82-80 80-80 18.47 0 35.49 6.27 49.03 16.78 6.66 5.17 12.48 11.38 17.22 18.37z" fill="#77f6fc"/></g></svg>