<svg id="Layer" enable-background="new 0 0 512 512" height="512" viewBox="0 0 512 512" width="512" xmlns="http://www.w3.org/2000/svg"><path d="m468 488h-424c-24.262 0-44-19.738-44-44v-376c0-24.262 19.738-44 44-44h424c24.262 0 44 19.738 44 44v376c0 24.262-19.738 44-44 44zm0-416h.01z" fill="#f0eaea"/><path d="m232 24v56c0 15.29 8.58 28.58 21.2 35.31 5.6 2.99 12.01 4.69 18.8 4.69h136c22.09 0 40-17.91 40-40v-56z" fill="#92f8fd"/><path d="m148 456h-56c-24.262 0-44-19.738-44-44v-312c0-24.262 19.738-44 44-44h56c24.262 0 44 19.738 44 44v312c0 24.262-19.738 44-44 44zm0-344h.01z" fill="#dfd5d2"/><g fill="#fed5b9"><path d="m264 184h-.01c-13.254 0-23.995 10.745-23.995 24s10.75 24 24.005 24 24-10.745 24-24-10.745-24-24-24z"/><path d="m344 184h-.01c-13.254 0-23.995 10.745-23.995 24s10.75 24 24.005 24 24-10.745 24-24-10.745-24-24-24z"/><path d="m424 232c13.255 0 24-10.745 24-24s-10.745-24-24-24h-.01c-13.254 0-23.995 10.745-23.995 24s10.75 24 24.005 24z"/><path d="m264 264h-.01c-13.254 0-23.995 10.745-23.995 24s10.75 24 24.005 24 24-10.745 24-24-10.745-24-24-24z"/><path d="m344 264h-.01c-13.254 0-23.995 10.745-23.995 24s10.75 24 24.005 24 24-10.745 24-24-10.745-24-24-24z"/><path d="m424 264h-.01c-13.254 0-23.995 10.745-23.995 24s10.75 24 24.005 24 24-10.745 24-24-10.745-24-24-24z"/><path d="m264 344h-.01c-13.254 0-23.995 10.745-23.995 24s10.75 24 24.005 24 24-10.745 24-24-10.745-24-24-24z"/><path d="m344 344h-.01c-13.254 0-23.995 10.745-23.995 24s10.75 24 24.005 24 24-10.745 24-24-10.745-24-24-24z"/><path d="m424 344h-.01c-13.254 0-23.995 10.745-23.995 24s10.75 24 24.005 24 24-10.745 24-24-10.745-24-24-24z"/></g><g><path d="m448 24v.1c-.89.89-1.81 1.73-2.76 2.52-6.28 5.22-13.75 8.77-21.22 12.06-9.2 4.06-18.54 7.81-27.98 11.25-42.23 15.37-87.76 25.02-123.77 51.92-6.15 4.59-12.37 9.81-19.07 13.46-12.62-6.73-21.2-20.02-21.2-35.31v-56z" fill="#77f6fc"/></g></svg>