<svg id="Layer" enable-background="new 0 0 512 512" height="512" viewBox="0 0 512 512" width="512" xmlns="http://www.w3.org/2000/svg"><path d="m55.977 384.003c-4.203 0-8.459-1.104-12.325-3.424-11.366-6.819-15.052-21.562-8.232-32.927l24-40c6.818-11.367 21.562-15.052 32.927-8.232 11.366 6.819 15.052 21.562 8.232 32.927l-24 40c-4.499 7.501-12.449 11.656-20.602 11.656z" fill="#dfd5d2"/><path d="m456.022 384.003c-8.153 0-16.102-4.155-20.603-11.656l-24-40c-6.819-11.366-3.134-26.108 8.232-32.927 11.366-6.818 26.107-3.134 32.928 8.232l24 40c6.819 11.366 3.134 26.108-8.232 32.927-3.865 2.32-8.122 3.424-12.325 3.424z" fill="#dfd5d2"/><path d="m468 344h-424c-24.262 0-44-19.738-44-44v-152c0-24.262 19.738-44 44-44h424c24.262 0 44 19.738 44 44v152c0 24.262-19.738 44-44 44z" fill="#f0eaea"/><path d="m96.02 224c-13.255 0-24.005-10.745-24.005-24s10.74-24 23.995-24h.01c13.255 0 24 10.745 24 24s-10.745 24-24 24z" fill="#fed5b9"/><path d="m288 376c-83.813 0-152-68.187-152-152s68.187-152 152-152 152 68.187 152 152-68.187 152-152 152z" fill="#77f6fc"/><path d="m344 248c-13.255 0-24-10.745-24-24 0-17.645-14.355-32-32-32-13.255 0-24-10.745-24-24s10.745-24 24-24c44.112 0 80 35.888 80 80 0 13.255-10.745 24-24 24z" fill="#92f8fd"/></svg>