<svg id="Layer" enable-background="new 0 0 512 512" height="512" viewBox="0 0 512 512" width="512" xmlns="http://www.w3.org/2000/svg"><path d="m501.96 16.06c-8.07-9.8-20.3-16.06-33.96-16.06h-424c-24.26 0-44 19.74-44 44v272c0 12.47 5.22 23.75 13.59 31.77 7.91 7.57 18.62 12.23 30.41 12.23h424c24.26 0 44-19.74 44-44v-272c0-10.6-3.77-20.34-10.04-27.94z" fill="#92f8fd"/><path d="m272 336h-32c-13.255 0-24-10.745-24-24s10.745-24 24-24h32c13.255 0 24 10.745 24 24s-10.745 24-24 24z" fill="#feb6c4"/><path d="m116 512h-72c-24.262 0-44-19.738-44-44v-32c0-24.262 19.738-44 44-44h72c24.262 0 44 19.738 44 44v32c0 24.262-19.738 44-44 44z" fill="#dfd5d2"/><path d="m468 512h-72c-24.262 0-44-19.738-44-44v-32c0-24.262 19.738-44 44-44h72c24.262 0 44 19.738 44 44v32c0 24.262-19.738 44-44 44z" fill="#dfd5d2"/><path d="m256 512c-35.29 0-64-28.71-64-64s28.71-64 64-64 64 28.71 64 64-28.71 64-64 64z" fill="#f0eaea"/><g><path d="m501.96 16.06c-34.04 20.66-74.24 33.42-111.64 48.49-122.51 49.39-228.47 133.41-320.13 228.52-18.18 18.86-36.21 38.46-56.6 54.7-8.37-8.02-13.59-19.3-13.59-31.77v-272c0-24.26 19.74-44 44-44h424c13.66 0 25.89 6.26 33.96 16.06z" fill="#77f6fc"/></g></svg>