<svg id="Layer" enable-background="new 0 0 512 512" height="512" viewBox="0 0 512 512" width="512" xmlns="http://www.w3.org/2000/svg"><path d="m256 512c-13.255 0-24-10.745-24-24v-80c0-13.255 10.745-24 24-24s24 10.745 24 24v80c0 13.255-10.745 24-24 24z" fill="#dfd5d2"/><g fill="#f0eaea"><path d="m286 416h-60c-62.96 0-114-51.04-114-114v-102h288v102c0 62.96-51.04 114-114 114z"/><path d="m184 176c-13.255 0-24-10.745-24-24v-128c0-13.255 10.745-24 24-24s24 10.745 24 24v128c0 13.255-10.745 24-24 24z"/><path d="m328 176c-13.255 0-24-10.745-24-24v-128c0-13.255 10.745-24 24-24s24 10.745 24 24v128c0 13.255-10.745 24-24 24z"/></g><path d="m256 304.001c-39.701 0-72-32.299-72-72 0-17.758 6.521-34.812 18.359-48.019 8.849-9.871 24.022-10.698 33.891-1.853 9.87 8.848 10.699 24.021 1.852 33.891-3.935 4.39-6.102 10.065-6.102 15.981 0 13.234 10.767 24 24 24s24-10.766 24-24c0-5.916-2.167-11.591-6.102-15.981-8.848-9.87-8.019-25.043 1.852-33.891 9.87-8.847 25.043-8.019 33.891 1.853 11.838 13.207 18.359 30.261 18.359 48.019 0 39.701-32.299 72-72 72z" fill="#dfd5d2"/><path d="m96 144h320c22.091 0 40 17.909 40 40 0 22.091-17.909 40-40 40h-320c-22.091 0-40-17.909-40-40 0-22.091 17.909-40 40-40z" fill="#dfd5d2"/></svg>