<svg id="Layer" enable-background="new 0 0 512 512" height="512" viewBox="0 0 512 512" width="512" xmlns="http://www.w3.org/2000/svg"><path d="m418 0h-324c-29.78 0-54 24.22-54 54v404c0 29.78 24.22 54 54 54h324c29.78 0 54-24.22 54-54v-404c0-29.78-24.22-54-54-54z" fill="#f0eaea"/><path d="m120.005 96c-13.255 0-24.005-10.745-24.005-24s10.74-24 23.995-24h.01c13.255 0 24 10.745 24 24s-10.745 24-24 24z" fill="#feb6c4"/><path d="m200 96c-13.255 0-24.005-10.745-24.005-24s10.74-24 23.995-24h.01c13.255 0 24 10.745 24 24s-10.745 24-24 24z" fill="#5be0d5"/><path d="m472 408v50c0 29.78-24.22 54-54 54h-324c-29.78 0-54-24.22-54-54v-50z" fill="#dfd5d2"/><path d="m351.71 199.48c-24.59-24.4-58.42-39.48-95.71-39.48-74.99 0-136 61.01-136 136 0 32.53 11.47 62.42 30.59 85.84 24.96 30.59 62.94 50.16 105.41 50.16 74.99 0 136-61.01 136-136 0-37.7-15.42-71.87-40.29-96.52z" fill="#92f8fd"/><g><path d="m256 160c37.29 0 71.12 15.08 95.71 39.48-29.3 13.31-56.65 30.35-79.96 52.47-37.08 35.18-62.29 81.55-100.22 115.81-6.28 5.67-13.12 11.1-20.94 14.08-19.12-23.42-30.59-53.31-30.59-85.84 0-74.99 61.01-136 136-136z" fill="#77f6fc"/></g></svg>