<svg id="Layer" enable-background="new 0 0 512 512" height="512" viewBox="0 0 512 512" width="512" xmlns="http://www.w3.org/2000/svg"><path d="m458 408h-404c-29.776 0-54-24.224-54-54v-188c0-29.776 24.224-54 54-54h404c29.776 0 54 24.224 54 54v188c0 29.776-24.224 54-54 54z" fill="#f0eaea"/><path d="m404 160h-296c-11.046 0-20-8.954-20-20v-96c0-24.301 19.699-44 44-44h248c24.301 0 44 19.699 44 44v96c0 11.046-8.954 20-20 20z" fill="#dfd5d2"/><path d="m380 512h-248c-24.301 0-44-19.699-44-44v-128c0-11.046 8.954-20 20-20h296c11.046 0 20 8.954 20 20v128c0 24.301-19.699 44-44 44z" fill="#dfd5d2"/><path d="m48.02 248c-13.255 0-24.005-10.745-24.005-24s10.74-24 23.995-24h.01c13.255 0 24 10.745 24 24s-10.745 24-24 24z" fill="#feb6c4"/><path d="m112.02 248c-13.255 0-24.005-10.745-24.005-24s10.74-24 23.995-24h.01c13.255 0 24 10.745 24 24s-10.745 24-24 24z" fill="#5be0d5"/><path d="m184 208h224c8.837 0 16 7.163 16 16 0 8.837-7.163 16-16 16h-224c-8.837 0-16-7.163-16-16 0-8.837 7.163-16 16-16z" fill="#dfd5d2"/></svg>