<svg id="Layer" enable-background="new 0 0 512 512" height="512" viewBox="0 0 512 512" width="512" xmlns="http://www.w3.org/2000/svg"><path d="m328 0c17.121 0 31 13.879 31 31v81h-62v-81c0-17.121 13.879-31 31-31z" fill="#dfd5d2"/><path d="m291 512h-70c-46.944 0-85-38.056-85-85v-91h240v91c0 46.944-38.056 85-85 85z" fill="#dfd5d2"/><path d="m354 360h-196c-29.776 0-54-24.224-54-54v-164c0-29.776 24.224-54 54-54h196c29.775 0 54 24.224 54 54v164c0 29.776-24.225 54-54 54z" fill="#f0eaea"/><g fill="#5be0d5"><path d="m184 296c-13.255 0-24-10.745-24-24v-16c0-13.255 10.745-24 24-24s24 10.745 24 24v16c0 13.255-10.745 24-24 24z"/><path d="m256 296c-13.255 0-24-10.745-24-24v-32c0-13.255 10.745-24 24-24s24 10.745 24 24v32c0 13.255-10.745 24-24 24z"/><path d="m328 296c-13.255 0-24-10.745-24-24v-64c0-13.255 10.745-24 24-24s24 10.745 24 24v64c0 13.255-10.745 24-24 24z"/></g><path d="m208 384h96c8.837 0 16 7.163 16 16 0 8.837-7.163 16-16 16h-96c-8.837 0-16-7.163-16-16 0-8.837 7.163-16 16-16z" fill="#f0eaea"/></svg>