<svg id="Layer" enable-background="new 0 0 512 512" height="512" viewBox="0 0 512 512" width="512" xmlns="http://www.w3.org/2000/svg"><g fill="#f0eaea"><circle cx="416" cy="96" r="96"/><circle cx="96" cy="96" r="96"/><circle cx="96" cy="416" r="96"/><circle cx="416" cy="416" r="96"/></g><path d="m400.278 431.281c-4.708 0-9.453-1.074-13.87-3.282l-24.082-12.041c-10.491-5.246-22.237-8.019-33.967-8.019h-144.718c-11.729 0-23.476 2.773-33.967 8.019l-24.082 12.042c-11.955 5.978-26.336 3.643-35.785-5.808-9.45-9.45-11.783-23.831-5.806-35.784l12.04-24.081c5.247-10.492 8.02-22.238 8.02-33.967v-144.719c0-11.729-2.772-23.475-8.019-33.967l-12.041-24.083c-5.978-11.952-3.645-26.333 5.806-35.783 9.45-9.451 23.829-11.784 35.785-5.808l24.082 12.041c10.491 5.246 22.237 8.019 33.967 8.019h144.719c11.729 0 23.476-2.773 33.967-8.019l24.081-12.041c11.955-5.978 26.336-3.643 35.785 5.808 9.45 9.45 11.783 23.831 5.806 35.784l-12.04 24.081c-5.247 10.492-8.02 22.238-8.02 33.967v144.719c0 11.729 2.772 23.475 8.019 33.967l12.041 24.083c5.978 11.952 3.645 26.333-5.806 35.783-5.959 5.959-13.88 9.089-21.915 9.089z" fill="#dfd5d2"/><path d="m208 224h96c17.673 0 32 14.327 32 32 0 17.673-14.327 32-32 32h-96c-17.673 0-32-14.327-32-32 0-17.673 14.327-32 32-32z" fill="#5be0d5"/></svg>