<svg id="Layer" enable-background="new 0 0 512 512" height="512" viewBox="0 0 512 512" width="512" xmlns="http://www.w3.org/2000/svg"><g fill="#dfd5d2"><path d="m96 88c-13.255 0-24-10.745-24-24v-40c0-13.255 10.745-24 24-24s24 10.745 24 24v40c0 13.255-10.745 24-24 24z"/><path d="m176 88c-13.255 0-24-10.745-24-24v-40c0-13.255 10.745-24 24-24s24 10.745 24 24v40c0 13.255-10.745 24-24 24z"/><path d="m256 88c-13.255 0-24-10.745-24-24v-40c0-13.255 10.745-24 24-24s24 10.745 24 24v40c0 13.255-10.745 24-24 24z"/><path d="m336 88c-13.255 0-24-10.745-24-24v-40c0-13.255 10.745-24 24-24s24 10.745 24 24v40c0 13.255-10.745 24-24 24z"/><path d="m416 88c-13.255 0-24-10.745-24-24v-40c0-13.255 10.745-24 24-24s24 10.745 24 24v40c0 13.255-10.745 24-24 24z"/><path d="m64 440h-40c-13.255 0-24-10.745-24-24s10.745-24 24-24h40c13.255 0 24 10.745 24 24s-10.745 24-24 24z"/><path d="m64 360h-40c-13.255 0-24-10.745-24-24s10.745-24 24-24h40c13.255 0 24 10.745 24 24s-10.745 24-24 24z"/><path d="m64 280h-40c-13.255 0-24-10.745-24-24s10.745-24 24-24h40c13.255 0 24 10.745 24 24s-10.745 24-24 24z"/><path d="m64 200h-40c-13.255 0-24-10.745-24-24s10.745-24 24-24h40c13.255 0 24 10.745 24 24s-10.745 24-24 24z"/><path d="m64 120h-40c-13.255 0-24-10.745-24-24s10.745-24 24-24h40c13.255 0 24 10.745 24 24s-10.745 24-24 24z"/><path d="m416 512c-13.255 0-24-10.745-24-24v-40c0-13.255 10.745-24 24-24s24 10.745 24 24v40c0 13.255-10.745 24-24 24z"/><path d="m336 512c-13.255 0-24-10.745-24-24v-40c0-13.255 10.745-24 24-24s24 10.745 24 24v40c0 13.255-10.745 24-24 24z"/><path d="m256 512c-13.255 0-24-10.745-24-24v-40c0-13.255 10.745-24 24-24s24 10.745 24 24v40c0 13.255-10.745 24-24 24z"/><path d="m176 512c-13.255 0-24-10.745-24-24v-40c0-13.255 10.745-24 24-24s24 10.745 24 24v40c0 13.255-10.745 24-24 24z"/><path d="m96 512c-13.255 0-24-10.745-24-24v-40c0-13.255 10.745-24 24-24s24 10.745 24 24v40c0 13.255-10.745 24-24 24z"/><path d="m488 120h-40c-13.255 0-24-10.745-24-24s10.745-24 24-24h40c13.255 0 24 10.745 24 24s-10.745 24-24 24z"/><path d="m488 200h-40c-13.255 0-24-10.745-24-24s10.745-24 24-24h40c13.255 0 24 10.745 24 24s-10.745 24-24 24z"/><path d="m488 280h-40c-13.255 0-24-10.745-24-24s10.745-24 24-24h40c13.255 0 24 10.745 24 24s-10.745 24-24 24z"/><path d="m488 360h-40c-13.255 0-24-10.745-24-24s10.745-24 24-24h40c13.255 0 24 10.745 24 24s-10.745 24-24 24z"/><path d="m488 440h-40c-13.255 0-24-10.745-24-24s10.745-24 24-24h40c13.255 0 24 10.745 24 24s-10.745 24-24 24z"/></g><path d="m418 472h-324c-29.775 0-54-24.224-54-54v-324c0-29.776 24.225-54 54-54h324c29.775 0 54 24.224 54 54v324c0 29.776-24.225 54-54 54z" fill="#f0eaea"/><path d="m330 384h-148c-29.775 0-54-24.224-54-54v-148c0-29.776 24.225-54 54-54h148c29.775 0 54 24.224 54 54v148c0 29.776-24.225 54-54 54z" fill="#9dece6"/><path d="m308 304h-104c-11.046 0-20-8.954-20-20v-56c0-11.046 8.954-20 20-20h104c11.046 0 20 8.954 20 20v56c0 11.046-8.954 20-20 20z" fill="#fed5b9"/></svg>