<svg id="Layer" enable-background="new 0 0 512 512" height="512" viewBox="0 0 512 512" width="512" xmlns="http://www.w3.org/2000/svg"><path d="m458 408h-386v-304h386c29.823 0 54 24.177 54 54v196c0 29.823-24.177 54-54 54z" fill="#f0eaea"/><path d="m72 456c-13.255 0-24-10.745-24-24v-328h-24c-13.255 0-24-10.745-24-24s10.745-24 24-24h48c13.255 0 24 10.745 24 24v352c0 13.255-10.745 24-24 24z" fill="#dfd5d2"/><path d="m429.318 236.035c-30.261-20.188-67.669-25.981-102.631-15.894-1.027.296-2.016.662-2.97 1.078-3.163-1.8-6.592-3.183-10.215-4.069-5.065-20.524-1.318-42.171 10.463-59.832 7.355-11.026 4.38-25.928-6.647-33.284-11.026-7.355-25.928-4.38-33.284 6.647-20.187 30.261-25.98 67.669-15.894 102.631.296 1.025.671 2.004 1.086 2.956-1.804 3.167-3.189 6.601-4.077 10.229-20.523 5.066-42.169 1.318-59.831-10.463-11.026-7.355-25.927-4.38-33.284 6.647-7.355 11.026-4.38 25.928 6.647 33.284 20.503 13.678 44.288 20.748 68.369 20.748 11.46 0 22.988-1.601 34.262-4.854 1.027-.296 2.016-.662 2.97-1.078 3.163 1.8 6.592 3.183 10.215 4.069 5.065 20.524 1.318 42.171-10.463 59.832-7.355 11.026-4.38 25.928 6.647 33.284 4.093 2.73 8.719 4.037 13.296 4.037 7.752 0 15.362-3.75 19.987-10.684 20.187-30.261 25.98-67.669 15.894-102.631-.296-1.027-.662-2.016-1.078-2.97 1.8-3.163 3.182-6.592 4.069-10.215 20.525-5.065 42.17-1.318 59.831 10.463 4.093 2.73 8.719 4.038 13.296 4.037 7.752 0 15.362-3.75 19.987-10.684 7.358-11.027 4.382-25.929-6.645-33.284z" fill="#5be0d5"/><path d="m304 392c-74.991 0-136-61.009-136-136s61.009-136 136-136 136 61.009 136 136-61.009 136-136 136zm0-224c-48.523 0-88 39.477-88 88s39.477 88 88 88 88-39.477 88-88-39.477-88-88-88z" fill="#fed5b9"/></svg>