<svg id="Layer" enable-background="new 0 0 512 512" height="512" viewBox="0 0 512 512" width="512" xmlns="http://www.w3.org/2000/svg"><path d="m296 488h-104v-104h104z" fill="#eae1e1"/><path d="m328 512h-192c-13.255 0-24-10.745-24-24s10.745-24 24-24h192c13.255 0 24 10.745 24 24s-10.745 24-24 24z" fill="#dfd5d2"/><path d="m44 40c-24.3 0-44 19.7-44 44v280c0 16.08 8.63 30.15 21.51 37.82 6.58 3.93 14.27 6.18 22.49 6.18h252v-368z" fill="#92f8fd"/><g><path d="m285.62 40c-32.71 49.12-75.36 91.41-107.79 140.87-15.94 24.29-29.3 50.16-43.87 75.29-28.63 49.35-62.14 96.08-102.03 136.86-3.05 3.12-6.61 6.28-10.42 8.8-12.88-7.67-21.51-21.74-21.51-37.82v-280c0-24.3 19.7-44 44-44z" fill="#77f6fc"/></g><path d="m468 512h-152c-24.262 0-44-19.738-44-44v-424c0-24.262 19.738-44 44-44h152c24.262 0 44 19.738 44 44v424c0 24.262-19.738 44-44 44z" fill="#f0eaea"/><path d="m416 432h-48c-13.255 0-24-10.745-24-24s10.745-24 24-24h48c13.255 0 24 10.745 24 24s-10.745 24-24 24z" fill="#dfd5d2"/><circle cx="328" cy="56" fill="#feb6c4" r="24"/><circle cx="400" cy="56" fill="#5be0d5" r="24"/><path d="m322 144h140c5.523 0 10 4.477 10 10v28c0 5.523-4.477 10-10 10h-140c-5.523 0-10-4.477-10-10v-28c0-5.523 4.477-10 10-10z" fill="#dfd5d2"/></svg>