<svg id="Layer" enable-background="new 0 0 512 512" height="512" viewBox="0 0 512 512" width="512" xmlns="http://www.w3.org/2000/svg"><path d="m448 392h-384c-35.29 0-64-28.71-64-64v-169c0-21.505 17.495-39 39-39h434c21.505 0 39 17.495 39 39v169c0 35.29-28.71 64-64 64zm25-224h.01z" fill="#f0eaea"/><path d="m432 392h-352v-42c0-29.823 24.177-54 54-54h244c29.823 0 54 24.177 54 54z" fill="#dfd5d2"/><path d="m344 212v8c0 11.05-8.95 20-20 20h-136c-4.02 0-7.77-1.19-10.91-3.24-5.48-3.57-9.09-9.74-9.09-16.76v-8c0-11.05 8.95-20 20-20h136c6.68 0 12.6 3.27 16.22 8.31 2.38 3.29 3.78 7.33 3.78 11.69z" fill="#92f8fd"/><g><path d="m340.22 200.31c-34.29 16.77-74.3 15.09-112.49 16.41-9.08.32-18.35.87-26.78 4.27-7.43 2.99-13.81 8.05-20.12 12.98-1.2.94-2.45 1.89-3.74 2.79-5.48-3.57-9.09-9.74-9.09-16.76v-8c0-11.05 8.95-20 20-20h136c6.68 0 12.6 3.27 16.22 8.31z" fill="#77f6fc"/></g></svg>