<svg id="Layer" enable-background="new 0 0 512 512" height="512" viewBox="0 0 512 512" width="512" xmlns="http://www.w3.org/2000/svg"><path d="m385 0h-258c-21.5 0-39 17.5-39 39v434c0 21.5 17.5 39 39 39h258c21.5 0 39-17.5 39-39v-434c0-21.5-17.5-39-39-39z" fill="#f0eaea"/><path d="m424 256v217c0 21.5-17.5 39-39 39h-258c-21.5 0-39-17.5-39-39v-217z" fill="#dfd5d2"/><path d="m128 200h48c8.837 0 16 7.163 16 16 0 8.837-7.163 16-16 16h-48c-8.837 0-16-7.163-16-16 0-8.837 7.163-16 16-16z" fill="#dfd5d2"/><path d="m128 280h48c8.837 0 16 7.163 16 16 0 8.837-7.163 16-16 16h-48c-8.837 0-16-7.163-16-16 0-8.837 7.163-16 16-16z" fill="#f0eaea"/></svg>