<svg id="Layer" enable-background="new 0 0 512 512" height="512" viewBox="0 0 512 512" width="512" xmlns="http://www.w3.org/2000/svg"><path d="m412 0h-312c-24.26 0-44 19.74-44 44v424c0 24.26 19.74 44 44 44h312c24.26 0 44-19.74 44-44v-424c0-24.26-19.74-44-44-44z" fill="#f0eaea"/><path d="m262 440h-108c-5.523 0-10-4.477-10-10v-268c0-5.523 4.477-10 10-10h108c5.523 0 10 4.477 10 10v268c0 5.523-4.477 10-10 10z" fill="#eae1e1"/><path d="m456 44v424c0 24.26-19.74 44-44 44h-60v-512h60c24.26 0 44 19.74 44 44z" fill="#dfd5d2"/><path d="m56 88h320v32h-320z" fill="#dfd5d2"/><circle cx="208" cy="216" fill="#fed5b9" r="48"/><circle cx="208" cy="376" fill="#fed5b9" r="48"/><g fill="#feead2"><circle cx="208" cy="216" r="16"/><circle cx="208" cy="376" r="16"/></g></svg>