<svg id="Layer" enable-background="new 0 0 512 512" height="512" viewBox="0 0 512 512" width="512" xmlns="http://www.w3.org/2000/svg"><path d="m468 56h-424c-24.26 0-44 19.74-44 44v312c0 24.26 19.74 44 44 44h424c24.26 0 44-19.74 44-44v-312c0-24.26-19.74-44-44-44z" fill="#f0eaea"/><path d="m283.44 145.79c-6.74-6.08-15.66-9.79-25.44-9.79h-164c-20.95 0-38 17.05-38 38v164c0 12.16 5.75 23.01 14.66 29.97 6.44 5.03 14.55 8.03 23.34 8.03h164c20.95 0 38-17.05 38-38v-164c0-11.18-4.85-21.25-12.56-28.21z" fill="#92f8fd"/><g><path d="m283.44 145.79c-10.16 11.04-21.67 20.99-32.91 30.99-65.01 57.8-124.9 121.37-178.72 189.72-.38.49-.77.98-1.15 1.47-8.91-6.96-14.66-17.81-14.66-29.97v-164c0-20.95 17.05-38 38-38h164c9.78 0 18.7 3.71 25.44 9.79z" fill="#77f6fc"/></g><path d="m512 352v60c0 24.301-19.699 44-44 44h-100v-104z" fill="#eae1e1"/><path d="m336 56h32v400h-32z" fill="#dfd5d2"/><g fill="#fed5b9"><circle cx="440" cy="160" r="24"/><circle cx="440" cy="232" r="24"/><circle cx="440" cy="304" r="24"/></g></svg>