<svg id="Layer" enable-background="new 0 0 512 512" height="512" viewBox="0 0 512 512" width="512" xmlns="http://www.w3.org/2000/svg"><path d="m412 512h-312c-24.262 0-44-19.738-44-44v-424c0-24.262 19.738-44 44-44h312c24.262 0 44 19.738 44 44v424c0 24.262-19.738 44-44 44z" fill="#f0eaea"/><path d="m394.43 79.36c-6.09-9.24-16.56-15.36-28.43-15.36h-220c-18.75 0-34 15.25-34 34v60c0 12.78 7.09 23.94 17.54 29.74 4.88 2.72 10.49 4.26 16.46 4.26h220c18.75 0 34-15.25 34-34v-60c0-6.88-2.05-13.29-5.57-18.64z" fill="#92f8fd"/><g fill="#fed5b9"><path d="m136.005 272c-13.255 0-24.005-10.745-24.005-24s10.74-24 23.995-24h.01c13.255 0 24 10.745 24 24s-10.745 24-24 24z"/><path d="m216.005 272c-13.255 0-24.005-10.745-24.005-24s10.74-24 23.995-24h.01c13.255 0 24 10.745 24 24s-10.745 24-24 24z"/><path d="m296 272c-13.254 0-24.005-10.745-24.005-24s10.74-24 23.995-24h.01c13.255 0 24 10.745 24 24s-10.745 24-24 24z"/><path d="m376 272c-13.254 0-24.005-10.745-24.005-24s10.74-24 23.995-24h.01c13.255 0 24 10.745 24 24s-10.745 24-24 24z"/><path d="m136.005 352c-13.255 0-24.005-10.745-24.005-24s10.74-24 23.995-24h.01c13.255 0 24 10.745 24 24s-10.745 24-24 24z"/><path d="m216.005 352c-13.255 0-24.005-10.745-24.005-24s10.74-24 23.995-24h.01c13.255 0 24 10.745 24 24s-10.745 24-24 24z"/><path d="m296 352c-13.254 0-24.005-10.745-24.005-24s10.74-24 23.995-24h.01c13.255 0 24 10.745 24 24s-10.745 24-24 24z"/><path d="m136.005 440c-13.255 0-24.005-10.745-24.005-24s10.74-24 23.995-24h.01c13.255 0 24 10.745 24 24s-10.745 24-24 24z"/><path d="m216.005 440c-13.255 0-24.005-10.745-24.005-24s10.74-24 23.995-24h.01c13.255 0 24 10.745 24 24s-10.745 24-24 24z"/><path d="m296 440c-13.254 0-24.005-10.745-24.005-24s10.74-24 23.995-24h.01c13.255 0 24 10.745 24 24s-10.745 24-24 24z"/><path d="m375.98 440c-13.255 0-24-10.745-24-24v-88c0-13.255 10.745-24 24-24s24 10.745 24 24v88c0 13.255-10.745 24-24 24z"/></g><g><path d="m394.43 79.36c-29.82 21.65-66.5 34.01-102 45.48-55.46 17.92-111.42 35.65-162.89 62.9-10.45-5.8-17.54-16.96-17.54-29.74v-60c0-18.75 15.25-34 34-34h220c11.87 0 22.34 6.12 28.43 15.36z" fill="#77f6fc"/></g></svg>