<svg id="Layer" enable-background="new 0 0 512 512" height="512" viewBox="0 0 512 512" width="512" xmlns="http://www.w3.org/2000/svg"><path d="m360 184h-208v-130c0-29.823 24.177-54 54-54h100c29.823 0 54 24.177 54 54z" fill="#f0eaea"/><path d="m324 512h-136c-46.317 0-84-37.683-84-84v-224c0-24.262 19.738-44 44-44h216c24.262 0 44 19.738 44 44v224c0 46.317-37.683 84-84 84z" fill="#9dece6"/><path d="m328 248c-13.255 0-24 10.745-24 24v24c0 8.822-7.178 16-16 16h-8v-88c0-13.255-10.745-24-24-24s-24 10.745-24 24v120h-8c-8.822 0-16-7.178-16-16v-24c0-13.255-10.745-24-24-24s-24 10.745-24 24v24c0 35.29 28.71 64 64 64h8v24c0 13.255 10.745 24 24 24s24-10.745 24-24v-48-8h8c35.29 0 64-28.71 64-64v-24c0-13.255-10.745-24-24-24z" fill="#feb6c4"/><g fill="#eae1e1"><path d="m202 64h28c5.523 0 10 4.477 10 10v28c0 5.523-4.477 10-10 10h-28c-5.523 0-10-4.477-10-10v-28c0-5.523 4.477-10 10-10z"/><path d="m282 64h28c5.523 0 10 4.477 10 10v28c0 5.523-4.477 10-10 10h-28c-5.523 0-10-4.477-10-10v-28c0-5.523 4.477-10 10-10z"/></g></svg>