<svg id="Layer" enable-background="new 0 0 512 512" height="512" viewBox="0 0 512 512" width="512" xmlns="http://www.w3.org/2000/svg"><path d="m352 0v56h-26.48c-9.55-15.11-22.37-27.94-37.48-37.49-15.1 9.55-27.95 22.39-37.5 37.49h-26.87s-.34-56 .33-56z" fill="#dfd5d2"/><path d="m352 456v56h-128c-.5 0 0-56 0-56h26.54c9.55 15.1 22.4 27.94 37.5 37.49 15.11-9.55 27.93-22.38 37.48-37.49z" fill="#dfd5d2"/><path d="m363.33 0h-11.33c-23.49 0-45.44 6.79-63.96 18.51 15.11 9.55 27.93 22.38 37.48 37.49 11.71 18.52 18.48 40.47 18.48 64v272c0 23.53-6.77 45.48-18.48 64-9.55 15.11-22.37 27.94-37.48 37.49 18.52 11.72 40.47 18.51 63.96 18.51h11.33c68.74 0 124.67-55.93 124.67-124.67v-262.66c0-68.74-55.93-124.67-124.67-124.67z" fill="#f0eaea"/><path d="m288.04 493.49c-18.53 11.73-40.49 18.51-64.04 18.51h-64c-66.27 0-120-53.73-120-120v-272c0-66.27 53.73-120 120-120h64c23.55 0 45.51 6.78 64.04 18.51-15.1 9.55-27.95 22.39-37.5 37.49-11.74 18.53-18.54 40.49-18.54 64v272c0 23.51 6.8 45.47 18.54 64 9.55 15.1 22.4 27.94 37.5 37.49z" fill="#dfd5d2"/><path d="m40 136h192v240h-192z" fill="#92f8fd"/><g><path d="m232 136v4.79c-8.8 6.55-17.27 13.51-25.11 21.18-12.23 11.98-22.76 25.55-33.25 39.08-18.16 23.44-36.35 46.91-52.3 71.9-8.42 13.18-16.21 26.78-25.4 39.44-6.9 9.51-14.55 18.43-22.2 27.35-7.86 9.16-15.71 18.32-23.57 27.49-2.56 2.99-5.17 6.02-8.01 8.77h-2.16v-240z" fill="#77f6fc"/></g><path d="m154.901 216.035c18.498.951 27.635 23.389 15.777 37.804l-12.382 15.051-22.296 27.11-22.296-27.111-12.382-15.051c-11.858-14.414-2.721-36.853 15.777-37.804.448-.023.9-.035 1.354-.035 6.734 0 12.886 2.567 17.547 6.8 4.661-4.233 10.813-6.8 17.547-6.8.455.001.906.013 1.354.036z" fill="#feb6c4"/></svg>