<svg id="Layer" enable-background="new 0 0 512 512" height="512" viewBox="0 0 512 512" width="512" xmlns="http://www.w3.org/2000/svg"><path d="m437.02 74.98c-30.87-30.87-68.24-52.89-109.02-64.77-10.45-3.05-21.14-5.43-32-7.12-13.11-2.05-26.48-3.09-40-3.09s-26.89 1.04-40 3.09c-10.86 1.69-21.55 4.07-32 7.12-40.78 11.88-78.15 33.9-109.02 64.77-48.35 48.35-74.98 112.64-74.98 181.02s26.63 132.67 74.98 181.02c30.87 30.87 68.24 52.89 109.02 64.77 10.45 3.05 21.14 5.43 32 7.12 13.11 2.05 26.48 3.09 40 3.09s26.89-1.04 40-3.09c10.86-1.69 21.55-4.07 32-7.12 40.78-11.88 78.15-33.9 109.02-64.77 48.35-48.35 74.98-112.64 74.98-181.02s-26.63-132.67-74.98-181.02z" fill="#f0eaea"/><path d="m256.02 280c-13.255 0-24.005-10.745-24.005-24s10.74-24 23.995-24h.01c13.255 0 24 10.745 24 24s-10.745 24-24 24z" fill="#eae1e1"/><path d="m368 320c-35.29 0-64-28.71-64-64s28.71-64 64-64 64 28.71 64 64-28.71 64-64 64z" fill="#dfd5d2"/><path d="m144 320c-35.29 0-64-28.71-64-64s28.71-64 64-64 64 28.71 64 64-28.71 64-64 64z" fill="#dfd5d2"/><circle cx="368" cy="256" fill="#f0eaea" r="16"/><circle cx="144" cy="256" fill="#f0eaea" r="16"/><g fill="#eae1e1"><path d="m296 3.09v68.91c0 22.09-17.91 40-40 40-11.04 0-21.04-4.48-28.28-11.72s-11.72-17.24-11.72-28.28v-68.91c13.11-2.05 26.48-3.09 40-3.09s26.89 1.04 40 3.09z"/><path d="m296 440v68.91c-13.11 2.05-26.48 3.09-40 3.09s-26.89-1.04-40-3.09v-68.91c0-11.04 4.48-21.04 11.72-28.28s17.24-11.72 28.28-11.72c22.09 0 40 17.91 40 40z"/></g></svg>