<svg id="Layer" enable-background="new 0 0 512 512" height="512" viewBox="0 0 512 512" width="512" xmlns="http://www.w3.org/2000/svg"><path d="m438 512h-364c-40.804 0-74-33.196-74-74v-364c0-40.804 33.196-74 74-74h364c40.804 0 74 33.196 74 74v364c0 40.804-33.196 74-74 74z" fill="#f0eaea"/><g fill="#dfd5d2"><path d="m304 408h-96c-13.255 0-24-10.745-24-24v-64c0-35.29 28.71-64 64-64h16c35.29 0 64 28.71 64 64v64c0 13.255-10.745 24-24 24z"/><path d="m136 256c-22.056 0-40-17.944-40-40v-80c0-22.056 17.944-40 40-40s40 17.944 40 40v80c0 22.056-17.944 40-40 40z"/><path d="m376 256c-22.056 0-40-17.944-40-40v-80c0-22.056 17.944-40 40-40s40 17.944 40 40v80c0 22.056-17.944 40-40 40z"/></g></svg>