<svg id="Layer" enable-background="new 0 0 512 512" height="512" viewBox="0 0 512 512" width="512" xmlns="http://www.w3.org/2000/svg"><path d="m376 120h-240c-74.99 0-136 61.01-136 136s61.01 136 136 136h240c74.99 0 136-61.01 136-136s-61.01-136-136-136z" fill="#f0eaea"/><path d="m176 120v272h-40c-74.99 0-136-61.01-136-136s61.01-136 136-136z" fill="#dfd5d2"/><path d="m336 120v272h40c74.99 0 136-61.01 136-136s-61.01-136-136-136z" fill="#dfd5d2"/><path d="m152 200h208c30.928 0 56 25.072 56 56 0 30.928-25.072 56-56 56h-208c-30.928 0-56-25.072-56-56 0-30.928 25.072-56 56-56z" fill="#eae1e1"/><path d="m152 312c-30.878 0-56-25.121-56-56s25.122-56 56-56 56 25.121 56 56-25.122 56-56 56z" fill="#fed5b9"/><path d="m360 312c-30.878 0-56-25.121-56-56s25.122-56 56-56 56 25.121 56 56-25.122 56-56 56z" fill="#fed5b9"/><g fill="#feead2"><circle cx="152" cy="256" r="24"/><circle cx="360" cy="256" r="24"/></g></svg>