<svg id="Layer" enable-background="new 0 0 512 512" height="512" viewBox="0 0 512 512" width="512" xmlns="http://www.w3.org/2000/svg"><path d="m376 200c-13.255 0-24-10.745-24-24v-40c0-8.822-7.178-16-16-16h-160c-8.822 0-16 7.178-16 16v40c0 13.255-10.745 24-24 24s-24-10.745-24-24v-40c0-35.29 28.71-64 64-64h160c35.29 0 64 28.71 64 64v40c0 13.255-10.745 24-24 24z" fill="#fed5b9"/><path d="m376 168h-240c-74.99 0-136 61.01-136 136s61.01 136 136 136h240c74.99 0 136-61.01 136-136s-61.01-136-136-136z" fill="#f0eaea"/><path d="m176 168v272h-40c-74.99 0-136-61.01-136-136s61.01-136 136-136z" fill="#dfd5d2"/><path d="m336 168v272h40c74.99 0 136-61.01 136-136s-61.01-136-136-136z" fill="#dfd5d2"/><path d="m152 248h208c30.928 0 56 25.072 56 56 0 30.928-25.072 56-56 56h-208c-30.928 0-56-25.072-56-56 0-30.928 25.072-56 56-56z" fill="#eae1e1"/><path d="m152 360c-30.878 0-56-25.121-56-56s25.122-56 56-56 56 25.121 56 56-25.122 56-56 56z" fill="#fed5b9"/><path d="m360 360c-30.878 0-56-25.121-56-56s25.122-56 56-56 56 25.121 56 56-25.122 56-56 56z" fill="#fed5b9"/><g fill="#feead2"><circle cx="152" cy="304" r="24"/><circle cx="360" cy="304" r="24"/></g></svg>