<svg id="Layer" enable-background="new 0 0 512 512" height="512" viewBox="0 0 512 512" width="512" xmlns="http://www.w3.org/2000/svg"><path d="m430.48 57.27c-.09-.43-.18-.85-.28-1.27-7.29-32.03-36-56-70.2-56h-208c-34.2 0-62.91 23.97-70.2 56-1.18 5.15-1.8 10.5-1.8 16v368c0 5.5.62 10.85 1.8 16 .41 1.79.88 3.55 1.41 5.28 9.1 29.35 36.5 50.72 68.79 50.72h208c34.2 0 62.91-23.97 70.2-56 1.18-5.15 1.8-10.5 1.8-16v-368c0-5.05-.52-9.97-1.52-14.73z" fill="#92f8fd"/><g><path d="m430.2 56c.1.42.19.84.28 1.27-11.01 15.31-23.82 29.45-36 43.91-34.53 41.01-64.63 85.55-97.41 127.97-64.39 83.32-138.87 158.15-213.86 232.13-.53-1.73-1-3.49-1.41-5.28-1.18-5.15-1.8-10.5-1.8-16v-368c0-5.5.62-10.85 1.8-16 7.29-32.03 36-56 70.2-56h208c34.2 0 62.91 23.97 70.2 56z" fill="#77f6fc"/></g><path d="m430.2 456c-7.29 32.03-36 56-70.2 56h-208c-34.2 0-62.91-23.97-70.2-56z" fill="#f0eaea"/><circle cx="256" cy="480" fill="#dfd5d2" r="16"/><path d="m430.2 56h-348.4c7.29-32.03 36-56 70.2-56h208c34.2 0 62.91 23.97 70.2 56z" fill="#f0eaea"/></svg>