<svg id="Layer" enable-background="new 0 0 512 512" height="512" viewBox="0 0 512 512" width="512" xmlns="http://www.w3.org/2000/svg"><path d="m386 512h-260c-29.776 0-54-24.225-54-54v-404c0-29.775 24.224-54 54-54h260c29.776 0 54 24.225 54 54v404c0 29.775-24.224 54-54 54z" fill="#f0eaea"/><path d="m374.72 56.36c-.14-.17-.27-.34-.41-.51-7.89-9.67-19.89-15.85-33.31-15.85h-170c-23.71 0-43 19.29-43 43v226c0 9.8 3.3 18.84 8.83 26.08 2.58 3.37 5.65 6.36 9.1 8.84 7.06 5.08 15.72 8.08 25.07 8.08h170c23.71 0 43-19.29 43-43v-226c0-10.06-3.47-19.31-9.28-26.64z" fill="#92f8fd"/><circle cx="256" cy="431.995" fill="#dfd5d2" r="31.995"/><g><path d="m374.72 56.36c-39.19 37.65-83.75 69.7-124.5 105.84-48.47 42.99-93.07 94.46-109.38 157.16-1.34 5.16-2.56 10.49-4.01 15.72-5.53-7.24-8.83-16.28-8.83-26.08v-226c0-23.71 19.29-43 43-43h170c13.42 0 25.42 6.18 33.31 15.85.14.17.27.34.41.51z" fill="#77f6fc"/></g></svg>