<svg id="Layer" enable-background="new 0 0 512 512" height="512" viewBox="0 0 512 512" width="512" xmlns="http://www.w3.org/2000/svg"><path d="m458 456h-404c-29.776 0-54-24.225-54-54v-292c0-29.775 24.224-54 54-54h404c29.776 0 54 24.225 54 54v292c0 29.775-24.224 54-54 54z" fill="#f0eaea"/><path d="m72.005 280.005c-13.255 0-24.005-10.75-24.005-24.005s10.75-24.005 24.005-24.005 24.005 10.75 24.005 24.005-10.75 24.005-24.005 24.005zm23.995-24.005h.01zm-23.995 0h.01z" fill="#fed5b9"/><path d="m72.005 208.01c-13.255 0-24.005-10.75-24.005-24.005s10.75-24.005 24.005-24.005 24.005 10.75 24.005 24.005-10.75 24.005-24.005 24.005zm23.995-24.005h.01zm-23.995 0h.01z" fill="#fed5b9"/><path d="m72.005 352c-13.255 0-24.005-10.75-24.005-24.005s10.75-24.005 24.005-24.005 24.005 10.75 24.005 24.005-10.75 24.005-24.005 24.005zm23.995-24.005h.01zm-23.995 0h.01z" fill="#fed5b9"/><g fill="#dfd5d2"><path d="m208 128c0 8.837-7.163 16-16 16h-11c-2.761 0-5 2.239-5 5v11c0 8.837-7.163 16-16 16-8.837 0-16-7.163-16-16v-28c0-11.046 8.954-20 20-20h28c8.837 0 16 7.163 16 16z"/><path d="m160 336c8.837 0 16 7.163 16 16v11c0 2.761 2.239 5 5 5h11c8.837 0 16 7.163 16 16 0 8.837-7.163 16-16 16h-28c-11.046 0-20-8.954-20-20v-28c0-8.837 7.163-16 16-16z"/><path d="m392 384c0-8.837 7.163-16 16-16h11c2.761 0 5-2.239 5-5v-11c0-8.837 7.163-16 16-16 8.837 0 16 7.163 16 16v28c0 11.046-8.954 20-20 20h-28c-8.837 0-16-7.163-16-16z"/><path d="m440 176c-8.837 0-16-7.163-16-16v-11c0-2.761-2.239-5-5-5h-11c-8.837 0-16-7.163-16-16 0-8.837 7.163-16 16-16h28c11.046 0 20 8.954 20 20v28c0 8.837-7.163 16-16 16z"/></g></svg>