<svg id="Layer" enable-background="new 0 0 512 512" height="512" viewBox="0 0 512 512" width="512" xmlns="http://www.w3.org/2000/svg"><path d="m24 512c-6.142 0-12.284-2.343-16.971-7.029-9.373-9.373-9.373-24.568 0-33.941l47.37-47.37c9.373-9.373 24.568-9.373 33.941 0s9.373 24.568 0 33.941l-47.37 47.37c-4.686 4.686-10.828 7.029-16.97 7.029z" fill="#dfd5d2"/><path d="m108.505 479.998c-1.143 0-2.287-.025-3.433-.077-19.136-.853-37.131-8.779-50.673-22.32-14.444-14.445-22.399-33.655-22.399-54.091 0-17.873 6.307-35.267 17.762-48.989l180.007-217.839c4.306-5.211 10.611-8.364 17.364-8.685 6.749-.336 13.328 2.222 18.107 7.002l111.761 111.761c4.78 4.78 7.322 11.355 7.002 18.108-.32 6.752-3.474 13.057-8.685 17.363l-217.847 180.014c-13.804 11.516-31.073 17.752-48.966 17.753z" fill="#f0eaea"/><path d="m368 0c-33.6 0-64.54 11.57-89.07 30.93-11.9 9.39-22.29 20.62-30.74 33.26-15.27 22.86-24.19 50.31-24.19 79.81 0 79.4 64.6 144 144 144 29.5 0 56.95-8.92 79.81-24.19 12.64-8.45 23.87-18.84 33.26-30.74 19.36-24.53 30.93-55.47 30.93-89.07 0-79.4-64.6-144-144-144z" fill="#dfd5d2"/><path d="m481.07 233.07c-9.39 11.9-20.62 22.29-33.26 30.74l-199.62-199.62c8.45-12.64 18.84-23.87 30.74-33.26z" fill="#f0eaea"/><path d="m235.314 278.059c6.248 6.248 6.248 16.379 0 22.627l-22.627 22.627c-6.248 6.248-16.379 6.248-22.627 0-6.248-6.248-6.248-16.379 0-22.627l22.627-22.627c6.248-6.249 16.378-6.249 22.627 0z" fill="#fed5b9"/></svg>