<svg id="Layer" enable-background="new 0 0 512 512" height="512" viewBox="0 0 512 512" width="512" xmlns="http://www.w3.org/2000/svg"><path d="m336 512c-13.255 0-24-10.745-24-24v-192c0-13.255 10.745-24 24-24s24 10.745 24 24v192c0 13.255-10.745 24-24 24z" fill="#f0eaea"/><path d="m176 512c-13.255 0-24-10.745-24-24v-192c0-13.255 10.745-24 24-24s24 10.745 24 24v192c0 13.255-10.745 24-24 24z" fill="#f0eaea"/><path d="m335.007 319.992c-35.117-.535-63.007-29.842-63.007-64.963v-119.029h128v120c0 35.621-29.25 64.537-64.993 63.992z" fill="#dfd5d2"/><path d="m175.007 319.992c-35.117-.535-63.007-29.842-63.007-64.963v-119.029h128v120c0 35.621-29.25 64.537-64.993 63.992z" fill="#dfd5d2"/><path d="m438 0h-142c-13.25 0-24 10.75-24 24v112c0 13.25 10.75 24 24 24h142c40.8 0 74-33.2 74-74v-12c0-40.8-33.2-74-74-74z" fill="#f0eaea"/><path d="m216 0h-142c-40.8 0-74 33.2-74 74v12c0 40.8 33.2 74 74 74h142c13.25 0 24-10.75 24-24v-112c0-13.25-10.75-24-24-24z" fill="#f0eaea"/><g fill="#dfd5d2"><path d="m512 74v12c0 40.8-33.2 74-74 74h-14v-160h14c40.8 0 74 33.2 74 74z"/><path d="m88 0v160h-14c-40.8 0-74-33.2-74-74v-12c0-40.8 33.2-74 74-74z"/></g></svg>