<svg id="Layer" enable-background="new 0 0 512 512" height="512" viewBox="0 0 512 512" width="512" xmlns="http://www.w3.org/2000/svg"><path d="m438 288h-364c-40.804 0-74-33.196-74-74v-60c0-40.804 33.196-74 74-74h364c40.804 0 74 33.196 74 74v60c0 40.804-33.196 74-74 74z" fill="#f0eaea"/><path d="m360 184c0 57.44-46.56 104-104 104-32.14 0-60.87-14.58-79.94-37.48-15.03-18.03-24.06-41.22-24.06-66.52 0-57.44 46.56-104 104-104 34.9 0 65.78 17.18 84.63 43.55 12.2 17.04 19.37 37.91 19.37 60.45z" fill="#92f8fd"/><g><path d="m340.63 123.55c-3.76-1.01-7.61-1.63-11.55-1.72-7.92-.19-15.73 1.77-23.33 4.02-26.85 7.93-52.85 19.66-74.85 36.97-22.01 17.3-39.9 40.43-48.44 67.09-2.18 6.82-3.82 13.97-6.4 20.61-15.03-18.03-24.06-41.22-24.06-66.52 0-57.44 46.56-104 104-104 34.9 0 65.78 17.18 84.63 43.55z" fill="#77f6fc"/></g><path d="m320 392h-128v-128h128z" fill="#eae1e1"/><g fill="#dfd5d2"><path d="m400.022 432.005c-1.725 0-3.475-.187-5.229-.576l-72.413-16.092c-43.427-9.652-89.335-9.65-132.762 0l-72.413 16.092c-12.938 2.873-25.759-5.283-28.635-18.223-2.875-12.938 5.283-25.759 18.223-28.635l72.413-16.092c50.238-11.164 103.348-11.164 153.586 0l72.413 16.092c12.939 2.876 21.098 15.696 18.223 28.635-2.485 11.186-12.405 18.799-23.406 18.799z"/><path d="m256 80c-57.44 0-104 46.56-104 104s46.56 104 104 104 104-46.56 104-104-46.56-104-104-104zm0 176c-39.76 0-72-32.24-72-72s32.24-72 72-72 72 32.24 72 72-32.24 72-72 72z"/></g></svg>