<svg id="Layer" enable-background="new 0 0 512 512" height="512" viewBox="0 0 512 512" width="512" xmlns="http://www.w3.org/2000/svg"><path d="m88.001 192.007c-9.835 0-19.059-6.091-22.583-15.878-4.489-12.471 1.981-26.221 14.452-30.71l400-144c12.472-4.491 26.221 1.979 30.711 14.452 4.489 12.471-1.981 26.221-14.452 30.71l-400 144c-2.685.967-5.43 1.426-8.128 1.426z" fill="#dfd5d2"/><path d="m468 512h-424c-24.262 0-44-19.738-44-44v-280c0-24.262 19.738-44 44-44h424c24.262 0 44 19.738 44 44v280c0 24.262-19.738 44-44 44z" fill="#f0eaea"/><path d="m352 312c-13.255 0-24-10.745-24-24v-40c0-13.255 10.745-24 24-24s24 10.745 24 24v40c0 13.255-10.745 24-24 24z" fill="#feb6c4"/><path d="m416 272h-320c-13.255 0-24-10.745-24-24s10.745-24 24-24h320c13.255 0 24 10.745 24 24s-10.745 24-24 24z" fill="#dfd5d2"/><g fill="#fed5b9"><path d="m336.02 400c-13.255 0-24.005-10.745-24.005-24s10.74-24 23.995-24h.01c13.255 0 24 10.745 24 24s-10.745 24-24 24z"/><path d="m408.02 400c-13.255 0-24.005-10.745-24.005-24s10.74-24 23.995-24h.01c13.255 0 24 10.745 24 24s-10.745 24-24 24z"/><path d="m206.89 332.99c-5.27-9.45-12.62-17.6-21.43-23.82-11.73-8.29-26.04-13.17-41.46-13.17-39.7 0-72 32.3-72 72s32.3 72 72 72 72-32.3 72-72c0-12.7-3.31-24.64-9.11-35.01z"/></g><path d="m206.89 332.99-19.58 19.58c-6.24 6.25-16.38 6.25-22.62 0-3.13-3.13-4.69-7.22-4.69-11.31 0-4.1 1.56-8.2 4.69-11.32l20.77-20.77c8.81 6.22 16.16 14.37 21.43 23.82z" fill="#dfd5d2"/></svg>