<svg id="Layer" enable-background="new 0 0 512 512" height="512" viewBox="0 0 512 512" width="512" xmlns="http://www.w3.org/2000/svg"><path d="m348 512h-274c-18.748 0-34-15.252-34-34v-444c0-18.748 15.252-34 34-34h364c18.748 0 34 15.252 34 34v354c0 68.374-55.626 124-124 124zm90-464h.01z" fill="#f0eaea"/><path d="m394.9 64.1c-6-9.66-16.71-16.1-28.9-16.1h-220c-18.75 0-34 15.25-34 34v180c0 9.21 3.68 17.58 9.65 23.7 6.17 6.35 14.81 10.3 24.35 10.3h220c18.75 0 34-15.25 34-34v-180c0-6.57-1.87-12.7-5.1-17.9z" fill="#92f8fd"/><path d="m208 368h-16v-16c0-13.255-10.745-24-24-24s-24 10.745-24 24v16h-16c-13.255 0-24 10.745-24 24s10.745 24 24 24h16v16c0 13.255 10.745 24 24 24s24-10.745 24-24v-16h16c13.255 0 24-10.745 24-24s-10.745-24-24-24z" fill="#fed5b9"/><path d="m304.02 440c-13.254 0-24.005-10.745-24.005-24s10.74-24 23.995-24h.01c13.255 0 24 10.745 24 24s-10.746 24-24 24z" fill="#feb6c4"/><path d="m360.02 392c-13.254 0-24.005-10.745-24.005-24s10.74-24 23.995-24h.01c13.255 0 24 10.745 24 24s-10.746 24-24 24z" fill="#5be0d5"/><g><path d="m394.9 64.1c-37.03 10.75-71.89 29.89-103.91 51.77-59.47 40.63-111.86 91.57-154.16 149.86-4.9 6.76-9.72 13.67-15.18 19.97-5.97-6.12-9.65-14.49-9.65-23.7v-180c0-18.75 15.25-34 34-34h220c12.19 0 22.9 6.44 28.9 16.1z" fill="#77f6fc"/></g></svg>