<svg id="Layer" enable-background="new 0 0 512 512" height="512" viewBox="0 0 512 512" width="512" xmlns="http://www.w3.org/2000/svg"><path d="m494.9 78.61c-9.66-9.06-22.64-14.61-36.9-14.61h-404c-29.78 0-54 24.22-54 54v276c0 16.44 7.38 31.19 19.01 41.1 9.43 8.04 21.65 12.9 34.99 12.9h404c29.78 0 54-24.22 54-54v-276c0-15.52-6.58-29.54-17.1-39.39z" fill="#92f8fd"/><g><path d="m494.9 78.61c-51.15 15.86-101.77 33.39-149.46 57.56-59.71 30.28-113.75 70.44-167.46 110.39-28.9 21.5-58.14 43.32-80.64 71.43-26.58 33.19-42.64 73.78-68.98 107.16-2.72 3.45-5.88 6.88-9.35 9.95-11.63-9.91-19.01-24.66-19.01-41.1v-276c0-29.78 24.22-54 54-54h404c14.26 0 27.24 5.55 36.9 14.61z" fill="#77f6fc"/></g><path d="m296.001 288c-5.312 0-10.616-1.758-14.994-5.259l-25.007-20.006-25.007 20.006c-8.561 6.848-20.674 7.024-29.43.431-8.758-6.594-11.934-18.283-7.718-28.402l40-96c3.727-8.944 12.467-14.77 22.155-14.77s18.428 5.826 22.154 14.77l40 96c4.216 10.119 1.04 21.809-7.718 28.402-4.279 3.223-9.36 4.828-14.435 4.828z" fill="#5be0d5"/><path d="m512 376v18c0 29.78-24.22 54-54 54h-404c-29.78 0-54-24.22-54-54v-18z" fill="#f0eaea"/></svg>