<svg id="Layer" enable-background="new 0 0 512 512" height="512" viewBox="0 0 512 512" width="512" xmlns="http://www.w3.org/2000/svg"><path d="m473 320h-57v-128h57c21.539 0 39 17.461 39 39v50c0 21.539-17.461 39-39 39z" fill="#dfd5d2"/><path d="m396 384h-352c-24.262 0-44-19.738-44-44v-168c0-24.262 19.738-44 44-44h352c24.262 0 44 19.738 44 44v168c0 24.262-19.738 44-44 44z" fill="#f0eaea"/><g fill="#feb6c4"><path d="m128 336h-16c-13.255 0-24-10.745-24-24v-112c0-13.255 10.745-24 24-24h16c13.255 0 24 10.745 24 24v112c0 13.255-10.745 24-24 24z"/><path d="m224 336h-16c-13.255 0-24-10.745-24-24v-112c0-13.255 10.745-24 24-24h16c13.255 0 24 10.745 24 24v112c0 13.255-10.745 24-24 24z"/><path d="m320 336h-16c-13.255 0-24-10.745-24-24v-112c0-13.255 10.745-24 24-24h16c13.255 0 24 10.745 24 24v112c0 13.255-10.745 24-24 24z"/></g></svg>