<svg id="Layer" enable-background="new 0 0 512 512" height="512" viewBox="0 0 512 512" width="512" xmlns="http://www.w3.org/2000/svg"><path d="m330 512h-204c-29.776 0-54-24.225-54-54v-178c0-13.255 10.745-24 24-24s24 10.745 24 24v178c0 3.309 2.691 6 6 6h204c3.309 0 6-2.691 6-6v-50c0-13.255 10.745-24 24-24s24 10.745 24 24v50c0 29.775-24.224 54-54 54z" fill="#dfd5d2"/><path d="m458 432h-196c-29.776 0-54-24.225-54-54v-324c0-29.775 24.224-54 54-54h196c29.776 0 54 24.225 54 54v324c0 29.775-24.224 54-54 54z" fill="#f0eaea"/><path d="m359.996 304.007c-2.8 0-5.647-.494-8.423-1.535-12.411-4.654-18.699-18.487-14.045-30.898l11.84-31.574h-13.368c-7.715 0-14.959-3.709-19.47-9.967-4.511-6.259-5.738-14.304-3.299-21.623l24-72c4.192-12.573 17.783-19.37 30.358-15.179s19.371 17.783 15.179 30.358l-13.47 40.411h14.702c7.872 0 15.243 3.86 19.726 10.33 4.484 6.47 5.51 14.727 2.746 22.097l-24 64c-3.613 9.635-12.759 15.58-22.476 15.58z" fill="#fed5b9"/><path d="m116 152h-40c-24.26 0-44 19.74-44 44v64c0 24.26 19.74 44 44 44h40c24.26 0 44-19.74 44-44v-64c0-24.26-19.74-44-44-44z" fill="#f0eaea"/><path d="m160 224v36c0 24.26-19.74 44-44 44h-40c-24.26 0-44-19.74-44-44v-36z" fill="#eae1e1"/></svg>