<svg id="Layer" enable-background="new 0 0 512 512" height="512" viewBox="0 0 512 512" width="512" xmlns="http://www.w3.org/2000/svg"><path d="m256 0c-101.46 0-184 82.54-184 184 0 29.02 6.94 57.93 20.06 83.61 10.02 19.63 23.69 37.48 40.02 52.39 1.29 1.18 2.6 2.34 3.92 3.48v104.52c0 46.32 37.68 84 84 84h72c46.32 0 84-37.68 84-84v-104.52c1.32-1.14 2.63-2.3 3.92-3.48 16.33-14.91 30-32.76 40.02-52.39 13.12-25.68 20.06-54.59 20.06-83.61 0-101.46-82.54-184-184-184z" fill="#feead2"/><path d="m376 323.48v104.52c0 46.32-37.68 84-84 84h-72c-46.32 0-84-37.68-84-84v-104.52z" fill="#f0eaea"/><path d="m376 323.48c1.32-1.14 2.63-2.3 3.92-3.48 16.33-14.91 30-32.76 40.02-52.39 1.94-3.8 3.75-7.68 5.42-11.61h-338.72c1.67 3.93 3.48 7.81 5.42 11.61 10.02 19.63 23.69 37.48 40.02 52.39 1.29 1.18 2.6 2.34 3.92 3.48z" fill="#dfd5d2"/></svg>