<svg id="Layer" enable-background="new 0 0 512 512" height="512" viewBox="0 0 512 512" width="512" xmlns="http://www.w3.org/2000/svg"><path d="m408 512h-304c-57.346 0-104-46.654-104-104v-304c0-57.346 46.654-104 104-104h304c57.346 0 104 46.654 104 104v304c0 57.346-46.654 104-104 104z" fill="#f0eaea"/><g fill="#dfd5d2"><path d="m408 144c-22.056 0-40-17.944-40-40s17.944-40 40-40 40 17.944 40 40-17.944 40-40 40z"/><path d="m104 144c-22.056 0-40-17.944-40-40s17.944-40 40-40 40 17.944 40 40-17.944 40-40 40z"/><path d="m104 448c-22.056 0-40-17.944-40-40s17.944-40 40-40 40 17.944 40 40-17.944 40-40 40z"/><path d="m408 448c-22.056 0-40-17.944-40-40s17.944-40 40-40 40 17.944 40 40-17.944 40-40 40z"/></g><path d="m336 82v44c0 5.52-4.48 10-10 10h-140c-5.52 0-10-4.48-10-10v-44c0-5.52 4.48-10 10-10h140c2.69 0 5.13 1.06 6.93 2.8 1.89 1.82 3.07 4.37 3.07 7.2z" fill="#92f8fd"/><g><path d="m326 72c2.69 0 5.13 1.06 6.93 2.8-24.25 3.93-47.72 12.93-69.54 24.4-20.34 10.69-39.44 23.51-58.21 36.8h-19.18c-5.52 0-10-4.48-10-10v-44c0-5.52 4.48-10 10-10z" fill="#77f6fc"/></g></svg>