<svg id="Layer" enable-background="new 0 0 512 512" height="512" viewBox="0 0 512 512" width="512" xmlns="http://www.w3.org/2000/svg"><path d="m256.85 305.52 1.51 6.48h-4.72l1.51-6.48c.04-.17.08-.35.12-.52.43-2.05.67-4.11.73-6.17.06 2.06.3 4.12.73 6.17.04.17.08.35.12.52z" fill="#dfd5d2"/><path d="m290 264c-10.29 0-19.91 4.58-26.4 12.58-4.87 6-7.5 13.34-7.6 20.89-.1-7.55-2.73-14.89-7.6-20.89-6.49-8-16.11-12.58-26.4-12.58z" fill="#fed5b9"/><path d="m24.021 312.005c-1.764 0-3.553-.195-5.346-.603-12.925-2.94-21.019-15.802-18.078-28.727l42.562-187.08c5.429-27.611 29.682-47.595 57.867-47.595 32.519 0 58.974 26.455 58.974 58.974v13.026c0 13.255-10.745 24-24 24s-24-10.745-24-24v-13.026c0-6.051-4.923-10.974-10.974-10.974-5.277 0-9.814 3.766-10.787 8.953-.057.301-.119.601-.187.899l-42.65 187.472c-2.533 11.132-12.426 18.681-23.381 18.681z" fill="#f0eaea"/><path d="m487.979 312.005c-10.955 0-20.848-7.548-23.381-18.681l-42.65-187.472c-.067-.299-.13-.599-.187-.899-.973-5.188-5.51-8.953-10.787-8.953-6.051 0-10.974 4.923-10.974 10.974v13.026c0 13.255-10.745 24-24 24s-24-10.745-24-24v-13.026c0-32.519 26.455-58.974 58.974-58.974 28.186 0 52.438 19.984 57.867 47.595l42.562 187.081c2.94 12.925-5.153 25.786-18.078 28.727-1.793.407-3.584.602-5.346.602z" fill="#f0eaea"/><path d="m512 288v112c0 35.29-28.71 64-64 64h-95.43c-34.7 0-65.08-24.57-72.35-58.47l-21.86-93.53-1.51-6.48c-.04-.17-.08-.35-.12-.52-.43-2.05-.67-4.11-.73-6.17.01-.45.01-.91 0-1.36.1-7.55 2.73-14.89 7.6-20.89 6.49-8 16.11-12.58 26.4-12.58h198c13.25 0 24 10.75 24 24z" fill="#fed5b9"/><path d="m256 297.47c-.01.45-.01.91 0 1.36-.06 2.06-.3 4.12-.73 6.17-.04.17-.08.35-.12.52l-1.51 6.48-21.86 93.53c-7.27 33.9-37.65 58.47-72.35 58.47h-95.43c-35.29 0-64-28.71-64-64v-112c0-13.25 10.75-24 24-24h198c10.29 0 19.91 4.58 26.4 12.58 4.87 6 7.5 13.34 7.6 20.89z" fill="#fed5b9"/><path d="m225.75 312.87-24.92 99.18c-5.26 16.64-20.69 27.95-38.15 27.95h-98.68c-8.55 0-16.47-2.68-22.97-7.25-10.3-7.24-17.03-19.21-17.03-32.75v-92c0-11.05 8.95-20 20-20h162.35c7.68 0 14.15 4.26 17.51 10.34 2.35 4.24 3.19 9.35 1.89 14.53z" fill="#92f8fd"/><path d="m488 308v92c0 22.091-17.909 40-40 40h-98.685c-17.451 0-32.888-11.314-38.143-27.955l-24.921-99.171c-3.174-12.628 6.375-24.874 19.397-24.874h162.352c11.046 0 20 8.954 20 20z" fill="#92f8fd"/><g><path d="m223.86 298.34c-20.6 1.9-40.39 10.25-61.1 10.96-13.48.46-26.91-2.34-40.38-1.84-19.66.72-38.31 8.38-57.5 12.71-4.4.99-8.95 1.85-12.73 4.3-2.73 1.76-4.92 4.26-6.71 6.98-8.76 13.35-7.74 30.74-4.99 46.47 2.76 15.73 6.93 31.85 3.42 47.43-.57 2.51-1.51 5.11-2.84 7.4-10.3-7.24-17.03-19.21-17.03-32.75v-92c0-11.05 8.95-20 20-20h162.35c7.68 0 14.15 4.26 17.51 10.34z" fill="#77f6fc"/></g><g><path d="m288 298.34c20.6 1.9 40.39 10.25 61.1 10.96 13.48.46 26.91-2.34 40.38-1.84 19.66.72 38.31 8.38 57.5 12.71 4.4.99 8.95 1.85 12.73 4.3 2.73 1.76 4.92 4.26 6.71 6.98 8.76 13.35 7.74 30.74 4.99 46.47-2.76 15.73-6.93 31.85-3.42 47.43.57 2.51 1.51 5.11 2.84 7.4 10.3-7.24 17.03-19.21 17.03-32.75v-92c0-11.05-8.95-20-20-20h-162.35c-7.68 0-14.15 4.26-17.51 10.34z" fill="#77f6fc"/></g></svg>