<svg id="Layer" enable-background="new 0 0 512 512" height="512" viewBox="0 0 512 512" width="512" xmlns="http://www.w3.org/2000/svg"><path d="m488 304h-464c-13.255 0-24-10.745-24-24 0-28.88 4.208-57.549 12.507-85.21l30.091-100.307c6.905-23.017 27.691-38.483 51.723-38.483h323.357c24.032 0 44.818 15.466 51.724 38.483l30.091 100.307c8.299 27.661 12.507 56.33 12.507 85.21 0 13.255-10.745 24-24 24z" fill="#f0eaea"/><path d="m458 440h-404c-29.775 0-54-24.225-54-54v-116c0-29.775 24.225-54 54-54h404c29.775 0 54 24.225 54 54v116c0 29.775-24.225 54-54 54z" fill="#dfd5d2"/><path d="m112 360c-17.645 0-32-14.355-32-32s14.355-32 32-32 32 14.355 32 32-14.355 32-32 32z" fill="#feb6c4"/><g fill="#5be0d5"><path d="m208 352h-8c-13.255 0-24-10.745-24-24s10.745-24 24-24h8c13.255 0 24 10.745 24 24s-10.745 24-24 24z"/><path d="m296 352h-8c-13.255 0-24-10.745-24-24s10.745-24 24-24h8c13.255 0 24 10.745 24 24s-10.745 24-24 24z"/></g></svg>