<svg id="Layer" enable-background="new 0 0 512 512" height="512" viewBox="0 0 512 512" width="512" xmlns="http://www.w3.org/2000/svg"><path d="m344 0h-176c-79.4 0-144 64.6-144 144v224c0 79.4 64.6 144 144 144h176c79.4 0 144-64.6 144-144v-224c0-79.4-64.6-144-144-144z" fill="#f0eaea"/><path d="m323 280h-134c-38.108 0-69-30.892-69-69v-11h272v11c0 38.108-30.892 69-69 69z" fill="#eae1e1"/><path d="m256.02 360c-13.254 0-24.005-10.745-24.005-24s10.74-24 23.995-24h.01c13.255 0 24 10.745 24 24s-10.746 24-24 24z" fill="#feb6c4"/><path d="m24 168h464v48h-464z" fill="#dfd5d2"/></svg>