<svg height="512pt" viewBox="0 -20 512 512" width="512pt" xmlns="http://www.w3.org/2000/svg"><path d="m249.589844 143.925781s-134.738282 8.527344-179 127.011719l209.167968 35.105469 209.167969-35.105469c-44.257812-118.484375-178.996093-127.011719-178.996093-127.011719l-30.171876-25.484375zm0 0" fill="#59c2e7"/><path d="m101.496094 270.9375c44.261718-118.488281 179-127.011719 179-127.011719l14.714844-12.433593-15.453126-13.050782-30.167968 25.484375s-134.738282 8.527344-179 127.011719l209.167968 35.109375 15.453126-2.597656zm0 0" fill="#00a2d7"/><path d="m309.929688 143.925781h-60.339844v-65.199219c0-10.136718-8.25-18.386718-18.386719-18.386718h-231.203125v-60.339844h231.203125c43.410156 0 78.726563 35.316406 78.726563 78.726562zm0 0" fill="#d5d4da"/><path d="m488.925781 270.9375h-418.335937c-12.742188 0-23.070313 10.328125-23.070313 23.070312v24.070313c0 12.742187 10.328125 23.070313 23.070313 23.070313h418.335937c12.746094 0 23.074219-10.328126 23.074219-23.070313v-24.070313c0-12.742187-10.332031-23.070312-23.074219-23.070312zm0 0" fill="#d5d4da"/><path d="m78.421875 318.078125v-24.066406c0-12.746094 10.332031-23.074219 23.074219-23.074219h-30.90625c-12.742188 0-23.070313 10.332031-23.070313 23.074219v24.066406c0 12.742187 10.328125 23.074219 23.070313 23.074219h30.90625c-12.742188 0-23.074219-10.332032-23.074219-23.074219zm0 0" fill="#b8b5ca"/><g fill="#334151"><path d="m198.277344 231.84375c-4.265625 0-7.726563-3.457031-7.726563-7.726562v-14.746094c0-4.265625 3.460938-7.722656 7.726563-7.722656 4.269531 0 7.726562 3.457031 7.726562 7.722656v14.746094c0 4.269531-3.457031 7.726562-7.726562 7.726562zm0 0"/><path d="m361.238281 231.84375c-4.265625 0-7.726562-3.457031-7.726562-7.726562v-14.746094c0-4.265625 3.460937-7.722656 7.726562-7.722656 4.269531 0 7.726563 3.457031 7.726563 7.722656v14.746094c0 4.269531-3.457032 7.726562-7.726563 7.726562zm0 0"/><path d="m279.757812 239.71875c-10.066406 0-19.515624-4.207031-25.925781-11.539062-2.808593-3.214844-2.480469-8.097657.730469-10.902344 3.214844-2.808594 8.09375-2.484375 10.902344.730468 3.476562 3.976563 8.6875 6.257813 14.296875 6.257813 5.605469 0 10.816406-2.28125 14.292969-6.257813 2.804687-3.210937 7.6875-3.539062 10.902343-.730468 3.210938 2.808594 3.539063 7.6875.730469 10.902344-6.410156 7.332031-15.859375 11.539062-25.929688 11.539062zm0 0"/></g><path d="m283.472656 397.855469c-2.039062-2.050781-5.386718-2.050781-7.429687 0-38.851563 39.03125-27.734375 73.515625 3.714843 73.515625 31.449219 0 42.566407-34.484375 3.714844-73.515625zm0 0" fill="#59c2e7"/><path d="m290.0625 450.769531c-21.199219 0-33.152344-15.667969-26.804688-37.832031-22.78125 32.417969-10.8125 58.433594 16.5 58.433594 17.101563 0 28.1875-10.195313 28.5-25.777344-4.734374 3.324219-10.917968 5.175781-18.195312 5.175781zm0 0" fill="#00a2d7"/><path d="m147.707031 397.855469c-2.039062-2.050781-5.386719-2.050781-7.429687 0-38.851563 39.03125-27.734375 73.515625 3.714844 73.515625 31.449218 0 42.566406-34.484375 3.714843-73.515625zm0 0" fill="#59c2e7"/><path d="m154.296875 450.769531c-21.199219 0-33.152344-15.667969-26.804687-37.832031-22.78125 32.417969-10.8125 58.433594 16.5 58.433594 17.101562 0 28.1875-10.195313 28.5-25.777344-4.734376 3.324219-10.917969 5.175781-18.195313 5.175781zm0 0" fill="#00a2d7"/><path d="m411.808594 397.855469c2.039062-2.050781 5.390625-2.050781 7.429687 0 38.851563 39.03125 27.734375 73.515625-3.714843 73.515625-31.445313 0-42.566407-34.484375-3.714844-73.515625zm0 0" fill="#59c2e7"/><path d="m425.828125 450.769531c-21.199219 0-33.152344-15.667969-26.804687-37.832031-22.78125 32.417969-10.8125 58.433594 16.5 58.433594 17.101562 0 28.1875-10.195313 28.5-25.777344-4.734376 3.324219-10.917969 5.175781-18.195313 5.175781zm0 0" fill="#00a2d7"/></svg>