<svg height="512pt" viewBox="0 -17 512 512" width="512pt" xmlns="http://www.w3.org/2000/svg"><path d="m10.542969 316.144531v48.03125c0 7.164063 5.804687 12.96875 12.96875 12.96875 7.164062 0 12.96875-5.804687 12.96875-12.96875v-48.03125zm0 0" fill="#d5d4da"/><path d="m85.683594 316.144531v48.03125c0 7.164063-5.804688 12.96875-12.96875 12.96875-7.164063 0-12.96875-5.804687-12.96875-12.96875v-48.03125zm0 0" fill="#d5d4da"/><path d="m10.542969 289.726562s-2.46875-35.988281 20.429687-49.214843l17.140625-15.667969 17.140625 15.667969c22.894532 13.222656 20.429688 49.214843 20.429688 49.214843l-37.570313 18.105469zm0 0" fill="#00ccac"/><path d="m285.273438 77.558594c-8.441407-5.277344-19.132813-5.277344-27.574219 0-53.625 33.53125-89.296875 93.105468-89.296875 161.015625 0 73.574219 41.871094 137.367187 103.082031 168.855469 61.210937-31.488282 103.085937-95.28125 103.085937-168.855469 0-67.910157-35.671874-127.484375-89.296874-161.015625zm0 0" fill="#00ccac"/><path d="m441.441406 70.558594c-45.5-45.5-105.859375-70.558594-169.957031-70.558594-64.242187 0-124.640625 25.019531-170.066406 70.445312-45.425781 45.425782-70.445313 105.824219-70.445313 170.070313h34.28125c0-113.71875 92.515625-206.234375 206.230469-206.234375 54.941406 0 106.691406 21.492188 145.71875 60.515625 39.023437 39.027344 60.515625 90.777344 60.515625 145.71875 0 47.945313-16.816406 94.644531-47.351562 131.496094-30.152344 36.382812-72.109376 61.496093-118.148438 70.714843-7.847656 1.570313-13.527344-1.886718-16.210938-4.089843-4.691406-3.84375-7.382812-9.519531-7.382812-15.574219v-105.46875l41.0625-22.539062c8.296875-4.558594 11.332031-14.976563 6.773438-23.273438-4.554688-8.300781-14.972657-11.332031-23.269532-6.777344l-24.566406 13.484375v-42.03125l41.0625-22.542969c8.296875-4.554687 11.332031-14.976562 6.773438-23.273437-4.554688-8.300781-14.972657-11.332031-23.269532-6.777344l-24.566406 13.484375v-41.113281c0-9.46875-7.671875-17.140625-17.136719-17.140625-9.46875 0-17.140625 7.671875-17.140625 17.140625v41.113281l-24.5625-13.484375c-8.300781-4.554687-18.71875-1.523437-23.273437 6.777344-4.558594 8.296875-1.523438 18.71875 6.773437 23.273437l41.0625 22.542969v42.03125l-24.5625-13.484375c-8.300781-4.554687-18.71875-1.519531-23.273437 6.777344-4.558594 8.296875-1.523438 18.714844 6.773437 23.273438l41.0625 22.539062v105.46875c0 16.367188 7.265625 31.707031 19.929688 42.089844 9.757812 7.996094 21.773437 12.242187 34.085937 12.242187 3.519531 0 7.0625-.347656 10.585938-1.050781 53.71875-10.757812 102.664062-40.039062 137.8125-82.457031 35.621093-42.988281 55.238281-97.457031 55.238281-153.371094 0-64.097656-25.058594-124.457031-70.558594-169.957031zm0 0" fill="#76e6d5"/><path d="m59.746094 316.144531h25.9375v35.546875h-25.9375zm0 0" fill="#b8b5ca"/><path d="m10.542969 351.691406h25.9375v-35.546875h-25.9375zm0 0" fill="#b8b5ca"/><path d="m85.683594 289.726562h-75.140625c-5.824219 0-10.542969 4.71875-10.542969 10.542969v15.125c0 5.824219 4.71875 10.542969 10.542969 10.542969h75.140625c5.820312 0 10.542968-4.71875 10.542968-10.542969v-15.125c0-5.824219-4.722656-10.542969-10.542968-10.542969zm0 0" fill="#76e6d5"/></svg>