<svg height="504pt" viewBox="-106 0 504 504.3885" width="504pt" xmlns="http://www.w3.org/2000/svg"><path d="m84.34375 431.429688v48.003906c0 13.78125 11.171875 24.953125 24.957031 24.953125h74.214844c13.785156 0 24.957031-11.171875 24.957031-24.953125v-48.003906zm0 0" fill="#d5d4da"/><path d="m114.789062 479.433594v-48.003906h-30.445312v48.003906c0 13.78125 11.171875 24.953125 24.957031 24.953125h30.445313c-13.785156 0-24.957032-11.171875-24.957032-24.953125zm0 0" fill="#b8b5ca"/><g fill="#ebebeb"><path d="m181.285156 246.925781h75.28125v117.105469h-75.28125zm0 0"/><path d="m265.917969 141.726562c-7.71875-19.300781-29.625-28.691406-48.925781-20.96875l-58.539063-7.835937-70.582031 59.445313.019531.027343-27.980469 11.191407c-19.300781 7.722656-28.691406 29.628906-20.96875 48.929687 5.886719 14.71875 20.019532 23.671875 34.960938 23.671875 4.652344 0 9.382812-.871094 13.964844-2.703125l78.613281 6.992187 50.5-58.636718 27.96875-11.1875c19.300781-7.71875 28.691406-29.625 20.96875-48.925782zm0 0"/><path d="m103.28125 0h-29.179688c-9.957031 0-18.03125 8.074219-18.03125 18.03125v95.394531h65.246094v-95.394531c0-9.957031-8.078125-18.03125-18.035156-18.03125zm0 0"/><path d="m218.714844 0h-29.179688c-9.960937 0-18.03125 8.074219-18.03125 18.03125v95.394531h65.242188v-95.394531c0-9.957031-8.074219-18.03125-18.03125-18.03125zm0 0"/></g><path d="m36.25 364.03125v-64.421875c0-15.390625 9.371094-29.230469 23.660156-34.949219l157.082032-62.832031c19.296874-7.71875 41.207031 1.667969 48.929687 20.96875 7.71875 19.304687-1.667969 41.210937-20.972656 48.929687l-133.417969 53.367188v38.9375zm0 0" fill="#d5d4da"/><path d="m73.902344 175.070312c-14.9375 0-29.070313-8.953124-34.960938-23.671874-7.71875-19.300782 1.667969-41.207032 20.96875-48.925782l157.082032-62.832031c19.300781-7.722656 41.207031 1.667969 48.929687 20.96875 7.71875 19.300781-1.667969 41.207031-20.972656 48.929687l-157.078125 62.828126c-4.585938 1.835937-9.316406 2.703124-13.96875 2.703124zm0 0" fill="#d5d4da"/><path d="m181.285156 304.796875h75.28125v59.234375h-75.28125zm0 0" fill="#d5d4da"/><path d="m273.660156 325.09375h-254.503906c-10.472656 0-18.960938 8.492188-18.960938 18.964844v55.917968c0 29.300782 23.75 53.050782 53.050782 53.050782h186.324218c29.300782 0 53.050782-23.75 53.050782-53.050782v-55.917968c0-10.472656-8.488282-18.964844-18.960938-18.964844zm0 0" fill="#ebebeb"/><path d="m30.640625 399.976562v-55.917968c0-10.476563 8.488281-18.964844 18.960937-18.964844h-30.445312c-10.472656 0-18.960938 8.488281-18.960938 18.964844v55.917968c0 29.300782 23.75 53.050782 53.050782 53.050782h30.445312c-29.300781 0-53.050781-23.75-53.050781-53.050782zm0 0" fill="#d5d4da"/><path d="m79.09375 403.714844c-4.207031 0-7.613281-3.40625-7.613281-7.609375v-12.183594c0-4.203125 3.40625-7.613281 7.613281-7.613281 4.203125 0 7.609375 3.410156 7.609375 7.613281v12.183594c0 4.203125-3.40625 7.609375-7.609375 7.609375zm0 0" fill="#334151"/><path d="m213.722656 403.714844c-4.203125 0-7.609375-3.40625-7.609375-7.609375v-12.183594c0-4.203125 3.40625-7.613281 7.609375-7.613281s7.613282 3.410156 7.613282 7.613281v12.183594c0 4.203125-3.410157 7.609375-7.613282 7.609375zm0 0" fill="#334151"/><path d="m146.40625 410.21875c-8.667969 0-16.816406-3.628906-22.34375-9.953125-2.765625-3.164063-2.445312-7.972656.722656-10.738281 3.164063-2.769532 7.972656-2.445313 10.738282.71875 2.636718 3.019531 6.605468 4.75 10.882812 4.75 4.28125 0 8.246094-1.730469 10.882812-4.75 2.769532-3.164063 7.578126-3.488282 10.742188-.71875 3.164062 2.765625 3.488281 7.574218.722656 10.738281-5.53125 6.324219-13.671875 9.953125-22.347656 9.953125zm0 0" fill="#334151"/></svg>