<svg height="512pt" viewBox="0 -2 512 512" width="512pt" xmlns="http://www.w3.org/2000/svg"><path d="m205.53125 54.492188h165.113281v205.234374h-165.113281zm0 0" fill="#a7e0f5"/><path d="m41.640625 240.007812c-12.96875 0-23.488281 10.519532-23.488281 23.488282v192.886718h352.492187v-216.375zm0 0" fill="#98b1e8"/><path d="m370.644531 403.21875h-352.492187v53.164062h352.492187zm0 0" fill="#4677d4"/><path d="m62.675781 284.53125h307.96875v171.851562h-307.96875zm0 0" fill="#a7e0f5"/><path d="m470.359375 29.6875h-300.0625v44.523438h178.085937v380.515624h145.464844v-401.550781c0-12.972656-10.519531-23.488281-23.488281-23.488281zm0 0" fill="#7292df"/><path d="m132.539062 370.132812c-4.269531 0-7.726562-3.460937-7.726562-7.726562v-13.210938c0-4.265624 3.457031-7.726562 7.726562-7.726562 4.265626 0 7.726563 3.460938 7.726563 7.726562v13.210938c0 4.265625-3.460937 7.726562-7.726563 7.726562zm0 0" fill="#334151"/><path d="m278.519531 370.132812c-4.269531 0-7.726562-3.460937-7.726562-7.726562v-13.210938c0-4.265624 3.457031-7.726562 7.726562-7.726562s7.726563 3.460938 7.726563 7.726562v13.210938c0 4.265625-3.457032 7.726562-7.726563 7.726562zm0 0" fill="#334151"/><path d="m205.53125 377.183594c-9.25 0-17.9375-3.867188-23.835938-10.609375-2.808593-3.214844-2.480468-8.097657.734376-10.902344 3.210937-2.808594 8.09375-2.484375 10.902343.730469 2.960938 3.386718 7.40625 5.328125 12.199219 5.328125 4.789062 0 9.234375-1.941407 12.195312-5.328125 2.808594-3.214844 7.691407-3.539063 10.902344-.730469 3.214844 2.804687 3.542969 7.6875.734375 10.902344-5.894531 6.742187-14.582031 10.609375-23.832031 10.609375zm0 0" fill="#334151"/><path d="m62.675781 403.21875h307.96875v53.164062h-307.96875zm0 0" fill="#59c2e7"/><path d="m392.902344 74.210938h56.421875v315.390624h-56.421875zm0 0" fill="#a7e0f5"/><path d="m205.53125 54.492188v160.433593h60.046875c15.367187 0 29.296875-9.089843 35.484375-23.15625 6.191406-14.070312 3.476562-30.480469-6.910156-41.808593l-18.539063-20.226563c-.769531-.835937-1.195312-1.925781-1.195312-3.0625v-72.179687zm0 0" fill="#59c2e7"/><path d="m274.035156 29.6875h-103.738281v44.523438h104.121094v-37.324219c0-2.433594-.132813-4.832031-.382813-7.199219zm0 0" fill="#4677d4"/><path d="m271.375 170.84375-18.542969-20.222656c-5.992187-6.535156-9.316406-15.082032-9.316406-23.949219v-89.785156c0-20.371094-16.515625-36.886719-36.886719-36.886719h-167.757812c-20.371094 0-36.886719 16.515625-36.886719 36.886719v110.25c0 20.371093 16.511719 36.886719 36.886719 36.886719h226.707031c6.84375 0 10.417969-8.132813 5.796875-13.179688zm0 0" fill="#ebebeb"/><path d="m22.585938 147.136719v-110.25c0-20.371094 16.515624-36.886719 36.886718-36.886719h-20.601562c-20.371094 0-36.886719 16.515625-36.886719 36.886719v110.25c0 20.371093 16.511719 36.886719 36.886719 36.886719h20.601562c-20.371094 0-36.886718-16.515626-36.886718-36.886719zm0 0" fill="#d5d4da"/><g fill="#4677d4"><path d="m57.183594 94.671875h-12.179688v16.589844c0 1.957031-2.386718 2.9375-4.773437 2.9375-2.390625 0-4.777344-.980469-4.777344-2.9375v-38.929688c0-2.019531 2.386719-2.875 4.777344-2.875 2.386719 0 4.773437.855469 4.773437 2.875v14.996094h12.179688v-14.996094c0-2.019531 2.386718-2.875 4.773437-2.875 2.390625 0 4.777344.855469 4.777344 2.875v38.929688c0 1.957031-2.386719 2.9375-4.777344 2.9375-2.386719 0-4.773437-.980469-4.773437-2.9375zm0 0"/><path d="m82.898438 88.125h9.179687c1.835937 0 2.875 1.773438 2.875 3.734375 0 1.652344-.855469 3.609375-2.875 3.609375h-9.179687v10.40625h16.402343c1.835938 0 2.875 1.960938 2.875 4.222656 0 1.960938-.855469 4.101563-2.875 4.101563h-21.789062c-2.082031 0-4.164063-.976563-4.164063-2.9375v-38.867188c0-1.960937 2.082032-2.9375 4.164063-2.9375h21.789062c2.019531 0 2.875 2.140625 2.875 4.101563 0 2.261718-1.039062 4.222656-2.875 4.222656h-16.402343zm0 0"/><path d="m110.503906 114.199219c-2.078125 0-4.160156-.980469-4.160156-2.9375v-38.929688c0-2.019531 2.386719-2.875 4.773438-2.875 2.386718 0 4.773437.855469 4.773437 2.875v33.542969h13.957031c1.835938 0 2.753906 2.082031 2.753906 4.164062 0 2.082032-.917968 4.160157-2.753906 4.160157zm0 0"/><path d="m140.625 114.199219c-2.082031 0-4.164062-.980469-4.164062-2.9375v-38.929688c0-2.019531 2.386718-2.875 4.777343-2.875 2.386719 0 4.773438.855469 4.773438 2.875v33.542969h13.953125c1.839844 0 2.757812 2.082031 2.757812 4.164062 0 2.082032-.917968 4.160157-2.757812 4.160157zm0 0"/><path d="m165.417969 100.121094v-16.21875c0-10.53125 6.550781-14.445313 14.996093-14.445313 8.445313 0 15.054688 3.917969 15.054688 14.445313v16.21875c0 10.527344-6.609375 14.445312-15.054688 14.445312-8.445312 0-14.996093-3.917968-14.996093-14.445312zm20.503906-16.21875c0-4.226563-2.078125-6.121094-5.507813-6.121094-3.425781 0-5.445312 1.894531-5.445312 6.121094v16.21875c0 4.222656 2.019531 6.121094 5.445312 6.121094 3.429688 0 5.507813-1.898438 5.507813-6.121094zm0 0"/><path d="m210.042969 109.855469c0 2.507812-2.140625 4.710937-4.652344 4.710937-2.691406 0-4.710937-2.203125-4.710937-4.710937 0-2.574219 2.019531-4.714844 4.710937-4.714844 2.511719 0 4.652344 2.140625 4.652344 4.714844zm-1.164063-11.632813c0 1.898438-2.078125 2.695313-3.546875 2.695313-1.960937 0-3.613281-.796875-3.613281-2.695313 0-7.28125-.855469-17.75-.855469-25.035156 0-2.386719 1.957031-3.730469 4.46875-3.730469 2.386719 0 4.40625 1.34375 4.40625 3.730469 0 7.285156-.859375 17.753906-.859375 25.035156zm0 0"/><path d="m493.847656 403.21875h-145.464844v51.507812h145.464844zm0 0"/></g><path d="m493.847656 434.121094h-475.695312c-10.023438 0-18.152344 8.128906-18.152344 18.15625v36.710937c0 10.023438 8.128906 18.152344 18.152344 18.152344h475.695312c10.023438 0 18.152344-8.128906 18.152344-18.152344v-36.710937c0-10.027344-8.128906-18.15625-18.152344-18.15625zm0 0" fill="#98b1e8"/></svg>