<svg height="511pt" viewBox="-9 1 511 511.99999" width="511pt" xmlns="http://www.w3.org/2000/svg"><path d="m321.941406 11.335938h-46.652344v27.90625h46.652344c7.703125 0 13.949219-6.25 13.949219-13.953126 0-7.707031-6.246094-13.953124-13.949219-13.953124zm0 0" fill="#a6b6c4"/><path d="m321.941406 92.417969h-46.652344v-27.902344h46.652344c7.703125 0 13.949219 6.246094 13.949219 13.953125 0 7.703125-6.246094 13.949219-13.949219 13.949219zm0 0" fill="#a6b6c4"/><path d="m250.847656 11.335938s-40.640625-5.738282-61.476562 22.609374l-16.222656 17.933594 16.222656 17.929688c20.835937 28.347656 61.476562 22.609375 61.476562 22.609375l17.601563-40.539063zm0 0" fill="#7292df"/><path d="m93.742188 272.683594c-51.414063 0-93.242188-41.828125-93.242188-93.242188v-52.253906c0-51.414062 41.828125-93.242188 93.242188-93.242188h95.628906v35.863282h-95.628906c-31.640626 0-57.378907 25.738281-57.378907 57.378906v52.253906c0 31.640625 25.738281 57.378906 57.378907 57.378906zm0 0" fill="#76e6d5"/><path d="m45.316406 329.207031c2.386719-12.160156 5.0625-23.648437 7.890625-34.394531l26.1875-26.394531h119.542969l95.628906 75.132812h158.476563l40.460937 38.640625v25.007813c0 16.007812-12.96875 28.976562-28.972656 28.976562h-399.777344c-16.660156 0-29.835937-14.027343-28.925781-30.664062.675781-12.378907 1.753906-24.335938 3.125-35.832031l24.292969-20.234376zm0 0" fill="#7292df"/><path d="m481.988281 311.789062c-5.441406-9.886718-12.726562-18.800781-21.609375-26.179687-5.726562-4.761719-12.40625-9.703125-20.175781-14.714844-6.945313-4.464843-12.367187-10.972656-15.367187-18.65625-5.082032-13.023437-15.71875-35.257812-35.574219-58.402343-25.378907-29.570313-62.472657-46.519532-101.4375-46.519532h-190.742188c-9.398437 0-15.953125 9.304688-12.808593 18.15625l3.839843 10.832032c3.320313 9.324218 2.675781 19.589843-1.742187 28.453124-8.195313 16.421876-21.945313 47.492188-33.164063 90.054688 38.226563-2.582031 79.242188 11.308594 108.332031 36.167969 16.464844 14.058593 30.625 31.539062 50.902344 40.398437 27.71875 12.113282 59.542969 7.675782 88.792969 6.230469 64.550781-3.1875 128.324219-3.585937 192.269531 4.582031v-25.542968c0-1.464844-.027344-2.933594-.109375-4.386719l-23.097656-20.238281zm0 0" fill="#00ccac"/><g fill="#334151"><path d="m241.214844 336.152344c-4.269532 0-7.726563-3.457032-7.726563-7.722656v-12.882813c0-4.265625 3.457031-7.726563 7.726563-7.726563 4.265625 0 7.726562 3.460938 7.726562 7.726563v12.882813c0 4.265624-3.460937 7.722656-7.726562 7.722656zm0 0"/><path d="m383.566406 336.152344c-4.269531 0-7.726562-3.457032-7.726562-7.722656v-12.882813c0-4.265625 3.457031-7.726563 7.726562-7.726563 4.265625 0 7.722656 3.460938 7.722656 7.726563v12.882813c0 4.265624-3.457031 7.722656-7.722656 7.722656zm0 0"/><path d="m312.386719 343.03125c-9.074219 0-17.597657-3.796875-23.382813-10.414062-2.808594-3.214844-2.480468-8.09375.730469-10.902344 3.214844-2.808594 8.09375-2.480469 10.902344.730468 2.851562 3.261719 7.132812 5.132813 11.75 5.132813 4.617187 0 8.902343-1.871094 11.75-5.128906 2.808593-3.214844 7.691406-3.542969 10.902343-.734375 3.214844 2.808594 3.542969 7.691406.734376 10.902344-5.785157 6.617187-14.308594 10.414062-23.386719 10.414062zm0 0"/></g><path d="m222.574219 273.539062h163.386719c4.214843 0 7.027343-4.246093 5.496093-8.171874-.011719-.03125-.023437-.058594-.035156-.085938-3.699219-9.488281-12.4375-28.351562-29.375-48.085938-18.546875-21.621093-45.605469-34.019531-74.222656-34.019531h-65.25c-3.277344 0-5.933594 2.660157-5.933594 5.9375v78.488281c0 3.28125 2.65625 5.9375 5.933594 5.9375zm0 0" fill="#76e6d5"/><path d="m170.757812 183.179688h-35.707031c-4.871093 0-8.851562 3.835937-9.085937 8.703124-.476563 9.960938-2.992188 19.832032-7.5 28.878907-4.445313 8.917969-10.71875 22.621093-17.265625 40.53125-2.171875 5.945312 2.21875 12.246093 8.546875 12.246093h61.011718c5.027344 0 9.101563-4.074218 9.101563-9.101562v-72.152344c.003906-5.03125-4.074219-9.105468-9.101563-9.105468zm0 0" fill="#76e6d5"/><path d="m210.546875 456.671875c0 30.554687-24.773437 55.328125-55.328125 55.328125-30.558594 0-55.328125-24.773438-55.328125-55.328125 0-30.558594 24.769531-55.328125 55.328125-55.328125 30.554688 0 55.328125 24.769531 55.328125 55.328125zm0 0" fill="#334151"/><path d="m179.863281 456.671875c0 13.609375-11.035156 24.644531-24.644531 24.644531-13.613281 0-24.644531-11.035156-24.644531-24.644531 0-13.613281 11.03125-24.644531 24.644531-24.644531 13.609375 0 24.644531 11.03125 24.644531 24.644531zm0 0" fill="#7a8fa4"/><path d="m447.207031 456.671875c0 30.554687-24.769531 55.328125-55.328125 55.328125s-55.328125-24.773438-55.328125-55.328125c0-30.558594 24.769531-55.328125 55.328125-55.328125s55.328125 24.769531 55.328125 55.328125zm0 0" fill="#334151"/><path d="m416.523438 456.671875c0 13.609375-11.035157 24.644531-24.644532 24.644531s-24.644531-11.035156-24.644531-24.644531c0-13.613281 11.035156-24.644531 24.644531-24.644531s24.644532 11.03125 24.644532 24.644531zm0 0" fill="#7a8fa4"/><path d="m493.394531 352.261719h-25.953125c-5.585937 0-10.648437-2.265625-14.304687-5.921875-3.667969-3.667969-5.933594-8.730469-5.933594-14.316406 0-11.175782 9.066406-20.234376 20.234375-20.234376h14.550781c6.804688 12.316407 10.738281 26.160157 11.40625 40.472657zm0 0" fill="#f5e277"/><path d="m87.542969 349.445312c0 11.179688-9.070313 20.234376-20.238281 20.234376h-28.351563c1.703125-14.199219 3.875-27.714844 6.363281-40.472657h21.988282c5.585937 0 10.644531 2.265625 14.304687 5.921875 3.667969 3.667969 5.933594 8.730469 5.933594 14.316406zm0 0" fill="#f5e277"/><path d="m51.679688 395.296875h-20.175782c-7.21875 0-13.074218 5.851563-13.074218 13.070313v14.738281c0 7.21875 5.855468 13.070312 13.074218 13.070312h33.25v-27.808593c0-7.21875-5.851562-13.070313-13.074218-13.070313zm0 0" fill="#a6b6c4"/><path d="m275.289062 11.335938h36.515626v27.90625h-36.515626zm0 0" fill="#7a8fa4"/><path d="m275.289062 64.515625h36.515626v27.902344h-36.515626zm0 0" fill="#7a8fa4"/><path d="m274.714844 0h-12.527344c-6.261719 0-11.339844 5.074219-11.339844 11.335938v81.082031c0 6.261719 5.078125 11.335937 11.339844 11.335937h12.527344c6.261718 0 11.335937-5.074218 11.335937-11.335937v-81.082031c0-6.261719-5.074219-11.335938-11.335937-11.335938zm0 0" fill="#76e6d5"/></svg>