<svg height="512pt" viewBox="-4 0 512 512" width="512pt" xmlns="http://www.w3.org/2000/svg"><g fill="#98b1e8"><path d="m122.375 380.71875h-30.53125v-111.980469l-52.261719-52.265625c-2.863281-2.863281-4.472656-6.746094-4.472656-10.792968v-131.789063h30.53125v125.464844l52.261719 52.265625c2.863281 2.859375 4.472656 6.742187 4.472656 10.792968zm0 0"/><path d="m170.707031 152.144531h30.53125v228.574219h-30.53125zm0 0"/><path d="m412.921875 380.71875h-30.527344v-77.597656c0-4.050782 1.605469-7.933594 4.46875-10.792969l52.265625-52.265625v-94.9375h30.53125v101.257812c0 4.050782-1.609375 7.933594-4.472656 10.796876l-52.265625 52.261718zm0 0"/><path d="m303.53125 50.375h30.53125v330.34375h-30.53125zm0 0"/></g><path d="m81.414062 431.605469v80.394531h341.941407v-80.394531l-170.972657-123.140625zm0 0" fill="#f5e277"/><path d="m169.46875 477.113281c-4.265625 0-7.726562-3.457031-7.726562-7.726562v-15.003907c0-4.265624 3.460937-7.726562 7.726562-7.726562 4.269531 0 7.726562 3.460938 7.726562 7.726562v15.003907c0 4.269531-3.457031 7.726562-7.726562 7.726562zm0 0" fill="#334151"/><path d="m335.296875 477.113281c-4.265625 0-7.726563-3.457031-7.726563-7.726562v-15.003907c0-4.265624 3.460938-7.726562 7.726563-7.726562 4.269531 0 7.726563 3.460938 7.726563 7.726562v15.003907c0 4.269531-3.457032 7.726562-7.726563 7.726562zm0 0" fill="#334151"/><path d="m252.382812 485.125c-10.203124 0-19.785156-4.261719-26.28125-11.695312-2.808593-3.210938-2.480468-8.09375.734376-10.902344 3.210937-2.808594 8.089843-2.480469 10.902343.734375 3.5625 4.074219 8.898438 6.410156 14.644531 6.410156 5.746094 0 11.085938-2.335937 14.648438-6.410156 2.808594-3.214844 7.6875-3.542969 10.902344-.734375s3.539062 7.691406.730468 10.902344c-6.496093 7.433593-16.074218 11.695312-26.28125 11.695312zm0 0" fill="#334151"/><path d="m81.414062 431.605469v59.277343c2.710938-1.050781 5.3125-2.40625 7.761719-4.058593l163.207031-110.054688 163.210938 110.054688c2.449219 1.652343 5.050781 3.007812 7.761719 4.054687v-59.277344l-170.972657-123.136718zm0 0" fill="#f0bc63"/><path d="m469.816406 406.40625-197.519531-133.191406c-12.035156-8.113282-27.792969-8.113282-39.828125 0l-197.519531 133.191406c-6.132813 4.136719-7.75 12.460938-3.613281 18.59375l24.851562 36.855469c4.132812 6.132812 12.457031 7.75 18.589844 3.613281l177.605468-119.761719 177.609376 119.765625c6.132812 4.132813 14.453124 2.515625 18.589843-3.617187l24.851563-36.855469c4.136718-6.132812 2.515625-14.457031-3.617188-18.59375zm0 0" fill="#fd5f7e"/><path d="m35.109375 148.480469c4.933594 1.007812 10.039063 1.539062 15.265625 1.539062s10.332031-.53125 15.265625-1.539062v-74.589844h-30.53125zm0 0" fill="#7292df"/><path d="m100.75 73.890625c0 27.820313-22.554688 50.371094-50.375 50.371094s-50.375-22.550781-50.375-50.371094c0-27.824219 22.554688-50.375 50.375-50.375s50.375 22.550781 50.375 50.375zm0 0" fill="#76e6d5"/><path d="m70.976562 103.660156c-27.820312 0-50.371093-22.554687-50.371093-50.375 0-8.609375 2.164062-16.710937 5.96875-23.800781-15.816407 8.496094-26.574219 25.191406-26.574219 44.40625 0 27.820313 22.554688 50.371094 50.375 50.371094 19.210938 0 35.90625-10.753907 44.402344-26.574219-7.085938 3.808594-15.191406 5.972656-23.800782 5.972656zm0 0" fill="#00ccac"/><path d="m170.707031 226.734375c4.933594 1.007813 10.039063 1.539063 15.265625 1.539063 5.226563 0 10.332032-.53125 15.265625-1.539063v-74.589844h-30.53125zm0 0" fill="#7292df"/><path d="m236.347656 152.144531c0 27.820313-22.554687 50.375-50.375 50.375-27.824218 0-50.375-22.554687-50.375-50.375 0-27.824219 22.550782-50.375 50.375-50.375 27.820313 0 50.375 22.550781 50.375 50.375zm0 0" fill="#ff889e"/><path d="m206.574219 181.914062c-27.820313 0-50.375-22.554687-50.375-50.375 0-8.609374 2.164062-16.710937 5.972656-23.800781-15.816406 8.496094-26.574219 25.191407-26.574219 44.40625 0 27.820313 22.550782 50.375 50.375 50.375 19.210938 0 35.90625-10.757812 44.402344-26.574219-7.089844 3.804688-15.191406 5.96875-23.800781 5.96875zm0 0" fill="#fd5f7e"/><path d="m439.128906 219.71875c4.933594 1.007812 10.039063 1.539062 15.265625 1.539062 5.226563 0 10.332031-.53125 15.265625-1.539062v-74.59375h-30.53125zm0 0" fill="#7292df"/><path d="m504.769531 145.125c0 27.824219-22.554687 50.375-50.375 50.375-27.824219 0-50.375-22.550781-50.375-50.375 0-27.820312 22.550781-50.375 50.375-50.375 27.820313 0 50.375 22.554688 50.375 50.375zm0 0" fill="#f5e277"/><path d="m474.996094 174.898438c-27.820313 0-50.375-22.554688-50.375-50.375 0-8.609376 2.164062-16.710938 5.972656-23.800782-15.816406 8.496094-26.574219 25.191406-26.574219 44.402344 0 27.824219 22.550781 50.375 50.375 50.375 19.210938 0 35.90625-10.753906 44.402344-26.574219-7.089844 3.808594-15.191406 5.972657-23.800781 5.972657zm0 0" fill="#f0bc63"/><path d="m303.53125 124.964844c4.933594 1.007812 10.039062 1.539062 15.265625 1.539062s10.332031-.53125 15.265625-1.539062v-74.589844h-30.53125zm0 0" fill="#7292df"/><path d="m369.171875 50.375c0 27.820312-22.554687 50.375-50.375 50.375s-50.375-22.554688-50.375-50.375 22.554687-50.375 50.375-50.375 50.375 22.554688 50.375 50.375zm0 0" fill="#59c2e7"/><path d="m339.398438 80.148438c-27.820313 0-50.371094-22.554688-50.371094-50.375 0-8.609376 2.164062-16.710938 5.96875-23.800782-15.816406 8.496094-26.574219 25.191406-26.574219 44.402344 0 27.820312 22.554687 50.375 50.375 50.375 19.210937 0 35.90625-10.757812 44.402344-26.574219-7.085938 3.808594-15.191407 5.972657-23.800781 5.972657zm0 0" fill="#00a2d7"/></svg>