<svg height="512pt" viewBox="-84 0 512 512.00103" width="512pt" xmlns="http://www.w3.org/2000/svg"><path d="m154.683594 0h35.5v80.132812h-35.5zm0 0" fill="#f5e277"/><path d="m204.652344 56.800781h-64.433594c-12.738281 0-23.0625 10.328125-23.0625 23.066407v50.980468h110.558594v-50.980468c0-12.738282-10.324219-23.066407-23.0625-23.066407zm0 0" fill="#a6b6c4"/><path d="m171.125 56.800781h-30.90625c-12.738281 0-23.0625 10.328125-23.0625 23.066407v50.980468h30.902344v-50.980468c0-12.738282 10.328125-23.066407 23.066406-23.066407zm0 0" fill="#7a8fa4"/><path d="m344.871094 380.371094v94.453125c0 20.53125-16.644532 37.175781-37.175782 37.175781h-270.519531c-20.53125 0-37.175781-16.644531-37.175781-37.175781v-94.453125l172.433594-22.820313zm0 0" fill="#a6b6c4"/><path d="m30.90625 474.824219v-94.453125l156.980469-20.777344-15.453125-2.042969-172.433594 22.820313v94.453125c0 20.53125 16.644531 37.175781 37.175781 37.175781h30.90625c-20.53125 0-37.175781-16.644531-37.175781-37.175781zm0 0" fill="#7a8fa4"/><path d="m344.871094 141.550781v238.820313h-344.871094v-238.820313c0-20.53125 16.644531-37.175781 37.175781-37.175781h270.519531c20.53125 0 37.175782 16.644531 37.175782 37.175781zm0 0" fill="#ff889e"/><path d="m68.082031 104.375h-30.90625c-20.53125 0-37.175781 16.644531-37.175781 37.175781v238.820313h30.90625v-238.820313c0-20.53125 16.644531-37.175781 37.175781-37.175781zm0 0" fill="#fd5f7e"/><path d="m280.253906 421.21875h-96.960937c-5.996094 0-10.859375 4.859375-10.859375 10.855469v28.222656c0 5.996094 4.863281 10.855469 10.859375 10.855469h96.960937c5.996094 0 10.855469-4.859375 10.855469-10.855469v-28.222656c0-5.996094-4.859375-10.855469-10.855469-10.855469zm0 0" fill="#76e6d5"/><path d="m103.566406 412.101562c-2.332031-2.332031-5.902344-2.886718-8.832031-1.371093l-18.214844 9.410156c-1.871093-.4375-3.820312-.675781-5.828125-.675781-14.089844 0-25.511718 11.421875-25.511718 25.511718 0 14.089844 11.421874 25.511719 25.511718 25.511719s25.511719-11.421875 25.511719-25.511719c0-2.007812-.238281-3.957031-.679687-5.832031l9.414062-18.214843c1.515625-2.925782.960938-6.5-1.371094-8.828126zm0 0" fill="#7a8fa4"/><path d="m228.667969 204.109375c-.019531-.765625-.710938-1.339844-1.464844-1.199219-3.535156.65625-12.617187 3.382813-16.585937 14.378906 0 0-27.003907-22.929687-27.988282-55.363281-.027344-.886719-.945312-1.464843-1.757812-1.097656-5.902344 2.683594-25.574219 13.667969-38.175782 45.335937-4.664062-16.152343-21.394531-21.742187-27.597656-23.289062-.980468-.242188-1.824218.710938-1.464844 1.65625 11.738282 30.863281-20.761718 28.476562-21.203124 90.757812-.292969 40.84375 30.3125 75.511719 69.84375 80.640626 6.734374.875 13.585937.875 20.320312.015624 39.386719-4.988281 69.847656-38.621093 69.847656-79.367187 0-36.445313-23.050781-43.710937-23.773437-72.46875zm0 0" fill="#f5e277"/><path d="m228.695312 204.632812c-.007812-.179687-.023437-.34375-.027343-.523437-.019531-.765625-.710938-1.339844-1.460938-1.199219-.054687.007813-.121093.023438-.175781.035156.605469.632813 1.164062 1.195313 1.664062 1.6875zm0 0" fill="#f0bc63"/><path d="m203.199219 345.644531c-6.738281.859375-13.585938.859375-20.320313-.015625-39.535156-5.128906-70.136718-39.796875-69.84375-80.640625.320313-45.367187 17.648438-56.421875 22.503906-71.011719-6.882812-7.046874-16.164062-10.035156-20.441406-11.101562-.976562-.242188-1.820312.710938-1.460937 1.65625 11.734375 30.863281-20.765625 28.476562-21.207031 90.757812-.289063 40.84375 30.3125 75.511719 69.84375 80.640626 6.738281.875 13.585937.875 20.324218.015624 13.078125-1.65625 25.160156-6.484374 35.480469-13.671874-4.777344 1.574218-9.75 2.722656-14.878906 3.371093zm0 0" fill="#f0bc63"/><g fill="#334151"><path d="m129.5625 285.429688c-4.269531 0-7.726562-3.457032-7.726562-7.726563v-7.757813c0-4.265624 3.457031-7.726562 7.726562-7.726562 4.265625 0 7.726562 3.460938 7.726562 7.726562v7.757813c0 4.269531-3.460937 7.726563-7.726562 7.726563zm0 0"/><path d="m215.308594 285.429688c-4.265625 0-7.726563-3.457032-7.726563-7.726563v-7.757813c0-4.265624 3.460938-7.726562 7.726563-7.726562 4.269531 0 7.726562 3.460938 7.726562 7.726562v7.757813c0 4.269531-3.457031 7.726563-7.726562 7.726563zm0 0"/><path d="m172.433594 289.574219c-6.351563 0-12.328125-2.671875-16.398438-7.324219-2.804687-3.214844-2.480468-8.09375.734375-10.902344 3.210938-2.808594 8.089844-2.480468 10.902344.730469 1.132813 1.296875 2.871094 2.042969 4.761719 2.042969 1.894531 0 3.632812-.746094 4.765625-2.039063 2.808593-3.214843 7.691406-3.542969 10.902343-.734375 3.214844 2.808594 3.542969 7.6875.734376 10.902344-4.070313 4.652344-10.046876 7.324219-16.402344 7.324219zm0 0"/></g></svg>