<svg height="512pt" viewBox="0 0 512 512" width="512pt" xmlns="http://www.w3.org/2000/svg"><path d="m462.394531 0h-412.789062c-27.394531 0-49.605469 22.210938-49.605469 49.605469v412.789062c0 27.394531 22.210938 49.605469 49.605469 49.605469h412.789062c27.394531 0 49.605469-22.210938 49.605469-49.605469v-412.789062c0-27.394531-22.210938-49.605469-49.605469-49.605469zm0 0" fill="#4677d4"/><path d="m51.507812 112.289062h408.984376v348.203126h-408.984376zm0 0" fill="#00ccac"/><path d="m51.507812 112.289062h41.207032v348.203126h-41.207032zm0 0" fill="#00ad8d"/><path d="m274.53125 56.144531c0 10.234375-8.296875 18.535157-18.53125 18.535157s-18.53125-8.300782-18.53125-18.535157 8.296875-18.53125 18.53125-18.53125 18.53125 8.296875 18.53125 18.53125zm0 0" fill="#ff889e"/><g fill="#ebebeb"><path d="m343.011719 280.648438c-4.265625 0-7.726563-3.457032-7.726563-7.726563v-39.277344c0-43.71875-35.566406-79.289062-79.285156-79.289062s-79.285156 35.570312-79.285156 79.289062v39.277344c0 4.269531-3.460938 7.726563-7.726563 7.726563-4.269531 0-7.726562-3.457032-7.726562-7.726563v-39.277344c0-52.242187 42.5-94.742187 94.738281-94.742187s94.738281 42.5 94.738281 94.742187v39.277344c0 4.269531-3.457031 7.726563-7.726562 7.726563zm0 0"/><path d="m305.722656 280.648438c-4.269531 0-7.726562-3.457032-7.726562-7.726563v-39.277344c0-23.15625-18.839844-41.996093-41.996094-41.996093s-41.996094 18.835937-41.996094 41.996093v39.277344c0 4.269531-3.460937 7.726563-7.726562 7.726563s-7.726563-3.457032-7.726563-7.726563v-39.277344c0-31.679687 25.769531-57.449219 57.449219-57.449219 31.675781 0 57.449219 25.769532 57.449219 57.449219v39.277344c0 4.269531-3.460938 7.726563-7.726563 7.726563zm0 0"/><path d="m268.429688 280.648438c-4.265626 0-7.726563-3.457032-7.726563-7.726563v-39.277344c0-2.59375-2.109375-4.707031-4.703125-4.707031s-4.703125 2.113281-4.703125 4.707031v39.277344c0 4.269531-3.460937 7.726563-7.726563 7.726563-4.265624 0-7.726562-3.457032-7.726562-7.726563v-39.277344c0-11.117187 9.042969-20.160156 20.15625-20.160156s20.15625 9.042969 20.15625 20.160156v39.277344c0 4.269531-3.460938 7.726563-7.726562 7.726563zm0 0"/><path d="m256 433.878906c-52.238281 0-94.738281-42.5-94.738281-94.742187v-39.28125c0-4.265625 3.457031-7.726563 7.726562-7.726563 4.265625 0 7.726563 3.460938 7.726563 7.726563v39.28125c0 43.71875 35.566406 79.289062 79.285156 79.289062s79.285156-35.570312 79.285156-79.289062v-39.28125c0-4.265625 3.460938-7.726563 7.726563-7.726563 4.269531 0 7.726562 3.460938 7.726562 7.726563v39.28125c0 52.242187-42.5 94.742187-94.738281 94.742187zm0 0"/><path d="m256 396.585938c-31.679688 0-57.449219-25.769532-57.449219-57.449219v-39.28125c0-4.265625 3.460938-7.726563 7.726563-7.726563s7.726562 3.460938 7.726562 7.726563v39.28125c0 23.15625 18.839844 41.996093 41.996094 41.996093s41.996094-18.839843 41.996094-41.996093v-39.28125c0-4.265625 3.457031-7.726563 7.726562-7.726563 4.265625 0 7.726563 3.460938 7.726563 7.726563v39.28125c0 31.679687-25.773438 57.449219-57.449219 57.449219zm0 0"/><path d="m256 359.292969c-11.113281 0-20.15625-9.039063-20.15625-20.15625v-39.28125c0-4.265625 3.460938-7.726563 7.726562-7.726563 4.265626 0 7.726563 3.460938 7.726563 7.726563v39.28125c0 2.59375 2.109375 4.703125 4.703125 4.703125s4.703125-2.109375 4.703125-4.703125v-39.28125c0-4.265625 3.460937-7.726563 7.726563-7.726563 4.265624 0 7.726562 3.460938 7.726562 7.726563v39.28125c0 11.117187-9.042969 20.15625-20.15625 20.15625zm0 0"/></g></svg>