<svg height="512pt" viewBox="0 -37 512 512" width="512pt" xmlns="http://www.w3.org/2000/svg"><path d="m468.386719 0h-424.773438c-24.085937 0-43.613281 19.523438-43.613281 43.613281v350.835938c0 24.085937 19.527344 43.613281 43.613281 43.613281h424.773438c24.085937 0 43.613281-19.527344 43.613281-43.613281v-350.835938c0-24.089843-19.527344-43.613281-43.613281-43.613281zm0 0" fill="#a7e0f5"/><path d="m30.90625 394.449219v-350.835938c0-24.085937 19.523438-43.613281 43.609375-43.613281h-30.902344c-24.085937 0-43.613281 19.523438-43.613281 43.613281v350.835938c0 24.085937 19.527344 43.613281 43.613281 43.613281h30.902344c-24.085937 0-43.609375-19.527344-43.609375-43.613281zm0 0" fill="#59c2e7"/><g fill="#334151"><path d="m129.585938 62.0625c-4.269532 0-7.726563-3.460938-7.726563-7.726562v-15.191407c0-4.265625 3.457031-7.726562 7.726563-7.726562 4.265624 0 7.726562 3.460937 7.726562 7.726562v15.191407c0 4.265624-3.460938 7.726562-7.726562 7.726562zm0 0"/><path d="m297.449219 62.0625c-4.269531 0-7.726563-3.460938-7.726563-7.726562v-15.191407c0-4.265625 3.457032-7.726562 7.726563-7.726562s7.726562 3.460937 7.726562 7.726562v15.191407c0 4.265624-3.460937 7.726562-7.726562 7.726562zm0 0"/><path d="m213.515625 70.167969c-10.300781 0-19.972656-4.300781-26.53125-11.804688-2.8125-3.210937-2.480469-8.09375.730469-10.902343 3.210937-2.808594 8.09375-2.480469 10.902344.730468 3.625 4.148438 9.054687 6.523438 14.898437 6.523438s11.273437-2.375 14.898437-6.523438c2.808594-3.210937 7.691407-3.539062 10.902344-.730468 3.214844 2.808593 3.542969 7.6875.730469 10.902343-6.554687 7.503907-16.226563 11.804688-26.53125 11.804688zm0 0"/></g><path d="m332.085938 92.515625h-237.140626c-13.285156 0-24.054687 10.769531-24.054687 24.054687v166.539063c0 13.289063 10.769531 24.054687 24.054687 24.054687h237.140626c13.285156 0 24.054687-10.765624 24.054687-24.054687v-166.539063c0-13.285156-10.769531-24.054687-24.054687-24.054687zm0 0" fill="#59c2e7"/><path d="m101.796875 283.109375v-166.539063c0-13.285156 10.769531-24.054687 24.054687-24.054687h-30.90625c-13.285156 0-24.054687 10.769531-24.054687 24.054687v166.539063c0 13.289063 10.769531 24.054687 24.054687 24.054687h30.90625c-13.285156 0-24.054687-10.765624-24.054687-24.054687zm0 0" fill="#00a2d7"/><path d="m187.003906 173.921875c0 3.808594-2.34375 9.519531-4.6875 13.910156l-34.261718 65.601563c-1.171876 2.195312-3.367188 3.074218-6.441407 3.074218-7.175781 0-14.5-4.980468-14.5-11.570312 0-1.316406.292969-2.488281 1.027344-3.804688l36.019531-62.378906v-10.25h-26.210937v9.808594c0 3.953125-5.566407 7.03125-11.566407 7.03125-6.152343 0-11.277343-3.078125-11.277343-7.03125v-22.691406c0-3.519532 4.980469-7.03125 9.957031-7.03125h51.984375c4.390625 0 9.957031 3.511718 9.957031 7.03125zm0 0" fill="#ebebeb"/><path d="m226.546875 148.589844c16.988281 0 34.121094 10.6875 34.121094 30.308594 0 31.777343-45.246094 42.171874-45.246094 55.5v1.316406h38.359375c3.664062 0 6.882812 4.539062 6.882812 9.808594 0 5.273437-3.21875 10.105468-6.882812 10.105468h-52.125c-4.101562 0-9.960938-2.78125-9.960938-7.027344v-14.203124c0-22.988282 46.128907-36.167969 46.128907-54.765626 0-4.683593-2.929688-10.394531-11.128907-10.394531-5.859374 0-10.984374 2.925781-10.984374 10.980469 0 4.246094-4.539063 8.347656-12.007813 8.347656-5.855469 0-10.25-2.636718-10.25-11.859375.003906-17.867187 16.402344-28.117187 33.09375-28.117187zm0 0" fill="#ebebeb"/><path d="m311.925781 163.964844v7.324218c0 10.980469-10.394531 20.9375-22.402343 20.9375-12.007813 0-22.257813-9.957031-22.257813-20.9375v-7.324218c0-11.128906 9.957031-20.792969 22.257813-20.792969 12.007812 0 22.402343 9.371094 22.402343 20.792969zm-14.640625 0c0-4.097656-3.515625-7.90625-7.761718-7.90625-4.246094 0-7.617188 3.808594-7.617188 7.90625v7.324218c0 4.246094 3.371094 8.050782 7.617188 8.050782 4.246093 0 7.761718-3.804688 7.761718-8.050782zm0 0" fill="#ebebeb"/><path d="m231.019531 346.808594h-35.007812c-7.535157 0-13.648438 6.113281-13.648438 13.648437v20.019531c0 7.539063 6.113281 13.648438 13.648438 13.648438h35.007812c7.539063 0 13.648438-6.109375 13.648438-13.648438v-20.019531c0-7.535156-6.109375-13.648437-13.648438-13.648437zm0 0" fill="#ff889e"/><path d="m202.96875 380.476562v-20.019531c0-7.535156 6.109375-13.648437 13.644531-13.648437h-20.601562c-7.535157 0-13.648438 6.113281-13.648438 13.648437v20.019531c0 7.539063 6.113281 13.648438 13.648438 13.648438h20.601562c-7.535156 0-13.644531-6.109375-13.644531-13.648438zm0 0" fill="#fd5f7e"/><path d="m119.546875 346.808594h-35.007813c-7.539062 0-13.648437 6.113281-13.648437 13.648437v20.019531c0 7.539063 6.109375 13.648438 13.648437 13.648438h35.007813c7.539063 0 13.648437-6.109375 13.648437-13.648438v-20.019531c0-7.535156-6.109374-13.648437-13.648437-13.648437zm0 0" fill="#59c2e7"/><path d="m91.496094 380.476562v-20.019531c0-7.535156 6.109375-13.648437 13.644531-13.648437h-20.601563c-7.539062 0-13.648437 6.113281-13.648437 13.648437v20.019531c0 7.539063 6.109375 13.648438 13.648437 13.648438h20.601563c-7.535156 0-13.644531-6.109375-13.644531-13.648438zm0 0" fill="#00a2d7"/><path d="m307.484375 346.808594h35.011719c7.535156 0 13.644531 6.113281 13.644531 13.648437v20.019531c0 7.539063-6.109375 13.648438-13.644531 13.648438h-35.011719c-7.535156 0-13.644531-6.109375-13.644531-13.648438v-20.019531c0-7.535156 6.109375-13.648437 13.644531-13.648437zm0 0" fill="#59c2e7"/><path d="m314.441406 380.476562v-20.019531c0-7.535156 6.109375-13.648437 13.648438-13.648437h-20.605469c-7.535156 0-13.644531 6.113281-13.644531 13.648437v20.019531c0 7.539063 6.109375 13.648438 13.644531 13.648438h20.605469c-7.539063 0-13.648438-6.109375-13.648438-13.648438zm0 0" fill="#00a2d7"/><path d="m468.636719 140.660156-21.226563-35.984375c-5.992187-10.15625-20.6875-10.15625-26.679687 0l-21.226563 35.984375c-6.257812 10.609375 1.390625 23.996094 13.703125 23.996094h41.726563c12.3125 0 19.960937-13.386719 13.703125-23.996094zm0 0" fill="#59c2e7"/><path d="m468.636719 259.023438-21.226563 35.980468c-5.992187 10.160156-20.6875 10.160156-26.679687 0l-21.226563-35.980468c-6.257812-10.609376 1.390625-23.996094 13.703125-23.996094h41.726563c12.3125-.003906 19.960937 13.386718 13.703125 23.996094zm0 0" fill="#59c2e7"/></svg>