<svg height="512pt" viewBox="0 -38 512 512" width="512pt" xmlns="http://www.w3.org/2000/svg"><path d="m469.054688 0h-426.109376c-23.71875 0-42.945312 19.226562-42.945312 42.945312v349.960938c0 23.71875 19.226562 42.949219 42.945312 42.949219h426.109376c23.71875 0 42.945312-19.230469 42.945312-42.949219v-349.960938c0-23.71875-19.226562-42.945312-42.945312-42.945312zm0 0" fill="#fd5f7e"/><g fill="#334151"><path d="m172.066406 68.601562c-4.265625 0-7.726562-3.457031-7.726562-7.726562v-15.1875c0-4.269531 3.460937-7.726562 7.726562-7.726562 4.269532 0 7.726563 3.457031 7.726563 7.726562v15.1875c0 4.269531-3.457031 7.726562-7.726563 7.726562zm0 0"/><path d="m339.933594 68.601562c-4.269532 0-7.726563-3.457031-7.726563-7.726562v-15.1875c0-4.269531 3.457031-7.726562 7.726563-7.726562 4.265625 0 7.726562 3.457031 7.726562 7.726562v15.1875c0 4.269531-3.460937 7.726562-7.726562 7.726562zm0 0"/><path d="m256 76.710938c-10.304688 0-19.972656-4.300782-26.535156-11.804688-2.804688-3.214844-2.480469-8.097656.734375-10.902344 3.214843-2.808594 8.09375-2.484375 10.902343.730469 3.625 4.148437 9.054688 6.523437 14.898438 6.523437s11.273438-2.375 14.898438-6.523437c2.808593-3.214844 7.6875-3.539063 10.902343-.730469 3.214844 2.804688 3.539063 7.6875.730469 10.902344-6.558594 7.5-16.226562 11.804688-26.53125 11.804688zm0 0"/></g><path d="m46.359375 113.710938h419.28125v249.640624h-419.28125zm0 0" fill="#76e6d5"/><path d="m46.359375 113.710938h419.28125v30.90625h-419.28125zm0 0" fill="#00ccac"/><path d="m256 296.222656c-11.378906 0-20.605469-9.226562-20.605469-20.605468v-74.171876c0-11.378906 9.226563-20.605468 20.605469-20.605468s20.605469 9.226562 20.605469 20.605468v74.171876c0 11.378906-9.226563 20.605468-20.605469 20.605468zm0 0" fill="#7292df"/><path d="m402.285156 296.222656c-11.378906 0-20.601562-9.226562-20.601562-20.605468v-74.171876c0-11.378906 9.222656-20.605468 20.601562-20.605468s20.605469 9.226562 20.605469 20.605468v74.171876c0 11.378906-9.226563 20.605468-20.605469 20.605468zm0 0" fill="#7292df"/><path d="m109.714844 296.222656c-11.378906 0-20.605469-9.226562-20.605469-20.605468v-74.171876c0-11.378906 9.226563-20.605468 20.605469-20.605468s20.601562 9.226562 20.601562 20.605468v74.171876c0 11.378906-9.222656 20.605468-20.601562 20.605468zm0 0" fill="#7292df"/><path d="m182.855469 315.109375c-11.378907 0-20.601563-9.226563-20.601563-20.605469v-111.945312c0-11.378906 9.222656-20.605469 20.601563-20.605469 11.382812 0 20.605469 9.226563 20.605469 20.605469v111.945312c0 11.378906-9.222657 20.605469-20.605469 20.605469zm0 0" fill="#4677d4"/><path d="m329.144531 315.109375c-11.382812 0-20.605469-9.226563-20.605469-20.605469v-111.945312c0-11.378906 9.222657-20.605469 20.605469-20.605469 11.378907 0 20.601563 9.226563 20.601563 20.605469v111.945312c0 11.378906-9.222656 20.605469-20.601563 20.605469zm0 0" fill="#4677d4"/><path d="m436.96875 51.554688c0 9.574218-7.765625 17.339843-17.34375 17.339843-9.574219 0-17.339844-7.765625-17.339844-17.339843 0-9.578126 7.765625-17.34375 17.339844-17.34375 9.578125 0 17.34375 7.765624 17.34375 17.34375zm0 0" fill="#ebebeb"/></svg>