<svg height="512pt" viewBox="-4 0 512 512" width="512pt" xmlns="http://www.w3.org/2000/svg"><path d="m360.816406 136.808594v291.171875l-180.40625 42.011719-180.410156-42.011719v-291.171875l180.410156-42.011719zm0 0" fill="#ebebeb"/><path d="m41.207031 427.980469v-291.171875l159.804688-37.210938-20.601563-4.800781-180.410156 42.011719v291.171875l180.410156 42.011719 20.601563-4.800782zm0 0" fill="#d5d4da"/><g fill="#334151"><path d="m89.554688 293.949219c-4.265626 0-7.726563-3.457031-7.726563-7.726563v-16.441406c0-4.265625 3.460937-7.726562 7.726563-7.726562 4.269531 0 7.726562 3.460937 7.726562 7.726562v16.441406c0 4.269532-3.457031 7.726563-7.726562 7.726563zm0 0"/><path d="m271.261719 293.949219c-4.269531 0-7.726563-3.457031-7.726563-7.726563v-16.441406c0-4.265625 3.457032-7.726562 7.726563-7.726562 4.265625 0 7.726562 3.460937 7.726562 7.726562v16.441406c0 4.269532-3.460937 7.726563-7.726562 7.726563zm0 0"/><path d="m180.410156 302.726562c-10.96875 0-21.265625-4.578124-28.242187-12.5625-2.808594-3.210937-2.480469-8.09375.730469-10.902343 3.214843-2.808594 8.09375-2.480469 10.902343.734375 4.042969 4.625 10.097657 7.277344 16.609375 7.277344 6.507813 0 12.558594-2.652344 16.605469-7.277344 2.808594-3.214844 7.6875-3.542969 10.902344-.734375 3.210937 2.808593 3.539062 7.691406.730469 10.902343-6.976563 7.984376-17.273438 12.5625-28.238282 12.5625zm0 0"/></g><path d="m360.816406 136.808594h-360.816406c0-46.40625 37.613281-84.019532 84.019531-84.019532h192.765625c46.40625 0 84.03125 37.613282 84.03125 84.019532zm0 0" fill="#7292df"/><path d="m125.226562 52.789062h-41.207031c-46.40625 0-84.019531 37.613282-84.019531 84.019532h41.207031c0-46.40625 37.613281-84.019532 84.019531-84.019532zm0 0" fill="#4677d4"/><path d="m360.816406 427.980469c0 46.394531-37.625 84.019531-84.03125 84.019531h-192.765625c-46.40625 0-84.019531-37.625-84.019531-84.019531zm0 0" fill="#7292df"/><path d="m41.207031 427.980469h-41.207031c0 46.394531 37.613281 84.019531 84.019531 84.019531h41.207031c-46.40625 0-84.019531-37.625-84.019531-84.019531zm0 0" fill="#4677d4"/><path d="m433.863281 0h-92.105469c-38.933593 0-70.496093 31.5625-70.496093 70.5v61.710938c0 12.832031 3.441406 24.851562 9.433593 35.21875h-.019531l-10.980469 35.15625c-3.007812 9.632812 7.140626 18.09375 16.078126 13.394531l32.71875-17.203125v-.015625c7.285156 2.550781 15.109374 3.949219 23.265624 3.949219h92.105469c38.9375 0 70.5-31.5625 70.5-70.5v-61.710938c0-38.9375-31.5625-70.5-70.5-70.5zm0 0" fill="#fd5f7e"/><path d="m410.925781 144.316406c0 12.765625-10.347656 23.113282-23.113281 23.113282s-23.117188-10.347657-23.117188-23.113282c0-12.769531 10.351563-23.117187 23.117188-23.117187s23.113281 10.347656 23.113281 23.117187zm0 0" fill="#f5e277"/><path d="m448.125 126.671875c-4.804688-11.898437-14.078125-20.339844-14.078125-20.339844l-46.234375-21.050781-46.234375 21.050781s-9.273437 8.441407-14.078125 20.339844c-2.613281 6.46875 2.085938 13.535156 9.058594 13.535156h102.507812c6.972656 0 11.671875-7.066406 9.058594-13.535156zm0 0" fill="#f0bc63"/><path d="m387.8125 35.28125c-25.535156 0-46.238281 20.699219-46.238281 46.234375v24.816406h92.472656v-24.816406c0-25.535156-20.699219-46.234375-46.234375-46.234375zm0 0" fill="#f5e277"/></svg>