<svg height="512pt" viewBox="0 -9 512.00001 512" width="512pt" xmlns="http://www.w3.org/2000/svg"><path d="m349.21875 18.957031c85.074219 36.265625 144.710938 120.660157 144.710938 218.972657 0 131.402343-106.527344 237.929687-237.929688 237.929687-131.398438 0-237.929688-106.527344-237.929688-237.929687 0-98.3125 59.636719-182.707032 144.710938-218.972657zm0 0" fill="#a6b6c4"/><g fill="#334151"><path d="m179.144531 124.6875c-4.265625 0-7.726562-3.457031-7.726562-7.726562v-13.90625c0-4.269532 3.460937-7.726563 7.726562-7.726563 4.269531 0 7.726563 3.457031 7.726563 7.726563v13.90625c0 4.269531-3.457032 7.726562-7.726563 7.726562zm0 0"/><path d="m332.855469 124.6875c-4.265625 0-7.726563-3.457031-7.726563-7.726562v-13.90625c0-4.269532 3.460938-7.726563 7.726563-7.726563s7.726562 3.457031 7.726562 7.726563v13.90625c0 4.269531-3.460937 7.726562-7.726562 7.726562zm0 0"/><path d="m256 132.113281c-9.621094 0-18.65625-4.023437-24.785156-11.035156-2.808594-3.210937-2.480469-8.09375.730468-10.902344 3.214844-2.808593 8.09375-2.480469 10.902344.734375 3.195313 3.652344 7.988282 5.75 13.152344 5.75s9.957031-2.097656 13.152344-5.75c2.808594-3.214844 7.691406-3.539062 10.902344-.730468 3.210937 2.804687 3.539062 7.6875.730468 10.902343-6.128906 7.007813-15.160156 11.03125-24.785156 11.03125zm0 0"/></g><path d="m491.9375 207.023438h-28.402344c-35.007812 0-65.519531 24.730468-72.546875 58.796874-13.136719 63.699219-69.910156 109.933594-134.988281 109.933594-65.082031 0-121.851562-46.234375-134.992188-109.933594-7.023437-34.066406-37.535156-58.796874-72.542968-58.796874h-28.398438c-1.3125 10.121093-1.996094 20.433593-1.996094 30.90625 0 131.402343 106.53125 237.929687 237.929688 237.929687 131.402344 0 237.929688-106.527344 237.929688-237.929687 0-10.472657-.679688-20.785157-1.992188-30.90625zm0 0" fill="#7a8fa4"/><path d="m463.535156 237.929688c-20.375 0-38.160156 14.183593-42.277344 34.136718-15.828124 76.726563-83.910156 134.589844-165.257812 134.589844-81.34375 0-149.429688-57.863281-165.257812-134.589844-4.113282-19.953125-21.902344-34.136718-42.277344-34.136718h-33.644532c-8.523437 0-15.304687 7.179687-14.7929682 15.6875 8.1054682 134.324218 119.6093752 240.757812 255.9726562 240.757812s247.867188-106.433594 255.972656-240.757812c.511719-8.507813-6.269531-15.683594-14.792968-15.683594h-33.644532zm0 0" fill="#a6b6c4"/><path d="m338.558594 237.929688c0 45.597656-36.960938 82.558593-82.558594 82.558593-45.59375 0-82.558594-36.960937-82.558594-82.558593 0-45.59375 36.964844-82.558594 82.558594-82.558594 45.597656 0 82.558594 36.964844 82.558594 82.558594zm0 0" fill="#4677d4"/><path d="m292.121094 237.929688c0 19.949218-16.171875 36.121093-36.121094 36.121093s-36.117188-16.171875-36.117188-36.121093c0-19.945313 16.167969-36.117188 36.117188-36.117188s36.121094 16.171875 36.121094 36.117188zm0 0" fill="#a6b6c4"/><path d="m349.21875 18.957031v18.988281c0 16.789063-13.613281 30.402344-30.402344 30.402344h-125.632812c-16.789063 0-30.402344-13.613281-30.402344-30.402344v-18.988281c28.628906-12.199219 60.132812-18.957031 93.21875-18.957031s64.59375 6.757812 93.21875 18.957031zm0 0" fill="#4677d4"/></svg>