<svg height="512pt" viewBox="-30 0 512 512" width="512pt" xmlns="http://www.w3.org/2000/svg"><path d="m412.375 0h-371.835938c-22.390624 0-40.539062 18.148438-40.539062 40.539062v430.921876c0 22.390624 18.148438 40.539062 40.539062 40.539062h371.835938c22.390625 0 40.539062-18.148438 40.539062-40.539062v-430.921876c0-22.390624-18.148437-40.539062-40.539062-40.539062zm0 0" fill="#7a8fa4"/><g fill="#a6b6c4"><path d="m69.988281 52.644531c0 10.207031-8.273437 18.480469-18.480469 18.480469-10.203124 0-18.476562-8.273438-18.476562-18.480469 0-10.203125 8.273438-18.476562 18.476562-18.476562 10.207032 0 18.480469 8.273437 18.480469 18.476562zm0 0"/><path d="m419.886719 52.644531c0 10.207031-8.273438 18.480469-18.480469 18.480469s-18.480469-8.273438-18.480469-18.480469c0-10.203125 8.273438-18.476562 18.480469-18.476562s18.480469 8.273437 18.480469 18.476562zm0 0"/><path d="m69.988281 459.355469c0 10.203125-8.273437 18.476562-18.480469 18.476562-10.203124 0-18.476562-8.273437-18.476562-18.476562 0-10.207031 8.273438-18.480469 18.476562-18.480469 10.207032 0 18.480469 8.273438 18.480469 18.480469zm0 0"/><path d="m419.886719 459.355469c0 10.203125-8.273438 18.476562-18.480469 18.476562s-18.480469-8.273437-18.480469-18.476562c0-10.207031 8.273438-18.480469 18.480469-18.480469s18.480469 8.273438 18.480469 18.480469zm0 0"/></g><path d="m407.769531 256c0 50.066406-20.292969 95.394531-53.105469 128.207031l-84.597656-37.550781-43.609375-90.65625 41.550781-102.675781 86.65625-25.53125c32.8125 32.8125 53.105469 78.140625 53.105469 128.207031zm0 0" fill="#59c2e7"/><path d="m226.457031 256-35.015625 100.1875-93.191406 28.019531c-32.808594-32.8125-53.105469-78.140625-53.105469-128.207031s20.296875-95.394531 53.105469-128.207031l92.152344 42.015625zm0 0" fill="#76e6d5"/><path d="m89.445312 256c0 46.820312 23.609376 88.226562 59.546876 112.949219l42.449218-12.761719 35.015625-100.1875-36.054687-86.191406-48.039063-21.902344c-32.183593 25.09375-52.917969 64.214844-52.917969 108.09375zm0 0" fill="#00ccac"/><path d="m303.613281 142.835938-35.605469 10.488281-41.550781 102.675781 43.609375 90.65625 40.046875 17.777344c32.433594-25.082032 53.359375-64.355469 53.359375-108.433594 0-46.957031-23.75-88.46875-59.859375-113.164062zm0 0" fill="#00a2d7"/><path d="m354.664062 384.207031c-32.8125 32.808594-78.140624 53.105469-128.207031 53.105469-50.066406 0-95.394531-20.296875-128.207031-53.105469l128.207031-128.207031zm0 0" fill="#ff889e"/><path d="m354.664062 127.792969-128.207031 128.207031-128.207031-128.207031c32.8125-32.808594 78.140625-53.105469 128.207031-53.105469 50.066407 0 95.394531 20.296875 128.207031 53.105469zm0 0" fill="#f5e277"/><path d="m129.621094 352.839844c24.808594 24.808594 59.0625 40.175781 96.835937 40.175781 37.773438 0 72.027344-15.367187 96.839844-40.175781l-96.839844-96.839844zm0 0" fill="#fd5f7e"/><path d="m129.621094 159.160156 96.835937 96.839844 96.839844-96.839844c-24.8125-24.808594-59.0625-40.175781-96.839844-40.175781-37.773437 0-72.027343 15.367187-96.835937 40.175781zm0 0" fill="#f0bc63"/><path d="m313 194.59375 6.941406-32.078125-32.074218 6.941406c-17.332032-12.320312-38.523438-19.566406-61.410157-19.566406-58.601562 0-106.109375 47.507813-106.109375 106.109375s47.507813 106.109375 106.109375 106.109375c58.601563 0 106.109375-47.507813 106.109375-106.109375 0-22.882812-7.246094-44.078125-19.566406-61.40625zm0 0" fill="#ebebeb"/><path d="m164.261719 266.351562c-4.265625 0-7.726563-3.460937-7.726563-7.726562v-11.257812c0-4.265626 3.460938-7.726563 7.726563-7.726563 4.269531 0 7.726562 3.460937 7.726562 7.726563v11.257812c0 4.265625-3.457031 7.726562-7.726562 7.726562zm0 0" fill="#334151"/><path d="m288.652344 266.351562c-4.269532 0-7.726563-3.460937-7.726563-7.726562v-11.257812c0-4.265626 3.457031-7.726563 7.726563-7.726563 4.269531 0 7.726562 3.460937 7.726562 7.726563v11.257812c0 4.265625-3.457031 7.726562-7.726562 7.726562zm0 0" fill="#334151"/><path d="m226.457031 272.359375c-8.210937 0-15.929687-3.441406-21.167969-9.433594-2.808593-3.214843-2.480468-8.09375.734376-10.902343 3.210937-2.808594 8.089843-2.480469 10.902343.730468 2.304688 2.636719 5.777344 4.152344 9.53125 4.152344 3.753907 0 7.226563-1.511719 9.535157-4.148438 2.804687-3.214843 7.6875-3.542968 10.898437-.734374 3.214844 2.808593 3.542969 7.6875.734375 10.902343-5.238281 5.996094-12.953125 9.433594-21.167969 9.433594zm0 0" fill="#334151"/></svg>