<svg height="512pt" viewBox="-51 0 512 512" width="512pt" xmlns="http://www.w3.org/2000/svg"><path d="m332.304688 512h43.09375c18.636718 0 33.726562-15.101562 33.726562-33.726562v-444.546876c0-18.625-15.089844-33.726562-33.726562-33.726562h-341.671876c-18.632812 0-33.726562 15.101562-33.726562 33.726562v444.546876c0 18.625 15.09375 33.726562 33.726562 33.726562h43.09375l127.742188-21.117188zm0 0" fill="#a6b6c4"/><path d="m41.203125 41.207031h326.71875v141.136719h-326.71875zm0 0" fill="#a7e0f5"/><path d="m41.203125 41.207031h326.71875v30.90625h-326.71875zm0 0" fill="#59c2e7"/><path d="m115.996094 123.238281c-4.269532 0-7.726563-3.460937-7.726563-7.726562v-16.03125c0-4.265625 3.457031-7.726563 7.726563-7.726563 4.265625 0 7.722656 3.460938 7.722656 7.726563v16.03125c0 4.265625-3.457031 7.726562-7.722656 7.726562zm0 0" fill="#334151"/><path d="m293.132812 123.238281c-4.269531 0-7.726562-3.460937-7.726562-7.726562v-16.03125c0-4.265625 3.457031-7.726563 7.726562-7.726563 4.265626 0 7.726563 3.460938 7.726563 7.726563v16.03125c0 4.265625-3.460937 7.726562-7.726563 7.726562zm0 0" fill="#334151"/><path d="m204.5625 131.792969c-10.75 0-20.835938-4.488281-27.675781-12.3125-2.808594-3.214844-2.480469-8.09375.734375-10.902344 3.210937-2.808594 8.089844-2.480469 10.902344.734375 3.902343 4.46875 9.75 7.027344 16.039062 7.027344s12.136719-2.558594 16.042969-7.027344c2.808593-3.214844 7.6875-3.539062 10.902343-.734375 3.210938 2.808594 3.542969 7.691406.730469 10.90625-6.839843 7.820313-16.925781 12.308594-27.675781 12.308594zm0 0" fill="#334151"/><g fill="#7a8fa4"><path d="m316.167969 239.34375h-223.207031c-4.269532 0-7.726563-3.457031-7.726563-7.726562 0-4.265626 3.457031-7.726563 7.726563-7.726563h223.207031c4.265625 0 7.726562 3.460937 7.726562 7.726563 0 4.269531-3.460937 7.726562-7.726562 7.726562zm0 0"/><path d="m316.167969 282.097656h-223.207031c-4.269532 0-7.726563-3.460937-7.726563-7.726562s3.457031-7.726563 7.726563-7.726563h223.207031c4.265625 0 7.726562 3.460938 7.726562 7.726563s-3.460937 7.726562-7.726562 7.726562zm0 0"/><path d="m316.167969 324.851562h-223.207031c-4.269532 0-7.726563-3.460937-7.726563-7.726562 0-4.269531 3.457031-7.726562 7.726563-7.726562h223.207031c4.265625 0 7.726562 3.457031 7.726562 7.726562 0 4.265625-3.460937 7.726562-7.726562 7.726562zm0 0"/><path d="m332.304688 401.265625v110.734375h-255.484376v-110.734375c0-19.347656 15.691407-35.035156 35.035157-35.035156h185.414062c19.347657 0 35.035157 15.6875 35.035157 35.035156zm0 0"/></g><path d="m236.730469 439.113281c0 17.765625-14.402344 32.167969-32.167969 32.167969s-32.167969-14.402344-32.167969-32.167969 14.402344-32.164062 32.167969-32.164062 32.167969 14.398437 32.167969 32.164062zm0 0" fill="#ff889e"/></svg>