<svg height="512pt" viewBox="0 0 512 512" width="512pt" xmlns="http://www.w3.org/2000/svg"><path d="m512 118.160156v347.636719c0 25.515625-20.6875 46.203125-46.203125 46.203125h-419.59375c-25.515625 0-46.203125-20.6875-46.203125-46.203125v-347.636719l256-44.898437zm0 0" fill="#4677d4"/><path d="m51.507812 185.554688v-98.296876h408.984376v98.296876l-204.492188 19.964843zm0 0" fill="#334151"/><path d="m460.492188 185.554688v274.9375h-408.984376v-274.9375l25.558594-12.894532c16.082032-8.109375 35.046875-8.109375 51.128906 0 8.035157 4.058594 16.792969 6.085938 25.558594 6.085938s17.523438-2.027344 25.558594-6.085938c8.035156-4.0625 16.804688-6.078125 25.570312-6.078125 8.757813 0 17.511719 2.015625 25.558594 6.078125 8.035156 4.058594 16.800782 6.085938 25.558594 6.085938s17.523438-2.027344 25.558594-6.085938c8.046875-4.0625 16.800781-6.078125 25.558594-6.078125 8.765624 0 17.535156 2.015625 25.570312 6.078125 8.035156 4.058594 16.792969 6.085938 25.558594 6.085938s17.523437-2.027344 25.558594-6.085938c8.035156-4.0625 16.800781-6.078125 25.570312-6.078125 8.753906 0 17.511719 2.015625 25.558594 6.078125zm0 0" fill="#59c2e7"/><path d="m128.773438 460.492188c-.6875-33.824219 28.84375-41.722657 28.84375-41.722657l15.710937-11.332031 15.710937 11.332031s29.53125 7.898438 28.84375 41.722657zm0 0" fill="#ebebeb"/><path d="m157.617188 262.179688h31.421874v156.589843h-31.421874zm0 0" fill="#ebebeb"/><path d="m173.328125 381.167969c5.339844 0 10.585937-.410157 15.710937-1.195313v-117.792968h-31.421874v117.792968c5.125.785156 10.371093 1.195313 15.710937 1.195313zm0 0" fill="#d5d4da"/><path d="m433.363281 352.746094c0 59.5-48.234375 107.734375-107.734375 107.734375s-107.734375-48.234375-107.734375-107.734375 48.234375-107.734375 107.734375-107.734375 107.734375 48.234375 107.734375 107.734375zm0 0" fill="#d5d4da"/><path d="m325.628906 424.421875c-39.523437 0-71.679687-32.152344-71.679687-71.675781 0-39.523438 32.15625-71.675782 71.679687-71.675782 39.523438 0 71.679688 32.152344 71.679688 71.675782 0 39.523437-32.15625 71.675781-71.679688 71.675781zm0 0" fill="#ebebeb"/><path d="m231.492188 212.730469h-116.328126c-7.847656 0-14.207031 6.363281-14.207031 14.207031v50.953125c0 39.96875 32.402344 72.371094 72.371094 72.371094s72.371094-32.402344 72.371094-72.371094v-50.953125c0-7.84375-6.363281-14.207031-14.207031-14.207031zm0 0" fill="#ebebeb"/><path d="m512 46.203125v71.957031h-512v-71.957031c0-25.515625 20.6875-46.203125 46.203125-46.203125h419.59375c25.515625 0 46.203125 20.6875 46.203125 46.203125zm0 0" fill="#7292df"/><path d="m448.433594 33.984375h-169.042969c-6.660156 0-12.058594 5.394531-12.058594 12.054687v26.082032c0 6.660156 5.398438 12.058594 12.058594 12.058594h169.042969c6.65625 0 12.058594-5.398438 12.058594-12.058594v-26.082032c0-6.660156-5.398438-12.054687-12.058594-12.054687zm0 0" fill="#a7e0f5"/><path d="m123.789062 59.082031c0 12.722657-10.3125 23.035157-23.039062 23.035157-12.722656 0-23.035156-10.3125-23.035156-23.035157 0-12.726562 10.3125-23.039062 23.035156-23.039062 12.726562 0 23.039062 10.3125 23.039062 23.039062zm0 0" fill="#76e6d5"/><path d="m202.976562 59.082031c0 12.722657-10.3125 23.035157-23.039062 23.035157-12.722656 0-23.035156-10.3125-23.035156-23.035157 0-12.726562 10.3125-23.039062 23.035156-23.039062 12.726562 0 23.039062 10.3125 23.039062 23.039062zm0 0" fill="#ff889e"/></svg>