<svg height="512pt" viewBox="-7 0 512 512.00103" width="512pt" xmlns="http://www.w3.org/2000/svg"><path d="m259.707031 181.894531c0 48.550781-39.359375 87.914063-87.914062 87.914063-48.554688 0-87.914063-39.363282-87.914063-87.914063 0-48.554687 39.359375-87.917969 87.914063-87.917969 48.554687 0 87.914062 39.363282 87.914062 87.917969zm0 0" fill="#ebebeb"/><path d="m192.398438 259.503906c-48.554688 0-87.917969-39.359375-87.917969-87.914062 0-30.28125 15.3125-56.984375 38.617187-72.796875-34.457031 11.898437-59.21875 44.597656-59.21875 83.101562 0 48.554688 39.359375 87.914063 87.914063 87.914063 18.273437 0 35.238281-5.578125 49.300781-15.117188-8.996094 3.105469-18.644531 4.8125-28.695312 4.8125zm0 0" fill="#d5d4da"/><path d="m295.179688 317.640625h-39.191407l-17.8125-23.1875c-4.3125-5.613281-11.902343-7.410156-18.367187-4.523437-14.679688 6.550781-30.929688 10.191406-48.015625 10.191406-20.367188 0-39.542969-5.175782-56.292969-14.28125-3.644531-1.980469-7.636719-3.242188-11.75-3.78125l-38.285156-5.015625c-7.785156-1.023438-15.597656 1.632812-21.144532 7.183593l-36.921874 36.917969c-9.863282 9.867188-9.863282 25.863281 0 35.730469 4.933593 4.933594 11.398437 7.398438 17.863281 7.398438 6.46875 0 12.933593-2.46875 17.863281-7.398438l28.117188-28.117188 28.121093 3.683594-16.316406 50.433594c-2.777344 5.839844-4.222656 12.226562-4.222656 18.691406v28.914063h-34.800781c-14.164063 0-26.097657 11.589843-25.828126 25.75.257813 13.726562 11.46875 24.777343 25.257813 24.777343h60.636719c13.953125 0 25.261718-11.3125 25.261718-25.265624v-39.570313c0-6.777344 4.6875-12.839844 11.351563-14.082031 5.910156-1.101563 11.707031 1.644531 14.640625 6.667968 13.019531 22.289063 53.289062 90.792969 53.289062 90.792969 4.707032 8 13.136719 12.449219 21.792969 12.449219 4.355469 0 8.769531-1.125 12.792969-3.496094 12.023438-7.078125 16.03125-22.5625 8.957031-34.585937l-50.484375-85.761719c-3.132812-5.316406-3.417968-11.839844-.765625-17.410156l8.328125-31.003906 14.253906 18.550781c4.78125 6.226562 12.183594 9.875 20.03125 9.875h52.210938c13.789062 0 24.996094-11.046875 25.257812-24.773438.269532-14.164062-11.664062-25.753906-25.828124-25.753906zm0 0" fill="#ebebeb"/><path d="m122.1875 196.765625c-4.269531 0-7.726562-3.460937-7.726562-7.726563v-8.980468c0-4.265625 3.457031-7.726563 7.726562-7.726563 4.265625 0 7.726562 3.460938 7.726562 7.726563v8.980468c0 4.265626-3.460937 7.726563-7.726562 7.726563zm0 0" fill="#334151"/><path d="m221.402344 196.765625c-4.269532 0-7.726563-3.460937-7.726563-7.726563v-8.980468c0-4.265625 3.457031-7.726563 7.726563-7.726563 4.265625 0 7.726562 3.460938 7.726562 7.726563v8.980468c0 4.265626-3.460937 7.726563-7.726562 7.726563zm0 0" fill="#334151"/><path d="m171.792969 201.558594c-7 0-13.585938-2.9375-18.0625-8.058594-2.804688-3.214844-2.480469-8.09375.734375-10.902344 3.210937-2.808594 8.09375-2.480468 10.902344.730469 1.542968 1.765625 3.882812 2.777344 6.425781 2.777344s4.886719-1.011719 6.425781-2.777344c2.808594-3.210937 7.691406-3.539063 10.902344-.730469 3.214844 2.808594 3.542968 7.6875.734375 10.902344-4.476563 5.121094-11.0625 8.058594-18.0625 8.058594zm0 0" fill="#334151"/><path d="m498.195312 13.328125v33.488281l-62.320312 31.160156-62.320312-31.160156v-33.488281c0-7.355469 5.972656-13.328125 13.332031-13.328125h97.980469c7.355468 0 13.328124 5.972656 13.328124 13.328125zm0 0" fill="#ebebeb"/><path d="m404.460938 46.816406v-33.488281c0-7.355469 5.972656-13.328125 13.332031-13.328125h-30.90625c-7.359375 0-13.328125 5.972656-13.328125 13.328125v33.488281l62.316406 31.160156 15.453125-7.726562zm0 0" fill="#d5d4da"/><g fill="#ff889e"><path d="m406.105469 216.566406c-.027344 0-.054688 0-.082031 0-34.476563-.347656-66.894532-13.96875-91.273438-38.351562-24.386719-24.382813-38.007812-56.804688-38.355469-91.289063-.042969-4.265625 3.382813-7.757812 7.648438-7.800781h.082031c4.230469 0 7.679688 3.40625 7.722656 7.648438.304688 30.414062 12.320313 59.007812 33.828125 80.515624 21.503907 21.503907 50.09375 33.519532 80.503907 33.828126 4.265624.042968 7.691406 3.535156 7.648437 7.804687-.042969 4.238281-3.492187 7.644531-7.722656 7.644531zm0 0"/><path d="m406.410156 186.253906c-.023437 0-.050781 0-.078125 0-26.496093-.269531-51.410156-10.738281-70.148437-29.476562-18.742188-18.738282-29.207032-43.652344-29.476563-70.15625-.042969-4.265625 3.382813-7.757813 7.648438-7.804688 4.300781-.023437 7.761719 3.382813 7.804687 7.648438.226563 22.433594 9.085938 43.523437 24.949219 59.386718 15.863281 15.859376 36.949219 24.722657 59.378906 24.949219 4.265625.042969 7.691407 3.539063 7.648438 7.804688-.042969 4.242187-3.492188 7.648437-7.726563 7.648437zm0 0"/><path d="m406.71875 155.941406c-.027344 0-.050781 0-.078125 0-18.515625-.191406-35.925781-7.503906-49.019531-20.601562-13.097656-13.09375-20.414063-30.507813-20.597656-49.023438-.042969-4.265625 3.378906-7.761718 7.648437-7.804687 4.28125-.023438 7.757813 3.382812 7.800781 7.648437.144532 14.449219 5.855469 28.035156 16.074219 38.253906s23.800781 15.925782 38.25 16.074219c4.265625.042969 7.6875 3.535157 7.644531 7.804688-.039062 4.238281-3.492187 7.648437-7.722656 7.648437zm0 0"/><path d="m498.195312 46.816406c0 17.210938-6.972656 32.792969-18.25 44.070313-11.277343 11.277343-26.859374 18.25-44.070312 18.25-34.417969 0-62.320312-27.902344-62.320312-62.320313zm0 0"/></g><path d="m404.460938 46.816406h-30.90625c0 34.417969 27.902343 62.320313 62.320312 62.320313 5.335938 0 10.511719-.675781 15.453125-1.933594-26.941406-6.875-46.867187-31.300781-46.867187-60.386719zm0 0" fill="#fd5f7e"/></svg>