<svg height="512pt" viewBox="-2 0 512 512" width="512pt" xmlns="http://www.w3.org/2000/svg"><path d="m66.695312 269.957031c0-103.128906 83.898438-187.027343 187.027344-187.027343 103.125 0 187.027344 83.898437 187.027344 187.027343zm0 0" fill="#7292df"/><path d="m66.695312 269.957031c2.839844 25.160157-5.734374 45.804688-12.003906 57.078125-3.25 5.839844-1.328125 13.199219 4.382813 16.671875 11.582031 7.039063 33.769531 17.8125 71.015625 26.402344l16.007812-37.5-33.5-50.867187zm0 0" fill="#7292df"/><path d="m440.75 269.957031c-2.839844 25.160157 5.734375 45.804688 12.003906 57.078125 3.246094 5.839844 1.324219 13.199219-4.386718 16.671875-11.582032 7.039063-33.769532 17.8125-71.015626 26.402344l-16.003906-37.5 33.496094-50.867187zm0 0" fill="#7292df"/><g fill="#76e6d5"><path d="m20.167969 126.480469c-11.136719 0-20.167969-9.03125-20.167969-20.167969v-86.144531c0-11.136719 9.03125-20.167969 20.167969-20.167969h86.144531c11.136719 0 20.167969 9.03125 20.167969 20.167969 0 11.140625-9.03125 20.167969-20.167969 20.167969h-65.976562v65.976562c0 11.136719-9.027344 20.167969-20.167969 20.167969zm0 0"/><path d="m487.273438 126.480469c11.140624 0 20.167968-9.03125 20.167968-20.167969v-86.144531c0-11.136719-9.027344-20.167969-20.167968-20.167969h-86.140626c-11.140624 0-20.167968 9.03125-20.167968 20.167969 0 11.140625 9.027344 20.167969 20.167968 20.167969h65.972657v65.976562c0 11.136719 9.027343 20.167969 20.167969 20.167969zm0 0"/><path d="m20.167969 385.519531c-11.136719 0-20.167969 9.03125-20.167969 20.167969v86.144531c0 11.136719 9.03125 20.167969 20.167969 20.167969h86.144531c11.136719 0 20.167969-9.03125 20.167969-20.167969 0-11.140625-9.03125-20.167969-20.167969-20.167969h-65.976562v-65.976562c0-11.136719-9.027344-20.167969-20.167969-20.167969zm0 0"/><path d="m487.273438 385.519531c11.140624 0 20.167968 9.03125 20.167968 20.167969v86.144531c0 11.136719-9.027344 20.167969-20.167968 20.167969h-86.140626c-11.140624 0-20.167968-9.03125-20.167968-20.167969 0-11.140625 9.027344-20.171875 20.167968-20.171875h65.972657v-65.972656c0-11.136719 9.027343-20.167969 20.167969-20.167969zm0 0"/></g><path d="m448.316406 269.957031c0 19.597657-15.886718 35.480469-35.480468 35.480469-19.597657 0-35.484376-15.882812-35.484376-35.480469 0-19.597656 15.886719-35.480469 35.484376-35.480469 19.59375 0 35.480468 15.882813 35.480468 35.480469zm0 0" fill="#ffcabd"/><path d="m98.535156 234.691406c16.042969-70.902344 79.433594-123.847656 155.1875-123.847656 75.75 0 139.144532 52.9375 155.175782 123.839844zm0 0" fill="#ff889e"/><path d="m408.90625 234.699219h-310.371094s0 0 0-.007813c.539063-1.097656 39.683594-80.113281 155.1875-80.113281 115.398438 0 154.570313 78.875 155.175782 80.105469.007812.007812.007812.015625.007812.015625zm0 0" fill="#7292df"/><path d="m412.835938 269.957031c0 87.875-71.238282 159.113281-159.113282 159.113281s-159.113281-71.238281-159.113281-159.113281c0-12.113281 1.355469-23.914062 3.925781-35.257812 0 0 75.472656-83.84375 155.1875-14.988281 79.714844-68.855469 155.183594 14.988281 155.183594 14.988281 2.570312 11.34375 3.929688 23.144531 3.929688 35.257812zm0 0" fill="#ffdcce"/><path d="m125.511719 269.957031c0-10.324219.988281-42.835937 2.867187-59.253906-18.511718 11.414063-29.84375 23.996094-29.84375 23.996094s-.003906.003906-.003906.007812c-1.265625-.148437-2.570312-.234375-3.925781-.234375-19.59375 0-35.480469 15.886719-35.480469 35.484375 0 19.59375 15.886719 35.480469 35.480469 35.480469 1.355469 0 2.660156-.082031 3.925781-.230469 16.042969 70.910157 79.429688 123.863281 155.191406 123.863281 5.210938 0 10.367188-.257812 15.453125-.75-80.625-7.769531-143.664062-75.703124-143.664062-158.363281zm0 0" fill="#ffcabd"/><path d="m176.027344 288.890625c-4.269532 0-7.726563-3.460937-7.726563-7.726563v-15.109374c0-4.265626 3.457031-7.722657 7.726563-7.722657 4.265625 0 7.726562 3.457031 7.726562 7.722657v15.109374c0 4.265626-3.460937 7.726563-7.726562 7.726563zm0 0" fill="#334151"/><path d="m186.3125 311.09375h-20.574219c-4.269531 0-7.726562-3.460938-7.726562-7.726562 0-4.265626 3.457031-7.726563 7.726562-7.726563h20.574219c4.269531 0 7.726562 3.460937 7.726562 7.726563 0 4.265624-3.457031 7.726562-7.726562 7.726562zm0 0" fill="#ff889e"/><path d="m331.417969 288.890625c-4.269531 0-7.726563-3.460937-7.726563-7.726563v-15.109374c0-4.265626 3.457032-7.722657 7.726563-7.722657 4.265625 0 7.726562 3.457031 7.726562 7.722657v15.109374c0 4.265626-3.460937 7.726563-7.726562 7.726563zm0 0" fill="#334151"/><path d="m341.703125 311.09375h-20.574219c-4.265625 0-7.726562-3.460938-7.726562-7.726562 0-4.265626 3.460937-7.726563 7.726562-7.726563h20.574219c4.269531 0 7.726563 3.460937 7.726563 7.726563 0 4.265624-3.457032 7.726562-7.726563 7.726562zm0 0" fill="#ff889e"/><path d="m253.722656 310.242188c-7.644531 0-14.832031-3.203126-19.714844-8.789063-2.808593-3.214844-2.480468-8.09375.730469-10.902344 3.214844-2.808593 8.09375-2.480469 10.902344.730469 1.949219 2.230469 4.894531 3.507812 8.082031 3.507812 3.183594 0 6.128906-1.277343 8.078125-3.507812 2.808594-3.210938 7.6875-3.539062 10.902344-.730469 3.210937 2.808594 3.539063 7.6875.730469 10.902344-4.882813 5.585937-12.066406 8.789063-19.710938 8.789063zm0 0" fill="#334151"/></svg>