<svg height="512pt" viewBox="0 -12 512 512" width="512pt" xmlns="http://www.w3.org/2000/svg"><path d="m61.882812 225.589844h-30.996093c-17.0625 0-30.886719-13.824219-30.886719-30.886719v-163.816406c0-17.0625 13.824219-30.886719 30.886719-30.886719h450.226562c17.0625 0 30.886719 13.824219 30.886719 30.886719v163.816406c0 17.0625-13.824219 30.886719-30.886719 30.886719h-30.996093l-194.117188-46.632813zm0 0" fill="#a6b6c4"/><g fill="#334151"><path d="m160.21875 82.28125c-4.265625 0-7.726562-3.460938-7.726562-7.726562v-17.335938c0-4.265625 3.460937-7.726562 7.726562-7.726562 4.269531 0 7.726562 3.460937 7.726562 7.726562v17.335938c0 4.265624-3.457031 7.726562-7.726562 7.726562zm0 0"/><path d="m351.78125 82.28125c-4.269531 0-7.726562-3.460938-7.726562-7.726562v-17.335938c0-4.265625 3.457031-7.726562 7.726562-7.726562 4.265625 0 7.726562 3.460937 7.726562 7.726562v17.335938c0 4.265624-3.460937 7.726562-7.726562 7.726562zm0 0"/><path d="m256 91.535156c-11.441406 0-22.179688-4.773437-29.457031-13.101562-2.808594-3.210938-2.480469-8.09375.734375-10.902344 3.210937-2.808594 8.09375-2.480469 10.902344.734375 4.339843 4.96875 10.835937 7.816406 17.820312 7.816406s13.480469-2.847656 17.824219-7.816406c2.808593-3.214844 7.6875-3.542969 10.898437-.734375 3.214844 2.808594 3.542969 7.691406.734375 10.902344-7.277343 8.328125-18.015625 13.101562-29.457031 13.101562zm0 0"/></g><path d="m443.160156 140.335938h-184.316406c-30.042969 0-54.859375 22.742187-58.171875 51.914062l55.328125-13.292969 194.117188 46.632813h30.996093c7.921875 0 15.140625-2.984375 20.605469-7.878906v-18.816407c0-32.289062-26.269531-58.558593-58.558594-58.558593zm0 0" fill="#7a8fa4"/><path d="m450.117188 166.898438v58.691406h-388.234376v-58.691406c0-19.089844 15.472657-34.570313 34.574219-34.570313h319.085938c19.101562 0 34.574219 15.480469 34.574219 34.570313zm0 0" fill="#ebebeb"/><path d="m75.234375 41.859375c0 8.269531-6.703125 14.972656-14.972656 14.972656s-14.972657-6.703125-14.972657-14.972656 6.703126-14.976563 14.972657-14.976563 14.972656 6.707032 14.972656 14.976563zm0 0" fill="#76e6d5"/><path d="m75.234375 98.820312c0 8.273438-6.703125 14.976563-14.972656 14.976563s-14.972657-6.703125-14.972657-14.976563c0-8.269531 6.703126-14.972656 14.972657-14.972656s14.972656 6.703125 14.972656 14.972656zm0 0" fill="#fd5f7e"/><path d="m437.667969 140.335938h-178.824219c-32.289062 0-58.558594 26.269531-58.558594 58.558593v26.695313h249.832032v-58.691406c0-10.675782-4.84375-20.21875-12.449219-26.5625zm0 0" fill="#d5d4da"/><path d="m443.160156 171.242188h-184.316406c-15.273438 0-27.652344 12.378906-27.652344 27.652343v261.820313c0 15.273437 12.378906 27.652344 27.652344 27.652344h184.316406c15.273438 0 27.652344-12.382813 27.652344-27.652344v-261.820313c0-15.273437-12.378906-27.652343-27.652344-27.652343zm0 0" fill="#334151"/><path d="m272.394531 212.449219h157.210938v214.109375h-157.210938zm0 0" fill="#a7e0f5"/><path d="m357.398438 191.84375c0 3.535156-2.863282 6.398438-6.398438 6.398438-3.53125 0-6.398438-2.863282-6.398438-6.398438 0-3.53125 2.867188-6.398438 6.398438-6.398438 3.535156 0 6.398438 2.867188 6.398438 6.398438zm0 0" fill="#7a8fa4"/><path d="m361.753906 457.460938c0 5.941406-4.8125 10.753906-10.753906 10.753906-5.9375 0-10.75-4.8125-10.75-10.753906 0-5.9375 4.8125-10.75 10.75-10.75 5.941406 0 10.753906 4.8125 10.753906 10.75zm0 0" fill="#7a8fa4"/><path d="m376.507812 284.878906-15.664062-26.546875c-4.421875-7.496093-15.261719-7.496093-19.683594 0l-15.664062 26.546875c-4.617188 7.828125 1.023437 17.707032 10.113281 17.707032h30.785156c9.085938 0 14.730469-9.878907 10.113281-17.707032zm0 0" fill="#00ccac"/><path d="m376.507812 360.304688-15.664062 26.550781c-4.421875 7.496093-15.261719 7.496093-19.683594 0l-15.664062-26.550781c-4.617188-7.824219 1.023437-17.703126 10.113281-17.703126h30.785156c9.085938 0 14.730469 9.878907 10.113281 17.703126zm0 0" fill="#fd5f7e"/></svg>