<svg height="512pt" viewBox="-54 0 511 512" width="512pt" xmlns="http://www.w3.org/2000/svg"><path d="m336.300781 0h-268.613281c-16.035156 0-29.035156 13-29.035156 29.035156v268.027344h326.683594v-268.027344c0-16.035156-13-29.035156-29.035157-29.035156zm0 0" fill="#f5e277"/><path d="m38.652344 239.886719h326.683594v57.175781h-326.683594zm0 0" fill="#f0bc63"/><path d="m374.238281 270.792969h-344.488281c-16.152344 0-29.25 13.09375-29.25 29.25v182.707031c0 16.152344 13.09375 29.25 29.25 29.25h344.488281c16.15625 0 29.253907-13.09375 29.253907-29.25v-182.707031c0-16.15625-13.097657-29.25-29.253907-29.25zm0 0" fill="#ff889e"/><path d="m31.40625 482.75v-182.707031c0-16.15625 13.09375-29.25 29.25-29.25h-30.90625c-16.152344 0-29.25 13.09375-29.25 29.25v182.707031c0 16.15625 13.09375 29.25 29.25 29.25h30.90625c-16.152344 0-29.25-13.09375-29.25-29.25zm0 0" fill="#fd5f7e"/><path d="m201.996094 229.441406c-50.664063 0-91.882813-41.21875-91.882813-91.882812 0-26.457032 11.417969-51.640625 31.320313-69.097656 6.316406-5.539063 15.925781-4.910157 21.464844 1.40625 5.535156 6.316406 4.90625 15.921874-1.40625 21.460937-13.320313 11.683594-20.960938 28.535156-20.960938 46.230469 0 33.894531 27.570312 61.46875 61.464844 61.46875 33.894531 0 61.464844-27.574219 61.464844-61.46875 0-17.695313-7.636719-34.546875-20.957032-46.230469-6.316406-5.535156-6.945312-15.144531-1.40625-21.460937 5.539063-6.316407 15.148438-6.941407 21.460938-1.40625 19.90625 17.457031 31.320312 42.644531 31.320312 69.097656-.003906 50.664062-41.21875 91.882812-91.882812 91.882812zm0 0" fill="#ff889e"/><path d="m201.996094 116.933594c-8.398438 0-15.207032-6.808594-15.207032-15.210938v-43.652344c0-8.398437 6.808594-15.207031 15.207032-15.207031 8.398437 0 15.207031 6.808594 15.207031 15.207031v43.652344c0 8.402344-6.808594 15.210938-15.207031 15.210938zm0 0" fill="#fd5f7e"/><g fill="#334151"><path d="m109.632812 447.953125c-4.269531 0-7.726562-3.460937-7.726562-7.726563v-16.714843c0-4.269531 3.457031-7.726563 7.726562-7.726563 4.269532 0 7.726563 3.457032 7.726563 7.726563v16.714843c0 4.265626-3.457031 7.726563-7.726563 7.726563zm0 0"/><path d="m294.355469 447.953125c-4.265625 0-7.726563-3.460937-7.726563-7.726563v-16.714843c0-4.269531 3.460938-7.726563 7.726563-7.726563 4.269531 0 7.726562 3.457032 7.726562 7.726563v16.714843c0 4.265626-3.457031 7.726563-7.726562 7.726563zm0 0"/><path d="m201.996094 456.875c-11.117188 0-21.542969-4.640625-28.613282-12.726562-2.808593-3.214844-2.480468-8.09375.734376-10.902344 3.210937-2.808594 8.09375-2.480469 10.898437.730468 4.136719 4.730469 10.324219 7.445313 16.980469 7.445313 6.652344 0 12.84375-2.714844 16.980468-7.445313 2.804688-3.210937 7.6875-3.539062 10.902344-.730468 3.210938 2.808594 3.539063 7.691406.730469 10.902344-7.070313 8.085937-17.5 12.726562-28.613281 12.726562zm0 0"/></g><path d="m240.074219 324.941406h-76.15625c-8.613281 0-12.796875 10.53125-6.535157 16.441406l26.121094 24.65625c10.378906 9.800782 26.601563 9.800782 36.984375 0l26.117188-24.65625c6.265625-5.910156 2.082031-16.441406-6.53125-16.441406zm0 0" fill="#76e6d5"/></svg>