<svg height="512pt" viewBox="-59 0 512 512" width="512pt" xmlns="http://www.w3.org/2000/svg"><path d="m393.96875 403.714844v12.738281c0 52.773437-42.78125 95.546875-95.542969 95.546875h-202.878906c-52.765625 0-95.546875-42.773438-95.546875-95.546875v-12.738281l196.984375-24.109375zm0 0" fill="#a7e0f5"/><path d="m41.207031 416.453125v-12.738281l176.382813-21.585938-20.605469-2.523437-196.984375 24.109375v12.738281c0 52.773437 42.78125 95.546875 95.546875 95.546875h41.207031c-52.765625 0-95.546875-42.773438-95.546875-95.546875zm0 0" fill="#59c2e7"/><path d="m393.96875 95.546875v12.738281l-196.984375 33.300782-196.984375-33.300782v-12.738281c0-52.773437 42.78125-95.546875 95.546875-95.546875h202.878906c52.761719 0 95.542969 42.773438 95.542969 95.546875zm0 0" fill="#a7e0f5"/><path d="m41.207031 108.285156v-12.738281c0-52.773437 42.78125-95.546875 95.546875-95.546875h-41.207031c-52.765625 0-95.546875 42.773438-95.546875 95.546875v12.738281l196.984375 33.300782 20.605469-3.484376zm0 0" fill="#59c2e7"/><path d="m113.753906 65.378906c-4.265625 0-7.722656-3.457031-7.722656-7.726562v-15.0625c0-4.265625 3.457031-7.726563 7.722656-7.726563 4.269532 0 7.726563 3.460938 7.726563 7.726563v15.0625c0 4.269531-3.457031 7.726562-7.726563 7.726562zm0 0" fill="#334151"/><path d="m280.214844 65.378906c-4.265625 0-7.726563-3.457031-7.726563-7.726562v-15.0625c0-4.265625 3.460938-7.726563 7.726563-7.726563s7.726562 3.460938 7.726562 7.726563v15.0625c0 4.269531-3.460937 7.726562-7.726562 7.726562zm0 0" fill="#334151"/><path d="m196.984375 73.421875c-10.234375 0-19.84375-4.277344-26.359375-11.730469-2.808594-3.214844-2.480469-8.09375.734375-10.902344 3.210937-2.808593 8.09375-2.480468 10.902344.730469 3.578125 4.097657 8.945312 6.449219 14.722656 6.449219s11.144531-2.351562 14.726563-6.449219c2.808593-3.214843 7.6875-3.539062 10.902343-.730469 3.210938 2.808594 3.539063 7.6875.730469 10.902344-6.515625 7.453125-16.121094 11.730469-26.359375 11.730469zm0 0" fill="#334151"/><path d="m0 108.285156h393.96875v295.429688h-393.96875zm0 0" fill="#a6b6c4"/><path d="m0 108.285156h41.207031v295.429688h-41.207031zm0 0" fill="#7a8fa4"/><g fill="#ebebeb"><path d="m151.578125 180.289062-3.511719 2.183594c-1.089844.726563-2.179687.96875-3.027344.96875-3.515624 0-5.9375-3.757812-5.9375-7.511718 0-2.542969 1.089844-4.96875 3.511719-6.421876l15.992188-9.691406c.96875-.605468 2.183593-.847656 3.515625-.847656 3.875 0 8.355468 2.300781 8.355468 5.9375v77.050781c0 3.875-4.722656 5.8125-9.449218 5.8125-4.722656 0-9.449219-1.9375-9.449219-5.8125zm0 0"/><path d="m226.640625 159.210938c14.054687 0 28.226563 8.84375 28.226563 25.078124 0 26.289063-37.433594 34.890626-37.433594 45.914063v1.089844h31.742187c3.027344 0 5.695313 3.757812 5.695313 8.117187 0 4.363282-2.667969 8.359375-5.695313 8.359375h-43.128906c-3.394531 0-8.238281-2.300781-8.238281-5.816406v-11.75c0-19.019531 38.160156-29.925781 38.160156-45.308594 0-3.878906-2.421875-8.605469-9.207031-8.605469-4.84375 0-9.085938 2.425782-9.085938 9.089844 0 3.511719-3.753906 6.90625-9.933593 6.90625-4.84375 0-8.480469-2.183594-8.480469-9.816406 0-14.777344 13.566406-23.257812 27.378906-23.257812zm0 0"/><path d="m132.773438 324.441406v-32.105468c0-20.835938 12.960937-28.589844 29.679687-28.589844s29.804687 7.753906 29.804687 28.589844v32.105468c0 20.839844-13.085937 28.589844-29.804687 28.589844s-29.679687-7.75-29.679687-28.589844zm40.585937-32.105468c0-8.355469-4.121094-12.113282-10.90625-12.113282s-10.78125 3.753906-10.78125 12.113282v32.105468c0 8.359375 3.996094 12.117188 10.78125 12.117188s10.90625-3.753906 10.90625-12.117188zm0 0"/><path d="m201.710938 324.441406v-32.105468c0-20.835938 12.964843-28.589844 29.683593-28.589844s29.804688 7.753906 29.804688 28.589844v32.105468c0 20.839844-13.085938 28.589844-29.804688 28.589844s-29.683593-7.75-29.683593-28.589844zm40.585937-32.105468c0-8.355469-4.117187-12.113282-10.902344-12.113282-6.785156 0-10.78125 3.753906-10.78125 12.113282v32.105468c0 8.359375 3.996094 12.117188 10.78125 12.117188 6.785157 0 10.902344-3.753906 10.902344-12.117188zm0 0"/></g></svg>