<svg height="512pt" viewBox="0 -33 512 512" width="512pt" xmlns="http://www.w3.org/2000/svg"><path d="m110.9375 0h-33.238281c-10.136719 0-18.351563 8.214844-18.351563 18.347656v37.1875h69.941406v-37.1875c0-10.132812-8.21875-18.347656-18.351562-18.347656zm0 0" fill="#334151"/><path d="m401.0625 0h33.238281c10.136719 0 18.351563 8.214844 18.351563 18.347656v37.1875h-69.941406v-37.1875c0-10.132812 8.21875-18.347656 18.351562-18.347656zm0 0" fill="#334151"/><path d="m129.289062 34.933594 21.976563 205.921875-21.976563 205.921875h-69.941406c-32.777344 0-59.347656-26.566406-59.347656-59.347656v-293.148438c0-32.769531 26.570312-59.347656 59.347656-59.347656zm0 0" fill="#59c2e7"/><path d="m512 94.28125v293.148438c0 32.78125-26.570312 59.347656-59.347656 59.347656h-69.941406l-19.230469-205.921875 19.230469-205.921875h69.941406c32.777344 0 59.347656 26.578125 59.347656 59.347656zm0 0" fill="#ff889e"/><path d="m129.289062 34.933594h253.421876v411.84375h-253.421876zm0 0" fill="#334151"/><path d="m170.496094 76.140625h171.007812v329.429687h-171.007812zm0 0" fill="#a6b6c4"/><path d="m170.496094 76.140625h171.007812v30.90625h-171.007812zm0 0" fill="#7a8fa4"/><g fill="#334151"><path d="m205.328125 240.625c-4.269531 0-7.726563-3.460938-7.726563-7.726562v-9.171876c0-4.265624 3.457032-7.726562 7.726563-7.726562 4.265625 0 7.726563 3.460938 7.726563 7.726562v9.171876c0 4.265624-3.460938 7.726562-7.726563 7.726562zm0 0"/><path d="m306.671875 240.625c-4.265625 0-7.726563-3.460938-7.726563-7.726562v-9.171876c0-4.265624 3.460938-7.726562 7.726563-7.726562 4.269531 0 7.726563 3.460938 7.726563 7.726562v9.171876c0 4.265624-3.457032 7.726562-7.726563 7.726562zm0 0"/><path d="m256 245.519531c-7.105469 0-13.78125-2.980469-18.324219-8.175781-2.808593-3.210938-2.480469-8.09375.734375-10.902344 3.210938-2.804687 8.09375-2.480468 10.902344.734375 1.605469 1.835938 4.042969 2.890625 6.6875 2.890625s5.082031-1.054687 6.6875-2.890625c2.8125-3.214843 7.691406-3.542969 10.902344-.734375 3.214844 2.808594 3.542968 7.691406.734375 10.902344-4.542969 5.195312-11.21875 8.175781-18.324219 8.175781zm0 0"/><path d="m97.8125 224.457031h-13.222656c-2.824219 0-5.117188-2.292969-5.117188-5.117187v-13.222656c0-2.828126-2.289062-5.121094-5.117187-5.121094h-19.421875c-2.828125 0-5.117188 2.292968-5.117188 5.121094v13.222656c0 2.824218-2.292968 5.117187-5.117187 5.117187h-13.226563c-2.824218 0-5.117187 2.289063-5.117187 5.117188v19.421875c0 2.828125 2.292969 5.117187 5.117187 5.117187h13.222656c2.828126 0 5.117188 2.292969 5.117188 5.117188v13.222656c0 2.828125 2.292969 5.117187 5.121094 5.117187h19.417968c2.828126 0 5.121094-2.289062 5.121094-5.117187v-13.222656c0-2.824219 2.289063-5.117188 5.117188-5.117188h13.222656c2.824219 0 5.117188-2.289062 5.117188-5.117187v-19.421875c.003906-2.828125-2.289063-5.117188-5.117188-5.117188zm0 0"/><path d="m461.632812 208.136719c0 7.917969-6.417968 14.332031-14.335937 14.332031-7.914063 0-14.332031-6.414062-14.332031-14.332031s6.417968-14.332031 14.332031-14.332031c7.917969 0 14.335937 6.414062 14.335937 14.332031zm0 0"/><path d="m430.027344 238.828125c0 7.917969-6.417969 14.335937-14.335938 14.335937-7.914062 0-14.332031-6.417968-14.332031-14.335937 0-7.914063 6.417969-14.332031 14.332031-14.332031 7.917969 0 14.335938 6.417968 14.335938 14.332031zm0 0"/><path d="m460.71875 270.433594c0 7.917968-6.417969 14.335937-14.335938 14.335937-7.914062 0-14.332031-6.417969-14.332031-14.335937 0-7.917969 6.417969-14.332032 14.332031-14.332032 7.917969 0 14.335938 6.414063 14.335938 14.332032zm0 0"/><path d="m492.324219 239.742188c0 7.914062-6.417969 14.332031-14.335938 14.332031-7.914062 0-14.332031-6.417969-14.332031-14.332031 0-7.917969 6.417969-14.335938 14.332031-14.335938 7.917969 0 14.335938 6.417969 14.335938 14.335938zm0 0"/><path d="m79.066406 103.53125h-28.84375c-8.425781 0-15.253906 6.832031-15.253906 15.253906 0 8.425782 6.828125 15.253906 15.253906 15.253906h28.84375c8.421875 0 15.253906-6.828124 15.253906-15.253906 0-8.421875-6.832031-15.253906-15.253906-15.253906zm0 0"/><path d="m432.933594 103.53125h28.84375c8.425781 0 15.253906 6.832031 15.253906 15.253906 0 8.425782-6.828125 15.253906-15.253906 15.253906h-28.84375c-8.421875 0-15.25-6.828124-15.25-15.253906 0-8.421875 6.828125-15.253906 15.25-15.253906zm0 0"/></g></svg>