<svg height="512pt" viewBox="0 -2 512 512" width="512pt" xmlns="http://www.w3.org/2000/svg"><path d="m491.378906 245.6875c0 135.691406-110 245.691406-245.691406 245.691406-135.6875 0-245.6875-110-245.6875-245.691406 0-135.6875 110-245.6875 245.6875-245.6875 135.691406 0 245.691406 110 245.691406 245.6875zm0 0" fill="#ebebeb"/><path d="m245.6875 448.324219c-111.730469 0-202.632812-90.902344-202.632812-202.636719s90.898437-202.632812 202.632812-202.632812 202.636719 90.902343 202.636719 202.632812c0 111.734375-90.902344 202.636719-202.636719 202.636719zm0 0" fill="#59c2e7"/><path d="m266.292969 427.722656c-111.734375 0-202.636719-90.902344-202.636719-202.636718 0-50.636719 18.667969-96.992188 49.484375-132.550782-42.90625 37.183594-70.085937 92.054688-70.085937 153.152344 0 111.734375 90.898437 202.636719 202.632812 202.636719 61.101562 0 115.96875-27.179688 153.152344-70.085938-35.554688 30.8125-81.914063 49.484375-132.546875 49.484375zm0 0" fill="#00a2d7"/><g fill="#ebebeb"><path d="m203.835938 224.980469c-.726563-.265625-1.441407-.535157-2.152344-.808594-60.273438-23.175781-55.84375-109.671875 6.566406-126.253906 29.605469-7.863281 62.378906-5.941407 91.074219 5.695312 32.796875 13.300781 32.511719 62.226563-.730469 74.8125-16.207031 6.132813-35.777344 18.46875-45.132812 43.148438zm0 0"/><path d="m286.347656 222.726562c.632813-.449218 1.257813-.886718 1.882813-1.320312 53.058593-36.804688 122.089843 15.507812 100.699219 76.433594-10.265626 29.238281-30.152344 54.910156-55.929688 72.101562-29.445312 19.636719-69.738281-8.113281-61.449219-42.675781 4.042969-16.855469 4.851563-39.972656-10.296875-61.589844zm0 0"/><path d="m249.570312 292.222656c.144532.761719.28125 1.515625.414063 2.261719 11.28125 63.582031-65.082031 104.453125-111.507813 59.570313-22.277343-21.539063-37.296874-50.328126-42.152343-80.933594-5.542969-34.957032 36.5-59.972656 64.445312-38.007813 13.621094 10.714844 34.292969 21.105469 60.257813 16.367188zm0 0"/></g><path d="m249.570312 292.222656-28.546874-40.738281c-24.410157 4.453125-44.136719-4.464844-57.734376-14.449219-.296874 2.84375-.453124 5.730469-.453124 8.652344 0 45.6875 37.167968 82.855469 82.851562 82.855469.605469 0 1.199219-.035157 1.800781-.046875 3.558594-10.175782 4.6875-21.660156 2.496094-34.011719-.132813-.75-.273437-1.5-.414063-2.261719zm0 0" fill="#d5d4da"/><path d="m328.542969 245.6875c0-12.980469-3.011719-25.269531-8.355469-36.21875-10.734375 1.011719-21.648438 4.785156-31.957031 11.9375-.625.433594-1.253907.871094-1.882813 1.320312l-25.09375 42.949219c14.234375 20.3125 14.378906 41.953125 10.988282 58.476563 32.695312-11.097656 56.300781-42.066406 56.300781-78.464844zm0 0" fill="#d5d4da"/><path d="m245.6875 162.835938c-30.6875 0-57.511719 16.785156-71.828125 41.644531 6.871094 8.296875 16.125 15.191406 27.824219 19.691406.710937.273437 1.429687.542969 2.152344.808594l49.628906-3.40625c8.785156-23.179688 26.582031-35.46875 42.140625-41.960938-13.890625-10.519531-31.183594-16.777343-49.917969-16.777343zm0 0" fill="#d5d4da"/><path d="m245.6875 297.636719c-28.644531 0-51.945312-23.304688-51.945312-51.949219 0-28.640625 23.304687-51.945312 51.945312-51.945312 28.644531 0 51.949219 23.304687 51.949219 51.945312 0 28.644531-23.304688 51.949219-51.949219 51.949219zm0 0" fill="#ebebeb"/><path d="m429.25 271.640625c-45.699219 0-82.746094 37.046875-82.746094 82.746094v71.625c0 45.699219 37.046875 82.75 82.746094 82.75 45.703125 0 82.75-37.050781 82.75-82.75v-71.625c0-45.699219-37.046875-82.746094-82.75-82.746094zm0 0" fill="#a6b6c4"/><path d="m377.410156 426.011719v-71.625c0-40.414063 28.984375-74.042969 67.292969-81.285157-5.007813-.945312-10.167969-1.460937-15.453125-1.460937-45.699219 0-82.746094 37.046875-82.746094 82.746094v71.625c0 45.703125 37.046875 82.75 82.746094 82.75 5.285156 0 10.445312-.515625 15.453125-1.464844-38.3125-7.238281-67.292969-40.867187-67.292969-81.285156zm0 0" fill="#7a8fa4"/><path d="m457.25 349.398438-17.195312-29.144532c-4.851563-8.226562-16.753907-8.226562-21.609376 0l-17.191406 29.144532c-5.070312 8.59375 1.125 19.4375 11.101563 19.4375h33.792969c9.976562 0 16.171874-10.84375 11.101562-19.4375zm0 0" fill="#76e6d5"/><path d="m457.25 431-17.195312 29.148438c-4.851563 8.226562-16.753907 8.226562-21.609376 0l-17.191406-29.148438c-5.070312-8.589844 1.125-19.433594 11.101563-19.433594h33.792969c9.976562 0 16.171874 10.84375 11.101562 19.433594zm0 0" fill="#fd5f7e"/></svg>