<svg height="512pt" viewBox="0 0 512 512" width="512pt" xmlns="http://www.w3.org/2000/svg"><path d="m461.613281 0h-411.226562c-27.828125 0-50.386719 22.558594-50.386719 50.386719v411.226562c0 27.828125 22.558594 50.386719 50.386719 50.386719h411.226562c27.828125 0 50.386719-22.558594 50.386719-50.386719v-411.226562c0-27.828125-22.558594-50.386719-50.386719-50.386719zm0 0" fill="#4677d4"/><path d="m383.027344 46.796875c0-8.097656-7.738282-13.953125-15.535156-11.753906l-207.546876 31.652343c-8.828124 2.496094-14.929687 10.554688-14.929687 19.730469v197c-6.304687-2.96875-13.34375-4.636719-20.773437-4.636719-26.972657 0-48.839844 21.863282-48.839844 48.835938 0 26.976562 21.867187 48.839844 48.839844 48.839844 26.671874 0 48.332031-21.382813 48.816406-47.941406h.019531v-181.382813l181.886719-24.40625v139.703125c-6.304688-2.96875-13.34375-4.636719-20.777344-4.636719-26.972656 0-48.839844 21.867188-48.839844 48.839844s21.867188 48.839844 48.839844 48.839844c26.671875 0 48.335938-21.382813 48.816406-47.941407h.023438zm0 0" fill="#76e6d5"/><g fill="#334151"><path d="m211.601562 113.042969c-3.84375 0-7.175781-2.867188-7.660156-6.78125l-1.140625-9.257813c-.519531-4.234375 2.492188-8.089844 6.726563-8.613281 4.230468-.519531 8.089844 2.488281 8.613281 6.726563l1.140625 9.253906c.519531 4.238281-2.488281 8.09375-6.726562 8.613281-.320313.039063-.636719.058594-.953126.058594zm0 0"/><path d="m313.902344 100.441406c-3.84375 0-7.175782-2.871094-7.660156-6.785156l-1.136719-9.253906c-.523438-4.238282 2.484375-8.09375 6.722656-8.613282 4.207031-.523437 8.089844 2.484376 8.609375 6.722657l1.140625 9.253906c.523437 4.238281-2.488281 8.09375-6.722656 8.613281-.316407.042969-.636719.0625-.953125.0625zm0 0"/><path d="m261.195312 111.816406c-6.042968 0-11.847656-2.160156-16.289062-6.132812-3.179688-2.84375-3.453125-7.730469-.605469-10.910156 2.84375-3.179688 7.726563-3.449219 10.910157-.605469 1.878906 1.683593 4.507812 2.453125 7.214843 2.121093 2.707031-.332031 5.070313-1.722656 6.488281-3.808593 2.394532-3.53125 7.195313-4.453125 10.730469-2.058594 3.53125 2.394531 4.453125 7.199219 2.058594 10.730469-3.917969 5.777344-10.253906 9.59375-17.386719 10.472656-1.042968.128906-2.085937.191406-3.121094.191406zm0 0"/></g><path d="m452.148438 421.238281h-392.296876c-10.585937 0-19.164062 8.578125-19.164062 19.164063 0 10.585937 8.578125 19.164062 19.164062 19.164062h392.296876c10.585937 0 19.164062-8.578125 19.164062-19.164062 0-10.585938-8.578125-19.164063-19.164062-19.164063zm0 0" fill="#76e6d5"/><path d="m68.851562 440.402344c0 6.683594 1.066407 13.121094 3.015626 19.164062h118.960937c1.953125-6.042968 3.019531-12.480468 3.019531-19.164062s-1.066406-13.121094-3.019531-19.164063h-118.960937c-1.949219 6.042969-3.015626 12.480469-3.015626 19.164063zm0 0" fill="#00ccac"/><path d="m162.941406 440.402344c0 17.449218-14.144531 31.59375-31.59375 31.59375-17.449218 0-31.59375-14.144532-31.59375-31.59375 0-17.449219 14.144532-31.59375 31.59375-31.59375 17.449219 0 31.59375 14.144531 31.59375 31.59375zm0 0" fill="#ebebeb"/><path d="m85.371094 229.792969-26.546875-15.664063c-7.496094-4.421875-7.496094-15.265625 0-19.683594l26.546875-15.664062c7.828125-4.617188 17.707031 1.023438 17.707031 10.113281v30.785157c0 9.085937-9.878906 14.730468-17.707031 10.113281zm0 0" fill="#00ccac"/><path d="m436.929688 229.792969 26.550781-15.664063c7.492187-4.421875 7.492187-15.265625 0-19.683594l-26.550781-15.664062c-7.828126-4.617188-17.707032 1.023438-17.707032 10.113281v30.785157c0 9.085937 9.878906 14.730468 17.707032 10.113281zm0 0" fill="#00ccac"/></svg>