<svg height="512pt" viewBox="-53 0 512 512" width="512pt" xmlns="http://www.w3.org/2000/svg"><path d="m364.617188 0h-323.492188c-22.710938 0-41.125 18.414062-41.125 41.125v429.75c0 22.710938 18.414062 41.125 41.125 41.125h323.496094c22.710937 0 41.125-18.414062 41.125-41.125v-429.75c0-22.710938-18.414063-41.125-41.128906-41.125zm0 0" fill="#334151"/><path d="m46.359375 46.359375h313.027344v388.378906h-313.027344zm0 0" fill="#59c2e7"/><path d="m268.914062 209.640625c0 36.472656-29.570312 66.039063-66.042968 66.039063s-66.039063-29.566407-66.039063-66.039063 29.566407-66.039063 66.039063-66.039063 66.042968 29.566407 66.042968 66.039063zm0 0" fill="#f5e277"/><path d="m215.234375 263.320312c-36.472656 0-66.039063-29.566406-66.039063-66.039062 0-15.085938 5.066407-28.980469 13.578126-40.097656-15.765626 12.066406-25.941407 31.070312-25.941407 52.457031 0 36.472656 29.566407 66.039063 66.039063 66.039063 21.390625 0 40.394531-10.175782 52.460937-25.941407-11.117187 8.511719-25.011719 13.582031-40.097656 13.582031zm0 0" fill="#f8d070"/><g fill="#334151"><path d="m164.90625 218.367188c-4.269531 0-7.726562-3.460938-7.726562-7.726563v-6.871094c0-4.269531 3.457031-7.726562 7.726562-7.726562s7.726562 3.457031 7.726562 7.726562v6.871094c0 4.265625-3.457031 7.726563-7.726562 7.726563zm0 0"/><path d="m240.839844 218.367188c-4.269532 0-7.726563-3.460938-7.726563-7.726563v-6.871094c0-4.269531 3.457031-7.726562 7.726563-7.726562 4.265625 0 7.726562 3.457031 7.726562 7.726562v6.871094c0 4.265625-3.460937 7.726563-7.726562 7.726563zm0 0"/><path d="m202.871094 222.03125c-5.878906 0-11.414063-2.472656-15.183594-6.785156-2.8125-3.210938-2.484375-8.09375.730469-10.902344 3.210937-2.808594 8.09375-2.480469 10.902343.730469.835938.957031 2.128907 1.507812 3.550782 1.507812 1.425781 0 2.71875-.550781 3.554687-1.507812 2.808594-3.210938 7.6875-3.539063 10.902344-.730469s3.542969 7.6875.730469 10.902344c-3.769532 4.3125-9.304688 6.785156-15.1875 6.785156zm0 0"/></g><path d="m209.90625 23.179688c0 3.882812-3.148438 7.03125-7.035156 7.03125-3.882813 0-7.03125-3.148438-7.03125-7.03125 0-3.882813 3.148437-7.03125 7.03125-7.03125 3.886718 0 7.035156 3.148437 7.035156 7.03125zm0 0" fill="#a6b6c4"/><path d="m218.152344 473.367188c0 8.441406-6.839844 15.28125-15.28125 15.28125-8.4375 0-15.277344-6.839844-15.277344-15.28125 0-8.4375 6.839844-15.277344 15.277344-15.277344 8.441406 0 15.28125 6.839844 15.28125 15.277344zm0 0" fill="#a6b6c4"/><path d="m202.871094 120.828125c-7.542969 0-13.660156-6.117187-13.660156-13.660156v-13.65625c0-7.546875 6.117187-13.664063 13.660156-13.664063 7.546875 0 13.664062 6.117188 13.664062 13.664063v13.65625c0 7.542969-6.117187 13.660156-13.664062 13.660156zm0 0" fill="#f0bc63"/><path d="m265.671875 146.84375c-5.335937-5.335938-5.335937-13.988281 0-19.324219l9.65625-9.65625c5.335937-5.335937 13.988281-5.335937 19.324219 0 5.335937 5.335938 5.335937 13.984375 0 19.320313l-9.65625 9.660156c-5.335938 5.335938-13.988282 5.335938-19.324219 0zm0 0" fill="#f5e277"/><path d="m291.683594 209.640625c0-7.542969 6.117187-13.660156 13.664062-13.660156h13.65625c7.546875 0 13.664063 6.117187 13.664063 13.660156 0 7.546875-6.117188 13.664063-13.664063 13.664063h-13.65625c-7.546875 0-13.664062-6.117188-13.664062-13.664063zm0 0" fill="#f0bc63"/><path d="m265.671875 272.441406c5.335937-5.335937 13.988281-5.335937 19.324219 0l9.65625 9.65625c5.335937 5.335938 5.335937 13.988282 0 19.324219-5.335938 5.335937-13.988282 5.335937-19.324219 0l-9.65625-9.65625c-5.335937-5.335937-5.335937-13.988281 0-19.324219zm0 0" fill="#f5e277"/><path d="m202.871094 298.453125c7.546875 0 13.664062 6.117187 13.664062 13.664063v13.65625c0 7.546874-6.117187 13.664062-13.664062 13.664062-7.542969 0-13.660156-6.117188-13.660156-13.664062v-13.65625c0-7.546876 6.117187-13.664063 13.660156-13.664063zm0 0" fill="#f0bc63"/><path d="m140.074219 272.441406c5.332031 5.335938 5.332031 13.988282 0 19.324219l-9.660157 9.65625c-5.332031 5.335937-13.984374 5.335937-19.320312 0s-5.335938-13.988281 0-19.324219l9.65625-9.65625c5.335938-5.335937 13.988281-5.335937 19.324219 0zm0 0" fill="#f5e277"/><path d="m114.0625 209.640625c0 7.546875-6.117188 13.664063-13.664062 13.664063h-13.65625c-7.546876 0-13.664063-6.117188-13.664063-13.664063 0-7.542969 6.117187-13.660156 13.664063-13.660156h13.65625c7.546874 0 13.664062 6.117187 13.664062 13.660156zm0 0" fill="#f0bc63"/><path d="m140.074219 146.84375c-5.335938 5.332031-13.988281 5.332031-19.324219 0l-9.65625-9.660156c-5.335938-5.332032-5.335938-13.984375 0-19.320313 5.335938-5.335937 13.984375-5.335937 19.320312 0l9.660157 9.65625c5.335937 5.335938 5.335937 13.988281 0 19.324219zm0 0" fill="#f5e277"/><path d="m310.234375 367.578125h-214.722656c-8.925781 0-16.15625 7.234375-16.15625 16.15625s7.230469 16.15625 16.15625 16.15625h214.722656c8.925781 0 16.15625-7.234375 16.15625-16.15625s-7.230469-16.15625-16.15625-16.15625zm0 0" fill="#f5e277"/><path d="m201.140625 383.734375c0 5.644531.925781 11.070313 2.609375 16.15625h97.832031c1.683594-5.085937 2.609375-10.511719 2.609375-16.15625s-.925781-11.070313-2.609375-16.15625h-97.832031c-1.683594 5.085937-2.609375 10.511719-2.609375 16.15625zm0 0" fill="#f0bc63"/><path d="m278.433594 383.734375c0 14.234375-11.535156 25.769531-25.769532 25.769531-14.234374 0-25.769531-11.535156-25.769531-25.769531s11.535157-25.769531 25.769531-25.769531c14.234376 0 25.769532 11.535156 25.769532 25.769531zm0 0" fill="#ebebeb"/></svg>