<svg height="512pt" viewBox="0 -55 512.00043 512" width="512pt" xmlns="http://www.w3.org/2000/svg"><path d="m169.371094 377.765625c-51.101563-29.820313-85.425782-85.242187-85.425782-148.675781v-73.921875h344.109376v73.921875c0 47.519531-19.261719 90.535156-50.398438 121.660156-10.4375 10.4375-22.199219 19.539062-35.027344 27.015625zm0 0" fill="#a6b6c4"/><path d="m125.152344 229.089844v-73.921875h-41.207032v73.921875c0 45.59375 17.730469 87.046875 46.679688 117.828125 11.125 11.832031 24.46875 22.515625 38.746094 30.847656h41.207031c-51.101563-29.820313-85.425781-85.242187-85.425781-148.675781zm0 0" fill="#7a8fa4"/><path d="m342.628906 311.371094v66.394531c-25.441406 14.871094-55.046875 23.382813-86.628906 23.382813s-61.1875-8.511719-86.628906-23.382813v-66.394531c0-47.839844 38.777344-86.628906 86.628906-86.628906s86.628906 38.789062 86.628906 86.628906zm0 0" fill="#7292df"/><path d="m306.015625 311.371094c0 27.578125-22.433594 50.015625-50.015625 50.015625-27.578125 0-50.015625-22.4375-50.015625-50.015625 0-27.582032 22.4375-50.019532 50.015625-50.019532 27.582031 0 50.015625 22.4375 50.015625 50.019532zm0 0" fill="#ebebeb"/><path d="m275.070312 311.371094c0 10.53125-8.539062 19.070312-19.070312 19.070312s-19.070312-8.539062-19.070312-19.070312c0-10.535156 8.539062-19.074219 19.070312-19.074219s19.070312 8.539063 19.070312 19.074219zm0 0" fill="#fd5f7e"/><path d="m489.746094 0h-467.492188c-13.304687 0-23.628906 11.59375-22.105468 24.808594 1.242187 10.75 3.515624 24.285156 7.65625 39.152344l248.195312 55.957031 248.195312-55.957031c4.144532-14.871094 6.414063-28.402344 7.65625-39.152344 1.523438-13.214844-8.800781-24.808594-22.105468-24.808594zm0 0" fill="#ebebeb"/><path d="m49.011719 63.960938c-4.140625-14.871094-6.414063-28.402344-7.65625-39.152344-1.523438-13.214844 8.800781-24.808594 22.105469-24.808594h-41.207032c-13.304687 0-23.628906 11.589844-22.105468 24.808594 1.242187 10.75 3.515624 24.285156 7.65625 39.152344l248.195312 55.957031 20.605469-4.644531zm0 0" fill="#d5d4da"/><path d="m504.195312 63.960938c-10.117187 36.378906-31.417968 80.746093-76.140624 111.914062h-344.109376c-44.722656-31.167969-66.023437-75.539062-76.140624-111.914062zm0 0" fill="#7292df"/><path d="m49.011719 63.960938h-41.207031c10.117187 36.378906 31.417968 80.746093 76.140624 111.914062h41.207032c-44.722656-31.167969-66.023438-75.535156-76.140625-111.914062zm0 0" fill="#4677d4"/><g fill="#334151"><path d="m154.550781 124.570312c-4.269531 0-7.726562-3.460937-7.726562-7.726562v-18.363281c0-4.265625 3.457031-7.726563 7.726562-7.726563 4.265625 0 7.726563 3.460938 7.726563 7.726563v18.363281c0 4.265625-3.460938 7.726562-7.726563 7.726562zm0 0"/><path d="m357.449219 124.570312c-4.265625 0-7.726563-3.460937-7.726563-7.726562v-18.363281c0-4.265625 3.460938-7.726563 7.726563-7.726563 4.269531 0 7.726562 3.460938 7.726562 7.726563v18.363281c0 4.265625-3.457031 7.726562-7.726562 7.726562zm0 0"/><path d="m256 134.367188c-11.988281 0-23.234375-5-30.855469-13.71875-2.808593-3.210938-2.480469-8.09375.730469-10.902344 3.214844-2.808594 8.09375-2.480469 10.902344.734375 4.6875 5.359375 11.691406 8.433593 19.222656 8.433593s14.535156-3.074218 19.222656-8.433593c2.808594-3.214844 7.6875-3.542969 10.902344-.734375s3.539062 7.691406.730469 10.902344c-7.621094 8.71875-18.867188 13.71875-30.855469 13.71875zm0 0"/></g><path d="m261.433594 401.0625c5.070312-.15625 10.132812-.5625 15.171875-1.160156-23.84375-2.847656-46.203125-10.550782-66.027344-22.136719-15.429687-9.007813-29.316406-20.359375-41.207031-33.546875v33.546875c1.589844.929687 3.199218 1.832031 4.820312 2.710937 24.332032 13.1875 52.199219 20.671876 81.808594 20.671876 1.8125 0 3.625-.027344 5.433594-.085938zm0 0" fill="#4677d4"/></svg>