<svg height="512pt" viewBox="0 -12 512 511" width="512pt" xmlns="http://www.w3.org/2000/svg"><path d="m208.992188 359.605469h94.015624v101.238281h-94.015624zm0 0" fill="#334151"/><path d="m318.839844 433.375h-125.679688c-15.171875 0-27.472656 12.300781-27.472656 27.472656s12.300781 27.472656 27.472656 27.472656h125.679688c15.171875 0 27.472656-12.300781 27.472656-27.472656s-12.300781-27.472656-27.472656-27.472656zm0 0" fill="#293441"/><path d="m208.992188 359.605469h94.015624v48.992187h-94.015624zm0 0" fill="#293441"/><path d="m481.394531.5h-450.789062c-16.902344 0-30.605469 13.703125-30.605469 30.605469v321.132812c0 16.902344 13.703125 30.605469 30.605469 30.605469h450.789062c16.902344 0 30.605469-13.703125 30.605469-30.605469v-321.132812c0-16.902344-13.703125-30.605469-30.605469-30.605469zm0 0" fill="#334151"/><path d="m51.507812 52.007812h408.984376v279.324219h-408.984376zm0 0" fill="#76e6d5"/><path d="m51.507812 52.007812h408.984376v30.90625h-408.984376zm0 0" fill="#00ccac"/><path d="m337.757812 98.613281h-163.515624c-14.773438 0-26.753907 11.976563-26.753907 26.753907v132.605468c0 14.777344 11.976563 26.757813 26.753907 26.757813h163.511718c14.777344 0 26.757813-11.976563 26.757813-26.757813v-132.605468c0-14.777344-11.980469-26.753907-26.753907-26.753907zm0 0" fill="#fd5f7e"/><path d="m255.65625 229.210938 39.078125-23.054688c11.03125-6.503906 11.03125-22.464844 0-28.972656l-39.078125-23.054688c-11.519531-6.796875-26.0625 1.507813-26.0625 14.882813v45.316406c0 13.375 14.542969 21.679687 26.0625 14.882813zm0 0" fill="#ebebeb"/><path d="m265.796875 357.089844c0 5.410156-4.386719 9.796875-9.796875 9.796875s-9.796875-4.386719-9.796875-9.796875c0-5.414063 4.386719-9.800782 9.796875-9.800782s9.796875 4.386719 9.796875 9.800782zm0 0" fill="#76e6d5"/></svg>