<svg height="512pt" viewBox="0 -4 512 512" width="512pt" xmlns="http://www.w3.org/2000/svg"><path d="m350.570312 257.714844-94.570312 18.417968-36.054688-98.53125 36.054688-98.53125 121.910156 14.875zm0 0" fill="#ebebeb"/><path d="m134.089844 93.945312 121.910156-14.875v197.0625l-94.570312-18.417968zm0 0" fill="#d5d4da"/><path d="m171.523438 241.621094s-3.890626 6.234375-10.09375 16.09375l-82.621094-16.09375-78.808594-131.304688 134.089844-16.371094 10.136718 16.371094zm0 0" fill="#ebebeb"/><path d="m120.015625 241.621094-78.808594-131.304688 95.777344-11.691406-2.894531-4.679688-134.089844 16.371094 78.808594 131.304688 82.621094 16.09375c1.679687-2.671875 3.183593-5.0625 4.492187-7.152344zm0 0" fill="#d5d4da"/><path d="m512 110.316406-78.808594 131.304688-82.621094 16.09375c-6.203124-9.859375-10.09375-16.09375-10.09375-16.09375l27.296876-131.304688 10.136718-16.371094zm0 0" fill="#d5d4da"/><path d="m476.167969 0h-440.335938c-19.789062 0-35.832031 16.042969-35.832031 35.832031v74.488281h512v-74.488281c0-19.789062-16.042969-35.832031-35.832031-35.832031zm0 0" fill="#a6b6c4"/><path d="m77.039062 0h-41.207031c-19.789062 0-35.832031 16.042969-35.832031 35.832031v74.488281h41.207031v-74.488281c0-19.789062 16.042969-35.832031 35.832031-35.832031zm0 0" fill="#7a8fa4"/><g fill="#334151"><path d="m159.679688 52.527344c-4.269532 0-7.726563-3.457032-7.726563-7.726563v-17.433593c0-4.265626 3.457031-7.726563 7.726563-7.726563 4.265624 0 7.726562 3.460937 7.726562 7.726563v17.433593c0 4.269531-3.460938 7.726563-7.726562 7.726563zm0 0"/><path d="m352.320312 52.527344c-4.265624 0-7.726562-3.457032-7.726562-7.726563v-17.433593c0-4.265626 3.460938-7.726563 7.726562-7.726563 4.269532 0 7.726563 3.460937 7.726563 7.726563v17.433593c0 4.269531-3.457031 7.726563-7.726563 7.726563zm0 0"/><path d="m256 61.832031c-11.496094 0-22.28125-4.796875-29.589844-13.160156-2.808594-3.210937-2.480468-8.09375.730469-10.902344 3.214844-2.808593 8.09375-2.480469 10.902344.734375 4.378906 5.003906 10.921875 7.875 17.957031 7.875s13.582031-2.871094 17.957031-7.875c2.808594-3.214844 7.6875-3.542968 10.902344-.734375 3.210937 2.808594 3.539063 7.691407.730469 10.902344-7.308594 8.363281-18.09375 13.160156-29.589844 13.160156zm0 0"/></g><path d="m287.25 110.320312c0 17.257813-13.992188 31.25-31.25 31.25s-31.25-13.992187-31.25-31.25c0-17.257812 13.992188-31.25 31.25-31.25s31.25 13.992188 31.25 31.25zm0 0" fill="#fd5f7e"/><path d="m78.808594 241.621094v36.53125c0 17.945312 14.546875 32.492187 32.492187 32.492187h289.398438c17.945312 0 32.492187-14.546875 32.492187-32.492187v-36.53125zm0 0" fill="#ff889e"/><path d="m120.015625 278.152344v-36.53125h-41.207031v36.53125c0 17.945312 14.546875 32.492187 32.492187 32.492187h41.207031c-17.945312 0-32.492187-14.546875-32.492187-32.492187zm0 0" fill="#fd5f7e"/><path d="m278.988281 411.203125c-4.566406-1.113281-7.761719-5.21875-7.675781-9.917969.007812-.359375.011719-.71875.011719-1.078125 0-33.738281-27.988281-60.933593-62.011719-59.640625-30.9375 1.171875-56.140625 26.378906-57.316406 57.3125-1.292969 34.023438 25.90625 62.011719 59.640625 62.011719h.089843c4.753907-.007813 8.910157 3.167969 9.964844 7.804687 4.9375 21.628907 24.695313 37.609376 48.027344 36.675782 25.058594-1.003906 45.21875-21.9375 45.332031-47.011719.105469-22.347656-15.292969-41.105469-36.0625-46.15625zm0 0" fill="#a6b6c4"/><path d="m283.113281 490.976562c-23.332031.9375-43.09375-15.046874-48.027343-36.675781-1.058594-4.632812-5.210938-7.808593-9.964844-7.800781-.03125 0-.0625 0-.089844 0-33.738281 0-60.933594-27.988281-59.644531-62.011719.460937-12.109375 4.613281-23.328125 11.339843-32.585937-14.390624 10.457031-24.015624 27.152344-24.730468 45.976562-1.292969 34.023438 25.90625 62.011719 59.640625 62.011719h.089843c4.753907-.007813 8.910157 3.167969 9.964844 7.804687 4.9375 21.628907 24.695313 37.609376 48.027344 36.675782 15.597656-.625 29.289062-8.972656 37.441406-21.230469-6.960937 4.632813-15.195312 7.484375-24.046875 7.835937zm0 0" fill="#7a8fa4"/></svg>