<svg height="512pt" viewBox="-30 0 512 512" width="512pt" xmlns="http://www.w3.org/2000/svg"><path d="m452.683594 48.417969v102.019531l-226.34375 41.691406-226.339844-41.691406v-102.019531c0-26.742188 21.675781-48.417969 48.410156-48.417969h355.863282c26.734374 0 48.410156 21.675781 48.410156 48.417969zm0 0" fill="#7a8fa4"/><path d="m452.683594 453.28125v10.300781c0 26.742188-21.675782 48.417969-48.410156 48.417969h-355.863282c-26.734375 0-48.410156-21.675781-48.410156-48.417969v-10.300781l226.339844-38.632812zm0 0" fill="#7a8fa4"/><path d="m386.863281 39.066406h-165.324219c-9.617187 0-17.410156 7.792969-17.410156 17.410156v37.484376c0 9.617187 7.792969 17.410156 17.410156 17.410156h165.324219c9.617188 0 17.410157-7.792969 17.410157-17.410156v-37.484376c0-9.617187-7.792969-17.410156-17.410157-17.410156zm0 0" fill="#a7e0f5"/><g fill="#334151"><path d="m250.621094 85.207031c-4.269532 0-7.726563-3.460937-7.726563-7.726562v-9.699219c0-4.265625 3.457031-7.726562 7.726563-7.726562 4.265625 0 7.726562 3.460937 7.726562 7.726562v9.699219c0 4.265625-3.460937 7.726562-7.726562 7.726562zm0 0"/><path d="m357.785156 85.207031c-4.269531 0-7.726562-3.460937-7.726562-7.726562v-9.699219c0-4.265625 3.457031-7.726562 7.726562-7.726562 4.265625 0 7.726563 3.460937 7.726563 7.726562v9.699219c0 4.265625-3.460938 7.726562-7.726563 7.726562zm0 0"/><path d="m304.203125 90.382812c-7.382813 0-14.324219-3.097656-19.042969-8.492187-2.808594-3.210937-2.480468-8.09375.730469-10.902344 3.214844-2.808593 8.09375-2.480469 10.902344.730469 1.785156 2.039062 4.484375 3.210938 7.410156 3.210938 2.921875 0 5.621094-1.171876 7.40625-3.210938 2.808594-3.210938 7.6875-3.539062 10.902344-.730469 3.210937 2.808594 3.539062 7.6875.730469 10.902344-4.71875 5.398437-11.65625 8.492187-19.039063 8.492187zm0 0"/></g><path d="m0 150.4375h452.683594v302.84375h-452.683594zm0 0" fill="#a6b6c4"/><path d="m87.402344 75.042969c0 12.476562-10.109375 22.589843-22.585938 22.589843-12.472656 0-22.585937-10.113281-22.585937-22.589843 0-12.472657 10.113281-22.585938 22.585937-22.585938 12.476563 0 22.585938 10.113281 22.585938 22.585938zm0 0" fill="#76e6d5"/><path d="m162.347656 75.042969c0 12.476562-10.113281 22.589843-22.589844 22.589843-12.472656 0-22.585937-10.113281-22.585937-22.589843 0-12.472657 10.113281-22.585938 22.585937-22.585938 12.476563 0 22.589844 10.113281 22.589844 22.585938zm0 0" fill="#ff889e"/><path d="m346.714844 301.859375c0 66.480469-53.894532 120.375-120.375 120.375-66.480469 0-120.375-53.894531-120.375-120.375s53.894531-120.375 120.375-120.375c66.480468 0 120.375 53.894531 120.375 120.375zm0 0" fill="#7a8fa4"/><path d="m311.15625 303.253906c.019531-.464844.019531-.9375.019531-1.402344 0-46.839843-37.980469-84.824218-84.835937-84.824218-46.851563 0-84.835938 37.984375-84.835938 84.824218 0 .464844 0 .9375.023438 1.402344l30.753906 30.757813h103.972656zm0 0" fill="#a7e0f5"/><path d="m311.15625 303.253906c-.742188 46.203125-38.425781 83.433594-84.816406 83.433594-46.386719 0-84.070313-37.230469-84.8125-83.433594 6.355468-.464844 12.640625-2.171875 18.46875-5.121094 6.953125-3.511718 14.539062-5.261718 22.121094-5.261718 7.582031 0 15.152343 1.75 22.117187 5.261718 6.941406 3.515626 14.535156 5.265626 22.105469 5.265626 7.574218 0 15.164062-1.75 22.109375-5.265626 6.964843-3.511718 14.535156-5.261718 22.117187-5.261718 7.582032 0 15.164063 1.75 22.117188 5.261718 5.832031 2.949219 12.117187 4.65625 18.472656 5.121094zm0 0" fill="#59c2e7"/><path d="m141.527344 303.253906 29.488281 29.492188c-3.585937-9.164063-5.628906-19.097656-5.796875-29.492188-.019531-.464844-.019531-.9375-.019531-1.402344 0-42.820312 31.746093-78.214843 72.988281-83.980468-1.558594-.21875-3.136719-.386719-4.71875-.519532-2.371094-.203124-4.75-.320312-7.128906-.324218-26.351563 0-49.902344 12.019531-65.460938 30.871094-12.449218 15.085937-20.226562 35.648437-19.351562 55.355468zm0 0" fill="#59c2e7"/><path d="m226.339844 386.6875c3.90625 0 7.863281-.246094 11.726562-.824219.039063-.003906.082032-.007812.121094-.015625-40.792969-5.703125-72.289062-40.398437-72.96875-82.59375-.019531-.464844-.019531-.9375-.019531-1.402344 0-2.039062.09375-4.054687.238281-6.0625-1.847656.667969-3.664062 1.449219-5.441406 2.34375-5.828125 2.945313-12.113282 4.65625-18.46875 5.121094.183594 11.550782 2.679687 22.539063 7.042968 32.527344 3.816407 8.738281 9.0625 16.710938 15.441407 23.621094 15.496093 16.777344 37.683593 27.285156 62.328125 27.285156zm0 0" fill="#00a2d7"/></svg>