<svg height="512pt" viewBox="0 -35 512 512" width="512pt" xmlns="http://www.w3.org/2000/svg"><path d="m471.902344 0h-431.804688c-22.144531 0-40.097656 17.953125-40.097656 40.097656v362.132813c0 22.144531 17.953125 40.097656 40.097656 40.097656h431.804688c22.144531 0 40.097656-17.953125 40.097656-40.097656v-362.132813c0-22.144531-17.953125-40.097656-40.097656-40.097656zm0 0" fill="#4677d4"/><path d="m39.488281 221.164062c0 6.164063-4.996093 11.160157-11.160156 11.160157-6.160156 0-11.15625-4.996094-11.15625-11.160157 0-6.164062 4.996094-11.160156 11.15625-11.160156 6.164063 0 11.160156 4.996094 11.160156 11.160156zm0 0" fill="#7292df"/><path d="m491.179688 221.164062c0 4.089844-3.316407 7.410157-7.410157 7.410157-4.089843 0-7.40625-3.320313-7.40625-7.410157 0-4.09375 3.316407-7.410156 7.40625-7.410156 4.09375 0 7.410157 3.316406 7.410157 7.410156zm0 0" fill="#7292df"/><path d="m56.660156 56.660156h199.339844v164.503906h-199.339844zm0 0" fill="#f5e277"/><path d="m256 56.660156h199.339844v164.503906h-199.339844zm0 0" fill="#fd5f7e"/><path d="m114.222656 125.714844v57.335937c0 7.359375 5.964844 13.320313 13.320313 13.320313h57.574219c7.355468 0 13.320312-5.960938 13.320312-13.320313v-57.335937zm0 0" fill="#00a2d7"/><path d="m216.121094 136.015625-52.109375-51.410156c-4.261719-4.203125-11.105469-4.203125-15.363281 0l-52.109376 51.410156zm0 0" fill="#fd5f7e"/><path d="m390.671875 91.441406-25.214844 6.949219-26.441406 40.519531 26.441406 40.523438 25.214844 6.949218c9.253906 2.550782 18.398437-4.414062 18.398437-14.011718v-66.917969c-.003906-9.597656-9.144531-16.5625-18.398437-14.011719zm0 0" fill="#d5d4da"/><path d="m318.6875 98.390625c-9.066406 0-16.414062 7.347656-16.414062 16.414063v48.214843c0 9.0625 7.347656 16.414063 16.414062 16.414063h46.769531v-81.042969zm0 0" fill="#ebebeb"/><path d="m56.660156 221.164062h199.339844v164.503907h-199.339844zm0 0" fill="#00a2d7"/><path d="m256 221.164062h199.339844v164.503907h-199.339844zm0 0" fill="#ebebeb"/><g fill="#f0bc63"><path d="m156.328125 278.863281c-4.265625 0-7.722656-3.460937-7.722656-7.726562v-20.097657c0-4.265624 3.457031-7.726562 7.722656-7.726562 4.269531 0 7.726563 3.460938 7.726563 7.726562v20.097657c0 4.265625-3.457032 7.726562-7.726563 7.726562zm0 0"/><path d="m179.15625 288.316406c-1.980469 0-3.957031-.753906-5.464844-2.261718-3.019531-3.019532-3.019531-7.910157 0-10.925782l14.210938-14.210937c3.019531-3.019531 7.910156-3.019531 10.925781 0 3.019531 3.015625 3.019531 7.90625 0 10.925781l-14.210937 14.210938c-1.507813 1.507812-3.484376 2.261718-5.460938 2.261718zm0 0"/><path d="m208.707031 311.140625h-20.097656c-4.269531 0-7.726563-3.457031-7.726563-7.726563 0-4.265624 3.457032-7.726562 7.726563-7.726562h20.097656c4.265625 0 7.726563 3.460938 7.726563 7.726562 0 4.269532-3.460938 7.726563-7.726563 7.726563zm0 0"/><path d="m193.367188 348.175781c-1.976563 0-3.957032-.753906-5.464844-2.261719l-14.210938-14.210937c-3.019531-3.019531-3.019531-7.910156 0-10.925781 3.019532-3.019532 7.910156-3.019532 10.925782 0l14.210937 14.207031c3.019531 3.019531 3.019531 7.910156 0 10.929687-1.507813 1.507813-3.484375 2.261719-5.460937 2.261719zm0 0"/><path d="m156.328125 363.519531c-4.265625 0-7.722656-3.460937-7.722656-7.726562v-20.097657c0-4.269531 3.457031-7.726562 7.722656-7.726562 4.269531 0 7.726563 3.457031 7.726563 7.726562v20.097657c0 4.265625-3.457032 7.726562-7.726563 7.726562zm0 0"/><path d="m119.292969 348.175781c-1.976563 0-3.953125-.753906-5.464844-2.261719-3.015625-3.019531-3.015625-7.910156.003906-10.929687l14.210938-14.207031c3.015625-3.019532 7.910156-3.019532 10.925781 0 3.015625 3.015625 3.015625 7.90625 0 10.925781l-14.210938 14.210937c-1.507812 1.507813-3.488281 2.261719-5.464843 2.261719zm0 0"/><path d="m124.050781 311.140625h-20.097656c-4.269531 0-7.726563-3.457031-7.726563-7.726563 0-4.265624 3.457032-7.726562 7.726563-7.726562h20.097656c4.269531 0 7.726563 3.460938 7.726563 7.726562 0 4.269532-3.460938 7.726563-7.726563 7.726563zm0 0"/><path d="m133.503906 288.316406c-1.976562 0-3.953125-.753906-5.460937-2.261718l-14.214844-14.210938c-3.015625-3.019531-3.015625-7.910156 0-10.925781 3.019531-3.019531 7.910156-3.019531 10.929687 0l14.210938 14.210937c3.015625 3.015625 3.015625 7.90625 0 10.925782-1.507812 1.507812-3.488281 2.261718-5.464844 2.261718zm0 0"/></g><path d="m188.609375 303.414062c0 17.828126-14.453125 32.28125-32.28125 32.28125-17.824219 0-32.277344-14.453124-32.277344-32.28125 0-17.824218 14.453125-32.277343 32.277344-32.277343 17.828125 0 32.28125 14.453125 32.28125 32.277343zm0 0" fill="#f5e277"/><path d="m351.242188 260.527344c2.433593-2.441406 6.421874-2.441406 8.851562 0 46.300781 46.515625 33.054688 87.609375-4.425781 87.609375-37.476563 0-50.722657-41.097657-4.425781-87.609375zm0 0" fill="#00a2d7"/></svg>