<svg height="512pt" viewBox="-51 0 512 512.00103" width="512pt" xmlns="http://www.w3.org/2000/svg"><path d="m350.226562 0h-289.90625c-33.3125 0-60.320312 27.007812-60.320312 60.320312v391.363282c0 33.3125 27.003906 60.316406 60.320312 60.316406h289.90625c33.3125 0 60.316407-27.003906 60.316407-60.316406v-391.363282c0-33.3125-27.003907-60.320312-60.316407-60.320312zm0 0" fill="#ebebeb"/><path d="m30.90625 451.679688v-391.359376c0-33.316406 27.007812-60.320312 60.320312-60.320312h-30.90625c-33.3125 0-60.320312 27.003906-60.320312 60.320312v391.359376c0 33.3125 27.003906 60.320312 60.320312 60.320312h30.90625c-33.3125 0-60.320312-27.003906-60.320312-60.320312zm0 0" fill="#d5d4da"/><path d="m117.234375 427.886719c-4.265625 0-7.726563-3.460938-7.726563-7.726563v-15.933594c0-4.265624 3.460938-7.726562 7.726563-7.726562 4.269531 0 7.726563 3.460938 7.726563 7.726562v15.933594c0 4.265625-3.457032 7.726563-7.726563 7.726563zm0 0" fill="#334151"/><path d="m293.308594 427.886719c-4.265625 0-7.726563-3.460938-7.726563-7.726563v-15.933594c0-4.265624 3.460938-7.726562 7.726563-7.726562 4.269531 0 7.726562 3.460938 7.726562 7.726562v15.933594c0 4.265625-3.457031 7.726563-7.726562 7.726563zm0 0" fill="#334151"/><path d="m205.273438 436.390625c-10.699219 0-20.738282-4.464844-27.546876-12.253906-2.808593-3.214844-2.480468-8.09375.730469-10.902344 3.214844-2.808594 8.09375-2.480469 10.902344.730469 3.875 4.433594 9.675781 6.972656 15.914063 6.972656 6.238281 0 12.039062-2.539062 15.910156-6.972656 2.808594-3.210938 7.691406-3.539063 10.902344-.730469 3.214843 2.808594 3.542968 7.6875.730468 10.902344-6.804687 7.789062-16.847656 12.253906-27.542968 12.253906zm0 0" fill="#334151"/><path d="m364.1875 60.316406v128.722656h-158.914062v-142.679687h144.957031c7.695312 0 13.957031 6.261719 13.957031 13.957031zm0 0" fill="#00ad8d"/><path d="m205.273438 189.039062v142.679688h-144.957032c-7.695312 0-13.960937-6.265625-13.960937-13.960938v-128.71875zm0 0" fill="#f0bc63"/><path d="m364.1875 189.039062v128.71875c0 7.695313-6.261719 13.960938-13.957031 13.960938h-144.957031v-142.679688zm0 0" fill="#a6b6c4"/><path d="m205.273438 46.359375v142.679687h-158.917969v-128.722656c0-7.695312 6.265625-13.957031 13.960937-13.957031zm0 0" fill="#fd5f7e"/><g fill="#ebebeb"><path d="m144.410156 92.785156c-3.085937 2.949219-3.195312 7.839844-.246094 10.925782 4.527344 4.742187 7.023438 10.964843 7.023438 17.527343 0 13.988281-11.382812 25.371094-25.371094 25.371094-13.992187 0-25.375-11.382813-25.375-25.371094 0-6.5625 2.492188-12.785156 7.023438-17.527343 2.949218-3.082032 2.835937-7.972657-.25-10.921876-3.085938-2.949218-7.976563-2.835937-10.921875.25-7.289063 7.628907-11.304688 17.640626-11.304688 28.195313 0 22.511719 18.316407 40.828125 40.828125 40.828125 22.507813 0 40.824219-18.3125 40.824219-40.824219 0-10.558593-4.015625-20.574219-11.304687-28.203125-2.949219-3.085937-7.839844-3.195312-10.925782-.25zm0 0"/><path d="m125.816406 111.105469c4.265625 0 7.722656-3.457031 7.722656-7.726563v-22.320312c0-4.265625-3.457031-7.726563-7.722656-7.726563-4.269531 0-7.726562 3.460938-7.726562 7.726563v22.320312c0 4.269532 3.457031 7.726563 7.726562 7.726563zm0 0"/><path d="m270.679688 154.371094c3.582031 0 7.128906-.976563 10.265624-2.828125l28.304688-16.695313c6.132812-3.617187 9.792969-10.027344 9.792969-17.148437 0-7.121094-3.660157-13.53125-9.792969-17.148438l-28.304688-16.699219c-3.136718-1.847656-6.683593-2.828124-10.265624-2.828124-11.171876 0-20.265626 9.089843-20.265626 20.261718v32.824219c0 11.171875 9.09375 20.261719 20.265626 20.261719zm-4.8125-53.082032c0-2.972656 2.5-4.808593 4.8125-4.808593.832031 0 1.644531.226562 2.414062.683593l28.304688 16.695313c1.980468 1.167969 2.191406 3.074219 2.191406 3.839844s-.210938 2.671875-2.1875 3.839843l-28.308594 16.695313c-.769531.453125-1.582031.683594-2.414062.683594-2.3125 0-4.808594-1.839844-4.808594-4.808594v-32.820313zm0 0"/><path d="m109.074219 233.242188c-4.265625 0-7.726563 3.460937-7.726563 7.726562v38.820312c0 4.265626 3.460938 7.726563 7.726563 7.726563s7.726562-3.460937 7.726562-7.726563v-38.820312c0-4.265625-3.460937-7.726562-7.726562-7.726562zm0 0"/><path d="m142.554688 233.242188c-4.265626 0-7.726563 3.460937-7.726563 7.726562v38.820312c0 4.265626 3.460937 7.726563 7.726563 7.726563 4.265624 0 7.726562-3.460937 7.726562-7.726563v-38.820312c0-4.265625-3.460938-7.726562-7.726562-7.726562zm0 0"/><path d="m320.976562 237.917969-23.652343-21.699219c-3.445313-3.160156-7.917969-4.902344-12.59375-4.902344s-9.148438 1.742188-12.59375 4.902344l-23.65625 21.699219c-4.6875 4.300781-6.226563 10.910156-3.917969 16.84375 1.296875 3.324219 3.628906 5.992187 6.546875 7.691406v26.167969c0 8.640625 7.03125 15.667968 15.671875 15.667968h35.898438c8.640624 0 15.671874-7.027343 15.671874-15.667968v-26.167969c2.917969-1.699219 5.25-4.367187 6.546876-7.691406 2.308593-5.933594.769531-12.542969-3.921876-16.84375zm-38.394531-10.3125c1.175781-1.078125 3.121094-1.078125 4.296875 0l23.394532 21.460937h-51.085938zm20.316407 61.015625c0 .121094-.097657.21875-.21875.21875h-35.898438c-.121094 0-.21875-.101563-.21875-.21875v-24.097656h36.335938zm0 0"/></g></svg>