<svg height="511pt" viewBox="-18 1 511 511.99998" width="511pt" xmlns="http://www.w3.org/2000/svg"><g fill="#ebebeb"><path d="m433.390625 26.46875h-390.644531c-23.332032 0-42.246094 18.914062-42.246094 42.246094 0 23.328125 18.914062 42.242187 42.246094 42.242187h390.644531c23.332031 0 42.246094-18.914062 42.246094-42.242187 0-23.332032-18.914063-42.246094-42.246094-42.246094zm0 0"/><path d="m433.390625 213.753906h-390.644531c-23.332032 0-42.246094 18.914063-42.246094 42.246094s18.914062 42.246094 42.246094 42.246094h390.644531c23.332031 0 42.246094-18.914063 42.246094-42.246094s-18.914063-42.246094-42.246094-42.246094zm0 0"/><path d="m433.390625 401.042969h-390.644531c-23.332032 0-42.246094 18.914062-42.246094 42.246093 0 23.332032 18.914062 42.246094 42.246094 42.246094h390.644531c23.332031 0 42.246094-18.914062 42.246094-42.246094 0-23.332031-18.914063-42.246093-42.246094-42.246093zm0 0"/></g><path d="m99.148438 68.714844c0 15.09375 3.378906 29.410156 9.414062 42.242187h180.40625c6.035156-12.832031 9.414062-27.148437 9.414062-42.242187 0-15.097656-3.382812-29.414063-9.414062-42.246094h-180.40625c-6.035156 12.832031-9.414062 27.148438-9.414062 42.246094zm0 0" fill="#d5d4da"/><path d="m267.480469 68.714844c0 37.949218-30.765625 68.710937-68.714844 68.710937s-68.714844-30.761719-68.714844-68.710937c0-37.949219 30.765625-68.714844 68.714844-68.714844s68.714844 30.765625 68.714844 68.714844zm0 0" fill="#7292df"/><path d="m256.421875 213.753906c-6.035156 12.832032-9.417969 27.152344-9.417969 42.246094s3.382813 29.414062 9.417969 42.246094h176.96875c1.183594 0 2.351563-.0625 3.507813-.15625 5.988281-12.792969 9.34375-27.054688 9.34375-42.089844s-3.355469-29.296875-9.34375-42.089844c-1.15625-.09375-2.324219-.15625-3.507813-.15625zm0 0" fill="#d5d4da"/><path d="m415.335938 256c0 37.949219-30.761719 68.714844-68.710938 68.714844s-68.714844-30.765625-68.714844-68.714844 30.765625-68.714844 68.714844-68.714844 68.710938 30.765625 68.710938 68.714844zm0 0" fill="#7292df"/><path d="m35.78125 443.285156c0 15.097656 3.378906 29.414063 9.414062 42.246094h180.40625c6.035157-12.832031 9.414063-27.148438 9.414063-42.246094 0-15.09375-3.382813-29.410156-9.414063-42.242187h-180.40625c-6.035156 12.832031-9.414062 27.148437-9.414062 42.242187zm0 0" fill="#d5d4da"/><path d="m204.109375 443.285156c0 37.949219-30.761719 68.714844-68.710937 68.714844-37.949219 0-68.714844-30.765625-68.714844-68.714844 0-37.949218 30.765625-68.710937 68.714844-68.710937 37.949218 0 68.710937 30.761719 68.710937 68.710937zm0 0" fill="#7292df"/></svg>