<svg height="512pt" viewBox="-112 0 512 512" width="512pt" xmlns="http://www.w3.org/2000/svg"><path d="m183.222656 0h-78.445312c-16.351563 0-29.605469 13.253906-29.605469 29.605469v57.070312h137.65625v-57.070312c0-16.351563-13.253906-29.605469-29.605469-29.605469zm0 0" fill="#76e6d5"/><path d="m75.171875 35.050781h137.65625v51.625h-137.65625zm0 0" fill="#00ccac"/><path d="m243.90625 65.957031h-199.8125c-24.351562 0-44.09375 19.742188-44.09375 44.09375v357.855469c0 24.351562 19.742188 44.09375 44.09375 44.09375h199.8125c24.355469 0 44.09375-19.742188 44.09375-44.09375v-357.855469c.003906-24.351562-19.738281-44.09375-44.09375-44.09375zm0 0" fill="#00ad8d"/><path d="m246.5625 110.050781v118.398438l-102.5625 18.113281-102.5625-18.113281v-118.398438c0-1.460937 1.191406-2.652343 2.652344-2.652343h199.820312c1.460938-.003907 2.652344 1.191406 2.652344 2.652343zm0 0" fill="#76e6d5"/><path d="m246.5625 349.503906v118.40625c0 1.457032-1.191406 2.648438-2.652344 2.648438h-199.820312c-1.460938 0-2.652344-1.191406-2.652344-2.648438v-118.40625l102.5625-17.988281zm0 0" fill="#76e6d5"/><path d="m41.4375 228.449219h205.125v121.054687h-205.125zm0 0" fill="#00ccac"/><g fill="#334151"><path d="m87.585938 299.085938c-4.269532 0-7.726563-3.460938-7.726563-7.726563v-10.210937c0-4.265626 3.457031-7.726563 7.726563-7.726563 4.265624 0 7.726562 3.460937 7.726562 7.726563v10.210937c0 4.265625-3.460938 7.726563-7.726562 7.726563zm0 0"/><path d="m200.417969 299.085938c-4.269531 0-7.726563-3.460938-7.726563-7.726563v-10.210937c0-4.265626 3.457032-7.726563 7.726563-7.726563 4.265625 0 7.726562 3.460937 7.726562 7.726563v10.210937c0 4.265625-3.460937 7.726563-7.726562 7.726563zm0 0"/><path d="m144 304.535156c-7.65625 0-14.851562-3.207031-19.742188-8.800781-2.808593-3.214844-2.480468-8.09375.734376-10.902344 3.210937-2.808593 8.089843-2.480469 10.902343.730469 1.953125 2.238281 4.910157 3.519531 8.105469 3.519531 3.199219 0 6.152344-1.28125 8.105469-3.519531 2.808593-3.210938 7.691406-3.539062 10.902343-.730469 3.214844 2.808594 3.542969 7.6875.734376 10.902344-4.890626 5.59375-12.085938 8.800781-19.742188 8.800781zm0 0"/></g></svg>