<svg height="512pt" viewBox="0 -12 512 512" width="512pt" xmlns="http://www.w3.org/2000/svg"><path d="m390.054688 454.707031h61.574218v-419.828125c0-19.265625-15.613281-34.878906-34.878906-34.878906h-381.871094c-19.265625 0-34.878906 15.613281-34.878906 34.878906v419.828125h61.574219l164.238281-24.632812zm0 0" fill="#ff889e"/><g fill="#334151"><path d="m142.1875 61.234375c-4.265625 0-7.726562-3.460937-7.726562-7.726563v-15.136718c0-4.265625 3.460937-7.726563 7.726562-7.726563s7.726562 3.460938 7.726562 7.726563v15.136718c0 4.265626-3.460937 7.726563-7.726562 7.726563zm0 0"/><path d="m309.441406 61.234375c-4.269531 0-7.726562-3.460937-7.726562-7.726563v-15.136718c0-4.265625 3.457031-7.726563 7.726562-7.726563 4.265625 0 7.726563 3.460938 7.726563 7.726563v15.136718c0 4.265626-3.460938 7.726563-7.726563 7.726563zm0 0"/><path d="m225.816406 69.3125c-10.277344 0-19.917968-4.292969-26.460937-11.773438-2.808594-3.214843-2.480469-8.09375.734375-10.902343 3.210937-2.808594 8.09375-2.480469 10.902344.730469 3.605468 4.125 9.007812 6.492187 14.824218 6.492187 5.8125 0 11.21875-2.363281 14.824219-6.488281 2.804687-3.214844 7.6875-3.542969 10.902344-.734375 3.210937 2.808593 3.539062 7.691406.730469 10.902343-6.542969 7.480469-16.1875 11.773438-26.457032 11.773438zm0 0"/></g><path d="m390.054688 365.859375v88.847656h-328.480469v-88.847656l164.242187-19.269531zm0 0" fill="#a6b6c4"/><path d="m231.398438 161.148438-169.824219 27.015624v88.847657l164.242187 25.785156 164.238282-25.785156v-88.847657zm0 0" fill="#a6b6c4"/><path d="m61.574219 277.011719h328.476562v88.847656h-328.476562zm0 0" fill="#7a8fa4"/><path d="m390.054688 123.078125v65.085937h-328.480469v-65.085937c0-13.117187 10.644531-23.761719 23.761719-23.761719h280.957031c13.117187 0 23.761719 10.644532 23.761719 23.761719zm0 0" fill="#7a8fa4"/><path d="m442.332031 225.71875h-24.519531c-38.476562 0-69.667969 31.191406-69.667969 69.667969v123.617187c0 38.476563 31.191407 69.667969 69.667969 69.667969h24.519531c38.476563 0 69.667969-31.1875 69.667969-69.667969v-123.617187c0-38.476563-31.191406-69.667969-69.667969-69.667969zm0 0" fill="#334151"/><path d="m379.050781 419.003906v-123.617187c0-37.402344 29.480469-67.914063 66.476563-69.585938-1.0625-.046875-2.125-.082031-3.195313-.082031h-24.519531c-38.476562 0-69.667969 31.191406-69.667969 69.667969v123.617187c0 38.476563 31.191407 69.667969 69.667969 69.667969h24.519531c1.070313 0 2.132813-.03125 3.195313-.078125-36.996094-1.671875-66.476563-32.183594-66.476563-69.589844zm0 0" fill="#293441"/><path d="m459.316406 318.0625-17.957031-30.441406c-5.070313-8.59375-17.5-8.59375-22.570313 0l-17.960937 30.441406c-5.292969 8.972656 1.175781 20.300781 11.59375 20.300781h35.300781c10.417969 0 16.886719-11.328125 11.59375-20.300781zm0 0" fill="#a6b6c4"/><path d="m459.316406 396.332031-17.957031 30.441407c-5.070313 8.59375-17.5 8.59375-22.570313 0l-17.960937-30.441407c-5.292969-8.976562 1.175781-20.300781 11.59375-20.300781h35.300781c10.417969 0 16.886719 11.328125 11.59375 20.300781zm0 0" fill="#a6b6c4"/></svg>