<svg height="512pt" viewBox="-40 0 512 512" width="512pt" xmlns="http://www.w3.org/2000/svg"><path d="m115.035156 359.480469h46.21875v127.355469h-46.21875zm0 0" fill="#334151"/><path d="m177.332031 466.296875h-78.375c-19.144531 0-34.660156 15.515625-34.660156 34.65625 0 6.101563 4.945313 11.046875 11.046875 11.046875h125.601562c6.101563 0 11.046876-4.945312 11.046876-11.046875 0-19.140625-15.519532-34.65625-34.660157-34.65625zm0 0" fill="#7292df"/><path d="m95.199219 500.953125c0-19.140625 15.519531-34.660156 34.660156-34.660156h-30.90625c-19.140625 0-34.65625 15.519531-34.65625 34.660156 0 6.101563 4.945313 11.046875 11.042969 11.046875h30.90625c-6.101563 0-11.046875-4.945312-11.046875-11.046875zm0 0" fill="#4677d4"/><path d="m138.144531 412.886719c-63.171875 0-114.378906-51.207031-114.378906-114.375v-32.496094h228.753906v32.496094c0 63.167969-51.207031 114.375-114.375 114.375zm0 0" fill="#a6b6c4"/><path d="m54.671875 298.511719v-32.496094h-30.90625v32.496094c0 63.167969 51.207031 114.375 114.375 114.375 5.242187 0 10.398437-.359375 15.453125-1.042969-55.855469-7.546875-98.921875-55.40625-98.921875-113.332031zm0 0" fill="#7a8fa4"/><path d="m138.144531 33.894531c-63.171875 0-114.378906 51.207031-114.378906 114.375v68.445313h228.753906v-68.445313c0-63.167969-51.207031-114.375-114.375-114.375zm0 0" fill="#334151"/><path d="m153.597656 34.9375c-5.054687-.683594-10.214844-1.042969-15.453125-1.042969-63.171875 0-114.378906 51.207031-114.378906 114.375v68.445313h30.90625v-68.445313c0-57.925781 43.066406-105.789062 98.925781-113.332031zm0 0" fill="#293441"/><path d="m363.425781 0h-75.824219c-37.578124 0-68.042968 30.464844-68.042968 68.042969 0 15.4375 5.148437 29.667969 13.808594 41.085937l-26.960938 26.960938h157.019531c37.578125 0 68.042969-30.464844 68.042969-68.046875 0-37.578125-30.464844-68.042969-68.042969-68.042969zm0 0" fill="#ebebeb"/><g fill="#334151"><path d="m332.773438 68.042969c0 4.011719-3.25 7.261719-7.261719 7.261719-4.007813 0-7.257813-3.25-7.257813-7.261719 0-4.007813 3.25-7.257813 7.257813-7.257813 4.011719 0 7.261719 3.25 7.261719 7.257813zm0 0"/><path d="m286.796875 68.042969c0 4.011719-3.253906 7.261719-7.261719 7.261719-4.011718 0-7.261718-3.25-7.261718-7.261719 0-4.007813 3.25-7.257813 7.261718-7.257813 4.007813 0 7.261719 3.25 7.261719 7.257813zm0 0"/><path d="m378.753906 68.042969c0 4.011719-3.25 7.261719-7.261718 7.261719-4.007813 0-7.257813-3.25-7.257813-7.261719 0-4.007813 3.25-7.257813 7.257813-7.257813 4.011718 0 7.261718 3.25 7.261718 7.257813zm0 0"/></g><path d="m252.519531 196.171875h-228.753906c-13.125 0-23.765625 10.640625-23.765625 23.765625v42.851562c0 13.125 10.640625 23.765626 23.765625 23.765626h228.753906c13.125 0 23.765625-10.640626 23.765625-23.765626v-42.851562c0-13.125-10.640625-23.765625-23.765625-23.765625zm0 0" fill="#7292df"/><path d="m30.90625 262.789062v-42.851562c0-13.125 10.640625-23.765625 23.765625-23.765625h-30.90625c-13.125 0-23.765625 10.640625-23.765625 23.765625v42.851562c0 13.125 10.640625 23.765626 23.765625 23.765626h30.90625c-13.125 0-23.765625-10.640626-23.765625-23.765626zm0 0" fill="#4677d4"/><path d="m69.878906 255.050781c-4.269531 0-7.726562-3.457031-7.726562-7.726562v-12.355469c0-4.265625 3.457031-7.726562 7.726562-7.726562 4.265625 0 7.726563 3.460937 7.726563 7.726562v12.355469c0 4.269531-3.460938 7.726562-7.726563 7.726562zm0 0" fill="#334151"/><path d="m206.410156 255.050781c-4.269531 0-7.726562-3.457031-7.726562-7.726562v-12.355469c0-4.265625 3.457031-7.726562 7.726562-7.726562 4.265625 0 7.726563 3.460937 7.726563 7.726562v12.355469c0 4.269531-3.460938 7.726562-7.726563 7.726562zm0 0" fill="#334151"/><path d="m138.144531 261.644531c-8.796875 0-17.058593-3.679687-22.667969-10.09375-2.808593-3.214843-2.480468-8.09375.734376-10.902343 3.210937-2.808594 8.09375-2.480469 10.902343.730468 2.671875 3.058594 6.691407 4.8125 11.03125 4.8125 4.335938 0 8.355469-1.753906 11.03125-4.8125 2.808594-3.210937 7.6875-3.539062 10.902344-.730468 3.210937 2.808593 3.539063 7.6875.730469 10.902343-5.609375 6.414063-13.871094 10.09375-22.664063 10.09375zm0 0" fill="#334151"/></svg>