<svg height="511pt" viewBox="-75 1 511 511.99998" width="511pt" xmlns="http://www.w3.org/2000/svg"><path d="m309.070312 200.742188h-44.417968v-72.808594c0-46.050782-37.46875-83.515625-83.519532-83.515625-46.050781 0-83.515624 37.464843-83.515624 83.515625v72.808594h-44.417969v-72.808594c0-70.542969 57.390625-127.933594 127.933593-127.933594 70.542969 0 127.9375 57.390625 127.9375 127.933594zm0 0" fill="#a6b6c4"/><path d="m53.199219 129.644531h44.417969v71.097657h-44.417969zm0 0" fill="#7a8fa4"/><path d="m37.6875 160.546875c-12.132812 0-21.972656 9.839844-21.972656 21.972656v133.628907h155.601562v-155.601563zm0 0" fill="#00a2d7"/><path d="m264.652344 129.644531h44.417968v71.097657h-44.417968zm0 0" fill="#7a8fa4"/><path d="m324.582031 160.546875c12.132813 0 21.96875 9.839844 21.96875 21.972656v133.628907h-155.601562v-155.601563zm0 0" fill="#00a2d7"/><path d="m361.769531 331.367188c0 99.761718-80.875 180.632812-180.636719 180.632812-99.761718 0-180.632812-80.871094-180.632812-180.632812 0-99.761719 80.871094-180.636719 180.632812-180.636719 99.761719 0 180.636719 80.875 180.636719 180.636719zm0 0" fill="#59c2e7"/><path d="m181.132812 461.828125c-71.9375 0-130.460937-58.527344-130.460937-130.460937 0-71.9375 58.523437-130.464844 130.460937-130.464844s130.464844 58.527344 130.464844 130.464844c0 71.933593-58.527344 130.460937-130.464844 130.460937zm0 0" fill="#00a2d7"/><g fill="#ebebeb"><path d="m181.132812 420.265625c-48.277343 0-87.558593-39.277344-87.558593-87.558594 0-25.210937 10.878906-49.210937 29.847656-65.847656 6.019531-5.277344 15.175781-4.679687 20.453125 1.339844 5.277344 6.015625 4.675781 15.171875-1.34375 20.453125-12.691406 11.128906-19.972656 27.1875-19.972656 44.054687 0 32.296875 26.277344 58.574219 58.574218 58.574219 32.296876 0 58.570313-26.277344 58.570313-58.574219 0-16.867187-7.277344-32.921875-19.96875-44.054687-6.019531-5.277344-6.617187-14.433594-1.34375-20.453125 5.277344-6.015625 14.4375-6.617188 20.453125-1.339844 18.96875 16.636719 29.84375 40.636719 29.84375 65.847656.003906 48.28125-39.273438 87.558594-87.554688 87.558594zm0 0"/><path d="m181.132812 313.050781c-8.003906 0-14.492187-6.488281-14.492187-14.492187v-41.601563c0-8.003906 6.488281-14.492187 14.492187-14.492187 8.003907 0 14.492188 6.488281 14.492188 14.492187v41.601563c0 8.003906-6.488281 14.492187-14.492188 14.492187zm0 0"/></g></svg>