<svg height="512pt" viewBox="-2 0 512 512" width="512pt" xmlns="http://www.w3.org/2000/svg"><path d="m229.734375 390h48.628906v94.054688h-48.628906zm0 0" fill="#a6b6c4"/><path d="m229.734375 390h48.628906v52.375h-48.628906zm0 0" fill="#7a8fa4"/><path d="m165.789062 348.601562v34.296876c0 15.78125 12.789063 28.570312 28.570313 28.570312h119.378906c15.78125 0 28.574219-12.789062 28.574219-28.570312v-34.296876zm0 0" fill="#d5d4da"/><path d="m474.359375 0h-440.617187c-18.636719 0-33.742188 15.105469-33.742188 33.742188v297.925781c0 18.632812 15.105469 33.742187 33.742188 33.742187h440.617187c18.632813 0 33.742187-15.109375 33.742187-33.742187v-297.925781c0-18.636719-15.109374-33.742188-33.742187-33.742188zm0 0" fill="#ebebeb"/><path d="m51.117188 51.117188h405.867187v263.175781h-405.867187zm0 0" fill="#59c2e7"/><path d="m51.117188 51.117188h30.90625v263.175781h-30.90625zm0 0" fill="#00a2d7"/><path d="m456.984375 146.566406v-15.449218h-127.5625v-80h-15.453125v80h-119.835938v-80h-15.453124v80h-127.5625v15.449218h127.5625v72.273438h-127.5625v15.453125h127.5625v80h15.453124v-80h119.835938v80h15.453125v-80h127.5625v-15.453125h-127.5625v-72.273438zm-143.015625 72.273438h-119.835938v-72.273438h119.835938zm0 0" fill="#d5d4da"/><path d="m51.117188 218.839844h30.90625v15.453125h-30.90625zm0 0" fill="#a6b6c4"/><path d="m51.117188 131.117188h30.90625v15.449218h-30.90625zm0 0" fill="#a6b6c4"/><g fill="#334151"><path d="m142.8125 191.949219c-4.265625 0-7.726562-3.460938-7.726562-7.726563v-14c0-4.265625 3.460937-7.726562 7.726562-7.726562s7.726562 3.460937 7.726562 7.726562v14c0 4.265625-3.460937 7.726563-7.726562 7.726563zm0 0"/><path d="m365.285156 191.949219c-4.265625 0-7.726562-3.460938-7.726562-7.726563v-14c0-4.265625 3.460937-7.726562 7.726562-7.726562 4.269532 0 7.726563 3.460937 7.726563 7.726562v14c0 4.265625-3.457031 7.726563-7.726563 7.726563zm0 0"/><path d="m254.050781 207.125c-9.929687 0-19.25-4.148438-25.570312-11.382812-2.808594-3.210938-2.480469-8.09375.730469-10.902344 3.214843-2.808594 8.09375-2.480469 10.902343.734375 3.386719 3.875 8.46875 6.097656 13.9375 6.097656s10.546875-2.222656 13.933594-6.097656c2.808594-3.214844 7.691406-3.542969 10.902344-.734375 3.214843 2.808594 3.542969 7.691406.734375 10.902344-6.324219 7.234374-15.644532 11.382812-25.570313 11.382812zm0 0"/></g><path d="m344.027344 465.273438h-179.953125c-20.507813 0-37.132813 16.625-37.132813 37.132812 0 5.296875 4.292969 9.59375 9.59375 9.59375h235.03125c5.300782 0 9.59375-4.292969 9.59375-9.59375 0-20.507812-16.625-37.132812-37.132812-37.132812zm0 0" fill="#d5d4da"/><path d="m157.84375 502.40625c0-20.507812 16.625-37.132812 37.132812-37.132812h-30.902343c-20.507813 0-37.132813 16.625-37.132813 37.132812 0 5.296875 4.292969 9.59375 9.59375 9.59375h30.902344c-5.296875 0-9.59375-4.292969-9.59375-9.59375zm0 0" fill="#a6b6c4"/></svg>