<svg height="512pt" viewBox="-18 0 512 512" width="512pt" xmlns="http://www.w3.org/2000/svg"><path d="m119.773438 24.734375h-64.109376v164.105469l64.109376-60.738282zm0 0" fill="#f5e277"/><path d="m55.664062 24.734375h64.109376v55.636719h-64.109376zm0 0" fill="#f0bc63"/><path d="m125.046875 0h-74.65625c-5.304687 0-9.601563 4.300781-9.601563 9.601562v30.261719c0 5.304688 4.296876 9.601563 9.601563 9.601563h74.65625c5.304687 0 9.601563-4.296875 9.601563-9.601563v-30.261719c0-5.300781-4.296876-9.601562-9.601563-9.601562zm0 0" fill="#fd5f7e"/><path d="m238.167969 52.664062 182.503906 136.175782v281.117187h-365.007813v-281.117187zm0 0" fill="#f5e277"/><path d="m55.664062 188.839844v79.238281c4.945313-1.671875 9.621094-4.15625 13.765626-7.386719l168.738281-131.394531 168.734375 131.394531c4.148437 3.230469 8.820312 5.714844 13.769531 7.382813v-79.238281l-182.503906-136.171876zm0 0" fill="#f0bc63"/><path d="m470.261719 179.328125-209.910157-163.457031c-13.042968-10.15625-31.324218-10.15625-44.367187 0l-209.910156 163.457031c-6.863281 5.34375-8.09375 15.238281-2.75 22.101563l25.015625 32.125c5.347656 6.863281 15.242187 8.097656 22.105468 2.75l187.722657-146.179688 187.722656 146.179688c6.863281 5.347656 16.757813 4.113281 22.105469-2.75l25.015625-32.125c5.34375-6.863282 4.113281-16.757813-2.75-22.101563zm0 0" fill="#fd5f7e"/><path d="m442.105469 439.78125h-407.875c-8.351563 0-15.121094 6.769531-15.121094 15.121094v41.976562c0 8.351563 6.769531 15.121094 15.121094 15.121094h407.875c8.351562 0 15.121093-6.769531 15.121093-15.121094v-41.976562c0-8.351563-6.769531-15.121094-15.121093-15.121094zm0 0" fill="#fd5f7e"/><path d="m267.519531 372.527344c0 16.210937-13.144531 29.355468-29.355469 29.355468-16.214843 0-29.355468-13.144531-29.355468-29.355468 0-16.210938 13.140625-29.355469 29.355468-29.355469 16.210938 0 29.355469 13.144531 29.355469 29.355469zm0 0" fill="#4677d4"/><path d="m348.320312 258.996094c-3.285156 0-6.574218-1.234375-9.105468-3.71875-27.148438-26.605469-63.035156-41.257813-101.050782-41.257813-38.011718 0-73.894531 14.648438-101.042968 41.25-5.132813 5.03125-13.371094 4.949219-18.402344-.183593-5.03125-5.136719-4.949219-13.375.1875-18.40625 32.039062-31.398438 74.394531-48.6875 119.257812-48.6875 44.867188 0 87.222657 17.292968 119.265626 48.699218 5.132812 5.027344 5.214843 13.269532.1875 18.402344-2.550782 2.601562-5.921876 3.902344-9.296876 3.902344zm0 0" fill="#7292df"/><path d="m317.957031 299.21875c-3.285156 0-6.574219-1.238281-9.105469-3.722656-18.992187-18.609375-44.09375-28.859375-70.6875-28.859375-26.589843 0-51.691406 10.246093-70.679687 28.855469-5.136719 5.03125-13.375 4.945312-18.40625-.1875-5.027344-5.132813-4.945313-13.371094.1875-18.402344 23.882813-23.40625 55.453125-36.292969 88.898437-36.292969 33.445313 0 65.019532 12.890625 88.902344 36.300781 5.136719 5.03125 5.21875 13.269532.1875 18.402344-2.550781 2.601562-5.921875 3.90625-9.296875 3.90625zm0 0" fill="#4677d4"/><path d="m287.59375 339.433594c-3.285156 0-6.574219-1.234375-9.105469-3.71875-10.832031-10.617188-25.15625-16.460938-40.324219-16.460938-15.167968 0-29.488281 5.84375-40.320312 16.457032-5.132812 5.03125-13.375 4.949218-18.402344-.183594-5.03125-5.136719-4.949218-13.375.183594-18.40625 15.726562-15.410156 36.515625-23.898438 58.539062-23.898438 22.023438 0 42.8125 8.492188 58.542969 23.902344 5.132813 5.035156 5.214844 13.273438.183594 18.40625-2.550781 2.601562-5.921875 3.902344-9.296875 3.902344zm0 0" fill="#7292df"/></svg>