<svg height="512pt" viewBox="-66 0 512 512" width="512pt" xmlns="http://www.w3.org/2000/svg"><path d="m380.6875 352.199219-190.027344 38.265625-190.027344-38.265625c-6.703124-120.632813 41.5625-259.539063 65.726563-320.617188 7.539063-19.054687 25.941406-31.582031 46.433594-31.582031h155.734375c20.492187 0 38.894531 12.527344 46.433594 31.582031 24.164062 61.078125 72.429687 199.984375 65.726562 320.617188zm0 0" fill="#ebebeb"/><path d="m41.839844 352.199219c-6.703125-120.632813 41.5625-259.539063 65.726562-320.617188 7.539063-19.054687 25.941406-31.582031 46.433594-31.582031h-41.207031c-20.492188 0-38.894531 12.527344-46.433594 31.582031-24.164063 61.078125-72.429687 199.984375-65.726563 320.617188l190.027344 38.265625 20.601563-4.148438zm0 0" fill="#d5d4da"/><path d="m380.6875 352.199219c-2.359375 42.335937-11.480469 82.417969-30.804688 116.097656-15.515624 27.058594-44.367187 43.703125-75.550781 43.703125h-167.34375c-31.1875 0-60.035156-16.644531-75.550781-43.703125-19.324219-33.679687-28.445312-73.761719-30.804688-116.097656zm0 0" fill="#a6b6c4"/><path d="m72.644531 468.296875c-19.324219-33.679687-28.445312-73.761719-30.804687-116.097656h-41.207032c2.359376 42.335937 11.480469 82.417969 30.804688 116.097656 15.515625 27.058594 44.363281 43.703125 75.550781 43.703125h41.207031c-31.1875 0-60.035156-16.644531-75.550781-43.703125zm0 0" fill="#7a8fa4"/><g fill="#334151"><path d="m100.175781 441.253906c-4.265625 0-7.726562-3.457031-7.726562-7.726562v-16.375c0-4.265625 3.460937-7.726563 7.726562-7.726563 4.269531 0 7.726563 3.460938 7.726563 7.726563v16.375c0 4.269531-3.457032 7.726562-7.726563 7.726562zm0 0"/><path d="m281.140625 441.253906c-4.265625 0-7.726563-3.457031-7.726563-7.726562v-16.375c0-4.265625 3.460938-7.726563 7.726563-7.726563 4.269531 0 7.726563 3.460938 7.726563 7.726563v16.375c0 4.269531-3.457032 7.726562-7.726563 7.726562zm0 0"/><path d="m190.660156 449.996094c-10.933594 0-21.195312-4.5625-28.148437-12.519532-2.808594-3.214843-2.480469-8.09375.730469-10.90625 3.214843-2.808593 8.09375-2.480468 10.902343.734376 4.023438 4.601562 10.042969 7.238281 16.515625 7.238281s12.492188-2.636719 16.515625-7.238281c2.804688-3.214844 7.6875-3.542969 10.898438-.734376 3.214843 2.808594 3.542969 7.691407.734375 10.902344-6.957032 7.960938-17.214844 12.523438-28.148438 12.523438zm0 0"/></g><path d="m282.71875 70.40625c0 9.523438-7.71875 17.242188-17.238281 17.242188-9.523438 0-17.238281-7.71875-17.238281-17.242188 0-9.519531 7.714843-17.238281 17.238281-17.238281 9.519531 0 17.238281 7.71875 17.238281 17.238281zm0 0" fill="#f0bc63"/><path d="m282.71875 134.824219c0 9.523437-7.71875 17.242187-17.238281 17.242187-9.523438 0-17.238281-7.71875-17.238281-17.242187 0-9.519531 7.714843-17.238281 17.238281-17.238281 9.519531 0 17.238281 7.71875 17.238281 17.238281zm0 0" fill="#59c2e7"/><path d="m282.71875 199.246094c0 9.519531-7.71875 17.238281-17.238281 17.238281-9.523438 0-17.238281-7.71875-17.238281-17.238281 0-9.523438 7.714843-17.242188 17.238281-17.242188 9.519531 0 17.238281 7.71875 17.238281 17.242188zm0 0" fill="#ff889e"/><path d="m282.71875 263.664062c0 9.523438-7.71875 17.242188-17.238281 17.242188-9.523438 0-17.238281-7.71875-17.238281-17.242188 0-9.519531 7.714843-17.238281 17.238281-17.238281 9.519531 0 17.238281 7.71875 17.238281 17.238281zm0 0" fill="#00ccac"/></svg>