<svg height="512pt" viewBox="0 0 512 512.00008" width="512pt" xmlns="http://www.w3.org/2000/svg"><path d="m361.722656 260.996094-110.71875-110.71875c-20.519531-20.519532-53.789062-20.519532-74.308594 0l-161.304687 161.304687c-20.519531 20.519531-20.519531 53.789063 0 74.308594l110.71875 110.71875c20.519531 20.519531 53.789063 20.519531 74.308594 0l161.304687-161.304687c20.519532-20.519532 20.519532-53.789063 0-74.308594zm0 0" fill="#334151"/><path d="m361.722656 260.996094-20.605468-20.605469c20.519531 20.519531 20.519531 53.789063 0 74.308594l-161.304688 161.308593c-20.519531 20.519532-53.789062 20.519532-74.308594 0l20.605469 20.601563c20.519531 20.519531 53.789063 20.519531 74.308594 0l161.304687-161.304687c20.519532-20.519532 20.519532-53.789063 0-74.308594zm0 0" fill="#293441"/><g fill="#ebebeb"><path d="m225.308594 205.371094c-1.976563 0-3.953125-.753906-5.460938-2.261719-3.019531-3.015625-3.019531-7.910156-.003906-10.925781l8.058594-8.058594c3.019531-3.015625 7.910156-3.015625 10.925781 0 3.019531 3.015625 3.019531 7.910156 0 10.925781l-8.054687 8.058594c-1.507813 1.507813-3.488282 2.261719-5.464844 2.261719zm0 0"/><path d="m314.355469 294.417969c-1.976563 0-3.957031-.753907-5.464844-2.261719-3.015625-3.019531-3.015625-7.910156 0-10.929688l8.058594-8.058593c3.015625-3.015625 7.910156-3.015625 10.925781 0 3.015625 3.019531 3.015625 7.910156 0 10.929687l-8.058594 8.058594c-1.507812 1.507812-3.484375 2.261719-5.460937 2.261719zm0 0"/><path d="m280.082031 260.367188c-7.390625 0-14.597656-3.019532-20.015625-8.4375-5.859375-5.859376-8.910156-13.816407-8.371094-21.832032.285157-4.257812 3.972657-7.472656 8.226563-7.1875 4.257813.285156 7.476563 3.96875 7.191406 8.226563-.242187 3.566406 1.171875 7.164062 3.878907 9.867187 2.707031 2.707032 6.300781 4.121094 9.871093 3.882813 4.25-.296875 7.9375 2.933593 8.226563 7.191406.285156 4.257813-2.933594 7.941406-7.191406 8.226563-.605469.042968-1.210938.0625-1.816407.0625zm0 0"/></g><path d="m381.855469 157.878906c0 15.320313-12.421875 27.738282-27.738281 27.738282-15.320313 0-27.738282-12.417969-27.738282-27.738282 0-15.320312 12.417969-27.738281 27.738282-27.738281 15.316406 0 27.738281 12.417969 27.738281 27.738281zm0 0" fill="#a7e0f5"/><path d="m484.503906 167.132812c-2.875-2.875-4.671875-6.835937-4.714844-11.222656-.332031-32.902344-13.328124-63.839844-36.597656-87.109375-23.269531-23.265625-54.199218-36.261719-87.097656-36.59375-8.890625-.09375-16.027344-7.375-15.9375-16.265625.089844-8.894531 7.371094-16.0312498 16.265625-15.941406 41.375.421875 80.28125 16.765625 109.542969 46.03125 29.265625 29.261719 45.609375 68.171875 46.027344 109.554688.089843 8.894531-7.046876 16.175781-15.941407 16.261718-4.503906.046875-8.59375-1.761718-11.546875-4.714844zm0 0" fill="#a7e0f5"/><path d="m420.796875 177.703125c-2.875-2.875-4.671875-6.835937-4.714844-11.222656-.1875-18.769531-7.605469-36.414063-20.878906-49.691407-13.273437-13.273437-30.917969-20.6875-49.683594-20.875-8.894531-.09375-16.027343-7.375-15.941406-16.265624.09375-8.894532 7.375-16.03125 16.265625-15.941407 27.246094.277344 52.863281 11.042969 72.132812 30.308594 19.269532 19.273437 30.035157 44.894531 30.308594 72.140625.089844 8.894531-7.046875 16.175781-15.941406 16.265625-4.503906.042969-8.59375-1.765625-11.546875-4.71875zm0 0" fill="#59c2e7"/><path d="m203.078125 264.289062c0 17.59375-14.261719 31.855469-31.851563 31.855469-17.59375 0-31.855468-14.261719-31.855468-31.855469 0-17.589843 14.261718-31.851562 31.855468-31.851562 17.589844 0 31.851563 14.261719 31.851563 31.851562zm0 0" fill="#a7e0f5"/><path d="m193.746094 241.769531c-1.773438-1.773437-3.707032-3.285156-5.75-4.554687 7.628906 12.285156 6.117187 28.632812-4.550782 39.296875-10.664062 10.667969-27.011718 12.179687-39.296874 4.550781 1.269531 2.042969 2.78125 3.976562 4.554687 5.75 12.4375 12.441406 32.605469 12.441406 45.042969 0 12.441406-12.4375 12.441406-32.605469 0-45.042969zm0 0" fill="#59c2e7"/><path d="m279.5625 340.773438c0 17.59375-14.261719 31.851562-31.851562 31.851562-17.59375 0-31.855469-14.257812-31.855469-31.851562 0-17.589844 14.261719-31.851563 31.855469-31.851563 17.589843 0 31.851562 14.261719 31.851562 31.851563zm0 0" fill="#a7e0f5"/><path d="m270.230469 318.25c-1.769531-1.769531-3.707031-3.28125-5.746094-4.550781 7.625 12.285156 6.113281 28.628906-4.554687 39.296875-10.664063 10.664062-27.007813 12.175781-39.296876 4.550781 1.269532 2.042969 2.78125 3.976563 4.554688 5.75 12.4375 12.441406 32.605469 12.441406 45.042969 0 12.441406-12.4375 12.441406-32.605469 0-45.046875zm0 0" fill="#59c2e7"/><path d="m132.691406 334.675781c0 17.589844-14.257812 31.851563-31.851562 31.851563-17.589844 0-31.851563-14.261719-31.851563-31.851563 0-17.59375 14.261719-31.851562 31.851563-31.851562 17.59375 0 31.851562 14.257812 31.851562 31.851562zm0 0" fill="#a7e0f5"/><path d="m123.363281 312.152344c-1.773437-1.773438-3.707031-3.285156-5.75-4.554688 7.625 12.289063 6.113281 28.632813-4.550781 39.296875-10.667969 10.667969-27.011719 12.179688-39.296875 4.554688 1.265625 2.042969 2.777344 3.976562 4.550781 5.75 12.441406 12.4375 32.609375 12.4375 45.046875 0 12.441407-12.441407 12.441407-32.609375 0-45.046875zm0 0" fill="#59c2e7"/><path d="m209.175781 411.160156c0 17.589844-14.257812 31.851563-31.851562 31.851563-17.589844 0-31.851563-14.261719-31.851563-31.851563 0-17.59375 14.261719-31.851562 31.851563-31.851562 17.59375 0 31.851562 14.257812 31.851562 31.851562zm0 0" fill="#a7e0f5"/><path d="m199.847656 388.636719c-1.773437-1.773438-3.707031-3.285157-5.75-4.550781 7.625 12.285156 6.117188 28.628906-4.550781 39.292968-10.667969 10.667969-27.011719 12.179688-39.296875 4.554688 1.265625 2.042968 2.78125 3.976562 4.550781 5.75 12.441407 12.4375 32.609375 12.4375 45.046875 0 12.4375-12.441406 12.4375-32.609375 0-45.046875zm0 0" fill="#59c2e7"/></svg>