<svg height="512pt" viewBox="0 -3 512 511" width="512pt" xmlns="http://www.w3.org/2000/svg"><path d="m138.421875 434.324219v38.808593c0 17.703126 14.355469 32.058594 32.058594 32.058594h18.738281c17.703125 0 32.058594-14.355468 32.058594-32.058594v-38.808593zm0 0" fill="#ebebeb"/><path d="m169.328125 473.132812v-38.808593h-30.90625v38.808593c0 17.703126 14.355469 32.058594 32.058594 32.058594h18.738281c2.082031 0 4.113281-.207031 6.085938-.585937-14.796876-2.84375-25.976563-15.847657-25.976563-31.472657zm0 0" fill="#d5d4da"/><path d="m87.90625 360.871094c0-39.742188-87.90625-64.328125-87.90625-180.523438 0-99.328125 80.519531-179.847656 179.851562-179.847656 99.328126 0 179.847657 80.519531 179.847657 179.847656 0 116.195313-87.90625 140.78125-87.90625 180.523438l-91.945313 24.925781zm0 0" fill="#f5e277"/><path d="m118.808594 360.871094c0-39.742188-87.902344-64.324219-87.902344-180.519532 0-94.125 72.304688-171.34375 164.398438-179.183593-5.097657-.433594-10.25-.667969-15.453126-.667969-99.332031 0-179.851562 80.519531-179.851562 179.847656 0 116.195313 87.90625 140.78125 87.90625 180.523438l91.945312 24.925781 15.453126-4.191406zm0 0" fill="#f0bc63"/><g fill="#334151"><path d="m101.148438 101.558594c-4.265626 0-7.722657-3.460938-7.722657-7.726563v-14.242187c0-4.269532 3.457031-7.726563 7.722657-7.726563 4.269531 0 7.726562 3.457031 7.726562 7.726563v14.242187c0 4.265625-3.457031 7.726563-7.726562 7.726563zm0 0"/><path d="m258.546875 101.558594c-4.265625 0-7.722656-3.460938-7.722656-7.726563v-14.242187c0-4.269532 3.457031-7.726563 7.722656-7.726563 4.269531 0 7.726563 3.457031 7.726563 7.726563v14.242187c0 4.265625-3.457032 7.726563-7.726563 7.726563zm0 0"/><path d="m179.851562 109.160156c-9.800781 0-19-4.09375-25.242187-11.234375-2.808594-3.214843-2.480469-8.09375.730469-10.902343 3.214844-2.808594 8.09375-2.480469 10.902344.730468 3.308593 3.785156 8.265624 5.953125 13.609374 5.953125 5.339844 0 10.300782-2.167969 13.605469-5.953125 2.808594-3.210937 7.691407-3.539062 10.902344-.730468 3.210937 2.808593 3.539063 7.6875.730469 10.902343-6.238282 7.140625-15.441406 11.234375-25.238282 11.234375zm0 0"/></g><path d="m254.617188 410.71875-74.765626-24.921875-74.769531 24.921875c-13.765625 0-24.921875 11.160156-24.921875 24.921875 0 13.765625 11.15625 24.921875 24.921875 24.921875h149.539063c13.761718 0 24.921875-11.15625 24.921875-24.921875 0-13.761719-11.160157-24.921875-24.925781-24.921875zm0 0" fill="#d5d4da"/><path d="m111.0625 435.640625c0-13.761719 11.160156-24.921875 24.921875-24.921875l59.316406-19.773438-15.453125-5.148437-74.765625 24.921875c-13.765625 0-24.925781 11.160156-24.925781 24.921875 0 13.765625 11.160156 24.921875 24.925781 24.921875h30.902344c-13.761719 0-24.921875-11.15625-24.921875-24.921875zm0 0" fill="#b8b5ca"/><path d="m271.796875 360.871094h-183.890625c-13.765625 0-24.925781 11.160156-24.925781 24.925781s11.160156 24.921875 24.925781 24.921875h183.890625c13.761719 0 24.921875-11.15625 24.921875-24.921875s-11.160156-24.925781-24.921875-24.925781zm0 0" fill="#ebebeb"/><path d="m93.886719 385.796875c0-13.765625 11.160156-24.925781 24.921875-24.925781h-30.902344c-13.765625 0-24.925781 11.160156-24.925781 24.925781 0 13.761719 11.160156 24.921875 24.925781 24.921875h30.902344c-13.765625 0-24.921875-11.160156-24.921875-24.921875zm0 0" fill="#d5d4da"/><path d="m469.667969 152.988281h-178.945313c-23.375 0-42.328125 18.953125-42.328125 42.332031v267.539063c0 23.378906 18.953125 42.332031 42.328125 42.332031h178.945313c23.378906 0 42.332031-18.953125 42.332031-42.332031v-267.539063c0-23.378906-18.953125-42.332031-42.332031-42.332031zm0 0" fill="#334151"/><path d="m290.722656 444.261719c-.941406 0-1.710937-.765625-1.710937-1.710938v-247.230469c0-.945312.769531-1.710937 1.710937-1.710937h178.945313c.945312 0 1.714843.765625 1.714843 1.710937v247.230469c0 .941407-.769531 1.710938-1.714843 1.710938zm0 0" fill="#76e6d5"/><path d="m469.667969 193.609375h-178.945313c-.941406 0-1.710937.765625-1.710937 1.710937v30.90625c0-.945312.769531-1.710937 1.710937-1.710937h178.945313c.945312 0 1.714843.765625 1.714843 1.710937v-30.90625c0-.945312-.769531-1.710937-1.714843-1.710937zm0 0" fill="#00ccac"/><path d="m385.613281 173.300781c0 2.988281-2.425781 5.414063-5.417969 5.414063-2.988281 0-5.414062-2.425782-5.414062-5.414063 0-2.992187 2.425781-5.417969 5.414062-5.417969 2.992188 0 5.417969 2.425782 5.417969 5.417969zm0 0" fill="#a6b6c4"/><path d="m390.519531 474.726562c0 5.703126-4.621093 10.324219-10.324219 10.324219-5.699218 0-10.324218-4.621093-10.324218-10.324219 0-5.703124 4.625-10.324218 10.324218-10.324218 5.703126 0 10.324219 4.621094 10.324219 10.324218zm0 0" fill="#a6b6c4"/><path d="m405.007812 252.929688h-49.621093c-11.589844 0-20.984375 9.394531-20.984375 20.984374 0 11.585938 9.394531 20.980469 20.984375 20.980469h49.621093c11.589844 0 20.984376-9.394531 20.984376-20.980469 0-11.589843-9.394532-20.984374-20.984376-20.984374zm0 0" fill="#ebebeb"/><path d="m405.007812 384.941406h-49.621093c-11.589844 0-20.984375-9.394531-20.984375-20.984375 0-11.585937 9.394531-20.980469 20.984375-20.980469h49.621093c11.589844 0 20.984376 9.394532 20.984376 20.980469 0 11.589844-9.394532 20.984375-20.984376 20.984375zm0 0" fill="#ff889e"/></svg>