<svg height="512pt" viewBox="-45 0 512 512" width="512pt" xmlns="http://www.w3.org/2000/svg"><path d="m31.492188 461.847656v32.261719c0 9.878906 8.011718 17.890625 17.894531 17.890625h32.707031c9.878906 0 17.890625-8.007812 17.890625-17.890625v-32.261719zm0 0" fill="#293441"/><path d="m390.597656 461.847656v32.261719c0 9.878906-8.011718 17.890625-17.890625 17.890625h-32.710937c-9.878906 0-17.890625-8.007812-17.890625-17.890625v-32.261719zm0 0" fill="#293441"/><path d="m211.046875 0 22.101563 151.429688-22.101563 129.902343-105.523437 21.527344-105.523438-21.527344v-249.847656c0-17.386719 14.097656-31.484375 31.492188-31.484375zm0 0" fill="#a6b6c4"/><g fill="#7a8fa4"><path d="m30.90625 281.332031v-249.847656c0-17.386719 14.09375-31.484375 31.492188-31.484375h-30.90625c-17.394532 0-31.492188 14.097656-31.492188 31.484375v249.847656l105.523438 21.527344 15.453124-3.152344zm0 0"/><path d="m151.179688 41.007812c-11.363282 0-20.574219 9.210938-20.574219 20.574219v165.6875c0 11.367188 9.210937 20.578125 20.574219 20.578125 11.363281 0 20.578124-9.210937 20.578124-20.578125v-165.6875c0-11.363281-9.214843-20.574219-20.578124-20.574219zm0 0"/><path d="m422.089844 31.484375v249.847656l-105.523438 21.527344-105.519531-21.527344v-281.332031h179.550781c17.394532 0 31.492188 14.097656 31.492188 31.484375zm0 0"/></g><path d="m422.089844 281.332031v159.285157c0 17.386718-14.097656 31.480468-31.492188 31.480468h-359.105468c-17.394532 0-31.492188-14.09375-31.492188-31.480468v-159.285157zm0 0" fill="#334151"/><path d="m30.90625 440.617188v-159.285157h-30.90625v159.285157c0 17.386718 14.097656 31.480468 31.492188 31.480468h30.90625c-17.398438.003906-31.492188-14.09375-31.492188-31.480468zm0 0" fill="#293441"/><path d="m252.050781 41.007812h129.03125v206.839844h-129.03125zm0 0" fill="#a7e0f5"/><path d="m252.050781 41.007812h129.03125v30.90625h-129.03125zm0 0" fill="#59c2e7"/><path d="m386.226562 333.824219c0-11.363281-9.210937-20.574219-20.574218-20.574219h-309.214844c-11.363281 0-20.574219 9.210938-20.574219 20.574219s9.210938 20.574219 20.574219 20.574219h309.214844c11.363281 0 20.574218-9.210938 20.574218-20.574219zm0 0" fill="#a6b6c4"/></svg>