<svg height="512pt" viewBox="-66 0 512 512" width="512pt" xmlns="http://www.w3.org/2000/svg"><path d="m268.785156 0h-156.863281c-61.8125 0-111.921875 50.109375-111.921875 111.921875v288.152344c0 61.816406 50.109375 111.925781 111.921875 111.925781h156.863281c61.8125 0 111.921875-50.109375 111.921875-111.921875v-288.15625c0-61.8125-50.109375-111.921875-111.921875-111.921875zm0 0" fill="#a6b6c4"/><path d="m111.921875 460.492188c-33.3125 0-60.414063-27.101563-60.414063-60.417969v-288.148438c0-33.3125 27.101563-60.417969 60.414063-60.417969h156.863281c33.3125 0 60.414063 27.101563 60.414063 60.417969v288.152344c0 33.3125-27.101563 60.414063-60.414063 60.414063zm0 0" fill="#ebebeb"/><path d="m82.414062 400.074219v-288.152344c0-33.3125 27.101563-60.414063 60.414063-60.414063h-30.90625c-33.3125 0-60.414063 27.101563-60.414063 60.414063v288.152344c0 33.316406 27.101563 60.417969 60.414063 60.417969h30.90625c-33.3125 0-60.414063-27.101563-60.414063-60.417969zm0 0" fill="#d5d4da"/><g fill="#334151"><path d="m125.402344 158.023438c-4.265625 0-7.726563-3.460938-7.726563-7.726563v-11.757813c0-4.265624 3.460938-7.722656 7.726563-7.722656 4.269531 0 7.726562 3.457032 7.726562 7.722656v11.757813c0 4.265625-3.457031 7.726563-7.726562 7.726563zm0 0"/><path d="m255.304688 158.023438c-4.269532 0-7.726563-3.460938-7.726563-7.726563v-11.757813c0-4.265624 3.457031-7.722656 7.726563-7.722656 4.265624 0 7.726562 3.457032 7.726562 7.722656v11.757813c0 4.265625-3.460938 7.726563-7.726562 7.726563zm0 0"/><path d="m190.355469 164.296875c-8.480469 0-16.441407-3.546875-21.851563-9.734375-2.804687-3.214844-2.480468-8.09375.734375-10.902344 3.214844-2.808594 8.09375-2.480468 10.902344.730469 2.472656 2.832031 6.195313 4.453125 10.214844 4.453125 4.015625 0 7.738281-1.621094 10.210937-4.453125 2.808594-3.210937 7.6875-3.539063 10.902344-.730469s3.542969 7.6875.734375 10.902344c-5.410156 6.1875-13.371094 9.734375-21.847656 9.734375zm0 0"/></g><path d="m288.90625 321.589844c0 54.429687-44.121094 98.550781-98.550781 98.550781-54.429688 0-98.554688-44.121094-98.554688-98.550781 0-54.429688 44.125-98.554688 98.554688-98.554688 54.429687 0 98.550781 44.125 98.550781 98.554688zm0 0" fill="#a6b6c4"/><path d="m190.355469 340.476562c-11.570313 0-20.949219 9.375-20.949219 20.945313v10.105469c0 5.988281 4.855469 10.839844 10.839844 10.839844h20.214844c5.988281 0 10.839843-4.851563 10.839843-10.839844v-10.105469c0-11.566406-9.378906-20.945313-20.945312-20.945313zm0 0" fill="#7a8fa4"/><path d="m148.804688 332.234375c-8.535157 0-15.453126-6.917969-15.453126-15.453125v-24.039062c0-8.53125 6.917969-15.453126 15.453126-15.453126 8.53125 0 15.453124 6.921876 15.453124 15.453126v24.039062c0 8.535156-6.921874 15.453125-15.453124 15.453125zm0 0" fill="#7a8fa4"/><path d="m231.90625 332.234375c8.53125 0 15.453125-6.917969 15.453125-15.453125v-24.039062c0-8.53125-6.921875-15.453126-15.453125-15.453126-8.535156 0-15.453125 6.921876-15.453125 15.453126v24.039062c0 8.535156 6.917969 15.453125 15.453125 15.453125zm0 0" fill="#7a8fa4"/></svg>