<svg height="512pt" viewBox="0 -35 512 512" width="512pt" xmlns="http://www.w3.org/2000/svg"><path d="m471.902344 0h-431.804688c-22.144531 0-40.097656 17.953125-40.097656 40.097656v362.132813c0 22.144531 17.953125 40.097656 40.097656 40.097656h431.804688c22.144531 0 40.097656-17.953125 40.097656-40.097656v-362.132813c0-22.144531-17.953125-40.097656-40.097656-40.097656zm0 0" fill="#334151"/><path d="m72.113281 51.507812h388.378907v339.308594h-388.378907zm0 0" fill="#ff889e"/><path d="m72.113281 51.511719h30.90625v339.304687h-30.90625zm0 0" fill="#fd5f7e"/><path d="m49.964844 221.164062c0 7.824219-6.34375 14.164063-14.167969 14.164063-7.820313 0-14.164063-6.339844-14.164063-14.164063 0-7.824218 6.34375-14.164062 14.164063-14.164062 7.824219 0 14.167969 6.339844 14.167969 14.164062zm0 0" fill="#a6b6c4"/><path d="m492.382812 221.164062c0 3.378907-2.742187 6.121094-6.121093 6.121094-3.382813 0-6.121094-2.742187-6.121094-6.121094 0-3.382812 2.738281-6.121093 6.121094-6.121093 3.378906 0 6.121093 2.738281 6.121093 6.121093zm0 0" fill="#a6b6c4"/><path d="m394.613281 93.988281h-256.621093c-11.636719 0-21.066407 9.429688-21.066407 21.066407 0 11.636718 9.429688 21.066406 21.066407 21.066406h256.621093c11.632813 0 21.066407-9.429688 21.066407-21.066406 0-11.636719-9.433594-21.066407-21.066407-21.066407zm0 0" fill="#ebebeb"/><path d="m288.183594 93.988281c-2.585938 6.527344-4.027344 13.628907-4.027344 21.066407s1.441406 14.539062 4.027344 21.066406h106.429687c.074219 0 .144531-.011719.21875-.011719 2.582031-6.523437 4.019531-13.621094 4.019531-21.054687 0-7.433594-1.4375-14.53125-4.019531-21.054688-.074219 0-.148437-.011719-.21875-.011719zm0 0" fill="#d5d4da"/><path d="m373.097656 115.054688c0 17.449218-14.144531 31.59375-31.59375 31.59375-17.445312 0-31.589844-14.144532-31.589844-31.59375 0-17.449219 14.144532-31.59375 31.589844-31.59375 17.449219 0 31.59375 14.144531 31.59375 31.59375zm0 0" fill="#fd5f7e"/><path d="m221.382812 216.363281-24.113281 16.496094-25.289062 38.753906 25.289062 38.75 24.113281 16.496094c8.851563 2.441406 17.59375-4.21875 17.59375-13.398437v-83.699219c0-9.179688-8.742187-15.839844-17.59375-13.398438zm0 0" fill="#d5d4da"/><g fill="#ebebeb"><path d="m157.464844 232.859375c-8.667969 0-15.695313 7.027344-15.695313 15.699219v46.105468c0 8.671876 7.027344 15.699219 15.695313 15.699219h39.804687v-77.503906zm0 0"/><path d="m339.730469 352.355469c0-3.328125 1.25-6.65625 3.761719-9.21875 18.835937-19.214844 29.207031-44.617188 29.207031-71.527344 0-26.90625-10.371094-52.308594-29.199219-71.523437-5.089844-5.195313-5.007812-13.535157.1875-18.625 5.195312-5.089844 13.53125-5.003907 18.621094.191406 23.683594 24.167968 36.726562 56.113281 36.726562 89.953125 0 33.847656-13.042968 65.796875-36.734375 89.964843-5.089843 5.195313-13.425781 5.277344-18.621093.1875-2.632813-2.578124-3.949219-5.988281-3.949219-9.402343zm0 0"/><path d="m286.476562 321.628906c0-3.324218 1.253907-6.652344 3.765626-9.21875 10.742187-10.960937 16.660156-25.449218 16.660156-40.804687 0-15.347657-5.917969-29.835938-16.65625-40.796875-5.09375-5.195313-5.007813-13.53125.1875-18.625 5.191406-5.089844 13.53125-5.003906 18.621094.1875 15.59375 15.914062 24.183593 36.953125 24.183593 59.234375 0 22.289062-8.589843 43.324219-24.1875 59.242187-5.089843 5.191406-13.429687 5.277344-18.625.1875-2.628906-2.578125-3.949219-5.992187-3.949219-9.40625zm0 0"/></g></svg>