<svg height="512pt" viewBox="-42 0 512 512.00103" width="512pt" xmlns="http://www.w3.org/2000/svg"><path d="m397.253906 0h-366.664062c-16.894532 0-30.589844 13.695312-30.589844 30.589844v450.824218c0 16.890626 13.695312 30.585938 30.589844 30.585938h366.664062c16.894532 0 30.589844-13.691406 30.589844-30.585938v-450.824218c0-16.894532-13.695312-30.589844-30.589844-30.589844zm0 0" fill="#59c2e7"/><path d="m373.355469 237.457031h-113.789063c-12.3125-11.359375-28.570312-17.855469-45.644531-17.855469-37.113281 0-67.304687 30.191407-67.304687 67.304688s30.191406 67.304688 67.304687 67.304688c17.074219 0 33.332031-6.496094 45.644531-17.855469h113.789063c21.53125 0 39.046875-17.519531 39.046875-39.050781v-20.800782c0-21.53125-17.515625-39.046875-39.046875-39.046875zm0 0" fill="#00a2d7"/><path d="m75.042969 51.507812h277.757812v408.984376h-277.757812zm0 0" fill="#f5e277"/><g fill="#334151"><path d="m129.988281 389.027344c-4.265625 0-7.726562-3.460938-7.726562-7.726563v-15.191406c0-4.265625 3.460937-7.726563 7.726562-7.726563 4.269531 0 7.726563 3.460938 7.726563 7.726563v15.191406c0 4.265625-3.457032 7.726563-7.726563 7.726563zm0 0"/><path d="m297.855469 389.027344c-4.269531 0-7.726563-3.460938-7.726563-7.726563v-15.191406c0-4.265625 3.457032-7.726563 7.726563-7.726563 4.265625 0 7.722656 3.460938 7.722656 7.726563v15.191406c0 4.265625-3.457031 7.726563-7.722656 7.726563zm0 0"/><path d="m213.921875 397.136719c-10.304687 0-19.972656-4.304688-26.53125-11.808594-2.808594-3.214844-2.480469-8.09375.730469-10.902344 3.214844-2.808593 8.09375-2.480469 10.902344.730469 3.625 4.148438 9.054687 6.527344 14.898437 6.527344s11.273437-2.378906 14.898437-6.527344c2.808594-3.210938 7.691407-3.539062 10.902344-.730469 3.214844 2.808594 3.542969 7.691407.734375 10.902344-6.5625 7.503906-16.234375 11.808594-26.535156 11.808594zm0 0"/></g><path d="m352.800781 237.457031h-93.234375c-12.3125-11.359375-28.570312-17.855469-45.644531-17.855469-37.113281 0-67.304687 30.191407-67.304687 67.304688s30.191406 67.304688 67.304687 67.304688c17.074219 0 33.332031-6.496094 45.644531-17.855469h93.234375zm0 0" fill="#f0bc63"/><path d="m373.355469 263.210938h-125.308594c-7.503906-10.789063-19.984375-17.855469-34.125-17.855469-22.949219 0-41.550781 18.601562-41.550781 41.550781 0 22.945312 18.601562 41.550781 41.550781 41.550781 14.136719 0 26.621094-7.070312 34.125-17.859375h125.308594c7.339843 0 13.292969-5.949218 13.292969-13.292968v-20.800782c0-7.339844-5.953126-13.292968-13.292969-13.292968zm0 0" fill="#ebebeb"/><path d="m298.929688 160.042969c-3.5 0-7.003907-1.316407-9.703126-3.960938-20.230468-19.832031-46.976562-30.75-75.308593-30.75-28.328125 0-55.070313 10.917969-75.300781 30.742188-5.472657 5.359375-14.25 5.273437-19.609376-.199219-5.359374-5.46875-5.269531-14.246094.199219-19.605469 25.445313-24.933593 59.082031-38.667969 94.710938-38.667969 35.632812 0 69.273437 13.734376 94.71875 38.675782 5.46875 5.359375 5.558593 14.136718.199219 19.605468-2.71875 2.769532-6.308594 4.160157-9.90625 4.160157zm0 0" fill="#59c2e7"/><path d="m266.582031 205.261719c-3.5 0-7.003906-1.316407-9.703125-3.960938-11.542968-11.3125-26.796875-17.539062-42.960937-17.539062-16.160157 0-31.417969 6.226562-42.957031 17.535156-5.46875 5.359375-14.25 5.269531-19.605469-.199219-5.359375-5.46875-5.273438-14.246094.195312-19.605468 16.757813-16.417969 38.90625-25.460938 62.367188-25.460938 23.464843 0 45.613281 9.042969 62.371093 25.464844 5.46875 5.359375 5.554688 14.140625.195313 19.609375-2.714844 2.769531-6.304687 4.15625-9.902344 4.15625zm0 0" fill="#59c2e7"/></svg>