<svg height="512pt" viewBox="0 -14 512.00006 512" width="512pt" xmlns="http://www.w3.org/2000/svg"><path d="m159.832031 9.910156c13.152344-13.214844 34.734375-13.214844 47.886719 0 250.449219 251.613282 178.789062 473.910156-23.941406 473.910156-202.730469 0-274.390625-222.296874-23.945313-473.910156zm0 0" fill="#59c2e7"/><path d="m224.984375 463.21875c-199.695313 0-272.214844-215.695312-34.964844-462.640625-10.621093-1.972656-22.027343 1.132813-30.1875 9.332031-250.445312 251.613282-178.785156 473.910156 23.945313 473.910156 46.230468 0 85.640625-11.5625 115.972656-32.394531-22.195312 7.695313-47.273438 11.792969-74.765625 11.792969zm0 0" fill="#00a2d7"/><g fill="#334151"><path d="m118.199219 174.273438c-4.265625 0-7.726563-3.457032-7.726563-7.726563v-11.867187c0-4.265626 3.460938-7.726563 7.726563-7.726563s7.726562 3.460937 7.726562 7.726563v11.867187c0 4.269531-3.460937 7.726563-7.726562 7.726563zm0 0"/><path d="m249.355469 174.273438c-4.265625 0-7.726563-3.457032-7.726563-7.726563v-11.867187c0-4.265626 3.460938-7.726563 7.726563-7.726563 4.269531 0 7.726562 3.460937 7.726562 7.726563v11.867187c0 4.269531-3.457031 7.726563-7.726562 7.726563zm0 0"/><path d="m183.777344 180.609375c-8.539063 0-16.558594-3.574219-22.003906-9.804687-2.808594-3.210938-2.480469-8.089844.734374-10.902344 3.210938-2.808594 8.09375-2.480469 10.902344.734375 2.511719 2.871093 6.289063 4.519531 10.367188 4.519531s7.855468-1.648438 10.367187-4.519531c2.808594-3.214844 7.691407-3.542969 10.902344-.734375 3.214844 2.808594 3.542969 7.691406.734375 10.902344-5.445312 6.230468-13.464844 9.804687-22.003906 9.804687zm0 0"/></g><path d="m512 315.964844c0 78.820312-63.898438 142.71875-142.71875 142.71875-78.824219 0-142.722656-63.898438-142.722656-142.71875 0-78.824219 63.898437-142.722656 142.722656-142.722656 78.820312 0 142.71875 63.898437 142.71875 142.722656zm0 0" fill="#fd5f7e"/><path d="m369.28125 412.691406c-52.53125 0-95.269531-42.734375-95.269531-95.265625 0-27.433593 11.835937-53.546875 32.472656-71.648437 6.550781-5.742188 16.511719-5.089844 22.253906 1.457031 5.742188 6.546875 5.089844 16.511719-1.457031 22.253906-13.8125 12.113281-21.734375 29.585938-21.734375 47.9375 0 35.140625 28.589844 63.730469 63.734375 63.730469 35.140625 0 63.730469-28.589844 63.730469-63.730469 0-18.351562-7.917969-35.824219-21.730469-47.9375-6.546875-5.742187-7.199219-15.703125-1.457031-22.253906 5.742187-6.546875 15.703125-7.199219 22.253906-1.457031 20.636719 18.101562 32.472656 44.214844 32.472656 71.648437 0 52.53125-42.738281 95.265625-95.269531 95.265625zm0 0" fill="#ebebeb"/><path d="m369.28125 296.035156c-8.710938 0-15.769531-7.058594-15.769531-15.769531v-45.261719c0-8.707031 7.058593-15.769531 15.769531-15.769531 8.707031 0 15.765625 7.0625 15.765625 15.769531v45.261719c0 8.710937-7.058594 15.769531-15.765625 15.769531zm0 0" fill="#ebebeb"/></svg>