<svg height="512pt" viewBox="0 -22 512 512" width="512pt" xmlns="http://www.w3.org/2000/svg"><path d="m414.441406 95.125h31.484375v145.769531h-31.484375zm0 0" fill="#7a8fa4"/><path d="m37.226562 402.65625v45.605469c0 11.246093 9.117188 20.363281 20.363282 20.363281h48.457031c11.246094 0 20.363281-9.117188 20.363281-20.363281v-45.605469zm0 0" fill="#334151"/><path d="m68.132812 448.261719v-45.605469h-30.90625v45.605469c0 11.246093 9.117188 20.363281 20.363282 20.363281h30.902344c-11.242188 0-20.359376-9.117188-20.359376-20.363281zm0 0" fill="#293441"/><path d="m474.773438 402.65625v45.605469c0 11.246093-9.117188 20.363281-20.363282 20.363281h-48.457031c-11.246094 0-20.363281-9.117188-20.363281-20.363281v-45.605469zm0 0" fill="#334151"/><path d="m416.496094 448.261719v-45.605469h-30.90625v45.605469c0 11.246093 9.117187 20.363281 20.363281 20.363281h30.90625c-11.246094 0-20.363281-9.117188-20.363281-20.363281zm0 0" fill="#293441"/><path d="m308.445312 224.921875h-35.910156l-24.035156 18.96875-24.035156-18.96875h-35.910156l-24.039063 18.96875-24.039063-18.96875h-35.914062l-24.039062 18.96875-24.039063-18.96875h-19.265625c-20.550781 0-37.21875 16.671875-37.21875 37.222656v123.890625c0 20.5625 16.667969 37.21875 37.21875 37.21875h437.5625c20.550781 0 37.21875-16.65625 37.21875-37.21875v-123.890625c0-20.550781-16.667969-37.222656-37.21875-37.222656h-118.257812l-24.039063 18.96875zm0 0" fill="#a6b6c4"/><path d="m30.90625 386.035156v-123.890625c0-17.113281 11.558594-31.523437 27.289062-35.871093l-1.710937-1.351563h-19.265625c-20.550781 0-37.21875 16.671875-37.21875 37.222656v123.890625c0 20.5625 16.667969 37.21875 37.21875 37.21875h30.90625c-20.550781 0-37.21875-16.65625-37.21875-37.21875zm0 0" fill="#7a8fa4"/><path d="m157.644531 341.433594c-4.265625 0-7.726562-3.460938-7.726562-7.726563v-17.800781c0-4.265625 3.460937-7.726562 7.726562-7.726562s7.726563 3.460937 7.726563 7.726562v17.800781c0 4.265625-3.460938 7.726563-7.726563 7.726563zm0 0" fill="#334151"/><path d="m354.355469 341.433594c-4.265625 0-7.726563-3.460938-7.726563-7.726563v-17.800781c0-4.265625 3.460938-7.726562 7.726563-7.726562s7.726562 3.460937 7.726562 7.726562v17.800781c0 4.265625-3.460937 7.726563-7.726562 7.726563zm0 0" fill="#334151"/><path d="m256 350.9375c-11.691406 0-22.660156-4.878906-30.09375-13.382812-2.808594-3.214844-2.480469-8.09375.734375-10.902344 3.210937-2.808594 8.089844-2.480469 10.902344.730468 4.5 5.148438 11.226562 8.101563 18.457031 8.101563s13.957031-2.953125 18.457031-8.101563c2.808594-3.210937 7.691407-3.539062 10.902344-.730468 3.214844 2.808594 3.542969 7.6875.734375 10.902344-7.433594 8.503906-18.402344 13.382812-30.09375 13.382812zm0 0" fill="#334151"/><g fill="#f5e277"><path d="m104.5625 224.921875v24.34375c0 7.5-6.085938 13.589844-13.585938 13.589844h-20.902343c-7.5 0-13.589844-6.089844-13.589844-13.589844v-24.34375zm0 0"/><path d="m188.554688 224.921875v24.34375c0 7.5-6.089844 13.589844-13.597657 13.589844h-20.894531c-7.5 0-13.585938-6.089844-13.585938-13.589844v-24.34375zm0 0"/><path d="m272.535156 224.921875v24.34375c0 7.5-6.078125 13.589844-13.589844 13.589844h-20.890624c-7.511719 0-13.589844-6.089844-13.589844-13.589844v-24.34375zm0 0"/><path d="m356.523438 224.921875v24.34375c0 7.5-6.085938 13.589844-13.585938 13.589844h-20.902344c-7.5 0-13.589844-6.089844-13.589844-13.589844v-24.34375zm0 0"/></g><path d="m442.835938 15.613281h-25.308594c-9.222656 0-16.699219 7.476563-16.699219 16.699219v63.433594c0 9.226562 7.476563 16.703125 16.699219 16.703125h25.308594c9.226562 0 16.703124-7.476563 16.703124-16.703125v-63.433594c0-9.222656-7.476562-16.699219-16.703124-16.699219zm0 0" fill="#a6b6c4"/><path d="m326.511719 80.210938c-3.710938 0-7.425781-1.398438-10.289063-4.203126-30.664062-30.054687-71.203125-46.605468-114.144531-46.605468-42.9375 0-83.472656 16.546875-114.136719 46.597656-5.800781 5.679688-15.105468 5.585938-20.789062-.210938-5.679688-5.800781-5.585938-15.105468.210937-20.789062 36.195313-35.464844 84.039063-55 134.714844-55 50.683594 0 98.53125 19.535156 134.726563 55.011719 5.796874 5.679687 5.890624 14.988281.207031 20.785156-2.878907 2.9375-6.6875 4.414063-10.5 4.414063zm0 0" fill="#59c2e7"/><path d="m292.214844 132.082031c-3.710938 0-7.425782-1.398437-10.289063-4.203125-21.449219-21.023437-49.808593-32.601562-79.847656-32.601562-30.035156 0-58.390625 11.574218-79.839844 32.597656-5.800781 5.679688-15.105469 5.585938-20.789062-.210938-5.679688-5.800781-5.585938-15.105468.210937-20.789062 26.980469-26.4375 62.640625-40.996094 100.417969-40.996094 37.78125 0 73.445313 14.5625 100.425781 41.003906 5.800782 5.683594 5.894532 14.988282.210938 20.789063-2.878906 2.9375-6.6875 4.410156-10.5 4.410156zm0 0" fill="#00a2d7"/><path d="m257.917969 183.953125c-3.714844 0-7.429688-1.398437-10.289063-4.199219-12.238281-11.992187-28.414062-18.597656-45.550781-18.597656s-33.308594 6.601562-45.546875 18.59375c-5.796875 5.679688-15.105469 5.585938-20.789062-.210938-5.679688-5.800781-5.585938-15.105468.210937-20.789062 17.765625-17.40625 41.25-26.996094 66.125-26.996094 24.878906 0 48.363281 9.589844 66.128906 27 5.796875 5.683594 5.890625 14.992188.207031 20.789063-2.875 2.9375-6.683593 4.410156-10.496093 4.410156zm0 0" fill="#59c2e7"/></svg>