<svg height="512pt" viewBox="-53 0 512 512" width="512pt" xmlns="http://www.w3.org/2000/svg"><path d="m364.617188 0h-323.492188c-22.710938 0-41.125 18.414062-41.125 41.125v429.75c0 22.710938 18.414062 41.125 41.125 41.125h323.496094c22.710937 0 41.125-18.414062 41.125-41.125v-429.75c0-22.710938-18.414063-41.125-41.128906-41.125zm0 0" fill="#4677d4"/><path d="m46.359375 46.359375h313.027344v388.378906h-313.027344zm0 0" fill="#00ccac"/><path d="m46.359375 46.359375h30.902344v388.378906h-30.902344zm0 0" fill="#00ad8d"/><path d="m209.90625 23.179688c0 3.882812-3.148438 7.03125-7.035156 7.03125-3.882813 0-7.03125-3.148438-7.03125-7.03125 0-3.882813 3.148437-7.03125 7.03125-7.03125 3.886718 0 7.035156 3.148437 7.035156 7.03125zm0 0" fill="#7292df"/><path d="m218.152344 473.367188c0 8.441406-6.839844 15.28125-15.28125 15.28125-8.4375 0-15.277344-6.839844-15.277344-15.28125 0-8.4375 6.839844-15.277344 15.277344-15.277344 8.441406 0 15.28125 6.839844 15.28125 15.277344zm0 0" fill="#7292df"/><path d="m240.96875 259.957031v-146.21875c0-21.039062-17.054688-38.09375-38.097656-38.09375-21.039063 0-38.09375 17.054688-38.09375 38.09375v146.21875c-24.648438 13.488281-41.363282 39.660157-41.363282 69.738281 0 43.882813 35.574219 79.457032 79.457032 79.457032 43.886718 0 79.460937-35.574219 79.460937-79.457032 0-30.078124-16.71875-56.246093-41.363281-69.738281zm0 0" fill="#ebebeb"/><path d="m202.871094 383.398438c-29.609375 0-53.699219-24.089844-53.699219-53.703126 0-19.636718 10.71875-37.703124 27.972656-47.148437l13.386719-7.328125v-161.480469c0-6.804687 5.535156-12.339843 12.339844-12.339843 6.804687 0 12.34375 5.535156 12.34375 12.339843v161.480469l13.386718 7.328125c17.253907 9.445313 27.972657 27.511719 27.972657 47.148437 0 29.613282-24.089844 53.703126-53.703125 53.703126zm0 0" fill="#ff889e"/><g fill="#334151"><path d="m164.777344 128h25.753906v15.453125h-25.753906zm0 0"/><path d="m164.777344 155.558594h25.753906v15.453125h-25.753906zm0 0"/><path d="m164.777344 183.113281h25.753906v15.453125h-25.753906zm0 0"/><path d="m164.777344 210.671875h25.753906v15.453125h-25.753906zm0 0"/><path d="m164.777344 238.230469h25.753906v15.453125h-25.753906zm0 0"/></g></svg>