<svg height="512pt" viewBox="-2 0 512 512.00071" width="512pt" xmlns="http://www.w3.org/2000/svg"><path d="m100.527344 436.042969h-55.960938c-22.265625 0-40.382812-18.117188-40.382812-40.382813 0-22.269531 18.117187-40.386718 40.382812-40.386718h55.960938c7.085937 0 12.832031 5.746093 12.832031 12.835937 0 7.085937-5.746094 12.832031-12.832031 12.832031h-55.960938c-8.113281 0-14.714844 6.601563-14.714844 14.71875 0 8.113282 6.601563 14.714844 14.714844 14.714844h55.960938c7.085937 0 12.832031 5.746094 12.832031 12.832031 0 7.089844-5.746094 12.835938-12.832031 12.835938zm0 0" fill="#ebebeb"/><path d="m202.433594 330.265625h-116.144532c-11.339843 0-20.535156 9.191406-20.535156 20.535156v55.058594c0 33.722656 27.335938 61.058594 61.058594 61.058594l17.546875 13.960937 17.550781-13.960937c33.71875 0 61.054688-27.335938 61.054688-61.058594v-55.058594c0-11.34375-9.191406-20.535156-20.53125-20.535156zm0 0" fill="#ebebeb"/><path d="m157.71875 466.917969c-33.722656 0-61.058594-27.335938-61.058594-61.058594v-55.058594c0-11.34375 9.195313-20.535156 20.535156-20.535156h-30.90625c-11.339843 0-20.535156 9.191406-20.535156 20.535156v55.058594c0 33.722656 27.335938 61.058594 61.058594 61.058594l17.546875 13.960937 15.453125-12.292968zm0 0" fill="#d5d4da"/><path d="m84.253906 232.050781v45.695313c0 12.964844 10.507813 23.476562 23.476563 23.476562h52.726562c12.964844 0 23.476563-10.511718 23.476563-23.476562v-45.695313zm0 0" fill="#334151"/><path d="m115.15625 277.746094v-45.695313h-30.902344v45.695313c0 12.964844 10.507813 23.476562 23.476563 23.476562h30.90625c-12.96875 0-23.480469-10.511718-23.480469-23.476562zm0 0" fill="#293441"/><path d="m255.472656 252.585938v214.332031h-240.792968c-8.105469 0-14.679688 6.570312-14.679688 14.679687v15.722656c0 8.105469 6.574219 14.679688 14.679688 14.679688h349.523437v-259.414062l-54.363281-22.746094zm0 0" fill="#334151"/><path d="m264.925781 153.308594h-187.015625c-43.027344 0-77.910156 34.882812-77.910156 77.910156 0 11.800781 9.566406 21.367188 21.367188 21.367188h342.835937c0-54.828126-44.449219-99.277344-99.277344-99.277344zm0 0" fill="#ff889e"/><path d="m30.90625 231.21875c0-43.027344 34.878906-77.910156 77.90625-77.910156h-30.902344c-43.027344 0-77.910156 34.882812-77.910156 77.90625 0 11.800781 9.566406 21.367187 21.367188 21.367187h30.90625c-11.800782.003907-21.367188-9.5625-21.367188-21.363281zm0 0" fill="#fd5f7e"/><g fill="#334151"><path d="m82.992188 216.730469c-4.265626 0-7.726563-3.457031-7.726563-7.722657v-12.78125c0-4.265624 3.460937-7.726562 7.726563-7.726562 4.269531 0 7.726562 3.460938 7.726562 7.726562v12.78125c0 4.265626-3.457031 7.722657-7.726562 7.722657zm0 0"/><path d="m224.210938 216.730469c-4.269532 0-7.726563-3.457031-7.726563-7.722657v-12.78125c0-4.265624 3.457031-7.726562 7.726563-7.726562 4.265624 0 7.726562 3.460938 7.726562 7.726562v12.78125c0 4.265626-3.460938 7.722657-7.726562 7.722657zm0 0"/><path d="m153.601562 223.554688c-9.019531 0-17.492187-3.773438-23.246093-10.351563-2.804688-3.214844-2.480469-8.09375.734375-10.902344 3.210937-2.808593 8.09375-2.480469 10.902344.730469 2.816406 3.222656 7.046874 5.070312 11.609374 5.070312s8.792969-1.847656 11.609376-5.070312c2.8125-3.210938 7.691406-3.539062 10.902343-.730469 3.214844 2.808594 3.542969 7.6875.734375 10.902344-5.753906 6.578125-14.226562 10.351563-23.246094 10.351563zm0 0"/></g><path d="m329.492188 320.878906c0 10.851563-8.800782 19.652344-19.65625 19.652344-10.851563 0-19.652344-8.800781-19.652344-19.652344 0-10.855468 8.800781-19.65625 19.652344-19.65625 10.855468 0 19.65625 8.800782 19.65625 19.65625zm0 0" fill="#ff889e"/><path d="m329.492188 402.636719c0 10.855469-8.800782 19.652343-19.65625 19.652343-10.851563 0-19.652344-8.796874-19.652344-19.652343s8.800781-19.652344 19.652344-19.652344c10.855468 0 19.65625 8.796875 19.65625 19.652344zm0 0" fill="#ebebeb"/><path d="m396.816406 134.730469c0 13.070312-10.597656 23.667969-23.671875 23.667969-13.070312 0-23.667969-10.597657-23.667969-23.667969 0-13.074219 10.597657-23.671875 23.667969-23.671875 13.074219 0 23.671875 10.597656 23.671875 23.671875zm0 0" fill="#59c2e7"/><path d="m484.414062 142.628906c-2.453124-2.457031-3.984374-5.835937-4.023437-9.582031-.28125-28.074219-11.375-54.476563-31.230469-74.332031-19.855468-19.855469-46.25-30.945313-74.324218-31.230469-7.589844-.078125-13.679688-6.292969-13.605469-13.882813.078125-7.585937 6.292969-13.6757808 13.882812-13.601562 35.308594.359375 68.507813 14.308594 93.480469 39.28125 24.976562 24.972656 38.925781 58.175781 39.28125 93.492188.074219 7.589843-6.015625 13.800781-13.605469 13.878906-3.84375.039062-7.335937-1.503906-9.855469-4.023438zm0 0" fill="#59c2e7"/><path d="m430.050781 151.648438c-2.457031-2.453126-3.988281-5.835938-4.023437-9.578126-.164063-16.019531-6.488282-31.078124-17.816406-42.40625-11.328126-11.324218-26.386719-17.652343-42.402344-17.8125-7.585938-.078124-13.679688-6.292968-13.601563-13.882812s6.292969-13.679688 13.882813-13.601562c23.25.234374 45.109375 9.421874 61.554687 25.863281 16.445313 16.445312 25.628907 38.308593 25.863281 61.5625.078126 7.589843-6.011718 13.804687-13.601562 13.878906-3.84375.039063-7.335938-1.503906-9.855469-4.023437zm0 0" fill="#00a2d7"/></svg>