<svg height="511pt" viewBox="-77 1 511 511.99869" width="511pt" xmlns="http://www.w3.org/2000/svg"><path d="m101.976562 94.472656c0 13.027344-10.558593 23.585938-23.585937 23.585938-13.023437 0-23.585937-10.558594-23.585937-23.585938 0-13.023437 10.5625-23.585937 23.585937-23.585937 13.027344 0 23.585937 10.5625 23.585937 23.585937zm0 0" fill="#00ccac"/><path d="m167.855469 94.472656c0 13.027344-10.558594 23.585938-23.585938 23.585938-13.027343 0-23.585937-10.558594-23.585937-23.585938 0-13.023437 10.558594-23.585937 23.585937-23.585937 13.027344 0 23.585938 10.5625 23.585938 23.585937zm0 0" fill="#00ccac"/><path d="m136.695312 79.914062c0 14.007813-11.355468 25.363282-25.363281 25.363282-14.011719 0-25.367187-11.355469-25.367187-25.363282 0-14.011718 11.355468-25.367187 25.367187-25.367187 14.007813 0 25.363281 11.355469 25.363281 25.367187zm0 0" fill="#76e6d5"/><path d="m194.007812 179.84375c0-47.207031-37.015624-85.472656-82.675781-85.472656-45.664062 0-82.679687 38.265625-82.679687 85.472656s37.015625 85.472656 82.679687 85.472656c45.660157 0 82.675781-38.265625 82.675781-85.472656zm0 0" fill="#f5e277"/><path d="m59.558594 179.84375c0-41.742188 28.953125-76.476562 67.226562-83.960938-5.011718-.980468-10.171875-1.511718-15.453125-1.511718-45.660156 0-82.679687 38.265625-82.679687 85.472656s37.015625 85.472656 82.679687 85.472656c5.28125 0 10.441407-.53125 15.453125-1.511718-38.273437-7.484376-67.226562-42.21875-67.226562-83.960938zm0 0" fill="#f0bc63"/><path d="m302.175781 5.601562c-33.902343-14.785156-73.371093.710938-88.15625 34.613282l-64.167969 147.117187 122.773438 53.546875 64.164062-147.117187c14.789063-33.902344-.707031-73.375-34.613281-88.160157zm0 0" fill="#f0bc63"/><path d="m297.835938 52.574219-25.175782-10.976563c-10.242187-4.46875-22.171875.214844-26.640625 10.457032-3.265625 7.492187.15625 16.214843 7.648438 19.480468l35.144531 15.328125c7.492188 3.269531 16.214844-.15625 19.480469-7.648437 4.46875-10.242188-.210938-22.171875-10.457031-26.640625zm0 0" fill="#f5e277"/><path d="m271.359375 113.277344-25.171875-10.980469c-10.246094-4.464844-22.171875.214844-26.640625 10.460937-3.269531 7.492188.15625 16.214844 7.648437 19.480469l35.144532 15.328125c7.488281 3.269532 16.210937-.15625 19.480468-7.648437 4.46875-10.246094-.214843-22.171875-10.460937-26.640625zm0 0" fill="#f5e277"/><path d="m338.113281 170.78125-34.144531 15.503906c-3.652344 1.65625-7.84375 1.65625-11.496094 0l-48.046875-21.816406c-3.652343-1.660156-7.84375-1.660156-11.496093 0l-48.046876 21.816406c-3.65625 1.65625-7.84375 1.65625-11.5 0l-48.046874-21.816406c-3.652344-1.660156-7.84375-1.660156-11.496094 0l-48.046875 21.816406c-3.652344 1.65625-7.84375 1.65625-11.496094 0l-34.144531-15.503906c-9.207032-4.179688-19.652344 2.546875-19.652344 12.65625v282.136719c0 25.640625 20.785156 46.425781 46.425781 46.425781h264.414063c25.640625 0 46.425781-20.785156 46.425781-46.425781v-282.136719c0-10.109375-10.449219-16.835938-19.652344-12.65625zm0 0" fill="#59c2e7"/><path d="m31.40625 465.574219v-282.136719c0-2.496094.636719-4.785156 1.738281-6.757812l-12.992187-5.902344c-9.207032-4.179688-19.652344 2.550781-19.652344 12.660156v282.136719c0 25.636719 20.785156 46.421875 46.425781 46.421875h30.902344c-25.636719.003906-46.421875-20.78125-46.421875-46.421875zm0 0" fill="#00a2d7"/><g fill="#ebebeb"><path d="m298.722656 324.851562c-3.566406 0-7.140625-1.34375-9.890625-4.039062-29.472656-28.886719-68.433593-44.796875-109.707031-44.796875-41.265625 0-80.226562 15.90625-109.699219 44.789063-5.570312 5.460937-14.515625 5.367187-19.976562-.203126-5.460938-5.574218-5.371094-14.519531.203125-19.980468 34.785156-34.085938 80.765625-52.863282 129.472656-52.863282 48.714844 0 94.699219 18.777344 129.488281 52.871094 5.570313 5.464844 5.664063 14.410156.199219 19.980469-2.765625 2.824219-6.425781 4.242187-10.089844 4.242187zm0 0"/><path d="m265.757812 376.15625c-3.566406 0-7.136718-1.34375-9.886718-4.039062-20.617188-20.203126-47.871094-31.332032-76.746094-31.332032-28.867188 0-56.117188 11.125-76.734375 31.328125-5.574219 5.460938-14.519531 5.371094-19.980469-.203125-5.460937-5.570312-5.371094-14.519531.203125-19.980468 25.929688-25.40625 60.207031-39.402344 96.511719-39.402344 36.3125 0 70.59375 13.996094 96.523438 39.410156 5.570312 5.464844 5.664062 14.40625.199218 19.980469-2.765625 2.824219-6.425781 4.238281-10.089844 4.238281zm0 0"/><path d="m232.792969 427.464844c-3.566407 0-7.136719-1.34375-9.886719-4.039063-11.761719-11.527343-27.308594-17.875-43.78125-17.875-16.46875 0-32.011719 6.347657-43.773438 17.871094-5.574218 5.460937-14.519531 5.367187-19.980468-.203125-5.460938-5.574219-5.367188-14.519531.203125-19.980469 17.074219-16.730469 39.644531-25.945312 63.554687-25.945312s46.480469 9.214843 63.554688 25.949219c5.574218 5.464843 5.664062 14.410156.203125 19.980468-2.769531 2.824219-6.429688 4.242188-10.09375 4.242188zm0 0"/></g></svg>