<svg id="Layer_1" enable-background="new 0 0 512 512" height="512" viewBox="0 0 512 512" width="512" xmlns="http://www.w3.org/2000/svg"><g><circle cx="368" cy="428" fill="#f8e9d2" r="48"/><circle cx="192" cy="428" fill="#f8e9d2" r="48"/><path d="m416 428c0 26.47-21.53 48-48 48-4.14 0-8.15-.53-11.99-1.51 20.67-5.35 35.99-24.16 35.99-46.49s-15.32-41.14-35.99-46.49c3.84-.98 7.85-1.51 11.99-1.51 26.47 0 48 21.53 48 48z" fill="#e4d5c1"/><path d="m240 428c0 26.47-21.53 48-48 48-4.14 0-8.15-.53-11.99-1.51 20.67-5.35 35.99-24.16 35.99-46.49s-15.32-41.14-35.99-46.49c3.84-.98 7.85-1.51 11.99-1.51 26.47 0 48 21.53 48 48z" fill="#e4d5c1"/><path d="m511.19 135.55-39.42 183.99c-3.55 16.49-18.35 28.46-35.21 28.46h-333.49c-7.98 0-14.74-5.88-15.85-13.79l-31.26-224c-.64-4.58.74-9.22 3.78-12.71 3.04-3.5 7.44-5.5 12.07-5.5h404.18c10.93 0 21.14 4.87 28 13.37 6.87 8.5 9.49 19.49 7.2 30.18z" fill="#e2e0e0"/><path d="m511.19 135.55-39.42 183.99c-3.55 16.49-18.35 28.46-35.21 28.46h-31.81c16.86 0 31.66-11.97 35.21-28.46l39.42-183.99c2.29-10.69-.33-21.68-7.2-30.18-6.86-8.5-17.07-13.37-28-13.37h31.81c10.93 0 21.14 4.87 28 13.37 6.87 8.5 9.49 19.49 7.2 30.18z" fill="#cecccc"/><path d="m448 412h-318.597c-17.858 0-33.187-13.338-35.655-31.024l-43.189-309.529c-.274-1.965-1.977-3.447-3.962-3.447h-30.597c-8.836 0-16-7.164-16-16s7.164-16 16-16h30.597c17.858 0 33.187 13.338 35.655 31.024l43.189 309.529c.274 1.965 1.977 3.447 3.961 3.447h318.598c8.836 0 16 7.164 16 16s-7.164 16-16 16z" fill="#f3d4b7"/></g></svg>