<svg id="Layer_1" enable-background="new 0 0 512 512" height="512" viewBox="0 0 512 512" width="512" xmlns="http://www.w3.org/2000/svg"><g><path d="m448 46v420c0 25.36-20.64 46-46 46h-2.73c-14.33 0-27.05-8.62-32.42-21.96-2.45-6.1-8.28-10.04-14.85-10.04s-12.4 3.94-14.86 10.04c-5.36 13.34-18.08 21.96-32.41 21.96h-1.46c-14.33 0-27.05-8.62-32.42-21.96-2.45-6.1-8.28-10.04-14.85-10.04s-12.4 3.94-14.86 10.04c-5.36 13.34-18.08 21.96-32.41 21.96h-1.46c-14.33 0-27.05-8.62-32.42-21.96-2.45-6.1-8.28-10.04-14.85-10.04s-12.4 3.94-14.86 10.04c-5.36 13.34-18.08 21.96-32.41 21.96h-2.73c-25.36 0-46-20.64-46-46v-420c0-25.36 20.64-46 46-46h2.73c14.33 0 27.05 8.62 32.42 21.96 2.45 6.1 8.28 10.04 14.85 10.04s12.4-3.94 14.86-10.04c5.36-13.34 18.08-21.96 32.41-21.96h1.46c14.33 0 27.05 8.62 32.42 21.96 2.45 6.1 8.28 10.04 14.85 10.04s12.4-3.94 14.86-10.04c5.36-13.34 18.08-21.96 32.41-21.96h1.46c14.33 0 27.05 8.62 32.42 21.96 2.45 6.1 8.28 10.04 14.85 10.04s12.4-3.94 14.86-10.04c5.36-13.34 18.08-21.96 32.41-21.96h2.73c25.36 0 46 20.64 46 46z" fill="#f8e9d2"/><path d="m448 46v420c0 25.36-20.64 46-46 46h-2.73c-6.23 0-12.15-1.63-17.29-4.57 15.39-7.45 26.02-23.23 26.02-41.43v-420c0-18.2-10.63-33.98-26.02-41.43 5.14-2.94 11.06-4.57 17.29-4.57h2.73c25.36 0 46 20.64 46 46z" fill="#e4d5c1"/><path d="m256 240c-17.645 0-32-14.355-32-32s14.355-32 32-32 32 14.355 32 32c0 8.836 7.164 16 16 16s16-7.164 16-16c0-29.767-20.427-54.852-48-61.975v-18.025c0-8.836-7.164-16-16-16s-16 7.164-16 16v18.025c-27.572 7.123-48 32.208-48 61.975 0 35.29 28.71 64 64 64 17.645 0 32 14.355 32 32s-14.355 32-32 32-32-14.355-32-32c0-8.836-7.164-16-16-16s-16 7.164-16 16c0 29.767 20.428 54.852 48 61.975v18.025c0 8.836 7.164 16 16 16s16-7.164 16-16v-18.025c27.573-7.123 48-32.208 48-61.975 0-35.29-28.71-64-64-64z" fill="#acebe2"/></g></svg>