<svg id="Layer_1" enable-background="new 0 0 512.016 512.016" height="512" viewBox="0 0 512.016 512.016" width="512" xmlns="http://www.w3.org/2000/svg"><g><path d="m511.468 297.347c-3.32 22.88-20.87 40.14-43.69 42.95-6.42.79-11.67 4.67-14.4 10.63-2.79 6.08-2.27 12.76 1.44 18.32 12.91 19.35 11.31 44.12-3.98 61.64-15.11 17.3-39.12 22.19-59.73 12.15-5.8-2.82-12.25-2.44-17.69 1.04-5.58 3.57-8.7 9.46-8.56 16.16.49 23.26-14.1 43.23-36.32 49.71-22.06 6.43-44.95-2.5-56.94-22.23-3.41-5.61-9.09-8.83-15.59-8.83s-12.18 3.22-15.59 8.83c-9.4 15.46-25.49 24.29-42.63 24.29-4.73 0-9.54-.67-14.31-2.06-22.22-6.48-36.81-26.45-36.32-49.71.14-6.7-2.98-12.59-8.56-16.16-5.44-3.48-11.89-3.86-17.69-1.04-20.62 10.04-44.62 5.15-59.73-12.15-15.29-17.52-16.89-42.29-3.98-61.64 3.71-5.56 4.23-12.24 1.44-18.32-2.73-5.96-7.98-9.84-14.4-10.63-22.82-2.81-40.37-20.07-43.69-42.95-3.32-22.95 8.67-44.56 29.83-53.77 5.99-2.61 9.97-7.87 10.92-14.42.96-6.61-1.41-12.84-6.48-17.09-17.77-14.88-23.19-39.07-13.47-60.19 9.63-20.92 31.29-32.44 53.91-28.67 6.35 1.06 12.44-1.14 16.7-6.04 4.38-5.04 5.74-11.6 3.73-18.01-6.98-22.22 1.48-45.53 21.05-58.02 19.36-12.34 43.77-10.23 60.75 5.26 4.8 4.38 11.11 5.86 17.31 4.04 6.3-1.84 10.9-6.58 12.62-13 6.01-22.39 25.54-37.43 48.59-37.43s42.58 15.04 48.59 37.43c.86 3.21 2.44 6 4.59 8.22 2.16 2.21 4.88 3.86 8.03 4.78 6.2 1.82 12.51.34 17.31-4.04 16.98-15.49 41.39-17.6 60.75-5.26 19.57 12.49 28.03 35.8 21.05 58.02-2.01 6.41-.65 12.97 3.73 18.01 4.26 4.9 10.35 7.1 16.7 6.04 22.63-3.78 44.28 7.75 53.91 28.67 9.72 21.12 4.3 45.31-13.47 60.19-5.07 4.25-7.44 10.48-6.48 17.09.95 6.55 4.93 11.81 10.92 14.42 21.16 9.21 33.15 30.82 29.83 53.77z" fill="#acebe2"/><path d="m511.468 297.347c-3.32 22.88-20.87 40.14-43.69 42.95-6.42.79-11.67 4.67-14.4 10.63-2.79 6.08-2.27 12.76 1.44 18.32 12.91 19.35 11.31 44.12-3.98 61.64-13.64 15.62-34.54 21.12-53.64 14.65 8.12-2.78 15.6-7.72 21.65-14.65 15.29-17.52 16.89-42.29 3.98-61.64-3.71-5.56-4.23-12.24-1.44-18.32 2.73-5.96 7.98-9.84 14.4-10.63 22.82-2.81 40.37-20.07 43.69-42.95 3.32-22.95-8.67-44.56-29.83-53.77-5.99-2.61-9.97-7.87-10.92-14.42-.96-6.61 1.41-12.84 6.48-17.09 17.77-14.88 23.19-39.07 13.47-60.19-9.63-20.92-31.28-32.45-53.91-28.67-6.35 1.06-12.44-1.14-16.7-6.04-4.38-5.04-5.74-11.6-3.73-18.01 6.98-22.22-1.48-45.53-21.05-58.02-3.53-2.25-7.23-4.02-11.03-5.32 14.03-4.82 29.72-3.16 43.02 5.32 19.57 12.49 28.03 35.8 21.05 58.02-2.01 6.41-.65 12.97 3.73 18.01 4.26 4.9 10.35 7.1 16.7 6.04 22.63-3.78 44.28 7.75 53.91 28.67 9.72 21.12 4.3 45.31-13.47 60.19-5.07 4.25-7.44 10.48-6.48 17.09.95 6.55 4.93 11.81 10.92 14.42 21.16 9.21 33.15 30.82 29.83 53.77z" fill="#98d7ce"/><g fill="#f79caf"><path d="m176.008 352.007c-4.095 0-8.189-1.562-11.313-4.687-6.249-6.248-6.249-16.379 0-22.627l160-160c6.248-6.249 16.379-6.249 22.627 0 6.249 6.248 6.249 16.379 0 22.627l-160 160c-3.125 3.125-7.219 4.687-11.314 4.687z"/><path d="m208.008 208.007c-17.645 0-32-14.355-32-32s14.355-32 32-32 32 14.355 32 32-14.355 32-32 32zm0-32c0 .014.001.02.001.02z"/><path d="m304.008 368.007c-17.645 0-32-14.355-32-32s14.355-32 32-32 32 14.355 32 32-14.355 32-32 32zm0-32c0 .014.001.02.001.021z"/></g></g></svg>