<svg id="Layer_1" enable-background="new 0 0 512 512" height="512" viewBox="0 0 512 512" width="512" xmlns="http://www.w3.org/2000/svg"><g><path d="m466 80h-420c-25.36 0-46 20.64-46 46v260c0 25.36 20.64 46 46 46h420c25.36 0 46-20.64 46-46v-260c0-25.36-20.64-46-46-46z" fill="#e2e0e0"/><path d="m466 80h-32c25.36 0 46 20.64 46 46v260c0 25.36-20.64 46-46 46h32c25.36 0 46-20.64 46-46v-260c0-25.36-20.64-46-46-46z" fill="#cecccc"/><path d="m365.699 301.71c-3.468 0-6.96-1.122-9.895-3.435-6.939-5.471-8.131-15.531-2.66-22.471 4.486-5.688 6.856-12.537 6.856-19.804s-2.37-14.116-6.855-19.805c-5.471-6.939-4.279-17 2.66-22.471 6.939-5.469 17-4.28 22.471 2.66 8.85 11.228 13.724 25.297 13.724 39.616s-4.874 28.388-13.725 39.615c-3.157 4.005-7.843 6.095-12.576 6.095z" fill="#98d7ce"/><path d="m405.425 341.43c-3.807 0-7.626-1.35-10.682-4.092-6.576-5.901-7.124-16.018-1.222-22.594 14.496-16.154 22.479-37.016 22.479-58.744s-7.983-42.59-22.479-58.744c-5.902-6.577-5.354-16.693 1.222-22.594 6.577-5.901 16.692-5.355 22.595 1.222 19.772 22.034 30.662 50.487 30.662 80.116s-10.89 58.082-30.662 80.116c-3.159 3.521-7.527 5.314-11.913 5.314z" fill="#98d7ce"/><path d="m160 196v24c0 19.85-16.15 36-36 36h-24c-19.85 0-36-16.15-36-36v-24c0-19.85 16.15-36 36-36h24c19.85 0 36 16.15 36 36z" fill="#f8e9d2"/></g></svg>