<svg id="Layer_1" enable-background="new 0 0 512.003 512.003" height="512" viewBox="0 0 512.003 512.003" width="512" xmlns="http://www.w3.org/2000/svg"><g><path d="m384.002 36.033v155.97h-338c-16.57 0-30 13.43-30 30v26c-3.91 0-7.71-1.43-10.66-4.06-3.4-3.04-5.34-7.38-5.34-11.94v-10.16c0-24.3 13.29-46.55 34.69-58.07l296.78-159.72c.14-.08.29-.15.43-.22 11.24-5.62 24.34-5.03 35.03 1.57 10.69 6.61 17.07 18.06 17.07 30.63z" fill="#a18b76"/><path d="m512.002 222.003v244c0 25.36-20.64 46-46 46h-420c-25.36 0-46-20.64-46-46v-244c0-25.36 20.64-46 46-46h420c25.36 0 46 20.64 46 46z" fill="#b59f89"/><path d="m512.002 222.003v244c0 25.36-20.64 46-46 46h-32c25.36 0 46-20.64 46-46v-244c0-25.36-20.64-46-46-46h32c25.36 0 46 20.64 46 46z" fill="#a18b76"/><path d="" style="fill:none;stroke:#000;stroke-width:32;stroke-linecap:round;stroke-linejoin:round;stroke-miterlimit:10"/><path d="m416.002 376.003c-17.645 0-32-14.355-32-32s14.355-32 32-32 32 14.355 32 32-14.356 32-32 32zm0-32c0 .014.001.02.001.021z" fill="#f8e9d2"/></g></svg>