<svg id="Layer_1" enable-background="new 0 0 512 512" height="512" viewBox="0 0 512 512" width="512" xmlns="http://www.w3.org/2000/svg"><g><path d="m466 39.99h-420c-25.36 0-46 20.64-46 46v260c0 25.36 20.64 46 46 46h18v41.86c0 15.06 8.5 28.32 22.18 34.61 5.18 2.38 10.63 3.55 16.03 3.55 8.87 0 17.58-3.15 24.69-9.24.28-.24.56-.5.83-.76l70.84-70.02h267.43c25.36 0 46-20.64 46-46v-260c0-25.36-20.64-46-46-46z" fill="#f8e9d2"/><path d="m466 39.99h-32c25.36 0 46 20.64 46 46v260c0 25.36-20.64 46-46 46h32c25.36 0 46-20.64 46-46v-260c0-25.36-20.64-46-46-46z" fill="#e4d5c1"/><path d="m371.23 199.78-46.06 45.39 10.88 64.14c1.02 6.02-1.47 12.09-6.41 15.65-2.78 2.01-6.07 3.03-9.37 3.03-2.57 0-5.15-.62-7.5-1.87l-56.77-30.17-56.77 30.17c-5.38 2.86-11.92 2.41-16.87-1.16-4.94-3.56-7.43-9.63-6.41-15.65l10.88-64.14-46.06-45.39c-4.32-4.26-5.86-10.6-3.98-16.37 1.89-5.77 6.88-9.97 12.88-10.86l63.52-9.33 28.43-58.25c2.68-5.49 8.26-8.98 14.38-8.98s11.7 3.49 14.38 8.98l28.43 58.25 63.52 9.33c6 .89 10.99 5.09 12.88 10.86 1.88 5.77.34 12.11-3.98 16.37z" fill="#f79caf"/></g></svg>