<svg id="Layer_1" enable-background="new 0 0 512 512" height="512" viewBox="0 0 512 512" width="512" xmlns="http://www.w3.org/2000/svg"><g><path d="m512 126v260c0 25.36-20.64 46-46 46h-364c-25.36 0-46-20.64-46-46v-260c0-25.36 20.64-46 46-46h364c25.36 0 46 20.64 46 46z" fill="#acebe2"/><path d="m512 126v260c0 25.36-20.64 46-46 46h-32c25.36 0 46-20.64 46-46v-260c0-25.36-20.64-46-46-46h32c25.36 0 46 20.64 46 46z" fill="#98d7ce"/><g fill="#f8e9d2"><path d="m152 80v96c0 8.84-7.16 16-16 16s-16-7.16-16-16v-96z"/><path d="m152 240v192h-32v-192c0-8.84 7.16-16 16-16s16 7.16 16 16z"/><path d="m512 192v32h-256c-8.84 0-16-7.16-16-16s7.16-16 16-16z"/></g><path d="m272 208c0 12.36-2.41 25.97-6.45 36.4-9.3 24.02-25.01 27.6-33.55 27.6-17.87 0-41.17-15.56-47.89-20.33-4.36-3.09-8.97-6.69-13.3-10.67-8.75 9.23-21.12 15-34.81 15s-26.06-5.77-34.81-15c-4.33 3.98-8.94 7.58-13.3 10.67-6.72 4.77-30.02 20.33-47.89 20.33-8.54 0-24.25-3.58-33.55-27.6-4.04-10.43-6.45-24.04-6.45-36.4s2.41-25.97 6.45-36.4c9.3-24.02 25.01-27.6 33.55-27.6 17.87 0 41.17 15.56 47.89 20.33 4.36 3.09 8.97 6.69 13.3 10.67 8.75-9.23 21.12-15 34.81-15s26.06 5.77 34.81 15c4.33-3.98 8.94-7.58 13.3-10.67 6.72-4.77 30.02-20.33 47.89-20.33 8.54 0 24.25 3.58 33.55 27.6 4.04 10.43 6.45 24.04 6.45 36.4z" fill="#f79caf"/><path d="m480 192h32v32h-32z" fill="#e4d5c1"/><path d="m272 208c0 12.36-2.41 25.97-6.45 36.4-9.3 24.02-25.01 27.6-33.55 27.6-4.07 0-8.43-.81-12.8-2.12 7.69-3 16.35-9.99 22.35-25.48 4.04-10.43 6.45-24.04 6.45-36.4s-2.41-25.97-6.45-36.4c-6-15.49-14.66-22.48-22.35-25.48 4.37-1.31 8.73-2.12 12.8-2.12 8.54 0 24.25 3.58 33.55 27.6 4.04 10.43 6.45 24.04 6.45 36.4z" fill="#e3889b"/></g></svg>