<svg id="Layer_1" enable-background="new 0 0 512 512" height="512" viewBox="0 0 512 512" width="512" xmlns="http://www.w3.org/2000/svg"><g><path d="m402 0h-292c-25.36 0-46 20.64-46 46v420c0 25.36 20.64 46 46 46h292c25.36 0 46-20.64 46-46v-420c0-25.36-20.64-46-46-46zm-82 128h-127.551c-8.618 0-16.03-6.626-16.431-15.235-.428-9.188 6.888-16.765 15.982-16.765h35.165c2.961 0 5.275-2.558 4.966-5.503-.251-2.391-.147-4.882.372-7.405 2.134-10.372 11.051-18.206 21.609-19.019 14.078-1.084 25.888 10.073 25.888 23.927 0 .803-.04 1.598-.119 2.382-.299 2.992 1.955 5.618 4.961 5.618h34.708c8.618 0 16.03 6.626 16.431 15.234.429 9.189-6.887 16.766-15.981 16.766z" fill="#e2e0e0"/><path d="m402 0h-32c25.36 0 46 20.64 46 46v420c0 25.36-20.64 46-46 46h32c25.36 0 46-20.64 46-46v-420c0-25.36-20.64-46-46-46z" fill="#cecccc"/><path d="m256 248c13.233 0 24 10.766 24 24 0 8.836 7.163 16 16 16s16-7.164 16-16c0-25.319-16.895-46.756-40-53.659v-10.341c0-8.836-7.163-16-16-16-8.836 0-16 7.164-16 16v10.341c-23.105 6.902-40 28.339-40 53.659 0 30.878 25.122 56 56 56 13.233 0 24 10.766 24 24s-10.767 24-24 24c-13.234 0-24-10.766-24-24 0-8.836-7.164-16-16-16s-16 7.164-16 16c0 25.319 16.895 46.756 40 53.659v10.341c0 8.836 7.164 16 16 16 8.837 0 16-7.164 16-16v-10.341c23.105-6.902 40-28.339 40-53.659 0-30.878-25.121-56-56-56-13.234 0-24-10.766-24-24s10.766-24 24-24z" fill="#acebe2"/></g></svg>