<svg id="Layer_1" enable-background="new 0 0 512.003 512.003" height="512" viewBox="0 0 512.003 512.003" width="512" xmlns="http://www.w3.org/2000/svg"><g><g fill="#f79caf"><path d="m472.001 368h-64c-8.837 0-16 7.164-16 16s7.163 16 16 16h48v96c0 8.836 7.163 16 16 16s16-7.164 16-16v-112c0-8.836-7.163-16-16-16z"/><path d="m104.001 368h-64c-8.837 0-16 7.164-16 16s7.163 16 16 16h48v24h-48c-8.837 0-16 7.164-16 16v56c0 8.836 7.163 16 16 16h64c8.837 0 16-7.164 16-16s-7.163-16-16-16h-48v-24h48c8.837 0 16-7.164 16-16v-56c0-8.836-7.163-16-16-16z"/><path d="m232.001 368c-8.837 0-16 7.164-16 16v40h-32v-40c0-8.836-7.163-16-16-16s-16 7.164-16 16v56c0 8.836 7.163 16 16 16h48v40c0 8.836 7.163 16 16 16s16-7.164 16-16v-112c0-8.836-7.163-16-16-16z"/><path d="m359.94 370.108c-7.675-4.383-17.446-1.719-21.83 5.954l-64 112c-4.385 7.672-1.719 17.446 5.953 21.83 2.505 1.431 5.232 2.111 7.924 2.111 5.554 0 10.953-2.897 13.906-8.065l64-112c4.385-7.672 1.719-17.446-5.953-21.83z"/></g><path d="m256.001 0c-101.458 0-184 82.542-184 184 0 6.08.4 59.83 14.23 87.36 2.89 6.68 25.69 55.51 79.14 64.42.89.15 1.78.22 2.65.22 7.68 0 14.46-5.54 15.76-13.37 1.46-8.72-4.43-16.96-13.15-18.41-9.49-1.58-17.65-5.17-24.56-9.67 12.67-3.06 24.85-9.54 33.89-18.59 13.44-13.43 20.72-32.66 19.49-51.44-1.09-16.5-8.57-30.87-21.06-40.45-6.06-4.64-18.33-11.18-54.9-14.41-6.755-.597-13.197-.978-18.699-1.223 7.819-76.53 72.649-136.437 151.209-136.437s143.39 59.907 151.209 136.437c-5.502.245-11.944.626-18.699 1.223-18.29 1.62-30.49 4.06-38.89 6.68s-12.98 5.41-16.01 7.73c-12.49 9.58-19.97 23.95-21.06 40.45-1.23 18.78 6.05 38.01 19.49 51.44 12.87 12.87 32.07 20.59 50.03 20.58 3.04 0 6.05-.22 8.98-.67 15.45-2.39 27.66-10.87 34.39-23.86 14.15-27.32 14.56-81.88 14.56-88.01 0-101.458-82.542-184-184-184z" fill="#acebe2"/><path d="m440.001 184c0 6.13-.41 60.69-14.56 88.01-6.73 12.99-18.94 21.47-34.39 23.86-2.93.45-5.94.67-8.98.67-2.68 0-5.39-.17-8.1-.51.36-.05.72-.1 1.08-.16 15.45-2.39 27.66-10.87 34.39-23.86 14.15-27.32 14.56-81.88 14.56-88.01 0-98.78-78.23-179.62-176-183.82 2.65-.12 5.32-.18 8-.18 101.46 0 184 82.54 184 184z" fill="#98d7ce"/></g></svg>