<svg id="Layer_1" enable-background="new 0 0 512 512" height="512" viewBox="0 0 512 512" width="512" xmlns="http://www.w3.org/2000/svg"><g><path d="m456 46v420c0 25.36-20.64 46-46 46h-308c-25.36 0-46-20.64-46-46v-420c0-25.36 20.64-46 46-46h308c25.36 0 46 20.64 46 46z" fill="#f8e9d2"/><path d="m456 46v420c0 25.36-20.64 46-46 46h-32c25.36 0 46-20.64 46-46v-420c0-25.36-20.64-46-46-46h32c25.36 0 46 20.64 46 46z" fill="#e4d5c1"/><path d="m368 96h-48c-8.836 0-16 7.164-16 16s7.164 16 16 16h8c0 39.701-32.299 72-72 72s-72-32.299-72-72h8c8.836 0 16-7.164 16-16s-7.164-16-16-16h-48c-8.836 0-16 7.164-16 16s7.164 16 16 16h8c0 57.346 46.654 104 104 104s104-46.654 104-104h8c8.836 0 16-7.164 16-16s-7.164-16-16-16z" fill="#f3d4b7"/><circle cx="256" cy="400" fill="#acebe2" r="112"/><path d="m296 384h-24v-24c0-8.836-7.164-16-16-16s-16 7.164-16 16v24h-24c-8.836 0-16 7.164-16 16s7.164 16 16 16h24v24c0 8.836 7.164 16 16 16s16-7.164 16-16v-24h24c8.836 0 16-7.164 16-16s-7.164-16-16-16z" fill="#f79caf"/></g></svg>