<svg id="Layer_1" enable-background="new 0 0 512 512" height="512" viewBox="0 0 512 512" width="512" xmlns="http://www.w3.org/2000/svg"><g><path d="m344 160c-8.837 0-16-7.164-16-16v-40c0-39.701-32.299-72-72-72s-72 32.299-72 72v40c0 8.836-7.164 16-16 16s-16-7.164-16-16v-40c0-57.346 46.654-104 104-104s104 46.654 104 104v40c0 8.836-7.163 16-16 16z" fill="#f3d4b7"/><path d="m512 174v292c0 25.36-20.64 46-46 46h-420c-25.36 0-46-20.64-46-46v-292c0-25.36 20.64-46 46-46h420c25.36 0 46 20.64 46 46z" fill="#e2e0e0"/><path d="m512 174v292c0 25.36-20.64 46-46 46h-32c25.36 0 46-20.64 46-46v-292c0-25.36-20.64-46-46-46h32c25.36 0 46 20.64 46 46z" fill="#cecccc"/><path d="m256 304c-13.234 0-24-10.766-24-24s10.766-24 24-24c13.233 0 24 10.766 24 24 0 8.836 7.163 16 16 16s16-7.164 16-16c0-25.319-16.895-46.756-40-53.659v-10.341c0-8.836-7.163-16-16-16-8.836 0-16 7.164-16 16v10.341c-23.105 6.902-40 28.339-40 53.659 0 30.878 25.122 56 56 56 13.233 0 24 10.766 24 24s-10.767 24-24 24c-13.234 0-24-10.766-24-24 0-8.836-7.164-16-16-16s-16 7.164-16 16c0 25.319 16.895 46.756 40 53.659v10.341c0 8.836 7.164 16 16 16 8.837 0 16-7.164 16-16v-10.341c23.105-6.902 40-28.339 40-53.659 0-30.878-25.121-56-56-56z" fill="#acebe2"/></g></svg>