<svg id="Layer_1" enable-background="new 0 0 512 512" height="512" viewBox="0 0 512 512" width="512" xmlns="http://www.w3.org/2000/svg"><g><path d="m432 46v420c0 25.36-20.64 46-46 46h-260c-25.36 0-46-20.64-46-46v-420c0-25.36 20.64-46 46-46h260c25.36 0 46 20.64 46 46z" fill="#e2e0e0"/><path d="m432 46v420c0 25.36-20.64 46-46 46h-32c25.36 0 46-20.64 46-46v-420c0-25.36-20.64-46-46-46h32c25.36 0 46 20.64 46 46z" fill="#cecccc"/><path d="m304 80h-96c-8.837 0-16-7.164-16-16s7.163-16 16-16h96c8.837 0 16 7.164 16 16s-7.163 16-16 16z" fill="#bab8b8"/><path d="m284.28 227.72c-4.095 0-8.189-1.562-11.313-4.686-4.536-4.536-10.562-7.034-16.967-7.034s-12.431 2.498-16.967 7.034c-6.248 6.248-16.379 6.248-22.627 0-6.249-6.249-6.249-16.379 0-22.628 10.58-10.579 24.641-16.406 39.594-16.406s29.014 5.827 39.594 16.406c6.249 6.249 6.249 16.379 0 22.628-3.124 3.124-7.219 4.686-11.314 4.686z" fill="#f79caf"/><path d="m323.88 188.12c-4.097 0-8.192-1.563-11.316-4.689-15.102-15.11-35.19-23.431-56.564-23.431s-41.462 8.321-56.563 23.431c-6.245 6.25-16.376 6.253-22.627.006-6.25-6.247-6.253-16.377-.007-22.627 21.146-21.158 49.272-32.81 79.197-32.81s58.051 11.652 79.197 32.81c6.246 6.25 6.243 16.381-.007 22.627-3.124 3.122-7.217 4.683-11.31 4.683z" fill="#f79caf"/><path d="m304 384c0-26.467-21.533-48-48-48-8.822 0-16-7.178-16-16s7.178-16 16-16c7.308 0 13.68 4.929 15.495 11.986 2.201 8.558 10.914 13.71 19.481 11.51 8.558-2.202 13.711-10.924 11.509-19.481-4.067-15.811-15.73-28.062-30.485-33.273v-10.742c0-8.836-7.163-16-16-16s-16 7.164-16 16v10.752c-18.622 6.605-32 24.39-32 45.248 0 26.467 21.533 48 48 48 8.822 0 16 7.178 16 16s-7.178 16-16 16c-7.308 0-13.68-4.929-15.495-11.986-2.201-8.558-10.916-13.712-19.481-11.51-8.558 2.202-13.711 10.924-11.509 19.481 4.067 15.811 15.73 28.062 30.485 33.273v10.742c0 8.836 7.163 16 16 16s16-7.164 16-16v-10.752c18.622-6.605 32-24.39 32-45.248z" fill="#acebe2"/></g></svg>