<svg id="Layer_1" enable-background="new 0 0 512 512" height="512" viewBox="0 0 512 512" width="512" xmlns="http://www.w3.org/2000/svg"><g><path d="m422 352h-44c-14.34 0-26 11.66-26 26v44c0 14.34 11.66 26 26 26h44c14.34 0 26-11.66 26-26v-44c0-14.34-11.66-26-26-26z" fill="#98d7ce"/><path d="m194 64h-84c-25.36 0-46 20.64-46 46v84c0 25.36 20.64 46 46 46h84c25.36 0 46-20.64 46-46v-84c0-25.36-20.64-46-46-46zm-18 96c0 8.836-7.163 16-16 16h-16c-8.837 0-16-7.164-16-16v-16c0-8.836 7.163-16 16-16h16c8.837 0 16 7.164 16 16z" fill="#acebe2"/><path d="m402 64h-84c-25.36 0-46 20.64-46 46v84c0 25.36 20.64 46 46 46h84c25.36 0 46-20.64 46-46v-84c0-25.36-20.64-46-46-46zm-18 96c0 8.836-7.163 16-16 16h-16c-8.837 0-16-7.164-16-16v-16c0-8.836 7.163-16 16-16h16c8.837 0 16 7.164 16 16z" fill="#acebe2"/><path d="m194 272h-84c-25.36 0-46 20.64-46 46v84c0 25.36 20.64 46 46 46h84c25.36 0 46-20.64 46-46v-84c0-25.36-20.64-46-46-46zm-18 96c0 8.836-7.163 16-16 16h-16c-8.837 0-16-7.164-16-16v-16c0-8.836 7.163-16 16-16h16c8.837 0 16 7.164 16 16z" fill="#acebe2"/><path d="m422 352h-24c14.34 0 26 11.66 26 26v44c0 14.34-11.66 26-26 26h24c14.34 0 26-11.66 26-26v-44c0-14.34-11.66-26-26-26z" fill="#84c3ba"/><g fill="#f79caf"><path d="m496 144c-8.837 0-16-7.164-16-16v-82c0-7.72-6.28-14-14-14h-82c-8.837 0-16-7.164-16-16s7.163-16 16-16h82c25.364 0 46 20.636 46 46v82c0 8.836-7.163 16-16 16z"/><path d="m16 144c-8.837 0-16-7.164-16-16v-82c0-25.364 20.636-46 46-46h82c8.837 0 16 7.164 16 16s-7.163 16-16 16h-82c-7.72 0-14 6.28-14 14v82c0 8.836-7.163 16-16 16z"/><path d="m128 512h-82c-25.364 0-46-20.636-46-46v-82c0-8.836 7.163-16 16-16s16 7.164 16 16v82c0 7.72 6.28 14 14 14h82c8.837 0 16 7.164 16 16s-7.163 16-16 16z"/><path d="m466 512h-82c-8.837 0-16-7.164-16-16s7.163-16 16-16h82c7.72 0 14-6.28 14-14v-82c0-8.836 7.163-16 16-16s16 7.164 16 16v82c0 25.364-20.636 46-46 46z"/></g><path d="m194 64h-24c25.36 0 46 20.64 46 46v84c0 25.36-20.64 46-46 46h24c25.36 0 46-20.64 46-46v-84c0-25.36-20.64-46-46-46z" fill="#98d7ce"/><path d="m402 64h-24c25.36 0 46 20.64 46 46v84c0 25.36-20.64 46-46 46h24c25.36 0 46-20.64 46-46v-84c0-25.36-20.64-46-46-46z" fill="#98d7ce"/><path d="m194 272h-24c25.36 0 46 20.64 46 46v84c0 25.36-20.64 46-46 46h24c25.36 0 46-20.64 46-46v-84c0-25.36-20.64-46-46-46z" fill="#98d7ce"/><path d="m358 272h-60c-14.34 0-26 11.66-26 26v60c0 14.34 11.66 26 26 26h60c14.34 0 26-11.66 26-26v-60c0-14.34-11.66-26-26-26z" fill="#acebe2"/><path d="m358 272h-24c14.34 0 26 11.66 26 26v60c0 14.34-11.66 26-26 26h24c14.34 0 26-11.66 26-26v-60c0-14.34-11.66-26-26-26z" fill="#98d7ce"/></g></svg>