<svg id="Layer_1" enable-background="new 0 0 512 512" height="512" viewBox="0 0 512 512" width="512" xmlns="http://www.w3.org/2000/svg"><g><path d="m512 387.434c0 12.2-7.4 23.2-18.71 27.79l-226 91.81c-3.62 1.47-7.45 2.21-11.29 2.21s-7.67-.74-11.29-2.21l-226-91.81c-11.31-4.59-18.71-15.59-18.71-27.79l.01-255.1c0-4.11 1.26-8.03 3.5-11.29 1.97-2.89 4.71-5.26 8.01-6.81l15.92-7.46 228.56 92.85 228.51-92.83 16.2 7.56c3.2 1.55 5.85 3.87 7.77 6.69 2.24 3.26 3.5 7.18 3.5 11.29z" fill="#f3d4b7"/><path d="m508.48 121.044-102.03 41.45-40.31 16.38-110.14 44.75h-.01l-252.48-102.58c1.97-2.89 4.71-5.26 8.01-6.81l15.92-7.46 93.09-43.64 37.63-17.64 88.75-41.61c6.87-1.94 14.27-1.38 20.83 1.69l216.77 101.22 16.2 7.56c3.2 1.55 5.85 3.87 7.77 6.69z" fill="#dfc0a3"/><path d="m512 387.434c0 12.2-7.4 23.2-18.71 27.79l-226 91.81c-3.62 1.47-7.45 2.21-11.29 2.21v-285.62l252.48-102.58c2.24 3.26 3.5 7.18 3.5 11.29z" fill="#e6c8a7"/><path d="m406.45 162.494-40.31 16.38-245.61-115.74 37.63-17.64z" fill="#f3d4b7"/></g></svg>