<svg id="Layer_1" enable-background="new 0 0 512 512" height="512" viewBox="0 0 512 512" width="512" xmlns="http://www.w3.org/2000/svg"><g><path d="m496 112v354c0 25.36-20.64 46-46 46h-388c-25.36 0-46-20.64-46-46v-354c0-8.84 7.16-16 16-16h448c8.84 0 16 7.16 16 16z" fill="#e2e0e0"/><path d="m336 342v170h-160v-170c0-25.405 20.595-46 46-46h68c25.405 0 46 20.595 46 46z" fill="#acebe2"/><path d="m496 112v354c0 25.36-20.64 46-46 46h-40c25.36 0 46-20.64 46-46v-354c0-8.84-7.16-16-16-16h40c8.84 0 16 7.16 16 16z" fill="#cecccc"/><path d="m376 128v44c0 33.137 26.863 60 60 60 33.137 0 60-26.863 60-60v-44z" fill="#f8e9d2"/><path d="m512 46v62c0 11.046-8.954 20-20 20h-472c-11.046 0-20-8.954-20-20v-62c0-25.405 20.595-46 46-46h420c25.405 0 46 20.595 46 46z" fill="#acebe2"/><path d="m152 80h-8c-8.836 0-16-7.164-16-16s7.164-16 16-16h8c8.836 0 16 7.164 16 16s-7.164 16-16 16z" fill="#f3d4b7"/><path d="m88 80h-8c-8.836 0-16-7.164-16-16s7.164-16 16-16h8c8.836 0 16 7.164 16 16s-7.164 16-16 16z" fill="#f79caf"/><path d="m336 342v170h-32v-170c0-25.41-20.59-46-46-46h32c25.41 0 46 20.59 46 46z" fill="#98d7ce"/><path d="m16 128v44c0 33.137 26.863 60 60 60 33.137 0 60-26.863 60-60v-44z" fill="#f79caf"/><path d="m136 128v44c0 33.137 26.863 60 60 60 33.137 0 60-26.863 60-60v-44z" fill="#f8e9d2"/><path d="m256 128v44c0 33.137 26.863 60 60 60 33.137 0 60-26.863 60-60v-44z" fill="#f79caf"/><path d="m496 128v44c0 16.57-6.72 31.57-17.57 42.43-10.86 10.85-25.86 17.57-42.43 17.57-7.01 0-13.74-1.2-20-3.42 8.53-3.01 16.17-7.89 22.43-14.15 10.85-10.86 17.57-25.86 17.57-42.43v-44z" fill="#e4d5c1"/><path d="m376 128v44c0 16.57-6.72 31.57-17.57 42.43-10.86 10.85-25.86 17.57-42.43 17.57-7.01 0-13.74-1.2-20-3.42 8.53-3.01 16.17-7.89 22.43-14.15 10.85-10.86 17.57-25.86 17.57-42.43v-44z" fill="#e3889b"/><path d="m256 128v44c0 16.57-6.72 31.57-17.57 42.43-10.86 10.85-25.86 17.57-42.43 17.57-7.01 0-13.74-1.2-20-3.42 8.53-3.01 16.17-7.89 22.43-14.15 10.85-10.86 17.57-25.86 17.57-42.43v-44z" fill="#e4d5c1"/><path d="m136 128v44c0 16.57-6.72 31.57-17.57 42.43-10.86 10.85-25.86 17.57-42.43 17.57-7.01 0-13.74-1.2-20-3.42 8.53-3.01 16.17-7.89 22.43-14.15 10.85-10.86 17.57-25.86 17.57-42.43v-44z" fill="#e3889b"/><path d="m512 46v62c0 11.05-8.95 20-20 20h-40c11.05 0 20-8.95 20-20v-62c0-25.41-20.59-46-46-46h40c25.41 0 46 20.59 46 46z" fill="#98d7ce"/></g></svg>