<svg id="Layer_1" enable-background="new 0 0 512 512" height="512" viewBox="0 0 512 512" width="512" xmlns="http://www.w3.org/2000/svg"><g><path d="m480 112h-448c-8.84 0-16 7.16-16 16v338c0 25.36 20.64 46 46 46h388c25.36 0 46-20.64 46-46v-338c0-8.84-7.16-16-16-16z" fill="#e2e0e0"/><path d="m480 112h-24c8.84 0 16 7.16 16 16v338c0 25.36-20.64 46-46 46h24c25.36 0 46-20.64 46-46v-338c0-8.84-7.16-16-16-16z" fill="#cecccc"/><path d="m494.23 135.32c-2.75 5.33-8.24 8.68-14.23 8.68h-448c-5.99 0-11.48-3.35-14.23-8.68-2.74-5.33-2.27-11.74 1.21-16.62l80-112c3-4.2 7.85-6.7 13.02-6.7h288c5.17 0 10.02 2.5 13.02 6.7l80 112c3.48 4.88 3.95 11.29 1.21 16.62z" fill="#f79caf"/><path d="m336 342v170h-160v-170c0-25.405 20.595-46 46-46h68c25.405 0 46 20.595 46 46z" fill="#acebe2"/><path d="m494.23 135.32c-2.75 5.33-8.24 8.68-14.23 8.68h-24c5.99 0 11.48-3.35 14.23-8.68 2.74-5.33 2.27-11.74-1.21-16.62l-80-112c-3-4.2-7.85-6.7-13.02-6.7h24c5.17 0 10.02 2.5 13.02 6.7l80 112c3.48 4.88 3.95 11.29 1.21 16.62z" fill="#e3889b"/><path d="m496 128v48c0 22.091-17.909 40-40 40-22.091 0-40-17.909-40-40v-48z" fill="#e3889b"/><path d="m336 342v170h-24v-170c0-25.41-20.59-46-46-46h24c25.41 0 46 20.59 46 46z" fill="#98d7ce"/><path d="m496 128v48c0 22.09-17.91 40-40 40-4.18 0-8.21-.64-12-1.84 16.23-5.09 28-20.25 28-38.16v-48z" fill="#d77d8c"/><g fill="#e3889b"><path d="m416 128v48c0 22.091-17.909 40-40 40-22.091 0-40-17.909-40-40v-48z"/><path d="m336 128v48c0 22.091-17.909 40-40 40-22.091 0-40-17.909-40-40v-48z"/><path d="m256 128v48c0 22.091-17.909 40-40 40-22.091 0-40-17.909-40-40v-48z"/><path d="m176 128v48c0 22.091-17.909 40-40 40-22.091 0-40-17.909-40-40v-48z"/><path d="m96 128v48c0 22.091-17.909 40-40 40-22.091 0-40-17.909-40-40v-48z"/></g><path d="m416 128v48c0 22.09-17.91 40-40 40-4.18 0-8.21-.64-12-1.84 16.23-5.09 28-20.25 28-38.16v-48z" fill="#d77d8c"/><path d="m336 128v48c0 22.09-17.91 40-40 40-4.18 0-8.21-.64-12-1.84 16.23-5.09 28-20.25 28-38.16v-48z" fill="#d77d8c"/><path d="m256 128v48c0 22.09-17.91 40-40 40-4.18 0-8.21-.64-12-1.84 16.23-5.09 28-20.25 28-38.16v-48z" fill="#d77d8c"/><path d="m176 128v48c0 22.09-17.91 40-40 40-4.18 0-8.21-.64-12-1.84 16.23-5.09 28-20.25 28-38.16v-48z" fill="#d77d8c"/><path d="m96 128v48c0 22.09-17.91 40-40 40-4.18 0-8.21-.64-12-1.84 16.23-5.09 28-20.25 28-38.16v-48z" fill="#d77d8c"/></g></svg>