<svg id="Layer_1" enable-background="new 41.64 164.945 512 512" height="512" viewBox="41.64 164.945 512 512" width="512" xmlns="http://www.w3.org/2000/svg"><g><path d="m352.833 618.059c0 30.436-24.758 55.193-55.192 55.193s-55.192-24.758-55.192-55.193c0-12.043 3.814-23.496 11.039-33.114 2.976-3.972 7.658-6.308 12.615-6.308h63.077c4.957 0 9.64 2.336 12.616 6.308 7.222 9.618 11.037 21.071 11.037 33.114z" fill="#f3d4b7"/><circle cx="297.639" cy="215.946" fill="#f3d4b7" r="47.307"/><path d="m352.833 618.059c0 30.436-24.758 55.193-55.192 55.193-4.061 0-8.022-.444-11.827-1.282 24.767-5.42 43.365-27.536 43.365-53.911 0-12.043-3.814-23.496-11.038-33.114-2.977-3.972-7.657-6.308-12.616-6.308h23.654c4.957 0 9.64 2.336 12.616 6.308 7.223 9.618 11.038 21.071 11.038 33.114z" fill="#e1c3a7"/><path d="m344.948 215.946c0 26.089-21.221 47.308-47.309 47.308-4.079 0-8.032-.522-11.816-1.488 20.371-5.273 35.471-23.812 35.471-45.82s-15.1-40.546-35.471-45.819c3.785-.965 7.737-1.487 11.816-1.487 26.088-.001 47.309 21.218 47.309 47.306z" fill="#e1c3a7"/><path d="m486.871 531.33v63.076c0 8.712-7.057 15.77-15.77 15.77h-346.922c-8.712 0-15.769-7.058-15.769-15.77v-63.076c0-8.713 7.057-15.77 15.769-15.77 17.395 0 31.539-14.143 31.539-31.538v-109.014c0-78.737 63.441-143.017 141.41-143.293h.522c37.816 0 73.367 14.686 100.163 41.395 26.926 26.827 41.749 62.525 41.749 100.528v110.385c0 17.396 14.145 31.538 31.539 31.538 8.713-.001 15.77 7.056 15.77 15.769z" fill="#f8e9d2"/><path d="m486.871 531.33v63.076c0 8.712-7.057 15.77-15.77 15.77h-15.769v-63.077c0-8.713-7.057-15.769-15.771-15.769-17.395 0-31.538-14.144-31.538-31.539v-110.384c0-38.004-14.823-73.701-41.749-100.528-26.797-26.709-62.347-41.395-100.163-41.395h-.522c-16.084.06-31.539 2.838-45.958 7.915 22.274-14.873 48.904-23.585 77.496-23.684h.522c37.816 0 73.367 14.686 100.163 41.395 26.926 26.827 41.749 62.525 41.749 100.528v110.385c0 17.396 14.145 31.538 31.539 31.538 8.714-.001 15.771 7.056 15.771 15.769z" fill="#e4d5c1"/><path d="m218.794 373.637c-8.708 0-15.769-7.061-15.769-15.769 0-43.476 35.371-78.846 78.846-78.846 8.708 0 15.769 7.061 15.769 15.77 0 8.708-7.061 15.769-15.769 15.769-26.085 0-47.308 21.223-47.308 47.308 0 8.708-7.06 15.768-15.769 15.768z" fill="#f3d4b7"/></g></svg>