<svg id="Layer_1" enable-background="new 0 0 512 512" height="512" viewBox="0 0 512 512" width="512" xmlns="http://www.w3.org/2000/svg"><g><path d="m480 199.987v266c0 25.36-20.64 46-46 46h-356c-25.36 0-46-20.64-46-46v-266c0-8.84 7.16-16 16-16h416c8.84 0 16 7.16 16 16z" fill="#f8e9d2"/><path d="m480 199.987v266c0 25.36-20.64 46-46 46h-32c25.36 0 46-20.64 46-46v-266c0-8.84-7.16-16-16-16h32c8.84 0 16 7.16 16 16z" fill="#e4d5c1"/><path d="m512 133.987v36c0 25.36-20.64 46-46 46h-420c-25.36 0-46-20.64-46-46v-36c0-25.36 20.64-46 46-46h420c25.36 0 46 20.64 46 46z" fill="#f3d4b7"/><path d="m343.598 16.389c-21.834-21.835-57.361-21.835-79.195 0-2.451 2.451-5.378 6-8.402 12.003-3.025-6.003-5.951-9.552-8.402-12.003-21.834-21.835-57.361-21.835-79.195 0-21.834 21.834-21.834 57.361 0 79.195 5.729 5.729 17.412 14.053 52.573 20.166 17.741 3.084 33.294 4.156 33.947 4.2.358.024.716.036 1.073.036h.004.001s.001 0 .001 0h.004c.356 0 .714-.012 1.072-.036.654-.044 16.207-1.116 33.948-4.2 35.161-6.113 46.844-14.437 52.572-20.166 21.834-21.833 21.834-57.361-.001-79.195zm-117.141 67.834c-28.425-4.942-34.794-10.633-35.427-11.266-9.357-9.358-9.357-24.583 0-33.941 4.679-4.679 10.825-7.018 16.971-7.018s12.292 2.339 16.971 7.018c.629.629 6.288 6.96 11.221 35.169.718 4.106 1.319 8.114 1.816 11.811-3.613-.487-7.529-1.073-11.552-1.773zm94.514-11.265c-.629.629-6.96 6.288-35.17 11.221-4.106.718-8.113 1.319-11.81 1.816.486-3.612 1.073-7.528 1.772-11.551 4.942-28.425 10.633-34.794 11.266-35.427 4.679-4.679 10.825-7.018 16.971-7.018s12.292 2.339 16.971 7.018c9.357 9.357 9.357 24.583 0 33.941z" fill="#98d7ce"/><path d="m512 133.987v36c0 25.36-20.64 46-46 46h-32c25.36 0 46-20.64 46-46v-36c0-25.36-20.64-46-46-46h32c25.36 0 46 20.64 46 46z" fill="#e1c3a7"/><path d="m216 86.987h80v425h-80z" fill="#98d7ce"/></g></svg>