<svg id="Layer_1" enable-background="new 0 0 512 512" height="512" viewBox="0 0 512 512" width="512" xmlns="http://www.w3.org/2000/svg"><g><path d="m416 192h-256c-8.84 0-16 7.16-16 16v240c0 8.84 7.16 16 16 16h256c8.84 0 16-7.16 16-16v-240c0-8.84-7.16-16-16-16z" fill="#f8e9d2"/><path d="m416 192h-24c8.84 0 16 7.16 16 16v240c0 8.84-7.16 16-16 16h24c8.84 0 16-7.16 16-16v-240c0-8.84-7.16-16-16-16z" fill="#e4d5c1"/><path d="m328 192v52c0 11.046-8.954 20-20 20h-40c-11.046 0-20-8.954-20-20v-52z" fill="#e2e0e0"/><path d="m464 464h-256c-8.837 0-16-7.164-16-16s7.163-16 16-16h256c8.837 0 16 7.164 16 16s-7.163 16-16 16z" fill="#98d7ce"/><path d="m160 416c-8.837 0-16-7.164-16-16v-328c0-10.68-4.162-20.728-11.72-28.292-7.553-7.546-17.6-11.708-28.28-11.708-22.056 0-40 17.944-40 40 0 8.836-7.163 16-16 16s-16-7.164-16-16c0-39.701 32.299-72 72-72 19.221 0 37.301 7.487 50.908 21.081 13.605 13.617 21.092 31.697 21.092 50.919v328c0 8.836-7.163 16-16 16z" fill="#98d7ce"/><circle cx="160" cy="448" fill="#e2e0e0" r="64"/><path d="m224 448c0 35.29-28.71 64-64 64-4.1 0-8.11-.39-12-1.13 29.58-5.63 52-31.68 52-62.87s-22.42-57.24-52-62.87c3.89-.74 7.9-1.13 12-1.13 35.29 0 64 28.71 64 64z" fill="#cecccc"/></g></svg>