<svg id="Layer_1" enable-background="new 0 0 511.982 511.982" height="512" viewBox="0 0 511.982 511.982" width="512" xmlns="http://www.w3.org/2000/svg"><g><path d="m500.841 476.01c-8.75 10.15-21.46 15.98-34.86 15.98h-419.98c-13.4 0-26.11-5.83-34.86-15.98-8.74-10.16-12.62-23.59-10.63-36.84l39-260c3.4-22.7 22.53-39.18 45.49-39.18h341.98c22.96 0 42.09 16.48 45.49 39.18l39 260c1.99 13.25-1.89 26.68-10.63 36.84z" fill="#e2e0e0"/><path d="m500.841 476.01c-8.75 10.15-21.46 15.98-34.86 15.98h-31.99c13.4 0 26.11-5.83 34.86-15.98 8.74-10.16 12.62-23.59 10.63-36.84l-39-260c-3.4-22.7-22.53-39.18-45.49-39.18h31.99c22.96 0 42.09 16.48 45.49 39.18l39 260c1.99 13.25-1.89 26.68-10.63 36.84z" fill="#cecccc"/><path d="m276.471 143.52c-.01.01-.02.02-.02.03l-47.95 80.73c-4.34 7.32-12.01 11.71-20.51 11.71s-16.17-4.39-20.52-11.73l-47.94-80.71c-15.05-25.49-15.47-56.19-1.15-82.17 13.82-25.07 38.89-40.52 67.05-41.35 1.7-.05 3.43-.05 5.11 0 28.17.83 53.24 16.28 67.06 41.35 14.32 25.98 13.9 56.68-1.13 82.14z" fill="#f79caf"/><path d="m276.471 143.52c-.01.01-.02.02-.02.03l-47.95 80.73c-4.34 7.32-12.01 11.71-20.51 11.71-4.31 0-8.41-1.13-11.97-3.2 3.46-2 6.4-4.9 8.54-8.51l47.95-80.73c0-.01.01-.02.02-.03 15.03-25.46 15.45-56.16 1.13-82.14-12.26-22.24-33.37-36.9-57.64-40.51 3.09-.46 6.23-.75 9.41-.84 1.7-.05 3.43-.05 5.11 0 28.17.83 53.24 16.28 67.06 41.35 14.32 25.98 13.9 56.68-1.13 82.14z" fill="#e3889b"/><path d="m207.991 123.99c-13.233 0-24-10.767-24-24s10.767-24 24-24 24 10.767 24 24-10.767 24-24 24z" fill="#d77d8c"/><g fill="#98d7ce"><path d="m303.989 283.994c-6.699 0-12.942-4.24-15.177-10.945-5.321-15.964-21.717-21.826-21.881-21.881-8.383-2.794-12.914-11.855-10.119-20.238 2.794-8.382 11.854-12.917 20.238-10.119 1.29.43 31.709 10.889 42.119 42.119 2.795 8.383-1.736 17.444-10.119 20.238-1.677.56-3.384.826-5.061.826z"/><path d="m166.684 478.599c-7.582 0-14.316-5.412-15.723-13.137-.216-1.185-2.021-11.963 1.024-25.28 4.188-18.319 15.359-32.918 32.305-42.216 7.746-4.251 17.474-1.417 21.725 6.33s1.417 17.473-6.33 21.724c-21.013 11.53-17.281 33.489-17.241 33.71 1.583 8.694-4.182 17.024-12.875 18.607-.969.176-1.934.262-2.885.262z"/><path d="m239.994 394.635c-6.699 0-12.942-4.24-15.177-10.945-2.789-8.365 1.716-17.405 10.064-20.22.649-.226 31.602-11.216 40.632-36.801 2.94-8.333 12.079-12.704 20.413-9.763 8.333 2.941 12.704 12.08 9.763 20.413-14.347 40.649-58.751 55.863-60.634 56.49-1.678.56-3.385.826-5.061.826z"/></g></g></svg>