<svg id="Layer_1" enable-background="new 0 0 495.06 495.06" height="512" viewBox="0 0 495.06 495.06" width="512" xmlns="http://www.w3.org/2000/svg"><path d="m375.09 263.12c29.435 59.215-13.609 129.6-80.4 129.6h-214.86c-38.66 0-69.87-31.88-68.77-70.79 1.07-38.002 33.202-66.79 67.31-66.79 7.27-.16 12.89-6.45 12.07-13.68-6.836-60.673 53.495-112.776 115.82-93.36v-.01c25.41-59.237 98.672-82.1 153.59-45.36 55.132 37.18 61.734 114.452 15.24 160.39z" fill="#83f8fb"/><path d="m375.09 263.12c-17.122-34.465-54.489-54.607-93.6-48.89-7.55 1.12-14.77-3.37-17.33-10.56-16.273-45.679-57.9-55.156-57.9-55.58 25.41-59.237 98.672-82.1 153.59-45.36 55.132 37.18 61.734 114.452 15.24 160.39z" fill="#ffe773"/><g fill="#ffec8f"><path d="m475.03 205h-18c-8.836 0-16-7.164-16-16s7.164-16 16-16h18c8.836 0 16 7.164 16 16s-7.163 16-16 16z"/><path d="m301.88 50c-8.836 0-16-7.164-16-16v-18c0-8.836 7.164-16 16-16s16 7.164 16 16v18c0 8.836-7.163 16-16 16z"/><path d="m411.56 95.37c-14.12 0-21.423-17.196-11.318-27.309l12.72-12.73c6.246-6.251 16.377-6.255 22.627-.009 6.251 6.246 6.255 16.376.009 22.627l-12.72 12.73c-3.124 3.127-7.221 4.691-11.318 4.691z"/><path d="m180.926 90.784-12.72-12.72c-6.248-6.249-6.248-16.379 0-22.627s16.379-6.249 22.627 0l12.72 12.72c6.248 6.249 6.248 16.379 0 22.627-6.246 6.247-16.378 6.249-22.627 0z"/></g><path d="m379.908 274.84c2.151 6.513-6.658 10.863-10.621 5.264-22.18-31.34-60.722-49.281-101.377-43.323-8.85 1.32-17.31-3.95-20.31-12.38-12.546-35.187-42.782-60.81-78.771-67.896-6.685-1.316-6.399-11.053.37-11.835 42.14-4.872 81.126 20.164 94.962 59.002 2.56 7.19 9.78 11.68 17.33 10.56 43.864-6.414 84.917 19.718 98.417 60.608z" fill="#bbfbff"/><path d="m303.56 392.29s10.942.43-223.73.43c-47.485 0-79.828-46.833-65.47-89.9 9.944-29.831 37.867-47.68 64.01-47.68 7.27-.16 12.89-6.45 12.07-13.68-1.45-12.865.424-25.951 4.606-37.721 4.403-12.39 22.939-6.31 19.476 6.375-1.608 5.891-1.842 9.542-3.642 20.186-3.194 18.887 7.455 26.305 2.65 34.95-5.847 10.519-23.189 1.875-37.5 12.417-15.338 11.298-21.166 40.192-10 60.083 12.102 21.559 39.53 24.355 53.63 25.7 0 0 182.513.02 182.52.02 18.35 0 19.63 27 1.38 28.82z" fill="#6ff3fa"/><path d="m377.702 196.008c-16.897-42.218-56.181-72.906-101.627-78.49-15.947-1.959-17.538-24.404-2.06-28.715 66.559-18.538 133.001 32.312 132 101.94-.231 16.094-22.332 20.208-28.313 5.265z" fill="#ffec8f"/><path d="m121.03 396h-101c-8.837 0-16-7.164-16-16s7.163-16 16-16h101c8.918 0 13.317-10.831 7.078-17.054-3.693-3.702-6.781-2.946-18.078-2.946-8.837 0-16-7.164-16-16s7.163-16 16-16c11.801 0 26.785-1.632 40.705 12.318 26.346 26.288 7.615 71.682-29.705 71.682z" fill="#f7f7f7"/><path d="m231.03 396h-31c-8.837 0-16-7.164-16-16s7.163-16 16-16h31c5.514 0 10-4.486 10-10 0-5.549-4.511-10-10-10h-11c-8.837 0-16-7.164-16-16s7.163-16 16-16h11c22.929 0 42 18.523 42 42 0 23.159-18.841 42-42 42z" fill="#f7f7f7"/><path d="m190.03 495c-8.837 0-16-7.164-16-16s7.163-16 16-16h11c5.55 0 10-4.511 10-10 0-5.514-4.486-10-10-10h-101c-8.837 0-16-7.164-16-16s7.163-16 16-16h101c37.414 0 55.987 45.455 29.682 71.706-13.914 13.942-29.004 12.294-40.682 12.294z" fill="#f7f7f7"/></svg>