<svg id="Layer_1" enable-background="new 0 0 464.025 464.025" height="512" viewBox="0 0 464.025 464.025" width="512" xmlns="http://www.w3.org/2000/svg"><path d="m463.325 350.534c-.56 7.32-6.63 12.98-13.97 12.98h-141.2c-9.03 0-15.57-8.39-13.63-17.2 8.612-39.038-20.499-75.912-59.44-77.73-42.269-1.967-74.79 36.726-65.51 78.03 1.95 8.68-4.8 16.9-13.7 16.9h-141.2c-7.32 0-13.4-5.65-13.97-12.95-10.407-134.83 95.775-249.408 230.17-250.05 135.888-.644 242.862 114.003 232.45 250.02z" fill="#ffa4b8"/><path d="m192.645 282.054c-8.92 6.96-15.94 16.24-20.17 26.93l-126.16-115.56c19.47-25.96 44.27-47.7 72.76-63.61z" fill="#ffbfcd"/><path d="m402.585 174.934-114.58 126.68c-10.42-18.73-29.96-31.83-52.56-33.01 6.123-169.651 5.97-167.9 6.07-167.9 63.73 2.54 120.72 30.55 161.07 74.23z" fill="#ffbfcd"/><path d="m405.295 363.514h-57.33c20.364-76.287-37.248-151-115.95-151-78.761 0-136.298 74.773-115.95 151h-57.33c-19.265-108.273 64.062-207 173.28-207 109.329 0 192.526 98.835 173.28 207z" fill="#ffec8f"/><path d="m347.965 363.514h-39.814c-9.027 0-15.564-8.387-13.627-17.203 8.617-39.219-20.647-75.916-59.443-77.725-42.261-1.972-74.794 36.732-65.508 78.029 1.952 8.682-4.794 16.899-13.693 16.899h-39.815c-20.498-76.792 38.04-152.021 117.543-150.99 77.081 1.001 134.684 74.838 114.357 150.99z" fill="#befa91"/><path d="m192.645 282.054c-8.92 6.96-15.94 16.24-20.17 26.93l-42.78-39.19c9.504-15.682 24.934-30.887 38.29-38.78z" fill="#d0ffad"/><path d="m167.985 231.014c-13.046 7.71-28.576 22.752-38.29 38.78l-41.82-38.3c14.61-20.8 33.6-38.29 55.63-51.13z" fill="#fff2b3"/><path d="m326.625 258.914-38.62 42.7c-10.42-18.73-29.96-31.83-52.56-33.01l2.02-55.96c29.943.576 65.491 15.93 89.16 46.27z" fill="#d0ffad"/><path d="m364.675 216.854-37.96 41.96c-23.532-30.203-59.13-45.59-89.25-46.17l2.02-55.97c49.91 2.08 94.45 24.95 125.19 60.18z" fill="#fff2b3"/></svg>