<svg id="Layer_1" enable-background="new 0 0 496.005 496.005" height="512" viewBox="0 0 496.005 496.005" width="512" xmlns="http://www.w3.org/2000/svg"><g fill="#c1fefa"><path d="m36.755 475.35c4.146-13.56 22.589-15.44 29.41-2.89 5.412 10.382-1.475 22.39-12.54 23.46-11.611 1.112-20.225-10.064-16.87-20.57z"/><path d="m70.755 433.35c2.891-9.455 13.623-14.26 22.84-9.46 13.969 7.593 9.587 28.526-5.97 30.03-11.338 1.086-20.158-9.604-16.87-20.57z"/><path d="m140.135 439.57c-.846-8.834 5.613-16.653 14.35-17.49 9.484-.913 17.57 6.55 17.57 15.92 0 8.272-6.346 15.138-14.43 15.92-8.88.85-16.65-5.658-17.49-14.35z"/><path d="m210.135 439.57c-.859-8.971 5.752-16.666 14.35-17.49 14.764-1.566 23.503 16.594 12.88 27.23-9.138 9.374-25.909 3.924-27.23-9.74z"/><path d="m281.945 430.46c5.242-9.644 17.974-11.216 25.42-3.77 9.606 9.606 3.53 25.948-9.74 27.23-12.617 1.209-21.676-11.98-15.68-23.46z"/><path d="m106.135 481.57c-.846-8.834 5.613-16.653 14.35-17.49 9.505-.915 17.57 6.568 17.57 15.92 0 7.967-6.023 15.107-14.43 15.92-8.931.855-16.654-5.703-17.49-14.35z"/><path d="m176.135 481.57c-.86-8.976 5.754-16.667 14.35-17.49 16.445-1.745 24.243 20.127 10.45 29.22-9.894 6.67-23.633.34-24.8-11.73z"/><path d="m246.135 481.57c-1.371-14.312 15.25-22.873 26.06-13.94 10.808 8.698 5.857 26.896-8.57 28.29-8.925.855-16.662-5.706-17.49-14.35z"/><path d="m321.905 467.63c4.719-3.798 10.889-4.642 16.271-2.4 15.328 6.384 11.899 29.1-4.551 30.69-15.803 1.515-23.798-18.309-11.72-28.29z"/></g><path d="m372.115 263.12c29.435 59.215-13.609 129.6-80.4 129.6h-214.86c-38.66 0-69.87-31.88-68.77-70.79 1.07-38.002 33.202-66.79 67.31-66.79 7.27-.16 12.89-6.45 12.07-13.68-6.836-60.673 53.495-112.776 115.82-93.36v-.01c25.41-59.237 98.672-82.1 153.59-45.36 55.132 37.18 61.734 114.452 15.24 160.39z" fill="#83f8fb"/><path d="m372.115 263.12c-17.122-34.465-54.489-54.607-93.6-48.89-7.55 1.12-14.77-3.37-17.33-10.56-16.273-45.679-57.9-55.156-57.9-55.58 25.41-59.237 98.672-82.1 153.59-45.36 55.132 37.18 61.734 114.452 15.24 160.39z" fill="#ffe773"/><path d="m472.055 205h-18c-8.836 0-16-7.164-16-16s7.164-16 16-16h18c8.836 0 16 7.164 16 16s-7.163 16-16 16z" fill="#ffec8f"/><path d="m298.905 50c-8.836 0-16-7.164-16-16v-18c0-8.836 7.164-16 16-16s16 7.164 16 16v18c0 8.836-7.163 16-16 16z" fill="#ffec8f"/><path d="m397.276 90.688c-6.251-6.246-6.255-16.376-.009-22.627l12.72-12.73c6.246-6.251 16.377-6.255 22.627-.009 6.251 6.246 6.255 16.376.009 22.627l-12.72 12.73c-6.243 6.249-16.375 6.257-22.627.009z" fill="#ffec8f"/><path d="m177.951 90.784-12.72-12.72c-6.248-6.249-6.248-16.379 0-22.627s16.379-6.249 22.627 0l12.72 12.72c6.248 6.249 6.248 16.379 0 22.627-6.246 6.247-16.378 6.249-22.627 0z" fill="#ffec8f"/><path d="m376.933 274.84c2.151 6.513-6.658 10.863-10.621 5.264-22.18-31.34-60.722-49.281-101.377-43.323-8.85 1.32-17.31-3.95-20.31-12.38-12.546-35.187-42.782-60.81-78.771-67.896-6.685-1.316-6.399-11.053.37-11.835 42.14-4.872 81.126 20.164 94.962 59.002 2.56 7.19 9.78 11.68 17.33 10.56 43.864-6.414 84.917 19.718 98.417 60.608z" fill="#bbfbff"/><path d="m300.585 392.29s10.942.43-223.73.43c-47.485 0-79.828-46.833-65.47-89.9 9.944-29.831 37.867-47.68 64.01-47.68 7.27-.16 12.89-6.45 12.07-13.68-1.45-12.865.424-25.951 4.606-37.721 4.403-12.39 22.939-6.31 19.476 6.375-1.608 5.891-1.842 9.542-3.642 20.186-3.194 18.887 7.455 26.305 2.65 34.95-5.847 10.519-23.189 1.875-37.5 12.417-15.338 11.298-21.166 40.192-10 60.083 12.102 21.559 39.53 24.355 53.63 25.7 0 0 182.513.02 182.52.02 18.35 0 19.63 27 1.38 28.82z" fill="#6ff3fa"/><path d="m374.727 196.008c-16.897-42.218-56.181-72.906-101.627-78.49-15.947-1.959-17.538-24.404-2.06-28.715 66.559-18.538 133.001 32.312 132 101.94-.231 16.094-22.332 20.208-28.313 5.265z" fill="#ffec8f"/></svg>