<svg id="Layer_1" enable-background="new 0 0 480.02 480.02" height="512" viewBox="0 0 480.02 480.02" width="512" xmlns="http://www.w3.org/2000/svg"><g fill="#c1fefa"><path d="m45.268 459.366c4.146-13.56 22.589-15.44 29.41-2.89 5.412 10.382-1.475 22.39-12.54 23.46-11.611 1.112-20.225-10.064-16.87-20.57z"/><path d="m79.268 417.366c2.891-9.455 13.623-14.26 22.84-9.46 13.969 7.593 9.587 28.526-5.97 30.03-11.338 1.085-20.157-9.604-16.87-20.57z"/><path d="m148.648 423.585c-.846-8.834 5.613-16.653 14.35-17.49 9.484-.913 17.57 6.55 17.57 15.92 0 8.272-6.346 15.138-14.43 15.92-8.879.851-16.649-5.657-17.49-14.35z"/><path d="m218.648 423.585c-.859-8.971 5.752-16.666 14.35-17.49 14.764-1.566 23.503 16.594 12.88 27.23-9.137 9.374-25.908 3.924-27.23-9.74z"/><path d="m290.458 414.476c5.242-9.644 17.974-11.216 25.42-3.77 9.606 9.606 3.53 25.948-9.74 27.23-12.616 1.209-21.676-11.98-15.68-23.46z"/><path d="m114.648 465.585c-.846-8.834 5.613-16.653 14.35-17.49 9.505-.915 17.57 6.568 17.57 15.92 0 7.967-6.023 15.107-14.43 15.92-8.93.856-16.653-5.703-17.49-14.35z"/><path d="m184.648 465.585c-.86-8.976 5.754-16.667 14.35-17.49 16.445-1.745 24.243 20.127 10.45 29.22-9.893 6.671-23.632.341-24.8-11.73z"/><path d="m254.649 465.585c-1.371-14.312 15.25-22.873 26.06-13.94 10.808 8.698 5.857 26.896-8.57 28.29-8.926.856-16.662-5.706-17.49-14.35z"/><path d="m330.418 451.645c4.719-3.798 10.889-4.642 16.271-2.4 15.328 6.384 11.899 29.1-4.551 30.69-15.802 1.515-23.798-18.308-11.72-28.29z"/></g><path d="m460.869 225.636c-16.07 28.22-40.97 50.75-70.94 63.83-1.3 48.42-40.96 87.27-89.7 87.27h-214.86c-38.66 0-69.87-31.88-68.77-70.79 1.07-38.002 33.202-66.79 67.31-66.79 7.27-.16 12.89-6.45 12.07-13.68-5.379-47.745 32.154-94.48 84.33-97.26l-.01-.13c11.923-78.238 83.708-136.216 166.15-127.14 15.49 1.73 23.38 19.26 14.7 32.2-45.882 68.304 3.227 159.527 82.38 161.79 15.43.59 24.98 17.28 17.34 30.7z" fill="#83f8fb"/><path d="m443.525 194.938c15.431.588 24.988 17.281 17.346 30.7-16.069 28.214-40.97 50.746-70.941 63.827 1.372-56.241-47.971-99.318-102.899-91.216-7.489 1.105-14.747-3.265-17.273-10.4-13.259-37.446-49.76-61.852-89.448-59.634l-.01-.13c11.994-78.713 84.298-136.246 166.152-127.136 15.487 1.724 23.378 19.253 14.694 32.192-45.25 67.425 1.628 158.721 82.379 161.797z" fill="#ffe773"/><path d="m460.829 225.706c-2.47 4.308-7.257 6.775-12.203 6.329-106.449-9.604-171.432-129.398-116.553-224.931 2.512-4.372 7.374-6.851 12.393-6.364 18.852 1.831 24.925 20.12 16.683 32.406-45.882 68.304 3.227 159.527 82.38 161.79 15.43.59 25.02 17.301 17.3 30.77z" fill="#ffec8f"/><path d="m385.447 258.855c2.15 6.513-6.658 10.863-10.621 5.264-22.18-31.34-60.722-49.281-101.377-43.323-8.85 1.32-17.31-3.95-20.31-12.38-12.546-35.187-42.782-60.81-78.771-67.896-6.685-1.316-6.399-11.053.37-11.835 42.437-4.906 81.229 20.453 94.962 59.002 2.56 7.19 9.78 11.68 17.33 10.56 43.875-6.415 84.917 19.719 98.417 60.608z" fill="#bbfbff"/><path d="m309.099 376.306s10.942.43-223.73.43c-47.485 0-79.828-46.833-65.47-89.9 9.944-29.831 37.867-47.68 64.01-47.68 7.27-.16 12.89-6.45 12.07-13.68-1.45-12.865.424-25.951 4.606-37.721 4.403-12.39 22.939-6.31 19.476 6.375-1.608 5.891-1.842 9.542-3.642 20.186-3.194 18.887 7.455 26.305 2.65 34.95-5.847 10.519-23.189 1.875-37.5 12.417-15.338 11.298-21.166 40.192-10 60.083 12.102 21.559 39.53 24.355 53.63 25.7 0 0 182.513.02 182.52.02 18.35 0 19.63 27 1.38 28.82z" fill="#6ff3fa"/></svg>