<svg id="Layer_1" enable-background="new 0 0 496 496" height="512" viewBox="0 0 496 496" width="512" xmlns="http://www.w3.org/2000/svg"><circle cx="307" cy="189.65" fill="#ffe773" r="104"/><g fill="#ffec8f"><path d="m480 205.29h-18c-8.837 0-16-7.164-16-16s7.163-16 16-16h18c8.837 0 16 7.164 16 16s-7.163 16-16 16z"/><path d="m306.85 50.29c-8.837 0-16-7.164-16-16v-18c0-8.836 7.163-16 16-16s16 7.164 16 16v18c0 8.836-7.163 16-16 16z"/><path d="m416.53 95.66c-14.121 0-21.424-17.195-11.318-27.309l12.72-12.73c6.247-6.251 16.377-6.254 22.628-.009 6.25 6.246 6.255 16.376.009 22.627l-12.72 12.73c-3.125 3.127-7.222 4.691-11.319 4.691z"/><path d="m185.896 91.073-12.72-12.72c-6.249-6.248-6.249-16.379 0-22.627 6.248-6.249 16.379-6.249 22.627 0l12.72 12.72c6.249 6.248 6.249 16.379 0 22.627-6.247 6.248-16.378 6.249-22.627 0z"/><path d="m152 206.01h-18c-8.837 0-16-7.164-16-16s7.163-16 16-16h18c8.837 0 16 7.164 16 16s-7.163 16-16 16z"/><path d="m418.196 323.573-12.72-12.72c-6.249-6.248-6.249-16.379 0-22.627 6.248-6.249 16.379-6.249 22.627 0l12.72 12.72c6.249 6.248 6.249 16.379 0 22.627-6.247 6.248-16.379 6.249-22.627 0z"/></g><path d="m117 396.65h-101c-8.837 0-16-7.164-16-16s7.163-16 16-16h101c5.514 0 10-4.486 10-10 0-5.549-4.511-10-10-10h-11c-8.837 0-16-7.164-16-16s7.163-16 16-16c11.801 0 26.785-1.632 40.705 12.318 26.346 26.287 7.615 71.682-29.705 71.682z" fill="#f7f7f7"/><path d="m227 396.65h-31c-8.837 0-16-7.164-16-16s7.163-16 16-16h31c5.514 0 10-4.486 10-10 0-5.549-4.511-10-10-10h-11c-8.837 0-16-7.164-16-16s7.163-16 16-16h11c22.929 0 42 18.523 42 42 0 23.159-18.841 42-42 42z" fill="#f7f7f7"/><path d="m186 495.65c-8.837 0-16-7.164-16-16s7.163-16 16-16c11.269 0 14.389.751 18.055-2.922 6.309-6.296 1.817-17.078-7.055-17.078h-101c-8.837 0-16-7.164-16-16s7.163-16 16-16h101c37.414 0 55.987 45.455 29.682 71.706-13.914 13.942-29.004 12.294-40.682 12.294z" fill="#f7f7f7"/><path d="m382.672 196.658c-16.897-42.218-56.181-72.906-101.627-78.49-15.947-1.959-17.538-24.404-2.06-28.715 66.559-18.538 133.001 32.312 132 101.94-.231 16.094-22.332 20.208-28.313 5.265z" fill="#ffec8f"/></svg>