<svg id="Layer_1" enable-background="new 0 0 480.097 480.097" height="512" viewBox="0 0 480.097 480.097" width="512" xmlns="http://www.w3.org/2000/svg"><path d="m471.717 212.242c-24.675 43.089-71.308 71.987-124.64 71.447-78.297-.793-140.652-64.067-140.36-142.368.312-83.584 72.74-149.47 157.226-140.503 14.842 1.575 22.536 18.29 14.298 30.736-41.446 62.611 1.238 147.862 77.178 150.951 14.869.605 23.693 16.822 16.298 29.737z" fill="#ffe773"/><path d="m471.612 211.293c-2.309 4.027-6.784 6.333-11.407 5.916-99.507-8.977-160.252-120.959-108.952-210.262 2.348-4.087 6.893-6.405 11.585-5.949 17.623 1.712 23.299 18.808 15.595 30.293-42.889 63.849 3.017 149.123 77.008 151.239 14.424.551 23.388 16.173 16.171 28.763z" fill="#ffec8f"/><g fill="#f7f7f7"><path d="m122.716 381.036h-101c-8.836 0-16-7.164-16-16s7.164-16 16-16h101c8.919 0 13.317-10.829 7.079-17.054-3.694-3.702-6.782-2.946-18.079-2.946-8.836 0-16-7.164-16-16s7.164-16 16-16c11.801 0 26.786-1.632 40.706 12.319 26.345 26.289 7.612 71.681-29.706 71.681z"/><path d="m232.716 381.036h-31c-8.836 0-16-7.164-16-16s7.164-16 16-16h31c5.514 0 10-4.486 10-10 0-5.55-4.512-10-10-10h-11c-8.836 0-16-7.164-16-16s7.164-16 16-16c11.801 0 26.786-1.632 40.706 12.319 26.345 26.289 7.612 71.681-29.706 71.681z"/><path d="m191.716 480.036c-8.836 0-16-7.164-16-16s7.164-16 16-16c11.277 0 14.392.748 18.054-2.921 6.311-6.298 1.816-17.079-7.054-17.079h-101c-8.836 0-16-7.164-16-16s7.164-16 16-16h101c37.423 0 55.981 45.462 29.681 71.706-13.916 13.947-29.029 12.294-40.681 12.294z"/></g></svg>