<svg id="Layer_1" enable-background="new 0 0 480.016 480.016" height="512" viewBox="0 0 480.016 480.016" width="512" xmlns="http://www.w3.org/2000/svg"><path d="m60.566 451.016c-8.836 0-16-7.164-16-16v-10c0-8.836 7.164-16 16-16s16 7.164 16 16v10c0 8.836-7.163 16-16 16z" fill="#6ff3fa"/><path d="m130.566 480.016c-8.836 0-16-7.164-16-16v-39c0-8.836 7.164-16 16-16s16 7.164 16 16v39c0 8.836-7.163 16-16 16z" fill="#6ff3fa"/><g fill="#c1fefa"><path d="m206.066 452.016c-11.855 0-21.5-9.645-21.5-21.5s9.645-21.5 21.5-21.5 21.5 9.645 21.5 21.5-9.645 21.5-21.5 21.5z"/><path d="m276.066 480.016c-11.855 0-21.5-9.645-21.5-21.5s9.645-21.5 21.5-21.5 21.5 9.645 21.5 21.5-9.644 21.5-21.5 21.5z"/><path d="m346.066 450.016c-11.855 0-21.5-9.645-21.5-21.5s9.645-21.5 21.5-21.5 21.5 9.645 21.5 21.5-9.644 21.5-21.5 21.5z"/></g><path d="m460.866 225.636c-16.07 28.22-40.97 50.75-70.94 63.83-1.3 48.42-40.96 87.27-89.7 87.27h-214.86c-38.66 0-69.87-31.88-68.77-70.79 1.07-38.002 33.202-66.79 67.31-66.79 7.27-.16 12.89-6.45 12.07-13.68-5.379-47.745 32.154-94.48 84.33-97.26l-.01-.13c11.923-78.238 83.709-136.216 166.15-127.14 15.49 1.73 23.38 19.26 14.7 32.2-45.817 68.207 3.043 159.521 82.38 161.79 15.43.59 24.98 17.28 17.34 30.7z" fill="#83f8fb"/><path d="m443.522 194.938c15.431.588 24.988 17.281 17.346 30.7-16.069 28.214-40.97 50.746-70.941 63.827 1.372-56.241-47.971-99.318-102.899-91.216-7.489 1.105-14.747-3.265-17.273-10.4-13.259-37.446-49.76-61.852-89.448-59.634l-.01-.13c11.995-78.713 84.298-136.246 166.153-127.136 15.487 1.724 23.378 19.253 14.694 32.192-45.274 67.461 1.655 158.722 82.378 161.797z" fill="#ffe773"/><path d="m460.826 225.706c-2.47 4.308-7.257 6.775-12.203 6.329-106.449-9.604-171.432-129.398-116.553-224.931 2.512-4.372 7.374-6.851 12.393-6.364 18.852 1.831 24.925 20.12 16.683 32.406-45.882 68.304 3.227 159.527 82.38 161.79 15.431.59 25.02 17.301 17.3 30.77z" fill="#ffec8f"/><path d="m385.444 258.855c2.151 6.513-6.658 10.863-10.621 5.264-22.18-31.34-60.722-49.281-101.377-43.323-8.85 1.32-17.31-3.95-20.31-12.38-12.546-35.187-42.782-60.81-78.771-67.896-6.685-1.316-6.399-11.053.37-11.835 42.14-4.872 81.126 20.164 94.962 59.002 2.56 7.19 9.78 11.68 17.33 10.56 43.875-6.415 84.917 19.719 98.417 60.608z" fill="#bbfbff"/><path d="m309.096 376.306s10.942.43-223.73.43c-47.485 0-79.828-46.833-65.47-89.9 9.944-29.831 37.867-47.68 64.01-47.68 7.27-.16 12.89-6.45 12.07-13.68-1.45-12.865.424-25.951 4.606-37.721 4.403-12.39 22.939-6.31 19.476 6.375-1.608 5.891-1.842 9.542-3.642 20.186-3.194 18.887 7.455 26.305 2.65 34.95-5.847 10.519-23.189 1.875-37.5 12.417-15.338 11.298-21.166 40.192-10 60.083 12.102 21.559 39.53 24.355 53.63 25.7 0 0 182.513.02 182.52.02 18.35 0 19.63 27 1.38 28.82z" fill="#6ff3fa"/></svg>