<svg id="Layer_1" enable-background="new 0 0 464 464" height="512" viewBox="0 0 464 464" width="512" xmlns="http://www.w3.org/2000/svg"><path d="m446.532 347.132c-40.357 70.474-116.628 117.739-203.856 116.856-128.059-1.297-230.043-104.785-229.565-232.85.51-136.706 118.97-244.465 257.151-229.8 24.275 2.576 36.859 29.915 23.385 50.27-67.788 102.404 2.024 241.836 126.228 246.888 24.32.989 38.753 27.514 26.657 48.636z" fill="#ffe773"/><path d="m446.362 345.581c-3.776 6.587-11.095 10.358-18.657 9.676-162.749-14.683-262.101-197.835-178.197-343.895 3.84-6.685 11.274-10.475 18.947-9.73 1.013.098 2.023.203 3.032.315 23.682 2.645 35.745 29.446 22.475 49.23-70.148 104.429 4.934 243.898 125.95 247.359 23.592.902 38.253 26.453 26.45 47.045z" fill="#ffec8f"/></svg>