<svg id="Layer_1" enable-background="new 0 0 464.006 464.006" height="512" viewBox="0 0 464.006 464.006" width="512" xmlns="http://www.w3.org/2000/svg"><path d="m345.963 93.513c96.133 44.29 148.576 145.09 99.069 252.04-2.868 6.197-11.601 6.04-14.532-.128-10.664-22.445-46.983-27.75-60.008.528-44.283 96.128-145.072 148.606-252.049 99.076-6.196-2.869-6.04-11.6.127-14.531 22.439-10.666 27.75-46.98-.528-60.005-96.133-44.29-148.576-145.09-99.069-252.04 2.868-6.197 11.601-6.04 14.532.128 10.664 22.445 46.983 27.75 60.008-.528 44.283-96.128 145.072-148.606 252.049-99.076 6.196 2.869 6.04 11.6-.127 14.531-22.438 10.666-27.749 46.981.528 60.005z" fill="#c1fefa"/><circle cx="232.003" cy="232.003" fill="#83f8fb" r="38.75"/><path d="m245.585 195.608c3.653 1.366 3.036 6.809-1.287 7.007-27.215 1.246-43.167 28.93-34.636 52.08 1.354 3.675-3.297 6.621-5.972 3.76-6.824-7.299-10.857-17.238-10.402-28.117 1.155-27.557 29.175-43.376 52.297-34.73z" fill="#4bf5fa"/><g fill="#83f8fb"><path d="m335.048 292.899c-8.138-3.443-11.944-12.832-8.5-20.97 24.15-57.075-7.776-123.296-68.476-139.187-8.549-2.238-13.665-10.982-11.427-19.531 2.238-8.548 10.983-13.661 19.53-11.426 79.641 20.849 121.544 107.69 89.843 182.614-3.444 8.138-12.833 11.942-20.97 8.5z"/><path d="m102.387 268.393c-15.449-55.095 5.585-114.756 53.883-147.68 7.303-4.978 17.256-3.092 22.233 4.208 4.977 7.302 3.093 17.255-4.208 22.233-36.827 25.104-52.875 70.586-41.096 112.599 2.386 8.509-2.578 17.34-11.086 19.726-8.49 2.382-17.336-2.562-19.726-11.086z"/><path d="m143.395 333.322c-6.649-5.82-7.321-15.929-1.5-22.578 5.821-6.648 15.929-7.319 22.578-1.5 29.511 25.834 71.127 32.409 106.859 17.555 8.159-3.394 17.523.473 20.916 8.632 3.393 8.16-.472 17.524-8.632 20.916-46.815 19.463-101.399 10.959-140.221-23.025z"/></g><path d="m345.433 33.513c-1.785.847-4.732 3.055-8.791 1.343-98-41.34-189.425 7.768-230.109 96.077-4.872 10.587-13.221 16.164-22.137 17.708-8.897 1.541-13.142-10.662-5.174-14.909 5.789-3.086 10.854-8.211 14.291-15.679 44.28-96.13 145.07-148.61 252.05-99.08 6.19 2.87 6.04 11.6-.13 14.54z" fill="#d9fffd"/><path d="m430.493 345.433c-.847-1.785-3.055-4.732-1.343-8.791 41.34-98-7.768-189.425-96.077-230.109-10.587-4.872-16.164-13.221-17.708-22.137-1.541-8.897 10.662-13.142 14.909-5.174 3.086 5.789 8.211 10.854 15.679 14.291 96.13 44.28 148.61 145.07 99.08 252.05-2.87 6.19-11.6 6.04-14.54-.13z" fill="#83f8fb"/><path d="m118.573 430.493c1.785-.847 4.732-3.055 8.791-1.343 98 41.34 189.425-7.768 230.109-96.077 4.872-10.587 13.221-16.164 22.137-17.708 8.897-1.541 13.142 10.662 5.174 14.909-5.789 3.086-10.854 8.211-14.291 15.679-44.28 96.13-145.07 148.61-252.05 99.08-6.19-2.87-6.04-11.6.13-14.54z" fill="#83f8fb"/><path d="m33.513 118.573c.847 1.785 3.055 4.732 1.343 8.791-41.34 98 7.768 189.425 96.077 230.109 10.587 4.872 16.164 13.221 17.708 22.137 1.541 8.897-10.662 13.142-14.909 5.174-3.086-5.789-8.211-10.854-15.679-14.291-96.13-44.28-148.61-145.07-99.08-252.05 2.87-6.19 11.6-6.04 14.54.13z" fill="#d9fffd"/></svg>