<svg id="Layer_1" enable-background="new 0 0 446.089 446.089" height="512" viewBox="0 0 446.089 446.089" width="512" xmlns="http://www.w3.org/2000/svg"><path d="m278.264 348c-6.81 32.5.66 63.06 10.62 87.05 2.64 6.34-3.48 12.8-9.98 10.6-65.978-22.379-110.457-61.834-110.11-131.49.284-53.598 33.454-154.464-89.53-234.16l.2-.36c-62.999-34.935 14.574-79.64 141.8-79.64 90.57 0 164 23.73 164 53 12.06 89.38-7.49 144.52-29 179-28.94 46.39-67.27 64.74-78 116z" fill="#c1fefa"/><g fill="#83f8fb"><path d="m372.044 73.88c-52.895 39.79-224.4 43.582-292.58 5.76-62.999-34.935 14.574-79.64 141.8-79.64 118.164 0 196.869 39.164 150.78 73.88z"/><path d="m320.434 195.3c-46.111 23.135-98.319 27.312-146.786 12.936-3.092-.917-5.403-3.476-6.057-6.635-1.072-5.182-2.423-10.444-4.108-15.793-2.115-6.713 4.238-13.325 11.121-10.888 42.385 14.998 89.695 12.72 131.49-8.22 7.9-3.96 17.51-.77 21.47 7.13s.77 17.51-7.13 21.47z"/><path d="m249.744 298.97c-2.23-8.56-10.96-13.68-19.51-11.45-15.765 4.1-32.262 3.534-49.479-3.175-4.985-1.943-10.44 1.481-10.86 6.815-.457 5.81-.824 11.477-.997 17.202-.107 3.543 2.163 6.711 5.527 7.828 20.38 6.767 42.287 7.932 63.869 2.29 8.56-2.23 13.68-10.96 11.45-19.51z"/></g><path d="m346.727 87.133c-11.895 4.57-14.843-5.887-52.863-16.753-39.423-11.274-89.469-10.541-129.52-2.68-8.67 1.7-17.08-3.95-18.78-12.62s3.95-17.08 12.62-18.78c45.634-8.962 100.536-9.252 144.48 3.32 9.632 2.753 29.926 10.211 46.23 18.259 11.789 5.82 12.56 23.597-2.167 29.254z" fill="#4bf5fa"/><path d="m278.264 348c-6.81 32.5.66 63.06 10.62 87.05 2.64 6.34-3.48 12.8-9.98 10.6-7.058-2.398-13.639-4.916-19.768-7.534-4.489-1.918-7.984-5.618-9.6-10.225-7.761-22.126-12.458-48.629-6.602-76.561 10.73-51.26 49.06-69.61 78-116 18.128-29.057 34.865-72.789 32.456-139.318-.24-6.629 3.219-12.855 9.042-16.032 12.581-6.864 25.964 1.991 26.353 14.523 2.035 65.508-14.56 108.705-32.521 137.496-28.94 46.391-67.27 64.741-78 116.001z" fill="#d9fffd"/></svg>