<svg id="Layer_1" enable-background="new 0 0 496 496" height="512" viewBox="0 0 496 496" width="512" xmlns="http://www.w3.org/2000/svg"><path d="m434.95 254.818c.064 4.846 2.188-1.41-41.7 98.56-3.31 7.54-14.46 5.77-15.28-2.42l-7.71-77.1c-.358-3.581 1.366 1.085-31.5-72.68-1.24-2.78-5.01-3.21-6.85-.77-66.676 88.55-63.714 83.299-64.45 89.08-4.025 31.424-1.009 7.899-15.16 118.24-1.07 8.37-12.69 9.59-15.48 1.62l-63.5-181.37c-1.32-3.74-6.69-3.5-7.66.35l-25.76 102.53c-2.04 8.1-13.57 8.05-15.54-.07l-14.43-59.55c-1.21-4.99-4.75-9.1-9.51-11.04l-32.63-13.32c-5.42-2.21-9.2-7.21-9.86-13.02 0 0-15.385-136.172-15.43-136.57h410.5l-18.61 85.21c-.57 2.609-.448-2.675.56 72.32z" fill="#c1fefa"/><path d="m480 113.288h-464c-8.836 0-16-7.164-16-16s7.164-16 16-16h464c8.837 0 16 7.164 16 16s-7.163 16-16 16z" fill="#4bf5fa"/><g fill="#83f8fb"><path d="m276.515 266.539c4.092 8.182-6.384 11.057-8.879 22.12-1.648 7.305-11.632 8.417-14.981 1.719l-30.965-61.93c-1.91-3.82-2.21-8.25-.84-12.29l21-62c2.83-8.37 11.92-12.86 20.28-10.02 8.37 2.83 12.86 11.91 10.02 20.28l-18.86 55.68z"/><path d="m100.63 132.508c8.72 1.45 14.6 9.69 13.15 18.41l-5 30c-.74 4.44-3.31 8.36-7.09 10.8l-34.367 22.242c-4.987 3.228-11.628.086-12.296-5.816l-2.01-17.761c-.341-3.017 1.054-5.967 3.604-7.616l21.759-14.078 3.84-23.03c1.45-8.721 9.69-14.601 18.41-13.151z"/><path d="m434.569 226.607c.086 6.364-6.932 10.275-12.299 6.855l-41.87-26.684c-3.52-2.24-6.02-5.76-6.97-9.83l-8-34c-2.03-8.6 3.3-17.21 11.9-19.23 8.61-2.03 17.22 3.3 19.24 11.91l6.51 27.66 27.528 17.539c2.273 1.448 3.664 3.943 3.701 6.638z"/></g><path d="m136.44 327.816c1.872 7.598-9.423 11.111-11.878 3.68-.178-.54-14.498-59.706-14.632-60.258-1.21-4.99-4.75-9.1-9.51-11.04l-32.63-13.32c-9.506-3.876-9.842-12.861-10.271-16.668-.537-4.767 4.285-8.31 8.684-6.397 6.408 2.787 17.889 7.29 40.127 16.366 6.18 2.53 10.78 7.86 12.36 14.35 11.237 46.385 15.793 65.342 17.75 73.287z" fill="#d9fffd"/><path d="m253.953 394.858-1.648 12.832c-1.075 8.375-12.706 9.595-15.496 1.626-66.384-189.617-62.937-177.39-61.798-181.928 2.996-11.935 17.507-11.48 20.921-1.734 62.1 177.32 58.485 165.589 58.021 169.204z" fill="#d9fffd"/><path d="m393.25 353.378c-3.31 7.54-14.46 5.77-15.28-2.42l-7.71-77.1c-.358-3.581 1.366 1.085-31.5-72.68-6.191-13.882 13.976-22.862 19.775-9.558 29.548 67.788 28.106 63.682 28.475 67.368 9.695 96.94 9.778 86.32 6.24 94.39z" fill="#d9fffd"/></svg>