<svg id="Layer_1" enable-background="new 0 0 496.149 496.149" height="512" viewBox="0 0 496.149 496.149" width="512" xmlns="http://www.w3.org/2000/svg"><path d="m91.699 496.149c-24.671 0-44.966-20.095-44.966-45.005 0-9.508 2.335-14.306 8.137-30.9 2.915-8.342 12.041-12.741 20.383-9.824 8.342 2.916 12.74 12.042 9.824 20.384-6.105 17.465-6.344 17.467-6.344 20.34 0 5.518 3.506 10.452 8.724 12.277 6.756 2.358 14.188-1.219 16.551-7.982l52.152-149.146c2.917-8.341 12.038-12.74 20.385-9.822 8.341 2.917 12.738 12.043 9.822 20.384l-52.15 149.14c-6.469 18.524-23.914 30.154-42.518 30.154z" fill="#4d4e59"/><path d="m186.364 316.854-7.24 20.71c-8.997-6.344-19.513-10.027-30.07-10.93l7.11-20.34c2.91-8.34 12.03-12.74 20.38-9.82 8.339 2.91 12.74 12.04 9.82 20.38z" fill="#42434d"/><path d="m228.363 164.268c-10.989 0-18.744-10.879-15.103-21.287l7.919-22.648c2.916-8.342 12.044-12.741 20.384-9.823 8.342 2.916 12.739 12.042 9.823 20.384l-7.921 22.652c-2.305 6.593-8.491 10.722-15.102 10.722z" fill="#4d4e59"/><path d="m228.364 148.264c-87.961-30.747-184.991 20.152-208.861 111.032-1.482 5.641 3.326 10.838 9.09 9.948 25.516-3.938 51.502 8.725 63.681 32.73 6.173 12.176 21.051 17.389 33.48 11.71 29.758-13.62 64.992-1.329 79.79 27.9 6.229 12.268 21.137 17.354 33.49 11.71 24.488-11.217 52.715-4.886 70.197 14.074 3.946 4.28 10.945 3.23 13.298-2.095 37.623-85.15-4.703-185.675-94.165-217.009z" fill="#befa91"/><path d="m283.26 180.771c8.64 7.816-1.628 21.271-11.439 14.987-83.472-53.463-192.985-18.914-233.136 67.707-2.473 5.336-7.438 5.367-10.091 5.779-5.76.89-10.57-4.31-9.09-9.95 30.711-116.926 175.173-158.66 263.756-78.523z" fill="#d0ffad"/><path d="m228.363 148.264c-61.219 36.872-104.292 96.351-120.49 166.65-6.55-1.94-12.31-6.45-15.6-12.94-12.188-24.023-38.185-36.665-63.681-32.73-5.764.89-10.571-4.307-9.09-9.948 23.871-90.881 120.901-141.779 208.861-111.032z" fill="#ffa4b8"/><g fill="#6ff3fa"><path d="m87.037 99.093c-8.417-2.693-13.056-11.699-10.363-20.115l8-25c2.694-8.417 11.703-13.055 20.115-10.362 8.417 2.693 13.056 11.699 10.363 20.115l-8 25c-2.694 8.418-11.704 13.055-20.115 10.362z"/><path d="m186.968 89.07c-8.404-2.731-13.003-11.758-10.271-20.162l13-40c2.73-8.403 11.753-13.005 20.162-10.271 8.404 2.731 13.003 11.758 10.271 20.162l-13 40c-2.73 8.398-11.753 13.004-20.162 10.271z"/><path d="m279.134 84.773c-8.24-3.192-12.332-12.459-9.141-20.699l20.86-53.85c3.192-8.239 12.462-12.331 20.699-9.14 8.24 3.192 12.332 12.459 9.141 20.7l-20.86 53.85c-3.193 8.241-12.464 12.332-20.699 9.139z"/><path d="m331.18 156.791c-8.249-3.166-12.37-12.42-9.204-20.67l11.41-29.73c3.166-8.25 12.422-12.371 20.671-9.205s12.37 12.42 9.204 20.67l-11.41 29.73c-3.168 8.255-12.427 12.371-20.671 9.205z"/><path d="m380.546 70.24c-8.249-3.168-12.367-12.424-9.198-20.673l3.63-9.45c3.169-8.25 12.429-12.365 20.673-9.199 8.249 3.168 12.367 12.424 9.198 20.673l-3.63 9.45c-3.167 8.246-12.42 12.368-20.673 9.199z"/><path d="m382.514 239.915c-8.318-2.982-12.644-12.143-9.662-20.461l19-53c2.982-8.317 12.142-12.645 20.461-9.662 8.318 2.982 12.644 12.143 9.662 20.461l-19 53c-2.983 8.318-12.143 12.644-20.461 9.662z"/><path d="m441.507 133.913c-8.316-2.985-12.639-12.148-9.653-20.465l14-39c2.985-8.318 12.145-12.639 20.466-9.653 8.316 2.985 12.639 12.148 9.653 20.465l-14 39c-2.984 8.311-12.142 12.639-20.466 9.653z"/></g><path d="m228.364 148.264c-9.23 5.56-20.16 12.91-31.73 22.45-67.67-4.92-133.21 33.85-160.2 97.84-2.64.06-5.26.29-7.84.69-5.76.89-10.57-4.31-9.09-9.95 23.87-90.88 120.899-141.78 208.86-111.03z" fill="#ffbfcd"/><path d="m113.433 294.484c-2.42 7.71-4.22 14.61-5.56 20.43-6.55-1.94-12.31-6.45-15.6-12.94-.22-.43-.44-.86-.67-1.28 9.159.046 11.378-3.29 21.83-6.21z" fill="#fe929f"/><path d="m298.473 358.144c-17.185-11.579-39.665-13.908-59.44-4.85-10.563 4.826-22.957 1.807-30.25-6.81 4.24.13 8.55-.69 12.63-2.55 26.524-12.146 57.304-5.937 77.06 14.21z" fill="#b0fa78"/><path d="m219.113 353.824c0 .101-8.841-2.925-13.57-12.24-14.781-29.197-49.996-41.536-79.79-27.9-5.8 2.65-12.14 2.93-17.88 1.23 16.178-70.212 59.195-129.732 120.49-166.65 24.823 67.051 21.565 140.359-9.25 205.56z" fill="#c1fefa"/><path d="m237.733 179.214c-13.58-4.74-27.39-7.52-41.1-8.5 11.57-9.54 22.5-16.89 31.73-22.45 3.191 8.62 6.531 19 9.37 30.95z" fill="#d9fffd"/><path d="m186.794 319.654c-17.462-12.606-40.74-15.261-61.04-5.97-5.8 2.65-12.14 2.93-17.88 1.23 1.34-5.82 3.14-12.72 5.56-20.43 27.132-7.675 56.48 2.264 73.36 25.17z" fill="#83f8fb"/><path d="m224.023 342.804c-3.511 8.405-4.91 10.84-4.91 11.03-3.95-1.53-7.52-4.03-10.33-7.35 7.485.229 12.1-2.396 15.24-3.68z" fill="#83f8fb"/></svg>