<svg id="Layer_1" enable-background="new 0 0 496 496" height="512" viewBox="0 0 496 496" width="512" xmlns="http://www.w3.org/2000/svg"><path d="m464.491 305.657c-2.287-8.535-11.058-13.602-19.596-11.314l-57.803 15.488-31.092-17.951v-87.76l31.091-17.951c62.856 16.841 59.004 16.036 61.954 16.036 7.064 0 13.53-4.715 15.445-11.863 2.287-8.536-2.778-17.309-11.314-19.596l-26.892-7.205 30.634-17.687c7.652-4.418 10.274-14.204 5.856-21.856-4.419-7.653-14.205-10.273-21.856-5.856l-30.634 17.687 7.206-26.892c2.287-8.536-2.778-17.309-11.314-19.596-8.528-2.289-17.308 2.778-19.596 11.313l-15.488 57.802-31.092 17.952-76-43.878v-35.903l42.313-42.313c6.249-6.248 6.249-16.379 0-22.627-6.248-6.249-16.379-6.249-22.627 0l-19.686 19.686v-35.373c0-8.836-7.163-16-16-16s-16 7.164-16 16v35.373l-19.687-19.686c-6.248-6.249-16.379-6.249-22.627 0-6.249 6.248-6.249 16.379 0 22.627l42.314 42.313v35.903l-75.999 43.878-31.092-17.952-15.488-57.802c-2.287-8.534-11.057-13.602-19.596-11.313-8.536 2.287-13.602 11.06-11.314 19.596l7.206 26.892-30.634-17.687c-7.651-4.417-17.438-1.797-21.856 5.856-4.418 7.652-1.796 17.438 5.856 21.856l30.634 17.687-26.892 7.205c-8.536 2.287-13.602 11.061-11.314 19.596 2.288 8.538 11.063 13.6 19.596 11.314l57.803-15.488 31.09 17.952v87.76l-31.091 17.951-57.803-15.488c-8.533-2.285-17.31 2.779-19.596 11.314-2.287 8.536 2.778 17.309 11.314 19.596l26.892 7.205-30.634 17.687c-7.652 4.418-10.274 14.204-5.856 21.856 4.42 7.656 14.207 10.272 21.856 5.856l30.634-17.687-7.206 26.892c-2.722 10.159 4.945 20.145 15.465 20.145 7.064 0 13.529-4.715 15.445-11.863l15.488-57.802 31.092-17.952 76 43.88v35.903l-42.313 42.313c-6.249 6.248-6.249 16.379 0 22.627 6.248 6.249 16.379 6.249 22.627 0l19.686-19.686v35.373c0 8.836 7.163 16 16 16s16-7.164 16-16v-35.373l19.687 19.686c3.124 3.125 7.219 4.687 11.313 4.687 14.124 0 21.424-17.205 11.313-27.313l-42.313-42.314v-35.903l75.999-43.878 31.092 17.952 15.488 57.802c2.287 8.534 11.058 13.601 19.596 11.313 8.536-2.287 13.602-11.06 11.314-19.596l-7.206-26.892c33.181 19.157 32.99 19.833 38.619 19.833 16.302 0 22.164-21.689 8.015-29.859l-30.634-17.687 26.892-7.205c8.537-2.287 13.603-11.06 11.316-19.596zm-140.491-32.253-44-25.404 44-25.404zm-16.001-78.521-43.999 25.404v-50.807zm-75.999-25.403v50.806l-43.999-25.404zm-60 53.116 44 25.404-44 25.404zm16.001 78.521 43.999-25.404v50.806zm75.999 25.403v-50.806l43.999 25.404z" fill="#c1fefa"/><path d="m264 96.63v35.9l16.327 9.427c5.413 3.125 5.834 10.816.755 14.459-12.269 8.799-23.846 18.653-34.327 29.181-5.435 5.459-14.754 1.629-14.754-6.075v-10.042l-44 25.4 25.586 14.777c4.371 2.525 5.652 8.24 2.772 12.386-2.714 3.908-5.362 7.959-7.876 12.026-2.441 3.947-7.604 5.202-11.623 2.882l-24.86-14.351v50.8c6.969-4.023 15.167 2.843 12.426 10.409-4.226 11.666-7.403 22.945-9.78 33.586-1.272 5.695-7.687 8.525-12.74 5.607l-5.906-3.412-31.09 17.95-15.49 57.81c-1.92 7.14-8.38 11.86-15.44 11.86-10.805 0-18.071-10.448-15.341-20.632l7.081-26.408-30.64 17.69c-7.67 4.414-17.452 1.778-21.85-5.86-4.42-7.65-1.8-17.44 5.85-21.85l30.64-17.69-26.9-7.21c-8.53-2.28-13.6-11.06-11.31-19.59 2.29-8.54 11.06-13.6 19.6-11.32l57.8 15.49 31.09-17.95v-87.76l-31.09-17.95c-62.779 16.824-59.005 16.04-61.95 16.04-7.07 0-13.53-4.72-15.45-11.87-2.29-8.53 2.78-17.31 11.31-19.59l26.9-7.21-30.64-17.69c-7.65-4.41-10.27-14.2-5.85-21.85 4.42-7.66 14.2-10.28 21.85-5.86l30.64 17.69-7.21-26.89c-2.29-8.54 2.78-17.31 11.32-19.6 8.53-2.29 17.3 2.78 19.59 11.31l15.49 57.81 31.09 17.95 76-43.88v-35.9l-42.31-42.32c-6.25-6.24-6.25-16.38 0-22.62 6.24-6.25 16.38-6.25 22.62 0l19.69 19.68v-34.921c0-8.618 6.626-16.03 15.235-16.431 9.188-.428 16.765 6.888 16.765 15.982v35.37l19.69-19.68c6.24-6.25 16.38-6.25 22.62 0 6.25 6.24 6.25 16.38 0 22.62z" fill="#d9fffd"/></svg>