<svg id="Layer_1" enable-background="new 0 0 496.091 496.091" height="512" viewBox="0 0 496.091 496.091" width="512" xmlns="http://www.w3.org/2000/svg"><path d="m439.581 196.545-160.99 170.98c-.817-.752-116.681-106.75-117.5-107.5l-104 114v106h382.5c.539-304.868.752-282.762-.01-283.48z" fill="#d9fffd"/><path d="m195.35 150.168c11.579-11.504.411-31.041-15.401-26.808l-20.425 5.474-27.448-15.849 27.449-15.849c22.162 5.939 21.773 6.022 24.576 6.022 14.224 0 21.382-17.287 11.25-27.357 11.52-11.521.33-30.967-15.438-26.74-4.187-15.828-26.689-15.842-30.916-.068l-5.476 20.433-27.45 15.849v-31.693l14.963-14.963c11.571-11.57.228-31.023-15.525-26.739-4.217-15.74-26.65-15.765-30.876-.002-15.745-4.272-27.093 15.159-15.518 26.739l14.957 14.964v31.687l-27.442-15.844-5.475-20.43c-4.223-15.76-26.731-15.771-30.917.072-15.744-4.227-26.995 15.198-15.441 26.742-11.65 11.587-.276 31.008 15.407 26.802l20.424-5.475 27.453 15.852-27.453 15.851-20.424-5.476c-15.784-4.233-26.993 15.277-15.407 26.802-11.471 11.461-.416 31.024 15.446 26.759 4.22 15.897 26.71 15.737 30.912.054l5.475-20.428 27.441-15.844v31.685l-14.954 14.953c-11.536 11.535-.297 31.03 15.513 26.741 4.212 15.749 26.663 15.777 30.881-.002 15.77 4.283 27.087-15.183 15.52-26.742l-14.96-14.953v-31.691l27.45 15.85 5.476 20.432c4.221 15.751 26.707 15.772 30.911-.051 15.72 4.212 26.988-15.212 15.442-26.759z" fill="#c1fefa"/><g fill="#83f8fb"><path d="m480.091 464.025h-186.291c-1.405-7.401-7.899-13-15.709-13s-14.304 5.599-15.709 13h-85.291v-4c0-8.837-7.164-16-16-16s-16 7.163-16 16v4h-72v-34c0-8.837-7.164-16-16-16s-16 7.163-16 16v34h-25c-8.836 0-16 7.163-16 16s7.164 16 16 16h464c8.836 0 16-7.163 16-16s-7.163-16-16-16z"/><path d="m439.766 381.025c-8.831-.016-16.013 7.129-16.028 15.972l-.088 50c-.016 8.837 7.135 16.013 15.972 16.028 8.92 0 16.013-7.2 16.028-15.972l.088-50c.015-8.836-7.136-16.012-15.972-16.028z"/><path d="m455.914 297.054c.016-8.837-7.135-16.013-15.972-16.028-8.831-.016-16.013 7.129-16.028 15.972l-.088 50c-.016 8.837 7.135 16.013 15.972 16.028 8.92 0 16.013-7.2 16.028-15.972z"/><path d="m57.091 396.025c8.764 0 15.874-7.049 15.989-15.787l72.011-78.935v8.722c0 8.837 7.164 16 16 16s16-7.163 16-16v-13.676l85 77.764v42.912c0 8.837 7.164 16 16 16s16-7.163 16-16v-42.621l129.93-137.993-.019 10.586c-.016 8.837 7.135 16.013 15.972 16.028 8.92 0 16.013-7.2 16.028-15.972l.088-50c.025-14.113-18.133-22.66-28.412-11.208l-149.922 159.227-105.864-96.852c-6.46-5.911-16.634-5.547-22.621 1.021-112.064 122.84-107.527 115.88-108.117 123.542-.081 1.05-.063 1.23-.063 7.243 0 8.836 7.164 15.999 16 15.999z"/><path d="m161.091 344.025c-8.836 0-16 7.163-16 16v50c0 8.837 7.164 16 16 16s16-7.163 16-16v-50c0-8.837-7.163-16-16-16z"/></g><path d="m131.031 38.615-14.96 14.97v19.96c-36.487 2.559-58.755 40.623-43.17 73.61l-16.27 9.39-5.48 20.43c-4.202 15.729-26.703 15.799-30.91-.05-15.956 4.222-26.872-15.351-15.44-26.76-11.553-11.466-.436-31.052 15.4-26.8l20.43 5.47 27.45-15.85-27.45-15.85-20.43 5.47c-15.549 4.28-27.14-15.149-15.4-26.8-11.54-11.517-.342-30.969 15.44-26.74 4.146-15.761 26.685-15.897 30.91-.07l5.48 20.43 27.44 15.84v-31.68l-14.96-14.97c-11.553-11.571-.234-31.01 15.52-26.74 4.222-15.736 26.652-15.756 30.88 0 15.758-4.271 27.1 15.179 15.52 26.74z" fill="#d9fffd"/></svg>