<svg id="Layer_1" enable-background="new 0 0 496.012 496.012" height="512" viewBox="0 0 496.012 496.012" width="512" xmlns="http://www.w3.org/2000/svg"><path d="m439.502 196.291-160.99 170.98c-.817-.752-116.681-106.75-117.5-107.5l-104 114v106h382.5c.538-304.869.752-282.763-.01-283.48z" fill="#d9fffd"/><g fill="#83f8fb"><path d="m480.012 463.771h-186.291c-1.405-7.401-7.899-13-15.709-13s-14.304 5.599-15.709 13h-85.291v-4c0-8.837-7.164-16-16-16s-16 7.163-16 16v4h-72v-34c0-8.837-7.164-16-16-16s-16 7.163-16 16v34h-25c-8.836 0-16 7.163-16 16s7.164 16 16 16h464c8.836 0 16-7.163 16-16s-7.164-16-16-16z"/><path d="m439.687 380.771c-8.831-.016-16.013 7.129-16.028 15.972l-.088 50c-.016 8.837 7.135 16.013 15.972 16.028 8.92 0 16.013-7.2 16.028-15.972l.088-50c.015-8.837-7.136-16.012-15.972-16.028z"/><path d="m455.835 296.799c.016-8.837-7.135-16.013-15.972-16.028-8.831-.016-16.013 7.129-16.028 15.972l-.088 50c-.016 8.837 7.135 16.013 15.972 16.028 8.92 0 16.013-7.2 16.028-15.972z"/><path d="m57.012 395.771c8.764 0 15.874-7.049 15.989-15.787l72.011-78.935v8.722c0 8.837 7.164 16 16 16s16-7.163 16-16v-13.676l85 77.764v42.912c0 8.837 7.164 16 16 16s16-7.163 16-16v-42.621l129.93-137.993-.019 10.586c-.016 8.837 7.135 16.013 15.972 16.028 8.92 0 16.013-7.2 16.028-15.972l.088-50c.025-14.344-18.215-22.57-28.412-11.208l-149.923 159.227c-114.201-104.479-107.788-100.43-115.499-100.988-5.06-.374-9.82 1.685-12.985 5.158-.806.884-103.452 113.384-104.236 114.287-4.638 5.314-3.943 10.552-3.943 16.496-.001 8.837 7.162 16 15.999 16z"/><path d="m161.012 343.771c-8.836 0-16 7.163-16 16v50c0 8.837 7.164 16 16 16s16-7.163 16-16v-50c0-8.837-7.164-16-16-16z"/></g><path d="m11.443 21.19 16.249-16.259c6.246-6.25 16.386-6.252 22.635 0l16.25 16.26c15.269 15.251 15.243 39.935.02 55.141-15.382 15.417-40.11 15.098-55.147.025-15.262-15.227-15.268-39.932-.007-55.167z" fill="#bafbfe"/><path d="m87.692 114.931c6.246-6.25 16.386-6.252 22.635 0l16.25 16.26c24.691 24.661 6.838 66.58-27.567 66.58-34.344 0-52.299-41.891-27.566-66.581z" fill="#bafbfe"/><path d="m141.443 51.19 16.249-16.259c6.246-6.25 16.386-6.252 22.635 0l16.25 16.26c24.433 24.404 7.211 66.58-27.567 66.58-34.345 0-52.3-41.891-27.567-66.581z" fill="#bafbfe"/><path d="m1.851 36.875c-1.963 6.145 6.593 10.006 9.927 4.484 1.895-3.139 4.187-6.071 6.851-8.728 20.558-20.569 20.053-20.42 23.196-22.138 4.824-2.636 3.088-10.252-2.816-10.252-4.25 0-8.32 1.69-11.32 4.69-16.984 16.995-22.279 20.803-25.838 31.944z" fill="#d9fffd"/><path d="m61.851 146.875c-1.963 6.145 6.593 10.006 9.927 4.484 1.895-3.139 4.187-6.071 6.851-8.728 20.558-20.569 20.053-20.42 23.196-22.138 4.824-2.636 3.088-10.252-2.816-10.252-4.25 0-8.32 1.69-11.32 4.69-16.984 16.995-22.279 20.802-25.838 31.944z" fill="#d9fffd"/><path d="m131.859 66.875c-1.963 6.145 6.593 10.006 9.927 4.484 3.671-6.08 5.391-7.268 25.791-27.678 1.266-1.266 2.701-2.338 4.256-3.188 4.824-2.636 3.088-10.252-2.816-10.252-4.25 0-8.32 1.69-11.32 4.69-16.984 16.995-22.279 20.802-25.838 31.944z" fill="#d9fffd"/></svg>