<svg id="Layer_1" enable-background="new 0 0 496 496" height="512" viewBox="0 0 496 496" width="512" xmlns="http://www.w3.org/2000/svg"><path d="m439.49 196.52-160.99 170.98c-.817-.752-116.681-106.75-117.5-107.5l-104 114v106h382.5c.539-304.869.752-282.763-.01-283.48z" fill="#d9fffd"/><path d="m480 464h-186.291c-1.405-7.401-7.899-13-15.709-13s-14.304 5.599-15.709 13h-85.291v-4c0-8.837-7.164-16-16-16s-16 7.163-16 16v4h-72v-34c0-8.837-7.164-16-16-16s-16 7.163-16 16v34h-25c-8.836 0-16 7.163-16 16s7.164 16 16 16h464c8.837 0 16-7.163 16-16s-7.163-16-16-16z" fill="#83f8fb"/><path d="m455.823 297.028c.016-8.837-7.136-16.013-15.972-16.028-8.832-.016-16.013 7.131-16.028 15.972l-.088 50c-.016 8.837 7.136 16.013 15.972 16.028 8.919 0 16.013-7.2 16.028-15.972z" fill="#83f8fb"/><path d="m439.675 381c-8.831-.016-16.013 7.131-16.028 15.972l-.088 50c-.016 8.837 7.136 16.013 15.972 16.028 8.919 0 16.013-7.2 16.028-15.972l.088-50c.015-8.837-7.136-16.012-15.972-16.028z" fill="#83f8fb"/><path d="m57 396c8.764 0 15.874-7.049 15.989-15.787l72.011-78.935v8.722c0 8.837 7.164 16 16 16s16-7.163 16-16v-13.677l85 77.764v42.913c0 8.837 7.163 16 16 16s16-7.163 16-16v-42.622l129.931-137.992-.019 10.586c-.016 8.837 7.136 16.013 15.972 16.028 8.918 0 16.013-7.2 16.028-15.972l.088-50c.025-14.322-18.194-22.592-28.411-11.208l-149.925 159.227c-1.171-1.071-105.192-96.251-106.161-97.098-6.594-5.745-16.53-5.088-22.323 1.268-.797.874-103.464 113.398-104.236 114.287-4.599 5.269-3.944 10.503-3.944 16.496 0 8.837 7.164 16 16 16z" fill="#83f8fb"/><path d="m161 344c-8.836 0-16 7.163-16 16v50c0 8.837 7.164 16 16 16s16-7.163 16-16v-50c0-8.837-7.164-16-16-16z" fill="#83f8fb"/><g fill="#ffe773"><path d="m207 95.5h-9.88c-8.836 0-16 7.163-16 16s7.164 16 16 16h9.88c8.836 0 16-7.163 16-16s-7.164-16-16-16z"/><path d="m111.5 41.88c8.836 0 16-7.163 16-16v-9.88c0-8.837-7.164-16-16-16s-16 7.163-16 16v9.88c0 8.837 7.164 16 16 16z"/><path d="m171.96 66.96c8.127 0 11.617-4.989 18.335-11.697 6.253-6.243 6.261-16.374.017-22.627-6.244-6.256-16.375-6.261-22.627-.018l-7.03 7.02c-10.108 10.092-2.846 27.322 11.305 27.322z"/><path d="m50.9 67.02c14.16 0 21.411-17.231 11.306-27.322l-7.03-7.02c-6.254-6.244-16.384-6.236-22.627.017-6.244 6.253-6.237 16.384.016 22.628 6.818 6.808 10.26 11.697 18.335 11.697z"/><path d="m41.88 111.91c0-8.837-7.164-16-16-16h-9.88c-8.836 0-16 7.163-16 16s7.164 16 16 16h9.88c8.836 0 16-7.163 16-16z"/><path d="m183.406 160.958c-6.254-6.243-16.384-6.236-22.627.017-6.244 6.253-6.237 16.384.016 22.628l7.03 7.02c6.25 6.24 16.38 6.239 22.627-.017 6.244-6.253 6.237-16.384-.016-22.628z"/><path d="m111.5 181.12c-8.836 0-16 7.163-16 16v9.88c0 8.837 7.164 16 16 16s16-7.163 16-16v-9.88c0-8.837-7.164-16-16-16z"/><path d="m39.534 160.898-7.03 7.021c-10.108 10.095-2.841 27.321 11.306 27.321 8.127 0 11.618-4.99 18.336-11.699 6.252-6.244 6.259-16.375.015-22.628-6.245-6.252-16.376-6.26-22.627-.015z"/><path d="m111.71 53.41c-32.146 0-58.3 26.153-58.3 58.3 0 32.142 26.153 58.29 58.3 58.29 32.141 0 58.29-26.148 58.29-58.29 0-32.147-26.149-58.3-58.29-58.3z"/></g><path d="m55.981 128.848c2.102 6.82 12.299 5.268 12.291-1.869-.033-30.295 24.021-58.649 58.348-58.649 7.984 0 9.133-10.193 2.424-12.287-44.28-13.823-86.891 27.948-73.063 72.805z" fill="#ffec8f"/></svg>