<svg id="Layer_1" enable-background="new 0 0 496 496" height="512" viewBox="0 0 496 496" width="512" xmlns="http://www.w3.org/2000/svg"><path d="m439.49 188.487-160.99 170.98c-.817-.752-116.681-106.75-117.5-107.5l-104 114v106h382.5c.539-304.869.752-282.763-.01-283.48z" fill="#d9fffd"/><g fill="#83f8fb"><path d="m480 455.967h-186.291c-1.406-7.401-7.899-13-15.709-13s-14.304 5.599-15.709 13h-85.291v-4c0-8.837-7.163-16-16-16s-16 7.163-16 16v4h-72v-34c0-8.837-7.163-16-16-16s-16 7.163-16 16v34h-25c-8.837 0-16 7.163-16 16s7.163 16 16 16h464c8.837 0 16-7.163 16-16s-7.163-16-16-16z"/><path d="m455.823 288.995c.016-8.837-7.136-16.013-15.972-16.028-8.832-.016-16.013 7.131-16.028 15.972l-.088 50c-.016 8.837 7.136 16.013 15.972 16.028 8.919 0 16.013-7.2 16.028-15.972z"/><path d="m439.675 372.967c-8.831-.016-16.013 7.131-16.028 15.972l-.088 50c-.016 8.837 7.136 16.013 15.972 16.028 8.919 0 16.013-7.2 16.028-15.972l.088-50c.015-8.837-7.136-16.013-15.972-16.028z"/><path d="m57 387.967c8.765 0 15.874-7.049 15.989-15.787l72.011-78.935v8.722c0 8.837 7.163 16 16 16s16-7.163 16-16v-13.677l85 77.764v42.913c0 8.837 7.163 16 16 16s16-7.163 16-16v-42.622l129.931-137.992-.019 10.586c-.016 8.837 7.136 16.013 15.972 16.028 8.918 0 16.013-7.2 16.028-15.972l.088-50c.025-14.322-18.194-22.592-28.411-11.208l-149.925 159.227-105.864-96.852c-6.501-5.928-16.66-5.53-22.62 1.021l-104 114c-4.843 5.309-4.18 10.748-4.18 16.783 0 8.838 7.163 16.001 16 16.001z"/><path d="m161 335.967c-8.837 0-16 7.163-16 16v50c0 8.837 7.163 16 16 16s16-7.163 16-16v-50c0-8.837-7.163-16-16-16z"/><path d="m255.572 110.397c0 31.795-25.775 57.57-57.57 57.57h-137.857c-24.38 0-44.145-19.765-44.145-44.145 0-27.608 25.127-48.542 52.381-43.376 0 0-1.781-9.738-1.781-14.452 0-31.795 25.775-57.57 57.57-57.57 28.196 0 51.653 20.266 56.604 47.026 37.08-11.609 74.798 16.135 74.798 54.947z"/></g><path d="m252.678 91.926c1.38 4.178-4.271 6.968-6.813 3.377-14.229-20.104-38.954-31.614-65.034-27.792-5.677.847-11.104-2.534-13.029-7.942-8.048-22.573-27.445-39.01-50.532-43.556-4.289-.844-4.105-7.09.237-7.592 27.033-3.125 52.043 12.936 60.918 37.85 1.642 4.612 6.274 7.493 11.117 6.774 28.147-4.114 54.475 12.651 63.136 38.881z" fill="#bbfbff"/></svg>