<svg id="Layer_1" enable-background="new 0 0 464.049 464.049" height="512" viewBox="0 0 464.049 464.049" width="512" xmlns="http://www.w3.org/2000/svg"><path d="m464.015 202.786c-1.615 60.16-50.891 108.429-111.448 108.429h-266.955c-48.033 0-86.81-39.609-85.444-87.953 1.33-47.216 41.252-82.984 83.63-82.984 9.033-.199 16.015-8.014 14.996-16.997-6.925-61.475 43.235-121.002 110.803-121.002 48.518 0 89.792 30.987 105.112 74.249 3.131 8.871 12.151 14.301 21.457 12.922 68.37-9.995 129.553 43.502 127.849 113.336z" fill="#83f8fb"/><path d="m458.446 164.754c2.672 8.093-8.273 13.496-13.196 6.54-27.558-38.938-75.445-61.23-125.957-53.827-10.996 1.64-21.507-4.908-25.234-15.382-15.588-43.719-53.155-75.554-97.87-84.358-8.306-1.635-7.95-13.733.459-14.705 52.726-6.096 100.923 25.412 117.986 73.307 3.181 8.933 12.151 14.512 21.532 13.12 54.514-7.968 105.506 24.502 122.28 75.305z" fill="#bbfbff"/><path d="m363.587 310.681c-7.14.757 7.137.534-277.975.534-58.998 0-99.183-58.188-81.344-111.697 12.355-37.064 47.048-59.24 79.53-59.24 9.033-.199 16.015-8.014 14.996-16.997-1.801-15.984.526-32.243 5.723-46.866 5.471-15.394 28.501-7.84 24.199 7.92-1.998 7.319-2.289 11.855-4.525 25.08-3.969 23.467 9.262 32.683 3.292 43.424-7.265 13.07-28.811 2.329-46.592 15.427-19.057 14.037-26.297 49.937-12.425 74.651 15.036 26.786 49.115 30.261 66.633 31.931 0 0 226.768.025 226.773.025 22.799 0 24.39 33.547 1.715 35.808z" fill="#6ff3fa"/><path d="m92.514 239.098 67.224 2.266c6.347.214 10.889 6.213 9.374 12.38l-8.019 32.65c-1.548 6.301 3.223 12.385 9.711 12.385h31.452c8.009 0 12.771 8.941 8.296 15.584-19.599 29.09-57.026 84.638-75.589 112.188-2.325 3.45-7.713 1.492-7.289-2.647l6.25-61.108c.603-5.894-4.023-11.017-9.948-11.017h-40.001c-5.87 0-10.477-5.038-9.961-10.885 3.233-36.588 2.112-23.908 8.202-92.676.468-5.291 4.991-9.299 10.298-9.12z" fill="#ffe773"/><path d="m133.922 352.459c-.18 1.762-2.256 2.688-3.628 1.567-3.668-2.997-3.084-2.247-46.322-2.247-5.726 0-10.482-4.854-9.951-10.989.155-1.789 2.254-2.718 3.646-1.583 3.671 2.993 3.1 2.243 46.316 2.243 5.919-.001 10.549 5.119 9.939 11.009z" fill="#fada86"/><g fill="#83f8fb"><path d="m260.177 390.091c-7.353-4.902-9.34-14.835-4.438-22.188l10-15c4.901-7.353 14.836-9.34 22.188-4.438 7.353 4.902 9.34 14.835 4.438 22.188l-10 15c-4.904 7.356-14.84 9.338-22.188 4.438z"/><path d="m224.037 461.78c-12.708 0-20.464-14.317-13.225-24.985l19-28c4.963-7.312 14.914-9.217 22.224-4.256 7.312 4.962 9.217 14.912 4.255 22.223l-19 28c-3.094 4.561-8.129 7.018-13.254 7.018z"/><path d="m350.177 390.091c-7.353-4.902-9.34-14.835-4.438-22.188l10-15c4.902-7.353 14.837-9.34 22.188-4.438 7.353 4.902 9.34 14.835 4.438 22.188l-10 15c-4.904 7.356-14.84 9.338-22.188 4.438z"/><path d="m305.067 459.018c-7.312-4.962-9.217-14.912-4.255-22.223l19-28c4.961-7.312 14.912-9.217 22.224-4.256s9.217 14.912 4.255 22.223l-19 28c-4.96 7.313-14.912 9.218-22.224 4.256z"/></g><path d="m210.552 314.359c-16.278 24.159-44.847 66.569-64.701 96.033-3.375 5.009-11.19 2.714-11.325-3.325-.061-2.698-3.221 2.727 53.627-81.629 4.54-6.74-.29-15.81-8.41-15.81h-31.9c-6.59 0-11.42-6.17-9.85-12.56l8.13-33.12c1.54-6.26-3.07-12.34-9.51-12.56l-44.65-1.507c-6.918-.233-7.213-11.047.55-10.783l67.23 2.26c6.34.22 10.89 6.22 9.37 12.38l-8.021 32.655c-1.548 6.301 3.223 12.385 9.711 12.385h31.46c7.999.001 12.769 8.941 8.289 15.581z" fill="#ffec8f"/></svg>