<svg id="Layer_1" enable-background="new 0 0 496.059 496.059" height="512" viewBox="0 0 496.059 496.059" width="512" xmlns="http://www.w3.org/2000/svg"><path d="m439.519 196.579-160.99 170.98c-.817-.752-116.681-106.75-117.5-107.5l-104 114v106h382.5c.539-304.869.752-282.763-.01-283.48z" fill="#d9fffd"/><g fill="#83f8fb"><path d="m480.029 464.059h-186.29c-1.406-7.401-7.899-13-15.709-13s-14.304 5.599-15.709 13h-85.291v-4c0-8.837-7.163-16-16-16s-16 7.163-16 16v4h-72v-34c0-8.837-7.163-16-16-16s-16 7.163-16 16v34h-25c-8.837 0-16 7.163-16 16s7.163 16 16 16h464c8.837 0 16-7.163 16-16s-7.164-16-16.001-16z"/><path d="m439.704 381.059c-8.831-.016-16.013 7.131-16.028 15.972l-.088 50c-.016 8.837 7.136 16.013 15.972 16.028 8.919 0 16.013-7.2 16.028-15.972l.088-50c.015-8.837-7.136-16.013-15.972-16.028z"/><path d="m455.853 297.087c.016-8.837-7.136-16.013-15.972-16.028-8.832-.016-16.013 7.131-16.028 15.972l-.088 50c-.016 8.837 7.136 16.013 15.972 16.028 8.919 0 16.013-7.2 16.028-15.972z"/><path d="m57.029 396.059c8.765 0 15.874-7.049 15.989-15.787l72.011-78.935v8.722c0 8.837 7.163 16 16 16s16-7.163 16-16v-13.677l85 77.764v42.913c0 8.837 7.163 16 16 16s16-7.163 16-16v-42.622l129.931-137.993-.019 10.586c-.016 8.837 7.136 16.013 15.972 16.028 8.918 0 16.013-7.2 16.028-15.972l.088-50c.025-14.322-18.194-22.592-28.411-11.208l-149.925 159.227-105.864-96.852c-5.835-5.332-14.963-5.72-21.244-.3-1.002.865-105.94 115.532-107.458 118.204-2.548 4.464-2.098 8.077-2.098 13.901 0 8.838 7.163 16.001 16 16.001z"/><path d="m161.029 344.059c-8.837 0-16 7.163-16 16v50c0 8.837 7.163 16 16 16s16-7.163 16-16v-50c0-8.837-7.163-16-16-16z"/></g><path d="m117.029 84.059h-101c-8.837 0-16-7.163-16-16s7.163-16 16-16h101c5.514 0 10-4.486 10-10 0-5.549-4.511-10-10-10h-11c-8.837 0-16-7.163-16-16s7.163-16 16-16c11.8 0 26.785-1.631 40.705 12.318 26.347 26.292 7.612 71.682-29.705 71.682z" fill="#f7f7f7"/><path d="m227.029 84.059h-31c-8.837 0-16-7.163-16-16s7.163-16 16-16h31c5.514 0 10-4.486 10-10 0-5.549-4.511-10-10-10h-11c-8.837 0-16-7.163-16-16s7.163-16 16-16h11c23.188 0 42 18.764 42 42 0 23.159-18.841 42-42 42z" fill="#f7f7f7"/><path d="m186.029 183.059c-8.837 0-16-7.163-16-16s7.163-16 16-16h11c5.549 0 10-4.511 10-10 0-5.514-4.486-10-10-10h-101c-8.837 0-16-7.163-16-16s7.163-16 16-16h101c37.414 0 55.987 45.455 29.682 71.705-13.914 13.942-29.004 12.295-40.682 12.295z" fill="#f7f7f7"/></svg>