<svg id="Layer_1" enable-background="new 0 0 464.049 464.049" height="512" viewBox="0 0 464.049 464.049" width="512" xmlns="http://www.w3.org/2000/svg"><path d="m464.015 219.513c-1.615 60.16-50.891 108.429-111.448 108.429h-266.955c-48.033 0-86.81-39.609-85.444-87.953 1.33-47.216 41.252-82.984 83.63-82.984 9.033-.199 16.015-8.014 14.996-16.997-6.925-61.475 43.235-121.003 110.803-121.003 48.518 0 89.792 30.987 105.112 74.249 3.131 8.871 12.151 14.301 21.457 12.921 68.499-10.012 129.55 43.628 127.849 113.338z" fill="#83f8fb"/><path d="m458.446 181.481c2.672 8.093-8.273 13.496-13.196 6.54-27.558-38.938-75.445-61.23-125.957-53.827-10.996 1.64-21.507-4.908-25.234-15.382-15.588-43.719-53.155-75.554-97.87-84.358-8.306-1.635-7.95-13.733.459-14.705 52.357-6.053 100.796 25.053 117.986 73.307 3.181 8.933 12.151 14.512 21.532 13.12 54.514-7.968 105.506 24.502 122.28 75.305z" fill="#bbfbff"/><path d="m363.587 327.408s13.593.534-277.975.534c-58.998 0-99.183-58.188-81.344-111.697 12.355-37.064 47.048-59.24 79.53-59.24 9.033-.199 16.015-8.014 14.996-16.997-1.801-15.984.526-32.243 5.723-46.866 5.471-15.394 28.501-7.84 24.199 7.92-1.998 7.319-2.289 11.855-4.525 25.08-3.969 23.467 9.262 32.683 3.292 43.424-7.265 13.07-28.811 2.329-46.592 15.427-19.057 14.037-26.297 49.937-12.425 74.651 15.036 26.786 49.115 30.261 66.633 31.931 0 0 226.768.025 226.773.025 22.799 0 24.39 33.546 1.715 35.808z" fill="#6ff3fa"/><path d="m92.514 255.824 67.224 2.266c6.347.214 10.889 6.213 9.374 12.38l-8.019 32.65c-1.548 6.301 3.223 12.385 9.711 12.385h31.452c8.009 0 12.771 8.941 8.296 15.584-19.599 29.09-57.026 84.638-75.589 112.188-2.325 3.45-7.713 1.492-7.289-2.647l6.25-61.108c.603-5.894-4.023-11.017-9.948-11.017h-40.001c-5.87 0-10.477-5.038-9.961-10.885 3.233-36.588 2.112-23.908 8.202-92.676.468-5.29 4.991-9.299 10.298-9.12z" fill="#ffe773"/><path d="m133.922 369.185c-.18 1.762-2.256 2.688-3.628 1.567-3.668-2.997-3.084-2.247-46.322-2.247-5.87 0-10.47-5.04-9.96-10.89.173-2.002 2.319-2.771 3.654-1.683 3.671 2.993 3.1 2.243 46.316 2.243 5.92 0 10.55 5.12 9.94 11.01z" fill="#fada86"/><path d="m210.552 331.085c-16.278 24.159-44.847 66.569-64.701 96.033-3.375 5.009-11.19 2.714-11.325-3.325-.061-2.699-3.221 2.727 53.627-81.629 4.54-6.74-.29-15.81-8.41-15.81h-31.9c-6.59 0-11.42-6.17-9.85-12.56l8.13-33.12c1.54-6.26-3.07-12.34-9.51-12.56l-44.65-1.507c-6.918-.233-7.213-11.047.55-10.783l67.23 2.26c6.34.22 10.89 6.22 9.37 12.38l-8.021 32.655c-1.548 6.301 3.223 12.385 9.711 12.385h31.46c7.999.001 12.769 8.941 8.289 15.581z" fill="#ffec8f"/><path d="m285.248 273.97 52.654 1.775c4.971.168 8.529 4.866 7.343 9.696l-6.281 25.573c-1.212 4.936 2.524 9.701 7.606 9.701h24.635c6.273 0 10.003 7.003 6.498 12.206-15.351 22.785-44.666 66.293-59.205 87.872-1.821 2.702-6.041 1.168-5.709-2.073l4.895-47.863c.472-4.617-3.151-8.629-7.792-8.629h-31.332c-4.598 0-8.207-3.946-7.802-8.526 2.533-28.658 1.654-18.726 6.424-72.589.366-4.143 3.908-7.283 8.066-7.143z" fill="#ffe773"/><path d="m317.68 362.761c-.141 1.38-1.767 2.105-2.841 1.228-2.873-2.347-2.428-1.76-36.282-1.76-4.485 0-8.21-3.802-7.794-8.607.121-1.402 1.765-2.129 2.855-1.24 2.873 2.343 2.419 1.757 36.277 1.757 4.636-.002 8.263 4.008 7.785 8.622z" fill="#fada86"/><path d="m377.701 332.919c-12.75 18.923-35.127 52.141-50.678 75.218-2.644 3.923-8.765 2.126-8.871-2.604-.047-2.114-2.523 2.136 42.003-63.936 3.556-5.279-.227-12.383-6.587-12.383h-24.986c-5.162 0-8.945-4.833-7.715-9.838l6.368-25.941c1.206-4.903-2.405-9.665-7.449-9.838l-34.973-1.18c-5.418-.183-5.65-8.652.431-8.446l52.658 1.77c4.966.172 8.53 4.872 7.339 9.697l-6.283 25.577c-1.212 4.936 2.524 9.701 7.606 9.701h24.641c6.269 0 10.005 7.002 6.496 12.203z" fill="#ffec8f"/></svg>