<svg id="Layer_1" enable-background="new 0 0 446.664 446.664" height="512" viewBox="0 0 446.664 446.664" width="512" xmlns="http://www.w3.org/2000/svg"><path d="m212.872 146.832c-52.832 28.9-73.9 75.846-71.55 71.55-8.859 16.196-32.121 16.197-40.98 0-28.9-52.832-75.846-73.9-71.55-71.55-16.196-8.859-16.197-32.121 0-40.98 52.832-28.9 73.9-75.846 71.55-71.55 8.859-16.196 32.121-16.197 40.98 0 16.52 30.2 41.35 55.03 71.55 71.55 16.196 8.859 16.197 32.121 0 40.98z" fill="#ffe773"/><path d="m132.252 44.852c1.02-1.31-26.58 56.61-92.57 92.71-.442.242-.875.492-1.298.75-9.224 5.626-21.329-.277-21.713-11.075-.292-8.221 3.563-16.706 12.121-21.386 51.12-27.96 72.5-72.83 71.7-71.81 3.838-6.828 10.338-10.769 17.21-11.687 12.058-1.608 20.821 11.336 14.55 22.498z" fill="#ffec8f"/><path d="m79.729 385.167c-21.466 11.742-30.026 30.817-29.071 29.071-3.599 6.581-13.051 6.581-16.651 0-11.742-21.465-30.817-30.025-29.071-29.071-6.581-3.599-6.581-13.051 0-16.651 21.466-11.742 30.026-30.817 29.071-29.071 3.599-6.581 13.051-6.581 16.651 0 6.712 12.271 16.801 22.359 29.071 29.071 6.58 3.6 6.581 13.052 0 16.651z" fill="#ffe773"/><path d="m46.972 343.732c.414-.532-10.8 23.001-37.612 37.669-.18.098-.355.2-.527.305-3.748 2.286-8.666-.113-8.822-4.5-.119-3.34 1.448-6.788 4.925-8.689 20.77-11.36 29.457-29.591 29.132-29.177 1.56-2.774 4.2-4.375 6.993-4.748 4.899-.655 8.459 4.605 5.911 9.14z" fill="#ffec8f"/><path d="m441.729 162.531c-21.466 11.742-30.026 30.817-29.071 29.071-3.599 6.581-13.051 6.581-16.651 0-11.742-21.466-30.817-30.026-29.071-29.071-6.581-3.599-6.581-13.051 0-16.651 21.466-11.742 30.026-30.817 29.071-29.071 3.599-6.581 13.051-6.581 16.651 0 6.712 12.271 16.801 22.359 29.071 29.071 6.58 3.6 6.581 13.051 0 16.651z" fill="#ffe773"/><path d="m408.972 121.096c.414-.532-10.8 23.001-37.612 37.669-.18.098-.355.2-.527.305-3.748 2.286-8.666-.113-8.822-4.5-.119-3.34 1.448-6.788 4.925-8.689 20.771-11.36 29.457-29.591 29.132-29.177 1.559-2.774 4.2-4.375 6.993-4.748 4.899-.655 8.459 4.604 5.911 9.14z" fill="#ffec8f"/><path d="m360.935 368.945c-35.074 19.186-49.06 50.352-47.5 47.5-5.881 10.752-21.324 10.753-27.205 0-19.186-35.074-50.352-49.06-47.5-47.5-10.752-5.881-10.753-21.324 0-27.205 35.074-19.186 49.06-50.352 47.5-47.5 5.881-10.752 21.324-10.753 27.205 0 10.967 20.049 27.451 36.533 47.5 47.5 10.751 5.881 10.752 21.324 0 27.205z" fill="#ffe773"/><path d="m307.414 301.244c.677-.869-17.646 37.582-61.454 61.547-.293.161-.581.327-.862.498-6.124 3.735-14.16-.184-14.415-7.352-.194-5.458 2.366-11.09 8.047-14.197 33.937-18.562 48.13-48.349 47.599-47.672 2.548-4.533 6.863-7.149 11.425-7.758 8.005-1.07 13.822 7.523 9.66 14.934z" fill="#ffec8f"/></svg>