<svg id="Layer_1" enable-background="new 0 0 480 480" height="512" viewBox="0 0 480 480" width="512" xmlns="http://www.w3.org/2000/svg"><path d="m48.5 88c-24.262 0-44-19.738-44-44s19.738-44 44-44 44 19.738 44 44-19.738 44-44 44zm0-56c-6.617 0-12 5.383-12 12s5.383 12 12 12 12-5.383 12-12-5.383-12-12-12z" fill="#ffa4b8"/><path d="m91.5 153.5v-47c0-64.348 80.762-92.758 121.351-43.573 5.624 6.815 4.658 16.9-2.157 22.524s-16.9 4.658-22.524-2.157c-21.868-26.499-64.67-10.631-64.67 23.206v47c0 34.136 42.95 49.526 64.668 23.208 5.622-6.816 15.707-7.784 22.523-2.16 6.816 5.623 7.784 15.707 2.16 22.523-41 49.706-121.351 20.068-121.351-43.571z" fill="#4d4e59"/><g fill="#83f8fb"><path d="m459.5 88h-77c-8.837 0-16-7.163-16-16s7.163-16 16-16h77c8.837 0 16 7.163 16 16s-7.163 16-16 16z"/><path d="m439.5 188h-57c-8.837 0-16-7.163-16-16s7.163-16 16-16h57c8.837 0 16 7.163 16 16s-7.163 16-16 16z"/><path d="m419.5 288h-37c-8.837 0-16-7.163-16-16s7.163-16 16-16h37c8.837 0 16 7.163 16 16s-7.163 16-16 16z"/></g><path d="m385.684 334.13c17.459 15.049 28.575 37.254 28.813 62.057.433 45.122-35.89 82.731-81.001 83.789-46.753 1.097-84.996-36.473-84.996-82.976 0-25.132 11.168-47.659 28.819-62.873 2.002-1.725 3.181-4.215 3.181-6.858v-259.431c0-27.97 22.17-51.369 50.137-51.831 28.565-.472 51.863 22.536 51.863 50.993 0 2.826 0 262.073 0 260.268 0 2.645 1.18 5.135 3.184 6.862z" fill="#c1fefa"/><path d="m347.5 358.948v-195.496c0-8.616-6.621-16.029-15.227-16.433-9.188-.432-16.773 6.889-16.773 15.982v195.957c0 2.756-1.431 5.298-3.759 6.773-30.28 19.2-18.128 65.669 17.065 68.174 21.615 1.539 39.694-15.61 39.694-36.904 0-13.112-6.855-24.651-17.17-31.225-2.35-1.499-3.83-4.04-3.83-6.828z" fill="#ffa4b8"/><path d="m321.709 150.33c6.056-4.564 13.429 3.581 8.543 9.38-2.316 2.749-3.752 6.311-3.752 10.29v195.96c0 2.75-1.43 5.29-3.76 6.77-6.826 4.331-11.678 10.396-14.462 17.173-3.083 7.505-14.491 3.618-12.067-4.125 2.451-7.831 7.583-15.006 15.529-20.047 2.33-1.48 3.76-4.02 3.76-6.77v-195.961c0-5.526 2.538-9.903 6.209-12.67z" fill="#ffbfcd"/><path d="m285.539 44.869c4.127-8.554 16.901-5.484 16.852 4.013-.001.252-.001 298.594-.001 298.342 0 2.615-1.167 5.085-3.16 6.778-17.588 14.942-28.535 35.141-32.121 56.608-1.645 9.85-15.807 10.075-17.46.226-4.65-27.699 4.86-57.111 27.703-76.739 1.98-1.702 3.149-4.161 3.149-6.772v-260.325c-.001-7.931 1.809-15.438 5.038-22.131z" fill="#d9fffd"/></svg>