<svg id="Layer_1" enable-background="new 0 0 479.96 479.96" height="512" viewBox="0 0 479.96 479.96" width="512" xmlns="http://www.w3.org/2000/svg"><g fill="#83f8fb"><path d="m455.631 87.96h-77c-8.837 0-16-7.163-16-16s7.163-16 16-16h77c8.837 0 16 7.163 16 16s-7.163 16-16 16z"/><path d="m435.631 187.96h-57c-8.837 0-16-7.163-16-16s7.163-16 16-16h57c8.837 0 16 7.163 16 16s-7.163 16-16 16z"/><path d="m415.631 287.96h-37c-8.837 0-16-7.163-16-16s7.163-16 16-16h37c8.837 0 16 7.163 16 16s-7.163 16-16 16z"/></g><path d="m381.815 334.089c17.459 15.049 28.575 37.254 28.813 62.057.433 45.122-35.89 82.731-81.001 83.789-46.752 1.097-84.995-36.474-84.995-82.977 0-25.132 11.168-47.659 28.819-62.873 2.002-1.725 3.181-4.215 3.181-6.858v-259.429c0-27.97 22.17-51.369 50.137-51.831 28.565-.472 51.863 22.536 51.863 50.993 0 10.185 0 264.169 0 260.268-.001 2.645 1.18 5.135 3.183 6.861z" fill="#c1fefa"/><path d="m343.631 358.908v-195.497c0-8.616-6.621-16.029-15.227-16.433-9.188-.432-16.773 6.889-16.773 15.982v195.957c0 2.756-1.431 5.298-3.759 6.773-30.28 19.2-18.128 65.669 17.065 68.174 21.615 1.539 39.694-15.61 39.694-36.904 0-13.112-6.855-24.651-17.17-31.225-2.35-1.498-3.83-4.039-3.83-6.827z" fill="#ffa4b8"/><path d="m317.841 150.29c6.056-4.564 13.429 3.581 8.543 9.38-2.316 2.749-3.752 6.311-3.752 10.29v195.96c0 2.75-1.43 5.29-3.76 6.77-6.826 4.331-11.678 10.396-14.462 17.173-3.083 7.505-14.491 3.618-12.067-4.125 2.451-7.831 7.583-15.006 15.529-20.047 2.33-1.48 3.76-4.02 3.76-6.77v-195.961c-.001-5.526 2.537-9.903 6.209-12.67z" fill="#ffbfcd"/><path d="m281.67 44.829c4.127-8.554 16.901-5.484 16.852 4.013-.001.252-.001 298.594-.001 298.342 0 2.615-1.167 5.085-3.16 6.778-17.588 14.942-28.535 35.141-32.121 56.608-1.645 9.85-15.807 10.075-17.46.226-4.65-27.699 4.86-57.111 27.703-76.739 1.98-1.702 3.149-4.161 3.149-6.772v-260.325c-.001-7.931 1.809-15.438 5.038-22.131z" fill="#d9fffd"/><path d="m203.655 150.103c11.579-11.504.411-31.041-15.401-26.808l-20.425 5.474-27.448-15.849 27.449-15.849c22.162 5.939 21.773 6.022 24.576 6.022 14.224 0 21.382-17.287 11.25-27.357 11.52-11.521.33-30.967-15.438-26.74-4.187-15.828-26.689-15.842-30.916-.068l-5.476 20.433-27.45 15.849v-31.694l14.963-14.963c11.571-11.57.228-31.023-15.525-26.739-4.217-15.74-26.65-15.765-30.876-.002-15.745-4.272-27.093 15.159-15.519 26.74l14.957 14.964v31.687l-27.441-15.845-5.475-20.43c-4.222-15.759-26.73-15.77-30.917.072-15.744-4.226-26.995 15.198-15.441 26.742-10.125 10.07-2.968 27.351 11.254 27.351 2.788 0 2.21-.029 24.577-6.025l27.453 15.852-27.453 15.851-20.424-5.476c-15.785-4.232-26.993 15.278-15.407 26.802-11.652 11.641-.156 30.954 15.446 26.759 4.182 15.753 26.674 15.87 30.912.054l5.475-20.428 27.441-15.844v31.685l-14.954 14.953c-11.536 11.535-.297 31.03 15.513 26.741 4.212 15.749 26.663 15.777 30.881-.002 15.77 4.283 27.087-15.183 15.52-26.742l-14.96-14.953v-31.69l27.45 15.85 5.476 20.432c4.221 15.751 26.707 15.772 30.911-.051 15.668 4.198 27.055-15.145 15.442-26.758z" fill="#c1fefa"/><path d="m139.336 38.55-14.96 14.97v19.96c-36.487 2.559-58.755 40.623-43.17 73.61l-16.27 9.39-5.48 20.43c-4.202 15.729-26.703 15.799-30.91-.05-15.79 4.178-27.006-15.217-15.44-26.76-11.553-11.466-.436-31.052 15.4-26.8l20.43 5.47 27.45-15.85-27.45-15.85c-22.577 6.045-21.793 6.02-24.58 6.02-14.251 0-21.36-17.317-11.25-27.35-11.54-11.517-.342-30.969 15.44-26.74 4.146-15.761 26.685-15.897 30.91-.07l5.48 20.43 27.44 15.84v-31.68l-14.96-14.97c-11.553-11.571-.234-31.01 15.52-26.74 4.222-15.736 26.652-15.756 30.88 0 15.758-4.272 27.1 15.179 15.52 26.74z" fill="#d9fffd"/></svg>