<svg id="Layer_1" enable-background="new 0 0 479.53 479.53" height="512" viewBox="0 0 479.53 479.53" width="512" xmlns="http://www.w3.org/2000/svg"><g fill="#bafbfe"><path d="m21.497 20.949 16.249-16.259c6.246-6.25 16.386-6.252 22.635 0l16.25 16.26c24.691 24.661 6.838 66.58-27.567 66.58-34.345 0-52.299-41.891-27.567-66.581z"/><path d="m97.746 114.69c6.246-6.25 16.386-6.252 22.635 0l16.25 16.26c24.691 24.661 6.838 66.58-27.567 66.58-34.344 0-52.299-41.891-27.566-66.581z"/><path d="m151.497 50.949 16.249-16.259c6.246-6.25 16.386-6.252 22.635 0l16.25 16.26c24.691 24.661 6.838 66.58-27.567 66.58-34.87 0-51.925-42.265-27.567-66.581z"/></g><path d="m11.906 36.634c-1.963 6.145 6.593 10.006 9.927 4.484 3.67-6.08 5.391-7.268 25.791-27.678 1.266-1.266 2.701-2.338 4.256-3.188 4.872-2.663 2.961-10.185-2.591-10.251-4.415-.053-8.537 1.68-11.546 4.689-16.984 16.995-22.279 20.802-25.837 31.944z" fill="#d9fffd"/><path d="m71.906 146.634c-1.963 6.145 6.593 10.006 9.927 4.484 3.67-6.08 5.391-7.268 25.791-27.678 1.266-1.266 2.701-2.338 4.256-3.188 4.824-2.636 3.088-10.252-2.816-10.252-4.25 0-8.32 1.69-11.32 4.69-16.985 16.995-22.28 20.802-25.838 31.944z" fill="#d9fffd"/><path d="m141.914 66.634c-1.963 6.145 6.593 10.006 9.927 4.484 3.671-6.08 5.391-7.268 25.791-27.678 1.266-1.266 2.701-2.338 4.256-3.188 4.872-2.663 2.961-10.185-2.591-10.251-4.415-.053-8.537 1.68-11.546 4.689-16.984 16.995-22.279 20.802-25.837 31.944z" fill="#d9fffd"/><path d="m453.524 87.53h-77c-8.837 0-16-7.163-16-16s7.163-16 16-16h77c8.837 0 16 7.163 16 16s-7.163 16-16 16z" fill="#83f8fb"/><path d="m433.524 187.53h-57c-8.837 0-16-7.163-16-16s7.163-16 16-16h57c8.837 0 16 7.163 16 16s-7.163 16-16 16z" fill="#83f8fb"/><path d="m413.524 287.53h-37c-8.837 0-16-7.163-16-16s7.163-16 16-16h37c8.837 0 16 7.163 16 16s-7.163 16-16 16z" fill="#83f8fb"/><path d="m379.708 333.66c17.459 15.049 28.575 37.254 28.813 62.057.433 45.122-35.89 82.731-81.001 83.789-46.752 1.097-84.995-36.474-84.995-82.977 0-25.132 11.168-47.659 28.819-62.873 2.002-1.725 3.181-4.215 3.181-6.858v-259.43c0-27.97 22.17-51.369 50.137-51.831 28.565-.472 51.863 22.536 51.863 50.993 0 10.185 0 264.169 0 260.268-.001 2.645 1.18 5.135 3.183 6.862z" fill="#c1fefa"/><path d="m341.524 358.478v-195.497c0-8.616-6.621-16.029-15.227-16.433-9.188-.432-16.773 6.889-16.773 15.982v195.956c0 2.756-1.431 5.298-3.759 6.773-30.28 19.2-18.128 65.669 17.065 68.174 21.615 1.539 39.694-15.61 39.694-36.904 0-13.112-6.855-24.651-17.17-31.225-2.35-1.497-3.83-4.038-3.83-6.826z" fill="#ffa4b8"/><path d="m315.728 149.86c6.056-4.564 13.429 3.581 8.543 9.38-2.316 2.749-3.752 6.311-3.752 10.29v195.96c0 2.75-1.43 5.29-3.76 6.77-6.826 4.331-11.678 10.396-14.462 17.173-3.083 7.505-14.491 3.618-12.067-4.125 2.451-7.831 7.583-15.006 15.529-20.047 2.33-1.48 3.76-4.02 3.76-6.77v-195.961c-.001-5.526 2.537-9.903 6.209-12.67z" fill="#ffbfcd"/><path d="m279.563 44.399c4.127-8.554 16.901-5.484 16.852 4.013-.001.252-.001 298.594-.001 298.342 0 2.615-1.167 5.085-3.16 6.778-17.588 14.942-28.535 35.14-32.121 56.608-1.645 9.85-15.807 10.075-17.46.226-4.65-27.699 4.86-57.111 27.703-76.739 1.98-1.702 3.149-4.161 3.149-6.772v-260.325c-.001-7.931 1.809-15.438 5.038-22.131z" fill="#d9fffd"/></svg>