<svg id="Layer_1" enable-background="new 0 0 480 480" height="512" viewBox="0 0 480 480" width="512" xmlns="http://www.w3.org/2000/svg"><g fill="#ffe773"><path d="m217.31 95.5h-9.88c-8.836 0-16 7.163-16 16s7.164 16 16 16h9.88c8.836 0 16-7.163 16-16s-7.164-16-16-16z"/><path d="m121.81 41.88c8.836 0 16-7.163 16-16v-9.88c0-8.837-7.164-16-16-16s-16 7.163-16 16v9.88c0 8.837 7.164 16 16 16z"/><path d="m182.27 66.96c8.127 0 11.617-4.989 18.335-11.697 6.253-6.243 6.261-16.374.017-22.627-6.244-6.256-16.375-6.261-22.627-.018l-7.03 7.02c-10.108 10.092-2.846 27.322 11.305 27.322z"/><path d="m61.21 67.02c14.16 0 21.411-17.231 11.306-27.322l-7.03-7.02c-6.254-6.244-16.384-6.236-22.627.017-6.244 6.253-6.237 16.384.016 22.628 6.818 6.808 10.26 11.697 18.335 11.697z"/><path d="m52.19 111.91c0-8.837-7.164-16-16-16h-9.88c-8.836 0-16 7.163-16 16s7.164 16 16 16h9.88c8.836 0 16-7.163 16-16z"/><path d="m193.716 160.958c-6.254-6.243-16.384-6.236-22.627.017-6.244 6.253-6.237 16.384.016 22.628l7.03 7.02c6.25 6.24 16.38 6.239 22.627-.017 6.244-6.253 6.237-16.384-.016-22.628z"/><path d="m121.81 181.12c-8.836 0-16 7.163-16 16v9.88c0 8.837 7.164 16 16 16s16-7.163 16-16v-9.88c0-8.837-7.164-16-16-16z"/><path d="m49.844 160.898-7.03 7.021c-10.108 10.095-2.841 27.321 11.306 27.321 8.127 0 11.618-4.99 18.336-11.699 6.252-6.244 6.259-16.375.015-22.628-6.245-6.252-16.376-6.26-22.627-.015z"/><path d="m122.02 53.41c-32.146 0-58.3 26.153-58.3 58.3 0 32.142 26.153 58.29 58.3 58.29 32.141 0 58.29-26.148 58.29-58.29 0-32.147-26.149-58.3-58.29-58.3z"/></g><path d="m66.291 128.848c2.102 6.82 12.299 5.268 12.291-1.869-.034-30.465 24.264-58.862 58.715-58.648 7.236.045 8.963-10.132 2.056-12.288-44.643-13.937-86.773 28.325-73.062 72.805z" fill="#ffec8f"/><path d="m453.69 88h-77c-8.837 0-16-7.163-16-16s7.163-16 16-16h77c8.837 0 16 7.163 16 16s-7.163 16-16 16z" fill="#83f8fb"/><path d="m433.69 188h-57c-8.837 0-16-7.163-16-16s7.163-16 16-16h57c8.837 0 16 7.163 16 16s-7.163 16-16 16z" fill="#83f8fb"/><path d="m413.69 288h-37c-8.837 0-16-7.163-16-16s7.163-16 16-16h37c8.837 0 16 7.163 16 16s-7.163 16-16 16z" fill="#83f8fb"/><path d="m379.874 334.13c17.459 15.049 28.575 37.254 28.813 62.057.433 45.122-35.89 82.731-81.001 83.789-46.752 1.097-84.995-36.474-84.995-82.977 0-25.132 11.168-47.659 28.819-62.873 2.002-1.725 3.181-4.215 3.181-6.858v-259.43c0-27.97 22.17-51.369 50.137-51.831 28.564-.472 51.862 22.536 51.862 50.993 0 2.826 0 262.073 0 260.268 0 2.645 1.18 5.135 3.184 6.862z" fill="#c1fefa"/><path d="m341.69 358.948v-195.496c0-8.616-6.621-16.029-15.227-16.433-9.188-.432-16.773 6.889-16.773 15.982v195.957c0 2.756-1.431 5.298-3.759 6.773-30.28 19.2-18.128 65.669 17.065 68.174 21.615 1.539 39.694-15.61 39.694-36.904 0-13.112-6.855-24.651-17.17-31.225-2.35-1.499-3.83-4.04-3.83-6.828z" fill="#ffa4b8"/><path d="m315.899 150.33c6.056-4.564 13.429 3.581 8.543 9.38-2.316 2.749-3.752 6.311-3.752 10.29v195.96c0 2.75-1.43 5.29-3.76 6.77-6.826 4.331-11.678 10.396-14.462 17.173-3.083 7.505-14.491 3.618-12.067-4.125 2.451-7.831 7.583-15.006 15.529-20.047 2.33-1.48 3.76-4.02 3.76-6.77v-195.961c0-5.526 2.538-9.903 6.209-12.67z" fill="#ffbfcd"/><path d="m279.729 44.869c4.039-8.373 16.851-5.832 16.851 4.321v298.034c0 2.615-1.167 5.085-3.16 6.778-17.588 14.942-28.535 35.141-32.121 56.608-1.645 9.85-15.807 10.075-17.46.226-4.65-27.699 4.86-57.111 27.703-76.739 1.98-1.702 3.149-4.161 3.149-6.772v-260.325c-.001-7.931 1.809-15.438 5.038-22.131z" fill="#d9fffd"/></svg>