<svg id="Layer_1" enable-background="new 0 0 480 480" height="512" viewBox="0 0 480 480" width="512" xmlns="http://www.w3.org/2000/svg"><circle cx="195.574" cy="240.231" fill="#ffe773" r="120.164"/><path d="m108.136 248.328c19.523-48.78 64.913-84.237 117.422-90.689 18.426-2.264 20.263-28.197 2.38-33.178-76.904-21.419-153.673 37.334-152.516 117.784.268 18.596 25.804 23.349 32.714 6.083z" fill="#ffec8f"/><path d="m480 238.76c0 72.65-58.9 131.55-131.55 131.55-72.658 0-131.54-58.912-131.54-131.55 0-72.648 58.906-131.55 131.54-131.55 72.65 0 131.55 58.9 131.55 131.55z" fill="#aaa"/><circle cx="360" cy="274" fill="#999" r="49"/><g fill="#ffec8f"><path d="m195 95.52c-8.837 0-16-7.163-16-16v-18.52c0-8.837 7.163-16 16-16s16 7.163 16 16v18.52c0 8.836-7.163 16-16 16z"/><path d="m70.101 137.958-13.169-13.159c-6.251-6.246-6.256-16.377-.01-22.628 6.245-6.25 16.377-6.255 22.628-.009l13.169 13.159c6.251 6.246 6.256 16.377.01 22.628-6.242 6.248-16.374 6.257-22.628.009z"/><path d="m34.52 256.77h-18.52c-8.837 0-16-7.163-16-16s7.163-16 16-16h18.52c8.837 0 16 7.163 16 16s-7.164 16-16 16z"/><path d="m195 435c-8.837 0-16-7.163-16-16v-18.52c0-8.837 7.163-16 16-16s16 7.163 16 16v18.52c0 8.837-7.163 16-16 16z"/><path d="m56.816 378.295c-6.248-6.248-6.249-16.379-.001-22.628l13.17-13.171c6.248-6.248 16.38-6.249 22.628-.001s6.249 16.379.001 22.628l-13.17 13.171c-6.247 6.248-16.379 6.249-22.628.001z"/></g><path d="m293.149 336.342c7.278 8.637-3.27 20.78-12.921 14.913-37.942-23.064-63.318-64.803-63.318-112.496 0-76.719 63.49-132.278 132.856-131.699 11.321.094 13.781 15.963 3.026 19.501-89.032 29.287-119.243 139.049-59.643 209.781z" fill="#b2b2b2"/><path d="m309 183c-18.734 12.831-42.231 15.709-63.139 8.6-9.749-3.315-13.837-14.98-8.287-23.654 18.459-28.851 47.665-49.689 81.383-57.417 10.177-2.332 19.917 5.419 19.69 15.858-.49 22.513-6.941 41.062-29.647 56.613z" fill="#999"/><path d="m338.65 126.39c-.04 1.99-.14 3.96-.29 5.89-27.75 12.92-50.26 35.23-63.41 62.86-9.77.83-19.69-.34-29.09-3.54-10.451-3.553-13.379-16.04-8.6-23.15 19.507-30.951 51.383-51.264 79.9-57.49 13.244-3.308 21.692 5.887 21.49 15.43z" fill="#aaa"/><path d="m333.656 305.457c2.053 4.122-3.108 7.977-6.523 4.888-10.376-9.387-16.711-23.157-16.092-38.391 1.346-33.068 33.727-53.393 62.483-45.15 4.303 1.233 3.95 7.62-1.012 8.132-35.47 3.663-53.174 41.776-38.856 70.521z" fill="#8c8c8c"/></svg>