<svg id="Layer_1" enable-background="new 0 0 464.052 464.052" height="512" viewBox="0 0 464.052 464.052" width="512" xmlns="http://www.w3.org/2000/svg"><path d="m464.051 200.08c-.213 61.624-51.085 111.106-112.71 111.106h-264.716c-47.144 0-86.221-37.708-86.571-84.851-.353-47.518 38.061-86.149 85.498-86.149 8.454.008 14.384-7.22 13.419-14.989-7.894-63.55 43.131-123.011 110.581-123.011 49.516 0 91.484 32.269 106.032 76.925 2.439 7.486 10.046 12.061 17.804 10.717 68.7-11.904 130.902 41.155 130.663 110.252z" fill="#83f8fb"/><path d="m458.446 164.912c2.672 8.093-8.273 13.496-13.196 6.54-27.558-38.938-75.445-61.23-125.957-53.827-10.996 1.64-21.507-4.908-25.234-15.382-15.588-43.719-53.155-75.554-97.87-84.358-8.306-1.635-7.95-13.733.459-14.705 52.726-6.096 100.923 25.412 117.986 73.307 3.181 8.933 12.151 14.512 21.532 13.12 54.323-7.941 105.458 24.355 122.28 75.305z" fill="#bbfbff"/><path d="m363.587 310.838c-7.14.757 7.137.534-277.975.534-58.998 0-99.183-58.188-81.344-111.697 12.355-37.064 47.048-59.24 79.53-59.24 9.033-.199 16.015-8.014 14.996-16.997-1.801-15.984.526-32.243 5.723-46.866 5.471-15.394 28.501-7.84 24.199 7.92-1.998 7.319-2.289 11.855-4.525 25.08-3.969 23.467 9.262 32.683 3.292 43.424-7.265 13.07-28.811 2.329-46.592 15.427-19.057 14.037-26.297 49.937-12.425 74.651 15.036 26.786 49.115 30.261 66.633 31.931 0 0 226.768.025 226.773.025 22.799.001 24.39 33.547 1.715 35.808z" fill="#6ff3fa"/><path d="m357.651 406.656h-17.199c-8.837 0-16 7.163-16 16v17.21c0 8.837 7.163 16 16 16h17.199c8.837 0 16-7.163 16-16v-17.21c0-8.837-7.163-16-16-16z" fill="#c1fefa"/><path d="m74.828 413.32-16.07-6.11c-8.256-3.139-17.504 1.012-20.644 9.273l-6.109 16.08c-3.138 8.259 1.013 17.498 9.271 20.638l16.069 6.11c8.224 3.127 17.492-.981 20.644-9.273l6.109-16.08c3.138-8.258-1.012-17.498-9.27-20.638z" fill="#c1fefa"/><path d="m168.651 412.656h-17.199c-8.837 0-16 7.163-16 16v17.21c0 8.837 7.163 16 16 16h17.199c8.837 0 16-7.163 16-16v-17.21c0-8.837-7.163-16-16-16z" fill="#c1fefa"/><path d="m275.058 413.514c-4.418-7.651-14.201-10.271-21.854-5.856-15.107 8.719-20.201 10.269-22.357 18.316-2.16 8.059 1.497 11.965 10.199 27.033 2.964 5.132 8.342 8.001 13.87 8.001 5.397 0 7.018-1.588 22.884-10.745 7.652-4.416 10.276-14.207 5.857-21.859z" fill="#c1fefa"/><g fill="#6ff3fa"><path d="m71.431 395.752c-8.044-3.657-11.602-13.142-7.944-21.187l10-22c3.655-8.045 13.144-11.601 21.187-7.945 8.044 3.657 11.602 13.142 7.944 21.187l-10 22c-3.655 8.042-13.141 11.602-21.187 7.945z"/><path d="m171.431 395.752c-8.044-3.657-11.602-13.142-7.944-21.187l10-22c3.655-8.045 13.143-11.601 21.187-7.945 8.044 3.657 11.602 13.142 7.944 21.187l-10 22c-3.655 8.042-13.141 11.602-21.187 7.945z"/><path d="m271.431 393.752c-8.044-3.657-11.602-13.142-7.944-21.187l10-22c3.656-8.045 13.144-11.601 21.187-7.945 8.044 3.657 11.602 13.142 7.944 21.187l-10 22c-3.655 8.042-13.141 11.602-21.187 7.945z"/><path d="m361.431 393.752c-8.044-3.657-11.602-13.142-7.944-21.187l10-22c3.656-8.045 13.144-11.601 21.187-7.945 8.044 3.657 11.602 13.142 7.944 21.187l-10 22c-3.655 8.042-13.141 11.602-21.187 7.945z"/></g></svg>