<svg id="Layer_1" enable-background="new 0 0 464.009 464.009" height="512" viewBox="0 0 464.009 464.009" width="512" xmlns="http://www.w3.org/2000/svg"><path d="m319.005.009h-174c-26.51 0-48 21.49-48 48v368c0 26.51 21.49 48 48 48h174c26.51 0 48-21.49 48-48 0-6.619 0-362.065 0-368 0-26.509-21.49-48-48-48z" fill="#83f8fb"/><g fill="#bafbfe"><path d="m214.571 122.954-16.249-16.259c-6.246-6.25-16.386-6.252-22.635 0l-16.25 16.26c-24.433 24.404-7.211 66.58 27.567 66.58 34.345 0 52.3-41.892 27.567-66.581z"/><path d="m248.322 216.935c-6.246-6.25-16.386-6.252-22.635 0l-16.25 16.26c-15.269 15.251-15.243 39.935-.02 55.141 15.382 15.417 40.11 15.098 55.147.025 15.261-15.227 15.266-39.932.005-55.167z"/><path d="m324.571 153.194-16.249-16.259c-6.246-6.25-16.386-6.252-22.635 0l-16.25 16.26c-24.433 24.404-7.211 66.58 27.567 66.58 34.87 0 51.926-42.265 27.567-66.581z"/></g><path d="m224.163 138.639c1.963 6.145-6.593 10.006-9.927 4.484-1.895-3.139-4.187-6.071-6.851-8.728-20.558-20.569-20.053-20.42-23.196-22.138-4.872-2.663-2.961-10.185 2.591-10.251 4.415-.053 8.537 1.68 11.546 4.689 16.984 16.995 22.278 20.802 25.837 31.944z" fill="#d9fffd"/><path d="m274.163 248.879c1.963 6.145-6.593 10.006-9.927 4.484-3.671-6.08-5.391-7.268-25.791-27.678-1.266-1.266-2.701-2.338-4.256-3.188-4.872-2.663-2.961-10.185 2.591-10.251 4.415-.053 8.537 1.68 11.546 4.689 16.984 16.995 22.278 20.802 25.837 31.944z" fill="#d9fffd"/><path d="m334.155 168.879c1.963 6.145-6.593 10.006-9.927 4.484-3.671-6.08-5.391-7.268-25.791-27.678-1.266-1.266-2.701-2.338-4.256-3.188-4.824-2.636-3.088-10.252 2.816-10.252 4.25 0 8.32 1.69 11.32 4.69 16.985 16.995 22.279 20.802 25.838 31.944z" fill="#d9fffd"/><path d="m321.138 29.889c-25.873-.042-69.752.121-146.125.121-26.51 0-48.008 21.49-48.008 48 0 396.777-1.09 372.79 2.54 383.46-18.92-6.44-32.54-24.36-32.54-45.46v-368c0-26.51 21.49-48 48-48 187.079 0 174.904-.061 177.486.125 18.973 1.361 17.669 29.784-1.353 29.754z" fill="#bafbfe"/><path d="m367.005 367.509v48.5c0 26.51-21.49 48-48 48h-174c-26.51 0-48-21.49-48-48v-48.5z" fill="#f2f2f2"/><path d="m247.005 432.009h-30c-8.837 0-16-7.163-16-16s7.163-16 16-16h30c8.837 0 16 7.163 16 16s-7.163 16-16 16z" fill="#b2b2b2"/><path d="m113.821 452.5c-10.291-8.805-16.816-21.886-16.816-36.49v-48.5h30v78.5c0 7.286-8.071 10.865-13.184 6.49z" fill="#f9f9f9"/></svg>