<svg id="Layer_1" enable-background="new 0 0 464.009 464.009" height="512" viewBox="0 0 464.009 464.009" width="512" xmlns="http://www.w3.org/2000/svg"><path d="m319.005.009h-174c-26.51 0-48 21.49-48 48v368c0 26.51 21.49 48 48 48h174c26.51 0 48-21.49 48-48 0-6.619 0-362.065 0-368 0-26.509-21.49-48-48-48z" fill="#83f8fb"/><circle cx="242.005" cy="192.361" fill="#ffe773" r="45.649"/><path d="m275.22 195.437c-7.416-18.531-24.66-32.001-44.608-34.452-7-.86-7.698-10.712-.904-12.604 29.215-8.137 58.379 14.183 57.939 44.745-.101 7.064-9.802 8.869-12.427 2.311z" fill="#ffec8f"/><path d="m321.138 29.889c-25.873-.042-69.752.121-146.125.121-26.51 0-48.008 21.49-48.008 48 0 396.777-1.09 372.79 2.54 383.46-18.92-6.44-32.54-24.36-32.54-45.46v-368c0-26.51 21.49-48 48-48 187.079 0 174.904-.061 177.486.125 18.973 1.361 17.669 29.784-1.353 29.754z" fill="#bafbfe"/><path d="m367.005 367.509v48.5c0 26.51-21.49 48-48 48h-174c-26.51 0-48-21.49-48-48v-48.5z" fill="#f2f2f2"/><path d="m247.005 432.009h-30c-8.837 0-16-7.163-16-16s7.163-16 16-16h30c8.837 0 16 7.163 16 16s-7.163 16-16 16z" fill="#b2b2b2"/><path d="m113.821 452.5c-10.291-8.805-16.816-21.886-16.816-36.49v-48.5h30v78.5c0 7.286-8.071 10.865-13.184 6.49z" fill="#f9f9f9"/><g fill="#ffe773"><path d="m323.005 176.009h-8.38c-8.836 0-16 7.163-16 16s7.164 16 16 16h8.38c8.836 0 16-7.163 16-16s-7.164-16-16-16z"/><path d="m242.005 135.389c8.836 0 16-7.163 16-16v-8.38c0-8.837-7.164-16-16-16s-16 7.163-16 16v8.38c0 8.837 7.163 16 16 16z"/><path d="m304.589 151.983 5.96-5.95c6.254-6.243 6.263-16.373.02-22.627-6.243-6.255-16.374-6.263-22.627-.02l-5.96 5.95c-6.253 6.243-6.262 16.373-.019 22.627 6.226 6.24 16.357 6.278 22.626.02z"/><path d="m190.605 156.71c14.173 0 21.402-17.243 11.304-27.323l-5.96-5.95c-6.253-6.243-16.384-6.235-22.627.019-6.244 6.254-6.235 16.385.019 22.628 5.758 5.748 9.3 10.626 17.264 10.626z"/><path d="m185.385 192.359c0-8.837-7.164-16-16-16h-8.38c-8.836 0-16 7.163-16 16s7.164 16 16 16h8.38c8.836 0 16-7.163 16-16z"/><path d="m304.718 232.246c-6.248-6.248-16.378-6.248-22.627 0-6.248 6.248-6.248 16.379 0 22.627l5.96 5.96c6.249 6.249 16.378 6.248 22.627 0 6.248-6.248 6.248-16.379 0-22.627z"/><path d="m242.005 248.63c-8.836 0-16 7.163-16 16v8.38c0 8.837 7.164 16 16 16s16-7.163 16-16v-8.38c0-8.837-7.164-16-16-16z"/><path d="m179.241 232.196-5.96 5.96c-10.113 10.113-2.808 27.313 11.314 27.313 7.948 0 11.365-4.738 17.274-10.646 6.248-6.248 6.248-16.379 0-22.627-6.25-6.248-16.38-6.248-22.628 0z"/></g></svg>