<svg id="Layer_1" enable-background="new 0 0 464.009 464.009" height="512" viewBox="0 0 464.009 464.009" width="512" xmlns="http://www.w3.org/2000/svg"><path d="m319.005.009h-174c-26.51 0-48 21.49-48 48v368c0 26.51 21.49 48 48 48h174c26.51 0 48-21.49 48-48 0-6.619 0-362.065 0-368 0-26.509-21.49-48-48-48z" fill="#83f8fb"/><path d="m321.138 29.889c-25.873-.042-69.752.121-146.125.121-26.51 0-48.008 21.49-48.008 48 0 396.777-1.09 372.79 2.54 383.46-18.92-6.44-32.54-24.36-32.54-45.46v-368c0-26.51 21.49-48 48-48 187.079 0 174.904-.061 177.486.125 18.973 1.361 17.669 29.784-1.353 29.754z" fill="#bafbfe"/><path d="m367.005 367.509v48.5c0 26.51-21.49 48-48 48h-174c-26.51 0-48-21.49-48-48v-48.5z" fill="#f2f2f2"/><path d="m247.005 432.009h-30c-8.837 0-16-7.163-16-16s7.163-16 16-16h30c8.837 0 16 7.163 16 16s-7.163 16-16 16z" fill="#b2b2b2"/><path d="m113.821 452.5c-10.291-8.805-16.816-21.886-16.816-36.49v-48.5h30v78.5c0 7.286-8.071 10.865-13.184 6.49z" fill="#f9f9f9"/><g fill="#fff"><path d="m214.505 194.509h-61c-8.836 0-16-7.163-16-16s7.164-16 16-16h61c8.92 0 13.316-10.828 7.078-17.055-3.69-3.698-6.771-2.945-18.078-2.945-8.836 0-16-7.163-16-16s7.164-16 16-16c11.834 0 26.798-1.618 40.706 12.318 26.346 26.293 7.61 71.682-29.706 71.682z"/><path d="m304.505 194.509h-21c-8.836 0-16-7.163-16-16s7.164-16 16-16h21c5.514 0 10-4.486 10-10 0-5.55-4.511-10-10-10h-11c-8.836 0-16-7.163-16-16s7.164-16 16-16c11.834 0 26.798-1.618 40.706 12.318 26.346 26.293 7.61 71.682-29.706 71.682z"/><path d="m273.505 293.509c-8.836 0-16-7.163-16-16s7.164-16 16-16h11c5.549 0 10-4.511 10-10 0-5.514-4.486-10-10-10h-91c-8.836 0-16-7.163-16-16s7.164-16 16-16h91c37.421 0 55.982 45.461 29.682 71.705-13.912 13.943-29.005 12.295-40.682 12.295z"/></g></svg>