<svg id="Layer_1" enable-background="new 0 0 496 496" height="512" viewBox="0 0 496 496" width="512" xmlns="http://www.w3.org/2000/svg"><path d="m209.135 155.646-98.052-23.071c-8.602-2.023-13.934-10.638-11.91-19.239s10.643-13.934 19.239-11.909l98.052 23.071c8.602 2.023 13.934 10.638 11.91 19.239-2.021 8.591-10.627 13.935-19.239 11.909z" fill="#f2f2f2"/><path d="m99.174 220.665c-2.024-8.602 3.309-17.216 11.91-19.239l98.052-23.071c8.6-2.025 17.216 3.309 19.239 11.909 2.024 8.602-3.309 17.216-11.91 19.239l-98.052 23.071c-8.607 2.027-17.217-3.313-19.239-11.909z" fill="#f2f2f2"/><path d="m411.596 135.355c-6.866-.798-150.898-17.546-157.848-18.354v2c0-7.46-3.02-14.2-7.91-19.09-16.297-16.297-44.351-5.867-46.01 17.1-.119 1.289-.08-4.564-.08 97.99 0 14.855 12.041 27 27 27 14.91 0 27-12.09 27-27v2c6.95-.808 150.982-17.556 157.848-18.354 8.067-.938 14.152-7.771 14.152-15.893v-31.505c0-8.123-6.084-14.956-14.152-15.894z" fill="#ffb6b4"/><path d="m253.748 119v96c0 14.91-12.09 27-27 27-14.24 0-25.91-11.03-26.92-25.01-.122-1.322-.132-98.553 0-99.98 1.661-22.989 29.73-33.38 46.01-17.1 4.89 4.89 7.91 11.63 7.91 19.09z" fill="#c1fefa"/><path d="m425.748 151.25v31.5c0 8.12-6.08 14.96-14.15 15.9-87.963 10.223-53.446 6.21-157.85 18.35v-6.063c0-2.74 2.053-5.046 4.775-5.363 88.631-10.308 55.97-6.511 145.575-16.925 8.07-.94 14.15-7.78 14.15-15.9 0-34.542.164-32.825-.47-35.34 4.8 2.791 7.97 7.981 7.97 13.841z" fill="#fe929f"/><path d="m425.748 151.247v31.505c0 8.122-6.085 14.955-14.152 15.893l-71.848 8.355v-80l71.848 8.354c8.068.939 14.152 7.772 14.152 15.893z" fill="#ffec8f"/><path d="m425.748 182.75c0 8.12-6.08 14.96-14.15 15.9l-71.85 8.35v-10.87l64.35-7.48c8.07-.94 14.15-7.78 14.15-15.9 0-10.189.014-17.223.018-22.142.004-4.758 7.167-5.078 7.453-.329.048.792.029-1.12.029 32.471z" fill="#ffe773"/><path d="m141.796 464h-3.048c-4.418 0-8-3.582-8-8v-383.153c0-2.72 1.399-5.23 3.674-6.721 28.946-18.962 16.934-63.6-17.039-66.032-21.036-1.505-38.635 15.184-38.635 35.906 0 12.594 6.504 23.692 16.326 30.127 2.258 1.479 3.674 3.944 3.674 6.643v383.23c0 4.418-3.582 8-8 8h-4.048c-8.616 0-16.029 6.621-16.434 15.227-.432 9.189 6.89 16.773 15.982 16.773h56c9.093 0 16.414-7.584 15.982-16.773-.405-8.606-7.818-15.227-16.434-15.227z" fill="#4d4e59"/><path d="m236.582 93.735c4.81 1.837 4.35 8.764-.675 9.888-11.806 2.64-21.159 13.156-21.159 26.378 0 102.548-.039 96.701.08 97.99.388 5.45-6.05 7.777-9.189 3.839-3.706-4.649-5.891-10.523-5.891-16.829 0-102.548-.039-96.701.08-97.99 1.402-19.403 21.167-29.23 36.754-23.276z" fill="#d9fffd"/><g fill="#585966"><path d="m117.621 13.753c-11.982 5.069-21.057 15.461-24.611 27.834-2.181 7.594-13.094 6.814-14.007-1.035-2.318-19.924 12.301-40.747 36.048-40.551 7.746.064 9.704 10.734 2.57 13.752z"/><path d="m104.548 77.77v378.07c0 4.42-3.59 8-8 8-10.516 0 2.2 1.439 2.2-7.84 0-410.26.569-384.505-1.17-387.31 3.047 2.553 6.97 3.99 6.97 9.08z"/></g></svg>