<svg id="Layer_1" enable-background="new 0 0 477.905 477.905" height="512" viewBox="0 0 477.905 477.905" width="512" xmlns="http://www.w3.org/2000/svg"><path d="m356.635 352.905 15.686-15.687c6.249-6.248 6.249-16.379 0-22.627-6.248-6.248-16.379-6.248-22.627 0l-22.313 22.313h-24.776c5.95-6.269 5.865-16.166-.283-22.313-6.248-6.248-16.379-6.248-22.627 0l-22.313 22.313h-37.373v-75.333c0-8.837-7.163-16-16-16s-16 7.163-16 16v75.333h-75.403c5.95-6.269 5.865-16.166-.283-22.313-6.248-6.248-16.379-6.248-22.627 0-28.822 28.822-27.243 27.175-28.062 28.175-3.062 3.73-4.427 8.861-3.124 14.045 1.43 5.685 2.086 5.306 31.186 34.406 6.249 6.249 16.379 6.248 22.627 0 6.148-6.147 6.233-16.045.283-22.313h75.403v93c0 8.837 7.163 16 16 16s16-7.163 16-16v-93h37.373l22.313 22.313c3.124 3.124 7.219 4.687 11.313 4.687 13.924 0 21.306-16.771 11.597-27h24.776l22.313 22.313c6.249 6.249 16.379 6.248 22.627 0 6.249-6.248 6.249-16.379 0-22.627z" fill="#4d4e59"/><path d="m220.007 261.575v52.79c-10.712 3.519-21.775 4.041-32 2.15v-54.94c0-8.84 7.16-16 16-16s16 7.16 16 16z" fill="#42434d"/><path d="m390.999 113.923c-4.282-1.518-6.49-6.272-4.795-10.486 2.862-7.114 7.99-12.883 14.664-16.489 5.547-2.998 5.438-11.049-.1-14.065-50.558-27.539-109.929 9.197-109.062 66.223-11.618-4.259-10.788-3.2-104.7-3.2v-53c0-14.609-5.901-29.003-17.98-39.79 2.977-3.84 5.951-7.677 8.923-11.514 3.895-5.027.653-12.368-5.685-12.875-12.815-1.026-7.203 1.623-30.448-16.973-2.835-2.268-6.842-2.342-9.76-.181-21.535 15.952-21.164 16.371-24.874 16.216l-8.253-.344c-5.939-.248-10.063 5.84-7.633 11.265 2.321 5.181 4.64 10.362 6.959 15.546-10.59 9.93-17.25 24.12-17.25 39.59v6.73l-26.703 12.904c-4.848 2.343-4.395 9.392.714 11.095l25.99 8.661v34.67c0 69.383 56.21 126 126.01 126 71.248 0 116.836-58.408 119.17-91.49 13.356-36.708 59.843-47.808 85.357-15.975 4.107 5.124 12.371 3.353 13.957-3.021 6.665-26.776-9.76-50.731-34.501-59.497z" fill="#ffaa64"/><path d="m81.007 90.575v32.66l-25.99-8.661c-5.109-1.702-5.562-8.752-.714-11.095z" fill="#ffe773"/><path d="m425.5 173.42c-1.586 6.373-9.85 8.144-13.957 3.02-25.544-31.87-72.015-20.694-85.357 15.975 1.68-23.25-12.54-45.29-34.48-53.31-.869-57.109 58.576-93.722 109.061-66.223 5.537 3.016 5.647 11.068.1 14.065-6.663 3.6-11.797 9.362-14.664 16.489-1.695 4.215.513 8.969 4.795 10.486 24.709 8.756 41.175 32.69 34.502 59.498z" fill="#ffe773"/><path d="m324.517 202.225c-63.958 41.158-148.189 15.585-137.51-66.32h86.45c35.496 0 59.884 33.898 51.06 66.32z" fill="#fc9"/><path d="m177.95 31.601c-2.973 3.837-5.947 7.675-8.923 11.514-19.876-17.488-50.264-18.119-70.77 1.14-2.319-5.184-4.638-10.365-6.959-15.546-2.43-5.425 1.693-11.513 7.633-11.265 8.271.345 10.443.931 13.348-1.221l19.779-14.651c2.917-2.161 6.924-2.087 9.759.182 19.807 15.846 19.377 16.087 22.635 16.348l7.813.625c6.338.506 9.58 7.847 5.685 12.874z" fill="#ffa4b8"/><path d="m118.087 98.475c-1.369-14.283 15.265-22.868 26.069-13.939 11 8.852 5.57 26.935-8.569 28.29-8.295.793-16.418-4.898-17.5-14.351z" fill="#4d4e59"/><path d="m102.799 193.555c1.652 9.703-12.386 13.213-15.471 3.867-8.171-24.758-6.321-36.59-6.321-113.577 0-34.469 30.17-56.811 59.353-53.719 8.791.931 9.642 13.48 1.08 15.683-22.729 5.847-40.433 26.941-40.433 52.386 0 80.859-.531 81.711 1.792 95.36z" fill="#ffbd7b"/><path d="m290.536 146.234c-6.564 0-16.297.002-30.8.002-30.352 0-51.548 36.832-25.375 64.022 2.684 2.788-.251 7.314-3.883 5.978-34.757-12.777-48.138-44.549-43.472-80.33 95.004 0 93.211-1.011 104.7 3.2 4.072 1.489 2.818 7.127-1.17 7.128z" fill="#ffbd7b"/><path d="m395.931 85.456c-43.091-9.591-83.066 19.855-88.604 62.709-4.57-3.84-9.82-6.94-15.62-9.06-.869-57.107 58.585-93.735 109.06-66.22 7.074 3.843 2.58 14.222-4.836 12.571z" fill="#ffec8f"/><path d="m311.026 209.805c4.856-2.352 9.901 2.826 7.41 7.612-30.766 59.092-107.103 84.571-169.178 52.504-6.136-3.17-2.218-12.519 4.317-10.286 48.981 16.734 106.175 2.361 140.593-42.128 2.067-2.673 3.904-1.428 16.858-7.702z" fill="#fa9e4b"/><path d="m177.947 31.605c-2.938 3.788-5.876 7.587-8.824 11.386l-3.278-2.468c-1.821-1.371-2.168-3.968-.771-5.769 1.85-2.386 3.699-4.77 5.542-7.149 2.16-2.8 2.12-6.31.56-8.97 8.366.69 10.338 8.369 6.771 12.97z" fill="#fe929f"/><path d="m137.408 8.46c-22.677 16.265-15.341 14.609-30.481 13.986-5.94-.25-10.06 5.84-7.63 11.26 1.05 2.34 2.09 4.68 3.14 7.01-1.45 1.11-2.85 2.29-4.18 3.54-2.32-5.18-4.64-10.36-6.96-15.55-2.43-5.42 1.69-11.51 7.63-11.26l8.26.34c3.657.161 3.251-.198 24.87-16.21 5.263-3.894 9.882 3.634 5.351 6.884z" fill="#ffbfcd"/><path d="m423.684 169.596c1.544 1.154 2.025 3.251 1.188 4.988-3.17 6.573-10.177 5.79-13.324 1.852-8.356-10.42-20.436-17.402-33.853-18.558-4.848-.418-5.029-7.333-.213-8.025 3.57-.513 7.208-.617 10.855-.277 21.942 2.035 29.44 15.605 35.347 20.02z" fill="#fada86"/><path d="m81.007 90.575v12.84c-14.538 7.033-19.176 9.051-21.029 10.42-1.422 1.051-3.283 1.299-4.961.74-5.115-1.705-5.556-8.752-.71-11.1z" fill="#ffec8f"/></svg>