<svg id="Layer_1" enable-background="new 0 0 464.052 464.052" height="512" viewBox="0 0 464.052 464.052" width="512" xmlns="http://www.w3.org/2000/svg"><g fill="#c1fefa"><path d="m58.042 408.667c-17.62 0-29.798 18.292-22.428 34.679 10.707 23.809 47.037 16.557 47.037-10.079 0-13.353-10.869-24.6-24.609-24.6z"/><path d="m135.452 437.266c0 13.564 11.035 24.6 24.6 24.6 21.897 0 32.819-26.58 17.354-42.042-15.461-15.355-41.954-4.424-41.954 17.442z"/><path d="m245.76 411.956c-21.767 12.55-12.717 45.917 12.329 45.917 18.632 0 30.787-20.324 21.254-36.944-6.747-11.633-21.759-15.81-33.583-8.973z"/><path d="m349.052 406.656c-13.564 0-24.6 11.036-24.6 24.61 0 13.564 11.035 24.6 24.6 24.6s24.6-11.035 24.6-24.609c-.001-13.603-11.031-24.601-24.6-24.601z"/></g><path d="m71.431 395.751c-8.044-3.656-11.602-13.142-7.944-21.187l10-22c3.656-8.044 13.143-11.602 21.187-7.944 8.044 3.656 11.602 13.142 7.944 21.187l-10 22c-3.656 8.043-13.144 11.602-21.187 7.944z" fill="#6ff3fa"/><path d="m171.431 395.751c-8.044-3.656-11.602-13.142-7.944-21.187l10-22c3.655-8.044 13.143-11.602 21.187-7.944 8.044 3.656 11.602 13.142 7.944 21.187l-10 22c-3.656 8.043-13.144 11.602-21.187 7.944z" fill="#6ff3fa"/><path d="m271.431 393.751c-8.044-3.656-11.602-13.142-7.944-21.187l10-22c3.655-8.044 13.144-11.603 21.187-7.944 8.044 3.656 11.602 13.142 7.944 21.187l-10 22c-3.656 8.043-13.144 11.602-21.187 7.944z" fill="#6ff3fa"/><path d="m361.431 393.751c-8.044-3.656-11.602-13.142-7.944-21.187l10-22c3.655-8.044 13.144-11.603 21.187-7.944 8.044 3.656 11.602 13.142 7.944 21.187l-10 22c-3.656 8.043-13.144 11.602-21.187 7.944z" fill="#6ff3fa"/><path d="m464.051 200.08c-.213 61.624-51.085 111.106-112.71 111.106h-264.716c-47.144 0-86.221-37.708-86.571-84.851-.353-47.518 38.061-86.149 85.498-86.149 8.454.008 14.384-7.22 13.419-14.989-7.894-63.55 43.131-123.011 110.581-123.011 49.516 0 91.484 32.269 106.032 76.925 2.439 7.486 10.046 12.061 17.804 10.717 68.7-11.904 130.902 41.155 130.663 110.252z" fill="#83f8fb"/><path d="m458.446 164.912c2.672 8.093-8.273 13.496-13.196 6.54-27.558-38.938-75.445-61.23-125.957-53.827-10.996 1.64-21.507-4.908-25.234-15.382-15.588-43.719-53.155-75.554-97.87-84.358-8.306-1.635-7.95-13.733.459-14.705 52.357-6.053 100.796 25.053 117.986 73.307 3.181 8.933 12.151 14.512 21.532 13.12 54.514-7.969 105.506 24.502 122.28 75.305z" fill="#bbfbff"/><path d="m363.587 310.839s13.593.534-277.975.534c-58.998 0-99.183-58.188-81.344-111.697 12.355-37.064 47.048-59.24 79.53-59.24 9.033-.199 16.015-8.014 14.996-16.997-1.801-15.984.526-32.243 5.723-46.866 5.471-15.394 28.501-7.84 24.199 7.92-1.998 7.319-2.289 11.855-4.525 25.08-3.969 23.467 9.262 32.683 3.292 43.424-7.265 13.07-28.811 2.329-46.592 15.427-19.057 14.037-26.297 49.937-12.425 74.651 15.036 26.786 49.115 30.261 66.633 31.931 0 0 226.768.025 226.773.025 22.799 0 24.39 33.546 1.715 35.808z" fill="#6ff3fa"/></svg>