<svg id="Layer_1" enable-background="new 0 0 496.396 496.396" height="512" viewBox="0 0 496.396 496.396" width="512" xmlns="http://www.w3.org/2000/svg"><path d="m106.751 124.562c-8.181-3.342-12.104-12.682-8.762-20.862l32.9-80.55c3.341-8.182 12.681-12.102 20.862-8.763 8.181 3.342 12.104 12.682 8.762 20.862l-32.9 80.55c-3.341 8.182-12.682 12.103-20.862 8.763z" fill="#6ff3fa"/><path d="m123.787 252.945 11.75-30.91c9.403-24.736-3.077-52.514-27.821-61.921l-30.91-11.75c-24.736-9.401-52.515 3.077-61.922 27.82l-11.75 30.91c-9.403 24.737 3.077 52.515 27.821 61.922 32.592 12.389 36.582 14.878 47.897 14.878 19.368 0 37.658-11.805 44.935-30.949z" fill="#c1fefa"/><path d="m109.489 160.821c7.302 3.106 2.744 14.142-4.678 11.332-2.96-1.121-6.277-2.378-10-3.794-24.74-9.4-52.52 3.08-61.93 27.82-12.229 32.168-15.112 36.979-14.874 48.865.127 6.337-8.197 8.833-11.397 3.362-7.085-12.114-8.839-27.207-3.479-41.317l11.75-30.909c9.41-24.74 37.19-37.221 61.93-27.82 33.743 12.827 31.448 11.938 32.678 12.461z" fill="#d9fffd"/><path d="m175.931 354.129h-33.07c-26.467 0-48 21.533-48 48v33.07c0 26.467 21.533 48 48 48h33.07c26.467 0 48-21.533 48-48v-33.07c0-26.466-21.532-48-48-48z" fill="#c1fefa"/><path d="m444.207 329.358-16.536-28.633c-13.256-22.983-42.588-30.845-65.568-17.573l-28.646 16.534c-22.92 13.242-30.797 42.656-17.563 65.562l16.532 28.644c13.232 22.915 42.644 30.8 65.58 17.573l28.626-16.538c22.919-13.234 30.804-42.646 17.575-65.569z" fill="#c1fefa"/><g fill="#6ff3fa"><path d="m240.241 204.987c-8.181-3.34-17.521.582-20.862 8.764l-32.9 80.561c-3.341 8.181.583 17.521 8.763 20.861 8.186 3.341 17.522-.587 20.862-8.764l32.9-80.561c3.341-8.181-.583-17.52-8.763-20.861z"/><path d="m342.73 247.091c-8.18-3.342-12.103-12.683-8.76-20.863l32.91-80.55c3.343-8.18 12.684-12.1 20.863-8.76 8.18 3.342 12.103 12.683 8.76 20.863l-32.91 80.55c-3.343 8.181-12.686 12.102-20.863 8.76z"/><path d="m462.235 282.324c-11.395 0-19.184-11.657-14.74-22.212l18.15-43.11c3.429-8.145 12.811-11.967 20.955-8.538s11.967 12.811 8.538 20.954l-18.15 43.11c-2.575 6.117-8.509 9.796-14.753 9.796z"/></g><path d="m177.106 378.782c-2.584.01-5.365.018-8.366.018-26.509 0-47.988 21.495-47.988 48.003 0 6.86-.049 12.616-.083 17.533-.098 14.441-20.617 16.944-24.261 2.971-1.009-3.869-1.546-7.926-1.546-12.107v-33.07c0-26.51 21.49-48 48-48 36.147 0 33.609-.014 34.877.034 15.932.591 15.31 24.554-.633 24.618z" fill="#d9fffd"/><path d="m393.559 277.288c7.334 1.16 8.279 11.419 1.213 13.699-6.321 2.04-6.866 2.722-38.011 20.702-22.92 13.24-30.8 42.649-17.56 65.56 2.344 4.061 4.393 7.632 6.2 10.788 4.55 7.945-7.191 15.13-12.06 7.377-.689-1.096.486.91-17.449-30.165-13.23-22.91-5.35-52.319 17.57-65.56l28.64-16.54c10.024-5.783 21.086-7.501 31.457-5.861z" fill="#d9fffd"/></svg>