<svg id="Layer_1" enable-background="new 0 0 496 496" height="512" viewBox="0 0 496 496" width="512" xmlns="http://www.w3.org/2000/svg"><path d="m248.905 352.967c-6.248-6.249-16.379-6.249-22.627 0l-33.89 33.89c-40.255 40.254-11.369 109.143 45.204 109.143 56.376 0 85.662-68.688 45.203-109.144z" fill="#c1fefa"/><path d="m474.247 185.969-33.89-33.9c-6.16-6.164-16.292-6.341-22.629-.002l-33.9 33.9c-40.272 40.272-11.371 109.133 45.203 109.133 57.26 0 85.066-69.284 45.216-109.131z" fill="#c1fefa"/><path d="m78.294 237.635c-6.249-6.246-16.378-6.246-22.625.002l-33.89 33.89c-12.077 12.075-18.727 28.13-18.727 45.207 0 56.951 69.141 85.212 109.144 45.209 24.987-24.988 24.989-65.427 0-90.417-.05-.1 1.874 1.874-33.902-33.891z" fill="#c1fefa"/><path d="m46.532 278.1c-17.765 17.765-22.789 43.282-15.61 65.302 3.566 10.94-11.054 18.171-17.436 8.596-15.764-23.653-14.266-57.926 8.296-80.468l33.89-33.891c6.24-6.25 16.37-6.25 22.62-.01l2.223 2.218c1.165 1.163 1.194 3.076-.093 4.362z" fill="#d9fffd"/><path d="m217.346 393.237c-17.765 17.765-22.789 43.282-15.61 65.302 3.566 10.94-11.054 18.171-17.436 8.596-15.764-23.653-14.266-57.926 8.296-80.468l33.89-33.891c6.24-6.25 16.37-6.25 22.62-.01l2.223 2.218c1.165 1.163 1.194 3.076-.093 4.362z" fill="#d9fffd"/><path d="m408.614 192.415c-17.732 17.732-22.746 43.2-15.581 65.179 3.56 10.919-11.033 18.136-17.403 8.579-15.734-23.608-14.238-57.817 8.28-80.315l33.826-33.826c6.228-6.238 16.339-6.238 22.577-.01l2.218 2.214c1.163 1.161 1.192 3.07-.093 4.354z" fill="#d9fffd"/><g fill="#6ff3fa"><path d="m44.112 190.37c-8.836 0-16-7.163-16-16v-112.81c0-8.837 7.164-16 16-16s16 7.163 16 16v112.81c0 8.837-7.164 16-16 16z"/><path d="m213.842 313.39c-8.836 0-16-7.163-16-16v-133.31c0-8.837 7.164-16 16-16s16 7.163 16 16v133.31c0 8.837-7.164 16-16 16z"/><path d="m397.231 127.68c-8.837 0-16-7.163-16-16v-44.42c0-8.837 7.163-16 16-16s16 7.163 16 16v44.42c0 8.837-7.163 16-16 16z"/><path d="m473.552 118.57c-8.837 0-16-7.163-16-16v-86.57c0-8.837 7.163-16 16-16s16 7.163 16 16v86.57c0 8.837-7.163 16-16 16z"/><path d="m284.462 230.23c-8.837 0-16-7.163-16-16v-125.33c0-8.837 7.163-16 16-16s16 7.163 16 16v125.33c0 8.837-7.163 16-16 16z"/><path d="m284.462 313.39c-8.837 0-16-7.163-16-16v-27.34c0-8.837 7.163-16 16-16s16 7.163 16 16v27.34c0 8.837-7.163 16-16 16z"/><path d="m112.462 210.87c-8.836 0-16-7.163-16-16v-50.15c0-8.837 7.164-16 16-16s16 7.163 16 16v50.15c0 8.837-7.164 16-16 16z"/><path d="m112.462 100.35c-8.836 0-16-7.163-16-16v-22.79c0-8.837 7.164-16 16-16s16 7.163 16 16v22.79c0 8.837-7.164 16-16 16z"/></g></svg>