<svg id="Layer_1" enable-background="new 0 0 464.437 464.437" height="512" viewBox="0 0 464.437 464.437" width="512" xmlns="http://www.w3.org/2000/svg"><g fill="#c1fefa"><path d="m260.022 350.892-16.07-6.11c-8.256-3.139-17.504 1.012-20.644 9.273l-6.109 16.08c-3.138 8.259 1.013 17.498 9.271 20.638l16.069 6.11c8.257 3.139 17.504-1.012 20.644-9.273l6.109-16.08c3.138-8.259-1.012-17.498-9.27-20.638z"/><path d="m307.845 415.227h-17.199c-8.837 0-16 7.163-16 16v17.21c0 8.837 7.163 16 16 16h17.199c8.837 0 16-7.163 16-16v-17.21c0-8.836-7.163-16-16-16z"/><path d="m376.252 350.085c-4.419-7.651-14.201-10.271-21.854-5.856-15.107 8.719-20.201 10.269-22.357 18.316-2.16 8.059 1.497 11.965 10.199 27.033 4.418 7.649 14.2 10.273 21.854 5.855 15.107-8.719 20.201-10.269 22.357-18.316 2.159-8.058-1.497-11.964-10.199-27.032z"/></g><path d="m464.208 200.515c-1.615 60.16-50.891 108.429-111.448 108.429h-266.954c-48.033 0-86.81-39.609-85.444-87.953 1.33-47.216 41.252-82.984 83.63-82.984 9.033-.199 16.015-8.014 14.996-16.997-6.904-61.289 43.059-121.003 110.803-121.003 48.518 0 89.792 30.987 105.112 74.249 3.131 8.871 12.151 14.301 21.457 12.922 68.369-9.994 129.553 43.503 127.848 113.337z" fill="#83f8fb"/><path d="m458.64 162.483c2.672 8.093-8.273 13.496-13.196 6.54-27.558-38.938-75.445-61.23-125.957-53.827-10.996 1.64-21.507-4.908-25.234-15.382-15.588-43.719-53.155-75.554-97.87-84.358-8.306-1.635-7.95-13.733.459-14.705 52.357-6.053 100.796 25.053 117.986 73.307 3.181 8.933 12.151 14.512 21.532 13.12 54.5-7.967 105.506 24.501 122.28 75.305z" fill="#bbfbff"/><path d="m363.781 308.41c-7.14.757 7.137.534-277.975.534-58.998 0-99.183-58.188-81.344-111.697 12.355-37.064 47.048-59.24 79.53-59.24 9.033-.199 16.015-8.014 14.996-16.997-1.801-15.984.526-32.243 5.723-46.866 5.471-15.394 28.501-7.84 24.199 7.92-1.998 7.319-2.289 11.855-4.525 25.08-3.969 23.467 9.262 32.683 3.292 43.424-7.265 13.07-28.811 2.329-46.592 15.427-19.057 14.037-26.297 49.937-12.425 74.651 15.036 26.786 49.115 30.261 66.633 31.931 0 0 226.768.025 226.773.025 22.799 0 24.39 33.546 1.715 35.808z" fill="#6ff3fa"/><path d="m92.708 236.826 67.224 2.266c6.347.214 10.889 6.213 9.374 12.38l-8.019 32.65c-1.548 6.301 3.223 12.385 9.711 12.385h31.452c8.009 0 12.771 8.941 8.296 15.584-19.599 29.09-57.026 84.638-75.589 112.188-2.325 3.45-7.713 1.492-7.289-2.647l6.25-61.108c.603-5.894-4.023-11.017-9.948-11.017h-40.002c-5.87 0-10.477-5.038-9.961-10.885 3.233-36.588 2.112-23.908 8.202-92.676.469-5.29 4.992-9.299 10.299-9.12z" fill="#ffe773"/><path d="m134.116 350.187c-.18 1.762-2.256 2.688-3.628 1.567-3.668-2.997-3.084-2.247-46.322-2.247-5.87 0-10.47-5.04-9.96-10.89.173-2.002 2.319-2.771 3.654-1.683 3.671 2.993 3.1 2.243 46.316 2.243 5.92 0 10.55 5.12 9.94 11.01z" fill="#fada86"/><path d="m210.746 312.087c-16.278 24.159-44.847 66.569-64.701 96.033-3.375 5.009-11.19 2.714-11.325-3.325-.061-2.699-3.221 2.727 53.627-81.629 4.54-6.74-.29-15.81-8.41-15.81h-31.9c-6.59 0-11.42-6.17-9.85-12.56l8.13-33.12c1.54-6.26-3.07-12.34-9.51-12.56l-44.65-1.507c-6.918-.233-7.213-11.047.55-10.783l67.23 2.26c6.34.22 10.89 6.22 9.37 12.38l-8.021 32.655c-1.548 6.301 3.223 12.385 9.711 12.385h31.46c7.999.001 12.769 8.941 8.289 15.581z" fill="#ffec8f"/></svg>