<svg id="Layer_1" enable-background="new 0 0 496.995 496.995" height="512" viewBox="0 0 496.995 496.995" width="512" xmlns="http://www.w3.org/2000/svg"><path d="m350.598 346.995h-203.59c-35.044-74.109 18.971-160.57 101.8-160.57 82.681-.001 136.903 86.313 101.79 160.57z" fill="#ffe773"/><g fill="#ffec8f"><path d="m166.916 306.543c18.283-45.683 60.792-78.889 109.968-84.931 17.256-2.12 18.977-26.407 2.229-31.072-72.021-20.06-143.917 34.964-142.833 110.307.25 17.414 24.164 21.865 30.636 5.696z"/><path d="m426.497 314.995h-18.41c-8.837 0-16-7.163-16-16s7.163-16 16-16h18.41c8.837 0 16 7.163 16 16s-7.163 16-16 16z"/><path d="m248.497 155.405c-8.837 0-16-7.163-16-16v-18.41c0-8.837 7.163-16 16-16s16 7.163 16 16v18.41c0 8.837-7.163 16-16 16z"/><path d="m349.866 197.461c-6.243-6.254-6.236-16.384.017-22.628l13.1-13.08c6.253-6.243 16.385-6.236 22.628.017 6.243 6.254 6.236 16.384-.017 22.628l-13.1 13.08c-6.245 6.234-16.377 6.244-22.628-.017z"/><path d="m124.229 197.583-13.09-13.079c-6.251-6.246-6.256-16.377-.01-22.627 6.245-6.252 16.378-6.256 22.627-.01l13.09 13.079c6.251 6.246 6.256 16.376.01 22.627-6.24 6.248-16.373 6.259-22.627.01z"/><path d="m88.908 315.764h-18.41c-8.837 0-16-7.163-16-16s7.163-16 16-16h18.41c8.837 0 16 7.163 16 16s-7.163 16-16 16z"/></g><path d="m480.497 378.995h-464c-8.837 0-16-7.163-16-16s7.163-16 16-16h464c8.837 0 16 7.163 16 16s-7.163 16-16 16z" fill="#bbfbff"/><path d="m370.497 432.995h-22.67c-8.837 0-16-7.163-16-16s7.163-16 16-16h22.67c8.837 0 16 7.163 16 16s-7.163 16-16 16z" fill="#83f8fb"/><path d="m289.828 432.995h-163.33c-8.837 0-16-7.163-16-16s7.163-16 16-16h163.33c8.837 0 16 7.163 16 16s-7.164 16-16 16z" fill="#bbfbff"/><path d="m312.497 496.995h-128c-8.837 0-16-7.163-16-16s7.163-16 16-16h128c8.837 0 16 7.163 16 16s-7.163 16-16 16z" fill="#83f8fb"/><path d="m81.811 31.681c-28.85-28.85-27.177-27.243-28.177-28.063-6.278-5.162-15.598-4.796-21.458 1.071l-26.992 26.992c-6.249 6.248-6.249 16.379 0 22.627 6.147 6.147 16.045 6.232 22.313.283v71.403c0 8.837 7.163 16 16 16s16-7.163 16-16v-71.403c6.321 6 16.199 5.832 22.313-.283 6.25-6.248 6.25-16.379.001-22.627z" fill="#ededed"/></svg>