<svg id="Layer_1" enable-background="new 0 0 479.868 479.868" height="512" viewBox="0 0 479.868 479.868" width="512" xmlns="http://www.w3.org/2000/svg"><path d="m460.431 225.645c-16 28.09-41.22 50.76-71.03 63.86-1.42 48.24-40.98 86.91-89.57 86.91h-214.58c-38.6 0-69.77-31.84-68.67-70.7 1.056-37.789 32.979-66.7 67.22-66.7 7.26-.16 12.87-6.44 12.05-13.66-5.351-47.486 31.893-94.202 83.99-97.12 12.051-78.486 84.242-136.45 166.17-127.28 15.49 1.72 23.38 19.25 14.7 32.19-43.907 65.403-1.752 157.003 82.37 161.8 15.43.58 24.99 17.28 17.35 30.7z" fill="#83f8fb"/><path d="m443.084 194.941c15.431.588 24.988 17.281 17.346 30.7-16.069 28.214-40.97 50.746-70.941 63.827 1.372-56.241-47.971-99.318-102.899-91.216-7.489 1.105-14.747-3.265-17.273-10.4-13.259-37.446-49.76-61.852-89.448-59.634l-.01-.13c11.995-78.713 84.298-136.247 166.153-127.137 15.487 1.724 23.378 19.253 14.694 32.192-45.274 67.461 1.655 158.722 82.378 161.798z" fill="#ffe773"/><path d="m384.935 258.691c2.148 6.505-6.65 10.848-10.607 5.257-22.15-31.298-60.642-49.216-101.243-43.266-8.838 1.318-17.287-3.945-20.283-12.364-12.529-35.141-42.725-60.729-78.667-67.806-6.676-1.315-6.39-11.038.369-11.82 42.38-4.9 81.121 20.426 94.836 58.923 2.557 7.18 9.767 11.664 17.307 10.546 43.807-6.403 84.805 19.694 98.288 60.53z" fill="#bbfbff"/><g fill="#6ff3fa"><path d="m308.688 375.985s10.926.429-223.433.429c-47.422 0-79.722-46.771-65.383-89.781 9.93-29.791 37.817-47.617 63.925-47.617 7.26-.16 12.873-6.441 12.054-13.662-1.448-12.848.423-25.917 4.6-37.67 4.397-12.373 22.909-6.302 19.451 6.366-1.606 5.883-1.84 9.529-3.637 20.159-3.19 18.862 7.445 26.27 2.646 34.904-5.839 10.506-23.158 1.872-37.45 12.4-15.318 11.283-21.137 40.139-9.987 60.004 12.086 21.53 39.478 24.323 53.559 25.666 0 0 182.271.02 182.278.02 18.325.001 19.603 26.965 1.377 28.782z"/><path d="m202.426 450.867c-12.296 0-20.138-13.512-13.705-24.234l6-10c4.546-7.577 14.375-10.033 21.952-5.488 7.577 4.546 10.034 14.375 5.488 21.952l-6 10c-3 5-8.3 7.77-13.735 7.77z"/><path d="m248.579 477.8c-7.696-4.341-10.416-14.1-6.074-21.797l22-39c4.341-7.696 14.099-10.417 21.797-6.074 7.696 4.341 10.416 14.1 6.074 21.797l-22 39c-4.341 7.696-14.1 10.416-21.797 6.074z"/><path d="m324.209 448.584c-7.577-4.546-10.034-14.375-5.488-21.952l6-10c4.547-7.577 14.375-10.033 21.952-5.488 7.577 4.546 10.034 14.375 5.488 21.952l-6 10c-4.545 7.574-14.37 10.037-21.952 5.488z"/></g><path d="m90.803 302.219 54.034 1.821c5.101.172 8.753 4.994 7.535 9.951l-6.446 26.244c-1.244 5.065 2.59 9.955 7.806 9.955h25.281c6.438 0 10.265 7.187 6.668 12.526-15.753 23.382-45.837 68.031-60.757 90.176-1.868 2.773-6.199 1.199-5.859-2.128l5.023-49.118c.485-4.738-3.234-8.856-7.996-8.856h-32.153c-4.718 0-8.422-4.049-8.006-8.749 2.599-29.409 1.697-19.217 6.593-74.492.376-4.252 4.011-7.473 8.277-7.33z" fill="#ffe773"/><path d="m124.086 393.338c-.144 1.417-1.813 2.161-2.916 1.26-2.948-2.408-2.489-1.806-37.234-1.806-4.603 0-8.425-3.901-7.999-8.833.124-1.438 1.811-2.185 2.93-1.273 2.948 2.404 2.483 1.803 37.228 1.803 4.76-.001 8.481 4.114 7.991 8.849z" fill="#fada86"/><path d="m185.681 362.713c-13.084 19.419-36.048 53.508-52.006 77.191-2.713 4.026-8.994 2.181-9.103-2.672-.049-2.17-2.589 2.192 43.105-65.612 3.649-5.418-.233-12.708-6.76-12.708h-25.641c-5.297 0-9.179-4.959-7.917-10.096l6.535-26.621c1.238-5.032-2.468-9.919-7.644-10.096l-35.89-1.211c-5.56-.188-5.798-8.879.442-8.667l54.039 1.817c5.096.177 8.753 5 7.532 9.951l-6.447 26.248c-1.244 5.065 2.59 9.955 7.806 9.955h25.287c6.428-.002 10.262 7.184 6.662 12.521z" fill="#ffec8f"/><path d="m460.701 225.555c-2.47 4.308-7.257 6.775-12.203 6.329-106.449-9.604-171.432-129.398-116.553-224.931 2.512-4.372 7.374-6.851 12.393-6.364 18.852 1.831 24.924 20.12 16.683 32.406-45.882 68.304 3.227 159.527 82.38 161.79 15.43.59 25.02 17.301 17.3 30.77z" fill="#ffec8f"/></svg>