<svg id="Layer_1" enable-background="new 0 0 495.956 495.956" height="512" viewBox="0 0 495.956 495.956" width="512" xmlns="http://www.w3.org/2000/svg"><path d="m314.331 216.313c-5.45-1.23-13.07-2.37-18.59-2.83 6.391.29 12.61 1.26 18.59 2.83z" fill="#83f8fb"/><path d="m371.882 263.293c6.458 12.993 9.635 27.291 9.27 42.26-.03.01-.06.03-.09.04-1.42 48.24-40.98 86.91-89.57 86.91h-214.581c-38.6 0-69.77-31.84-68.67-70.7 1.056-37.789 32.979-66.7 67.22-66.7 7.26-.16 12.87-6.44 12.05-13.66-6.82-60.536 53.418-112.534 115.45-93.26 6.27-14.1 17.77-32.4 38.39-45.92 2.95-1.93 26.96-17.25 57.4-17.26 89.459 0 141.056 110.188 73.131 178.29z" fill="#83f8fb"/><path d="m371.914 263.12c-17.122-34.465-54.489-54.607-93.6-48.89-7.55 1.12-14.77-3.37-17.33-10.56-16.273-45.679-57.9-55.156-57.9-55.58 25.414-59.246 98.647-82.117 153.59-45.36 55.133 37.18 61.735 114.452 15.24 160.39z" fill="#ffe773"/><path d="m314.331 216.313c-5.45-1.23-13.07-2.37-18.59-2.83 6.391.29 12.61 1.26 18.59 2.83z" fill="#83f8fb"/><path d="m185.87 464.673c-7.577-4.546-10.034-14.375-5.488-21.952l6-10c4.547-7.577 14.374-10.033 21.952-5.488 7.577 4.546 10.034 14.375 5.488 21.952l-6 10c-4.545 7.574-14.371 10.036-21.952 5.488z" fill="#6ff3fa"/><path d="m240.24 493.888c-7.696-4.341-10.416-14.1-6.074-21.797l22-39c4.341-7.696 14.098-10.417 21.797-6.074 7.696 4.341 10.416 14.1 6.074 21.797l-22 39c-4.341 7.696-14.1 10.417-21.797 6.074z" fill="#6ff3fa"/><path d="m315.87 464.673c-7.577-4.546-10.034-14.375-5.488-21.952l6-10c4.547-7.577 14.375-10.033 21.952-5.488 7.577 4.546 10.034 14.375 5.488 21.952l-6 10c-4.545 7.574-14.371 10.036-21.952 5.488z" fill="#6ff3fa"/><path d="m376.595 274.779c2.148 6.505-6.65 10.848-10.607 5.257-22.15-31.298-60.642-49.216-101.243-43.266-8.838 1.318-17.287-3.945-20.283-12.364-12.529-35.141-42.725-60.729-78.667-67.806-6.676-1.315-6.39-11.038.369-11.82 42.084-4.865 81.018 20.138 94.836 58.923 2.557 7.18 9.767 11.665 17.307 10.546 43.808-6.403 84.806 19.694 98.288 60.53z" fill="#bbfbff"/><path d="m300.349 392.074s10.926.429-223.433.429c-47.422 0-79.722-46.771-65.383-89.781 9.93-29.791 37.817-47.617 63.925-47.617 7.26-.16 12.873-6.441 12.054-13.662-1.448-12.848.423-25.917 4.6-37.67 4.397-12.373 22.909-6.302 19.451 6.366-1.606 5.883-1.84 9.529-3.637 20.159-3.19 18.862 7.445 26.27 2.646 34.904-5.839 10.505-23.158 1.872-37.45 12.4-15.318 11.283-21.137 40.139-9.987 60.004 12.086 21.53 39.478 24.323 53.559 25.666 0 0 182.271.02 182.278.02 18.324 0 19.603 26.964 1.377 28.782z" fill="#6ff3fa"/><path d="m82.464 318.308 54.034 1.821c5.101.172 8.753 4.994 7.535 9.951l-6.446 26.244c-1.244 5.065 2.59 9.955 7.806 9.955h25.281c6.438 0 10.265 7.187 6.668 12.526-15.753 23.382-45.837 68.031-60.757 90.176-1.868 2.773-6.199 1.199-5.859-2.128l5.023-49.118c.485-4.738-3.234-8.856-7.996-8.856h-32.153c-4.718 0-8.422-4.049-8.006-8.749 2.599-29.409 1.697-19.217 6.593-74.492.376-4.252 4.011-7.474 8.277-7.33z" fill="#ffe773"/><path d="m115.747 409.426c-.144 1.417-1.813 2.161-2.916 1.26-2.948-2.408-2.489-1.806-37.234-1.806-4.718 0-8.416-4.051-8.006-8.753.139-1.609 1.864-2.227 2.937-1.352 2.948 2.404 2.483 1.803 37.228 1.803 4.76-.002 8.481 4.114 7.991 8.848z" fill="#fada86"/><g fill="#ffec8f"><path d="m177.341 378.802c-13.084 19.419-36.048 53.508-52.006 77.191-2.713 4.026-8.994 2.181-9.103-2.672-.049-2.17-2.589 2.192 43.105-65.612 3.649-5.418-.233-12.708-6.76-12.708h-25.641c-5.297 0-9.179-4.959-7.917-10.096l6.535-26.621c1.238-5.032-2.468-9.919-7.644-10.096l-35.89-1.211c-5.56-.188-5.798-8.879.442-8.667l54.039 1.817c5.096.177 8.753 5 7.532 9.951l-6.447 26.248c-1.244 5.065 2.59 9.955 7.806 9.955h25.287c6.429-.002 10.263 7.183 6.662 12.521z"/><path d="m471.854 205h-18c-8.836 0-16-7.164-16-16s7.164-16 16-16h18c8.836 0 16 7.164 16 16s-7.163 16-16 16z"/><path d="m298.704 50c-8.836 0-16-7.164-16-16v-18c0-8.836 7.164-16 16-16s16 7.164 16 16v18c0 8.836-7.163 16-16 16z"/><path d="m397.075 90.688c-6.251-6.246-6.255-16.376-.009-22.627l12.72-12.73c6.246-6.251 16.377-6.255 22.627-.009 6.251 6.246 6.255 16.376.009 22.627l-12.72 12.73c-6.243 6.249-16.375 6.257-22.627.009z"/><path d="m177.75 90.784-12.72-12.72c-6.248-6.249-6.248-16.379 0-22.627s16.379-6.249 22.627 0l12.72 12.72c6.248 6.249 6.248 16.379 0 22.627-6.246 6.247-16.377 6.249-22.627 0z"/><path d="m374.527 196.008c-16.897-42.218-56.181-72.906-101.627-78.49-15.947-1.959-17.538-24.404-2.06-28.715 66.559-18.538 133.001 32.312 132 101.94-.232 16.094-22.333 20.208-28.313 5.265z"/></g></svg>