<svg id="Layer_1" enable-background="new 0 0 480.105 480.105" height="512" viewBox="0 0 480.105 480.105" width="512" xmlns="http://www.w3.org/2000/svg"><path d="m364.165 306.813c29.435 59.215-13.609 129.6-80.4 129.6h-214.86c-38.66 0-69.87-31.88-68.77-70.79 1.07-38.002 33.202-66.79 67.31-66.79 7.27-.16 12.89-6.45 12.07-13.68-6.836-60.673 53.495-112.776 115.82-93.36v-.01c25.018-58.324 95.81-80.65 149.37-48.06 58.818 35.784 67.238 115.884 19.46 163.09z" fill="#83f8fb"/><path d="m364.165 306.813c-17.122-34.465-54.489-54.607-93.6-48.89-7.55 1.12-14.77-3.37-17.33-10.56-16.273-45.679-57.9-55.156-57.9-55.58 24.279-56.601 91.782-79.477 145.02-50.56 62.207 33.855 73.124 116.866 23.81 165.59z" fill="#ffe773"/><g fill="#ffec8f"><path d="m464.105 248.693h-18c-8.836 0-16-7.164-16-16s7.164-16 16-16h18c8.836 0 16 7.164 16 16s-7.163 16-16 16z"/><path d="m290.956 93.693c-8.836 0-16-7.164-16-16v-18c0-8.836 7.164-16 16-16s16 7.164 16 16v18c0 8.836-7.164 16-16 16z"/><path d="m389.326 134.381c-6.251-6.246-6.255-16.376-.009-22.627l12.72-12.73c6.246-6.251 16.377-6.255 22.627-.009 6.251 6.246 6.255 16.376.009 22.627l-12.72 12.73c-6.243 6.249-16.375 6.257-22.627.009z"/><path d="m170.001 134.476-12.72-12.72c-6.248-6.249-6.248-16.379 0-22.627s16.379-6.249 22.627 0l12.72 12.72c6.248 6.249 6.248 16.379 0 22.627-6.246 6.248-16.377 6.25-22.627 0z"/></g><path d="m368.984 318.532c2.151 6.513-6.658 10.863-10.621 5.264-22.18-31.34-60.722-49.281-101.377-43.323-8.85 1.32-17.31-3.95-20.31-12.38-12.546-35.187-42.782-60.81-78.771-67.896-6.685-1.316-6.399-11.053.37-11.835 42.14-4.872 81.126 20.164 94.962 59.002 2.56 7.19 9.78 11.68 17.33 10.56 43.874-6.415 84.916 19.719 98.417 60.608z" fill="#bbfbff"/><path d="m292.636 435.983s10.942.43-223.73.43c-47.485 0-79.828-46.833-65.47-89.9 9.944-29.831 37.867-47.68 64.01-47.68 7.27-.16 12.89-6.45 12.07-13.68-1.45-12.865.424-25.951 4.606-37.721 4.403-12.39 22.939-6.31 19.476 6.375-1.608 5.891-1.842 9.542-3.642 20.186-3.194 18.887 7.455 26.305 2.65 34.95-5.847 10.519-23.189 1.875-37.5 12.417-15.338 11.298-21.166 40.192-10 60.083 12.102 21.559 39.53 24.355 53.63 25.7 0 0 182.513.02 182.52.02 18.349 0 19.63 27 1.38 28.82z" fill="#6ff3fa"/><path d="m366.778 239.701c-16.897-42.218-56.181-72.906-101.627-78.49-15.947-1.959-17.538-24.404-2.06-28.715 66.559-18.538 133.001 32.312 132 101.94-.232 16.094-22.333 20.208-28.313 5.265z" fill="#ffec8f"/></svg>