<svg id="Layer_1" enable-background="new 0 0 452.333 452.333" height="512" viewBox="0 0 452.333 452.333" width="512" xmlns="http://www.w3.org/2000/svg"><path d="m449.613 263.871c-16.258 28.551-41.45 51.345-71.771 64.578-1.315 48.987-41.44 88.293-90.751 88.293h-217.378c-39.113 0-70.689-32.254-69.576-71.62 1.083-38.447 33.591-67.573 68.099-67.573 7.355-.162 13.041-6.526 12.211-13.84-5.442-48.305 32.531-95.587 85.318-98.4l-.01-.132c12.063-79.155 84.689-137.812 168.097-128.63 15.672 1.75 23.654 19.486 14.872 32.577-46.419 69.104 3.265 161.396 83.345 163.686 15.612.598 25.274 17.484 17.544 31.061z" fill="#83f8fb"/><path d="m432.066 232.814c15.612.595 25.281 17.483 17.549 31.059-16.257 28.544-41.45 51.34-71.773 64.575 1.39-56.977-48.606-100.471-104.104-92.285-7.576 1.118-14.919-3.303-17.476-10.522-13.415-37.885-50.344-62.577-90.496-60.333l-.01-.132c12.136-79.636 85.287-137.844 168.101-128.626 15.669 1.744 23.652 19.479 14.867 32.57-45.782 68.216 1.645 160.582 83.342 163.694z" fill="#ffe773"/><path d="m449.573 263.942c-2.499 4.359-7.342 6.855-12.346 6.403-107.697-9.716-173.441-130.914-117.919-227.567 2.541-4.424 7.46-6.932 12.538-6.438 19.073 1.853 25.217 20.356 16.879 32.786-46.419 69.104 3.265 161.396 83.345 163.686 15.612.596 25.313 17.504 17.503 31.13z" fill="#ffec8f"/><path d="m373.308 297.48c2.176 6.59-6.736 10.99-10.745 5.325-22.44-31.707-61.434-49.859-102.565-43.831-8.954 1.335-17.513-3.996-20.548-12.525-12.693-35.6-43.284-61.523-79.695-68.692-6.763-1.332-6.474-11.182.374-11.974 42.934-4.964 82.181 20.692 96.075 59.693 2.59 7.274 9.895 11.817 17.533 10.684 44.379-6.487 85.912 19.951 99.571 61.32z" fill="#bbfbff"/><path d="m296.065 416.307s11.07.435-226.352.435c-48.041 0-80.764-47.381-66.237-90.953 10.06-30.181 38.311-48.239 64.76-48.239 7.355-.162 13.041-6.526 12.211-13.84-1.467-13.016.429-26.255 4.66-38.163 4.455-12.535 23.208-6.384 19.705 6.449-1.627 5.96-1.864 9.654-3.685 20.422-3.232 19.109 7.542 26.613 2.681 35.36-5.916 10.643-23.46 1.897-37.939 12.562-15.518 11.431-21.414 40.663-10.117 60.787 12.243 21.811 39.994 24.641 54.258 26.001 0 0 184.652.02 184.659.02 18.565.001 19.86 27.318 1.396 29.159z" fill="#6ff3fa"/></svg>