<?xml version="1.0" encoding="iso-8859-1"?>
<!-- Generator: Adobe Illustrator 19.0.0, SVG Export Plug-In . SVG Version: 6.00 Build 0)  -->
<svg xmlns="http://www.w3.org/2000/svg" xmlns:xlink="http://www.w3.org/1999/xlink" version="1.1" id="Capa_1" x="0px" y="0px" viewBox="0 0 512 512" style="enable-background:new 0 0 512 512;" xml:space="preserve">
<g>
	<path style="fill:#303C42;" d="M192,437.333c0-5.896-4.771-10.667-10.667-10.667c-52.729,0-83.385,6.99-115.01,46.688   c-3.667,4.604-2.906,11.323,1.698,14.99c1.969,1.563,4.313,2.323,6.635,2.323c3.135,0,6.25-1.375,8.354-4.021   C109.51,453.375,133.698,448,181.333,448C187.229,448,192,443.229,192,437.333z"/>
	<path style="fill:#303C42;" d="M282.667,416c-19.427,0-32.646,12.281-34.094,13.677c-4.198,4.073-4.302,10.75-0.26,14.99   c4.052,4.229,10.792,4.385,15.052,0.385c0.083-0.083,8.354-7.719,19.302-7.719c7.698,0,16,8.156,16,21.333   c0,15.385-18.354,32-48,32c-14.344,0-23.063-3.813-34.094-8.646c-13.594-5.948-29-12.688-56.573-12.688   c-30.063,0-50.104,24.24-50.948,25.271c-3.698,4.563-3.01,11.24,1.531,14.958c4.552,3.719,11.24,3.052,15-1.469   c0.146-0.177,14.646-17.427,34.417-17.427c23.104,0,35.208,5.292,48.021,10.896C219.74,506.698,231.865,512,250.667,512   C294.063,512,320,484.885,320,458.667C320,435.135,303.25,416,282.667,416z"/>
	<path style="fill:#303C42;" d="M380.633,432.016c-12.125-6.103-27.267-5.43-29.341-5.328c-5.875,0.396-10.323,5.479-9.938,11.354   c0.385,5.875,5.427,10.115,11.354,9.938c3.115-0.215,8.303,0.135,12.924,1.188c-5.651,13.409-3.073,29.5,7.826,40.406   c7.177,7.177,18.448,9.031,30.365,10.99c9.906,1.625,21.125,3.469,25.969,8.313c2.042,2.042,4.771,3.125,7.542,3.125   c1.375,0,2.76-0.26,4.083-0.813c3.99-1.646,6.583-5.542,6.583-9.854c0-26.323-8.177-49.604-22.427-63.875   C413.387,425.289,394.786,423.551,380.633,432.016z"/>
</g>
<path style="fill:#7CB342;" d="M407.292,479.51c-6.927-1.135-16.417-2.698-18.75-5.021c-6.042-6.052-6.042-15.896,0-21.948  c6.031-6.031,15.875-6.052,21.948,0c2.927,2.938,11.01,12.427,14.51,30.573C419.156,481.458,413.052,480.458,407.292,479.51z"/>
<g>
	<path style="fill:#64B5F6;" d="M64,213.333c0-35.292,28.708-64,64-64c5.896,0,10.667-4.771,10.667-10.667S133.896,128,128,128   c-3.083,0-6.005,0.59-9.005,0.91c9.375-61.255,62.594-107.577,126.339-107.577c49.551,0,94.48,29.395,115.409,73.835   c-5.151,2.376-10.16,5.092-14.919,8.301c-4.885,3.292-6.177,9.917-2.885,14.802c3.302,4.896,9.927,6.177,14.802,2.885   c14.073-9.479,30.531-14.49,47.594-14.49c47.052,0,85.333,38.281,85.333,85.333s-38.281,85.333-85.333,85.333h-22.577   c-6.128-5.986-13.318-10.837-21.201-14.448c-7.246-64.201-61.595-113.552-126.889-113.552c-47.432,0-90.46,26.492-112.599,67.947   c-8.466-2.4-17.188-3.947-26.068-3.947c-11.099,0-21.598,2.268-31.523,5.749C64.259,217.142,64,215.189,64,213.333z"/>
	<path style="fill:#64B5F6;" d="M330.667,384H96c-41.167,0-74.667-33.5-74.667-74.667s33.5-74.667,74.667-74.667   c17.156,0,33.281,5.656,46.646,16.354c4.635,3.719,11.333,2.948,14.99-1.656c3.688-4.594,2.948-11.313-1.656-14.99   c-4.385-3.514-9.083-6.578-13.987-9.25c18.788-33.302,53.979-54.458,92.674-54.458c51.454,0,94.456,36.908,104.116,86.154   c-2.702-0.297-5.337-0.82-8.116-0.82c-5.896,0-10.667,4.771-10.667,10.667c0,5.896,4.771,10.667,10.667,10.667   c29.406,0,53.333,23.927,53.333,53.333S360.073,384,330.667,384z"/>
</g>
<path style="opacity:0.1;enable-background:new    ;" d="M432.818,111.611C442.348,125.382,448,142.023,448,160  c0,47.052-38.281,85.333-85.333,85.333h-4.766c1.486,5.75,2.973,11.509,3.655,17.552c7.883,3.611,15.073,8.462,21.201,14.448h22.577  c47.052,0,85.333-38.281,85.333-85.333C490.667,154.617,466.348,123.121,432.818,111.611z"/>
<path style="opacity:0.1;enable-background:new    ;" d="M361.348,287.184c0.819,3.708,1.319,7.533,1.319,11.483  c0,29.406-23.927,53.333-53.333,53.333H74.667c-18.865,0-35.919-7.264-49.078-18.848C35.595,362.605,63.21,384,96,384h234.667  C360.073,384,384,360.073,384,330.667C384,312.699,375.005,296.853,361.348,287.184z"/>
<path style="fill:#303C42;" d="M405.333,85.333c-8.275,0-16.366,1.224-24.289,3.074C357.124,35.29,303.995,0,245.333,0  C168.098,0,104.276,58.389,97.044,134.022c-31.755,12.44-54.378,43.202-54.378,79.311c0,4.918,0.717,9.997,1.783,15.283  C17.802,245.694,0,275.4,0,309.333c0,52.938,43.063,96,96,96h234.667c41.167,0,74.667-33.5,74.667-74.667  c0-11.495-2.828-22.263-7.49-32h7.49C464.146,298.667,512,250.813,512,192S464.146,85.333,405.333,85.333z M330.667,384H96  c-41.167,0-74.667-33.5-74.667-74.667s33.5-74.667,74.667-74.667c9.363,0,18.368,1.836,26.844,5.109  c0.06,0.027,0.095,0.082,0.156,0.109c0.056,0.025,0.117,0.014,0.173,0.038c6.919,2.712,13.508,6.319,19.473,11.098  c4.563,3.698,11.292,2.979,15-1.656c3.667-4.594,2.938-11.313-1.667-14.99c-4.384-3.513-9.078-6.576-13.978-9.247  c18.785-33.302,53.978-54.461,92.665-54.461c51.465,0,94.466,36.908,104.111,86.154c-2.699-0.297-5.333-0.82-8.111-0.82  c-5.896,0-10.667,4.771-10.667,10.667c0,5.896,4.771,10.667,10.667,10.667c5.964,0,11.602,1.208,16.96,3.021  c0.038,0.016,0.078,0.022,0.115,0.036C368.754,287.555,384,307.264,384,330.667C384,360.073,360.083,384,330.667,384z   M405.333,277.333h-22.577c-6.13-5.988-13.323-10.841-21.21-14.452c-7.229-64.189-61.578-113.548-126.88-113.548  c-47.431,0-90.457,26.488-112.605,67.944c-8.462-2.397-17.181-3.944-26.061-3.944c-11.1,0-21.599,2.268-31.525,5.749  c-0.217-1.941-0.475-3.898-0.475-5.749c0-35.292,28.708-64,64-64c5.896,0,10.667-4.771,10.667-10.667S133.896,128,128,128  c-3.087,0-6.012,0.59-9.016,0.911c9.375-61.255,62.595-107.578,126.349-107.578c49.551,0,94.474,29.395,115.391,73.837  c-5.147,2.374-10.152,5.087-14.911,8.288c-4.875,3.292-6.188,9.917-2.896,14.813c3.313,4.906,9.938,6.156,14.813,2.896  c6.576-4.431,13.71-7.784,21.143-10.208h0.003l0.003-0.001c8.486-2.766,17.374-4.29,26.456-4.29  c47.063,0,85.333,38.281,85.333,85.333S452.396,277.333,405.333,277.333z"/>
<linearGradient id="SVGID_1_" gradientUnits="userSpaceOnUse" x1="-44.5197" y1="637.7593" x2="-23.3622" y2="627.8936" gradientTransform="matrix(21.3333 0 0 -21.3333 996.3334 13791.667)">
	<stop offset="0" style="stop-color:#FFFFFF;stop-opacity:0.2"/>
	<stop offset="1" style="stop-color:#FFFFFF;stop-opacity:0"/>
</linearGradient>
<path style="fill:url(#SVGID_1_);" d="M192,437.333c0-5.896-4.771-10.667-10.667-10.667c-52.729,0-83.385,6.99-115.01,46.688  c-3.667,4.604-2.906,11.323,1.698,14.99c1.969,1.563,4.313,2.323,6.635,2.323c3.135,0,6.25-1.375,8.354-4.021  C109.51,453.375,133.698,448,181.333,448C187.229,448,192,443.229,192,437.333z M282.667,416c-19.427,0-32.646,12.281-34.094,13.677  c-4.198,4.073-4.302,10.75-0.26,14.99c4.052,4.229,10.792,4.385,15.052,0.385c0.083-0.083,8.354-7.719,19.302-7.719  c7.698,0,16,8.156,16,21.333c0,15.385-18.354,32-48,32c-14.344,0-23.063-3.813-34.094-8.646c-13.594-5.948-29-12.688-56.573-12.688  c-30.063,0-50.104,24.24-50.948,25.271c-3.698,4.563-3.01,11.24,1.531,14.958c4.552,3.719,11.24,3.052,15-1.469  c0.146-0.177,14.646-17.427,34.417-17.427c23.104,0,35.208,5.292,48.021,10.896C219.74,506.698,231.865,512,250.667,512  C294.063,512,320,484.885,320,458.667C320,435.135,303.25,416,282.667,416z M380.633,432.016  c-12.125-6.103-27.267-5.43-29.341-5.328c-5.875,0.396-10.323,5.479-9.938,11.354c0.385,5.875,5.427,10.115,11.354,9.938  c3.115-0.215,8.303,0.135,12.924,1.188c-5.651,13.409-3.073,29.5,7.826,40.406c7.177,7.177,18.448,9.031,30.365,10.99  c9.906,1.625,21.125,3.469,25.969,8.313c2.042,2.042,4.771,3.125,7.542,3.125c1.375,0,2.76-0.26,4.083-0.813  c3.99-1.646,6.583-5.542,6.583-9.854c0-26.323-8.177-49.604-22.427-63.875C413.387,425.289,394.786,423.551,380.633,432.016z   M405.333,85.333c-8.275,0-16.366,1.224-24.289,3.074C357.124,35.29,303.995,0,245.333,0C168.098,0,104.276,58.389,97.044,134.022  c-31.755,12.44-54.378,43.202-54.378,79.311c0,4.918,0.717,9.997,1.783,15.283C17.802,245.694,0,275.4,0,309.333  c0,52.938,43.063,96,96,96h234.667c41.167,0,74.667-33.5,74.667-74.667c0-11.495-2.828-22.263-7.49-32h7.49  C464.146,298.667,512,250.813,512,192S464.146,85.333,405.333,85.333z M330.667,384H96c-41.167,0-74.667-33.5-74.667-74.667  s33.5-74.667,74.667-74.667c9.363,0,18.368,1.836,26.844,5.109c0.06,0.027,0.095,0.082,0.156,0.109  c0.056,0.025,0.117,0.014,0.173,0.038c6.919,2.712,13.508,6.319,19.473,11.098c4.563,3.698,11.292,2.979,15-1.656  c3.667-4.594,2.938-11.313-1.667-14.99c-4.384-3.513-9.078-6.576-13.978-9.247c18.785-33.302,53.978-54.461,92.665-54.461  c51.465,0,94.466,36.908,104.111,86.154c-2.699-0.297-5.333-0.82-8.111-0.82c-5.896,0-10.667,4.771-10.667,10.667  c0,5.896,4.771,10.667,10.667,10.667c5.964,0,11.602,1.208,16.96,3.021c0.038,0.016,0.078,0.022,0.115,0.036  C368.754,287.555,384,307.264,384,330.667C384,360.073,360.083,384,330.667,384z M405.333,277.333h-22.577  c-6.13-5.988-13.323-10.841-21.21-14.452c-7.229-64.189-61.578-113.548-126.88-113.548c-47.431,0-90.457,26.488-112.605,67.944  c-8.462-2.397-17.181-3.944-26.061-3.944c-11.1,0-21.599,2.268-31.525,5.749c-0.217-1.941-0.475-3.898-0.475-5.749  c0-35.292,28.708-64,64-64c5.896,0,10.667-4.771,10.667-10.667S133.896,128,128,128c-3.087,0-6.012,0.59-9.016,0.911  c9.375-61.255,62.595-107.578,126.349-107.578c49.551,0,94.474,29.395,115.391,73.837c-5.147,2.374-10.152,5.087-14.911,8.288  c-4.875,3.292-6.188,9.917-2.896,14.813c3.313,4.906,9.938,6.156,14.813,2.896c6.576-4.431,13.71-7.784,21.143-10.208h0.003  l0.003-0.001c8.486-2.766,17.374-4.29,26.456-4.29c47.063,0,85.333,38.281,85.333,85.333S452.396,277.333,405.333,277.333z"/>
<g>
</g>
<g>
</g>
<g>
</g>
<g>
</g>
<g>
</g>
<g>
</g>
<g>
</g>
<g>
</g>
<g>
</g>
<g>
</g>
<g>
</g>
<g>
</g>
<g>
</g>
<g>
</g>
<g>
</g>
</svg>
