<?xml version="1.0" encoding="iso-8859-1"?>
<!-- Generator: Adobe Illustrator 19.0.0, SVG Export Plug-In . SVG Version: 6.00 Build 0)  -->
<svg xmlns="http://www.w3.org/2000/svg" xmlns:xlink="http://www.w3.org/1999/xlink" version="1.1" id="Capa_1" x="0px" y="0px" viewBox="0 0 511.999 511.999" style="enable-background:new 0 0 511.999 511.999;" xml:space="preserve">
<path style="fill:#303C42;" d="M490.416,256h-10.417c-89.938,0-107.896-20.208-143.667-60.458  c-8.74-9.844-18.375-20.667-30.125-32.417c-58.156-58.167-100.438-77.792-167.542-77.792c-15.706,0-27.72,16.322-36.35,41.363  L2.135,260.27c-1.75,2.333-2.469,5.271-1.99,8.146c0.479,2.885,2.115,5.438,4.531,7.073l85.939,58.388  c7.5,51.941,23.16,92.789,48.051,92.789c17.573,0,34.667-13.031,54.469-28.115c22.063-16.823,47.083-35.885,73.531-35.885  c24.354,0,40.229,4.74,57.031,9.771C342.718,378.125,362.395,384,394.666,384c57.042,0,94.333-9.344,105.021-26.313  c7.708-12.24,12.313-34.302,12.313-59.021C511.999,285.895,511.999,256,490.416,256z M35.67,270.759l49.674-13.862  c0.025,16.374,0.737,32.949,2.111,49.046L35.67,270.759z M85.754,234.642l-47.727,13.319l52.643-70.195  C88.053,195.799,86.439,215.149,85.754,234.642z"/>
<g>
	<path style="fill:#E6E6E6;" d="M170.666,256c0,42.398-4.233,75.392-9.728,99.87l-50.52-34.324   c-2.302-18.775-3.753-40.603-3.753-65.546c0-55.128,7.051-94.738,14.913-119.445l20.809-27.745   C153.055,118.944,170.666,168.582,170.666,256z"/>
	<path style="fill:#E6E6E6;" d="M115.184,350.569l39.863,27.083c-5.988,18.008-12.326,27.681-16.382,27.681   C132.911,405.333,122.564,386.619,115.184,350.569z"/>
</g>
<path style="fill:#E53935;" d="M180.197,381.583c-1.79,1.365-3.508,2.628-5.271,3.961c11.566-33.393,17.073-82.457,17.073-129.544  c0-56.563-7.905-116.086-24.773-147.717c25.673,2.845,49.284,10.823,75.73,29.003c8.24,25.174,13.043,60.25,13.043,97.382  c0,46.069-7.197,88.332-18.827,112.21C216.111,354.42,197.337,368.524,180.197,381.583z"/>
<path style="fill:#FFFFFF;" d="M262.321,341.669c9.491-27.243,15.012-65.341,15.012-107.003c0-27.225-2.641-53.365-7.113-76.137  c6.702,5.914,13.626,12.4,20.905,19.678c11.417,11.417,20.771,21.948,29.26,31.5c5.552,6.249,10.776,12.081,15.975,17.566  c3.207,14.285,4.973,29.276,4.973,44.725c0,31.927-6.759,61.508-17.488,78.267c-15.798-4.63-32.763-8.934-57.178-8.934  C265.188,341.333,263.778,341.588,262.321,341.669z"/>
<path style="fill:#E53935;" d="M344.891,356.278c11.103-20.674,17.775-51.191,17.775-84.279c0-7.5-0.563-14.858-1.258-22.167  c15.224,10.957,33.516,18.875,59.98,23.328c3.358,12.332,5.277,26.727,5.277,41.505c0,18.81-6.848,36.724-13.948,47.57  c-5.671,0.234-11.505,0.43-18.052,0.43C373.459,362.666,358.545,359.89,344.891,356.278z"/>
<path style="fill:#FFFFFF;" d="M481.645,346.312c-2.065,3.281-13.96,10.28-43.837,13.96c6.212-14.105,10.191-30.477,10.191-45.605  c0-13.759-1.815-26.616-4.422-38.76c10.91,0.918,22.904,1.427,36.422,1.427h8.406c0.844,2.094,2.26,7.656,2.26,21.333  C490.666,318.906,487.124,337.614,481.645,346.312z"/>
<path style="opacity:0.1;enable-background:new    ;" d="M120.692,354.311l-5.508-3.742c3.012,14.711,6.514,26.371,10,35.215  C123.413,376.27,121.907,365.708,120.692,354.311z"/>
<path style="opacity:0.1;enable-background:new    ;" d="M117.333,288c0-82.475,14.327-149.333,32-149.333  c3.048,0,5.986,2.113,8.777,5.827c-5.228-19.055-11.104-31.297-15.723-35.684l-20.809,27.745  c-7.862,24.707-14.913,64.318-14.913,119.445c0,24.943,1.451,46.771,3.753,65.546l8.056,5.473  C117.753,314.561,117.333,301.523,117.333,288z"/>
<g>
	<path style="opacity:0.2;fill:#FFFFFF;enable-background:new    ;" d="M479.999,298.666h10.417c0.094,0,0.154,0.044,0.247,0.046   c0-0.016,0.003-0.03,0.003-0.046c0-13.677-1.417-19.24-2.26-21.333h-8.406c-13.518,0-25.512-0.509-36.422-1.427   c1.487,6.926,2.579,14.16,3.362,21.585C456.796,298.25,467.667,298.666,479.999,298.666z"/>
	<path style="opacity:0.2;fill:#FFFFFF;enable-background:new    ;" d="M425.413,294.989c-0.897-7.69-2.191-15.095-4.025-21.828   c-26.465-4.453-44.757-12.371-59.98-23.328c0.493,5.193,0.688,10.475,0.893,15.751C378.374,280.27,395.838,290.093,425.413,294.989   z"/>
	<path style="opacity:0.2;fill:#FFFFFF;enable-background:new    ;" d="M306.208,205.791c11.75,11.75,21.385,22.573,30.125,32.417   c0.789,0.888,1.529,1.712,2.301,2.581c-0.704-4.529-1.285-9.112-2.273-13.514c-5.199-5.486-10.423-11.318-15.975-17.566   c-8.49-9.552-17.844-20.083-29.26-31.5c-7.279-7.279-14.203-13.764-20.905-19.678c1.099,5.598,2.083,11.409,2.949,17.38   C283.797,184.578,294.643,194.225,306.208,205.791z"/>
	<path style="opacity:0.2;fill:#FFFFFF;enable-background:new    ;" d="M248.429,157.746c-1.6-7.346-3.428-14.214-5.473-20.461   c-26.447-18.18-50.057-26.158-75.73-29.003c3.398,6.372,6.335,14.122,9.014,22.507   C202.329,134.627,225.342,143.023,248.429,157.746z"/>
</g>
<path style="opacity:0.1;enable-background:new    ;" d="M193.135,355.885c-4.267,3.25-8.389,6.366-12.438,9.316  c-1.738,7.201-3.615,14.117-5.771,20.342c1.763-1.333,3.48-2.596,5.271-3.961c17.139-13.059,35.914-27.163,56.975-34.707  c3.122-6.41,5.893-14.229,8.323-23.008C226.87,330.263,209.212,343.627,193.135,355.885z"/>
<path style="opacity:0.1;enable-background:new    ;" d="M323.697,329.77c-16.357-4.898-31.969-9.441-55.246-9.684  c-1.806,7.738-3.84,15.007-6.13,21.582c1.457-0.081,2.867-0.336,4.345-0.336c24.415,0,41.38,4.303,57.178,8.934  c3.152-4.924,5.828-11.207,8.225-18.081C329.275,331.379,326.429,330.587,323.697,329.77z"/>
<path style="opacity:0.1;enable-background:new    ;" d="M394.666,341.333c-16.842,0-30.172-1.635-41.85-3.974  c-2.313,6.896-4.918,13.322-7.924,18.919c13.654,3.612,28.568,6.388,49.775,6.388c6.547,0,12.382-0.195,18.052-0.43  c3.695-5.646,7.264-13.255,9.893-21.861C413.851,340.942,404.682,341.333,394.666,341.333z"/>
<path style="opacity:0.1;enable-background:new    ;" d="M445.158,338.123c-1.768,7.652-4.281,15.18-7.35,22.148  c29.878-3.68,41.772-10.678,43.837-13.96c2.909-4.618,5.214-12.159,6.79-21.154C478.669,331.086,464.036,335.438,445.158,338.123z"/>
<linearGradient id="SVGID_1_" gradientUnits="userSpaceOnUse" x1="-45.2028" y1="637.3129" x2="-24.2715" y2="627.5527" gradientTransform="matrix(21.3333 0 0 -21.3333 996.3408 13791.6592)">
	<stop offset="0" style="stop-color:#FFFFFF;stop-opacity:0.2"/>
	<stop offset="1" style="stop-color:#FFFFFF;stop-opacity:0"/>
</linearGradient>
<path style="fill:url(#SVGID_1_);" d="M490.416,256h-10.417c-89.938,0-107.896-20.208-143.667-60.458  c-8.74-9.844-18.375-20.667-30.125-32.417c-58.156-58.167-100.438-77.792-167.542-77.792c-15.706,0-27.72,16.322-36.35,41.363  L2.135,260.27c-1.75,2.333-2.469,5.271-1.99,8.146c0.479,2.885,2.115,5.438,4.531,7.073l85.939,58.388  c7.5,51.941,23.16,92.789,48.051,92.789c17.573,0,34.667-13.031,54.469-28.115c22.063-16.823,47.083-35.885,73.531-35.885  c24.354,0,40.229,4.74,57.031,9.771C342.718,378.125,362.395,384,394.666,384c57.042,0,94.333-9.344,105.021-26.313  c7.708-12.24,12.313-34.302,12.313-59.021C511.999,285.895,511.999,256,490.416,256z M35.67,270.759l49.674-13.862  c0.025,16.374,0.737,32.949,2.111,49.046L35.67,270.759z M85.754,234.642l-47.727,13.319l52.643-70.195  C88.053,195.799,86.439,215.149,85.754,234.642z"/>
<g>
</g>
<g>
</g>
<g>
</g>
<g>
</g>
<g>
</g>
<g>
</g>
<g>
</g>
<g>
</g>
<g>
</g>
<g>
</g>
<g>
</g>
<g>
</g>
<g>
</g>
<g>
</g>
<g>
</g>
</svg>
