<?xml version="1.0" encoding="iso-8859-1"?>
<!-- Generator: Adobe Illustrator 19.0.0, SVG Export Plug-In . SVG Version: 6.00 Build 0)  -->
<svg xmlns="http://www.w3.org/2000/svg" xmlns:xlink="http://www.w3.org/1999/xlink" version="1.1" id="Capa_1" x="0px" y="0px" viewBox="0 0 512 512" style="enable-background:new 0 0 512 512;" xml:space="preserve">
<path style="fill:#303C42;" d="M352,385.406V53.333C352,23.927,328.073,0,298.667,0s-53.333,23.927-53.333,53.333v332.073  C231.719,399.365,224,418.031,224,437.333C224,478.5,257.5,512,298.667,512s74.667-33.5,74.667-74.667  C373.333,418.031,365.615,399.365,352,385.406z"/>
<path style="fill:#E6E6E6;" d="M298.667,490.667c-29.406,0-53.333-23.927-53.333-53.333c0-15.104,6.323-29.125,17.813-39.469  c2.24-2.031,3.521-4.906,3.521-7.927V53.333c0-17.646,14.354-32,32-32c17.646,0,32,14.354,32,32v336.604  c0,3.021,1.281,5.896,3.521,7.927C345.677,408.208,352,422.229,352,437.333C352,466.74,328.073,490.667,298.667,490.667z"/>
<path style="opacity:0.2;fill:#FFFFFF;enable-background:new    ;" d="M256,448c0-15.104,6.323-29.125,17.813-39.469  c2.24-2.031,3.521-4.906,3.521-7.927V64c0-17.646,14.354-32,32-32c6.086,0,11.723,1.801,16.572,4.762  c-5.625-9.21-15.678-15.428-27.238-15.428c-17.646,0-32,14.354-32,32v336.604c0,3.021-1.281,5.896-3.521,7.927  c-11.49,10.344-17.813,24.365-17.813,39.469c0,17.423,8.52,32.779,21.482,42.518C260.117,470.936,256,459.983,256,448z"/>
<g>
	<path style="fill:#303C42;" d="M213.333,341.333h-64c-5.896,0-10.667,4.771-10.667,10.667c0,5.896,4.771,10.667,10.667,10.667h64   c5.896,0,10.667-4.771,10.667-10.667C224,346.104,219.229,341.333,213.333,341.333z"/>
	<path style="fill:#303C42;" d="M213.333,298.667H192c-5.896,0-10.667,4.771-10.667,10.667S186.104,320,192,320h21.333   c5.896,0,10.667-4.771,10.667-10.667S219.229,298.667,213.333,298.667z"/>
	<path style="fill:#303C42;" d="M213.333,256H192c-5.896,0-10.667,4.771-10.667,10.667c0,5.896,4.771,10.667,10.667,10.667h21.333   c5.896,0,10.667-4.771,10.667-10.667C224,260.771,219.229,256,213.333,256z"/>
	<path style="fill:#303C42;" d="M149.333,234.667h64c5.896,0,10.667-4.771,10.667-10.667c0-5.896-4.771-10.667-10.667-10.667h-64   c-5.896,0-10.667,4.771-10.667,10.667C138.667,229.896,143.438,234.667,149.333,234.667z"/>
	<path style="fill:#303C42;" d="M149.333,106.667h64c5.896,0,10.667-4.771,10.667-10.667c0-5.896-4.771-10.667-10.667-10.667h-64   c-5.896,0-10.667,4.771-10.667,10.667C138.667,101.896,143.438,106.667,149.333,106.667z"/>
	<path style="fill:#303C42;" d="M213.333,170.667H192c-5.896,0-10.667,4.771-10.667,10.667c0,5.896,4.771,10.667,10.667,10.667   h21.333c5.896,0,10.667-4.771,10.667-10.667C224,175.438,219.229,170.667,213.333,170.667z"/>
	<path style="fill:#303C42;" d="M213.333,128H192c-5.896,0-10.667,4.771-10.667,10.667s4.771,10.667,10.667,10.667h21.333   c5.896,0,10.667-4.771,10.667-10.667S219.229,128,213.333,128z"/>
</g>
<path style="fill:#D32F2F;" d="M309.333,419.275V224c0-5.896-4.771-10.667-10.667-10.667c-5.896,0-10.667,4.771-10.667,10.667  v195.275c-6.259,3.721-10.667,10.258-10.667,18.059c0,11.771,9.563,21.333,21.333,21.333c11.771,0,21.333-9.563,21.333-21.333  C320,429.533,315.592,422.996,309.333,419.275z"/>
<linearGradient id="SVGID_1_" gradientUnits="userSpaceOnUse" x1="-41.7986" y1="638.6743" x2="-26.2953" y2="631.4446" gradientTransform="matrix(21.3333 0 0 -21.3333 996.3334 13791.667)">
	<stop offset="0" style="stop-color:#FFFFFF;stop-opacity:0.2"/>
	<stop offset="1" style="stop-color:#FFFFFF;stop-opacity:0"/>
</linearGradient>
<path style="fill:url(#SVGID_1_);" d="M352,385.406V53.333C352,23.927,328.073,0,298.667,0s-53.333,23.927-53.333,53.333v332.073  C231.719,399.365,224,418.031,224,437.333C224,478.5,257.5,512,298.667,512s74.667-33.5,74.667-74.667  C373.333,418.031,365.615,399.365,352,385.406z M213.333,341.333h-64c-5.896,0-10.667,4.771-10.667,10.667  c0,5.896,4.771,10.667,10.667,10.667h64c5.896,0,10.667-4.771,10.667-10.667C224,346.104,219.229,341.333,213.333,341.333z   M213.333,298.667H192c-5.896,0-10.667,4.771-10.667,10.667S186.104,320,192,320h21.333c5.896,0,10.667-4.771,10.667-10.667  S219.229,298.667,213.333,298.667z M213.333,256H192c-5.896,0-10.667,4.771-10.667,10.667c0,5.896,4.771,10.667,10.667,10.667  h21.333c5.896,0,10.667-4.771,10.667-10.667C224,260.771,219.229,256,213.333,256z M149.333,234.667h64  c5.896,0,10.667-4.771,10.667-10.667c0-5.896-4.771-10.667-10.667-10.667h-64c-5.896,0-10.667,4.771-10.667,10.667  C138.667,229.896,143.438,234.667,149.333,234.667z M149.333,106.667h64c5.896,0,10.667-4.771,10.667-10.667  c0-5.896-4.771-10.667-10.667-10.667h-64c-5.896,0-10.667,4.771-10.667,10.667C138.667,101.896,143.438,106.667,149.333,106.667z   M213.333,170.667H192c-5.896,0-10.667,4.771-10.667,10.667c0,5.896,4.771,10.667,10.667,10.667h21.333  c5.896,0,10.667-4.771,10.667-10.667C224,175.438,219.229,170.667,213.333,170.667z M213.333,128H192  c-5.896,0-10.667,4.771-10.667,10.667s4.771,10.667,10.667,10.667h21.333c5.896,0,10.667-4.771,10.667-10.667  S219.229,128,213.333,128z"/>
<g>
</g>
<g>
</g>
<g>
</g>
<g>
</g>
<g>
</g>
<g>
</g>
<g>
</g>
<g>
</g>
<g>
</g>
<g>
</g>
<g>
</g>
<g>
</g>
<g>
</g>
<g>
</g>
<g>
</g>
</svg>
