<?xml version="1.0" encoding="iso-8859-1"?>
<!-- Generator: Adobe Illustrator 19.0.0, SVG Export Plug-In . SVG Version: 6.00 Build 0)  -->
<svg xmlns="http://www.w3.org/2000/svg" xmlns:xlink="http://www.w3.org/1999/xlink" version="1.1" id="Capa_1" x="0px" y="0px" viewBox="0 0 512 512" style="enable-background:new 0 0 512 512;" xml:space="preserve">
<path style="fill:#303C42;" d="M501.333,341.333c-28.717,0-49.283,1.298-65.706,3.221c6.882-18.198,10.678-37.143,11.755-56.555  h53.951c5.896,0,10.667-4.771,10.667-10.667s-4.771-10.667-10.667-10.667H447.46c-2.484-44.888-20.374-85.634-48.572-117.129  l38.133-38.142c4.167-4.167,4.167-10.917,0-15.083c-4.167-4.167-10.917-4.167-15.083,0l-38.133,38.141  c-31.493-28.202-72.243-46.095-117.138-48.579V32c0-5.896-4.771-10.667-10.667-10.667c-5.896,0-10.667,4.771-10.667,10.667v53.874  c-44.895,2.484-85.645,20.378-117.138,48.579L90.063,96.313c-4.167-4.167-10.917-4.167-15.083,0c-4.167,4.167-4.167,10.917,0,15.083  l38.133,38.142c-28.198,31.495-46.087,72.241-48.572,117.129H10.667C4.771,266.667,0,271.438,0,277.333S4.771,288,10.667,288h53.951  c1.077,19.411,4.874,38.357,11.755,56.555c-16.423-1.923-36.988-3.221-65.706-3.221C4.771,341.333,0,346.104,0,352  c0,5.896,4.771,10.667,10.667,10.667c57.5,0,80.25,5.063,104.354,10.417C139.188,378.448,164.167,384,224,384h64  c59.833,0,84.813-5.552,108.979-10.917c24.104-5.354,46.854-10.417,104.354-10.417c5.896,0,10.667-4.771,10.667-10.667  C512,346.104,507.229,341.333,501.333,341.333z"/>
<path style="fill:#FFCA28;" d="M392.354,352.25C368.25,357.604,345.5,362.667,288,362.667h-64c-57.5,0-80.25-5.063-104.354-10.417  c-5.915-1.314-11.895-2.635-18.408-3.887c-10.405-22.517-15.905-46.345-15.905-71.03c0-94.104,76.563-170.667,170.667-170.667  s170.667,76.563,170.667,170.667c0,24.689-5.501,48.52-15.91,71.031C404.246,349.616,398.268,350.938,392.354,352.25z"/>
<path style="fill:#303C42;" d="M306.208,429.792c-4.167-4.167-10.917-4.167-15.083,0l-24.458,24.458V330.667  c0-5.896-4.771-10.667-10.667-10.667c-5.896,0-10.667,4.771-10.667,10.667V454.25l-24.458-24.458  c-4.167-4.167-10.917-4.167-15.083,0c-4.167,4.167-4.167,10.917,0,15.083l42.667,42.667c2.083,2.083,4.813,3.125,7.542,3.125  c2.729,0,5.458-1.042,7.542-3.125l42.667-42.667C310.375,440.708,310.375,433.958,306.208,429.792z"/>
<linearGradient id="SVGID_1_" gradientUnits="userSpaceOnUse" x1="-44.4862" y1="639.2585" x2="-22.9991" y2="629.2384" gradientTransform="matrix(21.3333 0 0 -21.3333 996.3334 13791.667)">
	<stop offset="0" style="stop-color:#FFFFFF;stop-opacity:0.2"/>
	<stop offset="1" style="stop-color:#FFFFFF;stop-opacity:0"/>
</linearGradient>
<path style="fill:url(#SVGID_1_);" d="M501.333,341.333c-28.717,0-49.283,1.298-65.706,3.221  c6.882-18.198,10.678-37.143,11.755-56.555h53.951c5.896,0,10.667-4.771,10.667-10.667s-4.771-10.667-10.667-10.667H447.46  c-2.484-44.888-20.374-85.634-48.572-117.129l38.133-38.142c4.167-4.167,4.167-10.917,0-15.083c-4.167-4.167-10.917-4.167-15.083,0  l-38.133,38.141c-31.493-28.202-72.243-46.095-117.138-48.579V32c0-5.896-4.771-10.667-10.667-10.667  c-5.896,0-10.667,4.771-10.667,10.667v53.874c-44.895,2.484-85.645,20.378-117.138,48.579L90.063,96.313  c-4.167-4.167-10.917-4.167-15.083,0c-4.167,4.167-4.167,10.917,0,15.083l38.133,38.142  c-28.198,31.495-46.087,72.241-48.572,117.129H10.667C4.771,266.667,0,271.438,0,277.333S4.771,288,10.667,288h53.951  c1.077,19.411,4.874,38.357,11.755,56.555c-16.423-1.923-36.988-3.221-65.706-3.221C4.771,341.333,0,346.104,0,352  c0,5.896,4.771,10.667,10.667,10.667c57.5,0,80.25,5.063,104.354,10.417C139.188,378.448,164.167,384,224,384h21.333v70.25  l-24.458-24.458c-4.167-4.167-10.917-4.167-15.083,0c-4.167,4.167-4.167,10.917,0,15.083l42.667,42.667  c2.083,2.083,4.813,3.125,7.542,3.125c2.729,0,5.458-1.042,7.542-3.125l42.667-42.667c4.167-4.167,4.167-10.917,0-15.083  c-4.167-4.167-10.917-4.167-15.083,0l-24.458,24.458V384H288c59.833,0,84.813-5.552,108.979-10.917  c24.104-5.354,46.854-10.417,104.354-10.417c5.896,0,10.667-4.771,10.667-10.667C512,346.104,507.229,341.333,501.333,341.333z"/>
<g>
</g>
<g>
</g>
<g>
</g>
<g>
</g>
<g>
</g>
<g>
</g>
<g>
</g>
<g>
</g>
<g>
</g>
<g>
</g>
<g>
</g>
<g>
</g>
<g>
</g>
<g>
</g>
<g>
</g>
</svg>
