<?xml version="1.0" encoding="iso-8859-1"?>
<!-- Generator: Adobe Illustrator 19.0.0, SVG Export Plug-In . SVG Version: 6.00 Build 0)  -->
<svg xmlns="http://www.w3.org/2000/svg" xmlns:xlink="http://www.w3.org/1999/xlink" version="1.1" id="Capa_1" x="0px" y="0px" viewBox="0 0 512 512" style="enable-background:new 0 0 512 512;" xml:space="preserve">
<path style="fill:#303C42;" d="M501.333,245.333H447.46c-2.484-44.889-20.378-85.637-48.578-117.132l38.139-38.139  c4.167-4.167,4.167-10.917,0-15.083c-4.167-4.167-10.917-4.167-15.083,0l-38.139,38.139  c-31.495-28.201-72.242-46.094-117.132-48.578V10.667C266.667,4.771,261.896,0,256,0c-5.896,0-10.667,4.771-10.667,10.667V64.54  c-44.889,2.484-85.637,20.378-117.132,48.578L90.063,74.979c-4.167-4.167-10.917-4.167-15.083,0c-4.167,4.167-4.167,10.917,0,15.083  l38.139,38.139c-28.201,31.495-46.094,72.242-48.578,117.132H10.667C4.771,245.333,0,250.104,0,256  c0,5.896,4.771,10.667,10.667,10.667H64.54c2.484,44.889,20.378,85.637,48.578,117.132l-38.139,38.139  c-4.167,4.167-4.167,10.917,0,15.083c2.083,2.083,4.813,3.125,7.542,3.125s5.458-1.042,7.542-3.125l38.139-38.139  c31.495,28.201,72.242,46.094,117.132,48.578v53.874c0,5.896,4.771,10.667,10.667,10.667c5.896,0,10.667-4.771,10.667-10.667V447.46  c44.889-2.484,85.637-20.378,117.132-48.578l38.139,38.139c2.083,2.083,4.813,3.125,7.542,3.125c2.729,0,5.458-1.042,7.542-3.125  c4.167-4.167,4.167-10.917,0-15.083l-38.139-38.139c28.201-31.495,46.094-72.242,48.578-117.132h53.874  c5.896,0,10.667-4.771,10.667-10.667C512,250.104,507.229,245.333,501.333,245.333z"/>
<circle style="fill:#FFCA28;" cx="256" cy="256" r="170.667"/>
<linearGradient id="SVGID_1_" gradientUnits="userSpaceOnUse" x1="-44.9505" y1="639.2626" x2="-24.4557" y2="629.7062" gradientTransform="matrix(21.3333 0 0 -21.3333 996.3334 13791.667)">
	<stop offset="0" style="stop-color:#FFFFFF;stop-opacity:0.2"/>
	<stop offset="1" style="stop-color:#FFFFFF;stop-opacity:0"/>
</linearGradient>
<path style="fill:url(#SVGID_1_);" d="M501.333,245.333H447.46c-2.484-44.889-20.378-85.637-48.578-117.132l38.139-38.139  c4.167-4.167,4.167-10.917,0-15.083c-4.167-4.167-10.917-4.167-15.083,0l-38.139,38.139  c-31.495-28.201-72.242-46.094-117.132-48.578V10.667C266.667,4.771,261.896,0,256,0c-5.896,0-10.667,4.771-10.667,10.667V64.54  c-44.889,2.484-85.637,20.378-117.132,48.578L90.063,74.979c-4.167-4.167-10.917-4.167-15.083,0c-4.167,4.167-4.167,10.917,0,15.083  l38.139,38.139c-28.201,31.495-46.094,72.242-48.578,117.132H10.667C4.771,245.333,0,250.104,0,256  c0,5.896,4.771,10.667,10.667,10.667H64.54c2.484,44.889,20.378,85.637,48.578,117.132l-38.139,38.139  c-4.167,4.167-4.167,10.917,0,15.083c2.083,2.083,4.813,3.125,7.542,3.125s5.458-1.042,7.542-3.125l38.139-38.139  c31.495,28.201,72.242,46.094,117.132,48.578v53.874c0,5.896,4.771,10.667,10.667,10.667c5.896,0,10.667-4.771,10.667-10.667V447.46  c44.889-2.484,85.637-20.378,117.132-48.578l38.139,38.139c2.083,2.083,4.813,3.125,7.542,3.125c2.729,0,5.458-1.042,7.542-3.125  c4.167-4.167,4.167-10.917,0-15.083l-38.139-38.139c28.201-31.495,46.094-72.242,48.578-117.132h53.874  c5.896,0,10.667-4.771,10.667-10.667C512,250.104,507.229,245.333,501.333,245.333z"/>
<g>
</g>
<g>
</g>
<g>
</g>
<g>
</g>
<g>
</g>
<g>
</g>
<g>
</g>
<g>
</g>
<g>
</g>
<g>
</g>
<g>
</g>
<g>
</g>
<g>
</g>
<g>
</g>
<g>
</g>
</svg>
