<?xml version="1.0" encoding="iso-8859-1"?>
<!-- Generator: Adobe Illustrator 19.0.0, SVG Export Plug-In . SVG Version: 6.00 Build 0)  -->
<svg xmlns="http://www.w3.org/2000/svg" xmlns:xlink="http://www.w3.org/1999/xlink" version="1.1" id="Capa_1" x="0px" y="0px" viewBox="0 0 512 512" style="enable-background:new 0 0 512 512;" xml:space="preserve">
<path style="fill:#303C42;" d="M508.875,248.458L448,187.583V74.667C448,68.771,443.229,64,437.333,64H324.417L263.542,3.125  c-4.167-4.167-10.917-4.167-15.083,0L187.583,64H74.667C68.771,64,64,68.771,64,74.667v112.917L3.125,248.458  c-4.167,4.167-4.167,10.917,0,15.083L64,324.417v112.917C64,443.229,68.771,448,74.667,448h112.917l60.875,60.875  c2.083,2.083,4.813,3.125,7.542,3.125c2.729,0,5.458-1.042,7.542-3.125L324.417,448h112.917c5.896,0,10.667-4.771,10.667-10.667  V324.417l60.875-60.875C513.042,259.375,513.042,252.625,508.875,248.458z"/>
<path id="SVGCleanerId_0" style="fill:#FFCA28;" d="M429.792,312.458c-2,2-3.125,4.708-3.125,7.542v106.667H320  c-2.833,0-5.542,1.125-7.542,3.125L256,486.25l-56.458-56.458c-2-2-4.708-3.125-7.542-3.125H85.333V320  c0-2.833-1.125-5.542-3.125-7.542L25.75,256l56.458-56.458c2-2,3.125-4.708,3.125-7.542V85.333H192c2.833,0,5.542-1.125,7.542-3.125  L256,25.75l56.458,56.458c2,2,4.708,3.125,7.542,3.125h106.667V192c0,2.833,1.125,5.542,3.125,7.542L486.25,256L429.792,312.458z"/>
<g>
	<path id="SVGCleanerId_0_1_" style="fill:#FFCA28;" d="M429.792,312.458c-2,2-3.125,4.708-3.125,7.542v106.667H320   c-2.833,0-5.542,1.125-7.542,3.125L256,486.25l-56.458-56.458c-2-2-4.708-3.125-7.542-3.125H85.333V320   c0-2.833-1.125-5.542-3.125-7.542L25.75,256l56.458-56.458c2-2,3.125-4.708,3.125-7.542V85.333H192   c2.833,0,5.542-1.125,7.542-3.125L256,25.75l56.458,56.458c2,2,4.708,3.125,7.542,3.125h106.667V192   c0,2.833,1.125,5.542,3.125,7.542L486.25,256L429.792,312.458z"/>
</g>
<ellipse style="fill:#303C42;" cx="256.213" cy="256.213" rx="170.347" ry="170.88"/>
<circle style="fill:#FFCA28;" cx="256" cy="256" r="149.973"/>
<linearGradient id="SVGID_1_" gradientUnits="userSpaceOnUse" x1="-45.3938" y1="639.4717" x2="-24.0125" y2="629.497" gradientTransform="matrix(21.3333 0 0 -21.3333 996.3334 13791.667)">
	<stop offset="0" style="stop-color:#FFFFFF;stop-opacity:0.2"/>
	<stop offset="1" style="stop-color:#FFFFFF;stop-opacity:0"/>
</linearGradient>
<path style="fill:url(#SVGID_1_);" d="M508.875,248.458L448,187.583V74.667C448,68.771,443.229,64,437.333,64H324.417L263.542,3.125  c-4.167-4.167-10.917-4.167-15.083,0L187.583,64H74.667C68.771,64,64,68.771,64,74.667v112.917L3.125,248.458  c-4.167,4.167-4.167,10.917,0,15.083L64,324.417v112.917C64,443.229,68.771,448,74.667,448h112.917l60.875,60.875  c2.083,2.083,4.813,3.125,7.542,3.125c2.729,0,5.458-1.042,7.542-3.125L324.417,448h112.917c5.896,0,10.667-4.771,10.667-10.667  V324.417l60.875-60.875C513.042,259.375,513.042,252.625,508.875,248.458z"/>
<g>
</g>
<g>
</g>
<g>
</g>
<g>
</g>
<g>
</g>
<g>
</g>
<g>
</g>
<g>
</g>
<g>
</g>
<g>
</g>
<g>
</g>
<g>
</g>
<g>
</g>
<g>
</g>
<g>
</g>
</svg>
