<?xml version="1.0" encoding="iso-8859-1"?>
<!-- Generator: Adobe Illustrator 19.0.0, SVG Export Plug-In . SVG Version: 6.00 Build 0)  -->
<svg xmlns="http://www.w3.org/2000/svg" xmlns:xlink="http://www.w3.org/1999/xlink" version="1.1" id="Capa_1" x="0px" y="0px" viewBox="0 0 512 512" style="enable-background:new 0 0 512 512;" xml:space="preserve">
<path style="fill:#303C42;" d="M58.063,427.771c-3.635-1.781-7.99-1.365-11.208,1.094l-33.156,25.365C4.99,460.417,0,469.802,0,480  c0,17.646,14.354,32,32,32s32-14.354,32-32v-42.667C64,433.271,61.698,429.573,58.063,427.771z"/>
<path style="fill:#BBDEFB;" d="M42.667,480c0,5.885-4.781,10.667-10.667,10.667S21.333,485.885,21.333,480  c0-4.417,3.01-7.188,4.802-8.448c0.125-0.083,0.24-0.167,0.354-0.26l16.177-12.365V480z"/>
<path style="fill:#303C42;" d="M501.333,149.333h-32.54c-2.208-24.352-11.85-46.577-26.686-64.362l23.039-23.023  c4.167-4.156,4.167-10.917,0-15.083s-10.917-4.167-15.083,0l-23.04,23.025c-17.786-14.833-40.008-24.474-64.355-26.682v-32.54  C362.667,4.771,357.896,0,352,0c-5.896,0-10.667,4.771-10.667,10.667V43.52c-23.988,2.217-46.103,11.703-63.992,26.733  l-23.404-23.388c-4.167-4.167-10.917-4.167-15.083,0s-4.167,10.927,0,15.083l23.457,23.441c-6.85,8.303-12.546,17.594-16.995,27.753  c-13.655-4.128-27.966-6.475-42.65-6.475c-76.865,0-140.452,58.292-148.182,133.988C22.674,253.068,0,283.852,0,320  c0,47.052,38.271,85.333,85.333,85.333h277.333c58.813,0,106.667-47.854,106.667-106.667c0-25.836-9.604-49.24-24.947-67.717  c13.659-17.685,21.885-38.434,23.945-60.283h33.001c5.896,0,10.667-4.771,10.667-10.667  C512,154.104,507.229,149.333,501.333,149.333z"/>
<path style="fill:#FFCA28;" d="M429.116,215.9c-18.289-14.716-41.204-23.9-66.449-23.9c-8.275,0-16.366,1.224-24.289,3.074  c-14.939-33.172-41.133-59.332-73.198-74.279C280.576,86.543,314.185,64,352,64c52.938,0,96,43.063,96,96  C448,180.092,441.141,199.474,429.116,215.9z"/>
<path id="SVGCleanerId_0" style="fill:#64B5F6;" d="M448,298.667C448,345.719,409.729,384,362.667,384H85.333  c-35.292,0-64-28.708-64-64s28.708-64,64-64C91.229,256,96,251.229,96,245.333c0-5.896-4.771-10.667-10.667-10.667  c-3.02,0-5.879,0.585-8.819,0.892C86.319,174.258,139.288,128,202.667,128c49.551,0,94.474,29.395,115.391,73.837  c-5.147,2.374-10.152,5.087-14.911,8.288c-4.875,3.292-6.188,9.917-2.896,14.813c3.313,4.885,9.938,6.146,14.813,2.896  c14.083-9.49,30.563-14.5,47.604-14.5C409.729,213.333,448,251.615,448,298.667z"/>
<g>
	<path id="SVGCleanerId_0_1_" style="fill:#64B5F6;" d="M448,298.667C448,345.719,409.729,384,362.667,384H85.333   c-35.292,0-64-28.708-64-64s28.708-64,64-64C91.229,256,96,251.229,96,245.333c0-5.896-4.771-10.667-10.667-10.667   c-3.02,0-5.879,0.585-8.819,0.892C86.319,174.258,139.288,128,202.667,128c49.551,0,94.474,29.395,115.391,73.837   c-5.147,2.374-10.152,5.087-14.911,8.288c-4.875,3.292-6.188,9.917-2.896,14.813c3.313,4.885,9.938,6.146,14.813,2.896   c14.083-9.49,30.563-14.5,47.604-14.5C409.729,213.333,448,251.615,448,298.667z"/>
</g>
<path style="fill:#303C42;" d="M117.333,469.333c-17.646,0-32-14.354-32-32c0-10.198,4.99-19.583,13.698-25.771l33.156-25.365  c3.24-2.469,7.573-2.885,11.208-1.094c3.635,1.802,5.938,5.5,5.938,9.563v42.667C149.333,454.979,134.979,469.333,117.333,469.333z"/>
<path style="fill:#BBDEFB;" d="M128,416.26l-16.177,12.365c-0.115,0.094-0.229,0.177-0.354,0.26  c-1.792,1.26-4.802,4.031-4.802,8.448c0,5.885,4.781,10.667,10.667,10.667S128,443.219,128,437.333V416.26z"/>
<g>
	<path style="fill:#303C42;" d="M105.344,420.156h0.208H105.344z"/>
	<path style="fill:#303C42;" d="M309.333,512c-17.646,0-32-14.354-32-32c0-10.208,4.99-19.583,13.698-25.76l33.156-25.375   c3.24-2.458,7.594-2.875,11.208-1.094c3.635,1.792,5.938,5.5,5.938,9.563V480C341.333,497.646,326.979,512,309.333,512z"/>
</g>
<path style="fill:#BBDEFB;" d="M320,458.927l-16.177,12.375c-0.115,0.094-0.24,0.188-0.365,0.271  c-1.792,1.25-4.792,4.01-4.792,8.427c0,5.885,4.781,10.667,10.667,10.667S320,485.885,320,480V458.927z"/>
<path style="fill:#303C42;" d="M297.344,462.833h0.208H297.344z"/>
<path style="opacity:0.1;enable-background:new    ;" d="M411.056,228.51C414.034,237.184,416,246.329,416,256  c0,47.052-38.271,85.333-85.333,85.333H53.333c-11.142,0-21.469-3.116-30.602-8.142C28.833,362.169,54.566,384,85.333,384h277.333  C409.729,384,448,345.719,448,298.667C448,269.589,433.332,243.924,411.056,228.51z"/>
<path style="fill:#303C42;" d="M170.667,512c-1.375,0-2.75-0.26-4.083-0.813c-4.708-1.948-7.375-6.948-6.375-11.948l32-160  c0.646-3.26,2.781-6.031,5.771-7.49c2.99-1.458,6.49-1.438,9.458,0.042l28.979,14.49l8.979-80.792  c0.354-3.198,2.146-6.073,4.854-7.813c2.719-1.74,6.063-2.177,9.125-1.125l64,21.333c5.5,1.823,8.521,7.708,6.823,13.25  l-42.667,138.667c-0.927,3-3.115,5.438-6,6.667c-2.875,1.26-6.156,1.156-8.969-0.26l-34.24-17.125l-58.781,88.167  C177.51,510.292,174.146,512,170.667,512z"/>
<path style="fill:#FFCA28;" d="M210.385,357.115l-18.688,93.438l34.094-51.135c2.99-4.469,8.833-6.042,13.646-3.625l31.406,15.708  l35.896-116.677l-41.594-13.865l-9.208,82.885c-0.385,3.469-2.448,6.531-5.51,8.198c-3.063,1.646-6.74,1.729-9.865,0.167  L210.385,357.115z"/>
<linearGradient id="SVGID_1_" gradientUnits="userSpaceOnUse" x1="-44.2545" y1="637.6168" x2="-25.8051" y2="629.0136" gradientTransform="matrix(21.3333 0 0 -21.3333 996.3334 13791.667)">
	<stop offset="0" style="stop-color:#FFFFFF;stop-opacity:0.2"/>
	<stop offset="1" style="stop-color:#FFFFFF;stop-opacity:0"/>
</linearGradient>
<path style="fill:url(#SVGID_1_);" d="M58.063,427.771c-3.635-1.781-7.99-1.365-11.208,1.094l-33.156,25.365  C4.99,460.417,0,469.802,0,480c0,17.646,14.354,32,32,32s32-14.354,32-32v-42.667C64,433.271,61.698,429.573,58.063,427.771z   M501.333,149.333h-32.54c-2.208-24.352-11.85-46.577-26.686-64.362l23.039-23.023c4.167-4.156,4.167-10.917,0-15.083  s-10.917-4.167-15.083,0l-23.04,23.025c-17.786-14.833-40.008-24.474-64.355-26.682v-32.54C362.667,4.771,357.896,0,352,0  c-5.896,0-10.667,4.771-10.667,10.667V43.52c-23.988,2.217-46.103,11.703-63.992,26.733l-23.404-23.388  c-4.167-4.167-10.917-4.167-15.083,0s-4.167,10.927,0,15.083l23.457,23.441c-6.85,8.303-12.546,17.594-16.995,27.753  c-13.655-4.128-27.966-6.475-42.65-6.475c-76.865,0-140.452,58.292-148.182,133.988C22.674,253.068,0,283.852,0,320  c0,47.052,38.271,85.333,85.333,85.333h21.841l-8.143,6.229c-8.708,6.188-13.698,15.573-13.698,25.771c0,17.646,14.354,32,32,32  s32-14.354,32-32v-32h29.656l-18.781,93.906c-1,5,1.667,10,6.375,11.948c1.333,0.552,2.708,0.813,4.083,0.813  c3.479,0,6.844-1.708,8.875-4.75l58.781-88.167l34.24,17.125c2.813,1.417,6.094,1.521,8.969,0.26c2.885-1.229,5.073-3.667,6-6.667  l7.529-24.469h67.607c58.813,0,106.667-47.854,106.667-106.667c0-25.836-9.604-49.24-24.947-67.717  c13.659-17.685,21.885-38.434,23.945-60.283h33.001c5.896,0,10.667-4.771,10.667-10.667  C512,154.104,507.229,149.333,501.333,149.333z M335.396,427.771c-3.615-1.781-7.969-1.365-11.208,1.094l-33.156,25.375  c-8.708,6.177-13.698,15.552-13.698,25.76c0,17.646,14.354,32,32,32s32-14.354,32-32v-42.667  C341.333,433.271,339.031,429.563,335.396,427.771z"/>
<g>
</g>
<g>
</g>
<g>
</g>
<g>
</g>
<g>
</g>
<g>
</g>
<g>
</g>
<g>
</g>
<g>
</g>
<g>
</g>
<g>
</g>
<g>
</g>
<g>
</g>
<g>
</g>
<g>
</g>
</svg>
