<?xml version="1.0" encoding="iso-8859-1"?>
<!-- Generator: Adobe Illustrator 19.0.0, SVG Export Plug-In . SVG Version: 6.00 Build 0)  -->
<svg xmlns="http://www.w3.org/2000/svg" xmlns:xlink="http://www.w3.org/1999/xlink" version="1.1" id="Capa_1" x="0px" y="0px" viewBox="0 0 512 512" style="enable-background:new 0 0 512 512;" xml:space="preserve">
<path style="fill:#303C42;" d="M58.063,427.771c-3.646-1.823-8-1.396-11.208,1.094l-33.188,25.365C4.979,460.427,0,469.802,0,480  c0,17.646,14.354,32,32,32s32-14.354,32-32v-42.667C64,433.271,61.688,429.573,58.063,427.771z"/>
<path style="fill:#BBDEFB;" d="M42.667,480c0,5.885-4.792,10.667-10.667,10.667S21.333,485.885,21.333,480  c0-4.417,3-7.188,4.792-8.448c0.125-0.083,0.25-0.167,0.354-0.26l16.188-12.375V480z"/>
<path style="fill:#303C42;" d="M271.396,427.771c-3.646-1.823-8-1.396-11.208,1.094L227,454.229  c-8.688,6.198-13.667,15.573-13.667,25.771c0,17.646,14.354,32,32,32s32-14.354,32-32v-42.667  C277.333,433.271,275.021,429.573,271.396,427.771z"/>
<path style="fill:#BBDEFB;" d="M256,480c0,5.885-4.792,10.667-10.667,10.667s-10.667-4.781-10.667-10.667  c0-4.417,3-7.188,4.792-8.448c0.125-0.083,0.25-0.167,0.354-0.26L256,458.917V480z"/>
<path id="SVGCleanerId_0" style="fill:#64B5F6;" d="M64,213.333c0-35.292,28.708-64,64-64c5.896,0,10.667-4.771,10.667-10.667  S133.896,128,128,128c-3.083,0-6.005,0.59-9.005,0.91c9.375-61.255,62.594-107.577,126.339-107.577  c49.551,0,94.48,29.395,115.409,73.835c-5.151,2.376-10.16,5.092-14.919,8.301c-4.885,3.292-6.177,9.917-2.885,14.802  c3.302,4.896,9.927,6.177,14.802,2.885c14.073-9.479,30.531-14.49,47.594-14.49c47.052,0,85.333,38.281,85.333,85.333  s-38.281,85.333-85.333,85.333h-22.577c-6.128-5.986-13.318-10.837-21.201-14.448c-7.246-64.201-61.595-113.552-126.889-113.552  c-47.432,0-90.46,26.492-112.599,67.947c-8.466-2.4-17.188-3.947-26.068-3.947c-11.099,0-21.598,2.268-31.523,5.749  C64.259,217.142,64,215.189,64,213.333z"/>
<path id="SVGCleanerId_1" style="fill:#64B5F6;" d="M330.667,384H96c-41.167,0-74.667-33.5-74.667-74.667s33.5-74.667,74.667-74.667  c17.156,0,33.281,5.656,46.646,16.354c4.635,3.719,11.333,2.948,14.99-1.656c3.688-4.594,2.948-11.313-1.656-14.99  c-4.385-3.514-9.083-6.578-13.987-9.25c18.788-33.302,53.979-54.458,92.674-54.458c51.454,0,94.456,36.908,104.116,86.154  c-2.702-0.297-5.337-0.82-8.116-0.82c-5.896,0-10.667,4.771-10.667,10.667c0,5.896,4.771,10.667,10.667,10.667  c29.406,0,53.333,23.927,53.333,53.333S360.073,384,330.667,384z"/>
<path style="opacity:0.1;enable-background:new    ;" d="M347.693,280.376c15.31,9.853,25.641,27.428,25.641,47.624  c0,30.876-23.927,56-53.333,56h10.667C360.073,384,384,360.073,384,330.667C384,307.247,368.725,287.526,347.693,280.376z"/>
<path style="opacity:0.2;fill:#FFFFFF;enable-background:new    ;" d="M32,309.333c0-39.52,30.965-71.645,69.855-74.18  c-1.956-0.151-3.87-0.487-5.855-0.487c-41.167,0-74.667,33.5-74.667,74.667S54.833,384,96,384h10.667C65.5,384,32,350.5,32,309.333z  "/>
<path style="opacity:0.1;enable-background:new    ;" d="M405.333,106.667c-2.534,0-5.018,0.335-7.52,0.553  c44.464,2.88,79.865,39.6,79.865,84.78c0,45.275-35.548,82.068-80.145,84.809c0.09,0.184,0.221,0.34,0.31,0.525h7.49  c47.052,0,85.333-38.281,85.333-85.333S452.385,106.667,405.333,106.667z"/>
<path style="opacity:0.2;fill:#FFFFFF;enable-background:new    ;" d="M245.333,181.333c26.91,0,51.353,10.259,70.078,26.935  c-19.482-23.025-48.432-37.602-80.745-37.602c-38.695,0-73.887,21.156-92.674,54.458c4.318,2.353,8.391,5.145,12.316,8.146  C173.436,201.483,207.663,181.333,245.333,181.333z"/>
<path style="fill:#303C42;" d="M405.333,85.333c-8.275,0-16.366,1.224-24.289,3.074C357.124,35.29,303.995,0,245.333,0  C168.098,0,104.276,58.389,97.044,134.022c-31.755,12.44-54.378,43.202-54.378,79.311c0,4.918,0.717,9.997,1.783,15.283  C17.802,245.694,0,275.4,0,309.333c0,52.938,43.063,96,96,96h234.667c41.167,0,74.667-33.5,74.667-74.667  c0-11.495-2.828-22.263-7.49-32h7.49C464.146,298.667,512,250.813,512,192S464.146,85.333,405.333,85.333z"/>
<g>
	<path id="SVGCleanerId_1_1_" style="fill:#64B5F6;" d="M330.667,384H96c-41.167,0-74.667-33.5-74.667-74.667   s33.5-74.667,74.667-74.667c17.156,0,33.281,5.656,46.646,16.354c4.635,3.719,11.333,2.948,14.99-1.656   c3.688-4.594,2.948-11.313-1.656-14.99c-4.385-3.514-9.083-6.578-13.987-9.25c18.788-33.302,53.979-54.458,92.674-54.458   c51.454,0,94.456,36.908,104.116,86.154c-2.702-0.297-5.337-0.82-8.116-0.82c-5.896,0-10.667,4.771-10.667,10.667   c0,5.896,4.771,10.667,10.667,10.667c29.406,0,53.333,23.927,53.333,53.333S360.073,384,330.667,384z"/>
</g>
<path style="opacity:0.2;fill:#FFFFFF;enable-background:new    ;" d="M132.299,128.935C145.939,73.135,196.073,32,256,32  c32.173,0,62.267,12.536,85.238,33.393c-23.801-27.299-58.522-44.06-95.905-44.06c-63.745,0-116.964,46.322-126.339,107.577  c3-0.32,5.922-0.91,9.005-0.91C129.538,128,130.98,128.352,132.299,128.935z"/>
<g>
	<path id="SVGCleanerId_0_1_" style="fill:#64B5F6;" d="M64,213.333c0-35.292,28.708-64,64-64c5.896,0,10.667-4.771,10.667-10.667   S133.896,128,128,128c-3.083,0-6.005,0.59-9.005,0.91c9.375-61.255,62.594-107.577,126.339-107.577   c49.551,0,94.48,29.395,115.409,73.835c-5.151,2.376-10.16,5.092-14.919,8.301c-4.885,3.292-6.177,9.917-2.885,14.802   c3.302,4.896,9.927,6.177,14.802,2.885c14.073-9.479,30.531-14.49,47.594-14.49c47.052,0,85.333,38.281,85.333,85.333   s-38.281,85.333-85.333,85.333h-22.577c-6.128-5.986-13.318-10.837-21.201-14.448c-7.246-64.201-61.595-113.552-126.889-113.552   c-47.432,0-90.46,26.492-112.599,67.947c-8.466-2.4-17.188-3.947-26.068-3.947c-11.099,0-21.598,2.268-31.523,5.749   C64.259,217.142,64,215.189,64,213.333z"/>
</g>
<path style="fill:#303C42;" d="M463.396,406.438c-3.667-1.813-8-1.396-11.208,1.094l-33.167,25.375  c-8.708,6.177-13.688,15.552-13.688,25.76c0,17.646,14.354,32,32,32s32-14.354,32-32V416  C469.333,411.938,467.021,408.24,463.396,406.438z"/>
<path style="opacity:0.1;enable-background:new    ;" d="M361.348,287.184c0.819,3.708,1.319,7.533,1.319,11.483  c0,29.406-23.927,53.333-53.333,53.333H74.667c-18.865,0-35.919-7.264-49.078-18.848C35.595,362.605,63.21,384,96,384h234.667  C360.073,384,384,360.073,384,330.667C384,312.699,375.005,296.853,361.348,287.184z"/>
<path style="fill:#BBDEFB;" d="M448,458.667c0,5.885-4.792,10.667-10.667,10.667s-10.667-4.781-10.667-10.667  c0-4.417,3-7.177,4.792-8.427c0.125-0.094,0.229-0.177,0.354-0.271L448,437.594V458.667z"/>
<g>
	<path style="fill:#303C42;" d="M96,512c-1.375,0-2.75-0.26-4.083-0.813c-4.708-1.948-7.375-6.948-6.375-11.948l32-160   c0.646-3.26,2.792-6.031,5.771-7.49c2.979-1.448,6.479-1.448,9.458,0.042l28.979,14.49l8.979-80.792   c0.354-3.198,2.146-6.073,4.854-7.813c2.708-1.729,6.042-2.167,9.125-1.125l64,21.333c5.5,1.823,8.521,7.708,6.813,13.25   l-42.667,138.667c-0.917,3-3.104,5.438-6,6.667c-2.875,1.26-6.167,1.125-8.958-0.26l-34.25-17.125l-58.771,88.167   C102.854,510.292,99.479,512,96,512z"/>
	<path style="fill:#303C42;" d="M330.667,469.333c-17.646,0-32-14.354-32-32c0-10.198,4.979-19.573,13.667-25.771l33.188-25.365   c3.229-2.479,7.563-2.896,11.208-1.094c3.625,1.802,5.938,5.5,5.938,9.563v42.667C362.667,454.979,348.313,469.333,330.667,469.333   z"/>
</g>
<path style="fill:#BBDEFB;" d="M341.333,416.25l-16.188,12.375c-0.104,0.094-0.229,0.177-0.354,0.26  c-1.792,1.26-4.792,4.031-4.792,8.448c0,5.885,4.792,10.667,10.667,10.667s10.667-4.781,10.667-10.667V416.25z"/>
<path style="fill:#303C42;" d="M318.666,420.156h0.209H318.666z"/>
<path style="opacity:0.1;enable-background:new    ;" d="M432.818,111.611C442.348,125.382,448,142.023,448,160  c0,47.052-38.281,85.333-85.333,85.333h-4.766c1.486,5.75,2.973,11.509,3.655,17.552c7.883,3.611,15.073,8.462,21.201,14.448h22.577  c47.052,0,85.333-38.281,85.333-85.333C490.667,154.617,466.348,123.121,432.818,111.611z"/>
<path style="fill:#FFCA28;" d="M135.729,357.115l-18.688,93.438l34.094-51.135c2.99-4.469,8.833-6.042,13.646-3.625l31.406,15.708  l35.896-116.677l-41.594-13.865l-9.208,82.885c-0.385,3.469-2.448,6.531-5.51,8.198c-3.063,1.646-6.74,1.729-9.865,0.167  L135.729,357.115z"/>
<linearGradient id="SVGID_1_" gradientUnits="userSpaceOnUse" x1="-44.8968" y1="636.9507" x2="-23.5996" y2="627.0182" gradientTransform="matrix(21.3333 0 0 -21.3333 996.3334 13791.667)">
	<stop offset="0" style="stop-color:#FFFFFF;stop-opacity:0.2"/>
	<stop offset="1" style="stop-color:#FFFFFF;stop-opacity:0"/>
</linearGradient>
<path style="fill:url(#SVGID_1_);" d="M271.396,427.771c-3.646-1.823-8-1.396-11.208,1.094L227,454.229  c-8.688,6.198-13.667,15.573-13.667,25.771c0,17.646,14.354,32,32,32s32-14.354,32-32v-42.667  C277.333,433.271,275.021,429.573,271.396,427.771z M58.063,427.771c-3.646-1.823-8-1.396-11.208,1.094l-33.188,25.365  C4.979,460.427,0,469.802,0,480c0,17.646,14.354,32,32,32s32-14.354,32-32v-42.667C64,433.271,61.688,429.573,58.063,427.771z   M405.333,85.333c-8.275,0-16.366,1.224-24.289,3.074C357.124,35.29,303.995,0,245.333,0C168.098,0,104.276,58.389,97.044,134.022  c-31.755,12.44-54.378,43.202-54.378,79.311c0,4.918,0.717,9.997,1.783,15.283C17.802,245.694,0,275.4,0,309.333  c0,52.938,43.063,96,96,96h8.323L85.542,499.24c-1,5,1.667,10,6.375,11.948C93.25,511.74,94.625,512,96,512  c3.479,0,6.854-1.708,8.875-4.75l58.771-88.167l34.25,17.125c2.792,1.385,6.083,1.521,8.958,0.26c2.896-1.229,5.083-3.667,6-6.667  l7.529-24.469h100.1l-8.15,6.229c-8.688,6.198-13.667,15.573-13.667,25.771c0,17.646,14.354,32,32,32c17.646,0,32-14.354,32-32  v-39.49c25.134-12.033,42.667-37.505,42.667-67.177c0-11.495-2.828-22.263-7.49-32h7.49C464.146,298.667,512,250.813,512,192  S464.146,85.333,405.333,85.333z M463.396,406.438c-3.667-1.813-8-1.396-11.208,1.094l-33.167,25.375  c-8.708,6.177-13.688,15.552-13.688,25.76c0,17.646,14.354,32,32,32s32-14.354,32-32V416  C469.333,411.938,467.021,408.24,463.396,406.438z"/>
<g>
</g>
<g>
</g>
<g>
</g>
<g>
</g>
<g>
</g>
<g>
</g>
<g>
</g>
<g>
</g>
<g>
</g>
<g>
</g>
<g>
</g>
<g>
</g>
<g>
</g>
<g>
</g>
<g>
</g>
</svg>
