<?xml version="1.0" encoding="iso-8859-1"?>
<!-- Generator: Adobe Illustrator 19.0.0, SVG Export Plug-In . SVG Version: 6.00 Build 0)  -->
<svg xmlns="http://www.w3.org/2000/svg" xmlns:xlink="http://www.w3.org/1999/xlink" version="1.1" id="Capa_1" x="0px" y="0px" viewBox="0 0 512.009 512.009" style="enable-background:new 0 0 512.009 512.009;" xml:space="preserve">
<path style="fill:#303C42;" d="M245.338,64.009c15.458,0,18.979,2.073,24.458,7.552c5.479,5.458,7.542,8.979,7.542,24.448  c0,5.896,4.771,10.667,10.667,10.667s10.667-4.771,10.667-10.667c0-15.469,2.063-18.99,7.542-24.448  c5.479-5.479,9-7.552,24.458-7.552c5.896,0,10.667-4.771,10.667-10.667s-4.771-10.667-10.667-10.667  c-15.458,0-18.979-2.073-24.458-7.552c-5.479-5.458-7.542-8.979-7.542-24.448c0-5.896-4.771-10.667-10.667-10.667  s-10.667,4.771-10.667,10.667c0,15.469-2.063,18.99-7.542,24.448c-5.479,5.479-9,7.552-24.458,7.552  c-5.896,0-10.667,4.771-10.667,10.667S239.442,64.009,245.338,64.009z"/>
<path style="fill:#FFCA28;" d="M284.879,50.227c1.125-1.125,2.167-2.24,3.125-3.354c0.958,1.115,2,2.229,3.125,3.354  c1.125,1.115,2.229,2.156,3.354,3.115c-1.125,0.958-2.229,2-3.354,3.115c-1.125,1.125-2.167,2.24-3.125,3.354  c-0.958-1.115-2-2.229-3.125-3.354c-1.125-1.115-2.229-2.156-3.354-3.115C282.65,52.384,283.754,51.342,284.879,50.227z"/>
<path style="fill:#303C42;" d="M58.067,427.78c-3.646-1.792-8-1.406-11.208,1.094l-33.188,25.365  c-8.688,6.198-13.667,15.573-13.667,25.771c0,17.646,14.354,32,32,32s32-14.354,32-32v-42.667  C64.004,433.28,61.692,429.582,58.067,427.78z"/>
<path style="fill:#BBDEFB;" d="M42.671,480.009c0,5.885-4.792,10.667-10.667,10.667s-10.667-4.781-10.667-10.667  c0-4.417,3-7.188,4.792-8.448c0.125-0.083,0.25-0.167,0.354-0.26l16.187-12.375V480.009z"/>
<path style="fill:#303C42;" d="M335.4,427.78c-3.667-1.792-8-1.406-11.208,1.094l-33.167,25.375  c-8.708,6.177-13.688,15.552-13.688,25.76c0,17.646,14.354,32,32,32c17.646,0,32-14.354,32-32v-42.667  C341.338,433.28,339.025,429.582,335.4,427.78z"/>
<path style="fill:#BBDEFB;" d="M320.004,480.009c0,5.885-4.792,10.667-10.667,10.667s-10.667-4.781-10.667-10.667  c0-4.417,3-7.177,4.792-8.427c0.125-0.094,0.229-0.177,0.354-0.271l16.188-12.375V480.009z"/>
<path style="fill:#303C42;" d="M512.004,144.009c0-64.042-40.427-120.302-102.979-143.344c-3.896-1.448-8.302-0.49-11.229,2.469  c-2.938,2.937-3.906,7.323-2.469,11.229c5.479,14.875,10.01,28.479,10.01,44.312c0,51.69-29.536,97.539-75.645,119.711  c-26.788-43.668-74.725-71.711-127.022-71.711c-76.84,0-140.449,58.299-148.202,133.996c-31.796,12.421-54.465,43.198-54.465,79.337  c0,47.052,38.281,85.333,85.333,85.333h277.333c58.813,0,106.667-47.854,106.667-106.667c0-14.34-2.934-27.987-8.089-40.49  C493.497,228.858,512.004,187.823,512.004,144.009z"/>
<path style="fill:#FFF4D4;" d="M426.671,58.675c0-10.094-1.458-19.323-3.708-28.146c41.771,23.594,67.708,66.094,67.708,113.479  c0,35.964-14.41,69.819-39.785,94.818c-19.212-28.224-51.576-46.818-88.215-46.818c-4.926,0-9.799,0.415-14.618,1.077  C396.339,165.897,426.671,115.213,426.671,58.675z"/>
<path style="fill:#64B5F6;" d="M448.004,298.675c0,47.052-38.271,85.333-85.333,85.333H85.338c-35.292,0-64-28.708-64-64  s28.708-64,64-64c5.896,0,10.667-4.771,10.667-10.667s-4.771-10.667-10.667-10.667c-3.02,0-5.879,0.585-8.819,0.892  c9.805-61.301,62.773-107.559,126.152-107.559c49.551,0,94.474,29.395,115.391,73.837c-5.147,2.374-10.152,5.087-14.911,8.288  c-4.875,3.292-6.188,9.917-2.896,14.813c3.313,4.885,9.938,6.146,14.813,2.896c14.083-9.49,30.563-14.5,47.604-14.5  C409.734,213.342,448.004,251.623,448.004,298.675z"/>
<path style="fill:#303C42;" d="M117.338,469.342c-17.646,0-32-14.354-32-32c0-10.198,4.979-19.573,13.667-25.771l33.187-25.365  c3.208-2.479,7.563-2.896,11.208-1.094c3.625,1.802,5.938,5.5,5.938,9.563v42.667C149.338,454.988,134.984,469.342,117.338,469.342z  "/>
<path style="fill:#BBDEFB;" d="M128.004,416.259l-16.187,12.375c-0.104,0.094-0.229,0.177-0.354,0.26  c-1.792,1.26-4.792,4.031-4.792,8.448c0,5.885,4.792,10.667,10.667,10.667s10.667-4.781,10.667-10.667V416.259z"/>
<path style="fill:#303C42;" d="M105.338,420.165h0.209H105.338z"/>
<path style="opacity:0.1;enable-background:new    ;" d="M411.06,228.519c2.978,8.673,4.944,17.819,4.944,27.49  c0,47.052-38.271,85.333-85.333,85.333H53.338c-11.142,0-21.469-3.116-30.602-8.142c6.102,28.978,31.835,50.809,62.602,50.809  h277.333c47.063,0,85.333-38.281,85.333-85.333C448.004,269.597,433.336,243.933,411.06,228.519z"/>
<path style="opacity:0.1;enable-background:new    ;" d="M479.651,92.315c-2.378,47.688-28.754,88.945-67.392,112.026  c15.512,8.198,28.803,20.056,38.626,34.486c25.375-24.999,39.785-58.854,39.785-94.818  C490.671,125.776,486.757,108.302,479.651,92.315z"/>
<path style="fill:#303C42;" d="M170.671,512.009c-1.375,0-2.75-0.26-4.083-0.813c-4.708-1.948-7.375-6.948-6.375-11.948l32-160  c0.646-3.26,2.792-6.031,5.771-7.49c2.979-1.448,6.479-1.448,9.458,0.042l28.979,14.49l8.979-80.792  c0.354-3.198,2.146-6.073,4.854-7.813c2.688-1.708,6.042-2.177,9.125-1.125l64,21.333c5.5,1.823,8.521,7.708,6.813,13.25  l-42.667,138.667c-0.917,3-3.104,5.438-6,6.667c-2.875,1.26-6.167,1.125-8.958-0.26l-34.25-17.125l-58.771,88.167  C177.525,510.3,174.15,512.009,170.671,512.009z"/>
<path style="fill:#FFCA28;" d="M210.4,357.123l-18.688,93.438l34.094-51.135c2.99-4.469,8.833-6.042,13.646-3.625l31.406,15.708  l35.896-116.677l-41.594-13.865l-9.208,82.885c-0.385,3.469-2.448,6.531-5.51,8.198c-3.063,1.646-6.74,1.729-9.865,0.167  L210.4,357.123z"/>
<linearGradient id="SVGID_1_" gradientUnits="userSpaceOnUse" x1="-44.0698" y1="638.0061" x2="-25.6221" y2="629.4011" gradientTransform="matrix(21.3333 0 0 -21.3333 996.2449 13791.7646)">
	<stop offset="0" style="stop-color:#FFFFFF;stop-opacity:0.2"/>
	<stop offset="1" style="stop-color:#FFFFFF;stop-opacity:0"/>
</linearGradient>
<path style="fill:url(#SVGID_1_);" d="M58.067,427.78c-3.646-1.792-8-1.406-11.208,1.094l-33.188,25.365  c-8.688,6.198-13.667,15.573-13.667,25.771c0,17.646,14.354,32,32,32s32-14.354,32-32v-42.667  C64.004,433.28,61.692,429.582,58.067,427.78z M245.338,64.009c15.458,0,18.979,2.073,24.458,7.552  c5.479,5.458,7.542,8.979,7.542,24.448c0,5.896,4.771,10.667,10.667,10.667s10.667-4.771,10.667-10.667  c0-15.469,2.063-18.99,7.542-24.448c5.479-5.479,9-7.552,24.458-7.552c5.896,0,10.667-4.771,10.667-10.667  s-4.771-10.667-10.667-10.667c-15.458,0-18.979-2.073-24.458-7.552c-5.479-5.458-7.542-8.979-7.542-24.448  c0-5.896-4.771-10.667-10.667-10.667s-10.667,4.771-10.667,10.667c0,15.469-2.063,18.99-7.542,24.448  c-5.479,5.479-9,7.552-24.458,7.552c-5.896,0-10.667,4.771-10.667,10.667S239.442,64.009,245.338,64.009z M335.4,427.78  c-3.667-1.792-8-1.406-11.208,1.094l-33.167,25.375c-8.708,6.177-13.688,15.552-13.688,25.76c0,17.646,14.354,32,32,32  c17.646,0,32-14.354,32-32v-42.667C341.338,433.28,339.025,429.582,335.4,427.78z M512.004,144.009  c0-64.042-40.427-120.302-102.979-143.344c-3.896-1.448-8.302-0.49-11.229,2.469c-2.938,2.937-3.906,7.323-2.469,11.229  c5.479,14.875,10.01,28.479,10.01,44.312c0,51.69-29.536,97.539-75.645,119.711c-26.788-43.668-74.725-71.711-127.022-71.711  c-76.84,0-140.449,58.299-148.202,133.996c-31.796,12.421-54.465,43.198-54.465,79.337c0,47.052,38.281,85.333,85.333,85.333h21.816  l-8.15,6.229c-8.688,6.198-13.667,15.573-13.667,25.771c0,17.646,14.354,32,32,32s32-14.354,32-32v-32h29.656l-18.781,93.906  c-1,5,1.667,10,6.375,11.948c1.333,0.552,2.708,0.813,4.083,0.813c3.479,0,6.854-1.708,8.875-4.75l58.771-88.167l34.25,17.125  c2.792,1.385,6.083,1.521,8.958,0.26c2.896-1.229,5.083-3.667,6-6.667l7.529-24.469h67.617c58.813,0,106.667-47.854,106.667-106.667  c0-14.34-2.934-27.987-8.089-40.49C493.497,228.858,512.004,187.823,512.004,144.009z"/>
<g>
</g>
<g>
</g>
<g>
</g>
<g>
</g>
<g>
</g>
<g>
</g>
<g>
</g>
<g>
</g>
<g>
</g>
<g>
</g>
<g>
</g>
<g>
</g>
<g>
</g>
<g>
</g>
<g>
</g>
</svg>
