<?xml version="1.0" encoding="iso-8859-1"?>
<!-- Generator: Adobe Illustrator 19.0.0, SVG Export Plug-In . SVG Version: 6.00 Build 0)  -->
<svg xmlns="http://www.w3.org/2000/svg" xmlns:xlink="http://www.w3.org/1999/xlink" version="1.1" id="Capa_1" x="0px" y="0px" viewBox="0 0 512 512" style="enable-background:new 0 0 512 512;" xml:space="preserve">
<path style="fill:#303C42;" d="M87.229,431.271C80.25,441.385,64,466.365,64,480c0,17.646,14.354,32,32,32s32-14.354,32-32  c0-13.635-16.25-38.615-23.229-48.729C100.813,425.5,91.188,425.5,87.229,431.271z"/>
<path style="fill:#BBDEFB;" d="M96,490.667c-5.875,0-10.667-4.781-10.667-10.656c0.083-3.26,4.521-12.552,10.667-22.906  c6.146,10.333,10.563,19.625,10.667,22.896C106.667,485.885,101.875,490.667,96,490.667z"/>
<path style="fill:#303C42;" d="M501.333,149.333h-32.54c-2.208-24.352-11.85-46.577-26.686-64.362l23.039-23.023  c4.167-4.156,4.167-10.917,0-15.083s-10.917-4.167-15.083,0l-23.04,23.025c-17.786-14.833-40.008-24.474-64.355-26.682v-32.54  C362.667,4.771,357.896,0,352,0c-5.896,0-10.667,4.771-10.667,10.667V43.52c-23.988,2.217-46.103,11.703-63.992,26.733  l-23.404-23.388c-4.167-4.167-10.917-4.167-15.083,0s-4.167,10.927,0,15.083l23.457,23.441c-6.85,8.303-12.546,17.594-16.995,27.753  c-13.655-4.128-27.966-6.475-42.65-6.475c-76.865,0-140.452,58.292-148.182,133.988C22.674,253.068,0,283.852,0,320  c0,47.052,38.271,85.333,85.333,85.333h88.796c-10.167,19.436-24.796,49.842-24.796,64C149.333,492.865,168.479,512,192,512  s42.667-19.135,42.667-42.667c0-14.158-14.629-44.564-24.796-64H320v24.189l-30.188-17.428c-5.083-2.906-11.625-1.208-14.563,3.906  c-2.958,5.104-1.208,11.625,3.896,14.573L309.331,448l-30.185,17.427c-5.104,2.948-6.854,9.469-3.896,14.573  c1.958,3.427,5.563,5.333,9.229,5.333c1.813,0,3.646-0.458,5.333-1.427L320,466.478v34.855c0,5.896,4.771,10.667,10.667,10.667  c5.896,0,10.667-4.771,10.667-10.667v-34.855l30.188,17.428c1.688,0.969,3.521,1.427,5.333,1.427c3.667,0,7.271-1.906,9.229-5.333  c2.958-5.104,1.208-11.625-3.896-14.573L352.003,448l30.185-17.427c5.104-2.948,6.854-9.469,3.896-14.573  c-2.938-5.125-9.479-6.844-14.563-3.906l-30.188,17.428v-24.189h21.333c58.813,0,106.667-47.854,106.667-106.667  c0-25.836-9.604-49.24-24.947-67.717c13.659-17.685,21.885-38.434,23.945-60.283h33.001c5.896,0,10.667-4.771,10.667-10.667  C512,154.104,507.229,149.333,501.333,149.333z"/>
<path style="fill:#BBDEFB;" d="M192,490.667c-11.771,0-21.333-9.573-21.333-21.333c0-7.25,9.917-29.979,21.333-52.135  c11.417,22.156,21.333,44.885,21.333,52.135C213.333,481.094,203.771,490.667,192,490.667z"/>
<path style="fill:#FFCA28;" d="M429.116,215.9c-18.289-14.716-41.204-23.9-66.449-23.9c-8.275,0-16.366,1.224-24.289,3.074  c-14.939-33.172-41.133-59.332-73.198-74.279C280.576,86.543,314.185,64,352,64c52.938,0,96,43.063,96,96  C448,180.092,441.141,199.474,429.116,215.9z"/>
<path style="fill:#64B5F6;" d="M448,298.667C448,345.719,409.729,384,362.667,384H85.333c-35.292,0-64-28.708-64-64s28.708-64,64-64  C91.229,256,96,251.229,96,245.333c0-5.896-4.771-10.667-10.667-10.667c-3.02,0-5.879,0.585-8.819,0.892  C86.319,174.258,139.288,128,202.667,128c49.551,0,94.474,29.395,115.391,73.837c-5.147,2.374-10.152,5.087-14.911,8.288  c-4.875,3.292-6.188,9.917-2.896,14.813c3.313,4.885,9.938,6.146,14.813,2.896c14.083-9.49,30.563-14.5,47.604-14.5  C409.729,213.333,448,251.615,448,298.667z"/>
<path style="opacity:0.1;enable-background:new    ;" d="M411.056,228.51C414.034,237.184,416,246.329,416,256  c0,47.052-38.271,85.333-85.333,85.333H53.333c-11.142,0-21.469-3.116-30.602-8.142C28.833,362.169,54.566,384,85.333,384h277.333  C409.729,384,448,345.719,448,298.667C448,269.589,433.332,243.924,411.056,228.51z"/>
<linearGradient id="SVGID_1_" gradientUnits="userSpaceOnUse" x1="-43.9876" y1="638.1906" x2="-25.5367" y2="629.5889" gradientTransform="matrix(21.3333 0 0 -21.3333 996.3334 13791.667)">
	<stop offset="0" style="stop-color:#FFFFFF;stop-opacity:0.2"/>
	<stop offset="1" style="stop-color:#FFFFFF;stop-opacity:0"/>
</linearGradient>
<path style="fill:url(#SVGID_1_);" d="M87.229,431.271C80.25,441.385,64,466.365,64,480c0,17.646,14.354,32,32,32s32-14.354,32-32  c0-13.635-16.25-38.615-23.229-48.729C100.813,425.5,91.188,425.5,87.229,431.271z M501.333,149.333h-32.54  c-2.208-24.352-11.85-46.577-26.686-64.362l23.039-23.023c4.167-4.156,4.167-10.917,0-15.083s-10.917-4.167-15.083,0l-23.04,23.025  c-17.786-14.833-40.008-24.474-64.355-26.682v-32.54C362.667,4.771,357.896,0,352,0c-5.896,0-10.667,4.771-10.667,10.667V43.52  c-23.988,2.217-46.103,11.703-63.992,26.733l-23.404-23.388c-4.167-4.167-10.917-4.167-15.083,0s-4.167,10.927,0,15.083  l23.457,23.441c-6.85,8.303-12.546,17.594-16.995,27.753c-13.655-4.128-27.966-6.475-42.65-6.475  c-76.865,0-140.452,58.292-148.182,133.988C22.674,253.068,0,283.852,0,320c0,47.052,38.271,85.333,85.333,85.333h88.796  c-10.167,19.436-24.796,49.842-24.796,64C149.333,492.865,168.479,512,192,512s42.667-19.135,42.667-42.667  c0-14.158-14.629-44.564-24.796-64H320v24.189l-30.188-17.428c-5.083-2.906-11.625-1.208-14.563,3.906  c-2.958,5.104-1.208,11.625,3.896,14.573L309.331,448l-30.185,17.427c-5.104,2.948-6.854,9.469-3.896,14.573  c1.958,3.427,5.563,5.333,9.229,5.333c1.813,0,3.646-0.458,5.333-1.427L320,466.478v34.855c0,5.896,4.771,10.667,10.667,10.667  c5.896,0,10.667-4.771,10.667-10.667v-34.855l30.188,17.428c1.688,0.969,3.521,1.427,5.333,1.427c3.667,0,7.271-1.906,9.229-5.333  c2.958-5.104,1.208-11.625-3.896-14.573L352.003,448l30.185-17.427c5.104-2.948,6.854-9.469,3.896-14.573  c-2.938-5.125-9.479-6.844-14.563-3.906l-30.188,17.428v-24.189h21.333c58.813,0,106.667-47.854,106.667-106.667  c0-25.836-9.604-49.24-24.947-67.717c13.659-17.685,21.885-38.434,23.945-60.283h33.001c5.896,0,10.667-4.771,10.667-10.667  C512,154.104,507.229,149.333,501.333,149.333z"/>
<g>
</g>
<g>
</g>
<g>
</g>
<g>
</g>
<g>
</g>
<g>
</g>
<g>
</g>
<g>
</g>
<g>
</g>
<g>
</g>
<g>
</g>
<g>
</g>
<g>
</g>
<g>
</g>
<g>
</g>
</svg>
