<?xml version="1.0" encoding="iso-8859-1"?>
<!-- Generator: Adobe Illustrator 19.0.0, SVG Export Plug-In . SVG Version: 6.00 Build 0)  -->
<svg xmlns="http://www.w3.org/2000/svg" xmlns:xlink="http://www.w3.org/1999/xlink" version="1.1" id="Capa_1" x="0px" y="0px" viewBox="0 0 512 512" style="enable-background:new 0 0 512 512;" xml:space="preserve">
<path style="fill:#303C42;" d="M55.229,431.271C48.25,441.385,32,466.365,32,480c0,17.646,14.354,32,32,32s32-14.354,32-32  c0-13.635-16.25-38.615-23.229-48.729C68.813,425.5,59.188,425.5,55.229,431.271z"/>
<path style="fill:#BBDEFB;" d="M64,490.667c-5.875,0-10.667-4.781-10.667-10.656c0.083-3.26,4.521-12.552,10.667-22.906  c6.146,10.333,10.563,19.625,10.667,22.896C74.667,485.885,69.875,490.667,64,490.667z"/>
<path style="fill:#303C42;" d="M512,192c0-58.813-47.854-106.667-106.667-106.667c-8.275,0-16.366,1.224-24.289,3.074  C357.124,35.29,303.995,0,245.333,0C168.098,0,104.276,58.389,97.044,134.022c-31.755,12.44-54.378,43.202-54.378,79.311  c0,4.918,0.717,9.997,1.783,15.283C17.802,245.694,0,275.4,0,309.333c0,52.938,43.063,96,96,96h74.667v24.189l-30.188-17.428  c-5.083-2.927-11.625-1.208-14.563,3.906c-2.958,5.104-1.208,11.625,3.896,14.573L159.997,448l-30.185,17.427  c-5.104,2.948-6.854,9.469-3.896,14.573c1.958,3.427,5.563,5.333,9.229,5.333c1.813,0,3.646-0.458,5.333-1.427l30.188-17.428v34.855  c0,5.896,4.771,10.667,10.667,10.667c5.896,0,10.667-4.771,10.667-10.667v-34.855l30.188,17.428  c1.688,0.969,3.521,1.427,5.333,1.427c3.667,0,7.271-1.906,9.229-5.333c2.958-5.104,1.208-11.625-3.896-14.573L202.669,448  l30.185-17.427c5.104-2.948,6.854-9.469,3.896-14.573c-2.938-5.125-9.479-6.833-14.563-3.906L192,429.522v-24.189h110.129  c-10.167,19.436-24.796,49.842-24.796,64C277.333,492.865,296.479,512,320,512c23.521,0,42.667-19.135,42.667-42.667  c0-14.318-14.978-45.293-25.152-64.693c37.919-3.521,67.819-35.152,67.819-73.974c0-11.495-2.828-22.263-7.49-32h7.49  C464.146,298.667,512,250.813,512,192z"/>
<path style="fill:#BBDEFB;" d="M320,490.667c-11.771,0-21.333-9.573-21.333-21.333c0-7.25,9.917-29.979,21.333-52.135  c11.417,22.156,21.333,44.885,21.333,52.135C341.333,481.094,331.771,490.667,320,490.667z"/>
<path style="fill:#303C42;" d="M495.604,405.333c-2.938-5.125-9.479-6.844-14.563-3.906l-11.708,6.76v-13.521  c0-5.896-4.771-10.667-10.667-10.667c-5.896,0-10.667,4.771-10.667,10.667v13.521l-11.708-6.76  c-5.083-2.906-11.625-1.198-14.563,3.906c-2.958,5.104-1.208,11.625,3.896,14.573l11.707,6.76l-11.707,6.76  c-5.104,2.948-6.854,9.469-3.896,14.573c1.958,3.427,5.563,5.333,9.229,5.333c1.813,0,3.646-0.458,5.333-1.427l11.708-6.76v13.521  c0,5.896,4.771,10.667,10.667,10.667c5.896,0,10.667-4.771,10.667-10.667v-13.521l11.708,6.76c1.688,0.969,3.521,1.427,5.333,1.427  c3.667,0,7.271-1.906,9.229-5.333c2.958-5.104,1.208-11.625-3.896-14.573l-11.707-6.76l11.707-6.76  C496.813,416.958,498.563,410.438,495.604,405.333z"/>
<g>
	<path style="fill:#64B5F6;" d="M64,213.333c0-35.292,28.708-64,64-64c5.896,0,10.667-4.771,10.667-10.667S133.896,128,128,128   c-3.083,0-6.005,0.59-9.005,0.91c9.375-61.255,62.594-107.577,126.339-107.577c49.551,0,94.48,29.395,115.409,73.835   c-5.151,2.376-10.16,5.092-14.919,8.301c-4.885,3.292-6.177,9.917-2.885,14.802c3.302,4.896,9.927,6.177,14.802,2.885   c14.073-9.479,30.531-14.49,47.594-14.49c47.052,0,85.333,38.281,85.333,85.333s-38.281,85.333-85.333,85.333h-22.577   c-6.128-5.986-13.318-10.837-21.201-14.448c-7.246-64.201-61.595-113.552-126.889-113.552c-47.432,0-90.46,26.492-112.599,67.947   c-8.466-2.4-17.188-3.947-26.068-3.947c-11.099,0-21.598,2.268-31.523,5.749C64.259,217.142,64,215.189,64,213.333z"/>
	<path style="fill:#64B5F6;" d="M330.667,384H96c-41.167,0-74.667-33.5-74.667-74.667s33.5-74.667,74.667-74.667   c17.156,0,33.281,5.656,46.646,16.354c4.635,3.719,11.333,2.948,14.99-1.656c3.688-4.594,2.948-11.313-1.656-14.99   c-4.385-3.514-9.083-6.578-13.987-9.25c18.788-33.302,53.979-54.458,92.674-54.458c51.454,0,94.456,36.908,104.116,86.154   c-2.702-0.297-5.337-0.82-8.116-0.82c-5.896,0-10.667,4.771-10.667,10.667c0,5.896,4.771,10.667,10.667,10.667   c29.406,0,53.333,23.927,53.333,53.333S360.073,384,330.667,384z"/>
</g>
<path style="opacity:0.1;enable-background:new    ;" d="M432.818,111.611C442.348,125.382,448,142.023,448,160  c0,47.052-38.281,85.333-85.333,85.333h-4.766c1.486,5.75,2.973,11.509,3.655,17.552c7.883,3.611,15.073,8.462,21.201,14.448h22.577  c47.052,0,85.333-38.281,85.333-85.333C490.667,154.617,466.348,123.121,432.818,111.611z"/>
<path style="opacity:0.1;enable-background:new    ;" d="M361.348,287.184c0.819,3.708,1.319,7.533,1.319,11.483  c0,29.406-23.927,53.333-53.333,53.333H74.667c-18.865,0-35.919-7.264-49.078-18.848C35.595,362.605,63.21,384,96,384h234.667  C360.073,384,384,360.073,384,330.667C384,312.699,375.005,296.853,361.348,287.184z"/>
<linearGradient id="SVGID_1_" gradientUnits="userSpaceOnUse" x1="-44.763" y1="637.2376" x2="-22.7708" y2="626.9826" gradientTransform="matrix(21.3333 0 0 -21.3333 996.3334 13791.667)">
	<stop offset="0" style="stop-color:#FFFFFF;stop-opacity:0.2"/>
	<stop offset="1" style="stop-color:#FFFFFF;stop-opacity:0"/>
</linearGradient>
<path style="fill:url(#SVGID_1_);" d="M55.229,431.271C48.25,441.385,32,466.365,32,480c0,17.646,14.354,32,32,32s32-14.354,32-32  c0-13.635-16.25-38.615-23.229-48.729C68.813,425.5,59.188,425.5,55.229,431.271z M512,192c0-58.813-47.854-106.667-106.667-106.667  c-8.275,0-16.366,1.224-24.289,3.074C357.124,35.29,303.995,0,245.333,0C168.098,0,104.276,58.389,97.044,134.022  c-31.755,12.44-54.378,43.202-54.378,79.311c0,4.918,0.717,9.997,1.783,15.283C17.802,245.694,0,275.4,0,309.333  c0,52.938,43.063,96,96,96h74.667v24.189l-30.188-17.428c-5.083-2.927-11.625-1.208-14.563,3.906  c-2.958,5.104-1.208,11.625,3.896,14.573L159.997,448l-30.185,17.427c-5.104,2.948-6.854,9.469-3.896,14.573  c1.958,3.427,5.563,5.333,9.229,5.333c1.813,0,3.646-0.458,5.333-1.427l30.188-17.428v34.855c0,5.896,4.771,10.667,10.667,10.667  c5.896,0,10.667-4.771,10.667-10.667v-34.855l30.188,17.428c1.688,0.969,3.521,1.427,5.333,1.427c3.667,0,7.271-1.906,9.229-5.333  c2.958-5.104,1.208-11.625-3.896-14.573L202.669,448l30.185-17.427c5.104-2.948,6.854-9.469,3.896-14.573  c-2.938-5.125-9.479-6.833-14.563-3.906L192,429.522v-24.189h110.129c-10.167,19.436-24.796,49.842-24.796,64  C277.333,492.865,296.479,512,320,512c23.521,0,42.667-19.135,42.667-42.667c0-14.318-14.978-45.293-25.152-64.693  c37.919-3.521,67.819-35.152,67.819-73.974c0-11.495-2.828-22.263-7.49-32h7.49C464.146,298.667,512,250.813,512,192z   M495.604,405.333c-2.938-5.125-9.479-6.844-14.563-3.906l-11.708,6.76v-13.521c0-5.896-4.771-10.667-10.667-10.667  c-5.896,0-10.667,4.771-10.667,10.667v13.521l-11.708-6.76c-5.083-2.906-11.625-1.198-14.563,3.906  c-2.958,5.104-1.208,11.625,3.896,14.573l11.707,6.76l-11.707,6.76c-5.104,2.948-6.854,9.469-3.896,14.573  c1.958,3.427,5.563,5.333,9.229,5.333c1.813,0,3.646-0.458,5.333-1.427l11.708-6.76v13.521c0,5.896,4.771,10.667,10.667,10.667  c5.896,0,10.667-4.771,10.667-10.667v-13.521l11.708,6.76c1.688,0.969,3.521,1.427,5.333,1.427c3.667,0,7.271-1.906,9.229-5.333  c2.958-5.104,1.208-11.625-3.896-14.573l-11.707-6.76l11.707-6.76C496.813,416.958,498.563,410.438,495.604,405.333z"/>
<g>
</g>
<g>
</g>
<g>
</g>
<g>
</g>
<g>
</g>
<g>
</g>
<g>
</g>
<g>
</g>
<g>
</g>
<g>
</g>
<g>
</g>
<g>
</g>
<g>
</g>
<g>
</g>
<g>
</g>
</svg>
