<?xml version="1.0" encoding="iso-8859-1"?>
<!-- Generator: Adobe Illustrator 19.0.0, SVG Export Plug-In . SVG Version: 6.00 Build 0)  -->
<svg xmlns="http://www.w3.org/2000/svg" xmlns:xlink="http://www.w3.org/1999/xlink" version="1.1" id="Capa_1" x="0px" y="0px" viewBox="0 0 512 512" style="enable-background:new 0 0 512 512;" xml:space="preserve">
<g>
	<path style="fill:#303C42;" d="M512,144c0-64.031-40.417-120.302-102.979-143.344c-3.917-1.406-8.271-0.479-11.229,2.469   c-2.938,2.938-3.896,7.323-2.458,11.229c5.458,14.875,10,28.479,10,44.313c0,51.694-29.53,97.546-75.652,119.716   c-26.796-43.665-74.728-71.716-127.014-71.716c-76.865,0-140.452,58.292-148.182,133.988C22.674,253.068,0,283.852,0,320   c0,47.052,38.271,85.333,85.333,85.333h128v24.189l-30.188-17.428c-5.104-2.927-11.646-1.208-14.563,3.906   c-2.958,5.104-1.208,11.625,3.896,14.573L202.664,448l-30.185,17.427c-5.104,2.948-6.854,9.469-3.896,14.573   c1.958,3.427,5.563,5.333,9.229,5.333c1.813,0,3.646-0.458,5.333-1.427l30.188-17.428v34.855c0,5.896,4.771,10.667,10.667,10.667   c5.896,0,10.667-4.771,10.667-10.667v-34.855l30.188,17.428c1.688,0.969,3.521,1.427,5.333,1.427c3.667,0,7.271-1.906,9.229-5.333   c2.958-5.104,1.208-11.625-3.896-14.573L245.336,448l30.185-17.427c5.104-2.948,6.854-9.469,3.896-14.573   c-2.938-5.135-9.479-6.865-14.563-3.906l-30.188,17.428v-24.189h128c58.813,0,106.667-47.854,106.667-106.667   c0-14.34-2.934-27.987-8.089-40.49C493.492,228.849,512,187.814,512,144z"/>
	<path style="fill:#303C42;" d="M132.938,448c-2.938-5.125-9.5-6.833-14.563-3.906l-11.708,6.76v-13.521   c0-5.896-4.771-10.667-10.667-10.667c-5.896,0-10.667,4.771-10.667,10.667v13.521l-11.708-6.76   c-5.104-2.896-11.646-1.208-14.563,3.906c-2.958,5.104-1.208,11.625,3.896,14.573l11.707,6.76l-11.707,6.76   c-5.104,2.948-6.854,9.469-3.896,14.573c1.958,3.427,5.563,5.333,9.229,5.333c1.813,0,3.646-0.458,5.333-1.427l11.708-6.76v13.521   C85.333,507.229,90.104,512,96,512c5.896,0,10.667-4.771,10.667-10.667v-13.521l11.708,6.76c1.688,0.969,3.521,1.427,5.333,1.427   c3.667,0,7.271-1.906,9.229-5.333c2.958-5.104,1.208-11.625-3.896-14.573l-11.707-6.76l11.707-6.76   C134.146,459.625,135.896,453.104,132.938,448z"/>
	<path style="fill:#303C42;" d="M410.271,448c-2.917-5.125-9.458-6.833-14.563-3.906L384,450.854v-13.521   c0-5.896-4.771-10.667-10.667-10.667s-10.667,4.771-10.667,10.667v13.521l-11.708-6.76c-5.104-2.896-11.625-1.208-14.563,3.906   c-2.958,5.104-1.208,11.625,3.896,14.573l11.707,6.76l-11.707,6.76c-5.104,2.948-6.854,9.469-3.896,14.573   c1.958,3.427,5.563,5.333,9.229,5.333c1.813,0,3.646-0.458,5.333-1.427l11.708-6.76v13.521c0,5.896,4.771,10.667,10.667,10.667   S384,507.229,384,501.333v-13.521l11.708,6.76c1.688,0.969,3.521,1.427,5.333,1.427c3.667,0,7.271-1.906,9.229-5.333   c2.958-5.104,1.208-11.625-3.896-14.573l-11.707-6.76l11.707-6.76C411.479,459.625,413.229,453.104,410.271,448z"/>
	<path style="fill:#303C42;" d="M245.333,64c15.458,0,18.979,2.073,24.458,7.542c5.469,5.479,7.542,9,7.542,24.458   c0,5.896,4.771,10.667,10.667,10.667c5.896,0,10.667-4.771,10.667-10.667c0-15.458,2.073-18.979,7.542-24.458   c5.479-5.469,9-7.542,24.458-7.542c5.896,0,10.667-4.771,10.667-10.667s-4.771-10.667-10.667-10.667   c-15.458,0-18.979-2.073-24.458-7.542c-5.469-5.479-7.542-9-7.542-24.458C298.667,4.771,293.896,0,288,0   c-5.896,0-10.667,4.771-10.667,10.667c0,15.458-2.073,18.979-7.542,24.458c-5.479,5.469-9,7.542-24.458,7.542   c-5.896,0-10.667,4.771-10.667,10.667S239.438,64,245.333,64z"/>
</g>
<g>
	<path style="fill:#FFCA28;" d="M284.875,50.208c1.125-1.125,2.167-2.229,3.125-3.344c0.958,1.115,2,2.219,3.125,3.344   s2.229,2.167,3.344,3.125c-1.115,0.958-2.219,2-3.344,3.125s-2.167,2.229-3.125,3.344c-0.958-1.115-2-2.219-3.125-3.344   s-2.229-2.167-3.344-3.125C282.646,52.375,283.75,51.333,284.875,50.208z"/>
	<path style="fill:#FFCA28;" d="M284.875,51.688c1.125-1.125,2.167-2.229,3.125-3.344c0.958,1.115,2,2.219,3.125,3.344   s2.229,2.167,3.344,3.125c-1.115,0.958-2.219,2-3.344,3.125s-2.167,2.229-3.125,3.344c-0.958-1.115-2-2.219-3.125-3.344   s-2.229-2.167-3.344-3.125C282.646,53.854,283.75,52.813,284.875,51.688z"/>
</g>
<path style="fill:#FFF4D4;" d="M426.667,60.146c0-10.094-1.458-19.323-3.708-28.146c41.771,23.594,67.708,66.094,67.708,113.479  c0,35.964-14.41,69.819-39.785,94.818c-19.212-28.224-51.576-46.818-88.215-46.818c-4.926,0-9.799,0.415-14.618,1.077  C396.335,167.367,426.667,116.684,426.667,60.146z"/>
<path style="fill:#64B5F6;" d="M448,298.667C448,345.719,409.729,384,362.667,384H85.333c-35.292,0-64-28.708-64-64s28.708-64,64-64  C91.229,256,96,251.229,96,245.333c0-5.896-4.771-10.667-10.667-10.667c-3.02,0-5.879,0.585-8.819,0.892  C86.319,174.258,139.288,128,202.667,128c49.551,0,94.474,29.395,115.391,73.837c-5.147,2.374-10.152,5.087-14.911,8.288  c-4.875,3.292-6.188,9.917-2.896,14.813c3.313,4.885,9.938,6.146,14.813,2.896c14.083-9.49,30.563-14.5,47.604-14.5  C409.729,213.333,448,251.615,448,298.667z"/>
<path style="opacity:0.1;enable-background:new    ;" d="M411.056,228.51C414.034,237.184,416,246.329,416,256  c0,47.052-38.271,85.333-85.333,85.333H53.333c-11.142,0-21.469-3.116-30.602-8.142C28.833,362.169,54.566,384,85.333,384h277.333  C409.729,384,448,345.719,448,298.667C448,269.589,433.332,243.924,411.056,228.51z"/>
<path style="opacity:0.1;enable-background:new    ;" d="M479.647,92.306c-2.378,47.688-28.754,88.945-67.392,112.026  c15.512,8.198,28.803,20.056,38.626,34.486c25.375-24.999,39.785-58.854,39.785-94.818  C490.667,125.767,486.753,108.293,479.647,92.306z"/>
<linearGradient id="SVGID_1_" gradientUnits="userSpaceOnUse" x1="-43.7884" y1="638.6177" x2="-24.5875" y2="629.6661" gradientTransform="matrix(21.3333 0 0 -21.3333 996.3334 13791.667)">
	<stop offset="0" style="stop-color:#FFFFFF;stop-opacity:0.2"/>
	<stop offset="1" style="stop-color:#FFFFFF;stop-opacity:0"/>
</linearGradient>
<path style="fill:url(#SVGID_1_);" d="M512,144c0-64.031-40.417-120.302-102.979-143.344c-3.917-1.406-8.271-0.479-11.229,2.469  c-2.938,2.938-3.896,7.323-2.458,11.229c5.458,14.875,10,28.479,10,44.313c0,51.694-29.53,97.546-75.652,119.716  c-26.796-43.665-74.728-71.716-127.014-71.716c-76.865,0-140.452,58.292-148.182,133.988C22.674,253.068,0,283.852,0,320  c0,47.052,38.271,85.333,85.333,85.333h128v24.189l-30.188-17.428c-5.104-2.927-11.646-1.208-14.563,3.906  c-2.958,5.104-1.208,11.625,3.896,14.573L202.664,448l-30.185,17.427c-5.104,2.948-6.854,9.469-3.896,14.573  c1.958,3.427,5.563,5.333,9.229,5.333c1.813,0,3.646-0.458,5.333-1.427l30.188-17.428v34.855c0,5.896,4.771,10.667,10.667,10.667  c5.896,0,10.667-4.771,10.667-10.667v-34.855l30.188,17.428c1.688,0.969,3.521,1.427,5.333,1.427c3.667,0,7.271-1.906,9.229-5.333  c2.958-5.104,1.208-11.625-3.896-14.573L245.336,448l30.185-17.427c5.104-2.948,6.854-9.469,3.896-14.573  c-2.938-5.135-9.479-6.865-14.563-3.906l-30.188,17.428v-24.189h128c58.813,0,106.667-47.854,106.667-106.667  c0-14.34-2.934-27.987-8.089-40.49C493.492,228.849,512,187.814,512,144z M132.938,448c-2.938-5.125-9.5-6.833-14.563-3.906  l-11.708,6.76v-13.521c0-5.896-4.771-10.667-10.667-10.667c-5.896,0-10.667,4.771-10.667,10.667v13.521l-11.708-6.76  c-5.104-2.896-11.646-1.208-14.563,3.906c-2.958,5.104-1.208,11.625,3.896,14.573l11.707,6.76l-11.707,6.76  c-5.104,2.948-6.854,9.469-3.896,14.573c1.958,3.427,5.563,5.333,9.229,5.333c1.813,0,3.646-0.458,5.333-1.427l11.708-6.76v13.521  C85.333,507.229,90.104,512,96,512c5.896,0,10.667-4.771,10.667-10.667v-13.521l11.708,6.76c1.688,0.969,3.521,1.427,5.333,1.427  c3.667,0,7.271-1.906,9.229-5.333c2.958-5.104,1.208-11.625-3.896-14.573l-11.707-6.76l11.707-6.76  C134.146,459.625,135.896,453.104,132.938,448z M410.271,448c-2.917-5.125-9.458-6.833-14.563-3.906L384,450.854v-13.521  c0-5.896-4.771-10.667-10.667-10.667s-10.667,4.771-10.667,10.667v13.521l-11.708-6.76c-5.104-2.896-11.625-1.208-14.563,3.906  c-2.958,5.104-1.208,11.625,3.896,14.573l11.707,6.76l-11.707,6.76c-5.104,2.948-6.854,9.469-3.896,14.573  c1.958,3.427,5.563,5.333,9.229,5.333c1.813,0,3.646-0.458,5.333-1.427l11.708-6.76v13.521c0,5.896,4.771,10.667,10.667,10.667  S384,507.229,384,501.333v-13.521l11.708,6.76c1.688,0.969,3.521,1.427,5.333,1.427c3.667,0,7.271-1.906,9.229-5.333  c2.958-5.104,1.208-11.625-3.896-14.573l-11.707-6.76l11.707-6.76C411.479,459.625,413.229,453.104,410.271,448z M245.333,64  c15.458,0,18.979,2.073,24.458,7.542c5.469,5.479,7.542,9,7.542,24.458c0,5.896,4.771,10.667,10.667,10.667  c5.896,0,10.667-4.771,10.667-10.667c0-15.458,2.073-18.979,7.542-24.458c5.479-5.469,9-7.542,24.458-7.542  c5.896,0,10.667-4.771,10.667-10.667s-4.771-10.667-10.667-10.667c-15.458,0-18.979-2.073-24.458-7.542  c-5.469-5.479-7.542-9-7.542-24.458C298.667,4.771,293.896,0,288,0c-5.896,0-10.667,4.771-10.667,10.667  c0,15.458-2.073,18.979-7.542,24.458c-5.479,5.469-9,7.542-24.458,7.542c-5.896,0-10.667,4.771-10.667,10.667S239.438,64,245.333,64  z"/>
<g>
</g>
<g>
</g>
<g>
</g>
<g>
</g>
<g>
</g>
<g>
</g>
<g>
</g>
<g>
</g>
<g>
</g>
<g>
</g>
<g>
</g>
<g>
</g>
<g>
</g>
<g>
</g>
<g>
</g>
</svg>
