<?xml version="1.0" encoding="iso-8859-1"?>
<!-- Generator: Adobe Illustrator 19.0.0, SVG Export Plug-In . SVG Version: 6.00 Build 0)  -->
<svg xmlns="http://www.w3.org/2000/svg" xmlns:xlink="http://www.w3.org/1999/xlink" version="1.1" id="Capa_1" x="0px" y="0px" viewBox="0 0 512.009 512.009" style="enable-background:new 0 0 512.009 512.009;" xml:space="preserve">
<path style="fill:#303C42;" d="M129.89,431.28c-6.979,10.115-23.219,35.094-23.219,48.729c0,17.646,14.354,32,32,32s32-14.354,32-32  c0-13.635-16.24-38.615-23.219-48.729C143.452,425.509,133.89,425.509,129.89,431.28z"/>
<path style="fill:#BBDEFB;" d="M138.671,490.675c-5.885,0-10.667-4.781-10.667-10.656c0.083-3.26,4.521-12.552,10.667-22.906  c6.135,10.333,10.573,19.625,10.667,22.896C149.338,485.894,144.546,490.675,138.671,490.675z"/>
<path style="fill:#303C42;" d="M512.004,144.009c0-64.042-40.427-120.302-102.979-143.344c-3.906-1.448-8.302-0.49-11.229,2.469  c-2.938,2.937-3.906,7.323-2.469,11.229c5.479,14.875,10.01,28.479,10.01,44.312c0,51.691-29.538,97.544-75.65,119.714  c-26.79-43.665-74.723-71.714-127.017-71.714c-76.845,0-140.443,58.293-148.191,133.992c-31.801,12.417-54.475,43.198-54.475,79.341  c0,47.052,38.281,85.333,85.333,85.333h131.458c-10.161,19.436-24.792,49.842-24.792,64c0,23.531,19.135,42.667,42.667,42.667  s42.667-19.135,42.667-42.667c0-14.158-14.63-44.564-24.792-64h58.671c-6.37,10.888-12.546,23.594-12.546,32  c0,17.646,14.354,32,32,32c17.646,0,32-14.354,32-32c0-8.406-6.176-21.112-12.546-32h12.546  c58.813,0,106.667-47.854,106.667-106.667c0-14.34-2.934-27.987-8.089-40.49C493.497,228.858,512.004,187.823,512.004,144.009z"/>
<g>
	<path style="fill:#BBDEFB;" d="M234.671,490.675c-11.76,0-21.333-9.573-21.333-21.333c0-7.25,9.906-29.979,21.333-52.135   c11.427,22.156,21.333,44.885,21.333,52.135C256.004,481.102,246.431,490.675,234.671,490.675z"/>
	<path style="fill:#BBDEFB;" d="M330.671,448.009c-5.885,0-10.667-4.781-10.667-10.656c0.083-3.26,4.521-12.552,10.667-22.906   c6.135,10.333,10.573,19.625,10.667,22.896C341.338,443.227,336.546,448.009,330.671,448.009z"/>
</g>
<path style="fill:#303C42;" d="M245.338,64.009c15.458,0,18.979,2.073,24.458,7.542c5.469,5.479,7.542,9,7.542,24.458  c0,5.896,4.771,10.667,10.667,10.667s10.667-4.771,10.667-10.667c0-15.458,2.073-18.979,7.542-24.458  c5.479-5.469,9-7.542,24.458-7.542c5.896,0,10.667-4.771,10.667-10.667s-4.771-10.667-10.667-10.667  c-15.458,0-18.979-2.073-24.458-7.542c-5.469-5.479-7.542-9-7.542-24.458c0-5.896-4.771-10.667-10.667-10.667  s-10.667,4.771-10.667,10.667c0,15.458-2.073,18.979-7.542,24.458c-5.479,5.469-9,7.542-24.458,7.542  c-5.896,0-10.667,4.771-10.667,10.667S239.442,64.009,245.338,64.009z"/>
<path style="fill:#FFCA28;" d="M284.879,50.217c1.125-1.125,2.167-2.229,3.125-3.344c0.958,1.115,2,2.219,3.125,3.344  s2.229,2.167,3.344,3.125c-1.115,0.958-2.219,2-3.344,3.125s-2.167,2.229-3.125,3.344c-0.958-1.115-2-2.219-3.125-3.344  s-2.229-2.167-3.344-3.125C282.65,52.384,283.754,51.342,284.879,50.217z"/>
<path style="fill:#FFF4D4;" d="M426.671,58.675c0-10.094-1.458-19.323-3.708-28.146c41.771,23.594,67.708,66.094,67.708,113.479  c0,35.964-14.41,69.819-39.785,94.818c-19.212-28.224-51.576-46.818-88.215-46.818c-4.926,0-9.799,0.415-14.618,1.077  C396.339,165.897,426.671,115.213,426.671,58.675z"/>
<path style="fill:#64B5F6;" d="M448.004,298.675c0,47.052-38.271,85.333-85.333,85.333H85.338c-35.292,0-64-28.708-64-64  s28.708-64,64-64c5.896,0,10.667-4.771,10.667-10.667s-4.771-10.667-10.667-10.667c-3.02,0-5.879,0.585-8.819,0.892  c9.805-61.301,62.773-107.559,126.152-107.559c49.551,0,94.474,29.395,115.391,73.837c-5.147,2.374-10.152,5.087-14.911,8.288  c-4.875,3.292-6.188,9.917-2.896,14.813c3.313,4.885,9.938,6.146,14.813,2.896c14.083-9.49,30.563-14.5,47.604-14.5  C409.734,213.342,448.004,251.623,448.004,298.675z"/>
<path style="opacity:0.1;enable-background:new    ;" d="M411.06,228.519c2.978,8.673,4.944,17.819,4.944,27.49  c0,47.052-38.271,85.333-85.333,85.333H53.338c-11.142,0-21.469-3.116-30.602-8.142c6.102,28.978,31.835,50.809,62.602,50.809  h277.333c47.063,0,85.333-38.281,85.333-85.333C448.004,269.597,433.336,243.933,411.06,228.519z"/>
<path style="opacity:0.1;enable-background:new    ;" d="M479.651,92.315c-2.378,47.688-28.754,88.945-67.392,112.026  c15.512,8.198,28.803,20.056,38.626,34.486c25.375-24.999,39.785-58.854,39.785-94.818  C490.671,125.776,486.757,108.302,479.651,92.315z"/>
<linearGradient id="SVGID_1_" gradientUnits="userSpaceOnUse" x1="-43.624" y1="638.9632" x2="-25.175" y2="630.3596" gradientTransform="matrix(21.3333 0 0 -21.3333 996.2449 13791.7646)">
	<stop offset="0" style="stop-color:#FFFFFF;stop-opacity:0.2"/>
	<stop offset="1" style="stop-color:#FFFFFF;stop-opacity:0"/>
</linearGradient>
<path style="fill:url(#SVGID_1_);" d="M129.89,431.28c-6.979,10.115-23.219,35.094-23.219,48.729c0,17.646,14.354,32,32,32  s32-14.354,32-32c0-13.635-16.24-38.615-23.219-48.729C143.452,425.509,133.89,425.509,129.89,431.28z M512.004,144.009  c0-64.042-40.427-120.302-102.979-143.344c-3.906-1.448-8.302-0.49-11.229,2.469c-2.938,2.937-3.906,7.323-2.469,11.229  c5.479,14.875,10.01,28.479,10.01,44.312c0,51.691-29.538,97.544-75.65,119.714c-26.79-43.665-74.723-71.714-127.017-71.714  c-76.845,0-140.443,58.293-148.191,133.992c-31.801,12.417-54.475,43.198-54.475,79.341c0,47.052,38.281,85.333,85.333,85.333  h131.458c-10.161,19.436-24.792,49.842-24.792,64c0,23.531,19.135,42.667,42.667,42.667s42.667-19.135,42.667-42.667  c0-14.158-14.63-44.564-24.792-64h58.671c-6.37,10.888-12.546,23.594-12.546,32c0,17.646,14.354,32,32,32c17.646,0,32-14.354,32-32  c0-8.406-6.176-21.112-12.546-32h12.546c58.813,0,106.667-47.854,106.667-106.667c0-14.34-2.934-27.987-8.089-40.49  C493.497,228.858,512.004,187.823,512.004,144.009z M245.338,64.009c15.458,0,18.979,2.073,24.458,7.542  c5.469,5.479,7.542,9,7.542,24.458c0,5.896,4.771,10.667,10.667,10.667s10.667-4.771,10.667-10.667  c0-15.458,2.073-18.979,7.542-24.458c5.479-5.469,9-7.542,24.458-7.542c5.896,0,10.667-4.771,10.667-10.667  s-4.771-10.667-10.667-10.667c-15.458,0-18.979-2.073-24.458-7.542c-5.469-5.479-7.542-9-7.542-24.458  c0-5.896-4.771-10.667-10.667-10.667s-10.667,4.771-10.667,10.667c0,15.458-2.073,18.979-7.542,24.458  c-5.479,5.469-9,7.542-24.458,7.542c-5.896,0-10.667,4.771-10.667,10.667S239.442,64.009,245.338,64.009z"/>
<g>
</g>
<g>
</g>
<g>
</g>
<g>
</g>
<g>
</g>
<g>
</g>
<g>
</g>
<g>
</g>
<g>
</g>
<g>
</g>
<g>
</g>
<g>
</g>
<g>
</g>
<g>
</g>
<g>
</g>
</svg>
