<?xml version="1.0" encoding="iso-8859-1"?>
<!-- Generator: Adobe Illustrator 19.0.0, SVG Export Plug-In . SVG Version: 6.00 Build 0)  -->
<svg xmlns="http://www.w3.org/2000/svg" xmlns:xlink="http://www.w3.org/1999/xlink" version="1.1" id="Capa_1" x="0px" y="0px" viewBox="0 0 512 512" style="enable-background:new 0 0 512 512;" xml:space="preserve">
<path style="fill:#303C42;" d="M438.552,346.781c-5.573,9.917-33.365,60.406-33.365,79.885c0,23.531,19.135,42.667,42.667,42.667  s42.667-19.135,42.667-42.667c0-19.479-27.792-69.969-33.365-79.885C453.385,340.052,442.323,340.052,438.552,346.781z"/>
<path style="fill:#BBDEFB;" d="M447.854,448c-11.76,0-21.333-9.573-21.333-21.333c0-7.25,9.906-29.979,21.333-52.135  c11.427,22.156,21.333,44.885,21.333,52.135C469.188,438.427,459.615,448,447.854,448z"/>
<path style="fill:#303C42;" d="M108.552,431.271c-6.979,10.115-23.219,35.094-23.219,48.729c0,17.646,14.354,32,32,32  s32-14.354,32-32c0-13.635-16.24-38.615-23.219-48.729C122.115,425.5,112.552,425.5,108.552,431.271z"/>
<path style="fill:#BBDEFB;" d="M117.333,490.667c-5.885,0-10.667-4.781-10.667-10.656c0.083-3.26,4.521-12.552,10.667-22.906  C123.469,467.438,127.906,476.729,128,480C128,485.885,123.208,490.667,117.333,490.667z"/>
<path style="fill:#303C42;" d="M405.333,330.667c0-11.495-2.828-22.263-7.49-32h7.49C464.146,298.667,512,250.813,512,192  S464.146,85.333,405.333,85.333c-8.276,0-16.366,1.224-24.288,3.073C357.135,35.289,304.005,0,245.333,0  c-77.227,0-141.06,58.392-148.299,134.026c-31.746,12.443-54.367,43.203-54.367,79.307c0,4.926,0.721,10.003,1.789,15.279  C17.806,245.689,0,275.398,0,309.333c0,52.938,43.063,96,96,96h99.458c-10.161,19.436-24.792,49.842-24.792,64  c0,23.531,19.135,42.667,42.667,42.667S256,492.865,256,469.333c0-14.158-14.63-44.564-24.792-64h58.671  c-6.37,10.888-12.546,23.594-12.546,32c0,17.646,14.354,32,32,32s32-14.354,32-32c0-8.406-6.176-21.112-12.546-32h1.879  C371.833,405.333,405.333,371.833,405.333,330.667z"/>
<g>
	<path style="fill:#BBDEFB;" d="M213.333,490.667c-11.76,0-21.333-9.573-21.333-21.333c0-7.25,9.906-29.979,21.333-52.135   c11.427,22.156,21.333,44.885,21.333,52.135C234.667,481.094,225.094,490.667,213.333,490.667z"/>
	<path style="fill:#BBDEFB;" d="M309.333,448c-5.885,0-10.667-4.781-10.667-10.656c0.083-3.26,4.521-12.552,10.667-22.906   c6.135,10.333,10.573,19.625,10.667,22.896C320,443.219,315.208,448,309.333,448z"/>
</g>
<g>
	<path style="fill:#64B5F6;" d="M64,213.333c0-35.292,28.708-64,64-64c5.896,0,10.667-4.771,10.667-10.667S133.896,128,128,128   c-3.083,0-6.005,0.59-9.005,0.91c9.375-61.255,62.594-107.577,126.339-107.577c49.551,0,94.48,29.395,115.409,73.835   c-5.151,2.376-10.16,5.092-14.919,8.301c-4.885,3.292-6.177,9.917-2.885,14.802c3.302,4.896,9.927,6.177,14.802,2.885   c14.073-9.479,30.531-14.49,47.594-14.49c47.052,0,85.333,38.281,85.333,85.333s-38.281,85.333-85.333,85.333h-22.577   c-6.128-5.986-13.318-10.837-21.201-14.448c-7.246-64.201-61.595-113.552-126.889-113.552c-47.432,0-90.46,26.492-112.599,67.947   c-8.466-2.4-17.188-3.947-26.068-3.947c-11.099,0-21.598,2.268-31.523,5.749C64.259,217.142,64,215.189,64,213.333z"/>
	<path style="fill:#64B5F6;" d="M330.667,384H96c-41.167,0-74.667-33.5-74.667-74.667s33.5-74.667,74.667-74.667   c17.156,0,33.281,5.656,46.646,16.354c4.635,3.719,11.333,2.948,14.99-1.656c3.688-4.594,2.948-11.313-1.656-14.99   c-4.385-3.514-9.083-6.578-13.987-9.25c18.788-33.302,53.979-54.458,92.674-54.458c51.454,0,94.456,36.908,104.116,86.154   c-2.702-0.297-5.337-0.82-8.116-0.82c-5.896,0-10.667,4.771-10.667,10.667c0,5.896,4.771,10.667,10.667,10.667   c29.406,0,53.333,23.927,53.333,53.333S360.073,384,330.667,384z"/>
</g>
<path style="opacity:0.1;enable-background:new    ;" d="M432.818,111.611C442.348,125.382,448,142.023,448,160  c0,47.052-38.281,85.333-85.333,85.333h-4.766c1.486,5.75,2.973,11.509,3.655,17.552c7.883,3.611,15.073,8.462,21.201,14.448h22.577  c47.052,0,85.333-38.281,85.333-85.333C490.667,154.617,466.348,123.121,432.818,111.611z"/>
<path style="opacity:0.1;enable-background:new    ;" d="M361.348,287.184c0.819,3.708,1.319,7.533,1.319,11.483  c0,29.406-23.927,53.333-53.333,53.333H74.667c-18.865,0-35.919-7.264-49.078-18.848C35.595,362.605,63.21,384,96,384h234.667  C360.073,384,384,360.073,384,330.667C384,312.699,375.005,296.853,361.348,287.184z"/>
<linearGradient id="SVGID_1_" gradientUnits="userSpaceOnUse" x1="-44.5397" y1="637.7164" x2="-22.9583" y2="627.6532" gradientTransform="matrix(21.3333 0 0 -21.3333 996.3334 13791.667)">
	<stop offset="0" style="stop-color:#FFFFFF;stop-opacity:0.2"/>
	<stop offset="1" style="stop-color:#FFFFFF;stop-opacity:0"/>
</linearGradient>
<path style="fill:url(#SVGID_1_);" d="M438.552,346.781c-5.573,9.917-33.365,60.406-33.365,79.885  c0,23.531,19.135,42.667,42.667,42.667s42.667-19.135,42.667-42.667c0-19.479-27.792-69.969-33.365-79.885  C453.385,340.052,442.323,340.052,438.552,346.781z M108.552,431.271c-6.979,10.115-23.219,35.094-23.219,48.729  c0,17.646,14.354,32,32,32s32-14.354,32-32c0-13.635-16.24-38.615-23.219-48.729C122.115,425.5,112.552,425.5,108.552,431.271z   M405.333,330.667c0-11.495-2.828-22.263-7.49-32h7.49C464.146,298.667,512,250.813,512,192S464.146,85.333,405.333,85.333  c-8.276,0-16.366,1.224-24.288,3.073C357.135,35.289,304.005,0,245.333,0c-77.227,0-141.06,58.392-148.299,134.026  c-31.746,12.443-54.367,43.203-54.367,79.307c0,4.926,0.721,10.003,1.789,15.279C17.806,245.689,0,275.398,0,309.333  c0,52.938,43.063,96,96,96h99.458c-10.161,19.436-24.792,49.842-24.792,64c0,23.531,19.135,42.667,42.667,42.667  S256,492.865,256,469.333c0-14.158-14.63-44.564-24.792-64h58.671c-6.37,10.888-12.546,23.594-12.546,32c0,17.646,14.354,32,32,32  s32-14.354,32-32c0-8.406-6.176-21.112-12.546-32h1.879C371.833,405.333,405.333,371.833,405.333,330.667z"/>
<g>
</g>
<g>
</g>
<g>
</g>
<g>
</g>
<g>
</g>
<g>
</g>
<g>
</g>
<g>
</g>
<g>
</g>
<g>
</g>
<g>
</g>
<g>
</g>
<g>
</g>
<g>
</g>
<g>
</g>
</svg>
