<?xml version="1.0" encoding="iso-8859-1"?>
<!-- Generator: Adobe Illustrator 19.0.0, SVG Export Plug-In . SVG Version: 6.00 Build 0)  -->
<svg xmlns="http://www.w3.org/2000/svg" xmlns:xlink="http://www.w3.org/1999/xlink" version="1.1" id="Capa_1" x="0px" y="0px" viewBox="0 0 512 512" style="enable-background:new 0 0 512 512;" xml:space="preserve">
<path style="fill:#303C42;" d="M263.354,288.521c-4.083,1.333-7.875,2.865-11.583,4.365c-8,3.229-14.313,5.781-22.438,5.781  c-67.646,0-122.667-55.031-122.667-122.667c0-8.125,2.688-14.771,5.792-22.458c1.5-3.698,3.021-7.49,4.354-11.563  c1.25-3.823,0.229-8.021-2.604-10.854c-2.854-2.833-7.021-3.823-10.854-2.594C41.542,148.698,0,202.073,0,261.333  c0,79.406,64.604,144,144,144c59.25,0,112.625-41.531,132.813-103.354c1.25-3.823,0.229-8.01-2.604-10.854  S267.167,287.281,263.354,288.521z"/>
<path style="fill:#FFF4D4;" d="M144,384c-67.646,0-122.667-55.031-122.667-122.667c0-43.531,25.563-82.208,66.792-103.438  c-1.646,5.417-2.792,11.292-2.792,18.104c0,79.406,64.604,144,144,144c6.813,0,12.688-1.146,18.104-2.792  C226.208,358.427,187.542,384,144,384z"/>
<path style="opacity:0.1;enable-background:new    ;" d="M229.333,320c-13.549,0-26.617-2.012-39.057-5.527  c-17.048,10.333-36.41,16.194-56.943,16.194c-49.723,0-92.531-29.784-111.775-72.4c-0.029,1.033-0.225,2.029-0.225,3.066  C21.333,328.969,76.354,384,144,384c43.542,0,82.208-25.573,103.438-66.792C242.021,318.854,236.146,320,229.333,320z"/>
<path style="fill:#303C42;" d="M181.333,192c15.458,0,18.979,2.073,24.458,7.552c5.479,5.458,7.542,8.979,7.542,24.448  c0,5.896,4.771,10.667,10.667,10.667c5.896,0,10.667-4.771,10.667-10.667c0-15.469,2.063-18.99,7.542-24.448  c5.479-5.479,9-7.552,24.458-7.552c5.896,0,10.667-4.771,10.667-10.667c0-5.896-4.771-10.667-10.667-10.667  c-15.458,0-18.979-2.073-24.458-7.552c-5.479-5.458-7.542-8.979-7.542-24.448c0-5.896-4.771-10.667-10.667-10.667  c-5.896,0-10.667,4.771-10.667,10.667c0,15.469-2.063,18.99-7.542,24.448c-5.479,5.479-9,7.552-24.458,7.552  c-5.896,0-10.667,4.771-10.667,10.667C170.667,187.229,175.438,192,181.333,192z"/>
<path style="fill:#FFCA28;" d="M220.875,178.219c1.125-1.125,2.167-2.24,3.125-3.354c0.958,1.115,2,2.229,3.125,3.354  c1.125,1.115,2.229,2.156,3.354,3.115c-1.125,0.958-2.229,2-3.354,3.115c-1.125,1.125-2.167,2.24-3.125,3.354  c-0.958-1.115-2-2.229-3.125-3.354c-1.125-1.115-2.229-2.156-3.354-3.115C218.646,180.375,219.75,179.333,220.875,178.219z"/>
<g>
	<path style="fill:#303C42;" d="M501.333,341.333h-64c-5.896,0-10.667,4.771-10.667,10.667c0,5.896,4.771,10.667,10.667,10.667h64   c5.896,0,10.667-4.771,10.667-10.667C512,346.104,507.229,341.333,501.333,341.333z"/>
	<path style="fill:#303C42;" d="M437.333,320h21.333c5.896,0,10.667-4.771,10.667-10.667s-4.771-10.667-10.667-10.667h-21.333   c-5.896,0-10.667,4.771-10.667,10.667S431.438,320,437.333,320z"/>
	<path style="fill:#303C42;" d="M437.333,277.333h21.333c5.896,0,10.667-4.771,10.667-10.667c0-5.896-4.771-10.667-10.667-10.667   h-21.333c-5.896,0-10.667,4.771-10.667,10.667C426.667,272.563,431.438,277.333,437.333,277.333z"/>
	<path style="fill:#303C42;" d="M501.333,213.333h-64c-5.896,0-10.667,4.771-10.667,10.667c0,5.896,4.771,10.667,10.667,10.667h64   c5.896,0,10.667-4.771,10.667-10.667C512,218.104,507.229,213.333,501.333,213.333z"/>
	<path style="fill:#303C42;" d="M437.333,106.667h64c5.896,0,10.667-4.771,10.667-10.667c0-5.896-4.771-10.667-10.667-10.667h-64   c-5.896,0-10.667,4.771-10.667,10.667C426.667,101.896,431.438,106.667,437.333,106.667z"/>
	<path style="fill:#303C42;" d="M437.333,192h21.333c5.896,0,10.667-4.771,10.667-10.667c0-5.896-4.771-10.667-10.667-10.667   h-21.333c-5.896,0-10.667,4.771-10.667,10.667C426.667,187.229,431.438,192,437.333,192z"/>
	<path style="fill:#303C42;" d="M437.333,149.333h21.333c5.896,0,10.667-4.771,10.667-10.667S464.563,128,458.667,128h-21.333   c-5.896,0-10.667,4.771-10.667,10.667S431.438,149.333,437.333,149.333z"/>
	<path style="fill:#303C42;" d="M405.333,385.406V53.333C405.333,23.927,381.406,0,352,0s-53.333,23.927-53.333,53.333v332.073   c-13.615,13.958-21.333,32.625-21.333,51.927C277.333,478.5,310.833,512,352,512s74.667-33.5,74.667-74.667   C426.667,418.031,418.948,399.365,405.333,385.406z"/>
</g>
<path style="fill:#E6E6E6;" d="M352,490.667c-29.406,0-53.333-23.927-53.333-53.333c0-15.104,6.323-29.125,17.813-39.469  c2.24-2.031,3.521-4.906,3.521-7.927V53.333c0-17.646,14.354-32,32-32c17.646,0,32,14.354,32,32v336.604  c0,3.021,1.281,5.896,3.521,7.927c11.49,10.344,17.813,24.365,17.813,39.469C405.333,466.74,381.406,490.667,352,490.667z"/>
<path style="opacity:0.2;fill:#FFFFFF;enable-background:new    ;" d="M309.333,448c0-15.104,6.323-29.125,17.813-39.469  c2.24-2.031,3.521-4.906,3.521-7.927V64c0-17.646,14.354-32,32-32c6.086,0,11.723,1.801,16.572,4.762  c-5.625-9.21-15.678-15.428-27.238-15.428c-17.646,0-32,14.354-32,32v336.604c0,3.021-1.281,5.896-3.521,7.927  c-11.49,10.344-17.813,24.365-17.813,39.469c0,17.423,8.52,32.779,21.482,42.518C313.451,470.936,309.333,459.983,309.333,448z"/>
<path style="fill:#D32F2F;" d="M362.667,419.275V224c0-5.896-4.771-10.667-10.667-10.667c-5.896,0-10.667,4.771-10.667,10.667  v195.275c-6.259,3.721-10.667,10.258-10.667,18.059c0,11.771,9.563,21.333,21.333,21.333c11.771,0,21.333-9.563,21.333-21.333  C373.333,429.533,368.926,422.996,362.667,419.275z"/>
<linearGradient id="SVGID_1_" gradientUnits="userSpaceOnUse" x1="-44.1883" y1="640.9545" x2="-22.2963" y2="630.7455" gradientTransform="matrix(21.3333 0 0 -21.3333 996.3334 13791.667)">
	<stop offset="0" style="stop-color:#FFFFFF;stop-opacity:0.2"/>
	<stop offset="1" style="stop-color:#FFFFFF;stop-opacity:0"/>
</linearGradient>
<path style="fill:url(#SVGID_1_);" d="M263.354,288.521c-4.083,1.333-7.875,2.865-11.583,4.365c-8,3.229-14.313,5.781-22.438,5.781  c-67.646,0-122.667-55.031-122.667-122.667c0-8.125,2.688-14.771,5.792-22.458c1.5-3.698,3.021-7.49,4.354-11.563  c1.25-3.823,0.229-8.021-2.604-10.854c-2.854-2.833-7.021-3.823-10.854-2.594C41.542,148.698,0,202.073,0,261.333  c0,79.406,64.604,144,144,144c59.25,0,112.625-41.531,132.813-103.354c1.25-3.823,0.229-8.01-2.604-10.854  S267.167,287.281,263.354,288.521z M181.333,192c15.458,0,18.979,2.073,24.458,7.552c5.479,5.458,7.542,8.979,7.542,24.448  c0,5.896,4.771,10.667,10.667,10.667c5.896,0,10.667-4.771,10.667-10.667c0-15.469,2.063-18.99,7.542-24.448  c5.479-5.479,9-7.552,24.458-7.552c5.896,0,10.667-4.771,10.667-10.667c0-5.896-4.771-10.667-10.667-10.667  c-15.458,0-18.979-2.073-24.458-7.552c-5.479-5.458-7.542-8.979-7.542-24.448c0-5.896-4.771-10.667-10.667-10.667  c-5.896,0-10.667,4.771-10.667,10.667c0,15.469-2.063,18.99-7.542,24.448c-5.479,5.479-9,7.552-24.458,7.552  c-5.896,0-10.667,4.771-10.667,10.667C170.667,187.229,175.438,192,181.333,192z M501.333,341.333h-64  c-5.896,0-10.667,4.771-10.667,10.667c0,5.896,4.771,10.667,10.667,10.667h64c5.896,0,10.667-4.771,10.667-10.667  C512,346.104,507.229,341.333,501.333,341.333z M437.333,320h21.333c5.896,0,10.667-4.771,10.667-10.667  s-4.771-10.667-10.667-10.667h-21.333c-5.896,0-10.667,4.771-10.667,10.667S431.438,320,437.333,320z M437.333,277.333h21.333  c5.896,0,10.667-4.771,10.667-10.667c0-5.896-4.771-10.667-10.667-10.667h-21.333c-5.896,0-10.667,4.771-10.667,10.667  C426.667,272.563,431.438,277.333,437.333,277.333z M501.333,213.333h-64c-5.896,0-10.667,4.771-10.667,10.667  c0,5.896,4.771,10.667,10.667,10.667h64c5.896,0,10.667-4.771,10.667-10.667C512,218.104,507.229,213.333,501.333,213.333z   M437.333,106.667h64c5.896,0,10.667-4.771,10.667-10.667c0-5.896-4.771-10.667-10.667-10.667h-64  c-5.896,0-10.667,4.771-10.667,10.667C426.667,101.896,431.438,106.667,437.333,106.667z M437.333,192h21.333  c5.896,0,10.667-4.771,10.667-10.667c0-5.896-4.771-10.667-10.667-10.667h-21.333c-5.896,0-10.667,4.771-10.667,10.667  C426.667,187.229,431.438,192,437.333,192z M437.333,149.333h21.333c5.896,0,10.667-4.771,10.667-10.667S464.563,128,458.667,128  h-21.333c-5.896,0-10.667,4.771-10.667,10.667S431.438,149.333,437.333,149.333z M405.333,53.333C405.333,23.927,381.406,0,352,0  s-53.333,23.927-53.333,53.333v332.073c-13.615,13.958-21.333,32.625-21.333,51.927C277.333,478.5,310.833,512,352,512  s74.667-33.5,74.667-74.667c0-19.302-7.719-37.969-21.333-51.927V53.333z"/>
<g>
</g>
<g>
</g>
<g>
</g>
<g>
</g>
<g>
</g>
<g>
</g>
<g>
</g>
<g>
</g>
<g>
</g>
<g>
</g>
<g>
</g>
<g>
</g>
<g>
</g>
<g>
</g>
<g>
</g>
</svg>
