<?xml version="1.0" encoding="iso-8859-1"?>
<!-- Generator: Adobe Illustrator 19.0.0, SVG Export Plug-In . SVG Version: 6.00 Build 0)  -->
<svg xmlns="http://www.w3.org/2000/svg" xmlns:xlink="http://www.w3.org/1999/xlink" version="1.1" id="Capa_1" x="0px" y="0px" viewBox="0 0 512 512" style="enable-background:new 0 0 512 512;" xml:space="preserve">
<path style="fill:#303C42;" d="M444.872,45.777c-3.25-3.25-8.188-4.042-12.313-2l-119.167,59.585L254.476,5.161  c-2.354-3.938-7-5.865-11.458-4.927c-4.479,0.99-7.813,4.74-8.292,9.302l-19.729,187.36l-92.896-46.449  c-3.104-1.563-6.75-1.51-9.813,0.135c-3.042,1.635-5.104,4.646-5.542,8.084L64.08,500.01c-0.604,4.854,2.167,9.5,6.729,11.271  c1.25,0.49,2.563,0.719,3.854,0.719c3.396,0,6.666-1.615,8.708-4.511l123.25-174.62l77.625,29.116  c5.146,1.938,10.854-0.333,13.292-5.219L446.872,58.09C448.934,53.986,448.122,49.027,444.872,45.777z"/>
<path style="fill:#FFCA28;" d="M282.747,338.64l-76.333-28.636c-4.542-1.708-9.667-0.125-12.458,3.833L90.538,460.353l35.5-284.082  l93.188,46.595c3.146,1.573,6.813,1.479,9.896-0.188c3.063-1.677,5.125-4.761,5.479-8.24l18-170.943l47.583,79.315  c2.854,4.761,8.938,6.5,13.917,4.052l99.375-49.689L282.747,338.64z"/>
<polygon style="opacity:0.2;fill:#FFFFFF;enable-background:new    ;" points="181.33,202.667 126.038,176.271 90.538,460.353   110.132,432.592 "/>
<polygon style="opacity:0.1;enable-background:new    ;" points="330.663,117.333 276.047,336.128 282.747,338.641 413.476,77.173   "/>
<path style="fill:#FFCA28;" d="M217.749,310.004c-2.591-1.297-5.424-0.681-7.561,1.415l41.818,15.689L217.749,310.004z"/>
<linearGradient id="SVGID_1_" gradientUnits="userSpaceOnUse" x1="-42.602" y1="637.168" x2="-31.2902" y2="631.8931" gradientTransform="matrix(21.3333 0 0 -21.3333 996.3333 13791.667)">
	<stop offset="0" style="stop-color:#FFFFFF;stop-opacity:0.2"/>
	<stop offset="1" style="stop-color:#FFFFFF;stop-opacity:0"/>
</linearGradient>
<path style="fill:url(#SVGID_1_);" d="M444.872,45.777c-3.25-3.25-8.188-4.042-12.313-2l-119.167,59.585L254.476,5.161  c-2.354-3.938-7-5.865-11.458-4.927c-4.479,0.99-7.813,4.74-8.292,9.302l-19.729,187.36l-92.896-46.449  c-3.104-1.563-6.75-1.51-9.813,0.135c-3.042,1.635-5.104,4.646-5.542,8.084L64.08,500.01c-0.604,4.854,2.167,9.5,6.729,11.271  c1.25,0.49,2.563,0.719,3.854,0.719c3.396,0,6.666-1.615,8.708-4.511l123.25-174.62l77.625,29.116  c5.146,1.938,10.854-0.333,13.292-5.219L446.872,58.09C448.934,53.986,448.122,49.027,444.872,45.777z"/>
<g>
</g>
<g>
</g>
<g>
</g>
<g>
</g>
<g>
</g>
<g>
</g>
<g>
</g>
<g>
</g>
<g>
</g>
<g>
</g>
<g>
</g>
<g>
</g>
<g>
</g>
<g>
</g>
<g>
</g>
</svg>
