<?xml version="1.0" encoding="iso-8859-1"?>
<!-- Generator: Adobe Illustrator 19.0.0, SVG Export Plug-In . SVG Version: 6.00 Build 0)  -->
<svg xmlns="http://www.w3.org/2000/svg" xmlns:xlink="http://www.w3.org/1999/xlink" version="1.1" id="Capa_1" x="0px" y="0px" viewBox="0 0 512 512" style="enable-background:new 0 0 512 512;" xml:space="preserve">
<path style="fill:#303C42;" d="M490.667,85.333c0-5.896-4.771-10.667-10.667-10.667c-5.896,0-10.667,4.771-10.667,10.667  c0,9.734-9.582,19.826-26.508,29.053C446.128,96.328,448,76.206,448,53.333C448,11.229,313.896,0,234.667,0  S21.333,11.229,21.333,53.333c0,22.552,20.125,39.969,43.438,60.146C94.396,139.135,128,168.219,128,213.333  c0,39.833-9.688,56.771-19.938,74.708c-10.68,18.708-21.604,38.281-22.548,79.728c-26.965-10.297-42.848-24.068-42.848-37.103  c0-11.219,12.271-23.281,33.688-33.104c5.354-2.458,7.688-8.792,5.229-14.146c-2.458-5.375-8.771-7.688-14.146-5.25  c-29.729,13.656-46.104,32.302-46.104,52.5c0,25.246,25.135,46.745,65.154,60.115c10.135,79.161,86.594,118.353,90.076,120.094  c1.5,0.75,3.146,1.125,4.771,1.125c1.688,0,3.354-0.396,4.896-1.188c3.021-1.573,5.125-4.49,5.646-7.854  c6.146-39.926,15.876-72.104,27.974-99.023C297.103,397.368,352,368.065,352,330.667c0-8.344-2.813-16.521-8.375-24.323  c-3.417-4.813-10.083-5.906-14.875-2.5c-4.792,3.417-5.917,10.083-2.5,14.875c2.938,4.115,4.417,8.135,4.417,11.948  c0,20.525-39.154,42.949-99.443,50.599c27.764-49.395,64.44-78.689,100.401-107.297c43.535-34.633,85.194-68.021,104.736-132.846  C469.324,127.188,490.667,108.529,490.667,85.333z"/>
<path style="fill:#E6E6E6;" d="M234.667,21.333c117.479,0,186.708,20.635,191.896,32c-5.188,11.365-74.417,32-191.896,32  c-118.069,0-187.32-20.824-191.917-31.48c-0.004-0.096-0.046-0.197-0.047-0.292C47.053,42.241,116.366,21.333,234.667,21.333z"/>
<path style="opacity:0.1;enable-background:new    ;" d="M261.385,48.052c66.88,0,118.057,6.69,150.749,14.548  c8.241-3.344,13.197-6.569,14.428-9.267c-5.188-11.365-74.417-32-191.896-32c-118.301,0-187.613,20.908-191.964,32.228  c0.001,0.095,0.043,0.195,0.047,0.292c1.987,4.605,16.104,11.108,40.967,17.01C110.06,60.104,171.552,48.052,261.385,48.052z"/>
<g>
	<path style="fill:#F2F2F2;" d="M173.438,484.073c-19.185-12.967-54.169-42.289-63.97-86.87c22.81,5.193,48.927,8.13,77.199,8.13   c3.24,0,6.38-0.129,9.563-0.204C186.91,427.805,179.069,453.71,173.438,484.073z"/>
	<path style="fill:#F2F2F2;" d="M318.354,257.271c-39.152,31.145-81.758,65.076-112.376,126.176   c-6.292,0.327-12.691,0.553-19.311,0.553c-30.495,0-57.586-3.668-79.889-9.49c-0.004-0.409-0.111-0.766-0.111-1.177   c0-39.833,9.688-56.771,19.938-74.708c11.167-19.563,22.729-39.792,22.729-85.292c0-54.865-39.146-88.75-70.604-115.99   c-3.23-2.797-6.384-5.553-9.465-8.288c46.273,13.281,116.333,17.611,165.402,17.611c59.355,0,149.497-6.305,190.991-27.171   c-1.211,16.867-3.581,31.98-6.992,45.585C380.229,139.19,322.805,149.333,256,149.333c-25.167,0-49.875-1.406-73.438-4.177   c-6.021-0.698-11.167,3.49-11.833,9.344c-0.708,5.854,3.479,11.156,9.333,11.844c24.396,2.865,49.938,4.323,75.938,4.323   c54.633,0,110.772-6.966,154.516-20.273C391.155,199.13,356.517,226.911,318.354,257.271z"/>
</g>
<g style="opacity:0.5;">
	<g>
		<path style="fill:#FFFFFF;" d="M193.6,405.333c0.872,0,1.715-0.044,2.574-0.063c0.018-0.046,0.036-0.096,0.055-0.142    c-1.49,0.035-2.991,0.056-4.477,0.096C192.393,405.229,192.957,405.333,193.6,405.333z"/>
		<path style="fill:#FFFFFF;" d="M126.064,400.447c-5.691-0.961-11.253-2.027-16.596-3.243c9.801,44.581,44.785,73.902,63.97,86.87    c0.375-2.025,0.84-3.87,1.234-5.855C157.757,463.699,134.342,437.493,126.064,400.447z"/>
	</g>
	<g>
		<path style="fill:#F2F2F2;" d="M193.6,405.333c0.872,0,1.715-0.044,2.574-0.063c0.018-0.046,0.036-0.096,0.055-0.142    c-1.49,0.035-2.991,0.056-4.477,0.096C192.393,405.229,192.957,405.333,193.6,405.333z"/>
		<path style="fill:#F2F2F2;" d="M126.064,400.447c-5.691-0.961-11.253-2.027-16.596-3.243c9.801,44.581,44.785,73.902,63.97,86.87    c0.375-2.025,0.84-3.87,1.234-5.855C157.757,463.699,134.342,437.493,126.064,400.447z"/>
	</g>
</g>
<path style="opacity:0.5;fill:#FFFFFF;enable-background:new    ;" d="M140.388,306.301c9.893-20.247,20.137-41.186,20.137-88.28  c0-56.786-34.681-91.858-62.551-120.052c-0.98-0.991-1.906-1.956-2.871-2.938c-9.104-1.773-17.906-3.699-25.839-5.975  c3.081,2.734,6.234,5.491,9.465,8.288c31.458,27.24,70.604,61.125,70.604,115.99c0,45.5-11.563,65.729-22.729,85.292  c-10.25,17.938-19.938,34.875-19.938,74.708c0,0.411,0.107,0.768,0.111,1.177c5.098,1.331,10.514,2.514,16.096,3.602  C123.638,340.964,131.742,323.977,140.388,306.301z"/>
<path style="opacity:0.1;enable-background:new    ;" d="M404.604,87.586c-1.398,14.831-4.052,31.868-6.487,44.031  c7.273-2.072,14.253-4.225,20.548-6.536c3.411-13.604,5.781-28.717,6.992-45.585C419.651,82.517,412.409,85.151,404.604,87.586z"/>
<path style="opacity:0.1;enable-background:new    ;" d="M310.268,263.497c-0.603,0.561-1.22,1.145-1.826,1.707  c3.314-2.658,6.637-5.328,9.911-7.934c38.163-30.359,72.801-58.141,92.161-106.878c-6.125,1.863-12.98,3.305-19.553,4.918  C373.651,204.184,343.505,232.608,310.268,263.497z"/>
<linearGradient id="SVGID_1_" gradientUnits="userSpaceOnUse" x1="-47.3101" y1="640.7401" x2="-28.4389" y2="631.94" gradientTransform="matrix(21.3333 0 0 -21.3333 996.3334 13791.667)">
	<stop offset="0" style="stop-color:#FFFFFF;stop-opacity:0.2"/>
	<stop offset="1" style="stop-color:#FFFFFF;stop-opacity:0"/>
</linearGradient>
<path style="fill:url(#SVGID_1_);" d="M490.667,85.333c0-5.896-4.771-10.667-10.667-10.667c-5.896,0-10.667,4.771-10.667,10.667  c0,9.734-9.582,19.826-26.508,29.053C446.128,96.328,448,76.206,448,53.333C448,11.229,313.896,0,234.667,0  S21.333,11.229,21.333,53.333c0,22.552,20.125,39.969,43.438,60.146C94.396,139.135,128,168.219,128,213.333  c0,39.833-9.688,56.771-19.938,74.708c-10.68,18.708-21.604,38.281-22.548,79.728c-26.965-10.297-42.848-24.068-42.848-37.103  c0-11.219,12.271-23.281,33.688-33.104c5.354-2.458,7.688-8.792,5.229-14.146c-2.458-5.375-8.771-7.688-14.146-5.25  c-29.729,13.656-46.104,32.302-46.104,52.5c0,25.246,25.135,46.745,65.154,60.115c10.135,79.161,86.594,118.353,90.076,120.094  c1.5,0.75,3.146,1.125,4.771,1.125c1.688,0,3.354-0.396,4.896-1.188c3.021-1.573,5.125-4.49,5.646-7.854  c6.146-39.926,15.876-72.104,27.974-99.023C297.103,397.368,352,368.065,352,330.667c0-8.344-2.813-16.521-8.375-24.323  c-3.417-4.813-10.083-5.906-14.875-2.5c-4.792,3.417-5.917,10.083-2.5,14.875c2.938,4.115,4.417,8.135,4.417,11.948  c0,20.525-39.154,42.949-99.443,50.599c27.764-49.395,64.44-78.689,100.401-107.297c43.535-34.633,85.194-68.021,104.736-132.846  C469.324,127.188,490.667,108.529,490.667,85.333z"/>
<g>
</g>
<g>
</g>
<g>
</g>
<g>
</g>
<g>
</g>
<g>
</g>
<g>
</g>
<g>
</g>
<g>
</g>
<g>
</g>
<g>
</g>
<g>
</g>
<g>
</g>
<g>
</g>
<g>
</g>
</svg>
