<?xml version="1.0" encoding="iso-8859-1"?>
<!-- Generator: Adobe Illustrator 19.0.0, SVG Export Plug-In . SVG Version: 6.00 Build 0)  -->
<svg xmlns="http://www.w3.org/2000/svg" xmlns:xlink="http://www.w3.org/1999/xlink" version="1.1" id="Capa_1" x="0px" y="0px" viewBox="0 0 512 512" style="enable-background:new 0 0 512 512;" xml:space="preserve">
<path style="fill:#303C42;" d="M501.333,149.333h-32.54c-2.208-24.352-11.85-46.577-26.686-64.362l23.039-23.023  c4.167-4.156,4.167-10.917,0-15.083s-10.917-4.167-15.083,0l-23.04,23.025c-17.786-14.833-40.008-24.474-64.355-26.682v-32.54  C362.667,4.771,357.896,0,352,0c-5.896,0-10.667,4.771-10.667,10.667V43.52c-23.988,2.217-46.103,11.703-63.992,26.733  l-23.404-23.388c-4.167-4.167-10.917-4.167-15.083,0s-4.167,10.927,0,15.083l23.457,23.441c-6.85,8.303-12.546,17.594-16.995,27.753  c-13.655-4.128-27.966-6.475-42.65-6.475c-76.865,0-140.452,58.292-148.182,133.988C22.674,253.068,0,283.852,0,320  c0,47.052,38.271,85.333,85.333,85.333h43.15l-8.15,6.229c-8.688,6.198-13.667,15.573-13.667,25.771c0,17.646,14.354,32,32,32  s32-14.354,32-32v-32h128.509l-8.155,6.24c-8.708,6.177-13.688,15.552-13.688,25.76c0,17.646,14.354,32,32,32s32-14.354,32-32v-32  h21.333c58.813,0,106.667-47.854,106.667-106.667c0-25.836-9.604-49.24-24.947-67.717c13.659-17.685,21.885-38.434,23.945-60.283  h33.001c5.896,0,10.667-4.771,10.667-10.667C512,154.104,507.229,149.333,501.333,149.333z"/>
<g>
	<path style="fill:#BBDEFB;" d="M149.333,437.333c0,5.885-4.792,10.667-10.667,10.667S128,443.219,128,437.333   c0-4.417,3-7.188,4.792-8.448c0.125-0.083,0.25-0.167,0.354-0.26l16.188-12.375V437.333z"/>
	<path style="fill:#BBDEFB;" d="M320,437.333c0,5.885-4.792,10.667-10.667,10.667s-10.667-4.781-10.667-10.667   c0-4.417,3-7.177,4.792-8.427c0.125-0.094,0.229-0.177,0.354-0.271L320,416.26V437.333z"/>
</g>
<path style="fill:#303C42;" d="M79.396,427.771c-3.646-1.813-8-1.396-11.208,1.094L35,454.229  c-8.688,6.198-13.667,15.573-13.667,25.771c0,17.646,14.354,32,32,32s32-14.354,32-32v-42.667  C85.333,433.271,83.021,429.573,79.396,427.771z"/>
<path style="fill:#BBDEFB;" d="M64,480c0,5.885-4.792,10.667-10.667,10.667S42.667,485.885,42.667,480c0-4.417,3-7.188,4.792-8.448  c0.125-0.083,0.25-0.167,0.354-0.26L64,458.917V480z"/>
<path style="fill:#303C42;" d="M250.063,427.771c-3.667-1.813-8-1.396-11.208,1.094l-33.188,25.365  C196.979,460.427,192,469.802,192,480c0,17.646,14.354,32,32,32s32-14.354,32-32v-42.667  C256,433.271,253.688,429.573,250.063,427.771z"/>
<path style="fill:#BBDEFB;" d="M234.667,480c0,5.885-4.792,10.667-10.667,10.667s-10.667-4.781-10.667-10.667  c0-4.417,3-7.188,4.792-8.448c0.125-0.083,0.25-0.167,0.354-0.26l16.188-12.375V480z"/>
<path style="fill:#FFCA28;" d="M429.116,215.9c-18.289-14.716-41.204-23.9-66.449-23.9c-8.275,0-16.366,1.224-24.289,3.074  c-14.939-33.172-41.133-59.332-73.198-74.279C280.576,86.543,314.185,64,352,64c52.938,0,96,43.063,96,96  C448,180.092,441.141,199.474,429.116,215.9z"/>
<path style="fill:#64B5F6;" d="M448,298.667C448,345.719,409.729,384,362.667,384H85.333c-35.292,0-64-28.708-64-64s28.708-64,64-64  C91.229,256,96,251.229,96,245.333c0-5.896-4.771-10.667-10.667-10.667c-3.02,0-5.879,0.585-8.819,0.892  C86.319,174.258,139.288,128,202.667,128c49.551,0,94.474,29.395,115.391,73.837c-5.147,2.374-10.152,5.087-14.911,8.288  c-4.875,3.292-6.188,9.917-2.896,14.813c3.313,4.885,9.938,6.146,14.813,2.896c14.083-9.49,30.563-14.5,47.604-14.5  C409.729,213.333,448,251.615,448,298.667z"/>
<path style="opacity:0.1;enable-background:new    ;" d="M411.056,228.51C414.034,237.184,416,246.329,416,256  c0,47.052-38.271,85.333-85.333,85.333H53.333c-11.142,0-21.469-3.116-30.602-8.142C28.833,362.169,54.566,384,85.333,384h277.333  C409.729,384,448,345.719,448,298.667C448,269.589,433.332,243.924,411.056,228.51z"/>
<linearGradient id="SVGID_1_" gradientUnits="userSpaceOnUse" x1="-44.1652" y1="637.8083" x2="-25.7157" y2="629.2051" gradientTransform="matrix(21.3333 0 0 -21.3333 996.3334 13791.667)">
	<stop offset="0" style="stop-color:#FFFFFF;stop-opacity:0.2"/>
	<stop offset="1" style="stop-color:#FFFFFF;stop-opacity:0"/>
</linearGradient>
<path style="fill:url(#SVGID_1_);" d="M501.333,149.333h-32.54c-2.208-24.352-11.85-46.577-26.686-64.362l23.039-23.023  c4.167-4.156,4.167-10.917,0-15.083s-10.917-4.167-15.083,0l-23.04,23.025c-17.786-14.833-40.008-24.474-64.355-26.682v-32.54  C362.667,4.771,357.896,0,352,0c-5.896,0-10.667,4.771-10.667,10.667V43.52c-23.988,2.217-46.103,11.703-63.992,26.733  l-23.404-23.388c-4.167-4.167-10.917-4.167-15.083,0s-4.167,10.927,0,15.083l23.457,23.441c-6.85,8.303-12.546,17.594-16.995,27.753  c-13.655-4.128-27.966-6.475-42.65-6.475c-76.865,0-140.452,58.292-148.182,133.988C22.674,253.068,0,283.852,0,320  c0,47.052,38.271,85.333,85.333,85.333h43.15l-8.15,6.229c-8.688,6.198-13.667,15.573-13.667,25.771c0,17.646,14.354,32,32,32  s32-14.354,32-32v-32h128.509l-8.155,6.24c-8.708,6.177-13.688,15.552-13.688,25.76c0,17.646,14.354,32,32,32s32-14.354,32-32v-32  h21.333c58.813,0,106.667-47.854,106.667-106.667c0-25.836-9.604-49.24-24.947-67.717c13.659-17.685,21.885-38.434,23.945-60.283  h33.001c5.896,0,10.667-4.771,10.667-10.667C512,154.104,507.229,149.333,501.333,149.333z M79.396,427.771  c-3.646-1.813-8-1.396-11.208,1.094L35,454.229c-8.688,6.198-13.667,15.573-13.667,25.771c0,17.646,14.354,32,32,32s32-14.354,32-32  v-42.667C85.333,433.271,83.021,429.573,79.396,427.771z M250.063,427.771c-3.667-1.813-8-1.396-11.208,1.094l-33.188,25.365  C196.979,460.427,192,469.802,192,480c0,17.646,14.354,32,32,32s32-14.354,32-32v-42.667  C256,433.271,253.688,429.573,250.063,427.771z"/>
<g>
</g>
<g>
</g>
<g>
</g>
<g>
</g>
<g>
</g>
<g>
</g>
<g>
</g>
<g>
</g>
<g>
</g>
<g>
</g>
<g>
</g>
<g>
</g>
<g>
</g>
<g>
</g>
<g>
</g>
</svg>
