<?xml version="1.0" encoding="iso-8859-1"?>
<!-- Generator: Adobe Illustrator 19.0.0, SVG Export Plug-In . SVG Version: 6.00 Build 0)  -->
<svg xmlns="http://www.w3.org/2000/svg" xmlns:xlink="http://www.w3.org/1999/xlink" version="1.1" id="Capa_1" x="0px" y="0px" viewBox="0 0 512 512" style="enable-background:new 0 0 512 512;" xml:space="preserve">
<path style="fill:#303C42;" d="M79.396,427.771c-3.646-1.823-8-1.396-11.208,1.094L35,454.229  c-8.688,6.198-13.667,15.573-13.667,25.771c0,17.646,14.354,32,32,32s32-14.354,32-32v-42.667  C85.333,433.271,83.021,429.573,79.396,427.771z"/>
<path style="fill:#BBDEFB;" d="M64,480c0,5.885-4.792,10.667-10.667,10.667S42.667,485.885,42.667,480c0-4.417,3-7.188,4.792-8.448  c0.125-0.083,0.25-0.167,0.354-0.26L64,458.917V480z"/>
<path style="fill:#303C42;" d="M250.063,427.771c-3.667-1.823-8-1.396-11.208,1.094l-33.188,25.365  C196.979,460.427,192,469.802,192,480c0,17.646,14.354,32,32,32s32-14.354,32-32v-42.667  C256,433.271,253.688,429.573,250.063,427.771z"/>
<path style="fill:#BBDEFB;" d="M234.667,480c0,5.885-4.792,10.667-10.667,10.667s-10.667-4.781-10.667-10.667  c0-4.417,3-7.188,4.792-8.448c0.125-0.083,0.25-0.167,0.354-0.26l16.188-12.375V480z"/>
<path style="fill:#303C42;" d="M420.729,427.771c-3.667-1.823-8-1.396-11.208,1.094l-33.167,25.375  c-8.708,6.177-13.688,15.552-13.688,25.76c0,17.646,14.354,32,32,32c17.646,0,32-14.354,32-32v-42.667  C426.667,433.271,424.354,429.573,420.729,427.771z"/>
<path style="fill:#BBDEFB;" d="M405.333,480c0,5.885-4.792,10.667-10.667,10.667S384,485.885,384,480c0-4.417,3-7.177,4.792-8.427  c0.125-0.094,0.229-0.177,0.354-0.271l16.188-12.375V480z"/>
<path style="fill:#303C42;" d="M405.333,85.333c-8.275,0-16.366,1.224-24.289,3.074C357.124,35.29,303.995,0,245.333,0  C168.098,0,104.276,58.389,97.044,134.022c-31.755,12.44-54.378,43.202-54.378,79.311c0,4.918,0.717,9.997,1.783,15.283  C17.802,245.694,0,275.4,0,309.333c0,52.938,43.063,96,96,96h32.483l-8.15,6.229c-8.688,6.198-13.667,15.573-13.667,25.771  c0,17.646,14.354,32,32,32s32-14.354,32-32v-32H299.15l-8.15,6.229c-8.688,6.198-13.667,15.573-13.667,25.771  c0,17.646,14.354,32,32,32s32-14.354,32-32v-33.078c36.089-5.232,64-36.074,64-73.589c0-11.495-2.828-22.263-7.49-32h7.49  C464.146,298.667,512,250.813,512,192S464.146,85.333,405.333,85.333z"/>
<g>
	<path style="fill:#BBDEFB;" d="M149.333,437.333c0,5.885-4.792,10.667-10.667,10.667S128,443.219,128,437.333   c0-4.417,3-7.188,4.792-8.448c0.125-0.083,0.25-0.167,0.354-0.26l16.188-12.375V437.333z"/>
	<path style="fill:#BBDEFB;" d="M320,437.333c0,5.885-4.792,10.667-10.667,10.667s-10.667-4.781-10.667-10.667   c0-4.417,3-7.188,4.792-8.448c0.125-0.083,0.25-0.167,0.354-0.26L320,416.25V437.333z"/>
</g>
<g>
	<path style="fill:#64B5F6;" d="M64,213.333c0-35.292,28.708-64,64-64c5.896,0,10.667-4.771,10.667-10.667S133.896,128,128,128   c-3.083,0-6.005,0.59-9.005,0.91c9.375-61.255,62.594-107.577,126.339-107.577c49.551,0,94.48,29.395,115.409,73.835   c-5.151,2.376-10.16,5.092-14.919,8.301c-4.885,3.292-6.177,9.917-2.885,14.802c3.302,4.896,9.927,6.177,14.802,2.885   c14.073-9.479,30.531-14.49,47.594-14.49c47.052,0,85.333,38.281,85.333,85.333s-38.281,85.333-85.333,85.333h-22.577   c-6.128-5.986-13.318-10.837-21.201-14.448c-7.246-64.201-61.595-113.552-126.889-113.552c-47.432,0-90.46,26.492-112.599,67.947   c-8.466-2.4-17.188-3.947-26.068-3.947c-11.099,0-21.598,2.268-31.523,5.749C64.259,217.142,64,215.189,64,213.333z"/>
	<path style="fill:#64B5F6;" d="M330.667,384H96c-41.167,0-74.667-33.5-74.667-74.667s33.5-74.667,74.667-74.667   c17.156,0,33.281,5.656,46.646,16.354c4.635,3.719,11.333,2.948,14.99-1.656c3.688-4.594,2.948-11.313-1.656-14.99   c-4.385-3.514-9.083-6.578-13.987-9.25c18.788-33.302,53.979-54.458,92.674-54.458c51.454,0,94.456,36.908,104.116,86.154   c-2.702-0.297-5.337-0.82-8.116-0.82c-5.896,0-10.667,4.771-10.667,10.667c0,5.896,4.771,10.667,10.667,10.667   c29.406,0,53.333,23.927,53.333,53.333S360.073,384,330.667,384z"/>
</g>
<path style="opacity:0.1;enable-background:new    ;" d="M432.818,111.611C442.348,125.382,448,142.023,448,160  c0,47.052-38.281,85.333-85.333,85.333h-4.766c1.486,5.75,2.973,11.509,3.655,17.552c7.883,3.611,15.073,8.462,21.201,14.448h22.577  c47.052,0,85.333-38.281,85.333-85.333C490.667,154.617,466.348,123.121,432.818,111.611z"/>
<path style="opacity:0.1;enable-background:new    ;" d="M361.348,287.184c0.819,3.708,1.319,7.533,1.319,11.483  c0,29.406-23.927,53.333-53.333,53.333H74.667c-18.865,0-35.919-7.264-49.078-18.848C35.595,362.605,63.21,384,96,384h234.667  C360.073,384,384,360.073,384,330.667C384,312.699,375.005,296.853,361.348,287.184z"/>
<linearGradient id="SVGID_1_" gradientUnits="userSpaceOnUse" x1="-44.8076" y1="637.142" x2="-24.7698" y2="627.7977" gradientTransform="matrix(21.3333 0 0 -21.3333 996.3334 13791.667)">
	<stop offset="0" style="stop-color:#FFFFFF;stop-opacity:0.2"/>
	<stop offset="1" style="stop-color:#FFFFFF;stop-opacity:0"/>
</linearGradient>
<path style="fill:url(#SVGID_1_);" d="M79.396,427.771c-3.646-1.823-8-1.396-11.208,1.094L35,454.229  c-8.688,6.198-13.667,15.573-13.667,25.771c0,17.646,14.354,32,32,32s32-14.354,32-32v-42.667  C85.333,433.271,83.021,429.573,79.396,427.771z M250.063,427.771c-3.667-1.823-8-1.396-11.208,1.094l-33.188,25.365  C196.979,460.427,192,469.802,192,480c0,17.646,14.354,32,32,32s32-14.354,32-32v-42.667  C256,433.271,253.688,429.573,250.063,427.771z M420.729,427.771c-3.667-1.823-8-1.396-11.208,1.094l-33.167,25.375  c-8.708,6.177-13.688,15.552-13.688,25.76c0,17.646,14.354,32,32,32c17.646,0,32-14.354,32-32v-42.667  C426.667,433.271,424.354,429.573,420.729,427.771z M405.333,85.333c-8.275,0-16.366,1.224-24.289,3.074  C357.124,35.29,303.995,0,245.333,0C168.098,0,104.276,58.389,97.044,134.022c-31.755,12.44-54.378,43.202-54.378,79.311  c0,4.918,0.717,9.997,1.783,15.283C17.802,245.694,0,275.4,0,309.333c0,52.938,43.063,96,96,96h32.483l-8.15,6.229  c-8.688,6.198-13.667,15.573-13.667,25.771c0,17.646,14.354,32,32,32s32-14.354,32-32v-32H299.15l-8.15,6.229  c-8.688,6.198-13.667,15.573-13.667,25.771c0,17.646,14.354,32,32,32s32-14.354,32-32v-33.078c36.089-5.232,64-36.074,64-73.589  c0-11.495-2.828-22.263-7.49-32h7.49C464.146,298.667,512,250.813,512,192S464.146,85.333,405.333,85.333z"/>
<g>
</g>
<g>
</g>
<g>
</g>
<g>
</g>
<g>
</g>
<g>
</g>
<g>
</g>
<g>
</g>
<g>
</g>
<g>
</g>
<g>
</g>
<g>
</g>
<g>
</g>
<g>
</g>
<g>
</g>
</svg>
