<?xml version="1.0" encoding="iso-8859-1"?>
<!-- Generator: Adobe Illustrator 19.0.0, SVG Export Plug-In . SVG Version: 6.00 Build 0)  -->
<svg xmlns="http://www.w3.org/2000/svg" xmlns:xlink="http://www.w3.org/1999/xlink" version="1.1" id="Capa_1" x="0px" y="0px" viewBox="0 0 512 512" style="enable-background:new 0 0 512 512;" xml:space="preserve">
<path style="fill:#303C42;" d="M352,256c0-75.115,33.927-154.094,93.083-216.677c2.323-2.448,3.344-5.865,2.75-9.188  c-0.594-3.333-2.729-6.177-5.75-7.688C404.771,3.896,355.105,0,320,0C178.844,0,64,114.844,64,256s114.844,256,256,256  c35.104,0,84.771-3.896,122.083-22.448c3.021-1.51,5.156-4.354,5.75-7.688c0.594-3.323-0.427-6.74-2.75-9.188  C385.928,410.094,352,331.115,352,256z"/>
<path style="fill:#FFF4D4;" d="M320,490.667C190.605,490.667,85.334,385.396,85.334,256S190.605,21.333,320,21.333  c28.698,0,67.615,2.688,99.396,14.531C362.844,100.49,330.667,179.938,330.667,256s32.177,155.51,88.729,220.135  C387.615,487.979,348.698,490.667,320,490.667z"/>
<path style="opacity:0.05;enable-background:new    ;" d="M418.849,35.662c-33.24-12.24-70.86,2.077-90.02,31.87  C301.844,109.493,284.605,153.16,284.605,192c0,50.708,14.301,102.921,40.591,151.243c20.28,37.276,6.699,105.662-69.196,92.312  c-1.314-0.231-104.054-34.686-146.428-76.343C147.855,436.932,227.668,490.667,320,490.667c28.698,0,67.615-2.688,99.396-14.531  C362.844,411.51,330.667,332.063,330.667,256s32.177-155.51,88.729-220.135C419.214,35.797,419.032,35.729,418.849,35.662z"/>
<ellipse style="fill:#303C42;" cx="170.667" cy="224" rx="42.667" ry="53.333"/>
<path style="fill:#FFF4D4;" d="M170.667,256c-11.563,0-21.333-14.656-21.333-32s9.771-32,21.333-32S192,206.656,192,224  S182.23,256,170.667,256z"/>
<path style="fill:#303C42;" d="M172.24,298.667c-6.771,0-12.792,3.031-16.958,8.531c-6.479,8.583-7.75,22.083-3.5,37.052  c5.469,19.271,20.875,39.75,38.646,39.75c6.771,0,12.792-3.031,16.958-8.531c6.479-8.583,7.75-22.083,3.5-37.052  C205.417,319.146,190.011,298.667,172.24,298.667z"/>
<path style="fill:#FFF4D4;" d="M190.428,362.667c-3.958,0-13.854-9.208-18.125-24.25c-3.198-11.25-0.958-17.615-0.063-18.417  c3.958,0,13.854,9.208,18.125,24.25C193.563,355.5,191.323,361.865,190.428,362.667z"/>
<path style="opacity:0.1;enable-background:new    ;" d="M160,245.333c0-17.344,9.771-32,21.333-32  c3.685,0,7.139,1.616,10.202,4.206C189.478,203.168,180.758,192,170.667,192c-11.563,0-21.333,14.656-21.333,32  c0,11.815,4.585,22.258,11.132,27.794C160.166,249.699,160,247.54,160,245.333z"/>
<path style="opacity:0.1;enable-background:new    ;" d="M170.667,256c-11.563,0-21.333-14.656-21.333-32s9.771-32,21.333-32  S192,206.656,192,224S182.23,256,170.667,256z"/>
<path style="opacity:0.1;enable-background:new    ;" d="M190.428,362.667c-3.958,0-13.854-9.208-18.125-24.25  c-3.198-11.25-0.958-17.615-0.063-18.417c3.958,0,13.854,9.208,18.125,24.25C193.563,355.5,191.323,361.865,190.428,362.667z"/>
<linearGradient id="SVGID_1_" gradientUnits="userSpaceOnUse" x1="-42.5046" y1="639.7133" x2="-22.6376" y2="630.4444" gradientTransform="matrix(21.3333 0 0 -21.3333 996.3332 13791.667)">
	<stop offset="0" style="stop-color:#FFFFFF;stop-opacity:0.2"/>
	<stop offset="1" style="stop-color:#FFFFFF;stop-opacity:0"/>
</linearGradient>
<path style="fill:url(#SVGID_1_);" d="M352,256c0-75.115,33.927-154.094,93.083-216.677c2.323-2.448,3.344-5.865,2.75-9.188  c-0.594-3.333-2.729-6.177-5.75-7.688C404.771,3.896,355.105,0,320,0C178.844,0,64,114.844,64,256s114.844,256,256,256  c35.104,0,84.771-3.896,122.083-22.448c3.021-1.51,5.156-4.354,5.75-7.688c0.594-3.323-0.427-6.74-2.75-9.188  C385.928,410.094,352,331.115,352,256z"/>
<g>
</g>
<g>
</g>
<g>
</g>
<g>
</g>
<g>
</g>
<g>
</g>
<g>
</g>
<g>
</g>
<g>
</g>
<g>
</g>
<g>
</g>
<g>
</g>
<g>
</g>
<g>
</g>
<g>
</g>
</svg>
