<?xml version="1.0" encoding="iso-8859-1"?>
<!-- Generator: Adobe Illustrator 19.0.0, SVG Export Plug-In . SVG Version: 6.00 Build 0)  -->
<svg xmlns="http://www.w3.org/2000/svg" xmlns:xlink="http://www.w3.org/1999/xlink" version="1.1" id="Capa_1" x="0px" y="0px" viewBox="0 0 512 512" style="enable-background:new 0 0 512 512;" xml:space="preserve">
<path style="fill:#303C42;" d="M441.979,470.396C370.646,435.854,298.667,356.156,298.667,256S370.646,76.146,441.979,41.604  C445.667,39.823,448,36.094,448,32c0-4.083-2.333-7.813-6.01-9.604C400.26,2.188,342.781,0,320,0C178.844,0,64,114.844,64,256  s114.844,256,256,256c22.781,0,80.26-2.188,121.99-22.396c3.677-1.792,6.01-5.521,6.01-9.604  C448,475.906,445.667,472.177,441.979,470.396z"/>
<path style="fill:#FFF4D4;" d="M320,490.667C190.604,490.667,85.333,385.396,85.333,256S190.604,21.333,320,21.333  c34,0,66.688,4.448,91.896,12.24C330.563,81.781,277.333,168.531,277.333,256s53.229,174.219,134.563,222.427  C386.688,486.219,354,490.667,320,490.667z"/>
<path style="opacity:0.05;enable-background:new    ;" d="M411.896,33.573c-0.143-0.044-0.287-0.089-0.431-0.133  c-29.193-8.942-60.718,2.065-80.242,25.539c-44.944,54.037-81.59,115.658-89.194,162.93  c-10.918,67.868,4.902,141.396,51.305,189.646c21.337,22.189,11.228,49.779-19.556,49.779c-11.202,0-57.441-2.758-104.999-26.173  c40.882,34.561,93.622,55.507,151.221,55.507c34,0,66.688-4.448,91.896-12.24C330.563,430.219,277.333,343.469,277.333,256  S330.563,81.781,411.896,33.573z"/>
<ellipse style="fill:#303C42;" cx="170.645" cy="224" rx="42.667" ry="53.333"/>
<path style="fill:#FFF4D4;" d="M170.643,256c-11.563,0-21.333-14.656-21.333-32s9.771-32,21.333-32s21.333,14.656,21.333,32  S182.205,256,170.643,256z"/>
<path style="fill:#303C42;" d="M172.216,298.667c-6.771,0-12.792,3.031-16.958,8.531c-6.479,8.583-7.75,22.083-3.5,37.052  c5.469,19.271,20.875,39.75,38.646,39.75c6.771,0,12.792-3.031,16.958-8.531c6.479-8.583,7.75-22.083,3.5-37.052  C205.393,319.146,189.986,298.667,172.216,298.667z"/>
<path style="fill:#FFF4D4;" d="M190.403,362.667c-3.958,0-13.854-9.208-18.125-24.25c-3.198-11.25-0.958-17.615-0.063-18.417  c3.958,0,13.854,9.208,18.125,24.25C193.539,355.5,191.299,361.865,190.403,362.667z"/>
<path style="opacity:0.1;enable-background:new    ;" d="M170.643,256c-11.563,0-21.333-14.656-21.333-32s9.771-32,21.333-32  s21.333,14.656,21.333,32S182.205,256,170.643,256z"/>
<path style="opacity:0.1;enable-background:new    ;" d="M160,245.333c0-17.344,9.771-32,21.333-32  c3.674,0,7.117,1.607,10.173,4.182C189.443,203.156,180.729,192,170.643,192c-11.563,0-21.333,14.656-21.333,32  c0,11.833,4.598,22.288,11.16,27.818C160.168,249.715,160,247.548,160,245.333z"/>
<path style="opacity:0.1;enable-background:new    ;" d="M190.403,362.667c-3.958,0-13.854-9.208-18.125-24.25  c-3.198-11.25-0.958-17.615-0.063-18.417c3.958,0,13.854,9.208,18.125,24.25C193.539,355.5,191.299,361.865,190.403,362.667z"/>
<linearGradient id="SVGID_1_" gradientUnits="userSpaceOnUse" x1="-42.5051" y1="639.7123" x2="-22.6378" y2="630.4443" gradientTransform="matrix(21.3333 0 0 -21.3333 996.3334 13791.667)">
	<stop offset="0" style="stop-color:#FFFFFF;stop-opacity:0.2"/>
	<stop offset="1" style="stop-color:#FFFFFF;stop-opacity:0"/>
</linearGradient>
<path style="fill:url(#SVGID_1_);" d="M441.979,470.396C370.646,435.854,298.667,356.156,298.667,256S370.646,76.146,441.979,41.604  C445.667,39.823,448,36.094,448,32c0-4.083-2.333-7.813-6.01-9.604C400.26,2.188,342.781,0,320,0C178.844,0,64,114.844,64,256  s114.844,256,256,256c22.781,0,80.26-2.188,121.99-22.396c3.677-1.792,6.01-5.521,6.01-9.604  C448,475.906,445.667,472.177,441.979,470.396z"/>
<g>
</g>
<g>
</g>
<g>
</g>
<g>
</g>
<g>
</g>
<g>
</g>
<g>
</g>
<g>
</g>
<g>
</g>
<g>
</g>
<g>
</g>
<g>
</g>
<g>
</g>
<g>
</g>
<g>
</g>
</svg>
