<?xml version="1.0" encoding="iso-8859-1"?>
<!-- Generator: Adobe Illustrator 19.0.0, SVG Export Plug-In . SVG Version: 6.00 Build 0)  -->
<svg xmlns="http://www.w3.org/2000/svg" xmlns:xlink="http://www.w3.org/1999/xlink" version="1.1" id="Capa_1" x="0px" y="0px" viewBox="0 0 512 512" style="enable-background:new 0 0 512 512;" xml:space="preserve">
<path style="fill:#303C42;" d="M355.125,419.125l-32.082,32.082c-4.172-1.996-8.784-3.207-13.71-3.207c-17.646,0-32,14.354-32,32  c0,17.646,14.354,32,32,32s32-14.354,32-32c0-4.926-1.211-9.538-3.207-13.71l32.082-32.082c4.167-4.167,4.167-10.917,0-15.083  C366.042,414.958,359.292,414.958,355.125,419.125z"/>
<circle style="fill:#BBDEFB;" cx="309.333" cy="480" r="10.667"/>
<path style="fill:#303C42;" d="M472.458,387.125l-42.749,42.749c-4.172-1.996-8.784-3.207-13.71-3.207c-17.646,0-32,14.354-32,32  c0,17.646,14.354,32,32,32c17.646,0,32-14.354,32-32c0-4.926-1.211-9.538-3.207-13.71l42.749-42.749  c4.167-4.167,4.167-10.917,0-15.083C483.375,382.958,476.625,382.958,472.458,387.125z"/>
<circle style="fill:#BBDEFB;" cx="416" cy="458.667" r="10.667"/>
<path style="fill:#303C42;" d="M163.125,419.125l-32.082,32.082c-4.172-1.996-8.784-3.207-13.71-3.207c-17.646,0-32,14.354-32,32  c0,17.646,14.354,32,32,32s32-14.354,32-32c0-4.926-1.211-9.538-3.207-13.71l32.082-32.082c4.167-4.167,4.167-10.917,0-15.083  C174.042,414.958,167.292,414.958,163.125,419.125z"/>
<circle style="fill:#BBDEFB;" cx="117.333" cy="480" r="10.667"/>
<path style="fill:#303C42;" d="M397.844,298.667h7.49C464.146,298.667,512,250.813,512,192S464.146,85.333,405.333,85.333  c-8.275,0-16.366,1.224-24.289,3.074C357.124,35.29,303.995,0,245.333,0C168.098,0,104.276,58.389,97.044,134.022  c-31.755,12.44-54.378,43.202-54.378,79.311c0,4.918,0.717,9.997,1.783,15.283C17.802,245.694,0,275.4,0,309.333  c0,45.066,31.323,82.708,73.264,92.986L45.71,429.874c-4.172-1.996-8.784-3.207-13.71-3.207c-17.646,0-32,14.354-32,32  c0,17.646,14.354,32,32,32s32-14.354,32-32c0-4.926-1.211-9.538-3.207-13.71l39.624-39.624H262.25l-24.54,24.54  c-4.172-1.996-8.784-3.207-13.71-3.207c-17.646,0-32,14.354-32,32c0,17.646,14.354,32,32,32s32-14.354,32-32  c0-4.926-1.211-9.538-3.207-13.71l39.624-39.624h38.25c41.167,0,74.667-33.5,74.667-74.667  C405.333,319.172,402.505,308.404,397.844,298.667z"/>
<g>
	<circle style="fill:#BBDEFB;" cx="224" cy="458.667" r="10.667"/>
	<circle style="fill:#BBDEFB;" cx="32" cy="458.667" r="10.667"/>
</g>
<path style="fill:#64B5F6;" d="M64,213.333c0-35.292,28.708-64,64-64c5.896,0,10.667-4.771,10.667-10.667S133.896,128,128,128  c-3.083,0-6.005,0.59-9.005,0.91c9.375-61.255,62.594-107.577,126.339-107.577c49.551,0,94.48,29.395,115.409,73.835  c-5.151,2.376-10.16,5.092-14.919,8.301c-4.885,3.292-6.177,9.917-2.885,14.802c3.302,4.896,9.927,6.177,14.802,2.885  c14.073-9.479,30.531-14.49,47.594-14.49c47.052,0,85.333,38.281,85.333,85.333s-38.281,85.333-85.333,85.333h-22.577  c-6.128-5.986-13.318-10.837-21.201-14.448c-7.246-64.201-61.595-113.552-126.889-113.552c-47.432,0-90.46,26.492-112.599,67.947  c-8.466-2.4-17.188-3.947-26.068-3.947c-11.099,0-21.598,2.268-31.523,5.749C64.259,217.142,64,215.189,64,213.333z"/>
<path style="opacity:0.1;enable-background:new    ;" d="M432.818,111.611C442.348,125.382,448,142.023,448,160  c0,47.052-38.281,85.333-85.333,85.333h-4.766c1.486,5.75,2.973,11.509,3.655,17.552c7.883,3.611,15.073,8.462,21.201,14.448h22.577  c47.052,0,85.333-38.281,85.333-85.333C490.667,154.617,466.348,123.121,432.818,111.611z"/>
<path style="fill:#64B5F6;" d="M330.667,384H96c-41.167,0-74.667-33.5-74.667-74.667s33.5-74.667,74.667-74.667  c17.156,0,33.281,5.656,46.646,16.354c4.635,3.719,11.333,2.948,14.99-1.656c3.688-4.594,2.948-11.313-1.656-14.99  c-4.385-3.514-9.083-6.578-13.987-9.25c18.788-33.302,53.979-54.458,92.674-54.458c51.454,0,94.456,36.908,104.116,86.154  c-2.702-0.297-5.337-0.82-8.116-0.82c-5.896,0-10.667,4.771-10.667,10.667c0,5.896,4.771,10.667,10.667,10.667  c29.406,0,53.333,23.927,53.333,53.333S360.073,384,330.667,384z"/>
<linearGradient id="SVGID_1_" gradientUnits="userSpaceOnUse" x1="-44.7054" y1="637.3611" x2="-23.8203" y2="627.6221" gradientTransform="matrix(21.3333 0 0 -21.3333 996.3334 13791.667)">
	<stop offset="0" style="stop-color:#FFFFFF;stop-opacity:0.2"/>
	<stop offset="1" style="stop-color:#FFFFFF;stop-opacity:0"/>
</linearGradient>
<path style="fill:url(#SVGID_1_);" d="M355.125,419.125l-32.082,32.082c-4.172-1.996-8.784-3.207-13.71-3.207  c-17.646,0-32,14.354-32,32c0,17.646,14.354,32,32,32s32-14.354,32-32c0-4.926-1.211-9.538-3.207-13.71l32.082-32.082  c4.167-4.167,4.167-10.917,0-15.083C366.042,414.958,359.292,414.958,355.125,419.125z M472.458,387.125l-42.749,42.749  c-4.172-1.996-8.784-3.207-13.71-3.207c-17.646,0-32,14.354-32,32c0,17.646,14.354,32,32,32c17.646,0,32-14.354,32-32  c0-4.926-1.211-9.538-3.207-13.71l42.749-42.749c4.167-4.167,4.167-10.917,0-15.083  C483.375,382.958,476.625,382.958,472.458,387.125z M163.125,419.125l-32.082,32.082c-4.172-1.996-8.784-3.207-13.71-3.207  c-17.646,0-32,14.354-32,32c0,17.646,14.354,32,32,32s32-14.354,32-32c0-4.926-1.211-9.538-3.207-13.71l32.082-32.082  c4.167-4.167,4.167-10.917,0-15.083C174.042,414.958,167.292,414.958,163.125,419.125z M397.844,298.667h7.49  C464.146,298.667,512,250.813,512,192S464.146,85.333,405.333,85.333c-8.275,0-16.366,1.224-24.289,3.074  C357.124,35.29,303.995,0,245.333,0C168.098,0,104.276,58.389,97.044,134.022c-31.755,12.44-54.378,43.202-54.378,79.311  c0,4.918,0.717,9.997,1.783,15.283C17.802,245.694,0,275.4,0,309.333c0,45.066,31.323,82.708,73.264,92.986L45.71,429.874  c-4.172-1.996-8.784-3.207-13.71-3.207c-17.646,0-32,14.354-32,32c0,17.646,14.354,32,32,32s32-14.354,32-32  c0-4.926-1.211-9.538-3.207-13.71l39.624-39.624H262.25l-24.54,24.54c-4.172-1.996-8.784-3.207-13.71-3.207  c-17.646,0-32,14.354-32,32c0,17.646,14.354,32,32,32s32-14.354,32-32c0-4.926-1.211-9.538-3.207-13.71l39.624-39.624h38.25  c41.167,0,74.667-33.5,74.667-74.667C405.333,319.172,402.505,308.404,397.844,298.667z"/>
<path style="opacity:0.1;enable-background:new    ;" d="M361.348,287.184c0.819,3.708,1.319,7.533,1.319,11.483  c0,29.406-23.927,53.333-53.333,53.333H74.667c-18.865,0-35.919-7.264-49.078-18.848C35.595,362.605,63.21,384,96,384h234.667  C360.073,384,384,360.073,384,330.667C384,312.699,375.005,296.853,361.348,287.184z"/>
<g>
</g>
<g>
</g>
<g>
</g>
<g>
</g>
<g>
</g>
<g>
</g>
<g>
</g>
<g>
</g>
<g>
</g>
<g>
</g>
<g>
</g>
<g>
</g>
<g>
</g>
<g>
</g>
<g>
</g>
</svg>
