<?xml version="1.0" encoding="iso-8859-1"?>
<!-- Generator: Adobe Illustrator 19.0.0, SVG Export Plug-In . SVG Version: 6.00 Build 0)  -->
<svg xmlns="http://www.w3.org/2000/svg" xmlns:xlink="http://www.w3.org/1999/xlink" version="1.1" id="Capa_1" x="0px" y="0px" viewBox="0 0 512 512" style="enable-background:new 0 0 512 512;" xml:space="preserve">
<path style="fill:#303C42;" d="M512,144c0-64.031-40.417-120.302-102.979-143.344c-3.917-1.406-8.271-0.479-11.229,2.469  c-2.938,2.938-3.896,7.323-2.458,11.229c5.458,14.875,10,28.479,10,44.313c0,51.694-29.53,97.546-75.652,119.716  c-26.796-43.665-74.728-71.716-127.014-71.716c-76.865,0-140.452,58.292-148.182,133.988C22.674,253.068,0,283.852,0,320  c0,42.362,31.105,77.342,71.635,83.948L45.71,429.874c-4.172-1.996-8.784-3.207-13.71-3.207c-17.646,0-32,14.354-32,32  c0,17.646,14.354,32,32,32s32-14.354,32-32c0-4.926-1.211-9.538-3.207-13.71l39.624-39.624H262.25l-24.54,24.54  c-4.172-1.996-8.784-3.207-13.71-3.207c-17.646,0-32,14.354-32,32c0,17.646,14.354,32,32,32s32-14.354,32-32  c0-4.926-1.211-9.538-3.207-13.71l39.624-39.624h70.25c58.813,0,106.667-47.854,106.667-106.667c0-14.34-2.934-27.987-8.089-40.49  C493.492,228.849,512,187.814,512,144z"/>
<g>
	<circle style="fill:#BBDEFB;" cx="224" cy="458.667" r="10.667"/>
	<circle style="fill:#BBDEFB;" cx="32" cy="458.667" r="10.667"/>
</g>
<g>
	<path style="fill:#303C42;" d="M245.333,64c15.458,0,18.979,2.073,24.458,7.552c5.479,5.458,7.542,8.979,7.542,24.448   c0,5.896,4.771,10.667,10.667,10.667c5.896,0,10.667-4.771,10.667-10.667c0-15.469,2.063-18.99,7.542-24.448   c5.479-5.479,9-7.552,24.458-7.552c5.896,0,10.667-4.771,10.667-10.667s-4.771-10.667-10.667-10.667   c-15.458,0-18.979-2.073-24.458-7.552c-5.479-5.458-7.542-8.979-7.542-24.448C298.667,4.771,293.896,0,288,0   c-5.896,0-10.667,4.771-10.667,10.667c0,15.469-2.063,18.99-7.542,24.448c-5.479,5.479-9,7.552-24.458,7.552   c-5.896,0-10.667,4.771-10.667,10.667S239.438,64,245.333,64z"/>
	<path style="fill:#303C42;" d="M355.125,419.125l-32.082,32.082c-4.172-1.996-8.784-3.207-13.71-3.207c-17.646,0-32,14.354-32,32   c0,17.646,14.354,32,32,32s32-14.354,32-32c0-4.926-1.211-9.538-3.207-13.71l32.082-32.082c4.167-4.167,4.167-10.917,0-15.083   C366.042,414.958,359.292,414.958,355.125,419.125z"/>
</g>
<circle style="fill:#BBDEFB;" cx="309.333" cy="480" r="10.667"/>
<path style="fill:#303C42;" d="M163.125,419.125l-32.082,32.082c-4.172-1.996-8.784-3.207-13.71-3.207c-17.646,0-32,14.354-32,32  c0,17.646,14.354,32,32,32s32-14.354,32-32c0-4.926-1.211-9.538-3.207-13.71l32.082-32.082c4.167-4.167,4.167-10.917,0-15.083  C174.042,414.958,167.292,414.958,163.125,419.125z"/>
<circle style="fill:#BBDEFB;" cx="117.333" cy="480" r="10.667"/>
<g>
	<path style="fill:#FFCA28;" d="M284.875,50.208c1.125-1.125,2.167-2.229,3.125-3.344c0.958,1.115,2,2.219,3.125,3.344   s2.229,2.167,3.344,3.125c-1.115,0.958-2.219,2-3.344,3.125s-2.167,2.229-3.125,3.344c-0.958-1.115-2-2.219-3.125-3.344   s-2.229-2.167-3.344-3.125C282.646,52.375,283.75,51.333,284.875,50.208z"/>
	<path style="fill:#FFCA28;" d="M284.875,51.688c1.125-1.125,2.167-2.229,3.125-3.344c0.958,1.115,2,2.219,3.125,3.344   s2.229,2.167,3.344,3.125c-1.115,0.958-2.219,2-3.344,3.125s-2.167,2.229-3.125,3.344c-0.958-1.115-2-2.219-3.125-3.344   s-2.229-2.167-3.344-3.125C282.646,53.854,283.75,52.813,284.875,51.688z"/>
</g>
<path style="fill:#FFF4D4;" d="M426.667,60.146c0-10.094-1.458-19.323-3.708-28.146c41.771,23.594,67.708,66.094,67.708,113.479  c0,35.964-14.41,69.819-39.785,94.818c-19.212-28.224-51.576-46.818-88.215-46.818c-4.926,0-9.799,0.415-14.618,1.077  C396.335,167.367,426.667,116.684,426.667,60.146z"/>
<path style="fill:#64B5F6;" d="M448,300.146c0,47.052-38.271,85.333-85.333,85.333H85.333c-35.292,0-64-28.708-64-64  s28.708-64,64-64c5.896,0,10.667-4.771,10.667-10.667c0-5.896-4.771-10.667-10.667-10.667c-3.02,0-5.879,0.585-8.819,0.892  c9.805-61.301,62.773-107.559,126.152-107.559c49.551,0,94.474,29.395,115.391,73.837c-5.147,2.374-10.152,5.087-14.911,8.288  c-4.875,3.292-6.188,9.917-2.896,14.813c3.313,4.885,9.938,6.146,14.813,2.896c14.083-9.49,30.563-14.5,47.604-14.5  C409.729,214.813,448,253.094,448,300.146z"/>
<path style="opacity:0.1;enable-background:new    ;" d="M411.056,228.51C414.034,237.184,416,246.329,416,256  c0,47.052-38.271,85.333-85.333,85.333H53.333c-11.142,0-21.469-3.116-30.602-8.142C28.833,362.169,54.566,384,85.333,384h277.333  C409.729,384,448,345.719,448,298.667C448,269.589,433.332,243.924,411.056,228.51z"/>
<path style="opacity:0.1;enable-background:new    ;" d="M479.647,92.306c-2.378,47.688-28.754,88.945-67.392,112.026  c15.512,8.198,28.803,20.056,38.626,34.486c25.375-24.999,39.785-58.854,39.785-94.818  C490.667,125.767,486.753,108.293,479.647,92.306z"/>
<linearGradient id="SVGID_1_" gradientUnits="userSpaceOnUse" x1="-43.8831" y1="638.4124" x2="-25.4346" y2="629.8081" gradientTransform="matrix(21.3333 0 0 -21.3333 996.3334 13791.667)">
	<stop offset="0" style="stop-color:#FFFFFF;stop-opacity:0.2"/>
	<stop offset="1" style="stop-color:#FFFFFF;stop-opacity:0"/>
</linearGradient>
<path style="fill:url(#SVGID_1_);" d="M512,144c0-64.031-40.417-120.302-102.979-143.344c-3.917-1.406-8.271-0.479-11.229,2.469  c-2.938,2.938-3.896,7.323-2.458,11.229c5.458,14.875,10,28.479,10,44.313c0,51.694-29.53,97.546-75.652,119.716  c-26.796-43.665-74.728-71.716-127.014-71.716c-76.865,0-140.452,58.292-148.182,133.988C22.674,253.068,0,283.852,0,320  c0,42.362,31.105,77.342,71.635,83.948L45.71,429.874c-4.172-1.996-8.784-3.207-13.71-3.207c-17.646,0-32,14.354-32,32  c0,17.646,14.354,32,32,32s32-14.354,32-32c0-4.926-1.211-9.538-3.207-13.71l39.624-39.624H262.25l-24.54,24.54  c-4.172-1.996-8.784-3.207-13.71-3.207c-17.646,0-32,14.354-32,32c0,17.646,14.354,32,32,32s32-14.354,32-32  c0-4.926-1.211-9.538-3.207-13.71l39.624-39.624h70.25c58.813,0,106.667-47.854,106.667-106.667c0-14.34-2.934-27.987-8.089-40.49  C493.492,228.849,512,187.814,512,144z M245.333,64c15.458,0,18.979,2.073,24.458,7.552c5.479,5.458,7.542,8.979,7.542,24.448  c0,5.896,4.771,10.667,10.667,10.667c5.896,0,10.667-4.771,10.667-10.667c0-15.469,2.063-18.99,7.542-24.448  c5.479-5.479,9-7.552,24.458-7.552c5.896,0,10.667-4.771,10.667-10.667s-4.771-10.667-10.667-10.667  c-15.458,0-18.979-2.073-24.458-7.552c-5.479-5.458-7.542-8.979-7.542-24.448C298.667,4.771,293.896,0,288,0  c-5.896,0-10.667,4.771-10.667,10.667c0,15.469-2.063,18.99-7.542,24.448c-5.479,5.479-9,7.552-24.458,7.552  c-5.896,0-10.667,4.771-10.667,10.667S239.438,64,245.333,64z M355.125,419.125l-32.082,32.082  c-4.172-1.996-8.784-3.207-13.71-3.207c-17.646,0-32,14.354-32,32c0,17.646,14.354,32,32,32s32-14.354,32-32  c0-4.926-1.211-9.538-3.207-13.71l32.082-32.082c4.167-4.167,4.167-10.917,0-15.083  C366.042,414.958,359.292,414.958,355.125,419.125z M163.125,419.125l-32.082,32.082c-4.172-1.996-8.784-3.207-13.71-3.207  c-17.646,0-32,14.354-32,32c0,17.646,14.354,32,32,32s32-14.354,32-32c0-4.926-1.211-9.538-3.207-13.71l32.082-32.082  c4.167-4.167,4.167-10.917,0-15.083C174.042,414.958,167.292,414.958,163.125,419.125z"/>
<g>
</g>
<g>
</g>
<g>
</g>
<g>
</g>
<g>
</g>
<g>
</g>
<g>
</g>
<g>
</g>
<g>
</g>
<g>
</g>
<g>
</g>
<g>
</g>
<g>
</g>
<g>
</g>
<g>
</g>
</svg>
