<?xml version="1.0" encoding="iso-8859-1"?>
<!-- Generator: Adobe Illustrator 19.0.0, SVG Export Plug-In . SVG Version: 6.00 Build 0)  -->
<svg xmlns="http://www.w3.org/2000/svg" xmlns:xlink="http://www.w3.org/1999/xlink" version="1.1" id="Capa_1" x="0px" y="0px" viewBox="0 0 512 512" style="enable-background:new 0 0 512 512;" xml:space="preserve">
<path style="fill:#303C42;" d="M501.333,149.333h-32.54c-2.208-24.35-11.849-46.576-26.682-64.361l23.025-23.025  c4.167-4.167,4.167-10.917,0-15.083c-4.167-4.167-10.917-4.167-15.083,0l-23.025,23.025c-17.785-14.833-40.01-24.474-64.361-26.682  v-32.54C362.667,4.771,357.896,0,352,0c-5.896,0-10.667,4.771-10.667,10.667V43.52c-23.99,2.217-46.107,11.703-63.995,26.736  l-23.391-23.391c-4.167-4.167-10.917-4.167-15.083,0c-4.167,4.167-4.167,10.917,0,15.083l23.445,23.445  c-6.848,8.302-12.54,17.594-16.986,27.75c-13.656-4.128-27.97-6.477-42.658-6.477c-76.845,0-140.443,58.293-148.191,133.992  C22.674,253.076,0,283.857,0,320c0,42.362,31.112,77.34,71.635,83.948L45.71,429.874c-4.172-1.996-8.784-3.207-13.71-3.207  c-17.646,0-32,14.354-32,32c0,17.646,14.354,32,32,32s32-14.354,32-32c0-4.926-1.211-9.538-3.207-13.71l39.624-39.624H262.25  l-24.54,24.54c-4.172-1.996-8.784-3.207-13.71-3.207c-17.646,0-32,14.354-32,32c0,17.646,14.354,32,32,32s32-14.354,32-32  c0-4.926-1.211-9.538-3.207-13.71l39.624-39.624h70.25c58.813,0,106.667-47.854,106.667-106.667  c0-25.835-9.605-49.237-24.947-67.716c13.655-17.681,21.885-38.436,23.945-60.284h33.001c5.896,0,10.667-4.771,10.667-10.667  C512,154.104,507.229,149.333,501.333,149.333z"/>
<g>
	<circle style="fill:#BBDEFB;" cx="224" cy="458.667" r="10.667"/>
	<circle style="fill:#BBDEFB;" cx="32" cy="458.667" r="10.667"/>
</g>
<path style="fill:#303C42;" d="M355.125,419.125l-32.082,32.082c-4.172-1.996-8.784-3.207-13.71-3.207c-17.646,0-32,14.354-32,32  c0,17.646,14.354,32,32,32s32-14.354,32-32c0-4.926-1.211-9.538-3.207-13.71l32.082-32.082c4.167-4.167,4.167-10.917,0-15.083  C366.042,414.958,359.292,414.958,355.125,419.125z"/>
<circle style="fill:#BBDEFB;" cx="309.333" cy="480" r="10.667"/>
<path style="fill:#303C42;" d="M163.125,419.125l-32.082,32.082c-4.172-1.996-8.784-3.207-13.71-3.207c-17.646,0-32,14.354-32,32  c0,17.646,14.354,32,32,32s32-14.354,32-32c0-4.926-1.211-9.538-3.207-13.71l32.082-32.082c4.167-4.167,4.167-10.917,0-15.083  C174.042,414.958,167.292,414.958,163.125,419.125z"/>
<circle style="fill:#BBDEFB;" cx="117.333" cy="480" r="10.667"/>
<path style="fill:#FFCA28;" d="M429.116,215.9c-18.289-14.716-41.204-23.9-66.449-23.9c-8.275,0-16.366,1.224-24.289,3.074  c-14.939-33.172-41.133-59.332-73.198-74.279C280.576,86.543,314.185,64,352,64c52.938,0,96,43.063,96,96  C448,180.092,441.141,199.474,429.116,215.9z"/>
<path style="fill:#64B5F6;" d="M448,298.667C448,345.719,409.729,384,362.667,384H85.333c-35.292,0-64-28.708-64-64s28.708-64,64-64  C91.229,256,96,251.229,96,245.333c0-5.896-4.771-10.667-10.667-10.667c-3.02,0-5.879,0.585-8.819,0.892  C86.319,174.258,139.288,128,202.667,128c49.551,0,94.474,29.395,115.391,73.837c-5.147,2.374-10.152,5.087-14.911,8.288  c-4.875,3.292-6.188,9.917-2.896,14.813c3.313,4.885,9.938,6.146,14.813,2.896c14.083-9.49,30.563-14.5,47.604-14.5  C409.729,213.333,448,251.615,448,298.667z"/>
<path style="opacity:0.1;enable-background:new    ;" d="M411.056,228.51C414.034,237.184,416,246.329,416,256  c0,47.052-38.271,85.333-85.333,85.333H53.333c-11.142,0-21.469-3.116-30.602-8.142C28.833,362.169,54.566,384,85.333,384h277.333  C409.729,384,448,345.719,448,298.667C448,269.589,433.332,243.924,411.056,228.51z"/>
<linearGradient id="SVGID_1_" gradientUnits="userSpaceOnUse" x1="-44.0632" y1="638.0272" x2="-25.6135" y2="629.4244" gradientTransform="matrix(21.3333 0 0 -21.3333 996.3334 13791.667)">
	<stop offset="0" style="stop-color:#FFFFFF;stop-opacity:0.2"/>
	<stop offset="1" style="stop-color:#FFFFFF;stop-opacity:0"/>
</linearGradient>
<path style="fill:url(#SVGID_1_);" d="M501.333,149.333h-32.54c-2.208-24.35-11.849-46.576-26.682-64.361l23.025-23.025  c4.167-4.167,4.167-10.917,0-15.083c-4.167-4.167-10.917-4.167-15.083,0l-23.025,23.025c-17.785-14.833-40.01-24.474-64.361-26.682  v-32.54C362.667,4.771,357.896,0,352,0c-5.896,0-10.667,4.771-10.667,10.667V43.52c-23.99,2.217-46.107,11.703-63.995,26.736  l-23.391-23.391c-4.167-4.167-10.917-4.167-15.083,0c-4.167,4.167-4.167,10.917,0,15.083l23.445,23.445  c-6.848,8.302-12.54,17.594-16.986,27.75c-13.656-4.128-27.97-6.477-42.658-6.477c-76.845,0-140.443,58.293-148.191,133.992  C22.674,253.076,0,283.857,0,320c0,42.362,31.112,77.34,71.635,83.948L45.71,429.874c-4.172-1.996-8.784-3.207-13.71-3.207  c-17.646,0-32,14.354-32,32c0,17.646,14.354,32,32,32s32-14.354,32-32c0-4.926-1.211-9.538-3.207-13.71l39.624-39.624H262.25  l-24.54,24.54c-4.172-1.996-8.784-3.207-13.71-3.207c-17.646,0-32,14.354-32,32c0,17.646,14.354,32,32,32s32-14.354,32-32  c0-4.926-1.211-9.538-3.207-13.71l39.624-39.624h70.25c58.813,0,106.667-47.854,106.667-106.667  c0-25.835-9.605-49.237-24.947-67.716c13.655-17.681,21.885-38.436,23.945-60.284h33.001c5.896,0,10.667-4.771,10.667-10.667  C512,154.104,507.229,149.333,501.333,149.333z M355.125,419.125l-32.082,32.082c-4.172-1.996-8.784-3.207-13.71-3.207  c-17.646,0-32,14.354-32,32c0,17.646,14.354,32,32,32s32-14.354,32-32c0-4.926-1.211-9.538-3.207-13.71l32.082-32.082  c4.167-4.167,4.167-10.917,0-15.083C366.042,414.958,359.292,414.958,355.125,419.125z M163.125,419.125l-32.082,32.082  c-4.172-1.996-8.784-3.207-13.71-3.207c-17.646,0-32,14.354-32,32c0,17.646,14.354,32,32,32s32-14.354,32-32  c0-4.926-1.211-9.538-3.207-13.71l32.082-32.082c4.167-4.167,4.167-10.917,0-15.083  C174.042,414.958,167.292,414.958,163.125,419.125z"/>
<g>
</g>
<g>
</g>
<g>
</g>
<g>
</g>
<g>
</g>
<g>
</g>
<g>
</g>
<g>
</g>
<g>
</g>
<g>
</g>
<g>
</g>
<g>
</g>
<g>
</g>
<g>
</g>
<g>
</g>
</svg>
