<?xml version="1.0" encoding="iso-8859-1"?>
<!-- Generator: Adobe Illustrator 19.0.0, SVG Export Plug-In . SVG Version: 6.00 Build 0)  -->
<svg xmlns="http://www.w3.org/2000/svg" xmlns:xlink="http://www.w3.org/1999/xlink" version="1.1" id="Capa_1" x="0px" y="0px" viewBox="0 0 512 512" style="enable-background:new 0 0 512 512;" xml:space="preserve">
<path style="fill:#303C42;" d="M256,0C114.844,0,0,114.844,0,256s114.844,256,256,256s256-114.844,256-256S397.156,0,256,0z"/>
<path style="fill:#FFF4D4;" d="M256,490.667C126.604,490.667,21.333,385.396,21.333,256S126.604,21.333,256,21.333  S490.667,126.604,490.667,256S385.396,490.667,256,490.667z"/>
<path style="opacity:0.05;enable-background:new    ;" d="M380.121,57.212C402.717,93.27,416,135.733,416,181.333  C416,310.729,310.729,416,181.333,416c-45.6,0-88.064-13.283-124.121-35.879C98.736,446.378,172.204,490.667,256,490.667  c129.396,0,234.667-105.271,234.667-234.667C490.667,172.204,446.378,98.736,380.121,57.212z"/>
<ellipse style="fill:#303C42;" cx="106.667" cy="224" rx="42.667" ry="53.333"/>
<path style="fill:#FFF4D4;" d="M106.667,256c-11.563,0-21.333-14.656-21.333-32s9.771-32,21.333-32S128,206.656,128,224  S118.229,256,106.667,256z"/>
<path style="fill:#303C42;" d="M108.24,298.667c-6.771,0-12.792,3.031-16.958,8.531c-6.479,8.583-7.75,22.083-3.5,37.052  C93.25,363.521,108.656,384,126.427,384c6.771,0,12.792-3.031,16.958-8.531c6.479-8.583,7.75-22.083,3.5-37.052  C141.417,319.146,126.01,298.667,108.24,298.667z"/>
<path style="fill:#FFF4D4;" d="M126.427,362.667c-3.958,0-13.854-9.208-18.125-24.25c-3.198-11.25-0.958-17.615-0.063-18.417  c3.958,0,13.854,9.208,18.125,24.25C129.563,355.5,127.323,361.865,126.427,362.667z"/>
<path style="opacity:0.1;enable-background:new    ;" d="M106.667,256c-11.563,0-21.333-14.656-21.333-32s9.771-32,21.333-32  S128,206.656,128,224S118.229,256,106.667,256z"/>
<path style="opacity:0.1;enable-background:new    ;" d="M96,245.333c0-17.344,9.771-32,21.333-32c3.685,0,7.139,1.616,10.202,4.206  C125.478,203.168,116.758,192,106.667,192c-11.563,0-21.333,14.656-21.333,32c0,11.815,4.585,22.258,11.132,27.794  C96.165,249.699,96,247.54,96,245.333z"/>
<path style="opacity:0.1;enable-background:new    ;" d="M126.427,362.667c-3.958,0-13.854-9.208-18.125-24.25  c-3.198-11.25-0.958-17.615-0.063-18.417c3.958,0,13.854,9.208,18.125,24.25C129.563,355.5,127.323,361.865,126.427,362.667z"/>
<linearGradient id="SVGID_1_" gradientUnits="userSpaceOnUse" x1="-45.5784" y1="639.555" x2="-23.8278" y2="629.4138" gradientTransform="matrix(21.3333 0 0 -21.3333 996.3334 13791.667)">
	<stop offset="0" style="stop-color:#FFFFFF;stop-opacity:0.2"/>
	<stop offset="1" style="stop-color:#FFFFFF;stop-opacity:0"/>
</linearGradient>
<path style="fill:url(#SVGID_1_);" d="M256,0C114.844,0,0,114.844,0,256s114.844,256,256,256s256-114.844,256-256S397.156,0,256,0z"/>
<g>
</g>
<g>
</g>
<g>
</g>
<g>
</g>
<g>
</g>
<g>
</g>
<g>
</g>
<g>
</g>
<g>
</g>
<g>
</g>
<g>
</g>
<g>
</g>
<g>
</g>
<g>
</g>
<g>
</g>
</svg>
