<?xml version="1.0" encoding="iso-8859-1"?>
<!-- Generator: Adobe Illustrator 19.0.0, SVG Export Plug-In . SVG Version: 6.00 Build 0)  -->
<svg xmlns="http://www.w3.org/2000/svg" xmlns:xlink="http://www.w3.org/1999/xlink" version="1.1" id="Capa_1" x="0px" y="0px" viewBox="0 0 512 512" style="enable-background:new 0 0 512 512;" xml:space="preserve">
<path style="fill:#303C42;" d="M372.5,28.229c-4.104-2.094-9.146-1.344-12.417,1.948c-3.271,3.271-4.063,8.281-1.958,12.406  C375.292,76.094,384,112.01,384,149.333C384,278.729,278.729,384,149.333,384c-37.333,0-73.25-8.708-106.771-25.875  c-4.104-2.125-9.125-1.344-12.396,1.948c-3.271,3.271-4.063,8.281-1.958,12.406C72.313,458.542,159.604,512,256,512  c141.167,0,256-114.844,256-256C512,159.604,458.542,72.323,372.5,28.229z"/>
<path style="fill:#FFF4D4;" d="M256,490.667c-77.438,0-148.479-37.646-192.063-100.073c27.375,9.792,55.979,14.74,85.396,14.74  c141.167,0,256-114.844,256-256c0-29.406-4.938-58-14.729-85.385C453.021,107.542,490.667,178.563,490.667,256  C490.667,385.396,385.396,490.667,256,490.667z"/>
<path style="opacity:0.1;enable-background:new    ;" d="M454.69,131.75c9.509,25.658,14.674,53.182,14.674,81.609  c0,129.396-105.271,234.667-234.667,234.667c-53.284,0-103.294-18.161-143.66-49.618c-9.139-2.155-18.206-4.633-27.1-7.814  C107.521,453.021,178.563,490.667,256,490.667c129.396,0,234.667-105.271,234.667-234.667  C490.667,210.971,477.616,168.309,454.69,131.75z"/>
<path style="fill:#303C42;" d="M117.333,106.667c41.167,0,74.667,33.5,74.667,74.667c0,5.896,4.771,10.667,10.667,10.667  s10.667-4.771,10.667-10.667c0-41.167,33.5-74.667,74.667-74.667c5.896,0,10.667-4.771,10.667-10.667  c0-5.896-4.771-10.667-10.667-10.667c-41.167,0-74.667-33.5-74.667-74.667C213.333,4.771,208.563,0,202.667,0S192,4.771,192,10.667  c0,41.167-33.5,74.667-74.667,74.667c-5.896,0-10.667,4.771-10.667,10.667C106.667,101.896,111.438,106.667,117.333,106.667z"/>
<path style="fill:#FFCA28;" d="M202.667,54.625c9.167,17.708,23.667,32.219,41.375,41.375  c-17.708,9.156-32.208,23.667-41.375,41.375C193.5,119.667,179,105.156,161.292,96C179,86.844,193.5,72.333,202.667,54.625z"/>
<path style="opacity:0.2;fill:#FFFFFF;enable-background:new    ;" d="M170.667,101.333c15.215-8.85,27.915-22.181,37.27-38.208  c-1.831-2.784-3.729-5.525-5.27-8.5C193.5,72.333,179,86.844,161.292,96c8.426,4.357,16.06,9.999,22.803,16.548  C179.861,107.967,175.38,104.074,170.667,101.333z"/>
<g>
	<path style="fill:#303C42;" d="M194.635,256c-18.688,0-28.719-6.969-36.771-12.573c-7.042-4.896-12.604-8.76-24.604-8.76   c-11.979,0-17.531,3.865-24.563,8.75C100.646,249.021,90.615,256,71.938,256c-18.667,0-28.688-6.979-36.729-12.583   c-7.021-4.885-12.573-8.75-24.542-8.75C4.771,234.667,0,229.896,0,224c0-5.896,4.771-10.667,10.667-10.667   c18.667,0,28.688,6.979,36.729,12.583c7.021,4.885,12.573,8.75,24.542,8.75c11.99,0,17.542-3.865,24.573-8.76   c8.052-5.604,18.073-12.573,36.75-12.573c18.688,0,28.719,6.969,36.781,12.573c7.031,4.896,12.594,8.76,24.594,8.76   c11.99,0,17.552-3.865,24.583-8.76c8.063-5.604,18.094-12.573,36.781-12.573c5.896,0,10.667,4.771,10.667,10.667   c0,5.896-4.771,10.667-10.667,10.667c-12,0-17.563,3.865-24.594,8.76C223.344,249.031,213.313,256,194.635,256z"/>
	<path style="fill:#303C42;" d="M194.635,448c-18.688,0-28.719-6.969-36.771-12.573c-7.042-4.896-12.604-8.76-24.604-8.76   c-11.979,0-17.531,3.865-24.563,8.75C100.646,441.021,90.615,448,71.938,448c-18.667,0-28.688-6.979-36.729-12.583   c-7.021-4.885-12.573-8.75-24.542-8.75C4.771,426.667,0,421.896,0,416c0-5.896,4.771-10.667,10.667-10.667   c18.667,0,28.688,6.979,36.729,12.583c7.021,4.885,12.573,8.75,24.542,8.75c11.99,0,17.542-3.865,24.573-8.76   c8.052-5.604,18.073-12.573,36.75-12.573c18.688,0,28.719,6.969,36.781,12.573c7.031,4.896,12.594,8.76,24.594,8.76   c11.99,0,17.552-3.865,24.583-8.76c8.063-5.604,18.094-12.573,36.781-12.573c5.896,0,10.667,4.771,10.667,10.667   c0,5.896-4.771,10.667-10.667,10.667c-12,0-17.563,3.865-24.594,8.76C223.344,441.031,213.313,448,194.635,448z"/>
	<path style="fill:#303C42;" d="M71.938,384c-18.667,0-28.688-6.979-36.729-12.583c-7.021-4.885-12.573-8.75-24.542-8.75   C4.771,362.667,0,357.896,0,352c0-5.896,4.771-10.667,10.667-10.667c18.667,0,28.688,6.979,36.729,12.583   c7.021,4.885,12.573,8.75,24.542,8.75c5.896,0,10.667,4.771,10.667,10.667S77.833,384,71.938,384z"/>
	<path style="fill:#303C42;" d="M320,384c-18.438,0-28.698-6.563-37.75-12.344c-7.844-5.021-14.052-8.99-26.25-8.99   c-12,0-17.563,3.865-24.594,8.76C223.344,377.031,213.313,384,194.635,384c-18.688,0-28.719-6.969-36.781-12.573   c-7.031-4.896-12.594-8.76-24.594-8.76c-5.896,0-10.667-4.771-10.667-10.667c0-5.896,4.771-10.667,10.667-10.667   c18.688,0,28.719,6.969,36.771,12.573c7.042,4.896,12.604,8.76,24.604,8.76c11.99,0,17.552-3.865,24.583-8.76   c8.063-5.604,18.094-12.573,36.781-12.573c18.438,0,28.698,6.563,37.75,12.344c7.844,5.021,14.052,8.99,26.25,8.99   c5.896,0,10.667,4.771,10.667,10.667S325.896,384,320,384z"/>
	<path style="fill:#303C42;" d="M71.938,320c-18.667,0-28.688-6.979-36.729-12.583c-7.021-4.885-12.573-8.75-24.542-8.75   C4.771,298.667,0,293.896,0,288c0-5.896,4.771-10.667,10.667-10.667c18.667,0,28.688,6.979,36.729,12.583   c7.021,4.885,12.573,8.75,24.542,8.75c11.99,0,17.542-3.865,24.573-8.76c8.052-5.604,18.073-12.573,36.75-12.573   c5.896,0,10.667,4.771,10.667,10.667c0,5.896-4.771,10.667-10.667,10.667c-11.979,0-17.531,3.865-24.563,8.75   C100.646,313.021,90.615,320,71.938,320z"/>
	<path style="fill:#303C42;" d="M317.271,320c-18.667,0-28.688-6.979-36.729-12.583c-7.021-4.885-12.573-8.75-24.542-8.75   c-12,0-17.563,3.865-24.594,8.76C223.344,313.031,213.313,320,194.635,320c-5.896,0-10.667-4.771-10.667-10.667   s4.771-10.667,10.667-10.667c11.99,0,17.552-3.865,24.583-8.76c8.063-5.604,18.094-12.573,36.781-12.573   c18.667,0,28.688,6.979,36.729,12.583c7.021,4.885,12.573,8.75,24.542,8.75c11.99,0,17.542-3.865,24.573-8.76   c8.052-5.604,18.073-12.573,36.75-12.573c5.896,0,10.667,4.771,10.667,10.667c0,5.896-4.771,10.667-10.667,10.667   c-11.979,0-17.531,3.865-24.563,8.75C345.979,313.021,335.948,320,317.271,320z"/>
</g>
<linearGradient id="SVGID_1_" gradientUnits="userSpaceOnUse" x1="-45.2134" y1="639.2902" x2="-23.8647" y2="629.3344" gradientTransform="matrix(21.3333 0 0 -21.3333 996.3334 13791.667)">
	<stop offset="0" style="stop-color:#FFFFFF;stop-opacity:0.2"/>
	<stop offset="1" style="stop-color:#FFFFFF;stop-opacity:0"/>
</linearGradient>
<path style="fill:url(#SVGID_1_);" d="M10.667,298.667c11.969,0,17.521,3.865,24.542,8.75C43.25,313.021,53.271,320,71.938,320  c18.677,0,28.708-6.979,36.76-12.583c7.031-4.885,12.583-8.75,24.563-8.75c5.896,0,10.667-4.771,10.667-10.667  c0-5.896-4.771-10.667-10.667-10.667c-18.677,0-28.698,6.969-36.75,12.573c-7.031,4.896-12.583,8.76-24.573,8.76  c-11.969,0-17.521-3.865-24.542-8.75c-8.042-5.604-18.063-12.583-36.729-12.583C4.771,277.333,0,282.104,0,288  C0,293.896,4.771,298.667,10.667,298.667z M117.333,106.667c41.167,0,74.667,33.5,74.667,74.667c0,5.896,4.771,10.667,10.667,10.667  s10.667-4.771,10.667-10.667c0-41.167,33.5-74.667,74.667-74.667c5.896,0,10.667-4.771,10.667-10.667  c0-5.896-4.771-10.667-10.667-10.667c-41.167,0-74.667-33.5-74.667-74.667C213.333,4.771,208.563,0,202.667,0S192,4.771,192,10.667  c0,41.167-33.5,74.667-74.667,74.667c-5.896,0-10.667,4.771-10.667,10.667C106.667,101.896,111.438,106.667,117.333,106.667z   M10.667,234.667c11.969,0,17.521,3.865,24.542,8.75C43.25,249.021,53.271,256,71.938,256c18.677,0,28.708-6.979,36.76-12.583  c7.031-4.885,12.583-8.75,24.563-8.75c12,0,17.563,3.865,24.604,8.76c8.052,5.604,18.083,12.573,36.771,12.573  c18.677,0,28.708-6.969,36.771-12.573c7.031-4.896,12.594-8.76,24.594-8.76c5.896,0,10.667-4.771,10.667-10.667  c0-5.896-4.771-10.667-10.667-10.667c-18.688,0-28.719,6.969-36.781,12.573c-7.031,4.896-12.594,8.76-24.583,8.76  c-12,0-17.563-3.865-24.594-8.76c-8.063-5.604-18.094-12.573-36.781-12.573c-18.677,0-28.698,6.969-36.75,12.573  c-7.031,4.896-12.583,8.76-24.573,8.76c-11.969,0-17.521-3.865-24.542-8.75c-8.042-5.604-18.063-12.583-36.729-12.583  C4.771,213.333,0,218.104,0,224C0,229.896,4.771,234.667,10.667,234.667z M372.5,28.229c-4.104-2.094-9.146-1.344-12.417,1.948  c-3.271,3.271-4.063,8.281-1.958,12.406C375.292,76.094,384,112.01,384,149.333c0,55.26-19.316,106.027-51.396,146.167  c-4.047,1.902-8.668,3.167-15.333,3.167c-11.969,0-17.521-3.865-24.542-8.75c-8.042-5.604-18.063-12.583-36.729-12.583  c-18.688,0-28.719,6.969-36.781,12.573c-7.031,4.896-12.594,8.76-24.583,8.76c-5.896,0-10.667,4.771-10.667,10.667  S188.74,320,194.635,320c18.677,0,28.708-6.969,36.771-12.573c7.031-4.896,12.594-8.76,24.594-8.76  c11.969,0,17.521,3.865,24.542,8.75c6.966,4.854,15.781,10.465,30.051,11.953c-10.043,9.53-20.845,18.245-32.444,25.896  c-5.956-2.316-13.043-3.932-22.148-3.932c-18.688,0-28.719,6.969-36.781,12.573c-7.031,4.896-12.594,8.76-24.583,8.76  c-12,0-17.563-3.865-24.604-8.76c-8.052-5.604-18.083-12.573-36.771-12.573c-5.896,0-10.667,4.771-10.667,10.667  c0,5.896,4.771,10.667,10.667,10.667c12,0,17.563,3.865,24.594,8.76c5.427,3.772,11.995,8.003,21.245,10.47  c-9.772,1.245-19.66,2.103-29.766,2.103c-22.917,0-45.206-3.68-66.827-10.184c0.008-0.169,0.098-0.311,0.098-0.483  c0-5.896-4.771-10.667-10.667-10.667c-11.969,0-17.521-3.865-24.542-8.75c-8.042-5.604-18.063-12.583-36.729-12.583  C4.771,341.333,0,346.104,0,352c0,5.896,4.771,10.667,10.667,10.667c7.376,0,12.245,1.565,16.592,3.835  c-0.212,2.009-0.014,4.089,0.949,5.978c10.087,19.682,22.526,37.563,36.723,53.585c-7.401-1.225-12.072-4.345-17.535-8.147  c-8.042-5.604-18.063-12.583-36.729-12.583C4.771,405.333,0,410.104,0,416c0,5.896,4.771,10.667,10.667,10.667  c11.969,0,17.521,3.865,24.542,8.75C43.25,441.021,53.271,448,71.938,448c5.065,0,9.401-0.574,13.327-1.434  C131.37,488.049,191.615,512,256,512c141.167,0,256-114.844,256-256C512,159.604,458.542,72.323,372.5,28.229z"/>
<g>
</g>
<g>
</g>
<g>
</g>
<g>
</g>
<g>
</g>
<g>
</g>
<g>
</g>
<g>
</g>
<g>
</g>
<g>
</g>
<g>
</g>
<g>
</g>
<g>
</g>
<g>
</g>
<g>
</g>
</svg>
