<?xml version="1.0" encoding="iso-8859-1"?>
<!-- Generator: Adobe Illustrator 19.0.0, SVG Export Plug-In . SVG Version: 6.00 Build 0)  -->
<svg xmlns="http://www.w3.org/2000/svg" xmlns:xlink="http://www.w3.org/1999/xlink" version="1.1" id="Capa_1" x="0px" y="0px" viewBox="0 0 512 512" style="enable-background:new 0 0 512 512;" xml:space="preserve">
<path style="fill:#303C42;" d="M501.333,245.333H447.46c-2.484-44.888-20.374-85.634-48.572-117.129l38.133-38.142  c4.167-4.167,4.167-10.917,0-15.083c-4.167-4.167-10.917-4.167-15.083,0l-38.133,38.141  c-31.493-28.202-72.243-46.095-117.138-48.579V10.667C266.667,4.771,261.896,0,256,0c-5.896,0-10.667,4.771-10.667,10.667V64.54  c-44.895,2.484-85.645,20.378-117.138,48.579L90.063,74.979c-4.167-4.167-10.917-4.167-15.083,0c-4.167,4.167-4.167,10.917,0,15.083  l38.133,38.142C82.682,162.191,64,206.901,64,256c0,102.264,80.431,185.875,181.333,191.46v53.874  c0,5.896,4.771,10.667,10.667,10.667c5.896,0,10.667-4.771,10.667-10.667V447.46c44.895-2.484,85.645-20.378,117.138-48.579  l38.133,38.141c2.083,2.083,4.813,3.125,7.542,3.125c2.729,0,5.458-1.042,7.542-3.125c4.167-4.167,4.167-10.917,0-15.083  l-38.133-38.142c28.198-31.495,46.087-72.241,48.572-117.129h53.874c5.896,0,10.667-4.771,10.667-10.667  C512,250.104,507.229,245.333,501.333,245.333z"/>
<circle style="fill:#FFCA28;" cx="256" cy="256" r="170.667"/>
<path style="opacity:0.2;fill:#FFFFFF;enable-background:new    ;" d="M96,266.667C96,172.563,172.563,96,266.667,96  c44.342,0,84.658,17.141,115.035,44.965c-31.224-34.09-75.94-55.632-125.702-55.632c-94.104,0-170.667,76.563-170.667,170.667  c0,49.762,21.542,94.478,55.632,125.702C113.141,351.324,96,311.009,96,266.667z"/>
<g>
	<path style="fill:#303C42;" d="M194.625,256c-18.667,0-28.708-6.969-36.75-12.573c-7.042-4.896-12.604-8.76-24.604-8.76   c-11.979,0-17.542,3.865-24.583,8.76C100.646,249.031,90.625,256,71.938,256c-18.667,0-28.667-6.969-36.729-12.573   c-7.021-4.896-12.563-8.76-24.542-8.76C4.771,234.667,0,229.896,0,224c0-5.896,4.771-10.667,10.667-10.667   c18.667,0,28.688,6.979,36.75,12.583c7.021,4.885,12.563,8.75,24.521,8.75c11.979,0,17.542-3.865,24.583-8.76   c8.042-5.604,18.063-12.573,36.75-12.573s28.729,6.979,36.771,12.583c7.042,4.885,12.604,8.75,24.583,8.75   c12,0,17.563-3.865,24.604-8.76c8.063-5.604,18.083-12.573,36.771-12.573c5.896,0,10.667,4.771,10.667,10.667   c0,5.896-4.771,10.667-10.667,10.667c-12,0-17.563,3.865-24.604,8.76C223.333,249.031,213.313,256,194.625,256z"/>
	<path style="fill:#303C42;" d="M194.625,448c-18.667,0-28.708-6.969-36.75-12.573c-7.042-4.896-12.604-8.76-24.604-8.76   c-11.979,0-17.542,3.865-24.583,8.76C100.646,441.031,90.625,448,71.938,448c-18.667,0-28.667-6.969-36.729-12.573   c-7.021-4.896-12.563-8.76-24.542-8.76C4.771,426.667,0,421.896,0,416c0-5.896,4.771-10.667,10.667-10.667   c18.667,0,28.688,6.979,36.75,12.583c7.021,4.885,12.563,8.75,24.521,8.75c11.979,0,17.542-3.865,24.583-8.76   c8.042-5.604,18.063-12.573,36.75-12.573s28.729,6.979,36.771,12.583c7.042,4.885,12.604,8.75,24.583,8.75   c12,0,17.563-3.865,24.604-8.76c8.063-5.604,18.083-12.573,36.771-12.573c5.896,0,10.667,4.771,10.667,10.667   c0,5.896-4.771,10.667-10.667,10.667c-12,0-17.563,3.865-24.604,8.76C223.333,441.031,213.313,448,194.625,448z"/>
	<path style="fill:#303C42;" d="M71.938,384c-18.667,0-28.667-6.969-36.729-12.573c-7.021-4.896-12.563-8.76-24.542-8.76   C4.771,362.667,0,357.896,0,352c0-5.896,4.771-10.667,10.667-10.667c18.667,0,28.688,6.979,36.75,12.583   c7.021,4.885,12.563,8.75,24.521,8.75c5.896,0,10.667,4.771,10.667,10.667S77.833,384,71.938,384z"/>
	<path style="fill:#303C42;" d="M320,384c-18.438,0-28.708-6.563-37.75-12.344c-7.854-5.021-14.042-8.99-26.25-8.99   c-12,0-17.563,3.865-24.604,8.76C223.333,377.031,213.313,384,194.625,384c-18.667,0-28.708-6.969-36.75-12.573   c-7.042-4.896-12.604-8.76-24.604-8.76c-5.896,0-10.667-4.771-10.667-10.667c0-5.896,4.771-10.667,10.667-10.667   c18.688,0,28.729,6.979,36.771,12.583c7.042,4.885,12.604,8.75,24.583,8.75c12,0,17.563-3.865,24.604-8.76   c8.063-5.604,18.083-12.573,36.771-12.573c18.438,0,28.708,6.563,37.75,12.344c7.854,5.021,14.042,8.99,26.25,8.99   c5.896,0,10.667,4.771,10.667,10.667S325.896,384,320,384z"/>
	<path style="fill:#303C42;" d="M71.938,320c-18.667,0-28.667-6.969-36.729-12.573c-7.021-4.896-12.563-8.76-24.542-8.76   C4.771,298.667,0,293.896,0,288c0-5.896,4.771-10.667,10.667-10.667c18.667,0,28.688,6.979,36.75,12.583   c7.021,4.885,12.563,8.75,24.521,8.75c11.979,0,17.542-3.865,24.583-8.76c8.042-5.604,18.063-12.573,36.75-12.573   c5.896,0,10.667,4.771,10.667,10.667c0,5.896-4.771,10.667-10.667,10.667c-11.979,0-17.542,3.865-24.583,8.76   C100.646,313.031,90.625,320,71.938,320z"/>
	<path style="fill:#303C42;" d="M317.271,320c-18.667,0-28.667-6.969-36.729-12.573c-7.021-4.896-12.563-8.76-24.542-8.76   c-12,0-17.563,3.865-24.604,8.76C223.333,313.031,213.313,320,194.625,320c-5.896,0-10.667-4.771-10.667-10.667   s4.771-10.667,10.667-10.667c12,0,17.563-3.865,24.604-8.76c8.063-5.604,18.083-12.573,36.771-12.573   c18.667,0,28.688,6.979,36.75,12.583c7.021,4.885,12.563,8.75,24.521,8.75c11.979,0,17.542-3.865,24.583-8.76   c8.042-5.604,18.063-12.573,36.75-12.573c5.896,0,10.667,4.771,10.667,10.667c0,5.896-4.771,10.667-10.667,10.667   c-11.979,0-17.542,3.865-24.583,8.76C345.979,313.031,335.958,320,317.271,320z"/>
</g>
<linearGradient id="SVGID_1_" gradientUnits="userSpaceOnUse" x1="-45.3584" y1="638.9811" x2="-24.635" y2="629.3234" gradientTransform="matrix(21.3333 0 0 -21.3333 996.3334 13791.667)">
	<stop offset="0" style="stop-color:#FFFFFF;stop-opacity:0.2"/>
	<stop offset="1" style="stop-color:#FFFFFF;stop-opacity:0"/>
</linearGradient>
<path style="fill:url(#SVGID_1_);" d="M501.333,245.333H447.46c-2.484-44.888-20.374-85.634-48.572-117.129l38.133-38.142  c4.167-4.167,4.167-10.917,0-15.083c-4.167-4.167-10.917-4.167-15.083,0l-38.133,38.141  c-31.493-28.202-72.243-46.095-117.138-48.579V10.667C266.667,4.771,261.896,0,256,0c-5.896,0-10.667,4.771-10.667,10.667V64.54  c-44.895,2.484-85.645,20.378-117.138,48.579L90.063,74.979c-4.167-4.167-10.917-4.167-15.083,0c-4.167,4.167-4.167,10.917,0,15.083  l38.133,38.142c-25.831,28.85-43.06,65.469-47.72,105.898c-7.638-1.173-12.41-4.314-17.975-8.186  c-8.063-5.604-18.083-12.583-36.75-12.583C4.771,213.333,0,218.104,0,224c0,5.896,4.771,10.667,10.667,10.667  c11.979,0,17.521,3.865,24.542,8.76c6.786,4.717,15.283,10.147,28.827,11.828C64.034,255.507,64,255.749,64,256  c0,14.595,1.809,28.745,4.91,42.406c-9.763-0.647-15.146-4.073-21.493-8.49c-8.063-5.604-18.083-12.583-36.75-12.583  C4.771,277.333,0,282.104,0,288c0,5.896,4.771,10.667,10.667,10.667c11.979,0,17.521,3.865,24.542,8.76  C43.271,313.031,53.271,320,71.938,320c1.186,0,2.055-0.245,3.172-0.298c12.079,34.118,33.497,63.75,61.26,85.923  c-1.094-0.052-1.94-0.292-3.099-0.292c-18.688,0-28.708,6.969-36.75,12.573c-7.042,4.896-12.604,8.76-24.583,8.76  c-11.958,0-17.5-3.865-24.521-8.75c-8.063-5.604-18.083-12.583-36.75-12.583C4.771,405.333,0,410.104,0,416  c0,5.896,4.771,10.667,10.667,10.667c11.979,0,17.521,3.865,24.542,8.76C43.271,441.031,53.271,448,71.938,448  c18.688,0,28.708-6.969,36.75-12.573c7.042-4.896,12.604-8.76,24.583-8.76c12,0,17.563,3.865,24.604,8.76  c8.042,5.604,18.083,12.573,36.75,12.573c9.569,0,16.826-1.846,22.751-4.382c9.128,1.874,18.413,3.313,27.957,3.841v53.874  c0,5.896,4.771,10.667,10.667,10.667c5.896,0,10.667-4.771,10.667-10.667V447.46c44.895-2.484,85.645-20.378,117.138-48.579  l38.133,38.141c2.083,2.083,4.813,3.125,7.542,3.125c2.729,0,5.458-1.042,7.542-3.125c4.167-4.167,4.167-10.917,0-15.083  l-38.133-38.142c28.198-31.495,46.087-72.241,48.572-117.129h53.874c5.896,0,10.667-4.771,10.667-10.667  C512,250.104,507.229,245.333,501.333,245.333z M10.667,362.667c11.979,0,17.521,3.865,24.542,8.76  C43.271,377.031,53.271,384,71.938,384c5.896,0,10.667-4.771,10.667-10.667s-4.771-10.667-10.667-10.667  c-11.958,0-17.5-3.865-24.521-8.75c-8.063-5.604-18.083-12.583-36.75-12.583C4.771,341.333,0,346.104,0,352  C0,357.896,4.771,362.667,10.667,362.667z"/>
<g>
</g>
<g>
</g>
<g>
</g>
<g>
</g>
<g>
</g>
<g>
</g>
<g>
</g>
<g>
</g>
<g>
</g>
<g>
</g>
<g>
</g>
<g>
</g>
<g>
</g>
<g>
</g>
<g>
</g>
</svg>
