<?xml version="1.0" encoding="iso-8859-1"?>
<!-- Generator: Adobe Illustrator 19.0.0, SVG Export Plug-In . SVG Version: 6.00 Build 0)  -->
<svg xmlns="http://www.w3.org/2000/svg" xmlns:xlink="http://www.w3.org/1999/xlink" version="1.1" id="Capa_1" x="0px" y="0px" viewBox="0 0 512 512" style="enable-background:new 0 0 512 512;" xml:space="preserve">
<path style="fill:#303C42;" d="M394.667,170.667c-0.764,0-1.518,0.172-2.283,0.188C366.75,106.763,304.552,64,234.667,64  c-88.733,0-161.798,67.512-169.565,154.888C27.368,231.831,0,267.266,0,309.333c0,52.938,43.063,96,96,96h298.667  C459.365,405.333,512,352.698,512,288S459.365,170.667,394.667,170.667z"/>
<path style="fill:#64B5F6;" d="M394.667,384H96c-41.167,0-74.667-33.5-74.667-74.667s33.5-74.667,74.667-74.667  c5.896,0,10.667-4.771,10.667-10.667c0-5.896-4.771-10.667-10.667-10.667c-3.094,0-6.016,0.625-9.035,0.913  c9.742-73.219,72.289-128.913,147.702-128.913c59.223,0,112.049,35.141,135.69,88.258c-16.503,3.552-32.367,10.339-46.055,20.513  c-4.729,3.521-5.708,10.198-2.198,14.927c3.5,4.698,10.167,5.688,14.927,2.198C353.708,198.833,374.177,192,394.667,192  c52.938,0,96,43.063,96,96S447.604,384,394.667,384z"/>
<path style="opacity:0.1;enable-background:new    ;" d="M423.802,197.005c8.384,14.25,13.531,30.632,13.531,48.328  c0,52.938-43.063,96-96,96H42.667c-5.016,0-9.906-0.534-14.648-1.482C39.727,365.81,65.728,384,96,384h298.667  c52.938,0,96-43.063,96-96C490.667,245.285,462.44,209.426,423.802,197.005z"/>
<path style="opacity:0.2;fill:#FFFFFF;enable-background:new    ;" d="M370.357,173.591c-0.07-0.158-0.171-0.294-0.241-0.452  c-1.095,0.471-2.206,0.892-3.288,1.396C368.01,174.245,369.167,173.848,370.357,173.591z"/>
<g>
	<path style="fill:#303C42;" d="M415.49,225.906c-8.052-5.604-18.073-12.573-36.75-12.573c-18.688,0-28.719,6.969-36.781,12.573   c-7.031,4.896-12.594,8.76-24.594,8.76c-11.99,0-17.552-3.865-24.583-8.76c-8.063-5.604-18.094-12.573-36.781-12.573   c-5.896,0-10.667,4.771-10.667,10.667c0,5.896,4.771,10.667,10.667,10.667c12,0,17.563,3.865,24.594,8.76   c8.063,5.604,18.094,12.573,36.771,12.573c18.688,0,28.719-6.969,36.771-12.573c7.042-4.896,12.604-8.76,24.604-8.76   c11.979,0,17.531,3.865,24.563,8.75c8.052,5.604,18.083,12.583,36.76,12.583c18.667,0,28.688-6.979,36.729-12.583   c7.021-4.885,12.573-8.75,24.542-8.75c5.896,0,10.667-4.771,10.667-10.667c0-5.896-4.771-10.667-10.667-10.667   c-18.667,0-28.688,6.979-36.729,12.583c-7.021,4.885-12.573,8.75-24.542,8.75C428.073,234.667,422.521,230.802,415.49,225.906z"/>
	<path style="fill:#303C42;" d="M501.333,405.333c-18.667,0-28.688,6.979-36.729,12.583c-7.021,4.885-12.573,8.75-24.542,8.75   c-11.99,0-17.542-3.865-24.573-8.76c-8.052-5.604-18.073-12.573-36.75-12.573c-18.688,0-28.719,6.969-36.781,12.573   c-7.031,4.896-12.594,8.76-24.594,8.76c-11.99,0-17.552-3.865-24.583-8.76c-8.063-5.604-18.094-12.573-36.781-12.573   c-5.896,0-10.667,4.771-10.667,10.667c0,5.896,4.771,10.667,10.667,10.667c12,0,17.563,3.865,24.594,8.76   c8.063,5.604,18.094,12.573,36.771,12.573c18.688,0,28.719-6.969,36.771-12.573c7.042-4.896,12.604-8.76,24.604-8.76   c11.979,0,17.531,3.865,24.563,8.75c8.052,5.604,18.083,12.583,36.76,12.583c18.667,0,28.688-6.979,36.729-12.583   c7.021-4.885,12.573-8.75,24.542-8.75c5.896,0,10.667-4.771,10.667-10.667C512,410.104,507.229,405.333,501.333,405.333z"/>
	<path style="fill:#303C42;" d="M501.333,341.333c-18.667,0-28.688,6.979-36.729,12.583c-7.021,4.885-12.573,8.75-24.542,8.75   c-5.896,0-10.667,4.771-10.667,10.667S434.167,384,440.063,384c18.667,0,28.688-6.979,36.729-12.583   c7.021-4.885,12.573-8.75,24.542-8.75c5.896,0,10.667-4.771,10.667-10.667C512,346.104,507.229,341.333,501.333,341.333z"/>
	<path style="fill:#303C42;" d="M280.594,371.427c8.063,5.604,18.094,12.573,36.771,12.573c18.688,0,28.719-6.969,36.781-12.573   c7.031-4.896,12.594-8.76,24.594-8.76c5.896,0,10.667-4.771,10.667-10.667c0-5.896-4.771-10.667-10.667-10.667   c-18.688,0-28.719,6.969-36.771,12.573c-7.042,4.896-12.604,8.76-24.604,8.76c-11.99,0-17.552-3.865-24.583-8.76   c-8.063-5.604-18.094-12.573-36.781-12.573c-18.438,0-28.698,6.563-37.75,12.344c-7.844,5.021-14.052,8.99-26.25,8.99   c-5.896,0-10.667,4.771-10.667,10.667S186.104,384,192,384c18.438,0,28.698-6.563,37.75-12.344c7.844-5.021,14.052-8.99,26.25-8.99   C268,362.667,273.563,366.531,280.594,371.427z"/>
	<path style="fill:#303C42;" d="M501.333,277.333c-18.667,0-28.688,6.979-36.729,12.583c-7.021,4.885-12.573,8.75-24.542,8.75   c-11.99,0-17.542-3.865-24.573-8.76c-8.052-5.604-18.073-12.573-36.75-12.573c-5.896,0-10.667,4.771-10.667,10.667   c0,5.896,4.771,10.667,10.667,10.667c11.979,0,17.531,3.865,24.563,8.75c8.052,5.604,18.083,12.583,36.76,12.583   c18.667,0,28.688-6.979,36.729-12.583c7.021-4.885,12.573-8.75,24.542-8.75c5.896,0,10.667-4.771,10.667-10.667   C512,282.104,507.229,277.333,501.333,277.333z"/>
</g>
<linearGradient id="SVGID_1_" gradientUnits="userSpaceOnUse" x1="-44.288" y1="638.1509" x2="-22.2388" y2="627.8688" gradientTransform="matrix(21.3333 0 0 -21.3333 996.3334 13791.667)">
	<stop offset="0" style="stop-color:#FFFFFF;stop-opacity:0.2"/>
	<stop offset="1" style="stop-color:#FFFFFF;stop-opacity:0"/>
</linearGradient>
<path style="fill:url(#SVGID_1_);" d="M499.138,234.855c0.772-0.036,1.363-0.189,2.195-0.189c5.896,0,10.667-4.771,10.667-10.667  c0-5.896-4.771-10.667-10.667-10.667c-5.764,0-10.492,0.802-14.803,1.887c-21.512-27.095-54.659-44.553-91.863-44.553  c-0.764,0-1.518,0.172-2.283,0.188C366.75,106.763,304.552,64,234.667,64c-88.733,0-161.798,67.512-169.565,154.888  C27.368,231.831,0,267.266,0,309.333c0,52.938,43.063,96,96,96h160h122.74h15.927c32.411,0,61.789-13.215,83.046-34.534  c6.594-4.573,12.191-8.133,23.621-8.133c5.896,0,10.667-4.771,10.667-10.667c0-5.896-4.771-10.667-10.667-10.667  c-0.896,0-1.538,0.195-2.395,0.227C507.232,325.483,512,307.302,512,288C512,268.862,507.299,250.833,499.138,234.855z   M317.365,426.667c-11.99,0-17.552-3.865-24.583-8.76c-8.063-5.604-18.094-12.573-36.781-12.573  c-5.896,0-10.667,4.771-10.667,10.667c0,5.896,4.771,10.667,10.667,10.667c12,0,17.563,3.865,24.594,8.76  c8.063,5.604,18.094,12.573,36.771,12.573c18.688,0,28.719-6.969,36.771-12.573c7.042-4.896,12.604-8.76,24.604-8.76  c11.979,0,17.531,3.865,24.563,8.75c8.052,5.604,18.083,12.583,36.76,12.583c18.667,0,28.688-6.979,36.729-12.583  c7.021-4.885,12.573-8.75,24.542-8.75c5.896,0,10.667-4.771,10.667-10.667c0-5.896-4.771-10.667-10.667-10.667  c-18.667,0-28.688,6.979-36.729,12.583c-7.021,4.885-12.573,8.75-24.542,8.75c-11.99,0-17.542-3.865-24.573-8.76  c-8.052-5.604-18.073-12.573-36.75-12.573c-18.688,0-28.719,6.969-36.781,12.573C334.927,422.802,329.365,426.667,317.365,426.667z"/>
<g>
</g>
<g>
</g>
<g>
</g>
<g>
</g>
<g>
</g>
<g>
</g>
<g>
</g>
<g>
</g>
<g>
</g>
<g>
</g>
<g>
</g>
<g>
</g>
<g>
</g>
<g>
</g>
<g>
</g>
</svg>
