<?xml version="1.0" encoding="iso-8859-1"?>
<!-- Generator: Adobe Illustrator 19.0.0, SVG Export Plug-In . SVG Version: 6.00 Build 0)  -->
<svg xmlns="http://www.w3.org/2000/svg" xmlns:xlink="http://www.w3.org/1999/xlink" version="1.1" id="Capa_1" x="0px" y="0px" viewBox="0 0 512 512" style="enable-background:new 0 0 512 512;" xml:space="preserve">
<g>
	<path style="fill:#303C42;" d="M501.333,170.667c-34.021,0-51.781,12.344-67.448,23.24c-15,10.427-27.948,19.427-55.292,19.427   c-27.333,0-40.281-9-55.271-19.427c-15.677-10.896-33.427-23.24-67.458-23.24c-34.01,0-51.75,12.344-67.417,23.24   c-14.979,10.427-27.917,19.427-55.24,19.427c-27.292,0-40.208-9-55.177-19.417c-15.646-10.896-33.385-23.25-67.365-23.25   C4.771,170.667,0,175.438,0,181.333C0,187.229,4.771,192,10.667,192c27.292,0,40.208,9,55.177,19.417   c15.646,10.896,33.385,23.25,67.365,23.25c34.01,0,51.76-12.354,67.427-23.25C215.615,201,228.552,192,255.865,192   c27.333,0,40.281,9,55.271,19.427c15.677,10.896,33.427,23.24,67.458,23.24s51.792-12.344,67.469-23.24   C461.052,201,474,192,501.333,192c5.896,0,10.667-4.771,10.667-10.667C512,175.438,507.229,170.667,501.333,170.667z"/>
	<path style="fill:#303C42;" d="M501.333,384c-34.021,0-51.781,12.344-67.448,23.24c-15,10.427-27.948,19.427-55.292,19.427   c-27.333,0-40.281-9-55.271-19.427C307.646,396.344,289.896,384,255.865,384c-5.896,0-10.667,4.771-10.667,10.667   c0,5.896,4.771,10.667,10.667,10.667c27.333,0,40.281,9,55.271,19.427c15.677,10.896,33.427,23.24,67.458,23.24   s51.792-12.344,67.469-23.24c14.99-10.427,27.938-19.427,55.271-19.427c5.896,0,10.667-4.771,10.667-10.667   C512,388.771,507.229,384,501.333,384z"/>
	<path style="fill:#303C42;" d="M133.208,426.667c-27.292,0-40.208-9-55.177-19.417C62.385,396.354,44.646,384,10.667,384   C4.771,384,0,388.771,0,394.667c0,5.896,4.771,10.667,10.667,10.667c27.292,0,40.208,9,55.177,19.417   C81.49,435.646,99.229,448,133.208,448c5.896,0,10.667-4.771,10.667-10.667S139.104,426.667,133.208,426.667z"/>
	<path style="fill:#303C42;" d="M501.333,277.333c-34.021,0-51.781,12.344-67.448,23.24C418.885,311,405.938,320,378.594,320   c-5.896,0-10.667,4.771-10.667,10.667c0,5.896,4.771,10.667,10.667,10.667c34.031,0,51.792-12.344,67.469-23.24   c14.99-10.427,27.938-19.427,55.271-19.427c5.896,0,10.667-4.771,10.667-10.667C512,282.104,507.229,277.333,501.333,277.333z"/>
	<path style="fill:#303C42;" d="M266.531,288c0-5.896-4.771-10.667-10.667-10.667c-34.01,0-51.75,12.344-67.417,23.24   C173.469,311,160.531,320,133.208,320c-27.292,0-40.208-9-55.177-19.417c-15.646-10.896-33.385-23.25-67.365-23.25   C4.771,277.333,0,282.104,0,288c0,5.896,4.771,10.667,10.667,10.667c27.292,0,40.208,9,55.177,19.417   c15.646,10.896,33.385,23.25,67.365,23.25c34.01,0,51.76-12.354,67.427-23.25c14.979-10.417,27.917-19.417,55.229-19.417   C261.76,298.667,266.531,293.896,266.531,288z"/>
	<path style="fill:#303C42;" d="M378.594,128c34.031,0,51.792-12.344,67.469-23.24c14.99-10.427,27.938-19.427,55.271-19.427   c5.896,0,10.667-4.771,10.667-10.667C512,68.771,507.229,64,501.333,64c-34.021,0-51.781,12.344-67.448,23.24   c-15,10.427-27.948,19.427-55.292,19.427c-5.896,0-10.667,4.771-10.667,10.667S372.698,128,378.594,128z"/>
	<path style="fill:#303C42;" d="M10.667,85.333c27.292,0,40.208,9,55.177,19.417C81.49,115.646,99.229,128,133.208,128   c34.01,0,51.76-12.354,67.427-23.25c14.979-10.417,27.917-19.417,55.229-19.417c5.896,0,10.667-4.771,10.667-10.667   c0-5.896-4.771-10.667-10.667-10.667c-34.01,0-51.75,12.344-67.417,23.24c-14.979,10.427-27.917,19.427-55.24,19.427   c-27.292,0-40.208-9-55.177-19.417C62.385,76.354,44.646,64,10.667,64C4.771,64,0,68.771,0,74.667   C0,80.563,4.771,85.333,10.667,85.333z"/>
</g>
<linearGradient id="SVGID_1_" gradientUnits="userSpaceOnUse" x1="-47.4745" y1="641.4421" x2="-21.9317" y2="629.5267" gradientTransform="matrix(21.3333 0 0 -21.3333 996.3334 13791.667)">
	<stop offset="0" style="stop-color:#FFFFFF;stop-opacity:0.2"/>
	<stop offset="1" style="stop-color:#FFFFFF;stop-opacity:0"/>
</linearGradient>
<path style="fill:url(#SVGID_1_);" d="M501.333,170.667c-34.021,0-51.781,12.344-67.448,23.24  c-15,10.427-27.948,19.427-55.292,19.427c-27.333,0-40.281-9-55.271-19.427c-15.677-10.896-33.427-23.24-67.458-23.24  c-34.01,0-51.75,12.344-67.417,23.24c-14.979,10.427-27.917,19.427-55.24,19.427c-27.292,0-40.208-9-55.177-19.417  c-15.646-10.896-33.385-23.25-67.365-23.25C4.771,170.667,0,175.438,0,181.333C0,187.229,4.771,192,10.667,192  c27.292,0,40.208,9,55.177,19.417c15.646,10.896,33.385,23.25,67.365,23.25c34.01,0,51.76-12.354,67.427-23.25  C215.615,201,228.552,192,255.865,192c27.333,0,40.281,9,55.271,19.427c15.677,10.896,33.427,23.24,67.458,23.24  s51.792-12.344,67.469-23.24C461.052,201,474,192,501.333,192c5.896,0,10.667-4.771,10.667-10.667  C512,175.438,507.229,170.667,501.333,170.667z M501.333,384c-34.021,0-51.781,12.344-67.448,23.24  c-15,10.427-27.948,19.427-55.292,19.427c-27.333,0-40.281-9-55.271-19.427C307.646,396.344,289.896,384,255.865,384  c-5.896,0-10.667,4.771-10.667,10.667c0,5.896,4.771,10.667,10.667,10.667c27.333,0,40.281,9,55.271,19.427  c15.677,10.896,33.427,23.24,67.458,23.24s51.792-12.344,67.469-23.24c14.99-10.427,27.938-19.427,55.271-19.427  c5.896,0,10.667-4.771,10.667-10.667C512,388.771,507.229,384,501.333,384z M133.208,426.667c-27.292,0-40.208-9-55.177-19.417  C62.385,396.354,44.646,384,10.667,384C4.771,384,0,388.771,0,394.667c0,5.896,4.771,10.667,10.667,10.667  c27.292,0,40.208,9,55.177,19.417C81.49,435.646,99.229,448,133.208,448c5.896,0,10.667-4.771,10.667-10.667  S139.104,426.667,133.208,426.667z M501.333,277.333c-34.021,0-51.781,12.344-67.448,23.24C418.885,311,405.938,320,378.594,320  c-5.896,0-10.667,4.771-10.667,10.667c0,5.896,4.771,10.667,10.667,10.667c34.031,0,51.792-12.344,67.469-23.24  c14.99-10.427,27.938-19.427,55.271-19.427c5.896,0,10.667-4.771,10.667-10.667C512,282.104,507.229,277.333,501.333,277.333z   M266.531,288c0-5.896-4.771-10.667-10.667-10.667c-34.01,0-51.75,12.344-67.417,23.24C173.469,311,160.531,320,133.208,320  c-27.292,0-40.208-9-55.177-19.417c-15.646-10.896-33.385-23.25-67.365-23.25C4.771,277.333,0,282.104,0,288  c0,5.896,4.771,10.667,10.667,10.667c27.292,0,40.208,9,55.177,19.417c15.646,10.896,33.385,23.25,67.365,23.25  c34.01,0,51.76-12.354,67.427-23.25c14.979-10.417,27.917-19.417,55.229-19.417C261.76,298.667,266.531,293.896,266.531,288z   M378.594,128c34.031,0,51.792-12.344,67.469-23.24c14.99-10.427,27.938-19.427,55.271-19.427c5.896,0,10.667-4.771,10.667-10.667  C512,68.771,507.229,64,501.333,64c-34.021,0-51.781,12.344-67.448,23.24c-15,10.427-27.948,19.427-55.292,19.427  c-5.896,0-10.667,4.771-10.667,10.667S372.698,128,378.594,128z M10.667,85.333c27.292,0,40.208,9,55.177,19.417  C81.49,115.646,99.229,128,133.208,128c34.01,0,51.76-12.354,67.427-23.25c14.979-10.417,27.917-19.417,55.229-19.417  c5.896,0,10.667-4.771,10.667-10.667c0-5.896-4.771-10.667-10.667-10.667c-34.01,0-51.75,12.344-67.417,23.24  c-14.979,10.427-27.917,19.427-55.24,19.427c-27.292,0-40.208-9-55.177-19.417C62.385,76.354,44.646,64,10.667,64  C4.771,64,0,68.771,0,74.667C0,80.563,4.771,85.333,10.667,85.333z"/>
<g>
</g>
<g>
</g>
<g>
</g>
<g>
</g>
<g>
</g>
<g>
</g>
<g>
</g>
<g>
</g>
<g>
</g>
<g>
</g>
<g>
</g>
<g>
</g>
<g>
</g>
<g>
</g>
<g>
</g>
</svg>
