<?xml version="1.0" encoding="iso-8859-1"?>
<!-- Generator: Adobe Illustrator 19.0.0, SVG Export Plug-In . SVG Version: 6.00 Build 0)  -->
<svg xmlns="http://www.w3.org/2000/svg" xmlns:xlink="http://www.w3.org/1999/xlink" version="1.1" id="Capa_1" x="0px" y="0px" viewBox="0 0 512 512" style="enable-background:new 0 0 512 512;" xml:space="preserve">
<g>
	<path style="fill:#303C42;" d="M458.667,149.333c-17.646,0-32,14.354-32,32s14.354,32,32,32c17.646,0,32-14.354,32-32   S476.313,149.333,458.667,149.333z M458.667,192c-5.885,0-10.667-4.781-10.667-10.667c0-5.885,4.781-10.667,10.667-10.667   c5.885,0,10.667,4.781,10.667,10.667C469.333,187.219,464.552,192,458.667,192z"/>
	<path style="fill:#303C42;" d="M394.667,149.333H288c-5.896,0-10.667,4.771-10.667,10.667v170.667   c0,5.896,4.771,10.667,10.667,10.667c5.896,0,10.667-4.771,10.667-10.667V256h74.667c5.896,0,10.667-4.771,10.667-10.667   c0-5.896-4.771-10.667-10.667-10.667h-74.667v-64h96c5.896,0,10.667-4.771,10.667-10.667   C405.333,154.104,400.563,149.333,394.667,149.333z"/>
	<path style="fill:#303C42;" d="M234.667,385.406V53.333C234.667,23.927,210.74,0,181.333,0S128,23.927,128,53.333v332.073   c-13.615,13.958-21.333,32.625-21.333,51.927c0,41.167,33.5,74.667,74.667,74.667S256,478.5,256,437.333   C256,418.031,248.281,399.365,234.667,385.406z"/>
</g>
<path style="fill:#E6E6E6;" d="M181.333,490.667c-29.406,0-53.333-23.927-53.333-53.333c0-15.104,6.323-29.125,17.813-39.469  c2.24-2.031,3.521-4.906,3.521-7.927V53.333c0-17.646,14.354-32,32-32s32,14.354,32,32v336.604c0,3.021,1.281,5.896,3.521,7.927  c11.49,10.344,17.813,24.365,17.813,39.469C234.667,466.74,210.74,490.667,181.333,490.667z"/>
<path style="opacity:0.2;fill:#FFFFFF;enable-background:new    ;" d="M138.667,448c0-15.104,6.323-29.125,17.813-39.469  c2.24-2.031,3.521-4.906,3.521-7.927V64c0-17.646,14.354-32,32-32c6.086,0,11.723,1.801,16.572,4.762  c-5.625-9.21-15.678-15.428-27.238-15.428c-17.646,0-32,14.354-32,32v336.604c0,3.021-1.281,5.896-3.521,7.927  C134.323,408.208,128,422.229,128,437.333c0,17.423,8.52,32.779,21.482,42.518C142.784,470.936,138.667,459.983,138.667,448z"/>
<g>
	<path style="fill:#303C42;" d="M96,341.333H32c-5.896,0-10.667,4.771-10.667,10.667c0,5.896,4.771,10.667,10.667,10.667h64   c5.896,0,10.667-4.771,10.667-10.667C106.667,346.104,101.896,341.333,96,341.333z"/>
	<path style="fill:#303C42;" d="M96,298.667H74.667c-5.896,0-10.667,4.771-10.667,10.667S68.771,320,74.667,320H96   c5.896,0,10.667-4.771,10.667-10.667S101.896,298.667,96,298.667z"/>
	<path style="fill:#303C42;" d="M96,256H74.667C68.771,256,64,260.771,64,266.667c0,5.896,4.771,10.667,10.667,10.667H96   c5.896,0,10.667-4.771,10.667-10.667C106.667,260.771,101.896,256,96,256z"/>
	<path style="fill:#303C42;" d="M32,234.667h64c5.896,0,10.667-4.771,10.667-10.667c0-5.896-4.771-10.667-10.667-10.667H32   c-5.896,0-10.667,4.771-10.667,10.667C21.333,229.896,26.104,234.667,32,234.667z"/>
	<path style="fill:#303C42;" d="M32,106.667h64c5.896,0,10.667-4.771,10.667-10.667c0-5.896-4.771-10.667-10.667-10.667H32   c-5.896,0-10.667,4.771-10.667,10.667C21.333,101.896,26.104,106.667,32,106.667z"/>
	<path style="fill:#303C42;" d="M96,170.667H74.667c-5.896,0-10.667,4.771-10.667,10.667C64,187.229,68.771,192,74.667,192H96   c5.896,0,10.667-4.771,10.667-10.667C106.667,175.438,101.896,170.667,96,170.667z"/>
	<path style="fill:#303C42;" d="M96,128H74.667C68.771,128,64,132.771,64,138.667s4.771,10.667,10.667,10.667H96   c5.896,0,10.667-4.771,10.667-10.667S101.896,128,96,128z"/>
</g>
<path style="fill:#D32F2F;" d="M192,419.275V224c0-5.896-4.771-10.667-10.667-10.667c-5.896,0-10.667,4.771-10.667,10.667v195.275  C164.408,422.996,160,429.533,160,437.333c0,11.771,9.563,21.333,21.333,21.333c11.771,0,21.333-9.563,21.333-21.333  C202.667,429.533,198.259,422.996,192,419.275z"/>
<linearGradient id="SVGID_1_" gradientUnits="userSpaceOnUse" x1="-47.2987" y1="638.6733" x2="-27.525" y2="629.4544" gradientTransform="matrix(21.3333 0 0 -21.3333 996.3334 13791.667)">
	<stop offset="0" style="stop-color:#FFFFFF;stop-opacity:0.2"/>
	<stop offset="1" style="stop-color:#FFFFFF;stop-opacity:0"/>
</linearGradient>
<path style="fill:url(#SVGID_1_);" d="M458.667,149.333c-17.646,0-32,14.354-32,32s14.354,32,32,32c17.646,0,32-14.354,32-32  S476.313,149.333,458.667,149.333z M458.667,192c-5.885,0-10.667-4.781-10.667-10.667c0-5.885,4.781-10.667,10.667-10.667  c5.885,0,10.667,4.781,10.667,10.667C469.333,187.219,464.552,192,458.667,192z M394.667,149.333H288  c-5.896,0-10.667,4.771-10.667,10.667v170.667c0,5.896,4.771,10.667,10.667,10.667c5.896,0,10.667-4.771,10.667-10.667V256h74.667  c5.896,0,10.667-4.771,10.667-10.667c0-5.896-4.771-10.667-10.667-10.667h-74.667v-64h96c5.896,0,10.667-4.771,10.667-10.667  C405.333,154.104,400.563,149.333,394.667,149.333z M234.667,53.333C234.667,23.927,210.74,0,181.333,0S128,23.927,128,53.333  v332.073c-13.615,13.958-21.333,32.625-21.333,51.927c0,41.167,33.5,74.667,74.667,74.667S256,478.5,256,437.333  c0-19.302-7.719-37.969-21.333-51.927V53.333z M96,341.333H32c-5.896,0-10.667,4.771-10.667,10.667  c0,5.896,4.771,10.667,10.667,10.667h64c5.896,0,10.667-4.771,10.667-10.667C106.667,346.104,101.896,341.333,96,341.333z   M96,298.667H74.667c-5.896,0-10.667,4.771-10.667,10.667S68.771,320,74.667,320H96c5.896,0,10.667-4.771,10.667-10.667  S101.896,298.667,96,298.667z M96,256H74.667C68.771,256,64,260.771,64,266.667c0,5.896,4.771,10.667,10.667,10.667H96  c5.896,0,10.667-4.771,10.667-10.667C106.667,260.771,101.896,256,96,256z M32,234.667h64c5.896,0,10.667-4.771,10.667-10.667  c0-5.896-4.771-10.667-10.667-10.667H32c-5.896,0-10.667,4.771-10.667,10.667C21.333,229.896,26.104,234.667,32,234.667z   M32,106.667h64c5.896,0,10.667-4.771,10.667-10.667c0-5.896-4.771-10.667-10.667-10.667H32c-5.896,0-10.667,4.771-10.667,10.667  C21.333,101.896,26.104,106.667,32,106.667z M96,170.667H74.667c-5.896,0-10.667,4.771-10.667,10.667  C64,187.229,68.771,192,74.667,192H96c5.896,0,10.667-4.771,10.667-10.667C106.667,175.438,101.896,170.667,96,170.667z M96,128  H74.667C68.771,128,64,132.771,64,138.667s4.771,10.667,10.667,10.667H96c5.896,0,10.667-4.771,10.667-10.667S101.896,128,96,128z"/>
<g>
</g>
<g>
</g>
<g>
</g>
<g>
</g>
<g>
</g>
<g>
</g>
<g>
</g>
<g>
</g>
<g>
</g>
<g>
</g>
<g>
</g>
<g>
</g>
<g>
</g>
<g>
</g>
<g>
</g>
</svg>
