<?xml version="1.0" encoding="iso-8859-1"?>
<!-- Generator: Adobe Illustrator 19.0.0, SVG Export Plug-In . SVG Version: 6.00 Build 0)  -->
<svg xmlns="http://www.w3.org/2000/svg" xmlns:xlink="http://www.w3.org/1999/xlink" version="1.1" id="Capa_1" x="0px" y="0px" viewBox="0 0 512 512" style="enable-background:new 0 0 512 512;" xml:space="preserve">
<path style="fill:#303C42;" d="M250.107,341.695c16.979-20.355,27.227-46.512,27.227-75.029c0-28.517-10.247-54.673-27.227-75.029  l23.039-23.023c4.167-4.156,4.167-10.917,0-15.083c-4.167-4.167-10.917-4.167-15.083,0l-23.04,23.025  c-17.786-14.833-40.008-24.474-64.355-26.682v-32.54c0-5.896-4.771-10.667-10.667-10.667c-5.896,0-10.667,4.771-10.667,10.667v32.54  c-24.348,2.208-46.569,11.849-64.355,26.682l-23.04-23.025c-4.167-4.167-10.917-4.167-15.083,0c-4.167,4.167-4.167,10.927,0,15.083  l23.039,23.023C55.057,209.423,45.415,231.648,43.207,256h-32.54C4.771,256,0,260.771,0,266.667c0,5.896,4.771,10.667,10.667,10.667  h32.54c2.208,24.352,11.85,46.577,26.686,64.362l-23.039,23.023c-4.167,4.156-4.167,10.917,0,15.083  c2.083,2.083,4.813,3.125,7.542,3.125c2.729,0,5.458-1.042,7.542-3.125l23.04-23.025c17.786,14.833,40.008,24.474,64.355,26.682V416  c0,5.896,4.771,10.667,10.667,10.667c5.896,0,10.667-4.771,10.667-10.667v-32.54c24.348-2.208,46.569-11.849,64.355-26.682  l23.04,23.025c2.083,2.083,4.813,3.125,7.542,3.125c2.729,0,5.458-1.042,7.542-3.125c4.167-4.167,4.167-10.927,0-15.083  L250.107,341.695z"/>
<circle style="fill:#FFCA28;" cx="160" cy="266.667" r="96"/>
<g>
	<path style="fill:#303C42;" d="M501.333,341.333h-64c-5.896,0-10.667,4.771-10.667,10.667c0,5.896,4.771,10.667,10.667,10.667h64   c5.896,0,10.667-4.771,10.667-10.667C512,346.104,507.229,341.333,501.333,341.333z"/>
	<path style="fill:#303C42;" d="M437.333,320h21.333c5.896,0,10.667-4.771,10.667-10.667s-4.771-10.667-10.667-10.667h-21.333   c-5.896,0-10.667,4.771-10.667,10.667S431.438,320,437.333,320z"/>
	<path style="fill:#303C42;" d="M437.333,277.333h21.333c5.896,0,10.667-4.771,10.667-10.667c0-5.896-4.771-10.667-10.667-10.667   h-21.333c-5.896,0-10.667,4.771-10.667,10.667C426.667,272.563,431.438,277.333,437.333,277.333z"/>
	<path style="fill:#303C42;" d="M501.333,213.333h-64c-5.896,0-10.667,4.771-10.667,10.667c0,5.896,4.771,10.667,10.667,10.667h64   c5.896,0,10.667-4.771,10.667-10.667C512,218.104,507.229,213.333,501.333,213.333z"/>
	<path style="fill:#303C42;" d="M437.333,106.667h64c5.896,0,10.667-4.771,10.667-10.667c0-5.896-4.771-10.667-10.667-10.667h-64   c-5.896,0-10.667,4.771-10.667,10.667C426.667,101.896,431.438,106.667,437.333,106.667z"/>
	<path style="fill:#303C42;" d="M437.333,192h21.333c5.896,0,10.667-4.771,10.667-10.667c0-5.896-4.771-10.667-10.667-10.667   h-21.333c-5.896,0-10.667,4.771-10.667,10.667C426.667,187.229,431.438,192,437.333,192z"/>
	<path style="fill:#303C42;" d="M437.333,149.333h21.333c5.896,0,10.667-4.771,10.667-10.667S464.563,128,458.667,128h-21.333   c-5.896,0-10.667,4.771-10.667,10.667S431.438,149.333,437.333,149.333z"/>
	<path style="fill:#303C42;" d="M405.333,385.406V53.333C405.333,23.927,381.406,0,352,0s-53.333,23.927-53.333,53.333v332.073   c-13.615,13.958-21.333,32.625-21.333,51.927C277.333,478.5,310.833,512,352,512s74.667-33.5,74.667-74.667   C426.667,418.031,418.948,399.365,405.333,385.406z"/>
</g>
<path style="fill:#E6E6E6;" d="M352,490.667c-29.406,0-53.333-23.927-53.333-53.333c0-15.104,6.323-29.125,17.813-39.469  c2.24-2.031,3.521-4.906,3.521-7.927V53.333c0-17.646,14.354-32,32-32c17.646,0,32,14.354,32,32v336.604  c0,3.021,1.281,5.896,3.521,7.927c11.49,10.344,17.813,24.365,17.813,39.469C405.333,466.74,381.406,490.667,352,490.667z"/>
<path style="opacity:0.2;fill:#FFFFFF;enable-background:new    ;" d="M309.333,448c0-15.104,6.323-29.125,17.813-39.469  c2.24-2.031,3.521-4.906,3.521-7.927V64c0-17.646,14.354-32,32-32c6.086,0,11.723,1.801,16.572,4.762  c-5.625-9.21-15.678-15.428-27.238-15.428c-17.646,0-32,14.354-32,32v336.604c0,3.021-1.281,5.896-3.521,7.927  c-11.49,10.344-17.813,24.365-17.813,39.469c0,17.423,8.52,32.779,21.482,42.518C313.451,470.936,309.333,459.983,309.333,448z"/>
<path style="fill:#D32F2F;" d="M362.667,419.275V224c0-5.896-4.771-10.667-10.667-10.667c-5.896,0-10.667,4.771-10.667,10.667  v195.275c-6.259,3.721-10.667,10.258-10.667,18.059c0,11.771,9.563,21.333,21.333,21.333c11.771,0,21.333-9.563,21.333-21.333  C373.333,429.533,368.926,422.996,362.667,419.275z"/>
<linearGradient id="SVGID_1_" gradientUnits="userSpaceOnUse" x1="-43.867" y1="640.7316" x2="-22.3238" y2="630.6865" gradientTransform="matrix(21.3333 0 0 -21.3333 996.3334 13791.667)">
	<stop offset="0" style="stop-color:#FFFFFF;stop-opacity:0.2"/>
	<stop offset="1" style="stop-color:#FFFFFF;stop-opacity:0"/>
</linearGradient>
<path style="fill:url(#SVGID_1_);" d="M250.107,341.695c16.979-20.355,27.227-46.512,27.227-75.029  c0-28.517-10.247-54.673-27.227-75.029l23.039-23.023c4.167-4.156,4.167-10.917,0-15.083c-4.167-4.167-10.917-4.167-15.083,0  l-23.04,23.025c-17.786-14.833-40.008-24.474-64.355-26.682v-32.54c0-5.896-4.771-10.667-10.667-10.667  c-5.896,0-10.667,4.771-10.667,10.667v32.54c-24.348,2.208-46.569,11.849-64.355,26.682l-23.04-23.025  c-4.167-4.167-10.917-4.167-15.083,0c-4.167,4.167-4.167,10.927,0,15.083l23.039,23.023C55.057,209.423,45.415,231.648,43.207,256  h-32.54C4.771,256,0,260.771,0,266.667c0,5.896,4.771,10.667,10.667,10.667h32.54c2.208,24.352,11.85,46.577,26.686,64.362  l-23.039,23.023c-4.167,4.156-4.167,10.917,0,15.083c2.083,2.083,4.813,3.125,7.542,3.125c2.729,0,5.458-1.042,7.542-3.125  l23.04-23.025c17.786,14.833,40.008,24.474,64.355,26.682V416c0,5.896,4.771,10.667,10.667,10.667  c5.896,0,10.667-4.771,10.667-10.667v-32.54c24.348-2.208,46.569-11.849,64.355-26.682l23.04,23.025  c2.083,2.083,4.813,3.125,7.542,3.125c2.729,0,5.458-1.042,7.542-3.125c4.167-4.167,4.167-10.927,0-15.083L250.107,341.695z   M501.333,341.333h-64c-5.896,0-10.667,4.771-10.667,10.667c0,5.896,4.771,10.667,10.667,10.667h64  c5.896,0,10.667-4.771,10.667-10.667C512,346.104,507.229,341.333,501.333,341.333z M437.333,320h21.333  c5.896,0,10.667-4.771,10.667-10.667s-4.771-10.667-10.667-10.667h-21.333c-5.896,0-10.667,4.771-10.667,10.667  S431.438,320,437.333,320z M437.333,277.333h21.333c5.896,0,10.667-4.771,10.667-10.667c0-5.896-4.771-10.667-10.667-10.667h-21.333  c-5.896,0-10.667,4.771-10.667,10.667C426.667,272.563,431.438,277.333,437.333,277.333z M501.333,213.333h-64  c-5.896,0-10.667,4.771-10.667,10.667c0,5.896,4.771,10.667,10.667,10.667h64c5.896,0,10.667-4.771,10.667-10.667  C512,218.104,507.229,213.333,501.333,213.333z M437.333,106.667h64c5.896,0,10.667-4.771,10.667-10.667  c0-5.896-4.771-10.667-10.667-10.667h-64c-5.896,0-10.667,4.771-10.667,10.667C426.667,101.896,431.438,106.667,437.333,106.667z   M437.333,192h21.333c5.896,0,10.667-4.771,10.667-10.667c0-5.896-4.771-10.667-10.667-10.667h-21.333  c-5.896,0-10.667,4.771-10.667,10.667C426.667,187.229,431.438,192,437.333,192z M437.333,149.333h21.333  c5.896,0,10.667-4.771,10.667-10.667S464.563,128,458.667,128h-21.333c-5.896,0-10.667,4.771-10.667,10.667  S431.438,149.333,437.333,149.333z M405.333,53.333C405.333,23.927,381.406,0,352,0s-53.333,23.927-53.333,53.333v332.073  c-13.615,13.958-21.333,32.625-21.333,51.927C277.333,478.5,310.833,512,352,512s74.667-33.5,74.667-74.667  c0-19.302-7.719-37.969-21.333-51.927V53.333z"/>
<g>
</g>
<g>
</g>
<g>
</g>
<g>
</g>
<g>
</g>
<g>
</g>
<g>
</g>
<g>
</g>
<g>
</g>
<g>
</g>
<g>
</g>
<g>
</g>
<g>
</g>
<g>
</g>
<g>
</g>
</svg>
