<?xml version="1.0" encoding="iso-8859-1"?>
<!-- Generator: Adobe Illustrator 19.0.0, SVG Export Plug-In . SVG Version: 6.00 Build 0)  -->
<svg xmlns="http://www.w3.org/2000/svg" xmlns:xlink="http://www.w3.org/1999/xlink" version="1.1" id="Capa_1" x="0px" y="0px" viewBox="0 0 512 512" style="enable-background:new 0 0 512 512;" xml:space="preserve">
<path style="fill:#303C42;" d="M405.333,149.333c-8.276,0-16.366,1.224-24.288,3.073C357.135,99.289,304.005,64,245.333,64  c-77.227,0-141.06,58.392-148.299,134.026c-30.126,11.809-51.673,40.199-53.823,73.93C17.223,289.152,0,318.57,0,352  c0,52.938,43.063,96,96,96h234.667c41.167,0,74.667-33.5,74.667-74.667c0-3.652-0.569-7.152-1.078-10.667h1.078  C464.146,362.667,512,314.813,512,256S464.146,149.333,405.333,149.333z"/>
<g>
	<path style="fill:#64B5F6;" d="M405.333,341.333h-7.49c-7.553-15.779-20.363-28.49-36.288-35.781   C354.31,241.352,299.961,192,234.667,192c-47.432,0-90.46,26.492-112.599,67.947C113.602,257.547,104.88,256,96,256   c-10.422,0-20.275,2.09-29.678,5.174c7.211-27.444,32.001-47.841,61.678-47.841c5.896,0,10.667-4.771,10.667-10.667   S133.896,192,128,192c-3.083,0-6.005,0.59-9.005,0.91c9.375-61.255,62.594-107.577,126.339-107.577   c49.551,0,94.48,29.395,115.409,73.835c-5.151,2.376-10.16,5.092-14.919,8.301c-4.885,3.292-6.177,9.917-2.885,14.802   c3.292,4.896,9.938,6.177,14.802,2.885c14.073-9.479,30.531-14.49,47.594-14.49c47.052,0,85.333,38.281,85.333,85.333   S452.385,341.333,405.333,341.333z"/>
	<path style="fill:#64B5F6;" d="M330.667,426.667H96c-41.167,0-74.667-33.5-74.667-74.667s33.5-74.667,74.667-74.667   c17.156,0,33.281,5.656,46.646,16.354c4.635,3.719,11.333,2.948,14.99-1.656c3.688-4.594,2.948-11.313-1.656-14.99   c-4.385-3.514-9.083-6.578-13.987-9.25c18.788-33.302,53.979-54.458,92.674-54.458c51.454,0,94.456,36.908,104.116,86.154   c-2.702-0.297-5.337-0.82-8.116-0.82c-5.896,0-10.667,4.771-10.667,10.667S324.771,320,330.667,320   C360.073,320,384,343.927,384,373.333S360.073,426.667,330.667,426.667z"/>
</g>
<path style="opacity:0.1;enable-background:new    ;" d="M361.348,329.85c0.819,3.708,1.319,7.533,1.319,11.483  c0,29.406-23.927,53.333-53.333,53.333H74.667c-18.865,0-35.919-7.264-49.078-18.848C35.595,405.272,63.21,426.667,96,426.667  h234.667c29.406,0,53.333-23.927,53.333-53.333C384,355.366,375.005,339.52,361.348,329.85z"/>
<path style="opacity:0.1;enable-background:new    ;" d="M420.349,172.185C437.238,187.786,448,209.917,448,234.667  c0,41.013-29.103,75.323-67.729,83.464c7.229,6.529,13.309,14.297,17.573,23.203h7.49c47.052,0,85.333-38.281,85.333-85.333  C490.667,214.09,460.24,179.323,420.349,172.185z"/>
<linearGradient id="SVGID_1_" gradientUnits="userSpaceOnUse" x1="-43.8844" y1="637.0228" x2="-25.0898" y2="628.2585" gradientTransform="matrix(21.3333 0 0 -21.3333 996.3334 13791.667)">
	<stop offset="0" style="stop-color:#FFFFFF;stop-opacity:0.2"/>
	<stop offset="1" style="stop-color:#FFFFFF;stop-opacity:0"/>
</linearGradient>
<path style="fill:url(#SVGID_1_);" d="M405.333,149.333c-8.276,0-16.366,1.224-24.288,3.073C357.135,99.289,304.005,64,245.333,64  c-77.227,0-141.06,58.392-148.299,134.026c-30.126,11.809-51.673,40.199-53.823,73.93C17.223,289.152,0,318.57,0,352  c0,52.938,43.063,96,96,96h234.667c41.167,0,74.667-33.5,74.667-74.667c0-3.652-0.569-7.152-1.078-10.667h1.078  C464.146,362.667,512,314.813,512,256S464.146,149.333,405.333,149.333z"/>
<g>
</g>
<g>
</g>
<g>
</g>
<g>
</g>
<g>
</g>
<g>
</g>
<g>
</g>
<g>
</g>
<g>
</g>
<g>
</g>
<g>
</g>
<g>
</g>
<g>
</g>
<g>
</g>
<g>
</g>
</svg>
