<?xml version="1.0" encoding="iso-8859-1"?>
<!-- Generator: Adobe Illustrator 19.0.0, SVG Export Plug-In . SVG Version: 6.00 Build 0)  -->
<svg xmlns="http://www.w3.org/2000/svg" xmlns:xlink="http://www.w3.org/1999/xlink" version="1.1" id="Capa_1" x="0px" y="0px" viewBox="0 0 512 512" style="enable-background:new 0 0 512 512;" xml:space="preserve">
<path style="fill:#303C42;" d="M512,208c0-64.042-40.427-120.302-102.979-143.344c-3.896-1.448-8.302-0.49-11.229,2.469  c-2.938,2.938-3.906,7.323-2.469,11.229c5.479,14.875,10.01,28.479,10.01,44.313c0,51.69-29.536,97.539-75.645,119.711  c-26.788-43.668-74.725-71.711-127.022-71.711c-76.84,0-140.449,58.299-148.202,133.996C22.669,317.083,0,347.861,0,384  c0,47.052,38.281,85.333,85.333,85.333h277.333c58.813,0,106.667-47.854,106.667-106.667c0-14.34-2.934-27.987-8.089-40.49  C493.492,292.849,512,251.814,512,208z"/>
<path style="fill:#FFF4D4;" d="M426.667,122.667c0-10.094-1.458-19.323-3.708-28.146c41.771,23.594,67.708,66.094,67.708,113.479  c0,35.964-14.41,69.819-39.785,94.818C431.669,274.594,399.306,256,362.667,256c-4.926,0-9.799,0.415-14.618,1.077  C396.335,229.888,426.667,179.204,426.667,122.667z"/>
<path style="fill:#303C42;" d="M245.333,106.667c15.458,0,18.979,2.073,24.458,7.542c5.469,5.479,7.542,9,7.542,24.458  c0,5.896,4.771,10.667,10.667,10.667c5.896,0,10.667-4.771,10.667-10.667c0-15.458,2.073-18.979,7.542-24.458  c5.479-5.469,9-7.542,24.458-7.542c5.896,0,10.667-4.771,10.667-10.667c0-5.896-4.771-10.667-10.667-10.667  c-15.458,0-18.979-2.073-24.458-7.542c-5.469-5.479-7.542-9-7.542-24.458c0-5.896-4.771-10.667-10.667-10.667  c-5.896,0-10.667,4.771-10.667,10.667c0,15.458-2.073,18.979-7.542,24.458c-5.479,5.469-9,7.542-24.458,7.542  c-5.896,0-10.667,4.771-10.667,10.667C234.667,101.896,239.438,106.667,245.333,106.667z"/>
<path style="fill:#FFCA28;" d="M284.875,92.875c1.125-1.125,2.167-2.229,3.125-3.344c0.958,1.115,2,2.219,3.125,3.344  s2.229,2.167,3.344,3.125c-1.115,0.958-2.219,2-3.344,3.125s-2.167,2.229-3.125,3.344c-0.958-1.115-2-2.219-3.125-3.344  s-2.229-2.167-3.344-3.125C282.646,95.042,283.75,94,284.875,92.875z"/>
<path style="fill:#64B5F6;" d="M448,362.667C448,409.719,409.729,448,362.667,448H85.333c-35.292,0-64-28.708-64-64s28.708-64,64-64  C91.229,320,96,315.229,96,309.333s-4.771-10.667-10.667-10.667c-3.02,0-5.879,0.585-8.819,0.892  C86.319,238.258,139.288,192,202.667,192c49.551,0,94.474,29.395,115.391,73.837c-5.147,2.374-10.152,5.087-14.911,8.288  c-4.875,3.292-6.188,9.917-2.896,14.813c3.313,4.885,9.938,6.146,14.813,2.896c14.083-9.49,30.563-14.5,47.604-14.5  C409.729,277.333,448,315.615,448,362.667z"/>
<linearGradient id="SVGID_1_" gradientUnits="userSpaceOnUse" x1="-42.9456" y1="637.4268" x2="-24.4937" y2="628.8264" gradientTransform="matrix(21.3333 0 0 -21.3333 996.3334 13791.667)">
	<stop offset="0" style="stop-color:#FFFFFF;stop-opacity:0.2"/>
	<stop offset="1" style="stop-color:#FFFFFF;stop-opacity:0"/>
</linearGradient>
<path style="fill:url(#SVGID_1_);" d="M512,208c0-64.042-40.427-120.302-102.979-143.344c-3.896-1.448-8.302-0.49-11.229,2.469  c-2.938,2.938-3.906,7.323-2.469,11.229c5.479,14.875,10.01,28.479,10.01,44.313c0,51.69-29.536,97.539-75.645,119.711  c-26.788-43.668-74.725-71.711-127.022-71.711c-76.84,0-140.449,58.299-148.202,133.996C22.669,317.083,0,347.861,0,384  c0,47.052,38.281,85.333,85.333,85.333h277.333c58.813,0,106.667-47.854,106.667-106.667c0-14.34-2.934-27.987-8.089-40.49  C493.492,292.849,512,251.814,512,208z M245.333,106.667c15.458,0,18.979,2.073,24.458,7.542c5.469,5.479,7.542,9,7.542,24.458  c0,5.896,4.771,10.667,10.667,10.667c5.896,0,10.667-4.771,10.667-10.667c0-15.458,2.073-18.979,7.542-24.458  c5.479-5.469,9-7.542,24.458-7.542c5.896,0,10.667-4.771,10.667-10.667c0-5.896-4.771-10.667-10.667-10.667  c-15.458,0-18.979-2.073-24.458-7.542c-5.469-5.479-7.542-9-7.542-24.458c0-5.896-4.771-10.667-10.667-10.667  c-5.896,0-10.667,4.771-10.667,10.667c0,15.458-2.073,18.979-7.542,24.458c-5.479,5.469-9,7.542-24.458,7.542  c-5.896,0-10.667,4.771-10.667,10.667C234.667,101.896,239.438,106.667,245.333,106.667z"/>
<path style="opacity:0.1;enable-background:new    ;" d="M411.056,292.51C414.034,301.184,416,310.329,416,320  c0,47.052-38.271,85.333-85.333,85.333H53.333c-11.142,0-21.469-3.116-30.602-8.142C28.833,426.169,54.566,448,85.333,448h277.333  C409.729,448,448,409.719,448,362.667C448,333.589,433.332,307.924,411.056,292.51z"/>
<path style="opacity:0.1;enable-background:new    ;" d="M479.647,156.306c-2.378,47.688-28.754,88.945-67.392,112.026  c15.512,8.198,28.803,20.056,38.626,34.486c25.375-24.999,39.785-58.854,39.785-94.818  C490.667,189.767,486.753,172.293,479.647,156.306z"/>
<g>
</g>
<g>
</g>
<g>
</g>
<g>
</g>
<g>
</g>
<g>
</g>
<g>
</g>
<g>
</g>
<g>
</g>
<g>
</g>
<g>
</g>
<g>
</g>
<g>
</g>
<g>
</g>
<g>
</g>
</svg>
