<?xml version="1.0" encoding="iso-8859-1"?>
<!-- Generator: Adobe Illustrator 19.0.0, SVG Export Plug-In . SVG Version: 6.00 Build 0)  -->
<svg xmlns="http://www.w3.org/2000/svg" xmlns:xlink="http://www.w3.org/1999/xlink" version="1.1" id="Capa_1" x="0px" y="0px" viewBox="0 0 512 512" style="enable-background:new 0 0 512 512;" xml:space="preserve">
<path id="SVGCleanerId_0" style="opacity:0.1;enable-background:new    ;" d="M411.056,292.51C414.034,301.184,416,310.329,416,320  c0,47.052-38.271,85.333-85.333,85.333H53.333c-11.142,0-21.469-3.116-30.602-8.142C28.833,426.169,54.566,448,85.333,448h277.333  C409.729,448,448,409.719,448,362.667C448,333.589,433.332,307.924,411.056,292.51z"/>
<path style="fill:#303C42;" d="M501.333,192h-32.54c-2.208-24.352-11.85-46.577-26.686-64.362l23.039-23.023  c4.167-4.156,4.167-10.917,0-15.083c-4.167-4.167-10.917-4.167-15.083,0l-23.04,23.025c-17.786-14.833-40.008-24.474-64.355-26.682  v-32.54c0-5.896-4.771-10.667-10.667-10.667c-5.896,0-10.667,4.771-10.667,10.667v32.995c-24.061,2.25-46.238,11.62-64.027,26.556  l-23.368-23.353c-4.167-4.167-10.917-4.167-15.083,0c-4.167,4.167-4.167,10.927,0,15.083l23.388,23.371  c-11.229,13.559-19.168,29.799-23.424,47.616c-11.708-2.973-23.751-4.935-36.151-4.935c-76.865,0-140.452,58.292-148.182,133.988  C22.674,317.068,0,347.852,0,384c0,47.052,38.271,85.333,85.333,85.333h277.333c58.813,0,106.667-47.854,106.667-106.667  c0-30.788-13.311-58.349-34.246-77.837c19.349-19.418,31.145-44.581,33.642-71.496h32.604c5.896,0,10.667-4.771,10.667-10.667  S507.229,192,501.333,192z"/>
<path style="fill:#64B5F6;" d="M448,362.667C448,409.719,409.729,448,362.667,448H85.333c-35.292,0-64-28.708-64-64s28.708-64,64-64  C91.229,320,96,315.229,96,309.333s-4.771-10.667-10.667-10.667c-3.02,0-5.879,0.585-8.819,0.892  C86.319,238.258,139.288,192,202.667,192c49.551,0,94.474,29.395,115.391,73.837c-5.147,2.374-10.152,5.087-14.911,8.288  c-4.875,3.292-6.188,9.917-2.896,14.813c3.313,4.885,9.938,6.146,14.813,2.896c14.083-9.49,30.563-14.5,47.604-14.5  C409.729,277.333,448,315.615,448,362.667z"/>
<g>
	<path id="SVGCleanerId_0_1_" style="opacity:0.1;enable-background:new    ;" d="M411.056,292.51   C414.034,301.184,416,310.329,416,320c0,47.052-38.271,85.333-85.333,85.333H53.333c-11.142,0-21.469-3.116-30.602-8.142   C28.833,426.169,54.566,448,85.333,448h277.333C409.729,448,448,409.719,448,362.667C448,333.589,433.332,307.924,411.056,292.51z"/>
</g>
<path style="fill:#FFCA28;" d="M417.749,271.789C401.617,261.973,382.889,256,362.667,256c-8.275,0-16.366,1.224-24.289,3.074  c-15.863-35.224-44.531-62.358-79.29-76.742c9.505-43.57,47.909-75.665,92.913-75.665c52.938,0,96,43.063,96,96  C448,228.841,437.005,253.589,417.749,271.789z"/>
<linearGradient id="SVGID_1_" gradientUnits="userSpaceOnUse" x1="-42.9312" y1="637.4539" x2="-24.4823" y2="628.8499" gradientTransform="matrix(21.3333 0 0 -21.3333 996.3334 13791.667)">
	<stop offset="0" style="stop-color:#FFFFFF;stop-opacity:0.2"/>
	<stop offset="1" style="stop-color:#FFFFFF;stop-opacity:0"/>
</linearGradient>
<path style="fill:url(#SVGID_1_);" d="M501.333,192h-32.54c-2.208-24.352-11.85-46.577-26.686-64.362l23.039-23.023  c4.167-4.156,4.167-10.917,0-15.083c-4.167-4.167-10.917-4.167-15.083,0l-23.04,23.025c-17.786-14.833-40.008-24.474-64.355-26.682  v-32.54c0-5.896-4.771-10.667-10.667-10.667c-5.896,0-10.667,4.771-10.667,10.667v32.995c-24.061,2.25-46.238,11.62-64.027,26.556  l-23.368-23.353c-4.167-4.167-10.917-4.167-15.083,0c-4.167,4.167-4.167,10.927,0,15.083l23.388,23.371  c-11.229,13.559-19.168,29.799-23.424,47.616c-11.708-2.973-23.751-4.935-36.151-4.935c-76.865,0-140.452,58.292-148.182,133.988  C22.674,317.068,0,347.852,0,384c0,47.052,38.271,85.333,85.333,85.333h277.333c58.813,0,106.667-47.854,106.667-106.667  c0-30.788-13.311-58.349-34.246-77.837c19.349-19.418,31.145-44.581,33.642-71.496h32.604c5.896,0,10.667-4.771,10.667-10.667  S507.229,192,501.333,192z"/>
<g>
</g>
<g>
</g>
<g>
</g>
<g>
</g>
<g>
</g>
<g>
</g>
<g>
</g>
<g>
</g>
<g>
</g>
<g>
</g>
<g>
</g>
<g>
</g>
<g>
</g>
<g>
</g>
<g>
</g>
</svg>
