<?xml version="1.0" encoding="iso-8859-1"?>
<!-- Generator: Adobe Illustrator 19.0.0, SVG Export Plug-In . SVG Version: 6.00 Build 0)  -->
<svg xmlns="http://www.w3.org/2000/svg" xmlns:xlink="http://www.w3.org/1999/xlink" version="1.1" id="Capa_1" x="0px" y="0px" viewBox="0 0 512 512" style="enable-background:new 0 0 512 512;" xml:space="preserve">
<path style="fill:#303C42;" d="M372.5,28.229c-4.104-2.094-9.146-1.344-12.417,1.948c-3.271,3.271-4.063,8.281-1.958,12.406  C375.292,76.094,384,112.01,384,149.333C384,278.729,278.729,384,149.333,384c-37.333,0-73.25-8.708-106.771-25.875  c-4.104-2.125-9.125-1.344-12.396,1.948c-3.271,3.271-4.063,8.281-1.958,12.406C72.313,458.542,159.604,512,256,512  c141.167,0,256-114.844,256-256C512,159.604,458.542,72.323,372.5,28.229z"/>
<path style="fill:#FFF4D4;" d="M256,490.667c-77.438,0-148.479-37.646-192.063-100.073c27.375,9.792,55.979,14.74,85.396,14.74  c141.167,0,256-114.844,256-256c0-29.406-4.938-58-14.729-85.385C453.021,107.542,490.667,178.563,490.667,256  C490.667,385.396,385.396,490.667,256,490.667z"/>
<path style="opacity:0.1;enable-background:new    ;" d="M426.458,95.292c20.576,35.177,32.271,75.566,32.271,118.094  c0,129.396-105.271,234.667-234.667,234.667c-55.854,0-108.206-19.823-149.501-54.165c-3.542-1.094-7.121-2.04-10.624-3.293  C107.521,453.021,178.563,490.667,256,490.667c129.396,0,234.667-105.271,234.667-234.667  C490.667,194.926,466.975,138.076,426.458,95.292z"/>
<path style="fill:#303C42;" d="M117.333,106.667c41.167,0,74.667,33.5,74.667,74.667c0,5.896,4.771,10.667,10.667,10.667  s10.667-4.771,10.667-10.667c0-41.167,33.5-74.667,74.667-74.667c5.896,0,10.667-4.771,10.667-10.667  c0-5.896-4.771-10.667-10.667-10.667c-41.167,0-74.667-33.5-74.667-74.667C213.333,4.771,208.563,0,202.667,0S192,4.771,192,10.667  c0,41.167-33.5,74.667-74.667,74.667c-5.896,0-10.667,4.771-10.667,10.667C106.667,101.896,111.438,106.667,117.333,106.667z"/>
<path style="fill:#FFCA28;" d="M202.667,54.625c9.167,17.708,23.667,32.219,41.375,41.375  c-17.708,9.156-32.208,23.667-41.375,41.375C193.5,119.667,179,105.156,161.292,96C179,86.844,193.5,72.333,202.667,54.625z"/>
<path style="fill:#303C42;" d="M64,309.333C64,315.229,68.771,320,74.667,320c5.896,0,10.667-4.771,10.667-10.667  c0-29.406,23.917-53.333,53.333-53.333c5.896,0,10.667-4.771,10.667-10.667c0-5.896-4.771-10.667-10.667-10.667  c-29.417,0-53.333-23.927-53.333-53.333c0-5.896-4.771-10.667-10.667-10.667c-5.896,0-10.667,4.771-10.667,10.667  c0,29.406-23.917,53.333-53.333,53.333C4.771,234.667,0,239.438,0,245.333C0,251.229,4.771,256,10.667,256  C40.083,256,64,279.927,64,309.333z"/>
<path style="fill:#FFCA28;" d="M74.667,219.76c6.313,10.458,15.104,19.271,25.583,25.573c-10.479,6.302-19.271,15.115-25.583,25.573  c-6.313-10.458-15.104-19.271-25.583-25.573C59.563,239.031,68.354,230.219,74.667,219.76z"/>
<linearGradient id="SVGID_1_" gradientUnits="userSpaceOnUse" x1="-44.798" y1="639.1811" x2="-23.8322" y2="629.4042" gradientTransform="matrix(21.3333 0 0 -21.3333 996.3334 13791.667)">
	<stop offset="0" style="stop-color:#FFFFFF;stop-opacity:0.2"/>
	<stop offset="1" style="stop-color:#FFFFFF;stop-opacity:0"/>
</linearGradient>
<path style="fill:url(#SVGID_1_);" d="M372.5,28.229c-4.104-2.094-9.146-1.344-12.417,1.948c-3.271,3.271-4.063,8.281-1.958,12.406  C375.292,76.094,384,112.01,384,149.333C384,278.729,278.729,384,149.333,384c-37.333,0-73.25-8.708-106.771-25.875  c-4.104-2.125-9.125-1.344-12.396,1.948c-3.271,3.271-4.063,8.281-1.958,12.406C72.313,458.542,159.604,512,256,512  c141.167,0,256-114.844,256-256C512,159.604,458.542,72.323,372.5,28.229z M117.333,106.667c41.167,0,74.667,33.5,74.667,74.667  c0,5.896,4.771,10.667,10.667,10.667s10.667-4.771,10.667-10.667c0-41.167,33.5-74.667,74.667-74.667  c5.896,0,10.667-4.771,10.667-10.667c0-5.896-4.771-10.667-10.667-10.667c-41.167,0-74.667-33.5-74.667-74.667  C213.333,4.771,208.563,0,202.667,0S192,4.771,192,10.667c0,41.167-33.5,74.667-74.667,74.667c-5.896,0-10.667,4.771-10.667,10.667  C106.667,101.896,111.438,106.667,117.333,106.667z M64,309.333C64,315.229,68.771,320,74.667,320  c5.896,0,10.667-4.771,10.667-10.667c0-29.406,23.917-53.333,53.333-53.333c5.896,0,10.667-4.771,10.667-10.667  c0-5.896-4.771-10.667-10.667-10.667c-29.417,0-53.333-23.927-53.333-53.333c0-5.896-4.771-10.667-10.667-10.667  c-5.896,0-10.667,4.771-10.667,10.667c0,29.406-23.917,53.333-53.333,53.333C4.771,234.667,0,239.438,0,245.333  C0,251.229,4.771,256,10.667,256C40.083,256,64,279.927,64,309.333z"/>
<g>
</g>
<g>
</g>
<g>
</g>
<g>
</g>
<g>
</g>
<g>
</g>
<g>
</g>
<g>
</g>
<g>
</g>
<g>
</g>
<g>
</g>
<g>
</g>
<g>
</g>
<g>
</g>
<g>
</g>
</svg>
