<svg id="Layer_1" enable-background="new 0 0 511.333 511.333" height="512" viewBox="0 0 511.333 511.333" width="512" xmlns="http://www.w3.org/2000/svg"><path d="m255.667 106.667c-82.159 0-149 66.841-149 149 0 82.26 66.774 149.039 149.152 149.039 80.807 0 148.848-65.54 148.848-149.039 0-82.159-66.842-149-149-149z" fill="#ffe773"/><path d="m386.599 184.513-4.603-8.452-9.406-2.032c-125.043-27.008-223.073 105.615-162.526 216.791l4.603 8.451 9.406 2.032c44.474 9.607 90.074-1.379 125.2-29.728 57.935-46.757 70.503-126.143 37.326-187.062z" fill="#ffec8f"/><g fill="#ffe773"><path d="m255.667 74c-11.598 0-21-9.402-21-21v-32c0-11.598 9.402-21 21-21s21 9.402 21 21v32c0 11.598-9.402 21-21 21z"/><path d="m53 276.667h-32c-11.598 0-21-9.402-21-21s9.402-21 21-21h32c11.598 0 21 9.402 21 21s-9.402 21-21 21z"/><path d="m255.667 511.333c-11.598 0-21-9.402-21-21v-32c0-11.598 9.402-21 21-21s21 9.402 21 21v32c0 11.598-9.402 21-21 21z"/><path d="m490.333 276.667h-32c-11.598 0-21-9.402-21-21s9.402-21 21-21h32c11.598 0 21 9.402 21 21s-9.402 21-21 21z"/><path d="m405 127.333c-18.541 0-28.116-22.583-14.849-35.849l10.667-10.667c8.201-8.201 21.497-8.201 29.698 0s8.201 21.498 0 29.698c-10.025 10.025-14.712 16.818-25.516 16.818z"/><path d="m106.333 127.333c-5.375 0-10.749-2.05-14.849-6.151l-10.667-10.667c-8.201-8.201-8.201-21.498 0-29.698 8.201-8.201 21.497-8.201 29.698 0l10.667 10.667c13.269 13.268 3.69 35.849-14.849 35.849z"/><path d="m95.667 436.667c-18.541 0-28.116-22.583-14.849-35.849l10.667-10.667c8.201-8.201 21.497-8.201 29.698 0s8.201 21.498 0 29.698c-10.026 10.025-14.713 16.818-25.516 16.818z"/><path d="m415.667 436.667c-5.375 0-10.749-2.05-14.849-6.151l-10.667-10.667c-8.201-8.201-8.201-21.498 0-29.698 8.201-8.201 21.497-8.201 29.698 0l10.667 10.667c13.269 13.268 3.69 35.849-14.849 35.849z"/></g></svg>