<svg id="Layer_1" enable-background="new 0 0 511.333 511.333" height="512" viewBox="0 0 511.333 511.333" width="512" xmlns="http://www.w3.org/2000/svg"><path d="m255.667 106.667c-82.159 0-149 66.841-149 149 0 82.631 67.132 148.985 148.769 148.985 83.215 0 149.231-67.397 149.231-148.985 0-82.159-66.842-149-149-149z" fill="#ece2e2"/><g fill="#f1ebeb"><path d="m240.346 270.987c-31.813-31.814-80.45-40.164-121.022-20.779-7.959 3.803-12.776 12.239-11.842 21.147 7.299 69.632 62.678 125.176 132.506 132.496 9.011.944 17.614-4 21.335-12.257 19.129-40.489 10.728-88.902-20.977-120.607z"/><circle cx="298.333" cy="213" r="21.333"/><circle cx="85" cy="85" r="21.333"/><circle cx="426.333" cy="426.333" r="21.333"/><path d="m255.667 511.333c-141.301 0-255.667-114.348-255.667-255.666 0-11.598 9.402-21 21-21s21 9.402 21 21c0 117.816 95.851 213.667 213.667 213.667 11.598 0 21 9.402 21 21s-9.402 20.999-21 20.999z"/><path d="m490.333 276.667c-11.598 0-21-9.402-21-21 0-117.816-95.851-213.667-213.666-213.667-11.598 0-21-9.402-21-21s9.402-21 21-21c141.3 0 255.667 114.348 255.667 255.667-.001 11.598-9.403 21-21.001 21z"/></g></svg>