<svg id="Layer_1" enable-background="new 0 0 511.333 511.333" height="512" viewBox="0 0 511.333 511.333" width="512" xmlns="http://www.w3.org/2000/svg"><path d="m352.342 337.367c-50.434-43.005-49.955-120.395 0-162.991 9.824-8.378 9.827-23.574.005-31.955-83.425-71.181-212.444-30.158-240.505 74.778-18.163 67.766 13.401 139.292 75.938 171.292 53.149 27.268 118.344 20.275 164.567-19.17 9.822-8.38 9.82-23.576-.005-31.954z" fill="#ece2e2"/><g fill="#f1ebeb"><path d="m235.872 264.487c-18.266-41.035-60.61-66.264-105.373-62.787-8.875.69-16.352 6.901-18.657 15.5-15.998 59.693 6.195 126.57 63.163 163.941 9.36 6.14 16.495 10.3 24.663 9.42 8.62-.926 11.898-5.873 12.232-5.65 32.642-30.927 42.275-79.323 23.972-120.424z"/><circle cx="85" cy="85" r="21.333"/><circle cx="426.333" cy="426.333" r="21.333"/><path d="m255.667 511.333c-141.301 0-255.667-114.347-255.667-255.666 0-11.598 9.402-21 21-21s21 9.402 21 21c0 117.816 95.851 213.667 213.667 213.667 11.598 0 21 9.402 21 21s-9.403 20.999-21 20.999z"/><path d="m490.333 276.667c-11.598 0-21-9.402-21-21 0-117.816-95.85-213.667-213.666-213.667-11.598 0-21-9.402-21-21s9.402-21 21-21c141.299 0 255.667 114.348 255.667 255.667-.001 11.598-9.403 21-21.001 21z"/></g></svg>