<svg id="Layer_1" enable-background="new 0 0 511.334 511.334" height="512" viewBox="0 0 511.334 511.334" width="512" xmlns="http://www.w3.org/2000/svg"><path d="m305.593 356.679c-42.823-15.007-71.596-55.6-71.596-101.012 0-45.177 28.577-85.699 71.111-100.835 18.611-6.624 18.553-33.084-.111-39.608-53.1-18.562-113.372-5.933-154.598 35.293-58.229 58.218-58.245 152.477-.004 210.708 41.738 41.748 102.465 53.811 155.277 35.063 18.615-6.609 18.581-33.07-.079-39.609z" fill="#ece2e2"/><g fill="#f1ebeb"><circle cx="85" cy="85" r="21.333"/><circle cx="426.334" cy="426.334" r="21.333"/><path d="m255.667 511.333c-141.299 0-255.667-114.347-255.667-255.666 0-11.598 9.402-21 21-21s21 9.402 21 21c0 117.816 95.851 213.667 213.667 213.667 11.598 0 21 9.402 21 21s-9.402 20.999-21 20.999z"/><path d="m490.334 276.667c-11.598 0-21-9.402-21-21 0-117.816-95.851-213.667-213.667-213.667-11.598 0-21-9.402-21-21s9.402-21 21-21c141.299 0 255.667 114.348 255.667 255.667 0 11.598-9.402 21-21 21z"/></g></svg>