<svg id="Layer_1" enable-background="new 0 0 512 512" height="512" viewBox="0 0 512 512" width="512" xmlns="http://www.w3.org/2000/svg"><path d="m511.671 95.5c0 13.302 1.459 27.466-12.27 41.16-7.62 7.592-18.016 12.26-30.09 12.26-14.6 0-28.74 4.29-42.02 12.75-40.439 25.766-88.758 25.781-129.24 0-26.73-17.03-57.37-17.03-84.09 0-40.48 25.77-88.79 25.77-129.24 0-13.09-8.34-27.63-12.75-42.05-12.75-11.935 0-22.35-4.58-30.09-12.3-13.765-13.731-12.25-28.207-12.25-41.11 0-22.916 17.843-41.264 41.23-41.83 38.02-1.029 66.445 20.029 72.06 23 22.651 12.025 48.609 12.426 72.71-.69 6.277-3.451 26.14-18.127 56.29-21.52 44.576-4.956 72.462 15.666 83.05 21.52 23.639 12.865 50.242 13.45 75.27-.71 11.363-6.531 33.735-21.89 69.3-21.61 22.148 0 41.43 18.45 41.43 41.83z" fill="#ece2e2"/><path d="m511.671 260.5c0 13.301 1.459 27.466-12.27 41.16-7.651 7.631-17.963 12.26-30.09 12.26-14.6 0-28.74 4.29-42.02 12.75-40.439 25.767-88.759 25.781-129.24 0-26.73-17.03-57.37-17.03-84.09 0-40.48 25.77-88.79 25.77-129.24 0-13.09-8.34-27.63-12.75-42.05-12.75-11.935 0-22.35-4.58-30.09-12.3-13.765-13.731-12.25-28.207-12.25-41.11 0-22.916 17.843-41.264 41.23-41.83 38.02-1.029 66.445 20.029 72.06 23 22.651 12.025 48.609 12.426 72.71-.69 6.277-3.451 26.14-18.127 56.29-21.52 44.576-4.956 72.462 15.666 83.05 21.52 23.639 12.865 50.242 13.45 75.27-.71 9.037-5.194 32.537-21.944 69.3-21.61 22.148 0 41.43 18.45 41.43 41.83z" fill="#ece2e2"/><path d="m511.671 426.509c0 13.203 1.486 27.429-12.27 41.15-7.642 7.622-17.954 12.26-30.08 12.26-14.61 0-28.75 4.29-42.03 12.75-40.448 25.772-88.759 25.771-129.24.01-26.73-17.03-57.37-17.04-84.09-.01-40.48 25.78-88.79 25.77-129.24 0-13.09-8.34-27.63-12.75-42.05-12.75-11.871 0-22.304-4.524-30.09-12.3-13.765-13.73-12.25-28.173-12.25-41.11 0-23.42 18.555-41.84 42.34-41.84 22.44 0 44.79 6.69 64.62 19.34 26.71 17.01 57.37 17.01 84.1-.01 40.45-25.78 88.77-25.78 129.23 0 26.72 17.02 57.38 17.02 84.1 0 19.82-12.625 41.832-19.33 65.52-19.33 23.009.192 41.43 19.141 41.43 41.84z" fill="#ece2e2"/><path d="m510.251 84.71c-3.71 9.6-14.01 15.26-24.32 12.87-19.97-4.63-40.25-.88-58.64 10.84-39.654 25.271-88.015 26.248-129.24.01-26.21-16.717-56.923-17.33-84.09-.01-41.182 26.218-89.554 25.304-129.24 0-17.655-11.248-38.144-15.594-58.66-10.84-10.34 2.39-20.65-3.3-24.34-12.93 4.63-17.7 20.42-30.5 39.84-30.97 19.857-.537 44.106 5.553 65.73 19.33 14.89 9.44 31.807 14.142 49.398 12.353 31.223-3.216 36.736-20.15 73.212-28.673 26.788-6.251 54.61-2.911 81.24 10.82 8.61 4.519 46.563 35.204 93.58 5.49 20.494-13.057 43.628-19.792 67.27-19.28 18.35.91 33.66 13.82 38.26 30.99z" fill="#f1ebeb"/><path d="m510.251 249.71c-3.71 9.6-14.01 15.26-24.32 12.87-19.97-4.63-40.25-.88-58.64 10.84-39.655 25.272-88.021 26.244-129.24.01-26.211-16.717-56.923-17.33-84.09-.01-41.186 26.221-89.559 25.301-129.24 0-17.657-11.25-38.144-15.594-58.66-10.84-10.34 2.39-20.65-3.3-24.34-12.93 4.63-17.7 20.42-30.5 39.84-30.97 19.857-.537 44.106 5.553 65.73 19.33 14.89 9.44 31.807 14.142 49.398 12.353 31.223-3.216 36.736-20.15 73.212-28.673 26.788-6.251 54.61-2.911 81.24 10.82 8.61 4.519 46.563 35.204 93.58 5.49 20.375-12.981 43.592-19.805 67.27-19.28 18.35.91 33.66 13.82 38.26 30.99z" fill="#f1ebeb"/><path d="m510.231 415.669c-3.71 9.58-14.01 15.22-24.3 12.83-19.97-4.63-40.25-.88-58.64 10.84-40.459 25.771-88.828 25.741-129.24 0-26.003-16.565-56.716-17.452-84.09 0-40.862 26.015-89.219 25.505-129.24 0-17.657-11.25-38.144-15.594-58.66-10.84-10.32 2.38-20.63-3.29-24.33-12.9 4.74-18.01 21.03-30.93 40.94-30.93 22.44 0 44.79 6.69 64.62 19.34 26.71 17.01 57.37 17.01 84.1-.01 40.45-25.78 88.77-25.78 129.23 0 26.72 17.02 57.38 17.02 84.1 0 19.82-12.625 41.832-19.33 65.52-19.33 19.1.16 35.23 13.31 39.99 31z" fill="#f1ebeb"/><g fill="#aefcfe"><circle cx="256.001" cy="490.667" r="21.333"/><circle cx="373.335" cy="21.333" r="21.333"/><circle cx="256.001" cy="149.333" r="21.333"/><circle cx="138.668" cy="21.333" r="21.333"/><circle cx="373.335" cy="196.667" r="21.333"/><circle cx="138.668" cy="196.667" r="21.333"/><circle cx="256.001" cy="314.333" r="21.333"/><circle cx="373.335" cy="362.667" r="21.333"/><circle cx="138.668" cy="362.667" r="21.333"/></g></svg>