<svg id="Layer_1" enable-background="new 0 0 511.564 511.564" height="512" viewBox="0 0 511.564 511.564" width="512" xmlns="http://www.w3.org/2000/svg"><path d="m334.381.359c-11.406-2.125-22.366 5.402-24.487 16.804-2.615 14.055-14.074 23.207-19.01 26.566-8.063 3.045-13.808 10.813-13.808 19.942 0 18.193 21.306 27.888 35.052 16.327 9.433-6.018 33.263-24.006 39.058-55.152 2.12-11.403-5.403-22.366-16.805-24.487z" fill="#ccf5a4"/><path d="m318.477 57.077c-2.608-7.885-9.618-13.492-17.882-14.305-2.522-.248-62.228-5.628-103.505 33.167-26.114 24.543-38.519 60.147-36.871 105.823.28 7.757 4.815 14.727 11.794 18.124 71.942 35.024 193.837.423 146.464-142.809z" fill="#aaef68"/><g fill="#ece2e2"><path d="m21.092 340.898c-22.141.003-29.099-29.941-9.408-39.787 15.291-7.646 60.518-34.217 137.392-34.217 66.791 0 69.182 21.333 128 21.333 11.598 0 21 9.402 21 21s-9.402 21-21 21c-68.033 0-69.276-21.333-128-21.333-58.072 0-96.948 18.954-97.334 19.145-22.258 11.128-24.139 12.859-30.65 12.859z"/><path d="m21.091 511.564c-22.141.003-29.1-29.941-9.408-39.788 15.292-7.646 60.518-34.217 137.392-34.217 66.791 0 69.182 21.333 128 21.333 11.598 0 21 9.402 21 21s-9.402 21-21 21c-67.425 0-69.867-21.333-128-21.333-58.072 0-96.948 18.954-97.334 19.146-22.216 11.109-24.123 12.859-30.65 12.859z"/><path d="m330.953 224.228c-11.395-.063-21.123 8.84-21.531 20.228-.416 11.595 7.034 14.008 11.906 27.774.148.419.306.837.473 1.252 12.803 31.885 4.701 60.005-24.081 83.579-15.375 12.593-35.103 17.369-53.892 13.742-27.995-5.404-43.138-18.578-94.753-18.578-67.811 0-114.064 22.561-116.059 23.55l-20.863 10.432c-10.32 5.16-15.02 18.056-9.874 28.383 3.675 7.375 11.099 11.64 18.812 11.639 6.488 0 8.334-1.7 30.62-12.843 1.307-.626 40.614-19.161 97.364-19.161 28.342 0 41.615 4.424 56.984 9.547 41.189 13.73 53.827 11.788 123.292 11.788 26.954 0 53.366-11.413 71.95-31.866 55.015-60.548 12.764-159.005-70.348-159.466z"/><path d="m437.297 469.115c-18.541 0-28.116-22.583-14.849-35.849 62.657-62.657 62.667-164.079 0-226.746-8.201-8.201-8.201-21.497 0-29.698 8.2-8.201 21.497-8.201 29.698 0 79.071 79.07 79.082 207.061 0 286.142-4.1 4.1-9.475 6.151-14.849 6.151z"/></g></svg>