<svg id="Layer_1" enable-background="new 0 0 511.216 511.216" height="512" viewBox="0 0 511.216 511.216" width="512" xmlns="http://www.w3.org/2000/svg"><path d="m425.962 84.85c0 114.839-19.238 242.261-83.53 338.58-42.8 64.1-86.8 84.96-88.65 85.82-14.313 6.622-30.506-4.344-29.8-20 .05-1.23 4.62-125.28-57.76-186.77-41.44-40.86-72.19-90.45-88.92-143.43-12.97-41.07-13.34-70.8-13.34-74.06 0-11.57 9.36-20.96 20.93-21 11.801 0 20.991 9.473 21.07 20.86.091 16.216 117.858 70.134 237.97 25.66 32.95-12.2 40.01-23.87 40.03-25.66 0-11.6 9.4-21 21-21 11.6 0 21 9.4 21 21z" fill="#ece2e2"/><path d="m358.792 19.914c-69.589-25.865-152.909-27.04-226.146-.555-31.591 11.424-69.028 32.296-68.683 65.774.409 60.165 120.293 84.718 181 84.718 60.736 0 181-24.631 181-85-.001-18.235-11.654-44.302-67.171-64.937z" fill="#f1ebeb"/><path d="m352.592 391.14c-88.465 16.519-202.382-8.205-269.64-66.07-69.825-60.065-63.605-132.76-8.4-175.19 4.119 14.488 9.193 28.586 15.35 42.56-52.742 56.115 31.804 137.104 151.28 157.08 139.066 23.305 244.408-44.011 174.09-124.76 2.771-16.837 5.006-34.31 6.63-51.44 98.64 79.227 66.878 192.382-69.31 217.82z" fill="#f7f3f3"/><path d="m420.912 183.08c-1.99 18.47-4.56 36.39-7.72 53.72l-8.17 4.93c-27.542 17.23-83.403 35.06-149.47 35.06-11.6 0-21-9.4-21-21s9.4-21 21-21c66.26 0 108.57-18.21 128.03-29.17z" fill="#f1ebeb"/><g fill="#f7f3f3"><path d="m159.536 511.191c-6.617 0-5.507-.287-52.042-23.554-10.374-5.187-14.578-17.801-9.392-28.175 5.187-10.374 17.802-14.577 28.175-9.392l42.667 21.333c19.719 9.86 12.713 39.788-9.408 39.788z"/><path d="m362.236 511.191c-22.132 0-29.114-29.934-9.408-39.788l42.666-21.333c10.376-5.186 22.987-.981 28.175 9.392 5.187 10.374.981 22.988-9.392 28.175-46.704 23.352-45.464 23.554-52.041 23.554z"/></g></svg>