<svg id="Layer_1" enable-background="new 0 0 511.421 511.421" height="512" viewBox="0 0 511.421 511.421" width="512" xmlns="http://www.w3.org/2000/svg"><g fill="#94f8fa"><path d="m285.774 4.243-30.067 22.55-30.067-22.55c-9.278-6.958-22.441-5.078-29.399 4.2-6.959 9.279-5.078 22.441 4.2 29.4l34.267 25.7v64.166c0 11.598 9.402 21 21 21s21-9.402 21-21v-64.165l34.267-25.7c9.278-6.959 11.159-20.122 4.2-29.4-6.959-9.278-20.121-11.159-29.401-4.201z"/><path d="m127.707 276.71c11.598 0 21-9.402 21-21s-9.402-21-21-21h-64.167l-25.7-34.267c-6.958-9.277-20.121-11.159-29.399-4.2-9.278 6.958-11.159 20.122-4.2 29.4l22.55 30.066-22.551 30.068c-10.499 13.999-.215 33.602 16.783 33.602 6.385 0 12.691-2.901 16.816-8.401l25.7-34.267h64.168z"/><path d="m310.973 473.576-34.267-25.7v-64.166c0-11.598-9.402-21-21-21s-21 9.402-21 21v64.167l-34.267 25.7c-9.278 6.959-11.159 20.122-4.2 29.4s20.121 11.159 29.399 4.2l30.067-22.55 30.067 22.55c9.236 6.927 22.41 5.12 29.399-4.2 6.962-9.279 5.081-22.442-4.198-29.401z"/><path d="m484.624 255.71 22.55-30.066c6.959-9.278 5.078-22.441-4.2-29.4-9.277-6.959-22.441-5.078-29.399 4.2l-25.7 34.267h-64.167c-11.598 0-21 9.402-21 21s9.402 21 21 21h64.167l25.7 34.267c4.126 5.501 10.431 8.401 16.816 8.401 16.972-.002 27.309-19.567 16.783-33.602z"/><path d="m341.04 191.377c5.374 0 10.749-2.051 14.85-6.151l32.875-32.875c43.543 17.418 42.847 17.698 48.269 17.698 8.334 0 16.221-4.996 19.505-13.206 4.308-10.769-.931-22.99-11.699-27.297l-23.763-9.505 20.148-20.148c8.2-8.201 8.201-21.497 0-29.698-8.202-8.201-21.497-8.201-29.699 0l-20.147 20.147-9.505-23.764c-4.308-10.769-16.526-16.007-27.297-11.699-10.769 4.307-16.007 16.529-11.699 27.297l16.19 40.477-32.876 32.875c-13.272 13.271-3.69 35.849 14.848 35.849z"/><path d="m152.347 122.652 16.19-40.477c4.308-10.768-.931-22.99-11.699-27.297-10.771-4.31-22.99.931-27.297 11.699l-9.505 23.764-20.147-20.146c-8.201-8.201-21.498-8.201-29.699 0s-8.2 21.498 0 29.698l20.148 20.148-23.763 9.505c-10.769 4.308-16.007 16.529-11.699 27.297 4.287 10.717 16.482 16.025 27.298 11.699l40.476-16.191 32.875 32.875c8.201 8.201 21.498 8.201 29.699 0s8.2-21.498 0-29.698z"/><path d="m155.524 326.195-32.875 32.875-40.476-16.191c-10.775-4.308-22.991.931-27.298 11.699-4.308 10.769.931 22.99 11.699 27.297l23.763 9.505-20.147 20.148c-13.271 13.271-3.688 35.849 14.85 35.849 5.374 0 10.749-2.051 14.85-6.151l20.147-20.147 9.505 23.764c3.284 8.211 11.17 13.207 19.505 13.207 14.757 0 25.027-14.966 19.491-28.804l-16.19-40.477 32.876-32.875c8.2-8.201 8.201-21.497 0-29.698-8.203-8.202-21.498-8.202-29.7-.001z"/><path d="m429.24 342.879-40.476 16.191-32.875-32.875c-8.201-8.201-21.498-8.201-29.699 0s-8.2 21.498 0 29.698l32.876 32.875-16.19 40.477c-5.527 13.815 4.706 28.807 19.491 28.804 8.334 0 16.221-4.996 19.505-13.207l9.505-23.764 20.147 20.147c4.101 4.101 9.476 6.151 14.85 6.151 18.55 0 28.108-22.59 14.85-35.849l-20.148-20.148 23.763-9.505c10.769-4.308 16.007-16.529 11.699-27.297-4.307-10.767-16.528-16.005-27.298-11.698z"/></g><path d="m392.703 248.337-32-85.333c-2.13-5.679-6.61-10.16-12.289-12.29l-85.333-32c-4.756-1.782-9.992-1.782-14.748 0l-85.333 32c-5.679 2.13-10.159 6.61-12.289 12.29l-32 85.333c-1.782 4.754-1.782 9.993 0 14.747l32 85.333c2.13 5.679 6.61 10.16 12.289 12.29 92.118 34.544 87.273 33.337 92.707 33.337 5.343 0 .281 1.323 92.707-33.337 5.679-2.13 10.159-6.61 12.289-12.29l32-85.333c1.782-4.754 1.782-9.993 0-14.747z" fill="#aefcfe"/><circle cx="255.707" cy="255.71" fill="#94f8fa" r="21.333"/></svg>