<svg id="Layer_1" enable-background="new 0 0 511.334 511.334" height="512" viewBox="0 0 511.334 511.334" width="512" xmlns="http://www.w3.org/2000/svg"><path d="m352.343 337.368c-50.434-43.005-49.955-120.395 0-162.991 9.824-8.378 9.827-23.574.005-31.955-83.431-71.186-212.446-30.151-240.505 74.778-18.163 67.764 13.399 139.291 75.938 171.292 53.149 27.268 118.344 20.275 164.567-19.17 9.821-8.381 9.82-23.577-.005-31.954z" fill="#ece2e2"/><path d="m235.872 264.487c-18.266-41.033-60.614-66.264-105.372-62.787-8.876.69-16.353 6.901-18.657 15.5-15.999 59.691 6.194 126.572 63.163 163.941 9.38 6.153 16.512 10.298 24.662 9.42 4.621-.497 8.915-2.513 12.231-5.652l.001.001c32.643-30.927 42.275-79.323 23.972-120.423z" fill="#f1ebeb"/><path d="m490.334 42.667h-21.667v-21.667c0-11.598-9.402-21-21-21s-21 9.402-21 21v21.667h-21.667c-11.598 0-21 9.402-21 21s9.402 21 21 21h21.667v21.667c0 11.598 9.402 21 21 21s21-9.402 21-21v-21.667h21.667c11.598 0 21-9.402 21-21s-9.402-21-21-21z" fill="#ffec8f"/><path d="m85 437.333h-11v-11c0-11.598-9.402-21-21-21s-21 9.402-21 21v11h-11c-11.598 0-21 9.402-21 21s9.402 21 21 21h11v11c0 11.598 9.402 21 21 21s21-9.402 21-21v-11h11c11.598 0 21-9.402 21-21s-9.402-21-21-21z" fill="#ffec8f"/><g fill="#ffe773"><circle cx="405" cy="405" r="21.333"/><circle cx="85" cy="85" r="21.333"/></g></svg>