<svg id="Layer_1" enable-background="new 0 0 512.172 512.172" height="512" viewBox="0 0 512.172 512.172" width="512" xmlns="http://www.w3.org/2000/svg"><path d="m504.334 230.535c-50.434-43.005-49.954-120.395 0-162.991 9.824-8.378 9.828-23.574.005-31.955-83.4-71.16-212.436-30.189-240.504 74.778-18.165 67.776 13.41 139.297 75.938 171.291 53.15 27.269 118.345 20.274 164.568-19.17 9.82-8.379 9.818-23.575-.007-31.953z" fill="#f1ebeb"/><path d="m399.337 215.589c-30.756-107.925-167.291-145.141-248.227-64.877-80.841-7.268-150.741 56.438-150.741 137.789 0 28.585 8.847 55.81 23.685 77.422.401.589.832 1.157 1.29 1.702 20.264 24.07 49.92 37.875 81.365 37.875h309.33c52.753 0 95.67-42.917 95.67-95.67 0-60.908-55.426-104.412-112.372-94.241z" fill="#aefcfe"/><path d="m240.583 223.41c-22.92-83.1-128.013-94.43-191.599-40.194-53.234 45.409-64.203 123.386-25.722 181.527.559 1.092.642 1.671 2.812 3.741 20.242 23.54 49.565 37.017 80.635 37.017h74.33v-21c0-21.964 9.487-41.997 26.714-56.407 30.924-25.868 43.504-65.981 32.83-104.684z" fill="#94f8fa"/><path d="m504.288 273.388c-22.374-54.172-83.261-72.686-130.509-49.396-37.893 18.679-23.369 76.398 18.959 74.875 34.47-1.232 59.55 29.014 55.192 60.495-1.582 11.406 5.148 19.086 11.392 22.198l13.538 6.707 10.687-10.644c27.879-27.769 35.828-67.709 20.741-104.235z" fill="#94f8fa"/><g fill="#f1ebeb"><path d="m74.689 512.172c-15.431 0-25.794-16.342-18.767-30.396l21.333-42.667c5.187-10.374 17.802-14.578 28.174-9.391 10.374 5.187 14.578 17.801 9.391 28.174l-21.333 42.667c-3.678 7.359-11.095 11.613-18.798 11.613z"/><path d="m224.023 512.172c-15.431 0-25.794-16.342-18.767-30.396l21.333-42.667c5.187-10.374 17.801-14.578 28.174-9.391 10.374 5.187 14.578 17.801 9.391 28.174l-21.334 42.667c-3.678 7.359-11.095 11.613-18.797 11.613z"/><path d="m149.356 512.172c-15.433 0-25.793-16.344-18.767-30.396l21.333-42.667c5.187-10.374 17.802-14.578 28.175-9.392 10.374 5.187 14.578 17.801 9.392 28.175l-21.333 42.667c-3.68 7.359-11.097 11.613-18.8 11.613z"/><path d="m373.356 512.172c-15.433 0-25.793-16.344-18.767-30.396l21.333-42.667c5.187-10.374 17.802-14.578 28.175-9.392 10.374 5.187 14.578 17.801 9.392 28.175l-21.333 42.667c-3.68 7.359-11.097 11.613-18.8 11.613z"/><path d="m298.689 512.172c-15.431 0-25.794-16.342-18.767-30.396l21.333-42.667c5.187-10.374 17.801-14.578 28.174-9.391 10.374 5.187 14.578 17.801 9.391 28.174l-21.333 42.667c-3.678 7.359-11.095 11.613-18.798 11.613z"/></g></svg>