<svg id="Layer_1" enable-background="new 0 0 511.45 511.45" height="512" viewBox="0 0 511.45 511.45" width="512" xmlns="http://www.w3.org/2000/svg"><path d="m362.344 21.39c-82.159 0-149 66.841-149 149 0 82.512 67.017 149.039 149.152 149.039 80.808 0 148.848-65.54 148.848-149.039 0-82.159-66.841-149-149-149z" fill="#ffe773"/><path d="m493.277 99.236-4.603-8.451-9.406-2.032c-124.866-26.971-223.156 105.462-162.526 216.791l4.603 8.451 9.406 2.032c44.475 9.606 90.074-1.379 125.2-29.728 57.934-46.758 70.503-126.145 37.326-187.063z" fill="#ffec8f"/><path d="m398.977 193.477c-30.756-107.925-167.291-145.141-248.227-64.877-80.842-7.268-150.742 56.438-150.742 137.79 0 28.585 8.847 55.81 23.685 77.422.401.589.832 1.157 1.29 1.702 20.264 24.07 49.92 37.875 81.365 37.875h309.33c52.753 0 95.67-42.917 95.67-95.67 0-60.909-55.426-104.412-112.371-94.242z" fill="#aefcfe"/><path d="m240.222 201.298c-22.92-83.1-128.013-94.43-191.599-40.194-53.234 45.41-64.203 123.387-25.722 181.527.559 1.092.642 1.671 2.812 3.741 20.242 23.54 49.565 37.017 80.635 37.017h74.33v-21c0-21.964 9.487-41.997 26.714-56.407 30.924-25.868 43.504-65.98 32.83-104.684z" fill="#94f8fa"/><path d="m503.927 251.276c-22.374-54.172-83.261-72.686-130.509-49.396-37.893 18.679-23.369 76.398 18.959 74.875 34.47-1.232 59.55 29.014 55.192 60.495-1.582 11.406 5.148 19.086 11.392 22.198l13.538 6.707 10.687-10.644c27.879-27.768 35.828-67.709 20.741-104.235z" fill="#94f8fa"/><g fill="#f1ebeb"><path d="m74.328 490.061c-15.431 0-25.794-16.342-18.767-30.396l21.333-42.667c5.187-10.374 17.801-14.578 28.174-9.391s14.578 17.801 9.391 28.174l-21.333 42.667c-3.678 7.358-11.095 11.613-18.798 11.613z"/><path d="m223.662 490.061c-15.431 0-25.794-16.342-18.767-30.396l21.333-42.667c5.187-10.374 17.8-14.578 28.174-9.391s14.578 17.801 9.391 28.174l-21.333 42.667c-3.679 7.358-11.096 11.613-18.798 11.613z"/><path d="m148.995 490.061c-15.433 0-25.793-16.344-18.767-30.396l21.333-42.667c5.187-10.374 17.801-14.578 28.175-9.392 10.374 5.187 14.578 17.801 9.392 28.175l-21.333 42.667c-3.68 7.358-11.097 11.613-18.8 11.613z"/><path d="m372.995 490.061c-15.433 0-25.793-16.344-18.767-30.396l21.333-42.667c5.187-10.374 17.801-14.578 28.175-9.392 10.374 5.187 14.578 17.801 9.392 28.175l-21.333 42.667c-3.68 7.358-11.097 11.613-18.8 11.613z"/><path d="m298.328 490.061c-15.431 0-25.794-16.342-18.767-30.396l21.333-42.667c5.187-10.374 17.801-14.578 28.174-9.391s14.578 17.801 9.391 28.174l-21.333 42.667c-3.678 7.358-11.095 11.613-18.798 11.613z"/></g></svg>