<svg id="Layer_1" enable-background="new 0 0 511.45 511.45" height="512" viewBox="0 0 511.45 511.45" width="512" xmlns="http://www.w3.org/2000/svg"><g fill="#ffe773"><path d="m337.461 490.063c-14.291 0-24.462-14.033-19.926-27.645l5.009-15.031h-2.866c-14.315 0-24.452-14.047-19.923-27.64l21.33-64c3.667-11.003 15.558-16.953 26.563-13.283 11.003 3.667 16.95 15.56 13.283 26.563l-12.118 36.36h2.865c14.314 0 24.452 14.046 19.923 27.639l-14.22 42.67c-2.933 8.8-11.128 14.366-19.92 14.367z"/><path d="m156.121 490.063c-14.267 0-24.472-14.014-19.925-27.649l5.012-15.026h-2.86c-14.315 0-24.452-14.047-19.923-27.64l21.33-64c3.666-11.003 15.56-16.953 26.563-13.283 11.003 3.667 16.95 15.56 13.283 26.563l-12.118 36.36h2.865c14.315 0 24.455 14.049 19.922 27.644l-14.229 42.67c-2.936 8.796-11.129 14.36-19.92 14.361z"/><path d="m362.344 21.387c-82.159 0-149 66.841-149 149 0 82.512 67.017 149.039 149.152 149.039 80.808 0 148.848-65.54 148.848-149.039 0-82.158-66.841-149-149-149z"/></g><path d="m493.277 99.234-4.603-8.451-9.406-2.032c-124.866-26.972-223.156 105.461-162.526 216.79l4.603 8.451 9.406 2.032c44.475 9.606 90.074-1.379 125.2-29.728 57.934-46.757 70.503-126.145 37.326-187.062z" fill="#ffec8f"/><path d="m398.977 193.475c-30.756-107.925-167.291-145.142-248.227-64.878-80.842-7.267-150.742 56.439-150.742 137.79 0 28.585 8.847 55.81 23.685 77.422.401.589.832 1.157 1.29 1.702 20.264 24.07 49.92 37.875 81.365 37.875h309.33c52.753 0 95.67-42.917 95.67-95.67 0-60.908-55.426-104.412-112.371-94.241z" fill="#aefcfe"/><path d="m240.222 201.296c-22.92-83.1-128.013-94.43-191.599-40.194-53.234 45.409-64.203 123.386-25.722 181.527.559 1.092.642 1.671 2.812 3.741 20.242 23.54 49.565 37.017 80.635 37.017h74.33v-21c0-21.964 9.487-41.997 26.714-56.407 30.924-25.868 43.504-65.981 32.83-104.684z" fill="#94f8fa"/><path d="m503.927 251.274c-22.374-54.172-83.261-72.686-130.509-49.396-37.893 18.679-23.369 76.398 18.959 74.875 34.47-1.232 59.55 29.014 55.192 60.495-1.582 11.406 5.148 19.086 11.392 22.198l13.538 6.707 10.687-10.644c27.879-27.769 35.828-67.709 20.741-104.235z" fill="#94f8fa"/><path d="m230.78 490.063c-14.264 0-24.473-14.011-19.925-27.649l26.353-79.027h-2.86c-14.313 0-24.451-14.043-19.924-27.637l10.66-32c3.666-11.003 15.557-16.955 26.561-13.286 11.004 3.666 16.952 15.557 13.287 26.561l-1.454 4.363h2.87c14.318 0 24.453 14.05 19.922 27.643l-35.57 106.67c-2.934 8.797-11.129 14.361-19.92 14.362z" fill="#ffe773"/></svg>