<svg id="Layer_1" enable-background="new 0 0 512.501 512.501" height="512" viewBox="0 0 512.501 512.501" width="512" xmlns="http://www.w3.org/2000/svg"><g fill="#f1ebeb"><path d="m96.206 448.174c-14.292 0-24.462-14.035-19.925-27.646l10.667-32c3.668-11.004 15.562-16.95 26.563-13.282 11.003 3.668 16.949 15.561 13.282 26.563l-10.667 32c-2.934 8.8-11.128 14.365-19.92 14.365z"/><path d="m245.54 448.174c-14.292 0-24.462-14.035-19.925-27.646l10.667-32c3.667-11.004 15.563-16.95 26.563-13.282 11.003 3.668 16.949 15.561 13.282 26.563l-10.667 32c-2.934 8.8-11.128 14.365-19.92 14.365z"/><path d="m394.873 448.174c-14.265 0-24.471-14.01-19.925-27.646l10.667-32c3.668-11.004 15.56-16.952 26.563-13.281 11.002 3.667 16.949 15.56 13.281 26.563l-10.667 32c-2.933 8.799-11.127 14.364-19.919 14.364z"/><path d="m149.54 512.174c-14.292 0-24.462-14.035-19.925-27.646l10.667-32c3.667-11.003 15.563-16.948 26.563-13.282 11.003 3.668 16.949 15.561 13.282 26.563l-10.667 32c-2.934 8.8-11.128 14.365-19.92 14.365z"/><path d="m298.873 512.174c-14.265 0-24.471-14.01-19.925-27.646l10.667-32c3.668-11.003 15.56-16.953 26.563-13.281 11.002 3.667 16.949 15.56 13.281 26.563l-10.667 32c-2.933 8.799-11.127 14.364-19.919 14.364z"/><circle cx="74.87" cy="491.168" r="21.333"/><circle cx="224.203" cy="491.168" r="21.333"/><circle cx="373.537" cy="491.168" r="21.333"/><path d="m504.499 230.535c-50.434-43.005-49.954-120.395 0-162.991 9.824-8.378 9.828-23.574.005-31.955-83.4-71.16-212.436-30.189-240.504 74.778-18.165 67.776 13.41 139.297 75.938 171.291 53.15 27.269 118.345 20.274 164.568-19.17 9.82-8.379 9.818-23.575-.007-31.953z"/></g><path d="m399.502 215.589c-30.756-107.925-167.291-145.141-248.227-64.877-80.841-7.268-150.742 56.438-150.742 137.789 0 28.585 8.847 55.81 23.685 77.422.401.589.832 1.157 1.29 1.702 20.264 24.07 49.92 37.875 81.365 37.875h309.33c52.753 0 95.67-42.917 95.67-95.67 0-60.908-55.425-104.412-112.371-94.241z" fill="#aefcfe"/><path d="m240.747 223.41c-22.92-83.1-128.013-94.43-191.599-40.194-53.234 45.409-64.203 123.386-25.722 181.527.559 1.092.642 1.671 2.812 3.741 20.242 23.54 49.565 37.017 80.635 37.017h74.33v-21c0-21.964 9.487-41.997 26.714-56.407 30.925-25.868 43.505-65.981 32.83-104.684z" fill="#94f8fa"/><path d="m504.452 273.388c-22.374-54.172-83.261-72.686-130.509-49.396-37.893 18.679-23.369 76.398 18.959 74.875 34.47-1.232 59.55 29.014 55.192 60.495-1.582 11.406 5.148 19.086 11.392 22.198l13.538 6.707 10.687-10.644c27.88-27.769 35.828-67.709 20.741-104.235z" fill="#94f8fa"/></svg>