<svg id="Layer_1" enable-background="new 0 0 511.594 511.594" height="512" viewBox="0 0 511.594 511.594" width="512" xmlns="http://www.w3.org/2000/svg"><path d="m402.162 174.351c-22.307-116.353-166.481-161.768-251.278-77.669-109.021-9.681-184.69 104.841-135.626 200.69 7.827 15.292 29.631 15.173 37.392-.01 19.499-38.145 61.039-58.391 102.586-51.114 7.279 1.278 14.694-1.368 19.522-6.964 46.419-53.783 132.378-48.954 171.684 12.952 8.715 13.837 14.017 29.096 15.757 45.353 1.548 14.457 17.009 23.022 30.095 16.636 19.314-9.432 42.759-6.456 59.138 8.098 7.482 6.648 18.683 7.124 26.714.977 21.191-16.224 33.344-40.824 33.344-67.495.001-56.747-54.843-97.716-109.328-81.454z" fill="#dffeff"/><path d="m399.12 268.221c-30.756-107.925-167.291-145.141-248.227-64.877-80.841-7.268-150.742 56.438-150.742 137.79 0 28.585 8.847 55.81 23.685 77.422.401.589.832 1.157 1.29 1.702 20.264 24.07 49.92 37.875 81.365 37.875h309.33c52.753 0 95.67-42.917 95.67-95.67 0-60.909-55.425-104.412-112.371-94.242z" fill="#aefcfe"/><g fill="#94f8fa"><path d="m240.365 276.042c-22.92-83.1-128.013-94.43-191.599-40.194-53.234 45.409-64.203 123.386-25.722 181.527.559 1.092.642 1.671 2.812 3.741 20.242 23.54 49.565 37.017 80.635 37.017h74.33v-21c0-21.964 9.487-41.997 26.714-56.407 30.925-25.868 43.505-65.981 32.83-104.684z"/><path d="m504.07 326.02c-22.374-54.172-83.261-72.686-130.509-49.396-37.893 18.679-23.369 76.398 18.959 74.875 34.47-1.232 59.55 29.014 55.192 60.495-1.582 11.406 5.148 19.086 11.392 22.198l13.538 6.707 10.687-10.644c27.88-27.768 35.828-67.709 20.741-104.235z"/></g></svg>