<svg id="Layer_1" enable-background="new 0 0 511.419 511.419" height="512" viewBox="0 0 511.419 511.419" width="512" xmlns="http://www.w3.org/2000/svg"><g fill="#ffe773"><path d="m426.378 276.749h-32c-11.598 0-21-9.402-21-21s9.402-21 21-21h32c11.598 0 21 9.402 21 21s-9.402 21-21 21z"/><path d="m353.763 178.698c-18.534 0-28.125-22.573-14.85-35.85l22.628-22.628c8.201-8.201 21.498-8.201 29.699 0 8.2 8.201 8.2 21.498 0 29.699l-22.628 22.628c-4.1 4.101-9.475 6.151-14.849 6.151z"/><path d="m376.391 397.429c-5.374 0-10.749-2.05-14.85-6.15l-22.628-22.628c-8.2-8.201-8.2-21.498 0-29.699 8.201-8.201 21.498-8.201 29.699 0l22.628 22.628c13.271 13.272 3.689 35.849-14.849 35.849z"/><path d="m354.503 144.214c-30.742-27.052-69.63-40.188-109.655-37.076-10.61.118-20.711 8.236-20.797 22.168-.031 5.066-.01 14.206-.01 162.043 0 7.497 3.997 14.426 10.486 18.179 33.647 19.46 41.16 50.704 42.644 67.597 1.394 15.877 15.603 23.47 27.951 19.226 107.034-37.12 134.389-177.803 49.381-252.137z"/></g><path d="m386.646 184.6-4.602-8.454-9.408-2.032c-52.741-11.395-107.668 6.646-143.342 47.082l-5.252 5.954v76.313l10.486 6.064c33.647 19.46 41.16 50.704 42.644 67.597 1.155 13.158 8.664 16.37 18.184 22.563l9.768-3.337c85.646-29.702 125.747-130.508 81.522-211.75z" fill="#ffec8f"/><path d="m319.381 383.749c0 70.4-57.27 127.67-127.67 127.67s-127.67-57.27-127.67-127.67c0-41.25 20.16-79.98 53.34-103.8v-205.53c0-66.201 80.207-99.252 126.89-52.57 14.04 14.04 21.77 32.71 21.77 52.57v205.53c33.18 23.82 53.34 62.541 53.34 103.8z" fill="#ffdcc6"/><path d="m191.711 256.082c-70.396 0-127.667 57.271-127.667 127.667s57.271 127.667 127.667 127.667 127.667-57.271 127.667-127.667-57.271-127.667-127.667-127.667z" fill="#ffebd2"/><path d="m266.041 106.749v42h-53c-11.59 0-21-9.4-21-21s9.41-21 21-21z" fill="#f2cbb6"/><path d="m191.711 426.082c-23.343 0-42.333-18.99-42.333-42.333s18.991-42.333 42.333-42.333 42.333 18.99 42.333 42.333-18.99 42.333-42.333 42.333z" fill="#ffdcc6"/></svg>