<svg id="Layer_1" enable-background="new 0 0 511.408 511.408" height="512" viewBox="0 0 511.408 511.408" width="512" xmlns="http://www.w3.org/2000/svg"><path d="m438.816 337.227c-50.431-42.995-49.954-120.401 0-162.989 9.826-8.378 9.828-23.574.006-31.956-61.658-52.607-155.148-45.886-208.404 14.977-3.35 3.828-5.196 8.742-5.196 13.829v120.25c0 7.496 3.996 14.424 10.484 18.178 24.763 14.325 40.709 39.846 42.654 68.267.571 8.344 6.039 15.553 13.92 18.354 50.592 17.977 106.649 7.098 146.545-26.955 9.82-8.384 9.814-23.579-.009-31.955z" fill="#f1ebeb"/><path d="m267.221 279.933v-205.525c0-19.861-7.731-38.53-21.771-52.568-46.604-46.609-126.889-13.74-126.889 52.568v205.525c-33.179 23.825-53.34 62.552-53.34 103.805 0 70.397 57.272 127.67 127.67 127.67s127.67-57.272 127.67-127.67c0-41.256-20.16-79.981-53.34-103.805z" fill="#ffdcc6"/><path d="m192.891 256.071c-70.396 0-127.666 57.271-127.666 127.667s57.271 127.667 127.666 127.667 127.667-57.271 127.667-127.667-57.271-127.667-127.667-127.667z" fill="#ffebd2"/><path d="m267.221 191.738v42h-53c-11.59 0-21-9.4-21-21s9.41-21 21-21z" fill="#f2cbb6"/><path d="m192.891 426.071c-23.343 0-42.333-18.99-42.333-42.333s18.991-42.333 42.333-42.333 42.333 18.99 42.333 42.333-18.99 42.333-42.333 42.333z" fill="#ffdcc6"/></svg>