<svg id="Layer_1" enable-background="new 0 0 511.408 511.408" height="512" viewBox="0 0 511.408 511.408" width="512" xmlns="http://www.w3.org/2000/svg"><g fill="#94f8fa"><path d="m452.599 255.738 22.55-30.067c6.959-9.278 5.078-22.441-4.2-29.399-9.278-6.96-22.441-5.078-29.399 4.2l-25.7 34.267h-64.167c-11.598 0-21 9.402-21 21s9.402 21 21 21h64.167l25.7 34.267c4.126 5.501 10.431 8.402 16.816 8.401 16.968 0 27.311-19.564 16.783-33.601z"/><path d="m309.015 191.405c5.374 0 10.749-2.05 14.85-6.15l32.876-32.876c43.543 17.417 42.847 17.698 48.268 17.698 8.334 0 16.221-4.996 19.505-13.207 4.308-10.769-.931-22.989-11.699-27.297l-23.763-9.505 20.147-20.147c8.2-8.201 8.2-21.498 0-29.699-8.201-8.201-21.498-8.201-29.699 0l-20.147 20.147-9.505-23.763c-4.307-10.768-16.53-16.006-27.297-11.699-10.769 4.308-16.007 16.528-11.699 27.297l16.19 40.476-32.876 32.876c-13.272 13.272-3.69 35.849 14.849 35.849z"/><path d="m397.216 342.907-40.476 16.19-32.876-32.876c-8.201-8.201-21.498-8.201-29.699 0-8.2 8.201-8.2 21.498 0 29.699l32.876 32.876-16.19 40.476c-5.527 13.816 4.705 28.805 19.491 28.805 8.334-.001 16.221-4.996 19.505-13.207l9.505-23.763 20.147 20.147c4.101 4.101 9.476 6.15 14.85 6.15 18.534 0 28.125-22.573 14.85-35.85l-20.147-20.147 23.763-9.505c10.769-4.308 16.007-16.528 11.699-27.297-4.308-10.767-16.53-16.003-27.298-11.698z"/></g><path d="m360.675 248.364-32-85.33c-2.13-5.679-6.61-10.159-12.289-12.289l-85.33-32c-9.002-3.376-15.299.206-25.416 3.999-8.197 3.073-13.628 10.909-13.628 19.664v148.93c0 7.497 3.997 14.426 10.487 18.179 20.145 11.65 34.861 31.226 40.377 53.706 3 12.221 16.005 19.069 27.769 14.659l45.74-17.15c5.679-2.129 10.16-6.61 12.29-12.289l32-85.33c1.782-4.756 1.782-9.995 0-14.749z" fill="#aefcfe"/><path d="m234.012 279.933v-205.525c0-19.861-7.731-38.53-21.771-52.568-46.604-46.609-126.889-13.74-126.889 52.568v205.525c-33.179 23.825-53.34 62.552-53.34 103.805 0 70.397 57.272 127.67 127.67 127.67s127.67-57.272 127.67-127.67c0-41.256-20.16-79.981-53.34-103.805z" fill="#ffdcc6"/><path d="m159.682 256.071c-70.396 0-127.667 57.271-127.667 127.667s57.271 127.667 127.667 127.667 127.667-57.271 127.667-127.667-57.272-127.667-127.667-127.667z" fill="#ffebd2"/><path d="m234.012 234.405v42h-53c-11.59 0-21-9.4-21-21s9.41-21 21-21z" fill="#f2cbb6"/><path d="m159.682 426.071c-23.343 0-42.334-18.99-42.334-42.333s18.991-42.333 42.334-42.333 42.333 18.99 42.333 42.333-18.99 42.333-42.333 42.333z" fill="#ffdcc6"/></svg>