<svg id="Layer_1" enable-background="new 0 0 511.408 511.408" height="512" viewBox="0 0 511.408 511.408" width="512" xmlns="http://www.w3.org/2000/svg"><g fill="#ece2e2"><path d="m479.267 197.882c-2.371-50.806-43.972-90.86-95.02-91.142-17.297-.096-27.523 19.057-17.765 32.991 5.91 8.438 7.097 12.474 8.617 16.261 13.506 33.64 3.13 61.29-24.246 83.715-15.004 12.266-34.697 17.278-53.726 13.606-25.854-4.989-40.614-16.554-83.209-18.347-11.512-.484-21.227 8.375-21.851 19.833-.636 11.674 8.947 21.632 20.627 22.153 21.563.963 33.201 4.843 46.659 9.328 41.273 13.759 53.96 11.79 123.298 11.79 54.041.001 99.209-44.774 96.616-100.188z"/><path d="m212.152 191.599c47.791 2.011 54.801 21.139 118.223 21.139 11.598 0 21-9.402 21-21s-9.402-21-21-21c-56.132 0-59.461-18.703-116.457-21.102-11.579-.487-21.376 8.511-21.864 20.099s8.51 21.377 20.098 21.864z"/><path d="m330.375 341.408c-31.669 0-44.411-5.309-62.939-11.355-11.028-3.597-22.88 2.429-26.476 13.456-3.596 11.026 2.429 22.88 13.455 26.476 20.52 6.679 38.015 13.424 75.96 13.424 11.598 0 21-9.402 21-21s-9.402-21.001-21-21.001z"/></g><path d="m234.035 279.933v-205.525c0-19.861-7.731-38.53-21.771-52.568-46.604-46.609-126.889-13.74-126.889 52.568v205.525c-33.179 23.825-53.34 62.552-53.34 103.805 0 70.397 57.272 127.67 127.67 127.67s127.67-57.272 127.67-127.67c0-41.256-20.16-79.981-53.34-103.805z" fill="#ffdcc6"/><path d="m159.705 256.071c-70.396 0-127.667 57.271-127.667 127.667s57.271 127.667 127.667 127.667 127.667-57.271 127.667-127.667-57.271-127.667-127.667-127.667z" fill="#ffebd2"/><path d="m234.035 191.738v42h-53c-11.59 0-21-9.4-21-21s9.41-21 21-21z" fill="#f2cbb6"/><path d="m159.705 426.071c-23.343 0-42.333-18.99-42.333-42.333s18.991-42.333 42.333-42.333 42.333 18.99 42.333 42.333-18.99 42.333-42.333 42.333z" fill="#ffdcc6"/></svg>