<svg id="Layer_1" enable-background="new 0 0 511.408 511.408" height="512" viewBox="0 0 511.408 511.408" width="512" xmlns="http://www.w3.org/2000/svg"><path d="m255.366 279.933v-205.525c0-19.861-7.731-38.53-21.771-52.568-46.604-46.609-126.889-13.74-126.889 52.568v205.525c-33.179 23.825-53.34 62.552-53.34 103.805 0 70.397 57.272 127.67 127.67 127.67s127.67-57.272 127.67-127.67c0-41.256-20.16-79.981-53.34-103.805z" fill="#ffdcc6"/><path d="m181.036 256.071c-70.396 0-127.667 57.271-127.667 127.667s57.271 127.667 127.667 127.667 127.667-57.271 127.667-127.667-57.271-127.667-127.667-127.667z" fill="#ffebd2"/><path d="m255.366 191.738v42h-53c-11.59 0-21-9.4-21-21s9.41-21 21-21z" fill="#f2cbb6"/><path d="m181.036 426.071c-23.343 0-42.333-18.99-42.333-42.333s18.991-42.333 42.333-42.333 42.333 18.99 42.333 42.333-18.99 42.333-42.333 42.333z" fill="#ffdcc6"/><path d="m426.373 244.744c-14.292 0-24.462-14.035-19.925-27.646l10.667-32c3.667-11.003 15.563-16.947 26.563-13.282 11.003 3.668 16.949 15.561 13.282 26.563l-10.667 32c-2.934 8.8-11.128 14.365-19.92 14.365z" fill="#ece2e2"/><path d="m362.373 308.744c-14.292 0-24.462-14.035-19.925-27.646l10.667-32c3.667-11.003 15.562-16.95 26.563-13.282 11.003 3.668 16.949 15.561 13.282 26.563l-10.667 32c-2.934 8.799-11.128 14.365-19.92 14.365z" fill="#ece2e2"/><path d="m319.706 255.411c-14.292 0-24.462-14.035-19.925-27.646l22.787-68.359h-2.864c-13.223 0-23.194-12.11-20.592-25.118l10.996-53.334c2.275-11.373 13.339-18.753 24.711-16.474 11.373 2.274 18.748 13.338 16.474 24.71l-5.972 28.216h6.384c14.315 0 24.454 14.047 19.922 27.641l-32 96c-2.935 8.799-11.129 14.364-19.921 14.364z" fill="#ffe773"/></svg>