<svg id="Layer_1" enable-background="new 0 0 511.408 511.408" height="512" viewBox="0 0 511.408 511.408" width="512" xmlns="http://www.w3.org/2000/svg"><path d="m271.362 279.933v-205.525c0-19.861-7.731-38.53-21.771-52.568-46.604-46.609-126.889-13.74-126.889 52.568v205.525c-33.179 23.825-53.34 62.552-53.34 103.805 0 70.397 57.272 127.67 127.67 127.67s127.67-57.272 127.67-127.67c0-41.256-20.16-79.981-53.34-103.805z" fill="#ffdcc6"/><path d="m197.032 256.071c-70.396 0-127.667 57.271-127.667 127.667s57.271 127.667 127.667 127.667 127.667-57.271 127.667-127.667-57.272-127.667-127.667-127.667z" fill="#ffebd2"/><path d="m197.032 426.071c-23.343 0-42.333-18.99-42.333-42.333s18.991-42.333 42.333-42.333 42.333 18.99 42.333 42.333-18.99 42.333-42.333 42.333z" fill="#ffdcc6"/><path d="m271.362 191.738v42h-53c-11.59 0-21-9.4-21-21s9.41-21 21-21z" fill="#f2cbb6"/><g fill="#ffe773"><path d="m335.702 255.411c-14.263 0-24.471-14.008-19.925-27.646l22.786-68.359h-2.864c-14.315 0-24.453-14.046-19.922-27.641l21.332-64c3.668-11.003 15.56-16.957 26.563-13.281 11.003 3.667 16.949 15.56 13.281 26.563l-12.119 36.359h2.864c14.318 0 24.453 14.05 19.922 27.641l-32 96c-2.932 8.799-11.126 14.364-19.918 14.364z"/><path d="m389.035 404.744c-14.263 0-24.471-14.008-19.925-27.646l22.786-68.359h-2.864c-14.315 0-24.453-14.046-19.922-27.641l21.332-64c3.668-11.003 15.561-16.955 26.563-13.281 11.003 3.667 16.949 15.56 13.281 26.563l-12.119 36.359h2.864c14.318 0 24.453 14.05 19.922 27.641l-32 96c-2.932 8.798-11.126 14.364-19.918 14.364z"/></g></svg>