<svg id="Layer_1" enable-background="new 0 0 511.408 511.408" height="512" viewBox="0 0 511.408 511.408" width="512" xmlns="http://www.w3.org/2000/svg"><path d="m366.969 214.791c-18.762-66.166-82.514-113.574-155.712-107.542-10.892.897-19.274 10-19.274 20.929v163.16c0 7.496 3.996 14.425 10.485 18.178 26.434 15.29 42.854 43.73 42.854 74.223 0 11.598 9.402 21 21 21h117.33c52.753 0 95.67-42.917 95.67-95.67 0-61.316-55.907-104.502-112.353-94.278z" fill="#aefcfe"/><path d="m471.902 272.625c-22.399-54.23-83.226-72.707-130.51-49.396-16.771 8.268-25.276 26.767-20.684 44.987 4.604 18.269 20.887 30.576 39.642 29.888 37.468 0 59.286 30.931 55.193 60.495-1.583 11.414 5.154 19.095 11.405 22.204l13.532 6.691 10.679-10.636c27.881-27.766 35.829-67.707 20.743-104.233z" fill="#94f8fa"/><path d="m233.983 279.933v-205.525c0-19.861-7.731-38.53-21.771-52.568-46.604-46.609-126.89-13.74-126.89 52.568v205.525c-33.179 23.825-53.34 62.552-53.34 103.805 0 70.397 57.272 127.67 127.67 127.67s127.67-57.272 127.67-127.67c0-41.256-20.16-79.981-53.339-103.805z" fill="#ffdcc6"/><path d="m159.652 256.071c-70.396 0-127.667 57.271-127.667 127.667s57.271 127.667 127.667 127.667 127.667-57.271 127.667-127.667-57.271-127.667-127.667-127.667z" fill="#ffebd2"/><path d="m159.652 426.071c-23.343 0-42.334-18.99-42.334-42.333s18.991-42.333 42.334-42.333 42.333 18.99 42.333 42.333-18.99 42.333-42.333 42.333z" fill="#ffdcc6"/><path d="m233.983 191.738v42h-53c-11.59 0-21-9.4-21-21s9.41-21 21-21z" fill="#f2cbb6"/></svg>