<svg id="Layer_1" enable-background="new 0 0 511.408 511.408" height="512" viewBox="0 0 511.408 511.408" width="512" xmlns="http://www.w3.org/2000/svg"><path d="m329.704 279.933v-205.525c0-19.861-7.731-38.53-21.771-52.568-46.604-46.609-126.889-13.74-126.889 52.568v205.525c-33.179 23.825-53.34 62.552-53.34 103.805 0 70.397 57.272 127.67 127.67 127.67s127.67-57.272 127.67-127.67c0-41.256-20.16-79.981-53.34-103.805z" fill="#ffdcc6"/><path d="m329.701 170.405v42h-53c-11.59 0-21-9.4-21-21s9.41-21 21-21z" fill="#f2cbb6"/><path d="m255.374 256.071c-70.396 0-127.666 57.271-127.666 127.667s57.271 127.667 127.666 127.667 127.667-57.271 127.667-127.667-57.272-127.667-127.667-127.667z" fill="#ffebd2"/><path d="m255.371 426.071c-23.343 0-42.333-18.99-42.333-42.333s18.991-42.333 42.333-42.333 42.333 18.99 42.333 42.333-18.99 42.333-42.333 42.333z" fill="#ffdcc6"/><g fill="#ffb3c3"><path d="m487.82 203.679c-5.187-10.375-17.803-14.576-28.174-9.392l-12.275 6.138v-72.688c0-11.598-9.402-21-21-21s-21 9.402-21 21v72.688l-12.275-6.138c-10.373-5.186-22.987-.982-28.174 9.392-5.187 10.373-.982 22.987 9.391 28.175l42.667 21.334c5.195 2.598 11.496 3.006 17.261.678 1.236-.499-3.126 1.646 44.19-22.012 10.372-5.187 14.576-17.801 9.389-28.175z"/><path d="m118.312 194.288-12.275 6.138v-72.688c0-11.598-9.402-21-21-21s-21 9.402-21 21v72.688l-12.275-6.138c-10.374-5.186-22.987-.982-28.174 9.392-5.187 10.373-.982 22.987 9.391 28.175 46.003 23.002 44.743 22.876 49.797 23.425 8.173.888 8.43-.479 54.32-23.425 10.374-5.188 14.578-17.802 9.391-28.175-5.188-10.376-17.804-14.577-28.175-9.392z"/></g></svg>