<svg id="Layer_1" enable-background="new 0 0 511.408 511.408" height="512" viewBox="0 0 511.408 511.408" width="512" xmlns="http://www.w3.org/2000/svg"><path d="m329.687 279.933v-205.525c0-19.861-7.731-38.53-21.771-52.568-46.604-46.609-126.889-13.74-126.889 52.568v205.525c-33.179 23.825-53.34 62.552-53.34 103.805 0 70.397 57.272 127.67 127.67 127.67s127.67-57.272 127.67-127.67c0-41.256-20.16-79.981-53.34-103.805z" fill="#ffdcc6"/><path d="m255.357 256.071c-70.396 0-127.666 57.271-127.666 127.667s57.271 127.667 127.666 127.667 127.667-57.271 127.667-127.667-57.271-127.667-127.667-127.667z" fill="#ffebd2"/><path d="m255.354 426.071c-23.343 0-42.333-18.99-42.333-42.333s18.991-42.333 42.333-42.333 42.333 18.99 42.333 42.333-18.99 42.333-42.333 42.333z" fill="#ffdcc6"/><path d="m329.684 170.405v42h-53c-11.59 0-21-9.4-21-21s9.41-21 21-21z" fill="#f2cbb6"/><g fill="#acebda"><path d="m137.079 130.288c-44.773-22.386-46.104-24.306-54.326-23.423-5.052.548-3.853.455-49.791 23.423-19.718 9.858-12.714 39.788 9.407 39.788 6.029 0 8.134-1.601 21.651-8.359v72.688c0 11.598 9.402 21 21 21s21-9.402 21-21v-72.688l12.275 6.138c10.373 5.188 22.988.981 28.175-9.392 5.187-10.374.982-22.989-9.391-28.175z"/><path d="m478.412 130.288c-45.228-22.614-46.245-24.288-54.325-23.423-5.049.548-3.831.444-49.791 23.423-19.721 9.86-12.712 39.788 9.408 39.788 5.952 0 7.94-1.504 21.65-8.359v72.688c0 11.598 9.402 21 21 21s21-9.402 21-21v-72.688l12.274 6.137c10.375 5.184 22.987.982 28.175-9.392 5.187-10.373.982-22.987-9.391-28.174z"/></g></svg>