<?xml version="1.0" encoding="iso-8859-1"?>
<!-- Generator: Adobe Illustrator 19.0.0, SVG Export Plug-In . SVG Version: 6.00 Build 0)  -->
<svg version="1.1" id="Capa_1" xmlns="http://www.w3.org/2000/svg" xmlns:xlink="http://www.w3.org/1999/xlink" x="0px" y="0px"
	 viewBox="0 0 512 512" style="enable-background:new 0 0 512 512;" xml:space="preserve">
<circle style="fill:#FFC107;" cx="288" cy="256" r="224"/>
<g>
	<path style="fill:#607D8B;" d="M176,384H16c-8.832,0-16,7.168-16,16s7.168,16,16,16h160c8.832,0,16,7.2,16,16s-7.168,16-16,16
		s-16,7.168-16,16s7.168,16,16,16c26.464,0,48-21.536,48-48S202.464,384,176,384z"/>
	<path style="fill:#607D8B;" d="M240,256c-8.832,0-16,7.168-16,16s7.168,16,16,16s16,7.2,16,16s-7.168,16-16,16H16
		c-8.832,0-16,7.168-16,16s7.168,16,16,16h224c26.464,0,48-21.536,48-48S266.464,256,240,256z"/>
</g>
<g>
</g>
<g>
</g>
<g>
</g>
<g>
</g>
<g>
</g>
<g>
</g>
<g>
</g>
<g>
</g>
<g>
</g>
<g>
</g>
<g>
</g>
<g>
</g>
<g>
</g>
<g>
</g>
<g>
</g>
</svg>
