<?xml version="1.0" encoding="iso-8859-1"?>
<!-- Generator: Adobe Illustrator 19.0.0, SVG Export Plug-In . SVG Version: 6.00 Build 0)  -->
<svg version="1.1" id="Capa_1" xmlns="http://www.w3.org/2000/svg" xmlns:xlink="http://www.w3.org/1999/xlink" x="0px" y="0px"
	 viewBox="0 0 512 512" style="enable-background:new 0 0 512 512;" xml:space="preserve">
<circle style="fill:#FFC107;" cx="416" cy="96" r="96"/>
<path style="fill:#E3F2FD;" d="M416,160c-1.024,0-2.048,0-3.136,0.032C397.952,86.016,333.088,32,256,32
	c-64.032,0-121.504,38.112-146.688,96.032C48.8,129.472,0,179.136,0,240c0,61.76,50.24,112,112,112h304c52.928,0,96-43.072,96-96
	S468.928,160,416,160z"/>
<g>
	<path style="fill:#607D8B;" d="M176,480c-8.832,0-16-7.168-16-16s7.168-16,16-16s16-7.2,16-16s-7.168-16-16-16H16
		c-8.832,0-16-7.168-16-16s7.168-16,16-16h160c26.464,0,48,21.536,48,48S202.464,480,176,480z"/>
	<path style="fill:#607D8B;" d="M240,352H16c-8.832,0-16-7.168-16-16s7.168-16,16-16h224c8.832,0,16-7.2,16-16s-7.168-16-16-16
		s-16-7.168-16-16s7.168-16,16-16c26.464,0,48,21.536,48,48S266.464,352,240,352z"/>
</g>
<path style="fill:#CFD8DC;" d="M417.568,458.144L399.968,448l17.6-10.144c7.648-4.416,10.272-14.176,5.856-21.856
	c-4.416-7.68-14.208-10.304-21.856-5.856L384,420.288V400c0-8.832-7.168-16-16-16s-16,7.168-16,16v20.288l-17.568-10.144
	c-7.616-4.416-17.44-1.792-21.824,5.856c-4.448,7.648-1.824,17.44,5.856,21.856L336.032,448l-17.6,10.144
	c-7.648,4.416-10.272,14.208-5.824,21.856c2.944,5.12,8.352,8,13.856,8c2.72,0,5.472-0.672,8-2.144L352,475.712V496
	c0,8.832,7.168,16,16,16s16-7.168,16-16v-20.288l17.568,10.144c2.528,1.472,5.28,2.144,8,2.144c5.504,0,10.912-2.88,13.856-8
	C427.84,472.352,425.216,462.56,417.568,458.144z"/>
<g>
</g>
<g>
</g>
<g>
</g>
<g>
</g>
<g>
</g>
<g>
</g>
<g>
</g>
<g>
</g>
<g>
</g>
<g>
</g>
<g>
</g>
<g>
</g>
<g>
</g>
<g>
</g>
<g>
</g>
</svg>
