<?xml version="1.0" encoding="iso-8859-1"?>
<!-- Generator: Adobe Illustrator 19.0.0, SVG Export Plug-In . SVG Version: 6.00 Build 0)  -->
<svg version="1.1" id="Capa_1" xmlns="http://www.w3.org/2000/svg" xmlns:xlink="http://www.w3.org/1999/xlink" x="0px" y="0px"
	 viewBox="0 0 512 512" style="enable-background:new 0 0 512 512;" xml:space="preserve">
<path style="fill:#E3F2FD;" d="M416,144c-1.024,0-2.048,0-3.136,0.032C397.952,70.016,333.088,16,256,16
	c-64.032,0-121.504,38.112-146.688,96.032C48.8,113.472,0,163.136,0,224c0,61.76,50.24,112,112,112h304c52.928,0,96-43.072,96-96
	S468.928,144,416,144z"/>
<g>
	<path style="fill:#607D8B;" d="M176,464c-8.832,0-16-7.168-16-16s7.168-16,16-16s16-7.2,16-16s-7.168-16-16-16H16
		c-8.832,0-16-7.168-16-16s7.168-16,16-16h160c26.464,0,48,21.536,48,48S202.464,464,176,464z"/>
	<path style="fill:#607D8B;" d="M240,336H16c-8.832,0-16-7.168-16-16s7.168-16,16-16h224c8.832,0,16-7.2,16-16s-7.168-16-16-16
		s-16-7.168-16-16s7.168-16,16-16c26.464,0,48,21.536,48,48S266.464,336,240,336z"/>
</g>
<path style="fill:#2196F3;" d="M381.152,374.912c-5.952-8.64-20.384-8.64-26.304,0C344.384,390.048,320,427.52,320,448
	c0,26.464,21.536,48,48,48s48-21.536,48-48C416,427.52,391.616,390.048,381.152,374.912z"/>
<g>
</g>
<g>
</g>
<g>
</g>
<g>
</g>
<g>
</g>
<g>
</g>
<g>
</g>
<g>
</g>
<g>
</g>
<g>
</g>
<g>
</g>
<g>
</g>
<g>
</g>
<g>
</g>
<g>
</g>
</svg>
