<?xml version="1.0" encoding="iso-8859-1"?>
<!-- Generator: Adobe Illustrator 19.0.0, SVG Export Plug-In . SVG Version: 6.00 Build 0)  -->
<svg version="1.1" id="Capa_1" xmlns="http://www.w3.org/2000/svg" xmlns:xlink="http://www.w3.org/1999/xlink" x="0px" y="0px"
	 viewBox="0 0 512 512" style="enable-background:new 0 0 512 512;" xml:space="preserve">
<path style="fill:#B0BEC5;" d="M504.288,90.053c-5.056-3.264-11.52-3.36-16.672-0.32c-6.848,4-15.008,6.112-23.616,6.112
	c-26.464,0-48-21.536-48-48c0-8.608,2.112-16.768,6.112-23.584c3.04-5.184,2.912-11.616-0.32-16.704
	c-3.264-5.056-9.152-7.904-15.008-7.328C357.312,4.901,320,46.021,320,95.845c0,52.928,43.072,96,96,96
	c49.824,0,90.944-37.312,95.616-86.816C512.192,99.077,509.344,93.253,504.288,90.053z"/>
<path style="fill:#E3F2FD;" d="M416,159.845c-1.024,0-2.048,0-3.136,0.032C397.952,85.861,333.088,31.845,256,31.845
	c-64.032,0-121.504,38.112-146.688,96.032C48.8,129.317,0,178.981,0,239.845c0,61.76,50.24,112,112,112h304
	c52.928,0,96-43.072,96-96S468.928,159.845,416,159.845z"/>
<g>
	<path style="fill:#607D8B;" d="M176,479.845c-8.832,0-16-7.168-16-16s7.168-16,16-16s16-7.2,16-16s-7.168-16-16-16H16
		c-8.832,0-16-7.168-16-16s7.168-16,16-16h160c26.464,0,48,21.536,48,48S202.464,479.845,176,479.845z"/>
	<path style="fill:#607D8B;" d="M240,351.845H16c-8.832,0-16-7.168-16-16s7.168-16,16-16h224c8.832,0,16-7.2,16-16s-7.168-16-16-16
		s-16-7.168-16-16s7.168-16,16-16c26.464,0,48,21.536,48,48S266.464,351.845,240,351.845z"/>
</g>
<path style="fill:#2196F3;" d="M381.152,390.757c-5.952-8.64-20.384-8.64-26.304,0C344.384,405.893,320,443.365,320,463.845
	c0,26.464,21.536,48,48,48s48-21.536,48-48C416,443.365,391.616,405.893,381.152,390.757z"/>
<g>
</g>
<g>
</g>
<g>
</g>
<g>
</g>
<g>
</g>
<g>
</g>
<g>
</g>
<g>
</g>
<g>
</g>
<g>
</g>
<g>
</g>
<g>
</g>
<g>
</g>
<g>
</g>
<g>
</g>
</svg>
