<?xml version="1.0" encoding="iso-8859-1"?>
<!-- Generator: Adobe Illustrator 19.0.0, SVG Export Plug-In . SVG Version: 6.00 Build 0)  -->
<svg version="1.1" id="Capa_1" xmlns="http://www.w3.org/2000/svg" xmlns:xlink="http://www.w3.org/1999/xlink" x="0px" y="0px"
	 viewBox="0 0 512 512" style="enable-background:new 0 0 512 512;" xml:space="preserve">
<circle style="fill:#FFC107;" cx="416" cy="96" r="96"/>
<path style="fill:#E3F2FD;" d="M416,160c-1.024,0-2.048,0-3.136,0.032C397.952,86.016,333.088,32,256,32
	c-64.032,0-121.504,38.112-146.688,96.032C48.8,129.472,0,179.136,0,240c0,61.76,50.24,112,112,112h304c52.928,0,96-43.072,96-96
	S468.928,160,416,160z"/>
<g>
	<path style="fill:#607D8B;" d="M176,480c-8.832,0-16-7.168-16-16s7.168-16,16-16s16-7.2,16-16s-7.168-16-16-16H16
		c-8.832,0-16-7.168-16-16s7.168-16,16-16h160c26.464,0,48,21.536,48,48S202.464,480,176,480z"/>
	<path style="fill:#607D8B;" d="M240,352H16c-8.832,0-16-7.168-16-16s7.168-16,16-16h224c8.832,0,16-7.2,16-16s-7.168-16-16-16
		s-16-7.168-16-16s7.168-16,16-16c26.464,0,48,21.536,48,48S266.464,352,240,352z"/>
</g>
<path style="fill:#2196F3;" d="M381.152,390.912c-5.952-8.64-20.384-8.64-26.304,0C344.384,406.048,320,443.52,320,464
	c0,26.464,21.536,48,48,48s48-21.536,48-48C416,443.52,391.616,406.048,381.152,390.912z"/>
<g>
</g>
<g>
</g>
<g>
</g>
<g>
</g>
<g>
</g>
<g>
</g>
<g>
</g>
<g>
</g>
<g>
</g>
<g>
</g>
<g>
</g>
<g>
</g>
<g>
</g>
<g>
</g>
<g>
</g>
</svg>
