<?xml version="1.0" encoding="iso-8859-1"?>
<!-- Generator: Adobe Illustrator 19.0.0, SVG Export Plug-In . SVG Version: 6.00 Build 0)  -->
<svg version="1.1" id="Capa_1" xmlns="http://www.w3.org/2000/svg" xmlns:xlink="http://www.w3.org/1999/xlink" x="0px" y="0px"
	 viewBox="0 0 512 512" style="enable-background:new 0 0 512 512;" xml:space="preserve">
<path style="fill:#ECEFF1;" d="M449.984,48.128l-384-48C61.504-0.352,56.832,0.992,53.408,4C49.984,7.04,48,11.392,48,16v192
	c0,4.608,1.984,8.96,5.408,12c2.944,2.592,6.72,4,10.592,4c0.672,0,1.344-0.032,1.984-0.128l384-48
	c8-0.992,14.016-7.808,14.016-15.872V64C464,55.936,457.984,49.12,449.984,48.128z"/>
<path style="fill:#455A64;" d="M64,512c-8.832,0-16-7.168-16-16V16c0-8.832,7.168-16,16-16s16,7.168,16,16v480
	C80,504.832,72.832,512,64,512z"/>
<g>
	<polygon style="fill:#F44336;" points="400,41.888 336,33.888 336,190.112 400,182.112 	"/>
	<polygon style="fill:#F44336;" points="176,210.112 240,202.112 240,21.888 176,13.888 	"/>
</g>
<g>
</g>
<g>
</g>
<g>
</g>
<g>
</g>
<g>
</g>
<g>
</g>
<g>
</g>
<g>
</g>
<g>
</g>
<g>
</g>
<g>
</g>
<g>
</g>
<g>
</g>
<g>
</g>
<g>
</g>
</svg>
