<?xml version="1.0" encoding="iso-8859-1"?>
<!-- Generator: Adobe Illustrator 19.0.0, SVG Export Plug-In . SVG Version: 6.00 Build 0)  -->
<svg version="1.1" id="Capa_1" xmlns="http://www.w3.org/2000/svg" xmlns:xlink="http://www.w3.org/1999/xlink" x="0px" y="0px"
	 viewBox="0 0 512 512" style="enable-background:new 0 0 512 512;" xml:space="preserve">
<g>
	<path style="fill:#607D8B;" d="M208,336H16c-8.832,0-16,7.168-16,16s7.168,16,16,16h192c8.832,0,16,7.2,16,16s-7.168,16-16,16
		s-16,7.168-16,16s7.168,16,16,16c26.464,0,48-21.536,48-48S234.464,336,208,336z"/>
	<path style="fill:#607D8B;" d="M16,176h288c26.464,0,48-21.536,48-48s-21.536-48-48-48c-8.832,0-16,7.168-16,16s7.168,16,16,16
		s16,7.2,16,16s-7.168,16-16,16H16c-8.832,0-16,7.168-16,16S7.168,176,16,176z"/>
	<path style="fill:#607D8B;" d="M432,112c-8.832,0-16,7.168-16,16s7.168,16,16,16c26.464,0,48,21.536,48,48s-21.536,48-48,48H16
		c-8.832,0-16,7.168-16,16s7.168,16,16,16h416c44.096,0,80-35.872,80-80S476.096,112,432,112z"/>
</g>
<g>
</g>
<g>
</g>
<g>
</g>
<g>
</g>
<g>
</g>
<g>
</g>
<g>
</g>
<g>
</g>
<g>
</g>
<g>
</g>
<g>
</g>
<g>
</g>
<g>
</g>
<g>
</g>
<g>
</g>
</svg>
