<?xml version="1.0" encoding="iso-8859-1"?>
<!-- Generator: Adobe Illustrator 19.0.0, SVG Export Plug-In . SVG Version: 6.00 Build 0)  -->
<svg version="1.1" id="Capa_1" xmlns="http://www.w3.org/2000/svg" xmlns:xlink="http://www.w3.org/1999/xlink" x="0px" y="0px"
	 viewBox="0 0 448 448" style="enable-background:new 0 0 448 448;" xml:space="preserve">
<path style="fill:#B0BEC5;" d="M152,0c-23.392,0-46.56,3.584-68.832,10.656C76.512,12.768,72,18.944,72,25.888
	c0,6.976,4.48,13.12,11.104,15.264C162.592,66.72,216,140.224,216,224S162.592,381.248,83.104,406.88
	C76.48,408.992,72,415.2,72,422.112c0,6.976,4.544,13.12,11.168,15.232C105.504,444.416,128.672,448,152,448
	c123.488,0,224-100.512,224-224C376,100.48,275.488,0,152,0z"/>
<path style="fill:#CFD8DC;" d="M232,96c-19.68,0-36.576,11.872-43.968,28.864c11.552,19.168,19.904,40.256,24.192,62.784
	C218.272,190.368,224.928,192,232,192c26.496,0,48-21.504,48-48S258.496,96,232,96z"/>
<g>
</g>
<g>
</g>
<g>
</g>
<g>
</g>
<g>
</g>
<g>
</g>
<g>
</g>
<g>
</g>
<g>
</g>
<g>
</g>
<g>
</g>
<g>
</g>
<g>
</g>
<g>
</g>
<g>
</g>
</svg>
