<?xml version="1.0" encoding="iso-8859-1"?>
<!-- Generator: Adobe Illustrator 19.0.0, SVG Export Plug-In . SVG Version: 6.00 Build 0)  -->
<svg version="1.1" id="Capa_1" xmlns="http://www.w3.org/2000/svg" xmlns:xlink="http://www.w3.org/1999/xlink" x="0px" y="0px"
	 viewBox="0 0 448 448" style="enable-background:new 0 0 448 448;" xml:space="preserve">
<path style="fill:#B0BEC5;" d="M296,0c23.392,0,46.56,3.584,68.832,10.656C371.488,12.768,376,18.944,376,25.888
	c0,6.976-4.48,13.12-11.104,15.264C285.408,66.72,232,140.224,232,224s53.408,157.248,132.896,182.88
	C371.52,408.992,376,415.2,376,422.144c0,6.976-4.544,13.12-11.168,15.232C342.496,444.416,319.328,448,296,448
	C172.512,448,72,347.488,72,224C72,100.48,172.512,0,296,0z"/>
<path style="fill:#CFD8DC;" d="M232,352c15.072,0,27.136-10.656,30.528-24.704c-7.36-11.584-13.6-23.84-18.4-36.832
	C240.384,288.896,236.32,288,232,288c-17.664,0-32,14.336-32,32S214.336,352,232,352z"/>
<g>
</g>
<g>
</g>
<g>
</g>
<g>
</g>
<g>
</g>
<g>
</g>
<g>
</g>
<g>
</g>
<g>
</g>
<g>
</g>
<g>
</g>
<g>
</g>
<g>
</g>
<g>
</g>
<g>
</g>
</svg>
