<?xml version="1.0" encoding="iso-8859-1"?>
<!-- Generator: Adobe Illustrator 19.0.0, SVG Export Plug-In . SVG Version: 6.00 Build 0)  -->
<svg version="1.1" id="Capa_1" xmlns="http://www.w3.org/2000/svg" xmlns:xlink="http://www.w3.org/1999/xlink" x="0px" y="0px"
	 viewBox="0 0 512 512" style="enable-background:new 0 0 512 512;" xml:space="preserve">
<path style="fill:#455A64;" d="M507.328,356.672l-96-96c-6.24-6.24-16.384-6.24-22.624,0l-96,96
	c-4.576,4.576-5.952,11.456-3.456,17.44C291.68,380.096,297.536,384,304,384h16v80c0,8.832,7.168,16,16,16h128
	c8.832,0,16-7.168,16-16v-80h16c6.464,0,12.32-3.904,14.784-9.888S511.872,361.248,507.328,356.672z"/>
<g>
	<path style="fill:#2196F3;" d="M496,480H16c-8.832,0-16-7.168-16-16s7.168-16,16-16h480c8.832,0,16,7.168,16,16
		S504.832,480,496,480z"/>
	<path style="fill:#2196F3;" d="M374.368,52.064C341.792,38.752,307.328,32,272,32C122.016,32,0,154.016,0,304
		c0,61.568,21.248,121.952,59.84,170.016c3.04,3.808,7.616,5.984,12.48,5.984h91.2c5.6,0,10.784-2.912,13.664-7.68
		c2.912-4.768,3.104-10.72,0.544-15.68C165.952,434.016,160,409.568,160,384c0-77.12,54.784-143.168,130.24-157.056
		c5.952-1.088,10.784-5.44,12.48-11.232s-0.032-12.064-4.448-16.192C291.648,193.312,288,184.96,288,176c0-17.632,14.336-32,32-32
		c4.832,0,9.632,1.216,13.76,3.456c6.176,3.424,13.984,2.304,19.04-2.72c4.992-5.056,6.08-12.8,2.656-19.04
		c-2.272-4.064-3.456-8.8-3.456-13.696c0-13.792,8.544-25.824,21.216-29.888c6.4-2.048,10.816-7.904,11.104-14.624
		C384.576,60.768,380.608,54.624,374.368,52.064z"/>
</g>
<g>
</g>
<g>
</g>
<g>
</g>
<g>
</g>
<g>
</g>
<g>
</g>
<g>
</g>
<g>
</g>
<g>
</g>
<g>
</g>
<g>
</g>
<g>
</g>
<g>
</g>
<g>
</g>
<g>
</g>
</svg>
