<?xml version="1.0" encoding="iso-8859-1"?>
<!-- Generator: Adobe Illustrator 19.0.0, SVG Export Plug-In . SVG Version: 6.00 Build 0)  -->
<svg version="1.1" id="Capa_1" xmlns="http://www.w3.org/2000/svg" xmlns:xlink="http://www.w3.org/1999/xlink" x="0px" y="0px"
	 viewBox="0 0 478.768 478.768" style="enable-background:new 0 0 478.768 478.768;" xml:space="preserve">
<path style="fill:#90CAF9;" d="M365.912,34.736C333.272,22.8,287.16,15.984,239.384,15.984c-98.688,0-176,27.584-176,62.784
	c0,7.104,3.104,13.856,9.472,20.672L83,110.224l-9.952,10.944c-6.4,7.008-9.664,14.272-9.664,21.6
	c0,10.016,5.408,19.232,16.576,28.16l10.624,8.512l-6.688,11.84c-3.008,5.312-4.512,10.528-4.512,15.488
	c0,21.76,24.768,36.8,39.52,43.84l10.336,4.928l-1.312,11.328L111.48,270v0.032l15.904,0.8c0,18.56,14.24,32.352,26.208,40.608
	l8.512,5.888l-1.856,10.144c-0.448,2.4-0.864,4.8-0.864,7.296c0,16.48,9.28,32.096,26.112,44l7.552,5.344l-1.44,13.216
	c-0.224,36.736,28.48,65.44,63.776,65.44s64-28.704,64-64l-1.664-14.656l7.52-5.344c16.832-11.904,26.112-27.52,26.112-44
	c0-8.352-2.464-16.576-7.328-24.384l-5.44-8.672l5.632-8.608c4.768-7.168,7.168-14.688,7.168-22.336
	c0-4.672-1.408-9.856-4.416-16.192l-5.184-10.976l9.152-7.968c10.912-9.44,16.448-19.136,16.448-28.864
	c0-4.96-1.536-10.176-4.512-15.488l-6.656-11.84l10.592-8.512c11.168-8.928,16.576-18.144,16.576-28.16
	c0-3.2-0.672-6.464-2.048-9.984l-5.088-12.864l12-6.912c18.016-10.336,27.136-21.856,27.136-34.24
	C415.384,56.144,384.376,41.456,365.912,34.736z"/>
<path style="fill:#2196F3;" d="M431.384,78.768c0-105.024-384-105.024-384,0c0,11.84,5.12,22.336,13.824,31.616
	c-10.976,12.032-13.824,23.744-13.824,32.384c0,15.808,8.48,29.376,22.56,40.64c-4.16,7.392-6.56,15.232-6.56,23.36
	c0,23.488,18.464,43.904,48.64,58.272c-0.192,1.92-0.64,3.744-0.64,5.728c0,20.992,12.64,39.68,33.12,53.824
	c-0.608,3.328-1.12,6.688-1.12,10.176c0,22.592,12.48,42.656,32.864,57.088c-0.192,2.336-0.864,4.48-0.864,6.912
	c0,44.128,35.904,80,80,80c44.128,0,80-35.872,80-80c0-2.432-0.672-4.576-0.864-6.912c20.384-14.432,32.864-34.496,32.864-57.088
	c0-11.552-3.424-22.688-9.76-32.832c6.272-9.536,9.76-20.064,9.76-31.168c0-7.904-2.4-15.552-5.952-23.04
	c13.696-11.872,21.952-25.696,21.952-40.96c0-8.128-2.4-15.936-6.592-23.36c14.112-11.264,22.592-24.832,22.592-40.64
	c0-5.472-1.152-10.752-3.2-15.872C417.944,114.416,431.384,98.32,431.384,78.768z M255.384,446.768
	c-23.52,0-43.04-17.024-47.136-39.392c14.304,4.64,30.144,7.392,47.136,7.392s32.832-2.752,47.136-7.392
	C298.424,429.744,278.904,446.768,255.384,446.768z M255.384,382.768c-40.224,0-74.24-18.944-79.04-42.464
	c18.592,6.496,39.84,10.464,63.04,10.464c37.728,0,70.88-9.856,94.112-25.6c1.056,2.944,1.888,6.08,1.888,9.6
	C335.384,360.784,298.744,382.768,255.384,382.768z M335.384,270.768c0,22.72-39.424,48-96,48
	c-51.744,0-88.736-21.152-94.752-42.144c23.072,6.304,49.536,10.144,78.752,10.144c43.968,0,82.496-8.128,110.848-21.536
	C334.744,267.088,335.384,268.944,335.384,270.768z M351.384,206.768c0,19.584-49.888,48-128,48c-78.144,0-128-28.416-128-48
	c0-2.56,1.088-4.864,2.272-7.072c33.92,15.136,80.512,23.072,125.728,23.072s91.808-7.936,125.728-23.072
	C350.296,201.904,351.384,204.24,351.384,206.768z M367.384,142.768c0,19.584-56.096,48-144,48s-144-28.416-144-48
	c0-4,2.944-8.64,8.032-13.344c36.96,19.328,94.592,29.344,151.968,29.344c45.856,0,91.84-6.4,127.392-18.848
	C367.032,140.944,367.384,142.064,367.384,142.768z M239.384,126.768c-96.192,0-160-28.896-160-48s63.808-48,160-48
	s160,28.896,160,48S335.576,126.768,239.384,126.768z"/>
<g>
</g>
<g>
</g>
<g>
</g>
<g>
</g>
<g>
</g>
<g>
</g>
<g>
</g>
<g>
</g>
<g>
</g>
<g>
</g>
<g>
</g>
<g>
</g>
<g>
</g>
<g>
</g>
<g>
</g>
</svg>
