<?xml version="1.0" encoding="iso-8859-1"?>
<!-- Generator: Adobe Illustrator 19.0.0, SVG Export Plug-In . SVG Version: 6.00 Build 0)  -->
<svg version="1.1" id="Capa_1" xmlns="http://www.w3.org/2000/svg" xmlns:xlink="http://www.w3.org/1999/xlink" x="0px" y="0px"
	 viewBox="0 0 512 512" style="enable-background:new 0 0 512 512;" xml:space="preserve">
<path style="fill:#B0BEC5;" d="M504.288,90.053c-5.056-3.264-11.52-3.36-16.672-0.32c-6.848,4-15.008,6.112-23.616,6.112
	c-26.464,0-48-21.536-48-48c0-8.608,2.112-16.768,6.112-23.584c3.04-5.184,2.912-11.616-0.32-16.704
	c-3.264-5.056-9.152-7.904-15.008-7.328C357.312,4.901,320,46.021,320,95.845c0,52.928,43.072,96,96,96
	c49.824,0,90.944-37.312,95.616-86.816C512.192,99.077,509.344,93.253,504.288,90.053z"/>
<path style="fill:#E3F2FD;" d="M416,159.845c-1.024,0-2.048,0-3.136,0.032C397.952,85.861,333.088,31.845,256,31.845
	c-64.032,0-121.504,38.112-146.688,96.032C48.8,129.317,0,178.981,0,239.845c0,61.76,50.24,112,112,112h304
	c52.928,0,96-43.072,96-96S468.928,159.845,416,159.845z"/>
<g>
	<path style="fill:#CFD8DC;" d="M481.568,457.989l-17.6-10.144l17.6-10.144c7.648-4.416,10.272-14.176,5.856-21.856
		c-4.416-7.68-14.208-10.304-21.856-5.856L448,420.133v-20.288c0-8.832-7.168-16-16-16s-16,7.168-16,16v20.288l-17.568-10.144
		c-7.616-4.448-17.44-1.824-21.856,5.856c-4.448,7.648-1.824,17.44,5.856,21.856l17.6,10.144l-17.6,10.144
		c-7.648,4.416-10.272,14.176-5.856,21.856c2.944,5.12,8.352,8,13.856,8c2.72,0,5.472-0.672,8-2.144L416,475.557v20.288
		c0,8.832,7.168,16,16,16s16-7.168,16-16v-20.288l17.568,10.144c2.528,1.472,5.28,2.144,8,2.144c5.504,0,10.912-2.88,13.856-8
		C491.84,472.197,489.216,462.405,481.568,457.989z"/>
	<path style="fill:#CFD8DC;" d="M327.392,415.845c-4.416-7.68-14.208-10.304-21.856-5.856L288,420.133v-20.288
		c0-8.832-7.168-16-16-16s-16,7.168-16,16v20.288l-17.568-10.144c-7.648-4.48-17.44-1.792-21.856,5.856s-1.792,17.44,5.856,21.856
		l17.6,10.144l-17.6,10.144c-7.648,4.416-10.272,14.208-5.856,21.856c2.976,5.12,8.352,8,13.888,8c2.72,0,5.472-0.672,8-2.144
		L256,475.557v20.288c0,8.832,7.168,16,16,16s16-7.168,16-16v-20.288l17.568,10.144c2.528,1.472,5.28,2.144,8,2.144
		c5.504,0,10.912-2.88,13.856-8c4.448-7.648,1.824-17.44-5.856-21.856l-17.6-10.144l17.6-10.144
		C329.216,433.285,331.84,423.493,327.392,415.845z"/>
</g>
<path style="fill:#FFC107;" d="M173.152,358.725c-3.008-4.32-7.904-6.88-13.152-6.88h-32v-80c0-7.744-5.536-14.368-13.152-15.744
	c-7.552-1.28-15.136,2.88-17.856,10.112l-48,128c-1.856,4.896-1.152,10.432,1.824,14.752c3.04,4.32,7.936,6.88,13.184,6.88h32v80
	c0,7.744,5.536,14.368,13.152,15.744c0.96,0.16,1.92,0.256,2.848,0.256c6.56,0,12.608-4.064,14.976-10.368l48-128
	C176.8,368.549,176.128,363.045,173.152,358.725z"/>
<g>
</g>
<g>
</g>
<g>
</g>
<g>
</g>
<g>
</g>
<g>
</g>
<g>
</g>
<g>
</g>
<g>
</g>
<g>
</g>
<g>
</g>
<g>
</g>
<g>
</g>
<g>
</g>
<g>
</g>
</svg>
