<?xml version="1.0" encoding="iso-8859-1"?>
<!-- Generator: Adobe Illustrator 19.0.0, SVG Export Plug-In . SVG Version: 6.00 Build 0)  -->
<svg version="1.1" id="Capa_1" xmlns="http://www.w3.org/2000/svg" xmlns:xlink="http://www.w3.org/1999/xlink" x="0px" y="0px"
	 viewBox="0 0 512.007 512.007" style="enable-background:new 0 0 512.007 512.007;" xml:space="preserve">
<path style="fill:#FFC107;" d="M397.413,199.303c-2.944-4.576-8-7.296-13.408-7.296h-112v-176c0-7.552-5.28-14.08-12.672-15.648
	c-7.52-1.6-14.88,2.272-17.952,9.152l-128,288c-2.208,4.928-1.728,10.688,1.216,15.2c2.944,4.544,8,7.296,13.408,7.296h112v176
	c0,7.552,5.28,14.08,12.672,15.648c1.12,0.224,2.24,0.352,3.328,0.352c6.208,0,12-3.616,14.624-9.504l128-288
	C400.805,209.543,400.389,203.847,397.413,199.303z"/>
<g>
</g>
<g>
</g>
<g>
</g>
<g>
</g>
<g>
</g>
<g>
</g>
<g>
</g>
<g>
</g>
<g>
</g>
<g>
</g>
<g>
</g>
<g>
</g>
<g>
</g>
<g>
</g>
<g>
</g>
</svg>
