<?xml version="1.0" encoding="iso-8859-1"?>
<!-- Generator: Adobe Illustrator 19.0.0, SVG Export Plug-In . SVG Version: 6.00 Build 0)  -->
<svg version="1.1" id="Capa_1" xmlns="http://www.w3.org/2000/svg" xmlns:xlink="http://www.w3.org/1999/xlink" x="0px" y="0px"
	 viewBox="0 0 512 512" style="enable-background:new 0 0 512 512;" xml:space="preserve">
<circle style="fill:#FFC107;" cx="416" cy="96" r="96"/>
<path style="fill:#E3F2FD;" d="M416,160c-1.024,0-2.048,0-3.136,0.032C397.952,86.016,333.088,32,256,32
	c-64.032,0-121.504,38.112-146.688,96.032C48.8,129.472,0,179.136,0,240c0,61.76,50.24,112,112,112h304c52.928,0,96-43.072,96-96
	S468.928,160,416,160z"/>
<path style="fill:#FFC107;" d="M173.152,358.88c-3.008-4.32-7.904-6.88-13.152-6.88h-32v-80c0-7.744-5.536-14.368-13.152-15.744
	c-7.552-1.28-15.136,2.88-17.856,10.112l-48,128c-1.856,4.896-1.152,10.432,1.824,14.752C53.856,413.44,58.752,416,64,416h32v80
	c0,7.744,5.536,14.368,13.152,15.744c0.96,0.16,1.92,0.256,2.848,0.256c6.56,0,12.608-4.064,14.976-10.368l48-128
	C176.8,368.704,176.128,363.2,173.152,358.88z"/>
<path style="fill:#2196F3;" d="M258.848,390.912C248.352,406.048,224,443.52,224,464c0,26.464,21.536,48,48,48s48-21.536,48-48
	c0-20.48-24.384-57.952-34.848-73.088C279.232,382.272,264.768,382.272,258.848,390.912z"/>
<path style="fill:#CFD8DC;" d="M481.568,458.144L463.968,448l17.6-10.144c7.648-4.416,10.272-14.176,5.856-21.856
	c-4.416-7.68-14.208-10.304-21.856-5.856L448,420.288V400c0-8.832-7.168-16-16-16s-16,7.168-16,16v20.288l-17.568-10.144
	c-7.616-4.448-17.44-1.824-21.856,5.856c-4.448,7.648-1.824,17.44,5.856,21.856l17.6,10.144l-17.6,10.144
	c-7.648,4.416-10.272,14.176-5.856,21.856c2.944,5.12,8.352,8,13.856,8c2.72,0,5.472-0.672,8-2.144L416,475.712V496
	c0,8.832,7.168,16,16,16s16-7.168,16-16v-20.288l17.568,10.144c2.528,1.472,5.28,2.144,8,2.144c5.504,0,10.912-2.88,13.856-8
	C491.84,472.352,489.216,462.56,481.568,458.144z"/>
<g>
</g>
<g>
</g>
<g>
</g>
<g>
</g>
<g>
</g>
<g>
</g>
<g>
</g>
<g>
</g>
<g>
</g>
<g>
</g>
<g>
</g>
<g>
</g>
<g>
</g>
<g>
</g>
<g>
</g>
</svg>
