<?xml version="1.0" encoding="iso-8859-1"?>
<!-- Generator: Adobe Illustrator 19.0.0, SVG Export Plug-In . SVG Version: 6.00 Build 0)  -->
<svg version="1.1" id="Capa_1" xmlns="http://www.w3.org/2000/svg" xmlns:xlink="http://www.w3.org/1999/xlink" x="0px" y="0px"
	 viewBox="0 0 512 512" style="enable-background:new 0 0 512 512;" xml:space="preserve">
<path style="fill:#E3F2FD;" d="M416,144c-1.024,0-2.048,0-3.136,0.032C397.952,70.016,333.088,16,256,16
	c-64.032,0-121.504,38.112-146.688,96.032C48.8,113.472,0,163.136,0,224c0,61.76,50.24,112,112,112h304c52.928,0,96-43.072,96-96
	S468.928,144,416,144z"/>
<g>
	<circle style="fill:#CFD8DC;" cx="400" cy="448" r="48"/>
	<circle style="fill:#CFD8DC;" cx="272" cy="448" r="48"/>
</g>
<path style="fill:#FFC107;" d="M173.152,342.88c-3.008-4.32-7.904-6.88-13.152-6.88h-32v-80c0-7.744-5.536-14.368-13.152-15.744
	c-7.552-1.28-15.136,2.88-17.856,10.112l-48,128c-1.856,4.896-1.152,10.432,1.824,14.752C53.856,397.44,58.752,400,64,400h32v80
	c0,7.744,5.536,14.368,13.152,15.744c0.96,0.16,1.92,0.256,2.848,0.256c6.56,0,12.608-4.064,14.976-10.368l48-128
	C176.8,352.704,176.128,347.2,173.152,342.88z"/>
<g>
</g>
<g>
</g>
<g>
</g>
<g>
</g>
<g>
</g>
<g>
</g>
<g>
</g>
<g>
</g>
<g>
</g>
<g>
</g>
<g>
</g>
<g>
</g>
<g>
</g>
<g>
</g>
<g>
</g>
</svg>
