<?xml version="1.0" encoding="iso-8859-1"?>
<!-- Generator: Adobe Illustrator 19.0.0, SVG Export Plug-In . SVG Version: 6.00 Build 0)  -->
<svg version="1.1" id="Capa_1" xmlns="http://www.w3.org/2000/svg" xmlns:xlink="http://www.w3.org/1999/xlink" x="0px" y="0px"
	 viewBox="0 0 512 512" style="enable-background:new 0 0 512 512;" xml:space="preserve">
<path style="fill:#90A4AE;" d="M304,64v224h-96V64c0-26.56,21.44-48,48-48S304,37.44,304,64z"/>
<path style="fill:#F44336;" d="M336,416c0,44.16-35.84,80-80,80s-80-35.84-80-80c0-26.24,12.48-49.28,32-64v-64h96v64
	C323.52,366.72,336,389.76,336,416z"/>
<g>
	<path style="fill:#ECEFF1;" d="M256,512c-52.928,0-96-43.072-96-96c0-27.648,11.552-53.312,32-71.552V64c0-35.296,28.704-64,64-64
		s64,28.704,64,64v280.448c20.448,18.24,32,43.904,32,71.552C352,468.928,308.928,512,256,512z M256,32c-17.632,0-32,14.368-32,32
		v288c0,5.024-2.368,9.76-6.368,12.768C201.344,377.056,192,395.712,192,416c0,35.296,28.704,64,64,64s64-28.704,64-64
		c0-20.288-9.344-38.944-25.632-51.232c-4-3.008-6.368-7.744-6.368-12.768V64C288,46.368,273.632,32,256,32z M208,352h0.32H208z"/>
	<path style="fill:#ECEFF1;" d="M272,128c-8.8,0-16,7.2-16,16s7.2,16,16,16h48v-32H272z"/>
	<path style="fill:#ECEFF1;" d="M272,224c-8.8,0-16,7.2-16,16s7.2,16,16,16h48v-32H272z"/>
</g>
<g>
</g>
<g>
</g>
<g>
</g>
<g>
</g>
<g>
</g>
<g>
</g>
<g>
</g>
<g>
</g>
<g>
</g>
<g>
</g>
<g>
</g>
<g>
</g>
<g>
</g>
<g>
</g>
<g>
</g>
</svg>
