<?xml version="1.0" encoding="iso-8859-1"?>
<!-- Generator: Adobe Illustrator 19.0.0, SVG Export Plug-In . SVG Version: 6.00 Build 0)  -->
<svg version="1.1" id="Capa_1" xmlns="http://www.w3.org/2000/svg" xmlns:xlink="http://www.w3.org/1999/xlink" x="0px" y="0px"
	 viewBox="0 0 512 512" style="enable-background:new 0 0 512 512;" xml:space="preserve">
<path style="fill:#90A4AE;" d="M208,64v224h-96V64c0-26.56,21.44-48,48-48S208,37.44,208,64z"/>
<path style="fill:#F44336;" d="M240,416c0,44.16-35.84,80-80,80s-80-35.84-80-80c0-26.24,12.48-49.28,32-64v-64h96v64
	C227.52,366.72,240,389.76,240,416z"/>
<g>
	<path style="fill:#ECEFF1;" d="M160,512c-52.928,0-96-43.072-96-96c0-27.648,11.552-53.312,32-71.552V64c0-35.296,28.704-64,64-64
		s64,28.704,64,64v280.448c20.448,18.24,32,43.904,32,71.552C256,468.928,212.928,512,160,512z M160,32c-17.632,0-32,14.368-32,32
		v288c0,5.024-2.368,9.76-6.368,12.768C105.344,377.056,96,395.712,96,416c0,35.296,28.704,64,64,64s64-28.704,64-64
		c0-20.288-9.344-38.944-25.632-51.232c-4-3.008-6.368-7.744-6.368-12.768V64C192,46.368,177.632,32,160,32z M112,352h0.32H112z"/>
	<path style="fill:#ECEFF1;" d="M176,128c-8.8,0-16,7.2-16,16s7.2,16,16,16h48v-32H176z"/>
	<path style="fill:#ECEFF1;" d="M176,224c-8.8,0-16,7.2-16,16s7.2,16,16,16h48v-32H176z"/>
</g>
<path style="fill:#455A64;" d="M432,224H304c-8.832,0-16-7.168-16-16s7.168-16,16-16h128c8.832,0,16,7.168,16,16
	S440.832,224,432,224z"/>
<g>
</g>
<g>
</g>
<g>
</g>
<g>
</g>
<g>
</g>
<g>
</g>
<g>
</g>
<g>
</g>
<g>
</g>
<g>
</g>
<g>
</g>
<g>
</g>
<g>
</g>
<g>
</g>
<g>
</g>
</svg>
