<?xml version="1.0" encoding="iso-8859-1"?>
<!-- Generator: Adobe Illustrator 19.0.0, SVG Export Plug-In . SVG Version: 6.00 Build 0)  -->
<svg version="1.1" id="Capa_1" xmlns="http://www.w3.org/2000/svg" xmlns:xlink="http://www.w3.org/1999/xlink" x="0px" y="0px"
	 viewBox="0 0 512 512" style="enable-background:new 0 0 512 512;" xml:space="preserve">
<path style="fill:#FFC107;" d="M416,288c0,43.52-17.28,83.2-45.44,112H320c-4.16,0-8.32,1.6-11.2,4.8l-42.88,42.56
	C262.72,448,259.2,448,256,448s-6.72,0-9.92-0.64L203.2,404.8c-2.88-3.2-7.04-4.8-11.2-4.8h-50.56C113.28,371.2,96,331.52,96,288
	c0-88.32,71.68-160,160-160S416,199.68,416,288z"/>
<path style="fill:#607D8B;" d="M496,384H320c-4.256,0-8.32,1.696-11.328,4.672L256,441.376l-52.672-52.672
	C200.32,385.696,196.256,384,192,384H16c-8.832,0-16,7.168-16,16s7.168,16,16,16h169.376l59.328,59.328
	c3.104,3.104,7.2,4.672,11.296,4.672c4.096,0,8.192-1.568,11.328-4.672L326.624,416H496c8.832,0,16-7.168,16-16S504.832,384,496,384
	z"/>
<g>
	<path style="fill:#FFD54F;" d="M256,96c8.832,0,16-7.168,16-16V48c0-8.832-7.168-16-16-16s-16,7.168-16,16v32
		C240,88.832,247.168,96,256,96z"/>
	<path style="fill:#FFD54F;" d="M16,304h32c8.832,0,16-7.168,16-16s-7.168-16-16-16H16c-8.832,0-16,7.168-16,16S7.168,304,16,304z"
		/>
	<path style="fill:#FFD54F;" d="M464,304h32c8.832,0,16-7.168,16-16s-7.168-16-16-16h-32c-8.832,0-16,7.168-16,16
		S455.168,304,464,304z"/>
	<path style="fill:#FFD54F;" d="M97.6,152.224c3.136,3.136,7.232,4.672,11.328,4.672s8.192-1.536,11.296-4.672
		c6.24-6.24,6.24-16.384,0-22.624L97.6,107.008c-6.24-6.24-16.384-6.24-22.624,0s-6.24,16.384,0,22.624L97.6,152.224z"/>
	<path style="fill:#FFD54F;" d="M403.104,156.928c4.096,0,8.192-1.568,11.328-4.672l22.592-22.624c6.24-6.24,6.24-16.384,0-22.624
		s-16.384-6.24-22.624,0L391.776,129.6c-6.24,6.24-6.24,16.384,0,22.624C394.912,155.36,399.008,156.928,403.104,156.928z"/>
</g>
<g>
</g>
<g>
</g>
<g>
</g>
<g>
</g>
<g>
</g>
<g>
</g>
<g>
</g>
<g>
</g>
<g>
</g>
<g>
</g>
<g>
</g>
<g>
</g>
<g>
</g>
<g>
</g>
<g>
</g>
</svg>
