<?xml version="1.0" encoding="iso-8859-1"?>
<!-- Generator: Adobe Illustrator 19.0.0, SVG Export Plug-In . SVG Version: 6.00 Build 0)  -->
<svg version="1.1" id="Capa_1" xmlns="http://www.w3.org/2000/svg" xmlns:xlink="http://www.w3.org/1999/xlink" x="0px" y="0px"
	 viewBox="0 0 512 512" style="enable-background:new 0 0 512 512;" xml:space="preserve">
<path style="fill:#FFC107;" d="M416,320c0,43.52-17.28,83.2-45.44,112h-43.84l-59.52-59.2c-6.08-6.4-16.32-6.4-22.4,0L185.28,432
	h-43.84C113.28,403.2,96,363.52,96,320c0-88.32,71.68-160,160-160S416,231.68,416,320z"/>
<path style="fill:#607D8B;" d="M496,448H320c-4.256,0-8.32-1.696-11.328-4.672L256,390.624l-52.672,52.672
	C200.32,446.304,196.256,448,192,448H16c-8.832,0-16-7.168-16-16s7.168-16,16-16h169.376l59.328-59.328
	c6.24-6.24,16.384-6.24,22.624,0L326.624,416H496c8.832,0,16,7.168,16,16S504.832,448,496,448z"/>
<g>
	<path style="fill:#FFD54F;" d="M256,128c-8.832,0-16-7.168-16-16V80c0-8.832,7.168-16,16-16s16,7.168,16,16v32
		C272,120.832,264.832,128,256,128z"/>
	<path style="fill:#FFD54F;" d="M48,336H16c-8.832,0-16-7.168-16-16s7.168-16,16-16h32c8.832,0,16,7.168,16,16S56.832,336,48,336z"
		/>
	<path style="fill:#FFD54F;" d="M496,336h-32c-8.832,0-16-7.168-16-16s7.168-16,16-16h32c8.832,0,16,7.168,16,16
		S504.832,336,496,336z"/>
	<path style="fill:#FFD54F;" d="M108.928,188.928c-4.096,0-8.192-1.568-11.328-4.672l-22.624-22.624
		c-6.24-6.24-6.24-16.384,0-22.624c6.24-6.24,16.384-6.24,22.624,0l22.624,22.592c6.24,6.24,6.24,16.384,0,22.624
		C117.12,187.36,113.024,188.928,108.928,188.928z"/>
	<path style="fill:#FFD54F;" d="M403.104,188.928c-4.096,0-8.192-1.568-11.328-4.672c-6.24-6.24-6.24-16.384,0-22.624l22.592-22.624
		c6.24-6.24,16.384-6.24,22.624,0c6.24,6.24,6.24,16.384,0,22.624L414.4,184.224C411.296,187.36,407.2,188.928,403.104,188.928z"/>
</g>
<g>
</g>
<g>
</g>
<g>
</g>
<g>
</g>
<g>
</g>
<g>
</g>
<g>
</g>
<g>
</g>
<g>
</g>
<g>
</g>
<g>
</g>
<g>
</g>
<g>
</g>
<g>
</g>
<g>
</g>
</svg>
