<?xml version="1.0" encoding="iso-8859-1"?>
<!-- Generator: Adobe Illustrator 19.0.0, SVG Export Plug-In . SVG Version: 6.00 Build 0)  -->
<svg version="1.1" id="Capa_1" xmlns="http://www.w3.org/2000/svg" xmlns:xlink="http://www.w3.org/1999/xlink" x="0px" y="0px"
	 viewBox="0 0 512 512" style="enable-background:new 0 0 512 512;" xml:space="preserve">
<path style="fill:#E3F2FD;" d="M416,144c-1.024,0-2.048,0-3.136,0.032C397.952,70.016,333.088,16,256,16
	c-64.032,0-121.504,38.112-146.688,96.032C48.8,113.472,0,163.136,0,224c0,61.76,50.24,112,112,112h304c52.928,0,96-43.072,96-96
	S468.928,144,416,144z"/>
<g>
	<path style="fill:#CFD8DC;" d="M275.136,272c-4.448-7.68-14.24-10.304-21.856-5.856L208,292.288V240c0-8.832-7.168-16-16-16
		s-16,7.168-16,16v52.288l-45.28-26.144c-7.648-4.448-17.44-1.824-21.856,5.856c-4.416,7.648-1.792,17.44,5.856,21.856L160.032,320
		l-45.312,26.144c-7.648,4.416-10.272,14.208-5.856,21.856c2.976,5.12,8.352,8,13.888,8c2.72,0,5.472-0.672,8-2.144L176,347.712V400
		c0,8.832,7.168,16,16,16s16-7.168,16-16v-52.288l45.28,26.144c2.528,1.472,5.28,2.144,8,2.144c5.536,0,10.912-2.88,13.888-8
		c4.416-7.648,1.792-17.44-5.856-21.856L223.968,320l45.312-26.144C276.928,289.44,279.552,279.648,275.136,272z"/>
	<path style="fill:#CFD8DC;" d="M417.568,442.144L399.968,432l17.6-10.144c7.648-4.416,10.272-14.176,5.856-21.856
		c-4.416-7.68-14.208-10.304-21.856-5.856L384,404.288V384c0-8.832-7.168-16-16-16s-16,7.168-16,16v20.288l-17.568-10.144
		c-7.616-4.416-17.44-1.792-21.824,5.856c-4.448,7.648-1.824,17.44,5.856,21.856L336.032,432l-17.6,10.144
		c-7.648,4.416-10.272,14.208-5.824,21.856c2.944,5.12,8.352,8,13.856,8c2.72,0,5.472-0.672,8-2.144L352,459.712V480
		c0,8.832,7.168,16,16,16s16-7.168,16-16v-20.288l17.568,10.144c2.528,1.472,5.28,2.144,8,2.144c5.504,0,10.912-2.88,13.856-8
		C427.84,456.352,425.216,446.56,417.568,442.144z"/>
</g>
<g>
</g>
<g>
</g>
<g>
</g>
<g>
</g>
<g>
</g>
<g>
</g>
<g>
</g>
<g>
</g>
<g>
</g>
<g>
</g>
<g>
</g>
<g>
</g>
<g>
</g>
<g>
</g>
<g>
</g>
</svg>
