<?xml version="1.0" encoding="iso-8859-1"?>
<!-- Generator: Adobe Illustrator 19.0.0, SVG Export Plug-In . SVG Version: 6.00 Build 0)  -->
<svg version="1.1" id="Capa_1" xmlns="http://www.w3.org/2000/svg" xmlns:xlink="http://www.w3.org/1999/xlink" x="0px" y="0px"
	 viewBox="0 0 512 512" style="enable-background:new 0 0 512 512;" xml:space="preserve">
<g>
	<path style="fill:#607D8B;" d="M176,368H16c-8.832,0-16,7.168-16,16s7.168,16,16,16h160c8.832,0,16,7.2,16,16s-7.168,16-16,16
		s-16,7.168-16,16s7.168,16,16,16c26.464,0,48-21.536,48-48S202.464,368,176,368z"/>
	<path style="fill:#607D8B;" d="M16,208h192c26.464,0,48-21.536,48-48s-21.536-48-48-48c-8.832,0-16,7.168-16,16s7.168,16,16,16
		s16,7.168,16,16s-7.168,16-16,16H16c-8.832,0-16,7.168-16,16S7.168,208,16,208z"/>
	<path style="fill:#607D8B;" d="M336,144c-8.832,0-16,7.168-16,16s7.168,16,16,16c26.464,0,48,21.536,48,48s-21.536,48-48,48H16
		c-8.832,0-16,7.168-16,16s7.168,16,16,16h320c44.128,0,80-35.904,80-80S380.128,144,336,144z"/>
</g>
<g>
	<circle style="fill:#FFC107;" cx="320" cy="464" r="32"/>
	<circle style="fill:#FFC107;" cx="480" cy="368" r="32"/>
	<circle style="fill:#FFC107;" cx="480" cy="144" r="32"/>
	<circle style="fill:#FFC107;" cx="352" cy="48" r="32"/>
</g>
<g>
</g>
<g>
</g>
<g>
</g>
<g>
</g>
<g>
</g>
<g>
</g>
<g>
</g>
<g>
</g>
<g>
</g>
<g>
</g>
<g>
</g>
<g>
</g>
<g>
</g>
<g>
</g>
<g>
</g>
</svg>
