<?xml version="1.0" encoding="iso-8859-1"?>
<!-- Generator: Adobe Illustrator 19.0.0, SVG Export Plug-In . SVG Version: 6.00 Build 0)  -->
<svg version="1.1" id="Capa_1" xmlns="http://www.w3.org/2000/svg" xmlns:xlink="http://www.w3.org/1999/xlink" x="0px" y="0px"
	 viewBox="0 0 512 512" style="enable-background:new 0 0 512 512;" xml:space="preserve">
<path style="fill:#B0BEC5;" d="M504.288,90.053c-5.056-3.264-11.52-3.36-16.672-0.32c-6.848,4-15.008,6.112-23.616,6.112
	c-26.464,0-48-21.536-48-48c0-8.608,2.112-16.768,6.112-23.584c3.04-5.184,2.912-11.616-0.32-16.704
	c-3.264-5.056-9.152-7.904-15.008-7.328C357.312,4.901,320,46.021,320,95.845c0,52.928,43.072,96,96,96
	c49.824,0,90.944-37.312,95.616-86.816C512.192,99.077,509.344,93.253,504.288,90.053z"/>
<path style="fill:#E3F2FD;" d="M416,159.845c-1.024,0-2.048,0-3.136,0.032C397.952,85.861,333.088,31.845,256,31.845
	c-64.032,0-121.504,38.112-146.688,96.032C48.8,129.317,0,178.981,0,239.845c0,61.76,50.24,112,112,112h304
	c52.928,0,96-43.072,96-96S468.928,159.845,416,159.845z"/>
<g>
	<path style="fill:#2196F3;" d="M386.848,390.757C376.384,405.893,352,443.365,352,463.845c0,26.464,21.536,48,48,48
		s48-21.536,48-48c0-20.48-24.384-57.952-34.848-73.088C407.232,382.117,392.768,382.117,386.848,390.757z"/>
	<path style="fill:#2196F3;" d="M242.848,390.757C232.352,405.893,208,443.365,208,463.845c0,26.464,21.536,48,48,48
		s48-21.536,48-48c0-20.48-24.352-57.952-34.848-73.088C263.2,382.117,248.8,382.117,242.848,390.757z"/>
	<path style="fill:#2196F3;" d="M98.848,390.757C88.352,405.893,64,443.365,64,463.845c0,26.464,21.536,48,48,48s48-21.536,48-48
		c0-20.48-24.352-57.952-34.848-73.088C119.2,382.117,104.8,382.117,98.848,390.757z"/>
</g>
<g>
</g>
<g>
</g>
<g>
</g>
<g>
</g>
<g>
</g>
<g>
</g>
<g>
</g>
<g>
</g>
<g>
</g>
<g>
</g>
<g>
</g>
<g>
</g>
<g>
</g>
<g>
</g>
<g>
</g>
</svg>
