<?xml version="1.0" encoding="iso-8859-1"?>
<!-- Generator: Adobe Illustrator 19.0.0, SVG Export Plug-In . SVG Version: 6.00 Build 0)  -->
<svg version="1.1" id="Capa_1" xmlns="http://www.w3.org/2000/svg" xmlns:xlink="http://www.w3.org/1999/xlink" x="0px" y="0px"
	 viewBox="0 0 512 512" style="enable-background:new 0 0 512 512;" xml:space="preserve">
<path style="fill:#E3F2FD;" d="M416,144c-1.024,0-2.048,0-3.136,0.032C397.952,70.016,333.088,16,256,16
	c-64.032,0-121.504,38.112-146.688,96.032C48.8,113.472,0,163.136,0,224c0,61.76,50.24,112,112,112h304c52.928,0,96-43.072,96-96
	S468.928,144,416,144z"/>
<g>
	<path style="fill:#2196F3;" d="M386.848,374.912C376.384,390.048,352,427.52,352,448c0,26.464,21.536,48,48,48s48-21.536,48-48
		c0-20.48-24.384-57.952-34.848-73.088C407.232,366.272,392.768,366.272,386.848,374.912z"/>
	<path style="fill:#2196F3;" d="M242.848,374.912C232.352,390.048,208,427.52,208,448c0,26.464,21.536,48,48,48s48-21.536,48-48
		c0-20.48-24.352-57.952-34.848-73.088C263.2,366.272,248.8,366.272,242.848,374.912z"/>
	<path style="fill:#2196F3;" d="M98.848,374.912C88.352,390.048,64,427.52,64,448c0,26.464,21.536,48,48,48s48-21.536,48-48
		c0-20.48-24.352-57.952-34.848-73.088C119.2,366.272,104.8,366.272,98.848,374.912z"/>
</g>
<g>
</g>
<g>
</g>
<g>
</g>
<g>
</g>
<g>
</g>
<g>
</g>
<g>
</g>
<g>
</g>
<g>
</g>
<g>
</g>
<g>
</g>
<g>
</g>
<g>
</g>
<g>
</g>
<g>
</g>
</svg>
