<?xml version="1.0" encoding="iso-8859-1"?>
<!-- Generator: Adobe Illustrator 19.0.0, SVG Export Plug-In . SVG Version: 6.00 Build 0)  -->
<svg version="1.1" id="Capa_1" xmlns="http://www.w3.org/2000/svg" xmlns:xlink="http://www.w3.org/1999/xlink" x="0px" y="0px"
	 viewBox="0 0 480 480" style="enable-background:new 0 0 480 480;" xml:space="preserve">
<path style="fill:#B0BEC5;" d="M459.136,347.328c-4.288-5.28-11.488-7.232-17.824-4.96C423.552,348.736,404.288,352,384,352
	c-97.056,0-176-78.976-176-176c0-58.4,28.832-112.768,77.12-145.472c5.472-3.712,8.096-10.4,6.624-16.832
	C290.272,7.264,284.992,2.4,278.432,1.44C270.944,0.352,263.488,0,256,0C123.648,0,16,107.648,16,240s107.648,240,240,240
	c84,0,160.416-42.688,204.352-114.176C463.904,360.032,463.392,352.64,459.136,347.328z"/>
<path style="fill:#E3F2FD;" d="M431.936,195.008c0.032-0.992,0.064-2.016,0.064-3.008c0-52.928-43.072-96-96-96
	c-40.928,0-77.344,26.656-90.656,64.192c-1.728-0.128-3.52-0.192-5.344-0.192c-35.296,0-64,28.704-64,64s28.704,64,64,64h176
	c26.464,0,48-21.536,48-48C464,219.392,450.976,201.792,431.936,195.008z"/>
<g>
</g>
<g>
</g>
<g>
</g>
<g>
</g>
<g>
</g>
<g>
</g>
<g>
</g>
<g>
</g>
<g>
</g>
<g>
</g>
<g>
</g>
<g>
</g>
<g>
</g>
<g>
</g>
<g>
</g>
</svg>
