<?xml version="1.0" encoding="iso-8859-1"?>
<!-- Generator: Adobe Illustrator 19.0.0, SVG Export Plug-In . SVG Version: 6.00 Build 0)  -->
<svg version="1.1" id="Capa_1" xmlns="http://www.w3.org/2000/svg" xmlns:xlink="http://www.w3.org/1999/xlink" x="0px" y="0px"
	 viewBox="0 0 512 512" style="enable-background:new 0 0 512 512;" xml:space="preserve">
<path style="fill:#B0BEC5;" d="M443.136,363.328c-4.288-5.28-11.488-7.232-17.824-4.96C407.552,364.736,388.288,368,368,368
	c-97.056,0-176-78.976-176-176c0-58.4,28.832-112.768,77.12-145.472c5.472-3.712,8.096-10.4,6.624-16.832
	c-1.472-6.432-6.752-11.296-13.312-12.256C254.944,16.352,247.488,16,240,16C107.648,16,0,123.648,0,256s107.648,240,240,240
	c84,0,160.416-42.688,204.352-114.176C447.904,376.032,447.392,368.64,443.136,363.328z"/>
<path style="fill:#E3F2FD;" d="M427.872,176.096C413.664,120.288,363.008,80,304,80c-45.6,0-87.968,24.8-110.752,64
	C140.224,142.656,96,186.656,96,240c0,52.928,43.072,96,96,96h240c44.128,0,80-35.872,80-80
	C512,210.528,473.728,174.4,427.872,176.096z"/>
<g>
</g>
<g>
</g>
<g>
</g>
<g>
</g>
<g>
</g>
<g>
</g>
<g>
</g>
<g>
</g>
<g>
</g>
<g>
</g>
<g>
</g>
<g>
</g>
<g>
</g>
<g>
</g>
<g>
</g>
</svg>
