<?xml version="1.0" encoding="iso-8859-1"?>
<!-- Generator: Adobe Illustrator 19.0.0, SVG Export Plug-In . SVG Version: 6.00 Build 0)  -->
<svg version="1.1" id="Capa_1" xmlns="http://www.w3.org/2000/svg" xmlns:xlink="http://www.w3.org/1999/xlink" x="0px" y="0px"
	 viewBox="0 0 512 512" style="enable-background:new 0 0 512 512;" xml:space="preserve">
<path style="fill:#B0BEC5;" d="M480,239.996c0,71.36-33.6,135.04-85.76,176H320c-4.16,0-8.32,1.6-11.2,4.8l-42.88,42.56
	c-3.2,0.64-6.4,0.64-9.92,0.64s-6.72,0-9.92-0.64l-42.88-42.56c-2.88-3.2-7.04-4.8-11.2-4.8h-74.24
	C65.6,375.036,32,311.356,32,239.996c0-123.52,100.48-224,224-224c7.04,0,13.44,0.32,20.48,0.96c4.48,0.64,8.64,2.88,11.2,6.4
	s3.84,8,2.88,12.48c-1.6,9.28-2.56,18.56-2.56,28.16c0,79.36,64.64,144,144,144c9.6,0,18.88-0.96,28.16-2.56
	c4.48-0.96,8.96,0.32,12.48,2.88c3.52,2.56,5.76,6.72,6.4,11.2C479.68,226.556,480,232.956,480,239.996z"/>
<path style="fill:#607D8B;" d="M496,431.996H326.624l-59.328,59.328c-6.24,6.24-16.384,6.24-22.624,0l-59.296-59.328H16
	c-8.832,0-16-7.168-16-16s7.168-16,16-16h176c4.256,0,8.32,1.696,11.328,4.672L256,457.372l52.672-52.672
	c3.008-3.008,7.072-4.704,11.328-4.704h176c8.832,0,16,7.168,16,16S504.832,431.996,496,431.996z"/>
<g>
</g>
<g>
</g>
<g>
</g>
<g>
</g>
<g>
</g>
<g>
</g>
<g>
</g>
<g>
</g>
<g>
</g>
<g>
</g>
<g>
</g>
<g>
</g>
<g>
</g>
<g>
</g>
<g>
</g>
</svg>
