<?xml version="1.0" encoding="iso-8859-1"?>
<!-- Generator: Adobe Illustrator 19.0.0, SVG Export Plug-In . SVG Version: 6.00 Build 0)  -->
<svg version="1.1" id="Capa_1" xmlns="http://www.w3.org/2000/svg" xmlns:xlink="http://www.w3.org/1999/xlink" x="0px" y="0px"
	 viewBox="0 0 512 512" style="enable-background:new 0 0 512 512;" xml:space="preserve">
<path style="fill:#B0BEC5;" d="M480,272c0,71.36-33.6,135.04-85.76,176h-67.52l-59.52-59.2c-6.08-6.4-16.32-6.4-22.4,0L185.28,448
	h-67.52C65.6,407.04,32,343.36,32,272C32,148.48,132.48,48,256,48c7.04,0,13.44,0.32,20.48,0.96c4.48,0.64,8.64,2.88,11.2,6.4
	s3.84,8,2.88,12.48C288.96,77.12,288,86.4,288,96c0,79.36,64.64,144,144,144c9.6,0,18.88-0.96,28.16-2.56
	c4.48-0.96,8.96,0.32,12.48,2.88c3.52,2.56,5.76,6.72,6.4,11.2C479.68,258.56,480,264.96,480,272z"/>
<path style="fill:#607D8B;" d="M496,432H326.624l-59.328-59.328c-6.24-6.24-16.384-6.24-22.624,0L185.376,432H16
	c-8.832,0-16,7.168-16,16s7.168,16,16,16h176c4.256,0,8.32-1.696,11.328-4.672L256,406.624l52.672,52.672
	C311.68,462.304,315.744,464,320,464h176c8.832,0,16-7.168,16-16S504.832,432,496,432z"/>
<g>
</g>
<g>
</g>
<g>
</g>
<g>
</g>
<g>
</g>
<g>
</g>
<g>
</g>
<g>
</g>
<g>
</g>
<g>
</g>
<g>
</g>
<g>
</g>
<g>
</g>
<g>
</g>
<g>
</g>
</svg>
