<?xml version="1.0" encoding="iso-8859-1"?>
<!-- Generator: Adobe Illustrator 19.0.0, SVG Export Plug-In . SVG Version: 6.00 Build 0)  -->
<svg version="1.1" id="Capa_1" xmlns="http://www.w3.org/2000/svg" xmlns:xlink="http://www.w3.org/1999/xlink" x="0px" y="0px"
	 viewBox="0 0 480 480" style="enable-background:new 0 0 480 480;" xml:space="preserve">
<path style="fill:#B0BEC5;" d="M443.136,347.328c-4.288-5.28-11.488-7.232-17.824-4.96C407.552,348.736,388.288,352,368,352
	c-97.056,0-176-78.976-176-176c0-58.4,28.832-112.768,77.12-145.472c5.472-3.712,8.096-10.4,6.624-16.832
	C274.272,7.264,268.992,2.4,262.432,1.44C254.944,0.352,247.488,0,240,0C107.648,0,0,107.648,0,240s107.648,240,240,240
	c84,0,160.416-42.688,204.352-114.176C447.904,360.032,447.392,352.64,443.136,347.328z"/>
<path style="fill:#FFC107;" d="M464,112c-35.296,0-64-28.704-64-64c0-8.832-7.168-16-16-16s-16,7.168-16,16
	c0,35.296-28.704,64-64,64c-8.832,0-16,7.168-16,16s7.168,16,16,16c35.296,0,64,28.704,64,64c0,8.832,7.168,16,16,16s16-7.168,16-16
	c0-35.296,28.704-64,64-64c8.832,0,16-7.168,16-16S472.832,112,464,112z"/>
<g>
</g>
<g>
</g>
<g>
</g>
<g>
</g>
<g>
</g>
<g>
</g>
<g>
</g>
<g>
</g>
<g>
</g>
<g>
</g>
<g>
</g>
<g>
</g>
<g>
</g>
<g>
</g>
<g>
</g>
</svg>
