<?xml version="1.0" encoding="iso-8859-1"?>
<!-- Generator: Adobe Illustrator 19.0.0, SVG Export Plug-In . SVG Version: 6.00 Build 0)  -->
<svg version="1.1" id="Capa_1" xmlns="http://www.w3.org/2000/svg" xmlns:xlink="http://www.w3.org/1999/xlink" x="0px" y="0px"
	 viewBox="0 0 480.022 480.022" style="enable-background:new 0 0 480.022 480.022;" xml:space="preserve">
<path style="fill:#F44336;" d="M475.5,4.886c-5.056-5.248-13.024-6.4-19.328-2.816L279.66,101.366l15.808-78.976
	c1.376-6.944-1.92-13.92-8.128-17.248c-6.208-3.296-13.888-2.24-18.88,2.784L43.212,233.174c-0.416,0.32-0.8,0.672-1.152,1.056
	C14.956,261.75,0.012,297.91,0.012,336.022c0,79.392,64.608,144,144,144c38.144,0,74.304-14.944,101.792-42.016
	c0.416-0.416,0.768-0.832,1.152-1.28l191.232-191.2c4.8-4.8,6.048-12.128,3.104-18.24c-2.912-6.112-9.44-9.568-16.192-8.96
	l-69.568,7.712L477.676,24.31C481.452,18.07,480.588,10.102,475.5,4.886z"/>
<circle style="fill:#FFD54F;" cx="144.012" cy="336.022" r="96"/>
<g>
</g>
<g>
</g>
<g>
</g>
<g>
</g>
<g>
</g>
<g>
</g>
<g>
</g>
<g>
</g>
<g>
</g>
<g>
</g>
<g>
</g>
<g>
</g>
<g>
</g>
<g>
</g>
<g>
</g>
</svg>
