<?xml version="1.0" encoding="iso-8859-1"?>
<!-- Generator: Adobe Illustrator 19.0.0, SVG Export Plug-In . SVG Version: 6.00 Build 0)  -->
<svg version="1.1" id="Capa_1" xmlns="http://www.w3.org/2000/svg" xmlns:xlink="http://www.w3.org/1999/xlink" x="0px" y="0px"
	 viewBox="0 0 512 512" style="enable-background:new 0 0 512 512;" xml:space="preserve">
<path style="fill:#F44336;" d="M400,224H112c-8.832,0-16,7.168-16,16v160c0,8.832,7.168,16,16,16h288c8.832,0,16-7.168,16-16V240
	C416,231.168,408.832,224,400,224z"/>
<rect x="224" y="288" style="fill:#455A64;" width="96" height="64"/>
<path style="fill:#F44336;" d="M400,0H112c-8.832,0-16,7.168-16,16v160c0,8.832,7.168,16,16,16h288c8.832,0,16-7.168,16-16V16
	C416,7.168,408.832,0,400,0z"/>
<g>
	<rect x="224" y="64" style="fill:#455A64;" width="96" height="64"/>
	<path style="fill:#455A64;" d="M112,512c-8.832,0-16-7.168-16-16V16c0-8.832,7.168-16,16-16s16,7.168,16,16v480
		C128,504.832,120.832,512,112,512z"/>
</g>
<g>
</g>
<g>
</g>
<g>
</g>
<g>
</g>
<g>
</g>
<g>
</g>
<g>
</g>
<g>
</g>
<g>
</g>
<g>
</g>
<g>
</g>
<g>
</g>
<g>
</g>
<g>
</g>
<g>
</g>
</svg>
