<?xml version="1.0" encoding="iso-8859-1"?>
<!-- Generator: Adobe Illustrator 19.0.0, SVG Export Plug-In . SVG Version: 6.00 Build 0)  -->
<svg version="1.1" id="Capa_1" xmlns="http://www.w3.org/2000/svg" xmlns:xlink="http://www.w3.org/1999/xlink" x="0px" y="0px"
	 viewBox="0 0 448.02 448.02" style="enable-background:new 0 0 448.02 448.02;" xml:space="preserve">
<g>
	<path style="fill:#607D8B;" d="M20.874,99.059l42.272-13.536c29.984-9.632,62.912-6.464,90.336,8.544
		c21.76,11.968,46.144,17.888,70.528,17.888s48.768-5.952,70.528-17.888c27.392-15.04,60.288-18.176,90.336-8.576l42.272,13.536
		c8.448,2.56,17.408-1.984,20.096-10.368c2.688-8.416-1.952-17.408-10.368-20.128L394.57,54.995
		c-38.336-12.224-80.384-8.224-115.424,11.008c-34.016,18.624-76.256,18.624-110.272,0c-35.072-19.2-77.152-23.2-115.456-10.976
		L11.146,68.563C2.698,71.283-1.942,80.275,0.778,88.691C3.434,97.043,12.362,101.587,20.874,99.059z"/>
	<path style="fill:#607D8B;" d="M436.874,164.563l-42.304-13.536c-38.336-12.192-80.384-8.192-115.424,11.008
		c-34.016,18.624-76.256,18.624-110.272,0c-35.072-19.2-77.152-23.2-115.456-11.008l-42.272,13.536
		c-8.448,2.72-13.088,11.712-10.368,20.128c2.656,8.384,11.584,12.96,20.096,10.368l42.272-13.536
		c29.984-9.568,62.912-6.464,90.336,8.544c21.76,11.968,46.144,17.888,70.528,17.888s48.768-5.952,70.528-17.888
		c27.392-15.008,60.288-18.176,90.336-8.576l42.272,13.536c8.448,2.624,17.408-2.016,20.096-10.368
		C449.962,176.275,445.322,167.283,436.874,164.563z"/>
	<path style="fill:#607D8B;" d="M436.874,260.563l-42.304-13.536c-38.336-12.192-80.384-8.192-115.424,11.008
		c-34.016,18.624-76.256,18.624-110.272,0c-35.072-19.2-77.152-23.2-115.456-11.008l-42.272,13.536
		c-8.416,2.72-13.056,11.712-10.368,20.128c2.656,8.416,11.584,12.928,20.096,10.368l42.272-13.536
		c29.984-9.6,62.912-6.464,90.336,8.576c21.76,11.936,46.112,17.888,70.528,17.888s48.768-5.952,70.528-17.888
		c27.392-15.04,60.288-18.176,90.336-8.576l42.272,13.536c8.448,2.56,17.408-1.984,20.096-10.368
		C449.962,272.275,445.322,263.283,436.874,260.563z"/>
	<path style="fill:#607D8B;" d="M436.874,356.563l-42.304-13.536c-38.336-12.224-80.384-8.192-115.424,11.008
		c-34.016,18.624-76.256,18.624-110.272,0c-35.072-19.2-77.152-23.232-115.456-11.008l-42.272,13.536
		c-8.416,2.72-13.056,11.712-10.368,20.128c2.656,8.384,11.584,12.96,20.096,10.368l42.272-13.536
		c29.984-9.6,62.912-6.464,90.336,8.576c21.76,11.936,46.112,17.888,70.528,17.888s48.768-5.952,70.528-17.888
		c27.392-15.04,60.288-18.176,90.336-8.576l42.272,13.536c8.448,2.624,17.408-1.984,20.096-10.368
		C449.962,368.275,445.322,359.283,436.874,356.563z"/>
</g>
<g>
</g>
<g>
</g>
<g>
</g>
<g>
</g>
<g>
</g>
<g>
</g>
<g>
</g>
<g>
</g>
<g>
</g>
<g>
</g>
<g>
</g>
<g>
</g>
<g>
</g>
<g>
</g>
<g>
</g>
</svg>
