<?xml version="1.0" encoding="iso-8859-1"?>
<!-- Generator: Adobe Illustrator 19.0.0, SVG Export Plug-In . SVG Version: 6.00 Build 0)  -->
<svg version="1.1" id="Capa_1" xmlns="http://www.w3.org/2000/svg" xmlns:xlink="http://www.w3.org/1999/xlink" x="0px" y="0px"
	 viewBox="0 0 512 512" style="enable-background:new 0 0 512 512;" xml:space="preserve">
<g>
	<path style="fill:#F44336;" d="M389.632,97.024l-256-96c-4.96-1.856-10.432-1.152-14.752,1.824C114.592,5.856,112,10.752,112,16
		v192c0,5.248,2.592,10.144,6.88,13.152C121.6,223.04,124.768,224,128,224c1.888,0,3.808-0.32,5.632-1.024l256-96
		C395.872,124.64,400,118.656,400,112S395.872,99.36,389.632,97.024z"/>
	<path style="fill:#F44336;" d="M389.632,289.024l-256-96c-4.96-1.856-10.432-1.12-14.752,1.824
		c-4.288,3.008-6.88,7.904-6.88,13.152v192c0,5.248,2.592,10.144,6.88,13.152C121.6,415.04,124.768,416,128,416
		c1.888,0,3.808-0.352,5.632-1.024l256-96C395.872,316.64,400,310.656,400,304S395.872,291.36,389.632,289.024z"/>
</g>
<path style="fill:#455A64;" d="M128,512c-8.832,0-16-7.168-16-16V16c0-8.832,7.168-16,16-16s16,7.168,16,16v480
	C144,504.832,136.832,512,128,512z"/>
<g>
</g>
<g>
</g>
<g>
</g>
<g>
</g>
<g>
</g>
<g>
</g>
<g>
</g>
<g>
</g>
<g>
</g>
<g>
</g>
<g>
</g>
<g>
</g>
<g>
</g>
<g>
</g>
<g>
</g>
</svg>
