<?xml version="1.0" encoding="iso-8859-1"?>
<!-- Generator: Adobe Illustrator 19.0.0, SVG Export Plug-In . SVG Version: 6.00 Build 0)  -->
<svg version="1.1" id="Capa_1" xmlns="http://www.w3.org/2000/svg" xmlns:xlink="http://www.w3.org/1999/xlink" x="0px" y="0px"
	 viewBox="0 0 512 512" style="enable-background:new 0 0 512 512;" xml:space="preserve">
<path style="fill:#607D8B;" d="M187.328,107.316L240,54.612v153.376c0,8.832,7.168,16,16,16s16-7.168,16-16V54.612l52.672,52.672
	c3.136,3.136,7.232,4.704,11.328,4.704s8.192-1.568,11.328-4.672c6.24-6.24,6.24-16.384,0-22.624l-80-80
	c-6.24-6.24-16.384-6.24-22.624,0l-80,80c-6.24,6.24-6.24,16.384,0,22.624S181.056,113.556,187.328,107.316z"/>
<path style="fill:#2196F3;" d="M496,255.988c-8.832,0-16,7.168-16,16c0,26.464-28.704,48-64,48s-64-21.536-64-48
	c0-8.832-7.168-16-16-16s-16,7.168-16,16c0,26.464-28.704,48-64,48s-64-21.536-64-48c0-8.832-7.168-16-16-16s-16,7.168-16,16
	c0,26.464-28.704,48-64,48s-64-21.536-64-48c0-8.832-7.168-16-16-16s-16,7.168-16,16v224c0,8.832,7.168,16,16,16h480
	c8.832,0,16-7.168,16-16v-224C512,263.156,504.832,255.988,496,255.988z"/>
<g>
</g>
<g>
</g>
<g>
</g>
<g>
</g>
<g>
</g>
<g>
</g>
<g>
</g>
<g>
</g>
<g>
</g>
<g>
</g>
<g>
</g>
<g>
</g>
<g>
</g>
<g>
</g>
<g>
</g>
</svg>
