<?xml version="1.0" encoding="iso-8859-1"?>
<!-- Generator: Adobe Illustrator 19.0.0, SVG Export Plug-In . SVG Version: 6.00 Build 0)  -->
<svg version="1.1" id="Capa_1" xmlns="http://www.w3.org/2000/svg" xmlns:xlink="http://www.w3.org/1999/xlink" x="0px" y="0px"
	 viewBox="0 0 448 448" style="enable-background:new 0 0 448 448;" xml:space="preserve">
<path style="fill:#2196F3;" d="M352,0c-26.464,0-48,21.536-48,48s21.536,48,48,48s48-21.536,48-48S378.464,0,352,0z M352,64
	c-8.8,0-16-7.168-16-16s7.2-16,16-16s16,7.168,16,16S360.8,64,352,64z"/>
<path style="fill:#607D8B;" d="M272,80V48c0-8.832-7.168-16-16-16H64c-8.832,0-16,7.168-16,16v384c0,8.832,7.168,16,16,16h32
	c8.832,0,16-7.168,16-16V256h144c8.832,0,16-7.168,16-16v-32c0-8.832-7.168-16-16-16H112V96h144C264.832,96,272,88.832,272,80z"/>
<g>
</g>
<g>
</g>
<g>
</g>
<g>
</g>
<g>
</g>
<g>
</g>
<g>
</g>
<g>
</g>
<g>
</g>
<g>
</g>
<g>
</g>
<g>
</g>
<g>
</g>
<g>
</g>
<g>
</g>
</svg>
