<?xml version="1.0" encoding="iso-8859-1"?>
<!-- Generator: Adobe Illustrator 19.0.0, SVG Export Plug-In . SVG Version: 6.00 Build 0)  -->
<svg version="1.1" id="Capa_1" xmlns="http://www.w3.org/2000/svg" xmlns:xlink="http://www.w3.org/1999/xlink" x="0px" y="0px"
	 viewBox="0 0 512.003 512.003" style="enable-background:new 0 0 512.003 512.003;" xml:space="preserve">
<path style="fill:#B0BEC5;" d="M504.576,170.054c-5.056-3.264-11.52-3.36-16.672-0.32c-6.816,4-15.008,6.112-23.584,6.112
	c-26.464,0-48-21.536-48-48c0-8.608,2.112-16.768,6.112-23.584c3.04-5.184,2.912-11.616-0.32-16.704
	c-3.264-5.056-9.152-7.904-15.008-7.328c-49.472,4.672-86.784,45.792-86.784,95.616c0,52.928,43.072,96,96,96
	c49.824,0,90.944-37.312,95.616-86.816C512.48,179.078,509.664,173.254,504.576,170.054z"/>
<path style="fill:#E3F2FD;" d="M412.864,239.878C397.92,165.862,333.088,111.846,256,111.846
	c-64.032,0-121.504,38.112-146.688,96.032C48.8,209.318,0,258.982,0,319.846c0,61.76,50.24,112,112,112h304
	c52.928,0,96-43.072,96-96C512,281.862,466.464,238.502,412.864,239.878z"/>
<g>
</g>
<g>
</g>
<g>
</g>
<g>
</g>
<g>
</g>
<g>
</g>
<g>
</g>
<g>
</g>
<g>
</g>
<g>
</g>
<g>
</g>
<g>
</g>
<g>
</g>
<g>
</g>
<g>
</g>
</svg>
