<?xml version="1.0" encoding="iso-8859-1"?>
<!-- Generator: Adobe Illustrator 19.0.0, SVG Export Plug-In . SVG Version: 6.00 Build 0)  -->
<svg version="1.1" id="Capa_1" xmlns="http://www.w3.org/2000/svg" xmlns:xlink="http://www.w3.org/1999/xlink" x="0px" y="0px"
	 viewBox="0 0 512 512" style="enable-background:new 0 0 512 512;" xml:space="preserve">
<circle style="fill:#FFC107;" cx="416" cy="112" r="96"/>
<path style="fill:#E3F2FD;" d="M416,176c-1.024,0-2.048,0-3.136,0.032C397.952,102.016,333.088,48,256,48
	c-64.032,0-121.504,38.112-146.688,96.032C48.8,145.472,0,195.136,0,256c0,61.76,50.24,112,112,112h304c52.928,0,96-43.072,96-96
	S468.928,176,416,176z"/>
<g>
	<path style="fill:#607D8B;" d="M464,400H48c-8.832,0-16,7.168-16,16s7.168,16,16,16h416c8.832,0,16-7.168,16-16
		S472.832,400,464,400z"/>
	<path style="fill:#607D8B;" d="M464,464H48c-8.832,0-16,7.168-16,16s7.168,16,16,16h416c8.832,0,16-7.168,16-16
		S472.832,464,464,464z"/>
</g>
<g>
</g>
<g>
</g>
<g>
</g>
<g>
</g>
<g>
</g>
<g>
</g>
<g>
</g>
<g>
</g>
<g>
</g>
<g>
</g>
<g>
</g>
<g>
</g>
<g>
</g>
<g>
</g>
<g>
</g>
</svg>
