<?xml version="1.0" encoding="iso-8859-1"?>
<!-- Generator: Adobe Illustrator 19.0.0, SVG Export Plug-In . SVG Version: 6.00 Build 0)  -->
<svg version="1.1" id="Capa_1" xmlns="http://www.w3.org/2000/svg" xmlns:xlink="http://www.w3.org/1999/xlink" x="0px" y="0px"
	 viewBox="0 0 448 448" style="enable-background:new 0 0 448 448;" xml:space="preserve">
<path style="fill:#2196F3;" d="M368,96c-26.464,0-48-21.536-48-48s21.536-48,48-48s48,21.536,48,48S394.464,96,368,96z M368,32
	c-8.8,0-16,7.168-16,16s7.2,16,16,16s16-7.168,16-16S376.8,32,368,32z"/>
<path style="fill:#607D8B;" d="M240,448h-16c-106.048,0-192-85.952-192-192v-32c0-106.048,85.952-192,192-192h16
	c8.832,0,16,7.168,16,16v32c0,8.832-7.168,16-16,16h-16c-70.688,0-128,57.312-128,128v32c0,70.688,57.312,128,128,128h16
	c8.832,0,16,7.168,16,16v32C256,440.832,248.832,448,240,448z"/>
<g>
</g>
<g>
</g>
<g>
</g>
<g>
</g>
<g>
</g>
<g>
</g>
<g>
</g>
<g>
</g>
<g>
</g>
<g>
</g>
<g>
</g>
<g>
</g>
<g>
</g>
<g>
</g>
<g>
</g>
</svg>
