<svg viewBox="0 0 512 512" xmlns="http://www.w3.org/2000/svg" xmlns:xlink="http://www.w3.org/1999/xlink"><linearGradient id="a" gradientTransform="matrix(1 0 0 -1 0 -25978)" gradientUnits="userSpaceOnUse" x1="0" x2="512" y1="-26234" y2="-26234"><stop offset="0" stop-color="#31d8ff"/><stop offset="1" stop-color="#ff80ff"/></linearGradient><path d="m512 256c0 141.386719-114.613281 256-256 256s-256-114.613281-256-256 114.613281-256 256-256 256 114.613281 256 256zm0 0" fill="url(#a)"/><path d="m384.566406 252.554688v-37.769532c0-72.21875-57.675781-130.972656-128.566406-130.972656s-128.566406 58.753906-128.566406 130.972656v37.769532c-32.210938 7.027343-56.433594 36.1875-56.433594 71.003906 0 40.046875 32.042969 72.628906 71.433594 72.628906 8.28125 0 15-6.71875 15-15v-166.402344c0-55.675781 44.214844-100.972656 98.566406-100.972656s98.566406 45.296875 98.566406 100.972656v166.402344c0 8.28125 6.71875 15 15 15 39.390625 0 71.433594-32.582031 71.433594-72.628906 0-34.816406-24.222656-63.976563-56.433594-71.003906zm-257.132812 110.742187c-15.453125-6.195313-26.433594-21.675781-26.433594-39.738281s10.980469-33.539063 26.433594-39.738282zm257.132812 0v-79.476563c15.453125 6.199219 26.433594 21.671876 26.433594 39.738282s-10.980469 33.542968-26.433594 39.738281zm0 0" fill="#fff"/></svg>