<svg viewBox="0 0 512 512" xmlns="http://www.w3.org/2000/svg" xmlns:xlink="http://www.w3.org/1999/xlink"><linearGradient id="a" gradientTransform="matrix(1 0 0 -1 0 -25978)" gradientUnits="userSpaceOnUse" x1="0" x2="512" y1="-26234" y2="-26234"><stop offset="0" stop-color="#31d8ff"/><stop offset="1" stop-color="#ff80ff"/></linearGradient><path d="m512 256c0 141.386719-114.613281 256-256 256s-256-114.613281-256-256 114.613281-256 256-256 256 114.613281 256 256zm0 0" fill="url(#a)"/><g fill="#fff"><path d="m288.363281 134.570312h-64.730469c-8.285156 0-15-6.714843-15-15v-44.574218c0-8.28125 6.714844-15 15-15h64.730469c8.285157 0 15 6.71875 15 15v44.574218c0 8.285157-6.714843 15-15 15zm-49.730469-30h34.730469v-14.574218h-34.730469zm0 0"/><path d="m288.363281 223.714844h-64.730469c-8.285156 0-15-6.71875-15-15v-44.574219c0-8.28125 6.714844-15 15-15h64.730469c8.285157 0 15 6.71875 15 15v44.574219c0 8.28125-6.714843 15-15 15zm-49.730469-30h34.730469v-14.574219h-34.730469zm0 0"/><path d="m288.363281 312.855469h-64.730469c-8.285156 0-15-6.714844-15-15v-44.570313c0-8.285156 6.714844-15 15-15h64.730469c8.285157 0 15 6.714844 15 15v44.570313c0 8.285156-6.714843 15-15 15zm-49.730469-30h34.730469v-14.570313h-34.730469zm0 0"/><path d="m288.363281 401.996094h-64.730469c-8.285156 0-15-6.714844-15-15v-44.570313c0-8.28125 6.714844-15 15-15h64.730469c8.285157 0 15 6.71875 15 15v44.570313c0 8.285156-6.714843 15-15 15zm-49.730469-30h34.730469v-14.570313h-34.730469zm0 0"/><path d="m164.730469 312.855469h-64.730469c-8.285156 0-15-6.714844-15-15v-44.570313c0-8.285156 6.714844-15 15-15h64.730469c8.285156 0 15 6.714844 15 15v44.570313c0 8.285156-6.714844 15-15 15zm-49.730469-30h34.730469v-14.570313h-34.730469zm0 0"/><path d="m164.730469 401.996094h-64.730469c-8.285156 0-15-6.714844-15-15v-44.570313c0-8.28125 6.714844-15 15-15h64.730469c8.285156 0 15 6.71875 15 15v44.570313c0 8.285156-6.714844 15-15 15zm-49.730469-30h34.730469v-14.570313h-34.730469zm0 0"/><path d="m412 223.714844h-64.730469c-8.285156 0-15-6.71875-15-15v-44.574219c0-8.28125 6.714844-15 15-15h64.730469c8.285156 0 15 6.71875 15 15v44.574219c0 8.28125-6.714844 15-15 15zm-49.730469-30h34.730469v-14.574219h-34.730469zm0 0"/><path d="m412 312.855469h-64.730469c-8.285156 0-15-6.714844-15-15v-44.570313c0-8.285156 6.714844-15 15-15h64.730469c8.285156 0 15 6.714844 15 15v44.570313c0 8.285156-6.714844 15-15 15zm-49.730469-30h34.730469v-14.570313h-34.730469zm0 0"/><path d="m412 401.996094h-64.730469c-8.285156 0-15-6.714844-15-15v-44.570313c0-8.28125 6.714844-15 15-15h64.730469c8.285156 0 15 6.71875 15 15v44.570313c0 8.285156-6.714844 15-15 15zm-49.730469-30h34.730469v-14.570313h-34.730469zm0 0"/></g></svg>