<svg viewBox="0 0 512 512" xmlns="http://www.w3.org/2000/svg" xmlns:xlink="http://www.w3.org/1999/xlink"><linearGradient id="a" gradientTransform="matrix(1 0 0 -1 0 -25978)" gradientUnits="userSpaceOnUse" x1="0" x2="512" y1="-26234" y2="-26234"><stop offset="0" stop-color="#31d8ff"/><stop offset="1" stop-color="#ff80ff"/></linearGradient><path d="m512 256c0 141.386719-114.613281 256-256 256s-256-114.613281-256-256 114.613281-256 256-256 256 114.613281 256 256zm0 0" fill="url(#a)"/><g fill="#fff"><path d="m124.441406 415c-27.261718 0-49.441406-22.179688-49.441406-49.441406v-56.480469c0-27.261719 22.179688-49.4375 49.441406-49.4375 27.257813 0 49.4375 22.175781 49.4375 49.4375v56.480469c0 27.261718-22.179687 49.441406-49.4375 49.441406zm0-125.363281c-10.71875 0-19.441406 8.722656-19.441406 19.441406v56.480469c0 10.71875 8.722656 19.4375 19.441406 19.4375s19.4375-8.71875 19.4375-19.4375v-56.480469c0-10.71875-8.71875-19.441406-19.4375-19.441406zm0 0"/><path d="m256 415c-27.261719 0-49.441406-22.179688-49.441406-49.441406v-263.121094c0-27.257812 22.179687-49.4375 49.441406-49.4375s49.441406 22.179688 49.441406 49.4375v263.121094c0 27.261718-22.179687 49.441406-49.441406 49.441406zm0-332c-10.71875 0-19.441406 8.71875-19.441406 19.4375v263.121094c0 10.71875 8.722656 19.4375 19.441406 19.4375s19.441406-8.71875 19.441406-19.4375v-263.121094c0-10.71875-8.722656-19.4375-19.441406-19.4375zm0 0"/><path d="m387.558594 415c-27.257813 0-49.4375-22.179688-49.4375-49.441406v-159.800782c0-27.261718 22.179687-49.4375 49.4375-49.4375 27.261718 0 49.441406 22.175782 49.441406 49.4375v159.800782c0 27.261718-22.179688 49.441406-49.441406 49.441406zm0-228.683594c-10.71875 0-19.4375 8.722656-19.4375 19.441406v159.800782c0 10.71875 8.71875 19.4375 19.4375 19.4375s19.441406-8.71875 19.441406-19.4375v-159.800782c0-10.71875-8.722656-19.441406-19.441406-19.441406zm0 0"/></g></svg>