<svg viewBox="0 0 512 512" xmlns="http://www.w3.org/2000/svg" xmlns:xlink="http://www.w3.org/1999/xlink"><linearGradient id="a" gradientTransform="matrix(1 0 0 -1 0 -25978)" gradientUnits="userSpaceOnUse" x1="0" x2="512" y1="-26234" y2="-26234"><stop offset="0" stop-color="#31d8ff"/><stop offset="1" stop-color="#ff80ff"/></linearGradient><path d="m512 256c0 141.386719-114.613281 256-256 256s-256-114.613281-256-256 114.613281-256 256-256 256 114.613281 256 256zm0 0" fill="url(#a)"/><path d="m331.429688 433.066406c-20.285157 0-41.996094-8.007812-63.75-24.03125-68.257813-50.273437-114.441407-96.457031-164.714844-164.714844-32.058594-43.53125-32.039063-86.898437.054687-118.996093l35.164063-35.164063c7.9375-7.9375 18.898437-11.957031 30.085937-11.027344 11.183594.925782 21.335938 6.691407 27.859375 15.824219l27.226563 38.113281c10.867187 15.21875 9.160156 35.863282-4.066407 49.085938l-21.574218 21.578125c7.867187 10.890625 25.347656 31.320313 52.292968 58.261719 26.9375 26.9375 47.367188 44.417968 58.261719 52.289062l21.574219-21.574218c13.226562-13.226563 33.871094-14.933594 49.089844-4.066407l38.113281 27.226563c9.128906 6.523437 14.898437 16.679687 15.824219 27.859375.925781 11.183593-3.09375 22.148437-11.03125 30.085937l-35.164063 35.164063c-16.058593 16.054687-34.941406 24.085937-55.246093 24.085937zm-204.3125-206.539062c48.335937 65.625 92.734374 110.023437 158.355468 158.351562 21.769532 16.035156 53.320313 29.554688 79.988282 2.890625l35.167968-35.167969c2.308594-2.308593 2.460938-4.996093 2.34375-6.394531-.117187-1.394531-.707031-4.023437-3.363281-5.921875l-38.117187-27.226562c-3.234376-2.3125-7.625-1.945313-10.4375.863281l-29.71875 29.722656c-4.09375 4.089844-10.171876 5.460938-15.625 3.53125-18.121094-6.433593-59.828126-46.875-76.917969-63.964843-17.089844-17.089844-57.535157-58.796876-63.96875-76.921876-1.933594-5.453124-.558594-11.53125 3.53125-15.625l29.722656-29.722656c2.8125-2.808594 3.175781-7.199218.863281-10.4375l-27.226562-38.109375c-1.898438-2.660156-4.523438-3.25-5.921875-3.367187-1.394531-.117188-4.085938.035156-6.394531 2.34375l-35.167969 35.167968c-26.664063 26.664063-13.148438 58.21875 2.886719 79.988282zm0 0" fill="#fff"/></svg>