<svg viewBox="0 0 512 512" xmlns="http://www.w3.org/2000/svg" xmlns:xlink="http://www.w3.org/1999/xlink"><linearGradient id="a" gradientTransform="matrix(1 0 0 -1 0 -24914)" gradientUnits="userSpaceOnUse" x1="0" x2="512" y1="-25170" y2="-25170"><stop offset="0" stop-color="#31d8ff"/><stop offset="1" stop-color="#ff80ff"/></linearGradient><path d="m512 256c0 141.386719-114.613281 256-256 256s-256-114.613281-256-256 114.613281-256 256-256 256 114.613281 256 256zm0 0" fill="url(#a)"/><path d="m256.003906 456.003906c-1.085937 0-2.183594-.121094-3.277344-.367187-6.855468-1.53125-11.726562-7.613281-11.726562-14.636719v-137.019531h-87.691406c-5.136719 0-9.914063-2.628907-12.664063-6.964844-2.753906-4.335937-3.09375-9.78125-.902343-14.425781l102.6875-217.984375c2.992187-6.351563 9.992187-9.777344 16.847656-8.242188 6.851562 1.53125 11.722656 7.613281 11.722656 14.636719v137.019531h87.691406c5.136719 0 9.914063 2.628907 12.664063 6.964844 2.753906 4.335937 3.09375 9.78125.902343 14.425781l-102.6875 217.984375c-2.515624 5.335938-7.859374 8.609375-13.566406 8.609375zm-79.046875-182.023437h79.042969c8.285156 0 15 6.714843 15 15v84.980469l64.042969-135.941407h-79.042969c-8.285156 0-15-6.71875-15-15v-84.984375zm0 0" fill="#fff"/></svg>