<svg viewBox="0 0 512 512" xmlns="http://www.w3.org/2000/svg" xmlns:xlink="http://www.w3.org/1999/xlink"><linearGradient id="a" gradientTransform="matrix(1 0 0 -1 0 -24914)" gradientUnits="userSpaceOnUse" x1="0" x2="512" y1="-25170" y2="-25170"><stop offset="0" stop-color="#31d8ff"/><stop offset="1" stop-color="#ff80ff"/></linearGradient><path d="m512 256c0 141.386719-114.613281 256-256 256s-256-114.613281-256-256 114.613281-256 256-256 256 114.613281 256 256zm0 0" fill="url(#a)"/><g fill="#fff"><path d="m256 56c-110.28125 0-200 89.71875-200 200s89.71875 200 200 200 200-89.71875 200-200-89.71875-200-200-200zm0 370c-93.738281 0-170-76.261719-170-170s76.261719-170 170-170 170 76.261719 170 170-76.261719 170-170 170zm0 0"/><path d="m135.480469 241h-23.027344c-8.285156 0-15 6.714844-15 15s6.714844 15 15 15h23.027344c8.285156 0 15-6.714844 15-15s-6.714844-15-15-15zm0 0"/><path d="m400.316406 241h-23.03125c-8.28125 0-15 6.714844-15 15s6.71875 15 15 15h23.03125c8.28125 0 15-6.714844 15-15s-6.714844-15-15-15zm0 0"/><path d="m335.464844 118.359375c-7.175782-4.144531-16.347656-1.683594-20.488282 5.492187l-11.515624 19.941407c-4.144532 7.175781-1.683594 16.347656 5.488281 20.492187 2.363281 1.363282 4.941406 2.011719 7.488281 2.011719 5.183594 0 10.226562-2.691406 13.003906-7.503906l11.515625-19.941407c4.140625-7.171874 1.683594-16.347656-5.492187-20.492187zm0 0"/><path d="m301.28125 177.570312c-7.175781-4.144531-16.347656-1.6875-20.488281 5.488282l-22.050781 38.1875c-.90625-.070313-1.816407-.117188-2.742188-.117188-19.226562 0-34.867188 15.644532-34.867188 34.871094s15.640626 34.867188 34.867188 34.867188 34.867188-15.640626 34.867188-34.867188c0-7.324219-2.273438-14.128906-6.148438-19.746094l22.054688-38.195312c4.140624-7.171875 1.683593-16.347656-5.492188-20.488282zm0 0"/><path d="m197.023438 123.851562c-4.140626-7.171874-13.320313-9.632812-20.488282-5.488281-7.175781 4.140625-9.632812 13.316407-5.492187 20.488281l11.515625 19.945313c2.777344 4.8125 7.820312 7.5 13.003906 7.5 2.546875 0 5.125-.648437 7.488281-2.011719 7.171875-4.144531 9.632813-13.316406 5.488281-20.488281zm0 0"/></g></svg>