<svg viewBox="0 0 512 512" xmlns="http://www.w3.org/2000/svg" xmlns:xlink="http://www.w3.org/1999/xlink"><linearGradient id="a" gradientTransform="matrix(1 0 0 -1 0 -24914)" gradientUnits="userSpaceOnUse" x1="0" x2="512" y1="-25170" y2="-25170"><stop offset="0" stop-color="#31d8ff"/><stop offset="1" stop-color="#ff80ff"/></linearGradient><path d="m512 256c0 141.386719-114.613281 256-256 256s-256-114.613281-256-256 114.613281-256 256-256 256 114.613281 256 256zm0 0" fill="url(#a)"/><path d="m444.605469 179.730469-111.339844-111.339844c-5.855469-5.855469-15.355469-5.855469-21.210937 0-5.859376 5.859375-5.859376 15.355469 0 21.214844l3.308593 3.308593-92.679687 92.683594-68.179688 15.734375c-5.3125 1.226563-9.542968 5.238281-11.046875 10.480469-1.503906 5.242188-.042969 10.886719 3.8125 14.742188l58.980469 58.976562-106.855469 106.863281c-5.859375 5.855469-5.859375 15.351563 0 21.210938 2.929688 2.929687 6.765625 4.394531 10.605469 4.394531s7.679688-1.464844 10.605469-4.394531l106.859375-106.859375 58.980468 58.984375c2.855469 2.851562 6.6875 4.394531 10.609376 4.394531 1.378906 0 2.769531-.191406 4.132812-.582031 5.242188-1.503907 9.253906-5.730469 10.480469-11.046875l15.734375-68.179688 92.679687-92.679687 3.3125 3.308593c2.925781 2.929688 6.765625 4.394532 10.605469 4.394532 3.835938 0 7.675781-1.464844 10.605469-4.394532 5.859375-5.855468 5.859375-15.355468 0-21.214843zm-156.082031 145.648437-100.902344-100.902344 37.898437-8.746093 71.75 71.75zm25.230468-63.839844-62.292968-62.292968 85.117187-85.117188 62.292969 62.292969zm0 0" fill="#fff"/></svg>