<svg viewBox="0 0 512 512" xmlns="http://www.w3.org/2000/svg" xmlns:xlink="http://www.w3.org/1999/xlink"><linearGradient id="a" gradientTransform="matrix(1 0 0 -1 0 -24914)" gradientUnits="userSpaceOnUse" x1="0" x2="512" y1="-25170" y2="-25170"><stop offset="0" stop-color="#31d8ff"/><stop offset="1" stop-color="#ff80ff"/></linearGradient><path d="m512 256c0 141.386719-114.613281 256-256 256s-256-114.613281-256-256 114.613281-256 256-256 256 114.613281 256 256zm0 0" fill="url(#a)"/><path d="m404.390625 147.480469h-91.066406v-44.066407c0-8.285156-6.714844-15-15-15h-84.648438c-8.28125 0-15 6.714844-15 15v44.066407h-91.066406c-20.1875 0-36.609375 16.425781-36.609375 36.609375v172.882812c0 20.1875 16.421875 36.609375 36.609375 36.609375h296.78125c20.1875 0 36.609375-16.421875 36.609375-36.609375v-172.878906c0-20.1875-16.421875-36.613281-36.609375-36.613281zm-175.714844-29.066407h54.648438v29.066407h-54.648438zm-121.066406 59.066407h296.78125c3.644531 0 6.609375 2.964843 6.609375 6.609375v71.441406h-112.675781c-8.285157 0-15 6.714844-15 15v14.535156h-54.648438v-14.535156c0-8.285156-6.714843-15-15-15h-112.675781v-71.441406c0-3.644532 2.964844-6.609375 6.609375-6.609375zm296.78125 186.105469h-296.78125c-3.644531 0-6.609375-2.96875-6.609375-6.613282v-71.4375h97.675781v14.53125c0 8.285156 6.714844 15 15 15h84.648438c8.28125 0 15-6.714844 15-15v-14.53125h97.675781v71.4375c0 3.644532-2.964844 6.613282-6.609375 6.613282zm0 0" fill="#fff"/></svg>