<svg viewBox="0 0 512 512" xmlns="http://www.w3.org/2000/svg" xmlns:xlink="http://www.w3.org/1999/xlink"><linearGradient id="a" gradientTransform="matrix(1 0 0 -1 0 -24914)" gradientUnits="userSpaceOnUse" x1="0" x2="512" y1="-25170" y2="-25170"><stop offset="0" stop-color="#31d8ff"/><stop offset="1" stop-color="#ff80ff"/></linearGradient><path d="m512 256c0 141.386719-114.613281 256-256 256s-256-114.613281-256-256 114.613281-256 256-256 256 114.613281 256 256zm0 0" fill="url(#a)"/><path d="m256 456c-5.792969 0-11.066406-3.335938-13.550781-8.566406l-29.023438-61.160156-59.738281 32.566406c-5.09375 2.777344-11.332031 2.363281-16.019531-1.054688-4.6875-3.421875-6.980469-9.238281-5.890625-14.9375l12.6875-66.285156-67.5-8.511719c-5.773438-.730469-10.605469-4.730469-12.398438-10.265625-1.789062-5.539062-.214844-11.609375 4.035156-15.582031l49.480469-46.203125-49.480469-46.203125c-4.253906-3.972656-5.824218-10.046875-4.035156-15.582031 1.792969-5.535156 6.621094-9.535156 12.398438-10.265625l67.5-8.511719-12.6875-66.285156c-1.09375-5.699219 1.203125-11.515625 5.886718-14.9375 4.691407-3.421875 10.929688-3.832032 16.023438-1.054688l59.734375 32.566406 29.027344-61.160156c2.484375-5.230468 7.757812-8.566406 13.550781-8.566406s11.066406 3.335938 13.550781 8.566406l29.023438 61.160156 59.738281-32.566406c5.09375-2.777344 11.332031-2.363281 16.019531 1.054688 4.6875 3.421875 6.980469 9.238281 5.890625 14.9375l-12.6875 66.285156 67.5 8.511719c5.773438.730469 10.605469 4.730469 12.398438 10.265625 1.789062 5.539062.214844 11.609375-4.035156 15.582031l-49.480469 46.203125 49.480469 46.203125c4.253906 3.972656 5.824218 10.046875 4.035156 15.582031-1.792969 5.535156-6.621094 9.535156-12.398438 10.265625l-67.5 8.511719 12.6875 66.285156c1.09375 5.699219-1.203125 11.515625-5.886718 14.9375-4.691407 3.417969-10.929688 3.832032-16.023438 1.054688l-59.734375-32.566406-29.027344 61.160156c-2.484375 5.230468-7.757812 8.566406-13.550781 8.566406zm-35.828125-105.488281c1.5625 0 3.125.242187 4.636719.730469 3.921875 1.277343 7.148437 4.109374 8.914062 7.835937l22.277344 46.9375 22.277344-46.9375c1.765625-3.726563 4.992187-6.558594 8.914062-7.835937 3.917969-1.273438 8.195313-.878907 11.816406 1.097656l45.78125 24.957031-9.722656-50.796875c-.78125-4.070312.160156-8.28125 2.59375-11.632812 2.433594-3.355469 6.148438-5.550782 10.261719-6.066407l51.609375-6.511719-37.828125-35.324218c-3.039063-2.835938-4.761719-6.808594-4.761719-10.964844s1.722656-8.128906 4.761719-10.964844l37.828125-35.324218-51.609375-6.511719c-4.113281-.515625-7.828125-2.714844-10.261719-6.066407-2.433594-3.351562-3.375-7.5625-2.59375-11.632812l9.722656-50.796875-45.78125 24.957031c-3.621093 1.976563-7.894531 2.371094-11.816406 1.097656-3.921875-1.277343-7.148437-4.109374-8.914062-7.835937l-22.277344-46.9375-22.277344 46.9375c-1.765625 3.726563-4.992187 6.558594-8.914062 7.835937-3.921875 1.269532-8.195313.875-11.816406-1.097656l-45.78125-24.957031 9.722656 50.796875c.78125 4.070312-.160156 8.28125-2.59375 11.632812-2.433594 3.355469-6.148438 5.550782-10.261719 6.066407l-51.609375 6.511719 37.828125 35.324218c3.039063 2.835938 4.761719 6.808594 4.761719 10.964844s-1.722656 8.128906-4.761719 10.964844l-37.828125 35.324218 51.609375 6.511719c4.113281.515625 7.828125 2.714844 10.261719 6.066407 2.433594 3.351562 3.375 7.5625 2.59375 11.632812l-9.722656 50.796875 45.78125-24.957031c2.226562-1.210938 4.695312-1.828125 7.179687-1.828125zm0 0" fill="#fff"/></svg>