<svg viewBox="0 0 512 512" xmlns="http://www.w3.org/2000/svg" xmlns:xlink="http://www.w3.org/1999/xlink"><linearGradient id="a" gradientTransform="matrix(1 0 0 -1 0 -23850)" gradientUnits="userSpaceOnUse" x1="0" x2="512" y1="-24106" y2="-24106"><stop offset="0" stop-color="#31d8ff"/><stop offset="1" stop-color="#ff80ff"/></linearGradient><path d="m512 256c0 141.386719-114.613281 256-256 256s-256-114.613281-256-256 114.613281-256 256-256 256 114.613281 256 256zm0 0" fill="url(#a)"/><path d="m438.070312 343.5625c4.292969-5.828125 3.734376-14.160156-1.332031-19.351562l-53.230469-54.582032c-5.78125-5.933594-15.28125-6.050781-21.210937-.265625-5.929687 5.785157-6.050781 15.28125-.265625 21.210938l28.386719 29.109375h-69.082031l-58.644532-63.683594 58.648438-63.683594h69.082031l-28.386719 29.109375c-5.785156 5.929688-5.667968 15.425781.265625 21.210938 2.917969 2.84375 6.695313 4.261719 10.472657 4.261719 3.898437 0 7.800781-1.515626 10.738281-4.527344l53.226562-54.582032c5.601563-5.734374 5.601563-15.210937 0-20.945312l-53.226562-54.578125c-5.785157-5.933594-15.28125-6.050781-21.210938-.265625-5.933593 5.78125-6.050781 15.277344-.265625 21.210938l28.386719 29.105468h-75.660156c-4.195313 0-8.195313 1.753906-11.035157 4.839844l-61.429687 66.699219-62.238281-67.582031c-2.839844-3.082032-6.839844-4.835938-11.035156-4.835938h-83.023438c-8.285156 0-15 6.714844-15 15 0 8.28125 6.714844 15 15 15h76.445312l59.460938 64.5625-59.460938 64.5625h-76.445312c-8.285156 0-15 6.714844-15 15s6.714844 15 15 15h83.023438c4.191406 0 8.195312-1.753906 11.035156-4.839844l62.238281-67.582031 61.429687 66.703125c2.839844 3.082031 6.839844 4.839844 11.03125 4.839844h75.660157l-28.386719 29.105468c-5.78125 5.929688-5.664062 15.429688.269531 21.210938 2.914063 2.84375 6.691407 4.261719 10.46875 4.261719 3.902344 0 7.800781-1.515625 10.742188-4.527344l53.226562-54.578125c.5-.515625.949219-1.078125 1.375-1.652344-.007812.011719-.140625.191406-.042969.058594.148438-.203125-.136718.183594 0 0zm0 0" fill="#fff"/></svg>