<svg viewBox="0 0 512 512" xmlns="http://www.w3.org/2000/svg" xmlns:xlink="http://www.w3.org/1999/xlink"><linearGradient id="a" gradientTransform="matrix(1 0 0 -1 0 -6826)" gradientUnits="userSpaceOnUse" x1="0" x2="512" y1="-7082" y2="-7082"><stop offset="0" stop-color="#31d8ff"/><stop offset="1" stop-color="#ff80ff"/></linearGradient><path d="m512 256c0 141.386719-114.613281 256-256 256s-256-114.613281-256-256 114.613281-256 256-256 256 114.613281 256 256zm0 0" fill="url(#a)"/><g fill="#fff"><path d="m256 271.878906c-58.691406 0-106.441406-47.746094-106.441406-106.441406 0-58.691406 47.75-106.4375 106.441406-106.4375s106.441406 47.746094 106.441406 106.4375c0 58.695312-47.75 106.441406-106.441406 106.441406zm0-182.878906c-42.148438 0-76.441406 34.289062-76.441406 76.4375 0 42.152344 34.292968 76.441406 76.441406 76.441406s76.441406-34.289062 76.441406-76.441406c0-42.148438-34.292968-76.4375-76.441406-76.4375zm0 0"/><path d="m136.425781 429c-3.980469 0-7.796875-1.582031-10.609375-4.394531s-4.390625-6.628907-4.390625-10.605469c0-71.28125 57.988281-129.273438 129.269531-129.273438h10.605469c71.28125 0 129.273438 57.992188 129.273438 129.273438 0 8.28125-6.714844 15-15 15zm16.128907-30h206.890624c-7.253906-47.648438-48.5-84.273438-98.140624-84.273438h-10.605469c-49.640625 0-90.890625 36.625-98.144531 84.273438zm0 0"/></g></svg>