<svg viewBox="0 0 512 512" xmlns="http://www.w3.org/2000/svg" xmlns:xlink="http://www.w3.org/1999/xlink"><linearGradient id="a" gradientTransform="matrix(1 0 0 -1 0 -23850)" gradientUnits="userSpaceOnUse" x1="0" x2="512" y1="-24106" y2="-24106"><stop offset="0" stop-color="#31d8ff"/><stop offset="1" stop-color="#ff80ff"/></linearGradient><path d="m512 256c0 141.386719-114.613281 256-256 256s-256-114.613281-256-256 114.613281-256 256-256 256 114.613281 256 256zm0 0" fill="url(#a)"/><g fill="#fff"><path d="m394.867188 150.222656c-37.316407-23.753906-86.636719-36.835937-138.867188-36.835937s-101.550781 13.082031-138.867188 36.835937c-39.421874 25.089844-61.132812 59.15625-61.132812 95.917969 0 39.554687 25.324219 76.03125 69.855469 101.148437v52.324219c0 6.074219 3.664062 11.550781 9.277343 13.867188 1.851563.765625 3.792969 1.136719 5.71875 1.132812 3.917969 0 7.765626-1.535156 10.640626-4.421875l38.40625-38.628906c21.1875 4.867188 43.378906 7.332031 66.101562 7.332031 52.230469 0 101.550781-13.082031 138.867188-36.835937 39.421874-25.089844 61.132812-59.15625 61.132812-95.917969s-21.710938-70.828125-61.132812-95.917969zm-16.105469 166.53125c-32.566407 20.726563-76.164063 32.140625-122.761719 32.140625-23.195312 0-45.710938-2.835937-66.929688-8.429687-5.175781-1.367188-10.6875.132812-14.460937 3.929687l-18.753906 18.863281v-24.953124c0-5.652344-3.179688-10.824219-8.21875-13.378907-39.171875-19.855469-61.636719-48.570312-61.636719-78.785156 0-26.144531 16.777344-51.21875 47.238281-70.609375 32.566407-20.730469 76.164063-32.144531 122.761719-32.144531s90.195312 11.414062 122.761719 32.144531c30.460937 19.390625 47.238281 44.464844 47.238281 70.609375s-16.777344 51.222656-47.238281 70.613281zm0 0"/><path d="m277.164062 246.167969c0 11.6875-9.476562 21.164062-21.164062 21.164062s-21.164062-9.476562-21.164062-21.164062c0-11.691407 9.476562-21.164063 21.164062-21.164063s21.164062 9.472656 21.164062 21.164063zm0 0"/><path d="m185.050781 246.167969c0 11.6875-9.476562 21.164062-21.167969 21.164062-11.6875 0-21.164062-9.476562-21.164062-21.164062 0-11.691407 9.476562-21.164063 21.164062-21.164063 11.691407 0 21.167969 9.472656 21.167969 21.164063zm0 0"/><path d="m369.28125 246.167969c0 11.6875-9.476562 21.164062-21.164062 21.164062-11.691407 0-21.167969-9.476562-21.167969-21.164062 0-11.691407 9.476562-21.164063 21.167969-21.164063 11.6875 0 21.164062 9.472656 21.164062 21.164063zm0 0"/></g></svg>