<svg viewBox="0 0 512 512" xmlns="http://www.w3.org/2000/svg" xmlns:xlink="http://www.w3.org/1999/xlink"><linearGradient id="a" gradientTransform="matrix(1 0 0 -1 0 -23850)" gradientUnits="userSpaceOnUse" x1="0" x2="512" y1="-24106" y2="-24106"><stop offset="0" stop-color="#31d8ff"/><stop offset="1" stop-color="#ff80ff"/></linearGradient><path d="m512 256c0 141.386719-114.613281 256-256 256s-256-114.613281-256-256 114.613281-256 256-256 256 114.613281 256 256zm0 0" fill="url(#a)"/><g fill="#fff"><path d="m435.003906 165.324219c-2.832031-3.777344-7.28125-6.003907-12.003906-6.003907h-270.917969l-7.785156-26.601562c-1.875-6.394531-7.738281-10.785156-14.398437-10.785156h-46.898438c-8.285156 0-15 6.714844-15 15s6.714844 15 15 15h35.660156l7.785156 26.597656 49.558594 169.296875c1.871094 6.394531 7.734375 10.785156 14.394532 10.785156h183.042968c6.664063 0 12.527344-4.390625 14.398438-10.785156l49.558594-169.296875c1.324218-4.53125.4375-9.425781-2.394532-13.207031zm-72.800781 163.289062h-160.566406l-40.773438-139.292969h242.117188zm0 0"/><path d="m262.574219 405.621094c0 10.742187-8.707031 19.449218-19.449219 19.449218s-19.449219-8.707031-19.449219-19.449218c0-10.742188 8.707031-19.449219 19.449219-19.449219s19.449219 8.707031 19.449219 19.449219zm0 0"/><path d="m340.167969 405.621094c0 10.742187-8.707031 19.449218-19.449219 19.449218s-19.449219-8.707031-19.449219-19.449218c0-10.742188 8.707031-19.449219 19.449219-19.449219s19.449219 8.707031 19.449219 19.449219zm0 0"/></g></svg>