<svg viewBox="0 0 512 512" xmlns="http://www.w3.org/2000/svg" xmlns:xlink="http://www.w3.org/1999/xlink"><linearGradient id="a" gradientTransform="matrix(1 0 0 -1 0 -23850)" gradientUnits="userSpaceOnUse" x1="0" x2="512" y1="-24106" y2="-24106"><stop offset="0" stop-color="#31d8ff"/><stop offset="1" stop-color="#ff80ff"/></linearGradient><path d="m512 256c0 141.386719-114.613281 256-256 256s-256-114.613281-256-256 114.613281-256 256-256 256 114.613281 256 256zm0 0" fill="url(#a)"/><path d="m454.050781 248.601562c-19.71875-34.773437-48.082031-63.945312-82.023437-84.363281-35.023438-21.0625-75.144532-32.199219-116.027344-32.199219-17.269531 0-34.402344 1.996094-51.074219 5.878907l-30.40625-52.488281c-4.152343-7.164063-13.328125-9.609376-20.496093-5.460938-7.167969 4.152344-9.613282 13.332031-5.460938 20.5l26.917969 46.46875c-12.273438 4.699219-24.160157 10.476562-35.507813 17.300781-33.941406 20.417969-62.304687 49.589844-82.023437 84.363281-2.601563 4.589844-2.601563 10.207032 0 14.796876 19.71875 34.773437 48.082031 63.945312 82.023437 84.363281 35.023438 21.0625 75.144532 32.199219 116.027344 32.199219 17.269531 0 34.402344-1.996094 51.074219-5.878907l30.40625 52.488281c2.78125 4.800782 7.816406 7.480469 12.992187 7.480469 2.550782 0 5.136719-.652343 7.503906-2.023437 7.167969-4.152344 9.613282-13.328125 5.460938-20.496094l-26.917969-46.46875c12.273438-4.699219 24.160157-10.476562 35.507813-17.300781 33.941406-20.417969 62.304687-49.589844 82.023437-84.363281 2.597657-4.589844 2.597657-10.207032 0-14.796876zm-198.050781 101.359376c-67.789062 0-131.21875-35.785157-167.546875-93.960938 24.277344-38.871094 60.660156-67.730469 102.351563-82.609375l21.394531 36.929687c-12.023438 11.535157-19.53125 27.742188-19.53125 45.679688 0 34.921875 28.410156 63.335938 63.332031 63.335938 6.199219 0 12.191406-.914063 17.859375-2.582032l17.347656 29.941406c-11.519531 2.136719-23.292969 3.265626-35.207031 3.265626zm27.890625-75.738282-29.832031-51.496094c.644531-.035156 1.289062-.058593 1.941406-.058593 18.378906 0 33.332031 14.953125 33.332031 33.332031 0 6.722656-2.003906 12.980469-5.441406 18.222656zm-55.78125-36.445312 29.832031 51.496094c-.644531.035156-1.289062.058593-1.941406.058593-18.378906 0-33.332031-14.953125-33.332031-33.332031 0-6.722656 2.003906-12.980469 5.441406-18.222656zm93.085937 100.832031-21.394531-36.929687c12.023438-11.535157 19.53125-27.742188 19.53125-45.679688 0-34.921875-28.410156-63.335938-63.332031-63.335938-6.199219 0-12.191406.914063-17.859375 2.582032l-17.347656-29.941406c11.519531-2.140626 23.292969-3.265626 35.207031-3.265626 67.789062 0 131.21875 35.785157 167.546875 93.960938-24.277344 38.871094-60.660156 67.730469-102.351563 82.609375zm0 0" fill="#fff"/></svg>