<svg viewBox="0 0 512 512" xmlns="http://www.w3.org/2000/svg" xmlns:xlink="http://www.w3.org/1999/xlink"><linearGradient id="a" gradientTransform="matrix(1 0 0 -1 0 -23850)" gradientUnits="userSpaceOnUse" x1="0" x2="512" y1="-24106" y2="-24106"><stop offset="0" stop-color="#31d8ff"/><stop offset="1" stop-color="#ff80ff"/></linearGradient><path d="m512 256c0 141.386719-114.613281 256-256 256s-256-114.613281-256-256 114.613281-256 256-256 256 114.613281 256 256zm0 0" fill="url(#a)"/><g fill="#fff"><path d="m256 379.960938c-40.882812 0-81.003906-11.132813-116.027344-32.199219-33.941406-20.417969-62.304687-49.589844-82.023437-84.363281-2.601563-4.589844-2.601563-10.207032 0-14.796876 19.71875-34.773437 48.082031-63.945312 82.023437-84.363281 35.023438-21.0625 75.144532-32.199219 116.027344-32.199219s81.003906 11.136719 116.027344 32.199219c33.941406 20.417969 62.304687 49.589844 82.023437 84.363281 2.601563 4.589844 2.601563 10.207032 0 14.796876-19.71875 34.773437-48.082031 63.945312-82.023437 84.363281-35.023438 21.066406-75.144532 32.199219-116.027344 32.199219zm-167.546875-123.960938c36.328125 58.175781 99.757813 93.960938 167.546875 93.960938s131.21875-35.785157 167.546875-93.960938c-36.328125-58.175781-99.757813-93.960938-167.546875-93.960938s-131.21875 35.785157-167.546875 93.960938zm0 0"/><path d="m256 319.332031c-34.921875 0-63.332031-28.410156-63.332031-63.332031s28.410156-63.332031 63.332031-63.332031 63.332031 28.410156 63.332031 63.332031-28.410156 63.332031-63.332031 63.332031zm0-96.664062c-18.378906 0-33.332031 14.953125-33.332031 33.332031s14.953125 33.332031 33.332031 33.332031 33.332031-14.953125 33.332031-33.332031-14.953125-33.332031-33.332031-33.332031zm0 0"/></g></svg>