<svg viewBox="0 0 512 512" xmlns="http://www.w3.org/2000/svg" xmlns:xlink="http://www.w3.org/1999/xlink"><linearGradient id="a" gradientTransform="matrix(1 0 0 -1 0 -22786)" gradientUnits="userSpaceOnUse" x1="0" x2="512" y1="-23042" y2="-23042"><stop offset="0" stop-color="#31d8ff"/><stop offset="1" stop-color="#ff80ff"/></linearGradient><path d="m512 256c0 141.386719-114.613281 256-256 256s-256-114.613281-256-256 114.613281-256 256-256 256 114.613281 256 256zm0 0" fill="url(#a)"/><g fill="#fff"><path d="m408.5 349.929688h-28.570312v-72.144532c0-8.28125-6.714844-15-15-15-8.285157 0-15 6.71875-15 15v72.144532h-72.144532c-8.28125 0-15 6.714843-15 15 0 8.285156 6.71875 15 15 15h72.144532v28.570312c0 8.285156 6.714843 15 15 15 8.285156 0 15-6.714844 15-15v-28.570312h28.570312c8.285156 0 15-6.714844 15-15 0-8.285157-6.714844-15-15-15zm0 0"/><path d="m190.644531 88.5h-87.144531c-8.285156 0-15 6.714844-15 15v87.144531c0 8.28125 6.714844 15 15 15s15-6.71875 15-15v-72.144531h72.144531c8.28125 0 15-6.714844 15-15s-6.71875-15-15-15zm0 0"/><path d="m277.785156 118.5h72.144532v72.144531c0 8.28125 6.714843 15 15 15 8.285156 0 15-6.71875 15-15v-87.144531c0-8.285156-6.714844-15-15-15h-87.144532c-8.28125 0-15 6.714844-15 15s6.71875 15 15 15zm0 0"/><path d="m190.644531 349.929688h-72.144531v-72.144532c0-8.28125-6.714844-15-15-15s-15 6.71875-15 15v87.144532c0 8.285156 6.714844 15 15 15h87.144531c8.28125 0 15-6.714844 15-15 0-8.285157-6.71875-15-15-15zm0 0"/><path d="m103.5 255.675781c8.285156 0 15-6.714843 15-15v-12.921875c0-8.285156-6.714844-15-15-15s-15 6.714844-15 15v12.921875c0 8.285157 6.714844 15 15 15zm0 0"/><path d="m364.929688 212.753906c-8.285157 0-15 6.714844-15 15v12.921875c0 8.285157 6.714843 15 15 15 8.285156 0 15-6.714843 15-15v-12.921875c0-8.285156-6.714844-15-15-15zm0 0"/><path d="m240.675781 88.5h-12.921875c-8.285156 0-15 6.714844-15 15s6.714844 15 15 15h12.921875c8.285157 0 15-6.714844 15-15s-6.714843-15-15-15zm0 0"/><path d="m240.675781 349.929688h-12.921875c-8.285156 0-15 6.714843-15 15 0 8.285156 6.714844 15 15 15h12.921875c8.285157 0 15-6.714844 15-15 0-8.285157-6.714843-15-15-15zm0 0"/></g></svg>