<svg viewBox="0 0 512 512" xmlns="http://www.w3.org/2000/svg" xmlns:xlink="http://www.w3.org/1999/xlink"><linearGradient id="a" gradientTransform="matrix(1 0 0 -1 0 -22786)" gradientUnits="userSpaceOnUse" x1="0" x2="512" y1="-23042" y2="-23042"><stop offset="0" stop-color="#31d8ff"/><stop offset="1" stop-color="#ff80ff"/></linearGradient><path d="m512 256c0 141.386719-114.613281 256-256 256s-256-114.613281-256-256 114.613281-256 256-256 256 114.613281 256 256zm0 0" fill="url(#a)"/><path d="m369.730469 88.5h-227.460938c-29.648437 0-53.769531 24.121094-53.769531 53.769531v228.261719c0 29.207031 23.761719 52.96875 52.96875 52.96875h229.066406c29.203125 0 52.964844-23.761719 52.964844-52.96875v-228.261719c0-29.648437-24.121094-53.769531-53.769531-53.769531zm-227.460938 30h227.457031c13.109376 0 23.773438 10.664062 23.773438 23.769531v173.382813l-45.851562-68.035156c-2.789063-4.136719-7.449219-6.617188-12.4375-6.617188-4.988282 0-9.652344 2.480469-12.441407 6.617188l-43.710937 64.871093-66.773438-99.085937c-2.789062-4.136719-7.449218-6.617188-12.4375-6.617188-4.988281 0-9.652344 2.480469-12.441406 6.617188l-68.90625 102.253906v-173.386719c0-13.105469 10.664062-23.769531 23.769531-23.769531zm0 275c-13.105469 0-23.769531-10.664062-23.769531-23.769531v-.390625l81.347656-120.710938 66.769532 99.085938c2.789062 4.136718 7.453124 6.617187 12.441406 6.617187 4.988281 0 9.652344-2.480469 12.4375-6.617187l43.714844-64.871094 58.289062 86.496094v.390625c0 13.105469-10.664062 23.769531-23.773438 23.769531zm0 0" fill="#fff"/></svg>