<svg viewBox="0 0 512 512" xmlns="http://www.w3.org/2000/svg" xmlns:xlink="http://www.w3.org/1999/xlink"><linearGradient id="a" gradientTransform="matrix(1 0 0 -1 0 -22786)" gradientUnits="userSpaceOnUse" x1="0" x2="512" y1="-23042" y2="-23042"><stop offset="0" stop-color="#31d8ff"/><stop offset="1" stop-color="#ff80ff"/></linearGradient><path d="m512 256c0 141.386719-114.613281 256-256 256s-256-114.613281-256-256 114.613281-256 256-256 256 114.613281 256 256zm0 0" fill="url(#a)"/><g fill="#fff"><path d="m401 125.261719h-290c-7.878906 0-14.261719-6.382813-14.261719-14.261719s6.382813-14.261719 14.261719-14.261719h290c7.878906 0 14.261719 6.382813 14.261719 14.261719s-6.382813 14.261719-14.261719 14.261719zm0 0"/><path d="m401 221.929688h-290c-7.878906 0-14.261719-6.386719-14.261719-14.261719 0-7.878907 6.382813-14.265625 14.261719-14.265625h290c7.878906 0 14.261719 6.386718 14.261719 14.265625 0 7.875-6.382813 14.261719-14.261719 14.261719zm0 0"/><path d="m401 318.597656h-290c-7.878906 0-14.261719-6.386718-14.261719-14.265625 0-7.875 6.382813-14.261719 14.261719-14.261719h290c7.878906 0 14.261719 6.386719 14.261719 14.261719 0 7.878907-6.382813 14.265625-14.261719 14.265625zm0 0"/><path d="m401 415.261719h-290c-7.878906 0-14.261719-6.382813-14.261719-14.261719s6.382813-14.261719 14.261719-14.261719h290c7.878906 0 14.261719 6.382813 14.261719 14.261719s-6.382813 14.261719-14.261719 14.261719zm0 0"/></g></svg>