<svg viewBox="0 0 512 512" xmlns="http://www.w3.org/2000/svg" xmlns:xlink="http://www.w3.org/1999/xlink"><linearGradient id="a" gradientTransform="matrix(1 0 0 -1 0 -6826)" gradientUnits="userSpaceOnUse" x1="0" x2="512" y1="-7082" y2="-7082"><stop offset="0" stop-color="#31d8ff"/><stop offset="1" stop-color="#ff80ff"/></linearGradient><path d="m512 256c0 141.386719-114.613281 256-256 256s-256-114.613281-256-256 114.613281-256 256-256 256 114.613281 256 256zm0 0" fill="url(#a)"/><path d="m151.316406 441.375c-6.335937 0-12.632812-1.988281-18.011718-5.898438-9.492188-6.90625-14.152344-18.375-12.167969-29.9375l17.257812-100.433593-73.113281-71.132813c-8.417969-8.191406-11.394531-20.214844-7.769531-31.378906 3.625-11.179688 13.109375-19.171875 24.75-20.859375l101.066406-14.65625 45.191406-91.398437c5.203125-10.519532 15.730469-17.058594 27.476563-17.058594 11.75 0 22.277344 6.535156 27.484375 17.058594l45.191406 91.394531 101.0625 14.660156c11.640625 1.6875 21.125 9.679687 24.75 20.859375 3.625 11.164062.648437 23.1875-7.769531 31.378906l-73.113282 71.132813 17.257813 100.433593c1.988281 11.5625-2.675781 23.03125-12.167969 29.9375-9.503906 6.914063-21.878906 7.816407-32.292968 2.351563l-90.398438-47.433594-90.402344 47.4375c-4.519531 2.371094-9.414062 3.542969-14.28125 3.542969zm104.683594-352.753906c-.410156 0-.476562.136718-.585938.355468l-48.6875 98.460938c-2.1875 4.425781-6.410156 7.488281-11.292968 8.199219l-108.863282 15.789062c-.253906.035157-.40625.054688-.523437.429688-.113281.351562-.023437.441406.15625.617187l78.773437 76.640625c3.542969 3.445313 5.164063 8.417969 4.324219 13.289063l-18.597656 108.21875c-.039063.246094-.0625.367187.25.59375.335937.246094.480469.167968.707031.050781l97.371094-51.09375c4.363281-2.289063 9.574219-2.289063 13.9375 0l97.371094 51.09375c.222656.117187.371094.195313.707031-.050781.3125-.226563.289063-.347656.246094-.59375l-18.59375-108.21875c-.839844-4.871094.777343-9.84375 4.320312-13.292969l78.777344-76.640625c.179687-.175781.269531-.261719.15625-.617188-.121094-.371093-.273437-.390624-.523437-.429687l-108.863282-15.789063c-4.882812-.707031-9.105468-3.773437-11.292968-8.195312l-48.6875-98.460938c-.105469-.21875-.175782-.355468-.585938-.355468zm0 0" fill="#fff"/></svg>