<svg viewBox="0 0 512 512" xmlns="http://www.w3.org/2000/svg" xmlns:xlink="http://www.w3.org/1999/xlink"><linearGradient id="a" gradientTransform="matrix(1 0 0 -1 0 -21722)" gradientUnits="userSpaceOnUse" x1="0" x2="512" y1="-21978" y2="-21978"><stop offset="0" stop-color="#31d8ff"/><stop offset="1" stop-color="#ff80ff"/></linearGradient><path d="m512 256c0 141.386719-114.613281 256-256 256s-256-114.613281-256-256 114.613281-256 256-256 256 114.613281 256 256zm0 0" fill="url(#a)"/><g fill="#fff"><path d="m364.050781 335.828125c-8.285156 0-15-6.714844-15-15v-129.65625c0-8.285156 6.714844-15 15-15 8.285157 0 15 6.714844 15 15v129.65625c0 8.285156-6.714843 15-15 15zm0 0"/><path d="m292.015625 286.871094c-8.28125 0-15-6.714844-15-15v-80.699219c0-8.285156 6.71875-15 15-15 8.285156 0 15 6.714844 15 15v80.699219c0 8.285156-6.714844 15-15 15zm0 0"/><path d="m219.984375 286.871094c-8.285156 0-15-6.714844-15-15v-80.699219c0-8.285156 6.714844-15 15-15 8.28125 0 15 6.714844 15 15v80.699219c0 8.285156-6.714844 15-15 15zm0 0"/><path d="m147.949219 335.828125c-8.285157 0-15-6.714844-15-15v-129.65625c0-8.285156 6.714843-15 15-15 8.285156 0 15 6.714844 15 15v129.65625c0 8.285156-6.714844 15-15 15zm0 0"/><path d="m426 379.050781h-340c-8.285156 0-15-6.714843-15-15v-216.101562c0-8.285157 6.714844-15 15-15h340c8.285156 0 15 6.714843 15 15v216.101562c0 8.285157-6.714844 15-15 15zm-325-30h310v-186.101562h-310zm0 0"/></g></svg>