<svg viewBox="0 0 512 512" xmlns="http://www.w3.org/2000/svg" xmlns:xlink="http://www.w3.org/1999/xlink"><linearGradient id="a" gradientTransform="matrix(1 0 0 -1 0 -21722)" gradientUnits="userSpaceOnUse" x1="0" x2="512" y1="-21978" y2="-21978"><stop offset="0" stop-color="#31d8ff"/><stop offset="1" stop-color="#ff80ff"/></linearGradient><path d="m512 256c0 141.386719-114.613281 256-256 256s-256-114.613281-256-256 114.613281-256 256-256 256 114.613281 256 256zm0 0" fill="url(#a)"/><g fill="#fff"><path d="m232.738281 247.738281h-129.238281c-8.285156 0-15-6.71875-15-15v-129.238281c0-8.285156 6.714844-15 15-15h129.238281c8.28125 0 15 6.714844 15 15v129.238281c0 8.28125-6.71875 15-15 15zm-114.238281-30h99.238281v-99.238281h-99.238281zm0 0"/><path d="m146.570312 354.097656v-20.429687c0-6.261719 5.074219-11.332031 11.332032-11.332031h20.429687c6.261719 0 11.332031 5.070312 11.332031 11.332031v20.429687c0 6.257813-5.070312 11.332032-11.332031 11.332032h-20.429687c-6.257813 0-11.332032-5.074219-11.332032-11.332032zm0 0"/><path d="m146.570312 178.332031v-20.429687c0-6.257813 5.074219-11.332032 11.332032-11.332032h20.429687c6.261719 0 11.332031 5.074219 11.332031 11.332032v20.429687c0 6.261719-5.070312 11.332031-11.332031 11.332031h-20.429687c-6.257813.003907-11.332032-5.070312-11.332032-11.332031zm0 0"/><path d="m322.332031 178.332031v-20.429687c0-6.257813 5.074219-11.332032 11.332031-11.332032h20.429688c6.261719 0 11.335938 5.074219 11.335938 11.332032v20.429687c0 6.261719-5.074219 11.332031-11.335938 11.332031h-20.429688c-6.257812.003907-11.332031-5.070312-11.332031-11.332031zm0 0"/><path d="m408.5 247.738281h-129.238281c-8.28125 0-15-6.71875-15-15v-129.238281c0-8.285156 6.71875-15 15-15h129.238281c8.285156 0 15 6.714844 15 15v129.238281c0 8.28125-6.714844 15-15 15zm-114.238281-30h99.238281v-99.238281h-99.238281zm0 0"/><path d="m232.738281 423.5h-129.238281c-8.285156 0-15-6.714844-15-15v-129.238281c0-8.28125 6.714844-15 15-15h129.238281c8.28125 0 15 6.71875 15 15v129.238281c0 8.285156-6.71875 15-15 15zm-114.238281-30h99.238281v-99.238281h-99.238281zm0 0"/><path d="m279.261719 335.667969c-8.28125 0-15-6.71875-15-15v-41.40625c0-8.28125 6.71875-15 15-15h41.40625c8.28125 0 15 6.71875 15 15 0 8.285156-6.71875 15-15 15h-26.40625v26.40625c0 8.28125-6.714844 15-15 15zm0 0"/><path d="m408.5 335.667969c-8.285156 0-15-6.71875-15-15v-26.40625h-26.402344c-8.285156 0-15-6.714844-15-15 0-8.28125 6.714844-15 15-15h41.402344c8.285156 0 15 6.71875 15 15v41.40625c0 8.28125-6.714844 15-15 15zm0 0"/><path d="m320.667969 423.5h-41.40625c-8.28125 0-15-6.714844-15-15v-41.402344c0-8.285156 6.71875-15 15-15 8.285156 0 15 6.714844 15 15v26.402344h26.40625c8.28125 0 15 6.714844 15 15s-6.71875 15-15 15zm0 0"/><path d="m408.5 423.5h-41.402344c-8.285156 0-15-6.714844-15-15s6.714844-15 15-15h26.402344v-26.402344c0-8.285156 6.714844-15 15-15s15 6.714844 15 15v41.402344c0 8.285156-6.714844 15-15 15zm0 0"/></g></svg>