<svg viewBox="0 0 512 512" xmlns="http://www.w3.org/2000/svg" xmlns:xlink="http://www.w3.org/1999/xlink"><linearGradient id="a" gradientTransform="matrix(1 0 0 -1 0 -21722)" gradientUnits="userSpaceOnUse" x1="0" x2="512" y1="-21978" y2="-21978"><stop offset="0" stop-color="#31d8ff"/><stop offset="1" stop-color="#ff80ff"/></linearGradient><path d="m512 256c0 141.386719-114.613281 256-256 256s-256-114.613281-256-256 114.613281-256 256-256 256 114.613281 256 256zm0 0" fill="url(#a)"/><g fill="#fff"><path d="m418 334.789062h-324c-5.566406 0-10.675781-3.085937-13.269531-8.011718-2.59375-4.925782-2.25-10.882813.902343-15.472656l162-236.179688c2.796876-4.078125 7.421876-6.515625 12.367188-6.515625s9.574219 2.4375 12.371094 6.515625l162 236.179688c3.148437 4.589843 3.496094 10.546874.902344 15.472656-2.59375 4.925781-7.707032 8.011718-13.273438 8.011718zm-295.519531-30h267.042969l-133.523438-194.660156zm0 0"/><path d="m418 403.390625h-324c-8.285156 0-15-6.71875-15-15 0-8.285156 6.714844-15 15-15h324c8.285156 0 15 6.714844 15 15 0 8.28125-6.714844 15-15 15zm0 0"/></g></svg>