<svg viewBox="0 0 512 512" xmlns="http://www.w3.org/2000/svg" xmlns:xlink="http://www.w3.org/1999/xlink"><linearGradient id="a" gradientTransform="matrix(1 0 0 -1 0 -21722)" gradientUnits="userSpaceOnUse" x1="0" x2="512" y1="-21978" y2="-21978"><stop offset="0" stop-color="#31d8ff"/><stop offset="1" stop-color="#ff80ff"/></linearGradient><path d="m512 256c0 141.386719-114.613281 256-256 256s-256-114.613281-256-256 114.613281-256 256-256 256 114.613281 256 256zm0 0" fill="url(#a)"/><g fill="#fff"><path d="m198.074219 143.925781c3.839843 0 7.679687-1.464843 10.605469-4.394531l32.320312-32.316406v116.226562c0 8.28125 6.714844 15 15 15s15-6.71875 15-15v-116.226562l32.320312 32.316406c5.855469 5.859375 15.355469 5.859375 21.210938 0 5.859375-5.855469 5.859375-15.355469 0-21.210938l-57.921875-57.921874c-5.773437-5.773438-15.445313-5.773438-21.21875 0l-57.921875 57.921874c-5.859375 5.855469-5.859375 15.355469 0 21.210938 2.929688 2.929688 6.765625 4.394531 10.605469 4.394531zm0 0"/><path d="m303.320312 372.46875-32.320312 32.316406v-116.226562c0-8.28125-6.714844-15-15-15s-15 6.71875-15 15v116.230468l-32.320312-32.320312c-5.855469-5.855469-15.355469-5.855469-21.210938 0-5.859375 5.855469-5.859375 15.355469 0 21.214844l57.921875 57.921875c5.773437 5.773437 15.445313 5.773437 21.21875 0l57.921875-57.925781c5.859375-5.855469 5.859375-15.355469 0-21.210938-5.855469-5.859375-15.355469-5.859375-21.210938 0zm0 0"/><path d="m452.589844 265.519531c4.832031-5.875 4.394531-14.753906-.988282-20.128906l-57.921874-57.921875c-5.855469-5.855469-15.355469-5.855469-21.210938 0-5.859375 5.855469-5.859375 15.355469 0 21.214844l32.316406 32.316406h-116.226562c-8.28125 0-15 6.714844-15 15s6.71875 15 15 15h116.226562l-32.316406 32.316406c-5.859375 5.859375-5.859375 15.355469 0 21.214844 2.929688 2.929688 6.765625 4.394531 10.605469 4.394531 3.839843 0 7.679687-1.464843 10.605469-4.394531l57.925781-57.921875c.34375-.347656.675781-.710937.984375-1.089844zm0 0"/><path d="m107.214844 271h116.226562c8.28125 0 15-6.714844 15-15s-6.71875-15-15-15h-116.226562l32.316406-32.316406c5.859375-5.859375 5.859375-15.355469 0-21.214844s-15.355469-5.859375-21.214844 0l-57.921875 57.921875c-5.773437 5.765625-5.773437 15.449219 0 21.21875l57.921875 57.921875c2.929688 2.929688 6.769532 4.394531 10.609375 4.394531 3.835938 0 7.675781-1.464843 10.605469-4.394531 5.855469-5.855469 5.855469-15.355469 0-21.214844zm0 0"/></g></svg>