<svg viewBox="0 0 512 512" xmlns="http://www.w3.org/2000/svg" xmlns:xlink="http://www.w3.org/1999/xlink"><linearGradient id="a" gradientTransform="matrix(1 0 0 -1 0 -20658)" gradientUnits="userSpaceOnUse" x1="0" x2="512" y1="-20914" y2="-20914"><stop offset="0" stop-color="#31d8ff"/><stop offset="1" stop-color="#ff80ff"/></linearGradient><path d="m512 256c0 141.386719-114.613281 256-256 256s-256-114.613281-256-256 114.613281-256 256-256 256 114.613281 256 256zm0 0" fill="url(#a)"/><path d="m311.726562 379.050781h-204.566406c-19.9375 0-36.160156-16.421875-36.160156-36.609375v-172.882812c0-20.1875 16.222656-36.609375 36.160156-36.609375h204.566406c19.9375 0 36.160157 16.425781 36.160157 36.609375v24.859375l73.328125-24.667969c4.582031-1.539062 9.617187-.78125 13.539062 2.035156s6.246094 7.351563 6.246094 12.179688v144.070312c0 4.828125-2.324219 9.359375-6.246094 12.179688-3.925781 2.816406-8.964844 3.574218-13.539062 2.035156l-73.328125-24.667969v24.859375c0 20.1875-16.222657 36.609375-36.160157 36.609375zm-204.566406-216.101562c-3.394531 0-6.160156 2.964843-6.160156 6.609375v172.882812c0 3.644532 2.765625 6.609375 6.160156 6.609375h204.566406c3.394532 0 6.160157-2.964843 6.160157-6.609375v-45.734375c0-4.828125 2.324219-9.359375 6.246093-12.179687 3.921876-2.820313 8.960938-3.578125 13.539063-2.035156l73.328125 24.667968v-102.320312l-73.328125 24.667968c-4.578125 1.542969-9.617187.785157-13.539063-2.035156-3.917968-2.816406-6.246093-7.351562-6.246093-12.179687v-45.734375c0-3.644532-2.761719-6.609375-6.160157-6.609375zm0 0" fill="#fff"/></svg>