<svg viewBox="0 0 512 512" xmlns="http://www.w3.org/2000/svg" xmlns:xlink="http://www.w3.org/1999/xlink"><linearGradient id="a" gradientTransform="matrix(1 0 0 -1 0 -20658)" gradientUnits="userSpaceOnUse" x1="0" x2="512" y1="-20914" y2="-20914"><stop offset="0" stop-color="#31d8ff"/><stop offset="1" stop-color="#ff80ff"/></linearGradient><path d="m512 256c0 141.386719-114.613281 256-256 256s-256-114.613281-256-256 114.613281-256 256-256 256 114.613281 256 256zm0 0" fill="url(#a)"/><g fill="#fff"><path d="m404.839844 396.585938h-297.679688c-19.9375 0-36.160156-16.425782-36.160156-36.613282v-172.878906c0-20.1875 16.222656-36.609375 36.160156-36.609375h72.246094l22.113281-40.253906c6.375-11.605469 18.484375-18.816407 31.601563-18.816407h45.757812c13.113282 0 25.226563 7.210938 31.601563 18.816407l22.113281 40.253906h72.246094c19.9375 0 36.160156 16.421875 36.160156 36.609375v172.878906c0 20.1875-16.222656 36.613282-36.160156 36.613282zm-297.679688-216.105469c-3.394531 0-6.160156 2.96875-6.160156 6.613281v172.878906c0 3.644532 2.765625 6.609375 6.160156 6.609375h297.679688c3.394531 0 6.160156-2.964843 6.160156-6.609375v-172.878906c0-3.644531-2.765625-6.609375-6.160156-6.609375h-81.117188c-5.476562 0-10.511718-2.980469-13.148437-7.777344l-26.386719-48.03125c-1.105469-2.011719-3.140625-3.261719-5.308594-3.261719h-45.757812c-2.167969 0-4.203125 1.25-5.308594 3.261719l-26.386719 48.03125c-2.636719 4.796875-7.675781 7.777344-13.148437 7.777344h-81.117188zm0 0"/><path d="m256 331.753906c-32.101562 0-58.222656-26.117187-58.222656-58.222656 0-32.101562 26.121094-58.21875 58.222656-58.21875s58.222656 26.117188 58.222656 58.21875c0 32.105469-26.121094 58.222656-58.222656 58.222656zm0-86.441406c-15.5625 0-28.222656 12.660156-28.222656 28.222656 0 15.558594 12.660156 28.21875 28.222656 28.21875s28.222656-12.660156 28.222656-28.21875c0-15.5625-12.660156-28.222656-28.222656-28.222656zm0 0"/></g></svg>