<svg viewBox="0 0 512 512" xmlns="http://www.w3.org/2000/svg" xmlns:xlink="http://www.w3.org/1999/xlink"><linearGradient id="a" gradientTransform="matrix(1 0 0 -1 0 -20658)" gradientUnits="userSpaceOnUse" x1="0" x2="512" y1="-20914" y2="-20914"><stop offset="0" stop-color="#31d8ff"/><stop offset="1" stop-color="#ff80ff"/></linearGradient><path d="m512 256c0 141.386719-114.613281 256-256 256s-256-114.613281-256-256 114.613281-256 256-256 256 114.613281 256 256zm0 0" fill="url(#a)"/><path d="m384.363281 79h-215.542969c-29.117187 0-53.128906 22.269531-55.910156 50.667969-.175781.917969-.273437 1.855469-.273437 2.820312 0 .453125.019531.898438.03125 1.351563-.011719.449218-.03125.894531-.03125 1.347656v241.625c0 30.980469 25.203125 56.1875 56.183593 56.1875h215.542969c8.285157 0 15-6.714844 15-15v-324c0-8.285156-6.714843-15-15-15zm-215.542969 30h200.542969v48.820312h-201.402343c-13.519532 0-24.59375-10.644531-25.289063-23.996093.710937-13.808594 12.167969-24.824219 26.148437-24.824219zm0 294c-14.4375 0-26.183593-11.746094-26.183593-26.1875v-195.152344c7.59375 3.929688 16.199219 6.160156 25.324219 6.160156h201.402343v215.179688zm0 0" fill="#fff"/></svg>