<svg viewBox="0 0 512 512" xmlns="http://www.w3.org/2000/svg" xmlns:xlink="http://www.w3.org/1999/xlink"><linearGradient id="a" gradientTransform="matrix(1 0 0 -1 0 -20658)" gradientUnits="userSpaceOnUse" x1="0" x2="512" y1="-20914" y2="-20914"><stop offset="0" stop-color="#31d8ff"/><stop offset="1" stop-color="#ff80ff"/></linearGradient><path d="m512 256c0 141.386719-114.613281 256-256 256s-256-114.613281-256-256 114.613281-256 256-256 256 114.613281 256 256zm0 0" fill="url(#a)"/><path d="m364.054688 441c-4.15625 0-8.21875-1.726562-11.121094-4.929688l-96.933594-107.007812-96.933594 107.007812c-4.164062 4.59375-10.726562 6.15625-16.515625 3.925782-5.785156-2.230469-9.601562-7.792969-9.601562-13.996094v-340c0-8.285156 6.714843-15 15-15h216.101562c8.285157 0 15 6.714844 15 15v340c0 6.203125-3.816406 11.765625-9.605469 13.996094-1.753906.675781-3.582031 1.003906-5.390624 1.003906zm-108.054688-149.28125c4.234375 0 8.273438 1.792969 11.117188 4.929688l81.933593 90.449218v-286.097656h-186.101562v286.097656l81.933593-90.449218c2.84375-3.136719 6.882813-4.929688 11.117188-4.929688zm0 0" fill="#fff"/></svg>