<svg viewBox="0 0 512 512" xmlns="http://www.w3.org/2000/svg" xmlns:xlink="http://www.w3.org/1999/xlink"><linearGradient id="a" gradientTransform="matrix(1 0 0 -1 0 -20658)" gradientUnits="userSpaceOnUse" x1="0" x2="512" y1="-20914" y2="-20914"><stop offset="0" stop-color="#31d8ff"/><stop offset="1" stop-color="#ff80ff"/></linearGradient><path d="m512 256c0 141.386719-114.613281 256-256 256s-256-114.613281-256-256 114.613281-256 256-256 256 114.613281 256 256zm0 0" fill="url(#a)"/><path d="m404.839844 150.957031h-38.613282v-50.550781c0-8.285156-6.714843-15-15-15h-190.453124c-8.285157 0-15 6.714844-15 15v50.550781h-38.613282c-19.9375 0-36.160156 16.425781-36.160156 36.609375v136.867188c0 20.183594 16.222656 36.605468 36.160156 36.605468h38.613282v50.554688c0 8.28125 6.714843 15 15 15h190.453124c8.285157 0 15-6.71875 15-15v-50.554688h38.613282c19.9375 0 36.160156-16.421874 36.160156-36.605468v-136.867188c0-20.183594-16.222656-36.609375-36.160156-36.609375zm-229.066406-35.550781h160.453124v35.550781h-160.453124zm160.453124 281.1875h-160.453124v-107.585938h160.453124zm74.773438-72.160156c0 3.644531-2.765625 6.609375-6.160156 6.609375h-38.613282v-42.035157h12.230469c8.285157 0 15-6.714843 15-15 0-8.28125-6.714843-15-15-15h-244.914062c-8.285157 0-15 6.71875-15 15 0 8.285157 6.714843 15 15 15h12.230469v42.035157h-38.613282c-3.394531 0-6.160156-2.964844-6.160156-6.609375v-136.867188c0-3.644531 2.765625-6.609375 6.160156-6.609375h297.679688c3.394531 0 6.160156 2.964844 6.160156 6.609375zm0 0" fill="#fff"/></svg>