<svg viewBox="0 0 512 512" xmlns="http://www.w3.org/2000/svg" xmlns:xlink="http://www.w3.org/1999/xlink"><linearGradient id="a" gradientTransform="matrix(1 0 0 -1 0 -19594)" gradientUnits="userSpaceOnUse" x1="0" x2="512" y1="-19850" y2="-19850"><stop offset="0" stop-color="#31d8ff"/><stop offset="1" stop-color="#ff80ff"/></linearGradient><path d="m512 256c0 141.386719-114.613281 256-256 256s-256-114.613281-256-256 114.613281-256 256-256 256 114.613281 256 256zm0 0" fill="url(#a)"/><path d="m384.050781 106.269531h-72.703125c-5.660156 0-10.652344-3.261719-12.714844-8.308593-6.691406-16.378907-22.578124-26.960938-40.484374-26.960938h-90.199219c-8.285157 0-15 6.714844-15 15v340c0 8.285156 6.714843 15 15 15 8.285156 0 15-6.714844 15-15v-155h75.199219c5.660156 0 10.652343 3.261719 12.710937 8.308594 6.691406 16.378906 22.582031 26.960937 40.488281 26.960937h72.703125c8.285157 0 15-6.714843 15-15v-170c0-8.285156-6.714843-15-15-15zm-15 170h-57.703125c-5.660156 0-10.652344-3.261719-12.714844-8.308593-6.691406-16.378907-22.578124-26.960938-40.484374-26.960938h-75.199219v-140h75.199219c5.660156 0 10.652343 3.261719 12.710937 8.308594 6.691406 16.378906 22.582031 26.960937 40.488281 26.960937h57.703125zm0 0" fill="#fff"/></svg>