<svg viewBox="0 0 512 512" xmlns="http://www.w3.org/2000/svg" xmlns:xlink="http://www.w3.org/1999/xlink"><linearGradient id="a" gradientTransform="matrix(1 0 0 -1 0 -6826)" gradientUnits="userSpaceOnUse" x1="0" x2="512" y1="-7082" y2="-7082"><stop offset="0" stop-color="#31d8ff"/><stop offset="1" stop-color="#ff80ff"/></linearGradient><path d="m512 256c0 141.386719-114.613281 256-256 256s-256-114.613281-256-256 114.613281-256 256-256 256 114.613281 256 256zm0 0" fill="url(#a)"/><path d="m256 451.699219c-2.351562 0-4.703125-.550781-6.855469-1.65625-168.050781-86.332031-193.144531-179.660157-193.144531-227.609375 0-32.035156 10.363281-62.140625 29.183594-84.769532 20.03125-24.09375 47.847656-37.363281 78.316406-37.363281 45.867188 0 76.644531 23.480469 92.5 39.800781 15.855469-16.320312 46.632812-39.800781 92.5-39.800781 30.472656 0 58.285156 13.269531 78.316406 37.363281 18.820313 22.628907 29.183594 52.734376 29.183594 84.769532 0 47.949218-25.09375 141.277344-193.144531 227.609375-2.152344 1.105469-4.503907 1.65625-6.855469 1.65625zm-92.5-321.398438c-44.183594 0-77.5 39.609375-77.5 92.132813 0 32.203125 13.152344 64.839844 39.09375 97.007812 29.136719 36.132813 73.15625 69.871094 130.90625 100.347656 57.75-30.476562 101.769531-64.214843 130.90625-100.347656 25.941406-32.167968 39.09375-64.804687 39.09375-97.007812 0-52.523438-33.316406-92.132813-77.5-92.132813-52.632812 0-79.625 40.925781-79.894531 41.339844-2.761719 4.285156-7.507813 6.871094-12.605469 6.871094-5.078125 0-9.808594-2.566407-12.574219-6.820313-1.179687-1.789062-27.902343-41.390625-79.925781-41.390625zm0 0" fill="#fff"/></svg>