<svg viewBox="0 0 512 512" xmlns="http://www.w3.org/2000/svg" xmlns:xlink="http://www.w3.org/1999/xlink"><linearGradient id="a" gradientTransform="matrix(1 0 0 -1 0 -19594)" gradientUnits="userSpaceOnUse" x1="0" x2="512" y1="-19850" y2="-19850"><stop offset="0" stop-color="#31d8ff"/><stop offset="1" stop-color="#ff80ff"/></linearGradient><path d="m512 256c0 141.386719-114.613281 256-256 256s-256-114.613281-256-256 114.613281-256 256-256 256 114.613281 256 256zm0 0" fill="url(#a)"/><g fill="#fff"><path d="m423.5 179.320312c0-16.929687-10.492188-31.441406-25.3125-37.40625v-38.414062c0-8.285156-6.714844-15-15-15s-15 6.714844-15 15v38.414062c-14.816406 5.964844-25.308594 20.480469-25.308594 37.40625 0 16.925782 10.488282 31.441407 25.308594 37.40625v191.773438c0 8.285156 6.714844 15 15 15s15-6.714844 15-15v-191.773438c14.820312-5.964843 25.3125-20.480468 25.3125-37.40625zm-50.621094 0c0-5.6875 4.625-10.3125 10.308594-10.3125 5.6875 0 10.3125 4.625 10.3125 10.3125 0 5.683594-4.625 10.3125-10.3125 10.3125-5.683594 0-10.308594-4.628906-10.308594-10.3125zm0 0"/><path d="m271 295.273438v-191.773438c0-8.285156-6.714844-15-15-15s-15 6.714844-15 15v191.773438c-14.820312 5.964843-25.3125 20.480468-25.3125 37.40625 0 16.929687 10.492188 31.441406 25.3125 37.40625v38.414062c0 8.285156 6.714844 15 15 15s15-6.714844 15-15v-38.414062c14.820312-5.964844 25.3125-20.480469 25.3125-37.40625 0-16.925782-10.492188-31.441407-25.3125-37.40625zm-25.3125 37.40625c0-5.683594 4.625-10.3125 10.3125-10.3125s10.3125 4.628906 10.3125 10.3125c0 5.6875-4.625 10.3125-10.3125 10.3125s-10.3125-4.625-10.3125-10.3125zm0 0"/><path d="m143.8125 141.914062v-38.414062c0-8.285156-6.714844-15-15-15s-15 6.714844-15 15v38.414062c-14.820312 5.964844-25.3125 20.476563-25.3125 37.40625 0 16.925782 10.492188 31.441407 25.3125 37.40625v191.773438c0 8.285156 6.714844 15 15 15s15-6.714844 15-15v-191.773438c14.816406-5.964843 25.308594-20.480468 25.308594-37.40625 0-16.929687-10.492188-31.441406-25.308594-37.40625zm-25.3125 37.40625c0-5.6875 4.625-10.3125 10.3125-10.3125 5.683594 0 10.308594 4.625 10.308594 10.3125 0 5.683594-4.625 10.3125-10.308594 10.3125-5.6875 0-10.3125-4.628906-10.3125-10.3125zm0 0"/></g></svg>