<svg viewBox="0 0 512 512" xmlns="http://www.w3.org/2000/svg" xmlns:xlink="http://www.w3.org/1999/xlink"><linearGradient id="a" gradientTransform="matrix(1 0 0 -1 0 -19594)" gradientUnits="userSpaceOnUse" x1="0" x2="512" y1="-19850" y2="-19850"><stop offset="0" stop-color="#31d8ff"/><stop offset="1" stop-color="#ff80ff"/></linearGradient><path d="m512 256c0 141.386719-114.613281 256-256 256s-256-114.613281-256-256 114.613281-256 256-256 256 114.613281 256 256zm0 0" fill="url(#a)"/><g fill="#fff"><path d="m256 381.527344c-2.964844 0-5.921875-.878906-8.460938-2.613282l-88.671874-60.578124h-87.867188c-8.285156 0-15-6.714844-15-15v-94.675782c0-8.285156 6.714844-15 15-15h87.867188l88.671874-60.578125c4.59375-3.136719 10.542969-3.476562 15.464844-.878906 4.917969 2.597656 7.996094 7.703125 7.996094 13.265625v221.058594c0 5.5625-3.078125 10.667968-7.996094 13.265625-2.199218 1.160156-4.605468 1.734375-7.003906 1.734375zm-170-93.191406h77.5c3.019531 0 5.96875.910156 8.460938 2.613281l69.039062 47.164062v-164.230469l-69.039062 47.164063c-2.492188 1.699219-5.441407 2.613281-8.460938 2.613281h-77.5zm0 0"/><path d="m376.730469 396.414062c-4.375 0-8.714844-1.90625-11.679688-5.578124-5.203125-6.449219-4.195312-15.894532 2.253907-21.09375 37.851562-30.546876 58.695312-70.941407 58.695312-113.753907 0-42.808593-20.847656-83.203125-58.695312-113.75-6.449219-5.199219-7.457032-14.644531-2.253907-21.089843 5.203125-6.449219 14.644531-7.457032 21.09375-2.253907 45.046875 36.351563 69.855469 85.039063 69.855469 137.09375 0 52.058594-24.808594 100.746094-69.855469 137.097657-2.777343 2.238281-6.105469 3.328124-9.414062 3.328124zm0 0"/><path d="m339.015625 365.980469c-4.378906 0-8.71875-1.910157-11.679687-5.582031-5.203126-6.449219-4.195313-15.890626 2.25-21.09375 27.792968-22.429688 43.101562-52.015626 43.101562-83.316407 0-31.296875-15.308594-60.886719-43.101562-83.3125-6.445313-5.203125-7.453126-14.644531-2.253907-21.09375 5.203125-6.445312 14.648438-7.453125 21.09375-2.253906 34.988281 28.234375 54.261719 66.113281 54.261719 106.660156s-19.269531 78.425781-54.261719 106.664063c-2.773437 2.238281-6.101562 3.328125-9.410156 3.328125zm0 0"/><path d="m301.300781 335.542969c-4.378906 0-8.722656-1.90625-11.683593-5.578125-5.203126-6.449219-4.195313-15.894532 2.253906-21.097656 17.769531-14.335938 27.554687-33.117188 27.554687-52.878907 0-19.757812-9.785156-38.539062-27.554687-52.878906-6.449219-5.203125-7.457032-14.644531-2.253906-21.09375 5.203124-6.445313 14.648437-7.453125 21.09375-2.253906 24.964843 20.148437 38.714843 47.21875 38.714843 76.226562 0 29.011719-13.75 56.082031-38.714843 76.230469-2.773438 2.234375-6.105469 3.324219-9.410157 3.324219zm0 0"/></g></svg>