<svg viewBox="0 0 512 512" xmlns="http://www.w3.org/2000/svg" xmlns:xlink="http://www.w3.org/1999/xlink"><linearGradient id="a" gradientTransform="matrix(1 0 0 -1 0 -19594)" gradientUnits="userSpaceOnUse" x1="0" x2="512" y1="-19850" y2="-19850"><stop offset="0" stop-color="#31d8ff"/><stop offset="1" stop-color="#ff80ff"/></linearGradient><path d="m512 256c0 141.386719-114.613281 256-256 256s-256-114.613281-256-256 114.613281-256 256-256 256 114.613281 256 256zm0 0" fill="url(#a)"/><g fill="#fff"><path d="m263.003906 131.882812c-4.917968-2.597656-10.871094-2.261718-15.464844.878907l-88.671874 60.574219h-87.867188c-8.285156 0-15 6.71875-15 15v94.679687c0 8.285156 6.714844 15 15 15h87.867188l88.671874 60.574219c2.539063 1.734375 5.496094 2.613281 8.460938 2.613281 2.398438 0 4.804688-.570313 7.003906-1.734375 4.917969-2.597656 7.996094-7.699219 7.996094-13.265625v-221.058594c0-5.5625-3.078125-10.667969-7.996094-13.261719zm-22.003906 205.910157-69.039062-47.164063c-2.492188-1.703125-5.441407-2.613281-8.460938-2.613281h-77.5v-64.679687h77.5c3.019531 0 5.96875-.910157 8.460938-2.613282l69.039062-47.164062zm0 0"/><path d="m392.140625 255.675781 59.578125-60.839843c5.792969-5.917969 5.695312-15.414063-.226562-21.210938-5.917969-5.796875-15.414063-5.699219-21.210938.222656l-59.136719 60.390625-59.136719-60.390625c-5.796874-5.921875-15.292968-6.019531-21.210937-.222656s-6.019531 15.292969-.222656 21.210938l59.574219 60.839843-59.574219 60.839844c-5.796875 5.917969-5.695313 15.417969.222656 21.210937 2.917969 2.859376 6.707031 4.285157 10.492187 4.285157 3.894532 0 7.78125-1.503907 10.71875-4.503907l59.136719-60.394531 59.136719 60.394531c2.9375 3 6.828125 4.503907 10.71875 4.503907 3.785156 0 7.574219-1.425781 10.492188-4.285157 5.921874-5.792968 6.019531-15.292968.226562-21.210937zm0 0"/></g></svg>