<svg viewBox="0 0 512 512" xmlns="http://www.w3.org/2000/svg" xmlns:xlink="http://www.w3.org/1999/xlink"><linearGradient id="a" gradientTransform="matrix(1 0 0 -1 0 -19594)" gradientUnits="userSpaceOnUse" x1="0" x2="512" y1="-19850" y2="-19850"><stop offset="0" stop-color="#31d8ff"/><stop offset="1" stop-color="#ff80ff"/></linearGradient><path d="m512 256c0 141.386719-114.613281 256-256 256s-256-114.613281-256-256 114.613281-256 256-256 256 114.613281 256 256zm0 0" fill="url(#a)"/><g fill="#fff"><path d="m164.777344 420.5h-63.277344c-8.285156 0-15-6.714844-15-15v-115.164062c0-8.285157 6.714844-15 15-15h63.277344c8.285156 0 15 6.714843 15 15v115.164062c0 8.285156-6.714844 15-15 15zm-48.277344-30h33.277344v-85.164062h-33.277344zm0 0"/><path d="m406.5 420.5h-63.277344c-8.285156 0-15-6.714844-15-15v-305c0-8.285156 6.714844-15 15-15h63.277344c8.285156 0 15 6.714844 15 15v305c0 8.285156-6.714844 15-15 15zm-48.277344-30h33.277344v-275h-33.277344zm0 0"/><path d="m285.640625 420.5h-63.28125c-8.28125 0-15-6.714844-15-15v-210.082031c0-8.285157 6.71875-15 15-15h63.28125c8.28125 0 15 6.714843 15 15v210.082031c0 8.285156-6.71875 15-15 15zm-48.28125-30h33.28125v-180.082031h-33.28125zm0 0"/></g></svg>