<svg viewBox="0 0 512 512" xmlns="http://www.w3.org/2000/svg" xmlns:xlink="http://www.w3.org/1999/xlink"><linearGradient id="a" gradientTransform="matrix(1 0 0 -1 0 -18530)" gradientUnits="userSpaceOnUse" x1="0" x2="512" y1="-18786" y2="-18786"><stop offset="0" stop-color="#31d8ff"/><stop offset="1" stop-color="#ff80ff"/></linearGradient><path d="m512 256c0 141.386719-114.613281 256-256 256s-256-114.613281-256-256 114.613281-256 256-256 256 114.613281 256 256zm0 0" fill="url(#a)"/><g fill="#fff"><path d="m256.980469 455.65625c-97.316407 0-176.484375-79.167969-176.484375-176.480469 0-36.441406 11.015625-71.421875 31.855468-101.167969 20.363282-29.058593 48.578126-51.097656 81.597657-63.722656 7.738281-2.960937 16.40625.910156 19.367187 8.648438 2.960938 7.738281-.914062 16.410156-8.652344 19.371094-56.324218 21.542968-94.167968 76.546874-94.167968 136.871093 0 80.769531 65.710937 146.480469 146.484375 146.480469 80.769531 0 146.480469-65.710938 146.480469-146.480469 0-60.328125-37.847657-115.332031-94.175782-136.871093-7.734375-2.960938-11.609375-11.632813-8.648437-19.371094 2.957031-7.734375 11.625-11.609375 19.367187-8.652344 33.019532 12.628906 61.234375 34.664062 81.597656 63.726562 20.84375 29.742188 31.859376 64.726563 31.859376 101.167969 0 97.3125-79.171876 176.480469-176.480469 176.480469zm0 0"/><path d="m256.980469 239.183594c-8.285157 0-15-6.714844-15-15v-153.527344c0-8.285156 6.714843-15 15-15 8.28125 0 15 6.714844 15 15v153.527344c0 8.285156-6.71875 15-15 15zm0 0"/></g></svg>