<svg viewBox="0 0 512 512" xmlns="http://www.w3.org/2000/svg" xmlns:xlink="http://www.w3.org/1999/xlink"><linearGradient id="a" gradientTransform="matrix(1 0 0 -1 0 -18530)" gradientUnits="userSpaceOnUse" x1="0" x2="512" y1="-18786" y2="-18786"><stop offset="0" stop-color="#31d8ff"/><stop offset="1" stop-color="#ff80ff"/></linearGradient><path d="m512 256c0 141.386719-114.613281 256-256 256s-256-114.613281-256-256 114.613281-256 256-256 256 114.613281 256 256zm0 0" fill="url(#a)"/><g fill="#fff"><path d="m416 271h-240.308594c-8.285156 0-15-6.714844-15-15s6.714844-15 15-15h240.308594c8.285156 0 15 6.714844 15 15s-6.714844 15-15 15zm0 0"/><path d="m416 167.34375h-240.308594c-8.285156 0-15-6.71875-15-15 0-8.285156 6.714844-15 15-15h240.308594c8.285156 0 15 6.714844 15 15 0 8.28125-6.714844 15-15 15zm0 0"/><path d="m416 374.65625h-240.308594c-8.285156 0-15-6.714844-15-15 0-8.28125 6.714844-15 15-15h240.308594c8.285156 0 15 6.71875 15 15 0 8.285156-6.714844 15-15 15zm0 0"/><path d="m113.316406 152.339844c0 10.304687-8.351562 18.660156-18.65625 18.660156-10.304687 0-18.660156-8.355469-18.660156-18.660156 0-10.304688 8.355469-18.65625 18.660156-18.65625 10.304688 0 18.65625 8.351562 18.65625 18.65625zm0 0"/><path d="m113.316406 256c0 10.304688-8.351562 18.660156-18.65625 18.660156-10.304687 0-18.660156-8.355468-18.660156-18.660156s8.355469-18.660156 18.660156-18.660156c10.304688 0 18.65625 8.355468 18.65625 18.660156zm0 0"/><path d="m113.316406 359.660156c0 10.304688-8.351562 18.65625-18.65625 18.65625-10.304687 0-18.660156-8.351562-18.660156-18.65625 0-10.304687 8.355469-18.660156 18.660156-18.660156 10.304688 0 18.65625 8.355469 18.65625 18.660156zm0 0"/></g></svg>