<svg viewBox="0 0 512 512" xmlns="http://www.w3.org/2000/svg" xmlns:xlink="http://www.w3.org/1999/xlink"><linearGradient id="a" gradientTransform="matrix(1 0 0 -1 0 -18530)" gradientUnits="userSpaceOnUse" x1="0" x2="512" y1="-18786" y2="-18786"><stop offset="0" stop-color="#31d8ff"/><stop offset="1" stop-color="#ff80ff"/></linearGradient><path d="m512 256c0 141.386719-114.613281 256-256 256s-256-114.613281-256-256 114.613281-256 256-256 256 114.613281 256 256zm0 0" fill="url(#a)"/><g fill="#fff"><path d="m256 464c-1.878906 0-3.753906-.351562-5.53125-1.054688-1.710938-.679687-42.375-17.070312-83.214844-56.042968-24.0625-22.960938-43.253906-49.074219-57.042968-77.613282-17.246094-35.691406-25.992188-75.171874-25.992188-117.335937v-77.628906c0-6.359375 4.011719-12.03125 10.011719-14.148438l156.777343-55.320312c3.230469-1.140625 6.753907-1.140625 9.984376 0l156.777343 55.320312c6 2.117188 10.007813 7.785157 10.007813 14.148438v77.628906c0 42.164063-8.742188 81.644531-25.988282 117.335937-13.789062 28.539063-32.980468 54.652344-57.042968 77.613282-40.839844 38.972656-81.503906 55.363281-83.214844 56.042968-1.777344.703126-3.652344 1.054688-5.53125 1.054688zm-141.78125-319.0625v67.015625c0 67.863281 24.542969 125.894531 72.9375 172.472656 28.320312 27.257813 57.0625 42.535157 68.84375 48.144531 11.769531-5.601562 40.519531-20.878906 68.84375-48.144531 48.394531-46.578125 72.9375-104.605469 72.9375-172.472656v-67.015625l-141.78125-50.03125zm0 0"/><path d="m256.023438 375.542969c-3.03125 0-6.0625-.914063-8.660157-2.75-55.445312-39.191407-84.753906-94.8125-84.753906-160.839844v-23.695313c0-6.359374 4.011719-12.03125 10.011719-14.148437l78.390625-27.660156c3.226562-1.140625 6.75-1.136719 9.980469 0l78.390624 27.660156c5.996094 2.117187 10.007813 7.785156 10.007813 14.148437v23.695313c0 65.929687-29.285156 121.539063-84.691406 160.828125-2.597657 1.839844-5.636719 2.761719-8.675781 2.761719zm-63.414063-176.671875v13.082031c0 53.132813 21.320313 96.773437 63.402344 129.878906 42.066406-33.179687 63.378906-76.820312 63.378906-129.878906v-13.082031l-63.390625-22.367188zm0 0"/></g></svg>