<svg viewBox="0 0 512 512" xmlns="http://www.w3.org/2000/svg" xmlns:xlink="http://www.w3.org/1999/xlink"><linearGradient id="a" gradientTransform="matrix(1 0 0 -1 0 -18530)" gradientUnits="userSpaceOnUse" x1="0" x2="512" y1="-18786" y2="-18786"><stop offset="0" stop-color="#31d8ff"/><stop offset="1" stop-color="#ff80ff"/></linearGradient><path d="m512 256c0 141.386719-114.613281 256-256 256s-256-114.613281-256-256 114.613281-256 256-256 256 114.613281 256 256zm0 0" fill="url(#a)"/><path d="m405.675781 124.746094h-299.351562c-20.292969 0-36.800781 16.507812-36.800781 36.796875v188.914062c0 20.289063 16.507812 36.796875 36.800781 36.796875h299.351562c20.292969 0 36.800781-16.507812 36.800781-36.796875v-188.914062c0-20.289063-16.507812-36.796875-36.800781-36.796875zm-299.351562 30h299.351562c3.75 0 6.800781 3.050781 6.800781 6.796875v14.0625h-312.953124v-14.0625c0-3.746094 3.050781-6.796875 6.800781-6.796875zm306.152343 93.519531h-312.953124v-42.65625h312.953124zm-6.800781 108.988281h-299.351562c-3.75 0-6.800781-3.050781-6.800781-6.796875v-72.191406h312.953124v72.191406c0 3.746094-3.050781 6.796875-6.800781 6.796875zm0 0" fill="#fff"/></svg>