<svg viewBox="0 0 512 512" xmlns="http://www.w3.org/2000/svg" xmlns:xlink="http://www.w3.org/1999/xlink"><linearGradient id="a" gradientTransform="matrix(1 0 0 -1 0 -17466)" gradientUnits="userSpaceOnUse" x1="0" x2="512" y1="-17722" y2="-17722"><stop offset="0" stop-color="#31d8ff"/><stop offset="1" stop-color="#ff80ff"/></linearGradient><path d="m512 256c0 141.386719-114.613281 256-256 256s-256-114.613281-256-256 114.613281-256 256-256 256 114.613281 256 256zm0 0" fill="url(#a)"/><g fill="#fff"><path d="m276.671875 256c0 11.417969-9.253906 20.671875-20.671875 20.671875s-20.671875-9.253906-20.671875-20.671875 9.253906-20.671875 20.671875-20.671875 20.671875 9.253906 20.671875 20.671875zm0 0"/><path d="m101.34375 256c0 11.417969-9.253906 20.671875-20.671875 20.671875s-20.671875-9.253906-20.671875-20.671875 9.253906-20.671875 20.671875-20.671875 20.671875 9.253906 20.671875 20.671875zm0 0"/><path d="m452 256c0 11.417969-9.253906 20.671875-20.671875 20.671875s-20.671875-9.253906-20.671875-20.671875 9.253906-20.671875 20.671875-20.671875 20.671875 9.253906 20.671875 20.671875zm0 0"/></g></svg>