<svg viewBox="0 0 512 512" xmlns="http://www.w3.org/2000/svg" xmlns:xlink="http://www.w3.org/1999/xlink"><linearGradient id="a" gradientTransform="matrix(1 0 0 -1 0 -6826)" gradientUnits="userSpaceOnUse" x1="0" x2="512" y1="-7082" y2="-7082"><stop offset="0" stop-color="#31d8ff"/><stop offset="1" stop-color="#ff80ff"/></linearGradient><path d="m512 256c0 141.386719-114.613281 256-256 256s-256-114.613281-256-256 114.613281-256 256-256 256 114.613281 256 256zm0 0" fill="url(#a)"/><path d="m406.105469 383.890625-92-92c18.921875-23.632813 29.203125-52.769531 29.203125-83.488281 0-35.765625-13.929688-69.390625-39.21875-94.683594-25.292969-25.292969-58.917969-39.222656-94.6875-39.222656-35.765625 0-69.394532 13.929687-94.683594 39.222656-25.292969 25.292969-39.222656 58.917969-39.222656 94.683594 0 35.769531 13.929687 69.394531 39.222656 94.6875 25.292969 25.292968 58.917969 39.21875 94.683594 39.21875 30.71875 0 59.851562-10.28125 83.488281-29.203125l92 92c2.929687 2.929687 6.769531 4.394531 10.605469 4.394531 3.839844 0 7.679687-1.464844 10.605468-4.394531 5.863282-5.859375 5.863282-15.355469.003907-21.214844zm-270.171875-102.011719c-19.625-19.625-30.433594-45.71875-30.433594-73.472656s10.808594-53.847656 30.433594-73.472656 45.714844-30.433594 73.46875-30.433594 53.847656 10.808594 73.476562 30.433594c40.511719 40.511718 40.511719 106.429687 0 146.945312-40.515625 40.511719-106.433594 40.511719-146.945312 0zm0 0" fill="#fff"/></svg>