<svg viewBox="0 0 512 512" xmlns="http://www.w3.org/2000/svg" xmlns:xlink="http://www.w3.org/1999/xlink"><linearGradient id="a" gradientTransform="matrix(1 0 0 -1 0 -17466)" gradientUnits="userSpaceOnUse" x1="0" x2="512" y1="-17722" y2="-17722"><stop offset="0" stop-color="#31d8ff"/><stop offset="1" stop-color="#ff80ff"/></linearGradient><path d="m512 256c0 141.386719-114.613281 256-256 256s-256-114.613281-256-256 114.613281-256 256-256 256 114.613281 256 256zm0 0" fill="url(#a)"/><g fill="#fff"><path d="m347.085938 352.515625c-8.285157 0-15 6.71875-15 15v37.324219c0 3.394531-2.941407 6.160156-6.558594 6.160156h-172.4375c-3.613282 0-6.554688-2.765625-6.554688-6.160156v-297.679688c0-3.394531 2.941406-6.160156 6.554688-6.160156h172.4375c3.617187 0 6.558594 2.765625 6.558594 6.160156v37.324219c0 8.28125 6.714843 15 15 15 8.28125 0 15-6.71875 15-15v-37.324219c0-19.9375-16.398438-36.160156-36.558594-36.160156h-172.4375c-20.15625 0-36.554688 16.222656-36.554688 36.160156v297.679688c0 19.9375 16.398438 36.160156 36.554688 36.160156h172.4375c20.15625 0 36.558594-16.222656 36.558594-36.160156v-37.324219c0-8.285156-6.71875-15-15-15zm0 0"/><path d="m423.613281 266.011719c.128907-.144531.265625-.277344.386719-.421875.242188-.292969.464844-.597656.683594-.90625.0625-.089844.132812-.171875.195312-.257813 1.363282-2.011719 2.257813-4.367187 2.511719-6.914062.050781-.5.078125-1.003907.078125-1.511719s-.027344-1.011719-.078125-1.511719c-.253906-2.546875-1.148437-4.902343-2.511719-6.914062-.0625-.089844-.132812-.171875-.199218-.261719-.21875-.304688-.4375-.613281-.679688-.902344-.121094-.144531-.257812-.277344-.382812-.421875-.203126-.222656-.398438-.449219-.613282-.660156-.023437-.019531-.039062-.046875-.0625-.066406l-76.675781-74.773438c-5.929687-5.785156-15.429687-5.664062-21.210937.269531-5.785157 5.929688-5.664063 15.425782.265624 21.210938l50.28125 49.03125h-136.292968c-8.28125 0-15 6.714844-15 15s6.71875 15 15 15h136.292968l-50.28125 49.03125c-5.929687 5.785156-6.050781 15.28125-.265624 21.210938 2.9375 3.015624 6.835937 4.527343 10.738281 4.527343 3.773437 0 7.554687-1.414062 10.472656-4.257812l76.675781-74.773438c.023438-.019531.039063-.046875.0625-.070312.214844-.207031.410156-.433594.609375-.65625zm0 0"/></g></svg>