<svg viewBox="0 0 512 512" xmlns="http://www.w3.org/2000/svg" xmlns:xlink="http://www.w3.org/1999/xlink"><linearGradient id="a" gradientTransform="matrix(1 0 0 -1 0 -17466)" gradientUnits="userSpaceOnUse" x1="0" x2="512" y1="-17722" y2="-17722"><stop offset="0" stop-color="#31d8ff"/><stop offset="1" stop-color="#ff80ff"/></linearGradient><path d="m512 256c0 141.386719-114.613281 256-256 256s-256-114.613281-256-256 114.613281-256 256-256 256 114.613281 256 256zm0 0" fill="url(#a)"/><g fill="#fff"><path d="m416.46875 241h-136.292969l50.28125-49.03125c5.929688-5.785156 6.050781-15.28125.265625-21.210938-5.78125-5.933593-15.277344-6.050781-21.210937-.269531l-76.675781 74.773438c-.023438.019531-.039063.046875-.0625.066406-.214844.210937-.410157.4375-.613282.660156-.125.144531-.261718.277344-.382812.421875-.242188.289063-.460938.597656-.679688.902344-.066406.089844-.136718.171875-.199218.261719-1.367188 2.011719-2.257813 4.371093-2.511719 6.914062-.050781.5-.078125 1.003907-.078125 1.511719s.027344 1.011719.078125 1.511719c.253906 2.546875 1.144531 4.902343 2.511719 6.914062.0625.089844.132812.171875.195312.257813.21875.308594.441406.613281.683594.90625.121094.144531.257812.277344.382812.421875.203125.222656.398438.449219.613282.660156.023437.019531.042968.046875.066406.066406l76.671875 74.773438c2.917969 2.84375 6.695312 4.261719 10.472656 4.261719 3.902344 0 7.800781-1.515626 10.742187-4.527344 5.78125-5.933594 5.664063-15.429688-.269531-21.214844l-50.28125-49.03125h136.292969c8.285156 0 15-6.714844 15-15s-6.714844-15-15-15zm0 0"/><path d="m351.085938 352.515625c-8.285157 0-15 6.71875-15 15v37.324219c0 3.394531-2.941407 6.160156-6.558594 6.160156h-172.4375c-3.613282 0-6.554688-2.765625-6.554688-6.160156v-297.679688c0-3.394531 2.941406-6.160156 6.554688-6.160156h172.4375c3.617187 0 6.558594 2.765625 6.558594 6.160156v37.324219c0 8.28125 6.714843 15 15 15 8.28125 0 15-6.71875 15-15v-37.324219c0-19.9375-16.398438-36.160156-36.558594-36.160156h-172.4375c-20.15625 0-36.554688 16.222656-36.554688 36.160156v297.679688c0 19.9375 16.398438 36.160156 36.554688 36.160156h172.4375c20.15625 0 36.558594-16.222656 36.558594-36.160156v-37.324219c0-8.285156-6.71875-15-15-15zm0 0"/></g></svg>