<svg viewBox="0 0 512 512" xmlns="http://www.w3.org/2000/svg" xmlns:xlink="http://www.w3.org/1999/xlink"><linearGradient id="a" gradientTransform="matrix(1 0 0 -1 0 -17466)" gradientUnits="userSpaceOnUse" x1="0" x2="512" y1="-17722" y2="-17722"><stop offset="0" stop-color="#31d8ff"/><stop offset="1" stop-color="#ff80ff"/></linearGradient><path d="m512 256c0 141.386719-114.613281 256-256 256s-256-114.613281-256-256 114.613281-256 256-256 256 114.613281 256 256zm0 0" fill="url(#a)"/><g fill="#fff"><path d="m168.890625 456c-2.039063 0-4.085937-.414062-6.027344-1.265625-5.449219-2.390625-8.96875-7.78125-8.96875-13.734375v-80.941406c-43.78125-31.761719-69.671875-81.835938-69.671875-135.53125-.003906-92.925782 77.058594-168.527344 171.777344-168.527344s171.78125 75.601562 171.78125 168.527344c0 92.925781-77.0625 168.527344-171.78125 168.527344-4.078125 0-8.210938-.148438-12.347656-.4375l-64.605469 59.421874c-2.824219 2.597657-6.464844 3.960938-10.15625 3.960938zm87.109375-370c-78.179688 0-141.78125 62.144531-141.78125 138.527344 0 46.261718 23.515625 89.296875 62.898438 115.117187 4.226562 2.769531 6.773437 7.488281 6.773437 12.542969v54.636719l44.335937-40.78125c3.1875-2.929688 7.480469-4.34375 11.785157-3.871094 5.34375.585937 10.722656.882813 15.988281.882813 78.175781 0 141.777344-62.144532 141.777344-138.527344 0-76.382813-63.597656-138.527344-141.777344-138.527344zm0 0"/><path d="m248.160156 264.46875c-8.28125 0-15-6.714844-15-15v-22.570312c0-8.28125 6.71875-15 15-15h15.679688c13.339844 0 24.195312-10.851563 24.195312-24.191407 0-13.34375-10.855468-24.195312-24.195312-24.195312h-54.875c-8.28125 0-15-6.714844-15-15 0-8.285157 6.71875-15 15-15h54.875c29.882812 0 54.195312 24.3125 54.195312 54.195312 0 29.882813-24.3125 54.191407-54.195312 54.191407h-.679688v7.570312c0 8.285156-6.714844 15-15 15zm0 0"/><path d="m269.324219 305.511719c0 11.6875-9.472657 21.164062-21.164063 21.164062-11.6875 0-21.164062-9.476562-21.164062-21.164062 0-11.691407 9.476562-21.164063 21.164062-21.164063 11.691406 0 21.164063 9.472656 21.164063 21.164063zm0 0"/></g></svg>