<svg viewBox="0 0 512 512" xmlns="http://www.w3.org/2000/svg" xmlns:xlink="http://www.w3.org/1999/xlink"><linearGradient id="a" gradientTransform="matrix(1 0 0 -1 0 -17466)" gradientUnits="userSpaceOnUse" x1="0" x2="512" y1="-17722" y2="-17722"><stop offset="0" stop-color="#31d8ff"/><stop offset="1" stop-color="#ff80ff"/></linearGradient><path d="m512 256c0 141.386719-114.613281 256-256 256s-256-114.613281-256-256 114.613281-256 256-256 256 114.613281 256 256zm0 0" fill="url(#a)"/><path d="m419.105469 182.382812-89.488281-89.488281c-2.8125-2.8125-6.628907-4.394531-10.605469-4.394531h-215.511719c-8.285156 0-15 6.714844-15 15v305c0 8.285156 6.714844 15 15 15h305c8.285156 0 15-6.714844 15-15v-215.511719c0-3.976562-1.582031-7.792969-4.394531-10.605469zm-243.023438 211.117188v-122.5h159.835938v122.5zm217.417969 0h-27.582031v-137.5c0-8.285156-6.71875-15-15-15h-189.835938c-8.28125 0-15 6.714844-15 15v137.5h-27.582031v-275h194.296875l80.703125 80.699219zm0 0" fill="#fff"/></svg>