<svg viewBox="0 0 512 512" xmlns="http://www.w3.org/2000/svg" xmlns:xlink="http://www.w3.org/1999/xlink"><linearGradient id="a" gradientTransform="matrix(1 0 0 -1 0 -16402)" gradientUnits="userSpaceOnUse" x1="0" x2="512" y1="-16658" y2="-16658"><stop offset="0" stop-color="#31d8ff"/><stop offset="1" stop-color="#ff80ff"/></linearGradient><path d="m512 256c0 141.386719-114.613281 256-256 256s-256-114.613281-256-256 114.613281-256 256-256 256 114.613281 256 256zm0 0" fill="url(#a)"/><g fill="#fff"><path d="m350 156.148438h-188c-8.285156 0-15 6.714843-15 15v96.871093c0 8.285157 6.714844 15 15 15h188c8.285156 0 15-6.714843 15-15v-96.871093c0-8.285157-6.714844-15-15-15zm-15 96.871093h-158v-66.871093h158zm0 0"/><path d="m426 298.230469h-13.921875v-150.679688c0-20.1875-16.421875-36.609375-36.609375-36.609375h-238.9375c-20.1875 0-36.609375 16.421875-36.609375 36.609375v150.679688h-13.921875c-8.285156 0-15 6.714843-15 15v43.21875c0 20.1875 16.421875 36.609375 36.609375 36.609375h296.78125c20.1875 0 36.609375-16.421875 36.609375-36.609375v-43.21875c0-8.285157-6.714844-15-15-15zm-296.078125-150.679688c0-3.644531 2.964844-6.609375 6.609375-6.609375h238.9375c3.644531 0 6.609375 2.964844 6.609375 6.609375v150.679688h-252.15625zm281.078125 208.898438c0 3.644531-2.964844 6.609375-6.609375 6.609375h-296.78125c-3.644531 0-6.609375-2.964844-6.609375-6.609375v-28.222657h310zm0 0"/></g></svg>