<svg viewBox="0 0 512 512" xmlns="http://www.w3.org/2000/svg" xmlns:xlink="http://www.w3.org/1999/xlink"><linearGradient id="a" gradientTransform="matrix(1 0 0 -1 0 -16402)" gradientUnits="userSpaceOnUse" x1="0" x2="512" y1="-16658" y2="-16658"><stop offset="0" stop-color="#31d8ff"/><stop offset="1" stop-color="#ff80ff"/></linearGradient><path d="m512 256c0 141.386719-114.613281 256-256 256s-256-114.613281-256-256 114.613281-256 256-256 256 114.613281 256 256zm0 0" fill="url(#a)"/><g fill="#fff"><path d="m364.050781 441h-216.101562c-20.1875 0-36.609375-16.421875-36.609375-36.609375v-296.78125c0-20.1875 16.421875-36.609375 36.609375-36.609375h216.101562c20.1875 0 36.609375 16.421875 36.609375 36.609375v296.78125c0 20.1875-16.421875 36.609375-36.609375 36.609375zm-216.101562-340c-3.644531 0-6.609375 2.964844-6.609375 6.609375v296.78125c0 3.644531 2.964844 6.609375 6.609375 6.609375h216.101562c3.644531 0 6.609375-2.964844 6.609375-6.609375v-296.78125c0-3.644531-2.964844-6.609375-6.609375-6.609375zm0 0"/><path d="m337.847656 355.917969h-163.695312c-8.28125 0-15-6.71875-15-15v-205.917969c0-8.285156 6.71875-15 15-15h163.691406c8.285156 0 15 6.714844 15 15v205.917969c.003906 8.28125-6.714844 15-14.996094 15zm-148.695312-30h133.691406v-175.917969h-133.691406zm0 0"/><path d="m270.40625 401.347656h-28.8125c-8.285156 0-15-6.714844-15-15 0-8.28125 6.714844-15 15-15h28.8125c8.285156 0 15 6.71875 15 15 0 8.285156-6.714844 15-15 15zm0 0"/></g></svg>