<svg viewBox="0 0 512 512" xmlns="http://www.w3.org/2000/svg" xmlns:xlink="http://www.w3.org/1999/xlink"><linearGradient id="a" gradientTransform="matrix(1 0 0 -1 0 -16402)" gradientUnits="userSpaceOnUse" x1="0" x2="512" y1="-16658" y2="-16658"><stop offset="0" stop-color="#31d8ff"/><stop offset="1" stop-color="#ff80ff"/></linearGradient><path d="m512 256c0 141.386719-114.613281 256-256 256s-256-114.613281-256-256 114.613281-256 256-256 256 114.613281 256 256zm0 0" fill="url(#a)"/><g fill="#fff"><path d="m342.441406 441h-172.882812c-20.1875 0-36.609375-16.421875-36.609375-36.609375v-296.78125c0-20.1875 16.421875-36.609375 36.609375-36.609375h172.882812c20.1875 0 36.609375 16.421875 36.609375 36.609375v296.78125c0 20.1875-16.421875 36.609375-36.609375 36.609375zm-172.882812-340c-3.644532 0-6.609375 2.964844-6.609375 6.609375v296.78125c0 3.644531 2.964843 6.609375 6.609375 6.609375h172.882812c3.644532 0 6.609375-2.964844 6.609375-6.609375v-296.78125c0-3.644531-2.964843-6.609375-6.609375-6.609375zm0 0"/><path d="m315.398438 352.585938h-118.796876c-8.28125 0-15-6.71875-15-15v-199.253907c0-8.28125 6.71875-15 15-15h118.796876c8.285156 0 15 6.71875 15 15v199.253907c0 8.28125-6.714844 15-15 15zm-103.796876-30h88.796876v-169.253907h-88.796876zm0 0"/><path d="m270.40625 401.347656h-28.8125c-8.285156 0-15-6.714844-15-15 0-8.28125 6.714844-15 15-15h28.8125c8.285156 0 15 6.71875 15 15 0 8.285156-6.714844 15-15 15zm0 0"/></g></svg>