<svg viewBox="0 0 512 512" xmlns="http://www.w3.org/2000/svg" xmlns:xlink="http://www.w3.org/1999/xlink"><linearGradient id="a" gradientTransform="matrix(1 0 0 -1 0 -16402)" gradientUnits="userSpaceOnUse" x1="0" x2="512" y1="-16658" y2="-16658"><stop offset="0" stop-color="#31d8ff"/><stop offset="1" stop-color="#ff80ff"/></linearGradient><path d="m512 256c0 141.386719-114.613281 256-256 256s-256-114.613281-256-256 114.613281-256 256-256 256 114.613281 256 256zm0 0" fill="url(#a)"/><path d="m318.035156 192.847656v-74.8125c0-34.207031-27.828125-62.035156-62.035156-62.035156s-62.035156 27.828125-62.035156 62.035156v74.8125c0 29.03125 20.054687 53.460938 47.03125 60.1875v5.929688c-26.976563 6.726562-47.03125 31.15625-47.03125 60.1875v74.8125c0 34.207031 27.828125 62.035156 62.035156 62.035156s62.035156-27.828125 62.035156-62.035156v-74.8125c0-29.035156-20.054687-53.464844-47.039062-60.1875v-5.929688c26.984375-6.722656 47.039062-31.152344 47.039062-60.1875zm-94.070312 0v-74.8125c0-17.664062 14.371094-32.035156 32.035156-32.035156s32.035156 14.371094 32.035156 32.035156v74.8125c0 12.246094-6.914062 22.90625-17.039062 28.292969v-22.710937c0-8.285157-6.714844-15-15-15-8.28125 0-15 6.714843-15 15v22.710937c-10.121094-5.390625-17.03125-16.050781-17.03125-28.292969zm64.070312 126.304688v74.8125c0 17.664062-14.371094 32.035156-32.035156 32.035156s-32.035156-14.371094-32.035156-32.035156v-74.8125c0-12.246094 6.910156-22.902344 17.03125-28.292969v22.710937c0 8.285157 6.71875 15 15 15 8.285156 0 15-6.714843 15-15v-22.710937c10.125 5.386719 17.039062 16.046875 17.039062 28.292969zm0 0" fill="#fff"/></svg>