<svg viewBox="0 0 512 512" xmlns="http://www.w3.org/2000/svg" xmlns:xlink="http://www.w3.org/1999/xlink"><linearGradient id="a" gradientTransform="matrix(1 0 0 -1 0 -16402)" gradientUnits="userSpaceOnUse" x1="0" x2="512" y1="-16658" y2="-16658"><stop offset="0" stop-color="#31d8ff"/><stop offset="1" stop-color="#ff80ff"/></linearGradient><path d="m512 256c0 141.386719-114.613281 256-256 256s-256-114.613281-256-256 114.613281-256 256-256 256 114.613281 256 256zm0 0" fill="url(#a)"/><path d="m432.097656 350.738281c.496094-.757812.925782-1.570312 1.285156-2.433593 14.4375-27.632813 22.617188-59.027344 22.617188-92.304688s-8.179688-64.675781-22.617188-92.304688c-.359374-.863281-.789062-1.671874-1.28125-2.429687-25.621093-47.4375-69.851562-83.398437-122.84375-98.054687-.609374-.207032-1.234374-.378907-1.867187-.507813-16.40625-4.363281-33.628906-6.703125-51.390625-6.703125s-34.984375 2.339844-51.390625 6.703125c-.632813.128906-1.253906.300781-1.863281.507813-52.996094 14.65625-97.230469 50.625-122.851563 98.066406-.488281.75-.914062 1.550781-1.269531 2.40625-14.441406 27.632812-22.625 59.035156-22.625 92.316406 0 33.25 8.164062 64.621094 22.582031 92.238281.375.917969.832031 1.78125 1.363281 2.582031 25.617188 47.375 69.808594 83.296876 122.742188 97.953126.621094.210937 1.25.382812 1.894531.511718 16.414063 4.371094 33.648438 6.714844 51.417969 6.714844 17.773438 0 35.011719-2.34375 51.429688-6.714844.632812-.128906 1.257812-.300781 1.871093-.507812 52.96875-14.664063 97.179688-50.617188 122.796875-98.039063zm-103.289062 58.859375c5.894531-20.699218 10.523437-44.039062 13.730468-69.066406 19.410157 2.695312 37.621094 6.3125 54.15625 10.785156-16.96875 24.96875-40.410156 45.203125-67.886718 58.28125zm-242.808594-153.597656c0-24.300781 5.136719-47.425781 14.363281-68.351562 19.886719 5.800781 42.164063 10.386718 66.019531 13.65625-1.410156 17.742187-2.144531 36.070312-2.144531 54.695312s.734375 36.953125 2.144531 54.695312c-23.855468 3.269532-46.132812 7.859376-66.019531 13.65625-9.226562-20.925781-14.363281-44.050781-14.363281-68.351562zm108.234375 0c0-17.53125.671875-34.746094 1.957031-51.371094 19.3125 1.679688 39.367188 2.550782 59.808594 2.550782s40.496094-.871094 59.804688-2.550782c1.285156 16.625 1.957031 33.839844 1.957031 51.371094s-.671875 34.746094-1.957031 51.371094c-19.308594-1.679688-39.363282-2.550782-59.804688-2.550782-20.445312 0-40.5.871094-59.808594 2.550782-1.285156-16.625-1.957031-33.839844-1.957031-51.371094zm151.382813-54.695312c23.855468-3.269532 46.132812-7.855469 66.019531-13.65625 9.226562 20.929687 14.363281 44.050781 14.363281 68.351562s-5.136719 47.421875-14.363281 68.351562c-19.886719-5.800781-42.164063-10.386718-66.019531-13.65625 1.410156-17.742187 2.144531-36.070312 2.144531-54.695312.003906-18.625-.734375-36.953125-2.144531-54.695312zm51.078124-40.621094c-16.539062 4.472656-34.746093 8.089844-54.15625 10.785156-3.207031-25.027344-7.839843-48.367188-13.730468-69.066406 27.476562 13.078125 50.917968 33.3125 67.886718 58.28125zm-103.375-70.546875c8.691407 23.464843 15.292969 52.472656 19.429688 84.65625-18.277344 1.570312-37.308594 2.386719-56.75 2.386719-19.445312 0-38.472656-.816407-56.753906-2.386719 4.140625-32.183594 10.738281-61.191407 19.433594-84.65625 12.015624-2.703125 24.503906-4.136719 37.320312-4.136719s25.304688 1.433594 37.320312 4.136719zm-110.128906 12.265625c-5.894531 20.699218-10.523437 44.039062-13.730468 69.066406-19.410157-2.695312-37.621094-6.3125-54.15625-10.785156 16.96875-24.96875 40.410156-45.203125 67.886718-58.28125zm-67.886718 248.914062c16.539062-4.472656 34.746093-8.089844 54.15625-10.785156 3.207031 25.027344 7.839843 48.367188 13.730468 69.066406-27.476562-13.078125-50.917968-33.3125-67.886718-58.28125zm103.375 70.546875c-8.691407-23.464843-15.292969-52.472656-19.429688-84.65625 18.277344-1.570312 37.308594-2.386719 56.75-2.386719 19.445312 0 38.472656.816407 56.753906 2.386719-4.136718 32.183594-10.738281 61.191407-19.433594 84.65625-12.015624 2.703125-24.503906 4.136719-37.320312 4.136719s-25.304688-1.433594-37.320312-4.136719zm0 0" fill="#fff"/></svg>