<svg viewBox="0 0 512 512" xmlns="http://www.w3.org/2000/svg" xmlns:xlink="http://www.w3.org/1999/xlink"><linearGradient id="a" gradientTransform="matrix(1 0 0 -1 0 -15338)" gradientUnits="userSpaceOnUse" x1="0" x2="512" y1="-15594" y2="-15594"><stop offset="0" stop-color="#31d8ff"/><stop offset="1" stop-color="#ff80ff"/></linearGradient><path d="m512 256c0 141.386719-114.613281 256-256 256s-256-114.613281-256-256 114.613281-256 256-256 256 114.613281 256 256zm0 0" fill="url(#a)"/><path d="m222.386719 471.003906c-1.933594 0-3.882813-.375-5.738281-1.144531-5.601563-2.320313-9.257813-7.789063-9.257813-13.855469v-189.398437l-123.996094-123.996094c-4.289062-4.289063-5.574219-10.742187-3.253906-16.347656 2.324219-5.605469 7.792969-9.257813 13.859375-9.257813h324c6.066406 0 11.535156 3.652344 13.859375 9.257813 2.320313 5.605469 1.035156 12.058593-3.253906 16.347656l-123.996094 123.996094v122.175781c0 3.980469-1.578125 7.792969-4.394531 10.609375l-67.21875 67.21875c-2.867188 2.871094-6.707032 4.394531-10.609375 4.394531zm-92.171875-324 102.78125 102.78125c2.8125 2.8125 4.394531 6.628906 4.394531 10.605469v159.398437l37.21875-37.21875v-122.175781c0-3.980469 1.582031-7.792969 4.394531-10.609375l102.785156-102.78125zm0 0" fill="#fff"/></svg>