<svg viewBox="0 0 512 512" xmlns="http://www.w3.org/2000/svg" xmlns:xlink="http://www.w3.org/1999/xlink"><linearGradient id="a" gradientTransform="matrix(1 0 0 -1 0 -5762)" gradientUnits="userSpaceOnUse" x1="0" x2="512" y1="-6018" y2="-6018"><stop offset="0" stop-color="#31d8ff"/><stop offset="1" stop-color="#ff80ff"/></linearGradient><path d="m512 256c0 141.386719-114.613281 256-256 256s-256-114.613281-256-256 114.613281-256 256-256 256 114.613281 256 256zm0 0" fill="url(#a)"/><path d="m407.890625 107.109375c-13.933594-13.933594-32.460937-21.609375-52.167969-21.609375-19.707031 0-38.234375 7.675781-52.171875 21.609375l-24.898437 24.902344h-.003906l-179.753907 179.753906c-.355469.355469-.691406.730469-1.007812 1.117187-.226563.277344-.433594.570313-.640625.863282-.074219.105468-.160156.207031-.230469.316406-.246094.367188-.464844.742188-.675781 1.125-.023438.042969-.050782.085938-.074219.128906-.210937.394532-.398437.796875-.570313 1.207032-.015624.039062-.039062.078124-.054687.121093-.164063.390625-.300781.792969-.429687 1.199219-.019532.058594-.046876.121094-.0625.183594-.117188.378906-.207032.761718-.289063 1.144531-.019531.097656-.050781.1875-.070313.28125-.074218.375-.121093.75-.167968 1.128906-.011719.109375-.035156.214844-.046875.324219-.046875.492188-.070313.980469-.070313 1.472656v83.121094c0 8.285156 6.714844 15 15 15h83.125c.488282 0 .976563-.023438 1.464844-.074219.125-.011719.246094-.035156.367188-.050781.363281-.046875.726562-.09375 1.085937-.164062.105469-.019532.207031-.050782.3125-.074219.375-.082031.746094-.167969 1.117187-.28125.070313-.019531.140626-.050781.214844-.074219.390625-.125.78125-.261719 1.167969-.417969.046875-.019531.09375-.046875.144531-.066406.398438-.171875.792969-.351563 1.179688-.558594.050781-.027343.097656-.0625.148437-.089843.375-.203126.746094-.421876 1.105469-.660157.113281-.078125.21875-.164062.332031-.242187.285157-.207032.574219-.40625.851563-.632813.386718-.316406.757812-.648437 1.113281-1.007812l204.65625-204.65625c13.9375-13.933594 21.613281-32.460938 21.613281-52.167969s-7.679687-38.238281-21.613281-52.171875zm-183.609375 183.609375c2.929688 2.925781 6.769531 4.390625 10.609375 4.390625 3.835937 0 7.675781-1.464844 10.605469-4.390625l85.320312-85.324219 20.351563 20.351563-158.539063 158.539062-61.914062-61.910156 158.539062-158.542969 20.351563 20.351563-85.324219 85.320312c-5.855469 5.859375-5.855469 15.355469 0 21.214844zm-99.78125 67.867188 31.914062 31.914062h-31.914062zm262.179688-168.351563-14.296876 14.296875-30.953124-30.953125s-.003907 0-.003907-.003906c-.003906 0-.003906-.003907-.003906-.003907l-30.953125-30.953124 14.296875-14.296876c8.269531-8.265624 19.261719-12.820312 30.957031-12.820312 11.691406 0 22.6875 4.554688 30.957032 12.820312 8.265624 8.269532 12.820312 19.265626 12.820312 30.957032 0 11.695312-4.554688 22.691406-12.820312 30.957031zm0 0" fill="#fff"/></svg>