<svg viewBox="0 0 512 512" xmlns="http://www.w3.org/2000/svg" xmlns:xlink="http://www.w3.org/1999/xlink"><linearGradient id="a" gradientTransform="matrix(1 0 0 -1 0 -15338)" gradientUnits="userSpaceOnUse" x1="0" x2="512" y1="-15594" y2="-15594"><stop offset="0" stop-color="#31d8ff"/><stop offset="1" stop-color="#ff80ff"/></linearGradient><path d="m512 256c0 141.386719-114.613281 256-256 256s-256-114.613281-256-256 114.613281-256 256-256 256 114.613281 256 256zm0 0" fill="url(#a)"/><path d="m443.980469 294.828125-32.714844-137.410156c-3.9375-16.53125-18.390625-28.078125-35.152344-28.078125h-186.503906v-6.609375c0-8.285157-6.714844-15-15-15h-84.609375c-8.285156 0-15 6.714843-15 15v224.023437c0 8.28125 6.714844 15 15 15h84.609375c8.285156 0 15-6.71875 15-15v-6.609375h32.5625c1.71875 0 3.371094.789063 4.539063 2.167969l72.03125 85.140625c6.894531 8.148437 16.914062 12.820313 27.496093 12.820313 11.378907 0 21.871094-5.261719 28.78125-14.429688 7.074219-9.386719 9.265625-21.273438 6.015625-32.613281l-15.214844-53.089844h63.003907c11.035156 0 21.320312-5.007813 28.21875-13.742187 7.058593-8.933594 9.585937-20.441407 6.9375-31.570313zm-284.371094 36.925781h-54.609375v-194.023437h54.609375zm253.890625-23.949218c-.6875.875-2.214844 2.339843-4.675781 2.339843h-68.769531c-8.054688 0-15.46875 3.710938-20.351563 10.183594-4.886719 6.484375-6.464844 15.023437-4.222656 22.855469l16.714843 58.3125c.894532 3.132812-.492187 5.441406-1.132812 6.292968-.699219.925782-2.257812 2.484376-4.824219 2.484376-1.742187 0-3.414062-.800782-4.59375-2.195313l-72.035156-85.140625c-6.878906-8.128906-16.878906-12.792969-27.4375-12.792969h-32.5625v-150.804687h186.5c2.8125 0 5.265625 2.066406 5.972656 5.027344l32.710938 137.410156c.726562 3.042968-.660157 5.230468-1.292969 6.027344zm0 0" fill="#fff"/></svg>