<svg viewBox="0 0 512 512" xmlns="http://www.w3.org/2000/svg" xmlns:xlink="http://www.w3.org/1999/xlink"><linearGradient id="a" gradientTransform="matrix(1 0 0 -1 0 -15338)" gradientUnits="userSpaceOnUse" x1="0" x2="512" y1="-15594" y2="-15594"><stop offset="0" stop-color="#31d8ff"/><stop offset="1" stop-color="#ff80ff"/></linearGradient><path d="m512 256c0 141.386719-114.613281 256-256 256s-256-114.613281-256-256 114.613281-256 256-256 256 114.613281 256 256zm0 0" fill="url(#a)"/><path d="m440.042969 197.601562c-6.898438-8.734374-17.183594-13.742187-28.21875-13.742187h-63.003907l15.214844-53.089844c3.25-11.34375 1.058594-23.230469-6.015625-32.613281-6.910156-9.167969-17.402343-14.425781-28.78125-14.425781-10.582031 0-20.605469 4.671875-27.496093 12.816406l-72.03125 85.140625c-1.167969 1.378906-2.824219 2.171875-4.539063 2.171875h-32.5625v-6.613281c0-8.28125-6.714844-15-15-15h-84.609375c-8.285156 0-15 6.71875-15 15v224.023437c0 8.285157 6.714844 15 15 15h84.609375c8.285156 0 15-6.714843 15-15v-6.609375h186.503906c16.761719 0 31.214844-11.546875 35.152344-28.078125l32.710937-137.410156c2.652344-11.128906.125-22.636719-6.933593-31.570313zm-277.433594 188.667969h-54.609375v-194.023437h54.609375zm255.1875-164.046875-32.714844 137.410156c-.703125 2.960938-3.160156 5.027344-5.96875 5.027344h-186.503906v-150.800781h32.5625c10.558594 0 20.5625-4.664063 27.4375-12.792969l72.035156-85.140625c1.179688-1.398437 2.851563-2.195312 4.59375-2.195312 2.566407 0 4.125 1.554687 4.824219 2.484375.640625.847656 2.03125 3.160156 1.132812 6.289062l-16.710937 58.316406c-2.242187 7.824219-.664063 16.367188 4.21875 22.851563 4.882813 6.472656 12.300781 10.1875 20.355469 10.1875h68.765625c2.464843 0 3.988281 1.464844 4.679687 2.335937.628906.796876 2.015625 2.984376 1.292969 6.027344zm0 0" fill="#fff"/></svg>