<svg viewBox="0 0 512 512" xmlns="http://www.w3.org/2000/svg" xmlns:xlink="http://www.w3.org/1999/xlink"><linearGradient id="a" gradientTransform="matrix(1 0 0 -1 0 -15338)" gradientUnits="userSpaceOnUse" x1="0" x2="512" y1="-15594" y2="-15594"><stop offset="0" stop-color="#31d8ff"/><stop offset="1" stop-color="#ff80ff"/></linearGradient><path d="m512 256c0 141.386719-114.613281 256-256 256s-256-114.613281-256-256 114.613281-256 256-256 256 114.613281 256 256zm0 0" fill="url(#a)"/><path d="m421 162.746094h-152.542969l-22.8125-47.753906c-2.492187-5.214844-7.753906-8.535157-13.535156-8.535157h-135.109375c-8.285156 0-15 6.71875-15 15v269.085938c0 8.285156 6.714844 15 15 15h324c8.285156 0 15-6.714844 15-15v-212.796875c0-8.285156-6.714844-15-15-15zm-309-26.289063h110.652344l12.558594 26.289063h-123.210938zm294 239.085938h-294v-182.796875h294zm0 0" fill="#fff"/></svg>