<svg viewBox="0 0 512 512" xmlns="http://www.w3.org/2000/svg" xmlns:xlink="http://www.w3.org/1999/xlink"><linearGradient id="a" gradientTransform="matrix(1 0 0 -1 0 -15338)" gradientUnits="userSpaceOnUse" x1="0" x2="512" y1="-15594" y2="-15594"><stop offset="0" stop-color="#31d8ff"/><stop offset="1" stop-color="#ff80ff"/></linearGradient><path d="m512 256c0 141.386719-114.613281 256-256 256s-256-114.613281-256-256 114.613281-256 256-256 256 114.613281 256 256zm0 0" fill="url(#a)"/><path d="m401.765625 385.886719-38.222656-57.644531v-129.816407c0-55.929687-40.320313-102.316406-92.542969-109.867187v-17.558594c0-8.285156-6.714844-15-15-15s-15 6.714844-15 15v17.558594c-52.222656 7.550781-92.542969 53.941406-92.542969 109.871094v129.8125l-38.222656 57.644531c-3.050781 4.601562-3.328125 10.515625-.714844 15.382812 2.613281 4.867188 7.691407 7.90625 13.21875 7.90625h74.898438c6.542969 26.863281 30.222656 46.824219 58.363281 46.824219s51.820312-19.960938 58.359375-46.824219h74.902344c5.523437 0 10.601562-3.039062 13.214843-7.90625 2.613282-4.871093 2.339844-10.78125-.710937-15.382812zm-145.765625 40.113281c-11.496094 0-21.507812-6.820312-26.597656-16.824219h53.195312c-5.089844 10.003907-15.101562 16.824219-26.597656 16.824219zm45.160156-46.824219h-150.480468l25.277343-38.125c1.628907-2.457031 2.5-5.339843 2.5-8.289062v-134.335938c0-44.636719 34.785157-80.953125 77.542969-80.953125s77.542969 36.316406 77.542969 80.953125v134.335938c0 2.949219.867187 5.832031 2.5 8.289062l25.277343 38.125zm0 0" fill="#fff"/></svg>