<svg viewBox="0 0 512 512" xmlns="http://www.w3.org/2000/svg" xmlns:xlink="http://www.w3.org/1999/xlink"><linearGradient id="a" gradientTransform="matrix(1 0 0 -1 0 -14274)" gradientUnits="userSpaceOnUse" x1="0" x2="512" y1="-14530" y2="-14530"><stop offset="0" stop-color="#31d8ff"/><stop offset="1" stop-color="#ff80ff"/></linearGradient><path d="m512 256c0 141.386719-114.613281 256-256 256s-256-114.613281-256-256 114.613281-256 256-256 256 114.613281 256 256zm0 0" fill="url(#a)"/><g fill="#fff"><path d="m408.5 121.375h-61.566406v-10.953125c0-8.28125-6.714844-15-15-15s-15 6.71875-15 15v10.953125h-121.867188v-10.953125c0-8.28125-6.714844-15-15-15s-15 6.71875-15 15v10.953125h-61.566406c-8.285156 0-15 6.71875-15 15v253.199219c0 8.285156 6.714844 15 15 15h305c8.285156 0 15-6.714844 15-15v-253.199219c0-8.28125-6.714844-15-15-15zm-15 253.199219h-275v-223.199219h46.566406v10.953125c0 8.285156 6.714844 15 15 15s15-6.714844 15-15v-10.953125h121.867188v10.953125c0 8.285156 6.714844 15 15 15s15-6.714844 15-15v-10.953125h46.566406zm0 0"/><path d="m273.445312 236.394531c0 9.636719-7.808593 17.449219-17.445312 17.449219s-17.445312-7.8125-17.445312-17.449219 7.808593-17.445312 17.445312-17.445312 17.445312 7.808593 17.445312 17.445312zm0 0"/><path d="m273.445312 312.328125c0 9.636719-7.808593 17.445313-17.445312 17.445313s-17.445312-7.808594-17.445312-17.445313 7.808593-17.445313 17.445312-17.445313 17.445312 7.808594 17.445312 17.445313zm0 0"/><path d="m197.511719 236.394531c0 9.636719-7.808594 17.449219-17.445313 17.449219-9.636718 0-17.449218-7.8125-17.449218-17.449219s7.8125-17.445312 17.449218-17.445312c9.636719 0 17.445313 7.808593 17.445313 17.445312zm0 0"/><path d="m349.382812 236.394531c0 9.636719-7.8125 17.449219-17.449218 17.449219-9.636719 0-17.445313-7.8125-17.445313-17.449219s7.808594-17.445312 17.445313-17.445312c9.636718 0 17.449218 7.808593 17.449218 17.445312zm0 0"/><path d="m197.511719 312.328125c0 9.636719-7.808594 17.445313-17.445313 17.445313-9.636718 0-17.449218-7.808594-17.449218-17.445313s7.8125-17.445313 17.449218-17.445313c9.636719 0 17.445313 7.808594 17.445313 17.445313zm0 0"/><path d="m349.382812 312.328125c0 9.636719-7.8125 17.445313-17.449218 17.445313-9.636719 0-17.445313-7.808594-17.445313-17.445313s7.808594-17.445313 17.445313-17.445313c9.636718 0 17.449218 7.808594 17.449218 17.445313zm0 0"/></g></svg>