<svg viewBox="0 0 512 512" xmlns="http://www.w3.org/2000/svg" xmlns:xlink="http://www.w3.org/1999/xlink"><linearGradient id="a" gradientTransform="matrix(1 0 0 -1 0 -14274)" gradientUnits="userSpaceOnUse" x1="0" x2="512" y1="-14530" y2="-14530"><stop offset="0" stop-color="#31d8ff"/><stop offset="1" stop-color="#ff80ff"/></linearGradient><path d="m512 256c0 141.386719-114.613281 256-256 256s-256-114.613281-256-256 114.613281-256 256-256 256 114.613281 256 256zm0 0" fill="url(#a)"/><g fill="#fff"><path d="m151.1875 439.46875c-1.929688 0-3.875-.375-5.730469-1.140625-5.609375-2.320313-9.265625-7.792969-9.265625-13.859375v-50.382812h-28.03125c-19.9375 0-36.160156-16.398438-36.160156-36.554688v-172.441406c0-20.15625 16.222656-36.554688 36.160156-36.554688h297.679688c19.9375 0 36.160156 16.398438 36.160156 36.554688v172.441406c0 20.15625-16.222656 36.554688-36.160156 36.554688h-183.152344l-60.878906 60.980468c-2.871094 2.875-6.710938 4.402344-10.621094 4.402344zm-43.027344-280.933594c-3.394531 0-6.160156 2.941406-6.160156 6.554688v172.441406c0 3.613281 2.765625 6.554688 6.160156 6.554688h43.03125c8.285156 0 15 6.714843 15 15v29.125l39.65625-39.722657c2.8125-2.820312 6.632813-4.402343 10.617188-4.402343h189.371094c3.398437 0 6.164062-2.941407 6.164062-6.554688v-172.441406c0-3.613282-2.765625-6.554688-6.164062-6.554688zm0 0"/><path d="m276.449219 251.226562c0 10.742188-8.707031 19.449219-19.449219 19.449219s-19.449219-8.707031-19.449219-19.449219c0-10.742187 8.707031-19.449218 19.449219-19.449218s19.449219 8.707031 19.449219 19.449218zm0 0"/><path d="m191.800781 251.226562c0 10.742188-8.707031 19.449219-19.449219 19.449219-10.738281 0-19.449218-8.707031-19.449218-19.449219 0-10.742187 8.710937-19.449218 19.449218-19.449218 10.742188 0 19.449219 8.707031 19.449219 19.449218zm0 0"/><path d="m361.097656 251.226562c0 10.742188-8.710937 19.449219-19.449218 19.449219-10.742188 0-19.449219-8.707031-19.449219-19.449219 0-10.742187 8.707031-19.449218 19.449219-19.449218 10.738281 0 19.449218 8.707031 19.449218 19.449218zm0 0"/></g></svg>