<svg viewBox="0 0 512 512" xmlns="http://www.w3.org/2000/svg" xmlns:xlink="http://www.w3.org/1999/xlink"><linearGradient id="a" gradientTransform="matrix(1 0 0 -1 0 -14274)" gradientUnits="userSpaceOnUse" x1="0" x2="512" y1="-14530" y2="-14530"><stop offset="0" stop-color="#31d8ff"/><stop offset="1" stop-color="#ff80ff"/></linearGradient><path d="m512 256c0 141.386719-114.613281 256-256 256s-256-114.613281-256-256 114.613281-256 256-256 256 114.613281 256 256zm0 0" fill="url(#a)"/><g fill="#fff"><path d="m412.097656 114.855469c0-.480469-.023437-.957031-.070312-1.433594-.023438-.230469-.066406-.453125-.097656-.679687-.039063-.257813-.066407-.515626-.117188-.773438-.050781-.253906-.121094-.503906-.183594-.753906-.058594-.222656-.105468-.449219-.175781-.667969-.070313-.246094-.164063-.484375-.25-.722656-.082031-.222657-.152344-.445313-.242187-.664063-.09375-.226562-.203126-.441406-.308594-.660156-.105469-.222656-.203125-.449219-.320313-.671875-.113281-.210937-.242187-.410156-.367187-.617187-.125-.214844-.246094-.429688-.386719-.640626-.152344-.226562-.324219-.441406-.488281-.664062-.128906-.167969-.25-.347656-.386719-.511719-.628906-.765625-1.328125-1.46875-2.09375-2.097656-.171875-.140625-.351563-.261719-.53125-.394531-.214844-.160156-.421875-.328125-.644531-.476563-.214844-.144531-.441406-.269531-.660156-.402343-.199219-.117188-.394532-.242188-.597657-.351563-.226562-.121094-.460937-.226563-.691406-.335937-.210937-.097657-.421875-.203126-.636719-.296876-.226562-.09375-.457031-.167968-.6875-.25-.230468-.082031-.460937-.171874-.699218-.242187-.230469-.070313-.46875-.125-.699219-.183594-.242188-.058593-.480469-.125-.722657-.175781-.273437-.050781-.550781-.085938-.824218-.125-.210938-.03125-.414063-.070312-.628906-.089844-.492188-.050781-.988282-.074218-1.488282-.074218h-88.355468c-8.28125 0-15 6.714843-15 15 0 8.28125 6.71875 15 15 15h52.148437l-90.660156 90.660156c-5.859375 5.855468-5.859375 15.355468 0 21.210937 2.929687 2.929688 6.765625 4.394531 10.605469 4.394531 3.839843 0 7.679687-1.464843 10.605468-4.394531l90.660156-90.660156v52.148437c0 8.28125 6.71875 15 15 15 8.285157 0 15-6.71875 15-15v-88.359374c0-.015626-.003906-.03125-.003906-.042969zm0 0"/><path d="m220.558594 270.226562-90.660156 90.664063v-52.148437c0-8.285157-6.714844-15-15-15-8.285157 0-15 6.714843-15 15v88.359374c0 .015626.003906.03125.003906.042969 0 .480469.023437.957031.070312 1.433594.023438.230469.066406.453125.097656.679687.039063.257813.066407.515626.117188.773438.050781.253906.121094.503906.183594.753906.058594.222656.105468.449219.175781.667969.074219.246094.164063.484375.25.726563.082031.21875.152344.441406.242187.660156.09375.226562.203126.441406.308594.664062.105469.222656.203125.445313.320313.667969.113281.210937.242187.414063.367187.617187.125.214844.246094.429688.386719.640626.152344.226562.324219.441406.488281.664062.128906.171875.25.347656.386719.515625.628906.761719 1.328125 1.464844 2.09375 2.09375.171875.140625.351563.261719.527344.394531.214843.160156.425781.328125.652343.476563.210938.144531.433594.265625.652344.398437.203125.121094.398438.246094.605469.355469.222656.121094.453125.222656.683594.328125.214843.105469.425781.210938.644531.304688.226562.089843.453125.164062.679688.246093.234374.082031.46875.175781.707031.246094.226562.070313.457031.117187.683593.175781.246094.0625.492188.132813.742188.183594.261719.050781.527344.082031.789062.121094.222657.03125.4375.070312.660157.09375.492187.046875.988281.074218 1.480469.074218h88.359374c8.285157 0 15-6.714843 15-15 0-8.285156-6.714843-15-15-15h-52.144531l90.660157-90.660156c5.859374-5.859375 5.859374-15.355468 0-21.214844-5.859376-5.859374-15.355469-5.859374-21.214844 0zm0 0"/></g></svg>