<svg viewBox="0 0 512 512" xmlns="http://www.w3.org/2000/svg" xmlns:xlink="http://www.w3.org/1999/xlink"><linearGradient id="a" gradientTransform="matrix(1 0 0 -1 0 -13210)" gradientUnits="userSpaceOnUse" x1="0" x2="512" y1="-13466" y2="-13466"><stop offset="0" stop-color="#31d8ff"/><stop offset="1" stop-color="#ff80ff"/></linearGradient><path d="m512 256c0 141.386719-114.613281 256-256 256s-256-114.613281-256-256 114.613281-256 256-256 256 114.613281 256 256zm0 0" fill="url(#a)"/><path d="m452.578125 265.535156c4.820313-5.835937 4.453125-14.855468-.996094-20.167968l-81.921875-81.523438c-5.871094-5.84375-15.367187-5.820312-21.210937.050781-5.84375 5.871094-5.820313 15.367188.050781 21.210938l56.164062 55.894531h-333.664062c-8.285156 0-15 6.714844-15 15s6.714844 15 15 15h333.664062l-56.164062 55.894531c-5.871094 5.84375-5.894531 15.339844-.050781 21.210938 2.929687 2.945312 6.78125 4.417969 10.632812 4.417969 3.824219 0 7.652344-1.453126 10.578125-4.367188l81.921875-81.523438c.351563-.34375.683594-.71875.996094-1.097656.039063-.042968-.308594.375 0 0zm0 0" fill="#fff"/></svg>