<svg viewBox="0 0 512 512" xmlns="http://www.w3.org/2000/svg" xmlns:xlink="http://www.w3.org/1999/xlink"><linearGradient id="a" gradientTransform="matrix(1 0 0 -1 0 -5762)" gradientUnits="userSpaceOnUse" x1="0" x2="512" y1="-6018" y2="-6018"><stop offset="0" stop-color="#31d8ff"/><stop offset="1" stop-color="#ff80ff"/></linearGradient><path d="m512 256c0 141.386719-114.613281 256-256 256s-256-114.613281-256-256 114.613281-256 256-256 256 114.613281 256 256zm0 0" fill="url(#a)"/><path d="m429.570312 143.019531c-1.078124-1.238281-2.324218-2.269531-3.691406-3.074219-6.039062-4.394531-13.464844-6.996093-21.488281-6.996093h-296.78125c-8.019531 0-15.441406 2.601562-21.480469 6.992187-1.371094.804688-2.621094 1.835938-3.703125 3.082032-7.027343 6.675781-11.425781 16.097656-11.425781 26.535156v172.882812c0 20.1875 16.421875 36.609375 36.609375 36.609375h296.78125c20.1875 0 36.609375-16.421875 36.609375-36.609375v-172.882812c0-10.4375-4.398438-19.863282-11.429688-26.539063zm-55.132812 19.929688-118.4375 75.277343-118.4375-75.277343zm29.953125 186.101562h-296.78125c-3.644531 0-6.609375-2.964843-6.609375-6.609375v-167.183594l146.953125 93.402344c2.457031 1.558594 5.25 2.339844 8.046875 2.339844s5.589844-.78125 8.046875-2.339844l146.953125-93.402344v167.183594c0 3.644532-2.964844 6.609375-6.609375 6.609375zm0 0" fill="#fff"/></svg>