<svg viewBox="0 0 512 512" xmlns="http://www.w3.org/2000/svg" xmlns:xlink="http://www.w3.org/1999/xlink"><linearGradient id="a" gradientTransform="matrix(1 0 0 -1 0 -13210)" gradientUnits="userSpaceOnUse" x1="0" x2="512" y1="-13466" y2="-13466"><stop offset="0" stop-color="#31d8ff"/><stop offset="1" stop-color="#ff80ff"/></linearGradient><path d="m512 256c0 141.386719-114.613281 256-256 256s-256-114.613281-256-256 114.613281-256 256-256 256 114.613281 256 256zm0 0" fill="url(#a)"/><path d="m441 241h-333.664062l56.164062-55.894531c5.871094-5.84375 5.894531-15.339844.050781-21.210938-5.84375-5.875-15.34375-5.894531-21.210937-.050781l-81.921875 81.523438c-5.796875 5.796874-5.796875 15.46875 0 21.265624l81.921875 81.523438c2.925781 2.914062 6.753906 4.371094 10.578125 4.371094 3.851562 0 7.703125-1.476563 10.632812-4.421875 5.84375-5.871094 5.820313-15.367188-.050781-21.210938l-56.164062-55.894531h333.664062c8.285156 0 15-6.714844 15-15s-6.714844-15-15-15zm0 0" fill="#fff"/></svg>