<svg viewBox="0 0 512 512" xmlns="http://www.w3.org/2000/svg" xmlns:xlink="http://www.w3.org/1999/xlink"><linearGradient id="a" gradientTransform="matrix(1 0 0 -1 0 -13210)" gradientUnits="userSpaceOnUse" x1="0" x2="512" y1="-13466" y2="-13466"><stop offset="0" stop-color="#31d8ff"/><stop offset="1" stop-color="#ff80ff"/></linearGradient><path d="m512 256c0 141.386719-114.613281 256-256 256s-256-114.613281-256-256 114.613281-256 256-256 256 114.613281 256 256zm0 0" fill="url(#a)"/><path d="m348.15625 142.335938-81.523438-81.917969c-5.800781-5.796875-15.464843-5.796875-21.265624 0l-81.523438 81.921875c-5.84375 5.871094-5.820312 15.367187.050781 21.210937 2.925781 2.914063 6.753907 4.367188 10.582031 4.367188 3.847657 0 7.699219-1.472657 10.628907-4.417969l55.894531-56.164062v333.664062c0 8.285156 6.714844 15 15 15s15-6.714844 15-15v-333.664062l55.894531 56.164062c5.84375 5.871094 15.339844 5.894531 21.210938.050781 5.875-5.84375 5.894531-15.339843.050781-21.214843zm0 0" fill="#fff"/></svg>