<svg viewBox="0 0 512 512" xmlns="http://www.w3.org/2000/svg" xmlns:xlink="http://www.w3.org/1999/xlink"><linearGradient id="a" gradientTransform="matrix(1 0 0 -1 0 -13210)" gradientUnits="userSpaceOnUse" x1="0" x2="512" y1="-13466" y2="-13466"><stop offset="0" stop-color="#31d8ff"/><stop offset="1" stop-color="#ff80ff"/></linearGradient><path d="m512 256c0 141.386719-114.613281 256-256 256s-256-114.613281-256-256 114.613281-256 256-256 256 114.613281 256 256zm0 0" fill="url(#a)"/><path d="m398.597656 115.917969c-.363281-.460938-.75-.914063-1.175781-1.339844-.429687-.425781-.878906-.8125-1.339844-1.175781-36.109375-35.480469-85.582031-57.402344-140.082031-57.402344-110.28125 0-200 89.71875-200 200 0 54.503906 21.921875 103.972656 57.402344 140.082031.363281.460938.75.914063 1.175781 1.339844.429687.425781.878906.8125 1.339844 1.175781 36.109375 35.480469 85.582031 57.402344 140.082031 57.402344 110.28125 0 200-89.71875 200-200 0-54.503906-21.921875-103.972656-57.402344-140.082031zm-142.597656-29.917969c41.480469 0 79.53125 14.941406 109.074219 39.714844l-239.359375 239.359375c-24.773438-29.542969-39.714844-67.59375-39.714844-109.074219 0-93.738281 76.261719-170 170-170zm0 340c-41.480469 0-79.53125-14.941406-109.074219-39.714844l239.359375-239.359375c24.773438 29.542969 39.714844 67.59375 39.714844 109.074219 0 93.738281-76.261719 170-170 170zm0 0" fill="#fff"/></svg>