<svg viewBox="0 0 512 512" xmlns="http://www.w3.org/2000/svg" xmlns:xlink="http://www.w3.org/1999/xlink"><linearGradient id="a" gradientTransform="matrix(1 0 0 -1 0 -12146)" gradientUnits="userSpaceOnUse" x1="0" x2="512" y1="-12402" y2="-12402"><stop offset="0" stop-color="#31d8ff"/><stop offset="1" stop-color="#ff80ff"/></linearGradient><path d="m512 256c0 141.386719-114.613281 256-256 256s-256-114.613281-256-256 114.613281-256 256-256 256 114.613281 256 256zm0 0" fill="url(#a)"/><g fill="#fff"><path d="m396.128906 413h-280.257812c-12.859375 0-24.574219-6.53125-31.339844-17.472656-6.761719-10.941406-7.367188-24.347656-1.613281-35.851563l140.128906-280.308593c6.28125-12.5625 18.90625-20.367188 32.953125-20.367188s26.671875 7.804688 32.953125 20.367188l140.128906 280.308593c5.753907 11.503907 5.148438 24.910157-1.613281 35.851563-6.765625 10.941406-18.480469 17.472656-31.339844 17.472656zm-140.128906-324c-1.578125 0-4.476562.492188-6.121094 3.78125l-140.128906 280.308594c-1.484375 2.972656-.449219 5.449218.300781 6.664062.75 1.210938 2.503907 3.246094 5.820313 3.246094h280.257812c3.316406 0 5.070313-2.035156 5.820313-3.246094.75-1.214844 1.785156-3.691406.300781-6.664062l-140.128906-280.308594c-1.644532-3.292969-4.542969-3.78125-6.121094-3.78125zm0 0"/><path d="m256 299.175781c-8.285156 0-15-6.714843-15-15v-86.574219c0-8.285156 6.714844-15 15-15s15 6.714844 15 15v86.574219c0 8.285157-6.714844 15-15 15zm0 0"/><path d="m274.535156 332.230469c0 10.234375-8.300781 18.535156-18.535156 18.535156s-18.535156-8.300781-18.535156-18.535156c0-10.238281 8.300781-18.535157 18.535156-18.535157s18.535156 8.296876 18.535156 18.535157zm0 0"/></g></svg>