<svg viewBox="0 0 512 512" xmlns="http://www.w3.org/2000/svg" xmlns:xlink="http://www.w3.org/1999/xlink"><linearGradient id="a" gradientTransform="matrix(1 0 0 -1 0 -12146)" gradientUnits="userSpaceOnUse" x1="0" x2="512" y1="-12402" y2="-12402"><stop offset="0" stop-color="#31d8ff"/><stop offset="1" stop-color="#ff80ff"/></linearGradient><path d="m512 256c0 141.386719-114.613281 256-256 256s-256-114.613281-256-256 114.613281-256 256-256 256 114.613281 256 256zm0 0" fill="url(#a)"/><g fill="#fff"><path d="m256 456c-110.28125 0-200-89.71875-200-200s89.71875-200 200-200 200 89.71875 200 200-89.71875 200-200 200zm0-370c-93.738281 0-170 76.261719-170 170s76.261719 170 170 170 170-76.261719 170-170-76.261719-170-170-170zm0 0"/><path d="m256 354.972656c-8.285156 0-15-6.714844-15-15v-100.960937c0-8.28125 6.714844-15 15-15s15 6.71875 15 15v100.960937c0 8.285156-6.714844 15-15 15zm0 0"/><path d="m277.164062 182.972656c0 11.6875-9.476562 21.164063-21.164062 21.164063s-21.164062-9.476563-21.164062-21.164063c0-11.691406 9.476562-21.164062 21.164062-21.164062s21.164062 9.472656 21.164062 21.164062zm0 0"/></g></svg>