<svg viewBox="0 0 512 512" xmlns="http://www.w3.org/2000/svg" xmlns:xlink="http://www.w3.org/1999/xlink"><linearGradient id="a" gradientTransform="matrix(1 0 0 -1 0 -12146)" gradientUnits="userSpaceOnUse" x1="0" x2="512" y1="-12402" y2="-12402"><stop offset="0" stop-color="#31d8ff"/><stop offset="1" stop-color="#ff80ff"/></linearGradient><path d="m512 256c0 141.386719-114.613281 256-256 256s-256-114.613281-256-256 114.613281-256 256-256 256 114.613281 256 256zm0 0" fill="url(#a)"/><path d="m351.261719 311.527344c-19.886719 0-37.699219 9.019531-49.582031 23.171875l-127.921876-63.957031c1.109376-4.738282 1.714844-9.671876 1.714844-14.742188s-.605468-10.003906-1.714844-14.742188l127.921876-63.957031c11.882812 14.152344 29.695312 23.171875 49.582031 23.171875 35.695312 0 64.738281-29.039062 64.738281-64.734375 0-35.699219-29.042969-64.738281-64.738281-64.738281-35.695313 0-64.738281 29.039062-64.738281 64.738281 0 5.070313.605468 10 1.714843 14.738281l-127.921875 63.960938c-11.882812-14.15625-29.695312-23.175781-49.582031-23.175781-35.695313 0-64.738281 29.042969-64.738281 64.738281s29.042968 64.738281 64.738281 64.738281c19.886719 0 37.699219-9.019531 49.582031-23.175781l127.921875 63.960938c-1.109375 4.738281-1.714843 9.667968-1.714843 14.738281 0 35.699219 29.042968 64.738281 64.738281 64.738281 35.695312 0 64.738281-29.039062 64.738281-64.738281 0-35.695313-29.042969-64.734375-64.738281-64.734375zm0-210.527344c19.152343 0 34.738281 15.582031 34.738281 34.738281 0 19.152344-15.585938 34.734375-34.738281 34.734375-19.152344 0-34.738281-15.582031-34.738281-34.734375 0-19.15625 15.585937-34.738281 34.738281-34.738281zm-240.527344 189.738281c-19.152344 0-34.738281-15.585937-34.738281-34.738281s15.585937-34.738281 34.738281-34.738281c19.15625 0 34.738281 15.585937 34.738281 34.738281s-15.582031 34.738281-34.738281 34.738281zm240.527344 120.261719c-19.152344 0-34.738281-15.582031-34.738281-34.738281 0-19.152344 15.585937-34.734375 34.738281-34.734375 19.152343 0 34.738281 15.582031 34.738281 34.734375 0 19.15625-15.585938 34.738281-34.738281 34.738281zm0 0" fill="#fff"/></svg>