<svg viewBox="0 0 512 512" xmlns="http://www.w3.org/2000/svg" xmlns:xlink="http://www.w3.org/1999/xlink"><linearGradient id="a" gradientTransform="matrix(1 0 0 -1 0 -12146)" gradientUnits="userSpaceOnUse" x1="0" x2="512" y1="-12402" y2="-12402"><stop offset="0" stop-color="#31d8ff"/><stop offset="1" stop-color="#ff80ff"/></linearGradient><path d="m512 256c0 141.386719-114.613281 256-256 256s-256-114.613281-256-256 114.613281-256 256-256 256 114.613281 256 256zm0 0" fill="url(#a)"/><g fill="#fff"><path d="m256 456c-2.863281 0-5.726562-.816406-8.222656-2.453125-1.511719-.992187-37.425782-24.742187-73.644532-66.367187-21.394531-24.589844-38.480468-50.375-50.773437-76.644532-15.566406-33.265625-23.460937-67.367187-23.460937-101.359375 0-84.460937 70.027343-153.175781 156.101562-153.175781s156.101562 68.714844 156.101562 153.175781c0 33.992188-7.894531 68.09375-23.460937 101.355469-12.292969 26.273438-29.375 52.058594-50.773437 76.648438-36.21875 41.625-72.132813 65.375-73.640626 66.363281-2.5 1.640625-5.363281 2.457031-8.226562 2.457031zm0-370c-69.53125 0-126.101562 55.257812-126.101562 123.175781 0 67.046875 36.074218 122.769531 66.339843 157.707031 23.640625 27.289063 47.578125 46.597657 59.761719 55.691407 12.183594-9.09375 36.121094-28.402344 59.761719-55.691407 30.261719-34.9375 66.339843-90.660156 66.339843-157.707031 0-67.917969-56.570312-123.175781-126.101562-123.175781zm0 0"/><path d="m256 286.886719c-42.851562 0-77.710938-34.863281-77.710938-77.710938 0-42.851562 34.859376-77.714843 77.710938-77.714843s77.710938 34.863281 77.710938 77.714843c0 42.847657-34.859376 77.710938-77.710938 77.710938zm0-125.425781c-26.308594 0-47.710938 21.402343-47.710938 47.714843 0 26.308594 21.402344 47.710938 47.710938 47.710938s47.710938-21.402344 47.710938-47.710938c0-26.3125-21.402344-47.714843-47.710938-47.714843zm0 0"/></g></svg>