<svg viewBox="0 0 512 512" xmlns="http://www.w3.org/2000/svg" xmlns:xlink="http://www.w3.org/1999/xlink"><linearGradient id="a" gradientTransform="matrix(1 0 0 -1 0 -11082)" gradientUnits="userSpaceOnUse" x1="0" x2="512" y1="-11338" y2="-11338"><stop offset="0" stop-color="#31d8ff"/><stop offset="1" stop-color="#ff80ff"/></linearGradient><path d="m512 256c0 141.386719-114.613281 256-256 256s-256-114.613281-256-256 114.613281-256 256-256 256 114.613281 256 256zm0 0" fill="url(#a)"/><path d="m428.488281 286.644531c-.003906-.207031-.019531-.417969-.03125-.625-.019531-.347656-.046875-.691406-.085937-1.03125-.023438-.1875-.054688-.378906-.085938-.566406-.0625-.371094-.136718-.738281-.222656-1.101563-.023438-.089843-.03125-.179687-.054688-.269531l-51.878906-197.363281c-1.730468-6.59375-7.691406-11.1875-14.507812-11.1875h-211.242188c-6.816406 0-12.777344 4.59375-14.507812 11.1875l-51.878906 197.363281c-.023438.089844-.03125.179688-.054688.269531-.085938.363282-.160156.730469-.222656 1.101563-.03125.1875-.0625.375-.085938.566406-.042968.339844-.066406.683594-.085937 1.03125-.011719.207031-.027344.417969-.03125.625 0 .074219-.011719.144531-.011719.21875v117.636719c0 8.285156 6.714844 15 15 15h315c8.285156 0 15-6.714844 15-15v-117.636719c0-.074219-.011719-.144531-.011719-.21875zm-266.546875-182.144531h188.113282l43.992187 167.363281h-72.695313c-8.285156 0-15 6.71875-15 15v37.285157h-100.703124v-37.285157c0-8.28125-6.71875-15-15-15h-72.695313zm236.558594 285h-285v-87.636719h62.148438v37.285157c0 8.28125 6.714843 15 15 15h130.703124c8.285157 0 15-6.71875 15-15v-37.285157h62.148438zm0 0" fill="#fff"/></svg>