<svg viewBox="0 0 512 512" xmlns="http://www.w3.org/2000/svg" xmlns:xlink="http://www.w3.org/1999/xlink"><linearGradient id="a" gradientTransform="matrix(1 0 0 -1 0 -5762)" gradientUnits="userSpaceOnUse" x1="0" x2="512" y1="-6018" y2="-6018"><stop offset="0" stop-color="#31d8ff"/><stop offset="1" stop-color="#ff80ff"/></linearGradient><path d="m512 256c0 141.386719-114.613281 256-256 256s-256-114.613281-256-256 114.613281-256 256-256 256 114.613281 256 256zm0 0" fill="url(#a)"/><path d="m364.234375 374.230469h-216.46875c-50.601563 0-91.765625-41.191407-91.765625-91.820313 0-17.570312 4.980469-34.648437 14.398438-49.394531 7.9375-12.425781 18.691406-22.714844 31.359374-30.066406 17.519532-52.832031 67.398438-89.183594 123.535157-89.183594 51.449219 0 97.882812 30.460937 118.722656 76.824219h20.21875c50.601563 0 91.765625 41.1875 91.765625 91.820312 0 50.628906-41.164062 91.820313-91.765625 91.820313zm-138.941406-230.464844c-44.898438 0-84.59375 30.214844-96.53125 73.480469-1.148438 4.15625-4.03125 7.617187-7.910157 9.5-21.496093 10.441406-34.851562 31.769531-34.851562 55.664062 0 34.089844 27.707031 61.820313 61.765625 61.820313h216.472656c34.054688 0 61.761719-27.730469 61.761719-61.820313s-27.707031-61.820312-61.761719-61.820312h-30.359375c-6.355468 0-12.023437-4.011719-14.144531-10.003906-14.117187-39.96875-52.070313-66.820313-94.441406-66.820313zm0 0" fill="#fff"/></svg>