<svg viewBox="0 0 512 512" xmlns="http://www.w3.org/2000/svg" xmlns:xlink="http://www.w3.org/1999/xlink"><linearGradient id="a" gradientTransform="matrix(1 0 0 -1 0 -11082)" gradientUnits="userSpaceOnUse" x1="0" x2="512" y1="-11338" y2="-11338"><stop offset="0" stop-color="#31d8ff"/><stop offset="1" stop-color="#ff80ff"/></linearGradient><path d="m512 256c0 141.386719-114.613281 256-256 256s-256-114.613281-256-256 114.613281-256 256-256 256 114.613281 256 256zm0 0" fill="url(#a)"/><path d="m321.15625 441c-3.773438 0-7.554688-1.417969-10.46875-4.261719l-174.324219-170c-2.894531-2.824219-4.523437-6.695312-4.523437-10.738281s1.632812-7.914062 4.523437-10.738281l174.324219-170c5.929688-5.785157 15.425781-5.664063 21.210938.265625 5.78125 5.929687 5.664062 15.425781-.265626 21.210937l-163.3125 159.261719 163.3125 159.261719c5.929688 5.785156 6.050782 15.28125.265626 21.210937-2.9375 3.015625-6.839844 4.527344-10.742188 4.527344zm0 0" fill="#fff"/></svg>