<svg viewBox="0 0 512 512" xmlns="http://www.w3.org/2000/svg" xmlns:xlink="http://www.w3.org/1999/xlink"><linearGradient id="a" gradientTransform="matrix(1 0 0 -1 0 -11082)" gradientUnits="userSpaceOnUse" x1="0" x2="512" y1="-11338" y2="-11338"><stop offset="0" stop-color="#31d8ff"/><stop offset="1" stop-color="#ff80ff"/></linearGradient><path d="m512 256c0 141.386719-114.613281 256-256 256s-256-114.613281-256-256 114.613281-256 256-256 256 114.613281 256 256zm0 0" fill="url(#a)"/><g fill="#fff"><path d="m198.488281 423.5h-75.601562c-18.960938 0-34.386719-15.425781-34.386719-34.386719v-266.226562c0-18.960938 15.425781-34.386719 34.386719-34.386719h75.601562c18.960938 0 34.386719 15.425781 34.386719 34.386719v266.226562c0 18.960938-15.425781 34.386719-34.386719 34.386719zm-75.601562-305c-2.417969 0-4.386719 1.96875-4.386719 4.386719v266.226562c0 2.417969 1.96875 4.386719 4.386719 4.386719h75.601562c2.417969 0 4.386719-1.964844 4.386719-4.386719v-266.226562c0-2.417969-1.964844-4.386719-4.386719-4.386719zm0 0"/><path d="m389.113281 423.5h-75.601562c-18.960938 0-34.386719-15.425781-34.386719-34.386719v-266.226562c0-18.960938 15.425781-34.386719 34.386719-34.386719h75.601562c18.960938 0 34.386719 15.425781 34.386719 34.386719v266.226562c0 18.960938-15.425781 34.386719-34.386719 34.386719zm-75.601562-305c-2.417969 0-4.386719 1.96875-4.386719 4.386719v266.226562c0 2.417969 1.96875 4.386719 4.386719 4.386719h75.601562c2.417969 0 4.386719-1.964844 4.386719-4.386719v-266.226562c0-2.417969-1.964844-4.386719-4.386719-4.386719zm0 0"/></g></svg>