<svg viewBox="0 0 512 512" xmlns="http://www.w3.org/2000/svg" xmlns:xlink="http://www.w3.org/1999/xlink"><linearGradient id="a" gradientTransform="matrix(1 0 0 -1 0 -11082)" gradientUnits="userSpaceOnUse" x1="0" x2="512" y1="-11338" y2="-11338"><stop offset="0" stop-color="#31d8ff"/><stop offset="1" stop-color="#ff80ff"/></linearGradient><path d="m512 256c0 141.386719-114.613281 256-256 256s-256-114.613281-256-256 114.613281-256 256-256 256 114.613281 256 256zm0 0" fill="url(#a)"/><path d="m369.730469 423.5h-227.460938c-29.648437 0-53.769531-24.121094-53.769531-53.769531v-227.460938c0-29.648437 24.121094-53.769531 53.769531-53.769531h227.460938c29.648437 0 53.769531 24.121094 53.769531 53.769531v227.460938c0 29.648437-24.121094 53.769531-53.769531 53.769531zm-227.460938-305c-13.105469 0-23.769531 10.664062-23.769531 23.769531v227.460938c0 13.105469 10.664062 23.769531 23.769531 23.769531h227.460938c13.105469 0 23.769531-10.664062 23.769531-23.769531v-227.460938c0-13.105469-10.664062-23.769531-23.769531-23.769531zm0 0" fill="#fff"/></svg>