<svg viewBox="0 0 512 512" xmlns="http://www.w3.org/2000/svg" xmlns:xlink="http://www.w3.org/1999/xlink"><linearGradient id="a" gradientTransform="matrix(1 0 0 -1 0 -10018)" gradientUnits="userSpaceOnUse" x1="0" x2="512" y1="-10274" y2="-10274"><stop offset="0" stop-color="#31d8ff"/><stop offset="1" stop-color="#ff80ff"/></linearGradient><path d="m512 256c0 141.386719-114.613281 256-256 256s-256-114.613281-256-256 114.613281-256 256-256 256 114.613281 256 256zm0 0" fill="url(#a)"/><path d="m143.824219 433.007812c-6.710938 0-13.394531-1.859374-19.351563-5.539062-10.9375-6.761719-17.472656-18.480469-17.472656-31.339844v-280.257812c0-12.859375 6.53125-24.578125 17.472656-31.339844 10.945313-6.761719 24.347656-7.367188 35.851563-1.613281l280.308593 140.128906c12.5625 6.28125 20.371094 18.90625 20.371094 32.953125s-7.808594 26.671875-20.371094 32.953125l-280.308593 140.128906c-5.242188 2.621094-10.878907 3.925781-16.5 3.925781zm.019531-324.011718c-1.570312 0-2.832031.582031-3.597656 1.054687-1.210938.75-3.242188 2.5-3.242188 5.820313v280.257812c0 3.320313 2.03125 5.070313 3.242188 5.820313 1.214844.75 3.691406 1.785156 6.664062.300781l280.308594-140.128906c3.292969-1.648438 3.785156-4.542969 3.785156-6.121094s-.492187-4.472656-3.785156-6.121094l-280.308594-140.128906c-1.101562-.550781-2.140625-.753906-3.066406-.753906zm0 0" fill="#fff"/></svg>