<svg viewBox="0 0 512 512" xmlns="http://www.w3.org/2000/svg" xmlns:xlink="http://www.w3.org/1999/xlink"><linearGradient id="a" gradientTransform="matrix(1 0 0 -1 0 -10018)" gradientUnits="userSpaceOnUse" x1="0" x2="512" y1="-10274" y2="-10274"><stop offset="0" stop-color="#31d8ff"/><stop offset="1" stop-color="#ff80ff"/></linearGradient><path d="m512 256c0 141.386719-114.613281 256-256 256s-256-114.613281-256-256 114.613281-256 256-256 256 114.613281 256 256zm0 0" fill="url(#a)"/><g fill="#fff"><path d="m202.308594 455c-3.835938 0-7.675782-1.464844-10.605469-4.394531l-127.308594-127.308594c-5.859375-5.859375-5.859375-15.355469 0-21.210937l196.683594-196.6875c2.8125-2.8125 6.625-4.390626 10.605469-4.390626l127.3125-.007812c3.980468 0 7.792968 1.582031 10.609375 4.394531 2.8125 2.8125 4.390625 6.628907 4.390625 10.609375l-.003906 127.3125c0 3.980469-1.578126 7.792969-4.394532 10.605469l-196.683594 196.6875c-2.925781 2.925781-6.765624 4.390625-10.605468 4.390625zm-106.097656-142.308594 106.097656 106.097656 181.6875-181.6875.003906-106.101562-106.101562.003906zm302.78125-69.375h.011718zm0 0"/><path d="m317.714844 241.074219c-11.21875 0-22.4375-4.269531-30.976563-12.8125-8.273437-8.273438-12.832031-19.273438-12.832031-30.976563 0-11.699218 4.558594-22.703125 12.832031-30.976562 17.078125-17.082032 44.871094-17.078125 61.949219 0 8.277344 8.273437 12.832031 19.273437 12.832031 30.976562 0 11.699219-4.554687 22.703125-12.832031 30.976563-8.539062 8.542969-19.753906 12.8125-30.972656 12.8125zm0-57.589844c-3.535156 0-7.074219 1.347656-9.765625 4.039063-2.605469 2.609374-4.042969 6.074218-4.042969 9.761718s1.4375 7.15625 4.042969 9.765625c5.382812 5.378907 14.144531 5.382813 19.527343 0 2.605469-2.609375 4.042969-6.078125 4.042969-9.765625s-1.4375-7.152344-4.042969-9.761718c-2.691406-2.691407-6.226562-4.039063-9.761718-4.039063zm0 0"/></g></svg>