<svg viewBox="0 0 512 512" xmlns="http://www.w3.org/2000/svg" xmlns:xlink="http://www.w3.org/1999/xlink"><linearGradient id="a" gradientTransform="matrix(1 0 0 -1 0 -10018)" gradientUnits="userSpaceOnUse" x1="0" x2="512" y1="-10274" y2="-10274"><stop offset="0" stop-color="#31d8ff"/><stop offset="1" stop-color="#ff80ff"/></linearGradient><path d="m512 256c0 141.386719-114.613281 256-256 256s-256-114.613281-256-256 114.613281-256 256-256 256 114.613281 256 256zm0 0" fill="url(#a)"/><g fill="#fff"><path d="m392.863281 202.488281h-13.8125v-19.4375c0-67.851562-55.199219-123.050781-123.050781-123.050781s-123.050781 55.199219-123.050781 123.050781v19.4375h-13.8125c-8.285157 0-15 6.714844-15 15v197.511719c0 8.285156 6.714843 15 15 15h273.726562c8.285157 0 15-6.714844 15-15v-197.511719c0-8.285156-6.714843-15-15-15zm-229.914062-19.4375c0-51.308593 41.742187-93.050781 93.050781-93.050781s93.050781 41.742188 93.050781 93.050781v19.4375h-186.101562zm214.914062 216.949219h-243.726562v-167.511719h243.726562zm0 0"/><path d="m256 272.429688c-24.160156 0-43.8125 19.65625-43.8125 43.8125 0 24.160156 19.65625 43.816406 43.8125 43.816406s43.8125-19.65625 43.8125-43.816406c0-24.15625-19.652344-43.8125-43.8125-43.8125zm0 57.628906c-7.617188 0-13.8125-6.199219-13.8125-13.8125 0-7.617188 6.195312-13.8125 13.8125-13.8125s13.8125 6.195312 13.8125 13.8125c0 7.613281-6.195312 13.8125-13.8125 13.8125zm0 0"/></g></svg>