<svg viewBox="0 0 512 512" xmlns="http://www.w3.org/2000/svg" xmlns:xlink="http://www.w3.org/1999/xlink"><linearGradient id="a" gradientTransform="matrix(1 0 0 -1 0 -10018)" gradientUnits="userSpaceOnUse" x1="0" x2="512" y1="-10274" y2="-10274"><stop offset="0" stop-color="#31d8ff"/><stop offset="1" stop-color="#ff80ff"/></linearGradient><path d="m512 256c0 141.386719-114.613281 256-256 256s-256-114.613281-256-256 114.613281-256 256-256 256 114.613281 256 256zm0 0" fill="url(#a)"/><g fill="#fff"><path d="m427.363281 121.878906c-8.246093-.75-15.546875 5.328125-16.300781 13.578125l-1.734375 19.03125c-33.160156-51.019531-90.191406-83.488281-153.328125-83.488281-68.941406 0-131.40625 38.449219-163.015625 100.34375-3.769531 7.378906-.839844 16.414062 6.535156 20.183594 7.378907 3.765625 16.414063.839844 20.183594-6.539063 26.457031-51.804687 78.683594-83.988281 136.296875-83.988281 52.292969 0 99.589844 26.683594 127.433594 68.71875l-18.003906-12.859375c-6.738282-4.8125-16.109376-3.25-20.921876 3.492187-4.816406 6.738282-3.253906 16.109376 3.488282 20.921876l62.292968 44.488281c4.410157 3.15625 10.332032 3.644531 15.214844 1.308593 4.703125-2.25 7.96875-6.960937 8.441406-12.152343l6.996094-76.738281c.75-8.25-5.328125-15.546876-13.578125-16.300782-8.246093-.75 8.25.753906 0 0zm0 0"/><path d="m412.480469 320.472656c-7.378907-3.765625-16.414063-.839844-20.183594 6.539063-26.457031 51.804687-78.683594 83.988281-136.296875 83.988281-52.292969 0-99.589844-26.683594-127.433594-68.71875l18.003906 12.859375c6.738282 4.8125 16.109376 3.25 20.921876-3.492187 4.816406-6.738282 3.253906-16.109376-3.488282-20.921876l-62.292968-44.488281c-4.441407-3.175781-10.535157-3.699219-15.414063-1.207031-4.589844 2.339844-7.769531 6.894531-8.242187 12.050781l-6.996094 76.738281c-.75 8.25 5.328125 15.546876 13.578125 16.300782.460937.039062.921875.0625 1.378906.0625 7.667969 0 14.210937-5.855469 14.917969-13.640625l1.738281-19.03125c33.160156 51.019531 90.191406 83.488281 153.328125 83.488281 68.941406 0 131.40625-38.449219 163.015625-100.34375 3.769531-7.378906.839844-16.414062-6.535156-20.183594-7.378907-3.765625 7.375 3.769532 0 0zm0 0"/></g></svg>