<svg viewBox="0 0 512 512" xmlns="http://www.w3.org/2000/svg" xmlns:xlink="http://www.w3.org/1999/xlink"><linearGradient id="a" gradientTransform="matrix(1 0 0 -1 0 -8954)" gradientUnits="userSpaceOnUse" x1="0" x2="512" y1="-9210" y2="-9210"><stop offset="0" stop-color="#31d8ff"/><stop offset="1" stop-color="#ff80ff"/></linearGradient><path d="m512 256c0 141.386719-114.613281 256-256 256s-256-114.613281-256-256 114.613281-256 256-256 256 114.613281 256 256zm0 0" fill="url(#a)"/><g fill="#fff"><path d="m397.835938 412h-283.671876c-19.390624 0-35.164062-15.777344-35.164062-35.167969v-81.335937c0-8.28125 6.714844-15 15-15s15 6.71875 15 15v81.335937c0 2.851563 2.316406 5.167969 5.164062 5.167969h283.671876c2.847656 0 5.164062-2.316406 5.164062-5.167969v-81.335937c0-8.28125 6.714844-15 15-15s15 6.71875 15 15v81.335937c0 19.390625-15.773438 35.167969-35.164062 35.167969zm0 0"/><path d="m296.332031 356.878906h-80.664062c-8.285157 0-15-6.71875-15-15v-147h-45.496094c-5.988281 0-11.402344-3.5625-13.773437-9.058594-2.371094-5.5-1.246094-11.878906 2.859374-16.234374l100.832032-106.882813c2.832031-3.003906 6.78125-4.707031 10.910156-4.707031s8.078125 1.703125 10.910156 4.707031l100.832032 106.882813c4.105468 4.351562 5.230468 10.734374 2.859374 16.234374-2.371093 5.496094-7.785156 9.058594-13.773437 9.058594h-45.496094v147c0 8.285156-6.714843 15-15 15zm-65.664062-30h50.664062v-147c0-8.285156 6.714844-15 15-15h25.726563l-66.058594-70.023437-66.058594 70.023437h25.726563c8.285156 0 15 6.714844 15 15zm0 0"/></g></svg>