<svg viewBox="0 0 512 512" xmlns="http://www.w3.org/2000/svg" xmlns:xlink="http://www.w3.org/1999/xlink"><linearGradient id="a" gradientTransform="matrix(1 0 0 -1 0 -8954)" gradientUnits="userSpaceOnUse" x1="0" x2="512" y1="-9210" y2="-9210"><stop offset="0" stop-color="#31d8ff"/><stop offset="1" stop-color="#ff80ff"/></linearGradient><path d="m512 256c0 141.386719-114.613281 256-256 256s-256-114.613281-256-256 114.613281-256 256-256 256 114.613281 256 256zm0 0" fill="url(#a)"/><g fill="#fff"><path d="m397.835938 414h-283.671876c-19.390624 0-35.164062-15.777344-35.164062-35.167969v-81.335937c0-8.28125 6.714844-15 15-15s15 6.71875 15 15v81.335937c0 2.851563 2.316406 5.167969 5.164062 5.167969h283.671876c2.847656 0 5.164062-2.316406 5.164062-5.167969v-81.335937c0-8.28125 6.714844-15 15-15s15 6.71875 15 15v81.335937c0 19.390625-15.773438 35.167969-35.164062 35.167969zm0 0"/><path d="m256 358.878906c-4.128906 0-8.078125-1.703125-10.910156-4.707031l-100.832032-106.878906c-4.105468-4.355469-5.230468-10.738281-2.859374-16.234375 2.371093-5.5 7.785156-9.0625 13.773437-9.0625h45.496094v-147c0-8.28125 6.714843-15 15-15h80.664062c8.285157 0 15 6.71875 15 15v147h45.496094c5.988281 0 11.402344 3.5625 13.773437 9.0625 2.371094 5.496094 1.246094 11.878906-2.859374 16.234375l-100.832032 106.878906c-2.832031 3.003906-6.78125 4.707031-10.910156 4.707031zm-66.058594-106.878906 66.058594 70.019531 66.058594-70.019531h-25.726563c-8.285156 0-15-6.71875-15-15v-147h-50.664062v147c0 8.28125-6.714844 15-15 15zm0 0"/></g></svg>