<svg viewBox="0 0 512 512" xmlns="http://www.w3.org/2000/svg" xmlns:xlink="http://www.w3.org/1999/xlink"><linearGradient id="a" gradientTransform="matrix(1 0 0 -1 0 -8954)" gradientUnits="userSpaceOnUse" x1="0" x2="512" y1="-9210" y2="-9210"><stop offset="0" stop-color="#31d8ff"/><stop offset="1" stop-color="#ff80ff"/></linearGradient><path d="m512 256c0 141.386719-114.613281 256-256 256s-256-114.613281-256-256 114.613281-256 256-256 256 114.613281 256 256zm0 0" fill="url(#a)"/><g fill="#fff"><path d="m256 456c-110.28125 0-200-89.71875-200-200s89.71875-200 200-200 200 89.71875 200 200-89.71875 200-200 200zm0-370c-93.738281 0-170 76.261719-170 170s76.261719 170 170 170 170-76.261719 170-170-76.261719-170-170-170zm0 0"/><path d="m207.605469 319.394531c-3.839844 0-7.675781-1.464843-10.605469-4.394531-5.859375-5.859375-5.859375-15.355469 0-21.214844l44-44v-107.800781c0-8.28125 6.714844-15 15-15s15 6.71875 15 15v114.015625c0 3.976562-1.578125 7.792969-4.394531 10.605469l-48.394531 48.394531c-2.925782 2.929688-6.765626 4.394531-10.605469 4.394531zm0 0"/></g></svg>