<svg viewBox="0 0 512 512" xmlns="http://www.w3.org/2000/svg" xmlns:xlink="http://www.w3.org/1999/xlink"><linearGradient id="a" gradientTransform="matrix(1 0 0 -1 0 -8954)" gradientUnits="userSpaceOnUse" x1="0" x2="512" y1="-9210" y2="-9210"><stop offset="0" stop-color="#31d8ff"/><stop offset="1" stop-color="#ff80ff"/></linearGradient><path d="m512 256c0 141.386719-114.613281 256-256 256s-256-114.613281-256-256 114.613281-256 256-256 256 114.613281 256 256zm0 0" fill="url(#a)"/><path d="m372.695312 79h-163.433593c-.078125 0-.152344.011719-.230469.011719-.328125.003906-.660156.019531-.988281.046875-.121094.011718-.242188.015625-.363281.03125-.425782.042968-.855469.105468-1.277344.1875-.074219.011718-.148438.035156-.222656.046875-.355469.074219-.703126.164062-1.050782.261719-.132812.039062-.261718.078124-.390625.117187-.308593.101563-.617187.210937-.921875.328125-.105468.042969-.214844.078125-.324218.125-.402344.167969-.800782.351562-1.1875.554688-.039063.019531-.078126.046874-.121094.066406-.34375.1875-.679688.386718-1.011719.597656-.109375.070312-.210937.140625-.316406.210938-.273438.183593-.539063.378906-.800781.582031-.097657.074219-.195313.148437-.292969.226562-.339844.28125-.675781.574219-.996094.886719l-90.546875 88.667969c-.328125.320312-.632812.660156-.929688 1.003906-.078124.09375-.15625.191406-.234374.289063-.214844.269531-.425782.542968-.621094.828124-.070313.097657-.140625.195313-.207032.292969-.5.753907-.925781 1.542969-1.28125 2.363281-.046874.113282-.089843.222657-.136718.335938-.128906.320312-.246094.640625-.351563.964844-.035156.117187-.074219.226562-.109375.34375-.128906.425781-.242187.855468-.328125 1.289062-.011719.050782-.015625.097656-.027343.144532-.074219.394531-.132813.789062-.179688 1.1875-.011719.128906-.023438.253906-.035156.382812-.03125.359375-.046875.71875-.054688 1.082031 0 .070313-.007812.136719-.007812.207031v215.164063c0 19.394531 15.964844 35.167969 35.59375 35.167969h233.386718c19.628907 0 35.59375-15.773438 35.59375-35.167969v-283.664063c0-19.390624-15.96875-35.164062-35.59375-35.164062zm-178.433593 50.683594v37.984375h-38.792969l19.65625-19.246094zm184.027343 268.152344c0 2.847656-2.511718 5.164062-5.59375 5.164062h-233.390624c-3.082032 0-5.59375-2.316406-5.59375-5.164062v-200.167969h75.550781c8.28125 0 15-6.714844 15-15v-73.667969h148.433593c3.082032 0 5.59375 2.316406 5.59375 5.164062zm0 0" fill="#fff"/></svg>