<svg viewBox="0 0 512 512" xmlns="http://www.w3.org/2000/svg" xmlns:xlink="http://www.w3.org/1999/xlink"><linearGradient id="a" gradientTransform="matrix(1 0 0 -1 0 -8954)" gradientUnits="userSpaceOnUse" x1="0" x2="512" y1="-9210" y2="-9210"><stop offset="0" stop-color="#31d8ff"/><stop offset="1" stop-color="#ff80ff"/></linearGradient><path d="m512 256c0 141.386719-114.613281 256-256 256s-256-114.613281-256-256 114.613281-256 256-256 256 114.613281 256 256zm0 0" fill="url(#a)"/><path d="m409.984375 189.71875-144.066406-126.972656c-5.667969-4.996094-14.167969-4.996094-19.835938 0l-144.066406 126.972656c-3.234375 2.847656-5.082031 6.945312-5.082031 11.25v213.03125c0 8.28125 6.714844 15 15 15h288.132812c8.285156 0 15-6.71875 15-15v-213.03125c0-4.304688-1.847656-8.40625-5.082031-11.25zm-193.007813 209.28125v-96.972656h78.050782v96.972656zm168.089844 0h-60.039062v-111.972656c0-8.285156-6.71875-15-15-15h-108.050782c-8.285156 0-15 6.714844-15 15v111.972656h-60.042968v-191.253906l129.066406-113.753906 129.066406 113.75zm0 0" fill="#fff"/></svg>