<svg viewBox="0 0 512 512" xmlns="http://www.w3.org/2000/svg" xmlns:xlink="http://www.w3.org/1999/xlink"><linearGradient id="a" gradientTransform="matrix(1 0 0 -1 0 -7890)" gradientUnits="userSpaceOnUse" x1="0" x2="512" y1="-8146" y2="-8146"><stop offset="0" stop-color="#31d8ff"/><stop offset="1" stop-color="#ff80ff"/></linearGradient><path d="m512 256c0 141.386719-114.613281 256-256 256s-256-114.613281-256-256 114.613281-256 256-256 256 114.613281 256 256zm0 0" fill="url(#a)"/><g fill="#fff"><path d="m400.066406 113.324219h-93.050781v-27.324219c0-8.285156-6.714844-15-15-15h-72.03125c-8.285156 0-15 6.714844-15 15v27.324219h-93.050781c-8.285156 0-15 6.714843-15 15v56.433593c0 8.28125 6.714844 15 15 15h21.015625v204.632813c0 20.1875 16.421875 36.609375 36.609375 36.609375h172.882812c20.1875 0 36.609375-16.421875 36.609375-36.609375v-204.636719h21.015625c8.285156 0 15-6.714844 15-15v-56.429687c0-8.285157-6.714844-15-15-15zm-165.082031-12.324219h42.03125v12.324219h-42.03125zm114.066406 303.390625c0 3.644531-2.964843 6.609375-6.609375 6.609375h-172.882812c-3.644532 0-6.609375-2.964844-6.609375-6.609375v-204.636719h186.101562zm36.015625-234.636719h-258.132812v-26.429687h258.132812zm0 0"/><path d="m219.984375 390.917969c8.28125 0 15-6.71875 15-15v-141.078125c0-8.285156-6.71875-15-15-15-8.285156 0-15 6.714844-15 15v141.078125c0 8.28125 6.714844 15 15 15zm0 0"/><path d="m292.015625 390.917969c8.285156 0 15-6.71875 15-15v-141.078125c0-8.285156-6.714844-15-15-15-8.28125 0-15 6.714844-15 15v141.078125c0 8.28125 6.714844 15 15 15zm0 0"/></g></svg>