<svg viewBox="0 0 512 512" xmlns="http://www.w3.org/2000/svg" xmlns:xlink="http://www.w3.org/1999/xlink"><linearGradient id="a" gradientTransform="matrix(1 0 0 -1 0 -7890)" gradientUnits="userSpaceOnUse" x1="0" x2="512" y1="-8146" y2="-8146"><stop offset="0" stop-color="#31d8ff"/><stop offset="1" stop-color="#ff80ff"/></linearGradient><path d="m512 256c0 141.386719-114.613281 256-256 256s-256-114.613281-256-256 114.613281-256 256-256 256 114.613281 256 256zm0 0" fill="url(#a)"/><g fill="#fff"><path d="m256 318.035156c-34.207031 0-62.035156-27.828125-62.035156-62.035156s27.828125-62.035156 62.035156-62.035156 62.035156 27.828125 62.035156 62.035156-27.828125 62.035156-62.035156 62.035156zm0-94.070312c-17.664062 0-32.035156 14.371094-32.035156 32.035156s14.371094 32.035156 32.035156 32.035156 32.035156-14.371094 32.035156-32.035156-14.371094-32.035156-32.035156-32.035156zm0 0"/><path d="m295.3125 456h-78.628906c-7.453125 0-13.773438-5.472656-14.84375-12.847656l-7.285156-50.253906c-10.128907-4.371094-19.722657-9.804688-28.664063-16.238282l-48.511719 19.105469c-6.859375 2.699219-14.667968.015625-18.414062-6.335937l-39.316406-66.613282c-3.855469-6.53125-2.226563-14.917968 3.796874-19.53125l40.898438-31.335937c-.578125-5.304688-.867188-10.640625-.867188-15.949219s.289063-10.644531.867188-15.949219l-40.898438-31.335937c-6.023437-4.613282-7.652343-13-3.796874-19.53125l39.316406-66.613282c3.746094-6.351562 11.558594-9.035156 18.414062-6.335937l48.511719 19.105469c8.941406-6.433594 18.535156-11.867188 28.664063-16.238282l7.285156-50.253906c1.070312-7.375 7.390625-12.847656 14.847656-12.847656h78.628906c7.453125 0 13.773438 5.472656 14.84375 12.847656l7.285156 50.253906c10.128907 4.371094 19.722657 9.804688 28.664063 16.238282l48.511719-19.105469c6.863281-2.703125 14.667968-.015625 18.414062 6.335937l39.316406 66.613282c3.855469 6.53125 2.226563 14.917968-3.796874 19.53125l-40.898438 31.335937c.578125 5.304688.867188 10.640625.867188 15.949219s-.289063 10.644531-.867188 15.949219l40.898438 31.335937c6.023437 4.613282 7.652343 13 3.796874 19.53125l-39.316406 66.613282c-3.746094 6.351562-11.554687 9.035156-18.414062 6.335937l-48.511719-19.105469c-8.941406 6.433594-18.535156 11.867188-28.664063 16.238282l-7.285156 50.253906c-1.070312 7.375-7.390625 12.847656-14.847656 12.847656zm-65.644531-30h52.664062l6.664063-45.988281c.792968-5.46875 4.53125-10.0625 9.726562-11.949219 12.9375-4.695312 24.902344-11.460938 35.5625-20.109375 4.199219-3.410156 9.914063-4.292969 14.949219-2.308594l44.472656 17.515625 26.054688-44.144531-37.289063-28.574219c-4.429687-3.390625-6.609375-8.957031-5.660156-14.457031 1.136719-6.59375 1.714844-13.316406 1.714844-19.984375s-.578125-13.394531-1.714844-19.988281c-.949219-5.496094 1.230469-11.0625 5.660156-14.457031l37.289063-28.570313-26.054688-44.144531-44.472656 17.511718c-5.035156 1.984376-10.746094 1.101563-14.949219-2.304687-10.660156-8.648437-22.625-15.417969-35.5625-20.113281-5.195312-1.886719-8.933594-6.476563-9.726562-11.949219l-6.664063-45.984375h-52.664062l-6.664063 45.988281c-.792968 5.46875-4.53125 10.0625-9.726562 11.949219-12.9375 4.695312-24.902344 11.460938-35.5625 20.109375-4.199219 3.410156-9.914063 4.292969-14.949219 2.308594l-44.472656-17.515625-26.054688 44.144531 37.289063 28.574219c4.429687 3.390625 6.609375 8.957031 5.660156 14.457031-1.136719 6.59375-1.714844 13.316406-1.714844 19.984375s.578125 13.394531 1.714844 19.988281c.949219 5.496094-1.230469 11.0625-5.660156 14.457031l-37.289063 28.570313 26.054688 44.144531 44.472656-17.511718c5.035156-1.984376 10.746094-1.101563 14.949219 2.304687 10.660156 8.648437 22.625 15.417969 35.5625 20.113281 5.195312 1.886719 8.933594 6.476563 9.726562 11.949219zm0 0"/></g></svg>