<svg viewBox="0 0 512 512" xmlns="http://www.w3.org/2000/svg" xmlns:xlink="http://www.w3.org/1999/xlink"><linearGradient id="a" gradientTransform="matrix(1 0 0 -1 0 -7890)" gradientUnits="userSpaceOnUse" x1="0" x2="512" y1="-8146" y2="-8146"><stop offset="0" stop-color="#31d8ff"/><stop offset="1" stop-color="#ff80ff"/></linearGradient><path d="m512 256c0 141.386719-114.613281 256-256 256s-256-114.613281-256-256 114.613281-256 256-256 256 114.613281 256 256zm0 0" fill="url(#a)"/><g fill="#fff"><path d="m401.105469 387.894531-92-92c18.921875-23.636719 29.203125-52.773437 29.203125-83.492187 0-35.765625-13.925782-69.390625-39.21875-94.683594-25.292969-25.292969-58.917969-39.222656-94.6875-39.222656-35.765625 0-69.394532 13.929687-94.683594 39.222656-25.292969 25.292969-39.222656 58.917969-39.222656 94.683594 0 35.769531 13.929687 69.394531 39.222656 94.6875 26.105469 26.109375 60.390625 39.160156 94.683594 39.15625 29.578125 0 59.15625-9.722656 83.480468-29.148438l92.007813 92.007813c2.929687 2.929687 6.769531 4.394531 10.605469 4.394531 3.839844 0 7.679687-1.464844 10.605468-4.394531 5.863282-5.859375 5.863282-15.355469.003907-21.210938zm-270.171875-102.015625c-19.625-19.625-30.433594-45.71875-30.433594-73.476562 0-27.753906 10.808594-53.84375 30.433594-73.46875s45.714844-30.433594 73.46875-30.433594 53.851562 10.808594 73.476562 30.433594 30.433594 45.714844 30.433594 73.46875-10.808594 53.847656-30.433594 73.476562c-20.261718 20.257813-46.863281 30.386719-73.476562 30.382813-26.601563-.003907-53.214844-10.128907-73.46875-30.382813zm0 0"/><path d="m282.683594 212.40625c0-8.285156-6.714844-15-15-15h-126.558594c-8.28125 0-15 6.714844-15 15 0 8.28125 6.71875 15 15 15h126.558594c8.285156 0 15-6.71875 15-15zm0 0"/></g></svg>