<svg viewBox="0 0 512 512" xmlns="http://www.w3.org/2000/svg" xmlns:xlink="http://www.w3.org/1999/xlink"><linearGradient id="a" gradientTransform="matrix(1 0 0 -1 0 -7890)" gradientUnits="userSpaceOnUse" x1="0" x2="512" y1="-8146" y2="-8146"><stop offset="0" stop-color="#31d8ff"/><stop offset="1" stop-color="#ff80ff"/></linearGradient><path d="m512 256c0 141.386719-114.613281 256-256 256s-256-114.613281-256-256 114.613281-256 256-256 256 114.613281 256 256zm0 0" fill="url(#a)"/><g fill="#fff"><path d="m401.105469 387.894531-92.007813-92.007812c41.945313-52.527344 38.617188-129.542969-10.007812-178.167969-25.292969-25.289062-58.917969-39.21875-94.6875-39.21875-35.765625 0-69.394532 13.929688-94.683594 39.21875-25.292969 25.292969-39.222656 58.917969-39.222656 94.6875 0 35.765625 13.929687 69.394531 39.222656 94.683594 26.101562 26.105468 60.394531 39.15625 94.683594 39.15625 29.582031 0 59.15625-9.71875 83.484375-29.144532l92.003906 92.003907c2.929687 2.929687 6.769531 4.394531 10.605469 4.394531 3.839844 0 7.679687-1.464844 10.609375-4.394531 5.859375-5.859375 5.859375-15.355469 0-21.210938zm-270.171875-102.015625c-19.625-19.625-30.433594-45.71875-30.433594-73.476562 0-27.753906 10.808594-53.84375 30.433594-73.46875s45.714844-30.433594 73.46875-30.433594 53.847656 10.808594 73.476562 30.433594c40.511719 40.511718 40.511719 106.429687 0 146.945312-40.515625 40.511719-106.433594 40.511719-146.945312 0zm0 0"/><path d="m282.683594 212.40625c0-8.285156-6.71875-15-15-15h-48.28125v-48.277344c0-8.285156-6.714844-15-15-15-8.28125 0-15 6.714844-15 15v48.277344h-48.277344c-8.28125 0-15 6.714844-15 15 0 8.28125 6.71875 15 15 15h48.277344v48.277344c0 8.285156 6.71875 15 15 15 8.285156 0 15-6.714844 15-15v-48.277344h48.28125c8.28125 0 15-6.71875 15-15zm0 0"/></g></svg>