<svg viewBox="0 0 512 512" xmlns="http://www.w3.org/2000/svg" xmlns:xlink="http://www.w3.org/1999/xlink"><linearGradient id="a" gradientTransform="matrix(1 0 0 -1 0 -25978)" gradientUnits="userSpaceOnUse" x1="0" x2="512" y1="-26234" y2="-26234"><stop offset="0" stop-color="#31d8ff"/><stop offset="1" stop-color="#ff80ff"/></linearGradient><path d="m512 256c0 141.386719-114.613281 256-256 256s-256-114.613281-256-256 114.613281-256 256-256 256 114.613281 256 256zm0 0" fill="url(#a)"/><g fill="#fff"><path d="m418 271h-219.660156c-8.285156 0-15-6.714844-15-15s6.714844-15 15-15h219.660156c8.285156 0 15 6.714844 15 15s-6.714844 15-15 15zm0 0"/><path d="m418 168.035156h-219.660156c-8.285156 0-15-6.71875-15-15 0-8.285156 6.714844-15 15-15h219.660156c8.285156 0 15 6.714844 15 15 0 8.28125-6.714844 15-15 15zm0 0"/><path d="m418 373.964844h-219.660156c-8.285156 0-15-6.714844-15-15 0-8.28125 6.714844-15 15-15h219.660156c8.285156 0 15 6.71875 15 15 0 8.285156-6.714844 15-15 15zm0 0"/><path d="m127.6875 276.59375h-26.191406c-4.140625 0-7.496094-3.359375-7.496094-7.5v-26.191406c0-4.140625 3.355469-7.496094 7.496094-7.496094h26.191406c4.140625 0 7.5 3.355469 7.5 7.496094v26.191406c0 4.140625-3.359375 7.5-7.5 7.5zm0 0"/><path d="m127.6875 173.628906h-26.191406c-4.140625 0-7.496094-3.359375-7.496094-7.5v-26.191406c0-4.140625 3.355469-7.496094 7.496094-7.496094h26.191406c4.140625 0 7.5 3.355469 7.5 7.496094v26.191406c0 4.140625-3.359375 7.5-7.5 7.5zm0 0"/><path d="m127.6875 379.558594h-26.191406c-4.140625 0-7.496094-3.355469-7.496094-7.496094v-26.191406c0-4.140625 3.355469-7.5 7.496094-7.5h26.191406c4.140625 0 7.5 3.359375 7.5 7.5v26.191406c0 4.140625-3.359375 7.496094-7.5 7.496094zm0 0"/></g></svg>