<svg viewBox="0 0 512 512" xmlns="http://www.w3.org/2000/svg" xmlns:xlink="http://www.w3.org/1999/xlink"><linearGradient id="a" gradientTransform="matrix(1 0 0 -1 0 -5762)" gradientUnits="userSpaceOnUse" x1="0" x2="512" y1="-6018" y2="-6018"><stop offset="0" stop-color="#31d8ff"/><stop offset="1" stop-color="#ff80ff"/></linearGradient><path d="m512 256c0 141.386719-114.613281 256-256 256s-256-114.613281-256-256 114.613281-256 256-256 256 114.613281 256 256zm0 0" fill="url(#a)"/><path d="m441 241h-170v-170c0-8.285156-6.714844-15-15-15s-15 6.714844-15 15v170h-170c-8.285156 0-15 6.714844-15 15s6.714844 15 15 15h170v170c0 8.285156 6.714844 15 15 15s15-6.714844 15-15v-170h170c8.285156 0 15-6.714844 15-15s-6.714844-15-15-15zm0 0" fill="#fff"/></svg>