<svg id="Material" xmlns="http://www.w3.org/2000/svg" xmlns:xlink="http://www.w3.org/1999/xlink" viewBox="0 0 192 192"><defs><style>.cls-1{fill:none;}.cls-2{clip-path:url(#clip-path);}.cls-3{fill:#fddb4d;}.cls-4{fill-opacity:0.04;}.cls-5{fill:#fff;fill-opacity:0.2;}</style><clipPath id="clip-path"><rect id="CLIP" class="cls-1" width="192" height="192"/></clipPath></defs><title>CLEAR1</title><g id="CLEAR1"><g class="cls-2"><circle id="Sun" class="cls-3" cx="96" cy="96" r="86"/><path id="Edge-shadow" class="cls-4" d="M96,181.5A86,86,0,0,1,10,95.75c0,.08,0,.17,0,.25a86,86,0,0,0,172,0c0-.08,0-.17,0-.25A86,86,0,0,1,96,181.5Z"/><path id="Edge-highlight" class="cls-5" d="M96,10.5a86,86,0,0,1,86,85.75c0-.08,0-.17,0-.25A86,86,0,0,0,10,96c0,.08,0,.17,0,.25A86,86,0,0,1,96,10.5Z"/></g></g></svg>