<svg id="Material" xmlns="http://www.w3.org/2000/svg" xmlns:xlink="http://www.w3.org/1999/xlink" viewBox="0 0 192 192"><defs><style>.cls-1{fill:none;}.cls-2{clip-path:url(#clip-path);}.cls-3{fill:#c7dafb;}.cls-4{fill-opacity:0.04;}.cls-5{fill:#fff;fill-opacity:0.2;}</style><clipPath id="clip-path"><rect id="CLIP" class="cls-1" width="192" height="192"/></clipPath></defs><title>CLEAR0</title><g id="CLEAR0"><g class="cls-2"><path id="Moon" class="cls-3" d="M168.09,142.9A86,86,0,1,1,91.91,10.1,86,86,0,0,0,164,143C165.37,143,166.73,143,168.09,142.9Z"/><path id="Edge-shadow" class="cls-4" d="M96,181.5A86,86,0,0,1,10,95.75c0,.08,0,.16,0,.25a86,86,0,0,0,158.09,46.9h-.35A85.87,85.87,0,0,1,96,181.5Z"/><path id="Edge-shadow-2" data-name="Edge-shadow" class="cls-4" d="M78,56.71A85.48,85.48,0,0,1,91.91,10.1l-.33,0A85.6,85.6,0,0,0,78,56.5C78,56.57,78,56.64,78,56.71Z"/><path id="Edge-highlight" class="cls-5" d="M164,143.5c1.25,0,2.5,0,3.74-.09l.35-.51c-1.36.07-2.72.1-4.09.1A86,86,0,0,1,78,57.21c0,.1,0,.19,0,.29A86,86,0,0,0,164,143.5Z"/><path id="Edge-highlight-2" data-name="Edge-highlight" class="cls-5" d="M91.58,10.62l.33-.52A86,86,0,0,0,10,96c0,.08,0,.16,0,.25A86,86,0,0,1,91.58,10.62Z"/></g></g></svg>