<svg id="Material" xmlns="http://www.w3.org/2000/svg" xmlns:xlink="http://www.w3.org/1999/xlink" viewBox="0 0 192 192"><defs><style>.cls-1{fill:none;}.cls-2{clip-path:url(#clip-path);}.cls-3{fill:#dbdbdb;}.cls-4{fill-opacity:0.04;}.cls-5{fill:#fff;fill-opacity:0.2;}</style><clipPath id="clip-path"><rect id="CLIP" class="cls-1" width="192" height="192"/></clipPath></defs><title>TORNADO</title><g id="TORNADO"><g class="cls-2"><path id="Shape" class="cls-3" d="M118,168H82a24,24,0,0,1,0-48h52a8,8,0,0,0,0-16H58a24,24,0,0,1,0-48h92a8,8,0,0,0,0-16H18V24H150a24,24,0,0,1,0,48H58a8,8,0,0,0,0,16h76a24,24,0,0,1,0,48H82a8,8,0,0,0,0,16h36Z"/><path id="Edge-shadow" class="cls-4" d="M58,143.75c0,.08,0,.17,0,.25a24,24,0,0,0,24,24h36v-.5H82A24,24,0,0,1,58,143.75Z"/><path id="Edge-shadow-2" data-name="Edge-shadow" class="cls-4" d="M134,135.5H82a8,8,0,0,0-8,8c0,.08,0,.17,0,.25A8,8,0,0,1,82,136h52a24,24,0,0,0,24-24c0-.08,0-.17,0-.25A24,24,0,0,1,134,135.5Z"/><path id="Edge-shadow-3" data-name="Edge-shadow" class="cls-4" d="M134,103.5H58A24,24,0,0,1,34,79.75c0,.08,0,.17,0,.25a24,24,0,0,0,24,24h76a8,8,0,0,1,8,7.75c0-.08,0-.17,0-.25A8,8,0,0,0,134,103.5Z"/><path id="Edge-shadow-4" data-name="Edge-shadow" class="cls-4" d="M150,71.5H58a8,8,0,0,0-8,8c0,.08,0,.17,0,.25A8,8,0,0,1,58,72h92a24,24,0,0,0,24-24c0-.08,0-.17,0-.25A24,24,0,0,1,150,71.5Z"/><path id="Edge-shadow-5" data-name="Edge-shadow" class="cls-4" d="M150,39.5H18V40H150a8,8,0,0,1,8,7.75c0-.08,0-.17,0-.25A8,8,0,0,0,150,39.5Z"/><path id="Edge-highlighlt" class="cls-5" d="M82,152.5h36V152H82a8,8,0,0,1-8-7.75c0,.08,0,.17,0,.25A8,8,0,0,0,82,152.5Z"/><path id="Edge-highlighlt-2" data-name="Edge-highlighlt" class="cls-5" d="M82,120.5h52a8,8,0,0,0,8-8c0-.08,0-.17,0-.25a8,8,0,0,1-8,7.75H82a24,24,0,0,0-24,24c0,.08,0,.17,0,.25A24,24,0,0,1,82,120.5Z"/><path id="Edge-highlighlt-3" data-name="Edge-highlighlt" class="cls-5" d="M58,88.5h76a24,24,0,0,1,24,23.75c0-.08,0-.17,0-.25a24,24,0,0,0-24-24H58a8,8,0,0,1-8-7.75c0,.08,0,.17,0,.25A8,8,0,0,0,58,88.5Z"/><path id="Edge-highlighlt-4" data-name="Edge-highlighlt" class="cls-5" d="M58,56.5h92a8,8,0,0,0,8-8c0-.08,0-.17,0-.25A8,8,0,0,1,150,56H58A24,24,0,0,0,34,80c0,.08,0,.17,0,.25A24,24,0,0,1,58,56.5Z"/><path id="Edge-highlighlt-5" data-name="Edge-highlighlt" class="cls-5" d="M150,24H18v.5H150a24,24,0,0,1,24,23.75c0-.08,0-.17,0-.25A24,24,0,0,0,150,24Z"/></g></g></svg>