<svg id="Material" xmlns="http://www.w3.org/2000/svg" xmlns:xlink="http://www.w3.org/1999/xlink" viewBox="0 0 192 192"><defs><style>.cls-1{fill:none;}.cls-2{clip-path:url(#clip-path);}.cls-3,.cls-5{fill:#fff;}.cls-4{fill-opacity:0.04;}.cls-5{fill-opacity:0.2;}.cls-6{fill:#bcbcbc;}</style><clipPath id="clip-path"><rect id="CLIP" class="cls-1" width="192" height="192"/></clipPath></defs><title>UNKNOWN</title><g id="UNKNOWN"><g class="cls-2"><circle id="Shape" class="cls-3" cx="96" cy="96" r="86"/><path id="Edge-shadow" class="cls-4" d="M96,181.5A86,86,0,0,1,10,95.75c0,.08,0,.17,0,.25a86,86,0,0,0,172,0c0-.08,0-.17,0-.25A86,86,0,0,1,96,181.5Z"/><path id="Edge-highlight" class="cls-5" d="M96,10.5a86,86,0,0,1,86,85.75c0-.08,0-.17,0-.25A86,86,0,0,0,10,96c0,.08,0,.17,0,.25A86,86,0,0,1,96,10.5Z"/><path id="Questionmark" class="cls-6" d="M106.16,142.31a10.14,10.14,0,0,1-3,7.33,10.42,10.42,0,1,1-14.74-14.73,10.35,10.35,0,0,1,17.72,7.4Zm-3.21-31q.15-7.94,9-16t12.06-14A25.32,25.32,0,0,0,127.23,69q0-12.68-8.78-20.84T95.92,40a31,31,0,0,0-19.24,6.26A35.22,35.22,0,0,0,64.77,62.6L77.9,68.1q4.74-14.67,18-14.66,7.8,0,12.37,4.2T112.87,69a15.47,15.47,0,0,1-2.52,8.71q-2.52,3.81-9.62,10.38T91.11,99.56a23.93,23.93,0,0,0-2.52,11.14v7.18H103Z"/></g></g></svg>