<svg id="Material" xmlns="http://www.w3.org/2000/svg" xmlns:xlink="http://www.w3.org/1999/xlink" viewBox="0 0 192 192"><defs><style>.cls-1{fill:none;}.cls-2{clip-path:url(#clip-path);}.cls-3{fill:#dbdbdb;}.cls-4{fill-opacity:0.04;}.cls-5{fill:#fff;fill-opacity:0.2;}</style><clipPath id="clip-path"><rect id="CLIP" class="cls-1" width="192" height="192"/></clipPath></defs><title>WINDY</title><g id="WINDY"><g class="cls-2"><path id="Shape" class="cls-3" d="M82,162H70V146H82a8,8,0,0,0,0-16H18V114H82a24,24,0,0,1,0,48Z"/><path id="Edge-shadow" class="cls-4" d="M82,161.5H70v.5H82a24,24,0,0,0,24-24c0-.08,0-.17,0-.25A24,24,0,0,1,82,161.5Z"/><path id="Edge-shadow-2" data-name="Edge-shadow" class="cls-4" d="M90,137.75c0-.08,0-.17,0-.25a8,8,0,0,0-8-8H18v.5H82A8,8,0,0,1,90,137.75Z"/><path id="Edge-highlighlt" class="cls-5" d="M82,146H70v.5H82a8,8,0,0,0,8-8c0-.08,0-.17,0-.25A8,8,0,0,1,82,146Z"/><path id="Edge-highlighlt-2" data-name="Edge-highlighlt" class="cls-5" d="M82,114H18v.5H82a24,24,0,0,1,24,23.75c0-.08,0-.17,0-.25A24,24,0,0,0,82,114Z"/><path id="Shape-2" data-name="Shape" class="cls-3" d="M150,136H138V120h12a8,8,0,0,0,0-16H18V88H150a24,24,0,0,1,0,48Z"/><path id="Edge-shadow-3" data-name="Edge-shadow" class="cls-4" d="M150,135.5H138v.5h12a24,24,0,0,0,24-24c0-.08,0-.17,0-.25A24,24,0,0,1,150,135.5Z"/><path id="Edge-shadow-4" data-name="Edge-shadow" class="cls-4" d="M158,111.75c0-.08,0-.17,0-.25a8,8,0,0,0-8-8H18v.5H150A8,8,0,0,1,158,111.75Z"/><path id="Edge-highlighlt-3" data-name="Edge-highlighlt" class="cls-5" d="M150,120H138v.5h12a8,8,0,0,0,8-8c0-.08,0-.17,0-.25A8,8,0,0,1,150,120Z"/><path id="Edge-highlighlt-4" data-name="Edge-highlighlt" class="cls-5" d="M150,88H18v.5H150a24,24,0,0,1,24,23.75c0-.08,0-.17,0-.25A24,24,0,0,0,150,88Z"/><path id="Shape-3" data-name="Shape" class="cls-3" d="M114,80H18V64h96a8,8,0,0,0,0-16H102V32h12a24,24,0,0,1,0,48Z"/><path id="Edge-shadow-5" data-name="Edge-shadow" class="cls-4" d="M138,56c0-.08,0-.17,0-.25A24,24,0,0,1,114,79.5H18V80h96A24,24,0,0,0,138,56Z"/><path id="Edge-shadow-6" data-name="Edge-shadow" class="cls-4" d="M114,47.5H102V48h12a8,8,0,0,1,8,7.75c0-.08,0-.17,0-.25A8,8,0,0,0,114,47.5Z"/><path id="Edge-highlighlt-5" data-name="Edge-highlighlt" class="cls-5" d="M122,56.5c0-.08,0-.17,0-.25A8,8,0,0,1,114,64H18v.5h96A8,8,0,0,0,122,56.5Z"/><path id="Edge-highlighlt-6" data-name="Edge-highlighlt" class="cls-5" d="M114,32H102v.5h12a24,24,0,0,1,24,23.75c0-.08,0-.17,0-.25A24,24,0,0,0,114,32Z"/></g></g></svg>