<svg id="Capa_1" enable-background="new 0 0 512 512" height="512" viewBox="0 0 512 512" width="512" xmlns="http://www.w3.org/2000/svg"><g><path d="m205.966 292.561-51.768 42.044c-29.639 24.072-46.849 60.22-46.849 98.402v30.426h297.301v-30.426c0-38.182-17.21-74.331-46.849-98.402l-51.767-42.044c-8.622-7.003-13.628-17.518-13.628-28.626v-15.871c0-11.107 5.006-21.623 13.628-28.626l51.767-42.044c29.639-24.072 46.849-60.22 46.849-98.402v-30.425h-297.3v30.426c0 38.182 17.21 74.33 46.849 98.402l51.768 42.044c8.622 7.003 13.628 17.518 13.628 28.626v15.871c-.001 11.107-5.007 21.623-13.629 28.625z" fill="#cde9fa"/><path d="m107.35 433.007v30.426h297.3v-30.426c0-2.752-.1-5.491-.277-8.218h-296.746c-.177 2.727-.277 5.466-.277 8.218z" fill="#a2ddfd"/><path d="m107.35 78.993c0 .16.006.319.007.479h297.287c.001-.16.007-.319.007-.479v-30.426h-297.301z" fill="#a2ddfd"/><path d="m255.999 322.558c16.607 0 32.709 5.715 45.6 16.185l31.84 25.86c13.402 10.884 23.103 25.174 28.277 41.135 3.052 9.414-4.075 19.052-13.971 19.052h-183.489c-9.896 0-17.023-9.638-13.971-19.052 5.174-15.96 14.874-30.25 28.276-41.135l31.84-25.86c12.891-10.47 28.992-16.185 45.598-16.185z" fill="#fbf1cf"/><path d="m234.603 325.798c-8.757 2.712-16.983 7.082-24.202 12.944l-31.84 25.86c-13.402 10.884-23.103 25.174-28.276 41.135-3.052 9.414 4.075 19.052 13.971 19.052h114.697c-58.579-21.645-65.46-79.729-44.35-98.991z" fill="#fae0bd"/><path d="m305.326 147.398c9.395 0 13.583 11.8 6.29 17.723l-29.945 24.32c-.129.105-.258.21-.386.316-14.743 12.134-35.828 12.134-50.571 0-.128-.105-.257-.211-.386-.315l-29.945-24.321c-7.293-5.923-3.105-17.723 6.291-17.723z" fill="#fbf1cf"/><path d="m273.68 194.691c-17.287-4.858-33.029-31.96-27.071-47.293h-39.935c-9.395 0-13.583 11.8-6.291 17.723l29.945 24.321c.129.105.258.21.386.315 12.358 10.171 29.167 11.812 42.966 4.934z" fill="#fae0bd"/><g><g fill="#fff"><ellipse cx="174.042" cy="119.129" rx="30.241" ry="24.082"/><ellipse cx="337.958" cy="119.129" rx="30.241" ry="24.082"/></g><g fill="#4e5660"><path d="m191.667 103.446c-4.142 0-7.5-3.358-7.5-7.5v-12.362c0-4.142 3.358-7.5 7.5-7.5s7.5 3.358 7.5 7.5v12.362c0 4.142-3.358 7.5-7.5 7.5z"/><path d="m320.333 103.446c-4.142 0-7.5-3.358-7.5-7.5v-12.362c0-4.142 3.358-7.5 7.5-7.5s7.5 3.358 7.5 7.5v12.362c0 4.142-3.357 7.5-7.5 7.5z"/><path d="m256 110.805c-8.668 0-16.911-3.754-22.615-10.299-2.722-3.123-2.396-7.86.726-10.582s7.86-2.397 10.582.726c2.855 3.276 6.977 5.154 11.308 5.154s8.452-1.878 11.307-5.154c2.72-3.123 7.458-3.448 10.582-.726 3.122 2.721 3.448 7.459.726 10.582-5.705 6.545-13.948 10.299-22.616 10.299z"/></g></g><path d="m466.193 0h-420.386c-12.576 0-22.77 10.195-22.77 22.77v3.026c0 12.576 10.195 22.77 22.77 22.77h420.385c12.576 0 22.77-10.195 22.77-22.77v-3.026c.001-12.575-10.194-22.77-22.769-22.77z" fill="#d99a84"/><path d="m45.807 512h420.385c12.576 0 22.77-10.195 22.77-22.77v-3.026c0-12.576-10.195-22.77-22.77-22.77h-420.385c-12.576 0-22.77 10.195-22.77 22.77v3.026c0 12.575 10.195 22.77 22.77 22.77z" fill="#d99a84"/><path d="m59.104 48.567h48.245v414.866h-48.245z" fill="#e0b799"/><path d="m404.65 48.567h48.245v414.866h-48.245z" fill="#e0b799" transform="matrix(-1 0 0 -1 857.546 512)"/><g fill="#d99a84"><path d="m110.845 231.877h-55.235c-9.461 0-17.131 7.67-17.131 17.131v13.982c0 9.461 7.67 17.131 17.131 17.131h55.235c9.461 0 17.131-7.67 17.131-17.131v-13.982c0-9.461-7.67-17.131-17.131-17.131z"/><path d="m401.155 231.877h55.235c9.461 0 17.131 7.67 17.131 17.131v13.982c0 9.461-7.67 17.131-17.131 17.131h-55.235c-9.461 0-17.131-7.67-17.131-17.131v-13.982c0-9.461 7.67-17.131 17.131-17.131z"/></g></g></svg>