<svg id="Capa_1" enable-background="new 0 0 512 512" height="512" viewBox="0 0 512 512" width="512" xmlns="http://www.w3.org/2000/svg"><g><path d="m278.044 512h-209.741c-35.474 0-64.231-28.757-64.231-64.231v-209.741c0-35.474 28.757-64.231 64.231-64.231h209.741c35.474 0 64.231 28.757 64.231 64.231v209.741c0 35.474-28.757 64.231-64.231 64.231z" fill="#f6ee86"/><path d="m278.044 173.796h-182.566c-.66 8.582.341 17.299 3.06 25.755 16.027 49.84 54.778 95.689 84.465 125.375 29.688 29.688 75.54 68.442 125.379 84.466 6.687 2.15 13.631 3.241 20.638 3.241 4.524 0 8.958-.447 13.256-1.298v-173.308c-.001-35.473-28.758-64.231-64.232-64.231z" fill="#f2d98d"/><g><g><ellipse cx="91.125" cy="455.576" fill="#eda1ab" rx="30.274" ry="24.109"/><ellipse cx="255.222" cy="455.576" fill="#eda1ab" rx="30.274" ry="24.109"/><path d="m197.582 437.052c0-15.085-10.928-16.502-24.409-16.502-13.48 0-24.408 1.417-24.408 16.502s10.928 27.313 24.408 27.313c13.481 0 24.409-12.228 24.409-27.313z" fill="#4e5660"/></g><g fill="#4e5660"><path d="m96.186 434.293c-4.142 0-7.5-3.358-7.5-7.5v-12.362c0-4.142 3.358-7.5 7.5-7.5s7.5 3.358 7.5 7.5v12.362c0 4.142-3.358 7.5-7.5 7.5z"/><path d="m250.161 434.293c-4.142 0-7.5-3.358-7.5-7.5v-12.362c0-4.142 3.358-7.5 7.5-7.5s7.5 3.358 7.5 7.5v12.362c-.001 4.142-3.358 7.5-7.5 7.5z"/></g></g><path d="m268.049 288.473-48.594-48.594-82.647 82.647c-13.419 13.419-13.419 35.175 0 48.594 13.419 13.419 35.175 13.419 48.594 0z" fill="#a7a7a7"/><path d="m219.455 239.88-48.978 48.978c8.042 9.272 16.039 17.73 23.452 25.142 7.413 7.413 15.87 15.41 25.142 23.452l48.978-48.978z" fill="#8b97a5"/><path d="m356.961 295.627-106.754-37.905-37.905-106.754 121.404-91.16 114.415 114.415z" fill="#e16e7e"/><g fill="#e7889d"><path d="m277.524 230.404c15.366 15.366 58.676 53.019 79.436 65.222.388 10.633-1.859 35.978-8.147 56.203-3.421 11.004-15.27 16.958-26.241 13.43-33.761-10.855-71.55-37.873-106.79-73.114-35.239-35.239-62.257-73.027-73.113-106.787-3.575-11.117 2.642-22.928 13.804-26.36 20.162-6.2 45.26-8.417 55.828-8.031 12.205 20.761 49.858 64.071 65.223 79.437z"/><path d="m496.703 194.169c11.495-11.495 14.507-29.008 7.428-43.642-11.839-24.476-35.581-56.93-62.691-84.039-27.109-27.109-59.564-50.851-84.039-62.691-14.634-7.079-32.147-4.067-43.642 7.428-7.908 7.908-7.908 20.729 0 28.637l154.307 154.307c7.909 7.908 20.73 7.908 28.637 0z"/></g></g></svg>