<svg id="Capa_1" enable-background="new 0 0 512 512" height="512" viewBox="0 0 512 512" width="512" xmlns="http://www.w3.org/2000/svg"><g><path d="m469.899 491.415h-427.798c-23.252 0-42.101-18.85-42.101-42.101v-22.678h489.322c12.525 0 22.678 10.153 22.678 22.678 0 23.251-18.849 42.101-42.101 42.101z" fill="#a7a7a7"/><path d="m368.338 132.964h-320.21c-26.58 0-48.128 21.548-48.128 48.128v245.544h416.466v-245.544c0-26.58-21.548-48.128-48.128-48.128z" fill="#59636f"/><path d="m208.232 315.958c89.956 0 163.14-73.184 163.14-163.139 0-6.705-.415-13.313-1.205-19.808-.608-.023-1.215-.046-1.829-.046h-320.21c-.613 0-1.221.023-1.829.046-.79 6.495-1.205 13.104-1.205 19.808 0 89.955 73.184 163.139 163.138 163.139z" fill="#455060"/><path d="m41.803 368.757v-177.914c0-8.878 7.197-16.075 16.075-16.075h300.71c8.878 0 16.075 7.197 16.075 16.075v177.914c0 8.878-7.197 16.075-16.075 16.075h-300.71c-8.878 0-16.075-7.197-16.075-16.075z" fill="#cde9fa"/><g><g fill="#eda1ab"><ellipse cx="122.146" cy="353.145" rx="31.765" ry="25.296"/><ellipse cx="294.32" cy="353.145" rx="31.765" ry="25.296"/></g><g fill="#4e5660"><path d="m140.658 335.983c-4.143 0-7.5-3.358-7.5-7.5v-12.362c0-4.142 3.357-7.5 7.5-7.5s7.5 3.358 7.5 7.5v12.362c0 4.142-3.357 7.5-7.5 7.5z"/><path d="m208.232 344.024c-8.995 0-17.55-3.896-23.47-10.689-2.722-3.122-2.395-7.86.727-10.582 3.122-2.721 7.859-2.397 10.582.727 3.07 3.523 7.503 5.544 12.161 5.544 4.659 0 9.092-2.021 12.162-5.544 2.722-3.123 7.46-3.448 10.582-.727 3.122 2.722 3.448 7.46.727 10.582-5.92 6.793-14.474 10.689-23.471 10.689z"/><path d="m292.521 335.639c-4.143 0-7.5-3.358-7.5-7.5 0-3.764-3.063-6.826-6.826-6.826-3.764 0-6.826 3.062-6.826 6.826 0 4.142-3.357 7.5-7.5 7.5s-7.5-3.358-7.5-7.5c0-12.035 9.791-21.826 21.826-21.826s21.826 9.791 21.826 21.826c0 4.142-3.358 7.5-7.5 7.5z"/></g></g><path d="m358.588 174.768h-300.71c-4.113 0-7.853 1.558-10.696 4.099 12.509 77.617 79.96 137.091 161.05 137.091 81.091 0 148.543-59.474 161.051-137.091-2.842-2.541-6.582-4.099-10.695-4.099z" fill="#a2ddfd"/><circle cx="208.233" cy="152.819" fill="#88d37f" r="132.234"/><path d="m302.671 245.365c-176.663-3.646-182.495-162.121-149.061-213.004-45.776 20.791-77.611 66.906-77.611 120.457 0 73.031 59.203 132.234 132.234 132.234 36.996 0 70.438-15.199 94.438-39.687z" fill="#5ec682"/><circle cx="208.233" cy="152.819" fill="#fbf1cf" r="92.618"/><path d="m137.684 92.818c-13.76 16.163-22.069 37.11-22.069 60.001 0 51.151 41.466 92.618 92.618 92.618 13.258 0 25.861-2.792 37.264-7.809-82.894-22.664-109.118-90.305-107.813-144.81z" fill="#fae0bd"/><g><path d="m208.232 160.319c-1.919 0-3.839-.732-5.304-2.197l-32.516-32.516c-2.929-2.929-2.929-7.678 0-10.606 2.93-2.929 7.678-2.929 10.607 0l32.516 32.516c2.929 2.929 2.929 7.678 0 10.607-1.464 1.463-3.384 2.196-5.303 2.196z" fill="#59636f"/><path d="m238.251 160.319h-30.019c-4.143 0-7.5-3.358-7.5-7.5s3.357-7.5 7.5-7.5h30.019c4.143 0 7.5 3.358 7.5 7.5s-3.357 7.5-7.5 7.5z" fill="#e16e7e"/></g><path d="m303.768 426.636h-95.536l4.023 12.19c3.979 12.056 15.242 20.199 27.938 20.199h31.613c12.695 0 23.959-8.144 27.938-20.199z" fill="#8b97a5"/></g></svg>