<svg id="Capa_1" enable-background="new 0 0 512 512" height="512" viewBox="0 0 512 512" width="512" xmlns="http://www.w3.org/2000/svg"><g><path d="m436.242 139.303h-432.19v242.147c0 34.314 27.817 62.131 62.131 62.131h307.928c34.314 0 62.131-27.817 62.131-62.131z" fill="#fbf1cf"/><path d="m4.052 139.303h432.19v30.905h-432.19z" fill="#fae0bd"/><path d="m374.758 214.714c-90.483 0-164.096 73.613-164.096 164.096 0 22.991 4.761 44.888 13.336 64.771h150.114c34.314 0 62.13-27.817 62.13-62.131v-154.773c-19-7.707-39.753-11.963-61.484-11.963z" fill="#fae0bd"/><path d="m239.68 187.507h-39.067c-11.246 0-20.363 9.117-20.363 20.363v39.067c0 11.246 9.117 20.363 20.363 20.363h39.067c11.246 0 20.363-9.117 20.363-20.363v-39.067c0-11.246-9.117-20.363-20.363-20.363z" fill="#cde9fa"/><g fill="#b0ade2"><path d="m111.685 187.507h-39.067c-11.246 0-20.363 9.117-20.363 20.363v39.067c0 11.246 9.117 20.363 20.363 20.363h39.067c11.246 0 20.363-9.117 20.363-20.363v-39.067c0-11.246-9.117-20.363-20.363-20.363z"/><path d="m328.609 187.507h39.067c11.246 0 20.363 9.117 20.363 20.363v39.067c0 11.246-9.117 20.363-20.363 20.363h-39.067c-11.246 0-20.362-9.117-20.362-20.363v-39.067c-.001-11.246 9.116-20.363 20.362-20.363z"/><path d="m239.68 395.294h-39.067c-11.246 0-20.363-9.117-20.363-20.362v-39.067c0-11.246 9.117-20.363 20.363-20.363h39.067c11.246 0 20.363 9.117 20.363 20.363v39.067c0 11.245-9.117 20.362-20.363 20.362z"/></g><path d="m111.685 395.294h-39.067c-11.246 0-20.363-9.117-20.363-20.362v-39.067c0-11.246 9.117-20.363 20.363-20.363h39.067c11.246 0 20.363 9.117 20.363 20.363v39.067c0 11.245-9.117 20.362-20.363 20.362z" fill="#cde9fa"/><g><path d="m374.758 214.714c-23.664 0-46.17 5.043-66.511 14.098v18.124c0 11.246 9.116 20.363 20.362 20.363h39.067c11.246 0 20.363-9.117 20.363-20.363v-31.683c-4.383-.353-8.81-.539-13.281-.539z" fill="#a09cdc"/><path d="m239.68 315.502h-16.309c-8.181 19.491-12.709 40.88-12.709 63.308 0 5.563.281 11.062.825 16.484h28.194c11.246 0 20.362-9.116 20.362-20.362v-39.067c0-11.246-9.117-20.363-20.363-20.363z" fill="#a09cdc"/><circle cx="374.758" cy="378.81" fill="#88d37f" r="133.19"/><path d="m469.879 472.025c-177.94-3.672-183.815-163.293-150.139-214.544-46.107 20.941-78.172 67.389-78.172 121.329 0 73.559 59.631 133.19 133.19 133.19 37.264 0 70.947-15.31 95.121-39.975z" fill="#5ec682"/><circle cx="374.758" cy="378.81" fill="#fbf1cf" r="93.288"/><path d="m303.698 318.375c-13.86 16.28-22.229 37.379-22.229 60.435 0 51.521 41.766 93.288 93.288 93.288 13.353 0 26.048-2.812 37.534-7.866-83.494-22.827-109.907-90.957-108.593-145.857z" fill="#fae0bd"/><g><path d="m374.758 386.31c-1.919 0-3.839-.733-5.304-2.197l-32.751-32.751c-2.929-2.929-2.929-7.678 0-10.606 2.93-2.929 7.678-2.929 10.607 0l32.751 32.751c2.929 2.929 2.929 7.678 0 10.607-1.464 1.463-3.384 2.196-5.303 2.196z" fill="#59636f"/><path d="m404.993 386.31h-30.235c-4.143 0-7.5-3.358-7.5-7.5s3.357-7.5 7.5-7.5h30.235c4.143 0 7.5 3.358 7.5 7.5s-3.357 7.5-7.5 7.5z" fill="#e16e7e"/></g></g><path d="m436.242 139.303h-432.19v-61.35c0-23.765 19.265-43.03 43.03-43.03h346.129c23.765 0 43.03 19.265 43.03 43.03v61.35z" fill="#e7889d"/><path d="m94.758 0c-14.265 0-25.829 11.564-25.829 25.828v35.457c0 14.265 11.564 25.828 25.828 25.828 14.265 0 25.828-11.564 25.828-25.828v-35.457c.001-14.264-11.563-25.828-25.827-25.828z" fill="#59636f"/><path d="m220.147 0c-14.265 0-25.828 11.564-25.828 25.828v35.457c0 14.265 11.564 25.828 25.828 25.828 14.265 0 25.828-11.564 25.828-25.828v-35.457c0-14.264-11.563-25.828-25.828-25.828z" fill="#59636f"/><path d="m345.536 0c-14.265 0-25.828 11.564-25.828 25.828v35.457c0 14.265 11.564 25.828 25.828 25.828 14.265 0 25.828-11.564 25.828-25.828v-35.457c0-14.264-11.563-25.828-25.828-25.828z" fill="#59636f"/></g></svg>