<svg id="Capa_1" enable-background="new 0 0 512 512" height="512" viewBox="0 0 512 512" width="512" xmlns="http://www.w3.org/2000/svg"><g><path d="m173.464 249.872c0 20.234 16.403 36.637 36.637 36.637h213.235c20.234 0 36.637-16.403 36.637-36.637v-213.235c0-20.234-16.403-36.637-36.637-36.637h-213.235c-20.234 0-36.637 16.403-36.637 36.637z" fill="#e7889d"/><path d="m458.459 194.585h-124.14v-5.695c0-37.243-30.299-67.543-67.543-67.543h-93.312v128.525c0 20.234 16.403 36.637 36.637 36.637h213.235c20.234 0 36.637-16.403 36.637-36.637v-55.249c-.505-.011-1.007-.038-1.514-.038z" fill="#e16e7e"/><path d="m16.904 402.125c0 20.234 16.403 36.637 36.637 36.637h213.235c20.234 0 36.637-16.403 36.637-36.637v-213.235c0-20.234-16.403-36.637-36.637-36.637h-213.235c-20.234 0-36.637 16.403-36.637 36.637z" fill="#88d37f"/><path d="m245.224 194.585c-37.243 0-67.543 30.299-67.543 67.543v176.634h89.094c20.234 0 36.637-16.403 36.637-36.637v-207.54z" fill="#5ec682"/><path d="m149.752 386.734c-11.297 0-21.264-5.255-27.164-14.503-8.313-13.029-7.295-30.834 2.722-47.628 10.592-17.758 10.774-33.757.462-40.759-9.85-6.69-27.852-3.994-41.813 14.173-2.524 3.285-7.231 3.9-10.517 1.376-3.284-2.524-3.9-7.233-1.376-10.517 8.696-11.315 19.503-18.904 31.253-21.945 11.16-2.887 22.414-1.246 30.88 4.503 13.228 8.983 22.211 30.31 3.993 60.853-6.943 11.64-8.076 23.854-2.958 31.875 3.546 5.559 9.517 8.204 16.819 7.451 8.495-.876 38.318-9.296 65.426-80.825 1.468-3.873 5.797-5.823 9.671-4.355s5.823 5.798 4.355 9.671c-29.328 77.389-64.257 89.022-77.913 90.431-1.294.133-2.576.199-3.84.199z" fill="#4e5660"/><path d="m134.201 228.937h-61.227c-4.142 0-7.5-3.358-7.5-7.5s3.358-7.5 7.5-7.5h61.227c4.142 0 7.5 3.358 7.5 7.5s-3.358 7.5-7.5 7.5z" fill="#4e5660"/><path d="m245.224 512h147.478c56.551 0 102.394-45.844 102.394-102.394v-147.478c0-20.234-16.403-36.637-36.637-36.637h-213.235c-20.234 0-36.637 16.403-36.637 36.637v213.235c0 20.234 16.403 36.637 36.637 36.637z" fill="#f6ee86"/><path d="m392.702 512c56.551 0 102.394-45.844 102.394-102.394v-40.861c0 41.768-23.121 56.591-50.022 56.592-20.201.001-36.64 16.44-36.641 36.641-.001 26.901-14.823 50.022-56.591 50.022z" fill="#f2d98d"/><g fill="#4e5660"><path d="m431.104 316.009h-158.524c-4.142 0-7.5-3.358-7.5-7.5s3.358-7.5 7.5-7.5h158.524c4.142 0 7.5 3.358 7.5 7.5s-3.358 7.5-7.5 7.5z"/><path d="m431.104 382.977h-158.524c-4.142 0-7.5-3.358-7.5-7.5s3.358-7.5 7.5-7.5h158.524c4.142 0 7.5 3.358 7.5 7.5s-3.358 7.5-7.5 7.5z"/></g><g><g fill="#fff"><ellipse cx="235.976" cy="119.53" rx="29.792" ry="23.725"/><ellipse cx="397.46" cy="119.53" rx="29.792" ry="23.725"/></g><g fill="#4e5660"><path d="m267.52 101.212c-4.142 0-7.5-3.358-7.5-7.5 0-3.684-2.997-6.681-6.681-6.681s-6.681 2.997-6.681 6.681c0 4.142-3.358 7.5-7.5 7.5s-7.5-3.358-7.5-7.5c0-11.955 9.726-21.681 21.681-21.681s21.681 9.726 21.681 21.681c0 4.142-3.358 7.5-7.5 7.5z"/><path d="m394.278 101.212c-4.142 0-7.5-3.358-7.5-7.5 0-3.684-2.997-6.681-6.681-6.681s-6.68 2.997-6.68 6.681c0 4.142-3.358 7.5-7.5 7.5s-7.5-3.358-7.5-7.5c0-11.955 9.726-21.681 21.68-21.681 11.955 0 21.681 9.726 21.681 21.681 0 4.142-3.358 7.5-7.5 7.5z"/><path d="m316.718 124.639c-7.933 0-15.477-3.436-20.696-9.425-2.721-3.123-2.396-7.86.727-10.582 3.123-2.721 7.86-2.396 10.582.727 2.37 2.72 5.792 4.28 9.388 4.28 3.595 0 7.017-1.56 9.388-4.28 2.722-3.123 7.458-3.448 10.582-.726 3.123 2.721 3.448 7.459.726 10.582-5.221 5.989-12.765 9.424-20.697 9.424z"/></g></g></g></svg>