<svg id="Capa_1" enable-background="new 0 0 513 513" height="512" viewBox="0 0 513 513" width="512" xmlns="http://www.w3.org/2000/svg"><g><path d="m95.245 467.38-49.625-49.625c-13.542-13.543-13.542-35.499 0-49.042l82.866-82.866 98.667 98.667-82.866 82.865c-13.543 13.543-35.499 13.543-49.042.001z" fill="#59636f"/><path d="m105.26 295.468h85.008v139.536h-85.008z" fill="#455060" transform="matrix(.707 -.707 .707 .707 -214.982 211.46)"/><path d="m93.691 465.825-46.516-46.515-37.541 37.54c-12.845 12.845-12.845 33.671 0 46.516 12.845 12.845 33.671 12.845 46.516 0z" fill="#a7a7a7"/><path d="m190.197 423.986-101.183-101.183c-8.12-8.12-8.12-21.285 0-29.405l30.08-30.08 130.589 130.589-30.08 30.08c-8.121 8.12-21.286 8.12-29.406-.001z" fill="#f6ee86"/><path d="m490.377 194.461c-41.981 60.14-125.094 144.852-219.332 199.125-13.042 7.511-29.508 5.313-40.15-5.33l-106.151-106.151c-10.642-10.642-12.841-27.108-5.33-40.15 54.273-94.238 138.985-177.351 199.125-219.332 27.096-18.914 63.862-15.616 87.228 7.75l76.86 76.86c23.366 23.366 26.665 60.132 7.75 87.228z" fill="#f6ee86"/><path d="m344.205 11.691c-8.997 1.786-17.746 5.403-25.666 10.932-53.254 37.174-125.771 106.603-179.364 187.446 3.813 5.836 8.276 11.369 13.397 16.49 12.996 12.997 30.272 20.155 48.646 20.156h.005c18.502 0 35.701-7.279 48.427-20.497 17.557-18.236 23.16-44.234 15.699-67.477l67.311-67.31c21.557-21.558 25.396-54.213 11.545-79.74z" fill="#f2d98d"/><path d="m255.125 74.521c-47.778 44.365-98.788 103.322-135.711 167.435-7.511 13.042-5.313 29.508 5.33 40.15l106.151 106.151c10.642 10.642 27.108 12.841 40.15 5.33 64.112-36.923 123.069-87.933 167.435-135.711z" fill="#b0ade2"/><path d="m482.627 107.233-76.86-76.86c-23.366-23.366-60.132-26.664-87.228-7.75-9.731 6.792-20.107 14.668-30.891 23.487l179.242 179.242c8.819-10.784 16.694-21.161 23.487-30.891 18.915-27.096 15.616-63.862-7.75-87.228z" fill="#b0ade2"/><path d="m344.205 11.691c-8.997 1.786-17.746 5.403-25.666 10.932-9.731 6.792-20.107 14.668-30.891 23.487l45.162 45.162c21.421-21.559 25.212-54.115 11.395-79.581z" fill="#a09cdc"/><path d="m255.125 74.521c-39.737 36.899-81.702 83.896-115.947 135.553 3.813 5.835 8.274 11.366 13.394 16.485 12.996 12.997 30.272 20.155 48.646 20.156h.005c18.502 0 35.701-7.279 48.427-20.497 17.557-18.236 23.16-44.234 15.699-67.477l36.998-36.998z" fill="#a09cdc"/><path d="m233.664 146.633 77.099-77.099c14.199-14.199 14.199-37.221 0-51.421-14.199-14.199-37.221-14.199-51.421 0l-84.875 84.875c-28.077 28.077-28.077 73.598 0 101.675 14.592 14.592 38.562 14.944 52.874.078 11.825-12.282 13.4-30.783 4.725-44.722-2.658-4.273-1.961-9.826 1.598-13.386z" fill="#59636f"/><path d="m506.798 44.4-38.198-38.198c-8.269-8.269-21.675-8.269-29.944 0l-28.529 28.53 68.143 68.143 28.53-28.53c8.267-8.269 8.267-21.676-.002-29.945z" fill="#f6ee86"/><g><g fill="#fff"><ellipse cx="186.762" cy="290.356" rx="30.3" ry="24.129"/><ellipse cx="350.998" cy="290.356" rx="30.3" ry="24.129"/></g><g fill="#4e5660"><path d="m204.42 274.628c-4.142 0-7.5-3.358-7.5-7.5v-12.386c0-4.142 3.358-7.5 7.5-7.5s7.5 3.358 7.5 7.5v12.386c0 4.142-3.357 7.5-7.5 7.5z"/><path d="m333.339 274.628c-4.142 0-7.5-3.358-7.5-7.5v-12.386c0-4.142 3.358-7.5 7.5-7.5s7.5 3.358 7.5 7.5v12.386c0 4.142-3.358 7.5-7.5 7.5z"/><path d="m268.88 282.001c-8.681 0-16.936-3.76-22.649-10.314-2.721-3.123-2.396-7.86.727-10.582 3.123-2.721 7.86-2.396 10.582.727 2.863 3.286 6.996 5.17 11.34 5.17s8.477-1.884 11.34-5.17c2.721-3.123 7.459-3.447 10.582-.727 3.122 2.722 3.448 7.459.727 10.582-5.714 6.555-13.968 10.314-22.649 10.314z"/></g></g></g></svg>