<svg id="Capa_1" enable-background="new 0 0 512 512" height="512" viewBox="0 0 512 512" width="512" xmlns="http://www.w3.org/2000/svg"><g><path d="m71.947 245.859c-15.932 0-28.847 12.915-28.847 28.847 0 15.932 12.915 28.847 28.847 28.847h-43.1c-15.932.001-28.847 12.916-28.847 28.848 0 15.932 12.915 28.847 28.847 28.847h142.503v-115.39h-99.403z" fill="#a2ddfd"/><path d="m86.286 256c0 22.81 1.448 66.747 11.146 104.718.046.178.099.353.146.53h73.772v-115.39h-84.97c-.067 3.708-.094 7.116-.094 10.142z" fill="#7acefa"/><path d="m314.596 129.168c51.99 0 129.819 3.559 165.488 9.692 10.555 1.815 19.081 9.692 21.731 20.068 7.892 30.901 10.185 68.645 10.185 97.072s-2.293 66.171-10.185 97.072c-2.65 10.376-11.177 18.253-21.731 20.068-35.668 6.133-113.497 9.692-165.488 9.692s-129.819-3.559-165.487-9.692c-10.555-1.815-19.081-9.692-21.731-20.068-7.892-30.9-10.185-68.644-10.185-97.072s2.293-66.171 10.185-97.072c2.65-10.376 11.177-18.253 21.731-20.068 35.668-6.133 113.496-9.692 165.487-9.692z" fill="#fbf1cf"/><path d="m149.916 138.727c37.21 40.533 97.023 81.726 136.788 100.79 4.378 2.099 8.933 3.674 13.577 4.731-20.212-34.807-24.579-90.592-15.979-114.737-47.999 1.018-104.921 4.266-134.386 9.216z" fill="#fae0bd"/><path d="m501.815 158.928c-2.65-10.376-11.177-18.253-21.731-20.068-.264-.045-.537-.09-.805-.135-37.21 40.534-97.024 81.727-136.79 100.792-17.636 8.455-38.148 8.455-55.784 0-39.766-19.065-99.58-60.259-136.79-100.792-.268.045-.542.09-.806.135-10.555 1.815-19.081 9.692-21.731 20.068-1.839 7.199-3.362 14.777-4.635 22.514 38.974 44.233 103.925 90.315 150.601 112.693 12.798 6.135 27.062 9.379 41.254 9.379 14.19 0 28.455-3.243 41.253-9.379 46.676-22.379 111.627-68.46 150.6-112.693-1.274-7.737-2.798-15.315-4.636-22.514z" fill="#fae0bd"/><path d="m480.083 138.86c-8.576-1.475-19.605-2.799-32.109-3.962-37.718 35.556-83.564 69.431-113.737 84.231-12.397 6.081-26.885 6.081-39.282 0-30.173-14.8-76.019-48.675-113.737-84.231-12.505 1.163-23.534 2.487-32.109 3.962-5.747.988-10.882 3.783-14.805 7.79 33.657 45.975 106.435 97.579 152.401 119.616 17.636 8.455 38.148 8.455 55.784 0 45.966-22.037 118.743-73.641 152.4-119.616-3.924-4.007-9.059-6.802-14.806-7.79z" fill="#b0ade2"/><g><g><path d="m457.492 318.222c-1.919 0-3.839-.732-5.304-2.197l-34.1-34.1c-2.929-2.929-2.929-7.678 0-10.607 2.93-2.929 7.678-2.929 10.607 0l34.1 34.1c2.929 2.929 2.929 7.678 0 10.606-1.464 1.465-3.384 2.198-5.303 2.198z" fill="#fae0bd"/></g><g><path d="m171.7 318.222c-1.919 0-3.839-.732-5.303-2.197-2.929-2.929-2.929-7.678 0-10.606l34.1-34.1c2.929-2.929 7.678-2.929 10.606 0 2.929 2.929 2.929 7.678 0 10.607l-34.1 34.1c-1.464 1.463-3.384 2.196-5.303 2.196z" fill="#fae0bd"/></g></g><g><g fill="#eda1ab"><ellipse cx="228.509" cy="342.891" rx="31.765" ry="25.296"/><ellipse cx="400.683" cy="342.891" rx="31.765" ry="25.296"/></g><g fill="#4e5660"><path d="m247.021 325.729c-4.142 0-7.5-3.358-7.5-7.5v-12.362c0-4.142 3.358-7.5 7.5-7.5s7.5 3.358 7.5 7.5v12.362c0 4.143-3.358 7.5-7.5 7.5z"/><path d="m314.596 333.771c-8.995 0-17.55-3.896-23.47-10.689-2.722-3.122-2.396-7.86.726-10.582 3.122-2.721 7.859-2.397 10.582.727 3.07 3.523 7.503 5.544 12.161 5.544 4.659 0 9.092-2.021 12.161-5.543 2.721-3.125 7.458-3.449 10.581-.728s3.449 7.459.728 10.582c-5.918 6.793-14.473 10.689-23.469 10.689z"/><path d="m398.883 325.385c-4.143 0-7.5-3.358-7.5-7.5 0-3.764-3.062-6.826-6.825-6.826-3.764 0-6.826 3.062-6.826 6.826 0 4.142-3.357 7.5-7.5 7.5s-7.5-3.358-7.5-7.5c0-12.035 9.791-21.826 21.826-21.826 12.034 0 21.825 9.791 21.825 21.826 0 4.142-3.358 7.5-7.5 7.5z"/></g></g><path d="m328.209 271.142c-19.254-7.865-32.372-30.203-39.981-55.492-29.983-16.194-71.994-47.744-107.01-80.752-12.505 1.163-23.534 2.487-32.109 3.962-5.747.988-10.882 3.783-14.805 7.79 33.657 45.975 106.435 97.579 152.4 119.616 13.039 6.252 27.647 7.868 41.505 4.876z" fill="#a09cdc"/></g></svg>