<svg id="Capa_1" enable-background="new 0 0 512 512" height="512" viewBox="0 0 512 512" width="512" xmlns="http://www.w3.org/2000/svg"><g><path d="m255.999 208.595c-.86 0-1.728-.148-2.564-.452l-156.484-56.955c-3.892-1.417-5.899-5.721-4.482-9.613 1.416-3.892 5.717-5.9 9.613-4.483l151.993 55.321 150.542-150.541c2.931-2.93 7.679-2.929 10.607 0s2.929 7.678 0 10.606l-153.921 153.92c-1.431 1.432-3.349 2.197-5.304 2.197z" fill="#59636f"/><path d="m145.404 462.695h-91.774v-191.187c0-15.004 12.163-27.167 27.167-27.167h37.441c15.004 0 27.167 12.163 27.167 27.167v191.187z" fill="#b0ade2"/><path d="m145.404 462.695h-91.774v-191.187c0-15.004 12.163-27.167 27.167-27.167h37.441c15.004 0 27.167 12.163 27.167 27.167v191.187z" fill="#b0ade2"/><path d="m53.63 421.488h91.774v41.207h-91.774z" fill="#a09cdc"/><path d="m301.887 462.695h-91.774v-134.232c0-15.004 12.163-27.167 27.167-27.167h37.441c15.004 0 27.167 12.163 27.167 27.167v134.232z" fill="#cde9fa"/><path d="m301.887 462.695h-91.774v-134.232c0-15.004 12.163-27.167 27.167-27.167h37.441c15.004 0 27.167 12.163 27.167 27.167v134.232z" fill="#a2ddfd"/><path d="m210.113 421.488h91.774v41.207h-91.774z" fill="#7acefa"/><path d="m458.37 462.695h-91.774v-287.34c0-15.004 12.163-27.167 27.167-27.167h37.441c15.004 0 27.167 12.163 27.167 27.167v287.34z" fill="#88d37f"/><path d="m366.596 421.488h91.774v41.207h-91.774z" fill="#5ec682"/><circle cx="256" cy="201.095" fill="#e7889d" r="45.887"/><circle cx="99.517" cy="144.14" fill="#f2d98d" r="45.887"/><circle cx="409.921" cy="47.175" fill="#f2d98d" r="45.887"/><path d="m13.946 462.695h484.109c9.808 0 16.546 9.865 12.978 19.001l-3.709 9.496c-4.598 11.772-15.942 19.52-28.58 19.52h-445.487c-12.638 0-23.982-7.749-28.58-19.52l-3.709-9.496c-3.568-9.135 3.17-19.001 12.978-19.001z" fill="#f6ee86"/><path d="m13.946 462.695c-9.808 0-16.546 9.865-12.978 19.001l3.709 9.496c4.598 11.772 15.943 19.52 28.58 19.52h246.912c-14.976-9.516-23.613-28.495-13.871-48.017z" fill="#f2d98d"/><g fill="#59636f"><path d="m301.887 54.675h-91.773c-4.143 0-7.5-3.358-7.5-7.5s3.357-7.5 7.5-7.5h91.773c4.143 0 7.5 3.358 7.5 7.5s-3.358 7.5-7.5 7.5z"/><path d="m280.168 100.562h-48.336c-4.143 0-7.5-3.358-7.5-7.5s3.357-7.5 7.5-7.5h48.336c4.143 0 7.5 3.358 7.5 7.5s-3.357 7.5-7.5 7.5z"/></g></g></svg>