<svg id="Capa_1" enable-background="new 0 0 512 512" height="512" viewBox="0 0 512 512" width="512" xmlns="http://www.w3.org/2000/svg"><g><path d="m459.692 223.113-32.726 8.987v-113.947l32.726 8.986c12.132 3.331 20.54 14.36 20.54 26.941v42.092c0 12.581-8.409 23.609-20.54 26.941z" fill="#88d37f"/><path d="m457.871 126.639-30.905-8.486v113.946l30.905-8.486z" fill="#5ec682"/><path d="m459.692 365.352-32.726 8.987v-113.947l32.726 8.987c12.132 3.331 20.54 14.36 20.54 26.941v42.092c0 12.58-8.409 23.609-20.54 26.94z" fill="#b0ade2"/><path d="m457.871 268.879-30.905-8.487v113.947l30.905-8.487z" fill="#a09cdc"/><path d="m172.813 130.292-21.254-21.254c-8.923-8.923-8.923-23.39 0-32.313l70.034-70.034c8.923-8.923 23.39-8.923 32.313 0l21.253 21.253c8.923 8.923 8.923 23.39 0 32.313l-70.034 70.034c-8.922 8.924-23.389 8.924-32.312.001z" fill="#f2d98d"/><path d="m358.961 95.238h-70.266c-10.404 0-18.839-8.435-18.839-18.839v-52.91c0-10.404 8.435-18.839 18.839-18.839h70.266c10.404 0 18.839 8.434 18.839 18.839v52.91c0 10.404-8.434 18.839-18.839 18.839z" fill="#a2ddfd"/><path d="m377.033 479.656h-267.552c-16.439 0-29.765-13.327-29.765-29.766v-371.541c0-16.439 13.326-29.766 29.765-29.766h267.551c27.577 0 49.933 22.356 49.933 49.933v331.206c.001 27.578-22.355 49.934-49.932 49.934z" fill="#e7889d"/><path d="m357.655 364.881c-10.07-10.071-23.461-15.617-37.703-15.617-14.241 0-27.632 5.547-37.702 15.618l-38.96 38.96c-20.79 20.79-20.79 54.617 0 75.407l.408.408h133.335c19.188 0 35.839-10.829 44.199-26.704.624-14.419-4.552-29.045-15.537-40.03z" fill="#e16e7e"/><path d="m79.716 78.349v371.541c0 16.439 13.326 29.766 29.766 29.766h93.136c-67.526-92.279-67.703-188.259-68.49-431.072h-24.646c-16.44-.001-29.766 13.326-29.766 29.765z" fill="#e16e7e"/><g fill="#59636f"><path d="m91.745 95.238h-40.009c-11.028 0-19.968 8.94-19.968 19.968v5.688c0 11.028 8.94 19.968 19.968 19.968h40.009c11.028 0 19.968-8.94 19.968-19.968v-5.688c0-11.028-8.94-19.968-19.968-19.968z"/><path d="m91.745 192.617h-40.009c-11.028 0-19.968 8.94-19.968 19.968v5.688c0 11.028 8.94 19.968 19.968 19.968h40.009c11.028 0 19.968-8.94 19.968-19.968v-5.688c0-11.028-8.94-19.968-19.968-19.968z"/><path d="m91.745 289.997h-40.009c-11.028 0-19.968 8.94-19.968 19.968v5.688c0 11.028 8.94 19.968 19.968 19.968h40.009c11.028 0 19.968-8.94 19.968-19.968v-5.688c0-11.028-8.94-19.968-19.968-19.968z"/><path d="m91.745 387.377h-40.009c-11.028 0-19.968 8.94-19.968 19.968v5.688c0 11.028 8.94 19.968 19.968 19.968h40.009c11.028 0 19.968-8.94 19.968-19.968v-5.688c0-11.028-8.94-19.968-19.968-19.968z"/></g><path d="m346.653 119.338h-154.627c-11.831 0-21.422 9.591-21.422 21.422v38.156c0 11.831 9.591 21.422 21.422 21.422h154.626c11.831 0 21.422-9.591 21.422-21.422v-38.156c0-11.831-9.59-21.422-21.421-21.422z" fill="#fbf1cf"/><path d="m383.842 466.474-38.96 38.96c-8.754 8.754-22.946 8.754-31.699 0l-48.04-48.04c-8.754-8.754-8.754-22.946 0-31.699l38.96-38.96c8.754-8.754 22.946-8.754 31.699 0l48.04 48.04c8.754 8.754 8.754 22.946 0 31.699z" fill="#f6ee86"/><g><g><ellipse cx="182.962" cy="299.799" fill="#fff" rx="31.872" ry="25.381"/><ellipse cx="355.717" cy="299.799" fill="#fff" rx="31.872" ry="25.381"/><ellipse cx="269.34" cy="280.298" fill="#4e5660" rx="16.918" ry="18.931"/></g><g fill="#4e5660"><path d="m188.29 276.671c-4.143 0-7.5-3.358-7.5-7.5v-12.362c0-4.142 3.357-7.5 7.5-7.5s7.5 3.358 7.5 7.5v12.362c0 4.142-3.357 7.5-7.5 7.5z"/><path d="m350.389 276.671c-4.143 0-7.5-3.358-7.5-7.5v-12.362c0-4.142 3.357-7.5 7.5-7.5s7.5 3.358 7.5 7.5v12.362c0 4.142-3.358 7.5-7.5 7.5z"/></g></g></g></svg>