<svg id="Capa_1" enable-background="new 0 0 512 512" height="512" viewBox="0 0 512 512" width="512" xmlns="http://www.w3.org/2000/svg"><g><path d="m341.293 333.227c-8.516-.662-16.602.925-23.733 4.227-5.867 2.716-12.563-1.636-12.563-8.101v-50.273c0-16.455-13.339-29.794-29.794-29.794h-50.273c-6.465 0-10.817-6.696-8.101-12.563 3.301-7.131 4.888-15.216 4.227-23.732-1.809-23.281-20.735-42.038-44.031-43.65-27.8-1.924-50.949 20.058-50.949 47.447 0 7.053 1.538 13.745 4.294 19.762 2.727 5.953-1.477 12.737-8.024 12.737h-50.269c-16.455 0-29.794 13.339-29.794 29.794v203.126c0 16.454 13.339 29.794 29.794 29.794h203.126c16.455 0 29.794-13.339 29.794-29.794v-50.27c0-6.547 6.784-10.751 12.737-8.024 6.018 2.757 12.71 4.294 19.762 4.294 27.388 0 49.37-23.149 47.447-50.948-1.612-23.296-20.368-42.223-43.65-44.032z" fill="#f6ee86"/><path d="m304.997 452.667v-20.73c0-6.547 6.784-10.751 12.737-8.024 6.018 2.757 12.71 4.294 19.762 4.294 27.388 0 49.37-23.149 47.447-50.948-1.612-23.296-20.368-42.223-43.65-44.032-8.516-.662-16.602.925-23.733 4.227-5.867 2.716-12.563-1.636-12.563-8.101v-50.273c0-16.455-13.339-29.794-29.794-29.794h-50.273c-6.465 0-10.817-6.696-8.101-12.563 3.301-7.131 4.888-15.216 4.227-23.732-1.809-23.281-20.735-42.038-44.031-43.65-27.8-1.924-50.949 20.058-50.949 47.447 0 7.053 1.538 13.745 4.294 19.762 2.727 5.953-1.477 12.737-8.024 12.737h-50.269c-16.455 0-29.794 13.339-29.794 29.794v168.035c52.077-8.746 182.189 17.289 262.714 5.551z" fill="#88d37f"/><path d="m173.418 263.559c16.615 0 31.624-10.461 37.349-26.031.983-2.674 2.622-5.006 4.873-6.931 1.258-1.077 2.688-1.932 4.219-2.572 1.158-4.77 1.604-9.819 1.199-15.033-1.809-23.281-20.735-42.038-44.031-43.65-27.8-1.924-50.949 20.058-50.949 47.447 0 7.053 1.538 13.745 4.294 19.762.106.231.182.465.267.697l14.647 14.647c7.522 7.522 17.513 11.664 28.132 11.664z" fill="#5ec682"/><path d="m339.212 359.978 21.061-21.062c-5.728-3.15-12.157-5.159-18.98-5.69-8.516-.662-16.602.925-23.733 4.227-5.867 2.716-12.563-1.636-12.563-8.101v-50.272c0-16.455-13.339-29.794-29.794-29.794h-33.249c-.725 1.91-1.898 3.932-3.786 5.82-1.712 1.711-3.706 2.998-5.924 3.822-12.839 4.771-22.243 15.589-25.155 28.938-2.896 13.278 1.117 26.947 10.735 36.565l35.546 35.546c11.465 11.464 26.708 17.778 42.921 17.778 16.213.002 31.456-6.312 42.921-17.777z" fill="#5ec682"/><g><g fill="#fff"><ellipse cx="92.898" cy="405.842" rx="29.792" ry="23.725"/><ellipse cx="254.383" cy="405.842" rx="29.792" ry="23.725"/></g><g fill="#4e5660"><path d="m124.442 387.524c-4.142 0-7.5-3.358-7.5-7.5 0-3.684-2.997-6.68-6.681-6.68s-6.681 2.997-6.681 6.68c0 4.142-3.358 7.5-7.5 7.5s-7.5-3.358-7.5-7.5c0-11.955 9.726-21.68 21.681-21.68s21.681 9.726 21.681 21.68c0 4.143-3.358 7.5-7.5 7.5z"/><path d="m251.2 387.524c-4.142 0-7.5-3.358-7.5-7.5 0-3.684-2.997-6.68-6.681-6.68s-6.68 2.997-6.68 6.68c0 4.142-3.358 7.5-7.5 7.5s-7.5-3.358-7.5-7.5c0-11.955 9.726-21.68 21.68-21.68 11.955 0 21.681 9.726 21.681 21.68 0 4.143-3.358 7.5-7.5 7.5z"/><path d="m173.641 410.952c-7.933 0-15.476-3.436-20.696-9.426-2.721-3.123-2.396-7.86.727-10.582 3.123-2.721 7.86-2.396 10.582.727 2.371 2.72 5.792 4.28 9.388 4.28 3.595 0 7.017-1.56 9.388-4.281 2.722-3.123 7.458-3.448 10.582-.726 3.122 2.721 3.448 7.459.726 10.582-5.222 5.99-12.765 9.426-20.697 9.426z"/></g></g><path d="m332.561 276.961c-19.366-19.366-18.541-51.279 2.476-69.576 17.612-15.333 44.259-15.453 62-.27 6.483 5.548 11.076 12.38 13.785 19.748 2.235 6.078 10.04 7.757 14.62 3.177l35.548-35.548c11.635-11.635 11.635-30.499 0-42.135l-143.632-143.631c-11.635-11.635-30.499-11.635-42.135 0l-143.631 143.632c-11.635 11.635-11.635 30.499 0 42.135l35.548 35.548c4.579 4.579 12.385 2.901 14.62-3.178 2.709-7.368 7.301-14.199 13.784-19.747 17.741-15.184 44.388-15.064 62 .269 21.018 18.297 21.843 50.21 2.477 69.576-4.987 4.987-10.806 8.632-17.011 10.938-6.137 2.281-7.962 10.051-3.332 14.68l35.546 35.546c11.635 11.635 30.499 11.635 42.135 0l35.546-35.546c4.63-4.63 2.805-12.399-3.332-14.68-6.206-2.306-12.025-5.951-17.012-10.938z" fill="#cde9fa"/><path d="m349.572 287.899c-6.204-2.306-12.024-5.95-17.011-10.937-13.006-13.006-16.89-31.666-11.683-48.065-55.169-38.337-92.191-128.091-81.729-184.095l-107.557 107.556c-11.635 11.635-11.635 30.499 0 42.135l35.548 35.548c4.579 4.579 12.385 2.901 14.62-3.178 2.709-7.368 7.301-14.199 13.784-19.747 17.741-15.184 44.388-15.064 62 .269 21.018 18.297 21.843 50.21 2.477 69.576-4.987 4.987-10.806 8.632-17.011 10.938-6.137 2.281-7.962 10.051-3.332 14.68l35.546 35.546c11.635 11.635 30.499 11.635 42.135 0l35.546-35.546c4.629-4.63 2.804-12.399-3.333-14.68z" fill="#a2ddfd"/><path d="m317.358 8.726c-11.635-11.635-30.499-11.635-42.135 0l-86.247 86.247c46.539 48.641 105.958 83.539 259.879 45.251z" fill="#f6ee86"/><path d="m188.981 94.969c18.325 19.153 38.664 36.163 65.963 47.428-11.577-27.046-18.02-55.392-17.531-79.82-.118-5.823.136-11.451.782-16.822z" fill="#f2d98d"/></g></svg>