<svg id="Capa_1" enable-background="new 0 0 512 512" height="512" viewBox="0 0 512 512" width="512" xmlns="http://www.w3.org/2000/svg"><g><g><path d="m416.053 281.278c-4.142 0-7.5-3.358-7.5-7.5v-83.126c0-4.142 3.358-7.5 7.5-7.5 4.143 0 7.5 3.358 7.5 7.5v83.126c0 4.142-3.358 7.5-7.5 7.5z" fill="#a7a7a7"/><path d="m378.975 288.175 31.113 31.113c3.294 3.294 8.634 3.294 11.927 0l31.113-31.113c5.313-5.313 1.55-14.398-5.964-14.398h-62.227c-7.512.001-11.275 9.085-5.962 14.398z" fill="#59636f"/></g><g><path d="m278.513 108.594h-113.269c-4.142 0-7.5-3.358-7.5-7.5s3.358-7.5 7.5-7.5h113.269c4.143 0 7.5 3.358 7.5 7.5s-3.358 7.5-7.5 7.5z" fill="#a7a7a7"/><path d="m292.91 138.171 31.113-31.113c3.294-3.294 3.294-8.634 0-11.927l-31.113-31.114c-5.313-5.313-14.398-1.55-14.398 5.964v62.227c.001 7.513 9.085 11.276 14.398 5.963z" fill="#59636f"/></g><g><path d="m99.206 335.897c-4.142 0-7.5-3.358-7.5-7.5v-99.341c0-4.142 3.358-7.5 7.5-7.5s7.5 3.358 7.5 7.5v99.341c0 4.142-3.357 7.5-7.5 7.5z" fill="#a7a7a7"/><path d="m136.284 214.658-31.113-31.113c-3.294-3.294-8.634-3.294-11.927 0l-31.114 31.113c-5.313 5.313-1.55 14.398 5.964 14.398h62.227c7.513 0 11.276-9.085 5.963-14.398z" fill="#59636f"/></g><ellipse cx="99.207" cy="417.939" fill="#f6ee86" rx="89.542" ry="89.542" transform="matrix(.707 -.707 .707 .707 -266.471 192.561)"/><path d="m177.656 461.132c-126.484 59.496-162.013-60.821-136.163-111.649-19.463 16.425-31.829 40.995-31.829 68.456 0 49.453 40.089 89.542 89.542 89.542 33.791.001 63.205-18.718 78.45-46.349z" fill="#f2d98d"/><circle cx="99.207" cy="417.939" fill="#e7889d" r="46.046"/><path d="m480.091 11.535h-128.077c-14.094 0-25.52 11.426-25.52 25.52v128.078c0 14.094 11.426 25.519 25.52 25.519h128.078c14.094 0 25.52-11.425 25.52-25.519v-128.078c-.001-14.094-11.426-25.52-25.521-25.52z" fill="#88d37f"/><path d="m372.103 11.535h-20.09c-14.094 0-25.52 11.426-25.52 25.52v128.078c0 14.094 11.425 25.519 25.52 25.519h119.88c-103.935-21.958-107.076-134.351-99.79-179.117z" fill="#5ec682"/><path d="m447.288 57.411h-62.47c-6.874 0-12.447 5.573-12.447 12.447v62.47c0 6.874 5.573 12.447 12.447 12.447h62.47c6.874 0 12.447-5.573 12.447-12.447v-62.47c0-6.874-5.573-12.447-12.447-12.447z" fill="#f6ee86"/><path d="m384.817 144.776h13.678c-14.708-20.175-22.501-44.059-26.126-66.844v54.396c.001 6.875 5.574 12.448 12.448 12.448z" fill="#f2d98d"/><path d="m83.787 13.421-81.375 140.946c-6.853 11.87 1.713 26.707 15.419 26.707h162.751c13.706 0 22.273-14.837 15.419-26.707l-81.375-140.946c-6.853-11.87-23.986-11.87-30.839 0z" fill="#a2ddfd"/><path d="m59.418 55.629-57.006 98.738c-6.853 11.87 1.713 26.707 15.419 26.707h97.05c-68.53-18.505-69.693-81.434-55.463-125.445z" fill="#7acefa"/><path d="m93.77 80.019-28.691 49.695c-2.416 4.185.604 9.416 5.437 9.416h57.382c4.832 0 7.853-5.231 5.436-9.416l-28.691-49.695c-2.416-4.185-8.457-4.185-10.873 0z" fill="#b0ade2"/><path d="m396.692 328.05-63.007 45.777c-11.544 8.388-16.375 23.255-11.965 36.826l24.067 74.069c4.409 13.571 17.056 22.759 31.326 22.759h77.881c14.27 0 26.916-9.188 31.326-22.759l24.067-74.069c4.409-13.571-.421-28.438-11.965-36.826l-63.007-45.777c-11.546-8.388-27.179-8.388-38.723 0z" fill="#e7889d"/><path d="m454.993 507.482c10.505 0 20.119-4.992 26.226-13.035-108.048-25.812-111.138-130.824-91.859-161.07l-55.674 40.45c-11.544 8.388-16.375 23.255-11.965 36.826l24.067 74.069c4.409 13.571 17.056 22.759 31.326 22.759h77.879z" fill="#e16e7e"/><path d="m406.724 376.186-30.359 22.057c-5.563 4.041-7.89 11.205-5.765 17.744l11.596 35.689c2.125 6.539 8.218 10.966 15.094 10.966h37.526c6.876 0 12.969-4.427 15.094-10.966l11.596-35.689c2.125-6.539-.203-13.703-5.765-17.744l-30.359-22.057c-5.563-4.042-13.096-4.042-18.658 0z" fill="#f6ee86"/><path d="m381.985 394.16-5.62 4.083c-5.562 4.041-7.89 11.205-5.765 17.744l11.596 35.689c2.125 6.539 8.218 10.966 15.094 10.966h21.303c-21.739-19.967-32.684-45.142-36.608-68.482z" fill="#f2d98d"/></g></svg>