<svg id="Capa_1" enable-background="new 0 0 512 512" height="512" viewBox="0 0 512 512" width="512" xmlns="http://www.w3.org/2000/svg"><g><path d="m254.454 201.058c1.43.752 7.327 13.79 11.528 23.447 2.658 6.109 1.314 13.219-3.398 17.93l-19.643 19.643c-4.711 4.711-11.821 6.056-17.93 3.398-9.656-4.201-22.694-10.098-23.447-11.528l-46.862 12.557c.063 1.615-8.28 13.241-14.541 21.707-3.962 5.357-10.791 7.747-17.227 6.023l-26.833-7.19c-6.435-1.724-11.155-7.21-11.907-13.829-1.19-10.463-2.602-24.702-1.74-26.069l-34.305-34.307c-1.367.862-15.606-.55-26.069-1.74-6.62-.753-12.105-5.472-13.829-11.908l-7.19-26.833c-1.724-6.436.666-13.265 6.023-17.227 8.466-6.262 20.092-14.605 21.707-14.541l12.557-46.862c-1.43-.753-7.327-13.791-11.528-23.447-2.658-6.109-1.313-13.219 3.397-17.93l19.643-19.643c4.711-4.711 11.821-6.056 17.93-3.398 9.656 4.201 22.694 10.098 23.447 11.528l46.862-12.556c-.063-1.615 8.28-13.241 14.541-21.707 3.962-5.357 10.791-7.747 17.227-6.023l26.833 7.19c6.435 1.724 11.155 7.209 11.908 13.829 1.19 10.463 2.602 24.702 1.74 26.069l34.305 34.305c1.367-.863 15.606.55 26.069 1.74 6.62.753 12.105 5.472 13.829 11.907l7.19 26.833c1.724 6.435-.666 13.265-6.023 17.227-8.466 6.262-20.092 14.605-21.707 14.541zm-75.636-84.582c-17.075-17.075-44.76-17.075-61.835 0s-17.075 44.76 0 61.835 44.76 17.075 61.835 0 17.075-44.76 0-61.835z" fill="#a2ddfd"/><path d="m254.454 201.058c1.43.752 7.327 13.79 11.528 23.447 2.658 6.109 1.314 13.219-3.398 17.93l-19.643 19.643c-4.711 4.711-11.821 6.056-17.93 3.398-9.656-4.201-22.694-10.098-23.447-11.528l-46.862 12.557c.063 1.615-8.28 13.241-14.541 21.707-3.962 5.357-10.791 7.747-17.227 6.023l-26.833-7.19c-6.435-1.724-11.155-7.21-11.907-13.829-1.19-10.463-2.602-24.702-1.74-26.069l-34.305-34.307c-1.367.862-15.606-.55-26.069-1.74-6.62-.753-12.105-5.472-13.829-11.908l-7.19-26.833c-1.724-6.436.666-13.265 6.023-17.227 8.466-6.262 20.092-14.605 21.707-14.541l12.557-46.862c-1.43-.753-7.327-13.791-11.528-23.447-2.658-6.109-1.313-13.219 3.397-17.93l19.643-19.643c4.711-4.711 11.821-6.056 17.93-3.398 9.656 4.201 22.694 10.098 23.447 11.528l46.862-12.556c-.063-1.615 8.28-13.241 14.541-21.707 3.962-5.357 10.791-7.747 17.227-6.023l26.833 7.19c6.435 1.724 11.155 7.209 11.908 13.829 1.19 10.463 2.602 24.702 1.74 26.069l34.305 34.305c1.367-.863 15.606.55 26.069 1.74 6.62.753 12.105 5.472 13.829 11.907l7.19 26.833c1.724 6.435-.666 13.265-6.023 17.227-8.466 6.262-20.092 14.605-21.707 14.541zm-75.636-84.582c-17.075-17.075-44.76-17.075-61.835 0s-17.075 44.76 0 61.835 44.76 17.075 61.835 0 17.075-44.76 0-61.835z" fill="#cde9fa"/><path d="m242.941 262.078 11.827-11.827c-191.351-23.631-173.079-162.942-148.382-212.667l-12.15 3.256c-.753-1.43-13.79-7.327-23.447-11.528-6.109-2.658-13.219-1.313-17.93 3.398l-19.643 19.642c-4.711 4.711-6.055 11.821-3.397 17.93 4.201 9.656 10.098 22.694 11.528 23.447l-12.557 46.862c-1.615-.063-13.24 8.28-21.707 14.542-5.357 3.962-7.747 10.791-6.023 17.227l7.19 26.833c1.724 6.436 7.21 11.155 13.829 11.908 10.463 1.19 24.702 2.602 26.069 1.74l34.305 34.305c-.862 1.367.55 15.606 1.74 26.069.753 6.62 5.472 12.105 11.907 13.829l26.833 7.19c6.435 1.724 13.265-.666 17.227-6.023 6.262-8.466 14.605-20.092 14.542-21.707l46.862-12.557c.753 1.43 13.79 7.327 23.447 11.528 6.109 2.658 13.219 1.314 17.93-3.397z" fill="#a2ddfd"/><path d="m478.503 413.898c1.673.755 7.965 16.513 12.099 27.32 2.284 5.971.842 12.721-3.679 17.242l-28.97 28.97c-4.521 4.521-11.271 5.963-17.242 3.679-10.807-4.134-26.564-10.426-27.32-12.099l-59.631 9.445c-.201 1.824-13.243 12.678-22.244 19.949-4.973 4.018-11.838 4.732-17.535 1.829l-36.505-18.6c-5.696-2.902-9.154-8.876-8.827-15.261.592-11.556 1.707-28.486 3.064-29.721l-27.409-53.794c-1.797.372-16.15-8.677-25.846-14.991-5.358-3.488-8.158-9.797-7.158-16.112l6.409-40.465c1-6.315 5.613-11.449 11.786-13.111 11.173-3.008 27.619-7.179 29.214-6.27l42.691-42.691c-.909-1.594 3.262-18.041 6.27-29.214 1.662-6.173 6.797-10.786 13.111-11.787l40.466-6.409c6.314-1 12.623 1.801 16.112 7.158 6.313 9.697 15.363 24.049 14.991 25.846l53.794 27.409c1.235-1.358 18.166-2.473 29.721-3.064 6.385-.327 12.359 3.131 15.261 8.827l18.6 36.504c2.902 5.696 2.188 12.562-1.829 17.535-7.271 9.001-18.124 22.043-19.949 22.244zm-85.891-76.359c-15.348-15.348-40.232-15.348-55.58 0s-15.348 40.232 0 55.58 40.232 15.348 55.58 0 15.348-40.232 0-55.58z" fill="#b0ade2"/><path d="m440.71 491.108c5.971 2.284 12.721.842 17.242-3.679l11.35-11.35c-176.211-21.275-187.71-160.659-171.023-213.742l-39.57 39.57c-1.594-.909-18.041 3.262-29.214 6.27-6.173 1.662-10.786 6.796-11.787 13.111l-6.409 40.465c-1 6.315 1.8 12.623 7.158 16.112 9.697 6.314 24.049 15.363 25.846 14.991l27.409 53.794c-1.358 1.235-2.473 18.166-3.064 29.721-.327 6.385 3.131 12.359 8.827 15.261l36.505 18.6c5.696 2.902 12.562 2.188 17.535-1.829 9.001-7.271 22.042-18.124 22.244-19.949l59.631-9.445c.756 1.674 16.513 7.966 27.32 12.099z" fill="#a09cdc"/><path d="m441.096 365.329c0-42.125-34.149-76.274-76.274-76.274s-76.274 34.149-76.274 76.274 34.149 76.274 76.274 76.274 76.274-34.149 76.274-76.274zm-101.206-24.932c13.77-13.77 36.094-13.77 49.864 0 13.77 13.769 13.77 36.094 0 49.864-13.769 13.769-36.094 13.769-49.864 0-13.769-13.77-13.769-36.094 0-49.864z" fill="#f6ee86"/><path d="m147.9 225.048c42.887 0 77.654-34.767 77.654-77.654s-34.767-77.654-77.654-77.654-77.654 34.767-77.654 77.654 34.767 77.654 77.654 77.654zm-26.286-103.941c14.518-14.518 38.055-14.518 52.573 0s14.518 38.055 0 52.573-38.055 14.518-52.573 0-14.518-38.056 0-52.573z" fill="#e7889d"/><path d="m482.545 121.185c.976.338 3.885 8.351 6.163 15.073 1.862 5.494.452 11.566-3.65 15.668l-19.37 19.37c-4.102 4.102-10.174 5.512-15.668 3.65-6.722-2.279-14.735-5.188-15.073-6.163h-45.008c-.338.976-8.351 3.885-15.074 6.163-5.494 1.862-11.566.452-15.668-3.65l-19.37-19.37c-4.102-4.102-5.512-10.174-3.65-15.668 2.279-6.722 5.187-14.735 6.163-15.073v-45.008c-.976-.338-3.885-8.351-6.163-15.073-1.863-5.494-.452-11.566 3.65-15.668l19.37-19.37c4.102-4.102 10.174-5.512 15.668-3.65 6.722 2.279 14.735 5.188 15.074 6.163h45.008c.339-.976 8.351-3.885 15.073-6.163 5.494-1.862 11.566-.452 15.668 3.65l19.37 19.37c4.102 4.102 5.512 10.174 3.65 15.668-2.279 6.722-5.187 14.735-6.163 15.073zm-49.757-42.849c-11.236-11.236-29.454-11.236-40.69 0s-11.236 29.454 0 40.69 29.454 11.236 40.69 0c11.236-11.237 11.236-29.454 0-40.69z" fill="#a7a7a7"/><path d="m465.689 171.296 8.357-8.356c-117.625 2.479-122.851-96.753-92.808-138.295l-9.068-2.87c-4.708-.688-9.532.85-12.971 4.29l-19.37 19.37c-4.102 4.102-5.512 10.174-3.65 15.668 2.279 6.722 5.187 14.735 6.163 15.073v45.008c-.976.338-3.885 8.351-6.163 15.073-1.862 5.494-.452 11.566 3.65 15.668l19.37 19.37c4.102 4.102 10.174 5.512 15.668 3.65 6.722-2.279 14.735-5.187 15.074-6.163h45.008c.338.976 8.351 3.885 15.073 6.163 5.493 1.864 11.565.453 15.667-3.649z" fill="#8b97a5"/><path d="m91.761 93.773c-13.319 13.941-21.515 32.818-21.515 53.62 0 42.887 34.767 77.654 77.654 77.654 5.166 0 10.211-.516 15.095-1.479-60.699-32.632-74.524-85.917-71.234-129.795z" fill="#e16e7e"/><path d="m295.473 333.579c-4.434 9.67-6.926 20.416-6.926 31.75 0 42.125 34.149 76.274 76.274 76.274.557 0 1.107-.03 1.662-.042-44.254-28.947-64.306-70.362-71.01-107.982z" fill="#f2d98d"/></g></svg>