<svg id="Capa_1" enable-background="new 0 0 512 512" height="512" viewBox="0 0 512 512" width="512" xmlns="http://www.w3.org/2000/svg"><g><path d="m360.683 333.588-62.04 62.04 105.217 105.218c14.872 14.872 38.983 14.872 53.855 0l8.186-8.186c14.871-14.872 14.871-38.983 0-53.855z" fill="#a2ddfd"/><path d="m360.683 333.588-62.04 62.04 36.253 36.253c12.329-7.961 23.806-17.215 34.316-27.724 10.51-10.51 19.764-21.987 27.725-34.316z" fill="#7acefa"/><path d="m187.135.069c-28.823-1.314-53.712 16.256-63.371 41.385-3.692 9.605-12.751 16.034-23.028 16.563-35.913 1.849-65.771 31.63-65.79 69.386-.019 37.307 29.999 68.341 67.287 69.496 39.031 1.209 71.095-29.781 71.673-68.403 39.931 6.332 75.678-24.95 74.84-65.23-.702-33.798-27.841-61.657-61.611-63.197z" fill="#fbf1cf"/><ellipse cx="375.815" cy="98.699" fill="#fbf1cf" rx="52.875" ry="52.875" transform="matrix(.707 -.707 .707 .707 40.283 294.649)"/><path d="m301.537 232.123-53.751 53.751c-7.11-7.11-32.557-33.1-61.481-69.01-25.141-31.214-45.002-60.141-59.233-86.25-4.909-9.005-1.295-20.277 7.979-24.658l36.648-17.312c8.505-4.018 18.622-.69 23.187 7.534 28.641 51.604 80.925 110.219 106.651 135.945z" fill="#e0b799"/><path d="m376.57 320.191c-16.995 41.436-49.889 74.331-91.326 91.326-23.985 9.837-51.532 4.308-69.863-14.023l-10.989-10.989 147.166-147.166 10.989 10.989c18.331 18.331 23.861 45.878 14.023 69.863z" fill="#a2ddfd"/><path d="m215.382 397.493c18.331 18.331 45.878 23.861 69.863 14.023.283-.116.561-.241.844-.358-18.562-15.12-33.413-39.159-40.17-66.181l-41.527 41.527z" fill="#7acefa"/><path d="m229.525 304.135-53.751 53.751c-33.611-33.611-41.397-41.397-123.707-44.359-9.736-.35-17.367-8.491-17.114-18.229l1.051-40.444c.257-9.881 8.531-17.661 18.409-17.308 43.586 1.558 73.477 4.634 98.9 13.394 32.477 11.192 53.73 30.712 76.212 53.195z" fill="#f2d98d"/><path d="m322.94 210.72-53.751 53.751c-21.739-21.739-40.806-52.483-52.31-84.348-12.135-33.613-15.929-67.873-11.222-100.21 1.527-10.492 11.809-17.348 22.072-14.686l39.443 10.229c8.529 2.212 14.202 10.344 13.209 19.099-5.463 48.165 21.21 94.816 42.559 116.165z" fill="#f2d98d"/><path d="m276.832 256.828-53.751 53.751c-34.546-34.546-83.987-64.828-140.508-86.254-8.985-3.406-13.686-13.285-10.584-22.38l13.065-38.308c3.233-9.478 13.667-14.456 23.039-10.926 67.031 25.242 126.454 61.832 168.739 104.117z" fill="#f6ee86"/><path d="m159.604 278.376h208.124v40.472h-208.124z" fill="#88d37f" transform="matrix(.707 -.707 .707 .707 -133.925 273.902)"/><path d="m244.399 289.261-68.625 68.625 28.618 28.618 41.527-41.527c-4.461-17.841-5.388-36.981-1.52-55.716z" fill="#5ec682"/><circle cx="138.328" cy="349.622" fill="#fbf1cf" r="44.611"/></g></svg>