<svg id="Capa_1" enable-background="new 0 0 512 512" height="512" viewBox="0 0 512 512" width="512" xmlns="http://www.w3.org/2000/svg"><g><ellipse cx="213.498" cy="49.089" fill="#e0b799" rx="39.528" ry="39.528" transform="matrix(.972 -.234 .234 .972 -5.56 51.254)"/><ellipse cx="213.498" cy="288.942" fill="#88d37f" rx="213.498" ry="213.498" transform="matrix(.707 -.707 .707 .707 -141.781 235.595)"/><path d="m426.922 283.349c-2.282-88.723-58.697-163.968-137.437-193.969-8.935 27.258-13.791 55.062-13.834 77.821-.552 31.571 11.186 61.483 33.069 84.262 31.582 32.873 77.385 43.527 118.202 31.886z" fill="#5ec682"/><path d="m365.972 438.362c-285.23-5.886-294.646-261.751-240.665-343.904-73.908 33.568-125.307 108.022-125.307 194.484 0 117.912 95.586 213.498 213.498 213.498 59.732 0 113.725-24.541 152.474-64.078z" fill="#5ec682"/><circle cx="213.498" cy="288.942" fill="#fbf1cf" r="158.877"/><path d="m54.621 288.942c0 87.745 71.132 158.877 158.877 158.877 26.86 0 52.158-6.675 74.34-18.442-152.932-34.331-195.069-158.913-187.471-251.97-28.284 28.685-45.746 68.068-45.746 111.535z" fill="#fae0bd"/><g fill="#e0b799"><path d="m213.498 175.83c-4.142 0-7.5-3.358-7.5-7.5v-5.632c0-4.142 3.358-7.5 7.5-7.5s7.5 3.358 7.5 7.5v5.632c0 4.142-3.358 7.5-7.5 7.5z"/><path d="m92.886 296.442h-5.632c-4.142 0-7.5-3.358-7.5-7.5s3.358-7.5 7.5-7.5h5.632c4.142 0 7.5 3.358 7.5 7.5s-3.358 7.5-7.5 7.5z"/><path d="m213.498 422.686c-4.142 0-7.5-3.358-7.5-7.5v-5.632c0-4.142 3.358-7.5 7.5-7.5s7.5 3.358 7.5 7.5v5.632c0 4.142-3.358 7.5-7.5 7.5z"/><path d="m339.741 296.442h-5.632c-4.142 0-7.5-3.358-7.5-7.5s3.358-7.5 7.5-7.5h5.632c4.142 0 7.5 3.358 7.5 7.5s-3.358 7.5-7.5 7.5z"/></g><g><path d="m213.498 296.442c-1.92 0-3.839-.732-5.303-2.197l-52.498-52.498c-2.929-2.929-2.929-7.678 0-10.606 2.929-2.929 7.678-2.929 10.606 0l52.498 52.498c2.929 2.929 2.929 7.678 0 10.606-1.465 1.465-3.384 2.197-5.303 2.197z" fill="#59636f"/><path d="m261.963 296.442h-48.466c-4.142 0-7.5-3.358-7.5-7.5s3.358-7.5 7.5-7.5h48.466c4.142 0 7.5 3.358 7.5 7.5s-3.358 7.5-7.5 7.5z" fill="#e16e7e"/></g><path d="m277.229 143.377c-1.021 8.349-1.564 16.363-1.578 23.825-.552 31.571 11.186 61.483 33.069 84.262 17.825 18.554 40.182 30.028 63.615 34.413-1.207-63.764-39.975-118.328-95.106-142.5z" fill="#fae0bd"/><path d="m431.409 54.777c-2.811 7.968-6.866 18.039-10.922 28.116-1.048 2.604-4.321 3.402-6.481 1.609-16.029-13.308-30.903-31.728-39.364-56.958-1.967-5.865-9.332-7.68-13.743-3.344-30.732 30.211-54.343 96.07-54.343 143.306-.971 48.449 37.518 88.511 85.967 89.481s88.511-37.518 89.481-85.967c0-33.005-12.361-71.751-39.633-117.352-2.642-4.418-9.249-3.746-10.962 1.109z" fill="#e7889d"/><path d="m357.399 178.585c0-23.151 10.054-43.069 21.378-55.9 4.593-5.204 12.984-4.245 16.108 1.953 11.931 23.671 36.265 26.153 36.265 55.425-.408 20.366-17.248 36.545-37.614 36.137-20.365-.408-36.544-17.249-36.137-37.615z" fill="#f6ee86"/><path d="m511.994 113.328c0-18.829-8.177-35.03-17.388-45.466-3.736-4.233-10.561-3.453-13.102 1.589-9.704 19.253-29.496 21.271-29.496 45.079.332 16.564 14.029 29.724 30.593 29.392 16.566-.333 29.725-14.03 29.393-30.594z" fill="#e16e7e"/><g><g><ellipse cx="127.121" cy="369.806" fill="#eda1ab" rx="31.872" ry="25.381"/><ellipse cx="299.875" cy="369.806" fill="#eda1ab" rx="31.872" ry="25.381"/><ellipse cx="213.498" cy="350.305" fill="#4e5660" rx="16.918" ry="18.931"/></g><g fill="#4e5660"><path d="m132.449 346.678c-4.142 0-7.5-3.358-7.5-7.5v-12.362c0-4.142 3.358-7.5 7.5-7.5s7.5 3.358 7.5 7.5v12.362c0 4.142-3.358 7.5-7.5 7.5z"/><path d="m294.547 346.678c-4.142 0-7.5-3.358-7.5-7.5v-12.362c0-4.142 3.358-7.5 7.5-7.5s7.5 3.358 7.5 7.5v12.362c0 4.142-3.358 7.5-7.5 7.5z"/></g></g></g></svg>