<svg id="Capa_1" enable-background="new 0 0 512 512" height="512" viewBox="0 0 512 512" width="512" xmlns="http://www.w3.org/2000/svg"><g><path d="m411.379 193.828h-147.879v-27.962c0-4.142-3.358-7.5-7.5-7.5s-7.5 3.358-7.5 7.5v27.962h-147.879c-14.196 0-25.745 11.549-25.745 25.746v17.217c0 4.142 3.358 7.5 7.5 7.5s7.5-3.358 7.5-7.5v-17.217c0-5.925 4.82-10.746 10.745-10.746h147.879v27.962c0 4.142 3.358 7.5 7.5 7.5s7.5-3.358 7.5-7.5v-27.962h147.879c5.925 0 10.745 4.82 10.745 10.746v17.217c0 4.142 3.358 7.5 7.5 7.5s7.5-3.358 7.5-7.5v-17.217c.001-14.197-11.549-25.746-25.745-25.746z" fill="#4e5660"/><path d="m324.567 366.895h-61.067v-27.962c0-4.142-3.358-7.5-7.5-7.5s-7.5 3.358-7.5 7.5v27.962h-61.067c-14.196 0-25.746 11.549-25.746 25.745v17.217c0 4.142 3.358 7.5 7.5 7.5s7.5-3.358 7.5-7.5v-17.217c0-5.925 4.82-10.745 10.746-10.745h137.134c5.925 0 10.746 4.82 10.746 10.745v17.217c0 4.142 3.358 7.5 7.5 7.5s7.5-3.358 7.5-7.5v-17.217c0-14.196-11.55-25.745-25.746-25.745z" fill="#4e5660"/><path d="m195.782 512h-53.188c-13.518 0-24.477-10.959-24.477-24.477v-53.188c0-13.518 10.959-24.477 24.477-24.477h53.188c13.518 0 24.477 10.959 24.477 24.477v53.188c0 13.518-10.959 24.477-24.477 24.477z" fill="#f2d98d"/><path d="m369.406 512h-53.188c-13.518 0-24.477-10.959-24.477-24.477v-53.188c0-13.518 10.959-24.477 24.477-24.477h53.188c13.518 0 24.477 10.959 24.477 24.477v53.188c.001 13.518-10.958 24.477-24.477 24.477z" fill="#f2d98d"/><path d="m393.884 469.234v-34.899c0-13.518-10.959-24.477-24.477-24.477h-53.188c-7.927 0-14.969 3.771-19.442 9.613 12.364 19.795 42.987 50.569 97.107 49.763z" fill="#b0ade2"/><path d="m282.594 338.933h-53.188c-13.518 0-24.477-10.959-24.477-24.477v-53.188c0-13.518 10.959-24.477 24.477-24.477h53.188c13.518 0 24.477 10.959 24.477 24.477v53.188c0 13.518-10.958 24.477-24.477 24.477z" fill="#f6ee86"/><path d="m256 288.892c16.488 0 27.938-8.073 51.071-10.633v-16.991c0-13.518-10.959-24.477-24.477-24.477h-53.188c-13.518 0-24.477 10.959-24.477 24.477v16.991c23.133 2.56 34.583 10.633 51.071 10.633z" fill="#a2ddfd"/><path d="m108.97 338.933h-53.189c-13.518 0-24.477-10.959-24.477-24.477v-53.188c0-13.518 10.959-24.477 24.477-24.477h53.188c13.518 0 24.477 10.959 24.477 24.477v53.188c.001 13.518-10.958 24.477-24.476 24.477z" fill="#f6ee86"/><path d="m82.375 288.892c16.488 0 27.938-8.073 51.071-10.633v-16.991c0-13.518-10.959-24.477-24.477-24.477h-53.188c-13.518 0-24.477 10.959-24.477 24.477v16.991c23.134 2.56 34.583 10.633 51.071 10.633z" fill="#a2ddfd"/><path d="m403.03 338.933h53.188c13.518 0 24.477-10.959 24.477-24.477v-53.188c0-13.518-10.959-24.477-24.477-24.477h-53.188c-13.518 0-24.477 10.959-24.477 24.477v53.188c0 13.518 10.959 24.477 24.477 24.477z" fill="#f6ee86"/><path d="m429.625 288.892c-16.488 0-27.938-8.073-51.071-10.633v-16.991c0-13.518 10.959-24.477 24.477-24.477h53.188c13.518 0 24.477 10.959 24.477 24.477v16.991c-23.134 2.56-34.583 10.633-51.071 10.633z" fill="#a2ddfd"/><ellipse cx="256" cy="82.933" fill="#e7889d" rx="129.978" ry="82.933"/><path d="m223.959 2.542c-56.289 9.106-97.937 41.644-97.937 80.391 0 45.803 58.193 82.933 129.978 82.933 24.694 0 47.78-4.394 67.442-12.024-170.064-24.721-122.335-132.424-99.483-151.3z" fill="#e16e7e"/><g><g fill="#fff"><ellipse cx="175.258" cy="97.021" rx="29.792" ry="23.725"/><ellipse cx="336.742" cy="97.021" rx="29.792" ry="23.725"/></g><g fill="#4e5660"><path d="m206.801 78.704c-4.142 0-7.5-3.358-7.5-7.5 0-3.684-2.997-6.681-6.681-6.681s-6.68 2.997-6.68 6.681c0 4.142-3.358 7.5-7.5 7.5s-7.5-3.358-7.5-7.5c0-11.955 9.726-21.681 21.68-21.681 11.955 0 21.681 9.726 21.681 21.681 0 4.142-3.358 7.5-7.5 7.5z"/><path d="m333.56 78.704c-4.142 0-7.5-3.358-7.5-7.5 0-3.684-2.997-6.681-6.68-6.681-3.684 0-6.681 2.997-6.681 6.681 0 4.142-3.358 7.5-7.5 7.5s-7.5-3.358-7.5-7.5c0-11.955 9.726-21.681 21.681-21.681s21.68 9.726 21.68 21.681c0 4.142-3.358 7.5-7.5 7.5z"/><path d="m256 102.131c-7.932 0-15.476-3.435-20.696-9.425-2.722-3.122-2.396-7.86.726-10.581 3.122-2.722 7.86-2.397 10.581.726 2.371 2.72 5.793 4.28 9.388 4.28s7.017-1.56 9.388-4.28c2.722-3.123 7.459-3.448 10.581-.726 3.123 2.721 3.448 7.459.726 10.581-5.218 5.989-12.762 9.425-20.694 9.425z"/></g></g><path d="m220.259 469.234v-34.899c0-13.518-10.959-24.477-24.477-24.477h-53.188c-7.926 0-14.969 3.771-19.442 9.613 12.364 19.795 42.988 50.569 97.107 49.763z" fill="#b0ade2"/></g></svg>