<svg id="Capa_1" enable-background="new 0 0 512 512" height="512" viewBox="0 0 512 512" width="512" xmlns="http://www.w3.org/2000/svg"><g><ellipse cx="64.342" cy="185.264" fill="#a2ddfd" rx="43.378" ry="43.378" transform="matrix(.052 -.999 .999 .052 -123.999 239.948)"/><path d="m249.863 24.126c-6.708.969-13.499-.699-18.883-4.817-15.83-12.106-35.608-19.309-57.077-19.309-21.474 0-41.255 7.206-57.088 19.318-5.377 4.114-12.16 5.779-18.861 4.811-45.8-6.617-88.393 28.934-88.393 76.741 0 53.302 52.019 89.314 100.544 74.021 6.424-2.025 13.365-1.075 19.296 2.119 13.249 7.134 28.398 11.193 44.501 11.193s31.251-4.058 44.501-11.193c5.932-3.194 12.873-4.142 19.299-2.118 48.469 15.265 100.541-20.637 100.541-74.021.001-47.757-42.537-83.367-88.38-76.745z" fill="#cde9fa"/><path d="m336.755 116.198c-7.526-.796-15.156-1.208-22.861-1.208-39.674 0-78 10.758-110.834 31.111-18.034 11.179-33.788 24.835-46.809 40.442 5.717 1.088 11.618 1.658 17.653 1.658 16.103 0 31.251-4.058 44.501-11.193 5.932-3.194 12.873-4.142 19.299-2.118 43.662 13.753 90.241-14.022 99.051-58.692z" fill="#a2ddfd"/><circle cx="92.814" cy="285.719" fill="#a2ddfd" r="26.412"/><path d="m440.105 512c0-69.704-56.507-126.211-126.211-126.211-63.507 0-116.059 46.906-124.902 107.963-1.395 9.633 6.145 18.248 15.879 18.248z" fill="#b0ade2"/><path d="m313.894 474.006c38.492 0 75.318-10.328 106.645-29.524-22.38-35.276-61.776-58.693-106.645-58.693s-84.265 23.417-106.646 58.693c31.328 19.196 68.154 29.524 106.646 29.524z" fill="#a09cdc"/><g fill="#ffd3bd"><ellipse cx="313.894" cy="297.661" rx="161.405" ry="145.44"/><ellipse cx="313.894" cy="297.661" rx="161.405" ry="145.44"/><ellipse cx="313.894" cy="297.661" rx="161.405" ry="145.44"/></g><path d="m462.25 355.025c-9.711-5.905-20.951-9.148-32.514-9.148-15.568 0-30.492 5.765-42.025 16.234-20.303 18.434-25.651 47.266-15.336 71.142 40.356-14.143 72.832-42.489 89.875-78.228z" fill="#ffbe9d"/><path d="m423.147 451.954c11.654-4.601 37.758-18.924 51.687-36.617-6.202-9.708-13.421-19.095-21.675-28.187-11.738-12.93-31.741-13.898-44.675-2.157-12.932 11.741-13.897 31.742-2.157 44.675 6.613 7.283 12.201 14.673 16.82 22.286z" fill="#ffd3bd"/><path d="m474.835 415.337c-13.929 17.693-40.033 32.016-51.687 36.617 11.043 18.197 16.517 37.671 16.958 60.046h46.29c9.42 0 16.91-8.095 15.961-17.467-2.908-28.702-12.034-54.953-27.522-79.196z" fill="#a09cdc"/><path d="m460.715 252.012c6.493-.077 10.75-6.754 8.029-12.65-25.307-54.831-85.182-93.466-154.85-93.466-70.093 0-130.274 39.107-155.31 94.471-2.823 6.243 2.891 12.904 9.48 11.024 25.506-7.278 56.014-20.537 76.744-33.319 3.584-2.21 8.129.621 7.713 4.811-.169 1.699-.311 3.524-.411 5.444-.813 15.541 12.383 28.149 27.874 26.659 25.83-2.485 63.872-9.435 87.909-28.575 1.95-1.553 4.658-1.723 6.737-.347 23.74 15.711 54.121 26.326 86.085 25.948z" fill="#d99a84"/><circle cx="116.218" cy="93.846" fill="#88d37f" r="31.876"/><path d="m243.759 64.059h-34.387c-6.955 0-12.594 5.638-12.594 12.594v34.387c0 6.955 5.639 12.594 12.594 12.594h34.387c6.955 0 12.594-5.638 12.594-12.594v-34.388c0-6.955-5.638-12.593-12.594-12.593z" fill="#b0ade2"/><g><g fill="#eda1ab"><ellipse cx="231.936" cy="333.087" rx="30.241" ry="24.082"/><ellipse cx="395.852" cy="333.087" rx="30.241" ry="24.082"/></g><g fill="#4e5660"><path d="m249.561 317.404c-4.142 0-7.5-3.358-7.5-7.5v-12.362c0-4.142 3.358-7.5 7.5-7.5s7.5 3.358 7.5 7.5v12.362c-.001 4.142-3.358 7.5-7.5 7.5z"/><path d="m378.228 317.404c-4.142 0-7.5-3.358-7.5-7.5v-12.362c0-4.142 3.358-7.5 7.5-7.5 4.143 0 7.5 3.358 7.5 7.5v12.362c0 4.142-3.358 7.5-7.5 7.5z"/><path d="m249.561 294.845c-5.439 0-10.771-1.475-15.418-4.267-3.551-2.133-4.7-6.74-2.567-10.291 2.132-3.55 6.739-4.701 10.291-2.567 4.628 2.78 10.758 2.781 15.389 0 3.549-2.133 8.158-.984 10.291 2.567s.982 8.158-2.568 10.291c-4.648 2.792-9.979 4.267-15.418 4.267z"/><path d="m330.853 324.765c-.945 0-1.906-.18-2.835-.56-9.714-3.971-24.446-3.994-30.85-3.994-.038 0-.075 0-.113 0h-.122c-4.143 0-7.5-3.358-7.5-7.5s3.357-7.5 7.5-7.5h.122.142c7.889 0 24.072.03 36.497 5.109 3.834 1.567 5.672 5.946 4.104 9.78-1.188 2.906-3.989 4.665-6.945 4.665z"/></g></g></g></svg>