<svg id="Capa_1" enable-background="new 0 0 512 512" height="512" viewBox="0 0 512 512" width="512" xmlns="http://www.w3.org/2000/svg"><g><path d="m213.175 340.107-75.699 75.699c-16.433 16.433-43.076 16.433-59.509 0-16.433-16.433-16.433-43.076 0-59.509l75.699-75.699z" fill="#b7856b"/><path d="m465.969 100.994h-433.578c-17.889 0-32.391 14.502-32.391 32.392 0 17.889 14.502 32.391 32.391 32.391-17.889 0-32.391 14.502-32.391 32.392 0 17.889 14.502 32.391 32.391 32.391-17.889 0-32.391 14.502-32.391 32.391 0 17.889 14.502 32.391 32.391 32.391-17.889.001-32.391 14.503-32.391 32.392 0 17.889 14.502 32.391 32.391 32.391l433.577-.001c25.422 0 46.031-20.609 46.031-46.031v-167.067c.001-25.423-20.608-46.032-46.03-46.032z" fill="#cb9d82"/><path d="m349.827 83.869h-72.558c-16.277 0-29.471 13.195-29.471 29.471v234.438c0 16.276 13.195 29.471 29.471 29.471h72.558c16.276 0 29.471-13.195 29.471-29.471v-234.438c0-16.276-13.195-29.471-29.471-29.471z" fill="#a2ddfd"/><path d="m247.798 120.102v220.915c1.576.124 3.163.206 4.771.206h121.959c1.607 0 3.195-.082 4.771-.206v-220.915c-1.576-.124-3.163-.206-4.771-.206h-121.96c-1.607 0-3.194.082-4.77.206z" fill="#7acefa"/><path d="m374.527 150.802h-121.959c-16.253 0-29.429 13.176-29.429 29.429v100.658c0 16.253 13.176 29.429 29.429 29.429h121.958c16.253 0 29.429-13.176 29.429-29.429v-100.658c.001-16.254-13.175-29.429-29.428-29.429z" fill="#59636f"/><path d="m252.568 150.802c-16.253 0-29.429 13.176-29.429 29.429v100.658c0 16.253 13.176 29.429 29.429 29.429h85.885c-62.223-33.647-65.566-129.921-60.402-159.516z" fill="#455060"/><path d="m257.136 269.621v-78.123c0-3.701 3-6.701 6.701-6.701h99.423c3.701 0 6.701 3 6.701 6.701v78.123c0 3.701-3 6.701-6.701 6.701h-99.423c-3.701 0-6.701-3-6.701-6.701z" fill="#f6ee86"/><g fill="#b7856b"><path d="m71.49 302.843h-39.098c-4.143 0-7.5-3.358-7.5-7.5s3.357-7.5 7.5-7.5h39.098c4.143 0 7.5 3.358 7.5 7.5s-3.357 7.5-7.5 7.5z"/><path d="m71.49 238.06h-39.098c-4.143 0-7.5-3.358-7.5-7.5s3.357-7.5 7.5-7.5h39.098c4.143 0 7.5 3.358 7.5 7.5s-3.357 7.5-7.5 7.5z"/><path d="m71.49 173.277h-39.098c-4.143 0-7.5-3.358-7.5-7.5s3.357-7.5 7.5-7.5h39.098c4.143 0 7.5 3.358 7.5 7.5s-3.357 7.5-7.5 7.5z"/></g><g><path d="m313.548 238.06c-1.919 0-3.839-.732-5.303-2.197-2.93-2.929-2.93-7.677-.001-10.607l14.198-14.199c2.93-2.929 7.679-2.93 10.606 0 2.93 2.929 2.93 7.677.001 10.607l-14.198 14.199c-1.464 1.465-3.384 2.197-5.303 2.197z" fill="#59636f"/><path d="m313.548 238.06h-11.025c-4.143 0-7.5-3.358-7.5-7.5s3.357-7.5 7.5-7.5h11.025c4.142 0 7.5 3.358 7.5 7.5s-3.358 7.5-7.5 7.5z" fill="#e7889d"/></g><path d="m263.836 276.322h38.816c-18.14-28.137-24.754-63.954-26.036-91.524h-12.78c-3.701 0-6.701 3-6.701 6.701v78.123c.001 3.7 3.001 6.7 6.701 6.7z" fill="#f2d98d"/></g></svg>