<svg id="Capa_1" enable-background="new 0 0 512 512" height="512" viewBox="0 0 512 512" width="512" xmlns="http://www.w3.org/2000/svg"><g><path d="m470.471 297.529h-428.942c-22.936 0-41.529-18.593-41.529-41.529 0-22.936 18.593-41.529 41.529-41.529h428.943c22.935 0 41.528 18.593 41.528 41.529 0 22.936-18.593 41.529-41.529 41.529z" fill="#f6ee86"/><path d="m119.982 214.471v83.058h83.698c-18.607-19.08-31.397-58.06-24.046-83.058z" fill="#f2d98d"/><path d="m41.529 214.471h78.453v83.058h-78.453c-22.936 0-41.529-18.593-41.529-41.529 0-22.936 18.593-41.529 41.529-41.529z" fill="#e7889d"/><path d="m256 214.471h136.018v83.058h-136.018z" fill="#88d37f"/><path d="m470.471 214.471h-78.453v83.058h78.453c22.936 0 41.529-18.593 41.529-41.529 0-22.936-18.593-41.529-41.529-41.529z" fill="#b0ade2"/><g><path d="m186.256 88.628c0-39.283-39.269-71.129-87.709-71.129s-87.71 31.845-87.71 71.129c0 23.241 13.756 43.867 35.015 56.845 4.105 2.506 7.494 6.028 9.753 10.274l25.732 48.385c7.332 13.786 27.088 13.786 34.42 0l25.732-48.385c2.258-4.246 5.648-7.768 9.753-10.274 21.258-12.978 35.014-33.604 35.014-56.845z" fill="#cde9fa"/><path d="m115.757 204.131 12.328-23.18c-69.086-27.378-93.986-124.674-56.48-160.018-35.256 9.222-60.768 36.036-60.768 67.695 0 23.241 13.756 43.867 35.015 56.845 4.105 2.506 7.494 6.028 9.752 10.274l25.732 48.385c7.333 13.786 27.089 13.786 34.421-.001z" fill="#a2ddfd"/><g><path d="m98.547 98.749c-4.143 0-7.5-3.358-7.5-7.5v-38.458c0-4.142 3.357-7.5 7.5-7.5s7.5 3.358 7.5 7.5v38.458c0 4.142-3.358 7.5-7.5 7.5z" fill="#59636f"/><path d="m98.547 98.749h-17.513c-4.143 0-7.5-3.358-7.5-7.5s3.357-7.5 7.5-7.5h17.513c4.143 0 7.5 3.358 7.5 7.5s-3.358 7.5-7.5 7.5z" fill="#e7889d"/></g></g><g><path d="m467.649 88.628c0-39.283-39.269-71.129-87.71-71.129s-87.709 31.845-87.709 71.129c0 23.241 13.756 43.867 35.015 56.845 4.105 2.506 7.495 6.028 9.753 10.274l25.732 48.385c7.332 13.786 27.088 13.786 34.42 0l25.732-48.385c2.258-4.246 5.648-7.768 9.753-10.274 21.259-12.978 35.014-33.604 35.014-56.845z" fill="#cde9fa"/><path d="m397.15 204.131 12.327-23.18c-69.086-27.378-93.985-124.674-56.479-160.019-35.256 9.222-60.768 36.036-60.768 67.695 0 23.241 13.756 43.867 35.015 56.845 4.105 2.506 7.494 6.028 9.752 10.274l25.732 48.385c7.333 13.787 27.089 13.787 34.421 0z" fill="#a2ddfd"/><g><path d="m352.746 125.943c-1.919 0-3.839-.732-5.304-2.197-2.929-2.929-2.929-7.678 0-10.606l27.193-27.194c2.93-2.929 7.678-2.929 10.607 0s2.929 7.678 0 10.606l-27.193 27.194c-1.464 1.464-3.384 2.197-5.303 2.197z" fill="#59636f"/><path d="m392.323 111.132c-1.919 0-3.839-.732-5.303-2.197l-12.384-12.383c-2.93-2.929-2.93-7.677-.001-10.606 2.93-2.929 7.679-2.93 10.606 0l12.384 12.383c2.93 2.929 2.93 7.677.001 10.606-1.464 1.465-3.384 2.197-5.303 2.197z" fill="#e7889d"/></g></g><g><path d="m148.896 423.372c0 39.283 39.269 71.129 87.71 71.129s87.709-31.845 87.709-71.129c0-23.241-13.756-43.867-35.015-56.845-4.105-2.506-7.495-6.028-9.753-10.274l-25.732-48.385c-7.332-13.787-27.088-13.786-34.42 0l-25.732 48.385c-2.258 4.246-5.648 7.768-9.753 10.274-21.258 12.978-35.014 33.604-35.014 56.845z" fill="#cde9fa"/><path d="m303.002 469.819c-92.391 8.797-117.356-76.047-100.692-129.823l-8.646 16.257c-2.258 4.246-5.648 7.768-9.753 10.274-21.259 12.978-35.015 33.603-35.015 56.845 0 39.283 39.269 71.129 87.709 71.129 26.543 0 50.313-9.575 66.397-24.682z" fill="#a2ddfd"/><g><path d="m236.605 434.432c-1.919 0-3.839-.732-5.303-2.197-2.93-2.929-2.93-7.677-.001-10.606l27.193-27.194c2.93-2.929 7.679-2.93 10.607 0 2.93 2.929 2.93 7.677.001 10.606l-27.193 27.194c-1.465 1.465-3.385 2.197-5.304 2.197z" fill="#59636f"/><path d="m236.605 434.432c-1.92 0-3.839-.732-5.304-2.197l-12.383-12.383c-2.929-2.929-2.929-7.678.001-10.606 2.929-2.93 7.678-2.929 10.606 0l12.383 12.383c2.929 2.929 2.929 7.678-.001 10.606-1.463 1.465-3.383 2.197-5.302 2.197z" fill="#e7889d"/></g></g></g></svg>