<svg id="Capa_1" enable-background="new 0 0 512 512" height="512" viewBox="0 0 512 512" width="512" xmlns="http://www.w3.org/2000/svg"><g><g><path d="m96.38 253.913 194.691-194.69c23.875-23.875 62.585-23.875 86.46 0l111.765 111.765c13.397 13.397 13.397 35.118 0 48.515l-232.636 232.636c-13.397 13.397-35.118 13.397-48.515 0l-111.765-111.765c-23.875-23.876-23.875-62.585 0-86.461z" fill="#f2d98d"/></g><path d="m382.824 283.97 11.309 7.445c8.163 5.374 18.979 4.272 25.89-2.639l42.938-42.938c6.911-6.911 8.013-17.727 2.639-25.89l-7.445-11.309c-3.82-5.802-3.036-13.49 1.876-18.402 13.397-13.397 13.397-35.118 0-48.515l-126.729-126.729c-19.991-19.991-52.403-19.991-72.394 0l-208.757 208.758c-19.991 19.991-19.991 52.403 0 72.394l126.729 126.729c13.397 13.397 35.118 13.397 48.515 0l137.027-137.027c4.911-4.913 12.599-5.697 18.402-1.877z" fill="#f6ee86"/><path d="m333.059 106.204-1.694-.349c-6.253-29.478-32.482-51.663-63.796-51.663h-45.86l-169.558 169.559c-19.991 19.991-19.991 52.403 0 72.394l126.729 126.729c13.397 13.397 35.118 13.397 48.515 0l105.385-105.387v-49.617l.277-.057c23.821-4.908 41.111-26.122 41.111-50.443v-60.723c0-24.321-17.289-45.535-41.109-50.443z" fill="#f2d98d"/><g><path d="m313.56 240.275 13.262-2.732c9.572-1.972 16.44-10.4 16.44-20.173v-60.724c0-9.773-6.868-18.201-16.44-20.173l-13.262-2.732c-6.804-1.402-11.686-7.392-11.686-14.339 0-18.946-15.359-34.305-34.305-34.305h-179.221c-28.272 0-51.19 22.919-51.19 51.19v295.227c0 28.272 22.919 51.19 51.19 51.19h179.221c18.946 0 34.305-15.359 34.305-34.305v-193.785c0-6.946 4.882-12.937 11.686-14.339z" fill="#88d37f"/></g><path d="m236.805 205.957c-24.234-16.565-52.558-25.321-81.911-25.321h-117.737v250.879c0 28.271 22.919 51.19 51.19 51.19h179.221c18.946 0 34.305-15.359 34.305-34.305v-193.786c0-1.319.178-2.604.51-3.829z" fill="#5ec682"/><path d="m328.101 512h-275.782c-21.905 0-39.663-17.758-39.663-39.663v-236.882c0-13.207 10.706-23.913 23.914-23.913h118.325c23.007 0 45.477 6.946 64.471 19.93l120.7 82.508c17.333 11.849 27.699 31.491 27.699 52.487v105.871c-.001 21.904-17.759 39.662-39.664 39.662z" fill="#cde9fa"/><path d="m328.101 512h-275.782c-21.905 0-39.663-17.758-39.663-39.663v-236.882c0-13.207 10.706-23.913 23.914-23.913h118.325c23.007 0 45.477 6.946 64.471 19.93l120.7 82.508c17.333 11.849 27.699 31.491 27.699 52.487v105.871c-.001 21.904-17.759 39.662-39.664 39.662z" fill="#cde9fa"/><path d="m89.589 211.541h-53.019c-13.207 0-23.914 10.706-23.914 23.913v236.883c0 21.905 17.758 39.663 39.663 39.663h144.819c-98.201-46.34-108.743-202.235-107.549-300.459z" fill="#a2ddfd"/><path d="m12.656 417.046h355.108v39.416h-355.108z" fill="#b0ade2"/><path d="m12.656 417.046v39.416h124.259c-7.597-12.125-14.028-25.383-19.444-39.416z" fill="#a09cdc"/><g><g><ellipse cx="108.252" cy="368.365" fill="#fff" rx="30.241" ry="24.082"/><ellipse cx="272.168" cy="368.365" fill="#fff" rx="30.241" ry="24.082"/><path d="m190.21 342.778c-11.997 0-22.681-8.062-29.401 1.88-6.816 10.085 8.45 25.723 29.401 25.723s36.217-15.638 29.401-25.723c-6.72-9.941-17.404-1.88-29.401-1.88z" fill="#4e5660"/></g><g fill="#4e5660"><path d="m125.877 351.018c-7.283 0-14.209-3.154-19.001-8.653-2.721-3.123-2.396-7.86.727-10.582 3.123-2.721 7.86-2.397 10.582.727 1.943 2.229 4.747 3.508 7.693 3.508s5.75-1.279 7.692-3.508c2.721-3.123 7.459-3.447 10.582-.727 3.123 2.722 3.448 7.459.727 10.582-4.794 5.499-11.72 8.653-19.002 8.653z"/><path d="m254.543 351.018c-7.282 0-14.207-3.154-19-8.653-2.722-3.122-2.396-7.86.726-10.582 3.122-2.72 7.86-2.397 10.582.726 1.943 2.229 4.748 3.508 7.693 3.508 2.946 0 5.75-1.279 7.693-3.508 2.722-3.124 7.459-3.448 10.581-.726 3.123 2.722 3.448 7.46.726 10.582-4.793 5.499-11.719 8.653-19.001 8.653z"/></g></g></g></svg>