<svg id="Capa_1" enable-background="new 0 0 512 512" height="512" viewBox="0 0 512 512" width="512" xmlns="http://www.w3.org/2000/svg"><g><path d="m152.287 310.989 150.83-150.83c9.39-9.39 9.39-24.614 0-34.004l-111.24-111.241c-9.39-9.39-24.614-9.39-34.004 0l-150.831 150.83c-9.39 9.39-9.39 24.614 0 34.004l111.241 111.241c9.39 9.39 24.614 9.39 34.004 0z" fill="#fbf1cf"/><path d="m13.802 206.508 104.481 104.481c9.39 9.39 24.614 9.39 34.004 0l104.481-104.481z" fill="#fae0bd"/><g fill="#59636f"><path d="m226.582 129.196c-1.919 0-3.839-.732-5.303-2.197l-30.246-30.246c-2.929-2.929-2.929-7.678 0-10.606 2.929-2.929 7.678-2.929 10.606 0l30.246 30.246c2.929 2.929 2.929 7.678 0 10.606-1.464 1.464-3.383 2.197-5.303 2.197z"/><path d="m212.033 177.983c-1.919 0-3.839-.732-5.303-2.197l-64.484-64.484c-2.929-2.929-2.929-7.678 0-10.607s7.678-2.929 10.607 0l64.484 64.484c2.929 2.929 2.929 7.678 0 10.606-1.465 1.466-3.385 2.198-5.304 2.198z"/><path d="m187.322 202.693c-1.92 0-3.839-.732-5.303-2.197l-64.484-64.484c-2.929-2.929-2.929-7.678 0-10.606 2.929-2.929 7.678-2.929 10.606 0l64.484 64.484c2.929 2.929 2.929 7.678 0 10.606-1.464 1.465-3.383 2.197-5.303 2.197z"/><path d="m90.731 206.328c-1.919 0-3.839-.732-5.303-2.197l-18.005-18.006c-2.929-2.929-2.929-7.678 0-10.606 2.929-2.929 7.678-2.93 10.606 0l18.005 18.006c2.929 2.929 2.929 7.678 0 10.607-1.465 1.463-3.385 2.196-5.303 2.196z"/></g><path d="m361.081 103.219h-89.249c-9.361 0-15.626 9.736-11.635 18.203 6.216 13.185 9.83 24.289 9.83 33.943 0 23.389-19.206 26.641-19.206 65.85 0 12.01 3.361 23.25 9.21 32.868 4.703 7.734 13.082 12.476 22.134 12.476h68.584c9.052 0 17.431-4.742 22.134-12.476 5.849-9.618 9.21-20.858 9.21-32.868 0-39.209-19.206-42.461-19.206-65.85 0-9.654 3.614-20.758 9.83-33.943 3.99-8.467-2.275-18.203-11.636-18.203z" fill="#88d37f"/><path d="m372.882 254.083c5.849-9.618 9.21-20.858 9.21-32.868 0-5.585-.4-10.42-1.068-14.708h-129.135c-.668 4.288-1.068 9.123-1.068 14.708 0 12.01 3.361 23.25 9.21 32.868 4.703 7.734 13.082 12.476 22.134 12.476h68.584c9.051 0 17.43-4.742 22.133-12.476z" fill="#5ec682"/><path d="m327.591 504.129h-235.999c-35.851 0-64.915-29.063-64.915-64.915v-178.504c0-12.867 10.43-23.297 23.297-23.297h319.234c12.867 0 23.297 10.431 23.297 23.297v178.504c0 35.851-29.063 64.915-64.914 64.915z" fill="#e0b799"/><path d="m355.05 237.413h-175.406l212.049 212.049c.53-3.339.813-6.76.813-10.248v-164.346z" fill="#d99a84"/><path d="m265.204 276.481h-111.225c-10.083 0-18.257 8.174-18.257 18.257v16.245c0 10.083 8.174 18.257 18.257 18.257h111.226c10.083 0 18.257-8.174 18.257-18.257v-16.245c-.001-10.083-8.175-18.257-18.258-18.257z" fill="#59636f"/><path d="m504.301 430.371-268.676-268.676c-10.266-10.266-26.909-10.266-37.175 0l-12.838 12.838c-6.942 6.942-6.942 18.198 0 25.14l280.711 280.711c6.942 6.942 18.198 6.942 25.14 0l12.839-12.839c10.264-10.264 10.264-26.908-.001-37.174z" fill="#e0b799"/><g><g fill="#fff"><ellipse cx="128.849" cy="416.253" rx="29.792" ry="23.725"/><ellipse cx="290.333" cy="416.253" rx="29.792" ry="23.725"/></g><g fill="#4e5660"><path d="m160.393 397.935c-4.142 0-7.5-3.358-7.5-7.5 0-3.684-2.997-6.68-6.681-6.68s-6.68 2.997-6.68 6.68c0 4.142-3.358 7.5-7.5 7.5s-7.5-3.358-7.5-7.5c0-11.955 9.726-21.68 21.68-21.68 11.955 0 21.681 9.726 21.681 21.68 0 4.142-3.358 7.5-7.5 7.5z"/><path d="m287.151 397.935c-4.142 0-7.5-3.358-7.5-7.5 0-3.684-2.997-6.68-6.68-6.68s-6.681 2.997-6.681 6.68c0 4.142-3.358 7.5-7.5 7.5s-7.5-3.358-7.5-7.5c0-11.955 9.726-21.68 21.681-21.68s21.68 9.726 21.68 21.68c0 4.142-3.358 7.5-7.5 7.5z"/><path d="m209.591 421.362c-7.932 0-15.476-3.436-20.696-9.425-2.722-3.122-2.396-7.86.726-10.582s7.86-2.397 10.581.726c2.371 2.721 5.793 4.281 9.388 4.281s7.017-1.56 9.388-4.281c2.722-3.123 7.459-3.448 10.582-.726 3.123 2.721 3.448 7.459.726 10.582-5.219 5.99-12.763 9.425-20.695 9.425z"/></g></g></g></svg>