<svg id="Capa_1" enable-background="new 0 0 512 512" height="512" viewBox="0 0 512 512" width="512" xmlns="http://www.w3.org/2000/svg"><g><path d="m392.595 185.427c-15.424 0-27.927-12.504-27.927-27.927v-53.234c0-18.562-15.101-33.662-33.662-33.662h-150.012c-18.562 0-33.663 15.101-33.663 33.662v53.234c0 15.424-12.504 27.927-27.927 27.927-15.424 0-27.927-12.504-27.927-27.927v-53.234c0-49.36 40.157-89.517 89.517-89.517h150.012c49.36 0 89.517 40.157 89.517 89.517v53.234c0 15.423-12.503 27.927-27.928 27.927z" fill="#59636f"/><path d="m300.395 6.827h-88.789c-10.469 0-18.955 8.486-18.955 18.955v33.788c0 10.469 8.487 18.955 18.955 18.955h88.789c10.469 0 18.955-8.486 18.955-18.955v-33.788c0-10.469-8.487-18.955-18.955-18.955z" fill="#f6ee86"/><path d="m496.495 225.916h-480.99v200.878c0 43.288 35.092 78.379 78.379 78.379h324.232c43.288 0 78.379-35.092 78.379-78.379z" fill="#e0b799"/><path d="m15.505 225.916v142.283c19.448 15.525 43.796 24.262 69.434 24.262h96.376c22.004 12.69 47.512 19.957 74.686 19.957s52.682-7.266 74.686-19.957h96.375c25.638 0 49.986-8.737 69.434-24.262v-142.283z" fill="#d99a84"/><path d="m410.171 469.235h-316.017c-23.55 0-42.71-19.16-42.71-42.71v-157.17c0-4.142 3.358-7.5 7.5-7.5h394.112c4.143 0 7.5 3.358 7.5 7.5v149.494c0 27.783-22.603 50.386-50.385 50.386zm-343.727-192.38v149.67c0 15.279 12.431 27.71 27.71 27.71h316.017c19.512 0 35.385-15.874 35.385-35.386v-141.994z" fill="#fbf1cf"/><path d="m427.062 351.253h-342.124c-23.539 0-45.51-11.802-58.506-31.428-17.239-26.034-26.432-56.567-26.432-87.792v-10.958c0-35.111 28.464-63.575 63.576-63.575h384.847c35.112 0 63.576 28.464 63.576 63.576v10.958c0 31.224-9.193 61.758-26.432 87.791-12.996 19.626-34.967 31.428-58.505 31.428z" fill="#e0b799"/><path d="m106.042 262.459c0 33.205 10.856 63.919 29.195 88.794h241.527c18.339-24.875 29.195-55.589 29.195-88.794 0-40.828-16.409-77.891-42.968-104.959h-213.981c-26.56 27.068-42.968 64.131-42.968 104.959z" fill="#d99a84"/><path d="m171.589 326.047h-46.122c-7.174 0-12.989 5.815-12.989 12.989v24.435c0 7.174 5.815 12.989 12.989 12.989h46.122c7.174 0 12.989-5.815 12.989-12.989v-24.435c0-7.174-5.816-12.989-12.989-12.989z" fill="#f6ee86"/><path d="m340.411 326.047h46.122c7.174 0 12.989 5.815 12.989 12.989v24.435c0 7.174-5.815 12.989-12.989 12.989h-46.122c-7.174 0-12.989-5.815-12.989-12.989v-24.435c0-7.174 5.816-12.989 12.989-12.989z" fill="#f6ee86"/><g><circle cx="256" cy="262.459" fill="#88d37f" r="119.053"/><path d="m341.025 345.78c-159.053-3.282-164.304-145.96-134.203-191.772-41.213 18.719-69.875 60.236-69.875 108.45 0 65.751 53.302 119.053 119.053 119.053 33.309.001 63.417-13.684 85.025-35.731z" fill="#5ec682"/><circle cx="256" cy="262.459" fill="#fbf1cf" r="83.386"/><path d="m192.483 208.439c-12.389 14.552-19.869 33.411-19.869 54.02 0 46.053 37.333 83.386 83.386 83.386 11.936 0 23.283-2.513 33.55-7.031-74.632-20.404-98.242-81.303-97.067-130.375z" fill="#fae0bd"/><g><path d="m256 269.958c-1.919 0-3.839-.732-5.303-2.197l-29.274-29.274c-2.929-2.929-2.929-7.678 0-10.606 2.929-2.929 7.678-2.929 10.606 0l29.275 29.274c2.929 2.929 2.929 7.678 0 10.606-1.465 1.465-3.385 2.197-5.304 2.197z" fill="#59636f"/><path d="m283.026 269.958h-27.026c-4.142 0-7.5-3.358-7.5-7.5s3.358-7.5 7.5-7.5h27.026c4.143 0 7.5 3.358 7.5 7.5s-3.357 7.5-7.5 7.5z" fill="#e16e7e"/></g></g></g></svg>