<svg id="Capa_1" enable-background="new 0 0 512 512" height="512" viewBox="0 0 512 512" width="512" xmlns="http://www.w3.org/2000/svg"><g><path d="m495.089 349.332-145.757 145.757c-22.549 22.549-59.107 22.549-81.655 0l-250.766-250.766c-22.549-22.549-22.549-59.107 0-81.655l145.757-145.757c22.549-22.549 59.107-22.549 81.655 0l250.765 250.765c22.549 22.549 22.549 59.108.001 81.656z" fill="#59636f"/><path d="m182.206 47.13-39.518 39.518c-4.586 4.586-5.866 11.372-3.734 17.496 3.064 8.799-.588 18.573-8.412 26.397s-17.598 11.476-26.397 8.412c-6.124-2.133-12.91-.852-17.496 3.734l-39.519 39.519c-11.758 11.758-11.758 30.822 0 42.58l240.085 240.084c11.758 11.758 30.822 11.758 42.58 0l135.075-135.075c11.758-11.758 11.758-30.822 0-42.58l-240.085-240.085c-11.758-11.758-30.821-11.758-42.579 0z" fill="#b0ade2"/><path d="m243.189 309.984c-8.447 0-16.784-2.269-24.108-6.561-10.967-6.426-27.91-6.426-33.477-6.426-46.089 0-83.583-37.496-83.583-83.584s37.495-83.583 83.583-83.583c5.567 0 22.511 0 33.479-6.427 7.322-4.291 15.659-6.56 24.106-6.56 19.703 0 37.038 11.85 44.164 30.19 1.655 4.257 3.17 8.636 4.531 13.082 24.182 5.666 42.245 27.413 42.245 53.298s-18.062 47.633-42.245 53.299c-1.362 4.447-2.876 8.826-4.531 13.083-7.126 18.339-24.461 30.189-44.164 30.189z" fill="#a09cdc"/><path d="m182.206 47.13-39.518 39.518c-4.586 4.586-5.866 11.372-3.734 17.496 3.064 8.799-.588 18.573-8.412 26.397s-17.598 11.476-26.397 8.412c-6.124-2.133-12.91-.852-17.496 3.734l-39.519 39.518c-11.758 11.758-11.758 30.822 0 42.58l41.519 41.519c42.092 3.993 89.962-13.474 127.071-50.584 37.11-37.11 54.576-84.979 50.584-127.071l-41.519-41.519c-11.758-11.758-30.821-11.758-42.579 0z" fill="#e7889d"/><path d="m265.12 122.156c-6.604-3.425-14.078-5.313-21.931-5.313-8.447 0-16.784 2.269-24.106 6.56-10.968 6.427-27.911 6.427-33.479 6.427-46.089 0-83.583 37.495-83.583 83.583 0 19.645 6.83 37.716 18.217 52 33.214-4.814 67.424-21.633 95.483-49.692 27.519-27.52 44.224-60.955 49.399-93.565z" fill="#e16e7e"/><g><g><ellipse cx="277.054" cy="399.21" fill="#fff" rx="31.872" ry="25.381" transform="matrix(.707 -.707 .707 .707 -201.137 312.835)"/><ellipse cx="399.21" cy="277.054" fill="#fff" rx="31.872" ry="25.381" transform="matrix(.707 -.707 .707 .707 -78.981 363.432)"/><ellipse cx="324.343" cy="324.343" fill="#4e5660" rx="16.918" ry="18.931" transform="matrix(.707 -.707 .707 .707 -134.347 324.339)"/></g><g fill="#4e5660"><path d="m259.165 381.286c-1.919 0-3.839-.732-5.303-2.196l-8.742-8.741c-2.93-2.929-2.93-7.678-.001-10.607 2.93-2.929 7.679-2.929 10.606-.001l8.742 8.741c2.93 2.929 2.93 7.678.001 10.607-1.464 1.464-3.384 2.197-5.303 2.197z"/><path d="m373.785 266.665c-1.919 0-3.839-.733-5.304-2.197l-8.741-8.741c-2.929-2.929-2.929-7.678 0-10.607 2.93-2.929 7.678-2.929 10.608 0l8.741 8.741c2.929 2.929 2.929 7.678 0 10.606-1.465 1.465-3.385 2.198-5.304 2.198z"/></g></g><g><ellipse cx="279.393" cy="213.414" fill="#f6ee86" rx="23.831" ry="23.831" transform="matrix(.707 -.707 .707 .707 -69.074 260.068)"/><path d="m269.229 213.414c0-21.375-5.138-40.918-10.683-55.187-3.703-9.531-15.017-13.328-23.839-8.158-15.657 9.175-34.439 10.668-49.103 10.668-29.093 0-52.678 23.585-52.678 52.678s23.585 52.678 52.678 52.678c14.664 0 33.446 1.493 49.103 10.668 8.822 5.17 20.136 1.372 23.839-8.158 5.545-14.271 10.683-33.814 10.683-55.189z" fill="#f6ee86"/><path d="m177.918 161.3c-25.449 3.721-44.992 25.632-44.992 52.114 0 29.093 23.585 52.678 52.678 52.678 8.416 0 18.187.501 27.947 2.654-40.003-33.005-45.587-74.966-35.633-107.446z" fill="#f2d98d"/><path d="m220.574 156.214c5.84 14.415 11.484 34.798 11.484 57.199s-5.644 42.784-11.484 57.199c4.854 1.516 9.625 3.504 14.134 6.146 8.822 5.17 20.136 1.372 23.839-8.158 5.545-14.269 10.683-33.813 10.683-55.187 0-21.375-5.138-40.918-10.683-55.187-3.703-9.531-15.017-13.328-23.839-8.159-4.509 2.643-9.28 4.631-14.134 6.147z" fill="#e0b799"/></g><g fill="#f2d98d"><path d="m474.038 152.158c-4.143 0-7.5-3.358-7.5-7.5 0-51.351-41.777-93.128-93.129-93.128-4.143 0-7.5-3.358-7.5-7.5s3.357-7.5 7.5-7.5c59.622 0 108.129 48.506 108.129 108.128 0 4.142-3.357 7.5-7.5 7.5z"/><path d="m431.182 152.158c-4.143 0-7.5-3.358-7.5-7.5 0-27.72-22.552-50.272-50.272-50.272-4.143 0-7.5-3.358-7.5-7.5s3.357-7.5 7.5-7.5c35.991 0 65.272 29.281 65.272 65.272 0 4.142-3.358 7.5-7.5 7.5z"/></g></g></svg>