<svg id="Capa_1" enable-background="new 0 0 497 497" height="512" viewBox="0 0 497 497" width="512" xmlns="http://www.w3.org/2000/svg"><g><path d="m430.626 374.577c-95.351 6.723-202.772-55.868-320.295-30.658v-224.007c116.112-24.908 222.362 35.89 316.855 30.87 17.315-.92 31.807 13.007 31.807 30.347v163.121c0 15.999-12.408 29.202-28.367 30.327z" fill="#fbf1cf"/><path d="m184.077 114.243c-24.111-1.082-48.698.296-73.745 5.669v224.008c59.685-12.803 116.762-2.96 170.978 8.949-66.959-49.66-100.733-171.153-97.233-238.626z" fill="#fae0bd"/><path d="m342.772 254.386v112.004c30.472 6.121 59.925 10.222 88.308 8.155 15.781-1.15 27.913-14.463 27.913-30.286v-85.969c-36.851 8.819-75.633 4.249-116.221-3.904z" fill="#59636f"/><path d="m226.552 230.471c-37.523-5.544-76.288-7.121-116.221 1.445v112.004c39.933-8.566 78.698-6.99 116.221-1.445z" fill="#59636f"/><path d="m226.552 342.475v-56.705c-9.925-18.379-18.165-38.26-24.671-58.29-29.778-2.758-60.306-2.265-91.549 4.437v112.003c39.932-8.566 78.697-6.99 116.22-1.445z" fill="#455060"/><path d="m226.552 118.467v112.004c40.199 5.94 78.971 16.433 116.22 23.915v-112.003c-37.249-7.483-76.022-17.976-116.22-23.916z" fill="#59636f"/><path d="m72.335 497h17.568c11.283 0 20.429-9.146 20.429-20.429v-378.543c0-7.464-6.05-13.514-13.514-13.514h-31.398c-7.464 0-13.514 6.05-13.514 13.514v378.543c0 11.283 9.146 20.429 20.429 20.429z" fill="#e0b799"/><path d="m51.906 187.427h58.425v38.754h-58.425z" fill="#d99a84"/><path d="m51.906 296.004h58.425v38.754h-58.425z" fill="#d99a84"/><path d="m113.893 195.71h-65.549c-5.709 0-10.337-4.628-10.337-10.337v-18.079c0-5.709 4.628-10.337 10.337-10.337h65.549c5.709 0 10.337 4.628 10.337 10.337v18.079c0 5.709-4.628 10.337-10.337 10.337z" fill="#59636f"/><path d="m113.893 304.288h-65.549c-5.709 0-10.337-4.628-10.337-10.337v-18.079c0-5.709 4.628-10.337 10.337-10.337h65.549c5.709 0 10.337 4.628 10.337 10.337v18.079c0 5.709-4.628 10.337-10.337 10.337z" fill="#59636f"/><ellipse cx="81.119" cy="43.111" fill="#f6ee86" rx="43.111" ry="43.111" transform="matrix(.707 -.707 .707 .707 -6.725 69.987)"/><path d="m81.119 86.223c16.775 0 31.302-9.588 38.428-23.577-43.126 9.109-66.707-43.195-56.114-58.849-14.987 6.753-25.426 21.81-25.426 39.315 0 23.809 19.302 43.111 43.112 43.111z" fill="#f2d98d"/><path d="m113.497 121.264h-64.757c-4.794 0-8.68-3.886-8.68-8.68v-19.78c0-11.226 9.101-20.327 20.327-20.327h41.464c11.226 0 20.327 9.101 20.327 20.327v19.78c0 4.794-3.887 8.68-8.681 8.68z" fill="#f6ee86"/></g></svg>