<svg id="Capa_1" enable-background="new 0 0 512 512" height="512" viewBox="0 0 512 512" width="512" xmlns="http://www.w3.org/2000/svg"><g><path d="m284.742 44.724h68.201v48.694h-68.201z" fill="#b0ade2"/><path d="m372.904 93.418h-108.123c-14.464 0-26.189 11.725-26.189 26.189v36.729h160.502v-36.729c0-14.464-11.726-26.189-26.19-26.189z" fill="#f6ee86"/><path d="m303.531 93.418h-38.75c-14.464 0-26.189 11.725-26.189 26.189v36.729h82.519c-15.704-9.061-19.131-38.155-17.58-62.918z" fill="#f2d98d"/><path d="m435.583 249.417v-45.914c0-33.041-26.785-59.827-59.827-59.827h-113.827c-33.041 0-59.827 26.785-59.827 59.827v45.914c0 11.072 5.416 21.444 14.502 27.771l6.253 4.354c9.086 6.327 14.502 16.699 14.502 27.771v19.499c0 11.072-5.416 21.443-14.502 27.771l-6.253 4.354c-9.086 6.327-14.502 16.699-14.502 27.771v79.965c0 23.929 19.398 43.328 43.328 43.328h146.825c23.929 0 43.328-19.398 43.328-43.328v-79.965c0-11.072-5.416-21.444-14.502-27.771l-6.253-4.354c-9.086-6.327-14.502-16.699-14.502-27.771v-19.499c0-11.072 5.416-21.443 14.502-27.771l6.253-4.354c9.086-6.328 14.502-16.7 14.502-27.771z" fill="#f6ee86"/><path d="m312.186 431.261v-102.61c0-56.519-45.981-102.5-102.5-102.5h-7.584v23.266c0 11.072 5.416 21.444 14.502 27.771l6.253 4.354c9.086 6.327 14.502 16.699 14.502 27.771v19.499c0 11.072-5.416 21.444-14.502 27.771l-6.253 4.354c-9.086 6.327-14.502 16.699-14.502 27.771v79.965c0 20.374 14.067 37.455 33.015 42.083 4.018-6.429 6.813-13.698 8.055-21.477h10.997c31.991-.001 58.017-26.028 58.017-58.018z" fill="#f2d98d"/><path d="m237.359 311.56h162.966v15h-162.966z" fill="#f2d98d"/><path d="m216.604 277.187 4.322 3.01h195.833l4.322-3.01c9.086-6.327 14.502-16.699 14.502-27.771v-45.914c0-33.041-26.785-59.827-59.827-59.827h-113.827c-33.041 0-59.827 26.785-59.827 59.827v45.914c0 11.072 5.416 21.444 14.502 27.771z" fill="#b0ade2"/><path d="m216.604 277.187 4.322 3.01h79.063c-17.319-32.147-51.3-54.046-90.303-54.046h-7.584v23.266c0 11.071 5.416 21.443 14.502 27.77z" fill="#a09cdc"/><path d="m202.102 393.19v75.482c0 23.929 19.398 43.328 43.328 43.328h146.825c23.929 0 43.328-19.398 43.328-43.328v-75.482z" fill="#b0ade2"/><path d="m202.102 393.19v75.482c0 20.375 14.067 37.455 33.016 42.083 4.018-6.429 6.813-13.698 8.055-21.477h10.997c31.991 0 58.017-26.026 58.017-58.017v-38.071z" fill="#a09cdc"/><path d="m209.686 257.056h-61.674c-39.541 0-71.595 32.054-71.595 71.595v151.444c0 14.973 12.138 27.112 27.112 27.112h82.352c14.974 0 27.112-12.138 27.112-27.112v-21.723h41.176c14.974 0 27.112-12.138 27.112-27.112v-102.609c0-39.541-32.054-71.595-71.595-71.595z" fill="#cde9fa"/><path d="m281.281 406.002c-36.923-9.16-61.631-59.53-68.288-89.004v141.374h41.176c14.973 0 27.112-12.138 27.112-27.112z" fill="#a2ddfd"/><path d="m345.507 0h-53.328c-10.175 0-19.164 6.626-22.174 16.345l-2.776 8.959c-2.987 9.643 4.22 19.421 14.315 19.421h74.598c10.095 0 17.302-9.778 14.315-19.421l-2.775-8.959c-3.012-9.719-12.001-16.345-22.175-16.345z" fill="#f2d98d"/><g fill="#a2ddfd"><path d="m132.355 351.23c-1.919 0-3.839-.733-5.303-2.196-2.929-2.93-2.929-7.678 0-10.607l17.088-17.088c2.929-2.928 7.678-2.928 10.606 0 2.929 2.93 2.929 7.678 0 10.607l-17.088 17.088c-1.464 1.464-3.384 2.196-5.303 2.196z"/><path d="m171.26 416.834c-1.919 0-3.839-.732-5.303-2.197l-11.71-11.711c-2.929-2.929-2.929-7.678 0-10.607 2.929-2.928 7.678-2.929 10.606.001l11.711 11.711c2.929 2.929 2.929 7.678 0 10.606-1.465 1.465-3.385 2.197-5.304 2.197z"/><path d="m120.885 459.691c-1.92 0-3.839-.732-5.303-2.196-2.929-2.929-2.929-7.678 0-10.606l9.452-9.452c2.929-2.93 7.678-2.929 10.606-.001 2.929 2.929 2.929 7.678 0 10.607l-9.452 9.452c-1.464 1.464-3.383 2.196-5.303 2.196z"/></g><g><g fill="#fff"><ellipse cx="236.885" cy="231.882" rx="30.241" ry="24.082"/><ellipse cx="400.8" cy="231.882" rx="30.241" ry="24.082"/></g><g fill="#4e5660"><path d="m254.509 216.199c-4.142 0-7.5-3.357-7.5-7.5v-12.361c0-4.143 3.358-7.5 7.5-7.5s7.5 3.357 7.5 7.5v12.361c0 4.143-3.358 7.5-7.5 7.5z"/><path d="m383.176 216.199c-4.142 0-7.5-3.357-7.5-7.5v-12.361c0-4.143 3.358-7.5 7.5-7.5s7.5 3.357 7.5 7.5v12.361c0 4.143-3.358 7.5-7.5 7.5z"/><path d="m318.842 223.559c-8.667 0-16.911-3.754-22.615-10.299-2.722-3.122-2.397-7.86.726-10.581 3.122-2.723 7.86-2.397 10.582.726 2.855 3.275 6.977 5.154 11.308 5.154s8.452-1.879 11.307-5.154c2.722-3.123 7.459-3.449 10.582-.726 3.122 2.721 3.448 7.459.726 10.581-5.706 6.545-13.948 10.299-22.616 10.299z"/></g></g></g></svg>