<svg id="Capa_1" enable-background="new 0 0 512 512" height="512" viewBox="0 0 512 512" width="512" xmlns="http://www.w3.org/2000/svg"><g><path d="m191.119 373.982c4.766 0 8.875-3.302 9.959-7.943 10.796-46.227 29.452-64.134 29.452-123.017 0-62.681-39.551-113.494-95.811-113.494s-107.926 54.487-107.926 123.977c0 43.088.794 79.839 3.642 111.169.479 5.27 4.885 9.308 10.178 9.308z" fill="#a2ddfd"/><path d="m83.918 144.819c-33.11 20.918-57.125 61.312-57.125 108.686 0 43.088.793 79.839 3.642 111.169.479 5.27 4.885 9.308 10.178 9.308h124.345c-116.834-29.141-112.143-175.459-81.04-229.163z" fill="#7acefa"/><path d="m50.943 414.335c-6.762 0-11.694 6.465-9.842 12.968 8.763 30.77 22.661 53.496 44.498 70.2 11.462 9.014 26.536 14.497 43.062 14.497 35.858 0 64.927-22.922 64.927-70.729 0-5.744.096-11.196.277-16.388.201-5.771-4.433-10.548-10.208-10.548z" fill="#7acefa"/><g><path d="m320.881 244.454c-4.766 0-8.875-3.302-9.959-7.943-10.797-46.227-29.452-64.134-29.452-123.017 0-62.681 39.551-113.494 95.812-113.494s107.925 54.487 107.925 123.978c0 43.088-.794 79.84-3.642 111.169-.479 5.27-4.885 9.308-10.178 9.308h-150.506z" fill="#88d37f"/><g fill="#5ec682"><path d="m351.735 3.724c-42.32 12.79-70.264 57.085-70.264 109.77 0 58.883 18.656 76.791 29.452 123.017 1.084 4.641 5.193 7.943 9.959 7.943h111.068c-94.627-20.908-115.872-202.415-80.215-240.73z"/><path d="m461.057 284.807c6.762 0 11.694 6.465 9.842 12.968-8.763 30.77-22.661 53.496-44.498 70.2-11.461 9.014-26.536 14.497-43.062 14.497-35.858 0-64.927-22.922-64.927-70.729 0-5.744-.096-11.196-.277-16.388-.201-5.771 4.433-10.547 10.207-10.547h132.715z"/></g></g><g><path d="m135.451 334.544c-4.142 0-7.5-3.357-7.5-7.5v-123.875h-20.58c-4.142 0-7.5-3.357-7.5-7.5s3.358-7.5 7.5-7.5h28.08c4.142 0 7.5 3.357 7.5 7.5v131.375c0 4.142-3.358 7.5-7.5 7.5z" fill="#59636f"/></g><g><path d="m379.692 196.913c-24.494 0-26.191-.567-27.245-.919-2.616-.871-4.565-2.827-5.346-5.366-1.421-4.619.436-7.052 8.256-17.291 6.704-8.777 19.182-25.116 40.08-54.976 6.64-9.486 10.918-18.084 12.722-25.562l.535-4.188c-.24-14.195-11.861-25.669-26.112-25.669-12.453 0-23.23 8.851-25.626 21.046-.799 4.064-4.746 6.71-8.805 5.914-4.064-.799-6.712-4.74-5.914-8.805 3.773-19.212 20.741-33.155 40.345-33.155 22.671 0 41.116 18.444 41.116 41.116 0 .317-.02.636-.061.95l-.649 5.082c-.032.25-.076.498-.133.744-2.188 9.438-7.278 19.91-15.128 31.127-20.619 29.46-33.126 45.891-39.999 54.891 12.901.105 34.328-.021 53.944-.267 4.133-.061 7.542 3.263 7.594 7.404.052 4.143-3.263 7.542-7.405 7.594-18.723.237-32.298.33-42.169.33z" fill="#59636f"/></g><circle cx="290.715" cy="448.307" fill="#a2ddfd" r="44.669"/><circle cx="188.201" cy="48.012" fill="#88d37f" r="44.669"/></g></svg>