<svg id="Capa_1" enable-background="new 0 0 511.998 511.998" height="512" viewBox="0 0 511.998 511.998" width="512" xmlns="http://www.w3.org/2000/svg"><g><ellipse cx="377.088" cy="202.842" fill="#b0ade2" rx="134.91" ry="134.91" transform="matrix(.707 -.707 .707 .707 -32.984 326.053)"/><path d="m391.642 281.667c-38.529-38.529-69.788-44.283-84.992-44.283-16.35 0-30.868 5.876-41.986 16.993-2.806 2.806-5.613 5.65-8.399 8.531 22.097 44.362 67.896 74.844 120.823 74.844 17.352 0 33.938-3.279 49.175-9.246-7.528-15.55-19.327-31.546-34.621-46.839z" fill="#a09cdc"/><ellipse cx="377.089" cy="202.842" fill="#fbf1cf" rx="94.492" ry="94.492" transform="matrix(.707 -.707 .707 .707 -32.984 326.053)"/><g><path d="m377.088 210.342c-1.919 0-3.839-.732-5.304-2.196l-33.174-33.174c-2.929-2.93-2.929-7.678 0-10.607 2.93-2.928 7.678-2.928 10.607 0l33.174 33.174c2.929 2.93 2.929 7.678 0 10.607-1.464 1.463-3.384 2.196-5.303 2.196z" fill="#59636f"/><path d="m407.714 210.342h-30.626c-4.143 0-7.5-3.357-7.5-7.5s3.357-7.5 7.5-7.5h30.626c4.143 0 7.5 3.357 7.5 7.5 0 4.142-3.357 7.5-7.5 7.5z" fill="#e16e7e"/></g><path d="m391.642 281.667c-38.529-38.529-69.788-44.283-84.992-44.283-5.803 0-11.37.755-16.641 2.207 14.337 33.931 47.927 57.743 87.079 57.743 8.941 0 17.591-1.243 25.789-3.563-3.502-4.068-7.242-8.111-11.235-12.104z" fill="#fae0bd"/><path d="m372.117 409.836c1.701-20.136-13.437-46.691-37.695-70.948-24.341-24.342-50.998-39.504-71.159-37.68-3.153 3.81-6.159 7.716-8.919 11.72-5.22 7.575-14.475 11.267-23.43 9.161-16.966-3.99-37.165-15.484-58.088-36.407s-32.416-41.122-36.407-58.088c-2.106-8.955 1.586-18.21 9.161-23.43 4.004-2.76 7.91-5.766 11.72-8.919 1.824-20.161-13.338-46.817-37.679-71.159-24.257-24.256-50.812-39.395-70.947-37.694 0-.001-.001-.002-.002-.004-66.367 78.69-75.964 163.65 41.918 281.532 117.881 117.881 202.841 108.284 281.53 41.919-.001-.002-.002-.002-.003-.003z" fill="#f6ee86"/><path d="m140.279 239.471c-1.67-4.1-2.965-8.074-3.859-11.877-2.106-8.955 1.586-18.21 9.161-23.43 4.004-2.76 7.91-5.766 11.72-8.919 1.824-20.161-13.338-46.817-37.679-71.159-24.258-24.256-50.813-39.395-70.948-37.694 0-.001-.001-.002-.002-.004-66.367 78.69-75.964 163.65 41.918 281.532 24.167 24.167 46.948 42.964 68.577 57.025-44.81-57.981-34.179-144.574-18.888-185.474z" fill="#f2d98d"/><g><g fill="#eda1ab"><ellipse cx="63.033" cy="279.57" rx="24.082" ry="30.241" transform="matrix(.707 -.707 .707 .707 -179.225 126.457)"/><ellipse cx="178.939" cy="395.476" rx="24.082" ry="30.241" transform="matrix(.707 -.707 .707 .707 -227.233 242.36)"/></g><g fill="#4e5660"><path d="m91.888 283.14c-1.919 0-3.839-.732-5.303-2.196-2.929-2.93-2.929-7.678 0-10.608l8.741-8.741c2.929-2.928 7.678-2.928 10.606 0 2.929 2.93 2.929 7.678 0 10.607l-8.741 8.741c-1.464 1.464-3.383 2.197-5.303 2.197z"/><path d="m182.869 374.121c-1.919 0-3.839-.732-5.303-2.197-2.929-2.929-2.929-7.678 0-10.606l8.742-8.741c2.929-2.928 7.678-2.929 10.606.001 2.929 2.929 2.929 7.678 0 10.606l-8.742 8.741c-1.464 1.464-3.384 2.196-5.303 2.196z"/><path d="m148.08 340.417c-7.933 0-15.567-3.138-21.209-8.779-6.129-6.129-9.304-14.612-8.709-23.274.284-4.133 3.854-7.241 7.996-6.969 4.132.284 7.252 3.864 6.968 7.996-.298 4.335 1.288 8.577 4.351 11.64 3.063 3.064 7.311 4.646 11.639 4.351 4.14-.279 7.712 2.836 7.997 6.968.284 4.133-2.835 7.713-6.968 7.997-.688.046-1.378.07-2.065.07z"/></g></g><g fill="#e7889d"><path d="m119.622 124.087c24.342 24.342 39.504 50.999 37.679 71.16 8.87-7.341 17.209-15.487 24.977-23.256 18.287-18.287 3.241-52.74-27.29-83.271s-64.983-45.577-83.271-27.29c-8.271 8.271-15.976 16.581-23.044 24.962 20.136-1.701 46.691 13.438 70.949 37.695z"/><path d="m334.422 338.888c-24.342-24.342-50.999-39.504-71.16-37.68 7.341-8.87 15.487-17.209 23.256-24.977 18.287-18.287 52.74-3.241 83.271 27.29 30.531 30.53 45.577 64.983 27.29 83.271-8.271 8.271-16.581 15.976-24.962 23.044 1.701-20.136-13.437-46.691-37.695-70.948z"/></g></g></svg>