<svg id="Capa_1" enable-background="new 0 0 512 512" height="512" viewBox="0 0 512 512" width="512" xmlns="http://www.w3.org/2000/svg"><g><path d="m125.451 494.375 57.004-156.617h-57.916l-57.75 158.666c-2.407 6.612 2.49 13.605 9.527 13.605h26.778c10.002 0 18.936-6.255 22.357-15.654z" fill="#e0b799"/><path d="m270.876 494.375-57.004-156.617h57.916l57.75 158.666c2.407 6.612-2.49 13.605-9.527 13.605h-26.778c-10.002 0-18.936-6.255-22.357-15.654z" fill="#e0b799"/><path d="m271.788 337.758h-57.916l33.191 91.19h57.915z" fill="#d99a84"/><path d="m91.349 428.948h57.915l33.191-91.19h-57.916z" fill="#d99a84"/><path d="m314.535 396.376h-232.743c-23.238 0-42.077-18.838-42.077-42.077v-312.222c0-23.239 18.839-42.077 42.077-42.077h232.743c23.238 0 42.077 18.838 42.077 42.077v312.222c-.001 23.238-18.839 42.077-42.077 42.077z" fill="#fbf1cf"/><path d="m354.657 274.499c-2.753-1.896-5.636-3.544-8.624-4.937-4.353-14.901-12.395-28.555-23.637-39.796-35.608-35.61-82.596-35.917-116.014-48.71-38.434-14.711-78.107 16.998-72.78 57.334 6.679 50.562 25.162 91.672 54.936 122.189 11.49 11.779 25.606 20.19 41.108 24.705 1.435 3.161 3.151 6.203 5.138 9.086.464.674.936 1.334 1.402 2.005h78.349c23.238 0 42.077-18.838 42.077-42.077v-78.433c-.655-.454-1.298-.913-1.955-1.366z" fill="#fae0bd"/><path d="m39.715 166.242v66.832c77.774-5.889 88.605 73.471 163.008 73.471 34.196 0 61.917-23.983 61.917-53.568 0-59.272-109.952-112.899-224.925-86.735z" fill="#b0ade2"/><path d="m197.256 178.419c-35.306-6.997-68.559 22.828-63.653 59.971 2.231 16.893 5.788 32.724 10.635 47.463 15.614 11.701 33.449 20.692 58.486 20.692 34.196 0 61.917-23.983 61.917-53.569-.001-29.167-26.638-56.959-67.385-74.557z" fill="#a09cdc"/><g><g><path d="m144.335 102.984c.007 13.843-14.079 25.072-31.463 25.081-17.383.009-31.481-11.206-31.488-25.049s14.079-25.073 31.463-25.081c17.383-.009 31.481 11.206 31.488 25.049z" fill="#eda1ab"/><path d="m251.992 102.93c.007 13.843 14.105 25.058 31.488 25.049s31.47-11.238 31.463-25.081-14.105-25.059-31.488-25.05c-17.384.009-31.471 11.239-31.463 25.082z" fill="#eda1ab"/><path d="m229.011 91.61c-.01-19.068-13.824-20.852-30.864-20.844s-30.852 1.807-30.843 20.875c.01 19.067 13.831 34.518 30.871 34.509 17.04-.008 30.845-15.473 30.836-34.54z" fill="#4e5660"/></g><g fill="#4e5660"><path d="m265.845 81.747c-.005 0-.009 0-.015 0-4.142-.008-7.493-3.372-7.485-7.515l.023-12.362c.008-4.137 3.364-7.485 7.5-7.485h.015c4.142.008 7.493 3.372 7.485 7.515l-.023 12.362c-.008 4.136-3.365 7.485-7.5 7.485z"/><path d="m150.902 80.615c-.006 0-.011 0-.017 0-4.142-.009-7.492-3.374-7.483-7.517.009-3.853-3.119-6.993-6.972-7.002-.005 0-.011 0-.016 0-1.86 0-3.61.723-4.93 2.035-1.322 1.317-2.053 3.069-2.057 4.936-.009 4.137-3.365 7.484-7.5 7.484-.005 0-.01 0-.016 0-4.142-.009-7.493-3.373-7.484-7.516.012-5.873 2.311-11.39 6.474-15.534 4.15-4.132 9.657-6.405 15.512-6.405h.05c12.123.026 21.965 9.911 21.938 22.035-.007 4.137-3.364 7.484-7.499 7.484z"/></g></g><path d="m210.66 338.998c-29.089-29.816-41.661-68.648-46.418-104.655-2.293-17.358 14.74-30.683 31.092-24.424 35.924 13.751 76.918 13.409 105.21 41.7 24.627 24.627 24.476 64.65-.453 89.088-24.664 24.177-65.314 23.012-89.431-1.709z" fill="#b0ade2"/><path d="m300.543 251.62c-12.697-12.697-27.955-19.62-44.162-24.645-23.212 55.675-55.087 42.675-75.635 67.611 7.183 15.902 16.888 31.062 29.913 44.412 24.118 24.72 64.767 25.886 89.43 1.709 24.93-24.438 25.081-64.46.454-89.087z" fill="#e0b799"/><path d="m337.12 299.948c63.929 44.049 112.409 97.327 132.255 150.826 13.448 36.252-22.064 71.764-58.316 58.316-53.499-19.846-106.777-68.325-150.826-132.254-7.793-11.31-6.348-26.59 3.363-36.302l37.222-37.222c9.712-9.712 24.993-11.157 36.302-3.364z" fill="#e7889d"/><path d="m372.529 326.606c-11.132-9.168-22.938-18.056-35.325-26.598-11.339-7.818-26.65-6.432-36.389 3.307l-37.215 37.215c-9.739 9.739-11.126 25.051-3.307 36.389 8.541 12.388 17.43 24.193 26.597 35.325z" fill="#59636f"/></g></svg>