<svg id="Capa_1" enable-background="new 0 0 512 512" height="512" viewBox="0 0 512 512" width="512" xmlns="http://www.w3.org/2000/svg"><g><path d="m476.051 167.993-36.554-28.731c-19.641-15.437-47.292-15.437-66.933 0l-36.554 28.731c-22.697 17.84-35.948 45.111-35.948 73.979v111.156c0 34.999 28.372 63.371 63.371 63.371h85.195c34.999 0 63.371-28.372 63.371-63.371v-111.156c.001-28.868-13.251-56.139-35.948-73.979zm-70.02 47.487c-13.616 0-24.654-11.038-24.654-24.654s11.038-24.654 24.654-24.654 24.654 11.038 24.654 24.654-11.038 24.654-24.654 24.654z" fill="#88d37f"/><path d="m375.314 264.833v-111.156c0-5.308-.341-10.56-.987-15.739-.594.429-1.182.869-1.761 1.325l-36.554 28.731c-22.697 17.84-35.948 45.111-35.948 73.979v111.156c0 1.352.057 2.69.14 4.021 42.824-8.88 75.11-46.898 75.11-92.317z" fill="#5ec682"/><path d="m464.033 158.547-24.535-19.284c-19.641-15.437-47.292-15.437-66.933 0l-24.535 19.284c7.985 12.403 19.828 22.082 33.845 27.327 2.293-11.242 12.236-19.702 24.156-19.702s21.863 8.459 24.156 19.702c14.018-5.245 25.86-14.924 33.846-27.327z" fill="#5ec682"/><g><path d="m406.031 370.014c-15.887 0-29.521-11.851-31.713-27.565-.205-1.469-.31-2.969-.31-4.458 0-4.143 3.357-7.5 7.5-7.5s7.5 3.357 7.5 7.5c0 .797.056 1.599.165 2.383 1.165 8.347 8.412 14.64 16.858 14.64 9.386 0 17.022-7.637 17.022-17.023s-7.637-17.021-17.022-17.021c-4.143 0-7.5-3.357-7.5-7.5s3.357-7.5 7.5-7.5c9.386 0 17.022-7.637 17.022-17.022 0-9.386-7.637-17.022-17.022-17.022-8.117 0-15.142 5.768-16.702 13.715-.798 4.064-4.732 6.714-8.805 5.914-4.064-.798-6.712-4.74-5.914-8.805 2.938-14.964 16.153-25.824 31.421-25.824 17.657 0 32.022 14.365 32.022 32.022 0 9.832-4.454 18.643-11.45 24.522 6.996 5.879 11.45 14.689 11.45 24.521.001 17.657-14.364 32.023-32.022 32.023z" fill="#59636f"/></g><path d="m308.46 79.698-36.554-28.731c-19.641-15.437-47.292-15.437-66.933 0l-36.553 28.731c-22.697 17.839-35.949 45.11-35.949 73.979v111.156c0 34.999 28.372 63.371 63.371 63.371h85.195c34.999 0 63.371-28.372 63.371-63.371v-111.156c.001-28.869-13.251-56.14-35.948-73.979zm-70.02 47.487c-13.616 0-24.654-11.038-24.654-24.654s11.038-24.654 24.654-24.654 24.654 11.038 24.654 24.654-11.038 24.654-24.654 24.654z" fill="#f6ee86"/><path d="m296.441 70.251-24.535-19.284c-19.641-15.437-47.292-15.437-66.933 0l-24.535 19.284c7.985 12.403 19.828 22.082 33.845 27.327 2.293-11.243 12.236-19.702 24.156-19.702s21.863 8.459 24.156 19.702c14.019-5.245 25.861-14.924 33.846-27.327z" fill="#f2d98d"/><path d="m242.843 298.085c0-38.602-17.406-74.423-47.756-98.277l-36.554-28.731c-7.821-6.147-16.677-10.831-26.062-13.911v107.667c0 34.999 28.372 63.371 63.371 63.371h47.001z" fill="#f2d98d"/><g><path d="m235.753 279.611c-18.126 0-19.424-.433-20.452-.775-2.538-.847-4.433-2.758-5.197-5.244-1.344-4.368.44-6.703 6.35-14.441 4.882-6.392 13.968-18.288 29.188-40.034 4.666-6.667 7.674-12.671 8.944-17.853l.356-2.794c-.231-9.186-7.776-16.587-17.017-16.587-8.117 0-15.142 5.768-16.702 13.714-.798 4.064-4.733 6.714-8.805 5.914-4.064-.798-6.712-4.74-5.914-8.805 2.938-14.963 16.152-25.823 31.421-25.823 17.657 0 32.022 14.365 32.022 32.021 0 .317-.021.636-.061.95l-.474 3.707c-.032.25-.076.498-.133.743-1.655 7.14-5.475 15.017-11.351 23.413-12.864 18.381-21.41 29.822-26.759 36.867 9.408.031 22.766-.057 35.243-.213.032-.001.064-.001.097-.001 4.099 0 7.445 3.296 7.497 7.406.053 4.142-3.263 7.541-7.405 7.593-13.672.173-23.605.242-30.848.242z" fill="#59636f"/></g><path d="m175.989 224.105-36.554-28.731c-19.641-15.437-47.292-15.437-66.933 0l-36.554 28.731c-22.696 17.84-35.948 45.111-35.948 73.979v111.156c0 34.999 28.372 63.371 63.371 63.371h85.195c34.999 0 63.371-28.372 63.371-63.371v-111.156c0-28.868-13.252-56.139-35.948-73.979zm-70.02 47.487c-13.616 0-24.654-11.038-24.654-24.654s11.038-24.654 24.654-24.654 24.654 11.038 24.654 24.654c-.001 13.616-11.038 24.654-24.654 24.654z" fill="#e7889d"/><path d="m127.35 472.611c-94.904-39.594-84.477-199.031-80.983-256.694l-10.418 8.189c-22.697 17.839-35.949 45.11-35.949 73.978v111.156c0 34.999 28.372 63.371 63.371 63.371z" fill="#e16e7e"/><path d="m163.97 214.659-24.535-19.284c-19.641-15.437-47.292-15.437-66.933 0l-24.535 19.284c7.985 12.403 19.828 22.082 33.845 27.327 2.293-11.243 12.236-19.702 24.156-19.702s21.863 8.459 24.156 19.702c14.018-5.245 25.861-14.924 33.846-27.327z" fill="#e16e7e"/><g><path d="m113.154 425.381c-4.143 0-7.5-3.357-7.5-7.5v-88.334h-12.983c-4.143 0-7.5-3.357-7.5-7.5s3.357-7.5 7.5-7.5h20.483c4.143 0 7.5 3.357 7.5 7.5v95.834c0 4.142-3.357 7.5-7.5 7.5z" fill="#59636f"/></g></g></svg>