<svg id="Capa_1" enable-background="new 0 0 512 512" height="512" viewBox="0 0 512 512" width="512" xmlns="http://www.w3.org/2000/svg"><g><path d="m368.412 385.382c-10.829 0-19.608-8.779-19.608-19.608s8.779-19.608 19.608-19.608c63.404 0 104.372-27.177 104.372-69.235 0-19.049-15.497-34.546-34.547-34.546-11.042 0-21.159 5.094-27.757 13.974-6.458 8.694-18.741 10.506-27.433 4.046-8.693-6.458-10.504-18.74-4.046-27.432 13.865-18.662 36.009-29.803 59.236-29.803 40.673 0 73.763 33.09 73.763 73.762 0 55.959-46.588 108.45-143.588 108.45z" fill="#e0b799"/><path d="m440.737 329.598c-17.941 10.626-42.68 16.568-72.325 16.568-10.829 0-19.608 8.78-19.608 19.608s8.779 19.608 19.608 19.608c20.631 0 38.974-2.382 55.081-6.66 6.189-15.794 12.19-32.078 17.244-49.124z" fill="#d99a84"/><path d="m379.001 232.972c-6.458 8.692-4.647 20.974 4.046 27.432 8.693 6.461 20.975 4.649 27.433-4.046 6.598-8.88 16.715-13.974 27.757-13.974 5.892 0 11.442 1.486 16.301 4.097.187-7.707.066-15.586-.414-23.657-.388-6.528-1.72-12.79-3.856-18.659-3.918-.646-7.934-.997-12.031-.997-23.227.001-45.371 11.142-59.236 29.804z" fill="#d99a84"/><path d="m418.132 224.965c3.17 53.319-10.865 97.042-30.775 147.101-11.838 29.765-40.626 49.317-72.66 49.317h-113.16c-32.033 0-60.821-19.552-72.66-49.317-19.91-50.06-33.946-93.782-30.775-147.101.944-15.875 14.088-28.278 29.991-28.278h260.048c15.903 0 29.047 12.403 29.991 28.278z" fill="#cde9fa"/><path d="m287.865 421.384c-4.455-15.103-12.686-28.964-23.82-40.098l-164.349-164.348c-.874 2.536-1.428 5.226-1.594 8.027-3.171 53.32 10.865 97.042 30.775 147.101 11.838 29.765 40.626 49.317 72.66 49.317h86.328z" fill="#a2ddfd"/><path d="m123.533 358.378c1.726 4.518 3.51 9.076 5.345 13.689 11.838 29.765 40.626 49.317 72.66 49.317h113.16c32.033 0 60.821-19.552 72.66-49.317 1.835-4.613 3.618-9.171 5.344-13.689z" fill="#e0b799"/><path d="m128.877 372.067c11.838 29.765 40.626 49.317 72.66 49.317h86.328c-4.455-15.103-12.686-28.964-23.82-40.098l-22.908-22.908h-117.604c1.726 4.518 3.509 9.076 5.344 13.689z" fill="#d99a84"/><path d="m9.23 285.193 175.453 175.453c7.555 7.555 16.892 13.086 27.148 16.082l26.067 7.614c17.109 4.998 32.986-10.88 27.989-27.989l-7.614-26.067c-2.996-10.256-8.527-19.592-16.082-27.148l-175.454-175.452c-12.306-12.307-32.259-12.307-44.566 0l-12.941 12.941c-12.307 12.307-12.307 32.26 0 44.566z" fill="#f6ee86"/><path d="m199.514 471.648 53.678-53.678c2.104 3.907 3.827 8.024 5.081 12.317l7.614 26.067c4.998 17.109-10.88 32.986-27.989 27.989l-26.067-7.614c-4.292-1.254-8.41-2.977-12.317-5.081z" fill="#59636f"/><path d="m38.079 314.042-28.849-28.849c-12.306-12.307-12.306-32.259 0-44.566l12.942-12.942c12.306-12.307 32.259-12.307 44.566 0l28.849 28.849z" fill="#e7889d"/><path d="m59.58 262.133h49.521v81.328h-49.521z" fill="#59636f" transform="matrix(.707 .707 -.707 .707 238.812 29.049)"/><path d="m169.301 395.257c-1.92 0-3.839-.732-5.303-2.196l-28.71-28.71c-2.929-2.93-2.929-7.678 0-10.607 2.929-2.928 7.678-2.928 10.606 0l28.71 28.71c2.929 2.93 2.929 7.678 0 10.607-1.464 1.463-3.384 2.196-5.303 2.196z" fill="#d99a84"/><path d="m211.731 196.687c-26.749-47.196 52.434-93.837 25.076-156.61-3.116-7.15 3.221-14.78 10.843-13.125 66.06 14.34 92.278 72.216 44.501 169.736h-80.42z" fill="#fae0bd"/><g><g fill="#fff"><ellipse cx="172.03" cy="287.184" rx="31.765" ry="25.296"/><ellipse cx="344.204" cy="287.184" rx="31.765" ry="25.296"/></g><g fill="#4e5660"><path d="m190.542 270.022c-4.142 0-7.5-3.358-7.5-7.5v-12.362c0-4.143 3.358-7.5 7.5-7.5s7.5 3.357 7.5 7.5v12.362c0 4.143-3.358 7.5-7.5 7.5z"/><path d="m258.117 278.064c-8.995 0-17.549-3.896-23.47-10.689-2.721-3.123-2.396-7.86.727-10.582 3.123-2.721 7.86-2.396 10.582.727 3.07 3.523 7.503 5.544 12.161 5.544 4.659 0 9.091-2.021 12.162-5.544 2.722-3.123 7.459-3.448 10.582-.727 3.122 2.722 3.448 7.459.727 10.582-5.922 6.793-14.476 10.689-23.471 10.689z"/><path d="m342.404 269.678c-4.142 0-7.5-3.357-7.5-7.5 0-3.764-3.062-6.826-6.826-6.826s-6.826 3.063-6.826 6.826c0 4.143-3.358 7.5-7.5 7.5s-7.5-3.357-7.5-7.5c0-12.035 9.791-21.826 21.826-21.826s21.826 9.791 21.826 21.826c0 4.142-3.358 7.5-7.5 7.5z"/></g></g></g></svg>