<svg id="Capa_1" enable-background="new 0 0 512 512" height="512" viewBox="0 0 512 512" width="512" xmlns="http://www.w3.org/2000/svg"><g><path d="m194.22 129.215c0-15.814 12.82-28.634 28.634-28.634 15.814 0 28.634 12.82 28.634 28.634v-49.855c0-15.814 12.82-28.634 28.634-28.634 15.814 0 28.634 12.82 28.634 28.634v-20.842c0-15.814 12.82-28.634 28.634-28.634 15.814 0 28.634 12.82 28.634 28.634v33.784c0-15.814 12.82-28.634 28.634-28.634 15.814 0 28.634 12.82 28.634 28.634v128.694c0 7.767 9.391 11.657 14.883 6.165l18.809-18.809c12.585-12.585 32.989-12.585 45.574 0 12.585 12.585 12.585 32.989 0 45.574l-43.601 43.601c-22.836 22.836-53.808 35.665-86.103 35.665h-81.152c-53.84 0-97.486-43.646-97.486-97.486z" fill="#cb9d82"/><path d="m345.214 280.367c-.001-32.069-25.622-58.268-57.469-59.2-4.72-27.968-29.112-49.337-58.401-49.337-3.729 0-7.378.346-10.919 1.009-6.384-7.75-14.706-13.835-24.205-17.554v80.422c0 53.84 43.646 97.486 97.485 97.486h53.509z" fill="#b7856b"/><g fill="#b7856b"><path d="m251.489 176.464c-4.142 0-7.5-3.357-7.5-7.5v-39.749c0-4.143 3.358-7.5 7.5-7.5s7.5 3.358 7.5 7.5v39.749c0 4.142-3.358 7.5-7.5 7.5z"/><path d="m308.758 150.749c-4.142 0-7.5-3.357-7.5-7.5v-63.889c0-4.143 3.358-7.5 7.5-7.5s7.5 3.357 7.5 7.5v63.889c0 4.143-3.358 7.5-7.5 7.5z"/><path d="m366.027 161.532c-4.142 0-7.5-3.357-7.5-7.5v-61.729c0-4.143 3.358-7.5 7.5-7.5s7.5 3.357 7.5 7.5v61.729c0 4.143-3.358 7.5-7.5 7.5z"/></g><path d="m388.927 458.049c-1.919 0-3.839-.732-5.303-2.196l-36.603-36.604c-2.929-2.93-2.929-7.678 0-10.607 2.929-2.928 7.678-2.928 10.607 0l36.604 36.603c2.929 2.93 2.929 7.678 0 10.607-1.466 1.464-3.386 2.197-5.305 2.197z" fill="#b0ade2"/><path d="m136.619 150.726c-1.92 0-3.839-.732-5.303-2.196l-40.184-40.185c-2.929-2.93-2.929-7.678 0-10.607 2.929-2.928 7.678-2.928 10.606 0l40.184 40.185c2.929 2.93 2.929 7.678 0 10.607-1.464 1.463-3.384 2.196-5.303 2.196z" fill="#e7889d"/><path d="m164.044 101.761c-4.142 0-7.5-3.357-7.5-7.5v-40.076c0-4.143 3.358-7.5 7.5-7.5s7.5 3.357 7.5 7.5v40.076c0 4.142-3.357 7.5-7.5 7.5z" fill="#88d37f"/><path d="m87.655 178.15h-40.077c-4.142 0-7.5-3.357-7.5-7.5s3.358-7.5 7.5-7.5h40.077c4.142 0 7.5 3.357 7.5 7.5s-3.358 7.5-7.5 7.5z" fill="#f2d98d"/><path d="m417.784 379.665h-40.628c-4.142 0-7.5-3.357-7.5-7.5s3.358-7.5 7.5-7.5h40.628c4.142 0 7.5 3.357 7.5 7.5s-3.358 7.5-7.5 7.5z" fill="#7acefa"/><path d="m314.308 280.367c0-15.641-12.68-28.321-28.322-28.321-15.642 0-28.322 12.68-28.322 28.322v-49.311c0-15.641-12.68-28.321-28.322-28.321-15.642 0-28.322 12.68-28.322 28.321v-20.614c0-15.641-12.68-28.322-28.322-28.322-15.642 0-28.322 12.68-28.322 28.322v33.415c0-15.642-12.68-28.322-28.322-28.322-15.642 0-28.322 12.68-28.322 28.322v127.058c0 7.767-9.391 11.657-14.883 6.165l-18.437-18.441c-12.447-12.447-32.629-12.447-45.076 0-12.447 12.447-12.447 32.629 0 45.076l43.124 43.124c22.587 22.586 53.22 35.276 85.163 35.276h80.266c53.251 0 96.421-43.169 96.421-96.421z" fill="#ffd3bd"/><path d="m137.622 482.116h41.69c-59.65-20.151-85.352-75.084-91.622-110.6-.477 7.356-9.491 10.911-14.837 5.565l-18.441-18.441c-12.447-12.448-32.629-12.448-45.076 0-12.447 12.447-12.447 32.629 0 45.076l43.124 43.124c22.586 22.587 53.22 35.276 85.162 35.276z" fill="#ffbe9d"/><g fill="#ffbe9d"><path d="m257.665 327.182c-4.142 0-7.5-3.357-7.5-7.5v-39.314c0-4.143 3.358-7.5 7.5-7.5s7.5 3.357 7.5 7.5v39.314c0 4.142-3.358 7.5-7.5 7.5z"/><path d="m201.022 301.748c-4.142 0-7.5-3.357-7.5-7.5v-63.191c0-4.143 3.358-7.5 7.5-7.5s7.5 3.357 7.5 7.5v63.191c0 4.143-3.358 7.5-7.5 7.5z"/><path d="m144.378 312.414c-4.142 0-7.5-3.358-7.5-7.5v-61.056c0-4.143 3.358-7.5 7.5-7.5s7.5 3.357 7.5 7.5v61.056c0 4.143-3.357 7.5-7.5 7.5z"/></g><g fill="#4e5660"><path d="m126.235 382.978c-4.142 0-7.5-3.357-7.5-7.5v-12.362c0-4.143 3.358-7.5 7.5-7.5s7.5 3.357 7.5 7.5v12.362c0 4.142-3.358 7.5-7.5 7.5z"/><path d="m193.81 391.019c-8.995 0-17.549-3.896-23.47-10.688-2.721-3.123-2.396-7.86.727-10.582s7.859-2.395 10.582.727c3.07 3.523 7.503 5.544 12.161 5.544 4.659 0 9.092-2.021 12.162-5.544 2.721-3.122 7.459-3.448 10.581-.727 3.123 2.722 3.448 7.459.727 10.582-5.919 6.792-14.474 10.688-23.47 10.688z"/><path d="m278.098 382.633c-4.142 0-7.5-3.357-7.5-7.5 0-3.764-3.062-6.826-6.826-6.826s-6.826 3.063-6.826 6.826c0 4.143-3.358 7.5-7.5 7.5s-7.5-3.357-7.5-7.5c0-12.035 9.791-21.826 21.826-21.826s21.826 9.791 21.826 21.826c0 4.142-3.358 7.5-7.5 7.5z"/></g></g></svg>