<svg id="Capa_1" enable-background="new 0 0 512 512" height="512" viewBox="0 0 512 512" width="512" xmlns="http://www.w3.org/2000/svg"><g><path d="m62.363 373.171h324.947v103.483h-324.947z" fill="#fbf1cf"/><path d="m196.004 373.171h-133.641v103.483h154.697v-8.489c-20.902-12.938-33.008-68.286-21.056-84.98z" fill="#fae0bd"/><path d="m412.694 25.384c0-14.019-11.365-25.384-25.384-25.384h-278.795c-48.02 0-87.088 39.068-87.088 87.088v337.825l50.611-61.704h340.656z" fill="#f6ee86"/><path d="m234.158 363.209c-132.936-94.198-152.726-285.429-153.506-358.611-34.392 11.649-59.225 44.214-59.225 82.49v337.825l50.611-61.704z" fill="#f2d98d"/><path d="m108.515 0c-48.02 0-87.088 39.068-87.088 87.088v337.825l50.611-61.704h36.477z" fill="#b0ade2"/><path d="m80.652 4.598c-34.392 11.649-59.225 44.214-59.225 82.49v337.825l50.611-61.704h36.477v-185.085c-22.224-69.484-27.469-136.562-27.863-173.526z" fill="#a09cdc"/><path d="m387.31 0h-229.459v363.209h254.843v-337.825c0-14.019-11.365-25.384-25.384-25.384z" fill="#b0ade2"/><path d="m157.851 283.344v79.865h76.307c-31.299-22.178-56.324-49.736-76.307-79.865z" fill="#a09cdc"/><path d="m387.31 512h-278.795c-48.02 0-87.088-39.067-87.088-87.087s39.068-87.088 87.088-87.088h278.795c14.02 0 25.384 11.365 25.384 25.384 0 14.02-11.365 25.384-25.384 25.384h-278.795c-20.027 0-36.32 16.293-36.32 36.32 0 20.026 16.293 36.319 36.32 36.319h278.795c14.02 0 25.384 11.365 25.384 25.384s-11.365 25.384-25.384 25.384z" fill="#a2ddfd"/><g><path d="m246.746 234.307c-4.142 0-7.5-3.357-7.5-7.5v-93.29c0-14.297 5.567-27.737 15.677-37.847l14.492-14.493c2.93-2.928 7.678-2.928 10.607 0 2.929 2.93 2.929 7.678 0 10.607l-14.493 14.493c-7.276 7.275-11.284 16.949-11.284 27.239v93.29c.001 4.143-3.356 7.501-7.499 7.501z" fill="#f2d98d"/><path d="m390.088 234.31c-2.59 0-5.108-1.342-6.498-3.745-3.85-6.652-11.007-10.784-18.68-10.784s-14.83 4.132-18.68 10.783c-2.074 3.586-6.664 4.809-10.248 2.734-3.585-2.074-4.81-6.663-2.734-10.248 6.521-11.269 18.654-18.27 31.662-18.27 13.009 0 25.142 7.002 31.663 18.272 2.074 3.585.849 8.173-2.736 10.248-1.183.684-2.475 1.01-3.749 1.01z" fill="#f2d98d"/><circle cx="293.243" cy="226.807" fill="#a2ddfd" r="46.496"/><circle cx="436.577" cy="226.807" fill="#a2ddfd" r="46.496"/><path d="m293.243 280.803c-29.774 0-53.997-24.223-53.997-53.996s24.223-53.996 53.997-53.996c29.773 0 53.996 24.223 53.996 53.996s-24.223 53.996-53.996 53.996zm0-92.992c-21.503 0-38.997 17.493-38.997 38.996s17.494 38.996 38.997 38.996 38.996-17.493 38.996-38.996-17.493-38.996-38.996-38.996z" fill="#f6ee86"/><path d="m483.073 234.307c-4.142 0-7.5-3.357-7.5-7.5v-93.29c0-10.289-4.007-19.963-11.284-27.239l-14.493-14.493c-2.929-2.93-2.929-7.678 0-10.607 2.93-2.928 7.678-2.928 10.607 0l14.493 14.493c10.109 10.11 15.677 23.551 15.677 37.847v93.29c0 4.141-3.357 7.499-7.5 7.499z" fill="#f2d98d"/><path d="m436.577 280.803c-29.774 0-53.997-24.223-53.997-53.996s24.223-53.996 53.997-53.996c29.773 0 53.996 24.223 53.996 53.996s-24.223 53.996-53.996 53.996zm0-92.992c-21.503 0-38.997 17.493-38.997 38.996s17.494 38.996 38.997 38.996 38.996-17.493 38.996-38.996-17.493-38.996-38.996-38.996z" fill="#f6ee86"/></g></g></svg>