<svg id="Capa_1" enable-background="new 0 0 512 512" height="512" viewBox="0 0 512 512" width="512" xmlns="http://www.w3.org/2000/svg"><g><path d="m189.257 56.718c18.086-44.766 97.059-67.179 155.463-37.441 63.253 32.207 183.306 188.97 84.424 321.938z" fill="#59636f"/><path d="m207.343 66.033c0-36.469-30.955-66.033-55.414-66.033s-33.161 29.564-33.161 66.033v13.978c0 24.459 19.828 44.288 44.288 44.288 24.46 0 44.288-19.828 44.288-44.288v-13.978z" fill="#d99a84"/><path d="m340.478 95.493c82.055 82.055 91.103 205.488 91.103 340.039h-276.348v-220.456z" fill="#e0b799"/><path d="m155.233 424.046c21.587-7.78 40.406-23.692 51.278-46.471l7.558-15.837c6.249-13.093 18.631-22.303 33.016-24.189 39.444-5.173 75.569-29.5 94.132-67.957 25.742-53.329 8.449-116.095-37.061-150.651l-148.923 96.135z" fill="#d99a84"/><path d="m25.741 209.952 89.479-105.156c57.921-68.371 161.897-72.666 225.258-9.304 47.992 47.992 48.942 126.318.739 174.098-30.327 30.062-72.498 40.945-111.409 32.664-14.19-3.02-28.935 1.532-39.194 11.791l-12.408 12.408c-40.748 40.749-108.61 33.941-140.452-14.09l-16.564-24.984c-15.876-23.947-14.021-55.504 4.551-77.427z" fill="#e0b799"/><path d="m99.384 512h380.731c14.141 0 24.408-13.451 20.678-27.091l-4.647-16.995c-5.228-19.12-22.601-32.381-42.423-32.381h-327.947c-19.822 0-37.195 13.26-42.423 32.381l-4.647 16.995c-3.73 13.64 6.537 27.091 20.678 27.091z" fill="#f6ee86"/><path d="m284.347 435.533h-158.571c-19.822 0-37.195 13.26-42.423 32.381l-4.647 16.995c-3.73 13.64 6.537 27.091 20.678 27.091h205.642c-15.43-16.18-27.655-51.792-20.679-76.467z" fill="#f2d98d"/><path d="m374.892 66.033c0-36.469-30.955-66.033-55.415-66.033-24.459 0-33.161 29.564-33.161 66.033v13.978c0 24.459 19.828 44.288 44.288 44.288 24.459 0 44.288-19.828 44.288-44.288z" fill="#d99a84"/><g><g><ellipse cx="117.684" cy="189.32" fill="#fff" rx="30.274" ry="24.109"/><ellipse cx="281.781" cy="189.32" fill="#fff" rx="30.274" ry="24.109"/><path d="m137.227 282.015c0-15.085-10.928-16.502-24.409-16.502s-24.408 1.417-24.408 16.502 10.928 27.313 24.409 27.313 24.408-12.228 24.408-27.313z" fill="#4e5660"/></g><g fill="#4e5660"><path d="m122.745 168.037c-4.143 0-7.5-3.357-7.5-7.5v-12.362c0-4.143 3.357-7.5 7.5-7.5s7.5 3.357 7.5 7.5v12.362c0 4.143-3.357 7.5-7.5 7.5z"/><path d="m276.72 168.037c-4.143 0-7.5-3.357-7.5-7.5v-12.362c0-4.143 3.357-7.5 7.5-7.5s7.5 3.357 7.5 7.5v12.362c0 4.143-3.358 7.5-7.5 7.5z"/></g></g></g></svg>