<svg id="Capa_1" enable-background="new 0 0 512 512" height="512" viewBox="0 0 512 512" width="512" xmlns="http://www.w3.org/2000/svg"><g><circle cx="195.495" cy="193.512" fill="#f6ee86" r="193.512"/><g fill="#f2d98d"><path d="m333.998 193.512c0 4.268 3.459 7.726 7.726 7.726h47.116c.101-2.564.167-5.137.167-7.726s-.066-5.162-.167-7.727h-47.116c-4.267.001-7.726 3.46-7.726 7.727z"/><path d="m195.495 55.009c4.268 0 7.726-3.459 7.726-7.726v-47.116c-2.564-.101-5.137-.167-7.726-.167s-5.162.066-7.727.167v47.116c0 4.267 3.459 7.726 7.727 7.726z"/><path d="m56.992 193.512c0-4.268-3.459-7.726-7.726-7.726h-47.116c-.101 2.564-.167 5.137-.167 7.726s.066 5.162.167 7.727h47.116c4.267 0 7.726-3.459 7.726-7.727z"/><path d="m167.767 266.507c-29.07 0-52.72 23.65-52.72 52.72v19.013c-11.83 1.041-22.549 6.009-30.848 13.585 31.48 22.172 69.865 35.199 111.297 35.199 81.046 0 150.442-49.829 179.257-120.518h-206.986z"/></g><ellipse cx="195.495" cy="193.512" fill="#e0b799" rx="152.111" ry="152.111" transform="matrix(.707 -.707 .707 .707 -79.575 194.914)"/><path d="m167.767 266.507c-29.07 0-52.72 23.65-52.72 52.72v3.392c23.338 14.573 50.907 23.004 80.449 23.004 57.556 0 107.64-31.969 133.478-79.117h-161.207z" fill="#d99a84"/><g><g fill="#fff"><ellipse cx="114.753" cy="140.494" rx="29.792" ry="23.725"/><ellipse cx="276.237" cy="140.494" rx="29.792" ry="23.725"/></g><g fill="#59636f"><path d="m146.296 122.177c-4.143 0-7.5-3.358-7.5-7.5 0-3.684-2.997-6.681-6.681-6.681s-6.68 2.997-6.68 6.681c0 4.142-3.357 7.5-7.5 7.5s-7.5-3.358-7.5-7.5c0-11.955 9.726-21.681 21.68-21.681 11.955 0 21.681 9.726 21.681 21.681 0 4.142-3.357 7.5-7.5 7.5z"/><path d="m273.055 122.177c-4.143 0-7.5-3.358-7.5-7.5 0-3.684-2.997-6.681-6.681-6.681s-6.681 2.997-6.681 6.681c0 4.142-3.357 7.5-7.5 7.5s-7.5-3.358-7.5-7.5c0-11.955 9.725-21.681 21.681-21.681 11.955 0 21.681 9.726 21.681 21.681 0 4.142-3.358 7.5-7.5 7.5z"/><path d="m195.495 145.604c-7.933 0-15.476-3.436-20.696-9.425-2.722-3.123-2.396-7.86.727-10.582 3.122-2.721 7.859-2.396 10.582.726 2.37 2.72 5.792 4.28 9.388 4.28 3.595 0 7.017-1.561 9.389-4.281 2.721-3.123 7.458-3.447 10.582-.725 3.122 2.722 3.446 7.46.725 10.582-5.222 5.99-12.766 9.425-20.697 9.425z"/></g></g><path d="m210.047 235.309c-2.243-.793-4.538-1.624-6.826-2.49v-36.536c5.756 1.379 9.186 4.29 9.484 4.552 3.139 2.842 7.989 2.629 10.864-.49 2.893-3.137 2.696-8.025-.441-10.917-.439-.405-7.821-7.056-19.908-8.87v-7.463c0-4.268-3.459-7.726-7.726-7.726-4.268 0-7.726 3.459-7.726 7.726v8.055c-1.147.252-2.31.543-3.5.901-23.438 7.061-29.332 38.771-12.484 51.984 4.048 3.175 9.085 6.083 15.984 9.154v46.327c-5.967-.44-10.105-1.899-16.877-6.329-3.574-2.336-8.36-1.335-10.696 2.235-2.336 3.572-1.335 8.36 2.235 10.696 9.878 6.461 16.624 8.388 25.338 8.878v8.356c0 4.268 3.459 7.726 7.726 7.726 4.268 0 7.726-3.459 7.726-7.726v-8.97c33.976-6.667 43.423-56.137 6.827-69.073zm-22.278-9.314c-2.426-1.316-4.622-2.689-6.448-4.121-6.715-5.268-4.261-20.654 6.448-24.695zm15.452 62.335v-39.052c.557.2 1.102.398 1.676.6 19.981 7.062 15.136 32.438-1.676 38.452z" fill="#f2d98d"/><path d="m397.186 512h-320.436c-12.048 0-21.815-9.767-21.815-21.815v-27.899c0-12.048 9.767-21.815 21.815-21.815h320.436c12.048 0 21.815 9.767 21.815 21.815v27.899c0 12.048-9.767 21.815-21.815 21.815z" fill="#f6ee86"/><g fill="#f2d98d"><path d="m229.468 440.471h15v71.529h-15z"/><path d="m138.451 440.471h15v71.529h-15z"/><path d="m320.484 440.471h15v71.529h-15z"/></g><path d="m440.144 440.471h-320.436c-12.048 0-21.815-9.767-21.815-21.815v-27.899c0-12.048 9.767-21.815 21.815-21.815h320.436c12.048 0 21.815 9.767 21.815 21.815v27.899c0 12.048-9.767 21.815-21.815 21.815z" fill="#f2d98d"/><g fill="#f6ee86"><path d="m272.426 368.941h15v71.529h-15z"/><path d="m181.409 368.941h15v71.529h-15z"/><path d="m363.442 368.941h15v71.529h-15z"/></g><path d="m488.203 368.942h-320.437c-12.048 0-21.815-9.767-21.815-21.815v-27.899c0-12.048 9.767-21.815 21.815-21.815h320.436c12.048 0 21.815 9.767 21.815 21.815v27.899c0 12.048-9.767 21.815-21.814 21.815z" fill="#f6ee86"/><g fill="#f2d98d"><path d="m320.484 297.412h15v71.529h-15z"/><path d="m229.468 297.412h15v71.529h-15z"/><path d="m411.501 297.412h15v71.529h-15z"/></g></g></svg>