<svg id="Capa_1" enable-background="new 0 0 512 512" height="512" viewBox="0 0 512 512" width="512" xmlns="http://www.w3.org/2000/svg"><g><path d="m0 424.347c0 22.337 18.108 40.444 40.444 40.444h442.499c16.048 0 29.057-13.009 29.057-29.057v-278.58c0-16.048-13.009-29.057-29.057-29.057h-442.499z" fill="#a2ddfd"/><path d="m235.267 464.792c-53.786-70.7-69.416-187.278-63.301-336.695h-131.522l-40.444 296.25c0 22.337 18.108 40.445 40.444 40.445z" fill="#7acefa"/><path d="m0 87.653c0-22.337 18.108-40.445 40.444-40.445h33.969c16.048 0 29.057 13.009 29.057 29.057v278.582c0 16.047-13.009 29.057-29.057 29.057h-33.969c-22.336-.001-40.444 18.107-40.444 40.443z" fill="#cde9fa"/><g fill="#fff"><path d="m251.879 201.846h-91.515c-4.142 0-7.5-3.357-7.5-7.5s3.358-7.5 7.5-7.5h91.515c4.142 0 7.5 3.357 7.5 7.5 0 4.142-3.357 7.5-7.5 7.5z"/><path d="m251.879 260.297h-91.515c-4.142 0-7.5-3.357-7.5-7.5s3.358-7.5 7.5-7.5h91.515c4.142 0 7.5 3.357 7.5 7.5s-3.357 7.5-7.5 7.5z"/><path d="m221.153 390.986h-49.339c-10.449 0-18.95-8.501-18.95-18.949v-49.34c0-10.448 8.501-18.949 18.95-18.949h49.339c10.449 0 18.95 8.501 18.95 18.949v49.34c0 10.448-8.501 18.949-18.95 18.949zm-49.339-72.238c-2.178 0-3.95 1.772-3.95 3.949v49.34c0 2.178 1.772 3.949 3.95 3.949h49.339c2.178 0 3.95-1.771 3.95-3.949v-49.34c0-2.178-1.772-3.949-3.95-3.949z"/><path d="m391.995 186.846c-33.828 0-61.775 25.606-65.512 58.451h-15.926c-4.142 0-7.5 3.357-7.5 7.5s3.358 7.5 7.5 7.5h15.926c3.737 32.845 31.684 58.451 65.512 58.451 36.365 0 65.951-29.586 65.951-65.951s-29.586-65.951-65.951-65.951zm0 116.902c-25.546 0-46.756-18.9-50.394-43.451h50.394c4.142 0 7.5-3.357 7.5-7.5s-3.358-7.5-7.5-7.5h-50.394c3.638-24.551 24.848-43.451 50.394-43.451 28.094 0 50.951 22.856 50.951 50.951s-22.857 50.951-50.951 50.951z"/></g><g><g fill="#fff"><ellipse cx="287.765" cy="395.811" rx="31.765" ry="25.296"/><ellipse cx="459.939" cy="395.811" rx="31.765" ry="25.296"/></g><g fill="#4e5660"><path d="m306.277 378.649c-4.142 0-7.5-3.357-7.5-7.5v-12.362c0-4.143 3.358-7.5 7.5-7.5s7.5 3.357 7.5 7.5v12.362c0 4.143-3.358 7.5-7.5 7.5z"/><path d="m373.852 386.69c-8.996 0-17.55-3.896-23.47-10.69-2.721-3.123-2.395-7.86.728-10.581 3.124-2.721 7.86-2.396 10.582.728 3.07 3.523 7.502 5.544 12.161 5.544s9.091-2.021 12.161-5.544c2.721-3.124 7.459-3.447 10.582-.729 3.123 2.722 3.449 7.459.728 10.582-5.921 6.794-14.475 10.69-23.472 10.69z"/><path d="m458.139 378.305c-4.142 0-7.5-3.357-7.5-7.5 0-3.764-3.062-6.826-6.826-6.826s-6.826 3.063-6.826 6.826c0 4.143-3.358 7.5-7.5 7.5s-7.5-3.357-7.5-7.5c0-12.035 9.791-21.826 21.826-21.826s21.826 9.791 21.826 21.826c0 4.142-3.358 7.5-7.5 7.5z"/></g></g></g></svg>