<svg id="Capa_1" enable-background="new 0 0 512 512" height="512" viewBox="0 0 512 512" width="512" xmlns="http://www.w3.org/2000/svg"><g><path d="m257.047 175.814-61.389-61.389v-15.624c18.192-3.721 30.813-20.246 29.522-38.952-1.266-18.34-16.058-33.124-34.406-34.39-18.038-1.223-34.302 10.558-38.641 28.063-.997 4.021 1.455 8.087 5.476 9.083 4.02.998 8.087-1.455 9.084-5.476 2.583-10.423 12.288-17.444 23.049-16.705 10.919.753 19.72 9.548 20.473 20.458.787 11.405-7.082 21.448-18.304 23.361-6.521 1.111-11.253 6.711-11.253 13.314v16.868l-61.39 61.389c-2.929 2.93-2.929 7.678 0 10.608 2.929 2.928 7.678 2.928 10.606 0l58.283-58.283 58.283 58.283c2.93 2.929 7.678 2.928 10.607 0 2.93-2.93 2.93-7.678 0-10.608z" fill="#59636f"/><path d="m373.705 241.699-55.369-55.369c-19.016-19.016-44.806-29.698-71.698-29.698h-116.959c-26.892 0-52.682 10.683-71.698 29.698l-55.37 55.369c-3.482 3.482-3.482 9.127 0 12.609l39.755 39.755c3.482 3.482 9.127 3.482 12.609 0l32.703-32.703v131.068c0 10.988 8.907 19.895 19.895 19.895h161.168c10.988 0 19.895-8.907 19.895-19.895v-131.068l32.703 32.703c3.482 3.482 9.127 3.482 12.609 0l39.755-39.755c3.484-3.482 3.484-9.127.002-12.609z" fill="#88d37f"/><path d="m268.742 412.323c10.988 0 19.895-8.907 19.895-19.895v-131.068l32.703 32.703c3.482 3.482 9.127 3.482 12.609 0l39.755-39.755c3.482-3.482 3.482-9.127 0-12.609l-41.668-41.668h-66.674c-35.339 0-68.562 13.762-93.552 38.751l-55.369 55.369c-15.526 15.526-15.526 40.789 0 56.315l39.756 39.757c7.521 7.52 17.521 11.663 28.158 11.663 2.754 0 5.465-.278 8.102-.82v11.257z" fill="#5ec682"/><path d="m188.158 214.69c32.065 0 58.059-25.994 58.059-58.059h-116.118c0 32.066 25.994 58.059 58.059 58.059z" fill="#5ec682"/><path d="m392.731 250.119-61.39-61.389v-15.551c18.192-3.72 30.813-20.245 29.522-38.952-1.266-18.34-16.057-33.123-34.406-34.389-18.045-1.223-34.303 10.558-38.641 28.063-.996 4.021 1.456 8.087 5.476 9.084 4.02.99 8.087-1.456 9.083-5.477 2.582-10.423 12.279-17.456 23.049-16.705 10.919.753 19.72 9.547 20.473 20.457.787 11.405-7.082 21.449-18.304 23.361-6.521 1.111-11.254 6.711-11.254 13.313v16.796l-61.389 61.389c-2.929 2.93-2.929 7.678 0 10.607 2.93 2.929 7.678 2.928 10.606 0l58.283-58.283 58.283 58.283c2.929 2.928 7.678 2.928 10.606 0 2.933-2.929 2.933-7.678.003-10.607z" fill="#59636f"/><path d="m509.389 316.004-55.369-55.369c-19.016-19.015-44.806-29.698-71.698-29.698h-116.959c-26.892 0-52.682 10.683-71.698 29.698l-55.369 55.369c-3.482 3.482-3.482 9.127 0 12.609l39.755 39.755c3.482 3.482 9.127 3.482 12.609 0l32.703-32.703v131.068c0 10.988 8.907 19.895 19.895 19.895h161.168c10.988 0 19.895-8.907 19.895-19.895v-131.068l32.703 32.703c3.482 3.482 9.127 3.482 12.609 0l39.755-39.755c3.482-3.482 3.482-9.127.001-12.609z" fill="#f6ee86"/><path d="m345.439 433.817-9.702-9.702c-6.57-6.57-17.222-6.57-23.791 0l-9.702 9.702c-6.57 6.57-17.222 6.57-23.791 0l-9.702-9.702c-6.57-6.57-17.221-6.57-23.791 0l-21.597 21.597v21.02c0 10.988 8.907 19.895 19.895 19.895h161.168c10.988 0 19.895-8.907 19.895-19.895v-21.019l-21.597-21.597c-6.57-6.57-17.222-6.57-23.791 0l-9.702 9.702c-6.57 6.569-17.222 6.569-23.792-.001z" fill="#e7889d"/><path d="m323.842 288.995c32.065 0 58.059-25.994 58.059-58.059h-116.118c0 32.066 25.994 58.059 58.059 58.059z" fill="#f2d98d"/><g fill="#4e5660"><path d="m259.508 363.401c-4.142 0-7.5-3.357-7.5-7.5v-12.362c0-4.143 3.358-7.5 7.5-7.5s7.5 3.357 7.5 7.5v12.362c0 4.143-3.358 7.5-7.5 7.5z"/><path d="m388.175 363.401c-4.142 0-7.5-3.357-7.5-7.5v-12.362c0-4.143 3.358-7.5 7.5-7.5s7.5 3.357 7.5 7.5v12.362c0 4.143-3.358 7.5-7.5 7.5z"/><path d="m323.842 370.759c-8.669 0-16.912-3.754-22.615-10.299-2.721-3.123-2.396-7.86.727-10.582s7.86-2.395 10.582.727c2.854 3.275 6.975 5.154 11.307 5.154 4.331 0 8.453-1.879 11.307-5.154 2.721-3.122 7.46-3.448 10.582-.727 3.123 2.722 3.448 7.459.727 10.582-5.705 6.545-13.948 10.299-22.617 10.299z"/></g></g></svg>