<svg id="Capa_1" enable-background="new 0 0 512 512" height="512" viewBox="0 0 512 512" width="512" xmlns="http://www.w3.org/2000/svg"><g><path d="m512 300.849v-252.425c0-15.715-12.739-28.454-28.454-28.454h-186.169c-15.715 0-28.454 12.739-28.454 28.454v252.425c0 15.715 12.739 28.454 28.454 28.454h186.169c15.715 0 28.454-12.74 28.454-28.454z" fill="#cde9fa"/><path d="m341.353 135.669h-72.43v165.18c0 15.715 12.739 28.454 28.454 28.454h104.819v-132.79c0-33.55-27.294-60.844-60.843-60.844z" fill="#a2ddfd"/><g fill="#59636f"><path d="m444.421 140.781h-107.919c-4.143 0-7.5-3.357-7.5-7.5s3.357-7.5 7.5-7.5h107.919c4.143 0 7.5 3.357 7.5 7.5s-3.357 7.5-7.5 7.5z"/><path d="m444.421 182.136h-107.919c-4.143 0-7.5-3.357-7.5-7.5s3.357-7.5 7.5-7.5h107.919c4.143 0 7.5 3.357 7.5 7.5 0 4.142-3.357 7.5-7.5 7.5z"/></g><path d="m371.29 462.093v-265.581c0-16.534-13.403-29.937-29.937-29.937h-195.872c-16.534 0-29.937 13.403-29.937 29.937v265.581c0 16.534 13.403 29.937 29.937 29.937h195.872c16.534 0 29.937-13.403 29.937-29.937z" fill="#fbf1cf"/><path d="m145.481 166.575c-16.534 0-29.937 13.403-29.937 29.937v58.749c10.17 2.887 20.897 4.433 31.979 4.433 56.383 0 103.593-40.004 114.752-93.118z" fill="#fae0bd"/><g fill="#59636f"><path d="m297.923 242.449h-50.619c-4.142 0-7.5-3.357-7.5-7.5s3.358-7.5 7.5-7.5h50.619c4.142 0 7.5 3.357 7.5 7.5s-3.358 7.5-7.5 7.5z"/><path d="m297.377 295.448h-107.92c-4.142 0-7.5-3.357-7.5-7.5 0-4.142 3.358-7.5 7.5-7.5h107.92c4.142 0 7.5 3.358 7.5 7.5 0 4.143-3.357 7.5-7.5 7.5z"/><path d="m297.377 336.803h-107.919c-4.142 0-7.5-3.357-7.5-7.5s3.358-7.5 7.5-7.5h107.919c4.142 0 7.5 3.357 7.5 7.5 0 4.142-3.357 7.5-7.5 7.5z"/></g><path d="m9.259 280.704c-12.345-12.344-12.345-32.359 0-44.704l81.292-81.292c12.344-12.346 32.359-12.346 44.704 0 12.345 12.345 12.345 32.359 0 44.704l-81.292 81.292c-12.343 12.344-32.359 12.346-44.704 0z" fill="#e0b799"/><path d="m90.551 154.708-45.2 45.2c10.539 18.663 26.041 34.165 44.704 44.704l45.199-45.2c12.345-12.345 12.345-32.359 0-44.704-12.344-12.345-32.359-12.345-44.703 0z" fill="#d99a84"/><ellipse cx="147.523" cy="142.44" fill="#59636f" rx="86.348" ry="86.348" transform="matrix(.707 -.707 .707 .707 -57.512 146.034)"/><ellipse cx="147.523" cy="142.44" fill="#cde9fa" rx="50.937" ry="50.937" transform="matrix(.225 -.974 .974 .225 -24.439 254.16)"/><path d="m160.591 191.678-62.305-62.305c3.463-13.081 11.998-24.091 23.375-30.811l69.742 69.742c-6.721 11.376-17.732 19.911-30.812 23.374z" fill="#a2ddfd"/><g><g><ellipse cx="157.04" cy="427.56" fill="#eda1ab" rx="31.872" ry="25.381"/><ellipse cx="329.795" cy="427.56" fill="#eda1ab" rx="31.872" ry="25.381"/><ellipse cx="243.417" cy="408.059" fill="#4e5660" rx="16.918" ry="18.931"/></g><g fill="#4e5660"><path d="m162.368 404.432c-4.142 0-7.5-3.357-7.5-7.5v-12.362c0-4.143 3.358-7.5 7.5-7.5s7.5 3.357 7.5 7.5v12.361c0 4.143-3.358 7.501-7.5 7.501z"/><path d="m324.467 404.432c-4.143 0-7.5-3.357-7.5-7.5v-12.362c0-4.143 3.357-7.5 7.5-7.5s7.5 3.357 7.5 7.5v12.361c0 4.143-3.358 7.501-7.5 7.501z"/></g></g></g></svg>