<svg id="Capa_1" enable-background="new 0 0 512 512" height="512" viewBox="0 0 512 512" width="512" xmlns="http://www.w3.org/2000/svg"><g><g><path d="m254 337.483-41.293-41.293c-8.649-8.649-8.649-22.673 0-31.322l189.114-189.115c8.649-8.649 22.673-8.649 31.322 0l41.293 41.293c8.649 8.649 8.649 22.673 0 31.322l-189.114 189.115c-8.65 8.649-22.673 8.649-31.322 0z" fill="#a7a7a7"/><g fill="#59636f"><path d="m451.287 171.517-25.471-25.471c-2.929-2.93-2.929-7.678 0-10.607 2.93-2.928 7.678-2.928 10.607 0l25.471 25.471z"/><path d="m417.699 205.104-20.27-20.27c-2.929-2.93-2.929-7.678 0-10.607 2.93-2.928 7.678-2.928 10.607 0l20.27 20.27z"/><path d="m384.111 238.692-25.471-25.471c-2.929-2.93-2.929-7.678 0-10.607 2.93-2.928 7.678-2.928 10.607 0l25.471 25.471z"/></g><g><path d="m207.355 100.701c.447-36.208 16.588-67.805 35.798-92.862 9.26-12.079 27.921-9.8 34.125 4.098 13.63 30.535 39.038 55.522 39.038 90.303 0 30.276-24.694 54.784-55.04 54.482-30.021-.298-54.291-26.001-53.921-56.021z" fill="#b0ade2"/><path d="m316.316 102.24c0-15.609-5.123-29.244-11.997-42.295-48.491 19.955-60.093-7.63-88.051-4.932-5.36 14.19-8.713 29.475-8.913 45.687-.37 30.02 23.9 55.723 53.921 56.022 30.346.303 55.04-24.206 55.04-54.482z" fill="#e0b799"/><path d="m309.092 154.431c12.22 66.373 9.271 128.922-11.416 174.006-14.018 30.55-57.675 30.55-71.692 0-20.686-45.084-23.636-107.633-11.416-174.006 2.162-11.742 12.442-20.247 24.382-20.247h45.76c11.94 0 22.221 8.505 24.382 20.247z" fill="#e7889d"/><path d="m314.472 192.582c-1.207-12.478-3-25.199-5.365-38.063-2.164-11.776-12.428-20.335-24.401-20.335h-45.751c-11.973 0-22.237 8.559-24.401 20.335-2.364 12.865-4.157 25.585-5.365 38.063z" fill="#59636f"/></g><g><path d="m40.776 127.09 184.366 184.366c7.939 7.939 17.75 13.751 28.527 16.899l27.391 8.001c17.978 5.252 34.662-11.432 29.41-29.41l-8.001-27.391c-3.148-10.777-8.96-20.588-16.899-28.527l-184.366-184.367c-12.931-12.932-33.898-12.932-46.83 0l-13.598 13.599c-12.932 12.932-12.932 33.898 0 46.83z" fill="#f6ee86"/><path d="m240.726 323.016 56.404-56.404c2.211 4.105 4.021 8.432 5.339 12.942l8.001 27.391c5.252 17.978-11.432 34.662-29.41 29.411l-27.391-8.001c-4.511-1.318-8.838-3.128-12.943-5.339z" fill="#59636f"/><path d="m71.09 157.404-30.314-30.314c-12.932-12.932-12.932-33.898 0-46.83l13.599-13.599c12.932-12.932 33.898-12.932 46.83 0l30.314 30.314z" fill="#e7889d"/><path d="m93.684 102.858h52.037v85.459h-52.037z" fill="#59636f" transform="matrix(.707 .707 -.707 .707 138.006 -42.001)"/><path d="m208.978 242.363c-1.92 0-3.839-.732-5.304-2.197l-30.168-30.169c-2.929-2.929-2.929-7.677.001-10.607 2.929-2.928 7.678-2.929 10.606.001l30.168 30.169c2.929 2.929 2.929 7.677-.001 10.606-1.464 1.465-3.384 2.197-5.302 2.197z" fill="#d99a84"/></g></g><path d="m421.582 293.882h-303.731l19.482 172.007c2.975 26.265 25.196 46.111 51.629 46.111h161.508c26.434 0 48.654-19.846 51.629-46.111z" fill="#88d37f"/><path d="m121.352 324.787h296.729l3.501-30.905h-303.731z" fill="#5ec682"/><g><g fill="#fff"><ellipse cx="183.629" cy="400.109" rx="31.765" ry="25.296"/><ellipse cx="355.804" cy="400.109" rx="31.765" ry="25.296"/></g><g fill="#4e5660"><path d="m202.142 382.947c-4.143 0-7.5-3.358-7.5-7.5v-12.362c0-4.143 3.357-7.5 7.5-7.5s7.5 3.357 7.5 7.5v12.362c0 4.143-3.358 7.5-7.5 7.5z"/><path d="m269.717 390.988c-8.996 0-17.552-3.896-23.471-10.69-2.722-3.123-2.396-7.86.727-10.581 3.122-2.721 7.86-2.397 10.581.727 3.07 3.523 7.503 5.544 12.162 5.544 4.658 0 9.091-2.021 12.161-5.544 2.721-3.124 7.458-3.448 10.581-.727s3.449 7.458.727 10.581c-5.917 6.794-14.472 10.69-23.468 10.69z"/><path d="m354.004 382.602c-4.143 0-7.5-3.357-7.5-7.5 0-3.764-3.063-6.826-6.826-6.826-3.764 0-6.826 3.063-6.826 6.826 0 4.143-3.357 7.5-7.5 7.5s-7.5-3.357-7.5-7.5c0-12.035 9.791-21.826 21.826-21.826s21.826 9.791 21.826 21.826c0 4.143-3.357 7.5-7.5 7.5z"/></g></g><path d="m188.962 512h161.508c26.434 0 48.654-19.846 51.629-46.111h-264.765c2.974 26.265 25.195 46.111 51.628 46.111z" fill="#59636f"/><path d="m435.463 293.882h-331.494c-9.882 0-17.393-8.883-15.75-18.628l2.818-16.717c2.61-15.484 16.018-26.82 31.72-26.82h293.918c15.702 0 29.109 11.336 31.72 26.82l2.818 16.717c1.643 9.745-5.868 18.628-15.75 18.628z" fill="#cde9fa"/><path d="m244.871 231.717h-122.114c-15.702 0-29.109 11.336-31.72 26.82l-2.818 16.717c-1.643 9.745 5.868 18.628 15.75 18.628h152.527c-12.525-14.415-17.042-40.682-11.625-62.165z" fill="#a2ddfd"/></g></svg>