<svg id="Capa_1" enable-background="new 0 0 512 512" height="512" viewBox="0 0 512 512" width="512" xmlns="http://www.w3.org/2000/svg"><g><path d="m479.195 209.133c.862 8.334 11.86 22.164 25.534 32.159 8.533 6.237 9.74 18.48 2.639 26.309-11.893 13.114-30.354 27.959-49.654 27.959h-50.382l1.562-86.427z" fill="#59636f"/><path d="m192.501 324.591c15.643 0 26.482-15.619 21.008-30.272-13.736-36.767-51.8-63.201-96.606-63.201s-82.87 26.434-96.606 63.201c-5.475 14.653 5.365 30.272 21.008 30.272z" fill="#88d37f"/><path d="m37.152 266.245c23.022 13.823 50.4 21.851 79.75 21.851s56.729-8.027 79.75-21.851c-18.706-21.411-47.478-35.127-79.75-35.127s-61.044 13.716-79.75 35.127z" fill="#5ec682"/><ellipse cx="116.903" cy="150.142" fill="#ffd3bd" rx="116.903" ry="107.048"/><path d="m12.293 102.321c22.681 7.203 53.028-3.566 69.137-11.465 6.042-2.963 13.156-2.495 18.813 1.15 29.368 18.921 76.445 22.944 117.315 3.677-20.355-31.478-57.81-52.589-100.656-52.589-45.792 0-85.428 24.113-104.609 59.227z" fill="#e7889d"/><g fill="#4e5660"><path d="m52.569 171.107c-4.143 0-7.5-3.357-7.5-7.5v-12.362c0-4.143 3.357-7.5 7.5-7.5s7.5 3.357 7.5 7.5v12.362c0 4.143-3.357 7.5-7.5 7.5z"/><path d="m181.236 171.107c-4.143 0-7.5-3.357-7.5-7.5v-12.362c0-4.143 3.357-7.5 7.5-7.5s7.5 3.357 7.5 7.5v12.362c0 4.143-3.357 7.5-7.5 7.5z"/><path d="m116.902 178.466c-8.669 0-16.911-3.754-22.615-10.299-2.722-3.123-2.396-7.86.727-10.582 3.122-2.721 7.859-2.396 10.582.726 2.854 3.275 6.976 5.154 11.307 5.154s8.452-1.879 11.307-5.154c2.722-3.123 7.458-3.448 10.582-.726 3.122 2.722 3.448 7.459.727 10.582-5.705 6.545-13.948 10.299-22.617 10.299z"/></g><path d="m319.499 324.591c-15.643 0-26.482-15.619-21.008-30.272 13.736-36.767 51.8-63.201 96.606-63.201s82.869 26.434 96.606 63.201c5.475 14.653-5.365 30.272-21.008 30.272z" fill="#a2ddfd"/><path d="m395.098 288.096c29.35 0 56.728-8.027 79.75-21.851-18.706-21.411-47.478-35.127-79.75-35.127-32.273 0-61.045 13.716-79.75 35.127 23.021 13.823 50.399 21.851 79.75 21.851z" fill="#7acefa"/><ellipse cx="395.097" cy="150.142" fill="#f2d1a5" rx="116.903" ry="107.048"/><g fill="#4e5660"><path d="m330.764 171.107c-4.143 0-7.5-3.357-7.5-7.5v-12.362c0-4.143 3.357-7.5 7.5-7.5s7.5 3.357 7.5 7.5v12.362c0 4.143-3.358 7.5-7.5 7.5z"/><path d="m459.431 171.107c-4.143 0-7.5-3.357-7.5-7.5v-12.362c0-4.143 3.357-7.5 7.5-7.5s7.5 3.357 7.5 7.5v12.362c0 4.143-3.358 7.5-7.5 7.5z"/><path d="m395.098 178.466c-8.67 0-16.913-3.754-22.616-10.3-2.721-3.123-2.395-7.86.729-10.582 3.122-2.72 7.859-2.395 10.582.729 2.853 3.275 6.974 5.153 11.306 5.153 4.331 0 8.452-1.879 11.307-5.154 2.722-3.123 7.458-3.448 10.582-.726 3.122 2.722 3.448 7.459.727 10.582-5.706 6.544-13.948 10.298-22.617 10.298z"/></g><path d="m213.019 349.323c0-24.03-20.293-43.321-44.677-41.67-20.892 1.414-37.709 18.525-38.803 39.436-.389 7.436 1.177 14.469 4.219 20.645 1.246 2.53.706 5.542-1.155 7.661-7.026 8-11.046 18.704-10.284 30.353 1.351 20.653 18.029 37.415 38.676 38.857 24.425 1.706 44.77-17.603 44.77-41.664 0-8.305-2.434-16.038-6.613-22.542 8.511-7.646 13.867-18.734 13.867-31.076z" fill="#59636f"/><path d="m298.981 349.323c0-24.03 20.293-43.321 44.677-41.67 20.892 1.414 37.709 18.525 38.803 39.436.389 7.436-1.177 14.469-4.219 20.645-1.246 2.53-.706 5.542 1.155 7.661 7.026 8 11.046 18.704 10.284 30.353-1.351 20.653-18.029 37.415-38.676 38.857-24.425 1.706-44.77-17.603-44.77-41.664 0-8.305 2.434-16.038 6.613-22.542-8.511-7.646-13.867-18.734-13.867-31.076z" fill="#59636f"/><path d="m180.402 468.906c-15.643 0-26.482-15.618-21.008-30.272 13.736-36.767 51.8-63.201 96.606-63.201s82.87 26.435 96.606 63.201c5.475 14.653-5.365 30.272-21.008 30.272z" fill="#b0ade2"/><path d="m256 432.41c29.35 0 56.728-8.027 79.75-21.85-18.706-21.411-47.477-35.127-79.75-35.127s-61.044 13.716-79.75 35.127c23.022 13.823 50.4 21.85 79.75 21.85z" fill="#a09cdc"/><ellipse cx="256" cy="294.457" fill="#cb9d82" rx="116.903" ry="107.048"/><path d="m370.188 271.457c-11.494-48.066-58.248-84.048-114.188-84.048s-102.694 35.982-114.188 84.048c17.054 5.958 42.452-5.913 51.117-20.085 1.663-2.72 4.803-4.225 7.913-3.526 18.881 4.243 36.746-1.626 51.63-11.997 2.128-1.483 4.93-1.483 7.058 0 14.883 10.371 32.749 16.239 51.63 11.997 3.111-.699 6.25.806 7.913 3.526 8.663 14.172 34.061 26.043 51.115 20.085z" fill="#59636f"/><g fill="#4e5660"><path d="m191.667 315.423c-4.143 0-7.5-3.358-7.5-7.5v-12.363c0-4.142 3.357-7.5 7.5-7.5s7.5 3.358 7.5 7.5v12.362c0 4.143-3.357 7.501-7.5 7.501z"/><path d="m320.333 315.423c-4.143 0-7.5-3.358-7.5-7.5v-12.363c0-4.142 3.357-7.5 7.5-7.5s7.5 3.358 7.5 7.5v12.362c0 4.143-3.357 7.501-7.5 7.501z"/><path d="m256 322.781c-8.669 0-16.911-3.754-22.615-10.299-2.722-3.123-2.395-7.86.727-10.582 3.122-2.721 7.859-2.395 10.582.727 2.854 3.275 6.975 5.154 11.307 5.154 4.331 0 8.452-1.879 11.307-5.154 2.722-3.122 7.458-3.448 10.582-.727 3.122 2.722 3.448 7.459.727 10.582-5.706 6.545-13.948 10.299-22.617 10.299z"/></g><path d="m395.098 43.094c-51.31 0-94.895 30.271-110.629 72.373 20.927-3.607 41.83-10.803 53.97-18.979 2.533-1.706 5.938.08 5.938 3.135v4.401c0 7.628 6.183 13.811 13.811 13.811h73.819c7.628 0 13.811-6.183 13.811-13.811v-4.401c0-3.054 3.404-4.841 5.938-3.135 12.14 8.175 33.044 15.372 53.97 18.979-15.734-42.102-59.319-72.373-110.628-72.373z" fill="#59636f"/></g></svg>