<svg id="Capa_1" enable-background="new 0 0 512 512" height="512" viewBox="0 0 512 512" width="512" xmlns="http://www.w3.org/2000/svg"><g><path d="m452.34 284.762-38.012-15.997v140.87l38.012-15.997c10.421-4.386 17.198-14.59 17.198-25.896v-57.082c0-11.308-6.777-21.513-17.198-25.898z" fill="#e7889d"/><path d="m445.233 281.771-30.905-13.007v140.87l30.905-13.007z" fill="#e16e7e"/><path d="m353.326 512h-267.16c-17.016 0-30.811-13.794-30.811-30.811v-410.396c0-17.016 13.794-30.811 30.811-30.811h267.16c33.69 0 61.001 27.311 61.001 61.002v350.015c.001 33.69-27.311 61.001-61.001 61.001z" fill="#88d37f"/><path d="m86.166 39.982c-17.016 0-30.811 13.795-30.811 30.811v410.396c.001 17.017 13.795 30.811 30.811 30.811h176.942c-144.321-81.482-128.888-328.027-128.582-472.018z" fill="#5ec682"/><path d="m353.326 39.982h-100.736v149.067c0 34.544 28.104 62.649 62.649 62.649h99.089v-150.714c0-33.69-27.312-61.002-61.002-61.002z" fill="#5ec682"/><g fill="#fff"><path d="m302.133 338.69h-134.583c-4.142 0-7.5-3.358-7.5-7.5 0-4.143 3.358-7.5 7.5-7.5h134.583c4.142 0 7.5 3.357 7.5 7.5 0 4.142-3.358 7.5-7.5 7.5z"/><path d="m271.105 398.755h-72.528c-4.142 0-7.5-3.357-7.5-7.5s3.358-7.5 7.5-7.5h72.528c4.142 0 7.5 3.357 7.5 7.5 0 4.142-3.357 7.5-7.5 7.5z"/></g><ellipse cx="234.842" cy="196.845" fill="#cde9fa" rx="59.944" ry="59.944" transform="matrix(.707 -.707 .707 .707 -70.407 223.713)"/><ellipse cx="234.842" cy="196.845" fill="#cde9fa" rx="59.944" ry="59.944" transform="matrix(.707 -.707 .707 .707 -70.407 223.713)"/><path d="m252.59 139.574v49.476c0 20.366 9.774 38.487 24.872 49.937 10.708-10.828 17.324-25.711 17.324-42.142-.001-26.927-17.755-49.705-42.196-57.271z" fill="#a2ddfd"/><g fill="#59636f"><path d="m76.463 83.86h-42.214c-14.656 0-26.537 11.881-26.537 26.537 0 14.656 11.881 26.537 26.537 26.537h42.214c14.656 0 26.537-11.881 26.537-26.537-.001-14.656-11.882-26.537-26.537-26.537z"/><path d="m76.463 194.256h-42.214c-14.656 0-26.537 11.881-26.537 26.537 0 14.656 11.881 26.537 26.537 26.537h42.214c14.656 0 26.537-11.881 26.537-26.537-.001-14.656-11.882-26.537-26.537-26.537z"/><path d="m76.463 304.653h-42.214c-14.656 0-26.537 11.881-26.537 26.537 0 14.656 11.881 26.537 26.537 26.537h42.214c14.656 0 26.537-11.881 26.537-26.537-.001-14.656-11.882-26.537-26.537-26.537z"/><path d="m76.463 415.049h-42.214c-14.656 0-26.537 11.881-26.537 26.537 0 14.656 11.881 26.537 26.537 26.537h42.214c14.656 0 26.537-11.881 26.537-26.537-.001-14.656-11.882-26.537-26.537-26.537z"/></g><path d="m472.544 0h-157.305c-17.532 0-31.744 14.212-31.744 31.744v157.306c0 17.531 14.212 31.744 31.744 31.744h11.331c0-37.181 30.141-67.322 67.322-67.322s67.321 30.141 67.321 67.322h11.331c17.532 0 31.744-14.212 31.744-31.744v-157.306c0-17.532-14.212-31.744-31.744-31.744z" fill="#fbf1cf"/><path d="m346.53 172.959c-22.315-61.791-20.249-148.203-16.396-172.959h-14.895c-17.532 0-31.744 14.212-31.744 31.744v157.306c0 17.531 14.212 31.744 31.744 31.744h11.331c0-18.711 7.638-35.634 19.96-47.835z" fill="#fae0bd"/><path d="m461.213 220.793c0-37.181-30.141-67.322-67.321-67.322s-67.322 30.141-67.322 67.322z" fill="#7acefa"/><circle cx="393.892" cy="116.113" fill="#a2ddfd" r="48.654"/></g></svg>