<svg id="Capa_1" enable-background="new 0 0 512 512" height="512" viewBox="0 0 512 512" width="512" xmlns="http://www.w3.org/2000/svg"><g><path d="m122.458 470.307h-22.16c-11.752 0-21.278-9.527-21.278-21.278v-70.962h64.717v70.962c-.001 11.752-9.528 21.278-21.279 21.278z" fill="#a7a7a7"/><path d="m79.019 378.066h64.717v58.639h-64.717z" fill="#8b97a5"/><path d="m143.875 405.8h-64.995c-11.539 0-21.545-7.981-24.11-19.231l-8.263-36.235h129.74l-8.263 36.235c-2.564 11.25-12.57 19.231-24.109 19.231z" fill="#59636f"/><path d="m389.542 470.307h22.16c11.752 0 21.279-9.527 21.279-21.278v-70.962h-64.717v70.962c0 11.752 9.526 21.278 21.278 21.278z" fill="#a7a7a7"/><path d="m368.264 378.066h64.717v58.639h-64.717z" fill="#8b97a5"/><path d="m368.125 405.8h64.995c11.539 0 21.544-7.981 24.11-19.231l8.263-36.235h-129.74l8.263 36.235c2.564 11.25 12.57 19.231 24.109 19.231z" fill="#59636f"/><path d="m492.62 350.333h-473.24c-10.703 0-19.38-8.677-19.38-19.38v-27.105c0-10.703 8.677-19.38 19.38-19.38h473.24c10.703 0 19.38 8.677 19.38 19.38v27.105c0 10.703-8.677 19.38-19.38 19.38z" fill="#a2ddfd"/><path d="m19.38 284.468c-10.703 0-19.38 8.677-19.38 19.38v27.105c0 10.703 8.677 19.38 19.38 19.38h216.781c-18.765-14.089-25.985-49.849-20.55-65.865z" fill="#7acefa"/><path d="m291.864 41.693h-39.634c-16.512 0-29.898 13.386-29.898 29.898v182.979c0 16.512 13.386 29.898 29.898 29.898h39.634c16.512 0 29.898-13.386 29.898-29.898v-182.979c0-16.512-13.386-29.898-29.898-29.898z" fill="#b0ade2"/><path d="m222.331 223.599v30.971c0 16.512 13.386 29.898 29.898 29.898h39.634c16.512 0 29.898-13.386 29.898-29.898v-30.971z" fill="#88d37f"/><path d="m343.882 113.634-14.205 14.206c-10.553 10.553-10.553 27.662 0 38.214l110.5 110.5c10.553 10.553 27.662 10.553 38.214 0l14.206-14.206c10.553-10.553 10.553-27.662 0-38.214l-110.5-110.5c-10.553-10.553-27.663-10.553-38.215 0z" fill="#e7889d"/><path d="m153.702 86.766h-108.025c-11.33 0-18.914 11.784-14.082 22.032 7.524 15.959 11.898 29.399 11.898 41.084 0 28.31-23.246 32.245-23.246 79.703 0 14.536 4.068 28.14 11.147 39.782 5.692 9.361 15.834 15.101 26.79 15.101h83.012c10.956 0 21.098-5.74 26.79-15.101 7.079-11.642 11.147-25.246 11.147-39.782 0-47.458-23.246-51.393-23.246-79.703 0-11.685 4.374-25.125 11.898-41.084 4.831-10.248-2.753-22.032-14.083-22.032z" fill="#f6ee86"/><path d="m31.394 269.367c5.692 9.361 15.834 15.101 26.79 15.101h81.813c-83.39-41.703-73.948-145.383-62.586-197.702h-31.734c-11.33 0-18.914 11.784-14.082 22.032 7.524 15.959 11.898 29.399 11.898 41.084 0 28.309-23.246 32.245-23.246 79.703 0 14.537 4.067 28.141 11.147 39.782z" fill="#f2d98d"/><path d="m164.916 177.984c-19.162-.413-37.378 12.765-65.226 12.765s-46.065-13.177-65.226-12.765c-6.533 11.417-14.217 24.315-14.217 51.601 0 14.536 4.068 28.141 11.147 39.782 5.692 9.361 15.834 15.101 26.79 15.101h83.012c10.956 0 21.098-5.74 26.79-15.101 7.079-11.642 11.147-25.246 11.147-39.782 0-27.287-7.685-40.185-14.217-51.601z" fill="#e0b799"/><path d="m31.394 269.367c5.692 9.361 15.834 15.101 26.79 15.101h81.813c-42.718-21.363-61.08-58.982-67.293-97.641-14.188-3.848-26.024-9.106-38.24-8.843-6.533 11.417-14.217 24.315-14.217 51.601 0 14.537 4.067 28.141 11.147 39.782z" fill="#d99a84"/><path d="m350.582 164.106h74.133v15h-74.133z" fill="#59636f" transform="matrix(.707 -.707 .707 .707 -7.811 324.355)"/><ellipse cx="272.047" cy="129.892" fill="#fff" rx="18" ry="18" transform="matrix(.707 -.707 .707 .707 -12.167 230.41)"/></g></svg>