<svg id="Capa_1" enable-background="new 0 0 512 512" height="512" viewBox="0 0 512 512" width="512" xmlns="http://www.w3.org/2000/svg"><g><path d="m20.826 399.145c-14.572-3.484-23.561-18.122-20.076-32.695 3.484-14.572 18.125-23.563 32.695-20.076 32.259 7.714 69.459-.031 82.674-11.806 11.187-9.967 28.336-8.98 38.303 2.206 9.968 11.185 8.981 28.335-2.205 38.303-26.162 23.313-80.149 36.324-131.391 24.068z" fill="#88d37f"/><path d="m116.119 334.568c-13.214 11.776-50.415 19.52-82.674 11.806-2.559-.612-5.119-.832-7.622-.712 14.64 24.882 32.896 45.224 48.607 57.689 32.079-2.354 60.8-13.138 77.787-28.274 11.186-9.968 12.174-27.117 2.205-38.303-9.968-11.186-27.116-12.172-38.303-2.206z" fill="#5ec682"/><path d="m491.174 399.145c14.572-3.484 23.56-18.122 20.076-32.695-3.484-14.572-18.125-23.563-32.695-20.076-32.259 7.714-69.46-.031-82.674-11.806-11.187-9.967-28.336-8.98-38.303 2.206-9.968 11.185-8.981 28.335 2.205 38.303 26.162 23.313 80.149 36.324 131.391 24.068z" fill="#88d37f"/><path d="m395.881 334.568c13.214 11.776 50.415 19.52 82.674 11.806 2.559-.612 5.119-.832 7.622-.712-14.64 24.882-32.896 45.224-48.607 57.689-32.079-2.354-60.8-13.138-77.787-28.274-11.186-9.968-12.174-27.117-2.205-38.303 9.968-11.186 27.116-12.172 38.303-2.206z" fill="#5ec682"/><path d="m85.146 371.705c89.888 86.71 224.323-46.999 133.224-138.098-54.947-54.947-130.075-63.196-169.963-63.234-15.983-.015-28.969 12.971-28.954 28.954.061 63.53 19.531 127.848 65.693 172.378z" fill="#e7889d"/><path d="m110.699 177.054c-10.778 29.96-17.739 63.39-17.739 99.791 0 62.977 27.864 101.451 51.381 122.701 76.711 5.293 146.256-93.711 74.029-165.939-32.641-32.641-72.404-48.803-107.671-56.553z" fill="#e16e7e"/><path d="m426.854 371.705c-89.888 86.71-224.323-46.999-133.224-138.098 54.947-54.947 130.075-63.196 169.963-63.234 15.983-.015 28.969 12.971 28.954 28.954-.061 63.53-19.531 127.848-65.693 172.378z" fill="#e7889d"/><path d="m401.301 177.054c10.778 29.96 17.739 63.39 17.739 99.791 0 62.977-27.864 101.451-51.381 122.701-76.712 5.293-146.257-93.711-74.029-165.939 32.641-32.641 72.404-48.803 107.671-56.553z" fill="#e16e7e"/><path d="m377.832 276.846c0-98.672-60.047-173.536-95.83-209.388-14.351-14.379-37.654-14.379-52.005 0-35.783 35.852-95.83 110.716-95.83 209.388.001 164.344 243.665 163.891 243.665 0z" fill="#e7889d"/><path d="m246.721 453.681-89.331-32.514c-14.08-5.124-21.339-20.692-16.214-34.772 5.124-14.08 20.693-21.338 34.771-16.214l89.332 32.514c14.08 5.124 21.339 20.692 16.214 34.772-5.107 14.033-20.648 21.355-34.772 16.214z" fill="#5ec682"/><path d="m230.507 437.467c-5.125-14.079 2.135-29.648 16.214-34.772l89.331-32.514c14.08-5.125 29.647 2.136 34.772 16.214 5.125 14.079-2.134 29.648-16.214 34.772l-89.331 32.514c-14.131 5.144-29.667-2.187-34.772-16.214z" fill="#88d37f"/><g><g fill="#fff"><ellipse cx="180.532" cy="278.995" rx="27.846" ry="22.175"/><ellipse cx="331.467" cy="278.995" rx="27.846" ry="22.175"/></g><g fill="#4e5660"><path d="m196.761 264.089c-7.674 0-14.972-3.323-20.022-9.118-2.721-3.123-2.396-7.86.727-10.582 3.124-2.721 7.861-2.395 10.582.727 2.201 2.525 5.376 3.974 8.713 3.974s6.513-1.448 8.713-3.973c2.721-3.124 7.458-3.449 10.582-.728 3.122 2.721 3.448 7.459.727 10.581-5.05 5.796-12.348 9.119-20.022 9.119z"/><path d="m315.238 264.089c-7.675 0-14.972-3.323-20.022-9.119-2.722-3.122-2.395-7.86.728-10.581 3.122-2.721 7.86-2.395 10.581.728 2.2 2.524 5.376 3.973 8.713 3.973s6.513-1.448 8.715-3.974c2.72-3.122 7.458-3.449 10.581-.726 3.123 2.721 3.447 7.459.726 10.581-5.05 5.795-12.348 9.118-20.022 9.118z"/><ellipse cx="256" cy="269.655" rx="11.109" ry="11.847"/></g></g></g></svg>