<svg id="Capa_1" enable-background="new 0 0 512 512" height="512" viewBox="0 0 512 512" width="512" xmlns="http://www.w3.org/2000/svg"><g><path d="m330.628 161.626 47.286 47.286c6.109 6.109 16.013 6.109 22.122 0l67.613-67.613c6.109-6.109 6.109-16.013 0-22.122l-47.286-47.286c-6.109-6.109-16.013-6.109-22.122 0l-67.613 67.613c-6.109 6.109-6.109 16.014 0 22.122z" fill="#88d37f"/><circle cx="321.772" cy="125.479" fill="#e7889d" r="60.049"/><path d="m202.214 217.88h66.873c8.639 0 15.643-7.003 15.643-15.643v-95.619c0-8.639-7.004-15.643-15.643-15.643h-66.873c-8.639 0-15.643 7.003-15.643 15.643v95.619c0 8.639 7.003 15.643 15.643 15.643z" fill="#f6ee86"/><path d="m94.931 158.153h61.217l-36.404-100.02c-4.136-11.363-14.937-18.925-27.028-18.925h-63.954c-15.885 0-28.762 12.877-28.762 28.762s12.877 28.762 28.762 28.762h43.814z" fill="#59636f"/><path d="m94.931 158.153h61.217l-11.248-30.905h-61.217z" fill="#455060"/><path d="m483.238 368.653h-311.691l-76.616-210.5h375.222c19.467 0 34.611 16.922 32.459 36.269z" fill="#a2ddfd"/><path d="m150.122 309.79 21.424 58.863h311.691l6.594-59.295c-2.167-.24-4.365-.373-6.594-.373h-323.392c-3.311 0-6.557.284-9.723.805z" fill="#7acefa"/><ellipse cx="207.304" cy="433.338" fill="#59636f" rx="39.455" ry="39.455" transform="matrix(.707 -.707 .707 .707 -245.698 273.508)"/><ellipse cx="207.304" cy="433.338" fill="#f6ee86" rx="7.663" ry="7.663" transform="matrix(.973 -.23 .23 .973 -94.016 59.221)"/><ellipse cx="411.915" cy="433.338" fill="#59636f" rx="39.455" ry="39.455" transform="matrix(.707 -.707 .707 .707 -185.769 418.19)"/><ellipse cx="411.915" cy="433.338" fill="#f6ee86" rx="7.663" ry="7.663" transform="matrix(.973 -.23 .23 .973 -88.542 106.232)"/><path d="m483.238 397.415h-323.393c-15.885 0-28.762-12.877-28.762-28.762s12.877-28.762 28.762-28.762h323.393c15.885 0 28.762 12.877 28.762 28.762s-12.877 28.762-28.762 28.762z" fill="#b0ade2"/><g><g><path d="m262.592 258.675c.007 13.843-14.079 25.072-31.463 25.081-17.383.009-31.481-11.206-31.488-25.049s14.079-25.073 31.463-25.082c17.383-.009 31.481 11.206 31.488 25.05z" fill="#fff"/><path d="m370.248 258.621c.007 13.843 14.105 25.058 31.488 25.049s31.47-11.238 31.463-25.081c-.007-13.844-14.105-25.059-31.488-25.05s-31.47 11.238-31.463 25.082z" fill="#fff"/><path d="m347.267 247.3c-.009-19.068-13.824-20.852-30.864-20.844-17.04.009-30.852 1.807-30.843 20.875.01 19.067 13.831 34.518 30.871 34.509 17.04-.008 30.846-15.472 30.836-34.54z" fill="#4e5660"/></g><g fill="#4e5660"><path d="m384.101 237.438c-.005 0-.009 0-.015 0-4.142-.008-7.493-3.372-7.485-7.515l.023-12.362c.008-4.137 3.364-7.485 7.5-7.485h.015c4.142.008 7.493 3.372 7.485 7.515l-.023 12.362c-.008 4.136-3.365 7.485-7.5 7.485z"/><path d="m269.159 236.306c-.006 0-.011 0-.017 0-4.142-.009-7.492-3.374-7.483-7.517.004-1.866-.719-3.623-2.036-4.945-1.316-1.323-3.069-2.054-4.936-2.058-.005 0-.01 0-.015 0-3.846 0-6.979 3.125-6.987 6.973-.009 4.136-3.365 7.483-7.5 7.483-.006 0-.011 0-.017 0-4.142-.009-7.492-3.374-7.483-7.517.026-12.107 9.886-21.939 21.987-21.939h.047c5.874.013 11.391 2.313 15.535 6.475s6.418 9.689 6.405 15.562c-.009 4.135-3.365 7.483-7.5 7.483z"/></g></g></g></svg>