<svg id="Capa_1" enable-background="new 0 0 512 512" height="512" viewBox="0 0 512 512" width="512" xmlns="http://www.w3.org/2000/svg"><g><path d="m25.348 349.445c-.102-4.92-1.326-9.77-3.61-14.129-13.974-26.679-21.738-56.191-21.738-87.235 0-119.302 114.615-216.014 256-216.014s256 96.713 256 216.014-114.615 216.014-256 216.014c-43.405 0-84.28-9.123-120.096-25.21-5.087-2.285-11.083-1.421-15.272 2.26-20.934 18.399-48.285 30.855-82.659 38.247-17.497 3.763-32.668-12.72-27.453-29.84 8.964-29.43 15.619-62.074 14.828-100.107z" fill="#cde9fa"/><path d="m25.348 349.445c-.102-4.92-1.326-9.77-3.61-14.129-13.974-26.679-21.738-56.191-21.738-87.235 0-119.302 114.615-216.014 256-216.014s256 96.713 256 216.014-114.615 216.014-256 216.014c-43.405 0-84.28-9.123-120.096-25.21-5.087-2.285-11.083-1.421-15.272 2.26-20.934 18.399-48.285 30.855-82.659 38.247-17.497 3.763-32.668-12.72-27.453-29.84 8.964-29.43 15.619-62.074 14.828-100.107z" fill="#cde9fa"/><path d="m360.435 445.352c-223.467-14.821-305.532-235.054-254.461-372.305-64.202 39.249-105.974 103.021-105.974 175.034 0 31.044 7.764 60.557 21.739 87.236 2.284 4.36 3.507 9.209 3.61 14.129.791 38.032-5.865 70.677-14.829 100.106-5.215 17.121 9.956 33.603 27.453 29.84 34.374-7.392 61.725-19.848 82.659-38.247 4.188-3.682 10.185-4.545 15.272-2.26 35.816 16.086 76.692 25.21 120.097 25.21 37.199 0 72.54-6.703 104.434-18.743z" fill="#a2ddfd"/><path d="m93.378 345.744c17.021-6.47 31.874-17.656 39.728-32.787-3.201-3.624-6.26-7.384-9.128-11.269-8.45-11.443-24.575-13.866-36.017-5.422-11.443 8.449-13.87 24.574-5.422 36.017 3.423 4.638 7.055 9.124 10.839 13.461z" fill="#ffbe9d"/><path d="m204.413 364.039c-19.886-7.315-49.042-25.877-71.307-51.081-7.854 15.131-22.706 26.317-39.728 32.787 28.574 32.757 66.129 56.659 93.254 66.636 13.31 4.898 28.138-1.893 33.061-15.281 4.911-13.35-1.931-28.152-15.28-33.061z" fill="#5ec682"/><path d="m369.568 441.707c14.002-5.857 27.287-12.75 39.692-20.585-9.425-12.856-20.656-23.758-33.655-32.565-20.552-13.925-40.512-19.269-53.637-21.299-13.118-2.027-25.462 6.235-28.812 18.781 42.436 2.835 73.496 13.915 76.412 55.668z" fill="#5ec682"/><path d="m346.532 386.479c-27.123 0-57.259 5.609-90.532 5.609s-53.801-5.609-90.532-5.609c-13.231 15.517-21.592 34.536-23.036 55.232 34.225 14.32 72.778 22.384 113.569 22.384s79.344-8.064 113.569-22.384c-1.446-20.696-9.807-39.715-23.038-55.232z" fill="#88d37f"/><path d="m256 410.965c33.273 0 64.332-8.989 90.532-24.487-20.788-24.381-53.603-40.116-90.532-40.116s-69.744 15.735-90.532 40.116c26.201 15.499 57.259 24.487 90.532 24.487z" fill="#5ec682"/><ellipse cx="256" cy="253.32" fill="#ffd3bd" rx="138.407" ry="126.74"/><g><g><ellipse cx="173.951" cy="287.737" fill="#eda1ab" rx="30.274" ry="24.109"/><ellipse cx="338.049" cy="287.737" fill="#eda1ab" rx="30.274" ry="24.109"/><path d="m280.409 269.213c0-15.085-10.928-16.502-24.409-16.502-13.48 0-24.409 1.417-24.409 16.502s10.928 27.313 24.409 27.313c13.48 0 24.409-12.229 24.409-27.313z" fill="#4e5660"/></g><g fill="#4e5660"><path d="m179.013 266.453c-4.143 0-7.5-3.357-7.5-7.5v-12.362c0-4.143 3.357-7.5 7.5-7.5s7.5 3.357 7.5 7.5v12.362c0 4.143-3.358 7.5-7.5 7.5z"/><path d="m332.987 266.453c-4.143 0-7.5-3.357-7.5-7.5v-12.362c0-4.143 3.357-7.5 7.5-7.5s7.5 3.357 7.5 7.5v12.362c0 4.143-3.357 7.5-7.5 7.5z"/></g></g><path d="m256 126.58c-57.126 0-106.163 31.693-127.299 76.923 36.416 10.56 96.839 4.711 121.542-5.41 3.69-1.512 7.825-1.512 11.515 0 24.702 10.121 85.126 15.97 121.542 5.41-21.137-45.229-70.174-76.923-127.3-76.923z" fill="#d99a84"/></g></svg>