<svg id="Capa_1" enable-background="new 0 0 512 512" height="512" viewBox="0 0 512 512" width="512" xmlns="http://www.w3.org/2000/svg"><g><path d="m254.713 138.255c-4.142 0-7.5-3.357-7.5-7.5v-80.923c0-4.143 3.358-7.5 7.5-7.5s7.5 3.357 7.5 7.5v80.923c0 4.143-3.358 7.5-7.5 7.5z" fill="#d99a84"/><path d="m316.738 68.162h-66.79c-2.855 0-5.169-2.314-5.169-5.169v-36.593c0-2.855 2.314-5.169 5.169-5.169h66.79c8.558 0 15.496 6.938 15.496 15.496v15.94c0 8.557-6.937 15.495-15.496 15.495z" fill="#7acefa"/><path d="m137.253 154.894h237.494v254.577h-237.494z" fill="#f6ee86"/><path d="m137.253 236.363 118.747-43.219 118.747 43.22v-81.47h-237.494z" fill="#f2d98d"/><path d="m474.207 297.299h-436.414v173.257c0 11.164 9.05 20.214 20.214 20.214h395.987c11.164 0 20.214-9.05 20.214-20.214v-173.257z" fill="#f6ee86"/><path d="m37.793 297.299h436.414v30.905h-436.414z" fill="#f2d98d"/><path d="m494.034 297.299h-476.068c-9.922 0-17.966-8.044-17.966-17.966v-13.347c0-9.922 8.044-17.966 17.966-17.966h476.068c9.922 0 17.966 8.044 17.966 17.966v13.347c0 9.922-8.044 17.966-17.966 17.966z" fill="#59636f"/><path d="m235.852 248.02h-217.886c-9.922 0-17.966 8.044-17.966 17.967v13.347c0 9.922 8.044 17.966 17.966 17.966h230.268c-9.79-10.539-16.504-33.786-12.382-49.28z" fill="#455060"/><path d="m278.51 105.688 125.063 45.519c6.904 2.513 11.499 9.075 11.499 16.422v23.63c0 12.13-12.055 20.571-23.453 16.422l-129.642-47.186c-3.861-1.405-8.094-1.405-11.954 0l-129.642 47.186c-11.398 4.149-23.453-4.292-23.453-16.422v-23.63c0-7.347 4.595-13.909 11.499-16.422l125.063-45.519c14.54-5.292 30.48-5.292 45.02 0z" fill="#59636f"/><path d="m223.32 109.39-114.893 41.818c-6.904 2.513-11.499 9.075-11.499 16.422v23.63c0 12.13 12.055 20.571 23.453 16.422l122.303-44.515c-18.809-11.787-23.312-37.601-19.364-53.777z" fill="#455060"/><path d="m273.117 394.034h-34.234c-20.537 0-37.185 16.648-37.185 37.185v59.55h108.604v-59.55c0-20.536-16.648-37.185-37.185-37.185z" fill="#d99a84"/><g fill="#fff"><path d="m235.617 455.332c-4.142 0-7.5-3.357-7.5-7.5v-10.86c0-4.143 3.358-7.5 7.5-7.5s7.5 3.357 7.5 7.5v10.86c0 4.143-3.358 7.5-7.5 7.5z"/><path d="m276.383 455.332c-4.142 0-7.5-3.357-7.5-7.5v-10.86c0-4.143 3.358-7.5 7.5-7.5s7.5 3.357 7.5 7.5v10.86c0 4.143-3.358 7.5-7.5 7.5z"/></g><path d="m367.742 444.678h49.026c8.562 0 15.502-6.94 15.502-15.502v-15.184c0-8.562-6.94-15.502-15.502-15.502h-49.026c-8.562 0-15.502 6.941-15.502 15.502v15.184c-.001 8.561 6.94 15.502 15.502 15.502z" fill="#a2ddfd"/><path d="m416.768 444.678c8.561 0 15.502-6.941 15.502-15.502v-15.185c0-6.138-3.577-11.428-8.752-13.939l-44.625 44.625h37.875z" fill="#7acefa"/><path d="m144.258 444.678h-49.026c-8.562 0-15.502-6.94-15.502-15.502v-15.184c0-8.562 6.94-15.502 15.502-15.502h49.026c8.562 0 15.502 6.941 15.502 15.502v15.184c0 8.561-6.94 15.502-15.502 15.502z" fill="#a2ddfd"/><path d="m95.232 398.489c-8.562 0-15.502 6.941-15.502 15.502v15.185c0 5.081 2.456 9.578 6.234 12.405l43.092-43.092z" fill="#7acefa"/><path d="m168.495 254.992h-34.332v-114.208c0-6.26 3.915-11.852 9.798-13.993l15.323-5.577c4.477-1.629 9.211 1.686 9.211 6.45z" fill="#e0b799"/><path d="m171 303.849h-39.343c-8.45 0-15.3-6.85-15.3-15.301v-20.685c0-19.314 15.658-34.972 34.972-34.972 19.315 0 34.972 15.658 34.972 34.972v20.685c0 8.451-6.85 15.301-15.301 15.301z" fill="#d99a84"/><g><g fill="#eda1ab"><ellipse cx="174.042" cy="367.338" rx="30.241" ry="24.082"/><ellipse cx="337.958" cy="367.338" rx="30.241" ry="24.082"/></g><g fill="#4e5660"><path d="m191.667 351.655c-4.142 0-7.5-3.357-7.5-7.5v-12.362c0-4.143 3.358-7.5 7.5-7.5s7.5 3.357 7.5 7.5v12.362c0 4.143-3.358 7.5-7.5 7.5z"/><path d="m320.333 351.655c-4.142 0-7.5-3.357-7.5-7.5v-12.362c0-4.143 3.358-7.5 7.5-7.5s7.5 3.357 7.5 7.5v12.362c0 4.143-3.357 7.5-7.5 7.5z"/><path d="m256 359.015c-8.669 0-16.911-3.754-22.616-10.3-2.721-3.123-2.396-7.86.727-10.582 3.123-2.721 7.86-2.396 10.582.727 2.855 3.276 6.976 5.155 11.307 5.155s8.452-1.879 11.307-5.155c2.721-3.123 7.46-3.448 10.582-.727 3.123 2.722 3.448 7.459.727 10.582-5.705 6.546-13.948 10.3-22.616 10.3z"/></g></g></g></svg>