<svg id="Capa_1" enable-background="new 0 0 512 512" height="512" viewBox="0 0 512 512" width="512" xmlns="http://www.w3.org/2000/svg"><g><path d="m309.066 30.738 64.37-24.168c9.555-3.587 20.177 1.481 23.399 11.165l5.268 15.835c2.828 8.5 11.479 13.626 20.293 12.023l19.879-3.614c7.549-1.373 15.138 2.193 18.901 8.88l18.538 32.944c3.562 6.329 2.969 14.179-1.502 19.903l-45.788 58.609-153.134-2.127z" fill="#a2ddfd"/><path d="m279.29 160.187 141.873 1.971-70.744-77.308 9.686-8.529c19.046-16.773 22.738-45.308 8.588-66.374l-.855-1.274-58.771 22.066z" fill="#7acefa"/><path d="m451.324 187.128h-390.648l19.355 267.578c2.336 32.29 29.214 57.294 61.588 57.294h228.762c32.375 0 59.252-25.004 61.588-57.294z" fill="#f6ee86"/><path d="m437.657 376.064 13.667-188.936h-390.648l13.667 188.936z" fill="#a7a7a7"/><path d="m67.276 278.368c47.402 4.611 75.966-28.177 98.716-28.177 21.263 0 47.355 28.606 90.008 28.606 42.616 0 68.75-28.606 90.008-28.606 22.642 0 51.414 32.769 98.716 28.18l6.6-91.243h-390.648z" fill="#8b97a5"/><path d="m77.897 425.21 2.134 29.496c2.336 32.29 29.214 57.294 61.588 57.294h228.762c32.375 0 59.252-25.004 61.588-57.294l2.134-29.496z" fill="#a7a7a7"/><path d="m208.037 148.248-55.389-73.39 53.993-65.53c6.562-7.964 18.134-9.568 26.615-3.688l14.997 10.399c5.57 3.862 12.726 4.613 18.976 1.992l39.311-16.485c8.742-3.666 18.855-.635 24.141 7.234l12.357 18.397c5.552 8.267 4.116 19.369-3.358 25.95l-18.152 15.983c-8.334 7.339-9.021 20.089-1.525 28.281l53.508 58.472z" fill="#fbf1cf"/><path d="m240.36 47.151c-9.94-15.139-26.625-24.177-44.633-24.177-.111 0-.223.005-.334.006l-42.744 51.879 55.389 73.39 14.515.668 22.16-51.151c7.187-16.595 5.561-35.517-4.353-50.615z" fill="#fae0bd"/><path d="m68.181 138.619-17.778-35.556c-6.913-13.826 1.78-30.357 17.089-32.497l22.585-3.157c6.735-.941 12.688-4.865 16.209-10.682l9.132-15.088c8.244-13.62 27.609-14.678 37.287-2.037l5.816 7.597c4.931 6.44 12.934 9.745 20.971 8.66l13.094-1.767c17.438-2.353 30.76 15.242 23.765 31.388l-35.318 81.526z" fill="#a2ddfd"/><path d="m495.51 187.517c0 32.991-26.477 60.361-59.468 60.375-34.821.014-57.057-28.606-90.034-28.606-32.968 0-55.201 28.606-90.008 28.606s-57.04-28.606-90.008-28.606c-32.976 0-55.212 28.62-90.034 28.606-32.991-.013-59.468-27.384-59.468-60.375 0-32.371 26.242-58.613 58.613-58.613h361.795c32.37 0 58.612 26.242 58.612 58.613z" fill="#59636f"/><path d="m75.103 128.904c-32.371 0-58.613 26.242-58.613 58.613 0 32.991 26.477 60.361 59.468 60.375 34.821.014 57.057-28.606 90.034-28.606 8.337 0 15.986 1.832 23.326 4.565-24.493-21.948-24.52-71.467-12.638-94.947z" fill="#455060"/><g><g fill="#fff"><ellipse cx="169.913" cy="329.101" rx="31.765" ry="25.296"/><ellipse cx="342.087" cy="329.101" rx="31.765" ry="25.296"/></g><g fill="#4e5660"><path d="m188.425 311.939c-4.142 0-7.5-3.357-7.5-7.5v-12.362c0-4.142 3.358-7.5 7.5-7.5s7.5 3.358 7.5 7.5v12.362c0 4.143-3.358 7.5-7.5 7.5z"/><path d="m256 319.98c-8.996 0-17.55-3.896-23.47-10.689-2.721-3.123-2.396-7.86.726-10.582 3.123-2.721 7.859-2.396 10.582.727 3.07 3.523 7.503 5.544 12.162 5.544s9.091-2.021 12.162-5.544c2.722-3.123 7.458-3.447 10.582-.727 3.122 2.722 3.448 7.459.727 10.582-5.921 6.794-14.475 10.689-23.471 10.689z"/><path d="m340.288 311.595c-4.142 0-7.5-3.357-7.5-7.5 0-3.764-3.062-6.825-6.826-6.825s-6.826 3.062-6.826 6.825c0 4.143-3.358 7.5-7.5 7.5s-7.5-3.357-7.5-7.5c0-12.034 9.791-21.825 21.826-21.825s21.826 9.791 21.826 21.825c0 4.142-3.358 7.5-7.5 7.5z"/></g></g></g></svg>