<svg id="Capa_1" enable-background="new 0 0 512 512" height="512" viewBox="0 0 512 512" width="512" xmlns="http://www.w3.org/2000/svg"><g><path d="m438.606 404.605 68.828 68.828c9.755 9.755 2.846 26.434-10.949 26.434h-36.752c-11.611 0-22.746-4.612-30.956-12.822l-36.305-36.305z" fill="#b0ade2"/><path d="m393.844 423.146h65.243v30.905h-65.243z" fill="#a09cdc" transform="matrix(.707 -.707 .707 .707 -185.227 430.021)"/><path d="m447.389 356.997-37.835-37.835-102.525 102.526 37.835 37.835c10.721 10.721 28.104 10.721 38.826 0l63.7-63.7c10.72-10.722 10.72-28.105-.001-38.826z" fill="#a7a7a7"/><path d="m300.792 364.213h144.993v42.419h-144.993z" fill="#8b97a5" transform="matrix(.707 -.707 .707 .707 -163.201 376.845)"/><path d="m268.393 441.877-45.642-17.729c-33.51-13.016-62.053-36.282-81.558-66.479l-132.781-205.561c-13.442-20.81-10.531-48.18 6.986-65.697l58.879-58.879c17.518-17.517 44.887-20.428 65.697-6.986l205.561 132.781c30.197 19.505 53.463 48.049 66.479 81.558l17.729 45.642c5.905 15.202 2.273 32.456-9.259 43.988l-108.103 108.103c-11.531 11.532-28.786 15.164-43.988 9.259z" fill="#b0ade2"/><path d="m108.28 12.234c-12.478.756-24.645 5.941-34.002 15.298l-58.88 58.879c-17.517 17.518-20.428 44.888-6.986 65.697l108.177 167.471c-45.099-105.056-36.603-232.52-8.309-307.345z" fill="#a09cdc"/><path d="m429.743 280.527-17.729-45.642c-6.399-16.474-15.287-31.739-26.247-45.329l-208.344 208.345c13.59 10.959 28.854 19.848 45.329 26.247l45.642 17.729c15.202 5.905 32.456 2.273 43.987-9.258l108.104-108.104c11.532-11.532 15.163-28.787 9.258-43.988z" fill="#59636f"/><path d="m244.182 201.11-86.429-86.428c-10.94-10.94-28.678-10.94-39.618 0l-15.587 15.587c-10.94 10.94-10.94 28.678 0 39.618l86.428 86.428c10.94 10.94 28.678 10.94 39.618 0l15.587-15.587c10.941-10.941 10.941-28.678.001-39.618z" fill="#fff"/><path d="m191.773 211.407c-1.919 0-3.839-.732-5.303-2.196l-36.818-36.818c-2.929-2.93-2.929-7.678 0-10.607 2.929-2.928 7.678-2.928 10.606 0l36.818 36.818c2.929 2.93 2.929 7.678 0 10.607-1.464 1.464-3.383 2.196-5.303 2.196z" fill="#59636f"/></g></svg>