<svg id="Capa_1" enable-background="new 0 0 512 512" height="512" viewBox="0 0 512 512" width="512" xmlns="http://www.w3.org/2000/svg"><g><path d="m18.884 333.187h80.949l-21.886-48.551h-59.063c-10.429.001-18.884 8.455-18.884 18.885v10.782c0 10.43 8.455 18.884 18.884 18.884z" fill="#59636f"/><path d="m464.902 333.187h-80.949l21.886-48.551h59.063c10.429 0 18.884 8.455 18.884 18.884v10.782c0 10.431-8.454 18.885-18.884 18.885z" fill="#59636f"/><ellipse cx="70.456" cy="83.341" fill="#fae0bd" rx="29.627" ry="29.627" transform="matrix(.23 -.973 .973 .23 -26.843 132.764)"/><path d="m165.616 166.101c-1.884-17.189-16.701-30.317-33.992-30.288-20.197.034-35.339 17.297-34.031 36.409.314 4.586-2.345 8.807-6.426 10.922-13.781 7.144-23.2 21.531-23.2 38.126 0 23.711 19.222 42.933 42.933 42.933 30.345 0 49.75-29.968 40.716-56.609-1.493-4.404-.374-9.269 3.063-12.402 7.72-7.036 12.2-17.565 10.937-29.091z" fill="#fae0bd"/><path d="m262.705 164.336h-41.623c-9.758 0-17.043 8.982-15.027 18.531l10.757 50.954h50.163l10.757-50.954c2.015-9.549-5.268-18.531-15.027-18.531z" fill="#59636f"/><path d="m326.399 458.287h-169.012c-32.605 0-60.141-24.208-64.317-56.545l-15.123-117.105h327.893l-15.123 117.105c-4.177 32.336-31.713 56.545-64.318 56.545z" fill="#a2ddfd"/><path d="m93.07 401.742c4.176 32.337 31.712 56.545 64.317 56.545h66.771c-55.641-37.303-58.331-125.481-58.331-173.65h-87.88z" fill="#7acefa"/><path d="m405.84 284.637c-15.393-33.386-73.066-67.711-163.946-67.711s-148.554 34.325-163.947 67.711z" fill="#cde9fa"/><path d="m179.122 223.016c-54.717 11.321-89.7 36.73-101.176 61.62h87.881c-12.676-16.55-5.891-46.699 13.295-61.62z" fill="#a2ddfd"/><path d="m502.808 127.593c-12.62-12.62-33.211-12.189-45.292.949l-87.001 94.612 36.732 36.732 94.612-87.001c13.138-12.081 13.569-32.672.949-45.292z" fill="#88d37f"/><path d="m431.415 198.985c-6.963-6.963-14.915-12.501-23.503-16.5l-37.397 40.668 36.732 36.732 40.622-37.355c-3.934-8.5-9.41-16.501-16.454-23.545z" fill="#5ec682"/><path d="m411.778 287.305c-33.532 33.532-71.582 33.656-86.96 18.278s-14.955-53.727 18.278-86.96c17.742-17.742 47.5-16.751 66.467 2.216 18.966 18.966 19.958 48.724 2.215 66.466z" fill="#88d37f"/><g><g><ellipse cx="159.936" cy="391.347" fill="#fff" rx="30.241" ry="24.082"/><ellipse cx="323.851" cy="391.347" fill="#fff" rx="30.241" ry="24.082"/><path d="m241.893 365.76c-11.997 0-22.681-8.062-29.401 1.88-6.816 10.085 8.45 25.723 29.401 25.723s36.217-15.638 29.401-25.723c-6.72-9.942-17.404-1.88-29.401-1.88z" fill="#4e5660"/></g><g fill="#4e5660"><path d="m177.56 374c-7.284 0-14.21-3.154-19.001-8.654-2.722-3.123-2.395-7.86.728-10.582 3.123-2.721 7.859-2.396 10.582.728 1.941 2.23 4.745 3.508 7.691 3.508s5.75-1.278 7.691-3.508c2.722-3.124 7.46-3.448 10.582-.728 3.123 2.722 3.449 7.459.728 10.582-4.791 5.5-11.717 8.654-19.001 8.654z"/><path d="m306.227 374c-7.284 0-14.21-3.154-19.001-8.654-2.722-3.123-2.395-7.86.728-10.582 3.123-2.721 7.86-2.396 10.582.728 1.941 2.23 4.745 3.508 7.691 3.508s5.75-1.278 7.691-3.508c2.723-3.124 7.459-3.448 10.582-.728 3.123 2.722 3.449 7.459.728 10.582-4.792 5.5-11.717 8.654-19.001 8.654z"/></g></g></g></svg>