<svg id="Capa_1" enable-background="new 0 0 512 512" height="512" viewBox="0 0 512 512" width="512" xmlns="http://www.w3.org/2000/svg"><g><path d="m314.874 468.366h-263.086c-13.708 0-24.82-11.112-24.82-24.82v-305.721h312.727v305.721c-.001 13.707-11.113 24.82-24.821 24.82z" fill="#e0b799"/><path d="m278.702 205.663c-29.902 0-54.229 24.328-54.229 54.23v10.074c0 16.958 9.118 31.827 22.708 39.961v133.617c0 8.915 2.116 17.34 5.853 24.82h61.84c13.708 0 24.82-11.112 24.82-24.82v-237.882z" fill="#d99a84"/><path d="m26.968 137.824h312.727v30.905h-312.727z" fill="#d99a84"/><path d="m343.051 85.687h-319.439c-13.041 0-23.612 10.572-23.612 23.612v12.111c0 9.065 7.349 16.414 16.414 16.414h333.834c9.065 0 16.414-7.349 16.414-16.414v-12.111c0-13.04-10.571-23.612-23.611-23.612z" fill="#59636f"/><path d="m274.789 327.801h-182.916c-8.877 0-16.073 7.196-16.073 16.073v59.586c0 8.877 7.196 16.073 16.073 16.073h182.916c8.877 0 16.073-7.196 16.073-16.073v-59.586c0-8.877-7.196-16.073-16.073-16.073z" fill="#fbf1cf"/><path d="m274.789 327.801h-27.608v91.732h27.608c8.877 0 16.073-7.196 16.073-16.073v-59.586c0-8.877-7.196-16.073-16.073-16.073z" fill="#fae0bd"/><path d="m274.789 186.657h-182.916c-8.877 0-16.073 7.196-16.073 16.073v59.586c0 8.877 7.196 16.073 16.073 16.073h182.916c8.877 0 16.073-7.196 16.073-16.073v-59.586c0-8.877-7.196-16.073-16.073-16.073z" fill="#fbf1cf"/><path d="m278.702 205.663c-29.902 0-54.229 24.328-54.229 54.23v10.074c0 2.877.283 5.687.785 8.421h49.532c8.877 0 16.073-7.196 16.073-16.073v-56.653h-12.161z" fill="#fae0bd"/><g fill="#f2d98d"><path d="m216.668 240.023h-66.674c-4.143 0-7.5-3.357-7.5-7.5s3.357-7.5 7.5-7.5h66.674c4.143 0 7.5 3.357 7.5 7.5s-3.357 7.5-7.5 7.5z"/><path d="m216.668 381.167h-66.674c-4.143 0-7.5-3.357-7.5-7.5s3.357-7.5 7.5-7.5h66.674c4.143 0 7.5 3.357 7.5 7.5s-3.357 7.5-7.5 7.5z"/></g><path d="m489.291 285.597h-211.204v157.948c0 13.708 11.112 24.82 24.82 24.82h161.564c13.708 0 24.82-11.112 24.82-24.82z" fill="#cde9fa"/><path d="m278.087 285.597h211.204v30.905h-211.204z" fill="#a2ddfd"/><path d="m496.371 285.597h-225.364c-8.632 0-15.629-6.997-15.629-15.629v-10.074c0-12.882 10.443-23.325 23.325-23.325h209.973c12.882 0 23.325 10.443 23.325 23.325v10.074c-.001 8.632-6.998 15.629-15.63 15.629z" fill="#fbf1cf"/><path d="m432.523 342.499h-97.668c-6.958 0-12.598 5.64-12.598 12.598v43.769c0 6.958 5.64 12.598 12.598 12.598h97.668c6.958 0 12.598-5.64 12.598-12.598v-43.769c0-6.958-5.641-12.598-12.598-12.598z" fill="#a2ddfd"/><circle cx="383.689" cy="376.981" fill="#fbf1cf" r="7.611"/><path d="m461.677 200.141h-100.399c-11.92 0-21.583 9.663-21.583 21.584v14.844h143.565v-14.844c0-11.92-9.663-21.584-21.583-21.584z" fill="#a7a7a7"/><path d="m392.312 149.644h38.331v50.497h-38.331z" fill="#59636f"/><path d="m485.225 149.644h-147.496c-7.022 0-12.119-6.682-10.262-13.454l21.277-77.617c2.418-8.822 10.437-14.939 19.585-14.939h86.297c9.148 0 17.166 6.116 19.585 14.939l21.277 77.617c1.856 6.772-3.241 13.454-10.263 13.454z" fill="#f6ee86"/><path d="m411.478 122.003c-4.143 0-7.5-3.357-7.5-7.5v-35.727c0-4.143 3.357-7.5 7.5-7.5s7.5 3.357 7.5 7.5v35.727c0 4.143-3.358 7.5-7.5 7.5z" fill="#f2d98d"/></g></svg>