<svg id="Capa_1" enable-background="new 0 0 512 512" height="512" viewBox="0 0 512 512" width="512" xmlns="http://www.w3.org/2000/svg" xmlns:xlink="http://www.w3.org/1999/xlink"><linearGradient id="lg1"><stop offset="0" stop-color="#53aae6"/><stop offset="1" stop-color="#a4d2f0"/></linearGradient><linearGradient id="SVGID_1_" gradientTransform="matrix(1.02 0 0 -1.02 .976 527.008)" gradientUnits="userSpaceOnUse" x1="250.043" x2="250.043" xlink:href="#lg1" y1="331.448" y2="124.726"/><linearGradient id="SVGID_2_" gradientTransform="matrix(1.02 0 0 -1.02 .976 527.008)" gradientUnits="userSpaceOnUse" x1="371.038" x2="551.801" xlink:href="#lg1" y1="246.641" y2="246.641"/><linearGradient id="SVGID_3_" gradientTransform="matrix(-1.02 0 0 -1.02 820.992 527.008)" gradientUnits="userSpaceOnUse" x1="674.952" x2="855.715" xlink:href="#lg1" y1="246.641" y2="246.641"/><linearGradient id="SVGID_4_" gradientTransform="matrix(1.02 0 0 -1.02 .976 527.008)" gradientUnits="userSpaceOnUse" x1="250.044" x2="250.044" y1="544.368" y2="289.339"><stop offset="0" stop-color="#74d2e8"/><stop offset="1" stop-color="#baeaf5"/></linearGradient><g><path d="m511.645 136.417c-88.477-21.452-161.917-19.344-255.645-19.344-93.727 0-167.168-2.107-255.645 19.345-.231 2.164-.355 4.36-.355 6.585v225.994c0 33.969 27.538 61.507 61.507 61.507h388.985c33.969 0 61.507-27.538 61.507-61.507v-225.994c.001-2.225-.123-4.421-.354-6.586z" fill="url(#SVGID_1_)"/><path d="m290.028 310.313c-2.999-7.821-11.041-12.578-19.313-11.262-23.999 3.814-49.165-1.761-69.75-16.733l-23.301-16.946-26.371 24.961 27.575 20.055c22.185 16.135 48.798 25.335 76.229 25.522 7.127.049 14.174-.48 21.092-1.569 11.198-1.761 17.896-13.443 13.839-24.028z" fill="#04a5de"/><path d="m511.645 136.417c-94.852 4.316-255.645 54.811-255.645 54.811l235.887 223.262c12.357-11.25 20.113-27.466 20.113-45.493v-225.994c0-2.225-.124-4.421-.355-6.586z" fill="url(#SVGID_2_)"/><path d="m.355 136.417c94.853 4.316 255.645 54.811 255.645 54.811l-235.887 223.262c-12.357-11.251-20.113-27.466-20.113-45.493v-225.994c0-2.225.124-4.421.355-6.586z" fill="url(#SVGID_3_)"/><path d="m90.266 323.668c6.791 7.086 18.028 7.36 25.155.614l62.242-58.911-177.305-128.952c-.232 2.164-.358 4.36-.358 6.584v37.295l121.926 88.676-31.042 29.381c-7.191 6.806-7.468 18.164-.618 25.313z" fill="#04a5de"/><path d="m450.493 81.496h-388.986c-31.744 0-57.864 24.05-61.151 54.922l200.609 145.901c32.811 23.863 77.261 23.863 110.072 0l200.609-145.901c-3.289-30.873-29.409-54.922-61.153-54.922z" fill="url(#SVGID_4_)"/><ellipse cx="166.364" cy="196.913" fill="#eaadcd" rx="15.234" ry="12.242"/><ellipse cx="345.637" cy="196.913" fill="#eaadcd" rx="15.234" ry="12.242"/><circle cx="192.48" cy="166.705" fill="#fff" r="30.208"/><circle cx="319.52" cy="166.705" fill="#fff" r="30.208"/><g fill="#3b3b44"><circle cx="192.48" cy="166.705" r="18.004"/><circle cx="319.52" cy="166.705" r="18.004"/><path d="m256 197.874c-5.353 0-10.704-2.024-15.07-6.073-2.065-1.915-2.188-5.141-.272-7.207 1.915-2.065 5.142-2.188 7.207-.272 4.791 4.442 11.481 4.442 16.272 0 2.064-1.915 5.291-1.793 7.207.272 1.914 2.065 1.793 5.291-.272 7.207-4.368 4.048-9.719 6.073-15.072 6.073z"/></g><path d="m393.909 122.294h-11.306c-5.633 0-10.199-4.566-10.199-10.199s4.566-10.199 10.199-10.199h11.306c5.633 0 10.199 4.566 10.199 10.199s-4.566 10.199-10.199 10.199z" fill="#dff7fa"/><path d="m473.268 132.25c-2.752 0-5.495-1.107-7.506-3.291-3.9-4.236-9.465-6.666-15.268-6.666h-14.909c-5.633 0-10.199-4.566-10.199-10.199s4.566-10.199 10.199-10.199h14.909c11.489 0 22.525 4.828 30.275 13.249 3.816 4.144 3.549 10.596-.596 14.411-1.96 1.805-4.436 2.695-6.905 2.695z" fill="#dff7fa"/></g></svg>