<svg id="Capa_1" enable-background="new 0 0 502 502" height="512" viewBox="0 0 502 502" width="512" xmlns="http://www.w3.org/2000/svg" xmlns:xlink="http://www.w3.org/1999/xlink"><linearGradient id="lg1"><stop offset="0" stop-color="#74d2e8"/><stop offset="1" stop-color="#baeaf5"/></linearGradient><linearGradient id="SVGID_1_" gradientUnits="userSpaceOnUse" x1="190.907" x2="35.836" xlink:href="#lg1" y1="415.723" y2="415.723"/><linearGradient id="SVGID_2_" gradientUnits="userSpaceOnUse" x1="251" x2="251" xlink:href="#lg1" y1="478.299" y2="118.816"/><linearGradient id="lg2"><stop offset="0" stop-color="#f9edaf"/><stop offset="1" stop-color="#fffcdd"/></linearGradient><linearGradient id="SVGID_3_" gradientUnits="userSpaceOnUse" x1="251" x2="251" xlink:href="#lg2" y1="255.238" y2="301.712"/><linearGradient id="SVGID_4_" gradientUnits="userSpaceOnUse" x1="137.164" x2="137.164" xlink:href="#lg2" y1="255.238" y2="301.712"/><linearGradient id="SVGID_5_" gradientUnits="userSpaceOnUse" x1="364.836" x2="364.836" xlink:href="#lg2" y1="220.176" y2="266.649"/><g><path d="m65.764 343.394c3.79 29.563-10.122 68.908-29.426 97.995-13.456 20.276 1.504 47.193 25.832 46.656 62.195-1.375 117.564-30.885 144.203-76.813z" fill="url(#SVGID_1_)"/><ellipse cx="251" cy="216.118" fill="url(#SVGID_2_)" rx="251" ry="202.171"/><g><ellipse cx="163.115" cy="173.434" fill="#eaadcd" rx="14.936" ry="12.003"/><ellipse cx="338.886" cy="173.434" fill="#eaadcd" rx="14.936" ry="12.003"/><path d="m218.274 141.837c-.991-15.146-13.602-27.24-28.775-27.629-16.713-.428-30.396 12.992-30.396 29.608 0 .843.035 1.678.105 2.503.422 5.01 5.857 7.994 10.349 5.738.937-.47 1.926-.894 2.937-1.294l-.011-.014c4.777-5.47 10.312-7.46 16.237-7.46 5.926 0 11.46 1.99 16.237 7.46l-.013.013c1.011.4 1.999.823 2.935 1.293 4.544 2.281 9.962-.801 10.365-5.87.115-1.423.127-2.874.03-4.348z" fill="#fff"/><path d="m251 183.62c-6.447 0-12.894-2.155-18.273-6.465-4.989-3.997-5.794-11.282-1.797-16.271 3.997-4.99 11.282-5.793 16.271-1.797 2.237 1.792 5.361 1.792 7.598 0 4.988-3.997 12.273-3.193 16.271 1.797 3.997 4.989 3.193 12.274-1.797 16.271-5.379 4.31-11.826 6.465-18.273 6.465z" fill="#3b3b44"/><path d="m188.721 147.782c5.926 0 11.473 1.082 16.237 2.967.911-2.129 1.415-4.47 1.415-6.933 0-9.749-7.903-17.652-17.652-17.652s-17.652 7.903-17.652 17.652c0 2.463.504 4.803 1.415 6.933 4.764-1.885 10.312-2.967 16.237-2.967z" fill="#3b3b44"/><path d="m342.832 141.837c-.991-15.146-13.602-27.24-28.775-27.629-16.713-.428-30.396 12.992-30.396 29.608 0 .843.035 1.678.105 2.503.422 5.01 5.857 7.994 10.349 5.738.937-.47 1.926-.894 2.937-1.294l-.011-.014c4.777-5.47 10.311-7.46 16.237-7.46s11.461 1.99 16.237 7.46l-.013.013c1.011.4 1.999.823 2.935 1.293 4.544 2.281 9.962-.801 10.365-5.87.114-1.423.126-2.874.03-4.348z" fill="#fff"/><path d="m313.279 147.782c5.925 0 11.473 1.082 16.237 2.967.911-2.129 1.415-4.47 1.415-6.933 0-9.749-7.903-17.652-17.652-17.652s-17.653 7.903-17.653 17.652c0 2.463.504 4.803 1.415 6.933 4.764-1.885 10.312-2.967 16.238-2.967z" fill="#3b3b44"/></g><circle cx="251" cy="288.61" fill="url(#SVGID_3_)" r="35.062"/><circle cx="137.164" cy="288.61" fill="url(#SVGID_4_)" r="35.062"/><circle cx="364.836" cy="253.548" fill="url(#SVGID_5_)" r="35.062"/><path d="m66.068 361.429c-.832 10.504-3.258 21.623-6.861 32.687 24.144 17.538 52.427 30.962 84.163 40.062-4.588 2.962-9.423 5.673-14.47 8.122-8.52 4.133-11.031 15.093-5.228 22.576 4.339 5.594 12.009 7.382 18.374 4.281 25.804-12.569 47.294-30.906 61.652-53.525-58.263-6.773-104.226-26.2-137.63-54.203z" fill="#18c9de"/><g fill="#e3fcff"><path d="m419.004 105.786c-2.329 0-4.669-.809-6.563-2.459-8.639-7.522-18.486-14.337-29.268-20.254-4.842-2.657-6.613-8.736-3.956-13.578 2.658-4.842 8.738-6.612 13.578-3.956 12.035 6.605 23.064 14.244 32.779 22.705 4.165 3.627 4.602 9.943.975 14.108-1.976 2.272-4.753 3.434-7.545 3.434z"/><path d="m350.679 68.324c-1.026 0-2.069-.159-3.098-.494-4.011-1.306-8.162-2.537-12.338-3.658-5.333-1.432-8.497-6.917-7.064-12.251s6.918-8.497 12.251-7.064c4.512 1.212 9.001 2.542 13.342 3.956 5.251 1.71 8.122 7.353 6.413 12.604-1.375 4.222-5.293 6.907-9.506 6.907z"/></g></g></svg>