<svg id="Capa_1" enable-background="new 0 0 502 502" height="512" viewBox="0 0 502 502" width="512" xmlns="http://www.w3.org/2000/svg" xmlns:xlink="http://www.w3.org/1999/xlink"><linearGradient id="SVGID_1_" gradientUnits="userSpaceOnUse" x1="219.19" x2="219.19" y1="589.776" y2="257.323"><stop offset="0" stop-color="#7ed99e"/><stop offset=".2532" stop-color="#81daa3"/><stop offset=".5725" stop-color="#88ddb3"/><stop offset=".9261" stop-color="#95e2cd"/><stop offset="1" stop-color="#98e3d3"/></linearGradient><linearGradient id="lg1"><stop offset="0" stop-color="#f4d952"/><stop offset="1" stop-color="#f9edaf"/></linearGradient><linearGradient id="SVGID_2_" gradientUnits="userSpaceOnUse" x1="142.932" x2="142.932" xlink:href="#lg1" y1="199.558" y2="19.862"/><linearGradient id="SVGID_3_" gradientUnits="userSpaceOnUse" x1="385.264" x2="385.264" xlink:href="#lg1" y1="437.318" y2="240.594"/><linearGradient id="SVGID_4_" gradientUnits="userSpaceOnUse" x1="396.785" x2="396.785" y1="208.569" y2="8.804"><stop offset="0" stop-color="#74d2e8"/><stop offset="1" stop-color="#baeaf5"/></linearGradient><linearGradient id="SVGID_5_" gradientUnits="userSpaceOnUse" x1="355.195" x2="355.195" y1="211.666" y2="94.753"><stop offset="0" stop-color="#53aae6"/><stop offset="1" stop-color="#a4d2f0"/></linearGradient><g><path d="m438.38 443.273c-19.563-37.994-36.107-57.787-57.821-79.501-21.714-21.713-41.507-38.258-79.5-57.821l-21.594 21.594c-19.783 19.783-59.113-4.208-79.957-25.053-20.845-20.844-44.835-60.175-25.053-79.957l21.595-21.594c-19.563-37.994-36.107-57.787-57.821-79.5s-41.507-38.258-79.5-57.821l-21.596 21.594c-86.072 86.073-5.842 229.853 71.979 307.674s221.602 158.051 307.674 71.979z" fill="url(#SVGID_1_)"/><path d="m437.116 416.412c-7.797-7.886-20.522-7.922-28.364-.08l-20.25 20.251c-17.104 17.103-37.884 25.417-63.531 25.417-27.42 0-57.65-9.48-87.038-24.227-9.403-4.718-20.854-1.342-26.203 7.716-5.887 9.968-2.139 22.877 8.212 28.062 68.172 34.15 143.564 44.596 196.844-8.684l20.25-20.25c7.78-7.78 7.815-20.382.08-28.205z" fill="#24bd7f"/><path d="m208.768 99.529-48.628-48.628c-24.492-24.492-64.201-24.492-88.693 0l-12.72 12.719c14.377 27.895 36.021 57.874 57.734 79.588 21.713 21.713 51.692 43.356 79.588 57.734l12.719-12.719c24.492-24.493 24.492-64.202 0-88.694z" fill="url(#SVGID_2_)"/><path d="m402.471 293.233 48.628 48.628c24.492 24.492 24.492 64.201 0 88.693l-12.719 12.719c-27.895-14.377-57.874-36.021-79.587-57.734s-43.356-51.692-57.734-79.587l12.719-12.719c24.492-24.493 64.201-24.492 88.693 0z" fill="url(#SVGID_3_)"/><path d="m408.752 416.332-5.644 5.644c11.592 7.993 23.565 15.256 35.185 21.25 6.494-7.825 6.114-19.441-1.178-26.814-7.797-7.886-20.522-7.921-28.363-.08z" fill="#efc534"/><path d="m458.215 188.538c-.001-79.817-64.937-144.752-144.753-144.753-12.09-.001-21.892-9.803-21.892-21.893.001-12.09 9.802-21.892 21.893-21.892 103.957.002 188.535 84.578 188.537 188.537 0 12.091-9.801 21.893-21.892 21.892-12.089.001-21.893-9.8-21.893-21.891z" fill="url(#SVGID_4_)"/><path d="m375.033 188.535c0-33.949-27.618-61.568-61.568-61.568-12.09 0-21.89-9.801-21.892-21.893.001-12.09 9.802-21.892 21.893-21.892 58.089.001 105.35 47.262 105.351 105.351.001 12.091-9.801 21.893-21.892 21.892-12.089.003-21.892-9.799-21.892-21.89z" fill="url(#SVGID_5_)"/><g><path d="m93.266 88.579c-2.559 0-5.119-.976-7.071-2.929-3.905-3.905-3.905-10.237 0-14.143l2.929-2.929c4.49-4.489 10.056-7.791 16.097-9.548 5.302-1.543 10.852 1.506 12.394 6.81 1.543 5.303-1.506 10.853-6.809 12.395-2.858.831-5.394 2.34-7.54 4.486l-2.929 2.929c-1.953 1.953-4.512 2.929-7.071 2.929z" fill="#fffde3"/><path d="m39.972 154.722c-1.056 0-2.129-.169-3.185-.523-5.235-1.758-8.055-7.427-6.297-12.663 4.873-14.511 12.828-27.152 24.32-38.645l2.285-2.285c3.905-3.905 10.237-3.906 14.142-.002 3.906 3.905 3.906 10.236.002 14.142l-2.286 2.286c-9.258 9.258-15.637 19.355-19.503 30.87-1.403 4.18-5.3 6.82-9.478 6.82z" fill="#aef5d6"/></g></g></svg>