<svg id="Capa_1" enable-background="new 0 0 502 502" height="512" viewBox="0 0 502 502" width="512" xmlns="http://www.w3.org/2000/svg" xmlns:xlink="http://www.w3.org/1999/xlink"><linearGradient id="SVGID_1_" gradientUnits="userSpaceOnUse" x1="251" x2="251" y1="126.476" y2="54.838"><stop offset="0" stop-color="#b39bdb"/><stop offset="1" stop-color="#d0c3e8"/></linearGradient><linearGradient id="lg1"><stop offset="0" stop-color="#4e5660"/><stop offset="1" stop-color="#64768d"/></linearGradient><linearGradient id="SVGID_2_" gradientUnits="userSpaceOnUse" x1="251" x2="251" xlink:href="#lg1" y1="513.551" y2="175.755"/><linearGradient id="lg2"><stop offset="0" stop-color="#74d2e8"/><stop offset="1" stop-color="#baeaf5"/></linearGradient><linearGradient id="SVGID_3_" gradientUnits="userSpaceOnUse" x1="131.217" x2="473.128" xlink:href="#lg2" y1="287.993" y2="287.993"/><linearGradient id="SVGID_4_" gradientUnits="userSpaceOnUse" x1="251" x2="251" xlink:href="#lg1" y1="226.028" y2="410.602"/><linearGradient id="SVGID_5_" gradientUnits="userSpaceOnUse" x1="121.794" x2="121.794" xlink:href="#lg2" y1="127.503" y2="78.274"/><linearGradient id="SVGID_6_" gradientUnits="userSpaceOnUse" x1="413.421" x2="413.421" y1="219.663" y2="171.356"><stop offset="0" stop-color="#f4c22c"/><stop offset="1" stop-color="#f9e198"/></linearGradient><g><path d="m297.125 51.311h-92.249c-15.53 0-29.049 10.614-32.735 25.7l-11.798 48.286h181.315l-11.798-48.286c-3.686-15.086-17.205-25.7-32.735-25.7z" fill="url(#SVGID_1_)"/><path d="m419.672 450.689h-337.344c-45.468 0-82.328-36.86-82.328-82.329v-160.735c0-45.469 36.86-82.329 82.328-82.329h337.343c45.469 0 82.328 36.86 82.328 82.329v160.735c.001 45.469-36.859 82.329-82.327 82.329z" fill="url(#SVGID_2_)"/><circle cx="251" cy="287.993" fill="url(#SVGID_3_)" r="120.104"/><circle cx="251" cy="287.993" fill="url(#SVGID_4_)" r="75.901"/><circle cx="251" cy="287.993" fill="#424e5e" r="21.1"/><path d="m105.394 79.928h32.8c12.232 0 22.148 9.916 22.148 22.148v23.221h-77.096v-23.221c0-12.232 9.916-22.148 22.148-22.148z" fill="url(#SVGID_5_)"/><circle cx="413.421" cy="192.583" fill="url(#SVGID_6_)" r="24.543"/><path d="m251 443.096c13.73 0 27.047-1.797 39.732-5.164 10.498-2.787 16.032-14.273 11.546-24.165-3.51-7.74-12.09-11.896-20.302-9.708-9.882 2.633-20.264 4.038-30.975 4.038-46.955 0-87.617-26.946-107.366-66.218-4.196-8.344-14.269-11.842-22.777-7.989-9.071 4.108-12.871 14.95-8.379 23.837 25.573 50.596 78.061 85.369 138.521 85.369z" fill="#424e5e"/><g fill="#8196ab"><path d="m303.846 299.493c-6.352 0-11.5-5.149-11.5-11.5 0-6.161-1.32-12.084-3.924-17.605-2.709-5.744-.248-12.597 5.496-15.307 5.743-2.71 12.597-.249 15.307 5.496 4.061 8.612 6.121 17.837 6.121 27.416 0 6.351-5.149 11.5-11.5 11.5z"/><path d="m265.989 248.808c-1.078 0-2.175-.153-3.262-.474-2.037-.602-4.142-1.048-6.254-1.328-6.297-.833-10.726-6.612-9.893-12.909s6.619-10.721 12.908-9.893c3.292.436 6.572 1.132 9.752 2.071 6.091 1.798 9.571 8.194 7.772 14.286-1.476 5.005-6.057 8.247-11.023 8.247z"/></g></g></svg>