<svg id="Capa_1" enable-background="new 0 0 502 502" height="512" viewBox="0 0 502 502" width="512" xmlns="http://www.w3.org/2000/svg" xmlns:xlink="http://www.w3.org/1999/xlink"><linearGradient id="SVGID_1_" gradientUnits="userSpaceOnUse" x1="251" x2="251" y1="236.559" y2="-24.175"><stop offset="0" stop-color="#74d2e8"/><stop offset="1" stop-color="#baeaf5"/></linearGradient><linearGradient id="lg1"><stop offset="0" stop-color="#f9edaf"/><stop offset="1" stop-color="#fffcdd"/></linearGradient><linearGradient id="SVGID_2_" gradientUnits="userSpaceOnUse" x1="339.874" x2="339.874" xlink:href="#lg1" y1="179.723" y2="79.15"/><linearGradient id="SVGID_3_" gradientUnits="userSpaceOnUse" x1="327.903" x2="581.304" y1="374.479" y2="374.479"><stop offset="0" stop-color="#6ac65e"/><stop offset="1" stop-color="#afd986"/></linearGradient><linearGradient id="SVGID_4_" gradientUnits="userSpaceOnUse" x1="401.941" x2="401.941" xlink:href="#lg1" y1="322.683" y2="218.826"/><linearGradient id="SVGID_5_" gradientUnits="userSpaceOnUse" x1="237.672" x2="237.672" y1="525.081" y2="267.031"><stop offset="0" stop-color="#81d676"/><stop offset="1" stop-color="#c3e6a1"/></linearGradient><linearGradient id="SVGID_6_" gradientUnits="userSpaceOnUse" x1="160.683" x2="160.683" xlink:href="#lg1" y1="299.761" y2="194.376"/><g><path d="m502 297.496v-205.302c0-50.917-41.277-92.194-92.194-92.194h-317.612c-50.917 0-92.194 41.277-92.194 92.194v230.438l339.874 38.988z" fill="url(#SVGID_1_)"/><path d="m395.977 155.906c21.609 0 39.651-17.237 39.791-38.845.165-25.54-23.558-43.811-47.52-38.471-2.801.624-5.65-.679-7.205-3.091-9.285-14.397-25.454-23.935-43.859-23.935-20.284 0-37.853 11.582-46.482 28.489-1.307 2.562-3.995 4.184-6.854 3.876-20.783-2.239-39.47 13.888-39.863 35.206-.373 20.22 16.533 36.771 36.757 36.771z" fill="url(#SVGID_2_)"/><path d="m475.344 474.634.004.004c16.475-16.655 26.652-39.554 26.652-64.832v-112.31l-23.177-23.177-153.763 2.238-64.997 64.997z" fill="url(#SVGID_3_)"/><path d="m368.496 233.12-43.437 43.437c22.302 13.873 43.427 36.199 75.005 36.199 33.343 0 55.033-24.889 78.758-38.437l-41.199-41.199c-19.088-19.089-50.037-19.089-69.127 0z" fill="url(#SVGID_4_)"/><path d="m252.566 251.856-183.767 1.977-68.799 68.799v87.174c0 50.917 41.277 92.194 92.194 92.194h317.612c25.639 0 48.826-10.473 65.537-27.366z" fill="url(#SVGID_5_)"/><path d="m68.799 253.833c27.605 13.398 51.475 44.007 89.674 44.007 40.221 0 64.557-33.937 94.093-45.983l-53.995-53.995c-20.379-20.379-53.421-20.379-73.8 0z" fill="url(#SVGID_6_)"/><g><path d="m85.524 408.837c0 6.629-6.687 12.004-14.937 12.004-8.249 0-14.936-5.374-14.936-12.004 0-6.629 6.687-12.003 14.936-12.003 8.25 0 14.937 5.374 14.937 12.003z" fill="#efc5db"/><path d="m261.295 408.837c0 6.629-6.687 12.004-14.936 12.004s-14.936-5.374-14.936-12.004c0-6.629 6.687-12.003 14.936-12.003s14.936 5.374 14.936 12.003z" fill="#efc5db"/><circle cx="96.194" cy="379.219" fill="#fff" r="29.618"/><path d="m125.812 379.219c0 9.749-7.903 17.652-17.652 17.652s-17.652-7.903-17.652-17.652 7.903-17.652 17.652-17.652 17.652 7.903 17.652 17.652z" fill="#3b3b44"/><circle cx="220.752" cy="379.219" fill="#fff" r="29.618"/><g fill="#3b3b44"><path d="m250.307 379.219c0 9.749-7.903 17.652-17.652 17.652s-17.652-7.903-17.652-17.652 7.903-17.652 17.652-17.652 17.652 7.903 17.652 17.652z"/><ellipse cx="158.473" cy="401.671" rx="13.252" ry="17.352"/></g></g><path d="m392.205 366.746c-6.834 6.834-6.834 17.915 0 24.749l83.139 83.139c.001.002.002.004.003.005 8.382-8.473 15.13-18.563 19.74-29.76l-78.134-78.133c-6.834-6.834-17.914-6.834-24.748 0z" fill="#04b048"/><g fill="#e3fcff"><path d="m155.483 45h-37.356c-5.522 0-10-4.477-10-10s4.478-10 10-10h37.356c5.523 0 10 4.477 10 10s-4.477 10-10 10z"/><path d="m69.314 49.791c-3.85 0-7.519-2.236-9.164-5.988-2.217-5.058.086-10.956 5.145-13.173 3.41-1.495 6.97-2.711 10.579-3.615 5.354-1.344 10.788 1.913 12.13 7.27s-1.913 10.788-7.271 12.13c-2.527.633-5.021 1.485-7.409 2.532-1.306.573-2.669.844-4.01.844z"/></g></g></svg>