<svg id="Capa_1" enable-background="new 0 0 502 502" height="512" viewBox="0 0 502 502" width="512" xmlns="http://www.w3.org/2000/svg" xmlns:xlink="http://www.w3.org/1999/xlink"><linearGradient id="lg1"><stop offset="0" stop-color="#d4dbdb"/><stop offset="1" stop-color="#f3f3f3"/></linearGradient><linearGradient id="SVGID_1_" gradientUnits="userSpaceOnUse" x1="340.044" x2="496.658" xlink:href="#lg1" y1="236.228" y2="236.228"/><linearGradient id="SVGID_2_" gradientUnits="userSpaceOnUse" x1="232.64" x2="232.64" y1="385.633" y2="64.39"><stop offset="0" stop-color="#ea7d32"/><stop offset="1" stop-color="#f0b160"/></linearGradient><linearGradient id="SVGID_3_" gradientUnits="userSpaceOnUse" x1="117.251" x2="371.064" y1="223.644" y2="223.644"><stop offset="0" stop-color="#f4d952"/><stop offset="1" stop-color="#f9edaf"/></linearGradient><linearGradient id="SVGID_4_" gradientUnits="userSpaceOnUse" x1="166.621" x2="166.621" xlink:href="#lg1" y1="463.918" y2="236.245"/><g><path d="m433.986 334.279c37.563 0 68.014-30.451 68.014-68.014 0-33.8-24.66-61.828-56.967-67.107-3.52-34.259-32.465-60.982-67.653-60.982-37.563 0-68.014 30.451-68.014 68.014v128.089z" fill="url(#SVGID_1_)"/><path d="m389.281 247.058c-10.864 8.951-23.952 16.912-36.499 21.322-3.506 1.232-5.163 5.234-3.556 8.585 7.941 16.549 11.828 38.611 11.281 56.284-.011.348-.053.688-.082 1.031h35.066c.454-14.834-1.363-30.567-5.062-45.276 7.402-4.427 14.608-9.518 21.317-15.075 8.077-6.689 8.368-18.989.727-26.171-6.445-6.059-16.365-6.324-23.192-.7z" fill="#c2c8cf"/><path d="m349.228 276.968c7.94 16.549 11.827 38.609 11.279 56.28-.309 9.973-8.291 17.954-18.264 18.264-17.672.548-39.731-3.339-56.28-11.279-3.35-1.608-7.357.052-8.589 3.558-6.087 17.317-18.938 35.663-31.821 47.772-7.271 6.833-18.558 6.833-25.829 0-12.883-12.108-25.733-30.455-31.821-47.772-1.232-3.506-5.239-5.165-8.589-3.558-16.549 7.94-38.609 11.827-56.28 11.279-9.973-.309-17.954-8.291-18.264-18.264-.548-17.672 3.339-39.731 11.279-56.28 1.608-3.351-.052-7.357-3.558-8.589-17.316-6.087-35.663-18.938-47.772-31.821-6.833-7.27-6.833-18.558 0-25.829 12.108-12.883 30.455-25.733 47.772-31.821 3.506-1.232 5.166-5.239 3.558-8.589-7.94-16.549-11.827-38.609-11.279-56.28.309-9.973 8.291-17.955 18.264-18.264 17.671-.548 39.731 3.339 56.28 11.279 3.35 1.608 7.357-.052 8.589-3.558 6.087-17.316 18.938-35.663 31.821-47.772 7.271-6.833 18.558-6.833 25.829 0 12.883 12.108 25.733 30.455 31.821 47.772 1.232 3.506 5.239 5.165 8.589 3.558 16.549-7.94 38.609-11.827 56.28-11.279 9.973.309 17.954 8.291 18.264 18.264.548 17.672-3.339 39.731-11.279 56.28-1.608 3.351.052 7.357 3.558 8.589 17.317 6.087 35.663 18.938 47.772 31.821 6.833 7.27 6.833 18.558 0 25.829-12.108 12.883-30.455 25.733-47.772 31.821-3.506 1.232-5.165 5.238-3.558 8.589z" fill="url(#SVGID_2_)"/><circle cx="232.64" cy="223.644" fill="url(#SVGID_3_)" r="100.602"/><path d="m263.525 451.4c37.57 0 69.43-30.726 69.715-68.295.212-27.958-16.249-52.091-40.032-63.06-2.827-1.304-5.013-3.657-6.199-6.535-12.26-29.735-46.238-43.677-75.501-32.282-4.528 1.763-9.721.237-12.455-3.78-14.678-21.565-39.42-35.729-67.473-35.729-40.779 0-74.563 29.926-80.602 69.013-.516 3.341-2.831 6.091-6.002 7.263-26.203 9.68-44.9 34.848-44.976 64.396-.098 38.237 31.538 69.009 69.775 69.009z" fill="url(#SVGID_4_)"/><g><ellipse cx="78.735" cy="381.558" fill="#eaadcd" rx="14.936" ry="12.003"/><ellipse cx="254.506" cy="381.558" fill="#eaadcd" rx="14.936" ry="12.003"/><circle cx="104.342" cy="351.94" fill="#fff" r="29.618"/><circle cx="228.9" cy="351.94" fill="#fff" r="29.618"/><path d="m114.126 362.371c-2.647 0-5.213-1.404-6.579-3.888-.94-1.71-2.554-1.895-3.205-1.895-.65 0-2.264.185-3.204 1.895-1.996 3.629-6.555 4.956-10.185 2.96-3.63-1.995-4.955-6.556-2.959-10.185 3.278-5.964 9.542-9.669 16.348-9.669s13.07 3.705 16.349 9.668c1.996 3.63.671 8.19-2.959 10.186-1.146.629-2.385.928-3.606.928z" fill="#3b3b44"/><path d="m219.116 362.371c-1.222 0-2.46-.299-3.606-.929-3.63-1.996-4.955-6.556-2.959-10.186 3.279-5.963 9.543-9.668 16.349-9.668h.001c6.806 0 13.07 3.705 16.348 9.669 1.996 3.629.671 8.19-2.959 10.185-3.628 1.995-8.191.671-10.185-2.96-.94-1.71-2.554-1.895-3.204-1.895s-2.264.185-3.205 1.895c-1.366 2.484-3.933 3.889-6.58 3.889z" fill="#3b3b44"/><g><path d="m178.292 391.745h-23.342c-6.508 0-11.784-5.276-11.784-11.784 0-6.508 5.276-11.784 11.784-11.784h23.342c6.508 0 11.784 5.276 11.784 11.784 0 6.508-5.276 11.784-11.784 11.784z" fill="#3b3b44"/></g></g><g fill="#fffde3"><path d="m214.768 165.354c-4.436 0-8.488-2.974-9.666-7.466-1.401-5.342 1.794-10.809 7.136-12.21 2.521-.661 5.096-1.205 7.655-1.617 5.452-.883 10.584 2.83 11.463 8.282.878 5.453-2.829 10.585-8.282 11.463-1.925.31-3.864.72-5.763 1.218-.85.224-1.703.33-2.543.33z"/><path d="m166.117 209.985c-1.115 0-2.249-.189-3.36-.585-5.202-1.857-7.913-7.578-6.058-12.779 3.57-10.003 9.013-19.09 16.179-27.01 3.706-4.095 10.029-4.411 14.124-.705 4.095 3.705 4.411 10.029.706 14.124-5.395 5.962-9.49 12.796-12.172 20.313-1.46 4.091-5.311 6.642-9.419 6.642z"/></g></g></svg>