<svg id="Capa_1" enable-background="new 0 0 502 502" height="512" viewBox="0 0 502 502" width="512" xmlns="http://www.w3.org/2000/svg" xmlns:xlink="http://www.w3.org/1999/xlink"><linearGradient id="lg1"><stop offset="0" stop-color="#4e5660"/><stop offset="1" stop-color="#64768d"/></linearGradient><linearGradient id="SVGID_1_" gradientUnits="userSpaceOnUse" x1="-28.799" x2="437.671" xlink:href="#lg1" y1="251" y2="251"/><linearGradient id="SVGID_2_" gradientUnits="userSpaceOnUse" x1="251" x2="251" y1="497.49" y2="142.76"><stop offset="0" stop-color="#d4dbdb"/><stop offset="1" stop-color="#f3f3f3"/></linearGradient><linearGradient id="SVGID_3_" gradientUnits="userSpaceOnUse" x1="259.692" x2="165.789" xlink:href="#lg1" y1="284.461" y2="284.461"/><linearGradient id="SVGID_4_" gradientUnits="userSpaceOnUse" x1="222.34" x2="316.165" y1="268.566" y2="268.566"><stop offset="0" stop-color="#ec6f80"/><stop offset="1" stop-color="#eca0aa"/></linearGradient><g><circle cx="251" cy="251" fill="url(#SVGID_1_)" r="251"/><path d="m86.353 415.647c-7.181 7.181-6.783 18.973.911 25.6 39.504 34.03 89.722 55.965 144.907 60.057 10.159.753 18.828-7.269 18.828-17.456 0-9.168-7.077-16.77-16.22-17.444-46.216-3.408-89.537-21.353-124.626-51.623-6.94-5.987-17.318-5.616-23.8.866z" fill="#424e5e"/><circle cx="251" cy="251" fill="url(#SVGID_2_)" r="178.889"/><path d="m302.972 324.469c-1.926-6.663-8.154-11.336-15.076-10.893-7.614.487-15.391-2.179-21.21-7.998l-35.132-35.132c-6.889-6.889-9.355-16.521-7.404-25.377 1.417-6.431-1.305-13.056-6.979-16.398-8.822-5.196-20.064-.208-22.293 9.785-4.14 18.555 1.011 38.754 15.463 53.204l35.132 35.132c12.146 12.145 28.348 17.721 44.222 16.737 9.483-.59 15.916-9.933 13.277-19.06z" fill="#c2c8cf"/><path d="m270.445 270.445-58.868 58.868c-10.74 10.74-28.151 10.74-38.891 0-10.74-10.739-10.74-28.151 0-38.891l58.868-58.868z" fill="url(#SVGID_3_)"/><path d="m210.341 291.659 19.445 19.445 21.214-21.213-19.445-19.445c-6.889-6.889-9.355-16.521-7.404-25.377.461-2.091.477-4.2.103-6.213l-28.406 28.406c2.624 8.926 7.444 17.347 14.493 24.397z" fill="#424e5e"/><path d="m266.686 305.577-35.132-35.132c-10.74-10.739-10.74-28.151 0-38.891 10.739-10.739 28.151-10.739 38.891 0l35.132 35.132c10.74 10.739 10.74 28.151 0 38.891s-28.151 10.74-38.891 0z" fill="url(#SVGID_4_)"/><g><ellipse cx="163.184" cy="185.155" fill="#eaadcd" rx="14.925" ry="11.994"/><ellipse cx="338.816" cy="185.155" fill="#eaadcd" rx="14.924" ry="11.994"/><ellipse cx="313.229" cy="155.598" fill="#fff" rx="29.557" ry="29.557" transform="matrix(.162 -.987 .987 .162 109.038 439.551)"/><path d="m295.658 157.046c.755 9.046 8.331 16.153 17.572 16.153s16.817-7.108 17.572-16.153z" fill="#3b3b44"/><path d="m313.229 126.042c-16.324 0-29.557 13.233-29.557 29.557 0 .486.014.968.037 1.447h59.04c.023-.48.037-.962.037-1.447 0-16.324-13.233-29.557-29.557-29.557z" fill="#997bce"/><ellipse cx="188.771" cy="155.598" fill="#fff" rx="29.557" ry="29.557" transform="matrix(.162 -.987 .987 .162 4.701 316.73)"/><path d="m171.199 157.046c.755 9.046 8.331 16.153 17.572 16.153s16.817-7.108 17.572-16.153z" fill="#3b3b44"/><path d="m188.771 126.042c-16.324 0-29.557 13.233-29.557 29.557 0 .486.014.968.037 1.447h59.04c.023-.48.037-.962.037-1.447 0-16.324-13.234-29.557-29.557-29.557z" fill="#997bce"/><path d="m262.365 188.604c-1.825 0-3.654-.662-5.097-2-3.749-3.477-8.787-3.477-12.536 0-3.038 2.816-7.783 2.636-10.599-.401s-2.637-7.783.401-10.599c9.541-8.846 23.392-8.846 32.933 0 3.038 2.816 3.217 7.562.401 10.599-1.479 1.593-3.488 2.401-5.503 2.401z" fill="#3b3b44"/></g><g fill="#c2c8cf"><circle cx="396.652" cy="251" r="12.812"/><ellipse cx="251" cy="105.348" rx="12.812" ry="12.812" transform="matrix(.999 -.034 .034 .999 -3.407 8.517)"/><circle cx="105.348" cy="251" r="12.812"/><ellipse cx="251" cy="396.652" rx="12.812" ry="12.812" transform="matrix(.039 -.999 .999 .039 -155.123 632.019)"/></g><g fill="#8196ab"><path d="m417.709 119.825c-3.242 0-6.464-1.363-8.739-4.018-8.126-9.486-17.158-18.292-26.845-26.173-4.927-4.009-5.671-11.252-1.663-16.178 4.009-4.927 11.252-5.67 16.178-1.663 10.752 8.748 20.776 18.521 29.796 29.05 4.132 4.823 3.572 12.083-1.251 16.215-2.167 1.857-4.828 2.767-7.476 2.767z"/><path d="m352.797 68.097c-1.801 0-3.628-.424-5.333-1.319-4.33-2.272-8.79-4.414-13.256-6.368-5.819-2.545-8.473-9.326-5.928-15.145 2.544-5.82 9.326-8.474 15.145-5.928 4.962 2.17 9.916 4.55 14.725 7.073 5.625 2.951 7.792 9.902 4.841 15.526-2.057 3.92-6.056 6.161-10.194 6.161z"/></g></g></svg>