<svg id="Capa_1" enable-background="new 0 0 502 502" height="512" viewBox="0 0 502 502" width="512" xmlns="http://www.w3.org/2000/svg" xmlns:xlink="http://www.w3.org/1999/xlink"><linearGradient id="SVGID_1_" gradientUnits="userSpaceOnUse" x1="251" x2="251" y1="504.026" y2="-11.653"><stop offset="0" stop-color="#4e5660"/><stop offset="1" stop-color="#64768d"/></linearGradient><linearGradient id="SVGID_2_" gradientUnits="userSpaceOnUse" x1="223.774" x2="223.774" y1="439.914" y2="167.443"><stop offset="0" stop-color="#7ed99e"/><stop offset=".2532" stop-color="#81daa3"/><stop offset=".5725" stop-color="#88ddb3"/><stop offset=".9261" stop-color="#95e2cd"/><stop offset="1" stop-color="#98e3d3"/></linearGradient><linearGradient id="SVGID_3_" gradientUnits="userSpaceOnUse" x1="247.102" x2="247.102" y1="212.545" y2="14.494"><stop offset="0" stop-color="#6ac65e"/><stop offset="1" stop-color="#afd986"/></linearGradient><linearGradient id="SVGID_4_" gradientUnits="userSpaceOnUse" x1="346.066" x2="346.066" y1="385.432" y2="80.271"><stop offset="0" stop-color="#53aae6"/><stop offset="1" stop-color="#a4d2f0"/></linearGradient><linearGradient id="SVGID_5_" gradientUnits="userSpaceOnUse" x1="251" x2="251" y1="454.489" y2="83.538"><stop offset="0" stop-color="#d4dbdb"/><stop offset="1" stop-color="#f3f3f3"/></linearGradient><g><path d="m401.701 502h-301.402c-55.394 0-100.299-44.905-100.299-100.299v-301.402c0-55.394 44.905-100.299 100.299-100.299h301.402c55.394 0 100.299 44.905 100.299 100.299v301.402c0 55.394-44.905 100.299-100.299 100.299z" fill="url(#SVGID_1_)"/><path d="m108.772 116.568h-48.772v280.517c0 24.806 20.109 44.915 44.915 44.915h280.517l2.116-46.656z" fill="url(#SVGID_2_)"/><path d="m60 116.568v168.772c0 9.665 7.835 17.5 17.5 17.5 9.665 0 17.5-7.835 17.5-17.5v-84.274l240.935 240.934h49.497z" fill="#24bd7f"/><path d="m385.431 60v45.348l-135.77 135.77-140.889-140.889 7.796-40.229z" fill="url(#SVGID_3_)"/><path d="m250.131 251.7 135.132-135.132h56.737v268.864h-56.737z" fill="url(#SVGID_4_)"/><path d="m307.568 251 134.432-134.432v-11.653c0-24.806-20.109-44.915-44.915-44.915h-11.654l-134.431 134.432-134.432-134.432h-11.654c-24.805 0-44.914 20.109-44.914 44.915v11.654l325.432 325.431h11.654c24.805 0 44.914-20.109 44.914-44.915v-11.654z" fill="url(#SVGID_5_)"/><g><path d="m107.851 397.461c0 6.629-6.687 12.003-14.937 12.003-8.249 0-14.936-5.374-14.936-12.003s6.687-12.003 14.936-12.003c8.25-.001 14.937 5.373 14.937 12.003z" fill="#efc5db"/><path d="m283.622 397.461c0 6.629-6.687 12.003-14.936 12.003s-14.936-5.374-14.936-12.003 6.687-12.003 14.936-12.003 14.936 5.373 14.936 12.003z" fill="#efc5db"/><circle cx="118.521" cy="367.843" fill="#fff" r="29.618"/><path d="m148.139 367.843c0 9.749-7.903 17.652-17.652 17.652s-17.652-7.903-17.652-17.652 7.903-17.652 17.652-17.652c9.749-.001 17.652 7.903 17.652 17.652z" fill="#3b3b44"/><circle cx="243.079" cy="367.843" fill="#fff" r="29.618"/><g fill="#3b3b44"><path d="m272.635 367.843c0 9.749-7.903 17.652-17.652 17.652s-17.652-7.903-17.652-17.652 7.903-17.652 17.652-17.652c9.748-.001 17.652 7.903 17.652 17.652z"/><ellipse cx="180.8" cy="390.295" rx="13.252" ry="17.352"/></g></g><g fill="#8196ab"><path d="m472 171.623c-6.352 0-11.5-5.149-11.5-11.5v-46.513c0-6.351 5.148-11.5 11.5-11.5s11.5 5.149 11.5 11.5v46.513c0 6.351-5.148 11.5-11.5 11.5z"/><path d="m465.377 82.049c-4.321 0-8.462-2.447-10.419-6.618-1.339-2.854-2.923-5.623-4.707-8.231-3.586-5.242-2.244-12.399 2.998-15.985 5.243-3.587 12.399-2.244 15.984 2.997 2.481 3.627 4.684 7.479 6.547 11.449 2.697 5.749.224 12.598-5.526 15.296-1.579.741-3.241 1.092-4.877 1.092z"/></g></g></svg>