<svg id="Capa_1" enable-background="new 0 0 502 502" height="512" viewBox="0 0 502 502" width="512" xmlns="http://www.w3.org/2000/svg" xmlns:xlink="http://www.w3.org/1999/xlink"><linearGradient id="SVGID_1_" gradientUnits="userSpaceOnUse" x1="251" x2="251" y1="116.795" y2="2.372"><stop offset="0" stop-color="#74d2e8"/><stop offset="1" stop-color="#baeaf5"/></linearGradient><linearGradient id="lg1"><stop offset="0" stop-color="#4e5660"/><stop offset="1" stop-color="#64768d"/></linearGradient><linearGradient id="SVGID_2_" gradientUnits="userSpaceOnUse" x1="-44.713" x2="470.376" xlink:href="#lg1" y1="306.593" y2="306.593"/><linearGradient id="lg2"><stop offset="0" stop-color="#d4dbdb"/><stop offset="1" stop-color="#f3f3f3"/></linearGradient><linearGradient id="SVGID_3_" gradientUnits="userSpaceOnUse" x1="126.582" x2="126.582" xlink:href="#lg2" y1="453.269" y2="360.809"/><linearGradient id="SVGID_4_" gradientUnits="userSpaceOnUse" x1="209.527" x2="209.527" y1="385.847" y2="181.751"><stop offset="0" stop-color="#f4d952"/><stop offset="1" stop-color="#f9edaf"/></linearGradient><linearGradient id="SVGID_5_" gradientUnits="userSpaceOnUse" x1="126.582" x2="126.582" y1="385.847" y2="181.751"><stop offset="0" stop-color="#ec6f80"/><stop offset="1" stop-color="#eca0aa"/></linearGradient><linearGradient id="SVGID_6_" gradientUnits="userSpaceOnUse" x1="375.418" x2="375.418" xlink:href="#lg1" y1="448.537" y2="361.959"/><linearGradient id="SVGID_7_" gradientUnits="userSpaceOnUse" x1="292.473" x2="292.473" y1="385.847" y2="181.751"><stop offset="0" stop-color="#7ed99e"/><stop offset=".2532" stop-color="#81daa3"/><stop offset=".5725" stop-color="#88ddb3"/><stop offset=".9261" stop-color="#95e2cd"/><stop offset="1" stop-color="#98e3d3"/></linearGradient><linearGradient id="SVGID_8_" gradientUnits="userSpaceOnUse" x1="375.418" x2="375.418" y1="385.847" y2="181.751"><stop offset="0" stop-color="#53aae6"/><stop offset="1" stop-color="#a4d2f0"/></linearGradient><linearGradient id="SVGID_9_" gradientUnits="userSpaceOnUse" x1="209.527" x2="209.527" xlink:href="#lg1" y1="448.537" y2="361.959"/><linearGradient id="SVGID_10_" gradientUnits="userSpaceOnUse" x1="292.473" x2="292.473" xlink:href="#lg2" y1="453.269" y2="360.809"/><g><path d="m251 138.366c-6.957 0-13.912-2.654-19.22-7.961l-84.005-84.004c-10.614-10.615-10.614-27.825 0-38.44 10.616-10.614 27.825-10.614 38.44 0l64.785 64.784 64.784-64.784c10.614-10.613 27.826-10.614 38.44 0 10.614 10.615 10.614 27.825 0 38.44l-84.004 84.004c-5.308 5.307-12.263 7.961-19.22 7.961z" fill="url(#SVGID_1_)"/><path d="m30.747 418.562v-223.939c0-46.081 37.356-83.438 83.438-83.438h273.63c46.081 0 83.438 37.357 83.438 83.438v223.939c0 46.081-37.356 83.438-83.438 83.438h-273.63c-46.082 0-83.438-37.356-83.438-83.438z" fill="url(#SVGID_2_)"/><path d="m85.11 363.288h82.945v84.35h-53.541c-16.24 0-29.404-13.165-29.404-29.404z" fill="url(#SVGID_3_)"/><path d="m85.11 363.288h82.945v30h-82.945z" fill="#c2c8cf"/><path d="m168.055 165.547h82.945v197.741h-82.945z" fill="url(#SVGID_4_)"/><path d="m85.11 363.288h82.945v-197.741h-53.541c-16.24 0-29.404 13.165-29.404 29.404z" fill="url(#SVGID_5_)"/><path d="m416.89 363.288h-82.945v84.35h53.541c16.24 0 29.404-13.165 29.404-29.404z" fill="url(#SVGID_6_)"/><path d="m333.945 363.288h-82.945v-197.741h82.945z" fill="url(#SVGID_7_)"/><path d="m416.89 363.288h-82.945v-197.741h53.541c16.24 0 29.404 13.165 29.404 29.404z" fill="url(#SVGID_8_)"/><path d="m251 447.638h-82.945v-84.35h82.945z" fill="url(#SVGID_9_)"/><path d="m168.055 363.288h82.945v30h-82.945z" fill="#424e5e"/><path d="m333.945 447.638h-82.945v-84.35h82.945z" fill="url(#SVGID_10_)"/><path d="m333.945 447.638h-82.945v-84.35h82.945z" fill="url(#SVGID_10_)"/><path d="m266.699 393.288h-15.699v-30h15.699c8.284 0 15 6.716 15 15 0 8.284-6.716 15-15 15z" fill="#c2c8cf"/><g><path d="m178.051 274.616c0 6.629-6.687 12.003-14.937 12.003-8.249 0-14.936-5.374-14.936-12.003s6.687-12.004 14.936-12.004c8.25 0 14.937 5.375 14.937 12.004z" fill="#efc5db"/><path d="m353.822 274.616c0 6.629-6.687 12.003-14.936 12.003s-14.936-5.374-14.936-12.003 6.687-12.004 14.936-12.004 14.936 5.375 14.936 12.004z" fill="#efc5db"/><circle cx="188.721" cy="244.998" fill="#fff" r="29.618"/><ellipse cx="176.756" cy="244.998" fill="#3b3b44" rx="17.652" ry="17.652" transform="matrix(.707 -.707 .707 .707 -121.469 196.744)"/><circle cx="313.279" cy="244.998" fill="#fff" r="29.618"/><g fill="#3b3b44"><ellipse cx="301.313" cy="244.998" rx="17.652" ry="17.652" transform="matrix(.924 -.383 .383 .924 -70.821 133.957)"/><path d="m258.59 252.192h-15.18c-3.007 0-5.658 1.976-6.506 4.862-2.672 9.09-5.742 27.748 14.097 27.748 19.838 0 16.769-18.659 14.096-27.748-.849-2.885-3.499-4.862-6.507-4.862z"/></g></g><g fill="#bdebff"><path d="m386.891 281.613c-5.522 0-10-4.477-10-10v-8.344c0-5.523 4.478-10 10-10s10 4.477 10 10v8.344c0 5.523-4.478 10-10 10z"/><path d="m386.891 231.462c-5.522 0-10-4.477-10-10v-25.915c0-5.523 4.478-10 10-10s10 4.477 10 10v25.915c0 5.523-4.478 10-10 10z"/></g></g></svg>