<svg id="Capa_1" enable-background="new 0 0 502 502" height="512" viewBox="0 0 502 502" width="512" xmlns="http://www.w3.org/2000/svg" xmlns:xlink="http://www.w3.org/1999/xlink"><linearGradient id="SVGID_1_" gradientUnits="userSpaceOnUse" x1="227.466" x2="227.466" y1="179.658" y2="12.426"><stop offset="0" stop-color="#7ed99e"/><stop offset=".2532" stop-color="#81daa3"/><stop offset=".5725" stop-color="#88ddb3"/><stop offset=".9261" stop-color="#95e2cd"/><stop offset="1" stop-color="#98e3d3"/></linearGradient><linearGradient id="SVGID_2_" gradientUnits="userSpaceOnUse" x1="227.466" x2="227.466" y1="553.309" y2="218.927"><stop offset="0" stop-color="#f4d952"/><stop offset="1" stop-color="#f9edaf"/></linearGradient><linearGradient id="SVGID_3_" gradientUnits="userSpaceOnUse" x1="423.064" x2="173.479" y1="263.814" y2="263.814"><stop offset="0" stop-color="#53aae6"/><stop offset="1" stop-color="#a4d2f0"/></linearGradient><linearGradient id="SVGID_4_" gradientUnits="userSpaceOnUse" x1="212.364" x2="212.364" y1="411.73" y2="315.828"><stop offset="0" stop-color="#f9edaf"/><stop offset="1" stop-color="#fffcdd"/></linearGradient><linearGradient id="lg1"><stop offset="0" stop-color="#4e5660"/><stop offset="1" stop-color="#64768d"/></linearGradient><linearGradient id="SVGID_5_" gradientUnits="userSpaceOnUse" x1="173.271" x2="173.271" xlink:href="#lg1" y1="421.694" y2="372.415"/><linearGradient id="SVGID_6_" gradientUnits="userSpaceOnUse" x1="429.864" x2="429.864" y1="225.69" y2="108.606"><stop offset="0" stop-color="#ec6f80"/><stop offset="1" stop-color="#eca0aa"/></linearGradient><linearGradient id="SVGID_7_" gradientUnits="userSpaceOnUse" x1="388.16" x2="388.16" xlink:href="#lg1" y1="243.15" y2="144.999"/><g><path d="m454.933 175.704h-454.933v-71.704c0-46.074 37.351-83.425 83.425-83.425h288.083c46.074 0 83.425 37.351 83.425 83.425z" fill="url(#SVGID_1_)"/><g><ellipse cx="139.581" cy="129.316" fill="#efc5db" rx="14.936" ry="12.003"/><ellipse cx="315.352" cy="129.316" fill="#efc5db" rx="14.936" ry="12.003"/><circle cx="165.188" cy="99.698" fill="#fff" r="29.618"/><circle cx="289.745" cy="99.698" fill="#fff" r="29.618"/><g fill="#3b3b44"><g><circle cx="165.188" cy="99.698" r="17.652"/><circle cx="289.745" cy="99.698" r="17.652"/></g><path d="m227.467 130.258c-5.248 0-10.495-1.984-14.776-5.954-2.025-1.877-2.145-5.041-.268-7.066 1.878-2.025 5.043-2.145 7.066-.267 4.699 4.356 11.259 4.354 15.954 0 2.024-1.876 5.188-1.758 7.066.267 1.877 2.025 1.758 5.188-.268 7.066-4.28 3.969-9.527 5.954-14.774 5.954z"/></g></g><path d="m454.933 175.704h-454.933v222.296c0 46.074 37.351 83.425 83.425 83.425h288.083c46.074 0 83.425-37.351 83.425-83.425z" fill="url(#SVGID_2_)"/><path d="m0 304.721h454.933v23h-454.933z" fill="#efc534"/><path d="m174.952 282.791c9.93 20.849 27.828 48.973 40.849 61.994s41.145 30.919 61.994 40.849c2.41-2.003 4.741-4.109 6.969-6.336l133.828-133.828-103.476-103.476-133.828 133.828c-2.227 2.227-4.333 4.559-6.336 6.969z" fill="url(#SVGID_3_)"/><path d="m237.439 323.146c-13.021-13.021-35.922-32.284-62.487-40.355-10.191 12.261-17.423 26.757-21.042 42.372l-6.976 30.098c5.786 16.57 11.284 25.928 21.874 36.518s19.947 16.087 36.517 21.874l30.098-6.977c15.616-3.62 30.112-10.851 42.373-21.042-8.073-26.566-27.336-49.467-40.357-62.488z" fill="url(#SVGID_4_)"/><path d="m183.444 377.141c-10.59-10.59-23.689-17.765-36.511-21.88l-4.773 20.592c-5.927 25.57 17.003 48.499 42.573 42.573l20.591-4.773c-4.115-12.823-11.291-25.922-21.88-36.512z" fill="url(#SVGID_5_)"/><path d="m440.324 69.503 50.758 50.758c14.557 14.557 14.557 38.159 0 52.717l-29.879 29.879-103.475-103.475 29.879-29.879c14.557-14.557 38.159-14.557 52.717 0z" fill="url(#SVGID_6_)"/><path d="m357.728 99.382 103.475 103.476-42.611 42.611-103.476-103.475z" fill="url(#SVGID_7_)"/><path d="m126.273 372.17c-13.688-3.173-26.285 8.385-24.329 22.3 1.841 13.1 7.147 25.611 15.64 36.299 14.442 18.174 35.941 28.599 58.986 28.6h.006c14.259 0 19.611-3.063 67.878-13.727 26-6.026 49.72-19.188 68.594-38.061l141.885-141.885v-56.568l-36.341 36.341-133.829 133.828c-13.346 13.346-30.453 23-49.341 27.379l-50.689 11.75c-21.138 4.9-40.472-9.921-43.19-29.652-1.125-8.161-7.245-14.744-15.27-16.604z" fill="#efc534"/><g fill="#a7f2d2"><path d="m116.829 60.575h-28.83c-5.522 0-10-4.477-10-10s4.478-10 10-10h28.83c5.522 0 10 4.477 10 10s-4.477 10-10 10z"/><path d="m43.244 78.83c-2.34 0-4.69-.816-6.588-2.48-4.153-3.641-4.568-9.958-.928-14.111 2.328-2.656 4.897-5.137 7.637-7.375 4.278-3.495 10.576-2.859 14.071 1.418 3.493 4.277 2.858 10.577-1.419 14.071-1.884 1.539-3.65 3.244-5.25 5.069-1.976 2.255-4.743 3.408-7.523 3.408z"/></g></g></svg>