<svg id="Capa_1" enable-background="new 0 0 502 502" height="512" viewBox="0 0 502 502" width="512" xmlns="http://www.w3.org/2000/svg" xmlns:xlink="http://www.w3.org/1999/xlink"><linearGradient id="SVGID_1_" gradientUnits="userSpaceOnUse" x1="370.058" x2="370.058" y1="247.546" y2="24.247"><stop offset="0" stop-color="#f4c22c"/><stop offset="1" stop-color="#f9e198"/></linearGradient><linearGradient id="SVGID_2_" gradientUnits="userSpaceOnUse" x1="251" x2="251" y1="162.847" y2="506.674"><stop offset="0" stop-color="#f4d952"/><stop offset="1" stop-color="#f9edaf"/></linearGradient><linearGradient id="SVGID_3_" gradientUnits="userSpaceOnUse" x1="29.915" x2="506.845" y1="213.533" y2="213.533"><stop offset="0" stop-color="#ec6f80"/><stop offset="1" stop-color="#eca0aa"/></linearGradient><linearGradient id="SVGID_4_" gradientUnits="userSpaceOnUse" x1="251" x2="251" y1="331.602" y2="474.295"><stop offset="0" stop-color="#ea7d32"/><stop offset="1" stop-color="#f0b160"/></linearGradient><g><path d="m310.325 232.447h119.466v-172.504c0-19.932-16.158-36.089-36.089-36.089h-47.288c-19.932 0-36.089 16.158-36.089 36.089z" fill="url(#SVGID_1_)"/><path d="m429.791 270.132-135.501-136.06c-23.88-23.978-62.701-23.978-86.581 0l-135.5 136.06v150.924c0 31.53 25.56 57.09 57.09 57.09h243.403c31.53 0 57.09-25.56 57.09-57.09v-150.924z" fill="url(#SVGID_2_)"/><path d="m441.82 331.278-164.429-164.429c-14.552-14.552-38.229-14.552-52.781 0l-164.43 164.429c-13.767 13.767-36.088 13.767-49.855 0-13.767-13.767-13.767-36.088 0-49.855l164.429-164.429c42.043-42.042 110.449-42.042 152.492 0l164.429 164.429c13.766 13.767 13.766 36.088 0 49.855-13.766 13.766-36.088 13.767-49.855 0z" fill="url(#SVGID_3_)"/><path d="m370.204 259.662-92.813-92.813c-14.575-14.575-38.206-14.575-52.781 0l-152.401 152.4v46.858c4.558-2.831 8.831-6.192 12.72-10.081l164.43-164.43c.164-.164.663-.662 1.642-.662s1.478.498 1.642.663l92.813 92.813c6.834 6.834 17.915 6.834 24.749 0 6.833-6.834 6.833-17.914-.001-24.748z" fill="#efc534"/><path d="m285.236 339.335h-68.472c-16.695 0-30.229 13.534-30.229 30.229v108.582h128.93v-108.582c0-16.695-13.534-30.229-30.229-30.229z" fill="url(#SVGID_4_)"/><circle cx="279.574" cy="408.74" fill="#424e5e" r="12.812"/><g><ellipse cx="163.114" cy="304.537" fill="#eaadcd" rx="14.936" ry="12.003"/><ellipse cx="338.885" cy="304.537" fill="#eaadcd" rx="14.936" ry="12.003"/><path d="m188.721 278.885c7.183 0 13.813 1.589 19.159 4.273 4.544 2.281 9.962-.801 10.365-5.87.113-1.423.125-2.875.029-4.348-.991-15.146-13.602-27.24-28.775-27.629-16.713-.428-30.396 12.992-30.396 29.608 0 .843.036 1.678.105 2.503.422 5.01 5.856 7.995 10.349 5.738 5.348-2.685 11.979-4.275 19.164-4.275z" fill="#fff"/><path d="m251 314.723c-6.447 0-12.894-2.155-18.274-6.465-4.989-3.997-5.794-11.282-1.797-16.271 3.997-4.99 11.282-5.793 16.271-1.797 2.237 1.792 5.361 1.792 7.598 0 4.988-3.997 12.273-3.193 16.271 1.797 3.997 4.989 3.193 12.274-1.797 16.271-5.378 4.31-11.825 6.465-18.272 6.465z" fill="#3b3b44"/><path d="m188.721 278.885c5.926 0 11.474 1.082 16.237 2.967.911-2.129 1.415-4.47 1.415-6.933 0-9.749-7.903-17.652-17.652-17.652s-17.652 7.903-17.652 17.652c0 2.463.504 4.803 1.415 6.933 4.764-1.885 10.312-2.967 16.237-2.967z" fill="#3b3b44"/><path d="m313.279 278.885c7.183 0 13.813 1.589 19.158 4.273 4.544 2.281 9.962-.801 10.365-5.87.113-1.423.125-2.875.029-4.348-.991-15.146-13.602-27.24-28.775-27.629-16.713-.428-30.396 12.992-30.396 29.608 0 .843.035 1.678.105 2.503.422 5.01 5.857 7.995 10.349 5.738 5.348-2.685 11.98-4.275 19.165-4.275z" fill="#fff"/><path d="m313.279 278.885c5.926 0 11.473 1.082 16.237 2.967.911-2.129 1.415-4.47 1.415-6.933 0-9.749-7.903-17.652-17.652-17.652s-17.652 7.903-17.652 17.652c0 2.463.504 4.803 1.415 6.933 4.763-1.885 10.311-2.967 16.237-2.967z" fill="#3b3b44"/></g><g fill="#fffde3"><path d="m385.517 454.925c-3.56 0-7.005-1.905-8.813-5.259-2.62-4.862-.801-10.927 4.061-13.547 1.715-.924 3.254-2.127 4.573-3.576 3.718-4.084 10.042-4.381 14.126-.665 4.084 3.718 4.382 10.042.665 14.126-2.844 3.125-6.167 5.723-9.877 7.722-1.509.813-3.134 1.199-4.735 1.199z"/><path d="m399.791 409.735c-5.523 0-10-4.477-10-10v-29.459c0-5.523 4.477-10 10-10s10 4.477 10 10v29.459c0 5.523-4.477 10-10 10z"/></g><path d="m397.57 162.569c6.834-6.834 6.834-17.915 0-24.749l-45.575-45.575c-12.251-12.251-26.351-21.989-41.67-28.978v39.918c5.984 3.945 11.659 8.547 16.921 13.809l45.575 45.575c6.834 6.834 17.915 6.834 24.749 0z" fill="#fcb500"/></g></svg>