<svg id="Capa_1" enable-background="new 0 0 502 502" height="512" viewBox="0 0 502 502" width="512" xmlns="http://www.w3.org/2000/svg" xmlns:xlink="http://www.w3.org/1999/xlink"><linearGradient id="lg1"><stop offset="0" stop-color="#7ed99e"/><stop offset=".2532" stop-color="#81daa3"/><stop offset=".5725" stop-color="#88ddb3"/><stop offset=".9261" stop-color="#95e2cd"/><stop offset="1" stop-color="#98e3d3"/></linearGradient><linearGradient id="SVGID_1_" gradientUnits="userSpaceOnUse" x1="281.183" x2="479.43" xlink:href="#lg1" y1="329.073" y2="329.073"/><linearGradient id="SVGID_2_" gradientTransform="matrix(-1 0 0 1 702 0)" gradientUnits="userSpaceOnUse" x1="481.183" x2="679.43" xlink:href="#lg1" y1="329.073" y2="329.073"/><linearGradient id="SVGID_3_" gradientUnits="userSpaceOnUse" x1="251" x2="251" y1="393.43" y2="73.731"><stop offset="0" stop-color="#ec6f80"/><stop offset="1" stop-color="#eca0aa"/></linearGradient><g><path d="m376.5 406.204c-45.624 0-86.202-26.31-112.066-48.198-17.912-15.158-17.912-42.709 0-57.867 25.864-21.888 66.442-48.198 112.066-48.198s86.202 26.31 112.066 48.198c17.912 15.158 17.912 42.709 0 57.867-25.864 21.888-66.442 48.198-112.066 48.198z" fill="url(#SVGID_1_)"/><path d="m423.514 340.573h-94.027c-6.351 0-11.5-5.149-11.5-11.5s5.149-11.5 11.5-11.5h94.027c6.351 0 11.5 5.149 11.5 11.5s-5.149 11.5-11.5 11.5z" fill="#24bd7f"/><path d="m125.5 406.204c45.624 0 86.202-26.31 112.066-48.198 17.912-15.158 17.912-42.709 0-57.867-25.864-21.888-66.442-48.198-112.066-48.198s-86.202 26.31-112.066 48.198c-17.912 15.158-17.912 42.709 0 57.867 25.864 21.888 66.442 48.198 112.066 48.198z" fill="url(#SVGID_2_)"/><path d="m172.514 340.573h-94.028c-6.351 0-11.5-5.149-11.5-11.5s5.149-11.5 11.5-11.5h94.027c6.351 0 11.5 5.149 11.5 11.5.001 6.351-5.148 11.5-11.499 11.5z" fill="#24bd7f"/><path d="m237.577 300.149c-25.863-21.89-66.447-48.207-112.077-48.207-20.246 0-39.493 5.187-56.907 12.863 4.935 9.126 10.72 18.352 17.345 27.609 19.261 26.909 45.053 53.097 75.68 76.994-14.445 5.215-26.644 6.798-36.119 6.798-3.091 0-6.22-.164-9.384-.49-7.651-.789-14.696 4.247-16.562 11.709-2.137 8.549 3.734 17.059 12.493 18.03 4.428.491 8.915.751 13.453.751 45.63 0 86.214-26.318 112.077-48.207 17.88-15.134 17.88-42.719.001-57.85z" fill="#24bd7f"/><path d="m77.92 193.153c0-53.769 43.589-97.358 97.358-97.358 26.633 0 50.757 10.703 68.332 28.033 4.084 4.027 10.698 4.027 14.781 0 17.575-17.33 41.699-28.033 68.332-28.033 53.769 0 97.358 43.589 97.358 97.358 0 45.057-42.215 114.917-132.656 174.459-24.506 16.133-56.342 16.133-80.848 0-90.442-59.541-132.657-129.402-132.657-174.459z" fill="url(#SVGID_3_)"/><g><ellipse cx="163.114" cy="217.653" fill="#efc5db" rx="14.936" ry="12.003"/><ellipse cx="338.886" cy="217.653" fill="#efc5db" rx="14.936" ry="12.003"/><ellipse cx="188.721" cy="188.035" fill="#fff" rx="29.618" ry="29.618" transform="matrix(.16 -.987 .987 .16 -27.116 344.2)"/><ellipse cx="313.279" cy="188.035" fill="#fff" rx="29.618" ry="29.618" transform="matrix(.16 -.987 .987 .16 77.49 467.149)"/><g fill="#3b3b44"><g><circle cx="188.721" cy="188.035" r="17.652"/><circle cx="313.279" cy="188.035" r="17.652"/></g><path d="m251 218.595c-5.248 0-10.495-1.984-14.776-5.954-2.025-1.877-2.145-5.041-.267-7.066 1.877-2.025 5.041-2.145 7.066-.267 4.697 4.355 11.257 4.355 15.954 0 2.025-1.876 5.188-1.758 7.066.267 1.877 2.025 1.758 5.189-.267 7.066-4.281 3.97-9.528 5.954-14.776 5.954z"/></g></g><g fill="#ffccd3"><path d="m394.081 203.153c-5.523 0-10-4.477-10-10 0-7.064-1.284-13.976-3.815-20.542-1.987-5.153.58-10.941 5.733-12.928s10.941.58 12.928 5.733c3.42 8.871 5.154 18.203 5.154 27.736 0 5.524-4.478 10.001-10 10.001z"/><path d="m364.02 147.105c-1.908 0-3.837-.545-5.543-1.684-2.162-1.444-4.437-2.749-6.761-3.881-4.966-2.418-7.032-8.402-4.614-13.368 2.417-4.966 8.402-7.031 13.368-4.614 3.135 1.526 6.201 3.285 9.113 5.229 4.593 3.067 5.831 9.276 2.764 13.87-1.929 2.887-5.098 4.448-8.327 4.448z"/></g></g></svg>