<svg id="Capa_1" enable-background="new 0 0 502 502" height="512" viewBox="0 0 502 502" width="512" xmlns="http://www.w3.org/2000/svg" xmlns:xlink="http://www.w3.org/1999/xlink"><linearGradient id="SVGID_1_" gradientUnits="userSpaceOnUse" x1="111.714" x2="-36.817" y1="294.096" y2="294.096"><stop offset="0" stop-color="#c5cccc"/><stop offset="1" stop-color="#e6e6e6"/></linearGradient><linearGradient id="SVGID_2_" gradientUnits="userSpaceOnUse" x1="281.006" x2="281.006" y1="478.251" y2="7.314"><stop offset="0" stop-color="#d4dbdb"/><stop offset="1" stop-color="#f3f3f3"/></linearGradient><linearGradient id="SVGID_3_" gradientUnits="userSpaceOnUse" x1="311.012" x2="311.012" y1="364.737" y2="124.708"><stop offset="0" stop-color="#53aae6"/><stop offset="1" stop-color="#a4d2f0"/></linearGradient><g><path d="m381.976 401.579v-241.48c0-21.694-22.501-36.071-42.187-26.953l-50.535 23.405c-8.846 4.097-19.139 3.593-27.542-1.349l-29.588-17.402c-25.391-14.933-56.881-14.933-82.272 0l-29.589 17.402c-8.403 4.942-18.696 5.446-27.542 1.349l-50.535-23.405c-19.685-9.118-42.186 5.258-42.186 26.953v241.48c0 33.144 26.868 60.012 60.012 60.012 30.51 0 79.336-15.345 122.513-36.328z" fill="url(#SVGID_1_)"/><path d="m60.012 461.591c33.144 0 60.012-26.868 60.012-60.012v-327.671c0-21.695 22.501-36.071 42.187-26.953l50.535 23.405c8.846 4.097 19.139 3.593 27.542-1.349l29.589-17.402c25.391-14.933 56.881-14.933 82.272 0l29.589 17.402c8.403 4.942 18.696 5.446 27.542 1.349l50.535-23.405c19.684-9.118 42.185 5.258 42.185 26.953v327.671c0 33.144-26.868 60.012-60.012 60.012z" fill="url(#SVGID_2_)"/><path d="m404.392 251.596h-186.76c-19.24 0-34.836-15.597-34.836-34.836v-41.443c0-19.24 15.597-34.836 34.836-34.836h186.76c19.24 0 34.836 15.597 34.836 34.836v41.443c.001 19.239-15.596 34.836-34.836 34.836z" fill="url(#SVGID_3_)"/><path d="m413.657 333.04h-205.29c-6.351 0-11.5-5.149-11.5-11.5s5.149-11.5 11.5-11.5h205.29c6.352 0 11.5 5.149 11.5 11.5s-5.148 11.5-11.5 11.5z" fill="#c2c8cf"/><path d="m413.657 402.36h-205.29c-6.351 0-11.5-5.149-11.5-11.5s5.149-11.5 11.5-11.5h205.29c6.352 0 11.5 5.149 11.5 11.5s-5.148 11.5-11.5 11.5z" fill="#c2c8cf"/><g><path d="m238.063 219.654c0 6.629-6.687 12.003-14.936 12.003s-14.936-5.374-14.936-12.003 6.687-12.003 14.936-12.003 14.936 5.374 14.936 12.003z" fill="#eaadcd"/><path d="m413.834 219.654c0 6.629-6.687 12.003-14.936 12.003s-14.936-5.374-14.936-12.003 6.687-12.003 14.936-12.003 14.936 5.374 14.936 12.003z" fill="#eaadcd"/><ellipse cx="248.734" cy="190.036" fill="#fff" rx="29.618" ry="29.618" transform="matrix(.383 -.924 .924 .383 -22.023 347.112)"/><path d="m278.351 190.036c0 9.749-7.903 17.653-17.652 17.653s-17.652-7.903-17.652-17.653c0-9.749 7.903-17.652 17.652-17.652s17.652 7.903 17.652 17.652z" fill="#3b3b44"/><ellipse cx="373.291" cy="190.036" fill="#fff" rx="29.618" ry="29.618" transform="matrix(.399 -.917 .917 .399 50.015 456.406)"/><g fill="#3b3b44"><path d="m402.847 190.036c0 9.749-7.903 17.653-17.652 17.653s-17.652-7.903-17.652-17.653c0-9.749 7.903-17.652 17.652-17.652s17.652 7.903 17.652 17.652z"/><ellipse cx="311.012" cy="212.488" rx="13.252" ry="17.352"/></g></g><path d="m60.012 436.283c0 15.289 16.53 25.003 29.795 17.401 18.054-10.346 30.217-29.805 30.217-52.105v-246.247c-8.359 4.814-18.54 5.277-27.303 1.219l-12.697-5.881v250.909c0 7.488-4.134 14.028-10.239 17.459-6.16 3.463-9.773 10.178-9.773 17.245z" fill="#aeb4ba"/></g></svg>