<svg id="Capa_1" enable-background="new 0 0 502 502" height="512" viewBox="0 0 502 502" width="512" xmlns="http://www.w3.org/2000/svg" xmlns:xlink="http://www.w3.org/1999/xlink"><linearGradient id="lg1"><stop offset="0" stop-color="#dd5c6e"/><stop offset="1" stop-color="#ec8290"/></linearGradient><linearGradient id="SVGID_1_" gradientUnits="userSpaceOnUse" x1="254.145" x2="254.145" xlink:href="#lg1" y1="261.721" y2="419.852"/><linearGradient id="lg2"><stop offset="0" stop-color="#ec6f80"/><stop offset="1" stop-color="#eca0aa"/></linearGradient><linearGradient id="SVGID_2_" gradientTransform="matrix(1 -.176 0 1 0 29.806)" gradientUnits="userSpaceOnUse" x1="214.571" x2="214.571" xlink:href="#lg2" y1="513.634" y2="373.127"/><linearGradient id="SVGID_3_" gradientUnits="userSpaceOnUse" x1="467.397" x2="467.397" xlink:href="#lg1" y1="224.119" y2="382.25"/><linearGradient id="SVGID_4_" gradientTransform="matrix(1 -.176 0 1 0 29.806)" gradientUnits="userSpaceOnUse" x1="427.823" x2="427.823" xlink:href="#lg2" y1="513.628" y2="373.121"/><linearGradient id="SVGID_5_" gradientUnits="userSpaceOnUse" x1="170.871" x2="529.146" xlink:href="#lg2" y1="194.913" y2="194.913"/><linearGradient id="SVGID_6_" gradientUnits="userSpaceOnUse" x1="113.751" x2="113.751" y1="126.53" y2="284.661"><stop offset="0" stop-color="#53aae6"/><stop offset="1" stop-color="#a4d2f0"/></linearGradient><linearGradient id="lg3"><stop offset="0" stop-color="#74d2e8"/><stop offset="1" stop-color="#baeaf5"/></linearGradient><linearGradient id="SVGID_7_" gradientTransform="matrix(1 -.176 0 1 0 29.806)" gradientUnits="userSpaceOnUse" x1="74.177" x2="74.177" xlink:href="#lg3" y1="353.691" y2="213.184"/><linearGradient id="SVGID_8_" gradientUnits="userSpaceOnUse" x1="48.76" x2="272.451" xlink:href="#lg3" y1="66.535" y2="66.535"/><g><path d="m219.543 268.262 69.205-12.203v168.67l-69.205 12.203z" fill="url(#SVGID_1_)"/><path d="m288.748 424.729c0 34.701-33.21 68.687-74.177 75.911s-74.177-15.051-74.177-49.752 33.21-68.687 74.177-75.911c40.967-7.223 74.177 15.051 74.177 49.752z" fill="url(#SVGID_2_)"/><path d="m432.794 230.66 69.206-12.203v168.67l-69.206 12.203z" fill="url(#SVGID_3_)"/><path d="m502 387.127c0 34.701-33.21 68.687-74.177 75.911-40.967 7.223-74.177-15.051-74.177-49.752s33.21-68.687 74.177-75.911c40.967-7.223 74.177 15.051 74.177 49.752z" fill="url(#SVGID_4_)"/><path d="m219.542 298.725 69.206-12.203v-30.463l-69.206 12.203z" fill="#cf4f5f"/><path d="m445.454 122.309-138.819 24.478c-50.37 8.882-87.093 52.646-87.093 103.793v17.682l282.458-49.805v-48.7c0-29.955-27.046-52.649-56.546-47.448z" fill="url(#SVGID_5_)"/><path d="m79.148 133.071 69.206-12.203v168.67l-69.206 12.203z" fill="url(#SVGID_6_)"/><path d="m148.354 289.538c0 34.701-33.21 68.687-74.177 75.911-40.967 7.223-74.177-15.051-74.177-49.752s33.21-68.687 74.177-75.911 74.177 15.051 74.177 49.752z" fill="url(#SVGID_7_)"/><path d="m230.104.335-63.863 11.261c-50.37 8.881-87.093 52.646-87.093 103.793v17.682l107.119-18.888c40.042-7.061 69.235-41.851 69.235-82.512v-10.025c0-13.455-12.147-23.648-25.398-21.311z" fill="url(#SVGID_8_)"/><path d="m457.109 226.373-24.315 4.287v30.463l29.524-5.206c7.169-1.264 12.395-7.493 12.395-14.772.001-9.326-8.42-16.392-17.604-14.772z" fill="#cf4f5f"/><path d="m103.463 128.783-24.315 4.287v30.463l29.524-5.206c7.169-1.264 12.395-7.493 12.395-14.772.001-9.326-8.42-16.391-17.604-14.772z" fill="#0099cf"/><g fill="#ffccd3"><path d="m412.858 444.352c-1.32 0-2.631-.041-3.922-.122-5.512-.346-9.699-5.095-9.353-10.608.347-5.512 5.092-9.701 10.607-9.353 1.642.103 3.341.109 5.051.02 5.534-.298 10.222 3.943 10.514 9.458.291 5.515-3.943 10.222-9.459 10.513-1.149.062-2.297.092-3.438.092z"/><path d="m453.223 429.561c-2.914 0-5.803-1.268-7.778-3.709-3.475-4.292-2.811-10.589 1.48-14.064 5.905-4.779 10.548-10.574 13.072-16.316 2.224-5.056 8.126-7.351 13.18-5.129 5.056 2.223 7.352 8.124 5.129 13.179-3.839 8.731-10.339 16.966-18.797 23.812-1.852 1.498-4.076 2.227-6.286 2.227z"/></g><g fill="#cdf5fa"><path d="m59.216 346.763c-1.322 0-2.634-.04-3.926-.122-5.512-.346-9.699-5.095-9.354-10.607.347-5.512 5.069-9.696 10.607-9.353 1.641.103 3.342.11 5.053.02 5.522-.276 10.222 3.946 10.512 9.461s-3.945 10.221-9.461 10.512c-1.146.058-2.293.089-3.431.089z"/><path d="m99.577 331.971c-2.914 0-5.802-1.267-7.778-3.708-3.475-4.292-2.813-10.589 1.48-14.064 5.905-4.781 10.548-10.576 13.072-16.316 2.224-5.056 8.124-7.351 13.179-5.129 5.057 2.223 7.353 8.124 5.13 13.179-3.838 8.73-10.338 16.964-18.797 23.812-1.851 1.497-4.076 2.226-6.286 2.226z"/></g></g></svg>