<svg id="Capa_1" enable-background="new 0 0 502 502" height="512" viewBox="0 0 502 502" width="512" xmlns="http://www.w3.org/2000/svg" xmlns:xlink="http://www.w3.org/1999/xlink"><linearGradient id="SVGID_1_" gradientUnits="userSpaceOnUse" x1="251" x2="251" y1="248.558" y2="108.386"><stop offset="0" stop-color="#53aae6"/><stop offset="1" stop-color="#a4d2f0"/></linearGradient><linearGradient id="SVGID_2_" gradientUnits="userSpaceOnUse" x1="308.854" x2="308.854" y1="192.014" y2="-40.081"><stop offset="0" stop-color="#f5e5a2"/><stop offset="1" stop-color="#fcf7cf"/></linearGradient><linearGradient id="lg1"><stop offset="0" stop-color="#74d2e8"/><stop offset="1" stop-color="#baeaf5"/></linearGradient><linearGradient id="SVGID_3_" gradientUnits="userSpaceOnUse" x1="-128.988" x2="465.184" xlink:href="#lg1" y1="348.472" y2="348.472"/><linearGradient id="SVGID_4_" gradientUnits="userSpaceOnUse" x1="36.292" x2="607.873" xlink:href="#lg1" y1="448.103" y2="448.103"/><g><path d="m192.997 145.845-17.617-17.617c-11.176-11.176-26.334-17.455-42.139-17.455h-56.293c-25.523 0-46.214 20.691-46.214 46.214v262.573h440.533v-198.244c0-36.207-29.351-65.558-65.558-65.558h-188.781c-8.976 0-17.584-3.566-23.931-9.913z" fill="url(#SVGID_1_)"/><path d="m438.641 164.638c-9.643-3.047-19.903-4.694-30.54-4.694h-276.225c-9.665 0-17.5 7.835-17.5 17.5 0 9.665 7.835 17.5 17.5 17.5h276.225c29.418 0 54.362 19.09 63.165 45.551v-19.179c.001-24.198-13.12-45.319-32.625-56.678z" fill="#04a5de"/><path d="m388.237 0h-158.766c-27.933 0-50.577 22.644-50.577 50.577v207.013c0 27.933 22.644 50.577 50.577 50.577h158.766c27.933 0 50.577-22.644 50.577-50.577v-207.013c-.001-27.933-22.645-50.577-50.577-50.577z" fill="url(#SVGID_2_)"/><path d="m408.102 194.944c11.081 0 21.521 2.723 30.712 7.512v-37.762c-9.694-3.082-20.011-4.75-30.712-4.75h-229.208v35z" fill="#f5c98d"/><path d="m408.102 502h-314.204c-36.767 0-66.572-29.805-66.572-66.572v-173.911c0-36.767 29.806-66.572 66.572-66.572h314.203c36.767 0 66.572 29.806 66.572 66.572v173.911c.001 36.767-29.805 66.572-66.571 66.572z" fill="url(#SVGID_3_)"/><path d="m408.102 502h-314.204c-36.767 0-66.572-29.805-66.572-66.572v-41.221h447.348v41.221c0 36.767-29.806 66.572-66.572 66.572z" fill="url(#SVGID_4_)"/><path d="m363.072 91.795h-108.437c-6.352 0-11.5-5.149-11.5-11.5s5.148-11.5 11.5-11.5h108.438c6.352 0 11.5 5.149 11.5 11.5-.001 6.351-5.149 11.5-11.501 11.5z" fill="#f5c98d"/><g><ellipse cx="163.114" cy="322.341" fill="#eaadcd" rx="14.936" ry="12.003"/><ellipse cx="338.886" cy="322.341" fill="#eaadcd" rx="14.936" ry="12.003"/><circle cx="188.721" cy="292.724" fill="#fff" r="29.618"/><circle cx="313.279" cy="292.724" fill="#fff" r="29.618"/><g fill="#3b3b44"><g><ellipse cx="188.721" cy="292.724" rx="17.652" ry="17.652" transform="matrix(.026 -1 1 .026 -108.776 473.826)"/><ellipse cx="313.279" cy="292.724" rx="17.652" ry="17.652" transform="matrix(.156 -.988 .988 .156 -24.611 556.658)"/></g><path d="m251 323.284c-5.247 0-10.495-1.984-14.775-5.954-2.025-1.878-2.145-5.041-.267-7.066 1.876-2.025 5.042-2.144 7.065-.267 4.697 4.354 11.256 4.354 15.953 0 2.024-1.877 5.188-1.759 7.065.267 1.878 2.025 1.759 5.188-.267 7.066-4.279 3.969-9.527 5.954-14.774 5.954z"/></g></g><g fill="#cdf5fa"><path d="m123.646 477h-8.111c-5.522 0-10-4.477-10-10s4.478-10 10-10h8.111c5.522 0 10 4.477 10 10-.001 5.523-4.478 10-10 10z"/><path d="m75.971 471.4c-1.963 0-3.945-.577-5.682-1.778-11.248-7.784-17.963-20.567-17.963-34.194 0-5.523 4.478-10 10-10s10 4.477 10 10c0 7.065 3.493 13.699 9.344 17.748 4.542 3.143 5.676 9.372 2.532 13.914-1.941 2.805-5.06 4.31-8.231 4.31z"/></g></g></svg>