<svg id="Capa_1" enable-background="new 0 0 502 502" height="512" viewBox="0 0 502 502" width="512" xmlns="http://www.w3.org/2000/svg" xmlns:xlink="http://www.w3.org/1999/xlink"><linearGradient id="SVGID_1_" gradientTransform="matrix(0 -1 1 0 -1214 2116)" gradientUnits="userSpaceOnUse" x1="1654.23" x2="2098.436" y1="1465" y2="1465"><stop offset="0" stop-color="#f4d952"/><stop offset="1" stop-color="#f9edaf"/></linearGradient><linearGradient id="SVGID_2_" gradientTransform="matrix(0 -1 1 0 -1214 2116)" gradientUnits="userSpaceOnUse" x1="1728.76" x2="2070.502" y1="1465" y2="1465"><stop offset="0" stop-color="#f4c22c"/><stop offset="1" stop-color="#f9e198"/></linearGradient><linearGradient id="SVGID_3_" gradientUnits="userSpaceOnUse" x1="251" x2="251" y1="428.052" y2="225.069"><stop offset="0" stop-color="#53aae6"/><stop offset="1" stop-color="#a4d2f0"/></linearGradient><linearGradient id="SVGID_4_" gradientUnits="userSpaceOnUse" x1="342.003" x2="421.196" y1="279.298" y2="279.298"><stop offset="0" stop-color="#4e5660"/><stop offset="1" stop-color="#64768d"/></linearGradient><g><circle cx="251" cy="251" fill="url(#SVGID_1_)" r="210.77"/><circle cx="251" cy="251" fill="url(#SVGID_2_)" r="148.886"/><path d="m8.038 407.822c-10.717-10.717-10.717-28.093 0-38.81l104.379-104.379c24.9-24.898 65.414-24.899 90.313 0l77.329 77.328c3.503 3.503 9.185 3.508 12.693 0l162.4-162.4c10.718-10.716 28.092-10.716 38.81 0 10.717 10.717 10.717 28.093 0 38.81l-162.4 162.4c-24.956 24.956-65.353 24.961-90.314-.001l-77.328-77.328c-3.499-3.5-9.194-3.5-12.694 0l-104.378 104.38c-10.718 10.717-28.092 10.717-38.81 0z" fill="url(#SVGID_3_)"/><path d="m356.649 376.898c-5.858-5.858-15.356-5.858-21.213 0l-3.874 3.873c-24.956 24.956-65.353 24.961-90.314-.001l-77.328-77.328c-3.499-3.499-9.194-3.5-12.694.001l-71.038 71.039c5.902 8.15 12.371 15.86 19.353 23.074l58.033-58.033 62.462 62.461c17.738 17.739 41.309 27.507 66.371 27.506 25.063-.001 48.633-9.769 66.37-27.505l3.873-3.873c5.857-5.859 5.857-15.356-.001-21.214z" fill="#efc534"/><path d="m273.586 398.183c-11.845-2.419-23.141-8.215-32.338-17.413l-77.328-77.328c-3.499-3.499-9.194-3.5-12.694.001l-26.482 26.483c5.376 8.582 11.595 16.582 18.555 23.871l14.275-14.275 55.476 55.476c12.117 3.185 24.834 4.888 37.95 4.888 7.679 0 15.221-.582 22.586-1.703z" fill="#f5b000"/><path d="m374.82 259.893-54.716 54.716c8.108 16.95 21.859 30.702 38.81 38.81l54.716-54.716z" fill="#04a5de"/><circle cx="394.225" cy="279.298" fill="url(#SVGID_4_)" r="52.115"/><g><ellipse cx="163.115" cy="222.467" fill="#eaadcd" rx="14.936" ry="12.003"/><ellipse cx="338.886" cy="222.467" fill="#eaadcd" rx="14.936" ry="12.003"/><circle cx="188.721" cy="192.849" fill="#fff" r="29.618"/><circle cx="313.279" cy="192.849" fill="#fff" r="29.618"/><path d="m178.938 203.28c-1.222 0-2.46-.299-3.606-.929-3.63-1.996-4.954-6.556-2.959-10.186 3.279-5.963 9.543-9.668 16.349-9.668h.001c6.806 0 13.07 3.705 16.348 9.669 1.996 3.629.67 8.19-2.959 10.185-3.629 1.996-8.19.671-10.185-2.96-.94-1.71-2.554-1.895-3.204-1.895s-2.264.185-3.205 1.895c-1.366 2.484-3.933 3.889-6.58 3.889z" fill="#3b3b44"/><path d="m323.062 203.28c-2.647 0-5.213-1.404-6.579-3.888-.94-1.71-2.554-1.895-3.205-1.895-.65 0-2.264.185-3.204 1.895-1.995 3.629-6.555 4.956-10.185 2.96-3.63-1.995-4.955-6.556-2.959-10.185 3.278-5.964 9.542-9.669 16.348-9.669s13.07 3.705 16.349 9.668c1.996 3.63.671 8.19-2.959 10.186-1.145.629-2.385.928-3.606.928z" fill="#3b3b44"/><g><path d="m262.671 232.653h-23.342c-6.508 0-11.784-5.276-11.784-11.784 0-6.508 5.276-11.784 11.784-11.784h23.342c6.508 0 11.784 5.276 11.784 11.784 0 6.508-5.276 11.784-11.784 11.784z" fill="#3b3b44"/></g></g><g fill="#fffde3"><path d="m398.073 148.927c-3.011 0-5.987-1.354-7.956-3.932-1.847-2.419-3.778-4.817-5.74-7.127-3.575-4.21-3.06-10.521 1.15-14.095 4.209-3.575 10.52-3.061 14.095 1.15 2.185 2.573 4.335 5.244 6.391 7.936 3.352 4.39 2.51 10.665-1.88 14.017-1.811 1.382-3.944 2.051-6.06 2.051z"/><path d="m362.277 113.337c-2.099 0-4.213-.657-6.017-2.019-7-5.283-14.446-10.072-22.133-14.233-4.856-2.629-6.662-8.698-4.033-13.555 2.629-4.856 8.698-6.662 13.555-4.033 8.566 4.638 16.862 9.973 24.66 15.858 4.408 3.327 5.285 9.598 1.957 14.006-1.965 2.604-4.959 3.976-7.989 3.976z"/></g></g></svg>