<svg id="Capa_1" enable-background="new 0 0 502 502" height="512" viewBox="0 0 502 502" width="512" xmlns="http://www.w3.org/2000/svg" xmlns:xlink="http://www.w3.org/1999/xlink"><linearGradient id="SVGID_1_" gradientUnits="userSpaceOnUse" x1="251" x2="251" y1="89.202" y2="16.292"><stop offset="0" stop-color="#4e5660"/><stop offset="1" stop-color="#64768d"/></linearGradient><linearGradient id="SVGID_2_" gradientUnits="userSpaceOnUse" x1="251" x2="251" y1="467.907" y2="119.691"><stop offset="0" stop-color="#53aae6"/><stop offset="1" stop-color="#a4d2f0"/></linearGradient><linearGradient id="SVGID_3_" gradientUnits="userSpaceOnUse" x1="251" x2="251" y1="486.622" y2="56.883"><stop offset="0" stop-color="#74d2e8"/><stop offset="1" stop-color="#baeaf5"/></linearGradient><linearGradient id="SVGID_4_" gradientUnits="userSpaceOnUse" x1="228.409" x2="228.409" y1="388.207" y2="317.417"><stop offset="0" stop-color="#d4dbdb"/><stop offset="1" stop-color="#f3f3f3"/></linearGradient><linearGradient id="SVGID_5_" gradientUnits="userSpaceOnUse" x1="273.591" x2="273.591" y1="326.583" y2="208.687"><stop offset="0" stop-color="#ec6f80"/><stop offset="1" stop-color="#eca0aa"/></linearGradient><g><circle cx="251" cy="53.428" fill="url(#SVGID_1_)" r="53.428"/><circle cx="251" cy="277.714" fill="url(#SVGID_2_)" r="172.934"/><path d="m283.098 337.7c-4.654-7.683-14.351-10.556-22.478-6.73-2.685 1.264-.69.337-59.244 25.344-4.365 1.863-8.739 2.228-12.764 1.456-7.297-1.399-14.711 1.688-18.406 8.135-6.038 10.537.008 24.024 11.942 26.273 10.703 2.017 22.109.96 32.964-3.672 59.831-25.56 56.811-24.172 60.463-25.891 9.405-4.425 12.909-16.024 7.523-24.915z" fill="#0099cf"/><g fill="#fff"><path d="m251 132.114c-6.351 0-11.5-5.149-11.5-11.5v-28.807c0-6.351 5.149-11.5 11.5-11.5s11.5 5.149 11.5 11.5v28.807c0 6.351-5.149 11.5-11.5 11.5z"/><path d="m139.914 178.127c-2.943 0-5.886-1.122-8.132-3.368l-20.37-20.37c-4.491-4.491-4.491-11.772 0-16.264 4.491-4.491 11.772-4.491 16.264 0l20.37 20.37c4.491 4.491 4.491 11.773 0 16.264-2.246 2.245-5.19 3.368-8.132 3.368z"/><path d="m93.9 289.214h-28.808c-6.351 0-11.5-5.149-11.5-11.5s5.149-11.5 11.5-11.5h28.808c6.351 0 11.5 5.149 11.5 11.5s-5.149 11.5-11.5 11.5z"/><path d="m119.544 420.671c-2.943 0-5.886-1.123-8.132-3.368-4.491-4.491-4.491-11.772 0-16.264l20.37-20.37c4.491-4.491 11.772-4.491 16.264 0 4.491 4.491 4.491 11.772 0 16.264l-20.37 20.37c-2.246 2.245-5.19 3.368-8.132 3.368z"/><path d="m251 475.122c-6.351 0-11.5-5.149-11.5-11.5v-28.807c0-6.351 5.149-11.5 11.5-11.5s11.5 5.149 11.5 11.5v28.807c0 6.351-5.149 11.5-11.5 11.5z"/><path d="m382.456 420.671c-2.943 0-5.886-1.123-8.132-3.368l-20.37-20.37c-4.491-4.491-4.491-11.772 0-16.264 4.491-4.491 11.773-4.491 16.264 0l20.37 20.37c4.491 4.491 4.491 11.772 0 16.264-2.245 2.245-5.189 3.368-8.132 3.368z"/><path d="m436.908 289.214h-28.808c-6.351 0-11.5-5.149-11.5-11.5s5.149-11.5 11.5-11.5h28.808c6.351 0 11.5 5.149 11.5 11.5s-5.149 11.5-11.5 11.5z"/><path d="m362.086 178.127c-2.943 0-5.886-1.122-8.132-3.368-4.491-4.491-4.491-11.773 0-16.264l20.37-20.37c4.492-4.491 11.773-4.491 16.264 0s4.491 11.772 0 16.264l-20.37 20.37c-2.245 2.245-5.189 3.368-8.132 3.368z"/></g><path d="m251 53.428c-123.87 0-224.286 100.416-224.286 224.286s100.416 224.286 224.286 224.286 224.286-100.416 224.286-224.286-100.416-224.286-224.286-224.286zm0 392.268c-92.774 0-167.982-75.208-167.982-167.982s75.208-167.981 167.982-167.981 167.982 75.208 167.982 167.982-75.208 167.981-167.982 167.981z" fill="url(#SVGID_3_)"/><path d="m172.4 327.339c-7.81 18.302 10.673 36.785 28.976 28.975l56.291-24.02c10.776-4.598 20.455-11.189 28.59-19.324l-70.514-70.514c-8.135 8.135-14.726 17.814-19.324 28.59z" fill="url(#SVGID_4_)"/><path d="m300.625 199.114c18.302-7.81 36.785 10.673 28.975 28.975l-24.02 56.291c-4.598 10.776-11.189 20.455-19.324 28.59l-70.514-70.514c8.135-8.135 17.814-14.726 28.59-19.324z" fill="url(#SVGID_5_)"/><g fill="#e3fcff"><path d="m423.279 187.442c-3.44 0-6.788-1.776-8.647-4.962-4.917-8.429-10.539-16.548-16.708-24.132-3.485-4.284-2.837-10.583 1.447-14.068s10.583-2.838 14.068 1.447c6.819 8.382 13.033 17.357 18.469 26.675 2.783 4.77 1.172 10.893-3.599 13.677-1.585.923-3.319 1.363-5.03 1.363z"/><path d="m376.689 133.06c-2.219 0-4.451-.735-6.306-2.245-2.486-2.023-5.064-4.014-7.663-5.918-4.455-3.264-5.421-9.521-2.157-13.977 3.263-4.454 9.521-5.421 13.977-2.157 2.871 2.103 5.72 4.303 8.467 6.539 4.284 3.486 4.93 9.785 1.444 14.068-1.976 2.43-4.857 3.69-7.762 3.69z"/></g></g></svg>