<svg id="Capa_1" enable-background="new 0 0 502 502" height="512" viewBox="0 0 502 502" width="512" xmlns="http://www.w3.org/2000/svg" xmlns:xlink="http://www.w3.org/1999/xlink"><linearGradient id="SVGID_1_" gradientUnits="userSpaceOnUse" x1="251" x2="251" y1="224.651" y2="-1.376"><stop offset="0" stop-color="#ec6f80"/><stop offset="1" stop-color="#eca0aa"/></linearGradient><linearGradient id="SVGID_2_" gradientUnits="userSpaceOnUse" x1="2.295" x2="585.579" y1="344.718" y2="344.718"><stop offset="0" stop-color="#d4dbdb"/><stop offset="1" stop-color="#f3f3f3"/></linearGradient><linearGradient id="lg1"><stop offset="0" stop-color="#4e5660"/><stop offset="1" stop-color="#64768d"/></linearGradient><linearGradient id="SVGID_3_" gradientUnits="userSpaceOnUse" x1="92.02" x2="92.02" xlink:href="#lg1" y1="140.421" y2="-29.212"/><linearGradient id="SVGID_4_" gradientTransform="matrix(-1 0 0 1 502 0)" gradientUnits="userSpaceOnUse" x1="92.02" x2="92.02" xlink:href="#lg1" y1="140.421" y2="-29.212"/><g><path d="m417.077 37.547h-332.154c-46.902 0-84.923 38.022-84.923 84.923v64.966h502v-64.966c0-46.901-38.021-84.923-84.923-84.923z" fill="url(#SVGID_1_)"/><path d="m119.496 115.216c-4.535-4.535-11.185-6.03-17.33-4.198-3.214.958-6.619 1.474-10.146 1.474-19.633 0-35.549-15.916-35.549-35.549v-34.5c-13.596 4.839-25.597 13.041-35 23.609v9.891c0 38.934 31.119 71.276 70.052 71.547 7.201.05 14.156-.987 20.712-2.955 12.718-3.817 16.65-19.93 7.261-29.319z" fill="#e05d6f"/><path d="m437.456 115.216c-4.535-4.535-11.185-6.03-17.33-4.198-3.214.958-6.619 1.474-10.146 1.474-19.633 0-35.549-15.916-35.549-35.549v-39.396h-35v38.396c0 38.934 31.119 71.276 70.052 71.547 7.201.05 14.156-.987 20.712-2.955 12.718-3.817 16.65-19.93 7.261-29.319z" fill="#e05d6f"/><path d="m502 187.436h-502v229.64c0 46.903 38.021 84.924 84.923 84.924h332.154c46.902 0 84.923-38.021 84.923-84.923z" fill="url(#SVGID_2_)"/><g><ellipse cx="163.114" cy="130.473" fill="#efc5db" rx="14.936" ry="12.003"/><ellipse cx="338.886" cy="130.473" fill="#efc5db" rx="14.936" ry="12.003"/><ellipse cx="188.721" cy="100.855" fill="#fff" rx="29.618" ry="29.618" transform="matrix(.383 -.924 .924 .383 23.323 236.615)"/><ellipse cx="313.279" cy="100.855" fill="#fff" rx="29.618" ry="29.618" transform="matrix(.307 -.952 .952 .307 121.226 368.121)"/><g fill="#3b3b44"><g><ellipse cx="188.721" cy="100.855" rx="17.652" ry="17.652" transform="matrix(.16 -.987 .987 .16 58.939 270.984)"/><ellipse cx="313.279" cy="100.855" rx="17.652" ry="17.652" transform="matrix(.189 -.982 .982 .189 155.177 389.506)"/></g><path d="m251 131.415c-5.248 0-10.495-1.984-14.776-5.954-2.025-1.877-2.145-5.041-.267-7.066s5.041-2.145 7.066-.267c4.697 4.354 11.256 4.354 15.954 0 2.023-1.876 5.188-1.759 7.065.267 1.878 2.025 1.759 5.188-.267 7.066-4.28 3.97-9.528 5.954-14.775 5.954z"/></g></g><path d="m92.02 112.492c-19.633 0-35.549-15.916-35.549-35.549v-41.394c0-19.633 15.916-35.549 35.549-35.549 19.633 0 35.549 15.916 35.549 35.549v41.394c0 19.633-15.916 35.549-35.549 35.549z" fill="url(#SVGID_3_)"/><path d="m409.98 112.492c19.633 0 35.549-15.916 35.549-35.549v-41.394c0-19.633-15.916-35.549-35.549-35.549-19.633 0-35.549 15.916-35.549 35.549v41.394c0 19.633 15.916 35.549 35.549 35.549z" fill="url(#SVGID_4_)"/><g><path d="m251.003 410.906c-22.117.002-40.955-16.299-44.019-38.26-.284-2.038-.428-4.118-.428-6.185 0-6.351 5.149-11.5 11.5-11.5s11.5 5.149 11.5 11.5c0 1.007.07 2.019.208 3.007 1.497 10.727 10.789 18.629 21.686 18.434 11.178-.225 20.388-9.135 20.967-20.284.309-5.954-1.773-11.606-5.864-15.915-4.094-4.312-9.616-6.686-15.551-6.686-8.497 0-11.973 1.278-16.306 3.229-.479.215-.783.364-.874.411-3.866 1.959-8.529 1.59-12.023-.974-3.495-2.564-5.274-6.864-4.566-11.14l8.017-48.391c.92-5.55 5.719-9.621 11.345-9.621h40.471c6.352 0 11.5 5.149 11.5 11.5s-5.148 11.5-11.5 11.5h-30.719l-3.455 20.855c2.431-.243 5.101-.369 8.11-.369 12.126 0 23.873 5.048 32.23 13.85 8.477 8.928 12.793 20.627 12.153 32.943-1.201 23.133-20.296 41.62-43.473 42.087-.303.006-.608.009-.909.009z" fill="#424e5e"/></g><path d="m251 472.877c-70.667 0-128.159-57.492-128.159-128.159s57.492-128.158 128.159-128.158 128.159 57.492 128.159 128.159-57.492 128.158-128.159 128.158zm0-233.317c-57.985 0-105.159 47.174-105.159 105.159s47.174 105.159 105.159 105.159 105.159-47.174 105.159-105.159c0-57.986-47.174-105.159-105.159-105.159z" fill="#e06e7d"/><path d="m141.888 227.436h-141.888v-40h141.888c11.046 0 20 8.954 20 20 0 11.046-8.954 20-20 20z" fill="#c2c8cf"/></g></svg>