<svg id="Capa_1" enable-background="new 0 0 502 502" height="512" viewBox="0 0 502 502" width="512" xmlns="http://www.w3.org/2000/svg" xmlns:xlink="http://www.w3.org/1999/xlink"><linearGradient id="SVGID_1_" gradientUnits="userSpaceOnUse" x1="-94.412" x2="447.107" y1="211.817" y2="211.817"><stop offset="0" stop-color="#d4dbdb"/><stop offset="1" stop-color="#f3f3f3"/></linearGradient><linearGradient id="lg1"><stop offset="0" stop-color="#ea7d32"/><stop offset="1" stop-color="#f0b160"/></linearGradient><linearGradient id="SVGID_2_" gradientUnits="userSpaceOnUse" x1="418.754" x2="418.754" xlink:href="#lg1" y1="434.435" y2="506.571"/><linearGradient id="SVGID_3_" gradientUnits="userSpaceOnUse" x1="381.293" x2="381.293" xlink:href="#lg1" y1="253.742" y2="170.331"/><linearGradient id="SVGID_4_" gradientUnits="userSpaceOnUse" x1="381.293" x2="381.293" y1="182.695" y2="478.254"><stop offset="0" stop-color="#f4d952"/><stop offset="1" stop-color="#f9edaf"/></linearGradient><linearGradient id="SVGID_5_" gradientUnits="userSpaceOnUse" x1="381.293" x2="381.293" y1="365.112" y2="450.357"><stop offset="0" stop-color="#f4c22c"/><stop offset="1" stop-color="#f9e198"/></linearGradient><g><path d="m338.992 423.634h-254.35c-46.747 0-84.642-37.895-84.642-84.641v-254.351c0-46.747 37.895-84.642 84.642-84.642h254.351c46.746 0 84.642 37.895 84.642 84.642v254.351c-.001 46.746-37.896 84.641-84.643 84.641z" fill="url(#SVGID_1_)"/><path d="m279.327 310.054c0-13.728 2.715-26.821 7.636-38.774 4.034-9.8-.085-21.045-9.598-25.714-10.303-5.056-22.8-.439-27.212 10.156-6.973 16.748-10.826 35.102-10.826 54.331 0 26.077 0 46.674-7.363 58.073-10.807 16.729-14.048 36.578-9.289 55.507h43.112c-6.499-9.69-7.265-22.903-.225-33.802 13.765-21.307 13.765-47.753 13.765-79.777z" fill="#c2c8cf"/><path d="m102.345 175.148c-27.946 0-50.682-22.735-50.682-50.681s22.735-50.682 50.682-50.682 50.682 22.736 50.682 50.682-22.736 50.681-50.682 50.681zm0-78.362c-15.264 0-27.682 12.418-27.682 27.682s12.418 27.681 27.682 27.681 27.682-12.417 27.682-27.681-12.419-27.682-27.682-27.682z" fill="#e06e7d"/><path d="m323.593 135.967h-117.022c-6.352 0-11.5-5.149-11.5-11.5s5.148-11.5 11.5-11.5h117.021c6.352 0 11.5 5.149 11.5 11.5.001 6.351-5.148 11.5-11.499 11.5z" fill="#c2c8cf"/><path d="m102.345 333.083c-27.946 0-50.682-22.736-50.682-50.682s22.735-50.681 50.682-50.681 50.682 22.735 50.682 50.681-22.736 50.682-50.682 50.682zm0-78.363c-15.264 0-27.682 12.418-27.682 27.681 0 15.264 12.418 27.682 27.682 27.682s27.682-12.418 27.682-27.682c-.001-15.263-12.419-27.681-27.682-27.681z" fill="#3ac78e"/><path d="m323.593 293.901h-117.022c-6.352 0-11.5-5.149-11.5-11.5s5.148-11.5 11.5-11.5h117.021c6.352 0 11.5 5.149 11.5 11.5.001 6.351-5.148 11.5-11.499 11.5z" fill="#c2c8cf"/><circle cx="418.754" cy="455.169" fill="url(#SVGID_2_)" r="46.831"/><path d="m335.191 203.244c0-25.462 20.641-46.102 46.102-46.102 25.462 0 46.102 20.641 46.102 46.102v44.967h-92.205v-44.967z" fill="url(#SVGID_3_)"/><path d="m279.327 310.054c0-56.233 45.522-101.833 101.726-101.958 56.194-.126 102.188 47.049 102.192 103.242.002 31.464.185 57.499 13.787 78.527 11.109 17.175 2.768 40.135-16.855 45.909-28.538 8.397-65.428 14.582-98.891 14.582-33.462 0-70.352-6.186-98.89-14.582-19.639-5.778-27.942-28.747-16.834-45.942 13.765-21.308 13.765-47.754 13.765-79.778z" fill="url(#SVGID_4_)"/><path d="m282.396 435.775c28.538 8.397 65.428 14.582 98.89 14.582s70.352-6.186 98.891-14.583c19.623-5.773 27.964-28.734 16.855-45.909-4.909-7.589-8.064-15.835-10.099-24.748-30.037 11.632-73.094 19.734-105.639 19.734-32.55 0-75.615-8.105-105.652-19.74-2.032 8.902-5.181 17.138-10.079 24.72-11.109 17.197-2.805 40.166 16.833 45.944z" fill="url(#SVGID_5_)"/><g fill="#ffeeb0"><path d="m401.066 431.963c-5.225 0-9.622-4.058-9.969-9.347-.361-5.511 3.813-10.271 9.325-10.632 2.607-.171 5.293-.379 7.981-.62 5.497-.497 10.36 3.567 10.852 9.068.493 5.5-3.567 10.359-9.068 10.852-2.846.255-5.691.476-8.458.657-.221.015-.443.022-.663.022z"/><path d="m449.698 425.481c-4.674 0-8.852-3.294-9.798-8.053-1.076-5.417 2.442-10.681 7.859-11.757 8.375-1.665 16.541-3.583 24.27-5.702 5.333-1.46 10.829 1.674 12.289 7s-1.674 10.828-7 12.288c-8.187 2.245-16.819 4.273-25.66 6.03-.658.131-1.313.194-1.96.194z"/></g></g></svg>