<svg id="Capa_1" enable-background="new 0 0 502 502" height="512" viewBox="0 0 502 502" width="512" xmlns="http://www.w3.org/2000/svg" xmlns:xlink="http://www.w3.org/1999/xlink"><linearGradient id="SVGID_1_" gradientUnits="userSpaceOnUse" x1="190.47" x2="190.47" y1="459.168" y2="192.481"><stop offset="0" stop-color="#81d676"/><stop offset="1" stop-color="#c3e6a1"/></linearGradient><linearGradient id="lg1"><stop offset="0" stop-color="#6ac65e"/><stop offset="1" stop-color="#afd986"/></linearGradient><linearGradient id="SVGID_2_" gradientUnits="userSpaceOnUse" x1="190.471" x2="190.471" xlink:href="#lg1" y1="398.043" y2="195.226"/><linearGradient id="SVGID_3_" gradientUnits="userSpaceOnUse" x1="345.079" x2="528.719" xlink:href="#lg1" y1="300.067" y2="300.067"/><linearGradient id="SVGID_4_" gradientUnits="userSpaceOnUse" x1="-59.621" x2="233.363" y1="184.211" y2="184.211"><stop offset="0" stop-color="#f4d952"/><stop offset="1" stop-color="#f9edaf"/></linearGradient><g><path d="m293.992 439.214h-207.043c-40.244 0-72.868-32.624-72.868-72.867v-132.56c0-40.244 32.624-72.868 72.868-72.868h207.043c40.244 0 72.867 32.624 72.867 72.868v132.56c.001 40.243-32.623 72.867-72.867 72.867z" fill="url(#SVGID_1_)"/><path d="m93.812 391.978c-17.946 0-32.494-14.548-32.494-32.494v-118.834c0-17.946 14.548-32.494 32.494-32.494h193.317c17.946 0 32.494 14.548 32.494 32.494v118.835c0 17.946-14.548 32.494-32.494 32.494h-193.317z" fill="url(#SVGID_2_)"/><path d="m366.86 360.212 89.027 32.403c22.411 8.157 46.114-8.439 46.114-32.289v-120.519c0-23.85-23.702-40.446-46.114-32.289l-89.027 32.403z" fill="url(#SVGID_3_)"/><ellipse cx="131.374" cy="184.211" fill="url(#SVGID_4_)" rx="131.374" ry="121.425"/><path d="m131.374 305.636c-51.248 0-95.637-27.125-117.292-66.687v56.092c30.102 28.163 71.571 45.595 117.292 45.595z" fill="#44c276"/><path d="m202.243 305.503c-4-8.096-13.472-11.717-21.937-8.573-15.123 5.615-31.637 8.706-48.933 8.706-25.757 0-49.778-6.857-70.056-18.695v39.13c21.304 9.338 45.041 14.565 70.055 14.565 21.686 0 42.413-3.923 61.426-11.052 9.652-3.618 14.011-14.84 9.445-24.081z" fill="#04b048"/><g><ellipse cx="43.488" cy="192.844" fill="#eaadcd" rx="14.936" ry="12.003"/><ellipse cx="219.259" cy="192.844" fill="#eaadcd" rx="14.936" ry="12.003"/><circle cx="69.095" cy="163.226" fill="#fff" r="29.618"/><ellipse cx="81.06" cy="163.226" fill="#3b3b44" rx="17.652" ry="17.652" transform="matrix(.232 -.973 .973 .232 -96.497 204.298)"/><circle cx="193.652" cy="163.226" fill="#fff" r="29.618"/><g fill="#3b3b44"><ellipse cx="205.556" cy="163.226" rx="17.652" ry="17.652" transform="matrix(.707 -.707 .707 .707 -55.212 193.158)"/><ellipse cx="131.374" cy="185.678" rx="13.252" ry="17.352"/></g></g><g fill="#c7f0b6"><path d="m472 303.553c-5.522 0-10-4.477-10-10v-7.875c0-5.523 4.478-10 10-10s10 4.477 10 10v7.875c0 5.523-4.478 10-10 10z"/><path d="m472 370.326c-5.522 0-10-4.477-10-10v-26.112c0-5.523 4.478-10 10-10s10 4.477 10 10v26.112c0 5.523-4.478 10-10 10z"/></g></g></svg>