<svg id="Capa_1" enable-background="new 0 0 502 502" height="512" viewBox="0 0 502 502" width="512" xmlns="http://www.w3.org/2000/svg" xmlns:xlink="http://www.w3.org/1999/xlink"><linearGradient id="SVGID_1_" gradientUnits="userSpaceOnUse" x1="251" x2="251" y1="444.446" y2="506.417"><stop offset="0" stop-color="#947ec7"/><stop offset="1" stop-color="#b3a1d9"/></linearGradient><linearGradient id="SVGID_2_" gradientUnits="userSpaceOnUse" x1="251" x2="251" y1="129.183" y2="426.573"><stop offset="0" stop-color="#d4dbdb"/><stop offset="1" stop-color="#f3f3f3"/></linearGradient><linearGradient id="SVGID_3_" gradientUnits="userSpaceOnUse" x1="251" x2="251" y1="422.977" y2="181.266"><stop offset="0" stop-color="#b39bdb"/><stop offset="1" stop-color="#d0c3e8"/></linearGradient><linearGradient id="lg1"><stop offset="0" stop-color="#a087cc"/><stop offset="1" stop-color="#c1b1e0"/></linearGradient><linearGradient id="SVGID_4_" gradientUnits="userSpaceOnUse" x1="400.541" x2="400.541" xlink:href="#lg1" y1="219.833" y2="4.747"/><linearGradient id="SVGID_5_" gradientUnits="userSpaceOnUse" x1="367.18" x2="367.18" xlink:href="#lg1" y1="70.309" y2="223.984"/><linearGradient id="SVGID_6_" gradientUnits="userSpaceOnUse" x1="101.459" x2="101.459" xlink:href="#lg1" y1="219.833" y2="4.747"/><linearGradient id="SVGID_7_" gradientUnits="userSpaceOnUse" x1="134.82" x2="134.82" xlink:href="#lg1" y1="70.309" y2="223.984"/><g><path d="m327.306 430.499h-152.612v40.432c0 17.159 13.91 31.069 31.069 31.069h90.474c17.159 0 31.069-13.91 31.069-31.069z" fill="url(#SVGID_1_)"/><path d="m281.64 388.229h-61.28c-40.542 0-73.408-32.866-73.408-73.408v-107.404c0-40.542 32.866-73.408 73.408-73.408h61.28c40.542 0 73.408 32.866 73.408 73.408v107.404c0 40.542-32.866 73.408-73.408 73.408z" fill="url(#SVGID_2_)"/><g><ellipse cx="163.114" cy="318.725" fill="#eaadcd" rx="14.936" ry="12.003"/><ellipse cx="338.885" cy="318.725" fill="#eaadcd" rx="14.936" ry="12.003"/><ellipse cx="188.721" cy="289.107" fill="#fff" rx="29.618" ry="29.618" transform="matrix(.383 -.924 .924 .383 -150.6 352.827)"/><ellipse cx="313.279" cy="289.107" fill="#fff" rx="29.618" ry="29.618" transform="matrix(.383 -.924 .924 .383 -73.708 467.903)"/><g fill="#3b3b44"><g><ellipse cx="188.721" cy="289.107" rx="17.652" ry="17.652" transform="matrix(.16 -.987 .987 .16 -126.883 429.082)"/><ellipse cx="313.279" cy="289.107" rx="17.652" ry="17.652" transform="matrix(.23 -.973 .973 .23 -40.071 527.582)"/></g><path d="m251 319.667c-5.248 0-10.495-1.985-14.776-5.954-2.025-1.878-2.145-5.041-.267-7.066s5.042-2.144 7.066-.267c4.697 4.355 11.257 4.355 15.954 0 2.023-1.878 5.188-1.759 7.066.267 1.877 2.025 1.758 5.188-.267 7.066-4.281 3.97-9.528 5.954-14.776 5.954z"/></g></g><path d="m382.676 248.168c-15.259 0-27.628 12.369-27.628 27.628v39.025c0 40.542-32.866 73.408-73.408 73.408h-61.28c-40.542 0-73.408-32.866-73.408-73.408v-39.025c0-15.258-12.369-27.628-27.628-27.628-15.258 0-27.628 12.369-27.628 27.628v39.025c0 71.059 57.605 128.664 128.664 128.664h61.28c71.059 0 128.664-57.605 128.664-128.664v-39.026c0-15.258-12.37-27.627-27.628-27.627z" fill="url(#SVGID_3_)"/><path d="m281.64 458.485c0-8.284-6.716-15-15-15h-46.28c-16.083 0-31.473-2.96-45.666-8.35v31.641c14.468 4.356 29.796 6.709 45.666 6.709h46.28c8.284 0 15-6.716 15-15z" fill="#876ec2"/><path d="m477.024 224.097c-9.212 0-16.68-7.468-16.68-16.68 0-85.367-60.222-156.739-139.902-174.45-8.993-1.999-14.663-10.909-12.664-19.902s10.906-14.665 19.902-12.664c95.075 21.131 166.025 106.185 166.025 207.015-.001 9.213-7.469 16.681-16.681 16.681z" fill="url(#SVGID_4_)"/><path d="m410.303 224.097c-9.212 0-16.68-7.468-16.68-16.68 0-47.511-30.171-89.999-75.076-105.726-8.695-3.045-13.274-12.562-10.229-21.256 3.045-8.696 12.564-13.274 21.256-10.229 58.264 20.406 97.41 75.547 97.41 137.211 0 9.212-7.468 16.68-16.681 16.68z" fill="url(#SVGID_5_)"/><path d="m24.976 224.097c-9.212 0-16.68-7.468-16.68-16.68 0-100.95 71.058-185.908 166.024-207.015 8.994-1.998 17.904 3.672 19.902 12.664 1.999 8.993-3.671 17.903-12.664 19.902-79.761 17.729-139.902 89.171-139.902 174.45 0 9.211-7.468 16.679-16.68 16.679z" fill="url(#SVGID_6_)"/><path d="m91.696 224.097c-9.212 0-16.68-7.468-16.68-16.68 0-61.664 39.146-116.805 97.409-137.211 8.696-3.047 18.211 1.534 21.256 10.229s-1.535 18.211-10.229 21.256c-44.905 15.728-75.076 58.216-75.076 105.726.001 9.212-7.467 16.68-16.68 16.68z" fill="url(#SVGID_7_)"/><path d="m315.048 189.728c-2.871 0-5.721-1.23-7.699-3.612-6-7.225-14.78-11.624-24.091-12.069-5.517-.264-9.775-4.949-9.512-10.466s4.938-9.779 10.466-9.512c14.905.712 28.947 7.736 38.524 19.27 3.528 4.249 2.944 10.554-1.305 14.082-1.868 1.551-4.132 2.307-6.383 2.307z" fill="#fff"/><path d="m243.207 174.009h-4.807c-5.523 0-10-4.477-10-10s4.477-10 10-10h4.808c5.523 0 10 4.477 10 10-.001 5.523-4.478 10-10.001 10z" fill="#fff"/><g fill="#c2c8cf"><path d="m355.048 207.417h-44.159c-6.351 0-11.5 5.149-11.5 11.5s5.149 11.5 11.5 11.5h44.159z"/><path d="m146.952 207.417h44.159c6.351 0 11.5 5.149 11.5 11.5s-5.149 11.5-11.5 11.5h-44.159z"/></g></g></svg>