<svg id="Capa_1" enable-background="new 0 0 502 502" height="512" viewBox="0 0 502 502" width="512" xmlns="http://www.w3.org/2000/svg" xmlns:xlink="http://www.w3.org/1999/xlink"><linearGradient id="SVGID_1_" gradientUnits="userSpaceOnUse" x1="-167.53" x2="496.386" y1="320.126" y2="320.126"><stop offset="0" stop-color="#4e5660"/><stop offset="1" stop-color="#64768d"/></linearGradient><linearGradient id="SVGID_2_" gradientUnits="userSpaceOnUse" x1="229.59" x2="229.59" y1="267.709" y2="-8.409"><stop offset="0" stop-color="#ea7d32"/><stop offset="1" stop-color="#f0b160"/></linearGradient><linearGradient id="SVGID_3_" gradientUnits="userSpaceOnUse" x1="329.326" x2="329.326" y1="386.134" y2="65.091"><stop offset="0" stop-color="#f4d952"/><stop offset="1" stop-color="#f9edaf"/></linearGradient><g><path d="m347.285 467.937h-299.047c-26.641 0-48.238-21.596-48.238-48.237v-199.147c0-26.641 21.597-48.238 48.238-48.238h299.047c26.641 0 48.238 21.597 48.238 48.238v199.147c0 26.641-21.597 48.237-48.238 48.237z" fill="url(#SVGID_1_)"/><path d="m350.022 141.015c0-15.877 9.68-29.494 23.461-35.269 8.845-3.707 14.764-12.161 14.764-21.751v-13.379c0-20.188-16.365-36.553-36.553-36.553h-244.208c-20.188 0-36.553 16.365-36.553 36.553v13.379c0 9.591 5.919 18.044 14.764 21.751 13.781 5.775 23.461 19.392 23.461 35.269s-9.68 29.494-23.461 35.269c-8.845 3.707-14.764 12.161-14.764 21.751v13.379c0 20.188 16.365 36.553 36.553 36.553h244.208c20.188 0 36.553-16.365 36.553-36.553v-13.379c0-9.591-5.919-18.044-14.764-21.751-13.781-5.775-23.461-19.391-23.461-35.269z" fill="url(#SVGID_2_)"/><path d="m262.184 152.516h-65.187c-6.351 0-11.5-5.149-11.5-11.5s5.149-11.5 11.5-11.5h65.187c6.351 0 11.5 5.149 11.5 11.5s-5.149 11.5-11.5 11.5z" fill="#e06e1c"/><path d="m414.485 162.81c-11.227-11.227-14.01-27.7-8.35-41.529 3.633-8.876 1.841-19.038-4.941-25.82l-9.46-9.46c-14.275-14.275-37.419-14.275-51.694 0l-172.681 172.681c-14.275 14.275-14.275 37.419 0 51.694l9.46 9.461c6.782 6.782 16.944 8.574 25.82 4.941 13.828-5.66 30.302-2.877 41.529 8.35s14.01 27.7 8.35 41.529c-3.633 8.876-1.841 19.039 4.941 25.82l9.46 9.46c14.275 14.275 37.419 14.275 51.694 0l172.681-172.681c14.275-14.275 14.275-37.419 0-51.694l-9.461-9.46c-6.782-6.782-16.944-8.574-25.82-4.941-13.828 5.659-30.301 2.876-41.528-8.351z" fill="url(#SVGID_3_)"/><path d="m293.038 111.788c-5.858-5.858-15.355-5.858-21.214 0l-125.68 125.68c-3.264 3.264-6.115 6.786-8.558 10.5h40.485l114.966-114.966c5.859-5.858 5.859-15.356.001-21.214z" fill="#e06e1c"/><path d="m128.014 401.385h-51.015c-6.351 0-11.5-5.149-11.5-11.5s5.149-11.5 11.5-11.5h51.014c6.351 0 11.5 5.149 11.5 11.5.001 6.351-5.148 11.5-11.499 11.5z" fill="#c2c8cf"/><path d="m306.279 282.516c-2.943 0-5.886-1.122-8.132-3.368-4.491-4.491-4.491-11.772 0-16.264l46.094-46.095c4.491-4.491 11.772-4.491 16.264 0 4.491 4.491 4.491 11.772 0 16.264l-46.094 46.095c-2.246 2.245-5.189 3.368-8.132 3.368z" fill="#efc534"/><path d="m189.558 338.505c.686-6.014-2.296-11.873-7.596-14.798-1.855-1.024-3.588-2.315-5.144-3.87l-9.46-9.461c-14.275-14.275-14.275-37.419 0-51.694l10.713-10.713h-70.586c-20.188 0-36.553-16.365-36.553-36.553v-13.379c0-9.605 5.946-18.044 14.801-21.767 2.531-1.064 4.921-2.396 7.14-3.954h-44.635c-.311.184-.66.392-.971.576-4.077 7.586-6.333 16.175-6.333 25.145v13.379c0 36.756 29.797 66.553 66.553 66.553h19.519c-1.882 19.158 4.498 38.978 19.14 53.62l9.461 9.461c3.624 3.625 7.654 6.623 11.954 8.989 9.288 5.109 20.795-1 21.997-11.534z" fill="#424e5e"/><g fill="#fffde3"><path d="m403.377 292.281c-2.56 0-5.118-.976-7.071-2.929-3.905-3.905-3.905-10.237 0-14.142l23.728-23.727c3.905-3.904 10.237-3.905 14.142.001 3.905 3.905 3.905 10.237 0 14.142l-23.728 23.727c-1.952 1.952-4.512 2.928-7.071 2.928z"/><path d="m456.108 239.55c-2.559 0-5.119-.976-7.071-2.929-3.905-3.905-3.905-10.237 0-14.143l3.386-3.386c3.905-3.905 10.237-3.905 14.142 0s3.905 10.237 0 14.143l-3.386 3.386c-1.952 1.953-4.512 2.929-7.071 2.929z"/></g></g></svg>