<svg id="Capa_1" enable-background="new 0 0 502 502" height="512" viewBox="0 0 502 502" width="512" xmlns="http://www.w3.org/2000/svg" xmlns:xlink="http://www.w3.org/1999/xlink"><linearGradient id="SVGID_1_" gradientUnits="userSpaceOnUse" x1="251" x2="251" y1="159.1" y2="15.605"><stop offset="0" stop-color="#53aae6"/><stop offset="1" stop-color="#a4d2f0"/></linearGradient><linearGradient id="SVGID_2_" gradientUnits="userSpaceOnUse" x1="251" x2="251" y1="597.959" y2="200.158"><stop offset="0" stop-color="#74d2e8"/><stop offset="1" stop-color="#baeaf5"/></linearGradient><linearGradient id="SVGID_3_" gradientUnits="userSpaceOnUse" x1="251" x2="251" y1="448.966" y2="254.503"><stop offset="0" stop-color="#f9edaf"/><stop offset="1" stop-color="#fffcdd"/></linearGradient><linearGradient id="SVGID_4_" gradientUnits="userSpaceOnUse" x1="251" x2="251" y1="403.587" y2="303.918"><stop offset="0" stop-color="#ec6f80"/><stop offset="1" stop-color="#eca0aa"/></linearGradient><g><path d="m361.137 232.511c-14.511 0-26.274-11.763-26.274-26.274v-69.826c0-46.242-37.621-83.863-83.863-83.863s-83.863 37.621-83.863 83.863v69.826c0 14.511-11.763 26.274-26.274 26.274s-26.274-11.763-26.274-26.274v-69.826c0-75.217 61.193-136.411 136.411-136.411s136.411 61.194 136.411 136.411v69.826c0 14.511-11.763 26.274-26.274 26.274z" fill="url(#SVGID_1_)"/><path d="m119.997 144.578c14.552 7.894 31.34 10.03 47.14 6.343v-14.51c0-8.438 1.266-16.584 3.595-24.272l-4.987 2.394c-4.349 2.087-9 3.146-13.823 3.146-5.305 0-10.573-1.337-15.236-3.866l-15.792-8.566c-.794-.431-1.597-.841-2.405-1.241-2.542 10.392-3.899 21.242-3.899 32.406v5.233z" fill="#0099cf"/><path d="m369.341 129.214c-2.635-7.388-9.856-11.968-17.69-11.575-.523.026-1.047.039-1.572.039-4.756 0-9.536-1.088-13.824-3.146l-4.986-2.393c2.329 7.688 3.595 15.833 3.595 24.272v14.51c6.301 1.471 12.76 2.013 19.17 1.632 11.583-.687 19.205-12.409 15.307-23.339z" fill="#0099cf"/><path d="m371.941 502h-241.882c-44.703 0-80.942-36.239-80.942-80.942v-252.26c0-28.276 30.233-46.27 55.087-32.787l15.793 8.567c18.881 10.242 41.529 10.803 60.893 1.508l27.919-13.401c26.67-12.802 57.71-12.802 84.381 0l27.919 13.401c19.365 9.295 42.013 8.734 60.893-1.508l15.793-8.567c24.854-13.483 55.087 4.512 55.087 32.787v252.259c.001 44.704-36.238 80.943-80.941 80.943z" fill="url(#SVGID_2_)"/><path d="m265.995 443.759h-67.761c-19.396 0-35.119-15.723-35.119-35.119v-41.148c0-9.665-7.835-17.5-17.5-17.5-9.665 0-17.5 7.835-17.5 17.5v41.148c0 38.726 31.393 70.119 70.119 70.119h67.761c9.665 0 17.5-7.835 17.5-17.5 0-9.665-7.835-17.5-17.5-17.5z" fill="#18c9de"/><path d="m303.767 443.759h-105.534c-19.396 0-35.119-15.723-35.119-35.119v-105.533c0-19.396 15.723-35.119 35.119-35.119h105.533c19.396 0 35.119 15.723 35.119 35.119v105.533c.001 19.396-15.723 35.119-35.118 35.119z" fill="url(#SVGID_3_)"/><path d="m205.955 387.746v-63.745c0-7.275 5.897-13.172 13.172-13.172h63.745c7.275 0 13.172 5.897 13.172 13.172v63.745c0 7.275-5.897 13.172-13.172 13.172h-63.745c-7.274 0-13.172-5.897-13.172-13.172z" fill="url(#SVGID_4_)"/><g><ellipse cx="163.114" cy="236.319" fill="#eaadcd" rx="14.936" ry="12.003"/><ellipse cx="338.886" cy="236.319" fill="#eaadcd" rx="14.936" ry="12.003"/><ellipse cx="188.721" cy="206.702" fill="#fff" rx="29.618" ry="29.618" transform="matrix(.386 -.922 .922 .386 -74.824 300.964)"/><ellipse cx="313.279" cy="206.702" fill="#fff" rx="29.618" ry="29.618" transform="matrix(.309 -.951 .951 .309 19.876 440.761)"/><g fill="#3b3b44"><g><ellipse cx="188.721" cy="206.702" rx="17.652" ry="17.652" transform="matrix(.19 -.982 .982 .19 -50.03 352.781)"/><ellipse cx="313.279" cy="206.702" rx="17.652" ry="17.652" transform="matrix(.189 -.982 .982 .189 51.063 475.239)"/></g><path d="m251 237.261c-5.248 0-10.495-1.984-14.776-5.954-2.025-1.877-2.145-5.041-.267-7.066s5.041-2.144 7.066-.267c4.697 4.355 11.256 4.355 15.954 0 2.023-1.875 5.188-1.759 7.065.267 1.878 2.025 1.759 5.189-.267 7.066-4.28 3.97-9.528 5.954-14.775 5.954z"/></g></g><g fill="#e3fcff"><path d="m421.57 285.476c-5.522 0-10-4.477-10-10v-8.926c0-5.523 4.478-10 10-10s10 4.477 10 10v8.926c0 5.523-4.477 10-10 10z"/><path d="m421.57 365.108c-5.522 0-10-4.477-10-10v-39.045c0-5.523 4.478-10 10-10s10 4.477 10 10v39.045c0 5.523-4.477 10-10 10z"/></g></g></svg>