<svg id="Capa_1" enable-background="new 0 0 502 502" height="512" viewBox="0 0 502 502" width="512" xmlns="http://www.w3.org/2000/svg" xmlns:xlink="http://www.w3.org/1999/xlink"><linearGradient id="SVGID_1_" gradientUnits="userSpaceOnUse" x1="251" x2="251" y1="359.248" y2="-3.713"><stop offset="0" stop-color="#f4d952"/><stop offset="1" stop-color="#f9edaf"/></linearGradient><linearGradient id="SVGID_2_" gradientUnits="userSpaceOnUse" x1="64.471" x2="64.471" y1="359.248" y2="-3.713"><stop offset="0" stop-color="#f4c22c"/><stop offset="1" stop-color="#f9e198"/></linearGradient><linearGradient id="SVGID_3_" gradientUnits="userSpaceOnUse" x1="253.089" x2="253.089" y1="387.559" y2="457.277"><stop offset="0" stop-color="#f9edaf"/><stop offset="1" stop-color="#fffcdd"/></linearGradient><linearGradient id="SVGID_4_" gradientUnits="userSpaceOnUse" x1="-2.217" x2="491.028" y1="413.439" y2="413.439"><stop offset="0" stop-color="#ea7d32"/><stop offset="1" stop-color="#f0b160"/></linearGradient><linearGradient id="SVGID_5_" gradientUnits="userSpaceOnUse" x1="202.969" x2="202.969" y1="128.538" y2="1.523"><stop offset="0" stop-color="#ec6f80"/><stop offset="1" stop-color="#eca0aa"/></linearGradient><g><path d="m395.069 22.862h-286.454c-48.761 0-88.289 39.528-88.289 88.289v302.287h255.021l206.327-60.821v-243.15c0-47.83-38.774-86.605-86.605-86.605z" fill="url(#SVGID_1_)"/><path d="m20.326 111.152v302.287h88.289v-390.577c-48.761 0-88.289 39.529-88.289 88.29z" fill="url(#SVGID_2_)"/><path d="m52.244 370.565h401.69v85.748h-401.69z" fill="url(#SVGID_3_)"/><path d="m453.934 502h-345.047c-48.832 0-88.561-39.728-88.561-88.561s39.729-88.561 88.561-88.561h345.047c15.321 0 27.74 12.42 27.74 27.74s-12.419 27.74-27.74 27.74h-345.047c-18.241 0-33.081 14.84-33.081 33.082 0 18.241 14.84 33.082 33.081 33.082h345.047c15.321 0 27.74 12.42 27.74 27.74 0 15.318-12.419 27.738-27.74 27.738z" fill="url(#SVGID_4_)"/><path d="m178.31 119.098 12.441-8.058c7.434-4.815 17.003-4.815 24.437 0l12.441 8.058c14.954 9.686 34.694-1.048 34.694-18.865v-77.371c-.001-12.626-10.236-22.862-22.863-22.862h-72.982c-12.627 0-22.862 10.236-22.862 22.862v77.371c-.001 17.817 19.739 28.551 34.694 18.865z" fill="url(#SVGID_5_)"/><g><ellipse cx="207.259" cy="236.319" fill="#eaadcd" rx="14.936" ry="12.003"/><ellipse cx="383.03" cy="236.319" fill="#eaadcd" rx="14.936" ry="12.003"/><circle cx="232.866" cy="206.702" fill="#fff" r="29.618"/><ellipse cx="244.831" cy="206.702" fill="#3b3b44" rx="17.652" ry="17.652" transform="matrix(.23 -.973 .973 .23 -12.591 397.493)"/><circle cx="357.423" cy="206.702" fill="#fff" r="29.618"/><g fill="#3b3b44"><ellipse cx="369.327" cy="206.702" rx="17.652" ry="17.652" transform="matrix(.707 -.707 .707 .707 -37.987 321.695)"/><ellipse cx="295.145" cy="229.154" rx="13.252" ry="17.352"/></g></g><path d="m251.794 132.676c-2.631-5.657-8.081-9.403-14.286-10.049-3.353-.349-6.723-1.483-9.88-3.528l-12.441-8.058c-7.434-4.815-17.003-4.815-24.437 0l-12.441 8.058c-14.954 9.685-34.694-1.048-34.694-18.865v-77.372h-35v77.371c0 45.638 50.725 72.849 88.722 48.241l5.632-3.648 5.633 3.649c8.19 5.304 16.95 8.202 25.658 9.033 13.471 1.287 23.241-12.562 17.534-24.832z" fill="#efc534"/><g fill="#fffde3"><path d="m443.105 271.184c-5.522 0-10-4.477-10-10v-40.034c0-5.523 4.478-10 10-10s10 4.477 10 10v40.033c0 5.524-4.477 10.001-10 10.001z"/><path d="m443.105 190.624c-5.522 0-10-4.477-10-10v-8.896c0-5.523 4.478-10 10-10s10 4.477 10 10v8.896c0 5.524-4.477 10-10 10z"/></g></g></svg>