<svg id="Capa_1" enable-background="new 0 0 502 502" height="512" viewBox="0 0 502 502" width="512" xmlns="http://www.w3.org/2000/svg" xmlns:xlink="http://www.w3.org/1999/xlink"><linearGradient id="lg1"><stop offset="0" stop-color="#c5cccc"/><stop offset="1" stop-color="#e6e6e6"/></linearGradient><linearGradient id="SVGID_1_" gradientUnits="userSpaceOnUse" x1="251" x2="251" xlink:href="#lg1" y1="100.804" y2="16.656"/><linearGradient id="SVGID_2_" gradientUnits="userSpaceOnUse" x1="123.108" x2="-5.711" xlink:href="#lg1" y1="167.585" y2="167.585"/><linearGradient id="SVGID_3_" gradientUnits="userSpaceOnUse" x1="383.828" x2="473.17" xlink:href="#lg1" y1="167.585" y2="167.585"/><linearGradient id="SVGID_4_" gradientUnits="userSpaceOnUse" x1="251" x2="251" xlink:href="#lg1" y1="402.074" y2="498.711"/><linearGradient id="SVGID_5_" gradientUnits="userSpaceOnUse" x1="125.521" x2="-2.008" xlink:href="#lg1" y1="334.415" y2="334.415"/><linearGradient id="SVGID_6_" gradientUnits="userSpaceOnUse" x1="364.911" x2="491.721" xlink:href="#lg1" y1="334.415" y2="334.415"/><linearGradient id="SVGID_7_" gradientUnits="userSpaceOnUse" x1="251" x2="251" y1="424.778" y2="40.397"><stop offset="0" stop-color="#d4dbdb"/><stop offset="1" stop-color="#f3f3f3"/></linearGradient><linearGradient id="SVGID_8_" gradientUnits="userSpaceOnUse" x1="251" x2="251" y1="208.861" y2="322.38"><stop offset="0" stop-color="#4e5660"/><stop offset="1" stop-color="#64768d"/></linearGradient><g><path d="m273.41 0h-44.82c-19.077 0-35.679 13.049-40.187 31.586l-18.568 76.353h162.33l-18.568-76.353c-4.507-18.537-21.11-31.586-40.187-31.586z" fill="url(#SVGID_1_)"/><path d="m44.833 106.092-22.41 38.816c-9.539 16.521-6.539 37.423 7.26 50.596l56.84 54.257 81.165-140.582-75.408-22.097c-18.307-5.365-37.909 2.489-47.447 19.01z" fill="url(#SVGID_2_)"/><path d="m457.167 106.092 22.41 38.816c9.539 16.521 6.539 37.423-7.26 50.596l-56.84 54.257-81.165-140.582 75.408-22.097c18.307-5.365 37.909 2.489 47.447 19.01z" fill="url(#SVGID_3_)"/><path d="m273.41 502h-44.82c-19.077 0-35.679-13.049-40.187-31.586l-18.568-76.353h162.33l-18.568 76.353c-4.507 18.537-21.11 31.586-40.187 31.586z" fill="url(#SVGID_4_)"/><path d="m44.833 395.908-22.41-38.816c-9.539-16.521-6.539-37.423 7.26-50.596l56.84-54.257 81.165 140.582-75.408 22.097c-18.307 5.365-37.909-2.489-47.447-19.01z" fill="url(#SVGID_5_)"/><path d="m457.167 395.908 22.41-38.816c9.539-16.521 6.539-37.423-7.26-50.596l-56.84-54.257-81.165 140.582 75.408 22.097c18.307 5.365 37.909-2.489 47.447-19.01z" fill="url(#SVGID_6_)"/><circle cx="251" cy="251" fill="url(#SVGID_7_)" r="179.602"/><g fill="#aeb4ba"><path d="m286.701 442.84c-1.44-8.279-9.036-14.023-17.396-13.169-6.018.615-12.124.932-18.304.932-27.332 0-53.231-6.116-76.422-17.037l9.267 38.109c21.109 7.083 43.691 10.928 67.154 10.928 7.274 0 14.463-.37 21.549-1.091 9.239-.941 15.743-9.523 14.152-18.672z"/><path d="m72.033 266.072-28.406 27.115c9.314 45.855 33.509 86.364 67.298 116.268l37.533-10.998c-42.703-29.752-71.87-77.571-76.425-132.385z"/><path d="m72.033 235.928c4.555-54.815 33.723-102.633 76.425-132.385l-37.533-10.998c-33.789 29.904-57.984 70.413-67.298 116.268z"/></g><circle cx="251" cy="251" fill="url(#SVGID_8_)" r="69.81"/><g><ellipse cx="163.115" cy="164.984" fill="#eaadcd" rx="14.936" ry="12.003"/><ellipse cx="338.886" cy="164.984" fill="#eaadcd" rx="14.936" ry="12.003"/><circle cx="188.721" cy="135.366" fill="#fff" r="29.618"/><circle cx="313.279" cy="135.366" fill="#fff" r="29.618"/><g fill="#3b3b44"><g><circle cx="188.721" cy="135.366" r="17.652"/><circle cx="313.279" cy="135.366" r="17.652"/></g><path d="m251 165.926c-5.247 0-10.495-1.984-14.775-5.954-2.025-1.878-2.145-5.041-.267-7.066 1.876-2.026 5.042-2.144 7.065-.267 4.697 4.354 11.256 4.354 15.953 0 2.024-1.877 5.188-1.759 7.065.267 1.878 2.025 1.759 5.188-.267 7.066-4.279 3.969-9.527 5.954-14.774 5.954z"/></g></g><g fill="#fff"><path d="m397.022 284.306c-.52 0-1.047-.041-1.577-.125-5.455-.864-9.177-5.987-8.313-11.441.588-3.709 1.029-7.499 1.311-11.263.412-5.507 5.233-9.63 10.72-9.224 5.508.413 9.637 5.213 9.224 10.72-.323 4.309-.828 8.648-1.501 12.896-.78 4.925-5.031 8.437-9.864 8.437z"/><path d="m395.862 231.366c-4.655 0-8.824-3.269-9.788-8.008-2.142-10.522-5.527-20.792-10.064-30.526-2.334-5.006-.167-10.956 4.839-13.288 5.005-2.335 10.955-.167 13.288 4.838 5.2 11.156 9.081 22.928 11.535 34.988 1.102 5.412-2.393 10.692-7.805 11.794-.673.136-1.344.202-2.005.202z"/></g></g></svg>