<svg id="Capa_1" enable-background="new 0 0 502 502" height="512" viewBox="0 0 502 502" width="512" xmlns="http://www.w3.org/2000/svg" xmlns:xlink="http://www.w3.org/1999/xlink"><linearGradient id="SVGID_1_" gradientUnits="userSpaceOnUse" x1="251" x2="251" y1="398.401" y2="484.81"><stop offset="0" stop-color="#f4c22c"/><stop offset="1" stop-color="#f9e198"/></linearGradient><linearGradient id="SVGID_2_" gradientUnits="userSpaceOnUse" x1="-13.809" x2="534.449" y1="225.199" y2="225.199"><stop offset="0" stop-color="#f4d952"/><stop offset="1" stop-color="#f9edaf"/></linearGradient><linearGradient id="SVGID_3_" gradientUnits="userSpaceOnUse" x1="251" x2="251" y1="285.27" y2="24.538"><stop offset="0" stop-color="#74d2e8"/><stop offset="1" stop-color="#baeaf5"/></linearGradient><linearGradient id="SVGID_4_" gradientUnits="userSpaceOnUse" x1="155.731" x2="311.477" y1="290.028" y2="290.028"><stop offset="0" stop-color="#4e5660"/><stop offset="1" stop-color="#64768d"/></linearGradient><g><path d="m344.825 368.534c-8.055 50.882-59.422 133.466-93.825 133.466s-85.77-82.584-93.825-133.466z" fill="url(#SVGID_1_)"/><path d="m289.221 433.264c-.999-9.218-9.01-16.03-18.271-15.582-6.507.314-13.157.475-19.95.475-29.816 0-56.895-3.066-81.214-8.751 5.732 13.391 12.904 26.986 20.858 39.488 19.185 2.826 39.342 4.262 60.356 4.262 7.356 0 14.605-.179 21.744-.533 10.032-.496 17.559-9.373 16.477-19.359z" fill="#fcb500"/><ellipse cx="251" cy="225.199" fill="url(#SVGID_2_)" rx="239.563" ry="192.958"/><path d="m313.597 337.686c-4.274-6.14-12.004-8.974-19.169-6.824-5.003 1.501-10.305 2.31-15.798 2.31h-55.26c-30.387 0-55.02-24.633-55.02-55.02v-8.786c0-12.416 10.065-22.481 22.481-22.481h2.488c0-35.187-60.574-69.982-60.574-139.965 0-23.078 8.087-44.447 21.838-61.92-18.605 5.455-35.421 12.542-50.432 21.035-4.215 13.08-6.406 26.814-6.406 40.885 0 52.205 25.725 88.057 44.508 114.234 1.962 2.733 4.245 5.915 6.464 9.129-9.531 10.264-15.368 24.006-15.368 39.083v8.786c0 49.716 40.303 90.02 90.02 90.02h55.26c8.915 0 17.531-1.303 25.668-3.729 11.398-3.399 16.094-16.997 9.3-26.757z" fill="#efc534"/><path d="m132.746 106.92c0-59.051 52.944-106.92 118.254-106.92s118.254 47.869 118.254 106.92c0 69.983-60.574 104.779-60.574 139.965h-115.36c0-35.187-60.574-69.983-60.574-139.965z" fill="url(#SVGID_3_)"/><path d="m278.63 333.171h-55.26c-30.386 0-55.02-24.633-55.02-55.02v-8.786c0-12.416 10.065-22.481 22.481-22.481h120.337c12.416 0 22.481 10.065 22.481 22.481v8.786c0 30.387-24.633 55.02-55.019 55.02z" fill="url(#SVGID_4_)"/><g fill="#fffde3"><path d="m460.563 235.198c-5.523 0-10-4.477-10-10 0-10.582-.99-20.929-2.942-30.752-1.077-5.417 2.442-10.681 7.859-11.758 5.418-1.071 10.681 2.442 11.757 7.859 2.207 11.104 3.326 22.763 3.326 34.65 0 5.524-4.478 10.001-10 10.001z"/><path d="m444.123 164.05c-3.627 0-7.126-1.979-8.9-5.426-1.598-3.105-3.343-6.184-5.186-9.148-2.916-4.69-1.477-10.857 3.213-13.773 4.69-2.915 10.857-1.477 13.772 3.214 2.126 3.421 4.14 6.972 5.984 10.555 2.527 4.91.595 10.94-4.315 13.468-1.464.752-3.028 1.11-4.568 1.11z"/></g><path d="m282.613 150.409c-2.652 0-5.196-1.054-7.071-2.929l-24.542-24.542-24.542 24.542c-1.876 1.875-4.419 2.929-7.071 2.929-2.652 0-5.196-1.054-7.071-2.929l-31.613-31.613c-3.905-3.905-3.905-10.237 0-14.143 3.905-3.904 10.237-3.903 14.142 0l24.542 24.542 24.542-24.542c3.905-3.904 10.237-3.904 14.143 0l24.542 24.542 24.542-24.542c3.905-3.904 10.237-3.904 14.142 0 3.905 3.905 3.906 10.237 0 14.143l-31.613 31.613c-1.876 1.875-4.419 2.929-7.072 2.929z" fill="#e3fcff"/></g></svg>