<svg id="Capa_1" enable-background="new 0 0 502 502" height="512" viewBox="0 0 502 502" width="512" xmlns="http://www.w3.org/2000/svg" xmlns:xlink="http://www.w3.org/1999/xlink"><linearGradient id="lg1"><stop offset="0" stop-color="#4e5660"/><stop offset="1" stop-color="#64768d"/></linearGradient><linearGradient id="SVGID_1_" gradientUnits="userSpaceOnUse" x1="251" x2="251" xlink:href="#lg1" y1="519.114" y2="120.019"/><linearGradient id="SVGID_2_" gradientUnits="userSpaceOnUse" x1="251" x2="251" xlink:href="#lg1" y1="207.358" y2="1.927"/><linearGradient id="lg2"><stop offset="0" stop-color="#c5cccc"/><stop offset="1" stop-color="#e6e6e6"/></linearGradient><linearGradient id="SVGID_3_" gradientTransform="matrix(-1 0 0 -1 582.287 3119.273)" gradientUnits="userSpaceOnUse" x1="398.151" x2="398.151" xlink:href="#lg2" y1="2778.464" y2="2695.409"/><linearGradient id="SVGID_4_" gradientTransform="matrix(-1 0 0 -1 582.287 2925.07)" gradientUnits="userSpaceOnUse" x1="398.151" x2="398.151" xlink:href="#lg2" y1="2692.73" y2="2609.676"/><linearGradient id="SVGID_5_" gradientUnits="userSpaceOnUse" x1="317.864" x2="317.864" xlink:href="#lg2" y1="431.688" y2="244.807"/><g><path d="m342.689 502h-183.378c-41.43 0-75.015-33.586-75.015-75.016v-351.968c-.001-41.43 33.585-75.016 75.015-75.016h183.378c41.43 0 75.016 33.586 75.016 75.016v351.969c0 41.429-33.586 75.015-75.016 75.015z" fill="url(#SVGID_1_)"/><path d="m417.705 173.719h-333.41v-98.703c0-41.43 33.586-75.016 75.016-75.016h183.378c41.43 0 75.016 33.586 75.016 75.016z" fill="url(#SVGID_2_)"/><g fill="#8196ab"><path d="m114.295 126.429c-6.351 0-11.5-5.148-11.5-11.5v-25.779c0-6.352 5.149-11.5 11.5-11.5s11.5 5.148 11.5 11.5v25.778c0 6.352-5.149 11.501-11.5 11.501z"/><path d="m124.126 58.478c-2.516 0-5.049-.821-7.168-2.513-4.963-3.963-5.774-11.199-1.812-16.162 1.677-2.101 3.523-4.103 5.484-5.948 4.625-4.352 11.903-4.133 16.256.492s4.132 11.903-.493 16.256c-1.172 1.103-2.273 2.297-3.273 3.55-2.271 2.844-5.618 4.325-8.994 4.325z"/></g><circle cx="184.136" cy="371.843" fill="url(#SVGID_3_)" r="38.174"/><circle cx="184.136" cy="263.373" fill="url(#SVGID_4_)" r="38.174"/><path d="m356.038 371.843c0 21.083-17.091 38.174-38.174 38.174s-38.174-17.091-38.174-38.174v-108.47c0-21.083 17.091-38.174 38.174-38.174s38.174 17.091 38.174 38.174z" fill="url(#SVGID_5_)"/><path d="m356.038 320.771v50.452c0 20.735-16.286 38.16-37.012 38.776-6.536.194-12.714-1.256-18.155-3.967-6.714-3.345-14.795-2.147-20.152 3.104-8.519 8.35-6.408 22.671 4.237 28.053 9.982 5.048 21.271 7.875 33.211 7.826 40.476-.166 72.87-33.806 72.87-74.283v-49.962c0-9.665-7.835-17.5-17.5-17.5-9.664.002-17.499 7.837-17.499 17.501z" fill="#424e5e"/><path d="m323.939 381.843h-12.151c-5.523 0-10-4.478-10-10s4.477-10 10-10h12.151c5.523 0 10 4.478 10 10s-4.477 10-10 10z" fill="#fff"/><path d="m333.939 263.373c0-4.349-2.782-8.04-6.66-9.416-1.376-3.877-5.067-6.659-9.416-6.659s-8.04 2.782-9.416 6.659c-3.877 1.376-6.659 5.067-6.659 9.416s2.782 8.04 6.659 9.416c1.376 3.877 5.067 6.659 9.416 6.659s8.039-2.782 9.416-6.659c3.879-1.376 6.66-5.067 6.66-9.416z" fill="#fff"/><g><ellipse cx="163.114" cy="120.234" fill="#eaadcd" rx="14.936" ry="12.003"/><ellipse cx="338.886" cy="120.234" fill="#eaadcd" rx="14.936" ry="12.003"/><path d="m218.274 88.637c-.991-15.146-13.602-27.24-28.775-27.629-16.713-.428-30.395 12.992-30.395 29.608 0 .843.035 1.678.105 2.503.422 5.01 5.857 7.994 10.349 5.738.937-.47 1.926-.894 2.937-1.294l-.011-.014c4.777-5.47 10.312-7.46 16.237-7.46 5.926 0 11.46 1.99 16.237 7.46l-.013.013c1.011.4 1.999.823 2.934 1.293 4.544 2.281 9.962-.802 10.365-5.87.115-1.423.127-2.875.03-4.348z" fill="#fff"/><path d="m251 130.42c-6.447 0-12.894-2.155-18.274-6.465-4.989-3.997-5.794-11.282-1.797-16.271 3.997-4.99 11.282-5.793 16.271-1.797 2.237 1.792 5.361 1.792 7.598 0 4.988-3.997 12.273-3.193 16.271 1.797 3.997 4.989 3.193 12.274-1.797 16.271-5.378 4.31-11.825 6.465-18.272 6.465z" fill="#3b3b44"/><path d="m188.721 94.582c5.926 0 11.473 1.082 16.237 2.967.911-2.129 1.415-4.47 1.415-6.933 0-9.749-7.903-17.652-17.652-17.652s-17.652 7.903-17.652 17.652c0 2.463.504 4.803 1.415 6.933 4.764-1.885 10.312-2.967 16.237-2.967z" fill="#3b3b44"/><path d="m342.832 88.637c-.991-15.146-13.602-27.24-28.775-27.629-16.713-.428-30.396 12.992-30.396 29.608 0 .843.036 1.678.105 2.503.422 5.01 5.857 7.994 10.349 5.738.937-.47 1.926-.894 2.937-1.294l-.011-.014c4.777-5.47 10.311-7.46 16.237-7.46s11.461 1.99 16.237 7.46l-.013.013c1.011.4 1.999.823 2.935 1.293 4.544 2.281 9.962-.802 10.365-5.87.114-1.423.126-2.875.03-4.348z" fill="#fff"/><path d="m313.279 94.582c5.925 0 11.473 1.082 16.237 2.967.911-2.129 1.415-4.47 1.415-6.933 0-9.749-7.903-17.652-17.652-17.652s-17.652 7.903-17.652 17.652c0 2.463.504 4.803 1.415 6.933 4.763-1.885 10.311-2.967 16.237-2.967z" fill="#3b3b44"/></g><path d="m184.136 445.017c30.911 0 57.404-19.266 68.107-46.42 4.376-11.102-3.756-23.177-15.68-23.656-7.382-.296-14.206 4.055-16.92 10.926-5.588 14.143-19.375 24.15-35.506 24.15-4.711 0-9.222-.854-13.387-2.415-7.3-2.736-15.52-.572-20.273 5.607-7.167 9.317-3.27 22.861 7.713 27.047 8.066 3.075 16.812 4.761 25.946 4.761z" fill="#424e5e"/></g></svg>