<svg id="Capa_1" enable-background="new 0 0 502 502" height="512" viewBox="0 0 502 502" width="512" xmlns="http://www.w3.org/2000/svg" xmlns:xlink="http://www.w3.org/1999/xlink"><linearGradient id="SVGID_1_" gradientUnits="userSpaceOnUse" x1="251" x2="251" y1="82.826" y2="533.815"><stop offset="0" stop-color="#4e5660"/><stop offset="1" stop-color="#64768d"/></linearGradient><linearGradient id="lg1"><stop offset="0" stop-color="#ec6f80"/><stop offset="1" stop-color="#eca0aa"/></linearGradient><linearGradient id="SVGID_2_" gradientUnits="userSpaceOnUse" x1="251" x2="251" xlink:href="#lg1" y1="431.543" y2="232.991"/><linearGradient id="SVGID_3_" gradientUnits="userSpaceOnUse" x1="171.58" x2="171.58" xlink:href="#lg1" y1="391.852" y2="271.225"/><linearGradient id="SVGID_4_" gradientUnits="userSpaceOnUse" x1="92.16" x2="92.16" xlink:href="#lg1" y1="419.28" y2="246.789"/><linearGradient id="lg2"><stop offset="0" stop-color="#f9edaf"/><stop offset="1" stop-color="#fffcdd"/></linearGradient><linearGradient id="SVGID_5_" gradientUnits="userSpaceOnUse" x1="330.42" x2="330.42" xlink:href="#lg2" y1="387.656" y2="276.81"/><linearGradient id="SVGID_6_" gradientUnits="userSpaceOnUse" x1="409.84" x2="409.84" xlink:href="#lg2" y1="370.693" y2="291.533"/><linearGradient id="SVGID_7_" gradientUnits="userSpaceOnUse" x1="251" x2="251" y1="169.077" y2="40.994"><stop offset="0" stop-color="#c5cccc"/><stop offset="1" stop-color="#e6e6e6"/></linearGradient><g><path d="m401.701 502h-301.402c-55.394 0-100.299-44.905-100.299-100.299v-248.477h502v248.477c0 55.394-44.905 100.299-100.299 100.299z" fill="url(#SVGID_1_)"/><g><path d="m251 439.73c-11.046 0-20-8.954-20-20v-184.011c0-11.046 8.954-20 20-20s20 8.954 20 20v184.011c0 11.046-8.954 20-20 20z" fill="url(#SVGID_2_)"/><path d="m171.58 396.269c-11.046 0-20-8.954-20-20v-97.089c0-11.046 8.954-20 20-20s20 8.954 20 20v97.089c0 11.046-8.954 20-20 20z" fill="url(#SVGID_3_)"/><path d="m92.16 424.452c-11.046 0-20-8.954-20-20v-153.455c0-11.046 8.954-20 20-20s20 8.954 20 20v153.455c0 11.046-8.954 20-20 20z" fill="url(#SVGID_4_)"/><path d="m330.42 396.269c-11.046 0-20-8.954-20-20v-97.089c0-11.046 8.954-20 20-20s20 8.954 20 20v97.089c0 11.046-8.954 20-20 20z" fill="url(#SVGID_5_)"/><path d="m409.84 377.835c-11.046 0-20-8.954-20-20v-60.221c0-11.046 8.954-20 20-20s20 8.954 20 20v60.221c0 11.046-8.954 20-20 20z" fill="url(#SVGID_6_)"/></g><path d="m146.604 203.224h-146.604v-50h146.604c13.807 0 25 11.193 25 25-.001 13.807-11.193 25-25 25z" fill="#424e5e"/><path d="m502 153.224h-502v-52.925c0-55.394 44.905-100.299 100.299-100.299h301.402c55.394 0 100.299 44.905 100.299 100.299z" fill="url(#SVGID_7_)"/><g><ellipse cx="163.114" cy="101.926" fill="#eaadcd" rx="14.936" ry="12.003"/><ellipse cx="338.886" cy="101.926" fill="#eaadcd" rx="14.936" ry="12.003"/><circle cx="188.721" cy="72.308" fill="#fff" r="29.618"/><ellipse cx="200.687" cy="72.308" fill="#3b3b44" rx="17.652" ry="17.652" transform="matrix(.228 -.974 .974 .228 84.521 251.219)"/><circle cx="313.279" cy="72.308" fill="#fff" r="29.618"/><g fill="#3b3b44"><ellipse cx="325.182" cy="72.308" rx="17.652" ry="17.652" transform="matrix(.383 -.924 .924 .383 133.936 345.066)"/><ellipse cx="251" cy="94.76" rx="13.252" ry="17.352"/></g></g><g fill="#fff"><path d="m472 110.299c-5.522 0-10-4.478-10-10 0-2.284-.148-4.686-.441-7.138-.654-5.483 3.26-10.46 8.744-11.115 5.479-.654 10.46 3.26 11.115 8.744.386 3.235.582 6.435.582 9.509 0 5.522-4.478 10-10 10z"/><path d="m455.511 65.122c-2.85 0-5.681-1.212-7.658-3.563-5.898-7.015-13.415-12.681-21.734-16.387-5.045-2.247-7.314-8.158-5.066-13.203 2.247-5.047 8.158-7.314 13.203-5.066 11.072 4.932 21.066 12.464 28.904 21.783 3.555 4.228 3.01 10.535-1.217 14.09-1.876 1.577-4.16 2.346-6.432 2.346z"/></g></g></svg>