<svg id="Capa_1" enable-background="new 0 0 502 502" height="512" viewBox="0 0 502 502" width="512" xmlns="http://www.w3.org/2000/svg" xmlns:xlink="http://www.w3.org/1999/xlink"><linearGradient id="SVGID_1_" gradientUnits="userSpaceOnUse" x1="251" x2="251" y1="507.885" y2="35.456"><stop offset="0" stop-color="#6ac65e"/><stop offset="1" stop-color="#afd986"/></linearGradient><linearGradient id="SVGID_2_" gradientUnits="userSpaceOnUse" x1="251" x2="251" y1="436.335" y2="76.024"><stop offset="0" stop-color="#81d676"/><stop offset="1" stop-color="#c3e6a1"/></linearGradient><linearGradient id="SVGID_3_" gradientUnits="userSpaceOnUse" x1="251" x2="251" y1="226.053" y2="14.239"><stop offset="0" stop-color="#53aae6"/><stop offset="1" stop-color="#a4d2f0"/></linearGradient><linearGradient id="SVGID_4_" gradientUnits="userSpaceOnUse" x1="251" x2="251" y1="323.275" y2="222.239"><stop offset="0" stop-color="#f9edaf"/><stop offset="1" stop-color="#fffcdd"/></linearGradient><linearGradient id="SVGID_5_" gradientUnits="userSpaceOnUse" x1="394.321" x2="394.321" y1="324.807" y2="12.987"><stop offset="0" stop-color="#4e5660"/><stop offset="1" stop-color="#64768d"/></linearGradient><linearGradient id="SVGID_6_" gradientUnits="userSpaceOnUse" x1="394.321" x2="394.321" y1="293.057" y2="40.518"><stop offset="0" stop-color="#f4d952"/><stop offset="1" stop-color="#f9edaf"/></linearGradient><g><path d="m428.484 73.516c-61.123 0-290.478 0-354.968 0-45.422 45.422-73.516 108.172-73.516 177.484 0 138.624 112.377 251 251 251s251-112.376 251-251c0-69.312-28.094-132.062-73.516-177.484z" fill="url(#SVGID_1_)"/><path d="m337.683 350.602h113.277c11.791 0 23.034-2.388 33.276-6.7 8.566-21.486 14.246-44.433 16.568-68.365-5.023 22.912-25.425 40.065-49.844 40.065h-113.278z" fill="#04b048"/><circle cx="251" cy="251" fill="url(#SVGID_2_)" r="162.326"/><path d="m73.516 73.516 177.484 177.484s121.578-121.578 177.484-177.484c-45.422-45.422-108.172-73.516-177.484-73.516s-132.062 28.094-177.484 73.516z" fill="url(#SVGID_3_)"/><circle cx="251" cy="251" fill="url(#SVGID_4_)" r="52.744"/><path d="m450.96 315.602h-113.278c-28.189 0-51.04-22.851-51.04-51.04v-213.522c0-28.189 22.852-51.04 51.04-51.04h113.278c28.189 0 51.04 22.851 51.04 51.04v213.522c0 28.188-22.851 51.04-51.04 51.04z" fill="url(#SVGID_5_)"/><path d="m450.96 30h-17.41c-3.959 0-7.168 3.209-7.168 7.168v3.868c0 3.959-3.209 7.168-7.168 7.168h-49.785c-3.959 0-7.168-3.209-7.168-7.168v-3.868c0-3.959-3.209-7.168-7.168-7.168h-17.41c-11.62 0-21.04 9.42-21.04 21.04v213.521c0 11.62 9.42 21.04 21.04 21.04h113.277c11.62 0 21.04-9.42 21.04-21.04v-213.521c0-11.62-9.42-21.04-21.04-21.04z" fill="url(#SVGID_6_)"/><g><ellipse cx="306.436" cy="189.92" fill="#eaadcd" rx="14.936" ry="12.003"/><ellipse cx="482.207" cy="189.92" fill="#eaadcd" rx="14.936" ry="12.003"/><ellipse cx="332.043" cy="160.303" fill="#fff" rx="29.618" ry="29.618" transform="matrix(.383 -.924 .924 .383 56.875 405.725)"/><ellipse cx="456.6" cy="160.303" fill="#fff" rx="29.618" ry="29.618" transform="matrix(.383 -.924 .924 .383 133.766 520.801)"/><g fill="#3b3b44"><g><ellipse cx="332.042" cy="160.303" rx="17.652" ry="17.652" transform="matrix(.189 -.982 .982 .189 111.84 456.039)"/><ellipse cx="456.6" cy="160.303" rx="17.652" ry="17.652" transform="matrix(.29 -.957 .957 .29 170.86 550.858)"/></g><path d="m394.321 190.862c-5.248 0-10.495-1.984-14.776-5.953-2.025-1.878-2.145-5.041-.268-7.066 1.878-2.026 5.043-2.143 7.066-.268 4.697 4.355 11.257 4.355 15.954.001 2.024-1.877 5.188-1.759 7.065.267 1.878 2.024 1.759 5.188-.267 7.065-4.279 3.97-9.527 5.954-14.774 5.954z"/></g></g><path d="m337.682 315.602c-7.16 0-13.973-1.477-20.155-4.141-7.041-3.034-15.217-1.371-20.29 4.378-7.814 8.857-4.81 22.81 6.005 27.558 10.55 4.631 22.199 7.205 34.44 7.205h41.494c8.311-10.68 15.313-22.427 20.773-35z" fill="#44c276"/><g fill="#c7f0b6"><path d="m55.008 363.246c-3.606 0-7.088-1.955-8.873-5.373-1.683-3.223-3.313-6.535-4.846-9.846-2.32-5.012-.139-10.955 4.873-13.275s10.956-.139 13.275 4.873c1.399 3.022 2.889 6.047 4.426 8.99 2.557 4.896.66 10.937-4.235 13.493-1.478.772-3.061 1.138-4.62 1.138z"/><path d="m100.271 422.681c-2.443 0-4.892-.89-6.819-2.688-8.749-8.16-16.929-17.07-24.312-26.482-3.408-4.345-2.649-10.631 1.696-14.04 4.344-3.406 10.632-2.65 14.04 1.696 6.746 8.6 14.222 16.742 22.218 24.2 4.038 3.767 4.259 10.095.491 14.134-1.968 2.112-4.638 3.18-7.314 3.18z"/></g></g></svg>