<svg id="Capa_1" enable-background="new 0 0 502 502" height="512" viewBox="0 0 502 502" width="512" xmlns="http://www.w3.org/2000/svg" xmlns:xlink="http://www.w3.org/1999/xlink"><linearGradient id="SVGID_1_" gradientUnits="userSpaceOnUse" x1="240.237" x2="240.237" y1="462.515" y2="124.055"><stop offset="0" stop-color="#74d2e8"/><stop offset="1" stop-color="#baeaf5"/></linearGradient><linearGradient id="SVGID_2_" gradientUnits="userSpaceOnUse" x1="240.237" x2="240.237" y1="382.028" y2="158.658"><stop offset="0" stop-color="#f9edaf"/><stop offset="1" stop-color="#fffcdd"/></linearGradient><linearGradient id="SVGID_3_" gradientUnits="userSpaceOnUse" x1="506.316" x2="146.73" y1="174.865" y2="174.865"><stop offset="0" stop-color="#dd5c6e"/><stop offset="1" stop-color="#ec8290"/></linearGradient><linearGradient id="SVGID_4_" gradientUnits="userSpaceOnUse" x1="415.447" x2="415.447" y1="273.93" y2="70.561"><stop offset="0" stop-color="#ec6f80"/><stop offset="1" stop-color="#eca0aa"/></linearGradient><linearGradient id="SVGID_5_" gradientUnits="userSpaceOnUse" x1="143.846" x2="308.329" y1="267.2" y2="267.2"><stop offset="0" stop-color="#53aae6"/><stop offset="1" stop-color="#a4d2f0"/></linearGradient><g><path d="m302.272 90.964 144.135 108.101c45.423 34.067 45.423 102.201 0 136.268l-144.135 108.102c-36.761 27.571-87.308 27.571-124.07 0l-144.135-108.102c-45.423-34.067-45.423-102.201 0-136.268l144.135-108.101c36.761-27.571 87.308-27.571 124.07 0z" fill="url(#SVGID_1_)"/><path d="m81.53 251.309 146.788-110.091c7.063-5.297 16.774-5.297 23.837 0l146.788 110.091c10.594 7.946 10.594 23.837 0 31.782l-146.788 110.091c-7.063 5.297-16.774 5.297-23.837 0l-146.788-110.091c-10.594-7.946-10.594-23.837 0-31.782z" fill="url(#SVGID_2_)"/><path d="m109.636 311.844c-27.49 0-49.776-22.286-49.776-49.776 0-123.614 100.568-224.181 224.182-224.181 59.882 0 116.179 23.319 158.52 65.662 19.438 19.439 19.438 50.956-.001 70.394s-50.955 19.437-70.394-.001c-23.538-23.539-54.835-36.503-88.125-36.503-68.721 0-124.63 55.909-124.63 124.629.001 27.49-22.285 49.776-49.776 49.776z" fill="url(#SVGID_3_)"/><path d="m340.08 156.531c-19.745 19.745-12.284 53.348 13.983 62.822 45.74 16.499 105.665 21.928 130.752-3.159 25.086-25.086 19.658-85.012 3.159-130.752-9.475-26.267-43.077-33.728-62.822-13.983z" fill="url(#SVGID_4_)"/><path d="m173.891 257.038 58.725-44.044c4.516-3.387 10.726-3.387 15.243 0l58.725 44.044c6.774 5.081 6.774 15.242 0 20.323l-58.725 44.043c-4.516 3.387-10.726 3.387-15.242 0l-58.725-44.043c-6.776-5.08-6.776-15.242-.001-20.323z" fill="url(#SVGID_5_)"/><path d="m385.217 61.895-49.176 49.176c-16.512-5.671-34.026-8.632-51.998-8.632-24.251 0-47.609 5.415-68.679 15.458-9.828 4.685-13.094 17.075-6.815 25.969 4.9 6.941 14.104 9.439 21.764 5.763 16.276-7.812 34.5-12.191 53.729-12.191 21.272 0 41.725 5.301 59.865 15.264l71.99-71.991c-9.754-7.121-20.009-13.409-30.68-18.816z" fill="#d45566"/><g fill="#e3fcff"><path d="m153.078 397.099c-2.088 0-4.193-.651-5.992-2.001l-9.069-6.802c-4.418-3.313-5.314-9.581-2-14 3.313-4.418 9.582-5.314 14-2l9.069 6.802c4.418 3.313 5.313 9.581 2 14-1.964 2.619-4.968 4.001-8.008 4.001z"/><path d="m215.875 439.985c-1.102 0-2.222-.184-3.32-.57-7.977-2.808-15.497-6.839-22.353-11.98l-10.109-7.582c-4.418-3.313-5.314-9.582-2-14 3.313-4.418 9.583-5.314 14-2l10.109 7.582c5.224 3.918 10.94 6.984 16.993 9.115 5.21 1.834 7.946 7.544 6.112 12.753-1.447 4.111-5.308 6.682-9.432 6.682z"/></g></g></svg>