<svg id="Capa_1" enable-background="new 0 0 502 502" height="512" viewBox="0 0 502 502" width="512" xmlns="http://www.w3.org/2000/svg" xmlns:xlink="http://www.w3.org/1999/xlink"><linearGradient id="SVGID_1_" gradientUnits="userSpaceOnUse" x1="148.151" x2="148.151" y1="317.322" y2="-96.558"><stop offset="0" stop-color="#f5e5a2"/><stop offset="1" stop-color="#fcf7cf"/></linearGradient><linearGradient id="SVGID_2_" gradientUnits="userSpaceOnUse" x1="311.616" x2="311.616" y1="441.952" y2="77.294"><stop offset="0" stop-color="#74d2e8"/><stop offset="1" stop-color="#baeaf5"/></linearGradient><g><path d="m237.1 385.123h-177.9c-32.695 0-59.2-26.505-59.2-59.201v-209.045c0-32.695 26.505-59.201 59.201-59.201h177.9c32.696 0 59.201 26.505 59.201 59.201v209.045c-.001 32.696-26.506 59.201-59.202 59.201z" fill="url(#SVGID_1_)"/><path d="m170.699 306.526v43.016l-94.095.788c-9.494.111-17.132 7.839-17.132 17.333 0 9.622 7.837 17.403 17.459 17.334l99.724-.523c16.095-.188 29.044-13.289 29.044-29.385v-48.563c0-9.665-7.835-17.5-17.5-17.5-9.665 0-17.5 7.835-17.5 17.5z" fill="#f5c98d"/><path d="m226.304 294.716-63.523-168.324c-.04-.105-.081-.21-.124-.314-2.38-5.786-7.958-9.522-14.213-9.522h-.015c-6.262.006-11.84 3.755-14.21 9.55-.036.087-.07.174-.104.262l-64.106 168.316c-2.26 5.936.719 12.579 6.654 14.84 5.948 2.263 12.584-.729 14.84-6.654l13.145-34.513h87.125l13.012 34.48c2.242 5.942 8.878 8.938 14.82 6.699 5.942-2.243 8.942-8.878 6.699-14.82zm-112.896-49.36 35.003-91.904 34.683 91.904z" fill="#4e5c6e"/><path d="m442.799 116.877h-177.899c-32.696 0-59.201 26.505-59.201 59.201v179.012c0 16.096-12.949 29.197-29.044 29.385l-55.423.648c0 32.695 26.505 59.201 59.201 59.201h262.367c32.696 0 59.201-26.505 59.201-59.201v-209.045c-.001-32.696-26.506-59.201-59.202-59.201z" fill="url(#SVGID_2_)"/><path d="m438.263 217.015h-72.913v-26.331c0-6.352-5.149-11.5-11.5-11.5s-11.5 5.148-11.5 11.5v26.331h-72.914c-6.351 0-11.5 5.148-11.5 11.5s5.149 11.5 11.5 11.5h125.742c-2.792 17.388-11.504 37.057-24.476 54.671-3.988 5.416-8.948 11.43-14.973 17.593-15.357-11.862-30.295-27.036-39.904-44.215-3.101-5.545-10.107-7.523-15.65-4.424-5.543 3.101-7.523 10.108-4.423 15.65 10.497 18.769 26.147 35.277 42.572 48.483-11.631 8.991-25.779 17.495-42.805 24.076-5.924 2.289-8.871 8.948-6.581 14.872 2.301 5.953 8.979 8.861 14.872 6.581 21.988-8.498 39.76-19.833 53.904-31.6 13.028 8.318 25.465 14.285 35.1 17.339 6.066 1.927 12.523-1.448 14.438-7.486 1.92-6.055-1.433-12.519-7.487-14.438-6.801-2.156-15.464-6.174-24.77-11.709 5.601-5.98 10.323-11.784 14.226-17.084 16.155-21.938 26.453-46.231 29.188-68.31h19.852c6.351 0 11.5-5.148 11.5-11.5.002-6.351-5.147-11.499-11.498-11.499z" fill="#fff"/><g fill="#e3fcff"><path d="m426.461 156.877h-10.417c-5.523 0-10-4.478-10-10s4.477-10 10-10h10.417c5.523 0 10 4.478 10 10s-4.477 10-10 10z"/><path d="m472 206.468c-5.523 0-10-4.478-10-10v-20.391c0-4.484-1.589-8.852-4.474-12.297-3.545-4.234-2.987-10.542 1.247-14.087 4.236-3.546 10.542-2.987 14.087 1.247 5.893 7.039 9.139 15.966 9.139 25.137v20.391c.001 5.522-4.476 10-9.999 10z"/></g></g></svg>