<svg id="Capa_1" enable-background="new 0 0 502 502" height="512" viewBox="0 0 502 502" width="512" xmlns="http://www.w3.org/2000/svg" xmlns:xlink="http://www.w3.org/1999/xlink"><linearGradient id="lg1"><stop offset="0" stop-color="#ec6f80"/><stop offset="1" stop-color="#eca0aa"/></linearGradient><linearGradient id="SVGID_1_" gradientUnits="userSpaceOnUse" x1="229.03" x2="229.03" xlink:href="#lg1" y1="97.789" y2="-3.226"/><linearGradient id="SVGID_2_" gradientUnits="userSpaceOnUse" x1="229.03" x2="229.03" xlink:href="#lg1" y1="494.139" y2="385.985"/><linearGradient id="SVGID_3_" gradientUnits="userSpaceOnUse" x1="414.752" x2="414.752" y1="262.238" y2="155.941"><stop offset="0" stop-color="#c5cccc"/><stop offset="1" stop-color="#e6e6e6"/></linearGradient><linearGradient id="SVGID_4_" gradientUnits="userSpaceOnUse" x1="229.03" x2="229.03" y1="425.169" y2="70.204"><stop offset="0" stop-color="#d4dbdb"/><stop offset="1" stop-color="#f3f3f3"/></linearGradient><linearGradient id="SVGID_5_" gradientUnits="userSpaceOnUse" x1="229.03" x2="229.03" y1="381.675" y2="115.353"><stop offset="0" stop-color="#4e5660"/><stop offset="1" stop-color="#64768d"/></linearGradient><linearGradient id="SVGID_6_" gradientUnits="userSpaceOnUse" x1="229.03" x2="229.03" y1="379.861" y2="277.682"><stop offset="0" stop-color="#f4d952"/><stop offset="1" stop-color="#f9edaf"/></linearGradient><g><path d="m330.966 41.086c0 27.226 18.385 43.348 39.484 63.686v62.169h-282.841v-62.169c21.1-20.338 39.484-36.46 39.484-63.686v-11.375c0-16.409 13.303-29.711 29.712-29.711h144.451c16.409 0 29.711 13.302 29.711 29.711v11.375z" fill="url(#SVGID_1_)"/><path d="m330.966 460.914c0-27.226 18.385-43.348 39.484-63.686v-62.169h-282.841v62.169c21.1 20.338 39.484 36.461 39.484 63.686v11.374c0 16.409 13.302 29.711 29.711 29.711h144.451c16.409 0 29.711-13.302 29.711-29.711z" fill="url(#SVGID_2_)"/><path d="m267.262 441.274c0-9.665-7.835-17.5-17.5-17.5h-99.594c-18.419 0-35.596-5.307-50.095-14.469 14.353 14.294 25.438 27.998 26.856 47.366 7.541 1.378 15.306 2.103 23.239 2.103h99.594c9.665 0 17.5-7.835 17.5-17.5z" fill="#e05d6f"/><path d="m423.406 261.821h-39.646v-103.478h39.647c12.337 0 22.338 10.001 22.338 22.338v58.803c-.001 12.336-10.002 22.337-22.339 22.337z" fill="url(#SVGID_3_)"/><path d="m307.892 423.774h-157.724c-51.866 0-93.912-42.046-93.912-93.912v-157.724c0-51.866 42.046-93.912 93.912-93.912h157.724c51.866 0 93.912 42.046 93.912 93.912v157.724c0 51.866-42.046 93.912-93.912 93.912z" fill="url(#SVGID_4_)"/><path d="m307.892 121.371h-157.724c-28.038 0-50.767 22.729-50.767 50.767v157.724c0 16.175 7.574 30.572 19.359 39.869 7.662-7.662 50.026-1.252 62.176 10.898h96.188c12.15-12.15 54.514-18.56 62.176-10.898 11.785-9.296 19.359-23.694 19.359-39.869v-157.724c0-28.038-22.729-50.767-50.767-50.767z" fill="url(#SVGID_5_)"/><path d="m339.3 369.731c-7.465-54.185-54.066-96.054-110.271-96.054-56.204 0-102.805 41.869-110.27 96.054 8.643 6.818 19.546 10.898 31.408 10.898h30.768c2.216-24.592 22.934-43.931 48.094-43.931s45.878 19.34 48.095 43.931h30.768c11.863 0 22.766-4.08 31.408-10.898z" fill="url(#SVGID_6_)"/><g><ellipse cx="141.144" cy="199.783" fill="#eaadcd" rx="14.936" ry="12.003"/><ellipse cx="316.915" cy="199.783" fill="#eaadcd" rx="14.936" ry="12.003"/><circle cx="166.751" cy="170.165" fill="#fff" r="29.618"/><ellipse cx="154.786" cy="170.165" fill="#3b3b44" rx="17.652" ry="17.652" transform="matrix(.707 -.707 .707 .707 -74.989 159.29)"/><circle cx="291.309" cy="170.165" fill="#fff" r="29.618"/><g fill="#3b3b44"><ellipse cx="279.343" cy="170.165" rx="17.652" ry="17.652" transform="matrix(.232 -.973 .973 .232 49.132 402.526)"/><path d="m236.62 177.359h-15.181c-3.007 0-5.658 1.976-6.506 4.862-2.672 9.09-5.742 27.748 14.097 27.748 19.838 0 16.769-18.659 14.097-27.748-.849-2.885-3.499-4.862-6.507-4.862z"/></g></g><g fill="#fff"><path d="m381.76 247.882c-5.523 0-10-4.478-10-10v-36.099c0-5.523 4.477-10 10-10s10 4.477 10 10v36.099c0 5.522-4.477 10-10 10z"/><path d="m381.76 297.38c-5.523 0-10-4.478-10-10v-7.834c0-5.522 4.477-10 10-10s10 4.478 10 10v7.834c0 5.522-4.477 10-10 10z"/></g></g></svg>