<svg id="Capa_1" enable-background="new 0 0 502 502" height="512" viewBox="0 0 502 502" width="512" xmlns="http://www.w3.org/2000/svg" xmlns:xlink="http://www.w3.org/1999/xlink"><linearGradient id="lg1"><stop offset="0" stop-color="#4e5660"/><stop offset="1" stop-color="#64768d"/></linearGradient><linearGradient id="SVGID_1_" gradientUnits="userSpaceOnUse" x1="251" x2="251" xlink:href="#lg1" y1="630.159" y2="114.48"/><linearGradient id="SVGID_2_" gradientUnits="userSpaceOnUse" x1="251" x2="251" xlink:href="#lg1" y1="217.352" y2="-18.895"/><linearGradient id="SVGID_3_" gradientUnits="userSpaceOnUse" x1="251" x2="251" y1="179.573" y2="56.872"><stop offset="0" stop-color="#74d2e8"/><stop offset="1" stop-color="#baeaf5"/></linearGradient><linearGradient id="lg2"><stop offset="0" stop-color="#c5cccc"/><stop offset="1" stop-color="#e6e6e6"/></linearGradient><linearGradient id="SVGID_4_" gradientUnits="userSpaceOnUse" x1="146.379" x2="146.379" xlink:href="#lg2" y1="321.371" y2="252.304"/><linearGradient id="SVGID_5_" gradientUnits="userSpaceOnUse" x1="251" x2="251" xlink:href="#lg2" y1="321.371" y2="252.304"/><linearGradient id="lg3"><stop offset="0" stop-color="#ea7d32"/><stop offset="1" stop-color="#f0b160"/></linearGradient><linearGradient id="SVGID_6_" gradientUnits="userSpaceOnUse" x1="355.621" x2="355.621" xlink:href="#lg3" y1="321.371" y2="252.304"/><linearGradient id="SVGID_7_" gradientUnits="userSpaceOnUse" x1="198.689" x2="198.689" xlink:href="#lg2" y1="425.992" y2="356.925"/><linearGradient id="SVGID_8_" gradientUnits="userSpaceOnUse" x1="355.621" x2="355.621" xlink:href="#lg3" y1="425.992" y2="356.925"/><g><path d="m367.337 502h-232.674c-46.309 0-83.849-37.54-83.849-83.849v-334.302c0-46.309 37.54-83.849 83.849-83.849h232.674c46.309 0 83.849 37.54 83.849 83.849v334.302c0 46.309-37.54 83.849-83.849 83.849z" fill="url(#SVGID_1_)"/><path d="m402.597 394.573-.094-.01c-6.756-.692-13.07 3.281-15.511 9.619-4.851 12.598-17.064 21.537-31.372 21.537-1.486 0-2.948-.097-4.382-.285-6.202-.813-12.211 2.543-15.077 8.102-4.695 9.108.936 20.295 11.095 21.636 2.738.361 5.529.548 8.364.548 27.071 0 50.237-16.999 59.403-40.882 3.534-9.206-2.616-19.26-12.426-20.265z" fill="#424e5e"/><path d="m251 455.721c27.05 0 50.201-16.973 59.382-40.827 3.553-9.231-2.625-19.319-12.465-20.327-6.777-.694-13.104 3.294-15.558 9.648-4.859 12.581-17.064 21.505-31.359 21.505h-72.885c-8.284 0-15 6.716-15 15 0 8.284 6.716 15 15 15h72.885z" fill="#424e5e"/><path d="m451.186 216.478h-400.372v-132.629c0-46.309 37.54-83.849 83.849-83.849h232.674c46.309 0 83.849 37.54 83.849 83.849z" fill="url(#SVGID_2_)"/><path d="m354.527 179.091h-207.054c-19.171 0-34.711-15.541-34.711-34.711v-50.025c0-19.171 15.541-34.711 34.711-34.711h207.054c19.171 0 34.711 15.541 34.711 34.711v50.024c0 19.171-15.54 34.712-34.711 34.712z" fill="url(#SVGID_3_)"/><circle cx="146.379" cy="287.482" fill="url(#SVGID_4_)" r="33.617"/><circle cx="251" cy="287.482" fill="url(#SVGID_5_)" r="33.617"/><circle cx="355.621" cy="287.482" fill="url(#SVGID_6_)" r="33.617"/><path d="m251 425.72c18.566 0 33.617-15.051 33.617-33.617s-15.051-33.617-33.617-33.617h-104.621c-18.566 0-33.617 15.051-33.617 33.617s15.051 33.617 33.617 33.617z" fill="url(#SVGID_7_)"/><circle cx="355.621" cy="392.103" fill="url(#SVGID_8_)" r="33.617"/><g><ellipse cx="163.115" cy="139.702" fill="#eaadcd" rx="14.936" ry="12.003"/><ellipse cx="338.886" cy="139.702" fill="#eaadcd" rx="14.936" ry="12.003"/><circle cx="188.721" cy="110.084" fill="#fff" r="29.618"/><circle cx="313.279" cy="110.084" fill="#fff" r="29.618"/><g fill="#3b3b44"><g><circle cx="188.721" cy="110.084" r="17.652"/><circle cx="313.279" cy="110.084" r="17.652"/></g><path d="m251 140.644c-5.248 0-10.495-1.984-14.776-5.954-2.025-1.877-2.145-5.041-.267-7.065 1.878-2.025 5.041-2.145 7.066-.267 4.697 4.354 11.256 4.354 15.954 0 2.023-1.878 5.188-1.758 7.065.267 1.878 2.024 1.759 5.188-.267 7.065-4.28 3.969-9.528 5.954-14.775 5.954z"/></g></g><g fill="#8196ab"><path d="m116.158 44.793c-4.684 0-9.084-2.883-10.795-7.535-2.191-5.961.865-12.57 6.826-14.762 4.15-1.525 8.466-2.63 12.829-3.282 6.285-.937 12.135 3.392 13.074 9.674.939 6.281-3.392 12.135-9.673 13.074-2.819.421-5.609 1.135-8.294 2.122-1.309.48-2.649.709-3.967.709z"/><path d="m80.814 109.48c-6.351 0-11.5-5.148-11.5-11.5v-14.131c0-8.548 1.646-16.886 4.892-24.78 2.415-5.874 9.133-8.679 15.009-6.263 5.874 2.415 8.678 9.135 6.263 15.009-2.1 5.106-3.164 10.501-3.164 16.034v14.131c0 6.352-5.149 11.5-11.5 11.5z"/></g></g></svg>