<svg id="Capa_1" enable-background="new 0 0 502 502" height="512" viewBox="0 0 502 502" width="512" xmlns="http://www.w3.org/2000/svg" xmlns:xlink="http://www.w3.org/1999/xlink"><linearGradient id="SVGID_1_" gradientUnits="userSpaceOnUse" x1="251" x2="251" y1="209.364" y2="31.644"><stop offset="0" stop-color="#dd5c6e"/><stop offset="1" stop-color="#ec8290"/></linearGradient><linearGradient id="SVGID_2_" gradientUnits="userSpaceOnUse" x1="251" x2="251" y1="542.191" y2="144.389"><stop offset="0" stop-color="#ec6f80"/><stop offset="1" stop-color="#eca0aa"/></linearGradient><linearGradient id="lg1"><stop offset="0" stop-color="#f4c22c"/><stop offset="1" stop-color="#f9e198"/></linearGradient><linearGradient id="SVGID_3_" gradientUnits="userSpaceOnUse" x1="204.009" x2="204.009" xlink:href="#lg1" y1="310.931" y2="399.547"/><linearGradient id="lg2"><stop offset="0" stop-color="#f9edaf"/><stop offset="1" stop-color="#fffcdd"/></linearGradient><linearGradient id="SVGID_4_" gradientTransform="matrix(1 -.176 0 1 0 29.806)" gradientUnits="userSpaceOnUse" x1="182.665" x2="182.665" xlink:href="#lg2" y1="448.557" y2="372.778"/><linearGradient id="SVGID_5_" gradientUnits="userSpaceOnUse" x1="319.02" x2="319.02" xlink:href="#lg1" y1="285.542" y2="378.769"/><linearGradient id="SVGID_6_" gradientTransform="matrix(1 -.176 0 1 0 29.806)" gradientUnits="userSpaceOnUse" x1="297.677" x2="297.677" xlink:href="#lg2" y1="448.554" y2="372.775"/><linearGradient id="SVGID_7_" gradientUnits="userSpaceOnUse" x1="159.097" x2="352.323" xlink:href="#lg2" y1="288.592" y2="288.592"/><g><path d="m361.137 232.511c-14.511 0-26.274-11.763-26.274-26.274v-69.826c0-46.242-37.621-83.863-83.863-83.863s-83.863 37.621-83.863 83.863v69.826c0 14.511-11.763 26.274-26.274 26.274s-26.274-11.763-26.274-26.274v-69.826c0-75.217 61.193-136.411 136.411-136.411s136.411 61.194 136.411 136.411v69.826c0 14.511-11.763 26.274-26.274 26.274z" fill="url(#SVGID_1_)"/><path d="m119.997 144.578c14.552 7.894 31.34 10.03 47.14 6.343v-14.51c0-8.438 1.266-16.584 3.595-24.272l-4.987 2.394c-4.349 2.087-9 3.146-13.823 3.146-5.305 0-10.573-1.337-15.236-3.866l-15.792-8.566c-.794-.431-1.597-.841-2.405-1.241-2.542 10.392-3.899 21.242-3.899 32.406v5.233z" fill="#d45566"/><path d="m369.341 129.214c-2.635-7.388-9.856-11.968-17.69-11.575-.523.026-1.048.039-1.572.039-4.756 0-9.536-1.088-13.824-3.146l-4.986-2.393c2.329 7.688 3.595 15.833 3.595 24.272v14.51c6.301 1.471 12.759 2.013 19.17 1.632 11.583-.687 19.205-12.409 15.307-23.339z" fill="#d45566"/><path d="m371.941 502h-241.882c-44.703 0-80.942-36.239-80.942-80.942v-252.26c0-28.276 30.233-46.27 55.087-32.787l15.793 8.567c18.881 10.242 41.529 10.803 60.893 1.508l27.919-13.401c26.67-12.802 57.71-12.802 84.381 0l27.919 13.401c19.365 9.295 42.013 8.734 60.893-1.508l15.793-8.567c24.854-13.483 55.087 4.512 55.087 32.787v252.259c.001 44.704-36.238 80.943-80.941 80.943z" fill="url(#SVGID_2_)"/><path d="m215.087 442.316c-4.38-5.173-11.764-6.825-17.805-3.75-4.527 2.305-9.458 4.002-14.616 4.912-14.791 2.608-27.701-1.917-34.62-10.808-4.17-5.358-11.307-7.411-17.536-4.712-9.134 3.958-12.193 15.517-6.045 23.347 13.456 17.138 37.042 26.366 63.411 21.717 8.104-1.429 15.939-4.117 23.195-7.839 8.337-4.277 10.472-15.243 4.417-22.394z" fill="#e05d6f"/><path d="m330.098 422.036c-4.38-5.173-11.764-6.825-17.805-3.75-4.527 2.305-9.458 4.002-14.616 4.912-14.791 2.608-27.701-1.917-34.62-10.808-4.17-5.358-11.307-7.411-17.536-4.712-9.134 3.958-12.193 15.517-6.045 23.347 13.456 17.138 37.042 26.366 63.412 21.717 8.103-1.429 15.94-4.117 23.195-7.839 8.337-4.277 10.472-15.243 4.417-22.394z" fill="#e05d6f"/><g><ellipse cx="163.115" cy="228.319" fill="#efc5db" rx="14.936" ry="12.003"/><ellipse cx="338.886" cy="228.319" fill="#efc5db" rx="14.936" ry="12.003"/><path d="m218.274 196.723c-.991-15.146-13.602-27.24-28.775-27.629-16.713-.428-30.396 12.992-30.396 29.608 0 .843.035 1.678.105 2.503.422 5.01 5.857 7.994 10.349 5.738.937-.47 1.926-.894 2.937-1.294l-.011-.014c4.777-5.47 10.312-7.46 16.237-7.46 5.926 0 11.46 1.99 16.237 7.46l-.013.013c1.011.4 1.999.823 2.935 1.293 4.544 2.281 9.962-.802 10.365-5.87.115-1.423.127-2.875.03-4.348z" fill="#fff"/><path d="m251 238.506c-6.447 0-12.894-2.155-18.274-6.465-4.989-3.997-5.794-11.282-1.797-16.271 3.997-4.99 11.282-5.793 16.271-1.797 2.237 1.792 5.361 1.792 7.598 0 4.988-3.997 12.273-3.193 16.271 1.797 3.997 4.989 3.193 12.274-1.797 16.271-5.378 4.31-11.825 6.465-18.272 6.465z" fill="#3b3b44"/><path d="m188.721 202.667c5.926 0 11.473 1.082 16.237 2.967.911-2.129 1.415-4.47 1.415-6.933 0-9.749-7.903-17.652-17.652-17.652s-17.652 7.903-17.652 17.652c0 2.463.504 4.803 1.415 6.933 4.764-1.885 10.312-2.967 16.237-2.967z" fill="#3b3b44"/><path d="m342.832 196.723c-.991-15.146-13.602-27.24-28.775-27.629-16.713-.428-30.396 12.992-30.396 29.608 0 .843.035 1.678.105 2.503.422 5.01 5.857 7.994 10.349 5.738.937-.47 1.926-.894 2.937-1.294l-.011-.014c4.777-5.47 10.311-7.46 16.237-7.46s11.46 1.99 16.237 7.46l-.013.013c1.011.4 1.999.823 2.934 1.293 4.544 2.281 9.962-.802 10.365-5.87.115-1.423.127-2.875.031-4.348z" fill="#fff"/><path d="m313.279 202.667c5.926 0 11.473 1.082 16.237 2.967.911-2.129 1.415-4.47 1.415-6.933 0-9.749-7.903-17.652-17.652-17.652s-17.652 7.903-17.652 17.652c0 2.463.504 4.803 1.415 6.933 4.763-1.885 10.311-2.967 16.237-2.967z" fill="#3b3b44"/></g><g fill="#ffccd3"><path d="m421.57 285.476c-5.522 0-10-4.478-10-10v-8.926c0-5.522 4.478-10 10-10s10 4.478 10 10v8.926c0 5.522-4.477 10-10 10z"/><path d="m421.57 365.107c-5.522 0-10-4.477-10-10v-39.045c0-5.522 4.478-10 10-10s10 4.478 10 10v39.045c0 5.523-4.477 10-10 10z"/></g><g><path d="m185.346 326.151 21.028-18.393 16.297 11.812v82.968l-37.325 6.581z" fill="url(#SVGID_3_)"/><path d="m222.671 402.538c0 18.715-17.911 37.045-40.005 40.94-22.094 3.896-40.005-8.117-40.005-26.832s17.911-37.045 40.005-40.94c22.094-3.897 40.005 8.117 40.005 26.832z" fill="url(#SVGID_4_)"/><path d="m300.358 305.871 18.662-23.667 18.662 17.086v82.968l-37.324 6.581z" fill="url(#SVGID_5_)"/><path d="m337.682 382.258c0 18.715-17.911 37.045-40.005 40.941s-40.005-8.117-40.005-26.832 17.911-37.045 40.005-40.941c22.095-3.896 40.005 8.117 40.005 26.832z" fill="url(#SVGID_6_)"/><path d="m307.186 251.435-94.794 16.715c-15.642 2.758-27.045 16.348-27.045 32.231v25.77l152.336-26.861v-22.265c-.001-16.155-14.587-28.395-30.497-25.59z" fill="url(#SVGID_7_)"/></g></g></svg>