<svg id="Capa_1" enable-background="new 0 0 502 502" height="512" viewBox="0 0 502 502" width="512" xmlns="http://www.w3.org/2000/svg" xmlns:xlink="http://www.w3.org/1999/xlink"><linearGradient id="SVGID_1_" gradientUnits="userSpaceOnUse" x1="457.164" x2="457.164" y1="250.732" y2="369.635"><stop offset="0" stop-color="#ec6f80"/><stop offset="1" stop-color="#eca0aa"/></linearGradient><linearGradient id="SVGID_2_" gradientUnits="userSpaceOnUse" x1="405.293" x2="522.574" y1="164.537" y2="164.537"><stop offset="0" stop-color="#f4d952"/><stop offset="1" stop-color="#f9edaf"/></linearGradient><linearGradient id="SVGID_3_" gradientUnits="userSpaceOnUse" x1="230.727" x2="230.727" y1="498.355" y2="-28.665"><stop offset="0" stop-color="#74d2e8"/><stop offset="1" stop-color="#baeaf5"/></linearGradient><linearGradient id="SVGID_4_" gradientUnits="userSpaceOnUse" x1="248.3" x2="248.3" y1="306.69" y2="407.203"><stop offset="0" stop-color="#f0e09c"/><stop offset="1" stop-color="#fcf7cf"/></linearGradient><linearGradient id="SVGID_5_" gradientUnits="userSpaceOnUse" x1="98.317" x2="353.583" y1="199.103" y2="199.103"><stop offset="0" stop-color="#f9edaf"/><stop offset="1" stop-color="#fffcdd"/></linearGradient><linearGradient id="SVGID_6_" gradientUnits="userSpaceOnUse" x1="40.893" x2="40.893" y1="499.731" y2="-44.015"><stop offset="0" stop-color="#53aae6"/><stop offset="1" stop-color="#a4d2f0"/></linearGradient><g><path d="m418.072 398.407 50.086-18.23c16.869-6.14 28.097-22.175 28.097-40.126v-59.71c0-17.952-11.228-33.986-28.097-40.126l-50.086-18.23z" fill="url(#SVGID_1_)"/><path d="m450.56 337.327v-58.567l27.858-10.14c4.839-1.761 9.402-4.02 13.657-6.689-4.724-9.878-13.173-17.806-23.918-21.717l-47.597-17.324v114.436c0 8.284 6.716 15 15 15 8.285.001 15-6.715 15-14.999z" fill="#e05d6f"/><path d="m418.072 244.12 32.488 2.715 17.598-6.405c16.869-6.14 28.097-22.175 28.097-40.126v-59.71c0-17.952-11.228-33.987-28.097-40.126l-50.086-18.23z" fill="url(#SVGID_2_)"/><path d="m450.56 94.063-32.488-11.824v176.421l32.488-11.825z" fill="#efc534"/><path d="m350.266 0h-274.226c-16.825 25.824-35.147 180.461-35.147 251s18.322 225.176 35.147 251h274.225c38.823 0 70.295-31.472 70.295-70.295v-361.41c0-38.823-31.472-70.295-70.294-70.295z" fill="url(#SVGID_3_)"/><path d="m327.701 404.758c25.678 0 43.037-26.44 32.573-49.889-19.107-42.82-62.055-72.664-111.973-72.664s-92.866 29.845-111.973 72.664c-10.464 23.45 6.895 49.889 32.573 49.889z" fill="url(#SVGID_4_)"/><path d="m299.873 293.564c-15.498 7.245-33.017 11.332-51.572 11.332-9.098 0-17.946-.985-26.43-2.842-6.952-1.521-14.011 2.055-16.898 8.56-3.834 8.637 1.168 18.68 10.396 20.714 10.581 2.332 21.605 3.569 32.932 3.569 29.617 0 57.177-8.426 80.119-22.856-8.564-7.407-18.158-13.65-28.547-18.477z" fill="#f5c98d"/><ellipse cx="248.3" cy="199.103" fill="url(#SVGID_5_)" rx="114.461" ry="105.793"/><path d="m5.745 70.295v361.41c0 38.823 31.472 70.295 70.295 70.295v-502c-38.823 0-70.295 31.472-70.295 70.295z" fill="url(#SVGID_6_)"/><g><ellipse cx="160.415" cy="221.193" fill="#eaadcd" rx="14.936" ry="12.003"/><ellipse cx="336.186" cy="221.193" fill="#eaadcd" rx="14.936" ry="12.003"/><circle cx="186.022" cy="191.575" fill="#fff" r="29.618"/><ellipse cx="197.987" cy="191.575" fill="#3b3b44" rx="17.652" ry="17.652" transform="matrix(.23 -.973 .973 .23 -33.951 340.251)"/><circle cx="310.579" cy="191.575" fill="#fff" r="29.618"/><g fill="#3b3b44"><ellipse cx="322.483" cy="191.575" rx="17.652" ry="17.652" transform="matrix(.707 -.707 .707 .707 -41.011 284.141)"/><ellipse cx="248.301" cy="214.028" rx="13.252" ry="17.352"/></g></g><g fill="#bdebff"><path d="m40.893 100.587c-5.523 0-10-4.478-10-10v-9.21c0-5.522 4.477-10 10-10 5.522 0 10 4.478 10 10v9.21c0 5.522-4.478 10-10 10z"/><path d="m40.893 174.792c-5.523 0-10-4.478-10-10v-33.455c0-5.522 4.477-10 10-10 5.522 0 10 4.478 10 10v33.455c0 5.522-4.478 10-10 10z"/></g></g></svg>