<svg id="Capa_1" enable-background="new 0 0 502 502" height="512" viewBox="0 0 502 502" width="512" xmlns="http://www.w3.org/2000/svg" xmlns:xlink="http://www.w3.org/1999/xlink"><linearGradient id="lg1"><stop offset="0" stop-color="#d4dbdb"/><stop offset="1" stop-color="#f3f3f3"/></linearGradient><linearGradient id="SVGID_1_" gradientUnits="userSpaceOnUse" x1="251" x2="251" xlink:href="#lg1" y1="263.034" y2="492.183"/><linearGradient id="lg2"><stop offset="0" stop-color="#7ed99e"/><stop offset=".2532" stop-color="#81daa3"/><stop offset=".5725" stop-color="#88ddb3"/><stop offset=".9261" stop-color="#95e2cd"/><stop offset="1" stop-color="#98e3d3"/></linearGradient><linearGradient id="SVGID_2_" gradientUnits="userSpaceOnUse" x1="77.873" x2="77.873" xlink:href="#lg2" y1="274.096" y2="446.882"/><linearGradient id="SVGID_3_" gradientUnits="userSpaceOnUse" x1="424.127" x2="424.127" xlink:href="#lg2" y1="274.096" y2="446.882"/><linearGradient id="SVGID_4_" gradientUnits="userSpaceOnUse" x1="251" x2="251" xlink:href="#lg1" y1="239.611" y2="137.07"/><linearGradient id="SVGID_5_" gradientUnits="userSpaceOnUse" x1="23.454" x2="473.851" y1="233.259" y2="233.259"><stop offset="0" stop-color="#53aae6"/><stop offset="1" stop-color="#a4d2f0"/></linearGradient><linearGradient id="SVGID_6_" gradientUnits="userSpaceOnUse" x1="251" x2="251" y1="368.674" y2="480.591"><stop offset="0" stop-color="#4e5660"/><stop offset="1" stop-color="#64768d"/></linearGradient><linearGradient id="SVGID_7_" gradientTransform="matrix(-1 0 0 -1 702 2404.579)" gradientUnits="userSpaceOnUse" x1="451" x2="451" y1="2201.11" y2="2363.958"><stop offset="0" stop-color="#f4c22c"/><stop offset="1" stop-color="#f9e198"/></linearGradient><linearGradient id="SVGID_8_" gradientUnits="userSpaceOnUse" x1="251" x2="251" y1="232.295" y2="61.349"><stop offset="0" stop-color="#f4d952"/><stop offset="1" stop-color="#f9edaf"/></linearGradient><g><path d="m384.657 481.207h-267.314l-60.732-122.31v-122.311h388.778v122.311z" fill="url(#SVGID_1_)"/><path d="m56.611 266.125v30h174.811c8.284 0 15-6.716 15-15 0-8.284-6.716-15-15-15z" fill="#bdc3c9"/><path d="m117.343 481.207h-37.165c-23.072 0-41.776-18.704-41.776-41.776v-173.306h78.941z" fill="url(#SVGID_2_)"/><path d="m38.402 266.125h78.941v30h-78.941z" fill="#24bd7f"/><path d="m384.657 481.207h37.165c23.072 0 41.776-18.704 41.776-41.776v-173.306h-78.941z" fill="url(#SVGID_3_)"/><path d="m420.665 262.278c-8.412 0-16.822-3.208-23.24-9.626l-138.795-138.795c-4.207-4.208-11.054-4.208-15.261 0l-138.794 138.795c-12.835 12.836-33.644 12.836-46.48 0-12.835-12.835-12.835-33.644 0-46.48l138.794-138.795c29.836-29.837 78.385-29.837 108.221 0l138.794 138.795c12.835 12.836 12.835 33.646 0 46.48-6.416 6.416-14.829 9.626-23.239 9.626z" fill="url(#SVGID_4_)"/><path d="m469.134 266.125h-436.268c-18.151 0-32.866-14.715-32.866-32.866s14.715-32.866 32.866-32.866h436.267c18.152 0 32.866 14.715 32.866 32.866.001 18.151-14.714 32.866-32.865 32.866z" fill="url(#SVGID_5_)"/><path d="m280.303 383.692h-58.607c-17.312 0-31.346 14.034-31.346 31.346v66.17h121.298v-66.17c.001-17.312-14.033-31.346-31.345-31.346z" fill="url(#SVGID_6_)"/><circle cx="251" cy="137.081" fill="url(#SVGID_7_)" r="116.288"/><circle cx="251" cy="137.081" fill="url(#SVGID_8_)" r="78.659"/><path d="m265.63 129.334c-2.585-.914-5.235-1.875-7.873-2.88v-40.826c7.004 1.416 11.195 4.998 11.53 5.294 3.046 2.765 7.757 2.559 10.552-.47 2.808-3.045 2.617-7.79-.428-10.598-.47-.434-8.513-7.669-21.654-9.423v-8.721c0-4.143-3.358-7.5-7.5-7.5s-7.5 3.357-7.5 7.5v9.298c-1.413.292-2.857.653-4.333 1.098-24.55 7.397-30.76 40.658-13.153 54.467 4.391 3.444 9.888 6.598 17.486 9.948v51.176c-7.027-.4-11.619-1.914-19.383-6.993-3.466-2.268-8.115-1.297-10.382 2.171-2.268 3.466-1.296 8.114 2.17 10.382 10.536 6.892 17.626 8.961 27.595 9.444v9.751c0 4.143 3.358 7.5 7.5 7.5s7.5-3.357 7.5-7.5v-10.317c18.651-3.356 29.543-18.594 31.936-32.824 3.033-18.046-6.412-33.738-24.063-39.977zm-22.873-9.425c-3.124-1.627-5.935-3.34-8.229-5.139-7.93-6.219-4.797-24.38 8.223-28.301.002-.001.004-.001.006-.002zm32.143 46.914c-1.371 8.159-7.202 16.853-17.143 19.882v-44.258c.939.34 1.89.681 2.874 1.029 15.935 5.633 14.95 19.294 14.269 23.347z" fill="#a37460"/><g><ellipse cx="163.114" cy="352.908" fill="#eaadcd" rx="14.936" ry="12.003"/><ellipse cx="338.886" cy="352.908" fill="#eaadcd" rx="14.936" ry="12.003"/><circle cx="188.721" cy="323.29" fill="#fff" r="29.618"/><circle cx="313.279" cy="323.29" fill="#fff" r="29.618"/><g fill="#3b3b44"><g><circle cx="188.721" cy="323.29" r="17.652"/><circle cx="313.279" cy="323.29" r="17.652"/></g><path d="m251 353.851c-5.248 0-10.495-1.984-14.776-5.953-2.025-1.878-2.145-5.041-.267-7.066 1.877-2.025 5.041-2.143 7.066-.268 4.696 4.355 11.258 4.355 15.954 0 2.025-1.877 5.188-1.757 7.066.268 1.877 2.025 1.758 5.188-.267 7.066-4.281 3.968-9.528 5.953-14.776 5.953z"/></g></g><g fill="#ffeeb0"><path d="m345.171 118.998c-4.309 0-8.287-2.807-9.58-7.147-2.219-7.447-5.431-14.586-9.545-21.22-2.911-4.693-1.466-10.858 3.227-13.77 4.691-2.91 10.857-1.468 13.769 3.227 5.049 8.141 8.991 16.905 11.716 26.052 1.577 5.293-1.435 10.862-6.728 12.439-.951.283-1.913.419-2.859.419z"/><path d="m306.746 66.179c-1.96 0-3.938-.574-5.672-1.771-2.472-1.706-5.055-3.302-7.677-4.741-4.841-2.659-6.61-8.738-3.951-13.579 2.659-4.84 8.737-6.607 13.579-3.952 3.216 1.767 6.382 3.723 9.411 5.813 4.545 3.138 5.686 9.365 2.548 13.91-1.94 2.811-5.063 4.32-8.238 4.32z"/></g></g></svg>