<svg id="Capa_1" enable-background="new 0 0 502 502" height="512" viewBox="0 0 502 502" width="512" xmlns="http://www.w3.org/2000/svg" xmlns:xlink="http://www.w3.org/1999/xlink"><linearGradient id="lg1"><stop offset="0" stop-color="#53aae6"/><stop offset="1" stop-color="#a4d2f0"/></linearGradient><linearGradient id="SVGID_1_" gradientUnits="userSpaceOnUse" x1="289.259" x2="289.259" xlink:href="#lg1" y1="134.937" y2="23.866"/><linearGradient id="SVGID_2_" gradientUnits="userSpaceOnUse" x1="32.659" x2="513.413" xlink:href="#lg1" y1="309.16" y2="309.16"/><linearGradient id="SVGID_3_" gradientUnits="userSpaceOnUse" x1="84.276" x2="84.276" y1="331.229" y2="139.436"><stop offset="0" stop-color="#74d2e8"/><stop offset="1" stop-color="#baeaf5"/></linearGradient><linearGradient id="SVGID_4_" gradientUnits="userSpaceOnUse" x1="84.276" x2="84.276" y1="430.6" y2="362.573"><stop offset="0" stop-color="#f5e5a2"/><stop offset="1" stop-color="#fcf7cf"/></linearGradient><g><path d="m188.989 161.149c18.866-17.376 53.982-49.716 74.118-106.406 12.029-33.868 49.233-51.576 83.107-39.545 33.869 12.031 51.574 49.24 39.545 83.108-30.917 87.045-85.35 137.176-108.594 158.584z" fill="url(#SVGID_1_)"/><path d="m246.407 134.974c-72.33 0-130.964 58.635-130.964 130.964v86.495c0 72.329 58.635 130.964 130.964 130.964.19 0 200.163-.028 200.284-.028 24.055 0 43.556-19.5 43.556-43.556 0-24.055-19.501-43.556-43.556-43.556h5.877c24.055 0 43.556-19.501 43.556-43.556 0-24.055-19.501-43.556-43.556-43.556h5.877c24.055 0 43.556-19.501 43.556-43.556 0-24.055-19.501-43.556-43.556-43.556h-3.526c24.055 0 43.556-19.501 43.556-43.556 0-24.055-19.501-43.556-43.556-43.556-.192.001-208.392.053-208.512.053z" fill="url(#SVGID_2_)"/><path d="m317.477 465.892c0-9.668-7.844-17.504-17.512-17.502-20.429.005-52.813.007-53.452.007h.018c-.013 0-.029 0-.054 0-.048 0-.07 0-.072 0-16.479 0-32-4.177-45.563-11.525 1.768-7.942 2.709-16.191 2.709-24.658v-49.692c0-9.665-7.835-17.5-17.5-17.5-9.665 0-17.5 7.835-17.5 17.5v49.693c0 13.652-3.498 26.485-9.637 37.662 23.192 20.837 53.859 33.52 87.492 33.52.042 0 38.23-.001 53.567-.004 9.666 0 17.504-7.836 17.504-17.501z" fill="#04a5de"/><path d="m49.978 490.573h40.217c43.276 0 78.358-35.082 78.358-78.358v-206.059c0-43.276-35.082-78.358-78.358-78.358h-40.217c-27.602.001-49.978 22.376-49.978 49.978v262.819c0 27.602 22.376 49.978 49.978 49.978z" fill="url(#SVGID_3_)"/><circle cx="84.276" cy="389.876" fill="url(#SVGID_4_)" r="34.951"/><g><ellipse cx="285.105" cy="221.261" fill="#eaadcd" rx="12.003" ry="14.936"/><ellipse cx="285.105" cy="397.032" fill="#eaadcd" rx="12.003" ry="14.936"/><ellipse cx="314.723" cy="246.867" fill="#fff" rx="29.618" ry="29.618" transform="matrix(.16 -.987 .987 .16 20.63 517.983)"/><ellipse cx="314.723" cy="371.425" fill="#fff" rx="29.618" ry="29.618" transform="matrix(.16 -.987 .987 .16 -102.319 622.588)"/><g fill="#3b3b44"><g><circle cx="314.723" cy="246.867" r="17.652"/><circle cx="314.723" cy="371.425" r="17.652"/></g><path d="m293.784 325.522c-1.343 0-2.682-.538-3.667-1.601-7.94-8.561-7.94-20.989-.001-29.552 1.878-2.025 5.043-2.143 7.066-.268 2.025 1.878 2.145 5.041.268 7.066-4.355 4.697-4.355 11.258-.001 15.954 1.878 2.025 1.759 5.189-.267 7.066-.961.894-2.181 1.335-3.398 1.335z"/></g></g><g fill="#04a5de"><path d="m454.918 232.034h-14.575c-5.522 0-10-4.478-10-10s4.478-10 10-10h14.575c5.522 0 10 4.478 10 10 0 5.523-4.478 10-10 10z"/><path d="m452.567 319.146h-14.576c-5.522 0-10-4.478-10-10 0-5.523 4.478-10 10-10h14.576c5.522 0 10 4.477 10 10 0 5.522-4.477 10-10 10z"/><path d="m446.691 406.258h-14.576c-5.522 0-10-4.477-10-10 0-5.522 4.478-10 10-10h14.576c5.522 0 10 4.478 10 10s-4.477 10-10 10z"/></g><g fill="#e3fcff"><path d="m32.245 178.6c-1.554 0-3.131-.363-4.605-1.13-4.9-2.548-6.807-8.586-4.259-13.485 1.995-3.836 4.856-7.265 8.276-9.914 4.365-3.383 10.647-2.587 14.03 1.779 3.383 4.365 2.586 10.646-1.779 14.029-1.15.892-2.113 2.044-2.783 3.332-1.781 3.426-5.269 5.389-8.88 5.389z"/><path d="m30 252.086c-5.523 0-10-4.477-10-10v-33.4c0-5.522 4.477-10 10-10s10 4.478 10 10v33.4c0 5.522-4.477 10-10 10z"/></g></g></svg>