<svg id="Capa_1" enable-background="new 0 0 502 502" height="512" viewBox="0 0 502 502" width="512" xmlns="http://www.w3.org/2000/svg" xmlns:xlink="http://www.w3.org/1999/xlink"><linearGradient id="lg1"><stop offset="0" stop-color="#f5e5a2"/><stop offset="1" stop-color="#fcf7cf"/></linearGradient><linearGradient id="SVGID_1_" gradientUnits="userSpaceOnUse" x1="154.568" x2="-.504" xlink:href="#lg1" y1="415.723" y2="415.723"/><linearGradient id="SVGID_2_" gradientUnits="userSpaceOnUse" x1="251" x2="251" xlink:href="#lg1" y1="385.77" y2="-36.003"/><linearGradient id="lg2"><stop offset="0" stop-color="#53aae6"/><stop offset="1" stop-color="#a4d2f0"/></linearGradient><linearGradient id="SVGID_3_" gradientUnits="userSpaceOnUse" x1="376.801" x2="376.801" xlink:href="#lg2" y1="155.084" y2="98.23"/><linearGradient id="SVGID_4_" gradientUnits="userSpaceOnUse" x1="230.955" x2="230.955" y1="393.932" y2="126.863"><stop offset="0" stop-color="#74d2e8"/><stop offset="1" stop-color="#baeaf5"/></linearGradient><linearGradient id="SVGID_5_" gradientUnits="userSpaceOnUse" x1="189.204" x2="189.204" xlink:href="#lg2" y1="225.982" y2="145.286"/><g><path d="m65.764 343.394c3.79 29.563-10.122 68.908-29.426 97.995-13.456 20.276 1.504 47.193 25.832 46.656 62.195-1.375 117.564-30.885 144.203-76.813z" fill="url(#SVGID_1_)"/><ellipse cx="251" cy="216.118" fill="url(#SVGID_2_)" rx="251" ry="202.171"/><g fill="#fff"><path d="m472 226.118c-5.522 0-10-4.478-10-10 0-10.239-.886-20.324-2.632-29.977-.983-5.435 2.625-10.637 8.06-11.62 5.431-.988 10.637 2.625 11.62 8.06 1.959 10.823 2.952 22.106 2.952 33.537 0 5.523-4.478 10-10 10z"/><path d="m456.946 155.649c-3.753 0-7.349-2.121-9.054-5.741-1.468-3.116-3.065-6.205-4.748-9.184-2.717-4.808-1.022-10.908 3.786-13.626 4.806-2.715 10.908-1.022 13.626 3.786 1.925 3.406 3.752 6.94 5.43 10.502 2.354 4.996.21 10.954-4.786 13.308-1.377.649-2.827.955-4.254.955z"/></g><path d="m66.068 361.429c-.832 10.504-3.258 21.623-6.861 32.687 24.144 17.538 52.427 30.962 84.163 40.062-4.588 2.962-9.423 5.673-14.47 8.122-8.52 4.133-11.031 15.093-5.228 22.576 4.339 5.594 12.01 7.382 18.374 4.281 25.804-12.569 47.294-30.906 61.652-53.525-58.263-6.773-104.226-26.2-137.63-54.203z" fill="#f5c98d"/><g><path d="m333.033 102.676c9.04 2.26 44.108-.213 73.096-11.382 7.775-2.996 15.853 3.737 14.232 11.911-9.621 48.522-57.504 60.797-83.955 60.196z" fill="url(#SVGID_3_)"/><path d="m382.472 169.84c.689-52.729-41.337-97.139-94.07-97.162-52.007-.023-94.174 42.13-94.174 94.132 0 47.375-50.217 66.123-95.858 57.396-12.913-2.469-23.103 10.987-17.242 22.755 25.979 52.156 86.665 86.551 144.75 86.551 68.714 0 155.097-49.101 156.594-163.672z" fill="url(#SVGID_4_)"/><g><ellipse cx="286.523" cy="168.361" fill="#eaadcd" rx="14.936" ry="12.003"/><circle cx="312.13" cy="138.743" fill="#fff" r="29.618"/><ellipse cx="324.096" cy="138.743" fill="#3b3b44" rx="17.652" ry="17.652" transform="matrix(.23 -.973 .973 .23 114.602 422.293)"/></g><path d="m210.198 237.816c24.053 0 43.536-19.563 43.408-43.645-.128-23.898-19.975-43.076-43.873-43.172-20.643-.083-42.819-5.711-59.408-14.515-12.781-6.783-27.826 4.071-25.227 18.304 8.049 44.082 39.902 83.028 85.1 83.028z" fill="url(#SVGID_5_)"/></g></g></svg>