<svg id="Capa_1" enable-background="new 0 0 502 502" height="512" viewBox="0 0 502 502" width="512" xmlns="http://www.w3.org/2000/svg" xmlns:xlink="http://www.w3.org/1999/xlink"><linearGradient id="SVGID_1_" gradientUnits="userSpaceOnUse" x1="251" x2="251" y1="377.516" y2="55.914"><stop offset="0" stop-color="#f5e5a2"/><stop offset="1" stop-color="#fcf7cf"/></linearGradient><linearGradient id="lg1"><stop offset="0" stop-color="#ec6f80"/><stop offset="1" stop-color="#eca0aa"/></linearGradient><linearGradient id="SVGID_2_" gradientUnits="userSpaceOnUse" x1="251" x2="251" xlink:href="#lg1" y1="318.935" y2="161.346"/><linearGradient id="SVGID_3_" gradientUnits="userSpaceOnUse" x1="251" x2="251" xlink:href="#lg1" y1="498.876" y2="107.794"/><g><path d="m45.948 98.561h410.104v304.877h-410.104z" fill="url(#SVGID_1_)"/><path d="m264.296 298.183-30.574 17.652c-23.187 13.387-52.171-3.347-52.171-30.121v-41.11c0-9.665-7.835-17.5-17.5-17.5-9.665 0-17.5 7.835-17.5 17.5v41.11c0 53.712 58.352 87.178 104.672 60.432l30.574-17.652c8.598-4.964 11.349-16.078 6.059-24.479-5.012-7.959-15.416-10.534-23.56-5.832z" fill="#f5d09d"/><path d="m181.55 205.649v80.065c0 26.775 28.984 43.509 52.171 30.121l69.338-40.033c23.187-13.387 23.187-46.855 0-60.242l-69.338-40.033c-23.187-13.386-52.171 3.348-52.171 30.122z" fill="url(#SVGID_2_)"/><g fill="#fff"><path d="m405.862 180.77c-4.714 0-8.909-3.347-9.815-8.147-.694-3.676-1.433-7.285-2.196-10.727-1.196-5.392 2.205-10.732 7.598-11.928 5.389-1.199 10.731 2.206 11.928 7.598.809 3.646 1.591 7.465 2.323 11.348 1.024 5.427-2.544 10.656-7.972 11.681-.626.118-1.251.175-1.866.175z"/><path d="m413.497 261c-5.522 0-10-4.478-10-10 0-12.047-.625-24.871-1.858-38.118-.261-2.802.671-5.583 2.566-7.662 1.895-2.08 4.578-3.265 7.392-3.265.156 0 .324.004.489.012 5.323.226 9.57 4.612 9.57 9.991 0 .058 0 .114-.001.171 1.222 13.473 1.842 26.544 1.842 38.871 0 5.522-4.477 10-10 10z"/></g><path d="m486.76 127.022c-8.549-32.856-34.428-57.7-67.536-64.837-45.504-9.813-113.108-16.405-168.224-16.405s-122.72 6.592-168.224 16.403c-33.109 7.139-58.987 31.983-67.536 64.838-9.544 36.67-15.24 83.017-15.24 123.979s5.696 87.309 15.24 123.978c8.549 32.855 34.427 57.7 67.536 64.837 45.504 9.813 113.108 16.405 168.224 16.405s122.72-6.592 168.224-16.403c33.109-7.139 58.987-31.983 67.536-64.838 9.543-36.67 15.24-83.017 15.24-123.979s-5.697-87.309-15.24-123.978zm-56.616 233.222c-2.954 11.352-11.863 19.928-23.25 22.383-41.859 9.025-104.509 15.089-155.894 15.089s-114.035-6.064-155.894-15.089c-11.387-2.456-20.295-11.032-23.249-22.383-8.237-31.652-13.354-73.512-13.354-109.244s5.117-77.592 13.353-109.244c2.954-11.352 11.863-19.928 23.249-22.383 41.859-9.025 104.509-15.089 155.894-15.089s114.035 6.064 155.894 15.09c11.387 2.455 20.296 11.031 23.25 22.382 8.237 31.652 13.354 73.512 13.354 109.244s-5.117 77.592-13.353 109.244z" fill="url(#SVGID_3_)"/></g></svg>