<svg id="Capa_1" enable-background="new 0 0 502 502" height="512" viewBox="0 0 502 502" width="512" xmlns="http://www.w3.org/2000/svg" xmlns:xlink="http://www.w3.org/1999/xlink"><linearGradient id="SVGID_1_" gradientUnits="userSpaceOnUse" x1="190.907" x2="35.836" y1="415.723" y2="415.723"><stop offset="0" stop-color="#6ac65e"/><stop offset="1" stop-color="#afd986"/></linearGradient><linearGradient id="SVGID_2_" gradientUnits="userSpaceOnUse" x1="251" x2="251" y1="377.358" y2="-47.479"><stop offset="0" stop-color="#81d676"/><stop offset="1" stop-color="#c3e6a1"/></linearGradient><linearGradient id="SVGID_3_" gradientUnits="userSpaceOnUse" x1="243.352" x2="243.352" y1="303.911" y2="140.326"><stop offset="0" stop-color="#f9edaf"/><stop offset="1" stop-color="#fffcdd"/></linearGradient><linearGradient id="lg1"><stop offset="0" stop-color="#f4c22c"/><stop offset="1" stop-color="#f9e198"/></linearGradient><linearGradient id="SVGID_4_" gradientUnits="userSpaceOnUse" x1="205.829" x2="205.829" xlink:href="#lg1" y1="126.785" y2="38.364"/><linearGradient id="SVGID_5_" gradientUnits="userSpaceOnUse" x1="325.069" x2="325.069" xlink:href="#lg1" y1="243.775" y2="146.976"/><g><path d="m65.764 343.394c3.79 29.563-10.122 68.908-29.426 97.995-13.456 20.276 1.504 47.193 25.832 46.656 62.195-1.375 117.564-30.885 144.203-76.813z" fill="url(#SVGID_1_)"/><ellipse cx="251" cy="216.118" fill="url(#SVGID_2_)" rx="251" ry="202.171"/><g><ellipse cx="163.114" cy="354.205" fill="#efc5db" rx="14.936" ry="12.003"/><ellipse cx="338.885" cy="354.205" fill="#efc5db" rx="14.936" ry="12.003"/><circle cx="188.721" cy="324.587" fill="#fff" r="29.618"/><path d="m218.339 324.587c0 9.749-7.903 17.652-17.652 17.652s-17.652-7.903-17.652-17.652 7.903-17.652 17.652-17.652 17.652 7.903 17.652 17.652z" fill="#3b3b44"/><circle cx="313.279" cy="324.587" fill="#fff" r="29.618"/><g fill="#3b3b44"><ellipse cx="325.182" cy="324.587" rx="17.652" ry="17.652" transform="matrix(.707 -.707 .707 .707 -134.274 325.008)"/><ellipse cx="251" cy="347.039" rx="13.252" ry="17.352"/></g></g><path d="m66.068 361.429c-.832 10.504-3.258 21.623-6.861 32.687 24.144 17.538 52.427 30.962 84.163 40.062-4.588 2.962-9.423 5.673-14.47 8.122-8.52 4.133-11.031 15.093-5.228 22.576 4.339 5.594 12.01 7.382 18.374 4.281 25.804-12.569 47.294-30.906 61.652-53.525-58.263-6.773-104.226-26.2-137.63-54.203z" fill="#04b048"/><g fill="#d6f7c8"><path d="m419.004 105.786c-2.329 0-4.668-.809-6.563-2.459-8.639-7.522-18.485-14.337-29.267-20.254-4.842-2.657-6.613-8.735-3.955-13.577 2.657-4.843 8.738-6.611 13.578-3.956 12.035 6.604 23.064 14.243 32.78 22.705 4.165 3.627 4.601 9.943.974 14.108-1.978 2.271-4.755 3.433-7.547 3.433z"/><path d="m350.679 68.323c-1.026 0-2.069-.159-3.098-.494-4.014-1.307-8.165-2.537-12.337-3.657-5.334-1.432-8.497-6.917-7.066-12.251 1.432-5.333 6.918-8.498 12.251-7.065 4.509 1.211 8.999 2.542 13.343 3.956 5.251 1.71 8.123 7.353 6.413 12.604-1.374 4.223-5.293 6.907-9.506 6.907z"/></g><g><path d="m351.205 246.705c-9.626-18.695-17.767-28.434-28.451-39.118s-20.423-18.825-39.118-28.451l-10.626 10.626c-9.734 9.734-29.087-2.071-39.343-12.327-10.257-10.257-22.061-29.609-12.327-39.343l10.626-10.626c-9.626-18.695-17.767-28.434-28.451-39.118s-20.423-18.825-39.118-28.451l-10.627 10.624c-42.352 42.352-2.875 113.1 35.417 151.392s109.04 77.77 151.392 35.417z" fill="url(#SVGID_3_)"/><path d="m238.223 77.565-23.928-23.928c-12.051-12.051-31.59-12.051-43.642 0l-6.258 6.258c7.074 13.726 17.724 28.477 28.408 39.161s25.435 21.334 39.161 28.408l6.258-6.258c12.053-12.051 12.052-31.59.001-43.641z" fill="url(#SVGID_4_)"/><path d="m333.535 172.877 23.928 23.928c12.051 12.051 12.051 31.59 0 43.642l-6.258 6.258c-13.726-7.075-28.477-17.724-39.161-28.408s-21.334-25.435-28.408-39.161l6.258-6.258c12.051-12.052 31.59-12.052 43.641-.001z" fill="url(#SVGID_5_)"/></g></g></svg>