<svg id="Capa_1" enable-background="new 0 0 502 502" height="512" viewBox="0 0 502 502" width="512" xmlns="http://www.w3.org/2000/svg" xmlns:xlink="http://www.w3.org/1999/xlink"><linearGradient id="lg1"><stop offset="0" stop-color="#f4c22c"/><stop offset="1" stop-color="#f9e198"/></linearGradient><linearGradient id="SVGID_1_" gradientUnits="userSpaceOnUse" x1="273.132" x2="273.132" xlink:href="#lg1" y1="112.821" y2="38.394"/><linearGradient id="SVGID_2_" gradientUnits="userSpaceOnUse" x1="251" x2="251" y1="414.325" y2="74.314"><stop offset="0" stop-color="#4e5660"/><stop offset="1" stop-color="#64768d"/></linearGradient><linearGradient id="SVGID_3_" gradientUnits="userSpaceOnUse" x1="454.438" x2="505.604" xlink:href="#lg1" y1="350.494" y2="350.494"/><linearGradient id="SVGID_4_" gradientTransform="matrix(-1 0 0 1 702 0)" gradientUnits="userSpaceOnUse" x1="654.438" x2="705.604" xlink:href="#lg1" y1="350.494" y2="350.494"/><linearGradient id="lg2"><stop offset="0" stop-color="#53aae6"/><stop offset="1" stop-color="#a4d2f0"/></linearGradient><linearGradient id="SVGID_5_" gradientUnits="userSpaceOnUse" x1="376.093" x2="376.093" xlink:href="#lg2" y1="474.875" y2="288.623"/><linearGradient id="lg3"><stop offset="0" stop-color="#74d2e8"/><stop offset="1" stop-color="#baeaf5"/></linearGradient><linearGradient id="SVGID_6_" gradientUnits="userSpaceOnUse" x1="317.87" x2="408.114" xlink:href="#lg3" y1="381.257" y2="381.257"/><linearGradient id="SVGID_7_" gradientUnits="userSpaceOnUse" x1="125.907" x2="125.907" xlink:href="#lg2" y1="474.875" y2="288.623"/><linearGradient id="SVGID_8_" gradientUnits="userSpaceOnUse" x1="67.683" x2="157.927" xlink:href="#lg3" y1="381.257" y2="381.257"/><linearGradient id="SVGID_9_" gradientUnits="userSpaceOnUse" x1="251" x2="251" xlink:href="#lg3" y1="241.68" y2="130.886"/><g><path d="m263.506 45.239h19.251c7.956 0 14.92 5.341 16.983 13.025l12.704 47.319h-78.625l12.704-47.319c2.063-7.684 9.028-13.025 16.983-13.025z" fill="url(#SVGID_1_)"/><path d="m.831 319.731s30.869 44.836 49.571 61.526h401.196c18.703-16.689 49.571-61.526 49.571-61.526l-4.395-46.582c-2.506-26.555-24.801-46.846-51.475-46.846h-30.97c-5.777 0-10.932-3.629-12.879-9.069l-23.443-65.485c-9.913-27.69-36.152-46.166-65.563-46.166h-122.889c-29.41 0-55.65 18.477-65.563 46.166l-23.443 65.485c-1.947 5.439-7.101 9.069-12.879 9.069h-30.97c-26.673 0-48.969 20.291-51.475 46.846z" fill="url(#SVGID_2_)"/><path d="m76.417 288.115c-24.902 13.282-43.886 36.251-51.874 63.852 8.709 11.148 18.283 22.529 25.859 29.29 0-28.966 16.315-54.112 40.254-66.772 7.167-3.79 9.946-12.649 6.32-19.901-3.79-7.582-13.08-10.458-20.559-6.469z" fill="#3c4757"/><path d="m501.773 326.124-.603-6.393h-22.89c-14.736 0-26.681 11.946-26.681 26.681v34.844c29.703 0 52.964-25.559 50.174-55.132z" fill="url(#SVGID_3_)"/><path d="m.227 326.124.603-6.393h22.89c14.736 0 26.681 11.946 26.681 26.681v34.844c-29.703 0-52.964-25.559-50.174-55.132z" fill="url(#SVGID_4_)"/><circle cx="376.093" cy="381.257" fill="url(#SVGID_5_)" r="75.505"/><circle cx="376.093" cy="381.257" fill="url(#SVGID_6_)" r="32.029"/><circle cx="125.907" cy="381.257" fill="url(#SVGID_7_)" r="75.505"/><path d="m50.402 381.257v-34.844c0-9.658-5.131-18.116-12.816-22.799-9.21 14.063-15.152 30.447-16.745 48.069 8.275 6.006 18.468 9.574 29.561 9.574z" fill="#efc534"/><circle cx="125.907" cy="381.257" fill="url(#SVGID_8_)" r="32.029"/><path d="m361.349 211.855-22.903-64.068c-1.537-4.3-5.612-7.171-10.178-7.171h-146.204c-9.564 0-18.095 6.011-21.315 15.016l-20.099 56.222c-2.517 7.04 2.702 14.448 10.178 14.448h200.342c7.477.001 12.696-7.407 10.179-14.447z" fill="url(#SVGID_9_)"/><path d="m323.882 270.395h-28.847c-5.523 0-10-4.477-10-10 0-5.522 4.477-10 10-10h28.847c5.523 0 10 4.477 10 10s-4.477 10-10 10z" fill="#c2c8cf"/><path d="m172.359 270.395h-28.847c-5.523 0-10-4.477-10-10 0-5.522 4.477-10 10-10h28.847c5.523 0 10 4.477 10 10s-4.477 10-10 10z" fill="#c2c8cf"/><path d="m241 140.616h20v85.687h-20z" fill="#18c9de"/><path d="m293.516 315.684c-14.343 18.015-22.927 40.806-22.927 65.572h30c0-17.776 6.144-34.113 16.424-47.009 4.775-5.99 4.418-14.567-1.027-19.955-6.403-6.335-16.859-5.655-22.47 1.392z" fill="#3c4757"/><g fill="#8196ab"><path d="m422.306 267.803h-9.5c-6.351 0-11.5-5.148-11.5-11.5s5.149-11.5 11.5-11.5h9.5c6.351 0 11.5 5.148 11.5 11.5 0 6.351-5.149 11.5-11.5 11.5z"/><path d="m468.289 302.264c-5.864 0-10.874-4.465-11.436-10.421l-1.396-14.796c-.162-1.715-.725-3.304-1.672-4.722-3.53-5.28-2.111-12.422 3.168-15.952 5.281-3.529 12.423-2.11 15.952 3.169 3.049 4.56 4.934 9.867 5.451 15.345l1.396 14.796c.597 6.323-4.046 11.933-10.369 12.529-.367.034-.733.052-1.094.052z"/></g></g></svg>