<svg id="Capa_1" enable-background="new 0 0 502 502" height="512" viewBox="0 0 502 502" width="512" xmlns="http://www.w3.org/2000/svg" xmlns:xlink="http://www.w3.org/1999/xlink"><linearGradient id="lg1"><stop offset="0" stop-color="#dd5c6e"/><stop offset="1" stop-color="#ec8290"/></linearGradient><linearGradient id="SVGID_1_" gradientUnits="userSpaceOnUse" x1="251" x2="251" xlink:href="#lg1" y1="116.795" y2="2.372"/><linearGradient id="SVGID_2_" gradientUnits="userSpaceOnUse" x1="-11.659" x2="479.351" y1="306.593" y2="306.593"><stop offset="0" stop-color="#4e5660"/><stop offset="1" stop-color="#64768d"/></linearGradient><linearGradient id="SVGID_3_" gradientUnits="userSpaceOnUse" x1="251" x2="251" y1="479.82" y2="188.663"><stop offset="0" stop-color="#f5e5a2"/><stop offset="1" stop-color="#fcf7cf"/></linearGradient><linearGradient id="SVGID_4_" gradientUnits="userSpaceOnUse" x1="253.474" x2="253.474" xlink:href="#lg1" y1="396.13" y2="257.865"/><linearGradient id="lg2"><stop offset="0" stop-color="#ec6f80"/><stop offset="1" stop-color="#eca0aa"/></linearGradient><linearGradient id="SVGID_5_" gradientUnits="userSpaceOnUse" x1="166.076" x2="166.076" xlink:href="#lg2" y1="425.979" y2="136.545"/><linearGradient id="SVGID_6_" gradientUnits="userSpaceOnUse" x1="335.924" x2="335.924" xlink:href="#lg2" y1="187.897" y2="516.378"/><g><path d="m251 138.366c-6.957 0-13.912-2.654-19.22-7.961l-84.005-84.004c-10.614-10.615-10.614-27.825 0-38.44 10.616-10.614 27.825-10.614 38.44 0l64.785 64.784 64.784-64.784c10.614-10.613 27.826-10.614 38.44 0 10.614 10.615 10.614 27.825 0 38.44l-84.004 84.004c-5.308 5.307-12.263 7.961-19.22 7.961z" fill="url(#SVGID_1_)"/><path d="m30.747 418.562v-223.939c0-46.081 37.356-83.438 83.438-83.438h273.63c46.081 0 83.438 37.357 83.438 83.438v223.939c0 46.081-37.356 83.438-83.438 83.438h-273.63c-46.082 0-83.438-37.356-83.438-83.438z" fill="url(#SVGID_2_)"/><g fill="#8196ab"><path d="m443.604 283.112c-6.352 0-11.5-5.148-11.5-11.5v-8.344c0-6.352 5.148-11.5 11.5-11.5s11.5 5.148 11.5 11.5v8.344c0 6.352-5.148 11.5-11.5 11.5z"/><path d="m443.604 232.962c-6.352 0-11.5-5.148-11.5-11.5v-25.915c0-6.352 5.148-11.5 11.5-11.5s11.5 5.148 11.5 11.5v25.915c0 6.352-5.148 11.5-11.5 11.5z"/></g><path d="m387.486 165.547h-14.063l-37.5 21.374-37.5-21.374h-94.848l-37.5 21.374-37.5-21.374h-14.063c-16.24 0-29.404 13.165-29.404 29.404v223.282c0 16.24 13.165 29.404 29.404 29.404h14.063l37.5-21.374 37.5 21.374h94.848l37.5-21.374 37.5 21.374h14.063c16.24 0 29.404-13.165 29.404-29.404v-223.282c0-16.239-13.164-29.404-29.404-29.404z" fill="url(#SVGID_3_)"/><path d="m310.114 441.878 53.329-52.738-185.661-185.66-34.276 71.79z" fill="url(#SVGID_4_)"/><path d="m128.576 165.547h75v282.091h-75z" fill="url(#SVGID_5_)"/><path d="m298.424 165.547h75v282.091h-75z" fill="url(#SVGID_6_)"/><path d="m237.607 447.638h-123.093c-9.443 0-17.844-4.452-23.223-11.371-4.051-5.211-11.168-6.947-17.286-4.469-9.233 3.739-12.354 15.302-6.196 23.133 10.874 13.827 27.75 22.708 46.705 22.708h123.093c8.284 0 15-6.716 15-15 0-8.286-6.716-15.001-15-15.001z" fill="#3c4757"/></g></svg>