<svg id="Capa_1" enable-background="new 0 0 502 502" height="512" viewBox="0 0 502 502" width="512" xmlns="http://www.w3.org/2000/svg" xmlns:xlink="http://www.w3.org/1999/xlink"><linearGradient id="SVGID_1_" gradientUnits="userSpaceOnUse" x1="233.116" x2="486.623" y1="338.944" y2="338.944"><stop offset="0" stop-color="#c5cccc"/><stop offset="1" stop-color="#e6e6e6"/></linearGradient><linearGradient id="SVGID_2_" gradientUnits="userSpaceOnUse" x1="187.358" x2="187.358" y1="392.018" y2="2.935"><stop offset="0" stop-color="#4e5660"/><stop offset="1" stop-color="#64768d"/></linearGradient><linearGradient id="SVGID_3_" gradientUnits="userSpaceOnUse" x1="130.353" x2="130.353" y1="186.619" y2="82.635"><stop offset="0" stop-color="#74d2e8"/><stop offset="1" stop-color="#baeaf5"/></linearGradient><linearGradient id="SVGID_4_" gradientUnits="userSpaceOnUse" x1="182.68" x2="59.95" y1="244.363" y2="244.363"><stop offset="0" stop-color="#ec6f80"/><stop offset="1" stop-color="#eca0aa"/></linearGradient><linearGradient id="SVGID_5_" gradientUnits="userSpaceOnUse" x1="244.363" x2="244.363" y1="164.774" y2="302.333"><stop offset="0" stop-color="#6ac65e"/><stop offset="1" stop-color="#afd986"/></linearGradient><linearGradient id="SVGID_6_" gradientUnits="userSpaceOnUse" x1="178.175" x2="298.271" y1="130.353" y2="130.353"><stop offset="0" stop-color="#f4d952"/><stop offset="1" stop-color="#f9edaf"/></linearGradient><g><path d="m274.65 175.887-98.763 98.763 148.785 189.403c36.765 46.803 106.168 50.955 148.252 8.871 42.084-42.084 37.931-111.487-8.871-148.252z" fill="url(#SVGID_1_)"/><path d="m342.013 421.377-32.921-41.908c13.96-8.884 27.048-19.362 39.031-31.346 21.87-21.869 38.722-47.414 50.009-75.236l-33.082-25.987c-18.616 55.578-62.572 99.534-118.15 118.15l63.658 81.036c6.786 8.638 19.269 10.187 27.96 3.468 8.787-6.792 10.356-19.443 3.495-28.177z" fill="#aeb4ba"/><circle cx="187.358" cy="187.358" fill="url(#SVGID_2_)" r="187.358"/><path d="m187.358 73.347c-62.966 0-114.011 51.044-114.011 114.011h114.011z" fill="url(#SVGID_3_)"/><path d="m73.347 187.358c0 62.966 51.044 114.011 114.011 114.011v-114.011z" fill="url(#SVGID_4_)"/><path d="m187.358 301.369c62.966 0 114.011-51.044 114.011-114.011h-114.011z" fill="url(#SVGID_5_)"/><path d="m301.369 187.358c0-62.966-51.044-114.011-114.011-114.011v114.011z" fill="url(#SVGID_6_)"/><g fill="#8196ab"><path d="m102.551 67.816c-3.767 0-7.457-1.848-9.659-5.243-3.456-5.329-1.938-12.45 3.391-15.906 3.83-2.483 7.809-4.839 11.826-6.999 5.592-3.008 12.565-.912 15.575 4.683 3.008 5.594.911 12.566-4.683 15.575-3.466 1.863-6.898 3.896-10.203 6.038-1.934 1.254-4.103 1.852-6.247 1.852z"/><path d="m48.572 127.353c-1.776 0-3.579-.412-5.267-1.284-5.644-2.914-7.855-9.852-4.941-15.494 6.176-11.96 13.808-23.181 22.686-33.355 4.176-4.788 11.44-5.28 16.226-1.105 4.786 4.176 5.28 11.441 1.104 16.226-7.664 8.783-14.252 18.468-19.58 28.786-2.042 3.956-6.063 6.226-10.228 6.226z"/></g><g><ellipse cx="99.473" cy="204.991" fill="#efc5db" rx="14.936" ry="12.003"/><ellipse cx="275.244" cy="204.991" fill="#efc5db" rx="14.936" ry="12.003"/><circle cx="125.079" cy="175.374" fill="#fff" r="29.618"/><circle cx="249.637" cy="175.374" fill="#fff" r="29.618"/><g fill="#3b3b44"><g><circle cx="125.079" cy="175.374" r="17.652"/><circle cx="249.637" cy="175.374" r="17.652"/></g><path d="m187.358 205.934c-5.248 0-10.495-1.984-14.776-5.953-2.024-1.878-2.145-5.041-.268-7.066 1.878-2.025 5.041-2.144 7.066-.268 4.697 4.355 11.257 4.355 15.954 0 2.024-1.875 5.188-1.757 7.066.268 1.877 2.025 1.758 5.188-.268 7.066-4.278 3.968-9.527 5.953-14.774 5.953z"/></g></g></g></svg>