<svg id="Capa_1" enable-background="new 0 0 502 502" height="512" viewBox="0 0 502 502" width="512" xmlns="http://www.w3.org/2000/svg" xmlns:xlink="http://www.w3.org/1999/xlink"><linearGradient id="lg1"><stop offset="0" stop-color="#f4d952"/><stop offset="1" stop-color="#f9edaf"/></linearGradient><linearGradient id="SVGID_1_" gradientUnits="userSpaceOnUse" x1="251" x2="251" xlink:href="#lg1" y1="503.04" y2="238.383"/><linearGradient id="SVGID_2_" gradientUnits="userSpaceOnUse" x1="251" x2="251" y1="397.193" y2="41.688"><stop offset="0" stop-color="#ea7d32"/><stop offset="1" stop-color="#f0b160"/></linearGradient><linearGradient id="SVGID_3_" gradientUnits="userSpaceOnUse" x1="72.905" x2="488.247" y1="286.252" y2="286.252"><stop offset="0" stop-color="#dd5c6e"/><stop offset="1" stop-color="#ec8290"/></linearGradient><linearGradient id="SVGID_4_" gradientUnits="userSpaceOnUse" x1="251" x2="251" y1="236.496" y2="431.653"><stop offset="0" stop-color="#4e5660"/><stop offset="1" stop-color="#64768d"/></linearGradient><linearGradient id="SVGID_5_" gradientUnits="userSpaceOnUse" x1="411.504" x2="411.504" xlink:href="#lg1" y1="153.568" y2="65.791"/><linearGradient id="SVGID_6_" gradientUnits="userSpaceOnUse" x1="89.08" x2="89.08" xlink:href="#lg1" y1="136.526" y2="75.938"/><g><path d="m401.701 502h-301.402c-55.394 0-100.299-44.905-100.299-100.299v-115.449l251-41.889 251 41.889v115.449c0 55.394-44.905 100.299-100.299 100.299z" fill="url(#SVGID_1_)"/><path d="m502 286.252h-502v-185.953c0-55.394 44.905-100.299 100.299-100.299h301.402c55.394 0 100.299 44.905 100.299 100.299z" fill="url(#SVGID_2_)"/><circle cx="251" cy="286.252" fill="url(#SVGID_3_)" r="149.296"/><circle cx="251" cy="286.252" fill="url(#SVGID_4_)" r="91.896"/><circle cx="411.504" cy="90.496" fill="url(#SVGID_5_)" r="41.665"/><g><ellipse cx="163.115" cy="94.173" fill="#efc5db" rx="14.936" ry="12.003"/><ellipse cx="338.886" cy="94.173" fill="#efc5db" rx="14.936" ry="12.003"/><circle cx="188.721" cy="64.555" fill="#fff" r="29.618"/><ellipse cx="176.756" cy="64.555" fill="#3b3b44" rx="17.652" ry="17.652" transform="matrix(.707 -.707 .707 .707 6.124 143.893)"/><circle cx="313.279" cy="64.555" fill="#fff" r="29.618"/><g fill="#3b3b44"><ellipse cx="301.313" cy="64.555" rx="17.652" ry="17.652" transform="matrix(.707 -.707 .707 .707 42.606 231.968)"/><path d="m258.59 71.749h-15.18c-3.007 0-5.658 1.976-6.506 4.862-2.672 9.09-5.742 27.748 14.097 27.748s16.768-18.659 14.096-27.749c-.849-2.885-3.499-4.861-6.507-4.861z"/></g></g><path d="m116.534 73.347h-54.909c-8.658 0-15.677 7.019-15.677 15.677v15.575c0 8.658 7.019 15.677 15.677 15.677h54.909c8.658 0 15.677-7.019 15.677-15.677v-15.575c0-8.658-7.019-15.677-15.677-15.677z" fill="url(#SVGID_6_)"/><circle cx="251" cy="286.252" fill="#3c4757" r="21.1"/><path d="m326.978 436.205c-4.803-8.934-15.433-13.074-24.966-9.607-15.916 5.789-33.095 8.95-51.012 8.95-42.987 0-81.724-18.172-108.963-47.249-7.07-7.547-18.689-8.568-27.022-2.444-9.925 7.294-11.189 21.61-2.758 30.59 34.749 37.013 84.09 60.17 138.744 60.17 22.78 0 44.637-4.022 64.9-11.393 11.763-4.279 17.005-17.991 11.077-29.017z" fill="#fcb500"/><g fill="#8196ab"><path d="m318.324 297.752c-6.352 0-11.5-5.149-11.5-11.5 0-6.759-1.191-13.358-3.541-19.615-2.233-5.946.776-12.576 6.723-14.809 5.945-2.232 12.576.777 14.809 6.723 3.324 8.852 5.01 18.172 5.01 27.701-.001 6.351-5.149 11.5-11.501 11.5z"/><path d="m290.108 242.977c-2.317 0-4.655-.698-6.684-2.149-1.518-1.087-3.105-2.106-4.72-3.033-5.509-3.16-7.413-10.188-4.252-15.697 3.16-5.509 10.186-7.411 15.697-4.252 2.278 1.307 4.52 2.747 6.661 4.279 5.165 3.696 6.354 10.88 2.658 16.045-2.243 3.136-5.776 4.807-9.36 4.807z"/></g></g></svg>