<svg id="Capa_1" enable-background="new 0 0 502 502" height="512" viewBox="0 0 502 502" width="512" xmlns="http://www.w3.org/2000/svg" xmlns:xlink="http://www.w3.org/1999/xlink"><linearGradient id="lg1"><stop offset="0" stop-color="#4e5660"/><stop offset="1" stop-color="#64768d"/></linearGradient><linearGradient id="SVGID_1_" gradientTransform="matrix(-1 0 0 1 902 0)" gradientUnits="userSpaceOnUse" x1="486.904" x2="486.904" xlink:href="#lg1" y1="373.311" y2="451.47"/><linearGradient id="SVGID_2_" gradientTransform="matrix(-1 0 0 1 902 0)" gradientUnits="userSpaceOnUse" x1="683.121" x2="683.121" xlink:href="#lg1" y1="373.311" y2="451.47"/><linearGradient id="SVGID_3_" gradientTransform="matrix(-1 0 0 1 902 0)" gradientUnits="userSpaceOnUse" x1="795.299" x2="795.299" y1="146.107" y2="30.968"><stop offset="0" stop-color="#53aae6"/><stop offset="1" stop-color="#a4d2f0"/></linearGradient><linearGradient id="SVGID_4_" gradientUnits="userSpaceOnUse" x1="297.63" x2="297.63" y1="322.984" y2="111.726"><stop offset="0" stop-color="#d4dbdb"/><stop offset="1" stop-color="#f3f3f3"/></linearGradient><linearGradient id="SVGID_5_" gradientTransform="matrix(-1 0 0 1 902 0)" gradientUnits="userSpaceOnUse" x1="598.152" x2="598.152" y1="433.756" y2="198.577"><stop offset="0" stop-color="#74d2e8"/><stop offset="1" stop-color="#baeaf5"/></linearGradient><g><g><circle cx="415.096" cy="412.313" fill="url(#SVGID_1_)" r="45.933"/><circle cx="218.879" cy="412.313" fill="url(#SVGID_2_)" r="45.933"/><path d="m177.873 294.889c4.035 0 8.135-.692 12.146-2.152 18.435-6.709 27.941-27.094 21.23-45.529l-53.28-146.387c-12.423-34.134-45.176-57.068-81.502-57.068h-40.945c-19.618.001-35.522 15.904-35.522 35.522 0 19.617 15.904 35.522 35.522 35.522h40.945c6.571 0 12.496 4.149 14.743 10.322l53.281 146.388c5.249 14.424 18.873 23.382 33.382 23.382z" fill="url(#SVGID_3_)"/><path d="m211.249 247.208-52.312-143.727h-32.053c-4.299 0-8.542.442-12.676 1.285-8.385-12.26-22.46-19.969-37.741-19.969h-26.644c-8.284 0-15 6.716-15 15 0 8.284 6.716 15 15 15h26.643c6.571 0 12.496 4.149 14.743 10.322l53.281 146.388c5.25 14.424 18.874 23.382 33.382 23.382 4.035 0 8.135-.692 12.146-2.152 18.436-6.709 27.941-27.094 21.231-45.529z" fill="#0099cf"/><path d="m112.638 226.158c35.54 66.741 103.215 77.251 184.992 77.251 94.554 0 174.055-28.854 197.427-94.072l6.423-36.427c3.627-20.57-12.197-39.428-33.084-39.428h-341.512c-23.317 0-39.543 23.173-31.568 45.084z" fill="url(#SVGID_4_)"/><path d="m297.63 284.277c94.554 0 174.097-31.784 197.427-74.941l-18.183 103.122c-6.527 37.017-38.689 64.003-76.276 64.003h-176.457c-34.1 0-64.56-21.328-76.223-53.372l-35.281-96.932c32.67 34.345 103.216 58.12 184.993 58.12z" fill="url(#SVGID_5_)"/></g><g><ellipse cx="217.962" cy="231.953" fill="#eaadcd" rx="14.936" ry="12.003"/><ellipse cx="393.733" cy="231.953" fill="#eaadcd" rx="14.936" ry="12.003"/><circle cx="243.569" cy="202.335" fill="#fff" r="29.618"/><ellipse cx="255.534" cy="202.335" fill="#3b3b44" rx="17.652" ry="17.652" transform="matrix(.23 -.973 .973 .23 -.098 404.547)"/><circle cx="368.126" cy="202.335" fill="#fff" r="29.618"/><g fill="#3b3b44"><ellipse cx="380.03" cy="202.335" rx="17.652" ry="17.652" transform="matrix(.87 -.493 .493 .87 -50.362 213.504)"/><ellipse cx="305.848" cy="224.787" rx="13.252" ry="17.352"/></g></g><g fill="#bdf7ff"><path d="m382.512 356.462h-44.004c-5.523 0-10-4.478-10-10s4.477-10 10-10h44.004c5.523 0 10 4.478 10 10s-4.477 10-10 10z"/><path d="m421.771 351.492c-3.675 0-7.211-2.032-8.96-5.545-2.461-4.944-.449-10.947 4.495-13.409 3.516-1.75 6.72-4.031 9.525-6.78 3.944-3.864 10.275-3.802 14.141.144 3.866 3.944 3.802 10.275-.143 14.142-4.302 4.216-9.217 7.715-14.609 10.399-1.432.711-2.952 1.049-4.449 1.049z"/></g></g></svg>