<svg id="Capa_1" enable-background="new 0 0 502 502" height="512" viewBox="0 0 502 502" width="512" xmlns="http://www.w3.org/2000/svg" xmlns:xlink="http://www.w3.org/1999/xlink"><linearGradient id="SVGID_1_" gradientUnits="userSpaceOnUse" x1="212.647" x2="212.647" y1="503.716" y2="66.833"><stop offset="0" stop-color="#f4d952"/><stop offset="1" stop-color="#f9edaf"/></linearGradient><linearGradient id="SVGID_2_" gradientUnits="userSpaceOnUse" x1="286.619" x2="202.886" y1="240.329" y2="240.329"><stop offset="0" stop-color="#4e5660"/><stop offset="1" stop-color="#64768d"/></linearGradient><linearGradient id="SVGID_3_" gradientUnits="userSpaceOnUse" x1="379.991" x2="254.37" y1="148.055" y2="148.055"><stop offset="0" stop-color="#dd5c6e"/><stop offset="1" stop-color="#ec8290"/></linearGradient><linearGradient id="SVGID_4_" gradientUnits="userSpaceOnUse" x1="396.605" x2="396.605" y1="245.308" y2="13.978"><stop offset="0" stop-color="#ec6f80"/><stop offset="1" stop-color="#eca0aa"/></linearGradient><g><path d="m340.321 502h-255.348c-46.929 0-84.973-38.044-84.973-84.973v-255.348c0-46.929 38.044-84.973 84.973-84.973h255.347c46.929 0 84.973 38.044 84.973 84.973v255.348c.001 46.929-38.043 84.973-84.972 84.973z" fill="url(#SVGID_1_)"/><path d="m307.609 201.343h-189.924c-6.351 0-11.5-5.148-11.5-11.5s5.149-11.5 11.5-11.5h189.925c6.351 0 11.5 5.148 11.5 11.5-.001 6.351-5.15 11.5-11.501 11.5z" fill="#efc534"/><path d="m307.609 278.549h-189.924c-6.351 0-11.5-5.148-11.5-11.5s5.149-11.5 11.5-11.5h189.925c6.351 0 11.5 5.148 11.5 11.5-.001 6.351-5.15 11.5-11.501 11.5z" fill="#efc534"/><path d="m212.647 289.353c-11.842-11.843-11.842-31.043 0-42.885l55.164-55.164c11.844-11.842 31.042-11.841 42.885 0 11.842 11.843 11.842 31.043 0 42.885l-55.164 55.164c-11.843 11.841-31.042 11.843-42.885 0z" fill="url(#SVGID_2_)"/><path d="m378.074 234.586c-30.558 30.558-80.102 30.558-110.66 0s-30.558-80.102 0-110.66l62.402-62.402c30.558-30.558 80.102-30.558 110.66 0s30.558 80.102 0 110.66z" fill="url(#SVGID_3_)"/><path d="m313.361 193.184c-7.775 7.63-6.733 20.422 2.147 26.733 15.542 11.046 33.416 19.014 52.734 22.993 3.443-2.467 6.738-5.231 9.832-8.324l23.932-23.932c-1.789.09-3.59.136-5.401.136-22.74 0-43.796-7.205-61.014-19.454-6.85-4.872-16.23-4.039-22.23 1.848z" fill="#d45566"/><circle cx="396.605" cy="105.395" fill="url(#SVGID_4_)" r="105.395"/><g><ellipse cx="124.761" cy="409.367" fill="#eaadcd" rx="14.936" ry="12.003"/><ellipse cx="300.533" cy="409.367" fill="#eaadcd" rx="14.936" ry="12.003"/><circle cx="150.368" cy="379.749" fill="#fff" r="29.618"/><ellipse cx="162.334" cy="379.749" fill="#3b3b44" rx="17.652" ry="17.652" transform="matrix(.228 -.974 .974 .228 -244.427 451.212)"/><circle cx="274.926" cy="379.749" fill="#fff" r="29.618"/><g fill="#3b3b44"><ellipse cx="286.829" cy="379.749" rx="17.652" ry="17.652" transform="matrix(.707 -.707 .707 .707 -184.513 314.045)"/><ellipse cx="212.647" cy="402.201" rx="13.252" ry="17.352"/></g></g><path d="m292.655 301.728 10.855-10.855c35.002 6.005 72.195-4.42 99.313-31.538l15.16-15.16c2.46-.375 4.896-.82 7.311-1.319v-36.023c-7.46 2.106-15.254 3.416-23.288 3.821l-23.932 23.932c-22.954 22.955-56.621 28.663-84.907 17.132l-25.261 25.261c-6.834 6.834-6.834 17.915 0 24.749 6.834 6.834 17.915 6.834 24.749 0z" fill="#efc534"/><g fill="#fffde3"><path d="m45.444 141.149c-2.139 0-4.293-.683-6.115-2.093-4.367-3.382-5.166-9.662-1.785-14.029 11.476-14.821 28.763-23.321 47.429-23.321 5.523 0 10 4.478 10 10s-4.477 10-10 10c-12.433 0-23.956 5.674-31.615 15.565-1.97 2.545-4.926 3.878-7.914 3.878z"/><path d="m35 189.571c-5.523 0-10-4.478-10-10v-8.866c0-5.522 4.477-10 10-10s10 4.478 10 10v8.866c0 5.523-4.477 10-10 10z"/></g></g></svg>