<svg id="Capa_1" enable-background="new 0 0 501.998 501.998" height="512" viewBox="0 0 501.998 501.998" width="512" xmlns="http://www.w3.org/2000/svg" xmlns:xlink="http://www.w3.org/1999/xlink"><linearGradient id="SVGID_1_" gradientUnits="userSpaceOnUse" x1="289.153" x2="289.153" y1="234.47" y2="-13.377"><stop offset="0" stop-color="#53aae6"/><stop offset="1" stop-color="#a4d2f0"/></linearGradient><linearGradient id="SVGID_2_" gradientTransform="matrix(1 -.176 0 1 0 141.227)" gradientUnits="userSpaceOnUse" x1="204.715" x2="204.715" y1="389.603" y2="42.796"><stop offset="0" stop-color="#74d2e8"/><stop offset="1" stop-color="#baeaf5"/></linearGradient><linearGradient id="SVGID_3_" gradientUnits="userSpaceOnUse" x1="381.722" x2="381.722" y1="286.531" y2="41.105"><stop offset="0" stop-color="#dd5c6e"/><stop offset="1" stop-color="#ec8290"/></linearGradient><linearGradient id="SVGID_4_" gradientUnits="userSpaceOnUse" x1="319.519" x2="319.519" y1="512.833" y2="206.56"><stop offset="0" stop-color="#ec6f80"/><stop offset="1" stop-color="#eca0aa"/></linearGradient><linearGradient id="SVGID_5_" gradientUnits="userSpaceOnUse" x1="250.999" x2="250.999" y1="495.672" y2="209.447"><stop offset="0" stop-color="#4e5660"/><stop offset="1" stop-color="#64768d"/></linearGradient><g><path d="m316.041.619c24.49-4.318 46.943 14.522 46.943 39.39v282.156l-147.663 26.037v-227.55c.001-59.15 42.469-109.762 100.72-120.033z" fill="url(#SVGID_1_)"/><path d="m298.518 100.192c-8.654-2.521-17.463 3.203-18.839 12.111-1.176 7.613-1.788 15.399-1.788 23.313v51.821c-20.63-4.514-41.744-5.337-62.57-3.178v30.178c34.932-4.2 66.761 1.75 91.854 15.398.387-.23.329-.195.716-.425v-93.795c0-6.329.49-12.559 1.433-18.653 1.159-7.488-3.529-14.651-10.806-16.77z" fill="#0099cf"/><path d="m362.984 322.164c0 74.04-70.86 146.557-158.27 161.969-87.41 15.413-158.27-32.114-158.27-106.155 0-74.04 70.86-146.557 158.27-161.969s158.27 32.115 158.27 106.155z" fill="url(#SVGID_2_)"/><path d="m408.611 15.584c24.49-4.318 46.943 14.522 46.943 39.39v282.156l-147.663 26.037v-227.55c0-59.15 42.468-109.762 100.72-120.033z" fill="url(#SVGID_3_)"/><path d="m306.667 229.561c-58.973 16.87-157.246 113.651-111.335 255.986 27.541 14.813 63.109 20.401 101.952 13.552 87.41-15.413 158.27-87.929 158.27-161.969-.001-71.372-65.846-118.097-148.887-107.569z" fill="url(#SVGID_4_)"/><path d="m306.667 229.561c-3.105.394-6.232.858-9.383 1.414-87.41 15.413-158.27 87.929-158.27 161.969 0 41.138 21.883 74.083 56.318 92.603 3.105-.393 6.232-.858 9.383-1.413 87.41-15.413 158.27-87.929 158.27-161.969-.001-41.139-21.883-74.083-56.318-92.604z" fill="url(#SVGID_5_)"/><g><ellipse cx="155.581" cy="380.17" fill="#eaadcd" rx="14.936" ry="12.003"/><ellipse cx="331.352" cy="380.17" fill="#eaadcd" rx="14.936" ry="12.003"/><circle cx="181.188" cy="350.552" fill="#fff" r="29.618"/><circle cx="305.745" cy="350.552" fill="#fff" r="29.618"/><g fill="#3b3b44"><g><circle cx="181.188" cy="350.552" r="17.652"/><circle cx="305.745" cy="350.552" r="17.652"/></g><path d="m243.466 381.112c-5.248 0-10.495-1.984-14.776-5.953-2.025-1.878-2.145-5.041-.267-7.066 1.877-2.025 5.042-2.144 7.066-.268 4.696 4.355 11.258 4.355 15.954 0 2.023-1.875 5.188-1.757 7.066.268 1.877 2.025 1.758 5.188-.267 7.066-4.281 3.969-9.528 5.953-14.776 5.953z"/></g></g><g fill="#ffccd3"><path d="m328.124 469.026c-3.929 0-7.655-2.33-9.247-6.188-2.107-5.104.322-10.951 5.428-13.059 2.511-1.037 5.045-2.155 7.533-3.324 5.003-2.348 10.955-.199 13.304 4.798 2.349 4.999.2 10.955-4.798 13.304-2.775 1.304-5.605 2.552-8.408 3.709-1.248.516-2.54.76-3.812.76z"/><path d="m371.144 443.95c-2.968 0-5.905-1.315-7.878-3.831-3.406-4.347-2.645-10.633 1.702-14.04 7.142-5.597 13.743-11.705 19.621-18.156 3.719-4.082 10.044-4.378 14.127-.656 4.082 3.72 4.376 10.045.656 14.127-6.627 7.272-14.051 14.146-22.066 20.428-1.83 1.433-4.004 2.128-6.162 2.128z"/></g></g></svg>