<svg id="Capa_1" enable-background="new 0 0 502 502" height="512" viewBox="0 0 502 502" width="512" xmlns="http://www.w3.org/2000/svg" xmlns:xlink="http://www.w3.org/1999/xlink"><linearGradient id="lg1"><stop offset="0" stop-color="#53aae6"/><stop offset="1" stop-color="#a4d2f0"/></linearGradient><linearGradient id="SVGID_1_" gradientUnits="userSpaceOnUse" x1="174.888" x2="10.3" xlink:href="#lg1" y1="415.723" y2="415.723"/><linearGradient id="SVGID_2_" gradientUnits="userSpaceOnUse" x1="251" x2="251" xlink:href="#lg1" y1="558.844" y2="106.621"/><linearGradient id="SVGID_3_" gradientUnits="userSpaceOnUse" x1="251" x2="251" y1="68.378" y2="230.447"><stop offset="0" stop-color="#f9ecac"/><stop offset="1" stop-color="#fffcdd"/></linearGradient><g><path d="m65.764 343.394c3.79 29.563-10.122 68.908-29.426 97.995-13.456 20.276 1.504 47.193 25.832 46.656 62.195-1.375 117.564-30.885 144.203-76.813z" fill="url(#SVGID_1_)"/><ellipse cx="251" cy="216.118" fill="url(#SVGID_2_)" rx="251" ry="202.171"/><path d="m66.068 361.429c-.832 10.504-3.258 21.623-6.861 32.687 24.144 17.538 52.427 30.962 84.163 40.062-4.588 2.962-9.423 5.673-14.47 8.122-8.52 4.133-11.031 15.093-5.228 22.576 4.339 5.594 12.01 7.382 18.374 4.281 25.804-12.569 47.294-30.906 61.652-53.525-58.263-6.773-104.226-26.2-137.63-54.203z" fill="#0099cf"/><g fill="#bdebff"><path d="m419.005 105.786c-2.33 0-4.669-.809-6.564-2.459-8.638-7.522-18.484-14.337-29.268-20.254-4.841-2.657-6.612-8.736-3.955-13.578 2.658-4.84 8.736-6.611 13.578-3.955 12.035 6.605 23.064 14.244 32.779 22.705 4.165 3.627 4.601 9.943.974 14.108-1.976 2.271-4.753 3.433-7.544 3.433z"/><path d="m350.679 68.324c-1.026 0-2.07-.159-3.1-.495-3.989-1.3-8.141-2.53-12.338-3.658-5.334-1.433-8.496-6.918-7.063-12.252 1.433-5.333 6.915-8.493 12.252-7.063 4.534 1.218 9.023 2.549 13.344 3.957 5.251 1.711 8.121 7.354 6.41 12.605-1.374 4.222-5.293 6.906-9.505 6.906z"/></g><path d="m299.064 134.543h-15.835c-4.059 0-7.172-3.602-6.584-7.618l8.751-59.798c2.139-14.618-16.979-22.047-25.271-9.819l-71.731 105.774c-7.912 11.667.446 27.432 14.542 27.432h15.835c4.059 0 7.172 3.602 6.584 7.618l-8.751 59.798c-2.139 14.618 16.979 22.047 25.27 9.819l71.731-105.774c7.913-11.667-.445-27.432-14.541-27.432z" fill="url(#SVGID_3_)"/><g><ellipse cx="163.115" cy="350.144" fill="#eaadcd" rx="14.936" ry="12.003"/><ellipse cx="338.886" cy="350.144" fill="#eaadcd" rx="14.936" ry="12.003"/><circle cx="188.721" cy="320.526" fill="#fff" r="29.618"/><circle cx="313.279" cy="320.526" fill="#fff" r="29.618"/><g fill="#3b3b44"><g><circle cx="188.721" cy="320.526" r="17.652"/><circle cx="313.279" cy="320.526" r="17.652"/></g><path d="m251 351.087c-5.247 0-10.495-1.984-14.775-5.953-2.025-1.878-2.145-5.041-.268-7.066 1.879-2.025 5.041-2.144 7.066-.268 4.697 4.355 11.256 4.355 15.953 0 2.023-1.875 5.189-1.757 7.066.268s1.758 5.188-.268 7.066c-4.279 3.968-9.527 5.953-14.774 5.953z"/></g></g></g></svg>