<svg id="Capa_1" enable-background="new 0 0 502 502" height="512" viewBox="0 0 502 502" width="512" xmlns="http://www.w3.org/2000/svg" xmlns:xlink="http://www.w3.org/1999/xlink"><linearGradient id="SVGID_1_" gradientUnits="userSpaceOnUse" x1="163.325" x2="163.325" y1="339.471" y2="3.919"><stop offset="0" stop-color="#ec6f80"/><stop offset="1" stop-color="#eca0aa"/></linearGradient><linearGradient id="SVGID_2_" gradientUnits="userSpaceOnUse" x1="301.083" x2="523.999" y1="372.774" y2="372.774"><stop offset="0" stop-color="#74d2e8"/><stop offset="1" stop-color="#baeaf5"/></linearGradient><linearGradient id="SVGID_3_" gradientUnits="userSpaceOnUse" x1="144.572" x2="144.572" y1="561.207" y2="304.21"><stop offset="0" stop-color="#f4c22c"/><stop offset="1" stop-color="#f9e198"/></linearGradient><linearGradient id="SVGID_4_" gradientUnits="userSpaceOnUse" x1="340.996" x2="340.996" y1="302.287" y2="63.124"><stop offset="0" stop-color="#b39bdb"/><stop offset="1" stop-color="#d0c3e8"/></linearGradient><linearGradient id="SVGID_5_" gradientUnits="userSpaceOnUse" x1="259.503" x2="259.503" y1="418.052" y2="203.371"><stop offset="0" stop-color="#4e5660"/><stop offset="1" stop-color="#64768d"/></linearGradient><g><path d="m261.386 338.152h-196.122c-36.044 0-65.264-29.22-65.264-65.264v-196.122c0-36.045 29.22-65.264 65.264-65.264h196.122c36.044 0 65.264 29.22 65.264 65.264v196.122c.001 36.044-29.219 65.264-65.264 65.264z" fill="url(#SVGID_1_)"/><g><ellipse cx="75.44" cy="110.035" fill="#efc5db" rx="14.936" ry="12.003"/><ellipse cx="251.211" cy="110.035" fill="#efc5db" rx="14.936" ry="12.003"/><path d="m130.6 78.439c-.991-15.146-13.602-27.24-28.775-27.629-16.713-.428-30.396 12.992-30.396 29.608 0 .843.035 1.678.105 2.503.422 5.01 5.857 7.995 10.349 5.738.937-.47 1.926-.894 2.937-1.294l-.011-.014c4.777-5.47 10.312-7.46 16.237-7.46 5.926 0 11.46 1.99 16.237 7.46l-.013.013c1.011.4 1.999.823 2.935 1.293 4.544 2.281 9.962-.801 10.365-5.87.114-1.423.126-2.875.03-4.348z" fill="#fff"/><path d="m163.325 120.222c-6.447 0-12.894-2.155-18.273-6.465-4.989-3.997-5.794-11.282-1.797-16.271 3.997-4.99 11.282-5.793 16.271-1.797 2.237 1.792 5.361 1.792 7.598 0 4.988-3.997 12.273-3.193 16.271 1.797 3.997 4.989 3.193 12.274-1.797 16.271-5.379 4.31-11.826 6.465-18.273 6.465z" fill="#3b3b44"/><path d="m101.047 84.383c5.926 0 11.473 1.082 16.237 2.967.911-2.129 1.415-4.47 1.415-6.933 0-9.749-7.903-17.652-17.652-17.652s-17.652 7.903-17.652 17.652c0 2.463.504 4.803 1.415 6.933 4.763-1.885 10.311-2.967 16.237-2.967z" fill="#3b3b44"/><path d="m255.157 78.439c-.991-15.146-13.602-27.24-28.775-27.629-16.713-.428-30.396 12.992-30.396 29.608 0 .843.035 1.678.105 2.503.421 5.01 5.856 7.995 10.349 5.738.937-.47 1.926-.894 2.937-1.294l-.011-.014c4.777-5.47 10.311-7.46 16.237-7.46s11.461 1.99 16.237 7.46l-.013.013c1.011.4 1.999.823 2.935 1.293 4.544 2.281 9.962-.801 10.365-5.87.114-1.423.126-2.875.03-4.348z" fill="#fff"/><path d="m225.604 84.383c5.926 0 11.473 1.082 16.237 2.967.911-2.129 1.415-4.47 1.415-6.933 0-9.749-7.903-17.652-17.652-17.652s-17.652 7.903-17.652 17.652c0 2.463.504 4.803 1.415 6.933 4.764-1.885 10.311-2.967 16.237-2.967z" fill="#3b3b44"/></g><path d="m455.667 488.723h-139.232c-25.589 0-46.333-20.744-46.333-46.333v-139.232c0-25.589 20.744-46.333 46.333-46.333h139.232c25.589 0 46.333 20.744 46.333 46.333v139.232c0 25.589-20.744 46.333-46.333 46.333z" fill="url(#SVGID_2_)"/><path d="m325.234 423.299c29.194-14.634 56.228-33.44 80.209-55.847 8.668-8.099 8.447-21.914-.494-29.711-7.701-6.715-19.26-6.583-26.722.397-21.014 19.657-44.86 36.339-70.919 49.402-11.887 5.959-25.517 6.078-37.206.971v53.879c0 25.589 20.744 46.333 46.333 46.333h53.699c10.845 0 20.081-8.433 20.467-19.271.405-11.378-8.699-20.729-19.987-20.729h-54.179c-3.498 0-6.333-2.835-6.333-6.333v-13.279c5.216-1.447 10.295-3.388 15.132-5.812z" fill="#18c9de"/><path d="m247.942 440.177c41.43-41.43 41.569-108.515.418-150.117-42.508-42.975-112.389-41.043-154.051 2.753-41.537 43.666-49.64 96.568-74.862 124.695-17.23 19.214-9.868 49.602 14.234 58.831 72.439 27.737 163.872 14.227 214.261-36.162z" fill="url(#SVGID_3_)"/><path d="m125.42 356.745c-1.864 0-3.755-.454-5.506-1.411-5.573-3.046-7.621-10.033-4.575-15.607 10.982-20.092 36.653-44.739 75.767-53.658 6.194-1.411 12.356 2.463 13.768 8.655s-2.463 12.357-8.655 13.769c-31.666 7.222-52.117 26.568-60.698 42.266-2.089 3.822-6.033 5.986-10.101 5.986z" fill="#f2ae00"/><path d="m460.402 77.179c-27.264-27.264-68.859-34.147-103.452-17.119l-70.32 34.614c-34.845 17.152-65.815 40.749-91.42 69.294s17.208 77.908 58.852 119.552c41.644 41.645 119.552 58.852 119.552 58.852 28.545-25.606 52.142-56.576 69.294-91.42l34.614-70.32c17.027-34.594 10.144-76.189-17.12-103.453z" fill="url(#SVGID_4_)"/><path d="m195.21 163.968c-17.825 19.871-33.053 42.137-45.168 66.305-8.463 16.883-5.163 37.288 8.191 50.642l98.434 98.434c13.354 13.354 33.759 16.654 50.642 8.191 24.169-12.116 46.435-27.344 66.305-45.168z" fill="url(#SVGID_5_)"/><path d="m142.495 449.537c-5.388 0-10.198-3.805-11.272-9.291-1.222-6.232 2.842-12.275 9.074-13.496 13.526-2.65 40.548-12.183 56.026-31.103 4.02-4.916 11.265-5.642 16.183-1.618 4.915 4.021 5.641 11.267 1.618 16.183-18.346 22.424-48.854 35.082-69.405 39.108-.746.147-1.49.217-2.224.217z" fill="#f2ae00"/><path d="m114.282 212.348c-3.555 7.091-6.055 14.563-7.482 22.204-15.407 7.691-29.439 18.043-41.472 30.691-18.261 19.196-30.944 39.538-40.871 58.561 10.428 8.368 23.472 13.605 37.718 14.27 8.266-15.276 18.354-30.776 32.133-45.262 14.854-15.615 33.297-25.904 52.806-30.737-2.986-10.353-2.135-21.707 2.926-31.802 7.709-15.378 16.678-29.987 26.774-43.698 7.141-9.698 4.312-23.432-6.169-29.365-8.783-4.972-19.925-2.641-25.914 5.482-11.553 15.671-21.742 32.287-30.449 49.656z" fill="#e05d6f"/><g fill="#e1cef5"><path d="m444.577 189.615c-1.482 0-2.988-.331-4.408-1.03-4.955-2.439-6.995-8.434-4.556-13.388l4.594-9.332c2.438-4.956 8.433-6.997 13.388-4.556 4.955 2.438 6.995 8.434 4.556 13.388l-4.594 9.332c-1.74 3.536-5.289 5.586-8.98 5.586z"/><path d="m455.835 140.311c-4.753 0-8.969-3.402-9.833-8.245-1.807-10.128-6.608-19.327-13.884-26.602-3.905-3.905-3.905-10.237 0-14.143 3.906-3.904 10.236-3.904 14.143 0 10.182 10.183 16.901 23.057 19.431 37.231.97 5.438-2.651 10.631-8.088 11.602-.594.105-1.186.157-1.769.157z"/></g></g></svg>