<svg id="Capa_1" enable-background="new 0 0 502 502" height="512" viewBox="0 0 502 502" width="512" xmlns="http://www.w3.org/2000/svg" xmlns:xlink="http://www.w3.org/1999/xlink"><linearGradient id="SVGID_1_" gradientUnits="userSpaceOnUse" x1="251" x2="251" y1="389.112" y2="35.846"><stop offset="0" stop-color="#74d2e8"/><stop offset="1" stop-color="#baeaf5"/></linearGradient><linearGradient id="SVGID_2_" gradientUnits="userSpaceOnUse" x1="251" x2="251" y1="351.973" y2="153.302"><stop offset="0" stop-color="#f5e5a2"/><stop offset="1" stop-color="#fcf7cf"/></linearGradient><linearGradient id="SVGID_3_" gradientUnits="userSpaceOnUse" x1="126.154" x2="410.669" y1="451.399" y2="451.399"><stop offset="0" stop-color="#7ed99e"/><stop offset=".2532" stop-color="#81daa3"/><stop offset=".5725" stop-color="#88ddb3"/><stop offset=".9261" stop-color="#95e2cd"/><stop offset="1" stop-color="#98e3d3"/></linearGradient><g><path d="m398.101 346.159c56.458 0 103.299-45.064 103.893-101.519.389-36.982-18.796-69.492-47.824-87.858-7.054-4.463-11.386-12.062-11.776-20.4-2.651-56.606-58.739-96.044-112.778-79.859-6.679 2-13.928.333-19.17-4.263-25.219-22.108-58.256-35.512-94.428-35.512-69.348.001-127.189 49.252-140.46 114.683-1.679 8.278-7.425 15.078-15.124 18.554-35.749 16.143-60.598 52.153-60.433 93.965.224 56.742 47.264 102.209 104.007 102.209z" fill="url(#SVGID_1_)"/><g><path d="m324.44 187.611h-146.88c-25.842 0-46.791 20.949-46.791 46.79v183.145l120.231 33.853 120.231-33.853v-183.145c0-25.842-20.949-46.79-46.791-46.79z" fill="url(#SVGID_2_)"/><g fill="#f5c98d"><path d="m301.16 273.395h-100.32c-6.351 0-11.5-5.148-11.5-11.5s5.149-11.5 11.5-11.5h100.32c6.351 0 11.5 5.148 11.5 11.5 0 6.351-5.149 11.5-11.5 11.5z"/><path d="m301.16 347.931h-100.32c-6.351 0-11.5-5.148-11.5-11.5s5.149-11.5 11.5-11.5h100.32c6.351 0 11.5 5.148 11.5 11.5s-5.149 11.5-11.5 11.5z"/></g></g><path d="m371.231 417.546h-240.462v20.915c0 25.842 20.949 46.79 46.791 46.79h146.88c25.842 0 46.791-20.949 46.791-46.791z" fill="url(#SVGID_3_)"/><path d="m143.287 181.772c-6.58-8.983-19.823-9.656-27.173-1.292-12.659 14.405-20.345 33.281-20.345 53.92v111.434c2.721.213 5.468.325 8.239.325h26.761v-111.758c0-11.843 4.403-22.653 11.659-30.893 5.376-6.105 5.666-15.173.859-21.736z" fill="#18c9de"/><g fill="#e3fcff"><path d="m460.143 213.686c-3.252 0-6.441-1.584-8.363-4.504-1.304-1.981-2.738-3.908-4.261-5.727-3.546-4.234-2.987-10.541 1.247-14.087 4.236-3.544 10.542-2.987 14.087 1.247 2.014 2.404 3.909 4.952 5.634 7.573 3.036 4.613 1.757 10.814-2.856 13.85-1.694 1.115-3.602 1.648-5.488 1.648z"/><path d="m424.408 179.743c-2.952 0-5.874-1.3-7.848-3.794-8.592-10.856-13.476-23.892-14.122-37.696-.258-5.518 4.005-10.198 9.522-10.457 5.526-.219 10.198 4.006 10.456 9.521.449 9.599 3.847 18.665 9.826 26.22 3.427 4.331 2.695 10.62-1.635 14.047-1.837 1.454-4.026 2.159-6.199 2.159z"/></g><g><ellipse cx="163.115" cy="136.034" fill="#eaadcd" rx="14.936" ry="12.003"/><ellipse cx="338.886" cy="136.034" fill="#eaadcd" rx="14.936" ry="12.003"/><circle cx="188.721" cy="106.416" fill="#fff" r="29.618"/><circle cx="313.279" cy="106.416" fill="#fff" r="29.618"/><g fill="#3b3b44"><g><circle cx="188.721" cy="106.416" r="17.652"/><circle cx="313.279" cy="106.416" r="17.652"/></g><path d="m251 136.976c-5.248 0-10.495-1.984-14.776-5.954-2.025-1.877-2.145-5.041-.267-7.065 1.878-2.025 5.042-2.145 7.066-.267 4.697 4.354 11.257 4.354 15.954 0 2.023-1.879 5.188-1.759 7.066.267 1.877 2.024 1.758 5.189-.267 7.065-4.281 3.97-9.528 5.954-14.776 5.954z"/></g></g></g></svg>