<svg id="Capa_1" enable-background="new 0 0 502 502" height="512" viewBox="0 0 502 502" width="512" xmlns="http://www.w3.org/2000/svg" xmlns:xlink="http://www.w3.org/1999/xlink"><linearGradient id="lg1"><stop offset="0" stop-color="#ea7d32"/><stop offset="1" stop-color="#f0b160"/></linearGradient><linearGradient id="SVGID_1_" gradientUnits="userSpaceOnUse" x1="379.055" x2="510.155" xlink:href="#lg1" y1="248.185" y2="248.185"/><linearGradient id="SVGID_2_" gradientUnits="userSpaceOnUse" x1="71.173" x2="395.708" y1="181.029" y2="181.029"><stop offset="0" stop-color="#f5e5a2"/><stop offset="1" stop-color="#fcf7cf"/></linearGradient><linearGradient id="SVGID_3_" gradientTransform="matrix(-1 0 0 1 638.72 0)" gradientUnits="userSpaceOnUse" x1="419.36" x2="419.36" y1="431.689" y2="256.539"><stop offset="0" stop-color="#f4c22c"/><stop offset="1" stop-color="#f9e198"/></linearGradient><linearGradient id="SVGID_4_" gradientUnits="userSpaceOnUse" x1="219.36" x2="219.36" y1="504.121" y2="287.538"><stop offset="0" stop-color="#f4d952"/><stop offset="1" stop-color="#f9edaf"/></linearGradient><linearGradient id="SVGID_5_" gradientUnits="userSpaceOnUse" x1="203.765" x2="203.765" xlink:href="#lg1" y1="321.594" y2="230.687"/><g><path d="m299.469 268.539c-4.159-18.486 7.455-36.843 25.941-41.003 20.696-4.651 54.778-45.616 152.372-15.555 18.108 5.579 28.266 24.78 22.688 42.888-5.578 18.11-24.778 28.267-42.888 22.689-71.884-22.146-74.674 7.372-117.111 16.922-18.449 4.146-36.833-7.41-41.002-25.941z" fill="url(#SVGID_1_)"/><path d="m394.318 234.535c1.114 11.964 2.701 24.103 4.958 36.307 8.189-1.626 17.878-1.927 30.489.038-2.62-12.935-4.396-25.961-5.594-38.988-.751-8.161-7.871-14.228-16.043-13.615-8.33.624-14.585 7.941-13.81 16.258z" fill="#e06e1c"/><path d="m38.938 273.49c42.527 46.015 133.243 78.652 180.423 78.652 47.179 0 137.896-32.637 180.422-78.652-7.228-37.491-8.027-74.461-8.027-107.659 0-86.109-77.184-155.915-172.395-155.915s-172.396 69.805-172.396 155.915c0 33.198-.799 70.168-8.027 107.659z" fill="url(#SVGID_2_)"/><path d="m219.36 412.827c103.35 0 146.061-37.48 195.354-86.774-6.769-17.415-11.554-35.045-14.932-52.564-70.641-24.537-133.243 48.288-180.422 48.288-47.18 0-109.781-72.825-180.422-48.288-3.378 17.519-8.163 35.149-14.932 52.564 49.294 49.294 92.004 86.774 195.354 86.774z" fill="url(#SVGID_3_)"/><path d="m268.545 338.65c-2.049-7.228-9.326-11.634-16.784-10.73-44.03 5.335-87.156-4.202-123.238-29.063-6.116-4.214-14.422-3.195-19.439 2.282-6.121 6.681-4.986 17.276 2.482 22.406 41.283 28.363 91.713 40.629 144.447 34.089 9.102-1.13 15.036-10.154 12.532-18.984z" fill="#fcb500"/><path d="m411.37 416.453c23.19-4.644 34.571-30.978 22.422-51.269-7.676-12.821-13.94-25.914-19.077-39.13-75.883-2.034-92.004 58.14-195.354 58.14s-119.471-60.174-195.354-58.14c-5.137 13.216-11.402 26.309-19.077 39.13-12.148 20.292-.768 46.626 22.422 51.269 69.618 13.941 96.576 75.631 192.009 75.631s122.391-61.69 192.009-75.631z" fill="url(#SVGID_4_)"/><ellipse cx="178.274" cy="181.943" fill="#eaadcd" rx="14.936" ry="12.003"/><ellipse cx="354.045" cy="181.943" fill="#eaadcd" rx="14.936" ry="12.003"/><circle cx="203.881" cy="152.325" fill="#fff" r="29.618"/><ellipse cx="215.847" cy="152.325" fill="#3b3b44" rx="17.652" ry="17.652" transform="matrix(.228 -.974 .974 .228 18.315 327.751)"/><circle cx="328.438" cy="152.325" fill="#fff" r="29.618"/><ellipse cx="340.342" cy="152.325" fill="#3b3b44" rx="17.652" ry="17.652" transform="matrix(.707 -.707 .707 .707 -8.027 285.273)"/><ellipse cx="266.16" cy="174.778" fill="#3b3b44" rx="13.252" ry="17.352"/><path d="m98.474 272.742c-12.852-13.923-11.984-35.628 1.939-48.481 13.922-12.852 35.628-11.982 48.481 1.939 30.808 33.373 75.959 43.152 123.881 26.829 17.936-6.105 37.429 3.478 43.539 21.414 6.109 17.936-3.478 37.428-21.414 43.538-71.314 24.292-145.541 9.885-196.426-45.239z" fill="url(#SVGID_5_)"/></g></svg>