<svg id="Capa_1" enable-background="new 0 0 502 502" height="512" viewBox="0 0 502 502" width="512" xmlns="http://www.w3.org/2000/svg" xmlns:xlink="http://www.w3.org/1999/xlink"><linearGradient id="lg1"><stop offset="0" stop-color="#ec6f80"/><stop offset="1" stop-color="#eca0aa"/></linearGradient><linearGradient id="SVGID_1_" gradientUnits="userSpaceOnUse" x1="64.063" x2="-15.106" xlink:href="#lg1" y1="320.976" y2="320.976"/><linearGradient id="SVGID_2_" gradientTransform="matrix(-1 0 0 1 502 0)" gradientUnits="userSpaceOnUse" x1="64.063" x2="-15.106" xlink:href="#lg1" y1="320.976" y2="320.976"/><linearGradient id="lg2"><stop offset="0" stop-color="#ea7d32"/><stop offset="1" stop-color="#f0b160"/></linearGradient><linearGradient id="SVGID_3_" gradientUnits="userSpaceOnUse" x1="251" x2="251" xlink:href="#lg2" y1="107.218" y2="25.448"/><linearGradient id="SVGID_4_" gradientUnits="userSpaceOnUse" x1="251" x2="251" y1="469.745" y2="99.125"><stop offset="0" stop-color="#f4d952"/><stop offset="1" stop-color="#f9edaf"/></linearGradient><linearGradient id="SVGID_5_" gradientUnits="userSpaceOnUse" x1="150.259" x2="351.741" xlink:href="#lg2" y1="444.936" y2="444.936"/><g><path d="m251 201.117c-6.351 0-11.5-5.148-11.5-11.5v-104.436c0-6.352 5.149-11.5 11.5-11.5 6.352 0 11.5 5.148 11.5 11.5v104.436c0 6.351-5.148 11.5-11.5 11.5z" fill="#fcb500"/><path d="m91.327 259.02h-42.008c-27.238 0-49.319 22.081-49.319 49.319v25.273c0 27.238 22.081 49.319 49.319 49.319h42.007v-123.911z" fill="url(#SVGID_1_)"/><path d="m410.673 259.02h42.008c27.238 0 49.319 22.081 49.319 49.319v25.273c0 27.238-22.081 49.319-49.319 49.319h-42.008z" fill="url(#SVGID_2_)"/><ellipse cx="251" cy="64.701" fill="url(#SVGID_3_)" rx="41.545" ry="38.776"/><path d="m251 164.947c-98.92 0-179.111 69.649-179.111 155.564 0 53.471 31.065 100.635 78.369 128.636 38.463-4.211 56.353-10.277 100.741-10.277s62.279 6.066 100.741 10.277c47.305-28.001 78.369-75.165 78.369-128.636.002-85.916-80.189-155.564-179.109-155.564z" fill="url(#SVGID_4_)"/><path d="m59.072 289.322c-8.138-.712-15.364 5.216-16.233 13.339-.63 5.893-.95 11.848-.95 17.85 0 21.64 4.127 42.674 12.031 62.421h32.985c-9.65-19.108-15.016-40.219-15.016-62.421 0-4.972.272-9.889.802-14.74.907-8.314-5.287-15.72-13.619-16.449z" fill="#d45566"/><path d="m442.927 289.322c8.138-.712 15.364 5.216 16.233 13.339.63 5.893.95 11.848.95 17.85 0 21.64-4.126 42.674-12.031 62.421h-32.986c9.65-19.108 15.016-40.219 15.016-62.421 0-4.972-.272-9.889-.802-14.74-.905-8.314 5.289-15.72 13.62-16.449z" fill="#d45566"/><path d="m144.413 142.46c-2.943 0-5.886-1.123-8.132-3.368l-29.636-29.636c-4.491-4.491-4.491-11.772 0-16.264 4.491-4.49 11.773-4.49 16.264 0l29.636 29.636c4.491 4.491 4.491 11.772 0 16.264-2.246 2.245-5.19 3.368-8.132 3.368z" fill="#fcb500"/><path d="m357.587 142.46c-2.943 0-5.886-1.123-8.132-3.368-4.491-4.491-4.491-11.772 0-16.264l29.637-29.636c4.49-4.491 11.772-4.489 16.264 0 4.491 4.491 4.491 11.773 0 16.264l-29.637 29.636c-2.245 2.245-5.19 3.368-8.132 3.368z" fill="#fcb500"/><g><ellipse cx="163.114" cy="325.807" fill="#eaadcd" rx="14.936" ry="12.003"/><ellipse cx="338.886" cy="325.807" fill="#eaadcd" rx="14.936" ry="12.003"/><circle cx="188.721" cy="296.189" fill="#fff" r="29.618"/><circle cx="313.279" cy="296.189" fill="#fff" r="29.618"/><g fill="#3b3b44"><g><circle cx="188.721" cy="296.189" r="17.652"/><circle cx="313.279" cy="296.189" r="17.652"/></g><path d="m251 326.749c-5.248 0-10.495-1.984-14.776-5.953-2.025-1.878-2.145-5.041-.267-7.066s5.041-2.143 7.066-.268c4.696 4.355 11.256 4.355 15.954 0 2.023-1.874 5.189-1.757 7.066.268s1.758 5.188-.268 7.066c-4.28 3.969-9.528 5.953-14.775 5.953z"/></g></g><path d="m251 476.075c37.356 0 72.037-9.938 100.741-26.928-18.013-20.912-56.353-35.35-100.741-35.35s-82.728 14.438-100.741 35.35c28.704 16.991 63.385 26.928 100.741 26.928z" fill="url(#SVGID_5_)"/><g fill="#fffde3"><path d="m329.661 223.893c-1.567 0-3.156-.369-4.641-1.148-2.631-1.382-5.353-2.707-8.09-3.939-5.036-2.267-7.282-8.186-5.016-13.223 2.267-5.036 8.188-7.283 13.223-5.016 3.104 1.396 6.193 2.9 9.182 4.47 4.89 2.567 6.771 8.613 4.204 13.503-1.788 3.406-5.264 5.353-8.862 5.353z"/><path d="m282.644 207.802c-.597 0-1.201-.054-1.809-.165-12.465-2.277-25.383-3.115-38.15-2.485-5.509.274-10.208-3.979-10.48-9.496s3.979-10.208 9.496-10.48c14.297-.705 28.761.236 42.729 2.788 5.434.992 9.033 6.201 8.04 11.634-.881 4.824-5.089 8.204-9.826 8.204z"/></g></g></svg>