<svg id="Capa_1" enable-background="new 0 0 502 502" height="512" viewBox="0 0 502 502" width="512" xmlns="http://www.w3.org/2000/svg" xmlns:xlink="http://www.w3.org/1999/xlink"><linearGradient id="lg1"><stop offset="0" stop-color="#4e5660"/><stop offset="1" stop-color="#64768d"/></linearGradient><linearGradient id="SVGID_1_" gradientUnits="userSpaceOnUse" x1="95.615" x2="95.615" xlink:href="#lg1" y1="404.168" y2="174.047"/><linearGradient id="SVGID_2_" gradientUnits="userSpaceOnUse" x1="167.285" x2="267.311" xlink:href="#lg1" y1="470.597" y2="470.597"/><linearGradient id="SVGID_3_" gradientUnits="userSpaceOnUse" x1="276.159" x2="276.159" y1="492.501" y2="98.428"><stop offset="0" stop-color="#b39bdb"/><stop offset="1" stop-color="#d0c3e8"/></linearGradient><linearGradient id="SVGID_4_" gradientUnits="userSpaceOnUse" x1="276.159" x2="276.159" y1="343.083" y2="163.02"><stop offset="0" stop-color="#f9ecac"/><stop offset="1" stop-color="#fffcdd"/></linearGradient><linearGradient id="SVGID_5_" gradientUnits="userSpaceOnUse" x1="276.159" x2="276.159" xlink:href="#lg1" y1="308.021" y2="103.375"/><linearGradient id="SVGID_6_" gradientUnits="userSpaceOnUse" x1="276.159" x2="276.159" xlink:href="#lg1" y1="201.244" y2="319.321"/><linearGradient id="SVGID_7_" gradientUnits="userSpaceOnUse" x1="276.159" x2="276.159" y1="173.671" y2="11.414"><stop offset="0" stop-color="#947ec7"/><stop offset="1" stop-color="#b3a1d9"/></linearGradient><g><path d="m151.412 136.525h-50.317c-33.841 0-61.275 27.434-61.275 61.275v180.118c0 33.842 27.434 61.275 61.275 61.275h50.317z" fill="url(#SVGID_1_)"/><path d="m151.412 439.194 54.587 54.588c5.482 5.482 12.668 8.221 19.853 8.218h50.307v-62.806z" fill="url(#SVGID_2_)"/><path d="m400.906 136.525h-249.494c-33.841 0-61.275 27.434-61.275 61.275v180.118c0 33.841 27.434 61.275 61.275 61.275h50.317l54.587 54.588c10.959 10.958 28.726 10.958 39.685 0l54.587-54.588h50.317c33.841 0 61.275-27.434 61.275-61.275v-180.117c.001-33.842-27.433-61.276-61.274-61.276z" fill="url(#SVGID_3_)"/><ellipse cx="276.159" cy="264.038" fill="url(#SVGID_4_)" rx="76.958" ry="69.039"/><path d="m316.663 261.492c0 19.416-18.134 35.155-40.504 35.155s-40.504-15.74-40.504-35.155v-121.772h81.009v121.772z" fill="url(#SVGID_5_)"/><path d="m316.663 261.492c0 19.416-18.134 35.155-40.504 35.155s-40.504-15.74-40.504-35.155v-121.772h81.009v121.772z" fill="url(#SVGID_6_)"/><path d="m235.654 139.72v115.131c0 8.284 6.716 15 15 15 8.284 0 15-6.716 15-15v-39.536c17.864 1.208 35.103-.692 51.008-5.081v-70.514z" fill="#3c4757"/><ellipse cx="276.159" cy="92.837" fill="url(#SVGID_7_)" rx="106.962" ry="92.837"/><g fill="#e1cef5"><path d="m341.481 69.652c-3.006 0-5.978-1.351-7.946-3.921-2.072-2.707-4.468-5.287-7.12-7.669-4.108-3.69-4.447-10.013-.757-14.122s10.014-4.447 14.122-.757c3.57 3.207 6.812 6.702 9.634 10.388 3.357 4.386 2.525 10.662-1.859 14.02-1.815 1.388-3.952 2.061-6.074 2.061z"/><path d="m296.915 42.341c-.739 0-1.489-.082-2.241-.254-11.293-2.587-23.318-2.744-34.523-.552-5.423 1.063-10.674-2.473-11.734-7.893-1.062-5.421 2.473-10.674 7.893-11.734 13.94-2.729 28.821-2.524 42.83.683 5.384 1.233 8.748 6.597 7.516 11.981-1.063 4.631-5.182 7.769-9.741 7.769z"/></g><g><ellipse cx="188.273" cy="409.548" fill="#eaadcd" rx="14.936" ry="12.003"/><ellipse cx="364.044" cy="409.548" fill="#eaadcd" rx="14.936" ry="12.003"/><path d="m243.433 377.952c-.991-15.146-13.602-27.24-28.775-27.629-16.713-.428-30.396 12.992-30.396 29.608 0 .843.035 1.678.105 2.503.422 5.01 5.857 7.995 10.349 5.738.937-.47 1.926-.894 2.937-1.294l-.011-.014c4.777-5.47 10.312-7.46 16.237-7.46 5.926 0 11.46 1.99 16.237 7.46l-.013.013c1.011.4 1.999.823 2.934 1.293 4.544 2.281 9.962-.802 10.365-5.87.115-1.423.127-2.875.031-4.348z" fill="#fff"/><path d="m276.159 419.734c-6.447 0-12.894-2.155-18.273-6.465-4.989-3.997-5.794-11.282-1.797-16.271 3.997-4.99 11.282-5.793 16.271-1.797 2.237 1.792 5.361 1.792 7.598 0 4.988-3.997 12.273-3.193 16.271 1.797 3.997 4.989 3.193 12.274-1.797 16.271-5.38 4.311-11.826 6.465-18.273 6.465z" fill="#3b3b44"/><path d="m213.88 383.896c5.926 0 11.473 1.082 16.237 2.967.911-2.129 1.415-4.47 1.415-6.933 0-9.749-7.903-17.652-17.652-17.652s-17.652 7.903-17.652 17.652c0 2.463.504 4.803 1.415 6.933 4.763-1.885 10.311-2.967 16.237-2.967z" fill="#3b3b44"/><path d="m367.99 377.952c-.991-15.146-13.602-27.24-28.775-27.629-16.713-.428-30.396 12.992-30.396 29.608 0 .843.035 1.678.105 2.503.422 5.01 5.857 7.995 10.349 5.738.937-.47 1.926-.894 2.937-1.294l-.011-.014c4.777-5.47 10.311-7.46 16.237-7.46s11.461 1.99 16.237 7.46l-.013.013c1.011.4 1.999.823 2.935 1.293 4.544 2.281 9.962-.802 10.365-5.87.114-1.423.127-2.875.03-4.348z" fill="#fff"/><path d="m338.437 383.896c5.926 0 11.473 1.082 16.237 2.967.911-2.129 1.415-4.47 1.415-6.933 0-9.749-7.903-17.652-17.652-17.652s-17.652 7.903-17.652 17.652c0 2.463.504 4.803 1.415 6.933 4.764-1.885 10.312-2.967 16.237-2.967z" fill="#3b3b44"/></g></g></svg>