<svg id="Capa_1" enable-background="new 0 0 502 502" height="512" viewBox="0 0 502 502" width="512" xmlns="http://www.w3.org/2000/svg" xmlns:xlink="http://www.w3.org/1999/xlink"><linearGradient id="SVGID_1_" gradientUnits="userSpaceOnUse" x1="243.006" x2="243.006" y1="437.067" y2="-22.404"><stop offset="0" stop-color="#81d676"/><stop offset="1" stop-color="#c3e6a1"/></linearGradient><linearGradient id="SVGID_2_" gradientUnits="userSpaceOnUse" x1="350.119" x2="350.119" y1="141.992" y2="311.424"><stop offset="0" stop-color="#4e5660"/><stop offset="1" stop-color="#64768d"/></linearGradient><linearGradient id="lg1"><stop offset="0" stop-color="#f4d952"/><stop offset="1" stop-color="#f9edaf"/></linearGradient><linearGradient id="SVGID_3_" gradientTransform="matrix(1 -.176 0 1 0 -81.616)" gradientUnits="userSpaceOnUse" x1="307.716" x2="307.716" xlink:href="#lg1" y1="520.86" y2="370.311"/><linearGradient id="SVGID_4_" gradientUnits="userSpaceOnUse" x1="317.851" x2="557.528" xlink:href="#lg1" y1="77.711" y2="77.711"/><g><circle cx="243.006" cy="252.574" fill="url(#SVGID_1_)" r="243.006"/><path d="m404.694 224.551c-9.665 0-17.5 7.835-17.5 17.5v74.599c0 37.181-35.583 73.596-79.478 81.336-13.664 2.409-26.516 1.748-37.742-1.42-7.473-2.109-15.44.925-19.582 7.493-6.188 9.813-1.318 22.922 9.834 26.118 16.101 4.614 34.275 5.68 53.569 2.276 60.785-10.718 108.399-61.585 108.399-115.804v-74.599c0-9.664-7.835-17.499-17.5-17.499z" fill="#04b048"/><g fill="#04b048"><path d="m75.914 354.678c-5.522 0-10-4.477-10-10 0-51.97 17.797-101.971 51.466-144.599 31.955-40.458 76.912-71.624 126.588-87.756 5.254-1.706 10.895 1.169 12.6 6.422 1.706 5.253-1.169 10.895-6.422 12.6-45.961 14.926-87.537 43.738-117.071 81.131-30.853 39.062-47.16 84.776-47.16 132.202-.001 5.523-4.478 10-10.001 10z"/><path d="m126.688 354.678c-5.522 0-10-4.477-10-10 0-40.727 14.202-80.08 41.07-113.807 25.37-31.846 60.994-56.605 100.312-69.718 5.244-1.748 10.903 1.084 12.65 6.322 1.747 5.239-1.083 10.903-6.322 12.65-35.692 11.903-68.009 34.351-90.997 63.207-24.018 30.148-36.713 65.193-36.713 101.345.001 5.524-4.477 10.001-10 10.001z"/><path d="m177.463 354.678c-5.523 0-10-4.477-10-10 0-29.583 10.627-58.337 30.733-83.152 18.754-23.146 45.012-41.435 73.937-51.497 5.218-1.82 10.917.943 12.73 6.158 1.815 5.217-.942 10.916-6.158 12.73-25.455 8.856-48.528 24.908-64.97 45.199-17.188 21.214-26.272 45.613-26.272 70.561 0 5.524-4.478 10.001-10 10.001z"/></g><g><path d="m313.043 149.001 74.151-13.075v180.724l-74.151 13.075z" fill="url(#SVGID_2_)"/><path d="m341.635 143.959-28.592 5.041v35.541l34.669-6.113c8.364-1.475 14.461-8.742 14.461-17.234.001-10.881-9.823-19.124-20.538-17.235z" fill="#3c4757"/><path d="m387.194 316.65c0 37.181-35.583 73.596-79.478 81.336s-79.478-16.127-79.478-53.307 35.584-73.596 79.478-81.336c43.895-7.74 79.478 16.126 79.478 53.307z" fill="url(#SVGID_3_)"/><path d="m474.787 6.779-108.014 19.045c-31.075 5.479-53.73 32.479-53.73 64.034v59.143l114.774-20.238c42.904-7.565 74.183-44.842 74.183-88.408v-10.741c0-14.417-13.016-25.338-27.213-22.835z" fill="url(#SVGID_4_)"/></g><g fill="#d6f7c8"><path d="m137.311 83.489c-3.417 0-6.745-1.752-8.613-4.904-2.815-4.752-1.245-10.886 3.506-13.701 11.9-7.051 24.519-12.984 37.505-17.635 5.2-1.862 10.925.843 12.786 6.042 1.862 5.2-.843 10.925-6.042 12.786-11.79 4.223-23.247 9.61-34.054 16.014-1.599.947-3.355 1.398-5.088 1.398z"/><path d="m94.786 116.789c-2.531 0-5.065-.956-7.013-2.872-3.937-3.873-3.988-10.205-.114-14.142 3.114-3.165 6.37-6.279 9.677-9.254 4.103-3.695 10.427-3.363 14.122.745 3.694 4.105 3.36 10.428-.745 14.122-3.006 2.705-5.966 5.536-8.798 8.414-1.957 1.99-4.542 2.987-7.129 2.987z"/></g></g></svg>