<svg id="Capa_1" enable-background="new 0 0 502 502" height="512" viewBox="0 0 502 502" width="512" xmlns="http://www.w3.org/2000/svg" xmlns:xlink="http://www.w3.org/1999/xlink"><linearGradient id="SVGID_1_" gradientUnits="userSpaceOnUse" x1="251" x2="251" y1="423.729" y2="42.898"><stop offset="0" stop-color="#4e5660"/><stop offset="1" stop-color="#64768d"/></linearGradient><linearGradient id="lg1"><stop offset="0" stop-color="#f9edaf"/><stop offset="1" stop-color="#fffcdd"/></linearGradient><linearGradient id="SVGID_2_" gradientUnits="userSpaceOnUse" x1="66.844" x2="66.844" xlink:href="#lg1" y1="172.005" y2="110.118"/><linearGradient id="SVGID_3_" gradientUnits="userSpaceOnUse" x1="435.156" x2="435.156" xlink:href="#lg1" y1="172.005" y2="110.118"/><linearGradient id="SVGID_4_" gradientTransform="matrix(-1 0 0 1 902 214.262)" gradientUnits="userSpaceOnUse" x1="466.844" x2="466.844" xlink:href="#lg1" y1="212.281" y2="150.395"/><linearGradient id="SVGID_5_" gradientTransform="matrix(-1 0 0 1 902 214.262)" gradientUnits="userSpaceOnUse" x1="589.615" x2="589.615" xlink:href="#lg1" y1="212.281" y2="150.395"/><linearGradient id="SVGID_6_" gradientTransform="matrix(-1 0 0 1 902 214.262)" gradientUnits="userSpaceOnUse" x1="712.385" x2="712.385" xlink:href="#lg1" y1="212.281" y2="150.395"/><linearGradient id="SVGID_7_" gradientTransform="matrix(-1 0 0 1 902 214.262)" gradientUnits="userSpaceOnUse" x1="835.156" x2="835.156" xlink:href="#lg1" y1="212.281" y2="150.395"/><linearGradient id="SVGID_8_" gradientUnits="userSpaceOnUse" x1="251" x2="251" y1="113.642" y2="332.527"><stop offset="0" stop-color="#f4d952"/><stop offset="1" stop-color="#f9edaf"/></linearGradient><linearGradient id="lg2"><stop offset="0" stop-color="#ec6f80"/><stop offset="1" stop-color="#eca0aa"/></linearGradient><linearGradient id="SVGID_9_" gradientUnits="userSpaceOnUse" x1="251.347" x2="251.347" xlink:href="#lg2" y1="366.124" y2="366.122"/><linearGradient id="SVGID_10_" gradientUnits="userSpaceOnUse" x1="251.001" x2="251.001" xlink:href="#lg2" y1="384.773" y2="25.703"/><g><path d="m455.646 470.859h-409.292c-25.601 0-46.354-20.753-46.354-46.354v-298.76c0-25.601 20.753-46.354 46.354-46.354h409.291c25.601 0 46.354 20.754 46.354 46.354v298.76c.001 25.601-20.753 46.354-46.353 46.354z" fill="url(#SVGID_1_)"/><path d="m212.916 392.29c-2.483-7.711-10.639-12.057-18.424-9.818l-2.614.752c-37.825 10.879-75.846-16.679-77.192-56.083l-1.954-57.171c-.096-2.817-.984-5.55-2.562-7.885l-32.025-47.402c-1.716-2.54-3.207-5.153-4.482-7.818-3.344-6.989-11.508-10.222-18.762-7.499l-.012.004c-8.222 3.087-12.091 12.565-8.285 20.48 1.906 3.964 4.13 7.85 6.682 11.627l27.196 40.255c1.578 2.335 2.466 5.068 2.562 7.885l1.659 48.549c2.019 59.107 59.042 100.116 115.465 83.891l2.614-.752c8.141-2.342 12.73-10.953 10.134-19.015z" fill="#3c4757"/><path d="m83.157 179.663h-32.625c-8.558 0-15.495-6.937-15.495-15.495v-32.625c0-8.558 6.937-15.495 15.495-15.495h32.625c8.558 0 15.495 6.937 15.495 15.495v32.625c0 8.558-6.938 15.495-15.495 15.495z" fill="url(#SVGID_2_)"/><path d="m451.468 179.663h-32.625c-8.558 0-15.495-6.937-15.495-15.495v-32.625c0-8.558 6.937-15.495 15.495-15.495h32.625c8.558 0 15.495 6.937 15.495 15.495v32.625c0 8.558-6.937 15.495-15.495 15.495z" fill="url(#SVGID_3_)"/><path d="m418.843 434.202h32.625c8.558 0 15.495-6.937 15.495-15.495v-32.625c0-8.558-6.937-15.495-15.495-15.495h-32.625c-8.558 0-15.495 6.937-15.495 15.495v32.625c0 8.557 6.938 15.495 15.495 15.495z" fill="url(#SVGID_4_)"/><path d="m296.073 434.202h32.625c8.557 0 15.495-6.937 15.495-15.495v-32.625c0-8.558-6.937-15.495-15.495-15.495h-32.625c-8.557 0-15.495 6.937-15.495 15.495v32.625c0 8.557 6.937 15.495 15.495 15.495z" fill="url(#SVGID_5_)"/><path d="m173.302 434.202h32.625c8.557 0 15.495-6.937 15.495-15.495v-32.625c0-8.558-6.937-15.495-15.495-15.495h-32.625c-8.557 0-15.495 6.937-15.495 15.495v32.625c0 8.557 6.938 15.495 15.495 15.495z" fill="url(#SVGID_6_)"/><path d="m212.916 392.29c-2.483-7.71-10.639-12.057-18.424-9.818l-2.614.752c-11.599 3.336-23.211 3.044-33.784-.081-.183.953-.287 1.934-.287 2.94v27.862c13.545 2.658 27.972 2.25 42.361-1.888l2.614-.752c8.141-2.342 12.73-10.953 10.134-19.015z" fill="#f5c98d"/><path d="m50.532 434.202h32.625c8.558 0 15.495-6.937 15.495-15.495v-32.625c0-8.558-6.937-15.495-15.495-15.495h-32.625c-8.558 0-15.495 6.937-15.495 15.495v32.625c0 8.557 6.937 15.495 15.495 15.495z" fill="url(#SVGID_7_)"/><path d="m242.815 336.437-59.473 17.101c-18.529 5.328-37.128-8.185-37.786-27.453l-2.114-61.847c-.19-5.562-1.943-10.958-5.059-15.569l-34.643-51.277c-10.793-15.975-3.688-37.84 14.433-44.421l58.167-21.122c5.231-1.9 9.821-5.234 13.244-9.622l38.063-48.793c11.858-15.201 34.848-15.201 46.707 0l38.063 48.793c3.423 4.388 8.013 7.723 13.244 9.622l58.167 21.122c18.122 6.581 25.226 28.445 14.433 44.421l-34.643 51.277c-3.115 4.611-4.869 10.007-5.059 15.569l-2.114 61.847c-.659 19.268-19.258 32.781-37.786 27.453l-59.473-17.101c-5.349-1.538-11.023-1.538-16.371 0z" fill="url(#SVGID_8_)"/><path d="m251.342 366.124.01-.002h-.002z" fill="url(#SVGID_9_)"/><path d="m310.123 383.224-59.123-17.001-59.122 17.001c-37.825 10.879-75.846-16.679-77.192-56.083l-2.101-61.481-34.439-50.976c-22.035-32.615-7.571-77.287 29.486-90.743l57.823-20.998 37.839-48.505c24.211-31.035 71.165-31.084 95.414 0l37.838 48.505 57.824 20.998c36.998 13.436 51.555 58.074 29.484 90.745l-34.438 50.975-2.101 61.481c-1.345 39.335-39.307 66.98-77.192 56.082zm-58.771-17.102c-.001 0-.001 0-.002 0l-.009.002c.004 0 .008-.001.011-.002zm16.371-59.369 49.532 14.243c4.253 1.223 8.523-1.879 8.674-6.302l1.76-51.509c.389-11.38 3.964-22.378 10.336-31.809l28.851-42.704c2.478-3.667.847-8.686-3.313-10.197l-48.445-17.593c-10.697-3.883-20.052-10.68-27.054-19.655l-31.702-40.64c-2.722-3.49-8-3.49-10.722 0l-31.702 40.639c-7.003 8.976-16.358 15.773-27.057 19.657l-48.444 17.592c-4.16 1.511-5.791 6.53-3.313 10.197l28.853 42.708c6.371 9.427 9.945 20.425 10.335 31.804l1.76 51.511c.151 4.423 4.421 7.525 8.674 6.302l49.533-14.243h-.002c10.941-3.147 22.506-3.147 33.446-.001z" fill="url(#SVGID_10_)"/><g fill="#ffccd3"><path d="m377.715 239.374c-1.926 0-3.872-.556-5.589-1.715-4.576-3.092-5.78-9.308-2.688-13.884l16.497-24.419c3.091-4.576 9.307-5.78 13.884-2.688 4.576 3.092 5.78 9.308 2.688 13.884l-16.497 24.419c-1.931 2.86-5.084 4.403-8.295 4.403z"/><path d="m400.57 176.317c-3.564 0-7.013-1.909-8.818-5.269-.587-1.092-1.275-2.134-2.045-3.097-3.45-4.313-2.751-10.605 1.562-14.056 4.312-3.449 10.606-2.751 14.056 1.561 1.525 1.907 2.887 3.968 4.046 6.124 2.614 4.865.789 10.929-4.076 13.542-1.506.811-3.127 1.195-4.725 1.195z"/></g><g><ellipse cx="163.115" cy="191.784" fill="#eaadcd" rx="14.936" ry="12.003"/><ellipse cx="338.886" cy="191.784" fill="#eaadcd" rx="14.936" ry="12.003"/><circle cx="188.721" cy="162.166" fill="#fff" r="29.618"/><circle cx="313.279" cy="162.166" fill="#fff" r="29.618"/><path d="m198.504 172.596c-2.648.001-5.214-1.404-6.579-3.888-.94-1.71-2.554-1.896-3.204-1.896s-2.263.186-3.204 1.896c-1.995 3.629-6.556 4.953-10.185 2.959-3.63-1.995-4.955-6.556-2.96-10.186 3.278-5.964 9.543-9.669 16.348-9.669 6.806 0 13.07 3.705 16.349 9.669 1.996 3.63.67 8.19-2.959 10.186-1.145.63-2.384.929-3.606.929z" fill="#3b3b44"/><path d="m323.062 172.596c-2.647.001-5.213-1.404-6.579-3.888-.94-1.71-2.554-1.896-3.205-1.896-.65.001-2.264.186-3.204 1.896-1.995 3.629-6.555 4.953-10.185 2.959-3.63-1.995-4.955-6.556-2.959-10.186 3.278-5.964 9.542-9.668 16.348-9.669 6.806 0 13.07 3.705 16.349 9.669 1.996 3.63.671 8.189-2.959 10.186-1.146.63-2.385.929-3.606.929z" fill="#3b3b44"/><g><path d="m262.671 201.97h-23.342c-6.508 0-11.784-5.276-11.784-11.784 0-6.508 5.276-11.784 11.784-11.784h23.342c6.508 0 11.784 5.276 11.784 11.784 0 6.508-5.276 11.784-11.784 11.784z" fill="#3b3b44"/></g></g></g></svg>