<svg id="Capa_1" enable-background="new 0 0 502 502" height="512" viewBox="0 0 502 502" width="512" xmlns="http://www.w3.org/2000/svg" xmlns:xlink="http://www.w3.org/1999/xlink"><linearGradient id="lg1"><stop offset="0" stop-color="#ec6f80"/><stop offset="1" stop-color="#eca0aa"/></linearGradient><linearGradient id="SVGID_1_" gradientUnits="userSpaceOnUse" x1="298.996" x2="298.996" xlink:href="#lg1" y1="492.562" y2="6.945"/><linearGradient id="SVGID_2_" gradientUnits="userSpaceOnUse" x1="116.085" x2="400.805" y1="196.945" y2="196.945"><stop offset="0" stop-color="#f9edaf"/><stop offset="1" stop-color="#fffcdd"/></linearGradient><linearGradient id="SVGID_3_" gradientUnits="userSpaceOnUse" x1="79.908" x2="79.908" xlink:href="#lg1" y1="161.028" y2="-9.786"/><linearGradient id="SVGID_4_" gradientUnits="userSpaceOnUse" x1="363.605" x2="363.605" y1="414.331" y2="307.371"><stop offset="0" stop-color="#f4d952"/><stop offset="1" stop-color="#f9edaf"/></linearGradient><g><path d="m23.249 151.865c-2.943 0-5.886-1.123-8.132-3.368-4.491-4.491-4.491-11.773 0-16.264l117.116-117.117c4.491-4.49 11.773-4.49 16.264 0 4.491 4.491 4.491 11.772 0 16.264l-117.117 117.116c-2.245 2.246-5.189 3.369-8.131 3.369z" fill="#aeb4ba"/><path d="m467.559 237.548c57.981 57.981 38.184 141.164-25.332 204.68s-146.698 83.313-204.68 25.332c-46.45-46.45-25.15-60.686-56.05-91.586-17.925-17.925-45.802-25.755-72.06-39.819-21.512-11.522-16.038-44.038 8.075-47.792 31.263-4.867 54.321-18.168 65.862-45.089l59.898-59.898c26.921-11.541 40.222-34.6 45.089-65.863 3.754-24.113 36.27-29.587 47.792-8.075 14.064 26.258 21.895 54.135 39.82 72.06 30.9 30.9 45.136 9.6 91.586 56.05z" fill="url(#SVGID_1_)"/><path d="m314.051 340.537 3.296-3.296c5.858-5.858 5.858-15.355 0-21.213-5.858-5.858-15.355-5.858-21.213 0l-3.297 3.297c-9.226 9.226-24.184 9.226-33.41 0l-76.052-76.052c-4.322 10.082-10.26 18.253-17.639 24.787l72.476 72.476c20.96 20.963 54.884 20.958 75.839.001z" fill="#e05d6f"/><path d="m127.544 67.646-59.898 59.898 191.781 191.781c9.226 9.226 24.184 9.226 33.41 0l26.487-26.487c9.226-9.226 9.226-24.184 0-33.41z" fill="url(#SVGID_2_)"/><path d="m210.064 227.534-66.956-66.956 28.878-28.876c3.365-3.365 6.257-7.04 8.68-10.934l-53.122-53.122-59.898 59.898 121.204 121.204c5.858 5.858 15.356 5.858 21.214 0 5.858-5.858 5.858-15.356 0-21.214z" fill="#f5c98d"/><path d="m53.874 12.093-41.78 41.78c-18.15 18.15-15.514 48.288 5.513 63.011l53.335 37.346c12.276 8.596 28.951 7.137 39.547-3.46l40.282-40.282c10.596-10.596 12.055-27.271 3.46-39.547l-37.346-53.335c-14.723-21.026-44.861-23.663-63.011-5.513z" fill="url(#SVGID_3_)"/><path d="m365.603 318.57-47.033 47.033c-9.142 9.142-9.142 23.964 0 33.105l9.932 9.932c9.142 9.142 23.964 9.142 33.105 0l47.033-47.033c9.142-9.142 9.142-23.964 0-33.105l-9.932-9.932c-9.142-9.142-23.963-9.142-33.105 0z" fill="url(#SVGID_4_)"/><g fill="#3c4757"><path d="m216.124 287.522c-2.943 0-5.886-1.122-8.132-3.368-4.491-4.491-4.491-11.772 0-16.264l59.898-59.897c4.492-4.49 11.772-4.492 16.264 0 4.491 4.491 4.491 11.772 0 16.264l-59.898 59.897c-2.246 2.245-5.189 3.368-8.132 3.368z"/><path d="m155.982 227.38c-2.943 0-5.886-1.122-8.132-3.368-4.491-4.491-4.491-11.772 0-16.264l59.898-59.898c4.492-4.49 11.772-4.492 16.264 0 4.491 4.491 4.491 11.773 0 16.264l-59.898 59.897c-2.245 2.246-5.189 3.369-8.132 3.369z"/></g><g><path d="m269.521 430.911c-5.875 0-10.887-4.479-11.438-10.444-1.971-21.363-12.902-46.422-32.244-50.959-6.184-1.451-10.02-7.64-8.57-13.822 1.451-6.185 7.639-10.021 13.823-8.57 30.587 7.176 47.099 40.949 49.893 71.238.584 6.324-4.07 11.925-10.395 12.508-.358.033-.715.049-1.069.049z" fill="#efc534"/></g><g><path d="m419.424 281.035c-.354 0-.711-.017-1.07-.05-30.289-2.795-64.063-19.306-71.238-49.893-1.451-6.184 2.386-12.372 8.569-13.823 6.187-1.448 12.372 2.387 13.823 8.57 4.537 19.341 29.596 30.271 50.959 32.243 6.324.583 10.979 6.184 10.395 12.508-.551 5.966-5.564 10.445-11.438 10.445z" fill="#efc534"/></g><g fill="#ffccd3"><path d="m454.342 388.015c-1.681 0-3.385-.425-4.95-1.318-4.796-2.738-6.463-8.847-3.725-13.643 5.604-9.814 9.832-19.644 12.564-29.213 1.517-5.311 7.053-8.387 12.361-6.87 5.31 1.516 8.386 7.05 6.87 12.36-3.173 11.114-8.027 22.433-14.428 33.641-1.844 3.231-5.22 5.043-8.692 5.043z"/><path d="m470.811 314.769c-4.801 0-9.038-3.468-9.852-8.359-.566-3.399-1.384-6.767-2.433-10.01-1.699-5.255 1.184-10.893 6.439-12.592 5.257-1.697 10.893 1.185 12.591 6.439 1.35 4.177 2.404 8.51 3.131 12.877.907 5.448-2.774 10.6-8.222 11.507-.555.093-1.109.138-1.654.138z"/></g></g></svg>