<svg id="Capa_1" enable-background="new 0 0 502 502" height="512" viewBox="0 0 502 502" width="512" xmlns="http://www.w3.org/2000/svg" xmlns:xlink="http://www.w3.org/1999/xlink"><linearGradient id="SVGID_1_" gradientTransform="matrix(-1 0 0 1 502 0)" gradientUnits="userSpaceOnUse" x1="251" x2="251" y1="526.255" y2="-39.012"><stop offset="0" stop-color="#ec6f80"/><stop offset="1" stop-color="#eca0aa"/></linearGradient><linearGradient id="lg1"><stop offset="0" stop-color="#f4d952"/><stop offset="1" stop-color="#f9edaf"/></linearGradient><linearGradient id="SVGID_2_" gradientTransform="matrix(-1 0 0 1 502 0)" gradientUnits="userSpaceOnUse" x1="251" x2="251" xlink:href="#lg1" y1="513.027" y2="256.046"/><linearGradient id="SVGID_3_" gradientTransform="matrix(-1 0 0 1 502 0)" gradientUnits="userSpaceOnUse" x1="377.948" x2="377.948" xlink:href="#lg1" y1="165.411" y2="60.105"/><g><path d="m261.755 21.646c2.893 48.876 32.853 77.339 68.85 102.915 6.563 4.663 15.82 1.622 18.253-6.053 2.415-7.614 4.522-15.559 6.298-23.824 4.129-19.214 29.033-24.509 40.566-8.596 51.124 70.538 67.954 146.496 67.954 215.784.001 110.528-95.218 200.128-212.676 200.128s-212.677-89.6-212.677-200.128c0-112.108 70.813-245.766 191.611-299.889 14.528-6.509 30.88 3.771 31.821 19.663z" fill="url(#SVGID_1_)"/><path d="m111.874 352.04c0-11.251 2.382-21.941 6.662-31.605 3.61-8.152.586-17.708-7.101-22.225-9.053-5.319-20.659-1.496-24.913 8.104-6.2 13.991-9.648 29.463-9.648 45.726 0 26.551 11.27 56.332 32.593 86.122 7.982 11.152 17.297 22.143 27.761 32.815 32.903 19.641 71.923 31.023 113.772 31.023-11.322 0-22.645-3.242-32.494-9.726-72.698-47.861-106.632-104.016-106.632-140.234z" fill="#d45566"/><path d="m390.126 352.04c0-43.221-35.038-78.258-78.258-78.258-21.408 0-40.8 8.603-54.927 22.534-3.283 3.237-8.599 3.237-11.882 0-14.127-13.931-33.519-22.534-54.927-22.534-43.221 0-78.258 35.037-78.258 78.258 0 36.218 33.934 92.373 106.632 140.234 19.698 12.968 45.289 12.968 64.987 0 72.699-47.861 106.633-104.016 106.633-140.234z" fill="url(#SVGID_2_)"/><path d="m194.648 83.722c0-21.931-17.779-39.71-39.71-39.71-10.863 0-20.703 4.365-27.871 11.434-1.666 1.643-4.363 1.643-6.029 0-7.168-7.069-17.008-11.434-27.871-11.434-21.931 0-39.71 17.779-39.71 39.71 0 18.378 17.219 46.873 54.108 71.159 9.996 6.581 22.981 6.581 32.977 0 36.887-24.287 54.106-52.781 54.106-71.159z" fill="url(#SVGID_3_)"/><g><ellipse cx="163.114" cy="234.929" fill="#efc5db" rx="14.936" ry="12.003"/><ellipse cx="338.886" cy="234.929" fill="#efc5db" rx="14.936" ry="12.003"/><path d="m218.274 203.332c-.991-15.146-13.602-27.24-28.775-27.629-16.713-.428-30.396 12.992-30.396 29.608 0 .843.035 1.678.105 2.503.422 5.01 5.857 7.994 10.349 5.738.937-.47 1.926-.894 2.937-1.294l-.011-.014c4.777-5.47 10.312-7.46 16.237-7.46 5.926 0 11.46 1.99 16.237 7.46l-.013.013c1.011.4 1.999.823 2.934 1.293 4.544 2.281 9.962-.801 10.365-5.87.115-1.423.128-2.875.031-4.348z" fill="#fff"/><path d="m251 245.115c-6.447 0-12.894-2.155-18.274-6.465-4.989-3.997-5.794-11.282-1.797-16.271 3.997-4.99 11.282-5.793 16.271-1.797 2.237 1.792 5.361 1.792 7.598 0 4.988-3.997 12.273-3.193 16.271 1.797 3.997 4.989 3.193 12.274-1.797 16.271-5.378 4.31-11.825 6.465-18.272 6.465z" fill="#3b3b44"/><path d="m188.721 209.277c5.926 0 11.473 1.082 16.237 2.967.911-2.129 1.415-4.47 1.415-6.933 0-9.749-7.903-17.652-17.652-17.652s-17.652 7.903-17.652 17.652c0 2.463.504 4.803 1.415 6.933 4.764-1.885 10.312-2.967 16.237-2.967z" fill="#3b3b44"/><path d="m342.832 203.332c-.991-15.146-13.602-27.24-28.775-27.629-16.713-.428-30.396 12.992-30.396 29.608 0 .843.036 1.678.105 2.503.422 5.01 5.857 7.994 10.349 5.738.937-.47 1.926-.894 2.937-1.294l-.011-.014c4.777-5.47 10.311-7.46 16.237-7.46s11.461 1.99 16.237 7.46l-.013.013c1.011.4 1.999.823 2.935 1.293 4.544 2.281 9.962-.801 10.365-5.87.114-1.423.126-2.875.03-4.348z" fill="#fff"/><path d="m313.279 209.277c5.926 0 11.473 1.082 16.237 2.967.911-2.129 1.415-4.47 1.415-6.933 0-9.749-7.903-17.652-17.652-17.652s-17.652 7.903-17.652 17.652c0 2.463.504 4.803 1.415 6.933 4.763-1.885 10.311-2.967 16.237-2.967z" fill="#3b3b44"/></g><g fill="#ffccd3"><path d="m426.636 239.703c-4.66 0-8.831-3.274-9.791-8.019-2.355-11.643-5.36-23.188-8.93-34.313-1.688-5.259 1.207-10.89 6.466-12.577 5.262-1.689 10.89 1.207 12.577 6.466 3.795 11.826 6.988 24.093 9.49 36.458 1.095 5.413-2.405 10.689-7.818 11.785-.669.135-1.337.2-1.994.2z"/><path d="m402.417 166.122c-3.756 0-7.355-2.126-9.058-5.75-1.296-2.759-2.649-5.532-4.021-8.244-2.493-4.929-.52-10.944 4.408-13.438 4.929-2.492 10.944-.52 13.438 4.408 1.46 2.886 2.898 5.837 4.276 8.77 2.349 4.999.199 10.955-4.799 13.303-1.374.646-2.82.951-4.244.951z"/></g></g></svg>