<svg id="Capa_1" enable-background="new 0 0 502 502" height="512" viewBox="0 0 502 502" width="512" xmlns="http://www.w3.org/2000/svg" xmlns:xlink="http://www.w3.org/1999/xlink"><linearGradient id="SVGID_1_" gradientUnits="userSpaceOnUse" x1="251" x2="251" y1="478.177" y2="-87.09"><stop offset="0" stop-color="#f5e5a2"/><stop offset="1" stop-color="#fcf7cf"/></linearGradient><linearGradient id="SVGID_2_" gradientUnits="userSpaceOnUse" x1="142.09" x2="142.09" y1="448.479" y2="290.441"><stop offset="0" stop-color="#b39bdb"/><stop offset="1" stop-color="#d0c3e8"/></linearGradient><linearGradient id="SVGID_3_" gradientUnits="userSpaceOnUse" x1="390.135" x2="390.135" y1="449.854" y2="283.684"><stop offset="0" stop-color="#ec6f80"/><stop offset="1" stop-color="#eca0aa"/></linearGradient><linearGradient id="SVGID_4_" gradientUnits="userSpaceOnUse" x1="390.135" x2="390.135" y1="171.172" y2="-12.689"><stop offset="0" stop-color="#81d676"/><stop offset="1" stop-color="#c3e6a1"/></linearGradient><linearGradient id="SVGID_5_" gradientTransform="matrix(-1 0 0 1 116.65 0)" gradientUnits="userSpaceOnUse" x1="4.785" x2="4.785" y1="171.172" y2="-12.689"><stop offset="0" stop-color="#74d2e8"/><stop offset="1" stop-color="#baeaf5"/></linearGradient><g><path d="m251 0c-138.624 0-251 112.376-251 251v167.597c0 46.062 37.341 83.403 83.403 83.403h167.597c138.623 0 251-112.376 251-251 0-138.624-112.376-251-251-251z" fill="url(#SVGID_1_)"/><path d="m142.09 486.307c16.691 0 32.538-3.683 46.771-10.277 8.475-3.926 11.298-14.596 5.918-22.231-4.152-5.893-11.925-8.032-18.466-5.004-10.408 4.818-21.999 7.512-34.223 7.512-35.906 0-66.394-23.18-77.324-55.392-2.534-7.469-10.333-11.773-17.97-9.803l-.002.001c-8.407 2.169-13.272 11.021-10.49 19.246 14.921 44.109 56.703 75.948 105.786 75.948z" fill="#f5c98d"/><path d="m359.91 456.307c-37.078 0-68.376-24.719-78.328-58.576-2.287-7.78-10.27-12.394-18.126-10.384-8.157 2.087-13.087 10.503-10.725 18.584 11.945 40.882 46.696 72.127 89.489 78.969 18.961-7.4 36.799-17.04 53.194-28.593z" fill="#f5c98d"/><path d="m142.09 456.307c45.089 0 81.641-36.552 81.641-81.641v-54.514c0-14.982-12.146-27.128-27.128-27.128h-54.513c-45.089 0-81.641 36.552-81.641 81.641-.001 45.09 36.551 81.642 81.641 81.642z" fill="url(#SVGID_2_)"/><path d="m420.359 456.307h-60.449c-45.089 0-81.641-36.552-81.641-81.641v-54.514c0-14.982 12.146-27.128 27.128-27.128h114.962c45.089 0 81.641 36.552 81.641 81.641 0 45.09-36.552 81.642-81.641 81.642z" fill="url(#SVGID_3_)"/><path d="m420.359 0h-60.449c-45.089 0-81.641 36.552-81.641 81.641v54.514c0 14.982 12.146 27.128 27.128 27.128h114.962c45.089 0 81.641-36.552 81.641-81.641 0-45.09-36.552-81.642-81.641-81.642z" fill="url(#SVGID_4_)"/><path d="m81.641 0h60.448c45.089 0 81.641 36.552 81.641 81.641v54.514c0 14.982-12.146 27.128-27.128 27.128h-114.961c-45.089 0-81.641-36.552-81.641-81.641 0-45.09 36.552-81.642 81.641-81.642z" fill="url(#SVGID_5_)"/><g><ellipse cx="163.115" cy="247.148" fill="#eaadcd" rx="14.936" ry="12.003"/><ellipse cx="338.886" cy="247.148" fill="#eaadcd" rx="14.936" ry="12.003"/><circle cx="188.721" cy="217.53" fill="#fff" r="29.618"/><ellipse cx="200.687" cy="217.53" fill="#3b3b44" rx="17.652" ry="17.652" transform="matrix(.707 -.707 .707 .707 -95.037 205.62)"/><circle cx="313.279" cy="217.53" fill="#fff" r="29.618"/><g fill="#3b3b44"><path d="m342.834 217.53c0 9.749-7.903 17.652-17.652 17.652s-17.652-7.903-17.652-17.652 7.903-17.652 17.652-17.652c9.749-.001 17.652 7.903 17.652 17.652z"/><ellipse cx="251" cy="239.982" rx="13.252" ry="17.352"/></g></g><g fill="#fff"><path d="m142.09 91.642h-60.448c-5.522 0-10-4.478-10-10s4.478-10 10-10h60.448c5.523 0 10 4.478 10 10s-4.478 10-10 10z"/><path d="m420.358 91.642h-60.448c-5.522 0-10-4.478-10-10s4.478-10 10-10h60.448c5.522 0 10 4.478 10 10s-4.477 10-10 10z"/><path d="m420.358 384.665h-60.448c-5.522 0-10-4.478-10-10 0-5.523 4.478-10 10-10h60.448c5.522 0 10 4.477 10 10s-4.477 10-10 10z"/><path d="m163.114 384.665h-42.05c-5.522 0-10-4.478-10-10 0-5.523 4.478-10 10-10h42.05c5.522 0 10 4.477 10 10s-4.477 10-10 10z"/></g><g fill="#d6f7c8"><path d="m472.428 75.072c-4.234 0-8.167-2.712-9.523-6.963-2.445-7.661-6.951-14.55-13.03-19.921-4.14-3.656-4.531-9.976-.874-14.114 3.654-4.14 9.976-4.533 14.114-.874 8.785 7.76 15.301 17.729 18.843 28.829 1.68 5.261-1.225 10.888-6.486 12.566-1.012.323-2.037.477-3.044.477z"/><path d="m417.752 37h-13.454c-5.523 0-10-4.478-10-10s4.477-10 10-10h13.454c5.522 0 10 4.478 10 10 0 5.523-4.478 10-10 10z"/></g></g></svg>