<svg id="Capa_1" enable-background="new 0 0 502 502" height="512" viewBox="0 0 502 502" width="512" xmlns="http://www.w3.org/2000/svg" xmlns:xlink="http://www.w3.org/1999/xlink"><linearGradient id="lg1"><stop offset="0" stop-color="#f5e291"/><stop offset="1" stop-color="#fcf6c7"/></linearGradient><linearGradient id="SVGID_1_" gradientUnits="userSpaceOnUse" x1="155.978" x2="-20.56" xlink:href="#lg1" y1="391.585" y2="391.585"/><linearGradient id="SVGID_2_" gradientUnits="userSpaceOnUse" x1="269.663" x2="269.663" xlink:href="#lg1" y1="359.61" y2="-7.822"/><linearGradient id="SVGID_3_" gradientUnits="userSpaceOnUse" x1="157.807" x2="157.807" y1="272.649" y2="204.998"><stop offset="0" stop-color="#74d2e8"/><stop offset="1" stop-color="#baeaf5"/></linearGradient><linearGradient id="SVGID_4_" gradientUnits="userSpaceOnUse" x1="109.141" x2="214.229" y1="160.963" y2="160.963"><stop offset="0" stop-color="#53aae6"/><stop offset="1" stop-color="#a4d2f0"/></linearGradient><linearGradient id="SVGID_5_" gradientUnits="userSpaceOnUse" x1="157.807" x2="157.807" y1="143.834" y2="16.784"><stop offset="0" stop-color="#f4c22c"/><stop offset="1" stop-color="#f9e198"/></linearGradient><linearGradient id="SVGID_6_" gradientUnits="userSpaceOnUse" x1="380.548" x2="456.937" y1="258.565" y2="258.565"><stop offset="0" stop-color="#dd5c6e"/><stop offset="1" stop-color="#ec8290"/></linearGradient><linearGradient id="SVGID_7_" gradientUnits="userSpaceOnUse" x1="371.301" x2="457.954" y1="235.135" y2="235.135"><stop offset="0" stop-color="#ec6f80"/><stop offset="1" stop-color="#eca0aa"/></linearGradient><linearGradient id="SVGID_8_" gradientUnits="userSpaceOnUse" x1="269.615" x2="346.004" y1="258.565" y2="258.565"><stop offset="0" stop-color="#947ec7"/><stop offset="1" stop-color="#b3a1d9"/></linearGradient><linearGradient id="SVGID_9_" gradientUnits="userSpaceOnUse" x1="260.367" x2="347.02" y1="235.135" y2="235.135"><stop offset="0" stop-color="#b39bdb"/><stop offset="1" stop-color="#d0c3e8"/></linearGradient><g><path d="m37.326 291.858c0 25.407-14.354 77.892-33.349 125.346-17.383 43.425 25.257 86.85 69.131 70.633 60.461-22.349 114.04-67.179 123.036-146.215z" fill="url(#SVGID_1_)"/><path d="m37.326 291.858c0 14.521-4.694 37.891-12.258 64.107 21.627 36.015 60.886 60.288 105.751 60.793-10.012 10.631-21.871 19.819-35.313 27.635-7.371 4.286-9.688 13.847-5.091 21.029 4.349 6.795 13.277 8.896 20.246 4.832 43.825-25.553 78.413-66.534 85.481-128.631z" fill="#f5c98d"/><path d="m407.082 386.776h-274.839c-52.422 0-94.918-42.496-94.918-94.918v-131.116c0-52.422 42.496-94.918 94.918-94.918h274.839c52.422 0 94.918 42.496 94.918 94.918v131.116c0 52.422-42.496 94.918-94.918 94.918z" fill="url(#SVGID_2_)"/><g fill="#fff"><path d="m407.082 366.776c-5.523 0-10-4.478-10-10s4.477-10 10-10c11.41 0 22.365-3.494 31.681-10.104 4.505-3.196 10.747-2.135 13.942 2.369 3.196 4.504 2.135 10.746-2.369 13.941-12.717 9.025-27.674 13.794-43.254 13.794z"/><path d="m468.677 322.329c-1.048 0-2.113-.166-3.162-.516-5.24-1.745-8.073-7.408-6.327-12.647.781-2.347 1.409-4.762 1.865-7.18 1.024-5.427 6.26-8.99 11.682-7.971 5.427 1.024 8.996 6.254 7.972 11.682-.623 3.298-1.479 6.592-2.544 9.789-1.396 4.192-5.299 6.843-9.486 6.843z"/></g><ellipse cx="157.807" cy="243.184" fill="url(#SVGID_3_)" rx="57.023" ry="38.811"/><path d="m194.373 221.246c0 13.745-16.371 24.887-36.565 24.887s-36.565-11.142-36.565-24.887v-145.454h73.131v145.454z" fill="url(#SVGID_4_)"/><path d="m121.242 75.792v122.05c0 8.284 6.716 15 15 15 8.284 0 15-6.716 15-15v-23.41c15.035.809 29.631-1.143 43.13-5.491v-93.149z" fill="#0099cf"/><ellipse cx="157.807" cy="77.659" fill="url(#SVGID_5_)" rx="77.874" ry="66.971"/><path d="m448.437 258.564c0 12.94-15.412 23.43-34.424 23.43s-34.424-10.49-34.424-23.43v-23.43h68.849v23.43z" fill="url(#SVGID_6_)"/><ellipse cx="414.013" cy="235.135" fill="url(#SVGID_7_)" rx="34.424" ry="23.43"/><path d="m337.504 258.564c0 12.94-15.412 23.43-34.424 23.43s-34.424-10.49-34.424-23.43v-23.43h68.849v23.43z" fill="url(#SVGID_8_)"/><ellipse cx="303.08" cy="235.135" fill="url(#SVGID_9_)" rx="34.424" ry="23.43"/><g><ellipse cx="270.661" cy="156.592" fill="#eaadcd" rx="14.936" ry="12.003"/><ellipse cx="446.432" cy="156.592" fill="#eaadcd" rx="14.936" ry="12.003"/><circle cx="296.268" cy="126.974" fill="#fff" r="29.618"/><ellipse cx="308.233" cy="126.974" fill="#3b3b44" rx="17.652" ry="17.652" transform="matrix(.23 -.973 .973 .23 113.839 397.789)"/><circle cx="420.825" cy="126.974" fill="#fff" r="29.618"/><g fill="#3b3b44"><ellipse cx="432.728" cy="126.974" rx="17.652" ry="17.652" transform="matrix(.707 -.707 .707 .707 36.959 343.175)"/><ellipse cx="358.546" cy="149.426" rx="13.252" ry="17.352"/></g></g></g></svg>