<svg id="Capa_1" enable-background="new 0 0 502 502" height="512" viewBox="0 0 502 502" width="512" xmlns="http://www.w3.org/2000/svg" xmlns:xlink="http://www.w3.org/1999/xlink"><linearGradient id="SVGID_1_" gradientUnits="userSpaceOnUse" x1="251" x2="251" y1="542.491" y2="121.465"><stop offset="0" stop-color="#6ac65e"/><stop offset="1" stop-color="#afd986"/></linearGradient><linearGradient id="SVGID_2_" gradientUnits="userSpaceOnUse" x1="251" x2="251" y1="136.495" y2="274.612"><stop offset="0" stop-color="#f9edaf"/><stop offset="1" stop-color="#fffcdd"/></linearGradient><linearGradient id="SVGID_3_" gradientTransform="matrix(-1 0 0 1 1766 0)" gradientUnits="userSpaceOnUse" x1="1358.703" x2="1358.703" y1="181.212" y2="6.286"><stop offset="0" stop-color="#ec6f80"/><stop offset="1" stop-color="#eca0aa"/></linearGradient><linearGradient id="SVGID_4_" gradientUnits="userSpaceOnUse" x1="89.086" x2="89.086" y1="490.169" y2="320.83"><stop offset="0" stop-color="#f4d952"/><stop offset="1" stop-color="#f9edaf"/></linearGradient><linearGradient id="SVGID_5_" gradientUnits="userSpaceOnUse" x1="89.086" x2="89.086" y1="490.169" y2="320.83"><stop offset="0" stop-color="#f4c22c"/><stop offset="1" stop-color="#f9e198"/></linearGradient><g><path d="m375.768 458.808h-249.536c-45.861 0-83.039-37.178-83.039-83.039v-249.537c0-45.861 37.178-83.039 83.039-83.039h249.536c45.861 0 83.039 37.178 83.039 83.039v249.536c0 45.862-37.178 83.04-83.039 83.04z" fill="url(#SVGID_1_)"/><path d="m178.704 332.776-29.236-10.616-4.234-5.428c-5.777-7.405-16.368-8.93-23.999-3.455-8.077 5.795-9.711 17.145-3.597 24.983l7.362 9.437c2.002 2.566 4.686 4.516 7.745 5.627l34.012 12.351c10.597 3.848 14.751 16.633 8.44 25.975l-20.257 29.985c-1.822 2.697-2.847 5.852-2.958 9.104l-.959 28.069h35.02l.745-21.792 17.411-25.772c19.084-28.25 6.497-66.85-25.495-78.468z" fill="#44c276"/><g fill="#997bce"><path d="m27.454 169.057c-5.776-2.641-8.317-9.465-5.676-15.24l52.774-115.407c2.641-5.778 9.464-8.316 15.241-5.676 5.776 2.641 8.317 9.465 5.676 15.24l-52.774 115.407c-2.65 5.795-9.481 8.31-15.241 5.676z"/><path d="m87.429 169.057c-5.776-2.641-8.317-9.465-5.676-15.24l52.774-115.407c2.641-5.778 9.465-8.316 15.241-5.676 5.776 2.641 8.317 9.465 5.676 15.24l-52.774 115.407c-2.649 5.795-9.481 8.31-15.241 5.676z"/></g><path d="m287.868 162.741h-73.736c-11.874 0-21.5 9.626-21.5 21.5s9.626 21.5 21.5 21.5h15.219v112.018c0 11.874 9.626 21.5 21.5 21.5s21.5-9.626 21.5-21.5v-112.018h15.517c11.874 0 21.5-9.626 21.5-21.5s-9.626-21.5-21.5-21.5z" fill="url(#SVGID_2_)"/><path d="m502 71.629c0-29.42-23.85-53.27-53.27-53.27-14.572 0-27.772 5.856-37.389 15.339-2.234 2.203-5.853 2.203-8.088 0-9.616-9.483-22.816-15.339-37.389-15.339-29.42 0-53.27 23.85-53.27 53.27 0 24.654 23.099 62.878 72.585 95.457 13.409 8.827 30.828 8.827 44.237 0 49.485-32.579 72.584-70.804 72.584-95.457z" fill="url(#SVGID_3_)"/><path d="m84.3 472.958-34.777 10c-10.835 3.116-21.711-4.786-22.096-16.053l-1.236-36.165c-.111-3.252-1.136-6.408-2.958-9.104l-20.257-29.986c-6.311-9.342-2.157-22.127 8.44-25.975l34.013-12.351c3.059-1.111 5.743-3.061 7.744-5.627l22.257-28.532c6.934-8.889 20.378-8.889 27.312 0l22.258 28.532c2.002 2.566 4.686 4.516 7.744 5.627l34.013 12.351c10.597 3.848 14.751 16.634 8.44 25.975l-20.257 29.985c-1.822 2.697-2.847 5.852-2.958 9.104l-1.236 36.165c-.385 11.267-11.261 19.169-22.096 16.053l-34.777-10c-3.128-.899-6.445-.899-9.573.001z" fill="url(#SVGID_4_)"/><path d="m84.3 472.958-34.777 10c-10.835 3.116-21.711-4.786-22.096-16.053l-1.236-36.165c-.111-3.252-1.136-6.408-2.958-9.104l-20.257-29.986c-6.311-9.342-2.157-22.127 8.44-25.975l34.013-12.351c3.059-1.111 5.743-3.061 7.744-5.627l22.257-28.532c6.934-8.889 20.378-8.889 27.312 0l22.258 28.532c2.002 2.566 4.686 4.516 7.744 5.627l34.013 12.351c10.597 3.848 14.751 16.634 8.44 25.975l-20.257 29.985c-1.822 2.697-2.847 5.852-2.958 9.104l-1.236 36.165c-.385 11.267-11.261 19.169-22.096 16.053l-34.777-10c-3.128-.899-6.445-.899-9.573.001z" fill="url(#SVGID_5_)"/><g fill="#d6f7c8"><path d="m428.808 297.112c-5.523 0-10-4.477-10-10v-33.413c0-5.523 4.477-10 10-10s10 4.477 10 10v33.413c0 5.523-4.477 10-10 10z"/><path d="m428.808 222.61c-5.523 0-10-4.478-10-10v-11.038c0-5.523 4.477-10 10-10s10 4.477 10 10v11.038c0 5.523-4.477 10-10 10z"/></g><path d="m435.23 320.966c-25.216 0-45.73 20.515-45.73 45.732v22.73h-22.73c-25.216 0-45.731 20.515-45.731 45.731s20.515 45.73 45.731 45.73 45.73-20.515 45.73-45.73v-22.731h22.731c25.216 0 45.73-20.515 45.73-45.73 0-25.217-20.515-45.732-45.731-45.732zm-45.731 114.192c0 12.533-10.197 22.73-22.73 22.73-12.534 0-22.731-10.197-22.731-22.73s10.197-22.731 22.731-22.731h22.73zm45.731-45.73h-22.731v-22.73c0-12.534 10.197-22.732 22.73-22.732 12.534 0 22.73 10.197 22.73 22.732.002 12.533-10.195 22.73-22.729 22.73z" fill="#0099cf"/></g></svg>