<svg id="Capa_1" enable-background="new 0 0 499.412 499.412" height="512" viewBox="0 0 499.412 499.412" width="512" xmlns="http://www.w3.org/2000/svg" xmlns:xlink="http://www.w3.org/1999/xlink"><linearGradient id="lg1"><stop offset="0" stop-color="#4e5660"/><stop offset="1" stop-color="#64768d"/></linearGradient><linearGradient id="SVGID_1_" gradientUnits="userSpaceOnUse" x1="261.027" x2="261.027" xlink:href="#lg1" y1="94.872" y2="21.197"/><linearGradient id="SVGID_2_" gradientUnits="userSpaceOnUse" x1="249.706" x2="249.706" y1="192.168" y2="124.205"><stop offset="0" stop-color="#53aae6"/><stop offset="1" stop-color="#a4d2f0"/></linearGradient><linearGradient id="lg2"><stop offset="0" stop-color="#74d2e8"/><stop offset="1" stop-color="#baeaf5"/></linearGradient><linearGradient id="SVGID_3_" gradientUnits="userSpaceOnUse" x1="249.706" x2="249.706" xlink:href="#lg2" y1="335.032" y2="156.457"/><linearGradient id="SVGID_4_" gradientUnits="userSpaceOnUse" x1="188.357" x2="298.222" xlink:href="#lg1" y1="376.077" y2="376.077"/><linearGradient id="SVGID_5_" gradientUnits="userSpaceOnUse" x1="249.706" x2="249.706" xlink:href="#lg2" y1="507.023" y2="403.423"/><g><path d="m350.667 236.911c-6.352 0-11.5-5.148-11.5-11.5v-66.105c0-11.527-4.489-22.364-12.641-30.516l-73.632-73.632c-4.491-4.491-4.491-11.772 0-16.264 4.492-4.49 11.772-4.49 16.264 0l73.632 73.632c12.495 12.495 19.377 29.108 19.377 46.779v66.105c0 6.352-5.149 11.501-11.5 11.501z" fill="#aeb4ba"/><path d="m234.997 73.055c19.152 19.152 37.887 31.47 60.707 8.649s10.503-41.555-8.649-60.707-37.887-31.47-60.707-8.649-10.503 41.555 8.649 60.707z" fill="url(#SVGID_1_)"/><path d="m425.952 206.277-.019-36.386c-.427-20-16.796-36.751-37.617-36.751h-277.221c-20.821 0-37.19 16.752-37.617 36.751l-.019 36.386z" fill="url(#SVGID_2_)"/><path d="m375.226 326.93h-251.04c-18.485 0-34.232-13.427-37.154-31.68l-13.091-81.784c-3.66-22.862 14.001-43.574 37.154-43.574h277.221c23.153 0 40.814 20.712 37.154 43.574l-13.09 81.784c-2.922 18.252-18.669 31.68-37.154 31.68z" fill="url(#SVGID_3_)"/><path d="m297.528 309.434c0-18.376-21.411-33.273-47.822-33.273-26.412 0-47.822 14.897-47.822 33.273v166.561h95.645v-166.561z" fill="url(#SVGID_4_)"/><path d="m228.884 404.536v-24.564c0-7.456-6.044-13.5-13.5-13.5-7.456 0-13.5 6.044-13.5 13.5v96.022h95.645v-67.952c-2.939-.098 1.785-.028-65.181-.05-1.91 0-3.464-1.547-3.464-3.456z" fill="#3c4757"/><path d="m316.751 499.412h-134.091c-15.894 0-27.398-15.17-23.111-30.474 5.623-20.071 23.918-33.946 44.762-33.946h90.787c20.844 0 39.14 13.875 44.762 33.946 4.289 15.304-7.215 30.474-23.109 30.474z" fill="url(#SVGID_5_)"/><path d="m173.432 109.648c-2.943 0-5.886-1.123-8.132-3.368-4.491-4.491-4.491-11.772 0-16.264l19.885-19.885c4.492-4.491 11.773-4.489 16.264 0 4.491 4.491 4.491 11.772 0 16.264l-19.885 19.885c-2.245 2.245-5.189 3.368-8.132 3.368z" fill="#fcb500"/><path d="m180.285 43.737h-33.139c-6.351 0-11.5-5.148-11.5-11.5s5.149-11.5 11.5-11.5h33.139c6.351 0 11.5 5.148 11.5 11.5s-5.149 11.5-11.5 11.5z" fill="#fcb500"/><g><ellipse cx="161.82" cy="249.027" fill="#eaadcd" rx="14.936" ry="12.003"/><ellipse cx="337.591" cy="249.027" fill="#eaadcd" rx="14.936" ry="12.003"/><circle cx="187.427" cy="219.409" fill="#fff" r="29.618"/><ellipse cx="175.462" cy="219.409" fill="#3b3b44" rx="17.652" ry="17.652" transform="matrix(.926 -.379 .379 .926 -70.007 82.762)"/><circle cx="311.985" cy="219.409" fill="#fff" r="29.618"/><g fill="#3b3b44"><ellipse cx="300.019" cy="219.409" rx="17.652" ry="17.652" transform="matrix(.447 -.895 .895 .447 -30.274 389.875)"/><path d="m257.296 226.603h-15.181c-3.007 0-5.658 1.976-6.506 4.862-2.672 9.09-5.742 27.748 14.097 27.748 19.838 0 16.769-18.659 14.097-27.748-.849-2.885-3.499-4.862-6.507-4.862z"/></g></g><g fill="#e3fcff"><path d="m386.141 279.441c-.526 0-1.059-.042-1.594-.128-5.454-.873-9.167-6.002-8.293-11.455l1.347-8.408c.873-5.454 6.016-9.162 11.455-8.293 5.454.873 9.167 6.002 8.293 11.455l-1.347 8.408c-.786 4.918-5.035 8.421-9.861 8.421z"/><path d="m394.031 230.152c-.526 0-1.058-.042-1.594-.128-5.453-.873-9.166-6.002-8.293-11.455l1.449-9.052c-4.2-1.186-7.277-5.046-7.277-9.625 0-5.522 4.478-10 10-10 5.179 0 10.07 2.255 13.422 6.186 3.351 3.93 4.803 9.115 3.983 14.229l-1.829 11.425c-.787 4.917-5.036 8.42-9.861 8.42z"/></g></g></svg>