<svg id="Capa_1" enable-background="new 0 0 502 502" height="512" viewBox="0 0 502 502" width="512" xmlns="http://www.w3.org/2000/svg" xmlns:xlink="http://www.w3.org/1999/xlink"><linearGradient id="lg1"><stop offset="0" stop-color="#947ec7"/><stop offset="1" stop-color="#b3a1d9"/></linearGradient><linearGradient id="SVGID_1_" gradientUnits="userSpaceOnUse" x1="35.854" x2="35.854" xlink:href="#lg1" y1="289.768" y2="218.816"/><linearGradient id="lg2"><stop offset="0" stop-color="#4e5660"/><stop offset="1" stop-color="#64768d"/></linearGradient><linearGradient id="SVGID_2_" gradientUnits="userSpaceOnUse" x1="139.495" x2="139.495" xlink:href="#lg2" y1="183.307" y2="60.221"/><linearGradient id="lg3"><stop offset="0" stop-color="#c5cccc"/><stop offset="1" stop-color="#e6e6e6"/></linearGradient><linearGradient id="SVGID_3_" gradientUnits="userSpaceOnUse" x1="139.495" x2="139.495" xlink:href="#lg3" y1="87.211" y2="144.093"/><linearGradient id="SVGID_4_" gradientUnits="userSpaceOnUse" x1="286.3" x2="286.3" xlink:href="#lg2" y1="183.307" y2="60.221"/><linearGradient id="SVGID_5_" gradientUnits="userSpaceOnUse" x1="286.3" x2="286.3" xlink:href="#lg3" y1="87.211" y2="144.093"/><linearGradient id="SVGID_6_" gradientUnits="userSpaceOnUse" x1="212.898" x2="212.898" y1="456.034" y2="208.546"><stop offset="0" stop-color="#b39bdb"/><stop offset="1" stop-color="#d0c3e8"/></linearGradient><linearGradient id="SVGID_7_" gradientUnits="userSpaceOnUse" x1="212.898" x2="212.898" xlink:href="#lg1" y1="388.884" y2="185.595"/><linearGradient id="SVGID_8_" gradientUnits="userSpaceOnUse" x1="356.375" x2="526.796" xlink:href="#lg1" y1="308.387" y2="308.387"/><linearGradient id="SVGID_9_" gradientUnits="userSpaceOnUse" x1="212.898" x2="212.898" y1="458.606" y2="308.414"><stop offset="0" stop-color="#f4c22c"/><stop offset="1" stop-color="#f9e198"/></linearGradient><g><path d="m71.707 287.033h-46.416c-13.968 0-25.291-11.323-25.291-25.291v-21.125c0-13.968 11.323-25.291 25.291-25.291h46.416z" fill="url(#SVGID_1_)"/><circle cx="139.495" cy="115.224" fill="url(#SVGID_2_)" r="73.402"/><circle cx="139.495" cy="115.224" fill="url(#SVGID_3_)" r="31.637"/><circle cx="286.3" cy="115.224" fill="url(#SVGID_4_)" r="73.403"/><circle cx="286.3" cy="115.224" fill="url(#SVGID_5_)" r="31.637"/><path d="m308.967 437.517h-192.138c-37.347 0-67.622-30.275-67.622-67.622v-123.017c0-37.346 30.275-67.622 67.622-67.622h192.138c37.346 0 67.622 30.275 67.622 67.622v123.017c0 37.346-30.276 67.622-67.622 67.622z" fill="url(#SVGID_6_)"/><path d="m157.114 413.257c-.099-2.885-1.008-5.683-2.624-8.075l-17.967-26.594c-5.597-8.285-1.913-19.625 7.486-23.038l7.816-2.838c8.089-2.938 12.053-12.064 8.678-19.981-3.124-7.328-11.431-10.936-18.918-8.217l-7.813 2.837c-27.785 10.087-38.626 43.577-22.107 68.031l15.609 23.105.651 19.029h30.017z" fill="#9f84ce"/><path d="m123.198 393.681c-16.654 0-30.155-13.501-30.155-30.155v-110.279c0-16.654 13.501-30.155 30.155-30.155h179.4c16.654 0 30.154 13.501 30.154 30.154v110.28c0 16.654-13.501 30.155-30.155 30.155z" fill="url(#SVGID_7_)"/><path d="m160.503 332.731c-3.124-7.328-11.431-10.936-18.918-8.216l-7.813 2.837c-25.738 9.344-36.92 38.767-25.298 62.489 4.355 2.442 9.375 3.841 14.723 3.841h23.523l-10.197-15.093c-5.597-8.285-1.913-19.625 7.486-23.038l7.816-2.838c8.089-2.939 12.053-12.066 8.678-19.982z" fill="#876ec2"/><path d="m376.589 364.202 82.618 30.07c20.798 7.57 42.794-7.832 42.794-29.965v-111.842c0-22.133-21.996-37.534-42.794-29.965l-82.618 30.07z" fill="url(#SVGID_8_)"/><g fill="#e1cef5"><path d="m474.16 342.431c-5.522 0-10-4.478-10-10v-7.309c0-5.523 4.478-10 10-10s10 4.477 10 10v7.309c0 5.522-4.477 10-10 10z"/><path d="m474.16 294.266c-5.522 0-10-4.478-10-10v-24.232c0-5.523 4.478-10 10-10s10 4.478 10 10v24.232c0 5.522-4.477 10-10 10z"/></g><path d="m208.653 450.702-30.845 8.869c-9.61 2.763-19.256-4.245-19.597-14.238l-1.096-32.076c-.099-2.885-1.008-5.683-2.624-8.075l-17.967-26.594c-5.597-8.285-1.913-19.625 7.486-23.038l30.167-10.955c2.713-.985 5.093-2.715 6.869-4.99l19.741-25.305c6.15-7.884 18.074-7.884 24.224 0l19.741 25.305c1.775 2.276 4.156 4.005 6.869 4.99l30.167 10.955c9.399 3.413 13.083 14.753 7.486 23.038l-17.967 26.594c-1.616 2.392-2.525 5.19-2.624 8.075l-1.096 32.076c-.342 9.993-9.988 17.002-19.597 14.238l-30.845-8.869c-2.776-.798-5.718-.798-8.492 0z" fill="url(#SVGID_9_)"/><g><ellipse cx="125.012" cy="269.743" fill="#eaadcd" rx="14.936" ry="12.003"/><ellipse cx="300.783" cy="269.743" fill="#eaadcd" rx="14.936" ry="12.003"/><circle cx="150.619" cy="240.125" fill="#fff" r="29.618"/><ellipse cx="162.585" cy="240.125" fill="#3b3b44" rx="17.652" ry="17.652" transform="matrix(.23 -.973 .973 .23 -108.471 343.191)"/><circle cx="275.177" cy="240.125" fill="#fff" r="29.618"/><g fill="#3b3b44"><ellipse cx="287.08" cy="240.125" rx="17.652" ry="17.652" transform="matrix(.707 -.707 .707 .707 -85.71 273.327)"/><ellipse cx="212.898" cy="262.577" rx="13.252" ry="17.352"/></g></g></g></svg>