<svg id="Capa_1" enable-background="new 0 0 502 502" height="512" viewBox="0 0 502 502" width="512" xmlns="http://www.w3.org/2000/svg" xmlns:xlink="http://www.w3.org/1999/xlink"><linearGradient id="SVGID_1_" gradientUnits="userSpaceOnUse" x1="202.743" x2="202.743" y1="486.084" y2="-153.449"><stop offset="0" stop-color="#f5e5a2"/><stop offset="1" stop-color="#fcf7cf"/></linearGradient><linearGradient id="SVGID_2_" gradientUnits="userSpaceOnUse" x1="365.3" x2="30.987" y1="390.094" y2="390.094"><stop offset="0" stop-color="#6ac65e"/><stop offset="1" stop-color="#afd986"/></linearGradient><linearGradient id="SVGID_3_" gradientUnits="userSpaceOnUse" x1="342.451" x2=".326" y1="312.734" y2="312.734"><stop offset="0" stop-color="#74d2e8"/><stop offset="1" stop-color="#baeaf5"/></linearGradient><linearGradient id="SVGID_4_" gradientUnits="userSpaceOnUse" x1="378.079" x2="378.079" y1="406.756" y2="168.201"><stop offset="0" stop-color="#4e5660"/><stop offset="1" stop-color="#64768d"/></linearGradient><linearGradient id="SVGID_5_" gradientUnits="userSpaceOnUse" x1="276.606" x2="276.606" y1="407.219" y2="329.464"><stop offset="0" stop-color="#c5cccc"/><stop offset="1" stop-color="#e6e6e6"/></linearGradient><g><path d="m0 423.098c0 43.576 35.326 78.902 78.902 78.902h247.682c43.576 0 78.902-35.326 78.902-78.902v-344.196c0-43.576-35.325-78.902-78.902-78.902h-247.682c-43.576 0-78.902 35.326-78.902 78.902z" fill="url(#SVGID_1_)"/><path d="m301.281 399.856-34.7 11.342c-15.607 5.101-30.603-4.463-34.635-18.323-1.838-6.317-7.429-10.802-14.005-11.006-10.052-.312-17.71 9.187-14.989 18.868 1.796 6.392 4.742 12.512 8.801 18.11 14.141 19.5 39.586 28.896 64.149 20.867l34.699-11.342c16.304-5.329 31.333-14.557 43.462-26.687l51.424-51.424v-42.426l-72.636 72.636c-8.854 8.854-19.669 15.495-31.57 19.385z" fill="#f5c98d"/><path d="m50.588 415.718v-59.425l151.81-27.517 152.501 27.517v59.425c0 19.713-15.981 35.694-35.694 35.694h-232.923c-19.714 0-35.694-15.98-35.694-35.694z" fill="url(#SVGID_2_)"/><path d="m50.588 356.293v-51.425c0-19.713 15.981-35.694 35.694-35.694h232.923c19.713 0 35.694 15.981 35.694 35.694v51.425z" fill="url(#SVGID_3_)"/><path d="m354.899 400.85v-42.426l-22.048 22.048c-8.853 8.853-19.669 15.494-31.57 19.384l-34.7 11.342c-15.608 5.101-30.603-4.462-34.635-18.323-1.838-6.317-7.429-10.802-14.005-11.006-10.052-.313-17.71 9.187-14.99 18.868 1.796 6.392 4.742 12.512 8.801 18.11 14.141 19.5 39.586 28.896 64.149 20.867l34.699-11.342c16.304-5.329 31.333-14.557 43.462-26.687z" fill="#04b048"/><path d="m180.652 124.14h-114.018c-6.352 0-11.5-5.148-11.5-11.5s5.148-11.5 11.5-11.5h114.019c6.352 0 11.5 5.148 11.5 11.5-.001 6.351-5.149 11.5-11.501 11.5z" fill="#f5c98d"/><path d="m118.173 73.986h-51.539c-6.352 0-11.5-5.148-11.5-11.5s5.148-11.5 11.5-11.5h51.539c6.352 0 11.5 5.148 11.5 11.5s-5.149 11.5-11.5 11.5z" fill="#f5c98d"/><path d="m489.777 164.527-10.838-10.838c-16.297-16.297-42.721-16.297-59.018 0l-25.25 25.25-2.041 13.163-14.223 3.101-115.413 115.414c-3.254 3.254-6.205 6.774-8.835 10.515 2.27 23.08 5.308 40.182 16.651 51.525s28.446 14.381 51.525 16.651c3.74-2.629 7.261-5.581 10.515-8.835l115.414-115.414 3.101-14.223 13.163-2.041v.001l25.25-25.25c16.296-16.298 16.296-42.721-.001-59.019z" fill="url(#SVGID_4_)"/><path d="m322.335 389.307c-5.147-17.368-14.479-31.012-25.821-42.354-11.343-11.343-24.987-20.674-42.355-25.821-4.525 6.437-8.089 13.527-10.549 21.054l-11.342 34.7c-6.92 21.171 13.142 41.232 34.312 34.313l34.7-11.342c7.528-2.461 14.618-6.025 21.055-10.55z" fill="url(#SVGID_5_)"/><path d="m409.968 172.604h23v98.791h-23z" fill="#efc534" transform="matrix(.707 -.707 .707 .707 -33.532 363.045)"/><g><ellipse cx="114.597" cy="219.523" fill="#eaadcd" rx="14.936" ry="12.003"/><ellipse cx="290.368" cy="219.523" fill="#eaadcd" rx="14.936" ry="12.003"/><circle cx="140.204" cy="189.905" fill="#fff" r="29.618"/><circle cx="264.761" cy="189.905" fill="#fff" r="29.618"/><g fill="#3b3b44"><g><circle cx="140.204" cy="189.905" r="17.652"/><circle cx="264.761" cy="189.905" r="17.652"/></g><path d="m202.482 220.466c-5.248 0-10.494-1.984-14.775-5.953-2.025-1.878-2.145-5.041-.268-7.066 1.879-2.025 5.041-2.143 7.066-.268 4.696 4.356 11.258 4.355 15.954 0 2.026-1.874 5.188-1.757 7.066.268 1.877 2.025 1.757 5.188-.268 7.066-4.279 3.967-9.527 5.953-14.775 5.953z"/></g></g></g></svg>