<svg id="Capa_1" enable-background="new 0 0 502 502" height="512" viewBox="0 0 502 502" width="512" xmlns="http://www.w3.org/2000/svg" xmlns:xlink="http://www.w3.org/1999/xlink"><linearGradient id="SVGID_1_" gradientUnits="userSpaceOnUse" x1="251" x2="251" y1="238.753" y2="52.501"><stop offset="0" stop-color="#6ac65e"/><stop offset="1" stop-color="#afd986"/></linearGradient><linearGradient id="SVGID_2_" gradientUnits="userSpaceOnUse" x1="403.092" x2="403.092" y1="199.923" y2="-30.112"><stop offset="0" stop-color="#53aae6"/><stop offset="1" stop-color="#a4d2f0"/></linearGradient><linearGradient id="SVGID_3_" gradientUnits="userSpaceOnUse" x1="98.908" x2="98.908" y1="354.151" y2="177.381"><stop offset="0" stop-color="#f4c22c"/><stop offset="1" stop-color="#f9e198"/></linearGradient><linearGradient id="SVGID_4_" gradientUnits="userSpaceOnUse" x1="251" x2="251" y1="356.542" y2="193.963"><stop offset="0" stop-color="#7ed99e"/><stop offset=".2532" stop-color="#81daa3"/><stop offset=".5725" stop-color="#88ddb3"/><stop offset=".9261" stop-color="#95e2cd"/><stop offset="1" stop-color="#98e3d3"/></linearGradient><linearGradient id="SVGID_5_" gradientUnits="userSpaceOnUse" x1="403.092" x2="403.092" y1="354.151" y2="152.747"><stop offset="0" stop-color="#74d2e8"/><stop offset="1" stop-color="#baeaf5"/></linearGradient><linearGradient id="SVGID_6_" gradientUnits="userSpaceOnUse" x1="251" x2="251" y1="493.036" y2="347.506"><stop offset="0" stop-color="#ec6f80"/><stop offset="1" stop-color="#eca0aa"/></linearGradient><g><path d="m309.063 250.225h-116.126v-138.363c0-19.319 15.661-34.98 34.98-34.98h46.166c19.319 0 34.98 15.661 34.98 34.98z" fill="url(#SVGID_1_)"/><path d="m227.917 200.245c0 8.284 6.716 15 15 15h31.165c19.319 0 34.981 15.661 34.981 34.98v-54.719c-10.107-6.484-22.107-10.262-34.98-10.262h-31.166c-8.284 0-15 6.716-15 15.001z" fill="#04b048"/><path d="m461.156 214.092h-116.127v-179.111c0-19.319 15.661-34.98 34.98-34.98h46.166c19.319 0 34.981 15.661 34.981 34.98z" fill="url(#SVGID_2_)"/><path d="m156.971 366.556h-116.126v-152.464c0-19.319 15.661-34.981 34.981-34.981h46.166c19.319 0 34.98 15.661 34.98 34.981v152.464z" fill="url(#SVGID_3_)"/><path d="m309.063 366.556h-116.126v-116.331c0-19.319 15.661-34.981 34.98-34.981h46.166c19.319 0 34.98 15.661 34.98 34.981z" fill="url(#SVGID_4_)"/><path d="m431.155 78.921v70.383c-1.644-.125-3.305-.193-4.98-.193h-46.165c-12.874 0-24.874 3.778-34.98 10.262v54.718h116.127v-135.17c0-8.284-6.716-15-15-15-8.286 0-15.002 6.716-15.002 15z" fill="#0099cf"/><path d="m461.156 366.556h-116.127v-152.464c0-19.319 15.661-34.981 34.98-34.981h46.166c19.319 0 34.981 15.661 34.981 34.981z" fill="url(#SVGID_5_)"/><path d="m409.312 502h-316.624c-40.952 0-76.667-27.83-86.675-67.541l-4.803-19.055c-6.249-24.794 12.496-48.848 38.064-48.848h423.451c25.569 0 44.313 24.055 38.064 48.848l-4.802 19.055c-10.008 39.711-45.722 67.541-86.675 67.541z" fill="url(#SVGID_6_)"/><g><ellipse cx="163.114" cy="455.578" fill="#efc5db" rx="14.936" ry="12.003"/><ellipse cx="338.886" cy="455.578" fill="#efc5db" rx="14.936" ry="12.003"/><circle cx="188.721" cy="425.961" fill="#fff" r="29.618"/><path d="m218.339 425.961c0 9.749-7.903 17.652-17.652 17.652s-17.652-7.903-17.652-17.652 7.903-17.652 17.652-17.652c9.749-.001 17.652 7.903 17.652 17.652z" fill="#3b3b44"/><circle cx="313.279" cy="425.961" fill="#fff" r="29.618"/><g fill="#3b3b44"><ellipse cx="325.182" cy="425.961" rx="17.652" ry="17.652" transform="matrix(.707 -.707 .707 .707 -205.956 354.699)"/><ellipse cx="251" cy="448.413" rx="13.252" ry="17.352"/></g></g></g></svg>