<svg id="Capa_1" enable-background="new 0 0 502 502" height="512" viewBox="0 0 502 502" width="512" xmlns="http://www.w3.org/2000/svg" xmlns:xlink="http://www.w3.org/1999/xlink"><linearGradient id="lg1"><stop offset="0" stop-color="#f4d952"/><stop offset="1" stop-color="#f9edaf"/></linearGradient><linearGradient id="SVGID_1_" gradientUnits="userSpaceOnUse" x1="112.241" x2="515.473" xlink:href="#lg1" y1="379.634" y2="379.634"/><linearGradient id="lg2"><stop offset="0" stop-color="#4e5660"/><stop offset="1" stop-color="#64768d"/></linearGradient><linearGradient id="SVGID_2_" gradientUnits="userSpaceOnUse" x1="251" x2="251" xlink:href="#lg2" y1="237.821" y2="413.163"/><linearGradient id="SVGID_4_" gradientUnits="userSpaceOnUse" x1="-78.83" x2="489.811" xlink:href="#lg2" y1="166.757" y2="166.757"/><linearGradient id="SVGID_5_" gradientUnits="userSpaceOnUse" x1="23.158" x2="172.581" xlink:href="#lg1" y1="215.872" y2="215.872"/><linearGradient id="lg3"><stop offset="0" stop-color="#ea7d32"/><stop offset="1" stop-color="#f0b160"/></linearGradient><linearGradient id="SVGID_6_" gradientUnits="userSpaceOnUse" x1="56.176" x2="56.176" xlink:href="#lg3" y1="371.986" y2="252.382"/><linearGradient id="SVGID_7_" gradientUnits="userSpaceOnUse" x1="251" x2="251" xlink:href="#lg3" y1="206.671" y2="153.043"/><g><path d="m75.079 361.943c0 48.903 78.762 88.547 175.921 88.547s175.921-39.644 175.921-88.547v-53.166h-351.842z" fill="url(#SVGID_1_)"/><path d="m75.079 361.943c0 10.599 3.705 20.761 10.49 30.181 1.714-.09 2.91-.039 3.005-.049 31.427 0 53.617-30.732 43.564-60.331-3.012-8.867-4.737-16.467-5.745-22.967h-51.314z" fill="#efc534"/><path d="m75.079 308.777c0 48.903 78.762 88.547 175.921 88.547s175.921-39.644 175.921-88.547v-174.259h-351.842z" fill="url(#SVGID_2_)"/><path d="m75.079 308.777c0 48.903 78.762 88.547 175.921 88.547s175.921-39.644 175.921-88.547v-174.259h-351.842z" fill="url(#SVGID_2_)"/><path d="m350.484 256.723-41.242 15.011c-37.621 13.693-78.864 13.693-116.485 0l-117.678-42.832v79.875c0 24.529 19.818 46.726 51.83 62.762 7.448-11.195 10.042-25.62 5.228-39.795-8.519-25.08-6.773-40.073-7.486-48.478 1.084-1.082 2.184-2.145 3.294-3.197l54.551 19.855c43.113 15.691 91.6 16.525 137.005 0l41.242-15.011c7.85-2.857 11.853-11.578 8.903-19.393-2.9-7.685-11.443-11.606-19.162-8.797z" fill="#3c4757"/><path d="m192.758 271.734-160.039-58.249c-43.626-15.878-43.626-77.577 0-93.456l160.039-58.249c37.621-13.693 78.864-13.693 116.485 0l160.039 58.249c43.626 15.878 43.626 77.577 0 93.456l-160.039 58.249c-37.622 13.693-78.864 13.693-116.485 0z" fill="url(#SVGID_4_)"/><g fill="#8196ab"><path d="m365.164 125.563c-1.306 0-2.634-.224-3.933-.696l-33.572-12.22c-5.968-2.173-9.045-8.771-6.873-14.74 2.172-5.968 8.769-9.047 14.74-6.873l33.572 12.22c5.968 2.173 9.045 8.771 6.873 14.74-1.699 4.668-6.11 7.569-10.807 7.569z"/><path d="m290.427 98.669c-1.071 0-2.159-.15-3.238-.467-3.325-.975-6.728-1.824-10.114-2.525-6.219-1.288-10.217-7.374-8.929-13.593s7.375-10.217 13.593-8.929c3.991.826 8 1.827 11.917 2.975 6.095 1.786 9.588 8.175 7.802 14.27-1.47 5.015-6.056 8.269-11.031 8.269z"/></g><path d="m80.156 289.469c38.136-52.31 85.858-78.933 176.081-98.23l-10.473-48.965c-86.12 18.42-154.073 46.378-206.068 117.696z" fill="url(#SVGID_5_)"/><path d="m94.898 289.121c0-21.385-17.336-38.722-38.722-38.722s-38.722 17.336-38.722 38.722c0 16.425-2.345 33.167-8.833 52.271-3.51 10.334 4.442 20.809 15.355 20.682 8.106-.095 15.735 1.221 22.109 3.746 6.48 2.567 13.702 2.567 20.182 0 6.373-2.525 14.002-3.84 22.109-3.746 10.913.128 18.865-10.348 15.355-20.682-6.488-19.103-8.833-35.846-8.833-52.271z" fill="url(#SVGID_6_)"/><ellipse cx="251" cy="166.757" fill="url(#SVGID_7_)" rx="64.05" ry="32.238"/><g><ellipse cx="163.114" cy="348.705" fill="#eaadcd" rx="14.936" ry="12.003"/><ellipse cx="338.886" cy="348.705" fill="#eaadcd" rx="14.936" ry="12.003"/><circle cx="188.721" cy="319.087" fill="#fff" r="29.618"/><circle cx="313.279" cy="319.087" fill="#fff" r="29.618"/><g fill="#3b3b44"><g><circle cx="188.721" cy="319.087" r="17.652"/><circle cx="313.279" cy="319.087" r="17.652"/></g><path d="m251 349.647c-5.248 0-10.495-1.984-14.776-5.954-2.025-1.877-2.145-5.041-.267-7.066s5.041-2.143 7.066-.267c4.697 4.354 11.257 4.354 15.954 0 2.023-1.879 5.188-1.759 7.066.267 1.877 2.025 1.758 5.189-.267 7.066-4.281 3.969-9.528 5.954-14.776 5.954z"/></g></g></g></svg>