<svg id="Capa_1" enable-background="new 0 0 502 502" height="512" viewBox="0 0 502 502" width="512" xmlns="http://www.w3.org/2000/svg" xmlns:xlink="http://www.w3.org/1999/xlink"><linearGradient id="SVGID_1_" gradientUnits="userSpaceOnUse" x1="344.951" x2="506.644" y1="84.145" y2="84.145"><stop offset="0" stop-color="#947ec7"/><stop offset="1" stop-color="#b3a1d9"/></linearGradient><linearGradient id="SVGID_2_" gradientUnits="userSpaceOnUse" x1="251" x2="251" y1="489.046" y2="-36.102"><stop offset="0" stop-color="#74d2e8"/><stop offset="1" stop-color="#baeaf5"/></linearGradient><linearGradient id="SVGID_3_" gradientUnits="userSpaceOnUse" x1="251" x2="251" y1="165.62" y2="316.612"><stop offset="0" stop-color="#4e5660"/><stop offset="1" stop-color="#64768d"/></linearGradient><linearGradient id="SVGID_4_" gradientUnits="userSpaceOnUse" x1="87.842" x2="87.842" y1="161.614" y2="16.309"><stop offset="0" stop-color="#ec6f80"/><stop offset="1" stop-color="#eca0aa"/></linearGradient><g><path d="m369.676 152.483h88.966c23.946 0 43.359-19.412 43.359-43.359v-49.958c0-23.946-19.412-43.359-43.359-43.359h-88.966c-23.946 0-43.359 19.412-43.359 43.359v49.958c0 23.946 19.412 43.359 43.359 43.359z" fill="url(#SVGID_1_)"/><path d="m440.26 94.146h-52.202c-5.522 0-10-4.478-10-10s4.478-10 10-10h52.202c5.522 0 10 4.478 10 10s-4.478 10-10 10z" fill="#fff"/><path d="m251 486.193c-52.444 0-168.802-122.539-168.802-268.032 0-93.227 75.575-168.802 168.802-168.802s168.802 75.575 168.802 168.802c0 145.493-116.358 268.032-168.802 268.032z" fill="url(#SVGID_2_)"/><path d="m175.683 99.145v9.979c0 23.946-19.413 43.359-43.359 43.359h-36.872c-4.049 9.579-7.228 19.614-9.464 30h46.336c40.515 0 73.359-32.844 73.359-73.359v-9.978c0-8.284-6.716-15-15-15-8.284-.001-15 6.715-15 14.999z" fill="#18c9de"/><circle cx="251" cy="218.161" fill="url(#SVGID_3_)" r="59.398"/><path d="m132.324 152.483h-88.965c-23.947 0-43.359-19.413-43.359-43.359v-49.958c0-23.946 19.412-43.359 43.359-43.359h88.965c23.946 0 43.359 19.412 43.359 43.359v49.958c0 23.946-19.412 43.359-43.359 43.359z" fill="url(#SVGID_4_)"/><path d="m113.943 94.146h-52.202c-5.523 0-10-4.478-10-10s4.477-10 10-10h52.202c5.523 0 10 4.478 10 10s-4.477 10-10 10z" fill="#fff"/><g><ellipse cx="163.114" cy="340.393" fill="#efc5db" rx="14.936" ry="12.003"/><ellipse cx="338.886" cy="340.393" fill="#efc5db" rx="14.936" ry="12.003"/><circle cx="188.721" cy="310.776" fill="#fff" r="29.618"/><path d="m218.339 310.776c0 9.749-7.903 17.652-17.652 17.652s-17.652-7.903-17.652-17.652 7.903-17.652 17.652-17.652c9.749-.001 17.652 7.902 17.652 17.652z" fill="#3b3b44"/><circle cx="313.279" cy="310.776" fill="#fff" r="29.618"/><g fill="#3b3b44"><path d="m342.834 310.776c0 9.749-7.903 17.652-17.652 17.652s-17.652-7.903-17.652-17.652 7.903-17.652 17.652-17.652c9.749-.001 17.652 7.902 17.652 17.652z"/><ellipse cx="251" cy="333.228" rx="13.252" ry="17.352"/></g></g><g fill="#e3fcff"><path d="m280.844 449.975c-3.034 0-6.032-1.376-7.997-3.987-3.321-4.412-2.438-10.682 1.976-14.003 7.589-5.713 15.438-12.779 23.331-21.003 3.823-3.985 10.155-4.116 14.139-.291 3.985 3.824 4.115 10.154.291 14.139-8.632 8.995-17.29 16.778-25.733 23.134-1.802 1.355-3.914 2.011-6.007 2.011z"/><path d="m331.137 396.847c-2.025 0-4.069-.613-5.838-1.889-4.48-3.23-5.495-9.48-2.266-13.959 1.24-1.722 2.509-3.523 3.771-5.356 3.132-4.55 9.356-5.699 13.907-2.567 4.549 3.131 5.699 9.357 2.567 13.907-1.343 1.951-2.696 3.873-4.02 5.71-1.954 2.711-5.016 4.154-8.121 4.154z"/></g></g></svg>