<svg id="Capa_1" enable-background="new 0 0 502 502" height="512" viewBox="0 0 502 502" width="512" xmlns="http://www.w3.org/2000/svg" xmlns:xlink="http://www.w3.org/1999/xlink"><linearGradient id="SVGID_1_" gradientUnits="userSpaceOnUse" x1="251" x2="251" y1="379.107" y2="468.183"><stop offset="0" stop-color="#c5cccc"/><stop offset="1" stop-color="#e6e6e6"/></linearGradient><linearGradient id="lg1"><stop offset="0" stop-color="#4e5660"/><stop offset="1" stop-color="#64768d"/></linearGradient><linearGradient id="SVGID_2_" gradientUnits="userSpaceOnUse" x1="116.301" x2="385.7" xlink:href="#lg1" y1="474.343" y2="474.343"/><linearGradient id="SVGID_3_" gradientUnits="userSpaceOnUse" x1="22.664" x2="479.336" xlink:href="#lg1" y1="213.713" y2="213.713"/><linearGradient id="lg2"><stop offset="0" stop-color="#53aae6"/><stop offset="1" stop-color="#a4d2f0"/></linearGradient><linearGradient id="SVGID_4_" gradientUnits="userSpaceOnUse" x1="251" x2="251" xlink:href="#lg2" y1="100.215" y2="-7.991"/><linearGradient id="SVGID_5_" gradientUnits="userSpaceOnUse" x1="251" x2="251" xlink:href="#lg2" y1="231.321" y2="358.585"/><linearGradient id="SVGID_6_" gradientUnits="userSpaceOnUse" x1="76.104" x2="425.896" y1="169.882" y2="169.882"><stop offset="0" stop-color="#74d2e8"/><stop offset="1" stop-color="#baeaf5"/></linearGradient><linearGradient id="SVGID_7_" gradientUnits="userSpaceOnUse" x1="251" x2="251" y1="279.487" y2="222.638"><stop offset="0" stop-color="#f4c22c"/><stop offset="1" stop-color="#f9e198"/></linearGradient><g><path d="m327.485 378.14h-152.97l-13.545 68.545h180.06z" fill="url(#SVGID_1_)"/><path d="m368.661 502h-235.322c-11.955 0-20.186-12-15.881-23.152l4.175-10.817c4.965-12.863 17.332-21.346 31.12-21.346h196.494c13.788 0 26.155 8.483 31.12 21.346l4.175 10.817c4.304 11.152-3.926 23.152-15.881 23.152z" fill="url(#SVGID_2_)"/><path d="m267.542 378.14h-93.027l-5.928 29.999h98.956c8.284 0 15-6.716 15-15-.001-8.283-6.717-14.999-15.001-14.999z" fill="#aeb4ba"/><path d="m404.616 378.14h-307.233c-41.266 0-74.719-33.453-74.719-74.719v-179.416c0-41.266 33.453-74.719 74.719-74.719h307.233c41.266 0 74.719 33.453 74.719 74.719v179.416c.001 41.266-33.452 74.719-74.719 74.719z" fill="url(#SVGID_3_)"/><path d="m358.236 102.726h-49.432v-21.462c0-17.552-14.28-31.832-31.832-31.832h-51.945c-17.552 0-31.832 14.28-31.832 31.832v21.462h-49.432v-21.462c.001-44.81 36.455-81.264 81.265-81.264h51.945c44.809 0 81.264 36.454 81.264 81.264v21.462z" fill="url(#SVGID_4_)"/><path d="m83.96 292.806v-158.186c0-14.861 12.047-26.909 26.909-26.909h280.263c14.861 0 26.909 12.047 26.909 26.909v158.186c0 14.861-12.047 26.909-26.909 26.909h-280.263c-14.862 0-26.909-12.048-26.909-26.909z" fill="url(#SVGID_5_)"/><path d="m291.911 235.298v9.21c0 12.453-10.095 22.548-22.548 22.548h-36.726c-12.453 0-22.548-10.095-22.548-22.548v-9.21c-38.913-3.051-80.929-9.829-113.06-18.015-5.119-1.304-9.586-3.997-13.069-7.604v34.917c1.841.676 3.729 1.265 5.663 1.757 27.242 6.94 60.95 12.838 93.778 16.522 7.465 19.943 26.72 34.179 49.236 34.179h36.725c22.517 0 41.771-14.235 49.236-34.179 4.83-.542 9.679-1.132 14.524-1.767 8.556-1.121 14.395-9.231 12.765-17.705-1.498-7.786-8.798-13.058-16.661-12.031-12.475 1.632-25.049 2.964-37.315 3.926z" fill="#0099cf"/><path d="m397.722 102.726h-293.444c-15.56 0-28.174 12.614-28.174 28.174v59.352c0 12.727 8.591 23.889 20.925 27.031 43.911 11.186 106.294 19.755 153.971 19.755s110.06-8.569 153.971-19.755c12.333-3.142 20.925-14.304 20.925-27.031v-59.352c0-15.56-12.614-28.174-28.174-28.174z" fill="url(#SVGID_6_)"/><path d="m269.363 203.02h-36.725c-12.453 0-22.548 10.095-22.548 22.548v18.939c0 12.453 10.095 22.548 22.548 22.548h36.725c12.453 0 22.548-10.095 22.548-22.548v-18.939c0-12.453-10.095-22.548-22.548-22.548z" fill="url(#SVGID_7_)"/><g fill="#e3fcff"><path d="m395.896 175.654c-5.523 0-10-4.478-10-10v-7.359c0-5.522 4.477-10 10-10 5.522 0 10 4.478 10 10v7.359c0 5.523-4.478 10-10 10z"/><path d="m366.629 142.726h-35.96c-5.522 0-10-4.478-10-10s4.478-10 10-10h35.96c5.522 0 10 4.478 10 10s-4.478 10-10 10z"/></g></g></svg>