<svg id="Capa_1" enable-background="new 0 0 502 502" height="512" viewBox="0 0 502 502" width="512" xmlns="http://www.w3.org/2000/svg" xmlns:xlink="http://www.w3.org/1999/xlink"><linearGradient id="SVGID_1_" gradientUnits="userSpaceOnUse" x1="249.04" x2="249.04" y1="210.164" y2="-39.494"><stop offset="0" stop-color="#f5e5a2"/><stop offset="1" stop-color="#fcf7cf"/></linearGradient><linearGradient id="lg1"><stop offset="0" stop-color="#74d2e8"/><stop offset="1" stop-color="#baeaf5"/></linearGradient><linearGradient id="SVGID_2_" gradientUnits="userSpaceOnUse" x1="330.721" x2="330.721" xlink:href="#lg1" y1="606.47" y2="327.132"/><linearGradient id="SVGID_3_" gradientUnits="userSpaceOnUse" x1="119.389" x2="119.389" xlink:href="#lg1" y1="489.416" y2="234.271"/><linearGradient id="SVGID_4_" gradientUnits="userSpaceOnUse" x1="99.555" x2="99.555" xlink:href="#lg1" y1="280.299" y2="134.342"/><linearGradient id="SVGID_5_" gradientUnits="userSpaceOnUse" x1="350.555" x2="350.555" xlink:href="#lg1" y1="272.497" y2="76.285"/><g><path d="m334.43 3.62h-170.78c-30.046 0-54.404 24.357-54.404 54.404v222.679c0 30.047 24.357 54.404 54.404 54.404h170.78c30.046 0 54.404-24.357 54.404-54.404v-222.68c0-30.046-24.358-54.403-54.404-54.403z" fill="url(#SVGID_1_)"/><g fill="#f5c98d"><path d="m307.361 81.558h-116.643c-6.352 0-11.5-5.148-11.5-11.5s5.148-11.5 11.5-11.5h116.643c6.352 0 11.5 5.148 11.5 11.5s-5.148 11.5-11.5 11.5z"/><path d="m307.361 148.074h-116.643c-6.352 0-11.5-5.148-11.5-11.5s5.148-11.5 11.5-11.5h116.643c6.352 0 11.5 5.148 11.5 11.5s-5.148 11.5-11.5 11.5z"/><path d="m237.153 166.196c9.974-27.403 36.021-45.641 65.182-45.641h1.963c8.284 0 15-6.716 15-15 0-8.284-6.716-15-15-15h-1.964c-41.615 0-79.139 26.274-93.372 65.381l-52.697 144.781h228.751c2.454-6.197 3.817-12.944 3.817-20.014v-9.985h-189.722z"/></g><path d="m199.111 270.717h263.221v169.917c0 31.892-25.854 57.746-57.746 57.746h-205.475z" fill="url(#SVGID_2_)"/><path d="m39.668 270.717h159.442v227.663h-101.696c-31.892 0-57.746-25.854-57.746-57.746z" fill="url(#SVGID_3_)"/><path d="m39.668 270.717-37.522-103.092c-8.326-22.876 8.614-47.07 32.959-47.07h60.781c29.161 0 55.208 18.239 65.182 45.641l38.043 104.521z" fill="url(#SVGID_4_)"/><path d="m462.332 270.717 37.522-103.092c8.326-22.876-8.614-47.07-32.959-47.07h-164.56c-29.161 0-55.208 18.239-65.182 45.641l-38.043 104.521z" fill="url(#SVGID_5_)"/><path d="m140.519 342.827h-42.259c-6.352 0-11.5-5.148-11.5-11.5s5.148-11.5 11.5-11.5h42.259c6.352 0 11.5 5.148 11.5 11.5s-5.149 11.5-11.5 11.5z" fill="#18c9de"/><g fill="#e3fcff"><path d="m383.031 478.381h-7.684c-5.522 0-10-4.478-10-10 0-5.523 4.478-10 10-10h7.684c5.522 0 10 4.477 10 10 0 5.522-4.477 10-10 10z"/><path d="m422.914 471.443c-2.771 0-5.528-1.145-7.505-3.387-3.652-4.142-3.255-10.462.888-14.114 3.835-3.382 6.035-8.232 6.035-13.309v-8.183c0-5.522 4.478-10 10-10 5.523 0 10 4.478 10 10v8.183c0 10.814-4.668 21.133-12.809 28.31-1.9 1.677-4.259 2.5-6.609 2.5z"/></g><g><ellipse cx="242.836" cy="378.598" fill="#eaadcd" rx="14.936" ry="12.003"/><ellipse cx="418.607" cy="378.598" fill="#eaadcd" rx="14.936" ry="12.003"/><circle cx="268.443" cy="348.98" fill="#fff" r="29.618"/><circle cx="393" cy="348.98" fill="#fff" r="29.618"/><g fill="#3b3b44"><g><circle cx="268.442" cy="348.98" r="17.652"/><circle cx="393" cy="348.98" r="17.652"/></g><path d="m330.721 379.539c-5.247 0-10.494-1.984-14.775-5.952-2.024-1.878-2.145-5.041-.268-7.066 1.878-2.025 5.041-2.144 7.066-.268 4.698 4.355 11.258 4.354 15.954 0 2.026-1.875 5.189-1.757 7.066.268s1.757 5.189-.268 7.066c-4.28 3.968-9.527 5.952-14.775 5.952z"/></g></g></g></svg>