<svg id="regular" enable-background="new 0 0 24 24" height="512" viewBox="0 0 24 24" width="512" xmlns="http://www.w3.org/2000/svg"><path d="m10.25 2.5h1c1.105 0 2 .895 2 2v13.75c0 1.105-.895 2-2 2h-8.5c-1.105 0-2-.895-2-2v-13.75c0-1.105.895-2 2-2h1v-1c0-.552.448-1 1-1h4.5c.552 0 1 .448 1 1z" fill="#fafafa"/><path d="m9.25 21h-6.5c-1.517 0-2.75-1.233-2.75-2.75v-13.5c0-1.517 1.233-2.75 2.75-2.75h.25v-.25c0-.965.785-1.75 1.75-1.75h4.5c.965 0 1.75.785 1.75 1.75v.25h.25c1.517 0 2.75 1.233 2.75 2.75v4.52c0 .414-.336.75-.75.75s-.75-.336-.75-.75v-4.52c0-.689-.561-1.25-1.25-1.25h-1c-.414 0-.75-.336-.75-.75v-1c0-.136-.114-.25-.25-.25h-4.5c-.136 0-.25.114-.25.25v1c0 .414-.336.75-.75.75h-1c-.689 0-1.25.561-1.25 1.25v13.5c0 .689.561 1.25 1.25 1.25h6.5c.414 0 .75.336.75.75s-.336.75-.75.75z"/><path d="m6.749 15c-.121 0-.244-.029-.358-.092-.363-.198-.497-.653-.299-1.018l.895-1.641h-1.237c-.265 0-.51-.14-.645-.367-.136-.228-.141-.51-.014-.742l1.5-2.75c.199-.363.653-.497 1.018-.298.364.198.497.653.299 1.017l-.894 1.641h1.236c.265 0 .51.14.645.367.136.228.141.51.014.742l-1.5 2.75c-.137.249-.394.391-.66.391z"/><path d="m17.5 24c-3.584 0-6.5-2.916-6.5-6.5s2.916-6.5 6.5-6.5 6.5 2.916 6.5 6.5-2.916 6.5-6.5 6.5zm0-11.5c-2.757 0-5 2.243-5 5s2.243 5 5 5 5-2.243 5-5-2.243-5-5-5z"/><path d="m13.43 22.32c-.192 0-.384-.073-.53-.22-.293-.293-.293-.768 0-1.061l8.141-8.141c.293-.293.768-.293 1.061 0s.293.768 0 1.061l-8.141 8.141c-.148.147-.339.22-.531.22z"/></svg>