<svg id="regular" enable-background="new 0 0 24 24" height="512" viewBox="0 0 24 24" width="512" xmlns="http://www.w3.org/2000/svg"><path d="m21.25 15.25v1c0 1.105-.895 2-2 2h-16.5c-1.105 0-2-.895-2-2v-9.5c0-1.105.895-2 2-2h16.5c1.105 0 2 .895 2 2v1h1c.552 0 1 .448 1 1v5.5c0 .552-.448 1-1 1z" fill="#fafafa"/><path d="m10.236 19.32c-.086 0-.174-.018-.256-.056-.26-.121-.401-.406-.339-.686l1.104-4.951h-2.585c-.23 0-.44-.129-.544-.335-.104-.205-.083-.452.053-.637l5.684-7.727c.17-.233.481-.315.745-.193.263.12.405.409.34.691l-1.133 4.947h2.784c.232 0 .443.131.546.338.103.208.08.456-.06.64l-5.854 7.727c-.117.157-.298.242-.485.242z" fill="#ffc107"/><path d="m19.25 19h-4.75c-.414 0-.75-.336-.75-.75s.336-.75.75-.75h4.75c.689 0 1.25-.561 1.25-1.25v-1c0-.414.336-.75.75-.75h.991c.138 0 .25-.112.25-.25v-5.5c0-.138-.112-.25-.25-.25h-.991c-.414 0-.75-.336-.75-.75v-1c0-.689-.561-1.25-1.25-1.25h-2.75c-.414 0-.75-.336-.75-.75s.336-.75.75-.75h2.75c1.516 0 2.75 1.233 2.75 2.75v.25h.241c.965 0 1.75.785 1.75 1.75v5.5c0 .965-.785 1.75-1.75 1.75h-.241v.25c0 1.517-1.234 2.75-2.75 2.75z"/><path d="m6.5 19h-3.75c-1.517 0-2.75-1.233-2.75-2.75v-9.5c0-1.517 1.233-2.75 2.75-2.75h6.75c.414 0 .75.336.75.75s-.336.75-.75.75h-6.75c-.689 0-1.25.561-1.25 1.25v9.5c0 .689.561 1.25 1.25 1.25h3.75c.414 0 .75.336.75.75s-.336.75-.75.75z"/><path d="m9.803 21c-.106 0-.213-.022-.315-.069-.32-.148-.493-.5-.417-.844l1.358-6.087h-3.179c-.283 0-.542-.159-.669-.412-.127-.252-.103-.555.065-.783l6.989-9.5c.21-.287.593-.387.917-.237.323.148.498.502.418.849l-1.393 6.083h3.423c.285 0 .545.161.671.416.127.255.098.56-.074.787l-7.197 9.5c-.145.192-.368.297-.597.297zm-1.07-8.5h2.632c.228 0 .443.104.585.281.142.178.196.41.146.632l-.812 3.639 4.206-5.552h-2.855c-.229 0-.444-.104-.586-.283-.143-.179-.196-.412-.145-.635l.796-3.475z"/></svg>