<svg id="regular" enable-background="new 0 0 24 24" height="512" viewBox="0 0 24 24" width="512" xmlns="http://www.w3.org/2000/svg"><path d="m21.25 12.25v1c0 1.105-.895 2-2 2h-16.5c-1.105 0-2-.895-2-2v-9.5c0-1.105.895-2 2-2h16.5c1.105 0 2 .895 2 2v1h1c.552 0 1 .448 1 1v5.5c0 .552-.448 1-1 1z" fill="#fafafa"/><path d="m11 19.625c-3.033 0-5.5-2.467-5.5-5.5v-1.146c0-.884.72-1.604 1.604-1.604h7.792c.884 0 1.604.72 1.604 1.604v1.146c0 3.033-2.467 5.5-5.5 5.5z" fill="#eceff1"/><path d="m11 20c-3.309 0-6-2.691-6-6v-1.25c0-.965.785-1.75 1.75-1.75h8.5c.965 0 1.75.785 1.75 1.75v1.25c0 3.309-2.691 6-6 6zm-4.25-7.5c-.138 0-.25.112-.25.25v1.25c0 2.481 2.019 4.5 4.5 4.5s4.5-2.019 4.5-4.5v-1.25c0-.138-.112-.25-.25-.25z"/><path d="m8.75 12.5c-.414 0-.75-.336-.75-.75v-4c0-.414.336-.75.75-.75s.75.336.75.75v4c0 .414-.336.75-.75.75z"/><path d="m13.25 12.5c-.414 0-.75-.336-.75-.75v-4c0-.414.336-.75.75-.75s.75.336.75.75v4c0 .414-.336.75-.75.75z"/><path d="m11 24c-.414 0-.75-.336-.75-.75v-4c0-.414.336-.75.75-.75s.75.336.75.75v4c0 .414-.336.75-.75.75z"/><path d="m19.25 16c-.414 0-.75-.336-.75-.75s.336-.75.75-.75c.689 0 1.25-.561 1.25-1.25v-1c0-.414.336-.75.75-.75h.991c.138 0 .25-.112.25-.25v-5.5c0-.138-.112-.25-.25-.25h-.991c-.414 0-.75-.336-.75-.75v-1c0-.689-.561-1.25-1.25-1.25h-16.5c-.689 0-1.25.561-1.25 1.25v9.5c0 .689.561 1.25 1.25 1.25.414 0 .75.336.75.75s-.336.75-.75.75c-1.517 0-2.75-1.233-2.75-2.75v-9.5c0-1.517 1.233-2.75 2.75-2.75h16.5c1.517 0 2.75 1.233 2.75 2.75v.25h.241c.965 0 1.75.785 1.75 1.75v5.5c0 .965-.785 1.75-1.75 1.75h-.241v.25c0 1.517-1.233 2.75-2.75 2.75z"/></svg>