<svg id="regular" enable-background="new 0 0 24 24" height="512" viewBox="0 0 24 24" width="512" xmlns="http://www.w3.org/2000/svg"><path d="m21.25 12.25v1c0 1.105-.895 2-2 2h-16.5c-1.105 0-2-.895-2-2v-9.5c0-1.105.895-2 2-2h16.5c1.105 0 2 .895 2 2v1h1c.552 0 1 .448 1 1v5.5c0 .552-.448 1-1 1z" fill="#fafafa"/><path d="m13.641 12.078h-5.282c-.336 0-.609-.273-.609-.609v-2.438c0-.336.273-.609.609-.609h5.281c.336 0 .609.273.609.609v2.438c.001.336-.272.609-.608.609z" fill="#cfd8dc"/><path d="m12.094 18.5h-2.188c-2.292 0-4.156-1.865-4.156-4.156v-1.313c0-.844.687-1.531 1.531-1.531h7.438c.844 0 1.531.687 1.531 1.531v1.313c0 2.291-1.865 4.156-4.156 4.156z" fill="#eceff1"/><path d="m12.25 19h-2.5c-2.619 0-4.75-2.131-4.75-4.75v-1.5c0-.965.785-1.75 1.75-1.75h8.5c.965 0 1.75.785 1.75 1.75v1.5c0 2.619-2.131 4.75-4.75 4.75zm-5.5-6.5c-.138 0-.25.112-.25.25v1.5c0 1.792 1.458 3.25 3.25 3.25h2.5c1.792 0 3.25-1.458 3.25-3.25v-1.5c0-.138-.112-.25-.25-.25z"/><path d="m14.25 12.5c-.414 0-.75-.336-.75-.75v-2.25h-5v2.25c0 .414-.336.75-.75.75s-.75-.336-.75-.75v-3c0-.414.336-.75.75-.75h6.5c.414 0 .75.336.75.75v3c0 .414-.336.75-.75.75z"/><path d="m11 24c-.414 0-.75-.336-.75-.75v-5c0-.414.336-.75.75-.75s.75.336.75.75v5c0 .414-.336.75-.75.75z"/><path d="m19.25 16c-.414 0-.75-.336-.75-.75s.336-.75.75-.75c.689 0 1.25-.561 1.25-1.25v-1c0-.414.336-.75.75-.75h.991c.138 0 .25-.112.25-.25v-5.5c0-.138-.112-.25-.25-.25h-.991c-.414 0-.75-.336-.75-.75v-1c0-.689-.561-1.25-1.25-1.25h-16.5c-.689 0-1.25.561-1.25 1.25v9.5c0 .689.561 1.25 1.25 1.25.414 0 .75.336.75.75s-.336.75-.75.75c-1.516 0-2.75-1.233-2.75-2.75v-9.5c0-1.517 1.234-2.75 2.75-2.75h16.5c1.516 0 2.75 1.233 2.75 2.75v.25h.241c.965 0 1.75.785 1.75 1.75v5.5c0 .965-.785 1.75-1.75 1.75h-.241v.25c0 1.517-1.234 2.75-2.75 2.75z"/></svg>