<svg id="regular" enable-background="new 0 0 24 24" height="512" viewBox="0 0 24 24" width="512" xmlns="http://www.w3.org/2000/svg"><path d="m21.25 12.25v1c0 1.105-.895 2-2 2h-16.5c-1.105 0-2-.895-2-2v-9.5c0-1.105.895-2 2-2h16.5c1.105 0 2 .895 2 2v1h1c.552 0 1 .448 1 1v5.5c0 .552-.448 1-1 1z" fill="#fafafa"/><path d="m12.312 8.688h-2.625c-.311 0-.562.252-.562.563v3c0 .311.252.563.562.563h2.625c.311 0 .563-.252.563-.563v-3c0-.312-.252-.563-.563-.563z" fill="#cfd8dc"/><path d="m12.071 18.5h-2.142c-1.3 0-2.357-1.057-2.357-2.357v-3c0-.355.288-.643.643-.643h5.571c.355 0 .643.288.643.643v3c0 1.3-1.058 2.357-2.358 2.357z" fill="#eceff1"/><path d="m19.25 16h-1.5c-.414 0-.75-.336-.75-.75s.336-.75.75-.75h1.5c.689 0 1.25-.561 1.25-1.25v-1c0-.414.336-.75.75-.75h.991c.138 0 .25-.112.25-.25v-5.5c0-.138-.112-.25-.25-.25h-.991c-.414 0-.75-.336-.75-.75v-1c0-.689-.561-1.25-1.25-1.25h-16.5c-.689 0-1.25.561-1.25 1.25v9.5c0 .689.561 1.25 1.25 1.25h1.5c.414 0 .75.336.75.75s-.336.75-.75.75h-1.5c-1.517 0-2.75-1.233-2.75-2.75v-9.5c0-1.517 1.233-2.75 2.75-2.75h16.5c1.517 0 2.75 1.233 2.75 2.75v.25h.241c.965 0 1.75.785 1.75 1.75v5.5c0 .965-.785 1.75-1.75 1.75h-.241v.25c0 1.517-1.233 2.75-2.75 2.75z"/><path d="m12.25 19h-2.5c-1.517 0-2.75-1.233-2.75-2.75v-3.5c0-.414.336-.75.75-.75h6.5c.414 0 .75.336.75.75v3.5c0 1.517-1.233 2.75-2.75 2.75zm-3.75-5.5v2.75c0 .689.561 1.25 1.25 1.25h2.5c.689 0 1.25-.561 1.25-1.25v-2.75z"/><path d="m12.75 13.5c-.414 0-.75-.336-.75-.75v-3.25h-2v3.25c0 .414-.336.75-.75.75s-.75-.336-.75-.75v-4c0-.414.336-.75.75-.75h3.5c.414 0 .75.336.75.75v4c0 .414-.336.75-.75.75z"/><path d="m11 24c-.414 0-.75-.336-.75-.75v-5c0-.414.336-.75.75-.75s.75.336.75.75v5c0 .414-.336.75-.75.75z"/></svg>