<svg id="regular" enable-background="new 0 0 24 24" height="512" viewBox="0 0 24 24" width="512" xmlns="http://www.w3.org/2000/svg"><path d="m10.25 2.5h1c1.105 0 2 .895 2 2v13.75c0 1.105-.895 2-2 2h-8.5c-1.105 0-2-.895-2-2v-13.75c0-1.105.895-2 2-2h1v-1c0-.552.448-1 1-1h4.5c.552 0 1 .448 1 1z" fill="#fafafa"/><path d="m21.34 16.75h-2.5s.47-.7.47-1.87c0-1.4-.7-2.11-1.17-2.11-.46 0-.7.23-.7 1.4 0 1.31-1.41 2.57-1.97 2.92l.03 5.15c.56.32 1.81 1.01 4.49 1.01h.76c.94 0 1.79-.68 1.94-1.6.01 0 .56-2.72.56-2.99 0-1.03-.84-1.91-1.91-1.91z" fill="#eceff1"/><path d="m14.219 23.5h-.438c-.844 0-1.531-.687-1.531-1.531v-3.938c0-.844.687-1.531 1.531-1.531h.438c.844 0 1.531.687 1.531 1.531v3.938c0 .844-.687 1.531-1.531 1.531z" fill="#03a9f4"/><path d="m9.25 21h-6.5c-1.517 0-2.75-1.233-2.75-2.75v-13.5c0-1.517 1.233-2.75 2.75-2.75h.25v-.25c0-.965.785-1.75 1.75-1.75h4.5c.965 0 1.75.785 1.75 1.75v.25h.25c1.517 0 2.75 1.233 2.75 2.75v7.52c0 .414-.336.75-.75.75s-.75-.336-.75-.75v-7.52c0-.689-.561-1.25-1.25-1.25h-1c-.414 0-.75-.336-.75-.75v-1c0-.136-.114-.25-.25-.25h-4.5c-.136 0-.25.114-.25.25v1c0 .414-.336.75-.75.75h-1c-.689 0-1.25.561-1.25 1.25v13.5c0 .689.561 1.25 1.25 1.25h6.5c.414 0 .75.336.75.75s-.336.75-.75.75z"/><path d="m6.749 15c-.121 0-.244-.029-.358-.092-.363-.198-.497-.653-.299-1.018l.895-1.641h-1.237c-.265 0-.51-.14-.645-.367-.136-.228-.141-.51-.014-.742l1.5-2.75c.197-.363.652-.498 1.018-.299.364.199.497.654.299 1.018l-.894 1.641h1.236c.265 0 .51.14.645.367.136.228.141.51.014.742l-1.5 2.75c-.137.249-.394.391-.66.391z"/><path d="m14.25 24h-.5c-.965 0-1.75-.785-1.75-1.75v-4.5c0-.965.785-1.75 1.75-1.75h.5c.965 0 1.75.785 1.75 1.75v4.5c0 .965-.785 1.75-1.75 1.75zm-.5-6.5c-.138 0-.25.112-.25.25v4.5c0 .138.112.25.25.25h.5c.136 0 .25-.114.25-.25v-4.5c0-.138-.112-.25-.25-.25z"/><path d="m20.75 24h-.76c-2.92 0-4.281-.776-4.862-1.108-.359-.205-.484-.663-.279-1.023s.663-.487 1.023-.279c.478.272 1.597.911 4.118.911h.76c.584 0 1.111-.427 1.2-.971.005-.028.011-.057.019-.083.072-.311.509-2.518.532-2.813-.001-.613-.522-1.134-1.161-1.134h-2.5c-.277 0-.531-.152-.662-.397-.13-.244-.115-.54.039-.771s.343-.551.343-1.452c0-.659-.19-1.062-.342-1.248-.016.117-.027.289-.027.538 0 1.72-1.721 3.181-2.324 3.557-.353.218-.813.11-1.033-.24-.219-.351-.111-.813.24-1.033.546-.341 1.617-1.394 1.617-2.283 0-.644 0-2.15 1.449-2.15.943 0 1.92 1.07 1.92 2.86 0 .427-.053.803-.128 1.12h1.408c1.467 0 2.66 1.193 2.66 2.66 0 .093 0 .247-.29 1.739-.124.638-.208 1.073-.29 1.37l.011.002c-.208 1.27-1.361 2.228-2.681 2.228z"/></svg>