<svg id="regular" enable-background="new 0 0 24 24" height="512" viewBox="0 0 24 24" width="512" xmlns="http://www.w3.org/2000/svg"><path d="m18 23.125c-.087 0-.174-.018-.256-.052-.204-.087-4.994-2.172-4.994-6.463v-3.516c0-.281.179-.531.445-.621l4.594-1.562c.137-.047.285-.047.422 0l4.594 1.562c.267.091.445.34.445.621v3.516c0 4.291-4.789 6.377-4.994 6.463-.082.034-.169.052-.256.052z" fill="#2196f3"/><path d="m10.25 2.5h1c1.105 0 2 .895 2 2v13.75c0 1.105-.895 2-2 2h-8.5c-1.105 0-2-.895-2-2v-13.75c0-1.105.895-2 2-2h1v-1c0-.552.448-1 1-1h4.5c.552 0 1 .448 1 1z" fill="#fafafa"/><path d="m18 24c-.1 0-.2-.02-.294-.06-.232-.099-5.706-2.483-5.706-7.386v-4.018c0-.321.204-.606.509-.71l5.25-1.786c.156-.053.326-.053.482 0l5.25 1.786c.305.104.509.389.509.71v4.018c0 4.903-5.474 7.287-5.706 7.387-.094.039-.194.059-.294.059zm-4.5-10.927v3.48c0 3.333 3.456 5.337 4.5 5.865 1.044-.528 4.5-2.532 4.5-5.865v-3.48l-4.5-1.531z"/><path d="m17.75 19.5c-.198 0-.39-.078-.53-.22l-2-2c-.293-.293-.293-.768 0-1.061s.768-.293 1.061 0l1.389 1.389 2.48-3.308c.246-.331.717-.4 1.05-.149.331.248.398.718.149 1.05l-3 4c-.13.174-.329.282-.547.298-.017 0-.034.001-.052.001z"/><path d="m10.25 21h-7.5c-1.517 0-2.75-1.233-2.75-2.75v-13.5c0-1.517 1.233-2.75 2.75-2.75h.25v-.25c0-.965.785-1.75 1.75-1.75h4.5c.965 0 1.75.785 1.75 1.75v.25h.25c1.517 0 2.75 1.233 2.75 2.75v4.52c0 .414-.336.75-.75.75s-.75-.336-.75-.75v-4.52c0-.689-.561-1.25-1.25-1.25h-1c-.414 0-.75-.336-.75-.75v-1c0-.136-.114-.25-.25-.25h-4.5c-.136 0-.25.114-.25.25v1c0 .414-.336.75-.75.75h-1c-.689 0-1.25.561-1.25 1.25v13.5c0 .689.561 1.25 1.25 1.25h7.5c.414 0 .75.336.75.75s-.336.75-.75.75z"/><path d="m6.749 15c-.121 0-.244-.029-.358-.092-.363-.198-.497-.653-.299-1.018l.895-1.641h-1.237c-.265 0-.51-.14-.645-.367-.136-.228-.141-.51-.014-.742l1.5-2.75c.197-.363.652-.498 1.018-.299.364.199.497.654.299 1.018l-.894 1.641h1.236c.265 0 .51.14.645.367.136.228.141.51.014.742l-1.5 2.75c-.137.249-.394.391-.66.391z"/></svg>