<svg id="regular" enable-background="new 0 0 24 24" height="512" viewBox="0 0 24 24" width="512" xmlns="http://www.w3.org/2000/svg"><path d="m10.25 2.5h1c1.105 0 2 .895 2 2v13.75c0 1.105-.895 2-2 2h-8.5c-1.105 0-2-.895-2-2v-13.75c0-1.105.895-2 2-2h1v-1c0-.552.448-1 1-1h4.5c.552 0 1 .448 1 1z" fill="#fafafa"/><path d="m6.749 15c-.121 0-.244-.029-.358-.092-.363-.198-.497-.653-.299-1.018l.895-1.641h-1.237c-.265 0-.51-.14-.645-.367-.136-.228-.141-.51-.014-.742l1.5-2.75c.197-.363.653-.498 1.018-.299.364.199.497.654.299 1.018l-.894 1.641h1.236c.265 0 .51.14.645.367.136.228.141.51.014.742l-1.5 2.75c-.137.249-.394.391-.66.391z"/><path d="m21.87 18.2c.04-.23.07-.46.07-.7s-.03-.47-.07-.7l1.19-.88c.19-.15.25-.42.13-.63l-.74-1.33c-.12-.21-.38-.3-.59-.19l-1.34.62c-.35-.3-.74-.54-1.17-.7l-.15-1.51c-.02-.24-.22-.43-.46-.43h-1.48c-.24 0-.44.19-.46.43l-.15 1.51c-.43.16-.82.4-1.17.7l-1.34-.62c-.21-.11-.47-.02-.59.19l-.74 1.33c-.12.21-.06.48.13.63l1.19.88c-.04.23-.07.46-.07.7s.03.47.07.7l-1.19.88c-.19.15-.25.42-.13.63l.74 1.33c.12.21.38.3.59.19l1.34-.62c.35.3.74.54 1.17.7l.15 1.51c.02.24.22.43.46.43h1.48c.24 0 .44-.19.46-.43l.15-1.51c.43-.16.82-.4 1.17-.7l1.34.62c.21.11.47.02.59-.19l.74-1.33c.12-.21.06-.48-.13-.63zm-3.87 1.3c-1.38 0-2-.62-2-2s.62-2 2-2 2 .62 2 2-.62 2-2 2z" fill="#607d8b"/><path d="m18 20c-1.379 0-2.5-1.121-2.5-2.5s1.121-2.5 2.5-2.5 2.5 1.121 2.5 2.5-1.121 2.5-2.5 2.5zm0-3.5c-.552 0-1 .448-1 1s.448 1 1 1 1-.448 1-1-.448-1-1-1z"/><path d="m18.739 24h-1.479c-.626 0-1.146-.476-1.208-1.107l-.104-1.071c-.194-.099-.383-.212-.564-.339l-.924.432c-.582.269-1.251.048-1.563-.511l-.74-1.325c-.302-.539-.157-1.226.337-1.595l.832-.618c-.011-.127-.017-.246-.017-.365s.006-.238.017-.365l-.83-.618c-.496-.367-.642-1.054-.338-1.596l.738-1.323c.313-.561.984-.778 1.563-.513l.926.433c.182-.127.37-.24.564-.339l.104-1.069c.062-.635.582-1.111 1.208-1.111h1.479c.626 0 1.146.476 1.208 1.107l.104 1.071c.195.099.384.212.565.338l.923-.431c.581-.268 1.251-.049 1.563.511l.74 1.325c.303.541.157 1.228-.339 1.596l-.83.617c.011.127.017.246.017.365s-.006.238-.017.365l.83.616c.496.371.641 1.058.338 1.598l-.738 1.323c-.313.561-.985.778-1.563.513l-.926-.433c-.182.127-.37.24-.564.339l-.104 1.069c-.062.635-.582 1.111-1.208 1.111zm-1.218-1.5h.957l.122-1.26c.027-.284.214-.528.481-.63.338-.127.656-.318.945-.568.223-.193.539-.236.808-.112l1.089.509.498-.892-.997-.74c-.227-.169-.34-.45-.292-.729.032-.188.058-.38.058-.578s-.025-.39-.058-.578c-.048-.278.065-.56.292-.728l.996-.741-.497-.892-1.089.509c-.269.124-.586.082-.809-.113-.287-.249-.604-.439-.944-.567-.268-.102-.454-.346-.481-.63l-.122-1.26h-.957l-.122 1.26c-.027.284-.214.528-.481.63-.338.127-.656.318-.945.568-.223.193-.538.236-.808.112l-1.089-.509-.497.892.996.741c.227.168.34.449.292.728-.032.188-.058.38-.058.578s.025.39.058.578c.048.278-.065.56-.292.729l-.997.74.498.892 1.089-.509c.27-.124.585-.081.808.112.289.25.607.441.945.568.268.102.454.346.481.63zm5.086-2.815h.01z"/><path d="m9.25 21h-6.5c-1.517 0-2.75-1.233-2.75-2.75v-13.5c0-1.517 1.233-2.75 2.75-2.75h.25v-.25c0-.965.785-1.75 1.75-1.75h4.5c.965 0 1.75.785 1.75 1.75v.25h.25c1.517 0 2.75 1.233 2.75 2.75v4.52c0 .414-.336.75-.75.75s-.75-.336-.75-.75v-4.52c0-.689-.561-1.25-1.25-1.25h-1c-.414 0-.75-.336-.75-.75v-1c0-.136-.114-.25-.25-.25h-4.5c-.136 0-.25.114-.25.25v1c0 .414-.336.75-.75.75h-1c-.689 0-1.25.561-1.25 1.25v13.5c0 .689.561 1.25 1.25 1.25h6.5c.414 0 .75.336.75.75s-.336.75-.75.75z"/></svg>