<svg id="regular" enable-background="new 0 0 24 24" height="512" viewBox="0 0 24 24" width="512" xmlns="http://www.w3.org/2000/svg"><path d="m10.25 2.5h1c1.105 0 2 .895 2 2v13.75c0 1.105-.895 2-2 2h-8.5c-1.105 0-2-.895-2-2v-13.75c0-1.105.895-2 2-2h1v-1c0-.552.448-1 1-1h4.5c.552 0 1 .448 1 1z" fill="#fafafa"/><path d="m20.507 23c-.125 0-.249-.037-.357-.11l-2.65-1.803-2.65 1.803c-.218.147-.505.147-.721-.005-.216-.151-.316-.42-.251-.676l.825-3.257-2.481-2.118c-.197-.168-.272-.44-.189-.685s.307-.416.566-.431l3.16-.179 1.145-3.123c.092-.25.33-.416.596-.416s.504.166.596.416l1.145 3.123 3.16.179c.259.015.483.186.566.431.083.246.008.517-.189.685l-2.481 2.118.825 3.257c.065.255-.035.525-.251.676-.11.076-.237.115-.364.115z" fill="#fdd835"/><path d="m21.054 24c-.147 0-.294-.043-.422-.13l-3.132-2.132-3.132 2.132c-.257.175-.595.175-.852-.006-.255-.179-.374-.496-.297-.799l.975-3.849-2.932-2.504c-.233-.199-.321-.52-.223-.81.098-.291.362-.492.668-.51l3.735-.211 1.354-3.69c.108-.295.39-.491.704-.491s.596.196.704.492l1.354 3.69 3.735.211c.306.018.57.219.668.51.098.29.01.61-.223.81l-2.932 2.504.975 3.849c.077.303-.042.62-.297.799-.13.09-.28.135-.43.135zm-3.554-3.919c.147 0 .295.043.422.13l1.919 1.307-.604-2.384c-.07-.277.023-.569.24-.755l1.865-1.593-2.362-.134c-.299-.018-.559-.21-.662-.491l-.818-2.232-.819 2.232c-.103.281-.363.474-.662.491l-2.362.134 1.865 1.593c.217.186.31.478.24.755l-.604 2.384 1.919-1.307c.128-.087.276-.13.423-.13z"/><path d="m11.25 21h-8.5c-1.517 0-2.75-1.233-2.75-2.75v-13.5c0-1.517 1.233-2.75 2.75-2.75h.25v-.25c0-.965.785-1.75 1.75-1.75h4.5c.965 0 1.75.785 1.75 1.75v.25h.25c1.517 0 2.75 1.233 2.75 2.75v7.52c0 .414-.336.75-.75.75s-.75-.336-.75-.75v-7.52c0-.689-.561-1.25-1.25-1.25h-1c-.414 0-.75-.336-.75-.75v-1c0-.136-.114-.25-.25-.25h-4.5c-.136 0-.25.114-.25.25v1c0 .414-.336.75-.75.75h-1c-.689 0-1.25.561-1.25 1.25v13.5c0 .689.561 1.25 1.25 1.25h8.5c.414 0 .75.336.75.75s-.336.75-.75.75z"/><path d="m6.75 15c-.122 0-.245-.029-.359-.092-.363-.198-.498-.653-.299-1.018l.895-1.641h-1.237c-.265 0-.51-.14-.645-.367s-.14-.51-.013-.742l1.5-2.75c.198-.363.652-.498 1.017-.298.364.198.498.653.299 1.017l-.895 1.641h1.237c.265 0 .51.14.645.367s.14.51.013.742l-1.5 2.75c-.136.249-.393.391-.658.391z"/></svg>