<svg id="regular" enable-background="new 0 0 24 24" height="512" viewBox="0 0 24 24" width="512" xmlns="http://www.w3.org/2000/svg"><path d="m10.25 2.5h1c1.105 0 2 .895 2 2v13.75c0 1.105-.895 2-2 2h-8.5c-1.105 0-2-.895-2-2v-13.75c0-1.105.895-2 2-2h1v-1c0-.552.448-1 1-1h4.5c.552 0 1 .448 1 1z" fill="#fafafa"/><path d="m17.5 23.167c-3.124 0-5.667-2.542-5.667-5.667s2.542-5.667 5.667-5.667 5.667 2.542 5.667 5.667-2.543 5.667-5.667 5.667z" fill="#fdd835"/><path d="m19.75 20.5c-.177 0-.355-.063-.498-.189l-2.25-2c-.16-.143-.252-.347-.252-.561v-3c0-.414.336-.75.75-.75s.75.336.75.75v2.663l1.998 1.776c.31.275.338.749.063 1.059-.148.167-.354.252-.561.252z"/><path d="m17.5 24c-3.584 0-6.5-2.916-6.5-6.5s2.916-6.5 6.5-6.5 6.5 2.916 6.5 6.5-2.916 6.5-6.5 6.5zm0-11.5c-2.757 0-5 2.243-5 5s2.243 5 5 5 5-2.243 5-5-2.243-5-5-5z"/><path d="m9.25 21h-6.5c-1.517 0-2.75-1.233-2.75-2.75v-13.5c0-1.517 1.233-2.75 2.75-2.75h.25v-.25c0-.965.785-1.75 1.75-1.75h4.5c.965 0 1.75.785 1.75 1.75v.25h.25c1.517 0 2.75 1.233 2.75 2.75v4.52c0 .414-.336.75-.75.75s-.75-.336-.75-.75v-4.52c0-.689-.561-1.25-1.25-1.25h-1c-.414 0-.75-.336-.75-.75v-1c0-.136-.114-.25-.25-.25h-4.5c-.136 0-.25.114-.25.25v1c0 .414-.336.75-.75.75h-1c-.689 0-1.25.561-1.25 1.25v13.5c0 .689.561 1.25 1.25 1.25h6.5c.414 0 .75.336.75.75s-.336.75-.75.75z"/><path d="m6.75 15c-.122 0-.245-.029-.359-.092-.363-.198-.498-.653-.299-1.018l.895-1.641h-1.237c-.265 0-.51-.14-.645-.367s-.14-.51-.013-.742l1.5-2.75c.198-.363.653-.498 1.017-.298.364.198.498.653.299 1.017l-.895 1.641h1.237c.265 0 .51.14.645.367s.14.51.013.742l-1.5 2.75c-.136.249-.393.391-.658.391z"/></svg>