<svg id="regular" enable-background="new 0 0 24 24" height="512" viewBox="0 0 24 24" width="512" xmlns="http://www.w3.org/2000/svg"><path d="m10.25 2.5h1c1.105 0 2 .895 2 2v13.75c0 1.105-.895 2-2 2h-8.5c-1.105 0-2-.895-2-2v-13.75c0-1.105.895-2 2-2h1v-1c0-.552.448-1 1-1h4.5c.552 0 1 .448 1 1z" fill="#fafafa"/><path d="m16.087 13.556-5.05 8.158c-.443.715.072 1.638.913 1.638h10.1c.841 0 1.355-.923.913-1.638l-5.05-8.158c-.42-.678-1.406-.678-1.826 0z" fill="#fdd835"/><path d="m22.288 24h-10.576c-.944 0-1.712-.765-1.712-1.704 0-.335.094-.651.272-.916l5.271-8.565c.295-.499.855-.815 1.457-.815s1.162.316 1.463.827l5.281 8.578c.162.24.256.556.256.891 0 .939-.768 1.704-1.712 1.704zm-5.288-10.5c-.088 0-.147.048-.172.089l-5.328 8.707c0 .11.097.204.212.204h10.576c.115 0 .212-.094.212-.204 0-.033-.006-.063-.017-.078l-5.305-8.616c-.031-.054-.09-.102-.178-.102z"/><path d="m17 19.5c-.414 0-.75-.336-.75-.75v-2c0-.414.336-.75.75-.75s.75.336.75.75v2c0 .414-.336.75-.75.75z"/><circle cx="17" cy="21.25" r=".75"/><path d="m7.25 21h-4.5c-1.517 0-2.75-1.233-2.75-2.75v-13.5c0-1.517 1.233-2.75 2.75-2.75h.25v-.25c0-.965.785-1.75 1.75-1.75h4.5c.965 0 1.75.785 1.75 1.75v.25h.25c1.517 0 2.75 1.233 2.75 2.75v6.27c0 .414-.336.75-.75.75s-.75-.336-.75-.75v-6.27c0-.689-.561-1.25-1.25-1.25h-1c-.414 0-.75-.336-.75-.75v-1c0-.136-.114-.25-.25-.25h-4.5c-.136 0-.25.114-.25.25v1c0 .414-.336.75-.75.75h-1c-.689 0-1.25.561-1.25 1.25v13.5c0 .689.561 1.25 1.25 1.25h4.5c.414 0 .75.336.75.75s-.336.75-.75.75z"/><path d="m6.749 15c-.121 0-.244-.029-.358-.092-.363-.198-.497-.653-.299-1.018l.895-1.641h-1.237c-.265 0-.51-.14-.645-.367-.136-.228-.141-.51-.014-.742l1.5-2.75c.197-.363.653-.498 1.018-.299.364.199.497.654.299 1.018l-.894 1.641h1.236c.265 0 .51.14.645.367.136.228.141.51.014.742l-1.5 2.75c-.137.249-.394.391-.66.391z"/></svg>