<svg id="regular" enable-background="new 0 0 24 24" height="512" viewBox="0 0 24 24" width="512" xmlns="http://www.w3.org/2000/svg"><path d="m21.812 4.938h-2.625c-.311 0-.562-.252-.562-.563v-2.25c0-.311.252-.563.562-.563h2.625c.311 0 .563.252.563.563v2.25c0 .311-.252.563-.563.563z" fill="#cfd8dc"/><path d="m21.131 8.833h-1.262c-1.276 0-2.313-1.038-2.313-2.313v-1.472c0-.348.283-.631.631-.631h4.627c.348 0 .631.283.631.631v1.472c-.001 1.276-1.038 2.313-2.314 2.313z" fill="#eceff1"/><path d="m4.812 7.375h-2.625c-.311 0-.562-.252-.562-.563v-2.624c0-.311.252-.563.562-.563h2.625c.311 0 .563.252.563.563v2.625c0 .31-.252.562-.563.562z" fill="#eceff1"/><path d="m12 24c-5.101 0-9.25-4.149-9.25-9.25v-7.5c0-.414.336-.75.75-.75s.75.336.75.75v7.5c0 4.273 3.477 7.75 7.75 7.75s7.75-3.477 7.75-7.75v-6.25c0-.414.336-.75.75-.75s.75.336.75.75v6.25c0 5.101-4.149 9.25-9.25 9.25z"/><path d="m12 24c-3.859 0-7-3.14-7-7s3.141-7 7-7 7 3.14 7 7-3.141 7-7 7zm0-12.5c-3.032 0-5.5 2.467-5.5 5.5s2.468 5.5 5.5 5.5 5.5-2.467 5.5-5.5-2.468-5.5-5.5-5.5z"/><path d="m21.25 9.25h-1.5c-1.517 0-2.75-1.233-2.75-2.75v-1.75c0-.414.336-.75.75-.75h5.5c.414 0 .75.336.75.75v1.75c0 1.517-1.233 2.75-2.75 2.75zm-2.75-3.75v1c0 .689.561 1.25 1.25 1.25h1.5c.689 0 1.25-.561 1.25-1.25v-1z"/><path d="m5.25 8h-3.5c-.414 0-.75-.336-.75-.75v-3.5c0-.414.336-.75.75-.75h3.5c.414 0 .75.336.75.75v3.5c0 .414-.336.75-.75.75zm-2.75-1.5h2v-2h-2z"/><path d="m22.25 5.5c-.414 0-.75-.336-.75-.75v-2.25h-2v2.25c0 .414-.336.75-.75.75s-.75-.336-.75-.75v-3c0-.414.336-.75.75-.75h3.5c.414 0 .75.336.75.75v3c0 .414-.336.75-.75.75z"/><path d="m3.5 4.5c-.414 0-.75-.336-.75-.75v-3c0-.414.336-.75.75-.75s.75.336.75.75v3c0 .414-.336.75-.75.75z"/></svg>