<svg id="regular" enable-background="new 0 0 24 24" height="512" viewBox="0 0 24 24" width="512" xmlns="http://www.w3.org/2000/svg"><path d="m12.226 18.417h-.451c-4.363 0-7.899-3.537-7.899-7.899v-1.935c0-.552.448-1 1-1h14.25c.552 0 1 .448 1 1v1.934c-.001 4.363-3.538 7.9-7.9 7.9z" fill="#eceff1"/><path d="m12.25 19h-.5c-4.825 0-8.75-3.925-8.75-8.75v-1.5c0-.965.785-1.75 1.75-1.75h14.5c.965 0 1.75.785 1.75 1.75v1.5c0 4.825-3.925 8.75-8.75 8.75zm-7.5-10.5c-.138 0-.25.112-.25.25v1.5c0 3.998 3.252 7.25 7.25 7.25h.5c3.998 0 7.25-3.252 7.25-7.25v-1.5c0-.138-.112-.25-.25-.25z"/><path d="m7.25 8.5c-.414 0-.75-.336-.75-.75v-7c0-.414.336-.75.75-.75s.75.336.75.75v7c0 .414-.336.75-.75.75z"/><path d="m16.75 8.5c-.414 0-.75-.336-.75-.75v-7c0-.414.336-.75.75-.75s.75.336.75.75v7c0 .414-.336.75-.75.75z"/><path d="m15 24c-.414 0-.75-.336-.75-.75s-.337-.75-.75-.75c-1.24 0-2.25-1.009-2.25-2.25v-2c0-.414.336-.75.75-.75s.75.336.75.75v2c0 .414.337.75.75.75 1.24 0 2.25 1.009 2.25 2.25 0 .414-.336.75-.75.75z"/></svg>