<svg id="regular" enable-background="new 0 0 24 24" height="512" viewBox="0 0 24 24" width="512" xmlns="http://www.w3.org/2000/svg"><path d="m19.486 7.153h-14.972c-.376 0-.681-.305-.681-.681v-4.259c0-.876.712-1.588 1.588-1.588h13.157c.876 0 1.588.712 1.588 1.588v4.259c.001.376-.304.681-.68.681z" fill="#cfd8dc"/><path d="m14.122 19.602h-4.244c-4.551 0-8.253-3.702-8.253-8.253v-3.301c0-.91.741-1.651 1.651-1.651h17.449c.91 0 1.651.741 1.651 1.651v3.301c-.001 4.551-3.703 8.253-8.254 8.253z" fill="#eceff1"/><path d="m14.25 20h-4.5c-4.825 0-8.75-3.925-8.75-8.75v-3.5c0-.965.785-1.75 1.75-1.75h18.5c.965 0 1.75.785 1.75 1.75v3.5c0 4.825-3.925 8.75-8.75 8.75zm-11.5-12.5c-.138 0-.25.112-.25.25v3.5c0 3.998 3.252 7.25 7.25 7.25h4.5c3.998 0 7.25-3.252 7.25-7.25v-3.5c0-.138-.112-.25-.25-.25z"/><path d="m15 24c-.414 0-.75-.336-.75-.75s-.337-.75-.75-.75c-1.24 0-2.25-1.009-2.25-2.25v-1c0-.414.336-.75.75-.75s.75.336.75.75v1c0 .414.337.75.75.75 1.24 0 2.25 1.009 2.25 2.25 0 .414-.336.75-.75.75z"/><path d="m20.25 7.5h-16.5c-.414 0-.75-.336-.75-.75v-5c0-.965.785-1.75 1.75-1.75h14.5c.965 0 1.75.785 1.75 1.75v5c0 .414-.336.75-.75.75zm-15.75-1.5h15v-4.25c0-.138-.112-.25-.25-.25h-14.5c-.138 0-.25.112-.25.25z"/></svg>