<svg id="regular" enable-background="new 0 0 24 24" height="512" viewBox="0 0 24 24" width="512" xmlns="http://www.w3.org/2000/svg"><path d="m16.594 8.906h-9.188c-.362 0-.656-.294-.656-.656v-6.125c0-.844.687-1.531 1.531-1.531h7.438c.844 0 1.531.687 1.531 1.531v6.125c0 .362-.294.656-.656.656z" fill="#cfd8dc"/><path d="m15.918 19.531h-7.836c-1.906 0-3.457-1.551-3.457-3.457v-6.914c0-.382.31-.691.691-.691h13.367c.382 0 .691.31.691.691v6.914c.001 1.907-1.55 3.457-3.456 3.457z" fill="#eceff1"/><path d="m16.25 20h-8.5c-2.067 0-3.75-1.682-3.75-3.75v-7.5c0-.414.336-.75.75-.75h14.5c.414 0 .75.336.75.75v7.5c0 2.068-1.683 3.75-3.75 3.75zm-10.75-10.5v6.75c0 1.241 1.01 2.25 2.25 2.25h8.5c1.24 0 2.25-1.009 2.25-2.25v-6.75z"/><path d="m15 24c-.414 0-.75-.336-.75-.75s-.337-.75-.75-.75c-1.24 0-2.25-1.009-2.25-2.25v-1c0-.414.336-.75.75-.75s.75.336.75.75v1c0 .414.337.75.75.75 1.24 0 2.25 1.009 2.25 2.25 0 .414-.336.75-.75.75z"/><path d="m17.25 9.5h-10.5c-.414 0-.75-.336-.75-.75v-7c0-.965.785-1.75 1.75-1.75h8.5c.965 0 1.75.785 1.75 1.75v7c0 .414-.336.75-.75.75zm-9.75-1.5h9v-6.25c0-.138-.112-.25-.25-.25h-8.5c-.138 0-.25.112-.25.25z"/><path d="m9.25 6.5c-.414 0-.75-.336-.75-.75v-2.5c0-.414.336-.75.75-.75s.75.336.75.75v2.5c0 .414-.336.75-.75.75z"/><path d="m12 6.5c-.414 0-.75-.336-.75-.75v-2.5c0-.414.336-.75.75-.75s.75.336.75.75v2.5c0 .414-.336.75-.75.75z"/><path d="m14.75 6.5c-.414 0-.75-.336-.75-.75v-2.5c0-.414.336-.75.75-.75s.75.336.75.75v2.5c0 .414-.336.75-.75.75z"/></svg>