<svg id="regular" enable-background="new 0 0 24 24" height="512" viewBox="0 0 24 24" width="512" xmlns="http://www.w3.org/2000/svg"><path d="m14.71 22.806c-.924-.924-.951-1.818-.952-1.863-.001-.193-.158-.35-.352-.35h-2.826c-.194 0-.351.16-.352.354 0 .038-.012.934-.938 1.859-.101.101-.131.252-.076.383.054.132.183.217.325.217h4.922c.142 0 .271-.085.325-.217s.024-.282-.076-.383z" fill="#90a4ae"/><path d="m10.625.938c-.55 0-1 .45-1 1v5.125c0 .55.45 1 1 1h9.625c.55 0 1-.45 1-1v-1.079h1.047c.55 0 1-.45 1-1v-.968c0-.55-.45-1-1-1h-1.047v-1.078c0-.55-.45-1-1-1z" fill="#fafafa"/><path d="m23.25 16.75h-22.5v-11c0-.552.448-1 1-1h20.5c.552 0 1 .448 1 1z" fill="#fafafa"/><path d="m22.25 20.25h-20.5c-.552 0-1-.448-1-1v-2.5h22.5v2.5c0 .552-.448 1-1 1z" fill="#607d8b"/><path d="m22.25 21h-20.5c-.965 0-1.75-.785-1.75-1.75v-13.5c0-.965.785-1.75 1.75-1.75h4.5c.414 0 .75.336.75.75s-.336.75-.75.75h-4.5c-.138 0-.25.112-.25.25v13.5c0 .138.112.25.25.25h20.5c.138 0 .25-.112.25-.25v-8.5c0-.414.336-.75.75-.75s.75.336.75.75v8.5c0 .965-.785 1.75-1.75 1.75z"/><path d="m23.25 17.5h-22.5c-.414 0-.75-.336-.75-.75s.336-.75.75-.75h22.5c.414 0 .75.336.75.75s-.336.75-.75.75z"/><path d="m15.25 24h-6.5c-.303 0-.577-.183-.693-.463s-.052-.602.163-.817c1.041-1.041 1.265-2.553 1.267-2.567.054-.411.432-.706.841-.646.411.054.7.431.646.841-.008.059-.147 1.066-.744 2.152h3.523c-.591-1.08-.738-2.088-.746-2.147-.057-.41.229-.788.64-.846.414-.059.788.229.846.639.007.045.232 1.469 1.184 2.487.195.136.323.361.323.617 0 .414-.336.75-.75.75z"/><path d="m20.25 9h-9.5c-.965 0-1.75-.785-1.75-1.75v-5.5c0-.965.785-1.75 1.75-1.75h9.5c.965 0 1.75.785 1.75 1.75v.25h.25c.965 0 1.75.785 1.75 1.75v1.5c0 .965-.785 1.75-1.75 1.75h-.25v.25c0 .965-.785 1.75-1.75 1.75zm-9.5-7.5c-.138 0-.25.112-.25.25v5.5c0 .138.112.25.25.25h9.5c.138 0 .25-.112.25-.25v-1c0-.414.336-.75.75-.75h1c.138 0 .25-.112.25-.25v-1.5c0-.138-.112-.25-.25-.25h-1c-.414 0-.75-.336-.75-.75v-1c0-.138-.112-.25-.25-.25z"/><path d="m12.75 6.75c-.414 0-.75-.336-.75-.75v-3c0-.414.336-.75.75-.75s.75.336.75.75v3c0 .414-.336.75-.75.75z"/><path d="m15.75 6.75c-.414 0-.75-.336-.75-.75v-3c0-.414.336-.75.75-.75s.75.336.75.75v3c0 .414-.336.75-.75.75z"/></svg>