<svg id="regular" enable-background="new 0 0 24 24" height="512" viewBox="0 0 24 24" width="512" xmlns="http://www.w3.org/2000/svg"><path d="m22.25 19h-20.5c-.552 0-1-.448-1-1v-12.25c0-.552.448-1 1-1h20.5c.552 0 1 .448 1 1v12.25c0 .552-.448 1-1 1z" fill="#fafafa"/><path d="m10.625.938c-.55 0-1 .45-1 1v5.125c0 .55.45 1 1 1h9.625c.55 0 1-.45 1-1v-1.079h1.047c.55 0 1-.45 1-1v-.968c0-.55-.45-1-1-1h-1.047v-1.078c0-.55-.45-1-1-1z" fill="#fafafa"/><path d="m22.25 20h-20.5c-.965 0-1.75-.785-1.75-1.75v-12.5c0-.965.785-1.75 1.75-1.75h4.5c.414 0 .75.336.75.75s-.336.75-.75.75h-4.5c-.138 0-.25.112-.25.25v12.5c0 .138.112.25.25.25h20.5c.138 0 .25-.112.25-.25v-7.5c0-.414.336-.75.75-.75s.75.336.75.75v7.5c0 .965-.785 1.75-1.75 1.75z"/><path d="m16.25 24h-8.5c-.414 0-.75-.336-.75-.75s.336-.75.75-.75h8.5c.414 0 .75.336.75.75s-.336.75-.75.75z"/><path d="m12 24c-.414 0-.75-.336-.75-.75v-4c0-.414.336-.75.75-.75s.75.336.75.75v4c0 .414-.336.75-.75.75z"/><path d="m20.25 9h-9.5c-.965 0-1.75-.785-1.75-1.75v-5.5c0-.965.785-1.75 1.75-1.75h9.5c.965 0 1.75.785 1.75 1.75v.25h.25c.965 0 1.75.785 1.75 1.75v1.5c0 .965-.785 1.75-1.75 1.75h-.25v.25c0 .965-.785 1.75-1.75 1.75zm-9.5-7.5c-.138 0-.25.112-.25.25v5.5c0 .138.112.25.25.25h9.5c.138 0 .25-.112.25-.25v-1c0-.414.336-.75.75-.75h1c.138 0 .25-.112.25-.25v-1.5c0-.138-.112-.25-.25-.25h-1c-.414 0-.75-.336-.75-.75v-1c0-.138-.112-.25-.25-.25z"/><path d="m12.75 6.75c-.414 0-.75-.336-.75-.75v-3c0-.414.336-.75.75-.75s.75.336.75.75v3c0 .414-.336.75-.75.75z"/><path d="m15.75 6.75c-.414 0-.75-.336-.75-.75v-3c0-.414.336-.75.75-.75s.75.336.75.75v3c0 .414-.336.75-.75.75z"/></svg>