<svg id="regular" enable-background="new 0 0 24 24" height="512" viewBox="0 0 24 24" width="512" xmlns="http://www.w3.org/2000/svg"><path d="m22.25 19h-20.5c-.552 0-1-.448-1-1v-12.25c0-.552.448-1 1-1h20.5c.552 0 1 .448 1 1v12.25c0 .552-.448 1-1 1z" fill="#fafafa"/><path d="m11 17c-.159 0-.319-.05-.455-.154-.194-.147-.295-.371-.295-.597 0-.159.05-.318.154-.454l2.326-3.045-2.984-.001c-.287 0-.548-.164-.674-.422s-.093-.564.084-.79l3.326-4.249c.254-.327.727-.384 1.053-.129.326.256.383.727.128 1.053l-2.377 3.038 2.954.001c.149-.016.311.044.445.142v.001c.014.01.027.02.04.031h.001c.127.106.21.247.248.397.011.044.017.088.02.133.011.171-.037.347-.147.494 0 .001 0 .001-.001.002 0 0 0-.005-.001.002 0 0 0 0-.001.001 0 .001 0 .003-.001.002l-3.246 4.249c-.149.193-.372.295-.597.295z"/><path d="m22.25 20h-20.5c-.965 0-1.75-.785-1.75-1.75v-12.5c0-.965.785-1.75 1.75-1.75h20.5c.965 0 1.75.785 1.75 1.75v12.5c0 .965-.785 1.75-1.75 1.75zm-20.5-14.5c-.138 0-.25.112-.25.25v12.5c0 .138.112.25.25.25h20.5c.138 0 .25-.112.25-.25v-12.5c0-.138-.112-.25-.25-.25z"/><path d="m16.25 24h-8.5c-.414 0-.75-.336-.75-.75s.336-.75.75-.75h8.5c.414 0 .75.336.75.75s-.336.75-.75.75z"/><path d="m12 24c-.414 0-.75-.336-.75-.75v-4c0-.414.336-.75.75-.75s.75.336.75.75v4c0 .414-.336.75-.75.75z"/></svg>