<svg id="regular" enable-background="new 0 0 24 24" height="512" viewBox="0 0 24 24" width="512" xmlns="http://www.w3.org/2000/svg"><path d="m21.25 18.25h-18.25v-11.5c0-.552.448-1 1-1h16.25c.552 0 1 .448 1 1z" fill="#fafafa"/><path d="m10.999 17c-.158 0-.318-.05-.454-.154-.193-.147-.295-.371-.295-.597 0-.159.051-.318.154-.454l2.325-3.045-2.984-.001c-.287 0-.549-.164-.675-.422-.125-.258-.093-.564.084-.79l3.326-4.249c.255-.326.727-.387 1.053-.129.326.256.384.727.129 1.053l-2.378 3.038 2.954.001c.174.029.31.044.442.14.017.012.032.023.048.037.125.105.208.244.244.393.012.045.019.091.021.137.01.17-.038.345-.147.492h-.001c0 .001 0 .002-.001.002 0 .001-.001.001-.001.002 0 0-.001 0-.001.001-.001.001-.001.002-.002.002l-3.245 4.249c-.147.192-.369.294-.596.294z"/><path d="m23.25 19h-22.5c-.414 0-.75-.336-.75-.75s.336-.75.75-.75h22.5c.414 0 .75.336.75.75s-.336.75-.75.75z"/><path d="m21.25 19c-.414 0-.75-.336-.75-.75v-11.5c0-.138-.112-.25-.25-.25h-16.5c-.138 0-.25.112-.25.25v11.5c0 .414-.336.75-.75.75s-.75-.336-.75-.75v-11.5c0-.965.785-1.75 1.75-1.75h16.5c.965 0 1.75.785 1.75 1.75v11.5c0 .414-.336.75-.75.75z"/></svg>