<svg id="regular" enable-background="new 0 0 24 24" height="512" viewBox="0 0 24 24" width="512" xmlns="http://www.w3.org/2000/svg"><path d="m21.25 15.25v1c0 1.105-.895 2-2 2h-16.5c-1.105 0-2-.895-2-2v-9.5c0-1.105.895-2 2-2h16.5c1.105 0 2 .895 2 2v1h1c.552 0 1 .448 1 1v5.5c0 .552-.448 1-1 1z" fill="#fafafa"/><path d="m11.834 17.2c-2.714 0-4.334-1.902-4.334-5.089 0-1.488.67-2.611 1.378-3.8.794-1.332 1.615-2.71 1.615-4.836 0-.268.159-.511.404-.618.245-.108.532-.059.729.122l.114.106c2.12 1.956 4.759 4.391 4.759 8.642.001 2.636-1.459 5.473-4.665 5.473z" fill="#4caf50"/><path d="m11.815 18c-3.015 0-4.815-2.114-4.815-5.654 0-1.653.744-2.901 1.531-4.222.882-1.48 1.795-3.011 1.795-5.374 0-.298.176-.567.449-.687.273-.121.591-.066.81.136l.127.118c2.356 2.173 5.288 4.878 5.288 9.602 0 2.929-1.623 6.081-5.185 6.081zm-.116-13.642c-.31 1.901-1.134 3.284-1.879 4.534-.708 1.188-1.32 2.213-1.32 3.454 0 1.895.575 4.154 3.315 4.154 2.909 0 3.685-2.879 3.685-4.581 0-3.469-1.857-5.692-3.801-7.561z"/><path d="m6.75 22.999c-.333 0-.636-.223-.725-.559-.105-.4.133-.811.534-.916 4.95-1.304 4.449-8.643 4.443-8.717-.031-.413.278-.773.691-.805.412-.032.773.277.805.691.027.353.588 8.663-5.557 10.281-.064.017-.128.025-.191.025z"/><path d="m19.25 19h-2.5c-.414 0-.75-.336-.75-.75s.336-.75.75-.75h2.5c.689 0 1.25-.561 1.25-1.25v-1c0-.414.336-.75.75-.75h.991c.138 0 .25-.112.25-.25v-5.5c0-.138-.112-.25-.25-.25h-.991c-.414 0-.75-.336-.75-.75v-1c0-.689-.561-1.25-1.25-1.25h-1.5c-.414 0-.75-.336-.75-.75s.336-.75.75-.75h1.5c1.516 0 2.75 1.233 2.75 2.75v.25h.241c.965 0 1.75.785 1.75 1.75v5.5c0 .965-.785 1.75-1.75 1.75h-.241v.25c0 1.517-1.234 2.75-2.75 2.75z"/><path d="m6.25 19h-3.5c-1.517 0-2.75-1.233-2.75-2.75v-9.5c0-1.517 1.233-2.75 2.75-2.75h4.5c.414 0 .75.336.75.75s-.336.75-.75.75h-4.5c-.689 0-1.25.561-1.25 1.25v9.5c0 .689.561 1.25 1.25 1.25h3.5c.414 0 .75.336.75.75s-.336.75-.75.75z"/></svg>