<svg id="regular" enable-background="new 0 0 24 24" height="512" viewBox="0 0 24 24" width="512" xmlns="http://www.w3.org/2000/svg"><path d="m21.25 15.25v1c0 1.105-.895 2-2 2h-16.5c-1.105 0-2-.895-2-2v-9.5c0-1.105.895-2 2-2h16.5c1.105 0 2 .895 2 2v1h1c.552 0 1 .448 1 1v5.5c0 .552-.448 1-1 1z" fill="#fafafa"/><path d="m6.25 15h-1.5c-.414 0-.75-.336-.75-.75v-5.5c0-.414.336-.75.75-.75s.75.336.75.75v4.75h.75c.414 0 .75.336.75.75s-.336.75-.75.75z"/><path d="m10 15c-1.103 0-2-.897-2-2v-3c0-1.103.897-2 2-2s2 .897 2 2v3c0 1.103-.897 2-2 2zm0-5.5c-.275 0-.5.224-.5.5v3c0 .276.225.5.5.5s.5-.224.5-.5v-3c0-.276-.225-.5-.5-.5z"/><path d="m17.5 15c-.297 0-.57-.176-.689-.455l-.811-1.891-.811 1.892c-.132.31-.447.493-.79.448-.334-.045-.597-.308-.643-.642l-.75-5.5c-.056-.411.231-.789.642-.845.4-.055.788.231.845.642l.384 2.817.434-1.011c.236-.552 1.143-.552 1.379 0l.434 1.011.384-2.817c.057-.411.441-.698.845-.642.41.056.697.434.642.845l-.75 5.5c-.046.334-.309.596-.643.642-.036.004-.069.006-.102.006z"/><path d="m19.25 19h-16.5c-1.517 0-2.75-1.233-2.75-2.75v-9.5c0-1.517 1.233-2.75 2.75-2.75h16.5c1.517 0 2.75 1.233 2.75 2.75v.25h.241c.965 0 1.75.785 1.75 1.75v5.5c0 .965-.785 1.75-1.75 1.75h-.241v.25c0 1.517-1.233 2.75-2.75 2.75zm-16.5-13.5c-.689 0-1.25.561-1.25 1.25v9.5c0 .689.561 1.25 1.25 1.25h16.5c.689 0 1.25-.561 1.25-1.25v-1c0-.414.336-.75.75-.75h.991c.138 0 .25-.112.25-.25v-5.5c0-.138-.112-.25-.25-.25h-.991c-.414 0-.75-.336-.75-.75v-1c0-.689-.561-1.25-1.25-1.25z"/></svg>