<svg id="regular" enable-background="new 0 0 24 24" height="512" viewBox="0 0 24 24" width="512" xmlns="http://www.w3.org/2000/svg"><path d="m21.25 15.25v1c0 1.105-.895 2-2 2h-16.5c-1.105 0-2-.895-2-2v-9.5c0-1.105.895-2 2-2h16.5c1.105 0 2 .895 2 2v1h1c.552 0 1 .448 1 1v5.5c0 .552-.448 1-1 1z" fill="#fafafa"/><path d="m6.042 7.75h-2.084c-.345 0-.625.28-.625.625v6.25c0 .345.28.625.625.625h2.083c.345 0 .625-.28.625-.625v-6.25c.001-.345-.279-.625-.624-.625z" fill="#f44336"/><path d="m19.25 19h-16.5c-1.517 0-2.75-1.233-2.75-2.75v-9.5c0-1.517 1.233-2.75 2.75-2.75h16.5c1.517 0 2.75 1.233 2.75 2.75v.25h.241c.965 0 1.75.785 1.75 1.75v5.5c0 .965-.785 1.75-1.75 1.75h-.241v.25c0 1.517-1.233 2.75-2.75 2.75zm-16.5-13.5c-.689 0-1.25.561-1.25 1.25v9.5c0 .689.561 1.25 1.25 1.25h16.5c.689 0 1.25-.561 1.25-1.25v-1c0-.414.336-.75.75-.75h.991c.138 0 .25-.112.25-.25v-5.5c0-.138-.112-.25-.25-.25h-.991c-.414 0-.75-.336-.75-.75v-1c0-.689-.561-1.25-1.25-1.25z"/><path d="m6.25 16h-2.5c-.414 0-.75-.336-.75-.75v-7.5c0-.414.336-.75.75-.75h2.5c.414 0 .75.336.75.75v7.5c0 .414-.336.75-.75.75zm-1.75-1.5h1v-6h-1z"/></svg>