<svg id="regular" enable-background="new 0 0 24 24" height="512" viewBox="0 0 24 24" width="512" xmlns="http://www.w3.org/2000/svg"><path d="m13.25 5.75v14.5h-11.5v-14.5c0-1.105.895-2 2-2h7.5c1.105 0 2 .895 2 2z" fill="#fafafa"/><path d="m13.25 20v1.25c0 1.105-.895 2-2 2h-7.5c-1.105 0-2-.895-2-2v-1.25z" fill="#607d8b"/><path d="m10.625.938c-.55 0-1 .45-1 1v5.125c0 .55.45 1 1 1h9.625c.55 0 1-.45 1-1v-1.079h1.047c.55 0 1-.45 1-1v-.968c0-.55-.45-1-1-1h-1.047v-1.078c0-.55-.45-1-1-1z" fill="#fafafa"/><path d="m20.25 9h-9.5c-.965 0-1.75-.785-1.75-1.75v-5.5c0-.965.785-1.75 1.75-1.75h9.5c.965 0 1.75.785 1.75 1.75v.25h.25c.965 0 1.75.785 1.75 1.75v1.5c0 .965-.785 1.75-1.75 1.75h-.25v.25c0 .965-.785 1.75-1.75 1.75zm-9.5-7.5c-.138 0-.25.112-.25.25v5.5c0 .138.112.25.25.25h9.5c.138 0 .25-.112.25-.25v-1c0-.414.336-.75.75-.75h1c.138 0 .25-.112.25-.25v-1.5c0-.138-.112-.25-.25-.25h-1c-.414 0-.75-.336-.75-.75v-1c0-.138-.112-.25-.25-.25z"/><path d="m12.75 6.75c-.414 0-.75-.336-.75-.75v-3c0-.414.336-.75.75-.75s.75.336.75.75v3c0 .414-.336.75-.75.75z"/><path d="m15.75 6.75c-.414 0-.75-.336-.75-.75v-3c0-.414.336-.75.75-.75s.75.336.75.75v3c0 .414-.336.75-.75.75z"/><path d="m11.25 24h-7.5c-1.517 0-2.75-1.233-2.75-2.75v-15.5c0-1.517 1.233-2.75 2.75-2.75h2.5c.414 0 .75.336.75.75s-.336.75-.75.75h-2.5c-.689 0-1.25.561-1.25 1.25v15.5c0 .689.561 1.25 1.25 1.25h7.5c.689 0 1.25-.561 1.25-1.25v-9.5c0-.414.336-.75.75-.75s.75.336.75.75v9.5c0 1.517-1.233 2.75-2.75 2.75z"/><path d="m13.25 21h-11.5c-.414 0-.75-.336-.75-.75s.336-.75.75-.75h11.5c.414 0 .75.336.75.75s-.336.75-.75.75z"/></svg>