<svg id="regular" enable-background="new 0 0 24 24" height="512" viewBox="0 0 24 24" width="512" xmlns="http://www.w3.org/2000/svg"><path d="m13.016 20.352h-2.031c-.336 0-.609-.273-.609-.609v-2.234c0-.336.273-.609.609-.609h2.031c.336 0 .609.273.609.609v2.234c0 .336-.273.609-.609.609z" fill="#eceff1"/><path d="m17.25 1.75c0-.552-.448-1-1-1h-8.5c-.552 0-1 .448-1 1v14.5c0 .552.448 1 1 1h8.5c.552 0 1-.448 1-1z" fill="#fafafa"/><path d="m14.5 1.75v-1h-5v1c0 .552.448 1 1 1h3c.552 0 1-.448 1-1z" fill="#607d8b"/><path d="m13.5 3.5h-3c-.965 0-1.75-.785-1.75-1.75 0-.138-.112-.25-.25-.25-.414 0-.75-.336-.75-.75s.336-.75.75-.75c.965 0 1.75.785 1.75 1.75 0 .138.112.25.25.25h3c.138 0 .25-.112.25-.25 0-.965.785-1.75 1.75-1.75.414 0 .75.336.75.75s-.336.75-.75.75c-.138 0-.25.112-.25.25 0 .965-.785 1.75-1.75 1.75z"/><path d="m15.75 18h-7.5c-1.24 0-2.25-1.009-2.25-2.25v-13.5c0-1.241 1.01-2.25 2.25-2.25h7.5c1.24 0 2.25 1.009 2.25 2.25v13.5c0 1.241-1.01 2.25-2.25 2.25zm-7.5-16.5c-.413 0-.75.336-.75.75v13.5c0 .414.337.75.75.75h7.5c.413 0 .75-.336.75-.75v-13.5c0-.414-.337-.75-.75-.75z"/><path d="m13.25 20.75h-2.5c-.414 0-.75-.336-.75-.75v-2.75c0-.414.336-.75.75-.75h2.5c.414 0 .75.336.75.75v2.75c0 .414-.336.75-.75.75zm-1.75-1.5h1v-1.25h-1z"/><path d="m12 24c-.414 0-.75-.336-.75-.75v-3.25c0-.414.336-.75.75-.75s.75.336.75.75v3.25c0 .414-.336.75-.75.75z"/></svg>