<svg id="regular" enable-background="new 0 0 24 24" height="512" viewBox="0 0 24 24" width="512" xmlns="http://www.w3.org/2000/svg"><path d="m17.4.9h-10.8c-1.105 0-2 .895-2 2v18.2c0 1.105.895 2 2 2h10.8c1.105 0 2-.895 2-2v-18.2c0-1.105-.895-2-2-2z" fill="#607d8b"/><path d="m6.147 1.05h11.706c.645 0 1.171.525 1.171 1.171v17.479h-14.048v-17.479c0-.646.526-1.171 1.171-1.171z" fill="#fafafa"/><path d="m11.047 15.338c-.062 0-.125-.01-.187-.031-.256-.088-.414-.343-.381-.612l.491-3.932h-1.448c-.213 0-.408-.118-.507-.306s-.085-.416.036-.591l3.431-4.956c.152-.219.434-.303.681-.206.247.098.394.353.355.617l-.473 3.156h1.433c.206 0 .396.111.498.29.101.179.099.399-.007.576l-3.431 5.719c-.107.174-.295.276-.491.276z" fill="#ffc107"/><path d="m10.75 17c-.082 0-.164-.013-.245-.041-.335-.116-.543-.45-.5-.802l.645-5.157h-1.9c-.279 0-.535-.155-.665-.402-.129-.247-.111-.546.048-.775l4.5-6.5c.199-.288.57-.397.893-.271.324.128.517.463.465.809l-.62 4.139h1.879c.27 0 .52.146.653.38.133.235.129.524-.01.755l-4.5 7.5c-.139.232-.386.365-.643.365zm-.568-7.5h1.318c.215 0 .42.092.563.253.142.162.208.376.182.59l-.309 2.474 1.99-3.317h-1.426c-.218 0-.426-.095-.568-.261-.143-.165-.206-.385-.173-.601l.271-1.808z"/><path d="m19.25 20.5h-14.5c-.414 0-.75-.336-.75-.75s.336-.75.75-.75h14.5c.414 0 .75.336.75.75s-.336.75-.75.75z"/><path d="m17.25 24h-10.5c-1.517 0-2.75-1.233-2.75-2.75v-18.5c0-1.517 1.233-2.75 2.75-2.75h10.5c1.517 0 2.75 1.233 2.75 2.75v18.5c0 1.517-1.233 2.75-2.75 2.75zm-10.5-22.5c-.689 0-1.25.561-1.25 1.25v18.5c0 .689.561 1.25 1.25 1.25h10.5c.689 0 1.25-.561 1.25-1.25v-18.5c0-.689-.561-1.25-1.25-1.25z"/></svg>