<svg id="regular" enable-background="new 0 0 24 24" height="512" viewBox="0 0 24 24" width="512" xmlns="http://www.w3.org/2000/svg"><path d="m19.25 23h-14.5c-.552 0-1-.448-1-1v-20c0-.552.448-1 1-1h14.5c.552 0 1 .448 1 1v20c0 .552-.448 1-1 1z" fill="#eceff1"/><path d="m12 10.51c-1.219 0-2.436-.146-3.751-.438-.369-.084-.624-.404-.624-.779v-4.586c0-.375.255-.695.621-.778 2.632-.584 4.875-.585 7.505 0 .368.083.624.403.624.778v4.586c0 .375-.255.695-.621.778-.001 0-.002 0-.003 0-1.315.293-2.532.439-3.751.439zm3.609-1.079h.009z" fill="#cfd8dc"/><path d="m12 20.51c-1.219 0-2.436-.146-3.751-.438-.368-.083-.624-.403-.624-.778v-4.586c0-.375.255-.695.621-.778 2.632-.584 4.875-.585 7.505 0 .368.083.624.403.624.778v4.586c0 .375-.255.695-.621.778-.001 0-.002 0-.003 0-1.315.292-2.532.438-3.751.438zm3.609-1.079h.009z" fill="#cfd8dc"/><path d="m18.25 24h-12.5c-1.517 0-2.75-1.233-2.75-2.75v-18.5c0-1.517 1.233-2.75 2.75-2.75h12.5c1.517 0 2.75 1.233 2.75 2.75v18.5c0 1.517-1.233 2.75-2.75 2.75zm-12.5-22.5c-.689 0-1.25.561-1.25 1.25v18.5c0 .689.561 1.25 1.25 1.25h12.5c.689 0 1.25-.561 1.25-1.25v-18.5c0-.689-.561-1.25-1.25-1.25z"/><path d="m12 11.011c-1.393 0-2.784-.167-4.286-.5-.422-.096-.714-.462-.714-.891v-5.24c0-.429.292-.795.71-.89 3.009-.667 5.571-.667 8.576-.001.422.096.714.462.714.891v5.24c0 .429-.292.795-.71.89-.001 0-.002 0-.004.001-1.502.333-2.893.5-4.286.5zm4.124-1.233h.01zm-7.624-.634c2.43.487 4.572.486 7 0v-4.288c-2.428-.485-4.57-.485-7 0z"/><path d="m10.5 9c-.414 0-.75-.336-.75-.75v-2.5c0-.414.336-.75.75-.75s.75.336.75.75v2.5c0 .414-.336.75-.75.75z"/><path d="m13.5 9c-.414 0-.75-.336-.75-.75v-2.5c0-.414.336-.75.75-.75s.75.336.75.75v2.5c0 .414-.336.75-.75.75z"/><path d="m12 11.011c-1.393 0-2.784-.167-4.286-.5-.422-.096-.714-.462-.714-.891v-5.24c0-.429.292-.795.71-.89 3.009-.667 5.571-.667 8.576-.001.422.096.714.462.714.891v5.24c0 .429-.292.795-.71.89-.001 0-.002 0-.004.001-1.502.333-2.893.5-4.286.5zm4.124-1.233h.01zm-7.624-.634c2.43.487 4.572.486 7 0v-4.288c-2.428-.485-4.57-.485-7 0z"/><path d="m10.5 9c-.414 0-.75-.336-.75-.75v-2.5c0-.414.336-.75.75-.75s.75.336.75.75v2.5c0 .414-.336.75-.75.75z"/><path d="m13.5 9c-.414 0-.75-.336-.75-.75v-2.5c0-.414.336-.75.75-.75s.75.336.75.75v2.5c0 .414-.336.75-.75.75z"/><path d="m12 21.011c-1.393 0-2.784-.167-4.286-.5-.422-.096-.714-.462-.714-.891v-5.24c0-.429.292-.795.71-.89 3.009-.667 5.571-.667 8.576-.001.422.096.714.462.714.891v5.24c0 .429-.292.795-.71.89-.001 0-.002 0-.004.001-1.502.333-2.893.5-4.286.5zm4.124-1.233h.01zm-7.624-.634c2.43.486 4.572.486 7 0v-4.287c-2.428-.486-4.57-.486-7 0z"/><path d="m10.5 19c-.414 0-.75-.336-.75-.75v-2.5c0-.414.336-.75.75-.75s.75.336.75.75v2.5c0 .414-.336.75-.75.75z"/><path d="m13.5 19c-.414 0-.75-.336-.75-.75v-2.5c0-.414.336-.75.75-.75s.75.336.75.75v2.5c0 .414-.336.75-.75.75z"/><path d="m12 21.011c-1.393 0-2.784-.167-4.286-.5-.422-.096-.714-.462-.714-.891v-5.24c0-.429.292-.795.71-.89 3.009-.667 5.571-.667 8.576-.001.422.096.714.462.714.891v5.24c0 .429-.292.795-.71.89-.001 0-.002 0-.004.001-1.502.333-2.893.5-4.286.5zm4.124-1.233h.01zm-7.624-.634c2.43.486 4.572.486 7 0v-4.287c-2.428-.486-4.57-.486-7 0z"/><path d="m10.5 19c-.414 0-.75-.336-.75-.75v-2.5c0-.414.336-.75.75-.75s.75.336.75.75v2.5c0 .414-.336.75-.75.75z"/><path d="m13.5 19c-.414 0-.75-.336-.75-.75v-2.5c0-.414.336-.75.75-.75s.75.336.75.75v2.5c0 .414-.336.75-.75.75z"/></svg>