<svg id="regular" enable-background="new 0 0 24 24" height="512" viewBox="0 0 24 24" width="512" xmlns="http://www.w3.org/2000/svg"><path d="m12 22.889c-.161 0-.323-.057-.452-.172-.315-.28-7.715-6.935-7.715-13.38 0-4.536 3.663-8.226 8.167-8.226s8.167 3.69 8.167 8.226c0 6.445-7.399 13.1-7.715 13.38-.129.115-.291.172-.452.172z" fill="#f44336"/><path d="m12 24c-.178 0-.356-.063-.498-.189-.348-.309-8.502-7.643-8.502-14.746 0-4.999 4.037-9.065 9-9.065s9 4.066 9 9.065c0 7.103-8.154 14.437-8.502 14.745-.142.127-.32.19-.498.19zm0-22.5c-4.136 0-7.5 3.394-7.5 7.565 0 5.478 5.75 11.462 7.5 13.155 1.75-1.693 7.5-7.678 7.5-13.155 0-4.171-3.364-7.565-7.5-7.565z"/><path d="m10.999 14c-.158 0-.318-.05-.454-.154-.193-.147-.295-.371-.295-.597 0-.159.051-.318.154-.454l2.325-3.045-2.984-.001c-.287 0-.549-.164-.675-.422-.125-.258-.093-.564.084-.79l3.326-4.249c.255-.327.726-.387 1.053-.129.326.256.384.727.129 1.053l-2.378 3.038 2.954.001c.155-.005.31.044.442.14.017.012.032.023.048.037.125.105.208.244.244.393.012.045.019.091.021.137.01.17-.038.345-.147.492h-.001c-.001.001 0 .003-.001.002 0 .001-.001.001-.001.002 0 0-.001 0-.001.001-.001.001-.001.002-.002.002l-3.245 4.249c-.147.192-.369.294-.596.294z"/></svg>