<svg id="regular" enable-background="new 0 0 24 24" height="512" viewBox="0 0 24 24" width="512" xmlns="http://www.w3.org/2000/svg"><path d="m10.82 19.25.93-7h-4l5.5-7.5-1 6h4z" fill="#ffc107"/><path d="m23.25 9h-4.5c-.414 0-.75-.336-.75-.75s.336-.75.75-.75h3.75v-3.75c0-.414.336-.75.75-.75s.75.336.75.75v4.5c0 .414-.336.75-.75.75z"/><path d="m.75 21c-.414 0-.75-.336-.75-.75v-4.5c0-.414.336-.75.75-.75h4.5c.414 0 .75.336.75.75s-.336.75-.75.75h-3.75v3.75c0 .414-.336.75-.75.75z"/><path d="m.851 11.28c-.032 0-.064-.002-.097-.006-.411-.053-.701-.429-.648-.839.766-5.949 5.879-10.435 11.894-10.435 5.204 0 10.183 3.364 11.836 7.998.14.39-.063.819-.454.958-.388.14-.818-.064-.958-.455-1.448-4.056-5.832-7.001-10.424-7.001-5.263 0-9.736 3.923-10.406 9.125-.049.379-.372.655-.743.655z"/><path d="m12 24c-5.204 0-10.183-3.364-11.836-7.998-.14-.39.063-.819.454-.958.39-.139.819.064.958.455 1.448 4.056 5.832 7.001 10.424 7.001 5.263 0 9.736-3.923 10.406-9.125.053-.411.434-.705.84-.648.411.053.701.429.648.839-.766 5.948-5.879 10.434-11.894 10.434z"/><path d="m10.823 20c-.086 0-.173-.015-.257-.045-.331-.121-.533-.455-.486-.803l.815-6.152h-3.145c-.282 0-.541-.159-.669-.411s-.103-.555.064-.782l5.5-7.5c.204-.281.576-.384.896-.248.32.135.506.472.449.814l-.854 5.127h3.114c.274 0 .526.149.658.39.131.24.121.533-.026.764l-5.427 8.5c-.141.221-.382.346-.632.346zm-1.593-8.5h2.52c.216 0 .422.093.564.256.142.162.207.378.179.593l-.482 3.648 2.871-4.497h-2.632c-.221 0-.43-.097-.572-.265-.143-.168-.204-.391-.168-.608l.482-2.894z"/></svg>