<svg id="regular" enable-background="new 0 0 24 24" height="512" viewBox="0 0 24 24" width="512" xmlns="http://www.w3.org/2000/svg"><path d="m10.469 17.625c-.075 0-.152-.016-.224-.05-.228-.107-.349-.36-.288-.605l1.017-4.092h-1.962c-.197 0-.378-.11-.468-.285s-.076-.386.038-.547l3.856-5.449c.14-.198.398-.275.622-.187.226.088.363.318.332.558l-.44 3.449h2.038c.199 0 .381.112.47.289.09.177.072.39-.045.55l-4.519 6.152c-.103.141-.263.217-.427.217z" fill="#ffc107"/><path d="m6.24 18.76c-.192 0-.384-.073-.53-.22-1.748-1.747-2.71-4.069-2.71-6.54s.962-4.793 2.71-6.54c.293-.293.768-.293 1.061 0s.293.768 0 1.061c-1.465 1.463-2.271 3.409-2.271 5.479s.806 4.016 2.271 5.479c.293.292.293.768 0 1.061-.147.147-.339.22-.531.22z"/><path d="m4.12 20.88c-.192 0-.384-.073-.53-.22-2.315-2.315-3.59-5.39-3.59-8.66s1.275-6.345 3.59-8.66c.293-.293.768-.293 1.061 0s.293.768 0 1.061c-2.032 2.031-3.151 4.73-3.151 7.599s1.119 5.568 3.15 7.6c.293.293.293.768 0 1.061-.146.146-.338.219-.53.219z"/><path d="m19.88 20.88c-.192 0-.384-.073-.53-.22-.293-.293-.293-.768 0-1.061 2.032-2.032 3.15-4.73 3.15-7.6s-1.119-5.568-3.15-7.6c-.293-.293-.293-.768 0-1.061s.768-.293 1.061 0c2.314 2.317 3.589 5.392 3.589 8.662s-1.275 6.345-3.59 8.66c-.146.147-.338.22-.53.22z"/><path d="m17.76 18.76c-.192 0-.384-.073-.53-.22-.293-.293-.293-.768 0-1.061 1.464-1.463 2.27-3.409 2.27-5.479s-.806-4.016-2.271-5.479c-.293-.292-.293-.768 0-1.061s.768-.293 1.061 0c1.748 1.747 2.71 4.069 2.71 6.54s-.962 4.793-2.71 6.54c-.146.147-.338.22-.53.22z"/><path d="m9.823 20c-.107 0-.216-.023-.318-.071-.324-.152-.496-.512-.41-.86l1.446-5.819h-2.791c-.28 0-.537-.156-.666-.405s-.108-.549.054-.778l5.483-7.75c.199-.282.566-.391.884-.266.321.125.516.452.472.793l-.625 4.906h2.898c.283 0 .542.159.669.411.128.252.103.555-.064.783l-6.427 8.75c-.145.198-.372.306-.605.306zm-.624-8.25h2.301c.231 0 .449.106.591.288s.193.419.137.643l-.762 3.065 3.302-4.496h-2.268c-.215 0-.42-.093-.563-.254-.142-.162-.208-.377-.181-.59l.353-2.768z"/></svg>