<svg id="regular" enable-background="new 0 0 24 24" height="512" viewBox="0 0 24 24" width="512" xmlns="http://www.w3.org/2000/svg"><path d="m19.25 2.75c0-1.105-.895-2-2-2h-10.5c-1.105 0-2 .895-2 2v18.5c0 1.105.895 2 2 2h10.5c1.105 0 2-.895 2-2z" fill="#fafafa"/><path d="m15.25 2.25v-1.5h-6.5v1.5c0 .552.448 1 1 1h4.5c.552 0 1-.448 1-1z" fill="#607d8b"/><path d="m11.102 18.031c-.059 0-.118-.009-.176-.029-.241-.083-.391-.324-.359-.577l.463-3.706h-1.366c-.2 0-.384-.111-.478-.289-.093-.178-.08-.392.034-.557l3.234-4.672c.143-.206.41-.285.642-.194.233.092.372.333.334.581l-.446 2.975h1.35c.194 0 .373.105.469.273.095.169.093.377-.007.543l-3.234 5.391c-.098.166-.276.261-.46.261z" fill="#ffc107"/><path d="m14.25 4h-4.5c-.965 0-1.75-.785-1.75-1.75 0-.414-.336-.75-.75-.75h-.5c-.414 0-.75-.336-.75-.75s.336-.75.75-.75h.5c1.241 0 2.25 1.009 2.25 2.25 0 .138.112.25.25.25h4.5c.138 0 .25-.112.25-.25 0-1.241 1.009-2.25 2.25-2.25h.5c.414 0 .75.336.75.75s-.336.75-.75.75h-.5c-.414 0-.75.336-.75.75 0 .965-.785 1.75-1.75 1.75z"/><path d="m17.25 24h-10.5c-1.517 0-2.75-1.233-2.75-2.75v-18.5c0-1.517 1.233-2.75 2.75-2.75h10.5c1.517 0 2.75 1.233 2.75 2.75v18.5c0 1.517-1.233 2.75-2.75 2.75zm-10.5-22.5c-.689 0-1.25.561-1.25 1.25v18.5c0 .689.561 1.25 1.25 1.25h10.5c.689 0 1.25-.561 1.25-1.25v-18.5c0-.689-.561-1.25-1.25-1.25z"/><path d="m10.75 20c-.082 0-.164-.013-.245-.041-.335-.116-.543-.45-.5-.802l.645-5.157h-1.9c-.279 0-.535-.155-.665-.402-.129-.247-.111-.546.048-.775l4.5-6.5c.199-.287.569-.398.893-.271.324.128.517.463.465.809l-.62 4.139h1.879c.27 0 .52.146.653.38.133.235.129.524-.01.755l-4.5 7.5c-.139.232-.386.365-.643.365zm-.568-7.5h1.318c.215 0 .42.092.563.253.142.162.208.376.182.59l-.309 2.474 1.99-3.317h-1.426c-.218 0-.426-.095-.568-.261-.143-.165-.206-.385-.173-.601l.271-1.808z"/></svg>