<svg id="regular" enable-background="new 0 0 24 24" height="512" viewBox="0 0 24 24" width="512" xmlns="http://www.w3.org/2000/svg"><path d="m19.562 21.146h-15.125c-.38 0-.687-.308-.687-.688v-3.958c0-1.39 1.131-2.521 2.521-2.521h11.458c1.39 0 2.521 1.131 2.521 2.521v3.958c0 .38-.308.688-.688.688z" fill="#90a4ae"/><path d="m23 23.25h-22.25v-.5c0-1.105.895-2 2-2h18.25c1.105 0 2 .895 2 2z" fill="#607d8b"/><path d="m16.75 1.75v12.5h-9.5v-12.5c0-.552.448-1 1-1h7.5c.552 0 1 .448 1 1z" fill="#fafafa"/><path d="m16.75 14v2.25c0 .552-.448 1-1 1h-7.5c-.552 0-1-.448-1-1v-2.25z" fill="#607d8b"/><path d="m16.75 15h-9.25c-.414 0-.75-.336-.75-.75s.336-.75.75-.75h9.25c.414 0 .75.336.75.75s-.336.75-.75.75z"/><path d="m11.749 11c-.121 0-.244-.029-.358-.092-.363-.198-.497-.653-.299-1.018l.895-1.641h-1.237c-.265 0-.51-.14-.645-.367-.136-.228-.141-.51-.014-.742l1.5-2.75c.198-.363.653-.498 1.018-.299.363.198.497.653.299 1.018l-.894 1.641h1.236c.265 0 .51.14.645.367.136.228.141.51.014.742l-1.5 2.75c-.137.249-.394.391-.66.391z"/><path d="m15.25 18h-6.5c-1.24 0-2.25-1.01-2.25-2.25v-13.5c0-1.24 1.01-2.25 2.25-2.25h6.5c1.24 0 2.25 1.01 2.25 2.25v13.5c0 1.24-1.01 2.25-2.25 2.25zm-6.5-16.5c-.413 0-.75.337-.75.75v13.5c0 .413.337.75.75.75h6.5c.413 0 .75-.337.75-.75v-13.5c0-.413-.337-.75-.75-.75z"/><path d="m20.25 21.5h-16.5c-.414 0-.75-.336-.75-.75v-5c0-1.517 1.233-2.75 2.75-2.75h1.25c.414 0 .75.336.75.75s-.336.75-.75.75h-1.25c-.689 0-1.25.561-1.25 1.25v4.25h15v-4.25c0-.689-.561-1.25-1.25-1.25h-1.25c-.414 0-.75-.336-.75-.75s.336-.75.75-.75h1.25c1.517 0 2.75 1.233 2.75 2.75v5c0 .414-.336.75-.75.75z"/><path d="m23.25 24h-22.5c-.414 0-.75-.336-.75-.75v-.5c0-1.517 1.233-2.75 2.75-2.75h18.5c1.517 0 2.75 1.233 2.75 2.75v.5c0 .414-.336.75-.75.75zm-21.725-1.5h20.949c-.116-.57-.621-1-1.225-1h-18.499c-.604 0-1.108.43-1.225 1z"/></svg>