<svg id="regular" enable-background="new 0 0 24 24" height="512" viewBox="0 0 24 24" width="512" xmlns="http://www.w3.org/2000/svg"><path d="m19.562 21.146h-15.124c-.38 0-.688-.308-.688-.688v-3.958c0-1.39 1.131-2.521 2.521-2.521h11.458c1.39 0 2.521 1.131 2.521 2.521v3.958c0 .38-.308.688-.688.688z" fill="#90a4ae"/><path d="m16.75 1.75c0-.552-.448-1-1-1h-7.5c-.552 0-1 .448-1 1v14.5c0 .552.448 1 1 1h7.5c.552 0 1-.448 1-1z" fill="#fafafa"/><path d="m14.5 2v-1h-5v1c0 .552.448 1 1 1h3c.552 0 1-.448 1-1z" fill="#607d8b"/><path d="m23 23.25h-22.25v-.5c0-1.105.895-2 2-2h18.25c1.105 0 2 .895 2 2z" fill="#607d8b"/><path d="m13.25 3.5h-2.5c-.965 0-1.75-.785-1.75-1.75 0-.138-.112-.25-.25-.25-.414 0-.75-.336-.75-.75s.336-.75.75-.75c.965 0 1.75.785 1.75 1.75 0 .138.112.25.25.25h2.5c.138 0 .25-.112.25-.25 0-.965.785-1.75 1.75-1.75.414 0 .75.336.75.75s-.336.75-.75.75c-.138 0-.25.112-.25.25 0 .965-.785 1.75-1.75 1.75z"/><path d="m15.25 18h-6.5c-1.241 0-2.25-1.01-2.25-2.25v-13.5c0-1.24 1.009-2.25 2.25-2.25h6.5c1.241 0 2.25 1.01 2.25 2.25v13.5c0 1.24-1.009 2.25-2.25 2.25zm-6.5-16.5c-.414 0-.75.337-.75.75v13.5c0 .413.336.75.75.75h6.5c.414 0 .75-.337.75-.75v-13.5c0-.413-.336-.75-.75-.75z"/><path d="m20.25 21.5h-16.5c-.414 0-.75-.336-.75-.75v-5c0-1.517 1.233-2.75 2.75-2.75h1.25c.414 0 .75.336.75.75s-.336.75-.75.75h-1.25c-.689 0-1.25.561-1.25 1.25v4.25h15v-4.25c0-.689-.561-1.25-1.25-1.25h-1.25c-.414 0-.75-.336-.75-.75s.336-.75.75-.75h1.25c1.517 0 2.75 1.233 2.75 2.75v5c0 .414-.336.75-.75.75z"/><path d="m11.75 13c-.122 0-.245-.029-.359-.092-.363-.198-.498-.653-.299-1.018l.895-1.641h-1.237c-.265 0-.51-.14-.645-.367s-.14-.51-.013-.742l1.5-2.75c.197-.363.653-.498 1.018-.299.363.198.498.653.299 1.018l-.896 1.641h1.237c.265 0 .51.14.645.367s.14.51.013.742l-1.5 2.75c-.136.249-.393.391-.658.391z"/><path d="m23.25 24h-22.5c-.414 0-.75-.336-.75-.75v-.5c0-1.517 1.233-2.75 2.75-2.75h18.5c1.517 0 2.75 1.233 2.75 2.75v.5c0 .414-.336.75-.75.75zm-21.725-1.5h20.95c-.116-.57-.622-1-1.225-1h-18.5c-.604 0-1.109.43-1.225 1z"/></svg>