<svg id="regular" enable-background="new 0 0 24 24" height="512" viewBox="0 0 24 24" width="512" xmlns="http://www.w3.org/2000/svg"><path d="m20.25 20c0 1.933-3.694 3.5-8.25 3.5s-8.25-1.567-8.25-3.5v-3h16.5z" fill="#607d8b"/><path d="m4.227 2.693v5.614c0 1.071.872 1.943 1.943 1.943h11.66c1.072 0 1.943-.872 1.943-1.943v-5.614c0-1.071-.872-1.943-1.943-1.943h-11.66c-1.071 0-1.943.872-1.943 1.943z" fill="#607d8b"/><path d="m3.75 9.5v-7.75c0-.413.336-.75.75-.75h12.75v9.25h-12.75c-.414 0-.75-.337-.75-.75z" fill="#fafafa"/><ellipse cx="12" cy="17" fill="#90a4ae" rx="8.25" ry="3.5"/><path d="m12 21.16c-4.363 0-9-1.424-9-4.063 0-1.212 1.025-2.291 2.887-3.039.381-.153.821.031.975.417.154.384-.032.821-.417.976-1.2.481-1.946 1.112-1.946 1.646 0 1.045 2.922 2.563 7.5 2.563s7.5-1.519 7.5-2.563c0-.536-.749-1.168-1.955-1.65-.385-.153-.572-.59-.418-.975.154-.384.591-.568.975-.418 1.87.747 2.899 1.828 2.899 3.043 0 2.639-4.637 4.063-9 4.063z"/><path d="m12 24c-4.363 0-9-1.424-9-4.063v-2.84c0-.414.336-.75.75-.75s.75.336.75.75v2.84c0 1.045 2.922 2.563 7.5 2.563s7.5-1.519 7.5-2.563v-2.84c0-.414.336-.75.75-.75s.75.336.75.75v2.84c0 2.639-4.637 4.063-9 4.063z"/><path d="m15.75 16c-.188 0-.375-.07-.521-.211-.861-.831-2.008-1.289-3.229-1.289s-2.368.458-3.229 1.289c-.297.288-.772.281-1.061-.018-.288-.299-.279-.773.019-1.061 1.142-1.103 2.659-1.71 4.271-1.71s3.129.607 4.271 1.711c.298.287.306.762.019 1.061-.147.152-.344.228-.54.228z"/><path d="m13.75 18c-.147 0-.297-.043-.427-.134-.671-.465-1.974-.465-2.645 0-.339.238-.808.152-1.044-.188s-.152-.808.188-1.044c1.179-.818 3.177-.818 4.355 0 .34.236.425.703.188 1.044-.144.21-.378.322-.615.322z"/><path d="m18.75 11h-13.5c-1.241 0-2.25-1.01-2.25-2.25v-6.5c0-1.24 1.009-2.25 2.25-2.25h13.5c1.241 0 2.25 1.01 2.25 2.25v6.5c0 1.24-1.009 2.25-2.25 2.25zm-13.5-9.5c-.414 0-.75.337-.75.75v6.5c0 .413.336.75.75.75h13.5c.414 0 .75-.337.75-.75v-6.5c0-.413-.336-.75-.75-.75z"/><path d="m17.25 11c-.414 0-.75-.336-.75-.75v-9.5c0-.414.336-.75.75-.75s.75.336.75.75v9.5c0 .414-.336.75-.75.75z"/><path d="m10.75 9c-.122 0-.245-.029-.359-.092-.363-.198-.498-.653-.299-1.018l.895-1.641h-1.237c-.265 0-.51-.14-.645-.367s-.14-.51-.013-.742l1.5-2.75c.197-.363.654-.498 1.018-.299.363.198.498.653.299 1.018l-.896 1.641h1.237c.265 0 .51.14.645.367s.14.51.013.742l-1.5 2.75c-.136.249-.393.391-.658.391z"/></svg>