<svg id="regular" enable-background="new 0 0 24 24" height="512" viewBox="0 0 24 24" width="512" xmlns="http://www.w3.org/2000/svg"><path d="m9.5 18.375c-4.618 0-8.375-3.757-8.375-8.375s3.757-8.375 8.375-8.375 8.375 3.757 8.375 8.375-3.757 8.375-8.375 8.375z" fill="#90a4ae"/><path d="m8.823 16.6-1.06 1.06c-.59.59-1.54.59-2.12 0l-4.45-4.45c-.59-.59-.59-1.54 0-2.12l1.06-1.06z" fill="#607d8b"/><path d="m17.921 7.08-9.276 9.276-6.152-6.152 9.276-9.276c.158-.158.368-.245.592-.245s.434.087.592.245l4.968 4.968c.158.158.245.368.245.592.001.223-.087.434-.245.592z" fill="#fafafa"/><path d="m21.177 18.63h-.354c-1.074 0-1.948-.874-1.948-1.948v-.531c0-.293.238-.531.531-.531h3.188c.293 0 .531.238.531.531v.531c0 1.075-.874 1.948-1.948 1.948z" fill="#eceff1"/><path d="m9.5 19c-.753 0-1.479-.09-2.159-.267-.401-.104-.642-.514-.537-.914.104-.401.511-.645.914-.537.556.145 1.156.218 1.782.218 4.136 0 7.5-3.364 7.5-7.5 0-.565-.063-1.119-.185-1.646-.094-.403.157-.807.561-.9.396-.097.806.156.9.561.149.637.224 1.305.224 1.985 0 4.963-4.037 9-9 9z"/><path d="m1.278 11.478c-.387 0-.715-.297-.747-.689-.02-.264-.031-.526-.031-.789 0-4.963 4.037-9 9-9 .263 0 .525.011.788.031.413.034.721.396.688.809-.034.413-.399.712-.809.688-.222-.019-.445-.028-.667-.028-4.136 0-7.5 3.364-7.5 7.5 0 .222.009.445.027.667.033.413-.274.774-.688.809-.02.001-.04.002-.061.002z"/><path d="m8.821 17.35c-.192 0-.384-.073-.53-.22l-6.571-6.571c-.293-.293-.293-.768 0-1.061s.768-.293 1.061 0l6.571 6.571c.293.293.293.768 0 1.061-.147.146-.338.22-.531.22z"/><path d="m6.699 18.85c-.601 0-1.166-.234-1.591-.659l-4.449-4.45c-.425-.426-.659-.991-.659-1.592s.234-1.166.659-1.591l9.899-9.899c.85-.85 2.332-.85 3.182 0l4.45 4.449c.425.425.659.99.659 1.591 0 .602-.234 1.167-.659 1.592l-9.899 9.899c-.425.425-.99.66-1.592.66zm5.45-17.35c-.2 0-.389.078-.53.22l-9.899 9.899c-.142.142-.22.33-.22.53s.078.389.22.53l4.449 4.45c.284.284.779.283 1.062 0l9.899-9.899c.142-.142.22-.33.22-.531 0-.2-.078-.389-.22-.53l-4.45-4.449c-.142-.142-.33-.22-.531-.22z"/><path d="m15.988 24h-.477c-3.038 0-5.511-2.355-5.511-5.25 0-.414.336-.75.75-.75s.75.336.75.75c0 2.067 1.8 3.75 4.012 3.75h.477c2.211 0 4.011-1.683 4.011-3.75 0-.414.336-.75.75-.75s.75.336.75.75c0 2.895-2.473 5.25-5.512 5.25z"/><path d="m21.25 19.25h-.5c-1.517 0-2.75-1.233-2.75-2.75v-.75c0-.414.336-.75.75-.75h4.5c.414 0 .75.336.75.75v.75c0 1.517-1.233 2.75-2.75 2.75zm-1.75-2.75c0 .689.561 1.25 1.25 1.25h.5c.689 0 1.25-.561 1.25-1.25z"/><path d="m19.75 16.5c-.414 0-.75-.336-.75-.75v-2c0-.414.336-.75.75-.75s.75.336.75.75v2c0 .414-.336.75-.75.75z"/><path d="m22.25 16.5c-.414 0-.75-.336-.75-.75v-2c0-.414.336-.75.75-.75s.75.336.75.75v2c0 .414-.336.75-.75.75z"/></svg>