<svg id="regular" enable-background="new 0 0 24 24" height="512" viewBox="0 0 24 24" width="512" xmlns="http://www.w3.org/2000/svg"><path d="m23 23.25h-22.25v-.5c0-1.105.895-2 2-2h18.25c1.105 0 2 .895 2 2z" fill="#607d8b"/><path d="m19.25.75h-14.5c-.552 0-1 .448-1 1v7.5c0 .552.448 1 1 1h14.5c.552 0 1-.448 1-1v-7.5c0-.552-.448-1-1-1z" fill="#fafafa"/><path d="m4.75 3h-1v5h1c.552 0 1-.448 1-1v-3c0-.552-.448-1-1-1z" fill="#607d8b"/><path d="m3.75 9.5c-.414 0-.75-.336-.75-.75 0-.965.785-1.75 1.75-1.75.138 0 .25-.112.25-.25v-2.5c0-.138-.112-.25-.25-.25-.965 0-1.75-.785-1.75-1.75 0-.414.336-.75.75-.75s.75.336.75.75c0 .138.112.25.25.25.965 0 1.75.785 1.75 1.75v2.5c0 .965-.785 1.75-1.75 1.75-.138 0-.25.112-.25.25 0 .414-.336.75-.75.75z"/><path d="m18.75 11h-13.5c-1.241 0-2.25-1.01-2.25-2.25v-6.5c0-1.24 1.009-2.25 2.25-2.25h13.5c1.241 0 2.25 1.01 2.25 2.25v6.5c0 1.24-1.009 2.25-2.25 2.25zm-13.5-9.5c-.414 0-.75.337-.75.75v6.5c0 .413.336.75.75.75h13.5c.414 0 .75-.337.75-.75v-6.5c0-.413-.336-.75-.75-.75z"/><path d="m11.75 9c-.122 0-.245-.029-.359-.092-.363-.198-.498-.653-.299-1.018l.895-1.641h-1.237c-.265 0-.51-.14-.645-.367s-.14-.51-.013-.742l1.5-2.75c.197-.363.652-.498 1.018-.299.363.198.498.653.299 1.018l-.896 1.641h1.237c.265 0 .51.14.645.367s.14.51.013.742l-1.5 2.75c-.136.249-.393.391-.658.391z"/><path d="m15.75 16c-.188 0-.375-.07-.521-.211-.861-.831-2.008-1.289-3.229-1.289s-2.368.458-3.229 1.289c-.297.288-.771.281-1.061-.018-.288-.299-.279-.773.019-1.061 1.142-1.103 2.659-1.71 4.271-1.71s3.129.607 4.271 1.711c.298.287.306.762.019 1.061-.147.152-.344.228-.54.228z"/><path d="m13.75 18c-.147 0-.297-.043-.427-.134-.671-.465-1.974-.465-2.645 0-.34.238-.807.152-1.044-.188-.236-.341-.152-.808.188-1.044 1.179-.818 3.177-.818 4.355 0 .34.236.425.703.188 1.044-.144.21-.378.322-.615.322z"/><path d="m23.25 24h-22.5c-.414 0-.75-.336-.75-.75v-.5c0-1.517 1.233-2.75 2.75-2.75h18.5c1.517 0 2.75 1.233 2.75 2.75v.5c0 .414-.336.75-.75.75zm-21.725-1.5h20.95c-.116-.57-.622-1-1.225-1h-18.5c-.604 0-1.109.43-1.225 1z"/></svg>