<svg id="regular" enable-background="new 0 0 24 24" height="512" viewBox="0 0 24 24" width="512" xmlns="http://www.w3.org/2000/svg"><path d="m9.5 18.375c-4.618 0-8.375-3.757-8.375-8.375s3.757-8.375 8.375-8.375 8.375 3.757 8.375 8.375-3.757 8.375-8.375 8.375z" fill="#90a4ae"/><path d="m21.181 18.667h-.363c-1.1 0-1.995-.895-1.995-1.995v-.544c0-.3.244-.544.544-.544h3.265c.3 0 .544.244.544.544v.544c0 1.1-.894 1.995-1.995 1.995z" fill="#eceff1"/><path d="m17.402 5.51-4.037-4.037c-.771-.772-2.116-.772-2.886 0l-8.98 8.98c-.386.387-.599.9-.599 1.444 0 .545.213 1.058.598 1.443l4.036 4.037c.398.398.92.597 1.444.597.523 0 1.045-.199 1.443-.597l8.98-8.98c.386-.385.599-.898.599-1.443s-.213-1.058-.598-1.444z" fill="#fafafa"/><path d="m17.66 5.64c-.39-.39-1.02-.39-1.41 0-.19.2-.45.29-.71.29s-.52-.09-.71-.29l-1.62-1.62c-.39-.39-.39-1.03 0-1.42.19-.2.29-.45.29-.7 0-.26-.1-.52-.29-.71z" fill="#607d8b"/><path d="m15.539 6.682c-.468 0-.908-.182-1.238-.513l-1.621-1.621c-.683-.683-.683-1.792 0-2.475.063-.063.073-.138.073-.177s-.01-.113-.073-.177c-.293-.293-.293-.768 0-1.061s.768-.293 1.061 0c.683.683.683 1.792 0 2.475-.098.098-.098.256 0 .354l1.621 1.621c.097.097.256.098.354 0 .682-.681 1.792-.682 2.474-.001.294.293.294.768.002 1.061-.293.294-.768.294-1.061.002-.101-.099-.258-.098-.354-.001-.331.331-.771.513-1.238.513z"/><path d="m9.5 19c-.753 0-1.479-.09-2.159-.267-.401-.104-.642-.514-.537-.914.104-.401.512-.645.914-.537.556.145 1.156.218 1.782.218 4.136 0 7.5-3.364 7.5-7.5 0-.565-.063-1.119-.185-1.646-.094-.403.157-.807.561-.9.398-.097.806.156.9.561.149.637.224 1.305.224 1.985 0 4.963-4.037 9-9 9z"/><path d="m1.278 11.478c-.387 0-.715-.297-.747-.689-.02-.264-.031-.526-.031-.789 0-4.963 4.037-9 9-9 .263 0 .525.011.788.031.413.034.721.396.688.809-.034.413-.397.712-.809.688-.222-.019-.445-.028-.667-.028-4.136 0-7.5 3.364-7.5 7.5 0 .222.009.445.027.667.033.413-.274.774-.688.809-.02.001-.04.002-.061.002z"/><path d="m6.699 18.85c-.601 0-1.166-.234-1.591-.659l-4.449-4.45c-.425-.426-.659-.991-.659-1.592s.234-1.166.659-1.591l9.899-9.899c.85-.85 2.332-.85 3.182 0l4.45 4.449c.425.425.659.99.659 1.591 0 .602-.234 1.167-.659 1.592l-9.899 9.899c-.425.425-.99.66-1.592.66zm5.45-17.35c-.2 0-.389.078-.53.22l-9.899 9.899c-.142.142-.22.33-.22.53s.078.389.22.53l4.449 4.45c.284.284.779.283 1.062 0l9.899-9.899c.142-.142.22-.33.22-.531 0-.2-.078-.389-.22-.53l-4.45-4.449c-.142-.142-.33-.22-.531-.22z"/><path d="m15.988 24h-.477c-3.038 0-5.511-2.355-5.511-5.25 0-.414.336-.75.75-.75s.75.336.75.75c0 2.067 1.8 3.75 4.012 3.75h.477c2.211 0 4.011-1.683 4.011-3.75 0-.414.336-.75.75-.75s.75.336.75.75c0 2.895-2.473 5.25-5.512 5.25z"/><path d="m21.25 19.25h-.5c-1.517 0-2.75-1.233-2.75-2.75v-.75c0-.414.336-.75.75-.75h4.5c.414 0 .75.336.75.75v.75c0 1.517-1.233 2.75-2.75 2.75zm-1.75-2.75c0 .689.561 1.25 1.25 1.25h.5c.689 0 1.25-.561 1.25-1.25z"/><path d="m19.75 16.5c-.414 0-.75-.336-.75-.75v-2c0-.414.336-.75.75-.75s.75.336.75.75v2c0 .414-.336.75-.75.75z"/><path d="m22.25 16.5c-.414 0-.75-.336-.75-.75v-2c0-.414.336-.75.75-.75s.75.336.75.75v2c0 .414-.336.75-.75.75z"/></svg>