<svg id="Capa_1" enable-background="new 0 0 512 512" height="512" viewBox="0 0 512 512" width="512" xmlns="http://www.w3.org/2000/svg"><g><g><path d="m120.305 84.939-45.581 61.697c-6.45 8.73-19.506 8.73-25.955 0l-45.582-61.697c-7.869-10.651-.265-25.723 12.978-25.723h14.676v-28.31c0-17.069 13.836-30.906 30.905-30.906 17.069 0 30.905 13.837 30.905 30.905v28.31h14.676c13.243.001 20.847 15.073 12.978 25.724z" fill="#ff889f"/></g><g><path d="m92.651 30.905v28.31c-46.933 0-66.488 56.82-43.884 87.419l-45.58-61.695c-7.869-10.651-.265-25.723 12.978-25.723h14.676v-28.31c0-17.069 13.836-30.906 30.905-30.906 17.069 0 30.905 13.837 30.905 30.905z" fill="#ff7590"/></g><g><path d="m508.813 84.939-45.582 61.697c-6.45 8.73-19.506 8.73-25.955 0l-45.582-61.697c-7.869-10.651-.265-25.723 12.978-25.723h14.676v-28.31c.001-17.069 13.838-30.906 30.906-30.906 17.069 0 30.905 13.837 30.905 30.905v28.31h14.676c13.243.001 20.847 15.073 12.978 25.724z" fill="#ff889f"/></g><g><path d="m481.16 30.905v28.31c-46.933 0-66.488 56.82-43.884 87.419l-45.58-61.696c-7.869-10.651-.265-25.723 12.978-25.723h14.676v-28.31c-.001-17.068 13.836-30.905 30.904-30.905 17.069 0 30.906 13.837 30.906 30.905z" fill="#ff7590"/></g><g><path d="m444.633 400.671 67.367-26.973c0-11.68-8.884-21.444-20.512-22.545l-46.793-4.428c23.421-10.934 13.981-46.21-11.771-43.984l-.074.006 38.361-27.268c9.52-6.767 12.332-19.665 6.491-29.78-5.84-10.115-18.416-14.13-29.036-9.268l-42.738 19.561c14.816-21.179-10.997-47.009-32.186-32.206l-.061.043 19.587-42.795c4.861-10.621.847-23.196-9.268-29.036-10.115-5.84-23.013-3.029-29.78 6.491l-27.232 38.31c2.242-25.75-33.029-35.213-43.977-11.798l-.032.068-4.434-46.856c-1.1-11.628-10.865-20.512-22.545-20.512s-21.444 8.884-22.545 20.512l-4.428 46.793c-10.934-23.421-46.21-13.981-43.984 11.771l.006.074-27.268-38.361c-6.767-9.52-19.665-12.332-29.78-6.491s-14.13 18.416-9.268 29.036l19.561 42.738c-21.179-14.817-47.01 10.997-32.206 32.186l.043.061-42.797-19.59c-10.621-4.861-23.196-.847-29.036 9.268-5.84 10.115-3.029 23.013 6.491 29.78l38.31 27.232c-25.75-2.242-35.213 33.029-11.798 43.977l.068.032-46.856 4.434c-11.629 1.101-20.513 10.865-20.513 22.545l67.305 26.973z" fill="#ffa973"/></g><g><path d="m397.696 400.671c1.654-8.739 2.529-17.753 2.529-26.973 0-79.654-64.572-144.225-144.225-144.225s-144.225 64.572-144.225 144.225c0 9.22.876 18.234 2.529 26.973z" fill="#fcef92"/></g><g><path d="m176.968 400.671c-1.654-8.739-2.527-17.753-2.527-26.973 0-68.892 48.306-126.492 112.892-140.802-10.089-2.235-20.572-3.424-31.333-3.424-79.653 0-144.225 64.572-144.225 144.225 0 9.22.876 18.234 2.529 26.973h62.664z" fill="#ffd883"/></g><g><g><path d="m188.79 311.994c-6.375 0-12.436-2.756-16.636-7.564-2.725-3.12-2.404-7.858.716-10.583s7.857-2.404 10.583.715c1.35 1.545 3.294 2.432 5.336 2.432h.006c2.044-.002 3.99-.892 5.337-2.44 2.721-3.126 7.458-3.455 10.581-.737 3.125 2.718 3.455 7.456.737 10.581-4.193 4.821-10.259 7.59-16.641 7.597-.006-.001-.013-.001-.019-.001z" fill="#495560"/></g><g><path d="m323.132 311.867c-6.372 0-12.434-2.756-16.632-7.564-2.725-3.12-2.403-7.858.717-10.583s7.858-2.404 10.582.716c1.349 1.545 3.293 2.431 5.334 2.431h.007c2.045-.002 3.989-.891 5.337-2.44 2.721-3.126 7.458-3.454 10.581-.737 3.125 2.718 3.455 7.456.737 10.581-4.194 4.822-10.26 7.591-16.641 7.597-.007-.001-.015-.001-.022-.001z" fill="#495560"/></g><g><path d="m256 323.865c-8.668 0-16.911-3.754-22.615-10.3-2.722-3.123-2.396-7.86.727-10.582 3.122-2.721 7.859-2.396 10.582.727 2.854 3.275 6.976 5.154 11.307 5.154s8.452-1.879 11.307-5.154c2.722-3.124 7.458-3.448 10.582-.727 3.122 2.721 3.448 7.459.727 10.582-5.706 6.546-13.949 10.3-22.617 10.3z" fill="#495560"/></g></g><g><path d="m0 373.698c31.998 0 31.998 20.604 63.997 20.604 32 0 32-20.604 63.999-20.604s31.999 20.604 63.999 20.604c31.998 0 31.998-20.604 63.996-20.604 32 0 32 20.604 63.999 20.604 32.001 0 32.001-20.604 64.001-20.604 32.002 0 32.002 20.604 64.004 20.604s32.002-20.604 64.004-20.604v97.095c.001 22.758-18.448 41.207-41.206 41.207h-429.586c-22.758 0-41.207-18.449-41.207-41.207z" fill="#bfe1ff"/></g><g><path d="m512 470.793v-20.609c-32.002 0-32.002 20.604-64.004 20.604s-32.002-20.604-64.004-20.604c-32 0-32 20.604-64.001 20.604-32 0-32-20.604-63.999-20.604-31.998 0-31.998 20.604-63.996 20.604-31.999 0-31.999-20.604-63.999-20.604-8 0-14 1.288-19 3.219-21.646 8.362-45-7.075-45-30.279v-28.822c-31.998 0-31.998-20.604-63.997-20.604v97.095c0 22.758 18.449 41.207 41.207 41.207h429.586c22.758 0 41.207-18.449 41.207-41.207z" fill="#a3d4ff"/></g></g></svg>