<?xml version="1.0" encoding="utf-8"?>
<!-- Generator: Adobe Illustrator 23.0.1, SVG Export Plug-In . SVG Version: 6.00 Build 0)  -->
<svg version="1.1" id="Material" xmlns="http://www.w3.org/2000/svg" xmlns:xlink="http://www.w3.org/1999/xlink" x="0px" y="0px"
	 viewBox="0 0 192 192" style="enable-background:new 0 0 192 192;" xml:space="preserve">
<style type="text/css">
	.st0{clip-path:url(#SVGID_2_);}
	.st1{fill:#C7DAFB;}
	.st2{fill-opacity:4.000000e-02;}
	.st3{fill:#FFFFFF;fill-opacity:0.2;}
	.st4{clip-path:url(#SVGID_4_);}
	.st5{fill:#EEEEEE;}
	.st6{fill:#FFFFFF;}
	.st7{clip-path:url(#SVGID_6_);}
	.st8{fill:url(#Long_1_);fill-opacity:0.5;}
	.st9{fill:url(#Gradient_1_);}
</style>
<title>MCLOUDY0</title>
<g id="MCLOUDY0">
	<g>
		<g>
			<defs>
				<rect id="SVGID_1_" width="192" height="192"/>
			</defs>
			<clipPath id="SVGID_2_">
				<use xlink:href="#SVGID_1_"  style="overflow:visible;"/>
			</clipPath>
			<g class="st0">
				<path id="Moon-2" class="st1" d="M178.2,65.6c-9.7,21.4-34.9,30.8-56.3,21.1s-30.8-34.9-21.1-56.3c6.1-13.3,18.5-22.5,33-24.5
					c-9.7,21.4-0.3,46.6,21.1,56.3C162.2,65.5,170.3,66.7,178.2,65.6L178.2,65.6z"/>
				<path id="Edge-shadow" class="st2" d="M139.5,90C116.1,90,97.1,71.1,97,47.7c0,0.1,0,0.2,0,0.3c0,23.5,19,42.5,42.5,42.5
					c16.7,0,31.8-9.7,38.7-24.9c-0.1,0-0.2,0-0.3,0C170.9,80.5,155.9,90,139.5,90z"/>
				<path id="Edge-shadow-2" class="st2" d="M130,23.3c0-6,1.3-11.9,3.8-17.4h-0.2c-2.4,5.4-3.6,11.2-3.6,17.1
					C130,23.1,130,23.2,130,23.3z"/>
				<path id="Edge-highlight" class="st3" d="M172.5,66.5c1.8,0,3.6-0.1,5.4-0.3c0.1-0.2,0.2-0.3,0.3-0.5
					c-23.3,3.1-44.7-13.2-47.8-36.4c-0.2-1.8-0.4-3.6-0.4-5.4c0,0.1,0,0.2,0,0.2C130,47.5,149,66.5,172.5,66.5z"/>
				<path id="Edge-highlight-2" class="st3" d="M133.6,6.4l0.2-0.5C112.7,8.7,97,26.7,97,48c0,0.1,0,0.2,0,0.2
					C97.1,27.1,112.7,9.3,133.6,6.4z"/>
				<g id="Shadow-2">
					<g>
						<g>
							<defs>
								<path id="SVGID_3_" d="M178.2,65.6c-9.7,21.4-34.9,30.8-56.3,21.1s-30.8-34.9-21.1-56.3c6.1-13.3,18.5-22.5,33-24.5
									c-9.7,21.4-0.3,46.6,21.1,56.3C162.2,65.5,170.3,66.7,178.2,65.6L178.2,65.6z"/>
							</defs>
							<clipPath id="SVGID_4_">
								<use xlink:href="#SVGID_3_"  style="overflow:visible;"/>
							</clipPath>
							<g class="st4">
								<g id="Drop-2">
									<path class="st5" d="M148,79h-20.5C115.9,45,79,26.9,45,38.5S-7.1,87,4.5,121c9,26.3,33.7,44,61.5,44h82
										c23.7,0,43-19.3,43-43S171.7,79,148,79z"/>
								</g>
							</g>
						</g>
					</g>
				</g>
				<path id="Cloud-2" class="st6" d="M148,79h-20.5C115.9,45,79,26.9,45,38.5S-7.1,87,4.5,121c9,26.3,33.7,44,61.5,44h82
					c23.7,0,43-19.3,43-43S171.7,79,148,79z"/>
				<g id="Shadow-3">
					<g>
						<g>
							<defs>
								<path id="SVGID_5_" d="M148,79h-20.5C115.9,45,79,26.9,45,38.5S-7.1,87,4.5,121c9,26.3,33.7,44,61.5,44h82
									c23.7,0,43-19.3,43-43S171.7,79,148,79z"/>
							</defs>
							<clipPath id="SVGID_6_">
								<use xlink:href="#SVGID_5_"  style="overflow:visible;"/>
							</clipPath>
							<g class="st7">
								
									<linearGradient id="Long_1_" gradientUnits="userSpaceOnUse" x1="90.625" y1="1841.875" x2="163.625" y2="1914.875" gradientTransform="matrix(1 0 0 1 0 -1726)">
									<stop  offset="0" style="stop-color:#000000;stop-opacity:0.1"/>
									<stop  offset="1" style="stop-color:#000000;stop-opacity:0"/>
								</linearGradient>
								<polygon id="Long" class="st8" points="187.5,139 187.5,165 148,165 66,165 127.5,79 								"/>
								<g id="Drop-3">
									<circle class="st6" cx="66" cy="100" r="65"/>
								</g>
								<path id="Edge-shadow-3" class="st2" d="M66,164.5c-35.8,0-64.9-28.9-65-64.8c0,0.1,0,0.2,0,0.3c0,35.9,29.1,65,65,65
									s65-29.1,65-65c0-0.1,0-0.2,0-0.3C130.9,135.6,101.8,164.5,66,164.5z"/>
								
									<linearGradient id="Gradient_1_" gradientUnits="userSpaceOnUse" x1="128.5" y1="1891" x2="128.5" y2="1805" gradientTransform="matrix(1 0 0 1 0 -1726)">
									<stop  offset="0" style="stop-color:#FFFFFF"/>
									<stop  offset="1" style="stop-color:#FFFFFF;stop-opacity:0"/>
								</linearGradient>
								<rect id="Gradient" x="66" y="79" class="st9" width="125" height="86"/>
								<path id="Edge-highlight-3" class="st3" d="M66,35.5c27.8,0,52.5,17.7,61.5,44H148c23.7,0,42.9,19.1,43,42.8
									c0-0.1,0-0.2,0-0.3c0-23.7-19.3-43-43-43h-20.5C115.9,45,79,26.9,45,38.5C18.7,47.5,1,72.2,1,100c0,0.1,0,0.2,0,0.3
									C1.1,64.4,30.2,35.5,66,35.5z"/>
							</g>
						</g>
					</g>
				</g>
				<path id="Cloud-circle" class="st6" d="M66,165c-35.9,0-65-29.1-65-65s29.1-65,65-65s65,29.1,65,65H66V165z"/>
				<path id="Edge-shadow-4" class="st2" d="M148,164.5H66c-35.8,0-64.9-28.9-65-64.8c0,0.1,0,0.2,0,0.3c0,35.9,29.1,65,65,65h82
					c23.7,0,43-19.3,43-43c0-0.1,0-0.2,0-0.3C190.9,145.4,171.7,164.5,148,164.5z"/>
				<path id="Edge-highlighlt" class="st3" d="M66,35.5c35.8,0,64.9,28.9,65,64.8c0-0.1,0-0.2,0-0.3c0-35.9-29.1-65-65-65
					S1,64.1,1,100c0,0.1,0,0.2,0,0.3C1.1,64.4,30.2,35.5,66,35.5z"/>
			</g>
		</g>
	</g>
</g>
</svg>
